# This file uses centimeters as units for non-parametric coordinates.

v -0.000699 0.555147 0.000000
v -0.011784 -0.608662 0.000000
v -0.585686 -0.011399 0.000000
v 0.595537 -0.004446 0.000000
v -0.369056 -0.017982 0.000000
v -0.276390 0.256930 0.000000
v 0.003535 0.365997 0.000000
v 0.262745 0.242568 0.000000
v -0.002320 -0.364772 0.000000
v 0.257826 -0.252825 0.000000
v 0.368190 -0.013869 0.000000
v -0.242132 -0.269621 0.000000
v 0.505761 -0.498097 0.000000
v 0.475433 0.459767 0.000000
v -0.486076 -0.509052 0.000000
v -0.490152 0.473356 0.000000
v 0.136490 0.318105 0.000000
v 0.214345 0.524983 0.000000
v -0.140140 0.314935 0.000000
v -0.237882 0.520719 0.000000
vt 0.491084 1.000000
vt 0.481778 0.000000
vt 0.000000 0.506943
vt 1.000000 0.512779
vt 0.228024 0.503777
vt 0.294365 0.705635
vt 0.707416 0.707416
vt 0.494765 0.793556
vt 0.490574 0.241345
vt 0.681586 0.318414
vt 0.762980 0.506721
vt 0.318890 0.318890
vt 0.921840 0.078160
vt 0.922540 0.922540
vt 0.083620 0.083620
vt 0.080199 0.919801
vt 0.597266 0.752035
vt 0.679377 0.966195
vt 0.391907 0.748430
vt 0.291974 0.961137
vn 0.000000 0.000000 1.000000
vn 0.000000 0.000000 1.000000
vn 0.000000 0.000000 1.000000
vn 0.000000 0.000000 1.000000
vn 0.000000 0.000000 1.000000
vn 0.000000 0.000000 1.000000
vn 0.000000 0.000000 1.000000
vn 0.000000 0.000000 1.000000
vn 0.000000 0.000000 1.000000
vn 0.000000 0.000000 1.000000
vn 0.000000 0.000000 1.000000
vn 0.000000 0.000000 1.000000
vn 0.000000 0.000000 1.000000
vn 0.000000 0.000000 1.000000
vn 0.000000 0.000000 1.000000
vn 0.000000 0.000000 1.000000
vn 0.000000 0.000000 1.000000
vn 0.000000 0.000000 1.000000
vn 0.000000 0.000000 1.000000
vn 0.000000 0.000000 1.000000
vn 0.000000 0.000000 1.000000
vn 0.000000 0.000000 1.000000
vn 0.000000 0.000000 1.000000
vn 0.000000 0.000000 1.000000
vn 0.000000 0.000000 1.000000
vn 0.000000 0.000000 1.000000
vn 0.000000 0.000000 1.000000
vn 0.000000 0.000000 1.000000
vn 0.000000 0.000000 1.000000
vn 0.000000 0.000000 1.000000
vn 0.000000 0.000000 1.000000
vn 0.000000 0.000000 1.000000
vn 0.000000 0.000000 1.000000
vn 0.000000 0.000000 1.000000
vn 0.000000 0.000000 1.000000
vn 0.000000 0.000000 1.000000
vn 0.000000 0.000000 1.000000
vn 0.000000 0.000000 1.000000
vn 0.000000 0.000000 1.000000
vn 0.000000 0.000000 1.000000
f 11/11/1 10/10/2 4/4/3
f 4/4/3 10/10/2 13/13/4
f 9/9/5 2/2/6 10/10/7
f 10/10/7 2/2/6 13/13/8
f 9/9/9 12/12/10 2/2/11
f 2/2/11 12/12/10 15/15/12
f 15/15/13 12/12/14 3/3/15
f 3/3/15 12/12/14 5/5/16
f 11/11/17 4/4/18 8/7/19
f 8/7/19 4/4/18 14/14/20
f 17/17/21 8/7/22 18/18/23
f 18/18/23 8/7/22 14/14/24
f 16/16/25 3/3/26 6/6/27
f 6/6/27 3/3/26 5/5/28
f 17/17/29 18/18/30 7/8/31
f 7/8/31 18/18/30 1/1/32
f 19/19/33 20/20/34 6/6/35
f 6/6/35 20/20/34 16/16/36
f 20/20/37 19/19/38 1/1/39
f 1/1/39 19/19/38 7/8/40
