# This file uses centimeters as units for non-parametric coordinates.

v 0.344976 0.676581 -0.000000
v 0.118871 0.750047 -0.000000
v -0.118871 0.750047 -0.000000
v -0.344976 0.676581 -0.000000
v -0.537297 0.537313 -0.000000
v 0.537313 0.536840 -0.000000
v 0.000000 -0.000473 0.000000
vt 0.729825 0.951056
vt 0.579192 1.000000
vt 0.500000 0.500000
vt 0.420808 1.000000
vt 0.270175 0.951056
vt 0.142040 0.857960
vt 0.857961 0.857960
vn 0.000000 0.000000 1.000000
vn 0.000000 0.000000 1.000000
vn 0.000000 0.000000 1.000000
vn -0.000000 0.000000 1.000000
vn -0.000000 0.000000 1.000000
vn -0.000000 0.000000 1.000000
vn 0.000000 0.000000 1.000000
f 1/1/1 2/2/2 7/3/3
f 2/2/2 3/4/4 7/3/3
f 3/4/4 4/5/5 7/3/3
f 4/5/5 5/6/6 7/3/3
f 6/7/7 1/1/1 7/3/3
