# This file uses centimeters as units for non-parametric coordinates.

v -0.081395 0.091363 0.113074
v 0.013085 0.097795 0.112398
v 0.108870 0.091363 0.113075
v -0.058110 0.096387 0.019930
v 0.011622 0.121461 0.015017
v 0.087469 0.100600 0.017870
v -0.060500 0.086270 -0.093038
v 0.076786 0.089358 -0.093038
v -0.064914 -0.003756 -0.093038
v 0.007201 -0.009960 -0.150919
v 0.089756 -0.002288 -0.093038
v -0.043045 -0.069316 -0.093038
v 0.004603 -0.084720 -0.093038
v 0.089907 -0.071313 -0.093038
v -0.040257 -0.079936 0.006618
v 0.015318 -0.102237 0.022568
v 0.093115 -0.083024 0.012502
v -0.058423 -0.082101 0.113088
v 0.013085 -0.110153 0.112412
v 0.077046 -0.102264 0.113088
v -0.070667 -0.028179 0.113304
v 0.013085 -0.013702 0.112627
v 0.100735 -0.013702 0.113304
v 0.097997 -0.001703 0.018410
v -0.070965 -0.012800 0.011959
v 0.005276 0.090508 -0.093038
vt 0.436770 0.128390
vt 0.444414 0.176406
vt 0.596441 0.126561
vt 0.584129 0.167955
vt 0.403858 0.143862
vt 0.576882 0.121920
vt 0.539651 0.136841
vt 0.574042 0.124874
vt 0.581309 0.078438
vt 0.612009 0.073208
vt 0.558450 0.072072
vt 0.584027 0.039024
vt 0.607844 0.040154
vt 0.553222 0.039120
vt 0.581092 0.026515
vt 0.626986 0.024917
vt 0.533913 0.025200
vt 0.535359 0.077331
vt 0.445694 0.127672
vt 0.455708 0.128669
vt 0.402335 0.032257
vt 0.625730 0.080870
vt 0.447738 0.030664
vt 0.621823 0.136976
vt 0.446837 0.045555
vt 0.423389 0.045391
vt 0.496185 0.030036
vt 0.472214 0.044848
vt 0.495233 0.081231
vt 0.476533 0.081051
vt 0.490837 0.143728
vt 0.413353 0.083667
vt 0.401175 0.085969
vt 0.446073 0.077360
vn -0.741700 0.461919 -0.486325
vn -0.034981 -0.047194 -0.998273
vn -0.879316 -0.122310 -0.460265
vn -0.091812 0.851920 -0.515560
vn 0.623754 0.602282 -0.498184
vn -0.701725 -0.584915 -0.406763
vn -0.068969 -0.924153 -0.375746
vn 0.866605 0.061948 -0.495135
vn 0.753413 -0.440062 -0.488584
vn -0.086862 -0.989253 -0.117618
vn -0.696796 -0.710644 -0.097265
vn 0.731604 -0.676781 -0.081995
vn -0.529022 -0.663186 0.529453
vn -0.091453 -0.721772 0.686062
vn 0.405214 -0.698192 0.590194
vn 0.000846 -0.000028 1.000000
vn -0.831887 -0.209452 0.513901
vn 0.692562 -0.091480 0.715534
vn -0.696431 0.360882 0.620281
vn -0.013989 0.733971 0.679036
vn 0.838777 0.421343 0.344852
vn 0.996371 0.021604 -0.082335
vn 0.635358 0.771530 -0.032591
vn -0.988294 -0.137633 -0.065825
vn -0.558759 0.827296 -0.058049
vn -0.026650 0.998866 -0.039445
f 7/1/1 10/2/2 9/5/3
f 26/19/4 8/20/5 10/2/2
f 12/3/6 10/4/2 13/6/7
f 10/4/2 11/7/8 14/8/9
f 16/9/10 15/10/11 13/6/7
f 13/6/7 15/10/11 12/3/6
f 16/9/10 13/6/7 17/11/12
f 17/11/12 13/6/7 14/8/9
f 15/10/11 16/9/10 18/13/13
f 18/13/13 16/9/10 19/12/14
f 17/11/12 20/14/15 16/9/10
f 16/9/10 20/14/15 19/12/14
f 19/12/14 22/15/16 18/13/13
f 18/13/13 22/15/16 21/16/17
f 19/12/14 20/14/15 22/15/16
f 22/15/16 20/14/15 23/17/18
f 21/21/17 22/23/16 1/26/19
f 1/26/19 22/23/16 2/25/20
f 22/23/16 23/27/18 2/25/20
f 2/25/20 23/27/18 3/28/21
f 20/14/15 17/11/12 23/17/18
f 23/17/18 17/11/12 24/18/22
f 23/27/18 24/29/22 3/28/21
f 3/28/21 24/29/22 6/30/23
f 11/7/8 24/18/22 14/8/9
f 14/8/9 24/18/22 17/11/12
f 6/30/23 24/29/22 8/20/5
f 8/20/5 24/29/22 11/31/8
f 18/13/13 21/16/17 15/10/11
f 15/10/11 21/16/17 25/22/24
f 21/21/17 1/26/19 25/33/24
f 25/33/24 1/26/19 4/32/25
f 15/10/11 25/22/24 12/3/6
f 12/3/6 25/22/24 9/24/3
f 4/32/25 7/1/1 25/33/24
f 25/33/24 7/1/1 9/5/3
f 5/34/26 4/32/25 2/25/20
f 2/25/20 4/32/25 1/26/19
f 5/34/26 2/25/20 6/30/23
f 6/30/23 2/25/20 3/28/21
f 6/30/23 8/20/5 5/34/26
f 5/34/26 8/20/5 26/19/4
f 5/34/26 26/19/4 4/32/25
f 4/32/25 26/19/4 7/1/1
f 7/1/1 26/19/4 10/2/2
f 10/2/2 8/20/5 11/31/8
f 10/4/2 14/8/9 13/6/7
f 9/24/3 10/4/2 12/3/6
