# This file uses centimeters as units for non-parametric coordinates.

v -0.028244 0.065879 0.043223
v 0.011399 0.069764 0.052993
v 0.062795 0.052988 0.047433
v -0.039065 0.068493 -0.005718
v 0.011813 0.080403 -0.005143
v 0.069937 0.068698 -0.006122
v -0.042120 0.067224 -0.049225
v 0.011813 0.078717 -0.047906
v 0.073189 0.068001 -0.045859
v -0.054125 -0.002698 -0.054629
v 0.011813 0.004639 -0.077394
v 0.095102 -0.002386 -0.053204
v -0.040196 -0.071411 -0.056123
v 0.011976 -0.084534 -0.060103
v 0.081072 -0.073778 -0.056372
v -0.040681 -0.075979 -0.005468
v 0.011813 -0.085700 -0.004259
v 0.079193 -0.080484 -0.004259
v -0.027704 -0.071341 0.045133
v 0.011813 -0.070247 0.054903
v 0.061334 -0.071341 0.045133
v -0.037794 -0.011411 0.048413
v 0.011813 -0.011411 0.058184
v 0.070561 -0.011411 0.048414
v 0.094288 -0.006521 -0.004259
v -0.056407 -0.008665 -0.006344
v -0.042200 -0.001804 -0.066773
v 0.011813 -0.051001 -0.074856
v 0.052188 -0.002307 -0.066243
v 0.011813 0.044578 -0.066794
v -0.026287 0.037362 -0.060963
v -0.027864 -0.040660 -0.072424
v 0.044885 0.030815 -0.061310
v 0.048640 -0.056424 -0.069994
v -0.041181 0.070447 0.030325
v 0.011813 0.083162 0.034830
v 0.069966 0.069393 0.030608
v 0.087582 -0.011635 0.032755
v 0.071120 -0.083269 0.030976
v 0.011813 -0.081984 0.036316
v -0.043322 -0.072993 0.029131
v -0.057201 -0.011073 0.028645
vt 0.467874 0.210834
vt 0.500042 0.210712
vt 0.501186 0.238824
vt 0.461577 0.239289
vt 0.532403 0.208210
vt 0.538859 0.236972
vt 0.500580 0.267206
vt 0.469804 0.265574
vt 0.526920 0.266390
vt 0.762728 0.135042
vt 0.448454 0.287606
vt 0.464996 0.285953
vt 0.766202 0.156074
vt 0.495232 0.284098
vt 0.734105 0.158322
vt 0.728169 0.134120
vt 0.693016 0.154450
vt 0.653176 0.142666
vt 0.702641 0.133734
vt 0.697967 0.156681
vt 0.730236 0.106054
vt 0.770594 0.105740
vt 0.692587 0.105258
vt 0.734270 0.072713
vt 0.763919 0.070716
vt 0.694632 0.069959
vt 0.766510 0.051758
vt 0.730377 0.054793
vt 0.730985 0.038964
vt 0.777019 0.048194
vt 0.698216 0.050947
vt 0.676002 0.048021
vt 0.660017 0.062730
vt 0.653802 0.097367
vt 0.495633 0.297128
vt 0.527831 0.284288
vt 0.451945 0.187325
vt 0.794831 0.066622
vt 0.793658 0.099030
vt 0.790603 0.143161
vt 0.779595 0.154279
vt 0.729697 0.163754
vt 0.494872 0.178867
vt 0.500791 0.193185
vt 0.467028 0.191438
vt 0.545408 0.187331
vt 0.530700 0.191757
vt 0.559914 0.200812
vt 0.566082 0.232784
vt 0.567072 0.275127
vt 0.435153 0.204486
vt 0.435939 0.234880
vt 0.438029 0.277076
vt 0.530172 0.286570
vn 0.010341 0.909509 0.415555
vn -0.010675 0.998666 -0.050521
vn -0.694408 0.685963 0.217379
vn -0.713702 0.699883 -0.028179
vn 0.682731 0.675096 0.279506
vn 0.569182 0.822211 0.001172
vn -0.563438 0.554960 -0.612010
vn 0.011903 0.833403 -0.552538
vn 0.663767 0.570505 -0.483671
vn -0.476572 0.135545 -0.868623
vn -0.303114 0.310582 -0.900922
vn 0.019197 0.134454 -0.990734
vn 0.044908 0.371961 -0.927161
vn 0.256419 0.272222 -0.927440
vn -0.382899 -0.140956 -0.912973
vn 0.009637 -0.213908 -0.976806
vn -0.618263 -0.604502 -0.502322
vn -0.018495 -0.762266 -0.647000
vn 0.255018 0.094360 -0.962321
vn 0.643470 0.102202 -0.758618
vn 0.203574 -0.163947 -0.965235
vn 0.612866 -0.654429 -0.442852
vn -0.061383 -0.998080 -0.008243
vn -0.690455 -0.722708 -0.031058
vn 0.760169 -0.648298 0.043046
vn -0.693392 -0.650637 0.309645
vn -0.061064 -0.923868 0.377809
vn 0.454327 -0.799102 0.393730
vn -0.019334 -0.511110 0.859298
vn -0.028106 -0.003177 0.999600
vn -0.333619 -0.485257 0.808222
vn -0.525378 -0.036072 0.850104
vn 0.353369 -0.384972 0.852600
vn 0.437824 -0.024795 0.898719
vn -0.422317 0.370864 0.827108
vn -0.007231 0.474812 0.880058
vn 0.426786 0.333272 0.840704
vn 0.873330 -0.037887 0.485653
vn 0.994529 0.078552 0.068858
vn -0.890775 0.016242 0.454154
vn -0.998492 -0.035010 -0.042274
vn -0.872015 0.067864 -0.484752
f 36/2/1 5/3/2 35/1/3
f 35/1/3 5/3/2 4/4/4
f 36/2/1 37/5/5 5/3/2
f 5/3/2 37/5/5 6/6/6
f 7/8/7 4/4/4 8/7/8
f 8/7/8 4/4/4 5/3/2
f 9/9/9 8/7/8 6/6/6
f 6/6/6 8/7/8 5/3/2
f 27/11/10 31/12/11 11/35/12
f 11/35/12 31/12/11 30/14/13
f 9/9/9 33/36/14 8/7/8
f 8/7/8 33/36/14 30/14/13
f 32/13/15 28/15/16 13/10/17
f 13/10/17 28/15/16 14/16/18
f 29/17/19 12/18/20 34/20/21
f 34/20/21 12/18/20 15/19/22
f 14/16/18 17/21/23 13/10/17
f 13/10/17 17/21/23 16/22/24
f 14/16/18 15/19/22 17/21/23
f 17/21/23 15/19/22 18/23/25
f 16/22/24 17/21/23 41/25/26
f 41/25/26 17/21/23 40/24/27
f 18/23/25 39/26/28 17/21/23
f 17/21/23 39/26/28 40/24/27
f 20/28/29 23/29/30 19/27/31
f 19/27/31 23/29/30 22/30/32
f 20/28/29 21/31/33 23/29/30
f 23/29/30 21/31/33 24/32/34
f 22/37/32 23/43/30 1/45/35
f 1/45/35 23/43/30 2/44/36
f 24/46/34 3/47/37 23/43/30
f 23/43/30 3/47/37 2/44/36
f 39/26/28 18/23/25 38/33/38
f 38/33/38 18/23/25 25/34/39
f 38/48/38 25/49/39 37/5/5
f 37/5/5 25/49/39 6/6/6
f 12/18/20 25/34/39 15/19/22
f 15/19/22 25/34/39 18/23/25
f 12/50/20 9/9/9 25/49/39
f 25/49/39 9/9/9 6/6/6
f 42/38/40 26/39/41 41/25/26
f 41/25/26 26/39/41 16/22/24
f 42/51/40 35/1/3 26/52/41
f 26/52/41 35/1/3 4/4/4
f 10/40/42 13/10/17 26/39/41
f 26/39/41 13/10/17 16/22/24
f 7/8/7 10/53/42 4/4/4
f 4/4/4 10/53/42 26/52/41
f 27/41/10 11/42/12 32/13/15
f 32/13/15 11/42/12 28/15/16
f 11/42/12 29/17/19 28/15/16
f 28/15/16 29/17/19 34/20/21
f 30/14/13 33/36/14 11/35/12
f 11/35/12 33/36/14 29/54/19
f 7/8/7 31/12/11 10/53/42
f 10/53/42 31/12/11 27/11/10
f 7/8/7 8/7/8 31/12/11
f 31/12/11 8/7/8 30/14/13
f 27/41/10 32/13/15 10/40/42
f 10/40/42 32/13/15 13/10/17
f 9/9/9 12/50/20 33/36/14
f 33/36/14 12/50/20 29/54/19
f 15/19/22 14/16/18 34/20/21
f 34/20/21 14/16/18 28/15/16
f 2/44/36 36/2/1 1/45/35
f 1/45/35 36/2/1 35/1/3
f 2/44/36 3/47/37 36/2/1
f 36/2/1 3/47/37 37/5/5
f 24/46/34 38/48/38 3/47/37
f 3/47/37 38/48/38 37/5/5
f 24/32/34 21/31/33 38/33/38
f 38/33/38 21/31/33 39/26/28
f 39/26/28 21/31/33 40/24/27
f 40/24/27 21/31/33 20/28/29
f 41/25/26 40/24/27 19/27/31
f 19/27/31 40/24/27 20/28/29
f 19/27/31 22/30/32 41/25/26
f 41/25/26 22/30/32 42/38/40
f 22/37/32 1/45/35 42/51/40
f 42/51/40 1/45/35 35/1/3
