# This file uses centimeters as units for non-parametric coordinates.

v -0.003281 0.024559 -0.001964
v 0.003046 0.021686 -0.000888
v 0.009968 0.024724 -0.002001
v -0.003406 0.025638 -0.001639
v 0.003148 0.025208 0.001218
v 0.010390 0.025410 -0.001958
v -0.003587 0.028727 -0.001828
v 0.003127 0.029118 0.000371
v 0.010715 0.028749 -0.001730
v -0.006134 0.028826 -0.006581
v 0.003193 0.027507 -0.006166
v 0.012591 0.028855 -0.006456
v -0.002708 0.029506 -0.010520
v 0.003264 0.029047 -0.010891
v 0.009457 0.029506 -0.010406
v -0.002493 0.023520 -0.012565
v 0.003315 0.023539 -0.012246
v 0.009585 0.023520 -0.012442
v -0.003669 0.020562 -0.011360
v 0.003230 0.021551 -0.009977
v 0.010302 0.020562 -0.011257
v -0.005466 0.020413 -0.006723
v 0.003217 0.019599 -0.006616
v 0.011897 0.020442 -0.006598
v 0.012928 0.023793 -0.006080
v -0.005902 0.023758 -0.006229
v 0.000030 0.022087 -0.004097
v 0.006778 0.022362 -0.003926
v 0.004872 0.019928 -0.011285
v 0.001407 0.019959 -0.011312
v 0.003992 0.029101 -0.011246
v 0.003955 0.023537 -0.013000
v 0.002709 0.029090 -0.011281
v 0.002657 0.023537 -0.013007
vt 0.285428 0.062708
vt 0.317103 0.057226
vt 0.317958 0.063498
vt 0.284805 0.064671
vt 0.351241 0.063175
vt 0.353340 0.064446
vt 0.317740 0.071004
vt 0.283939 0.070464
vt 0.355030 0.070615
vt 0.334972 0.059095
vt 0.358964 0.056160
vt 0.364126 0.062145
vt 0.362345 0.071341
vt 0.301801 0.058531
vt 0.271744 0.071155
vt 0.272779 0.061884
vt 0.317078 0.068791
vt 0.346060 0.072879
vt 0.320134 0.072207
vt 0.349755 0.057222
vt 0.346038 0.062605
vt 0.319658 0.062657
vt 0.324227 0.056035
vt 0.316681 0.058653
vt 0.317087 0.054510
vt 0.274915 0.055885
vt 0.283872 0.057054
vt 0.289483 0.062489
vt 0.288493 0.072804
vt 0.314082 0.072181
vt 0.313597 0.062643
vt 0.316752 0.072071
vt 0.316772 0.062540
vt 0.307882 0.056046
vn -0.006740 -0.835262 0.549811
vn -0.001359 -0.221907 0.975067
vn -0.529480 -0.507922 0.679460
vn -0.653925 -0.064107 0.753839
vn 0.471035 -0.549010 0.690444
vn 0.637260 -0.119851 0.761272
vn -0.010388 0.576138 0.817286
vn -0.412768 0.791311 0.451054
vn 0.447706 0.766991 0.459657
vn 0.261147 -0.811541 0.522689
vn 0.429468 -0.841669 0.327338
vn 0.992172 -0.120767 -0.031781
vn 0.756765 0.635609 0.152669
vn -0.271273 -0.822962 0.499143
vn -0.996203 -0.052793 -0.069233
vn -0.762209 0.624002 0.172220
vn -0.006789 0.992995 0.117965
vn 0.475128 0.749827 -0.460448
vn -0.240040 0.702045 -0.670457
vn 0.638796 -0.506275 -0.579332
vn 0.411671 0.010591 -0.911271
vn -0.479952 -0.219491 -0.849394
vn -0.255487 -0.780023 -0.571219
vn -0.022276 -0.774895 -0.631697
vn -0.008430 -0.981976 0.188819
vn -0.474815 -0.824669 0.307362
vn -0.656690 -0.428160 -0.620837
vn -0.399512 0.024896 -0.916390
vn -0.477674 0.730235 -0.488450
vn 0.264827 0.701011 -0.662156
vn 0.471174 -0.245548 -0.847173
vn 0.025796 -0.095093 -0.995134
vn 0.028162 0.908983 -0.415881
vn 0.242955 -0.786886 -0.567260
f 2/2/1 5/3/2 1/1/3
f 1/1/3 5/3/2 4/4/4
f 2/2/1 3/5/5 5/3/2
f 5/3/2 3/5/5 6/6/6
f 5/3/2 8/7/7 4/4/4
f 4/4/4 8/7/7 7/8/8
f 5/3/2 6/6/6 8/7/7
f 8/7/7 6/6/6 9/9/9
f 28/10/10 3/5/5 2/2/1
f 24/11/11 25/12/12 3/5/5
f 3/5/5 25/12/12 6/6/6
f 25/12/12 12/13/13 6/6/6
f 6/6/6 12/13/13 9/9/9
f 28/10/10 24/11/11 3/5/5
f 1/1/3 27/14/14 2/2/1
f 26/16/15 4/4/4 10/15/16
f 10/15/16 4/4/4 7/8/8
f 8/7/7 11/17/17 7/8/8
f 7/8/8 11/17/17 10/15/16
f 8/7/7 9/9/9 11/17/17
f 11/17/17 9/9/9 12/13/13
f 12/13/13 15/18/18 11/17/17
f 11/17/17 15/18/18 31/19/19
f 24/11/11 21/20/20 25/12/12
f 25/12/12 21/20/20 18/21/21
f 18/21/21 15/18/18 25/12/12
f 25/12/12 15/18/18 12/13/13
f 32/22/22 31/19/19 18/21/21
f 18/21/21 31/19/19 15/18/18
f 32/22/22 29/23/23 20/24/24
f 32/22/22 18/21/21 29/23/23
f 29/23/23 18/21/21 21/20/20
f 27/14/14 23/25/25 2/2/1
f 22/26/26 1/1/3 26/16/15
f 26/16/15 1/1/3 4/4/4
f 22/26/26 23/25/25 27/14/14
f 22/26/26 27/14/14 1/1/3
f 23/25/25 28/10/10 2/2/1
f 23/25/25 24/11/11 28/10/10
f 22/26/26 26/16/15 19/27/27
f 19/27/27 26/16/15 16/28/28
f 10/15/16 11/17/17 13/29/29
f 13/29/29 11/17/17 33/30/30
f 34/31/31 33/30/30 17/33/32
f 17/33/32 33/30/30 14/32/33
f 20/24/24 34/31/31 17/33/32
f 19/27/27 30/34/34 22/26/26
f 22/26/26 30/34/34 23/25/25
f 16/28/28 26/16/15 13/29/29
f 13/29/29 26/16/15 10/15/16
f 23/25/25 30/34/34 20/24/24
f 11/17/17 31/19/19 14/32/33
f 33/30/30 11/17/17 14/32/33
f 20/24/24 30/34/34 34/31/31
f 34/31/31 16/28/28 33/30/30
f 33/30/30 16/28/28 13/29/29
f 14/32/33 31/19/19 17/33/32
f 17/33/32 31/19/19 32/22/22
f 32/22/22 20/24/24 17/33/32
f 20/24/24 29/23/23 23/25/25
f 23/25/25 29/23/23 24/11/11
f 24/11/11 29/23/23 21/20/20
f 34/31/31 30/34/34 16/28/28
f 16/28/28 30/34/34 19/27/27
