# This file uses centimeters as units for non-parametric coordinates.

v -0.039746 0.088180 0.036563
v -0.004601 0.088927 0.036563
v 0.037800 0.057776 0.036567
v -0.075653 -0.032719 0.036111
v -0.023773 -0.062248 0.036111
v 0.023305 -0.052795 0.036563
v 0.057638 0.008442 0.036565
v -0.010521 0.021799 0.094391
v -0.017957 -0.031873 0.075948
v -0.053241 -0.014792 0.075901
v -0.054217 0.028819 0.076284
v -0.028091 0.064010 0.076209
v -0.005515 0.066883 0.076173
v 0.027081 0.049166 0.076270
v 0.032171 0.013574 0.076303
v 0.012229 -0.026122 0.076192
v -0.061989 0.027776 0.036373
v -0.004301 0.048978 -0.101041
v 0.010873 0.049300 -0.101041
v 0.029181 0.035850 -0.101039
v -0.019805 -0.003223 -0.101236
v 0.002596 -0.015973 -0.101236
v 0.022922 -0.011891 -0.101041
v 0.037747 0.014549 -0.101040
v -0.013905 0.022897 -0.101123
v 0.005690 0.014991 -0.122702
vt 0.492656 0.376671
vt 0.439329 0.382487
vt 0.438340 0.362732
vt 0.491733 0.357724
vt 0.966859 0.213985
vt 0.966214 0.191250
vt 0.984347 0.201498
vt 0.911320 0.184010
vt 0.936351 0.144094
vt 0.433745 0.330454
vt 0.467876 0.309029
vt 0.970263 0.165822
vt 0.912041 0.211973
vt 0.965212 0.227110
vt 0.910912 0.224056
vt 0.967883 0.237407
vt 0.934412 0.244465
vt 0.491401 0.337099
vt 0.438662 0.349212
vt 0.435329 0.403344
vt 0.847323 0.214657
vt 0.848030 0.202809
vt 0.847935 0.182973
vt 0.815167 0.161878
vt 0.809684 0.225247
vt 0.796649 0.190041
vt 0.418407 0.366738
vt 0.470531 0.408500
vt 0.554983 0.352470
vt 0.555073 0.365697
vt 0.554593 0.338039
vt 0.582796 0.324620
vt 0.584227 0.366085
vt 0.600518 0.349820
vn -0.581861 0.804625 0.118387
vn -0.414936 0.627406 0.658930
vn 0.179700 0.974709 0.132857
vn 0.226606 0.701876 0.675292
vn -0.029707 -0.628671 0.777104
vn 0.453663 -0.464245 0.760701
vn 0.010880 0.027922 0.999551
vn 0.979573 -0.117048 0.163513
vn 0.761166 0.627404 0.164290
vn 0.722352 -0.008867 0.691469
vn 0.580714 0.403203 0.707247
vn 0.456743 -0.869208 0.189376
vn -0.624622 -0.313114 0.715407
vn -0.265412 -0.952933 0.146542
vn -0.918174 -0.384659 0.094837
vn -0.734743 0.235794 0.636046
vn -0.957246 0.288795 -0.016630
vn -0.498899 0.671057 -0.548437
vn 0.331056 0.795234 -0.507942
vn 0.741298 0.496445 -0.451685
vn -0.754447 -0.313650 -0.576571
vn -0.055474 -0.830370 -0.554444
vn 0.588892 -0.636518 -0.498048
vn 0.837027 -0.055757 -0.544314
vn -0.815648 0.243096 -0.524999
vn -0.021650 0.037444 -0.999064
f 1/1/1 12/2/2 2/4/3
f 2/4/3 12/2/2 13/3/4
f 9/5/5 16/6/6 8/7/7
f 7/11/8 3/18/9 15/10/10
f 15/10/10 3/18/9 14/19/11
f 14/19/11 3/18/9 13/3/4
f 13/3/4 3/18/9 2/4/3
f 6/8/12 7/9/8 16/6/6
f 16/6/6 7/9/8 15/12/10
f 9/5/5 10/14/13 5/13/14
f 5/13/14 10/14/13 4/15/15
f 9/5/5 8/7/7 10/14/13
f 11/16/16 10/14/13 8/7/7
f 12/2/2 11/20/16 8/27/7
f 13/3/4 12/2/2 8/27/7
f 8/27/7 14/19/11 13/3/4
f 8/27/7 15/10/10 14/19/11
f 16/6/6 15/12/10 8/7/7
f 16/6/6 9/5/5 6/8/12
f 6/8/12 9/5/5 5/13/14
f 4/15/15 10/14/13 17/17/17
f 17/17/17 10/14/13 11/16/16
f 1/1/1 17/28/17 12/2/2
f 12/2/2 17/28/17 11/20/16
f 1/1/1 2/4/3 18/30/18
f 18/30/18 2/4/3 19/29/19
f 2/4/3 3/18/9 19/29/19
f 19/29/19 3/18/9 20/31/20
f 4/15/15 21/21/21 5/13/14
f 5/13/14 21/21/21 22/22/22
f 5/13/14 22/22/22 6/8/12
f 6/8/12 22/22/22 23/23/23
f 6/8/12 23/23/23 7/9/8
f 7/9/8 23/23/23 24/24/24
f 3/18/9 7/11/8 20/31/20
f 20/31/20 7/11/8 24/32/24
f 4/15/15 17/17/17 21/21/21
f 21/21/21 17/17/17 25/25/25
f 1/1/1 18/30/18 17/28/17
f 17/28/17 18/30/18 25/33/25
f 20/31/20 26/34/26 19/29/19
f 22/22/22 21/21/21 26/26/26
f 26/26/26 21/21/21 25/25/25
f 26/34/26 25/33/25 18/30/18
f 26/34/26 18/30/18 19/29/19
f 24/32/24 26/34/26 20/31/20
f 23/23/23 26/26/26 24/24/24
f 22/22/22 26/26/26 23/23/23
