# This file uses centimeters as units for non-parametric coordinates.

v -0.011296 0.032111 0.032496
v 0.009026 0.035354 0.039403
v 0.029753 0.032111 0.032496
v 0.000221 0.033548 -0.013520
v 0.020319 0.037563 -0.013429
v 0.040929 0.033548 -0.013520
v -0.000355 -0.008117 -0.013520
v 0.020319 -0.012493 -0.013618
v 0.041505 -0.008117 -0.013520
v -0.011896 -0.008219 0.029924
v 0.009968 -0.013855 0.036446
v 0.030313 -0.008219 0.029924
v -0.017205 0.008471 0.036062
v 0.009025 0.009211 0.042969
v 0.035255 0.008471 0.036062
v 0.047660 0.011462 -0.013705
v -0.007097 0.011496 -0.014427
v 0.047564 0.029671 -0.080033
v 0.037791 0.026759 -0.084533
v 0.033234 0.013481 -0.086306
v 0.036061 0.002083 -0.084015
v 0.046399 -0.001512 -0.080041
v 0.057031 0.001319 -0.076232
v 0.061051 0.012452 -0.075974
v 0.057634 0.026000 -0.077106
v 0.050084 0.013792 -0.088520
vt 0.495565 0.498176
vt 0.500782 0.475771
vt 0.551958 0.456591
vt 0.558377 0.473759
vt 0.495554 0.453780
vt 0.553859 0.439572
vt 0.611594 0.438519
vt 0.610612 0.450630
vt 0.610313 0.427039
vt 0.873779 0.450712
vt 0.874255 0.442857
vt 0.914356 0.454859
vt 0.909524 0.467356
vt 0.873909 0.434755
vt 0.912644 0.443602
vt 0.949138 0.468406
vt 0.952650 0.483007
vt 0.952605 0.452377
vt 0.478650 0.517582
vt 0.460626 0.481643
vt 0.470841 0.442987
vt 0.544213 0.424729
vt 0.635676 0.405086
vt 0.545288 0.505307
vt 0.650923 0.445928
vt 0.654212 0.421182
vt 0.975453 0.472291
vt 0.968728 0.498561
vt 0.968618 0.446059
vt 0.918749 0.433690
vt 0.856537 0.420241
vt 0.918071 0.488421
vt 0.846161 0.448067
vt 0.843961 0.431231
vn -0.744017 0.523221 0.415546
vn -0.047181 0.854653 0.517052
vn -0.604161 0.752772 -0.261389
vn -0.003822 0.998925 -0.046192
vn 0.597661 0.598307 0.533695
vn 0.596394 0.795525 0.107022
vn -0.266421 0.712510 -0.649115
vn 0.224361 0.876301 -0.426332
vn 0.823498 0.509583 -0.249353
vn 0.181460 -0.874317 -0.450157
vn 0.006632 -0.995332 -0.096287
vn -0.410612 -0.642685 -0.646803
vn -0.541982 -0.802944 -0.248066
vn 0.783234 -0.562930 -0.263923
vn 0.587987 -0.805508 0.073682
vn -0.037768 -0.894407 0.445657
vn -0.723353 -0.596175 0.348333
vn 0.590690 -0.653941 0.472701
vn 0.001712 -0.086683 0.996235
vn -0.852516 -0.073745 0.517474
vn 0.709766 -0.086656 0.699088
vn 0.973793 -0.025001 0.226060
vn 0.964271 -0.054744 -0.259199
vn -0.939338 -0.050405 -0.339269
vn -0.632075 0.066759 -0.772026
vn 0.350164 -0.030719 -0.936185
f 1/1/1 2/2/2 4/4/3
f 4/4/3 2/2/2 5/3/4
f 2/2/2 3/5/5 5/3/4
f 5/3/4 3/5/5 6/6/6
f 4/4/3 5/3/4 19/8/7
f 19/8/7 5/3/4 18/7/8
f 5/3/4 6/6/6 18/7/8
f 18/7/8 6/6/6 25/9/9
f 22/11/10 8/12/11 21/10/12
f 21/10/12 8/12/11 7/13/13
f 23/14/14 9/15/15 22/11/10
f 22/11/10 9/15/15 8/12/11
f 8/12/11 11/16/16 7/13/13
f 7/13/13 11/16/16 10/17/17
f 9/15/15 12/18/18 8/12/11
f 8/12/11 12/18/18 11/16/16
f 11/16/16 14/27/19 10/17/17
f 10/17/17 14/27/19 13/28/20
f 11/16/16 12/18/18 14/27/19
f 14/27/19 12/18/18 15/29/21
f 13/19/20 14/20/19 1/1/1
f 1/1/1 14/20/19 2/2/2
f 15/21/21 3/5/5 14/20/19
f 14/20/19 3/5/5 2/2/2
f 15/29/21 12/18/18 16/30/22
f 16/30/22 12/18/18 9/15/15
f 15/21/21 16/22/22 3/5/5
f 3/5/5 16/22/22 6/6/6
f 9/15/15 23/14/14 16/30/22
f 16/30/22 23/14/14 24/31/23
f 6/6/6 16/22/22 25/9/9
f 25/9/9 16/22/22 24/23/23
f 13/28/20 17/32/24 10/17/17
f 10/17/17 17/32/24 7/13/13
f 13/19/20 1/1/1 17/24/24
f 17/24/24 1/1/1 4/4/3
f 7/13/13 17/32/24 21/10/12
f 21/10/12 17/32/24 20/33/25
f 17/24/24 4/4/3 20/25/25
f 20/25/25 4/4/3 19/8/7
f 18/7/8 26/26/26 19/8/7
f 23/14/14 22/11/10 26/34/26
f 26/34/26 22/11/10 21/10/12
f 26/34/26 21/10/12 20/33/25
f 26/26/26 20/25/25 19/8/7
f 25/9/9 26/26/26 18/7/8
f 24/23/23 26/26/26 25/9/9
f 23/14/14 26/34/26 24/31/23
