# This file uses centimeters as units for non-parametric coordinates.

v 207.182739 -314.355835 71.844978
v 203.401672 -321.678284 3.189119
v 25.627136 389.218872 -0.524384
v 6.549474 -365.166199 -176.047943
v 345.354095 -162.408447 100.090866
v 12.200071 -161.507263 -386.503784
v 306.891235 -162.604675 -144.783295
v 224.966583 -162.334030 -272.001984
v 161.910309 -366.542786 -127.194000
v -182.470688 -161.860321 -311.928467
v -138.176605 -348.851929 -124.314270
v 374.588501 -63.064041 105.413933
v -184.032715 -63.253544 -340.897064
v 14.812476 -63.542572 -423.143250
v 226.727798 -63.171272 -298.187836
v 304.528778 -62.990200 -143.993423
v 299.055298 -240.329651 -122.726532
v 211.420288 -233.449280 -243.150406
v 10.249102 -235.706848 -352.768860
v -174.006119 -220.840607 -279.979767
v 319.025269 -220.879456 96.668228
v -173.954239 -287.162842 -27.907249
v -276.199341 -220.835098 -127.523079
v -290.900574 -162.183929 -130.764648
v -315.866211 -62.947449 -140.352036
v -123.575493 -289.639954 108.391403
v -253.733749 -220.867737 198.052505
v -274.614655 -162.467957 200.475616
v -302.069550 -62.597042 222.163239
v -10.505403 -295.837036 187.770203
v -33.194283 -220.867447 364.102234
v -36.436237 -161.991638 389.946991
v -34.050541 -62.895847 426.901306
v 126.661545 -307.453552 157.913177
v 199.921509 -220.902954 274.276459
v 220.649811 -162.602371 303.173279
v 230.217636 -63.030022 319.035583
v 14.346855 102.459015 -449.776154
v 226.421188 101.736313 -333.682648
v 327.689514 101.524178 -171.378403
v 415.436401 100.896606 107.824585
v 244.438965 100.962517 343.559784
v -31.420622 100.687370 437.332397
v -308.346619 100.344170 216.202194
v -324.195099 101.291451 -205.252808
v -193.240707 101.918930 -380.508728
v 13.196507 216.029907 -436.913727
v 224.551849 217.971817 -322.632721
v 322.619232 215.886551 -177.106949
v 383.479736 218.294754 107.543541
v 224.501068 220.064102 342.117004
v -30.935915 222.108063 436.110840
v -300.262756 218.384247 214.201004
v -327.009308 221.106964 -209.935440
v -190.830399 218.972748 -365.968689
vt 0.977620 0.000000
vt 0.904745 0.000000
vt 0.486116 0.973880
vt 0.493999 0.973880
vt 0.452372 0.000000
vt 0.977620 0.500000
vt 0.465554 0.500000
vt 0.904744 0.500000
vt 0.685149 0.500000
vt 0.678558 0.000000
vt 0.218389 0.500000
vt 0.214873 0.000000
vt 0.977620 0.750000
vt 0.222101 0.750000
vt 0.472145 0.750000
vt 0.688686 0.768285
vt 0.904744 0.763191
vt 0.904744 0.225714
vt 0.681854 0.250000
vt 0.458963 0.250000
vt 0.216788 0.272372
vt 0.988728 0.271571
vt 0.008164 0.000000
vt 0.008374 0.271602
vt 0.005869 0.500000
vt 0.006452 0.750000
vt 0.914613 0.000000
vt 0.918286 0.271572
vt 0.913899 0.500000
vt 0.905196 0.750000
vt 0.099364 0.000000
vt 0.080364 0.271571
vt 0.072097 0.500000
vt 0.067036 0.750000
vt 0.819541 0.000000
vt 0.833633 0.271571
vt 0.842311 0.500000
vt 0.833715 0.750000
vt 0.477271 0.944472
vt 0.690855 0.932834
vt 0.904745 0.936662
vt 0.977620 0.946204
vt 0.824753 0.965381
vt 0.085290 0.930404
vt 0.906718 0.933694
vt 0.009017 0.941078
vt 0.224838 0.934286
vt 0.478640 0.977949
vt 0.691659 0.975419
vt 0.904745 0.976030
vt 0.977620 0.974156
vt 0.823448 0.978299
vt 0.091820 0.976507
vt 0.907162 0.968862
vt 0.009737 0.976252
vt 0.225756 0.977686
vn -0.550828 -0.578204 0.601888
vn -0.780503 -0.368994 0.504637
vn -0.044063 -0.946486 0.319723
vn 0.608240 0.248962 0.753699
vn -0.075504 0.247384 0.965971
vn 0.508531 0.197867 0.838001
vn -0.088566 0.157547 0.983532
vn 0.565651 0.776727 0.277009
vn 0.013539 0.781583 0.623654
vn 0.555404 0.582291 0.593686
vn -0.039908 0.587034 0.808578
vn -0.676008 0.735909 -0.038101
vn -0.732614 0.576169 0.362361
vn -0.535802 0.739750 0.407045
vn -0.549487 0.543940 0.634187
vn -0.078843 -0.458193 0.885349
vn -0.727161 -0.466299 -0.503788
vn -0.668479 -0.593224 -0.448577
vn -0.359560 -0.902555 -0.236878
vn -0.482779 0.712757 -0.508825
vn -0.479977 0.772951 -0.414933
vn -0.593684 0.658983 -0.461824
vn -0.682403 0.581483 -0.442950
vn -0.804097 0.331573 -0.493445
vn -0.820775 0.193911 -0.537333
vn -0.794975 0.326290 -0.511419
vn -0.804243 0.208119 -0.556669
vn 0.610254 0.340218 0.715431
vn -0.062455 0.347790 0.935490
vn -0.672481 0.260203 0.692866
vn -0.701817 0.204019 0.682517
vn -0.812308 0.193938 0.550039
vn -0.871795 0.102599 0.479006
vn 0.667561 0.714488 -0.209449
vn 0.760862 0.589688 0.270846
vn 0.812893 0.287892 0.506283
vn 0.821275 0.226744 0.523541
vn 0.632499 -0.535797 0.559345
vn 0.548707 -0.486951 0.679559
vn 0.392612 0.910674 -0.128566
vn 0.484438 0.870742 -0.084429
vn 0.674368 0.733775 -0.082473
vn 0.869621 0.490852 -0.053146
vn 0.960793 0.272869 -0.049180
vn 0.969639 0.239888 -0.047468
vn 0.987067 0.155809 -0.037717
vn 0.988308 0.147075 -0.040213
vn 0.446410 -0.894186 -0.033891
vn 0.931706 -0.359577 -0.051267
vn 0.854343 -0.516554 -0.057192
vn 0.267979 0.912012 -0.310519
vn 0.463106 0.660375 -0.591133
vn 0.265327 0.906038 -0.329692
vn 0.443061 0.676328 -0.588454
vn 0.585101 0.300151 -0.753370
vn 0.596352 0.285144 -0.750372
vn 0.599619 0.157069 -0.784721
vn 0.607275 0.159211 -0.778376
vn 0.270728 -0.910246 -0.313302
vn 0.537388 -0.545609 -0.643059
vn 0.587825 -0.375215 -0.716712
vn -0.055518 0.817567 -0.573151
vn -0.106016 0.864635 -0.491087
vn -0.179524 0.768526 -0.614116
vn -0.267342 0.625299 -0.733164
vn -0.310002 0.356202 -0.881487
vn -0.323539 0.295527 -0.898881
vn -0.343033 0.187204 -0.920480
vn -0.370069 0.201409 -0.906909
vn -0.143457 -0.917930 -0.369898
vn -0.312556 -0.382502 -0.869483
vn -0.291713 -0.552584 -0.780740
vn -0.653614 0.756790 -0.007598
vn -0.644165 0.764393 -0.027485
vn -0.644165 0.764393 -0.027485
vn -0.634366 0.771581 -0.047356
vn -0.977875 0.142141 0.153483
vn -0.955225 0.278013 0.101261
vn -0.955225 0.278013 0.101261
vn -0.911846 0.407852 0.046841
vn -0.987585 -0.024652 0.155142
vn -0.970289 0.118897 0.210718
vn -0.970289 0.118897 0.210718
vn -0.929713 0.259592 0.261238
vn -0.454177 -0.884751 0.104592
vn -0.827902 -0.530693 0.181502
vn -0.873117 -0.433131 0.223752
vn -0.622907 0.147723 0.768222
vn -0.860897 0.154507 0.484752
vn -0.938086 0.181209 0.295225
vn -0.937941 0.205475 0.279369
vn -0.937941 0.205475 0.279369
vn -0.937008 0.229568 0.263278
vn -0.805781 0.179851 -0.564244
vn -0.792112 0.205789 -0.574639
vn -0.317466 0.167119 -0.933427
vn -0.347882 0.116252 -0.930303
vn 0.623985 -0.004549 -0.781423
vn 0.615469 0.018170 -0.787952
vn 0.998655 0.035837 -0.037473
vn 0.998622 0.036457 -0.037757
vn 0.798786 0.218261 0.560628
vn -0.088736 -0.112979 0.989627
vn -0.678040 -0.070178 0.731667
vn -0.848356 -0.011099 0.529310
vn -0.957323 -0.142812 0.251273
vn -0.923681 -0.250740 0.289728
vn -0.790296 -0.216496 -0.573203
vn -0.805641 -0.180361 -0.564280
vn -0.333402 -0.036648 -0.942072
vn -0.321099 -0.065198 -0.944799
vn 0.629684 -0.033109 -0.776145
vn 0.623055 -0.055896 -0.780178
vn 0.998448 -0.023990 -0.050270
vn 0.996912 -0.068911 -0.037643
vn 0.777768 -0.023623 0.628107
vn 0.498817 -0.110111 0.859684
f 48/49/1 49/50/2 3/3/3
f 13/14/4 14/15/5 46/47/6
f 46/47/6 14/15/5 38/39/7
f 11/12/8 4/5/9 20/21/10
f 20/21/10 4/5/9 19/20/11
f 2/2/12 17/18/13 9/10/14
f 9/10/14 17/18/13 18/19/15
f 47/48/16 48/49/1 3/3/3
f 9/10/14 18/19/15 4/5/9
f 4/5/9 18/19/15 19/20/11
f 50/51/17 51/52/18 3/3/19
f 1/1/20 34/35/21 21/22/22
f 21/22/22 34/35/21 35/36/23
f 36/37/24 37/38/25 5/6/26
f 5/6/26 37/38/25 12/13/27
f 10/11/28 6/7/29 13/14/4
f 13/14/4 6/7/29 14/15/5
f 8/9/30 15/16/31 6/7/29
f 6/7/29 15/16/31 14/15/5
f 7/8/32 16/17/33 8/9/30
f 8/9/30 16/17/33 15/16/31
f 17/18/13 7/8/32 18/19/15
f 18/19/15 7/8/32 8/9/30
f 18/19/15 8/9/30 19/20/11
f 19/20/11 8/9/30 6/7/29
f 20/21/10 19/20/11 10/11/28
f 10/11/28 19/20/11 6/7/29
f 21/22/22 35/36/23 5/6/26
f 5/6/26 35/36/23 36/37/24
f 22/23/34 11/12/8 23/24/35
f 23/24/35 11/12/8 20/21/10
f 23/24/35 20/21/10 24/25/36
f 24/25/36 20/21/10 10/11/28
f 24/25/36 10/11/28 25/26/37
f 25/26/37 10/11/28 13/14/4
f 3/4/3 54/55/38 55/56/39
f 26/27/40 22/23/41 27/28/42
f 27/28/42 22/23/41 23/24/43
f 27/28/42 23/24/43 28/29/44
f 28/29/44 23/24/43 24/25/45
f 29/30/46 28/29/44 25/26/47
f 25/26/47 28/29/44 24/25/45
f 3/4/48 53/54/49 54/55/50
f 26/27/51 27/28/52 30/31/53
f 30/31/53 27/28/52 31/32/54
f 31/32/54 27/28/52 32/33/55
f 32/33/55 27/28/52 28/29/56
f 33/34/57 32/33/55 29/30/58
f 29/30/58 32/33/55 28/29/56
f 3/4/59 52/53/60 53/54/61
f 34/35/62 30/31/63 35/36/64
f 35/36/64 30/31/63 31/32/65
f 35/36/64 31/32/65 36/37/66
f 36/37/66 31/32/65 32/33/67
f 36/37/66 32/33/67 37/38/68
f 37/38/68 32/33/67 33/34/69
f 3/3/70 51/52/71 52/53/72
f 17/18/73 2/2/74 21/22/75
f 21/22/75 2/2/74 1/1/76
f 7/8/77 17/18/78 5/6/79
f 5/6/79 17/18/78 21/22/80
f 7/8/81 5/6/82 16/17/83
f 16/17/83 5/6/82 12/13/84
f 3/3/85 49/50/86 50/51/87
f 15/16/31 39/40/88 14/15/5
f 14/15/5 39/40/88 38/39/7
f 16/17/33 40/41/89 15/16/31
f 15/16/31 40/41/89 39/40/88
f 40/41/90 16/17/91 41/42/92
f 41/42/92 16/17/91 12/13/93
f 37/38/25 42/43/94 12/13/27
f 12/13/27 42/43/94 41/42/95
f 42/43/96 37/38/68 43/44/97
f 43/44/97 37/38/68 33/34/69
f 44/45/98 43/44/99 29/30/58
f 29/30/58 43/44/99 33/34/57
f 45/46/100 44/45/101 25/26/47
f 25/26/47 44/45/101 29/30/46
f 46/47/6 45/46/102 13/14/4
f 13/14/4 45/46/102 25/26/37
f 55/56/39 47/48/16 3/4/3
f 38/39/103 39/40/104 47/48/16
f 47/48/16 39/40/104 48/49/1
f 40/41/105 49/50/2 39/40/104
f 39/40/104 49/50/2 48/49/1
f 49/50/86 40/41/106 50/51/87
f 50/51/87 40/41/106 41/42/107
f 41/42/108 42/43/109 50/51/17
f 50/51/17 42/43/109 51/52/18
f 52/53/72 51/52/71 43/44/110
f 43/44/110 51/52/71 42/43/111
f 52/53/60 43/44/112 53/54/61
f 53/54/61 43/44/112 44/45/113
f 54/55/50 53/54/49 45/46/114
f 45/46/114 53/54/49 44/45/115
f 54/55/38 45/46/116 55/56/39
f 55/56/39 45/46/116 46/47/117
f 38/39/103 47/48/16 46/47/117
f 46/47/117 47/48/16 55/56/39
