# This file uses centimeters as units for non-parametric coordinates.

v 0.037855 -0.050937 -0.098832
v 0.015945 -0.040588 -0.096777
v 0.010534 -0.017333 -0.092159
v 0.025696 0.001315 -0.088455
v 0.050014 0.001315 -0.088455
v 0.065176 -0.017333 -0.092159
v 0.059764 -0.040588 -0.096777
v 0.007367 -0.055100 -0.058821
v 0.037855 -0.069501 -0.061681
v -0.000163 -0.022742 -0.052395
v 0.020935 0.003208 -0.047241
v 0.054774 0.003208 -0.047241
v 0.075873 -0.022742 -0.052395
v 0.068343 -0.055100 -0.058821
v 0.006080 -0.061533 -0.031698
v 0.037855 -0.076542 -0.034679
v -0.001768 -0.027809 -0.025000
v 0.020221 -0.000764 -0.019629
v 0.055488 -0.000764 -0.019629
v 0.077477 -0.027809 -0.025000
v 0.069629 -0.061533 -0.031698
v 0.005047 -0.070313 0.008279
v 0.037855 -0.085809 0.005201
v -0.003056 -0.035492 0.015195
v 0.019648 -0.007568 0.020740
v 0.056061 -0.007568 0.020740
v 0.078765 -0.035492 0.015195
v 0.070662 -0.070313 0.008279
v 0.005047 -0.079188 0.052968
v 0.037855 -0.094685 0.049890
v -0.003056 -0.044367 0.059883
v 0.019648 -0.016443 0.065429
v 0.056061 -0.016443 0.065429
v 0.078765 -0.044367 0.059883
v 0.070662 -0.079188 0.052968
v 0.014135 -0.073887 0.063477
v 0.037855 -0.085091 0.061252
v 0.008276 -0.048711 0.068477
v 0.024691 -0.028522 0.072487
v 0.051018 -0.028522 0.072487
v 0.067433 -0.048711 0.068477
v 0.061575 -0.073887 0.063477
vt 0.140115 0.582759
vt 0.137503 0.584684
vt 0.147135 0.586309
vt 0.161817 0.586326
vt 0.169843 0.584731
vt 0.165431 0.582802
vt 0.152406 0.581950
vt 0.136545 0.562761
vt 0.135571 0.543672
vt 0.131760 0.544804
vt 0.133040 0.564528
vt 0.169180 0.562940
vt 0.152398 0.562090
vt 0.164684 0.566200
vt 0.175018 0.564746
vt 0.145518 0.566105
vt 0.176931 0.545208
vt 0.177955 0.520108
vt 0.171417 0.519840
vt 0.170599 0.543992
vt 0.152587 0.543335
vt 0.165852 0.546097
vt 0.145184 0.545916
vt 0.171216 0.495371
vt 0.153343 0.495377
vt 0.152916 0.519508
vt 0.145334 0.519807
vt 0.166592 0.520102
vt 0.135447 0.519340
vt 0.131529 0.519464
vt 0.146083 0.493427
vt 0.148209 0.485747
vt 0.164016 0.486069
vt 0.166550 0.493813
vt 0.177511 0.494693
vt 0.132753 0.493854
vt 0.136485 0.494723
vt 0.140613 0.487185
vt 0.153785 0.487822
vt 0.167780 0.487733
vt 0.172590 0.486968
vt 0.137823 0.486262
vn -0.543308 -0.284904 -0.789712
vn -0.677503 0.291701 -0.675203
vn 0.000000 -0.541500 -0.840701
vn -0.301489 0.754172 -0.583378
vn 0.301489 0.754172 -0.583378
vn 0.677503 0.291701 -0.675203
vn 0.543308 -0.284904 -0.789712
vn -0.772001 -0.573101 -0.274900
vn -0.780997 -0.602098 -0.165899
vn -0.962679 0.246295 -0.112198
vn -0.973916 0.226904 -0.001300
vn 0.543308 -0.284904 -0.789712
vn 0.772001 -0.573101 -0.274900
vn 0.000000 -0.541500 -0.840701
vn 0.000000 -0.937715 -0.347406
vn 0.301489 0.754172 -0.583378
vn 0.428402 0.903403 0.018300
vn 0.677503 0.291701 -0.675203
vn 0.962679 0.246295 -0.112198
vn -0.677503 0.291701 -0.675203
vn -0.962679 0.246295 -0.112198
vn -0.301489 0.754172 -0.583378
vn -0.428402 0.903403 0.018300
vn 0.000000 -0.541500 -0.840701
vn 0.000000 -0.937715 -0.347406
vn -0.543308 -0.284904 -0.789712
vn -0.772001 -0.573101 -0.274900
vn 0.677503 0.291701 -0.675203
vn 0.962679 0.246295 -0.112198
vn 0.543308 -0.284904 -0.789712
vn 0.772001 -0.573101 -0.274900
vn -0.301489 0.754172 -0.583378
vn -0.428402 0.903403 0.018300
vn 0.301489 0.754172 -0.583378
vn 0.428402 0.903403 0.018300
vn -0.543308 -0.284904 -0.789712
vn -0.772001 -0.573101 -0.274900
vn -0.677503 0.291701 -0.675203
vn -0.962679 0.246295 -0.112198
vn 0.973916 0.226904 -0.001300
vn 0.974793 0.221398 0.027600
vn 0.780997 -0.602098 -0.165899
vn 0.781736 -0.608328 -0.137206
vn 0.772001 -0.573101 -0.274900
vn 0.780997 -0.602098 -0.165899
vn 0.000000 -0.937715 -0.347406
vn 0.000000 -0.970972 -0.239193
vn 0.428402 0.903403 0.018300
vn 0.433390 0.891679 0.130697
vn 0.962679 0.246295 -0.112198
vn 0.973916 0.226904 -0.001300
vn -0.962679 0.246295 -0.112198
vn -0.973916 0.226904 -0.001300
vn -0.428402 0.903403 0.018300
vn -0.433390 0.891679 0.130697
vn 0.000000 -0.937715 -0.347406
vn 0.000000 -0.970972 -0.239193
vn -0.772001 -0.573101 -0.274900
vn -0.780997 -0.602098 -0.165899
vn 0.962679 0.246295 -0.112198
vn 0.973916 0.226904 -0.001300
vn 0.772001 -0.573101 -0.274900
vn 0.780997 -0.602098 -0.165899
vn -0.428402 0.903403 0.018300
vn -0.433390 0.891679 0.130697
vn 0.428402 0.903403 0.018300
vn 0.433390 0.891679 0.130697
vn 0.781736 -0.608328 -0.137206
vn 0.719016 -0.638914 0.273506
vn 0.000000 -0.977594 -0.210499
vn 0.000000 -0.978530 0.206106
vn -0.433390 0.891679 0.130697
vn -0.433817 0.886734 0.159706
vn 0.433390 0.891679 0.130697
vn 0.433817 0.886734 0.159706
vn -0.780997 -0.602098 -0.165899
vn -0.781736 -0.608328 -0.137206
vn -0.973916 0.226904 -0.001300
vn -0.974793 0.221398 0.027600
vn 0.780997 -0.602098 -0.165899
vn 0.781736 -0.608328 -0.137206
vn 0.000000 -0.970972 -0.239193
vn 0.000000 -0.977594 -0.210499
vn 0.433390 0.891679 0.130697
vn 0.433817 0.886734 0.159706
vn 0.973916 0.226904 -0.001300
vn 0.974793 0.221398 0.027600
vn -0.973916 0.226904 -0.001300
vn -0.974793 0.221398 0.027600
vn -0.433390 0.891679 0.130697
vn -0.433817 0.886734 0.159706
vn 0.000000 -0.970972 -0.239193
vn 0.000000 -0.977594 -0.210499
vn -0.780997 -0.602098 -0.165899
vn -0.781736 -0.608328 -0.137206
vn -0.399007 0.736214 0.546610
vn -0.177303 0.183403 0.966916
vn 0.399007 0.736214 0.546610
vn 0.177303 0.183403 0.966916
vn 0.433817 0.886734 0.159706
vn 0.399007 0.736214 0.546610
vn 0.974793 0.221398 0.027600
vn 0.896588 0.124198 0.425094
vn -0.974793 0.221398 0.027600
vn -0.896588 0.124198 0.425094
vn -0.433817 0.886734 0.159706
vn -0.399007 0.736214 0.546610
vn 0.000000 -0.977594 -0.210499
vn 0.000000 -0.978530 0.206106
vn -0.781736 -0.608328 -0.137206
vn -0.719016 -0.638914 0.273506
vn 0.974793 0.221398 0.027600
vn 0.896588 0.124198 0.425094
vn 0.781736 -0.608328 -0.137206
vn 0.719016 -0.638914 0.273506
vn -0.433817 0.886734 0.159706
vn -0.399007 0.736214 0.546610
vn 0.433817 0.886734 0.159706
vn 0.399007 0.736214 0.546610
vn -0.781736 -0.608328 -0.137206
vn -0.719016 -0.638914 0.273506
vn -0.974793 0.221398 0.027600
vn -0.896588 0.124198 0.425094
vn -0.319520 -0.427726 0.845552
vn 0.000000 -0.578672 0.815560
vn -0.398492 -0.088598 0.912882
vn 0.319520 -0.427726 0.845552
vn 0.398492 -0.088598 0.912882
vn 0.177303 0.183403 0.966916
vn -0.177303 0.183403 0.966916
vn -0.719016 -0.638914 0.273506
vn -0.319520 -0.427726 0.845552
vn -0.896588 0.124198 0.425094
vn -0.398492 -0.088598 0.912882
vn 0.719016 -0.638914 0.273506
vn 0.319520 -0.427726 0.845552
vn 0.000000 -0.978530 0.206106
vn 0.000000 -0.578672 0.815560
vn 0.399007 0.736214 0.546610
vn 0.177303 0.183403 0.966916
vn 0.896588 0.124198 0.425094
vn 0.398492 -0.088598 0.912882
vn -0.896588 0.124198 0.425094
vn -0.398492 -0.088598 0.912882
vn -0.399007 0.736214 0.546610
vn -0.177303 0.183403 0.966916
vn 0.000000 -0.978530 0.206106
vn 0.000000 -0.578672 0.815560
vn -0.719016 -0.638914 0.273506
vn -0.319520 -0.427726 0.845552
vn 0.896588 0.124198 0.425094
vn 0.398492 -0.088598 0.912882
vn 0.719016 -0.638914 0.273506
vn 0.319520 -0.427726 0.845552
f 2/1/1 3/2/2 1/7/3
f 4/3/4 5/4/5 3/2/2
f 6/5/6 7/6/7 5/4/5
f 3/2/2 5/4/5 1/7/3
f 5/4/5 7/6/7 1/7/3
f 8/8/8 15/9/9 10/11/10
f 10/11/10 15/9/9 17/10/11
f 7/6/12 14/12/13 1/7/14
f 1/7/14 14/12/13 9/13/15
f 5/4/16 12/14/17 6/5/18
f 6/5/18 12/14/17 13/15/19
f 3/2/20 10/11/21 4/3/22
f 4/3/22 10/11/21 11/16/23
f 1/7/24 9/13/25 2/1/26
f 2/1/26 9/13/25 8/8/27
f 6/5/28 13/15/29 7/6/30
f 7/6/30 13/15/29 14/12/31
f 4/3/32 11/16/33 5/4/34
f 5/4/34 11/16/33 12/14/35
f 2/1/36 8/8/37 3/2/38
f 3/2/38 8/8/37 10/11/39
f 20/17/40 27/18/41 21/20/42
f 21/20/42 27/18/41 28/19/43
f 14/12/44 21/20/45 9/13/46
f 9/13/46 21/20/45 16/21/47
f 12/14/48 19/22/49 13/15/50
f 13/15/50 19/22/49 20/17/51
f 10/11/52 17/10/53 11/16/54
f 11/16/54 17/10/53 18/23/55
f 9/13/56 16/21/57 8/8/58
f 8/8/58 16/21/57 15/9/59
f 13/15/60 20/17/61 14/12/62
f 14/12/62 20/17/61 21/20/63
f 11/16/64 18/23/65 12/14/66
f 12/14/66 18/23/65 19/22/67
f 28/19/68 35/24/69 23/26/70
f 23/26/70 35/24/69 30/25/71
f 18/23/72 25/27/73 19/22/74
f 19/22/74 25/27/73 26/28/75
f 15/9/76 22/29/77 17/10/78
f 17/10/78 22/29/77 24/30/79
f 21/20/80 28/19/81 16/21/82
f 16/21/82 28/19/81 23/26/83
f 19/22/84 26/28/85 20/17/86
f 20/17/86 26/28/85 27/18/87
f 17/10/88 24/30/89 18/23/90
f 18/23/90 24/30/89 25/27/91
f 16/21/92 23/26/93 15/9/94
f 15/9/94 23/26/93 22/29/95
f 32/31/96 39/32/97 33/34/98
f 33/34/98 39/32/97 40/33/99
f 26/28/100 33/34/101 27/18/102
f 27/18/102 33/34/101 34/35/103
f 24/30/104 31/36/105 25/27/106
f 25/27/106 31/36/105 32/31/107
f 23/26/108 30/25/109 22/29/110
f 22/29/110 30/25/109 29/37/111
f 27/18/112 34/35/113 28/19/114
f 28/19/114 34/35/113 35/24/115
f 25/27/116 32/31/117 26/28/118
f 26/28/118 32/31/117 33/34/119
f 22/29/120 29/37/121 24/30/122
f 24/30/122 29/37/121 31/36/123
f 36/38/124 37/39/125 38/42/126
f 42/40/127 41/41/128 37/39/125
f 40/33/129 39/32/130 41/41/128
f 37/39/125 41/41/128 38/42/126
f 41/41/128 39/32/130 38/42/126
f 29/37/131 36/38/132 31/36/133
f 31/36/133 36/38/132 38/42/134
f 35/24/135 42/40/136 30/25/137
f 30/25/137 42/40/136 37/39/138
f 33/34/139 40/33/140 34/35/141
f 34/35/141 40/33/140 41/41/142
f 31/36/143 38/42/144 32/31/145
f 32/31/145 38/42/144 39/32/146
f 30/25/147 37/39/148 29/37/149
f 29/37/149 37/39/148 36/38/150
f 34/35/151 41/41/152 35/24/153
f 35/24/153 41/41/152 42/40/154
