# This file uses centimeters as units for non-parametric coordinates.

v 0.019005 -0.090881 0.029473
v 0.094423 -0.080078 0.001926
v 0.098903 -0.107819 0.041712
v 0.019267 -0.052595 -0.022284
v -0.050582 -0.080078 0.001926
v -0.056868 -0.107249 0.037937
v 0.103985 -0.090109 0.068366
v 0.098903 -0.107819 0.041712
v 0.099894 0.024054 0.068366
v 0.083724 0.007160 0.018791
v 0.094423 -0.080078 0.001926
v 0.019267 -0.052595 -0.022284
v 0.019268 0.050767 0.018791
v 0.019268 0.067661 0.067689
v -0.060204 0.024054 0.068366
v -0.039883 0.007160 0.018791
v -0.050582 -0.080078 0.001926
v -0.056868 -0.107249 0.037937
v -0.064295 -0.090109 0.068365
v -0.064295 -0.090109 0.068365
v 0.019268 -0.083677 0.067690
v -0.060204 0.024054 0.068366
v -0.056868 -0.107249 0.037937
v 0.019268 0.067661 0.067689
v 0.019005 -0.090881 0.029473
v 0.099894 0.024054 0.068366
v 0.098903 -0.107819 0.041712
v 0.103985 -0.090109 0.068366
vt 0.229805 0.395759
vt 0.227878 0.380666
vt 0.230641 0.377640
vt 0.225957 0.395841
vt 0.228272 0.410724
vt 0.230979 0.413615
vt 0.964317 0.943923
vt 0.957808 0.944623
vt 0.961855 0.935498
vt 0.954269 0.935950
vt 0.950955 0.944080
vt 0.225456 0.962633
vt 0.209174 0.960172
vt 0.224946 0.947752
vt 0.212545 0.937747
vt 0.224769 0.929957
vt 0.218578 0.924575
vt 0.012796 0.875664
vt 0.016771 0.879881
vt 0.010759 0.894479
vt 0.196318 0.955415
vt 0.018625 0.900549
vt 0.194022 0.966065
vt 0.020726 0.916957
vt 0.013806 0.916856
vt 0.007017 0.915543
vt 0.447156 0.942501
vt 0.451115 0.922912
vt 0.459155 0.939354
vt 0.583588 0.658334
vt 0.585765 0.642165
vt 0.586769 0.661483
vt 0.468068 0.922927
vt 0.581427 0.642250
vt 0.459155 0.906437
vt 0.583339 0.625971
vt 0.447156 0.903258
vt 0.586326 0.622718
vn 0.005400 -0.808110 -0.589007
vn -0.093199 -0.813395 -0.574197
vn -0.087999 -0.821693 -0.563095
vn 0.002300 -0.803964 -0.594673
vn -0.093199 -0.813395 -0.574197
vn 0.005400 -0.808110 -0.589007
vn 0.002300 -0.803964 -0.594673
vn 0.005400 -0.808110 -0.589007
vn 0.108503 -0.801320 -0.588314
vn 0.108503 -0.801320 -0.588314
vn 0.005400 -0.808110 -0.589007
vn 0.107695 -0.802560 -0.586771
vn 0.977162 0.034999 -0.209592
vn 0.983487 0.075899 -0.164298
vn 0.781283 0.494489 -0.380892
vn 0.983487 0.075899 -0.164298
vn 0.662398 0.397499 -0.634998
vn 0.781283 0.494489 -0.380892
vn 0.891280 0.188996 -0.412191
vn 0.662398 0.397499 -0.634998
vn 0.983487 0.075899 -0.164298
vn 0.891280 0.188996 -0.412191
vn -0.015200 0.294509 -0.955528
vn 0.662398 0.397499 -0.634998
vn -0.008000 0.763297 -0.645998
vn 0.781283 0.494489 -0.380892
vn 0.662398 0.397499 -0.634998
vn 0.662398 0.397499 -0.634998
vn -0.015200 0.294509 -0.955528
vn -0.008000 0.763297 -0.645998
vn -0.002600 0.945163 -0.326587
vn 0.781283 0.494489 -0.380892
vn -0.008000 0.763297 -0.645998
vn -0.002600 0.945163 -0.326587
vn -0.008000 0.763297 -0.645998
vn -0.774414 0.471909 -0.421408
vn -0.015200 0.294509 -0.955528
vn -0.647567 0.384880 -0.657666
vn -0.008000 0.763297 -0.645998
vn -0.774414 0.471909 -0.421408
vn -0.008000 0.763297 -0.645998
vn -0.647567 0.384880 -0.657666
vn -0.884920 0.190704 -0.424910
vn -0.647567 0.384880 -0.657666
vn -0.015200 0.294509 -0.955528
vn -0.884920 0.190704 -0.424910
vn -0.972424 0.079902 -0.219105
vn -0.647567 0.384880 -0.657666
vn -0.647567 0.384880 -0.657666
vn -0.972424 0.079902 -0.219105
vn -0.774414 0.471909 -0.421408
vn -0.774414 0.471909 -0.421408
vn -0.972424 0.079902 -0.219105
vn -0.966240 0.034601 -0.255310
vn 0.044402 -0.485622 0.873040
vn -0.003000 -0.580706 0.814108
vn 0.008400 -0.000100 0.999965
vn 0.113099 -0.899092 0.422896
vn -0.003000 -0.580706 0.814108
vn 0.044402 -0.485622 0.873040
vn 0.008400 -0.000100 0.999965
vn -0.003000 -0.580706 0.814108
vn 0.000000 0.000000 1.000000
vn 0.002200 -0.982698 0.185200
vn -0.003000 -0.580706 0.814108
vn 0.113099 -0.899092 0.422896
vn -0.003000 -0.580706 0.814108
vn -0.008300 -0.000100 0.999966
vn 0.000000 0.000000 1.000000
vn 0.002200 -0.982698 0.185200
vn -0.111405 -0.874842 0.471423
vn -0.003000 -0.580706 0.814108
vn -0.042399 -0.465394 0.884088
vn -0.008300 -0.000100 0.999966
vn -0.003000 -0.580706 0.814108
vn -0.003000 -0.580706 0.814108
vn -0.111405 -0.874842 0.471423
vn -0.042399 -0.465394 0.884088
f 1/1/1 2/2/2 3/3/3
f 4/4/4 2/2/5 1/1/6
f 4/4/7 1/1/8 5/5/9
f 5/5/10 1/1/11 6/6/12
f 7/7/13 8/8/14 9/9/15
f 8/8/16 10/10/17 9/9/18
f 11/11/19 10/10/20 8/8/21
f 11/12/22 12/13/23 10/14/24
f 13/15/25 9/16/26 10/14/27
f 10/14/28 12/13/29 13/15/30
f 14/17/31 9/16/32 13/15/33
f 14/18/34 13/19/35 15/20/36
f 12/13/37 16/21/38 13/15/39
f 15/20/40 13/19/41 16/22/42
f 17/23/43 16/21/44 12/13/45
f 17/24/46 18/25/47 16/22/48
f 16/22/49 18/25/50 15/20/51
f 15/20/52 18/25/53 19/26/54
f 20/27/55 21/28/56 22/29/57
f 23/30/58 21/31/59 20/32/60
f 22/29/61 21/28/62 24/33/63
f 25/34/64 21/31/65 23/30/66
f 21/28/67 26/35/68 24/33/69
f 25/34/70 27/36/71 21/31/72
f 28/37/73 26/35/74 21/28/75
f 21/31/76 27/36/77 28/38/78
