# This file uses centimeters as units for non-parametric coordinates.

v 0.018155 -0.017629 -0.159622
v 0.014559 -0.001680 -0.161217
v 0.024716 0.011217 -0.160630
v 0.040976 0.011351 -0.158303
v 0.051097 -0.001379 -0.155988
v 0.047456 -0.017388 -0.155428
v 0.032795 -0.024619 -0.157046
v 0.052055 -0.021465 -0.145412
v 0.057157 0.000966 -0.146196
v 0.042976 0.018805 -0.149439
v 0.020191 0.018617 -0.152700
v 0.005959 0.000545 -0.153523
v 0.031512 -0.031599 -0.147678
v 0.010997 -0.021803 -0.151288
v 0.028266 -0.040191 -0.124501
v -0.000088 -0.026652 -0.129490
v -0.007052 0.004236 -0.132580
v 0.012618 0.029215 -0.131443
v 0.044110 0.029474 -0.126936
v 0.063710 0.004819 -0.122452
v 0.056659 -0.026185 -0.121369
v -0.006475 -0.025869 -0.097428
v 0.023595 -0.040227 -0.092137
v -0.013860 0.006889 -0.100704
v 0.007001 0.033378 -0.099499
v 0.040398 0.033653 -0.094719
v 0.061184 0.007506 -0.089965
v 0.053706 -0.025373 -0.088815
v -0.016301 -0.024182 -0.045462
v 0.016032 -0.039620 -0.039773
v -0.024243 0.011042 -0.048985
v -0.001812 0.039526 -0.047688
v 0.034100 0.039821 -0.042549
v 0.056451 0.011706 -0.037436
v 0.048409 -0.023649 -0.036201
v -0.027378 -0.022476 0.012042
v 0.007660 -0.039206 0.018208
v -0.035984 0.015694 0.008225
v -0.011676 0.046561 0.009630
v 0.027239 0.046881 0.015199
v 0.051460 0.016414 0.020740
v 0.042746 -0.021899 0.022078
v -0.040065 -0.022256 0.068419
v -0.000575 -0.041113 0.075368
v -0.049764 0.020764 0.064116
v -0.022368 0.055554 0.065700
v 0.021493 0.055915 0.071977
v 0.048791 0.021576 0.078221
v 0.038970 -0.021606 0.079730
v -0.025660 -0.006494 0.092126
v -0.003724 -0.016968 0.095986
v -0.031048 0.017403 0.089736
v -0.015830 0.036727 0.090616
v 0.008534 0.036928 0.094103
v 0.023697 0.017853 0.097571
v 0.018242 -0.006133 0.098409
vt 0.581264 0.848481
vt 0.584053 0.848481
vt 0.585256 0.850984
vt 0.580062 0.850984
vt 0.757996 0.234607
vt 0.763156 0.236120
vt 0.761130 0.239579
vt 0.756954 0.239172
vt 0.744326 0.236120
vt 0.749487 0.234607
vt 0.750528 0.239172
vt 0.746353 0.239579
vt 0.867420 0.821116
vt 0.872355 0.819800
vt 0.873629 0.824116
vt 0.869676 0.824487
vt 0.274819 0.889736
vt 0.281459 0.889999
vt 0.278868 0.893871
vt 0.275754 0.893776
vt 0.588132 0.856112
vt 0.586954 0.861003
vt 0.582659 0.863071
vt 0.578364 0.861003
vt 0.577186 0.856112
vt 0.758808 0.224837
vt 0.764144 0.230471
vt 0.282611 0.880332
vt 0.289398 0.880339
vt 0.287203 0.888065
vt 0.871045 0.810159
vt 0.881354 0.808743
vt 0.879045 0.818723
vt 0.748667 0.224837
vt 0.271853 0.879912
vt 0.866063 0.815615
vt 0.878087 0.823060
vt 0.743338 0.230471
vt 0.290900 0.865260
vt 0.283273 0.865024
vt 0.283763 0.843214
vt 0.292050 0.843787
vt 0.885604 0.804946
vt 0.881387 0.793859
vt 0.886369 0.793688
vt 0.919559 0.224140
vt 0.915357 0.225017
vt 0.912831 0.217775
vt 0.919000 0.216488
vt 0.271060 0.865024
vt 0.750145 0.208588
vt 0.757296 0.208588
vt 0.871747 0.793695
vt 0.264926 0.876155
vt 0.263421 0.864762
vt 0.757280 0.187985
vt 0.750111 0.187985
vt 0.750061 0.165376
vt 0.757272 0.165376
vt 0.262296 0.843787
vt 0.270582 0.843215
vt 0.880462 0.772319
vt 0.886128 0.772955
vt 0.909409 0.203389
vt 0.916427 0.201924
vt 0.870343 0.772313
vt 0.913500 0.184770
vt 0.905281 0.186486
vt 0.899278 0.169017
vt 0.912059 0.166350
vt 0.868791 0.748853
vt 0.879427 0.748170
vt 0.284294 0.818509
vt 0.293169 0.820124
vt 0.261190 0.820124
vt 0.270066 0.818510
vt 0.885690 0.749534
vt 0.890881 0.162059
vt 0.891592 0.154584
vt 0.898499 0.158886
vt 0.270382 0.797265
vt 0.283990 0.797265
vt 0.751037 0.150682
vt 0.756260 0.150682
vt 0.869339 0.733099
vt 0.878659 0.730951
vt 0.292810 0.803617
vt 0.261559 0.803617
vt 0.884324 0.733713
vt 0.908731 0.156751
vt 0.894108 0.146683
vt 0.900484 0.142814
vt 0.907875 0.143810
vt 0.913342 0.150045
vt 0.768291 0.392832
vt 0.771800 0.399984
vt 0.766802 0.400962
vt 0.764869 0.394299
vt 0.771800 0.412493
vt 0.768291 0.419645
vt 0.764869 0.418178
vt 0.766802 0.411515
vt 0.274199 0.788155
vt 0.280176 0.788155
vt 0.916981 0.156613
vn 0.735809 -0.562207 -0.377504
vn 0.071799 -0.889787 -0.450693
vn 0.515576 -0.370783 -0.772464
vn 0.121400 -0.565301 -0.815902
vn 0.442391 0.739285 -0.507689
vn 0.900695 0.162799 -0.402798
vn 0.341402 0.401803 -0.849705
vn 0.613414 0.059501 -0.787517
vn -0.754046 0.149189 -0.639654
vn -0.294083 0.733258 -0.613065
vn -0.368794 0.051499 -0.928084
vn -0.095798 0.398194 -0.912285
vn 0.071799 -0.889787 -0.450693
vn -0.591195 -0.573195 -0.567395
vn 0.121400 -0.565301 -0.815902
vn -0.272196 -0.377295 -0.885188
vn 0.900695 0.162799 -0.402798
vn 0.735809 -0.562207 -0.377504
vn 0.613414 0.059501 -0.787517
vn 0.515576 -0.370783 -0.772464
vn -0.294083 0.733258 -0.613065
vn 0.442391 0.739285 -0.507689
vn -0.095798 0.398194 -0.912285
vn 0.341402 0.401803 -0.849705
vn -0.272196 -0.377295 -0.885188
vn -0.368794 0.051499 -0.928084
vn 0.121400 -0.565301 -0.815902
vn -0.095798 0.398194 -0.912285
vn 0.341402 0.401803 -0.849705
vn 0.613414 0.059501 -0.787517
vn 0.515576 -0.370783 -0.772464
vn 0.452003 0.862807 -0.226402
vn 0.972164 0.208392 -0.107096
vn 0.442391 0.739285 -0.507689
vn 0.900695 0.162799 -0.402798
vn 0.785007 -0.614506 -0.078401
vn 0.031500 -0.986288 -0.161998
vn 0.735809 -0.562207 -0.377504
vn 0.071799 -0.889787 -0.450693
vn -0.721071 -0.626975 -0.294888
vn -0.905903 0.192901 -0.377001
vn -0.591195 -0.573195 -0.567395
vn -0.754046 0.149189 -0.639654
vn -0.383814 0.855930 -0.346512
vn 0.452003 0.862807 -0.226402
vn -0.294083 0.733258 -0.613065
vn 0.442391 0.739285 -0.507689
vn 0.972164 0.208392 -0.107096
vn 0.785007 -0.614506 -0.078401
vn 0.900695 0.162799 -0.402798
vn 0.735809 -0.562207 -0.377504
vn 0.031500 -0.986288 -0.161998
vn -0.721071 -0.626975 -0.294888
vn 0.071799 -0.889787 -0.450693
vn -0.591195 -0.573195 -0.567395
vn -0.591195 -0.573195 -0.567395
vn -0.754046 0.149189 -0.639654
vn -0.272196 -0.377295 -0.885188
vn -0.368794 0.051499 -0.928084
vn -0.905903 0.192901 -0.377001
vn -0.383814 0.855930 -0.346512
vn -0.754046 0.149189 -0.639654
vn -0.294083 0.733258 -0.613065
vn 0.780218 -0.618615 0.092602
vn 0.779822 -0.618518 0.096503
vn 0.007300 -0.999953 0.006400
vn 0.006800 -0.999924 0.010300
vn -0.383814 0.855930 -0.346512
vn -0.905903 0.192901 -0.377001
vn -0.418616 0.889533 -0.183007
vn -0.953972 0.209494 -0.214594
vn 0.031500 -0.986288 -0.161998
vn 0.007300 -0.999953 0.006400
vn -0.721071 -0.626975 -0.294888
vn -0.764419 -0.631415 -0.130303
vn 0.785007 -0.614506 -0.078401
vn 0.972164 0.208392 -0.107096
vn 0.780218 -0.618615 0.092602
vn 0.972179 0.225495 0.063399
vn 0.452003 0.862807 -0.226402
vn -0.383814 0.855930 -0.346512
vn 0.438609 0.896719 -0.059301
vn -0.418616 0.889533 -0.183007
vn -0.905903 0.192901 -0.377001
vn -0.721071 -0.626975 -0.294888
vn -0.953972 0.209494 -0.214594
vn -0.764419 -0.631415 -0.130303
vn 0.785007 -0.614506 -0.078401
vn 0.780218 -0.618615 0.092602
vn 0.031500 -0.986288 -0.161998
vn 0.007300 -0.999953 0.006400
vn 0.972164 0.208392 -0.107096
vn 0.452003 0.862807 -0.226402
vn 0.972179 0.225495 0.063399
vn 0.438609 0.896719 -0.059301
vn 0.438188 0.897175 -0.055398
vn -0.419212 0.890026 -0.179205
vn 0.440694 0.894288 -0.077699
vn -0.415395 0.887089 -0.201297
vn 0.972179 0.225495 0.063399
vn 0.438609 0.896719 -0.059301
vn 0.971844 0.225810 0.067303
vn 0.438188 0.897175 -0.055398
vn -0.418616 0.889533 -0.183007
vn -0.953972 0.209494 -0.214594
vn -0.419212 0.890026 -0.179205
vn -0.954754 0.209790 -0.210790
vn 0.007300 -0.999953 0.006400
vn 0.006800 -0.999924 0.010300
vn -0.764419 -0.631415 -0.130303
vn -0.765172 -0.631277 -0.126495
vn 0.780218 -0.618615 0.092602
vn 0.972179 0.225495 0.063399
vn 0.779822 -0.618518 0.096503
vn 0.971844 0.225810 0.067303
vn 0.438609 0.896719 -0.059301
vn -0.418616 0.889533 -0.183007
vn 0.438188 0.897175 -0.055398
vn -0.419212 0.890026 -0.179205
vn -0.953972 0.209494 -0.214594
vn -0.764419 -0.631415 -0.130303
vn -0.954754 0.209790 -0.210790
vn -0.765172 -0.631277 -0.126495
vn 0.010000 -0.999877 -0.012100
vn -0.045000 -0.929407 0.366303
vn -0.760720 -0.631817 -0.148704
vn -0.781169 -0.577877 0.236291
vn -0.954754 0.209790 -0.210790
vn -0.765172 -0.631277 -0.126495
vn -0.950017 0.207904 -0.232904
vn -0.760720 -0.631817 -0.148704
vn 0.779822 -0.618518 0.096503
vn 0.781850 -0.619060 0.073995
vn 0.006800 -0.999924 0.010300
vn 0.010000 -0.999877 -0.012100
vn 0.971844 0.225810 0.067303
vn 0.438188 0.897175 -0.055398
vn 0.973561 0.223991 0.044798
vn 0.440694 0.894288 -0.077699
vn -0.419212 0.890026 -0.179205
vn -0.954754 0.209790 -0.210790
vn -0.415395 0.887089 -0.201297
vn -0.950017 0.207904 -0.232904
vn 0.006800 -0.999924 0.010300
vn 0.010000 -0.999877 -0.012100
vn -0.765172 -0.631277 -0.126495
vn -0.760720 -0.631817 -0.148704
vn 0.779822 -0.618518 0.096503
vn 0.971844 0.225810 0.067303
vn 0.781850 -0.619060 0.073995
vn 0.973561 0.223991 0.044798
vn -0.045000 -0.929407 0.366303
vn 0.692269 -0.565675 0.448080
vn -0.126296 -0.404287 0.905871
vn 0.233391 -0.226792 0.945565
vn 0.781850 -0.619060 0.073995
vn 0.973561 0.223991 0.044798
vn 0.692269 -0.565675 0.448080
vn 0.875347 0.239385 0.420074
vn 0.440694 0.894288 -0.077699
vn -0.415395 0.887089 -0.201297
vn 0.366401 0.879601 0.303401
vn -0.451218 0.872835 0.185907
vn -0.950017 0.207904 -0.232904
vn -0.760720 -0.631817 -0.148704
vn -0.961978 0.224195 0.155996
vn -0.781169 -0.577877 0.236291
vn 0.781850 -0.619060 0.073995
vn 0.692269 -0.565675 0.448080
vn 0.010000 -0.999877 -0.012100
vn -0.045000 -0.929407 0.366303
vn 0.973561 0.223991 0.044798
vn 0.440694 0.894288 -0.077699
vn 0.875347 0.239385 0.420074
vn 0.366401 0.879601 0.303401
vn -0.415395 0.887089 -0.201297
vn -0.950017 0.207904 -0.232904
vn -0.451218 0.872835 0.185907
vn -0.961978 0.224195 0.155996
vn -0.485488 -0.232794 0.842679
vn -0.126296 -0.404287 0.905871
vn -0.573796 0.158599 0.803495
vn 0.233391 -0.226792 0.945565
vn 0.322709 0.166005 0.931827
vn 0.074403 0.478316 0.875030
vn -0.324608 0.475012 0.817920
vn 0.875347 0.239385 0.420074
vn 0.366401 0.879601 0.303401
vn 0.322709 0.166005 0.931827
vn 0.074403 0.478316 0.875030
vn -0.451218 0.872835 0.185907
vn -0.961978 0.224195 0.155996
vn -0.324608 0.475012 0.817920
vn -0.573796 0.158599 0.803495
vn -0.781169 -0.577877 0.236291
vn -0.045000 -0.929407 0.366303
vn -0.485488 -0.232794 0.842679
vn -0.126296 -0.404287 0.905871
vn 0.692269 -0.565675 0.448080
vn 0.875347 0.239385 0.420074
vn 0.233391 -0.226792 0.945565
vn 0.322709 0.166005 0.931827
vn 0.366401 0.879601 0.303401
vn -0.451218 0.872835 0.185907
vn 0.074403 0.478316 0.875030
vn -0.324608 0.475012 0.817920
vn -0.961978 0.224195 0.155996
vn -0.781169 -0.577877 0.236291
vn -0.573796 0.158599 0.803495
vn -0.485488 -0.232794 0.842679
f 8/1/1 13/2/2 6/4/3
f 6/4/3 13/2/2 7/3/4
f 10/5/5 9/6/6 4/8/7
f 4/8/7 9/6/6 5/7/8
f 12/9/9 11/10/10 2/12/11
f 2/12/11 11/10/10 3/11/12
f 13/13/13 14/14/14 7/16/15
f 7/16/15 14/14/14 1/15/16
f 9/17/17 8/18/18 5/20/19
f 5/20/19 8/18/18 6/19/20
f 11/10/21 10/5/22 3/11/23
f 3/11/23 10/5/22 4/8/24
f 1/21/25 2/22/26 7/3/27
f 3/23/28 4/24/29 2/22/26
f 5/25/30 6/4/31 4/24/29
f 2/22/26 4/24/29 7/3/27
f 4/24/29 6/4/31 7/3/27
f 19/26/32 20/27/33 10/5/34
f 10/5/34 20/27/33 9/6/35
f 21/28/36 15/29/37 8/18/38
f 8/18/38 15/29/37 13/30/39
f 16/31/40 17/32/41 14/14/42
f 14/14/42 17/32/41 12/33/43
f 18/34/44 19/26/45 11/10/46
f 11/10/46 19/26/45 10/5/47
f 20/35/48 21/28/49 9/17/50
f 9/17/50 21/28/49 8/18/51
f 15/36/52 16/31/53 13/13/54
f 13/13/54 16/31/53 14/14/55
f 14/14/56 12/33/57 1/15/58
f 1/15/58 12/33/57 2/37/59
f 17/38/60 18/34/61 12/9/62
f 12/9/62 18/34/61 11/10/63
f 28/40/64 35/41/65 23/39/66
f 23/39/66 35/41/65 30/42/67
f 18/43/68 17/32/69 25/45/70
f 25/45/70 17/32/69 24/44/71
f 15/47/72 23/48/73 16/46/74
f 16/46/74 23/48/73 22/49/75
f 21/28/76 20/35/77 28/40/78
f 28/40/78 20/35/77 27/50/79
f 19/26/80 18/34/81 26/52/82
f 26/52/82 18/34/81 25/51/83
f 17/32/84 16/31/85 24/44/86
f 24/44/86 16/31/85 22/53/87
f 21/28/88 28/40/89 15/29/90
f 15/29/90 28/40/89 23/39/91
f 20/35/92 19/54/93 27/50/94
f 27/50/94 19/54/93 26/55/95
f 33/56/96 32/57/97 40/59/98
f 40/59/98 32/57/97 39/58/99
f 27/50/100 26/55/101 34/61/102
f 34/61/102 26/55/101 33/60/103
f 25/45/104 24/44/105 32/63/106
f 32/63/106 24/44/105 31/62/107
f 23/48/108 30/64/109 22/49/110
f 22/49/110 30/64/109 29/65/111
f 28/40/112 27/50/113 35/41/114
f 35/41/114 27/50/113 34/61/115
f 26/52/116 25/51/117 33/56/118
f 33/56/118 25/51/117 32/57/119
f 24/44/120 22/53/121 31/62/122
f 31/62/122 22/53/121 29/66/123
f 37/68/124 44/69/125 36/67/126
f 36/67/126 44/69/125 43/70/127
f 31/62/128 29/66/129 38/72/130
f 38/72/130 29/66/129 36/71/131
f 35/41/132 42/73/133 30/42/134
f 30/42/134 42/73/133 37/74/135
f 34/61/136 33/60/137 41/76/138
f 41/76/138 33/60/137 40/75/139
f 32/63/140 31/62/141 39/77/142
f 39/77/142 31/62/141 38/72/143
f 30/64/144 37/68/145 29/65/146
f 29/65/146 37/68/145 36/67/147
f 35/41/148 34/61/149 42/73/150
f 42/73/150 34/61/149 41/76/151
f 44/69/152 49/78/153 51/80/154
f 51/80/154 49/78/153 56/79/155
f 42/73/156 41/76/157 49/82/158
f 49/82/158 41/76/157 48/81/159
f 40/59/160 39/58/161 47/84/162
f 47/84/162 39/58/161 46/83/163
f 38/72/164 36/71/165 45/86/166
f 45/86/166 36/71/165 43/85/167
f 42/73/168 49/82/169 37/74/170
f 37/74/170 49/82/169 44/87/171
f 41/76/172 40/75/173 48/81/174
f 48/81/174 40/75/173 47/88/175
f 39/77/176 38/72/177 46/89/178
f 46/89/178 38/72/177 45/86/179
f 50/90/180 51/80/181 52/94/182
f 56/79/183 55/91/184 51/80/181
f 54/92/185 53/93/186 55/91/184
f 51/80/181 55/91/184 52/94/182
f 55/91/184 53/93/186 52/94/182
f 48/95/187 47/96/188 55/98/189
f 55/98/189 47/96/188 54/97/190
f 46/99/191 45/100/192 53/102/193
f 53/102/193 45/100/192 52/101/194
f 43/70/195 44/69/196 50/90/197
f 50/90/197 44/69/196 51/80/198
f 49/82/199 48/81/200 56/104/201
f 56/104/201 48/81/200 55/103/202
f 47/96/203 46/99/204 54/97/205
f 54/97/205 46/99/204 53/102/206
f 45/105/207 43/70/208 52/94/209
f 52/94/209 43/70/208 50/90/210
