# This file uses centimeters as units for non-parametric coordinates.

v -0.005393 -0.112883 -0.150771
v -0.004974 -0.018287 -0.140690
v -0.000359 -0.017590 0.183075
v -0.006526 0.042851 -0.127736
v -0.000667 0.072488 0.173717
v 0.001766 0.155268 -0.068457
v -0.002116 0.112185 0.176243
v 0.000300 0.146891 0.071778
v 0.001293 -0.049144 0.277031
v -0.000175 -0.187278 0.320954
v 0.000354 -0.134278 0.342530
v -0.000015 -0.152332 0.331261
v -0.005749 -0.253980 0.138814
v -0.015209 -0.200602 -0.195936
v -0.011301 -0.250081 -0.163845
v 0.002397 -0.324635 0.107260
v -0.004738 -0.348683 0.041499
v -0.008187 -0.282372 -0.152685
v 0.070677 -0.207035 -0.180582
v 0.193988 -0.172417 -0.108160
v 0.143001 -0.231625 0.097923
v 0.101280 -0.169532 0.203641
v 0.080292 -0.090481 -0.147925
v 0.068813 -0.023673 -0.127110
v 0.188881 -0.073261 -0.097068
v 0.173009 -0.008119 -0.093042
v 0.099594 -0.069643 0.211937
v 0.169556 -0.066546 0.164809
v 0.051808 0.049244 -0.127260
v 0.162736 0.062741 -0.056670
v 0.069506 0.070066 0.175843
v 0.061858 0.146660 -0.101177
v 0.154081 0.056117 -0.002389
v 0.130729 0.051686 0.156429
v 0.130605 0.107012 0.109114
v 0.061860 0.110098 0.168918
v 0.063020 -0.249589 -0.153788
v 0.070794 0.149702 0.069304
v 0.137927 0.115257 0.043425
v 0.136060 0.139017 -0.041872
v 0.158559 -0.007950 0.132990
v 0.109547 -0.148794 0.204750
v 0.182606 0.005639 -0.029893
v 0.205885 -0.063627 -0.034292
v 0.060849 -0.250003 0.120540
v 0.095226 -0.212780 0.161008
v 0.073527 -0.193699 0.209500
v 0.108180 -0.103078 0.206229
v 0.186522 -0.283146 0.015656
v 0.078183 -0.322188 0.100634
v 0.085541 -0.336909 0.022936
v 0.075349 -0.277707 -0.148690
v 0.001152 -0.213431 0.276687
v 0.228407 -0.175069 -0.044965
v 0.064339 -0.021968 0.177664
v 0.062077 0.032234 0.171251
v 0.032713 0.034918 0.173131
v 0.034673 -0.022185 0.181989
v 0.089792 -0.049782 0.186657
v 0.038496 -0.049176 0.204812
v 0.130503 -0.005297 0.150154
v 0.132683 -0.032409 0.172845
v 0.122322 0.020123 0.153418
v 0.058971 -0.077846 0.323362
v 0.000354 -0.071191 0.365958
v 0.000352 -0.115672 0.377110
v 0.033466 -0.084710 0.359066
v 0.046962 -0.062198 0.267148
v 0.246323 -0.124900 0.063933
v 0.111409 -0.209910 0.139102
v -0.000883 -0.040807 0.217265
v 0.000354 -0.053137 0.334353
v 0.123914 -0.188077 0.163284
v 0.159725 -0.163914 0.171003
v 0.186673 -0.117188 0.172478
v 0.232754 -0.050755 0.077517
v 0.171685 -0.003643 0.087109
v 0.161673 0.042815 0.071180
v 0.052152 -0.137458 0.313065
v 0.047124 -0.174621 0.315214
v 0.034991 -0.213457 0.274062
v -0.140232 -0.256306 0.054367
v -0.119339 -0.211286 0.145657
v -0.097669 -0.170295 0.228327
v -0.051423 -0.174005 0.314901
v -0.077183 -0.017744 -0.137479
v -0.081837 -0.095718 -0.150073
v -0.065118 0.049244 -0.127260
v -0.063630 -0.021968 0.177664
v -0.067504 0.033124 0.169108
v -0.043851 0.035809 0.170988
v -0.033960 -0.019515 0.181704
v -0.061775 0.146660 -0.101177
v -0.075445 0.078183 0.170936
v -0.066092 0.110098 0.168918
v -0.063943 -0.251686 -0.152089
v -0.070194 0.149702 0.069304
v -0.129896 0.107012 0.109114
v -0.130020 0.051686 0.156429
v -0.157944 0.125203 0.014913
v -0.138702 0.136901 -0.044729
v -0.160889 0.067292 -0.067209
v -0.168512 0.059023 -0.002187
v -0.175481 -0.007902 -0.082772
v -0.185558 -0.006350 -0.008747
v -0.159827 0.047366 0.070704
v -0.080658 -0.044554 0.193995
v -0.035522 -0.049176 0.204812
v -0.120732 -0.030613 0.176029
v -0.113240 -0.010694 0.149132
v -0.139891 -0.004282 0.133425
v -0.168686 0.002754 0.088159
v -0.215655 -0.032360 0.101627
v -0.155014 -0.050122 0.190088
v -0.086227 -0.260812 0.129132
v -0.044375 -0.062198 0.267148
v -0.060080 -0.077846 0.323362
v -0.097464 -0.098944 0.230024
v -0.092684 -0.066072 0.228033
v -0.101454 -0.138970 0.232264
v -0.047790 -0.136602 0.317895
v -0.106145 0.012043 0.154015
v -0.186259 -0.227181 0.047588
v -0.177540 -0.201685 0.122705
v -0.174903 -0.309055 -0.003144
v -0.089018 -0.320161 0.094310
v -0.125848 -0.203417 0.174923
v -0.204886 -0.165145 -0.103231
v -0.086404 -0.195465 -0.178677
v -0.192673 -0.071833 -0.101572
v -0.113317 -0.341758 0.013746
v -0.070043 -0.279803 -0.146990
v -0.238353 -0.140206 -0.016307
v -0.228538 -0.041776 0.006883
v -0.032687 -0.213457 0.274062
v -0.060755 -0.193794 0.222768
v -0.246406 -0.120410 0.085851
v -0.170016 -0.111667 0.194511
v -0.032757 -0.084710 0.359066
v -0.154281 -0.174089 0.178648
v -0.067751 0.133324 0.129165
v -0.000128 0.134408 0.137111
v 0.067188 0.130884 0.135418
v -0.238246 0.106440 0.008971
v -0.181302 0.078365 0.040023
v -0.123147 0.150572 0.025171
v -0.162718 0.210587 0.018663
v -0.173839 0.078365 0.003482
v -0.238734 0.112966 -0.026608
v -0.117917 0.182358 -0.011558
v -0.190766 0.223739 -0.013956
v 0.246255 0.118690 -0.004066
v 0.186048 0.085303 -0.030903
v 0.116249 0.166311 -0.010193
v 0.184718 0.218571 -0.013536
v 0.240602 0.138905 0.024450
v 0.183245 0.085303 0.006065
v 0.113446 0.166311 0.026775
v 0.158655 0.209367 0.035516
v 0.174135 -0.255847 -0.104024
v 0.146015 -0.287309 -0.086787
v -0.005965 -0.307399 -0.097300
v -0.121233 -0.275052 -0.136698
v -0.150759 -0.253080 -0.113035
v 0.223978 -0.239731 0.047079
v 0.185805 -0.191030 0.104259
v -0.001418 -0.207539 0.210872
v -0.002291 -0.240849 0.165795
v 0.121189 0.116593 0.021480
v 0.230155 0.187099 0.025994
v 0.239802 0.176901 -0.015047
v 0.125468 0.113277 -0.016092
v -0.236380 0.187738 0.010129
v -0.133915 0.118623 0.031722
v -0.124816 0.122135 -0.005324
v -0.251588 0.166727 -0.022418
v 0.001473 0.036227 0.172534
v -0.033550 -0.115482 0.335711
v -0.023088 -0.106625 0.369982
v 0.000353 -0.092589 0.371323
v 0.021729 -0.108199 0.368774
v 0.033269 -0.115238 0.334035
v -0.088961 -0.223813 0.166715
vt 0.344334 0.575719
vt 0.337146 0.546310
vt 0.352078 0.544120
vt 0.363492 0.554972
vt 0.733153 0.877920
vt 0.728353 0.907323
vt 0.778062 0.904566
vt 0.787598 0.879425
vt 0.729413 0.929470
vt 0.768334 0.928520
vt 0.348059 0.640021
vt 0.347645 0.654679
vt 0.323607 0.657359
vt 0.329432 0.639340
vt 0.312717 0.711224
vt 0.336247 0.709959
vt 0.346692 0.666085
vt 0.343220 0.679043
vt 0.314094 0.679796
vt 0.313267 0.666991
vt 0.313626 0.698399
vt 0.342541 0.696916
vt 0.314944 0.687646
vt 0.342503 0.687105
vt 0.369918 0.671848
vt 0.370228 0.663359
vt 0.370247 0.681591
vt 0.366232 0.698394
vt 0.383361 0.687427
vt 0.380834 0.675984
vt 0.407965 0.663419
vt 0.399411 0.660434
vt 0.388061 0.665604
vt 0.350399 0.626761
vt 0.334436 0.629456
vt 0.369077 0.628373
vt 0.366631 0.637834
vt 0.382480 0.640903
vt 0.395993 0.652893
vt 0.397431 0.621922
vt 0.383707 0.617311
vt 0.344910 0.524609
vt 0.344654 0.518916
vt 0.384422 0.535417
vt 0.368275 0.536434
vt 0.338730 0.619900
vt 0.339572 0.608555
vt 0.363200 0.573286
vt 0.355303 0.613502
vt 0.360943 0.654539
vt 0.346549 0.509136
vt 0.409711 0.542414
vt 0.429623 0.584265
vt 0.734201 0.960818
vt 0.424537 0.629908
vt 0.760743 0.958411
vt 0.312670 0.503545
vt 0.346196 0.505585
vt 0.313663 0.506800
vt 0.800319 0.931692
vt 0.422403 0.537272
vt 0.344681 0.502134
vt 0.783822 0.947426
vt 0.313555 0.500290
vt 0.839960 0.857997
vt 0.794926 0.857638
vt 0.411558 0.626396
vt 0.332340 0.535983
vt 0.337576 0.532551
vt 0.313739 0.513620
vt 0.359860 0.540733
vt 0.316969 0.535158
vt 0.316459 0.529560
vt 0.401354 0.582395
vt 0.415495 0.586083
vt 0.382728 0.573231
vt 0.314530 0.642381
vt 0.314824 0.632542
vt 0.317664 0.608289
vt 0.317547 0.581327
vt 0.330273 0.602751
vt 0.317567 0.571075
vt 0.315452 0.625940
vt 0.316102 0.620056
vt 0.378421 0.555023
vt 0.400112 0.548711
vt 0.317174 0.560650
vt 0.315220 0.544366
vt 0.249090 0.527166
vt 0.262757 0.532322
vt 0.245426 0.552557
vt 0.234473 0.541210
vt 0.835150 0.876852
vt 0.732772 0.860152
vt 0.799001 0.839431
vt 0.281431 0.637393
vt 0.301642 0.641164
vt 0.303088 0.658543
vt 0.282437 0.654096
vt 0.288352 0.709537
vt 0.280661 0.666907
vt 0.283185 0.678895
vt 0.840647 0.839440
vt 0.838264 0.815797
vt 0.296965 0.545396
vt 0.277525 0.540409
vt 0.297183 0.530510
vt 0.301473 0.535366
vt 0.282160 0.695835
vt 0.284195 0.687656
vt 0.255369 0.675526
vt 0.257620 0.665385
vt 0.250694 0.690845
vt 0.248979 0.697267
vt 0.227055 0.664685
vt 0.233548 0.658714
vt 0.218859 0.643625
vt 0.225678 0.637642
vt 0.237473 0.655638
vt 0.277310 0.623664
vt 0.299554 0.629678
vt 0.260188 0.624267
vt 0.262846 0.633974
vt 0.251568 0.633187
vt 0.236085 0.634864
vt 0.231141 0.609671
vt 0.246340 0.612395
vt 0.277728 0.516086
vt 0.294689 0.620708
vt 0.273529 0.611108
vt 0.270622 0.588205
vt 0.292243 0.610251
vt 0.274171 0.567793
vt 0.291226 0.575277
vt 0.264366 0.651318
vt 0.230868 0.528639
vt 0.200069 0.567457
vt 0.232541 0.531529
vt 0.277116 0.511950
vt 0.269303 0.536577
vt 0.207680 0.607442
vt 0.273411 0.507508
vt 0.802117 0.826681
vt 0.275027 0.508746
vt 0.214239 0.604748
vt 0.314911 0.521244
vt 0.209397 0.572893
vt 0.221206 0.581376
vt 0.249845 0.577553
vt 0.304387 0.602555
vt 0.258153 0.555035
vt 0.199168 0.705182
vt 0.226278 0.679326
vt 0.115596 0.722742
vt 0.221756 0.746946
vt 0.203398 0.708338
vt 0.229838 0.682707
vt 0.254134 0.736488
vt 0.225724 0.749583
vt 0.431275 0.703988
vt 0.408737 0.668842
vt 0.363179 0.709024
vt 0.387849 0.726544
vt 0.432484 0.700819
vt 0.096924 0.515153
vt 0.363431 0.706090
vt 0.076450 0.573519
vt 0.389175 0.551730
vt 0.729685 0.824600
vt 0.728198 0.832040
vt 0.732815 0.850182
vt 0.828564 0.898738
vt 0.681772 0.886023
vt 0.684514 0.909287
vt 0.692931 0.929190
vt 0.706105 0.958614
vt 0.680624 0.845528
vt 0.681883 0.862681
vt 0.654718 0.934474
vt 0.668450 0.958236
vt 0.627967 0.827350
vt 0.625949 0.864641
vt 0.628732 0.890728
vt 0.681600 0.828971
vt 0.629212 0.812506
vt 0.634979 0.908004
vt 0.385263 0.686765
vt 0.417663 0.727669
vt 0.416368 0.730990
vt 0.385453 0.688896
vt 0.203898 0.734152
vt 0.258419 0.707566
vt 0.262516 0.711900
vt 0.208223 0.737446
vt 0.313747 0.657634
vt 0.299852 0.582416
vt 0.306433 0.585507
vt 0.317608 0.590093
vt 0.328706 0.584385
vt 0.334004 0.583331
vt 0.279180 0.520742
vt 0.123198 0.696766
vt 0.250818 0.733543
vt 0.068677 0.723351
vt 0.086534 0.736145
vt 0.063947 0.694381
vt 0.091056 0.668525
vt 0.105382 0.577261
vt 0.388731 0.723926
vt 0.072982 0.536358
vt 0.051150 0.555682
vt 0.120203 0.550411
vt 0.409205 0.665560
vn 0.550631 -0.382996 0.741700
vn 0.741770 -0.492041 0.455711
vn 0.733898 -0.185694 0.653385
vn 0.703175 -0.283171 0.652196
vn 0.007913 0.280876 -0.959711
vn 0.039356 0.164863 -0.985531
vn 0.234392 0.232492 -0.943932
vn 0.267932 0.180669 -0.946346
vn -0.000478 0.309332 -0.950954
vn 0.241511 0.208625 -0.947707
vn 0.223567 0.368581 0.902311
vn 0.182621 -0.008726 0.983145
vn 0.151454 0.450417 0.879879
vn 0.019610 0.049568 0.998578
vn 0.000800 0.951324 -0.308192
vn 0.204496 0.675673 -0.708270
vn 0.123835 0.010531 0.992247
vn 0.261598 0.525947 0.809288
vn -0.022692 -0.003542 0.999736
vn 0.000278 0.476102 0.879390
vn 0.003135 0.985041 0.172294
vn 0.241305 0.960537 0.138348
vn 0.000571 0.913943 0.405841
vn 0.208078 0.905588 0.369613
vn 0.680784 0.637433 0.360848
vn 0.584511 0.132607 0.800477
vn 0.827094 0.550515 0.113351
vn 0.757600 0.649008 -0.069506
vn 0.833563 0.367749 -0.412229
vn 0.947663 0.311111 0.071734
vn 0.721568 0.275906 -0.634993
vn 0.900001 0.433991 -0.040624
vn 0.944617 0.288464 0.156482
vn 0.134169 0.647398 0.750250
vn 0.264666 0.793246 0.548373
vn 0.404067 0.344875 0.847226
vn 0.300815 0.565224 0.768136
vn 0.855660 0.466683 0.223725
vn 0.728404 0.291573 0.620010
vn 0.868866 0.440827 0.225263
vn 0.638971 0.359795 0.679900
vn 0.473132 -0.751606 0.459602
vn 0.301994 -0.622916 0.721648
vn 0.465892 -0.738440 0.487494
vn 0.422736 -0.548202 0.721643
vn 0.743932 0.489421 0.455009
vn 0.697598 0.101563 0.709255
vn 0.458456 0.850311 0.258435
vn 0.424046 0.569958 0.703799
vn 0.371233 -0.031237 0.928014
vn 0.334748 -0.701274 0.629412
vn 0.679187 -0.728198 0.091833
vn 0.267472 -0.140415 -0.953280
vn 0.660021 0.006758 -0.751216
vn 0.692668 0.208938 -0.690330
vn -0.065498 -0.156308 -0.985534
vn 0.273363 -0.958903 -0.076011
vn 0.012839 -0.994213 0.106653
vn 0.018898 -0.618463 0.785586
vn 0.213265 -0.320227 -0.923024
vn 0.640436 -0.438635 -0.630429
vn 0.254303 -0.620164 -0.742110
vn 0.379042 -0.862680 -0.334830
vn 0.011798 -0.937444 -0.347937
vn -0.020685 -0.512723 -0.858305
vn -0.001425 -0.463179 -0.886264
vn 0.931304 0.256902 -0.258213
vn 0.349740 -0.902511 0.251308
vn 0.409021 -0.849807 0.332460
vn 0.035805 -0.696470 0.716692
vn 0.527437 -0.643077 0.555214
vn 0.000047 -0.975446 0.220237
vn 0.000800 -0.994253 0.107053
vn 0.979477 -0.063745 0.191210
vn 0.717115 -0.078622 0.692507
vn -0.030433 0.100986 0.994422
vn -0.058669 0.495106 0.866849
vn 0.011051 0.931272 0.364156
vn -0.000003 0.595344 0.803471
vn 0.020034 0.262549 0.964711
vn 0.625084 0.275729 0.730235
vn 0.595355 -0.339967 0.727994
vn 0.647497 -0.451816 0.613686
vn 0.087766 0.988374 0.124153
vn -0.043471 0.942414 0.331611
vn 0.498193 -0.516273 0.696610
vn 0.607078 -0.520898 0.600102
vn 0.943069 -0.121724 -0.309523
vn 0.764901 -0.513376 0.389065
vn 0.002201 -0.674567 0.738210
vn 0.017310 -0.327560 0.944672
vn -0.539227 -0.755608 0.371874
vn -0.618267 -0.634338 0.464071
vn -0.613574 -0.560332 0.556376
vn -0.747896 -0.561302 0.354388
vn -0.204983 0.178251 -0.962397
vn -0.272952 0.217375 -0.937148
vn -0.244979 0.231477 -0.941490
vn -0.093947 0.364171 0.926582
vn -0.070856 0.063248 0.995479
vn -0.226043 0.414237 0.881653
vn -0.214804 -0.017190 0.976506
vn -0.192117 0.684215 -0.703521
vn -0.267108 0.130709 0.954761
vn -0.278361 0.528062 0.802288
vn -0.246976 -0.269819 -0.930699
vn -0.324259 -0.048400 -0.944729
vn -0.592130 -0.352900 0.724461
vn -0.653553 -0.566662 0.501759
vn -0.323900 -0.924123 0.202698
vn -0.301761 -0.878579 0.370187
vn -0.202704 0.970240 0.132459
vn -0.206103 0.915430 0.345701
vn -0.613101 0.056694 0.787967
vn -0.662677 0.587639 0.464261
vn -0.823352 0.552066 0.131585
vn -0.691210 0.684254 -0.232432
vn -0.810813 0.316210 -0.492538
vn -0.971767 0.234648 -0.024672
vn -0.709801 0.396416 -0.582268
vn -0.900170 0.435534 0.001934
vn -0.934666 0.219693 0.279525
vn -0.057655 0.751778 0.656891
vn -0.188011 0.810615 0.554576
vn -0.124187 0.782168 0.610566
vn -0.368609 0.449474 0.813696
vn -0.568580 0.467859 0.676627
vn -0.731313 0.636828 0.244197
vn -0.469033 0.510288 0.720843
vn -0.738322 0.553404 0.385520
vn -0.285854 0.695396 0.659327
vn -0.692243 0.194310 0.695014
vn -0.420294 0.877237 0.231965
vn -0.787776 0.362805 0.497777
vn -0.730724 -0.072918 0.678768
vn -0.690323 -0.135487 0.710702
vn -0.421503 -0.089744 0.902376
vn -0.699341 -0.329723 -0.634196
vn -0.712891 -0.068226 -0.697948
vn -0.779281 -0.608253 0.150832
vn -0.415594 -0.556635 0.719332
vn -0.454216 -0.682782 0.572273
vn -0.696908 0.223168 -0.681554
vn -0.241764 -0.966683 -0.084108
vn -0.153139 -0.614701 -0.773751
vn -0.401538 -0.610980 -0.682254
vn -0.856085 0.502018 -0.122871
vn 0.066625 -0.853756 0.516393
vn -0.298376 -0.809873 0.505053
vn -0.967986 -0.190989 -0.162866
vn -0.953718 -0.148944 0.261224
vn -0.697710 -0.054066 0.714337
vn -0.613686 0.310706 0.725845
vn -0.581671 -0.311160 0.751557
vn -0.639342 -0.443270 0.628295
vn -0.637884 -0.517245 0.570580
vn -0.492832 -0.763871 0.416674
vn -0.570763 0.408445 0.712322
vn 0.375636 -0.220771 0.900088
vn 0.209328 0.611703 0.762890
vn 0.833975 0.089589 0.544481
vn 0.007255 -0.796773 0.604236
vn -0.779302 -0.390668 0.489967
vn 0.185358 -0.954352 -0.234211
vn -0.373425 -0.525453 -0.764495
vn 0.629044 -0.305489 -0.714829
vn 0.861703 0.467574 -0.197084
vn -0.127578 0.800797 -0.585191
vn -0.769404 0.218982 -0.600054
vn 0.702178 0.312675 -0.639673
vn -0.520164 -0.396876 -0.756253
vn 0.061264 0.806065 -0.588647
vn -0.871720 0.333753 -0.358765
vn 0.151271 -0.662137 -0.733956
vn 0.835451 -0.546349 -0.059377
vn -0.013627 -0.823690 0.566877
vn 0.756897 -0.150692 0.635924
vn -0.573285 -0.433575 0.695238
vn -0.872329 0.231754 0.430502
vn -0.311990 0.674123 0.669493
vn 0.451585 0.338784 0.825407
vn 0.016233 -0.800410 0.599233
vn 0.030676 -0.376347 0.925971
f 80/2/1 22/3/2 79/1/3
f 79/1/3 22/3/2 42/4/4
f 1/5/5 2/6/6 23/8/7
f 23/8/7 2/6/6 24/7/8
f 4/9/9 29/10/10 2/6/6
f 2/6/6 29/10/10 24/7/8
f 55/11/11 56/12/12 58/14/13
f 58/14/13 56/12/12 57/13/14
f 6/54/15 32/56/16 4/9/9
f 4/9/9 32/56/16 29/10/10
f 31/17/17 36/18/18 5/20/19
f 5/20/19 36/18/18 7/19/20
f 8/21/21 38/22/22 6/15/15
f 6/15/15 38/22/22 32/16/16
f 142/23/23 143/24/24 8/21/21
f 8/21/21 143/24/24 38/22/22
f 35/25/25 36/18/18 34/26/26
f 34/26/26 36/18/18 31/17/17
f 143/24/24 35/25/25 38/22/22
f 38/22/22 35/25/25 39/27/27
f 32/16/16 38/22/22 40/28/28
f 40/28/28 38/22/22 39/27/27
f 29/10/10 32/56/16 30/60/29
f 30/60/29 32/56/16 40/63/28
f 30/29/29 40/28/28 33/30/30
f 33/30/30 40/28/28 39/27/27
f 26/31/31 30/29/29 43/32/32
f 43/32/32 30/29/29 33/30/30
f 34/26/26 78/33/33 35/25/25
f 59/34/34 55/11/11 60/35/35
f 60/35/35 55/11/11 58/14/13
f 61/37/36 55/11/11 62/36/37
f 62/36/37 55/11/11 59/34/34
f 77/39/38 78/33/33 41/38/39
f 41/38/39 78/33/33 34/26/26
f 76/40/40 77/39/38 28/41/41
f 28/41/41 77/39/38 41/38/39
f 46/42/42 45/43/43 70/45/44
f 70/45/44 45/43/43 21/44/45
f 64/47/46 48/48/47 68/46/48
f 68/46/48 48/48/47 27/49/49
f 42/4/4 48/48/47 79/1/3
f 79/1/3 48/48/47 64/47/46
f 61/37/36 63/50/50 55/11/11
f 55/11/11 63/50/50 56/12/12
f 45/43/43 50/51/51 21/44/45
f 21/44/45 50/51/51 49/52/52
f 19/66/53 23/8/7 20/65/54
f 20/65/54 23/8/7 25/93/55
f 14/94/56 1/5/5 19/66/53
f 19/66/53 1/5/5 23/8/7
f 51/58/57 50/51/51 17/57/58
f 17/57/58 50/51/51 16/59/59
f 51/58/57 49/52/52 50/51/51
f 37/95/60 160/103/61 52/143/62
f 52/143/62 160/103/61 161/104/63
f 161/104/63 162/169/64 52/143/62
f 52/143/62 162/169/64 18/170/65
f 15/171/66 37/95/60 18/170/65
f 18/170/65 37/95/60 52/143/62
f 14/94/56 19/66/53 15/171/66
f 15/171/66 19/66/53 37/95/60
f 43/32/32 44/67/67 26/31/31
f 26/31/31 44/67/67 25/55/55
f 80/2/1 81/68/68 22/3/2
f 22/3/2 81/68/68 47/69/69
f 50/51/51 45/43/43 16/59/59
f 16/59/59 45/43/43 13/70/70
f 47/69/69 46/42/42 22/3/2
f 22/3/2 46/42/42 73/71/71
f 53/72/72 167/73/73 81/68/68
f 81/68/68 167/73/73 47/69/69
f 69/74/74 76/40/40 75/76/75
f 75/76/75 76/40/40 28/41/41
f 5/20/19 57/13/14 31/17/17
f 31/17/17 57/13/14 56/12/12
f 5/20/19 177/195/76 57/13/14
f 3/77/77 71/78/78 58/14/13
f 58/14/13 71/78/78 60/35/35
f 68/46/48 27/49/49 60/35/35
f 60/35/35 27/49/49 59/34/34
f 28/41/41 41/38/39 62/36/37
f 62/36/37 41/38/39 61/37/36
f 28/41/41 62/36/37 27/49/49
f 27/49/49 62/36/37 59/34/34
f 34/26/26 63/50/50 41/38/39
f 41/38/39 63/50/50 61/37/36
f 31/17/17 56/12/12 34/26/26
f 34/26/26 56/12/12 63/50/50
f 65/79/79 180/198/80 67/81/81
f 67/81/81 180/198/80 181/199/82
f 181/199/82 182/200/83 67/81/81
f 67/81/81 182/200/83 64/47/46
f 30/60/29 26/172/31 29/10/10
f 29/10/10 26/172/31 24/7/8
f 26/172/31 25/93/55 24/7/8
f 24/7/8 25/93/55 23/8/7
f 68/46/48 9/83/84 64/47/46
f 64/47/46 9/83/84 72/84/85
f 75/76/75 28/41/41 48/48/47
f 48/48/47 28/41/41 27/49/49
f 42/4/4 74/85/86 48/48/47
f 48/48/47 74/85/86 75/76/75
f 74/85/86 42/4/4 73/71/71
f 73/71/71 42/4/4 22/3/2
f 60/35/35 71/78/78 68/46/48
f 68/46/48 71/78/78 9/83/84
f 64/47/46 72/84/85 67/81/81
f 67/81/81 72/84/85 65/79/79
f 73/71/71 46/42/42 70/45/44
f 69/74/74 75/76/75 166/168/87
f 166/168/87 75/76/75 74/85/86
f 76/40/40 69/74/74 44/67/67
f 44/67/67 69/74/74 54/75/88
f 44/67/67 43/32/32 76/40/40
f 76/40/40 43/32/32 77/39/38
f 78/33/33 77/39/38 33/30/30
f 33/30/30 77/39/38 43/32/32
f 35/25/25 78/33/33 39/27/27
f 39/27/27 78/33/33 33/30/30
f 37/95/60 19/66/53 160/103/61
f 160/103/61 19/66/53 20/65/54
f 44/67/67 54/75/88 25/55/55
f 25/55/55 54/75/88 20/53/54
f 54/75/88 165/86/89 49/52/52
f 79/1/3 64/47/46 182/200/83
f 10/88/90 80/2/1 12/87/91
f 12/87/91 80/2/1 79/1/3
f 53/72/72 81/68/68 10/88/90
f 10/88/90 81/68/68 80/2/1
f 83/90/92 124/91/93 82/89/94
f 82/89/94 124/91/93 123/92/95
f 1/5/5 87/173/96 2/6/6
f 2/6/6 87/173/96 86/174/97
f 86/174/97 88/175/98 2/6/6
f 2/6/6 88/175/98 4/9/9
f 92/97/99 91/98/100 89/96/101
f 89/96/101 91/98/100 90/99/102
f 88/175/98 93/176/103 4/9/9
f 4/9/9 93/176/103 6/54/15
f 94/101/104 5/20/19 95/102/105
f 95/102/105 5/20/19 7/19/20
f 15/171/66 96/177/106 14/94/56
f 14/94/56 96/177/106 129/178/107
f 85/105/108 84/106/109 135/108/110
f 135/108/110 84/106/109 136/107/111
f 8/21/21 6/15/15 97/109/112
f 97/109/112 6/15/15 93/100/103
f 97/109/112 141/110/113 8/21/21
f 8/21/21 141/110/113 142/23/23
f 99/112/114 94/101/104 98/111/115
f 98/111/115 94/101/104 95/102/105
f 100/113/116 98/111/115 97/109/112
f 97/109/112 98/111/115 141/110/113
f 100/113/116 97/109/112 101/114/117
f 101/114/117 97/109/112 93/100/103
f 101/180/117 93/176/103 102/179/118
f 102/179/118 93/176/103 88/175/98
f 102/115/118 103/116/119 101/114/117
f 101/114/117 103/116/119 100/113/116
f 104/117/120 105/118/121 102/115/118
f 102/115/118 105/118/121 103/116/119
f 99/112/114 98/111/115 106/119/122
f 107/120/123 108/121/124 89/96/101
f 89/96/101 108/121/124 92/97/99
f 107/120/123 89/96/101 109/122/125
f 109/122/125 89/96/101 110/123/126
f 99/112/114 106/119/122 111/124/127
f 111/124/127 106/119/122 112/125/128
f 114/127/129 111/124/127 113/126/130
f 113/126/130 111/124/127 112/125/128
f 119/130/131 118/131/132 116/129/133
f 116/129/133 118/131/132 117/132/134
f 120/133/135 121/134/136 118/131/132
f 118/131/132 121/134/136 117/132/134
f 110/123/126 89/96/101 122/135/137
f 122/135/137 89/96/101 90/99/102
f 96/177/106 164/181/138 129/178/107
f 129/178/107 164/181/138 128/182/139
f 121/134/136 120/133/135 85/105/108
f 85/105/108 120/133/135 84/106/109
f 125/138/140 82/89/94 123/92/95
f 115/128/141 82/89/94 126/139/142
f 126/139/142 82/89/94 125/138/140
f 130/183/143 87/173/96 128/182/139
f 128/182/139 87/173/96 129/178/107
f 14/94/56 129/178/107 1/5/5
f 1/5/5 129/178/107 87/173/96
f 16/59/59 126/139/142 17/57/58
f 17/57/58 126/139/142 131/142/144
f 131/142/144 126/139/142 125/138/140
f 132/184/145 163/185/146 96/177/106
f 96/177/106 163/185/146 164/181/138
f 163/185/146 132/184/145 162/169/64
f 162/169/64 132/184/145 18/170/65
f 15/171/66 18/170/65 96/177/106
f 96/177/106 18/170/65 132/184/145
f 130/141/143 134/145/147 104/117/120
f 104/117/120 134/145/147 105/118/121
f 167/73/73 136/107/111 168/146/148
f 168/146/148 136/107/111 183/201/149
f 13/70/70 115/128/141 16/59/59
f 16/59/59 115/128/141 126/139/142
f 133/147/150 137/148/151 134/145/147
f 134/145/147 137/148/151 113/126/130
f 137/148/151 138/149/152 113/126/130
f 113/126/130 138/149/152 114/127/129
f 90/99/102 91/98/100 94/101/104
f 94/101/104 91/98/100 5/20/19
f 5/20/19 91/98/100 177/195/76
f 92/97/99 108/121/124 3/77/77
f 3/77/77 108/121/124 71/78/78
f 107/120/123 119/130/131 108/121/124
f 108/121/124 119/130/131 116/129/133
f 114/127/129 109/122/125 111/124/127
f 111/124/127 109/122/125 110/123/126
f 107/120/123 109/122/125 119/130/131
f 119/130/131 109/122/125 114/127/129
f 110/123/126 122/135/137 111/124/127
f 111/124/127 122/135/137 99/112/114
f 122/135/137 90/99/102 99/112/114
f 99/112/114 90/99/102 94/101/104
f 65/79/79 139/150/153 180/198/80
f 180/198/80 139/150/153 179/197/154
f 179/197/154 139/150/153 178/196/155
f 178/196/155 139/150/153 117/132/134
f 102/179/118 88/175/98 104/186/120
f 104/186/120 88/175/98 86/174/97
f 87/173/96 130/183/143 86/174/97
f 86/174/97 130/183/143 104/186/120
f 117/132/134 72/84/85 116/129/133
f 116/129/133 72/84/85 9/83/84
f 119/130/131 114/127/129 118/131/132
f 118/131/132 114/127/129 138/149/152
f 118/131/132 138/149/152 120/133/135
f 120/133/135 138/149/152 140/151/156
f 127/140/157 84/106/109 140/151/156
f 140/151/156 84/106/109 120/133/135
f 108/121/124 116/129/133 71/78/78
f 71/78/78 116/129/133 9/83/84
f 117/132/134 139/150/153 72/84/85
f 72/84/85 139/150/153 65/79/79
f 183/201/149 136/107/111 127/140/157
f 127/140/157 136/107/111 84/106/109
f 124/91/93 83/90/92 140/151/156
f 140/151/156 83/90/92 127/140/157
f 137/148/151 124/91/93 138/149/152
f 138/149/152 124/91/93 140/151/156
f 113/126/130 112/125/128 134/145/147
f 134/145/147 112/125/128 105/118/121
f 103/116/119 105/118/121 106/119/122
f 106/119/122 105/118/121 112/125/128
f 98/111/115 100/113/116 106/119/122
f 106/119/122 100/113/116 103/116/119
f 134/145/147 130/141/143 133/147/150
f 133/147/150 130/141/143 128/137/139
f 123/92/95 124/91/93 137/148/151
f 133/147/150 123/92/95 137/148/151
f 125/138/140 133/147/150 164/136/138
f 164/136/138 133/147/150 128/137/139
f 121/134/136 178/196/155 117/132/134
f 10/88/90 12/87/91 85/105/108
f 85/105/108 12/87/91 121/134/136
f 53/72/72 10/88/90 135/108/110
f 135/108/110 10/88/90 85/105/108
f 141/110/113 98/111/115 95/102/105
f 141/110/113 95/102/105 142/23/23
f 142/23/23 95/102/105 7/19/20
f 143/24/24 142/23/23 36/18/18
f 36/18/18 142/23/23 7/19/20
f 35/25/25 143/24/24 36/18/18
f 173/204/158 174/202/159 147/205/160
f 147/205/160 174/202/159 146/154/161
f 145/153/162 144/152/163 148/157/164
f 148/157/164 144/152/163 149/156/165
f 174/192/159 175/193/166 146/203/161
f 146/203/161 175/193/166 150/158/167
f 146/203/161 150/158/167 147/155/160
f 147/155/160 150/158/167 151/159/168
f 176/194/169 173/191/158 151/159/168
f 151/159/168 173/191/158 147/155/160
f 150/158/167 175/193/166 151/159/168
f 151/159/168 175/193/166 176/194/169
f 171/189/170 172/190/171 155/163/172
f 155/163/172 172/190/171 154/162/173
f 153/161/174 152/160/175 157/213/176
f 157/213/176 152/160/175 156/164/177
f 172/190/171 169/187/178 154/162/173
f 154/162/173 169/187/178 158/166/179
f 155/163/172 154/162/173 159/209/180
f 159/209/180 154/162/173 158/166/179
f 171/189/170 155/163/172 170/188/181
f 170/188/181 155/163/172 159/209/180
f 158/211/179 169/210/178 159/167/180
f 159/167/180 169/210/178 170/208/181
f 49/52/52 160/61/61 54/75/88
f 54/75/88 160/61/61 20/53/54
f 160/61/61 49/52/52 161/62/63
f 161/62/63 49/52/52 51/58/57
f 17/57/58 162/64/64 51/58/57
f 51/58/57 162/64/64 161/62/63
f 17/57/58 131/142/144 162/64/64
f 162/64/64 131/142/144 163/144/146
f 164/136/138 163/144/146 125/138/140
f 125/138/140 163/144/146 131/142/144
f 166/168/87 74/85/86 70/45/44
f 70/45/44 74/85/86 73/71/71
f 165/86/89 166/168/87 21/44/45
f 21/44/45 166/168/87 70/45/44
f 69/74/74 165/86/89 54/75/88
f 166/168/87 165/86/89 69/74/74
f 125/138/140 123/92/95 133/147/150
f 49/52/52 165/86/89 21/44/45
f 167/73/73 168/146/148 47/69/69
f 47/69/69 168/146/148 46/42/42
f 46/42/42 168/146/148 45/43/43
f 45/43/43 168/146/148 13/70/70
f 136/107/111 167/73/73 135/108/110
f 135/108/110 167/73/73 53/72/72
f 169/210/178 157/165/176 170/208/181
f 170/208/181 157/165/176 156/212/177
f 152/160/175 171/189/170 156/164/177
f 156/164/177 171/189/170 170/188/181
f 152/160/175 153/161/174 171/189/170
f 171/189/170 153/161/174 172/190/171
f 169/187/178 172/190/171 157/213/176
f 157/213/176 172/190/171 153/161/174
f 145/207/162 174/202/159 144/206/163
f 144/206/163 174/202/159 173/204/158
f 175/193/166 174/192/159 148/157/164
f 148/157/164 174/192/159 145/153/162
f 176/194/169 175/193/166 149/156/165
f 149/156/165 175/193/166 148/157/164
f 173/191/158 176/194/169 144/152/163
f 144/152/163 176/194/169 149/156/165
f 91/98/100 92/97/99 177/195/76
f 177/195/76 92/97/99 3/77/77
f 177/195/76 3/77/77 57/13/14
f 57/13/14 3/77/77 58/14/13
f 121/134/136 12/87/91 178/196/155
f 178/196/155 12/87/91 11/82/182
f 66/80/183 179/197/154 11/82/182
f 11/82/182 179/197/154 178/196/155
f 180/198/80 179/197/154 66/80/183
f 181/199/82 180/198/80 66/80/183
f 182/200/83 181/199/82 11/82/182
f 11/82/182 181/199/82 66/80/183
f 79/1/3 182/200/83 12/87/91
f 12/87/91 182/200/83 11/82/182
f 183/201/149 83/90/92 115/128/141
f 115/128/141 83/90/92 82/89/94
f 168/146/148 183/201/149 13/70/70
f 13/70/70 183/201/149 115/128/141
f 183/201/149 127/140/157 83/90/92
