# This file uses centimeters as units for non-parametric coordinates.

v -0.099958 0.050520 0.108252
v -0.046025 0.058384 0.129670
v 0.008993 0.050520 0.108253
v -0.121425 0.073880 -0.002710
v -0.046780 0.080345 -0.002711
v 0.023667 0.067261 -0.001190
v -0.108158 0.067370 -0.102082
v -0.038033 0.068574 -0.098687
v 0.002289 0.058676 -0.085645
v -0.132678 -0.005267 -0.117147
v -0.047980 0.008688 -0.163055
v 0.049449 -0.007252 -0.110024
v -0.111063 -0.074233 -0.119489
v -0.041889 -0.093775 -0.124305
v 0.031186 -0.078966 -0.114700
v -0.122858 -0.100566 -0.002711
v -0.046026 -0.106907 -0.002711
v 0.036100 -0.100566 -0.002711
v -0.101555 -0.076282 0.105010
v -0.046025 -0.074068 0.126429
v 0.010479 -0.076282 0.105011
v -0.115647 -0.023808 0.112745
v -0.046025 -0.023808 0.134164
v 0.023596 -0.023808 0.112746
v 0.054649 -0.010646 -0.002711
v -0.142914 -0.010646 -0.002711
v -0.115676 0.066129 -0.065711
v -0.046546 0.078033 -0.065553
v 0.008031 0.054368 -0.061882
v 0.047504 -0.006865 -0.076761
v 0.041013 -0.095329 -0.076236
v -0.047200 -0.110343 -0.078071
v -0.125664 -0.100359 -0.073606
v -0.145527 -0.008787 -0.071905
v -0.121853 -0.004357 -0.139772
v -0.035572 -0.088553 -0.161089
v 0.011095 -0.005376 -0.138610
v -0.062646 0.058345 -0.130313
v -0.104819 0.049560 -0.130591
v -0.098642 -0.067617 -0.155756
v -0.004572 0.036304 -0.131351
v 0.009114 -0.099532 -0.150429
v -0.108369 0.049410 0.078519
v -0.050191 0.064958 0.088395
v 0.014865 0.048122 0.079139
v 0.034798 -0.016782 0.078420
v 0.018632 -0.067852 0.073975
v -0.046832 -0.071862 0.081394
v -0.110812 -0.068457 0.071919
v -0.129214 -0.016095 0.069409
vt 0.198490 0.124642
vt 0.222319 0.120455
vt 0.220823 0.151238
vt 0.190633 0.150821
vt 0.251117 0.124012
vt 0.254132 0.152008
vt 0.194388 0.174567
vt 0.220424 0.167385
vt 0.220576 0.180189
vt 0.197869 0.184326
vt 0.247636 0.173272
vt 0.244971 0.181553
vt 0.623661 0.336747
vt 0.197083 0.198057
vt 0.200237 0.196485
vt 0.633692 0.353321
vt 0.223313 0.194531
vt 0.669748 0.355620
vt 0.667087 0.340025
vt 0.690597 0.346296
vt 0.711061 0.335363
vt 0.706609 0.336821
vt 0.695636 0.351345
vt 0.663834 0.320559
vt 0.623620 0.320516
vt 0.712479 0.320146
vt 0.620445 0.290261
vt 0.664834 0.290158
vt 0.662846 0.257256
vt 0.626752 0.261145
vt 0.711387 0.290580
vt 0.699246 0.260740
vt 0.632110 0.247068
vt 0.663433 0.238624
vt 0.661265 0.239371
vt 0.623337 0.247616
vt 0.695340 0.247471
vt 0.698975 0.248095
vt 0.704434 0.262073
vt 0.714367 0.293988
vt 0.226033 0.206307
vt 0.242800 0.196718
vt 0.190100 0.107747
vt 0.710089 0.322614
vt 0.615910 0.265181
vt 0.604937 0.294245
vt 0.604326 0.316111
vt 0.610990 0.336519
vt 0.619978 0.346754
vt 0.658744 0.355530
vt 0.224443 0.096712
vt 0.224492 0.106002
vt 0.201629 0.111303
vt 0.256950 0.114787
vt 0.248572 0.113658
vt 0.261282 0.126047
vt 0.269075 0.153091
vt 0.265797 0.177749
vt 0.266489 0.188747
vt 0.187189 0.129871
vt 0.182655 0.151763
vt 0.183524 0.177534
vt 0.183019 0.189651
vt 0.250671 0.198084
vn -0.007761 0.993890 0.110106
vn 0.053050 0.997100 0.054574
vn -0.727550 0.638942 0.249846
vn -0.647956 0.756770 0.086333
vn 0.662454 0.725059 0.188266
vn 0.633898 0.772603 -0.035469
vn -0.689667 0.716096 -0.107545
vn 0.128627 0.988386 -0.080927
vn -0.411892 0.855514 -0.313754
vn 0.191173 0.916114 -0.352402
vn 0.633119 0.764758 -0.119608
vn 0.592367 0.784375 -0.184006
vn -0.734064 0.048840 -0.677322
vn -0.523209 0.518938 -0.675985
vn 0.026437 0.275858 -0.960835
vn 0.048859 0.778635 -0.625572
vn 0.441303 0.612539 -0.655780
vn -0.692841 -0.586399 -0.419652
vn -0.492081 -0.513888 -0.702691
vn -0.128753 -0.980342 -0.149504
vn 0.008297 -0.482067 -0.876095
vn 0.854034 0.281966 -0.437174
vn 0.732438 -0.583417 -0.350941
vn 0.532563 0.130270 -0.836305
vn 0.437569 -0.725179 -0.531648
vn 0.014378 -0.972197 -0.233722
vn -0.670083 -0.723095 -0.167695
vn 0.809346 -0.552368 -0.199623
vn -0.649321 -0.729699 0.214294
vn -0.020337 -0.969763 0.243201
vn -0.687064 -0.685195 0.241767
vn 0.001380 -0.999471 0.032506
vn 0.552032 -0.813626 0.182411
vn 0.688969 -0.679018 0.253488
vn -0.001228 -0.792345 0.610073
vn -0.001507 -0.050033 0.998747
vn -0.437598 -0.742803 0.506706
vn -0.827953 -0.044451 0.559033
vn 0.447199 -0.741880 0.499627
vn 0.782330 -0.108968 0.613258
vn -0.534562 0.592914 0.602243
vn -0.008167 0.685183 0.728325
vn 0.635477 0.557098 0.534613
vn 0.967877 0.030756 0.249535
vn 0.992120 0.103260 0.070966
vn 0.970077 0.230445 -0.076460
vn -0.970472 -0.030678 0.239256
vn -0.994073 0.021032 0.106657
vn -0.984332 0.013783 -0.175785
vn -0.933975 0.155669 -0.321650
f 44/2/1 5/3/2 43/1/3
f 43/1/3 5/3/2 4/4/4
f 44/2/1 45/5/5 5/3/2
f 5/3/2 45/5/5 6/6/6
f 27/7/7 28/8/8 7/10/9
f 7/10/9 28/8/8 8/9/10
f 29/11/11 9/12/12 28/8/8
f 28/8/8 9/12/12 8/9/10
f 35/14/13 39/15/14 11/41/15
f 11/41/15 39/15/14 38/17/16
f 9/12/12 41/42/17 8/9/10
f 8/9/10 41/42/17 38/17/16
f 13/13/18 40/16/19 14/19/20
f 14/19/20 40/16/19 36/18/21
f 12/21/22 15/22/23 37/20/24
f 37/20/24 15/22/23 42/23/25
f 14/19/20 32/24/26 13/13/18
f 13/13/18 32/24/26 33/25/27
f 14/19/20 15/22/23 32/24/26
f 32/24/26 15/22/23 31/26/28
f 16/27/29 17/28/30 49/30/31
f 49/30/31 17/28/30 48/29/32
f 18/31/33 47/32/34 17/28/30
f 17/28/30 47/32/34 48/29/32
f 20/34/35 23/35/36 19/33/37
f 19/33/37 23/35/36 22/36/38
f 20/34/35 21/37/39 23/35/36
f 23/35/36 21/37/39 24/38/40
f 22/43/38 23/51/36 1/53/41
f 1/53/41 23/51/36 2/52/42
f 24/54/40 3/55/43 23/51/36
f 23/51/36 3/55/43 2/52/42
f 46/39/44 47/32/34 25/40/45
f 25/40/45 47/32/34 18/31/33
f 46/56/44 25/57/45 45/5/5
f 45/5/5 25/57/45 6/6/6
f 31/26/28 15/22/23 30/44/46
f 30/44/46 15/22/23 12/21/22
f 29/11/11 30/58/46 9/12/12
f 9/12/12 30/58/46 12/59/22
f 50/45/47 26/46/48 49/30/31
f 49/30/31 26/46/48 16/27/29
f 50/60/47 43/1/3 26/61/48
f 26/61/48 43/1/3 4/4/4
f 33/25/27 34/47/49 13/13/18
f 13/13/18 34/47/49 10/48/50
f 34/62/49 27/7/7 10/63/50
f 10/63/50 27/7/7 7/10/9
f 4/4/4 5/3/2 27/7/7
f 27/7/7 5/3/2 28/8/8
f 6/6/6 29/11/11 5/3/2
f 5/3/2 29/11/11 28/8/8
f 6/6/6 25/57/45 29/11/11
f 29/11/11 25/57/45 30/58/46
f 18/31/33 31/26/28 25/40/45
f 25/40/45 31/26/28 30/44/46
f 31/26/28 18/31/33 32/24/26
f 32/24/26 18/31/33 17/28/30
f 32/24/26 17/28/30 33/25/27
f 33/25/27 17/28/30 16/27/29
f 16/27/29 26/46/48 33/25/27
f 33/25/27 26/46/48 34/47/49
f 4/4/4 27/7/7 26/61/48
f 26/61/48 27/7/7 34/62/49
f 35/49/13 11/50/15 40/16/19
f 40/16/19 11/50/15 36/18/21
f 11/50/15 37/20/24 36/18/21
f 36/18/21 37/20/24 42/23/25
f 38/17/16 41/42/17 11/41/15
f 11/41/15 41/42/17 37/64/24
f 7/10/9 39/15/14 10/63/50
f 10/63/50 39/15/14 35/14/13
f 8/9/10 38/17/16 7/10/9
f 7/10/9 38/17/16 39/15/14
f 10/48/50 35/49/13 13/13/18
f 13/13/18 35/49/13 40/16/19
f 9/12/12 12/59/22 41/42/17
f 41/42/17 12/59/22 37/64/24
f 15/22/23 14/19/20 42/23/25
f 42/23/25 14/19/20 36/18/21
f 2/52/42 44/2/1 1/53/41
f 1/53/41 44/2/1 43/1/3
f 2/52/42 3/55/43 44/2/1
f 44/2/1 3/55/43 45/5/5
f 24/54/40 46/56/44 3/55/43
f 3/55/43 46/56/44 45/5/5
f 21/37/39 47/32/34 24/38/40
f 24/38/40 47/32/34 46/39/44
f 47/32/34 21/37/39 48/29/32
f 48/29/32 21/37/39 20/34/35
f 49/30/31 48/29/32 19/33/37
f 19/33/37 48/29/32 20/34/35
f 19/33/37 22/36/38 49/30/31
f 49/30/31 22/36/38 50/45/47
f 1/53/41 43/1/3 22/43/38
f 22/43/38 43/1/3 50/60/47
