# This file uses centimeters as units for non-parametric coordinates.

v -2.470980 1.260343 7.395466
v 8.639619 1.260343 7.395466
v -2.470980 1.114360 7.395499
v 8.639619 1.114360 7.395499
v 8.639619 1.218663 -0.872243
v 8.639619 1.114360 -0.872210
v -5.922985 2.970093 7.395466
v -5.922985 2.824110 7.395499
v -9.396448 2.970093 7.395466
v -9.396448 2.824110 7.395499
v -9.396448 2.970093 2.025816
v -9.396448 2.824110 2.025850
v -9.075158 2.928413 2.022796
v -9.075158 2.824110 2.022829
v -9.109342 2.908310 -1.756471
v -9.109342 2.804008 -1.756438
v -9.219962 2.804008 -1.813112
v -9.219962 2.908310 -1.813146
v -9.227614 2.908310 -5.501011
v -9.227614 2.804008 -5.500978
v -7.469265 2.908310 -8.358418
v -7.469299 2.804008 -8.358418
v -3.781557 2.804008 -8.359150
v -3.781525 2.908310 -8.359150
v 6.566159 2.908310 -8.359150
v 6.566127 2.804008 -8.359150
v 8.179296 2.925951 -4.928902
v 8.179264 2.804008 -4.928902
v 8.257546 2.804008 -2.105520
v 8.257578 2.925951 -2.105520
v 6.328456 2.925951 -2.105520
v 6.328424 2.804008 -2.105520
v 0.782735 1.253442 -2.078192
v 0.782704 1.106059 -2.078192
v -2.616393 1.253442 -1.901374
v -2.616394 1.106059 -1.901374
v -2.668678 1.239297 1.147186
v -2.668680 1.106059 1.147186
v 1.730899 1.228002 1.119070
v 1.730901 1.106059 1.119070
v 1.923134 1.228002 -0.836248
v 1.923103 1.106059 -0.836248
v 2.059513 1.228002 -0.861935
v 2.059481 1.106059 -0.861935
v 3.426040 1.210361 1.027538
v 3.426041 1.106059 1.027538
v 3.409130 1.106059 2.540326
v 3.409130 1.259152 2.540326
v -6.032195 1.259152 2.540326
v -6.032194 1.106059 2.540326
v -6.005144 1.230652 -4.629659
v -6.005176 1.106059 -4.629659
v 0.804412 1.106059 -4.655199
v 0.804444 1.230652 -4.655199
v 1.006844 1.325797 -4.583613
v 1.006812 1.162490 -4.583613
v 4.618052 2.461124 -4.544075
v 4.618020 2.297817 -4.544075
v 4.573265 2.819937 -4.595499
v 4.573297 2.785806 -4.595499
v 4.460830 2.804008 -5.795571
v 4.460799 2.943158 -5.795571
v -5.586607 2.943158 -5.790900
v -5.586577 2.804008 -5.790900
v -5.770992 2.943158 -4.640850
v -5.770962 2.804008 -4.640850
v -5.922454 2.943117 -4.514438
v -5.922424 2.803967 -4.514438
v -5.922454 2.943117 -1.760233
v -5.922424 2.803967 -1.760233
v 4.582754 2.800826 -5.578350
v 4.582766 2.928043 -5.583357
v 4.243389 2.943158 -5.925027
v 4.240760 2.804008 -5.925027
v -2.188888 1.106059 -2.078192
v -2.188902 1.253442 -2.078192
v -2.796241 1.253442 -1.513983
v -2.796264 1.106059 -1.513824
v -2.319601 1.239297 1.319830
v -2.319377 1.106059 1.319830
v -2.823026 1.239297 0.780734
v -2.823080 1.106059 0.782777
v 1.923118 1.228002 0.816257
v 1.923118 1.106059 0.816439
v 1.414503 1.228002 1.319830
v 1.406352 1.106059 1.319830
v 3.545618 1.210362 0.780861
v 3.545619 1.106059 0.780861
v 3.794909 1.210362 0.630325
v 3.794909 1.106059 0.630325
v 4.773092 1.210362 0.630325
v 4.773093 1.106059 0.630325
v 5.074529 1.210362 0.785415
v 5.074530 1.106059 0.785415
v 5.214709 1.262105 1.097125
v 5.214710 1.106059 1.097125
v 5.214712 1.262105 4.058707
v 5.214707 1.106059 4.058707
v 4.981872 1.248124 4.435849
v 4.981873 1.106059 4.435849
v 4.601254 1.248124 4.668908
v 4.601254 1.106059 4.668908
v 2.360488 1.248124 4.668908
v 2.360488 1.106059 4.668908
v -2.458976 1.257760 4.668908
v -2.458976 1.104271 4.668908
v -5.834829 2.940218 4.583804
v -5.834828 2.786729 4.583804
v -5.932108 2.940218 1.965519
v -5.932107 2.786729 1.965519
v -5.947071 2.940218 4.312607
v -5.946953 2.786729 4.294327
v -5.393599 2.518845 4.668908
v -5.430087 2.689922 4.668908
v -5.779822 2.943158 -5.542470
v -5.779773 2.804008 -5.540422
v -5.250032 2.943158 -5.925027
v -5.239392 2.804008 -5.925027
v -0.204614 1.106059 2.540326
v -0.240433 1.259152 2.540326
vt 0.330000 0.500000
vt 0.663333 0.500000
vt 0.330000 0.750000
vt 0.663333 0.750000
vt 0.000000 0.000000
vt 1.000000 0.000000
vt 1.000000 1.000000
vt 0.000000 1.000000
vt 0.000000 0.000000
vt 1.000000 0.000000
vt 1.000000 1.000000
vt 0.000000 1.000000
vt 0.000000 0.000000
vt 1.000000 0.000000
vt 1.000000 1.000000
vt 0.000000 1.000000
vt 0.000000 0.000000
vt 1.000000 0.000000
vt 1.000000 1.000000
vt 0.000000 1.000000
vt 0.000000 0.000000
vt 1.000000 0.000000
vt 1.000000 1.000000
vt 0.000000 1.000000
vt 0.000000 0.000000
vt 1.000000 0.000000
vt 1.000000 1.000000
vt 0.000000 1.000000
vt 0.000000 0.000000
vt 1.000000 0.000000
vt 1.000000 1.000000
vt 0.000000 1.000000
vt 0.000000 0.000000
vt 1.000000 0.000000
vt 1.000000 1.000000
vt 0.000000 1.000000
vt 0.000000 0.000000
vt 1.000000 0.000000
vt 1.000000 1.000000
vt 0.000000 1.000000
vt 0.000000 0.000000
vt 1.000000 0.000000
vt 1.000000 1.000000
vt 0.000000 1.000000
vt 0.000000 0.000000
vt 1.000000 0.000000
vt 1.000000 1.000000
vt 0.000000 1.000000
vt 0.000000 0.000000
vt 1.000000 0.000000
vt 1.000000 1.000000
vt 0.000000 1.000000
vt 0.000000 0.000000
vt 1.000000 0.000000
vt 1.000000 1.000000
vt 0.000000 1.000000
vt 0.000000 0.000000
vt 1.000000 0.000000
vt 1.000000 1.000000
vt 0.000000 1.000000
vt 0.000000 0.000000
vt 1.000000 0.000000
vt 1.000000 1.000000
vt 0.000000 1.000000
vt 0.000000 0.000000
vt 1.000000 0.000000
vt 1.000000 1.000000
vt 0.000000 1.000000
vt 0.000000 0.000000
vt 1.000000 0.000000
vt 1.000000 1.000000
vt 0.000000 1.000000
vt 0.000000 0.000000
vt 1.000000 0.000000
vt 1.000000 1.000000
vt 0.000000 1.000000
vt 0.000000 0.000000
vt 1.000000 0.000000
vt 1.000000 1.000000
vt 0.000000 1.000000
vt 0.000000 0.000000
vt 1.000000 0.000000
vt 1.000000 1.000000
vt 0.000000 1.000000
vt 0.000000 0.000000
vt 1.000000 0.000000
vt 1.000000 1.000000
vt 0.000000 1.000000
vt 0.000000 0.000000
vt 1.000000 0.000000
vt 1.000000 1.000000
vt 0.000000 1.000000
vt 0.000000 0.000000
vt 1.000000 0.000000
vt 1.000000 1.000000
vt 0.000000 1.000000
vt 0.000000 0.000000
vt 1.000000 0.000000
vt 1.000000 1.000000
vt 0.000000 1.000000
vt 0.000000 0.000000
vt 1.000000 0.000000
vt 1.000000 1.000000
vt 0.000000 1.000000
vt 0.000000 0.000000
vt 1.000000 0.000000
vt 1.000000 1.000000
vt 0.000000 1.000000
vt 0.000000 0.000000
vt 1.000000 0.000000
vt 1.000000 1.000000
vt 0.000000 1.000000
vt 0.000000 0.828963
vt 0.999998 0.825196
vt 0.000000 0.025627
vt 1.000000 0.025884
vt 0.000000 0.865184
vt 1.000000 0.865234
vt 0.000000 0.142937
vt 1.000000 0.150927
vt 0.000000 0.099393
vt 1.000000 0.100726
vt 0.000000 0.858430
vt 1.000000 0.859040
vt 0.000000 0.158301
vt 1.000000 0.161546
vt 0.000000 0.911676
vt 1.000000 0.909966
vt 0.000000 0.000000
vt 1.000000 0.000000
vt 1.000000 1.000000
vt 0.000000 1.000000
vt 0.000000 0.000000
vt 1.000000 0.000000
vt 1.000000 1.000000
vt 0.000000 1.000000
vt 0.000000 0.000000
vt 1.000000 0.000000
vt 1.000000 1.000000
vt 0.000000 1.000000
vt 0.000000 0.000000
vt 1.000000 0.000000
vt 1.000000 1.000000
vt 0.000000 1.000000
vt 0.000000 0.000000
vt 1.000000 0.000000
vt 1.000000 1.000000
vt 0.000000 1.000000
vt 0.000000 0.000000
vt 1.000000 0.000000
vt 1.000000 1.000000
vt 0.000000 1.000000
vt 0.000000 0.000000
vt 1.000000 0.000000
vt 1.000000 1.000000
vt 0.000000 1.000000
vt 0.000000 0.000000
vt 1.000000 0.000000
vt 1.000000 1.000000
vt 0.000000 1.000000
vt 0.000000 0.000000
vt 1.000000 0.000000
vt 1.000000 1.000000
vt 0.000000 1.000000
vt 0.000000 0.000000
vt 1.000000 0.000000
vt 1.000000 1.000000
vt 0.000000 1.000000
vt 0.000000 0.000000
vt 1.000000 0.000000
vt 1.000000 1.000000
vt 0.000000 1.000000
vt 0.000000 0.000000
vt 1.000000 0.000000
vt 1.000000 1.000000
vt 0.000000 1.000000
vt 1.000000 0.131798
vt 0.000000 0.138560
vt 1.000000 0.851232
vt 0.000000 0.840754
vt 0.000000 0.245764
vt 1.000000 0.247358
vt 0.000000 0.955778
vt 1.000000 0.954755
vt 0.000000 0.386859
vt 1.000000 0.382758
vn 0.000000 -0.000229 -1.000000
vn 0.000000 -0.000229 -1.000000
vn 0.000000 -0.000229 -1.000000
vn 0.000000 -0.000229 -1.000000
vn -1.000000 0.000000 0.000000
vn -1.000000 0.000000 0.000000
vn -1.000000 0.000004 0.000000
vn -1.000000 0.000004 0.000000
vn -0.000113 -0.000229 -1.000000
vn -0.000114 -0.000229 -1.000000
vn -0.000113 -0.000229 -1.000000
vn -0.000114 -0.000229 -1.000000
vn 0.000000 -0.000229 -1.000000
vn 0.000000 -0.000229 -1.000000
vn 0.000000 -0.000229 -1.000000
vn 0.000000 -0.000229 -1.000000
vn 1.000000 0.000000 0.000000
vn 1.000000 -0.000000 0.000000
vn 1.000000 -0.000002 0.000000
vn 1.000000 -0.000002 0.000000
vn 0.009431 0.000229 0.999956
vn 0.009427 0.000242 0.999956
vn 0.009411 0.000290 0.999956
vn 0.009401 0.000320 0.999956
vn 0.455977 -0.000285 -0.889992
vn 0.455976 -0.000286 -0.889992
vn 0.455975 -0.000286 -0.889993
vn 0.455973 -0.000287 -0.889993
vn 0.999998 0.000000 -0.002075
vn 0.999998 0.000000 -0.002075
vn 0.999998 0.000005 -0.002075
vn 0.999998 0.000005 -0.002075
vn 0.000199 -0.000000 1.000000
vn 0.000199 -0.000000 1.000000
vn 0.000198 -0.000000 1.000000
vn 0.000198 -0.000000 1.000000
vn 0.000000 0.000000 1.000000
vn 0.000000 0.000000 1.000000
vn 0.000000 0.000000 1.000000
vn 0.000000 0.000000 1.000000
vn -0.999616 0.000266 0.027715
vn -0.999616 0.000266 0.027715
vn -0.999616 0.000266 0.027716
vn -0.999616 0.000266 0.027716
vn 0.000000 0.000000 -1.000000
vn 0.000000 0.000000 -1.000000
vn 0.000000 0.000000 -1.000000
vn 0.000000 0.000000 -1.000000
vn 0.003751 -0.000001 0.999993
vn 0.003751 -0.000001 0.999993
vn 0.003751 -0.000001 0.999993
vn 0.003751 -0.000001 0.999993
vn -0.333469 0.000084 0.942761
vn -0.333470 0.000069 0.942761
vn -0.333470 0.000076 0.942761
vn -0.333471 0.000064 0.942761
vn -0.010948 0.000002 0.999940
vn -0.010950 0.000002 0.999940
vn -0.010948 0.000002 0.999940
vn -0.010950 0.000002 0.999940
vn -1.000000 -0.000219 0.000000
vn -1.000000 -0.000219 0.000000
vn -1.000000 -0.000219 0.000000
vn -1.000000 -0.000219 0.000000
vn 0.999954 0.000279 0.009649
vn 0.999953 0.000783 0.009639
vn 0.999953 0.000282 0.009649
vn 0.999953 0.000938 0.009636
vn 0.871740 -0.019361 -0.489586
vn 0.868424 -0.005465 -0.495793
vn 0.870207 -0.012825 -0.492520
vn 0.867014 0.000189 -0.498284
vn -0.004928 0.000001 -0.999988
vn -0.004928 0.000001 -0.999988
vn -0.004928 0.000001 -0.999988
vn -0.004928 0.000001 -0.999988
vn 0.000000 0.000000 -1.000000
vn 0.000000 0.000000 -1.000000
vn 0.000000 0.000000 -1.000000
vn 0.000000 0.000000 -1.000000
vn -0.382215 0.000003 -0.924073
vn -0.382206 -0.000030 -0.924077
vn -0.382213 -0.000005 -0.924074
vn -0.382204 -0.000038 -0.924078
vn -0.907066 0.000004 -0.420989
vn -0.907030 -0.000241 -0.421066
vn -0.907056 -0.000062 -0.421010
vn -0.907020 -0.000307 -0.421087
vn -0.921570 0.006327 0.388162
vn -0.921408 0.005038 0.388564
vn -0.920933 0.001324 0.389720
vn -0.920762 0.000014 0.390126
vn -0.999932 0.000227 -0.011675
vn -0.999932 0.000224 -0.011675
vn -0.999932 0.000150 -0.011671
vn -0.999932 0.000147 -0.011671
vn 0.185101 -0.000048 0.982720
vn 0.185101 -0.000048 0.982720
vn 0.185101 -0.000048 0.982720
vn 0.185101 -0.000048 0.982720
vn 1.000000 0.000000 0.000010
vn 1.000000 -0.000012 0.000009
vn 1.000000 -0.000246 -0.000009
vn 1.000000 -0.000258 -0.000010
vn -0.443088 0.000010 0.896478
vn -0.443270 -0.000587 0.896388
vn -0.443136 -0.000148 0.896454
vn -0.443318 -0.000746 0.896364
vn 0.525744 -0.035142 0.849916
vn 0.533788 -0.007145 0.845588
vn 0.527708 -0.028452 0.848949
vn 0.535768 0.000007 0.844366
vn 0.844123 0.000008 0.536149
vn 0.844237 0.000638 0.535970
vn 0.844153 0.000174 0.536102
vn 0.844267 0.000804 0.535923
vn -0.000000 0.000000 1.000000
vn -0.000000 0.000000 1.000000
vn -0.000000 0.000000 1.000000
vn 0.000000 0.000000 1.000000
vn -0.899847 -0.000004 -0.436206
vn -0.899847 -0.000004 -0.436206
vn -0.899847 -0.000004 -0.436206
vn -0.899847 -0.000003 -0.436207
vn -0.516922 0.000004 -0.856033
vn -0.516922 0.000003 -0.856032
vn -0.516923 0.000001 -0.856032
vn -0.516923 0.000000 -0.856032
vn -0.000000 0.000000 -1.000000
vn -0.000000 0.000000 -1.000000
vn 0.000000 0.000002 -1.000000
vn 0.000000 0.000002 -1.000000
vn 0.457501 0.000000 -0.889209
vn 0.457501 0.000001 -0.889209
vn 0.457501 0.000004 -0.889209
vn 0.457501 0.000004 -0.889209
vn 0.912019 0.000013 -0.410148
vn 0.912019 0.000011 -0.410148
vn 0.912019 0.000007 -0.410148
vn 0.912019 0.000006 -0.410147
vn 1.000000 0.000000 0.000001
vn 1.000000 -0.000001 0.000001
vn 0.997652 -0.000024 0.068481
vn 0.997663 -0.000026 0.068333
vn 0.850904 -0.000000 0.525322
vn 0.850905 0.000008 0.525320
vn 0.522198 0.000000 0.852824
vn 0.522198 0.000000 0.852825
vn 0.522197 0.000000 0.852825
vn 0.522197 0.000000 0.852825
vn 0.000000 0.000000 1.000000
vn 0.000000 0.000000 1.000000
vn 0.000000 0.000000 1.000000
vn 0.000000 0.000000 1.000000
vn -0.999980 -0.000014 -0.006375
vn -0.999980 -0.000006 -0.006375
vn -0.999980 -0.000014 -0.006375
vn -0.999980 -0.000005 -0.006375
vn 0.000000 0.000000 1.000000
vn -0.000000 0.000000 1.000000
vn -0.000000 0.000000 1.000000
vn -0.000000 0.000000 1.000000
vn 0.000000 0.000000 1.000000
vn -0.000000 0.000000 1.000000
vn -0.000000 0.000000 1.000000
vn -0.000000 0.000000 1.000000
vn -0.931603 -0.043684 0.360842
vn -0.926665 -0.013960 0.375629
vn -0.929734 -0.031674 0.366868
vn -0.923990 -0.000016 0.382417
vn -0.216094 -0.046090 0.975284
vn -0.214793 -0.040166 0.975833
vn -0.207387 -0.007083 0.978233
vn -0.205771 0.000000 0.978600
vn -0.640761 -0.000139 -0.767740
vn -0.640761 -0.000139 -0.767740
vn -0.640761 -0.000139 -0.767740
vn -0.640762 -0.000139 -0.767740
vn -0.999952 -0.000205 0.009793
vn -0.999952 -0.000207 0.009793
vn -0.999952 -0.000219 0.009795
vn -0.999952 -0.000221 0.009795
vn 0.507005 -0.009576 -0.861890
vn 0.508463 -0.006526 -0.861059
vn 0.510137 -0.003008 -0.860088
vn 0.511615 0.000112 -0.859215
vn -0.360233 -0.027542 -0.932456
vn -0.367847 -0.006628 -0.929863
vn -0.362438 -0.021538 -0.931759
vn -0.370192 -0.000080 -0.928955
vn -0.791795 -0.009273 -0.610717
vn -0.791166 -0.006887 -0.611563
vn -0.790020 -0.002591 -0.613076
vn -0.789366 -0.000169 -0.613923
vn 0.000000 0.000000 -1.000000
vn 0.000000 0.000000 -1.000000
vn 0.000000 0.000000 -1.000000
vn 0.000000 0.000000 -1.000000
vn -0.999938 -0.000012 -0.011178
vn -0.999938 -0.000000 -0.011177
vn -0.999938 -0.000011 -0.011178
vn -0.999938 0.000000 -0.011177
vn 0.000000 -0.000002 -1.000000
vn 0.000000 -0.000002 -1.000000
vn 0.000000 -0.000002 -1.000000
vn 0.000000 -0.000002 -1.000000
vn 0.000000 -0.000002 -1.000000
vn 0.000000 -0.000002 -1.000000
vn 0.000000 -0.000002 -1.000000
vn 0.000000 -0.000002 -1.000000
f 1/1/1 2/2/2 3/3/3
f 3/3/3 2/2/2 4/4/4
f 4/5/5 2/6/6 6/8/7
f 6/8/7 2/6/6 5/7/8
f 3/10/9 8/11/10 1/9/11
f 1/9/11 8/11/10 7/12/12
f 7/13/13 8/14/14 9/16/15
f 9/16/15 8/14/14 10/15/16
f 9/17/17 10/18/18 11/20/19
f 11/20/19 10/18/18 12/19/20
f 11/21/21 12/22/22 13/24/23
f 13/24/23 12/22/22 14/23/24
f 15/25/25 16/26/26 18/28/27
f 18/28/27 16/26/26 17/27/28
f 18/29/29 17/30/30 19/32/31
f 19/32/31 17/30/30 20/31/32
f 21/33/33 22/34/34 24/36/35
f 24/36/35 22/34/34 23/35/36
f 24/37/37 23/38/38 25/40/39
f 25/40/39 23/38/38 26/39/40
f 27/41/41 28/42/42 30/44/43
f 30/44/43 28/42/42 29/43/44
f 30/45/45 29/46/46 31/48/47
f 31/48/47 29/46/46 32/47/48
f 51/81/49 52/82/50 54/84/51
f 54/84/51 52/82/50 53/83/52
f 53/86/53 56/87/54 54/85/55
f 54/85/55 56/87/54 55/88/56
f 56/90/57 58/91/58 55/89/59
f 55/89/59 58/91/58 57/92/60
f 67/109/61 68/110/62 69/112/63
f 69/112/63 68/110/62 70/111/64
f 72/113/65 59/93/66 71/114/67
f 71/114/67 59/93/66 60/94/68
f 71/114/69 61/95/70 72/113/71
f 72/113/71 61/95/70 62/96/72
f 31/49/73 32/50/74 33/52/75
f 33/52/75 32/50/74 34/51/76
f 75/118/77 76/117/78 34/54/79
f 34/54/79 76/117/78 33/53/80
f 35/56/81 76/117/82 36/55/83
f 36/55/83 76/117/82 75/118/84
f 36/58/85 78/120/86 35/57/87
f 35/57/87 78/120/86 77/119/88
f 81/123/89 82/124/90 37/60/91
f 37/60/91 82/124/90 38/59/92
f 82/124/93 81/123/94 78/120/95
f 78/120/95 81/123/94 77/119/96
f 43/72/97 41/69/98 44/71/99
f 44/71/99 41/69/98 42/70/100
f 83/125/101 84/126/102 41/68/103
f 41/68/103 84/126/102 42/67/104
f 38/62/105 80/122/106 37/61/107
f 37/61/107 80/122/106 79/121/108
f 86/128/109 40/63/110 85/127/111
f 85/127/111 40/63/110 39/64/112
f 40/66/113 84/126/114 39/65/115
f 39/65/115 84/126/114 83/125/116
f 85/127/117 79/121/118 86/128/119
f 86/128/119 79/121/118 80/122/120
f 46/129/121 45/130/122 88/132/123
f 88/132/123 45/130/122 87/131/124
f 88/133/125 87/134/126 90/136/127
f 90/136/127 87/134/126 89/135/128
f 90/137/129 89/138/130 92/140/131
f 92/140/131 89/138/130 91/139/132
f 92/141/133 91/142/134 94/144/135
f 94/144/135 91/142/134 93/143/136
f 94/145/137 93/146/138 96/148/139
f 96/148/139 93/146/138 95/147/140
f 96/149/141 95/150/142 98/152/143
f 98/152/143 95/150/142 97/151/144
f 97/154/144 99/155/145 98/153/143
f 98/153/143 99/155/145 100/156/146
f 100/157/147 99/158/148 102/160/149
f 102/160/149 99/158/148 101/159/150
f 102/161/151 101/162/152 104/164/153
f 104/164/153 101/162/152 103/163/154
f 111/177/155 109/175/156 112/178/157
f 112/178/157 109/175/156 110/176/158
f 106/168/159 104/165/160 105/167/161
f 105/167/161 104/165/160 103/166/162
f 114/179/163 113/180/164 105/170/165
f 105/170/165 113/180/164 106/169/166
f 112/178/167 108/173/168 111/177/169
f 111/177/169 108/173/168 107/174/170
f 113/180/171 114/179/172 108/172/173
f 108/172/173 114/179/172 107/171/174
f 67/108/175 65/105/176 68/107/177
f 68/107/177 65/105/176 66/106/178
f 115/181/179 116/182/180 65/104/181
f 65/104/181 116/182/180 66/103/182
f 74/116/183 73/115/184 61/98/185
f 61/98/185 73/115/184 62/97/186
f 118/184/187 64/99/188 117/183/189
f 117/183/189 64/99/188 63/100/190
f 116/182/191 115/181/192 64/102/193
f 64/102/193 115/181/192 63/101/194
f 117/183/195 73/115/196 118/184/197
f 118/184/197 73/115/196 74/116/198
f 46/74/199 47/75/200 45/73/201
f 45/73/201 47/75/200 48/76/202
f 119/186/203 50/79/204 120/185/205
f 120/185/205 50/79/204 49/80/206
f 120/185/207 48/77/208 119/186/209
f 119/186/209 48/77/208 47/78/210
