# This file uses centimeters as units for non-parametric coordinates.

v -22.722456 -4.851650 0.254007
v -7.413434 3.495857 -8.355433
v -7.413431 3.495857 -9.207939
v -9.187361 3.494292 -5.467099
v -9.224449 2.794253 -5.467505
v -7.413434 2.794253 -8.355311
v 6.340684 2.794253 -2.094599
v -1.964660 2.794253 -5.913499
v -5.766396 2.794253 -5.913499
v -5.765461 2.794253 -4.592265
v -5.900386 2.794253 -4.592264
v 6.549731 3.333227 -9.257360
v 6.544160 2.794253 -8.355311
v 6.544153 3.356476 -8.355355
v 8.222273 3.356476 -4.932436
v 9.037734 3.356476 -4.932664
v 6.341302 1.995452 -2.093827
v 0.792215 1.109203 -2.074826
v 6.340183 2.794261 -4.529148
v -5.900386 1.109360 -4.658001
v 4.572829 2.794261 -5.913499
v 4.572829 2.793686 -4.570720
v 4.572829 1.953155 -5.913500
v -5.767533 1.955168 -5.913448
v -5.762659 1.967609 -4.597542
v -5.966632 1.961645 -4.592248
v 3.178428 2.794253 -5.913499
v 3.197948 1.953970 -5.913500
v 6.215844 -0.872916 -3.439919
v 5.678395 -1.521762 -1.150398
v 5.215246 1.109630 0.634866
v -2.791849 1.109203 -2.090497
v -2.840059 -2.196830 0.983772
v 1.928502 1.109626 1.321168
v 3.830536 -1.895720 -0.806114
v 3.418937 1.109630 0.634861
v -2.841335 1.109232 2.539875
v -2.893927 1.109232 2.538463
v -4.381001 1.109288 2.538291
v -2.826353 -2.105116 -2.090507
v 0.934978 -2.132247 -2.075402
v -9.645236 -3.055990 2.636177
v -5.954713 1.917616 4.380601
v -5.900469 -3.049681 15.081773
v -5.954713 2.794236 4.668802
v -9.878281 -2.914988 3.595139
v -7.489722 2.727264 7.387682
v -5.900460 2.794236 7.387682
v 1.907909 1.109625 2.540478
v -2.769171 0.377149 2.536585
v -4.380694 0.375354 2.535836
v 5.215559 1.109566 4.668792
v 5.215324 0.426657 0.634866
v 1.907909 0.383484 2.538495
v 4.365452 0.426657 0.634860
v 4.365376 -1.435843 0.634860
v 5.215398 -1.435828 0.634867
v 5.215323 0.426657 2.851628
v 2.073476 1.953291 -5.913499
v -1.557235 1.953291 -5.913499
v -5.124208 1.953228 -5.913499
v -5.179505 1.924331 -5.805848
v -22.784094 -1.338575 6.282539
v 2.301455 1.109262 7.387682
v 10.499993 -1.883732 4.764346
v -5.900469 -3.049681 7.387682
v 8.592989 -2.616495 7.388702
v 6.877560 -3.049681 7.388703
v 4.697104 -3.049681 7.475371
v -1.209524 -3.049681 7.388703
v -9.404634 -2.621487 7.387682
v -21.025505 -1.246436 13.074599
v 12.603383 -2.512306 13.622508
v 17.774014 -2.769182 9.921316
v -2.464160 1.109198 7.387682
v -0.488285 1.109262 7.387682
v 2.304278 0.352566 7.387682
v -0.489378 0.352566 7.387682
v -5.900469 0.352566 7.387682
v -5.900469 2.035019 7.387682
v -9.548719 -2.554384 4.804829
v -7.515438 2.035018 7.387682
v -5.900469 1.098688 7.387688
v -7.516445 1.099324 7.387688
v -7.516732 -3.049681 7.387682
v -3.223580 -3.049681 7.388703
v -3.223270 0.352566 7.387682
v 0.034733 0.352566 7.387682
v 0.033639 -3.049681 7.388703
v -1.212410 0.352566 7.387682
v 1.450452 0.352566 7.387682
v 1.450115 -3.049681 7.388703
v 3.566886 -3.049681 7.388703
v 3.538936 0.352566 7.387682
v 4.673064 0.352566 7.387682
v 4.619102 -3.049681 7.388703
v 4.717463 -3.049681 7.520001
v 4.720909 0.278117 7.536508
v 6.878775 0.352566 7.387682
v 6.862003 0.278117 7.497996
v 6.878775 1.109394 7.387682
v 1.450357 -3.049681 15.081773
v -1.213358 -3.049681 15.081773
v -3.223583 -3.049681 15.081773
v 4.984661 -3.049681 15.081773
v 6.877521 -3.049681 15.081773
v 8.179303 2.794253 -4.931056
v 1.607455 -2.415773 0.400551
v 2.078552 -0.097366 -5.669001
v -1.556766 -0.099486 -5.669000
v -5.161261 -0.097424 -5.669000
v -6.348337 -0.098693 -5.668986
v 22.832588 -3.747893 6.065495
v 8.249331 2.772148 -2.094594
v 8.263876 1.995380 -2.094598
v 7.531232 1.995452 -2.093827
v 7.505691 -1.334644 -2.166456
v 8.608196 1.109167 7.387682
v 8.608196 0.348358 7.387682
v -9.404614 2.794253 7.387682
v -9.437703 2.035018 7.387682
v -9.991137 3.479182 -5.467425
v 1.946624 1.095551 -0.816748
v -2.826541 0.177591 -2.090518
v -2.827663 1.109222 1.319002
v 4.572684 2.291951 -4.535261
v 4.572826 0.852876 -5.913500
v -5.943403 1.109288 2.538368
v -3.217133 -1.547058 2.536217
v -4.378083 -1.557123 2.535478
v -2.741760 -1.547058 2.536281
v 1.907909 -1.545592 2.537533
v -5.908134 -1.579252 2.495047
v 5.215324 -1.658248 2.878573
v 5.215317 0.428173 4.668792
v -1.969103 1.953281 -5.913499
v -10.006708 -0.997207 -5.512857
v -7.435754 -0.085588 -9.259537
v 6.562188 -1.394696 -9.243670
v 9.019887 -1.649763 -4.838235
v -4.353721 2.035246 7.387682
v 3.403340 1.096571 2.537982
v 3.418939 0.383484 2.539888
v 3.418819 -1.510131 2.546434
v 3.418936 -1.435843 0.634860
v 3.418936 0.426657 0.634860
v 0.937918 0.177575 -2.074831
v 6.178610 -1.164799 -2.166456
v 6.178810 -0.867067 -3.350470
v 6.178872 2.141381 -3.352762
v 6.178795 1.947085 -2.166456
v -6.346589 1.885045 -5.913234
v -5.960490 1.918175 -4.844324
v -2.820668 1.109214 -0.335667
v -2.076879 -0.099485 -5.669001
v -4.572037 -0.097403 -5.669001
v -4.527664 0.796795 -5.913499
v -4.278547 1.160089 -5.913500
v -3.869730 1.406435 -5.913500
v -3.449762 1.523533 -5.913499
v -2.851164 1.528362 -5.913499
v -2.429226 1.282377 -5.913499
v -2.227379 1.005580 -5.913499
v -2.113653 0.412930 -5.913500
v -4.430735 0.938150 -5.913499
v -4.397828 -0.097494 -5.669001
v -2.399426 -0.099485 -5.669000
v 1.555653 -0.097367 -5.669000
v -0.806739 -0.097311 -5.669000
v -0.820749 0.739772 -5.913499
v -0.622466 1.141133 -5.913499
v -0.282382 1.425190 -5.913500
v 0.164419 1.549046 -5.913499
v 0.636023 1.518705 -5.913499
v 1.020192 1.365033 -5.913499
v 1.341049 -0.085944 -7.838459
v 1.418391 -0.096952 -5.667919
v -0.581174 -0.097316 -5.669001
v 7.508537 0.824509 -2.166456
v 6.178638 1.026713 -2.166456
v 6.178817 1.204209 -3.350700
v 7.530537 1.925840 -2.166945
v -5.966632 1.084548 -4.575111
v -5.966632 1.103484 -4.575481
v 9.022859 2.245162 -4.853956
v 8.124799 -1.649772 -4.949796
v -10.006348 2.588414 -5.501523
v -9.224131 -1.006230 -5.479638
v -5.829630 1.104706 2.497270
v -4.378431 -0.046678 2.535526
v -5.539349 0.403947 2.508089
v -2.744584 -0.436835 2.536312
v -3.182300 -0.463076 2.536246
v 1.907909 -0.540837 2.537588
v 3.386303 -0.528191 2.534439
v 1.840850 -1.134701 -3.424380
v 6.158538 1.917194 -2.224898
v 3.613792 -2.044379 -1.725374
v 3.720190 0.642814 -3.643960
v -2.830745 0.269551 1.240188
v 1.928732 0.362592 1.025510
v -2.825850 0.208150 -0.320096
v 1.928382 0.480398 -0.826467
v -0.976107 0.177583 -2.091384
v -0.892563 -2.118681 -2.095937
v -2.113426 -0.099360 -5.913500
v -1.556800 -0.099361 -5.913499
v -0.808676 -0.102063 -5.888893
v -5.165403 -0.100960 -5.913494
v -4.552144 -0.100522 -5.913500
v -4.592386 -0.097548 -7.581677
v -4.420506 -0.094875 -7.659726
v -2.114364 -0.105154 -7.567035
v -2.401604 -0.099396 -7.573912
v -0.804439 -0.088392 -7.303068
v -0.579908 -0.088392 -7.542502
v 1.501157 -0.101162 -5.912418
v 1.426913 0.962186 -5.913499
v 1.468023 -0.085635 -7.636814
v -6.348337 -2.163257 -5.668986
v -5.161261 -2.162843 -5.669000
v -4.572037 -2.162837 -5.669001
v -4.397828 -2.162867 -5.669001
v -4.420506 -2.162012 -7.646138
v -2.076879 -2.162306 -5.669001
v -1.556766 -2.162300 -5.669000
v -2.436561 -2.162310 -5.669000
v -2.364469 -2.163152 -7.697927
v -0.806739 -2.162306 -5.669000
v -0.556562 -2.162308 -5.669001
v -0.604520 -2.163372 -7.736541
v 4.567501 -1.646779 -6.528062
v 2.078552 -2.158949 -5.669001
v 4.567275 -1.646779 -4.529432
v 1.555653 -2.158949 -5.669000
v 1.361150 -2.158863 -7.719626
v 1.418391 -2.158958 -5.667919
v -2.114081 0.501865 -7.491044
v -4.542530 1.258990 -7.467256
v 1.466449 0.985302 -7.620986
v 2.722393 0.119735 0.145548
v -5.934968 0.997379 -4.615233
v -2.523332 -1.489425 4.668802
v -0.489396 -1.489453 4.668792
v 2.353769 -1.489453 4.668792
v 5.238526 -1.489417 4.668792
v -4.205215 -1.494260 4.668801
v -5.900460 -1.498422 4.668802
v -5.955484 -1.839312 -4.085429
v -4.613783 -2.147971 -4.310253
v -4.208513 -2.134799 -4.304797
v -4.089706 -2.130957 -4.303196
v -2.254688 -2.063877 -4.278955
v -1.683868 -2.045195 -4.271277
v 0.122028 -1.904155 -4.224087
v -2.019978 -2.056194 -4.275797
v 0.285301 -1.893818 -4.219934
v 1.454029 -1.818887 -4.190140
v 1.474955 -1.917562 -4.194190
v 1.866089 -1.893540 -4.184268
v 1.556904 -1.911525 -4.192062
v -5.936575 0.113743 2.384878
v 8.608196 0.344150 -0.825573
v 8.593041 -3.118068 -0.818592
v 8.593010 -3.043165 3.078742
v -1.096420 -0.088392 -7.321754
v -1.085135 -0.088186 -7.540367
v -0.817085 1.268096 -7.438399
v -6.024730 0.799521 2.589365
v 6.544158 2.858531 -9.245850
v 6.562205 -1.394740 -8.355310
v -7.413428 2.811275 -9.255587
v -7.435116 -0.085171 -8.355310
v 8.168074 1.906908 -4.934917
v 9.022615 1.926727 -4.852671
v 7.505691 -1.334644 -4.954706
v 7.508537 0.824509 -4.954706
v 7.530537 1.925840 -4.955196
v 8.149143 0.351035 -4.941426
v 9.021320 0.229346 -4.845819
v -4.957232 -0.087016 -7.700597
v 1.686289 -0.086785 -7.837947
v 14.683690 -1.423978 7.283847
v 17.417648 -2.763211 4.026571
v 9.062953 -2.062298 10.004782
v 10.511831 -0.852409 7.727715
v 9.745704 -1.888482 5.659701
v 8.593000 -2.849558 5.034437
v 15.238184 -2.643203 11.736489
v -14.962149 -1.714320 9.797060
v -15.557118 -2.163786 5.976242
v -14.237492 -2.055720 13.975405
v -15.360321 -2.941388 3.520375
v -15.842034 -3.535546 1.405580
v -10.747574 -2.398993 7.979383
v -12.676325 -2.011313 5.622779
v -9.931152 -2.531624 7.627274
v -11.226213 -2.263108 5.243537
v -10.093835 -2.486753 8.937297
v -13.942709 -2.078340 5.778160
v -12.354290 -2.137976 8.672334
v -10.817367 -2.214825 6.033148
v -11.843577 -2.178696 6.640254
v -13.212721 -2.402111 4.010775
v -12.475980 -3.618954 1.891303
v -4.418641 -0.095090 -7.546516
v 1.532119 1.109262 7.387682
v 1.903329 1.109262 7.387682
v -1.557012 0.902581 -5.913499
v -1.557103 1.328900 -5.913499
v 0.168619 2.794253 -5.913499
v 0.166965 1.953291 -5.913499
v -3.605225 2.794253 -5.913499
v -3.634869 1.953253 -5.913499
v -6.347624 0.710771 -5.768651
v -5.172906 0.976613 -5.812912
v -5.147340 0.799749 -5.913496
v 2.075914 1.335634 -5.796049
v 1.622675 1.308760 -5.913499
v 1.928602 0.406416 0.619375
v 1.928499 1.109628 0.652926
v -5.834046 1.932929 -5.810068
v -5.791848 0.836545 -5.811986
v 8.247258 2.794253 -2.178578
v 6.585189 3.356791 -9.256975
v -10.005336 3.433368 -5.469687
v -7.653570 2.817862 7.387682
v -7.532501 2.814597 7.387682
v -9.329514 2.025280 7.386715
v -9.437714 2.739434 7.387682
v 3.368109 0.362478 2.511843
v 3.418938 1.109625 2.482271
v 3.373073 1.109625 2.540394
v 1.928486 1.056219 -0.825762
vt 0.016911 0.287805
vt 0.288253 0.974497
vt 0.285531 0.963938
vt 0.221571 0.927445
vt 0.200296 0.925879
vt 0.225733 0.887523
vt 0.286030 0.928789
vt 0.701892 0.811738
vt 0.314473 0.847617
vt 0.328994 0.904126
vt 0.317896 0.847142
vt 0.427842 0.903926
vt 0.665328 0.965671
vt 0.661258 0.973354
vt 0.663651 0.927460
vt 0.658847 0.928031
vt 0.751007 0.924032
vt 0.730004 0.923906
vt 0.699235 0.773648
vt 0.537196 0.687771
vt 0.534194 0.726736
vt 0.678763 0.876997
vt 0.320297 0.790568
vt 0.628499 0.875161
vt 0.620913 0.904406
vt 0.628009 0.848585
vt 0.618564 0.843303
vt 0.331019 0.867463
vt 0.619834 0.868911
vt 0.319302 0.809080
vt 0.316632 0.809039
vt 0.574834 0.906086
vt 0.573975 0.869998
vt 0.737389 0.611662
vt 0.686684 0.716360
vt 0.689728 0.768478
vt 0.422282 0.724934
vt 0.613991 0.600090
vt 0.352799 0.532770
vt 0.286247 0.533132
vt 0.421104 0.542239
vt 0.419626 0.533871
vt 0.625978 0.548451
vt 0.428536 0.686812
vt 0.429630 0.615056
vt 0.535876 0.611156
vt 0.032955 0.286315
vt 0.035156 0.284950
vt 0.157814 0.438051
vt 0.242538 0.442727
vt 0.238781 0.055363
vt 0.619030 0.426287
vt 0.560919 0.546014
vt 0.623437 0.503772
vt 0.423137 0.493232
vt 0.426837 0.420744
vt 0.353557 0.489412
vt 0.286403 0.498605
vt 0.357941 0.453420
vt 0.788473 0.432360
vt 0.771875 0.432636
vt 0.734893 0.568767
vt 0.559422 0.500403
vt 0.558576 0.424544
vt 0.683533 0.564866
vt 0.678326 0.484302
vt 0.735393 0.484054
vt 0.754917 0.494364
vt 0.746982 0.431839
vt 0.542349 0.869710
vt 0.541091 0.799597
vt 0.444340 0.868817
vt 0.444049 0.795350
vt 0.346317 0.867925
vt 0.345755 0.862075
vt 0.351274 0.793013
vt 0.207891 0.832161
vt 0.011094 0.276245
vt 0.654483 0.356200
vt 0.976613 0.344256
vt 0.104375 0.183529
vt 0.257512 0.194606
vt 0.455215 0.202732
vt 0.931843 0.223327
vt 0.866189 0.213635
vt 0.793856 0.214944
vt 0.003732 0.055050
vt 0.995838 0.288636
vt 0.992405 0.056369
vt 0.413224 0.344876
vt 0.493266 0.346009
vt 0.652759 0.304521
vt 0.492301 0.299830
vt 0.249389 0.291620
vt 0.245603 0.389964
vt 0.161988 0.387591
vt 0.039428 0.261369
vt 0.247644 0.336952
vt 0.161593 0.333838
vt 0.179730 0.187678
vt 0.349793 0.198382
vt 0.344943 0.294855
vt 0.532753 0.301013
vt 0.531302 0.207232
vt 0.453409 0.298517
vt 0.613137 0.303363
vt 0.607449 0.211735
vt 0.742009 0.309036
vt 0.727297 0.215538
vt 0.801501 0.311411
vt 0.787004 0.225039
vt 0.795057 0.214922
vt 0.808485 0.303495
vt 0.878242 0.314198
vt 0.883520 0.307108
vt 0.887349 0.361855
vt 0.949158 0.317304
vt 0.650836 0.055913
vt 0.484648 0.055691
vt 0.350990 0.055513
vt 0.838724 0.056164
vt 0.927327 0.056282
vt 0.290971 0.928981
vt 0.726184 0.883791
vt 0.995205 0.361381
vt 0.428245 0.868671
vt 0.325793 0.394999
vt 0.624229 0.477120
vt 0.634354 0.560404
vt 0.617111 0.426232
vt 0.675139 0.728576
vt 0.958469 0.362400
vt 0.149137 0.301476
vt 0.078617 0.439497
vt 0.085695 0.388282
vt 0.410782 0.420363
vt 0.320297 0.790568
vt 0.746982 0.431839
vt 0.736862 0.716421
vt 0.741519 0.772222
vt 0.741519 0.772222
vt 0.747902 0.771890
vt 0.754204 0.809710
vt 0.754204 0.809710
vt 0.424792 0.592033
vt 0.543787 0.595356
vt 0.545878 0.644965
vt 0.659946 0.653430
vt 0.660660 0.716332
vt 0.676456 0.759998
vt 0.537060 0.686045
vt 0.674646 0.759038
vt 0.363799 0.793395
vt 0.365205 0.812218
vt 0.370318 0.829633
vt 0.379845 0.841744
vt 0.391377 0.847981
vt 0.407557 0.846712
vt 0.419994 0.835546
vt 0.426253 0.823475
vt 0.429600 0.805129
vt 0.430662 0.795013
vt 0.367194 0.818915
vt 0.367227 0.792689
vt 0.424442 0.827084
vt 0.424885 0.794806
vt 0.523776 0.822083
vt 0.525927 0.796895
vt 0.463383 0.795603
vt 0.464111 0.811393
vt 0.468682 0.828879
vt 0.477343 0.841720
vt 0.489801 0.847805
vt 0.503094 0.846606
vt 0.513427 0.839638
vt 0.522714 0.796381
vt 0.467315 0.823650
vt 0.467895 0.795478
vt 0.675271 0.731734
vt 0.687143 0.724215
vt 0.737414 0.722624
vt 0.741384 0.770705
vt 0.320211 0.790956
vt 0.745839 0.851190
vt 0.148423 0.303598
vt 0.205998 0.855523
vt 0.220960 0.872712
vt 0.289816 0.500361
vt 0.306836 0.489026
vt 0.357357 0.458217
vt 0.319302 0.809080
vt 0.319302 0.809080
vt 0.426456 0.428212
vt 0.411743 0.426029
vt 0.558624 0.428888
vt 0.617474 0.430683
vt 0.544323 0.676377
vt 0.652110 0.746389
vt 0.544935 0.651400
vt 0.593756 0.713636
vt 0.133333 0.263255
vt 0.136351 0.264877
vt 0.136108 0.263121
vt 0.811123 0.359584
vt 0.808530 0.316242
vt 0.132082 0.265287
vt 0.134081 0.265143
vt 0.407647 0.879122
vt 0.420609 0.902830
vt 0.475422 0.233395
vt 0.475092 0.232465
vt 0.349303 0.901276
vt 0.482384 0.687291
vt 0.482188 0.609661
vt 0.881428 0.319588
vt 0.888399 0.360809
vt 0.720654 0.313300
vt 0.699473 0.356620
vt 0.549891 0.226050
vt 0.601662 0.226087
vt 0.601595 0.290713
vt 0.550316 0.290670
vt 0.620867 0.298009
vt 0.622023 0.280722
vt 0.694420 0.280700
vt 0.695942 0.296981
vt 0.623408 0.260212
vt 0.690604 0.240063
vt 0.624558 0.239865
vt 0.430132 0.800056
vt 0.463610 0.800527
vt 0.444070 0.800685
vt 0.350765 0.797820
vt 0.364130 0.797834
vt 0.525438 0.802624
vt 0.524288 0.816089
vt 0.148362 0.290270
vt 0.149175 0.290313
vt 0.444967 0.479056
vt 0.445098 0.479397
vt 0.445906 0.481162
vt 0.445410 0.479051
vt 0.444697 0.481077
vt 0.464549 0.453761
vt 0.460948 0.454000
vt 0.461797 0.450444
vt 0.468881 0.449899
vt 0.468868 0.453885
vt 0.469300 0.453911
vt 0.449184 0.472683
vt 0.448804 0.476983
vt 0.447590 0.477066
vt 0.448013 0.472764
vt 0.145323 0.301079
vt 0.142361 0.298288
vt 0.142365 0.289839
vt 0.145331 0.290058
vt 0.449530 0.472659
vt 0.449163 0.476965
vt 0.449407 0.478199
vt 0.449746 0.474081
vt 0.455202 0.472266
vt 0.455047 0.476559
vt 0.453966 0.476632
vt 0.454160 0.472339
vt 0.123661 0.357470
vt 0.123685 0.358080
vt 0.124438 0.359874
vt 0.124477 0.358964
vt 0.118423 0.359048
vt 0.118910 0.360740
vt 0.119067 0.362068
vt 0.118415 0.360694
vt 0.132449 0.356276
vt 0.132481 0.354738
vt 0.132411 0.357472
vt 0.132572 0.358967
vt 0.475526 0.231661
vt 0.351802 0.881200
vt 0.453220 0.476683
vt 0.453441 0.472389
vt 0.453535 0.477980
vt 0.453706 0.473201
vt 0.456680 0.472164
vt 0.456581 0.476458
vt 0.457208 0.472127
vt 0.457128 0.476422
vt 0.457284 0.473648
vt 0.457204 0.478166
vt 0.467555 0.469471
vt 0.468222 0.478217
vt 0.468082 0.478510
vt 0.467597 0.471812
vt 0.461254 0.476120
vt 0.122596 0.335803
vt 0.122509 0.319730
vt 0.461185 0.471856
vt 0.461462 0.471839
vt 0.461542 0.476131
vt 0.462519 0.471765
vt 0.462639 0.476058
vt 0.461172 0.477192
vt 0.461150 0.472913
vt 0.445139 0.477316
vt 0.123239 0.317331
vt 0.445660 0.472927
vt 0.445783 0.469809
vt 0.461035 0.468955
vt 0.461076 0.468758
vt 0.441485 0.460786
vt 0.441566 0.461150
vt 0.442654 0.455510
vt 0.445200 0.476995
vt 0.496180 0.237786
vt 0.488263 0.231025
vt 0.511737 0.235127
vt 0.508407 0.239762
vt 0.478714 0.236158
vt 0.477843 0.236150
vt 0.478203 0.235032
vt 0.478794 0.235036
vt 0.477961 0.235030
vt 0.476791 0.236144
vt 0.475321 0.236094
vt 0.475595 0.235019
vt 0.479570 0.235013
vt 0.479591 0.236165
vt 0.487807 0.245324
vt 0.487379 0.246735
vt 0.482617 0.243513
vt 0.121718 0.314207
vt 0.420533 0.249493
vt 0.420731 0.245710
vt 0.426082 0.248127
vt 0.426349 0.256418
vt 0.659231 0.935245
vt 0.661878 0.927519
vt 0.290763 0.932465
vt 0.287544 0.928800
vt 0.365205 0.812218
vt 0.367194 0.818915
vt 0.426253 0.823475
vt 0.464111 0.811393
vt 0.523776 0.822083
vt 0.374561 0.224644
vt 0.374266 0.224350
vt 0.374451 0.224196
vt 0.375604 0.224254
vt 0.374272 0.224254
vt 0.375451 0.224319
vt 0.149140 0.300563
vt 0.148411 0.300852
vt 0.374437 0.224158
vt 0.374477 0.223821
vt 0.374389 0.223438
vt 0.374345 0.223782
vt 0.374412 0.224337
vt 0.374317 0.223965
vt 0.204278 0.232005
vt 0.218430 0.231506
vt 0.218531 0.228339
vt 0.204639 0.228339
vt 0.385920 0.231146
vt 0.386003 0.229748
vt 0.386558 0.229043
vt 0.386480 0.231080
vt 0.386165 0.227522
vt 0.386636 0.226995
vt 0.149157 0.295698
vt 0.148389 0.296223
vt 0.427506 0.218974
vt 0.424387 0.218425
vt 0.433497 0.217680
vt 0.430053 0.218752
vt 0.431096 0.219906
vt 0.431539 0.221518
vt 0.431622 0.221629
vt 0.432877 0.219469
vt 0.434583 0.223001
vt 0.433835 0.223242
vt 0.435736 0.222551
vt 0.987902 0.304479
vt 0.985012 0.361964
vt 0.976353 0.100623
vt 0.981830 0.197302
vt 0.958312 0.298424
vt 0.374399 0.224482
vt 0.374501 0.224400
vt 0.994154 0.174725
vt 0.025489 0.268688
vt 0.055428 0.121044
vt 0.109220 0.055190
vt 0.023548 0.280751
vt 0.025173 0.287038
vt 0.031544 0.265509
vt 0.092370 0.168204
vt 0.035200 0.263590
vt 0.099526 0.177339
vt 0.112117 0.152985
vt 0.028882 0.266906
vt 0.078287 0.150225
vt 0.061378 0.228490
vt 0.057806 0.223497
vt 0.028731 0.286707
vt 0.029403 0.272128
vt 0.524078 0.818555
vt 0.367197 0.816758
vt 0.449387 0.478098
vt 0.366325 0.815990
vt 0.220648 0.214632
vt 0.222248 0.214891
vt 0.221808 0.216234
vt 0.220607 0.216181
vt 0.222669 0.214907
vt 0.222402 0.216259
vt 0.225302 0.215007
vt 0.227208 0.215068
vt 0.226169 0.216424
vt 0.225432 0.216392
vt 0.224950 0.214994
vt 0.224911 0.216369
vt 0.224704 0.214984
vt 0.224550 0.216353
vt 0.227382 0.215074
vt 0.226431 0.216435
vt 0.228638 0.215112
vt 0.228399 0.216521
vt 0.231956 0.215657
vt 0.231680 0.217055
vt 0.229054 0.216551
vt 0.229063 0.215112
vt 0.228643 0.215099
vt 0.228731 0.215102
vt 0.228535 0.216528
vt 0.224638 0.217667
vt 0.222646 0.217537
vt 0.222578 0.216267
vt 0.222792 0.214911
vt 0.228204 0.217936
vt 0.226327 0.217871
vt 0.610068 0.353392
vt 0.631499 0.354747
vt 0.444202 0.833942
vt 0.444258 0.848092
vt 0.489472 0.904888
vt 0.490884 0.869241
vt 0.385093 0.903639
vt 0.384990 0.868277
vt 0.444959 0.478851
vt 0.347217 0.831372
vt 0.319891 0.798122
vt 0.348815 0.828559
vt 0.541745 0.836030
vt 0.529400 0.836503
vt 0.475461 0.232750
vt 0.386617 0.902996
vt 0.386872 0.879895
vt 0.332721 0.861918
vt 0.334104 0.832581
vt 0.271254 0.515623
vt 0.271254 0.514508
vt 0.269355 0.514112
vt 0.268739 0.516904
vt 0.267957 0.517935
vt 0.270995 0.516170
vt 0.753374 0.811903
vt 0.662356 0.973343
vt 0.200680 0.921147
vt 0.152871 0.442708
vt 0.155133 0.442287
vt 0.085798 0.387148
vt 0.079128 0.435800
vt 0.623157 0.500340
vt 0.622088 0.279759
vt 0.625612 0.550026
vt 0.623157 0.297978
vt 0.624003 0.548377
vt 0.349515 0.899572
vn -0.000000 0.909447 0.415820
vn -0.108719 0.033292 0.993515
vn -0.000000 0.000252 1.000000
vn -0.036009 0.027336 0.998978
vn 0.000000 1.000000 0.000004
vn -0.003525 0.972613 0.232406
vn -0.068494 0.046850 0.996551
vn 0.046869 0.009037 0.998860
vn 0.000910 0.129627 0.991562
vn -0.671871 0.000089 0.740669
vn -0.695089 -0.017913 0.718701
vn -1.000000 0.000039 -0.000127
vn -1.000000 0.000059 -0.000055
vn -0.999679 -0.024530 -0.006332
vn -0.418770 0.506870 0.753468
vn 0.895376 -0.006763 0.445259
vn 0.775914 0.492273 0.394494
vn 0.753060 -0.548921 0.362749
vn 0.000000 0.000003 1.000000
vn 0.000001 0.000003 1.000000
vn -0.000000 0.000000 1.000000
vn -0.000311 -0.000203 1.000000
vn -0.000485 -0.000106 1.000000
vn -0.000306 0.822886 0.568207
vn -0.004606 0.931988 0.362460
vn 0.015121 -0.061106 0.998017
vn 0.000202 -0.077205 0.997015
vn 0.293552 0.358095 0.886338
vn -0.220462 0.291724 0.930749
vn 0.140044 -0.559828 0.816689
vn -0.031930 -0.730264 0.682418
vn 0.030792 0.854441 0.518635
vn 0.051100 0.729733 0.681820
vn -0.146581 0.938760 0.311839
vn -0.003823 -0.004048 0.999985
vn 0.032217 0.864200 0.502116
vn 0.259898 -0.242297 0.934743
vn 0.090533 0.828259 0.552983
vn 0.632147 0.614923 0.471444
vn 0.695691 -0.007353 0.718303
vn -0.000003 -0.000002 1.000000
vn 0.022603 0.787511 0.615885
vn -0.952294 -0.000055 0.305183
vn -0.873197 0.357023 0.331757
vn 0.765028 0.449318 0.461351
vn 0.172231 0.977415 0.122457
vn -0.746496 0.665312 -0.010143
vn -1.000000 0.000085 -0.000009
vn 0.999981 -0.004708 0.004040
vn 0.999985 -0.004257 0.003498
vn 0.592321 0.804385 0.046044
vn 0.583565 -0.019822 0.811825
vn 0.000284 -0.001053 0.999999
vn 0.999931 -0.005336 0.010483
vn -0.028539 -0.000375 0.999593
vn -0.015842 -0.000848 0.999874
vn -0.009987 -0.002146 0.999948
vn -0.016241 0.853426 0.520961
vn 0.061667 -0.086313 0.994358
vn -0.011723 -0.002690 0.999928
vn -0.001073 0.999644 -0.026665
vn -0.003348 0.999603 -0.027991
vn -0.001723 0.570379 0.821380
vn -0.000041 0.123948 0.992289
vn 0.050985 0.673843 0.737113
vn -0.000077 0.117382 0.993087
vn -0.000001 0.587654 0.809113
vn 0.000170 0.116151 0.993232
vn -0.001600 0.561322 0.827596
vn 0.000000 0.124355 0.992238
vn -0.980031 0.101358 0.171071
vn -0.486453 0.871800 0.057689
vn -0.993440 0.112957 -0.017822
vn -0.713878 0.699800 -0.025656
vn -0.000235 0.105958 0.994371
vn -0.042342 0.846476 0.530740
vn 0.531485 0.847062 0.003008
vn 0.990582 0.062357 0.121900
vn -0.070296 0.988613 -0.133051
vn -0.053911 0.992164 -0.112714
vn -0.031617 0.996711 -0.074623
vn -0.021570 0.980961 -0.193004
vn 0.014065 0.974359 -0.224561
vn -0.543984 0.838979 -0.014004
vn 0.670882 0.726629 -0.148079
vn -0.056178 0.984707 -0.164915
vn -0.000989 0.614719 0.788746
vn 0.087282 -0.947192 0.308560
vn 0.998031 0.061653 -0.011569
vn 0.000218 1.000000 0.000611
vn 0.918015 0.396495 0.006387
vn -0.000059 1.000000 0.000939
vn 0.241117 -0.058686 0.968720
vn 0.973490 -0.007876 0.228595
vn 0.945259 0.234441 0.226984
vn 0.840319 -0.505483 0.195833
vn -0.068880 -0.000815 0.997625
vn 0.305848 0.792562 0.527544
vn -0.111083 0.001092 0.993810
vn -0.078533 0.772599 0.630019
vn -0.127507 0.910128 0.394221
vn -0.083100 0.993725 0.074866
vn 0.000000 1.000000 0.000000
vn 0.205653 0.977428 -0.048392
vn 0.214796 0.972610 -0.088844
vn -0.011767 0.950927 -0.309193
vn -0.542633 0.812920 -0.211447
vn -0.507302 0.814186 0.282394
vn -0.070084 0.990391 0.119225
vn -0.206425 0.966111 0.154979
vn -0.516521 0.848776 -0.113071
vn 0.016493 0.994067 0.107511
vn 0.119891 0.967843 0.221146
vn 0.252193 0.966299 0.051628
vn 0.182561 0.983143 -0.010041
vn 0.037437 -0.017456 0.999147
vn -0.459923 0.883639 -0.087479
vn 0.000000 1.000000 -0.000000
vn 0.000000 1.000000 -0.000000
vn -0.000088 0.914610 0.404338
vn 0.000000 0.920686 0.390304
vn -0.000055 0.904963 0.425491
vn 0.070078 0.997536 0.003404
vn 0.074078 0.977775 -0.196135
vn 0.038399 0.954573 -0.295491
vn 0.103906 0.994417 -0.018413
vn 0.071889 0.997369 -0.009387
vn 0.120104 0.992175 0.034126
vn 0.128679 0.991640 0.009602
vn 0.168214 0.985715 0.008385
vn 0.158980 0.986956 0.025362
vn -0.095887 0.963763 -0.248931
vn -0.009444 0.872308 -0.488865
vn -0.004686 0.917738 -0.397159
vn -0.012450 0.988087 -0.153394
vn 0.146260 0.989186 0.010945
vn 0.172395 0.985027 -0.000971
vn 0.168286 0.972745 -0.159522
vn 0.052758 0.955777 -0.289320
vn 0.264925 0.950995 -0.159447
vn -0.083785 0.938102 -0.336074
vn 0.001495 0.919762 -0.392475
vn -0.006322 0.923165 -0.384353
vn 0.005041 0.992649 -0.120928
vn 0.086142 0.996009 0.023377
vn 0.996797 0.079158 -0.011360
vn 0.991645 0.128396 -0.012409
vn 0.989249 0.145095 -0.018286
vn 0.010287 0.998330 0.056854
vn 0.524009 0.851040 0.033840
vn 0.996150 0.032710 0.081339
vn 0.699268 0.714815 -0.008029
vn 0.001692 0.127072 0.991892
vn -0.995306 0.012470 0.095972
vn 0.714256 0.699680 -0.016927
vn -0.739010 0.673286 0.023467
vn -0.999182 0.019032 0.035671
vn -0.000000 0.928894 0.370346
vn 0.000000 1.000000 0.000000
vn 0.000000 0.929741 0.368214
vn -0.000208 0.999645 -0.026661
vn -0.592858 0.805058 -0.020043
vn -0.999983 -0.003766 0.004490
vn -0.000000 0.000242 1.000000
vn 0.000000 0.000238 1.000000
vn 0.000000 0.000250 1.000000
vn -0.002935 0.999812 -0.019193
vn -0.005377 0.890213 0.455512
vn -0.650336 0.727945 0.217162
vn -0.883791 0.467881 -0.001138
vn 0.764526 0.483904 0.425838
vn -0.009174 0.275932 0.961133
vn -0.670770 -0.000297 0.741665
vn -1.000000 0.000264 0.000516
vn 0.835224 0.013634 0.549740
vn 0.999934 0.009904 0.005834
vn -0.000000 -0.000000 1.000000
vn 0.000001 0.000000 1.000000
vn 0.000000 0.000000 1.000000
vn 0.000001 0.000000 1.000000
vn 0.882639 0.350992 0.312655
vn 0.880053 -0.027511 0.474079
vn 0.999186 -0.035037 -0.019982
vn 0.000000 -0.000000 1.000000
vn -0.000000 0.000000 1.000000
vn 0.000000 -0.000000 1.000000
vn -0.000000 0.000000 1.000000
vn -0.000000 0.000000 1.000000
vn -0.000001 0.000000 1.000000
vn -0.000000 -0.000000 1.000000
vn -0.000000 0.000000 1.000000
vn -0.980595 0.195939 -0.006465
vn 0.002439 0.999992 -0.003071
vn -0.448807 0.386300 0.805819
vn 0.088380 0.786788 0.610863
vn -0.766936 0.640761 -0.035133
vn -0.102567 0.976905 -0.187451
vn -0.698707 -0.089693 0.709763
vn 0.158148 -0.053156 0.985984
vn -0.942463 0.135547 0.305598
vn -0.904959 -0.011981 0.425330
vn -0.999731 -0.001128 -0.023163
vn -0.005828 0.028954 0.999564
vn -0.001152 0.092557 0.995707
vn 0.000036 0.082900 0.996558
vn -0.587181 0.005694 0.809436
vn -0.000001 0.000000 1.000000
vn -0.138974 0.062518 0.988321
vn 0.033169 0.985186 0.168250
vn 0.478648 0.710986 0.515164
vn 0.981452 0.163462 0.100158
vn 0.003294 0.796266 0.604937
vn 0.981597 -0.122089 0.146840
vn 0.033283 -0.288969 0.956760
vn -0.000000 -0.000000 1.000000
vn -0.000000 -0.000001 1.000000
vn -0.000001 -0.000000 1.000000
vn 0.872716 -0.414586 -0.257849
vn 0.852848 -0.328498 0.405881
vn 0.025953 0.014540 0.999557
vn 0.000000 0.000000 1.000000
vn 0.000000 0.000001 1.000000
vn 0.142071 -0.002847 0.989852
vn 0.967867 -0.019392 0.250715
vn 0.801925 0.446923 0.396454
vn 0.099639 0.258755 0.960790
vn 0.999705 0.000448 0.024274
vn 0.952624 -0.061660 -0.297834
vn 0.908245 -0.392405 0.145293
vn 0.985827 0.008065 0.167569
vn 0.064668 0.024199 0.997613
vn 0.162729 -0.042779 0.985743
vn -0.099795 0.091841 0.990760
vn 0.155778 0.116617 0.980884
vn 0.682683 0.623086 0.381718
vn 0.996223 0.074702 0.044272
vn 0.781431 0.622723 -0.039775
vn 0.998963 0.012164 -0.043878
vn 0.999182 0.012628 -0.038411
vn 0.999197 0.029405 -0.027219
vn -0.999996 -0.002904 -0.000737
vn -0.999991 -0.004299 -0.000024
vn -0.999993 -0.003791 -0.000235
vn -0.999991 -0.004308 0.000020
vn -0.984871 0.013180 0.172787
vn -0.099478 0.000278 0.995040
vn -0.066713 -0.560448 0.825498
vn -0.632272 0.054800 0.772806
vn -0.023480 0.070484 0.997237
vn -0.670916 0.000027 0.741533
vn 0.002315 0.001876 0.999996
vn 0.002173 0.162142 0.986765
vn -0.070570 0.033475 0.996945
vn -0.034751 0.055914 0.997831
vn -0.052718 0.033697 0.998041
vn 0.000279 0.002434 0.999997
vn 0.011199 0.967069 0.254267
vn -0.999984 0.005281 -0.001878
vn -0.996676 0.081053 -0.008253
vn -0.553126 0.832726 -0.024884
vn 0.000000 -0.000000 1.000000
vn 0.000000 0.000000 1.000000
vn 0.000000 0.000000 1.000000
vn 0.650336 0.007051 0.759614
vn -0.000000 0.000000 1.000000
vn 0.999980 -0.006257 -0.000111
vn 1.000000 0.000002 0.000005
vn 0.999981 -0.006253 -0.000200
vn 1.000000 0.000000 0.000003
vn 0.999971 -0.007564 -0.000593
vn 0.999971 -0.007530 -0.000702
vn -0.037344 -0.007139 0.999277
vn -0.041358 -0.007947 0.999113
vn -0.042473 -0.003159 0.999093
vn -0.042447 -0.003154 0.999094
vn -0.003133 -0.000414 0.999995
vn -0.020630 -0.021794 0.999550
vn 0.000525 -0.049480 0.998775
vn 0.000525 -0.049480 0.998775
vn 0.000525 -0.049480 0.998775
vn 0.122070 0.892872 0.433450
vn 0.185327 0.869515 0.457819
vn -0.000209 0.000005 1.000000
vn -0.000000 0.000000 1.000000
vn 0.000005 0.000000 1.000000
vn 0.000005 0.000000 1.000000
vn -0.000000 -0.000005 1.000000
vn -0.000000 0.000000 1.000000
vn -0.000000 -0.000081 1.000000
vn 0.000000 0.000000 1.000000
vn 0.000000 -0.098817 0.995106
vn -0.000345 0.000068 1.000000
vn -0.000344 -0.000000 1.000000
vn 0.000001 0.000000 1.000000
vn 0.000001 0.000000 1.000000
vn 0.000001 0.000000 1.000000
vn -0.000072 0.000156 1.000000
vn 0.000000 0.000260 1.000000
vn 0.000001 -0.000001 1.000000
vn 0.000000 -0.000001 1.000000
vn 0.000000 0.000214 1.000000
vn 0.000001 0.000000 1.000000
vn 0.000000 0.000000 1.000000
vn 0.000000 0.000000 1.000000
vn 0.000000 0.000000 1.000000
vn 0.000000 0.000000 1.000000
vn -1.000000 0.000257 0.000013
vn -0.954645 -0.000111 0.297748
vn 0.000000 0.000000 1.000000
vn -0.000000 0.000000 1.000000
vn 0.001468 0.000529 0.999999
vn 0.844794 0.021098 0.534676
vn 0.865420 0.001603 0.501045
vn 0.778181 0.025992 0.627502
vn 0.257509 -0.937197 0.235269
vn 0.777500 -0.050285 0.626869
vn 0.875118 0.020436 0.483477
vn 0.960163 0.035601 0.277164
vn 0.763238 0.047854 0.644342
vn 0.107141 0.065163 0.992106
vn -0.034058 0.997166 -0.067078
vn -0.014465 0.999156 -0.038458
vn -0.031336 0.999420 -0.013314
vn 0.138714 0.987870 -0.069794
vn 0.857027 0.432738 -0.279719
vn -0.748595 -0.116492 -0.652714
vn -0.537010 -0.151123 -0.829929
vn 0.999983 -0.004067 0.004227
vn -0.000322 -0.002128 0.999998
vn -0.001067 -0.002932 0.999995
vn 0.002134 -0.001734 0.999996
vn -0.000649 0.105379 0.994432
vn -0.000273 -0.002401 0.999997
vn 0.000000 1.000000 0.000000
vn -0.000458 -0.004539 0.999990
vn -0.825883 -0.562439 -0.039754
vn -0.058375 -0.950406 -0.305485
vn -0.953579 -0.299424 -0.032142
vn -0.245816 -0.923846 -0.293399
vn -0.019177 -0.942378 -0.334000
vn -1.000000 -0.000187 0.000031
vn -1.000000 0.000071 0.000112
vn 0.821006 -0.000005 0.570919
vn 1.000000 0.000001 -0.000002
vn -1.000000 -0.000309 0.000004
vn -0.906649 0.421612 -0.015220
vn -0.906649 0.421612 -0.015220
vn -0.906649 0.421612 -0.015220
f 93/109/1 96/111/2 94/108/3
f 94/108/3 96/111/2 95/110/4
f 93/109/1 69/86/5 96/111/2
f 69/86/5 97/112/6 96/111/2
f 97/112/6 98/113/7 96/111/2
f 96/111/2 98/113/7 95/110/4
f 100/115/8 99/114/9 98/113/7
f 98/113/7 99/114/9 95/110/4
f 180/180/10 151/36/11 181/179/12
f 181/179/12 151/36/11 150/150/13
f 181/179/12 149/131/14 180/180/10
f 180/180/10 149/131/14 148/35/15
f 180/180/10 148/35/15 179/181/16
f 179/181/16 148/35/15 117/139/17
f 151/36/11 180/180/10 182/182/18
f 182/182/18 180/180/10 179/181/16
f 80/95/19 141/127/20 48/50/21
f 192/193/22 193/194/23 131/56/24
f 131/56/24 193/194/23 129/136/25
f 151/36/11 182/182/18 17/19/26
f 17/19/26 182/182/18 116/140/27
f 196/197/28 29/149/29 199/200/30
f 199/200/30 29/149/29 197/198/31
f 29/149/29 35/147/32 30/148/33
f 29/149/29 198/199/34 35/147/32
f 29/149/29 196/197/28 198/199/34
f 204/213/35 205/214/36 147/20/37
f 147/20/37 205/214/36 41/46/38
f 199/200/30 147/151/37 196/197/28
f 41/46/38 196/197/28 147/151/37
f 147/151/37 197/198/31 17/152/26
f 147/151/37 199/200/30 197/198/31
f 205/214/36 204/213/35 40/45/39
f 40/45/39 204/213/35 124/44/40
f 55/65/41 56/66/42 53/62/43
f 53/62/43 56/66/42 57/67/44
f 145/128/45 144/52/46 56/66/42
f 144/52/46 134/138/47 56/66/42
f 134/138/47 57/67/44 56/66/42
f 134/220/47 58/221/48 57/219/44
f 57/219/44 58/221/48 53/222/43
f 202/207/49 200/206/50 33/201/51
f 124/202/40 202/207/49 40/203/39
f 40/203/39 202/207/49 33/201/51
f 32/37/52 204/213/35 18/21/53
f 18/21/53 204/213/35 147/20/37
f 204/213/35 32/37/52 124/44/40
f 124/215/40 32/216/52 202/205/49
f 202/205/49 32/216/52 154/204/54
f 191/189/55 190/190/56 51/57/57
f 190/190/56 130/59/58 193/194/23
f 193/194/23 130/59/58 129/136/25
f 189/188/59 191/189/55 39/39/60
f 39/39/60 191/189/55 51/57/57
f 243/319/61 129/320/25 247/318/62
f 247/318/62 129/320/25 130/321/58
f 131/322/24 129/320/25 243/319/61
f 222/250/63 156/251/64 221/253/65
f 221/253/65 156/251/64 111/252/66
f 226/262/67 110/263/68 225/265/69
f 225/265/69 110/263/68 155/264/70
f 155/264/70 167/280/71 225/265/69
f 225/265/69 167/280/71 227/281/72
f 167/280/71 214/282/73 227/281/72
f 227/281/72 214/282/73 228/283/74
f 169/285/75 110/263/68 229/284/76
f 229/284/76 110/263/68 226/262/67
f 230/286/77 178/287/78 229/284/76
f 229/284/76 178/287/78 169/285/75
f 255/417/79 229/418/76 254/416/80
f 254/416/80 229/418/76 226/419/67
f 256/420/81 254/416/80 225/421/69
f 225/421/69 254/416/80 226/419/67
f 257/424/82 230/425/77 255/417/79
f 255/417/79 230/425/77 229/418/76
f 258/426/83 237/427/84 257/424/82
f 257/424/82 237/427/84 230/425/77
f 258/308/83 259/309/85 237/297/84
f 261/433/86 235/434/87 259/432/85
f 259/432/85 235/434/87 237/427/84
f 116/328/27 182/329/18 115/330/88
f 216/315/89 267/316/90 215/314/91
f 215/314/91 267/316/90 266/317/92
f 128/40/93 189/188/59 39/39/60
f 179/353/16 117/354/17 277/356/94
f 277/356/94 117/354/17 276/355/95
f 182/357/18 179/353/16 278/358/96
f 278/358/96 179/353/16 277/356/94
f 279/370/97 186/237/98 280/369/99
f 280/369/99 186/237/98 140/238/100
f 277/364/94 276/367/95 279/365/97
f 279/365/97 276/367/95 186/368/98
f 30/374/33 148/375/15 29/377/29
f 148/375/15 149/376/14 29/377/29
f 98/113/7 97/112/6 100/115/8
f 100/115/8 97/112/6 68/85/101
f 68/85/101 97/112/6 106/122/102
f 106/122/102 97/112/6 105/121/103
f 283/382/104 284/383/105 65/80/106
f 287/386/107 67/84/108 286/385/109
f 286/385/109 67/84/108 285/384/110
f 67/84/108 68/85/101 285/384/110
f 285/384/110 68/85/101 106/122/102
f 287/387/107 288/388/111 67/345/108
f 285/384/110 106/122/102 73/89/112
f 286/385/109 285/384/110 289/389/113
f 289/389/113 285/384/110 73/89/112
f 283/382/104 74/88/114 284/383/105
f 284/383/105 74/88/114 113/125/115
f 99/114/9 100/115/8 119/117/116
f 100/115/8 68/85/101 119/117/116
f 67/84/108 119/117/116 68/85/101
f 286/385/109 289/389/113 283/382/104
f 283/382/104 289/389/113 74/88/114
f 287/386/107 286/385/109 65/80/106
f 65/80/106 286/385/109 283/382/104
f 287/387/107 65/346/106 288/388/111
f 288/388/111 65/346/106 265/347/117
f 104/120/118 103/119/119 86/101/120
f 86/101/120 103/119/119 70/83/121
f 86/101/120 66/82/122 104/120/118
f 104/120/118 66/82/122 44/51/123
f 291/390/124 63/78/125 290/391/126
f 290/391/126 63/78/125 72/87/127
f 292/392/128 290/391/126 72/87/127
f 299/399/129 297/398/130 295/396/131
f 294/394/132 1/1/133 293/393/134
f 293/393/134 1/1/133 63/78/125
f 291/390/124 293/393/134 63/78/125
f 300/400/135 293/393/134 291/390/124
f 301/401/136 300/400/135 290/391/126
f 290/391/126 300/400/135 291/390/124
f 44/51/123 299/399/129 292/392/128
f 299/399/129 301/401/136 292/392/128
f 292/392/128 301/401/136 290/391/126
f 301/401/136 299/399/129 295/396/131
f 302/402/137 81/97/138 298/397/139
f 298/397/139 46/48/140 42/47/141
f 304/405/142 298/397/139 305/404/143
f 305/404/143 298/397/139 42/47/141
f 304/405/142 296/395/144 298/397/139
f 302/402/137 298/397/139 303/403/145
f 303/403/145 298/397/139 296/395/144
f 296/395/144 300/400/135 303/403/145
f 303/403/145 300/400/135 301/401/136
f 293/393/134 300/400/135 296/395/144
f 303/403/145 301/401/136 295/396/131
f 303/403/145 295/396/131 302/402/137
f 302/402/137 295/396/131 297/398/130
f 46/48/140 298/397/139 81/97/138
f 304/405/142 305/404/143 293/393/134
f 293/393/134 305/404/143 294/394/132
f 296/395/144 304/405/142 293/393/134
f 306/407/146 212/163/147 211/154/148
f 211/154/148 212/163/147 281/409/149
f 222/250/63 223/258/150 156/251/64
f 156/251/64 223/258/150 166/259/151
f 306/408/146 224/261/152 212/260/147
f 228/435/74 224/436/152 227/423/72
f 227/423/72 224/436/152 223/437/150
f 224/261/152 306/408/146 223/258/150
f 223/258/150 306/408/146 166/259/151
f 168/299/153 177/294/154 235/298/87
f 235/298/87 177/294/154 237/297/84
f 231/288/155 216/289/89 230/286/77
f 230/286/77 216/289/89 178/287/78
f 237/297/84 177/294/154 236/303/156
f 236/303/156 177/294/154 176/302/157
f 237/427/84 236/439/156 230/425/77
f 230/425/77 236/439/156 231/440/155
f 70/83/121 103/119/119 89/104/158
f 103/119/119 102/118/159 89/104/158
f 102/118/159 92/107/160 89/104/158
f 244/323/161 131/322/24 243/319/61
f 144/244/46 246/247/162 134/248/47
f 58/68/48 134/69/47 135/61/163
f 134/248/47 246/247/162 135/249/163
f 105/121/103 97/112/6 102/118/159
f 69/86/5 93/109/1 97/112/6
f 97/112/6 93/109/1 102/118/159
f 93/109/1 92/107/160 102/118/159
f 88/103/164 89/104/158 91/106/165
f 91/106/165 89/104/158 92/107/160
f 93/109/1 94/108/3 92/107/160
f 94/108/3 77/92/166 92/107/160
f 91/106/165 92/107/160 77/92/166
f 245/324/167 132/325/168 244/323/161
f 244/323/161 132/325/168 131/322/24
f 132/245/168 245/246/167 144/244/46
f 144/244/46 245/246/167 246/247/162
f 206/230/169 167/166/71 155/162/70
f 167/166/71 206/230/169 214/165/73
f 214/165/73 206/230/169 213/160/170
f 216/177/89 215/170/91 178/178/78
f 178/178/78 215/170/91 208/231/171
f 178/178/78 208/231/171 169/169/75
f 206/230/169 155/162/70 207/232/172
f 207/232/172 155/162/70 110/73/68
f 169/169/75 208/231/171 110/73/68
f 110/73/68 208/231/171 207/232/172
f 164/267/173 238/268/174 206/266/169
f 206/266/169 238/268/174 213/269/170
f 208/333/171 215/334/91 170/332/175
f 170/332/175 215/334/91 268/335/176
f 309/443/177 164/161/173 207/232/172
f 207/232/172 164/161/173 206/230/169
f 208/231/171 170/343/175 207/232/172
f 207/232/172 170/343/175 309/443/177
f 164/161/173 309/443/177 163/342/178
f 163/342/178 309/443/177 310/444/179
f 171/171/180 310/444/179 170/343/175
f 170/343/175 310/444/179 309/443/177
f 166/164/151 210/234/181 156/153/64
f 210/270/181 211/271/148 157/273/182
f 157/273/182 211/271/148 239/272/183
f 211/154/148 210/234/181 306/407/146
f 306/407/146 210/234/181 166/164/151
f 60/72/184 162/159/185 310/444/179
f 310/444/179 162/159/185 163/342/178
f 172/172/186 60/72/184 171/171/180
f 171/171/180 60/72/184 310/444/179
f 60/72/184 136/126/187 162/159/185
f 162/159/185 136/126/187 161/158/188
f 173/173/189 312/446/190 172/172/186
f 172/172/186 312/446/190 60/72/184
f 174/174/191 312/446/190 173/173/189
f 176/344/157 219/236/192 282/406/193
f 232/429/194 233/430/195 234/428/196
f 234/428/196 233/430/195 260/431/197
f 261/433/86 260/431/197 235/434/87
f 235/434/87 260/431/197 233/430/195
f 127/254/198 109/255/199 232/257/194
f 232/257/194 109/255/199 233/256/195
f 233/300/195 109/301/199 235/298/87
f 235/298/87 109/301/199 168/299/153
f 217/235/200 177/176/154 168/168/153
f 109/71/199 217/235/200 168/168/153
f 177/176/154 217/235/200 176/344/157
f 176/344/157 217/235/200 219/236/192
f 217/275/200 218/276/201 219/274/192
f 219/274/192 218/276/201 240/277/202
f 59/70/203 318/453/204 28/33/205
f 127/27/198 23/29/206 318/453/204
f 318/453/204 23/29/206 28/33/205
f 312/446/190 174/174/191 59/70/203
f 59/70/203 174/174/191 175/175/207
f 175/175/207 319/454/208 59/70/203
f 319/454/208 318/453/204 59/70/203
f 319/454/208 175/175/207 218/167/201
f 318/453/204 319/454/208 109/71/199
f 319/454/208 218/167/201 109/71/199
f 218/167/201 217/235/200 109/71/199
f 127/27/198 318/453/204 109/71/199
f 205/214/36 108/146/209 41/46/38
f 198/199/34 108/146/209 35/147/32
f 108/146/209 198/199/34 41/46/38
f 41/46/38 198/199/34 196/197/28
f 108/146/209 205/214/36 33/145/51
f 33/145/51 205/214/36 40/45/39
f 35/371/32 108/372/209 264/373/210
f 35/371/32 264/373/210 30/374/33
f 148/375/15 30/374/33 117/378/17
f 117/378/17 30/374/33 264/373/210
f 264/373/210 186/379/98 117/378/17
f 117/378/17 186/379/98 276/380/95
f 140/381/100 186/379/98 264/373/210
f 10/11/211 11/9/212 25/30/213
f 25/30/213 11/9/212 26/31/214
f 314/448/215 159/156/216 160/157/217
f 160/157/217 161/158/188 314/448/215
f 314/448/215 161/158/188 136/126/187
f 26/239/214 153/240/218 25/242/213
f 25/242/213 153/240/218 24/241/219
f 314/448/215 61/74/220 159/156/216
f 159/156/216 61/74/220 158/155/221
f 158/155/221 61/74/220 165/341/222
f 317/452/223 157/340/182 61/74/220
f 61/74/220 157/340/182 165/341/222
f 111/252/66 112/304/224 221/253/65
f 221/253/65 112/304/224 220/306/225
f 209/233/226 112/23/224 111/76/66
f 210/234/181 209/233/226 156/153/64
f 156/153/64 209/233/226 111/76/66
f 157/340/182 317/452/223 210/234/181
f 210/234/181 317/452/223 209/233/226
f 153/192/218 184/183/227 183/137/228
f 152/243/229 153/240/218 315/449/230
f 315/449/230 153/240/218 183/313/228
f 112/23/224 209/233/226 323/459/231
f 323/459/231 209/233/226 316/450/232
f 317/452/223 316/450/232 209/233/226
f 315/449/230 183/313/228 112/304/224
f 24/241/219 153/240/218 152/243/229
f 322/458/233 62/75/234 24/28/219
f 24/28/219 62/75/234 61/74/220
f 317/452/223 61/74/220 316/450/232
f 316/450/232 61/74/220 62/75/234
f 323/459/231 316/450/232 322/458/233
f 322/458/233 316/450/232 62/75/234
f 152/191/229 322/458/233 24/28/219
f 322/458/233 152/191/229 323/459/231
f 323/459/231 152/191/229 315/451/230
f 112/23/224 323/459/231 315/451/230
f 133/58/235 191/189/55 189/188/59
f 191/189/55 133/58/235 190/190/56
f 190/190/56 133/58/235 130/59/58
f 189/188/59 128/40/93 133/58/235
f 262/310/236 133/312/235 128/311/93
f 133/326/235 248/327/237 130/321/58
f 130/321/58 248/327/237 247/318/62
f 133/461/235 262/460/236 248/462/237
f 43/463/238 45/464/239 248/462/237
f 269/465/240 43/463/238 248/462/237
f 248/462/237 262/460/236 269/465/240
f 270/336/241 139/16/242 13/15/243
f 13/15/243 139/16/242 271/337/244
f 126/291/245 127/292/198 234/290/196
f 234/290/196 127/292/198 232/293/194
f 280/369/99 275/351/246 279/370/97
f 279/370/97 275/351/246 274/352/247
f 278/363/96 277/364/94 274/366/247
f 274/366/247 277/364/94 279/365/97
f 278/361/96 274/360/247 182/362/18
f 182/362/18 274/360/247 115/359/88
f 22/24/248 126/26/245 19/22/249
f 22/24/248 21/25/250 126/26/245
f 127/27/198 126/26/245 23/29/206
f 23/29/206 126/26/245 21/25/250
f 7/8/251 17/19/26 114/143/252
f 17/19/26 116/141/27 114/143/252
f 114/143/252 116/141/27 115/142/88
f 7/8/251 18/21/53 17/19/26
f 17/19/26 18/21/53 147/20/37
f 185/184/253 16/17/254 107/124/255
f 107/124/255 16/17/254 15/18/256
f 275/351/246 185/133/253 274/352/247
f 274/352/247 185/133/253 107/185/255
f 324/466/257 7/8/251 114/144/252
f 13/15/243 14/13/258 270/336/241
f 270/336/241 14/13/258 12/14/259
f 14/13/258 325/467/260 12/14/259
f 27/32/261 28/33/205 21/25/250
f 21/25/250 28/33/205 23/29/206
f 28/33/205 27/32/261 59/70/203
f 27/32/261 311/445/262 59/70/203
f 311/445/262 312/446/190 59/70/203
f 311/445/262 8/12/263 312/446/190
f 136/126/187 60/72/184 8/12/263
f 8/12/263 60/72/184 312/446/190
f 9/10/264 11/9/212 10/11/211
f 24/28/219 9/10/264 25/30/213
f 25/30/213 9/10/264 10/11/211
f 314/448/215 136/126/187 313/447/265
f 313/447/265 136/126/187 8/12/263
f 314/448/215 313/447/265 61/74/220
f 24/28/219 61/74/220 9/10/264
f 9/10/264 61/74/220 313/447/265
f 272/338/266 3/2/267 6/7/268
f 6/7/268 3/2/267 2/3/269
f 272/338/266 6/7/268 138/123/270
f 138/123/270 6/7/268 273/339/271
f 5/6/272 187/186/273 188/187/274
f 188/187/274 187/186/273 137/77/275
f 4/4/276 326/468/277 5/6/272
f 5/6/272 326/468/277 187/186/273
f 326/468/278 4/4/279 122/5/280
f 66/82/122 85/100/281 44/51/123
f 85/100/281 71/81/282 44/51/123
f 71/81/282 297/398/130 44/51/123
f 44/51/123 297/398/130 299/399/129
f 81/97/138 302/402/137 71/81/282
f 71/81/282 302/402/137 297/398/130
f 82/96/283 80/95/19 47/49/284
f 47/49/284 80/95/19 48/50/21
f 327/469/285 82/96/283 328/470/286
f 47/49/284 328/470/286 82/96/283
f 82/96/287 327/469/288 121/135/289
f 121/135/289 327/469/288 330/472/290
f 329/471/291 82/96/287 121/135/289
f 82/96/283 329/471/292 84/99/293
f 71/81/282 85/100/281 329/471/292
f 329/471/292 85/100/281 84/99/293
f 330/472/294 327/469/295 120/134/296
f 87/102/297 86/101/120 90/105/298
f 90/105/298 86/101/120 70/83/121
f 86/101/120 87/102/297 66/82/122
f 66/82/122 87/102/297 79/94/299
f 83/98/300 84/99/293 79/94/299
f 85/100/281 66/82/122 84/99/293
f 79/94/299 84/99/293 66/82/122
f 80/95/19 82/96/283 83/98/300
f 83/98/300 82/96/283 84/99/293
f 90/105/298 70/83/121 78/93/301
f 89/104/158 88/103/164 70/83/121
f 70/83/121 88/103/164 78/93/301
f 80/95/19 83/98/300 141/127/20
f 141/127/20 83/98/300 75/90/302
f 307/441/303 76/91/304 91/106/165
f 91/106/165 76/91/304 88/103/164
f 88/103/164 76/91/304 78/93/301
f 76/91/304 75/90/302 78/93/301
f 78/93/301 75/90/302 90/105/298
f 90/105/298 75/90/302 87/102/297
f 75/90/302 83/98/300 87/102/297
f 83/98/300 79/94/299 87/102/297
f 101/116/305 99/114/9 118/132/306
f 118/132/306 99/114/9 119/117/116
f 135/61/163 52/60/307 58/68/48
f 31/34/308 53/62/43 52/60/307
f 52/60/307 53/62/43 58/68/48
f 91/106/165 308/442/309 307/441/303
f 91/106/165 77/92/166 308/442/309
f 308/442/309 77/92/166 64/79/310
f 99/114/9 101/116/305 95/110/4
f 101/116/305 64/79/310 95/110/4
f 95/110/4 64/79/310 94/108/3
f 64/79/310 77/92/166 94/108/3
f 192/193/22 131/56/24 194/195/311
f 194/195/311 131/56/24 132/64/168
f 144/130/46 195/196/312 132/64/168
f 132/64/168 195/196/312 194/195/311
f 144/229/46 145/228/45 195/227/312
f 146/129/313 145/128/45 55/65/41
f 55/65/41 145/128/45 56/66/42
f 331/474/314 195/227/312 146/225/313
f 146/225/313 195/227/312 145/228/45
f 331/474/315 146/225/313 143/224/316
f 143/224/317 332/476/318 142/223/319
f 333/477/320 143/54/317 142/43/319
f 332/475/318 333/477/320 142/43/319
f 256/420/81 225/421/69 253/422/321
f 253/422/321 225/421/69 227/423/72
f 252/438/322 223/437/150 251/414/323
f 251/414/323 223/437/150 222/415/63
f 253/422/321 227/423/72 252/438/322
f 252/438/322 227/423/72 223/437/150
f 250/411/324 221/412/65 249/410/325
f 249/410/325 221/412/65 220/413/225
f 251/414/323 222/415/63 250/411/324
f 250/411/324 222/415/63 221/412/65
f 112/304/224 249/307/325 220/306/225
f 249/295/325 183/331/228 242/296/326
f 183/313/228 249/307/325 112/304/224
f 249/295/325 242/296/326 20/305/327
f 202/205/49 154/204/54 200/217/50
f 200/217/50 154/204/54 125/218/328
f 193/194/23 192/193/22 50/55/329
f 190/190/56 193/194/23 51/57/57
f 51/57/57 193/194/23 50/55/329
f 39/39/60 51/57/57 38/42/330
f 38/42/330 51/57/57 50/55/329
f 54/63/331 194/195/311 331/473/314
f 331/473/314 194/195/311 195/196/312
f 194/195/311 54/63/331 192/193/22
f 192/193/22 54/63/331 50/55/329
f 54/63/331 331/473/315 143/54/316
f 143/54/316 333/477/332 54/63/331
f 54/63/331 333/477/332 49/53/333
f 333/477/332 332/475/334 49/53/333
f 50/55/329 37/41/335 38/42/330
f 37/41/335 50/55/329 49/53/333
f 49/53/333 50/55/329 54/63/331
f 320/455/336 241/211/337 201/210/338
f 203/348/339 263/349/340 241/350/337
f 241/211/337 320/455/336 203/278/339
f 321/456/341 334/478/342 320/457/336
f 320/457/336 334/478/342 203/279/339
f 146/129/313 55/65/41 36/38/343
f 36/38/343 55/65/41 31/34/308
f 55/65/41 53/62/43 31/34/308
f 143/224/316 146/225/313 332/476/344
f 332/476/344 146/225/313 36/226/343
f 320/457/336 201/208/338 321/456/341
f 321/456/341 201/208/338 34/209/345
f 334/478/346 321/456/347 123/212/348
