# This file uses centimeters as units for non-parametric coordinates.

v -0.024783 0.023638 0.085690
v 0.000505 0.026776 0.102621
v 0.026301 0.023638 0.085690
v -0.020707 0.020536 -0.002025
v 0.000635 0.022194 -0.002026
v 0.020777 0.018838 -0.000823
v -0.034931 0.030651 -0.068190
v 0.000702 0.020558 -0.065905
v 0.023158 0.026892 -0.067585
v -0.042923 0.001016 -0.089326
v -0.000412 0.006944 -0.128777
v 0.045269 0.000583 -0.086856
v -0.033667 -0.019275 -0.087278
v 0.000730 -0.048241 -0.094176
v 0.035292 -0.034182 -0.087710
v -0.021117 -0.024212 -0.002026
v 0.000851 -0.025839 -0.002026
v 0.024332 -0.024212 -0.002026
v -0.025531 -0.026963 0.083127
v 0.000505 -0.026079 0.100059
v 0.026998 -0.026963 0.083128
v -0.032139 -0.006023 0.089242
v 0.000505 -0.006023 0.106173
v 0.033148 -0.006023 0.089243
v 0.029636 -0.001147 -0.002026
v -0.026851 -0.001147 -0.002026
v -0.019063 0.018547 -0.051827
v 0.000702 0.021601 -0.051702
v 0.016307 0.015531 -0.048800
v 0.021970 0.000310 -0.060562
v 0.020301 -0.017921 -0.057888
v 0.000702 -0.022258 -0.059339
v -0.019431 -0.019400 -0.059003
v -0.025297 -0.000372 -0.059917
v -0.035048 0.001739 -0.110372
v 0.003991 -0.038007 -0.124380
v 0.027287 0.001332 -0.109453
v -0.003136 0.042432 -0.088872
v -0.024539 0.033381 -0.100303
v -0.025580 -0.029653 -0.120164
v 0.022464 0.028091 -0.100904
v 0.024943 -0.042389 -0.115954
v -0.016974 0.014259 0.062186
v -0.000340 0.018247 0.069993
v 0.018261 0.013928 0.062676
v 0.023960 -0.002720 0.062108
v 0.019338 -0.015821 0.058594
v 0.000620 -0.016849 0.064459
v -0.017673 -0.015976 0.056969
v -0.022934 -0.002544 0.054985
vt 0.524444 0.462575
vt 0.538164 0.452243
vt 0.556219 0.518237
vt 0.536575 0.523080
vt 0.555893 0.453630
vt 0.574120 0.511456
vt 0.550267 0.567027
vt 0.568168 0.562881
vt 0.571510 0.575473
vt 0.555341 0.581098
vt 0.581032 0.555139
vt 0.586330 0.571693
vt 0.564286 0.615196
vt 0.567645 0.607744
vt 0.575206 0.595582
vt 0.585063 0.627892
vt 0.589720 0.601902
vt 0.558133 0.589815
vt 0.570220 0.619891
vt 0.584812 0.619203
vt 0.575047 0.589090
vt 0.593262 0.606531
vt 0.596264 0.583896
vt 0.590004 0.580269
vt 0.592464 0.608637
vt 0.566979 0.559760
vt 0.549186 0.564888
vt 0.584367 0.554786
vt 0.533369 0.513189
vt 0.553175 0.507513
vt 0.537714 0.449910
vt 0.523262 0.461169
vt 0.574569 0.502187
vt 0.555857 0.450937
vt 0.521708 0.437541
vt 0.529866 0.419121
vt 0.528875 0.415156
vt 0.517625 0.434504
vt 0.546303 0.430975
vt 0.548246 0.426329
vt 0.530506 0.420893
vt 0.522613 0.439120
vt 0.546629 0.432708
vt 0.560014 0.449358
vt 0.581053 0.505971
vt 0.587815 0.560923
vt 0.519839 0.466995
vt 0.529598 0.519710
vt 0.545404 0.571458
vt 0.555538 0.597194
vn 0.001012 0.979062 -0.203560
vn 0.048209 0.998674 0.018073
vn -0.632138 0.761051 -0.145614
vn -0.729282 0.682930 0.041881
vn 0.536406 0.830579 -0.149687
vn 0.706652 0.707505 0.008969
vn 0.112082 0.992800 -0.042249
vn 0.044652 0.923244 0.381612
vn -0.530175 0.829863 0.173901
vn -0.583816 0.658753 0.474555
vn 0.596522 0.798966 0.076263
vn 0.545889 0.695645 0.466994
vn -0.827121 0.059626 -0.558852
vn -0.585522 0.661345 -0.468814
vn 0.028968 0.375277 -0.926460
vn 0.061235 0.998113 0.004617
vn 0.610458 0.658539 -0.440078
vn -0.776581 -0.603970 0.179284
vn -0.653716 -0.486103 -0.579965
vn -0.179351 -0.975022 0.131014
vn 0.109022 -0.479417 -0.870789
vn 0.978842 0.146056 0.143303
vn 0.718854 -0.669584 0.186833
vn 0.701806 0.096468 -0.705806
vn 0.579480 -0.629210 -0.517975
vn -0.034644 -0.957345 0.286863
vn -0.641239 -0.765295 0.056005
vn 0.738429 -0.626962 0.248278
vn -0.730757 -0.681382 0.041380
vn 0.008064 -0.999559 0.028582
vn -0.586200 -0.800043 -0.127673
vn 0.004618 -0.985659 -0.168684
vn 0.650383 -0.759497 0.012933
vn 0.616987 -0.784162 -0.066456
vn -0.414055 -0.907853 -0.066049
vn -0.000287 -0.751971 0.659196
vn -0.964468 -0.080859 0.251524
vn -0.001365 0.015592 0.999878
vn 0.606710 -0.777071 -0.167523
vn 0.859973 -0.111242 0.498067
vn -0.612373 0.760095 0.217381
vn -0.002106 0.879083 0.476663
vn 0.721873 0.687133 0.082149
vn 0.980137 0.071589 -0.184948
vn 0.998469 0.048770 -0.026085
vn 0.940860 0.117128 0.317904
vn -0.999620 -0.000193 -0.027558
vn -0.999883 0.015224 -0.001583
vn -0.922418 -0.129069 0.363986
vn -0.999629 -0.017323 0.020998
f 44/2/1 5/3/2 43/1/3
f 43/1/3 5/3/2 4/4/4
f 44/2/1 45/5/5 5/3/2
f 5/3/2 45/5/5 6/6/6
f 28/8/7 8/9/8 27/7/9
f 27/7/9 8/9/8 7/10/10
f 28/8/7 29/11/11 8/9/8
f 8/9/8 29/11/11 9/12/12
f 35/13/13 39/14/14 11/16/15
f 11/16/15 39/14/14 38/15/16
f 8/9/8 9/12/12 38/15/16
f 38/15/16 9/12/12 41/17/17
f 13/18/18 40/19/19 14/21/20
f 14/21/20 40/19/19 36/20/21
f 12/23/22 15/24/23 37/22/24
f 37/22/24 15/24/23 42/25/25
f 14/21/20 32/26/26 13/18/18
f 13/18/18 32/26/26 33/27/27
f 14/21/20 15/24/23 32/26/26
f 32/26/26 15/24/23 31/28/28
f 16/29/29 17/30/30 49/32/31
f 49/32/31 17/30/30 48/31/32
f 18/33/33 47/34/34 17/30/30
f 17/30/30 47/34/34 48/31/32
f 19/35/35 20/36/36 22/38/37
f 22/38/37 20/36/36 23/37/38
f 21/39/39 24/40/40 20/36/36
f 20/36/36 24/40/40 23/37/38
f 22/38/37 23/37/38 1/42/41
f 1/42/41 23/37/38 2/41/42
f 24/40/40 3/43/43 23/37/38
f 23/37/38 3/43/43 2/41/42
f 46/44/44 47/34/34 25/45/45
f 25/45/45 47/34/34 18/33/33
f 45/5/5 46/44/44 6/6/6
f 6/6/6 46/44/44 25/45/45
f 30/46/46 31/28/28 12/23/22
f 12/23/22 31/28/28 15/24/23
f 29/11/11 30/46/46 9/12/12
f 9/12/12 30/46/46 12/23/22
f 49/32/31 50/47/47 16/29/29
f 16/29/29 50/47/47 26/48/48
f 43/1/3 4/4/4 50/47/47
f 50/47/47 4/4/4 26/48/48
f 33/27/27 34/49/49 13/18/18
f 13/18/18 34/49/49 10/50/50
f 27/7/9 7/10/10 34/49/49
f 34/49/49 7/10/10 10/50/50
f 4/4/4 5/3/2 27/7/9
f 27/7/9 5/3/2 28/8/7
f 6/6/6 29/11/11 5/3/2
f 5/3/2 29/11/11 28/8/7
f 6/6/6 25/45/45 29/11/11
f 29/11/11 25/45/45 30/46/46
f 18/33/33 31/28/28 25/45/45
f 25/45/45 31/28/28 30/46/46
f 32/26/26 31/28/28 17/30/30
f 17/30/30 31/28/28 18/33/33
f 32/26/26 17/30/30 33/27/27
f 33/27/27 17/30/30 16/29/29
f 16/29/29 26/48/48 33/27/27
f 33/27/27 26/48/48 34/49/49
f 4/4/4 27/7/9 26/48/48
f 26/48/48 27/7/9 34/49/49
f 35/13/13 11/16/15 40/19/19
f 40/19/19 11/16/15 36/20/21
f 11/16/15 37/22/24 36/20/21
f 36/20/21 37/22/24 42/25/25
f 38/15/16 41/17/17 11/16/15
f 11/16/15 41/17/17 37/22/24
f 7/10/10 39/14/14 10/50/50
f 10/50/50 39/14/14 35/13/13
f 8/9/8 38/15/16 7/10/10
f 7/10/10 38/15/16 39/14/14
f 10/50/50 35/13/13 13/18/18
f 13/18/18 35/13/13 40/19/19
f 9/12/12 12/23/22 41/17/17
f 41/17/17 12/23/22 37/22/24
f 15/24/23 14/21/20 42/25/25
f 42/25/25 14/21/20 36/20/21
f 2/41/42 44/2/1 1/42/41
f 1/42/41 44/2/1 43/1/3
f 2/41/42 3/43/43 44/2/1
f 44/2/1 3/43/43 45/5/5
f 24/40/40 46/44/44 3/43/43
f 3/43/43 46/44/44 45/5/5
f 24/40/40 21/39/39 46/44/44
f 46/44/44 21/39/39 47/34/34
f 47/34/34 21/39/39 48/31/32
f 48/31/32 21/39/39 20/36/36
f 49/32/31 48/31/32 19/35/35
f 19/35/35 48/31/32 20/36/36
f 19/35/35 22/38/37 49/32/31
f 49/32/31 22/38/37 50/47/47
f 1/42/41 43/1/3 22/38/37
f 22/38/37 43/1/3 50/47/47
