# This file uses centimeters as units for non-parametric coordinates.

v -0.018531 0.041809 0.053338
v -0.007457 0.042215 0.053338
v 0.005904 0.025269 0.053483
v -0.031170 0.041640 -0.054395
v -0.015405 0.051302 -0.043971
v 0.000193 0.052674 -0.068018
v -0.013538 0.046763 -0.125693
v 0.006463 0.020818 -0.073917
v -0.034011 0.000561 -0.061381
v -0.014441 -0.007075 -0.054536
v -0.000133 0.002956 -0.062011
v -0.030423 -0.002473 0.045230
v -0.014076 -0.018538 0.045230
v 0.001047 -0.022639 0.057049
v 0.011866 0.010675 0.057128
v -0.009831 0.017942 0.081104
v -0.048255 0.007168 -0.123026
v -0.030004 0.050231 -0.096944
v -0.014861 0.058176 -0.078984
v 0.000830 0.052630 -0.093664
v 0.031004 0.027343 -0.112425
v 0.013704 0.014716 -0.128795
v -0.016950 0.016118 -0.139151
v -0.013876 -0.011257 0.071070
v -0.033071 -0.001965 0.071045
v -0.033602 0.021760 0.071253
v -0.019389 0.040905 0.071212
v -0.007107 0.042468 0.071193
v 0.010625 0.032830 0.071245
v 0.013394 0.013467 0.071264
v 0.002545 -0.008128 0.071203
v -0.025905 0.041427 0.064579
v -0.037438 0.022395 0.066227
v -0.039044 0.003054 0.065948
v -0.030774 0.004784 0.048337
v -0.036156 0.017787 -0.061245
v -0.062452 -0.006096 -0.110874
v -0.059889 0.023801 -0.118546
v -0.030897 0.043309 -0.097056
v -0.031735 0.037093 -0.054390
v -0.020327 0.037668 0.053347
v -0.035275 0.016562 -0.036489
v -0.033273 0.000358 -0.037344
v -0.014769 -0.008716 -0.042392
v 0.000944 0.001874 -0.039548
v 0.005237 0.028318 -0.045385
v -0.000725 0.038928 -0.031346
v -0.015912 0.050110 -0.031540
v -0.030344 0.040946 -0.028836
v -0.031002 0.036162 -0.029008
v -0.058115 -0.025461 -0.112449
v -0.014074 -0.035846 -0.118732
v 0.025798 -0.019365 -0.115770
v 0.005264 0.021803 -0.090821
vt 0.645235 0.210487
vt 0.644421 0.212821
vt 0.618892 0.295830
vt 0.617141 0.286237
vt 0.634205 0.209790
vt 0.610815 0.296464
vt 0.591049 0.336545
vt 0.567129 0.360385
vt 0.559509 0.342552
vt 0.587357 0.334122
vt 0.600846 0.327893
vt 0.590173 0.341902
vt 0.545335 0.361102
vt 0.548227 0.341847
vt 0.547615 0.354847
vt 0.562787 0.259129
vt 0.554037 0.265213
vt 0.594765 0.197080
vt 0.604713 0.199060
vt 0.559053 0.271193
vt 0.602437 0.189303
vt 0.619330 0.202322
vt 0.582998 0.289944
vt 0.609907 0.198820
vt 0.572118 0.263262
vt 0.643181 0.208756
vt 0.614577 0.284591
vt 0.632524 0.191111
vt 0.622088 0.184763
vt 0.621141 0.179622
vt 0.634005 0.187212
vt 0.643516 0.195240
vt 0.643686 0.197214
vt 0.615214 0.178857
vt 0.616138 0.181747
vt 0.634669 0.180697
vt 0.627149 0.190060
vt 0.637615 0.196088
vt 0.546530 0.325947
vt 0.560273 0.347095
vt 0.641483 0.200108
vt 0.562797 0.284066
vt 0.528779 0.316147
vt 0.553192 0.279009
vt 0.607268 0.307507
vt 0.604886 0.305825
vt 0.614457 0.306647
vt 0.601148 0.320610
vt 0.565824 0.327881
vt 0.571940 0.313983
vt 0.527824 0.329023
vt 0.550751 0.289643
vt 0.519135 0.322220
vt 0.549979 0.275885
vn -0.367890 0.927959 -0.059580
vn 0.327345 0.943747 -0.046760
vn -0.713118 0.692380 0.109878
vn 0.047345 0.995009 0.087836
vn 0.889529 0.419386 -0.181256
vn 0.814981 0.579247 0.016701
vn -0.636153 0.633283 -0.440752
vn -0.129736 0.708485 -0.693698
vn -0.738506 0.556602 -0.380530
vn -0.495505 0.336430 -0.800806
vn -0.046403 0.970077 -0.238323
vn 0.297831 0.906386 -0.299601
vn -0.106287 0.409703 -0.906006
vn -0.439797 0.120556 -0.889969
vn 0.371843 0.397266 -0.838995
vn 0.063593 -0.991709 -0.111670
vn -0.338217 -0.941065 0.002490
vn -0.780796 -0.624332 -0.023834
vn -0.860145 -0.508922 -0.033900
vn 0.721208 -0.675591 -0.153087
vn 0.419799 -0.876969 0.233866
vn 0.999771 -0.009223 -0.019312
vn 0.987678 0.151883 -0.037731
vn -0.981267 0.033824 -0.189660
vn -0.994747 -0.095518 0.036809
vn -0.947636 0.306350 -0.090195
vn -0.983468 0.130933 0.125086
vn -0.750269 0.264286 0.606011
vn -0.938386 -0.194871 0.285406
vn -0.604325 0.207394 0.769272
vn -0.568617 -0.512733 0.643257
vn -0.263952 0.740488 0.618067
vn 0.111907 0.883609 0.454656
vn -0.298489 -0.748178 0.592565
vn 0.571164 -0.474872 0.669528
vn 0.010880 0.027922 0.999551
vn 0.933141 -0.026562 0.358529
vn 0.769942 0.560458 0.305085
vn -0.549080 -0.163242 -0.819672
vn 0.463284 0.653941 -0.598105
vn -0.905220 0.081207 -0.417111
vn -0.810878 0.276890 -0.515567
vn -0.948364 0.231952 -0.216344
vn -0.864345 0.361447 -0.349662
vn -0.753503 0.412265 -0.512124
vn -0.855232 -0.110515 0.506325
vn -0.979886 -0.175072 0.095780
vn -0.635227 -0.564835 0.526733
vn -0.744009 -0.592534 -0.308796
vn -0.860796 0.502942 0.077970
vn -0.992064 0.125726 -0.001417
vn -0.860950 0.502555 0.078768
vn -0.992350 0.123451 -0.001508
vn -0.205270 0.960973 0.185459
vn -0.174464 0.975106 0.136860
vn 0.589240 0.803418 0.085532
vn 0.876805 0.480700 -0.011898
vn 0.959689 -0.071344 0.271860
vn 0.998746 -0.024532 -0.043645
vn 0.978899 -0.204227 0.006905
vn 0.816731 -0.487891 0.308079
vn 0.064736 -0.910195 -0.409089
vn 0.121891 -0.905474 0.406521
vn -0.653309 0.717542 0.241497
vn -0.884517 0.331393 0.328341
vn -0.947157 0.306897 0.093318
vn -0.977450 0.208860 0.031127
vn -0.685706 -0.726941 -0.036934
vn -0.991858 -0.123939 0.029292
vn -0.893419 -0.448607 0.023566
vn -0.991885 -0.123747 0.029167
vn 0.082682 -0.993110 -0.083042
vn 0.060227 -0.989409 -0.132068
vn 0.888930 -0.458035 -0.002926
vn 0.753125 -0.653262 -0.077792
vn 0.998513 0.019669 0.050852
vn 0.997650 -0.042206 0.053976
vn 0.688411 0.696444 0.202620
vn 0.851391 0.496650 0.168737
vn 0.037344 0.994597 0.096867
vn -0.014908 0.987592 0.156330
vn -0.842133 0.537248 0.046659
vn -0.846007 0.531533 0.041772
vn -0.990255 0.135166 0.033551
vn -0.991007 0.129292 0.034478
vn -0.391705 -0.232573 -0.890212
vn -0.029672 -0.366989 -0.929752
vn 0.699244 -0.440130 -0.563332
vn 0.629735 -0.446153 0.635910
vn 0.614245 0.159627 0.772801
vn -0.978933 0.197252 0.052742
vn -0.971738 0.223076 0.077219
vn -0.676378 0.236948 0.697402
vn -0.795049 0.374315 0.477269
f 1/1/1 2/2/2 49/4/3
f 49/4/3 2/2/2 48/3/4
f 3/5/5 47/6/6 2/2/2
f 2/2/2 47/6/6 48/3/4
f 18/7/7 7/8/8 39/10/9
f 39/10/9 7/8/8 38/9/10
f 19/11/11 20/12/12 7/8/8
f 23/13/13 17/14/14 7/8/8
f 7/8/8 22/15/15 23/13/13
f 44/17/16 13/18/17 43/16/18
f 43/16/18 13/18/17 12/19/19
f 44/17/16 45/20/20 13/18/17
f 13/18/17 45/20/20 14/21/21
f 14/21/21 45/20/20 15/22/22
f 15/22/22 45/20/20 46/23/23
f 3/5/5 15/22/22 47/6/6
f 47/6/6 15/22/22 46/23/23
f 35/24/24 42/25/25 12/19/19
f 12/19/19 42/25/25 43/16/18
f 1/1/1 49/4/3 41/26/26
f 41/26/26 49/4/3 50/27/27
f 33/28/28 34/29/29 26/31/30
f 26/31/30 34/29/29 25/30/31
f 27/32/32 28/33/33 1/1/1
f 1/1/1 28/33/33 2/2/2
f 24/34/34 31/35/35 16/36/36
f 15/22/22 3/5/5 30/37/37
f 30/37/37 3/5/5 29/38/38
f 7/8/8 17/14/14 38/9/10
f 38/9/10 17/14/14 37/39/39
f 7/8/8 21/40/40 22/15/15
f 18/7/7 19/11/11 7/8/8
f 7/8/8 20/12/12 21/40/40
f 34/29/41 33/28/42 35/24/43
f 35/24/43 33/28/42 41/26/44
f 32/41/45 41/26/44 33/28/42
f 3/5/5 2/2/2 29/38/38
f 29/38/38 2/2/2 28/33/33
f 14/21/21 15/22/22 31/35/35
f 31/35/35 15/22/22 30/37/37
f 13/18/17 24/34/34 12/19/19
f 12/19/19 24/34/34 25/30/31
f 36/42/46 37/39/47 9/44/48
f 9/44/48 37/39/47 51/43/49
f 18/7/50 39/10/51 4/45/52
f 4/45/52 39/10/51 40/46/53
f 5/47/54 19/11/55 4/45/52
f 4/45/52 19/11/55 18/7/50
f 5/47/54 6/48/56 19/11/55
f 19/11/55 6/48/56 20/12/57
f 54/49/58 20/12/57 8/50/59
f 8/50/59 20/12/57 6/48/56
f 53/51/60 54/49/58 11/52/61
f 11/52/61 54/49/58 8/50/59
f 53/51/60 11/52/61 52/53/62
f 52/53/62 11/52/61 10/54/63
f 51/43/49 52/53/62 9/44/48
f 9/44/48 52/53/62 10/54/63
f 24/34/34 16/36/36 25/30/31
f 26/31/30 25/30/31 16/36/36
f 27/32/32 26/31/30 16/36/36
f 28/33/33 27/32/32 16/36/36
f 16/36/36 29/38/38 28/33/33
f 16/36/36 30/37/37 29/38/38
f 31/35/35 30/37/37 16/36/36
f 31/35/35 24/34/34 14/21/21
f 14/21/21 24/34/34 13/18/17
f 25/30/31 34/29/29 12/19/19
f 12/19/19 34/29/29 35/24/24
f 27/32/32 32/41/64 26/31/30
f 26/31/30 32/41/64 33/28/28
f 39/10/65 36/42/66 40/46/67
f 41/26/26 32/41/64 1/1/1
f 1/1/1 32/41/64 27/32/32
f 43/16/68 42/25/69 9/44/70
f 9/44/70 42/25/69 36/42/71
f 9/44/70 10/54/72 43/16/68
f 43/16/68 10/54/72 44/17/73
f 11/52/74 45/20/75 10/54/72
f 10/54/72 45/20/75 44/17/73
f 45/20/75 11/52/74 46/23/76
f 46/23/76 11/52/74 8/50/77
f 47/6/78 46/23/76 6/48/79
f 6/48/79 46/23/76 8/50/77
f 48/3/80 47/6/78 5/47/81
f 5/47/81 47/6/78 6/48/79
f 48/3/80 5/47/81 49/4/82
f 49/4/82 5/47/81 4/45/83
f 50/27/84 49/4/82 40/46/85
f 40/46/85 49/4/82 4/45/83
f 51/43/49 37/39/47 17/14/86
f 51/43/49 17/14/86 52/53/62
f 52/53/62 17/14/86 23/13/87
f 23/13/87 22/15/88 52/53/62
f 52/53/62 22/15/88 53/51/60
f 21/40/89 54/49/58 22/15/88
f 22/15/88 54/49/58 53/51/60
f 21/40/89 20/12/90 54/49/58
f 36/42/66 42/25/91 40/46/67
f 40/46/67 42/25/91 50/27/92
f 38/9/93 37/39/94 39/10/65
f 39/10/65 37/39/94 36/42/66
f 42/25/91 35/24/43 50/27/92
f 50/27/92 35/24/43 41/26/44
