# This file uses centimeters as units for non-parametric coordinates.

v -4.435530 3.708054 -0.889000
v -4.437191 3.707542 -2.221333
v -1.825421 3.707813 -2.206489
v -1.923696 3.708282 -0.888817
v 0.942936 3.708483 -0.811540
v 0.930498 3.707951 -2.186880
v 3.737465 3.707203 -2.044885
v 3.742975 3.707811 -0.712825
v 3.660351 2.332941 -0.736092
v 3.254294 2.338593 -0.935622
v 3.199181 2.679602 -0.886814
v 2.935550 3.044671 -0.845335
v 2.677256 3.233769 -0.840659
v 2.196590 3.279656 -0.916416
v 1.814450 3.248156 -0.840600
v 1.600937 3.069705 -0.816085
v 1.438364 2.787796 -0.859411
v 1.388590 2.568052 -0.779460
v 0.927487 2.573178 -0.788481
v 0.398294 2.573872 -0.798021
v 0.383128 2.809063 -0.783014
v 0.239293 3.122527 -0.798214
v 0.045424 3.291939 -0.804537
v -0.314098 3.462420 -0.812542
v -0.829125 3.423538 -0.829334
v -1.151245 3.235837 -0.849006
v -1.295300 3.036026 -0.858402
v -1.387331 2.799765 -0.856266
v -1.399784 2.521998 -0.956911
v -1.843150 2.521867 -0.928877
v -2.285505 2.536765 -0.958784
v -2.334230 2.805385 -0.958053
v -2.451015 3.063055 -0.940691
v -2.633522 3.260246 -0.927003
v -2.824878 3.362695 -0.912173
v -3.103862 3.451588 -0.903669
v -3.442059 3.382168 -0.918658
v -3.731873 3.177613 -0.940823
v -3.889085 2.977525 -0.961198
v -4.027340 2.673904 -0.984847
v -4.025002 2.471023 -1.040494
v -4.430716 2.424697 -1.044202
v -4.030235 2.453104 -0.998065
v -4.541100 2.411167 -1.006763
v 3.723503 2.268760 -0.762934
v 3.249117 2.256255 -0.885557
v 3.199281 2.246194 -1.961023
v 3.275083 2.234547 -1.949633
v 3.181849 2.701268 -1.834628
v 7.057493 3.706594 -2.196665
v 7.039994 3.707020 -0.849403
v 7.028223 3.707323 1.000720
v 3.740591 3.707685 0.999554
v 7.031384 2.415539 1.001949
v 3.751544 2.425773 0.998831
v 3.732008 3.706455 -3.939860
v 5.432730 3.706390 -3.911348
v 5.449753 3.706824 -2.653700
v 5.472387 3.676028 -3.877452
v 7.166503 3.706004 -3.881573
v 3.721015 2.427396 -1.970487
v 3.730545 2.425240 -3.839710
v 3.740289 2.356596 0.405029
v 5.446816 3.052697 -2.636834
v 5.636036 3.031899 -3.640076
v 1.604186 2.565837 -0.567090
v 0.931874 2.556473 -0.578755
v 1.315064 2.473936 -1.587575
v 1.527340 2.507363 -1.720100
v -1.238226 2.551835 -0.741735
v -1.838039 2.535525 -0.716523
v 0.224072 2.543266 -0.655810
v 0.292033 2.503229 -1.785060
v 0.543738 2.590144 -1.710163
v -2.539261 2.562510 -0.773222
v -2.415601 2.556896 -2.015398
v -2.333343 2.590117 -1.876364
v -1.313319 2.526794 -1.874380
v -1.110050 2.531077 -2.101370
v -7.733775 3.707944 -0.927885
v -7.542614 3.707958 -2.004509
v -7.509298 3.707335 -4.045626
v -6.010538 3.707206 -3.962252
v -6.017182 3.707590 -2.296814
v -5.954283 3.676682 -3.967956
v -4.442803 3.707571 -3.897340
v -4.435501 2.489263 -3.820663
v -4.431989 2.564043 -2.079126
v -3.899621 2.405082 -2.104005
v -3.926210 2.417057 -2.122216
v -3.899010 2.628724 -2.118567
v -3.799717 2.910070 -2.037608
v -4.432755 2.438262 0.765367
v -4.431066 3.708162 0.765405
v -7.836702 3.708248 0.765369
v -7.835209 2.422433 0.765428
v -7.618997 3.708005 -1.501867
v -4.448023 3.707819 -1.526362
v -1.874895 3.708206 -1.524469
v 0.932450 3.708249 -1.464493
v 3.739712 3.707430 -1.478970
v 6.959254 3.706991 -1.402159
v -6.022054 2.961326 -4.087910
v -7.836906 3.708011 -0.943315
v -7.838603 3.708118 -1.534346
v -7.839513 3.707961 -1.583458
v -7.839192 3.708016 -2.023513
v -7.841425 3.707360 -4.073721
v 7.313312 3.705919 -3.864163
v 7.316463 3.706649 -2.193365
v 7.319311 3.707000 -1.525318
v 7.318925 2.557660 -1.451632
v 7.018127 2.586116 -1.443775
v 7.317901 3.706683 -1.357159
v 7.319042 3.707102 -0.851669
v 7.319264 3.707295 1.001030
v 7.316705 2.455488 1.001664
v 5.447846 3.706944 -2.078296
v 5.447710 3.707297 -1.425858
v 5.448539 3.707467 -0.776208
v 5.430652 3.707488 1.000672
v 5.424717 2.431664 1.001351
v -6.016299 3.707830 -2.075663
v -6.031338 3.707869 -1.528937
v -6.036681 3.708006 -0.905873
v -6.153497 3.708461 0.765424
v -6.156806 2.457662 0.765454
v 2.262584 3.708070 -0.761503
v 2.260177 3.707790 -1.474388
v 2.341281 3.707529 -2.154103
v -3.197391 3.708168 -0.866550
v -3.161460 3.708013 -1.525410
v -3.125048 3.707677 -2.213911
v 3.733118 2.335943 -0.664456
v 0.981657 3.708231 -1.464860
v 1.020225 3.707924 -2.184662
v 0.955335 3.682726 -1.452748
v 0.971201 3.655728 -2.156928
v -1.911257 3.708201 -1.524495
v -1.883706 3.707808 -2.206822
v -1.894240 3.685953 -1.518429
v -1.856969 3.685461 -2.195030
v -0.532457 3.708382 -0.871883
v -0.471222 3.708228 -1.494481
v -0.404928 3.707883 -2.196685
v 2.931643 3.017572 -1.787298
v 2.746614 3.182143 -1.728574
v 2.206386 3.246775 -1.655321
v 1.814571 3.205833 -1.601812
v 1.613608 3.086690 -1.617609
v 1.516317 2.865670 -1.658612
v 0.383128 2.809063 -1.716770
v 0.239292 3.122527 -1.731969
v 0.045424 3.291939 -1.738283
v -0.314098 3.462420 -1.746289
v -0.829125 3.423538 -1.763088
v -1.151244 3.235837 -1.782770
v -1.295299 3.036026 -1.792159
v -1.387331 2.799765 -1.790015
v -2.342365 2.802410 -1.751304
v -2.471338 3.044794 -1.750960
v -2.596892 3.221727 -1.827620
v -2.880072 3.381227 -1.751123
v -3.085621 3.407140 -1.747264
v -3.372148 3.348660 -1.845244
v -3.650854 3.168497 -1.921077
v -7.595965 2.187078 -4.153063
v -7.833715 2.379727 -1.076920
v -7.835418 2.391910 -1.570894
v -7.781672 2.379015 -1.635472
v -7.836328 2.374104 -1.649083
v -7.836007 2.380439 -2.157118
v -7.839722 2.189890 -4.181159
v -5.459311 2.610761 -4.030427
v -5.930965 3.032654 -2.241046
v -6.136787 2.850663 -2.588743
v 0.930499 3.167995 -2.186880
v 0.971201 3.108530 -2.156928
v -3.125047 3.580993 -2.213911
v -1.883706 3.279469 -2.206822
v 1.020225 3.164759 -2.184662
v 2.535441 3.425897 -2.154103
v -1.856969 3.257217 -2.195030
v -1.825421 3.280157 -2.206490
v -0.404928 3.532963 -2.196685
v 7.317904 2.550585 -1.376474
v 7.313102 2.472155 -0.816790
v 5.478192 2.579483 -3.884415
v 7.310273 2.609212 -2.137712
v 7.313942 2.514790 -3.847138
v -5.897931 3.707865 -1.528712
v -4.580824 3.707823 -1.526567
v -5.932938 3.708044 -1.550344
v -4.559473 3.707949 -1.589779
v -5.918377 3.656222 -1.550536
v -4.537003 3.649121 -1.566973
v -3.596828 3.297965 -0.930080
v -3.516695 3.279933 -1.883099
v -3.268848 3.430202 -0.910622
v -3.237120 3.388690 -1.796300
v -2.978475 3.422397 -0.907241
v -2.973138 3.402155 -1.749222
v -2.718844 3.318719 -0.919739
v -2.733847 3.310512 -1.789615
v -2.541988 3.167536 -0.933438
v -2.526065 3.137781 -1.794634
v -0.576465 3.463241 -0.821096
v -0.551262 3.465144 -1.754025
v -1.017174 3.347377 -0.840323
v -0.990666 3.362823 -1.772463
v -0.107157 3.386621 -0.808208
v -0.106810 3.386456 -1.741947
v 0.139462 3.221569 -0.801603
v 0.147967 3.214137 -1.735077
v 0.313813 2.995780 -0.792068
v 0.322874 2.976033 -1.724866
v 1.991528 3.273526 -0.875732
v 2.023735 3.237435 -1.630377
v 2.401583 3.272127 -0.884107
v 2.482356 3.225799 -1.692742
v 1.707131 3.176677 -0.828932
v 1.699650 3.153549 -1.610398
v 2.827704 3.141685 -0.843162
v 2.843395 3.116045 -1.755409
v 3.065710 2.881604 -0.863863
v 3.066823 2.862360 -1.810523
vt 0.441128 0.693217
vt 0.443151 0.712341
vt 0.441779 0.712325
vt 0.689150 0.689927
vt 0.766775 0.686834
vt 0.759359 0.706342
vt 0.678088 0.709589
vt 0.521994 0.693561
vt 0.602860 0.693905
vt 0.600371 0.712481
vt 0.521761 0.712411
vt 0.729791 0.612228
vt 0.732184 0.580119
vt 0.757661 0.578961
vt 0.575843 0.602217
vt 0.577466 0.585890
vt 0.599883 0.584515
vt 0.528844 0.660162
vt 0.556937 0.648089
vt 0.471631 0.608507
vt 0.477532 0.624505
vt 0.487970 0.642861
vt 0.415450 0.610651
vt 0.416119 0.585732
vt 0.443040 0.583209
vt 0.382750 0.658393
vt 0.394820 0.649915
vt 0.278451 0.693186
vt 0.312124 0.608882
vt 0.316829 0.626566
vt 0.283979 0.586944
vt 0.283374 0.582018
vt 0.310355 0.581493
vt 0.309115 0.588026
vt 0.731211 0.574075
vt 0.761484 0.574301
vt 0.720824 0.614591
vt 0.718998 0.615163
vt 0.732146 0.597596
vt 0.728550 0.597512
vt 0.728587 0.597094
vt 0.732168 0.597344
vt 0.843384 0.685739
vt 0.832785 0.707255
vt 0.791557 0.621780
vt 0.877365 0.616783
vt 0.787297 0.506261
vt 0.868902 0.504815
vt 0.778547 0.530834
vt 0.823754 0.725661
vt 0.816768 0.737989
vt 0.799354 0.770877
vt 0.744200 0.744322
vt 0.751491 0.722915
vt 0.749531 0.723565
vt 0.744730 0.726282
vt 0.761648 0.582013
vt 0.808737 0.768696
vt 0.806099 0.761667
vt 0.813197 0.739188
vt 0.600573 0.577254
vt 0.642462 0.578314
vt 0.628565 0.585504
vt 0.637329 0.617856
vt 0.632092 0.606388
vt 0.443271 0.580108
vt 0.479422 0.579172
vt 0.469020 0.582909
vt 0.565701 0.581079
vt 0.569416 0.617156
vt 0.565904 0.616403
vt 0.403590 0.581959
vt 0.411780 0.607362
vt 0.406079 0.615132
vt 0.480268 0.612616
vt 0.474913 0.613485
vt 0.206375 0.713517
vt 0.142939 0.712301
vt 0.126429 0.693395
vt 0.195721 0.691168
vt 0.213707 0.730873
vt 0.217200 0.734539
vt 0.233556 0.775252
vt 0.185973 0.776617
vt 0.157326 0.730889
vt 0.290192 0.729461
vt 0.305710 0.730888
vt 0.307586 0.736354
vt 0.305564 0.776257
vt 0.320610 0.614676
vt 0.317316 0.614058
vt 0.316714 0.617235
vt 0.318305 0.625195
vt 0.255800 0.628815
vt 0.262622 0.514470
vt 0.083136 0.632419
vt 0.165795 0.631499
vt 0.094417 0.515788
vt 0.177232 0.513008
vt 0.444859 0.729378
vt 0.443865 0.726196
vt 0.597405 0.731401
vt 0.521132 0.730390
vt 0.673445 0.725902
vt 0.227030 0.742728
vt 0.243471 0.757788
vt 0.129804 0.712406
vt 0.118963 0.694008
vt 0.146628 0.731164
vt 0.132770 0.708890
vt 0.173195 0.775733
vt 0.888159 0.726387
vt 0.896562 0.726232
vt 0.872601 0.767642
vt 0.864985 0.768867
vt 0.900579 0.706786
vt 0.908638 0.706654
vt 0.918519 0.673174
vt 0.926343 0.675869
vt 0.913008 0.687174
vt 0.920060 0.688820
vt 0.912838 0.701397
vt 0.952281 0.619016
vt 0.960498 0.618580
vt 0.948851 0.505029
vt 0.951445 0.510196
vt 0.239574 0.778112
vt 0.279684 0.715444
vt 0.282918 0.711439
vt 0.276806 0.711604
vt 0.571927 0.620021
vt 0.630676 0.608160
vt 0.640332 0.632364
vt 0.658792 0.650380
vt 0.603251 0.712374
vt 0.602998 0.730359
vt 0.680802 0.655680
vt 0.704231 0.650380
vt 0.718431 0.635543
vt 0.411261 0.623584
vt 0.361745 0.665541
vt 0.355344 0.692513
vt 0.359311 0.711365
vt 0.363118 0.728717
vt 0.340716 0.658859
vt 0.325604 0.642421
vt 0.601811 0.712427
vt 0.600441 0.727643
vt 0.440781 0.712314
vt 0.441194 0.726732
vt 0.504237 0.656739
vt 0.732037 0.598833
vt 0.728447 0.598685
vt 0.731930 0.600051
vt 0.728371 0.599548
vt 0.731571 0.604123
vt 0.727986 0.603923
vt 0.728148 0.602084
vt 0.731729 0.602333
vt 0.731483 0.605126
vt 0.727902 0.604875
vt 0.731414 0.605902
vt 0.727861 0.605341
vt 0.473798 0.589814
vt 0.473994 0.595956
vt 0.473579 0.595956
vt 0.473591 0.589813
vt 0.474278 0.589814
vt 0.474458 0.595956
vt 0.475137 0.589814
vt 0.475316 0.595956
vt 0.476368 0.589813
vt 0.476547 0.595956
vt 0.477139 0.589813
vt 0.477319 0.595956
vt 0.477672 0.589813
vt 0.477625 0.595956
vt 0.477842 0.589813
vt 0.477883 0.595956
vt 0.732163 0.600775
vt 0.728797 0.600390
vt 0.728808 0.600184
vt 0.732173 0.600591
vt 0.732146 0.601063
vt 0.728783 0.600639
vt 0.732130 0.601364
vt 0.728757 0.601110
vt 0.732105 0.601803
vt 0.728737 0.601464
vt 0.732076 0.602337
vt 0.728710 0.601958
vt 0.732050 0.602795
vt 0.728683 0.602439
vt 0.731351 0.606616
vt 0.727778 0.606279
vt 0.473214 0.595956
vt 0.473419 0.589813
vt 0.478256 0.589813
vt 0.478330 0.595956
vt 0.728821 0.599961
vt 0.732184 0.600399
vt 0.732036 0.603043
vt 0.728668 0.602696
vt 0.411857 0.596372
vt 0.407386 0.594525
vt 0.406554 0.590792
vt 0.412722 0.593642
vt 0.572485 0.592760
vt 0.568261 0.592755
vt 0.567164 0.591237
vt 0.573878 0.591512
vt 0.203965 0.507702
vt 0.193682 0.507992
vt 0.193685 0.489374
vt 0.203968 0.489084
vt 0.190933 0.508041
vt 0.190936 0.489422
vt 0.186978 0.507830
vt 0.186981 0.489212
vt 0.178604 0.507908
vt 0.178607 0.489289
vt 0.117947 0.507049
vt 0.117950 0.488430
vt 0.217258 0.625088
vt 0.213422 0.623914
vt 0.217209 0.555164
vt 0.221045 0.556339
vt 0.170790 0.624227
vt 0.174344 0.564134
vt 0.246877 0.490585
vt 0.245588 0.507966
vt 0.117317 0.626392
vt 0.168522 0.563940
vt 0.166226 0.626999
vt 0.123213 0.557329
vt 0.171434 0.566083
vt 0.167422 0.631870
vt 0.173483 0.563388
vt 0.443230 0.688540
vt 0.440843 0.687952
vt 0.440843 0.676420
vt 0.443230 0.677008
vt 0.360044 0.687220
vt 0.336387 0.687363
vt 0.336387 0.682711
vt 0.360044 0.677412
vt 0.726023 0.678899
vt 0.688598 0.678368
vt 0.688598 0.666029
vt 0.726023 0.671263
vt 0.727426 0.678160
vt 0.727426 0.670524
vt 0.335865 0.687119
vt 0.335865 0.682467
vt 0.600614 0.688966
vt 0.598867 0.689177
vt 0.598867 0.677645
vt 0.600614 0.677434
vt 0.518647 0.688843
vt 0.518647 0.677312
vt 0.384699 0.678778
vt 0.384812 0.687070
vt 0.648892 0.678081
vt 0.651574 0.662650
vt 0.845541 0.536875
vt 0.845660 0.605564
vt 0.840824 0.536875
vt 0.840435 0.605564
vt 0.793299 0.605564
vt 0.827347 0.536874
vt 0.830812 0.605564
vt 0.791701 0.536874
vt 0.946691 0.536874
vt 0.947188 0.605564
vt 0.919554 0.536874
vt 0.919217 0.605564
vt 0.895292 0.605564
vt 0.895001 0.536875
vt 0.844468 0.605564
vt 0.852566 0.536875
vt 0.856564 0.605564
vt 0.842809 0.536875
vt 0.888611 0.536875
vt 0.888660 0.605564
vt 0.912084 0.536875
vt 0.916961 0.605564
vt 0.213185 0.716792
vt 0.213106 0.714653
vt 0.277956 0.713138
vt 0.213057 0.713335
vt 0.732062 0.602574
vt 0.332928 0.650388
vt 0.728696 0.602198
vt 0.732091 0.602051
vt 0.351990 0.662441
vt 0.728723 0.601711
vt 0.732116 0.601619
vt 0.370567 0.662539
vt 0.728747 0.601284
vt 0.732138 0.601210
vt 0.388907 0.654068
vt 0.728770 0.600873
vt 0.732154 0.600927
vt 0.402550 0.637536
vt 0.728789 0.600532
vt 0.475764 0.589814
vt 0.516309 0.658419
vt 0.475883 0.595956
vt 0.476799 0.589813
vt 0.495150 0.648987
vt 0.476914 0.595956
vt 0.474672 0.589814
vt 0.544054 0.653625
vt 0.474850 0.595956
vt 0.474055 0.589814
vt 0.563891 0.635067
vt 0.474222 0.595956
vt 0.473714 0.589814
vt 0.573510 0.612822
vt 0.473800 0.595956
vt 0.731644 0.603294
vt 0.668991 0.652836
vt 0.728072 0.602941
vt 0.731814 0.601360
vt 0.690794 0.653420
vt 0.728262 0.600788
vt 0.731529 0.604601
vt 0.650006 0.641806
vt 0.727940 0.604441
vt 0.731987 0.599399
vt 0.711830 0.642441
vt 0.728406 0.599153
vt 0.732086 0.598280
vt 0.723505 0.625129
vt 0.728498 0.598110
vt 0.759356 0.706356
vt 0.766772 0.686849
vt 0.751494 0.722900
vt 0.757665 0.578947
vt 0.761481 0.574316
vn -0.761219 0.645850 -0.058519
vn -0.761219 0.645850 -0.058519
vn -0.761219 0.645850 -0.058519
vn 0.000191 1.000000 -0.000498
vn 0.000235 1.000000 -0.000412
vn 0.000275 1.000000 -0.000413
vn 0.000295 1.000000 -0.000380
vn -0.000046 1.000000 -0.000210
vn -0.000032 1.000000 -0.000306
vn -0.000021 1.000000 -0.000404
vn -0.000020 1.000000 -0.000420
vn -0.268052 -0.114182 0.956614
vn -0.434655 -0.196057 0.878997
vn -0.374654 -0.097531 0.922021
vn -0.005410 -0.000869 0.999985
vn -0.018072 -0.064831 0.997733
vn 0.000328 -0.022415 0.999749
vn -0.005828 0.029363 0.999552
vn -0.006474 0.030754 0.999506
vn -0.006474 0.030754 0.999506
vn -0.079767 -0.011380 0.996749
vn -0.033826 -0.123697 0.991743
vn -0.027323 0.019678 0.999433
vn -0.053358 -0.042050 0.997690
vn -0.067952 -0.015040 0.997575
vn -0.074877 -0.027112 0.996824
vn 0.012744 -0.104942 0.994397
vn 0.003306 -0.090120 0.995925
vn 0.003306 -0.090120 0.995925
vn -0.013194 -0.099573 0.994943
vn -0.010999 -0.157208 0.987504
vn 0.007694 -0.092647 0.995669
vn -0.083197 0.990158 0.112536
vn -0.096772 0.964360 0.246261
vn -0.096772 0.964360 0.246261
vn -0.108535 0.920498 0.375372
vn -0.376728 0.498441 0.780790
vn -0.337724 -0.022924 0.940966
vn -0.337724 -0.022924 0.940966
vn -0.197740 -0.537434 0.819795
vn -0.994906 0.090076 0.045260
vn -0.611699 0.790159 -0.038384
vn -0.611699 0.790159 -0.038384
vn 0.165418 0.981411 -0.097310
vn -0.897405 -0.441118 0.008921
vn -0.947472 -0.319794 0.005430
vn -0.983870 -0.178743 0.007175
vn -0.980626 -0.195891 -0.000005
vn 0.000167 1.000000 -0.000145
vn 0.000157 1.000000 -0.000257
vn 0.000127 1.000000 -0.000426
vn 0.000091 1.000000 -0.000402
vn 0.000116 1.000000 0.000074
vn 0.000159 1.000000 0.000032
vn -0.000661 -0.000569 1.000000
vn -0.001084 -0.000015 0.999999
vn -0.001084 -0.000015 0.999999
vn -0.001507 0.000539 0.999999
vn -0.999965 -0.000101 0.008373
vn -0.999764 -0.008554 0.019947
vn -0.999950 -0.003859 0.009278
vn 0.000045 1.000000 -0.000395
vn 0.000109 1.000000 -0.000338
vn 0.000072 1.000000 -0.000371
vn 0.000123 1.000000 -0.000276
vn 0.000129 1.000000 -0.000384
vn -0.999987 0.000743 -0.005099
vn -0.999987 0.000743 -0.005099
vn -0.999987 0.000743 -0.005099
vn -0.487158 -0.698553 0.524120
vn -0.487158 -0.698553 0.524120
vn -0.487158 -0.698553 0.524120
vn -0.968114 -0.250240 -0.011609
vn -0.986914 -0.126784 -0.099634
vn -0.986914 -0.126784 -0.099634
vn -0.982676 -0.000368 -0.185333
vn 0.009532 0.996814 0.079195
vn -0.002413 0.998638 0.052123
vn -0.002413 0.998638 0.052123
vn -0.014355 0.999584 0.025004
vn 0.064234 0.996428 -0.054814
vn -0.074555 0.994381 -0.075154
vn -0.074555 0.994381 -0.075154
vn -0.211876 0.972764 -0.094015
vn -0.004348 0.997935 -0.064083
vn -0.018074 0.995869 -0.088989
vn -0.018074 0.995869 -0.088989
vn -0.031784 0.992993 -0.113822
vn -0.000125 0.996843 0.079403
vn -0.018378 0.992181 0.123450
vn -0.018378 0.992181 0.123450
vn -0.036588 0.985241 0.167214
vn -0.317242 0.947746 -0.033678
vn -0.264101 0.963643 -0.040537
vn -0.264101 0.963643 -0.040537
vn -0.210135 0.976529 -0.047269
vn 0.044573 0.996016 -0.077234
vn 0.041278 0.996612 -0.071144
vn 0.041278 0.996612 -0.071144
vn 0.037981 0.997159 -0.065051
vn -0.480986 0.873440 0.075863
vn -0.197017 0.979460 0.042919
vn -0.197017 0.979460 0.042919
vn 0.105267 0.994426 0.005985
vn -0.042555 0.998908 -0.019262
vn -0.105409 0.994316 -0.014994
vn -0.105409 0.994316 -0.014994
vn -0.167843 0.985756 -0.010665
vn 0.000082 1.000000 -0.000221
vn 0.000287 1.000000 0.000072
vn 0.000004 1.000000 -0.000132
vn 0.000217 1.000000 -0.000054
vn 0.000080 1.000000 -0.000124
vn 0.000419 1.000000 -0.000488
vn 0.000318 1.000000 -0.000450
vn 0.000602 1.000000 -0.000661
vn 0.000099 1.000000 -0.000230
vn 0.999988 0.004276 -0.002200
vn 0.999984 0.005030 -0.002774
vn 0.999984 0.005030 -0.002774
vn 0.999978 0.005783 -0.003348
vn 0.414893 0.909839 -0.007501
vn 0.841075 0.536893 0.065869
vn 0.841075 0.536893 0.065869
vn 0.992980 -0.011136 0.117758
vn 0.986999 -0.128497 0.096552
vn 0.978942 -0.171447 0.110806
vn 0.991698 -0.074167 0.105049
vn 0.955971 -0.270828 0.113014
vn 0.892337 -0.438227 0.108128
vn 0.845493 -0.526008 0.091967
vn 0.999995 -0.001330 -0.002698
vn 0.999999 0.001144 -0.000799
vn 0.999999 0.001144 -0.000799
vn 0.999993 0.003617 0.001100
vn -0.000080 1.000000 -0.000231
vn 0.000271 1.000000 -0.000163
vn -0.000016 0.000046 1.000000
vn -0.000024 0.000035 1.000000
vn -0.000024 0.000035 1.000000
vn -0.000033 0.000024 1.000000
vn 0.000083 1.000000 -0.000074
vn -0.000037 1.000000 -0.000098
vn -0.587947 0.807750 -0.043115
vn -0.678473 0.733365 -0.043012
vn -0.678473 0.733365 -0.043012
vn -0.759686 0.648912 -0.042318
vn -0.000048 1.000000 -0.000411
vn -0.000033 1.000000 -0.000466
vn 0.000265 1.000000 -0.000402
vn 0.000271 1.000000 -0.000368
vn 0.996851 -0.027896 0.074231
vn 0.996851 -0.027896 0.074231
vn 0.996851 -0.027896 0.074231
vn 0.000489 1.000000 0.000181
vn 0.000590 1.000000 0.000090
vn 0.000168 1.000000 -0.000166
vn 0.000014 1.000000 0.000004
vn 0.000102 1.000000 -0.000320
vn -0.000204 1.000000 -0.000436
vn 0.000205 1.000000 -0.000374
vn 0.000205 1.000000 -0.000374
vn 0.000615 1.000000 -0.000311
vn -0.000203 1.000000 -0.000524
vn -0.000203 1.000000 -0.000524
vn -0.000203 1.000000 -0.000524
vn -0.000203 1.000000 -0.000524
vn 0.323591 -0.018127 0.946024
vn 0.179982 0.023179 0.983397
vn 0.179982 0.023179 0.983397
vn 0.032104 0.063936 0.997438
vn -0.000301 1.000000 -0.000830
vn 0.000291 1.000000 -0.000506
vn 0.000291 1.000000 -0.000506
vn 0.000883 1.000000 -0.000182
vn 0.000158 1.000000 -0.000112
vn -0.000099 1.000000 -0.000134
vn 0.000088 1.000000 -0.000130
vn -0.000295 1.000000 -0.000104
vn 0.000251 0.000952 1.000000
vn -0.000100 0.000731 1.000000
vn -0.000148 0.000736 1.000000
vn -0.001065 0.000509 0.999999
vn -0.017695 0.999842 -0.001495
vn -0.005220 0.999898 -0.013261
vn -0.002514 0.999974 -0.006801
vn 0.003729 0.999913 -0.012616
vn 0.000198 1.000000 -0.000408
vn 0.000219 1.000000 -0.000343
vn 0.000209 1.000000 -0.000402
vn 0.000215 1.000000 -0.000132
vn 0.000103 1.000000 -0.000011
vn -0.000197 0.000741 1.000000
vn -0.000030 0.000532 1.000000
vn 0.000082 0.999999 -0.001085
vn 0.000056 1.000000 -0.000534
vn -0.006473 0.999956 -0.006764
vn -0.009751 0.999906 -0.009604
vn -0.019530 0.999624 -0.019224
vn 0.001380 0.999999 -0.000376
vn 0.001380 0.999999 -0.000376
vn 0.001380 0.999999 -0.000376
vn 0.000028 1.000000 -0.000369
vn 0.000028 1.000000 -0.000369
vn 0.000028 1.000000 -0.000369
vn -0.000029 1.000000 -0.000065
vn 0.000072 1.000000 -0.000162
vn 0.000072 1.000000 -0.000162
vn 0.000173 1.000000 -0.000260
vn 0.000050 -0.000030 1.000000
vn 0.000031 -0.000003 1.000000
vn 0.000031 -0.000003 1.000000
vn 0.000011 0.000024 1.000000
vn -0.999911 0.013019 0.002874
vn -0.999911 0.013019 0.002874
vn -0.999911 0.013019 0.002874
vn -0.009789 0.034482 0.999357
vn -0.005195 0.028970 0.999567
vn -0.009789 0.034482 0.999357
vn 0.000931 0.031121 0.999515
vn 0.058660 0.184602 0.981061
vn -0.014528 0.344778 0.938572
vn 0.008528 0.089674 0.995935
vn 0.034289 -0.008165 0.999379
vn -0.013948 -0.021482 0.999672
vn 0.014495 -0.035640 0.999260
vn 0.089103 -0.154010 0.984043
vn 0.099033 -0.261612 0.960079
vn 0.000326 1.000000 -0.000364
vn 0.000337 1.000000 -0.000389
vn 0.000324 1.000000 -0.000378
vn 0.016694 -0.342275 0.939452
vn 0.191913 -0.359739 0.913103
vn 0.016694 -0.342275 0.939452
vn -0.112237 -0.258265 0.959532
vn -0.190925 -0.321697 0.927394
vn -0.095590 -0.215144 0.971893
vn 0.066402 0.062850 0.995812
vn -0.075519 -0.106168 0.991476
vn -0.058913 -0.126145 0.990261
vn -0.058913 -0.126145 0.990261
vn -0.047090 -0.160026 0.985989
vn -0.179658 -0.071012 0.981163
vn -0.046205 -0.142861 0.988664
vn -0.016864 0.042180 0.998968
vn -0.036863 -0.195595 0.979992
vn 0.059390 -0.342416 0.937670
vn -0.032854 -0.062006 0.997535
vn -0.006488 -0.074866 0.997172
vn -0.008351 -0.073351 0.997271
vn -0.032612 -0.165337 0.985698
vn 0.001809 -0.132988 0.991116
vn -0.007622 -0.138993 0.990264
vn -0.000085 1.000000 -0.000367
vn -0.000110 1.000000 -0.000284
vn -0.000129 1.000000 -0.000338
vn -0.000133 1.000000 -0.000334
vn -0.000117 1.000000 -0.000522
vn -0.000125 1.000000 -0.000447
vn -0.022074 -0.151021 0.988284
vn -0.013845 -0.148106 0.988874
vn -0.013845 -0.148106 0.988874
vn -0.013500 -0.131363 0.991242
vn -0.009860 -0.139571 0.990163
vn -0.010253 -0.150322 0.988584
vn 0.000741 -0.096260 0.995356
vn -0.009071 -0.118020 0.992970
vn 0.019018 -0.116701 0.992985
vn -0.025194 -0.192847 0.980905
vn 0.021357 -0.264224 0.964225
vn -0.701865 0.030136 0.711672
vn -0.701865 0.030136 0.711672
vn -0.701865 0.030136 0.711672
vn -0.999988 0.004126 0.002585
vn -0.999951 0.007416 0.006562
vn -0.990715 0.135894 0.004019
vn -0.990715 0.135894 0.004019
vn -0.990715 0.135894 0.004019
vn -0.705170 0.707789 -0.042066
vn -0.705170 0.707789 -0.042066
vn -0.705170 0.707789 -0.042066
vn -0.738811 0.672732 -0.039875
vn -0.722299 0.690337 -0.041460
vn -0.722299 0.690337 -0.041460
vn -0.705365 0.707538 -0.043020
vn 0.747275 0.664402 -0.012238
vn 0.747275 0.664402 -0.012238
vn 0.747275 0.664402 -0.012238
vn 0.789392 0.613885 -0.002385
vn 0.768379 0.639971 -0.005540
vn 0.768379 0.639971 -0.005540
vn 0.746497 0.665332 -0.008689
vn -0.000122 1.000000 -0.000187
vn -0.000134 1.000000 -0.000402
vn -0.000102 1.000000 -0.000581
vn 0.792162 0.610116 0.015423
vn 0.792162 0.610116 0.015423
vn 0.792162 0.610116 0.015423
vn 0.634536 0.772483 0.025176
vn 0.715588 0.697681 0.034274
vn 0.715588 0.697681 0.034274
vn 0.787875 0.614335 0.042953
vn -0.034068 0.077197 0.996434
vn -0.044623 0.123075 0.991394
vn -0.038719 0.186955 0.981605
vn -0.000070 1.000000 -0.000125
vn -0.000028 1.000000 -0.000317
vn -0.000025 1.000000 -0.000535
vn -0.035635 0.204374 0.978244
vn -0.031221 0.208138 0.977601
vn -0.026447 0.148681 0.988532
vn -0.024015 0.118639 0.992647
vn -0.055857 -0.006147 0.998420
vn -0.823867 -0.566752 0.005918
vn -0.833747 -0.552052 0.010242
vn -0.758326 -0.651607 0.018704
vn -0.731584 -0.681521 0.017708
vn -0.705718 -0.708314 0.015911
vn -0.668646 -0.743522 0.009396
vn 0.039640 -0.997991 0.049421
vn 0.048405 -0.997708 0.047282
vn 0.017763 -0.998775 0.046177
vn -0.018470 -0.998749 0.046461
vn 0.412577 -0.910632 0.023001
vn 0.325240 -0.944548 0.045263
vn 0.486611 -0.872929 0.034715
vn 0.363434 -0.930180 0.051775
vn 0.901524 -0.430276 0.046007
vn 0.789903 -0.613002 0.016770
vn 0.915177 -0.402956 0.008821
vn 0.794393 -0.607404 -0.000314
vn -0.940595 -0.339525 -0.001949
vn -0.938785 -0.342653 -0.035652
vn -0.939051 -0.343777 -0.000975
vn -0.978046 -0.208390 -0.000000
vn -0.708192 -0.706020 -0.000831
vn -0.766467 -0.642284 -0.000279
vn -0.706248 -0.707965 -0.000415
vn -0.818008 -0.575206 0.000791
vn -0.527474 -0.849572 -0.000047
vn -0.553599 -0.832784 -0.000016
vn -0.527372 -0.849635 -0.000023
vn -0.577479 -0.816405 0.000305
vn -0.011407 -0.999932 -0.002347
vn -0.121129 -0.992636 -0.000793
vn -0.007268 -0.999973 -0.001174
vn -0.233517 -0.972353 0.000013
vn 0.352094 -0.935949 -0.005497
vn 0.293500 -0.955957 -0.001843
vn 0.363770 -0.931485 -0.002749
vn 0.227579 -0.973759 0.000730
vn 0.878514 -0.477716 0.000001
vn 0.753957 -0.656924 0.000001
vn 0.878515 -0.477715 0.000001
vn 0.695710 -0.718320 0.001828
vn 0.978420 -0.206627 0.000000
vn 0.990038 -0.138762 0.023892
vn -0.839903 -0.541716 0.033274
vn -0.856857 -0.515178 0.019674
vn -0.933771 -0.357416 0.018070
vn -0.969635 -0.243425 0.023510
vn -0.862134 -0.506677 0.001566
vn -0.811001 -0.584777 0.017711
vn -0.564208 -0.825447 0.017519
vn -0.552754 -0.833196 0.015735
vn -0.650192 -0.759706 0.009868
vn -0.659698 -0.751512 0.005310
vn -0.361650 -0.932097 0.020116
vn -0.291417 -0.956574 0.006522
vn -0.322275 -0.946627 0.005946
vn -0.346354 -0.938093 0.004563
vn 0.104681 -0.993233 0.050304
vn -0.009683 -0.998972 0.044285
vn 0.115387 -0.991926 0.052612
vn -0.050371 -0.997404 0.051463
vn 0.417609 -0.907122 0.052276
vn 0.387090 -0.920187 0.058452
vn 0.445520 -0.893266 0.059896
vn 0.336201 -0.939921 0.059299
vn -0.144219 -0.988644 0.042235
vn -0.150548 -0.987638 0.043674
vn -0.279264 -0.959660 0.032633
vn -0.421530 -0.906524 0.022956
vn 0.968607 -0.241242 -0.060031
vn 0.937296 -0.348430 -0.008528
vn -0.796637 -0.588605 -0.137527
vn -0.937301 -0.341039 -0.071831
vn 0.994324 0.095582 0.046731
vn 0.967867 0.233856 0.092437
vn -0.996362 -0.070524 0.047845
vn -0.991758 -0.124716 0.029350
vn 0.692888 -0.717957 0.066669
vn 0.757043 -0.648663 0.078243
vn 0.060250 0.962209 -0.265565
vn 0.041783 0.992516 -0.114745
vn 0.041783 0.992516 -0.114745
vn 0.022313 0.998997 0.038828
vn 0.081743 0.927463 0.364870
vn 0.077586 0.955879 -0.283331
vn 0.077586 0.955879 -0.283331
vn 0.040766 0.581879 -0.812253
vn -0.999998 -0.002059 0.000744
vn -0.850085 0.029844 -0.525799
vn -0.999995 -0.002510 0.001833
vn -0.940522 0.007155 -0.339658
vn 0.145862 0.081266 -0.985961
vn -0.355999 0.055726 -0.932824
vn -0.346537 -0.051741 0.936608
vn -0.638543 -0.041282 0.768478
vn -0.292394 -0.050103 0.954985
vn -0.917435 -0.021728 0.397291
vn -0.999997 -0.002398 -0.000100
vn -0.999998 -0.002034 0.000795
vn -0.999997 -0.001885 0.001522
vn -0.999997 -0.001261 0.001954
vn 0.084112 0.065472 -0.994303
vn 0.099578 0.067887 -0.992711
vn 0.099578 0.067887 -0.992711
vn 0.115020 0.070284 -0.990874
vn 0.006806 0.070107 -0.997516
vn 0.030845 0.117750 -0.992564
vn 0.030845 0.117750 -0.992564
vn 0.054795 0.165056 -0.984761
vn -0.999999 -0.001161 0.000120
vn -0.999999 -0.001743 -0.000319
vn 0.119811 0.009423 -0.992752
vn 0.119811 0.009423 -0.992752
vn 0.044907 0.079217 -0.995845
vn 0.193457 -0.060471 -0.979243
vn -0.990969 -0.129473 -0.034904
vn -0.990969 -0.129473 -0.034904
vn -0.990969 -0.129473 -0.034904
vn -0.901075 -0.410170 -0.140801
vn -0.901075 -0.410170 -0.140801
vn -0.901075 -0.410170 -0.140801
vn 0.990205 -0.139564 0.003983
vn 0.990205 -0.139564 0.003983
vn 0.990205 -0.139564 0.003983
vn 0.843797 0.063756 -0.532862
vn 0.843797 0.063756 -0.532862
vn 0.843797 0.063756 -0.532862
vn 0.592694 0.000000 -0.805428
vn 0.592701 0.000000 -0.805423
vn 0.592701 0.000000 -0.805423
vn 0.592708 0.000000 -0.805417
vn 0.005684 0.000000 -0.999984
vn 0.005710 0.000000 -0.999984
vn 0.002700 -0.030904 -0.999519
vn 0.005710 0.000001 -0.999984
vn 0.023126 0.000000 -0.999733
vn 0.039704 0.022054 -0.998968
vn 0.020575 0.006213 -0.999769
vn 0.066762 0.002361 -0.997766
vn -0.492395 0.000000 -0.870372
vn -0.492399 0.000000 -0.870370
vn -0.492399 0.000000 -0.870370
vn -0.492402 0.000000 -0.870368
vn 0.403544 0.000000 -0.914960
vn 0.403540 0.000001 -0.914962
vn 0.403540 0.000001 -0.914962
vn 0.403536 0.000001 -0.914964
vn -0.341411 0.000002 -0.939914
vn -0.341416 0.000001 -0.939912
vn -0.341416 0.000001 -0.939912
vn -0.341420 0.000001 -0.939911
vn 0.007122 0.000004 -0.999975
vn 0.007342 0.000002 -0.999973
vn 0.007122 0.000003 -0.999975
vn 0.007342 0.000000 -0.999973
vn 0.006902 0.000003 -0.999976
vn 0.006902 0.000002 -0.999976
vn -0.000318 -0.061837 -0.998086
vn -0.006292 -0.123436 -0.992333
vn 0.104029 -0.059052 -0.992820
vn 0.091111 -0.002682 -0.995837
vn 0.224202 0.047915 -0.973364
vn 0.224202 0.047915 -0.973364
vn 0.224202 0.047915 -0.973364
vn 0.124493 0.016576 -0.992082
vn 0.124493 0.016576 -0.992082
vn 0.124493 0.016576 -0.992082
vn 0.999994 -0.003429 -0.001060
vn 0.999991 -0.003815 0.001940
vn 0.999993 -0.003119 0.001854
vn 0.999996 -0.002045 -0.002000
vn 0.999993 -0.002273 0.002840
vn 0.999997 0.000041 -0.002258
vn -0.018623 -0.077896 -0.996788
vn -0.000933 -0.050582 -0.998720
vn -0.000933 -0.050582 -0.998720
vn 0.016757 -0.023214 -0.999590
vn 0.999130 0.040539 0.009750
vn 0.999839 0.017858 -0.001892
vn 0.999839 0.017858 -0.001892
vn 0.999897 -0.004836 -0.013532
vn 0.999958 -0.003503 -0.008477
vn 0.999980 -0.004174 -0.004835
vn 0.999993 -0.003624 -0.001231
vn 0.999919 -0.001150 -0.012696
vn 0.999997 -0.002508 0.000282
vn 0.999998 0.000501 -0.001886
vn -0.126786 -0.014244 -0.991828
vn -0.058173 -0.181601 -0.981650
vn -0.058173 -0.181601 -0.981650
vn 0.012349 -0.342999 -0.939255
vn -0.001812 0.999998 -0.000119
vn -0.001812 0.999998 -0.000119
vn -0.001812 0.999998 -0.000119
vn 0.000125 1.000000 -0.000620
vn 0.000091 1.000000 -0.000519
vn 0.000091 1.000000 -0.000519
vn 0.000057 1.000000 -0.000417
vn 0.212152 0.056005 0.975631
vn 0.212152 0.056005 0.975631
vn 0.212152 0.056005 0.975631
vn 0.028700 0.004371 0.999579
vn 0.021189 0.188265 0.981890
vn 0.021189 0.188265 0.981890
vn 0.012954 0.365723 0.930634
vn -0.489097 0.146516 0.859835
vn -0.489097 0.146516 0.859835
vn -0.489097 0.146516 0.859835
vn 0.001567 0.388734 -0.921348
vn 0.001567 0.388734 -0.921348
vn 0.001567 0.388734 -0.921348
vn -0.006934 0.563468 -0.826109
vn -0.002724 0.478487 -0.878091
vn -0.002724 0.478487 -0.878091
vn 0.001513 0.388749 -0.921342
vn 0.001289 0.567653 -0.823267
vn 0.001289 0.567653 -0.823267
vn 0.001289 0.567653 -0.823267
vn 0.000027 1.000000 -0.000222
vn 0.000027 1.000000 -0.000222
vn 0.000027 1.000000 -0.000222
vn -0.000026 1.000000 -0.000357
vn 0.000003 1.000000 -0.000288
vn 0.000003 1.000000 -0.000288
vn 0.000033 1.000000 -0.000219
vn 0.003431 -0.092725 0.995686
vn 0.644411 -0.761961 0.064416
vn 0.660614 -0.747484 0.069688
vn -0.002579 -0.155950 0.987762
vn 0.264978 -0.962701 0.054721
vn 0.264479 -0.962844 0.054604
vn -0.005616 -0.145180 0.989389
vn -0.135129 -0.990202 0.035220
vn -0.043854 -0.998756 0.023733
vn 0.020656 -0.120937 0.992445
vn -0.407507 -0.913143 0.010371
vn -0.431904 -0.901778 0.015957
vn -0.006133 -0.075270 0.997144
vn -0.737980 -0.674811 0.003849
vn -0.711175 -0.702926 0.011138
vn -0.065355 0.213668 0.974718
vn 0.151627 -0.988437 0.001088
vn 0.155167 -0.987886 0.002177
vn -0.056343 -0.007991 0.998380
vn -0.056343 -0.007991 0.998380
vn -0.057046 -0.009146 0.998330
vn 0.629863 -0.776702 0.002721
vn 0.639338 -0.768907 0.005440
vn -0.007810 0.035825 0.999328
vn -0.344012 -0.938965 0.000019
vn -0.343937 -0.938993 0.000038
vn -0.007121 0.032145 0.999458
vn -0.601798 -0.798648 0.000458
vn -0.599152 -0.800635 0.000915
vn -0.014382 0.039992 0.999097
vn -0.865351 -0.501165 0.001177
vn -0.862091 -0.506748 0.002353
vn 0.232098 -0.380134 0.895337
vn 0.154317 -0.986525 0.054365
vn 0.156360 -0.986232 0.053840
vn -0.159054 -0.313960 0.936019
vn -0.068925 -0.996358 0.050198
vn -0.056251 -0.997309 0.047022
vn 0.062660 0.057455 0.996380
vn 0.662434 -0.749089 0.006917
vn 0.612570 -0.790222 0.017524
vn -0.061833 -0.127921 0.989855
vn -0.561356 -0.827462 0.013601
vn -0.541789 -0.840440 0.011216
vn -0.042267 -0.146036 0.988376
vn -0.753108 -0.657779 0.012486
vn -0.766835 -0.641623 0.016858
vn -0.055639 -0.006836 0.998428
f 4/1/1 99/2/2 141/3/3
f 8/5/4 101/6/5 128/4/6
f 128/4/6 101/6/5 129/7/7
f 143/8/8 5/9/9 144/11/10
f 144/11/10 5/9/9 100/10/11
f 11/12/12 10/13/13 9/339/14
f 21/15/15 20/16/16 19/17/17
f 211/313/18 23/19/19 5/9/20
f 4/1/21 28/20/22 27/21/23
f 32/23/24 31/24/25 30/25/26
f 203/301/27 34/27/28 4/1/29
f 1/28/30 40/29/31 39/30/32
f 44/32/33 43/33/34 42/31/35
f 42/31/35 43/33/34 41/34/36
f 10/13/37 46/35/38 9/339/39
f 9/339/39 46/35/38 45/36/40
f 46/35/41 10/13/42 47/38/43
f 10/13/42 48/37/44 47/38/43
f 11/39/45 49/40/46 10/42/47
f 10/42/47 49/40/46 48/41/48
f 8/337/49 120/43/50 101/336/51
f 101/336/51 120/43/50 119/44/52
f 53/45/53 121/46/54 8/337/49
f 8/337/49 121/46/54 120/43/50
f 53/45/55 55/47/56 121/46/57
f 121/46/57 55/47/56 122/48/58
f 63/49/59 55/47/60 53/45/61
f 56/53/62 7/54/63 57/52/64
f 57/52/64 7/54/63 58/51/65
f 118/50/66 58/51/65 7/54/63
f 56/53/67 62/55/68 61/56/69
f 45/340/70 134/57/71 9/14/72
f 59/58/73 65/59/74 58/51/75
f 58/51/75 65/59/74 64/60/76
f 19/17/77 67/61/78 18/63/79
f 18/63/79 67/61/78 66/62/80
f 66/62/81 69/64/82 18/63/83
f 18/63/83 69/64/82 68/65/84
f 30/25/85 71/66/86 29/68/87
f 29/68/87 71/66/86 70/67/88
f 19/17/89 20/16/90 67/61/91
f 67/61/91 20/16/90 72/69/92
f 74/70/93 73/71/94 20/16/95
f 20/16/95 73/71/94 72/69/96
f 75/72/97 71/66/98 31/24/99
f 31/24/99 71/66/98 30/25/100
f 77/73/101 76/74/102 31/24/103
f 31/24/103 76/74/102 75/72/104
f 79/75/105 78/76/106 70/67/107
f 70/67/107 78/76/106 29/68/108
f 124/77/109 97/78/110 125/80/111
f 125/80/111 97/78/110 80/79/112
f 81/85/113 123/81/114 82/84/115
f 123/81/114 84/82/116 82/84/115
f 84/82/116 83/83/117 82/84/115
f 88/87/118 87/88/119 2/86/120
f 2/86/120 87/88/119 86/89/121
f 90/91/122 41/34/123 89/90/124
f 89/90/124 41/34/123 43/33/125
f 90/91/126 91/92/127 41/34/128
f 41/34/128 91/92/127 40/29/129
f 91/92/127 92/93/130 40/29/129
f 40/29/129 92/93/130 39/30/131
f 94/94/132 93/95/133 1/28/134
f 1/28/134 93/95/133 42/31/135
f 125/80/111 80/79/112 126/97/136
f 126/97/136 80/79/112 95/96/137
f 96/98/138 127/99/139 95/96/140
f 95/96/140 127/99/139 126/97/141
f 123/81/114 81/85/113 124/77/142
f 124/77/142 81/85/113 97/78/143
f 3/100/144 142/101/145 99/2/146
f 99/2/146 142/101/145 141/3/147
f 6/102/148 145/103/149 100/10/11
f 100/10/11 145/103/149 144/11/10
f 7/338/150 130/104/151 101/6/5
f 101/6/5 130/104/151 129/7/7
f 119/44/52 118/50/66 101/336/51
f 101/336/51 118/50/66 7/54/63
f 176/105/152 103/106/153 83/83/154
f 105/107/155 104/108/156 97/78/110
f 97/78/110 104/108/156 80/79/112
f 80/79/112 104/108/156 95/96/137
f 107/109/157 106/110/158 81/85/113
f 81/85/113 106/110/158 97/78/143
f 81/85/113 82/84/115 107/109/157
f 107/109/157 82/84/115 108/111/159
f 110/113/160 109/114/161 50/112/162
f 50/112/162 109/114/161 60/115/163
f 102/116/164 111/117/165 50/112/166
f 50/112/166 111/117/165 110/113/167
f 102/116/168 113/118/169 111/117/170
f 111/117/170 113/118/169 112/119/171
f 115/121/172 114/122/173 51/120/174
f 51/120/174 114/122/173 102/116/175
f 52/123/176 116/124/177 51/120/178
f 51/120/178 116/124/177 115/121/179
f 54/125/180 117/126/181 52/123/182
f 52/123/182 117/126/181 116/124/183
f 60/115/184 59/58/185 50/112/186
f 59/58/185 58/51/187 50/112/186
f 50/112/186 58/51/187 118/50/188
f 50/112/186 118/50/188 102/116/189
f 102/116/189 118/50/188 119/44/190
f 51/120/178 102/116/189 120/43/191
f 120/43/191 102/116/189 119/44/190
f 121/46/192 52/123/176 120/43/191
f 120/43/191 52/123/176 51/120/178
f 54/125/180 52/123/182 122/48/193
f 122/48/193 52/123/182 121/46/194
f 123/81/195 2/86/196 84/82/197
f 2/86/196 86/89/198 84/82/197
f 86/89/198 85/127/199 84/82/197
f 2/86/200 194/128/201 98/129/202
f 98/129/203 192/130/204 1/28/205
f 1/28/206 125/80/207 94/94/208
f 94/94/208 125/80/207 126/97/209
f 93/95/210 94/94/211 127/99/212
f 127/99/212 94/94/211 126/97/213
f 56/53/214 61/56/215 7/54/216
f 5/9/217 213/316/218 22/131/219
f 5/9/220 21/15/15 19/17/17
f 19/17/221 18/63/222 17/132/223
f 5/9/224 17/132/223 16/133/225
f 5/9/226 15/134/227 128/4/228
f 5/9/229 128/4/6 135/135/230
f 135/135/230 128/4/6 129/7/7
f 130/104/151 136/136/231 129/7/7
f 129/7/7 136/136/231 135/135/230
f 128/4/232 217/322/233 14/137/234
f 128/4/235 219/325/236 13/138/237
f 5/9/226 221/328/238 15/134/227
f 223/331/239 12/139/240 8/5/241
f 128/4/235 13/138/237 8/5/242
f 11/12/12 9/339/14 8/5/243
f 225/334/244 11/12/12 8/5/243
f 5/9/224 19/17/221 17/132/223
f 5/9/220 215/319/245 21/15/15
f 28/20/22 30/25/246 29/68/247
f 4/1/248 205/304/249 33/140/250
f 4/1/248 32/23/24 30/25/26
f 4/1/248 33/140/250 32/23/24
f 201/298/251 35/26/252 131/142/253
f 1/28/254 131/142/255 98/129/256
f 98/129/256 131/142/255 132/143/257
f 133/144/258 2/86/259 132/143/257
f 132/143/257 2/86/259 98/129/256
f 199/295/260 36/141/261 131/142/262
f 1/28/263 37/145/264 131/142/265
f 1/28/30 39/30/32 38/146/266
f 1/28/263 197/292/267 37/145/264
f 131/142/253 35/26/252 4/1/268
f 1/28/30 42/31/269 40/29/31
f 42/31/269 41/34/270 40/29/31
f 134/57/271 8/337/272 9/14/273
f 53/45/61 8/337/274 63/49/59
f 63/49/59 8/337/274 134/57/275
f 45/340/276 63/49/277 134/57/278
f 5/9/279 135/135/280 137/147/281
f 136/136/282 138/148/283 135/135/284
f 135/135/284 138/148/283 137/147/285
f 5/9/286 137/147/287 100/10/288
f 6/102/289 100/10/290 138/148/291
f 138/148/291 100/10/290 137/147/292
f 131/142/255 4/1/293 132/143/257
f 132/143/257 4/1/293 139/149/294
f 140/150/295 133/144/258 139/149/294
f 139/149/294 133/144/258 132/143/257
f 4/1/296 141/3/297 139/149/298
f 140/150/299 139/149/300 142/101/301
f 142/101/301 139/149/300 141/3/302
f 4/1/303 25/151/304 143/8/305
f 4/1/306 143/8/8 99/2/307
f 99/2/307 143/8/8 144/11/10
f 145/103/149 3/100/308 144/11/10
f 144/11/10 3/100/308 99/2/307
f 143/8/309 207/307/310 24/18/311
f 143/8/309 24/18/311 5/9/312
f 4/1/303 209/310/313 25/151/304
f 49/40/46 11/39/45 226/335/314
f 226/335/314 11/39/45 225/333/315
f 146/153/316 12/152/317 224/332/318
f 224/332/318 12/152/317 223/330/319
f 217/321/320 218/323/321 14/159/322
f 14/159/322 218/323/321 148/158/323
f 222/329/324 149/157/325 221/327/326
f 221/327/326 149/157/325 15/156/327
f 151/163/328 150/161/329 17/162/330
f 17/162/330 150/161/329 16/160/331
f 216/320/332 152/166/333 215/318/334
f 215/318/334 152/166/333 21/167/335
f 214/317/336 153/165/337 213/315/338
f 213/315/338 153/165/337 22/164/339
f 212/314/340 154/169/341 211/312/342
f 211/312/342 154/169/341 23/168/343
f 208/308/344 155/171/345 207/306/346
f 207/306/346 155/171/345 24/170/347
f 210/311/348 156/173/349 209/309/350
f 209/309/350 156/173/349 25/172/351
f 158/177/352 157/175/353 27/176/354
f 27/176/354 157/175/353 26/174/355
f 28/178/356 159/179/357 27/176/354
f 27/176/354 159/179/357 158/177/352
f 33/180/358 161/181/359 32/183/360
f 32/183/360 161/181/359 160/182/361
f 206/305/362 161/181/359 205/303/363
f 205/303/363 161/181/359 33/180/358
f 203/300/364 204/302/365 34/184/366
f 34/184/366 204/302/365 162/185/367
f 201/297/368 202/299/369 35/186/370
f 35/186/370 202/299/369 163/187/371
f 200/296/372 164/189/373 199/294/374
f 199/294/374 164/189/373 36/188/375
f 198/293/376 165/191/377 197/291/378
f 197/291/378 165/191/377 37/190/379
f 219/324/380 220/326/381 13/154/382
f 13/154/382 220/326/381 147/155/383
f 18/194/384 68/195/385 17/162/330
f 17/162/330 68/195/385 151/163/328
f 74/196/386 20/197/387 152/166/333
f 152/166/333 20/197/387 21/167/335
f 28/178/356 29/198/388 159/179/357
f 159/179/357 29/198/388 78/199/389
f 77/200/390 31/201/391 160/182/361
f 160/182/361 31/201/391 32/183/360
f 38/192/392 39/202/131 166/193/393
f 166/193/393 39/202/131 92/203/130
f 77/204/394 78/205/395 76/207/396
f 76/207/396 78/205/395 79/206/397
f 68/209/398 69/210/399 74/208/400
f 74/208/400 69/210/399 73/211/401
f 104/212/402 105/213/403 168/215/404
f 168/215/404 105/213/403 169/214/405
f 97/216/406 170/217/407 105/213/403
f 105/213/403 170/217/407 169/214/405
f 97/216/408 106/218/409 170/217/410
f 170/217/410 106/218/409 171/219/411
f 106/218/409 107/220/412 171/219/411
f 171/219/411 107/220/412 172/221/413
f 107/220/412 108/222/414 172/221/413
f 172/221/413 108/222/414 173/223/415
f 82/225/416 167/226/417 108/224/418
f 108/224/418 167/226/417 173/227/419
f 167/226/420 82/225/421 103/229/422
f 103/229/422 82/225/421 83/228/423
f 95/231/424 104/212/402 96/230/425
f 96/230/425 104/212/402 168/215/404
f 86/232/426 174/233/427 85/234/428
f 86/232/426 87/235/429 174/233/427
f 85/234/430 175/236/431 84/237/432
f 85/234/433 174/233/434 175/236/435
f 84/82/436 176/105/437 83/83/438
f 176/238/439 84/237/440 175/236/441
f 6/239/442 138/240/443 177/242/444
f 177/242/444 138/240/443 178/241/445
f 133/243/446 140/244/447 179/246/448
f 179/246/448 140/244/447 180/245/449
f 136/247/450 130/248/451 181/250/452
f 181/250/452 130/248/451 182/249/453
f 136/247/454 181/250/455 138/251/456
f 138/251/456 181/250/455 178/252/457
f 140/244/458 142/253/459 180/245/460
f 180/245/460 142/253/459 183/254/461
f 3/256/462 184/257/463 142/255/464
f 142/255/464 184/257/463 183/258/465
f 145/259/466 6/239/467 185/260/468
f 185/260/468 6/239/467 177/242/469
f 145/259/466 185/260/468 3/256/470
f 3/256/470 185/260/468 184/257/471
f 133/243/446 179/246/448 2/262/472
f 179/246/448 88/261/473 2/262/472
f 61/264/474 182/249/453 7/263/475
f 7/263/475 182/249/453 130/248/451
f 113/265/476 102/266/477 186/267/478
f 186/267/479 102/266/480 114/268/481
f 116/269/482 187/270/483 115/271/484
f 116/269/482 117/272/485 187/270/483
f 187/270/483 186/267/486 115/271/484
f 115/271/484 186/267/486 114/268/487
f 62/273/488 56/274/489 188/275/490
f 188/275/490 56/274/489 57/276/491
f 188/275/492 57/276/493 64/278/494
f 64/278/494 57/276/493 58/277/495
f 111/279/496 189/280/497 110/281/498
f 111/279/496 112/282/499 189/280/497
f 110/281/498 190/283/500 109/284/501
f 110/281/498 189/280/497 190/283/500
f 190/283/502 65/285/503 109/284/504
f 109/284/504 65/285/503 59/286/505
f 193/287/506 123/81/507 124/77/508
f 2/86/509 123/81/510 194/128/511
f 194/128/511 123/81/510 193/287/512
f 195/288/513 193/287/514 124/77/515
f 193/287/516 195/288/517 194/128/518
f 194/128/518 195/288/517 196/289/519
f 98/129/520 194/128/521 196/289/522
f 191/290/523 195/288/524 124/77/525
f 196/289/526 195/288/527 192/130/528
f 192/130/528 195/288/527 191/290/529
f 98/129/530 196/289/531 192/130/532
f 125/80/533 191/290/534 124/77/535
f 1/28/536 192/130/537 125/80/538
f 125/80/538 192/130/537 191/290/539
f 4/1/21 30/25/246 28/20/22
f 1/28/30 38/146/266 197/292/540
f 166/193/393 198/293/541 38/192/392
f 38/192/392 198/293/541 197/291/542
f 37/145/264 199/295/543 131/142/265
f 165/191/377 200/296/544 37/190/379
f 37/190/379 200/296/544 199/294/545
f 36/141/261 201/298/546 131/142/262
f 36/188/375 164/189/373 201/297/547
f 201/297/547 164/189/373 202/299/548
f 35/26/252 203/301/549 4/1/268
f 35/186/370 163/187/371 203/300/550
f 203/300/550 163/187/371 204/302/551
f 4/1/29 34/27/28 205/304/552
f 162/185/367 206/305/553 34/184/366
f 34/184/366 206/305/553 205/303/554
f 143/8/305 25/151/304 207/307/555
f 156/173/349 208/308/556 25/172/351
f 25/172/351 208/308/556 207/306/557
f 4/1/558 26/22/559 209/310/560
f 157/175/353 210/311/561 26/174/355
f 26/174/355 210/311/561 209/309/562
f 24/18/311 211/313/563 5/9/312
f 155/171/345 212/314/564 24/170/347
f 24/170/347 212/314/564 211/312/565
f 5/9/20 23/19/19 213/316/566
f 154/169/341 214/317/567 23/168/343
f 23/168/343 214/317/567 213/315/568
f 5/9/217 22/131/219 215/319/569
f 153/165/337 216/320/570 22/164/339
f 22/164/339 216/320/570 215/318/571
f 128/4/228 15/134/227 217/322/572
f 15/156/327 149/157/325 217/321/573
f 217/321/573 149/157/325 218/323/574
f 128/4/232 14/137/234 219/325/575
f 220/326/576 219/324/577 148/158/323
f 148/158/323 219/324/577 14/159/322
f 5/9/224 16/133/225 221/328/578
f 16/160/331 150/161/329 221/327/579
f 221/327/579 150/161/329 222/329/580
f 13/138/237 223/331/581 8/5/242
f 224/332/582 223/330/583 147/155/383
f 147/155/383 223/330/583 13/154/382
f 12/139/240 225/334/584 8/5/241
f 226/335/585 225/333/586 146/153/316
f 146/153/316 225/333/586 12/152/317
f 4/1/558 27/21/587 26/22/559
