# This file uses centimeters as units for non-parametric coordinates.

v -4.019356 1.724394 -1.056642
v -4.515939 1.715088 -1.090803
v 3.724826 1.674873 -0.762463
v 3.224545 1.680293 -0.793926
v 3.197162 1.676563 -1.882086
v 3.823366 1.724039 0.448331
v 6.011147 2.383059 0.662112
v 6.119080 1.704190 0.586591
v 4.340723 1.745927 0.599118
v 4.342440 2.482268 0.600387
v 5.556341 1.743238 0.652715
v 5.538983 2.454999 0.684406
v 5.562510 1.065937 0.635597
v 4.347054 1.070727 0.564262
v 4.539994 0.875956 -1.566426
v 4.583998 1.622653 -1.519907
v 4.437346 1.014323 -0.041378
v 4.479954 1.773361 -0.013176
v 4.435515 0.997030 -0.782673
v 4.503316 1.746565 -0.762491
v 4.374351 -3.090126 0.098119
v 4.423024 -3.090109 -0.509203
v 5.695214 0.974961 0.059197
v 5.809199 -3.090738 0.242817
v 5.325078 -3.090633 2.017214
v 3.994221 -3.090000 1.881730
v 2.886775 -3.089335 0.084793
v 2.989928 -3.089370 -0.598857
v 3.091994 -3.089409 -1.399069
v 4.613056 -3.090205 -1.570290
v 3.028862 -3.089347 -1.738042
v 4.424891 -3.090036 -1.852128
v 4.385850 1.309962 -1.836747
v 4.506354 1.286940 -1.585373
v 5.762793 -3.090781 -1.521643
v 5.839526 -3.090746 -0.559940
v 5.668328 1.268734 -1.648095
v 1.581002 1.296085 -0.517223
v 0.896397 1.338789 -0.565260
v 0.205292 1.322948 -0.616971
v 0.233740 1.332123 -1.811230
v -1.247346 1.225760 -0.742295
v -1.878776 1.255690 -0.701230
v -2.524205 1.266683 -0.739224
v -2.414037 1.238749 -2.091872
v -1.078283 1.174193 -2.091596
v -1.545311 1.255582 -0.674371
v -2.110346 1.249872 -0.716246
v -1.647161 -1.472337 -0.718982
v -1.893357 -1.463968 -0.706367
v -2.087985 -1.476401 -0.774115
v -1.391680 1.272697 -0.760768
v -1.447476 -1.498304 -0.828100
v -1.270576 1.217909 -1.044071
v -1.319134 -1.500765 -0.982746
v -1.209055 1.290665 -1.402862
v -1.177562 -1.489047 -1.275603
v -2.267204 -1.456453 -0.872131
v -2.231960 1.293525 -0.903446
v -2.391335 -1.452713 -1.071559
v -2.303085 1.342643 -1.098716
v -2.485620 -1.463560 -1.436923
v -2.403599 1.244605 -1.320351
v -1.638164 -1.484516 -0.696748
v -1.653489 -3.087123 -0.723922
v -1.925309 -3.086978 -0.735829
v -2.106437 -1.479734 -0.709445
v -2.106568 -3.086916 -0.741813
v -1.439619 -1.484873 -0.675381
v -1.217815 -1.473301 -0.662622
v -2.270253 -1.473217 -0.730893
v -2.332481 -3.086787 -0.756593
v -2.578575 -3.086675 -0.768843
v -2.530583 -1.446708 -0.749348
v -1.469948 -3.087196 -0.724553
v -1.210907 -3.087313 -0.806562
v 2.542610 -3.089231 1.732290
v 1.044490 1.330299 -0.551733
v 0.758964 1.344881 -0.576713
v 0.993116 -1.505239 -0.507220
v 0.788469 -1.478462 -0.443757
v 0.598554 -1.509292 -0.527143
v 0.377313 -1.518857 -0.767763
v 0.481113 1.345387 -0.714172
v 0.204932 -1.531809 -1.316636
v 0.304161 1.341018 -1.325615
v 1.243366 1.330885 -0.727792
v 1.260079 -1.521406 -0.675055
v 1.506375 1.314320 -0.947827
v 1.422167 -1.499777 -0.904556
v 1.023692 -1.480157 -0.447445
v 0.568548 -1.482961 -0.471331
v 0.337271 -1.471430 -0.506403
v 0.147458 -1.474069 -0.517693
v 1.458190 -1.467835 -0.430528
v 1.240877 -1.473997 -0.438991
v 0.861575 -3.088327 -0.429736
v 0.635865 -3.088192 -0.450373
v 0.375832 -3.088088 -0.467397
v 0.127247 -3.087949 -0.483671
v 1.088451 -3.088409 -0.420742
v 1.303598 -3.088534 -0.406657
v 1.483762 -3.088610 -0.383129
v -3.906677 1.688715 -2.260974
v -4.583699 1.850988 0.232153
v -4.617806 2.429048 0.203520
v -7.089199 1.825821 0.197281
v -7.044794 2.441159 0.231465
v -5.102120 1.907828 0.052220
v -6.435442 1.950261 0.085649
v -5.068930 1.078963 0.034246
v -6.498584 1.038839 -0.043346
v -4.822698 1.600293 -2.533759
v -4.811426 1.025693 -2.486962
v -5.023598 1.115267 -0.651364
v -4.967520 1.775270 -0.645483
v -4.951436 1.110863 -1.133497
v -4.924685 1.761483 -1.001290
v -4.841796 1.066037 -2.149077
v -4.837612 1.641569 -2.045072
v -5.056653 -3.085489 -1.061618
v -5.109476 -3.085539 -0.571305
v -6.494361 -3.084870 -0.806797
v -6.340128 1.081988 -0.706765
v -3.692632 -3.086103 -0.909594
v -3.786448 -3.086087 -0.275632
v -3.956842 -3.086098 1.059587
v -5.262953 -3.085489 0.924631
v -6.685270 -3.084863 0.777302
v -8.846952 -3.083775 0.553656
v -8.446383 -3.083934 -0.963809
v -7.455155 -3.084234 -6.152981
v -6.083221 -3.084941 -6.010803
v -4.708502 -3.085588 -5.868172
v -3.304388 -3.086235 -5.722638
v -6.377526 -3.084867 -1.521399
v -8.287969 -3.083998 -1.916487
v -2.595289 -3.086649 -0.140210
v -1.159312 -3.087358 -0.085987
v -2.748264 -3.086647 1.184077
v -1.378027 -3.087275 1.326795
v 1.447153 -3.088619 0.166887
v 0.225729 -3.088012 0.040948
v 0.329562 -3.088064 1.503894
v 1.444066 -3.088627 1.619376
v 1.634526 -3.088676 -1.677253
v 1.131544 -3.088445 -2.282499
v 1.361019 -3.088466 -5.239297
v 3.279463 -3.089361 -5.040502
v 4.969948 -3.090288 -4.865376
v 5.740056 -3.090911 -4.785460
v 5.375828 -3.090853 -1.976221
v 7.213653 -3.091312 -4.632817
v 6.555395 -3.091076 -2.009766
v 6.352461 -3.091000 -1.368397
v 6.292684 -3.090989 -0.490866
v 6.341376 -3.091035 0.205713
v 6.249006 -3.091079 2.112097
v 7.569681 -3.091753 -4.595952
v 7.555460 -3.091552 -1.960994
v 7.407586 -3.091507 -1.290324
v 7.386597 -3.091521 -0.638176
v 7.294664 -3.091472 0.033761
v 7.047114 -3.091446 2.194419
v -1.591801 -3.087052 -5.545194
v -0.647563 -3.087505 -5.447332
v 0.602465 -3.088124 -5.317896
v 0.324071 -3.088049 -2.004301
v -1.005331 -3.087423 -2.280400
v -2.527819 -3.086753 -2.161098
v -3.583437 -3.086149 -2.222984
v -4.955285 -3.085502 -2.357347
v -4.918682 -3.085507 -2.832364
v -3.528665 -3.086150 -2.648759
v -1.891710 -3.087007 -2.221910
v -6.309436 -3.084877 -2.441463
v -8.102499 -3.084032 -2.777828
v -6.180929 1.075798 -2.264305
v -6.278581 -3.084855 -3.167389
v -8.001040 -3.084085 -3.509622
v -1.321445 -1.559827 -1.954101
v -1.023636 -1.536373 -2.168030
v -8.493074 -3.083895 -3.534971
v -8.022473 -3.083967 -6.211764
v -8.599468 -3.083819 -2.805155
v -8.783284 -3.083744 -1.944430
v -8.999851 -3.083647 -1.000090
v -9.212149 -3.083565 0.515675
v -8.881609 -3.083791 1.073537
v -9.199314 -3.083674 0.521111
v -6.733377 -3.084822 1.294589
v -5.302289 -3.085474 1.443181
v -3.925684 -3.086096 1.587466
v -2.776608 -3.086586 1.703683
v -1.403831 -3.087238 1.848463
v 0.368479 -3.088142 2.027788
v 1.435334 -3.088605 2.136936
v 2.560452 -3.089225 2.251218
v 3.954833 -3.089956 2.392870
v 5.301938 -3.090609 2.527383
v 6.177577 -3.091034 2.615937
v 6.953786 -3.091418 2.694718
v 8.108376 -3.092026 -4.540136
v 8.006451 -3.091726 -1.933698
v 8.027921 -3.091707 -1.124182
v 8.049852 -3.091697 -0.697596
v 7.950214 -3.091681 0.065194
v 7.831604 -3.091698 2.275384
v 7.779646 -3.091692 2.779395
v 1.614825 1.263753 -1.567004
v 1.508029 -1.520528 -1.766549
v 0.255821 -1.594516 -1.960328
v -2.496488 -1.471428 -2.158441
v -1.294459 1.221230 -1.944317
v 0.358378 -1.541417 -1.679010
v 0.457607 1.331413 -1.781862
v 5.722050 0.942625 -0.675293
v 1.331865 -1.519938 -1.587662
v 1.395970 1.263088 -1.461128
v -2.216318 -1.460120 -2.075422
v -2.128474 1.223088 -1.911315
v -1.144961 -1.496968 -1.265491
v -2.362892 1.227484 -1.670788
v -2.428580 -1.467955 -1.856757
v -9.230682 -3.083724 1.047250
v -4.030235 2.453103 -0.998065
v -4.541099 2.411167 -1.006763
v 3.723503 2.268760 -0.762934
v 3.249117 2.256255 -0.885557
v 3.199281 2.246194 -1.961023
v 3.802555 2.356596 0.405029
v 1.604186 2.565837 -0.567089
v 0.931874 2.556473 -0.578755
v -1.838039 2.535526 -0.716523
v -2.539261 2.562509 -0.773222
v -2.415601 2.556896 -2.015397
v -1.110050 2.531077 -2.101371
v -1.238226 2.551835 -0.741735
v 0.224072 2.543266 -0.655810
v -3.899621 2.405081 -2.104005
v 0.292033 2.503229 -1.785060
v 1.527340 2.507363 -1.720100
vt 0.283374 0.582018
vt 0.283067 0.530622
vt 0.312131 0.530625
vt 0.310355 0.581493
vt 0.731211 0.574075
vt 0.730094 0.524350
vt 0.757500 0.524593
vt 0.762014 0.573144
vt 0.718998 0.615163
vt 0.716624 0.566671
vt 0.776509 0.478989
vt 0.779080 0.527952
vt 0.899285 0.480885
vt 0.934285 0.482043
vt 0.936751 0.503241
vt 0.902665 0.502894
vt 0.777741 0.479020
vt 0.822720 0.479390
vt 0.826333 0.503433
vt 0.779969 0.505586
vt 0.820667 0.422536
vt 0.895966 0.425056
vt 0.816377 0.479344
vt 0.805544 0.458125
vt 0.809162 0.479085
vt 0.799507 0.476194
vt 0.805418 0.503456
vt 0.792273 0.502740
vt 0.781251 0.187603
vt 0.767239 0.159543
vt 0.858487 0.154148
vt 0.880939 0.421468
vt 0.804458 0.421174
vt 0.766768 0.035312
vt 0.885275 0.037825
vt 0.697841 0.195723
vt 0.702101 0.164988
vt 0.769550 0.241294
vt 0.692871 0.237055
vt 0.763527 0.261057
vt 0.689321 0.257191
vt 0.784970 0.473108
vt 0.776977 0.473970
vt 0.721758 0.233775
vt 0.783668 0.239067
vt 0.796835 0.468955
vt 0.600573 0.577254
vt 0.597023 0.474452
vt 0.605861 0.473746
vt 0.642462 0.578314
vt 0.565701 0.581079
vt 0.563918 0.474978
vt 0.588824 0.474923
vt 0.574662 0.564252
vt 0.621634 0.491084
vt 0.570822 0.482183
vt 0.443271 0.580108
vt 0.403590 0.581959
vt 0.423058 0.475056
vt 0.441498 0.474488
vt 0.404190 0.476117
vt 0.416266 0.573180
vt 0.426800 0.572944
vt 0.466174 0.540150
vt 0.411260 0.480994
vt 0.475370 0.474229
vt 0.407295 0.514862
vt 0.410250 0.543147
vt 0.479422 0.579172
vt 0.456734 0.475090
vt 0.439631 0.277092
vt 0.452040 0.277429
vt 0.428798 0.277991
vt 0.462027 0.280535
vt 0.466484 0.471662
vt 0.471542 0.286186
vt 0.473693 0.470497
vt 0.475870 0.291577
vt 0.479250 0.470138
vt 0.415801 0.473644
vt 0.418567 0.283381
vt 0.410615 0.472949
vt 0.413778 0.287873
vt 0.407517 0.472699
vt 0.410308 0.293506
vt 0.453345 0.276907
vt 0.439631 0.185459
vt 0.454075 0.186357
vt 0.427710 0.277394
vt 0.430002 0.184560
vt 0.465267 0.277823
vt 0.481082 0.280014
vt 0.419054 0.277487
vt 0.417965 0.184560
vt 0.409997 0.277917
vt 0.411283 0.184243
vt 0.464192 0.186375
vt 0.480224 0.186861
vt 0.718282 0.034533
vt 0.636782 0.471273
vt 0.589245 0.269755
vt 0.601552 0.271384
vt 0.578656 0.271702
vt 0.575403 0.473569
vt 0.566017 0.277092
vt 0.563162 0.468561
vt 0.555697 0.293339
vt 0.615637 0.275800
vt 0.619811 0.469152
vt 0.625125 0.286749
vt 0.631131 0.464915
vt 0.601026 0.270207
vt 0.578426 0.270526
vt 0.555325 0.272902
vt 0.565428 0.272172
vt 0.614279 0.270375
vt 0.627289 0.270786
vt 0.576850 0.179170
vt 0.588887 0.178272
vt 0.563008 0.179170
vt 0.553904 0.178927
vt 0.600924 0.179170
vt 0.612359 0.179170
vt 0.623691 0.177617
vt 0.321885 0.570808
vt 0.320610 0.614676
vt 0.263874 0.510922
vt 0.267904 0.482100
vt 0.104402 0.512034
vt 0.106858 0.485341
vt 0.162307 0.481813
vt 0.239604 0.477863
vt 0.165170 0.431890
vt 0.241492 0.428800
vt 0.276437 0.463716
vt 0.280982 0.465743
vt 0.280329 0.484505
vt 0.275850 0.478233
vt 0.252323 0.464865
vt 0.252597 0.477544
vt 0.262457 0.463579
vt 0.262649 0.477425
vt 0.272227 0.159670
vt 0.275425 0.189686
vt 0.254352 0.424668
vt 0.186146 0.428394
vt 0.200366 0.159259
vt 0.339125 0.154016
vt 0.345745 0.189052
vt 0.244034 0.056992
vt 0.321671 0.056992
vt 0.162184 0.059687
vt 0.056113 0.165988
vt 0.033993 0.065976
vt 0.187628 0.280315
vt 0.180726 0.375913
vt 0.126232 0.374881
vt 0.085528 0.283672
vt 0.354362 0.249565
vt 0.357647 0.272640
vt 0.307785 0.274541
vt 0.285177 0.245080
vt 0.193053 0.206520
vt 0.065082 0.212452
vt 0.482964 0.151321
vt 0.402919 0.145931
vt 0.393290 0.045313
vt 0.476343 0.046212
vt 0.580461 0.044415
vt 0.558795 0.154016
vt 0.625599 0.146829
vt 0.647265 0.039024
vt 0.631402 0.237808
vt 0.638857 0.262458
vt 0.673989 0.368500
vt 0.631930 0.369810
vt 0.726102 0.365898
vt 0.652935 0.334951
vt 0.871590 0.275307
vt 0.905547 0.274930
vt 0.899204 0.360408
vt 0.879960 0.360960
vt 0.864771 0.197455
vt 0.896927 0.200971
vt 0.905529 0.240427
vt 0.869091 0.242947
vt 0.931330 0.039937
vt 0.889803 0.163014
vt 0.926683 0.276745
vt 0.917564 0.360973
vt 0.932095 0.242056
vt 0.934492 0.202528
vt 0.940133 0.166013
vt 0.972509 0.044669
vt 0.405230 0.248676
vt 0.403938 0.268682
vt 0.536689 0.262852
vt 0.533029 0.371346
vt 0.499317 0.371346
vt 0.499900 0.261167
vt 0.552958 0.265866
vt 0.556008 0.370540
vt 0.371058 0.369954
vt 0.327734 0.369954
vt 0.404412 0.368082
vt 0.185404 0.249406
vt 0.079412 0.254733
vt 0.285177 0.245080
vt 0.289538 0.272919
vt 0.275398 0.243383
vt 0.276076 0.210958
vt 0.285177 0.245080
vt 0.276137 0.480095
vt 0.262241 0.478041
vt 0.275016 0.244222
vt 0.389767 0.246627
vt 0.290624 0.277882
vt 0.482717 0.371682
vt 0.483753 0.262109
vt 0.431431 0.185912
vt 0.463273 0.278520
vt 0.099738 0.375200
vt 0.061666 0.282776
vt 0.054521 0.254028
vt 0.039330 0.211805
vt 0.026022 0.165988
vt 0.012327 0.069569
vt 0.021565 0.048228
vt 0.027373 0.042618
vt 0.154360 0.036329
vt 0.238016 0.031838
vt 0.320468 0.028244
vt 0.380049 0.021956
vt 0.475742 0.017464
vt 0.585878 0.017464
vt 0.650876 0.019261
vt 0.724902 0.016565
vt 0.766654 0.020355
vt 0.892210 0.018376
vt 0.936144 0.021072
vt 0.976052 0.019543
vt 0.945340 0.277643
vt 0.941036 0.361872
vt 0.954363 0.239361
vt 0.953149 0.210613
vt 0.960596 0.165115
vt 0.991147 0.041873
vt 0.646370 0.358833
vt 0.763008 0.261784
vt 0.994413 0.023252
vt 0.616122 0.567143
vt 0.574201 0.562673
vt 0.571380 0.498070
vt 0.629275 0.496613
vt 0.560162 0.206912
vt 0.610481 0.206908
vt 0.613345 0.258655
vt 0.596335 0.258195
vt 0.569090 0.255981
vt 0.622870 0.198917
vt 0.199936 0.471997
vt 0.216124 0.435552
vt 0.216589 0.472410
vt 0.637416 0.560503
vt 0.561867 0.260110
vt 0.579893 0.259298
vt 0.561610 0.199562
vt 0.182457 0.471898
vt 0.179743 0.435892
vt 0.621784 0.260199
vt 0.459180 0.290943
vt 0.452500 0.319694
vt 0.429361 0.291656
vt 0.431544 0.320773
vt 0.573750 0.419277
vt 0.563201 0.419170
vt 0.560532 0.340353
vt 0.571081 0.340460
vt 0.604263 0.319009
vt 0.597230 0.328310
vt 0.585209 0.315641
vt 0.811001 0.413618
vt 0.808567 0.178699
vt 0.852292 0.411208
vt 0.853696 0.178395
vt 0.624274 0.302361
vt 0.625004 0.445737
vt 0.630701 0.448050
vt 0.581388 0.292648
vt 0.598711 0.279485
vt 0.595091 0.306319
vt 0.620930 0.306689
vt 0.466469 0.240597
vt 0.466478 0.253506
vt 0.435541 0.253477
vt 0.433526 0.241915
vt 0.418014 0.296320
vt 0.433043 0.297196
vt 0.425454 0.308785
vt 0.419600 0.417839
vt 0.420706 0.335239
vt 0.410157 0.335168
vt 0.410920 0.418214
vt 0.433614 0.276032
vt 0.472699 0.286743
vt 0.470482 0.284202
vt 0.472665 0.281156
vt 0.475396 0.283899
vt 0.475312 0.290758
vt 0.479945 0.294781
vt 0.477053 0.281188
vt 0.476917 0.284936
vt 0.471987 0.285141
vt 0.472115 0.281601
vt 0.428618 0.335293
vt 0.428280 0.417465
vt 0.419763 0.317476
vt 0.017141 0.052500
vt 0.761484 0.574301
vt 0.760677 0.524576
vt 0.788627 0.029078
vt 0.788816 0.014121
vt 0.762754 0.263880
vt 0.769550 0.241294
vt 0.770323 0.238472
vt 0.767371 0.188838
vt 0.767371 0.188838
vt 0.788221 0.153877
vt 0.788221 0.153877
vn -0.065843 -0.121948 0.990350
vn -0.038135 -0.101173 0.994138
vn -0.038135 -0.101173 0.994138
vn -0.010380 -0.080275 0.996719
vn -0.060246 0.159337 0.985384
vn -0.156469 0.080397 0.984405
vn -0.156469 0.080397 0.984405
vn -0.250267 0.000211 0.968177
vn -0.998881 0.010118 0.046192
vn -0.998964 0.028353 0.035589
vn -0.998964 0.028353 0.035589
vn -0.998603 0.046576 0.024970
vn -0.996695 -0.002155 0.081203
vn -0.997038 -0.015099 0.075410
vn -0.997038 -0.015099 0.075410
vn -0.997181 -0.028040 0.069602
vn 0.109857 -0.092624 0.989622
vn 0.075253 -0.068103 0.994836
vn 0.035502 -0.060667 0.997527
vn -0.024590 -0.030215 0.999241
vn -0.281564 0.056311 0.957889
vn -0.185689 0.002124 0.982606
vn -0.311099 0.027765 0.949972
vn -0.207066 -0.001204 0.978326
vn -0.044103 -0.051916 0.997677
vn -0.051393 -0.038841 0.997923
vn -0.051393 -0.038841 0.997923
vn -0.058671 -0.025756 0.997945
vn -0.975127 0.002298 -0.221635
vn -0.981775 0.031704 -0.187383
vn -0.981775 0.031704 -0.187383
vn -0.986379 0.061044 -0.152741
vn -0.997810 0.057243 -0.033157
vn -0.997147 0.073682 -0.016403
vn -0.997147 0.073682 -0.016403
vn -0.995935 0.090079 0.000359
vn -0.988387 0.092651 -0.120443
vn -0.988128 0.079860 -0.131245
vn -0.988128 0.079860 -0.131245
vn -0.987592 0.067047 -0.142009
vn -0.999992 0.003217 0.002396
vn -0.999217 0.007907 -0.038776
vn -0.999217 0.007907 -0.038776
vn -0.996725 0.012583 -0.079881
vn -0.100230 0.042086 0.994074
vn -0.089402 0.038579 0.995248
vn -0.089402 0.038579 0.995248
vn -0.078563 0.035067 0.996292
vn 0.000512 1.000000 -0.000001
vn 0.000470 1.000000 0.000010
vn 0.000494 1.000000 0.000045
vn 0.000510 1.000000 0.000043
vn 0.000517 1.000000 0.000029
vn 0.000512 1.000000 0.000027
vn 0.000516 1.000000 0.000039
vn 0.000536 1.000000 0.000119
vn 0.000512 1.000000 0.000075
vn 0.000592 1.000000 0.000089
vn 0.000486 1.000000 0.000046
vn -0.831543 -0.018358 0.555157
vn -0.869002 -0.013971 0.494612
vn -0.869002 -0.013971 0.494612
vn -0.902039 -0.009512 0.431550
vn 0.000449 1.000000 -0.000010
vn 0.000449 1.000000 -0.000010
vn 0.000449 1.000000 -0.000010
vn -0.042243 0.028053 0.998713
vn 0.005873 0.016425 0.999848
vn 0.005873 0.016425 0.999848
vn 0.053974 0.004756 0.998531
vn -0.086315 0.013555 0.996176
vn -0.056490 0.024801 0.998095
vn -0.074740 0.016180 0.997072
vn -0.039616 0.030359 0.998754
vn -0.091167 0.025015 0.995521
vn -0.073774 0.032858 0.996734
vn -0.088264 0.021159 0.995872
vn -0.999612 0.014629 -0.023699
vn -0.999612 0.014629 -0.023699
vn -0.999612 0.014629 -0.023699
vn -0.067161 0.021353 0.997514
vn -0.066458 0.018900 0.997610
vn -0.046172 0.021983 0.998692
vn -0.072665 0.014230 0.997255
vn -0.054382 0.025557 0.998193
vn -0.994988 -0.014158 -0.098988
vn -0.995916 -0.005314 -0.090126
vn -0.995916 -0.005314 -0.090126
vn -0.996688 0.003532 -0.081249
vn 0.992066 0.024115 0.123381
vn 0.994038 0.008616 0.108695
vn 0.994038 0.008616 0.108695
vn 0.995552 -0.006887 0.093958
vn 0.061360 0.018392 0.997946
vn 0.222074 -0.001940 0.975028
vn 0.132028 0.020225 0.991040
vn -0.115140 -0.008927 0.993309
vn 0.243397 -0.020468 0.969711
vn -0.031338 -0.005677 0.999493
vn 0.215702 -0.024017 0.976164
vn -0.452970 -0.007909 0.891491
vn -0.405951 -0.022722 0.913612
vn 0.748568 -0.020215 0.662749
vn 0.659823 -0.032075 0.750736
vn 0.841148 -0.002825 0.540798
vn 0.908406 -0.003731 0.418072
vn 0.997983 0.002089 0.063453
vn 0.999897 0.011709 0.008321
vn -0.878326 0.022382 0.477538
vn -0.742975 0.003877 0.669308
vn -0.926363 0.032891 0.375192
vn -0.922844 0.025466 0.384331
vn -0.982830 0.029553 0.182134
vn -0.999564 0.029512 -0.000877
vn 0.053796 0.884778 0.462897
vn 0.053796 0.884778 0.462897
vn 0.053796 0.884778 0.462897
vn -0.039058 -0.017367 0.999086
vn -0.041413 -0.016943 0.998999
vn -0.041413 -0.016943 0.998999
vn -0.043767 -0.016519 0.998905
vn -0.074191 0.996787 0.030203
vn -0.074191 0.996787 0.030203
vn -0.074191 0.996787 0.030203
vn -0.032996 -0.020122 0.999253
vn -0.023060 -0.019007 0.999553
vn -0.023060 -0.019007 0.999553
vn -0.013121 -0.017890 0.999754
vn -0.051799 0.866881 0.495818
vn 0.014374 0.977054 0.212507
vn 0.014374 0.977054 0.212507
vn 0.079157 0.992666 -0.091370
vn -0.047029 0.995261 -0.085106
vn -0.053871 0.995676 -0.075673
vn -0.053871 0.995676 -0.075673
vn -0.060705 0.995956 -0.066231
vn 0.045474 0.991887 0.118714
vn 0.038638 0.995225 0.089640
vn 0.038638 0.995225 0.089640
vn 0.031767 0.997663 0.060485
vn -0.130574 -0.019952 0.991238
vn -0.097982 -0.016672 0.995049
vn -0.097982 -0.016672 0.995049
vn -0.065285 -0.013374 0.997777
vn -0.071698 -0.009758 0.997379
vn -0.060711 -0.011874 0.998085
vn -0.060711 -0.011874 0.998085
vn -0.049717 -0.013989 0.998665
vn 0.092208 0.988564 0.119328
vn 0.063969 0.996257 0.058141
vn 0.063969 0.996257 0.058141
vn 0.035436 0.999366 -0.003313
vn 0.003434 -0.016987 0.999850
vn -0.051864 -0.022765 0.998395
vn -0.051864 -0.022765 0.998395
vn -0.107002 -0.028474 0.993851
vn 0.301621 -0.034948 0.952787
vn 0.126599 -0.062971 0.989953
vn 0.126599 -0.062971 0.989953
vn -0.052576 -0.088929 0.994649
vn 0.000536 1.000000 0.000001
vn -0.061579 0.040291 0.997289
vn -0.084584 0.046168 0.995346
vn -0.072037 0.036340 0.996740
vn 0.307411 0.019616 0.951375
vn 0.505357 0.009514 0.862858
vn -0.314818 0.042345 0.948207
vn -0.537851 0.031601 0.842448
vn -0.756146 0.029716 0.653728
vn -0.903754 0.026430 0.427236
vn -0.998917 0.030468 -0.035167
vn -0.998216 0.034326 -0.048848
vn 0.687694 0.017449 0.725791
vn 0.669997 0.006711 0.742333
vn 0.959334 -0.011555 0.282039
vn 0.944795 -0.023246 0.326836
vn 0.000575 0.922009 -0.387168
vn 0.000575 0.922009 -0.387168
vn 0.000575 0.922009 -0.387168
vn 0.033012 0.910643 -0.411872
vn 0.033012 0.910643 -0.411872
vn 0.033012 0.910643 -0.411872
vn 0.124862 0.990199 -0.062580
vn 0.061144 0.990738 -0.121243
vn 0.061144 0.990738 -0.121243
vn -0.003032 0.983845 -0.178996
vn -0.020060 0.979910 -0.198428
vn -0.111846 0.985788 -0.125353
vn -0.111846 0.985788 -0.125353
vn -0.202088 0.978062 -0.050548
vn -0.011341 0.924112 -0.381952
vn -0.039688 0.955210 -0.293257
vn -0.039688 0.955210 -0.293257
vn -0.067652 0.977101 -0.201736
vn 0.103251 0.919842 -0.378456
vn 0.117067 0.955736 -0.269932
vn 0.117067 0.955736 -0.269932
vn 0.129331 0.978960 -0.157830
vn -0.124559 0.007731 0.992182
vn -0.107818 0.006135 0.994152
vn -0.107818 0.006135 0.994152
vn -0.091045 0.004538 0.995836
vn -0.148910 0.020302 0.988642
vn -0.107212 0.015309 0.994118
vn -0.107212 0.015309 0.994118
vn -0.065322 0.010288 0.997811
vn -0.059674 0.022655 0.997961
vn -0.062486 0.022252 0.997798
vn -0.062486 0.022252 0.997798
vn -0.065299 0.021849 0.997627
vn 0.015745 0.009423 0.999832
vn -0.011935 0.012213 0.999854
vn -0.011935 0.012213 0.999854
vn -0.039604 0.014994 0.999103
vn -0.039318 0.015006 0.999114
vn -0.052316 0.016226 0.998499
vn -0.052316 0.016226 0.998499
vn -0.065305 0.017444 0.997713
vn -0.039427 0.018476 0.999052
vn -0.084520 0.022734 0.996162
vn -0.084520 0.022734 0.996162
vn -0.129438 0.026946 0.991221
vn -0.016002 0.999546 -0.025545
vn -0.016002 0.999546 -0.025545
vn -0.016002 0.999546 -0.025545
vn 0.995108 -0.030400 0.094004
vn 0.994335 -0.012494 0.105553
vn 0.994335 -0.012494 0.105553
vn 0.993111 0.005417 0.117054
vn 0.996144 0.061858 0.062221
vn 0.997415 0.046080 0.055131
vn 0.997415 0.046080 0.055131
vn 0.998387 0.030288 0.048025
vn 0.011749 0.050160 0.998672
vn -0.000801 -0.002175 0.999997
vn -0.000801 -0.002175 0.999997
vn -0.013349 -0.054504 0.998424
vn 0.016908 -0.715420 -0.698490
vn -0.010082 -0.882358 -0.470470
vn -0.010082 -0.882358 -0.470470
vn -0.036259 -0.978188 -0.204534
vn -0.049863 -0.136574 0.989374
vn -0.012762 -0.078823 0.996807
vn -0.012762 -0.078823 0.996807
vn 0.024401 -0.020697 0.999488
vn 0.995911 0.026569 0.086343
vn 0.998235 0.006802 0.059004
vn 0.998235 0.006802 0.059004
vn 0.999416 -0.012974 0.031597
vn 0.994493 -0.085044 0.061251
vn 0.992157 -0.024925 0.122489
vn 0.992157 -0.024925 0.122489
vn 0.982509 0.035377 0.182823
vn 0.986415 -0.070691 0.148285
vn 0.987733 -0.077908 0.135329
vn 0.987733 -0.077908 0.135329
vn 0.988832 -0.085107 0.122342
vn 0.993738 -0.026826 0.108466
vn 0.994148 -0.042976 0.099114
vn 0.994148 -0.042976 0.099114
vn 0.994211 -0.059112 0.089728
vn 0.994081 -0.018281 0.107093
vn 0.991610 -0.020271 0.127667
vn 0.991610 -0.020271 0.127667
vn 0.988709 -0.022252 0.148186
vn -0.042538 0.019907 0.998897
vn -0.105306 0.001227 0.994439
vn -0.105306 0.001227 0.994439
vn -0.167620 -0.017459 0.985697
vn 0.000453 1.000000 0.000035
vn 0.000481 1.000000 0.000035
vn 0.000433 1.000000 0.000051
vn 0.000451 1.000000 0.000060
vn 0.000446 1.000000 0.000010
vn 0.000457 1.000000 0.000016
vn 0.000467 1.000000 0.000049
vn 0.000473 1.000000 0.000019
vn 0.000500 1.000000 0.000026
vn 0.000076 0.999994 0.003612
vn 0.000461 1.000000 0.000010
vn 0.000476 1.000000 0.000017
vn 0.000440 1.000000 0.000017
vn 0.000488 1.000000 0.000045
vn 0.000505 1.000000 0.000034
vn 0.000483 1.000000 0.000078
vn 0.000465 1.000000 0.000036
vn 0.000465 1.000000 0.000010
vn 0.000444 1.000000 0.000049
vn 0.000468 1.000000 0.000038
vn 0.000463 1.000000 0.000030
vn 0.000451 1.000000 -0.000045
vn 0.000478 1.000000 0.000022
vn 0.000466 1.000000 -0.000049
vn 0.000464 1.000000 -0.000067
vn 0.000438 1.000000 -0.000058
vn 0.000458 1.000000 -0.000072
vn 0.000514 1.000000 -0.000005
vn 0.000456 1.000000 -0.000029
vn 0.000500 1.000000 -0.000006
vn 0.000472 1.000000 0.000023
vn 0.000455 1.000000 -0.000008
vn 0.000471 1.000000 -0.000015
vn 0.000475 1.000000 0.000023
vn 0.000487 1.000000 0.000031
vn 0.000475 1.000000 0.000012
vn 0.000558 1.000000 0.000015
vn 0.000528 1.000000 0.000005
vn 0.000482 1.000000 0.000063
vn 0.000475 1.000000 0.000042
vn 0.000498 1.000000 0.000037
vn 0.000482 1.000000 0.000016
vn 0.000468 1.000000 0.000070
vn 0.000499 1.000000 0.000023
vn 0.000419 1.000000 0.000043
vn 0.000471 1.000000 0.000018
vn 0.000472 1.000000 0.000006
vn 0.000508 1.000000 0.000012
vn 0.000510 1.000000 0.000021
vn 0.000505 1.000000 0.000027
vn 0.000493 1.000000 0.000025
vn 0.000471 1.000000 0.000018
vn 0.000493 1.000000 0.000027
vn 0.000456 1.000000 0.000028
vn 0.000738 1.000000 0.000057
vn 0.000509 1.000000 -0.000038
vn 0.000349 1.000000 -0.000033
vn 0.000421 1.000000 0.000022
vn 0.000666 1.000000 -0.000021
vn 0.000511 1.000000 0.000018
vn 0.000456 1.000000 0.000007
vn 0.000485 1.000000 -0.000011
vn 0.000313 1.000000 -0.000127
vn 0.000488 1.000000 0.000019
vn 0.000501 1.000000 0.000039
vn 0.000581 1.000000 -0.000026
vn 0.000881 1.000000 -0.000072
vn 0.000410 1.000000 0.000020
vn 0.000374 1.000000 0.000004
vn 0.000396 1.000000 0.000015
vn 0.000391 1.000000 0.000028
vn 0.000523 1.000000 0.000099
vn 0.000473 1.000000 0.000137
vn 0.000478 1.000000 0.000006
vn 0.000476 1.000000 0.000023
vn 0.000476 1.000000 0.000019
vn 0.000485 1.000000 0.000029
vn 0.000466 1.000000 0.000006
vn 0.000470 1.000000 0.000005
vn 0.000485 1.000000 0.000024
vn 0.000457 1.000000 0.000044
vn 0.000435 1.000000 0.000015
vn 0.995132 -0.031882 0.093252
vn 0.995860 -0.032167 0.085023
vn 0.995860 -0.032167 0.085023
vn 0.996519 -0.032449 0.076788
vn 0.000460 1.000000 0.000023
vn 0.000461 1.000000 0.000025
vn 0.000461 1.000000 0.000025
vn 0.000462 1.000000 0.000027
vn -0.085976 -0.047574 0.995161
vn -0.073977 -0.044065 0.996286
vn -0.073977 -0.044065 0.996286
vn -0.061965 -0.040548 0.997254
vn 0.992726 -0.006473 0.120221
vn 0.991613 -0.003839 0.129189
vn 0.991613 -0.003839 0.129189
vn 0.990411 -0.001204 0.138146
vn 0.000425 1.000000 0.000040
vn 0.000400 1.000000 -0.000007
vn 0.000456 1.000000 0.000011
vn 0.000514 1.000000 0.000019
vn 0.000536 1.000000 0.000024
vn -0.000724 0.999922 0.012506
vn 0.000231 1.000000 0.000077
vn 0.000389 1.000000 0.000024
vn 0.000461 1.000000 -0.000022
vn 0.000459 1.000000 -0.000006
vn 0.000449 1.000000 -0.000052
vn 0.000461 1.000000 -0.000078
vn 0.000482 1.000000 0.000005
vn 0.000477 1.000000 0.000063
vn 0.000515 1.000000 -0.000032
vn 0.000539 1.000000 -0.000035
vn 0.000499 1.000000 -0.000040
vn 0.000487 1.000000 -0.000023
vn 0.000492 1.000000 -0.000018
vn 0.000428 1.000000 0.000006
vn 0.000369 1.000000 -0.000038
vn 0.000453 1.000000 -0.000087
vn 0.000302 1.000000 -0.000014
vn 0.000264 1.000000 -0.000012
vn 0.000302 1.000000 0.000004
vn 0.000318 1.000000 0.000023
vn 0.000504 1.000000 -0.000077
vn 0.000504 1.000000 -0.000077
vn 0.000504 1.000000 -0.000077
vn 0.000325 1.000000 0.000014
vn -0.996785 0.050997 -0.061797
vn -0.996785 0.050997 -0.061797
vn -0.996785 0.050997 -0.061797
vn 0.999321 -0.016961 0.032719
vn 0.999321 -0.016961 0.032719
vn 0.999321 -0.016961 0.032719
vn 0.997339 0.056996 0.045460
vn 0.989569 0.086390 0.115279
vn 0.991245 0.078393 0.106245
vn -0.997065 0.009082 -0.076022
vn -0.994435 -0.017160 -0.103942
vn -0.995590 -0.007784 -0.093488
vn -0.997372 0.029971 -0.065956
vn -0.997372 0.029971 -0.065956
vn -0.997372 0.029971 -0.065956
vn 0.995686 0.061491 -0.069479
vn 0.995686 0.061491 -0.069479
vn 0.995686 0.061491 -0.069479
vn 0.999060 0.042112 0.010304
vn 0.996965 0.013487 -0.076672
vn -0.990873 -0.041503 -0.128252
vn -0.999147 0.019440 -0.036426
vn -0.999147 0.019440 -0.036426
vn -0.999147 0.019440 -0.036426
vn -0.997907 0.063053 0.014343
vn -0.997907 0.063053 0.014343
vn -0.997907 0.063053 0.014343
vn -0.997306 0.010961 -0.072535
vn 0.978394 -0.008767 -0.206565
vn 0.983388 -0.002367 -0.181500
vn -0.947480 0.021302 -0.319106
vn -0.934494 0.025951 -0.355032
vn -0.200418 0.973439 -0.110676
vn -0.200418 0.973439 -0.110676
vn -0.200418 0.973439 -0.110676
vn 0.998942 0.029595 0.035195
vn 0.998888 0.029883 0.036464
vn 0.998888 0.029883 0.036464
vn 0.998832 0.030171 0.037734
vn 0.985317 -0.024690 -0.168941
vn -0.023456 0.999376 -0.026395
vn -0.023456 0.999376 -0.026395
vn -0.023456 0.999376 -0.026395
vn 0.991299 -0.016899 -0.130544
vn -0.004429 0.982932 -0.183917
vn -0.027628 0.992527 -0.118853
vn -0.027628 0.992527 -0.118853
vn -0.050692 0.997296 -0.053210
vn -0.002889 0.999937 -0.010861
vn -0.002889 0.999937 -0.010861
vn -0.002889 0.999937 -0.010861
vn -0.844654 0.057502 -0.532215
vn -0.942268 0.046831 -0.331570
vn 0.991095 0.002050 0.133140
vn 0.991095 0.002050 0.133140
vn 0.991095 0.002050 0.133140
vn 0.194836 0.971767 0.133069
vn 0.045300 0.998119 0.041308
vn 0.045300 0.998119 0.041308
vn -0.105661 0.993055 -0.051753
vn 0.239092 0.970943 -0.010251
vn 0.054610 0.997561 -0.043482
vn 0.054610 0.997561 -0.043482
vn -0.131830 0.988419 -0.075155
vn 0.171509 0.716315 -0.676371
vn 0.120841 0.951384 -0.283312
vn 0.120841 0.951384 -0.283312
vn 0.044515 0.984455 0.169900
vn -0.717153 0.065911 -0.693792
vn -0.715582 0.065703 -0.695432
vn -0.039559 0.999214 -0.002599
vn -0.039559 0.999214 -0.002599
vn -0.039559 0.999214 -0.002599
vn -0.000873 0.999921 0.012548
f 2/2/1 1/3/2 227/1/3
f 227/1/3 1/3/2 226/4/4
f 4/6/5 3/7/6 229/5/7
f 229/5/7 3/7/6 228/319/8
f 230/9/9 5/10/10 229/5/11
f 229/5/11 5/10/10 4/6/12
f 3/320/13 6/11/14 228/8/15
f 228/8/15 6/11/14 231/12/16
f 8/14/17 7/15/18 11/13/19
f 11/13/19 7/15/18 12/16/20
f 6/17/21 9/18/22 231/20/23
f 231/20/23 9/18/22 10/19/24
f 11/13/19 12/16/20 9/18/22
f 9/18/22 12/16/20 10/19/24
f 9/18/25 14/21/26 11/13/27
f 11/13/27 14/21/26 13/22/28
f 9/18/29 18/23/30 14/21/31
f 14/21/31 18/23/30 17/24/32
f 18/23/33 20/25/34 17/24/35
f 17/24/35 20/25/34 19/26/36
f 20/25/37 16/27/38 19/26/39
f 19/26/39 16/27/38 15/28/40
f 19/26/41 22/29/42 17/24/43
f 17/24/43 22/29/42 21/328/44
f 24/31/45 23/32/46 21/329/47
f 21/329/47 23/32/46 17/33/48
f 26/321/49 25/35/50 21/329/51
f 21/329/51 25/35/50 24/31/52
f 22/326/53 28/36/54 21/30/51
f 21/30/51 28/36/54 27/37/55
f 30/324/56 29/39/57 22/326/53
f 22/326/53 29/39/57 28/36/54
f 30/324/56 32/323/58 29/39/57
f 29/39/57 32/323/58 31/41/59
f 30/325/60 34/42/61 32/40/62
f 32/40/62 34/42/61 33/43/63
f 22/327/64 36/44/65 30/38/66
f 35/45/67 37/46/68 30/325/69
f 30/325/69 37/46/68 34/42/70
f 39/48/71 78/49/72 233/47/73
f 233/47/73 78/49/72 232/50/74
f 239/51/75 40/52/76 79/53/77
f 239/54/78 41/55/79 40/56/80
f 235/58/81 48/59/82 234/57/83
f 234/57/83 48/59/82 43/60/84
f 235/58/81 44/61/85 48/59/82
f 235/62/86 236/63/87 44/65/88
f 44/65/88 236/63/87 45/64/89
f 46/67/90 237/68/91 42/66/92
f 42/66/92 237/68/91 238/69/93
f 47/70/94 42/66/95 238/69/96
f 50/71/97 49/72/98 43/60/99
f 43/60/99 49/72/98 47/70/100
f 43/60/99 48/59/101 50/71/97
f 50/71/97 48/59/101 51/73/102
f 53/74/103 52/75/104 49/72/98
f 49/72/98 52/75/104 47/70/100
f 55/76/105 54/77/106 53/74/103
f 53/74/103 54/77/106 52/75/104
f 55/76/105 57/78/107 54/77/106
f 54/77/106 57/78/107 56/79/108
f 59/80/109 58/81/110 48/59/101
f 48/59/101 58/81/110 51/73/102
f 61/82/111 60/83/112 59/80/109
f 59/80/109 60/83/112 58/81/110
f 61/82/111 63/84/113 60/83/112
f 60/83/112 63/84/113 62/85/114
f 50/71/115 64/86/116 49/72/117
f 50/71/118 66/87/119 64/86/120
f 64/86/120 66/87/119 65/88/121
f 51/73/122 67/89/123 50/71/124
f 68/90/125 66/87/126 67/89/127
f 67/89/127 66/87/126 50/71/128
f 64/86/129 69/91/130 49/72/131
f 49/72/131 69/91/130 53/74/132
f 69/91/133 70/92/134 53/74/135
f 53/74/135 70/92/134 55/76/136
f 58/81/137 71/93/138 51/73/139
f 51/73/139 71/93/138 67/89/140
f 67/89/141 71/93/142 68/90/143
f 68/90/143 71/93/142 72/94/144
f 74/95/145 73/96/146 71/93/147
f 71/93/147 73/96/146 72/94/148
f 71/93/149 58/81/150 74/95/151
f 74/95/151 58/81/150 60/83/152
f 65/88/153 75/97/154 64/86/155
f 64/86/155 75/97/154 69/91/156
f 75/97/157 76/98/158 69/91/159
f 69/91/159 76/98/158 70/92/160
f 21/30/51 27/37/55 26/34/49
f 26/34/49 27/37/55 77/99/161
f 78/49/72 38/100/162 232/50/74
f 239/51/75 79/53/77 233/47/73
f 233/47/73 79/53/77 39/48/71
f 39/48/163 81/101/164 78/49/165
f 78/49/165 81/101/164 80/102/166
f 39/48/163 79/53/167 81/101/164
f 81/101/164 79/53/167 82/103/168
f 79/53/167 84/104/169 82/103/168
f 82/103/168 84/104/169 83/105/170
f 84/104/169 86/106/171 83/105/170
f 83/105/170 86/106/171 85/107/172
f 88/108/173 87/109/174 80/102/166
f 80/102/166 87/109/174 78/49/165
f 88/108/173 90/110/175 87/109/174
f 87/109/174 90/110/175 89/111/176
f 81/101/177 91/112/178 80/102/179
f 82/103/180 92/113/181 81/101/182
f 85/107/183 94/114/184 83/105/185
f 83/105/185 94/114/184 93/115/186
f 96/116/187 95/117/188 88/108/189
f 88/108/189 95/117/188 90/110/190
f 91/112/191 96/116/192 80/102/193
f 80/102/193 96/116/192 88/108/194
f 92/113/195 82/103/196 93/115/197
f 93/115/197 82/103/196 83/105/198
f 92/113/199 98/118/200 81/101/201
f 81/101/201 98/118/200 97/119/202
f 93/115/203 99/120/204 92/113/205
f 92/113/205 99/120/204 98/118/206
f 93/115/207 94/114/208 99/120/209
f 99/120/209 94/114/208 100/121/210
f 81/101/211 97/119/212 91/112/213
f 91/112/213 97/119/212 101/122/214
f 91/112/215 101/122/216 96/116/217
f 96/116/217 101/122/216 102/123/218
f 96/116/219 102/123/220 95/117/221
f 95/117/221 102/123/220 103/124/222
f 62/85/223 74/95/224 60/83/225
f 104/125/226 240/126/227 1/3/228
f 1/3/228 240/126/227 226/4/229
f 106/127/230 105/128/231 227/1/232
f 227/1/232 105/128/231 2/2/233
f 106/127/234 108/129/235 105/128/236
f 105/128/236 108/129/235 107/130/237
f 107/130/238 110/131/239 105/128/240
f 105/128/240 110/131/239 109/132/241
f 112/133/242 111/134/243 110/131/244
f 110/131/244 111/134/243 109/132/245
f 114/136/246 113/137/247 119/135/248
f 119/135/248 113/137/247 120/138/249
f 115/139/250 116/140/251 111/134/252
f 111/134/252 116/140/251 109/132/253
f 117/141/254 118/142/255 115/139/256
f 115/139/256 118/142/255 116/140/257
f 119/135/258 120/138/259 117/141/260
f 117/141/260 120/138/259 118/142/261
f 122/143/262 121/144/263 115/139/264
f 115/139/264 121/144/263 117/141/265
f 115/145/266 124/146/267 122/143/268
f 122/143/268 124/146/267 123/147/269
f 126/148/270 125/149/271 122/143/272
f 122/143/272 125/149/271 121/144/273
f 122/143/272 128/150/274 126/148/270
f 126/148/270 128/150/274 127/151/275
f 123/147/276 129/152/277 122/143/272
f 122/143/272 129/152/277 128/150/274
f 123/147/276 131/153/278 129/152/277
f 129/152/277 131/153/278 130/154/279
f 179/155/280 133/156/281 180/158/282
f 180/158/282 133/156/281 132/157/283
f 171/159/284 174/160/285 172/162/286
f 172/162/286 174/160/285 173/161/287
f 136/163/288 137/164/289 123/147/276
f 123/147/276 137/164/289 131/153/278
f 76/98/290 75/97/291 139/165/292
f 139/165/292 75/97/291 138/166/293
f 75/97/291 65/88/294 138/166/293
f 65/88/294 66/87/295 138/166/293
f 66/87/295 68/90/296 138/166/293
f 68/90/296 72/94/297 138/166/293
f 72/94/297 73/96/298 138/166/293
f 125/149/271 126/148/270 73/96/299
f 73/96/299 126/148/270 138/166/300
f 127/151/275 140/167/301 126/148/270
f 126/148/270 140/167/301 138/166/300
f 140/167/301 141/168/302 138/166/300
f 138/166/300 141/168/302 139/165/303
f 144/169/304 143/170/305 141/168/302
f 141/168/302 143/170/305 139/165/303
f 100/121/306 143/170/307 99/120/308
f 143/170/307 142/171/309 99/120/308
f 99/120/308 142/171/309 98/118/310
f 98/118/310 142/171/309 97/119/311
f 97/119/311 142/171/309 101/122/312
f 101/122/312 142/171/309 102/123/313
f 142/171/309 103/124/314 102/123/313
f 143/170/305 100/121/315 139/165/303
f 139/165/303 100/121/315 76/98/316
f 145/172/317 142/171/318 144/169/304
f 144/169/304 142/171/318 143/170/305
f 145/172/317 77/99/161 142/171/318
f 142/171/318 77/99/161 27/37/55
f 142/171/318 27/37/55 103/124/319
f 103/124/319 27/37/55 28/36/54
f 29/39/57 146/173/320 28/36/54
f 28/36/54 146/173/320 103/124/319
f 147/174/321 146/173/320 31/41/59
f 31/41/59 146/173/320 29/39/57
f 31/41/59 149/175/322 147/174/321
f 147/174/321 149/175/322 148/176/323
f 31/41/59 32/323/58 149/175/322
f 149/175/322 32/323/58 150/177/324
f 32/323/58 152/178/325 150/177/324
f 152/179/325 154/180/326 151/182/327
f 151/182/327 154/180/326 153/181/328
f 156/184/329 155/185/330 36/183/331
f 36/183/331 155/185/330 35/186/332
f 155/185/330 154/180/326 35/186/332
f 35/186/332 154/180/326 152/179/325
f 25/35/50 158/187/333 24/31/52
f 24/31/52 158/187/333 157/188/334
f 157/188/334 156/184/329 24/31/52
f 24/31/52 156/184/329 36/183/331
f 154/180/326 160/189/335 153/181/328
f 153/181/328 160/189/335 159/190/336
f 155/185/330 161/191/337 154/180/326
f 154/180/326 161/191/337 160/189/335
f 156/184/329 162/192/338 155/185/330
f 155/185/330 162/192/338 161/191/337
f 157/188/334 163/193/339 156/184/329
f 156/184/329 163/193/339 162/192/338
f 158/187/333 164/194/340 157/188/334
f 157/188/334 164/194/340 163/193/339
f 174/160/285 170/195/341 175/196/342
f 168/197/343 167/198/344 169/200/345
f 169/200/345 167/198/344 166/199/346
f 100/121/315 168/197/343 76/98/316
f 76/98/316 168/197/343 169/200/345
f 168/197/343 147/201/321 167/198/344
f 167/198/344 147/201/321 148/202/323
f 73/96/299 170/195/341 125/149/271
f 125/149/271 170/195/341 171/159/284
f 125/149/271 171/159/284 121/144/273
f 121/144/273 171/159/284 172/162/286
f 174/160/285 135/203/347 173/161/287
f 173/161/287 135/203/347 134/204/348
f 175/196/342 165/205/349 174/160/285
f 174/160/285 165/205/349 135/203/347
f 136/163/288 176/206/350 137/164/289
f 137/164/289 176/206/350 177/207/351
f 119/135/352 172/208/353 114/136/354
f 114/136/354 172/208/353 173/209/355
f 176/210/356 136/211/357 172/162/358
f 172/162/358 136/211/357 121/144/359
f 119/213/360 178/214/361 172/212/362
f 172/212/362 178/214/361 176/215/363
f 176/206/350 179/155/280 177/207/351
f 177/207/351 179/155/280 180/158/282
f 133/216/281 179/217/280 134/204/348
f 134/204/348 179/217/280 173/161/287
f 166/199/346 165/218/349 169/200/345
f 169/200/345 165/218/349 175/219/342
f 70/92/364 76/98/365 222/221/366
f 222/221/366 76/98/365 169/220/367
f 132/157/283 184/222/368 180/158/282
f 180/158/282 184/222/368 183/223/369
f 185/224/370 177/207/351 183/223/369
f 183/223/369 177/207/351 180/158/282
f 186/225/371 137/164/289 185/224/370
f 185/224/370 137/164/289 177/207/351
f 187/226/372 131/153/278 186/225/371
f 186/225/371 131/153/278 137/164/289
f 188/227/373 130/154/279 187/226/372
f 187/226/372 130/154/279 131/153/278
f 130/154/279 225/228/374 189/229/375
f 191/230/376 129/152/277 189/229/375
f 189/229/375 129/152/277 130/154/279
f 192/231/377 128/150/274 191/230/376
f 191/230/376 128/150/274 129/152/277
f 193/232/378 127/151/275 192/231/377
f 192/231/377 127/151/275 128/150/274
f 127/151/275 193/232/378 140/167/301
f 140/167/301 193/232/378 194/233/379
f 195/234/380 141/168/302 194/233/379
f 194/233/379 141/168/302 140/167/301
f 196/235/381 144/169/304 195/234/380
f 195/234/380 144/169/304 141/168/302
f 197/236/382 145/172/317 196/235/381
f 196/235/381 145/172/317 144/169/304
f 198/237/383 77/99/161 197/236/382
f 197/236/382 77/99/161 145/172/317
f 199/238/384 26/34/49 198/237/383
f 198/237/383 26/34/49 77/99/161
f 200/239/385 25/35/50 199/322/384
f 199/322/384 25/35/50 26/321/49
f 201/240/386 158/187/333 200/239/385
f 200/239/385 158/187/333 25/35/50
f 201/240/386 202/241/387 158/187/333
f 158/187/333 202/241/387 164/194/340
f 204/242/388 203/243/389 160/189/335
f 160/189/335 203/243/389 159/190/336
f 205/244/390 204/242/388 161/191/337
f 161/191/337 204/242/388 160/189/335
f 161/191/337 162/192/338 205/244/390
f 205/244/390 162/192/338 206/245/391
f 163/193/339 207/246/392 162/192/338
f 162/192/338 207/246/392 206/245/391
f 164/194/340 208/247/393 163/193/339
f 163/193/339 208/247/393 207/246/392
f 43/60/84 47/70/94 234/57/83
f 234/57/83 47/70/94 238/69/96
f 152/178/325 151/248/327 150/177/324
f 36/44/394 35/249/395 30/38/396
f 202/241/387 209/250/397 164/194/340
f 164/194/340 209/250/397 208/247/393
f 239/54/398 241/251/399 41/55/400
f 232/252/401 38/253/402 210/254/403
f 103/255/404 146/256/405 211/257/406
f 85/258/407 212/259/408 100/260/409
f 62/261/410 73/262/411 74/263/412
f 232/252/413 210/254/414 242/264/415
f 211/257/406 90/266/416 103/255/404
f 95/265/417 103/255/404 90/266/416
f 212/259/408 168/267/418 100/260/409
f 213/268/419 170/269/420 73/262/421
f 62/261/422 213/268/423 73/262/424
f 85/258/407 100/260/409 94/270/425
f 181/271/426 214/272/427 57/273/107
f 214/272/427 56/274/108 57/273/107
f 216/276/428 215/277/429 86/275/171
f 86/275/171 215/277/429 85/278/172
f 85/279/430 215/280/431 212/281/432
f 23/282/433 24/283/434 217/284/435
f 217/284/435 24/283/434 36/285/436
f 90/286/175 219/287/437 89/288/176
f 90/289/438 211/290/439 218/291/440
f 90/286/175 218/292/441 219/287/437
f 215/294/442 218/295/443 212/293/444
f 212/293/444 218/295/443 211/296/445
f 213/297/446 62/298/447 224/299/448
f 224/301/449 62/302/114 223/300/450
f 223/300/450 62/302/114 63/303/113
f 222/221/451 169/220/452 182/304/453
f 57/305/454 55/306/455 222/308/456
f 55/306/455 70/307/457 222/308/456
f 222/308/458 182/310/459 57/305/460
f 181/309/461 57/305/460 182/310/459
f 220/312/462 181/313/463 213/311/464
f 213/311/464 181/313/463 182/314/465
f 220/315/466 224/301/449 221/316/467
f 213/297/468 224/299/469 220/317/470
f 221/316/467 224/301/449 223/300/450
f 171/159/284 170/195/341 174/160/285
f 188/227/373 190/318/471 130/154/279
f 190/318/471 225/228/374 130/154/279
