# This file uses centimeters as units for non-parametric coordinates.

v -4.414539 3.708054 -0.889000
v -4.414366 3.707542 -2.221333
v -1.825421 3.707813 -2.206489
v -1.923696 3.708282 -0.888817
v 0.942936 3.708483 -0.811540
v 3.706723 3.707203 -2.044885
v 3.707075 3.707811 -0.712825
v 3.660351 2.332941 -0.736092
v 3.254294 2.338593 -0.935622
v 3.199181 2.679602 -0.886814
v 2.935551 3.044670 -0.845335
v 2.677257 3.233768 -0.840659
v 2.196590 3.279655 -0.916416
v 1.814450 3.262736 -0.840600
v 1.600937 3.069705 -0.816085
v 1.438364 2.787796 -0.859411
v 1.388590 2.568052 -0.779460
v 0.927487 2.573178 -0.788481
v 0.398294 2.573872 -0.798021
v 0.383128 2.809063 -0.783014
v 0.239293 3.122527 -0.798214
v 0.045424 3.291939 -0.804537
v -0.314098 3.462420 -0.812542
v -0.829125 3.423538 -0.829334
v -1.151245 3.235837 -0.849006
v -1.279198 3.003629 -0.858402
v -1.387331 2.799765 -0.856266
v -1.399784 2.521998 -0.956911
v -1.843150 2.521867 -0.928877
v -2.285505 2.536765 -0.958784
v -2.334230 2.805385 -0.958053
v -2.451015 3.063055 -0.940691
v -2.633522 3.260246 -0.927003
v -2.824878 3.362695 -0.912173
v -3.103862 3.451588 -0.903669
v -3.442059 3.382168 -0.918658
v -3.731873 3.177613 -0.940823
v -3.889085 2.977525 -0.961198
v -4.027340 2.673904 -0.984847
v -4.025002 2.471023 -1.040494
v -4.431982 2.424697 -1.044202
v -4.030235 2.453104 -0.998065
v -4.541100 2.411167 -1.006763
v -4.019356 1.724395 -1.056642
v -4.515940 1.715088 -1.090803
v 3.723503 2.268760 -0.762934
v 3.249117 2.256255 -0.885557
v 3.724825 1.674873 -0.762463
v 3.224545 1.680293 -0.793926
v 3.197161 1.676563 -1.882086
v 3.199281 2.246194 -1.961023
v 3.275083 2.234547 -1.949633
v 3.181850 2.701267 -1.834628
v 7.051107 3.706594 -2.196665
v 7.033474 3.707020 -0.849403
v 7.021613 3.707322 1.010934
v 3.706923 3.707684 0.973660
v 7.024797 2.415539 1.050223
v 3.707622 2.425773 0.950558
v 3.706374 3.706455 -3.939860
v 5.514245 3.706389 -3.911348
v 7.160949 3.706003 -3.881573
v 3.730467 2.427396 -1.970487
v 3.706743 2.425239 -3.839710
v 3.731688 2.356596 0.405029
v 3.603715 1.724039 0.448331
v 6.011147 2.383060 0.662112
v 6.119081 1.704191 0.586591
v 4.340722 1.745926 0.599118
v 4.342440 2.482268 0.600387
v 5.556341 1.743239 0.652715
v 5.538983 2.454999 0.684406
v 5.562510 1.065937 0.635597
v 4.347054 1.070727 0.564262
v 4.539993 0.875956 -1.566426
v 4.583998 1.622653 -1.519907
v 4.437346 1.014323 -0.041378
v 4.479954 1.773361 -0.013176
v 4.435514 0.997030 -0.782673
v 4.503316 1.746565 -0.762491
v 4.374351 -3.090125 0.098119
v 4.423024 -3.090109 -0.509202
v 5.695214 0.974961 0.059197
v 5.809199 -3.090738 0.242817
v 4.613056 -3.090205 -1.570290
v 4.424891 -3.090036 -1.852128
v 4.385850 1.309962 -1.836747
v 4.506355 1.286940 -1.585373
v 5.762793 -3.090781 -1.521643
v 5.839526 -3.090746 -0.559940
v 5.668328 1.268734 -1.648095
v 1.604186 2.565837 -0.567090
v 0.931874 2.556473 -0.578755
v 1.315064 2.473936 -1.587575
v 1.527340 2.507363 -1.720100
v -1.238226 2.551835 -0.741735
v -1.838039 2.535525 -0.716523
v 1.581002 1.296085 -0.517223
v 0.896397 1.338789 -0.565260
v 0.205292 1.322948 -0.616971
v 0.224072 2.543266 -0.655810
v 0.292033 2.503229 -1.785060
v 0.543738 2.590144 -1.710163
v 0.233740 1.332123 -1.811230
v -2.539261 2.562510 -0.773222
v -2.415601 2.556896 -2.015398
v -2.333343 2.590117 -1.876364
v -1.313319 2.526794 -1.874380
v -1.110050 2.531077 -2.101370
v -1.247347 1.225760 -0.742295
v -1.878776 1.255690 -0.701230
v -2.524205 1.266683 -0.739224
v -2.414037 1.238749 -2.091872
v -1.078283 1.174192 -2.091596
v -1.545311 1.255581 -0.674371
v -2.110346 1.249872 -0.716246
v -1.647161 -1.472337 -0.718982
v -1.893357 -1.463968 -0.706367
v -2.087985 -1.476401 -0.774115
v -1.391680 1.272697 -0.760768
v -1.447476 -1.498304 -0.828100
v -1.270576 1.217909 -1.044071
v -1.319134 -1.500765 -0.982746
v -1.209055 1.290665 -1.402863
v -1.177562 -1.489047 -1.275603
v -2.267204 -1.456453 -0.872131
v -2.231960 1.293525 -0.903446
v -2.391335 -1.452713 -1.071560
v -2.303085 1.342643 -1.098716
v -2.485620 -1.463560 -1.436923
v -2.403599 1.244605 -1.320351
v -1.638164 -1.484516 -0.696748
v -1.653489 -3.087123 -0.723922
v -1.925309 -3.086978 -0.735829
v -2.106437 -1.479734 -0.709445
v -2.106568 -3.086916 -0.741813
v -1.439619 -1.484873 -0.675381
v -1.217815 -1.473301 -0.662622
v -2.270253 -1.473217 -0.730893
v -2.332481 -3.086787 -0.756593
v -2.578575 -3.086675 -0.768843
v -2.530583 -1.446708 -0.749348
v -1.469948 -3.087196 -0.724553
v -1.210907 -3.087313 -0.806561
v 1.044490 1.330299 -0.551733
v 0.758964 1.344881 -0.576713
v 0.993116 -1.505239 -0.507220
v 0.788469 -1.478462 -0.443757
v 0.598554 -1.509292 -0.527143
v 0.377313 -1.518857 -0.767763
v 0.481113 1.345387 -0.714172
v 0.204932 -1.531809 -1.316636
v 0.304161 1.341018 -1.325615
v 1.243366 1.330885 -0.727792
v 1.260079 -1.521406 -0.675055
v 1.506375 1.314320 -0.947827
v 1.422167 -1.499777 -0.904556
v 1.023692 -1.480157 -0.447445
v 0.568548 -1.482961 -0.471331
v 0.337271 -1.471430 -0.506403
v 0.147458 -1.474069 -0.517693
v 1.458190 -1.467835 -0.430528
v 1.240877 -1.473997 -0.438991
v 0.861575 -3.088327 -0.429736
v 0.635864 -3.088192 -0.450373
v 0.375832 -3.088088 -0.467397
v 0.127247 -3.087949 -0.483671
v 1.088451 -3.088409 -0.420742
v 1.303598 -3.088534 -0.406657
v 1.483762 -3.088610 -0.383129
v -7.765932 3.707944 -0.927885
v -7.571600 3.707958 -2.004509
v -7.537731 3.707335 -4.045626
v -5.865100 3.707338 -3.967956
v -4.413782 3.707571 -3.897340
v -4.413880 2.489263 -3.820663
v -4.431852 2.564043 -2.079126
v -3.899621 2.405082 -2.104005
v -3.906677 1.688715 -2.260974
v -3.926210 2.417057 -2.122216
v -3.899010 2.628724 -2.118567
v -3.799717 2.910070 -2.037608
v -4.414827 2.438262 0.829458
v -4.415004 3.708162 0.773973
v -7.869890 3.708248 0.826252
v -7.867262 2.422433 0.739131
v -4.583700 1.850988 0.232153
v -4.617807 2.429048 0.203520
v -7.089199 1.825820 0.197281
v -7.044794 2.441159 0.231465
v -7.649250 3.708005 -1.501867
v -4.436618 3.707819 -1.526362
v -1.874895 3.708206 -1.524469
v 3.740789 3.707429 -1.478970
v 6.952118 3.706990 -1.402159
v -5.102120 1.907828 0.052220
v -6.435442 1.950261 0.085649
v -5.068930 1.078963 0.034245
v -6.498583 1.038839 -0.043346
v -4.822698 1.600293 -2.533759
v -4.811425 1.025693 -2.486962
v -5.023599 1.115267 -0.651364
v -4.967520 1.775270 -0.645483
v -4.951436 1.110863 -1.133497
v -4.924685 1.761483 -1.001290
v -4.841795 1.066037 -2.149077
v -4.837612 1.641569 -2.045072
v -5.056653 -3.085489 -1.061618
v -5.109476 -3.085539 -0.571305
v -6.494361 -3.084870 -0.806797
v -6.340128 1.081988 -0.706765
v 1.634526 -3.088676 -1.677253
v 0.324071 -3.088049 -2.004301
v -1.005332 -3.087423 -2.280400
v -2.527819 -3.086753 -2.161098
v -4.955284 -3.085502 -2.357347
v -4.918681 -3.085507 -2.832364
v -6.309435 -3.084877 -2.441463
v -6.180929 1.075798 -2.264305
v -7.870277 3.708011 -0.943315
v -7.873292 3.708118 -1.500081
v -7.874349 3.708016 -2.023513
v -7.878317 3.707360 -4.073721
v 7.313211 3.705918 -3.864163
v 7.308478 3.706648 -2.193365
v 7.306336 3.706682 -1.357159
v 7.304678 3.707102 -0.851669
v 7.304332 3.707294 1.020837
v 7.308168 2.455488 1.041111
v -1.321445 -1.559827 -1.954101
v -1.023636 -1.536373 -2.168030
v 5.330353 3.706943 -2.078296
v 5.320830 3.707296 -1.425858
v 5.253540 3.707466 -0.776208
v 5.217963 3.707487 1.009385
v 5.046298 2.431664 1.031078
v -5.974862 3.707830 -2.075663
v -5.990151 3.707869 -1.528937
v -6.040682 3.708006 -0.905873
v -6.256982 3.708461 0.745645
v -6.375765 2.457662 0.701363
v 2.262584 3.708069 -0.761503
v 2.260177 3.707789 -1.474388
v 2.341281 3.707529 -2.154103
v -3.197391 3.708168 -0.866550
v -3.161460 3.708013 -1.525410
v -3.125048 3.707677 -2.213911
v 3.731234 2.335943 -0.664456
v 0.981657 3.708231 -1.464860
v 1.020225 3.707924 -2.184662
v -0.532457 3.708382 -0.871883
v -0.471222 3.708228 -1.494481
v -0.404928 3.707883 -2.196685
v 1.614825 1.263753 -1.567004
v 1.508029 -1.520528 -1.766549
v 0.255821 -1.594516 -1.960328
v -2.496488 -1.471428 -2.158441
v 2.931643 3.017571 -1.787298
v 2.746614 3.182142 -1.728574
v 2.206386 3.246774 -1.655321
v 1.814571 3.220414 -1.601812
v 1.613608 3.086690 -1.617609
v 1.516317 2.865670 -1.658612
v 0.383128 2.809063 -1.716770
v 0.239292 3.122527 -1.731969
v 0.045424 3.291939 -1.738283
v -0.314098 3.462420 -1.746289
v -0.829125 3.423538 -1.763088
v -1.151244 3.235837 -1.782770
v -1.279197 3.003629 -1.792159
v -1.387331 2.799765 -1.790015
v -2.342365 2.802410 -1.751304
v -2.462071 3.062903 -1.750960
v -2.606190 3.194333 -1.827620
v -2.880072 3.381227 -1.751123
v -3.085621 3.407140 -1.747264
v -3.372148 3.348660 -1.845244
v -3.650854 3.168497 -1.921077
v -1.294460 1.221230 -1.944317
v 0.358378 -1.541417 -1.679010
v 0.457607 1.331413 -1.781863
v -7.625835 2.187078 -4.153063
v -7.864607 2.379727 -1.076920
v -7.867623 2.391910 -1.633686
v -7.868680 2.380439 -2.157118
v -7.875276 2.189890 -4.181159
v 1.331865 -1.519938 -1.587662
v 1.395970 1.263088 -1.461128
v -2.216318 -1.460120 -2.075422
v -2.128474 1.223088 -1.911314
v -1.144961 -1.496968 -1.265491
v -2.362891 1.227484 -1.670788
v -2.428580 -1.467955 -1.856757
v -5.827600 2.610761 -4.030427
v -3.125047 3.580993 -2.213911
v 1.020225 3.164759 -2.184662
v 2.535442 3.425896 -2.154103
v -1.825421 3.280157 -2.206490
v -0.404928 3.532963 -2.196685
v 7.306336 2.550584 -1.376474
v 7.313523 2.472155 -0.816790
v 5.459750 2.579482 -3.884415
v 7.317738 2.609212 -2.137712
v 7.312244 2.514789 -3.847138
v -10.129586 -3.072680 1.099272
v 9.152889 -3.074671 3.042172
v 8.356098 -3.077683 -4.511003
v -8.541474 -3.076352 -6.279906
v -0.290519 -3.012180 -1.662366
v -0.488350 -3.073675 2.070722
v 8.754496 -3.076177 -0.734415
v -0.092689 -3.077017 -5.395454
v -9.335532 -3.074515 -2.590317
v -5.060997 -3.010888 -0.270672
v -9.732561 -3.073597 -0.745523
v -5.308969 -3.073177 1.584997
v -0.389435 -3.011344 0.204178
v -4.813027 -3.011765 -2.126342
v 4.282128 -3.011801 0.679028
v 4.332269 -3.074173 2.556447
v 8.953692 -3.075424 1.153878
v 4.231989 -3.012595 -1.198391
v 4.181848 -3.013390 -3.075809
v 8.555296 -3.076930 -2.622709
v 4.131706 -3.077350 -4.953228
v -0.191604 -3.013015 -3.528910
v -4.565053 -3.012641 -3.982011
v -4.317081 -3.076684 -5.837680
v -8.938503 -3.075433 -4.435112
vt 0.279745 0.693889
vt 0.284197 0.712074
vt 0.443884 0.712973
vt 0.441868 0.693921
vt 0.603049 0.694606
vt 0.759016 0.706996
vt 0.766407 0.687562
vt 0.757327 0.580080
vt 0.731934 0.581248
vt 0.729548 0.613236
vt 0.718227 0.636464
vt 0.704076 0.651245
vt 0.680726 0.656525
vt 0.658791 0.651245
vt 0.640394 0.633296
vt 0.630771 0.609184
vt 0.628668 0.586613
vt 0.600083 0.585628
vt 0.577743 0.586997
vt 0.576125 0.603263
vt 0.572222 0.620999
vt 0.557283 0.648962
vt 0.529285 0.660990
vt 0.504763 0.657580
vt 0.488551 0.643754
vt 0.478149 0.625467
vt 0.472268 0.609529
vt 0.469666 0.584028
vt 0.443774 0.584327
vt 0.416945 0.586840
vt 0.416277 0.611665
vt 0.412104 0.624550
vt 0.395718 0.650781
vt 0.383689 0.659228
vt 0.362755 0.666348
vt 0.341798 0.659692
vt 0.326737 0.643316
vt 0.317992 0.627520
vt 0.313303 0.609903
vt 0.310305 0.589126
vt 0.285255 0.588047
vt 0.311541 0.582617
vt 0.284651 0.583141
vt 0.313310 0.531941
vt 0.284345 0.531937
vt 0.761134 0.575452
vt 0.730964 0.575226
vt 0.757164 0.525931
vt 0.729851 0.525688
vt 0.716427 0.567850
vt 0.718792 0.616161
vt 0.720612 0.615590
vt 0.731896 0.598659
vt 0.899759 0.707425
vt 0.912145 0.687886
vt 0.951284 0.619985
vt 0.791107 0.622738
vt 0.947866 0.506426
vt 0.786862 0.507654
vt 0.778142 0.532135
vt 0.887380 0.726951
vt 0.751178 0.723492
vt 0.733631 0.769341
vt 0.863868 0.772508
vt 0.734667 0.725823
vt 0.749225 0.724140
vt 0.777338 0.480516
vt 0.898468 0.482373
vt 0.901837 0.504300
vt 0.935806 0.504645
vt 0.933349 0.483527
vt 0.825765 0.504836
vt 0.822164 0.480884
vt 0.895160 0.426755
vt 0.820118 0.424244
vt 0.805047 0.459698
vt 0.815843 0.480838
vt 0.799030 0.477700
vt 0.808652 0.480580
vt 0.791821 0.504146
vt 0.804921 0.504859
vt 0.786194 0.158520
vt 0.780836 0.190195
vt 0.879469 0.424106
vt 0.857214 0.158020
vt 0.769172 0.243698
vt 0.762399 0.266199
vt 0.775803 0.478310
vt 0.783769 0.477452
vt 0.795593 0.473315
vt 0.642517 0.579450
vt 0.600770 0.578394
vt 0.632183 0.607419
vt 0.637401 0.618843
vt 0.480032 0.580305
vt 0.444004 0.581237
vt 0.606040 0.475275
vt 0.597232 0.475979
vt 0.574947 0.565441
vt 0.589062 0.476448
vt 0.564240 0.476502
vt 0.616266 0.568321
vt 0.569720 0.618145
vt 0.621760 0.492548
vt 0.404458 0.583081
vt 0.427589 0.574100
vt 0.412620 0.608389
vt 0.475538 0.614489
vt 0.480876 0.613623
vt 0.457421 0.476614
vt 0.442237 0.476014
vt 0.423860 0.476580
vt 0.405056 0.477637
vt 0.466829 0.541430
vt 0.475994 0.475757
vt 0.408150 0.516236
vt 0.452743 0.279697
vt 0.440377 0.279362
vt 0.429581 0.280257
vt 0.467138 0.473199
vt 0.462697 0.282791
vt 0.474322 0.472038
vt 0.472179 0.288421
vt 0.479861 0.471680
vt 0.476492 0.293791
vt 0.419384 0.285627
vt 0.416628 0.475174
vt 0.414612 0.290101
vt 0.411459 0.474481
vt 0.411154 0.295714
vt 0.408371 0.474232
vt 0.454044 0.279177
vt 0.454772 0.188968
vt 0.440377 0.188073
vt 0.428496 0.279662
vt 0.430780 0.187178
vt 0.465925 0.280089
vt 0.481686 0.282272
vt 0.419869 0.279754
vt 0.418784 0.187178
vt 0.412125 0.186862
vt 0.410844 0.280183
vt 0.464853 0.188985
vt 0.480831 0.189470
vt 0.636856 0.472812
vt 0.601746 0.273674
vt 0.589482 0.272052
vt 0.578928 0.273992
vt 0.566332 0.279362
vt 0.575687 0.475099
vt 0.556047 0.295547
vt 0.563487 0.470110
vt 0.619943 0.470699
vt 0.615784 0.278074
vt 0.631224 0.466478
vt 0.625239 0.288981
vt 0.601222 0.272502
vt 0.578699 0.272819
vt 0.565746 0.274459
vt 0.555677 0.275187
vt 0.627396 0.273079
vt 0.614430 0.272669
vt 0.589124 0.180913
vt 0.577129 0.181808
vt 0.563333 0.181808
vt 0.554261 0.181565
vt 0.601120 0.181808
vt 0.612516 0.181808
vt 0.623810 0.180260
vt 0.127822 0.694910
vt 0.144276 0.713744
vt 0.291447 0.730028
vt 0.158614 0.732262
vt 0.187163 0.777818
vt 0.306766 0.776648
vt 0.309200 0.737301
vt 0.306912 0.731449
vt 0.321760 0.615675
vt 0.323031 0.571972
vt 0.318478 0.615059
vt 0.317878 0.618224
vt 0.319464 0.626154
vt 0.261640 0.513849
vt 0.253843 0.631092
vt 0.083969 0.632260
vt 0.095493 0.515523
vt 0.269234 0.483598
vt 0.265218 0.512311
vt 0.108736 0.486827
vt 0.106288 0.513419
vt 0.445587 0.729946
vt 0.241031 0.479376
vt 0.163996 0.483312
vt 0.242912 0.430499
vt 0.166006 0.431394
vt 0.277439 0.481600
vt 0.277153 0.479746
vt 0.281616 0.485994
vt 0.282268 0.467302
vt 0.253979 0.479059
vt 0.255728 0.426382
vt 0.263997 0.478941
vt 0.263806 0.465147
vt 0.276730 0.192284
vt 0.273543 0.162382
vt 0.201926 0.161972
vt 0.187754 0.430094
vt 0.290794 0.275204
vt 0.432204 0.188525
vt 0.263591 0.479555
vt 0.120382 0.695520
vt 0.131186 0.713849
vt 0.147952 0.732535
vt 0.174429 0.776937
vt 0.871458 0.771288
vt 0.896381 0.728011
vt 0.911975 0.702056
vt 0.919172 0.689526
vt 0.959473 0.619550
vt 0.950451 0.511574
vt 0.823194 0.726228
vt 0.832195 0.707892
vt 0.842758 0.686456
vt 0.874955 0.622210
vt 0.861513 0.506213
vt 0.215221 0.731435
vt 0.207915 0.714144
vt 0.197297 0.691879
vt 0.167473 0.632435
vt 0.178871 0.514389
vt 0.689046 0.690643
vt 0.678021 0.710231
vt 0.673395 0.726483
vt 0.356376 0.693219
vt 0.360330 0.712000
vt 0.364124 0.729287
vt 0.803964 0.422887
vt 0.779559 0.506981
vt 0.777338 0.480516
vt 0.761301 0.583121
vt 0.603440 0.713005
vt 0.603188 0.730923
vt 0.434380 0.278306
vt 0.411096 0.544415
vt 0.406938 0.616129
vt 0.412102 0.482496
vt 0.417091 0.574335
vt 0.566017 0.582204
vt 0.566220 0.617396
vt 0.571121 0.483681
vt 0.277738 0.465283
vt 0.276322 0.246615
vt 0.286448 0.247470
vt 0.253706 0.466428
vt 0.286448 0.247470
vt 0.522459 0.694263
vt 0.522227 0.713043
vt 0.521600 0.730954
vt 0.574488 0.563868
vt 0.629375 0.498057
vt 0.571677 0.499508
vt 0.560497 0.209446
vt 0.613499 0.260993
vt 0.610644 0.209441
vt 0.562197 0.262443
vt 0.596547 0.260536
vt 0.622991 0.201480
vt 0.569395 0.258329
vt 0.561940 0.202123
vt 0.201498 0.473532
vt 0.218094 0.473945
vt 0.217630 0.437225
vt 0.184078 0.473434
vt 0.637488 0.561706
vt 0.580161 0.261634
vt 0.621909 0.262531
vt 0.181374 0.437563
vt 0.728312 0.598576
vt 0.728349 0.598159
vt 0.731918 0.598409
vt 0.731787 0.599891
vt 0.728209 0.599744
vt 0.731680 0.601105
vt 0.728134 0.600604
vt 0.731323 0.605162
vt 0.727750 0.604963
vt 0.727911 0.603130
vt 0.731480 0.603379
vt 0.731234 0.606161
vt 0.727666 0.605911
vt 0.731166 0.606934
vt 0.727625 0.606376
vt 0.731104 0.607645
vt 0.727543 0.607310
vt 0.597439 0.330386
vt 0.585459 0.317765
vt 0.604448 0.321121
vt 0.474427 0.590906
vt 0.474220 0.590906
vt 0.474209 0.597025
vt 0.474622 0.597025
vt 0.474906 0.590906
vt 0.475084 0.597025
vt 0.475762 0.590906
vt 0.475940 0.597025
vt 0.476988 0.590906
vt 0.477167 0.597025
vt 0.477757 0.590906
vt 0.477936 0.597025
vt 0.478288 0.590906
vt 0.478241 0.597025
vt 0.478458 0.590906
vt 0.478498 0.597025
vt 0.474049 0.590906
vt 0.473845 0.597025
vt 0.478944 0.597025
vt 0.478870 0.590906
vt 0.572779 0.593842
vt 0.568568 0.593837
vt 0.567475 0.592324
vt 0.574167 0.592598
vt 0.412697 0.597440
vt 0.408241 0.595600
vt 0.407412 0.591881
vt 0.413559 0.594720
vt 0.731912 0.601827
vt 0.731922 0.601643
vt 0.728569 0.601238
vt 0.728558 0.601443
vt 0.731896 0.602113
vt 0.728544 0.601691
vt 0.731879 0.602413
vt 0.728518 0.602160
vt 0.731855 0.602851
vt 0.728498 0.602513
vt 0.731825 0.603383
vt 0.728471 0.603005
vt 0.731800 0.603839
vt 0.728444 0.603484
vt 0.731933 0.601451
vt 0.728582 0.601016
vt 0.728430 0.603740
vt 0.731786 0.604086
vt 0.563526 0.420905
vt 0.560866 0.342384
vt 0.571379 0.342491
vt 0.574039 0.421012
vt 0.432317 0.322878
vt 0.453202 0.321803
vt 0.430141 0.293870
vt 0.459859 0.293160
vt 0.810485 0.415359
vt 0.808059 0.181324
vt 0.853035 0.181021
vt 0.205513 0.509104
vt 0.195265 0.509393
vt 0.195268 0.490844
vt 0.205516 0.490555
vt 0.180238 0.509308
vt 0.180241 0.490760
vt 0.119788 0.508453
vt 0.119791 0.489905
vt 0.248279 0.492051
vt 0.246994 0.509367
vt 0.218760 0.626048
vt 0.214937 0.624878
vt 0.218712 0.556387
vt 0.222535 0.557558
vt 0.119159 0.627347
vt 0.170190 0.565130
vt 0.581651 0.294858
vt 0.598915 0.281745
vt 0.624391 0.304535
vt 0.595307 0.308479
vt 0.625119 0.447372
vt 0.630796 0.449676
vt 0.621058 0.308847
vt 0.467123 0.243003
vt 0.467132 0.255864
vt 0.436300 0.255835
vt 0.434293 0.244317
vt 0.418833 0.298517
vt 0.433811 0.299390
vt 0.429401 0.337343
vt 0.420576 0.319593
vt 0.411003 0.337218
vt 0.429064 0.419206
vt 0.411763 0.419952
vt 0.463938 0.280784
vt 0.473331 0.288976
vt 0.471123 0.286445
vt 0.473298 0.283410
vt 0.476020 0.286143
vt 0.475936 0.292975
vt 0.480553 0.296983
vt 0.477671 0.283441
vt 0.477536 0.287176
vt 0.472622 0.287380
vt 0.472750 0.283854
vt 0.420414 0.419579
vt 0.426248 0.310935
vt 0.421516 0.337290
vt 0.167902 0.627952
vt 0.125036 0.558544
vt 0.361061 0.687946
vt 0.361061 0.678175
vt 0.725794 0.679656
vt 0.688496 0.679127
vt 0.688496 0.666835
vt 0.725794 0.672049
vt 0.648925 0.678841
vt 0.651598 0.663469
vt 0.385631 0.679536
vt 0.385744 0.687797
vt 0.599070 0.689895
vt 0.599070 0.678407
vt 0.519123 0.689563
vt 0.519123 0.678075
vt 0.840207 0.538152
vt 0.839819 0.606584
vt 0.792844 0.606584
vt 0.826775 0.538152
vt 0.830229 0.606584
vt 0.791251 0.538152
vt 0.945712 0.538152
vt 0.946209 0.606584
vt 0.918668 0.538152
vt 0.918333 0.606584
vt 0.851908 0.538152
vt 0.855893 0.606584
vt 0.887831 0.538152
vt 0.887880 0.606584
vt 0.782472 0.244291
vt 0.056064 0.000000
vt 0.602736 0.000000
vt 0.558700 1.000000
vt 0.000000 0.987380
vt 0.148478 0.000000
vt 0.628644 0.000000
vt 0.610708 0.991104
vt 0.000000 1.000000
vt 0.000000 0.000000
vt 0.849369 0.000000
vt 0.827804 1.000000
vt 0.041395 0.864557
vt 0.000000 0.000000
vt 1.000000 0.000000
vt 0.958090 0.567921
vt 0.030831 0.595798
vt 0.000000 0.000000
vt 0.961038 0.000000
vt 1.000000 0.779531
vt 0.320631 0.827820
vt 0.000000 0.000000
vt 0.754579 0.000000
vt 0.770390 1.000000
vt 0.058667 0.963114
vt 0.036187 0.000000
vt 1.000000 0.000000
vt 0.884256 0.686344
vt 0.000000 0.662747
vt 0.007852 0.000000
vt 1.000000 0.000000
vt 0.000000 0.152105
vt 0.151616 0.000000
vt 0.848949 0.000000
vt 0.665716 1.000000
vt 0.000000 0.879343
vt 0.031035 0.000000
vt 1.000000 0.000000
vt 0.000000 0.000000
vt 1.000000 0.000000
vt 0.969353 0.204195
vt 0.000000 0.204195
vt 0.000000 0.696927
vt 0.786194 0.158520
vt 0.857214 0.158020
vt 0.879469 0.424106
vt 0.803964 0.422887
vt 0.831710 0.290883
vt 0.821704 0.158270
vt 0.868341 0.291063
vt 0.841717 0.423496
vt 0.795079 0.290703
vt 0.808672 0.224594
vt 0.790637 0.224612
vt 0.803949 0.158395
vt 0.826707 0.224577
vt 0.813395 0.290793
vt 0.844742 0.224559
vt 0.839459 0.158145
vt 0.862777 0.224541
vt 0.850026 0.290973
vt 0.855309 0.357387
vt 0.873905 0.357584
vt 0.860593 0.423801
vt 0.836713 0.357190
vt 0.818118 0.356992
vt 0.822840 0.423192
vt 0.799522 0.356795
vn -0.011554 0.464054 0.885731
vn -0.440961 0.627925 0.641298
vn 0.000278 1.000000 -0.000397
vn 0.000186 1.000000 -0.000421
vn 0.000167 1.000000 -0.000412
vn -0.000017 1.000000 -0.000408
vn 0.001549 0.333302 0.942819
vn -0.021411 0.769953 0.637741
vn -0.712057 -0.361902 0.601666
vn -0.883384 0.248850 0.397123
vn -0.470393 -0.172883 0.865356
vn -0.534906 -0.134961 0.834063
vn -0.578688 0.776357 0.249781
vn 0.026714 0.492303 0.870014
vn -0.224797 -0.610317 0.759592
vn -0.495278 -0.661403 0.563246
vn 0.504882 -0.247378 0.826982
vn 0.781059 -0.429018 0.453752
vn -0.033328 0.262874 0.964254
vn 0.509106 -0.640919 0.574486
vn -0.675851 -0.259035 0.690019
vn -0.531418 0.816405 0.226003
vn -0.045968 0.379203 0.924171
vn -0.196551 -0.713378 0.672651
vn -0.527772 -0.718230 0.453434
vn 0.303545 0.542976 0.782967
vn 0.620813 -0.282334 0.731354
vn 0.663216 -0.458463 0.591572
vn 0.610454 0.292663 0.735999
vn 0.579579 0.592599 0.559388
vn 0.255356 0.510568 0.821045
vn 0.834974 0.355829 0.419767
vn 0.666739 -0.065534 0.742405
vn 0.654305 -0.077753 0.752223
vn -0.725300 0.050006 0.686615
vn -0.853904 -0.202137 0.479572
vn -0.716424 0.139323 0.683612
vn -0.574350 0.069181 0.815681
vn -0.860675 0.509148 -0.002758
vn -0.998964 0.028353 0.035589
vn -0.717451 0.691324 -0.085645
vn -0.942261 -0.334842 0.004967
vn 0.000183 1.000000 -0.000193
vn 0.000164 1.000000 -0.000330
vn -0.689507 0.325866 0.646832
vn -0.007823 0.715189 0.698887
vn -0.742939 -0.012466 0.669243
vn -0.031047 0.006815 0.999495
vn -0.944162 0.066479 0.322706
vn -0.590996 0.554763 -0.585629
vn -0.718076 -0.054443 -0.693832
vn -0.887616 -0.034488 -0.459291
vn -0.920860 -0.169643 0.351052
vn -0.921551 0.128244 0.366466
vn 0.109857 -0.092625 0.989622
vn 0.075253 -0.068103 0.994836
vn 0.000700 -0.051976 0.998648
vn -0.024590 -0.030215 0.999241
vn -0.329656 0.002001 0.944099
vn -0.188631 -0.001253 0.982047
vn -0.786434 -0.005459 0.617650
vn -0.058671 -0.025756 0.997945
vn -0.989844 0.040335 -0.136313
vn -0.988372 0.050683 0.143360
vn -0.995473 0.080108 -0.051153
vn -0.995860 0.063433 -0.065113
vn -0.988128 0.079861 -0.131244
vn -0.987592 0.067048 -0.142009
vn -0.999217 0.007906 -0.038776
vn -0.523625 0.039972 0.851011
vn 0.655856 0.052398 0.753066
vn 0.374415 0.048789 0.925977
vn -0.305801 0.005391 0.952080
vn -0.645870 -0.008888 0.763396
vn -0.869002 -0.013970 0.494612
vn -0.902039 -0.009512 0.431550
vn -0.042243 0.028053 0.998713
vn 0.005873 0.016425 0.999848
vn -0.057304 0.680796 0.730228
vn 0.189491 0.961891 0.197126
vn 0.567315 0.606441 0.557121
vn 0.260165 0.948932 -0.178444
vn 0.813933 0.568547 0.119448
vn -0.025172 0.742653 0.669203
vn 0.526044 0.815023 0.242930
vn 0.273576 0.810573 0.517810
vn -0.085461 0.029865 0.995894
vn 0.122485 0.022665 0.992212
vn -0.641397 0.549369 0.535541
vn -0.740494 0.032760 0.671264
vn -0.202102 0.031893 0.978845
vn -0.449847 0.847850 -0.280693
vn -0.477485 0.823112 -0.307400
vn -0.998546 0.032824 -0.042763
vn -0.338654 0.698079 0.630872
vn -0.624815 0.778264 -0.062546
vn -0.512100 0.855829 -0.072871
vn 0.696119 0.713016 0.083825
vn 0.196892 0.979669 -0.038492
vn -0.287631 0.004041 0.957733
vn -0.047898 0.002295 0.998850
vn -0.928529 0.006776 0.371199
vn -0.996688 0.003532 -0.081249
vn 0.992066 0.024115 0.123381
vn 0.880033 0.006089 0.474873
vn 0.122109 0.001810 0.992515
vn -0.071980 0.316789 0.945761
vn 0.188245 0.491486 0.850298
vn -0.220000 0.802815 0.554155
vn 0.535084 0.733435 0.419236
vn 0.659823 -0.032075 0.750736
vn 0.474662 0.825902 0.304273
vn 0.908406 -0.003731 0.418072
vn 0.912463 0.406520 0.046398
vn 0.999897 0.011709 0.008321
vn -0.878326 0.022382 0.477538
vn -0.473865 0.710868 0.519730
vn -0.926363 0.032891 0.375193
vn -0.816527 0.469878 0.335408
vn -0.982830 0.029553 0.182134
vn -0.915531 0.401900 -0.016707
vn -0.035268 0.319845 0.946813
vn -0.032238 -0.017976 0.999319
vn -0.020172 -0.016758 0.999656
vn -0.060104 0.531190 0.845118
vn -0.076349 -0.017831 0.996922
vn 0.028883 0.637862 0.769609
vn 0.233286 0.927317 0.292679
vn -0.028500 0.563163 0.825854
vn -0.057503 -0.013682 0.998252
vn -0.288582 0.906559 0.308012
vn -0.852558 0.024275 0.522069
vn 0.067040 -0.027218 0.997379
vn 0.710673 -0.041884 0.702275
vn 0.673117 0.016746 0.739346
vn -0.069733 0.312551 0.947338
vn 0.398183 0.802528 0.444296
vn -0.373101 0.819989 0.434067
vn -0.756146 0.029716 0.653728
vn -0.606099 0.765607 0.215616
vn -0.998917 0.030468 -0.035167
vn -0.883737 0.458558 -0.093448
vn 0.321036 0.899978 0.294915
vn 0.669997 0.006711 0.742333
vn 0.933938 0.319085 0.161075
vn 0.944795 -0.023246 0.326836
vn -0.025319 0.645641 0.763221
vn -0.070205 0.647808 0.758562
vn -0.354886 0.719921 0.596464
vn 0.006573 0.917128 0.398538
vn -0.066026 0.796331 0.601247
vn 0.225732 0.751336 0.620112
vn -0.093670 0.007521 0.995575
vn -0.038339 0.009661 0.999218
vn -0.084861 0.018787 0.996216
vn -0.973444 -0.000476 0.228924
vn -0.048079 0.015816 0.998718
vn -0.078114 0.020971 0.996724
vn 0.873290 0.054850 0.484103
vn 0.000046 1.000000 -0.000171
vn 0.000221 1.000000 -0.000041
vn 0.000020 1.000000 -0.000156
vn 0.000261 1.000000 -0.000016
vn 0.707987 -0.097806 -0.699420
vn 0.909325 -0.032355 -0.414827
vn 0.355777 0.865406 -0.352838
vn 0.472195 0.395431 -0.787824
vn 0.995108 -0.030401 0.094004
vn 0.964423 0.248119 0.091247
vn 0.872150 0.486091 0.055401
vn 0.978942 -0.171447 0.110806
vn 0.892337 -0.438227 0.108128
vn 0.397274 0.824495 0.402966
vn 0.694602 0.000797 0.719394
vn -0.007329 0.704819 0.709350
vn -0.318270 0.652010 0.688177
vn -0.892180 -0.033330 0.450450
vn 0.003767 -0.045625 0.998952
vn 0.686756 0.076327 0.722870
vn 0.701104 -0.570453 0.427828
vn -0.000801 -0.002175 0.999997
vn 0.004307 -0.931784 0.362989
vn 0.000083 1.000000 -0.000224
vn 0.000126 1.000000 -0.000164
vn 0.004235 0.831870 -0.554954
vn 0.009573 0.706975 -0.707174
vn -0.221428 0.811135 -0.541322
vn 0.028348 0.715096 -0.698451
vn 0.000142 1.000000 -0.000420
vn -0.020879 -0.862339 0.505900
vn 0.577344 -0.573094 0.581582
vn -0.049863 -0.136574 0.989374
vn 0.656473 -0.069612 0.751131
vn 0.996259 -0.012592 0.085496
vn 0.998235 0.006800 0.059004
vn 0.947313 -0.022525 0.319517
vn 0.996512 -0.032995 0.076653
vn 0.950365 -0.050610 0.306993
vn 0.991447 -0.045054 0.122489
vn 0.991306 -0.044745 0.123734
vn 0.990165 -0.071662 0.120161
vn 0.350934 -0.007088 0.936373
vn 0.991610 -0.020271 0.127668
vn -0.105306 0.001227 0.994439
vn -0.167621 -0.017459 0.985697
vn 0.647865 -0.053571 0.759869
vn 0.996519 -0.032449 0.076788
vn -0.073977 -0.044065 0.996286
vn -0.061965 -0.040548 0.997254
vn -0.708577 0.705627 0.003060
vn -0.833347 0.552749 0.001202
vn 0.035098 0.813650 -0.580295
vn -0.601160 0.799128 0.001041
vn -0.620816 0.388295 -0.681039
vn 0.705263 0.708946 0.000170
vn 0.448697 0.799517 -0.399305
vn 0.000129 1.000000 -0.000395
vn 0.042520 0.542325 -0.839092
vn 0.705389 0.708817 -0.002238
vn 0.706280 0.707917 0.004646
vn 0.000159 1.000000 -0.000277
vn 0.000353 1.000000 -0.000307
vn 0.807679 0.421851 0.411943
vn -0.001559 0.805673 0.592359
vn 0.005819 0.026383 0.999635
vn 0.444296 0.022216 0.895605
vn 0.636342 0.769757 0.050430
vn 0.990758 0.000423 0.135644
vn -0.705590 -0.428180 0.564629
vn 0.748481 -0.273560 0.604103
vn 0.537819 -0.458058 0.707767
vn 0.332579 -0.668881 0.664823
vn 0.011224 -0.878402 0.477790
vn -0.231841 -0.730986 0.641802
vn -0.568550 -0.629652 0.529424
vn -0.574156 -0.428755 0.697506
vn -0.044155 -0.730769 0.681195
vn -0.006899 0.525502 0.850764
vn -0.000030 1.000000 -0.000308
vn -0.000133 1.000000 -0.000335
vn 0.003082 0.831849 -0.554993
vn 0.201050 -0.695024 0.690305
vn 0.493711 -0.653152 0.574145
vn -0.000081 1.000000 -0.000360
vn 0.005014 0.599842 -0.800103
vn 0.137400 -0.640178 0.755839
vn 0.999581 0.022311 -0.018418
vn -0.602472 0.784069 -0.149210
vn 0.403216 0.915074 0.007521
vn 0.991066 0.080884 0.106052
vn -0.990873 -0.041503 -0.128252
vn -0.430690 0.893374 -0.128019
vn -0.999147 0.019440 -0.036426
vn -0.754814 -0.655768 0.014983
vn -0.471183 -0.881664 0.025605
vn 0.233345 -0.971079 0.050559
vn -0.047013 -0.997840 0.045879
vn 0.769644 -0.638024 0.023945
vn 0.901524 -0.430276 0.046007
vn -0.756563 -0.653921 0.000000
vn -0.924140 -0.380431 -0.035183
vn -0.509259 -0.860613 0.000000
vn -0.095458 -0.995434 0.000000
vn 0.369078 -0.929398 0.000000
vn 0.776631 -0.629956 0.000001
vn 0.879655 -0.475612 0.000001
vn 0.980223 -0.196401 0.024268
vn -0.822019 -0.569212 0.016820
vn -0.974130 -0.224770 0.023431
vn -0.620888 -0.782955 0.038459
vn -0.391604 -0.920024 0.014228
vn -0.011651 -0.999334 0.034595
vn 0.436886 -0.897579 0.059017
vn 0.731241 -0.677820 0.076467
vn 0.339544 0.911131 -0.233561
vn 0.983388 -0.002367 -0.181500
vn -0.947479 0.021302 -0.319106
vn -0.678259 0.657243 -0.328627
vn 0.998846 0.029708 0.037734
vn -0.999985 -0.004597 0.003120
vn -0.999984 -0.004614 0.003149
vn -0.999990 -0.003733 0.002508
vn -0.667519 0.051255 -0.742827
vn 0.082205 0.067795 -0.994307
vn 0.985317 -0.024690 -0.168940
vn 0.292065 0.948049 -0.126098
vn -0.680157 0.597368 -0.424898
vn -0.942268 0.046831 -0.331570
vn 0.417286 0.901960 0.111087
vn -0.251821 0.766577 -0.590717
vn -0.715582 0.065703 -0.695432
vn 0.072197 0.030584 -0.996921
vn 0.025616 0.841991 -0.538883
vn 0.006306 0.000002 -0.999980
vn 0.002700 -0.030872 -0.999520
vn 0.016529 0.004142 -0.999855
vn 0.067988 0.003864 -0.997679
vn 0.007669 0.000003 -0.999971
vn 0.999979 0.005701 -0.002929
vn 0.999995 0.002173 0.002118
vn 0.008617 -0.038463 -0.999223
vn 0.009621 0.827719 -0.561060
vn 0.999974 0.005523 0.004616
vn 0.730464 -0.011393 -0.682857
vn -0.006811 0.999976 -0.001568
vn -0.013416 0.999905 -0.003006
vn -0.007720 0.999924 0.009658
vn -0.009847 0.999909 0.009184
vn -0.001561 0.999865 0.016371
vn -0.003257 0.999442 0.033232
vn 0.005305 0.999857 0.016059
vn 0.002386 0.999756 0.021938
vn 0.014066 0.999900 -0.001519
vn 0.014531 0.999893 -0.001556
vn 0.007236 0.999974 -0.000802
vn 0.006148 0.999909 -0.011989
vn 0.001881 0.999849 -0.017275
vn 0.003634 0.999413 -0.034053
vn -0.002847 0.999833 -0.018071
vn 0.003639 0.999415 -0.034006
vn 0.000150 1.000000 -0.000465
vn -0.005741 0.999688 0.024297
vn 0.000137 1.000000 -0.000440
vn 0.000145 1.000000 -0.000414
vn 0.008073 0.999915 0.010221
vn 0.009193 0.999795 -0.018052
vn 0.003641 0.999411 -0.034122
vn -0.005178 0.999811 -0.018760
vn -0.013876 0.999899 -0.003092
f 242/231/1 7/7/2 243/232/3
f 243/232/3 7/7/2 194/6/4
f 249/241/5 252/257/6 5/5/7
f 5/5/7 252/257/6 251/256/8
f 10/10/9 9/9/10 8/8/11
f 20/20/12 19/19/13 18/18/14
f 23/23/15 22/22/16 5/5/7
f 27/27/17 26/26/18 4/4/19
f 4/4/19 26/26/18 25/25/20
f 31/31/21 30/30/22 29/29/23
f 34/34/24 33/33/25 4/4/19
f 1/1/26 39/39/27 38/38/28
f 43/43/29 42/42/30 41/41/31
f 41/41/31 42/42/30 40/40/32
f 45/45/33 44/44/34 43/43/29
f 43/43/29 44/44/34 42/42/30
f 9/9/10 47/47/35 8/8/11
f 8/8/11 47/47/35 46/46/36
f 49/49/37 48/48/38 47/47/35
f 47/47/35 48/48/38 46/46/36
f 51/51/39 50/50/40 47/47/35
f 47/47/35 50/50/40 49/49/37
f 47/47/35 9/9/10 51/51/39
f 9/9/10 52/52/41 51/51/39
f 10/53/9 53/278/42 9/280/10
f 9/280/10 53/278/42 52/279/41
f 7/7/2 234/223/43 194/6/4
f 194/6/4 234/223/43 233/222/44
f 57/57/45 235/224/46 7/7/2
f 7/7/2 235/224/46 234/223/43
f 59/59/47 236/225/48 57/57/45
f 57/57/45 236/225/48 235/224/46
f 65/60/49 59/59/47 57/57/45
f 60/63/50 64/66/51 63/65/52
f 46/46/36 248/240/53 8/8/11
f 48/48/38 66/239/54 46/46/36
f 46/46/36 66/239/54 65/60/49
f 68/71/55 67/70/56 71/68/57
f 71/68/57 67/70/56 72/69/58
f 66/67/54 69/73/59 65/238/49
f 65/238/49 69/73/59 70/72/60
f 71/68/57 72/69/58 69/73/59
f 69/73/59 72/69/58 70/72/60
f 69/73/59 74/75/61 71/68/57
f 71/68/57 74/75/61 73/74/62
f 69/73/59 78/77/63 74/75/61
f 74/75/61 78/77/63 77/76/64
f 78/77/63 80/79/65 77/76/64
f 77/76/64 80/79/65 79/78/66
f 80/79/65 76/81/67 79/78/66
f 79/78/66 76/81/67 75/80/68
f 79/78/66 82/83/69 77/76/64
f 77/76/64 82/83/69 81/82/70
f 84/85/71 83/84/72 81/82/70
f 81/82/70 83/84/72 77/237/64
f 85/86/73 88/89/74 86/87/75
f 86/87/75 88/89/74 87/88/76
f 89/433/77 91/90/78 85/86/73
f 85/86/73 91/90/78 88/89/74
f 18/18/14 93/92/79 17/17/80
f 17/17/80 93/92/79 92/91/81
f 92/91/81 95/94/82 17/17/80
f 17/17/80 95/94/82 94/93/83
f 29/29/23 97/96/84 28/28/85
f 28/28/85 97/96/84 96/95/86
f 99/98/87 145/97/88 93/92/79
f 93/92/79 145/97/88 92/91/81
f 101/248/89 100/101/90 146/100/91
f 18/18/14 19/19/13 93/92/79
f 93/92/79 19/19/13 101/248/89
f 103/103/92 102/249/93 19/19/13
f 19/19/13 102/249/93 101/248/89
f 101/99/89 104/104/94 100/250/90
f 105/105/95 97/96/84 30/30/22
f 30/30/22 97/96/84 29/29/23
f 107/107/96 106/245/97 30/30/22
f 30/30/22 106/245/97 105/105/95
f 109/109/98 108/108/99 96/95/86
f 96/95/86 108/108/99 28/28/85
f 105/105/95 116/112/100 97/96/84
f 97/96/84 116/112/100 111/111/101
f 105/105/95 112/113/102 116/112/100
f 105/247/95 106/106/97 112/246/102
f 112/246/102 106/106/97 113/114/103
f 114/116/104 109/244/98 110/115/105
f 110/115/105 109/244/98 96/95/86
f 115/110/106 110/115/105 96/95/86
f 118/118/107 117/117/108 111/111/101
f 111/111/101 117/117/108 115/110/106
f 111/111/101 116/112/100 118/118/107
f 118/118/107 116/112/100 119/119/109
f 121/121/110 120/120/111 117/117/108
f 117/117/108 120/120/111 115/110/106
f 123/123/112 122/122/113 121/121/110
f 121/121/110 122/122/113 120/120/111
f 123/123/112 125/125/114 122/122/113
f 122/122/113 125/125/114 124/124/115
f 127/127/116 126/126/117 116/112/100
f 116/112/100 126/126/117 119/119/109
f 129/129/118 128/128/119 127/127/116
f 127/127/116 128/128/119 126/126/117
f 129/129/118 131/131/120 128/128/119
f 128/128/119 131/131/120 130/130/121
f 118/118/107 132/132/122 117/117/108
f 118/118/107 134/134/123 132/132/122
f 132/132/122 134/134/123 133/133/124
f 119/119/109 135/135/125 118/118/107
f 136/136/126 134/134/123 135/135/125
f 135/135/125 134/134/123 118/118/107
f 132/132/122 137/137/127 117/117/108
f 117/117/108 137/137/127 121/121/110
f 137/137/127 138/138/128 121/121/110
f 121/121/110 138/138/128 123/123/112
f 126/126/117 139/139/129 119/119/109
f 119/119/109 139/139/129 135/135/125
f 135/135/125 139/139/129 136/136/126
f 136/136/126 139/139/129 140/140/130
f 142/142/131 141/141/132 139/139/129
f 139/139/129 141/141/132 140/140/130
f 139/139/129 126/126/117 142/142/131
f 142/142/131 126/126/117 128/128/119
f 133/133/124 143/143/133 132/132/122
f 132/132/122 143/143/133 137/137/127
f 143/143/133 144/144/134 137/137/127
f 137/137/127 144/144/134 138/138/128
f 145/97/88 98/145/135 92/91/81
f 101/248/89 146/100/91 93/92/79
f 93/92/79 146/100/91 99/98/87
f 99/98/87 148/147/136 145/97/88
f 145/97/88 148/147/136 147/146/137
f 99/98/87 146/100/91 148/147/136
f 148/147/136 146/100/91 149/148/138
f 146/100/91 151/150/139 149/148/138
f 149/148/138 151/150/139 150/149/140
f 151/150/139 153/152/141 150/149/140
f 150/149/140 153/152/141 152/151/142
f 155/154/143 154/153/144 147/146/137
f 147/146/137 154/153/144 145/97/88
f 155/154/143 157/156/145 154/153/144
f 154/153/144 157/156/145 156/155/146
f 148/147/136 158/157/147 147/146/137
f 149/148/138 159/158/148 148/147/136
f 152/151/142 161/160/149 150/149/140
f 150/149/140 161/160/149 160/159/150
f 163/162/151 162/161/152 155/154/143
f 155/154/143 162/161/152 157/156/145
f 158/157/147 163/162/151 147/146/137
f 147/146/137 163/162/151 155/154/143
f 159/158/148 149/148/138 160/159/150
f 160/159/150 149/148/138 150/149/140
f 159/158/148 165/164/153 148/147/136
f 148/147/136 165/164/153 164/163/154
f 160/159/150 166/165/155 159/158/148
f 159/158/148 166/165/155 165/164/153
f 160/159/150 161/160/149 166/165/155
f 166/165/155 161/160/149 167/166/156
f 148/147/136 164/163/154 158/157/147
f 158/157/147 164/163/154 168/167/157
f 158/157/147 168/167/157 163/162/151
f 163/162/151 168/167/157 169/168/158
f 163/162/151 169/168/158 162/161/152
f 162/161/152 169/168/158 170/169/159
f 130/130/121 142/142/131 128/128/119
f 238/227/160 191/171/161 239/228/162
f 239/228/162 191/171/161 171/170/163
f 177/177/164 176/176/165 2/172/166
f 2/172/166 176/176/165 175/175/167
f 179/179/168 178/178/169 44/44/34
f 44/44/34 178/178/169 42/42/30
f 180/180/170 40/40/32 178/178/169
f 178/178/169 40/40/32 42/42/30
f 180/180/170 181/181/171 40/40/32
f 40/40/32 181/181/171 39/39/27
f 181/181/171 182/182/172 39/39/27
f 39/39/27 182/182/172 38/38/28
f 184/184/173 183/183/174 1/1/26
f 1/1/26 183/183/174 41/41/31
f 239/228/162 171/170/163 240/229/175
f 240/229/175 171/170/163 185/185/176
f 186/186/177 241/230/178 185/185/176
f 185/185/176 241/230/178 240/229/175
f 188/188/179 187/187/180 43/43/29
f 43/43/29 187/187/180 45/45/33
f 188/188/179 190/190/181 187/187/180
f 187/187/180 190/190/181 189/189/182
f 237/226/183 172/173/184 238/227/160
f 238/227/160 172/173/184 191/171/161
f 252/257/6 249/241/5 253/258/185
f 253/258/185 249/241/5 250/242/186
f 6/62/187 244/233/188 194/6/4
f 194/6/4 244/233/188 243/232/3
f 233/222/44 232/221/189 194/6/4
f 194/6/4 232/221/189 6/62/187
f 189/189/182 197/193/190 187/187/180
f 187/187/180 197/193/190 196/192/191
f 199/195/192 198/194/193 197/193/190
f 197/193/190 198/194/193 196/192/191
f 201/199/194 200/198/195 206/251/196
f 206/251/196 200/198/195 207/197/197
f 202/254/198 203/200/199 198/194/193
f 198/194/193 203/200/199 196/192/191
f 204/203/200 205/202/201 202/254/198
f 202/254/198 205/202/201 203/200/199
f 206/251/196 207/197/197 204/203/200
f 204/203/200 207/197/197 205/202/201
f 209/205/202 208/204/203 202/254/198
f 202/254/198 208/204/203 204/203/200
f 202/201/198 211/207/204 209/205/202
f 209/205/202 211/207/204 210/206/205
f 206/251/196 216/255/206 201/199/194
f 201/199/194 216/255/206 217/208/207
f 206/196/196 219/210/208 216/253/206
f 216/253/206 219/210/208 218/252/209
f 191/171/161 221/212/210 171/170/163
f 171/170/163 221/212/210 220/211/211
f 171/170/163 220/211/211 185/185/176
f 172/173/184 173/174/212 222/213/213
f 222/213/213 173/174/212 223/214/214
f 225/216/215 224/215/216 54/61/217
f 54/61/217 224/215/216 62/64/218
f 227/218/219 226/217/220 55/55/221
f 55/55/221 226/217/220 195/54/222
f 228/219/223 227/218/219 56/56/224
f 56/56/224 227/218/219 55/55/221
f 58/58/225 229/220/226 56/56/224
f 56/56/224 229/220/226 228/219/223
f 138/138/128 144/144/134 291/389/227
f 291/389/227 144/144/134 214/209/228
f 111/111/101 115/110/106 97/96/84
f 97/96/84 115/110/106 96/95/86
f 54/61/217 232/221/189 195/54/222
f 195/54/222 232/221/189 233/222/44
f 234/223/43 55/55/221 233/222/44
f 233/222/44 55/55/221 195/54/222
f 235/224/46 56/56/224 234/223/43
f 234/223/43 56/56/224 55/55/221
f 236/225/48 58/58/225 235/224/46
f 235/224/46 58/58/225 56/56/224
f 1/1/26 239/228/162 184/184/173
f 184/184/173 239/228/162 240/229/175
f 241/230/178 183/183/174 240/229/175
f 240/229/175 183/183/174 184/184/173
f 60/63/50 63/65/52 6/62/187
f 5/5/7 22/22/16 21/21/229
f 5/5/7 20/20/12 18/18/14
f 18/18/14 17/17/80 16/16/230
f 5/5/7 16/16/230 15/15/231
f 5/5/7 14/14/232 242/231/1
f 5/5/7 242/231/1 249/241/5
f 249/241/5 242/231/1 243/232/3
f 244/233/188 250/242/186 243/232/3
f 243/232/3 250/242/186 249/241/5
f 242/231/1 14/14/232 13/13/233
f 242/231/1 13/13/233 12/12/234
f 5/5/7 15/15/231 14/14/232
f 12/12/234 11/11/235 7/7/2
f 242/231/1 12/12/234 7/7/2
f 10/10/9 8/8/11 7/7/2
f 11/11/235 10/10/9 7/7/2
f 5/5/7 18/18/14 16/16/230
f 5/5/7 21/21/229 20/20/12
f 27/27/17 29/29/23 28/28/85
f 4/4/19 33/33/25 32/32/236
f 4/4/19 31/31/21 29/29/23
f 4/4/19 32/32/236 31/31/21
f 35/35/237 34/34/24 245/234/238
f 1/1/26 245/234/238 192/2/239
f 192/2/239 245/234/238 246/235/240
f 247/236/241 2/172/166 246/235/240
f 246/235/240 2/172/166 192/2/239
f 36/36/242 35/35/237 245/234/238
f 1/1/26 36/36/242 245/234/238
f 1/1/26 38/38/28 37/37/243
f 1/1/26 37/37/243 36/36/242
f 245/234/238 34/34/24 4/4/19
f 1/1/26 41/41/31 39/39/27
f 41/41/31 40/40/32 39/39/27
f 248/240/53 7/7/2 8/8/11
f 57/57/45 7/7/2 65/60/49
f 65/60/49 7/7/2 248/240/53
f 46/46/36 65/60/49 248/240/53
f 245/234/238 4/4/19 246/235/240
f 246/235/240 4/4/19 193/3/244
f 246/235/240 193/3/244 247/236/241
f 247/236/241 193/3/244 3/191/245
f 101/99/89 102/102/93 104/104/94
f 4/4/19 24/24/246 251/256/8
f 4/4/19 251/256/8 193/3/244
f 193/3/244 251/256/8 252/257/6
f 253/258/185 3/191/245 252/257/6
f 252/257/6 3/191/245 193/3/244
f 251/256/8 24/24/246 23/23/15
f 251/256/8 23/23/15 5/5/7
f 4/4/19 25/25/20 24/24/246
f 92/259/81 98/261/135 254/260/247
f 152/266/142 256/268/248 167/267/156
f 130/270/121 141/272/132 142/271/131
f 92/259/81 254/260/247 95/274/82
f 255/263/249 157/275/145 212/264/250
f 212/264/250 157/275/145 170/262/159
f 157/275/145 162/265/152 170/262/159
f 256/268/248 213/269/251 167/267/156
f 257/273/252 215/277/253 141/272/132
f 130/270/121 257/273/252 141/272/132
f 152/266/142 167/267/156 161/276/149
f 10/53/9 11/281/235 258/282/254
f 10/53/9 258/282/254 53/278/42
f 11/281/235 12/283/234 259/284/255
f 11/281/235 259/284/255 258/282/254
f 14/285/232 261/286/256 13/288/233
f 13/288/233 261/286/256 260/287/257
f 15/289/231 262/290/258 14/285/232
f 14/285/232 262/290/258 261/286/256
f 263/292/259 262/290/258 16/291/230
f 16/291/230 262/290/258 15/289/231
f 265/301/260 264/300/261 21/298/229
f 21/298/229 264/300/261 20/299/12
f 266/303/262 265/301/260 22/302/16
f 22/302/16 265/301/260 21/298/229
f 267/305/263 266/303/262 23/304/15
f 23/304/15 266/303/262 22/302/16
f 268/307/264 267/305/263 24/306/246
f 24/306/246 267/305/263 23/304/15
f 269/309/265 268/307/264 25/308/20
f 25/308/20 268/307/264 24/306/246
f 270/311/266 269/309/265 26/310/18
f 26/310/18 269/309/265 25/308/20
f 27/312/17 271/313/267 26/310/18
f 26/310/18 271/313/267 270/311/266
f 32/326/236 273/329/268 31/327/21
f 31/327/21 273/329/268 272/328/269
f 274/331/270 273/329/268 33/330/25
f 33/330/25 273/329/268 32/326/236
f 34/332/24 275/333/271 33/330/25
f 33/330/25 275/333/271 274/331/270
f 35/334/237 276/335/272 34/332/24
f 34/332/24 276/335/272 275/333/271
f 277/337/273 276/335/272 36/336/242
f 36/336/242 276/335/272 35/334/237
f 278/339/274 277/337/273 37/338/243
f 37/338/243 277/337/273 36/336/242
f 13/288/233 260/287/257 12/283/234
f 12/283/234 260/287/257 259/284/255
f 17/293/80 94/294/83 16/291/230
f 16/291/230 94/294/83 263/292/259
f 103/315/92 19/314/13 264/300/261
f 264/300/261 19/314/13 20/299/12
f 27/312/17 28/317/85 271/313/267
f 271/313/267 28/317/85 108/316/99
f 107/341/96 30/340/22 272/328/269
f 272/328/269 30/340/22 31/327/21
f 37/338/243 38/343/28 278/339/274
f 278/339/274 38/343/28 182/342/172
f 107/322/96 108/323/99 106/325/97
f 106/325/97 108/323/99 109/324/98
f 94/319/83 95/320/82 103/318/92
f 103/318/92 95/320/82 102/321/93
f 230/351/275 279/349/276 125/350/114
f 279/349/276 124/348/115 125/350/114
f 281/344/277 280/345/278 153/347/141
f 153/347/141 280/345/278 152/346/142
f 152/297/142 280/295/278 256/296/248
f 90/354/279 83/352/72 84/353/71
f 220/355/211 221/356/210 283/358/280
f 283/358/280 221/356/210 284/357/281
f 222/359/213 223/361/214 285/360/282
f 285/360/282 223/361/214 286/362/283
f 173/366/212 282/367/284 223/365/214
f 223/365/214 282/367/284 286/368/283
f 185/364/176 220/355/211 186/363/177
f 186/363/177 220/355/211 283/358/280
f 157/373/145 288/375/285 156/376/146
f 157/371/145 255/372/249 287/374/286
f 157/373/145 287/377/286 288/375/285
f 280/379/278 287/380/286 256/378/248
f 256/378/248 287/380/286 255/381/249
f 257/382/252 130/383/121 293/401/287
f 293/402/287 130/386/121 292/400/288
f 292/400/288 130/386/121 131/388/120
f 291/389/227 214/209/228 231/243/289
f 125/390/114 123/391/112 291/393/227
f 123/391/112 138/392/128 291/393/227
f 125/390/114 291/393/227 230/394/275
f 230/394/275 291/393/227 231/395/289
f 289/397/290 230/398/275 257/396/252
f 257/396/252 230/398/275 231/399/289
f 289/384/290 293/402/287 290/387/291
f 257/382/252 293/401/287 289/385/290
f 290/387/291 293/402/287 292/400/288
f 175/369/167 294/370/292 174/403/293
f 175/369/167 176/404/165 294/370/292
f 298/416/294 295/406/295 3/415/245
f 3/415/245 295/406/295 247/405/241
f 250/407/186 244/408/188 296/410/296
f 296/410/296 244/408/188 297/409/297
f 296/410/296 299/418/298 250/407/186
f 250/407/186 299/418/298 253/417/185
f 253/417/185 299/418/298 3/415/245
f 3/415/245 299/418/298 298/416/294
f 247/405/241 295/406/295 2/414/166
f 295/406/295 177/413/164 2/414/166
f 63/412/52 297/409/297 6/411/187
f 6/411/187 297/409/297 244/408/188
f 227/423/219 228/421/223 301/422/299
f 301/422/299 228/421/223 229/424/226
f 301/422/299 300/419/300 227/423/219
f 227/423/219 300/419/300 226/420/220
f 64/425/51 60/426/50 302/427/301
f 302/427/301 60/426/50 61/428/302
f 225/430/215 226/469/220 303/429/303
f 303/429/303 226/469/220 300/470/300
f 224/432/216 225/430/215 304/431/304
f 304/431/304 225/430/215 303/429/303
f 4/4/19 29/29/23 27/27/17
f 239/435/162 1/436/26 238/434/160
f 238/434/160 1/436/26 192/437/239
f 238/439/160 192/440/239 237/438/183
f 237/438/183 192/440/239 2/441/166
f 175/442/167 174/443/293 2/445/166
f 2/445/166 174/443/293 237/444/183
f 172/447/184 237/448/183 173/446/212
f 173/446/212 237/448/183 174/449/293
f 282/450/284 173/451/212 294/453/292
f 294/453/292 173/451/212 174/452/293
f 61/454/302 60/455/50 232/457/189
f 232/457/189 60/455/50 6/456/187
f 232/459/189 54/460/217 61/458/302
f 61/458/302 54/460/217 62/461/218
f 224/462/216 304/463/304 62/464/218
f 304/466/304 302/467/301 62/465/218
f 62/465/218 302/467/301 61/468/302
f 226/472/220 225/216/215 195/471/222
f 195/471/222 225/216/215 54/61/217
f 285/360/282 284/473/281 222/359/213
f 222/359/213 284/473/281 221/474/210
f 221/475/210 191/171/161 222/213/213
f 222/213/213 191/171/161 172/173/184
f 318/489/305 313/484/306 314/485/307
f 314/485/307 313/484/306 315/486/308
f 317/488/309 310/481/310 319/490/311
f 319/490/311 310/481/310 320/491/312
f 311/482/313 324/495/314 322/493/315
f 322/493/315 324/495/314 323/494/316
f 326/497/317 312/483/318 327/498/319
f 327/498/319 312/483/318 328/499/320
f 305/476/321 316/487/322 315/486/308
f 315/486/308 316/487/322 314/485/307
f 310/481/310 317/488/309 316/487/322
f 316/487/322 317/488/309 314/485/307
f 317/488/309 309/480/323 314/485/307
f 314/485/307 309/480/323 318/489/305
f 306/477/324 321/492/325 320/491/312
f 320/491/312 321/492/325 319/490/311
f 321/492/325 311/482/313 319/490/311
f 319/490/311 311/482/313 322/493/315
f 309/480/323 317/488/309 322/493/315
f 322/493/315 317/488/309 319/490/311
f 324/495/314 307/478/326 323/494/316
f 323/494/316 307/478/326 325/496/327
f 312/483/318 326/497/317 325/496/327
f 325/496/327 326/497/317 323/494/316
f 326/497/317 309/480/323 323/494/316
f 323/494/316 309/480/323 322/493/315
f 328/499/320 308/479/328 327/498/319
f 327/498/319 308/479/328 329/500/329
f 313/484/306 318/489/305 329/500/329
f 329/500/329 318/489/305 327/498/319
f 309/480/323 326/497/317 318/489/305
f 318/489/305 326/497/317 327/498/319
