# This file uses centimeters as units for non-parametric coordinates.

v 0.628340 3.675624 -2.207413
v 3.584007 3.675617 -2.168070
v 3.584067 3.851290 -2.168981
v 0.619710 3.851304 -2.203917
v -1.933041 3.851303 -2.224820
v -1.924411 3.675623 -2.224862
v -4.301356 3.872845 -2.344671
v -4.297040 3.675624 -2.350360
v -1.372559 3.675617 -0.915022
v -4.336153 3.675617 -0.818053
v -4.334321 3.851293 -0.820863
v -1.364867 3.851287 -0.910783
v 1.193254 3.851294 -0.823293
v 1.193298 3.675623 -0.822262
v 3.616646 3.851297 -0.658667
v 3.612384 3.675621 -0.654172
v -4.406075 3.872844 -3.900770
v -4.403817 3.675611 -3.899019
v -7.865679 3.830935 -4.056124
v -7.865535 3.675602 -4.055330
v -7.865473 3.830947 0.828605
v -7.864037 3.675594 0.828147
v -4.409963 3.851291 0.783352
v -4.410387 3.675608 0.783270
v 3.724106 3.851302 0.964602
v 3.719500 3.675618 0.964294
v 7.289178 3.834560 0.992942
v 7.289452 3.675619 0.994212
v 7.294703 3.834554 -3.851836
v 7.288787 3.675599 -3.855735
v 3.709822 3.851280 -3.933639
v 3.711945 3.675597 -3.937166
v -4.382843 3.872845 -2.516728
v -4.378988 3.675622 -2.528296
v -4.051692 3.675624 -2.252230
v -4.066896 3.870642 -2.247248
v -4.169755 3.675617 -0.913512
v -4.155966 3.851292 -0.915702
v -4.425321 3.851292 -0.624390
v -4.426737 3.675615 -0.607352
v 3.715058 3.851298 -0.425886
v 3.710820 3.675620 -0.408273
v 3.386573 3.675621 -0.753778
v 3.398581 3.851297 -0.757582
v 3.321663 3.675618 -2.076182
v 3.312997 3.851291 -2.076902
v 3.707720 3.851288 -2.386723
v 3.708070 3.675613 -2.397607
vt 0.178871 0.514389
vt 0.261640 0.513849
vt 0.253843 0.631092
vt 0.167473 0.632435
vt 0.000000 0.000000
vt 1.000000 0.000000
vt 1.000000 1.000000
vt 0.000000 1.000000
vt 0.000000 0.000000
vt 1.000000 0.000000
vt 1.000000 1.000000
vt 0.000000 1.000000
vt 0.178871 0.514389
vt 0.261640 0.513849
vt 0.253843 0.631092
vt 0.167473 0.632435
vt 0.000000 0.000000
vt 1.000000 0.000000
vt 1.000000 1.000000
vt 0.000000 1.000000
vt 0.000000 0.000000
vt 1.000000 0.000000
vt 1.000000 1.000000
vt 0.000000 1.000000
vt 0.000000 0.000000
vt 1.000000 0.000000
vt 1.000000 1.000000
vt 0.000000 1.000000
vt 0.000000 0.000000
vt 1.000000 0.000000
vt 1.000000 1.000000
vt 0.000000 1.000000
vt 0.000000 0.000000
vt 1.000000 0.000000
vt 1.000000 1.000000
vt 0.000000 1.000000
vt 0.000000 0.000000
vt 1.000000 0.000000
vt 1.000000 1.000000
vt 0.000000 1.000000
vt 0.480123 0.000000
vt 0.752542 0.000000
vt 0.269086 1.000000
vt 0.000000 0.965303
vt 0.000000 0.000000
vt 1.000000 0.000000
vt 1.000000 1.000000
vt 0.000000 1.000000
vt 0.000000 0.000000
vt 1.000000 0.000000
vt 1.000000 1.000000
vt 0.000000 1.000000
vt 0.000000 0.000000
vt 1.000000 0.000000
vt 1.000000 1.000000
vt 0.000000 1.000000
vt 0.000000 0.000000
vt 1.000000 0.000000
vt 1.000000 1.000000
vt 0.000000 1.000000
vt 0.480123 0.000000
vt 0.752542 0.000000
vt 0.269086 1.000000
vt 0.000000 0.965303
vt 1.000000 0.161678
vt 0.000000 0.165987
vt 1.000000 0.897757
vt 0.000000 0.893493
vt 0.246159 0.631212
vt 0.254584 0.513895
vt 0.397688 0.165738
vt 0.665342 0.180367
vt 1.000000 0.188186
vt 0.000000 0.196396
vt 0.999999 0.875232
vt 0.000000 0.871936
vt 0.242813 0.631264
vt 0.251275 0.513916
vt 0.396042 0.169048
vt 0.665044 0.180985
vn 1.000000 0.000915 -0.000307
vn 0.999987 0.005082 -0.000174
vn 0.999987 0.005082 -0.000174
vn 0.999957 0.009248 -0.000042
vn -0.999998 -0.001730 -0.001140
vn -0.999843 0.017736 -0.000502
vn -0.999843 0.017736 -0.000502
vn -0.999308 0.037195 0.000137
vn -0.045108 0.005064 0.998969
vn -0.045034 0.006710 0.998963
vn -0.045034 0.006710 0.998963
vn -0.044959 0.008356 0.998954
vn -0.999649 -0.020521 0.016779
vn -0.999721 -0.015905 0.017444
vn -0.999721 -0.015905 0.017444
vn -0.999772 -0.011289 0.018109
vn -0.010746 -0.026371 0.999594
vn -0.011806 -0.013624 0.999838
vn -0.011806 -0.013624 0.999838
vn -0.012864 -0.000873 0.999917
vn -0.907489 -0.042256 0.417945
vn -0.905418 -0.037185 0.422889
vn -0.905418 -0.037185 0.422889
vn -0.903298 -0.032111 0.427810
vn -0.370848 -0.052595 0.927203
vn -0.377325 -0.043810 0.925044
vn -0.377325 -0.043810 0.925044
vn -0.383756 -0.035019 0.922770
vn -0.000540 -0.012423 -0.999923
vn 0.000611 0.005810 -0.999983
vn 0.000611 0.005810 -0.999983
vn 0.001762 0.024042 -0.999709
vn -0.012993 0.000497 -0.999916
vn -0.013052 0.001663 -0.999913
vn -0.013052 0.001663 -0.999913
vn -0.013111 0.002829 -0.999910
vn -0.469335 0.025834 -0.882642
vn -0.483597 0.008573 -0.875249
vn -0.483597 0.008573 -0.875249
vn -0.497591 -0.008693 -0.867368
vn -0.999899 0.009127 0.010908
vn -0.999919 0.005763 0.011333
vn -0.999919 0.005763 0.011333
vn -0.999928 0.002400 0.011757
vn -0.918257 -0.030883 -0.394779
vn -0.913041 -0.014077 -0.407624
vn -0.913041 -0.014077 -0.407624
vn -0.907393 0.002735 -0.420275
vn 0.008380 0.001531 -0.999964
vn 0.008146 -0.003222 -0.999962
vn 0.008146 -0.003222 -0.999962
vn 0.007912 -0.007975 -0.999937
vn 0.999672 -0.024769 -0.006504
vn 0.999655 -0.025478 -0.006413
vn 0.999655 -0.025478 -0.006413
vn 0.999637 -0.026188 -0.006322
vn 0.036119 0.022523 -0.999094
vn 0.035153 0.008334 -0.999347
vn 0.035153 0.008334 -0.999347
vn 0.034181 -0.005856 -0.999399
vn 0.029775 -0.023674 -0.999276
vn 0.030493 -0.014766 -0.999426
vn 0.030493 -0.014766 -0.999426
vn 0.031209 -0.005858 -0.999496
vn 0.926729 -0.059554 -0.370982
vn 0.923787 -0.045929 -0.380142
vn 0.923787 -0.045929 -0.380142
vn 0.920589 -0.032292 -0.389197
vn 0.403133 -0.047346 -0.913916
vn 0.408014 -0.040328 -0.912084
vn 0.408014 -0.040328 -0.912084
vn 0.412864 -0.033307 -0.910183
vn -0.006834 -0.020232 0.999772
vn -0.007511 -0.010438 0.999917
vn -0.007511 -0.010438 0.999917
vn -0.008188 -0.000644 0.999966
vn -0.048667 0.001689 0.998814
vn -0.047885 -0.010250 0.998800
vn -0.047885 -0.010250 0.998800
vn -0.047096 -0.022187 0.998644
vn -0.022917 -0.023665 0.999457
vn -0.022836 -0.022005 0.999497
vn -0.022836 -0.022005 0.999497
vn -0.022756 -0.020345 0.999534
vn 0.321578 0.019741 0.946677
vn 0.326082 0.012261 0.945262
vn 0.326082 0.012261 0.945262
vn 0.330561 0.004781 0.943772
vn 0.999997 0.001909 0.001359
vn 0.999974 0.006971 0.001938
vn 0.999974 0.006971 0.001938
vn 0.999924 0.012033 0.002517
vn 0.879386 -0.027695 0.475303
vn 0.874621 -0.012717 0.484640
vn 0.874621 -0.012717 0.484640
vn 0.869564 0.002264 0.493816
f 20/33/1 19/34/2 22/36/3
f 22/36/3 19/34/2 21/35/4
f 27/54/5 29/55/6 28/53/7
f 28/53/7 29/55/6 30/56/8
f 20/32/9 18/29/10 19/31/11
f 19/31/11 18/29/10 17/30/12
f 33/65/13 17/27/14 34/66/15
f 34/66/15 17/27/14 18/28/16
f 36/67/17 35/68/18 5/10/19
f 5/10/19 35/68/18 6/9/20
f 34/66/21 8/25/22 33/65/23
f 33/65/23 8/25/22 7/26/24
f 35/68/25 36/67/26 8/12/27
f 8/12/27 36/67/26 7/11/28
f 37/70/29 38/69/30 9/13/31
f 9/13/31 38/69/30 12/16/32
f 24/40/33 22/37/34 23/39/35
f 23/39/35 22/37/34 21/38/36
f 38/69/37 37/70/38 11/15/39
f 11/15/39 37/70/38 10/14/40
f 39/71/41 40/72/42 23/44/43
f 23/44/43 40/72/42 24/43/44
f 40/72/45 39/71/46 10/42/47
f 10/42/47 39/71/46 11/41/48
f 26/49/49 25/50/50 28/52/51
f 28/52/51 25/50/50 27/51/52
f 41/73/53 25/47/54 42/74/55
f 42/74/55 25/47/54 26/48/56
f 9/17/57 12/18/58 14/20/59
f 14/20/59 12/18/58 13/19/60
f 44/75/61 43/76/62 13/22/63
f 13/22/63 43/76/62 14/21/64
f 42/74/65 16/45/66 41/73/67
f 41/73/67 16/45/66 15/46/68
f 43/76/69 44/75/70 16/24/71
f 16/24/71 44/75/70 15/23/72
f 1/5/73 4/6/74 6/8/75
f 6/8/75 4/6/74 5/7/76
f 45/78/77 46/77/78 1/1/79
f 1/1/79 46/77/78 4/4/80
f 29/58/81 31/59/82 30/57/83
f 30/57/83 31/59/82 32/60/84
f 46/77/85 45/78/86 3/3/87
f 3/3/87 45/78/86 2/2/88
f 47/79/89 48/80/90 31/64/91
f 31/64/91 48/80/90 32/63/92
f 48/80/93 47/79/94 2/62/95
f 2/62/95 47/79/94 3/61/96
