# This file uses centimeters as units for non-parametric coordinates.

v -0.107688 -0.119843 0.106201
v -0.005084 -0.190294 0.110679
v 0.109200 -0.121173 0.108172
v -0.101168 -0.039865 0.105589
v -0.004396 -0.041981 0.134472
v 0.099994 -0.036960 0.097477
v -0.077215 0.032364 0.083253
v -0.004404 0.032171 0.102071
v 0.078065 0.037473 0.082703
v -0.108323 0.048898 0.025790
v -0.005107 0.122940 0.028144
v 0.101164 0.048984 0.033348
v -0.065265 0.052123 -0.021567
v -0.003201 0.031682 -0.033611
v 0.061047 0.047093 -0.020584
v -0.095440 -0.021257 -0.025204
v -0.002620 -0.035333 -0.024892
v 0.093063 -0.021257 -0.023618
v -0.112565 -0.115222 -0.081346
v 0.000823 -0.140082 -0.075994
v 0.118323 -0.116551 -0.077955
v -0.176055 -0.137102 -0.009692
v -0.000061 -0.257584 -0.012688
v 0.177185 -0.138432 -0.005433
v 0.139577 -0.032491 0.042891
v -0.144499 -0.032491 0.032734
v -0.007362 0.111898 0.040391
v 0.088580 0.045058 0.055922
v 0.126168 -0.036264 0.079581
v 0.155640 -0.132546 0.066149
v -0.000909 -0.224001 0.071512
v -0.152765 -0.131237 0.069098
v -0.130054 -0.036854 0.075273
v -0.095867 0.035952 0.050062
v -0.086176 0.055089 0.001157
v -0.130369 -0.028397 0.001071
v -0.155741 -0.124099 -0.051985
v 0.000420 -0.200212 -0.080269
v 0.158148 -0.128260 -0.049943
v 0.127254 -0.028650 0.005365
v 0.091263 0.050572 0.000467
v -0.004784 0.113228 0.001551
v -0.004258 0.066377 0.081845
v -0.059766 0.086108 0.046100
v -0.069067 0.094258 0.028499
v -0.059357 0.089476 0.002506
v -0.003770 0.098058 -0.019018
v 0.054741 0.089348 0.002234
v 0.060853 0.094367 0.029334
v 0.048265 0.085239 0.049800
v -0.044450 0.076890 0.057348
v 0.031169 0.079321 0.063150
v -0.002529 -0.134587 0.130205
v -0.079966 -0.166386 0.112673
v -0.113622 -0.200923 0.069043
v -0.136032 -0.221460 -0.012547
v -0.085733 -0.179370 -0.081659
v -0.058173 -0.132236 -0.094319
v 0.062837 -0.131800 -0.092078
v 0.090357 -0.179201 -0.078993
v 0.120852 -0.229101 -0.009618
v 0.099911 -0.201791 0.068637
v 0.069958 -0.165829 0.125382
v -0.005203 -0.094915 0.147244
v 0.058530 -0.090741 -0.106235
v 0.058732 -0.175841 -0.106154
v -0.056513 -0.176482 -0.106804
v -0.056918 -0.091102 -0.107566
v 0.058530 -0.090741 -0.204082
v 0.058732 -0.175841 -0.204001
v -0.056513 -0.176482 -0.204651
v -0.056918 -0.091102 -0.205413
v 0.000958 -0.133542 -0.243676
v 0.078817 -0.133204 -0.220991
v 0.001163 -0.191078 -0.221376
v -0.076901 -0.133880 -0.222329
v 0.000753 -0.076005 -0.221944
v 0.000958 -0.133542 -0.067551
v 0.000753 -0.076005 -0.089851
v -0.076901 -0.133880 -0.090235
v 0.001163 -0.191078 -0.089282
v 0.078817 -0.133204 -0.088898
v 0.104769 -0.133091 -0.154722
v 0.078907 -0.190583 -0.155043
v 0.078726 -0.075824 -0.154846
v 0.001231 -0.210257 -0.155234
v -0.076582 -0.191574 -0.155614
v -0.102854 -0.133992 -0.156504
v -0.077220 -0.076185 -0.156949
v 0.000685 -0.056826 -0.155992
vt 0.641457 0.752915
vt 0.683765 0.726016
vt 0.684202 0.787036
vt 0.638883 0.789857
vt 0.729287 0.752635
vt 0.732853 0.793524
vt 0.683556 0.824543
vt 0.645662 0.829217
vt 0.725248 0.833716
vt 0.658390 0.850353
vt 0.648647 0.856852
vt 0.626476 0.844555
vt 0.715531 0.855897
vt 0.737023 0.849801
vt 0.749674 0.865241
vt 0.726570 0.865420
vt 0.748822 0.793544
vt 0.769848 0.799663
vt 0.586905 0.725734
vt 0.619648 0.744118
vt 0.617924 0.792885
vt 0.591468 0.798747
vt 0.613294 0.865671
vt 0.683750 0.840020
vt 0.703876 0.849956
vt 0.681509 0.857092
vt 0.750894 0.742470
vt 0.685057 0.707827
vt 0.638854 0.865559
vt 0.682937 0.859780
vt 0.848543 0.809248
vt 0.829259 0.802310
vt 0.684248 0.672468
vt 0.778071 0.723266
vt 0.842535 0.785903
vt 0.857911 0.796757
vt 0.794724 0.740270
vt 0.816910 0.737130
vt 0.857632 0.775611
vt 0.841187 0.738094
vt 0.887228 0.807932
vt 0.886799 0.798723
vt 0.921920 0.784240
vt 0.932881 0.793283
vt 0.923026 0.799688
vt 0.912228 0.792046
vt 0.958982 0.681290
vt 0.987538 0.673009
vt 0.969275 0.742049
vt 0.951785 0.739045
vt 0.911710 0.775717
vt 0.929497 0.738531
vt 0.934365 0.686358
vt 0.886545 0.733024
vt 0.886101 0.764719
vt 0.887322 0.679428
vt 0.840260 0.683373
vt 0.888232 0.653331
vt 0.889493 0.612168
vt 0.820938 0.675006
vt 0.798617 0.664457
vt 0.886228 0.790798
vt 0.684664 0.747531
vt 0.655111 0.735213
vt 0.640229 0.717396
vt 0.619594 0.687485
vt 0.939684 0.637255
vt 0.919973 0.662750
vt 0.911617 0.680203
vt 0.862328 0.679697
vt 0.854229 0.662414
vt 0.744539 0.684316
vt 0.839988 0.635498
vt 0.725717 0.715790
vt 0.711075 0.737168
vt 0.683841 0.764890
vt 0.463746 0.774720
vt 0.481549 0.778215
vt 0.483155 0.804258
vt 0.463462 0.804169
vt 0.499888 0.755714
vt 0.464041 0.739440
vt 0.427925 0.755547
vt 0.445875 0.778206
vt 0.296193 0.790233
vt 0.294634 0.816477
vt 0.276792 0.820052
vt 0.276639 0.790268
vt 0.258899 0.816610
vt 0.257010 0.790450
vt 0.258542 0.764344
vt 0.276441 0.760687
vt 0.294341 0.764096
vt 0.443868 0.804204
vt 0.240944 0.839596
vt 0.415313 0.804210
vt 0.276978 0.855850
vt 0.426885 0.853237
vt 0.445288 0.830328
vt 0.312857 0.839556
vt 0.239968 0.741881
vt 0.463260 0.833920
vt 0.463222 0.869762
vt 0.499662 0.853506
vt 0.481340 0.830467
vt 0.511804 0.804534
vt 0.324703 0.790448
vt 0.276002 0.725182
vt 0.312406 0.741267
vt 0.228469 0.790853
vn -0.151674 -0.293141 0.943962
vn -0.285240 -0.444881 0.848952
vn -0.069191 -0.561144 0.824821
vn 0.211422 -0.472116 0.855808
vn -0.471903 0.230067 0.851103
vn -0.032060 0.330305 0.943330
vn -0.466328 0.517487 0.717458
vn 0.018083 0.467435 0.883842
vn 0.380000 0.250253 0.890491
vn 0.453748 0.518342 0.724868
vn -0.351009 0.573040 0.740552
vn -0.669523 0.498989 0.550227
vn -0.455704 0.568356 0.685059
vn 0.376177 0.703469 0.603012
vn 0.692000 0.551247 0.466113
vn 0.611686 0.774257 0.162381
vn 0.846848 0.528664 0.057997
vn 0.737478 0.306851 0.601639
vn 0.910591 0.376716 0.170025
vn -0.997529 -0.053646 -0.045368
vn -0.849634 -0.064913 0.523363
vn -0.921917 0.357944 0.148137
vn -0.771934 0.307427 0.556423
vn -0.838953 0.538712 0.077118
vn -0.062098 0.592963 0.802832
vn 0.222450 0.628045 0.745705
vn -0.078159 0.718629 0.690987
vn 0.848747 -0.103180 0.518635
vn 0.555818 -0.052981 0.829614
vn 0.518291 -0.687633 0.508464
vn -0.010919 -0.825741 0.563945
vn -0.548594 -0.634378 0.544619
vn -0.510133 -0.116045 0.852231
vn -0.597085 0.794179 0.113005
vn 0.033833 0.993504 0.108650
vn 0.702425 0.478392 -0.527011
vn 0.451785 0.728056 -0.515582
vn -0.658066 -0.698161 -0.281994
vn -0.003248 -0.986209 -0.165473
vn 0.622317 -0.749841 -0.224635
vn 0.994928 -0.100417 -0.005928
vn 0.792636 0.428098 -0.434121
vn 0.302445 0.240600 -0.922301
vn 0.326565 0.384092 -0.863614
vn -0.012681 0.880208 -0.474418
vn -0.679210 0.457010 -0.574296
vn -0.486586 0.709638 -0.509557
vn -0.748515 -0.015088 -0.662946
vn -0.743673 0.418998 -0.520952
vn -0.407419 0.353676 -0.841976
vn -0.311790 0.339177 -0.887551
vn -0.429357 0.263553 -0.863824
vn 0.016787 0.058314 -0.998157
vn 0.041526 0.261181 -0.964396
vn -0.033881 0.214243 -0.976193
vn 0.456413 0.267698 -0.848543
vn -0.321979 -0.440632 -0.837957
vn 0.015316 -0.336015 -0.941732
vn 0.332007 -0.452485 -0.827664
vn 0.771268 -0.048333 -0.634673
vn 0.022471 0.259039 -0.965605
vn 0.065536 0.218223 -0.973696
vn -0.001396 0.542421 -0.840105
vn -0.002683 -0.013473 0.999906
vn 0.004567 0.736235 -0.676711
vn 0.508054 0.641481 -0.574789
vn 0.007995 -0.004234 -0.999959
vn 0.669141 0.001359 -0.743134
vn 0.662146 0.002446 0.749370
vn 0.498655 0.646046 0.577899
vn -0.007671 0.004006 0.999963
vn -0.009214 0.739316 0.673295
vn 0.630033 0.776566 0.001767
vn 0.999996 0.002354 0.001291
vn 0.635399 -0.772184 0.000256
vn 0.506220 -0.640955 0.576990
vn 0.005832 -0.999983 0.000507
vn 0.000562 -0.736236 0.676724
vn -0.628496 -0.777812 0.000916
vn -0.506539 -0.640315 0.577422
vn -0.999986 -0.005068 -0.001295
vn -0.669178 0.002057 0.743099
vn -0.635550 0.772054 -0.002951
vn -0.510972 0.640497 0.573299
vn -0.002730 0.999996 -0.000506
vn 0.510870 -0.640011 -0.573932
vn 0.007316 -0.739333 -0.673300
vn -0.498560 -0.647825 -0.575986
vn -0.662142 -0.008269 -0.749333
vn -0.504846 0.638486 -0.580918
f 53/63/1 54/64/2 2/2/3
f 2/2/3 63/75/4 53/63/1
f 4/4/5 5/3/6 7/8/7
f 7/8/7 5/3/6 8/7/8
f 5/3/6 6/6/9 8/7/8
f 8/7/8 6/6/9 9/9/10
f 7/8/7 51/10/11 34/12/12
f 34/12/12 51/10/11 44/11/13
f 50/13/14 28/14/15 49/16/16
f 49/16/16 28/14/15 12/15/17
f 29/17/18 25/18/19 28/14/15
f 28/14/15 25/18/19 12/15/17
f 22/19/20 32/20/21 26/22/22
f 26/22/22 32/20/21 33/21/23
f 33/21/23 34/12/12 26/22/22
f 26/22/22 34/12/12 10/23/24
f 43/24/25 52/25/26 27/26/27
f 6/6/9 29/17/18 9/9/10
f 9/9/10 29/17/18 28/14/15
f 30/27/28 29/17/18 3/5/29
f 3/5/29 29/17/18 6/6/9
f 62/74/30 63/75/4 31/28/31
f 31/28/31 63/75/4 2/2/3
f 55/65/32 31/28/31 54/64/2
f 54/64/2 31/28/31 2/2/3
f 32/20/21 1/1/33 33/21/23
f 33/21/23 1/1/33 4/4/5
f 34/12/12 33/21/23 7/8/7
f 7/8/7 33/21/23 4/4/5
f 34/12/12 44/11/13 10/23/24
f 10/23/24 44/11/13 45/29/34
f 44/11/13 51/10/11 27/26/27
f 44/11/13 27/26/27 45/29/34
f 45/29/34 27/26/27 11/30/35
f 27/26/27 50/13/14 11/30/35
f 11/30/35 50/13/14 49/16/16
f 9/9/10 52/25/26 8/7/8
f 8/7/8 52/25/26 43/24/25
f 7/8/7 8/7/8 51/10/11
f 51/10/11 8/7/8 43/24/25
f 27/26/27 51/10/11 43/24/25
f 52/25/26 9/9/10 50/13/14
f 50/13/14 9/9/10 28/14/15
f 27/26/27 52/25/26 50/13/14
f 12/32/17 41/35/36 49/31/16
f 49/31/16 41/35/36 48/36/37
f 56/66/38 23/33/39 55/65/32
f 55/65/32 23/33/39 31/28/31
f 61/72/40 62/74/30 23/33/39
f 23/33/39 62/74/30 31/28/31
f 24/34/41 25/18/19 30/27/28
f 30/27/28 25/18/19 29/17/18
f 25/37/19 40/38/42 12/32/17
f 12/32/17 40/38/42 41/35/36
f 15/39/43 41/35/36 18/40/44
f 18/40/44 41/35/36 40/38/42
f 49/31/16 48/36/37 11/41/35
f 11/41/35 48/36/37 42/42/45
f 10/44/24 45/45/34 35/43/46
f 35/43/46 45/45/34 46/46/47
f 37/47/48 22/48/20 36/50/49
f 36/50/49 22/48/20 26/49/22
f 35/43/46 36/50/49 10/44/24
f 10/44/24 36/50/49 26/49/22
f 13/51/50 16/52/51 35/43/46
f 35/43/46 16/52/51 36/50/49
f 37/47/48 36/50/49 19/53/52
f 19/53/52 36/50/49 16/52/51
f 45/45/34 11/41/35 46/46/47
f 46/46/47 11/41/35 42/42/45
f 14/55/53 15/39/43 17/54/54
f 17/54/54 15/39/43 18/40/44
f 17/54/54 18/40/44 59/70/55
f 59/70/55 18/40/44 21/57/56
f 56/67/38 57/68/57 23/59/39
f 23/59/39 57/68/57 38/58/58
f 38/58/58 60/71/59 23/59/39
f 23/59/39 60/71/59 61/73/40
f 25/37/19 24/61/41 40/38/42
f 40/38/42 24/61/41 39/60/60
f 20/56/61 38/58/58 58/69/62
f 58/69/62 38/58/58 57/68/57
f 39/60/60 21/57/56 40/38/42
f 40/38/42 21/57/56 18/40/44
f 47/62/63 48/36/37 15/39/43
f 15/39/43 48/36/37 41/35/36
f 47/62/63 46/46/47 42/42/45
f 42/42/45 48/36/37 47/62/63
f 20/56/61 59/70/55 38/58/58
f 38/58/58 59/70/55 60/71/59
f 17/54/54 58/69/62 16/52/51
f 16/52/51 58/69/62 19/53/52
f 17/54/54 16/52/51 14/55/53
f 14/55/53 16/52/51 13/51/50
f 47/62/63 13/51/50 46/46/47
f 46/46/47 13/51/50 35/43/46
f 1/1/33 64/76/64 4/4/5
f 4/4/5 64/76/64 5/3/6
f 32/20/21 55/65/32 1/1/33
f 1/1/33 55/65/32 54/64/2
f 32/20/21 22/19/20 55/65/32
f 55/65/32 22/19/20 56/66/38
f 57/68/57 56/67/38 37/47/48
f 37/47/48 56/67/38 22/48/20
f 58/69/62 57/68/57 19/53/52
f 19/53/52 57/68/57 37/47/48
f 59/70/55 21/57/56 60/71/59
f 60/71/59 21/57/56 39/60/60
f 60/71/59 39/60/60 61/73/40
f 61/73/40 39/60/60 24/61/41
f 61/72/40 24/34/41 62/74/30
f 62/74/30 24/34/41 30/27/28
f 63/75/4 62/74/30 3/5/29
f 3/5/29 62/74/30 30/27/28
f 3/5/29 6/6/9 64/76/64
f 64/76/64 6/6/9 5/3/6
f 14/55/53 47/62/63 15/39/43
f 14/55/53 13/51/50 47/62/63
f 59/70/55 20/56/61 17/54/54
f 20/56/61 58/69/62 17/54/54
f 54/64/2 53/63/1 1/1/33
f 1/1/33 53/63/1 64/76/64
f 53/63/1 63/75/4 64/76/64
f 64/76/64 63/75/4 3/5/29
f 77/85/65 69/86/66 73/88/67
f 73/88/67 69/86/66 74/87/68
f 82/77/69 65/78/70 78/80/71
f 78/80/71 65/78/70 79/79/72
f 85/81/73 65/78/70 83/82/74
f 83/82/74 65/78/70 82/77/69
f 84/83/75 66/84/76 86/96/77
f 86/96/77 66/84/76 81/94/78
f 87/98/79 67/99/80 88/103/81
f 88/103/81 67/99/80 80/102/82
f 89/104/83 68/105/84 90/106/85
f 90/106/85 68/105/84 79/79/72
f 74/87/68 70/89/86 73/88/67
f 73/88/67 70/89/86 75/90/87
f 75/90/87 71/91/88 73/88/67
f 73/88/67 71/91/88 76/92/89
f 76/92/89 72/93/90 73/88/67
f 73/88/67 72/93/90 77/85/65
f 79/79/72 68/105/84 78/80/71
f 78/80/71 68/105/84 80/102/82
f 80/102/82 67/99/80 78/80/71
f 78/80/71 67/99/80 81/94/78
f 81/94/78 66/84/76 78/80/71
f 78/80/71 66/84/76 82/77/69
f 82/77/69 66/84/76 83/82/74
f 83/82/74 66/84/76 84/83/75
f 84/95/75 70/89/86 83/97/74
f 83/97/74 70/89/86 74/87/68
f 74/87/68 69/86/66 83/97/74
f 83/97/74 69/86/66 85/100/73
f 81/94/78 67/99/80 86/96/77
f 86/96/77 67/99/80 87/98/79
f 87/101/79 71/91/88 86/110/77
f 86/110/77 71/91/88 75/90/87
f 75/90/87 70/89/86 86/110/77
f 86/110/77 70/89/86 84/95/75
f 80/102/82 68/105/84 88/103/81
f 88/103/81 68/105/84 89/104/83
f 89/109/83 72/93/90 88/108/81
f 88/108/81 72/93/90 76/92/89
f 76/92/89 71/91/88 88/108/81
f 88/108/81 71/91/88 87/101/79
f 79/79/72 65/78/70 90/106/85
f 90/106/85 65/78/70 85/81/73
f 85/100/73 69/86/66 90/107/85
f 90/107/85 69/86/66 77/85/65
f 77/85/65 72/93/90 90/107/85
f 90/107/85 72/93/90 89/109/83
