# This file uses centimeters as units for non-parametric coordinates.

v -0.078143 -0.090624 0.065470
v 0.000172 -0.133564 0.064615
v 0.079420 -0.090624 0.065471
v -0.066196 -0.071724 -0.018645
v 0.000093 -0.056842 -0.049295
v 0.071234 -0.071724 -0.018645
v -0.116261 0.147608 0.064947
v 0.001304 0.215733 0.064271
v 0.001295 0.190629 0.015373
v -0.087556 0.123432 0.015373
v 0.120864 0.147537 0.064947
v 0.098236 0.123177 0.015373
v 0.073407 -0.123942 0.031725
v -0.000028 -0.147117 0.016231
v -0.070156 -0.122870 0.026947
v -0.165816 0.019532 0.065225
v -0.000535 0.023385 0.064495
v -0.000780 0.027789 -0.034905
v -0.130894 0.023294 -0.001857
v 0.168954 0.024139 0.065215
v 0.142204 0.026983 -0.001184
v 0.169918 0.024854 0.050146
v -0.164619 0.020326 0.047302
vt 0.244667 0.639859
vt 0.246920 0.590874
vt 0.254250 0.591162
vt 0.259157 0.638188
vt 0.245199 0.539367
vt 0.258456 0.539599
vt 0.182711 0.725672
vt 0.186478 0.591466
vt 0.365589 0.593921
vt 0.308717 0.704707
vt 0.234392 0.710974
vt 0.184708 0.453807
vt 0.229542 0.464787
vt 0.311351 0.471092
vt 0.087076 0.867458
vt 0.071635 0.910078
vt 0.044963 0.915862
vt 0.046162 0.869771
vt 0.071479 0.831072
vt 0.047043 0.828201
vt 0.028917 0.916232
vt 0.029502 0.869460
vt 0.028278 0.823749
vt 0.232009 0.681329
vt 0.212510 0.590856
vt 0.304793 0.592355
vt 0.262888 0.675230
vt 0.231569 0.496472
vt 0.261916 0.502389
vt 0.240046 0.498528
vt 0.236952 0.682519
vn -0.002827 0.800222 0.599697
vn -0.006819 0.673198 -0.739431
vn -0.765006 0.635082 0.106944
vn -0.514565 0.416437 -0.749536
vn 0.752680 0.636341 0.168948
vn 0.529649 0.438991 -0.725782
vn -0.014459 -0.667005 0.744913
vn 0.000060 0.002003 0.999998
vn -0.500258 -0.492649 0.712066
vn -0.669107 -0.099962 0.736413
vn -0.011338 -0.243212 -0.969907
vn -0.494399 -0.337207 -0.801162
vn -0.011009 0.186992 -0.982300
vn -0.560814 0.077477 -0.824309
vn -0.612325 -0.789807 -0.035544
vn -0.929965 -0.147854 -0.336608
vn 0.470319 -0.456910 0.755005
vn 0.628920 -0.090792 0.772151
vn 0.605309 -0.795540 0.026769
vn 0.505093 -0.361258 -0.783820
vn 0.959495 -0.153583 -0.236181
vn 0.589020 0.067911 -0.805260
vn -0.006288 -0.866445 -0.499232
f 8/2/1 9/3/2 7/1/3
f 7/1/3 9/3/2 10/4/4
f 8/2/1 11/5/5 9/3/2
f 9/3/2 11/5/5 12/6/6
f 2/8/7 17/25/8 1/7/9
f 1/7/9 17/25/8 16/24/10
f 5/9/11 4/10/12 18/26/13
f 18/26/13 4/10/12 19/27/14
f 15/11/15 23/31/16 4/10/12
f 4/10/12 23/31/16 19/27/14
f 2/8/7 3/12/17 17/25/8
f 17/25/8 3/12/17 20/28/18
f 13/13/19 6/14/20 22/30/21
f 22/30/21 6/14/20 21/29/22
f 5/9/11 18/26/13 6/14/20
f 6/14/20 18/26/13 21/29/22
f 5/15/11 6/16/20 14/18/23
f 14/18/23 6/16/20 13/17/19
f 5/15/11 14/18/23 4/19/12
f 4/19/12 14/18/23 15/20/15
f 13/13/19 22/30/21 3/12/17
f 3/12/17 22/30/21 20/28/18
f 14/18/23 13/17/19 2/22/7
f 2/22/7 13/17/19 3/21/17
f 14/18/23 2/22/7 15/20/15
f 15/20/15 2/22/7 1/23/9
f 7/1/3 23/31/16 16/24/10
f 16/24/10 17/25/8 7/1/3
f 7/1/3 17/25/8 8/2/1
f 19/27/14 10/4/4 18/26/13
f 18/26/13 10/4/4 9/3/2
f 19/27/14 23/31/16 10/4/4
f 10/4/4 23/31/16 7/1/3
f 20/28/18 11/5/5 17/25/8
f 17/25/8 11/5/5 8/2/1
f 21/29/22 12/6/6 22/30/21
f 22/30/21 12/6/6 11/5/5
f 21/29/22 18/26/13 12/6/6
f 12/6/6 18/26/13 9/3/2
f 20/28/18 22/30/21 11/5/5
f 16/24/10 23/31/16 1/7/9
f 1/7/9 23/31/16 15/11/15
