# This file uses centimeters as units for non-parametric coordinates.

v 0.169249 -0.257473 0.129572
v 0.182398 -0.108781 0.095891
v -0.006502 -0.114104 0.228072
v -0.008560 -0.321536 0.145727
v 0.137688 0.020933 0.049233
v -0.010855 0.087191 0.041006
v -0.178221 -0.250979 0.143354
v -0.169758 -0.100784 0.110469
v -0.141972 0.019081 0.046522
v 0.242805 -0.281539 -0.028066
v 0.245191 -0.112360 -0.038520
v -0.008427 -0.333910 -0.027711
v 0.159150 0.037618 -0.038387
v -0.224507 -0.283478 -0.019899
v -0.255235 -0.108840 -0.048734
v -0.169167 0.044249 -0.040095
v 0.182474 -0.261297 -0.120748
v 0.189030 -0.123745 -0.145203
v 0.001296 -0.293045 -0.147600
v 0.002509 0.071528 -0.110070
v 0.120792 0.024486 -0.096685
v -0.208577 -0.267140 -0.114555
v -0.211913 -0.147565 -0.158052
v -0.156935 0.025243 -0.096704
v -0.002940 -0.141783 -0.215686
v -0.006296 0.122359 -0.008167
v -0.006950 -0.249972 0.219728
v -0.001304 -0.275516 -0.180506
v -0.006539 -0.008907 0.091803
v -0.009903 -0.105433 0.129356
v 0.158589 -0.090370 0.049430
v -0.155760 -0.081065 0.054772
v 0.196552 -0.058843 -0.038753
v -0.205887 -0.062376 -0.072277
v 0.142550 -0.060960 -0.119291
v -0.165500 -0.063276 -0.139781
v 0.002430 -0.062097 -0.195588
v 0.188871 -0.176826 0.117211
v -0.188459 -0.197808 0.142398
v 0.274518 -0.183776 -0.025070
v -0.274184 -0.194451 -0.026457
v 0.216527 -0.188856 -0.146989
v -0.240296 -0.206703 -0.128938
v -0.006592 -0.185109 0.238196
v 0.000219 -0.222080 -0.214071
v -0.165822 0.039158 -0.002993
v -0.198241 -0.066560 -0.012391
v -0.240678 -0.104059 0.054371
v -0.265059 -0.192587 0.072559
v -0.224649 -0.272915 0.075703
v -0.007497 -0.336583 0.079293
v 0.228655 -0.270969 0.067217
v 0.260519 -0.178892 0.055935
v 0.240276 -0.100085 0.024157
v 0.186367 -0.071722 0.004543
v 0.158796 0.044816 0.003501
v 0.068688 0.076524 0.041746
v 0.081172 0.097589 0.003733
v 0.103181 0.104855 -0.033272
v 0.069331 0.064057 -0.112386
v -0.081646 0.068794 0.041615
v -0.109324 0.087865 -0.004175
v -0.082270 0.011412 0.079062
v -0.048665 0.042803 0.074527
v -0.003893 0.055231 0.071950
v 0.030974 0.039142 0.076033
v 0.063066 0.008444 0.082876
v 0.066926 -0.094998 0.120268
v 0.089840 -0.112854 0.207648
v 0.099269 -0.187551 0.217539
v 0.072343 -0.247143 0.211005
v -0.007648 -0.281147 0.209077
v -0.083827 -0.249539 0.204190
v -0.128086 -0.189738 0.213622
v -0.121658 -0.116561 0.201298
v -0.102462 -0.092868 0.108584
v -0.094778 -0.302071 0.156773
v -0.102065 -0.324709 0.058214
v -0.110107 -0.323981 -0.025921
v 0.092725 -0.302943 0.145150
v 0.111185 -0.319637 0.066412
v 0.125838 -0.315936 -0.017437
v -0.086089 0.050897 -0.120834
v -0.090862 -0.065372 -0.176995
v -0.119387 -0.147692 -0.198546
v -0.128388 -0.216180 -0.191602
v -0.112809 -0.264344 -0.167506
v -0.096120 -0.285527 -0.137623
v 0.084488 -0.064871 -0.171178
v 0.106992 -0.143929 -0.191538
v 0.126280 -0.221343 -0.179996
v 0.084414 -0.264414 -0.174036
v -0.124261 0.101441 -0.042486
v -0.009445 0.134385 -0.044251
v 0.000081 -0.232417 0.223157
v 0.071260 -0.166533 0.224200
v -0.004931 -0.114844 0.222987
v -0.079802 -0.172060 0.220911
v 0.069536 -0.163475 0.242269
v -0.001198 -0.224684 0.236374
v -0.005870 -0.106637 0.247081
v -0.079880 -0.172836 0.239108
v 0.121154 0.023149 -0.057172
v 0.351485 0.562569 0.004649
v 0.220758 0.588200 0.136684
v 0.053174 0.065069 0.032674
v 0.116359 0.065287 -0.098756
v -0.011839 0.131062 -0.027422
v 0.192170 0.622714 0.109096
v 0.322897 0.597082 -0.022940
v 0.295097 0.328472 -0.097900
v 0.122190 0.351624 0.085759
v 0.027964 0.384518 0.040143
v 0.244825 0.352307 -0.153308
v 0.328684 0.636270 0.083840
v 0.035407 0.023793 -0.035701
v -0.008794 -0.011758 -0.157522
v 0.298888 0.667446 0.043608
v 0.126222 0.362926 -0.003094
v 0.127147 0.380953 -0.077063
v -0.118594 0.049822 0.016520
v -0.128588 0.310166 0.073903
v -0.175128 0.306513 -0.007733
v -0.090337 -0.011564 -0.020192
v -0.037529 0.074281 -0.042120
v -0.090761 0.005420 -0.135915
v -0.165759 0.347586 -0.054053
v -0.074947 0.373977 0.020169
v -0.194018 0.591740 0.097090
v -0.268153 0.633983 0.107136
v -0.293899 0.622479 0.142368
v -0.204598 0.557637 0.135751
v -0.341739 0.585523 0.034102
v -0.287545 0.291294 -0.100377
v -0.288080 0.236334 -0.044302
v -0.352319 0.551420 0.072762
v -0.155835 0.030252 -0.077892
v -0.173833 0.016239 -0.041958
v -0.316159 0.415391 -0.043665
v -0.337674 0.369620 -0.009066
v -0.214480 0.458294 0.025475
v -0.200002 0.437474 -0.018920
v -0.117041 0.481162 0.038416
v -0.159792 0.457672 0.109223
v -0.007328 -0.168564 0.257427
v 0.077922 -0.287382 -0.139647
v 0.330300 0.478069 -0.047559
v 0.286786 0.494782 -0.095054
v 0.172234 0.492753 0.115993
v 0.094961 0.523561 0.066518
v 0.193985 0.506121 0.032639
v 0.187498 0.510942 -0.042970
v -0.254432 0.556707 0.073679
v 0.249363 0.571286 0.047014
v 0.040648 -0.125827 0.239486
v 0.040119 -0.128484 0.220001
v -0.052662 -0.202685 0.222590
v -0.049455 -0.201173 0.241414
v 0.044320 -0.197453 0.238454
v 0.050845 -0.197094 0.223734
v -0.052890 -0.131485 0.220477
v -0.053184 -0.130356 0.241717
vt 0.520875 0.154161
vt 0.550222 0.142073
vt 0.546677 0.195092
vt 0.530335 0.202816
vt 0.674141 0.227036
vt 0.666552 0.209897
vt 0.690591 0.188599
vt 0.695636 0.230322
vt 0.524492 0.295139
vt 0.530422 0.253057
vt 0.545934 0.266962
vt 0.542469 0.299838
vt 0.657344 0.295753
vt 0.651175 0.264269
vt 0.667222 0.248547
vt 0.684721 0.267553
vt 0.579137 0.141458
vt 0.546115 0.093363
vt 0.583506 0.094819
vt 0.507746 0.188306
vt 0.483216 0.167622
vt 0.507851 0.112408
vt 0.659486 0.156299
vt 0.603888 0.138299
vt 0.613754 0.111481
vt 0.679210 0.137804
vt 0.501980 0.229177
vt 0.510231 0.261275
vt 0.479238 0.277194
vt 0.504283 0.661760
vt 0.530149 0.653526
vt 0.539004 0.713829
vt 0.498178 0.730063
vt 0.441335 0.712372
vt 0.422621 0.644496
vt 0.472137 0.655244
vt 0.563724 0.641319
vt 0.607841 0.631900
vt 0.625588 0.663588
vt 0.570010 0.685479
vt 0.411500 0.567423
vt 0.417697 0.509085
vt 0.474021 0.478558
vt 0.465226 0.528697
vt 0.441896 0.444278
vt 0.492681 0.415744
vt 0.499053 0.468162
vt 0.541102 0.424686
vt 0.567681 0.451286
vt 0.560980 0.492450
vt 0.522500 0.481979
vt 0.557725 0.571046
vt 0.629738 0.571890
vt 0.623096 0.603568
vt 0.558123 0.607454
vt 0.495402 0.622452
vt 0.481145 0.229282
vt 0.540354 0.345163
vt 0.508782 0.329770
vt 0.581629 0.297988
vt 0.606423 0.306160
vt 0.613621 0.341549
vt 0.577150 0.338491
vt 0.705989 0.289346
vt 0.675757 0.318569
vt 0.712919 0.176627
vt 0.727616 0.228337
vt 0.521709 0.229381
vt 0.599281 0.271065
vt 0.650719 0.194589
vt 0.599295 0.194892
vt 0.480128 0.605466
vt 0.566603 0.265075
vt 0.568002 0.198260
vt 0.617143 0.356949
vt 0.689065 0.335824
vt 0.588152 0.390730
vt 0.532862 0.405437
vt 0.474088 0.373770
vt 0.447045 0.297924
vt 0.440098 0.230119
vt 0.451301 0.139072
vt 0.474580 0.059433
vt 0.540904 0.037465
vt 0.588604 0.059102
vt 0.624189 0.092431
vt 0.688314 0.117974
vt 0.733034 0.155676
vt 0.642546 0.228180
vt 0.597571 0.229614
vt 0.565720 0.228471
vt 0.477024 0.570356
vt 0.547152 0.228791
vt 0.529894 0.229041
vt 0.498554 0.570606
vt 0.726674 0.306404
vt 0.524361 0.522496
vt 0.499413 0.519950
vt 0.607210 0.493339
vt 0.616543 0.529695
vt 0.558319 0.530482
vt 0.464059 0.571693
vt 0.465290 0.605918
vt 0.479746 0.524504
vt 0.526754 0.569050
vt 0.524785 0.614269
vt 0.749550 0.230953
vt 0.662070 0.500868
vt 0.569286 0.916197
vt 0.553627 0.897225
vt 0.577368 0.896559
vt 0.539974 0.875856
vt 0.520614 0.857758
vt 0.546359 0.841040
vt 0.554477 0.870795
vt 0.568415 0.880301
vt 0.157994 0.082005
vt 0.197520 0.045180
vt 0.120975 0.258186
vt 0.066275 0.257958
vt 0.034601 0.250793
vt 0.160500 0.043699
vt 0.761204 0.327852
vt 0.059223 0.421472
vt 0.083967 0.459357
vt 0.076811 0.492361
vt 0.034328 0.433574
vt 0.140622 0.433636
vt 0.153807 0.354385
vt 0.183483 0.385126
vt 0.160737 0.457054
vt 0.196784 0.118648
vt 0.217311 0.037711
vt 0.229010 0.082039
vt 0.102974 0.343999
vt 0.057637 0.347819
vt 0.028278 0.365873
vt 0.204250 0.281228
vt 0.170123 0.270539
vt 0.586265 0.866731
vt 0.835335 0.468828
vt 0.604610 0.897832
vt 0.274970 0.104409
vt 0.283044 0.067585
vt 0.854703 0.060896
vt 0.334874 0.261512
vt 0.297822 0.284137
vt 0.263161 0.267137
vt 0.260706 0.085435
vt 0.332159 0.428424
vt 0.362489 0.461671
vt 0.369361 0.489570
vt 0.309317 0.443314
vt 0.398816 0.428491
vt 0.396573 0.318842
vt 0.421156 0.304339
vt 0.420187 0.439026
vt 0.301591 0.076477
vt 0.245628 0.037529
vt 0.305333 0.053388
vt 0.347705 0.321244
vt 0.311540 0.346917
vt 0.281410 0.371982
vt 0.389625 0.205291
vt 0.379384 0.240477
vt 0.871766 0.256636
vt 0.783415 0.316491
vt 0.870111 0.181310
vt 0.865289 0.313574
vt 0.828207 0.304628
vt 0.832828 0.358216
vt 0.828225 0.172531
vt 0.818173 0.045835
vt 0.764218 0.212727
vt 0.828166 0.248213
vt 0.774406 0.144973
vt 0.585465 0.931924
vt 0.629246 0.475224
vt 0.542943 0.954810
vt 0.518603 0.929798
vt 0.537590 0.914638
vt 0.749898 0.475418
vt 0.852351 0.037179
vt 0.728697 0.335101
vt 0.711906 0.480411
vt 0.758195 0.550123
vt 0.716780 0.555358
vt 0.708927 0.344592
vt 0.788622 0.646141
vt 0.770843 0.590243
vt 0.826532 0.596802
vt 0.552829 0.926661
vt 0.528574 0.894038
vt 0.501109 0.893522
vt 0.725213 0.612757
vt 0.834147 0.545835
vt 0.663860 0.631134
vt 0.681132 0.566608
vn 0.711226 0.076793 0.698757
vn 0.518790 -0.060053 0.852790
vn 0.607875 -0.481035 0.631739
vn 0.305381 -0.418915 0.855133
vn 0.025312 0.510728 0.859369
vn 0.140423 0.488725 0.861063
vn 0.008546 0.750458 0.660863
vn 0.294596 0.654013 0.696764
vn -0.303679 -0.422930 0.853762
vn -0.512504 -0.114957 0.850955
vn -0.590914 -0.528528 0.609490
vn -0.759465 0.045599 0.648949
vn -0.620278 0.409414 0.669056
vn -0.346538 0.346719 0.871606
vn -0.316037 0.679209 0.662417
vn -0.167496 0.495816 0.852122
vn 0.878531 0.048503 0.475216
vn 0.482107 0.719239 0.500269
vn 0.660582 0.703486 0.262181
vn 0.310022 -0.836741 0.451388
vn 0.289630 -0.941375 0.172993
vn 0.644512 -0.620344 0.446964
vn 0.461644 0.621402 0.633044
vn 0.749513 0.538646 0.384827
vn 0.604248 0.337837 0.721631
vn 0.764483 0.548651 0.338449
vn 0.006230 -0.922734 0.385388
vn -0.309634 -0.828597 0.466427
vn -0.000280 -0.989285 0.145997
vn -0.281302 -0.947678 0.150917
vn -0.677261 -0.597590 0.429190
vn -0.888394 -0.054612 0.455822
vn -0.468591 0.719501 0.512582
vn -0.482761 0.650900 0.585893
vn -0.689042 0.657035 0.305821
vn -0.796152 0.531028 0.290089
vn 0.576189 0.413902 -0.704763
vn 0.804733 0.560378 -0.195913
vn 0.742694 -0.091070 -0.663410
vn 0.990557 0.082001 -0.109875
vn 0.762386 -0.628359 -0.154703
vn 0.251542 -0.958206 -0.136267
vn 0.409308 -0.720972 -0.559165
vn 0.603493 0.459181 -0.651881
vn 0.663006 0.424985 -0.616288
vn 0.846319 0.487061 -0.215674
vn 0.807290 0.487968 -0.331920
vn 0.013175 -0.985545 -0.168901
vn -0.220672 -0.959191 -0.176797
vn -0.153874 -0.898547 -0.411019
vn -0.520420 -0.715069 -0.466733
vn -0.656202 -0.753904 -0.032060
vn -0.985236 -0.147940 -0.086163
vn -0.801232 -0.170390 -0.573580
vn -0.862127 0.479238 -0.164520
vn -0.833567 0.489593 -0.255860
vn -0.650792 0.253862 -0.715558
vn -0.564801 0.415521 -0.712981
vn -0.004049 0.634941 -0.772550
vn 0.307735 0.604793 -0.734523
vn 0.030139 0.412454 -0.910480
vn 0.429934 0.348047 -0.833079
vn 0.375567 -0.225157 -0.899029
vn 0.257614 -0.635554 -0.727809
vn 0.027534 -0.273881 -0.961369
vn -0.002823 -0.774954 -0.632011
vn -0.283489 0.155389 -0.946302
vn -0.363345 -0.296503 -0.883214
vn -0.238599 0.599009 -0.764368
vn -0.297473 0.368439 -0.880774
vn -0.642718 0.481879 -0.595573
vn -0.466473 0.769529 0.436150
vn -0.792190 0.502440 0.346394
vn 0.284943 0.842786 0.456640
vn -0.078631 0.880939 0.466652
vn -0.010729 -0.638313 0.769702
vn -0.001284 -0.917523 -0.397681
vn 0.183276 -0.895480 -0.405617
vn -0.228912 -0.663937 -0.711890
vn 0.036787 0.177301 -0.983469
vn 0.364703 0.192804 -0.910944
vn -0.194705 0.737934 0.646176
vn 0.281632 0.333657 0.899642
vn 0.171772 0.750498 0.638159
vn -0.861996 0.505374 0.039502
vn -0.371870 0.666964 0.645656
vn 0.343879 0.661933 0.666027
vn 0.563866 0.805084 -0.184105
vn -0.023696 0.308287 0.950998
vn -0.031181 0.879203 0.475426
vn -0.019276 0.731942 0.681094
vn -0.013777 -0.052425 0.998530
vn -0.038584 -0.297970 0.953795
vn -0.012918 0.984514 -0.174830
vn -0.559334 0.811484 -0.169230
vn -0.554088 0.718235 0.420862
vn 0.000816 -0.064439 0.997921
vn -0.018703 0.843610 0.536630
vn 0.464130 -0.607629 0.644492
vn 0.715909 -0.655248 0.241091
vn 0.840993 0.010464 0.540945
vn 0.994961 0.051046 0.086299
vn 0.643078 0.759862 -0.095181
vn -0.032238 0.976662 -0.212349
vn 0.495951 0.778388 0.384896
vn -0.701995 0.711700 -0.026185
vn -0.997511 -0.070134 -0.007289
vn -0.589958 -0.786949 0.180722
vn -0.865431 -0.088236 0.493197
vn -0.416793 -0.632794 0.652575
vn 0.919333 -0.326265 -0.219948
vn 0.740740 -0.338771 0.580119
vn 0.607618 -0.737026 0.295960
vn -0.035496 -0.928411 0.369856
vn -0.528593 -0.591697 -0.608674
vn -0.523419 0.347410 -0.778035
vn 0.322967 -0.506505 -0.799466
vn 0.132153 0.057168 -0.989579
vn 0.006027 0.949846 -0.312659
vn 0.761255 0.299312 0.575242
vn 0.543555 0.530737 -0.650281
vn 0.927184 -0.242247 0.285737
vn -0.855717 0.460145 0.236677
vn 0.240844 -0.358997 0.901729
vn -0.488678 0.730874 0.476463
vn 0.329717 -0.205986 0.921334
vn -0.948649 -0.057895 0.310986
vn 0.314635 -0.580074 0.751345
vn 0.745023 -0.519418 0.418504
vn 0.182213 -0.295400 0.937836
vn 0.246180 0.360469 -0.899698
vn -0.454730 0.590948 -0.666335
vn 0.885629 -0.336088 0.320477
vn -0.942684 0.243896 0.227730
vn 0.526204 -0.655284 0.541952
vn -0.109441 -0.254335 0.960904
vn -0.578402 -0.251415 0.776042
vn -0.285834 -0.361071 0.887652
vn -0.130525 -0.957549 0.257029
vn 0.224979 -0.545948 -0.807047
vn 0.269601 0.316457 -0.909489
vn 0.980478 -0.089369 0.175149
vn 0.947478 0.298540 -0.114712
vn 0.743131 0.668289 0.033863
vn 0.039335 0.998225 -0.044720
vn 0.214280 0.109549 0.970610
vn -0.379714 -0.051270 0.923682
vn -0.482109 0.624000 -0.614976
vn -0.497421 0.291976 -0.816898
vn -0.851248 -0.031924 0.523792
vn -0.826823 -0.307486 0.470975
vn -0.524785 -0.519029 -0.674693
vn -0.633362 -0.654302 0.413209
vn -0.862858 -0.461808 0.205449
vn -0.445854 -0.413356 0.793947
vn 0.279274 0.487211 -0.827425
vn 0.839545 0.508162 -0.192184
vn 0.238357 -0.139852 0.961055
vn -0.571328 -0.042797 -0.819605
vn -0.408065 -0.626077 0.664463
vn -0.083775 -0.730302 0.677968
vn 0.201828 -0.882524 0.424755
f 38/2/1 70/3/2 1/1/3
f 1/1/3 70/3/2 71/4/4
f 65/5/5 66/6/6 6/8/7
f 6/8/7 66/6/6 57/7/8
f 73/10/9 74/11/10 7/9/11
f 7/9/11 74/11/10 39/12/12
f 9/13/13 63/14/14 61/16/15
f 61/16/15 63/14/14 64/15/16
f 38/2/1 53/18/17 2/17/18
f 2/17/18 53/18/17 54/19/19
f 80/20/20 81/21/21 1/1/3
f 1/1/3 81/21/21 52/22/22
f 31/24/23 55/25/24 5/23/25
f 5/23/25 55/25/24 56/26/26
f 4/27/27 77/28/28 51/57/29
f 51/57/29 77/28/28 78/29/30
f 7/9/11 39/12/12 50/59/31
f 50/59/31 39/12/12 49/58/32
f 8/60/33 32/61/34 48/63/35
f 48/63/35 32/61/34 47/62/36
f 18/31/37 11/32/38 42/30/39
f 42/30/39 11/32/38 40/33/40
f 10/34/41 82/35/42 17/36/43
f 35/37/44 21/38/45 33/40/46
f 33/40/46 21/38/45 13/39/47
f 12/41/48 79/42/49 88/44/50
f 88/44/50 79/42/49 22/43/51
f 14/45/52 41/46/53 22/43/51
f 22/43/51 41/46/53 43/47/54
f 15/48/55 34/49/56 23/51/57
f 23/51/57 34/49/56 36/50/58
f 20/53/59 60/54/60 37/52/61
f 37/52/61 60/54/60 89/55/62
f 91/56/63 92/72/64 45/95/65
f 45/95/65 92/72/64 28/92/66
f 85/97/67 86/98/68 23/51/57
f 23/51/57 86/98/68 43/47/54
f 83/100/69 84/101/70 24/99/71
f 24/99/71 84/101/70 36/50/58
f 61/16/15 62/64/72 9/13/13
f 9/13/13 62/64/72 46/65/73
f 57/7/8 58/66/74 6/8/7
f 6/8/7 58/66/74 26/67/75
f 73/10/9 77/28/28 72/68/76
f 72/68/76 77/28/28 4/27/27
f 71/4/4 72/68/76 80/20/20
f 80/20/20 72/68/76 4/27/27
f 19/102/77 28/92/66 146/103/78
f 146/103/78 28/92/66 92/72/64
f 22/43/51 87/104/79 88/44/50
f 37/52/61 89/55/62 25/105/80
f 25/105/80 89/55/62 90/106/81
f 23/51/57 36/50/58 85/97/67
f 85/97/67 36/50/58 84/101/70
f 9/13/13 32/61/34 63/14/14
f 63/14/14 32/61/34 76/69/82
f 5/23/25 67/70/83 31/24/23
f 31/24/23 67/70/83 68/71/84
f 55/25/24 31/24/23 54/19/19
f 54/19/19 31/24/23 2/17/18
f 46/65/73 47/62/36 9/13/13
f 9/13/13 47/62/36 32/61/34
f 35/37/44 33/40/46 18/31/37
f 18/31/37 33/40/46 11/32/38
f 36/50/58 34/49/56 24/99/71
f 24/99/71 34/49/56 16/178/85
f 75/73/86 76/69/82 8/60/33
f 8/60/33 76/69/82 32/61/34
f 31/24/23 68/71/84 2/17/18
f 2/17/18 68/71/84 69/74/87
f 70/3/2 38/2/1 69/74/87
f 69/74/87 38/2/1 2/17/18
f 74/11/10 75/73/86 39/12/12
f 39/12/12 75/73/86 8/60/33
f 53/18/17 38/2/1 52/22/22
f 52/22/22 38/2/1 1/1/3
f 48/63/35 49/58/32 8/60/33
f 8/60/33 49/58/32 39/12/12
f 17/36/43 42/30/39 10/34/41
f 10/34/41 42/30/39 40/33/40
f 41/46/53 15/48/55 43/47/54
f 43/47/54 15/48/55 23/51/57
f 91/56/63 45/95/65 90/106/81
f 90/106/81 45/95/65 25/105/80
f 43/47/54 86/98/68 22/43/51
f 22/43/51 86/98/68 87/104/79
f 34/75/56 47/62/36 16/76/85
f 16/76/85 47/62/36 46/65/73
f 48/63/35 47/62/36 15/77/55
f 15/77/55 47/62/36 34/75/56
f 49/58/32 48/63/35 41/78/53
f 41/78/53 48/63/35 15/77/55
f 50/59/31 49/58/32 14/79/52
f 14/79/52 49/58/32 41/78/53
f 51/57/29 78/29/30 12/81/48
f 12/81/48 78/29/30 79/80/49
f 81/21/21 82/82/42 52/22/22
f 52/22/22 82/82/42 10/83/41
f 40/84/40 53/18/17 10/83/41
f 10/83/41 53/18/17 52/22/22
f 53/18/17 40/84/40 54/19/19
f 54/19/19 40/84/40 11/85/38
f 33/86/46 55/25/24 11/85/38
f 11/85/38 55/25/24 54/19/19
f 55/25/24 33/86/46 56/26/26
f 56/26/26 33/86/46 13/87/47
f 5/23/25 57/7/8 67/70/83
f 67/70/83 57/7/8 66/6/6
f 58/66/74 57/7/8 56/26/26
f 56/26/26 57/7/8 5/23/25
f 58/66/74 56/26/26 59/88/88
f 59/88/88 56/26/26 13/87/47
f 60/54/60 59/197/88 21/38/45
f 21/38/45 59/197/88 13/39/47
f 61/16/15 64/15/16 6/8/7
f 6/8/7 64/15/16 65/5/5
f 62/64/72 61/16/15 26/67/75
f 26/67/75 61/16/15 6/8/7
f 64/15/16 63/14/14 29/89/89
f 65/5/5 64/15/16 29/89/89
f 29/89/89 66/6/6 65/5/5
f 67/70/83 66/6/6 29/89/89
f 67/70/83 29/89/89 68/71/84
f 68/71/84 29/89/89 30/90/90
f 68/71/84 30/90/90 69/74/87
f 69/74/87 30/90/90 3/91/91
f 70/3/2 69/74/87 44/93/92
f 44/93/92 69/74/87 3/91/91
f 70/3/2 44/93/92 71/4/4
f 71/4/4 44/93/92 27/94/93
f 71/4/4 27/94/93 72/68/76
f 73/10/9 72/68/76 27/94/93
f 74/11/10 73/10/9 44/93/92
f 44/93/92 73/10/9 27/94/93
f 74/11/10 44/93/92 75/73/86
f 75/73/86 44/93/92 3/91/91
f 76/69/82 75/73/86 30/90/90
f 30/90/90 75/73/86 3/91/91
f 63/14/14 76/69/82 29/89/89
f 29/89/89 76/69/82 30/90/90
f 7/9/11 77/28/28 73/10/9
f 77/28/28 7/9/11 78/29/30
f 78/29/30 7/9/11 50/59/31
f 79/80/49 78/29/30 14/79/52
f 14/79/52 78/29/30 50/59/31
f 22/43/51 79/42/49 14/45/52
f 81/21/21 80/20/20 51/57/29
f 51/57/29 80/20/20 4/27/27
f 82/82/42 81/21/21 12/81/48
f 12/81/48 81/21/21 51/57/29
f 146/103/78 12/41/48 19/102/77
f 1/1/3 71/4/4 80/20/20
f 20/53/59 37/52/61 83/100/69
f 83/100/69 37/52/61 84/101/70
f 85/97/67 84/101/70 25/105/80
f 25/105/80 84/101/70 37/52/61
f 86/98/68 85/97/67 45/95/65
f 45/95/65 85/97/67 25/105/80
f 86/98/68 45/95/65 87/104/79
f 87/104/79 45/95/65 28/92/66
f 87/104/79 28/92/66 88/44/50
f 88/44/50 28/92/66 19/102/77
f 12/41/48 88/44/50 19/102/77
f 60/54/60 21/38/45 89/55/62
f 89/55/62 21/38/45 35/37/44
f 89/55/62 35/37/44 90/106/81
f 90/106/81 35/37/44 18/31/37
f 42/30/39 91/56/63 18/31/37
f 18/31/37 91/56/63 90/106/81
f 92/72/64 91/56/63 17/36/43
f 17/36/43 91/56/63 42/30/39
f 20/53/59 94/198/94 60/54/60
f 60/54/60 94/198/94 59/197/88
f 93/108/95 94/198/94 83/100/69
f 83/100/69 94/198/94 20/53/59
f 16/178/85 93/108/95 24/99/71
f 24/99/71 93/108/95 83/100/69
f 93/96/95 16/76/85 62/64/72
f 62/64/72 16/76/85 46/65/73
f 26/67/75 94/107/94 62/64/72
f 62/64/72 94/107/94 93/96/95
f 59/88/88 94/107/94 58/66/74
f 58/66/74 94/107/94 26/67/75
f 162/109/96 145/110/97 101/111/98
f 159/112/99 160/113/100 99/115/101
f 99/115/101 160/113/100 96/114/102
f 156/140/103 97/142/104 155/116/105
f 155/116/105 97/142/104 101/111/98
f 161/177/106 162/109/96 97/142/104
f 97/142/104 162/109/96 101/111/98
f 98/179/107 157/180/108 102/192/109
f 102/192/109 157/180/108 158/181/110
f 111/141/111 119/182/112 103/123/113
f 103/123/113 119/182/112 116/184/114
f 117/118/115 120/119/116 107/117/117
f 107/117/117 120/119/116 114/120/118
f 114/120/118 111/121/111 107/117/117
f 107/117/117 111/121/111 103/122/113
f 118/125/119 115/126/120 110/124/121
f 110/124/121 115/126/120 104/127/122
f 150/129/123 149/130/124 109/128/125
f 109/128/125 149/130/124 105/131/126
f 117/118/115 116/133/114 108/132/127
f 108/132/127 116/133/114 106/134/128
f 119/182/112 151/186/129 112/185/130
f 112/185/130 151/186/129 149/187/124
f 114/120/118 120/119/116 148/136/131
f 148/136/131 120/119/116 152/135/132
f 114/120/118 148/136/131 111/121/111
f 111/121/111 148/136/131 147/137/133
f 113/139/134 108/132/127 112/138/130
f 112/138/130 108/132/127 106/134/128
f 116/184/114 119/182/112 106/188/128
f 106/188/128 119/182/112 112/185/130
f 117/118/115 108/132/127 120/119/116
f 120/119/116 108/132/127 113/139/134
f 118/125/119 109/128/125 115/126/120
f 115/126/120 109/128/125 105/131/126
f 117/118/115 107/117/117 116/133/114
f 116/133/114 107/117/117 103/122/113
f 115/189/120 154/190/135 104/191/122
f 118/125/119 152/135/132 109/128/125
f 109/128/125 152/135/132 150/129/123
f 122/168/136 123/172/137 121/145/138
f 121/145/138 123/172/137 124/183/139
f 126/144/140 127/146/141 125/143/142
f 125/143/142 127/146/141 128/147/143
f 128/147/143 122/148/136 125/143/142
f 125/143/142 122/148/136 121/149/138
f 129/150/144 130/151/145 132/153/146
f 132/153/146 130/151/145 131/152/147
f 133/154/148 139/155/149 136/157/150
f 136/157/150 139/155/149 140/156/151
f 126/144/140 124/159/139 137/158/152
f 137/158/152 124/159/139 138/160/153
f 135/176/154 123/172/137 140/174/151
f 140/174/151 123/172/137 141/175/155
f 127/146/141 142/161/156 128/147/143
f 128/147/143 142/161/156 143/162/157
f 122/148/136 128/147/143 144/163/158
f 144/163/158 128/147/143 143/162/157
f 134/165/159 137/158/152 135/164/154
f 135/164/154 137/158/152 138/160/153
f 124/183/139 123/172/137 138/173/153
f 138/173/153 123/172/137 135/176/154
f 126/144/140 137/158/152 127/146/141
f 127/146/141 137/158/152 134/165/159
f 131/152/147 130/151/145 136/157/150
f 136/157/150 130/151/145 133/154/148
f 126/144/140 125/143/142 124/159/139
f 124/159/139 125/143/142 121/149/138
f 131/171/147 153/170/160 132/169/146
f 130/151/145 142/161/156 133/154/148
f 133/154/148 142/161/156 139/155/149
f 139/155/149 134/165/159 140/156/151
f 140/156/151 134/165/159 135/164/154
f 136/167/150 153/170/160 131/171/147
f 143/162/157 142/161/156 129/150/144
f 129/150/144 142/161/156 130/151/145
f 143/162/157 129/150/144 144/163/158
f 144/163/158 129/150/144 132/153/146
f 144/166/158 141/175/155 122/168/136
f 122/168/136 141/175/155 123/172/137
f 142/161/156 127/146/141 139/155/149
f 139/155/149 127/146/141 134/165/159
f 145/110/97 159/112/99 99/115/101
f 145/110/97 155/116/105 101/111/98
f 158/181/110 145/110/97 102/192/109
f 146/103/78 92/72/64 17/36/43
f 17/36/43 82/35/42 146/103/78
f 146/103/78 82/35/42 12/41/48
f 149/130/124 150/129/123 112/138/130
f 112/138/130 150/129/123 113/139/134
f 105/195/126 154/190/135 115/189/120
f 148/136/131 152/135/132 110/124/121
f 110/124/121 152/135/132 118/125/119
f 148/136/131 110/124/121 147/137/133
f 147/137/133 110/124/121 104/127/122
f 151/186/129 119/182/112 147/196/133
f 147/196/133 119/182/112 111/141/111
f 152/135/132 120/119/116 150/129/123
f 150/129/123 120/119/116 113/139/134
f 140/174/151 141/175/155 136/167/150
f 136/167/150 141/175/155 153/170/160
f 132/169/146 153/170/160 144/166/158
f 144/166/158 153/170/160 141/175/155
f 151/186/129 154/190/135 149/187/124
f 149/187/124 154/190/135 105/195/126
f 104/191/122 154/190/135 147/196/133
f 147/196/133 154/190/135 151/186/129
f 145/110/97 99/115/101 155/116/105
f 96/114/102 156/140/103 99/115/101
f 99/115/101 156/140/103 155/116/105
f 100/193/161 145/110/97 158/181/110
f 100/193/161 159/112/99 145/110/97
f 160/113/100 159/112/99 95/194/162
f 95/194/162 159/112/99 100/193/161
f 162/109/96 161/177/106 102/192/109
f 102/192/109 161/177/106 98/179/107
f 102/192/109 145/110/97 162/109/96
f 158/181/110 157/180/108 100/193/161
f 100/193/161 157/180/108 95/194/162
