# This file uses centimeters as units for non-parametric coordinates.

v -0.006445 0.051379 0.039993
v 0.025545 0.058308 0.040546
v 0.053082 0.052398 0.026951
v -0.012312 0.066002 -0.007429
v 0.021010 0.076872 -0.013387
v 0.055663 0.067311 -0.019651
v -0.010372 -0.040089 -0.007149
v 0.024410 -0.050566 -0.013439
v 0.059525 -0.038743 -0.019717
v -0.005888 -0.027865 0.037680
v 0.028725 -0.038335 0.037376
v 0.055322 -0.026817 0.024270
v -0.012182 0.004833 0.045558
v 0.031600 0.002884 0.063673
v 0.063894 0.006135 0.028890
v 0.068357 0.011297 -0.021793
v -0.023407 0.009616 -0.006046
v 0.037695 0.056167 -0.088649
v 0.016931 0.048267 -0.090571
v 0.008367 0.013755 -0.090990
v 0.015860 -0.015606 -0.089065
v 0.037949 -0.024524 -0.088061
v 0.060002 -0.016812 -0.087423
v 0.066926 0.012117 -0.088801
v 0.058735 0.047031 -0.088934
v 0.043368 0.019176 -0.116449
vt 0.820413 0.901453
vt 0.810216 0.902182
vt 0.809477 0.880034
vt 0.819220 0.882446
vt 0.800100 0.900702
vt 0.799362 0.878634
vt 0.803706 0.842630
vt 0.812674 0.838736
vt 0.794677 0.841385
vt 0.260351 0.958664
vt 0.249689 0.954586
vt 0.258291 0.916293
vt 0.268439 0.915152
vt 0.238698 0.955809
vt 0.247530 0.917895
vt 0.260972 0.893860
vt 0.272753 0.893491
vt 0.249420 0.893453
vt 0.834762 0.919917
vt 0.811581 0.930297
vt 0.783827 0.921665
vt 0.779521 0.883793
vt 0.777565 0.831164
vt 0.838656 0.881971
vt 0.827583 0.824147
vt 0.798062 0.821127
vt 0.265921 0.873602
vt 0.285552 0.878628
vt 0.236908 0.875288
vt 0.231088 0.917686
vt 0.222749 0.967596
vt 0.283108 0.921615
vt 0.273489 0.972783
vt 0.235240 0.971859
vn -0.703533 0.449246 0.550653
vn -0.006052 0.705602 0.708582
vn -0.732517 0.679648 -0.038688
vn -0.006144 0.999864 0.015335
vn 0.718518 0.540383 0.437856
vn 0.667978 0.744092 -0.011559
vn -0.521124 0.622217 -0.584188
vn 0.087827 0.856773 -0.508160
vn 0.780242 0.494144 -0.383463
vn 0.064456 -0.824274 -0.562510
vn 0.032097 -0.997804 -0.057937
vn -0.600716 -0.551882 -0.578417
vn -0.643409 -0.765479 -0.008221
vn 0.758410 -0.487279 -0.432866
vn 0.686236 -0.725831 -0.047430
vn 0.078421 -0.856581 0.510019
vn -0.643602 -0.524659 0.557234
vn 0.749716 -0.549861 0.368209
vn 0.277394 -0.116200 0.953704
vn -0.647937 0.020207 0.761426
vn 0.914225 -0.030076 0.404090
vn 0.999152 0.007776 0.040426
vn 0.933657 -0.008334 -0.358071
vn -0.996664 -0.068516 -0.044338
vn -0.826003 0.023721 -0.563166
vn 0.079820 0.008367 -0.996774
f 1/1/1 2/2/2 4/4/3
f 4/4/3 2/2/2 5/3/4
f 2/2/2 3/5/5 5/3/4
f 5/3/4 3/5/5 6/6/6
f 4/4/3 5/3/4 19/8/7
f 19/8/7 5/3/4 18/7/8
f 5/3/4 6/6/6 18/7/8
f 18/7/8 6/6/6 25/9/9
f 22/11/10 8/12/11 21/10/12
f 21/10/12 8/12/11 7/13/13
f 23/14/14 9/15/15 22/11/10
f 22/11/10 9/15/15 8/12/11
f 8/12/11 11/16/16 7/13/13
f 7/13/13 11/16/16 10/17/17
f 9/15/15 12/18/18 8/12/11
f 8/12/11 12/18/18 11/16/16
f 11/16/16 14/27/19 10/17/17
f 10/17/17 14/27/19 13/28/20
f 11/16/16 12/18/18 14/27/19
f 14/27/19 12/18/18 15/29/21
f 14/20/19 2/2/2 13/19/20
f 13/19/20 2/2/2 1/1/1
f 15/21/21 3/5/5 14/20/19
f 14/20/19 3/5/5 2/2/2
f 15/29/21 12/18/18 16/30/22
f 16/30/22 12/18/18 9/15/15
f 15/21/21 16/22/22 3/5/5
f 3/5/5 16/22/22 6/6/6
f 9/15/15 23/14/14 16/30/22
f 16/30/22 23/14/14 24/31/23
f 6/6/6 16/22/22 25/9/9
f 25/9/9 16/22/22 24/23/23
f 13/28/20 17/32/24 10/17/17
f 10/17/17 17/32/24 7/13/13
f 13/19/20 1/1/1 17/24/24
f 17/24/24 1/1/1 4/4/3
f 7/13/13 17/32/24 21/10/12
f 21/10/12 17/32/24 20/33/25
f 17/24/24 4/4/3 20/25/25
f 20/25/25 4/4/3 19/8/7
f 18/7/8 26/26/26 19/8/7
f 23/14/14 22/11/10 26/34/26
f 26/34/26 22/11/10 21/10/12
f 26/34/26 21/10/12 20/33/25
f 26/26/26 20/25/25 19/8/7
f 25/9/9 26/26/26 18/7/8
f 24/23/23 26/26/26 25/9/9
f 23/14/14 26/34/26 24/31/23
