# This file uses centimeters as units for non-parametric coordinates.

v -0.423837 0.500000 0.000000
v -0.500000 0.208440 0.000000
v -0.500000 -0.315071 0.000000
v -0.435982 -0.500000 0.000000
v 0.500000 0.205418 0.000000
v 0.427819 0.500000 0.000000
v 0.429935 -0.500000 0.000000
v 0.500000 -0.308307 0.000000
v -0.433731 -0.314622 0.000000
v 0.429530 -0.308784 0.000000
v 0.428239 0.301618 0.000000
v -0.426362 0.292133 0.000000
vt 0.060770 0.999538
vt 0.018191 0.946127
vt 0.018191 0.850226
vt 0.053981 0.816349
vt 0.536897 0.999538
vt 0.577250 0.945574
vt 0.577250 0.851465
vt 0.538080 0.816349
vt 0.055239 0.850308
vt 0.537853 0.851378
vt 0.537131 0.963196
vt 0.059359 0.961459
vn 0.000000 0.000000 1.000000
vn 0.000000 0.000000 1.000000
vn 0.000000 0.000000 1.000000
vn 0.000000 0.000000 1.000000
vn 0.000000 0.000000 1.000000
vn 0.000000 0.000000 1.000000
vn 0.000000 0.000000 1.000000
vn 0.000000 0.000000 1.000000
vn 0.000000 0.000000 1.000000
vn 0.000000 0.000000 1.000000
vn 0.000000 0.000000 1.000000
vn 0.000000 0.000000 1.000000
vn 0.000000 0.000000 1.000000
vn 0.000000 0.000000 1.000000
vn 0.000000 0.000000 1.000000
vn 0.000000 0.000000 1.000000
vn 0.000000 0.000000 1.000000
vn 0.000000 0.000000 1.000000
vn 0.000000 0.000000 1.000000
vn 0.000000 0.000000 1.000000
vn 0.000000 0.000000 1.000000
vn 0.000000 0.000000 1.000000
vn 0.000000 0.000000 1.000000
vn 0.000000 0.000000 1.000000
vn 0.000000 0.000000 1.000000
vn 0.000000 0.000000 1.000000
vn 0.000000 0.000000 1.000000
vn 0.000000 0.000000 1.000000
f 10/10/1 7/8/2 8/7/3
f 11/11/4 5/6/5 6/5/6
f 8/7/7 5/6/8 10/10/9
f 10/10/9 5/6/8 11/11/10
f 4/4/11 7/8/12 9/9/13
f 9/9/13 7/8/12 10/10/14
f 2/2/15 12/12/16 1/1/17
f 4/4/18 9/9/19 3/3/20
f 12/12/21 11/11/22 1/1/23
f 1/1/23 11/11/22 6/5/24
f 12/12/25 2/2/26 9/9/27
f 9/9/27 2/2/26 3/3/28
