# This file uses centimeters as units for non-parametric coordinates.

v -0.500000 0.242059 0.000000
v -0.500000 -0.260440 0.000000
v -0.443677 -0.500000 0.000000
v 0.500000 0.214489 0.000000
v 0.436126 -0.500000 0.000000
v 0.500000 -0.240261 0.000000
v 0.439183 -0.208510 0.000000
v -0.440375 -0.233647 0.000000
v -0.433664 0.307695 0.000000
v 0.426653 0.326181 0.000000
v -0.431702 0.465976 0.000000
v 0.443190 0.470179 0.000000
vt 0.020692 0.765514
vt 0.020692 0.668565
vt 0.068856 0.622346
vt 0.875831 0.760195
vt 0.875831 0.672458
vt 0.821210 0.622346
vt 0.823824 0.678584
vt 0.071680 0.673734
vt 0.077418 0.778178
vt 0.813109 0.781745
vt 0.079096 0.808716
vt 0.827250 0.809527
vn 0.000000 0.000000 1.000000
vn 0.000000 0.000000 1.000000
vn 0.000000 0.000000 1.000000
vn 0.000000 0.000000 1.000000
vn 0.000000 0.000000 1.000000
vn 0.000000 0.000000 1.000000
vn 0.000000 0.000000 1.000000
vn 0.000000 0.000000 1.000000
vn 0.000000 0.000000 1.000000
vn 0.000000 0.000000 1.000000
vn 0.000000 0.000000 1.000000
vn 0.000000 0.000000 1.000000
vn 0.000000 0.000000 1.000000
vn 0.000000 0.000000 1.000000
vn 0.000000 0.000000 1.000000
vn 0.000000 0.000000 1.000000
vn 0.000000 0.000000 1.000000
vn 0.000000 0.000000 1.000000
vn 0.000000 0.000000 1.000000
vn 0.000000 0.000000 1.000000
vn 0.000000 0.000000 1.000000
vn 0.000000 0.000000 1.000000
vn 0.000000 0.000000 1.000000
vn 0.000000 0.000000 1.000000
vn 0.000000 0.000000 1.000000
vn 0.000000 0.000000 1.000000
vn 0.000000 0.000000 1.000000
vn 0.000000 0.000000 1.000000
f 6/5/1 7/7/2 5/6/3
f 10/10/4 7/7/5 4/4/6
f 4/4/6 7/7/5 6/5/7
f 2/2/8 8/8/9 1/1/10
f 1/1/10 8/8/9 9/9/11
f 8/8/12 2/2/13 3/3/14
f 7/7/15 8/8/16 5/6/17
f 5/6/17 8/8/16 3/3/18
f 11/11/19 1/1/20 9/9/21
f 12/12/22 11/11/23 10/10/24
f 10/10/24 11/11/23 9/9/25
f 4/4/26 12/12/27 10/10/28
