# This file uses centimeters as units for non-parametric coordinates.

v -0.384600 -0.311272 0.000000
v 0.427365 -0.261484 0.000000
v 0.426067 0.311922 0.000000
v -0.384522 0.317219 0.001855
v -0.392405 0.535263 0.000000
v -0.458349 0.331117 0.000000
v -0.464728 -0.289636 0.000000
v -0.373530 -0.520981 0.000000
v 0.498219 0.221552 0.000000
v 0.425645 0.498281 0.000000
v 0.427772 -0.441111 0.000000
v 0.498219 -0.261036 0.000000
v 0.426813 -0.017497 0.000000
v -0.455357 0.000201 0.000000
v 0.498219 -0.018281 0.000000
v -0.558020 -0.007244 0.000000
v -0.303191 -0.266384 0.000000
v -0.304258 -0.441111 0.000000
v -0.299711 0.303931 0.000000
v -0.298525 0.498281 0.000000
vt 0.537853 0.851378
vt 0.538080 0.816349
vt 0.577250 0.851465
vt 0.537131 0.963196
vt 0.577250 0.945574
vt 0.536897 0.999538
vt 0.055239 0.850308
vt 0.053981 0.816349
vt 0.018191 0.946127
vt 0.059359 0.961459
vt 0.060770 0.999538
vt 0.018191 0.850226
vt 0.577250 0.898804
vt 0.537546 0.898957
vt 0.057111 0.900807
vt 0.018191 0.900957
vt 0.106690 0.850422
vt 0.106097 0.816349
vt 0.109284 0.999538
vt 0.108625 0.961638
vn 0.000000 0.000000 1.000000
vn 0.000000 0.000000 1.000000
vn 0.000000 0.000000 1.000000
vn 0.000000 0.000000 1.000000
vn 0.000000 0.000000 1.000000
vn 0.000000 0.000000 1.000000
vn 0.000000 0.000000 1.000000
vn -0.023681 0.007649 0.999690
vn -0.023681 0.007649 0.999690
vn -0.023681 0.007649 0.999690
vn 0.000000 0.000000 1.000000
vn 0.000000 0.000000 1.000000
vn 0.000000 0.000000 1.000000
vn 0.000000 0.000000 1.000000
vn 0.021848 -0.000133 0.999761
vn 0.021848 -0.000133 0.999761
vn 0.021848 -0.000133 0.999761
vn 0.003400 0.008631 0.999957
vn 0.003400 0.008631 0.999957
vn 0.003400 0.008631 0.999957
vn 0.000000 0.000000 1.000000
vn 0.000000 0.000000 1.000000
vn 0.000000 0.000000 1.000000
vn 0.000000 0.000000 1.000000
vn 0.000000 0.000000 1.000000
vn 0.000000 0.000000 1.000000
vn 0.000000 0.000000 1.000000
vn 0.000000 0.000000 1.000000
vn 0.000000 0.000000 1.000000
vn 0.000000 0.000000 1.000000
vn 0.000000 0.000000 1.000000
vn 0.000000 0.000000 1.000000
vn 0.000000 0.000000 1.000000
vn 0.000000 0.000000 1.000000
vn 0.000000 0.000000 1.000000
vn 0.000000 0.000000 1.000000
vn 0.000000 0.000000 1.000000
vn 0.000000 0.000000 1.000000
vn 0.000000 0.000000 1.000000
vn 0.000000 0.000000 1.000000
vn 0.000000 0.000000 1.000000
vn 0.000000 0.000000 1.000000
vn -0.002299 -0.000021 0.999997
vn -0.019368 -0.000175 0.999812
vn -0.025163 -0.000227 0.999683
vn 0.000000 0.000000 1.000000
vn 0.000000 0.000000 1.000000
vn 0.000000 0.000000 1.000000
f 3/4/1 9/5/2 10/6/3
f 15/13/4 9/5/5 13/14/6
f 13/14/6 9/5/5 3/4/7
f 6/9/8 4/10/9 5/11/10
f 19/20/11 3/4/12 20/19/13
f 20/19/13 3/4/12 10/6/14
f 20/19/15 4/10/16 19/20/17
f 4/10/18 20/19/19 5/11/20
f 2/1/21 11/2/22 12/3/23
f 13/14/24 2/1/25 15/13/26
f 15/13/26 2/1/25 12/3/27
f 18/18/28 11/2/29 17/17/30
f 17/17/30 11/2/29 2/1/31
f 8/8/32 1/7/33 7/12/34
f 1/7/35 18/18/36 17/17/37
f 1/7/38 14/15/39 7/12/40
f 7/12/40 14/15/39 16/16/41
f 16/16/42 14/15/43 6/9/44
f 6/9/44 14/15/43 4/10/45
f 18/18/46 1/7/47 8/8/48
