# This file uses centimeters as units for non-parametric coordinates.

v -0.273104 0.327272 0.000000
v 0.201074 0.341181 -0.001156
v -0.280338 -0.306014 0.000000
v 0.213919 -0.311652 -0.001020
v -0.260723 0.497522 0.000000
v -0.370159 0.341371 0.000000
v 0.330016 0.375717 -0.016589
v 0.185444 0.478602 -0.000807
v -0.383117 -0.323227 0.000000
v -0.280856 -0.528052 0.000000
v 0.208343 -0.457885 0.001326
v 0.326664 -0.343859 -0.003115
v -0.007283 0.418389 0.000000
v 0.014512 0.316565 0.000000
v -0.017078 -0.297792 0.000000
v 0.001644 -0.430187 0.000000
v 0.317288 0.028353 -0.000078
v 0.196368 0.025790 -0.000078
v -0.343199 0.018496 0.000000
v -0.533634 -0.010914 0.000000
v -0.437482 0.154024 0.000000
v -0.314522 0.136593 0.000000
v 0.187035 0.193415 0.000000
v 0.326992 0.204198 0.000000
v 0.317676 -0.175894 0.005669
v 0.194515 -0.164951 0.000000
v -0.302800 -0.153621 0.000000
v -0.454368 -0.154772 0.000000
vt 0.577121 0.964700
vt 0.620592 0.963170
vt 0.621842 0.994470
vt 0.730227 0.959309
vt 0.730691 0.994470
vt 0.768712 0.957955
vt 0.577121 0.843226
vt 0.615872 0.844889
vt 0.768712 0.851450
vt 0.728783 0.849736
vt 0.614609 0.813260
vt 0.728302 0.813260
vt 0.676719 0.994470
vt 0.675697 0.961229
vt 0.672195 0.847307
vt 0.671148 0.813260
vt 0.768712 0.908576
vt 0.729552 0.908065
vt 0.618335 0.906614
vt 0.577121 0.906076
vt 0.577121 0.937447
vt 0.619530 0.936555
vt 0.729887 0.933532
vt 0.768712 0.932579
vt 0.768712 0.879808
vt 0.729170 0.879077
vt 0.617145 0.876791
vt 0.577121 0.876045
vn 0.000000 0.000000 1.000000
vn 0.000000 0.000000 1.000000
vn 0.000000 0.000000 1.000000
vn 0.001903 -0.000098 0.999998
vn 0.005102 -0.001207 0.999986
vn 0.004811 -0.001991 0.999986
vn 0.116014 0.010675 0.993190
vn 0.116014 0.010675 0.993190
vn 0.116014 0.010675 0.993190
vn 0.000000 0.000000 1.000000
vn 0.000000 0.000000 1.000000
vn 0.000000 0.000000 1.000000
vn 0.000000 0.000000 1.000000
vn 0.003694 -0.052027 0.998639
vn -0.035383 0.001775 0.999372
vn -0.015908 -0.037072 0.999186
vn -0.036225 0.007112 0.999318
vn 0.000000 0.000000 1.000000
vn 0.000000 0.000000 1.000000
vn 0.000000 0.000000 1.000000
vn -0.001138 0.010642 0.999943
vn 0.001843 0.000261 0.999998
vn 0.000574 0.002451 0.999997
vn 0.022905 0.015160 0.999623
vn 0.022905 0.015160 0.999623
vn 0.022905 0.015160 0.999623
vn 0.000000 0.000000 1.000000
vn 0.002750 0.000589 0.999996
vn 0.000000 0.000000 1.000000
vn -0.000253 0.003223 0.999995
vn 0.022299 0.024488 0.999451
vn 0.054521 0.058530 0.996796
vn 0.093395 0.094217 0.991161
vn 0.000000 0.000000 1.000000
vn 0.000000 0.000000 1.000000
vn 0.000000 0.000000 1.000000
vn 0.000000 0.000000 1.000000
vn 0.000000 0.000000 1.000000
vn 0.000000 0.000000 1.000000
vn -0.008464 0.005360 0.999950
vn 0.000000 -0.000000 1.000000
vn 0.000000 0.000000 1.000000
vn 0.000000 0.000000 1.000000
vn -0.004242 0.016199 0.999860
f 6/1/1 1/2/2 5/3/3
f 13/13/4 2/4/5 8/5/6
f 2/4/7 7/6/8 8/5/9
f 28/28/10 9/7/11 27/27/12
f 27/27/12 9/7/11 3/8/13
f 12/9/14 25/25/15 4/10/16
f 4/10/16 25/25/15 26/26/17
f 3/8/18 9/7/19 10/11/20
f 4/10/21 15/15/22 16/16/23
f 12/9/24 4/10/25 11/12/26
f 13/13/4 1/2/27 14/14/28
f 16/16/23 15/15/22 3/8/29
f 23/23/30 24/24/31 2/4/32
f 2/4/32 24/24/31 7/6/33
f 1/2/34 6/1/35 22/22/36
f 22/22/36 6/1/35 21/21/37
f 22/22/36 20/20/38 19/19/39
f 23/23/30 17/17/40 24/24/31
f 26/26/17 17/17/40 18/18/41
f 27/27/12 20/20/38 28/28/10
f 22/22/36 21/21/37 20/20/38
f 19/19/39 20/20/38 27/27/12
f 26/26/17 25/25/15 17/17/40
f 18/18/41 17/17/40 23/23/30
f 13/13/4 14/14/28 2/4/5
f 5/3/42 1/2/27 13/13/4
f 16/16/23 3/8/29 10/11/43
f 4/10/21 16/16/23 11/12/44
