# This file uses centimeters as units for non-parametric coordinates.

v 0.455935 -0.500000 0.000000
v 0.500000 -0.178631 0.000000
v 0.500000 0.263747 0.000000
v 0.462692 0.500000 0.000000
v -0.500000 0.305204 0.000000
v -0.451995 0.500000 0.000000
v -0.500000 -0.290399 0.000000
v -0.451622 -0.500000 0.000000
v -0.461432 0.267975 0.000000
v -0.462395 -0.246159 0.000000
v 0.451174 0.343126 0.000000
v 0.443674 -0.267826 0.000000
vt 0.884056 0.524733
vt 0.846505 0.478961
vt 0.884056 0.587739
vt 0.852263 0.621388
vt 0.072787 0.621388
vt 0.031878 0.593643
vt 0.031878 0.508814
vt 0.073105 0.478961
vt 0.064746 0.588341
vt 0.063924 0.515115
vt 0.842448 0.599045
vt 0.836057 0.512029
vn 0.000000 0.000000 1.000000
vn 0.000000 0.000000 1.000000
vn 0.000000 0.000000 1.000000
vn 0.000000 0.000000 1.000000
vn 0.000000 0.000000 1.000000
vn 0.000000 0.000000 1.000000
vn 0.000000 0.000000 1.000000
vn 0.000000 0.000000 1.000000
vn 0.000000 0.000000 1.000000
vn 0.000000 0.000000 1.000000
vn 0.000000 0.000000 1.000000
vn 0.000000 0.000000 1.000000
vn 0.000000 0.000000 1.000000
vn 0.000000 0.000000 1.000000
vn 0.000000 0.000000 1.000000
vn 0.000000 0.000000 1.000000
vn 0.000000 0.000000 1.000000
vn 0.000000 0.000000 1.000000
vn 0.000000 0.000000 1.000000
vn 0.000000 0.000000 1.000000
vn 0.000000 0.000000 1.000000
vn 0.000000 0.000000 1.000000
vn 0.000000 0.000000 1.000000
vn 0.000000 0.000000 1.000000
vn 0.000000 0.000000 1.000000
vn 0.000000 0.000000 1.000000
vn 0.000000 0.000000 1.000000
vn 0.000000 0.000000 1.000000
f 9/9/1 6/5/2 5/6/3
f 9/9/4 5/6/5 10/10/6
f 10/10/6 5/6/5 7/7/7
f 8/8/8 10/10/9 7/7/10
f 10/10/11 8/8/12 12/12/13
f 12/12/13 8/8/12 1/2/14
f 11/11/15 3/3/16 4/4/17
f 9/9/18 11/11/19 6/5/20
f 6/5/20 11/11/19 4/4/21
f 1/2/22 2/1/23 12/12/24
f 12/12/25 2/1/26 11/11/27
f 11/11/27 2/1/26 3/3/28
