# This file uses centimeters as units for non-parametric coordinates.

v -0.367348 -0.367348 0.000000
v 0.345887 -0.345887 0.000000
v 0.361747 0.361747 0.000000
v -0.389025 0.389025 0.000000
v -0.432081 0.261299 0.000000
v -0.424343 -0.258649 0.000000
v -0.226622 -0.390854 0.000000
v 0.285700 -0.393856 0.000000
v 0.389942 -0.245337 0.000000
v 0.384120 0.328057 0.000000
v -0.306866 0.412065 0.000000
v 0.297156 0.401890 0.000000
v -0.292936 0.272680 0.000000
v -0.240135 -0.255638 0.000000
v 0.295989 0.320849 0.000000
v 0.287814 -0.247007 0.000000
vt 0.132652 0.132652
vt 0.273378 0.109146
vt 0.785700 0.106144
vt 0.845887 0.154113
vt 0.889942 0.254663
vt 0.884120 0.828057
vt 0.861747 0.861747
vt 0.110975 0.889025
vt 0.067919 0.761299
vt 0.075657 0.241351
vt 0.193131 0.912065
vt 0.797156 0.901890
vt 0.207064 0.772680
vt 0.259866 0.244362
vt 0.795992 0.820850
vt 0.787814 0.252993
vn 0.000000 0.000000 1.000000
vn 0.000000 0.000000 1.000000
vn 0.000000 0.000000 1.000000
vn 0.000000 0.000000 1.000000
vn 0.000000 0.000000 1.000000
vn 0.000000 0.000000 1.000000
vn 0.000000 0.000000 1.000000
vn 0.000000 0.000000 1.000000
vn 0.000000 0.000000 1.000000
vn 0.000000 0.000000 1.000000
vn 0.000000 0.000000 1.000000
vn 0.000000 0.000000 1.000000
vn 0.000000 0.000000 1.000000
vn 0.000000 0.000000 1.000000
vn 0.000000 0.000000 1.000000
vn 0.000000 0.000000 1.000000
vn 0.000000 0.000000 1.000000
vn 0.000000 0.000000 1.000000
vn 0.000000 0.000000 1.000000
vn 0.000000 0.000000 1.000000
vn 0.000000 0.000000 1.000000
vn 0.000000 0.000000 1.000000
vn 0.000000 0.000000 1.000000
vn 0.000000 0.000000 1.000000
vn 0.000000 0.000000 1.000000
vn 0.000000 0.000000 1.000000
vn 0.000000 0.000000 1.000000
vn 0.000000 0.000000 1.000000
vn 0.000000 0.000000 1.000000
vn 0.000000 0.000000 1.000000
vn 0.000000 0.000000 1.000000
vn 0.000000 0.000000 1.000000
vn 0.000000 0.000000 1.000000
vn 0.000000 0.000000 1.000000
vn 0.000000 0.000000 1.000000
vn 0.000000 0.000000 1.000000
f 15/15/1 12/12/2 13/13/3
f 13/13/3 12/12/2 11/11/4
f 15/15/5 13/13/6 16/16/7
f 16/16/7 13/13/6 14/14/8
f 8/3/9 16/16/10 7/2/11
f 7/2/11 16/16/10 14/14/12
f 11/11/13 4/8/14 13/13/15
f 13/13/15 4/8/14 5/9/16
f 14/14/17 13/13/18 6/10/19
f 6/10/19 13/13/18 5/9/20
f 7/2/21 14/14/22 1/1/23
f 1/1/23 14/14/22 6/10/24
f 8/3/25 2/4/26 16/16/27
f 16/16/27 2/4/26 9/5/28
f 16/16/29 9/5/30 15/15/31
f 15/15/31 9/5/30 10/6/32
f 12/12/33 15/15/34 3/7/35
f 3/7/35 15/15/34 10/6/36
