# This file uses centimeters as units for non-parametric coordinates.

v -0.273104 0.327272 0.000000
v 0.201074 0.341181 -0.001156
v -0.280338 -0.306014 0.000000
v 0.213919 -0.311652 -0.001020
v 0.014512 0.316565 0.000000
v -0.017078 -0.297792 0.000000
v 0.196368 0.025790 -0.000078
v 0.000134 0.009579 0.000000
v -0.343199 0.018496 0.000000
v -0.314522 0.136593 0.000000
v 0.010300 0.171685 0.000000
v 0.187035 0.193415 0.000000
v 0.194515 -0.164951 0.000000
v 0.001154 -0.142846 0.000000
v -0.302800 -0.153621 0.000000
vt 0.620592 0.963170
vt 0.730227 0.959309
vt 0.615872 0.844889
vt 0.728783 0.849736
vt 0.675697 0.961229
vt 0.672195 0.847307
vt 0.729552 0.908065
vt 0.674040 0.907341
vt 0.618335 0.906614
vt 0.619530 0.936555
vt 0.674890 0.934976
vt 0.729887 0.933532
vt 0.729170 0.879077
vt 0.673138 0.877980
vt 0.617145 0.876791
vn 0.000048 0.000051 1.000000
vn 0.000671 -0.001069 0.999999
vn 0.001391 -0.001985 0.999997
vn 0.004030 -0.006419 0.999971
vn 0.000000 0.000000 1.000000
vn 0.000000 0.000000 1.000000
vn 0.000055 -0.000047 1.000000
vn 0.001641 0.002037 0.999997
vn 0.000961 0.001346 0.999999
vn 0.005231 0.007327 0.999959
vn 0.000000 0.000000 1.000000
vn 0.000000 0.000000 1.000000
vn 0.000000 0.000000 1.000000
vn 0.000147 -0.000004 1.000000
vn 0.000199 0.000005 1.000000
f 14/14/1 6/6/2 13/13/3
f 13/13/3 6/6/2 4/4/4
f 3/3/5 6/6/2 15/15/6
f 15/15/6 6/6/2 14/14/1
f 11/11/7 12/12/8 5/5/9
f 5/5/9 12/12/8 2/2/10
f 10/10/11 11/11/7 1/1/12
f 1/1/12 11/11/7 5/5/9
f 9/9/13 8/8/14 10/10/11
f 10/10/11 8/8/14 11/11/7
f 12/12/8 11/11/7 7/7/15
f 7/7/15 11/11/7 8/8/14
f 8/8/14 14/14/1 7/7/15
f 7/7/15 14/14/1 13/13/3
f 14/14/1 8/8/14 15/15/6
f 15/15/6 8/8/14 9/9/13
