# This file uses centimeters as units for non-parametric coordinates.

v -7.171838 3.708713 0.487704
v -8.095054 5.282168 2.214528
v -6.390327 5.977121 -7.603336
v -4.520595 3.715598 -4.733815
v -4.496638 3.728157 -6.995217
v -6.326219 5.663280 -8.500687
v -7.180430 3.715619 -4.772217
v -7.903970 5.603502 -7.567155
v -0.060839 6.093368 -8.396215
v -0.014396 4.373032 -6.409837
v -1.397988 6.081061 -8.492050
v -1.791423 4.378501 -6.368573
v -2.228308 5.882017 -8.366112
v -1.796957 4.384886 -7.017410
v -0.060838 3.708771 3.045223
v -0.060838 4.344544 3.906444
v -4.497141 3.712536 0.485931
v -7.954064 5.575202 3.595363
v -5.924711 4.818080 3.423649
v -4.500906 3.727655 3.048934
v -3.845631 4.465159 -8.665472
v -3.286447 4.377212 -7.001090
v -4.639450 4.454347 -8.589089
v -3.326826 3.719584 -7.004005
v -7.160439 3.715724 -0.036231
v -8.039736 4.289344 0.311040
v -7.159647 3.702213 -4.369606
v -7.952136 4.300083 -4.794809
v -3.926928 4.352240 3.960403
v -3.826221 3.714030 3.045287
v -6.579649 5.719769 -8.010145
v -6.510405 5.380776 -8.979408
v -8.214596 5.316206 -7.971064
v -0.060839 5.291364 -10.354296
v -1.088966 5.330416 -10.378140
v -2.107283 5.305132 -10.524135
v -8.821335 4.997534 2.513268
v -8.138869 4.858377 4.462031
v -6.144588 4.351022 4.269090
v -3.901938 4.172023 -9.375160
v -4.694520 4.175102 -9.088883
v -8.520815 4.098569 0.427281
v -8.474408 4.131734 -4.924721
v -3.924897 4.160592 4.466317
v -0.060839 4.151155 4.408033
v 1.288473 6.081061 -8.492050
v 1.790133 4.386197 -6.365611
v 2.126241 5.882017 -8.366112
v 1.775327 4.379557 -6.988919
v 4.537578 3.722218 -4.513411
v 4.530974 3.726827 -7.007075
v 6.459325 5.663280 -8.500687
v 6.460549 5.977121 -7.603336
v 3.758062 4.465159 -8.665472
v 3.348306 4.360939 -6.998988
v 4.559012 4.454347 -8.589089
v 3.355657 3.721076 -7.004535
v 7.903362 5.575202 3.595363
v 4.530344 3.720578 0.501037
v 7.106822 3.722946 0.484699
v 8.045612 5.109920 2.214528
v 7.852812 5.603502 -7.567155
v 7.115759 3.717115 -4.429873
v 8.060993 4.300083 -4.794809
v 7.111640 3.724289 -4.062930
v 7.100982 3.726314 -0.077704
v 8.149383 4.289344 0.311040
v 5.855806 4.818080 3.423649
v 4.531718 3.724042 3.036805
v 3.840111 4.352240 3.960403
v 3.738596 3.738481 3.040355
v 6.664635 5.380776 -8.979408
v 6.671060 5.719769 -8.010145
v 8.166232 5.316206 -7.971064
v 0.976678 5.330416 -10.378140
v 2.004134 5.305132 -10.524135
v 8.778398 4.997534 2.513268
v 8.089821 4.858377 4.462031
v 6.077658 4.351022 4.269090
v 3.814881 4.172023 -9.375160
v 4.614568 4.175102 -9.088883
v 8.475197 4.098569 0.427281
v 8.428366 4.131734 -4.924721
v 3.838050 4.160592 4.466317
v -0.014396 4.633045 -6.524173
v -1.728387 4.688854 -6.447569
v -1.848158 4.611714 -7.160300
v -4.563702 3.904255 -7.087830
v -4.605373 3.933251 -4.834496
v -3.442267 4.612520 -7.164203
v -3.662030 3.941007 -7.077494
v -4.541224 3.991323 0.569638
v -7.179562 3.897089 0.538903
v -7.214236 3.966653 -4.834453
v -7.263476 3.912073 -4.489128
v -7.241219 3.859515 0.036842
v -4.654623 3.973539 3.060212
v -3.823980 3.888551 3.144906
v -0.060838 3.905984 3.118199
v 1.706903 4.609241 -6.504352
v 1.723477 4.588195 -7.189808
v 4.600276 4.013978 -4.590823
v 4.644779 3.931922 -7.151189
v 3.461871 4.542581 -7.110518
v 3.669387 4.007290 -7.290100
v 7.156456 3.966492 0.547450
v 4.575387 3.877652 0.549333
v 7.202588 3.900986 -4.502492
v 7.219801 3.906299 -4.164114
v 7.200933 3.886115 0.008260
v 4.586968 3.931553 3.043980
v 3.753127 3.961822 3.121900
vt 0.330000 0.000000
vt 0.330000 0.250000
vt 0.330000 0.500000
vt 0.330000 0.750000
vt 0.000000 0.000000
vt 0.000000 0.250000
vt 0.398791 0.750000
vt 0.398673 0.500000
vt 0.096126 0.250000
vt 0.096097 0.000000
vt 0.501691 0.500000
vt 0.502917 0.750000
vt 0.454359 0.500000
vt 0.452232 0.750000
vt 0.444661 0.500000
vt 0.441290 0.750000
vt 0.498780 0.250000
vt 0.499478 0.000000
vt 0.407663 0.250000
vt 0.410689 0.000000
vt 0.429830 0.250000
vt 0.433070 0.000000
vt 0.422192 0.500000
vt 0.416837 0.750000
vt 0.414080 0.500001
vt 0.409617 0.750000
vt 0.256456 0.250000
vt 0.239912 0.000000
vt 0.190018 0.250000
vt 0.159842 -0.000000
vt 0.450600 0.250000
vt 0.453021 0.000000
vt 0.000000 0.000000
vt 1.000000 0.000000
vt 1.000000 1.000000
vt 0.000000 1.000000
vt 0.000000 0.000000
vt 1.000000 0.000000
vt 1.000000 1.000000
vt 0.000000 1.000000
vt 0.000000 0.000000
vt 1.000000 0.000000
vt 1.000000 1.000000
vt 0.000000 1.000000
vt 0.000000 0.000000
vt 1.000000 0.000000
vt 1.000000 1.000000
vt 0.000000 1.000000
vt 0.000000 0.000000
vt 1.000000 0.000000
vt 1.000000 1.000000
vt 0.000000 1.000000
vt 0.000000 0.000000
vt 1.000000 0.000000
vt 1.000000 1.000000
vt 0.000000 1.000000
vt 0.000000 0.000000
vt 1.000000 0.000000
vt 1.000000 1.000000
vt 0.000000 1.000000
vt 0.000000 0.000000
vt 1.000000 0.000000
vt 1.000000 1.000000
vt 0.000000 1.000000
vt 0.000000 0.000000
vt 1.000000 0.000000
vt 1.000000 1.000000
vt 0.000000 1.000000
vt 0.000000 0.000000
vt 1.000000 0.000000
vt 1.000000 1.000000
vt 0.000000 1.000000
vt 0.000000 0.000000
vt 1.000000 0.000000
vt 1.000000 1.000000
vt 0.000000 1.000000
vt 0.000000 0.000000
vt 1.000000 0.000000
vt 1.000000 1.000000
vt 0.000000 1.000000
vt 0.000000 0.000000
vt 1.000000 0.000000
vt 1.000000 1.000000
vt 0.000000 1.000000
vt 0.000000 0.000000
vt 1.000000 0.000000
vt 1.000000 1.000000
vt 0.000000 1.000000
vt 0.502917 0.750000
vt 0.501691 0.500000
vt 0.454359 0.500000
vt 0.452232 0.750000
vt 0.444661 0.500000
vt 0.441290 0.750000
vt 0.330000 0.750000
vt 0.398791 0.750000
vt 0.398673 0.500000
vt 0.330000 0.500000
vt 0.422192 0.500000
vt 0.416837 0.750000
vt 0.414080 0.500001
vt 0.409617 0.750000
vt 0.407663 0.250000
vt 0.410689 0.000000
vt 0.330000 0.000000
vt 0.330000 0.250000
vt 0.096126 0.250000
vt 0.096097 0.000000
vt 0.000000 0.000000
vt 0.000000 0.250000
vt 0.190018 0.250000
vt 0.159842 -0.000000
vt 0.239912 0.000000
vt 0.256456 0.250000
vt 0.429830 0.250000
vt 0.433070 0.000000
vt 0.450600 0.250000
vt 0.453021 0.000000
vt 0.498780 0.250000
vt 0.499478 0.000000
vt 0.000000 0.000000
vt 1.000000 0.000000
vt 1.000000 1.000000
vt 0.000000 1.000000
vt 0.000000 0.000000
vt 1.000000 0.000000
vt 1.000000 1.000000
vt 0.000000 1.000000
vt 0.000000 0.000000
vt 1.000000 0.000000
vt 1.000000 1.000000
vt 0.000000 1.000000
vt 0.000000 0.000000
vt 1.000000 0.000000
vt 1.000000 1.000000
vt 0.000000 1.000000
vt 0.000000 0.000000
vt 1.000000 0.000000
vt 1.000000 1.000000
vt 0.000000 1.000000
vt 0.000000 0.000000
vt 1.000000 0.000000
vt 1.000000 1.000000
vt 0.000000 1.000000
vt 0.000000 0.000000
vt 1.000000 0.000000
vt 1.000000 1.000000
vt 0.000000 1.000000
vt 0.000000 0.000000
vt 1.000000 0.000000
vt 1.000000 1.000000
vt 0.000000 1.000000
vt 0.000000 0.000000
vt 1.000000 0.000000
vt 1.000000 1.000000
vt 0.000000 1.000000
vt 0.000000 0.000000
vt 1.000000 0.000000
vt 1.000000 1.000000
vt 0.000000 1.000000
vt 0.000000 0.000000
vt 1.000000 0.000000
vt 1.000000 1.000000
vt 0.000000 1.000000
vt 0.000000 0.000000
vt 1.000000 0.000000
vt 1.000000 1.000000
vt 0.000000 1.000000
vt 0.000000 0.000000
vt 1.000000 0.000000
vt 1.000000 1.000000
vt 0.000000 1.000000
vt 0.000000 0.000000
vt 1.000000 0.000000
vt 1.000000 1.000000
vt 0.000000 1.000000
vt 0.452533 0.714602
vt 0.502767 0.719356
vt 0.441661 0.722457
vt 0.330000 0.731981
vt 0.398778 0.723776
vt 0.417973 0.696961
vt 0.410150 0.720135
vt 0.410397 0.024154
vt 0.330000 0.032657
vt 0.096100 0.027100
vt 0.000000 0.018019
vt 0.169014 0.075984
vt 0.245218 0.080173
vt 0.432425 0.049731
vt 0.452359 0.068339
vt 0.499276 0.072470
vt 0.502767 0.719356
vt 0.452494 0.719170
vt 0.441580 0.728527
vt 0.398779 0.724335
vt 0.330000 0.719924
vt 0.417631 0.712945
vt 0.410295 0.712053
vt 0.330000 0.041925
vt 0.410402 0.023726
vt 0.000000 0.030076
vt 0.096100 0.022336
vt 0.168249 0.069652
vt 0.244310 0.066465
vt 0.432502 0.043780
vt 0.452270 0.077531
vt 0.499276 0.072470
vn 0.052127 0.821495 0.567828
vn 0.000403 0.805581 0.592485
vn 0.000403 0.805581 0.592485
vn -0.051322 0.786819 0.615047
vn -0.916865 0.382981 0.112624
vn -0.580954 0.637103 0.506549
vn -0.580954 0.637103 0.506549
vn -0.051823 0.679330 0.732001
vn -0.001429 0.688231 0.725490
vn -0.374883 0.800767 0.467156
vn -0.374883 0.800767 0.467156
vn -0.666287 0.738040 0.106575
vn -0.919670 0.328716 0.214832
vn -0.546580 0.774353 0.318790
vn -0.546580 0.774353 0.318790
vn 0.017045 0.950054 0.311619
vn -0.042172 0.937427 0.345620
vn 0.279572 0.905981 0.317863
vn 0.279572 0.905981 0.317863
vn 0.571883 0.779156 0.256643
vn -0.025538 0.873541 -0.486079
vn 0.349289 0.855880 -0.381402
vn 0.349289 0.855880 -0.381402
vn 0.671107 0.708325 -0.218840
vn 0.559650 0.828134 0.031395
vn 0.454153 0.890126 -0.037702
vn 0.454153 0.890126 -0.037702
vn 0.339689 0.934539 -0.106055
vn 0.137429 0.868408 -0.476425
vn 0.235336 0.813167 -0.532331
vn 0.235336 0.813167 -0.532331
vn 0.329534 0.745108 -0.579847
vn -0.007499 0.873828 -0.486177
vn -0.006337 0.871430 -0.490479
vn -0.006337 0.871430 -0.490479
vn -0.005176 0.869010 -0.494768
vn 0.017759 0.929969 -0.367209
vn 0.030832 0.927329 -0.372974
vn 0.030832 0.927329 -0.372974
vn 0.043898 0.924494 -0.378661
vn -0.262443 0.928441 -0.262910
vn -0.117992 0.940714 -0.318017
vn -0.117992 0.940714 -0.318017
vn 0.029298 0.930360 -0.365474
vn -0.413187 0.898460 -0.148479
vn -0.623184 0.777508 0.084399
vn -0.623184 0.777508 0.084399
vn -0.762786 0.568728 0.307743
vn 0.336723 0.784394 0.520907
vn 0.292418 0.755137 0.586737
vn 0.292418 0.755137 0.586737
vn 0.246021 0.720478 0.648371
vn -0.608236 0.749506 -0.261324
vn -0.615144 0.748398 -0.247989
vn -0.615144 0.748398 -0.247989
vn -0.621912 0.747121 -0.234598
vn -0.058288 0.874219 -0.482021
vn -0.094359 0.899352 -0.426921
vn -0.094359 0.899352 -0.426921
vn -0.129961 0.920017 -0.369700
vn 0.456101 0.678486 -0.575872
vn 0.463245 0.714832 -0.523851
vn 0.463245 0.714832 -0.523851
vn 0.468501 0.748262 -0.469693
vn -0.420660 0.799308 -0.429129
vn -0.447152 0.791104 -0.417385
vn -0.447152 0.791104 -0.417385
vn -0.473239 0.782181 -0.405262
vn -0.368093 0.929785 0.002570
vn -0.337261 0.941411 -0.000340
vn -0.337261 0.941411 -0.000340
vn -0.306061 0.952006 -0.003249
vn 0.068569 0.865596 0.496027
vn 0.058828 0.902716 0.426195
vn 0.058828 0.902716 0.426195
vn 0.048714 0.934105 0.353658
vn 0.006878 0.933031 0.359730
vn 0.007252 0.934087 0.356972
vn 0.007252 0.934087 0.356972
vn 0.007627 0.935134 0.354211
vn 0.004274 0.804086 0.594498
vn 0.027527 0.796354 0.604203
vn 0.027527 0.796354 0.604203
vn 0.050760 0.788070 0.613489
vn 0.956582 0.291116 0.014191
vn 0.634468 0.604769 0.481357
vn 0.634468 0.604769 0.481357
vn 0.045636 0.664189 0.746170
vn -0.751109 0.659293 -0.034184
vn -0.755509 0.642961 -0.125728
vn -0.755509 0.642961 -0.125728
vn -0.753362 0.621057 -0.216182
vn -0.015911 0.675327 0.737347
vn 0.366222 0.804126 0.468255
vn 0.366222 0.804126 0.468255
vn 0.662283 0.743936 0.089112
vn 0.937111 0.308559 0.163140
vn 0.564440 0.771622 0.293269
vn 0.564440 0.771622 0.293269
vn -0.017212 0.948997 0.314816
vn 0.024202 0.940075 0.340109
vn -0.257963 0.903037 0.343482
vn -0.257963 0.903037 0.343482
vn -0.519234 0.792852 0.319033
vn -0.030868 0.887056 -0.460629
vn -0.249015 0.880376 -0.403646
vn -0.249015 0.880376 -0.403646
vn -0.454491 0.828903 -0.326125
vn 0.017374 0.832739 0.553393
vn 0.114663 0.837934 0.533591
vn 0.114663 0.837934 0.533591
vn 0.210820 0.834847 0.508513
vn -0.419593 0.907684 0.007094
vn -0.347603 0.910800 0.222747
vn -0.347603 0.910800 0.222747
vn -0.257642 0.866827 0.426885
vn -0.340458 0.925482 -0.166046
vn -0.356185 0.892273 -0.277456
vn -0.356185 0.892273 -0.277456
vn -0.367011 0.846783 -0.385048
vn -0.391977 0.919971 0.002678
vn -0.405191 0.914213 0.005916
vn -0.405191 0.914213 0.005916
vn -0.418316 0.908255 0.009152
vn -0.569635 0.821759 -0.015111
vn -0.455361 0.886041 -0.087049
vn -0.455361 0.886041 -0.087049
vn -0.330902 0.930506 -0.157040
vn -0.006474 0.906787 -0.421540
vn -0.171120 0.835096 -0.522812
vn -0.171120 0.835096 -0.522812
vn -0.328493 0.727911 -0.601862
vn -0.012321 0.873787 -0.486153
vn -0.004136 0.890684 -0.454604
vn -0.004136 0.890684 -0.454604
vn 0.004055 0.906381 -0.422443
vn 0.457512 0.839155 -0.294111
vn 0.459581 0.837766 -0.294844
vn 0.459581 0.837766 -0.294844
vn 0.461647 0.836372 -0.295575
vn 0.245940 0.869764 -0.427813
vn 0.245437 0.870684 -0.426228
vn 0.245437 0.870684 -0.426228
vn 0.244933 0.871601 -0.424641
vn -0.017599 0.929972 -0.367210
vn -0.030554 0.927337 -0.372977
vn -0.030554 0.927337 -0.372977
vn -0.043502 0.924510 -0.378667
vn 0.260269 0.929007 -0.263070
vn 0.117001 0.940830 -0.318040
vn 0.117001 0.940830 -0.318040
vn -0.029038 0.930367 -0.365477
vn 0.759935 0.571673 0.309338
vn 0.562613 0.826607 0.013678
vn 0.562613 0.826607 0.013678
vn 0.257641 0.923377 -0.284598
vn -0.334065 0.785182 0.521431
vn -0.290049 0.755716 0.587167
vn -0.290049 0.755716 0.587167
vn -0.243966 0.720864 0.648718
vn 0.604816 0.751971 -0.262177
vn 0.611730 0.750916 -0.248819
vn 0.611730 0.750916 -0.248819
vn 0.618505 0.749691 -0.235405
vn 0.057771 0.874244 -0.482037
vn 0.093529 0.899424 -0.426952
vn 0.093529 0.899424 -0.426952
vn 0.128825 0.920155 -0.369755
vn -0.414612 0.694704 -0.587777
vn -0.421522 0.733279 -0.533498
vn -0.421522 0.733279 -0.533498
vn -0.426543 0.768568 -0.476828
vn 0.300550 0.859239 -0.413979
vn 0.434871 0.824509 -0.362040
vn 0.434871 0.824509 -0.362040
vn 0.559648 0.771684 -0.302156
vn 0.488599 0.803150 0.340911
vn 0.644359 0.719104 0.260174
vn 0.644359 0.719104 0.260174
vn 0.775734 0.607845 0.169591
vn 0.507125 0.861844 -0.006966
vn 0.462749 0.886486 -0.002496
vn 0.462749 0.886486 -0.002496
vn 0.417172 0.908825 0.001981
vn -0.048282 0.934125 0.353664
vn -0.058307 0.902744 0.426208
vn -0.058307 0.902744 0.426208
vn -0.067962 0.865632 0.496047
vn -0.006817 0.933031 0.359732
vn -0.007188 0.934087 0.356974
vn -0.007188 0.934087 0.356974
vn -0.007558 0.935134 0.354212
vn -0.028805 0.456661 0.889174
vn -0.009678 0.393325 0.919349
vn -0.009678 0.393325 0.919349
vn 0.009501 0.327909 0.944661
vn -0.477614 0.264489 0.837813
vn -0.350165 0.139255 0.926279
vn -0.350165 0.139255 0.926279
vn -0.208796 0.008485 0.977922
vn -0.001725 0.568927 0.822386
vn 0.002394 0.551612 0.834097
vn 0.002394 0.551612 0.834097
vn 0.006511 0.534047 0.845430
vn -0.978204 -0.109767 0.176261
vn -0.994405 0.046629 0.094786
vn -0.994405 0.046629 0.094786
vn -0.979421 0.201562 0.010338
vn 0.053940 0.401946 0.914073
vn 0.038748 0.323252 0.945519
vn 0.038748 0.323252 0.945519
vn 0.023269 0.242163 0.969957
vn -0.004974 0.402527 0.915394
vn -0.014876 0.463012 0.886227
vn -0.014876 0.463012 0.886227
vn -0.024709 0.521363 0.852977
vn 0.966759 0.255218 0.015539
vn 0.955306 0.295574 -0.005207
vn 0.955306 0.295574 -0.005207
vn 0.941760 0.335284 -0.025942
vn -0.024527 0.534181 0.845014
vn -0.005881 0.618043 0.786123
vn -0.005881 0.618043 0.786123
vn 0.012828 0.695199 0.718702
vn 0.683768 0.020366 0.729415
vn 0.678174 0.010839 0.734822
vn 0.678174 0.010839 0.734822
vn 0.672477 0.001309 0.740117
vn -0.067458 0.598404 0.798349
vn -0.034803 0.654895 0.754918
vn -0.034803 0.654895 0.754918
vn -0.001934 0.707362 0.706849
vn -0.882901 0.468577 -0.030363
vn -0.939229 0.343012 -0.013825
vn -0.939229 0.343012 -0.013825
vn -0.977513 0.210856 0.002978
vn -0.015264 0.373522 0.927496
vn -0.023037 0.318565 0.947621
vn -0.023037 0.318565 0.947621
vn -0.030730 0.262498 0.964443
vn -0.897568 0.439168 0.038765
vn -0.881841 0.471449 0.009629
vn -0.881841 0.471449 0.009629
vn -0.864228 0.502721 -0.019528
vn -0.860009 0.510277 -0.001421
vn -0.853669 0.520812 -0.001978
vn -0.853669 0.520812 -0.001978
vn -0.847201 0.531267 -0.002536
vn -0.967390 0.226415 -0.113549
vn -0.922837 0.381725 -0.051557
vn -0.922837 0.381725 -0.051557
vn -0.850646 0.525602 0.011980
vn -0.009355 0.251285 -0.967868
vn -0.007845 0.273488 -0.961843
vn -0.007845 0.273488 -0.961843
vn -0.006330 0.295547 -0.955307
vn -0.966325 0.257323 -0.001074
vn -0.963840 0.266481 -0.000465
vn -0.963840 0.266481 -0.000465
vn -0.961269 0.275613 0.000144
vn -0.090775 0.058543 -0.994149
vn -0.044891 0.203056 -0.978137
vn -0.044891 0.203056 -0.978137
vn 0.002036 0.342850 -0.939388
vn -0.004113 0.343200 -0.939253
vn -0.004014 0.345120 -0.938550
vn -0.004014 0.345120 -0.938550
vn -0.003915 0.347037 -0.937843
vn -0.008264 0.347029 -0.937818
vn -0.003806 0.422810 -0.906210
vn -0.003806 0.422810 -0.906210
vn 0.000678 0.495732 -0.868475
vn 0.112453 0.115566 -0.986914
vn 0.060177 0.312332 -0.948065
vn 0.060177 0.312332 -0.948065
vn 0.005316 0.495681 -0.868489
vn 0.848046 0.528225 0.042384
vn 0.936802 0.349173 0.021899
vn 0.936802 0.349173 0.021899
vn 0.987752 0.156030 0.000530
vn 0.001871 0.262350 -0.964971
vn 0.000413 0.274909 -0.961470
vn 0.000413 0.274909 -0.961470
vn -0.001046 0.287421 -0.957804
vn 0.749594 0.661877 0.005345
vn 0.757669 0.647669 -0.080398
vn 0.757669 0.647669 -0.080398
vn 0.759971 0.628526 -0.165529
vn 0.010350 0.807680 0.589531
vn -0.090122 0.818455 0.567458
vn -0.090122 0.818455 0.567458
vn -0.189630 0.820475 0.539315
vn 0.903030 0.428357 -0.032351
vn 0.950179 0.304294 0.067572
vn 0.950179 0.304294 0.067572
vn 0.971103 0.171833 0.165630
vn 0.438135 0.890799 -0.120473
vn 0.457060 0.849845 -0.262413
vn 0.457060 0.849845 -0.262413
vn 0.465845 0.790038 -0.398532
vn 0.476059 0.879378 0.007871
vn 0.481745 0.876265 0.009035
vn 0.481745 0.876265 0.009035
vn 0.487410 0.873114 0.010199
vn -0.440995 0.836907 -0.324207
vn -0.440995 0.836907 -0.324206
vn -0.440995 0.836907 -0.324206
vn -0.440995 0.836908 -0.324205
vn -0.224704 0.867335 -0.444114
vn -0.224704 0.867334 -0.444116
vn -0.224704 0.867334 -0.444116
vn -0.224704 0.867333 -0.444118
vn -0.368973 0.843569 0.390193
vn -0.594444 0.750209 0.289521
vn -0.594444 0.750209 0.289521
vn -0.778490 0.604569 0.168674
vn 0.003102 0.241024 0.970514
vn -0.005035 0.329725 0.944064
vn -0.005035 0.329725 0.944064
vn -0.013127 0.415580 0.909462
vn 0.932230 0.361648 0.012586
vn 0.931055 0.364673 0.012240
vn 0.931055 0.364673 0.012240
vn 0.929871 0.367693 0.011893
vn 0.989046 0.075085 -0.127083
vn 0.957227 0.284608 -0.052108
vn 0.957227 0.284608 -0.052108
vn 0.877035 0.479750 0.025501
vn 0.896131 0.443788 0.000747
vn 0.884143 0.467216 -0.000311
vn 0.884143 0.467216 -0.000311
vn 0.871541 0.490320 -0.001369
vn 0.412386 0.888940 0.199306
vn 0.406194 0.863330 0.299446
vn 0.406194 0.863330 0.299446
vn 0.395647 0.828462 0.396376
f 86/177/1 85/178/2 11/13/3
f 11/13/3 85/178/2 9/11/4
f 86/177/5 11/13/6 87/179/7
f 87/179/7 11/13/6 13/15/8
f 87/179/9 13/15/10 90/182/11
f 90/182/11 13/15/10 21/23/12
f 90/182/13 21/23/14 91/183/15
f 91/183/15 21/23/14 23/25/16
f 91/183/17 23/25/18 88/181/19
f 88/181/19 23/25/18 6/8/20
f 92/184/21 93/185/22 18/19/23
f 18/19/23 93/185/22 2/2/24
f 97/190/25 92/184/26 19/21/27
f 19/21/27 92/184/26 18/19/28
f 98/191/29 97/190/30 29/31/31
f 29/31/31 97/190/30 19/21/32
f 99/192/33 98/191/34 16/17/35
f 16/17/35 98/191/34 29/31/36
f 11/41/37 9/42/38 35/44/39
f 35/44/39 9/42/38 34/43/40
f 13/45/41 11/46/42 36/48/43
f 36/48/43 11/46/42 35/47/44
f 2/50/45 37/51/46 18/49/47
f 18/49/47 37/51/46 38/52/48
f 19/53/49 18/54/50 39/56/51
f 39/56/51 18/54/50 38/55/52
f 21/57/53 13/58/54 40/60/55
f 40/60/55 13/58/54 36/59/56
f 23/61/57 21/62/58 41/64/59
f 41/64/59 21/62/58 40/63/60
f 6/65/61 23/66/62 32/68/63
f 32/68/63 23/66/62 41/67/64
f 26/70/65 42/71/66 2/69/67
f 2/69/67 42/71/66 37/72/68
f 42/80/69 26/77/70 43/79/71
f 43/79/71 26/77/70 28/78/72
f 19/82/73 39/83/74 29/81/75
f 29/81/75 39/83/74 44/84/76
f 16/85/77 29/86/78 45/88/79
f 45/88/79 29/86/78 44/87/80
f 100/194/81 46/91/82 85/193/83
f 85/193/83 46/91/82 9/90/84
f 100/194/85 101/195/86 46/91/87
f 46/91/87 101/195/86 48/93/88
f 102/197/89 53/98/90 103/196/91
f 103/196/91 53/98/90 52/97/92
f 101/195/93 104/198/94 48/93/95
f 48/93/95 104/198/94 54/99/96
f 104/198/97 105/199/98 54/99/99
f 54/99/99 105/199/98 56/101/100
f 105/199/101 103/196/102 56/101/103
f 56/101/103 103/196/102 52/97/104
f 107/201/105 58/103/106 106/200/107
f 106/200/107 58/103/106 61/106/108
f 102/202/109 108/203/110 53/110/111
f 53/110/111 108/203/110 62/107/112
f 109/204/113 64/111/114 108/203/115
f 108/203/115 64/111/114 62/107/116
f 110/205/117 106/200/118 67/114/119
f 67/114/119 106/200/118 61/106/120
f 110/205/121 67/114/122 109/204/123
f 109/204/123 67/114/122 64/111/124
f 111/206/125 68/115/126 107/201/127
f 107/201/127 68/115/126 58/103/128
f 112/207/129 70/117/130 111/206/131
f 111/206/131 70/117/130 68/115/132
f 99/208/133 16/119/134 112/207/135
f 112/207/135 16/119/134 70/117/136
f 53/121/137 73/124/138 52/122/139
f 52/122/139 73/124/138 72/123/140
f 74/128/141 73/127/142 62/125/143
f 62/125/143 73/127/142 53/126/144
f 46/129/145 75/132/146 9/130/147
f 9/130/147 75/132/146 34/131/148
f 48/133/149 76/136/150 46/134/151
f 46/134/151 76/136/150 75/135/152
f 78/140/153 77/139/154 58/137/155
f 58/137/155 77/139/154 61/138/156
f 68/141/157 79/144/158 58/142/159
f 58/142/159 79/144/158 78/143/160
f 54/145/161 80/148/162 48/146/163
f 48/146/163 80/148/162 76/147/164
f 56/149/165 81/152/166 54/150/167
f 54/150/167 81/152/166 80/151/168
f 52/153/169 72/156/170 56/154/171
f 56/154/171 72/156/170 81/155/172
f 77/160/173 82/159/174 61/157/175
f 61/157/175 82/159/174 67/158/176
f 64/161/177 83/164/178 62/162/179
f 62/162/179 83/164/178 74/163/180
f 67/165/181 82/168/182 64/166/183
f 64/166/183 82/168/182 83/167/184
f 84/172/185 79/171/186 70/169/187
f 70/169/187 79/171/186 68/170/188
f 16/173/189 45/176/190 70/174/191
f 70/174/191 45/176/190 84/175/192
f 88/181/193 5/7/194 91/183/195
f 91/183/195 5/7/194 24/26/196
f 90/182/197 91/183/198 22/24/199
f 22/24/199 91/183/198 24/26/200
f 90/182/201 22/24/202 87/179/203
f 87/179/203 22/24/202 14/16/204
f 87/179/205 14/16/206 86/177/207
f 86/177/207 14/16/206 12/14/208
f 85/178/209 86/177/210 10/12/211
f 10/12/211 86/177/210 12/14/212
f 85/193/213 10/89/214 100/194/215
f 100/194/215 10/89/214 47/92/216
f 101/195/217 100/194/218 49/94/219
f 49/94/219 100/194/218 47/92/220
f 104/198/221 101/195/222 55/100/223
f 55/100/223 101/195/222 49/94/224
f 104/198/225 55/100/226 105/199/227
f 105/199/227 55/100/226 57/102/228
f 103/196/229 105/199/230 51/96/231
f 51/96/231 105/199/230 57/102/232
f 103/196/233 51/96/234 102/197/235
f 102/197/235 51/96/234 50/95/236
f 108/203/237 102/202/238 63/108/239
f 63/108/239 102/202/238 50/109/240
f 108/203/241 63/108/242 109/204/243
f 109/204/243 63/108/242 65/112/244
f 109/204/245 65/112/246 110/205/247
f 110/205/247 65/112/246 66/113/248
f 106/200/249 110/205/250 60/105/251
f 60/105/251 110/205/250 66/113/252
f 106/200/253 60/105/254 107/201/255
f 107/201/255 60/105/254 59/104/256
f 111/206/257 107/201/258 69/116/259
f 69/116/259 107/201/258 59/104/260
f 111/206/261 69/116/262 112/207/263
f 112/207/263 69/116/262 71/118/264
f 112/207/265 71/118/266 99/208/267
f 99/208/267 71/118/266 15/120/268
f 99/192/269 15/18/270 98/191/271
f 98/191/271 15/18/270 30/32/272
f 97/190/273 98/191/274 20/22/275
f 20/22/275 98/191/274 30/32/276
f 97/190/277 20/22/278 92/184/279
f 92/184/279 20/22/278 17/20/280
f 93/185/281 92/184/282 1/1/283
f 1/1/283 92/184/282 17/20/284
f 89/180/285 88/181/286 3/3/287
f 3/3/287 88/181/286 6/8/288
f 89/187/289 3/6/290 94/186/291
f 94/186/291 3/6/290 8/9/292
f 27/30/293 7/10/294 95/188/295
f 95/188/295 7/10/294 94/186/296
f 96/189/297 26/27/298 93/185/299
f 93/185/299 26/27/298 2/2/300
f 96/189/301 95/188/302 26/27/303
f 26/27/303 95/188/302 28/29/304
f 3/33/305 6/34/306 31/36/307
f 31/36/307 6/34/306 32/35/308
f 3/38/309 31/39/310 8/37/311
f 8/37/311 31/39/310 33/40/312
f 28/73/313 8/74/314 43/76/315
f 43/76/315 8/74/314 33/75/316
f 94/186/317 7/10/318 89/187/319
f 89/187/319 7/10/318 4/5/320
f 88/181/321 89/180/322 5/7/323
f 5/7/323 89/180/322 4/4/324
f 93/185/325 1/1/326 96/189/327
f 96/189/327 1/1/326 25/28/328
f 95/188/329 96/189/330 27/30/331
f 27/30/331 96/189/330 25/28/332
f 95/188/333 94/186/334 28/29/335
f 28/29/335 94/186/334 8/9/336
