# This file uses centimeters as units for non-parametric coordinates.

v 7.882685 3.729667 4.043545
v -7.873287 3.729667 4.043545
v -7.881812 2.492696 -7.552843
v 7.091739 3.729667 3.025471
v -7.130014 3.729667 2.982051
v -7.152874 3.729667 -6.987768
v 7.107234 3.729667 -6.987754
v -4.491547 3.729667 -6.990199
v -7.152874 3.729667 -4.754732
v -4.491547 3.729667 -4.701020
v -4.491547 3.729667 3.037220
v -7.153074 3.729667 0.472800
v -4.491547 3.729667 0.472801
v 4.520669 3.729667 3.027595
v 7.095509 3.729667 0.472788
v 4.520671 3.729667 0.472786
v -1.800023 3.691188 -6.990199
v 1.795277 3.729667 -6.990191
v -1.798056 3.729667 -6.360115
v 1.794623 3.729667 -6.360007
v -3.298498 3.729667 -7.552931
v -3.360224 3.729667 -6.990199
v 3.361353 3.729667 -6.990189
v 3.357344 3.729667 -7.553057
v -7.152873 3.741938 -5.659753
v -5.175358 3.729667 -5.657753
v -5.174823 3.729667 -6.987767
v -5.174686 3.252243 -6.987768
v -5.175375 3.252243 -5.656481
v -7.152874 3.252243 -5.660883
v -7.152873 3.252243 -6.987768
v 4.520634 3.729667 -6.990187
v 7.104055 3.729667 -4.418088
v 4.520638 3.729667 -4.481454
v 5.367535 3.729667 -6.987755
v 7.104937 3.729667 -5.356770
v 5.367535 3.729667 -5.312281
v 5.367535 3.256797 -5.245994
v 7.106376 3.256797 -5.359354
v 7.107277 3.256797 -6.987753
v 5.367535 3.256797 -6.987759
v 5.367533 3.729667 3.027597
v 5.367533 3.729667 1.359137
v 7.091880 3.729667 1.359137
v 7.091694 3.255203 1.359137
v -7.153244 3.729667 1.359137
v -5.167983 3.729667 1.359137
v -5.168046 3.729667 3.035128
v -7.153244 3.253412 1.359137
v -1.799636 2.699397 -6.990199
v -1.798056 2.699397 -6.360115
v -3.380224 2.699397 -6.990199
v -4.491547 2.699397 -6.990199
v -4.491547 2.699397 -4.701020
v 0.031675 2.699397 -1.936406
v 4.520638 2.699397 -4.481454
v 4.520634 2.699397 -6.990187
v 3.424299 2.699397 -6.990189
v 1.795277 2.699397 -6.990191
v 1.794623 2.699397 -6.360007
v 4.520671 2.699397 0.472786
v 7.095509 2.743109 0.472788
v 7.104055 2.699397 -4.418088
v -4.491547 2.699397 0.472801
v -7.152874 2.699397 -4.754732
v -7.153074 2.699397 0.472800
v 1.796020 4.387982 -7.553029
v -1.799996 4.387982 -7.552960
v 1.748808 4.387982 -10.608150
v -1.799996 4.387982 -10.608082
v 3.357344 4.387982 -7.553057
v -3.298498 4.387982 -7.552931
v -1.799636 4.387982 -6.990199
v 1.792296 4.392792 -6.962359
v -1.798056 4.387982 -6.360115
v 1.794623 4.387982 -6.360007
v 3.349356 4.363989 -6.988915
v -3.297219 4.387982 -6.990199
v 1.796020 4.387982 -9.288826
v -1.799996 4.387982 -9.288838
v -3.264642 4.387982 -9.289370
v 3.323995 4.387982 -9.288853
v 2.694643 4.387982 -9.288939
v 2.669320 3.699197 -10.608166
v -2.491008 3.822153 -10.604797
v -2.428499 4.387982 -9.289330
v -3.298498 3.729667 -9.301160
v 3.357344 3.729667 -9.288851
v 1.796020 3.954619 -9.288826
v -1.799996 3.954619 -9.288838
v -1.799996 3.954619 -7.552960
v 1.796020 3.954619 -7.553029
v 6.443755 3.729667 -6.987754
v 7.998366 7.484284 -7.553146
v 6.432419 7.484284 -7.553118
v 6.432392 2.873559 -8.932354
v 6.432392 7.346946 -9.016756
v 7.998366 7.346946 -8.996483
v -6.282765 3.729667 -6.987768
v -6.329286 2.492696 -7.552874
v -6.329286 4.510715 -7.552875
v -7.881812 4.510715 -7.552844
v -6.329286 2.492696 -8.943695
v -6.329286 4.510715 -8.943696
v -7.881838 2.492695 -8.980952
v -7.881838 4.510715 -8.980952
v -6.329286 7.715894 -7.552875
v -7.881812 7.715894 -7.552844
v -6.329286 7.715894 -8.965245
v -7.881838 7.715893 -8.980952
v 7.998366 3.729667 -7.553146
v 6.432419 3.729667 -7.553118
v 6.432419 3.272681 -7.553118
v 7.998366 3.283581 -7.553146
v 7.998366 2.878682 -8.942639
v 7.998366 4.366737 -8.970868
v 7.951203 4.561748 -7.553146
v 6.432392 4.481849 -9.016756
v 6.432419 4.568642 -7.553118
v -8.990291 3.729667 4.043545
v 9.903090 3.729667 4.043545
v 7.882685 8.192996 4.043545
v 9.903090 8.192996 4.043545
v -7.873287 7.135142 4.043545
v -8.990291 7.135142 4.043545
v -7.873845 3.729667 2.291613
v -7.873287 7.135142 2.515661
v -8.990291 3.729667 2.561639
v -8.990291 7.135142 2.561639
v 7.890293 3.762365 2.519852
v 7.882685 8.192996 2.521399
v 9.903090 3.729667 2.620635
v 9.903090 8.192996 2.620635
v 4.539958 3.729667 4.043545
v -4.474869 3.729667 4.043545
v 7.920883 3.729667 0.476926
v -7.876065 3.729667 0.472338
v -7.875546 3.729667 1.344848
v -7.873670 3.729667 2.989143
v -7.153244 3.729667 2.289526
v -7.873287 7.135142 3.142573
v 7.091782 3.743004 2.502948
v 2.832272 3.770618 3.036501
v 2.846185 3.729667 4.043545
v -2.645066 3.698021 3.036907
v -2.662763 3.729667 4.043545
v -8.990291 4.815283 4.043545
v -7.873562 4.807617 3.032736
v -7.853860 4.814873 2.341805
v -7.899276 4.819120 4.058689
v -8.990291 5.948081 4.043545
v -7.873503 5.924641 2.429002
v -7.873431 5.924543 3.085088
v -7.873287 5.924400 4.043545
v -7.991400 5.242864 -1.642267
v -7.991400 -0.429598 -1.642267
v -7.991400 -0.429598 -2.851128
v -7.984425 5.242864 -2.856086
v -9.578743 5.246381 -1.619232
v -7.991400 7.533692 -1.642267
v -9.543925 7.533692 -1.642237
v -7.991400 7.533692 -2.851129
v -9.543953 5.242864 -2.919003
v -9.543953 7.533692 -2.919003
v -9.543925 -0.427529 -1.642236
v -9.543953 -0.427529 -3.070345
v -7.991400 3.975168 -1.642267
v -7.991400 3.955108 -2.851129
v -9.543925 3.992217 -1.642237
v -9.543953 3.904228 -2.919003
v -7.881812 3.729667 -7.552843
v -6.329286 3.729667 -7.552874
v 8.050526 5.423144 -2.721391
v 8.050500 5.336351 -4.100634
v 8.050500 -1.337962 -4.100634
v 8.050526 -1.297055 -2.721391
v 9.616473 5.416250 -2.721421
v 9.616473 5.221239 -4.062900
v 9.616473 7.346946 -4.088515
v 9.616473 7.484284 -2.721421
v 8.050500 7.346946 -4.100634
v 8.050526 7.484284 -2.721391
v 9.616473 -1.522858 -2.721421
v 9.616473 -1.564357 -4.034669
v 7.906002 3.762365 1.347526
v 6.417648 3.256797 -6.987755
v 8.050500 3.068637 -4.100634
v 8.050526 3.426611 -2.721391
v 9.616473 1.389312 -2.721421
v 9.616473 0.947734 -4.036423
v -7.991400 3.005570 -1.642267
v -7.991400 3.006780 -2.851128
v -9.543925 1.462252 -1.642236
v -9.543953 1.412012 -3.070345
v -7.879806 3.747656 -4.783421
v -7.880236 3.729667 -5.666792
v -4.491547 3.729667 -5.633362
v 2.808602 3.729667 -6.990189
v 2.830542 2.699397 -6.990189
v -0.021836 3.723667 -6.336128
v -0.022511 2.699397 -6.305615
v -0.024694 4.387982 -6.360062
v -0.014158 4.387982 -6.949100
v -7.152964 3.729667 -2.552131
v -7.878108 3.729667 -2.577348
v 7.100245 3.729667 -2.441786
v 7.947411 3.729667 -2.438098
v 7.967356 3.729667 -4.440254
v 7.972546 3.729667 -5.344851
v 7.992950 3.729667 -7.017573
v -7.881571 3.729667 -7.046277
v 4.520670 2.699397 3.027530
v -4.491547 2.699397 3.041335
v 7.099664 2.699397 -0.493557
v 4.982976 2.699397 -0.522357
v 7.101779 2.699397 -2.366902
v 4.660264 2.699397 -2.481057
v -7.152969 2.699397 -0.477210
v -5.427639 2.699397 -0.379982
v -7.152927 2.699397 -2.540637
v -4.255241 2.699397 -2.210241
v 4.503103 3.745140 1.337347
v 7.091703 3.255203 3.025340
v 5.366767 3.255203 3.027577
v 5.367477 3.255203 1.359137
v 5.367139 3.255203 3.027587
v 4.520671 2.699397 1.360624
v -4.491547 2.699397 1.364863
v -4.491547 3.729667 1.358878
v -5.214158 3.253412 1.359137
v -5.219502 3.253412 2.998837
v -7.130014 3.253412 2.999110
v 4.530773 3.725140 -5.335225
v 4.520637 2.699397 -5.242651
v 4.492579 3.760684 -5.346955
v 7.973216 3.789922 -5.364972
v 7.021599 3.772339 -2.285420
v 4.547527 3.699282 1.332773
v 7.903161 3.719266 1.371514
v -7.153004 3.729667 -0.752477
v -7.152962 2.699397 -0.829284
v 7.890541 3.753656 3.025336
v -7.857647 3.719510 -4.756711
v -2.638282 3.761339 3.037506
v -2.731688 2.699397 3.041040
v 2.829855 3.707302 3.036114
v 2.865140 2.699397 3.040104
v -6.275027 4.436112 -8.943696
v 7.998366 4.508928 -7.553146
v 9.663751 5.365042 -2.721421
v 7.882685 6.640024 4.043545
v 7.885288 6.665654 2.520869
v 7.840528 6.630426 2.520857
v 9.903090 6.580809 4.043545
v 9.843759 6.551577 4.024616
v -7.918205 5.924633 2.431896
v -9.019616 5.967480 4.063444
v -9.017291 4.842356 4.066971
v -7.877586 3.705475 1.315476
v -7.876079 3.708243 0.451535
v -9.543925 5.220659 -1.642237
v -7.991400 5.265557 -2.851129
v -7.906695 4.526435 -7.544268
v -4.920211 2.699397 -1.122626
v -2.601846 2.699397 -0.533712
v 0.155956 2.699397 1.362677
v -7.152950 2.699397 -1.456715
v -0.026991 3.729667 4.043545
v -0.025417 3.717289 3.036577
v 0.070098 2.699397 3.040571
v 4.803420 2.699397 -1.612171
v 7.100686 2.699397 -1.398216
v 7.047928 3.757138 -1.302866
v 7.937149 3.729667 -1.310491
v 2.562343 2.699397 -0.578226
v 0.124231 2.699397 1.340861
v 7.905101 3.681139 0.423621
v 5.354850 3.727196 1.370078
v 7.951734 3.700663 -4.399696
v -0.013346 2.699397 -5.611865
v -0.056752 2.699397 -6.388803
v -2.332811 3.704881 -6.990199
v -2.342186 2.699397 -6.990199
v -2.319332 2.699780 -6.962318
v -2.473807 2.699397 -5.943876
v -3.298498 4.387982 -8.309849
v -1.799996 4.387982 -8.346247
v -3.248858 4.387982 -8.346867
v 3.357344 4.387982 -8.286863
v 1.796020 4.387982 -8.383383
v 3.332298 4.387982 -8.310476
v 2.693797 4.328145 -9.332967
v 2.693137 3.703966 -9.367384
v -2.427260 4.297904 -9.312666
v -2.448338 3.812488 -9.379963
v -4.518041 3.710585 1.359728
v 4.512897 3.748933 3.027592
v 7.105834 3.729667 4.043545
v 7.077706 3.758749 3.025686
v 7.886803 3.762365 3.025436
v 7.884655 4.014420 3.024487
v 9.873837 5.120974 4.034212
v 7.882685 5.139614 4.043545
v 7.871421 5.132452 2.926780
v 7.865739 5.127406 2.521232
v 7.854746 5.114727 2.513518
v 7.865956 5.122975 2.926652
v 1.814734 4.363861 -6.988936
v 1.780833 4.403576 -7.558776
v -1.811915 4.371036 -7.009707
v -1.789872 4.401530 -7.558858
v -3.338344 3.735041 -7.024400
v -7.854155 3.757010 2.313974
v -7.856823 3.756248 2.972708
v -7.135314 3.757010 2.961804
v -7.898515 3.718051 4.094027
v -7.970310 3.738073 4.038146
v -7.873287 3.758744 4.043545
v -7.873696 4.818496 2.351861
v -0.037260 4.370998 -6.392285
v -0.037018 3.718229 -6.392285
v -3.403170 3.741994 -7.118981
v -3.338317 3.735037 -7.024762
v 2.683006 4.387982 -9.366497
v 2.658830 4.387982 -10.608166
v -2.409728 4.398731 -9.347057
v -2.419676 4.386761 -10.608073
v -3.298498 3.729667 -8.377263
vt 0.279241 0.726738
vt 0.131699 0.381633
vt 0.869639 0.367108
vt 0.732077 0.722451
vt 0.500065 0.515888
vt 0.817593 0.396202
vt 0.183890 0.406241
vt 0.298860 0.717082
vt 0.714296 0.710716
vt 0.374977 0.716669
vt 0.273607 0.655233
vt 0.358146 0.652270
vt 0.304090 0.404574
vt 0.225261 0.523167
vt 0.332344 0.520636
vt 0.703899 0.396882
vt 0.774920 0.511779
vt 0.674034 0.512199
vt 0.447909 0.782688
vt 0.446503 0.775729
vt 0.552648 0.782921
vt 0.550235 0.712350
vt 0.548740 0.707601
vt 0.447178 0.708010
vt 0.390915 0.785164
vt 0.396647 0.716509
vt 0.606262 0.723095
vt 0.281562 0.670467
vt 0.335014 0.668180
vt 0.348292 0.716374
vt 0.339531 0.688121
vt 0.334609 0.656636
vt 0.289868 0.657259
vt 0.301720 0.688233
vt 0.633923 0.711389
vt 0.647848 0.648642
vt 0.669767 0.662874
vt 0.670980 0.653823
vt 0.708839 0.682249
vt 0.665266 0.682965
vt 0.740985 0.397279
vt 0.714774 0.493660
vt 0.784231 0.493676
vt 0.781225 0.450880
vt 0.218730 0.502182
vt 0.292354 0.501030
vt 0.262295 0.405413
vt 0.223667 0.464466
vt 0.448278 0.646268
vt 0.446911 0.658257
vt 0.397140 0.659633
vt 0.376566 0.659986
vt 0.360923 0.591657
vt 0.644008 0.586354
vt 0.633609 0.655389
vt 0.601755 0.655915
vt 0.547772 0.656013
vt 0.546189 0.642046
vt 0.669360 0.440303
vt 0.770293 0.446370
vt 0.726700 0.584014
vt 0.277203 0.592556
vt 0.232604 0.444580
vt 0.336539 0.445488
vt 0.552915 0.826483
vt 0.452409 0.829485
vt 0.602296 0.781649
vt 0.397307 0.784720
vt 0.446776 0.764362
vt 0.549652 0.762768
vt 0.551565 0.774958
vt 0.602587 0.773584
vt 0.396066 0.777513
vt 0.446207 0.715468
vt 0.450624 0.813434
vt 0.552347 0.811821
vt 0.406721 0.814254
vt 0.435125 0.813670
vt 0.441023 0.829507
vt 0.397515 0.812949
vt 0.610080 0.806891
vt 0.552584 0.784452
vt 0.454406 0.786745
vt 0.454279 0.784804
vt 0.553442 0.780676
vt 0.741956 0.907786
vt 0.693989 0.908283
vt 0.689837 0.916113
vt 0.683867 0.742766
vt 0.734340 0.921046
vt 0.313974 0.716866
vt 0.319018 0.727571
vt 0.280378 0.731067
vt 0.320380 0.731394
vt 0.320085 0.788473
vt 0.274817 0.789383
vt 0.327764 0.743339
vt 0.329927 0.805675
vt 0.291113 0.801347
vt 0.289019 0.744366
vt 0.313620 0.912977
vt 0.268079 0.915035
vt 0.322340 0.924713
vt 0.278439 0.926749
vt 0.683448 0.722985
vt 0.689837 0.916113
vt 0.693989 0.908283
vt 0.693989 0.908283
vt 0.741956 0.907786
vt 0.687995 0.711615
vt 0.714164 0.710558
vt 0.734340 0.921046
vt 0.741956 0.907786
vt 0.612970 0.756100
vt 0.612970 0.756100
vt 0.658112 0.711132
vt 0.714296 0.710716
vt 0.714164 0.710558
vt 0.962782 0.683080
vt 0.602296 0.781649
vt 0.602296 0.781649
vt 0.602296 0.781649
vt 0.602040 0.711560
vt 0.602587 0.773584
vt 0.726223 0.661924
vt 0.708839 0.682249
vt 0.708839 0.682249
vt 0.665266 0.682965
vt 0.665266 0.682965
vt 0.670980 0.653823
vt 0.669767 0.662874
vt 0.669767 0.662874
vt 0.669767 0.662874
vt 0.647848 0.648642
vt 0.599848 0.809611
vt 0.091889 0.405338
vt 0.920114 0.426139
vt 0.904134 0.649085
vt 0.049512 0.383639
vt 0.279241 0.726738
vt 0.602587 0.773584
vt 0.550235 0.712350
vt 0.550235 0.712350
vt 0.550235 0.712350
vt 0.601755 0.655915
vt 0.601755 0.655915
vt 0.633609 0.655389
vt 0.633609 0.655389
vt 0.717268 0.654816
vt 0.670980 0.653823
vt 0.647848 0.648642
vt 0.647848 0.648642
vt 0.552648 0.782921
vt 0.552648 0.782921
vt 0.552648 0.782921
vt 0.552648 0.782921
vt 0.599848 0.809611
vt 0.551565 0.774958
vt 0.551565 0.774958
vt 0.731478 0.647564
vt 0.809469 0.512055
vt 0.547772 0.656013
vt 0.644008 0.586354
vt 0.041666 0.697891
vt 0.183546 0.405988
vt 0.690871 0.783636
vt 0.885088 0.685451
vt 0.848903 0.425317
vt 0.986975 0.644779
vt 0.946191 0.369918
vt 0.298155 0.377746
vt 0.729744 0.795611
vt 0.728479 0.734256
vt 0.280378 0.731067
vt 0.319018 0.727571
vt 0.320380 0.731394
vt 0.313974 0.716866
vt 0.298860 0.717082
vt 0.298860 0.717082
vt 0.298860 0.717082
vt 0.553442 0.780676
vt 0.553442 0.780676
vt 0.552584 0.784452
vt 0.454279 0.784804
vt 0.447909 0.782688
vt 0.447909 0.782688
vt 0.447909 0.782688
vt 0.552347 0.811821
vt 0.552347 0.811821
vt 0.552347 0.811821
vt 0.552347 0.811821
vt 0.580631 0.810467
vt 0.580631 0.810467
vt 0.450624 0.813434
vt 0.574304 0.825348
vt 0.552915 0.826483
vt 0.551565 0.774958
vt 0.551565 0.774958
vt 0.446503 0.775729
vt 0.549652 0.762768
vt 0.548740 0.707601
vt 0.548740 0.707601
vt 0.548740 0.707601
vt 0.731019 0.369837
vt 0.114547 0.696253
vt 0.145791 0.443707
vt 0.727225 0.586452
vt 0.726700 0.584014
vt 0.644008 0.586354
vt 0.644008 0.586354
vt 0.690918 0.734262
vt 0.092437 0.658680
vt 0.723033 0.739120
vt 0.547772 0.656013
vt 0.546189 0.642046
vt 0.223667 0.464466
vt 0.733908 0.784304
vt 0.685962 0.785990
vt 0.690871 0.783636
vt 0.733908 0.784304
vt 0.218730 0.502182
vt 0.218730 0.502182
vt 0.218730 0.502182
vt 0.007847 0.659923
vt 0.196011 0.523036
vt 0.187486 0.504090
vt 0.142688 0.408173
vt 0.191414 0.425910
vt 0.191695 0.426117
vt 0.153640 0.430864
vt 0.109658 0.687303
vt 0.141527 0.424925
vt 0.809168 0.426810
vt 0.846061 0.424583
vt 0.621011 0.398562
vt 0.622727 0.371735
vt 0.379318 0.401738
vt 0.376246 0.374713
vt 0.036230 0.471714
vt 0.132472 0.499473
vt 0.138071 0.509744
vt 0.115409 0.467446
vt 0.022370 0.563617
vt 0.120493 0.590104
vt 0.126449 0.599854
vt 0.103873 0.560160
vt 0.206763 0.655001
vt 0.215815 0.585198
vt 0.223956 0.607777
vt 0.219117 0.679634
vt 0.146797 0.655659
vt 0.198199 0.810316
vt 0.134305 0.811024
vt 0.210190 0.832043
vt 0.169047 0.678261
vt 0.149552 0.833323
vt 0.161459 0.514456
vt 0.215815 0.585198
vt 0.169197 0.539576
vt 0.161459 0.514456
vt 0.221101 0.640167
vt 0.210491 0.617594
vt 0.210491 0.617594
vt 0.150910 0.617923
vt 0.150910 0.617923
vt 0.165897 0.638565
vt 0.800797 0.718611
vt 0.791089 0.743629
vt 0.778243 0.581984
vt 0.786932 0.570145
vt 0.863810 0.717459
vt 0.854170 0.734265
vt 0.857656 0.819741
vt 0.871110 0.795838
vt 0.796847 0.821428
vt 0.806623 0.797558
vt 0.871110 0.795838
vt 0.857656 0.819741
vt 0.863810 0.717459
vt 0.800797 0.718611
vt 0.840987 0.501587
vt 0.826643 0.510538
vt 0.871110 0.795838
vt 0.806623 0.797558
vt 0.806623 0.797558
vt 0.796847 0.821428
vt 0.817731 0.493638
vt 0.684944 0.682680
vt 0.684944 0.682680
vt 0.779261 0.594788
vt 0.787924 0.580773
vt 0.787924 0.580773
vt 0.842747 0.517448
vt 0.842747 0.517448
vt 0.828353 0.524437
vt 0.223742 0.612125
vt 0.215144 0.589280
vt 0.215144 0.589280
vt 0.160592 0.522961
vt 0.160592 0.522961
vt 0.168979 0.546118
vt 0.247038 0.656308
vt 0.253939 0.671402
vt 0.362201 0.667830
vt 0.584174 0.711927
vt 0.582079 0.655951
vt 0.584174 0.711927
vt 0.582079 0.655951
vt 0.497101 0.644181
vt 0.497233 0.708088
vt 0.497233 0.708088
vt 0.497990 0.763575
vt 0.498118 0.775191
vt 0.498118 0.775191
vt 0.251840 0.595773
vt 0.223884 0.595835
vt 0.750848 0.587021
vt 0.779934 0.586401
vt 0.758925 0.648427
vt 0.754315 0.660867
vt 0.736174 0.710264
vt 0.275374 0.718279
vt 0.685708 0.400241
vt 0.326499 0.403088
vt 0.749351 0.514487
vt 0.674765 0.512409
vt 0.749095 0.513301
vt 0.738692 0.549155
vt 0.659419 0.549303
vt 0.738307 0.547366
vt 0.255936 0.521994
vt 0.331922 0.519720
vt 0.265258 0.552924
vt 0.361886 0.552188
vt 0.678369 0.493765
vt 0.797794 0.395444
vt 0.726873 0.449951
vt 0.742031 0.396911
vt 0.758529 0.349582
vt 0.672448 0.428366
vt 0.334069 0.431884
vt 0.327615 0.501296
vt 0.281609 0.463045
vt 0.263671 0.405511
vt 0.200822 0.406282
vt 0.200822 0.406282
vt 0.644754 0.662030
vt 0.644754 0.662030
vt 0.681662 0.399723
vt 0.435346 0.814262
vt 0.435230 0.813950
vt 0.680643 0.421903
vt 0.328753 0.425331
vt 0.328304 0.433932
vt 0.311840 0.428870
vt 0.315792 0.420755
vt 0.640853 0.607301
vt 0.640853 0.607301
vt 0.643040 0.662318
vt 0.643040 0.662318
vt 0.753759 0.662485
vt 0.752262 0.582599
vt 0.683677 0.492000
vt 0.579617 0.813692
vt 0.817752 0.493164
vt 0.249371 0.592076
vt 0.257527 0.527272
vt 0.859028 0.396894
vt 0.857574 0.396519
vt 0.246848 0.655983
vt 0.379614 0.401917
vt 0.395854 0.402431
vt 0.619351 0.398585
vt 0.616420 0.400341
vt 0.329847 0.803371
vt 0.733675 0.782197
vt 0.733675 0.782197
vt 0.864634 0.714656
vt 0.864634 0.714656
vt 0.892132 0.550974
vt 0.874740 0.591457
vt 0.871246 0.592187
vt 0.973301 0.545497
vt 0.972973 0.543372
vt 0.126041 0.603143
vt 0.022115 0.565310
vt 0.035719 0.475101
vt 0.187891 0.504990
vt 0.196201 0.523533
vt 0.146870 0.654989
vt 0.146870 0.654989
vt 0.219032 0.681129
vt 0.274772 0.790232
vt 0.340971 0.533720
vt 0.404856 0.474899
vt 0.508567 0.430070
vt 0.260217 0.536199
vt 0.494176 0.373288
vt 0.494171 0.400325
vt 0.506270 0.401385
vt 0.666226 0.532937
vt 0.743886 0.529752
vt 0.744204 0.531229
vt 0.760333 0.557371
vt 0.790492 0.555250
vt 0.595505 0.473277
vt 0.507374 0.430586
vt 0.806700 0.512819
vt 0.714638 0.492926
vt 0.757550 0.646570
vt 0.497242 0.622482
vt 0.495338 0.644257
vt 0.428517 0.716075
vt 0.429117 0.658749
vt 0.430977 0.658697
vt 0.426362 0.632567
vt 0.401492 0.797240
vt 0.449149 0.796739
vt 0.449149 0.796739
vt 0.401684 0.797867
vt 0.600978 0.793753
vt 0.552969 0.796746
vt 0.600978 0.793753
vt 0.552969 0.796746
vt 0.600935 0.794143
vt 0.600935 0.794143
vt 0.580569 0.810994
vt 0.326924 0.498951
vt 0.327066 0.433551
vt 0.703764 0.397397
vt 0.833251 0.367825
vt 0.817132 0.398234
vt 0.858415 0.398615
vt 0.856877 0.398218
vt 0.861148 0.411956
vt 0.959396 0.455437
vt 0.865470 0.489091
vt 0.880536 0.456184
vt 0.859560 0.504909
vt 0.865427 0.488330
vt 0.859439 0.504000
vt 0.553495 0.774625
vt 0.553495 0.774625
vt 0.551110 0.782920
vt 0.551110 0.782920
vt 0.446044 0.775739
vt 0.448331 0.782689
vt 0.448331 0.782689
vt 0.398001 0.718655
vt 0.154959 0.430700
vt 0.146088 0.409530
vt 0.184371 0.407466
vt 0.184030 0.407215
vt 0.128392 0.377150
vt 0.125647 0.380094
vt 0.130151 0.389249
vt 0.137702 0.513098
vt 0.496495 0.708093
vt 0.497266 0.763586
vt 0.496495 0.708093
vt 0.395797 0.719330
vt 0.396982 0.718420
vt 0.580203 0.811410
vt 0.569220 0.825843
vt 0.435619 0.814247
vt 0.441264 0.829507
vt 0.393324 0.797427
vt 0.390915 0.726877
vt 0.398001 0.718655
vt 0.389992 0.778276
vt 0.399484 0.721028
vt 0.389992 0.779467
vn 0.000000 1.000000 0.000000
vn 0.000000 1.000000 0.000000
vn 0.000000 1.000000 0.000000
vn 0.000000 1.000000 0.000000
vn 0.001209 0.995626 -0.093423
vn 0.000604 0.995565 -0.094075
vn 0.000604 0.995565 -0.094075
vn -0.000002 0.995503 -0.094726
vn 1.000000 0.000000 0.000000
vn 1.000000 0.000000 0.000000
vn 1.000000 0.000000 0.000000
vn 1.000000 0.000000 0.000000
vn 0.000020 0.000000 1.000000
vn 0.000020 0.000000 1.000000
vn 0.000020 0.000000 1.000000
vn 0.000020 0.000000 1.000000
vn -1.000000 0.000000 0.000019
vn -1.000000 0.000000 0.000019
vn -1.000000 0.000000 0.000019
vn -1.000000 0.000000 0.000019
vn 0.000000 1.000000 0.000000
vn 0.000000 1.000000 0.000000
vn 0.000000 1.000000 0.000000
vn 0.000000 1.000000 0.000000
vn 0.000000 1.000000 0.000000
vn 0.447214 0.000000 0.894427
vn 0.894427 -0.000000 0.447214
vn 1.000000 -0.000000 0.000000
vn 1.000000 -0.000000 -0.000001
vn -0.016778 0.999817 -0.009238
vn -0.008389 0.999954 -0.004619
vn -0.008389 0.999954 -0.004619
vn 0.000000 1.000000 -0.000000
vn 0.001025 0.002308 -0.999997
vn -0.706370 -0.000215 -0.707843
vn 0.001626 -0.000179 -0.999999
vn -0.706136 -0.001861 -0.708073
vn 0.000000 1.000000 0.000000
vn 0.000000 1.000000 0.000000
vn 0.000000 1.000000 -0.000000
vn -0.000001 -0.000002 1.000000
vn -0.000002 -0.000005 1.000000
vn -0.000002 -0.000005 1.000000
vn -0.000003 -0.000007 1.000000
vn -0.215042 0.089889 0.972459
vn -0.215042 0.089889 0.972459
vn -0.215042 0.089889 0.972459
vn -0.999651 -0.026429 0.000001
vn -0.999876 -0.013216 -0.008536
vn -0.999876 -0.013216 -0.008536
vn -0.999854 0.000000 -0.017071
vn 0.000000 1.000000 -0.000000
vn 0.000000 1.000000 -0.000000
vn 0.000000 1.000000 -0.000000
vn 0.000000 1.000000 0.000000
vn -0.000003 -0.000002 1.000000
vn -0.000001 0.000000 1.000000
vn -0.000001 0.000000 1.000000
vn 0.000000 0.000002 1.000000
vn 0.000000 1.000000 0.000000
vn -1.000000 -0.000092 -0.000553
vn -0.999998 -0.001564 -0.000981
vn -0.999998 -0.001564 -0.000981
vn -0.999994 -0.003037 -0.001408
vn -0.069229 0.997601 -0.000098
vn -0.035255 0.999211 -0.018288
vn -0.035255 0.999211 -0.018288
vn -0.001227 0.999335 -0.036451
vn 1.000000 0.000001 0.000000
vn 1.000000 0.000000 0.000000
vn 1.000000 0.000000 0.000000
vn 1.000000 0.000000 0.000000
vn -0.064428 -0.138534 -0.988260
vn -0.045139 -0.066761 -0.996747
vn -0.045139 -0.066761 -0.996747
vn -0.025598 0.005386 -0.999658
vn 0.035428 0.999372 0.000000
vn 0.017745 0.999798 -0.009438
vn 0.017745 0.999798 -0.009438
vn 0.000054 0.999822 -0.018871
vn -0.001754 0.999997 -0.001788
vn -0.005263 0.999972 -0.005365
vn -0.002632 0.999993 -0.002682
vn -0.027811 0.286209 0.957764
vn -0.027811 0.286209 0.957764
vn -0.027811 0.286209 0.957764
vn -0.013029 0.316854 0.948385
vn -0.013029 0.316854 0.948385
vn -0.013029 0.316854 0.948385
vn 0.000000 1.000000 0.000000
vn 0.002064 0.999988 0.004519
vn 0.000000 1.000000 0.000000
vn -0.016668 0.999654 -0.020349
vn 0.003768 0.999987 -0.003399
vn 0.003768 0.999987 -0.003399
vn 0.024201 0.999615 0.013554
vn 0.006191 0.999889 0.013557
vn 0.003096 0.999972 0.006779
vn -0.011899 0.683380 0.729966
vn -0.011899 0.683380 0.729966
vn -0.011899 0.683380 0.729966
vn -1.000000 0.000000 0.000018
vn -1.000000 0.000000 0.000019
vn -1.000000 0.000000 0.000019
vn -1.000000 0.000001 0.000019
vn 0.999448 0.000285 0.033210
vn 0.999818 -0.007927 0.017375
vn 0.999818 -0.007927 0.017375
vn 0.999869 -0.016136 0.001535
vn 0.000019 0.000017 1.000000
vn 0.000019 0.000017 1.000000
vn 0.000019 0.000017 1.000000
vn 1.000000 0.000001 0.000000
vn 0.971638 0.235292 -0.023599
vn 1.000000 0.000000 0.000000
vn 0.744264 0.664551 -0.066652
vn 0.933880 0.355801 -0.035686
vn 0.000019 0.000000 1.000000
vn 0.000019 -0.000000 1.000000
vn 0.000019 -0.000000 1.000000
vn 0.000018 -0.000000 1.000000
vn -1.000000 0.000000 0.000018
vn -1.000000 0.000000 0.000018
vn -1.000000 0.000000 0.000018
vn -1.000000 0.000000 0.000018
vn 0.000017 0.000000 1.000000
vn 0.000018 0.000000 1.000000
vn 0.000018 0.000000 1.000000
vn 0.000019 0.000000 1.000000
vn 0.000767 0.995079 -0.099084
vn 0.000382 0.995035 -0.099521
vn 0.000382 0.995035 -0.099521
vn -0.000002 0.994992 -0.099957
vn -1.000000 0.000000 0.000019
vn -1.000000 0.000000 0.000019
vn -1.000000 0.000000 0.000019
vn -1.000000 0.000000 0.000019
vn 1.000000 0.000000 0.000000
vn 1.000000 0.000000 0.000000
vn 1.000000 0.000000 0.000000
vn 1.000000 0.000000 0.000000
vn 0.000019 0.000018 1.000000
vn 0.000019 0.000018 1.000000
vn 0.000019 0.000018 1.000000
vn 1.000000 0.000000 0.000000
vn 0.970678 0.235755 -0.046953
vn 0.999838 -0.005943 -0.016976
vn 0.731198 0.675070 -0.098135
vn 0.931418 0.356940 -0.071089
vn 0.000019 0.000000 1.000000
vn 0.000019 0.000000 1.000000
vn 0.000019 0.000000 1.000000
vn 0.000019 0.000000 1.000000
vn -1.000000 0.000000 0.000019
vn -1.000000 0.000000 0.000019
vn -1.000000 0.000000 0.000019
vn -1.000000 0.000000 0.000019
vn -1.000000 0.000000 0.000019
vn -1.000000 0.000000 0.000019
vn -1.000000 0.000000 0.000019
vn -1.000000 0.000000 0.000019
vn 0.000019 0.000000 1.000000
vn 0.000019 0.000000 1.000000
vn 0.000019 0.000000 1.000000
vn 0.000019 0.000000 1.000000
vn 1.000000 0.000000 0.000000
vn 1.000000 -0.000000 0.000000
vn 1.000000 -0.000000 0.000000
vn 1.000000 -0.000000 0.000000
vn 0.000019 0.000000 1.000000
vn 0.000019 -0.000000 1.000000
vn 0.000019 -0.000000 1.000000
vn 0.000019 -0.000000 1.000000
vn 0.000000 1.000000 0.000000
vn 0.000000 1.000000 0.000000
vn 0.000000 1.000000 0.000000
vn 0.000000 1.000000 0.000000
vn -0.015419 -0.727255 0.686195
vn -0.015419 -0.727255 0.686195
vn -0.015419 -0.727255 0.686195
vn 0.000000 1.000000 0.000000
vn 0.000000 1.000000 0.000000
vn 0.000000 1.000000 0.000000
vn 0.000000 1.000000 0.000000
vn 0.000000 1.000000 0.000000
vn 0.017356 0.000000 0.999849
vn 0.008679 0.008520 0.999926
vn 0.008679 0.008520 0.999926
vn 0.000000 0.017039 0.999855
vn 0.000000 1.000000 0.000000
vn -0.007198 0.999971 -0.002398
vn -0.007198 0.999971 -0.002398
vn -0.014396 0.999885 -0.004795
vn 0.000459 0.696642 -0.717419
vn 0.000459 0.696642 -0.717419
vn 0.000459 0.696642 -0.717419
vn -0.000246 0.999975 0.007073
vn -0.019829 0.999801 0.002357
vn -0.014933 0.999882 0.003537
vn -0.029618 0.999561 -0.000001
vn -0.029619 0.999561 -0.000002
vn -1.000000 0.000000 0.000022
vn -0.999883 0.007473 -0.013388
vn -0.999883 0.007473 -0.013388
vn -0.999529 0.014944 -0.026794
vn -0.000000 1.000000 0.000000
vn -0.000000 1.000000 0.000000
vn -0.000000 1.000000 0.000000
vn 0.000000 1.000000 0.000000
vn 0.000019 0.000000 1.000000
vn 0.007276 0.004918 0.999961
vn 0.007276 0.004918 0.999961
vn 0.014532 0.009835 0.999846
vn 1.000000 0.000000 0.000000
vn 1.000000 0.000000 0.000000
vn 1.000000 0.000000 0.000000
vn 1.000000 0.000000 0.000000
vn -1.000000 0.000000 0.000022
vn -1.000000 -0.000001 0.000021
vn -1.000000 -0.000001 0.000021
vn -1.000000 -0.000002 0.000019
vn 0.999985 -0.005415 0.000090
vn 0.999992 -0.002708 0.002918
vn 0.999992 -0.002708 0.002918
vn 0.999984 -0.000000 0.005746
vn 0.000020 0.000000 1.000000
vn 0.000019 0.000000 1.000000
vn 0.000019 0.000000 1.000000
vn 0.000019 0.000000 1.000000
vn 1.000000 0.000000 0.000000
vn 1.000000 0.000000 0.000000
vn 1.000000 0.000000 0.000000
vn 1.000000 0.000000 0.000000
vn 0.000019 0.000000 1.000000
vn 0.000019 0.000000 1.000000
vn 0.000019 0.000000 1.000000
vn 0.000019 0.000000 1.000000
vn 0.009447 -0.659489 0.751655
vn 0.009447 -0.659489 0.751655
vn 0.009447 -0.659489 0.751655
vn -0.600099 -0.799805 -0.013897
vn -0.955790 -0.294007 -0.005093
vn -0.894455 -0.447092 -0.007756
vn -1.000000 0.000000 0.000022
vn -1.000000 -0.000001 0.000022
vn 0.956200 0.292664 0.005495
vn 0.956200 0.292664 0.005495
vn 0.956200 0.292664 0.005495
vn 0.808726 0.588186 0.000000
vn 0.808726 0.588186 0.000000
vn 0.808726 0.588186 0.000000
vn 0.000017 -0.478929 0.877854
vn 0.000017 -0.478929 0.877854
vn 0.000017 -0.478929 0.877854
vn 1.000000 -0.000000 0.000000
vn 1.000000 -0.000000 0.000000
vn 1.000000 -0.000000 0.000000
vn 1.000000 0.000000 0.000000
vn -1.000000 0.000000 0.000018
vn -0.949442 -0.313874 -0.006503
vn -0.999955 0.003877 -0.008683
vn -0.534084 -0.845432 0.000010
vn -0.877611 -0.479271 -0.009940
vn -0.000001 1.000000 -0.000001
vn -0.000000 1.000000 -0.000000
vn -0.000000 1.000000 -0.000000
vn 0.000000 1.000000 0.000000
vn 0.000020 0.000000 1.000000
vn 0.000020 0.000000 1.000000
vn 0.000020 0.000000 1.000000
vn 0.000019 0.000000 1.000000
vn -1.000000 -0.000001 0.000018
vn -1.000000 -0.000000 0.000018
vn -1.000000 -0.000000 0.000018
vn -1.000000 0.000000 0.000018
vn 0.999240 0.000000 0.038983
vn 0.999713 -0.013958 0.019497
vn 0.999713 -0.013958 0.019497
vn 0.999611 -0.027909 0.000000
vn 0.005456 0.000000 0.999985
vn 0.002738 0.001344 0.999995
vn 0.002738 0.001344 0.999995
vn 0.000020 0.002689 0.999996
vn 0.000000 1.000000 -0.000000
vn 0.000000 1.000000 -0.000000
vn 0.000000 1.000000 -0.000000
vn 0.000000 1.000000 0.000000
vn 1.000000 0.000039 0.000022
vn 1.000000 0.000037 0.000021
vn 1.000000 0.000029 0.000026
vn 1.000000 0.000036 0.000020
vn 1.000000 0.000036 0.000023
vn 1.000000 0.000018 0.000033
vn 1.000000 0.000000 0.000041
vn 1.000000 0.000039 0.000020
vn 1.000000 0.000044 0.000039
vn 1.000000 0.000029 0.000063
vn 1.000000 0.000024 0.000084
vn 1.000000 0.000000 0.000110
vn 0.000000 1.000000 -0.000000
vn 0.000000 1.000000 -0.000000
vn 0.000000 1.000000 -0.000000
vn 0.000000 1.000000 0.000000
vn 0.000000 1.000000 0.000000
vn 0.553221 -0.051455 -0.831444
vn 0.553221 -0.051455 -0.831444
vn 0.553221 -0.051455 -0.831444
vn 0.000000 1.000000 0.000000
vn 0.000000 1.000000 0.000000
vn 0.000000 1.000000 0.000000
vn 0.000000 1.000000 0.000000
vn 0.000000 1.000000 0.000000
vn 0.000000 1.000000 -0.000000
vn 0.000000 1.000000 -0.000000
vn 0.000000 1.000000 -0.000000
vn -0.998303 -0.052132 0.025944
vn -0.997918 -0.063295 0.012411
vn -0.997918 -0.063295 0.012411
vn -0.997225 -0.074438 -0.001126
vn 0.000615 0.998978 -0.045185
vn -0.008181 0.999614 -0.026541
vn -0.008181 0.999614 -0.026541
vn -0.016973 0.999825 -0.007885
vn 0.000001 0.000000 -1.000000
vn 0.000001 0.000000 -1.000000
vn 0.000001 0.000000 -1.000000
vn 0.000001 0.000000 -1.000000
vn 0.000000 1.000000 0.000000
vn 0.000000 1.000000 0.000000
vn 0.000000 1.000000 0.000000
vn 0.000000 1.000000 0.000000
vn -0.998763 -0.049713 -0.001128
vn -0.999634 -0.026155 0.006970
vn -0.999151 -0.039227 0.012604
vn -0.999836 -0.014367 0.011018
vn -0.999991 0.000000 -0.004300
vn 0.031110 0.999109 0.028534
vn 0.045893 0.998722 0.021178
vn 0.045893 0.998722 0.021178
vn 0.060664 0.998063 0.013815
vn 0.003377 0.738965 -0.673735
vn 0.003377 0.738965 -0.673735
vn 0.003377 0.738965 -0.673735
vn 0.018335 0.999678 -0.017518
vn 0.006112 0.999964 -0.005840
vn 0.009168 0.999920 -0.008760
vn 0.000000 1.000000 0.000000
vn 0.000000 1.000000 0.000000
vn 0.000000 1.000000 0.000000
vn 0.000000 1.000000 0.000000
vn 0.000000 1.000000 0.000000
vn 0.000000 1.000000 0.000000
vn 0.001144 0.964869 -0.262729
vn 0.001144 0.964869 -0.262729
vn 0.001144 0.964869 -0.262729
vn 0.015032 0.810569 0.585450
vn 0.015032 0.810569 0.585450
vn 0.015032 0.810569 0.585450
vn -0.896503 -0.033446 -0.441773
vn -0.896503 -0.033446 -0.441773
vn -0.896503 -0.033446 -0.441773
vn -0.999998 -0.001570 -0.001109
vn -0.999999 -0.000785 -0.001519
vn -0.999999 -0.000785 -0.001519
vn -0.999998 0.000000 -0.001928
vn 0.031000 0.999412 0.014631
vn 0.038558 0.999228 0.007526
vn 0.038558 0.999228 0.007526
vn 0.046111 0.998936 0.000419
vn 0.034195 0.999415 0.000066
vn 0.017133 0.999826 -0.007360
vn 0.017133 0.999826 -0.007360
vn 0.000064 0.999891 -0.014784
vn -1.000000 0.000000 0.000001
vn -0.999973 0.004403 -0.005958
vn -0.999973 0.004403 -0.005958
vn -0.999890 0.008805 -0.011917
vn 0.000000 1.000000 -0.000000
vn 0.000000 1.000000 -0.000000
vn 0.000000 1.000000 -0.000000
vn 0.000000 1.000000 0.000000
vn -0.024520 0.000000 0.999699
vn -0.024520 0.000000 0.999699
vn -0.024520 0.000000 0.999699
vn -0.024520 0.000000 0.999699
vn 0.000000 1.000000 0.000000
vn 0.000000 1.000000 0.000000
vn 0.000000 1.000000 0.000000
vn 0.000000 1.000000 -0.000000
vn 0.000000 1.000000 0.000000
vn 0.000000 1.000000 0.000000
vn 0.000000 1.000000 0.000000
vn -0.020178 0.000000 0.999796
vn -0.020178 0.000000 0.999796
vn -0.020178 0.000000 0.999796
vn -0.020178 0.000000 0.999796
vn 0.000000 1.000000 0.000000
vn 0.000000 1.000000 0.000000
vn 0.000000 1.000000 0.000000
vn 0.000000 1.000000 0.000000
vn 0.000000 1.000000 -0.000000
vn 0.000000 1.000000 0.000000
vn 0.000000 1.000000 0.000000
vn 0.000737 1.000000 -0.000002
vn 0.000737 1.000000 -0.000002
vn 0.000737 1.000000 -0.000002
vn 0.000000 1.000000 -0.000018
vn 0.000000 1.000000 -0.000018
vn 0.000000 1.000000 -0.000018
vn 0.000754 0.250799 -0.968039
vn 0.000754 0.250799 -0.968039
vn 0.000754 0.250799 -0.968039
vn 0.000000 1.000000 0.000000
vn 0.000000 1.000000 0.000000
vn 0.000000 1.000000 0.000000
vn 0.000000 1.000000 0.000000
vn 0.000000 1.000000 0.000000
vn -0.796847 0.314510 0.515867
vn -0.796847 0.314510 0.515867
vn -0.962015 0.078038 -0.261604
vn -0.429506 0.903064 -0.000973
vn -0.858171 0.513164 0.014354
vn -0.995205 0.095441 0.021403
vn -0.991462 0.125466 0.035530
vn 0.000000 1.000000 0.000000
vn 0.000000 1.000000 -0.000000
vn 0.000000 1.000000 -0.000000
vn 0.000000 1.000000 -0.000000
vn 0.000000 0.000000 -1.000000
vn 0.000000 0.000000 -1.000000
vn 0.000000 0.000000 -1.000000
vn 0.000000 0.000000 -1.000000
vn 0.000000 1.000000 -0.000000
vn 0.000000 1.000000 -0.000000
vn 0.000000 1.000000 -0.000000
vn 0.000000 1.000000 0.000000
vn 0.000000 1.000000 -0.000000
vn 0.000000 1.000000 -0.000000
vn 0.000000 1.000000 -0.000000
vn 0.000000 1.000000 0.000000
vn 0.000000 1.000000 0.000000
vn 0.000000 1.000000 0.000000
vn 0.000000 1.000000 0.000000
vn 0.000382 0.043932 0.999034
vn 0.000382 0.043932 0.999034
vn 0.000382 0.043932 0.999034
vn 1.000000 -0.000000 0.000000
vn 1.000000 -0.000000 0.000000
vn 1.000000 -0.000000 0.000000
vn 1.000000 0.000000 0.000000
vn 0.027855 0.005807 0.999595
vn 0.027855 0.005807 0.999595
vn 0.027855 0.005807 0.999595
vn -0.000176 -0.003940 -0.999992
vn -0.000172 -0.003952 -0.999992
vn -0.000172 -0.003952 -0.999992
vn -0.000167 -0.003964 -0.999992
vn 0.136426 0.000849 -0.990650
vn 0.136426 0.000849 -0.990650
vn 0.136426 0.000849 -0.990650
vn -0.000167 -0.003939 -0.999992
vn -0.000289 -0.003616 -0.999993
vn -0.000289 -0.003616 -0.999993
vn -0.000411 -0.003292 -0.999995
vn 0.653206 -0.000078 0.757180
vn 0.653206 -0.000078 0.757180
vn 0.653206 -0.000078 0.757180
vn 0.127079 0.024206 0.991597
vn 0.127079 0.024206 0.991597
vn 0.127079 0.024206 0.991597
vn -0.999640 0.026849 -0.000001
vn -0.999902 0.009725 -0.010108
vn -0.999902 0.009725 -0.010108
vn -0.999768 -0.007402 -0.020211
vn -0.999859 -0.016797 0.000000
vn -0.999913 -0.008399 -0.010159
vn -0.999913 -0.008399 -0.010159
vn -0.999794 0.000000 -0.020316
vn -0.042039 0.983931 0.173533
vn -0.047810 0.592522 0.804134
vn -0.047810 0.592522 0.804134
vn -0.027243 -0.125302 0.991745
vn 0.000000 1.000000 0.000000
vn 0.000000 1.000000 0.000000
vn 0.000000 1.000000 0.000000
vn 0.000000 1.000000 0.000000
vn 0.000000 1.000000 0.000000
vn 0.000000 1.000000 0.000000
vn 0.000000 1.000000 0.000000
vn 0.000000 1.000000 0.000000
vn 0.000000 1.000000 -0.000000
vn 0.000000 1.000000 0.000000
vn 0.000000 1.000000 0.000000
vn 0.000000 1.000000 0.000000
vn 0.000000 1.000000 0.000000
vn 0.000000 1.000000 0.000000
vn 0.000000 1.000000 0.000000
vn 0.000000 1.000000 0.000000
vn 0.003496 0.999918 -0.012286
vn 0.001748 0.999850 -0.017241
vn 0.001748 0.999850 -0.017241
vn 0.000000 0.999754 -0.022196
vn -0.999158 0.038045 0.015351
vn -0.999158 0.038045 0.015351
vn -0.999158 0.038045 0.015351
vn -0.000003 0.000172 1.000000
vn -0.000003 0.000172 1.000000
vn -0.000003 0.000172 1.000000
vn 0.024440 0.998890 0.040281
vn 0.012223 0.999722 0.020146
vn 0.012223 0.999722 0.020146
vn 0.000000 1.000000 -0.000000
vn -0.005360 -0.003528 -0.999979
vn -0.006478 -0.001733 -0.999978
vn -0.006478 -0.001733 -0.999978
vn -0.007595 0.000063 -0.999971
vn 0.028397 0.000000 -0.999597
vn 0.895638 0.011094 -0.444646
vn 0.714405 -0.001120 -0.699732
vn 0.999915 0.012562 -0.003612
vn 0.999642 0.026734 0.000425
vn -0.000517 -0.000063 1.000000
vn -0.000517 -0.000063 1.000000
vn -0.000517 -0.000063 1.000000
vn 0.022537 0.999745 -0.001663
vn -0.005313 0.999861 -0.015811
vn -0.005313 0.999861 -0.015811
vn -0.033158 0.999002 -0.029944
vn 0.000000 1.000000 0.000000
vn 0.000000 1.000000 0.000000
vn 0.000000 1.000000 0.000000
vn 0.000000 1.000000 0.000000
vn -0.007088 0.486677 0.873553
vn -0.007088 0.486677 0.873553
vn -0.007088 0.486677 0.873553
vn 0.000000 0.000000 1.000000
vn 0.000000 0.000000 1.000000
vn 0.000000 0.000000 1.000000
vn 0.000000 0.000000 1.000000
vn -0.040134 0.999194 -0.000164
vn -0.019980 0.999623 -0.018853
vn -0.019980 0.999623 -0.018853
vn 0.000188 0.999296 -0.037528
vn 0.000000 1.000000 0.000000
vn 0.000000 1.000000 0.000000
vn 0.999779 0.021020 0.000000
vn 0.999891 0.010511 0.010346
vn 0.999470 0.014154 0.029310
vn 0.975219 -0.155014 -0.157856
vn 0.879379 -0.327437 -0.345655
vn 0.863732 -0.333475 -0.377839
vn 1.000000 0.000000 0.000000
vn -0.015283 -0.521444 0.853149
vn -0.015283 -0.521444 0.853149
vn -0.015283 -0.521444 0.853149
vn -0.999999 0.000000 -0.001710
vn -0.999999 -0.000852 -0.000855
vn -0.999999 -0.000852 -0.000855
vn -0.999999 -0.001704 0.000000
vn -0.618432 0.785744 0.012168
vn -0.618432 0.785744 0.012168
vn -0.618432 0.785744 0.012168
vn -0.000000 0.000000 1.000000
vn -0.000000 0.000000 1.000000
vn -0.000000 0.000000 1.000000
vn 0.000000 0.000000 1.000000
vn -0.999949 0.000000 0.010086
vn -0.999800 -0.006547 0.018922
vn -0.999800 -0.006547 0.018922
vn -0.999529 -0.013092 0.027755
vn 0.004751 0.006808 0.999966
vn 0.007201 0.003404 0.999968
vn 0.007201 0.003404 0.999968
vn 0.009651 0.000000 0.999953
vn -0.999758 -0.016766 0.014216
vn -0.999758 -0.016766 0.014216
vn -0.999758 -0.016766 0.014216
vn 0.012996 0.999848 -0.011657
vn -0.005215 0.999681 -0.024713
vn -0.005215 0.999681 -0.024713
vn -0.023424 0.999012 -0.037757
vn -0.866278 0.499532 0.005533
vn -0.866278 0.499532 0.005533
vn -0.866278 0.499532 0.005533
vn -0.757748 0.652504 0.007535
vn -0.815603 0.578573 0.006759
vn -0.815603 0.578573 0.006759
vn -0.866269 0.499542 0.005922
vn -0.001233 0.000278 -0.999999
vn -0.001265 0.000162 -0.999999
vn -0.030900 0.000323 -0.999523
vn -0.999907 0.001537 -0.013554
vn -0.028397 -0.000000 0.999597
vn 0.000000 1.000000 0.000000
vn 0.000000 1.000000 0.000000
vn 0.000000 1.000000 -0.000000
vn 0.000000 1.000000 -0.000000
vn 0.000000 1.000000 -0.000001
vn -0.030018 0.999549 0.000416
vn -0.015012 0.999816 0.011987
vn -0.015012 0.999816 0.011987
vn 0.000000 0.999723 0.023553
vn 0.004687 0.000000 0.999989
vn 0.002343 0.003354 0.999992
vn 0.002343 0.003354 0.999992
vn 0.000000 0.006708 0.999978
vn 0.000342 -0.007197 0.999974
vn 0.000424 -0.009238 0.999957
vn 0.000424 -0.009238 0.999957
vn 0.000507 -0.011279 0.999936
vn 0.014713 -0.000279 0.999892
vn 0.014713 -0.000279 0.999892
vn 0.014713 -0.000279 0.999892
vn -0.999275 -0.027758 -0.026072
vn -0.999921 -0.009067 -0.008721
vn -0.999820 -0.013798 -0.013036
vn -1.000000 0.000280 -0.000043
vn -1.000000 0.000394 -0.000090
vn -0.004477 0.999533 -0.030227
vn -0.014359 0.999781 -0.015200
vn -0.014359 0.999781 -0.015200
vn -0.024236 0.999706 -0.000168
vn -0.999520 -0.014442 0.027409
vn -0.999685 -0.020356 0.014681
vn -0.999685 -0.020356 0.014681
vn -0.999653 -0.026265 0.001951
vn -0.999764 -0.015521 0.015206
vn -0.999948 -0.007761 0.006637
vn -0.999948 -0.007761 0.006637
vn -0.999998 0.000000 -0.001933
vn -0.999940 -0.008553 -0.006901
vn -0.999940 -0.008553 -0.006901
vn -0.999940 -0.008553 -0.006901
vn 0.036163 0.004072 0.999338
vn 0.036163 0.004072 0.999338
vn 0.036163 0.004072 0.999338
vn -0.999711 -0.022595 -0.008245
vn -0.999711 -0.022595 -0.008245
vn -0.999711 -0.022595 -0.008245
vn 0.000000 -0.000669 1.000000
vn -0.000006 -0.002001 0.999998
vn -0.000003 -0.000997 1.000000
vn -0.000008 -0.001987 0.999998
vn -0.000002 -0.000989 1.000000
vn 0.000000 0.000000 1.000000
vn 0.000000 0.000000 1.000000
vn -0.000002 -0.000000 1.000000
vn -0.000002 -0.000000 1.000000
vn -0.000001 0.000000 1.000000
vn -0.000001 -0.000000 1.000000
vn -0.000001 -0.000000 1.000000
vn -0.000002 -0.000000 1.000000
vn 1.000000 0.000000 0.001037
vn 1.000000 0.000000 0.001037
vn 1.000000 0.000000 0.001037
vn 1.000000 0.000000 0.001037
vn 0.000000 1.000000 0.000000
vn 0.000000 1.000000 0.000000
vn 0.000000 1.000000 0.000000
vn 0.000000 1.000000 -0.000001
vn 0.000000 1.000000 0.000001
vn 0.000000 1.000000 0.000001
vn 0.000000 1.000000 -0.000000
vn 0.000000 1.000000 0.000000
vn 0.000000 1.000000 -0.000000
vn 0.000000 1.000000 -0.000000
vn 0.000000 1.000000 -0.000000
vn 0.000000 1.000000 -0.000001
vn 0.000000 1.000000 0.000000
vn 0.999975 0.000000 0.007079
vn 0.999987 0.004731 0.001759
vn 0.940576 0.283810 -0.186464
vn 0.934654 0.301408 -0.188612
vn 0.841790 0.457596 -0.286349
vn 0.998684 0.050592 -0.008476
vn 0.999949 0.009463 0.003518
vn 0.999796 0.018925 -0.007122
vn 0.000000 1.000000 0.000000
vn 0.444451 0.895762 -0.008654
vn 0.000000 1.000000 -0.000000
vn 0.888831 0.457911 -0.017210
vn -0.000102 0.592654 -0.805457
vn -0.000102 0.592654 -0.805457
vn -0.000102 0.592654 -0.805457
vn 0.800443 0.396339 0.449674
vn 0.800443 0.396339 0.449674
vn 0.075657 0.497789 0.863992
vn -0.000004 0.000000 1.000000
vn -0.000004 0.000000 1.000000
vn -0.000004 0.000000 1.000000
vn -0.000004 0.000000 1.000000
vn 0.000000 1.000000 -0.000000
vn 0.000000 1.000000 -0.000000
vn 0.000000 1.000000 -0.000000
vn 0.000000 1.000000 0.000000
vn 0.000001 0.999087 0.042723
vn -0.000042 0.999092 0.042607
vn -0.000042 0.999092 0.042607
vn -0.000084 0.999097 0.042491
vn 0.000000 1.000000 0.000000
vn 0.000000 1.000000 0.000000
vn 0.000000 1.000000 0.000000
vn 0.000000 1.000000 0.000000
vn 0.000000 1.000000 -0.000006
vn 0.000000 1.000000 -0.000006
vn 0.000000 1.000000 -0.000006
vn 0.000000 1.000000 0.000000
vn 0.000000 1.000000 0.000000
vn 0.000000 1.000000 0.000000
vn 0.000000 1.000000 0.000000
vn 0.000000 1.000000 0.000000
vn 0.000000 1.000000 0.000000
vn 0.000000 1.000000 0.000000
vn 0.000000 1.000000 0.000000
vn 0.000000 1.000000 0.000000
vn -1.000000 0.000000 0.000000
vn -1.000000 0.000000 0.000000
vn -1.000000 0.000000 0.000000
vn -1.000000 0.000000 0.000000
vn -1.000000 0.000000 0.000000
vn 1.000000 0.000000 0.000000
vn 1.000000 -0.000000 0.000000
vn 1.000000 -0.000000 0.000000
vn 1.000000 -0.000000 0.000000
vn 1.000000 0.000000 0.000000
vn 0.999990 0.004451 0.001037
vn 0.999997 0.002226 -0.001413
vn 0.999997 0.002226 -0.001413
vn 0.999993 0.000000 -0.003863
vn -0.000019 -0.012801 -0.999918
vn 0.000006 -0.012999 -0.999916
vn 0.000006 -0.012999 -0.999916
vn 0.000031 -0.013197 -0.999913
vn 0.788388 0.615165 -0.004031
vn 0.752988 0.658034 0.001065
vn 0.752988 0.658034 0.001065
vn 0.715240 0.698852 0.006159
vn 0.750666 -0.024336 0.660234
vn 0.750666 -0.024336 0.660234
vn 0.750666 -0.024336 0.660234
vn 0.353909 0.000000 -0.935280
vn 0.353909 0.000000 -0.935280
vn 0.353909 0.000000 -0.935280
vn -0.503355 0.000000 -0.864080
vn -0.503355 0.000000 -0.864080
vn -0.503355 0.000000 -0.864080
vn -0.014523 0.999893 -0.001827
vn -0.007134 0.999974 -0.000706
vn -0.007134 0.999974 -0.000706
vn 0.000255 1.000000 0.000415
vn 0.000000 1.000000 0.000000
vn 0.000000 1.000000 0.000000
vn 0.000000 1.000000 0.000000
vn 0.000000 1.000000 0.000000
vn 0.000000 1.000000 0.000000
vn -0.773400 0.007211 0.633878
vn -0.773400 0.007211 0.633878
vn -0.773400 0.007211 0.633878
vn 0.000712 0.027738 0.999615
vn 0.027154 0.013885 0.999535
vn 0.027154 0.013885 0.999535
vn 0.053571 0.000021 0.998564
vn -0.000240 -0.004118 -0.999991
vn -0.000204 -0.004056 -0.999992
vn -0.000204 -0.004056 -0.999992
vn -0.000168 -0.003994 -0.999992
vn -0.994214 0.107419 -0.000038
vn -0.994787 0.101963 -0.001641
vn -0.994787 0.101963 -0.001641
vn -0.995328 0.096502 -0.003244
vn 0.999657 0.026192 0.000000
vn 0.999884 0.013066 -0.007896
vn 0.999884 0.013066 -0.007896
vn 0.999875 -0.000063 -0.015791
vn 0.029347 0.999569 0.000001
vn 0.014693 0.999876 -0.005688
vn 0.014693 0.999876 -0.005688
vn 0.000035 0.999935 -0.011375
vn 0.000000 1.000000 0.000000
vn 0.000000 1.000000 0.000000
vn 0.000000 1.000000 0.000000
vn 0.000000 1.000000 -0.000000
vn 0.000558 0.999602 -0.028215
vn 0.019775 0.999705 -0.014112
vn 0.019775 0.999705 -0.014112
vn 0.038980 0.999240 0.000000
vn 0.000000 0.000000 1.000000
vn 0.000000 0.000000 1.000000
vn 0.000000 0.000000 1.000000
vn 0.000000 0.000000 1.000000
vn 0.012587 0.771384 -0.636246
vn 0.012587 0.771384 -0.636246
vn 0.012587 0.771384 -0.636246
vn 0.000000 1.000000 0.000000
vn 0.000000 1.000000 0.000000
vn -0.033380 0.999443 -0.000007
vn -0.016703 0.999758 0.014341
vn -0.016703 0.999758 0.014341
vn -0.000018 0.999589 0.028682
vn -0.994072 0.106713 -0.020831
vn -0.994072 0.106713 -0.020831
vn -0.994072 0.106713 -0.020831
vn 0.016851 0.999783 -0.012263
vn 0.008428 0.999918 0.009604
vn 0.008428 0.999918 0.009604
vn 0.000000 0.999505 0.031467
vn 0.017122 0.999369 -0.031116
vn 0.008563 0.999842 -0.015561
vn 0.008563 0.999842 -0.015561
vn 0.000000 1.000000 -0.000001
vn -0.000143 -0.035796 -0.999359
vn 0.013435 0.018659 -0.999736
vn 0.013435 0.018659 -0.999736
vn 0.026971 0.073056 -0.996963
vn 0.999855 0.009472 -0.014163
vn 0.999655 0.021994 -0.014364
vn 0.999224 0.032988 -0.021545
vn 0.999496 0.028256 -0.014464
vn 1.000000 0.000000 0.000000
vn -0.001039 0.999999 0.001153
vn 0.018237 0.999629 -0.020235
vn 0.018237 0.999629 -0.020235
vn 0.037497 0.998430 -0.041606
vn 0.964145 -0.009497 -0.265207
vn 0.964145 -0.009497 -0.265207
vn 0.964145 -0.009497 -0.265207
vn -0.008123 -0.658929 0.752161
vn -0.008123 -0.658929 0.752161
vn -0.008123 -0.658929 0.752161
vn 0.007842 0.020989 0.999749
vn 0.004066 0.017342 0.999841
vn 0.004066 0.017342 0.999841
vn 0.000291 0.013693 0.999906
vn -0.013813 -0.018090 0.999741
vn -0.004261 -0.009046 0.999950
vn -0.004261 -0.009046 0.999950
vn 0.005292 0.000000 0.999986
vn -0.005918 0.938942 0.344024
vn -0.005918 0.938942 0.344024
vn -0.005918 0.938942 0.344024
vn -0.203097 0.809430 0.550977
vn 0.473834 0.554708 0.683945
vn 0.473834 0.554708 0.683945
vn 0.894516 0.000000 0.447036
vn -0.052263 -0.015541 0.998512
vn -0.052263 -0.015541 0.998512
vn -0.052263 -0.015541 0.998512
vn -1.000000 0.000000 0.000000
vn -1.000000 0.000000 0.000000
vn -0.951580 0.000000 -0.307402
vn -1.000000 0.000000 0.000000
vn -0.961843 0.000000 -0.273603
vn -0.561500 0.000000 -0.827477
vn -0.897267 0.000000 -0.441489
vn -0.655344 0.000000 -0.755331
vn 0.997139 -0.032271 -0.068354
vn 0.999283 -0.016207 -0.034202
vn 0.999283 -0.016207 -0.034202
vn 1.000000 -0.000119 0.000000
vn -0.000161 1.000000 0.000148
vn -0.000161 1.000000 0.000148
vn -0.000161 1.000000 0.000148
vn 1.000000 -0.000112 -0.000151
vn 1.000000 -0.000056 -0.000075
vn 1.000000 -0.000056 -0.000075
vn 1.000000 0.000000 0.000000
vn -0.812066 0.583564 0.001459
vn -0.812066 0.583564 0.001459
vn -0.812066 0.583564 0.001459
vn 1.000000 -0.000111 -0.000110
vn 1.000000 -0.000135 -0.000155
vn 1.000000 -0.000135 -0.000155
vn 1.000000 -0.000160 -0.000199
vn 0.999724 -0.023510 -0.000154
vn 0.999845 -0.012403 0.012460
vn 0.999845 -0.012403 0.012460
vn 0.999685 -0.001293 0.025071
vn 0.999593 -0.001253 0.028490
vn 0.999852 -0.009828 0.014121
vn 0.999852 -0.009828 0.014121
vn 0.999831 -0.018401 -0.000251
vn 0.008133 0.522148 0.852816
vn 0.009826 0.559895 0.828505
vn 0.009826 0.559895 0.828505
vn 0.011499 0.596512 0.802522
vn -0.845422 0.534091 -0.002807
vn -0.828870 0.559441 -0.001302
vn -0.828870 0.559441 -0.001302
vn -0.811555 0.584276 0.000204
vn 1.000000 -0.000086 -0.000361
vn 0.999853 0.012029 0.012211
vn 0.999853 0.012029 0.012211
vn 0.999402 0.024141 0.024778
vn 0.000000 1.000000 0.000000
vn 0.000000 1.000000 -0.000001
vn 0.000000 1.000000 -0.000001
vn 0.000000 1.000000 -0.000001
vn 0.000000 1.000000 0.000000
vn 0.000000 1.000000 0.000000
vn 1.000000 0.000000 -0.000363
vn 1.000000 0.000000 -0.000363
vn 1.000000 0.000000 -0.000363
vn 0.187344 0.982170 0.015658
vn 0.187344 0.982170 0.015658
vn 0.187344 0.982170 0.015658
vn 0.018274 0.001535 0.999832
vn 0.018266 0.000003 0.999833
vn 0.017822 0.000767 0.999841
vn 0.018267 0.000000 0.999833
vn -0.924556 0.019209 0.380561
vn -0.946966 0.013827 0.321037
vn -0.953538 0.009096 0.301137
vn -0.955842 0.005659 0.293825
vn 0.000000 1.000000 0.000001
vn 0.000000 1.000000 0.000001
vn 0.000000 1.000000 0.000001
vn 0.017379 0.001532 0.999848
vn 0.016473 0.000000 0.999864
vn 0.000000 1.000000 0.000001
vn 0.000000 1.000000 0.000001
vn 0.000000 1.000000 0.000001
vn 0.000000 1.000000 0.000000
vn 0.000000 1.000000 0.000000
vn 0.000000 1.000000 0.000000
vn 0.000000 1.000000 -0.000001
vn 0.000000 1.000000 -0.000000
vn -0.000030 0.000000 1.000000
vn 0.006495 0.018032 0.999816
vn 0.008712 0.012021 0.999890
vn 0.018692 0.021937 0.999585
vn 0.029906 0.029744 0.999110
vn 0.021529 0.014874 0.999658
vn 0.000000 1.000000 -0.000000
vn 0.000000 1.000000 -0.000000
vn 0.000000 1.000000 -0.000000
vn 0.000000 1.000000 0.000000
vn 0.000000 1.000000 0.000000
vn -0.999996 0.000185 0.002906
vn -0.999996 0.000055 0.002906
vn -0.999996 -0.000195 0.002815
vn -0.999997 -0.000391 0.002508
vn -0.000701 0.999536 0.030461
vn 0.004473 0.999874 0.015220
vn 0.004473 0.999874 0.015220
vn 0.009645 0.999954 -0.000025
vn -0.999996 0.000278 0.002798
vn -0.999997 0.000000 0.002508
vn 0.000000 1.000000 -0.000001
vn -0.001302 0.999991 0.003997
vn -0.001302 0.999991 0.003997
vn -0.002604 0.999965 0.007995
vn -0.002529 0.999833 0.018128
vn -0.001551 0.999778 0.021004
vn -0.001217 0.999759 0.021939
vn -0.000561 0.999716 0.023845
vn -0.000548 0.999716 0.023809
vn -0.846510 0.000470 0.532373
vn -0.846510 0.000470 0.532373
vn -0.846510 0.000470 0.532373
vn -0.809817 0.586683 0.000073
vn -0.805330 0.592827 0.000593
vn -0.805330 0.592827 0.000593
vn -0.800796 0.598936 0.001114
vn -0.950556 0.004290 0.310522
vn -0.933216 0.008927 0.359206
vn -0.790803 0.611907 -0.014145
vn -0.790803 0.611907 -0.014145
vn -0.790803 0.611907 -0.014145
vn -1.000000 -0.000285 -0.000402
vn -1.000000 -0.000125 -0.000460
vn 0.000000 1.000000 -0.000001
vn 0.000000 1.000000 -0.000000
vn 0.000000 1.000000 -0.000000
vn 0.000000 1.000000 0.000000
vn 0.000000 1.000000 0.000001
vn 0.000000 1.000000 0.000000
vn -0.000001 -0.000002 1.000000
vn -0.000000 -0.000001 1.000000
vn -0.000000 -0.000001 1.000000
vn 1.000000 0.000000 0.000000
vn 1.000000 -0.000000 0.000000
vn 1.000000 -0.000000 0.000000
vn 1.000000 -0.000000 0.000000
vn 1.000000 0.000000 0.000000
vn -0.975538 0.056385 -0.212475
vn -0.999686 0.000000 -0.025075
vn -0.955321 0.030110 -0.294034
vn -0.999188 0.015996 -0.036994
vn 0.000000 0.000000 1.000000
vn 0.000000 0.000000 1.000000
vn 0.000000 0.000000 1.000000
vn 0.000000 0.000000 1.000000
vn 0.000000 0.000000 1.000000
vn 0.000000 0.000000 1.000000
vn 0.000000 0.000000 1.000000
vn 0.000000 0.000000 1.000000
vn 0.000000 0.995451 0.095280
vn 0.000000 0.995451 0.095280
vn 0.000000 0.995451 0.095280
vn -0.998027 0.062742 0.002268
vn -0.998826 0.031996 -0.036363
vn -0.997180 0.000586 -0.075042
vn 0.000737 0.028697 0.999588
vn 0.007042 0.023770 0.999693
vn -0.007129 -0.000837 0.999974
vn -0.011062 -0.015617 0.999817
vn -0.035451 -0.050049 0.998117
vn 0.000000 1.000000 0.000000
vn 0.000000 1.000000 0.000000
vn 0.000000 1.000000 0.000000
vn 0.000000 1.000000 0.000000
vn 0.000001 0.999514 0.031181
vn 0.005705 0.999862 0.015579
vn 0.005705 0.999862 0.015579
vn 0.011408 0.999935 -0.000026
vn -0.061145 0.991448 0.115293
vn -0.173896 0.983856 0.042278
vn -0.173896 0.983856 0.042278
vn -0.283500 0.958455 -0.031502
vn 0.023767 0.985158 0.169997
vn 0.023767 0.985158 0.169997
vn 0.023767 0.985158 0.169997
vn 0.109332 0.994004 -0.001864
vn 0.109332 0.994004 -0.001864
vn 0.109332 0.994004 -0.001864
vn -0.000001 0.999597 -0.028395
vn -0.002042 0.999998 -0.000431
vn -0.004085 0.999991 -0.000862
vn -0.004083 0.999903 0.013337
vn 0.000000 1.000000 0.000000
vn 0.000000 1.000000 0.000000
vn 0.959102 0.014573 -0.282684
vn 0.999700 0.015029 -0.019356
vn 0.999699 0.015225 -0.019248
vn -0.083718 0.334706 0.938597
vn 0.007827 0.999958 -0.004738
vn 0.017625 0.999845 0.000000
vn -0.998680 0.051360 0.000000
vn -0.997985 0.062892 0.008350
vn -0.894145 0.087696 -0.439106
f 29/32/1 28/31/2 30/33/3
f 30/33/3 28/31/2 31/34/4
f 97/88/5 95/87/6 98/112/7
f 98/112/7 95/87/6 94/113/8
f 157/249/9 192/296/10 156/248/11
f 156/248/11 192/296/10 191/297/12
f 191/298/13 193/299/14 156/258/15
f 156/258/15 193/299/14 165/257/16
f 166/259/17 165/260/18 194/301/19
f 194/301/19 165/260/18 193/300/20
f 38/38/21 39/149/22 41/40/23
f 41/40/23 39/149/22 186/288/24
f 39/149/22 40/127/25 186/288/24
f 31/34/26 6/178/27 30/33/28
f 30/33/28 6/178/27 25/28/29
f 25/28/30 6/179/31 196/303/32
f 196/303/32 6/179/31 211/322/33
f 25/28/34 26/29/35 30/33/36
f 30/33/36 26/29/35 29/32/37
f 211/322/38 6/179/39 171/140/40
f 93/110/41 35/116/42 186/289/43
f 186/289/43 35/116/42 41/129/44
f 235/360/45 234/357/46 233/348/47
f 234/357/48 235/360/49 57/55/50
f 57/55/50 235/360/49 32/35/51
f 93/110/52 7/111/53 112/105/54
f 112/105/54 7/111/53 111/4/55
f 186/289/56 40/39/57 93/110/58
f 93/110/58 40/39/57 7/117/59
f 7/118/53 210/321/60 111/4/55
f 40/126/61 39/149/62 7/9/63
f 7/9/63 39/149/62 36/125/64
f 36/125/65 236/361/66 7/118/67
f 7/118/67 236/361/66 210/321/68
f 35/116/69 37/37/70 41/128/71
f 41/128/71 37/37/70 38/130/72
f 38/150/73 37/131/74 39/149/75
f 39/149/75 37/131/74 36/125/76
f 37/133/77 35/116/78 235/359/79
f 235/359/79 35/116/78 32/35/80
f 37/133/81 233/347/82 34/36/83
f 37/133/84 235/359/85 233/347/86
f 236/361/87 36/125/88 209/320/89
f 197/304/90 26/29/91 10/12/92
f 196/303/93 195/302/94 25/28/95
f 25/28/95 195/302/94 9/11/96
f 25/28/97 9/11/98 26/29/91
f 26/29/91 9/11/98 10/12/92
f 243/370/99 9/11/100 195/302/101
f 119/166/102 118/218/103 113/211/104
f 113/211/104 118/218/103 96/89/105
f 116/172/106 98/90/107 117/217/108
f 117/217/108 98/90/107 94/86/109
f 119/219/110 249/376/111 117/220/112
f 115/213/113 116/172/114 114/173/115
f 117/217/116 249/377/117 116/172/114
f 116/172/114 249/377/117 114/173/115
f 119/219/118 117/220/119 95/107/120
f 95/107/120 117/220/119 94/109/121
f 118/218/122 119/166/123 97/106/124
f 97/106/124 119/166/123 95/108/125
f 119/219/126 113/211/127 249/376/128
f 249/376/128 113/211/127 114/173/129
f 181/275/130 182/276/131 179/278/132
f 179/278/132 182/276/131 180/277/133
f 187/290/134 188/291/135 174/268/136
f 174/268/136 188/291/135 173/267/137
f 178/272/138 179/273/139 177/271/140
f 177/271/140 179/273/139 180/274/141
f 173/280/142 250/378/143 177/279/144
f 190/295/145 178/272/146 189/294/147
f 177/271/148 250/379/149 178/272/146
f 189/294/147 178/272/146 250/379/149
f 177/279/150 180/283/151 173/280/152
f 173/280/152 180/283/151 182/284/153
f 174/268/154 173/267/155 181/286/156
f 181/286/156 173/267/155 182/285/157
f 188/291/158 187/290/159 176/270/160
f 176/270/160 187/290/159 175/269/161
f 188/292/162 176/270/163 189/293/164
f 189/293/164 176/270/163 183/281/165
f 189/294/166 183/281/167 190/295/168
f 190/295/168 183/281/167 184/282/169
f 173/280/170 188/292/171 250/378/172
f 250/378/172 188/292/171 189/293/173
f 131/167/174 122/138/175 133/119/176
f 133/119/176 122/138/175 123/169/177
f 154/246/178 257/386/179 151/243/180
f 127/205/181 129/164/182 141/231/183
f 129/164/182 125/224/184 141/231/183
f 141/231/183 125/224/184 124/212/185
f 154/246/186 124/212/187 257/386/188
f 257/386/188 124/212/187 125/224/189
f 204/315/190 9/11/191 205/316/192
f 205/316/192 9/11/191 243/370/193
f 12/14/194 260/389/195 137/225/196
f 205/316/197 260/389/198 204/315/199
f 204/315/199 260/389/198 240/366/200
f 260/389/198 12/14/201 240/366/200
f 164/256/202 163/255/203 161/253/204
f 161/253/204 163/255/203 159/251/205
f 164/256/206 161/253/207 162/254/208
f 162/254/208 161/253/207 160/252/209
f 160/252/210 161/253/211 155/247/212
f 155/247/212 161/253/211 159/251/213
f 155/247/214 262/392/215 160/252/216
f 160/252/216 262/392/215 162/254/217
f 169/265/218 170/266/219 193/300/220
f 193/300/220 170/266/219 194/301/221
f 168/261/222 158/250/223 167/262/224
f 167/262/224 158/250/223 155/247/225
f 169/264/226 167/263/227 261/390/228
f 261/390/228 167/263/227 155/247/229
f 192/296/230 168/261/231 191/297/232
f 191/297/232 168/261/231 167/262/233
f 193/299/234 191/298/235 169/264/236
f 169/264/236 191/298/235 167/263/237
f 261/390/238 155/247/239 159/251/240
f 159/251/241 163/255/242 261/391/243
f 170/266/244 169/265/245 163/255/242
f 163/255/242 169/265/245 261/391/243
f 262/392/246 155/247/247 158/250/248
f 101/95/249 248/375/250 104/98/251
f 101/95/252 263/393/253 102/96/254
f 109/103/255 107/101/256 104/98/257
f 104/98/257 107/101/256 101/95/258
f 110/104/259 106/99/260 108/102/261
f 102/96/262 263/393/263 106/99/260
f 108/102/261 106/99/260 263/393/263
f 110/104/264 108/102/265 109/103/266
f 109/103/266 108/102/265 107/101/267
f 100/94/268 101/95/269 3/174/270
f 3/174/270 101/95/269 102/96/271
f 102/96/272 106/99/273 3/93/274
f 3/93/274 106/99/273 105/100/275
f 101/95/276 100/176/277 248/375/278
f 248/375/278 100/176/277 103/97/279
f 101/95/280 107/101/281 263/393/282
f 263/393/282 107/101/281 108/102/283
f 267/397/284 264/394/285 220/333/286
f 220/333/286 264/394/285 221/334/287
f 240/366/288 241/367/289 204/315/290
f 241/367/289 267/397/291 204/315/290
f 267/397/291 220/333/292 204/315/290
f 220/333/292 65/62/293 204/315/290
f 204/315/290 65/62/293 9/11/294
f 241/367/295 240/366/296 218/331/297
f 240/366/296 12/14/298 218/331/297
f 218/331/297 12/14/298 66/63/299
f 264/394/300 267/397/301 219/332/302
f 267/397/301 241/367/303 219/332/302
f 241/367/303 218/331/304 219/332/302
f 245/372/305 145/237/306 244/371/307
f 272/402/308 216/330/309 271/401/310
f 271/401/310 216/330/309 217/329/311
f 271/401/312 215/326/313 272/402/314
f 272/402/314 215/326/313 214/327/315
f 273/404/316 237/362/317 272/403/318
f 272/403/318 237/362/317 216/328/319
f 214/327/320 215/326/321 62/60/322
f 62/60/322 215/326/321 61/59/323
f 15/17/324 62/60/325 16/18/326
f 16/18/326 62/60/325 61/59/327
f 275/406/328 61/59/329 271/401/330
f 271/401/330 61/59/329 215/326/331
f 272/403/332 214/325/333 273/404/334
f 273/404/334 214/325/333 15/17/335
f 214/325/333 62/60/336 15/17/335
f 274/405/337 273/404/338 277/408/339
f 277/408/339 273/404/338 15/17/340
f 277/408/341 15/17/342 136/161/343
f 222/335/344 43/42/345 16/18/346
f 209/320/347 36/125/348 208/319/349
f 208/319/349 36/125/348 33/160/350
f 34/134/83 33/160/351 37/132/81
f 37/132/81 33/160/351 36/125/352
f 237/362/353 207/318/354 206/317/355
f 33/160/356 279/410/357 208/319/358
f 216/328/359 237/362/360 206/317/361
f 216/328/362 206/317/363 63/207/364
f 63/207/364 206/317/363 33/160/365
f 273/404/366 274/405/367 237/362/368
f 237/362/368 274/405/367 207/318/369
f 33/160/370 206/317/371 279/410/372
f 279/410/372 206/317/371 207/318/373
f 56/163/374 34/152/375 234/357/376
f 234/357/376 34/152/375 233/348/377
f 216/330/378 63/208/379 217/329/380
f 217/329/380 63/208/379 56/54/381
f 56/210/382 63/61/383 34/151/384
f 34/151/384 63/61/383 33/160/385
f 271/401/386 217/329/387 275/406/388
f 275/406/388 217/329/387 55/5/389
f 55/5/390 217/329/391 56/54/392
f 10/12/393 9/11/394 54/53/395
f 54/53/395 9/11/394 65/62/396
f 221/334/397 54/53/398 220/333/399
f 220/333/399 54/53/398 65/62/400
f 54/53/401 221/334/402 55/5/403
f 284/415/404 51/49/405 50/50/406
f 287/419/407 288/420/408 286/417/409
f 80/194/410 294/351/411 86/78/412
f 287/419/413 80/194/414 288/420/415
f 80/194/414 86/78/416 288/420/415
f 288/420/415 86/78/416 81/77/417
f 294/351/418 326/465/419 295/350/420
f 326/465/421 327/466/422 295/350/423
f 295/350/423 327/466/422 85/79/424
f 64/64/425 219/332/426 66/63/427
f 66/63/427 219/332/426 218/331/428
f 66/63/429 12/14/430 64/64/431
f 64/64/431 12/14/430 13/15/432
f 219/332/433 64/64/434 264/394/435
f 264/394/435 64/64/434 265/395/436
f 264/394/437 265/395/438 221/334/439
f 221/334/439 265/395/438 55/5/389
f 275/406/388 55/5/389 276/407/440
f 276/407/440 55/5/389 265/395/438
f 47/46/441 229/342/442 13/15/443
f 47/46/444 296/428/445 229/342/446
f 228/341/447 64/64/448 229/342/449
f 229/342/449 64/64/448 13/15/450
f 296/429/451 228/353/452 229/354/453
f 269/399/454 246/373/455 270/400/456
f 270/400/456 246/373/455 247/374/457
f 143/235/458 247/374/459 246/373/460
f 270/400/461 245/372/462 269/399/463
f 269/399/463 245/372/462 244/371/464
f 278/409/465 225/337/466 43/42/467
f 227/352/468 238/363/469 222/335/470
f 227/352/471 212/323/472 238/363/473
f 238/363/473 212/323/472 297/430/474
f 227/340/475 222/335/476 61/59/477
f 61/59/477 222/335/476 16/18/478
f 278/409/479 43/42/480 238/363/481
f 238/363/481 43/42/480 222/335/482
f 270/400/483 247/374/484 266/396/485
f 266/396/485 247/374/484 227/340/486
f 247/374/484 212/349/487 227/340/486
f 266/396/488 276/407/489 228/341/490
f 228/341/490 276/407/489 64/64/434
f 276/407/489 265/395/436 64/64/434
f 266/396/491 228/341/492 270/400/493
f 270/400/493 228/341/492 245/372/494
f 228/341/492 213/324/495 245/372/494
f 276/407/496 266/396/497 275/406/328
f 227/340/498 61/59/329 266/396/497
f 266/396/497 61/59/329 275/406/328
f 269/399/499 268/398/500 246/373/501
f 246/373/501 268/398/500 144/236/502
f 246/373/503 144/236/504 143/235/505
f 42/41/506 297/430/507 14/16/508
f 143/235/509 144/236/510 14/16/511
f 14/16/511 144/236/510 134/204/512
f 143/235/513 14/16/514 247/374/515
f 247/374/515 14/16/514 212/349/516
f 226/339/517 224/338/518 42/41/519
f 42/41/519 224/338/518 278/409/520
f 278/409/520 224/338/518 225/337/521
f 297/430/522 212/323/523 14/16/524
f 42/41/525 278/409/526 297/430/527
f 297/430/527 278/409/526 238/363/528
f 45/44/529 225/337/530 223/336/531
f 223/336/531 225/337/530 224/338/532
f 44/43/533 239/365/534 185/287/535
f 45/44/536 44/43/537 225/337/538
f 225/337/538 44/43/537 43/42/539
f 44/43/540 185/287/541 15/17/542
f 15/17/542 185/287/541 136/161/543
f 44/43/544 15/17/545 43/42/345
f 43/42/345 15/17/545 16/18/346
f 121/170/546 132/137/547 302/436/548
f 132/137/547 133/119/549 302/436/548
f 302/436/548 133/119/549 255/384/550
f 255/384/550 133/119/549 254/383/551
f 133/119/549 123/169/552 254/383/551
f 251/380/553 255/384/554 254/383/555
f 251/380/556 122/138/557 252/381/558
f 252/381/558 122/138/557 131/167/559
f 253/382/560 251/380/561 252/381/562
f 254/383/563 123/169/564 251/380/565
f 251/380/565 123/169/564 122/138/566
f 303/438/567 251/380/568 304/437/569
f 304/437/569 251/380/568 253/382/570
f 302/436/571 255/384/572 303/438/573
f 303/438/573 255/384/572 251/380/574
f 305/439/575 304/437/576 253/382/577
f 44/43/578 142/233/579 239/365/580
f 239/365/580 142/233/579 130/234/581
f 307/440/582 303/438/583 304/437/584
f 306/441/585 307/440/586 305/439/587
f 305/439/587 307/440/586 304/437/588
f 4/6/589 223/336/590 42/41/591
f 223/336/590 224/338/592 42/41/591
f 224/338/592 226/339/593 42/41/591
f 14/16/594 134/204/595 42/41/596
f 134/204/595 298/431/597 42/41/596
f 42/41/596 298/431/597 4/6/598
f 4/6/599 298/431/600 242/369/601
f 242/369/601 298/431/600 1/3/602
f 303/438/603 1/3/604 302/436/605
f 302/436/605 1/3/604 121/170/606
f 299/432/607 4/6/608 300/434/609
f 300/434/609 4/6/608 242/369/610
f 299/432/611 223/336/612 4/6/613
f 299/432/614 142/233/615 223/336/616
f 223/336/616 142/233/615 45/44/617
f 45/44/617 142/233/615 44/43/618
f 299/432/619 300/434/620 142/233/621
f 142/233/621 300/434/620 130/234/622
f 307/440/623 306/441/624 301/435/625
f 301/435/625 306/441/624 130/168/626
f 307/440/627 301/435/628 303/438/629
f 303/438/629 301/435/628 1/3/630
f 300/433/631 301/435/632 130/168/633
f 242/368/634 301/435/635 300/433/636
f 301/435/637 242/368/638 1/3/639
f 23/123/640 77/72/641 198/307/642
f 77/72/641 308/442/643 198/307/642
f 198/307/642 308/442/643 18/144/644
f 198/305/642 199/306/645 23/123/640
f 23/123/640 199/306/645 58/146/646
f 199/306/647 198/305/642 59/162/648
f 59/162/648 198/305/642 18/22/644
f 57/148/649 32/35/650 58/56/651
f 58/56/651 32/35/650 23/123/652
f 59/57/653 18/142/654 60/215/655
f 60/215/655 18/142/654 20/201/656
f 56/209/657 234/358/658 60/58/659
f 234/358/658 57/147/660 60/58/659
f 57/147/660 58/145/661 60/58/659
f 58/145/661 199/308/662 60/58/659
f 60/58/659 199/308/662 59/214/663
f 93/110/664 112/105/665 35/116/666
f 112/105/665 24/27/667 35/116/666
f 35/116/666 24/27/667 32/35/668
f 24/27/667 23/123/669 32/35/668
f 71/122/670 24/115/671 289/421/672
f 24/115/671 88/81/673 289/421/672
f 289/421/672 88/81/673 291/425/674
f 88/81/673 82/135/675 291/425/674
f 71/67/670 77/124/676 24/114/671
f 24/114/671 77/124/676 23/123/677
f 79/189/678 324/463/679 69/196/680
f 69/196/680 324/463/679 325/464/681
f 292/427/682 79/189/683 83/193/684
f 292/427/685 324/463/686 79/189/687
f 89/82/688 79/76/689 90/83/690
f 90/83/690 79/76/689 80/75/691
f 79/188/692 69/65/693 80/194/694
f 80/194/694 69/65/693 70/66/695
f 67/154/696 308/443/697 71/120/698
f 71/120/698 308/443/697 77/141/699
f 290/422/700 67/153/701 289/423/702
f 289/423/702 67/153/701 71/121/703
f 291/426/704 290/422/705 289/423/706
f 291/426/707 82/157/708 290/422/709
f 82/157/708 83/192/710 290/422/709
f 290/422/709 83/192/710 79/190/711
f 89/82/712 90/83/713 92/182/714
f 92/182/714 90/83/713 91/184/715
f 79/191/716 89/183/717 290/424/718
f 89/183/717 92/85/719 290/424/718
f 290/424/718 92/85/719 67/21/720
f 68/187/721 91/184/722 287/418/723
f 91/184/722 90/83/724 287/418/723
f 287/418/723 90/83/724 80/75/725
f 18/143/726 74/159/727 20/23/728
f 20/23/728 74/159/727 76/70/729
f 92/181/730 91/84/731 309/444/732
f 309/444/732 91/84/731 311/447/733
f 74/71/734 308/443/735 309/445/736
f 309/445/736 308/443/735 67/155/737
f 18/144/738 308/442/739 74/158/740
f 92/181/741 309/444/742 67/156/743
f 311/447/744 91/84/745 68/19/746
f 283/414/747 285/416/748 284/415/749
f 284/415/749 285/416/748 51/49/750
f 54/53/751 285/416/752 53/52/753
f 53/52/753 285/416/752 52/51/754
f 285/416/752 283/414/755 52/51/754
f 284/415/756 282/413/757 283/414/758
f 282/413/759 284/415/760 17/74/761
f 17/74/761 284/415/760 50/50/762
f 145/237/763 245/372/764 11/13/765
f 11/13/765 245/372/764 213/324/766
f 48/47/767 47/46/768 231/344/769
f 231/344/769 47/46/768 230/343/770
f 228/353/771 296/429/772 213/356/773
f 213/356/773 296/429/772 11/355/774
f 47/46/775 48/47/776 296/428/777
f 296/428/777 48/47/776 11/13/778
f 49/216/779 232/346/780 230/343/781
f 230/343/781 232/346/780 231/344/782
f 138/226/783 313/450/784 46/221/785
f 46/221/785 313/450/784 140/229/786
f 47/46/787 46/223/788 230/343/789
f 230/343/789 46/223/788 49/216/790
f 46/221/791 259/388/792 138/226/793
f 13/15/443 12/14/794 47/46/441
f 47/46/441 12/14/794 46/222/795
f 46/221/796 12/14/797 259/388/798
f 259/388/798 12/14/797 137/225/799
f 146/238/800 244/371/801 145/237/802
f 269/399/803 244/371/804 268/398/805
f 268/398/805 244/371/804 146/238/806
f 145/237/807 11/13/808 146/238/809
f 146/238/809 11/13/808 135/171/810
f 232/345/811 5/7/812 231/344/813
f 231/344/813 5/7/812 48/47/814
f 232/345/815 49/48/816 315/453/817
f 315/453/817 49/48/816 140/228/818
f 49/48/816 46/45/819 140/228/818
f 314/451/820 315/452/821 313/450/822
f 313/450/822 315/452/821 140/229/823
f 232/345/824 315/453/825 5/165/826
f 150/242/827 258/387/828 147/239/829
f 258/387/830 150/242/831 151/243/832
f 151/243/832 150/242/831 154/246/833
f 150/242/834 147/239/835 317/455/836
f 317/455/836 147/239/835 120/139/837
f 316/454/838 317/455/839 120/139/840
f 317/455/841 316/454/842 318/456/843
f 318/456/843 316/454/842 2/2/844
f 317/455/845 318/456/846 150/242/847
f 129/164/848 128/136/849 125/224/850
f 120/139/851 147/239/852 128/136/849
f 257/386/853 125/224/850 151/243/854
f 125/224/850 128/136/849 151/243/854
f 258/387/855 151/243/854 147/239/852
f 147/239/852 151/243/854 128/136/849
f 256/385/856 127/205/857 153/244/858
f 153/244/858 127/205/857 141/231/859
f 256/385/860 153/244/861 152/245/862
f 153/244/863 141/231/864 154/246/865
f 154/246/865 141/231/864 124/212/866
f 313/450/867 138/226/868 126/230/869
f 153/244/870 148/240/871 152/245/872
f 152/245/872 148/240/871 319/457/873
f 154/246/874 150/242/875 153/244/876
f 153/244/876 150/242/875 148/240/877
f 148/240/878 139/232/879 149/241/880
f 149/241/880 139/232/879 126/206/881
f 139/227/882 5/7/883 314/451/884
f 314/451/884 5/7/883 315/452/885
f 314/451/886 313/450/887 139/227/888
f 139/227/888 313/450/887 126/230/889
f 139/232/890 148/240/891 318/456/892
f 318/456/892 148/240/891 150/242/893
f 135/171/894 11/13/895 2/2/896
f 11/13/895 48/47/897 2/2/896
f 48/47/897 5/7/898 2/2/896
f 2/2/896 5/7/898 139/227/899
f 139/232/900 318/456/901 2/2/902
f 319/457/903 148/240/904 149/241/905
f 321/458/906 320/459/907 19/24/908
f 19/24/908 320/459/907 75/69/909
f 281/412/910 201/309/911 321/460/912
f 321/460/912 201/309/911 200/310/913
f 281/412/914 280/411/915 201/309/916
f 321/460/906 19/24/908 281/412/917
f 281/412/917 19/24/908 51/49/918
f 280/411/919 281/412/920 51/49/921
f 285/416/922 280/411/923 51/49/924
f 285/416/925 54/53/401 280/411/926
f 280/411/926 54/53/401 55/5/403
f 76/200/927 202/312/928 20/203/929
f 20/203/929 202/312/928 200/311/930
f 201/309/931 60/58/932 200/310/930
f 200/310/930 60/58/932 20/202/929
f 280/411/933 60/58/934 201/309/935
f 60/58/936 280/411/937 56/209/392
f 56/209/392 280/411/937 55/5/390
f 19/24/938 17/74/939 51/49/940
f 51/49/940 17/74/939 50/50/941
f 203/313/942 73/199/943 320/459/944
f 320/459/944 73/199/943 75/69/945
f 17/74/939 19/24/938 73/199/946
f 73/199/946 19/24/938 75/69/947
f 202/312/948 76/200/949 203/313/950
f 203/313/950 76/200/949 74/197/951
f 74/198/952 309/445/953 203/314/954
f 309/445/953 311/448/955 203/314/954
f 203/314/954 311/448/955 73/20/956
f 310/446/957 17/74/958 73/199/959
f 73/20/960 311/448/961 310/446/962
f 310/446/962 311/448/961 68/185/963
f 321/458/912 200/311/913 320/459/964
f 320/459/964 200/311/913 202/312/965
f 203/313/966 320/459/967 202/312/968
f 27/30/969 28/31/970 26/29/35
f 26/29/35 28/31/970 29/32/37
f 27/30/971 26/29/972 8/10/973
f 8/10/973 26/29/972 197/304/974
f 99/177/975 172/175/976 6/180/39
f 6/180/39 172/175/976 171/1/40
f 27/30/977 99/91/978 28/31/979
f 28/31/979 99/91/978 31/34/26
f 99/91/978 6/8/27 31/34/26
f 10/12/980 54/53/981 197/304/982
f 54/53/981 53/52/983 197/304/982
f 197/304/982 53/52/983 8/10/984
f 328/467/985 21/25/986 286/417/987
f 286/417/987 21/25/986 72/68/988
f 22/26/989 8/10/990 52/51/991
f 52/51/991 8/10/990 53/52/992
f 282/413/993 22/26/994 283/414/995
f 283/414/995 22/26/994 52/51/996
f 322/461/997 8/10/998 22/26/999
f 78/73/1000 72/68/988 312/470/1001
f 312/470/1001 72/68/988 323/472/1002
f 72/68/988 21/25/986 323/472/1002
f 17/74/1003 310/446/1004 282/413/1005
f 310/446/1004 78/73/1006 282/413/1005
f 282/413/1005 78/73/1006 312/471/1007
f 287/419/1008 286/417/1009 68/186/1010
f 68/186/1010 286/417/1009 72/68/1011
f 68/185/1012 72/68/1013 310/446/1014
f 310/446/1014 72/68/1013 78/73/1015
f 322/461/1016 22/26/1017 323/462/1018
f 323/462/1018 22/26/1017 312/469/1019
f 282/413/1020 312/449/1021 22/26/1022
f 322/461/1023 323/462/1024 21/468/1025
f 21/468/1026 172/92/1027 322/461/1028
f 322/461/1028 172/92/1027 8/10/1029
f 8/10/1029 172/92/1027 27/30/1030
f 172/92/1027 99/91/1031 27/30/1030
f 293/364/1032 324/463/686 292/427/685
f 324/463/679 293/364/1033 325/464/681
f 325/464/681 293/364/1033 84/195/1034
f 80/194/1035 326/465/419 294/351/418
f 327/466/422 326/465/421 70/66/1036
f 70/66/1036 326/465/421 80/194/1037
f 87/80/1038 328/467/985 81/77/1039
f 81/77/1039 328/467/985 288/420/1040
f 288/420/1040 328/467/985 286/417/987
