# This file uses centimeters as units for non-parametric coordinates.

v 7.882685 3.729667 4.043545
v -7.873287 3.729667 4.043545
v -7.881812 2.492696 -7.552843
v 7.091739 3.729667 3.025471
v -7.130014 3.729667 2.982051
v -7.152874 3.729667 -6.987768
v 7.107234 3.729667 -6.987754
v -4.491547 3.729667 -6.990199
v -7.152874 3.729667 -4.754732
v -4.491547 3.729667 -4.701020
v -4.491547 3.729667 3.037220
v -7.153074 3.729667 0.472800
v -4.491547 3.729667 0.472801
v 4.520669 3.729667 3.027595
v 7.095509 3.729667 0.472788
v 4.520671 3.729667 0.472786
v -1.800023 3.691188 -6.990199
v 1.795277 3.729667 -6.990191
v -1.798056 3.729667 -6.360115
v 1.794623 3.729667 -6.360007
v -3.298498 3.729667 -7.552931
v -3.360224 3.729667 -6.990199
v 3.361353 3.729667 -6.990189
v 3.357343 3.729667 -7.553057
v -7.152873 3.741938 -5.659753
v -5.175358 3.729667 -5.657753
v -5.174823 3.729667 -6.987767
v -5.174686 3.252243 -6.987768
v -5.175375 3.252243 -5.656481
v -7.152874 3.252243 -5.660883
v -7.152873 3.252243 -6.987768
v 4.520634 3.729667 -6.990187
v 7.104055 3.729667 -4.418088
v 4.520638 3.729667 -4.481454
v 5.367535 3.729667 -6.987755
v 7.104937 3.729667 -5.356770
v 5.367535 3.729667 -5.312281
v 5.367535 3.256797 -5.245994
v 7.106376 3.256797 -5.359354
v 7.107277 3.256797 -6.987753
v 5.367535 3.256797 -6.987759
v 5.367533 3.729667 3.027597
v 5.367533 3.729667 1.359137
v 7.091880 3.729667 1.359137
v 7.091694 3.255203 1.359137
v -7.153244 3.729667 1.359137
v -5.167983 3.729667 1.359137
v -5.168046 3.729667 3.035128
v -7.153244 3.253412 1.359137
v -1.799636 2.699397 -6.990199
v -1.798056 2.699397 -6.360115
v -3.380224 2.699397 -6.990199
v -4.491547 2.699397 -6.990199
v -4.491547 2.699397 -4.701020
v 0.031675 2.699397 -1.936406
v 4.520638 2.699397 -4.481454
v 4.520634 2.699397 -6.990187
v 3.424299 2.699397 -6.990189
v 1.795277 2.699397 -6.990191
v 1.794623 2.699397 -6.360007
v 4.520671 2.699397 0.472786
v 7.095509 2.743109 0.472788
v 7.104055 2.699397 -4.418088
v -4.491547 2.699397 0.472801
v -7.152874 2.699397 -4.754732
v -7.153074 2.699397 0.472800
v 1.796020 4.387982 -7.553029
v -1.799996 4.387982 -7.552960
v 1.748808 4.387982 -10.608150
v -1.799996 4.387982 -10.608082
v 3.357343 4.387982 -7.553057
v -3.298498 4.387982 -7.552931
v -1.799636 4.387982 -6.990199
v 1.792296 4.392792 -6.962359
v -1.798056 4.387982 -6.360115
v 1.794623 4.387982 -6.360007
v 3.349356 4.363989 -6.988915
v -3.297219 4.387982 -6.990199
v 1.796020 4.387982 -9.288826
v -1.799996 4.387982 -9.288838
v -3.264642 4.387982 -9.289370
v 3.323994 4.387982 -9.288853
v 2.694643 4.387982 -9.288939
v 2.669320 3.699197 -10.608166
v -2.491008 3.822153 -10.604797
v -2.428499 4.387982 -9.289330
v -3.298498 3.729667 -9.301160
v 3.357343 3.729667 -9.288851
v 1.796020 3.954619 -9.288826
v -1.799996 3.954619 -9.288838
v -1.799996 3.954619 -7.552960
v 1.796020 3.954619 -7.553029
v 6.443755 3.729667 -6.987754
v 7.998366 7.484284 -7.553146
v 6.432419 7.484284 -7.553118
v 6.432392 2.873559 -8.932354
v 6.432392 7.346946 -9.016756
v 7.998366 7.346946 -8.996483
v -6.282765 3.729667 -6.987768
v -6.329286 2.492696 -7.552874
v -6.329286 4.510715 -7.552875
v -7.881812 4.510715 -7.552844
v -6.329286 2.492696 -8.943695
v -7.881838 2.492695 -8.980952
v -7.881838 4.510715 -8.980952
v -6.329286 7.715894 -7.552875
v -7.881812 7.715894 -7.552844
v -6.329286 7.715894 -8.965245
v -7.881838 7.715893 -8.980952
v 7.998366 3.729667 -7.553146
v 6.432419 3.729667 -7.553118
v 6.432419 3.272681 -7.553118
v 7.998366 3.283581 -7.553146
v 7.998366 2.878682 -8.942639
v 7.998366 4.366737 -8.970868
v 7.951203 4.561748 -7.553146
v 6.432392 4.481849 -9.016756
v 6.432419 4.568642 -7.553118
v -8.990291 3.729667 4.043545
v 9.903090 3.729667 4.043545
v 7.882685 8.192996 4.043545
v 9.903090 8.192996 4.043545
v -7.873287 7.135142 4.043545
v -8.990291 7.135142 4.043545
v -7.873845 3.729667 2.291613
v -7.873287 7.135142 2.515661
v -8.990291 3.729667 2.312722
v -8.990291 7.135142 2.501857
v 7.890293 3.762365 2.519852
v 7.882685 8.192996 2.521399
v 9.903090 3.729667 2.620635
v 9.903090 8.192996 2.620635
v 4.539958 3.729667 4.043545
v -4.474869 3.729667 4.043545
v 7.920883 3.729667 0.476926
v -7.876065 3.729667 0.472338
v -7.875546 3.729667 1.344848
v -7.873670 3.729667 2.989143
v -7.153244 3.729667 2.289526
v -7.873287 7.135142 3.142573
v 7.091782 3.743004 2.502948
v 2.832272 3.770618 3.036501
v 2.846185 3.729667 4.043545
v -2.645066 3.698021 3.036907
v -2.662763 3.729667 4.043545
v -7.873562 4.807617 3.032736
v -7.853860 4.814873 2.341805
v -7.899276 4.819120 4.058689
v -8.990291 5.948081 4.043545
v -7.873503 5.924641 2.429002
v -7.873431 5.924543 3.085088
v -7.873287 5.924400 4.043545
v -7.991400 5.242864 -1.642267
v -7.991400 -0.429598 -1.642267
v -7.991400 -0.429598 -2.851128
v -7.984425 5.242864 -2.856086
v -9.578743 5.246381 -1.619232
v -7.991400 7.533692 -1.642267
v -9.543925 7.533692 -1.642237
v -7.991400 7.533692 -2.851129
v -9.543953 5.242864 -2.919003
v -9.543953 7.533692 -2.919003
v -9.543925 -0.427529 -1.642236
v -9.543953 -0.427529 -3.070345
v -7.991400 3.975168 -1.642267
v -7.991400 3.955108 -2.851129
v -9.543925 3.992217 -1.642237
v -9.543953 3.904228 -2.919003
v -7.881812 3.729667 -7.552843
v -6.329286 3.729667 -7.552874
v 8.050526 5.423144 -2.721391
v 8.050500 5.336351 -4.100634
v 8.050500 -1.337962 -4.100634
v 8.050526 -1.297055 -2.721391
v 9.616473 5.416250 -2.721421
v 9.616473 5.221239 -4.062900
v 9.616473 7.346946 -4.088515
v 9.616473 7.484284 -2.721421
v 8.050500 7.346946 -4.100634
v 8.050526 7.484284 -2.721391
v 9.616473 -1.522858 -2.721421
v 9.616473 -1.564357 -4.034669
v 7.906002 3.762365 1.347526
v 6.417648 3.256797 -6.987755
v 8.050500 3.068637 -4.100634
v 8.050526 3.426611 -2.721391
v 9.616473 1.389312 -2.721421
v 9.616473 0.947734 -4.036423
v -7.991400 3.005570 -1.642267
v -7.991400 3.006780 -2.851128
v -9.543925 1.462252 -1.642236
v -9.543953 1.412012 -3.070345
v -7.879806 3.747656 -4.783421
v -7.880236 3.729667 -5.666792
v -4.491547 3.729667 -5.633362
v 2.808602 3.729667 -6.990189
v 2.830542 2.699397 -6.990189
v -0.021836 3.723667 -6.336128
v -0.022511 2.699397 -6.305615
v -0.024694 4.387982 -6.360062
v -0.014158 4.387982 -6.949100
v -7.152964 3.729667 -2.552131
v -7.878108 3.729667 -2.577348
v 7.100245 3.729667 -2.441786
v 7.947411 3.729667 -2.438098
v 7.967356 3.729667 -4.440254
v 7.972546 3.729667 -5.344851
v 7.992950 3.729667 -7.017573
v -7.881571 3.729667 -7.046277
v 4.520670 2.699397 3.027530
v -4.491547 2.699397 3.041335
v 7.099664 2.699397 -0.493557
v 4.982976 2.699397 -0.522357
v 7.101779 2.699397 -2.366902
v 4.660264 2.699397 -2.481057
v -7.152969 2.699397 -0.477210
v -5.427639 2.699397 -0.379982
v -7.152927 2.699397 -2.540637
v -4.255241 2.699397 -2.210241
v 4.503103 3.745140 1.337347
v 7.091703 3.255203 3.025340
v 5.366767 3.255203 3.027577
v 5.367477 3.255203 1.359137
v 5.367139 3.255203 3.027587
v 4.520671 2.699397 1.360624
v -4.491547 2.699397 1.364863
v -4.491547 3.729667 1.358878
v -5.214158 3.253412 1.359137
v -5.219502 3.253412 2.998837
v -7.130014 3.253412 2.999110
v 4.530773 3.725140 -5.335225
v 4.520637 2.699397 -5.242651
v 4.492579 3.760684 -5.346955
v 7.973216 3.789922 -5.364972
v 7.021599 3.772339 -2.285420
v 4.547527 3.699282 1.332773
v 7.903161 3.719266 1.371514
v -7.153004 3.729667 -0.752477
v -7.152962 2.699397 -0.829284
v 7.890541 3.753656 3.025336
v -7.857647 3.719510 -4.756711
v -2.638282 3.761339 3.037506
v -2.731688 2.699397 3.041040
v 2.829855 3.707302 3.036114
v 2.865140 2.699397 3.040104
v -6.275027 4.436112 -8.943696
v 7.998366 4.508928 -7.553146
v 9.663751 5.365042 -2.721421
v 7.882685 6.640024 4.043545
v 7.840528 6.630426 2.520857
v 9.903090 6.580809 4.043545
v 9.843759 6.551577 4.024616
v -9.017291 4.842356 4.066971
v -7.877586 3.705475 1.315476
v -7.876079 3.708243 0.451535
v -7.906695 4.526435 -7.544268
v -4.920211 2.699397 -1.122626
v -2.601846 2.699397 -0.533712
v 0.155956 2.699397 1.362677
v -7.152950 2.699397 -1.456715
v -0.026991 3.729667 4.043545
v -0.025417 3.717289 3.036577
v 0.070098 2.699397 3.040571
v 4.803420 2.699397 -1.612171
v 7.100686 2.699397 -1.398216
v 7.047928 3.757138 -1.302866
v 7.937149 3.729667 -1.310491
v 2.562343 2.699397 -0.578226
v 0.124231 2.699397 1.340861
v 7.905101 3.681139 0.423621
v 5.354850 3.727196 1.370078
v 7.951734 3.700663 -4.399696
v -0.013346 2.699397 -5.611865
v -0.056752 2.699397 -6.388803
v -2.332811 3.704881 -6.990199
v -2.342186 2.699397 -6.990199
v -2.473807 2.699397 -5.943876
v -3.298498 4.387982 -8.309849
v -1.799996 4.387982 -8.346247
v -3.248858 4.387982 -8.346867
v 3.357343 4.387982 -8.286863
v 1.796020 4.387982 -8.383383
v 3.332297 4.387982 -8.310476
v 2.693797 4.328145 -9.332967
v 2.693137 3.703966 -9.367384
v -2.427260 4.297904 -9.312666
v -2.448338 3.812488 -9.379963
v -4.518041 3.710585 1.359728
v 4.512897 3.748933 3.027592
v 7.105834 3.729667 4.043545
v 7.077706 3.758749 3.025686
v 7.886803 3.762365 3.025436
v 7.884655 4.014420 3.024487
v 9.873837 5.120974 4.034212
v 7.882685 5.139614 4.043545
v 7.854746 5.114727 2.513518
v 7.865956 5.122975 2.926652
v 1.814734 4.363861 -6.988936
v 1.780833 4.403576 -7.558776
v -1.811915 4.371036 -7.009707
v -1.789872 4.401530 -7.558858
v -3.338344 3.735041 -7.024400
v -7.854155 3.757010 2.313974
v -7.856823 3.756248 2.972708
v -7.135314 3.757010 2.961804
v -7.898515 3.718051 4.094027
v -0.037260 4.370998 -6.392285
v -0.037018 3.718229 -6.392285
v 2.683006 4.387982 -9.366497
v 2.658830 4.387982 -10.608166
v -2.409728 4.398731 -9.347057
v -2.419676 4.386761 -10.608073
v -3.298498 3.729667 -8.377263
v 2.846185 2.278529 4.043545
v -0.026991 2.278529 4.043545
v 4.539958 2.278529 4.043545
v 7.105834 2.278529 4.043545
v 7.882685 2.278529 4.043545
v 9.903090 2.278529 4.043545
v -2.662763 2.278529 4.043545
v -4.474869 2.278529 4.043545
v -7.873287 2.278529 4.043545
v -7.898515 2.266913 4.094027
v -8.990291 2.278529 4.043545
v 3.357343 3.000060 -7.553057
v 3.357343 3.000060 -9.288851
v 6.432419 3.000060 -7.553118
v 7.906002 2.742416 1.347526
v 7.920883 2.709718 0.476926
v 7.967356 2.709718 -4.440254
v 7.972546 2.709718 -5.344851
v 7.992950 2.709718 -7.017573
v 7.998366 2.709718 -7.553146
v 7.973216 2.769972 -5.364972
v 7.890293 2.742416 2.519852
v 7.903161 2.699317 1.371514
v 7.937149 2.709718 -1.310491
v 7.947411 2.709718 -2.438098
v 7.905101 2.661190 0.423621
v 7.951734 2.680713 -4.399696
v -7.875546 2.769282 1.344848
v -7.873845 2.769282 2.291613
v -7.880236 2.769282 -5.666792
v -7.879806 2.787270 -4.783421
v -7.881812 2.769282 -7.552843
v -7.881571 2.769282 -7.046277
v -7.857647 2.759125 -4.756711
v -7.878108 2.769282 -2.577348
v -7.876065 2.769282 0.472338
v -7.877586 2.745089 1.315476
v -7.876079 2.747858 0.451535
v -3.298498 3.187585 -9.301160
v -3.298498 3.187585 -8.377263
v -3.298498 3.187585 -7.552931
v -6.329286 3.187585 -7.552874
v -8.983163 2.764133 2.321394
v 9.930743 2.721613 2.571605
vt 0.279241 0.726738
vt 0.131699 0.381633
vt 0.869639 0.367108
vt 0.733177 0.723351
vt 0.500065 0.515888
vt 0.817593 0.396202
vt 0.183890 0.406241
vt 0.298860 0.717082
vt 0.714296 0.710716
vt 0.374977 0.716669
vt 0.273607 0.655233
vt 0.358146 0.652270
vt 0.304090 0.404574
vt 0.225261 0.523167
vt 0.332344 0.520636
vt 0.703899 0.396882
vt 0.774920 0.511779
vt 0.674034 0.512199
vt 0.447909 0.782688
vt 0.446503 0.775729
vt 0.552648 0.782921
vt 0.550235 0.712350
vt 0.548740 0.707601
vt 0.447178 0.708010
vt 0.390915 0.785164
vt 0.396647 0.716509
vt 0.606262 0.723095
vt 0.281562 0.670467
vt 0.335014 0.668180
vt 0.348292 0.716374
vt 0.339531 0.688121
vt 0.334609 0.656636
vt 0.289868 0.657259
vt 0.301720 0.688233
vt 0.633923 0.711389
vt 0.647848 0.648642
vt 0.669767 0.662874
vt 0.670980 0.653823
vt 0.708839 0.682249
vt 0.665266 0.682965
vt 0.740985 0.397279
vt 0.714774 0.493660
vt 0.784231 0.493676
vt 0.781225 0.450880
vt 0.218730 0.502182
vt 0.292354 0.501030
vt 0.262295 0.405413
vt 0.223667 0.464466
vt 0.448278 0.646268
vt 0.446911 0.658257
vt 0.397140 0.659633
vt 0.376566 0.659986
vt 0.360923 0.591657
vt 0.644008 0.586354
vt 0.633609 0.655389
vt 0.601755 0.655915
vt 0.547772 0.656013
vt 0.546189 0.642046
vt 0.669360 0.440303
vt 0.770293 0.446370
vt 0.726700 0.584014
vt 0.277203 0.592556
vt 0.232604 0.444580
vt 0.336539 0.445488
vt 0.552915 0.827499
vt 0.452409 0.829485
vt 0.602296 0.781649
vt 0.397307 0.784720
vt 0.446776 0.764362
vt 0.549652 0.762768
vt 0.551565 0.774958
vt 0.602587 0.773584
vt 0.396066 0.777513
vt 0.446207 0.715468
vt 0.450624 0.813434
vt 0.552347 0.811821
vt 0.406286 0.814109
vt 0.435125 0.813670
vt 0.441023 0.829507
vt 0.397515 0.812949
vt 0.599717 0.737282
vt 0.552584 0.784452
vt 0.454406 0.786745
vt 0.454279 0.784804
vt 0.553442 0.780676
vt 0.743280 0.908165
vt 0.693800 0.908283
vt 0.689269 0.923114
vt 0.683867 0.742766
vt 0.736800 0.922181
vt 0.313974 0.716866
vt 0.319018 0.727571
vt 0.280378 0.731067
vt 0.320380 0.731394
vt 0.320085 0.788473
vt 0.274817 0.789383
vt 0.327764 0.743339
vt 0.291113 0.801347
vt 0.289019 0.744366
vt 0.313620 0.912977
vt 0.268079 0.915035
vt 0.322340 0.924713
vt 0.278439 0.926749
vt 0.683448 0.722985
vt 0.689269 0.923114
vt 0.693800 0.908283
vt 0.693800 0.908283
vt 0.743280 0.908165
vt 0.687995 0.711615
vt 0.714164 0.710558
vt 0.736800 0.922181
vt 0.743280 0.908165
vt 0.603584 0.724424
vt 0.603584 0.724424
vt 0.658112 0.711132
vt 0.714296 0.710716
vt 0.714164 0.710558
vt 0.965099 0.683742
vt 0.602296 0.781649
vt 0.602296 0.781649
vt 0.602296 0.781649
vt 0.602040 0.711560
vt 0.602587 0.773584
vt 0.726223 0.661924
vt 0.708839 0.682249
vt 0.708839 0.682249
vt 0.665266 0.682965
vt 0.665266 0.682965
vt 0.670980 0.653823
vt 0.669767 0.662874
vt 0.669767 0.662874
vt 0.669767 0.662874
vt 0.647848 0.648642
vt 0.599848 0.809611
vt 0.091889 0.405338
vt 0.920114 0.426139
vt 0.904134 0.649085
vt 0.049512 0.383639
vt 0.279241 0.726738
vt 0.602587 0.773584
vt 0.550235 0.712350
vt 0.550235 0.712350
vt 0.550235 0.712350
vt 0.601755 0.655915
vt 0.601755 0.655915
vt 0.633609 0.655389
vt 0.633609 0.655389
vt 0.717268 0.654816
vt 0.670980 0.653823
vt 0.647848 0.648642
vt 0.647848 0.648642
vt 0.552648 0.782921
vt 0.552648 0.782921
vt 0.552648 0.782921
vt 0.552648 0.782921
vt 0.599848 0.809611
vt 0.551565 0.774958
vt 0.551565 0.774958
vt 0.731478 0.647564
vt 0.809469 0.512055
vt 0.547772 0.656013
vt 0.644008 0.586354
vt 0.041666 0.697891
vt 0.183546 0.405988
vt 0.690871 0.783636
vt 0.883433 0.686444
vt 0.848903 0.425317
vt 0.988630 0.644779
vt 0.946191 0.369918
vt 0.298155 0.377746
vt 0.729744 0.795611
vt 0.731695 0.732932
vt 0.280378 0.731067
vt 0.319018 0.727571
vt 0.320380 0.731394
vt 0.313974 0.716866
vt 0.298860 0.717082
vt 0.298860 0.717082
vt 0.298860 0.717082
vt 0.553442 0.780676
vt 0.553442 0.780676
vt 0.552584 0.784452
vt 0.454279 0.784804
vt 0.447909 0.782688
vt 0.447909 0.782688
vt 0.447909 0.782688
vt 0.552347 0.811821
vt 0.552347 0.811821
vt 0.552347 0.811821
vt 0.552347 0.811821
vt 0.580631 0.810467
vt 0.580631 0.810467
vt 0.450624 0.813434
vt 0.586206 0.826219
vt 0.552915 0.827499
vt 0.551565 0.774958
vt 0.551565 0.774958
vt 0.446503 0.775729
vt 0.549652 0.762768
vt 0.548740 0.707601
vt 0.548740 0.707601
vt 0.548740 0.707601
vt 0.731019 0.369837
vt 0.114248 0.698347
vt 0.145791 0.443707
vt 0.727225 0.586452
vt 0.726700 0.584014
vt 0.644008 0.586354
vt 0.644008 0.586354
vt 0.690918 0.734262
vt 0.092437 0.658680
vt 0.723033 0.739120
vt 0.547772 0.656013
vt 0.546189 0.642046
vt 0.223667 0.464466
vt 0.736367 0.783926
vt 0.687854 0.784098
vt 0.690871 0.783636
vt 0.736367 0.783926
vt 0.218730 0.502182
vt 0.218730 0.502182
vt 0.218730 0.502182
vt 0.007847 0.659923
vt 0.196011 0.523036
vt 0.187486 0.504090
vt 0.142688 0.408173
vt 0.191414 0.425910
vt 0.191695 0.426117
vt 0.153640 0.430864
vt 0.109658 0.687303
vt 0.141527 0.424925
vt 0.809168 0.426810
vt 0.846061 0.424583
vt 0.621011 0.398562
vt 0.622727 0.371735
vt 0.379318 0.401738
vt 0.376246 0.374713
vt 0.132472 0.499473
vt 0.138071 0.509744
vt 0.115409 0.467446
vt 0.022370 0.563617
vt 0.120493 0.590104
vt 0.126449 0.599854
vt 0.103873 0.560160
vt 0.206763 0.655001
vt 0.215815 0.585198
vt 0.223956 0.607777
vt 0.220015 0.681728
vt 0.146797 0.655659
vt 0.198199 0.810316
vt 0.134305 0.811024
vt 0.211387 0.832641
vt 0.169047 0.678261
vt 0.149552 0.833323
vt 0.161459 0.514456
vt 0.215815 0.585198
vt 0.169197 0.539576
vt 0.161459 0.514456
vt 0.222298 0.641364
vt 0.210491 0.617594
vt 0.210491 0.617594
vt 0.150910 0.617923
vt 0.150910 0.617923
vt 0.165897 0.638565
vt 0.800797 0.718611
vt 0.791089 0.743629
vt 0.778243 0.581984
vt 0.786932 0.570145
vt 0.863810 0.717459
vt 0.854170 0.734265
vt 0.857656 0.819741
vt 0.871110 0.795838
vt 0.796847 0.821428
vt 0.806623 0.797558
vt 0.871110 0.795838
vt 0.857656 0.819741
vt 0.863810 0.717459
vt 0.800797 0.718611
vt 0.840987 0.501587
vt 0.826643 0.510538
vt 0.871110 0.795838
vt 0.806623 0.797558
vt 0.806623 0.797558
vt 0.796847 0.821428
vt 0.817731 0.493638
vt 0.684944 0.682680
vt 0.684944 0.682680
vt 0.779261 0.594788
vt 0.787924 0.580773
vt 0.787924 0.580773
vt 0.842747 0.517448
vt 0.842747 0.517448
vt 0.828353 0.524437
vt 0.223742 0.612125
vt 0.215144 0.589280
vt 0.215144 0.589280
vt 0.160592 0.522961
vt 0.160592 0.522961
vt 0.168979 0.546118
vt 0.247038 0.656308
vt 0.253939 0.671402
vt 0.362201 0.667830
vt 0.584174 0.711927
vt 0.582079 0.655951
vt 0.584174 0.711927
vt 0.582079 0.655951
vt 0.497101 0.644181
vt 0.497233 0.708088
vt 0.497233 0.708088
vt 0.497990 0.763575
vt 0.498118 0.775191
vt 0.498118 0.775191
vt 0.251840 0.595773
vt 0.223884 0.595835
vt 0.750848 0.587021
vt 0.779934 0.586401
vt 0.758925 0.648427
vt 0.754615 0.660967
vt 0.737674 0.710264
vt 0.275374 0.718279
vt 0.685708 0.400241
vt 0.326499 0.403088
vt 0.749351 0.514487
vt 0.674765 0.512409
vt 0.749095 0.513301
vt 0.738692 0.549155
vt 0.659419 0.549303
vt 0.738307 0.547366
vt 0.255936 0.521994
vt 0.331922 0.519720
vt 0.265258 0.552924
vt 0.361886 0.552188
vt 0.678369 0.493765
vt 0.797794 0.395444
vt 0.726873 0.449951
vt 0.742031 0.396911
vt 0.758529 0.349582
vt 0.672448 0.428366
vt 0.334069 0.431884
vt 0.327615 0.501296
vt 0.281609 0.463045
vt 0.263671 0.405511
vt 0.200822 0.406282
vt 0.200822 0.406282
vt 0.644754 0.662030
vt 0.644754 0.662030
vt 0.681662 0.399723
vt 0.435346 0.814262
vt 0.435230 0.813950
vt 0.680643 0.421903
vt 0.328753 0.425331
vt 0.328304 0.433932
vt 0.311840 0.428870
vt 0.315792 0.420755
vt 0.640853 0.607301
vt 0.640853 0.607301
vt 0.643040 0.662318
vt 0.643040 0.662318
vt 0.754059 0.662585
vt 0.752262 0.582599
vt 0.683677 0.492000
vt 0.584988 0.811515
vt 0.817752 0.493164
vt 0.249371 0.592076
vt 0.257527 0.527272
vt 0.859028 0.396894
vt 0.857574 0.396519
vt 0.246848 0.655983
vt 0.379614 0.401917
vt 0.395854 0.402431
vt 0.619351 0.398585
vt 0.616420 0.400341
vt 0.329847 0.803371
vt 0.736134 0.781819
vt 0.736134 0.781819
vt 0.864634 0.714656
vt 0.864634 0.714656
vt 0.892132 0.550974
vt 0.871246 0.592187
vt 0.973301 0.545497
vt 0.972973 0.543372
vt 0.035719 0.475101
vt 0.187891 0.504990
vt 0.196201 0.523533
vt 0.274772 0.790232
vt 0.340971 0.533720
vt 0.404856 0.474899
vt 0.508567 0.430070
vt 0.260217 0.536199
vt 0.494176 0.373288
vt 0.494171 0.400325
vt 0.506270 0.401385
vt 0.666226 0.532937
vt 0.743886 0.529752
vt 0.744204 0.531229
vt 0.760333 0.557371
vt 0.790492 0.555250
vt 0.595505 0.473277
vt 0.507374 0.430586
vt 0.806700 0.512819
vt 0.714638 0.492926
vt 0.759350 0.647170
vt 0.497242 0.622482
vt 0.495338 0.644257
vt 0.428517 0.716075
vt 0.429117 0.658749
vt 0.426362 0.632567
vt 0.400331 0.797531
vt 0.449149 0.796739
vt 0.449149 0.796739
vt 0.400522 0.798157
vt 0.600978 0.793753
vt 0.552969 0.796746
vt 0.600978 0.793753
vt 0.552969 0.796746
vt 0.600935 0.794143
vt 0.600935 0.794143
vt 0.580569 0.810994
vt 0.326924 0.498951
vt 0.327066 0.433551
vt 0.703764 0.397397
vt 0.833251 0.367825
vt 0.817132 0.398234
vt 0.858415 0.398615
vt 0.856877 0.398218
vt 0.861148 0.411956
vt 0.959396 0.455437
vt 0.880536 0.456184
vt 0.865427 0.488330
vt 0.859439 0.504000
vt 0.553495 0.774625
vt 0.553495 0.774625
vt 0.551110 0.782920
vt 0.551110 0.782920
vt 0.446044 0.775739
vt 0.448331 0.782689
vt 0.448331 0.782689
vt 0.398001 0.718655
vt 0.154959 0.430700
vt 0.146088 0.409530
vt 0.184371 0.407466
vt 0.184030 0.407215
vt 0.128392 0.377150
vt 0.496495 0.708093
vt 0.497266 0.763586
vt 0.496495 0.708093
vt 0.580203 0.811410
vt 0.579892 0.826369
vt 0.435619 0.814247
vt 0.441264 0.829507
vt 0.393324 0.797427
vt 0.390915 0.726877
vt 0.398001 0.718655
vt 0.389992 0.778276
vt 0.399484 0.721028
vt 0.622727 0.371735
vt 0.494176 0.373288
vt 0.731019 0.369837
vt 0.622727 0.371735
vt 0.731019 0.369837
vt 0.833251 0.367825
vt 0.869639 0.367108
vt 0.833251 0.367825
vt 0.869639 0.367108
vt 0.946191 0.369918
vt 0.376246 0.374713
vt 0.494176 0.373288
vt 0.298155 0.377746
vt 0.376246 0.374713
vt 0.131699 0.381633
vt 0.128392 0.377150
vt 0.131699 0.381633
vt 0.298155 0.377746
vt 0.049512 0.383639
vt 0.128392 0.377150
vt 0.013306 0.000000
vt 0.124614 0.000000
vt 0.000000 1.000000
vt 0.067039 0.000000
vt 0.650530 0.000000
vt 0.000000 1.000000
vt 0.000000 0.000000
vt 0.776858 0.000000
vt 0.147226 1.000000
vt 0.015230 0.000000
vt 0.772294 0.000000
vt 0.000000 1.000000
vt 0.104670 0.000000
vt 1.000000 0.000000
vt 0.000000 0.815568
vt 0.000000 0.000000
vt 0.228148 0.000000
vt 0.929540 0.574335
vt 1.000000 0.859443
vt 0.801743 1.000000
vt 0.915609 1.000000
vt 0.926660 0.559553
vt 0.114634 0.000000
vt 0.000000 0.529688
vt 0.603584 0.724424
vt 0.599717 0.737282
vt 0.683448 0.722985
vt 0.606262 0.723095
vt 0.817731 0.493638
vt 0.809469 0.512055
vt 0.758925 0.648427
vt 0.754615 0.660967
vt 0.737674 0.710264
vt 0.733177 0.723351
vt 0.754615 0.660967
vt 0.754059 0.662585
vt 0.754059 0.662585
vt 0.737674 0.710264
vt 0.846061 0.424583
vt 0.817752 0.493164
vt 0.817752 0.493164
vt 0.817731 0.493638
vt 0.790492 0.555250
vt 0.779934 0.586401
vt 0.809469 0.512055
vt 0.806700 0.512819
vt 0.806700 0.512819
vt 0.790492 0.555250
vt 0.779934 0.586401
vt 0.759350 0.647170
vt 0.759350 0.647170
vt 0.758925 0.648427
vt 0.187486 0.504090
vt 0.153640 0.430864
vt 0.253939 0.671402
vt 0.247038 0.656308
vt 0.279241 0.726738
vt 0.275374 0.718279
vt 0.275374 0.718279
vt 0.253939 0.671402
vt 0.247038 0.656308
vt 0.246848 0.655983
vt 0.246848 0.655983
vt 0.223884 0.595835
vt 0.196011 0.523036
vt 0.187891 0.504990
vt 0.187891 0.504990
vt 0.187486 0.504090
vt 0.223884 0.595835
vt 0.196201 0.523533
vt 0.196201 0.523533
vt 0.196011 0.523036
vt 0.397515 0.812949
vt 0.393324 0.797427
vt 0.390915 0.726877
vt 0.319018 0.727571
vt 0.393324 0.797427
vt 0.390915 0.785164
vt 0.678175 0.000000
vt 0.997630 0.000000
vt 1.000000 0.336664
vt 0.000000 0.347519
vt 0.523172 0.000000
vt 0.000000 0.480780
vt 0.001292 0.000034
vt 0.000000 0.000000
vt 0.836109 0.000000
vt 0.000000 1.000000
vt 0.432313 0.482947
vt 0.000000 0.000000
vt 1.000000 0.000000
vt 0.000000 0.453213
vt 0.000000 0.000000
vt 1.000000 0.000000
vt 0.286886 0.139460
vt 0.000000 0.000000
vt 1.000000 0.000000
vt 0.349037 0.243707
vt 0.042729 0.000000
vt 0.714534 0.000000
vt 0.000000 1.000000
vt 0.000000 0.000000
vt 0.506098 0.000000
vt 0.489874 1.000000
vt 0.251555 0.513510
vt 0.054152 0.000000
vt 1.000000 0.000000
vt 1.000000 0.736695
vt 0.000000 0.736852
vt 0.483274 0.000000
vt 1.000000 0.000000
vt 0.973770 0.356929
vt 0.000000 0.357089
vt 0.048866 0.000000
vt 1.000000 0.000000
vt 0.542218 0.338289
vt 0.000000 0.338304
vt 0.001995 0.000000
vt 1.000000 0.000000
vt 0.997991 0.679955
vt 0.000000 0.677012
vt 0.000000 0.000000
vt 0.825093 0.000000
vt 0.862912 0.995489
vt 0.005257 1.000000
vt 0.000000 0.000000
vt 0.372903 0.000000
vt 1.000000 0.614530
vt 0.020007 0.611006
vt 0.000000 0.000000
vt 1.000000 0.000000
vt 0.464084 0.456281
vt 0.000000 0.000000
vt 1.000000 0.000000
vt 0.579096 0.493045
vt 0.000000 0.000000
vt 0.557908 0.000000
vt 0.847369 0.992458
vt 0.008981 1.000000
vt 0.000000 0.000000
vt 0.985861 0.000000
vt 0.684843 1.000000
vt 0.000000 0.966684
vt 0.057504 0.000000
vt 1.000000 0.000000
vt 0.000000 0.592815
vt 0.000000 0.000000
vt 1.000000 0.000000
vt 0.035226 0.916703
vn 0.000000 1.000000 0.000000
vn 0.000000 1.000000 0.000000
vn 0.000000 1.000000 0.000000
vn 0.000000 1.000000 0.000000
vn 0.001209 0.995626 -0.093423
vn 0.000604 0.995565 -0.094075
vn 0.000604 0.995565 -0.094075
vn -0.000002 0.995503 -0.094726
vn 1.000000 0.000000 0.000000
vn 1.000000 0.000000 0.000000
vn 1.000000 0.000000 0.000000
vn 1.000000 0.000000 0.000000
vn 0.000020 0.000000 1.000000
vn 0.000020 0.000000 1.000000
vn 0.000020 0.000000 1.000000
vn 0.000020 0.000000 1.000000
vn -1.000000 0.000000 0.000019
vn -1.000000 0.000000 0.000019
vn -1.000000 0.000000 0.000019
vn -1.000000 0.000000 0.000019
vn 0.000000 1.000000 0.000000
vn 0.000000 1.000000 0.000000
vn 0.000000 1.000000 0.000000
vn 0.000000 1.000000 0.000000
vn 0.000000 1.000000 0.000000
vn 0.447214 0.000000 0.894427
vn 0.894427 -0.000000 0.447214
vn 1.000000 -0.000000 0.000000
vn 1.000000 -0.000000 -0.000001
vn -0.016778 0.999817 -0.009238
vn -0.008389 0.999954 -0.004619
vn -0.008389 0.999954 -0.004619
vn 0.000000 1.000000 -0.000000
vn 0.001025 0.002308 -0.999997
vn -0.706370 -0.000215 -0.707843
vn 0.001626 -0.000179 -0.999999
vn -0.706136 -0.001861 -0.708073
vn 0.000000 1.000000 0.000000
vn 0.000000 1.000000 0.000000
vn 0.000000 1.000000 -0.000000
vn -0.000001 -0.000002 1.000000
vn -0.000002 -0.000005 1.000000
vn -0.000002 -0.000005 1.000000
vn -0.000003 -0.000007 1.000000
vn -0.215042 0.089889 0.972459
vn -0.215042 0.089889 0.972459
vn -0.215042 0.089889 0.972459
vn -0.999651 -0.026429 0.000001
vn -0.999876 -0.013216 -0.008536
vn -0.999876 -0.013216 -0.008536
vn -0.999854 0.000000 -0.017071
vn 0.000000 1.000000 -0.000000
vn 0.000000 1.000000 -0.000000
vn 0.000000 1.000000 -0.000000
vn 0.000000 1.000000 0.000000
vn -0.000003 -0.000002 1.000000
vn -0.000001 0.000000 1.000000
vn -0.000001 0.000000 1.000000
vn 0.000000 0.000002 1.000000
vn 0.000000 1.000000 0.000000
vn -1.000000 -0.000092 -0.000553
vn -0.999998 -0.001564 -0.000981
vn -0.999998 -0.001564 -0.000981
vn -0.999994 -0.003037 -0.001408
vn -0.069229 0.997601 -0.000098
vn -0.035255 0.999211 -0.018288
vn -0.035255 0.999211 -0.018288
vn -0.001227 0.999335 -0.036451
vn 1.000000 0.000001 0.000000
vn 1.000000 0.000000 0.000000
vn 1.000000 0.000000 0.000000
vn 1.000000 0.000000 0.000000
vn -0.064428 -0.138534 -0.988260
vn -0.045139 -0.066761 -0.996747
vn -0.045139 -0.066761 -0.996747
vn -0.025598 0.005386 -0.999658
vn 0.035428 0.999372 0.000000
vn 0.017745 0.999798 -0.009438
vn 0.017745 0.999798 -0.009438
vn 0.000054 0.999822 -0.018871
vn -0.001754 0.999997 -0.001788
vn -0.005263 0.999972 -0.005365
vn -0.002632 0.999993 -0.002682
vn -0.027811 0.286209 0.957764
vn -0.027811 0.286209 0.957764
vn -0.027811 0.286209 0.957764
vn -0.013029 0.316854 0.948385
vn -0.013029 0.316854 0.948385
vn -0.013029 0.316854 0.948385
vn 0.000000 1.000000 0.000000
vn 0.002064 0.999988 0.004519
vn 0.000000 1.000000 0.000000
vn -0.016668 0.999654 -0.020349
vn 0.003768 0.999987 -0.003399
vn 0.003768 0.999987 -0.003399
vn 0.024201 0.999615 0.013554
vn 0.006191 0.999889 0.013557
vn 0.003096 0.999972 0.006779
vn -0.011899 0.683380 0.729966
vn -0.011899 0.683380 0.729966
vn -0.011899 0.683380 0.729966
vn -1.000000 0.000000 0.000018
vn -1.000000 0.000000 0.000019
vn -1.000000 0.000000 0.000019
vn -1.000000 0.000001 0.000019
vn 0.999448 0.000285 0.033210
vn 0.999818 -0.007927 0.017375
vn 0.999818 -0.007927 0.017375
vn 0.999869 -0.016136 0.001535
vn 0.000019 0.000017 1.000000
vn 0.000019 0.000017 1.000000
vn 0.000019 0.000017 1.000000
vn 1.000000 0.000001 0.000000
vn 0.971638 0.235292 -0.023599
vn 1.000000 0.000000 0.000000
vn 0.744264 0.664551 -0.066652
vn 0.933880 0.355801 -0.035686
vn 0.000019 0.000000 1.000000
vn 0.000019 -0.000000 1.000000
vn 0.000019 -0.000000 1.000000
vn 0.000018 -0.000000 1.000000
vn -1.000000 0.000000 0.000018
vn -1.000000 0.000000 0.000018
vn -1.000000 0.000000 0.000018
vn -1.000000 0.000000 0.000018
vn 0.000017 0.000000 1.000000
vn 0.000018 0.000000 1.000000
vn 0.000018 0.000000 1.000000
vn 0.000019 0.000000 1.000000
vn 0.000767 0.995079 -0.099084
vn 0.000382 0.995035 -0.099521
vn 0.000382 0.995035 -0.099521
vn -0.000002 0.994992 -0.099957
vn -1.000000 0.000000 0.000019
vn -1.000000 0.000000 0.000019
vn -1.000000 0.000000 0.000019
vn -1.000000 0.000000 0.000019
vn 1.000000 0.000000 0.000000
vn 1.000000 0.000000 0.000000
vn 1.000000 0.000000 0.000000
vn 1.000000 0.000000 0.000000
vn 0.000019 0.000018 1.000000
vn 0.000019 0.000018 1.000000
vn 0.000019 0.000018 1.000000
vn 1.000000 0.000000 0.000000
vn 0.970678 0.235755 -0.046953
vn 0.999838 -0.005943 -0.016976
vn 0.731198 0.675070 -0.098135
vn 0.931418 0.356940 -0.071089
vn 0.000019 0.000000 1.000000
vn 0.000019 0.000000 1.000000
vn 0.000019 0.000000 1.000000
vn 0.000019 0.000000 1.000000
vn -1.000000 0.000000 0.000019
vn -1.000000 0.000000 0.000019
vn -1.000000 0.000000 0.000019
vn -1.000000 0.000000 0.000019
vn -1.000000 0.000000 0.000019
vn -1.000000 0.000000 0.000019
vn -1.000000 0.000000 0.000019
vn -1.000000 0.000000 0.000019
vn 0.000019 0.000000 1.000000
vn 0.000019 0.000000 1.000000
vn 0.000019 0.000000 1.000000
vn 0.000019 0.000000 1.000000
vn 1.000000 0.000000 0.000000
vn 1.000000 -0.000000 0.000000
vn 1.000000 -0.000000 0.000000
vn 1.000000 -0.000000 0.000000
vn 0.000019 0.000000 1.000000
vn 0.000019 -0.000000 1.000000
vn 0.000019 -0.000000 1.000000
vn 0.000019 -0.000000 1.000000
vn 0.000000 1.000000 0.000000
vn 0.000000 1.000000 0.000000
vn 0.000000 1.000000 0.000000
vn 0.000000 1.000000 0.000000
vn -0.000000 0.000000 1.000000
vn -0.000000 0.000000 1.000000
vn -0.000000 0.000000 1.000000
vn 0.000000 0.000000 1.000000
vn 0.000000 1.000000 0.000000
vn 0.000000 1.000000 0.000000
vn 0.000000 1.000000 0.000000
vn 0.000000 1.000000 0.000000
vn 0.000000 1.000000 0.000000
vn 0.000000 1.000000 0.000000
vn -0.007198 0.999971 -0.002398
vn -0.007198 0.999971 -0.002398
vn -0.014396 0.999885 -0.004795
vn 0.000459 0.696642 -0.717419
vn 0.000459 0.696642 -0.717419
vn 0.000459 0.696642 -0.717419
vn -0.000246 0.999975 0.007073
vn -0.019829 0.999801 0.002357
vn -0.014933 0.999882 0.003537
vn -0.029618 0.999561 -0.000001
vn -0.029619 0.999561 -0.000002
vn -1.000000 0.000000 0.000022
vn -0.999883 0.007473 -0.013388
vn -0.999883 0.007473 -0.013388
vn -0.999529 0.014944 -0.026794
vn -0.000000 1.000000 0.000000
vn -0.000000 1.000000 0.000000
vn -0.000000 1.000000 0.000000
vn 0.000000 1.000000 0.000000
vn 0.999979 0.003032 0.005746
vn 0.999995 0.001516 0.002873
vn 0.999995 0.001516 0.002873
vn 1.000000 0.000000 0.000000
vn -1.000000 0.000000 0.000022
vn -1.000000 -0.000001 0.000021
vn -1.000000 -0.000001 0.000021
vn -1.000000 -0.000002 0.000019
vn 0.999985 -0.005415 0.000090
vn 0.999992 -0.002708 0.002918
vn 0.999992 -0.002708 0.002918
vn 0.999984 -0.000000 0.005746
vn 0.000019 0.000000 1.000000
vn 0.007260 -0.002025 0.999972
vn 0.007244 -0.008969 0.999934
vn 0.014502 -0.004051 0.999887
vn 1.000000 0.000000 0.000000
vn 1.000000 0.000000 0.000000
vn 1.000000 0.000000 0.000000
vn 1.000000 0.000000 0.000000
vn 0.000019 0.000000 1.000000
vn 0.000019 0.000000 1.000000
vn 0.000019 0.000000 1.000000
vn 0.000019 0.000000 1.000000
vn 0.007276 0.004918 0.999961
vn 0.000019 0.000000 1.000000
vn -1.000000 0.000000 0.000022
vn -0.999818 -0.013628 -0.013328
vn -0.999818 -0.013628 -0.013328
vn -0.999273 -0.027251 -0.026673
vn 0.000017 -0.478929 0.877854
vn 0.000017 -0.478929 0.877854
vn 0.000017 -0.478929 0.877854
vn 0.999134 0.016779 0.038079
vn 0.999784 0.008391 0.019043
vn 0.999784 0.008391 0.019043
vn 1.000000 0.000000 0.000000
vn -1.000000 0.000000 0.000018
vn -0.949442 -0.313874 -0.006503
vn -0.999955 0.003877 -0.008683
vn -0.534084 -0.845432 0.000010
vn -0.877611 -0.479271 -0.009940
vn -0.000001 1.000000 -0.000001
vn -0.000000 1.000000 -0.000000
vn -0.000000 1.000000 -0.000000
vn 0.000000 1.000000 0.000000
vn 0.000020 0.000000 1.000000
vn 0.000020 0.000000 1.000000
vn 0.000020 0.000000 1.000000
vn 0.000019 0.000000 1.000000
vn -1.000000 -0.000001 0.000018
vn -1.000000 -0.000000 0.000018
vn -1.000000 -0.000000 0.000018
vn -1.000000 0.000000 0.000018
vn 0.999240 0.000000 0.038983
vn 0.999713 -0.013958 0.019497
vn 0.999713 -0.013958 0.019497
vn 0.999611 -0.027909 0.000000
vn 0.005456 0.000000 0.999985
vn 0.002738 0.001344 0.999995
vn 0.002738 0.001344 0.999995
vn 0.000020 0.002689 0.999996
vn 0.000000 1.000000 -0.000000
vn 0.000000 1.000000 -0.000000
vn 0.000000 1.000000 -0.000000
vn 0.000000 1.000000 0.000000
vn 1.000000 0.000039 0.000022
vn 1.000000 0.000037 0.000021
vn 1.000000 0.000029 0.000026
vn 1.000000 0.000036 0.000020
vn 1.000000 0.000036 0.000023
vn 1.000000 0.000018 0.000033
vn 1.000000 0.000000 0.000041
vn 1.000000 0.000039 0.000020
vn 1.000000 0.000044 0.000039
vn 1.000000 0.000029 0.000063
vn 1.000000 0.000024 0.000084
vn 1.000000 0.000000 0.000110
vn 0.000000 1.000000 -0.000000
vn 0.000000 1.000000 -0.000000
vn 0.000000 1.000000 -0.000000
vn 0.000000 1.000000 0.000000
vn 0.000000 1.000000 0.000000
vn 0.553221 -0.051455 -0.831444
vn 0.553221 -0.051455 -0.831444
vn 0.553221 -0.051455 -0.831444
vn 0.000000 1.000000 0.000000
vn 0.000000 1.000000 0.000000
vn 0.000000 1.000000 0.000000
vn 0.000000 1.000000 0.000000
vn 0.000000 1.000000 0.000000
vn 0.000000 1.000000 -0.000000
vn 0.000000 1.000000 -0.000000
vn 0.000000 1.000000 -0.000000
vn -0.998303 -0.052132 0.025944
vn -0.997918 -0.063295 0.012411
vn -0.997918 -0.063295 0.012411
vn -0.997225 -0.074438 -0.001126
vn 0.000615 0.998978 -0.045185
vn -0.008181 0.999614 -0.026541
vn -0.008181 0.999614 -0.026541
vn -0.016973 0.999825 -0.007885
vn 0.000001 0.000000 -1.000000
vn 0.000001 0.000000 -1.000000
vn 0.000001 0.000000 -1.000000
vn 0.000001 0.000000 -1.000000
vn 0.000000 1.000000 0.000000
vn 0.000000 1.000000 0.000000
vn 0.000000 1.000000 0.000000
vn 0.000000 1.000000 0.000000
vn -0.998763 -0.049713 -0.001128
vn -0.999634 -0.026155 0.006970
vn -0.999151 -0.039227 0.012604
vn -0.999836 -0.014367 0.011018
vn -0.999991 0.000000 -0.004300
vn 0.031110 0.999109 0.028534
vn 0.045893 0.998722 0.021178
vn 0.045893 0.998722 0.021178
vn 0.060664 0.998063 0.013815
vn 0.003377 0.738965 -0.673735
vn 0.003377 0.738965 -0.673735
vn 0.003377 0.738965 -0.673735
vn 0.018335 0.999678 -0.017518
vn 0.006112 0.999964 -0.005840
vn 0.009168 0.999920 -0.008760
vn 0.000000 1.000000 0.000000
vn 0.000000 1.000000 0.000000
vn 0.000000 1.000000 0.000000
vn 0.000000 1.000000 0.000000
vn 0.000000 1.000000 0.000000
vn 0.000000 1.000000 0.000000
vn 0.001144 0.964869 -0.262729
vn 0.001144 0.964869 -0.262729
vn 0.001144 0.964869 -0.262729
vn 0.015032 0.810569 0.585450
vn 0.015032 0.810569 0.585450
vn 0.015032 0.810569 0.585450
vn -0.896503 -0.033446 -0.441773
vn -0.896503 -0.033446 -0.441773
vn -0.896503 -0.033446 -0.441773
vn -0.999998 -0.001570 -0.001109
vn -0.999999 -0.000785 -0.001519
vn -0.999999 -0.000785 -0.001519
vn -0.999998 0.000000 -0.001928
vn 0.031000 0.999412 0.014631
vn 0.038558 0.999228 0.007526
vn 0.038558 0.999228 0.007526
vn 0.046111 0.998936 0.000419
vn 0.034195 0.999415 0.000066
vn 0.017133 0.999826 -0.007360
vn 0.017133 0.999826 -0.007360
vn 0.000064 0.999891 -0.014784
vn -1.000000 0.000000 0.000001
vn -0.999973 0.004403 -0.005958
vn -0.999973 0.004403 -0.005958
vn -0.999890 0.008805 -0.011917
vn 0.000000 1.000000 -0.000000
vn 0.000000 1.000000 -0.000000
vn 0.000000 1.000000 -0.000000
vn 0.000000 1.000000 0.000000
vn -0.024520 0.000000 0.999699
vn -0.024520 0.000000 0.999699
vn -0.024520 0.000000 0.999699
vn -0.024520 0.000000 0.999699
vn 0.000000 1.000000 0.000000
vn 0.000000 1.000000 0.000000
vn 0.000000 1.000000 0.000000
vn 0.000000 1.000000 -0.000000
vn 0.000000 1.000000 0.000000
vn 0.000000 1.000000 0.000000
vn 0.000000 1.000000 0.000000
vn -0.020178 0.000000 0.999796
vn -0.020178 0.000000 0.999796
vn -0.020178 0.000000 0.999796
vn -0.020178 0.000000 0.999796
vn 0.000000 1.000000 0.000000
vn 0.000000 1.000000 0.000000
vn 0.000000 1.000000 0.000000
vn 0.000000 1.000000 0.000000
vn 0.000000 1.000000 -0.000000
vn 0.000000 1.000000 0.000000
vn 0.000000 1.000000 0.000000
vn 0.000000 1.000000 0.000000
vn 0.000000 0.707107 0.707107
vn 0.000000 0.447214 0.894427
vn 0.000000 1.000000 -0.000018
vn 0.000000 1.000000 -0.000018
vn 0.000000 1.000000 -0.000018
vn 0.000754 0.250799 -0.968039
vn 0.000754 0.250799 -0.968039
vn 0.000754 0.250799 -0.968039
vn 0.000000 1.000000 0.000000
vn 0.000000 1.000000 0.000000
vn 0.000000 1.000000 0.000000
vn 0.000000 1.000000 0.000000
vn 0.000000 1.000000 0.000000
vn -0.796847 0.314510 0.515867
vn -0.796847 0.314510 0.515867
vn -0.962015 0.078038 -0.261604
vn -0.429506 0.903064 -0.000973
vn -0.858171 0.513164 0.014354
vn -0.995205 0.095441 0.021403
vn -0.991462 0.125466 0.035530
vn 0.000000 1.000000 0.000000
vn 0.000000 1.000000 -0.000000
vn 0.000000 1.000000 -0.000000
vn 0.000000 1.000000 -0.000000
vn 0.000000 0.000000 -1.000000
vn 0.000000 0.000000 -1.000000
vn 0.000000 0.000000 -1.000000
vn 0.000000 0.000000 -1.000000
vn 0.000000 1.000000 -0.000000
vn 0.000000 1.000000 -0.000000
vn 0.000000 1.000000 -0.000000
vn 0.000000 1.000000 0.000000
vn 0.000000 1.000000 -0.000000
vn 0.000000 1.000000 -0.000000
vn 0.000000 1.000000 -0.000000
vn 0.000000 1.000000 0.000000
vn 0.000000 1.000000 0.000000
vn 0.000000 1.000000 0.000000
vn 0.000000 1.000000 0.000000
vn 0.000382 0.043932 0.999034
vn 0.000382 0.043932 0.999034
vn 0.000382 0.043932 0.999034
vn 1.000000 -0.000000 0.000000
vn 1.000000 -0.000000 0.000000
vn 1.000000 -0.000000 0.000000
vn 1.000000 0.000000 0.000000
vn 0.027855 0.005807 0.999595
vn 0.027855 0.005807 0.999595
vn 0.027855 0.005807 0.999595
vn -0.000176 -0.003940 -0.999992
vn -0.000172 -0.003952 -0.999992
vn -0.000172 -0.003952 -0.999992
vn -0.000167 -0.003964 -0.999992
vn 0.136426 0.000849 -0.990650
vn 0.136426 0.000849 -0.990650
vn 0.136426 0.000849 -0.990650
vn -0.000167 -0.003939 -0.999992
vn -0.000289 -0.003616 -0.999993
vn -0.000289 -0.003616 -0.999993
vn -0.000411 -0.003292 -0.999995
vn 0.653206 -0.000078 0.757180
vn 0.653206 -0.000078 0.757180
vn 0.653206 -0.000078 0.757180
vn 0.127079 0.024206 0.991597
vn 0.127079 0.024206 0.991597
vn 0.127079 0.024206 0.991597
vn -0.999640 0.026849 -0.000001
vn -0.999902 0.009725 -0.010108
vn -0.999902 0.009725 -0.010108
vn -0.999768 -0.007402 -0.020211
vn -0.999859 -0.016797 0.000000
vn -0.999913 -0.008399 -0.010159
vn -0.999913 -0.008399 -0.010159
vn -0.999794 0.000000 -0.020316
vn -0.042039 0.983931 0.173533
vn -0.047810 0.592522 0.804134
vn -0.047810 0.592522 0.804134
vn -0.027243 -0.125302 0.991745
vn 0.000000 1.000000 0.000000
vn 0.000000 1.000000 0.000000
vn 0.000000 1.000000 0.000000
vn 0.000000 1.000000 0.000000
vn 0.000000 1.000000 0.000000
vn 0.000000 1.000000 0.000000
vn 0.000000 1.000000 0.000000
vn 0.000000 1.000000 0.000000
vn 0.000000 1.000000 -0.000000
vn 0.000000 1.000000 0.000000
vn 0.000000 1.000000 0.000000
vn 0.000000 1.000000 0.000000
vn 0.000000 1.000000 0.000000
vn 0.000000 1.000000 0.000000
vn 0.000000 1.000000 0.000000
vn 0.000000 1.000000 0.000000
vn 0.003496 0.999918 -0.012286
vn 0.001748 0.999850 -0.017241
vn 0.001748 0.999850 -0.017241
vn 0.000000 0.999754 -0.022196
vn -0.999158 0.038045 0.015351
vn -0.999158 0.038045 0.015351
vn -0.999158 0.038045 0.015351
vn -0.000003 0.000172 1.000000
vn -0.000003 0.000172 1.000000
vn -0.000003 0.000172 1.000000
vn 0.024440 0.998890 0.040281
vn 0.012223 0.999722 0.020146
vn 0.012223 0.999722 0.020146
vn 0.000000 1.000000 -0.000000
vn -0.005360 -0.003528 -0.999979
vn -0.006478 -0.001733 -0.999978
vn -0.006478 -0.001733 -0.999978
vn -0.007595 0.000063 -0.999971
vn 0.028397 0.000000 -0.999597
vn 0.895638 0.011094 -0.444646
vn 0.714405 -0.001120 -0.699732
vn 0.999915 0.012562 -0.003612
vn 0.999642 0.026734 0.000425
vn -0.000517 -0.000063 1.000000
vn -0.000517 -0.000063 1.000000
vn -0.000517 -0.000063 1.000000
vn 0.022537 0.999745 -0.001663
vn -0.005313 0.999861 -0.015811
vn -0.005313 0.999861 -0.015811
vn -0.033158 0.999002 -0.029944
vn 0.000000 1.000000 0.000000
vn 0.000000 1.000000 0.000000
vn 0.000000 1.000000 0.000000
vn 0.000000 1.000000 0.000000
vn -0.007088 0.486677 0.873553
vn -0.007088 0.486677 0.873553
vn -0.007088 0.486677 0.873553
vn 0.000000 0.000000 1.000000
vn 0.000000 0.000000 1.000000
vn 0.000000 0.000000 1.000000
vn 0.000000 0.000000 1.000000
vn -0.040134 0.999194 -0.000164
vn -0.019980 0.999623 -0.018853
vn -0.019980 0.999623 -0.018853
vn 0.000188 0.999296 -0.037528
vn 0.000000 1.000000 0.000000
vn 0.000000 1.000000 0.000000
vn 0.999779 0.021020 0.000000
vn 0.999891 0.010511 0.010346
vn 0.999470 0.014154 0.029310
vn 0.975219 -0.155014 -0.157856
vn 0.879379 -0.327437 -0.345655
vn 0.863732 -0.333475 -0.377839
vn 1.000000 0.000000 0.000000
vn -0.015283 -0.521444 0.853149
vn -0.015283 -0.521444 0.853149
vn -0.015283 -0.521444 0.853149
vn -0.999259 0.026949 0.027495
vn -0.999815 0.013477 0.013750
vn -0.999815 0.013477 0.013750
vn -1.000000 0.000000 0.000000
vn -0.000000 0.000000 1.000000
vn -0.000000 0.000000 1.000000
vn -0.000000 0.000000 1.000000
vn 0.000000 0.000000 1.000000
vn 0.004751 0.006808 0.999966
vn 0.007201 0.003404 0.999968
vn 0.007201 0.003404 0.999968
vn 0.009651 0.000000 0.999953
vn 0.012996 0.999848 -0.011657
vn -0.005215 0.999681 -0.024713
vn -0.005215 0.999681 -0.024713
vn -0.023424 0.999012 -0.037757
vn -0.999571 -0.009395 0.027733
vn -0.999761 -0.004698 0.021356
vn -0.999761 -0.004698 0.021356
vn -0.999888 0.000000 0.014977
vn -0.999582 -0.009508 0.027312
vn -0.999582 -0.009508 0.027312
vn -0.999582 -0.009508 0.027312
vn -0.001233 0.000278 -0.999999
vn -0.001265 0.000162 -0.999999
vn -0.030900 0.000323 -0.999523
vn -0.999907 0.001537 -0.013554
vn -0.028397 -0.000000 0.999597
vn 0.000000 1.000000 0.000000
vn 0.000000 1.000000 0.000000
vn 0.000000 1.000000 -0.000000
vn 0.000000 1.000000 -0.000000
vn 0.000000 1.000000 -0.000001
vn -0.030018 0.999549 0.000416
vn -0.015012 0.999816 0.011987
vn -0.015012 0.999816 0.011987
vn 0.000000 0.999723 0.023553
vn 0.004687 0.000000 0.999989
vn 0.002343 0.003354 0.999992
vn 0.002343 0.003354 0.999992
vn 0.000000 0.006708 0.999978
vn 0.000342 -0.007197 0.999974
vn 0.000424 -0.009238 0.999957
vn 0.000424 -0.009238 0.999957
vn 0.000507 -0.011279 0.999936
vn 0.014713 -0.000279 0.999892
vn 0.014713 -0.000279 0.999892
vn 0.014713 -0.000279 0.999892
vn -0.999275 -0.027758 -0.026072
vn -0.999921 -0.009067 -0.008721
vn -0.999820 -0.013798 -0.013036
vn -1.000000 0.000280 -0.000043
vn -1.000000 0.000394 -0.000090
vn -0.004477 0.999533 -0.030227
vn -0.014359 0.999781 -0.015200
vn -0.014359 0.999781 -0.015200
vn -0.024236 0.999706 -0.000168
vn -0.999520 -0.014442 0.027409
vn -0.999685 -0.020356 0.014681
vn -0.999685 -0.020356 0.014681
vn -0.999653 -0.026265 0.001951
vn -0.999764 -0.015521 0.015206
vn -0.999948 -0.007761 0.006637
vn -0.999948 -0.007761 0.006637
vn -0.999998 0.000000 -0.001933
vn -0.999940 -0.008553 -0.006901
vn -0.999940 -0.008553 -0.006901
vn -0.999940 -0.008553 -0.006901
vn 0.036163 0.004072 0.999338
vn 0.036163 0.004072 0.999338
vn 0.036163 0.004072 0.999338
vn -0.999711 -0.022595 -0.008245
vn -0.999711 -0.022595 -0.008245
vn -0.999711 -0.022595 -0.008245
vn 0.000000 -0.000669 1.000000
vn -0.000006 -0.002001 0.999998
vn -0.000003 -0.000997 1.000000
vn -0.000008 -0.001987 0.999998
vn -0.000002 -0.000989 1.000000
vn 0.000000 0.000000 1.000000
vn 0.000000 0.000000 1.000000
vn -0.000002 -0.000000 1.000000
vn -0.000002 -0.000000 1.000000
vn -0.000001 0.000000 1.000000
vn -0.000001 -0.000000 1.000000
vn -0.000001 -0.000000 1.000000
vn -0.000002 -0.000000 1.000000
vn 1.000000 0.000000 0.001037
vn 1.000000 0.000000 0.001037
vn 1.000000 0.000000 0.001037
vn 1.000000 0.000000 0.001037
vn 0.000000 1.000000 0.000000
vn 0.000000 1.000000 0.000000
vn 0.000000 1.000000 0.000000
vn 0.000000 1.000000 -0.000001
vn 0.000000 1.000000 0.000001
vn 0.000000 1.000000 0.000001
vn 0.000000 1.000000 -0.000000
vn 0.000000 1.000000 0.000000
vn 0.000000 1.000000 -0.000000
vn 0.000000 1.000000 -0.000000
vn 0.000000 1.000000 -0.000000
vn 0.000000 1.000000 -0.000001
vn 0.000000 1.000000 0.000000
vn 0.999975 0.000000 0.007079
vn 0.999987 0.004731 0.001759
vn 0.940576 0.283810 -0.186464
vn 0.934654 0.301408 -0.188611
vn 0.841790 0.457596 -0.286348
vn 0.998684 0.050592 -0.008476
vn 0.999949 0.009463 0.003517
vn 0.999796 0.018924 -0.007123
vn 0.000000 1.000000 0.000000
vn 0.444451 0.895762 -0.008654
vn 0.000000 1.000000 -0.000000
vn 0.888831 0.457911 -0.017210
vn -0.000102 0.592654 -0.805457
vn -0.000102 0.592654 -0.805457
vn -0.000102 0.592654 -0.805457
vn 0.800443 0.396339 0.449674
vn 0.800443 0.396339 0.449674
vn 0.075657 0.497789 0.863992
vn -0.000004 0.000000 1.000000
vn -0.000004 0.000000 1.000000
vn -0.000004 0.000000 1.000000
vn -0.000004 0.000000 1.000000
vn 0.000000 1.000000 -0.000000
vn 0.000000 1.000000 -0.000000
vn 0.000000 1.000000 -0.000000
vn 0.000000 1.000000 0.000000
vn 0.000001 0.999087 0.042723
vn -0.000042 0.999092 0.042607
vn -0.000042 0.999092 0.042607
vn -0.000084 0.999097 0.042491
vn 0.000000 1.000000 0.000000
vn 0.000000 1.000000 0.000000
vn 0.000000 1.000000 0.000000
vn 0.000000 1.000000 0.000000
vn 0.000000 1.000000 -0.000006
vn 0.000000 1.000000 -0.000006
vn 0.000000 1.000000 -0.000006
vn 0.000000 1.000000 0.000000
vn 0.000000 1.000000 0.000001
vn 0.000000 1.000000 0.000001
vn 0.000000 1.000000 0.000001
vn 0.000000 1.000000 0.000000
vn 0.000000 1.000000 0.000000
vn 0.000000 1.000000 0.000000
vn 0.000000 1.000000 0.000000
vn 0.000000 1.000000 0.000000
vn -1.000000 0.000000 0.000000
vn -1.000000 0.000000 0.000000
vn -1.000000 0.000000 0.000000
vn -1.000000 0.000000 0.000000
vn -1.000000 0.000000 0.000000
vn 1.000000 0.000000 0.000000
vn 1.000000 -0.000000 0.000000
vn 1.000000 -0.000000 0.000000
vn 1.000000 -0.000000 0.000000
vn 1.000000 0.000000 0.000000
vn 0.999990 0.004451 0.001037
vn 0.999997 0.002226 -0.001413
vn 0.999997 0.002226 -0.001413
vn 0.999993 0.000000 -0.003863
vn -0.000019 -0.012801 -0.999918
vn 0.000006 -0.012999 -0.999916
vn 0.000006 -0.012999 -0.999916
vn 0.000031 -0.013197 -0.999913
vn 0.788388 0.615165 -0.004031
vn 0.752988 0.658034 0.001065
vn 0.752988 0.658034 0.001065
vn 0.715240 0.698852 0.006159
vn 0.750666 -0.024336 0.660234
vn 0.750666 -0.024336 0.660234
vn 0.750666 -0.024336 0.660234
vn 0.353909 0.000000 -0.935280
vn 0.353909 0.000000 -0.935280
vn 0.353909 0.000000 -0.935280
vn -0.503355 0.000000 -0.864080
vn -0.503355 0.000000 -0.864080
vn -0.503355 0.000000 -0.864080
vn 0.000000 1.000000 0.000000
vn 0.000000 1.000000 0.000000
vn 0.000000 1.000000 0.000000
vn 0.000000 1.000000 0.000000
vn 0.000000 1.000000 0.000000
vn 0.000000 1.000000 0.000000
vn 0.000000 1.000000 0.000000
vn 0.000000 1.000000 0.000000
vn 0.000000 0.000000 1.000000
vn 0.000000 0.000000 1.000000
vn -0.000240 -0.004118 -0.999991
vn -0.000204 -0.004056 -0.999992
vn -0.000204 -0.004056 -0.999992
vn -0.000168 -0.003994 -0.999992
vn -0.994214 0.107419 -0.000038
vn -0.994787 0.101963 -0.001641
vn -0.994787 0.101963 -0.001641
vn -0.995328 0.096502 -0.003244
vn 0.999657 0.026192 0.000000
vn 0.999884 0.013066 -0.007896
vn 0.999884 0.013066 -0.007896
vn 0.999875 -0.000063 -0.015791
vn 0.029347 0.999569 0.000001
vn 0.014693 0.999876 -0.005688
vn 0.014693 0.999876 -0.005688
vn 0.000035 0.999935 -0.011375
vn 0.000000 1.000000 0.000000
vn 0.000000 1.000000 0.000000
vn 0.000000 1.000000 0.000000
vn 0.000000 1.000000 -0.000000
vn 0.000558 0.999602 -0.028215
vn 0.019775 0.999705 -0.014112
vn 0.019775 0.999705 -0.014112
vn 0.038980 0.999240 0.000000
vn 0.000000 0.000000 1.000000
vn 0.000000 0.000000 1.000000
vn 0.000000 0.000000 1.000000
vn 0.000000 0.000000 1.000000
vn 0.012587 0.771384 -0.636246
vn 0.012587 0.771384 -0.636246
vn 0.012587 0.771384 -0.636246
vn 0.000000 1.000000 0.000000
vn 0.000000 1.000000 0.000000
vn -0.033380 0.999443 -0.000007
vn -0.016703 0.999758 0.014341
vn -0.016703 0.999758 0.014341
vn -0.000018 0.999589 0.028682
vn -0.994072 0.106713 -0.020831
vn -0.994072 0.106713 -0.020831
vn -0.994072 0.106713 -0.020831
vn 0.016851 0.999783 -0.012263
vn 0.008428 0.999918 0.009604
vn 0.008428 0.999918 0.009604
vn 0.000000 0.999505 0.031467
vn 0.017122 0.999369 -0.031116
vn 0.008563 0.999842 -0.015561
vn 0.008563 0.999842 -0.015561
vn 0.000000 1.000000 -0.000001
vn -0.000143 -0.035796 -0.999359
vn 0.013435 0.018659 -0.999736
vn 0.013435 0.018659 -0.999736
vn 0.026971 0.073056 -0.996963
vn 0.999855 0.009472 -0.014163
vn 0.999655 0.021994 -0.014364
vn 0.999224 0.032988 -0.021545
vn 0.999496 0.028256 -0.014464
vn 1.000000 0.000000 0.000000
vn -0.001039 0.999999 0.001153
vn 0.018237 0.999629 -0.020235
vn 0.018237 0.999629 -0.020235
vn 0.037497 0.998430 -0.041606
vn 0.964145 -0.009497 -0.265207
vn 0.964145 -0.009497 -0.265207
vn 0.964145 -0.009497 -0.265207
vn 0.006972 -0.020879 0.999758
vn -0.019440 0.005571 0.999796
vn -0.019440 0.005571 0.999796
vn -0.045826 0.032013 0.998436
vn 0.007842 0.020989 0.999749
vn 0.004066 0.017342 0.999841
vn 0.004066 0.017342 0.999841
vn 0.000291 0.013693 0.999906
vn 0.893029 0.015052 0.449747
vn 0.893029 0.015052 0.449747
vn 0.893029 0.015052 0.449747
vn -1.000000 0.000000 0.000000
vn -0.999606 -0.011580 -0.025580
vn -0.999968 0.000415 -0.008013
vn -0.999871 0.000831 -0.016032
vn -0.999877 0.012408 0.009553
vn -1.000000 0.000000 0.000000
vn 1.000000 -0.000172 -0.000110
vn 1.000000 -0.000145 -0.000055
vn 1.000000 -0.000145 -0.000055
vn 1.000000 -0.000119 0.000000
vn 1.000000 -0.000112 -0.000151
vn 1.000000 -0.000056 -0.000075
vn 1.000000 -0.000056 -0.000075
vn 1.000000 0.000000 0.000000
vn -0.812066 0.583564 0.001459
vn -0.812066 0.583564 0.001459
vn -0.812066 0.583564 0.001459
vn 0.717549 0.058404 -0.694055
vn 0.723630 0.066783 -0.686950
vn 0.016290 0.075036 -0.997048
vn 0.999724 -0.023510 -0.000154
vn 0.999845 -0.012403 0.012460
vn 0.999845 -0.012403 0.012460
vn 0.999685 -0.001293 0.025071
vn 0.999593 -0.001253 0.028490
vn 0.999852 -0.009828 0.014121
vn 0.999852 -0.009828 0.014121
vn 0.999831 -0.018401 -0.000251
vn 0.008133 0.522148 0.852816
vn 0.009826 0.559895 0.828505
vn 0.009826 0.559895 0.828505
vn 0.011499 0.596512 0.802522
vn -0.845422 0.534091 -0.002807
vn -0.828870 0.559441 -0.001302
vn -0.828870 0.559441 -0.001302
vn -0.811555 0.584276 0.000204
vn 0.000000 1.000000 0.000000
vn 0.000000 1.000000 -0.000001
vn 0.000000 1.000000 -0.000001
vn 0.000000 1.000000 -0.000001
vn 0.000000 1.000000 0.000000
vn 0.000000 1.000000 0.000000
vn 0.999417 0.023496 0.024786
vn 0.999857 0.011707 0.012213
vn 0.999857 0.011707 0.012213
vn 1.000000 -0.000085 -0.000363
vn 0.018274 0.001535 0.999832
vn 0.018266 0.000003 0.999833
vn 0.017822 0.000767 0.999841
vn 0.018267 0.000000 0.999833
vn -0.924556 0.019209 0.380561
vn -0.946966 0.013827 0.321037
vn -0.953538 0.009096 0.301137
vn -0.955842 0.005659 0.293825
vn 0.000000 1.000000 0.000001
vn 0.000000 1.000000 0.000001
vn 0.000000 1.000000 0.000001
vn 0.017379 0.001532 0.999848
vn 0.016473 0.000000 0.999864
vn 0.000000 1.000000 0.000001
vn 0.000000 1.000000 0.000001
vn 0.000000 1.000000 0.000001
vn 0.000000 1.000000 0.000000
vn 0.000000 1.000000 0.000000
vn 0.000000 1.000000 0.000000
vn 0.000000 1.000000 -0.000001
vn 0.000000 1.000000 -0.000000
vn -0.000030 0.000000 1.000000
vn 0.006495 0.018032 0.999816
vn 0.008712 0.012021 0.999890
vn 0.018692 0.021937 0.999585
vn 0.029906 0.029744 0.999110
vn 0.021529 0.014874 0.999658
vn 0.000000 1.000000 -0.000000
vn 0.000000 1.000000 -0.000000
vn 0.000000 1.000000 -0.000000
vn 0.000000 1.000000 0.000000
vn 0.000000 1.000000 0.000000
vn -0.999996 0.000185 0.002906
vn -0.999996 0.000055 0.002906
vn -0.999996 -0.000195 0.002815
vn -0.999997 -0.000391 0.002508
vn -0.000701 0.999536 0.030461
vn 0.004473 0.999874 0.015220
vn 0.004473 0.999874 0.015220
vn 0.009645 0.999954 -0.000025
vn -0.999996 0.000278 0.002798
vn -0.999997 0.000000 0.002508
vn 0.000000 1.000000 -0.000001
vn -0.001302 0.999991 0.003997
vn -0.001302 0.999991 0.003997
vn -0.002604 0.999965 0.007995
vn -0.002529 0.999833 0.018128
vn -0.001551 0.999778 0.021004
vn -0.001217 0.999759 0.021939
vn -0.000561 0.999716 0.023845
vn -0.000548 0.999716 0.023809
vn -0.846510 0.000470 0.532373
vn -0.846510 0.000470 0.532373
vn -0.846510 0.000470 0.532373
vn -0.809817 0.586683 0.000073
vn -0.805330 0.592827 0.000593
vn -0.805330 0.592827 0.000593
vn -0.800796 0.598936 0.001114
vn -0.950556 0.004290 0.310522
vn -0.933216 0.008927 0.359206
vn -0.790803 0.611907 -0.014145
vn -0.790803 0.611907 -0.014145
vn -0.790803 0.611907 -0.014145
vn -1.000000 -0.000285 -0.000402
vn -1.000000 -0.000125 -0.000460
vn 0.000000 1.000000 -0.000001
vn 0.000000 1.000000 -0.000000
vn 0.000000 1.000000 -0.000000
vn 0.000000 1.000000 0.000000
vn 0.000000 1.000000 0.000001
vn 0.000000 1.000000 0.000000
vn -0.000001 -0.000002 1.000000
vn -0.000000 -0.000001 1.000000
vn -0.000000 -0.000001 1.000000
vn 1.000000 0.000000 0.000000
vn 1.000000 -0.000000 0.000000
vn 1.000000 -0.000000 0.000000
vn 1.000000 -0.000000 0.000000
vn 1.000000 0.000000 0.000000
vn -0.975538 0.056385 -0.212475
vn -0.999686 0.000000 -0.025075
vn -0.955321 0.030110 -0.294034
vn -0.999485 0.020937 -0.024330
vn 0.000000 0.000000 1.000000
vn 0.000000 0.000000 1.000000
vn 0.000000 0.000000 1.000000
vn 0.000000 0.000000 1.000000
vn 0.000000 0.000000 1.000000
vn 0.000000 0.000000 1.000000
vn 0.000000 0.000000 1.000000
vn 0.000000 0.000000 1.000000
vn -0.998840 0.031410 -0.036501
vn -0.998027 0.062742 0.002268
vn 0.000737 0.028697 0.999588
vn 0.007042 0.023770 0.999693
vn -0.007129 -0.000837 0.999974
vn -0.011062 -0.015617 0.999817
vn -0.035451 -0.050049 0.998117
vn 0.000000 1.000000 0.000000
vn 0.000000 1.000000 0.000000
vn 0.000000 1.000000 0.000000
vn 0.000000 1.000000 0.000000
vn 0.000001 0.999514 0.031181
vn 0.005705 0.999862 0.015579
vn 0.005705 0.999862 0.015579
vn 0.011408 0.999935 -0.000026
vn 0.023767 0.985158 0.169997
vn 0.023767 0.985158 0.169997
vn 0.023767 0.985158 0.169997
vn -0.284079 0.958294 -0.031164
vn -0.143544 0.989519 -0.015747
vn -0.095583 0.995366 -0.010485
vn 0.959102 0.014573 -0.282684
vn 0.999700 0.015029 -0.019356
vn 0.999699 0.015225 -0.019248
vn -0.083718 0.334706 0.938597
vn 0.007827 0.999958 -0.004738
vn 0.017625 0.999845 0.000000
vn -0.998680 0.051360 0.000000
vn -0.997985 0.062892 0.008350
vn -0.894145 0.087696 -0.439106
vn 0.000000 0.000000 1.000000
vn 0.000000 0.000000 1.000000
vn 0.000000 0.000000 1.000000
vn 0.000000 0.000000 1.000000
vn 0.000000 0.000000 1.000000
vn 0.000000 0.000000 1.000000
vn 0.000000 0.000000 1.000000
vn 0.000000 0.000000 1.000000
vn 0.000000 0.000000 1.000000
vn 0.000000 0.000000 1.000000
vn 0.000000 0.000000 1.000000
vn 0.000000 0.000000 1.000000
vn 0.000000 0.000000 1.000000
vn 0.000000 0.000000 1.000000
vn 0.000000 0.000000 1.000000
vn 0.000000 0.000000 1.000000
vn 0.000000 0.000000 1.000000
vn 0.000000 0.000000 1.000000
vn 0.000000 0.000000 1.000000
vn 0.000000 0.000000 1.000000
vn 0.000000 0.000000 1.000000
vn 0.000000 0.000000 1.000000
vn 0.000000 0.000000 1.000000
vn 0.000000 0.000000 1.000000
vn 0.000000 0.000000 1.000000
vn 0.000000 0.000000 1.000000
vn 0.000000 0.000000 1.000000
vn 0.000000 0.000000 1.000000
vn 0.894520 0.000000 0.447029
vn 0.894520 0.000000 0.447028
vn 0.894520 0.000000 0.447028
vn 0.894520 0.000000 0.447028
vn 0.000000 0.000000 1.000000
vn 0.000000 0.000000 1.000000
vn 0.000000 0.000000 1.000000
vn 0.000000 0.000000 1.000000
vn -0.046189 0.000000 0.998933
vn -0.046189 0.000000 0.998933
vn -0.046189 0.000000 0.998933
vn -0.046189 0.000000 0.998933
vn 0.000000 1.000000 0.000000
vn 0.000000 1.000000 0.000000
vn 0.000000 1.000000 0.000000
vn 0.000000 1.000000 0.000000
vn 0.000047 0.250788 -0.968042
vn 0.000047 0.250788 -0.968042
vn 0.000047 0.250788 -0.968042
vn -0.012723 0.137855 -0.990371
vn -0.012723 0.137855 -0.990371
vn -0.012723 0.137855 -0.990371
vn -0.094463 0.022683 -0.995270
vn -0.094463 0.022683 -0.995270
vn -0.094463 0.022683 -0.995270
vn -0.000017 -0.000000 -1.000000
vn -0.000017 -0.000000 -1.000000
vn -0.000017 -0.000000 -1.000000
vn 0.000000 -0.005802 -0.999983
vn 0.000000 -0.005802 -0.999983
vn 0.000000 -0.005802 -0.999983
vn -0.000019 -0.005781 -0.999983
vn -0.000347 -0.003329 -0.999994
vn -0.000347 -0.003329 -0.999994
vn -0.000674 -0.000877 -0.999999
vn 0.064255 0.226298 -0.971937
vn 0.092383 0.029060 -0.995299
vn 0.115160 0.054568 -0.991847
vn 0.000112 0.592652 -0.805458
vn 0.036630 0.313722 -0.948808
vn 1.000000 0.000000 0.000000
vn 1.000000 0.000000 0.000000
vn 1.000000 0.000000 0.000000
vn 1.000000 0.000000 0.000000
vn -0.000020 0.000000 -1.000000
vn -0.000020 0.000000 -1.000000
vn -0.000020 0.000000 -1.000000
vn -0.000020 0.000000 -1.000000
vn 0.999854 0.000000 0.017090
vn 0.999854 0.000000 0.017090
vn 0.999854 0.000000 0.017090
vn 0.999854 0.000000 0.017090
vn 0.999984 0.000000 0.005738
vn 0.999984 0.000000 0.005738
vn 0.999984 0.000000 0.005738
vn 0.999984 0.000000 0.005738
vn 0.999949 0.000000 0.010113
vn 0.999949 0.000000 0.010113
vn 0.999949 0.000000 0.010113
vn 0.999949 0.000000 0.010113
vn 0.999446 0.000000 0.033277
vn 0.999446 0.000000 0.033277
vn 0.999446 0.000000 0.033277
vn 0.999446 0.000000 0.033278
vn 0.999929 0.000000 0.011940
vn 0.999929 0.000000 0.011940
vn 0.999929 0.000000 0.011940
vn 0.999929 0.000000 0.011940
vn 0.999937 0.000000 0.011205
vn 0.999937 0.000000 0.011205
vn 0.999937 0.000000 0.011205
vn 0.999937 0.000000 0.011205
vn 0.993057 0.000000 0.117631
vn 0.993057 0.000000 0.117630
vn 0.993057 0.000000 0.117630
vn 0.993057 0.000000 0.117630
vn 0.999959 0.000000 0.009100
vn 0.999959 0.000000 0.009100
vn 0.999959 0.000000 0.009100
vn 0.999959 0.000000 0.009100
vn 0.958855 0.000000 -0.283895
vn 0.958855 0.000000 -0.283895
vn 0.958855 0.000000 -0.283895
vn 0.958856 0.000000 -0.283894
vn 0.999829 0.000000 0.018478
vn 0.999829 0.000000 0.018478
vn 0.999829 0.000000 0.018478
vn 0.999829 0.000000 0.018478
vn 0.999998 0.000000 0.002204
vn 0.999998 0.000000 0.002204
vn 0.999998 0.000000 0.002204
vn 0.999998 0.000000 0.002204
vn 0.933167 0.000000 0.359442
vn 0.933168 0.000000 0.359439
vn 0.933168 0.000000 0.359439
vn 0.933170 0.000000 0.359436
vn -0.999998 0.000000 0.001798
vn -0.999998 0.000000 0.001798
vn -0.999998 0.000000 0.001798
vn -0.999998 0.000000 0.001798
vn -1.000000 0.000000 0.000487
vn -1.000000 0.000000 0.000487
vn -1.000000 0.000000 0.000487
vn -1.000000 0.000000 0.000487
vn -1.000000 0.000000 0.000475
vn -1.000000 0.000000 0.000475
vn -1.000000 0.000000 0.000475
vn -1.000000 0.000000 0.000475
vn -1.000000 0.000000 0.000968
vn -1.000000 0.000000 0.000968
vn -1.000000 0.000000 0.000968
vn -1.000000 0.000000 0.000968
vn -0.769638 0.000000 0.638480
vn -0.769633 0.000000 0.638487
vn -0.769633 0.000000 0.638487
vn -0.769628 0.000000 0.638493
vn -0.999956 0.000000 -0.009388
vn -0.999956 0.000000 -0.009388
vn -0.999956 0.000000 -0.009388
vn -0.999956 0.000000 -0.009388
vn -0.999998 0.000000 -0.001805
vn -0.999998 0.000000 -0.001805
vn -0.999998 0.000000 -0.001805
vn -0.999998 0.000000 -0.001805
vn -0.997597 0.000000 0.069284
vn -0.997597 0.000000 0.069284
vn -0.997597 0.000000 0.069284
vn -0.997597 0.000000 0.069285
vn -1.000000 0.000000 0.000670
vn -1.000000 0.000000 0.000670
vn -1.000000 0.000000 0.000670
vn -1.000000 0.000000 0.000670
vn -1.000000 0.000000 0.000665
vn -1.000000 0.000000 0.000665
vn -1.000000 0.000000 0.000665
vn -1.000000 0.000000 0.000665
vn -1.000000 0.000000 0.000000
vn -1.000000 0.000000 0.000000
vn -1.000000 0.000000 0.000000
vn -1.000000 0.000000 0.000000
vn -0.000019 0.000000 -1.000000
vn -0.000019 0.000000 -1.000000
vn -0.000019 0.000000 -1.000000
vn -0.000019 0.000000 -1.000000
vn -1.000000 0.000000 0.000000
vn -1.000000 0.000000 0.000000
vn -1.000000 0.000000 0.000000
vn -1.000000 0.000000 0.000000
vn -0.023138 0.050987 -0.998431
vn -0.023138 0.050987 -0.998431
vn -0.027391 0.055432 -0.998087
vn 0.012326 0.071399 -0.997372
vn -0.018883 0.046540 -0.998738
vn 1.000000 -0.000111 -0.000110
vn 0.999869 0.007665 0.014278
vn -0.022870 -0.004560 -0.999728
vn -0.022870 -0.004560 -0.999728
vn -0.018903 -0.009119 -0.999780
vn -0.026836 0.000000 -0.999640
vn 0.049058 0.000000 -0.998796
vn 0.049058 0.000000 -0.998796
vn 0.049058 0.000000 -0.998796
vn 0.047025 -0.000922 -0.998893
vn 0.047025 -0.000922 -0.998893
vn 0.047025 -0.000922 -0.998893
vn 0.055835 0.005358 -0.998426
vn 0.055835 0.005358 -0.998426
vn 0.055835 0.005358 -0.998426
vn 0.049954 -0.003365 -0.998746
vn 0.049954 -0.003365 -0.998746
vn 0.049954 -0.003365 -0.998746
vn 0.025355 0.000000 -0.999679
vn 0.038070 0.024963 -0.998963
vn 0.038070 0.024963 -0.998963
vn 0.050755 0.049907 -0.997463
vn 0.007738 0.000000 -0.999970
vn 0.015471 -0.006023 -0.999862
vn 0.015471 -0.006023 -0.999862
vn 0.023203 -0.012046 -0.999658
vn 0.024090 0.000000 -0.999710
vn 0.028343 -0.003096 -0.999593
vn 0.028343 -0.003096 -0.999593
vn 0.032595 -0.006192 -0.999450
vn 0.040970 0.000000 -0.999160
vn 0.041478 -0.000349 -0.999139
vn 0.041478 -0.000349 -0.999139
vn 0.041985 -0.000698 -0.999118
vn 0.040311 0.002285 -0.999185
vn 0.041993 0.001142 -0.999117
vn 0.041993 0.001142 -0.999117
vn 0.043676 0.000000 -0.999046
vn 0.040310 -0.004065 -0.999179
vn 0.041993 -0.002032 -0.999116
vn 0.041993 -0.002032 -0.999116
vn 0.043676 0.000000 -0.999046
vn 0.043676 -0.000000 -0.999046
vn 0.061092 0.030232 -0.997674
vn 0.061092 0.030232 -0.997674
vn 0.078433 0.060428 -0.995086
vn 0.139811 0.000000 -0.990178
vn 0.139811 0.000000 -0.990178
vn 0.139811 0.000000 -0.990178
vn 0.139811 0.000000 -0.990178
vn 0.139811 0.000000 -0.990178
vn 0.139811 0.000000 -0.990178
vn -0.999973 -0.007383 0.000000
vn -0.999991 -0.003692 -0.002069
vn -0.999991 -0.003692 -0.002069
vn -0.999991 0.000000 -0.004139
vn 0.999824 0.000000 0.018784
vn 0.999862 0.013712 0.009393
vn 0.999862 0.013712 0.009393
vn 0.999624 0.027421 0.000000
vn -0.092295 0.000000 -0.995732
vn -0.092295 0.000000 -0.995732
vn -0.092295 0.000000 -0.995732
vn 0.117419 0.000000 -0.993082
vn 0.117419 0.000000 -0.993082
vn 0.117419 0.000000 -0.993082
f 29/32/1 28/31/2 30/33/3
f 30/33/3 28/31/2 31/34/4
f 97/88/5 95/87/6 98/111/7
f 98/111/7 95/87/6 94/112/8
f 155/247/9 190/294/10 154/246/11
f 154/246/11 190/294/10 189/295/12
f 189/296/13 191/297/14 154/256/15
f 154/256/15 191/297/14 163/255/16
f 164/257/17 163/258/18 192/299/19
f 192/299/19 163/258/18 191/298/20
f 38/38/21 39/148/22 41/40/23
f 41/40/23 39/148/22 184/286/24
f 39/148/22 40/126/25 184/286/24
f 31/34/26 6/177/27 30/33/28
f 30/33/28 6/177/27 25/28/29
f 25/28/30 6/178/31 194/301/32
f 194/301/32 6/178/31 209/320/33
f 25/28/34 26/29/35 30/33/36
f 30/33/36 26/29/35 29/32/37
f 209/320/38 6/178/39 169/139/40
f 93/109/41 35/115/42 184/287/43
f 184/287/43 35/115/42 41/128/44
f 233/358/45 232/355/46 231/346/47
f 232/355/48 233/358/49 57/55/50
f 57/55/50 233/358/49 32/35/51
f 93/109/52 7/110/53 111/104/54
f 111/104/54 7/110/53 110/4/55
f 184/287/56 40/39/57 93/109/58
f 93/109/58 40/39/57 7/116/59
f 7/117/53 208/319/60 110/4/55
f 40/125/61 39/148/62 7/9/63
f 7/9/63 39/148/62 36/124/64
f 36/124/65 234/359/66 7/117/67
f 7/117/67 234/359/66 208/319/68
f 35/115/69 37/37/70 41/127/71
f 41/127/71 37/37/70 38/129/72
f 38/149/73 37/130/74 39/148/75
f 39/148/75 37/130/74 36/124/76
f 37/132/77 35/115/78 233/357/79
f 233/357/79 35/115/78 32/35/80
f 37/132/81 231/345/82 34/36/83
f 37/132/84 233/357/85 231/345/86
f 234/359/87 36/124/88 207/318/89
f 195/302/90 26/29/91 10/12/92
f 194/301/93 193/300/94 25/28/95
f 25/28/95 193/300/94 9/11/96
f 25/28/97 9/11/98 26/29/91
f 26/29/91 9/11/98 10/12/92
f 241/368/99 9/11/100 193/300/101
f 118/165/102 117/217/103 112/210/104
f 112/210/104 117/217/103 96/89/105
f 115/171/106 98/90/107 116/216/108
f 116/216/108 98/90/107 94/86/109
f 118/218/110 247/374/111 116/219/112
f 114/212/113 115/171/114 113/172/115
f 116/216/116 247/375/117 115/171/114
f 115/171/114 247/375/117 113/172/115
f 118/218/118 116/219/119 95/106/120
f 95/106/120 116/219/119 94/108/121
f 117/217/122 118/165/123 97/105/124
f 97/105/124 118/165/123 95/107/125
f 118/218/126 112/210/127 247/374/128
f 247/374/128 112/210/127 113/172/129
f 179/273/130 180/274/131 177/276/132
f 177/276/132 180/274/131 178/275/133
f 185/288/134 186/289/135 172/266/136
f 172/266/136 186/289/135 171/265/137
f 176/270/138 177/271/139 175/269/140
f 175/269/140 177/271/139 178/272/141
f 171/278/142 248/376/143 175/277/144
f 188/293/145 176/270/146 187/292/147
f 175/269/148 248/377/149 176/270/146
f 187/292/147 176/270/146 248/377/149
f 175/277/150 178/281/151 171/278/152
f 171/278/152 178/281/151 180/282/153
f 172/266/154 171/265/155 179/284/156
f 179/284/156 171/265/155 180/283/157
f 186/289/158 185/288/159 174/268/160
f 174/268/160 185/288/159 173/267/161
f 186/290/162 174/268/163 187/291/164
f 187/291/164 174/268/163 181/279/165
f 187/292/166 181/279/167 188/293/168
f 188/293/168 181/279/167 182/280/169
f 171/278/170 186/290/171 248/376/172
f 248/376/172 186/290/171 187/291/173
f 130/166/174 121/137/175 132/118/176
f 132/118/176 121/137/175 122/168/177
f 152/244/178 123/211/179 149/241/180
f 149/241/180 123/211/179 124/223/181
f 128/163/182 124/223/183 126/204/184
f 126/204/184 124/223/183 140/230/185
f 140/230/185 124/223/183 123/211/186
f 202/313/187 9/11/188 203/314/189
f 203/314/189 9/11/188 241/368/190
f 12/14/191 255/384/192 136/224/193
f 203/314/194 255/384/195 202/313/196
f 202/313/196 255/384/195 238/364/197
f 255/384/195 12/14/198 238/364/197
f 162/254/199 161/253/200 159/251/201
f 159/251/201 161/253/200 157/249/202
f 162/254/203 159/251/204 160/252/205
f 160/252/205 159/251/204 158/250/206
f 156/248/207 160/252/208 153/245/209
f 153/245/209 160/252/208 158/250/210
f 167/263/211 168/264/212 191/298/213
f 191/298/213 168/264/212 192/299/214
f 166/259/215 156/248/216 165/260/217
f 165/260/217 156/248/216 153/245/218
f 165/261/219 153/245/220 167/262/221
f 167/262/221 153/245/220 157/249/222
f 190/294/223 166/259/224 189/295/225
f 189/295/225 166/259/224 165/260/226
f 191/297/227 189/296/228 167/262/229
f 167/262/229 189/296/228 165/261/230
f 157/249/222 153/245/220 159/251/231
f 159/251/231 153/245/220 158/250/232
f 168/264/233 167/263/234 161/253/235
f 161/253/235 167/263/234 157/249/236
f 101/95/237 256/385/238 102/96/239
f 246/373/240 108/102/241 101/95/242
f 101/95/242 108/102/241 106/100/243
f 109/103/244 105/98/245 107/101/246
f 102/96/247 256/385/248 105/98/245
f 107/101/246 105/98/245 256/385/248
f 109/103/249 107/101/250 108/102/251
f 108/102/251 107/101/250 106/100/252
f 100/94/253 101/95/254 3/173/255
f 3/173/255 101/95/254 102/96/256
f 102/96/257 105/98/258 3/93/259
f 3/93/259 105/98/258 104/99/260
f 101/95/261 100/175/262 246/373/263
f 246/373/263 100/175/262 103/97/264
f 101/95/265 106/100/266 256/385/267
f 256/385/267 106/100/266 107/101/268
f 260/389/269 257/386/270 218/331/271
f 218/331/271 257/386/270 219/332/272
f 238/364/273 239/365/274 202/313/275
f 239/365/274 260/389/276 202/313/275
f 260/389/276 218/331/277 202/313/275
f 218/331/277 65/62/278 202/313/275
f 202/313/275 65/62/278 9/11/279
f 239/365/280 238/364/281 216/329/282
f 238/364/281 12/14/283 216/329/282
f 216/329/282 12/14/283 66/63/284
f 257/386/285 260/389/286 217/330/287
f 260/389/286 239/365/288 217/330/287
f 239/365/288 216/329/289 217/330/287
f 243/370/290 144/236/291 242/369/292
f 265/394/293 214/328/294 264/393/295
f 264/393/295 214/328/294 215/327/296
f 264/393/297 213/324/298 265/394/299
f 265/394/299 213/324/298 212/325/300
f 266/396/301 235/360/302 265/395/303
f 265/395/303 235/360/302 214/326/304
f 212/325/305 213/324/306 62/60/307
f 62/60/307 213/324/306 61/59/308
f 15/17/309 62/60/310 16/18/311
f 16/18/311 62/60/310 61/59/312
f 268/398/313 61/59/314 264/393/315
f 264/393/315 61/59/314 213/324/316
f 265/395/317 212/323/318 266/396/319
f 266/396/319 212/323/318 15/17/320
f 212/323/318 62/60/321 15/17/320
f 267/397/322 266/396/323 270/400/324
f 270/400/324 266/396/323 15/17/325
f 270/400/326 15/17/327 135/160/328
f 220/333/329 43/42/330 16/18/331
f 207/318/332 36/124/333 206/317/334
f 206/317/334 36/124/333 33/159/335
f 34/133/83 33/159/336 37/131/81
f 37/131/81 33/159/336 36/124/337
f 235/360/338 205/316/339 204/315/340
f 33/159/341 272/402/342 206/317/343
f 214/326/344 235/360/345 204/315/346
f 214/326/347 204/315/348 63/206/349
f 63/206/349 204/315/348 33/159/350
f 266/396/351 267/397/352 235/360/353
f 235/360/353 267/397/352 205/316/354
f 33/159/355 204/315/356 272/402/357
f 272/402/357 204/315/356 205/316/358
f 56/162/359 34/151/360 232/355/361
f 232/355/361 34/151/360 231/346/362
f 214/328/363 63/207/364 215/327/365
f 215/327/365 63/207/364 56/54/366
f 56/209/367 63/61/368 34/150/369
f 34/150/369 63/61/368 33/159/370
f 264/393/371 215/327/372 268/398/373
f 268/398/373 215/327/372 55/5/374
f 55/5/375 215/327/376 56/54/377
f 10/12/378 9/11/379 54/53/380
f 54/53/380 9/11/379 65/62/381
f 219/332/382 54/53/383 218/331/384
f 218/331/384 54/53/383 65/62/385
f 54/53/386 219/332/387 55/5/388
f 51/49/389 50/50/390 276/406/391
f 279/410/392 280/411/393 278/408/394
f 80/193/395 286/349/396 86/78/397
f 279/410/398 80/193/399 280/411/400
f 80/193/399 86/78/401 280/411/400
f 280/411/400 86/78/401 81/77/402
f 286/349/403 311/449/404 287/348/405
f 311/449/406 312/450/407 287/348/408
f 287/348/408 312/450/407 85/79/409
f 64/64/410 217/330/411 66/63/412
f 66/63/412 217/330/411 216/329/413
f 66/63/414 12/14/415 64/64/416
f 64/64/416 12/14/415 13/15/417
f 217/330/418 64/64/419 257/386/420
f 257/386/420 64/64/419 258/387/421
f 257/386/422 258/387/423 219/332/424
f 219/332/424 258/387/423 55/5/374
f 268/398/373 55/5/374 269/399/425
f 269/399/425 55/5/374 258/387/423
f 47/46/426 227/340/427 13/15/428
f 47/46/429 288/419/430 227/340/431
f 226/339/432 64/64/433 227/340/434
f 227/340/434 64/64/433 13/15/435
f 288/420/436 226/351/437 227/352/438
f 262/391/439 244/371/440 263/392/441
f 263/392/441 244/371/440 245/372/442
f 142/234/443 245/372/444 244/371/445
f 263/392/446 243/370/447 262/391/448
f 262/391/448 243/370/447 242/369/449
f 271/401/450 223/335/451 43/42/452
f 225/350/453 236/361/454 220/333/455
f 225/350/456 210/321/457 236/361/458
f 236/361/458 210/321/457 289/421/459
f 225/338/460 220/333/461 61/59/462
f 61/59/462 220/333/461 16/18/463
f 271/401/464 43/42/465 236/361/466
f 236/361/466 43/42/465 220/333/467
f 263/392/468 245/372/469 259/388/470
f 259/388/470 245/372/469 225/338/471
f 245/372/469 210/347/472 225/338/471
f 259/388/473 269/399/474 226/339/475
f 226/339/475 269/399/474 64/64/419
f 269/399/474 258/387/421 64/64/419
f 259/388/476 226/339/477 263/392/478
f 263/392/478 226/339/477 243/370/479
f 226/339/477 211/322/480 243/370/479
f 269/399/481 259/388/482 268/398/313
f 225/338/483 61/59/314 259/388/482
f 259/388/482 61/59/314 268/398/313
f 262/391/484 261/390/485 244/371/486
f 244/371/486 261/390/485 143/235/487
f 244/371/488 143/235/489 142/234/490
f 42/41/491 289/421/492 14/16/493
f 142/234/494 143/235/495 14/16/496
f 14/16/496 143/235/495 133/203/497
f 142/234/498 14/16/499 245/372/500
f 245/372/500 14/16/499 210/347/501
f 224/337/502 222/336/503 42/41/504
f 42/41/504 222/336/503 271/401/505
f 271/401/505 222/336/503 223/335/506
f 289/421/507 210/321/508 14/16/509
f 42/41/510 271/401/511 289/421/512
f 289/421/512 271/401/511 236/361/513
f 45/44/514 223/335/515 221/334/516
f 221/334/516 223/335/515 222/336/517
f 44/43/518 237/363/519 183/285/520
f 45/44/521 44/43/522 223/335/523
f 223/335/523 44/43/522 43/42/524
f 44/43/525 183/285/526 15/17/527
f 15/17/527 183/285/526 135/160/528
f 44/43/529 15/17/530 43/42/330
f 43/42/330 15/17/530 16/18/331
f 120/169/531 131/136/532 294/427/533
f 131/136/532 132/118/534 294/427/533
f 294/427/533 132/118/534 252/381/535
f 252/381/535 132/118/534 251/380/536
f 132/118/534 122/168/537 251/380/536
f 249/378/538 252/381/539 251/380/540
f 250/379/541 249/378/542 130/166/543
f 130/166/543 249/378/542 121/137/544
f 251/380/545 122/168/546 249/378/547
f 249/378/547 122/168/546 121/137/548
f 294/427/549 252/381/550 295/428/551
f 295/428/551 252/381/550 249/378/552
f 44/43/553 141/232/554 237/363/555
f 237/363/555 141/232/554 129/233/556
f 250/379/557 297/429/558 249/378/559
f 249/378/559 297/429/558 295/428/560
f 250/379/561 296/430/562 297/429/563
f 4/6/564 221/334/565 42/41/566
f 221/334/565 222/336/567 42/41/566
f 222/336/567 224/337/568 42/41/566
f 14/16/569 133/203/570 42/41/571
f 133/203/570 290/422/572 42/41/571
f 42/41/571 290/422/572 4/6/573
f 4/6/574 290/422/575 240/367/576
f 240/367/576 290/422/575 1/3/577
f 295/428/578 1/3/579 294/427/580
f 294/427/580 1/3/579 120/169/581
f 291/423/582 4/6/583 292/425/584
f 292/425/584 4/6/583 240/367/585
f 291/423/586 221/334/587 4/6/588
f 291/423/589 141/232/590 221/334/591
f 221/334/591 141/232/590 45/44/592
f 45/44/592 141/232/590 44/43/593
f 291/423/594 292/425/595 141/232/596
f 141/232/596 292/425/595 129/233/597
f 297/429/598 296/430/599 293/426/600
f 293/426/600 296/430/599 129/167/601
f 297/429/602 293/426/603 295/428/604
f 295/428/604 293/426/603 1/3/605
f 292/424/606 293/426/607 129/167/608
f 240/366/609 293/426/610 292/424/611
f 293/426/612 240/366/613 1/3/614
f 23/122/615 77/72/616 196/305/617
f 77/72/616 298/431/618 196/305/617
f 196/305/617 298/431/618 18/143/619
f 196/303/617 197/304/620 23/122/615
f 23/122/615 197/304/620 58/145/621
f 197/304/622 196/303/617 59/161/623
f 59/161/623 196/303/617 18/22/619
f 57/147/624 32/35/625 58/56/626
f 58/56/626 32/35/625 23/122/627
f 59/57/628 18/141/629 60/214/630
f 60/214/630 18/141/629 20/200/631
f 56/208/632 232/356/633 60/58/634
f 232/356/633 57/146/635 60/58/634
f 57/146/635 58/144/636 60/58/634
f 58/144/636 197/306/637 60/58/634
f 60/58/634 197/306/637 59/213/638
f 93/109/639 111/104/640 35/115/641
f 111/104/640 24/27/642 35/115/641
f 35/115/641 24/27/642 32/35/643
f 24/27/642 23/122/644 32/35/643
f 71/121/645 24/114/646 281/412/647
f 24/114/646 88/81/648 281/412/647
f 281/412/647 88/81/648 283/416/649
f 88/81/648 82/134/650 283/416/649
f 71/67/645 77/123/651 24/113/646
f 24/113/646 77/123/651 23/122/652
f 79/188/653 309/447/654 69/195/655
f 69/195/655 309/447/654 310/448/656
f 284/418/657 79/188/658 83/192/659
f 284/418/660 309/447/661 79/188/662
f 89/82/663 79/76/664 90/83/665
f 90/83/665 79/76/664 80/75/666
f 79/187/667 69/65/668 80/193/669
f 80/193/669 69/65/668 70/66/670
f 67/153/671 298/432/672 71/119/673
f 71/119/673 298/432/672 77/140/674
f 282/413/675 67/152/676 281/414/677
f 281/414/677 67/152/676 71/120/678
f 283/417/679 282/413/680 281/414/681
f 283/417/682 82/156/683 282/413/684
f 82/156/683 83/191/685 282/413/684
f 282/413/684 83/191/685 79/189/686
f 89/82/687 90/83/688 92/181/689
f 92/181/689 90/83/688 91/183/690
f 79/190/691 89/182/692 282/415/693
f 89/182/692 92/85/694 282/415/693
f 282/415/693 92/85/694 67/21/695
f 68/186/696 91/183/697 279/409/698
f 91/183/697 90/83/699 279/409/698
f 279/409/698 90/83/699 80/75/700
f 18/142/701 74/158/702 20/23/703
f 20/23/703 74/158/702 76/70/704
f 92/180/705 91/84/706 299/433/707
f 299/433/707 91/84/706 301/436/708
f 74/71/709 298/432/710 299/434/711
f 299/434/711 298/432/710 67/154/712
f 18/143/713 298/431/714 74/157/715
f 92/180/716 299/433/717 67/155/718
f 301/436/719 91/84/720 68/19/721
f 51/49/722 276/406/723 277/407/724
f 54/53/725 277/407/726 53/52/727
f 53/52/727 277/407/726 52/51/728
f 277/407/726 276/406/729 52/51/728
f 50/50/390 17/74/730 276/406/391
f 276/406/391 17/74/730 275/405/731
f 144/236/732 243/370/733 11/13/734
f 11/13/734 243/370/733 211/322/735
f 48/47/736 47/46/737 229/342/738
f 229/342/738 47/46/737 228/341/739
f 226/351/740 288/420/741 211/354/742
f 211/354/742 288/420/741 11/353/743
f 47/46/744 48/47/745 288/419/746
f 288/419/746 48/47/745 11/13/747
f 49/215/748 230/344/749 228/341/750
f 228/341/750 230/344/749 229/342/751
f 137/225/752 303/439/753 46/220/754
f 46/220/754 303/439/753 139/228/755
f 47/46/756 46/222/757 228/341/758
f 228/341/758 46/222/757 49/215/759
f 46/220/760 254/383/761 137/225/762
f 13/15/428 12/14/763 47/46/426
f 47/46/426 12/14/763 46/221/764
f 46/220/765 12/14/766 254/383/767
f 254/383/767 12/14/766 136/224/768
f 145/237/769 242/369/770 144/236/771
f 262/391/772 242/369/773 261/390/774
f 261/390/774 242/369/773 145/237/775
f 144/236/776 11/13/777 145/237/778
f 145/237/778 11/13/777 134/170/779
f 230/343/780 5/7/781 229/342/782
f 229/342/782 5/7/781 48/47/783
f 230/343/784 49/48/785 305/442/786
f 305/442/786 49/48/785 139/227/787
f 49/48/785 46/45/788 139/227/787
f 304/440/789 305/441/790 303/439/791
f 303/439/791 305/441/790 139/228/792
f 230/343/793 305/442/794 5/164/795
f 253/382/796 119/138/797 148/240/798
f 148/240/798 119/138/797 306/443/799
f 253/382/800 148/240/801 149/241/802
f 149/241/802 148/240/801 152/244/803
f 148/240/804 306/443/805 2/2/806
f 127/135/807 119/138/808 128/163/809
f 119/138/808 253/382/810 128/163/809
f 253/382/810 149/241/811 128/163/809
f 149/241/811 124/223/812 128/163/809
f 150/243/813 126/204/814 151/242/815
f 151/242/815 126/204/814 140/230/816
f 151/242/817 140/230/818 152/244/819
f 152/244/819 140/230/818 123/211/820
f 303/439/821 137/225/822 125/229/823
f 150/243/824 147/239/825 128/559/826
f 152/244/827 148/240/828 151/242/829
f 151/242/829 148/240/828 146/238/830
f 146/238/831 138/231/832 147/239/833
f 147/239/833 138/231/832 125/205/834
f 138/226/835 5/7/836 304/440/837
f 304/440/837 5/7/836 305/441/838
f 304/440/839 303/439/840 138/226/841
f 138/226/841 303/439/840 125/229/842
f 134/170/843 11/13/844 2/2/845
f 11/13/844 48/47/846 2/2/845
f 48/47/846 5/7/847 2/2/845
f 2/2/845 5/7/847 138/226/848
f 148/240/849 2/2/850 146/238/851
f 146/238/851 2/2/850 138/231/852
f 308/444/853 307/445/854 19/24/855
f 19/24/855 307/445/854 75/69/856
f 274/404/857 199/307/858 308/446/859
f 308/446/859 199/307/858 198/308/860
f 274/404/861 273/403/862 199/307/863
f 308/446/853 19/24/855 274/404/864
f 274/404/864 19/24/855 51/49/865
f 273/403/866 274/404/867 51/49/868
f 277/407/869 273/403/870 51/49/871
f 277/407/872 54/53/386 273/403/873
f 273/403/873 54/53/386 55/5/388
f 76/199/874 200/310/875 20/202/876
f 20/202/876 200/310/875 198/309/877
f 199/307/878 60/58/879 198/308/877
f 198/308/877 60/58/879 20/201/876
f 273/403/880 60/58/881 199/307/882
f 60/58/883 273/403/884 56/208/377
f 56/208/377 273/403/884 55/5/375
f 19/24/885 17/74/886 51/49/887
f 51/49/887 17/74/886 50/50/888
f 201/311/889 73/198/890 307/445/891
f 307/445/891 73/198/890 75/69/892
f 17/74/886 19/24/885 73/198/893
f 73/198/893 19/24/885 75/69/894
f 200/310/895 76/199/896 201/311/897
f 201/311/897 76/199/896 74/196/898
f 74/197/899 299/434/900 201/312/901
f 299/434/900 301/437/902 201/312/901
f 201/312/901 301/437/902 73/20/903
f 300/435/904 17/74/905 73/198/906
f 73/20/907 301/437/908 300/435/909
f 300/435/909 301/437/908 68/184/910
f 308/444/859 198/309/860 307/445/911
f 307/445/911 198/309/860 200/310/912
f 201/311/913 307/445/914 200/310/915
f 27/30/916 28/31/917 26/29/35
f 26/29/35 28/31/917 29/32/37
f 27/30/918 26/29/919 8/10/920
f 8/10/920 26/29/919 195/302/921
f 99/176/922 170/174/923 6/179/39
f 6/179/39 170/174/923 169/1/40
f 27/30/924 99/91/925 28/31/926
f 28/31/926 99/91/925 31/34/26
f 99/91/925 6/8/27 31/34/26
f 10/12/927 54/53/928 195/302/929
f 54/53/928 53/52/930 195/302/929
f 195/302/929 53/52/930 8/10/931
f 313/451/932 21/25/933 278/408/934
f 278/408/934 21/25/933 72/68/935
f 22/26/936 8/10/937 52/51/938
f 52/51/938 8/10/937 53/52/939
f 275/405/940 22/26/941 276/406/942
f 276/406/942 22/26/941 52/51/943
f 21/25/933 302/454/944 72/68/935
f 72/68/935 302/454/944 78/73/945
f 17/74/946 300/435/947 275/405/948
f 300/435/947 78/73/949 275/405/948
f 275/405/948 78/73/949 302/455/950
f 279/410/951 278/408/952 68/185/953
f 68/185/953 278/408/952 72/68/954
f 68/184/955 72/68/956 300/435/957
f 300/435/957 72/68/956 78/73/958
f 275/405/959 302/438/960 22/26/961
f 302/453/962 21/452/963 22/26/964
f 285/362/965 309/447/661 284/418/660
f 309/447/654 285/362/966 310/448/656
f 310/448/656 285/362/966 84/194/967
f 80/193/968 311/449/404 286/349/403
f 312/450/407 311/449/406 70/66/969
f 70/66/969 311/449/406 80/193/970
f 87/80/971 313/451/932 81/77/972
f 81/77/972 313/451/932 280/411/973
f 280/411/973 313/451/932 278/408/934
f 143/235/974 261/456/975 314/457/976
f 314/457/976 261/456/975 315/390/977
f 133/203/978 143/458/979 316/459/980
f 316/459/980 143/458/979 314/235/981
f 290/422/982 133/461/983 317/460/984
f 317/460/984 133/461/983 316/203/985
f 1/3/986 290/462/987 318/463/988
f 318/463/988 290/462/987 317/422/989
f 120/169/990 1/465/991 319/464/992
f 319/464/992 1/465/991 318/3/993
f 261/390/994 145/467/995 315/466/996
f 315/466/996 145/467/995 320/237/997
f 145/237/998 134/469/999 320/468/1000
f 320/468/1000 134/469/999 321/170/1001
f 2/2/1002 306/470/1003 322/471/1004
f 322/471/1004 306/470/1003 323/443/1005
f 134/170/1006 2/473/1007 321/472/1008
f 321/472/1008 2/473/1007 322/2/1009
f 119/475/1010 324/138/1011 306/443/1012
f 306/443/1012 324/138/1011 323/474/1013
f 21/452/963 170/92/1014 22/26/964
f 22/26/964 170/92/1014 8/10/1015
f 8/10/1015 170/92/1014 27/30/1016
f 170/92/1014 99/91/1017 27/30/1016
f 86/476/1018 286/477/1019 81/478/1020
f 286/479/1021 287/480/1022 81/481/1023
f 87/482/1024 81/483/1025 287/484/1026
f 310/485/1027 84/486/1028 69/487/1029
f 312/488/1030 70/489/1031 85/490/1032
f 70/492/1033 69/493/1034 85/491/1035
f 85/491/1035 69/493/1034 84/494/1036
f 284/495/1037 88/498/1038 285/499/1039
f 83/496/1040 82/497/1041 284/495/1037
f 284/495/1037 82/497/1041 88/498/1038
f 88/114/1042 24/500/1043 326/501/1044
f 326/501/1044 24/500/1043 325/81/1045
f 24/104/1046 111/502/1047 325/503/1048
f 325/503/1048 111/502/1047 327/27/1049
f 183/504/1050 328/160/1051 135/285/1052
f 135/285/1052 328/160/1051 329/505/1053
f 207/317/1054 206/506/1055 331/507/1056
f 331/507/1056 206/506/1055 330/318/1057
f 110/319/1058 208/508/1059 333/509/1060
f 333/509/1060 208/508/1059 332/4/1061
f 234/318/1062 207/510/1063 334/511/1064
f 334/511/1064 207/510/1063 331/359/1065
f 234/512/1066 334/319/1067 208/359/1068
f 208/359/1068 334/319/1067 332/513/1069
f 129/514/1070 335/363/1071 237/233/1072
f 237/233/1072 335/363/1071 336/515/1073
f 183/363/1074 237/516/1075 328/517/1076
f 328/517/1076 237/516/1075 336/285/1077
f 205/397/1078 267/518/1079 338/519/1080
f 338/519/1080 267/518/1079 337/316/1081
f 135/520/1082 329/400/1083 270/160/1084
f 270/160/1084 329/400/1083 339/521/1085
f 267/400/1086 270/522/1087 337/523/1088
f 337/523/1088 270/522/1087 339/397/1089
f 205/524/1090 338/402/1091 272/316/1092
f 272/316/1092 338/402/1091 340/525/1093
f 206/402/1094 272/526/1095 330/527/1096
f 330/527/1096 272/526/1095 340/317/1097
f 125/225/1098 137/528/1099 342/529/1100
f 342/529/1100 137/528/1099 341/229/1101
f 193/301/1102 194/530/1103 344/531/1104
f 344/531/1104 194/530/1103 343/300/1105
f 209/139/1106 169/532/1107 346/533/1108
f 346/533/1108 169/532/1107 345/320/1109
f 194/320/1110 209/534/1111 343/535/1112
f 343/535/1112 209/534/1111 346/301/1113
f 193/536/1114 344/368/1115 241/300/1116
f 241/300/1116 344/368/1115 347/537/1117
f 203/368/1118 241/538/1119 348/539/1120
f 348/539/1120 241/538/1119 347/314/1121
f 136/540/1122 349/383/1123 254/224/1124
f 254/224/1124 349/383/1123 350/541/1125
f 137/383/1126 254/542/1127 341/543/1128
f 341/543/1128 254/542/1127 350/225/1129
f 203/544/1130 348/384/1131 255/314/1132
f 255/314/1132 348/384/1131 351/545/1133
f 136/384/1134 255/546/1135 349/547/1136
f 349/547/1136 255/546/1135 351/224/1137
f 313/80/1138 87/548/1139 353/549/1140
f 353/549/1140 87/548/1139 352/451/1141
f 170/452/1142 21/550/1143 355/551/1144
f 355/551/1144 21/550/1143 354/92/1145
f 21/451/1146 313/552/1147 354/553/1148
f 354/553/1148 313/552/1147 353/25/1149
f 147/554/1150 127/556/1151 128/557/1152
f 150/558/824 128/559/826 126/560/1153
f 147/554/1150 125/555/1154 127/556/1151
f 151/242/1155 146/238/1156 150/243/824
f 150/243/824 146/238/1156 147/239/825
f 125/561/1157 356/564/1158 127/563/1159
f 125/561/1157 342/562/1160 356/564/1158
f 132/565/1161 131/566/1162 130/567/1163
f 130/568/1164 131/569/1165 250/570/1166
f 250/571/1167 131/572/1168 296/573/1169
f 129/574/1170 296/575/1171 131/576/1172
f 335/577/1173 129/578/1174 357/580/1175
f 357/580/1175 129/578/1174 131/579/1176
f 179/582/1177 177/583/1178 172/581/1179
f 172/581/1179 177/583/1178 176/584/1180
f 172/586/1181 176/587/1182 185/585/1183
f 185/585/1183 176/587/1182 188/588/1184
f 185/590/1185 188/591/1186 173/589/1187
f 173/589/1187 188/591/1186 182/592/1188
f 156/594/1189 161/595/1190 160/593/1191
f 160/593/1191 161/595/1190 162/596/1192
f 156/597/1193 166/598/1194 161/600/1195
f 161/600/1195 166/598/1194 168/599/1196
f 166/601/1197 190/602/1198 168/604/1199
f 168/604/1199 190/602/1198 192/603/1200
f 190/605/1201 155/606/1202 192/607/1203
f 192/608/1204 155/609/1205 164/610/1206
f 127/611/1207 356/612/1208 119/614/1209
f 119/614/1209 356/612/1208 324/613/1210
f 319/616/1211 357/617/1212 120/615/1213
f 120/615/1213 357/617/1212 131/618/1214
f 87/619/1215 287/620/1216 352/621/1217
f 88/622/1218 326/623/1219 285/624/1220
