# This file uses centimeters as units for non-parametric coordinates.

v 7.882685 3.729667 4.043545
v -7.873287 3.729667 4.043545
v -8.990291 3.729667 4.043545
v 9.903090 3.729667 4.043545
v 4.539958 3.729667 4.043545
v -4.474869 3.729667 4.043545
v 2.846185 3.729667 4.043545
v -2.662763 3.729667 4.043545
v -0.026991 3.729667 4.043545
v 7.105834 3.729667 4.043545
v -7.898515 3.718051 4.094027
v -8.990291 -2.671180 4.043545
v -7.873663 -2.674704 4.044299
v -7.873287 -2.674867 4.043545
v -2.663143 -2.695489 4.043545
v -0.109461 -2.705596 4.043545
v 2.847703 -2.692394 4.043545
v 6.972600 -2.673985 4.043545
v 7.882685 -2.669926 4.043545
v 9.903090 -2.660909 4.043545
v -8.990291 -9.445536 4.043545
v -7.873312 -9.447089 4.043595
v -7.873287 -9.447098 4.043545
v -2.663146 -9.454369 4.043545
v -0.110252 -9.457934 4.043545
v 2.847721 -9.462066 4.043545
v 6.970699 -9.467821 4.043545
v 7.882685 -9.469098 4.043545
v 9.903090 -9.471917 4.043545
v -0.079827 -39.886597 4.618257
v 6.620317 -39.886597 4.618257
v -7.425399 -39.886597 4.618265
v -8.482337 -39.886597 4.618257
v -7.425395 -39.886597 4.618257
v -2.495407 -39.886597 4.618257
v 2.719139 -39.886597 4.618257
v 7.483370 -39.886597 4.618257
v 9.395136 -39.886597 4.618257
v -0.066350 -55.395798 4.776744
v 6.534328 -55.704182 4.794469
v -7.326052 -55.056675 4.757238
v -8.372643 -55.007751 4.754420
v -7.326051 -55.056690 4.757234
v -2.451007 -55.284344 4.770336
v 2.693520 -55.524677 4.784159
v 7.383121 -55.743813 4.796747
v 9.262091 -55.831627 4.801790
v -8.636614 -25.947292 4.443704
v -7.561541 -25.937492 4.443563
v -2.546587 -25.891783 4.442904
v 2.758528 -25.843430 4.442204
v 7.606138 -25.799244 4.441563
v 9.551533 -25.781511 4.441305
v -0.089127 -25.869383 4.442580
v 6.727970 -25.807245 4.441679
v -7.561550 -25.937487 4.443583
vt 0.131699 0.381633
vt 0.869639 0.367108
vt 0.049512 0.383639
vt 0.946191 0.369918
vt 0.298155 0.377746
vt 0.731019 0.369837
vt 0.622727 0.371735
vt 0.376246 0.374713
vt 0.494176 0.373288
vt 0.833251 0.367825
vt 0.128392 0.377150
vt 0.104052 0.007888
vt 0.169735 0.015942
vt 0.169786 0.015990
vt 0.386586 0.011520
vt 0.487788 0.009432
vt 0.604988 0.008423
vt 0.773899 0.006916
vt 0.811140 0.006584
vt 0.882435 0.010484
vt 0.061358 0.339567
vt 0.135560 0.340346
vt 0.135563 0.340349
vt 0.380830 0.340269
vt 0.495363 0.340241
vt 0.628090 0.340383
vt 0.818919 0.340575
vt 0.861135 0.340617
vt 0.941825 0.341102
vt 0.487119 0.070081
vt 0.775573 0.065274
vt 0.166231 0.075493
vt 0.100046 0.076344
vt 0.166232 0.075493
vt 0.384982 0.071803
vt 0.605469 0.068109
vt 0.813205 0.064646
vt 0.885122 0.063575
vt 0.491285 0.329608
vt 0.808517 0.329528
vt 0.138373 0.329707
vt 0.065588 0.329512
vt 0.138373 0.329707
vt 0.378955 0.329639
vt 0.621445 0.329575
vt 0.849904 0.329517
vt 0.928992 0.329600
vt 0.059554 0.358590
vt 0.134128 0.358196
vt 0.380596 0.355389
vt 0.629032 0.352638
vt 0.863123 0.350099
vt 0.944167 0.349443
vt 0.495679 0.354081
vt 0.820717 0.350559
vt 0.134126 0.358195
vn -0.000000 0.000000 1.000000
vn -0.000000 0.000000 1.000000
vn 0.000000 0.000000 1.000000
vn 0.000000 0.000000 1.000000
vn 0.000000 0.000000 1.000000
vn 0.000000 0.000000 1.000000
vn 0.000000 0.000000 1.000000
vn 0.000000 0.000000 1.000000
vn 0.000000 0.000000 1.000000
vn -0.000000 0.000000 1.000000
vn -0.000000 0.000000 1.000000
vn 0.000000 0.000000 1.000000
vn 0.000000 0.000000 1.000000
vn -0.000000 0.000000 1.000000
vn -0.000000 0.000000 1.000000
vn -0.000000 0.000000 1.000000
vn 0.000000 0.000000 1.000000
vn 0.000000 0.000000 1.000000
vn -0.000000 0.000000 1.000000
vn 0.000000 0.000000 1.000000
vn 0.000000 0.000000 1.000000
vn 0.526057 0.000000 0.850449
vn 0.686558 -0.000000 0.727075
vn 0.894494 -0.000000 0.447081
vn 0.894520 -0.000000 0.447029
vn 0.000000 0.000000 1.000000
vn 0.000000 0.000000 1.000000
vn 0.000000 0.000000 1.000000
vn -0.046189 0.000000 0.998933
vn -0.015858 -0.002594 0.999871
vn -0.023451 -0.003892 0.999717
vn -0.000474 -0.002628 0.999996
vn -0.000244 0.008047 0.999968
vn -0.000056 0.016129 0.999870
vn 0.251539 0.006813 0.967823
vn 0.894986 0.000000 0.446094
vn -0.000019 0.016181 0.999869
vn 0.000017 0.012155 0.999926
vn -0.000014 0.012150 0.999926
vn 0.000011 0.008110 0.999967
vn -0.000018 0.016213 0.999869
vn 0.000011 0.008120 0.999967
vn -0.000019 0.016230 0.999868
vn 0.000011 0.008122 0.999967
vn -0.000019 0.016243 0.999868
vn -0.000018 0.016250 0.999868
vn 0.000011 0.008127 0.999967
vn -0.000041 0.020337 0.999793
vn -0.000040 0.016430 0.999865
vn -0.000013 0.020391 0.999792
vn -0.000024 0.016458 0.999865
vn -0.000013 0.020410 0.999792
vn -0.000024 0.016469 0.999864
vn -0.000013 0.020423 0.999791
vn -0.000024 0.016481 0.999864
vn -0.000006 0.011349 0.999936
vn -0.001136 0.009075 0.999958
vn -0.000760 0.010224 0.999947
vn -0.002265 0.009146 0.999956
vn -0.000742 0.010520 0.999944
vn -0.000024 0.016447 0.999865
vn 0.000006 0.011404 0.999935
vn -0.000013 0.020354 0.999793
vn 0.000000 0.011203 0.999937
vn -0.000548 0.011288 0.999936
vn -0.000024 0.016450 0.999865
vn -0.000013 0.020376 0.999792
vn 0.000000 0.011375 0.999935
vn -0.001095 0.010415 0.999945
vn -0.000543 0.011474 0.999934
vn -0.002191 0.010612 0.999941
vn 0.000000 0.011572 0.999933
vn -0.001081 0.010880 0.999940
vn -0.000536 0.011709 0.999931
vn -0.002163 0.011151 0.999936
vn 0.000000 0.011840 0.999930
vn -0.001079 0.011204 0.999937
vn -0.000535 0.011873 0.999929
vn -0.002159 0.011269 0.999934
vn 0.000000 0.011899 0.999929
vn -0.000532 0.011967 0.999928
vn -0.000024 0.016485 0.999864
vn -0.000012 0.020431 0.999791
vn -0.002227 0.009870 0.999949
vn -0.001113 0.009515 0.999954
vn -0.002210 0.010216 0.999945
vn -0.001105 0.010046 0.999949
vn -0.002144 0.011527 0.999931
vn -0.001072 0.011391 0.999935
f 16/16/1 17/17/2 9/9/3
f 9/9/3 17/17/2 7/7/4
f 7/7/5 17/17/6 5/6/7
f 17/17/6 18/18/8 5/6/7
f 5/6/7 18/18/8 10/10/9
f 19/19/10 20/20/11 1/2/12
f 1/2/12 20/20/11 4/4/13
f 18/18/14 19/19/15 10/10/16
f 10/10/16 19/19/15 1/2/17
f 15/15/18 16/16/19 8/8/20
f 8/8/20 16/16/19 9/9/21
f 14/14/22 2/1/23 13/13/24
f 11/11/25 13/13/24 2/1/23
f 8/8/26 6/5/27 15/15/28
f 15/15/28 6/5/27 14/14/22
f 14/14/22 6/5/27 2/1/23
f 3/3/29 12/12/30 11/11/31
f 11/11/31 12/12/30 13/13/32
f 12/12/30 21/21/33 13/13/32
f 13/13/32 21/21/33 22/22/34
f 23/23/35 14/14/22 22/22/36
f 14/14/22 13/13/24 22/22/36
f 24/24/37 15/15/28 23/23/35
f 23/23/35 15/15/28 14/14/22
f 25/25/38 16/16/19 24/24/39
f 24/24/39 16/16/19 15/15/18
f 17/17/2 16/16/1 26/26/40
f 26/26/40 16/16/1 25/25/41
f 18/18/8 17/17/6 27/27/42
f 27/27/42 17/17/6 26/26/43
f 19/19/15 18/18/14 28/28/44
f 28/28/44 18/18/14 27/27/45
f 28/28/46 29/29/47 19/19/10
f 19/19/10 29/29/47 20/20/11
f 21/21/33 48/48/48 22/22/34
f 22/22/34 48/48/48 56/56/49
f 26/26/40 25/25/41 51/51/50
f 51/51/50 25/25/41 54/54/51
f 27/27/42 26/26/43 55/55/52
f 55/55/52 26/26/43 51/51/53
f 28/28/44 27/27/45 52/52/54
f 52/52/54 27/27/45 55/55/55
f 33/33/56 42/42/57 32/32/58
f 32/32/58 42/42/57 41/41/59
f 35/35/60 50/50/61 34/34/62
f 34/34/62 50/50/61 49/49/63
f 35/35/64 30/30/65 50/50/66
f 50/50/66 30/30/65 54/54/67
f 30/30/68 39/39/69 36/36/70
f 36/36/70 39/39/69 45/45/71
f 36/36/72 45/45/73 31/31/74
f 31/31/74 45/45/73 40/40/75
f 31/31/76 40/40/77 37/37/78
f 37/37/78 40/40/77 46/46/79
f 37/37/80 38/38/81 52/52/82
f 52/52/82 38/38/81 53/53/83
f 44/44/84 35/35/60 43/43/85
f 43/43/85 35/35/60 34/34/62
f 39/39/86 30/30/65 44/44/87
f 44/44/87 30/30/65 35/35/64
f 47/47/88 38/38/81 46/46/89
f 46/46/89 38/38/81 37/37/80
f 48/48/48 33/33/56 56/56/49
f 56/56/49 33/33/56 32/32/58
f 51/51/50 54/54/51 36/36/70
f 36/36/70 54/54/51 30/30/68
f 55/55/52 51/51/53 31/31/74
f 31/31/74 51/51/53 36/36/72
f 52/52/54 55/55/55 37/37/78
f 37/37/78 55/55/55 31/31/76
f 50/50/61 24/24/37 49/49/63
f 49/49/63 24/24/37 23/23/35
f 50/50/66 54/54/67 24/24/39
f 24/24/39 54/54/67 25/25/38
f 52/52/82 53/53/83 28/28/46
f 28/28/46 53/53/83 29/29/47
