# This file uses centimeters as units for non-parametric coordinates.

v -0.500000 -0.500000 0.000000
v 0.571093 -0.500000 0.000000
v -0.500000 0.500000 0.000000
v 0.571093 0.500000 0.000000
v 0.366906 0.500000 0.000000
v 0.382615 -0.500000 0.000000
vt 0.596647 0.834215
vt 0.781309 0.834215
vt 0.596647 0.998766
vt 0.781309 0.998766
vt 0.744479 0.998766
vt 0.747158 0.834215
vn 0.000000 0.000000 1.000000
vn 0.000000 0.000000 1.000000
vn 0.000000 0.000000 1.000000
vn 0.000000 0.000000 1.000000
vn 0.000000 0.000000 1.000000
vn 0.000000 0.000000 1.000000
f 5/5/1 6/6/2 4/4/3
f 4/4/3 6/6/2 2/2/4
f 6/6/2 5/5/1 1/1/5
f 1/1/5 5/5/1 3/3/6
