# This file uses centimeters as units for non-parametric coordinates.

v -0.010670 0.046884 0.057059
v 0.007718 0.033131 0.057205
v -0.017827 0.065217 -0.048920
v 0.015846 0.057626 -0.064588
v 0.024683 0.019581 -0.073917
v -0.056670 -0.020979 -0.064013
v -0.017931 -0.027176 -0.057169
v 0.015424 -0.019035 -0.064644
v -0.041483 -0.006824 0.041840
v -0.018984 -0.019861 0.041840
v 0.001432 -0.015688 0.057049
v 0.016322 0.011349 0.057128
v -0.013238 0.017247 0.081104
v -0.018320 0.061420 -0.090244
v 0.013162 0.056919 -0.091225
v -0.018912 0.015766 -0.139151
v -0.016462 -0.006450 0.071070
v -0.031764 0.001091 0.071045
v -0.032187 0.020346 0.071253
v -0.011066 0.037152 0.071193
v 0.003070 0.029329 0.071245
v 0.005277 0.013615 0.071264
v -0.003371 -0.003911 0.071203
v -0.055643 0.046345 -0.093084
v -0.055899 0.053685 -0.059339
v -0.031574 0.038716 0.055338
v -0.055189 -0.021143 -0.039976
v -0.018696 -0.028507 -0.045024
v 0.017936 -0.019913 -0.042181
v 0.027607 0.018771 -0.044521
v 0.016399 0.055175 -0.036295
v -0.019010 0.064250 -0.036488
v -0.054190 0.052929 -0.033957
v -0.051958 -0.028282 -0.111449
v -0.016850 -0.036711 -0.117731
v 0.014936 -0.023335 -0.114769
v 0.022277 0.020381 -0.090821
v -0.035290 0.020755 0.050905
v -0.056647 0.023091 -0.036486
v -0.058452 0.023159 -0.061622
v -0.052973 0.022091 -0.103204
v -0.025352 0.029719 0.071228
vt 0.016240 0.844622
vt 0.045348 0.809010
vt 0.093397 0.820639
vt 0.108007 0.844669
vt 0.106033 0.730322
vt 0.099640 0.767624
vt 0.087049 0.941815
vt 0.050055 0.770819
vt 0.046431 0.730322
vt 0.087811 0.980875
vt 0.050349 0.790514
vt 0.091253 0.793345
vt 0.014988 0.730322
vt 0.022405 0.778520
vt 0.038500 0.980841
vt 0.048551 0.934278
vt 0.007921 0.792236
vt 0.021157 0.789456
vt 0.020463 0.802022
vt 0.048990 0.915881
vt 0.015754 0.813906
vt 0.118406 0.844695
vt 0.125407 0.821424
vt 0.158069 0.816647
vt 0.090792 0.914615
vt 0.090418 0.890346
vt 0.178522 0.844641
vt 0.158044 0.796987
vt 0.132187 0.796048
vt 0.157894 0.774195
vt 0.044437 0.897419
vt 0.039328 0.860106
vt 0.129648 0.771513
vt 0.178819 0.730322
vt 0.127038 0.730304
vt 0.087785 0.859872
vt 0.195731 0.796451
vt 0.172926 0.980916
vt 0.159800 0.916808
vt 0.163338 0.940651
vt 0.191379 0.918954
vt 0.175741 0.859920
vt 0.156138 0.899139
vt 0.021586 0.914795
vt 0.122380 0.891031
vt 0.021273 0.927387
vt 0.016599 0.860238
vt 0.021140 0.904719
vt 0.014667 0.980785
vt 0.007476 0.914979
vt 0.126299 0.939424
vt 0.125192 0.917674
vt 0.121980 0.980875
vt 0.116178 0.859862
vn 0.741310 0.548955 0.386146
vn 0.664900 0.733747 0.139724
vn 0.139995 0.921769 0.361585
vn -0.097530 0.983772 0.150604
vn 0.014931 -0.999879 -0.004383
vn -0.195716 -0.946902 0.255091
vn -0.714272 -0.693870 0.091436
vn -0.893653 -0.332757 0.301094
vn 0.597610 -0.801419 0.024265
vn 0.400810 -0.806028 0.435511
vn 0.929083 -0.083443 0.360336
vn 0.999822 0.011393 -0.015036
vn -0.988504 0.044625 0.144458
vn -0.970066 0.098826 0.221824
vn -0.762752 0.621914 0.177292
vn -0.637346 0.661719 0.394864
vn -0.786271 0.204428 0.583084
vn -0.695327 -0.383896 0.607573
vn 0.043214 0.724361 0.688065
vn -0.439791 0.513687 0.736688
vn -0.109974 -0.690775 0.714658
vn 0.439687 -0.448363 0.778232
vn -0.011584 0.033817 0.999361
vn 0.712671 -0.013371 0.701371
vn 0.589877 0.404114 0.699097
vn -0.033555 0.999305 0.016234
vn 0.679797 0.731878 -0.047229
vn -0.081838 0.945489 -0.315202
vn 0.709588 0.585149 -0.392537
vn 0.940766 0.046114 -0.335905
vn 0.992076 0.044322 -0.117562
vn 0.774052 -0.404655 -0.486927
vn 0.780922 -0.623788 -0.032392
vn 0.110556 -0.923846 -0.366450
vn -0.004629 -0.999697 0.024193
vn -0.851748 -0.523890 -0.008085
vn -0.999908 -0.001190 -0.013518
vn -0.017063 0.238030 -0.971108
vn -0.786665 0.616883 -0.024759
vn -0.790440 0.451856 -0.413560
vn -0.665549 -0.630906 -0.398751
vn -0.928198 0.046535 -0.369165
f 2/2/1 31/3/2 1/1/3
f 1/1/3 31/3/2 32/4/4
f 28/10/5 10/15/6 27/7/7
f 27/7/7 10/15/6 9/16/8
f 28/5/5 29/6/9 10/9/6
f 10/9/6 29/6/9 11/8/10
f 11/8/10 29/6/9 12/11/11
f 12/11/11 29/6/9 30/12/12
f 2/2/1 12/11/11 31/3/2
f 31/3/2 12/11/11 30/12/12
f 27/7/7 9/16/8 39/25/13
f 39/25/13 9/16/8 38/20/14
f 33/26/15 26/31/16 32/36/4
f 32/36/4 26/31/16 1/32/3
f 19/44/17 38/20/14 18/46/18
f 18/46/18 38/20/14 9/16/8
f 1/32/3 26/31/16 20/47/19
f 20/47/19 26/31/16 42/48/20
f 17/13/21 23/14/22 13/17/23
f 12/11/11 2/2/1 22/18/24
f 22/18/24 2/2/1 21/19/25
f 21/19/25 2/2/1 20/21/19
f 20/21/19 2/2/1 1/1/3
f 11/8/10 12/11/11 23/14/22
f 23/14/22 12/11/11 22/18/24
f 17/49/21 18/46/18 10/15/6
f 10/15/6 18/46/18 9/16/8
f 3/22/26 4/23/27 14/27/28
f 14/27/28 4/23/27 15/24/29
f 37/28/30 15/24/29 5/29/31
f 5/29/31 15/24/29 4/23/27
f 36/30/32 37/28/30 8/33/33
f 8/33/33 37/28/30 5/29/31
f 36/30/32 8/33/33 35/34/34
f 35/34/34 8/33/33 7/35/35
f 17/49/21 13/50/23 18/46/18
f 13/50/23 19/44/17 18/46/18
f 13/50/23 42/48/20 19/44/17
f 13/50/23 20/47/19 42/48/20
f 13/17/23 21/19/25 20/21/19
f 13/17/23 22/18/24 21/19/25
f 23/14/22 22/18/24 13/17/23
f 23/14/22 17/13/21 11/8/10
f 11/8/10 17/13/21 10/9/6
f 42/48/20 26/31/16 19/44/17
f 19/44/17 26/31/16 38/20/14
f 6/51/36 27/7/7 40/52/37
f 40/52/37 27/7/7 39/25/13
f 6/51/36 7/53/35 27/7/7
f 27/7/7 7/53/35 28/10/5
f 8/33/33 29/6/9 7/35/35
f 7/35/35 29/6/9 28/5/5
f 29/6/9 8/33/33 30/12/12
f 30/12/12 8/33/33 5/29/31
f 31/3/2 30/12/12 4/23/27
f 4/23/27 30/12/12 5/29/31
f 32/4/4 31/3/2 3/22/26
f 3/22/26 31/3/2 4/23/27
f 36/30/32 16/37/38 37/28/30
f 32/36/4 3/54/26 33/26/15
f 33/26/15 3/54/26 25/45/39
f 24/43/40 14/42/28 16/41/38
f 37/28/30 16/37/38 15/24/29
f 34/40/41 6/51/36 41/39/42
f 41/39/42 6/51/36 40/52/37
f 24/43/40 25/45/39 14/42/28
f 14/42/28 25/45/39 3/54/26
f 6/51/36 34/40/41 7/53/35
f 7/53/35 34/40/41 35/38/34
f 34/40/41 16/41/38 35/38/34
f 39/25/13 38/20/14 33/26/15
f 33/26/15 38/20/14 26/31/16
f 40/52/37 39/25/13 25/45/39
f 25/45/39 39/25/13 33/26/15
f 41/39/42 40/52/37 24/43/40
f 24/43/40 40/52/37 25/45/39
f 15/24/29 16/37/38 14/27/28
f 16/41/38 41/39/42 24/43/40
f 16/41/38 34/40/41 41/39/42
f 36/30/32 35/34/34 16/37/38
