# This file uses centimeters as units for non-parametric coordinates.

v -0.035718 0.033240 0.046473
v -0.013677 0.035773 0.072442
v 0.008805 0.033240 0.046473
v -0.082728 0.081309 -0.004999
v -0.021736 0.093366 -0.003960
v 0.027706 0.073725 -0.006713
v -0.042833 0.078326 -0.200101
v 0.013298 0.100120 -0.181434
v 0.054983 0.081246 -0.175934
v -0.058775 0.004599 -0.213493
v 0.009035 0.003140 -0.218997
v 0.075108 0.008716 -0.184654
v -0.048585 -0.058716 -0.208206
v 0.015581 -0.077033 -0.167685
v 0.059441 -0.054555 -0.171761
v -0.088354 -0.057308 -0.024565
v -0.025487 -0.071928 -0.021790
v 0.040709 -0.057608 -0.021470
v -0.036369 -0.007599 0.042543
v -0.012654 -0.014056 0.067923
v 0.009413 -0.007599 0.042543
v -0.042127 0.009301 0.051922
v -0.013678 0.009301 0.077891
v 0.014773 0.009301 0.051922
v 0.058779 0.005449 -0.012822
v -0.082183 0.016414 -0.055956
v -0.011266 0.049862 -0.089736
v -0.037132 0.042266 -0.094919
v -0.047896 0.011113 -0.097081
v -0.038513 -0.015038 -0.095227
v -0.011266 -0.022469 -0.089737
v 0.015957 -0.014989 -0.084245
v 0.024367 0.011144 -0.082513
v 0.014468 0.042228 -0.084519
v -0.081781 0.003573 -0.209736
v -0.061904 0.074218 -0.193733
v -0.002331 0.103273 -0.147883
v 0.048061 0.084262 -0.124957
v 0.067700 0.014156 -0.133198
v 0.061357 -0.056038 -0.122410
v 0.013120 -0.081232 -0.123741
v -0.065315 -0.067362 -0.190550
v -0.078188 0.069640 -0.169998
v -0.016575 0.086552 -0.117901
v 0.044355 0.062089 -0.100161
v 0.050907 0.013464 -0.083877
v 0.040244 -0.038015 -0.089186
v 0.014750 -0.069459 -0.100096
v -0.074128 -0.067379 -0.167822
v -0.105173 0.001055 -0.197940
v 0.013439 0.076526 -0.200022
v -0.028097 0.060913 -0.208837
v -0.030013 0.005787 -0.219670
v -0.029931 -0.044299 -0.212980
v 0.015006 -0.058731 -0.196967
v 0.059029 -0.048188 -0.189171
v 0.059979 0.008462 -0.209563
v 0.052100 0.059502 -0.193404
vt 0.240611 0.955799
vt 0.240611 0.918923
vt 0.291008 0.918923
vt 0.291008 0.955799
vt 0.240611 0.882443
vt 0.291008 0.882443
vt 0.355187 0.918923
vt 0.355187 0.955799
vt 0.355187 0.882443
vt 0.310282 0.580236
vt 0.340603 0.580236
vt 0.310282 0.696435
vt 0.340603 0.696435
vt 0.368762 0.601201
vt 0.310282 0.601201
vt 0.340603 0.662569
vt 0.310282 0.662569
vt 0.340603 0.635586
vt 0.310282 0.635586
vt 0.275347 0.696435
vt 0.275347 0.717289
vt 0.310282 0.717289
vt 0.275347 0.662569
vt 0.355187 0.826263
vt 0.355187 0.789675
vt 0.291008 0.789675
vt 0.291008 0.826263
vt 0.355187 0.750405
vt 0.291008 0.750405
vt 0.240611 0.789675
vt 0.240611 0.826263
vt 0.240611 0.750405
vt 0.218640 0.789675
vt 0.218640 0.847735
vt 0.218640 0.735031
vt 0.291008 0.735031
vt 0.355187 0.735031
vt 0.291008 0.847735
vt 0.355187 0.847735
vt 0.340603 0.515514
vt 0.310282 0.515514
vt 0.310282 0.493585
vt 0.275347 0.635586
vt 0.275347 0.611433
vt 0.310282 0.611433
vt 0.239419 0.611433
vt 0.239419 0.635586
vt 0.368762 0.493585
vt 0.239419 0.662569
vt 0.239419 0.696435
vt 0.239419 0.717289
vt 0.207569 0.611433
vt 0.207569 0.635586
vt 0.207569 0.662569
vt 0.207569 0.696435
vt 0.207569 0.717289
vt 0.368762 0.611433
vt 0.368762 0.717289
vt 0.275347 0.580236
vt 0.275347 0.541846
vt 0.310282 0.541846
vt 0.275347 0.601201
vt 0.368762 0.662569
vt 0.368762 0.541846
vt 0.340603 0.541846
vt 0.275347 0.515514
vt 0.275347 0.493585
vt 0.239419 0.601201
vt 0.239419 0.580236
vt 0.239419 0.541846
vt 0.239419 0.515514
vt 0.239419 0.493585
vt 0.207569 0.580236
vt 0.207569 0.541846
vt 0.207569 0.515514
vt 0.207569 0.493585
vt 0.207569 0.601201
vt 0.218640 0.976367
vt 0.218640 0.918923
vt 0.218640 0.858429
vt 0.291008 0.858429
vt 0.355187 0.858429
vt 0.291008 0.976367
vt 0.355187 0.976367
vn -0.015695 0.520714 0.853587
vn 0.018913 0.981564 0.190197
vn -0.539072 0.491059 0.684297
vn -0.749430 0.611450 0.253936
vn 0.668353 0.481698 0.566808
vn 0.639488 0.768698 0.012582
vn -0.478017 0.667011 -0.571486
vn 0.168172 0.885878 -0.432364
vn 0.736788 0.543182 -0.402613
vn -0.217181 0.637149 -0.739509
vn -0.068196 0.268353 -0.960904
vn -0.224024 0.084745 -0.970892
vn -0.096595 0.031869 -0.994814
vn 0.716276 0.639182 -0.279992
vn 0.969498 0.029031 -0.243375
vn 0.517911 0.358396 -0.776737
vn 0.572842 0.020509 -0.819409
vn 0.004349 -0.238352 -0.971169
vn 0.239534 -0.645733 -0.725019
vn -0.123493 -0.520599 -0.844823
vn 0.226202 -0.929514 -0.291267
vn 0.589640 -0.468859 -0.657644
vn 0.774959 -0.608658 -0.170219
vn 0.136971 -0.788705 -0.599319
vn -0.030592 -0.996153 0.082124
vn -0.476237 -0.578867 -0.661900
vn -0.799475 -0.599387 -0.039681
vn 0.730928 -0.410833 -0.544940
vn 0.632517 -0.767059 -0.107436
vn -0.720289 -0.442607 0.534119
vn -0.001503 -0.666209 0.745763
vn 0.613350 -0.571343 0.545315
vn -0.782436 -0.116639 0.611710
vn 0.003770 -0.103995 0.994571
vn 0.763674 -0.088200 0.639549
vn 0.996906 0.010621 0.077876
vn 0.896726 0.002521 -0.442579
vn -0.965635 -0.213992 -0.147503
vn -0.923235 0.179852 -0.339546
vn -0.749445 -0.310355 -0.584818
vn -0.715938 0.291394 -0.634446
vn -0.464956 0.630123 -0.621901
vn -0.088065 0.994746 0.052205
vn 0.140737 0.871530 -0.469711
vn -0.471863 0.057832 -0.879773
vn -0.389513 -0.785216 -0.481368
vn 0.067805 -0.988784 0.133071
vn 0.713918 -0.644195 0.274469
vn 0.969549 0.056508 0.238288
vn 0.578818 0.716392 0.389554
vn -0.640991 -0.135441 -0.755504
vn -0.595281 0.742280 -0.307670
vn -0.094023 0.856100 0.508186
vn 0.737835 0.450317 0.502806
vn 0.946619 0.003377 0.322338
vn 0.798568 -0.293331 0.525591
vn 0.199286 -0.824477 0.529644
vn -0.485256 -0.873950 0.027177
vn -0.096156 0.594690 0.798184
vn -0.319106 0.600218 0.733423
vn -0.604634 0.471762 0.641762
vn -0.782409 0.326896 0.530072
vn 0.107427 0.350847 0.930251
vn 0.095473 0.525063 0.845692
vn 0.051620 -0.003202 0.998662
vn 0.112509 0.053903 0.992188
vn 0.013917 -0.174094 0.984631
vn -0.035690 -0.233066 0.971806
vn -0.301603 -0.402813 0.864163
vn -0.157217 -0.309466 0.937824
vn -0.737463 -0.331847 0.588240
vn -0.548181 -0.400576 0.734191
vn -0.848150 -0.005044 0.529731
vn -0.869099 -0.009900 0.494539
vn 0.195492 0.459038 -0.866641
vn 0.159558 -0.012964 -0.987104
f 2/2/1 5/3/2 1/1/3
f 1/1/3 5/3/2 4/4/4
f 2/2/1 3/5/5 5/3/2
f 5/3/2 3/5/5 6/6/6
f 4/4/4 5/3/2 28/8/7
f 28/8/7 5/3/2 27/7/8
f 5/3/2 6/6/6 27/7/8
f 27/7/8 6/6/6 34/9/9
f 7/10/10 52/11/11 10/15/12
f 10/15/12 52/11/11 53/14/13
f 9/41/14 12/42/15 58/40/16
f 58/40/16 12/42/15 57/48/17
f 54/13/18 55/16/19 13/12/20
f 13/12/20 55/16/19 14/17/21
f 56/18/22 15/19/23 55/16/19
f 55/16/19 15/19/23 14/17/21
f 31/25/24 17/26/25 30/24/26
f 30/24/26 17/26/25 16/27/27
f 32/28/28 18/29/29 31/25/24
f 31/25/24 18/29/29 17/26/25
f 16/27/27 17/26/25 19/31/30
f 19/31/30 17/26/25 20/30/31
f 18/29/29 21/32/32 17/26/25
f 17/26/25 21/32/32 20/30/31
f 19/31/30 20/30/31 22/34/33
f 22/34/33 20/30/31 23/33/34
f 21/32/32 24/35/35 20/30/31
f 20/30/31 24/35/35 23/33/34
f 23/79/34 2/2/1 22/78/33
f 22/78/33 2/2/1 1/1/3
f 23/79/34 24/80/35 2/2/1
f 2/2/1 24/80/35 3/5/5
f 24/35/35 21/32/32 25/36/36
f 25/36/36 21/32/32 18/29/29
f 24/80/35 25/81/36 3/5/5
f 3/5/5 25/81/36 6/6/6
f 18/29/29 32/28/28 25/36/36
f 25/36/36 32/28/28 33/37/37
f 6/6/6 25/81/36 34/9/9
f 34/9/9 25/81/36 33/82/37
f 22/34/33 26/38/38 19/31/30
f 19/31/30 26/38/38 16/27/27
f 1/1/3 4/4/4 22/78/33
f 22/78/33 4/4/4 26/83/39
f 16/27/27 26/38/38 30/24/26
f 30/24/26 26/38/38 29/39/40
f 4/4/4 28/8/7 26/83/39
f 26/83/39 28/8/7 29/84/41
f 36/59/42 37/60/43 7/10/10
f 7/10/10 37/60/43 8/61/44
f 35/62/45 36/59/42 10/15/12
f 10/15/12 36/59/42 7/10/10
f 42/20/46 35/21/45 13/12/20
f 13/12/20 35/21/45 10/22/12
f 13/12/20 14/17/21 42/20/46
f 42/20/46 14/17/21 41/23/47
f 15/19/23 40/43/48 14/17/21
f 14/17/21 40/43/48 41/23/47
f 40/43/48 15/19/23 39/44/49
f 39/44/49 15/19/23 12/45/15
f 38/66/50 39/67/49 9/41/14
f 9/41/14 39/67/49 12/42/15
f 38/66/50 9/41/14 37/60/43
f 37/60/43 9/41/14 8/61/44
f 50/68/51 43/69/52 35/62/45
f 35/62/45 43/69/52 36/59/42
f 44/70/53 37/60/43 43/69/52
f 43/69/52 37/60/43 36/59/42
f 45/71/54 38/66/50 44/70/53
f 44/70/53 38/66/50 37/60/43
f 46/72/55 39/67/49 45/71/54
f 45/71/54 39/67/49 38/66/50
f 46/46/55 47/47/56 39/44/49
f 39/44/49 47/47/56 40/43/48
f 41/23/47 40/43/48 48/49/57
f 48/49/57 40/43/48 47/47/56
f 42/20/46 41/23/47 49/50/58
f 49/50/58 41/23/47 48/49/57
f 49/50/58 50/51/51 42/20/46
f 42/20/46 50/51/51 35/21/45
f 27/74/59 44/70/60 28/73/61
f 28/73/61 44/70/60 43/69/62
f 34/75/63 45/71/64 27/74/59
f 27/74/59 45/71/64 44/70/60
f 33/76/65 46/72/66 34/75/63
f 34/75/63 46/72/66 45/71/64
f 33/52/65 32/53/67 46/46/66
f 46/46/66 32/53/67 47/47/68
f 48/49/69 47/47/68 31/54/70
f 31/54/70 47/47/68 32/53/67
f 49/50/71 48/49/69 30/55/72
f 30/55/72 48/49/69 31/54/70
f 30/55/72 29/56/73 49/50/71
f 49/50/71 29/56/73 50/51/74
f 28/73/61 43/69/62 29/77/73
f 29/77/73 43/69/62 50/68/74
f 8/61/44 51/65/75 7/10/10
f 7/10/10 51/65/75 52/11/11
f 57/57/17 12/45/15 56/18/22
f 56/18/22 12/45/15 15/19/23
f 53/58/13 54/13/18 10/22/12
f 10/22/12 54/13/18 13/12/20
f 8/61/44 9/41/14 51/65/75
f 51/65/75 9/41/14 58/40/16
f 53/14/13 52/11/11 11/64/76
f 11/64/76 52/11/11 51/65/75
f 55/16/19 54/13/18 11/63/76
f 11/63/76 54/13/18 53/58/13
f 55/16/19 11/63/76 56/18/22
f 56/18/22 11/63/76 57/57/17
f 57/48/17 11/64/76 58/40/16
f 58/40/16 11/64/76 51/65/75
