# This file uses centimeters as units for non-parametric coordinates.

v -0.036682 0.023638 0.088263
v -0.010328 0.026776 0.107849
v 0.019882 0.023638 0.093790
v -0.050571 0.082395 0.019905
v -0.000193 0.074784 0.009306
v 0.061406 0.073736 0.024713
v -0.037296 0.048468 -0.093656
v 0.004424 0.050788 -0.072484
v 0.049256 0.038800 -0.065753
v -0.054265 0.007617 -0.119664
v 0.012256 0.012978 -0.141200
v 0.069869 0.000665 -0.087768
v -0.041980 -0.064347 -0.125526
v 0.023063 -0.064236 -0.121710
v 0.060087 -0.066899 -0.107762
v -0.062419 -0.089496 0.012794
v 0.008652 -0.091162 0.013139
v 0.066004 -0.087066 0.021919
v -0.037262 -0.026963 0.085631
v -0.010079 -0.026079 0.105299
v 0.020903 -0.026963 0.091314
v -0.045173 -0.006023 0.091002
v -0.010673 -0.006023 0.111385
v 0.027119 -0.006023 0.098066
v 0.082185 -0.001145 0.023499
v -0.069317 0.001627 0.018073
v -0.043281 0.055962 -0.053947
v 0.004204 0.056441 -0.051225
v 0.060733 0.041777 -0.036559
v 0.073824 0.002574 -0.047098
v 0.070043 -0.044383 -0.044781
v 0.004946 -0.056528 -0.058826
v -0.049935 -0.057070 -0.068832
v -0.064080 -0.000647 -0.071271
v -0.038800 0.008481 -0.142498
v 0.029610 -0.046637 -0.151418
v 0.053253 0.007447 -0.125415
v 0.006095 0.038791 -0.106968
v -0.026530 0.044910 -0.129652
v -0.025360 -0.039299 -0.151858
v 0.034875 0.034125 -0.110984
v 0.051373 -0.047121 -0.136992
v -0.063321 0.053390 0.067620
v -0.009668 0.068402 0.079702
v 0.047007 0.052209 0.074537
v 0.066740 -0.010757 0.074353
v 0.050893 -0.059339 0.068946
v -0.007422 -0.063196 0.071827
v -0.064728 -0.059979 0.059852
v -0.080606 -0.009615 0.055398
vt 0.441114 0.132662
vt 0.476548 0.132662
vt 0.476548 0.175565
vt 0.441114 0.175565
vt 0.520989 0.132662
vt 0.520989 0.175565
vt 0.441114 0.230584
vt 0.476548 0.230584
vt 0.476548 0.263421
vt 0.441114 0.263421
vt 0.520989 0.230584
vt 0.520989 0.263421
vt 0.573214 0.263421
vt 0.408103 0.325852
vt 0.441114 0.308023
vt 0.573214 0.308023
vt 0.476548 0.308023
vt 0.617370 0.308023
vt 0.617370 0.263421
vt 0.677226 0.325852
vt 0.677226 0.263421
vt 0.658228 0.263421
vt 0.658228 0.308023
vt 0.617370 0.230584
vt 0.573214 0.230584
vt 0.658228 0.230584
vt 0.573214 0.175565
vt 0.617370 0.175565
vt 0.617370 0.132662
vt 0.573214 0.132662
vt 0.658228 0.175565
vt 0.658228 0.132662
vt 0.573214 0.108197
vt 0.617370 0.108197
vt 0.617370 0.092102
vt 0.553265 0.092102
vt 0.658228 0.108197
vt 0.677226 0.092102
vt 0.677226 0.132662
vt 0.677226 0.175565
vt 0.476548 0.325852
vt 0.520989 0.308023
vt 0.408103 0.092102
vt 0.677226 0.230584
vt 0.553265 0.132662
vt 0.553265 0.175565
vt 0.553265 0.230584
vt 0.553265 0.263421
vt 0.553265 0.325852
vt 0.617370 0.325852
vt 0.476548 0.092102
vt 0.476548 0.108197
vt 0.441114 0.108197
vt 0.544511 0.092102
vt 0.520989 0.108197
vt 0.544511 0.132662
vt 0.544511 0.175565
vt 0.544511 0.230584
vt 0.544511 0.263421
vt 0.408103 0.132662
vt 0.408103 0.175565
vt 0.408103 0.230584
vt 0.408103 0.263421
vt 0.544511 0.325852
vn -0.783249 0.430943 0.448117
vn -0.022156 0.757989 0.651891
vn -0.530100 0.847605 -0.023675
vn 0.133918 0.985014 -0.108694
vn 0.538654 0.595741 0.595772
vn 0.634781 0.771437 0.044028
vn 0.181380 0.949989 -0.254209
vn 0.138497 0.957308 -0.253732
vn -0.465820 0.844812 -0.263257
vn -0.452854 0.861002 -0.231516
vn 0.652813 0.699662 -0.290360
vn 0.591361 0.765445 -0.253746
vn -0.453158 0.241082 -0.858212
vn -0.230228 0.780095 -0.581761
vn 0.196673 0.481122 -0.854308
vn 0.195186 0.911410 -0.362263
vn 0.410872 0.811033 -0.416424
vn -0.484424 -0.816912 -0.313030
vn -0.341484 -0.293651 -0.892837
vn 0.046589 -0.931481 -0.360795
vn 0.282020 -0.276401 -0.918731
vn 0.645915 0.378077 -0.663214
vn 0.943110 0.235548 -0.234649
vn 0.694125 -0.360839 -0.622885
vn 0.581175 -0.796346 -0.167535
vn 0.044036 -0.995409 -0.084984
vn -0.810183 -0.560357 -0.172055
vn 0.805640 -0.562455 -0.185982
vn 0.079184 -0.996856 -0.002772
vn -0.055637 -0.737833 0.672687
vn -0.492448 -0.870323 -0.005665
vn -0.741425 -0.479516 0.469419
vn 0.693605 -0.712221 0.107951
vn 0.469474 -0.594716 0.652616
vn -0.088640 -0.498144 0.862552
vn -0.098520 -0.094929 0.990597
vn -0.497861 -0.388388 0.775428
vn -0.608862 -0.081885 0.789039
vn 0.327576 -0.406917 0.852709
vn 0.419743 -0.081222 0.904002
vn -0.555862 0.239332 0.796076
vn -0.097869 0.345753 0.933208
vn 0.397805 0.273462 0.875768
vn 0.680270 -0.051478 0.731152
vn 0.991999 0.047553 0.116946
vn 0.960976 0.222967 -0.163741
vn -0.876881 -0.054216 0.477641
vn -0.987532 0.053825 -0.147928
vn -0.978941 0.148458 -0.140125
vn -0.922099 0.118944 -0.368220
f 43/1/1 44/2/2 4/4/3
f 4/4/3 44/2/2 5/3/4
f 44/2/2 45/5/5 5/3/4
f 5/3/4 45/5/5 6/6/6
f 28/8/7 8/9/8 27/7/9
f 27/7/9 8/9/8 7/10/10
f 29/11/11 9/12/12 28/8/7
f 28/8/7 9/12/12 8/9/8
f 35/14/13 39/15/14 11/41/15
f 11/41/15 39/15/14 38/17/16
f 9/12/12 41/42/17 8/9/8
f 8/9/8 41/42/17 38/17/16
f 13/13/18 40/16/19 14/19/20
f 14/19/20 40/16/19 36/18/21
f 37/20/22 12/21/23 42/23/24
f 42/23/24 12/21/23 15/22/25
f 14/19/20 32/24/26 13/13/18
f 13/13/18 32/24/26 33/25/27
f 14/19/20 15/22/25 32/24/26
f 32/24/26 15/22/25 31/26/28
f 17/28/29 48/29/30 16/27/31
f 16/27/31 48/29/30 49/30/32
f 18/31/33 47/32/34 17/28/29
f 17/28/29 47/32/34 48/29/30
f 20/34/35 23/35/36 19/33/37
f 19/33/37 23/35/36 22/36/38
f 20/34/35 21/37/39 23/35/36
f 23/35/36 21/37/39 24/38/40
f 22/43/38 23/51/36 1/53/41
f 1/53/41 23/51/36 2/52/42
f 24/54/40 3/55/43 23/51/36
f 23/51/36 3/55/43 2/52/42
f 46/39/44 47/32/34 25/40/45
f 25/40/45 47/32/34 18/31/33
f 46/56/44 25/57/45 45/5/5
f 45/5/5 25/57/45 6/6/6
f 30/44/46 31/26/28 12/21/23
f 12/21/23 31/26/28 15/22/25
f 29/11/11 30/58/46 9/12/12
f 9/12/12 30/58/46 12/59/23
f 50/45/47 26/46/48 49/30/32
f 49/30/32 26/46/48 16/27/31
f 50/60/47 43/1/1 26/61/48
f 26/61/48 43/1/1 4/4/3
f 34/47/49 10/48/50 33/25/27
f 33/25/27 10/48/50 13/13/18
f 27/7/9 7/10/10 34/62/49
f 34/62/49 7/10/10 10/63/50
f 4/4/3 5/3/4 27/7/9
f 27/7/9 5/3/4 28/8/7
f 6/6/6 29/11/11 5/3/4
f 5/3/4 29/11/11 28/8/7
f 6/6/6 25/57/45 29/11/11
f 29/11/11 25/57/45 30/58/46
f 18/31/33 31/26/28 25/40/45
f 25/40/45 31/26/28 30/44/46
f 32/24/26 31/26/28 17/28/29
f 17/28/29 31/26/28 18/31/33
f 33/25/27 32/24/26 16/27/31
f 16/27/31 32/24/26 17/28/29
f 16/27/31 26/46/48 33/25/27
f 33/25/27 26/46/48 34/47/49
f 4/4/3 27/7/9 26/61/48
f 26/61/48 27/7/9 34/62/49
f 35/49/13 11/50/15 40/16/19
f 40/16/19 11/50/15 36/18/21
f 11/50/15 37/20/22 36/18/21
f 36/18/21 37/20/22 42/23/24
f 38/17/16 41/42/17 11/41/15
f 11/41/15 41/42/17 37/64/22
f 7/10/10 39/15/14 10/63/50
f 10/63/50 39/15/14 35/14/13
f 8/9/8 38/17/16 7/10/10
f 7/10/10 38/17/16 39/15/14
f 35/49/13 40/16/19 10/48/50
f 10/48/50 40/16/19 13/13/18
f 9/12/12 12/59/23 41/42/17
f 41/42/17 12/59/23 37/64/22
f 15/22/25 14/19/20 42/23/24
f 42/23/24 14/19/20 36/18/21
f 2/52/42 44/2/2 1/53/41
f 1/53/41 44/2/2 43/1/1
f 2/52/42 3/55/43 44/2/2
f 44/2/2 3/55/43 45/5/5
f 24/54/40 46/56/44 3/55/43
f 3/55/43 46/56/44 45/5/5
f 24/38/40 21/37/39 46/39/44
f 46/39/44 21/37/39 47/32/34
f 47/32/34 21/37/39 48/29/30
f 48/29/30 21/37/39 20/34/35
f 49/30/32 48/29/30 19/33/37
f 19/33/37 48/29/30 20/34/35
f 22/36/38 50/45/47 19/33/37
f 19/33/37 50/45/47 49/30/32
f 22/43/38 1/53/41 50/60/47
f 50/60/47 1/53/41 43/1/1
