# This file uses centimeters as units for non-parametric coordinates.

v -2.572186 -2.848424 -2.902988
v -2.224720 -43.585499 -3.668858
v 1.664271 -2.419342 -3.565324
v 2.249677 -43.859722 -4.283632
v -2.155578 -9.549706 -3.050397
v 2.014088 -9.686924 -3.378761
v 1.739500 -14.518558 -4.243433
v -2.338017 -12.765695 -3.496462
v -2.571680 -5.249301 -2.978552
v 2.163530 -4.998150 -3.248925
v 1.131864 -7.481271 -3.306181
v -2.385209 -7.091335 -2.996152
v 0.084894 -43.562683 -1.954344
v -0.032215 -13.507128 -1.863088
v -0.214856 -9.475942 -0.957806
v -0.158023 -7.107653 -1.735016
v -0.162733 -5.274733 -1.797318
v -0.576888 -2.813430 -1.781186
v -0.890100 -0.837416 -1.764613
v -2.265749 -17.400097 -3.606428
v 0.035287 -17.254429 -1.915688
v 1.990192 -17.362082 -4.263186
v -1.886819 -0.580324 -1.574086
v -2.282769 -1.402949 -2.984367
v -1.621074 -1.709383 -1.558178
v -0.779468 -1.535379 -1.770467
v 1.428990 -1.484925 -3.521363
v -2.130290 -0.641402 -2.734947
v 1.851170 -0.792489 -3.534721
v 2.129971 -4.263911 -3.339010
v 1.657114 -5.659155 -3.297722
v 1.434089 -5.107483 -2.762624
v 1.982668 -5.502571 -3.245510
v 1.575663 -6.344019 -3.286274
v 1.194052 -6.922243 -3.317468
v -0.161687 -6.199149 -1.844972
v -2.385868 -6.143832 -2.970412
v 0.774734 -6.566905 -2.017599
v 1.270337 -7.126430 -3.299970
v 1.693989 -8.493140 -3.359050
v -0.187533 -8.246929 -1.546332
v -2.239933 -8.065037 -3.014191
v -2.454724 -3.943056 -2.907694
v -2.249559 -5.267790 -2.513247
v -1.187676 -6.173632 -2.294173
v -0.159568 -6.724519 -1.856477
v 0.638739 -7.278752 -1.986434
v -2.572090 -3.305841 -2.851393
v -1.596737 -5.288955 -2.459153
v -0.521020 -6.190212 -2.047773
v -0.160333 -6.534812 -1.985387
v 0.894924 -0.811539 -2.316092
v 0.849477 -1.502872 -2.430452
v 1.225614 -2.532709 -2.583981
v 1.484153 -3.807431 -2.380648
v 1.137976 -4.534626 -2.049444
v 0.977543 -5.206798 -1.852782
v 1.070697 -5.936863 -2.168818
v 1.118622 -8.417747 -2.198852
v 1.358926 -9.689156 -2.249599
v 1.471377 -14.139549 -2.430558
v 1.649593 -17.321558 -2.459866
v 1.594363 -43.719543 -2.333879
v -1.650458 -43.578518 -2.921103
v -1.705324 -17.356234 -2.874187
v -1.801019 -12.980960 -2.799106
v -1.613280 -9.595695 -2.418911
v -1.662103 -8.149786 -2.371447
v -1.804117 -7.096563 -2.368978
v -1.979375 -6.157236 -2.443109
v -2.101264 -4.532462 -2.344457
v -1.961954 -2.835399 -2.127370
v -0.049594 -11.375125 -1.818985
v 1.429399 -12.478222 -2.363006
v 1.732777 -13.392294 -4.210679
v 12.104815 -41.543221 1.656165
v 11.781303 -6.219571 -6.774097
v 9.408937 -5.998419 -6.755777
v 9.199810 -41.543221 1.852822
v 9.179074 -18.924093 -5.479835
v 11.653497 -17.624498 -5.910862
v 9.296996 -11.563058 -6.534371
v 11.512531 -13.279463 -6.451032
v 8.591823 -23.759012 -5.037426
v 11.278450 -24.263956 -5.389504
v 10.539276 -6.236189 -5.898102
v 10.327752 -12.589776 -5.581433
v 10.344860 -17.276461 -5.072431
v 10.230175 -23.982391 -4.095348
v 10.553285 -41.543221 3.109716
v 9.353104 -8.680926 -6.535426
v 10.456596 -8.922251 -5.686583
v 11.662857 -9.422735 -6.536300
v 8.825896 -15.212520 -6.108741
v 10.237955 -14.846744 -5.359865
v 11.474816 -15.274707 -6.227661
v 8.980764 -20.253300 -5.429925
v 10.286963 -20.661953 -4.579157
v 11.486647 -20.578222 -5.678906
v 8.958429 -26.219406 -4.475163
v 10.241469 -26.522427 -3.543107
v 11.971698 -26.434362 -4.813366
v 15.040779 -6.734689 -5.718277
v 14.006639 -5.372064 -8.007956
v 8.368141 -5.311596 -9.278666
v 7.073102 -6.609793 -7.282375
v 6.897512 -5.842585 -9.195757
v 15.462671 -6.008603 -6.485126
v 11.391104 -4.913811 -8.894801
v 10.752558 -5.260031 -6.631184
v 10.021321 -6.708586 -5.710971
v 9.847720 -5.133012 -9.271581
v 8.752575 -5.434219 -7.577574
v 8.147564 -6.655994 -6.749989
v 12.780015 -5.101885 -8.455841
v 12.682229 -5.341543 -6.131433
v 13.112060 -6.381576 -4.856060
v 7.431335 -5.552974 -9.335261
v 9.284414 -5.231771 -8.317422
v 11.089596 -5.127271 -7.780922
v 12.675023 -5.100168 -7.021104
v 14.878554 -5.708057 -7.197918
v 6.438763 -6.378170 -8.641887
v 8.380552 -5.881527 -6.231416
v 10.361335 -5.547837 -4.983813
v 12.592717 -5.793265 -4.838997
v 15.499397 -6.476931 -5.811897
v -9.142368 -9.927858 -6.867651
v -9.126581 -6.748346 -7.338071
v -9.880298 -6.678123 -6.020029
v -9.873340 -9.344156 -5.621639
v -8.970945 -21.006351 -5.302831
v -8.909562 -18.076876 -5.772439
v -9.738489 -17.642897 -4.483574
v -9.591696 -20.991638 -3.796122
v -9.198855 -15.744616 -6.133930
v -9.253565 -13.767307 -6.479728
v -9.956111 -12.994307 -5.236960
v -9.950106 -15.231343 -4.853989
v -8.181792 -26.815666 -4.349998
v -9.047567 -24.661827 -4.716870
v -9.447707 -24.276041 -3.121863
v -9.210811 -26.779778 -2.464576
v -11.266891 -6.455923 -6.332684
v -11.231884 -9.118704 -5.937889
v -11.290601 -11.993163 -5.728420
v -11.547507 -15.596864 -4.910492
v -10.971831 -19.275555 -4.253322
v -11.134163 -20.593271 -4.039132
v -11.330268 -24.057856 -3.295112
v -10.767054 -26.492138 -2.784088
v -8.842807 -43.588505 -1.692829
v -10.595488 -43.588505 -2.387455
v -8.050896 -43.588505 -3.721925
v -5.635407 -6.270661 -7.656176
v -6.835004 -6.050914 -8.565836
v -8.250263 -5.749395 -8.736193
v -7.777956 -5.300019 -6.455901
v -5.081391 -6.861533 -5.546138
v -5.374951 -6.558628 -6.653665
v -7.419698 -5.290210 -5.035503
v -7.003786 -5.372426 -2.908794
v -9.692294 -5.368990 -6.895280
v -9.828973 -5.513801 -8.803525
v -11.552457 -5.677858 -8.634906
v -11.741833 -5.426920 -6.872180
v -9.316026 -4.884912 -2.135901
v -9.574546 -5.122437 -4.928052
v -11.989073 -5.356018 -5.440329
v -11.837796 -5.383261 -3.099278
v -13.060828 -5.693916 -7.927638
v -14.041079 -5.857571 -7.539681
v -14.535285 -6.061947 -7.026299
v -14.794239 -6.413694 -5.862658
v -12.496460 -7.068616 -3.072958
v -13.861352 -6.461583 -3.824440
v -9.550843 -6.278162 -1.783884
v -7.082673 -6.395597 -3.055329
v -5.516829 -7.054677 -5.144402
v -4.709409 -5.119304 -7.465331
v -4.626467 -1.793202 -7.757649
v -5.353337 -1.896024 -7.267878
v -5.414883 -4.682826 -7.012751
v -4.874408 -16.676785 -6.404397
v -4.766255 -13.604318 -6.677235
v -5.525625 -13.337381 -6.235685
v -5.595217 -16.833578 -5.752400
v -4.836555 -11.199249 -7.015867
v -4.798576 -9.134991 -7.253619
v -5.493939 -8.498824 -6.793379
v -5.559732 -10.840357 -6.550533
v -4.683646 -22.662680 -5.503905
v -5.009343 -20.510683 -6.063967
v -5.663491 -20.262604 -5.278389
v -5.699944 -22.870798 -4.784157
v -5.892706 -1.810446 -7.981477
v -5.940628 -4.590307 -7.717806
v -5.972653 -7.588514 -7.597703
v -6.257812 -11.405353 -7.189463
v -6.118432 -15.190341 -6.558617
v -6.228789 -16.588598 -6.485425
v -6.467581 -20.249281 -6.098538
v -6.315248 -22.737175 -5.566803
v -5.680824 -43.968388 -4.162411
v -6.308537 -43.968388 -5.252304
v -4.745720 -43.968388 -5.062581
v 5.303118 -5.967700 -1.172540
v 5.437837 -3.471463 -1.389846
v 4.965500 -3.459392 -0.733405
v 4.858834 -5.553321 -0.545291
v 4.923662 -14.668756 -0.419894
v 5.069719 -12.368483 -0.633484
v 4.582385 -12.069658 -0.000735
v 4.465276 -14.713482 0.371624
v 5.067971 -10.527205 -0.855622
v 5.138282 -8.970135 -1.033948
v 4.707399 -8.409247 -0.400012
v 4.610036 -10.168686 -0.213038
v 4.942973 -19.259869 0.176817
v 4.741407 -17.539110 -0.153349
v 4.350437 -17.306509 0.736829
v 4.283109 -19.294363 1.123235
v 4.544516 -3.227595 -1.159865
v 4.448160 -5.319690 -0.968883
v 4.346369 -7.564212 -0.909205
v 4.065280 -10.400298 -0.534765
v 4.094764 -13.312639 -0.111406
v 3.982384 -14.343266 -0.037247
v 3.736523 -17.069342 0.306388
v 3.806153 -19.006018 0.664100
v 4.216753 -41.299995 1.571595
v 3.761902 -41.299995 0.886676
v 4.832376 -41.299995 0.513521
v 7.558138 -3.136614 -1.348937
v 7.147158 -3.030072 -2.054119
v 6.471252 -2.893689 -2.436089
v 6.215580 -2.671919 -1.198442
v 7.257077 -3.445977 -0.229977
v 7.483687 -3.300449 -0.795855
v 6.094733 -2.678438 -0.415210
v 5.856082 -2.743044 0.731645
v 5.356784 -2.742320 -1.821321
v 5.693872 -2.797669 -2.801490
v 4.814116 -2.864494 -3.014727
v 4.342796 -2.756483 -2.175333
v 4.530651 -2.537164 0.631297
v 4.995365 -2.633182 -0.815324
v 3.916640 -2.742500 -1.513814
v 3.499834 -2.785674 -0.315724
v 3.905039 -2.972742 -3.047424
v 3.339340 -3.086417 -3.061579
v 2.990135 -3.213881 -2.910926
v 2.624782 -3.424942 -2.387396
v 3.371126 -3.452658 -0.155659
v 2.690478 -3.573602 -1.076728
v 4.366520 -3.262676 0.712080
v 5.872263 -3.295656 0.637445
v 7.055527 -3.585521 -0.089039
v 3.140385 -3.134392 -3.001828
v 2.740467 -3.305720 -2.654748
v 2.552301 -3.565186 -1.489485
v 3.920734 -3.236891 0.468465
v 5.577542 -3.334518 0.698379
v 7.441777 -3.391247 -0.473790
v 6.579283 -6.467048 -7.945436
v 14.421439 -5.472130 -7.712502
v 15.545483 -6.291319 -6.094646
v -2.612736 -8.363447 -0.277327
v -2.506564 -6.259047 0.050344
v -2.799991 -6.398982 0.655923
v -2.882856 -8.165260 0.384819
v -2.908309 -15.695200 -1.437087
v -2.794203 -13.752614 -1.149263
v -3.100697 -13.651920 -0.500381
v -3.169884 -15.909661 -0.736224
v -2.809902 -12.190272 -0.942250
v -2.761718 -10.869083 -0.770393
v -3.018016 -10.551286 -0.074114
v -3.089665 -12.041665 -0.277344
v -2.850072 -19.599302 -1.920870
v -3.050708 -18.119228 -1.796224
v -3.237732 -18.124025 -0.967540
v -3.256033 -19.843201 -1.061878
v -3.214978 -6.130924 0.423411
v -3.288769 -7.896011 0.153447
v -3.388999 -9.759406 -0.253965
v -3.596979 -12.180438 -0.503564
v -3.538719 -14.665846 -0.776779
v -3.632389 -15.533020 -0.916037
v -3.814499 -17.856073 -1.172828
v -3.722213 -19.523331 -1.300456
v -3.277065 -42.086639 -1.359233
v -3.744812 -42.086639 -1.498631
v -2.918131 -42.086639 -2.163598
v -0.947437 -6.091987 -0.561152
v -1.496696 -6.097014 -0.994272
v -2.149141 -5.992774 -1.104610
v -1.946361 -5.556298 -0.126203
v -0.759907 -6.128388 0.195950
v -0.829702 -6.117308 -0.081789
v -1.788178 -5.404910 0.510704
v -2.823645 -5.650207 -0.320949
v -2.876584 -5.909276 -1.162471
v -3.637820 -5.922178 -1.038661
v -3.735048 -5.633390 -0.273920
v -2.676517 -4.948639 1.765552
v -2.780630 -5.339755 0.536696
v -3.855792 -5.459330 0.360469
v -3.796562 -5.233552 1.413526
v -4.364405 -5.932926 -0.759304
v -4.815260 -5.976643 -0.571152
v -5.157709 -6.026087 -0.029357
v -5.164055 -6.063887 0.235366
v -1.605879 -5.222864 1.473835
v -4.953010 -5.986568 -0.453892
v -5.042932 -6.021211 -0.321419
v -3.856426 -5.741451 1.713843
v -4.932865 -6.005877 0.972541
v -4.690961 -5.948970 1.246625
v -2.790760 -5.516206 2.028437
v -3.219380 -5.498784 1.975301
v -1.632319 -5.697229 1.511371
v -1.844790 -5.690533 1.657341
v -0.942061 -6.181072 0.649763
v -0.827072 -6.111012 0.450737
v -10.664953 -27.876120 -2.548046
v -9.021994 -28.852957 -2.068604
v -8.086385 -29.157251 -3.892210
v -6.311297 -24.158283 -5.381692
v -5.691391 -24.746033 -4.506032
v -4.725874 -24.943817 -5.203678
v -3.734580 -20.375841 -1.408905
v -3.266197 -21.159840 -1.205580
v -2.901675 -21.237091 -2.104909
v -2.234006 -19.435699 -3.654730
v -1.663994 -19.365961 -2.909528
v 0.069800 -19.170395 -1.942583
v 1.608682 -19.427952 -2.366542
v 2.189664 -19.624641 -4.278904
v 3.769872 -20.509838 0.846589
v 4.233822 -21.666073 1.456258
v 4.850491 -21.379175 0.458370
v 9.006258 -28.187508 -4.224253
v 10.336418 -29.562738 -3.078280
v 11.929125 -29.130350 -4.447411
vt 0.388476 0.510271
vt 0.423822 0.005921
vt 0.585605 0.513445
vt 0.670983 0.026786
vt 0.405956 0.260850
vt 0.618516 0.210416
vt 0.633480 0.121789
vt 0.415658 0.122417
vt 0.391931 0.423571
vt 0.597286 0.427172
vt 0.584391 0.344950
vt 0.397553 0.358347
vt 0.546067 0.005241
vt 0.508117 0.118891
vt 0.504760 0.238637
vt 0.482207 0.352185
vt 0.485652 0.425214
vt 0.481226 0.512049
vt 0.471452 0.571012
vt 0.420865 0.048108
vt 0.529991 0.053383
vt 0.650209 0.063796
vt 0.425486 0.580416
vt 0.393935 0.552837
vt 0.429278 0.542669
vt 0.474904 0.557255
vt 0.571077 0.537885
vt 0.393333 0.588950
vt 0.393935 0.552837
vt 0.429278 0.542669
vt 0.425486 0.580416
vt 0.388476 0.510271
vt 0.429278 0.542669
vt 0.429278 0.542669
vt 0.474904 0.557255
vt 0.471452 0.571012
vt 0.481226 0.512049
vt 0.583017 0.567791
vt 0.593960 0.451736
vt 0.585714 0.406424
vt 0.562317 0.426559
vt 0.594326 0.413371
vt 0.588954 0.391391
vt 0.581611 0.367942
vt 0.483985 0.389872
vt 0.394550 0.393178
vt 0.534072 0.378346
vt 0.585108 0.359260
vt 0.596987 0.273951
vt 0.492774 0.298980
vt 0.400926 0.319209
vt 0.390009 0.471799
vt 0.409634 0.423881
vt 0.442730 0.391397
vt 0.482956 0.368079
vt 0.529002 0.348872
vt 0.389134 0.493753
vt 0.429899 0.424236
vt 0.469536 0.390406
vt 0.483328 0.375948
vt 0.535713 0.569157
vt 0.536867 0.544775
vt 0.555578 0.513043
vt 0.558482 0.470717
vt 0.542068 0.447907
vt 0.530552 0.426002
vt 0.546760 0.405206
vt 0.555065 0.285340
vt 0.571350 0.223667
vt 0.572203 0.116447
vt 0.618946 0.050233
vt 0.647056 0.016438
vt 0.461228 0.005713
vt 0.453725 0.049696
vt 0.442502 0.121393
vt 0.437820 0.253686
vt 0.431608 0.312452
vt 0.424674 0.356373
vt 0.416222 0.392377
vt 0.414349 0.450755
vt 0.423000 0.510933
vt 0.423000 0.510933
vt 0.506240 0.185814
vt 0.571884 0.156472
vt 0.635321 0.144653
vt 0.843382 0.082207
vt 0.854156 0.411871
vt 0.763124 0.415021
vt 0.747797 0.087681
vt 0.753302 0.220627
vt 0.841828 0.240091
vt 0.757016 0.319842
vt 0.842637 0.299184
vt 0.737947 0.154453
vt 0.833184 0.157139
vt 0.808517 0.407841
vt 0.799406 0.305267
vt 0.800277 0.237863
vt 0.795219 0.157980
vt 0.792235 0.068624
vt 0.760357 0.371901
vt 0.804700 0.364869
vt 0.836602 0.360484
vt 0.746382 0.269864
vt 0.799824 0.272886
vt 0.842266 0.272126
vt 0.746677 0.192079
vt 0.797723 0.197534
vt 0.832685 0.205610
vt 0.746663 0.128724
vt 0.794052 0.123037
vt 0.849639 0.129634
vt 0.980540 0.436763
vt 0.903564 0.521089
vt 0.714357 0.520220
vt 0.657928 0.434453
vt 0.668396 0.495210
vt 0.961611 0.489299
vt 0.820639 0.533796
vt 0.825899 0.490983
vt 0.815796 0.414602
vt 0.761812 0.528272
vt 0.738609 0.490372
vt 0.712534 0.416156
vt 0.852982 0.530226
vt 0.880282 0.486857
vt 0.908903 0.413423
vt 0.693619 0.510118
vt 0.745975 0.509353
vt 0.822880 0.515555
vt 0.860942 0.511986
vt 0.934306 0.506338
vt 0.644902 0.468073
vt 0.729649 0.462895
vt 0.828031 0.463829
vt 0.895788 0.462720
vt 0.988771 0.454447
vt 0.836602 0.360484
vt 0.854156 0.411871
vt 0.808517 0.407841
vt 0.804700 0.364869
vt 0.832685 0.205610
vt 0.841828 0.240091
vt 0.800277 0.237863
vt 0.797723 0.197534
vt 0.842266 0.272126
vt 0.842637 0.299184
vt 0.799406 0.305267
vt 0.799824 0.272886
vt 0.849639 0.129634
vt 0.833184 0.157139
vt 0.795219 0.157980
vt 0.794052 0.123037
vt 0.763124 0.415021
vt 0.760357 0.371901
vt 0.757016 0.319842
vt 0.746382 0.269864
vt 0.753302 0.220627
vt 0.746677 0.192079
vt 0.737947 0.154453
vt 0.746663 0.128724
vt 0.792235 0.068624
vt 0.747797 0.087681
vt 0.843382 0.082207
vt 0.296429 0.518832
vt 0.268250 0.529047
vt 0.223873 0.530912
vt 0.233065 0.514028
vt 0.339741 0.491016
vt 0.321976 0.505872
vt 0.252876 0.491952
vt 0.269285 0.470314
vt 0.193679 0.507880
vt 0.195796 0.529860
vt 0.142023 0.524653
vt 0.122422 0.491589
vt 0.190591 0.454679
vt 0.192344 0.483331
vt 0.118629 0.471805
vt 0.114593 0.443406
vt 0.104718 0.505702
vt 0.080489 0.489221
vt 0.060919 0.469504
vt 0.045146 0.441527
vt 0.111843 0.382693
vt 0.062113 0.399461
vt 0.187332 0.405770
vt 0.269104 0.426352
vt 0.338611 0.457391
vt 0.836602 0.360484
vt 0.854156 0.411871
vt 0.808517 0.407841
vt 0.804700 0.364869
vt 0.832685 0.205610
vt 0.841828 0.240091
vt 0.800277 0.237863
vt 0.797723 0.197534
vt 0.842266 0.272126
vt 0.842637 0.299184
vt 0.799406 0.305267
vt 0.799824 0.272886
vt 0.849639 0.129634
vt 0.833184 0.157139
vt 0.795219 0.157980
vt 0.794052 0.123037
vt 0.763124 0.415021
vt 0.760357 0.371901
vt 0.757016 0.319842
vt 0.746382 0.269864
vt 0.753302 0.220627
vt 0.746677 0.192079
vt 0.737947 0.154453
vt 0.746663 0.128724
vt 0.792235 0.068624
vt 0.747797 0.087681
vt 0.843382 0.082207
vt 0.836602 0.360484
vt 0.854156 0.411871
vt 0.808517 0.407841
vt 0.804700 0.364869
vt 0.832685 0.205610
vt 0.841828 0.240091
vt 0.800277 0.237863
vt 0.797723 0.197534
vt 0.842266 0.272126
vt 0.842637 0.299184
vt 0.799406 0.305267
vt 0.799824 0.272886
vt 0.849639 0.129634
vt 0.833184 0.157139
vt 0.795219 0.157980
vt 0.794052 0.123037
vt 0.763124 0.415021
vt 0.760357 0.371901
vt 0.757016 0.319842
vt 0.746382 0.269864
vt 0.753302 0.220627
vt 0.746677 0.192079
vt 0.737947 0.154453
vt 0.746663 0.128724
vt 0.792235 0.068624
vt 0.747797 0.087681
vt 0.843382 0.082207
vt 0.296429 0.518832
vt 0.268250 0.529047
vt 0.223873 0.530912
vt 0.233065 0.514028
vt 0.339741 0.491016
vt 0.321976 0.505872
vt 0.252876 0.491952
vt 0.269285 0.470314
vt 0.193679 0.507880
vt 0.195796 0.529860
vt 0.142023 0.524653
vt 0.122422 0.491589
vt 0.190591 0.454679
vt 0.192344 0.483331
vt 0.118629 0.471805
vt 0.114593 0.443406
vt 0.104718 0.505702
vt 0.080489 0.489221
vt 0.060919 0.469504
vt 0.045146 0.441527
vt 0.111843 0.382693
vt 0.062113 0.399461
vt 0.187332 0.405770
vt 0.269104 0.426352
vt 0.338611 0.457391
vt 0.069571 0.478222
vt 0.052274 0.454171
vt 0.056191 0.414143
vt 0.179756 0.403454
vt 0.253163 0.422339
vt 0.331320 0.498058
vt 0.652306 0.448964
vt 0.915586 0.515320
vt 0.974435 0.472843
vt 0.836602 0.360484
vt 0.854156 0.411871
vt 0.808517 0.407841
vt 0.804700 0.364869
vt 0.832685 0.205610
vt 0.841828 0.240091
vt 0.800277 0.237863
vt 0.797723 0.197534
vt 0.842266 0.272126
vt 0.842637 0.299184
vt 0.799406 0.305267
vt 0.799824 0.272886
vt 0.849639 0.129634
vt 0.833184 0.157139
vt 0.795219 0.157980
vt 0.794052 0.123037
vt 0.763124 0.415021
vt 0.760357 0.371901
vt 0.757016 0.319842
vt 0.746382 0.269864
vt 0.753302 0.220627
vt 0.746677 0.192079
vt 0.737947 0.154453
vt 0.746663 0.128724
vt 0.792235 0.068624
vt 0.747797 0.087681
vt 0.843382 0.082207
vt 0.296429 0.518832
vt 0.268250 0.529047
vt 0.223873 0.530912
vt 0.233065 0.514028
vt 0.331320 0.498058
vt 0.321976 0.505872
vt 0.252876 0.491952
vt 0.193679 0.507880
vt 0.195796 0.529860
vt 0.142023 0.524653
vt 0.122422 0.491589
vt 0.190591 0.454679
vt 0.192344 0.483331
vt 0.118629 0.471805
vt 0.114593 0.443406
vt 0.104718 0.505702
vt 0.080489 0.489221
vt 0.052274 0.454171
vt 0.045146 0.441527
vt 0.269285 0.470314
vt 0.069571 0.478222
vt 0.060919 0.469504
vt 0.111843 0.382693
vt 0.056191 0.414143
vt 0.062113 0.399461
vt 0.187332 0.405770
vt 0.179756 0.403454
vt 0.269104 0.426352
vt 0.253163 0.422339
vt 0.338611 0.457391
vt 0.339741 0.491016
vt 0.747338 0.104299
vt 0.793120 0.095118
vt 0.845078 0.095065
vt 0.747330 0.104567
vt 0.793239 0.098696
vt 0.845382 0.097370
vt 0.747283 0.106264
vt 0.793174 0.096741
vt 0.844895 0.093674
vt 0.423153 0.015469
vt 0.459377 0.016564
vt 0.541176 0.019889
vt 0.643104 0.030203
vt 0.668284 0.034984
vt 0.747593 0.095073
vt 0.792702 0.082621
vt 0.844407 0.089975
vt 0.747614 0.094288
vt 0.792698 0.082497
vt 0.844442 0.090241
vn -0.594689 -0.157820 0.788314
vn -0.613601 -0.036656 0.788765
vn -0.831629 -0.051407 0.552947
vn -0.780367 0.129355 0.611796
vn 0.305501 -0.005160 0.952178
vn 0.245482 0.043314 0.968433
vn -0.424043 -0.072291 0.902752
vn -0.529918 -0.112883 0.840503
vn -0.595840 -0.025069 0.802712
vn -0.642929 -0.034662 0.765141
vn -0.793707 -0.027093 0.607696
vn -0.784035 -0.032522 0.619864
vn -0.677960 -0.040530 0.733980
vn -0.755114 -0.050809 0.653622
vn -0.610384 -0.025206 0.791704
vn -0.740725 -0.094024 0.665197
vn 0.098095 0.077543 0.992151
vn -0.097745 -0.151386 0.983630
vn -0.308751 0.030661 0.950649
vn 0.974680 0.052291 0.217404
vn 0.986826 0.047006 0.154807
vn 0.753908 0.032677 0.656167
vn 0.773782 0.009214 0.633385
vn 0.984273 -0.034217 0.173311
vn 0.910520 0.032945 0.412150
vn 0.680497 -0.094098 0.726683
vn 0.744293 0.126156 0.655829
vn 0.872242 0.282491 0.399241
vn 0.704505 0.135670 0.696611
vn 0.562493 -0.082412 0.822684
vn 0.652730 -0.134239 0.745602
vn 0.713790 -0.292546 0.636334
vn 0.843353 -0.304639 0.442664
vn 0.735548 -0.302901 0.605988
vn 0.569534 -0.016472 0.821802
vn -0.793436 -0.009403 0.608581
vn -0.653406 -0.013841 0.756881
vn 0.954374 0.028167 0.297283
vn 0.709053 0.021121 0.704839
vn -0.941506 -0.091554 0.324322
vn -0.865680 0.095745 0.491357
vn 0.194216 0.017465 0.980803
vn 0.871346 0.239291 0.428365
vn 0.868830 -0.029356 0.494240
vn 0.721905 0.196428 0.663528
vn 0.617473 -0.000482 0.786592
vn 0.715207 -0.425365 0.554566
vn 0.605714 -0.186710 0.773466
vn 0.822372 0.091692 0.561513
vn 0.696296 0.181924 0.694317
vn 0.394401 -0.439043 0.807273
vn 0.650283 -0.221416 0.726709
vn 0.937180 -0.048479 0.345462
vn 0.939987 -0.092358 0.328471
vn 0.638741 -0.141868 0.756230
vn -0.152899 -0.093860 0.983775
vn -0.270270 -0.105276 0.957012
vn 0.937999 0.064467 0.340591
vn 0.645650 0.157362 0.747244
vn -0.510408 0.016266 0.859778
vn -0.752068 -0.073922 0.654928
vn -0.565663 -0.048702 0.823197
vn -0.863200 -0.040032 0.503273
vn -0.821803 -0.061062 0.566491
vn -0.569635 -0.048054 0.820492
vn -0.797961 -0.124085 0.589797
vn 0.030535 0.334553 0.941882
vn -0.109674 0.177119 0.978060
vn -0.244595 0.078957 0.966405
vn 0.032460 0.165919 0.985605
vn -0.018673 -0.036653 0.999154
vn 0.005855 -0.010283 0.999930
vn -0.073247 -0.022234 0.997066
vn -0.107986 -0.003173 0.994147
vn -0.264416 -0.194385 0.944616
vn 0.584309 0.012149 0.811441
vn 0.580709 0.042506 0.813000
vn -0.025049 0.047143 0.998574
vn -0.245091 0.082344 0.965997
vn 0.554656 0.093808 0.826775
vn 0.159253 0.122534 0.979604
vn 0.632011 0.050399 0.773319
vn 0.023758 0.129548 0.991289
vn 0.583675 0.117125 0.803496
vn 0.597496 0.042315 0.800755
vn 0.195954 0.103649 0.975120
vn 0.012874 0.075830 0.997038
vn 0.751380 0.162452 0.639560
vn 0.129534 0.229803 0.964578
vn 0.652058 0.223698 0.724417
vn 0.016200 0.160695 0.986871
vn -0.599187 0.057222 0.798562
vn -0.592122 0.078207 0.802044
vn -0.501637 0.115193 0.857374
vn -0.613797 0.075001 0.785893
vn -0.489117 0.116387 0.864418
vn -0.512198 0.130222 0.848938
vn -0.535575 0.130709 0.834311
vn -0.489217 0.137415 0.861269
vn 0.049272 0.351460 0.934905
vn -0.506929 0.196509 0.839290
vn 0.589085 0.206321 0.781288
vn 0.247380 0.963018 0.106770
vn 0.213902 0.976660 0.019542
vn 0.126718 0.984553 0.120821
vn 0.087946 0.993444 0.073041
vn 0.257797 0.798256 0.544360
vn 0.260909 0.892730 0.367368
vn 0.180516 0.924561 0.335562
vn -0.053089 0.983302 0.174067
vn -0.122788 0.989437 0.077051
vn -0.057549 0.993476 0.098454
vn -0.153382 0.983024 0.100691
vn -0.228249 0.642673 0.731351
vn -0.111043 0.980134 0.164340
vn -0.580896 0.490356 0.649700
vn -0.325542 0.919753 0.219266
vn -0.188553 0.977102 0.098588
vn -0.298718 0.938447 0.173452
vn -0.469420 0.847699 0.247086
vn -0.451721 0.837897 0.306394
vn 0.115113 0.379385 0.918050
vn 0.267908 0.940207 0.210324
vn -0.435909 -0.406509 0.802953
vn -0.620581 -0.017197 0.783954
vn -0.620698 0.657023 0.427850
vn -0.317273 -0.385082 0.866632
vn 0.171551 -0.082966 0.981676
vn 0.345589 -0.290848 0.892175
vn 0.377500 0.494096 0.783175
vn 0.873176 0.040843 0.485691
vn 0.870668 0.071330 0.486672
vn 0.400672 0.104558 0.910236
vn 0.187667 0.144393 0.971562
vn 0.853054 0.124088 0.506855
vn 0.559777 0.173225 0.810335
vn 0.900334 0.075423 0.428613
vn 0.442029 0.184926 0.877732
vn 0.869537 0.145169 0.472050
vn 0.880676 0.069942 0.468527
vn 0.591061 0.153028 0.791978
vn 0.434449 0.131970 0.890976
vn 0.952089 0.176083 0.250043
vn 0.526806 0.280302 0.802438
vn 0.898272 0.244984 0.364816
vn 0.433295 0.215968 0.874993
vn -0.204090 0.120356 0.971525
vn -0.196155 0.141288 0.970341
vn -0.090641 0.178644 0.979730
vn -0.222641 0.137812 0.965111
vn -0.076309 0.179864 0.980727
vn -0.103734 0.193478 0.975605
vn -0.131109 0.193828 0.972235
vn -0.077675 0.200671 0.976575
vn 0.245706 0.098310 0.964346
vn -0.210588 0.110517 0.971308
vn 0.898693 0.080226 0.431179
vn 0.398008 0.916859 -0.030986
vn 0.272369 0.938487 -0.212269
vn 0.226280 0.967667 -0.111437
vn 0.130666 0.976290 -0.172579
vn 0.499892 0.865639 0.027871
vn 0.354732 0.934620 -0.025501
vn 0.760705 0.588618 0.273600
vn 0.640646 0.565957 0.518907
vn 0.024942 0.996686 -0.077422
vn -0.070429 0.990215 -0.120471
vn -0.011058 0.993483 -0.113439
vn -0.127523 0.990563 -0.050225
vn 0.104791 0.658728 0.745048
vn -0.002542 0.998368 -0.057054
vn -0.415013 0.758598 0.502288
vn -0.193605 0.981076 -0.002691
vn -0.128455 0.987685 -0.089322
vn -0.202566 0.976942 0.067457
vn -0.421506 0.892026 0.163162
vn -0.274619 0.957245 0.090920
vn -0.424425 0.179731 0.887446
vn -0.526168 0.552895 0.646107
vn -0.134613 0.225354 0.964933
vn 0.524509 -0.056092 0.849555
vn 0.742225 -0.195707 0.640937
vn 0.563633 0.041713 0.824972
vn 0.557899 0.061136 0.827654
vn -0.175067 0.072428 0.981889
vn -0.450476 0.090464 0.888193
vn 0.525250 0.095520 0.845570
vn 0.031606 0.124771 0.991682
vn 0.615392 0.063842 0.785631
vn -0.160611 0.128446 0.978624
vn 0.559222 0.109072 0.821811
vn 0.577406 0.060361 0.814223
vn 0.082111 0.111592 0.990356
vn -0.139839 0.091121 0.985973
vn 0.747845 0.127552 0.651504
vn -0.018836 0.201496 0.979308
vn 0.641039 0.173017 0.747753
vn -0.140989 0.150638 0.978484
vn -0.795387 0.058839 0.603239
vn -0.791606 0.071208 0.606869
vn -0.724221 0.097512 0.682638
vn -0.806758 0.068455 0.586903
vn -0.714495 0.099137 0.692582
vn -0.734511 0.105966 0.670272
vn -0.752579 0.104854 0.650100
vn -0.716522 0.111571 0.688584
vn -0.361582 0.066256 0.929983
vn -0.792979 0.056839 0.606592
vn 0.612107 0.059554 0.788529
vn 0.816345 -0.008639 0.577499
vn 0.814828 0.008526 0.579640
vn 0.077977 0.059104 0.995202
vn -0.262820 0.098539 0.959800
vn 0.865537 -0.008457 0.500774
vn 0.826251 0.037211 0.562071
vn 0.224310 0.110891 0.968188
vn 0.194498 0.121430 0.973358
vn 0.818253 0.050132 0.572668
vn 0.824474 0.007496 0.565850
vn 0.383983 0.085341 0.919388
vn 0.128496 0.084122 0.988136
vn 0.904932 0.061349 0.421110
vn 0.242723 0.182614 0.952753
vn 0.857549 0.100732 0.504443
vn 0.130499 0.143611 0.980992
vn -0.690386 0.082704 0.718698
vn -0.681229 0.097608 0.725535
vn -0.560910 0.125813 0.818261
vn -0.706010 0.095651 0.701713
vn -0.544136 0.127348 0.829276
vn -0.576619 0.137362 0.805383
vn -0.607282 0.137159 0.782557
vn -0.544152 0.143171 0.826681
vn 0.074317 0.052687 0.995842
vn -0.710726 0.075321 0.699425
vn 0.837563 0.032979 0.545344
vn 0.337527 0.931705 0.134169
vn 0.291499 0.953087 -0.081570
vn 0.208566 0.977987 -0.006442
vn 0.143996 0.984519 -0.099942
vn 0.442852 0.804331 0.396148
vn 0.410662 0.882914 0.227637
vn 0.327407 0.925707 0.189399
vn 0.035614 0.998391 -0.044129
vn -0.047134 0.990936 -0.125791
vn 0.014997 0.995944 -0.088719
vn -0.123485 0.985544 -0.115995
vn -0.262492 0.606521 0.750486
vn -0.008032 0.999181 -0.039668
vn -0.619181 0.739492 0.264134
vn -0.272689 0.961325 -0.038670
vn -0.150646 0.974543 -0.166046
vn -0.223010 0.968797 -0.108161
vn -0.547150 0.836464 0.030911
vn -0.466523 0.883371 0.044858
vn 0.327363 0.606252 0.724770
vn -0.309119 0.948320 -0.071654
vn -0.427610 0.903712 -0.021337
vn -0.777508 0.284614 0.560782
vn -0.804260 0.422140 0.418286
vn -0.743028 0.647332 0.169915
vn -0.229043 0.158750 0.960384
vn -0.643876 0.314530 0.697492
vn 0.431376 -0.071360 0.899346
vn 0.053732 -0.023685 0.998274
vn 0.535239 0.076554 0.841225
vn 0.581630 0.448371 0.678727
vn 0.907346 -0.123334 0.401886
vn 0.906461 -0.107272 0.408437
vn 0.257880 -0.184203 0.948455
vn -0.083155 -0.148433 0.985420
vn 0.941809 -0.102744 0.320062
vn 0.914877 -0.074806 0.396741
vn 0.397541 -0.122632 0.909353
vn 0.369300 -0.114661 0.922209
vn 0.909099 -0.065148 0.411454
vn 0.913434 -0.104582 0.393319
vn 0.545381 -0.130214 0.828012
vn 0.306596 -0.156585 0.938872
vn 0.966996 -0.014290 0.254389
vn 0.413766 -0.048752 0.909077
vn 0.932651 -0.011018 0.360611
vn 0.090461 -0.092359 0.991608
vn -0.547516 -0.118612 0.828346
vn -0.537083 -0.105548 0.836900
vn -0.401589 -0.097030 0.910665
vn -0.565792 -0.102411 0.818163
vn -0.383082 -0.097697 0.918534
vn -0.419230 -0.083194 0.904060
vn -0.453518 -0.078795 0.887757
vn -0.383363 -0.081727 0.919975
vn 0.369354 -0.053975 0.927720
vn -0.477567 -0.064819 0.876201
vn 0.921289 -0.025637 0.388032
vn 0.380386 0.895844 -0.229720
vn 0.256129 0.874441 -0.412009
vn 0.208502 0.924085 -0.320304
vn 0.113340 0.917036 -0.382361
vn 0.575078 0.818097 -0.001714
vn 0.482661 0.860968 -0.160536
vn 0.391926 0.903208 -0.174953
vn 0.034625 0.954547 -0.296044
vn -0.073088 0.938516 -0.337411
vn -0.001448 0.944680 -0.327991
vn -0.140053 0.943781 -0.299436
vn 0.054078 0.780922 0.622284
vn -0.004015 0.961064 -0.276298
vn -0.458300 0.842536 0.283009
vn -0.249037 0.953527 -0.169607
vn -0.184413 0.925147 -0.331806
vn -0.229404 0.940144 -0.251996
vn -0.478639 0.877697 0.023498
vn -0.397924 0.917406 -0.004829
vn 0.589676 0.710510 0.384002
vn -0.295504 0.937691 -0.182793
vn -0.386756 0.918399 -0.083442
vn -0.500240 0.483643 0.718226
vn -0.576644 0.588764 0.566426
vn -0.610362 0.746120 0.266014
vn 0.156577 0.388977 0.907844
vn -0.324120 0.527919 0.785014
vn 0.739723 0.080252 0.668109
vn 0.429078 0.189431 0.883180
vn 0.816375 0.199602 0.541933
vn 0.804324 0.519536 0.288351
vn 0.639735 0.021205 0.768303
vn -0.322282 0.013932 0.946541
vn 0.931547 0.006581 0.363562
vn 0.200222 0.013450 0.979658
vn -0.841729 0.006065 0.539867
vn 0.693514 0.004620 0.720428
vn 0.665810 -0.005139 0.746104
vn -0.345103 -0.005250 0.938550
vn 0.913203 -0.001868 0.407501
vn -0.704340 -0.000708 0.709863
vn -0.793099 -0.000661 0.609092
vn -0.125112 -0.000149 0.992143
vn 0.805831 0.001227 0.592144
vn 0.947941 0.002285 0.318439
vn 0.029632 0.005846 0.999544
vn -0.814182 0.002726 0.580603
vn 0.857540 0.001443 0.514415
vn -0.001221 0.458890 0.888492
vn -0.497246 0.370148 0.784689
vn 0.591048 0.370412 0.716559
f 71/80/1 72/82/2 48/57/3
f 48/57/3 72/82/2 1/32/4
f 26/35/5 19/36/6 25/34/7
f 25/34/7 19/36/6 23/23/8
f 65/74/9 66/75/10 20/20/11
f 20/20/11 66/75/10 8/8/12
f 66/75/10 67/76/13 8/8/12
f 8/8/12 67/76/13 5/5/14
f 67/76/13 68/77/15 5/5/14
f 5/5/14 68/77/15 42/51/16
f 51/60/17 36/45/18 50/59/19
f 22/22/20 7/7/21 62/71/22
f 62/71/22 7/7/21 61/70/23
f 75/85/24 6/6/25 74/84/26
f 74/84/26 6/6/25 60/69/27
f 6/6/25 40/49/28 60/69/27
f 60/69/27 40/49/28 59/68/29
f 57/66/30 58/67/31 32/41/32
f 34/43/33 31/40/34 58/67/31
f 31/40/34 32/41/32 58/67/31
f 32/41/32 56/65/35 57/66/30
f 335/345/36 336/346/37 20/20/11
f 20/20/11 336/346/37 65/74/9
f 339/349/38 22/22/20 338/348/39
f 338/348/39 22/22/20 62/71/22
f 23/31/8 28/28/40 25/30/7
f 25/30/7 28/28/40 24/24/41
f 25/33/7 24/29/41 72/81/2
f 72/81/2 24/29/41 1/1/4
f 18/18/42 26/26/5 25/25/7
f 3/3/43 27/27/44 54/63/45
f 54/63/45 27/27/44 53/62/46
f 29/38/47 52/61/48 27/27/44
f 27/27/44 52/61/48 53/62/46
f 30/39/49 3/3/43 55/64/50
f 55/64/50 3/3/43 54/63/45
f 33/42/51 10/10/52 32/41/32
f 55/64/50 56/65/35 30/39/49
f 30/39/49 56/65/35 10/10/52
f 10/10/52 56/65/35 32/41/32
f 31/40/34 33/42/51 32/41/32
f 39/48/53 35/44/54 38/47/55
f 35/44/54 34/43/33 38/47/55
f 38/47/55 34/43/33 58/67/31
f 36/45/18 17/17/56 50/59/19
f 50/59/19 17/17/56 49/58/57
f 11/11/58 39/48/53 47/56/59
f 47/56/59 39/48/53 38/47/55
f 40/49/28 11/11/58 47/56/59
f 68/77/15 69/78/60 42/51/16
f 42/51/16 69/78/60 12/12/61
f 44/53/62 43/52/63 9/9/64
f 70/79/65 44/53/62 37/46/66
f 37/46/66 44/53/62 9/9/64
f 69/78/60 70/79/65 12/12/61
f 12/12/61 70/79/65 37/46/66
f 47/56/59 46/55/67 16/16/68
f 40/49/28 47/56/59 59/68/29
f 48/57/3 43/52/63 71/80/1
f 71/80/1 43/52/63 44/53/62
f 50/59/19 49/58/57 45/54/69
f 45/54/69 49/58/57 44/53/62
f 51/60/17 50/59/19 46/55/67
f 46/55/67 50/59/19 45/54/69
f 47/56/59 51/60/17 46/55/67
f 53/62/46 52/61/48 26/26/5
f 26/26/5 52/61/48 19/19/6
f 54/63/45 53/62/46 18/18/42
f 18/18/42 53/62/46 26/26/5
f 55/64/50 54/63/45 18/18/42
f 56/65/35 55/64/50 18/18/42
f 57/66/30 56/65/35 17/17/56
f 17/17/56 56/65/35 18/18/42
f 58/67/31 57/66/30 17/17/56
f 38/47/55 58/67/31 36/45/18
f 36/45/18 58/67/31 17/17/56
f 47/56/59 38/47/55 51/60/17
f 51/60/17 38/47/55 36/45/18
f 59/68/29 47/56/59 41/50/70
f 41/50/70 47/56/59 16/16/68
f 60/69/27 59/68/29 41/50/70
f 74/84/26 60/69/27 15/15/71
f 62/71/22 61/70/23 21/21/72
f 21/21/72 61/70/23 14/14/73
f 338/348/39 62/71/22 337/347/74
f 337/347/74 62/71/22 21/21/72
f 336/346/37 337/347/74 65/74/9
f 65/74/9 337/347/74 21/21/72
f 21/21/72 14/14/73 65/74/9
f 65/74/9 14/14/73 66/75/10
f 73/83/75 15/15/71 67/76/13
f 67/76/13 41/50/70 68/77/15
f 69/78/60 68/77/15 16/16/68
f 16/16/68 68/77/15 41/50/70
f 70/79/65 69/78/60 45/54/69
f 16/16/68 46/55/67 69/78/60
f 46/55/67 45/54/69 69/78/60
f 44/53/62 70/79/65 45/54/69
f 49/58/57 71/80/1 44/53/62
f 17/17/56 18/18/42 72/82/2
f 18/37/42 25/33/7 72/81/2
f 14/14/73 73/83/75 66/75/10
f 66/75/10 73/83/75 67/76/13
f 61/70/23 74/84/26 14/14/73
f 14/14/73 74/84/26 73/83/75
f 7/7/21 75/85/24 61/70/23
f 61/70/23 75/85/24 74/84/26
f 15/15/71 41/50/70 67/76/13
f 60/69/27 41/50/70 15/15/71
f 74/84/26 15/15/71 73/83/75
f 72/82/2 71/80/1 17/17/56
f 17/17/56 71/80/1 49/58/57
f 93/103/76 77/87/77 92/102/78
f 92/102/78 77/87/77 86/96/79
f 81/91/80 88/98/81 99/109/82
f 99/109/82 88/98/81 98/108/83
f 96/106/84 83/93/85 95/105/86
f 95/105/86 83/93/85 87/97/87
f 85/95/88 89/99/89 102/112/90
f 102/112/90 89/99/89 101/111/91
f 92/102/78 86/96/79 91/101/92
f 91/101/92 86/96/79 78/88/93
f 95/105/86 87/97/87 94/104/94
f 94/104/94 87/97/87 82/92/95
f 88/98/81 80/90/96 98/108/83
f 98/108/83 80/90/96 97/107/97
f 101/111/91 89/99/89 100/110/98
f 100/110/98 89/99/89 84/94/99
f 87/97/87 92/102/78 82/92/95
f 82/92/95 92/102/78 91/101/92
f 83/93/85 93/103/76 87/97/87
f 87/97/87 93/103/76 92/102/78
f 95/105/86 94/104/94 88/98/81
f 88/98/81 94/104/94 80/90/96
f 81/91/80 96/106/84 88/98/81
f 88/98/81 96/106/84 95/105/86
f 89/99/89 98/108/83 84/94/99
f 84/94/99 98/108/83 97/107/97
f 99/109/82 98/108/83 85/95/88
f 85/95/88 98/108/83 89/99/89
f 344/354/100 101/111/91 343/353/101
f 343/353/101 101/111/91 100/110/98
f 344/354/100 345/355/102 101/111/91
f 101/111/91 345/355/102 102/112/90
f 266/276/103 104/114/104 121/131/105
f 121/131/105 104/114/104 115/125/106
f 267/277/107 108/118/108 116/126/109
f 109/119/110 112/122/111 120/130/112
f 120/130/112 112/122/111 119/129/113
f 125/135/114 110/120/115 124/134/116
f 124/134/116 110/120/115 113/123/117
f 112/122/111 105/115/118 119/129/113
f 119/129/113 105/115/118 118/128/119
f 124/134/116 113/123/117 123/133/120
f 123/133/120 113/123/117 107/117/121
f 121/131/105 115/125/106 120/130/112
f 120/130/112 115/125/106 109/119/110
f 126/136/122 116/126/109 125/135/114
f 125/135/114 116/126/109 110/120/115
f 119/129/113 118/128/119 113/123/117
f 113/123/117 118/128/119 107/117/121
f 120/130/112 119/129/113 110/120/115
f 110/120/115 119/129/113 113/123/117
f 116/126/109 121/131/105 110/120/115
f 110/120/115 121/131/105 120/130/112
f 108/118/108 122/132/123 116/126/109
f 116/126/109 122/132/123 121/131/105
f 114/124/124 124/134/116 106/116/125
f 106/116/125 124/134/116 265/275/126
f 125/135/114 124/134/116 111/121/127
f 111/121/127 124/134/116 114/124/124
f 117/127/128 126/136/122 111/121/127
f 111/121/127 126/136/122 125/135/114
f 103/113/129 127/137/130 117/127/128
f 117/127/128 127/137/130 126/136/122
f 128/138/131 129/139/132 131/141/133
f 131/141/133 129/139/132 130/140/134
f 133/143/135 134/144/136 132/142/137
f 132/142/137 134/144/136 135/145/138
f 136/146/139 137/147/140 139/149/141
f 139/149/141 137/147/140 138/148/142
f 141/151/143 142/152/144 140/150/145
f 140/150/145 142/152/144 143/153/146
f 131/141/133 130/140/134 145/155/147
f 145/155/147 130/140/134 144/154/148
f 139/149/141 138/148/142 147/157/149
f 147/157/149 138/148/142 146/156/150
f 134/144/136 148/158/151 135/145/138
f 135/145/138 148/158/151 149/159/152
f 143/153/146 142/152/144 151/161/153
f 151/161/153 142/152/144 150/160/154
f 138/148/142 131/141/133 146/156/150
f 146/156/150 131/141/133 145/155/147
f 137/147/140 128/138/131 138/148/142
f 138/148/142 128/138/131 131/141/133
f 139/149/141 147/157/149 134/144/136
f 134/144/136 147/157/149 148/158/151
f 133/143/135 136/146/139 134/144/136
f 134/144/136 136/146/139 139/149/141
f 142/152/144 135/145/138 150/160/154
f 150/160/154 135/145/138 149/159/152
f 132/142/137 135/145/138 141/151/143
f 141/151/143 135/145/138 142/152/144
f 327/337/155 143/153/146 326/336/156
f 326/336/156 143/153/146 151/161/153
f 327/337/155 328/338/157 143/153/146
f 143/153/146 328/338/157 140/150/145
f 155/165/158 156/166/159 158/168/160
f 158/168/160 156/166/159 157/167/161
f 160/170/162 161/171/163 159/169/164
f 159/169/164 161/171/163 162/172/165
f 164/174/166 165/175/167 163/173/168
f 163/173/168 165/175/167 166/176/169
f 167/177/170 168/178/171 170/180/172
f 170/180/172 168/178/171 169/179/173
f 165/175/167 171/181/174 166/176/169
f 166/176/169 171/181/174 172/182/175
f 170/180/172 169/179/173 174/184/176
f 174/184/176 169/179/173 173/183/177
f 158/168/160 157/167/161 163/173/168
f 163/173/168 157/167/161 164/174/166
f 161/171/163 168/178/171 162/172/165
f 162/172/165 168/178/171 167/177/170
f 169/179/173 166/176/169 173/183/177
f 173/183/177 166/176/169 172/182/175
f 168/178/171 163/173/168 169/179/173
f 169/179/173 163/173/168 166/176/169
f 161/171/163 158/168/160 168/178/171
f 168/178/171 158/168/160 163/173/168
f 155/165/158 158/168/160 160/170/162
f 160/170/162 158/168/160 161/171/163
f 175/185/178 170/180/172 176/186/179
f 176/186/179 170/180/172 174/184/176
f 167/177/170 170/180/172 177/187/180
f 177/187/180 170/180/172 175/185/178
f 162/172/165 167/177/170 178/188/181
f 178/188/181 167/177/170 177/187/180
f 159/169/164 162/172/165 179/189/182
f 179/189/182 162/172/165 178/188/181
f 180/190/183 181/191/184 183/193/185
f 183/193/185 181/191/184 182/192/186
f 185/195/187 186/196/188 184/194/189
f 184/194/189 186/196/188 187/197/190
f 188/198/191 189/199/192 191/201/193
f 191/201/193 189/199/192 190/200/194
f 193/203/195 194/204/196 192/202/197
f 192/202/197 194/204/196 195/205/198
f 183/193/185 182/192/186 197/207/199
f 197/207/199 182/192/186 196/206/200
f 191/201/193 190/200/194 199/209/201
f 199/209/201 190/200/194 198/208/202
f 186/196/188 200/210/203 187/197/190
f 187/197/190 200/210/203 201/211/204
f 195/205/198 194/204/196 203/213/205
f 203/213/205 194/204/196 202/212/206
f 190/200/194 183/193/185 198/208/202
f 198/208/202 183/193/185 197/207/199
f 189/199/192 180/190/183 190/200/194
f 190/200/194 180/190/183 183/193/185
f 191/201/193 199/209/201 186/196/188
f 186/196/188 199/209/201 200/210/203
f 185/195/187 188/198/191 186/196/188
f 186/196/188 188/198/191 191/201/193
f 194/204/196 187/197/190 202/212/206
f 202/212/206 187/197/190 201/211/204
f 184/194/189 187/197/190 193/203/195
f 193/203/195 187/197/190 194/204/196
f 330/340/207 195/205/198 329/339/208
f 329/339/208 195/205/198 203/213/205
f 330/340/207 331/341/209 195/205/198
f 195/205/198 331/341/209 192/202/197
f 207/217/210 208/218/211 210/220/212
f 210/220/212 208/218/211 209/219/213
f 211/221/214 212/222/215 214/224/216
f 214/224/216 212/222/215 213/223/217
f 215/225/218 216/226/219 218/228/220
f 218/228/220 216/226/219 217/227/221
f 220/230/222 221/231/223 219/229/224
f 219/229/224 221/231/223 222/232/225
f 210/220/212 209/219/213 224/234/226
f 224/234/226 209/219/213 223/233/227
f 218/228/220 217/227/221 226/236/228
f 226/236/228 217/227/221 225/235/229
f 213/223/217 227/237/230 214/224/216
f 214/224/216 227/237/230 228/238/231
f 222/232/225 221/231/223 230/240/232
f 230/240/232 221/231/223 229/239/233
f 217/227/221 210/220/212 225/235/229
f 225/235/229 210/220/212 224/234/226
f 216/226/219 207/217/210 217/227/221
f 217/227/221 207/217/210 210/220/212
f 218/228/220 226/236/228 213/223/217
f 213/223/217 226/236/228 227/237/230
f 212/222/215 215/225/218 213/223/217
f 213/223/217 215/225/218 218/228/220
f 221/231/223 214/224/216 229/239/233
f 229/239/233 214/224/216 228/238/231
f 211/221/214 214/224/216 220/230/222
f 220/230/222 214/224/216 221/231/223
f 341/351/234 222/232/225 340/350/235
f 340/350/235 222/232/225 230/240/232
f 341/351/234 342/352/236 222/232/225
f 222/232/225 342/352/236 219/229/224
f 234/244/237 235/245/238 237/247/239
f 237/247/239 235/245/238 236/246/240
f 264/274/241 239/249/242 240/250/243
f 243/253/244 244/254/245 242/252/246
f 242/252/246 244/254/245 245/255/247
f 246/256/248 247/257/249 249/259/250
f 249/259/250 247/257/249 248/258/251
f 244/254/245 250/260/252 245/255/247
f 245/255/247 250/260/252 251/261/253
f 249/259/250 248/258/251 253/263/254
f 253/263/254 248/258/251 260/270/255
f 237/247/239 236/246/240 242/252/246
f 242/252/246 236/246/240 243/253/244
f 240/250/243 247/257/249 241/251/256
f 241/251/256 247/257/249 246/256/248
f 248/258/251 259/269/257 252/262/258
f 247/257/249 242/252/246 248/258/251
f 248/258/251 242/252/246 245/255/247
f 240/250/243 237/247/239 247/257/249
f 247/257/249 237/247/239 242/252/246
f 234/244/237 237/247/239 239/249/242
f 239/249/242 237/247/239 240/250/243
f 254/264/259 249/259/250 255/265/260
f 255/265/260 249/259/250 261/271/261
f 256/266/262 246/256/248 262/272/263
f 257/267/264 241/251/256 263/273/265
f 258/268/266 238/248/267 257/267/264
f 257/267/264 238/248/267 241/251/256
f 248/258/251 245/255/247 259/269/257
f 259/269/257 245/255/247 251/261/253
f 260/270/255 248/258/251 252/262/258
f 261/271/261 249/259/250 253/263/254
f 246/256/248 249/259/250 262/272/263
f 262/272/263 249/259/250 254/264/259
f 241/251/256 246/256/248 263/273/265
f 263/273/265 246/256/248 256/266/262
f 264/274/241 240/250/243 238/248/267
f 238/248/267 240/250/243 241/251/256
f 265/275/126 124/134/116 123/133/120
f 122/132/123 266/276/103 121/131/105
f 267/277/107 116/126/109 127/137/130
f 127/137/130 116/126/109 126/136/122
f 268/278/268 269/279/269 271/281/270
f 271/281/270 269/279/269 270/280/271
f 272/282/272 273/283/273 275/285/274
f 275/285/274 273/283/273 274/284/275
f 276/286/276 277/287/277 279/289/278
f 279/289/278 277/287/277 278/288/279
f 281/291/280 282/292/281 280/290/282
f 280/290/282 282/292/281 283/293/283
f 271/281/270 270/280/271 285/295/284
f 285/295/284 270/280/271 284/294/285
f 279/289/278 278/288/279 287/297/286
f 287/297/286 278/288/279 286/296/287
f 274/284/275 288/298/288 275/285/274
f 275/285/274 288/298/288 289/299/289
f 283/293/283 282/292/281 291/301/290
f 291/301/290 282/292/281 290/300/291
f 278/288/279 271/281/270 286/296/287
f 286/296/287 271/281/270 285/295/284
f 277/287/277 268/278/268 278/288/279
f 278/288/279 268/278/268 271/281/270
f 279/289/278 287/297/286 274/284/275
f 274/284/275 287/297/286 288/298/288
f 273/283/273 276/286/276 274/284/275
f 274/284/275 276/286/276 279/289/278
f 282/292/281 275/285/274 290/300/291
f 290/300/291 275/285/274 289/299/289
f 272/282/272 275/285/274 281/291/280
f 281/291/280 275/285/274 282/292/281
f 333/343/292 283/293/283 332/342/293
f 332/342/293 283/293/283 291/301/290
f 334/344/294 280/290/282 333/343/292
f 333/343/292 280/290/282 283/293/283
f 295/305/295 296/306/296 298/308/297
f 298/308/297 296/306/296 297/307/298
f 299/309/299 300/310/300 301/311/301
f 303/313/302 304/314/303 302/312/304
f 302/312/304 304/314/303 305/315/305
f 306/316/306 307/317/307 309/319/308
f 309/319/308 307/317/307 308/318/309
f 304/314/303 310/320/310 305/315/305
f 305/315/305 310/320/310 311/321/311
f 309/319/308 308/318/309 313/323/312
f 313/323/312 308/318/309 312/322/313
f 298/308/297 297/307/298 302/312/304
f 302/312/304 297/307/298 303/313/302
f 301/311/301 307/317/307 314/324/314
f 314/324/314 307/317/307 306/316/306
f 308/318/309 315/325/315 316/326/316
f 307/317/307 302/312/304 308/318/309
f 308/318/309 302/312/304 305/315/305
f 301/311/301 298/308/297 307/317/307
f 307/317/307 298/308/297 302/312/304
f 295/305/295 298/308/297 300/310/300
f 300/310/300 298/308/297 301/311/301
f 317/327/317 309/319/308 319/329/318
f 319/329/318 309/319/308 318/328/319
f 320/330/320 306/316/306 321/331/321
f 322/332/322 314/324/314 323/333/323
f 324/334/324 325/335/325 322/332/322
f 322/332/322 325/335/325 314/324/314
f 308/318/309 305/315/305 315/325/315
f 315/325/315 305/315/305 311/321/311
f 312/322/313 308/318/309 316/326/316
f 318/328/319 309/319/308 313/323/312
f 306/316/306 309/319/308 321/331/321
f 321/331/321 309/319/308 317/327/317
f 314/324/314 306/316/306 323/333/323
f 323/333/323 306/316/306 320/330/320
f 299/309/299 301/311/301 325/335/325
f 325/335/325 301/311/301 314/324/314
f 152/162/326 327/337/155 153/163/327
f 153/163/327 327/337/155 326/336/156
f 154/164/328 328/338/157 152/162/326
f 152/162/326 328/338/157 327/337/155
f 204/214/329 330/340/207 205/215/330
f 205/215/330 330/340/207 329/339/208
f 206/216/331 331/341/209 204/214/329
f 204/214/329 331/341/209 330/340/207
f 292/302/332 333/343/292 293/303/333
f 293/303/333 333/343/292 332/342/293
f 294/304/334 334/344/294 292/302/332
f 292/302/332 334/344/294 333/343/292
f 336/346/37 335/345/36 64/73/335
f 64/73/335 335/345/36 2/2/336
f 337/347/74 336/346/37 13/13/337
f 13/13/337 336/346/37 64/73/335
f 63/72/338 338/348/39 13/13/337
f 13/13/337 338/348/39 337/347/74
f 4/4/339 339/349/38 63/72/338
f 63/72/338 339/349/38 338/348/39
f 231/241/340 341/351/234 232/242/341
f 232/242/341 341/351/234 340/350/235
f 342/352/236 341/351/234 233/243/342
f 233/243/342 341/351/234 231/241/340
f 90/100/343 344/354/100 79/89/344
f 79/89/344 344/354/100 343/353/101
f 345/355/102 344/354/100 76/86/345
f 76/86/345 344/354/100 90/100/343
