# This file uses centimeters as units for non-parametric coordinates.

v 0.873735 0.428867 0.696070
v 0.082383 0.808520 0.993538
v -0.247888 -0.805401 -0.826651
v 0.149258 -0.816803 -0.864576
v 0.489736 0.269632 0.561968
v 0.056739 0.433876 0.759632
v -0.555879 0.715459 0.933478
v -0.466605 -0.790119 -0.794284
v -0.522575 0.538939 0.701059
v 0.819227 -0.561132 -0.521377
v 0.701678 -0.034512 -0.012130
v -0.911629 0.578220 0.064777
v -1.086635 0.774702 0.111249
v -0.743755 0.271363 -0.715827
v 0.390406 -0.791350 -0.836427
v 1.024547 0.206209 0.209684
v 0.841785 -0.092925 -0.166683
v -0.693903 0.451976 0.425708
v -0.884851 0.637889 0.453065
v -0.688244 -0.708287 -0.685409
v 0.773141 0.799762 0.370049
v 0.093086 1.105658 0.684277
v 0.957324 0.386131 -0.029485
v 0.769478 -0.615570 -0.626726
v -0.546091 0.984108 0.644234
v -0.777519 0.872078 0.273798
v -0.912803 0.630183 -0.104871
v 0.659264 0.966851 -0.047413
v 0.043594 1.220663 0.189599
v 0.739033 -0.648595 -0.670869
v 0.887800 0.536864 -0.387680
v -0.360011 1.066745 0.069931
v -0.688292 1.003967 -0.070274
v -0.880160 0.629164 -0.303613
v 1.100722 -0.102574 -0.186340
v -1.038677 0.742186 0.190679
v 0.489778 0.934546 -0.584663
v -0.092756 1.107721 -0.584158
v 0.916311 0.216259 -0.556846
v 0.708306 0.766336 -0.677024
v -0.442928 1.041533 -0.554768
v -0.652937 0.938371 -0.531942
v -0.740271 0.920727 -0.149171
v -0.837199 0.816623 0.051416
v 0.958953 0.079056 -0.509957
v 0.787897 -0.204018 -0.674083
v 0.747743 -0.100670 -0.735144
v 0.409503 0.079335 -0.978597
v 0.152338 0.219904 -1.097681
v -0.247230 0.219939 -1.014201
v -0.509884 0.227645 -0.938799
v -0.695844 0.332387 -0.758338
vt 0.329141 0.004850
vt 0.363083 0.142038
vt 0.246004 0.149766
vt 0.242909 0.010107
vt 0.127431 0.033787
vt 0.133184 0.125630
vt 0.246091 0.223865
vt 0.143848 0.240008
vt 0.375353 0.217288
vt 0.416861 0.109494
vt 0.431214 0.144609
vt 0.403302 0.149181
vt 0.370896 0.021968
vt 0.076695 0.124115
vt 0.078958 0.055364
vt 0.028782 0.079619
vt 0.040025 0.113086
vt 0.029555 0.111389
vt 0.327298 0.363976
vt 0.211877 0.396283
vt 0.238573 0.319466
vt 0.361068 0.302048
vt 0.414342 0.294213
vt 0.388336 0.361018
vt 0.380673 0.280829
vt 0.142426 0.380459
vt 0.158256 0.306185
vt 0.100803 0.358549
vt 0.093128 0.312432
vt 0.082950 0.306990
vt 0.063441 0.262294
vt 0.099763 0.254013
vt 0.398752 0.213490
vt 0.424775 0.254680
vt 0.439205 0.134106
vt 0.441031 0.416042
vt 0.435960 0.422368
vt 0.366553 0.433251
vt 0.267435 0.450546
vt 0.189232 0.436363
vt 0.134623 0.409593
vt 0.091217 0.407691
vt 0.078147 0.360852
vt 0.058751 0.340395
vt 0.043530 0.329705
vt 0.438789 0.393780
vt 0.433810 0.409619
vt 0.367815 0.429067
vt 0.271242 0.445041
vt 0.190620 0.433908
vt 0.135305 0.407048
vt 0.091925 0.404063
vn 0.635008 -0.193498 0.747879
vn 0.171436 0.191818 0.966341
vn 0.157954 -0.730005 0.664939
vn -0.009268 -0.635458 0.772080
vn -0.427907 -0.727443 0.536398
vn -0.467576 -0.233018 0.852687
vn 0.051971 0.916254 0.397214
vn -0.451312 0.801409 0.392506
vn 0.724500 0.641903 0.251118
vn 0.101250 -0.746772 0.657328
vn 0.953978 -0.297327 0.039031
vn 0.742736 -0.474810 0.472122
vn 0.245848 -0.814281 0.525838
vn -0.847316 -0.192876 0.494829
vn -0.624863 -0.694320 0.357024
vn -0.705810 -0.691035 0.155891
vn -0.751759 0.654338 -0.081852
vn -0.831346 0.385982 0.399852
vn 0.441614 0.782620 -0.438729
vn -0.019060 0.866385 -0.499013
vn 0.638549 0.765827 -0.075921
vn 0.105156 0.991297 0.079200
vn 0.796828 0.134796 -0.588978
vn 0.652991 0.427130 -0.625430
vn 0.892315 0.430866 -0.134644
vn -0.328333 0.736983 -0.590808
vn -0.292715 0.953635 0.069986
vn -0.704152 0.576182 -0.414952
vn -0.577003 0.816599 -0.015298
vn -0.831410 0.537044 -0.142622
vn -0.599131 0.792923 -0.110973
vn -0.556681 0.809632 0.186020
vn 0.932837 0.354473 -0.064532
vn 0.905612 0.073106 -0.417759
vn 0.905926 -0.420078 -0.053218
vn 0.834698 -0.121474 -0.537143
vn 0.652092 -0.055647 -0.756095
vn 0.464218 -0.030694 -0.885189
vn 0.119678 0.233819 -0.964886
vn -0.197423 0.093366 -0.975862
vn -0.468638 0.102973 -0.877368
vn -0.657168 0.203919 -0.725635
vn -0.607545 -0.086358 -0.789577
vn -0.736568 0.113850 -0.666712
vn -0.857779 0.386769 -0.338564
vn -0.719692 0.596588 -0.355142
vn 0.886818 -0.091805 -0.452907
vn 0.708779 -0.101177 -0.698137
vn 0.379350 -0.142927 -0.914147
vn 0.037623 -0.195314 -0.980019
vn -0.127462 -0.178382 -0.975671
vn -0.306949 -0.157446 -0.938612
f 1/2/1 2/3/2 5/1/3
f 5/1/3 2/3/2 6/4/4
f 9/5/5 6/4/4 7/6/6
f 7/6/6 6/4/4 2/3/2
f 22/7/7 25/8/8 2/3/2
f 2/3/2 25/8/8 7/6/6
f 22/7/7 2/3/2 21/9/9
f 21/9/9 2/3/2 1/2/1
f 17/10/10 35/11/11 16/12/12
f 17/10/10 16/12/12 11/13/13
f 11/13/13 16/12/12 5/1/3
f 16/12/12 1/2/1 5/1/3
f 7/6/6 19/14/14 9/5/5
f 9/5/5 19/14/14 18/15/15
f 18/15/15 19/14/14 12/16/16
f 13/18/17 12/16/16 36/17/18
f 12/16/16 19/14/14 36/17/18
f 37/19/19 38/20/20 28/22/21
f 28/22/21 38/20/20 29/21/22
f 39/23/23 40/24/24 31/25/25
f 40/24/24 37/19/19 31/25/25
f 31/25/25 37/19/19 28/22/21
f 41/26/26 32/27/27 38/20/20
f 38/20/20 32/27/27 29/21/22
f 42/28/28 33/29/29 41/26/26
f 41/26/26 33/29/29 32/27/27
f 42/28/28 43/30/30 33/29/29
f 44/31/31 36/17/18 26/32/32
f 26/32/32 36/17/18 19/14/14
f 7/6/6 25/8/8 19/14/14
f 19/14/14 25/8/8 26/32/32
f 23/33/33 21/9/9 16/12/12
f 16/12/12 21/9/9 1/2/1
f 45/34/34 23/33/33 35/11/11
f 35/11/11 23/33/33 16/12/12
f 43/30/30 44/31/31 33/29/29
f 33/29/29 44/31/31 26/32/32
f 33/29/29 26/32/32 32/27/27
f 32/27/27 26/32/32 25/8/8
f 29/21/22 32/27/27 22/7/7
f 22/7/7 32/27/27 25/8/8
f 28/22/21 29/21/22 21/9/9
f 21/9/9 29/21/22 22/7/7
f 31/25/25 28/22/21 23/33/33
f 23/33/33 28/22/21 21/9/9
f 39/23/23 31/25/25 45/34/34
f 45/34/34 31/25/25 23/33/33
f 35/11/11 17/10/10 10/35/35
f 45/34/34 35/11/11 46/46/36
f 46/46/36 35/11/11 10/35/35
f 39/23/23 45/34/34 47/47/37
f 47/47/37 45/34/34 46/46/36
f 40/24/24 39/23/23 48/48/38
f 48/48/38 39/23/23 47/47/37
f 37/19/19 40/24/24 49/49/39
f 49/49/39 40/24/24 48/48/38
f 37/19/19 49/49/39 38/20/20
f 38/20/20 49/49/39 50/50/40
f 38/20/20 50/50/40 41/26/26
f 41/26/26 50/50/40 51/51/41
f 42/28/28 41/26/26 52/52/42
f 52/52/42 41/26/26 51/51/41
f 20/42/43 14/43/44 52/52/42
f 43/30/30 42/28/28 34/44/45
f 14/43/44 34/44/45 52/52/42
f 42/28/28 52/52/42 34/44/45
f 44/31/31 43/30/30 27/45/46
f 27/45/46 43/30/30 34/44/45
f 36/17/18 44/31/31 13/18/17
f 13/18/17 44/31/31 27/45/46
f 46/46/36 10/35/35 24/36/47
f 47/47/37 46/46/36 30/37/48
f 30/37/48 46/46/36 24/36/47
f 48/48/38 47/47/37 15/38/49
f 15/38/49 47/47/37 30/37/48
f 49/49/39 48/48/38 4/39/50
f 4/39/50 48/48/38 15/38/49
f 49/49/39 4/39/50 50/50/40
f 50/50/40 4/39/50 3/40/51
f 51/51/41 50/50/40 8/41/52
f 8/41/52 50/50/40 3/40/51
f 52/52/42 51/51/41 20/42/43
f 20/42/43 51/51/41 8/41/52
