# This file uses centimeters as units for non-parametric coordinates.

v 0.353553 0.353554 -0.866026
v 0.000000 0.500001 -0.866026
v -0.353553 0.353554 -0.866026
v -0.500000 0.000000 -0.866026
v -0.353553 -0.353553 -0.866026
v 0.000000 -0.500000 -0.866026
v 0.353553 -0.353553 -0.866026
v 0.500000 0.000000 -0.866026
v 0.612372 0.612373 -0.500000
v 0.000000 0.866026 -0.500000
v -0.612372 0.612373 -0.500000
v -0.866025 0.000000 -0.500000
v -0.612372 -0.612372 -0.500000
v 0.000000 -0.866025 -0.500000
v 0.612372 -0.612372 -0.500000
v 0.866026 0.000000 -0.500000
v 0.707107 0.707107 -0.000000
v 0.000000 1.000000 -0.000000
v -0.707107 0.707107 -0.000000
v -1.000000 0.000000 -0.000000
v -0.707107 -0.707106 -0.000000
v 0.000000 -1.000000 -0.000000
v 0.707107 -0.707106 -0.000000
v 1.000000 0.000000 -0.000000
v 0.612372 0.612373 0.500000
v 0.000000 0.866026 0.500000
v -0.612372 0.612373 0.500000
v -0.866025 0.000000 0.500000
v -0.612372 -0.612372 0.500000
v 0.000000 -0.866025 0.500000
v 0.612372 -0.612372 0.500000
v 0.866026 0.000000 0.500000
v 0.353553 0.353554 0.866025
v 0.000000 0.500001 0.866025
v -0.353553 0.353554 0.866025
v -0.500000 0.000000 0.866025
v -0.353553 -0.353553 0.866025
v 0.000000 -0.500000 0.866025
v 0.353553 -0.353553 0.866025
v 0.500000 0.000000 0.866025
v 0.000000 0.000000 -1.000000
v 0.000000 0.000000 1.000000
vt 0.754874 0.837114
vt 0.700512 0.861850
vt 0.702399 0.923077
vt 0.796950 0.880033
vt 0.646139 0.837035
vt 0.607807 0.879918
vt 0.623626 0.777202
vt 0.568646 0.775827
vt 0.646165 0.717423
vt 0.607867 0.671846
vt 0.700532 0.692719
vt 0.702434 0.628898
vt 0.754877 0.717539
vt 0.796939 0.672074
vt 0.777384 0.777340
vt 0.836084 0.776069
vt 0.705011 0.945004
vt 0.814819 0.895004
vt 0.595144 0.894881
vt 0.549661 0.773982
vt 0.595220 0.653218
vt 0.705049 0.603348
vt 0.814798 0.653494
vt 0.860260 0.774264
vt 0.707658 0.921119
vt 0.803309 0.877574
vt 0.611963 0.877457
vt 0.572345 0.772152
vt 0.612023 0.666960
vt 0.707690 0.623513
vt 0.803295 0.667193
vt 0.842897 0.772399
vt 0.709620 0.857203
vt 0.765082 0.831967
vt 0.654145 0.831885
vt 0.631175 0.770838
vt 0.654170 0.709848
vt 0.709638 0.684645
vt 0.765083 0.709969
vt 0.788047 0.770982
vt 0.699833 0.777753
vt 0.710349 0.770408
vn 0.424576 0.340281 -0.839014
vn 0.059604 0.540835 -0.839014
vn 0.622396 0.599036 -0.503765
vn 0.016517 0.863683 -0.503765
vn -0.340282 0.424575 -0.839014
vn -0.599037 0.622395 -0.503765
vn -0.540836 0.059604 -0.839014
vn -0.863683 0.016517 -0.503765
vn -0.424576 -0.340282 -0.839014
vn -0.622395 -0.599036 -0.503765
vn -0.059605 -0.540835 -0.839014
vn -0.016517 -0.863683 -0.503765
vn 0.340282 -0.424575 -0.839014
vn 0.599036 -0.622395 -0.503765
vn 0.540835 -0.059605 -0.839014
vn 0.863683 -0.016518 -0.503765
vn 0.707107 0.707107 0.000000
vn -0.000000 1.000000 0.000000
vn -0.707107 0.707107 -0.000000
vn -1.000000 -0.000000 -0.000000
vn -0.707107 -0.707107 0.000000
vn -0.000000 -1.000000 0.000000
vn 0.707107 -0.707107 -0.000000
vn 1.000000 -0.000000 0.000000
vn 0.599037 0.622395 0.503765
vn -0.016517 0.863683 0.503765
vn -0.622396 0.599036 0.503765
vn -0.863683 -0.016518 0.503765
vn -0.599036 -0.622395 0.503765
vn 0.016517 -0.863683 0.503765
vn 0.622395 -0.599036 0.503765
vn 0.863683 0.016517 0.503765
vn 0.340282 0.424575 0.839014
vn -0.059604 0.540835 0.839014
vn -0.424576 0.340281 0.839014
vn -0.540836 -0.059605 0.839014
vn -0.340282 -0.424575 0.839014
vn 0.059605 -0.540835 0.839014
vn 0.424576 -0.340282 0.839014
vn 0.540836 0.059604 0.839014
vn 0.000000 -0.000000 -1.000000
vn -0.000000 -0.000000 1.000000
f 1/1/1 2/2/2 9/4/3
f 9/4/3 2/2/2 10/3/4
f 2/2/2 3/5/5 10/3/4
f 10/3/4 3/5/5 11/6/6
f 3/5/5 4/7/7 11/6/6
f 11/6/6 4/7/7 12/8/8
f 4/7/7 5/9/9 12/8/8
f 12/8/8 5/9/9 13/10/10
f 5/9/9 6/11/11 13/10/10
f 13/10/10 6/11/11 14/12/12
f 6/11/11 7/13/13 14/12/12
f 14/12/12 7/13/13 15/14/14
f 7/13/13 8/15/15 15/14/14
f 15/14/14 8/15/15 16/16/16
f 8/15/15 1/1/1 16/16/16
f 16/16/16 1/1/1 9/4/3
f 9/4/3 10/3/4 17/18/17
f 17/18/17 10/3/4 18/17/18
f 10/3/4 11/6/6 18/17/18
f 18/17/18 11/6/6 19/19/19
f 11/6/6 12/8/8 19/19/19
f 19/19/19 12/8/8 20/20/20
f 12/8/8 13/10/10 20/20/20
f 20/20/20 13/10/10 21/21/21
f 13/10/10 14/12/12 21/21/21
f 21/21/21 14/12/12 22/22/22
f 14/12/12 15/14/14 22/22/22
f 22/22/22 15/14/14 23/23/23
f 15/14/14 16/16/16 23/23/23
f 23/23/23 16/16/16 24/24/24
f 16/16/16 9/4/3 24/24/24
f 24/24/24 9/4/3 17/18/17
f 17/18/17 18/17/18 25/26/25
f 25/26/25 18/17/18 26/25/26
f 18/17/18 19/19/19 26/25/26
f 26/25/26 19/19/19 27/27/27
f 19/19/19 20/20/20 27/27/27
f 27/27/27 20/20/20 28/28/28
f 20/20/20 21/21/21 28/28/28
f 28/28/28 21/21/21 29/29/29
f 21/21/21 22/22/22 29/29/29
f 29/29/29 22/22/22 30/30/30
f 22/22/22 23/23/23 30/30/30
f 30/30/30 23/23/23 31/31/31
f 23/23/23 24/24/24 31/31/31
f 31/31/31 24/24/24 32/32/32
f 24/24/24 17/18/17 32/32/32
f 32/32/32 17/18/17 25/26/25
f 25/26/25 26/25/26 33/34/33
f 33/34/33 26/25/26 34/33/34
f 26/25/26 27/27/27 34/33/34
f 34/33/34 27/27/27 35/35/35
f 27/27/27 28/28/28 35/35/35
f 35/35/35 28/28/28 36/36/36
f 28/28/28 29/29/29 36/36/36
f 36/36/36 29/29/29 37/37/37
f 29/29/29 30/30/30 37/37/37
f 37/37/37 30/30/30 38/38/38
f 30/30/30 31/31/31 38/38/38
f 38/38/38 31/31/31 39/39/39
f 31/31/31 32/32/32 39/39/39
f 39/39/39 32/32/32 40/40/40
f 32/32/32 25/26/25 40/40/40
f 40/40/40 25/26/25 33/34/33
f 2/2/2 1/1/1 41/41/41
f 3/5/5 2/2/2 41/41/41
f 4/7/7 3/5/5 41/41/41
f 5/9/9 4/7/7 41/41/41
f 6/11/11 5/9/9 41/41/41
f 7/13/13 6/11/11 41/41/41
f 8/15/15 7/13/13 41/41/41
f 1/1/1 8/15/15 41/41/41
f 33/34/33 34/33/34 42/42/42
f 34/33/34 35/35/35 42/42/42
f 35/35/35 36/36/36 42/42/42
f 36/36/36 37/37/37 42/42/42
f 37/37/37 38/38/38 42/42/42
f 38/38/38 39/39/39 42/42/42
f 39/39/39 40/40/40 42/42/42
f 40/40/40 33/34/33 42/42/42
