# This file uses centimeters as units for non-parametric coordinates.

v 0.107281 -0.007208 -0.173064
v -0.107532 -0.007208 -0.173064
v -0.214939 -0.008794 0.012705
v -0.107532 -0.010379 0.198472
v 0.101412 -0.008359 0.186331
v 0.214688 -0.008794 0.012705
v 0.062245 0.017219 -0.103511
v -0.064105 0.017219 -0.103511
v -0.127280 0.016287 0.005755
v -0.064105 0.015355 0.115021
v 0.062245 0.015355 0.115021
v 0.125420 0.016287 0.005755
v 0.001792 0.015869 0.009836
v 0.084084 0.003869 0.156978
v 0.171876 0.005021 0.005086
v 0.084084 0.005663 -0.146977
v -0.091502 0.006440 -0.146717
v -0.179294 0.008179 0.006144
v -0.091502 0.008655 0.158583
v 0.000289 0.017368 -0.127426
v -0.009249 0.006206 -0.170760
v 0.002532 -0.006956 -0.213723
v -0.113622 0.016646 -0.053301
v -0.154886 0.007193 -0.072008
v -0.188836 -0.008140 -0.092686
v -0.114836 0.015842 0.062925
v -0.157923 0.008356 0.079008
v -0.190144 -0.009603 0.116195
v -0.000467 0.015123 0.135513
v -0.001598 0.005887 0.178225
v 0.110863 0.016284 0.073607
v 0.145558 0.004914 0.093303
v 0.116106 0.017446 -0.053393
v 0.149447 0.006044 -0.076858
v -0.000038 -0.012664 0.215027
v 0.176347 -0.011605 0.112044
v 0.186212 -0.008492 -0.096063
vt 0.036532 0.000453
vt 0.192760 0.000453
vt 0.348989 0.000453
vt 0.505217 0.000453
vt 0.661446 0.000453
vt 0.817675 0.000453
vt 0.973903 0.000453
vt 0.036532 0.141907
vt 0.192760 0.141907
vt 0.348989 0.141907
vt 0.505217 0.141907
vt 0.661446 0.141907
vt 0.817675 0.141907
vt 0.973903 0.141907
vt 0.428307 0.785652
vt 0.661446 0.030212
vt 0.817675 0.029628
vt 0.973903 0.026974
vt 0.036532 0.026974
vt 0.192760 0.030127
vt 0.348989 0.042440
vt 0.505217 0.049629
vt 0.108201 0.141907
vt 0.116023 0.028578
vt 0.107776 0.000453
vt 0.268028 0.141907
vt 0.271601 0.036341
vt 0.263835 0.000453
vt 0.419300 0.141907
vt 0.415471 0.045499
vt 0.424592 0.000453
vt 0.587790 0.141907
vt 0.588007 0.039339
vt 0.740926 0.141907
vt 0.741518 0.029912
vt 0.894650 0.141907
vt 0.896407 0.028291
vt 0.582810 0.000453
vt 0.740955 0.000453
vt 0.897208 0.000453
vt 0.432516 0.773107
vt 0.454724 0.785113
vt 0.441882 0.763264
vt 0.453169 0.760276
vt 0.464247 0.762331
vt 0.474569 0.771791
vt 0.478882 0.783918
vt 0.475309 0.796106
vt 0.467638 0.805707
vt 0.454678 0.808915
vt 0.443251 0.807487
vt 0.433286 0.797430
vn -0.177926 0.954346 -0.239930
vn -0.060598 0.991794 -0.112571
vn -0.039029 0.957933 -0.284325
vn 0.014242 0.990203 -0.138906
vn -0.305309 0.951919 -0.025218
vn -0.110937 0.993827 -0.000659
vn -0.228907 0.965742 -0.122244
vn -0.104170 0.992585 -0.062642
vn -0.001447 0.999963 0.008536
vn -0.074448 0.995883 0.051726
vn -0.030348 0.995099 0.094114
vn 0.016704 0.990918 0.133423
vn 0.082288 0.987761 0.132504
vn 0.113150 0.990604 0.076822
vn 0.150333 0.988271 0.026830
vn 0.139417 0.988834 -0.052635
vn 0.087772 0.989449 -0.115269
vn 0.029754 0.949172 -0.313350
vn -0.178422 0.923708 -0.339013
vn -0.417236 0.907983 0.038473
vn -0.342082 0.920256 -0.190022
vn -0.254152 0.961346 0.105929
vn -0.322035 0.922777 0.211603
vn -0.144095 0.965181 0.218317
vn -0.138562 0.908793 0.393568
vn 0.004691 0.948701 0.316139
vn -0.050559 0.890962 0.451255
vn 0.283306 0.958929 -0.013892
vn 0.263420 0.950034 0.167467
vn 0.125321 0.952068 0.279038
vn 0.095578 0.912252 0.398322
vn 0.207399 0.932484 0.295734
vn 0.316309 0.906562 0.279454
vn 0.132987 0.958780 -0.251107
vn 0.246347 0.954803 -0.166323
vn 0.211436 0.938478 -0.273045
vn 0.247210 0.939343 -0.237742
vn 0.381793 0.907902 0.173054
vn 0.333008 0.940982 0.060488
vn 0.324897 0.942372 -0.079850
f 17/20/1 8/9/2 21/24/3
f 21/24/3 8/9/2 20/23/4
f 18/21/5 9/10/6 24/27/7
f 24/27/7 9/10/6 23/26/8
f 20/15/4 8/41/2 13/42/9
f 23/43/8 9/44/6 13/42/9
f 26/45/10 10/46/11 13/42/9
f 29/47/12 11/48/13 13/42/9
f 31/49/14 12/50/15 13/42/9
f 33/51/16 7/52/17 13/42/9
f 22/25/18 2/2/19 21/24/3
f 21/24/3 2/2/19 17/20/1
f 3/3/20 18/21/5 25/28/21
f 25/28/21 18/21/5 24/27/7
f 7/52/17 20/15/4 13/42/9
f 8/41/2 23/43/8 13/42/9
f 24/27/7 23/26/8 17/20/1
f 17/20/1 23/26/8 8/9/2
f 2/2/19 25/28/21 17/20/1
f 17/20/1 25/28/21 24/27/7
f 9/44/6 26/45/10 13/42/9
f 18/21/5 27/30/22 9/10/6
f 9/10/6 27/30/22 26/29/10
f 28/31/23 27/30/22 3/3/20
f 3/3/20 27/30/22 18/21/5
f 10/46/11 29/47/12 13/42/9
f 11/48/13 31/49/14 13/42/9
f 12/50/15 33/51/16 13/42/9
f 27/30/22 19/22/24 26/29/10
f 26/29/10 19/22/24 10/11/11
f 4/4/25 19/22/24 28/31/23
f 28/31/23 19/22/24 27/30/22
f 19/22/24 30/33/26 10/11/11
f 10/11/11 30/33/26 29/32/12
f 35/38/27 30/33/26 4/4/25
f 4/4/25 30/33/26 19/22/24
f 15/17/28 12/13/15 32/35/29
f 32/35/29 12/13/15 31/34/14
f 30/33/26 14/16/30 29/32/12
f 29/32/12 14/16/30 11/12/13
f 30/33/26 35/38/31 14/16/30
f 14/16/30 35/38/31 5/5/32
f 14/16/30 32/35/29 11/12/13
f 11/12/13 32/35/29 31/34/14
f 36/39/33 32/35/29 5/5/32
f 5/5/32 32/35/29 14/16/30
f 16/18/34 7/14/17 34/37/35
f 34/37/35 7/14/17 33/36/16
f 21/24/3 20/23/4 16/19/34
f 16/19/34 20/23/4 7/8/17
f 1/1/36 22/25/18 16/19/34
f 16/19/34 22/25/18 21/24/3
f 34/37/35 33/36/16 15/17/28
f 15/17/28 33/36/16 12/13/15
f 37/40/37 1/7/36 34/37/35
f 34/37/35 1/7/36 16/18/34
f 36/39/38 6/6/39 32/35/29
f 32/35/29 6/6/39 15/17/28
f 34/37/35 15/17/28 37/40/40
f 37/40/40 15/17/28 6/6/39
