# This file uses centimeters as units for non-parametric coordinates.

v 25.652676 13.393900 -20.398172
v -29.317562 13.383308 -20.320194
v 25.666643 13.392952 26.524343
v -29.302473 13.382534 26.546623
v 31.705666 13.395379 2.450961
v -2.295439 13.388764 -25.082848
v -2.349603 13.387584 31.680357
v -35.089977 13.380967 2.613557
v -2.352284 26.843517 2.532682
v -2.329721 23.076103 -11.424061
v -2.356803 23.075516 16.957542
v -18.849646 23.072206 2.573283
v 14.548178 23.079411 2.491985
v -34.237621 13.381657 -10.726387
v -17.988350 13.384772 30.947042
v -17.961800 13.385814 -24.400187
v 30.842552 13.394629 16.216999
v 30.821798 13.395162 -10.867552
v 13.718384 13.391636 -24.430340
v 13.691054 13.390473 30.955578
v -34.216091 13.381246 16.319473
v -18.633579 20.411072 -11.246548
v 14.345605 20.417295 16.775415
v -18.645342 20.410549 16.824524
v 14.357780 20.417881 -11.316195
v -1.102118 -1.529269 4.751022
v -2.474242 15.280013 31.671913
v 10.608427 15.256829 27.095657
v 8.537390 -1.538512 4.759558
v 22.043085 13.323444 14.733006
v 15.836214 -1.676273 4.822608
v -10.442151 -1.538914 4.750772
v -15.174065 15.174274 27.084179
v -25.920042 13.185551 14.712025
v -17.292105 -1.675791 4.805954
v -26.175310 3.576236 11.085032
v -14.321325 -1.582718 4.767633
v -21.530132 15.253307 20.638222
v -5.948855 -1.526938 4.747762
v -8.864094 15.232762 30.604536
v -14.902454 -3.269362 14.159256
v 12.657987 -1.582477 4.780529
v 22.555725 3.620003 11.161835
v 17.343708 15.378661 20.655552
v 3.839505 -1.526617 4.752212
v 10.546419 -3.255514 14.189142
v 4.027151 15.274038 30.610275
v -2.372802 -5.064438 15.596942
v -20.647106 -0.219951 12.721744
v -8.774525 -4.722345 15.178448
v 16.640411 -0.192407 12.773762
v 4.147473 -4.716685 15.192068
vt 0.052406 0.959246
vt 0.038254 0.959921
vt 0.037937 0.925114
vt 0.052088 0.924691
vt 0.037636 0.892453
vt 0.022569 0.925577
vt 0.022393 0.893406
vt 0.022770 0.960302
vt 0.051804 0.892362
vt 0.045012 0.924903
vt 0.030253 0.925346
vt 0.037787 0.908784
vt 0.038096 0.942517
vt 0.044720 0.892408
vt 0.022481 0.909492
vt 0.051946 0.908527
vt 0.030512 0.960112
vt 0.045330 0.959583
vt 0.052247 0.941969
vt 0.022670 0.942940
vt 0.030015 0.892930
vt 0.044866 0.908655
vt 0.030383 0.942729
vt 0.030134 0.909138
vt 0.045171 0.942243
vt 0.504685 0.759265
vt 0.504795 0.759262
vt 0.504797 0.759513
vt 0.504686 0.759516
vt 0.504799 0.759763
vt 0.504687 0.759766
vt 0.504683 0.759033
vt 0.504794 0.759028
vt 0.504792 0.758794
vt 0.504682 0.758801
vt 0.504737 0.758798
vt 0.504683 0.758917
vt 0.504793 0.758911
vt 0.504684 0.759149
vt 0.504795 0.759145
vt 0.504738 0.759031
vt 0.504687 0.759641
vt 0.504743 0.759765
vt 0.504798 0.759638
vt 0.504685 0.759390
vt 0.504742 0.759514
vt 0.504796 0.759387
vt 0.504740 0.759264
vt 0.504738 0.758914
vt 0.504739 0.759147
vt 0.504742 0.759640
vt 0.504741 0.759389
vn -0.425056 -0.894031 0.141551
vn -0.212553 -0.909184 0.358059
vn -0.278155 -0.895734 0.346828
vn -0.089475 -0.876099 0.473756
vn 0.512435 -0.858726 0.000025
vn 0.333649 -0.942694 0.002477
vn 0.445333 -0.885199 -0.134540
vn 0.264367 -0.918644 -0.293606
vn 0.000619 -0.835368 -0.549691
vn 0.001495 -0.930971 -0.365091
vn -0.111818 -0.869534 -0.481049
vn -0.253204 -0.922021 -0.292857
vn -0.042257 -0.838268 0.543618
vn 0.007540 -0.929289 0.369276
vn 0.114415 -0.853194 0.508891
vn 0.263391 -0.913738 0.309366
vn 0.444827 -0.884500 0.140669
vn 0.002807 -0.999988 0.004088
vn 0.293092 -0.891516 0.345394
vn -0.320512 -0.947241 0.002635
vn -0.425588 -0.894926 -0.134096
vn -0.491529 -0.870861 0.000879
vn -0.280908 -0.903189 -0.324563
vn 0.116166 -0.868486 -0.481910
vn 0.295389 -0.898213 -0.325512
vn 0.000229 0.922596 -0.385767
vn -0.189159 0.937619 -0.291703
vn -0.010685 0.952965 0.302893
vn -0.056079 0.965120 0.255733
vn 0.005905 0.984027 0.177920
vn -0.324041 0.907890 -0.265957
vn -0.136881 0.990423 0.018078
vn -0.473952 0.730999 -0.490928
vn 0.390459 0.862612 -0.321624
vn 0.195105 0.935280 -0.295273
vn 0.056571 0.968058 0.244260
vn 0.009732 0.953586 0.300963
vn 0.589518 0.417976 -0.691206
vn 0.496265 0.751701 -0.434359
vn 0.576948 0.337375 -0.743848
vn 0.592554 0.670294 -0.446751
vn 0.132082 0.989539 0.058025
vn 0.440857 0.530319 -0.724160
vn 0.272765 0.960146 -0.060978
vn 0.205009 0.602001 -0.771729
vn -0.000580 0.619965 -0.784630
vn -0.554894 0.632464 -0.540446
vn -0.551443 0.331403 -0.765561
vn -0.569229 0.416923 -0.708628
vn -0.426863 0.529576 -0.733033
vn -0.276631 0.949325 -0.149187
vn -0.200907 0.600640 -0.773866
f 18/18/1 25/25/2 1/1/3
f 1/1/3 25/25/2 19/19/4
f 8/5/5 12/12/6 21/21/7
f 21/21/7 12/12/6 24/24/8
f 7/6/9 11/11/10 20/20/11
f 20/20/11 11/11/10 23/23/12
f 6/4/13 10/10/14 16/16/15
f 16/16/15 10/10/14 22/22/16
f 22/22/16 12/12/6 14/14/17
f 14/14/17 12/12/6 8/5/5
f 22/22/16 10/10/14 12/12/6
f 12/12/6 10/10/14 9/3/18
f 16/16/15 22/22/16 2/9/19
f 2/9/19 22/22/16 14/14/17
f 23/23/12 13/13/20 17/17/21
f 17/17/21 13/13/20 5/2/22
f 23/23/12 11/11/10 13/13/20
f 13/13/20 11/11/10 9/3/18
f 20/20/11 23/23/12 3/8/23
f 3/8/23 23/23/12 17/17/21
f 24/24/8 11/11/10 15/15/24
f 15/15/24 11/11/10 7/6/9
f 24/24/8 12/12/6 11/11/10
f 11/11/10 12/12/6 9/3/18
f 21/21/7 24/24/8 4/7/25
f 4/7/25 24/24/8 15/15/24
f 25/25/2 13/13/20 10/10/14
f 10/10/14 13/13/20 9/3/18
f 25/25/2 18/18/1 13/13/20
f 13/13/20 18/18/1 5/2/22
f 19/19/4 25/25/2 6/4/13
f 6/4/13 25/25/2 10/10/14
f 48/48/26 52/52/27 26/26/28
f 26/26/28 52/52/27 45/45/29
f 29/29/30 46/46/31 42/42/32
f 42/42/32 46/46/31 51/51/33
f 41/41/34 50/50/35 32/32/36
f 32/32/36 50/50/35 39/39/37
f 38/38/38 49/49/39 34/34/40
f 34/34/40 49/49/39 36/36/41
f 49/49/39 41/41/34 37/37/42
f 37/37/42 41/41/34 32/32/36
f 49/49/39 38/38/38 41/41/34
f 41/41/34 38/38/38 33/33/43
f 36/36/41 49/49/39 35/35/44
f 35/35/44 49/49/39 37/37/42
f 50/50/35 40/40/45 48/48/26
f 48/48/26 40/40/45 27/27/46
f 40/40/45 50/50/35 33/33/43
f 33/33/43 50/50/35 41/41/34
f 50/50/35 48/48/26 39/39/37
f 39/39/37 48/48/26 26/26/28
f 43/43/47 51/51/33 30/30/48
f 30/30/48 51/51/33 44/44/49
f 51/51/33 46/46/31 44/44/49
f 44/44/49 46/46/31 28/28/50
f 42/42/32 51/51/33 31/31/51
f 31/31/51 51/51/33 43/43/47
f 46/46/31 52/52/27 28/28/50
f 28/28/50 52/52/27 47/47/52
f 52/52/27 48/48/26 47/47/52
f 47/47/52 48/48/26 27/27/46
f 52/52/27 46/46/31 45/45/29
f 45/45/29 46/46/31 29/29/30
