# This file uses centimeters as units for non-parametric coordinates.

v 13.241207 0.004204 5.966045
v 10.924010 0.004204 5.966045
v 9.243366 0.004204 5.966045
v 7.562862 0.004204 5.966045
v 5.882090 0.004204 5.966045
v 4.201592 0.004204 5.966045
v 2.520954 0.004204 5.966045
v 0.840319 0.004204 5.966045
v -0.840319 0.004204 5.966045
v -2.520954 0.004204 5.966045
v -4.201592 0.004204 5.966045
v -5.882090 0.004204 5.966045
v -7.562861 0.004204 5.966045
v -9.243366 0.004204 5.966045
v -10.924010 0.004204 5.966045
v -13.091306 0.004204 5.966045
v 13.241207 0.004204 3.908333
v 10.924010 0.004204 3.908333
v 9.243366 0.004204 3.908333
v 7.562862 0.004204 3.908333
v 5.882090 0.004204 3.908333
v 4.201592 0.004204 3.908333
v 2.520954 0.004204 3.908333
v 0.840319 0.004204 3.908333
v -0.840319 0.004204 3.908333
v -2.520954 0.004204 3.908333
v -4.201592 0.004204 3.908333
v -5.882090 0.004204 3.908333
v -7.562861 0.004204 3.908333
v -9.243366 0.004204 3.908333
v -10.924010 0.004204 3.908333
v -13.091306 0.004204 3.908333
v 13.241207 0.004204 2.345000
v 10.924010 0.004204 2.345000
v 9.243366 0.004204 2.345000
v 7.562862 0.004204 2.345000
v 5.882090 0.004204 2.345000
v 4.201592 0.004204 2.345000
v 2.520954 0.004204 2.345000
v 0.840319 0.004204 2.345000
v -0.840319 0.004204 2.345000
v -2.520954 0.004204 2.345000
v -4.201592 0.004204 2.345000
v -5.882090 0.004204 2.345000
v -7.562861 0.004204 2.345000
v -9.243366 0.004204 2.345000
v -10.924010 0.004204 2.345000
v -13.091306 0.004204 2.345000
v 13.241207 0.004204 0.781667
v 10.924010 0.004204 0.781667
v 9.243366 0.004204 0.781667
v 7.562862 0.004204 0.781667
v 5.882090 0.004204 0.781667
v 4.201592 0.004204 0.781667
v 2.520954 0.004204 0.781667
v 0.840319 0.004204 0.781667
v -0.840319 0.004204 0.781667
v -2.520954 0.004204 0.781667
v -4.201592 0.004204 0.781667
v -5.882090 0.004204 0.781667
v -7.562861 0.004204 0.781667
v -9.243366 0.004204 0.781667
v -10.924010 0.004204 0.781667
v -13.091306 0.004204 0.781667
v 13.241207 0.004204 -0.781667
v 10.924010 0.004204 -0.781667
v 9.243366 0.004204 -0.781667
v 7.562862 0.004204 -0.781667
v 5.882090 0.004204 -0.781667
v 4.201592 0.004204 -0.781667
v 2.520954 0.004204 -0.781667
v 0.840319 0.004204 -0.781667
v -0.840319 0.004204 -0.781667
v -2.520954 0.004204 -0.781667
v -4.201592 0.004204 -0.781667
v -5.882090 0.004204 -0.781667
v -7.562861 0.004204 -0.781667
v -9.243366 0.004204 -0.781667
v -10.924010 0.004204 -0.781667
v -13.091306 0.004204 -0.781667
v 13.241207 0.004204 -2.345000
v 10.924010 0.004204 -2.345000
v 9.243366 0.004204 -2.345000
v 7.562862 0.004204 -2.345000
v 5.882090 0.004204 -2.345000
v 4.201592 0.004204 -2.345000
v 2.520954 0.004204 -2.345000
v 0.840319 0.004204 -2.345000
v -0.840319 0.004204 -2.345000
v -2.520954 0.004204 -2.345000
v -4.201592 0.004204 -2.345000
v -5.882090 0.004204 -2.345000
v -7.562861 0.004204 -2.345000
v -9.243366 0.004204 -2.345000
v -10.924010 0.004204 -2.345000
v -13.091306 0.004204 -2.345000
v 13.241207 0.004204 -3.908333
v 10.924010 0.004204 -3.908333
v 9.243366 0.004204 -3.908333
v 7.562862 0.004204 -3.908333
v 5.882090 0.004204 -3.908333
v 4.201592 0.004204 -3.908333
v 2.520954 0.004204 -3.908333
v 0.840319 0.004204 -3.908333
v -0.840319 0.004204 -3.908333
v -2.520954 0.004204 -3.908333
v -4.201592 0.004204 -3.908333
v -5.882090 0.004204 -3.908333
v -7.562861 0.004204 -3.908333
v -9.243366 0.004204 -3.908333
v -10.924010 0.004204 -3.908333
v -13.091306 0.004204 -3.908333
v 13.241207 0.004204 -5.565497
v 10.924010 0.004204 -5.565497
v 9.243366 0.004204 -5.565497
v 7.562862 0.004204 -5.565497
v 5.882090 0.004204 -5.565497
v 4.201592 0.004204 -5.565497
v 2.520954 0.004204 -5.565497
v 0.840319 0.004204 -5.565497
v -0.840319 0.004204 -5.565497
v -2.520954 0.004204 -5.565497
v -4.201592 0.004204 -5.565497
v -5.882090 0.004204 -5.565497
v -7.562861 0.004204 -5.565497
v -9.243366 0.004204 -5.565497
v -10.924010 0.004204 -5.565497
v -13.091306 0.004204 -5.565497
v 13.322869 1.553337 6.566834
v 11.546581 1.553337 6.566834
v 13.322869 1.553337 4.395956
v 9.770010 1.553337 6.566834
v 7.993723 1.553337 6.566834
v 6.217293 1.553337 6.566834
v 4.441006 1.553337 6.566835
v 2.664576 1.553337 6.566835
v 0.888197 1.553337 6.566835
v -0.888197 1.553337 6.566835
v -2.664577 1.553337 6.566835
v -4.441006 1.553337 6.566835
v -6.217293 1.553338 6.566834
v -7.993723 1.553337 6.566834
v -9.770010 1.553337 6.566834
v -11.546581 1.553337 6.566834
v -13.125979 1.553337 6.566834
v -13.125979 1.553337 4.395956
v 13.322869 1.553337 2.719455
v -13.125979 1.553337 2.719455
v 13.322869 1.553337 1.042955
v -13.125979 1.553337 1.042955
v 13.322869 1.553338 -0.633546
v -13.125979 1.553338 -0.633546
v 13.322869 1.553337 -2.310046
v -13.125979 1.553337 -2.310046
v 13.322869 1.553337 -3.986547
v -13.125979 1.553337 -3.986547
v 13.322869 1.553337 -5.641973
v -13.125979 1.553337 -5.641973
v 11.546581 1.553337 -5.641973
v 9.770010 1.553337 -5.641973
v 7.993723 1.553337 -5.641973
v 6.217293 1.553337 -5.641973
v 4.441006 1.553337 -5.641974
v 2.664576 1.553337 -5.641974
v 0.888197 1.553337 -5.641974
v -0.888197 1.553337 -5.641974
v -2.664577 1.553337 -5.641974
v -4.441006 1.553337 -5.641974
v -6.217293 1.553338 -5.641973
v -7.993723 1.553337 -5.641973
v -9.770010 1.553337 -5.641973
v -11.546581 1.553337 -5.641973
v 15.262487 7.556216 12.750955
v 13.227501 7.556216 12.750955
v 15.262482 7.556216 9.921402
v 11.192503 7.556216 12.750955
v 9.157497 7.556216 12.750955
v 7.122496 7.556216 12.750955
v 5.087499 7.556216 12.750955
v 3.052498 7.556216 12.750955
v 1.017500 7.556216 12.750955
v -1.017500 7.556216 12.750955
v -3.052498 7.556216 12.750955
v -5.087500 7.556216 12.750955
v -7.122496 7.556217 12.750955
v -9.157497 7.556216 12.750955
v -11.192503 7.556216 12.750955
v -13.227501 7.556216 12.750955
v -15.262487 7.556216 12.750955
v -15.262482 7.556216 9.921402
v 15.262487 7.556216 7.091849
v -15.262487 7.556216 7.091849
v 15.262487 7.556216 4.262297
v -15.262487 7.556216 4.262297
v 15.262487 7.556217 1.432745
v -15.262487 7.556217 1.432745
v 15.262482 7.556216 -1.396807
v -15.262482 7.556216 -1.396807
v 15.262482 7.556216 -4.226359
v -15.262482 7.556216 -4.226359
v 15.262487 7.556216 -7.055912
v -15.262487 7.556216 -7.055912
v 13.227501 7.556216 -7.055912
v 11.192503 7.556216 -7.055912
v 9.157497 7.556216 -7.055912
v 7.122496 7.556216 -7.055912
v 5.087499 7.556216 -7.055912
v 3.052498 7.556216 -7.055912
v 1.017500 7.556216 -7.055912
v -1.017500 7.556216 -7.055912
v -3.052498 7.556216 -7.055912
v -5.087500 7.556216 -7.055912
v -7.122496 7.556217 -7.055912
v -9.157497 7.556216 -7.055912
v -11.192503 7.556216 -7.055912
v -13.227501 7.556216 -7.055912
v 19.724630 13.974363 14.097673
v 17.095020 13.974363 14.097673
v 19.724628 13.974363 10.557418
v 14.464838 13.974363 14.097673
v 11.834943 13.974363 14.097673
v 9.205044 13.974363 14.097673
v 6.574869 13.974363 14.097673
v 3.944981 13.974363 14.097673
v 1.314982 13.974363 14.097673
v -1.314982 13.974363 14.097673
v -3.944982 13.974363 14.097673
v -6.575012 13.974363 14.097673
v -9.205044 13.974363 14.097673
v -11.834943 13.974363 14.097673
v -14.464838 13.974363 14.097673
v -17.095020 13.974363 14.097673
v -19.724630 13.974363 14.097673
v -19.724628 13.974363 10.557418
v 19.724630 13.974363 7.017160
v -19.724630 13.974363 7.017160
v 19.724630 13.974363 3.476906
v -19.724630 13.974363 3.476906
v 19.724630 13.974363 -0.063351
v -19.724630 13.974363 -0.063351
v 19.724628 13.974363 -3.603607
v -19.724628 13.974363 -3.603607
v 19.724628 13.974363 -7.143863
v -19.724628 13.974363 -7.143863
v 19.724630 13.974363 -10.684118
v -19.724630 13.974363 -10.684118
v 17.095020 13.974363 -10.684118
v 14.464838 13.974363 -10.684118
v 11.834943 13.974363 -10.684118
v 9.205044 13.974363 -10.684118
v 6.574869 13.974363 -10.684118
v 3.944981 13.974363 -10.684118
v 1.314982 13.974363 -10.684118
v -1.314982 13.974363 -10.684118
v -3.944982 13.974363 -10.684118
v -6.575012 13.974363 -10.684118
v -9.205044 13.974363 -10.684118
v -11.834943 13.974363 -10.684118
v -14.464838 13.974363 -10.684118
v -17.095020 13.974363 -10.684118
v 13.972576 1.464732 -6.131739
v 13.974252 1.466835 -4.395498
v 13.975656 1.468939 -2.557793
v 13.977054 1.471045 -0.718917
v 13.978735 1.473152 1.121133
v 13.980136 1.475261 2.962357
v 13.981531 1.477370 5.299134
v 13.983204 1.479481 7.584160
v 12.326637 1.478573 7.583304
v 10.428946 1.477665 7.582448
v 8.531278 1.476757 7.581594
v 6.634029 1.475849 7.580738
v 4.736913 1.474941 7.579883
v 2.839939 1.474033 7.579028
v 0.943121 1.473126 7.578172
v -0.953522 1.472218 7.577317
v -2.850006 1.471311 7.576463
v -4.746286 1.470403 7.575607
v -6.642421 1.469496 7.574751
v -8.538275 1.468589 7.573897
v -10.434257 1.467682 7.573042
v -12.329700 1.466774 7.572187
v -13.664648 1.465965 7.571425
v -13.668561 1.471441 5.295198
v -13.672766 1.476925 2.962998
v -13.676674 1.482418 1.122123
v -13.680588 1.487921 -0.721813
v -13.684795 1.493433 -2.568817
v -13.688990 1.498954 -4.418898
v -13.692900 1.504484 -6.171769
v 12.319915 1.467396 -6.134422
v 10.425038 1.470061 -6.137106
v 8.529601 1.472727 -6.139790
v 6.633891 1.475393 -6.142475
v 4.737612 1.478060 -6.145161
v 2.840846 1.480728 -6.147848
v 0.943611 1.483396 -6.150534
v -0.954169 1.486066 -6.153223
v -2.852452 1.488735 -6.155911
v -4.751179 1.491406 -6.158600
v -6.650530 1.494078 -6.161289
v -8.550294 1.496750 -6.163980
v -10.450494 1.499422 -6.166672
v -12.351235 1.502096 -6.169364
v 13.885612 3.189763 -6.261608
v 12.135046 3.189760 -6.264532
v 10.269537 3.189758 -6.267457
v 8.403461 3.189755 -6.270381
v 6.536841 3.189753 -6.273306
v 4.669651 3.189750 -6.276233
v 2.801828 3.189748 -6.279161
v 0.933524 3.189745 -6.282088
v -0.935360 3.189743 -6.285017
v -2.804837 3.189740 -6.287947
v -4.674820 3.189738 -6.290877
v -6.545510 3.189735 -6.293807
v -8.416611 3.189734 -6.296739
v -10.288275 3.189731 -6.299672
v -12.160772 3.189728 -6.302605
v -13.667448 3.189726 -6.300403
v -13.716112 3.189712 -4.460390
v -13.764773 3.189697 -2.612397
v -13.814006 3.189682 -0.756169
v -13.863232 3.189667 1.108356
v -13.912739 3.189652 2.981241
v -13.962231 3.189637 6.640589
v -14.012309 3.189622 8.530385
v -12.219522 3.189625 8.526590
v -10.338061 3.189629 8.523428
v -8.457446 3.189632 8.520266
v -6.577109 3.189635 8.517105
v -4.697337 3.189638 8.513946
v -2.818262 3.189642 8.510788
v -0.939783 3.189645 8.507629
v 0.938138 3.189648 8.504473
v 2.815466 3.189652 8.501318
v 4.692162 3.189655 8.498164
v 6.568302 3.189658 8.495011
v 8.443735 3.189662 8.491859
v 10.318758 3.189665 8.488709
v 12.193222 3.189668 8.485559
v 13.952723 3.189671 8.482411
v 13.942945 3.189685 6.606663
v 13.933424 3.189698 2.960788
v 13.923636 3.189711 1.100813
v 13.914137 3.189724 -0.751347
v 13.904621 3.189737 -2.595741
v 13.895113 3.189750 -4.432414
v -13.961949 3.190059 -6.747333
v -12.414446 3.191775 -6.745932
v -10.504192 3.193643 -6.745305
v -8.594212 3.195510 -6.744679
v -6.684229 3.197376 -6.744055
v -4.774388 3.199241 -6.743434
v -2.864832 3.201106 -6.742815
v -0.955445 3.202969 -6.742196
v 0.953837 3.204831 -6.741579
v 2.862944 3.206693 -6.740964
v 4.771873 3.208553 -6.740351
v 6.680732 3.210413 -6.739739
v 8.589455 3.212272 -6.739130
v 10.497761 3.214129 -6.738523
v 12.406333 3.215986 -6.737916
v 14.200231 3.217842 -6.737312
v -14.012866 3.190812 -4.784895
v -14.064046 3.191567 -2.814637
v -14.115509 3.192323 -0.836308
v -14.166950 3.193083 1.150148
v -14.218708 3.193844 3.144786
v -14.270741 3.194607 6.925702
v -14.323029 3.195372 9.355539
v -12.474587 3.200789 9.363389
v -10.557050 3.206656 9.366502
v -8.638954 3.212520 9.369619
v -6.720452 3.218381 9.372742
v -4.801239 3.224239 9.375871
v -2.881472 3.230094 9.379004
v -0.961090 3.235947 9.382143
v 0.959884 3.241797 9.385288
v 2.881402 3.247645 9.388439
v 4.803617 3.253489 9.391594
v 6.726325 3.259331 9.394754
v 8.649597 3.265171 9.397922
v 10.573551 3.271007 9.401093
v 12.498066 3.276841 9.404270
v 14.309044 3.282672 9.407454
v 14.293104 3.273194 6.957632
v 14.277736 3.263790 3.161417
v 14.262064 3.254457 1.156153
v 14.246393 3.245197 -0.836265
v 14.231017 3.236007 -2.815905
v 14.215642 3.226889 -4.782833
vt 0.214993 0.347693
vt 0.252994 0.347693
vt 0.252994 0.391210
vt 0.214993 0.391210
vt 0.290995 0.347693
vt 0.290995 0.391210
vt 0.328996 0.347693
vt 0.328996 0.391210
vt 0.366997 0.347693
vt 0.366997 0.391210
vt 0.404998 0.347693
vt 0.404998 0.391210
vt 0.442999 0.347693
vt 0.442999 0.391210
vt 0.481000 0.347693
vt 0.481000 0.391210
vt 0.519001 0.347693
vt 0.519001 0.391210
vt 0.557001 0.347693
vt 0.557001 0.391210
vt 0.595002 0.347693
vt 0.595002 0.391210
vt 0.633003 0.347693
vt 0.633003 0.391210
vt 0.671004 0.347693
vt 0.671004 0.391210
vt 0.709005 0.347693
vt 0.709005 0.391210
vt 0.747006 0.347693
vt 0.747006 0.391210
vt 0.785007 0.347693
vt 0.785007 0.391210
vt 0.252994 0.434726
vt 0.214993 0.434726
vt 0.290995 0.434726
vt 0.328996 0.434726
vt 0.366997 0.434726
vt 0.404998 0.434726
vt 0.442999 0.434726
vt 0.481000 0.434726
vt 0.519001 0.434726
vt 0.557001 0.434726
vt 0.595002 0.434726
vt 0.633003 0.434726
vt 0.671004 0.434726
vt 0.709005 0.434726
vt 0.747006 0.434726
vt 0.785007 0.434726
vt 0.252994 0.478242
vt 0.214993 0.478242
vt 0.290995 0.478242
vt 0.328996 0.478242
vt 0.366997 0.478242
vt 0.404998 0.478242
vt 0.442999 0.478242
vt 0.481000 0.478242
vt 0.519001 0.478242
vt 0.557001 0.478242
vt 0.595002 0.478242
vt 0.633003 0.478242
vt 0.671004 0.478242
vt 0.709005 0.478242
vt 0.747006 0.478242
vt 0.785007 0.478242
vt 0.252994 0.521758
vt 0.214993 0.521758
vt 0.290995 0.521758
vt 0.328996 0.521758
vt 0.366997 0.521758
vt 0.404998 0.521758
vt 0.442999 0.521758
vt 0.481000 0.521758
vt 0.519001 0.521758
vt 0.557001 0.521758
vt 0.595002 0.521758
vt 0.633003 0.521758
vt 0.671004 0.521758
vt 0.709005 0.521758
vt 0.747006 0.521758
vt 0.785007 0.521758
vt 0.252994 0.565274
vt 0.214993 0.565274
vt 0.290995 0.565274
vt 0.328996 0.565274
vt 0.366997 0.565274
vt 0.404998 0.565274
vt 0.442999 0.565274
vt 0.481000 0.565274
vt 0.519001 0.565274
vt 0.557001 0.565274
vt 0.595002 0.565274
vt 0.633003 0.565274
vt 0.671004 0.565274
vt 0.709005 0.565274
vt 0.747006 0.565274
vt 0.785007 0.565274
vt 0.252994 0.608790
vt 0.214993 0.608790
vt 0.290995 0.608790
vt 0.328996 0.608790
vt 0.366997 0.608790
vt 0.404998 0.608790
vt 0.442999 0.608790
vt 0.481000 0.608790
vt 0.519001 0.608790
vt 0.557001 0.608790
vt 0.595002 0.608790
vt 0.633003 0.608790
vt 0.671004 0.608790
vt 0.709005 0.608790
vt 0.747006 0.608790
vt 0.785007 0.608790
vt 0.252994 0.652307
vt 0.214993 0.652307
vt 0.290995 0.652307
vt 0.328996 0.652307
vt 0.366997 0.652307
vt 0.404998 0.652307
vt 0.442999 0.652307
vt 0.481000 0.652307
vt 0.519001 0.652307
vt 0.557001 0.652307
vt 0.595002 0.652307
vt 0.633003 0.652307
vt 0.671004 0.652307
vt 0.709005 0.652307
vt 0.747006 0.652307
vt 0.785007 0.652307
vt 0.171115 0.280045
vt 0.214966 0.280045
vt 0.171115 0.342889
vt 0.258818 0.280045
vt 0.302669 0.280045
vt 0.346520 0.280045
vt 0.390372 0.280045
vt 0.434223 0.280045
vt 0.478074 0.280045
vt 0.521926 0.280045
vt 0.565777 0.280045
vt 0.609629 0.280045
vt 0.653480 0.280045
vt 0.697331 0.280045
vt 0.741183 0.280045
vt 0.785034 0.280045
vt 0.828885 0.280045
vt 0.828885 0.342889
vt 0.171115 0.405734
vt 0.828885 0.405734
vt 0.171115 0.468578
vt 0.828885 0.468578
vt 0.171115 0.531422
vt 0.828885 0.531422
vt 0.171115 0.594266
vt 0.828885 0.594266
vt 0.171115 0.657111
vt 0.828885 0.657111
vt 0.171115 0.719955
vt 0.828885 0.719955
vt 0.214966 0.719955
vt 0.258818 0.719955
vt 0.302669 0.719955
vt 0.346520 0.719955
vt 0.390372 0.719955
vt 0.434223 0.719955
vt 0.478074 0.719955
vt 0.521926 0.719955
vt 0.565777 0.719955
vt 0.609629 0.719955
vt 0.653480 0.719955
vt 0.697331 0.719955
vt 0.741183 0.719955
vt 0.785034 0.719955
vt 0.048484 0.048484
vt 0.108686 0.048484
vt 0.048484 0.177489
vt 0.168888 0.048484
vt 0.229091 0.048484
vt 0.289293 0.048484
vt 0.349495 0.048484
vt 0.409697 0.048484
vt 0.469899 0.048484
vt 0.530101 0.048484
vt 0.590303 0.048484
vt 0.650505 0.048484
vt 0.710707 0.048484
vt 0.770910 0.048484
vt 0.831112 0.048484
vt 0.891314 0.048484
vt 0.951516 0.048484
vt 0.951516 0.177489
vt 0.048484 0.306493
vt 0.951516 0.306493
vt 0.048484 0.435498
vt 0.951516 0.435498
vt 0.048484 0.564502
vt 0.951516 0.564502
vt 0.048484 0.693507
vt 0.951516 0.693507
vt 0.048484 0.822511
vt 0.951516 0.822511
vt 0.048484 0.951516
vt 0.951516 0.951516
vt 0.108686 0.951516
vt 0.168888 0.951516
vt 0.229091 0.951516
vt 0.289293 0.951516
vt 0.349495 0.951516
vt 0.409697 0.951516
vt 0.469899 0.951516
vt 0.530101 0.951516
vt 0.590303 0.951516
vt 0.650505 0.951516
vt 0.710707 0.951516
vt 0.770910 0.951516
vt 0.831112 0.951516
vt 0.891314 0.951516
vt 0.000000 0.000000
vt 0.066667 0.000000
vt 0.000000 0.142857
vt 0.133333 0.000000
vt 0.200000 0.000000
vt 0.266667 0.000000
vt 0.333333 0.000000
vt 0.400000 0.000000
vt 0.466667 0.000000
vt 0.533333 0.000000
vt 0.600000 0.000000
vt 0.666667 0.000000
vt 0.733333 0.000000
vt 0.800000 0.000000
vt 0.866667 0.000000
vt 0.933334 0.000000
vt 1.000000 0.000000
vt 1.000000 0.142857
vt 0.000000 0.285714
vt 1.000000 0.285714
vt 0.000000 0.428571
vt 1.000000 0.428571
vt 0.000000 0.571429
vt 1.000000 0.571429
vt 0.000000 0.714286
vt 1.000000 0.714286
vt 0.000000 0.857143
vt 1.000000 0.857143
vt 0.000000 1.000000
vt 1.000000 1.000000
vt 0.066667 1.000000
vt 0.133333 1.000000
vt 0.200000 1.000000
vt 0.266667 1.000000
vt 0.333333 1.000000
vt 0.400000 1.000000
vt 0.466667 1.000000
vt 0.533333 1.000000
vt 0.600000 1.000000
vt 0.666667 1.000000
vt 0.733333 1.000000
vt 0.800000 1.000000
vt 0.866667 1.000000
vt 0.933334 1.000000
vt 0.168488 0.724915
vt 0.168450 0.660705
vt 0.168412 0.596454
vt 0.168374 0.532161
vt 0.168336 0.467828
vt 0.168298 0.403454
vt 0.168259 0.339038
vt 0.168221 0.274581
vt 0.212473 0.274612
vt 0.256720 0.274643
vt 0.300962 0.274674
vt 0.345201 0.274705
vt 0.389435 0.274736
vt 0.433664 0.274767
vt 0.477889 0.274798
vt 0.522110 0.274829
vt 0.566326 0.274860
vt 0.610538 0.274891
vt 0.654746 0.274922
vt 0.698949 0.274953
vt 0.743148 0.274984
vt 0.787343 0.275015
vt 0.831534 0.275043
vt 0.831633 0.339183
vt 0.831733 0.403429
vt 0.831832 0.467783
vt 0.831932 0.532244
vt 0.832031 0.596812
vt 0.832131 0.661489
vt 0.832231 0.726273
vt 0.212648 0.725006
vt 0.256821 0.725097
vt 0.301006 0.725188
vt 0.345205 0.725279
vt 0.389416 0.725370
vt 0.433640 0.725462
vt 0.477877 0.725553
vt 0.522127 0.725644
vt 0.566389 0.725735
vt 0.610665 0.725826
vt 0.654954 0.725918
vt 0.699255 0.726009
vt 0.743569 0.726100
vt 0.787896 0.726192
vt 0.149160 0.761413
vt 0.195884 0.761532
vt 0.242625 0.761650
vt 0.289383 0.761769
vt 0.336157 0.761888
vt 0.382948 0.762006
vt 0.429757 0.762125
vt 0.476581 0.762244
vt 0.523423 0.762363
vt 0.570282 0.762482
vt 0.617157 0.762601
vt 0.664049 0.762720
vt 0.710958 0.762839
vt 0.757883 0.762958
vt 0.804826 0.763077
vt 0.851779 0.763186
vt 0.852144 0.688481
vt 0.852510 0.613385
vt 0.852878 0.537894
vt 0.853247 0.462006
vt 0.853618 0.385718
vt 0.853991 0.309027
vt 0.854365 0.231931
vt 0.807051 0.232074
vt 0.759752 0.232229
vt 0.712475 0.232385
vt 0.665220 0.232540
vt 0.617987 0.232695
vt 0.570776 0.232850
vt 0.523587 0.233006
vt 0.476419 0.233161
vt 0.429274 0.233316
vt 0.382150 0.233471
vt 0.335048 0.233626
vt 0.287969 0.233781
vt 0.240911 0.233936
vt 0.193874 0.234091
vt 0.146860 0.234246
vt 0.147193 0.310624
vt 0.147524 0.386642
vt 0.147854 0.462303
vt 0.148182 0.537608
vt 0.148509 0.612560
vt 0.148835 0.687161
vt 0.859469 0.777705
vt 0.811523 0.777668
vt 0.763580 0.777626
vt 0.715643 0.777585
vt 0.667712 0.777544
vt 0.619787 0.777502
vt 0.571868 0.777461
vt 0.523955 0.777420
vt 0.476047 0.777380
vt 0.428145 0.777339
vt 0.380249 0.777298
vt 0.332359 0.777257
vt 0.284474 0.777217
vt 0.236595 0.777176
vt 0.188722 0.777136
vt 0.140854 0.777095
vt 0.859820 0.698835
vt 0.860173 0.619586
vt 0.860527 0.539958
vt 0.860882 0.459947
vt 0.861239 0.379551
vt 0.861598 0.298768
vt 0.861958 0.217595
vt 0.813725 0.217533
vt 0.765486 0.217467
vt 0.717237 0.217400
vt 0.668979 0.217333
vt 0.620711 0.217265
vt 0.572434 0.217198
vt 0.524147 0.217130
vt 0.475851 0.217062
vt 0.427545 0.216993
vt 0.379229 0.216924
vt 0.330904 0.216855
vt 0.282568 0.216786
vt 0.234223 0.216716
vt 0.185868 0.216646
vt 0.137503 0.216576
vt 0.137986 0.298206
vt 0.138468 0.379313
vt 0.138948 0.459901
vt 0.139427 0.539970
vt 0.139904 0.619524
vt 0.140380 0.698565
vn 0.000000 1.000000 0.000000
vn 0.000000 1.000000 0.000000
vn 0.000000 1.000000 0.000000
vn 0.000000 1.000000 0.000000
vn 0.000000 1.000000 0.000000
vn 0.000000 1.000000 0.000000
vn 0.000000 1.000000 0.000000
vn 0.000000 1.000000 0.000000
vn 0.000000 1.000000 0.000000
vn 0.000000 1.000000 0.000000
vn 0.000000 1.000000 0.000000
vn 0.000000 1.000000 0.000000
vn 0.000000 1.000000 0.000000
vn 0.000000 1.000000 0.000000
vn 0.000000 1.000000 0.000000
vn 0.000000 1.000000 0.000000
vn 0.000000 1.000000 0.000000
vn 0.000000 1.000000 0.000000
vn 0.000000 1.000000 0.000000
vn 0.000000 1.000000 0.000000
vn 0.000000 1.000000 0.000000
vn 0.000000 1.000000 0.000000
vn 0.000000 1.000000 0.000000
vn 0.000000 1.000000 0.000000
vn 0.000000 1.000000 0.000000
vn 0.000000 1.000000 0.000000
vn 0.000000 1.000000 0.000000
vn 0.000000 1.000000 0.000000
vn 0.000000 1.000000 0.000000
vn 0.000000 1.000000 0.000000
vn 0.000000 1.000000 0.000000
vn 0.000000 1.000000 0.000000
vn 0.000000 1.000000 0.000000
vn 0.000000 1.000000 0.000000
vn 0.000000 1.000000 0.000000
vn 0.000000 1.000000 0.000000
vn 0.000000 1.000000 0.000000
vn 0.000000 1.000000 0.000000
vn 0.000000 1.000000 0.000000
vn 0.000000 1.000000 0.000000
vn 0.000000 1.000000 0.000000
vn 0.000000 1.000000 0.000000
vn 0.000000 1.000000 0.000000
vn 0.000000 1.000000 0.000000
vn 0.000000 1.000000 0.000000
vn 0.000000 1.000000 0.000000
vn 0.000000 1.000000 0.000000
vn 0.000000 1.000000 0.000000
vn 0.000000 1.000000 0.000000
vn 0.000000 1.000000 0.000000
vn 0.000000 1.000000 0.000000
vn 0.000000 1.000000 0.000000
vn 0.000000 1.000000 0.000000
vn 0.000000 1.000000 0.000000
vn 0.000000 1.000000 0.000000
vn 0.000000 1.000000 0.000000
vn 0.000000 1.000000 0.000000
vn 0.000000 1.000000 0.000000
vn 0.000000 1.000000 0.000000
vn 0.000000 1.000000 0.000000
vn 0.000000 1.000000 0.000000
vn 0.000000 1.000000 0.000000
vn 0.000000 1.000000 0.000000
vn 0.000000 1.000000 0.000000
vn 0.000000 1.000000 0.000000
vn 0.000000 1.000000 0.000000
vn 0.000000 1.000000 0.000000
vn 0.000000 1.000000 0.000000
vn 0.000000 1.000000 0.000000
vn 0.000000 1.000000 0.000000
vn 0.000000 1.000000 0.000000
vn 0.000000 1.000000 0.000000
vn 0.000000 1.000000 0.000000
vn 0.000000 1.000000 0.000000
vn 0.000000 1.000000 0.000000
vn 0.000000 1.000000 0.000000
vn 0.000000 1.000000 0.000000
vn 0.000000 1.000000 0.000000
vn 0.000000 1.000000 0.000000
vn 0.000000 1.000000 0.000000
vn 0.000000 1.000000 0.000000
vn 0.000000 1.000000 0.000000
vn 0.000000 1.000000 0.000000
vn 0.000000 1.000000 0.000000
vn 0.000000 1.000000 0.000000
vn 0.000000 1.000000 0.000000
vn 0.000000 1.000000 0.000000
vn 0.000000 1.000000 0.000000
vn 0.000000 1.000000 0.000000
vn 0.000000 1.000000 0.000000
vn 0.000000 1.000000 0.000000
vn 0.000000 1.000000 0.000000
vn 0.000000 1.000000 0.000000
vn 0.000000 1.000000 0.000000
vn 0.000000 1.000000 0.000000
vn 0.000000 1.000000 0.000000
vn 0.000000 1.000000 0.000000
vn 0.000000 1.000000 0.000000
vn 0.000000 1.000000 0.000000
vn 0.000000 1.000000 0.000000
vn 0.000000 1.000000 0.000000
vn 0.000000 1.000000 0.000000
vn 0.000000 1.000000 0.000000
vn 0.000000 1.000000 0.000000
vn 0.000000 1.000000 0.000000
vn 0.000000 1.000000 0.000000
vn 0.000000 1.000000 0.000000
vn 0.000000 1.000000 0.000000
vn 0.000000 1.000000 0.000000
vn 0.000000 1.000000 0.000000
vn 0.000000 1.000000 0.000000
vn 0.000000 1.000000 0.000000
vn 0.000000 1.000000 0.000000
vn 0.000000 1.000000 0.000000
vn 0.000000 1.000000 0.000000
vn 0.000000 1.000000 0.000000
vn 0.000000 1.000000 0.000000
vn 0.000000 1.000000 0.000000
vn 0.000000 1.000000 0.000000
vn 0.000000 1.000000 0.000000
vn 0.000000 1.000000 0.000000
vn 0.000000 1.000000 0.000000
vn 0.000000 1.000000 0.000000
vn 0.000000 1.000000 0.000000
vn 0.000000 1.000000 0.000000
vn 0.000000 1.000000 0.000000
vn 0.000000 1.000000 0.000000
vn 0.000000 1.000000 0.000000
vn 0.000000 0.361582 -0.932340
vn 0.000000 0.361582 -0.932340
vn 0.000000 0.361582 -0.932340
vn 0.000000 0.361582 -0.932340
vn -0.998613 0.052642 0.000000
vn -0.998613 0.052642 -0.000000
vn -0.998613 0.052642 0.000000
vn -0.998614 0.052641 -0.000000
vn 0.000000 0.361582 -0.932340
vn 0.000000 0.361582 -0.932340
vn 0.000000 0.361582 -0.932340
vn 0.000000 0.361582 -0.932340
vn -0.000000 0.361583 -0.932340
vn -0.000000 0.361582 -0.932340
vn 0.000000 0.361583 -0.932340
vn -0.000000 0.361583 -0.932340
vn 0.000000 0.361583 -0.932340
vn 0.000000 0.361583 -0.932340
vn 0.000000 0.361583 -0.932340
vn 0.000000 0.361583 -0.932340
vn 0.000000 0.361583 -0.932340
vn 0.000000 0.361583 -0.932340
vn 0.000000 0.361583 -0.932340
vn 0.000000 0.361583 -0.932340
vn 0.000000 0.361583 -0.932340
vn 0.000000 0.361583 -0.932340
vn 0.000000 0.361582 -0.932340
vn 0.000000 0.361582 -0.932340
vn 0.000000 0.361582 -0.932340
vn 0.000000 0.361582 -0.932340
vn 0.000000 0.361582 -0.932340
vn 0.000000 0.361582 -0.932340
vn 0.000000 0.361582 -0.932340
vn 0.000000 0.361582 -0.932340
vn 0.000000 0.361583 -0.932340
vn 0.000000 0.361582 -0.932340
vn 0.999750 0.022377 -0.000000
vn 0.999750 0.022377 -0.000000
vn 0.999750 0.022377 0.000000
vn 0.999750 0.022377 0.000000
vn -0.998613 0.052642 0.000000
vn -0.998613 0.052641 0.000000
vn 0.999750 0.022377 0.000000
vn 0.999750 0.022377 0.000000
vn -0.998613 0.052642 0.000000
vn -0.998613 0.052641 0.000000
vn 0.999750 0.022377 0.000000
vn 0.999750 0.022377 0.000000
vn -0.998613 0.052642 0.000000
vn -0.998613 0.052642 -0.000000
vn 0.999750 0.022377 -0.000000
vn 0.999750 0.022377 0.000000
vn -0.998614 0.052642 -0.000000
vn -0.998613 0.052641 0.000000
vn 0.999750 0.022376 0.000000
vn 0.999750 0.022377 -0.000000
vn -0.998614 0.052641 0.000000
vn -0.998613 0.052642 0.000000
vn 0.999750 0.022377 0.000000
vn 0.999750 0.022377 0.000000
vn -0.998613 0.052641 0.000000
vn -0.998613 0.052642 0.000000
vn 0.999750 0.022378 0.000000
vn 0.999750 0.022377 0.000000
vn 0.000001 0.049307 0.998784
vn 0.000000 0.049307 0.998784
vn 0.000000 0.049307 0.998784
vn -0.000000 0.049307 0.998784
vn -0.000000 0.049307 0.998784
vn 0.000000 0.049307 0.998784
vn 0.000000 0.049307 0.998784
vn 0.000000 0.049307 0.998784
vn -0.000000 0.049307 0.998784
vn -0.000000 0.049307 0.998784
vn -0.000000 0.049307 0.998784
vn 0.000000 0.049307 0.998784
vn 0.000000 0.049307 0.998784
vn 0.000000 0.049307 0.998784
vn 0.000000 0.049307 0.998784
vn 0.000000 0.049307 0.998784
vn 0.000000 0.049307 0.998784
vn 0.000000 0.049307 0.998784
vn 0.000000 0.049307 0.998784
vn 0.000000 0.049307 0.998784
vn 0.000000 0.049307 0.998784
vn 0.000000 0.049307 0.998784
vn 0.000000 0.049307 0.998784
vn 0.000000 0.049307 0.998784
vn -0.000000 0.049307 0.998784
vn 0.000000 0.049307 0.998784
vn 0.000000 0.049307 0.998784
vn 0.000000 0.049307 0.998784
vn 0.000000 0.049307 0.998784
vn -0.000000 0.049307 0.998784
vn -0.000000 0.049307 0.998784
vn -0.000001 0.049307 0.998784
vn -0.000000 0.997306 0.073355
vn -0.000292 0.997327 0.073070
vn -0.000292 0.997327 0.073070
vn -0.000584 0.997347 0.072785
vn 0.112676 0.993631 -0.001001
vn 0.113626 0.993523 -0.000500
vn 0.113626 0.993523 -0.000500
vn 0.114576 0.993415 0.000000
vn 0.000000 0.997236 0.074303
vn -0.000255 0.997257 0.074024
vn -0.000255 0.997257 0.074024
vn -0.000511 0.997277 0.073744
vn 0.000000 0.997165 0.075252
vn -0.000255 0.997188 0.074943
vn -0.000255 0.997188 0.074943
vn -0.000511 0.997211 0.074633
vn -0.000000 0.997092 0.076203
vn -0.000256 0.997118 0.075862
vn -0.000256 0.997118 0.075862
vn -0.000511 0.997144 0.075522
vn 0.000000 0.997019 0.077156
vn -0.000256 0.997048 0.076784
vn -0.000256 0.997048 0.076784
vn -0.000512 0.997076 0.076412
vn 0.000000 0.996945 0.078109
vn -0.000256 0.996976 0.077707
vn -0.000256 0.996976 0.077707
vn -0.000512 0.997007 0.077304
vn 0.000000 0.996870 0.079064
vn -0.000256 0.996904 0.078631
vn -0.000256 0.996904 0.078631
vn -0.000512 0.996938 0.078198
vn -0.000513 0.996796 0.079988
vn -0.000257 0.996833 0.079526
vn -0.000257 0.996833 0.079526
vn 0.000000 0.996870 0.079064
vn -0.000513 0.996723 0.080884
vn -0.000257 0.996759 0.080452
vn -0.000257 0.996759 0.080452
vn 0.000000 0.996793 0.080020
vn -0.000514 0.996650 0.081782
vn -0.000257 0.996683 0.081380
vn -0.000257 0.996683 0.081380
vn 0.000000 0.996716 0.080977
vn -0.000514 0.996576 0.082682
vn -0.000257 0.996607 0.082309
vn -0.000257 0.996607 0.082309
vn 0.000000 0.996638 0.081937
vn -0.000515 0.996501 0.083581
vn -0.000257 0.996530 0.083239
vn -0.000257 0.996530 0.083239
vn -0.000000 0.996558 0.082897
vn -0.000515 0.996425 0.084483
vn -0.000258 0.996451 0.084170
vn -0.000258 0.996451 0.084170
vn -0.000000 0.996478 0.083858
vn -0.000515 0.996348 0.085386
vn -0.000258 0.996372 0.085103
vn -0.000258 0.996372 0.085103
vn 0.000000 0.996396 0.084820
vn -0.000653 0.996269 0.086298
vn -0.000327 0.996292 0.086041
vn -0.000327 0.996292 0.086041
vn 0.000000 0.996314 0.085785
vn -0.149249 0.988800 0.000000
vn -0.152276 0.988337 0.001322
vn -0.152276 0.988337 0.001322
vn -0.155302 0.987863 0.002643
vn 0.115884 0.993262 -0.000966
vn 0.116922 0.993141 -0.000483
vn 0.116922 0.993141 -0.000483
vn 0.117960 0.993018 -0.000000
vn -0.138402 0.990376 -0.000000
vn -0.141728 0.989905 0.001294
vn -0.141728 0.989905 0.001294
vn -0.145052 0.989421 0.002588
vn 0.118408 0.992964 -0.001227
vn 0.119882 0.992788 -0.000614
vn 0.119882 0.992788 -0.000614
vn 0.121356 0.992609 0.000000
vn -0.127726 0.991810 0.000000
vn -0.132356 0.991201 0.001623
vn -0.132356 0.991201 0.001623
vn -0.136983 0.990568 0.003247
vn 0.121356 0.992609 0.000000
vn 0.123003 0.992406 -0.000625
vn 0.123003 0.992406 -0.000625
vn 0.124651 0.992200 -0.001250
vn -0.117643 0.993051 0.003213
vn -0.122687 0.992444 0.001607
vn -0.122687 0.992444 0.001607
vn -0.127727 0.991809 0.000000
vn 0.124811 0.992181 -0.000000
vn 0.126287 0.991994 -0.000617
vn 0.126287 0.991994 -0.000617
vn 0.127762 0.991804 -0.001233
vn -0.108059 0.994139 0.003213
vn -0.112600 0.993639 0.001606
vn -0.112600 0.993639 0.001606
vn -0.117139 0.993116 -0.000000
vn 0.128222 0.991745 0.000000
vn 0.129552 0.991573 -0.000618
vn 0.129552 0.991573 -0.000618
vn 0.130881 0.991397 -0.001235
vn -0.098576 0.995124 0.003193
vn -0.102583 0.994723 0.001597
vn -0.102583 0.994723 0.001597
vn -0.106588 0.994303 0.000000
vn 0.131643 0.991297 0.000000
vn 0.132893 0.991130 -0.000665
vn 0.132893 0.991130 -0.000665
vn 0.134143 0.990961 -0.001330
vn -0.088953 0.996030 0.003341
vn -0.092551 0.995707 0.001670
vn -0.092551 0.995707 0.001670
vn -0.096147 0.995367 0.000000
vn -0.001053 0.998302 0.058233
vn -0.000573 0.998388 0.056747
vn -0.000573 0.998388 0.056747
vn -0.000094 0.998472 0.055262
vn -0.000989 0.998500 0.054750
vn -0.000536 0.998584 0.053189
vn -0.000536 0.998584 0.053189
vn -0.000082 0.998666 0.051627
vn -0.000988 0.998689 0.051189
vn -0.000532 0.998771 0.049569
vn -0.000532 0.998771 0.049569
vn -0.000076 0.998850 0.047950
vn -0.000988 0.998867 0.047588
vn -0.000529 0.998946 0.045908
vn -0.000529 0.998946 0.045908
vn -0.000071 0.999021 0.044228
vn -0.000987 0.999033 0.043947
vn -0.000526 0.999109 0.042206
vn -0.000526 0.999109 0.042206
vn -0.000065 0.999181 0.040465
vn -0.000987 0.999189 0.040262
vn -0.000523 0.999260 0.038462
vn -0.000523 0.999260 0.038462
vn -0.000059 0.999328 0.036661
vn -0.000986 0.999332 0.036536
vn -0.000519 0.999399 0.034674
vn -0.000519 0.999399 0.034674
vn -0.000053 0.999462 0.032812
vn -0.000053 0.999462 0.032811
vn -0.000519 0.999523 0.030886
vn -0.000519 0.999523 0.030886
vn -0.000984 0.999580 0.028961
vn -0.000047 0.999582 0.028919
vn -0.000515 0.999635 0.027014
vn -0.000515 0.999635 0.027014
vn -0.000984 0.999684 0.025109
vn -0.000040 0.999688 0.024983
vn -0.000512 0.999733 0.023097
vn -0.000512 0.999733 0.023097
vn -0.000983 0.999775 0.021210
vn -0.000034 0.999779 0.021001
vn -0.000508 0.999817 0.019136
vn -0.000508 0.999817 0.019136
vn -0.000982 0.999850 0.017271
vn -0.000028 0.999856 0.016976
vn -0.000505 0.999885 0.015130
vn -0.000505 0.999885 0.015130
vn -0.000981 0.999911 0.013284
vn -0.000022 0.999917 0.012903
vn -0.000501 0.999938 0.011078
vn -0.000501 0.999938 0.011078
vn -0.000981 0.999957 0.009254
vn -0.000015 0.999961 0.008785
vn -0.000497 0.999976 0.006981
vn -0.000497 0.999976 0.006981
vn -0.000980 0.999986 0.005176
vn 0.000005 0.999989 0.004612
vn -0.000552 0.999995 0.003045
vn -0.000552 0.999995 0.003045
vn -0.001110 0.999998 0.001478
vn 0.000000 0.205358 -0.978687
vn 0.000000 0.205358 -0.978687
vn 0.000000 0.205358 -0.978687
vn 0.000000 0.205358 -0.978687
vn -0.821065 0.570835 0.000001
vn -0.821064 0.570835 0.000001
vn -0.821064 0.570835 0.000001
vn -0.821064 0.570836 0.000002
vn 0.000000 0.205358 -0.978687
vn 0.000000 0.205358 -0.978687
vn 0.000000 0.205358 -0.978687
vn 0.000000 0.205358 -0.978687
vn 0.000000 0.205358 -0.978687
vn 0.000000 0.205358 -0.978687
vn 0.000000 0.205358 -0.978687
vn 0.000000 0.205358 -0.978687
vn 0.000000 0.205358 -0.978687
vn 0.000000 0.205358 -0.978687
vn 0.000000 0.205358 -0.978687
vn 0.000000 0.205358 -0.978687
vn 0.000000 0.205358 -0.978687
vn 0.000000 0.205358 -0.978687
vn 0.000000 0.205358 -0.978687
vn 0.000000 0.205358 -0.978687
vn 0.000000 0.205358 -0.978687
vn 0.000000 0.205358 -0.978687
vn 0.000000 0.205358 -0.978687
vn 0.000000 0.205358 -0.978687
vn 0.000000 0.205358 -0.978687
vn 0.000000 0.205358 -0.978687
vn 0.000000 0.205358 -0.978687
vn 0.000000 0.205358 -0.978687
vn 0.000000 0.205358 -0.978687
vn 0.000000 0.205358 -0.978687
vn 0.000000 0.205358 -0.978687
vn 0.000000 0.205358 -0.978687
vn 0.000000 0.205358 -0.978687
vn 0.000000 0.205358 -0.978687
vn 0.000000 0.205358 -0.978687
vn 0.000000 0.205358 -0.978687
vn 0.000000 0.205358 -0.978687
vn 0.000000 0.205358 -0.978687
vn 0.000000 0.205358 -0.978687
vn 0.000000 0.205358 -0.978687
vn 0.000000 0.205358 -0.978687
vn 0.000000 0.205358 -0.978687
vn 0.000000 0.205358 -0.978687
vn 0.000000 0.205358 -0.978687
vn 0.000000 0.205358 -0.978687
vn -0.000000 0.205358 -0.978687
vn -0.000000 0.205358 -0.978687
vn -0.000000 0.205358 -0.978687
vn 0.000000 0.205358 -0.978687
vn 0.000000 0.205358 -0.978687
vn 0.000000 0.205358 -0.978687
vn 0.000000 0.205358 -0.978687
vn 0.000000 0.205358 -0.978687
vn 0.000000 0.205358 -0.978687
vn 0.000000 0.205358 -0.978687
vn 0.000000 0.205358 -0.978687
vn 0.000000 0.205358 -0.978687
vn 0.000000 0.205358 -0.978687
vn 0.000000 0.205358 -0.978687
vn 0.000000 0.205358 -0.978687
vn 0.821064 0.570836 0.000002
vn 0.821064 0.570835 0.000001
vn 0.821064 0.570835 0.000001
vn 0.821065 0.570835 0.000001
vn -0.821065 0.570835 -0.000001
vn -0.821064 0.570835 -0.000001
vn -0.821064 0.570835 -0.000001
vn -0.821064 0.570835 -0.000002
vn 0.821064 0.570835 -0.000002
vn 0.821064 0.570835 -0.000001
vn 0.821064 0.570835 -0.000001
vn 0.821065 0.570835 -0.000001
vn -0.821064 0.570836 0.000000
vn -0.821064 0.570836 0.000000
vn -0.821064 0.570836 0.000000
vn -0.821064 0.570836 0.000000
vn 0.821064 0.570836 0.000000
vn 0.821064 0.570836 0.000000
vn 0.821064 0.570836 0.000000
vn 0.821064 0.570836 0.000000
vn -0.821065 0.570836 0.000000
vn -0.821065 0.570836 0.000000
vn -0.821065 0.570836 0.000000
vn -0.821064 0.570836 0.000000
vn 0.821064 0.570836 0.000000
vn 0.821065 0.570836 0.000000
vn 0.821065 0.570836 0.000000
vn 0.821065 0.570836 0.000000
vn -0.821064 0.570836 0.000001
vn -0.821064 0.570836 0.000001
vn -0.821064 0.570836 0.000001
vn -0.821064 0.570836 0.000001
vn 0.821064 0.570836 0.000001
vn 0.821064 0.570836 0.000001
vn 0.821064 0.570836 0.000001
vn 0.821064 0.570836 0.000001
vn -0.821064 0.570836 0.000000
vn -0.821064 0.570836 0.000000
vn -0.821064 0.570836 0.000000
vn -0.821064 0.570836 0.000000
vn 0.821064 0.570836 0.000000
vn 0.821064 0.570836 0.000000
vn 0.821064 0.570836 0.000000
vn 0.821064 0.570836 0.000000
vn -0.821065 0.570835 -0.000002
vn -0.821065 0.570835 -0.000001
vn -0.821065 0.570835 -0.000001
vn -0.821065 0.570835 -0.000001
vn 0.821065 0.570835 -0.000001
vn 0.821065 0.570835 -0.000001
vn 0.821065 0.570835 -0.000001
vn 0.821065 0.570835 -0.000002
vn 0.000000 0.492115 0.870530
vn 0.000000 0.492115 0.870530
vn 0.000000 0.492115 0.870530
vn 0.000000 0.492114 0.870530
vn 0.000000 0.492114 0.870531
vn 0.000000 0.492114 0.870531
vn 0.000000 0.492114 0.870531
vn 0.000000 0.492115 0.870531
vn 0.000000 0.492115 0.870530
vn 0.000000 0.492115 0.870530
vn 0.000000 0.492115 0.870530
vn 0.000000 0.492115 0.870530
vn 0.000000 0.492115 0.870530
vn 0.000000 0.492115 0.870530
vn 0.000000 0.492115 0.870530
vn 0.000000 0.492115 0.870530
vn 0.000000 0.492115 0.870530
vn 0.000000 0.492114 0.870530
vn 0.000000 0.492114 0.870530
vn 0.000000 0.492114 0.870531
vn 0.000000 0.492115 0.870530
vn 0.000000 0.492115 0.870530
vn 0.000000 0.492115 0.870530
vn 0.000000 0.492115 0.870530
vn 0.000000 0.492115 0.870530
vn 0.000000 0.492115 0.870530
vn 0.000000 0.492115 0.870530
vn 0.000000 0.492115 0.870530
vn 0.000000 0.492115 0.870530
vn 0.000000 0.492115 0.870530
vn 0.000000 0.492115 0.870530
vn 0.000000 0.492115 0.870530
vn 0.000000 0.492114 0.870530
vn 0.000000 0.492114 0.870530
vn 0.000000 0.492114 0.870530
vn 0.000000 0.492115 0.870530
vn 0.000000 0.492115 0.870530
vn 0.000000 0.492115 0.870530
vn 0.000000 0.492115 0.870530
vn 0.000000 0.492114 0.870531
vn 0.000000 0.492115 0.870530
vn 0.000000 0.492115 0.870530
vn 0.000000 0.492115 0.870530
vn 0.000000 0.492115 0.870530
vn -0.000000 0.492115 0.870530
vn -0.000000 0.492115 0.870530
vn -0.000000 0.492115 0.870530
vn 0.000000 0.492115 0.870530
vn 0.000000 0.492115 0.870530
vn 0.000000 0.492115 0.870530
vn 0.000000 0.492115 0.870530
vn 0.000000 0.492115 0.870530
vn 0.000000 0.492115 0.870531
vn 0.000000 0.492114 0.870531
vn 0.000000 0.492114 0.870531
vn 0.000000 0.492114 0.870531
vn 0.000000 0.492114 0.870530
vn 0.000000 0.492115 0.870530
vn 0.000000 0.492115 0.870530
vn 0.000000 0.492115 0.870530
vn -0.971988 0.235029 -0.000002
vn -0.971588 0.236654 0.003276
vn -0.971588 0.236654 0.003276
vn -0.971175 0.238276 0.006555
vn -0.972662 0.232226 0.000000
vn -0.972416 0.233231 0.003257
vn -0.972416 0.233231 0.003257
vn -0.972159 0.234233 0.006513
vn -0.973330 0.229410 0.000002
vn -0.973230 0.229808 0.003246
vn -0.973230 0.229808 0.003246
vn -0.973121 0.230204 0.006490
vn -0.974007 0.226517 0.000000
vn -0.974049 0.226314 0.003305
vn -0.974049 0.226314 0.003305
vn -0.974080 0.226109 0.006610
vn -0.974679 0.223608 0.000000
vn -0.974858 0.222804 0.003293
vn -0.974858 0.222804 0.003293
vn -0.975025 0.221998 0.006587
vn -0.975331 0.220749 -0.000002
vn -0.975341 0.220697 0.001700
vn -0.975341 0.220697 0.001700
vn -0.975348 0.220646 0.003402
vn -0.976005 0.217749 0.000002
vn -0.976071 0.217433 0.002757
vn -0.976071 0.217433 0.002757
vn -0.976131 0.217115 0.005511
vn -0.000600 0.616099 -0.787669
vn -0.000300 0.616146 -0.787632
vn -0.000300 0.616146 -0.787632
vn 0.000000 0.616193 -0.787596
vn -0.000566 0.615928 -0.787803
vn -0.000283 0.615981 -0.787761
vn -0.000283 0.615981 -0.787761
vn 0.000000 0.616035 -0.787719
vn -0.000569 0.615761 -0.787933
vn -0.000285 0.615819 -0.787888
vn -0.000285 0.615819 -0.787888
vn 0.000000 0.615877 -0.787842
vn -0.000572 0.615592 -0.788065
vn -0.000286 0.615655 -0.788015
vn -0.000286 0.615655 -0.788015
vn 0.000000 0.615719 -0.787966
vn -0.000573 0.615424 -0.788196
vn -0.000287 0.615492 -0.788143
vn -0.000287 0.615492 -0.788143
vn 0.000000 0.615560 -0.788090
vn -0.000577 0.615254 -0.788329
vn -0.000288 0.615327 -0.788272
vn -0.000288 0.615327 -0.788272
vn 0.000000 0.615400 -0.788215
vn -0.000578 0.615084 -0.788461
vn -0.000289 0.615162 -0.788401
vn -0.000289 0.615162 -0.788401
vn 0.000000 0.615240 -0.788340
vn -0.000583 0.614914 -0.788594
vn -0.000291 0.614997 -0.788530
vn -0.000291 0.614997 -0.788530
vn 0.000000 0.615080 -0.788465
vn 0.000000 0.614757 -0.788717
vn -0.000292 0.614835 -0.788656
vn -0.000292 0.614835 -0.788656
vn -0.000584 0.614914 -0.788594
vn 0.000000 0.614595 -0.788843
vn -0.000294 0.614669 -0.788785
vn -0.000294 0.614669 -0.788785
vn -0.000588 0.614742 -0.788728
vn 0.000000 0.614432 -0.788970
vn -0.000295 0.614501 -0.788916
vn -0.000295 0.614501 -0.788916
vn -0.000590 0.614571 -0.788862
vn 0.000000 0.614269 -0.789096
vn -0.000296 0.614334 -0.789046
vn -0.000296 0.614334 -0.789046
vn -0.000593 0.614398 -0.788996
vn 0.000000 0.614106 -0.789224
vn -0.000297 0.614165 -0.789177
vn -0.000297 0.614165 -0.789177
vn -0.000595 0.614225 -0.789131
vn 0.000000 0.613941 -0.789352
vn -0.000299 0.613996 -0.789309
vn -0.000299 0.613996 -0.789309
vn -0.000598 0.614052 -0.789266
vn 0.000000 0.614352 -0.789032
vn 0.000776 0.614231 -0.789126
vn 0.000776 0.614231 -0.789126
vn 0.001552 0.614109 -0.789220
vn 0.977915 0.207950 0.020978
vn 0.977798 0.209285 0.010491
vn 0.977798 0.209285 0.010491
vn 0.977573 0.210597 0.000002
vn 0.975133 0.221218 0.013375
vn 0.975143 0.221474 0.006687
vn 0.975143 0.221474 0.006687
vn 0.975110 0.221721 -0.000002
vn 0.973681 0.226521 0.025179
vn 0.973196 0.229630 0.012591
vn 0.973196 0.229630 0.012591
vn 0.972548 0.232701 0.000000
vn 0.969971 0.241929 0.025026
vn 0.970009 0.242748 0.012514
vn 0.970009 0.242748 0.012514
vn 0.969893 0.243530 0.000000
vn 0.966054 0.257126 0.025032
vn 0.966680 0.255683 0.012518
vn 0.966680 0.255683 0.012518
vn 0.967152 0.254199 0.000002
vn 0.961927 0.272172 0.024883
vn 0.963200 0.268498 0.012443
vn 0.963200 0.268498 0.012443
vn 0.964309 0.264778 0.000000
vn 0.957614 0.286991 0.024736
vn 0.959592 0.281123 0.012368
vn 0.959592 0.281123 0.012368
vn 0.961387 0.275202 -0.000002
vn 0.001872 0.984456 -0.175619
vn 0.000936 0.984786 -0.173770
vn 0.000936 0.984786 -0.173770
vn -0.000000 0.985111 -0.171921
vn 0.001626 0.985539 -0.169441
vn 0.000813 0.985846 -0.167651
vn 0.000813 0.985846 -0.167651
vn 0.000000 0.986149 -0.165861
vn 0.001619 0.986496 -0.163777
vn 0.000810 0.986821 -0.161812
vn 0.000810 0.986821 -0.161812
vn 0.000000 0.987142 -0.159847
vn 0.001613 0.987413 -0.158154
vn 0.000806 0.987754 -0.156016
vn 0.000806 0.987754 -0.156016
vn -0.000000 0.988090 -0.153877
vn 0.001606 0.988291 -0.152572
vn 0.000803 0.988646 -0.150264
vn 0.000803 0.988646 -0.150264
vn 0.000000 0.988994 -0.147954
vn 0.001599 0.989130 -0.147032
vn 0.000800 0.989496 -0.144555
vn 0.000800 0.989496 -0.144555
vn 0.000000 0.989856 -0.142076
vn 0.001593 0.989932 -0.141533
vn 0.000796 0.990308 -0.138889
vn 0.000796 0.990308 -0.138889
vn 0.000000 0.990675 -0.136245
vn 0.000000 0.990675 -0.136245
vn 0.000790 0.991055 -0.133452
vn 0.000790 0.991055 -0.133452
vn 0.001580 0.991426 -0.130659
vn 0.000000 0.991454 -0.130458
vn 0.000786 0.991790 -0.127872
vn 0.000786 0.991790 -0.127872
vn 0.001573 0.992120 -0.125284
vn 0.000000 0.992192 -0.124718
vn 0.000783 0.992489 -0.122335
vn 0.000783 0.992489 -0.122335
vn 0.001566 0.992779 -0.119951
vn 0.000000 0.992891 -0.119024
vn 0.000780 0.993150 -0.116843
vn 0.000780 0.993150 -0.116843
vn 0.001560 0.993403 -0.114661
vn -0.000000 0.993552 -0.113376
vn 0.000776 0.993776 -0.111393
vn 0.000776 0.993776 -0.111393
vn 0.001553 0.993996 -0.109409
vn -0.000000 0.994175 -0.107773
vn 0.000773 0.994367 -0.105987
vn 0.000773 0.994367 -0.105987
vn 0.001546 0.994555 -0.104200
vn 0.000000 0.994762 -0.102216
vn 0.000770 0.994924 -0.100624
vn 0.000770 0.994924 -0.100624
vn 0.001540 0.995083 -0.099032
vn 0.000000 0.995313 -0.096705
vn 0.000970 0.995449 -0.095293
vn 0.000970 0.995449 -0.095293
vn 0.001940 0.995582 -0.093881
vn -0.001498 0.074997 0.997183
vn -0.001582 0.075073 0.997177
vn -0.001582 0.075073 0.997177
vn -0.001666 0.075149 0.997171
vn -0.001306 0.075187 0.997169
vn -0.001435 0.075314 0.997159
vn -0.001435 0.075314 0.997159
vn -0.001563 0.075441 0.997149
vn -0.001306 0.075464 0.997148
vn -0.001435 0.075594 0.997138
vn -0.001435 0.075594 0.997138
vn -0.001563 0.075723 0.997128
vn -0.001305 0.075742 0.997127
vn -0.001434 0.075874 0.997116
vn -0.001434 0.075874 0.997116
vn -0.001563 0.076006 0.997106
vn -0.001306 0.076020 0.997105
vn -0.001434 0.076155 0.997095
vn -0.001434 0.076155 0.997095
vn -0.001563 0.076289 0.997085
vn -0.001306 0.076300 0.997084
vn -0.001434 0.076437 0.997073
vn -0.001434 0.076437 0.997073
vn -0.001563 0.076574 0.997063
vn -0.001304 0.076580 0.997063
vn -0.001433 0.076720 0.997052
vn -0.001433 0.076720 0.997052
vn -0.001562 0.076859 0.997041
vn -0.001562 0.076859 0.997041
vn -0.001433 0.077001 0.997030
vn -0.001433 0.077001 0.997030
vn -0.001304 0.077143 0.997019
vn -0.001563 0.077145 0.997019
vn -0.001433 0.077285 0.997008
vn -0.001433 0.077285 0.997008
vn -0.001303 0.077426 0.996997
vn -0.001562 0.077433 0.996996
vn -0.001432 0.077571 0.996986
vn -0.001432 0.077571 0.996986
vn -0.001302 0.077709 0.996975
vn -0.001562 0.077721 0.996974
vn -0.001432 0.077857 0.996964
vn -0.001432 0.077857 0.996964
vn -0.001302 0.077994 0.996953
vn -0.001563 0.078010 0.996951
vn -0.001433 0.078144 0.996941
vn -0.001433 0.078144 0.996941
vn -0.001302 0.078279 0.996931
vn -0.001561 0.078300 0.996929
vn -0.001431 0.078432 0.996918
vn -0.001431 0.078432 0.996918
vn -0.001301 0.078565 0.996908
vn -0.001562 0.078590 0.996906
vn -0.001432 0.078721 0.996896
vn -0.001432 0.078721 0.996896
vn -0.001301 0.078852 0.996885
vn 0.001457 0.078543 0.996910
vn -0.000097 0.077338 0.997005
vn -0.000097 0.077338 0.997005
vn -0.001652 0.076133 0.997096
vn 0.999565 -0.013078 0.026436
vn 0.999925 0.001454 0.012131
vn 0.999925 0.001454 0.012131
vn 0.999870 0.015986 -0.002180
vn 0.999514 0.016680 0.026319
vn 0.999419 0.031868 0.012100
vn 0.999419 0.031868 0.012100
vn 0.998891 0.047042 -0.002124
vn 0.998508 0.047759 0.026484
vn 0.997942 0.062953 0.012225
vn 0.997942 0.062953 0.012225
vn 0.996942 0.078120 -0.002038
vn 0.996554 0.078662 0.026311
vn 0.995529 0.093657 0.012265
vn 0.995529 0.093657 0.012265
vn 0.994083 0.108612 -0.001786
vn 0.994082 0.108614 -0.001786
vn 0.992263 0.123551 0.012195
vn 0.992263 0.123551 0.012195
vn 0.990026 0.138435 0.026171
vn 0.990324 0.138771 -0.001459
vn 0.988888 0.148543 0.005948
vn 0.988888 0.148543 0.005948
vn 0.987302 0.158292 0.013354
vn 0.985538 0.169453 -0.001287
vn 0.984205 0.176602 0.012379
vn 0.984205 0.176602 0.012379
vn 0.982636 0.183710 0.026041
vn -0.001851 0.485889 -0.874019
vn -0.000822 0.485230 -0.874386
vn -0.000822 0.485230 -0.874386
vn 0.000207 0.484571 -0.874752
vn 0.000162 0.484573 -0.874751
vn -0.000655 0.483924 -0.875110
vn -0.000655 0.483924 -0.875110
vn -0.001472 0.483275 -0.875467
vn 0.000163 0.483206 -0.875507
vn -0.000656 0.482549 -0.875869
vn -0.000656 0.482549 -0.875869
vn -0.001475 0.481891 -0.876230
vn 0.000164 0.481833 -0.876263
vn -0.000655 0.481168 -0.876628
vn -0.000655 0.481168 -0.876628
vn -0.001475 0.480503 -0.876992
vn 0.000166 0.480456 -0.877019
vn -0.000655 0.479783 -0.877387
vn -0.000655 0.479783 -0.877387
vn -0.001475 0.479110 -0.877754
vn 0.000166 0.479074 -0.877774
vn -0.000656 0.478393 -0.878146
vn -0.000656 0.478393 -0.878146
vn -0.001478 0.477711 -0.878516
vn 0.000167 0.477688 -0.878529
vn -0.000656 0.476998 -0.878904
vn -0.000656 0.476998 -0.878904
vn -0.001479 0.476307 -0.879278
vn 0.000169 0.476298 -0.879284
vn -0.000655 0.475598 -0.879662
vn -0.000655 0.475598 -0.879662
vn -0.001480 0.474898 -0.880039
vn -0.001480 0.474898 -0.880039
vn -0.000655 0.474201 -0.880416
vn -0.000655 0.474201 -0.880416
vn 0.000170 0.473503 -0.880792
vn -0.001481 0.473484 -0.880801
vn -0.000655 0.472792 -0.881174
vn -0.000655 0.472792 -0.881174
vn 0.000171 0.472099 -0.881546
vn -0.001482 0.472065 -0.881563
vn -0.000655 0.471378 -0.881931
vn -0.000655 0.471378 -0.881931
vn 0.000172 0.470690 -0.882298
vn -0.001483 0.470640 -0.882324
vn -0.000655 0.469959 -0.882688
vn -0.000655 0.469959 -0.882688
vn 0.000173 0.469277 -0.883051
vn -0.001484 0.469210 -0.883085
vn -0.000655 0.468535 -0.883445
vn -0.000655 0.468535 -0.883445
vn 0.000174 0.467859 -0.883803
vn -0.001486 0.467776 -0.883846
vn -0.000656 0.467107 -0.884201
vn -0.000656 0.467107 -0.884201
vn 0.000175 0.466437 -0.884555
vn -0.001583 0.466329 -0.884610
vn -0.000690 0.465665 -0.884961
vn -0.000690 0.465665 -0.884961
vn 0.000203 0.465000 -0.885311
vn -0.999775 -0.020556 0.005212
vn -0.999757 -0.021830 0.002982
vn -0.999757 -0.021830 0.002982
vn -0.999733 -0.023104 0.000753
vn -0.999696 -0.024522 0.002610
vn -0.999664 -0.025878 0.001616
vn -0.999664 -0.025878 0.001616
vn -0.999629 -0.027234 0.000621
vn -0.999629 -0.027233 0.000792
vn -0.999557 -0.029627 0.003026
vn -0.999557 -0.029627 0.003026
vn -0.999473 -0.032020 0.005259
vn -0.999485 -0.032070 0.000950
vn -0.999408 -0.034278 0.003038
vn -0.999408 -0.034278 0.003038
vn -0.999321 -0.036486 0.005125
vn -0.999331 -0.036567 0.000802
vn -0.999241 -0.038849 0.002978
vn -0.999241 -0.038849 0.002978
vn -0.999141 -0.041131 0.005155
vn -0.999150 -0.041226 0.000810
vn -0.999049 -0.043500 0.002991
vn -0.999049 -0.043500 0.002991
vn -0.998939 -0.045774 0.005171
vn -0.998947 -0.045864 0.001020
vn -0.998847 -0.047911 0.003103
vn -0.998847 -0.047911 0.003103
vn -0.998738 -0.049959 0.005187
vn -0.000982 0.070664 0.997500
vn -0.000491 0.070582 0.997506
vn -0.000491 0.070582 0.997506
vn 0.000000 0.070500 0.997512
vn -0.000397 0.070956 0.997479
vn -0.000199 0.070901 0.997483
vn -0.000199 0.070901 0.997483
vn 0.000000 0.070846 0.997487
vn -0.000396 0.071140 0.997466
vn -0.000198 0.071079 0.997471
vn -0.000198 0.071079 0.997471
vn 0.000000 0.071018 0.997475
vn -0.000395 0.071324 0.997453
vn -0.000198 0.071258 0.997458
vn -0.000198 0.071258 0.997458
vn -0.000000 0.071191 0.997463
vn -0.000393 0.071507 0.997440
vn -0.000197 0.071435 0.997445
vn -0.000197 0.071435 0.997445
vn 0.000000 0.071364 0.997450
vn -0.000394 0.071690 0.997427
vn -0.000197 0.071613 0.997433
vn -0.000197 0.071613 0.997433
vn 0.000000 0.071535 0.997438
vn -0.000394 0.071873 0.997414
vn -0.000197 0.071790 0.997420
vn -0.000197 0.071790 0.997420
vn 0.000000 0.071707 0.997426
vn -0.000392 0.072055 0.997401
vn -0.000196 0.071967 0.997407
vn -0.000196 0.071967 0.997407
vn 0.000000 0.071879 0.997413
vn 0.000000 0.072221 0.997389
vn -0.000195 0.072138 0.997395
vn -0.000195 0.072138 0.997395
vn -0.000391 0.072055 0.997401
vn 0.000000 0.072391 0.997376
vn -0.000196 0.072314 0.997382
vn -0.000196 0.072314 0.997382
vn -0.000391 0.072238 0.997387
vn 0.000000 0.072562 0.997364
vn -0.000195 0.072491 0.997369
vn -0.000195 0.072491 0.997369
vn -0.000390 0.072419 0.997374
vn 0.000000 0.072732 0.997352
vn -0.000195 0.072666 0.997356
vn -0.000195 0.072666 0.997356
vn -0.000389 0.072601 0.997361
vn 0.000000 0.072902 0.997339
vn -0.000194 0.072842 0.997343
vn -0.000194 0.072842 0.997343
vn -0.000388 0.072782 0.997348
vn 0.000000 0.073071 0.997327
vn -0.000194 0.073017 0.997331
vn -0.000194 0.073017 0.997331
vn -0.000387 0.072963 0.997335
vn 0.000000 0.073241 0.997314
vn -0.000206 0.073195 0.997318
vn -0.000206 0.073195 0.997318
vn -0.000412 0.073149 0.997321
vn 0.001649 0.999999 -0.000341
vn 0.002622 0.999997 -0.000119
vn 0.002622 0.999997 -0.000119
vn 0.003595 0.999994 0.000103
vn 0.004013 0.999992 -0.000279
vn 0.005073 0.999987 -0.000055
vn 0.005073 0.999987 -0.000055
vn 0.006134 0.999981 0.000169
vn 0.006395 0.999980 -0.000216
vn 0.007546 0.999972 0.000011
vn 0.007546 0.999972 0.000011
vn 0.008697 0.999962 0.000239
vn 0.008802 0.999961 -0.000154
vn 0.010044 0.999950 0.000076
vn 0.010044 0.999950 0.000076
vn 0.011286 0.999936 0.000306
vn 0.011287 0.999936 0.000306
vn 0.012486 0.999922 0.000140
vn 0.012486 0.999922 0.000140
vn 0.013685 0.999906 -0.000027
vn 0.013801 0.999905 0.000191
vn 0.014963 0.999888 0.000105
vn 0.014963 0.999888 0.000105
vn 0.016125 0.999870 0.000020
vn 0.016518 0.999863 0.000446
vn 0.017627 0.999845 0.000267
vn 0.017627 0.999845 0.000267
vn 0.018737 0.999824 0.000088
vn -0.002896 0.999963 -0.008059
vn -0.001463 0.999942 -0.010704
vn -0.001463 0.999942 -0.010704
vn -0.000030 0.999911 -0.013349
vn -0.003036 0.999894 -0.014265
vn -0.001536 0.999850 -0.017233
vn -0.001536 0.999850 -0.017233
vn -0.000036 0.999796 -0.020202
vn -0.003022 0.999775 -0.020977
vn -0.001535 0.999712 -0.023962
vn -0.001535 0.999712 -0.023962
vn -0.000047 0.999637 -0.026947
vn -0.003009 0.999615 -0.027580
vn -0.001534 0.999531 -0.030584
vn -0.001534 0.999531 -0.030584
vn -0.000058 0.999436 -0.033587
vn -0.002995 0.999415 -0.034077
vn -0.001532 0.999310 -0.037098
vn -0.001532 0.999310 -0.037098
vn -0.000069 0.999195 -0.040119
vn -0.002982 0.999176 -0.040470
vn -0.001531 0.999052 -0.043509
vn -0.001531 0.999052 -0.043509
vn -0.000080 0.998916 -0.046548
vn -0.002968 0.998902 -0.046758
vn -0.001529 0.998757 -0.049816
vn -0.001529 0.998757 -0.049816
vn -0.000091 0.998601 -0.052874
vn -0.000091 0.998601 -0.052874
vn -0.001517 0.998432 -0.055952
vn -0.001517 0.998432 -0.055952
vn -0.002944 0.998252 -0.059029
vn -0.000101 0.998252 -0.059100
vn -0.001516 0.998071 -0.062058
vn -0.001516 0.998071 -0.062058
vn -0.002930 0.997880 -0.065016
vn -0.000111 0.997871 -0.065225
vn -0.001514 0.997680 -0.068065
vn -0.001514 0.997680 -0.068065
vn -0.002916 0.997479 -0.070904
vn -0.000122 0.997458 -0.071253
vn -0.001512 0.997259 -0.073976
vn -0.001512 0.997259 -0.073976
vn -0.002903 0.997050 -0.076698
vn -0.000132 0.997017 -0.077183
vn -0.001511 0.996811 -0.079790
vn -0.001511 0.996811 -0.079790
vn -0.002890 0.996595 -0.082397
vn -0.000141 0.996548 -0.083018
vn -0.001509 0.996336 -0.085511
vn -0.001509 0.996336 -0.085511
vn -0.002877 0.996116 -0.088004
vn -0.000151 0.996053 -0.088760
vn -0.001507 0.995837 -0.091140
vn -0.001507 0.995837 -0.091140
vn -0.002864 0.995613 -0.093520
vn -0.000171 0.995534 -0.094406
vn -0.001601 0.995318 -0.096642
vn -0.001601 0.995318 -0.096642
vn -0.003030 0.995095 -0.098877
vn -0.247339 0.968927 -0.002139
vn -0.240248 0.970712 -0.000459
vn -0.240248 0.970712 -0.000459
vn -0.233143 0.972442 0.001222
vn -0.230583 0.973052 -0.001477
vn -0.220644 0.975354 -0.000462
vn -0.220644 0.975354 -0.000462
vn -0.210682 0.977555 0.000554
vn -0.208747 0.977965 -0.002920
vn -0.198417 0.980117 -0.000962
vn -0.198417 0.980117 -0.000962
vn -0.188064 0.982156 0.000997
vn -0.188061 0.982157 0.000972
vn -0.176790 0.984248 -0.001155
vn -0.176790 0.984248 -0.001155
vn -0.165494 0.986205 -0.003282
vn -0.164466 0.986382 0.000855
vn -0.153575 0.988136 -0.001316
vn -0.153575 0.988136 -0.001316
vn -0.142664 0.989765 -0.003486
vn -0.139876 0.990169 0.000732
vn -0.129475 0.991582 -0.001470
vn -0.129475 0.991582 -0.001470
vn -0.119059 0.992880 -0.003672
vn -0.114451 0.993429 0.000601
vn -0.104574 0.994516 -0.001630
vn -0.104574 0.994516 -0.001630
vn -0.094686 0.995500 -0.003862
f 1/1/1 17/4/2 2/2/3
f 2/2/3 17/4/2 18/3/4
f 2/2/3 18/3/4 3/5/5
f 3/5/5 18/3/4 19/6/6
f 3/5/5 19/6/6 4/7/7
f 4/7/7 19/6/6 20/8/8
f 4/7/7 20/8/8 5/9/9
f 5/9/9 20/8/8 21/10/10
f 5/9/9 21/10/10 6/11/11
f 6/11/11 21/10/10 22/12/12
f 6/11/11 22/12/12 7/13/13
f 7/13/13 22/12/12 23/14/14
f 7/13/13 23/14/14 8/15/15
f 8/15/15 23/14/14 24/16/16
f 8/15/15 24/16/16 9/17/17
f 9/17/17 24/16/16 25/18/18
f 9/17/17 25/18/18 10/19/19
f 10/19/19 25/18/18 26/20/20
f 10/19/19 26/20/20 11/21/21
f 11/21/21 26/20/20 27/22/22
f 11/21/21 27/22/22 12/23/23
f 12/23/23 27/22/22 28/24/24
f 12/23/23 28/24/24 13/25/25
f 13/25/25 28/24/24 29/26/26
f 13/25/25 29/26/26 14/27/27
f 14/27/27 29/26/26 30/28/28
f 14/27/27 30/28/28 15/29/29
f 15/29/29 30/28/28 31/30/30
f 15/29/29 31/30/30 16/31/31
f 16/31/31 31/30/30 32/32/32
f 17/4/2 33/34/33 18/3/4
f 18/3/4 33/34/33 34/33/34
f 18/3/4 34/33/34 19/6/6
f 19/6/6 34/33/34 35/35/35
f 19/6/6 35/35/35 20/8/8
f 20/8/8 35/35/35 36/36/36
f 20/8/8 36/36/36 21/10/10
f 21/10/10 36/36/36 37/37/37
f 21/10/10 37/37/37 22/12/12
f 22/12/12 37/37/37 38/38/38
f 22/12/12 38/38/38 23/14/14
f 23/14/14 38/38/38 39/39/39
f 23/14/14 39/39/39 24/16/16
f 24/16/16 39/39/39 40/40/40
f 24/16/16 40/40/40 25/18/18
f 25/18/18 40/40/40 41/41/41
f 25/18/18 41/41/41 26/20/20
f 26/20/20 41/41/41 42/42/42
f 26/20/20 42/42/42 27/22/22
f 27/22/22 42/42/42 43/43/43
f 27/22/22 43/43/43 28/24/24
f 28/24/24 43/43/43 44/44/44
f 28/24/24 44/44/44 29/26/26
f 29/26/26 44/44/44 45/45/45
f 29/26/26 45/45/45 30/28/28
f 30/28/28 45/45/45 46/46/46
f 30/28/28 46/46/46 31/30/30
f 31/30/30 46/46/46 47/47/47
f 31/30/30 47/47/47 32/32/32
f 32/32/32 47/47/47 48/48/48
f 33/34/33 49/50/49 34/33/34
f 34/33/34 49/50/49 50/49/50
f 34/33/34 50/49/50 35/35/35
f 35/35/35 50/49/50 51/51/51
f 35/35/35 51/51/51 36/36/36
f 36/36/36 51/51/51 52/52/52
f 36/36/36 52/52/52 37/37/37
f 37/37/37 52/52/52 53/53/53
f 37/37/37 53/53/53 38/38/38
f 38/38/38 53/53/53 54/54/54
f 38/38/38 54/54/54 39/39/39
f 39/39/39 54/54/54 55/55/55
f 39/39/39 55/55/55 40/40/40
f 40/40/40 55/55/55 56/56/56
f 40/40/40 56/56/56 41/41/41
f 41/41/41 56/56/56 57/57/57
f 41/41/41 57/57/57 42/42/42
f 42/42/42 57/57/57 58/58/58
f 42/42/42 58/58/58 43/43/43
f 43/43/43 58/58/58 59/59/59
f 43/43/43 59/59/59 44/44/44
f 44/44/44 59/59/59 60/60/60
f 44/44/44 60/60/60 45/45/45
f 45/45/45 60/60/60 61/61/61
f 45/45/45 61/61/61 46/46/46
f 46/46/46 61/61/61 62/62/62
f 46/46/46 62/62/62 47/47/47
f 47/47/47 62/62/62 63/63/63
f 47/47/47 63/63/63 48/48/48
f 48/48/48 63/63/63 64/64/64
f 49/50/49 65/66/65 50/49/50
f 50/49/50 65/66/65 66/65/66
f 50/49/50 66/65/66 51/51/51
f 51/51/51 66/65/66 67/67/67
f 51/51/51 67/67/67 52/52/52
f 52/52/52 67/67/67 68/68/68
f 52/52/52 68/68/68 53/53/53
f 53/53/53 68/68/68 69/69/69
f 53/53/53 69/69/69 54/54/54
f 54/54/54 69/69/69 70/70/70
f 54/54/54 70/70/70 55/55/55
f 55/55/55 70/70/70 71/71/71
f 55/55/55 71/71/71 56/56/56
f 56/56/56 71/71/71 72/72/72
f 56/56/56 72/72/72 57/57/57
f 57/57/57 72/72/72 73/73/73
f 57/57/57 73/73/73 58/58/58
f 58/58/58 73/73/73 74/74/74
f 58/58/58 74/74/74 59/59/59
f 59/59/59 74/74/74 75/75/75
f 59/59/59 75/75/75 60/60/60
f 60/60/60 75/75/75 76/76/76
f 60/60/60 76/76/76 61/61/61
f 61/61/61 76/76/76 77/77/77
f 61/61/61 77/77/77 62/62/62
f 62/62/62 77/77/77 78/78/78
f 62/62/62 78/78/78 63/63/63
f 63/63/63 78/78/78 79/79/79
f 63/63/63 79/79/79 64/64/64
f 64/64/64 79/79/79 80/80/80
f 65/66/65 81/82/81 66/65/66
f 66/65/66 81/82/81 82/81/82
f 66/65/66 82/81/82 67/67/67
f 67/67/67 82/81/82 83/83/83
f 67/67/67 83/83/83 68/68/68
f 68/68/68 83/83/83 84/84/84
f 68/68/68 84/84/84 69/69/69
f 69/69/69 84/84/84 85/85/85
f 69/69/69 85/85/85 70/70/70
f 70/70/70 85/85/85 86/86/86
f 70/70/70 86/86/86 71/71/71
f 71/71/71 86/86/86 87/87/87
f 71/71/71 87/87/87 72/72/72
f 72/72/72 87/87/87 88/88/88
f 72/72/72 88/88/88 73/73/73
f 73/73/73 88/88/88 89/89/89
f 73/73/73 89/89/89 74/74/74
f 74/74/74 89/89/89 90/90/90
f 74/74/74 90/90/90 75/75/75
f 75/75/75 90/90/90 91/91/91
f 75/75/75 91/91/91 76/76/76
f 76/76/76 91/91/91 92/92/92
f 76/76/76 92/92/92 77/77/77
f 77/77/77 92/92/92 93/93/93
f 77/77/77 93/93/93 78/78/78
f 78/78/78 93/93/93 94/94/94
f 78/78/78 94/94/94 79/79/79
f 79/79/79 94/94/94 95/95/95
f 79/79/79 95/95/95 80/80/80
f 80/80/80 95/95/95 96/96/96
f 81/82/81 97/98/97 82/81/82
f 82/81/82 97/98/97 98/97/98
f 82/81/82 98/97/98 83/83/83
f 83/83/83 98/97/98 99/99/99
f 83/83/83 99/99/99 84/84/84
f 84/84/84 99/99/99 100/100/100
f 84/84/84 100/100/100 85/85/85
f 85/85/85 100/100/100 101/101/101
f 85/85/85 101/101/101 86/86/86
f 86/86/86 101/101/101 102/102/102
f 86/86/86 102/102/102 87/87/87
f 87/87/87 102/102/102 103/103/103
f 87/87/87 103/103/103 88/88/88
f 88/88/88 103/103/103 104/104/104
f 88/88/88 104/104/104 89/89/89
f 89/89/89 104/104/104 105/105/105
f 89/89/89 105/105/105 90/90/90
f 90/90/90 105/105/105 106/106/106
f 90/90/90 106/106/106 91/91/91
f 91/91/91 106/106/106 107/107/107
f 91/91/91 107/107/107 92/92/92
f 92/92/92 107/107/107 108/108/108
f 92/92/92 108/108/108 93/93/93
f 93/93/93 108/108/108 109/109/109
f 93/93/93 109/109/109 94/94/94
f 94/94/94 109/109/109 110/110/110
f 94/94/94 110/110/110 95/95/95
f 95/95/95 110/110/110 111/111/111
f 95/95/95 111/111/111 96/96/96
f 96/96/96 111/111/111 112/112/112
f 97/98/97 113/114/113 98/97/98
f 98/97/98 113/114/113 114/113/114
f 98/97/98 114/113/114 99/99/99
f 99/99/99 114/113/114 115/115/115
f 99/99/99 115/115/115 100/100/100
f 100/100/100 115/115/115 116/116/116
f 100/100/100 116/116/116 101/101/101
f 101/101/101 116/116/116 117/117/117
f 101/101/101 117/117/117 102/102/102
f 102/102/102 117/117/117 118/118/118
f 102/102/102 118/118/118 103/103/103
f 103/103/103 118/118/118 119/119/119
f 103/103/103 119/119/119 104/104/104
f 104/104/104 119/119/119 120/120/120
f 104/104/104 120/120/120 105/105/105
f 105/105/105 120/120/120 121/121/121
f 105/105/105 121/121/121 106/106/106
f 106/106/106 121/121/121 122/122/122
f 106/106/106 122/122/122 107/107/107
f 107/107/107 122/122/122 123/123/123
f 107/107/107 123/123/123 108/108/108
f 108/108/108 123/123/123 124/124/124
f 108/108/108 124/124/124 109/109/109
f 109/109/109 124/124/124 125/125/125
f 109/109/109 125/125/125 110/110/110
f 110/110/110 125/125/125 126/126/126
f 110/110/110 126/126/126 111/111/111
f 111/111/111 126/126/126 127/127/127
f 111/111/111 127/127/127 112/112/112
f 112/112/112 127/127/127 128/128/128
f 2/2/129 130/130/130 1/1/131
f 1/1/131 130/130/130 129/129/132
f 129/129/133 131/131/134 1/1/135
f 1/1/135 131/131/134 17/4/136
f 3/5/137 132/132/138 2/2/129
f 2/2/129 132/132/138 130/130/130
f 4/7/139 133/133/140 3/5/137
f 3/5/137 133/133/140 132/132/138
f 5/9/141 134/134/142 4/7/139
f 4/7/139 134/134/142 133/133/140
f 6/11/143 135/135/144 5/9/141
f 5/9/141 135/135/144 134/134/142
f 7/13/145 136/136/146 6/11/143
f 6/11/143 136/136/146 135/135/144
f 8/15/147 137/137/148 7/13/145
f 7/13/145 137/137/148 136/136/146
f 9/17/149 138/138/150 8/15/147
f 8/15/147 138/138/150 137/137/148
f 139/139/151 138/138/150 10/19/152
f 10/19/152 138/138/150 9/17/149
f 140/140/153 139/139/151 11/21/154
f 11/21/154 139/139/151 10/19/152
f 141/141/155 140/140/153 12/23/156
f 12/23/156 140/140/153 11/21/154
f 142/142/157 141/141/155 13/25/158
f 13/25/158 141/141/155 12/23/156
f 143/143/159 142/142/157 14/27/160
f 14/27/160 142/142/157 13/25/158
f 144/144/161 143/143/159 15/29/162
f 15/29/162 143/143/159 14/27/160
f 145/145/163 144/144/161 16/31/164
f 16/31/164 144/144/161 15/29/162
f 32/32/165 146/146/166 16/31/167
f 16/31/167 146/146/166 145/145/168
f 131/131/134 147/147/169 17/4/136
f 17/4/136 147/147/169 33/34/170
f 48/48/171 148/148/172 32/32/165
f 32/32/165 148/148/172 146/146/166
f 147/147/169 149/149/173 33/34/170
f 33/34/170 149/149/173 49/50/174
f 64/64/175 150/150/176 48/48/171
f 48/48/171 150/150/176 148/148/172
f 149/149/173 151/151/177 49/50/174
f 49/50/174 151/151/177 65/66/178
f 80/80/179 152/152/180 64/64/175
f 64/64/175 152/152/180 150/150/176
f 151/151/177 153/153/181 65/66/178
f 65/66/178 153/153/181 81/82/182
f 96/96/183 154/154/184 80/80/179
f 80/80/179 154/154/184 152/152/180
f 81/82/182 153/153/181 97/98/185
f 97/98/185 153/153/181 155/155/186
f 156/156/187 154/154/184 112/112/188
f 112/112/188 154/154/184 96/96/183
f 97/98/185 155/155/186 113/114/189
f 113/114/189 155/155/186 157/157/190
f 158/158/191 156/156/187 128/128/192
f 128/128/192 156/156/187 112/112/188
f 157/157/193 159/159/194 113/114/195
f 113/114/195 159/159/194 114/113/196
f 159/159/194 160/160/197 114/113/196
f 114/113/196 160/160/197 115/115/198
f 160/160/197 161/161/199 115/115/198
f 115/115/198 161/161/199 116/116/200
f 161/161/199 162/162/201 116/116/200
f 116/116/200 162/162/201 117/117/202
f 162/162/201 163/163/203 117/117/202
f 117/117/202 163/163/203 118/118/204
f 163/163/203 164/164/205 118/118/204
f 118/118/204 164/164/205 119/119/206
f 164/164/205 165/165/207 119/119/206
f 119/119/206 165/165/207 120/120/208
f 120/120/208 165/165/207 121/121/209
f 121/121/209 165/165/207 166/166/210
f 121/121/209 166/166/210 122/122/211
f 122/122/211 166/166/210 167/167/212
f 122/122/211 167/167/212 123/123/213
f 123/123/213 167/167/212 168/168/214
f 123/123/213 168/168/214 124/124/215
f 124/124/215 168/168/214 169/169/216
f 124/124/215 169/169/216 125/125/217
f 125/125/217 169/169/216 170/170/218
f 125/125/217 170/170/218 126/126/219
f 126/126/219 170/170/218 171/171/220
f 126/126/219 171/171/220 127/127/221
f 127/127/221 171/171/220 172/172/222
f 127/127/221 172/172/222 128/128/223
f 128/128/223 172/172/222 158/158/224
f 130/130/225 269/269/226 129/129/227
f 129/129/227 269/269/226 268/268/228
f 268/268/229 267/267/230 129/129/231
f 129/129/231 267/267/230 131/131/232
f 132/132/233 270/270/234 130/130/235
f 130/130/235 270/270/234 269/269/236
f 133/133/237 271/271/238 132/132/239
f 132/132/239 271/271/238 270/270/240
f 134/134/241 272/272/242 133/133/243
f 133/133/243 272/272/242 271/271/244
f 135/135/245 273/273/246 134/134/247
f 134/134/247 273/273/246 272/272/248
f 136/136/249 274/274/250 135/135/251
f 135/135/251 274/274/250 273/273/252
f 137/137/253 275/275/254 136/136/255
f 136/136/255 275/275/254 274/274/256
f 276/276/257 275/275/258 138/138/259
f 138/138/259 275/275/258 137/137/260
f 277/277/261 276/276/262 139/139/263
f 139/139/263 276/276/262 138/138/264
f 278/278/265 277/277/266 140/140/267
f 140/140/267 277/277/266 139/139/268
f 279/279/269 278/278/270 141/141/271
f 141/141/271 278/278/270 140/140/272
f 280/280/273 279/279/274 142/142/275
f 142/142/275 279/279/274 141/141/276
f 281/281/277 280/280/278 143/143/279
f 143/143/279 280/280/278 142/142/280
f 282/282/281 281/281/282 144/144/283
f 144/144/283 281/281/282 143/143/284
f 283/283/285 282/282/286 145/145/287
f 145/145/287 282/282/286 144/144/288
f 146/146/289 284/284/290 145/145/291
f 145/145/291 284/284/290 283/283/292
f 267/267/293 266/266/294 131/131/295
f 131/131/295 266/266/294 147/147/296
f 148/148/297 285/285/298 146/146/299
f 146/146/299 285/285/298 284/284/300
f 266/266/301 265/265/302 147/147/303
f 147/147/303 265/265/302 149/149/304
f 150/150/305 286/286/306 148/148/307
f 148/148/307 286/286/306 285/285/308
f 149/149/309 265/265/310 151/151/311
f 151/151/311 265/265/310 264/264/312
f 287/287/313 286/286/314 152/152/315
f 152/152/315 286/286/314 150/150/316
f 151/151/317 264/264/318 153/153/319
f 153/153/319 264/264/318 263/263/320
f 288/288/321 287/287/322 154/154/323
f 154/154/323 287/287/322 152/152/324
f 153/153/325 263/263/326 155/155/327
f 155/155/327 263/263/326 262/262/328
f 289/289/329 288/288/330 156/156/331
f 156/156/331 288/288/330 154/154/332
f 155/155/333 262/262/334 157/157/335
f 157/157/335 262/262/334 261/261/336
f 290/290/337 289/289/338 158/158/339
f 158/158/339 289/289/338 156/156/340
f 364/364/341 363/363/342 305/305/343
f 305/305/343 363/363/342 306/306/344
f 363/363/345 362/362/346 306/306/347
f 306/306/347 362/362/346 307/307/348
f 362/362/349 361/361/350 307/307/351
f 307/307/351 361/361/350 308/308/352
f 361/361/353 360/360/354 308/308/355
f 308/308/355 360/360/354 309/309/356
f 360/360/357 359/359/358 309/309/359
f 309/309/359 359/359/358 310/310/360
f 359/359/361 358/358/362 310/310/363
f 310/310/363 358/358/362 311/311/364
f 358/358/365 357/357/366 311/311/367
f 311/311/367 357/357/366 312/312/368
f 312/312/369 357/357/370 313/313/371
f 313/313/371 357/357/370 356/356/372
f 313/313/373 356/356/374 314/314/375
f 314/314/375 356/356/374 355/355/376
f 314/314/377 355/355/378 315/315/379
f 315/315/379 355/355/378 354/354/380
f 315/315/381 354/354/382 316/316/383
f 316/316/383 354/354/382 353/353/384
f 316/316/385 353/353/386 317/317/387
f 317/317/387 353/353/386 352/352/388
f 317/317/389 352/352/390 318/318/391
f 318/318/391 352/352/390 351/351/392
f 318/318/393 351/351/394 319/319/395
f 319/319/395 351/351/394 350/350/396
f 319/319/397 350/350/398 320/320/399
f 320/320/399 350/350/398 349/349/400
f 174/174/401 218/218/402 173/173/403
f 173/173/403 218/218/402 217/217/404
f 217/217/405 219/219/406 173/173/407
f 173/173/407 219/219/406 175/175/408
f 176/176/409 220/220/410 174/174/411
f 174/174/411 220/220/410 218/218/412
f 177/177/413 221/221/414 176/176/415
f 176/176/415 221/221/414 220/220/416
f 178/178/417 222/222/418 177/177/419
f 177/177/419 222/222/418 221/221/420
f 179/179/421 223/223/422 178/178/423
f 178/178/423 223/223/422 222/222/424
f 180/180/425 224/224/426 179/179/427
f 179/179/427 224/224/426 223/223/428
f 181/181/429 225/225/430 180/180/431
f 180/180/431 225/225/430 224/224/432
f 182/182/433 226/226/434 181/181/435
f 181/181/435 226/226/434 225/225/436
f 227/227/437 226/226/438 183/183/439
f 183/183/439 226/226/438 182/182/440
f 228/228/441 227/227/442 184/184/443
f 184/184/443 227/227/442 183/183/444
f 229/229/445 228/228/446 185/185/447
f 185/185/447 228/228/446 184/184/448
f 230/230/449 229/229/450 186/186/451
f 186/186/451 229/229/450 185/185/452
f 231/231/453 230/230/454 187/187/455
f 187/187/455 230/230/454 186/186/456
f 232/232/457 231/231/458 188/188/459
f 188/188/459 231/231/458 187/187/460
f 233/233/461 232/232/462 189/189/463
f 189/189/463 232/232/462 188/188/464
f 190/190/465 234/234/466 189/189/467
f 189/189/467 234/234/466 233/233/468
f 219/219/469 235/235/470 175/175/471
f 175/175/471 235/235/470 191/191/472
f 192/192/473 236/236/474 190/190/475
f 190/190/475 236/236/474 234/234/476
f 191/191/477 235/235/478 193/193/479
f 193/193/479 235/235/478 237/237/480
f 238/238/481 236/236/482 194/194/483
f 194/194/483 236/236/482 192/192/484
f 193/193/485 237/237/486 195/195/487
f 195/195/487 237/237/486 239/239/488
f 240/240/489 238/238/490 196/196/491
f 196/196/491 238/238/490 194/194/492
f 195/195/493 239/239/494 197/197/495
f 197/197/495 239/239/494 241/241/496
f 242/242/497 240/240/498 198/198/499
f 198/198/499 240/240/498 196/196/500
f 197/197/501 241/241/502 199/199/503
f 199/199/503 241/241/502 243/243/504
f 244/244/505 242/242/506 200/200/507
f 200/200/507 242/242/506 198/198/508
f 199/199/509 243/243/510 201/201/511
f 201/201/511 243/243/510 245/245/512
f 246/246/513 244/244/514 202/202/515
f 202/202/515 244/244/514 200/200/516
f 245/245/517 247/247/518 201/201/519
f 201/201/519 247/247/518 203/203/520
f 247/247/521 248/248/522 203/203/523
f 203/203/523 248/248/522 204/204/524
f 248/248/525 249/249/526 204/204/527
f 204/204/527 249/249/526 205/205/528
f 249/249/529 250/250/530 205/205/531
f 205/205/531 250/250/530 206/206/532
f 250/250/533 251/251/534 206/206/535
f 206/206/535 251/251/534 207/207/536
f 251/251/537 252/252/538 207/207/539
f 207/207/539 252/252/538 208/208/540
f 252/252/541 253/253/542 208/208/543
f 208/208/543 253/253/542 209/209/544
f 209/209/545 253/253/546 210/210/547
f 210/210/547 253/253/546 254/254/548
f 210/210/549 254/254/550 211/211/551
f 211/211/551 254/254/550 255/255/552
f 211/211/553 255/255/554 212/212/555
f 212/212/555 255/255/554 256/256/556
f 212/212/557 256/256/558 213/213/559
f 213/213/559 256/256/558 257/257/560
f 213/213/561 257/257/562 214/214/563
f 214/214/563 257/257/562 258/258/564
f 214/214/565 258/258/566 215/215/567
f 215/215/567 258/258/566 259/259/568
f 215/215/569 259/259/570 216/216/571
f 216/216/571 259/259/570 260/260/572
f 216/216/573 260/260/574 202/202/575
f 202/202/575 260/260/574 246/246/576
f 199/199/577 201/201/578 392/392/579
f 392/392/579 201/201/578 364/364/580
f 197/197/581 199/199/582 391/391/583
f 391/391/583 199/199/582 392/392/584
f 195/195/585 197/197/586 390/390/587
f 390/390/587 197/197/586 391/391/588
f 193/193/589 195/195/590 389/389/591
f 389/389/591 195/195/590 390/390/592
f 191/191/593 193/193/594 388/388/595
f 388/388/595 193/193/594 389/389/596
f 175/175/597 191/191/598 387/387/599
f 387/387/599 191/191/598 388/388/600
f 173/173/601 175/175/602 386/386/603
f 386/386/603 175/175/602 387/387/604
f 385/385/605 174/174/606 386/386/607
f 386/386/607 174/174/606 173/173/608
f 384/384/609 176/176/610 385/385/611
f 385/385/611 176/176/610 174/174/612
f 383/383/613 177/177/614 384/384/615
f 384/384/615 177/177/614 176/176/616
f 382/382/617 178/178/618 383/383/619
f 383/383/619 178/178/618 177/177/620
f 381/381/621 179/179/622 382/382/623
f 382/382/623 179/179/622 178/178/624
f 380/380/625 180/180/626 381/381/627
f 381/381/627 180/180/626 179/179/628
f 379/379/629 181/181/630 380/380/631
f 380/380/631 181/181/630 180/180/632
f 378/378/633 182/182/634 379/379/635
f 379/379/635 182/182/634 181/181/636
f 183/183/637 182/182/638 377/377/639
f 377/377/639 182/182/638 378/378/640
f 184/184/641 183/183/642 376/376/643
f 376/376/643 183/183/642 377/377/644
f 185/185/645 184/184/646 375/375/647
f 375/375/647 184/184/646 376/376/648
f 186/186/649 185/185/650 374/374/651
f 374/374/651 185/185/650 375/375/652
f 187/187/653 186/186/654 373/373/655
f 373/373/655 186/186/654 374/374/656
f 188/188/657 187/187/658 372/372/659
f 372/372/659 187/187/658 373/373/660
f 189/189/661 188/188/662 371/371/663
f 371/371/663 188/188/662 372/372/664
f 370/370/665 190/190/666 371/371/667
f 371/371/667 190/190/666 189/189/668
f 369/369/669 192/192/670 370/370/671
f 370/370/671 192/192/670 190/190/672
f 368/368/673 194/194/674 369/369/675
f 369/369/675 194/194/674 192/192/676
f 367/367/677 196/196/678 368/368/679
f 368/368/679 196/196/678 194/194/680
f 366/366/681 198/198/682 367/367/683
f 367/367/683 198/198/682 196/196/684
f 365/365/685 200/200/686 366/366/687
f 366/366/687 200/200/686 198/198/688
f 349/349/689 202/202/690 365/365/691
f 365/365/691 202/202/690 200/200/692
f 261/261/693 291/291/694 157/157/695
f 157/157/695 291/291/694 159/159/696
f 291/291/697 292/292/698 159/159/699
f 159/159/699 292/292/698 160/160/700
f 292/292/701 293/293/702 160/160/703
f 160/160/703 293/293/702 161/161/704
f 293/293/705 294/294/706 161/161/707
f 161/161/707 294/294/706 162/162/708
f 294/294/709 295/295/710 162/162/711
f 162/162/711 295/295/710 163/163/712
f 295/295/713 296/296/714 163/163/715
f 163/163/715 296/296/714 164/164/716
f 296/296/717 297/297/718 164/164/719
f 164/164/719 297/297/718 165/165/720
f 165/165/721 297/297/722 166/166/723
f 166/166/723 297/297/722 298/298/724
f 166/166/725 298/298/726 167/167/727
f 167/167/727 298/298/726 299/299/728
f 167/167/729 299/299/730 168/168/731
f 168/168/731 299/299/730 300/300/732
f 168/168/733 300/300/734 169/169/735
f 169/169/735 300/300/734 301/301/736
f 169/169/737 301/301/738 170/170/739
f 170/170/739 301/301/738 302/302/740
f 170/170/741 302/302/742 171/171/743
f 171/171/743 302/302/742 303/303/744
f 171/171/745 303/303/746 172/172/747
f 172/172/747 303/303/746 304/304/748
f 172/172/749 304/304/750 158/158/751
f 158/158/751 304/304/750 290/290/752
f 261/261/753 305/305/754 291/291/755
f 291/291/755 305/305/754 306/306/756
f 291/291/757 306/306/758 292/292/759
f 292/292/759 306/306/758 307/307/760
f 292/292/761 307/307/762 293/293/763
f 293/293/763 307/307/762 308/308/764
f 293/293/765 308/308/766 294/294/767
f 294/294/767 308/308/766 309/309/768
f 294/294/769 309/309/770 295/295/771
f 295/295/771 309/309/770 310/310/772
f 295/295/773 310/310/774 296/296/775
f 296/296/775 310/310/774 311/311/776
f 296/296/777 311/311/778 297/297/779
f 297/297/779 311/311/778 312/312/780
f 312/312/781 313/313/782 297/297/783
f 297/297/783 313/313/782 298/298/784
f 313/313/785 314/314/786 298/298/787
f 298/298/787 314/314/786 299/299/788
f 314/314/789 315/315/790 299/299/791
f 299/299/791 315/315/790 300/300/792
f 315/315/793 316/316/794 300/300/795
f 300/300/795 316/316/794 301/301/796
f 316/316/797 317/317/798 301/301/799
f 301/301/799 317/317/798 302/302/800
f 317/317/801 318/318/802 302/302/803
f 302/302/803 318/318/802 303/303/804
f 318/318/805 319/319/806 303/303/807
f 303/303/807 319/319/806 304/304/808
f 319/319/809 320/320/810 304/304/811
f 304/304/811 320/320/810 290/290/812
f 320/320/813 321/321/814 290/290/815
f 290/290/815 321/321/814 289/289/816
f 321/321/817 322/322/818 289/289/819
f 289/289/819 322/322/818 288/288/820
f 322/322/821 323/323/822 288/288/823
f 288/288/823 323/323/822 287/287/824
f 323/323/825 324/324/826 287/287/827
f 287/287/827 324/324/826 286/286/828
f 286/286/829 324/324/830 285/285/831
f 285/285/831 324/324/830 325/325/832
f 285/285/833 325/325/834 284/284/835
f 284/284/835 325/325/834 326/326/836
f 284/284/837 326/326/838 283/283/839
f 283/283/839 326/326/838 327/327/840
f 327/327/841 328/328/842 283/283/843
f 283/283/843 328/328/842 282/282/844
f 282/282/845 328/328/846 281/281/847
f 281/281/847 328/328/846 329/329/848
f 281/281/849 329/329/850 280/280/851
f 280/280/851 329/329/850 330/330/852
f 280/280/853 330/330/854 279/279/855
f 279/279/855 330/330/854 331/331/856
f 279/279/857 331/331/858 278/278/859
f 278/278/859 331/331/858 332/332/860
f 278/278/861 332/332/862 277/277/863
f 277/277/863 332/332/862 333/333/864
f 277/277/865 333/333/866 276/276/867
f 276/276/867 333/333/866 334/334/868
f 276/276/869 334/334/870 275/275/871
f 275/275/871 334/334/870 335/335/872
f 335/335/873 336/336/874 275/275/875
f 275/275/875 336/336/874 274/274/876
f 336/336/877 337/337/878 274/274/879
f 274/274/879 337/337/878 273/273/880
f 337/337/881 338/338/882 273/273/883
f 273/273/883 338/338/882 272/272/884
f 338/338/885 339/339/886 272/272/887
f 272/272/887 339/339/886 271/271/888
f 339/339/889 340/340/890 271/271/891
f 271/271/891 340/340/890 270/270/892
f 340/340/893 341/341/894 270/270/895
f 270/270/895 341/341/894 269/269/896
f 341/341/897 342/342/898 269/269/899
f 269/269/899 342/342/898 268/268/900
f 342/342/901 343/343/902 268/268/903
f 268/268/903 343/343/902 267/267/904
f 343/343/905 344/344/906 267/267/907
f 267/267/907 344/344/906 266/266/908
f 266/266/909 344/344/910 265/265/911
f 265/265/911 344/344/910 345/345/912
f 265/265/913 345/345/914 264/264/915
f 264/264/915 345/345/914 346/346/916
f 264/264/917 346/346/918 263/263/919
f 263/263/919 346/346/918 347/347/920
f 263/263/921 347/347/922 262/262/923
f 262/262/923 347/347/922 348/348/924
f 262/262/925 348/348/926 261/261/927
f 261/261/927 348/348/926 305/305/928
f 350/350/929 216/216/930 349/349/931
f 349/349/931 216/216/930 202/202/932
f 351/351/933 215/215/934 350/350/935
f 350/350/935 215/215/934 216/216/936
f 352/352/937 214/214/938 351/351/939
f 351/351/939 214/214/938 215/215/940
f 353/353/941 213/213/942 352/352/943
f 352/352/943 213/213/942 214/214/944
f 354/354/945 212/212/946 353/353/947
f 353/353/947 212/212/946 213/213/948
f 355/355/949 211/211/950 354/354/951
f 354/354/951 211/211/950 212/212/952
f 356/356/953 210/210/954 355/355/955
f 355/355/955 210/210/954 211/211/956
f 357/357/957 209/209/958 356/356/959
f 356/356/959 209/209/958 210/210/960
f 208/208/961 209/209/962 358/358/963
f 358/358/963 209/209/962 357/357/964
f 207/207/965 208/208/966 359/359/967
f 359/359/967 208/208/966 358/358/968
f 206/206/969 207/207/970 360/360/971
f 360/360/971 207/207/970 359/359/972
f 205/205/973 206/206/974 361/361/975
f 361/361/975 206/206/974 360/360/976
f 204/204/977 205/205/978 362/362/979
f 362/362/979 205/205/978 361/361/980
f 203/203/981 204/204/982 363/363/983
f 363/363/983 204/204/982 362/362/984
f 201/201/985 203/203/986 364/364/987
f 364/364/987 203/203/986 363/363/988
f 349/349/989 365/365/990 320/320/991
f 320/320/991 365/365/990 321/321/992
f 365/365/993 366/366/994 321/321/995
f 321/321/995 366/366/994 322/322/996
f 366/366/997 367/367/998 322/322/999
f 322/322/999 367/367/998 323/323/1000
f 367/367/1001 368/368/1002 323/323/1003
f 323/323/1003 368/368/1002 324/324/1004
f 324/324/1005 368/368/1006 325/325/1007
f 325/325/1007 368/368/1006 369/369/1008
f 325/325/1009 369/369/1010 326/326/1011
f 326/326/1011 369/369/1010 370/370/1012
f 326/326/1013 370/370/1014 327/327/1015
f 327/327/1015 370/370/1014 371/371/1016
f 371/371/1017 372/372/1018 327/327/1019
f 327/327/1019 372/372/1018 328/328/1020
f 372/372/1021 373/373/1022 328/328/1023
f 328/328/1023 373/373/1022 329/329/1024
f 373/373/1025 374/374/1026 329/329/1027
f 329/329/1027 374/374/1026 330/330/1028
f 374/374/1029 375/375/1030 330/330/1031
f 330/330/1031 375/375/1030 331/331/1032
f 375/375/1033 376/376/1034 331/331/1035
f 331/331/1035 376/376/1034 332/332/1036
f 376/376/1037 377/377/1038 332/332/1039
f 332/332/1039 377/377/1038 333/333/1040
f 377/377/1041 378/378/1042 333/333/1043
f 333/333/1043 378/378/1042 334/334/1044
f 334/334/1045 378/378/1046 335/335/1047
f 335/335/1047 378/378/1046 379/379/1048
f 335/335/1049 379/379/1050 336/336/1051
f 336/336/1051 379/379/1050 380/380/1052
f 336/336/1053 380/380/1054 337/337/1055
f 337/337/1055 380/380/1054 381/381/1056
f 337/337/1057 381/381/1058 338/338/1059
f 338/338/1059 381/381/1058 382/382/1060
f 338/338/1061 382/382/1062 339/339/1063
f 339/339/1063 382/382/1062 383/383/1064
f 339/339/1065 383/383/1066 340/340/1067
f 340/340/1067 383/383/1066 384/384/1068
f 340/340/1069 384/384/1070 341/341/1071
f 341/341/1071 384/384/1070 385/385/1072
f 341/341/1073 385/385/1074 342/342/1075
f 342/342/1075 385/385/1074 386/386/1076
f 386/386/1077 387/387/1078 342/342/1079
f 342/342/1079 387/387/1078 343/343/1080
f 387/387/1081 388/388/1082 343/343/1083
f 343/343/1083 388/388/1082 344/344/1084
f 388/388/1085 389/389/1086 344/344/1087
f 344/344/1087 389/389/1086 345/345/1088
f 345/345/1089 389/389/1090 346/346/1091
f 346/346/1091 389/389/1090 390/390/1092
f 346/346/1093 390/390/1094 347/347/1095
f 347/347/1095 390/390/1094 391/391/1096
f 347/347/1097 391/391/1098 348/348/1099
f 348/348/1099 391/391/1098 392/392/1100
f 348/348/1101 392/392/1102 305/305/1103
f 305/305/1103 392/392/1102 364/364/1104
