# This file uses centimeters as units for non-parametric coordinates.

v -0.500000 -0.500000 0.000000
v 0.500000 -0.500000 0.000000
v -0.500000 0.500000 0.000000
v 0.500000 0.500000 0.000000
v 0.349946 0.349946 0.000000
v -0.337151 0.337151 0.000000
v -0.347257 -0.347257 0.000000
v 0.358424 -0.358424 0.000000
v -0.227848 -0.500000 0.000000
v 0.360794 -0.500000 0.000000
v 0.312263 -0.409115 0.000000
v -0.217240 -0.410050 0.000000
vt 0.000000 0.000000
vt 1.000000 0.000000
vt 0.000000 1.000000
vt 1.000000 1.000000
vt 0.849946 0.849946
vt 0.162849 0.837151
vt 0.152743 0.152743
vt 0.858424 0.141576
vt 0.272152 0.000000
vt 0.860794 0.000000
vt 0.812263 0.090885
vt 0.282760 0.089950
vn 0.000000 0.000000 1.000000
vn 0.000000 0.000000 1.000000
vn 0.000000 0.000000 1.000000
vn 0.000000 0.000000 1.000000
vn 0.000000 0.000000 1.000000
vn 0.000000 0.000000 1.000000
vn 0.000000 0.000000 1.000000
vn 0.000000 0.000000 1.000000
vn 0.000000 0.000000 1.000000
vn 0.000000 0.000000 1.000000
vn 0.000000 0.000000 1.000000
vn 0.000000 0.000000 1.000000
vn 0.000000 0.000000 1.000000
vn 0.000000 0.000000 1.000000
vn 0.000000 0.000000 1.000000
vn 0.000000 0.000000 1.000000
vn 0.000000 0.000000 1.000000
vn 0.000000 0.000000 1.000000
vn 0.000000 0.000000 1.000000
vn 0.000000 0.000000 1.000000
vn 0.000000 0.000000 1.000000
vn 0.000000 0.000000 1.000000
vn 0.000000 0.000000 1.000000
vn 0.000000 0.000000 1.000000
f 5/5/1 4/4/2 6/6/3
f 6/6/3 4/4/2 3/3/4
f 7/7/5 6/6/6 1/1/7
f 1/1/7 6/6/6 3/3/8
f 8/8/9 2/2/10 5/5/11
f 5/5/11 2/2/10 4/4/12
f 12/12/13 7/7/14 9/9/15
f 9/9/15 7/7/14 1/1/16
f 12/12/17 9/9/18 11/11/19
f 11/11/19 9/9/18 10/10/20
f 11/11/21 10/10/22 8/8/23
f 8/8/23 10/10/22 2/2/24
