# This file uses centimeters as units for non-parametric coordinates.

v 0.078889 -0.137082 0.022554
v 0.030133 -0.142144 -0.012506
v -0.030133 -0.142144 -0.012506
v -0.078889 -0.137082 0.022554
v -0.097512 -0.128890 0.079282
v -0.078889 -0.120699 0.136010
v -0.030133 -0.115636 0.171069
v 0.030133 -0.115636 0.171069
v 0.078889 -0.120699 0.136010
v 0.097512 -0.128890 0.079282
v 0.145768 -0.089357 -0.033432
v 0.055678 -0.098711 -0.098214
v -0.055678 -0.098711 -0.098214
v -0.145768 -0.089357 -0.033432
v -0.180179 -0.074221 0.071388
v -0.145768 -0.059085 0.176207
v -0.055678 -0.049731 0.240989
v 0.055678 -0.049731 0.240989
v 0.145768 -0.059085 0.176207
v 0.180179 -0.074221 0.071388
v 0.190455 -0.012179 -0.077380
v 0.072747 -0.024401 -0.162021
v -0.072747 -0.024401 -0.162021
v -0.190455 -0.012179 -0.077380
v -0.235415 0.007597 0.059573
v -0.190455 0.027373 0.196526
v -0.072747 0.039595 0.281167
v 0.048845 0.047339 0.282216
v 0.190455 0.027373 0.196526
v 0.235415 0.007597 0.059573
v 0.206147 0.082703 -0.102600
v 0.078741 0.069473 -0.194215
v -0.078741 0.069473 -0.194215
v -0.206147 0.082703 -0.102600
v -0.254811 0.104108 0.045637
v -0.206147 0.125513 0.193874
v -0.078741 0.138742 0.285489
v 0.078741 0.138742 0.285489
v 0.206147 0.125513 0.193874
v 0.254811 0.104108 0.045637
v 0.190455 0.180843 -0.105252
v 0.072747 0.168621 -0.189893
v -0.072747 0.168621 -0.189893
v -0.190455 0.180843 -0.105252
v -0.235415 0.200619 0.031701
v -0.190455 0.220395 0.168654
v -0.072827 0.233771 0.250987
v 0.072668 0.233771 0.250987
v 0.190455 0.220395 0.168654
v 0.235415 0.200619 0.031701
v 0.145768 0.267301 -0.084933
v 0.055678 0.257946 -0.149715
v -0.055678 0.257946 -0.149715
v -0.145768 0.267301 -0.084933
v -0.180179 0.282437 0.019886
v -0.145768 0.297573 0.124706
v -0.055678 0.306927 0.189488
v 0.055678 0.306927 0.189488
v 0.145768 0.297572 0.124705
v 0.180179 0.282437 0.019886
v 0.078889 0.328915 -0.044736
v 0.030133 0.323852 -0.079796
v -0.030133 0.323852 -0.079796
v -0.078889 0.328915 -0.044736
v -0.097512 0.337106 0.011992
v -0.078889 0.345298 0.068720
v -0.030133 0.350360 0.103780
v 0.030133 0.350360 0.103780
v 0.078889 0.345298 0.068720
v 0.097512 0.337106 0.011992
v -0.000000 -0.148088 0.082054
v -0.000000 0.356303 0.009220
v -0.043779 0.233771 0.250987
v 0.042642 0.233771 0.250987
v -0.036516 0.260672 0.234952
v 0.036667 0.263360 0.232644
v 0.001942 0.133446 0.286915
v -0.025844 0.195668 0.265967
v 0.026182 0.194802 0.266264
v 0.002831 0.244654 0.295390
v 0.027912 0.262555 0.271760
v 0.032437 0.235892 0.275976
v 0.020021 0.203173 0.284442
v -0.018696 0.203036 0.284470
v -0.028251 0.261386 0.272183
v -0.030832 0.235892 0.275976
v 0.004371 0.350360 0.103780
v 0.004109 0.306927 0.189488
v -0.000593 0.275763 0.226244
v 0.002150 0.269763 0.267542
v -0.025803 0.048654 0.281042
v -0.029582 0.097109 0.283674
v 0.051768 0.095679 0.284323
v 0.017374 0.089844 0.332823
v 0.043117 0.091004 0.311940
v 0.041742 0.057442 0.310477
v -0.009275 0.053233 0.310193
v -0.019740 0.091692 0.311870
v 0.006269 0.116075 0.313574
vt 0.817621 0.387434
vt 0.779253 0.384950
vt 0.782115 0.399655
vt 0.829370 0.402672
vt 0.731831 0.384965
vt 0.182942 0.383236
vt 0.197374 0.381488
vt 0.179529 0.399453
vt 0.160127 0.401742
vt 0.723637 0.399673
vt 0.693582 0.387473
vt 0.676529 0.402720
vt 0.679148 0.391506
vt 0.658862 0.407610
vt 0.832245 0.391459
vt 0.847273 0.407552
vt 0.231676 0.380458
vt 0.225891 0.398100
vt 0.272709 0.380543
vt 0.281408 0.398212
vt 0.789766 0.433509
vt 0.851550 0.437364
vt 0.713245 0.433532
vt 0.651654 0.437425
vt 0.630995 0.441318
vt 0.874862 0.443589
vt 0.792931 0.485083
vt 0.304700 0.381710
vt 0.324630 0.399744
vt 0.315410 0.383509
vt 0.338995 0.402100
vt 0.859832 0.489136
vt 0.710050 0.485107
vt 0.643359 0.489199
vt 0.620050 0.483568
vt 0.882035 0.494177
vt 0.789792 0.538306
vt 0.851601 0.540433
vt 0.167352 0.446461
vt 0.132238 0.441252
vt 0.218588 0.438206
vt 0.290436 0.437154
vt 0.713241 0.538328
vt 0.651626 0.541991
vt 0.630957 0.540828
vt 0.863198 0.540039
vt 0.780840 0.584936
vt 0.817560 0.584600
vt 0.722320 0.584952
vt 0.347729 0.440255
vt 0.366415 0.443188
vt 0.162581 0.484507
vt 0.120781 0.485404
vt 0.675177 0.587676
vt 0.649051 0.580786
vt 0.831536 0.584782
vt 0.770768 0.607679
vt 0.796344 0.609108
vt 0.739157 0.607688
vt 0.713660 0.609130
vt 0.216019 0.486544
vt 0.294693 0.486685
vt 0.351955 0.484722
vt 0.372151 0.487709
vt 0.704038 0.611449
vt 0.803387 0.615750
vt 0.755036 0.384709
vt 0.751037 0.618402
vt 0.249603 0.600667
vt 0.249578 0.379684
vt 0.316110 0.598017
vt 0.171094 0.539935
vt 0.132671 0.539631
vt 0.218591 0.535636
vt 0.291250 0.535758
vt 0.305984 0.599114
vt 0.273495 0.598853
vt 0.231825 0.598834
vt 0.183676 0.596099
vt 0.199003 0.598393
vt 0.339991 0.558931
vt 0.344637 0.535877
vt 0.360201 0.538460
vt 0.179517 0.578947
vt 0.160107 0.580757
vt 0.225900 0.581787
vt 0.318554 0.575331
vt 0.281442 0.581875
vt 0.233097 0.535660
vt 0.276255 0.535733
vt 0.236617 0.561798
vt 0.273096 0.563527
vt 0.256188 0.486616
vt 0.242186 0.516356
vt 0.268172 0.515947
vt 0.256024 0.537665
vt 0.268997 0.556733
vt 0.271120 0.535724
vt 0.265000 0.521226
vt 0.245666 0.521123
vt 0.240985 0.556008
vt 0.239523 0.535671
vt 0.255682 0.598844
vt 0.255721 0.581834
vt 0.255227 0.568336
vt 0.255654 0.561205
vt 0.244622 0.438256
vt 0.240399 0.466288
vt 0.289742 0.465090
vt 0.265815 0.452317
vt 0.281187 0.462060
vt 0.283517 0.442585
vt 0.252254 0.443319
vt 0.247198 0.462550
vt 0.259218 0.475820
vn 0.363624 -0.925506 -0.105906
vn 0.154820 -0.949581 -0.272630
vn 0.609591 -0.726960 -0.316115
vn 0.248200 -0.766792 -0.591969
vn -0.113122 -0.951517 -0.286040
vn -0.207995 -0.768658 -0.604899
vn -0.337852 -0.930576 -0.141014
vn -0.584742 -0.731848 -0.349965
vn -0.433536 -0.894755 0.107053
vn -0.743542 -0.662660 0.089597
vn -0.361852 -0.847643 0.388026
vn -0.587937 -0.618823 0.520949
vn 0.336661 -0.865011 0.372042
vn 0.433536 -0.888489 0.150446
vn 0.597404 -0.605375 0.525956
vn 0.738138 -0.664376 0.117292
vn 0.762174 -0.433339 -0.480946
vn 0.300417 -0.482682 -0.822659
vn -0.276085 -0.483812 -0.830483
vn -0.747135 -0.436298 -0.501431
vn -0.931489 -0.360034 0.051989
vn 0.730760 -0.257840 0.632067
vn 0.932805 -0.354630 0.064133
vn 0.809017 -0.084005 -0.581751
vn 0.309016 -0.135923 -0.941294
vn -0.309016 -0.135922 -0.941294
vn -0.809017 -0.084004 -0.581751
vn -0.999989 -0.004727 0.000683
vn 0.796312 0.084062 0.599016
vn 1.000000 0.000000 0.000000
vn 0.747135 0.276620 -0.604376
vn 0.276085 0.229105 -0.933428
vn -0.300417 0.230234 -0.925603
vn -0.762174 0.279578 -0.583890
vn -0.931921 0.360019 -0.043701
vn 0.752638 0.438459 0.491213
vn 0.932805 0.354630 -0.064133
vn 0.584740 0.602948 -0.542708
vn 0.207995 0.566134 -0.797641
vn -0.248199 0.568001 -0.784711
vn -0.609590 0.607836 -0.508857
vn -0.738136 0.670419 -0.075451
vn -0.751791 0.434616 0.495902
vn -0.584721 0.731902 0.349887
vn 0.606162 0.718396 0.341284
vn 0.732712 0.671361 -0.111390
vn 0.337853 0.852668 -0.398514
vn 0.113122 0.831726 -0.543540
vn -0.154820 0.833662 -0.530130
vn -0.363624 0.857738 -0.363406
vn -0.433537 0.894754 -0.107053
vn -0.337852 0.930576 0.141014
vn 0.447274 0.885216 -0.127825
vn 0.000000 -0.989735 0.142917
vn -0.113121 -0.831727 0.543539
vn 0.154820 -0.833663 0.530129
vn 0.336662 0.934925 0.112133
vn 0.000000 0.988140 -0.153554
vn -0.155374 0.952732 0.261077
vn 0.000000 0.964365 0.264574
vn 0.198016 0.942227 0.270182
vn -0.329165 0.777802 0.535419
vn -0.479957 0.453581 0.750936
vn 0.331427 0.778944 0.532355
vn 0.474124 0.459524 0.751029
vn 0.006350 0.843509 0.537077
vn -0.132238 0.656517 0.742630
vn 0.000000 0.427092 0.904208
vn 0.014942 0.732240 0.680883
vn 0.776694 0.017424 0.629637
vn 0.944262 0.085757 0.317829
vn 0.578763 0.678071 0.453048
vn 0.586343 0.793390 0.163507
vn 0.111712 0.675231 0.729097
vn 0.000000 0.435812 0.900038
vn -0.576062 0.802144 0.157220
vn -0.925904 0.084898 0.368096
vn -0.541982 0.699004 0.466529
vn -0.722884 0.009429 0.690906
vn -0.038887 0.988492 0.146191
vn -0.015093 0.943751 0.330313
vn 0.014345 0.209328 0.977740
vn 0.357565 -0.434891 0.826448
vn -0.342407 -0.471725 0.812547
vn -0.755933 -0.274117 0.594496
vn -0.810454 0.087588 0.579217
vn -0.239654 -0.563697 0.790451
vn 0.269784 -0.525233 0.807061
vn 0.609758 -0.630586 0.480163
vn 0.467011 0.097578 0.878851
vn 0.008143 0.331313 0.943486
vn 0.349815 -0.276953 0.894945
vn 0.011757 -0.341308 0.939878
vn 0.451765 -0.128865 0.882781
vn 0.753578 0.382823 0.534385
vn 0.480262 -0.604005 0.636024
vn 0.826836 0.439892 0.350483
vn 0.542047 -0.763848 0.350316
vn -0.303176 -0.739161 0.601436
vn -0.530645 -0.767071 0.360580
vn 0.000233 0.780166 0.625573
vn -0.750592 0.136807 0.646448
vn 0.041012 -0.011961 0.999087
vn -0.434783 -0.250048 0.865124
vn -0.472925 0.139238 0.870031
vn -0.582468 -0.644278 0.495618
vn -0.008100 0.331154 0.943542
vn -0.006194 -0.053790 0.998533
vn -0.000851 0.221123 0.975246
vn -0.883980 0.254530 0.392165
vn -0.036899 0.834503 0.549767
f 1/1/1 2/2/2 11/4/3
f 11/4/3 2/2/2 12/3/4
f 2/2/2 3/5/5 12/3/4
f 12/3/4 3/5/5 13/10/6
f 3/5/5 4/11/7 13/10/6
f 13/10/6 4/11/7 14/12/8
f 4/11/7 5/13/9 14/12/8
f 14/12/8 5/13/9 15/14/10
f 5/6/9 6/7/11 15/9/10
f 15/9/10 6/7/11 16/8/12
f 9/28/13 10/30/14 19/29/15
f 19/29/15 10/30/14 20/31/16
f 10/15/14 1/1/1 20/16/16
f 20/16/16 1/1/1 11/4/3
f 11/4/3 12/3/4 21/22/17
f 21/22/17 12/3/4 22/21/18
f 12/3/4 13/10/6 22/21/18
f 22/21/18 13/10/6 23/23/19
f 13/10/6 14/12/8 23/23/19
f 23/23/19 14/12/8 24/24/20
f 14/12/8 15/14/10 24/24/20
f 24/24/20 15/14/10 25/25/21
f 19/29/15 20/31/16 29/50/22
f 29/50/22 20/31/16 30/51/23
f 20/16/16 11/4/3 30/26/23
f 30/26/23 11/4/3 21/22/17
f 21/22/17 22/21/18 31/32/24
f 31/32/24 22/21/18 32/27/25
f 22/21/18 23/23/19 32/27/25
f 32/27/25 23/23/19 33/33/26
f 23/23/19 24/24/20 33/33/26
f 33/33/26 24/24/20 34/34/27
f 24/24/20 25/25/21 34/34/27
f 34/34/27 25/25/21 35/35/28
f 29/50/22 30/51/23 39/63/29
f 39/63/29 30/51/23 40/64/30
f 30/26/23 21/22/17 40/36/30
f 40/36/30 21/22/17 31/32/24
f 31/32/24 32/27/25 41/38/31
f 41/38/31 32/27/25 42/37/32
f 32/27/25 33/33/26 42/37/32
f 42/37/32 33/33/26 43/43/33
f 33/33/26 34/34/27 43/43/33
f 43/43/33 34/34/27 44/44/34
f 34/34/27 35/35/28 44/44/34
f 44/44/34 35/35/28 45/45/35
f 39/63/29 40/64/30 49/82/36
f 49/82/36 40/64/30 50/83/37
f 40/36/30 31/32/24 50/46/37
f 50/46/37 31/32/24 41/38/31
f 41/38/31 42/37/32 51/48/38
f 51/48/38 42/37/32 52/47/39
f 42/37/32 43/43/33 52/47/39
f 52/47/39 43/43/33 53/49/40
f 43/43/33 44/44/34 53/49/40
f 53/49/40 44/44/34 54/54/41
f 44/44/34 45/45/35 54/54/41
f 54/54/41 45/45/35 55/55/42
f 45/73/35 46/72/43 55/85/42
f 55/85/42 46/72/43 56/84/44
f 49/82/36 50/83/37 59/87/45
f 59/87/45 50/83/37 60/81/46
f 50/46/37 41/38/31 60/56/46
f 60/56/46 41/38/31 51/48/38
f 51/48/38 52/47/39 61/58/47
f 61/58/47 52/47/39 62/57/48
f 52/47/39 53/49/40 62/57/48
f 62/57/48 53/49/40 63/59/49
f 53/49/40 54/54/41 63/59/49
f 63/59/49 54/54/41 64/60/50
f 54/54/41 55/55/42 64/60/50
f 64/60/50 55/55/42 65/65/51
f 55/85/42 56/84/44 65/79/51
f 65/79/51 56/84/44 66/80/52
f 60/56/46 51/48/38 70/66/53
f 70/66/53 51/48/38 61/58/47
f 2/2/2 1/1/1 71/67/54
f 3/5/5 2/2/2 71/67/54
f 4/11/7 3/5/5 71/67/54
f 5/13/9 4/11/7 71/67/54
f 6/7/11 5/6/9 71/70/54
f 7/17/55 6/7/11 71/70/54
f 8/19/56 7/17/55 71/70/54
f 9/28/13 8/19/56 71/70/54
f 10/30/14 9/28/13 71/70/54
f 1/1/1 10/15/14 71/67/54
f 69/76/57 59/87/45 70/71/53
f 70/71/53 59/87/45 60/81/46
f 61/58/47 62/57/48 72/68/58
f 62/57/48 63/59/49 72/68/58
f 63/59/49 64/60/50 72/68/58
f 64/60/50 65/65/51 72/68/58
f 65/79/51 66/80/52 72/69/58
f 69/76/57 70/71/53 72/69/58
f 70/66/53 61/58/47 72/68/58
f 66/80/52 67/78/59 72/69/58
f 87/103/60 72/69/58 67/78/59
f 68/77/61 69/76/57 72/69/58
f 67/78/59 66/80/52 57/86/62
f 57/86/62 66/80/52 56/84/44
f 57/86/62 56/84/44 47/74/63
f 47/74/63 56/84/44 46/72/43
f 69/76/57 68/77/61 59/87/45
f 59/87/45 68/77/61 58/88/64
f 49/82/36 59/87/45 48/75/65
f 48/75/65 59/87/45 58/88/64
f 87/103/60 67/78/59 88/104/66
f 88/104/66 67/78/59 57/86/62
f 57/86/62 47/74/63 75/91/67
f 75/91/67 47/74/63 73/89/68
f 88/104/66 57/86/62 89/105/69
f 89/105/69 57/86/62 75/91/67
f 82/98/70 74/90/71 81/97/72
f 81/97/72 74/90/71 76/92/73
f 58/88/64 76/92/74 48/75/65
f 48/75/65 76/92/74 74/90/75
f 75/91/76 73/89/77 85/101/78
f 85/101/78 73/89/77 86/102/79
f 89/105/80 75/91/76 90/106/81
f 90/106/81 75/91/76 85/101/78
f 80/96/82 90/106/81 85/101/78
f 82/98/70 81/97/72 80/96/82
f 83/99/83 82/98/70 80/96/82
f 84/100/84 83/99/83 80/96/82
f 86/102/79 84/100/84 80/96/82
f 85/101/78 86/102/79 80/96/82
f 90/106/81 80/96/82 81/97/72
f 89/105/80 90/106/81 76/92/73
f 76/92/73 90/106/81 81/97/72
f 89/105/69 76/92/74 88/104/66
f 88/104/66 76/92/74 58/88/64
f 87/103/60 88/104/66 68/77/61
f 68/77/61 88/104/66 58/88/64
f 72/69/58 87/103/60 68/77/61
f 25/40/21 15/9/10 26/39/85
f 26/39/85 15/9/10 16/8/12
f 35/53/28 25/40/21 36/52/86
f 36/52/86 25/40/21 26/39/85
f 45/73/35 35/53/28 46/72/43
f 46/72/43 35/53/28 36/52/86
f 16/8/12 6/7/11 17/18/87
f 17/18/87 6/7/11 7/17/55
f 17/18/87 7/17/55 18/20/88
f 18/20/88 7/17/55 8/19/56
f 18/20/88 8/19/56 19/29/15
f 19/29/15 8/19/56 9/28/13
f 83/99/83 79/95/89 82/98/70
f 82/98/70 79/95/89 74/90/71
f 39/63/29 49/82/36 38/62/90
f 38/62/90 49/82/36 48/75/65
f 38/62/90 48/75/65 79/95/91
f 79/95/91 48/75/65 74/90/75
f 19/29/15 29/50/22 18/20/88
f 18/20/88 29/50/22 28/42/92
f 91/107/93 18/20/88 28/42/92
f 28/42/92 29/50/22 93/109/94
f 29/50/22 39/63/29 93/109/94
f 39/63/29 38/62/90 93/109/94
f 95/111/95 96/112/96 93/109/97
f 93/109/97 96/112/96 28/42/98
f 96/112/96 97/113/99 28/42/98
f 28/42/98 97/113/99 91/107/100
f 99/115/101 98/114/102 94/110/103
f 95/111/95 99/115/101 94/110/103
f 96/112/96 95/111/95 94/110/103
f 97/113/99 96/112/96 94/110/103
f 98/114/102 97/113/99 94/110/103
f 16/8/12 17/18/87 26/39/85
f 26/39/85 17/18/87 27/41/104
f 26/39/85 27/41/104 36/52/86
f 36/52/86 27/41/104 37/61/105
f 37/61/105 47/74/63 36/52/86
f 36/52/86 47/74/63 46/72/43
f 83/99/83 84/100/84 79/95/89
f 79/95/89 84/100/84 78/94/106
f 84/100/84 86/102/79 78/94/106
f 78/94/106 86/102/79 73/89/77
f 73/89/68 47/74/63 78/94/107
f 78/94/107 47/74/63 37/61/105
f 91/107/93 92/108/108 27/41/104
f 18/20/88 91/107/93 17/18/87
f 17/18/87 91/107/93 27/41/104
f 38/62/90 79/95/91 77/93/109
f 78/94/107 37/61/105 77/93/109
f 79/95/91 78/94/107 77/93/109
f 92/108/108 37/61/105 27/41/104
f 77/93/109 93/109/94 38/62/90
f 97/113/99 98/114/102 91/107/100
f 91/107/100 98/114/102 92/108/110
f 95/111/95 93/109/97 99/115/101
f 99/115/101 93/109/97 77/93/111
f 77/93/111 92/108/110 99/115/101
f 99/115/101 92/108/110 98/114/102
f 37/61/105 92/108/108 77/93/109
