# This file uses centimeters as units for non-parametric coordinates.

v 0.095288 -0.352259 0.022484
v 0.036397 -0.358915 -0.019782
v -0.036397 -0.358915 -0.019782
v -0.095288 -0.352259 0.022484
v -0.117783 -0.341489 0.090872
v -0.095288 -0.330719 0.159260
v -0.036397 -0.324063 0.201526
v 0.036397 -0.324063 0.201526
v 0.095288 -0.330719 0.159260
v 0.117783 -0.341489 0.090872
v 0.176069 -0.295484 -0.045871
v 0.067252 -0.307783 -0.123969
v -0.067252 -0.307783 -0.123969
v -0.176069 -0.295484 -0.045871
v -0.217633 -0.275583 0.080493
v -0.176069 -0.255683 0.206858
v -0.067252 -0.243384 0.284955
v 0.067252 -0.243384 0.284955
v 0.176069 -0.255683 0.206858
v 0.217633 -0.275583 0.080493
v 0.230046 -0.202949 -0.100143
v 0.087869 -0.219018 -0.202183
v -0.087870 -0.219018 -0.202183
v -0.230046 -0.202949 -0.100143
v -0.284351 -0.176948 0.064960
v -0.230046 -0.150947 0.230062
v -0.087870 -0.134878 0.332102
v 0.087870 -0.134878 0.332102
v 0.230046 -0.150947 0.230062
v 0.284351 -0.176948 0.064960
v 0.249000 -0.088743 -0.132069
v 0.095109 -0.106136 -0.242516
v -0.095109 -0.106136 -0.242516
v -0.249000 -0.088743 -0.132069
v -0.307780 -0.060600 0.046637
v -0.249000 -0.032457 0.225343
v -0.095109 -0.015063 0.335790
v 0.095109 -0.015063 0.335790
v 0.249000 -0.032457 0.225343
v 0.307780 -0.060600 0.046637
v 0.230046 0.029748 -0.136789
v 0.087869 0.013678 -0.238829
v -0.087870 0.013678 -0.238829
v -0.230046 0.029748 -0.136789
v -0.284351 0.055749 0.028314
v -0.230046 0.081750 0.193417
v -0.087870 0.097819 0.295456
v 0.087870 0.097819 0.295456
v 0.230046 0.081750 0.193417
v 0.284351 0.055749 0.028314
v 0.176069 0.134483 -0.113584
v 0.067252 0.122184 -0.191681
v -0.067252 0.122184 -0.191681
v -0.176069 0.134483 -0.113584
v -0.217633 0.154383 0.012781
v -0.176069 0.174284 0.139145
v -0.067252 0.186583 0.217243
v 0.067252 0.186583 0.217243
v 0.176069 0.174283 0.139145
v 0.217633 0.154383 0.012781
v 0.095288 0.209520 -0.065986
v 0.036397 0.202863 -0.108253
v -0.036397 0.202863 -0.108253
v -0.095288 0.209520 -0.065986
v -0.117783 0.220289 0.002402
v -0.095288 0.231059 0.070789
v -0.036397 0.237716 0.113056
v 0.036397 0.237716 0.113056
v 0.095288 0.231059 0.070789
v 0.117783 0.220289 0.002402
v -0.000000 -0.364633 0.094517
v -0.000000 0.243433 -0.001243
vt 0.802693 0.062762
vt 0.766960 0.061827
vt 0.785443 0.100349
vt 0.851544 0.101993
vt 0.722884 0.061844
vt 0.196309 0.080498
vt 0.208250 0.079885
vt 0.162566 0.116695
vt 0.140671 0.117691
vt 0.703775 0.100378
vt 0.687440 0.062806
vt 0.640418 0.102071
vt 0.674208 0.064340
vt 0.616149 0.104762
vt 0.816389 0.064286
vt 0.876674 0.104667
vt 0.240807 0.079498
vt 0.222780 0.116064
vt 0.281506 0.079487
vt 0.298190 0.116046
vt 0.797857 0.159943
vt 0.884290 0.161920
vt 0.690950 0.159979
vt 0.605229 0.162014
vt 0.585730 0.177830
vt 0.916972 0.165131
vt 0.802237 0.231453
vt 0.314670 0.079855
vt 0.359540 0.116647
vt 0.327589 0.080461
vt 0.383247 0.117632
vt 0.895825 0.233369
vt 0.686437 0.231487
vt 0.593624 0.233459
vt 0.556922 0.237457
vt 0.923432 0.234274
vt 0.797885 0.303755
vt 0.873317 0.299806
vt 0.131955 0.172308
vt 0.103497 0.173340
vt 0.210680 0.171654
vt 0.309391 0.171634
vt 0.690959 0.303783
vt 0.605223 0.305388
vt 0.585782 0.304631
vt 0.909310 0.295727
vt 0.785492 0.365594
vt 0.846106 0.355632
vt 0.703796 0.365614
vt 0.389611 0.172259
vt 0.420444 0.173280
vt 0.121189 0.238205
vt 0.082730 0.233469
vt 0.638214 0.366699
vt 0.619445 0.366222
vt 0.873448 0.351839
vt 0.768157 0.378466
vt 0.819935 0.378113
vt 0.710694 0.381838
vt 0.660728 0.388116
vt 0.206421 0.237715
vt 0.313336 0.237701
vt 0.400190 0.238168
vt 0.433510 0.238932
vt 0.639649 0.388673
vt 0.839667 0.379333
vt 0.745294 0.050127
vt 0.741361 0.387921
vt 0.261953 0.378831
vt 0.261945 0.067423
vt 0.343735 0.389424
vt 0.131954 0.304220
vt 0.105698 0.307919
vt 0.207599 0.307052
vt 0.306314 0.307045
vt 0.330337 0.382061
vt 0.287323 0.382075
vt 0.234537 0.382075
vt 0.176823 0.382036
vt 0.192312 0.382060
vt 0.381249 0.360925
vt 0.389620 0.304201
vt 0.420454 0.304590
vt 0.162566 0.360165
vt 0.140669 0.360259
vt 0.222784 0.365243
vt 0.359554 0.360160
vt 0.298199 0.365241
vn 0.363622 -0.926786 -0.094058
vn 0.154819 -0.952991 -0.260459
vn 0.609591 -0.730944 -0.306790
vn 0.248200 -0.774302 -0.582111
vn -0.113122 -0.955099 -0.273843
vn -0.207994 -0.776335 -0.595015
vn -0.337850 -0.932304 -0.129098
vn -0.584742 -0.736265 -0.340575
vn -0.433535 -0.893313 0.118490
vn -0.738138 -0.669397 0.084022
vn -0.363622 -0.853020 0.374347
vn -0.609590 -0.601275 0.516593
vn -0.154819 -0.826815 0.540748
vn -0.248200 -0.557917 0.791913
vn 0.113121 -0.824707 0.554132
vn 0.207994 -0.555885 0.804817
vn 0.337850 -0.847502 0.409387
vn 0.584742 -0.595955 0.550377
vn 0.433535 -0.886492 0.161799
vn 0.738138 -0.662821 0.125780
vn 0.762175 -0.439455 -0.475362
vn 0.300420 -0.493165 -0.816417
vn -0.276087 -0.494395 -0.824227
vn -0.747137 -0.442674 -0.495808
vn -0.932805 -0.357760 0.043391
vn -0.762175 -0.272085 0.587417
vn -0.300420 -0.218375 0.928472
vn 0.276087 -0.217145 0.936282
vn 0.747137 -0.268865 0.607863
vn 0.932805 -0.353780 0.068664
vn 0.809018 -0.091439 -0.580628
vn 0.309018 -0.147952 -0.939478
vn -0.309018 -0.147952 -0.939478
vn -0.809018 -0.091439 -0.580628
vn -1.000000 0.000000 0.000000
vn -0.809018 0.091439 0.580628
vn -0.309018 0.147952 0.939478
vn 0.309018 0.147952 0.939478
vn 0.809018 0.091439 0.580628
vn 1.000000 0.000000 -0.000000
vn 0.747137 0.268865 -0.607863
vn 0.276087 0.217145 -0.936282
vn -0.300419 0.218376 -0.928472
vn -0.762175 0.272086 -0.587417
vn -0.932805 0.357760 -0.043392
vn -0.747137 0.442674 0.495808
vn -0.276087 0.494395 0.824227
vn 0.300420 0.493166 0.816416
vn 0.762175 0.439456 0.475361
vn 0.932805 0.353781 -0.068664
vn 0.584741 0.595957 -0.550377
vn 0.207993 0.555887 -0.804816
vn -0.248200 0.557919 -0.791911
vn -0.609589 0.601277 -0.516591
vn -0.738137 0.669399 -0.084022
vn -0.584741 0.736266 0.340575
vn -0.207993 0.776337 0.595013
vn 0.248200 0.774304 0.582108
vn 0.609589 0.730946 0.306789
vn 0.738137 0.662822 -0.125780
vn 0.337852 0.847501 -0.409388
vn 0.113122 0.824706 -0.554134
vn -0.154820 0.826813 -0.540750
vn -0.363624 0.853019 -0.374347
vn -0.433537 0.893312 -0.118490
vn -0.337851 0.932304 0.129099
vn -0.113121 0.955098 0.273845
vn 0.154820 0.952991 0.260461
vn 0.363624 0.926785 0.094059
vn 0.433537 0.886491 -0.161799
vn 0.000000 -0.987826 0.155566
vn 0.000000 0.987826 -0.155566
f 1/1/1 2/2/2 11/4/3
f 11/4/3 2/2/2 12/3/4
f 2/2/2 3/5/5 12/3/4
f 12/3/4 3/5/5 13/10/6
f 3/5/5 4/11/7 13/10/6
f 13/10/6 4/11/7 14/12/8
f 4/11/7 5/13/9 14/12/8
f 14/12/8 5/13/9 15/14/10
f 5/6/9 6/7/11 15/9/10
f 15/9/10 6/7/11 16/8/12
f 6/7/11 7/17/13 16/8/12
f 16/8/12 7/17/13 17/18/14
f 7/17/13 8/19/15 17/18/14
f 17/18/14 8/19/15 18/20/16
f 8/19/15 9/28/17 18/20/16
f 18/20/16 9/28/17 19/29/18
f 9/28/17 10/30/19 19/29/18
f 19/29/18 10/30/19 20/31/20
f 10/15/19 1/1/1 20/16/20
f 20/16/20 1/1/1 11/4/3
f 11/4/3 12/3/4 21/22/21
f 21/22/21 12/3/4 22/21/22
f 12/3/4 13/10/6 22/21/22
f 22/21/22 13/10/6 23/23/23
f 13/10/6 14/12/8 23/23/23
f 23/23/23 14/12/8 24/24/24
f 14/12/8 15/14/10 24/24/24
f 24/24/24 15/14/10 25/25/25
f 15/9/10 16/8/12 25/40/25
f 25/40/25 16/8/12 26/39/26
f 16/8/12 17/18/14 26/39/26
f 26/39/26 17/18/14 27/41/27
f 17/18/14 18/20/16 27/41/27
f 27/41/27 18/20/16 28/42/28
f 18/20/16 19/29/18 28/42/28
f 28/42/28 19/29/18 29/50/29
f 19/29/18 20/31/20 29/50/29
f 29/50/29 20/31/20 30/51/30
f 20/16/20 11/4/3 30/26/30
f 30/26/30 11/4/3 21/22/21
f 21/22/21 22/21/22 31/32/31
f 31/32/31 22/21/22 32/27/32
f 22/21/22 23/23/23 32/27/32
f 32/27/32 23/23/23 33/33/33
f 23/23/23 24/24/24 33/33/33
f 33/33/33 24/24/24 34/34/34
f 24/24/24 25/25/25 34/34/34
f 34/34/34 25/25/25 35/35/35
f 25/40/25 26/39/26 35/53/35
f 35/53/35 26/39/26 36/52/36
f 26/39/26 27/41/27 36/52/36
f 36/52/36 27/41/27 37/61/37
f 27/41/27 28/42/28 37/61/37
f 37/61/37 28/42/28 38/62/38
f 28/42/28 29/50/29 38/62/38
f 38/62/38 29/50/29 39/63/39
f 29/50/29 30/51/30 39/63/39
f 39/63/39 30/51/30 40/64/40
f 30/26/30 21/22/21 40/36/40
f 40/36/40 21/22/21 31/32/31
f 31/32/31 32/27/32 41/38/41
f 41/38/41 32/27/32 42/37/42
f 32/27/32 33/33/33 42/37/42
f 42/37/42 33/33/33 43/43/43
f 33/33/33 34/34/34 43/43/43
f 43/43/43 34/34/34 44/44/44
f 34/34/34 35/35/35 44/44/44
f 44/44/44 35/35/35 45/45/45
f 35/53/35 36/52/36 45/73/45
f 45/73/45 36/52/36 46/72/46
f 36/52/36 37/61/37 46/72/46
f 46/72/46 37/61/37 47/74/47
f 37/61/37 38/62/38 47/74/47
f 47/74/47 38/62/38 48/75/48
f 38/62/38 39/63/39 48/75/48
f 48/75/48 39/63/39 49/82/49
f 39/63/39 40/64/40 49/82/49
f 49/82/49 40/64/40 50/83/50
f 40/36/40 31/32/31 50/46/50
f 50/46/50 31/32/31 41/38/41
f 41/38/41 42/37/42 51/48/51
f 51/48/51 42/37/42 52/47/52
f 42/37/42 43/43/43 52/47/52
f 52/47/52 43/43/43 53/49/53
f 43/43/43 44/44/44 53/49/53
f 53/49/53 44/44/44 54/54/54
f 44/44/44 45/45/45 54/54/54
f 54/54/54 45/45/45 55/55/55
f 45/73/45 46/72/46 55/85/55
f 55/85/55 46/72/46 56/84/56
f 46/72/46 47/74/47 56/84/56
f 56/84/56 47/74/47 57/86/57
f 47/74/47 48/75/48 57/86/57
f 57/86/57 48/75/48 58/88/58
f 48/75/48 49/82/49 58/88/58
f 58/88/58 49/82/49 59/87/59
f 49/82/49 50/83/50 59/87/59
f 59/87/59 50/83/50 60/81/60
f 50/46/50 41/38/41 60/56/60
f 60/56/60 41/38/41 51/48/51
f 51/48/51 52/47/52 61/58/61
f 61/58/61 52/47/52 62/57/62
f 52/47/52 53/49/53 62/57/62
f 62/57/62 53/49/53 63/59/63
f 53/49/53 54/54/54 63/59/63
f 63/59/63 54/54/54 64/60/64
f 54/54/54 55/55/55 64/60/64
f 64/60/64 55/55/55 65/65/65
f 55/85/55 56/84/56 65/79/65
f 65/79/65 56/84/56 66/80/66
f 56/84/56 57/86/57 66/80/66
f 66/80/66 57/86/57 67/78/67
f 57/86/57 58/88/58 67/78/67
f 67/78/67 58/88/58 68/77/68
f 58/88/58 59/87/59 68/77/68
f 68/77/68 59/87/59 69/76/69
f 59/87/59 60/81/60 69/76/69
f 69/76/69 60/81/60 70/71/70
f 60/56/60 51/48/51 70/66/70
f 70/66/70 51/48/51 61/58/61
f 2/2/2 1/1/1 71/67/71
f 3/5/5 2/2/2 71/67/71
f 4/11/7 3/5/5 71/67/71
f 5/13/9 4/11/7 71/67/71
f 6/7/11 5/6/9 71/70/71
f 7/17/13 6/7/11 71/70/71
f 8/19/15 7/17/13 71/70/71
f 9/28/17 8/19/15 71/70/71
f 10/30/19 9/28/17 71/70/71
f 1/1/1 10/15/19 71/67/71
f 61/58/61 62/57/62 72/68/72
f 62/57/62 63/59/63 72/68/72
f 63/59/63 64/60/64 72/68/72
f 64/60/64 65/65/65 72/68/72
f 65/79/65 66/80/66 72/69/72
f 66/80/66 67/78/67 72/69/72
f 67/78/67 68/77/68 72/69/72
f 68/77/68 69/76/69 72/69/72
f 69/76/69 70/71/70 72/69/72
f 70/66/70 61/58/61 72/68/72
