# This file uses centimeters as units for non-parametric coordinates.

v -0.083815 0.047086 0.113074
v -0.000252 0.053518 0.112398
v 0.084465 0.047086 0.113075
v -0.048206 0.052110 0.019930
v -0.001546 0.077183 0.015017
v 0.042825 0.051194 0.018619
v -0.056453 0.024911 -0.087165
v -0.003878 0.070956 -0.080629
v 0.049235 0.027048 -0.091236
v -0.059644 -0.003340 -0.077166
v -0.000252 -0.002823 -0.077776
v 0.061420 -0.002823 -0.069188
v -0.041654 -0.060369 -0.070397
v -0.000252 -0.076077 -0.066712
v 0.060201 -0.063318 -0.061767
v -0.071237 -0.048002 0.009971
v -0.004599 -0.075431 0.026671
v 0.047942 -0.052885 0.009366
v -0.052513 -0.103439 0.113088
v -0.000252 -0.131491 0.112412
v 0.056318 -0.123602 0.113088
v -0.074326 -0.028179 0.113304
v -0.000252 -0.013702 0.112627
v 0.077270 -0.013702 0.113304
v 0.024283 -0.015233 0.017137
v -0.074969 -0.009715 0.013167
v 0.001967 0.011098 -0.097651
v -0.006980 0.059665 -0.150142
v -0.005692 0.029404 -0.148535
v -0.056945 0.028318 -0.129964
v -0.006686 0.070466 -0.121526
v 0.050108 0.028017 -0.129818
v -0.006487 0.059884 -0.142207
v -0.045636 0.047584 -0.128014
v -0.044861 0.040520 -0.083084
v 0.000725 0.051393 -0.051555
v 0.042905 0.042183 -0.086862
v 0.039191 0.047286 -0.127913
v -0.043545 -0.079328 -0.032172
v -0.000012 -0.100047 -0.029970
v 0.074193 -0.079055 -0.024398
vt 0.444681 0.412373
vt 0.448851 0.408533
vt 0.461233 0.408232
vt 0.444681 0.412373
vt 0.359117 0.382997
vt 0.342929 0.382055
vt 0.339859 0.340689
vt 0.588240 0.953730
vt 0.372925 0.348956
vt 0.356458 0.379203
vt 0.565652 0.955901
vt 0.373680 0.347511
vt 0.324496 0.265231
vt 0.341652 0.263155
vt 0.341815 0.262893
vt 0.399110 0.261751
vt 0.404645 0.346501
vt 0.452910 0.262555
vt 0.446731 0.354239
vt 0.400207 0.411271
vt 0.434409 0.413274
vt 0.397607 0.262419
vt 0.404404 0.347938
vt 0.552323 0.494387
vt 0.453390 0.262397
vt 0.450871 0.351380
vt 0.568200 0.486628
vt 0.400207 0.411271
vt 0.434409 0.413274
vt 0.456272 0.352461
vt 0.454890 0.265499
vt 0.450670 0.437028
vt 0.461232 0.448026
vt 0.567285 0.526923
vt 0.545100 0.522106
vt 0.585005 0.495163
vt 0.590616 0.527431
vt 0.566837 0.546656
vt 0.541709 0.544122
vt 0.592405 0.545330
vt 0.567455 0.946804
vt 0.592308 0.944265
vt 0.439108 0.447191
vt 0.453885 0.436392
vt 0.545600 0.954038
vt 0.542542 0.942485
vt 0.572245 0.935932
vt 0.469093 0.433181
vt 0.461372 0.443909
vt 0.589146 0.931749
vt 0.450467 0.436666
vt 0.445992 0.437392
vt 0.349642 0.412983
vt 0.349642 0.412983
vt 0.349642 0.412983
vt 0.543610 0.929910
vt 0.567533 0.977847
vt 0.541451 0.970315
vt 0.589338 0.972047
vn -0.571530 0.819739 0.037153
vn -0.006081 0.829208 0.558906
vn -0.027616 0.955993 0.292087
vn 0.594056 0.804370 -0.009318
vn 0.022573 -0.944770 -0.326956
vn 0.057774 -0.402332 -0.913669
vn -0.200276 -0.777363 -0.596319
vn -0.008004 -0.228201 -0.973581
vn 0.278386 -0.827466 -0.487650
vn 0.129143 -0.350994 -0.927430
vn 0.011099 -0.135025 -0.990780
vn 0.071572 -0.148950 -0.986251
vn 0.124303 -0.135885 -0.982896
vn 0.071213 -0.997202 -0.022729
vn -0.130672 -0.977924 -0.163066
vn -0.710316 -0.674556 -0.201063
vn -0.845323 -0.514216 -0.144952
vn 0.953392 -0.247731 0.172259
vn 0.910083 -0.411748 0.047045
vn -0.611737 -0.719119 -0.329615
vn -0.154549 -0.830493 -0.535160
vn 0.485010 -0.708919 -0.512054
vn 0.000129 -0.001828 0.999998
vn 0.001161 0.000966 0.999999
vn 0.010566 -0.001016 0.999944
vn 0.008750 0.001951 0.999960
vn -0.010214 -0.001062 0.999947
vn -0.008359 0.002595 0.999962
vn 0.008075 0.003756 0.999960
vn -0.002844 0.003829 0.999989
vn -0.007628 0.004672 0.999960
vn 0.918630 0.006447 -0.395067
vn 0.976326 0.212497 0.040396
vn 0.907824 -0.108981 -0.404944
vn 0.972227 0.196953 -0.126426
vn 0.988295 0.115319 0.099873
vn 0.911664 0.410660 -0.015062
vn -0.985939 -0.167099 -0.001117
vn -0.981538 0.044325 -0.186060
vn -0.974248 0.147792 -0.170289
vn -0.791534 0.594415 -0.141932
vn -0.963773 -0.192200 -0.184935
vn -0.897504 0.440141 -0.027603
vn 0.021852 0.971552 0.235817
vn -0.266734 0.955789 0.123776
vn 0.010104 0.992618 0.120865
vn -0.076523 0.996767 0.024510
vn 0.287415 0.951647 0.108446
vn 0.075621 0.997086 0.010033
vn -0.691227 0.329278 -0.643259
vn -0.025690 0.592291 -0.805314
vn -0.011537 -0.053541 -0.998499
vn -0.001681 -0.941035 -0.338306
vn 0.212250 -0.959182 -0.186867
vn -0.637186 0.753793 -0.160595
vn -0.036504 0.991204 -0.127206
vn -0.018947 0.969743 -0.243392
vn 0.635257 0.738266 -0.226743
vn 0.660321 0.318651 -0.680028
vn -0.171550 -0.964414 -0.201190
vn -0.012236 0.969282 -0.245646
vn -0.037183 0.931400 -0.362092
vn -0.672517 -0.649227 -0.355282
vn -0.143807 -0.847287 -0.511296
vn 0.540575 -0.659737 -0.522040
f 35/1/1 36/2/2 8/3/3
f 36/2/2 37/4/4 8/3/3
f 27/11/5 11/41/6 7/8/7
f 7/8/7 11/41/6 10/42/8
f 27/11/5 9/45/9 11/41/6
f 11/41/6 9/45/9 12/46/10
f 10/42/8 11/41/6 13/50/11
f 13/50/11 11/41/6 14/47/12
f 12/46/10 15/56/13 11/41/6
f 11/41/6 15/56/13 14/47/12
f 40/6/14 17/7/15 39/5/16
f 39/5/16 17/7/15 16/9/17
f 41/10/18 18/12/19 40/6/14
f 40/6/14 18/12/19 17/7/15
f 16/9/17 17/7/15 19/14/20
f 19/14/20 17/7/15 20/13/21
f 18/12/19 21/15/22 17/7/15
f 17/7/15 21/15/22 20/13/21
f 20/27/23 23/34/24 19/24/25
f 19/24/25 23/34/24 22/35/26
f 20/27/23 21/36/27 23/34/24
f 23/34/24 21/36/27 24/37/28
f 22/35/26 23/34/24 1/39/29
f 1/39/29 23/34/24 2/38/30
f 23/34/24 24/37/28 2/38/30
f 2/38/30 24/37/28 3/40/31
f 21/15/22 18/12/19 24/16/32
f 24/16/32 18/12/19 25/17/33
f 3/18/34 24/16/32 6/19/35
f 6/19/35 24/16/32 25/17/33
f 18/12/19 41/10/18 25/17/33
f 25/17/33 41/10/18 12/20/36
f 25/17/33 12/20/36 6/19/35
f 6/19/35 12/20/36 9/21/37
f 19/14/20 22/22/38 16/9/17
f 16/9/17 22/22/38 26/23/39
f 22/22/38 1/25/40 26/23/39
f 26/23/39 1/25/40 4/26/41
f 16/9/17 26/23/39 39/5/16
f 39/5/16 26/23/39 10/28/42
f 4/26/41 7/29/43 26/23/39
f 26/23/39 7/29/43 10/28/42
f 5/30/44 4/26/45 2/31/46
f 2/31/46 4/26/45 1/25/47
f 5/30/44 2/31/46 6/19/48
f 6/19/48 2/31/46 3/18/49
f 30/32/50 28/33/51 29/43/52
f 29/57/53 32/58/54 27/11/5
f 27/11/5 32/58/54 9/45/9
f 34/44/55 31/48/56 33/49/57
f 33/49/57 38/51/58 28/33/51
f 28/33/51 38/51/58 32/52/59
f 7/8/7 30/59/60 27/11/5
f 27/11/5 30/59/60 29/57/53
f 8/3/3 31/48/56 35/1/1
f 35/1/1 31/48/56 34/44/55
f 8/3/3 37/4/4 31/48/56
f 31/48/56 37/4/4 38/51/58
f 28/33/51 32/52/59 29/43/52
f 30/32/50 34/44/55 28/33/51
f 28/33/51 34/44/55 33/49/57
f 35/1/1 34/44/55 7/29/43
f 7/29/43 34/44/55 30/32/50
f 35/1/1 5/30/61 36/2/62
f 37/4/4 6/19/35 9/21/37
f 37/4/4 9/21/37 38/51/58
f 38/51/58 9/21/37 32/52/59
f 31/48/56 38/51/58 33/49/57
f 4/26/41 35/1/1 7/29/43
f 5/30/61 37/4/4 36/2/62
f 39/5/16 10/28/42 13/53/63
f 13/53/63 14/54/64 39/5/16
f 39/5/16 14/54/64 40/6/14
f 14/54/64 15/55/65 40/6/14
f 40/6/14 15/55/65 41/10/18
f 12/20/36 41/10/18 15/55/65
f 4/26/41 5/30/61 35/1/1
f 5/30/61 6/19/35 37/4/4
