# This file uses centimeters as units for non-parametric coordinates.

v -0.022697 -0.044698 0.062056
v 0.033167 -0.044698 0.062056
v -0.022697 -0.007159 0.062056
v 0.033167 -0.007159 0.062056
v -0.024373 -0.069596 -0.157772
v 0.025063 -0.109394 -0.159878
v -0.037229 -0.084856 -0.138000
v 0.026266 -0.130235 -0.141671
v -0.009618 -0.053990 0.168233
v 0.007569 -0.053429 0.167862
v 0.007164 -0.047051 0.172718
v -0.009910 -0.047061 0.170809
v 0.033391 -0.021072 -0.057075
v -0.026161 -0.021598 -0.059411
v 0.032702 -0.067109 -0.038238
v -0.026850 -0.067460 -0.039796
v -0.025943 -0.080273 -0.163588
v -0.069741 -0.046691 -0.112754
v -0.041406 -0.042300 -0.092101
v -0.083954 -0.025526 -0.023116
v -0.115247 -0.034248 -0.043392
v -0.144194 -0.056844 0.027558
v 0.098460 -0.086446 -0.077038
v 0.055392 -0.096180 -0.139944
v 0.075429 -0.070994 -0.072163
v 0.122582 -0.082912 0.002059
v 0.095885 -0.070481 0.009188
v 0.141256 -0.114406 0.129373
v 0.016096 -0.026925 0.073919
v -0.030082 -0.036559 0.051702
v -0.062891 -0.051426 0.154346
v 0.063419 -0.029533 -0.031100
v -0.004339 -0.023374 -0.071055
v 0.038368 0.013211 0.058036
v -0.080064 -0.048717 -0.187081
v -0.068112 -0.117187 -0.160340
v -0.071098 -0.054738 -0.169302
v -0.062994 0.015363 -0.179640
v -0.052620 0.010015 -0.164126
v -0.009035 0.054806 -0.150557
vt 0.315991 0.016263
vt 0.322605 0.017009
vt 0.322169 0.015067
vt 0.315427 0.015075
vt 0.316496 0.131025
vt 0.293996 0.126987
vt 0.294450 0.091694
vt 0.317771 0.093203
vt 0.319705 0.125617
vt 0.291402 0.120294
vt 0.304380 0.051401
vt 0.299227 0.086726
vt 0.322433 0.088495
vt 0.326129 0.053537
vt 0.322951 0.052001
vt 0.301137 0.049860
vt 0.288549 0.103002
vt 0.293999 0.129270
vt 0.276799 0.109079
vt 0.274268 0.077237
vt 0.261788 0.083256
vt 0.256452 0.058954
vt 0.347566 0.104967
vt 0.328232 0.125000
vt 0.337572 0.101843
vt 0.360923 0.078889
vt 0.349879 0.074951
vt 0.377542 0.037695
vt 0.318608 0.048119
vt 0.300245 0.054305
vt 0.294336 0.018858
vt 0.331626 0.085832
vt 0.302482 0.096583
vt 0.323036 0.052737
vt 0.288549 0.103002
vt 0.293999 0.129270
vt 0.276799 0.109079
vt 0.274268 0.077237
vt 0.261788 0.083256
vt 0.256452 0.058954
vn 0.343038 -0.896304 0.281005
vn 0.524169 0.232275 0.819326
vn -0.357183 -0.707922 0.609317
vn -0.800585 0.188906 0.568663
vn 0.590958 -0.197920 -0.782046
vn -0.321876 0.559844 -0.763525
vn 0.557342 0.776997 -0.292651
vn -0.752727 0.634643 -0.175013
vn 0.029648 -0.983347 -0.179301
vn -0.795360 -0.570230 -0.205524
vn -0.836556 -0.525537 0.154870
vn 0.674351 -0.714380 0.186847
vn -0.587675 -0.802052 0.106546
vn 0.805636 -0.570326 0.160248
vn 0.833295 0.538206 0.126310
vn -0.610174 0.781870 0.127935
vn 0.026512 0.952238 -0.304202
vn 0.177407 0.884510 -0.431473
vn 0.081753 0.946117 -0.313336
vn -0.225987 0.971667 -0.069233
vn -0.155452 0.981698 -0.110021
vn -0.354185 0.923149 0.149492
vn 0.456770 0.855768 -0.242947
vn 0.440905 0.790961 -0.424243
vn 0.491782 0.822810 -0.284840
vn 0.421512 0.906819 -0.002825
vn 0.460264 0.886442 -0.048757
vn 0.450241 0.879937 0.151634
vn -0.233987 0.970017 0.065705
vn -0.233987 0.970017 0.065705
vn -0.233987 0.970017 0.065705
vn 0.286203 0.892845 -0.347728
vn 0.286203 0.892845 -0.347728
vn 0.286203 0.892845 -0.347728
vn -0.848696 0.123805 0.514187
vn -0.889514 0.022957 0.456331
vn -0.871309 0.112830 0.477588
vn -0.739119 0.306383 0.599860
vn -0.777796 0.272154 0.566538
vn -0.657480 0.458686 0.597768
f 10/2/1 11/3/2 9/1/3
f 9/1/3 11/3/2 12/4/4
f 6/5/5 5/6/6 13/8/7
f 13/8/7 5/6/6 14/7/8
f 8/9/9 7/10/10 6/5/5
f 6/5/5 7/10/10 5/6/6
f 16/12/11 15/13/12 1/11/13
f 1/11/13 15/13/12 2/14/14
f 13/8/7 4/15/15 15/13/12
f 15/13/12 4/15/15 2/14/14
f 14/7/8 16/12/11 3/16/16
f 3/16/16 16/12/11 1/11/13
f 2/14/14 10/2/1 1/11/13
f 1/11/13 10/2/1 9/1/3
f 4/15/15 11/3/2 2/14/14
f 2/14/14 11/3/2 10/2/1
f 4/15/15 3/16/16 11/3/2
f 11/3/2 3/16/16 12/4/4
f 3/16/16 1/11/13 12/4/4
f 12/4/4 1/11/13 9/1/3
f 16/12/11 14/7/8 7/10/10
f 7/10/10 14/7/8 5/6/6
f 8/9/9 15/13/12 7/10/10
f 7/10/10 15/13/12 16/12/11
f 13/8/7 15/13/12 6/5/5
f 6/5/5 15/13/12 8/9/9
f 14/7/8 3/16/16 13/8/7
f 13/8/7 3/16/16 4/15/15
f 19/17/17 17/18/18 18/19/19
f 20/20/20 21/21/21 22/22/22
f 18/19/19 21/21/21 19/17/17
f 19/17/17 21/21/21 20/20/20
f 23/23/23 24/24/24 25/25/25
f 26/26/26 27/27/27 28/28/28
f 25/25/25 27/27/27 23/23/23
f 23/23/23 27/27/27 26/26/26
f 29/29/29 30/30/30 31/31/31
f 32/32/32 33/33/33 34/34/34
f 35/35/35 36/36/36 37/37/37
f 38/38/38 39/39/39 40/40/40
f 37/37/37 39/39/39 35/35/35
f 35/35/35 39/39/39 38/38/38
