# This file uses centimeters as units for non-parametric coordinates.

v -0.035182 -0.122399 0.011605
v 0.101748 -0.117850 0.004568
v -0.013599 -0.045076 0.018716
v 0.021242 -0.019681 0.033695
v -0.025038 -0.185062 -0.151442
v 0.018584 -0.123322 -0.158547
v -0.033594 -0.206034 -0.144148
v 0.016817 -0.143712 -0.154022
v -0.023415 -0.140230 0.116680
v 0.129634 -0.143399 0.051325
v 0.038508 -0.081959 0.138830
v 0.009493 -0.087458 0.112211
v 0.018175 -0.047648 -0.080126
v -0.029928 -0.057348 -0.077516
v 0.046500 -0.106614 -0.050422
v -0.026437 -0.123801 -0.043028
v -0.003293 -0.130857 -0.154220
v -0.005993 -0.066125 -0.080504
v 0.032048 -0.075338 -0.100537
v 0.088307 -0.058732 -0.016098
v 0.041826 -0.043951 0.018978
v 0.136156 -0.070519 0.069138
v 0.015154 -0.142962 -0.094911
v -0.066294 -0.143392 -0.095551
v -0.024390 -0.128012 0.075495
v 0.012595 -0.108813 -0.131364
v -0.062117 -0.040586 -0.032961
v -0.066611 -0.025957 0.067010
v 0.141304 -0.074514 0.000798
v 0.062298 -0.074437 -0.056672
v 0.022996 -0.122700 -0.119148
v 0.004454 -0.128111 -0.097245
v -0.032480 -0.111269 -0.055498
v 0.125175 -0.147964 0.011343
v 0.110384 -0.126132 -0.039284
v 0.101762 -0.144661 -0.143818
v 0.018224 -0.128969 -0.195648
v 0.060039 -0.099154 -0.102498
v 0.044451 -0.069628 -0.046520
v -0.000303 -0.034811 -0.015061
v -0.035404 -0.056493 -0.044194
v 0.020228 0.001132 0.121301
v 0.145747 -0.145420 0.110568
v 0.067154 -0.083326 0.042825
v 0.011310 -0.082372 -0.068392
v -0.015162 -0.081706 0.011118
v -0.044196 -0.051739 -0.069899
v 0.011385 -0.086677 0.020221
v -0.026437 -0.123801 -0.043028
v 0.034429 -0.076391 0.015749
v 0.016647 -0.087207 -0.061044
v 0.053599 -0.090022 0.070978
v -0.026510 -0.040018 -0.021087
vt 0.267176 0.320423
vt 0.262642 0.293837
vt 0.241374 0.307853
vt 0.277115 0.428000
vt 0.239014 0.440010
vt 0.231108 0.380508
vt 0.277687 0.375897
vt 0.281447 0.423668
vt 0.238636 0.436913
vt 0.248437 0.344697
vt 0.231295 0.381069
vt 0.268263 0.376373
vt 0.266277 0.341837
vt 0.274198 0.326399
vt 0.234898 0.341098
vt 0.255280 0.425976
vt 0.254512 0.384707
vt 0.272340 0.392878
vt 0.291672 0.352062
vt 0.269373 0.337012
vt 0.303044 0.316512
vt 0.265639 0.323755
vt 0.244057 0.336640
vt 0.224879 0.288296
vt 0.261173 0.388162
vt 0.225800 0.362680
vt 0.217013 0.318698
vt 0.278367 0.355939
vt 0.245790 0.349688
vt 0.283436 0.314453
vt 0.274196 0.404189
vt 0.292864 0.431863
vt 0.268143 0.441920
vt 0.300756 0.387939
vt 0.272033 0.368387
vt 0.280360 0.372601
vt 0.264657 0.408722
vt 0.310457 0.345130
vt 0.252178 0.351305
vt 0.237472 0.368888
vt 0.252985 0.287372
vt 0.321397 0.280134
vt 0.317705 0.289521
vt 0.286614 0.278647
vt 0.291200 0.271092
vt 0.287575 0.301871
vt 0.308530 0.313193
vt 0.312259 0.295809
vt 0.291066 0.285191
vt 0.269110 0.271895
vt 0.349056 0.292132
vt 0.349626 0.304438
vt 0.350893 0.279242
vt 0.352301 0.286014
vt 0.273346 0.268680
vt 0.281305 0.259912
vt 0.240717 0.355985
vn -0.615542 -0.057401 -0.786011
vn -0.374211 0.756710 -0.536056
vn 0.144944 0.331449 -0.932273
vn -0.318690 0.885026 -0.339362
vn 0.214428 -0.718744 -0.661384
vn 0.894101 -0.309570 -0.323650
vn 0.708727 -0.649221 0.276078
vn 0.602267 -0.782637 0.157337
vn 0.480301 -0.872823 -0.086553
vn 0.377971 -0.913143 -0.152667
vn 0.849862 0.473379 -0.231620
vn 0.635298 0.744256 -0.206106
vn 0.594163 0.724274 -0.349854
vn 0.596243 0.784799 -0.169071
vn -0.966223 -0.163980 0.198806
vn -0.993585 0.112211 0.014063
vn -0.958325 0.263429 0.110539
vn -0.897200 0.441512 0.010005
vn 0.329840 -0.883521 -0.332562
vn 0.696629 0.711323 -0.093422
vn 0.695148 0.699625 -0.165208
vn -0.490330 0.869609 0.057934
vn -0.608547 0.643444 0.464383
vn -0.613174 0.745905 0.260086
vn -0.571090 0.661727 0.485771
vn -0.882951 0.436452 0.172935
vn -0.165738 0.738002 -0.654128
vn 0.013194 0.914774 -0.403751
vn -0.034751 0.881291 -0.471294
vn 0.164405 0.969096 -0.183912
vn 0.197033 0.969262 -0.147340
vn 0.284317 0.958348 -0.027078
vn -0.004553 0.996071 -0.088445
vn -0.004553 0.996071 -0.088445
vn -0.004553 0.996071 -0.088445
vn 0.279119 0.950501 -0.136528
vn 0.279119 0.950501 -0.136528
vn 0.279119 0.950501 -0.136528
vn 0.536611 0.781340 -0.318678
vn 0.536611 0.781340 -0.318678
vn 0.423295 0.790310 -0.442980
vn 0.634703 0.750202 -0.185334
vn 0.022914 0.918489 -0.394783
vn 0.022914 0.918489 -0.394783
vn -0.102314 0.817323 -0.567023
vn 0.146868 0.968602 -0.200599
vn -0.408441 0.895919 -0.174656
vn -0.408441 0.895919 -0.174656
vn -0.408441 0.895919 -0.174656
vn 0.091726 0.942920 -0.320137
vn 0.091726 0.942920 -0.320137
vn 0.148043 0.861816 -0.485135
vn 0.032018 0.989161 -0.143301
f 5/5/1 14/6/2 6/4/3
f 6/4/3 14/6/2 13/7/4
f 7/9/5 5/5/1 8/8/6
f 8/8/6 5/5/1 6/4/3
f 49/11/7 51/12/8 48/10/9
f 48/10/9 51/12/8 50/13/10
f 45/43/11 44/44/12 15/42/13
f 15/42/13 44/44/12 2/45/14
f 47/47/15 16/48/16 46/46/17
f 46/46/17 16/48/16 1/49/18
f 48/10/9 50/13/10 52/1/19
f 2/45/14 44/44/12 10/56/20
f 10/56/20 44/44/12 43/55/21
f 3/15/22 12/3/23 4/14/24
f 4/14/24 12/3/23 11/2/25
f 9/50/26 46/46/17 1/49/18
f 7/51/5 16/48/16 5/52/1
f 5/52/1 16/48/16 47/47/15
f 51/12/8 49/11/7 8/8/6
f 8/8/6 49/11/7 7/9/5
f 15/42/13 8/53/6 45/43/11
f 45/43/11 8/53/6 6/54/3
f 14/6/2 3/15/22 13/7/4
f 13/7/4 3/15/22 4/14/24
f 17/16/27 18/17/28 19/18/29
f 20/19/30 21/20/31 22/21/32
f 19/18/29 18/17/28 20/19/30
f 20/19/30 18/17/28 21/20/31
f 23/22/33 24/23/34 25/24/35
f 32/28/36 33/29/37 34/30/38
f 38/31/39 36/32/40 37/33/41
f 36/32/40 38/31/39 35/34/42
f 39/35/43 30/36/44 31/37/45
f 30/36/44 39/35/43 29/38/46
f 40/39/47 41/40/48 42/41/49
f 27/26/50 53/57/51 26/25/52
f 53/57/51 27/26/50 28/27/53
