# This file uses centimeters as units for non-parametric coordinates.

v -0.087394 -0.097873 -0.003228
v 0.037304 -0.100617 0.047920
v -0.061343 -0.089956 0.009882
v -0.008043 -0.062262 0.060220
v 0.048720 -0.102784 -0.149648
v 0.076658 -0.083492 -0.141016
v 0.049871 -0.136485 -0.127704
v 0.071329 -0.098221 -0.137395
v -0.131299 -0.154053 0.069725
v -0.004356 -0.126979 0.125048
v -0.024198 -0.105130 0.114729
v -0.036361 -0.124960 0.123494
v 0.031812 -0.034427 -0.045953
v -0.025141 -0.053047 -0.048094
v 0.023789 -0.087152 -0.035988
v -0.034688 -0.087665 -0.056826
v 0.042060 -0.135656 -0.137783
v -0.066317 -0.061223 -0.141789
v -0.030591 -0.067912 -0.111506
v -0.113102 -0.051835 -0.071512
v -0.140119 -0.070897 -0.103896
v -0.190720 -0.067282 -0.044402
v 0.089320 -0.041312 -0.055041
v 0.110391 -0.150417 -0.126037
v 0.006211 -0.043789 -0.043889
v 0.046504 -0.016254 0.049399
v -0.000265 -0.032104 0.044970
v 0.003511 -0.106489 0.163579
v 0.001779 -0.062262 0.060220
v 0.007537 -0.031274 -0.060150
v -0.037664 -0.050551 0.070429
v -0.014329 -0.026588 -0.031244
v -0.038376 -0.110742 0.041120
v -0.024991 -0.074696 -0.036069
v 0.001690 -0.121191 0.044787
v 0.003281 -0.087152 -0.035988
v -0.007720 -0.132455 0.103328
v -0.033087 -0.145358 0.103747
vt 0.346610 0.320352
vt 0.356667 0.325885
vt 0.354373 0.323869
vt 0.349061 0.316842
vt 0.342051 0.411202
vt 0.332433 0.407926
vt 0.335034 0.373876
vt 0.342932 0.383814
vt 0.339952 0.408098
vt 0.332790 0.398928
vt 0.337335 0.340923
vt 0.330015 0.364162
vt 0.345008 0.374328
vt 0.357410 0.355572
vt 0.356628 0.346619
vt 0.347760 0.337758
vt 0.336462 0.370666
vt 0.326557 0.399707
vt 0.326106 0.361310
vt 0.328699 0.336352
vt 0.317744 0.338548
vt 0.299847 0.323559
vt 0.361856 0.392986
vt 0.345760 0.405590
vt 0.343859 0.377952
vt 0.369941 0.360075
vt 0.356784 0.353246
vt 0.368191 0.314237
vt 0.109754 0.432745
vt 0.095604 0.434373
vt 0.093324 0.412965
vt 0.106352 0.411133
vt 0.074948 0.421215
vt 0.076147 0.438682
vt 0.090078 0.433538
vt 0.089190 0.420737
vt 0.100150 0.390788
vt 0.082517 0.393693
vt 0.090976 0.453304
vt 0.077433 0.454087
vt 0.111622 0.447888
vt 0.095959 0.450933
vn 0.923524 0.296389 -0.243430
vn -0.193613 0.175348 -0.965281
vn -0.047670 0.953961 -0.296119
vn 0.248669 0.968108 0.030506
vn 0.080536 -0.969913 -0.229747
vn 0.877888 -0.445288 -0.176156
vn -0.401294 -0.911426 -0.090912
vn -0.058649 -0.998279 0.000343
vn -0.248920 -0.866455 -0.432776
vn 0.023503 -0.941776 -0.335419
vn 0.883164 0.377351 0.278619
vn 0.824703 0.516798 0.229748
vn 0.906807 0.328814 0.263786
vn 0.747612 0.603598 0.277028
vn -0.788801 0.345727 -0.508198
vn -0.774083 0.381897 -0.504926
vn -0.597299 0.801870 -0.015441
vn -0.357791 0.920880 0.154806
vn 0.143036 -0.942526 -0.301968
vn 0.449878 -0.887644 -0.098482
vn 0.697307 0.473197 0.538375
vn 0.396463 0.810571 0.431036
vn 0.211532 0.747173 0.630068
vn 0.072344 0.639251 0.765588
vn -0.331306 0.543989 0.770916
vn -0.435558 0.820670 0.369852
vn 0.370322 0.897738 -0.238597
vn 0.517061 0.728699 -0.449049
vn 0.155348 0.948764 -0.275162
vn -0.128957 0.969028 -0.210605
vn -0.280897 0.911017 -0.301903
vn -0.285393 0.910881 -0.298073
vn -0.103182 0.799840 -0.591277
vn -0.128635 0.523301 -0.842383
vn -0.179143 0.875392 -0.448995
vn -0.246189 0.968456 0.038524
vn -0.331291 0.923434 0.193690
vn -0.318925 0.798337 0.510827
f 6/5/1 5/6/2 13/8/3
f 13/8/3 5/6/2 32/7/4
f 7/10/5 5/6/2 8/9/6
f 8/9/6 5/6/2 6/5/1
f 34/12/7 36/13/8 33/11/9
f 33/11/9 36/13/8 35/14/10
f 30/30/11 29/31/12 15/29/13
f 15/29/13 29/31/12 2/32/14
f 14/34/15 16/35/16 3/33/17
f 3/33/17 16/35/16 1/36/18
f 33/11/9 35/14/10 38/1/19
f 38/1/19 35/14/10 37/2/20
f 2/32/14 29/31/12 10/37/21
f 4/15/22 31/16/23 11/3/24
f 11/3/24 31/16/23 12/4/25
f 9/38/26 3/33/17 1/36/18
f 7/39/5 16/35/16 5/40/2
f 5/40/2 16/35/16 14/34/15
f 8/9/6 36/13/8 7/10/5
f 7/10/5 36/13/8 34/12/7
f 30/30/11 15/29/13 6/42/1
f 6/42/1 15/29/13 8/41/6
f 13/8/3 32/7/4 4/15/22
f 4/15/22 32/7/4 31/16/23
f 19/17/27 17/18/28 18/19/29
f 20/20/30 21/21/31 22/22/32
f 19/17/27 18/19/29 20/20/30
f 20/20/30 18/19/29 21/21/31
f 23/23/33 24/24/34 25/25/35
f 26/26/36 27/27/37 28/28/38
f 23/23/33 25/25/35 26/26/36
f 26/26/36 25/25/35 27/27/37
