# This file uses centimeters as units for non-parametric coordinates.

v -11.909032 -0.012728 5.125060
v -11.045637 0.008674 5.396917
v -10.093271 0.010609 5.518699
v -8.138732 0.004204 5.471667
v -5.630552 0.004204 5.471667
v -4.021823 0.004204 5.471667
v -2.856091 0.004204 5.471667
v -1.542695 0.004204 5.471667
v 0.000000 0.004204 5.471667
v -12.261218 -0.064613 4.249923
v -10.882554 0.004204 3.908333
v -10.095621 0.004204 3.908333
v -7.917178 0.004204 3.908333
v -5.630552 0.004204 3.908333
v -4.021823 0.004204 3.908333
v -2.856091 0.004204 3.908333
v -1.542695 0.004204 3.908333
v 0.000000 0.004204 3.908333
v -12.318558 -0.037842 2.883255
v -10.120977 0.004204 1.926345
v -9.965881 0.004204 1.926345
v -7.993003 0.004204 1.926345
v -5.630552 0.004204 2.556261
v -4.021823 0.004204 2.596335
v -2.856091 0.004204 2.596335
v -1.542695 0.004204 2.596335
v 0.000000 0.004204 2.596335
v -12.323607 -0.020230 1.706140
v -10.120977 0.004204 1.768811
v -9.965881 0.004204 1.670136
v -7.993003 0.004204 1.670136
v -5.630552 0.004204 1.155830
v -4.021823 0.004204 1.141071
v -2.856091 0.004204 1.141071
v -1.542695 0.004204 1.141071
v 0.000000 0.004204 1.141071
v -12.322813 0.004204 -1.877215
v -10.120977 0.004204 -1.764348
v -9.965881 0.004204 -1.662912
v -7.993003 0.004204 -1.662912
v -5.630552 0.004204 -1.155830
v -4.021823 0.004204 -1.141071
v -2.856091 0.004204 -1.141071
v -1.542695 0.004204 -1.141071
v 0.000000 0.004204 -1.141071
v -12.322813 0.004204 -2.934100
v -10.120977 0.004204 -1.928077
v -9.965881 0.004204 -1.928077
v -7.993003 0.004204 -1.928077
v -5.630552 0.004204 -2.556262
v -4.021823 0.004204 -2.596336
v -2.856091 0.004204 -2.596336
v -1.542695 0.004204 -2.596336
v 0.000000 0.004204 -2.596336
v -12.333639 0.065816 -4.202701
v -10.882554 0.004204 -3.908333
v -10.095621 0.004204 -3.908333
v -7.917178 0.004204 -3.908333
v -5.630552 0.004204 -3.908333
v -4.021823 0.004204 -3.908333
v -2.856091 0.004204 -3.908333
v -1.542695 0.004204 -3.908333
v 0.000000 0.004204 -3.908333
v -11.972783 0.036250 -5.139611
v -11.166413 0.015648 -5.473115
v -10.135984 0.004204 -5.471667
v -8.138732 0.004204 -5.471667
v -5.630552 0.004204 -5.471667
v -4.021823 0.004204 -5.471667
v -2.856091 0.004204 -5.471667
v -1.542695 0.004204 -5.471667
v 0.000000 0.004204 -5.471667
v -9.144019 1.804366 1.873814
v -9.004002 1.802809 1.874293
v -9.002848 1.807082 1.624669
v -9.143472 1.806393 1.720380
v -8.000456 1.791651 1.877727
v -7.999302 1.795924 1.628263
v -8.991778 1.848071 -1.622219
v -9.131189 1.851874 -1.721446
v -8.990602 1.852425 -1.880488
v -9.130620 1.853981 -1.880967
v -7.988233 1.836913 -1.618625
v -7.987057 1.841267 -1.877055
v -9.089522 1.932512 1.875702
v -8.949504 1.930955 1.876181
v -8.948956 1.932983 1.722747
v -9.088975 1.934539 1.722268
v -7.999030 1.920387 1.879433
v -7.998483 1.922415 1.725999
v -8.936674 1.978463 -1.719079
v -9.076693 1.980020 -1.719558
v -8.936105 1.980571 -1.878600
v -9.076123 1.982128 -1.879080
v -7.986201 1.967895 -1.715827
v -7.985631 1.970003 -1.875348
v -11.257601 0.004204 2.837289
v -11.269110 0.004204 1.701264
v -11.235161 0.004204 -1.801045
v -11.203830 0.004204 -2.865736
v -12.004249 1.200658 5.158338
v -11.144360 1.222808 5.447340
v -12.304036 1.220501 4.266374
v -10.216793 1.233942 5.583031
v -8.430914 1.218825 5.564867
v -5.832688 1.218825 5.564867
v -4.166207 1.218825 5.564867
v -2.933885 1.218825 5.564867
v -1.556844 1.218825 5.564867
v 0.000000 1.218825 5.564867
v -12.333025 1.218825 2.967574
v -12.339221 1.218825 1.622373
v -12.339221 1.218826 -1.794598
v -12.350444 1.218825 -3.037519
v -12.358933 1.217964 -4.289356
v -12.035376 1.223737 -5.181911
v -11.237577 1.225379 -5.509788
v -10.252404 1.218825 -5.565014
v -8.430914 1.218825 -5.565014
v -5.832688 1.218825 -5.565014
v -4.166207 1.218825 -5.565015
v -2.933885 1.218825 -5.565015
v -1.556844 1.218825 -5.565015
v 0.000000 1.218825 -5.565015
v -14.696449 8.330731 8.826004
v -13.104587 8.330731 9.986214
v -15.120670 8.330731 7.133010
v -11.088496 8.330731 9.986214
v -9.072407 8.330731 9.986214
v -7.056313 8.330731 9.986214
v -5.040225 8.330731 9.986214
v -3.395644 8.330731 9.986214
v -1.627226 8.330731 9.986214
v 0.000000 8.330731 9.986214
v -15.120668 8.330731 4.279806
v -15.120671 8.330731 1.426602
v -15.120671 8.330732 -1.426602
v -15.120670 8.330731 -4.279806
v -15.120670 8.330731 -7.133010
v -14.696449 8.330731 -8.826004
v -13.104587 8.330731 -9.986214
v -11.088496 8.330731 -9.986214
v -9.072407 8.330731 -9.986214
v -7.056313 8.330731 -9.986214
v -5.040225 8.330731 -9.986214
v -3.395644 8.330731 -9.986214
v -1.627226 8.330731 -9.986214
v 0.000000 8.330731 -9.986214
v -16.744347 14.901298 11.058549
v -14.511770 14.901298 11.058549
v -16.744345 14.901298 7.898961
v -12.279191 14.901298 11.058549
v -10.046610 14.901298 11.058549
v -7.814028 14.901298 11.058549
v -5.581450 14.901298 11.058549
v -3.720378 14.901298 11.058549
v -1.735471 14.901298 11.058549
v 0.000000 14.901298 11.058549
v -16.744343 14.901298 4.739376
v -16.744347 14.901298 1.579793
v -16.744347 14.901298 -1.579793
v -16.744345 14.901298 -4.739377
v -16.744345 14.901298 -7.898961
v -16.744347 14.901298 -11.058549
v -14.511770 14.901298 -11.058549
v -12.279191 14.901298 -11.058549
v -10.046610 14.901298 -11.058549
v -7.814028 14.901298 -11.058549
v -5.581450 14.901298 -11.058549
v -3.720378 14.901298 -11.058549
v -1.735471 14.901298 -11.058549
v 0.000000 14.901298 -11.058549
v -16.744347 14.901298 0.000000
v -15.120671 8.330732 0.000000
v -12.339221 1.218825 -0.000074
v -12.322813 0.004204 0.000000
v -11.252135 0.004204 0.004120
v -10.179015 0.004204 0.001121
v -9.195360 1.829793 -0.001839
v -9.140863 1.957940 0.000049
v -9.000845 1.956383 0.000528
v -8.050371 1.945815 0.003780
v -8.051797 1.817079 0.002074
v -9.055343 1.828237 -0.001360
v -10.023919 0.004204 0.001121
v -8.051041 0.004204 0.001121
v -5.630552 0.004204 0.000000
v -4.021823 0.004204 0.000000
v -2.856091 0.004204 0.000000
v -1.542695 0.004204 0.000000
v 0.000000 0.004204 0.000000
v -9.628811 0.913667 -1.741622
v -9.686849 0.913667 0.001096
v -9.628811 0.913667 1.746032
v -9.628811 0.913667 1.901522
v -9.481249 0.913667 1.901522
v -7.993003 0.913667 1.901522
v -7.993003 0.913667 1.648646
v -9.481249 0.913667 1.648646
v -9.539287 0.913667 0.001096
v -9.481249 0.913667 -1.641474
v -7.993003 0.913667 -1.641474
v -7.993003 0.913667 -1.903255
v -9.481249 0.913667 -1.903255
v -9.628811 0.913667 -1.903255
v 11.809231 -0.008995 4.998293
v 11.158704 -0.012605 5.395251
v 9.959255 -0.021192 5.474849
v 8.138732 0.004204 5.471667
v 5.630552 0.004204 5.471667
v 4.021823 0.004204 5.471667
v 2.856091 0.004204 5.471667
v 1.542695 0.004204 5.471667
v 12.126486 -0.012601 4.220765
v 10.882554 -0.012620 3.908333
v 10.095621 0.004204 3.908333
v 7.917178 0.004204 3.908333
v 5.630552 0.004204 3.908333
v 4.021823 0.004204 3.908333
v 2.856091 0.004204 3.908333
v 1.542695 0.004204 3.908333
v 12.249515 -0.012612 3.096439
v 9.959010 0.004204 1.936791
v 9.803941 0.004204 1.933907
v 7.993003 0.004204 1.926345
v 5.630552 0.004204 2.556261
v 4.021823 0.004204 2.596335
v 2.856091 0.004204 2.596335
v 1.542695 0.004204 2.596335
v 12.243409 -0.012618 1.753759
v 9.961939 0.004204 1.779286
v 9.810113 0.004204 1.678112
v 7.993003 0.004204 1.670136
v 5.630552 0.004204 1.155830
v 4.021823 0.004204 1.141071
v 2.856091 0.004204 1.141071
v 1.542695 0.004204 1.141071
v 12.243156 -0.012619 -1.714977
v 9.921370 0.004204 -1.800708
v 9.756145 0.004204 -1.710979
v 7.988267 0.004204 -1.732747
v 5.630552 0.004204 -1.155830
v 4.021823 0.004204 -1.141071
v 2.856091 0.004204 -1.141071
v 1.542695 0.004204 -1.141071
v 12.242563 -0.012622 -3.065090
v 9.931136 0.004204 -1.964146
v 9.776317 0.004204 -1.973397
v 8.002158 0.004204 -1.994510
v 5.630552 0.004204 -2.556262
v 4.021823 0.004204 -2.596336
v 2.856091 0.004204 -2.596336
v 1.542695 0.004204 -2.596336
v 12.130660 -0.010210 -4.222515
v 10.882554 -0.012620 -3.908333
v 10.095621 0.004204 -3.908333
v 7.917178 0.004204 -3.908333
v 5.630552 0.004204 -3.908333
v 4.021823 0.004204 -3.908333
v 2.856091 0.004204 -3.908333
v 1.542695 0.004204 -3.908333
v 11.827787 -0.010203 -4.921318
v 11.022472 -0.012617 -5.351994
v 10.212191 -0.003634 -5.482680
v 8.138732 0.004204 -5.471667
v 5.630552 0.004204 -5.471667
v 4.021823 0.004204 -5.471667
v 2.856091 0.004204 -5.471667
v 1.542695 0.004204 -5.471667
v 9.030856 1.816880 1.878093
v 8.890853 1.816880 1.875489
v 8.896866 1.816880 1.625947
v 9.033710 1.816880 1.724671
v 7.993003 1.823129 1.876700
v 7.993003 1.823129 1.627157
v 8.871056 1.858246 -1.662757
v 9.020970 1.858246 -1.751057
v 8.890710 1.858246 -1.918662
v 9.030487 1.858246 -1.910309
v 7.974484 1.855691 -1.667104
v 7.988019 1.855692 -1.923123
v 8.977790 1.945635 1.877106
v 8.837787 1.945635 1.874502
v 8.840640 1.945635 1.721080
v 8.980643 1.945635 1.723684
v 7.993003 1.951885 1.876700
v 7.993003 1.951885 1.723252
v 8.828212 1.987001 -1.762576
v 8.967990 1.987001 -1.754223
v 8.837728 1.987002 -1.921828
v 8.977507 1.987002 -1.913475
v 7.981465 1.984447 -1.763722
v 7.988019 1.984447 -1.923123
v 11.257601 -0.012620 2.837289
v 11.269110 -0.012620 1.701264
v 11.236361 -0.012620 -1.734400
v 11.203830 -0.012620 -2.865736
v 11.770854 1.225253 5.042442
v 11.137538 1.221239 5.462503
v 12.144709 1.218825 4.262640
v 10.039577 1.218825 5.564867
v 8.430914 1.218825 5.564867
v 5.832688 1.218825 5.564867
v 4.166207 1.218825 5.564867
v 2.933885 1.218825 5.564867
v 1.556844 1.218825 5.564867
v 12.266618 1.218825 3.184048
v 12.265588 1.218825 1.622373
v 12.265588 1.218826 -1.622521
v 12.266618 1.218825 -3.026658
v 12.159875 1.222393 -4.195399
v 11.846875 1.228045 -4.876421
v 11.001541 1.218825 -5.374191
v 10.231794 1.218707 -5.540381
v 8.430914 1.218825 -5.565014
v 5.832688 1.218825 -5.565014
v 4.166207 1.218825 -5.565015
v 2.933885 1.218825 -5.565015
v 1.556844 1.218825 -5.565015
v 14.696449 8.330731 8.826004
v 13.104587 8.330731 9.986214
v 15.120670 8.330731 7.133010
v 11.088496 8.330731 9.986214
v 9.072407 8.330731 9.986214
v 7.056313 8.330731 9.986214
v 5.040225 8.330731 9.986214
v 3.395644 8.330731 9.986214
v 1.627226 8.330731 9.986214
v 15.120668 8.330731 4.279806
v 15.120671 8.330731 1.426602
v 15.120671 8.330732 -1.426602
v 15.120670 8.330731 -4.279806
v 15.120670 8.330731 -7.133010
v 14.696449 8.330731 -8.826004
v 13.104587 8.330731 -9.986214
v 11.088496 8.330731 -9.986214
v 9.072407 8.330731 -9.986214
v 7.056313 8.330731 -9.986214
v 5.040225 8.330731 -9.986214
v 3.395644 8.330731 -9.986214
v 1.627226 8.330731 -9.986214
v 16.744347 14.901298 11.058549
v 14.511770 14.901298 11.058549
v 16.744345 14.901298 7.898961
v 12.279191 14.901298 11.058549
v 10.046610 14.901298 11.058549
v 7.814028 14.901298 11.058549
v 5.581450 14.901298 11.058549
v 3.720378 14.901298 11.058549
v 1.735471 14.901298 11.058549
v 16.744343 14.901298 4.739376
v 16.744347 14.901298 1.579793
v 16.744347 14.901298 -1.579793
v 16.744345 14.901298 -4.739377
v 16.744345 14.901298 -7.898961
v 16.744347 14.901298 -11.058549
v 14.511770 14.901298 -11.058549
v 12.279191 14.901298 -11.058549
v 10.046610 14.901298 -11.058549
v 7.814028 14.901298 -11.058549
v 5.581450 14.901298 -11.058549
v 3.720378 14.901298 -11.058549
v 1.735471 14.901298 -11.058549
v 16.744347 14.901298 0.000000
v 15.120671 8.330732 0.000000
v 12.265588 1.218825 -0.000074
v 12.240367 -0.012620 0.000000
v 11.252135 -0.012620 0.004120
v 9.982011 -0.013510 -0.040376
v 9.082888 1.833014 -0.016314
v 9.033733 1.963306 -0.014680
v 8.893835 1.967513 -0.010366
v 8.057343 1.953303 0.053887
v 8.057173 1.824548 0.053892
v 8.942990 1.837221 -0.011999
v 9.827059 -0.008850 -0.035597
v 7.991914 0.005624 0.054011
v 5.630552 0.004204 0.000000
v 4.021823 0.004204 0.000000
v 2.856091 0.004204 0.000000
v 1.542695 0.004204 0.000000
v 9.451552 0.945162 -1.782918
v 9.517640 0.910330 -0.025248
v 9.470282 0.913667 1.747357
v 9.467390 0.913667 1.902822
v 9.319854 0.913667 1.900078
v 7.993003 0.913667 1.901522
v 7.993003 0.913667 1.648646
v 9.325947 0.913667 1.647193
v 9.291832 0.913607 -0.026894
v 9.378876 0.980279 -1.628292
v 7.987426 0.913667 -1.711326
v 8.001139 0.913667 -1.969709
v 9.313895 0.945162 -1.953066
v 9.461195 0.945162 -1.944263
vt 0.214993 0.347693
vt 0.252994 0.347693
vt 0.252994 0.391210
vt 0.214993 0.391210
vt 0.290995 0.347693
vt 0.290995 0.391210
vt 0.328996 0.347693
vt 0.328996 0.391210
vt 0.366997 0.347693
vt 0.366997 0.391210
vt 0.404998 0.347693
vt 0.404998 0.391210
vt 0.442999 0.347693
vt 0.442999 0.391210
vt 0.481000 0.347693
vt 0.481000 0.391210
vt 0.519001 0.347693
vt 0.519001 0.391210
vt 0.252994 0.434726
vt 0.214993 0.434726
vt 0.290995 0.434726
vt 0.328996 0.434726
vt 0.366997 0.434726
vt 0.404998 0.434726
vt 0.442999 0.434726
vt 0.481000 0.434726
vt 0.519001 0.434726
vt 0.252994 0.478242
vt 0.214993 0.478242
vt 0.290995 0.478242
vt 0.328996 0.478242
vt 0.366997 0.478242
vt 0.404998 0.478242
vt 0.442999 0.478242
vt 0.481000 0.478242
vt 0.519001 0.478242
vt 0.709005 0.478242
vt 0.747006 0.478242
vt 0.252994 0.521758
vt 0.214993 0.521758
vt 0.290995 0.521758
vt 0.328996 0.521758
vt 0.366997 0.521758
vt 0.404998 0.521758
vt 0.442999 0.521758
vt 0.481000 0.521758
vt 0.519001 0.521758
vt 0.252994 0.565274
vt 0.214993 0.565274
vt 0.290995 0.565274
vt 0.328996 0.565274
vt 0.366997 0.565274
vt 0.404998 0.565274
vt 0.442999 0.565274
vt 0.481000 0.565274
vt 0.519001 0.565274
vt 0.252994 0.608790
vt 0.214993 0.608790
vt 0.290995 0.608790
vt 0.328996 0.608790
vt 0.366997 0.608790
vt 0.404998 0.608790
vt 0.442999 0.608790
vt 0.481000 0.608790
vt 0.519001 0.608790
vt 0.252994 0.652307
vt 0.214993 0.652307
vt 0.290995 0.652307
vt 0.328996 0.652307
vt 0.366997 0.652307
vt 0.404998 0.652307
vt 0.442999 0.652307
vt 0.481000 0.652307
vt 0.519001 0.652307
vt 0.252994 0.434726
vt 0.290995 0.434726
vt 0.252994 0.478242
vt 0.328996 0.434726
vt 0.328996 0.478242
vt 0.290995 0.478242
vt 0.671004 0.434726
vt 0.709005 0.434726
vt 0.709005 0.478242
vt 0.671004 0.478242
vt 0.747006 0.434726
vt 0.747006 0.478242
vt 0.290995 0.521758
vt 0.252994 0.521758
vt 0.252994 0.434726
vt 0.290995 0.434726
vt 0.252994 0.478242
vt 0.328996 0.434726
vt 0.328996 0.478242
vt 0.290995 0.478242
vt 0.290995 0.521758
vt 0.252994 0.521758
vt 0.290995 0.565274
vt 0.252994 0.565274
vt 0.328996 0.521758
vt 0.328996 0.565274
vt 0.000000 0.000000
vt 1.000000 0.000000
vt 1.000000 0.971781
vt 0.000000 0.971781
vt 0.000000 0.000000
vt 0.273730 0.000000
vt 0.273730 1.000000
vt 0.000000 1.000000
vt 0.000000 0.971781
vt 1.000000 0.971781
vt 1.000000 0.000000
vt 0.000000 0.000000
vt 0.230781 0.434726
vt 0.230556 0.478242
vt 0.231220 0.521758
vt 0.235022 0.565274
vt 0.252994 0.347693
vt 0.214993 0.347693
vt 0.171115 0.280045
vt 0.214966 0.280045
vt 0.214993 0.391210
vt 0.171115 0.342889
vt 0.290995 0.347693
vt 0.258818 0.280045
vt 0.328996 0.347693
vt 0.302669 0.280045
vt 0.366997 0.347693
vt 0.346520 0.280045
vt 0.404998 0.347693
vt 0.390372 0.280045
vt 0.442999 0.347693
vt 0.434223 0.280045
vt 0.481000 0.347693
vt 0.478074 0.280045
vt 0.519001 0.347693
vt 0.521926 0.280045
vt 0.214993 0.434726
vt 0.171115 0.405734
vt 0.214993 0.478242
vt 0.171115 0.468578
vt 0.214993 0.521758
vt 0.171115 0.531422
vt 0.214993 0.565274
vt 0.171115 0.594266
vt 0.214993 0.608790
vt 0.171115 0.657111
vt 0.214993 0.652307
vt 0.171115 0.719955
vt 0.252994 0.652307
vt 0.214966 0.719955
vt 0.290995 0.652307
vt 0.258818 0.719955
vt 0.328996 0.652307
vt 0.302669 0.719955
vt 0.366997 0.652307
vt 0.346520 0.719955
vt 0.404998 0.652307
vt 0.390372 0.719955
vt 0.442999 0.652307
vt 0.434223 0.719955
vt 0.481000 0.652307
vt 0.478074 0.719955
vt 0.519001 0.652307
vt 0.521926 0.719955
vt 0.048484 0.048484
vt 0.108686 0.048484
vt 0.048484 0.177489
vt 0.168888 0.048484
vt 0.229091 0.048484
vt 0.289293 0.048484
vt 0.349495 0.048484
vt 0.409697 0.048484
vt 0.469899 0.048484
vt 0.530101 0.048484
vt 0.048484 0.306493
vt 0.048484 0.435498
vt 0.048484 0.564502
vt 0.048484 0.693507
vt 0.048484 0.822511
vt 0.048484 0.951516
vt 0.108686 0.951516
vt 0.168888 0.951516
vt 0.229091 0.951516
vt 0.289293 0.951516
vt 0.349495 0.951516
vt 0.409697 0.951516
vt 0.469899 0.951516
vt 0.530101 0.951516
vt 0.000000 0.000000
vt 0.066667 0.000000
vt 0.000000 0.142857
vt 0.133333 0.000000
vt 0.200000 0.000000
vt 0.266667 0.000000
vt 0.333333 0.000000
vt 0.400000 0.000000
vt 0.466667 0.000000
vt 0.533333 0.000000
vt 0.000000 0.285714
vt 0.000000 0.428571
vt 0.000000 0.571429
vt 0.000000 0.714286
vt 0.000000 0.857143
vt 0.000000 1.000000
vt 0.066667 1.000000
vt 0.133333 1.000000
vt 0.200000 1.000000
vt 0.266667 1.000000
vt 0.333333 1.000000
vt 0.400000 1.000000
vt 0.466667 1.000000
vt 0.533333 1.000000
vt 0.000000 0.500000
vt 0.048484 0.500000
vt 0.171115 0.500000
vt 0.214993 0.500000
vt 0.214993 0.500000
vt 0.230888 0.500000
vt 0.252994 0.500000
vt 0.690005 0.478242
vt 0.690005 0.478242
vt 0.690005 0.478242
vt 0.252994 0.500000
vt 0.290995 0.500000
vt 0.000000 0.485891
vt 1.000000 0.485891
vt 0.000000 0.500000
vt 0.273730 0.500000
vt 0.000000 0.485891
vt 1.000000 0.485891
vt 0.690005 0.434726
vt 0.690005 0.434726
vt 0.290995 0.500000
vt 0.328996 0.500000
vt 0.366997 0.500000
vt 0.404998 0.500000
vt 0.442999 0.500000
vt 0.481000 0.500000
vt 0.519001 0.500000
vt 0.290995 0.478242
vt 0.709005 0.434726
vt 0.671004 0.478242
vt 0.671004 0.434726
vt 0.709005 0.434726
vt 0.747006 0.434726
vt 0.709005 0.434726
vt 0.747006 0.434726
vt 0.747006 0.434726
vt 0.290995 0.478242
vt 0.290995 0.521758
vt 0.290995 0.478242
vt 0.252994 0.478242
vt 0.252994 0.478242
vt 0.709005 0.478242
vt 0.671004 0.434726
vt 0.671004 0.478242
vt 0.709005 0.434726
vt 0.747006 0.434726
vt 0.709005 0.434726
vt 0.290995 0.478242
vt 0.290995 0.521758
vt 0.290995 0.478242
vt 0.252994 0.478242
vt 0.252994 0.478242
vt 0.252994 0.521758
vt 0.252994 0.521758
vt 0.252994 0.521758
vt 0.671004 0.478242
vt 0.671004 0.478242
vt 0.671004 0.478242
vt 0.671004 0.478242
vt 0.671004 0.434726
vt 0.671004 0.434726
vt 0.290995 0.478242
vt 0.747006 0.434726
vt 0.709005 0.478242
vt 0.690005 0.478242
vt 0.671004 0.478242
vt 0.252994 0.478242
vt 0.252994 0.434726
vt 0.290995 0.434726
vt 0.328996 0.434726
vt 0.328996 0.478242
vt 0.290995 0.478242
vt 0.671004 0.434726
vt 0.690005 0.434726
vt 0.709005 0.434726
vt 0.747006 0.434726
vt 0.747006 0.478242
vt 0.290995 0.478242
vt 0.290995 0.521758
vt 0.252994 0.521758
vt 0.252994 0.478242
vt 0.671004 0.478242
vt 0.671004 0.434726
vt 0.709005 0.434726
vt 0.214993 0.347693
vt 0.252994 0.347693
vt 0.252994 0.391210
vt 0.214993 0.391210
vt 0.290995 0.347693
vt 0.290995 0.391210
vt 0.328996 0.347693
vt 0.328996 0.391210
vt 0.366997 0.347693
vt 0.366997 0.391210
vt 0.404998 0.347693
vt 0.404998 0.391210
vt 0.442999 0.347693
vt 0.442999 0.391210
vt 0.481000 0.347693
vt 0.481000 0.391210
vt 0.519001 0.347693
vt 0.519001 0.391210
vt 0.230781 0.434726
vt 0.214993 0.434726
vt 0.290995 0.434726
vt 0.252994 0.434726
vt 0.328996 0.434726
vt 0.366997 0.434726
vt 0.404998 0.434726
vt 0.442999 0.434726
vt 0.481000 0.434726
vt 0.519001 0.434726
vt 0.230556 0.478242
vt 0.214993 0.478242
vt 0.252994 0.434726
vt 0.290995 0.434726
vt 0.290995 0.478242
vt 0.252994 0.478242
vt 0.328996 0.434726
vt 0.328996 0.478242
vt 0.290995 0.478242
vt 0.366997 0.478242
vt 0.328996 0.478242
vt 0.404998 0.478242
vt 0.442999 0.478242
vt 0.481000 0.478242
vt 0.519001 0.478242
vt 0.214993 0.500000
vt 0.230888 0.500000
vt 0.231220 0.521758
vt 0.214993 0.521758
vt 0.252994 0.500000
vt 0.290995 0.500000
vt 0.290995 0.521758
vt 0.252994 0.521758
vt 0.290995 0.500000
vt 0.328996 0.500000
vt 0.328996 0.521758
vt 0.290995 0.521758
vt 0.366997 0.500000
vt 0.366997 0.521758
vt 0.404998 0.500000
vt 0.404998 0.521758
vt 0.442999 0.500000
vt 0.442999 0.521758
vt 0.481000 0.500000
vt 0.481000 0.521758
vt 0.519001 0.500000
vt 0.519001 0.521758
vt 0.235022 0.565274
vt 0.214993 0.565274
vt 0.290995 0.565274
vt 0.252994 0.565274
vt 0.328996 0.521758
vt 0.328996 0.565274
vt 0.366997 0.565274
vt 0.328996 0.565274
vt 0.404998 0.565274
vt 0.442999 0.565274
vt 0.481000 0.565274
vt 0.519001 0.565274
vt 0.252994 0.608790
vt 0.214993 0.608790
vt 0.252994 0.565274
vt 0.290995 0.565274
vt 0.290995 0.608790
vt 0.328996 0.608790
vt 0.366997 0.608790
vt 0.404998 0.608790
vt 0.442999 0.608790
vt 0.481000 0.608790
vt 0.519001 0.608790
vt 0.252994 0.652307
vt 0.214993 0.652307
vt 0.290995 0.652307
vt 0.328996 0.652307
vt 0.366997 0.652307
vt 0.404998 0.652307
vt 0.442999 0.652307
vt 0.481000 0.652307
vt 0.519001 0.652307
vt 0.252994 0.434726
vt 0.290995 0.434726
vt 0.290995 0.434726
vt 0.252994 0.434726
vt 0.252994 0.478242
vt 0.252994 0.478242
vt 0.328996 0.434726
vt 0.328996 0.434726
vt 0.328996 0.478242
vt 0.328996 0.478242
vt 0.290995 0.478242
vt 0.290995 0.478242
vt 0.690005 0.434726
vt 0.709005 0.434726
vt 0.709005 0.434726
vt 0.690005 0.434726
vt 0.709005 0.478242
vt 0.690005 0.478242
vt 0.690005 0.478242
vt 0.709005 0.478242
vt 0.671004 0.478242
vt 0.671004 0.434726
vt 0.671004 0.434726
vt 0.671004 0.478242
vt 0.709005 0.434726
vt 0.747006 0.434726
vt 0.747006 0.434726
vt 0.709005 0.434726
vt 0.747006 0.434726
vt 0.747006 0.478242
vt 0.747006 0.478242
vt 0.747006 0.434726
vt 0.290995 0.478242
vt 0.290995 0.521758
vt 0.290995 0.521758
vt 0.290995 0.478242
vt 0.252994 0.521758
vt 0.252994 0.478242
vt 0.252994 0.478242
vt 0.252994 0.521758
vt 0.690005 0.478242
vt 0.709005 0.478242
vt 0.671004 0.434726
vt 0.671004 0.478242
vt 0.709005 0.434726
vt 0.747006 0.434726
vt 0.709005 0.434726
vt 0.290995 0.478242
vt 0.290995 0.521758
vt 0.290995 0.478242
vt 0.252994 0.478242
vt 0.252994 0.478242
vt 0.252994 0.521758
vt 0.000000 0.485891
vt 1.000000 0.485891
vt 1.000000 0.971781
vt 0.000000 0.971781
vt 0.000000 0.500000
vt 0.273730 0.500000
vt 0.273730 1.000000
vt 0.000000 1.000000
vt 0.000000 0.485891
vt 1.000000 0.485891
vt 1.000000 0.000000
vt 0.000000 0.000000
vt 0.252994 0.478242
vt 0.252994 0.500000
vt 0.252994 0.521758
vt 0.252994 0.521758
vt 0.252994 0.347693
vt 0.214993 0.347693
vt 0.171115 0.280045
vt 0.214966 0.280045
vt 0.214993 0.391210
vt 0.171115 0.342889
vt 0.290995 0.347693
vt 0.258818 0.280045
vt 0.328996 0.347693
vt 0.302669 0.280045
vt 0.366997 0.347693
vt 0.346520 0.280045
vt 0.404998 0.347693
vt 0.390372 0.280045
vt 0.442999 0.347693
vt 0.434223 0.280045
vt 0.481000 0.347693
vt 0.478074 0.280045
vt 0.519001 0.347693
vt 0.521926 0.280045
vt 0.214993 0.434726
vt 0.171115 0.405734
vt 0.214993 0.478242
vt 0.171115 0.468578
vt 0.214993 0.500000
vt 0.214993 0.521758
vt 0.171115 0.531422
vt 0.171115 0.500000
vt 0.214993 0.565274
vt 0.171115 0.594266
vt 0.214993 0.608790
vt 0.171115 0.657111
vt 0.214993 0.652307
vt 0.171115 0.719955
vt 0.252994 0.652307
vt 0.214966 0.719955
vt 0.290995 0.652307
vt 0.258818 0.719955
vt 0.328996 0.652307
vt 0.302669 0.719955
vt 0.366997 0.652307
vt 0.346520 0.719955
vt 0.404998 0.652307
vt 0.390372 0.719955
vt 0.442999 0.652307
vt 0.434223 0.719955
vt 0.481000 0.652307
vt 0.478074 0.719955
vt 0.519001 0.652307
vt 0.521926 0.719955
vt 0.048484 0.048484
vt 0.108686 0.048484
vt 0.048484 0.177489
vt 0.168888 0.048484
vt 0.229091 0.048484
vt 0.289293 0.048484
vt 0.349495 0.048484
vt 0.409697 0.048484
vt 0.469899 0.048484
vt 0.530101 0.048484
vt 0.048484 0.306493
vt 0.048484 0.435498
vt 0.048484 0.564502
vt 0.048484 0.500000
vt 0.048484 0.693507
vt 0.048484 0.822511
vt 0.048484 0.951516
vt 0.108686 0.951516
vt 0.168888 0.951516
vt 0.229091 0.951516
vt 0.289293 0.951516
vt 0.349495 0.951516
vt 0.409697 0.951516
vt 0.469899 0.951516
vt 0.530101 0.951516
vt 0.000000 0.000000
vt 0.066667 0.000000
vt 0.000000 0.142857
vt 0.133333 0.000000
vt 0.200000 0.000000
vt 0.266667 0.000000
vt 0.333333 0.000000
vt 0.400000 0.000000
vt 0.466667 0.000000
vt 0.533333 0.000000
vt 0.000000 0.285714
vt 0.000000 0.428571
vt 0.000000 0.571429
vt 0.000000 0.500000
vt 0.000000 0.714286
vt 0.000000 0.857143
vt 0.000000 1.000000
vt 0.066667 1.000000
vt 0.133333 1.000000
vt 0.200000 1.000000
vt 0.266667 1.000000
vt 0.333333 1.000000
vt 0.400000 1.000000
vt 0.466667 1.000000
vt 0.533333 1.000000
vt 0.671004 0.478242
vt 0.671004 0.478242
vt 0.671004 0.478242
vt 0.671004 0.478242
vt 0.000000 0.000000
vt 1.000000 0.000000
vt 0.000000 0.000000
vt 0.273730 0.000000
vt 0.000000 0.971781
vt 1.000000 0.971781
vt 0.671004 0.434726
vt 0.671004 0.434726
vt 0.290995 0.478242
vt 0.709005 0.478242
vt 0.690005 0.478242
vt 0.671004 0.478242
vt 0.290995 0.478242
vt 0.671004 0.434726
vt 0.690005 0.434726
vt 0.709005 0.434726
vt 0.747006 0.434726
vt 0.747006 0.478242
vt 0.290995 0.478242
vt 0.290995 0.521758
vt 0.252994 0.521758
vt 0.252994 0.478242
vt 0.671004 0.478242
vt 0.671004 0.434726
vt 0.709005 0.434726
vt 0.747006 0.434726
vn -0.008189 0.999958 -0.004168
vn -0.021263 0.999763 -0.004673
vn -0.040836 0.998955 -0.020550
vn -0.047737 0.998860 0.000565
vn 0.000829 0.999992 -0.003979
vn 0.000237 0.999999 -0.001566
vn 0.001060 0.999999 -0.001327
vn -0.000000 1.000000 0.000000
vn -0.000000 1.000000 0.000000
vn -0.000000 1.000000 0.000000
vn 0.000000 1.000000 0.000000
vn 0.000000 1.000000 0.000000
vn 0.000000 1.000000 0.000000
vn 0.000000 1.000000 0.000000
vn 0.000000 1.000000 0.000000
vn 0.000000 1.000000 0.000000
vn 0.000000 1.000000 0.000000
vn 0.000000 1.000000 0.000000
vn -0.036666 0.999241 0.013153
vn -0.038807 0.999082 0.018154
vn 0.000000 1.000000 -0.000000
vn 0.000000 1.000000 -0.000000
vn -0.000000 1.000000 0.000000
vn -0.000000 1.000000 0.000000
vn 0.000000 1.000000 0.000000
vn 0.000000 1.000000 0.000000
vn 0.000000 1.000000 0.000000
vn 0.000000 1.000000 0.000000
vn -0.028402 0.999548 0.009886
vn -0.015422 0.999869 0.004847
vn 0.011072 0.999851 0.013251
vn 0.011072 0.999851 0.013253
vn 0.011071 0.999851 0.013252
vn 0.011071 0.999851 0.013252
vn 0.011072 0.999851 0.013252
vn 0.011072 0.999851 0.013252
vn -0.000000 1.000000 0.000000
vn -0.000000 1.000000 0.000000
vn 0.000000 1.000000 0.000000
vn 0.000000 1.000000 0.000000
vn 0.000000 1.000000 0.000000
vn 0.000000 1.000000 0.000000
vn 0.000000 1.000000 -0.000000
vn 0.000000 1.000000 0.000000
vn 0.000000 1.000000 -0.000000
vn 0.000000 1.000000 0.000000
vn 0.011071 0.999851 0.013251
vn 0.011072 0.999851 0.013251
vn 0.011072 0.999851 0.013251
vn 0.011072 0.999851 0.013251
vn -0.000000 1.000000 -0.000000
vn -0.000000 1.000000 -0.000000
vn -0.000000 1.000000 -0.000000
vn -0.000000 1.000000 -0.000000
vn -0.000000 1.000000 0.000000
vn -0.000000 1.000000 -0.000000
vn 0.000000 1.000000 0.000000
vn 0.000000 1.000000 0.000000
vn 0.000000 1.000000 0.000000
vn 0.000000 1.000000 0.000000
vn 0.000000 1.000000 0.000000
vn 0.000000 1.000000 0.000000
vn 0.000000 1.000000 0.000000
vn 0.000000 1.000000 -0.000000
vn 0.000000 1.000000 0.000000
vn 0.010874 0.999812 0.016075
vn 0.011072 0.999851 0.013250
vn 0.011071 0.999851 0.013251
vn 0.011072 0.999851 0.013252
vn 0.011072 0.999851 0.013252
vn -0.000000 1.000000 -0.000000
vn -0.000000 1.000000 -0.000000
vn -0.000000 1.000000 -0.000000
vn 0.000000 1.000000 -0.000000
vn 0.000000 1.000000 -0.000000
vn 0.000000 1.000000 -0.000000
vn 0.014447 0.999882 0.005241
vn 0.038959 0.999095 0.017069
vn 0.000000 1.000000 0.000000
vn 0.000000 1.000000 -0.000000
vn -0.000000 1.000000 0.000000
vn -0.000000 1.000000 -0.000000
vn -0.000000 1.000000 -0.000000
vn 0.000000 1.000000 -0.000000
vn 0.000000 1.000000 -0.000000
vn 0.000000 1.000000 -0.000000
vn 0.000000 1.000000 0.000000
vn 0.035923 0.999338 -0.005798
vn 0.018835 0.999815 0.003896
vn 0.003699 0.999992 0.001767
vn -0.000000 1.000000 0.000000
vn 0.000000 1.000000 0.000000
vn 0.000000 1.000000 0.000000
vn 0.000000 1.000000 0.000000
vn 0.000000 1.000000 0.000000
vn 0.000000 1.000000 0.000000
vn 0.000000 0.031093 0.999516
vn -0.001530 0.031672 0.999497
vn -0.001530 0.031672 0.999497
vn -0.003060 0.032251 0.999475
vn -0.878329 0.478058 0.000000
vn -0.878422 0.477882 0.001589
vn -0.878422 0.477882 0.001589
vn -0.878514 0.477706 0.003178
vn 0.000000 0.030610 0.999531
vn -0.001560 0.028838 0.999583
vn -0.001560 0.028838 0.999583
vn -0.003119 0.027066 0.999629
vn 0.999964 0.008488 0.000000
vn 0.999966 0.007869 0.002375
vn 0.999966 0.007869 0.002375
vn 0.999962 0.007250 0.004750
vn 0.000000 -0.026828 -0.999640
vn 0.001662 -0.024951 -0.999687
vn 0.001662 -0.024951 -0.999687
vn 0.003324 -0.023073 -0.999728
vn 0.883487 -0.467414 0.031217
vn 0.884348 -0.465856 0.030125
vn 0.884348 -0.465856 0.030125
vn 0.885205 -0.464295 0.029033
vn -0.880857 0.472472 -0.029335
vn -0.881865 0.470662 -0.028131
vn -0.881865 0.470662 -0.028131
vn -0.882868 0.468850 -0.026926
vn 0.000000 0.023695 -0.999719
vn 0.001835 0.023012 -0.999734
vn 0.001835 0.023012 -0.999734
vn 0.003671 0.022329 -0.999744
vn -0.883641 0.468165 0.000000
vn -0.883547 0.468340 0.001519
vn -0.883547 0.468340 0.001519
vn -0.883451 0.468513 0.003038
vn 0.000000 -0.020602 0.999788
vn -0.001928 -0.022662 0.999741
vn -0.001928 -0.022662 0.999741
vn -0.003855 -0.024721 0.999687
vn 0.999979 -0.006409 0.000000
vn 0.999980 -0.005843 0.002231
vn 0.999980 -0.005843 0.002231
vn 0.999976 -0.005277 0.004461
vn 0.000000 0.024245 -0.999706
vn 0.001867 0.026228 -0.999654
vn 0.001867 0.026228 -0.999654
vn 0.003734 0.028210 -0.999595
vn -0.003569 -0.013213 0.999906
vn -0.003568 -0.013213 0.999906
vn -0.003568 -0.013213 0.999906
vn -0.003568 -0.013213 0.999906
vn -0.920250 0.391325 0.001888
vn -0.920251 0.391323 0.001888
vn -0.920251 0.391323 0.001888
vn -0.920253 0.391320 0.001888
vn -0.003568 -0.013213 0.999906
vn -0.003568 -0.013212 0.999906
vn -0.003568 -0.013212 0.999906
vn -0.003568 -0.013212 0.999906
vn 0.999941 -0.009917 0.004456
vn 0.999937 -0.010524 0.003938
vn 0.999937 -0.010524 0.003938
vn 0.999932 -0.011130 0.003421
vn -0.919689 0.391555 -0.029293
vn -0.919690 0.391550 -0.029293
vn -0.919690 0.391550 -0.029293
vn -0.919692 0.391546 -0.029293
vn 0.003569 0.013213 -0.999906
vn 0.003569 0.013213 -0.999906
vn 0.003569 0.013213 -0.999906
vn 0.003569 0.013213 -0.999906
vn -0.920251 0.391325 0.001887
vn -0.920251 0.391325 0.001886
vn -0.920251 0.391325 0.001886
vn -0.920251 0.391325 0.001886
vn 0.999915 -0.012296 0.004343
vn 0.999924 -0.011696 0.003882
vn 0.999924 -0.011696 0.003882
vn 0.999933 -0.011096 0.003422
vn 0.003568 0.013213 -0.999906
vn 0.003568 0.013213 -0.999906
vn 0.003568 0.013213 -0.999906
vn 0.003569 0.013213 -0.999906
vn 0.011072 0.999851 0.013252
vn 0.011072 0.999851 0.013252
vn 0.011072 0.999851 0.013252
vn 0.011072 0.999851 0.013252
vn 0.999170 -0.011581 0.039046
vn 0.999268 0.000352 0.038249
vn 0.999268 0.000352 0.038249
vn 0.999223 0.012285 0.037446
vn -0.011074 -0.999858 -0.012670
vn -0.011073 -0.999858 -0.012670
vn -0.011073 -0.999858 -0.012670
vn -0.011072 -0.999858 -0.012671
vn -0.000000 1.000000 -0.000000
vn 0.000000 1.000000 -0.000000
vn 0.000000 1.000000 -0.000000
vn 0.000000 1.000000 -0.000000
vn 0.000000 1.000000 0.000000
vn 0.000000 1.000000 0.000000
vn 0.000000 1.000000 0.000000
vn -0.000000 1.000000 0.000000
vn 0.190150 0.060647 -0.979880
vn 0.691118 0.064795 -0.719832
vn 0.253878 0.055977 -0.965615
vn 0.704933 0.074662 -0.705333
vn 0.988532 0.028236 -0.148351
vn 0.969226 0.051344 -0.240757
vn 0.031059 0.062532 -0.997560
vn 0.087091 0.056501 -0.994597
vn -0.007922 0.074610 -0.997181
vn -0.011163 0.066287 -0.997738
vn 0.000000 0.076507 -0.997069
vn 0.000000 0.076507 -0.997069
vn 0.000000 0.076507 -0.997069
vn 0.000000 0.076507 -0.997069
vn 0.000000 0.076507 -0.997069
vn 0.000000 0.076507 -0.997069
vn 0.000000 0.076507 -0.997069
vn 0.000000 0.076507 -0.997069
vn 0.000000 0.076507 -0.997069
vn 0.000000 0.076507 -0.997069
vn 0.999653 0.013042 -0.022878
vn 0.999673 0.017990 -0.018178
vn 0.999922 0.012240 -0.002691
vn 0.999917 0.012814 -0.001320
vn 0.999909 0.013507 0.000000
vn 0.999875 0.015624 -0.002257
vn 0.999909 0.013508 0.000000
vn 0.999909 0.013509 0.000000
vn 0.999801 0.019196 -0.005495
vn 0.999731 0.021840 -0.007760
vn 0.992738 0.030785 0.116287
vn 0.971249 0.044121 0.233940
vn 0.717923 0.057898 0.693711
vn 0.720199 0.062575 0.690940
vn 0.148388 0.054362 0.987434
vn 0.276267 0.046224 0.959969
vn -0.000184 0.076609 0.997061
vn 0.018547 0.062287 0.997886
vn 0.000000 0.076627 0.997060
vn 0.000000 0.076627 0.997060
vn 0.000000 0.076627 0.997060
vn 0.000000 0.076627 0.997060
vn -0.000000 0.076628 0.997060
vn 0.000000 0.076627 0.997060
vn 0.000000 0.076628 0.997060
vn 0.000000 0.076628 0.997060
vn 0.000000 0.076628 0.997060
vn 0.000000 0.076628 0.997060
vn 0.000000 0.076628 0.997060
vn 0.000000 0.076628 0.997060
vn 0.717910 0.509615 -0.474233
vn 0.578563 0.543323 -0.608330
vn 0.220294 0.548425 -0.806660
vn 0.252314 0.569253 -0.782489
vn 0.911671 0.398579 -0.099950
vn 0.890968 0.422617 -0.166044
vn 0.037372 0.530441 -0.846897
vn 0.038763 0.533918 -0.844647
vn -0.004172 0.527695 -0.849424
vn -0.002086 0.527456 -0.849580
vn 0.000000 0.527971 -0.849262
vn 0.000000 0.527971 -0.849262
vn 0.000000 0.527971 -0.849262
vn 0.000000 0.527972 -0.849262
vn 0.000000 0.527971 -0.849262
vn 0.000000 0.527971 -0.849262
vn 0.000000 0.527971 -0.849262
vn 0.000000 0.527971 -0.849262
vn 0.000000 0.527971 -0.849262
vn 0.000000 0.527971 -0.849262
vn 0.000000 0.527971 -0.849262
vn 0.000000 0.527972 -0.849262
vn 0.000000 0.527971 -0.849262
vn 0.000000 0.527971 -0.849262
vn 0.000000 0.527971 -0.849262
vn 0.000000 0.527971 -0.849262
vn 0.000000 0.527971 -0.849262
vn 0.000000 0.527971 -0.849262
vn 0.000000 0.527971 -0.849262
vn 0.000000 0.527971 -0.849262
vn 0.930661 0.365785 -0.008504
vn 0.930124 0.367177 -0.007074
vn 0.931340 0.364127 -0.004290
vn 0.931188 0.364532 -0.002145
vn 0.931308 0.364233 0.000000
vn 0.931308 0.364233 0.000000
vn 0.931308 0.364233 0.000000
vn 0.931308 0.364232 0.000000
vn 0.931128 0.364597 -0.008408
vn 0.931709 0.363171 -0.004993
vn 0.931475 0.363780 -0.004204
vn 0.932063 0.362289 -0.002190
vn 0.912698 0.395837 0.101467
vn 0.889870 0.420501 0.176944
vn 0.725677 0.503770 0.468625
vn 0.597313 0.537446 0.595289
vn 0.221137 0.548163 0.806608
vn 0.254112 0.562464 0.786805
vn 0.016982 0.529321 0.848251
vn 0.016982 0.531017 0.847191
vn 0.000000 0.527958 0.849270
vn 0.000000 0.527959 0.849270
vn 0.000000 0.527959 0.849270
vn 0.000000 0.527959 0.849270
vn 0.000000 0.527959 0.849270
vn 0.000000 0.527959 0.849270
vn 0.000001 0.527959 0.849270
vn 0.000000 0.527959 0.849270
vn 0.000000 0.527959 0.849270
vn 0.000000 0.527959 0.849270
vn 0.000000 0.527958 0.849270
vn 0.000000 0.527959 0.849270
vn 0.000000 0.527959 0.849270
vn 0.000000 0.527959 0.849270
vn 0.000000 0.527959 0.849270
vn 0.000000 0.527959 0.849270
vn 0.000000 0.527959 0.849270
vn 0.000000 0.527959 0.849270
vn 0.000000 0.527959 0.849270
vn 0.000000 0.527959 0.849270
vn 0.000000 0.527959 0.849270
vn 0.000000 0.527959 0.849270
vn 0.570318 0.249849 -0.782504
vn 0.298823 0.299476 -0.906101
vn 0.298823 0.299476 -0.906101
vn 0.000000 0.321715 -0.946836
vn 0.936938 0.258898 -0.234773
vn 0.952624 0.280230 -0.118231
vn 0.952624 0.280230 -0.118231
vn 0.954703 0.297560 0.000001
vn 0.000000 0.161072 -0.986943
vn 0.000000 0.161072 -0.986943
vn 0.000000 0.161072 -0.986943
vn 0.000000 0.161072 -0.986943
vn 0.000000 0.161072 -0.986943
vn 0.000000 0.161072 -0.986943
vn 0.000000 0.161072 -0.986943
vn 0.000000 0.161072 -0.986943
vn 0.000000 0.161072 -0.986943
vn 0.000000 0.161072 -0.986943
vn 0.000000 0.161072 -0.986943
vn 0.000000 0.161072 -0.986943
vn 0.000000 0.161072 -0.986943
vn 0.000000 0.161072 -0.986943
vn 0.000000 0.161072 -0.986943
vn 0.000000 0.161072 -0.986943
vn 0.000000 0.161072 -0.986943
vn 0.000000 0.161072 -0.986943
vn 0.000000 0.161072 -0.986943
vn 0.000000 0.161072 -0.986943
vn 0.000000 0.161072 -0.986943
vn 0.000000 0.161072 -0.986943
vn 0.000000 0.161072 -0.986943
vn 0.000000 0.161072 -0.986943
vn 0.000000 0.161072 -0.986943
vn 0.000000 0.161072 -0.986943
vn 0.000000 0.161072 -0.986943
vn 0.000000 0.161072 -0.986943
vn 0.970798 0.239897 0.000001
vn 0.970798 0.239897 0.000001
vn 0.970798 0.239897 0.000001
vn 0.970798 0.239897 0.000001
vn 0.970798 0.239897 -0.000001
vn 0.970798 0.239897 -0.000001
vn 0.970798 0.239897 -0.000001
vn 0.970798 0.239897 -0.000001
vn 0.970798 0.239897 0.000000
vn 0.970798 0.239897 0.000000
vn 0.970798 0.239897 0.000000
vn 0.970798 0.239897 0.000000
vn 0.970798 0.239898 0.000000
vn 0.970798 0.239898 0.000000
vn 0.970798 0.239898 0.000000
vn 0.970798 0.239897 0.000001
vn 0.970798 0.239897 0.000000
vn 0.970798 0.239897 0.000000
vn 0.970798 0.239897 0.000000
vn 0.970798 0.239897 0.000000
vn 0.936938 0.258898 0.234773
vn 0.952624 0.280230 0.118231
vn 0.952624 0.280230 0.118231
vn 0.954703 0.297560 -0.000001
vn 0.570318 0.249849 0.782504
vn 0.298823 0.299476 0.906101
vn 0.298823 0.299476 0.906101
vn 0.000000 0.321715 0.946836
vn 0.000000 0.161072 0.986943
vn 0.000000 0.161072 0.986943
vn 0.000000 0.161072 0.986943
vn 0.000000 0.161072 0.986943
vn 0.000000 0.161072 0.986943
vn 0.000000 0.161072 0.986943
vn 0.000000 0.161072 0.986943
vn 0.000000 0.161072 0.986943
vn 0.000000 0.161072 0.986943
vn 0.000000 0.161072 0.986943
vn 0.000000 0.161072 0.986943
vn 0.000000 0.161072 0.986943
vn 0.000000 0.161072 0.986943
vn 0.000000 0.161072 0.986943
vn 0.000000 0.161072 0.986943
vn 0.000000 0.161072 0.986943
vn 0.000000 0.161072 0.986943
vn 0.000000 0.161072 0.986943
vn 0.000000 0.161072 0.986943
vn 0.000000 0.161072 0.986943
vn 0.000000 0.161072 0.986943
vn 0.000000 0.161072 0.986943
vn 0.000000 0.161072 0.986943
vn 0.000000 0.161072 0.986943
vn 0.000000 0.161072 0.986943
vn 0.000000 0.161072 0.986943
vn 0.000000 0.161072 0.986943
vn 0.000000 0.161072 0.986943
vn 0.970798 0.239897 0.000000
vn 0.970798 0.239897 0.000000
vn 0.970798 0.239897 0.000000
vn 0.970798 0.239897 0.000000
vn 0.931308 0.364233 0.000000
vn 0.931308 0.364233 0.000000
vn 0.931308 0.364233 0.000000
vn 0.931308 0.364233 0.000000
vn 0.999915 0.013077 0.000323
vn 0.999909 0.013508 0.000000
vn -0.011549 0.999908 0.007153
vn 0.000000 1.000000 0.000000
vn 0.000000 1.000000 -0.000000
vn 0.000000 1.000000 -0.000000
vn -0.880675 0.472574 0.032955
vn -0.879259 0.475330 0.031076
vn -0.879259 0.475330 0.031076
vn -0.877831 0.478080 0.029197
vn -0.919917 0.390719 0.033025
vn -0.919916 0.390723 0.033025
vn -0.919916 0.390723 0.033025
vn -0.919914 0.390727 0.033025
vn 0.011071 0.999851 0.013252
vn 0.011071 0.999851 0.013252
vn 0.011072 0.999851 0.013252
vn 0.011072 0.999851 0.013251
vn 0.011072 0.999851 0.013251
vn 0.011072 0.999851 0.013251
vn 0.999415 0.016626 -0.029885
vn 0.999510 0.002993 -0.031146
vn 0.999510 0.002993 -0.031146
vn 0.999418 -0.010642 -0.032401
vn -0.011072 -0.999859 -0.012650
vn -0.011073 -0.999859 -0.012650
vn -0.011073 -0.999859 -0.012650
vn -0.011074 -0.999859 -0.012651
vn 0.880797 -0.472477 -0.031028
vn 0.882062 -0.469990 -0.032814
vn 0.882062 -0.469990 -0.032814
vn 0.883317 -0.467498 -0.034599
vn -0.000000 1.000000 0.000000
vn -0.000000 1.000000 0.000000
vn -0.000000 1.000000 0.000000
vn -0.000000 1.000000 0.000000
vn 0.000000 1.000000 0.000000
vn 0.000000 1.000000 0.000000
vn 0.000000 1.000000 0.000000
vn 0.000000 1.000000 0.000000
vn -0.879112 0.475739 -0.028900
vn -0.878953 0.476021 -0.029083
vn -0.878953 0.476021 -0.029083
vn -0.878794 0.476302 -0.029266
vn -0.878795 0.476303 0.029229
vn -0.878953 0.476022 0.029046
vn -0.878953 0.476022 0.029046
vn -0.879111 0.475742 0.028863
vn -0.879478 0.475940 -0.000000
vn -0.879478 0.475940 -0.000000
vn -0.879478 0.475940 -0.000000
vn -0.879478 0.475940 0.000000
vn 0.000000 0.027283 0.999628
vn 0.000000 0.027283 0.999628
vn 0.000000 0.027283 0.999628
vn 0.000000 0.027283 0.999628
vn 0.000000 0.027283 0.999628
vn 0.000000 0.027283 0.999628
vn 0.000000 0.027283 0.999628
vn 0.000000 0.027283 0.999628
vn 1.000000 0.000000 0.000000
vn 1.000000 0.000000 0.000000
vn 1.000000 0.000000 0.000000
vn 1.000000 0.000000 0.000000
vn -0.000000 -0.023622 -0.999721
vn -0.000000 -0.023622 -0.999721
vn -0.000000 -0.023622 -0.999721
vn 0.000000 -0.023622 -0.999721
vn 0.882104 -0.470055 -0.030674
vn 0.881947 -0.470338 -0.030868
vn 0.881947 -0.470338 -0.030868
vn 0.881789 -0.470620 -0.031062
vn 0.882103 -0.470050 0.030766
vn 0.881945 -0.470335 0.030961
vn 0.881945 -0.470335 0.030961
vn 0.881785 -0.470621 0.031157
vn 0.000000 -0.023566 0.999722
vn 0.000000 -0.023566 0.999722
vn 0.000000 -0.023566 0.999722
vn 0.000000 -0.023566 0.999722
vn 1.000000 0.000000 0.000000
vn 1.000000 -0.000000 0.000000
vn 1.000000 -0.000000 0.000000
vn 1.000000 -0.000001 0.000000
vn 0.000000 0.027283 -0.999628
vn 0.000000 0.027283 -0.999628
vn 0.000000 0.027283 -0.999628
vn 0.000000 0.027283 -0.999628
vn 0.000000 0.027283 -0.999628
vn 0.000000 0.027283 -0.999628
vn 0.000000 0.027283 -0.999628
vn 0.000000 0.027283 -0.999628
vn -0.879478 0.475939 0.000000
vn -0.879478 0.475939 0.000000
vn -0.879478 0.475939 0.000000
vn -0.879478 0.475940 0.000000
vn 0.000515 0.999998 -0.002112
vn 0.005267 0.999984 0.002279
vn -0.001973 0.999997 -0.001648
vn -0.006031 0.999981 0.001110
vn 0.009406 0.999881 0.012264
vn 0.009444 0.999939 0.005668
vn 0.004639 0.999972 0.005807
vn 0.000000 1.000000 0.000000
vn 0.000000 1.000000 0.000000
vn 0.000000 1.000000 0.000000
vn 0.000000 1.000000 0.000000
vn 0.000000 1.000000 0.000000
vn 0.000000 1.000000 0.000000
vn 0.000000 1.000000 0.000000
vn 0.000000 1.000000 0.000000
vn 0.000000 1.000000 0.000000
vn 0.000000 1.000000 0.000000
vn 0.000000 1.000000 0.000000
vn -0.000009 1.000000 -0.000006
vn -0.000006 1.000000 -0.000002
vn 0.011510 0.999934 0.000508
vn 0.000000 1.000000 -0.000000
vn 0.000000 1.000000 0.000000
vn 0.000000 1.000000 0.000000
vn 0.000000 1.000000 0.000000
vn 0.000000 1.000000 0.000000
vn 0.000000 1.000000 0.000000
vn 0.000000 1.000000 0.000000
vn -0.000004 1.000000 -0.000002
vn -0.000002 1.000000 -0.000000
vn 0.000000 1.000000 0.000000
vn 0.007543 0.999954 0.005930
vn 0.003693 0.999993 0.000034
vn 0.002380 0.999988 0.004255
vn 0.007386 0.999973 0.000069
vn 0.007398 0.999973 0.000000
vn -0.000065 1.000000 0.000586
vn -0.000132 1.000000 0.000146
vn 0.000000 1.000000 0.000000
vn 0.000000 1.000000 0.000000
vn 0.000000 1.000000 0.000000
vn 0.000000 1.000000 0.000000
vn 0.000000 1.000000 0.000000
vn -0.000000 1.000000 -0.000000
vn -0.000000 1.000000 0.000000
vn -0.000001 1.000000 0.000000
vn 0.030444 0.999459 0.012464
vn 0.009927 0.999920 0.007872
vn 0.014891 0.999819 0.011806
vn -0.001338 0.999997 0.002169
vn 0.008250 0.999938 0.007442
vn 0.004130 0.999986 0.003324
vn 0.001866 0.999997 0.001463
vn -0.000046 1.000000 -0.000397
vn -0.000159 1.000000 -0.000159
vn -0.000200 1.000000 0.000000
vn 0.000000 1.000000 0.000000
vn 0.000000 1.000000 0.000000
vn 0.000000 1.000000 0.000000
vn 0.000000 1.000000 0.000000
vn 0.000000 1.000000 0.000000
vn 0.000000 1.000000 0.000000
vn 0.000000 1.000000 0.000000
vn -0.000000 1.000000 -0.000000
vn -0.000457 1.000000 0.000738
vn 0.000001 1.000000 -0.000001
vn 0.000000 1.000000 0.000002
vn -0.001503 0.999999 -0.000088
vn -0.003012 0.999995 -0.000152
vn -0.003017 0.999995 -0.000125
vn -0.000000 1.000000 0.000000
vn -0.000000 1.000000 0.000000
vn 0.000000 1.000000 -0.000000
vn 0.000000 1.000000 -0.000000
vn -0.000000 1.000000 -0.000000
vn -0.000000 1.000000 -0.000000
vn -0.001556 0.999998 0.001490
vn 0.007319 0.999973 -0.000146
vn 0.007751 0.999969 -0.001048
vn 0.011587 0.999933 -0.000229
vn -0.000000 1.000000 -0.000000
vn -0.000000 1.000000 -0.000000
vn 0.000000 1.000000 -0.000000
vn -0.000000 1.000000 -0.000000
vn 0.000000 1.000000 -0.000000
vn -0.000000 1.000000 -0.000000
vn 0.000000 1.000000 0.000000
vn -0.002295 0.999997 0.000245
vn 0.004032 0.999992 0.000393
vn 0.012015 0.999925 -0.002345
vn 0.001252 0.999998 -0.001567
vn -0.000000 1.000000 0.000000
vn -0.000000 1.000000 0.000000
vn 0.000000 1.000000 0.000000
vn 0.000000 1.000000 0.000000
vn 0.000000 1.000000 0.000000
vn -0.018592 0.018383 0.999658
vn -0.018592 0.018383 0.999658
vn -0.018592 0.018383 0.999658
vn -0.018592 0.018383 0.999658
vn 0.900051 0.435464 0.016740
vn 0.900051 0.435464 0.016740
vn 0.900051 0.435464 0.016740
vn 0.900051 0.435464 0.016740
vn 0.001088 0.027730 0.999615
vn 0.001313 0.027507 0.999621
vn 0.001313 0.027507 0.999621
vn 0.001538 0.027283 0.999627
vn -1.000000 -0.000002 0.000000
vn -1.000000 -0.000001 0.000000
vn -1.000000 -0.000001 0.000000
vn -1.000000 0.000000 0.000000
vn -0.001501 -0.023622 -0.999720
vn -0.001295 -0.023828 -0.999715
vn -0.001295 -0.023828 -0.999715
vn -0.001090 -0.024034 -0.999711
vn -0.933843 -0.351652 -0.065399
vn -0.903852 -0.427505 -0.017094
vn -0.903852 -0.427505 -0.017094
vn -0.865737 -0.499515 0.031364
vn 0.903820 0.427120 -0.026047
vn 0.904020 0.426711 -0.025799
vn 0.904020 0.426711 -0.025799
vn 0.904220 0.426302 -0.025550
vn 0.059527 0.065120 -0.996100
vn 0.059526 0.065120 -0.996100
vn 0.059526 0.065120 -0.996100
vn 0.059525 0.065120 -0.996100
vn 0.903883 0.424355 0.054019
vn 0.903882 0.424357 0.054017
vn 0.903882 0.424357 0.054017
vn 0.903881 0.424360 0.054015
vn -0.059788 0.004604 0.998201
vn -0.032272 -0.021191 0.999255
vn -0.032272 -0.021191 0.999255
vn -0.004710 -0.046956 0.998886
vn -0.998542 -0.011239 -0.052788
vn -0.998537 -0.011262 -0.052891
vn -0.998537 -0.011262 -0.052891
vn -0.998531 -0.011285 -0.052994
vn 0.004797 0.049458 -0.998765
vn 0.008215 0.046246 -0.998896
vn 0.008215 0.046246 -0.998896
vn 0.011633 0.043033 -0.999006
vn -0.018595 -0.000000 0.999827
vn -0.018595 -0.000000 0.999827
vn -0.018595 -0.000000 0.999827
vn -0.018595 -0.000000 0.999827
vn 0.924370 0.381110 0.017191
vn 0.924371 0.381107 0.017192
vn 0.924371 0.381107 0.017192
vn 0.924373 0.381103 0.017192
vn 0.001406 0.008245 0.999965
vn 0.002004 0.004122 0.999990
vn 0.002004 0.004122 0.999990
vn 0.002602 0.000000 0.999997
vn -1.000000 0.000000 0.000000
vn -1.000000 -0.000004 0.000000
vn -1.000000 -0.000004 0.000000
vn -1.000000 -0.000007 0.000000
vn 0.924622 0.379721 -0.029772
vn 0.929974 0.366478 -0.029009
vn 0.929974 0.366478 -0.029009
vn 0.935136 0.353161 -0.028241
vn 0.059653 0.000000 -0.998219
vn 0.059652 0.000001 -0.998219
vn 0.059652 0.000001 -0.998219
vn 0.059652 0.000001 -0.998219
vn 0.922892 0.381090 0.055151
vn 0.922887 0.381102 0.055151
vn 0.922887 0.381102 0.055151
vn 0.922882 0.381114 0.055151
vn -0.998500 0.014530 -0.052786
vn -0.998872 0.007265 -0.046935
vn -0.998872 0.007265 -0.046935
vn -0.999156 -0.000000 -0.041080
vn 0.001524 0.000001 -0.999999
vn 0.003265 -0.011262 -0.999931
vn 0.003265 -0.011262 -0.999931
vn 0.005005 -0.022524 -0.999734
vn -0.016084 0.999802 0.011722
vn -0.009562 0.999849 0.014491
vn -0.009562 0.999849 0.014491
vn -0.003040 0.999847 0.017259
vn -0.995344 0.086254 0.043030
vn -0.998000 0.043828 0.045564
vn -0.998000 0.043828 0.045564
vn -0.998846 0.001322 0.048015
vn 0.002937 -0.999829 -0.018234
vn 0.008126 -0.999843 -0.015774
vn 0.008126 -0.999843 -0.015774
vn 0.013314 -0.999823 -0.013314
vn 0.011644 0.999930 0.001890
vn 0.012590 0.999910 -0.004679
vn 0.009336 0.999954 -0.002305
vn 0.012530 0.999908 0.005201
vn 0.005803 0.999972 0.004822
vn 0.009329 0.999953 0.002509
vn -0.000701 1.000000 0.000006
vn 0.011902 0.999928 -0.001858
vn -0.332717 0.045633 -0.941922
vn -0.681883 0.013003 -0.731346
vn -0.317675 0.046222 -0.947072
vn -0.815951 0.009833 -0.578038
vn -0.950430 0.010946 -0.310747
vn -0.979271 0.022392 -0.201312
vn -0.021267 0.074963 -0.996960
vn -0.053171 0.067234 -0.996320
vn 0.000933 0.076283 -0.997086
vn 0.000933 0.074916 -0.997189
vn -0.000000 0.076507 -0.997069
vn -0.000000 0.076507 -0.997069
vn 0.000000 0.076507 -0.997069
vn -0.000000 0.076507 -0.997069
vn 0.000000 0.076507 -0.997069
vn 0.000000 0.076507 -0.997069
vn 0.000000 0.076507 -0.997069
vn 0.000000 0.076507 -0.997069
vn 0.000000 0.076507 -0.997069
vn 0.000000 0.076507 -0.997069
vn -0.998377 0.017955 -0.054046
vn -0.998483 0.017581 -0.052186
vn -0.999859 0.016611 0.002313
vn -0.999821 0.018915 0.000798
vn -0.999790 0.020476 0.000000
vn -0.999819 0.019026 -0.000787
vn -0.999811 0.019405 -0.000813
vn -0.999825 0.018707 -0.000640
vn -0.999377 0.018148 0.030260
vn -0.997852 0.019217 0.062623
vn -0.978780 0.017022 0.204208
vn -0.951497 0.011312 0.307451
vn -0.812013 -0.003950 0.583626
vn -0.662997 -0.005530 0.748601
vn -0.341847 0.012425 0.939673
vn -0.319699 0.011644 0.947448
vn -0.094911 0.047018 0.994375
vn -0.112781 0.048656 0.992428
vn -0.002693 0.066436 0.997787
vn 0.001860 0.076182 0.997092
vn -0.000000 0.076627 0.997060
vn -0.000000 0.076627 0.997060
vn -0.000000 0.076627 0.997060
vn 0.000000 0.076628 0.997060
vn 0.000000 0.076628 0.997060
vn 0.000000 0.076628 0.997060
vn 0.000000 0.076628 0.997060
vn 0.000000 0.076628 0.997060
vn 0.000000 0.076628 0.997060
vn 0.000000 0.076628 0.997060
vn -0.252483 0.568200 -0.783199
vn -0.628722 0.551854 -0.547874
vn -0.264529 0.563127 -0.782888
vn -0.728170 0.521479 -0.444780
vn -0.868696 0.452374 -0.201804
vn -0.890237 0.424785 -0.164425
vn -0.026554 0.530607 -0.847202
vn -0.026554 0.533563 -0.845343
vn 0.000000 0.527971 -0.849262
vn 0.000000 0.527971 -0.849262
vn -0.000000 0.527971 -0.849262
vn -0.000000 0.527971 -0.849262
vn -0.000000 0.527971 -0.849262
vn 0.000000 0.527972 -0.849262
vn 0.000000 0.527971 -0.849262
vn 0.000000 0.527971 -0.849262
vn 0.000000 0.527971 -0.849262
vn 0.000000 0.527971 -0.849262
vn 0.000000 0.527971 -0.849262
vn 0.000000 0.527971 -0.849262
vn 0.000000 0.527971 -0.849262
vn 0.000000 0.527972 -0.849262
vn 0.000000 0.527971 -0.849262
vn 0.000000 0.527971 -0.849262
vn 0.000000 0.527971 -0.849262
vn 0.000000 0.527971 -0.849262
vn 0.000000 0.527971 -0.849262
vn 0.000000 0.527971 -0.849262
vn 0.000000 0.527971 -0.849262
vn 0.000000 0.527971 -0.849262
vn -0.923790 0.381332 -0.034607
vn -0.925637 0.376846 -0.034403
vn -0.928032 0.372501 0.000306
vn -0.928006 0.372566 0.000612
vn -0.928012 0.372552 0.000000
vn -0.928012 0.372551 0.000000
vn -0.928012 0.372551 0.000000
vn -0.928012 0.372551 0.000000
vn -0.928005 0.372567 -0.000681
vn -0.928032 0.372501 -0.000340
vn -0.925932 0.376638 0.028178
vn -0.924296 0.380618 0.028405
vn -0.892631 0.423764 0.153733
vn -0.870793 0.450252 0.197467
vn -0.722143 0.525667 0.449648
vn -0.616642 0.559148 0.554172
vn -0.277228 0.566837 0.775784
vn -0.249887 0.577775 0.777003
vn -0.059586 0.538971 0.840214
vn -0.063445 0.533699 0.843291
vn -0.005787 0.529381 0.848364
vn -0.011575 0.528676 0.848745
vn 0.000000 0.527959 0.849270
vn -0.000000 0.527959 0.849270
vn -0.000000 0.527959 0.849270
vn -0.000000 0.527959 0.849270
vn 0.000000 0.527959 0.849270
vn -0.000000 0.527959 0.849270
vn -0.000000 0.527959 0.849270
vn -0.000001 0.527959 0.849270
vn 0.000000 0.527959 0.849270
vn 0.000000 0.527959 0.849270
vn 0.000000 0.527959 0.849270
vn 0.000000 0.527958 0.849270
vn 0.000000 0.527959 0.849270
vn 0.000000 0.527959 0.849270
vn 0.000000 0.527959 0.849270
vn 0.000000 0.527959 0.849270
vn 0.000000 0.527959 0.849270
vn 0.000000 0.527959 0.849270
vn 0.000000 0.527959 0.849270
vn 0.000000 0.527959 0.849270
vn -0.570318 0.249849 -0.782504
vn -0.298823 0.299476 -0.906101
vn -0.298823 0.299476 -0.906101
vn 0.000000 0.321715 -0.946836
vn -0.954703 0.297560 0.000001
vn -0.952624 0.280230 -0.118231
vn -0.952624 0.280230 -0.118231
vn -0.936938 0.258898 -0.234773
vn 0.000000 0.161072 -0.986943
vn 0.000000 0.161072 -0.986943
vn 0.000000 0.161072 -0.986943
vn 0.000000 0.161072 -0.986943
vn 0.000000 0.161072 -0.986943
vn 0.000000 0.161072 -0.986943
vn 0.000000 0.161072 -0.986943
vn 0.000000 0.161072 -0.986943
vn 0.000000 0.161072 -0.986943
vn 0.000000 0.161072 -0.986943
vn 0.000000 0.161072 -0.986943
vn 0.000000 0.161072 -0.986943
vn 0.000000 0.161072 -0.986943
vn 0.000000 0.161072 -0.986943
vn 0.000000 0.161072 -0.986943
vn 0.000000 0.161072 -0.986943
vn 0.000000 0.161072 -0.986943
vn 0.000000 0.161072 -0.986943
vn 0.000000 0.161072 -0.986943
vn 0.000000 0.161072 -0.986943
vn 0.000000 0.161072 -0.986943
vn 0.000000 0.161072 -0.986943
vn 0.000000 0.161072 -0.986943
vn 0.000000 0.161072 -0.986943
vn 0.000000 0.161072 -0.986943
vn 0.000000 0.161072 -0.986943
vn 0.000000 0.161072 -0.986943
vn 0.000000 0.161072 -0.986943
vn -0.970798 0.239897 0.000001
vn -0.970798 0.239897 0.000001
vn -0.970798 0.239897 0.000001
vn -0.970798 0.239897 0.000001
vn -0.970798 0.239897 -0.000001
vn -0.970798 0.239897 -0.000001
vn -0.970798 0.239897 -0.000001
vn -0.970798 0.239897 -0.000001
vn -0.970798 0.239897 0.000000
vn -0.970798 0.239897 0.000000
vn -0.970798 0.239897 0.000000
vn -0.970798 0.239897 0.000000
vn -0.970798 0.239898 0.000000
vn -0.970798 0.239898 0.000000
vn -0.970798 0.239898 0.000000
vn -0.970798 0.239898 0.000001
vn -0.970798 0.239897 0.000000
vn -0.970798 0.239897 0.000000
vn -0.970798 0.239897 0.000000
vn -0.970798 0.239897 0.000000
vn -0.936938 0.258898 0.234773
vn -0.952624 0.280230 0.118231
vn -0.952624 0.280230 0.118231
vn -0.954703 0.297560 -0.000001
vn 0.000000 0.321715 0.946836
vn -0.298823 0.299476 0.906101
vn -0.298823 0.299476 0.906101
vn -0.570318 0.249849 0.782504
vn 0.000000 0.161072 0.986943
vn 0.000000 0.161072 0.986943
vn 0.000000 0.161072 0.986943
vn 0.000000 0.161072 0.986943
vn 0.000000 0.161072 0.986943
vn 0.000000 0.161072 0.986943
vn 0.000000 0.161072 0.986943
vn 0.000000 0.161072 0.986943
vn 0.000000 0.161072 0.986943
vn 0.000000 0.161072 0.986943
vn 0.000000 0.161072 0.986943
vn 0.000000 0.161072 0.986943
vn 0.000000 0.161072 0.986943
vn 0.000000 0.161072 0.986943
vn 0.000000 0.161072 0.986943
vn 0.000000 0.161072 0.986943
vn 0.000000 0.161072 0.986943
vn 0.000000 0.161072 0.986943
vn 0.000000 0.161072 0.986943
vn 0.000000 0.161072 0.986943
vn 0.000000 0.161072 0.986943
vn 0.000000 0.161072 0.986943
vn 0.000000 0.161072 0.986943
vn 0.000000 0.161072 0.986943
vn 0.000000 0.161072 0.986943
vn 0.000000 0.161072 0.986943
vn 0.000000 0.161072 0.986943
vn 0.000000 0.161072 0.986943
vn -0.970798 0.239897 0.000000
vn -0.970798 0.239897 0.000000
vn -0.970798 0.239897 0.000000
vn -0.970798 0.239897 0.000000
vn -0.928012 0.372551 0.000000
vn -0.928012 0.372552 0.000000
vn -0.928012 0.372552 0.000000
vn -0.928011 0.372552 0.000000
vn -0.999813 0.019334 0.000867
vn -0.999790 0.020476 0.000000
vn -0.000001 1.000000 -0.000001
vn 0.000000 1.000000 -0.000000
vn 0.005798 0.999972 -0.004796
vn -0.000701 1.000000 0.000007
vn 0.899661 0.435596 0.029450
vn 0.902073 0.430774 0.026407
vn 0.902073 0.430774 0.026407
vn 0.904451 0.425937 0.023362
vn 0.923988 0.381072 0.032092
vn 0.929778 0.366821 0.030894
vn 0.929778 0.366821 0.030894
vn 0.935347 0.352483 0.029688
vn 0.030402 0.999476 0.011088
vn 0.015085 0.999816 0.011859
vn -0.016052 0.999798 0.012140
vn -0.004338 0.999969 0.006638
vn -0.004338 0.999969 0.006638
vn 0.007376 0.999972 0.001134
vn -0.998847 0.028718 -0.038473
vn -0.999102 0.015024 -0.039617
vn -0.999102 0.015024 -0.039617
vn -0.999168 0.001327 -0.040753
vn -0.006916 -0.999975 -0.001184
vn 0.003247 -0.999973 -0.006612
vn 0.003247 -0.999973 -0.006612
vn 0.013409 -0.999838 -0.012039
vn -0.903271 -0.428675 0.018422
vn -0.920305 -0.391153 -0.006154
vn -0.920305 -0.391153 -0.006154
vn -0.935221 -0.352731 -0.030716
vn 0.007518 0.999943 -0.007542
vn 0.001680 0.999998 -0.001446
vn 0.003757 0.999987 -0.003332
vn -0.000200 1.000000 0.000000
vn 0.000000 1.000000 0.000000
vn 0.000000 1.000000 0.000000
vn 0.000000 1.000000 0.000000
vn 0.000000 1.000000 0.000000
vn 0.894217 0.446949 -0.024765
vn 0.893608 0.448124 -0.025503
vn 0.893608 0.448124 -0.025503
vn 0.892996 0.449298 -0.026241
vn 0.879128 0.476050 0.022592
vn 0.886450 0.462611 0.014040
vn 0.886450 0.462611 0.014040
vn 0.893500 0.449030 0.005485
vn 0.879326 0.475940 0.016355
vn 0.879326 0.475939 0.016353
vn 0.879326 0.475939 0.016353
vn 0.879327 0.475938 0.016350
vn -0.018589 0.027283 0.999455
vn -0.018589 0.027283 0.999455
vn -0.018589 0.027283 0.999455
vn -0.018588 0.027283 0.999455
vn -0.004173 0.034953 0.999380
vn -0.001543 0.031118 0.999515
vn -0.001543 0.031118 0.999515
vn 0.001088 0.027283 0.999627
vn -1.000000 0.000000 0.000000
vn -1.000000 0.000000 0.000000
vn -1.000000 0.000000 0.000000
vn -1.000000 0.000000 0.000000
vn -0.001090 -0.023622 -0.999720
vn 0.001649 -0.027633 -0.999617
vn 0.001649 -0.027633 -0.999617
vn 0.004387 -0.031644 -0.999490
vn -0.882623 -0.470054 -0.005147
vn -0.873885 -0.486093 0.006248
vn -0.873885 -0.486093 0.006248
vn -0.864742 -0.501907 0.017640
vn -0.863239 -0.500228 -0.067747
vn -0.901034 -0.433467 -0.015650
vn -0.901034 -0.433467 -0.015650
vn -0.931080 -0.362978 0.036581
vn -0.012263 -0.089111 0.995946
vn -0.035374 -0.056381 0.997783
vn -0.035374 -0.056381 0.997783
vn -0.058428 -0.023560 0.998014
vn -0.998595 0.000324 -0.052997
vn -0.998595 0.000324 -0.052995
vn -0.998595 0.000324 -0.052995
vn -0.998595 0.000324 -0.052993
vn 0.012018 0.027271 -0.999556
vn 0.011956 0.027357 -0.999554
vn 0.011956 0.027357 -0.999554
vn 0.011895 0.027443 -0.999553
vn 0.059575 0.050819 -0.996930
vn 0.059574 0.050819 -0.996930
vn 0.059574 0.050819 -0.996930
vn 0.059574 0.050819 -0.996930
vn 0.893806 0.445262 0.053412
vn 0.893805 0.445264 0.053415
vn 0.893805 0.445264 0.053415
vn 0.893804 0.445265 0.053417
f 2/2/1 11/3/2 1/1/3
f 1/1/3 11/3/2 10/4/4
f 3/5/5 12/6/6 2/2/1
f 2/2/1 12/6/6 11/3/2
f 3/5/5 4/7/7 12/6/6
f 12/6/6 4/7/7 13/8/8
f 4/7/7 5/9/9 13/8/8
f 13/8/8 5/9/9 14/10/10
f 5/9/9 6/11/11 14/10/10
f 14/10/10 6/11/11 15/12/12
f 6/11/11 7/13/13 15/12/12
f 15/12/12 7/13/13 16/14/14
f 7/13/13 8/15/15 16/14/14
f 16/14/14 8/15/15 17/16/16
f 8/15/15 9/17/17 17/16/16
f 17/16/16 9/17/17 18/18/18
f 11/3/2 97/113/19 10/4/4
f 10/4/4 97/113/19 19/20/20
f 11/3/2 12/6/6 20/19/21
f 20/19/21 12/6/6 21/21/22
f 12/6/6 13/8/8 21/21/22
f 21/21/22 13/8/8 22/22/23
f 14/10/10 23/23/24 13/8/8
f 13/8/8 23/23/24 22/22/23
f 15/12/12 24/24/25 14/10/10
f 14/10/10 24/24/25 23/23/24
f 15/12/12 16/14/14 24/24/25
f 24/24/25 16/14/14 25/25/26
f 16/14/14 17/16/16 25/25/26
f 25/25/26 17/16/16 26/26/27
f 17/16/16 18/18/18 26/26/27
f 26/26/27 18/18/18 27/27/28
f 19/20/20 97/113/19 28/29/29
f 28/29/29 97/113/19 98/114/30
f 85/89/31 86/90/32 88/91/33
f 88/91/33 86/90/32 87/30/34
f 86/90/32 89/92/35 87/94/34
f 87/94/34 89/92/35 90/93/36
f 23/23/24 32/32/37 22/22/23
f 22/22/23 32/32/37 31/31/38
f 24/24/25 33/33/39 23/23/24
f 23/23/24 33/33/39 32/32/37
f 24/24/25 25/25/26 33/33/39
f 33/33/39 25/25/26 34/34/40
f 25/25/26 26/26/27 34/34/40
f 34/34/40 26/26/27 35/35/41
f 26/26/27 27/27/28 35/35/41
f 35/35/41 27/27/28 36/36/42
f 177/218/43 99/115/44 176/217/45
f 176/217/45 99/115/44 37/40/46
f 180/223/47 181/224/48 92/96/49
f 92/96/49 181/224/48 91/95/50
f 185/233/51 186/234/52 39/41/53
f 39/41/53 186/234/52 40/42/54
f 187/235/55 41/43/56 186/234/52
f 186/234/52 41/43/56 40/42/54
f 188/236/57 42/44/58 187/235/55
f 187/235/55 42/44/58 41/43/56
f 188/236/57 189/237/59 42/44/58
f 42/44/58 189/237/59 43/45/60
f 189/237/59 190/238/61 43/45/60
f 43/45/60 190/238/61 44/46/62
f 190/238/61 191/239/63 44/46/62
f 44/46/62 191/239/63 45/47/64
f 99/115/44 100/116/65 37/40/46
f 37/40/46 100/116/65 46/49/66
f 92/96/49 91/95/50 94/98/67
f 94/98/67 91/95/50 93/97/68
f 91/95/50 95/99/69 93/97/68
f 93/97/68 95/99/69 96/100/70
f 40/42/54 41/43/56 49/51/71
f 49/51/71 41/43/56 50/52/72
f 41/43/56 42/44/58 50/52/72
f 50/52/72 42/44/58 51/53/73
f 42/44/58 43/45/60 51/53/73
f 51/53/73 43/45/60 52/54/74
f 43/45/60 44/46/62 52/54/74
f 52/54/74 44/46/62 53/55/75
f 44/46/62 45/47/64 53/55/75
f 53/55/75 45/47/64 54/56/76
f 100/116/65 56/57/77 46/49/66
f 46/49/66 56/57/77 55/58/78
f 48/50/79 57/59/80 47/48/81
f 47/48/81 57/59/80 56/57/77
f 49/51/71 58/60/82 48/50/79
f 48/50/79 58/60/82 57/59/80
f 49/51/71 50/52/72 58/60/82
f 58/60/82 50/52/72 59/61/83
f 50/52/72 51/53/73 59/61/83
f 59/61/83 51/53/73 60/62/84
f 51/53/73 52/54/74 60/62/84
f 60/62/84 52/54/74 61/63/85
f 52/54/74 53/55/75 61/63/85
f 61/63/85 53/55/75 62/64/86
f 53/55/75 54/56/76 62/64/86
f 62/64/86 54/56/76 63/65/87
f 55/58/78 56/57/77 64/67/88
f 64/67/88 56/57/77 65/66/89
f 57/59/80 66/68/90 56/57/77
f 56/57/77 66/68/90 65/66/89
f 58/60/82 67/69/91 57/59/80
f 57/59/80 67/69/91 66/68/90
f 59/61/83 68/70/92 58/60/82
f 58/60/82 68/70/92 67/69/91
f 59/61/83 60/62/84 68/70/92
f 68/70/92 60/62/84 69/71/93
f 60/62/84 61/63/85 69/71/93
f 69/71/93 61/63/85 70/72/94
f 61/63/85 62/64/86 70/72/94
f 70/72/94 62/64/86 71/73/95
f 62/64/86 63/65/87 71/73/95
f 71/73/95 63/65/87 72/74/96
f 195/280/97 196/281/98 73/75/99
f 73/75/99 196/281/98 74/76/100
f 195/280/101 73/75/102 194/279/103
f 194/279/103 73/75/102 76/77/104
f 196/281/105 197/282/106 74/76/107
f 74/76/107 197/282/106 77/78/108
f 197/282/109 198/283/110 77/78/111
f 77/78/111 198/283/110 78/79/112
f 199/284/113 75/80/114 198/283/115
f 198/283/115 75/80/114 78/79/116
f 200/286/117 201/287/118 184/231/119
f 184/231/119 201/287/118 79/82/120
f 193/277/121 179/221/122 192/276/123
f 192/276/123 179/221/122 80/83/124
f 205/295/125 82/81/126 204/294/127
f 204/294/127 82/81/126 81/84/128
f 205/296/129 192/275/130 82/246/131
f 82/246/131 192/275/130 80/85/132
f 201/288/133 202/289/134 79/248/135
f 79/248/135 202/289/134 83/86/136
f 203/291/137 84/87/138 202/290/139
f 202/290/139 84/87/138 83/251/140
f 204/293/141 81/253/142 203/292/143
f 203/292/143 81/253/142 84/88/144
f 73/75/145 74/76/146 85/89/147
f 85/89/147 74/76/146 86/90/148
f 76/77/149 73/75/150 88/91/151
f 88/91/151 73/75/150 85/89/152
f 74/76/153 77/78/154 86/90/155
f 86/90/155 77/78/154 89/92/156
f 78/79/157 90/93/158 77/78/159
f 77/78/159 90/93/158 89/92/160
f 179/221/161 180/222/162 80/83/163
f 80/83/163 180/222/162 92/254/164
f 82/81/165 94/255/166 81/84/167
f 81/84/167 94/255/166 93/256/168
f 82/257/169 80/85/170 94/259/171
f 94/259/171 80/85/170 92/258/172
f 83/260/173 84/87/174 95/262/175
f 95/262/175 84/87/174 96/261/176
f 81/263/177 93/264/178 84/88/179
f 84/88/179 93/264/178 96/265/180
f 181/225/181 182/226/182 91/104/183
f 91/104/183 182/226/182 95/103/184
f 183/228/185 83/107/186 182/227/187
f 182/227/187 83/107/186 95/108/188
f 184/230/189 79/111/190 183/229/191
f 183/229/191 79/111/190 83/112/192
f 97/113/193 11/3/2 20/19/21
f 29/28/194 98/114/195 20/19/21
f 98/114/195 97/113/193 20/19/21
f 177/218/196 178/219/197 99/115/198
f 99/115/198 178/219/197 38/266/199
f 100/116/200 99/115/198 47/48/81
f 47/48/81 99/115/198 38/267/199
f 56/57/77 100/116/200 47/48/81
f 2/117/201 1/118/202 102/120/203
f 102/120/203 1/118/202 101/119/204
f 10/121/205 103/122/206 1/118/202
f 1/118/202 103/122/206 101/119/204
f 3/123/207 2/117/201 104/124/208
f 104/124/208 2/117/201 102/120/203
f 4/125/209 3/123/207 105/126/210
f 105/126/210 3/123/207 104/124/208
f 5/127/211 4/125/209 106/128/212
f 106/128/212 4/125/209 105/126/210
f 6/129/213 5/127/211 107/130/214
f 107/130/214 5/127/211 106/128/212
f 7/131/215 6/129/213 108/132/216
f 108/132/216 6/129/213 107/130/214
f 8/133/217 7/131/215 109/134/218
f 109/134/218 7/131/215 108/132/216
f 9/135/219 8/133/217 110/136/220
f 110/136/220 8/133/217 109/134/218
f 19/137/221 111/138/222 10/121/205
f 10/121/205 111/138/222 103/122/206
f 19/137/221 28/139/223 111/138/222
f 111/138/222 28/139/223 112/140/224
f 37/141/225 113/142/226 176/216/227
f 176/216/227 113/142/226 175/215/228
f 37/141/225 46/143/229 113/142/226
f 113/142/226 46/143/229 114/144/230
f 46/143/229 55/145/231 114/144/230
f 114/144/230 55/145/231 115/146/232
f 55/145/231 64/147/233 115/146/232
f 115/146/232 64/147/233 116/148/234
f 65/149/235 117/150/236 64/147/233
f 64/147/233 117/150/236 116/148/234
f 66/151/237 118/152/238 65/149/235
f 65/149/235 118/152/238 117/150/236
f 67/153/239 119/154/240 66/151/237
f 66/151/237 119/154/240 118/152/238
f 68/155/241 120/156/242 67/153/239
f 67/153/239 120/156/242 119/154/240
f 69/157/243 121/158/244 68/155/241
f 68/155/241 121/158/244 120/156/242
f 70/159/245 122/160/246 69/157/243
f 69/157/243 122/160/246 121/158/244
f 71/161/247 123/162/248 70/159/245
f 70/159/245 123/162/248 122/160/246
f 72/163/249 124/164/250 71/161/247
f 71/161/247 124/164/250 123/162/248
f 101/119/251 125/165/252 102/120/253
f 102/120/253 125/165/252 126/166/254
f 103/122/255 127/167/256 101/119/251
f 101/119/251 127/167/256 125/165/252
f 104/124/257 102/120/253 128/168/258
f 128/168/258 102/120/253 126/166/254
f 105/126/259 104/124/257 129/169/260
f 129/169/260 104/124/257 128/168/258
f 106/128/261 105/126/262 130/170/263
f 130/170/263 105/126/262 129/169/264
f 107/130/265 106/128/266 131/171/267
f 131/171/267 106/128/266 130/170/268
f 108/132/269 107/130/270 132/172/271
f 132/172/271 107/130/270 131/171/272
f 109/134/273 108/132/274 133/173/275
f 133/173/275 108/132/274 132/172/276
f 110/136/277 109/134/278 134/174/279
f 134/174/279 109/134/278 133/173/280
f 111/138/281 135/175/282 103/122/255
f 103/122/255 135/175/282 127/167/256
f 112/140/283 136/176/284 111/138/281
f 111/138/281 136/176/284 135/175/282
f 113/142/285 137/177/286 175/215/287
f 175/215/287 137/177/286 174/214/288
f 113/142/289 114/144/290 137/177/291
f 137/177/291 114/144/290 138/178/292
f 114/144/290 115/146/293 138/178/292
f 138/178/292 115/146/293 139/179/294
f 115/146/293 116/148/295 139/179/294
f 139/179/294 116/148/295 140/180/296
f 116/148/295 117/150/297 140/180/296
f 140/180/296 117/150/297 141/181/298
f 118/152/299 142/182/300 117/150/297
f 117/150/297 142/182/300 141/181/298
f 119/154/301 143/183/302 118/152/299
f 118/152/299 143/183/302 142/182/300
f 120/156/303 144/184/304 119/154/305
f 119/154/305 144/184/304 143/183/306
f 121/158/307 145/185/308 120/156/309
f 120/156/309 145/185/308 144/184/310
f 122/160/311 146/186/312 121/158/313
f 121/158/313 146/186/312 145/185/314
f 123/162/315 147/187/316 122/160/317
f 122/160/317 147/187/316 146/186/318
f 124/164/319 148/188/320 123/162/321
f 123/162/321 148/188/320 147/187/322
f 126/166/323 125/165/324 150/190/325
f 150/190/325 125/165/324 149/189/326
f 127/167/327 151/191/328 125/165/329
f 125/165/329 151/191/328 149/189/330
f 128/168/331 126/166/332 152/192/333
f 152/192/333 126/166/332 150/190/334
f 129/169/335 128/168/336 153/193/337
f 153/193/337 128/168/336 152/192/338
f 130/170/339 129/169/340 154/194/341
f 154/194/341 129/169/340 153/193/342
f 131/171/343 130/170/344 155/195/345
f 155/195/345 130/170/344 154/194/346
f 132/172/347 131/171/348 156/196/349
f 156/196/349 131/171/348 155/195/350
f 133/173/351 132/172/352 157/197/353
f 157/197/353 132/172/352 156/196/354
f 134/174/355 133/173/356 158/198/357
f 158/198/357 133/173/356 157/197/358
f 135/175/359 159/199/360 127/167/361
f 127/167/361 159/199/360 151/191/362
f 136/176/363 160/200/364 135/175/365
f 135/175/365 160/200/364 159/199/366
f 174/214/367 137/177/368 173/213/369
f 173/213/369 137/177/368 161/201/370
f 137/177/371 138/178/372 161/201/373
f 161/201/373 138/178/372 162/202/374
f 138/178/375 139/179/376 162/202/377
f 162/202/377 139/179/376 163/203/378
f 139/179/379 140/180/380 163/203/381
f 163/203/381 140/180/380 164/204/382
f 141/181/383 165/205/384 140/180/385
f 140/180/385 165/205/384 164/204/386
f 142/182/387 166/206/388 141/181/389
f 141/181/389 166/206/388 165/205/390
f 143/183/391 167/207/392 142/182/393
f 142/182/393 167/207/392 166/206/394
f 144/184/395 168/208/396 143/183/397
f 143/183/397 168/208/396 167/207/398
f 145/185/399 169/209/400 144/184/401
f 144/184/401 169/209/400 168/208/402
f 146/186/403 170/210/404 145/185/405
f 145/185/405 170/210/404 169/209/406
f 147/187/407 171/211/408 146/186/409
f 146/186/409 171/211/408 170/210/410
f 148/188/411 172/212/412 147/187/413
f 147/187/413 172/212/412 171/211/414
f 174/214/415 173/213/416 136/176/417
f 136/176/417 173/213/416 160/200/418
f 112/140/419 175/215/420 136/176/421
f 136/176/421 175/215/420 174/214/422
f 28/139/223 176/216/423 112/140/224
f 112/140/224 176/216/423 175/215/424
f 28/29/29 98/114/30 176/217/425
f 176/217/425 98/114/30 177/218/426
f 177/218/427 98/114/195 178/219/428
f 178/219/428 98/114/195 29/28/194
f 179/221/429 193/277/430 76/269/431
f 76/269/431 193/277/430 194/278/432
f 179/221/433 76/270/434 180/222/435
f 180/222/435 76/270/434 88/271/436
f 87/94/34 181/224/437 88/91/33
f 88/91/33 181/224/437 180/223/438
f 90/102/439 182/226/440 87/101/441
f 87/101/441 182/226/440 181/225/442
f 90/105/443 78/106/444 182/227/445
f 182/227/445 78/106/444 183/228/446
f 78/109/447 75/110/448 183/229/449
f 183/229/449 75/110/448 184/230/450
f 199/285/451 200/286/452 75/273/453
f 75/273/453 200/286/452 184/231/454
f 31/31/38 186/234/455 30/274/456
f 30/274/456 186/234/455 185/233/457
f 31/31/38 32/32/37 186/234/455
f 186/234/455 32/32/37 187/235/458
f 32/32/37 33/33/39 187/235/458
f 187/235/458 33/33/39 188/236/459
f 33/33/39 34/34/40 188/236/459
f 188/236/459 34/34/40 189/237/460
f 34/34/40 35/35/41 189/237/460
f 189/237/460 35/35/41 190/238/461
f 35/35/41 36/36/42 190/238/461
f 190/238/461 36/36/42 191/239/462
f 178/220/463 193/277/464 38/37/465
f 38/37/465 193/277/464 192/276/466
f 194/278/467 193/277/468 29/268/469
f 29/268/469 193/277/468 178/220/470
f 20/19/471 195/280/472 29/28/473
f 29/28/473 195/280/472 194/279/474
f 20/19/475 21/21/476 195/280/477
f 195/280/477 21/21/476 196/281/478
f 21/21/479 22/22/480 196/281/481
f 196/281/481 22/22/480 197/282/482
f 22/22/483 31/31/484 197/282/485
f 197/282/485 31/31/484 198/283/486
f 30/240/487 199/284/488 31/31/489
f 31/31/489 199/284/488 198/283/490
f 185/232/491 200/286/492 30/272/493
f 30/272/493 200/286/492 199/285/494
f 185/232/495 39/241/496 200/286/497
f 200/286/497 39/241/496 201/287/498
f 39/247/499 40/38/500 201/288/501
f 201/288/501 40/38/500 202/289/502
f 49/250/503 203/291/504 40/249/505
f 40/249/505 203/291/504 202/290/506
f 48/252/507 204/293/508 49/39/509
f 49/39/509 204/293/508 203/292/510
f 47/243/511 205/295/512 48/242/513
f 48/242/513 205/295/512 204/294/514
f 47/244/515 38/245/516 205/296/517
f 205/296/517 38/245/516 192/275/518
f 214/300/519 215/299/520 206/297/521
f 206/297/521 215/299/520 207/298/522
f 207/298/522 215/299/520 208/301/523
f 208/301/523 215/299/520 216/302/524
f 208/301/523 216/302/524 209/303/525
f 209/303/525 216/302/524 217/304/526
f 209/303/525 217/304/526 210/305/527
f 210/305/527 217/304/526 218/306/528
f 210/305/527 218/306/528 211/307/529
f 211/307/529 218/306/528 219/308/530
f 211/307/529 219/308/530 212/309/531
f 212/309/531 219/308/530 220/310/532
f 212/309/531 220/310/532 213/311/533
f 213/311/533 220/310/532 221/312/534
f 213/311/533 221/312/534 9/313/535
f 9/313/535 221/312/534 18/314/536
f 214/300/519 222/316/537 215/299/520
f 215/299/520 222/316/537 294/315/538
f 215/299/520 223/318/539 216/302/524
f 216/302/524 223/318/539 224/317/540
f 216/302/524 224/317/540 217/304/526
f 217/304/526 224/317/540 225/319/541
f 225/319/541 226/320/542 217/304/526
f 217/304/526 226/320/542 218/306/528
f 226/320/542 227/321/543 218/306/528
f 218/306/528 227/321/543 219/308/530
f 219/308/530 227/321/543 220/310/532
f 220/310/532 227/321/543 228/322/544
f 220/310/532 228/322/544 221/312/534
f 221/312/534 228/322/544 229/323/545
f 221/312/534 229/323/545 18/314/536
f 18/314/536 229/323/545 27/324/546
f 222/316/537 230/326/547 294/315/538
f 294/315/538 230/326/547 295/325/548
f 282/327/549 285/330/550 283/328/551
f 283/328/551 285/330/550 284/329/552
f 284/333/552 287/332/553 283/328/551
f 283/328/551 287/332/553 286/331/554
f 233/335/555 234/334/556 225/319/541
f 225/319/541 234/334/556 226/320/542
f 234/334/556 235/336/557 226/320/542
f 226/320/542 235/336/557 227/321/543
f 227/321/543 235/336/557 228/322/544
f 228/322/544 235/336/557 236/337/558
f 228/322/544 236/337/558 229/323/545
f 229/323/545 236/337/558 237/338/559
f 229/323/545 237/338/559 27/324/546
f 27/324/546 237/338/559 36/339/560
f 367/340/561 238/343/562 368/341/563
f 368/341/563 238/343/562 296/342/564
f 371/344/565 289/347/566 372/345/567
f 372/345/567 289/347/566 288/346/568
f 376/348/569 240/351/570 377/349/571
f 377/349/571 240/351/570 241/350/572
f 241/350/572 242/353/573 377/349/571
f 377/349/571 242/353/573 378/352/574
f 242/353/573 243/355/575 378/352/574
f 378/352/574 243/355/575 379/354/576
f 379/354/576 243/355/575 380/356/577
f 380/356/577 243/355/575 244/357/578
f 380/356/577 244/357/578 381/358/579
f 381/358/579 244/357/578 245/359/580
f 381/358/579 245/359/580 191/360/581
f 191/360/581 245/359/580 45/361/582
f 246/363/583 297/362/584 238/343/562
f 238/343/562 297/362/584 296/342/564
f 289/347/566 291/365/585 288/346/568
f 288/346/568 291/365/585 290/364/586
f 290/364/586 293/367/587 288/346/568
f 288/346/568 293/367/587 292/366/588
f 249/369/589 250/368/590 241/350/572
f 241/350/572 250/368/590 242/353/573
f 242/353/573 250/368/590 243/355/575
f 243/355/575 250/368/590 251/370/591
f 243/355/575 251/370/591 244/357/578
f 244/357/578 251/370/591 252/371/592
f 244/357/578 252/371/592 245/359/580
f 245/359/580 252/371/592 253/372/593
f 245/359/580 253/372/593 45/361/582
f 45/361/582 253/372/593 54/373/594
f 254/375/595 255/374/596 246/363/583
f 246/363/583 255/374/596 297/362/584
f 255/374/596 256/378/597 247/376/598
f 247/376/598 256/378/597 248/377/599
f 256/378/597 257/379/600 248/377/599
f 248/377/599 257/379/600 249/369/589
f 249/369/589 257/379/600 250/368/590
f 250/368/590 257/379/600 258/380/601
f 250/368/590 258/380/601 251/370/591
f 251/370/591 258/380/601 259/381/602
f 251/370/591 259/381/602 252/371/592
f 252/371/592 259/381/602 260/382/603
f 252/371/592 260/382/603 253/372/593
f 253/372/593 260/382/603 261/383/604
f 253/372/593 261/383/604 54/373/594
f 54/373/594 261/383/604 63/384/605
f 254/375/595 262/386/606 255/374/596
f 255/374/596 262/386/606 263/385/607
f 263/385/607 264/387/608 255/374/596
f 255/374/596 264/387/608 256/378/597
f 264/387/608 265/388/609 256/378/597
f 256/378/597 265/388/609 257/379/600
f 265/388/609 266/389/610 257/379/600
f 257/379/600 266/389/610 258/380/601
f 258/380/601 266/389/610 259/381/602
f 259/381/602 266/389/610 267/390/611
f 259/381/602 267/390/611 260/382/603
f 260/382/603 267/390/611 268/391/612
f 260/382/603 268/391/612 261/383/604
f 261/383/604 268/391/612 269/392/613
f 261/383/604 269/392/613 63/384/605
f 63/384/605 269/392/613 72/393/614
f 385/394/615 270/397/616 386/395/617
f 386/395/617 270/397/616 271/396/618
f 273/399/619 270/397/620 384/398/621
f 384/398/621 270/397/620 385/394/622
f 386/395/623 271/396/624 387/400/625
f 387/400/625 271/396/624 274/401/626
f 387/400/627 274/401/628 388/402/629
f 388/402/629 274/401/628 275/403/630
f 275/403/631 272/405/632 388/402/633
f 388/402/633 272/405/632 389/404/634
f 390/406/635 375/409/636 391/407/637
f 391/407/637 375/409/636 276/408/638
f 277/413/639 370/412/640 382/410/641
f 382/410/641 370/412/640 383/411/642
f 278/417/643 279/416/644 394/414/645
f 394/414/645 279/416/644 395/415/646
f 395/418/647 279/421/648 382/419/649
f 382/419/649 279/421/648 277/420/650
f 391/422/651 276/425/652 392/423/653
f 392/423/653 276/425/652 280/424/654
f 280/429/655 281/428/656 392/426/657
f 392/426/657 281/428/656 393/427/658
f 281/433/659 278/432/660 393/430/661
f 393/430/661 278/432/660 394/431/662
f 270/397/663 282/327/664 271/396/665
f 271/396/665 282/327/664 283/328/666
f 273/399/667 285/330/668 270/397/669
f 270/397/669 285/330/668 282/327/670
f 271/396/671 283/328/672 274/401/673
f 274/401/673 283/328/672 286/331/674
f 286/331/675 287/332/676 274/401/677
f 274/401/677 287/332/676 275/403/678
f 289/435/679 371/434/680 277/413/681
f 277/413/681 371/434/680 370/412/682
f 290/437/683 291/436/684 278/417/685
f 278/417/685 291/436/684 279/416/686
f 279/438/687 291/440/688 277/420/689
f 277/420/689 291/440/688 289/439/690
f 280/441/691 292/443/692 281/428/693
f 281/428/693 292/443/692 293/442/694
f 293/446/695 290/445/696 281/433/697
f 281/433/697 290/445/696 278/444/698
f 372/447/699 288/450/700 373/448/701
f 373/448/701 288/450/700 292/449/702
f 292/454/703 280/453/704 373/451/705
f 373/451/705 280/453/704 374/452/706
f 280/458/707 276/457/708 374/455/709
f 374/455/709 276/457/708 375/456/710
f 294/315/711 223/318/539 215/299/520
f 231/459/712 223/318/539 295/325/713
f 295/325/713 223/318/539 294/315/711
f 239/461/714 369/460/715 296/342/716
f 296/342/716 369/460/715 368/341/717
f 297/362/718 247/376/598 296/342/716
f 296/342/716 247/376/598 239/462/714
f 255/374/596 247/376/598 297/362/718
f 299/466/719 298/465/720 207/463/721
f 207/463/721 298/465/720 206/464/722
f 298/465/720 300/468/723 206/464/722
f 206/464/722 300/468/723 214/467/724
f 208/469/725 301/470/726 207/463/721
f 207/463/721 301/470/726 299/466/719
f 209/471/727 302/472/728 208/469/725
f 208/469/725 302/472/728 301/470/726
f 210/473/729 303/474/730 209/471/727
f 209/471/727 303/474/730 302/472/728
f 211/475/731 304/476/732 210/473/729
f 210/473/729 304/476/732 303/474/730
f 212/477/733 305/478/734 211/475/731
f 211/475/731 305/478/734 304/476/732
f 213/479/735 306/480/736 212/477/733
f 212/477/733 306/480/736 305/478/734
f 9/481/737 110/482/738 213/479/735
f 213/479/735 110/482/738 306/480/736
f 300/468/723 307/484/739 214/467/724
f 214/467/724 307/484/739 222/483/740
f 222/483/740 307/484/739 230/485/741
f 230/485/741 307/484/739 308/486/742
f 366/490/743 309/489/744 367/487/745
f 367/487/745 309/489/744 238/488/746
f 309/489/744 310/492/747 238/488/746
f 238/488/746 310/492/747 246/491/748
f 310/492/747 311/494/749 246/491/748
f 246/491/748 311/494/749 254/493/750
f 311/494/749 312/496/751 254/493/750
f 254/493/750 312/496/751 262/495/752
f 312/496/751 313/498/753 262/495/752
f 262/495/752 313/498/753 263/497/754
f 263/497/754 313/498/753 264/499/755
f 264/499/755 313/498/753 314/500/756
f 314/500/756 315/502/757 264/499/755
f 264/499/755 315/502/757 265/501/758
f 315/502/757 316/504/759 265/501/758
f 265/501/758 316/504/759 266/503/760
f 316/504/759 317/506/761 266/503/760
f 266/503/760 317/506/761 267/505/762
f 317/506/761 318/508/763 267/505/762
f 267/505/762 318/508/763 268/507/764
f 318/508/763 319/510/765 268/507/764
f 268/507/764 319/510/765 269/509/766
f 319/510/765 124/512/767 269/509/766
f 269/509/766 124/512/767 72/511/768
f 321/514/769 320/513/770 299/466/771
f 299/466/771 320/513/770 298/465/772
f 320/513/770 322/515/773 298/465/772
f 298/465/772 322/515/773 300/468/774
f 301/470/775 323/516/776 299/466/771
f 299/466/771 323/516/776 321/514/769
f 302/472/777 324/517/778 301/470/775
f 301/470/775 324/517/778 323/516/776
f 303/474/779 325/518/780 302/472/781
f 302/472/781 325/518/780 324/517/782
f 304/476/783 326/519/784 303/474/785
f 303/474/785 326/519/784 325/518/786
f 305/478/787 327/520/788 304/476/789
f 304/476/789 327/520/788 326/519/790
f 306/480/791 328/521/792 305/478/793
f 305/478/793 328/521/792 327/520/794
f 110/482/795 134/522/796 306/480/797
f 306/480/797 134/522/796 328/521/798
f 322/515/773 329/523/799 300/468/774
f 300/468/774 329/523/799 307/484/800
f 329/523/799 330/524/801 307/484/800
f 307/484/800 330/524/801 308/486/802
f 365/526/803 331/525/804 366/490/805
f 366/490/805 331/525/804 309/489/806
f 309/489/807 331/525/808 310/492/809
f 310/492/809 331/525/808 332/527/810
f 310/492/809 332/527/810 311/494/811
f 311/494/811 332/527/810 333/528/812
f 311/494/811 333/528/812 312/496/813
f 312/496/813 333/528/812 334/529/814
f 312/496/813 334/529/814 313/498/815
f 313/498/815 334/529/814 335/530/816
f 335/530/816 336/531/817 313/498/815
f 313/498/815 336/531/817 314/500/818
f 336/531/817 337/532/819 314/500/818
f 314/500/818 337/532/819 315/502/820
f 337/532/821 338/533/822 315/502/823
f 315/502/823 338/533/822 316/504/824
f 338/533/825 339/534/826 316/504/827
f 316/504/827 339/534/826 317/506/828
f 339/534/829 340/535/830 317/506/831
f 317/506/831 340/535/830 318/508/832
f 340/535/833 341/536/834 318/508/835
f 318/508/835 341/536/834 319/510/836
f 341/536/837 148/537/838 319/510/839
f 319/510/839 148/537/838 124/512/840
f 321/514/841 343/539/842 320/513/843
f 320/513/843 343/539/842 342/538/844
f 342/538/845 344/540/846 320/513/847
f 320/513/847 344/540/846 322/515/848
f 323/516/849 345/541/850 321/514/851
f 321/514/851 345/541/850 343/539/852
f 324/517/853 346/542/854 323/516/855
f 323/516/855 346/542/854 345/541/856
f 325/518/857 347/543/858 324/517/859
f 324/517/859 347/543/858 346/542/860
f 326/519/861 348/544/862 325/518/863
f 325/518/863 348/544/862 347/543/864
f 327/520/865 349/545/866 326/519/867
f 326/519/867 349/545/866 348/544/868
f 328/521/869 350/546/870 327/520/871
f 327/520/871 350/546/870 349/545/872
f 134/522/873 158/547/874 328/521/875
f 328/521/875 158/547/874 350/546/876
f 344/540/877 351/548/878 322/515/879
f 322/515/879 351/548/878 329/523/880
f 351/548/881 352/549/882 329/523/883
f 329/523/883 352/549/882 330/524/884
f 365/526/885 364/551/886 331/525/887
f 331/525/887 364/551/886 353/550/888
f 331/525/889 353/550/890 332/527/891
f 332/527/891 353/550/890 354/552/892
f 332/527/893 354/552/894 333/528/895
f 333/528/895 354/552/894 355/553/896
f 333/528/897 355/553/898 334/529/899
f 334/529/899 355/553/898 356/554/900
f 356/554/901 357/555/902 334/529/903
f 334/529/903 357/555/902 335/530/904
f 357/555/905 358/556/906 335/530/907
f 335/530/907 358/556/906 336/531/908
f 358/556/909 359/557/910 336/531/911
f 336/531/911 359/557/910 337/532/912
f 359/557/913 360/558/914 337/532/915
f 337/532/915 360/558/914 338/533/916
f 360/558/917 361/559/918 338/533/919
f 338/533/919 361/559/918 339/534/920
f 361/559/921 362/560/922 339/534/923
f 339/534/923 362/560/922 340/535/924
f 362/560/925 363/561/926 340/535/927
f 340/535/927 363/561/926 341/536/928
f 363/561/929 172/562/930 341/536/931
f 341/536/931 172/562/930 148/537/932
f 352/549/933 364/551/934 330/524/935
f 330/524/935 364/551/934 365/526/936
f 308/486/937 330/524/938 366/490/939
f 366/490/939 330/524/938 365/526/940
f 230/485/741 308/486/742 367/487/941
f 367/487/941 308/486/742 366/490/942
f 230/326/547 367/340/943 295/325/548
f 295/325/548 367/340/943 368/341/944
f 231/459/712 295/325/713 369/460/945
f 369/460/945 295/325/713 368/341/946
f 273/564/947 384/563/948 370/412/949
f 370/412/949 384/563/948 383/411/950
f 285/566/951 273/565/952 371/434/953
f 371/434/953 273/565/952 370/412/954
f 371/344/955 372/345/956 285/330/550
f 285/330/550 372/345/956 284/333/552
f 372/447/957 373/448/958 284/567/959
f 284/567/959 373/448/958 287/568/960
f 287/569/961 373/451/962 275/570/963
f 275/570/963 373/451/962 374/452/964
f 275/571/965 374/455/966 272/572/967
f 272/572/967 374/455/966 375/456/968
f 389/573/969 272/574/970 390/406/971
f 390/406/971 272/574/970 375/409/972
f 376/348/973 377/349/974 232/575/975
f 232/575/975 377/349/974 233/335/555
f 233/335/555 377/349/974 234/334/556
f 234/334/556 377/349/974 378/352/976
f 234/334/556 378/352/976 235/336/557
f 235/336/557 378/352/976 379/354/977
f 235/336/557 379/354/977 236/337/558
f 236/337/558 379/354/977 380/356/978
f 236/337/558 380/356/978 237/338/559
f 237/338/559 380/356/978 381/358/979
f 237/338/559 381/358/979 36/339/560
f 36/339/560 381/358/979 191/360/980
f 382/410/981 383/411/982 239/576/983
f 239/576/983 383/411/982 369/577/984
f 384/563/985 231/578/986 383/411/987
f 383/411/987 231/578/986 369/577/988
f 384/398/989 385/394/990 231/459/991
f 231/459/991 385/394/990 223/318/992
f 223/318/993 385/394/994 224/317/995
f 224/317/995 385/394/994 386/395/996
f 224/317/997 386/395/998 225/319/999
f 225/319/999 386/395/998 387/400/1000
f 225/319/1001 387/400/1002 233/335/1003
f 233/335/1003 387/400/1002 388/402/1004
f 388/402/1005 389/404/1006 233/335/1007
f 233/335/1007 389/404/1006 232/579/1008
f 232/580/1009 389/573/1010 376/581/1011
f 376/581/1011 389/573/1010 390/406/1012
f 390/406/1013 391/407/1014 376/581/1015
f 376/581/1015 391/407/1014 240/582/1016
f 240/583/1017 391/422/1018 241/584/1019
f 241/584/1019 391/422/1018 392/423/1020
f 392/426/1021 393/427/1022 241/585/1023
f 241/585/1023 393/427/1022 249/586/1024
f 393/430/1025 394/431/1026 249/587/1027
f 249/587/1027 394/431/1026 248/588/1028
f 394/414/1029 395/415/1030 248/589/1031
f 248/589/1031 395/415/1030 247/590/1032
f 247/591/1033 395/418/1034 239/592/1035
f 239/592/1035 395/418/1034 382/419/1036
