# This file uses centimeters as units for non-parametric coordinates.

v 0.000000 0.004204 5.471667
v 0.000000 0.004204 3.908333
v 0.000000 0.004204 2.596335
v 0.000000 0.004204 1.141071
v 0.000000 0.004204 -1.141071
v 0.000000 0.004204 -2.596336
v 0.000000 0.004204 -3.908333
v 0.000000 0.004204 -5.471667
v 0.000000 0.004204 0.000000
v 11.158704 -0.012605 5.395251
v 9.959255 -0.021192 5.474849
v 8.119536 0.004204 5.471667
v 5.630552 0.004204 5.471667
v 4.021823 0.004204 5.471667
v 2.856091 0.004204 5.471667
v 1.542695 0.004204 5.471667
v 11.809231 -0.008995 4.998293
v 10.882554 -0.012620 3.908333
v 10.095621 0.004204 3.908333
v 7.917178 0.004204 3.908333
v 5.630552 0.004204 3.908333
v 4.021823 0.004204 3.908333
v 2.856091 0.004204 3.908333
v 1.542695 0.004204 3.908333
v 12.249515 -0.012612 3.096439
v 9.906963 -0.007675 1.929212
v 9.767580 -0.007675 1.929212
v 7.993003 0.004204 1.926345
v 5.630552 0.004204 2.556261
v 4.021823 0.004204 2.596335
v 2.856091 0.004204 2.596335
v 1.542695 0.004204 2.596335
v 12.243409 -0.012618 1.753759
v 9.906963 -0.007675 1.769786
v 9.767580 -0.007675 1.769786
v 7.993003 0.004204 1.768811
v 5.630552 0.004204 1.155830
v 4.021823 0.004204 1.141071
v 2.856091 0.004204 1.141071
v 1.542695 0.004204 1.141071
v 12.243156 -0.012619 -1.714977
v 9.906963 -0.007675 -1.805812
v 9.767580 -0.007675 -1.805812
v 7.994495 -0.007675 -1.805812
v 5.630552 0.004204 -1.155830
v 4.021823 0.004204 -1.141071
v 2.856091 0.004204 -1.141071
v 1.542695 0.004204 -1.141071
v 12.242563 -0.012622 -3.065090
v 9.906963 -0.007675 -1.971508
v 9.767580 -0.007675 -1.971508
v 7.994495 -0.007675 -1.971508
v 5.630552 0.004204 -2.556262
v 4.021823 0.004204 -2.596336
v 2.856091 0.004204 -2.596336
v 1.542695 0.004204 -2.596336
v 12.130660 -0.010210 -4.222515
v 10.882554 -0.012620 -3.908333
v 10.095621 0.004204 -3.908333
v 7.917178 0.004204 -3.908333
v 5.630552 0.004204 -3.908333
v 4.021823 0.004204 -3.908333
v 2.856091 0.004204 -3.908333
v 1.542695 0.004204 -3.908333
v 11.777145 -0.010203 -4.937731
v 11.022472 -0.012617 -5.351994
v 10.212191 -0.003634 -5.482680
v 8.138732 0.004204 -5.471667
v 5.630552 0.004204 -5.475151
v 4.021823 0.004204 -5.483641
v 2.856091 0.004204 -5.484985
v 1.542695 0.004204 -5.484985
v 11.257601 -0.012620 2.837289
v 11.269110 -0.012620 1.701264
v 11.235161 -0.012620 -1.801045
v 11.203830 -0.012620 -2.865736
v 12.240367 -0.012620 0.000000
v 11.252135 -0.012620 0.004120
v 9.959116 -0.007675 -0.019136
v 9.819735 -0.007675 -0.019136
v 7.993003 0.004204 0.001121
v 5.630552 0.004204 0.000000
v 4.021823 0.004204 0.000000
v 2.856091 0.004204 0.000000
v 1.542695 0.004204 0.000000
v -11.909032 -0.012728 5.125060
v -11.045637 0.008674 5.396917
v -10.093271 0.010609 5.518699
v -8.138732 0.004204 5.471667
v -5.630552 0.004204 5.471667
v -4.021823 0.004204 5.471667
v -2.856091 0.004204 5.471667
v -1.542695 0.004204 5.471667
v -12.261218 -0.064613 4.249923
v -10.882554 0.004204 3.908333
v -10.095621 0.004204 3.908333
v -7.917178 0.004204 3.908333
v -5.630552 0.004204 3.908333
v -4.021823 0.004204 3.908333
v -2.856091 0.004204 3.908333
v -1.542695 0.004204 3.908333
v -12.318521 -0.037842 2.883178
v -10.120977 0.004204 1.926345
v -9.965881 0.004204 1.926345
v -7.993003 0.004204 1.926345
v -5.630552 0.004204 2.556261
v -4.021823 0.004204 2.596335
v -2.856091 0.004204 2.596335
v -1.542695 0.004204 2.596335
v -12.323607 -0.020230 1.706140
v -10.120977 0.004204 1.768811
v -9.965881 0.004204 1.768811
v -7.993003 0.004204 1.768811
v -5.630552 0.004204 1.155830
v -4.021823 0.004204 1.141071
v -2.856091 0.004204 1.141071
v -1.542695 0.004204 1.141071
v -12.322813 0.004204 -1.877215
v -10.120977 0.004204 -1.764348
v -9.965881 0.004204 -1.764348
v -7.993003 0.004204 -1.764348
v -5.630552 0.004204 -1.155830
v -4.021823 0.004204 -1.141071
v -2.856091 0.004204 -1.141071
v -1.542695 0.004204 -1.141071
v -12.322813 0.004204 -2.934100
v -10.120977 0.004204 -1.928077
v -9.965881 0.004204 -1.928077
v -7.993003 0.004204 -1.928077
v -5.630552 0.004204 -2.556262
v -4.021823 0.004204 -2.596336
v -2.856091 0.004204 -2.596336
v -1.542695 0.004204 -2.596336
v -11.972783 0.036250 -5.094346
v -10.882554 0.004204 -3.908333
v -10.095621 0.004204 -3.908333
v -7.917178 0.004204 -3.908333
v -5.630552 0.004204 -3.908333
v -4.021823 0.004204 -3.908333
v -2.856091 0.004204 -3.908333
v -1.542695 0.004204 -3.908333
v -11.166413 0.015648 -5.473115
v -10.135984 0.004204 -5.471667
v -8.138732 0.004204 -5.471667
v -5.630552 0.004204 -5.471667
v -4.021823 0.004204 -5.471667
v -2.856091 0.004204 -5.471667
v -1.542695 0.004204 -5.471667
v -11.257601 0.004204 2.837289
v -11.269110 0.004204 1.701264
v -11.235161 0.004204 -1.801045
v -11.203830 0.004204 -2.865736
v -12.322813 0.004204 0.000000
v -11.252135 0.004204 0.004120
v -10.120977 0.004204 0.001121
v -9.965881 0.004204 0.001121
v -7.993003 0.004204 0.001121
v -5.630552 0.004204 0.000000
v -4.021823 0.004204 0.000000
v -2.856091 0.004204 0.000000
v -1.542695 0.004204 0.000000
v 12.126486 -0.012601 4.220765
v -12.333639 0.065816 -4.202701
v 11.414186 -0.011561 -5.214539
v 10.573026 -0.007634 -5.447401
v 12.011598 -0.010206 -4.626915
v -12.235360 0.051186 -4.707624
v -11.594330 0.025952 -5.355797
vt 0.312645 0.983349
vt 0.338791 0.963918
vt 0.334634 0.997532
vt 0.361464 0.963918
vt 0.356497 0.997532
vt 0.424229 0.963918
vt 0.417846 0.997532
vt 0.490112 0.963918
vt 0.490112 0.997532
vt 0.536462 0.963918
vt 0.536462 0.997532
vt 0.570049 0.963918
vt 0.570049 0.997532
vt 0.607891 0.963918
vt 0.607891 0.997532
vt 0.652339 0.963918
vt 0.652339 0.997532
vt 0.301022 0.957990
vt 0.327985 0.940889
vt 0.360733 0.921302
vt 0.365202 0.921302
vt 0.422045 0.921302
vt 0.490112 0.934846
vt 0.536463 0.935708
vt 0.570049 0.935708
vt 0.607891 0.935708
vt 0.652339 0.935708
vt 0.301023 0.920246
vt 0.327654 0.916462
vt 0.422045 0.917915
vt 0.490112 0.904735
vt 0.536463 0.904417
vt 0.570049 0.904417
vt 0.607891 0.904417
vt 0.652339 0.904417
vt 0.301022 0.879883
vt 0.301022 0.839520
vt 0.328632 0.841157
vt 0.328143 0.879971
vt 0.365202 0.879907
vt 0.365202 0.841946
vt 0.422044 0.841946
vt 0.422045 0.879907
vt 0.490112 0.855031
vt 0.490112 0.879883
vt 0.536463 0.855348
vt 0.536462 0.879883
vt 0.570049 0.855348
vt 0.570049 0.879883
vt 0.607891 0.855348
vt 0.607890 0.879883
vt 0.652339 0.855348
vt 0.652339 0.879883
vt 0.301022 0.801775
vt 0.329535 0.818265
vt 0.422044 0.838426
vt 0.490112 0.824919
vt 0.536462 0.824058
vt 0.570049 0.824058
vt 0.607891 0.824058
vt 0.652339 0.824058
vt 0.312645 0.776416
vt 0.338791 0.795847
vt 0.360734 0.838426
vt 0.361464 0.795847
vt 0.365202 0.838426
vt 0.424229 0.795847
vt 0.490112 0.795848
vt 0.536462 0.795847
vt 0.570049 0.795848
vt 0.607891 0.795847
vt 0.652339 0.795847
vt 0.322857 0.766802
vt 0.334634 0.762233
vt 0.356497 0.762233
vt 0.417846 0.762233
vt 0.490112 0.762233
vt 0.536462 0.762233
vt 0.570049 0.762233
vt 0.607891 0.762233
vt 0.652339 0.762233
vt 0.360734 0.917915
vt 0.360734 0.841947
vt 0.360733 0.879907
vt 0.365202 0.917915
vt 0.981819 0.992963
vt 0.970043 0.997532
vt 0.965885 0.963918
vt 0.992031 0.983350
vt 0.948179 0.997532
vt 0.943212 0.963918
vt 0.886831 0.997532
vt 0.880448 0.963918
vt 0.814566 0.997532
vt 0.814566 0.963918
vt 0.768215 0.997531
vt 0.768215 0.963918
vt 0.734628 0.997532
vt 0.734628 0.963918
vt 0.696787 0.997532
vt 0.696787 0.963918
vt 0.976692 0.940889
vt 0.995943 0.957991
vt 0.939474 0.921302
vt 0.943943 0.921302
vt 0.882632 0.921302
vt 0.814566 0.934846
vt 0.768215 0.935708
vt 0.734628 0.935708
vt 0.696787 0.935708
vt 0.977023 0.916463
vt 0.995943 0.920246
vt 0.814566 0.904734
vt 0.882632 0.917915
vt 0.768215 0.904417
vt 0.734628 0.904417
vt 0.696787 0.904417
vt 0.995943 0.879883
vt 0.976534 0.879972
vt 0.976045 0.841158
vt 0.995943 0.839520
vt 0.939474 0.879907
vt 0.882632 0.879907
vt 0.882632 0.841947
vt 0.939475 0.841947
vt 0.814566 0.879883
vt 0.814566 0.855030
vt 0.768215 0.879883
vt 0.768215 0.855348
vt 0.734628 0.879883
vt 0.734628 0.855348
vt 0.696787 0.879883
vt 0.696787 0.855348
vt 0.975142 0.818265
vt 0.995943 0.801775
vt 0.814566 0.824919
vt 0.882632 0.838426
vt 0.768215 0.824058
vt 0.734628 0.824058
vt 0.696787 0.824058
vt 0.965886 0.795848
vt 0.992031 0.776416
vt 0.943943 0.838426
vt 0.939475 0.838426
vt 0.943213 0.795848
vt 0.880448 0.795847
vt 0.814566 0.795847
vt 0.768215 0.795847
vt 0.734628 0.795848
vt 0.696787 0.795847
vt 0.970043 0.762233
vt 0.948179 0.762233
vt 0.886831 0.762233
vt 0.814566 0.762233
vt 0.768215 0.762233
vt 0.734628 0.762233
vt 0.696787 0.762233
vt 0.943943 0.917915
vt 0.943943 0.879907
vt 0.943943 0.841947
vt 0.939475 0.917915
vt 0.309537 0.973419
vt 0.995089 0.786188
vt 0.328986 0.764424
vt 0.346638 0.762233
vt 0.318027 0.771349
vt 0.993543 0.781247
vt 0.980771 0.769153
vn 0.009357 0.999881 0.012260
vn 0.009420 0.999952 0.002572
vn 0.004590 0.999973 0.005802
vn 0.000956 0.999999 -0.000821
vn 0.000000 1.000000 0.000000
vn 0.000000 1.000000 0.000000
vn 0.000000 1.000000 0.000000
vn 0.000000 1.000000 0.000000
vn 0.000000 1.000000 0.000000
vn 0.000000 1.000000 0.000000
vn 0.000000 1.000000 0.000000
vn 0.000000 1.000000 0.000000
vn 0.000000 1.000000 0.000000
vn 0.000000 1.000000 0.000000
vn 0.002231 0.999990 -0.003916
vn 0.002231 0.999998 0.000085
vn 0.000000 1.000000 0.000000
vn 0.000000 1.000000 0.000000
vn 0.000000 1.000000 0.000000
vn 0.000000 1.000000 0.000000
vn 0.000000 1.000000 0.000000
vn 0.001673 0.999999 0.000000
vn 0.000000 1.000000 0.000000
vn 0.000000 1.000000 0.000000
vn 0.000000 1.000000 0.000000
vn 0.000000 1.000000 0.000000
vn 0.000000 1.000000 0.000000
vn 0.000000 1.000000 0.000000
vn -0.000000 1.000000 -0.000000
vn -0.000000 1.000000 0.000000
vn -0.000001 1.000000 0.000000
vn 0.006501 0.999979 -0.000190
vn 0.003250 0.999989 -0.003382
vn 0.002430 0.999991 -0.003334
vn 0.003317 0.999989 -0.003286
vn 0.001649 0.999998 -0.001314
vn 0.000000 1.000000 0.000000
vn 0.000000 1.000000 0.000000
vn 0.000000 1.000000 0.000000
vn 0.000000 1.000000 0.000000
vn 0.000000 1.000000 0.000000
vn 0.000000 1.000000 0.000000
vn 0.000000 1.000000 0.000000
vn 0.000000 1.000000 0.000000
vn -0.000000 1.000000 -0.000000
vn 0.002856 0.999988 0.004042
vn 0.001942 0.999998 0.000856
vn 0.000000 1.000000 -0.000000
vn 0.000000 1.000000 -0.000000
vn -0.000000 1.000000 -0.000000
vn -0.000000 1.000000 -0.000000
vn 0.000506 0.999996 0.002608
vn 0.000000 1.000000 -0.000000
vn -0.000000 1.000000 -0.000000
vn 0.000000 1.000000 -0.000000
vn -0.000000 1.000000 -0.000000
vn 0.000000 1.000000 0.000000
vn 0.001252 0.999998 -0.001567
vn -0.000000 1.000000 0.000000
vn -0.000000 1.000000 0.000000
vn 0.000000 1.000000 0.000000
vn 0.000000 1.000000 0.000000
vn 0.000000 1.000000 0.000000
vn 0.003723 0.999993 -0.000054
vn 0.003774 0.999993 -0.000072
vn 0.003752 0.999993 -0.000064
vn 0.003825 0.999993 -0.000036
vn -0.000004 1.000000 -0.000002
vn -0.000001 1.000000 -0.000001
vn -0.000002 1.000000 -0.000000
vn 0.000000 1.000000 -0.000000
vn 0.003633 0.999993 0.000053
vn 0.003682 0.999993 0.000026
vn 0.003730 0.999993 0.000034
vn 0.003825 0.999993 -0.000038
vn 0.006505 0.999979 0.000190
vn 0.003300 0.999995 0.000047
vn 0.006599 0.999978 0.000095
vn 0.000000 1.000000 0.000000
vn 0.000000 1.000000 0.000000
vn 0.000000 1.000000 0.000000
vn 0.000000 1.000000 0.000000
vn 0.000000 1.000000 0.000000
vn -0.008189 0.999958 -0.004168
vn -0.021263 0.999763 -0.004673
vn -0.040836 0.998955 -0.020550
vn -0.047738 0.998860 0.000564
vn 0.000829 0.999992 -0.003979
vn 0.000237 0.999999 -0.001566
vn 0.001060 0.999999 -0.001327
vn -0.000000 1.000000 0.000000
vn -0.000000 1.000000 0.000000
vn -0.000000 1.000000 0.000000
vn 0.000000 1.000000 0.000000
vn 0.000000 1.000000 0.000000
vn 0.000000 1.000000 0.000000
vn 0.000000 1.000000 0.000000
vn 0.000000 1.000000 0.000000
vn 0.000000 1.000000 0.000000
vn 0.000000 1.000000 0.000000
vn 0.000000 1.000000 0.000000
vn -0.036667 0.999241 0.013153
vn -0.038810 0.999082 0.018154
vn 0.000000 1.000000 -0.000000
vn 0.000000 1.000000 -0.000000
vn -0.000000 1.000000 0.000000
vn -0.000000 1.000000 0.000000
vn 0.000000 1.000000 0.000000
vn 0.000000 1.000000 0.000000
vn 0.000000 1.000000 0.000000
vn 0.000000 1.000000 0.000000
vn -0.028403 0.999548 0.009886
vn -0.015422 0.999869 0.004847
vn -0.000000 1.000000 0.000000
vn -0.000000 1.000000 0.000000
vn 0.000000 1.000000 0.000000
vn 0.000000 1.000000 0.000000
vn 0.000000 1.000000 0.000000
vn 0.000000 1.000000 0.000000
vn 0.000000 1.000000 -0.000000
vn 0.000000 1.000000 0.000000
vn 0.000000 1.000000 -0.000000
vn 0.000000 1.000000 0.000000
vn -0.000000 1.000000 0.000000
vn -0.000000 1.000000 0.000000
vn -0.000000 1.000000 0.000000
vn -0.000000 1.000000 0.000000
vn -0.000000 1.000000 0.000000
vn -0.000000 1.000000 0.000000
vn 0.000000 1.000000 0.000000
vn 0.000000 1.000000 0.000000
vn 0.000000 1.000000 0.000000
vn 0.000000 1.000000 0.000000
vn 0.000000 1.000000 0.000000
vn 0.000000 1.000000 0.000000
vn 0.000000 1.000000 0.000000
vn 0.000000 1.000000 -0.000000
vn -0.000000 1.000000 -0.000000
vn -0.000000 1.000000 -0.000000
vn -0.000000 1.000000 -0.000000
vn 0.000000 1.000000 -0.000000
vn 0.000000 1.000000 -0.000000
vn 0.000000 1.000000 -0.000000
vn -0.000000 1.000000 -0.000000
vn 0.000000 1.000000 0.000000
vn 0.000000 1.000000 -0.000000
vn -0.000000 1.000000 -0.000000
vn 0.000000 1.000000 -0.000000
vn 0.000000 1.000000 -0.000000
vn 0.000000 1.000000 -0.000000
vn 0.000000 1.000000 0.000000
vn -0.000000 1.000000 0.000000
vn 0.003699 0.999992 0.001767
vn 0.000000 1.000000 0.000000
vn 0.000000 1.000000 0.000000
vn 0.000000 1.000000 0.000000
vn 0.000000 1.000000 0.000000
vn 0.000000 1.000000 0.000000
vn -0.000000 1.000000 -0.000000
vn 0.000000 1.000000 -0.000000
vn 0.000000 1.000000 -0.000000
vn 0.000000 1.000000 0.000000
vn 0.000000 1.000000 0.000000
vn 0.000000 1.000000 0.000000
vn 0.000000 1.000000 0.000000
vn -0.011549 0.999908 0.007153
vn 0.000000 1.000000 0.000000
vn 0.000000 1.000000 -0.000000
vn 0.000000 1.000000 -0.000000
vn -0.000000 1.000000 0.000000
vn -0.000000 1.000000 0.000000
vn -0.000000 1.000000 0.000000
vn -0.000000 1.000000 0.000000
vn 0.000000 1.000000 0.000000
vn 0.000000 1.000000 0.000000
vn 0.000000 1.000000 0.000000
vn 0.000000 1.000000 0.000000
vn -0.006031 0.999981 0.001110
vn -0.001973 0.999997 -0.001648
vn 0.005782 0.999982 0.001512
vn -0.000012 1.000000 -0.000011
vn -0.000009 1.000000 -0.000006
vn -0.000010 1.000000 -0.000007
vn -0.000006 1.000000 -0.000002
vn 0.006321 0.999977 -0.002593
vn 0.003300 0.999994 0.000537
vn 0.001043 0.999991 -0.004213
vn -0.000457 1.000000 0.000738
vn 0.000001 1.000000 -0.000001
vn 0.003441 0.999994 -0.000540
vn 0.006396 0.999976 0.002654
vn 0.008285 0.999965 0.001513
vn 0.000000 0.999981 0.006133
vn 0.007622 0.999961 -0.004414
vn 0.011488 0.999925 -0.004128
vn -0.001585 0.999998 0.001377
vn -0.001056 0.999999 0.000918
vn 0.010830 0.999940 0.001398
vn -0.003328 0.999994 -0.000544
vn -0.002384 0.999997 0.000276
vn -0.002384 0.999997 0.000276
vn -0.001440 0.999998 0.001096
vn -0.002607 0.999997 -0.000250
vn 0.004127 0.999991 0.000402
vn 0.016118 0.999870 -0.000002
vn -0.001796 0.999998 0.000538
vn 0.000000 1.000000 0.000000
vn 0.010874 0.999812 0.016075
vn -0.000000 1.000000 0.000000
vn -0.000000 1.000000 0.000000
vn 0.016311 0.999576 0.024114
vn 0.032609 0.998305 0.048207
vn 0.007188 0.999973 0.001621
vn 0.034543 0.999392 -0.004750
vn 0.028049 0.999606 0.001226
vn 0.034543 0.999392 -0.004750
vn 0.017969 0.999830 0.004053
vn 0.046442 0.998723 -0.019899
vn 0.046442 0.998723 -0.019899
vn 0.046442 0.998723 -0.019899
vn 0.041035 0.999100 -0.010725
vn 0.024839 0.999688 0.002805
f 11/5/1 19/4/2 12/7/3
f 12/7/3 19/4/2 20/6/4
f 12/7/3 20/6/4 13/9/5
f 13/9/5 20/6/4 21/8/6
f 13/9/5 21/8/6 14/11/7
f 14/11/7 21/8/6 22/10/8
f 14/11/7 22/10/8 15/13/9
f 15/13/9 22/10/8 23/12/10
f 15/13/9 23/12/10 16/15/11
f 16/15/11 23/12/10 24/14/12
f 16/15/11 24/14/12 1/17/13
f 1/17/13 24/14/12 2/16/14
f 19/4/2 27/21/15 20/6/4
f 20/6/4 27/21/15 28/22/16
f 28/22/16 29/23/17 20/6/4
f 20/6/4 29/23/17 21/8/6
f 29/23/17 30/24/18 21/8/6
f 21/8/6 30/24/18 22/10/8
f 22/10/8 30/24/18 23/12/10
f 23/12/10 30/24/18 31/25/19
f 23/12/10 31/25/19 24/14/12
f 24/14/12 31/25/19 32/26/20
f 24/14/12 32/26/20 2/16/14
f 2/16/14 32/26/20 3/27/21
f 28/22/16 36/30/22 29/23/17
f 36/30/22 37/31/23 29/23/17
f 37/31/23 38/32/24 29/23/17
f 29/23/17 38/32/24 30/24/18
f 30/24/18 38/32/24 31/25/19
f 31/25/19 38/32/24 39/33/25
f 31/25/19 39/33/25 32/26/20
f 32/26/20 39/33/25 40/34/26
f 32/26/20 40/34/26 3/27/21
f 3/27/21 40/34/26 4/35/27
f 77/36/28 41/37/29 78/39/30
f 78/39/30 41/37/29 75/38/31
f 80/40/32 43/41/33 81/43/34
f 81/43/34 43/41/33 44/42/35
f 44/42/35 45/44/36 81/43/34
f 81/43/34 45/44/36 82/45/37
f 45/44/36 46/46/38 82/45/37
f 82/45/37 46/46/38 83/47/39
f 83/47/39 46/46/38 84/49/40
f 84/49/40 46/46/38 47/48/41
f 84/49/40 47/48/41 85/51/42
f 85/51/42 47/48/41 48/50/43
f 85/51/42 48/50/43 9/53/44
f 9/53/44 48/50/43 5/52/45
f 52/56/46 53/57/47 44/42/35
f 44/42/35 53/57/47 45/44/36
f 45/44/36 53/57/47 46/46/38
f 46/46/38 53/57/47 54/58/48
f 46/46/38 54/58/48 47/48/41
f 47/48/41 54/58/48 55/59/49
f 47/48/41 55/59/49 48/50/43
f 48/50/43 55/59/49 56/60/50
f 48/50/43 56/60/50 5/52/45
f 5/52/45 56/60/50 6/61/51
f 52/56/46 60/67/52 53/57/47
f 53/57/47 60/67/52 61/68/53
f 53/57/47 61/68/53 54/58/48
f 54/58/48 61/68/53 62/69/54
f 54/58/48 62/69/54 55/59/49
f 55/59/49 62/69/54 63/70/55
f 55/59/49 63/70/55 56/60/50
f 56/60/50 63/70/55 64/71/56
f 56/60/50 64/71/56 6/61/51
f 6/61/51 64/71/56 7/72/57
f 68/76/58 69/77/59 60/67/52
f 60/67/52 69/77/59 61/68/53
f 61/68/53 69/77/59 62/69/54
f 62/69/54 69/77/59 70/78/60
f 62/69/54 70/78/60 63/70/55
f 63/70/55 70/78/60 71/79/61
f 63/70/55 71/79/61 64/71/56
f 64/71/56 71/79/61 72/80/62
f 72/80/62 8/81/63 64/71/56
f 64/71/56 8/81/63 7/72/57
f 42/83/64 79/84/65 75/38/66
f 75/38/66 79/84/65 78/39/67
f 33/28/68 77/36/69 74/29/70
f 74/29/70 77/36/69 78/39/71
f 34/82/72 74/29/73 79/84/74
f 79/84/74 74/29/73 78/39/75
f 80/40/76 81/43/77 35/85/78
f 35/85/78 81/43/77 36/30/22
f 36/30/22 81/43/77 37/31/23
f 37/31/23 81/43/77 82/45/79
f 37/31/23 82/45/79 38/32/24
f 38/32/24 82/45/79 83/47/80
f 38/32/24 83/47/80 39/33/25
f 39/33/25 83/47/80 84/49/81
f 39/33/25 84/49/81 40/34/26
f 40/34/26 84/49/81 85/51/82
f 40/34/26 85/51/82 4/35/27
f 4/35/27 85/51/82 9/53/83
f 87/87/84 95/88/85 86/86/86
f 86/86/86 95/88/85 94/89/87
f 88/90/88 96/91/89 87/87/84
f 87/87/84 96/91/89 95/88/85
f 88/90/88 89/92/90 96/91/89
f 96/91/89 89/92/90 97/93/91
f 89/92/90 90/94/92 97/93/91
f 97/93/91 90/94/92 98/95/93
f 90/94/92 91/96/94 98/95/93
f 98/95/93 91/96/94 99/97/95
f 91/96/94 92/98/96 99/97/95
f 99/97/95 92/98/96 100/99/97
f 92/98/96 93/100/98 100/99/97
f 100/99/97 93/100/98 101/101/99
f 93/100/98 1/17/100 101/101/99
f 101/101/99 1/17/100 2/16/101
f 95/88/85 149/102/102 94/89/87
f 94/89/87 149/102/102 102/103/103
f 95/88/85 96/91/89 103/105/104
f 103/105/104 96/91/89 104/104/105
f 96/91/89 97/93/91 104/104/105
f 104/104/105 97/93/91 105/106/106
f 98/95/93 106/107/107 97/93/91
f 97/93/91 106/107/107 105/106/106
f 99/97/95 107/108/108 98/95/93
f 98/95/93 107/108/108 106/107/107
f 99/97/95 100/99/97 107/108/108
f 107/108/108 100/99/97 108/109/109
f 100/99/97 101/101/99 108/109/109
f 108/109/109 101/101/99 109/110/110
f 101/101/99 2/16/101 109/110/110
f 109/110/110 2/16/101 3/27/111
f 102/103/103 149/102/102 110/112/112
f 110/112/112 149/102/102 150/111/113
f 105/106/106 106/107/107 113/114/114
f 106/107/107 114/113/115 113/114/114
f 107/108/108 115/115/116 106/107/107
f 106/107/107 115/115/116 114/113/115
f 107/108/108 108/109/109 115/115/116
f 115/115/116 108/109/109 116/116/117
f 108/109/109 109/110/110 116/116/117
f 116/116/117 109/110/110 117/117/118
f 109/110/110 3/27/111 117/117/118
f 117/117/118 3/27/111 4/35/119
f 154/119/120 151/120/121 153/118/122
f 153/118/122 151/120/121 118/121/123
f 156/122/124 157/123/125 120/125/126
f 120/125/126 157/123/125 121/124/127
f 158/126/128 122/127/129 157/123/125
f 157/123/125 122/127/129 121/124/127
f 159/128/130 123/129/131 158/126/128
f 158/126/128 123/129/131 122/127/129
f 159/128/130 160/130/132 123/129/131
f 123/129/131 160/130/132 124/131/133
f 160/130/132 161/132/134 124/131/133
f 124/131/133 161/132/134 125/133/135
f 161/132/134 9/53/136 125/133/135
f 125/133/135 9/53/136 5/52/137
f 121/124/127 122/127/129 129/137/138
f 122/127/129 130/136/139 129/137/138
f 122/127/129 123/129/131 130/136/139
f 130/136/139 123/129/131 131/138/140
f 123/129/131 124/131/133 131/138/140
f 131/138/140 124/131/133 132/139/141
f 124/131/133 125/133/135 132/139/141
f 132/139/141 125/133/135 133/140/142
f 125/133/135 5/52/137 133/140/142
f 133/140/142 5/52/137 6/61/143
f 129/137/138 137/146/144 128/144/145
f 128/144/145 137/146/144 136/145/146
f 129/137/138 130/136/139 137/146/144
f 137/146/144 130/136/139 138/147/147
f 130/136/139 131/138/140 138/147/147
f 138/147/147 131/138/140 139/148/148
f 131/138/140 132/139/141 139/148/148
f 139/148/148 132/139/141 140/149/149
f 132/139/141 133/140/142 140/149/149
f 140/149/149 133/140/142 141/150/150
f 133/140/142 6/61/143 141/150/150
f 141/150/150 6/61/143 7/72/151
f 137/146/144 144/153/152 136/145/146
f 136/145/146 144/153/152 143/152/153
f 138/147/147 145/154/154 137/146/144
f 137/146/144 145/154/154 144/153/152
f 138/147/147 139/148/148 145/154/154
f 145/154/154 139/148/148 146/155/155
f 139/148/148 140/149/149 146/155/155
f 146/155/155 140/149/149 147/156/156
f 140/149/149 141/150/150 147/156/156
f 147/156/156 141/150/150 148/157/157
f 141/150/150 7/72/151 148/157/157
f 148/157/157 7/72/151 8/81/158
f 149/102/159 95/88/85 103/105/104
f 111/158/160 150/111/161 103/105/104
f 150/111/161 149/102/159 103/105/104
f 151/120/162 154/119/163 119/160/164
f 119/160/164 154/119/163 155/159/165
f 110/112/112 150/111/113 153/118/166
f 153/118/166 150/111/113 154/119/167
f 154/119/168 150/111/161 155/159/169
f 155/159/169 150/111/161 111/158/160
f 112/161/170 113/114/114 156/122/171
f 156/122/171 113/114/114 157/123/172
f 113/114/114 114/113/115 157/123/172
f 157/123/172 114/113/115 158/126/173
f 114/113/115 115/115/116 158/126/173
f 158/126/173 115/115/116 159/128/174
f 115/115/116 116/116/117 159/128/174
f 159/128/174 116/116/117 160/130/175
f 116/116/117 117/117/118 160/130/175
f 160/130/175 117/117/118 161/132/176
f 117/117/118 4/35/119 161/132/176
f 161/132/176 4/35/119 9/53/177
f 10/3/178 17/1/179 18/2/180
f 10/3/178 18/2/180 11/5/1
f 11/5/1 18/2/180 19/4/2
f 162/162/181 25/18/182 18/2/183
f 18/2/183 25/18/182 73/19/184
f 18/2/180 26/20/185 19/4/2
f 19/4/2 26/20/185 27/21/15
f 25/18/182 33/28/68 73/19/184
f 73/19/184 33/28/68 74/29/70
f 73/19/186 26/20/185 18/2/180
f 34/82/72 26/20/185 74/29/73
f 74/29/73 26/20/185 73/19/186
f 162/162/187 18/2/180 17/1/179
f 49/54/188 76/55/189 41/37/29
f 41/37/29 76/55/189 75/38/31
f 76/55/190 50/64/191 75/38/66
f 75/38/66 50/64/191 42/83/64
f 59/65/192 60/67/52 51/66/193
f 51/66/193 60/67/52 52/56/46
f 67/75/194 68/76/58 59/65/192
f 59/65/192 68/76/58 60/67/52
f 59/65/192 165/165/195 67/75/194
f 57/62/196 58/63/197 49/54/188
f 49/54/188 58/63/197 76/55/189
f 58/63/198 59/65/192 50/64/191
f 50/64/191 59/65/192 51/66/193
f 164/164/199 58/63/200 65/73/201
f 65/73/201 58/63/200 166/166/202
f 58/63/198 50/64/191 76/55/190
f 58/63/198 164/164/203 66/74/204
f 59/65/192 58/63/198 165/165/205
f 165/165/205 58/63/198 66/74/204
f 166/166/206 58/63/197 57/62/196
f 151/120/121 152/134/207 118/121/123
f 118/121/123 152/134/207 126/135/208
f 152/134/209 151/120/162 127/143/210
f 127/143/210 151/120/162 119/160/164
f 152/134/207 135/141/211 126/135/208
f 126/135/208 135/141/211 163/163/212
f 128/144/145 136/145/146 127/143/210
f 127/143/210 136/145/146 135/141/213
f 135/141/214 168/168/215 134/142/216
f 136/145/146 143/152/153 135/141/213
f 135/141/213 143/152/153 142/151/217
f 135/141/213 152/134/209 127/143/210
f 135/141/218 167/167/219 163/163/220
f 167/167/221 135/141/214 134/142/216
f 168/168/222 135/141/213 142/151/217
