# This file uses centimeters as units for non-parametric coordinates.

v -0.500000 -0.500000 0.000000
v 0.500000 -0.500000 0.000000
v -0.500000 0.500000 0.000000
v 0.500000 0.500000 0.000000
v 0.000000 -0.500000 0.000000
v 0.000000 0.500000 0.000000
vt 0.005422 0.500000
vt 0.991033 0.000000
vt 0.005422 1.000000
vt 0.991033 0.500000
vt 0.014945 0.500000
vt 0.984147 0.500000
vt 0.014945 0.000000
vt 0.984147 1.000000
vn 0.000000 0.000000 1.000000
vn 0.000000 0.000000 1.000000
vn 0.000000 0.000000 1.000000
vn 0.000000 0.000000 1.000000
vn 0.000000 0.000000 1.000000
vn 0.000000 0.000000 1.000000
vn 0.000000 0.000000 1.000000
vn 0.000000 0.000000 1.000000
f 6/5/1 5/7/2 4/4/3
f 4/4/3 5/7/2 2/2/4
f 5/6/5 6/8/6 1/1/7
f 1/1/7 6/8/6 3/3/8
