# This file uses centimeters as units for non-parametric coordinates.

v 0.000000 0.000000 2.309215
v 0.000000 0.000000 -0.324833
v 0.000000 0.647240 -0.170576
v 0.000000 -0.651640 -0.170576
v -0.566321 -0.566321 -0.170576
v -0.613963 0.000000 -0.170576
v -0.566321 0.566321 -0.170576
v 0.566321 0.566321 -0.170576
v 0.613963 0.000000 -0.170576
v 0.566321 -0.566321 -0.170576
v -0.714100 0.000000 -0.112893
v -0.658686 -0.658686 -0.112893
v 0.000000 -0.744006 -0.112893
v 0.658686 -0.658686 -0.112893
v 0.714100 0.000000 -0.112893
v 0.658686 0.658686 -0.112893
v 0.000000 0.739605 -0.112893
v -0.658686 0.658686 -0.112893
v -0.742941 0.742941 -0.055897
v 0.000000 0.823860 -0.055897
v 0.742941 0.742941 -0.055897
v 0.805443 0.000000 -0.055897
v 0.742941 -0.742941 -0.055897
v 0.000000 -0.828261 -0.055897
v -0.742941 -0.742941 -0.055897
v -0.805443 0.000000 -0.055897
v -0.857327 0.857327 0.069107
v 0.000000 0.938246 0.069107
v 0.857327 0.857327 0.069107
v 0.929451 0.000000 0.069107
v 0.857327 -0.857327 0.069107
v 0.000000 -0.942646 0.069107
v -0.857327 -0.857327 0.069107
v -0.929451 0.000000 0.069107
v 1.077586 -1.077586 1.449985
v 0.000000 -1.077586 1.449985
v -1.077586 -1.077586 1.449985
v -1.077586 0.000000 1.449985
v -1.077586 1.077586 1.449985
v 0.000000 1.077586 1.449985
v 1.077586 1.077586 1.449985
v 1.077586 0.000000 1.449985
v -0.299938 0.000000 -0.295476
v -0.276663 -0.276663 -0.295476
v 0.000000 -0.296278 -0.295476
v 0.276663 -0.276663 -0.295476
v 0.299938 0.000000 -0.295476
v 0.276663 0.276663 -0.295476
v 0.000000 0.304058 -0.295476
v -0.276663 0.276663 -0.295476
vt 0.333333 0.583333
vt 1.000000 0.250000
vt 0.500000 0.500000
vt 0.500000 0.950000
vt 0.500000 0.050000
vt 0.050000 0.050000
vt 0.050000 0.500000
vt 0.050000 0.950000
vt 0.950000 0.950000
vt 0.950000 0.500000
vt 0.950000 0.050000
vt 0.025000 0.500000
vt 0.025000 0.025000
vt 0.500000 0.025000
vt 0.975000 0.025000
vt 0.975000 0.500000
vt 0.975000 0.975000
vt 0.500000 0.975000
vt 0.025000 0.975000
vt 0.012500 0.987500
vt 0.500000 0.987500
vt 0.987500 0.987500
vt 0.987500 0.500000
vt 0.987500 0.012500
vt 0.500000 0.012500
vt 0.012500 0.012500
vt 0.012500 0.500000
vt 0.006250 0.993750
vt 0.500000 0.993750
vt 0.993750 0.993750
vt 0.993750 0.500000
vt 0.993750 0.006250
vt 0.500000 0.006250
vt 0.006250 0.006250
vt 0.006250 0.500000
vt 0.996875 0.003125
vt 0.500000 0.003125
vt 0.003125 0.003125
vt 0.003125 0.500000
vt 0.003125 0.996875
vt 0.500000 0.996875
vt 0.996875 0.996875
vt 0.996875 0.500000
vt 0.275000 0.500000
vt 0.275000 0.275000
vt 0.500000 0.275000
vt 0.725000 0.275000
vt 0.725000 0.500000
vt 0.725000 0.725000
vt 0.500000 0.725000
vt 0.275000 0.725000
vn -0.307649 -0.299476 0.903142
vn -0.270919 -0.258466 0.927253
vn -0.509295 0.000000 0.860592
vn -0.413712 0.000000 0.910408
vn 0.307649 -0.299476 0.903142
vn 0.270919 -0.258466 0.927253
vn -0.000000 -0.525683 0.850681
vn 0.000000 -0.410039 0.912068
vn 0.413712 0.000000 0.910408
vn 0.509295 -0.000000 0.860592
vn 0.272437 0.257543 0.927065
vn 0.309146 0.298500 0.902954
vn -0.309146 0.298500 0.902954
vn -0.272437 0.257543 0.927065
vn 0.000000 0.000628 1.000000
vn 0.156870 0.145161 0.976893
vn 0.000000 0.216628 0.976254
vn 0.158686 -0.146888 0.976342
vn 0.235787 0.000000 0.971805
vn -0.158686 -0.146888 0.976342
vn 0.000000 -0.220781 0.975323
vn -0.156870 0.145161 0.976893
vn 0.000000 0.000000 -1.000000
vn 0.980747 0.000000 -0.195285
vn 0.620073 -0.620074 -0.480643
vn 0.620073 0.620074 -0.480643
vn 0.000000 0.980048 -0.198760
vn -0.620073 0.620074 -0.480643
vn -0.980747 0.000000 -0.195285
vn -0.620073 -0.620074 -0.480643
vn 0.000000 -0.980283 -0.197598
vn 0.000000 0.524968 0.851122
vn -0.000000 0.405964 0.913889
vn 0.397463 -0.392771 0.829309
vn -0.000000 -0.610856 0.791742
vn -0.397463 -0.392771 0.829309
vn -0.593055 0.000000 0.805162
vn -0.399091 0.391671 0.829048
vn 0.000000 0.610223 0.792230
vn 0.399091 0.391671 0.829048
vn 0.593055 0.000000 0.805162
vn 0.639524 -0.634820 0.433605
vn 0.000000 -0.854329 0.519733
vn -0.639524 -0.634820 0.433605
vn -0.846854 0.000000 0.531825
vn -0.640938 0.633881 0.432889
vn 0.000000 0.854417 0.519589
vn 0.640938 0.633881 0.432889
vn 0.846854 0.000000 0.531825
vn -0.235787 0.000000 0.971805
f 16/17/1 8/9/2 15/16/3
f 15/16/3 8/9/2 9/10/4
f 18/19/5 7/8/6 17/18/7
f 17/18/7 7/8/6 3/4/8
f 6/7/9 11/12/10 5/6/11
f 5/6/11 11/12/10 12/13/12
f 14/15/13 15/16/3 10/11/14
f 10/11/14 15/16/3 9/10/4
f 2/3/15 44/45/16 45/46/17
f 50/51/18 43/44/19 2/3/15
f 2/3/15 48/49/20 49/50/21
f 45/46/17 46/47/22 2/3/15
f 1/1/23 38/39/24 39/40/25
f 37/38/26 38/39/24 1/1/23
f 1/1/23 36/37/27 37/38/26
f 35/36/28 36/37/27 1/1/23
f 1/2/23 42/43/29 35/36/28
f 41/42/30 42/43/29 1/2/23
f 1/1/23 40/41/31 41/42/30
f 1/1/23 39/40/25 40/41/31
f 16/17/1 17/18/7 8/9/2
f 8/9/2 17/18/7 3/4/8
f 18/19/5 11/12/10 7/8/6
f 7/8/6 11/12/10 6/7/9
f 12/13/12 13/14/32 5/6/11
f 5/6/11 13/14/32 4/5/33
f 14/15/13 10/11/14 13/14/32
f 13/14/32 10/11/14 4/5/33
f 19/20/34 18/19/5 20/21/35
f 20/21/35 18/19/5 17/18/7
f 21/22/36 20/21/35 16/17/1
f 16/17/1 20/21/35 17/18/7
f 15/16/3 22/23/37 16/17/1
f 16/17/1 22/23/37 21/22/36
f 23/24/38 22/23/37 14/15/13
f 14/15/13 22/23/37 15/16/3
f 13/14/32 24/25/39 14/15/13
f 14/15/13 24/25/39 23/24/38
f 25/26/40 24/25/39 12/13/12
f 12/13/12 24/25/39 13/14/32
f 11/12/10 26/27/41 12/13/12
f 12/13/12 26/27/41 25/26/40
f 19/20/34 26/27/41 18/19/5
f 18/19/5 26/27/41 11/12/10
f 27/28/42 19/20/34 28/29/43
f 28/29/43 19/20/34 20/21/35
f 29/30/44 28/29/43 21/22/36
f 21/22/36 28/29/43 20/21/35
f 22/23/37 30/31/45 21/22/36
f 21/22/36 30/31/45 29/30/44
f 31/32/46 30/31/45 23/24/38
f 23/24/38 30/31/45 22/23/37
f 24/25/39 32/33/47 23/24/38
f 23/24/38 32/33/47 31/32/46
f 33/34/48 32/33/47 25/26/40
f 25/26/40 32/33/47 24/25/39
f 26/27/41 34/35/49 25/26/40
f 25/26/40 34/35/49 33/34/48
f 27/28/42 34/35/49 19/20/34
f 19/20/34 34/35/49 26/27/41
f 32/33/47 36/37/27 31/32/46
f 31/32/46 36/37/27 35/36/28
f 37/38/26 36/37/27 33/34/48
f 33/34/48 36/37/27 32/33/47
f 34/35/49 38/39/24 33/34/48
f 33/34/48 38/39/24 37/38/26
f 39/40/25 38/39/24 27/28/42
f 27/28/42 38/39/24 34/35/49
f 39/40/25 27/28/42 40/41/31
f 40/41/31 27/28/42 28/29/43
f 41/42/30 40/41/31 29/30/44
f 29/30/44 40/41/31 28/29/43
f 30/31/45 42/43/29 29/30/44
f 29/30/44 42/43/29 41/42/30
f 35/36/28 42/43/29 31/32/46
f 31/32/46 42/43/29 30/31/45
f 46/47/22 47/48/50 2/3/15
f 47/48/50 48/49/20 2/3/15
f 49/50/21 50/51/18 2/3/15
f 43/44/19 44/45/16 2/3/15
f 5/6/11 44/45/16 6/7/9
f 6/7/9 44/45/16 43/44/19
f 45/46/17 44/45/16 4/5/33
f 4/5/33 44/45/16 5/6/11
f 10/11/14 46/47/22 4/5/33
f 4/5/33 46/47/22 45/46/17
f 10/11/14 9/10/4 46/47/22
f 46/47/22 9/10/4 47/48/50
f 8/9/2 48/49/20 9/10/4
f 9/10/4 48/49/20 47/48/50
f 49/50/21 48/49/20 3/4/8
f 3/4/8 48/49/20 8/9/2
f 7/8/6 50/51/18 3/4/8
f 3/4/8 50/51/18 49/50/21
f 7/8/6 6/7/9 50/51/18
f 50/51/18 6/7/9 43/44/19
