# This file uses centimeters as units for non-parametric coordinates.

v -0.500000 -0.500000 0.000000
v 0.500000 -0.500000 0.000000
v -0.500000 0.500000 0.000000
v 0.500000 0.500000 0.000000
v 0.246809 -0.500000 0.000000
v 0.246809 0.500000 0.000000
vt 0.009855 0.337621
vt 0.662556 0.321918
vt 0.009855 0.995685
vt 0.004642 0.321918
vt 0.004642 0.008944
vt 0.969216 0.337621
vt 0.662556 0.008944
vt 0.969216 0.995685
vn 0.000000 0.000000 1.000000
vn 0.000000 0.000000 1.000000
vn 0.000000 0.000000 1.000000
vn 0.000000 0.000000 1.000000
vn 0.000000 0.000000 1.000000
vn 0.000000 0.000000 1.000000
vn 0.000000 0.000000 1.000000
vn 0.000000 0.000000 1.000000
f 6/5/1 5/7/2 4/4/3
f 4/4/3 5/7/2 2/2/4
f 5/6/5 6/8/6 1/1/7
f 1/1/7 6/8/6 3/3/8
