# This file uses centimeters as units for non-parametric coordinates.

v 0.214119 -0.081786 -0.000000
v 0.214119 0.081786 -0.000000
v 0.081786 0.000000 -0.214119
v 0.132333 0.132333 -0.132333
v 0.132333 -0.132333 -0.132333
v 0.081786 0.000000 0.214119
v 0.132333 -0.132333 0.132333
v 0.132333 0.132333 0.132333
v -0.214119 -0.081786 -0.000000
v -0.214119 0.081786 -0.000000
v -0.081786 0.000000 0.214119
v -0.132333 -0.132333 0.132333
v -0.132333 0.132333 0.132333
v -0.081786 0.000000 -0.214119
v -0.132333 0.132333 -0.132333
v -0.132333 -0.132333 -0.132333
v -0.000000 -0.214119 0.081786
v -0.000000 0.214119 0.081786
v -0.000000 0.214119 -0.081786
v -0.000000 -0.214119 -0.081786
v 0.203060 -0.029492 -0.079113
v 0.174379 -0.047796 -0.125520
v 0.156700 -0.000000 -0.154125
v 0.174379 0.047796 -0.125520
v 0.203060 0.029492 -0.079113
v 0.174379 0.047796 0.125520
v 0.156700 0.000000 0.154125
v 0.174379 -0.047796 0.125520
v 0.203060 -0.029492 0.079113
v 0.203060 0.029492 0.079113
v 0.125520 -0.174379 0.047796
v 0.154125 -0.156700 -0.000000
v 0.079113 -0.203060 0.029492
v 0.079113 -0.203060 -0.029492
v 0.125520 -0.174379 -0.047796
v 0.028694 -0.078118 0.203676
v -0.028694 -0.078118 0.203676
v -0.046352 -0.125858 0.174170
v 0.000000 -0.155440 0.155888
v 0.046352 -0.125858 0.174170
v -0.125520 -0.174379 0.047796
v -0.079113 -0.203060 0.029492
v -0.154125 -0.156700 -0.000000
v -0.125520 -0.174379 -0.047796
v -0.079113 -0.203060 -0.029492
v -0.000000 -0.155440 -0.155888
v 0.046352 -0.125858 -0.174170
v -0.046352 -0.125858 -0.174170
v -0.028694 -0.078118 -0.203676
v 0.028694 -0.078118 -0.203676
v -0.028694 0.078118 -0.203676
v 0.028694 0.078118 -0.203676
v -0.046352 0.125858 -0.174170
v -0.000000 0.155440 -0.155888
v 0.046352 0.125858 -0.174170
v 0.125520 0.174379 -0.047796
v 0.154125 0.156700 -0.000000
v 0.079113 0.203060 -0.029492
v 0.079113 0.203060 0.029492
v 0.125520 0.174379 0.047796
v -0.000000 0.155440 0.155888
v 0.046352 0.125858 0.174170
v -0.046352 0.125858 0.174170
v -0.028694 0.078118 0.203676
v 0.028694 0.078118 0.203676
v -0.174379 -0.047796 0.125520
v -0.203060 -0.029492 0.079113
v -0.156700 0.000000 0.154125
v -0.174379 0.047796 0.125520
v -0.203060 0.029492 0.079113
v -0.125520 0.174379 0.047796
v -0.154125 0.156700 -0.000000
v -0.079113 0.203060 0.029492
v -0.079113 0.203060 -0.029492
v -0.125520 0.174379 -0.047796
v -0.174379 0.047796 -0.125520
v -0.203060 0.029492 -0.079113
v -0.156700 0.000000 -0.154125
v -0.174379 -0.047796 -0.125520
v -0.203060 -0.029492 -0.079113
v 0.255429 -0.035203 -0.104561
v 0.222493 -0.056988 -0.157853
v 0.202113 0.000000 -0.190827
v 0.222493 0.056988 -0.157853
v 0.255429 0.035203 -0.104561
v 0.222493 0.056988 0.157853
v 0.202113 0.000000 0.190827
v 0.222493 -0.056988 0.157853
v 0.255429 -0.035203 0.104561
v 0.255429 0.035203 0.104561
v 0.157853 -0.222493 0.056988
v 0.190827 -0.202113 -0.000000
v 0.104561 -0.255429 0.035203
v 0.104561 -0.255429 -0.035203
v 0.157853 -0.222493 -0.056988
v 0.032930 -0.101904 0.257071
v -0.032930 -0.101904 0.257071
v -0.053320 -0.158871 0.221863
v 0.000000 -0.194107 0.200086
v 0.053320 -0.158871 0.221863
v -0.157853 -0.222493 0.056988
v -0.104561 -0.255429 0.035203
v -0.190827 -0.202113 -0.000000
v -0.157853 -0.222493 -0.056988
v -0.104561 -0.255429 -0.035203
v -0.000000 -0.194107 -0.200086
v 0.053320 -0.158871 -0.221863
v -0.053320 -0.158871 -0.221863
v -0.032930 -0.101904 -0.257071
v 0.032930 -0.101904 -0.257071
v -0.032930 0.101904 -0.257071
v 0.032930 0.101904 -0.257071
v -0.053320 0.158872 -0.221863
v -0.000000 0.194107 -0.200086
v 0.053320 0.158871 -0.221863
v 0.157853 0.222493 -0.056988
v 0.190827 0.202113 -0.000000
v 0.104561 0.255429 -0.035203
v 0.104561 0.255429 0.035203
v 0.157853 0.222493 0.056988
v -0.000000 0.194107 0.200086
v 0.053320 0.158872 0.221863
v -0.053320 0.158872 0.221863
v -0.032930 0.101904 0.257071
v 0.032930 0.101904 0.257071
v -0.222493 -0.056988 0.157853
v -0.255429 -0.035203 0.104561
v -0.202113 0.000000 0.190827
v -0.222493 0.056988 0.157853
v -0.255429 0.035203 0.104561
v -0.157853 0.222493 0.056988
v -0.190827 0.202113 -0.000000
v -0.104561 0.255429 0.035203
v -0.104561 0.255429 -0.035203
v -0.157853 0.222493 -0.056988
v -0.222493 0.056988 -0.157853
v -0.255429 0.035203 -0.104561
v -0.202113 0.000000 -0.190827
v -0.222493 -0.056988 -0.157853
v -0.255429 -0.035203 -0.104561
v 0.270922 -0.054886 -0.086380
v 0.223661 -0.087269 -0.167810
v 0.194429 0.000000 -0.219856
v 0.223661 0.087269 -0.167810
v 0.270922 0.054886 -0.086380
v 0.223661 0.087269 0.167810
v 0.194429 0.000000 0.219856
v 0.223661 -0.087269 0.167810
v 0.270922 -0.054886 0.086380
v 0.270922 0.054886 0.086380
v 0.167428 -0.222169 0.084794
v 0.214725 -0.187414 -0.000000
v 0.090958 -0.272600 0.055437
v 0.090958 -0.272600 -0.055437
v 0.167428 -0.222169 -0.084794
v 0.047255 -0.083800 0.271192
v -0.047255 -0.083800 0.271192
v -0.076496 -0.169097 0.222078
v -0.000000 -0.219049 0.188262
v 0.076496 -0.169097 0.222078
v -0.167428 -0.222169 0.084794
v -0.090958 -0.272600 0.055437
v -0.214725 -0.187414 -0.000000
v -0.167428 -0.222169 -0.084794
v -0.090958 -0.272600 -0.055437
v -0.000000 -0.219049 -0.188262
v 0.076496 -0.169097 -0.222078
v -0.076496 -0.169097 -0.222078
v -0.047255 -0.083800 -0.271192
v 0.047255 -0.083800 -0.271192
v -0.047255 0.083800 -0.271192
v 0.047255 0.083800 -0.271192
v -0.076496 0.169097 -0.222078
v -0.000000 0.219049 -0.188262
v 0.076496 0.169097 -0.222078
v 0.167428 0.222169 -0.084794
v 0.214725 0.187414 0.000000
v 0.090958 0.272600 -0.055437
v 0.090958 0.272600 0.055437
v 0.167428 0.222169 0.084794
v -0.000000 0.219049 0.188262
v 0.076496 0.169097 0.222078
v -0.076496 0.169097 0.222078
v -0.047255 0.083800 0.271192
v 0.047255 0.083800 0.271192
v -0.223661 -0.087269 0.167810
v -0.270922 -0.054886 0.086380
v -0.194429 0.000000 0.219856
v -0.223661 0.087269 0.167810
v -0.270922 0.054886 0.086380
v -0.167428 0.222169 0.084794
v -0.214725 0.187414 -0.000000
v -0.090958 0.272600 0.055437
v -0.090958 0.272600 -0.055437
v -0.167428 0.222169 -0.084794
v -0.223661 0.087269 -0.167810
v -0.270922 0.054886 -0.086380
v -0.194429 0.000000 -0.219856
v -0.223661 -0.087269 -0.167810
v -0.270922 -0.054886 -0.086380
v 0.289309 -0.053681 -0.105251
v 0.246535 -0.083901 -0.181461
v 0.220095 -0.000000 -0.229424
v 0.246535 0.083901 -0.181461
v 0.289309 0.053681 -0.105251
v 0.246535 0.083901 0.181461
v 0.220095 0.000000 0.229424
v 0.246535 -0.083901 0.181461
v 0.289309 -0.053681 0.105251
v 0.289309 0.053681 0.105251
v 0.178802 -0.249033 0.081654
v 0.221581 -0.215032 -0.000000
v 0.109591 -0.293906 0.053414
v 0.109591 -0.293906 -0.053414
v 0.178802 -0.249033 -0.081654
v 0.042774 -0.103569 0.294509
v -0.042774 -0.103569 0.294509
v -0.069214 -0.184776 0.248927
v -0.000000 -0.230821 0.216991
v 0.069214 -0.184776 0.248927
v -0.178802 -0.249033 0.081654
v -0.109591 -0.293906 0.053414
v -0.221581 -0.215032 -0.000000
v -0.178802 -0.249033 -0.081654
v -0.109591 -0.293906 -0.053414
v -0.000000 -0.230821 -0.216991
v 0.069214 -0.184776 -0.248927
v -0.069214 -0.184776 -0.248927
v -0.042774 -0.103569 -0.294509
v 0.042774 -0.103569 -0.294509
v -0.042774 0.103569 -0.294509
v 0.042774 0.103569 -0.294509
v -0.069214 0.184776 -0.248927
v -0.000000 0.230821 -0.216991
v 0.069214 0.184776 -0.248927
v 0.178802 0.249033 -0.081654
v 0.221581 0.215032 -0.000000
v 0.109591 0.293906 -0.053414
v 0.109591 0.293906 0.053414
v 0.178802 0.249033 0.081654
v -0.000000 0.230821 0.216991
v 0.069214 0.184776 0.248927
v -0.069214 0.184776 0.248927
v -0.042774 0.103569 0.294509
v 0.042774 0.103569 0.294509
v -0.246535 -0.083901 0.181461
v -0.289309 -0.053681 0.105251
v -0.220095 0.000000 0.229424
v -0.246535 0.083901 0.181461
v -0.289309 0.053681 0.105251
v -0.178802 0.249033 0.081654
v -0.221581 0.215032 0.000000
v -0.109591 0.293906 0.053414
v -0.109591 0.293906 -0.053414
v -0.178802 0.249033 -0.081654
v -0.246535 0.083901 -0.181461
v -0.289309 0.053681 -0.105251
v -0.220095 0.000000 -0.229424
v -0.246535 -0.083901 -0.181461
v -0.289309 -0.053681 -0.105251
vt 0.103564 0.393571
vt 0.158928 0.372572
vt 0.193145 0.427548
vt 0.158928 0.482524
vt 0.103564 0.461525
vt 0.239130 0.482524
vt 0.204913 0.427548
vt 0.239130 0.372572
vt 0.294494 0.393571
vt 0.294494 0.461525
vt 0.272684 0.545484
vt 0.238467 0.600460
vt 0.183102 0.579461
vt 0.183102 0.511507
vt 0.238467 0.490508
vt 0.996032 0.274772
vt 0.996032 0.343206
vt 0.941056 0.364354
vt 0.907078 0.308989
vt 0.941056 0.253625
vt 0.172975 0.580237
vt 0.117611 0.601236
vt 0.083394 0.546260
vt 0.117611 0.491284
vt 0.172975 0.512283
vt 0.151822 0.253860
vt 0.185799 0.309224
vt 0.151822 0.364589
vt 0.096846 0.343441
vt 0.096846 0.275007
vt 0.896951 0.274772
vt 0.896951 0.343206
vt 0.841975 0.364354
vt 0.807998 0.308989
vt 0.841975 0.253625
vt 0.395844 0.427548
vt 0.361627 0.482524
vt 0.306263 0.461525
vt 0.306263 0.393571
vt 0.361627 0.372572
vt 0.763893 0.253625
vt 0.797871 0.308989
vt 0.763893 0.364354
vt 0.708917 0.343206
vt 0.708917 0.274772
vt 0.407612 0.393571
vt 0.462977 0.372572
vt 0.497194 0.427548
vt 0.462977 0.482524
vt 0.407612 0.461525
vt 0.508962 0.427548
vt 0.543179 0.372572
vt 0.598543 0.393571
vt 0.598543 0.461525
vt 0.543179 0.482524
vt 0.699892 0.461525
vt 0.644528 0.482524
vt 0.610311 0.427548
vt 0.644528 0.372572
vt 0.699892 0.393571
vt 0.078505 0.078837
vt 0.153042 0.050367
vt 0.152233 0.087085
vt 0.115104 0.101530
vt 0.078505 0.042738
vt 0.116324 0.028556
vt 0.078505 0.170970
vt 0.115104 0.148277
vt 0.003968 0.050367
vt 0.040687 0.028556
vt 0.078505 0.018112
vt 0.116324 0.003930
vt 0.041906 0.148277
vt 0.041906 0.101530
vt 0.153042 0.199440
vt 0.152233 0.162722
vt 0.004777 0.087085
vt 0.040687 0.003930
vt 0.003968 0.199440
vt 0.004777 0.162722
vt 0.116324 0.221251
vt 0.078505 0.207069
vt 0.040687 0.221251
vt 0.116324 0.245877
vt 0.078505 0.231695
vt 0.040687 0.245877
vt 0.313057 0.050366
vt 0.238520 0.078837
vt 0.238520 0.042738
vt 0.276339 0.028556
vt 0.312439 0.087773
vt 0.274621 0.101956
vt 0.163984 0.050366
vt 0.200702 0.028556
vt 0.238520 0.018112
vt 0.276339 0.003930
vt 0.238520 0.170970
vt 0.274621 0.147851
vt 0.202420 0.101956
vt 0.164602 0.087773
vt 0.200702 0.003930
vt 0.202420 0.147851
vt 0.313057 0.199440
vt 0.312439 0.162033
vt 0.163984 0.199440
vt 0.164602 0.162033
vt 0.276339 0.221251
vt 0.238520 0.207069
vt 0.200702 0.221251
vt 0.276339 0.245877
vt 0.238520 0.231695
vt 0.200702 0.245877
vt 0.472878 0.050366
vt 0.398341 0.078837
vt 0.398341 0.042738
vt 0.436159 0.028556
vt 0.472260 0.087773
vt 0.434441 0.101956
vt 0.323804 0.050366
vt 0.360522 0.028556
vt 0.398341 0.018112
vt 0.436159 0.003930
vt 0.398341 0.170970
vt 0.434441 0.147851
vt 0.362241 0.101956
vt 0.324422 0.087773
vt 0.360522 0.003930
vt 0.362241 0.147851
vt 0.472878 0.199440
vt 0.472260 0.162033
vt 0.323804 0.199440
vt 0.324422 0.162033
vt 0.436159 0.221251
vt 0.398341 0.207069
vt 0.360522 0.221251
vt 0.436159 0.245877
vt 0.398341 0.231695
vt 0.360522 0.245877
vt 0.952339 0.199323
vt 0.877802 0.170852
vt 0.914400 0.148159
vt 0.951530 0.162604
vt 0.914932 0.221016
vt 0.877802 0.206570
vt 0.877802 0.078719
vt 0.914400 0.101413
vt 0.914932 0.245642
vt 0.877802 0.231196
vt 0.803265 0.199323
vt 0.840672 0.221016
vt 0.841203 0.148159
vt 0.841203 0.101413
vt 0.952339 0.050249
vt 0.951530 0.086967
vt 0.840672 0.245642
vt 0.804073 0.162604
vt 0.803265 0.050249
vt 0.804073 0.086967
vt 0.877802 0.043001
vt 0.914932 0.028556
vt 0.840672 0.028556
vt 0.877802 0.018375
vt 0.914932 0.003930
vt 0.840672 0.003930
vt 0.632698 0.050366
vt 0.558161 0.078837
vt 0.558161 0.042738
vt 0.595980 0.028556
vt 0.631889 0.087085
vt 0.594760 0.101530
vt 0.483624 0.050366
vt 0.520342 0.028556
vt 0.558161 0.018112
vt 0.595980 0.003930
vt 0.558161 0.170970
vt 0.594760 0.148276
vt 0.521562 0.101530
vt 0.484433 0.087085
vt 0.520342 0.003930
vt 0.521562 0.148276
vt 0.632698 0.199440
vt 0.631889 0.162722
vt 0.483624 0.199440
vt 0.484433 0.162722
vt 0.595980 0.221251
vt 0.558161 0.207069
vt 0.520342 0.221251
vt 0.595980 0.245877
vt 0.558161 0.231694
vt 0.520342 0.245877
vt 0.643445 0.199322
vt 0.717982 0.170852
vt 0.717982 0.206570
vt 0.680852 0.221016
vt 0.644253 0.162604
vt 0.681383 0.148159
vt 0.792518 0.199322
vt 0.755111 0.221016
vt 0.717982 0.231196
vt 0.680852 0.245642
vt 0.717982 0.078719
vt 0.681383 0.101412
vt 0.754580 0.148159
vt 0.791710 0.162604
vt 0.755111 0.245642
vt 0.754580 0.101412
vt 0.643445 0.050249
vt 0.644253 0.086967
vt 0.792518 0.050249
vt 0.791710 0.086967
vt 0.680852 0.028556
vt 0.717982 0.043001
vt 0.755111 0.028556
vt 0.680852 0.003930
vt 0.717982 0.018375
vt 0.755111 0.003930
vt 0.452101 0.876317
vt 0.429153 0.839187
vt 0.453779 0.823968
vt 0.476727 0.861098
vt 0.894869 0.800229
vt 0.917817 0.763099
vt 0.942443 0.778319
vt 0.919495 0.815449
vt 0.163598 0.926896
vt 0.163598 0.880150
vt 0.188224 0.880150
vt 0.188224 0.926896
vt 0.371453 0.861098
vt 0.394400 0.823968
vt 0.419026 0.839187
vt 0.396079 0.876317
vt 0.128845 0.926896
vt 0.128845 0.880150
vt 0.153471 0.880150
vt 0.153471 0.926896
vt 0.971406 0.875781
vt 0.948458 0.838651
vt 0.973084 0.823432
vt 0.996032 0.860562
vt 0.361326 0.894593
vt 0.338378 0.931723
vt 0.313752 0.916503
vt 0.336700 0.879373
vt 0.098954 0.935359
vt 0.098954 0.982106
vt 0.074328 0.982106
vt 0.074328 0.935359
vt 0.859346 0.815684
vt 0.836398 0.778554
vt 0.861024 0.763334
vt 0.883972 0.800464
vt 0.134037 0.935359
vt 0.134037 0.981254
vt 0.109411 0.981254
vt 0.109411 0.935359
vt 0.392005 0.815985
vt 0.368632 0.778166
vt 0.393258 0.762946
vt 0.416631 0.800765
vt 0.475101 0.778166
vt 0.451728 0.815985
vt 0.427102 0.800765
vt 0.450476 0.762946
vt 0.915384 0.823667
vt 0.938331 0.860797
vt 0.913705 0.876017
vt 0.890758 0.838887
vt 0.833057 0.861486
vt 0.856005 0.824356
vt 0.880631 0.839575
vt 0.857683 0.876705
vt 0.118718 0.880630
vt 0.118718 0.927376
vt 0.094092 0.927376
vt 0.094092 0.880630
vt 0.533572 0.778166
vt 0.510199 0.815985
vt 0.485573 0.800765
vt 0.508947 0.762946
vt 0.144493 0.980774
vt 0.144493 0.934879
vt 0.169119 0.934879
vt 0.169119 0.980774
vt 0.567417 0.815984
vt 0.544044 0.778166
vt 0.568670 0.762946
vt 0.592043 0.800765
vt 0.204202 0.940483
vt 0.204202 0.986378
vt 0.179576 0.986378
vt 0.179576 0.940483
vt 0.627141 0.763334
vt 0.650514 0.801153
vt 0.625888 0.816373
vt 0.602515 0.778554
vt 0.660986 0.801153
vt 0.684359 0.763334
vt 0.708985 0.778554
vt 0.685612 0.816373
vt 0.822930 0.839576
vt 0.799983 0.876705
vt 0.775357 0.861486
vt 0.798304 0.824356
vt 0.059339 0.927376
vt 0.059339 0.880630
vt 0.083965 0.880630
vt 0.083965 0.927376
vt 0.740604 0.876705
vt 0.717656 0.839576
vt 0.742282 0.824356
vt 0.765230 0.861486
vt 0.719457 0.801153
vt 0.742830 0.763334
vt 0.767456 0.778554
vt 0.744083 0.816373
vt 0.214658 0.986377
vt 0.214658 0.940482
vt 0.239284 0.940482
vt 0.239284 0.986377
vt 0.802553 0.763334
vt 0.825927 0.801153
vt 0.801301 0.816373
vt 0.777928 0.778554
vt 0.280677 0.880150
vt 0.303625 0.917280
vt 0.278999 0.932499
vt 0.256052 0.895369
vt 0.707529 0.839576
vt 0.684581 0.876705
vt 0.659956 0.861486
vt 0.682903 0.824356
vt 0.049212 0.880630
vt 0.049212 0.927376
vt 0.024586 0.927376
vt 0.024586 0.880630
vt 0.602255 0.861486
vt 0.625202 0.824356
vt 0.649828 0.839575
vt 0.626881 0.876705
vt 0.003968 0.982106
vt 0.003968 0.935359
vt 0.028594 0.935359
vt 0.028594 0.982106
vt 0.569180 0.823968
vt 0.592128 0.861097
vt 0.567502 0.876317
vt 0.544554 0.839187
vt 0.511480 0.823968
vt 0.534427 0.861098
vt 0.509801 0.876317
vt 0.486854 0.839187
vt 0.245924 0.895369
vt 0.222977 0.932499
vt 0.198351 0.917280
vt 0.221299 0.880150
vt 0.063872 0.935359
vt 0.063872 0.982106
vt 0.039246 0.982106
vt 0.039246 0.935359
vt 0.788047 0.403940
vt 0.750917 0.389494
vt 0.745878 0.372337
vt 0.801242 0.393336
vt 0.727970 0.427313
vt 0.711661 0.427313
vt 0.788047 0.450686
vt 0.801242 0.461290
vt 0.750917 0.465131
vt 0.745878 0.482289
vt 0.863335 0.465131
vt 0.886282 0.427313
vt 0.902592 0.427313
vt 0.868375 0.482289
vt 0.863335 0.389494
vt 0.868375 0.372337
vt 0.826205 0.450686
vt 0.813010 0.461290
vt 0.826205 0.403940
vt 0.813010 0.393336
vt 0.979722 0.545249
vt 0.956775 0.507430
vt 0.961815 0.490272
vt 0.996032 0.545249
vt 0.919645 0.521875
vt 0.906450 0.511271
vt 0.956775 0.583067
vt 0.961815 0.600225
vt 0.919645 0.568622
vt 0.906450 0.579226
vt 0.016384 0.404989
vt 0.016384 0.450884
vt 0.003968 0.462153
vt 0.003968 0.393719
vt 0.054202 0.465066
vt 0.058944 0.483301
vt 0.054202 0.390806
vt 0.058944 0.372572
vt 0.077576 0.427936
vt 0.092922 0.427936
vt 0.883128 0.521875
vt 0.845999 0.507430
vt 0.840959 0.490272
vt 0.896323 0.511271
vt 0.823051 0.545249
vt 0.806742 0.545249
vt 0.883128 0.568622
vt 0.896323 0.579226
vt 0.845999 0.583067
vt 0.840959 0.600225
vt 0.648556 0.272095
vt 0.625183 0.309224
vt 0.609837 0.309224
vt 0.643814 0.253860
vt 0.648556 0.346354
vt 0.643814 0.364589
vt 0.686375 0.286277
vt 0.698790 0.275007
vt 0.686375 0.332172
vt 0.698790 0.343441
vt 0.523172 0.286277
vt 0.523172 0.332172
vt 0.510756 0.343441
vt 0.510756 0.275007
vt 0.560990 0.346354
vt 0.565733 0.364589
vt 0.560990 0.272095
vt 0.565733 0.253860
vt 0.584364 0.309224
vt 0.599710 0.309224
vt 0.077240 0.664196
vt 0.054293 0.626377
vt 0.059333 0.609219
vt 0.093550 0.664196
vt 0.017163 0.640822
vt 0.003968 0.630218
vt 0.054293 0.702014
vt 0.059333 0.719172
vt 0.017163 0.687569
vt 0.003968 0.698173
vt 0.450395 0.272095
vt 0.427022 0.309224
vt 0.411676 0.309224
vt 0.445653 0.253860
vt 0.450395 0.346354
vt 0.445653 0.364589
vt 0.488214 0.286277
vt 0.500629 0.275007
vt 0.488214 0.332172
vt 0.500629 0.343441
vt 0.783420 0.522111
vt 0.746290 0.507665
vt 0.741250 0.490508
vt 0.796615 0.511507
vt 0.723342 0.545484
vt 0.707033 0.545484
vt 0.783420 0.568857
vt 0.796615 0.579461
vt 0.746290 0.583302
vt 0.741250 0.600460
vt 0.121822 0.664196
vt 0.144770 0.702014
vt 0.139730 0.719172
vt 0.105513 0.664196
vt 0.181899 0.687569
vt 0.195094 0.698173
vt 0.144770 0.626377
vt 0.139730 0.609219
vt 0.181899 0.640822
vt 0.195094 0.630218
vt 0.620519 0.568857
vt 0.657649 0.583302
vt 0.662689 0.600460
vt 0.607325 0.579461
vt 0.680597 0.545484
vt 0.696906 0.545484
vt 0.620519 0.522111
vt 0.607325 0.511507
vt 0.657649 0.507665
vt 0.662689 0.490508
vt 0.691305 0.677906
vt 0.657088 0.622541
vt 0.679899 0.608443
vt 0.714116 0.663808
vt 0.574386 0.600460
vt 0.553239 0.545484
vt 0.576050 0.545484
vt 0.597197 0.600460
vt 0.574386 0.490508
vt 0.597197 0.490508
vt 0.725304 0.663808
vt 0.759521 0.608443
vt 0.782332 0.622541
vt 0.748115 0.677906
vt 0.136697 0.872167
vt 0.136697 0.804212
vt 0.159508 0.804212
vt 0.159508 0.872167
vt 0.520301 0.600460
vt 0.499153 0.545484
vt 0.521965 0.545484
vt 0.543112 0.600460
vt 0.520301 0.490508
vt 0.543112 0.490508
vt 0.670382 0.741253
vt 0.704599 0.685889
vt 0.727410 0.699987
vt 0.693193 0.755351
vt 0.302365 0.871390
vt 0.302365 0.803436
vt 0.325176 0.803436
vt 0.325176 0.871390
vt 0.827737 0.677906
vt 0.793520 0.622541
vt 0.816331 0.608443
vt 0.850548 0.663807
vt 0.489026 0.545484
vt 0.467879 0.600460
vt 0.445068 0.600460
vt 0.466215 0.545484
vt 0.467879 0.490508
vt 0.445068 0.490508
vt 0.918764 0.622306
vt 0.884547 0.677670
vt 0.861736 0.663572
vt 0.895953 0.608208
vt 0.192642 0.804212
vt 0.192642 0.872167
vt 0.169831 0.872167
vt 0.169831 0.804212
vt 0.350225 0.677906
vt 0.316008 0.622541
vt 0.338819 0.608443
vt 0.373036 0.663808
vt 0.057775 0.727155
vt 0.057775 0.795589
vt 0.034964 0.795589
vt 0.034964 0.727155
vt 0.570288 0.754963
vt 0.536311 0.699987
vt 0.559122 0.685889
vt 0.593099 0.740865
vt 0.216925 0.364589
vt 0.195926 0.309224
vt 0.218737 0.309224
vt 0.239736 0.364589
vt 0.216925 0.253860
vt 0.239736 0.253860
vt 0.526184 0.699987
vt 0.492206 0.754963
vt 0.469395 0.740865
vt 0.503372 0.685889
vt 0.952763 0.608208
vt 0.986980 0.663572
vt 0.964169 0.677670
vt 0.929952 0.622306
vt 0.229673 0.608443
vt 0.250821 0.663419
vt 0.228009 0.663419
vt 0.206862 0.608443
vt 0.229673 0.718396
vt 0.206862 0.718396
vt 0.384224 0.663808
vt 0.418441 0.608443
vt 0.441252 0.622541
vt 0.407035 0.677906
vt 0.225775 0.804212
vt 0.225775 0.872167
vt 0.202964 0.872167
vt 0.202964 0.804212
vt 0.380550 0.253860
vt 0.401549 0.309224
vt 0.378737 0.309224
vt 0.357738 0.253860
vt 0.380550 0.364589
vt 0.357738 0.364589
vt 0.459268 0.699987
vt 0.425291 0.754963
vt 0.402480 0.740865
vt 0.436457 0.685889
vt 0.003968 0.872006
vt 0.003968 0.803572
vt 0.026779 0.803572
vt 0.026779 0.872006
vt 0.369542 0.754963
vt 0.335564 0.699987
vt 0.358376 0.685889
vt 0.392353 0.740865
vt 0.060108 0.804212
vt 0.060108 0.872646
vt 0.037297 0.872646
vt 0.037297 0.804212
vt 0.291460 0.726379
vt 0.325437 0.781355
vt 0.302626 0.795453
vt 0.268649 0.740477
vt 0.324800 0.364589
vt 0.303801 0.309224
vt 0.326612 0.309224
vt 0.347611 0.364589
vt 0.324800 0.253860
vt 0.347611 0.253860
vt 0.201733 0.782131
vt 0.235711 0.727155
vt 0.258522 0.741253
vt 0.224545 0.796229
vt 0.390982 0.545484
vt 0.412130 0.490508
vt 0.434941 0.490508
vt 0.413793 0.545484
vt 0.412130 0.600460
vt 0.434941 0.600460
vt 0.509468 0.622541
vt 0.475251 0.677906
vt 0.452440 0.663808
vt 0.486657 0.608443
vt 0.103564 0.872167
vt 0.103564 0.804212
vt 0.126375 0.804212
vt 0.126375 0.872167
vt 0.554873 0.677906
vt 0.520656 0.622541
vt 0.543467 0.608443
vt 0.577684 0.663808
vt 0.272675 0.253860
vt 0.293674 0.309224
vt 0.270863 0.309224
vt 0.249864 0.253860
vt 0.272675 0.364589
vt 0.249864 0.364589
vt 0.134818 0.782131
vt 0.168795 0.727155
vt 0.191606 0.741253
vt 0.157629 0.796229
vt 0.070430 0.872646
vt 0.070430 0.804212
vt 0.093241 0.804212
vt 0.093241 0.872646
vt 0.090714 0.727155
vt 0.124691 0.782131
vt 0.101880 0.796229
vt 0.067902 0.741253
vt 0.626038 0.685889
vt 0.660255 0.741253
vt 0.637443 0.755351
vt 0.603226 0.699987
vt 0.359708 0.490508
vt 0.380855 0.545484
vt 0.358044 0.545484
vt 0.336897 0.490508
vt 0.359708 0.600460
vt 0.336897 0.600460
vt 0.996032 0.699752
vt 0.961815 0.755116
vt 0.939003 0.741018
vt 0.973220 0.685654
vt 0.258909 0.804212
vt 0.258909 0.872167
vt 0.236098 0.872167
vt 0.236098 0.804212
vt 0.261435 0.663419
vt 0.282582 0.608443
vt 0.305394 0.608443
vt 0.284246 0.663419
vt 0.282582 0.718395
vt 0.305394 0.718395
vt 0.871848 0.741018
vt 0.906065 0.685654
vt 0.928876 0.699752
vt 0.894659 0.755116
vt 0.335498 0.830901
vt 0.335498 0.762946
vt 0.358309 0.762946
vt 0.358309 0.830901
vt 0.611683 0.608443
vt 0.645900 0.663808
vt 0.623089 0.677906
vt 0.588872 0.622541
vt 0.827504 0.685889
vt 0.861721 0.741253
vt 0.838910 0.755351
vt 0.804693 0.699987
vt 0.305622 0.490508
vt 0.326769 0.545484
vt 0.303958 0.545484
vt 0.282811 0.490508
vt 0.305622 0.600460
vt 0.282811 0.600460
vt 0.794565 0.699987
vt 0.760348 0.755351
vt 0.737537 0.741253
vt 0.771754 0.685889
vt 0.292042 0.803436
vt 0.292042 0.871390
vt 0.269231 0.871390
vt 0.269231 0.803436
vn 0.872716 -0.004075 -0.488212
vn 0.872973 -0.000000 -0.487768
vn 0.873096 -0.002038 -0.487543
vn 0.873096 0.002038 -0.487543
vn 0.872715 0.004075 -0.488212
vn 0.872716 0.004076 0.488212
vn 0.872973 0.000000 0.487768
vn 0.873096 0.002038 0.487543
vn 0.873096 -0.002038 0.487543
vn 0.872716 -0.004075 0.488212
vn 0.558221 -0.828040 -0.052337
vn 0.567243 -0.823134 -0.026179
vn 0.564629 -0.825345 -0.000000
vn 0.567243 -0.823134 0.026179
vn 0.558221 -0.828040 0.052337
vn 0.000000 -0.569911 0.821707
vn -0.000000 -0.516801 0.856105
vn 0.000000 -0.530288 0.847818
vn -0.000000 -0.489471 0.872020
vn -0.000000 -0.489471 0.872020
vn -0.558222 -0.828040 -0.052337
vn -0.564629 -0.825345 0.000000
vn -0.567243 -0.823134 -0.026179
vn -0.567243 -0.823134 0.026179
vn -0.558221 -0.828040 0.052337
vn 0.000000 -0.569910 -0.821707
vn 0.000000 -0.516801 -0.856106
vn 0.000000 -0.530287 -0.847818
vn 0.000000 -0.489470 -0.872020
vn 0.000000 -0.489471 -0.872020
vn 0.000000 0.569910 -0.821707
vn 0.000000 0.516801 -0.856106
vn 0.000000 0.530287 -0.847818
vn 0.000000 0.489471 -0.872020
vn 0.000000 0.489471 -0.872020
vn 0.558221 0.828040 0.052337
vn 0.567243 0.823134 0.026179
vn 0.564628 0.825345 -0.000000
vn 0.567243 0.823134 -0.026179
vn 0.558221 0.828040 -0.052337
vn -0.000000 0.569910 0.821707
vn -0.000000 0.516801 0.856106
vn -0.000000 0.530287 0.847818
vn 0.000000 0.489471 0.872020
vn 0.000000 0.489471 0.872020
vn -0.872715 -0.004075 0.488212
vn -0.872973 -0.000000 0.487768
vn -0.873096 -0.002038 0.487544
vn -0.873096 0.002037 0.487543
vn -0.872716 0.004075 0.488212
vn -0.558221 0.828040 -0.052337
vn -0.567243 0.823134 -0.026179
vn -0.564629 0.825345 -0.000000
vn -0.567243 0.823134 0.026179
vn -0.558221 0.828040 0.052337
vn -0.872716 0.004075 -0.488212
vn -0.872973 -0.000000 -0.487768
vn -0.873096 0.002037 -0.487543
vn -0.873096 -0.002038 -0.487543
vn -0.872716 -0.004075 -0.488212
vn 0.951660 -0.306411 -0.021338
vn 0.623477 -0.569507 -0.535666
vn 0.915893 -0.265718 -0.300888
vn 0.744395 -0.323151 -0.584337
vn 0.330809 -0.015905 -0.943564
vn 0.620807 -0.000000 -0.783963
vn 0.623477 0.569507 -0.535666
vn 0.744395 0.323151 -0.584338
vn 0.951660 0.306411 0.021338
vn 0.944114 0.199951 -0.262048
vn 0.330810 0.015905 0.943564
vn 0.620807 -0.000000 0.783963
vn 0.623477 0.569507 0.535666
vn 0.744395 0.323151 0.584338
vn 0.623477 -0.569507 0.535666
vn 0.744394 -0.323151 0.584338
vn 0.944114 -0.199951 0.262048
vn 0.915893 0.265718 0.300888
vn 0.783963 -0.620807 0.000000
vn 0.584338 -0.744394 0.323150
vn -0.016618 -0.923714 0.382723
vn 0.262048 -0.944114 0.199951
vn 0.016618 -0.923714 -0.382723
vn 0.300888 -0.915893 -0.265718
vn 0.584338 -0.744395 -0.323150
vn -0.330810 -0.015905 0.943564
vn 0.132890 -0.219529 0.966513
vn -0.200018 -0.262151 0.944071
vn -0.623477 -0.569507 0.535666
vn -0.323181 -0.584299 0.744412
vn -0.000000 -0.783966 0.620804
vn 0.323181 -0.584299 0.744412
vn -0.300889 -0.915893 0.265718
vn -0.584338 -0.744395 0.323150
vn -0.951660 -0.306411 0.021338
vn -0.783963 -0.620808 0.000000
vn -0.623477 -0.569507 -0.535666
vn -0.584338 -0.744395 -0.323150
vn -0.262049 -0.944113 -0.199951
vn 0.323181 -0.584299 -0.744412
vn -0.000000 -0.783967 -0.620803
vn -0.323182 -0.584299 -0.744412
vn -0.330810 0.015905 -0.943564
vn -0.132890 -0.219529 -0.966513
vn 0.200017 -0.262151 -0.944071
vn 0.132890 0.219529 -0.966513
vn -0.200017 0.262151 -0.944071
vn -0.623478 0.569507 -0.535666
vn -0.323181 0.584299 -0.744412
vn -0.016618 0.923714 -0.382723
vn -0.000000 0.783966 -0.620804
vn 0.323181 0.584299 -0.744412
vn 0.783963 0.620807 0.000000
vn 0.584337 0.744395 -0.323150
vn 0.262049 0.944113 -0.199951
vn 0.016618 0.923714 0.382723
vn 0.300888 0.915893 0.265718
vn 0.584337 0.744395 0.323150
vn 0.323181 0.584299 0.744412
vn -0.000000 0.783966 0.620803
vn -0.623477 0.569507 0.535666
vn -0.323181 0.584299 0.744412
vn -0.132890 0.219529 0.966513
vn 0.200017 0.262151 0.944071
vn -0.915893 -0.265718 0.300888
vn -0.744394 -0.323151 0.584338
vn -0.620807 -0.000000 0.783964
vn -0.744395 0.323151 0.584338
vn -0.951660 0.306411 -0.021338
vn -0.944114 0.199951 0.262048
vn -0.783963 0.620807 0.000000
vn -0.584337 0.744395 0.323150
vn -0.262049 0.944113 0.199951
vn -0.300888 0.915893 -0.265718
vn -0.584337 0.744395 -0.323150
vn -0.915893 0.265718 -0.300888
vn -0.744395 0.323150 -0.584337
vn -0.620807 -0.000000 -0.783963
vn -0.744394 -0.323151 -0.584338
vn -0.944114 -0.199951 -0.262048
vn 0.371881 -0.374575 0.849351
vn -0.291517 -0.938633 -0.184353
vn 0.219488 -0.745924 0.628826
vn -0.299881 -0.936859 -0.179906
vn -0.628572 0.000000 -0.777752
vn -0.635938 0.000000 -0.771740
vn -0.291517 0.938633 -0.184353
vn -0.299881 0.936859 -0.179905
vn 0.305011 0.577491 0.757280
vn 0.303029 0.574813 0.760108
vn -0.628572 -0.000000 0.777752
vn -0.635937 -0.000000 0.771741
vn -0.291517 0.938633 0.184353
vn -0.299880 0.936860 0.179906
vn -0.291517 -0.938633 0.184353
vn -0.299880 -0.936860 0.179906
vn 0.305011 -0.577491 -0.757279
vn 0.303029 -0.574813 -0.760107
vn 0.371881 0.374575 -0.849351
vn 0.219488 0.745925 -0.628825
vn 0.777751 0.628572 -0.000000
vn 0.184354 0.291517 0.938633
vn 0.771741 0.635937 -0.000000
vn 0.179906 0.299880 0.936859
vn -0.757279 -0.305011 0.577491
vn -0.760108 -0.303028 0.574813
vn -0.849352 -0.371880 -0.374576
vn -0.628825 -0.219488 -0.745925
vn 0.184353 0.291517 -0.938633
vn 0.179906 0.299880 -0.936859
vn 0.761845 0.610544 0.216397
vn -0.588030 0.753924 0.292949
vn 0.381735 0.855166 0.350670
vn -0.589428 0.754262 0.289246
vn -0.944151 -0.189831 -0.269340
vn -0.943786 -0.183817 -0.274736
vn -0.000000 -0.760500 -0.649338
vn -0.000000 -0.752632 -0.658441
vn 0.944151 -0.189831 -0.269339
vn 0.943786 -0.183817 -0.274736
vn 0.849351 -0.371881 0.374576
vn -0.184354 0.291517 0.938633
vn 0.628825 -0.219488 0.745925
vn -0.179907 0.299880 0.936859
vn -0.777751 0.628572 0.000000
vn -0.771741 0.635937 -0.000000
vn -0.184354 0.291517 -0.938633
vn -0.179907 0.299880 -0.936859
vn 0.757279 -0.305012 -0.577491
vn 0.760107 -0.303029 -0.574814
vn 0.944151 -0.189831 0.269339
vn 0.000000 -0.760500 0.649338
vn 0.943786 -0.183817 0.274736
vn 0.000000 -0.752632 0.658441
vn -0.944151 -0.189831 0.269339
vn -0.943786 -0.183817 0.274736
vn -0.761845 0.610545 -0.216397
vn -0.381735 0.855166 -0.350669
vn 0.588030 0.753924 -0.292949
vn 0.589428 0.754263 -0.289245
vn 0.761845 -0.610544 -0.216397
vn -0.588030 -0.753924 -0.292949
vn 0.381735 -0.855166 -0.350670
vn -0.589428 -0.754263 -0.289246
vn -0.944151 0.189831 0.269339
vn -0.943786 0.183818 0.274736
vn 0.000000 0.760500 0.649338
vn 0.000000 0.752632 0.658441
vn 0.944151 0.189831 0.269339
vn 0.943786 0.183818 0.274736
vn 0.777752 -0.628572 0.000000
vn 0.184353 -0.291517 -0.938633
vn 0.771741 -0.635937 0.000000
vn 0.179907 -0.299880 -0.936859
vn -0.757280 0.305011 -0.577491
vn -0.760108 0.303028 -0.574813
vn -0.849352 0.371881 0.374576
vn -0.628826 0.219488 0.745925
vn 0.184354 -0.291517 0.938633
vn 0.179907 -0.299880 0.936859
vn 0.944151 0.189831 -0.269339
vn 0.000000 0.760499 -0.649339
vn 0.943786 0.183817 -0.274736
vn 0.000000 0.752632 -0.658442
vn -0.944151 0.189831 -0.269339
vn -0.943786 0.183817 -0.274736
vn -0.761845 -0.610544 0.216397
vn -0.381735 -0.855166 0.350670
vn 0.588030 -0.753924 0.292949
vn 0.589428 -0.754262 0.289246
vn -0.371881 -0.374576 -0.849351
vn 0.291517 -0.938633 0.184353
vn -0.219488 -0.745924 -0.628826
vn 0.299881 -0.936860 0.179906
vn 0.628572 0.000000 0.777752
vn 0.635937 -0.000000 0.771741
vn 0.291517 0.938633 0.184353
vn 0.299881 0.936859 0.179905
vn -0.305012 0.577491 -0.757279
vn -0.303029 0.574813 -0.760108
vn -0.777753 -0.628571 -0.000000
vn -0.184354 -0.291516 0.938633
vn -0.771742 -0.635936 0.000000
vn -0.179907 -0.299880 0.936859
vn 0.757280 0.305011 0.577491
vn 0.760108 0.303028 0.574813
vn 0.849352 0.371880 -0.374576
vn 0.628825 0.219488 -0.745925
vn -0.184354 -0.291516 -0.938633
vn -0.179907 -0.299880 -0.936859
vn -0.371881 0.374575 0.849352
vn 0.291517 0.938633 -0.184353
vn -0.219488 0.745924 0.628826
vn 0.299881 0.936859 -0.179906
vn 0.628572 0.000000 -0.777751
vn 0.635938 -0.000000 -0.771740
vn 0.291517 -0.938633 -0.184353
vn 0.299881 -0.936859 -0.179906
vn -0.305011 -0.577491 0.757279
vn -0.303028 -0.574813 0.760108
vn -0.782931 -0.043000 0.620621
vn -0.890735 -0.169937 0.421560
vn -0.799534 -0.114361 0.589633
vn -0.884466 -0.176190 0.432061
vn -0.966707 0.000000 0.255887
vn -0.959798 -0.000000 0.280692
vn -0.890735 0.169937 0.421560
vn -0.884466 0.176189 0.432061
vn -0.792952 0.064526 0.605857
vn -0.791239 0.085806 0.605457
vn -0.966706 0.000000 -0.255888
vn -0.959797 0.000000 -0.280694
vn -0.890735 0.169936 -0.421560
vn -0.884466 0.176188 -0.432062
vn -0.890735 -0.169935 -0.421560
vn -0.884466 -0.176187 -0.432062
vn -0.792953 -0.064525 -0.605856
vn -0.791239 -0.085805 -0.605457
vn -0.782931 0.043000 -0.620620
vn -0.799535 0.114360 -0.589632
vn -0.523919 0.851768 0.000000
vn -0.533668 0.832452 0.149071
vn -0.474622 0.880190 0.000000
vn -0.508177 0.845271 0.165147
vn -0.694660 0.706947 0.132942
vn -0.695573 0.709081 0.115678
vn -0.727410 0.680477 -0.088462
vn -0.661211 0.734223 -0.154000
vn -0.533668 0.832452 -0.149071
vn -0.508177 0.845271 -0.165148
vn 0.137659 0.577065 -0.805013
vn -0.103274 0.587744 -0.802429
vn 0.050208 0.589240 -0.806397
vn -0.075346 0.575521 -0.814309
vn -0.210963 0.459995 -0.862496
vn -0.172817 0.470101 -0.865529
vn 0.000000 0.385011 -0.922912
vn -0.000000 0.428383 -0.903597
vn 0.210964 0.459995 -0.862496
vn 0.172817 0.470101 -0.865529
vn 0.727411 0.680476 0.088463
vn 0.533668 0.832452 0.149071
vn 0.661211 0.734223 0.154001
vn 0.508177 0.845271 0.165148
vn 0.523922 0.851767 -0.000001
vn 0.474623 0.880189 -0.000000
vn 0.533669 0.832452 -0.149071
vn 0.508178 0.845270 -0.165147
vn 0.694661 0.706946 -0.132943
vn 0.695574 0.709081 -0.115679
vn 0.210963 0.459995 0.862496
vn -0.000000 0.385011 0.922912
vn 0.172817 0.470100 0.865529
vn -0.000000 0.428382 0.903598
vn -0.210963 0.459994 0.862496
vn -0.172817 0.470100 0.865529
vn -0.137660 0.577065 0.805013
vn -0.050209 0.589241 0.806396
vn 0.103274 0.587744 0.802428
vn 0.075346 0.575521 0.814309
vn 0.137657 -0.577065 0.805013
vn -0.103274 -0.587744 0.802428
vn 0.050207 -0.589240 0.806396
vn -0.075345 -0.575521 0.814309
vn -0.210962 -0.459995 0.862496
vn -0.172816 -0.470101 0.865529
vn -0.000000 -0.385012 0.922912
vn -0.000000 -0.428384 0.903597
vn 0.210961 -0.459996 0.862496
vn 0.172815 -0.470101 0.865529
vn -0.523920 -0.851768 0.000000
vn -0.533668 -0.832452 -0.149071
vn -0.474623 -0.880189 -0.000000
vn -0.508178 -0.845271 -0.165147
vn -0.694661 -0.706946 -0.132943
vn -0.695573 -0.709082 -0.115678
vn -0.727410 -0.680477 0.088462
vn -0.661210 -0.734224 0.154000
vn -0.533668 -0.832452 0.149071
vn -0.508177 -0.845271 0.165147
vn 0.210962 -0.459995 -0.862496
vn -0.000000 -0.385011 -0.922912
vn 0.172817 -0.470100 -0.865529
vn 0.000000 -0.428383 -0.903598
vn -0.210962 -0.459995 -0.862496
vn -0.172817 -0.470100 -0.865529
vn -0.137659 -0.577066 -0.805012
vn -0.050209 -0.589241 -0.806396
vn 0.103274 -0.587745 -0.802428
vn 0.075346 -0.575522 -0.814308
vn 0.782931 -0.043000 -0.620621
vn 0.890735 -0.169937 -0.421560
vn 0.799534 -0.114360 -0.589632
vn 0.884466 -0.176189 -0.432061
vn 0.966707 -0.000000 -0.255887
vn 0.959798 -0.000000 -0.280692
vn 0.890735 0.169937 -0.421560
vn 0.884466 0.176189 -0.432061
vn 0.792952 0.064526 -0.605858
vn 0.791239 0.085806 -0.605458
vn 0.523922 -0.851767 0.000000
vn 0.533668 -0.832452 0.149071
vn 0.474624 -0.880189 0.000000
vn 0.508177 -0.845271 0.165148
vn 0.694660 -0.706947 0.132943
vn 0.695573 -0.709082 0.115679
vn 0.727410 -0.680477 -0.088462
vn 0.661211 -0.734224 -0.154000
vn 0.533668 -0.832452 -0.149070
vn 0.508177 -0.845271 -0.165146
vn 0.782930 0.043000 0.620621
vn 0.890735 0.169937 0.421560
vn 0.799534 0.114360 0.589633
vn 0.884466 0.176188 0.432061
vn 0.966707 0.000001 0.255886
vn 0.959798 0.000000 0.280692
vn 0.890735 -0.169937 0.421560
vn 0.884466 -0.176189 0.432061
vn 0.792952 -0.064526 0.605858
vn 0.791238 -0.085806 0.605458
vn 0.676886 -0.370786 0.635879
vn 0.075983 -0.989073 -0.126336
vn 0.500130 -0.741702 0.446931
vn -0.156355 -0.831578 -0.532946
vn -0.392917 0.000000 -0.919574
vn -0.349298 0.000000 -0.937012
vn 0.075984 0.989073 -0.126336
vn -0.156353 0.831578 -0.532947
vn 0.605915 0.570975 0.553945
vn 0.603274 0.571067 0.556725
vn 0.075985 0.989073 0.126337
vn -0.392917 0.000000 0.919574
vn -0.156353 0.831578 0.532947
vn -0.349298 0.000000 0.937012
vn 0.075984 -0.989073 0.126337
vn -0.156354 -0.831578 0.532947
vn 0.605915 -0.570975 -0.553944
vn 0.603274 -0.571067 -0.556725
vn 0.676887 0.370786 -0.635878
vn 0.500132 0.741702 -0.446930
vn 0.970549 0.240905 -0.000000
vn 0.562303 0.109807 0.819608
vn 0.958817 0.284026 -0.000000
vn 0.147695 -0.082381 0.985596
vn -0.474278 -0.453638 0.754501
vn -0.680497 -0.630532 0.373301
vn -0.597207 -0.552237 -0.581703
vn -0.587910 -0.568731 -0.575245
vn 0.562303 0.109807 -0.819608
vn 0.147695 -0.082381 -0.985596
vn 0.581422 0.562047 0.588262
vn -0.376732 0.669587 0.640098
vn 0.580998 0.555110 0.595227
vn -0.752817 0.413576 0.512076
vn -0.972279 -0.186740 0.140715
vn -0.844717 -0.526752 -0.094790
vn 0.000000 -0.932846 -0.360277
vn 0.000000 -0.925326 -0.379173
vn 0.972279 -0.186741 0.140715
vn 0.844717 -0.526752 -0.094790
vn -0.562304 0.109807 0.819608
vn -0.147695 -0.082381 0.985596
vn 0.597207 -0.552237 0.581703
vn 0.587910 -0.568731 0.575245
vn -0.970549 0.240904 0.000000
vn -0.958817 0.284026 -0.000000
vn -0.562303 0.109808 -0.819608
vn -0.147695 -0.082381 -0.985596
vn 0.474278 -0.453638 -0.754501
vn 0.680497 -0.630532 -0.373301
vn 0.972279 -0.186740 -0.140715
vn -0.000000 -0.932845 0.360279
vn 0.844718 -0.526751 0.094791
vn 0.000000 -0.925325 0.379175
vn -0.972280 -0.186740 -0.140715
vn -0.844718 -0.526751 0.094792
vn -0.581421 0.562046 -0.588263
vn -0.580998 0.555109 -0.595228
vn 0.376732 0.669586 -0.640099
vn 0.752816 0.413576 -0.512076
vn 0.581422 -0.562049 -0.588260
vn -0.376733 -0.669588 -0.640097
vn 0.580998 -0.555111 -0.595226
vn -0.752817 -0.413577 -0.512075
vn -0.972280 0.186740 -0.140715
vn -0.844718 0.526751 0.094791
vn 0.000000 0.932845 0.360278
vn 0.000000 0.925325 0.379175
vn 0.972280 0.186740 -0.140714
vn 0.844718 0.526751 0.094791
vn 0.970549 -0.240905 0.000000
vn 0.562304 -0.109808 -0.819608
vn 0.958817 -0.284026 0.000000
vn 0.147695 0.082382 -0.985596
vn -0.474278 0.453639 -0.754501
vn -0.680497 0.630532 -0.373301
vn -0.597207 0.552237 0.581703
vn -0.587911 0.568730 0.575245
vn 0.562304 -0.109808 0.819608
vn 0.147695 0.082381 0.985596
vn 0.972280 0.186740 0.140715
vn -0.000000 0.932845 -0.360278
vn 0.844718 0.526751 -0.094791
vn 0.000000 0.925325 -0.379175
vn -0.972279 0.186740 0.140715
vn -0.844718 0.526751 -0.094791
vn -0.581422 -0.562048 0.588261
vn -0.580998 -0.555110 0.595226
vn 0.376732 -0.669588 0.640098
vn 0.752816 -0.413576 0.512076
vn -0.676887 -0.370787 -0.635878
vn -0.075984 -0.989073 0.126336
vn -0.500131 -0.741702 -0.446931
vn 0.156354 -0.831578 0.532946
vn 0.392917 -0.000000 0.919574
vn 0.349299 0.000000 0.937012
vn -0.075984 0.989073 0.126337
vn 0.156353 0.831578 0.532947
vn -0.605916 0.570975 -0.553943
vn -0.603274 0.571067 -0.556725
vn -0.970549 -0.240905 0.000000
vn -0.562303 -0.109807 0.819608
vn -0.958817 -0.284026 0.000000
vn -0.147695 0.082381 0.985596
vn 0.474278 0.453639 0.754501
vn 0.680497 0.630532 0.373301
vn 0.597208 0.552236 -0.581703
vn 0.587911 0.568730 -0.575245
vn -0.562304 -0.109807 -0.819608
vn -0.147695 0.082381 -0.985596
vn -0.676887 0.370787 0.635878
vn -0.075983 0.989073 -0.126336
vn -0.500131 0.741702 0.446931
vn 0.156354 0.831578 -0.532946
vn 0.392917 -0.000000 -0.919574
vn 0.349297 -0.000000 -0.937012
vn -0.075984 -0.989073 -0.126336
vn 0.156353 -0.831578 -0.532946
vn -0.605916 -0.570975 0.553943
vn -0.603274 -0.571067 0.556724
f 202/2/1 203/3/2 201/1/3
f 201/1/3 203/3/2 205/5/4
f 203/3/2 204/4/5 205/5/4
f 206/6/6 207/7/7 210/10/8
f 210/10/8 207/7/7 209/9/9
f 207/7/7 208/8/10 209/9/9
f 211/12/11 213/13/12 212/11/13
f 213/13/12 214/14/14 212/11/13
f 212/11/13 214/14/14 215/15/15
f 219/19/16 220/20/17 218/18/18
f 218/18/18 220/20/17 217/17/19
f 216/16/20 217/17/19 220/20/17
f 221/22/21 223/23/22 222/21/23
f 222/21/23 223/23/22 225/25/24
f 223/23/22 224/24/25 225/25/24
f 226/27/26 228/28/27 227/26/28
f 227/26/28 228/28/27 230/30/29
f 228/28/27 229/29/30 230/30/29
f 234/34/31 235/35/32 233/33/33
f 233/33/33 235/35/32 231/32/34
f 232/31/35 231/32/34 235/35/32
f 236/37/36 238/38/37 237/36/38
f 238/38/37 239/39/39 237/36/38
f 237/36/38 239/39/39 240/40/40
f 241/42/41 243/43/42 242/41/43
f 242/41/43 243/43/42 245/45/44
f 243/43/42 244/44/45 245/45/44
f 246/47/46 248/48/47 247/46/48
f 247/46/48 248/48/47 250/50/49
f 248/48/47 249/49/50 250/50/49
f 251/52/51 253/53/52 252/51/53
f 253/53/52 254/54/54 252/51/53
f 252/51/53 254/54/54 255/55/55
f 256/57/56 258/58/57 257/56/58
f 257/56/58 258/58/57 260/60/59
f 258/58/57 259/59/60 260/60/59
f 1/61/61 5/62/62 21/64/63
f 21/64/63 5/62/62 22/63/64
f 3/88/65 23/89/66 5/87/62
f 5/87/62 23/89/66 22/90/64
f 3/88/65 4/93/67 23/89/66
f 23/89/66 4/93/67 24/94/68
f 2/67/69 25/68/70 4/75/67
f 4/75/67 25/68/70 24/76/68
f 2/67/69 1/61/61 25/68/70
f 25/68/70 1/61/61 21/64/63
f 6/114/71 27/115/72 8/113/73
f 8/113/73 27/115/72 26/116/74
f 6/114/71 7/119/75 27/115/72
f 27/115/72 7/119/75 28/120/76
f 1/61/61 29/74/77 7/69/75
f 7/69/75 29/74/77 28/77/76
f 1/61/61 2/67/69 29/74/77
f 29/74/77 2/67/69 30/73/78
f 2/67/69 8/79/73 30/73/78
f 30/73/78 8/79/73 26/80/74
f 1/61/61 7/69/75 32/65/79
f 32/65/79 7/69/75 31/70/80
f 17/140/81 33/141/82 7/139/75
f 7/139/75 33/141/82 31/142/80
f 17/140/81 20/145/83 33/141/82
f 33/141/82 20/145/83 34/146/84
f 20/145/83 5/153/62 34/146/84
f 34/146/84 5/153/62 35/154/85
f 1/61/61 32/65/79 5/62/62
f 5/62/62 32/65/79 35/66/85
f 6/114/71 11/123/86 36/125/87
f 36/125/87 11/123/86 37/128/88
f 12/131/89 38/132/90 11/123/86
f 11/123/86 38/132/90 37/128/88
f 12/149/89 17/140/81 38/150/90
f 38/150/90 17/140/81 39/144/91
f 7/139/75 40/143/92 17/140/81
f 17/140/81 40/143/92 39/144/91
f 7/119/75 6/114/71 40/126/92
f 40/126/92 6/114/71 36/125/87
f 17/140/81 12/149/89 42/151/93
f 42/151/93 12/149/89 41/156/94
f 9/166/95 43/167/96 12/165/89
f 12/165/89 43/167/96 41/168/94
f 9/166/95 16/171/97 43/167/96
f 43/167/96 16/171/97 44/172/98
f 20/145/83 45/152/99 16/157/97
f 16/157/97 45/152/99 44/158/98
f 20/145/83 17/140/81 45/152/99
f 45/152/99 17/140/81 42/151/93
f 5/153/62 20/145/83 47/160/100
f 47/160/100 20/145/83 46/159/101
f 16/157/97 48/161/102 20/145/83
f 20/145/83 48/161/102 46/159/101
f 16/103/97 14/97/103 48/104/102
f 48/104/102 14/97/103 49/98/104
f 14/97/103 3/88/65 49/98/104
f 49/98/104 3/88/65 50/92/105
f 5/87/62 47/91/100 3/88/65
f 3/88/65 47/91/100 50/92/105
f 3/88/65 14/97/103 52/99/106
f 52/99/106 14/97/103 51/102/107
f 15/105/108 53/106/109 14/97/103
f 14/97/103 53/106/109 51/102/107
f 15/191/108 19/192/110 53/194/109
f 53/194/109 19/192/110 54/193/111
f 4/197/67 55/198/112 19/192/110
f 19/192/110 55/198/112 54/193/111
f 4/93/67 3/88/65 55/100/112
f 55/100/112 3/88/65 52/99/106
f 2/67/69 4/75/67 57/82/113
f 57/82/113 4/75/67 56/81/114
f 19/192/110 58/203/115 4/197/67
f 4/197/67 58/203/115 56/204/114
f 19/192/110 18/201/116 58/203/115
f 58/203/115 18/201/116 59/206/117
f 18/201/116 8/209/73 59/206/117
f 59/206/117 8/209/73 60/210/118
f 2/67/69 57/82/113 8/79/73
f 8/79/73 57/82/113 60/83/118
f 8/209/73 18/201/116 62/213/119
f 62/213/119 18/201/116 61/212/120
f 13/207/121 63/211/122 18/201/116
f 18/201/116 63/211/122 61/212/120
f 13/129/121 11/123/86 63/130/122
f 63/130/122 11/123/86 64/124/123
f 11/123/86 6/114/71 64/124/123
f 64/124/123 6/114/71 65/118/124
f 8/113/73 62/117/119 6/114/71
f 6/114/71 62/117/119 65/118/124
f 9/166/95 12/165/89 67/170/125
f 67/170/125 12/165/89 66/169/126
f 11/123/86 68/134/127 12/131/89
f 12/131/89 68/134/127 66/135/126
f 11/123/86 13/129/121 68/134/127
f 68/134/127 13/129/121 69/133/128
f 10/175/129 70/176/130 13/181/121
f 13/181/121 70/176/130 69/182/128
f 10/175/129 9/166/95 70/176/130
f 70/176/130 9/166/95 67/170/125
f 10/175/129 13/181/121 72/186/131
f 72/186/131 13/181/121 71/185/132
f 18/201/116 73/202/133 13/207/121
f 13/207/121 73/202/133 71/208/132
f 18/201/116 19/192/110 73/202/133
f 73/202/133 19/192/110 74/196/134
f 19/192/110 15/191/108 74/196/134
f 74/196/134 15/191/108 75/195/135
f 10/175/129 72/186/131 15/183/108
f 15/183/108 72/186/131 75/187/135
f 10/175/129 15/183/108 77/180/136
f 77/180/136 15/183/108 76/184/137
f 14/97/103 78/108/138 15/105/108
f 15/105/108 78/108/138 76/109/137
f 14/97/103 16/103/97 78/108/138
f 78/108/138 16/103/97 79/107/139
f 9/166/95 80/177/140 16/171/97
f 16/171/97 80/177/140 79/178/139
f 9/166/95 10/175/129 80/177/140
f 80/177/140 10/175/129 77/180/136
f 21/217/141 22/218/142 81/220/143
f 81/220/143 22/218/142 82/219/144
f 23/89/145 83/95/146 22/90/142
f 22/90/142 83/95/146 82/96/144
f 23/89/145 24/94/147 83/95/146
f 83/95/146 24/94/147 84/101/148
f 25/222/149 85/223/150 24/221/147
f 24/221/147 85/223/150 84/224/148
f 25/225/149 21/226/141 85/228/150
f 85/228/150 21/226/141 81/227/143
f 27/115/151 87/121/152 26/116/153
f 26/116/153 87/121/152 86/122/154
f 27/115/151 28/120/155 87/121/152
f 87/121/152 28/120/155 88/127/156
f 29/230/157 89/231/158 28/229/155
f 28/229/155 89/231/158 88/232/156
f 29/233/157 30/234/159 89/236/158
f 89/236/158 30/234/159 90/235/160
f 30/237/159 26/238/153 90/240/160
f 90/240/160 26/238/153 86/239/154
f 32/65/161 31/70/162 92/71/163
f 92/71/163 31/70/162 91/78/164
f 33/242/165 93/243/166 31/241/162
f 31/241/162 93/243/166 91/244/164
f 33/245/165 34/246/167 93/248/166
f 93/248/166 34/246/167 94/247/168
f 34/249/167 35/250/169 94/252/168
f 94/252/168 35/250/169 95/251/170
f 32/65/161 92/71/163 35/66/169
f 35/66/169 92/71/163 95/72/170
f 36/253/171 37/254/172 96/256/173
f 96/256/173 37/254/172 97/255/174
f 38/258/175 98/259/176 37/257/172
f 37/257/172 98/259/176 97/260/174
f 38/150/175 39/144/177 98/155/176
f 98/155/176 39/144/177 99/148/178
f 40/143/179 100/147/180 39/144/177
f 39/144/177 100/147/180 99/148/178
f 40/261/179 36/262/171 100/264/180
f 100/264/180 36/262/171 96/263/173
f 42/265/181 41/266/182 102/268/183
f 102/268/183 41/266/182 101/267/184
f 43/167/185 103/173/186 41/168/182
f 41/168/182 103/173/186 101/174/184
f 43/167/185 44/172/187 103/173/186
f 103/173/186 44/172/187 104/179/188
f 45/270/189 105/271/190 44/269/187
f 44/269/187 105/271/190 104/272/188
f 45/273/189 42/274/181 105/276/190
f 105/276/190 42/274/181 102/275/183
f 47/160/191 46/159/192 107/163/193
f 107/163/193 46/159/192 106/162/194
f 48/161/195 108/164/196 46/159/192
f 46/159/192 108/164/196 106/162/194
f 48/277/195 49/278/197 108/280/196
f 108/280/196 49/278/197 109/279/198
f 49/281/197 50/282/199 109/284/198
f 109/284/198 50/282/199 110/283/200
f 47/286/191 107/287/193 50/285/199
f 50/285/199 107/287/193 110/288/200
f 52/289/201 51/290/202 112/292/203
f 112/292/203 51/290/202 111/291/204
f 53/294/205 113/295/206 51/293/202
f 51/293/202 113/295/206 111/296/204
f 53/194/205 54/193/207 113/200/206
f 113/200/206 54/193/207 114/199/208
f 55/198/209 115/205/210 54/193/207
f 54/193/207 115/205/210 114/199/208
f 55/297/209 52/298/201 115/300/210
f 115/300/210 52/298/201 112/299/203
f 57/82/211 56/81/212 117/85/213
f 117/85/213 56/81/212 116/84/214
f 58/302/215 118/303/216 56/301/212
f 56/301/212 118/303/216 116/304/214
f 58/305/215 59/306/217 118/308/216
f 118/308/216 59/306/217 119/307/218
f 59/309/217 60/310/219 119/312/218
f 119/312/218 60/310/219 120/311/220
f 57/82/211 117/85/213 60/83/219
f 60/83/219 117/85/213 120/86/220
f 62/213/221 61/212/222 122/216/223
f 122/216/223 61/212/222 121/215/224
f 63/211/225 123/214/226 61/212/222
f 61/212/222 123/214/226 121/215/224
f 63/313/225 64/314/227 123/316/226
f 123/316/226 64/314/227 124/315/228
f 64/317/227 65/318/229 124/320/228
f 124/320/228 65/318/229 125/319/230
f 62/322/221 122/323/223 65/321/229
f 65/321/229 122/323/223 125/324/230
f 67/325/231 66/326/232 127/328/233
f 127/328/233 66/326/232 126/327/234
f 68/134/235 128/137/236 66/135/232
f 66/135/232 128/137/236 126/138/234
f 68/134/235 69/133/237 128/137/236
f 128/137/236 69/133/237 129/136/238
f 70/330/239 130/331/240 69/329/237
f 69/329/237 130/331/240 129/332/238
f 70/333/239 67/334/231 130/336/240
f 130/336/240 67/334/231 127/335/233
f 72/186/241 71/185/242 132/189/243
f 132/189/243 71/185/242 131/188/244
f 73/338/245 133/339/246 71/337/242
f 71/337/242 133/339/246 131/340/244
f 73/341/245 74/342/247 133/344/246
f 133/344/246 74/342/247 134/343/248
f 74/345/247 75/346/249 134/348/248
f 134/348/248 75/346/249 135/347/250
f 72/186/241 132/189/243 75/187/249
f 75/187/249 132/189/243 135/190/250
f 77/349/251 76/350/252 137/352/253
f 137/352/253 76/350/252 136/351/254
f 78/108/255 138/111/256 76/109/252
f 76/109/252 138/111/256 136/112/254
f 78/108/255 79/107/257 138/111/256
f 138/111/256 79/107/257 139/110/258
f 80/354/259 140/355/260 79/353/257
f 79/353/257 140/355/260 139/356/258
f 80/357/259 77/358/251 140/360/260
f 140/360/260 77/358/251 137/359/253
f 81/361/261 82/362/262 141/364/263
f 141/364/263 82/362/262 142/363/264
f 83/365/265 143/366/266 82/362/262
f 82/362/262 143/366/266 142/363/264
f 83/365/265 84/369/267 143/366/266
f 143/366/266 84/369/267 144/370/268
f 85/367/269 145/368/270 84/369/267
f 84/369/267 145/368/270 144/370/268
f 85/367/269 81/361/261 145/368/270
f 145/368/270 81/361/261 141/364/263
f 87/372/271 147/373/272 86/371/273
f 86/371/273 147/373/272 146/374/274
f 87/372/271 88/375/275 147/373/272
f 147/373/272 88/375/275 148/376/276
f 89/379/277 149/380/278 88/375/275
f 88/375/275 149/380/278 148/376/276
f 89/379/277 90/377/279 149/380/278
f 149/380/278 90/377/279 150/378/280
f 90/377/279 86/371/273 150/378/280
f 150/378/280 86/371/273 146/374/274
f 92/381/281 91/382/282 152/384/283
f 152/384/283 91/382/282 151/383/284
f 93/385/285 153/386/286 91/382/282
f 91/382/282 153/386/286 151/383/284
f 93/385/285 94/389/287 153/386/286
f 153/386/286 94/389/287 154/390/288
f 94/389/287 95/387/289 154/390/288
f 154/390/288 95/387/289 155/388/290
f 92/381/281 152/384/283 95/387/289
f 95/387/289 152/384/283 155/388/290
f 96/391/291 97/392/292 156/394/293
f 156/394/293 97/392/292 157/393/294
f 98/395/295 158/396/296 97/392/292
f 97/392/292 158/396/296 157/393/294
f 98/395/295 99/399/297 158/396/296
f 158/396/296 99/399/297 159/400/298
f 100/397/299 160/398/300 99/399/297
f 99/399/297 160/398/300 159/400/298
f 100/397/299 96/391/291 160/398/300
f 160/398/300 96/391/291 156/394/293
f 102/401/301 101/402/302 162/404/303
f 162/404/303 101/402/302 161/403/304
f 103/405/305 163/406/306 101/402/302
f 101/402/302 163/406/306 161/403/304
f 103/405/305 104/409/307 163/406/306
f 163/406/306 104/409/307 164/410/308
f 105/407/309 165/408/310 104/409/307
f 104/409/307 165/408/310 164/410/308
f 105/407/309 102/401/301 165/408/310
f 165/408/310 102/401/301 162/404/303
f 107/411/311 106/412/312 167/414/313
f 167/414/313 106/412/312 166/413/314
f 108/415/315 168/416/316 106/412/312
f 106/412/312 168/416/316 166/413/314
f 108/415/315 109/419/317 168/416/316
f 168/416/316 109/419/317 169/420/318
f 109/419/317 110/417/319 169/420/318
f 169/420/318 110/417/319 170/418/320
f 107/411/311 167/414/313 110/417/319
f 110/417/319 167/414/313 170/418/320
f 112/421/321 111/422/322 172/424/323
f 172/424/323 111/422/322 171/423/324
f 113/425/325 173/426/326 111/422/322
f 111/422/322 173/426/326 171/423/324
f 113/425/325 114/429/327 173/426/326
f 173/426/326 114/429/327 174/430/328
f 115/427/329 175/428/330 114/429/327
f 114/429/327 175/428/330 174/430/328
f 115/427/329 112/421/321 175/428/330
f 175/428/330 112/421/321 172/424/323
f 117/431/331 116/432/332 177/434/333
f 177/434/333 116/432/332 176/433/334
f 118/435/335 178/436/336 116/432/332
f 116/432/332 178/436/336 176/433/334
f 118/435/335 119/439/337 178/436/336
f 178/436/336 119/439/337 179/440/338
f 119/439/337 120/437/339 179/440/338
f 179/440/338 120/437/339 180/438/340
f 117/431/331 177/434/333 120/437/339
f 120/437/339 177/434/333 180/438/340
f 122/441/341 121/442/342 182/444/343
f 182/444/343 121/442/342 181/443/344
f 123/445/345 183/446/346 121/442/342
f 121/442/342 183/446/346 181/443/344
f 123/445/345 124/449/347 183/446/346
f 183/446/346 124/449/347 184/450/348
f 124/449/347 125/447/349 184/450/348
f 184/450/348 125/447/349 185/448/350
f 122/441/341 182/444/343 125/447/349
f 125/447/349 182/444/343 185/448/350
f 127/451/351 126/452/352 187/454/353
f 187/454/353 126/452/352 186/453/354
f 128/455/355 188/456/356 126/452/352
f 126/452/352 188/456/356 186/453/354
f 128/455/355 129/459/357 188/456/356
f 188/456/356 129/459/357 189/460/358
f 130/457/359 190/458/360 129/459/357
f 129/459/357 190/458/360 189/460/358
f 130/457/359 127/451/351 190/458/360
f 190/458/360 127/451/351 187/454/353
f 132/461/361 131/462/362 192/464/363
f 192/464/363 131/462/362 191/463/364
f 133/465/365 193/466/366 131/462/362
f 131/462/362 193/466/366 191/463/364
f 133/465/365 134/469/367 193/466/366
f 193/466/366 134/469/367 194/470/368
f 134/469/367 135/467/369 194/470/368
f 194/470/368 135/467/369 195/468/370
f 132/461/361 192/464/363 135/467/369
f 135/467/369 192/464/363 195/468/370
f 137/471/371 136/472/372 197/474/373
f 197/474/373 136/472/372 196/473/374
f 138/475/375 198/476/376 136/472/372
f 136/472/372 198/476/376 196/473/374
f 138/475/375 139/479/377 198/476/376
f 198/476/376 139/479/377 199/480/378
f 140/477/379 200/478/380 139/479/377
f 139/479/377 200/478/380 199/480/378
f 140/477/379 137/471/371 200/478/380
f 200/478/380 137/471/371 197/474/373
f 141/481/381 142/482/382 201/484/383
f 201/484/383 142/482/382 202/483/384
f 142/485/382 143/486/385 202/488/384
f 202/488/384 143/486/385 203/487/386
f 144/489/387 204/490/388 143/486/385
f 143/486/385 204/490/388 203/487/386
f 145/492/389 205/493/390 144/491/387
f 144/491/387 205/493/390 204/494/388
f 145/495/389 141/496/381 205/498/390
f 205/498/390 141/496/381 201/497/383
f 146/499/391 147/500/392 206/502/393
f 206/502/393 147/500/392 207/501/394
f 148/503/395 208/504/396 147/500/392
f 147/500/392 208/504/396 207/501/394
f 149/506/397 209/507/398 148/505/395
f 148/505/395 209/507/398 208/508/396
f 149/509/397 150/510/399 209/512/398
f 209/512/398 150/510/399 210/511/400
f 150/513/399 146/514/391 210/516/400
f 210/516/400 146/514/391 206/515/393
f 152/517/401 151/518/402 212/520/403
f 212/520/403 151/518/402 211/519/404
f 151/523/402 153/524/405 211/526/404
f 211/526/404 153/524/405 213/525/406
f 153/527/405 154/528/407 213/530/406
f 213/530/406 154/528/407 214/529/408
f 155/532/409 215/533/410 154/531/407
f 154/531/407 215/533/410 214/534/408
f 152/517/401 212/520/403 155/521/409
f 155/521/409 212/520/403 215/522/410
f 156/535/411 157/536/412 216/538/413
f 216/538/413 157/536/412 217/537/414
f 157/539/412 158/540/415 217/542/414
f 217/542/414 158/540/415 218/541/416
f 158/543/415 159/544/417 218/546/416
f 218/546/416 159/544/417 219/545/418
f 160/547/419 220/548/420 159/544/417
f 159/544/417 220/548/420 219/545/418
f 156/550/411 216/551/413 160/549/419
f 160/549/419 216/551/413 220/552/420
f 161/554/421 221/555/422 162/553/423
f 162/553/423 221/555/422 222/556/424
f 163/558/425 223/559/426 161/557/421
f 161/557/421 223/559/426 221/560/422
f 163/558/425 164/561/427 223/559/426
f 223/559/426 164/561/427 224/562/428
f 164/563/427 165/564/429 224/566/428
f 224/566/428 165/564/429 225/565/430
f 165/567/429 162/568/423 225/570/430
f 225/570/430 162/568/423 222/569/424
f 167/571/431 166/572/432 227/574/433
f 227/574/433 166/572/432 226/573/434
f 168/575/435 228/576/436 166/572/432
f 166/572/432 228/576/436 226/573/434
f 169/578/437 229/579/438 168/577/435
f 168/577/435 229/579/438 228/580/436
f 169/581/437 170/582/439 229/584/438
f 229/584/438 170/582/439 230/583/440
f 170/585/439 167/586/431 230/588/440
f 230/588/440 167/586/431 227/587/433
f 172/589/441 171/590/442 232/592/443
f 232/592/443 171/590/442 231/591/444
f 171/593/442 173/594/445 231/596/444
f 231/596/444 173/594/445 233/595/446
f 173/597/445 174/598/447 233/600/446
f 233/600/446 174/598/447 234/599/448
f 175/601/449 235/602/450 174/598/447
f 174/598/447 235/602/450 234/599/448
f 172/604/441 232/605/443 175/603/449
f 175/603/449 232/605/443 235/606/450
f 177/607/451 176/608/452 237/610/453
f 237/610/453 176/608/452 236/609/454
f 176/613/452 178/614/455 236/616/454
f 236/616/454 178/614/455 238/615/456
f 178/617/455 179/618/457 238/620/456
f 238/620/456 179/618/457 239/619/458
f 180/622/459 240/623/460 179/621/457
f 179/621/457 240/623/460 239/624/458
f 177/607/451 237/610/453 180/611/459
f 180/611/459 237/610/453 240/612/460
f 182/625/461 181/626/462 242/628/463
f 242/628/463 181/626/462 241/627/464
f 183/629/465 243/630/466 181/626/462
f 181/626/462 243/630/466 241/627/464
f 184/632/467 244/633/468 183/631/465
f 183/631/465 244/633/468 243/634/466
f 184/635/467 185/636/469 244/638/468
f 244/638/468 185/636/469 245/637/470
f 185/639/469 182/640/461 245/642/470
f 245/642/470 182/640/461 242/641/463
f 187/643/471 186/644/472 247/646/473
f 247/646/473 186/644/472 246/645/474
f 186/647/472 188/648/475 246/650/474
f 246/650/474 188/648/475 248/649/476
f 189/651/477 249/652/478 188/648/475
f 188/648/475 249/652/478 248/649/476
f 190/654/479 250/655/480 189/653/477
f 189/653/477 250/655/480 249/656/478
f 190/657/479 187/658/471 250/660/480
f 250/660/480 187/658/471 247/659/473
f 192/661/481 191/662/482 252/664/483
f 252/664/483 191/662/482 251/663/484
f 191/667/482 193/668/485 251/670/484
f 251/670/484 193/668/485 253/669/486
f 193/671/485 194/672/487 253/674/486
f 253/674/486 194/672/487 254/673/488
f 195/676/489 255/677/490 194/675/487
f 194/675/487 255/677/490 254/678/488
f 192/661/481 252/664/483 195/665/489
f 195/665/489 252/664/483 255/666/490
f 197/679/491 196/680/492 257/682/493
f 257/682/493 196/680/492 256/681/494
f 196/683/492 198/684/495 256/686/494
f 256/686/494 198/684/495 258/685/496
f 199/687/497 259/688/498 198/684/495
f 198/684/495 259/688/498 258/685/496
f 200/690/499 260/691/500 199/689/497
f 199/689/497 260/691/500 259/692/498
f 200/693/499 197/694/491 260/696/500
f 260/696/500 197/694/491 257/695/493
