# This file uses centimeters as units for non-parametric coordinates.

v 0.090168 -0.091720 -0.057041
v 0.044144 -0.038054 0.034273
v 0.061500 -0.052048 0.128441
v -0.002185 -0.104856 -0.052125
v 0.001237 -0.041794 0.032523
v -0.005197 -0.060383 0.129144
v -0.093161 -0.071277 -0.058774
v -0.034068 -0.022481 0.031735
v -0.066432 -0.038132 0.129640
v -0.118189 0.013782 -0.056733
v -0.043698 0.013469 0.031856
v -0.068058 0.013582 0.129459
v -0.061108 0.094821 -0.054573
v -0.025843 0.059397 0.038479
v -0.061093 0.062236 0.128862
v 0.024680 0.116382 -0.054428
v 0.018772 0.069779 0.016212
v 0.018092 0.070020 0.126851
v 0.110149 0.072677 -0.053531
v 0.052523 0.051422 0.039691
v 0.084548 0.047211 0.127878
v 0.130160 -0.013238 -0.054933
v 0.063528 0.001683 0.033648
v 0.081041 -0.003936 0.127949
v 0.005582 0.004910 0.127641
v 0.007514 0.002439 -0.143060
v -0.013663 0.103802 0.068996
v -0.052390 0.104794 0.128503
v 0.022334 0.152713 0.100848
v 0.025862 0.130970 0.040668
v 0.088557 0.089770 0.127519
v 0.059682 0.095836 0.070548
v 0.091949 -0.011146 -0.112352
v 0.019149 0.089365 -0.110111
v 0.012155 -0.079474 -0.113572
v -0.075852 0.009244 -0.109752
v -0.044344 -0.051268 -0.111783
v 0.066133 -0.054628 -0.112976
v 0.071826 0.047765 -0.110808
v -0.038895 0.077288 -0.108416
v 0.020085 0.096493 0.126685
v 0.063485 -0.063853 -0.059202
v -0.007302 -0.073755 -0.058024
v -0.074963 -0.046792 -0.064754
v 0.081900 0.058186 -0.061027
v 0.091770 -0.004579 -0.058642
v -0.077284 0.015991 -0.062521
v -0.056389 0.074756 -0.058042
v 0.017511 0.090685 -0.059041
vt 0.947876 0.127740
vt 0.951927 0.087000
vt 0.810618 0.135761
vt 0.814335 0.087614
vt 0.967911 0.087615
vt 0.798741 0.088152
vt 0.789712 0.125941
vt 0.813724 0.028185
vt 0.792512 0.055172
vt 0.759213 0.088187
vt 0.758449 0.133649
vt 0.758112 0.053228
vt 0.726328 0.086906
vt 0.731680 0.123694
vt 0.723714 0.052698
vt 0.713638 0.101097
vt 0.714660 0.137969
vt 0.700424 0.076997
vt 0.700140 0.051489
vt 0.683121 0.026132
vt 0.682483 0.096138
vt 0.964190 0.136375
vt 0.948033 0.054371
vt 0.967580 0.030177
vt 0.868151 0.138611
vt 0.867128 0.101270
vt 0.886785 0.082514
vt 0.895715 0.131502
vt 0.841111 0.093297
vt 0.844086 0.029999
vt 0.857499 0.052742
vt 0.855677 0.076627
vt 0.922276 0.086735
vt 0.924738 0.142557
vt 0.763442 0.028062
vt 0.722922 0.026637
vt 0.764023 0.171632
vt 0.917555 0.172702
vt 0.884271 0.052125
vt 0.921483 0.055031
vt 0.921465 0.029981
vt 0.877465 0.030047
vt 0.892417 0.155355
vt 0.921026 0.158136
vt 0.939666 0.155478
vt 0.761039 0.151302
vt 0.738906 0.154504
vt 0.786115 0.154625
vt 0.774328 0.153063
vt 0.928983 0.157001
vt 0.907185 0.156791
vt 0.749163 0.153020
vt 0.704222 0.026400
vt 0.861783 0.030025
vt 0.948373 0.122740
vt 0.964637 0.130525
vt 0.811064 0.129985
vt 0.790955 0.120739
vt 0.895081 0.128025
vt 0.924471 0.136513
vt 0.758558 0.127179
vt 0.731018 0.119140
vt 0.714486 0.131665
vt 0.867976 0.132226
vn -0.002749 0.011347 0.999932
vn 0.002536 0.016535 0.999860
vn 0.002536 0.016535 0.999860
vn 0.007822 0.021722 0.999733
vn 0.015538 0.020447 0.999670
vn 0.020366 0.012371 0.999716
vn 0.020366 0.012371 0.999716
vn 0.025192 0.004294 0.999673
vn 0.339949 -0.012760 -0.940357
vn 0.237709 -0.250566 -0.938462
vn 0.005508 0.003891 -0.999977
vn -0.019966 -0.339650 -0.940340
vn -0.290926 -0.255953 -0.921873
vn -0.369468 0.020948 -0.929007
vn 0.068403 0.345593 -0.935888
vn 0.299885 0.232793 -0.925136
vn -0.228055 0.288954 -0.929783
vn -0.595052 0.697712 -0.398888
vn -0.635773 0.691396 -0.343169
vn -0.635773 0.691396 -0.343169
vn -0.673440 0.681759 -0.285802
vn 0.778789 0.603165 -0.172280
vn 0.750251 0.617921 -0.235153
vn 0.750251 0.617921 -0.235153
vn 0.717973 0.629597 -0.296854
vn -0.003887 0.001648 0.999991
vn -0.007238 0.007903 0.999943
vn -0.007238 0.007903 0.999943
vn -0.010588 0.014158 0.999844
vn 0.024655 0.007384 0.999669
vn 0.025177 0.007991 0.999651
vn 0.025177 0.007991 0.999651
vn 0.025698 0.008598 0.999633
vn 0.025056 0.003307 0.999681
vn 0.025315 0.003833 0.999672
vn 0.025315 0.003833 0.999672
vn 0.025574 0.004359 0.999663
vn -0.012160 0.009577 0.999880
vn -0.011820 0.008364 0.999895
vn -0.011820 0.008364 0.999895
vn -0.011480 0.007151 0.999909
vn 0.070209 0.414226 0.907462
vn 0.070209 0.414226 0.907462
vn 0.070209 0.414226 0.907462
vn 0.029814 0.416406 0.908690
vn 0.029814 0.416406 0.908690
vn 0.029814 0.416406 0.908690
vn 0.889618 0.410065 -0.201063
vn 0.942991 0.043021 -0.330026
vn 0.997680 -0.061587 0.029008
vn 0.934335 -0.293827 -0.201702
vn -0.147562 -0.136192 0.979631
vn -0.150115 -0.003712 0.988662
vn 0.334844 0.321789 0.885625
vn 0.956669 -0.108601 0.270168
vn 0.790475 0.239574 -0.563696
vn 0.828637 -0.078296 -0.554284
vn 0.512953 -0.834242 0.202284
vn 0.743915 -0.399148 -0.535976
vn 0.104045 -0.145618 0.983855
vn 0.013966 -0.170400 0.985276
vn -0.413888 0.392759 0.821242
vn 0.131303 0.908261 0.397268
vn 0.474637 0.730077 -0.491637
vn 0.198775 0.873838 -0.443729
vn -0.210812 0.892743 -0.398208
vn -0.962219 -0.049674 -0.267706
vn -0.881969 0.289596 -0.371840
vn -0.993324 0.111769 0.028550
vn -0.747511 0.635568 -0.193083
vn -0.838130 0.315528 -0.444949
vn -0.825500 0.164268 -0.539968
vn -0.586976 0.466728 -0.661531
vn 0.134512 0.938099 -0.319182
vn -0.690254 0.336080 -0.640781
vn 0.884804 -0.087201 -0.457731
vn 0.916720 -0.002253 -0.399525
vn 0.705001 0.264943 -0.657859
vn 0.746046 0.170801 -0.643616
vn 0.129077 0.956005 0.263427
vn -0.610995 0.723017 0.322384
vn 0.759432 0.591142 0.271690
vn 0.925475 -0.232277 0.299238
vn 0.581323 -0.811060 0.065150
vn 0.589435 -0.776143 -0.223983
vn -0.151891 -0.966302 -0.207823
vn -0.206484 -0.975492 0.076028
vn -0.797976 -0.599398 0.062910
vn -0.758279 -0.556479 -0.339622
vn -0.004772 0.203085 0.979150
vn -0.199630 -0.766163 0.610854
vn -0.033215 0.085181 0.995812
vn -0.719601 -0.429674 0.545485
vn 0.131557 0.087286 0.987458
vn 0.011832 -0.867325 -0.497601
vn 0.334838 -0.712640 -0.616464
vn -0.337111 -0.806305 -0.486033
vn 0.149329 -0.096859 0.984032
vn -0.451736 0.081149 0.888454
vn -0.769304 0.105662 -0.630084
vn -0.638678 -0.308897 -0.704750
vn -0.776226 0.430632 -0.460466
vn -0.736919 -0.512027 0.441338
vn -0.933668 0.000009 0.358139
vn 0.559404 -0.762065 0.326075
vn -0.162837 -0.924931 0.343493
f 24/40/1 25/41/2 3/23/3
f 3/23/3 25/41/2 6/24/4
f 6/8/5 25/35/6 9/9/7
f 9/9/7 25/35/6 12/12/8
f 33/44/9 38/50/10 26/38/11
f 26/38/11 38/50/10 35/45/12
f 35/48/12 37/49/13 26/37/11
f 26/37/11 37/49/13 36/46/14
f 34/43/15 39/51/16 26/38/11
f 26/38/11 39/51/16 33/44/9
f 36/46/14 40/52/17 26/37/11
f 26/37/11 40/52/17 34/47/15
f 28/19/18 29/20/19 27/18/20
f 27/18/20 29/20/19 30/21/21
f 30/29/22 29/30/23 32/32/24
f 32/32/24 29/30/23 31/31/25
f 24/40/26 21/39/27 25/41/28
f 25/41/28 21/39/27 18/42/29
f 18/36/30 15/15/31 25/35/32
f 25/35/32 15/15/31 12/12/33
f 15/15/34 18/36/35 28/19/36
f 28/19/36 18/36/35 41/53/37
f 21/39/38 31/31/39 18/42/40
f 18/42/40 31/31/39 41/54/41
f 28/19/42 41/53/43 29/20/44
f 41/54/45 31/31/46 29/30/47
f 20/27/48 21/39/49 23/33/50
f 23/33/50 21/39/49 24/40/51
f 45/59/52 46/60/53 19/28/54
f 19/28/54 46/60/53 22/34/55
f 19/28/54 22/34/55 39/51/56
f 39/51/56 22/34/55 33/44/57
f 1/1/58 38/50/59 22/34/55
f 22/34/55 38/50/59 33/44/57
f 48/62/60 49/63/61 13/14/62
f 13/14/62 49/63/61 16/17/63
f 49/64/61 45/59/52 16/25/63
f 16/25/63 45/59/52 19/28/54
f 19/28/54 39/51/64 16/25/63
f 16/25/63 39/51/64 34/43/65
f 13/14/62 16/17/63 40/52/66
f 40/52/66 16/17/63 34/47/65
f 12/12/67 15/15/68 11/10/69
f 11/10/69 15/15/68 14/13/70
f 14/13/70 15/15/68 27/18/71
f 27/18/71 15/15/68 28/19/72
f 14/13/70 27/18/73 17/16/74
f 17/16/74 27/18/73 30/21/75
f 31/31/76 21/39/49 32/32/77
f 32/32/77 21/39/49 20/27/48
f 20/27/48 17/26/74 32/32/78
f 32/32/78 17/26/74 30/29/79
f 49/63/80 48/62/81 17/16/74
f 17/16/74 48/62/81 14/13/70
f 49/64/80 17/26/74 45/59/82
f 45/59/82 17/26/74 20/27/48
f 46/60/83 45/59/82 23/33/50
f 23/33/50 45/59/82 20/27/48
f 23/33/50 24/40/51 2/2/84
f 2/2/84 24/40/51 3/23/85
f 3/23/85 6/24/86 2/2/84
f 2/2/84 6/24/86 5/5/87
f 5/4/87 6/8/86 8/6/88
f 8/6/88 6/8/86 9/9/89
f 11/10/69 8/6/88 12/12/67
f 12/12/67 8/6/88 9/9/89
f 43/56/90 4/22/91 42/55/92
f 42/55/92 4/22/91 1/1/58
f 4/3/91 43/57/90 7/7/93
f 7/7/93 43/57/90 44/58/94
f 4/22/91 35/45/95 1/1/58
f 1/1/58 35/45/95 38/50/96
f 7/7/93 37/49/97 4/3/91
f 4/3/91 37/49/97 35/48/95
f 46/60/53 42/55/92 22/34/55
f 22/34/55 42/55/92 1/1/58
f 48/62/60 13/14/62 47/61/98
f 47/61/98 13/14/62 10/11/99
f 47/61/98 10/11/99 44/58/94
f 44/58/94 10/11/99 7/7/93
f 10/11/99 36/46/100 7/7/93
f 7/7/93 36/46/100 37/49/101
f 10/11/99 13/14/62 36/46/100
f 36/46/100 13/14/62 40/52/102
f 44/58/103 8/6/88 47/61/104
f 47/61/104 8/6/88 11/10/69
f 47/61/104 11/10/69 48/62/81
f 48/62/81 11/10/69 14/13/70
f 42/55/105 46/60/83 2/2/84
f 2/2/84 46/60/83 23/33/50
f 42/55/105 2/2/84 43/56/106
f 43/56/106 2/2/84 5/5/87
f 44/58/103 43/57/106 8/6/88
f 8/6/88 43/57/106 5/4/87
