# This file uses centimeters as units for non-parametric coordinates.

v -0.026020 0.105196 0.080775
v 0.007119 0.135199 0.074198
v 0.034445 0.079097 0.080946
v -0.024973 0.083642 0.038575
v 0.003619 0.124391 0.049472
v 0.029495 0.083642 0.038575
v -0.022031 0.073834 0.027096
v 0.000650 0.073531 0.004752
v 0.022365 0.073834 0.027096
v -0.034717 0.033975 0.013312
v 0.000472 0.033651 -0.010575
v 0.034165 0.033975 0.013312
v -0.043860 -0.022315 0.009113
v 0.002896 -0.022704 -0.004081
v 0.042699 -0.022315 0.009113
v -0.056616 -0.021967 0.034749
v 0.001674 -0.021967 0.034749
v 0.055455 -0.021967 0.034749
v -0.072004 -0.011922 0.081814
v -0.006118 -0.020874 0.081899
v 0.055259 -0.029826 0.081985
v -0.053325 0.043925 0.081282
v 0.000412 0.034972 0.081367
v 0.047318 0.026020 0.081452
v 0.043439 0.034260 0.034213
v -0.041069 0.034260 0.034213
vt 0.632985 0.127064
vt 0.648241 0.114769
vt 0.615271 0.110192
vt 0.617928 0.126390
vt 0.590925 0.124847
vt 0.608997 0.129817
vt 0.651681 0.022390
vt 0.636900 0.039276
vt 0.619586 0.035221
vt 0.617186 0.019946
vt 0.610004 0.039142
vt 0.591993 0.030086
vt 0.605893 0.059363
vt 0.590903 0.147479
vt 0.605167 0.147489
vt 0.590589 0.059351
vt 0.591268 0.169989
vt 0.606299 0.163138
vt 0.607089 0.072396
vt 0.618269 0.181063
vt 0.617895 0.171533
vt 0.590569 0.086852
vt 0.648199 0.171742
vt 0.632958 0.163330
vt 0.619254 0.076625
vt 0.648217 0.147871
vt 0.632973 0.143270
vt 0.619548 0.086873
vt 0.617912 0.147498
vt 0.619568 0.059373
vt 0.636835 0.074552
vt 0.651653 0.060265
vt 0.636769 0.059771
vt 0.651633 0.087579
vn 0.159077 0.896151 -0.414257
vn 0.173075 0.792377 -0.584964
vn -0.777580 0.573959 -0.256788
vn -0.771602 0.465597 -0.433417
vn 0.923188 0.366664 -0.115248
vn 0.807472 0.426819 -0.407204
vn -0.090710 0.542542 -0.835116
vn -0.748973 0.420330 -0.512213
vn 0.671656 0.417007 -0.612359
vn -0.691714 0.231504 -0.684060
vn 0.011286 0.128604 -0.991632
vn 0.677129 0.230771 -0.698743
vn 0.015478 -0.487953 -0.872733
vn -0.685557 -0.485408 -0.542578
vn 0.668922 -0.489292 -0.559586
vn -0.020621 -0.999727 -0.011006
vn -0.597029 -0.781236 -0.182279
vn 0.874954 -0.446824 -0.186558
vn -0.092894 -0.993696 0.062765
vn -0.949065 -0.210103 -0.234803
vn 0.417434 -0.906169 -0.067881
vn 0.000000 0.009534 0.999955
vn -0.000002 0.009533 0.999955
vn -0.000002 0.009533 0.999955
vn -0.000004 0.009531 0.999955
vn 0.000004 0.009530 0.999955
vn 0.000004 0.009530 0.999955
vn 0.000004 0.009530 0.999955
vn 0.000003 0.009531 0.999955
vn -0.000201 0.008350 0.999965
vn 0.070427 0.034908 0.996906
vn 0.070427 0.034908 0.996906
vn 0.140654 0.061267 0.988161
vn 0.000004 0.009535 0.999955
vn -0.043766 0.043278 0.998104
vn -0.043766 0.043278 0.998104
vn -0.087402 0.076888 0.993201
vn 0.980608 0.195118 -0.018372
vn 0.919499 0.252161 -0.301558
vn -0.900028 0.338809 -0.274152
vn -0.894287 0.281992 -0.347465
f 2/2/1 5/3/2 1/1/3
f 1/1/3 5/3/2 4/4/4
f 2/7/1 3/8/5 5/10/2
f 5/10/2 3/8/5 6/9/6
f 5/3/2 8/5/7 4/4/4
f 4/4/4 8/5/7 7/6/8
f 8/12/7 5/10/2 9/11/9
f 5/10/2 6/9/6 9/11/9
f 7/6/8 8/5/7 10/15/10
f 10/15/10 8/5/7 11/14/11
f 9/11/9 12/13/12 8/12/7
f 8/12/7 12/13/12 11/16/11
f 11/14/11 14/17/13 10/15/10
f 10/15/10 14/17/13 13/18/14
f 11/16/11 12/13/12 14/22/13
f 14/22/13 12/13/12 15/19/15
f 14/17/13 17/20/16 13/18/14
f 13/18/14 17/20/16 16/21/17
f 14/22/13 15/19/15 17/28/16
f 17/28/16 15/19/15 18/25/18
f 17/20/16 20/23/19 16/21/17
f 16/21/17 20/23/19 19/24/20
f 18/25/18 21/31/21 17/28/16
f 17/28/16 21/31/21 20/34/19
f 19/24/22 20/23/23 22/27/24
f 22/27/24 20/23/23 23/26/25
f 21/31/26 24/33/27 20/34/28
f 20/34/28 24/33/27 23/32/29
f 22/27/30 23/26/31 1/1/32
f 1/1/32 23/26/31 2/2/33
f 24/33/34 3/8/35 23/32/36
f 23/32/36 3/8/35 2/7/37
f 21/31/21 18/25/18 24/33/38
f 24/33/38 18/25/18 25/30/39
f 24/33/38 25/30/39 3/8/5
f 3/8/5 25/30/39 6/9/6
f 18/25/18 15/19/15 25/30/39
f 25/30/39 15/19/15 12/13/12
f 6/9/6 25/30/39 9/11/9
f 9/11/9 25/30/39 12/13/12
f 22/27/40 26/29/41 19/24/20
f 19/24/20 26/29/41 16/21/17
f 1/1/3 4/4/4 22/27/40
f 22/27/40 4/4/4 26/29/41
f 16/21/17 26/29/41 13/18/14
f 13/18/14 26/29/41 10/15/10
f 4/4/4 7/6/8 26/29/41
f 26/29/41 7/6/8 10/15/10
