# This file uses centimeters as units for non-parametric coordinates.

v -0.035941 -0.003441 -0.101486
v -0.055342 -0.028124 -0.034224
v -0.031219 -0.007923 0.037098
v -0.045283 0.031033 -0.101630
v -0.071917 0.033036 -0.034479
v -0.042194 0.032576 0.036929
v -0.033743 0.064810 -0.102800
v -0.051444 0.092957 -0.036556
v -0.028637 0.072255 0.035554
v 0.000620 0.072508 -0.104646
v 0.009519 0.106614 -0.039830
v 0.011730 0.081299 0.033386
v 0.034414 0.062531 -0.106152
v 0.069471 0.088914 -0.042501
v 0.051430 0.069578 0.031617
v 0.043757 0.028056 -0.106008
v 0.086045 0.027753 -0.042246
v 0.062405 0.029078 0.031785
v 0.032216 -0.005720 -0.104838
v 0.065572 -0.032168 -0.040170
v 0.048849 -0.010600 0.033161
v -0.002147 -0.013419 -0.102992
v 0.004610 -0.045825 -0.036895
v 0.008480 -0.019644 0.035329
v 0.012598 0.031711 0.072667
v -0.002842 0.030361 -0.134678
v -0.002876 -0.000815 -0.120796
v 0.032844 0.028552 -0.120581
v -0.034164 0.030745 -0.119178
v -0.001060 0.058422 -0.123368
v 0.051109 0.030338 0.048338
v 0.009652 -0.004750 0.052933
v -0.026224 0.032985 0.054581
v 0.012063 0.064731 0.054289
v -0.024731 0.009067 -0.119630
v 0.022122 0.008761 -0.120572
v -0.022364 0.051211 -0.121560
v 0.022451 0.048359 -0.122330
v -0.014002 0.003545 0.054140
v -0.015436 0.057090 0.055265
v 0.040595 0.054376 0.050674
v 0.038739 0.005699 0.049746
v 0.040644 -0.009850 -0.018498
v 0.002560 -0.018090 -0.019397
v -0.034536 -0.007037 -0.019513
v -0.044734 0.030646 -0.017842
v -0.032089 0.067667 -0.019411
v 0.005504 0.076054 -0.022239
v 0.042534 0.065144 -0.023629
v 0.052766 0.027391 -0.023466
vt 0.133145 0.513814
vt 0.055349 0.113398
vt 0.054700 0.125140
vt 0.102081 0.525873
vt 0.043683 0.116447
vt 0.043094 0.107922
vt 0.054932 0.123716
vt 0.074496 0.519805
vt 0.044277 0.113182
vt 0.058225 0.070547
vt 0.052069 0.536950
vt 0.056846 0.090553
vt 0.593055 0.613361
vt 0.043783 0.092229
vt 0.046292 0.078103
vt 0.604323 0.605329
vt 0.032545 0.095687
vt 0.056300 0.103843
vt 0.045221 0.101481
vt 0.620849 0.604363
vt 0.057775 0.081339
vt 0.154683 0.521222
vt 0.047268 0.084780
vt 0.048009 0.075304
vt 0.058435 0.069471
vt 0.107970 0.552461
vt 0.625438 0.620065
vt 0.130167 0.083546
vt 0.133017 0.033946
vt 0.640386 0.598374
vt 0.126173 0.116221
vt 0.129763 0.061328
vt 0.649960 0.599873
vt 0.132352 0.031881
vt 0.642204 0.608955
vt 0.622404 0.609684
vt 0.104332 0.536035
vt 0.139839 0.535565
vt 0.605395 0.617005
vt 0.073201 0.544243
vt 0.153588 0.063424
vt 0.154174 0.064907
vt 0.148414 0.079963
vt 0.149095 0.112327
vt 0.148019 0.142900
vt 0.123872 0.169194
vt 0.126889 0.538238
vt 0.634445 0.610758
vt 0.084676 0.541085
vt 0.615774 0.612428
vt 0.126442 0.140516
vt 0.149964 0.126216
vt 0.123354 0.165012
vt 0.152884 0.093548
vt 0.626731 0.558735
vt 0.637375 0.557946
vt 0.137555 0.450227
vt 0.119304 0.454580
vt 0.087552 0.460274
vt 0.054864 0.466861
vt 0.576521 0.575808
vt 0.586346 0.572632
vt 0.609693 0.566198
vt 0.034414 0.473351
vt 0.149242 0.140734
vn -0.032945 -0.406533 -0.913042
vn -0.336577 -0.287665 -0.896641
vn -0.031792 -0.023036 -0.999229
vn -0.443625 -0.011973 -0.896133
vn -0.325092 0.266523 -0.907348
vn -0.005849 0.374149 -0.927350
vn 0.365373 -0.039711 -0.930014
vn 0.259688 -0.299430 -0.918098
vn 0.284681 0.237200 -0.928813
vn -0.557277 0.654943 0.510384
vn -0.795315 0.028450 0.605528
vn -0.704138 0.280765 0.652196
vn -0.741536 -0.000862 0.670912
vn -0.589058 -0.601953 0.539132
vn -0.671843 -0.236260 0.702003
vn 0.642832 0.606947 0.467315
vn 0.060271 0.831898 0.551645
vn 0.288968 0.717101 0.634242
vn 0.077929 0.781909 0.618503
vn 0.088519 0.485511 0.869737
vn -0.264624 0.329203 0.906421
vn 0.077478 -0.011072 0.996933
vn -0.422641 -0.014424 0.906182
vn -0.161318 0.755223 0.635307
vn 0.013142 -0.814860 0.579509
vn -0.204318 -0.728489 0.653880
vn 0.053427 -0.764079 0.642906
vn 0.257748 -0.691587 0.674739
vn 0.599330 -0.625978 0.498954
vn 0.073572 -0.479279 0.874574
vn 0.396380 -0.349646 0.848900
vn 0.533056 -0.030659 0.845524
vn 0.413066 0.317862 0.853428
vn -0.274963 -0.333492 0.901764
vn 0.784925 0.255113 0.564632
vn 0.858139 -0.019860 0.513032
vn 0.824706 -0.027600 0.564888
vn 0.743025 -0.288002 0.604127
vn 0.661700 -0.743052 -0.100132
vn 0.048702 -0.997082 -0.058782
vn 0.619104 -0.705201 -0.345547
vn -0.086240 -0.911009 -0.403267
vn 0.210567 -0.738292 -0.640770
vn -0.038603 -0.816320 -0.576308
vn -0.309185 -0.746504 -0.589182
vn -0.761999 -0.571169 -0.305161
vn 0.984984 -0.133692 -0.109239
vn 0.899332 0.012067 -0.437101
vn 0.826104 0.554779 -0.098855
vn 0.570331 0.724908 -0.386304
vn 0.711184 -0.328175 -0.621706
vn 0.799765 -0.025480 -0.599773
vn 0.734147 0.269378 -0.623269
vn -0.017794 0.614641 -0.788606
vn 0.395969 0.400884 -0.826136
vn -0.071925 -0.218515 -0.973179
vn -0.021552 -0.602440 -0.797873
vn 0.837413 -0.087649 -0.539498
vn -0.531324 0.031299 -0.846590
vn -0.339993 -0.314398 -0.886317
vn -0.306217 0.420662 -0.853976
vn 0.034336 0.535079 -0.844104
vn -0.576023 -0.817017 -0.026098
vn -0.997586 -0.069167 0.006197
vn -0.934527 0.072812 -0.348365
vn 0.521122 -0.013616 -0.853374
vn -0.629015 0.018090 -0.777183
vn 0.287699 -0.370587 -0.883117
vn -0.406106 0.419208 -0.811999
vn -0.844159 0.028079 -0.535357
vn -0.764985 0.312949 -0.562904
vn -0.554496 0.770315 -0.314880
vn -0.782477 -0.273833 -0.559236
vn 0.031175 0.998506 -0.044866
vn 0.011152 0.881830 -0.471436
vn -0.793067 0.609113 -0.005139
vn 0.017025 0.798233 -0.602108
vn 0.256036 0.711016 -0.654906
vn -0.254621 0.754836 -0.604476
vn -0.438555 -0.412458 -0.798466
vn -0.062821 -0.491684 -0.868505
vn 0.331022 0.346151 -0.877841
f 27/38/1 35/47/2 26/26/3
f 26/26/3 35/47/2 29/37/4
f 29/37/4 37/49/5 26/26/3
f 26/26/3 37/49/5 30/40/6
f 28/36/7 36/48/8 26/27/3
f 26/27/3 36/48/8 27/35/1
f 30/39/6 38/50/9 26/27/3
f 26/27/3 38/50/9 28/36/7
f 9/2/10 6/3/11 40/6/12
f 40/6/12 6/3/11 33/5/13
f 3/7/14 39/9/15 6/3/11
f 6/3/11 39/9/15 33/5/13
f 15/10/16 12/12/17 41/15/18
f 41/15/18 12/12/17 34/14/19
f 34/14/20 40/6/21 25/17/22
f 25/17/22 40/6/21 33/5/23
f 9/2/10 40/6/24 12/12/17
f 12/12/17 40/6/24 34/14/19
f 3/7/14 24/18/25 39/9/26
f 39/9/26 24/18/25 32/19/27
f 32/19/27 24/18/25 42/23/28
f 42/23/28 24/18/25 21/21/29
f 32/19/30 42/23/31 25/17/22
f 25/17/22 42/23/31 31/24/32
f 31/24/32 41/15/33 25/17/22
f 25/17/22 41/15/33 34/14/20
f 33/5/23 39/9/34 25/17/22
f 25/17/22 39/9/34 32/19/30
f 15/10/16 41/15/35 18/25/36
f 18/25/36 41/15/35 31/24/37
f 21/21/29 18/25/36 42/23/38
f 42/23/38 18/25/36 31/24/37
f 43/55/39 44/56/40 19/30/41
f 19/30/41 44/56/40 22/33/42
f 19/30/41 22/33/42 36/48/43
f 36/48/43 22/33/42 27/35/44
f 27/38/44 22/22/42 35/47/45
f 35/47/45 22/22/42 1/1/46
f 50/63/47 16/20/48 49/62/49
f 49/62/49 16/20/48 13/16/50
f 43/55/39 19/30/41 50/63/47
f 50/63/47 19/30/41 16/20/48
f 19/30/41 36/48/51 16/20/48
f 16/20/48 36/48/51 28/36/52
f 13/16/50 16/20/48 38/50/53
f 38/50/53 16/20/48 28/36/52
f 12/12/17 15/10/16 11/28/54
f 11/28/54 15/10/16 14/29/55
f 20/32/56 21/21/29 23/31/57
f 23/31/57 21/21/29 24/18/25
f 14/29/55 15/10/16 17/34/58
f 17/34/58 15/10/16 18/25/36
f 18/25/36 21/21/29 17/34/58
f 17/34/58 21/21/29 20/32/56
f 50/41/59 49/42/60 17/34/58
f 17/34/58 49/42/60 14/29/55
f 43/43/61 50/41/59 20/32/56
f 20/32/56 50/41/59 17/34/58
f 44/44/62 43/43/61 23/31/57
f 23/31/57 43/43/61 20/32/56
f 44/57/40 45/58/63 22/22/42
f 22/22/42 45/58/63 1/1/46
f 45/58/63 46/59/64 1/1/46
f 1/1/46 46/59/64 4/4/65
f 46/45/66 5/46/67 47/52/68
f 47/52/68 5/46/67 8/51/69
f 29/37/70 4/4/65 37/49/71
f 37/49/71 4/4/65 7/8/72
f 1/1/46 4/4/65 35/47/73
f 35/47/73 4/4/65 29/37/70
f 49/62/49 13/16/50 48/61/74
f 48/61/74 13/16/50 10/13/75
f 47/60/76 48/64/74 7/8/72
f 7/8/72 48/64/74 10/11/75
f 30/39/77 10/13/75 38/50/78
f 38/50/78 10/13/75 13/16/50
f 7/8/72 10/11/75 37/49/79
f 37/49/79 10/11/75 30/40/77
f 2/53/80 3/7/14 5/46/67
f 5/46/67 3/7/14 6/3/11
f 6/3/11 9/2/10 5/46/67
f 5/46/67 9/2/10 8/51/69
f 8/51/69 9/2/10 11/28/54
f 11/28/54 9/2/10 12/12/17
f 24/18/25 3/7/14 23/31/57
f 23/31/57 3/7/14 2/53/80
f 48/54/81 47/52/68 11/28/54
f 11/28/54 47/52/68 8/51/69
f 48/54/81 11/28/54 49/42/60
f 49/42/60 11/28/54 14/29/55
f 2/53/80 45/65/82 23/31/57
f 23/31/57 45/65/82 44/44/62
f 46/45/66 45/65/82 5/46/67
f 5/46/67 45/65/82 2/53/80
f 46/59/64 47/60/76 4/4/65
f 4/4/65 47/60/76 7/8/72
