# This file uses centimeters as units for non-parametric coordinates.

v -0.041321 0.038631 0.048328
v -0.014459 0.041937 0.070792
v 0.012940 0.038631 0.048328
v -0.048373 0.053854 -0.012978
v -0.012564 0.061879 -0.012858
v 0.024157 0.053854 -0.012978
v -0.092508 0.077947 -0.165945
v -0.016384 0.093518 -0.177117
v 0.065727 0.082733 -0.166629
v -0.120942 0.008641 -0.169457
v -0.011957 0.002526 -0.224334
v 0.080585 0.007780 -0.181799
v -0.093818 -0.060018 -0.176183
v -0.020495 -0.072241 -0.181272
v 0.066674 -0.059224 -0.159098
v -0.049398 -0.029419 -0.012978
v -0.012564 -0.038165 -0.013108
v 0.025182 -0.029419 -0.012978
v -0.042115 -0.014681 0.044928
v -0.013213 -0.023109 0.066883
v 0.013680 -0.014681 0.044928
v -0.049133 0.007381 0.053041
v -0.014461 0.007381 0.075506
v 0.020213 0.007381 0.053041
v 0.036149 0.009711 -0.013223
v -0.061411 0.009780 -0.014177
v -0.011057 0.068273 -0.032510
v -0.048223 0.056810 -0.035245
v -0.063691 0.009798 -0.035955
v -0.050216 -0.029667 -0.032437
v -0.011058 -0.040880 -0.032396
v 0.028070 -0.029592 -0.032991
v 0.040166 0.009845 -0.036664
v 0.025936 0.056753 -0.035566
v -0.128445 0.005667 -0.114829
v -0.099345 0.091849 -0.116249
v -0.009317 0.106437 -0.116218
v 0.084404 0.092087 -0.116516
v 0.100756 0.007060 -0.115072
v 0.079685 -0.073008 -0.115025
v -0.007216 -0.088306 -0.114756
v -0.103363 -0.077507 -0.114825
v -0.074311 0.078541 -0.062784
v -0.007761 0.090586 -0.062820
v 0.056953 0.076338 -0.052814
v 0.082044 0.012530 -0.063388
v 0.065044 -0.058221 -0.063210
v -0.006960 -0.073298 -0.074636
v -0.085213 -0.062720 -0.071369
v -0.107449 0.011029 -0.073896
v -0.014696 0.072899 -0.201319
v -0.069386 0.058150 -0.195098
v -0.084446 0.007897 -0.200364
v -0.074411 -0.042277 -0.199262
v -0.019130 -0.064085 -0.197361
v 0.058166 -0.049593 -0.179194
v 0.056263 0.007633 -0.206108
v 0.054264 0.071277 -0.190840
vt 0.758978 0.758267
vt 0.767423 0.749058
vt 0.717219 0.769960
vt 0.716336 0.768772
vt 0.759894 0.758260
vt 0.718089 0.768647
vt 0.293369 0.727449
vt 0.313684 0.725702
vt 0.279207 0.728366
vt 0.296968 0.751975
vt 0.328905 0.725769
vt 0.260985 0.736994
vt 0.930675 0.401667
vt 0.896317 0.420816
vt 0.904090 0.385878
vt 0.920482 0.390551
vt 0.869860 0.405672
vt 0.886783 0.384076
vt 0.711491 0.775697
vt 0.709488 0.773251
vt 0.711304 0.773081
vt 0.703415 0.740567
vt 0.704437 0.738631
vt 0.716420 0.736049
vt 0.715564 0.737066
vt 0.705248 0.741044
vt 0.717379 0.737491
vt 0.767746 0.724880
vt 0.757720 0.731443
vt 0.758685 0.731701
vt 0.770210 0.740421
vt 0.766669 0.741058
vt 0.767815 0.741243
vt 0.717947 0.752490
vt 0.306987 0.660504
vt 0.320338 0.669552
vt 0.932707 0.356170
vt 0.329742 0.671827
vt 0.923147 0.353733
vt 0.912984 0.351460
vt 0.899496 0.352692
vt 0.272968 0.654513
vt 0.893689 0.354613
vt 0.283386 0.655077
vt 0.930882 0.383434
vt 0.332145 0.705734
vt 0.320391 0.697799
vt 0.302201 0.689762
vt 0.274941 0.690345
vt 0.251344 0.691927
vt 0.869396 0.378062
vt 0.887590 0.375357
vt 0.906876 0.371320
vt 0.919365 0.377697
vt 0.320358 0.680315
vt 0.305086 0.672129
vt 0.280803 0.665864
vt 0.261968 0.662574
vt 0.881934 0.360304
vt 0.894064 0.363033
vt 0.909891 0.361517
vt 0.921800 0.366353
vt 0.931082 0.370763
vt 0.330965 0.689086
vt 0.296338 0.739752
vt 0.308358 0.738791
vt 0.914353 0.413908
vt 0.316621 0.740350
vt 0.908778 0.406828
vt 0.900299 0.402846
vt 0.889880 0.400048
vt 0.882198 0.412853
vt 0.277698 0.749459
vt 0.284561 0.741940
vt 0.709349 0.757922
vt 0.715699 0.752292
vt 0.707378 0.757719
vn -0.001248 0.724872 0.688883
vn -0.046889 0.967181 0.249725
vn -0.697713 0.541250 0.469303
vn -0.753263 0.637896 0.160263
vn 0.689328 0.529373 0.494562
vn 0.682062 0.691297 0.238536
vn -0.549015 0.819763 0.163007
vn 0.071701 0.964242 0.255141
vn 0.707919 0.691357 0.144486
vn -0.594332 0.689378 -0.414157
vn -0.394468 0.433389 -0.810290
vn -0.833107 0.092145 -0.545383
vn -0.533347 0.006802 -0.845869
vn 0.612490 0.674935 -0.411484
vn 0.853662 -0.038921 -0.519372
vn 0.436632 0.515692 -0.737166
vn 0.437447 0.007898 -0.899210
vn -0.677773 -0.501437 -0.537760
vn -0.350710 -0.469281 -0.810418
vn -0.006592 -0.906714 -0.421694
vn 0.031677 -0.675909 -0.736304
vn 0.611908 -0.669831 -0.420589
vn 0.455111 -0.560122 -0.692198
vn 0.078006 -0.991058 0.108258
vn -0.038944 -0.983618 0.176009
vn -0.686299 -0.722990 0.079243
vn -0.679048 -0.718368 0.151134
vn 0.816328 -0.562588 0.130776
vn 0.597199 -0.776642 0.200448
vn -0.679590 -0.594325 0.430041
vn 0.018567 -0.773562 0.633449
vn 0.683562 -0.572451 0.452815
vn 0.003383 -0.092203 0.995735
vn -0.831928 -0.076919 0.549526
vn 0.816086 -0.077590 0.572699
vn 0.976687 -0.057006 0.206959
vn 0.984211 0.092550 0.150876
vn -0.987917 -0.062743 0.141712
vn -0.991971 0.096785 0.081406
vn -0.709315 0.685469 0.164332
vn -0.011291 0.999425 0.031962
vn -0.050190 0.867519 -0.494865
vn -0.994791 -0.022400 0.099444
vn -0.542281 -0.840007 0.017866
vn 0.053296 -0.995107 0.083198
vn 0.676268 -0.736547 -0.012688
vn 0.997254 -0.060318 -0.042965
vn 0.759715 0.640435 0.112589
vn -0.481319 0.626761 0.612783
vn -0.782122 0.043396 0.621613
vn -0.019229 0.835178 0.549644
vn 0.423954 0.585233 0.691206
vn 0.769209 0.014443 0.638834
vn 0.538842 -0.624009 0.565917
vn -0.000541 -0.828225 0.560396
vn -0.511035 -0.628581 0.586284
vn 0.000690 0.805275 0.592901
vn -0.370400 0.603531 0.706084
vn 0.262160 0.536635 0.802057
vn 0.503582 0.030745 0.863400
vn 0.371671 -0.458515 0.807233
vn 0.002025 -0.793204 0.608952
vn -0.436173 -0.501562 0.747120
vn -0.648725 0.078430 0.756971
vn 0.007514 0.494359 -0.869225
vn -0.022653 -0.068343 -0.997405
f 2/2/1 5/3/2 1/1/3
f 1/1/3 5/3/2 4/4/4
f 2/2/1 3/5/5 5/3/2
f 5/3/2 3/5/5 6/6/6
f 4/4/4 5/3/2 28/20/7
f 28/20/7 5/3/2 27/19/8
f 5/3/2 6/6/6 27/19/8
f 27/19/8 6/6/6 34/21/9
f 7/8/10 52/66/11 10/11/12
f 10/11/12 52/66/11 53/68/13
f 9/9/14 12/12/15 58/74/16
f 58/74/16 12/12/15 57/73/17
f 13/16/18 54/69/19 14/15/20
f 14/15/20 54/69/19 55/70/21
f 15/18/22 14/15/20 56/71/23
f 56/71/23 14/15/20 55/70/21
f 31/23/24 17/24/25 30/22/26
f 30/22/26 17/24/25 16/25/27
f 32/26/28 18/27/29 31/23/24
f 31/23/24 18/27/29 17/24/25
f 16/25/27 17/24/25 19/29/30
f 19/29/30 17/24/25 20/28/31
f 18/27/29 21/30/32 17/24/25
f 17/24/25 21/30/32 20/28/31
f 20/28/31 23/31/33 19/29/30
f 19/29/30 23/31/33 22/32/34
f 20/28/31 21/30/32 23/31/33
f 23/31/33 21/30/32 24/33/35
f 22/32/34 23/31/33 1/1/3
f 1/1/3 23/31/33 2/2/1
f 24/33/35 3/5/5 23/31/33
f 23/31/33 3/5/5 2/2/1
f 24/33/35 21/30/32 25/34/36
f 25/34/36 21/30/32 18/27/29
f 24/33/35 25/34/36 3/5/5
f 3/5/5 25/34/36 6/6/6
f 18/27/29 32/26/28 25/34/36
f 25/34/36 32/26/28 33/75/37
f 25/34/36 33/75/37 6/6/6
f 6/6/6 33/75/37 34/21/9
f 22/32/34 26/76/38 19/29/30
f 19/29/30 26/76/38 16/25/27
f 22/32/34 1/1/3 26/76/38
f 26/76/38 1/1/3 4/4/4
f 16/25/27 26/76/38 30/22/26
f 30/22/26 26/76/38 29/77/39
f 26/76/38 4/4/4 29/77/39
f 29/77/39 4/4/4 28/20/7
f 36/47/40 37/48/41 7/8/10
f 7/8/10 37/48/41 8/7/42
f 36/47/40 7/8/10 35/46/43
f 35/46/43 7/8/10 10/11/12
f 42/54/44 35/45/43 13/16/18
f 13/16/18 35/45/43 10/13/12
f 13/16/18 14/15/20 42/54/44
f 42/54/44 14/15/20 41/53/45
f 14/15/20 15/18/22 41/53/45
f 41/53/45 15/18/22 40/52/46
f 40/52/46 15/18/22 39/51/47
f 39/51/47 15/18/22 12/17/15
f 38/49/48 39/50/47 9/9/14
f 9/9/14 39/50/47 12/12/15
f 38/49/48 9/9/14 37/48/41
f 37/48/41 9/9/14 8/7/42
f 43/55/49 36/47/40 50/64/50
f 50/64/50 36/47/40 35/46/43
f 44/56/51 37/48/41 43/55/49
f 43/55/49 37/48/41 36/47/40
f 44/56/51 45/57/52 37/48/41
f 37/48/41 45/57/52 38/49/48
f 45/57/52 46/58/53 38/49/48
f 38/49/48 46/58/53 39/50/47
f 46/59/53 47/60/54 39/51/47
f 39/51/47 47/60/54 40/52/46
f 40/52/46 47/60/54 41/53/45
f 41/53/45 47/60/54 48/61/55
f 42/54/44 41/53/45 49/62/56
f 49/62/56 41/53/45 48/61/55
f 50/63/50 35/45/43 49/62/56
f 49/62/56 35/45/43 42/54/44
f 27/35/57 44/56/51 28/36/58
f 28/36/58 44/56/51 43/55/49
f 27/35/57 34/44/59 44/56/51
f 44/56/51 34/44/59 45/57/52
f 34/44/59 33/42/60 45/57/52
f 45/57/52 33/42/60 46/58/53
f 33/43/60 32/41/61 46/59/53
f 46/59/53 32/41/61 47/60/54
f 47/60/54 32/41/61 48/61/55
f 48/61/55 32/41/61 31/40/62
f 49/62/56 48/61/55 30/39/63
f 30/39/63 48/61/55 31/40/62
f 29/37/64 50/63/50 30/39/63
f 30/39/63 50/63/50 49/62/56
f 28/36/58 43/55/49 29/38/64
f 29/38/64 43/55/49 50/64/50
f 7/8/10 8/7/42 52/66/11
f 52/66/11 8/7/42 51/65/65
f 57/72/17 12/17/15 56/71/23
f 56/71/23 12/17/15 15/18/22
f 10/13/12 53/67/13 13/16/18
f 13/16/18 53/67/13 54/69/19
f 9/9/14 58/74/16 8/7/42
f 8/7/42 58/74/16 51/65/65
f 53/68/13 52/66/11 11/10/66
f 11/10/66 52/66/11 51/65/65
f 55/70/21 54/69/19 11/14/66
f 11/14/66 54/69/19 53/67/13
f 55/70/21 11/14/66 56/71/23
f 56/71/23 11/14/66 57/72/17
f 58/74/16 57/73/17 51/65/65
f 51/65/65 57/73/17 11/10/66
