# This file uses centimeters as units for non-parametric coordinates.

v -0.068139 -0.037374 0.119061
v -0.000937 -0.049240 0.132771
v 0.068351 -0.037374 0.120755
v -0.123891 0.082223 0.165394
v 0.000313 0.068889 0.149953
v 0.138217 0.075595 0.154086
v -0.123328 0.138825 0.146330
v -0.002624 0.113412 0.142572
v 0.121556 0.142567 0.138519
v -0.245344 0.180152 0.010401
v -0.000151 0.242394 0.012152
v 0.243258 0.191329 0.015084
v -0.138958 0.162258 -0.100221
v 0.002010 0.139690 -0.081865
v 0.183580 0.152828 -0.097469
v -0.102174 0.071152 -0.056404
v 0.000028 0.079389 -0.048820
v 0.114796 0.065244 -0.055296
v -0.081039 -0.010926 -0.025600
v -0.000496 -0.022426 -0.033168
v 0.084458 -0.012167 -0.024145
v -0.134954 -0.025938 0.014582
v -0.001114 -0.073335 0.013211
v 0.133227 -0.025289 0.016934
v 0.146749 0.122219 0.025478
v -0.141522 0.118007 0.024029
v -0.007217 0.222615 0.065558
v 0.237590 0.186139 0.051790
v 0.177198 0.083577 0.118526
v 0.114998 -0.046470 0.041596
v 0.001655 -0.072316 0.068260
v -0.109801 -0.046485 0.043310
v -0.163124 0.085709 0.122110
v -0.241400 0.169426 0.051090
v -0.238097 0.154917 -0.069788
v -0.175263 0.083679 -0.027813
v -0.115552 -0.013615 -0.006181
v -0.001112 -0.046475 -0.019722
v 0.114797 -0.013747 -0.003551
v 0.187532 0.088674 -0.022325
v 0.236496 0.161439 -0.068104
v 0.000863 0.245758 -0.051358
v -0.003590 0.161402 0.147629
v -0.219553 0.186068 0.079124
v -0.229627 0.200666 0.009602
v -0.219110 0.212862 -0.052101
v 0.001577 0.212746 -0.107723
v 0.210135 0.219493 -0.050024
v 0.219848 0.207722 0.015010
v 0.199845 0.191371 0.093157
v -0.101561 0.183416 0.126244
v 0.089391 0.187148 0.118472
v 0.027877 0.138191 -0.122318
v 0.035430 0.070085 -0.066667
v 0.014878 -0.019332 -0.047172
v -0.019425 0.137926 -0.123080
v -0.019235 0.070123 -0.067420
v -0.012849 -0.020088 -0.047373
v 0.000359 0.011626 0.161076
v -0.074950 0.007489 0.137289
v 0.076595 0.008157 0.134449
v -0.095576 0.020803 0.071055
v -0.128848 0.020037 0.026597
v 0.116230 0.017701 0.076659
v 0.149652 0.021690 0.028772
v -0.009929 0.050518 -0.023821
v 0.002065 0.048354 -0.028042
v 0.019483 0.050459 -0.023542
v 0.121943 0.026331 -0.004065
v 0.075058 0.049925 -0.020979
v -0.116239 0.027523 -0.009338
v -0.070107 0.050595 -0.023699
v -0.134166 0.235253 -0.091763
v 0.179013 0.210079 -0.090444
v 0.030799 0.170924 0.136845
v 0.037510 0.122835 0.160540
v -0.038822 0.121033 0.162977
v -0.034025 0.168241 0.140986
v -0.034123 0.072585 0.173513
v 0.035511 0.070600 0.170286
vt 0.128140 0.613218
vt 0.150241 0.634684
vt 0.136985 0.656048
vt 0.072608 0.636620
vt 0.352879 0.660879
vt 0.411925 0.643101
vt 0.411312 0.642041
vt 0.350732 0.689182
vt 0.235751 0.637878
vt 0.321214 0.637510
vt 0.237418 0.662617
vt 0.109981 0.681410
vt 0.065443 0.647947
vt 0.233340 0.698406
vt 0.235160 0.616984
vt 0.349721 0.601442
vt 0.211625 0.482126
vt 0.241484 0.490458
vt 0.242812 0.546766
vt 0.157041 0.553507
vt 0.294187 0.502432
vt 0.343496 0.548519
vt 0.347123 0.550914
vt 0.347936 0.587953
vt 0.316892 0.496967
vt 0.240979 0.445094
vt 0.243641 0.430014
vt 0.321304 0.445164
vt 0.296651 0.455553
vt 0.180780 0.439059
vt 0.213051 0.441760
vt 0.242531 0.435106
vt 0.336223 0.464446
vt 0.340472 0.503816
vt 0.637573 0.479751
vt 0.733408 0.446117
vt 0.734681 0.466190
vt 0.377478 0.565801
vt 0.652734 0.488255
vt 0.723028 0.486790
vt 0.674273 0.488900
vt 0.723418 0.538771
vt 0.149947 0.585624
vt 0.172675 0.496800
vt 0.191454 0.489397
vt 0.149151 0.547786
vt 0.161469 0.458402
vt 0.672410 0.538314
vt 0.739545 0.537011
vt 0.750364 0.538865
vt 0.755851 0.555402
vt 0.741575 0.562884
vt 0.745093 0.486236
vt 0.734713 0.484825
vt 0.730357 0.692211
vt 0.610697 0.669511
vt 0.625448 0.677998
vt 0.411326 0.633116
vt 0.731574 0.694310
vt 0.889758 0.596765
vt 0.082198 0.634523
vt 0.875657 0.646558
vt 0.871106 0.656975
vt 0.852279 0.665771
vt 0.743319 0.657766
vt 0.723919 0.607085
vt 0.741171 0.608881
vt 0.841663 0.663861
vt 0.652995 0.669391
vt 0.757767 0.606917
vt 0.835943 0.609390
vt 0.716933 0.555315
vt 0.135864 0.558975
vt 0.600375 0.569244
vt 0.625793 0.523107
vt 0.632348 0.523156
vt 0.592841 0.649531
vt 0.594124 0.625538
vt 0.660154 0.551697
vt 0.645695 0.621784
vt 0.824270 0.474431
vt 0.809981 0.483458
vt 0.805662 0.490156
vt 0.805432 0.539039
vt 0.831712 0.529614
vt 0.839890 0.524755
vt 0.879808 0.555235
vt 0.814408 0.556521
vt 0.267360 0.637742
vt 0.272185 0.611961
vt 0.209188 0.636886
vt 0.203066 0.615854
vt 0.219032 0.548635
vt 0.268511 0.547213
vn -0.669210 0.308328 0.676086
vn -0.780271 0.606624 0.152267
vn -0.924837 -0.162596 0.343860
vn -0.981702 -0.115986 0.151027
vn -0.065258 -0.677432 0.732685
vn -0.003458 -0.977271 0.211966
vn 0.492226 -0.593912 0.636382
vn 0.595697 -0.783727 0.175831
vn -0.696388 -0.625433 0.351963
vn -0.611103 -0.595024 0.522015
vn 0.001087 -0.892440 -0.451165
vn 0.787906 -0.518294 -0.332529
vn 0.456283 -0.540137 -0.707148
vn 0.013447 -0.737016 -0.675741
vn 0.349659 -0.233813 -0.907232
vn -0.128130 -0.120199 -0.984447
vn 0.060833 -0.595223 -0.801254
vn 0.074246 -0.315421 -0.946043
vn -0.826370 -0.477954 0.297779
vn -0.776563 -0.598364 0.197257
vn 0.054374 -0.085203 -0.994879
vn 0.014766 -0.378847 -0.925342
vn 0.416965 -0.583348 -0.697026
vn 0.395325 -0.706429 -0.587092
vn 0.120857 -0.082898 -0.989202
vn 0.726978 -0.181941 -0.662118
vn -0.647064 -0.159502 -0.745565
vn -0.082163 -0.057938 -0.994933
vn 0.150153 0.968926 0.196561
vn 0.134827 0.990242 -0.035254
vn 0.002582 0.980913 0.194431
vn -0.012414 0.999901 0.006579
vn -0.772470 -0.179498 -0.609155
vn -0.705957 0.421741 -0.568999
vn -0.167912 0.957042 0.236380
vn -0.157400 0.976282 0.148660
vn -0.440252 0.020411 -0.897642
vn -0.222385 -0.299145 -0.927932
vn -0.711573 -0.362598 -0.601820
vn -0.144595 0.961617 0.233205
vn 0.120270 0.942410 -0.312087
vn 0.311358 -0.358212 -0.880193
vn 0.259366 0.081044 -0.962373
vn 0.824006 -0.283621 -0.490482
vn -0.447698 0.131871 -0.884408
vn -0.284241 -0.123124 -0.950814
vn -0.243753 -0.606907 -0.756471
vn -0.293223 -0.739332 -0.606142
vn 0.072776 0.861011 -0.503353
vn 0.062014 0.861578 -0.503822
vn 0.072776 0.861011 -0.503353
vn 0.083529 0.860343 -0.502826
vn -0.096143 0.120795 -0.988011
vn 0.863914 -0.362980 0.349139
vn 0.858360 -0.491695 0.146470
vn 0.916853 -0.006489 0.399171
vn 0.974692 0.063753 0.214267
vn 0.738684 -0.504857 0.446615
vn 0.918301 -0.395880 -0.001187
vn 0.728176 -0.669558 -0.146462
vn 0.512044 -0.384191 -0.768250
vn 0.526657 0.829614 0.185399
vn 0.732421 0.622826 -0.275039
vn 0.828293 -0.023664 -0.559796
vn 0.178050 -0.734739 -0.654566
vn 0.378093 -0.352668 -0.855962
vn 0.565940 0.319808 -0.759891
vn 0.121122 0.178309 -0.976492
vn -0.906832 -0.267360 0.325844
vn -0.968223 -0.147703 0.201814
vn -0.781836 -0.514236 -0.352552
vn -0.585220 -0.396719 -0.707199
vn -0.372920 -0.308292 -0.875150
vn -0.109800 -0.422131 -0.899861
vn -0.502082 -0.419556 -0.756232
vn -0.668372 -0.709822 -0.222333
vn -0.178136 -0.672894 -0.717970
vn -0.202744 0.482740 0.851973
vn -0.398105 0.264467 0.878390
vn 0.529677 0.392846 0.751741
vn -0.033955 0.800409 0.598491
vn 0.008080 0.801737 0.597623
vn 0.008080 0.801737 0.597623
vn -0.142576 0.941601 0.305058
vn -0.041805 0.867635 0.495441
vn -0.040086 0.903345 0.427038
vn 0.104818 0.929336 0.354046
vn 0.149826 0.453741 0.878449
vn 0.038568 0.191069 0.980819
vn -0.239512 0.188789 0.952362
vn 0.045266 0.097030 0.994252
vn -0.099740 0.428477 0.898031
vn 0.317175 0.204922 0.925963
vn 0.050101 0.801645 0.595697
vn 0.174313 0.505695 0.844919
vn 0.407232 0.246102 0.879543
vn 0.019077 0.846273 0.532408
vn 0.551158 0.186065 0.813391
vn 0.041246 0.190543 0.980812
vn 0.040651 0.178292 0.983138
vn -0.479655 0.151880 0.864213
vn 0.456101 -0.217465 0.862949
vn 0.477591 -0.439226 0.760912
vn 0.062248 -0.372831 0.925809
vn -0.498014 -0.447555 0.742749
vn -0.835159 -0.438266 0.332316
vn -0.488992 -0.219744 0.844156
vn 0.050101 0.801645 0.595698
vn -0.090994 0.318821 0.943437
vn -0.090497 0.437302 0.894750
vn -0.160169 -0.191715 0.968293
vn 0.209756 -0.191023 0.958912
vn 0.150609 0.346192 0.925996
vn 0.149825 0.453741 0.878449
vn 0.133246 0.465005 0.875223
vn -0.033955 0.800410 0.598491
f 44/3/1 45/12/2 34/4/3
f 34/4/3 45/12/2 10/13/4
f 2/26/5 31/27/6 3/29/7
f 3/29/7 31/27/6 30/28/8
f 32/30/9 31/27/6 1/31/10
f 1/31/10 31/27/6 2/26/5
f 31/27/6 23/32/11 30/28/8
f 30/28/8 23/32/11 24/33/12
f 24/35/12 23/36/11 39/39/13
f 39/39/13 23/36/11 38/37/14
f 39/39/13 38/37/14 21/41/15
f 21/41/15 38/37/14 55/40/16
f 70/48/17 21/41/15 68/42/18
f 68/42/18 21/41/15 55/40/16
f 33/46/19 34/4/3 26/43/20
f 26/43/20 34/4/3 10/13/4
f 67/49/21 66/50/22 17/52/23
f 17/52/23 66/50/22 57/51/24
f 38/37/14 58/53/25 20/54/26
f 55/40/16 38/37/14 20/54/27
f 68/42/18 55/40/16 67/49/28
f 67/49/28 55/40/16 20/54/27
f 66/50/22 67/49/21 58/53/25
f 58/53/25 67/49/21 20/54/26
f 49/56/29 48/57/30 11/55/31
f 11/55/31 48/57/30 42/59/32
f 35/60/33 10/62/4 46/64/34
f 46/64/34 10/62/4 45/63/2
f 45/63/35 11/55/31 46/64/36
f 46/64/36 11/55/31 42/59/32
f 47/65/37 53/66/38 14/67/39
f 42/59/32 73/68/40 46/64/36
f 74/69/41 42/59/32 48/57/30
f 56/70/42 47/65/43 14/67/44
f 73/68/45 13/71/46 46/64/34
f 46/64/34 13/71/46 35/60/33
f 17/52/47 14/67/39 54/72/48
f 54/72/48 14/67/39 53/66/38
f 17/52/23 57/51/24 14/67/44
f 14/67/44 57/51/24 56/70/42
f 54/72/48 68/42/18 17/52/47
f 17/52/47 68/42/18 67/49/28
f 42/59/49 74/69/50 47/65/51
f 73/68/52 42/59/49 47/65/51
f 73/68/53 47/65/43 13/71/46
f 13/71/46 47/65/43 56/70/42
f 29/23/54 25/24/55 28/6/56
f 28/6/56 25/24/55 12/7/57
f 64/25/58 65/34/59 29/23/54
f 29/23/54 65/34/59 25/24/55
f 40/74/60 65/75/59 69/76/61
f 65/34/59 64/25/58 24/33/12
f 24/33/12 64/25/58 30/28/8
f 39/39/13 69/76/61 24/35/12
f 24/35/12 69/76/61 65/75/59
f 70/48/17 69/76/61 21/41/15
f 21/41/15 69/76/61 39/39/13
f 49/56/62 12/77/57 48/57/63
f 48/57/63 12/77/57 41/78/64
f 41/58/64 12/7/57 40/38/60
f 40/38/60 12/7/57 25/24/55
f 18/79/65 15/80/66 40/74/60
f 40/74/60 15/80/66 41/78/64
f 70/48/17 18/79/65 69/76/61
f 69/76/61 18/79/65 40/74/60
f 54/72/48 53/66/38 18/79/65
f 18/79/65 53/66/38 15/80/66
f 18/79/65 70/48/17 54/72/48
f 54/72/48 70/48/17 68/42/18
f 48/57/63 41/78/64 74/69/67
f 74/69/67 41/78/64 15/80/66
f 15/80/66 53/66/38 74/69/68
f 74/69/68 53/66/38 47/65/37
f 65/34/59 40/38/60 25/24/55
f 33/46/19 26/43/20 62/45/69
f 62/45/69 26/43/20 63/44/70
f 31/27/6 32/30/9 23/32/11
f 23/32/11 32/30/9 22/47/71
f 22/81/71 37/82/72 23/36/11
f 23/36/11 37/82/72 38/37/14
f 58/53/25 38/37/14 19/83/73
f 19/83/73 38/37/14 37/82/72
f 62/45/69 63/44/70 32/30/9
f 32/30/9 63/44/70 22/47/71
f 19/83/73 72/84/74 58/53/25
f 58/53/25 72/84/74 66/50/22
f 72/84/74 19/83/73 71/85/75
f 71/85/75 19/83/73 37/82/72
f 71/85/75 37/82/72 63/86/70
f 63/86/70 37/82/72 22/81/71
f 63/86/70 36/87/76 71/85/75
f 26/43/20 10/13/4 36/73/76
f 36/73/76 10/13/4 35/61/33
f 35/60/33 13/71/46 36/87/76
f 36/87/76 13/71/46 16/88/77
f 72/84/74 71/85/75 16/88/77
f 16/88/77 71/85/75 36/87/76
f 66/50/22 72/84/74 57/51/24
f 57/51/24 72/84/74 16/88/77
f 57/51/24 16/88/77 56/70/42
f 56/70/42 16/88/77 13/71/46
f 36/73/76 63/44/70 26/43/20
f 51/2/78 44/3/1 7/1/79
f 7/1/79 44/3/1 34/4/3
f 50/5/80 28/6/56 49/8/62
f 49/8/62 28/6/56 12/7/57
f 75/89/81 27/11/82 43/9/83
f 44/3/84 51/2/85 27/11/86
f 44/3/84 27/11/86 45/12/35
f 45/12/35 27/11/86 11/14/31
f 27/11/86 50/5/87 11/14/31
f 11/14/31 50/5/87 49/8/29
f 75/89/88 43/9/89 76/90/90
f 76/90/90 43/9/89 8/15/91
f 78/91/92 77/92/93 43/9/89
f 43/9/89 77/92/93 8/15/91
f 27/11/82 78/91/94 43/9/83
f 52/10/95 9/16/96 50/5/80
f 50/5/80 9/16/96 28/6/56
f 27/11/86 52/10/97 50/5/87
f 79/93/98 59/18/99 5/19/100
f 59/18/99 80/94/101 5/19/100
f 77/92/93 79/93/98 8/15/91
f 8/15/91 79/93/98 5/19/100
f 76/90/90 8/15/91 80/94/101
f 80/94/101 8/15/91 5/19/100
f 6/22/102 29/23/54 9/16/96
f 9/16/96 29/23/54 28/6/56
f 61/21/103 64/25/58 6/22/102
f 6/22/102 64/25/58 29/23/54
f 59/18/104 60/17/105 2/26/5
f 2/26/5 60/17/105 1/31/10
f 61/21/103 59/18/104 3/29/7
f 3/29/7 59/18/104 2/26/5
f 61/21/103 3/29/7 64/25/58
f 64/25/58 3/29/7 30/28/8
f 33/46/19 62/45/106 4/20/107
f 4/20/107 62/45/106 60/17/105
f 34/4/3 33/46/19 7/1/79
f 7/1/79 33/46/19 4/20/107
f 60/17/105 62/45/106 1/31/10
f 1/31/10 62/45/106 32/30/9
f 78/91/108 27/11/86 51/2/85
f 77/92/109 78/91/110 7/1/79
f 7/1/79 78/91/110 51/2/78
f 79/93/111 77/92/109 4/20/107
f 4/20/107 77/92/109 7/1/79
f 59/18/104 79/93/111 60/17/105
f 60/17/105 79/93/111 4/20/107
f 59/18/104 61/21/103 80/94/112
f 80/94/112 61/21/103 6/22/102
f 80/94/112 6/22/102 76/90/113
f 76/90/113 6/22/102 9/16/96
f 75/89/114 76/90/113 52/10/115
f 52/10/115 76/90/113 9/16/96
f 27/11/86 75/89/116 52/10/97
