# This file uses centimeters as units for non-parametric coordinates.

v -0.025894 0.052500 0.057059
v -0.009725 0.052885 0.057059
v 0.009782 0.036813 0.057205
v -0.056306 0.065146 -0.059344
v -0.017318 0.074311 -0.048920
v 0.018405 0.065439 -0.064589
v -0.079246 0.018892 -0.062956
v -0.015583 0.045586 -0.125693
v 0.027568 0.011239 -0.074434
v -0.058886 -0.043112 -0.064901
v -0.017790 -0.050353 -0.058056
v 0.017596 -0.040840 -0.065531
v -0.042624 -0.019619 0.041322
v -0.018756 -0.034856 0.041323
v 0.002902 -0.029978 0.056532
v 0.018698 0.001619 0.056610
v -0.041178 0.023008 0.050601
v -0.012448 0.018249 0.081104
v -0.044943 0.008031 -0.123026
v -0.083208 0.021170 -0.099962
v -0.050073 0.062339 -0.094505
v -0.017841 0.069873 -0.090244
v 0.015558 0.064613 -0.091225
v 0.022085 0.027167 -0.112425
v 0.007455 0.015190 -0.128795
v -0.018469 0.016520 -0.139151
v -0.015869 -0.009444 0.071070
v -0.032102 -0.000631 0.071045
v -0.032551 0.021871 0.071253
v -0.020532 0.040029 0.071212
v -0.010145 0.041511 0.071193
v 0.004851 0.032370 0.071245
v 0.007193 0.014006 0.071264
v -0.001982 -0.006476 0.071203
v -0.039024 0.021752 0.067128
v -0.041582 0.004369 0.067407
v -0.045783 -0.011555 0.047731
v -0.079022 -0.024974 -0.059471
v -0.083501 -0.003052 -0.104584
v -0.084185 0.024267 -0.113284
v -0.082471 0.050271 -0.099615
v -0.078283 0.056878 -0.063202
v -0.035823 0.047271 0.059179
v -0.035726 0.040937 0.065284
v -0.054781 0.023807 -0.118546
v -0.057314 -0.043304 -0.040863
v -0.018601 -0.051910 -0.045911
v 0.020260 -0.041866 -0.043068
v 0.030671 0.010292 -0.045038
v 0.018991 0.062574 -0.036295
v -0.018572 0.073180 -0.036488
v -0.054263 0.064489 -0.033784
v -0.053525 -0.034958 -0.111449
v -0.016280 -0.044808 -0.117731
v 0.017439 -0.029176 -0.114769
v 0.025227 0.021912 -0.090821
vt 0.044034 0.392877
vt 0.053831 0.392517
vt 0.050617 0.453661
vt 0.029001 0.452300
vt 0.065771 0.391387
vt 0.073502 0.452152
vt 0.971021 0.405393
vt 0.943767 0.407712
vt 0.937106 0.361327
vt 0.950756 0.356656
vt 0.917182 0.404963
vt 0.924777 0.357093
vt 0.904619 0.368719
vt 0.903877 0.411398
vt 0.939801 0.337263
vt 0.940760 0.336952
vt 0.071439 0.390308
vt 0.081079 0.454998
vt 0.932981 0.342710
vt 0.924313 0.346758
vt 0.928807 0.337430
vt 0.919171 0.349425
vt 0.024189 0.391094
vt 0.005661 0.466186
vt 0.047067 0.383235
vt 0.053333 0.383058
vt 0.064029 0.381671
vt 0.062476 0.382363
vt 0.024177 0.386953
vt 0.898522 0.444574
vt 0.897227 0.433502
vt 0.915273 0.449126
vt 0.918386 0.420422
vt 0.939953 0.457178
vt 0.942885 0.416026
vt 0.967059 0.356000
vt 0.948812 0.340973
vt 0.947860 0.341873
vt 0.954050 0.348469
vt 0.989155 0.414122
vt 0.990291 0.417645
vt 0.996283 0.447459
vt 0.988237 0.450748
vt 0.989320 0.457299
vt 0.051682 0.461671
vt 0.073831 0.470437
vt 0.971395 0.421882
vt 0.942602 0.473214
vt 0.920568 0.461147
vt 0.909990 0.455305
vt 0.072769 0.487499
vt 0.052455 0.487924
vt 0.968695 0.460155
vt 0.078803 0.484580
vt 0.961240 0.462643
vt 0.966242 0.454028
vt 0.079928 0.473760
vt 0.020192 0.378708
vt 0.051930 0.375994
vt 0.006048 0.489584
vt 0.012319 0.505049
vt 0.006158 0.488110
vt 0.005773 0.464011
vt 0.015508 0.392115
vt 0.016401 0.381484
vt 0.077421 0.498643
vt 0.028411 0.468747
vt 0.033132 0.490929
vt 0.027320 0.512317
vt 0.054951 0.509020
vt 0.053835 0.515779
vt 0.033543 0.513967
vt 0.069112 0.508590
vn 0.225580 0.866699 0.444913
vn 0.008494 0.979708 0.200252
vn -0.192835 0.859213 0.473885
vn -0.402680 0.884680 0.234927
vn 0.816653 0.450140 0.361182
vn 0.683276 0.696342 0.219640
vn 0.022128 -0.981174 0.191857
vn -0.188784 -0.908525 0.372749
vn -0.586091 -0.756042 0.291374
vn -0.529359 -0.690620 0.492770
vn 0.641343 -0.745170 0.182758
vn 0.345730 -0.711295 0.611988
vn 0.891599 -0.141367 0.430193
vn 0.988172 0.082218 0.129448
vn -0.753658 -0.581450 0.306457
vn -0.652742 -0.605201 0.455698
vn -0.408948 0.811025 0.418330
vn -0.563691 0.784924 0.257191
vn -0.424903 -0.410452 0.806837
vn -0.438412 0.120691 0.890634
vn -0.512042 -0.183337 0.839167
vn -0.534402 0.131856 0.834882
vn -0.198886 0.539319 0.818278
vn 0.228916 0.640359 0.733170
vn -0.193446 -0.571223 0.797674
vn 0.380283 -0.341868 0.859367
vn 0.012601 0.029148 0.999496
vn 0.696061 -0.017828 0.717761
vn 0.583432 0.371365 0.722285
vn -0.341642 0.460313 0.819385
vn -0.003347 0.994283 -0.106725
vn 0.696924 0.711628 -0.088789
vn -0.016352 0.995380 -0.094607
vn 0.678754 0.728179 -0.095124
vn 0.981184 0.003874 -0.193035
vn 0.995668 -0.029928 -0.088033
vn 0.775889 -0.320514 -0.543384
vn 0.622618 -0.771718 -0.129608
vn -0.002199 -0.760027 -0.649888
vn -0.057325 -0.990482 -0.125137
vn -0.967210 0.080579 0.240855
vn -0.982993 0.134255 0.125299
vn -0.968518 0.117478 0.219482
vn -0.976576 0.163630 0.139732
vn -0.980131 0.010741 0.198061
vn -0.980702 0.027143 0.193618
vn -0.995772 0.009549 0.091367
vn -0.995665 -0.002364 0.092979
vn -0.997061 0.011243 0.075787
vn -0.994806 0.024687 0.098755
vn -0.965888 0.047459 0.254574
vn -0.959378 0.121791 0.254480
vn -0.973293 0.167016 0.157498
vn -0.436970 -0.894838 -0.091225
vn -0.368648 -0.928955 -0.033776
vn -0.699956 -0.701323 -0.134936
vn 0.024256 -0.996428 -0.080885
vn 0.012351 -0.991915 -0.126300
vn 0.841689 -0.526922 -0.117952
vn 0.565470 -0.816491 -0.116560
vn 0.996455 -0.000731 -0.084124
vn 0.994377 -0.011140 -0.105310
vn 0.579732 0.810987 0.078805
vn 0.854410 0.519597 -0.001707
vn 0.019602 0.995520 0.092492
vn 0.019567 0.996500 0.081267
vn 0.754207 -0.273265 -0.597075
vn 0.057194 -0.296447 -0.953335
vn 0.960452 -0.204170 -0.189329
vn 0.971704 0.219199 -0.087992
vn -0.277529 0.959197 0.054031
vn -0.269774 0.961577 -0.050908
vn -0.339968 0.937752 -0.071021
vn -0.251731 0.909911 -0.329687
vn -0.130528 0.396283 -0.908803
vn -0.198566 0.709497 -0.676155
vn -0.233694 0.121327 -0.964711
vn -0.001302 0.824915 -0.565256
vn 0.314475 0.681810 -0.660486
vn 0.014434 0.558652 -0.829277
vn -0.116182 0.426791 -0.896856
vn -0.417449 0.264610 -0.869320
vn 0.423960 0.404025 -0.810569
vn -0.343143 0.328840 -0.879839
vn 0.488247 0.467744 -0.736770
vn -0.276845 0.684869 -0.674026
vn -0.477782 -0.717214 -0.507275
vn -0.534028 -0.401107 -0.744263
vn -0.313723 -0.166916 -0.934728
f 2/2/1 51/3/2 1/1/3
f 1/1/3 51/3/2 52/4/4
f 3/5/5 50/6/6 2/2/1
f 2/2/1 50/6/6 51/3/2
f 47/8/7 14/9/8 46/7/9
f 46/7/9 14/9/8 13/10/10
f 47/8/7 48/11/11 14/9/8
f 14/9/8 48/11/11 15/12/12
f 15/12/12 48/11/11 16/13/13
f 16/13/13 48/11/11 49/14/14
f 16/17/13 49/18/14 3/5/5
f 3/5/5 49/18/14 50/6/6
f 38/40/15 46/7/9 37/36/16
f 37/36/16 46/7/9 13/10/10
f 1/1/3 52/4/4 43/23/17
f 43/23/17 52/4/4 42/24/18
f 28/15/19 29/16/20 36/37/21
f 36/37/21 29/16/20 35/38/22
f 1/1/3 30/25/23 2/2/1
f 2/2/1 30/25/23 31/26/24
f 27/19/25 34/20/26 18/21/27
f 16/17/13 3/5/5 33/27/28
f 33/27/28 3/5/5 32/28/29
f 43/23/17 44/29/30 1/1/3
f 1/1/3 44/29/30 30/25/23
f 32/28/29 3/5/5 31/26/24
f 31/26/24 3/5/5 2/2/1
f 15/12/12 16/13/13 34/20/26
f 34/20/26 16/13/13 33/22/28
f 14/9/8 27/19/25 13/10/10
f 13/10/10 27/19/25 28/15/19
f 5/45/31 6/46/32 22/52/33
f 22/52/33 6/46/32 23/51/34
f 23/51/34 6/46/32 56/54/35
f 56/54/35 6/46/32 9/57/36
f 56/30/35 9/31/36 55/32/37
f 55/32/37 9/31/36 12/33/38
f 55/32/37 12/33/38 54/34/39
f 54/34/39 12/33/38 11/35/40
f 27/19/25 18/21/27 28/15/19
f 29/16/20 28/15/19 18/21/27
f 30/25/23 29/58/20 18/59/27
f 31/26/24 30/25/23 18/59/27
f 18/59/27 32/28/29 31/26/24
f 18/59/27 33/27/28 32/28/29
f 34/20/26 33/22/28 18/21/27
f 34/20/26 27/19/25 15/12/12
f 15/12/12 27/19/25 14/9/8
f 13/10/10 28/15/19 37/36/16
f 37/36/16 28/15/19 36/37/21
f 37/36/41 36/37/42 17/39/43
f 17/39/43 36/37/42 35/38/44
f 38/40/45 37/36/41 7/41/46
f 7/41/46 37/36/41 17/39/43
f 20/42/47 39/43/48 7/41/46
f 7/41/46 39/43/48 38/40/45
f 20/42/47 40/44/49 39/43/48
f 41/60/50 40/61/49 20/62/47
f 42/24/51 41/60/50 7/63/46
f 7/63/46 41/60/50 20/62/47
f 43/23/52 42/24/51 17/64/43
f 17/64/43 42/24/51 7/63/46
f 30/25/23 44/29/30 29/58/20
f 29/58/20 44/29/30 35/65/22
f 43/23/52 17/64/43 44/29/53
f 44/29/53 17/64/43 35/65/44
f 10/47/54 46/7/55 38/40/56
f 10/47/54 11/35/57 46/7/55
f 46/7/55 11/35/57 47/8/58
f 12/33/59 48/11/60 11/35/57
f 11/35/57 48/11/60 47/8/58
f 48/11/60 12/33/59 49/14/61
f 49/14/61 12/33/59 9/31/62
f 50/6/63 49/18/61 6/46/64
f 6/46/64 49/18/61 9/57/62
f 51/3/65 50/6/63 5/45/66
f 5/45/66 50/6/63 6/46/64
f 25/49/67 55/32/37 26/48/68
f 26/48/68 55/32/37 54/34/39
f 24/50/69 56/30/35 25/49/67
f 25/49/67 56/30/35 55/32/37
f 24/66/69 23/51/70 56/54/35
f 51/3/65 5/45/66 52/4/71
f 52/4/71 5/45/66 4/67/72
f 42/24/73 52/4/71 4/67/72
f 21/68/74 45/69/75 41/60/76
f 41/60/76 45/69/75 40/61/77
f 22/52/78 23/51/79 8/70/80
f 26/71/81 19/72/82 8/70/80
f 8/70/80 25/73/83 26/71/81
f 19/72/82 45/69/84 8/70/80
f 8/70/80 24/66/85 25/73/83
f 21/68/86 22/52/78 8/70/80
f 8/70/80 23/51/79 24/66/85
f 10/47/54 38/40/56 53/56/87
f 53/56/87 38/40/56 39/43/88
f 4/67/72 21/68/74 42/24/73
f 42/24/73 21/68/74 41/60/76
f 5/45/31 22/52/33 4/67/72
f 4/67/72 22/52/33 21/68/74
f 10/47/54 53/56/87 11/35/40
f 11/35/40 53/56/87 54/34/39
f 53/56/87 19/55/89 54/34/39
f 54/34/39 19/55/89 26/48/68
f 53/56/87 39/43/88 19/55/89
f 39/43/88 40/44/77 19/55/89
f 45/53/75 19/55/89 40/44/77
f 45/69/84 21/68/86 8/70/80
