# This file uses centimeters as units for non-parametric coordinates.

v 0.042380 0.038588 0.146537
v 0.079320 0.046026 0.113404
v 0.094918 0.044538 0.076713
v -0.033720 0.047254 -0.000933
v 0.006110 0.083844 0.016285
v 0.054731 0.056799 0.016771
v -0.037272 -0.040994 -0.010719
v -0.011465 -0.046944 -0.028636
v 0.028908 -0.047773 -0.008893
v 0.034399 -0.061767 0.124758
v 0.069726 -0.060958 0.125205
v 0.072920 -0.053378 0.081451
v 0.022336 -0.018137 0.143831
v 0.085132 -0.022867 0.130567
v 0.089981 -0.012880 0.073486
v -0.044310 -0.010004 -0.006044
v -0.025093 -0.017325 0.075364
v -0.004426 0.047153 0.072108
v 0.013134 0.061140 0.063263
v 0.061722 0.032243 0.061217
v 0.038690 -0.025877 0.062522
v 0.033601 -0.066763 0.025681
v 0.001964 -0.070048 0.029416
v -0.017775 -0.062995 0.046728
v 0.068924 0.044830 0.076662
v 0.083841 0.028008 0.070309
v 0.093853 0.052059 0.041293
v 0.079358 0.067516 0.060985
v 0.033646 -0.005679 0.002044
v -0.015923 -0.002563 -0.039443
v 0.097600 0.024777 0.138031
v 0.046597 0.032396 0.008210
v -0.012360 0.023476 -0.031605
v 0.056946 0.060543 0.077576
v 0.047683 0.092062 0.039035
v 0.075162 0.064936 0.035844
v -0.012559 -0.017441 0.109168
v 0.062695 0.046888 0.080472
v -0.002596 -0.071357 0.093154
v 0.017623 0.046710 0.107862
v 0.037574 0.057043 0.095995
v 0.043673 -0.071322 0.074975
v 0.022648 -0.072828 0.090631
v 0.012244 -0.063201 0.112579
vt 0.112751 0.332926
vt 0.104338 0.328071
vt 0.108942 0.343515
vt 0.119990 0.342545
vt 0.102774 0.363428
vt 0.102714 0.337755
vt 0.078852 0.363967
vt 0.119529 0.339100
vt 0.112409 0.353059
vt 0.112203 0.381448
vt 0.124069 0.364639
vt 0.113662 0.355046
vt 0.078353 0.389944
vt 0.061179 0.391555
vt 0.046912 0.389170
vt 0.049561 0.380340
vt 0.058896 0.360092
vt 0.036413 0.355288
vt 0.029144 0.372802
vt 0.034379 0.372928
vt 0.116064 0.313833
vt 0.110187 0.297668
vt 0.113471 0.321191
vt 0.108253 0.351966
vt 0.033318 0.340201
vt 0.039402 0.339281
vt 0.036229 0.335416
vt 0.086432 0.298723
vt 0.050217 0.284831
vt 0.061963 0.283067
vt 0.084940 0.289315
vt 0.049748 0.301153
vt 0.076566 0.316570
vt 0.114182 0.327055
vt 0.064519 0.329238
vt 0.076519 0.323527
vt 0.118254 0.332082
vt 0.067396 0.340469
vt 0.121311 0.335041
vt 0.114264 0.333266
vt 0.037825 0.305822
vt 0.039450 0.303612
vt 0.048606 0.299181
vt 0.038984 0.308549
vn 0.040357 -0.173850 0.983945
vn 0.588192 -0.473999 0.655252
vn 0.668701 0.598255 0.441508
vn 0.762264 -0.193627 -0.617626
vn 0.620520 0.132116 -0.772981
vn 0.824819 -0.429892 -0.367243
vn 0.702918 0.045764 -0.709797
vn -0.100032 0.233651 0.967161
vn -0.388089 -0.921130 -0.030117
vn 0.667469 0.256926 -0.698909
vn -0.188896 0.885186 -0.425164
vn 0.243738 0.969834 0.003812
vn -0.291406 0.811277 0.506865
vn -0.728448 0.193398 -0.657238
vn -0.028350 0.363066 -0.931332
vn -0.756312 0.135500 -0.640025
vn -0.229164 -0.005882 -0.973370
vn 0.835729 -0.082761 -0.542871
vn 0.072997 -0.538311 -0.839579
vn 0.538208 -0.548666 -0.639764
vn -0.618613 -0.584346 -0.525222
vn -0.077804 0.575768 0.813903
vn 0.449351 0.813762 0.368612
vn 0.285985 0.938794 0.192039
vn -0.595098 0.764456 -0.247921
vn 0.994244 0.042490 -0.098356
vn -0.687498 0.612639 0.389897
vn -0.124263 -0.971202 -0.203286
vn -0.641827 -0.766791 0.009454
vn 0.815563 -0.506777 -0.279346
vn -0.423370 -0.130132 0.896562
vn -0.081648 -0.643361 0.761197
vn 0.605037 -0.334073 0.722721
vn 0.430956 -0.812309 0.392977
vn 0.687480 -0.649073 -0.325693
vn 0.729665 -0.175269 -0.660961
vn 0.886322 -0.223501 0.405563
vn 0.623194 0.703785 -0.341051
vn 0.980915 -0.181996 -0.068432
vn -0.588227 0.644704 0.488206
vn -0.824438 0.019067 0.565631
vn -0.943898 -0.092180 0.317112
vn 0.058663 0.998273 0.003085
vn 0.333667 0.686690 -0.645850
vn 0.487799 -0.858173 -0.159973
vn -0.015137 -0.994066 0.107722
vn -0.393819 -0.700586 0.595051
vn -0.589503 -0.745089 0.311975
vn 0.261750 -0.110324 -0.958809
vn 0.544927 -0.761809 -0.350286
vn 0.162452 -0.953584 0.253550
vn -0.437434 -0.616380 0.654773
vn -0.884792 0.301534 0.355275
vn -0.926096 0.229800 0.299229
vn -0.959842 0.062995 0.273378
vn -0.966277 -0.124717 0.225288
vn -0.941867 -0.261311 0.211195
vn -0.942321 -0.247940 0.224850
f 25/1/1 26/2/2 28/4/3
f 28/4/3 26/2/2 27/3/4
f 6/5/5 20/6/6 32/7/7
f 34/8/8 20/6/9 25/1/1
f 25/1/1 20/6/9 26/2/2
f 36/9/10 27/3/4 20/6/9
f 20/6/9 27/3/4 26/2/2
f 5/10/11 35/11/12 6/5/5
f 6/5/5 35/11/12 36/9/10
f 5/10/11 19/12/13 35/11/12
f 35/11/12 19/12/13 34/8/8
f 4/13/14 33/14/15 16/16/16
f 16/16/16 33/14/15 30/15/17
f 6/5/5 32/7/7 5/10/11
f 5/10/11 32/7/7 33/14/15
f 30/15/17 29/17/18 8/19/19
f 8/19/19 29/17/18 9/18/20
f 16/16/16 30/15/17 7/20/21
f 7/20/21 30/15/17 8/19/19
f 32/7/7 29/17/18 33/14/15
f 33/14/15 29/17/18 30/15/17
f 35/11/12 34/8/8 28/4/3
f 28/4/3 34/8/8 25/1/1
f 35/11/12 28/4/3 36/9/10
f 36/9/10 28/4/3 27/3/4
f 20/6/6 6/5/5 36/9/10
f 1/21/22 31/22/23 2/23/24
f 33/14/15 4/13/25 5/10/11
f 19/12/13 20/6/26 34/8/8
f 4/13/25 18/24/27 5/10/11
f 5/10/11 18/24/27 19/12/13
f 8/19/19 23/25/28 7/20/21
f 7/20/21 23/25/28 24/26/29
f 8/19/19 9/18/20 23/25/28
f 23/25/28 9/18/20 22/27/30
f 13/28/31 10/29/32 14/31/33
f 14/31/33 10/29/32 11/30/34
f 11/30/34 12/32/35 14/31/33
f 14/31/33 12/32/35 15/33/36
f 31/22/37 1/21/22 14/31/33
f 14/31/33 1/21/22 13/28/31
f 3/34/38 31/22/37 15/33/36
f 15/33/36 31/22/37 14/31/33
f 21/35/39 22/27/30 29/17/18
f 29/17/18 22/27/30 9/18/20
f 40/37/40 18/24/27 37/36/41
f 37/36/41 18/24/27 17/38/42
f 18/24/27 40/37/40 19/12/13
f 19/12/13 40/37/40 41/39/43
f 38/40/44 20/6/26 41/39/43
f 41/39/43 20/6/26 19/12/13
f 21/35/39 20/6/26 38/40/44
f 21/35/39 42/41/45 22/27/30
f 43/42/46 23/25/28 42/41/45
f 42/41/45 23/25/28 22/27/30
f 44/43/47 39/44/48 43/42/46
f 43/42/46 39/44/48 23/25/28
f 37/36/41 17/38/42 39/44/48
f 39/44/48 17/38/42 24/26/29
f 44/43/47 37/36/41 39/44/48
f 37/36/41 13/28/31 40/37/40
f 40/37/40 13/28/31 1/21/22
f 2/23/24 41/39/43 1/21/22
f 1/21/22 41/39/43 40/37/40
f 41/39/43 2/23/24 38/40/44
f 38/40/44 2/23/24 3/34/38
f 31/22/23 3/34/38 2/23/24
f 32/7/7 20/6/26 29/17/18
f 29/17/18 20/6/26 21/35/39
f 24/26/29 23/25/28 39/44/48
f 21/35/49 38/40/44 15/33/36
f 15/33/36 38/40/44 3/34/38
f 42/41/50 21/35/49 12/32/35
f 12/32/35 21/35/49 15/33/36
f 42/41/50 12/32/35 43/42/51
f 43/42/51 12/32/35 11/30/34
f 44/43/52 43/42/51 10/29/32
f 10/29/32 43/42/51 11/30/34
f 37/36/41 44/43/52 13/28/31
f 13/28/31 44/43/52 10/29/32
f 18/24/53 4/13/54 17/38/55
f 4/13/54 16/16/56 17/38/55
f 17/38/55 16/16/56 24/26/57
f 24/26/57 16/16/56 7/20/58
