# This file uses centimeters as units for non-parametric coordinates.

v -0.077324 -0.046601 0.047724
v -0.012981 -0.081574 0.068889
v 0.051812 -0.046601 0.091636
v -0.045411 -0.021833 -0.011600
v 0.009885 -0.016031 -0.000066
v 0.065864 -0.021833 0.026237
v -0.057501 0.083527 0.054221
v -0.012981 0.125905 0.068889
v 0.003655 0.082164 0.007106
v -0.025053 0.039786 -0.002900
v 0.048673 0.082298 0.090568
v 0.053118 0.038557 0.023925
v 0.056494 -0.068455 0.065074
v -0.000880 -0.088778 0.032638
v -0.061829 -0.067885 0.020853
vt 0.112116 0.026611
vt 0.150915 0.016923
vt 0.141953 0.070007
vt 0.114388 0.080997
vt 0.188183 0.033226
vt 0.170336 0.085888
vt 0.076970 0.063918
vt 0.117218 0.078489
vt 0.128553 0.104810
vt 0.089461 0.099030
vt 0.078079 0.089666
vt 0.169327 0.071618
vt 0.163402 0.094564
vt 0.169179 0.105645
vt 0.116488 0.104594
vn 0.105599 0.824784 -0.555500
vn 0.196878 0.560756 -0.804234
vn -0.669172 0.386777 -0.634517
vn -0.476634 0.291112 -0.829502
vn 0.909524 0.390534 -0.142298
vn 0.861875 0.262185 -0.434086
vn -0.492648 -0.458897 0.739400
vn -0.280349 -0.536273 0.796126
vn -0.312655 0.000079 0.949867
vn -0.322328 0.000002 0.946628
vn -0.571162 0.296770 -0.765311
vn 0.309863 0.076893 -0.947667
vn -0.886415 0.214239 -0.410329
vn -0.088138 -0.423208 0.901736
vn -0.331419 -0.000123 0.943484
vn 0.928727 0.183681 -0.322068
vn 0.971557 0.092445 0.218015
vn 0.204436 -0.491829 -0.846351
vn 0.453515 -0.521275 -0.722908
vn 0.197612 -0.839593 -0.505998
vn 0.367296 -0.921761 0.124299
vn 0.222444 -0.613362 -0.757830
vn -0.197427 -0.889266 -0.412587
vn 0.987859 0.025329 0.153273
vn -0.799948 0.150858 -0.580796
f 8/2/1 9/3/2 7/1/3
f 7/1/3 9/3/2 10/4/4
f 8/2/1 11/5/5 9/3/2
f 9/3/2 11/5/5 12/6/6
f 1/7/7 2/8/8 7/1/9
f 7/1/9 2/8/8 8/2/10
f 4/10/11 10/4/4 5/9/12
f 5/9/12 10/4/4 9/3/2
f 4/10/11 15/11/13 10/4/4
f 10/4/4 15/11/13 7/1/3
f 3/12/14 11/5/15 2/8/8
f 2/8/8 11/5/15 8/2/10
f 6/14/16 12/6/6 13/13/17
f 13/13/17 12/6/6 11/5/5
f 6/14/16 5/9/12 12/6/6
f 12/6/6 5/9/12 9/3/2
f 5/9/18 6/14/19 14/15/20
f 14/15/20 6/14/19 13/13/21
f 4/10/22 5/9/18 15/11/23
f 15/11/23 5/9/18 14/15/20
f 3/12/24 13/13/17 11/5/5
f 14/15/20 13/13/21 2/8/8
f 2/8/8 13/13/21 3/12/14
f 14/15/20 2/8/8 15/11/23
f 15/11/23 2/8/8 1/7/7
f 7/1/3 15/11/13 1/7/25
