# This file uses centimeters as units for non-parametric coordinates.

v -1.929338 2.350261 -1.295209
v -3.229977 2.470083 -0.979888
v -3.883984 2.501820 -1.669804
v -3.543108 0.342215 -1.433735
v -2.645410 1.126097 -1.449536
v -4.159612 0.486048 -1.662217
v -1.864822 2.165851 -9.614135
v -2.610332 2.735247 -9.695248
v -3.680643 2.227530 -9.971807
v -2.749006 -0.970500 -9.121956
v -1.690795 0.644748 -9.767128
v -3.637624 0.991630 -9.863064
v 5.373509 0.738496 -9.594148
v 5.342776 2.165854 -9.614135
v 3.986411 2.484587 -9.425542
v 4.348599 -0.569065 -10.016697
v 3.186547 1.983381 -10.654601
v 3.171237 0.991632 -9.863064
v 2.674140 0.516360 -10.563645
v 2.434992 2.165854 -10.503968
v 1.608122 2.491382 -10.455725
v 1.859965 -0.167348 -10.883881
v 0.947529 1.983381 -10.730812
v 0.930192 0.278126 -10.992335
v -6.015930 -0.549735 -6.696136
v -6.048630 2.128525 -7.592720
v -6.686054 2.506620 -6.187510
v -6.997561 -1.129530 -5.756160
v -7.953013 1.864763 -5.944024
v -7.854095 -0.279335 -5.294008
v 5.737973 1.340441 -2.007921
v 5.416579 2.322904 -1.991648
v 4.788775 2.390901 -1.193073
v 4.878112 -0.641181 -1.136950
v 3.731709 1.955372 -1.742418
v 3.760493 0.782773 -1.806049
vt 0.543813 0.033442
vt 0.543015 0.906944
vt 0.339662 0.908496
vt 0.338464 0.033029
vt 0.144483 0.907891
vt 0.155156 0.033932
vt 0.543813 0.033442
vt 0.543015 0.906944
vt 0.339662 0.908496
vt 0.338464 0.033029
vt 0.144483 0.907891
vt 0.155156 0.033932
vt 0.543813 0.033442
vt 0.543015 0.906944
vt 0.339662 0.908496
vt 0.338464 0.033029
vt 0.144483 0.907891
vt 0.155156 0.033932
vt 0.543813 0.033442
vt 0.543015 0.906944
vt 0.339662 0.908496
vt 0.338464 0.033029
vt 0.144483 0.907891
vt 0.155156 0.033932
vt 0.543813 0.033442
vt 0.543015 0.906944
vt 0.339662 0.908496
vt 0.338464 0.033029
vt 0.144483 0.907891
vt 0.155156 0.033932
vt 0.543813 0.033442
vt 0.543015 0.906944
vt 0.339662 0.908496
vt 0.338464 0.033029
vt 0.144483 0.907891
vt 0.155156 0.033932
vn 0.207643 -0.240979 0.948058
vn -0.112143 -0.194443 0.974482
vn 0.214531 -0.237733 0.947343
vn -0.309776 -0.082614 0.947214
vn -0.547009 0.005165 0.837111
vn -0.336888 0.049604 0.940237
vn -0.197860 -0.120482 0.972798
vn -0.138112 0.062524 0.988441
vn 0.087999 0.004457 0.996111
vn -0.023756 0.153710 0.987831
vn -0.346833 0.114751 0.930881
vn -0.282385 0.074323 0.956418
vn 0.141595 0.016908 0.989780
vn -0.283736 -0.014549 0.958792
vn 0.001254 -0.095128 0.995464
vn -0.142006 -0.204343 0.968544
vn -0.581378 0.080158 0.809676
vn -0.845379 0.341125 0.411057
vn 0.046699 -0.029353 0.998478
vn -0.148857 -0.129120 0.980393
vn -0.092249 -0.103904 0.990300
vn -0.224044 -0.166926 0.960177
vn -0.221606 -0.162446 0.961510
vn -0.183884 -0.147179 0.971867
vn 0.915423 0.137777 0.378178
vn 0.634745 0.099247 0.766321
vn 0.818719 0.085007 0.567867
vn 0.508220 0.133502 0.850817
vn 0.405737 0.185616 0.894944
vn 0.640018 0.249812 0.726616
vn 0.772532 0.243003 0.586638
vn 0.156948 0.069672 0.985146
vn 0.729401 0.139606 0.669690
vn 0.099071 0.021333 0.994852
vn -0.477544 -0.029360 0.878117
vn -0.440935 -0.059421 0.895570
f 1/2/1 2/3/2 5/1/3
f 5/1/3 2/3/2 4/4/4
f 2/3/2 3/5/5 4/4/4
f 4/4/4 3/5/5 6/6/6
f 7/8/7 8/9/8 11/7/9
f 11/7/9 8/9/8 10/10/10
f 10/10/10 8/9/8 12/12/11
f 12/12/11 8/9/8 9/11/12
f 14/14/13 15/15/14 13/13/15
f 13/13/15 15/15/14 16/16/16
f 16/16/16 15/15/14 18/18/17
f 18/18/17 15/15/14 17/17/18
f 20/20/19 21/21/20 19/19/21
f 19/19/21 21/21/20 22/22/22
f 21/21/20 23/23/23 22/22/22
f 22/22/22 23/23/23 24/24/24
f 26/26/25 27/27/26 25/25/27
f 25/25/27 27/27/26 28/28/28
f 27/27/26 29/29/29 28/28/28
f 28/28/28 29/29/29 30/30/30
f 32/32/31 33/33/32 31/31/33
f 31/31/33 33/33/32 34/34/34
f 34/34/34 33/33/32 36/36/35
f 36/36/35 33/33/32 35/35/36
