# This file uses centimeters as units for non-parametric coordinates.

v 24.137955 8.109653 -6.547047
v -18.137806 6.981105 -2.514897
v -0.046786 12.926139 -13.412527
v -5.149824 12.477354 -13.434251
v 6.120544 12.201099 -13.499607
v 9.922294 3.905340 -7.858856
v -7.296535 12.486637 -13.841417
v -12.914573 12.120616 -11.621295
v -18.457844 7.807566 -5.025012
v 7.742336 11.397961 -14.042577
v 9.619309 11.334569 -13.510188
v 12.346430 11.374200 -12.902059
v 18.650187 11.105158 -9.475298
v 21.241199 6.462964 1.863513
v 0.380557 3.528540 -11.164615
v 1.742877 3.522587 -11.378210
v 3.864253 3.549867 -11.654174
v 0.245837 5.498307 -11.907338
v 1.869411 5.440539 -11.984143
v 1.706598 7.790193 -12.058947
v 0.878493 7.797043 -12.212046
v -1.819167 3.987046 -11.068558
v -1.309188 9.562890 -12.073542
v -0.445696 9.508075 -12.326614
v 4.025814 12.835487 -13.432892
v 3.206041 12.768893 -13.411500
v 2.188617 8.651605 -12.629380
v 4.058208 7.437292 -12.570867
v 6.049420 7.378642 -12.226574
v 4.766734 9.863258 -12.962691
v 5.485899 9.862331 -12.724678
v 6.008174 3.956239 -10.566913
v 9.588448 4.074695 -9.706284
v 6.805188 3.892573 -10.194714
v 7.892900 3.998595 -9.965832
v 9.241157 4.119783 -9.842945
v 10.354820 5.029442 -8.430750
v 11.163907 7.496522 -10.529019
v 9.117147 9.552514 -11.675711
v 6.019392 5.988436 -11.541149
v 11.032580 5.201452 -8.205188
v 10.466768 8.022543 -10.899712
v 10.051649 9.455810 -11.445154
v 7.857371 7.137442 -10.878601
v 7.532021 7.509212 -11.160808
v 15.033837 6.216974 -8.192471
v 11.407660 5.090303 -9.089694
v 12.103103 9.370887 -10.033048
v 13.313494 9.436151 -9.383465
v 13.158134 5.925947 -8.659118
v 13.765896 9.277634 -9.201508
v 14.908004 9.229481 -8.927742
v 15.949447 7.836146 -8.393337
v 20.605976 10.584023 -8.149375
v 18.106140 5.910432 -6.345602
v 11.297964 4.007596 -7.540878
v 15.975674 6.015971 -6.775607
v 15.790689 5.663311 -6.360342
v -5.580467 4.354085 -11.129780
v -5.941651 7.653237 -12.153921
v -4.292190 4.212593 -11.117099
v -6.394633 4.561443 -11.560076
v -5.143384 7.424089 -12.102983
v -4.857606 5.814434 -11.884594
v -3.007960 12.848862 -13.485014
v -1.735160 5.667048 -11.583520
v -16.209480 4.665042 -6.284700
v -17.300861 5.095559 1.193922
v -9.338981 3.700461 -9.122125
v -10.395634 3.476455 -7.018071
v -11.589808 3.991603 -6.106761
v -12.708411 5.082640 -7.245718
v -14.565689 5.538960 -7.476942
v -11.223000 5.083414 -6.778408
v -10.132825 5.670732 -8.041647
v -11.640671 8.288506 -9.552923
v -10.147667 5.705432 -9.415330
v -7.850104 3.656187 -10.129894
v -9.900955 7.339741 -10.608287
v -8.767810 7.275350 -11.526110
v -8.299075 5.733276 -10.999300
v -7.978630 7.719273 -11.749642
v -7.331819 7.723846 -12.194534
v -7.038134 6.618631 -12.217021
v -6.118003 6.702729 -12.049359
v 0.688503 7.202882 -12.265645
v 0.148595 8.748948 -12.314937
v -0.160767 8.215796 -12.122847
v -10.797454 6.574353 -9.199892
v -9.563454 6.203417 -10.112620
v -10.995992 7.392737 -9.958179
v 6.966223 7.085423 -11.381353
v -14.383487 7.160735 -7.536522
v -13.485293 5.374003 -7.108067
v -13.856519 6.093182 -7.350099
v -14.062612 7.678833 -7.701413
v -12.987421 8.726318 -8.057377
v -12.707454 7.461589 -8.117488
v -12.217025 5.322522 -7.863713
v -12.195934 4.750939 -7.537777
v -12.463013 8.436573 -8.925295
v -13.923598 8.775866 -7.750923
v -12.599304 6.322529 -7.948935
v -12.958869 7.971759 -8.163508
v -12.842377 7.070870 -8.163277
v -12.220067 4.364456 -7.037432
v -5.581856 6.950611 -11.844474
v -7.164592 3.976369 -10.702283
v -7.407317 7.252842 -11.456961
v -7.981105 4.055241 -10.473120
v -8.171702 3.976461 -10.406110
v -8.755748 3.599966 -9.506304
v -9.019755 7.275066 -11.318639
v -8.395022 4.580098 -10.777024
v -8.685707 5.810052 -10.906666
v -8.526212 6.680455 -11.266810
v -8.256763 6.590548 -11.486938
v -9.586699 5.079308 -9.833838
v -10.346718 7.262952 -10.202229
v -13.320721 7.082391 -7.650446
v -13.943994 7.057709 -7.517977
v -12.092879 8.043912 -8.734007
v 2.796678 3.429945 -11.030046
v 3.661747 12.803707 -13.424981
v -3.021984 3.141860 -10.188107
v -13.492237 8.392126 -7.637552
v -9.201880 7.030845 -10.851872
v 5.725085 3.862917 -10.931019
v 6.015459 4.659575 -11.042730
v 6.363970 6.278380 -11.428079
v 6.016628 5.190000 -11.252919
v 4.604340 3.303541 -10.585406
v -0.887800 3.533982 -10.735165
v -0.888039 9.590648 -12.105110
v -0.851635 9.117813 -11.733253
v 0.989048 3.416023 -11.057372
v 1.330062 7.258073 -11.668393
v 5.173980 9.469391 -12.585707
v 7.393094 3.680009 -10.023881
v 7.325435 4.122001 -10.085924
v 7.286189 7.141188 -10.964547
v 11.607606 6.498363 -9.565461
v 11.655731 7.287671 -9.680413
v 11.431190 7.062632 -9.716547
v 12.167919 4.888472 -8.677763
v 14.768980 6.414897 -8.321212
v 13.898253 5.711205 -8.261779
v 13.945053 5.995853 -8.393083
v 14.275743 9.108919 -8.816068
v 12.217807 5.435452 -8.799685
v 12.741488 9.478131 -9.427207
v 15.366362 7.600262 -8.461427
v 16.546320 7.934228 -7.932580
v 8.465721 3.771262 -9.278057
v 8.524399 4.079361 -9.925180
v 8.302638 5.702798 -11.039142
v 8.556597 5.814734 -10.310080
v 8.257817 7.308848 -11.757680
v 9.515080 5.753604 -10.794478
v 8.968276 5.820565 -10.341200
v 10.032632 5.554929 -10.437240
v -3.655305 10.081215 -12.317763
v -3.356355 10.257720 -12.346989
v -3.030801 10.037539 -12.375526
v -3.871245 12.606180 -13.524600
v -9.129151 12.572071 -13.123972
v -10.475605 12.576018 -13.096382
v 3.064563 8.392295 -11.829831
v 3.990991 8.312669 -12.348599
v 14.845332 11.769715 -11.550205
v 16.592304 11.813179 -10.350971
v 9.420026 7.440350 -11.117164
v 8.024949 6.412241 -11.597651
v 7.864501 6.507556 -10.695433
v 7.295047 6.459785 -10.766250
v 6.926203 6.291938 -11.086451
v 10.560472 4.364124 -9.475397
v 10.460336 5.433887 -8.756471
v 10.899332 5.406844 -8.567248
v 11.183017 5.046239 -8.682971
v 11.078271 5.060869 -9.113229
v 10.789372 5.127763 -9.467482
v 8.614998 11.368487 -13.795053
v -3.152688 5.647044 -10.778375
v -7.352654 6.514951 -11.287001
v -0.714667 5.603152 -10.953619
v 1.188435 5.662427 -11.548279
v -14.767989 6.848936 -7.315313
v -17.201368 9.953123 -7.494069
v -15.530701 11.613740 -9.560752
v 2.826666 10.653739 -12.459282
v 3.298431 10.643444 -12.408848
v 3.685955 10.678381 -12.459507
v -0.843203 8.039160 -11.427660
v -1.477123 8.028294 -11.943851
v -4.436172 7.031051 -12.171467
v -3.121051 6.674237 -11.160208
v -2.145525 6.928881 -12.002736
v -1.535259 7.169701 -11.731803
v -0.712472 6.880170 -11.323632
v 0.012734 7.013420 -12.042834
v 0.198735 7.072856 -12.373164
v 3.018298 7.233808 -11.696959
v 2.038219 7.549028 -12.403198
v 2.931020 5.273536 -11.234443
v 3.982031 5.426343 -12.100558
v 4.812747 5.426517 -11.385132
v 12.555059 7.262274 -9.325836
v 13.233974 7.577423 -9.087947
v 13.483928 7.722639 -8.949869
v 14.121270 7.654737 -8.618482
v 14.836759 7.787099 -8.616916
v 14.960155 7.790300 -8.572846
v 17.443342 7.750580 -6.631883
v 18.027502 7.576280 -6.489170
v 11.726680 6.102334 -9.491726
v 11.253275 6.037155 -9.864084
v 10.930420 5.802557 -9.933128
v 12.343103 5.951641 -10.242468
v 11.198595 5.935511 -10.498274
v 12.094481 5.035368 -9.634526
v 11.623889 5.247135 -10.043829
v 11.101628 11.436883 -13.221235
v -17.854729 8.684522 -6.753194
v -17.306599 4.610989 -3.792617
v 21.258299 5.910426 -5.549901
v 10.205877 6.700428 -10.654373
v 10.133348 7.996199 -11.026253
v -1.453138 12.878623 -13.455177
v 7.312361 7.990268 -11.890356
v 6.597956 8.678345 -12.798611
v -10.779763 3.642163 -6.724930
v -10.603498 5.091312 -7.410373
v -10.084058 3.542508 -7.638495
v -10.464711 5.960936 -7.848698
v -10.167906 4.085213 -7.752612
v -11.166527 6.480267 -9.071484
v -10.967277 4.638290 -8.324969
v -10.892783 5.562483 -8.570774
v -10.738073 5.376800 -8.586042
v -10.658540 5.327815 -8.616673
v -10.097526 4.200509 -8.363646
v -9.901609 5.899727 -9.972314
v -10.447592 4.676672 -8.337266
v -9.744835 4.706692 -9.269276
v -10.013788 4.826767 -7.986727
v -10.228596 4.871111 -7.668643
v -11.037210 5.194048 -6.970249
v -11.261831 5.344362 -6.847824
v -11.412264 5.212744 -6.721006
v -11.783010 4.468775 -7.663013
v -11.668292 4.875114 -7.839008
v -11.397261 4.652280 -7.589621
v -11.769032 5.626953 -8.051358
v -11.877006 6.432789 -8.278959
v -13.424767 7.876914 -7.642624
v -9.985664 4.627367 -7.973751
v -10.263390 4.580601 -7.533128
v -10.666290 4.699884 -7.202171
v -10.124068 4.477549 -7.820503
v -10.222285 4.948597 -7.905601
v -10.667318 4.361778 -7.140816
v -10.380125 5.170479 -7.804264
v -10.375027 5.175105 -7.710681
v -10.202707 5.106633 -7.935374
v -10.167828 5.388186 -7.988417
v -10.313522 5.460171 -7.798802
v -10.355792 5.554821 -7.919003
v -10.368118 5.876474 -7.904854
v -10.221430 5.748208 -7.990135
v -10.462745 5.286288 -7.598258
v -10.631884 5.411711 -7.433250
v -10.489548 5.392451 -7.654162
v -8.984890 5.090919 -10.045101
v -8.569013 5.343222 -10.862296
v -9.076951 6.070105 -10.475077
v -8.802356 6.135010 -10.958076
v -8.895675 4.510426 -9.835323
v -8.075096 4.883244 -10.798768
v -7.243927 5.047287 -10.948950
v -3.767651 3.770427 -10.733465
v -3.886917 5.671003 -11.014238
v -3.805488 6.785284 -11.453177
v -3.361629 9.716651 -12.130213
v -2.629652 6.770472 -11.376556
v -2.437462 5.624547 -11.060998
v -2.431966 3.556449 -10.619994
v -3.617858 9.671885 -12.160003
v -3.058999 9.659333 -12.194489
v -1.333688 3.750884 -10.797256
v -1.234923 5.635726 -11.177228
v -1.172010 7.041877 -11.454082
v -1.172939 8.033508 -11.598639
v -0.503496 8.104225 -11.615476
v -0.399460 6.937684 -11.536533
v -0.271123 5.554737 -11.296510
v -0.254719 3.531266 -10.851998
v -4.146244 8.280978 -12.254936
v -3.660391 8.242075 -11.853631
v -3.236410 8.175271 -11.725205
v -2.795491 8.272633 -11.840799
v -2.359169 8.364857 -12.138191
v -7.291513 5.689635 -11.096904
v -6.751903 5.705501 -12.027843
v -6.248713 5.785476 -11.941113
v -5.558904 5.414338 -11.440002
v 8.644568 6.078902 -10.466710
v 8.803497 6.147083 -11.032614
v 8.725618 6.928603 -11.356329
v 9.212312 5.776478 -10.764233
v 8.409334 5.739127 -11.466853
v 7.163977 6.400140 -10.880033
v 7.294583 6.495442 -10.776626
v 7.675809 6.827154 -10.768472
v -0.181012 8.351082 -12.322440
v -0.072427 7.063270 -12.270272
v 0.510548 5.544397 -11.806503
v 1.015095 7.224133 -11.899937
v 0.755682 6.467750 -11.934826
v 0.538396 6.648115 -12.298231
v 0.412790 7.124433 -12.272960
v 1.248418 6.338230 -11.599150
v 0.819116 6.536273 -12.213284
v -7.831146 6.522833 -11.283612
v -7.802144 5.679821 -10.939778
v -7.665287 4.933363 -10.765561
v -5.979516 5.617866 -11.530024
v -6.039571 4.462154 -11.166612
v 11.619677 8.991060 -11.443638
v -15.397942 6.334907 -7.293806
v 10.174931 4.769875 -8.831316
v 10.225816 4.582915 -8.108796
v 10.083518 4.599557 -8.640679
v 10.276072 4.483991 -8.488629
v 10.358331 5.230562 -8.780213
v 10.251728 4.922955 -8.813440
v 10.328095 4.998246 -8.476803
v 10.460074 4.854345 -8.664126
v 10.898293 4.645421 -8.105043
v 11.243590 4.669378 -8.246116
v 11.209469 5.480571 -9.465848
v 10.986467 5.351927 -8.358826
v 10.295122 4.822809 -8.281764
v 10.977624 5.014677 -8.170961
v 10.917407 4.639660 -7.988935
v 11.131649 4.543840 -7.886715
v 11.041998 4.812553 -8.052432
v 4.989633 7.406203 -11.973021
v 3.225452 9.940966 -12.228165
v 2.614102 8.506137 -12.113804
v 2.492685 7.363990 -11.859741
v 2.311688 5.351748 -11.545049
v 3.532422 5.342400 -11.606528
v 3.562084 7.315351 -11.982541
v 3.512902 8.334696 -11.956810
v 5.104828 8.695454 -12.355877
v 4.513573 7.436711 -12.174683
v 4.348956 5.441566 -11.677208
v 5.463001 5.751794 -11.377426
v 5.513252 7.407320 -12.008242
vt 0.958428 0.849455
vt 0.959780 0.849496
vt 0.959463 0.850884
vt 0.958516 0.850437
vt 0.958044 0.850010
vt 0.767832 0.575065
vt 0.958358 0.850076
vt 0.958355 0.849714
vt 0.957727 0.834701
vt 0.957659 0.834278
vt 0.958665 0.832755
vt 0.957310 0.829447
vt 0.956654 0.831425
vt 0.955286 0.830080
vt 0.529319 0.689884
vt 0.561522 0.698839
vt 0.619206 0.702192
vt 0.525913 0.788987
vt 0.568427 0.774224
vt 0.563694 0.879227
vt 0.541836 0.880223
vt 0.472916 0.691817
vt 0.489387 0.958408
vt 0.510490 0.955696
vt 0.959956 0.841474
vt 0.959283 0.841792
vt 0.576489 0.904741
vt 0.627117 0.864739
vt 0.677113 0.854207
vt 0.646543 0.951373
vt 0.667046 0.949563
vt 0.673380 0.685921
vt 0.767179 0.661019
vt 0.767356 0.661130
vt 0.694396 0.674499
vt 0.728677 0.665358
vt 0.758262 0.663665
vt 0.787304 0.656917
vt 0.811901 0.761946
vt 0.765762 0.874655
vt 0.765295 0.874777
vt 0.675712 0.787656
vt 0.801098 0.657252
vt 0.797831 0.814176
vt 0.791026 0.873788
vt 0.733117 0.801243
vt 0.730071 0.824413
vt 0.875519 0.639350
vt 0.806789 0.669567
vt 0.824950 0.796266
vt 0.853993 0.794254
vt 0.842032 0.668375
vt 0.862682 0.760120
vt 0.886364 0.747860
vt 0.896992 0.678285
vt 0.959735 0.840492
vt 0.919516 0.554869
vt 0.796866 0.559063
vt 0.888970 0.605879
vt 0.883750 0.555249
vt 0.377529 0.686029
vt 0.365726 0.875609
vt 0.409960 0.697937
vt 0.357152 0.731650
vt 0.389078 0.870547
vt 0.400105 0.779401
vt 0.959949 0.841943
vt 0.478169 0.777027
vt 0.279478 0.632750
vt 0.250891 0.569304
vt 0.211749 0.545010
vt 0.175969 0.629503
vt 0.115247 0.627633
vt 0.212617 0.619206
vt 0.238513 0.698656
vt 0.202602 0.784088
vt 0.250371 0.700038
vt 0.321057 0.641929
vt 0.234763 0.810253
vt 0.276381 0.825622
vt 0.297962 0.736888
vt 0.292092 0.867678
vt 0.317205 0.885827
vt 0.333813 0.840351
vt 0.358803 0.838076
vt 0.537282 0.854131
vt 0.524280 0.904560
vt 0.516423 0.888845
vt 0.233372 0.723513
vt 0.255776 0.736912
vt 0.231853 0.764666
vt 0.708237 0.809649
vt 0.132041 0.692893
vt 0.152587 0.628783
vt 0.148124 0.658216
vt 0.137743 0.715048
vt 0.157341 0.759331
vt 0.176251 0.723441
vt 0.186488 0.648190
vt 0.189839 0.623108
vt 0.180082 0.771770
vt 0.135939 0.758115
vt 0.181554 0.684459
vt 0.168505 0.738143
vt 0.170803 0.706253
vt 0.190774 0.594541
vt 0.374857 0.852158
vt 0.335011 0.676617
vt 0.311596 0.845704
vt 0.314030 0.670820
vt 0.301729 0.664052
vt 0.295219 0.636225
vt 0.268170 0.827412
vt 0.302108 0.702599
vt 0.287634 0.745826
vt 0.287222 0.781050
vt 0.295877 0.783339
vt 0.267591 0.684986
vt 0.242285 0.767900
vt 0.160229 0.699119
vt 0.142162 0.690859
vt 0.192292 0.759017
vt 0.590143 0.673546
vt 0.959291 0.842278
vt 0.443473 0.647525
vt 0.147973 0.744910
vt 0.262254 0.798840
vt 0.665719 0.688222
vt 0.674284 0.725340
vt 0.685663 0.794385
vt 0.674795 0.747659
vt 0.636311 0.673468
vt 0.498819 0.673424
vt 0.500027 0.957040
vt 0.499932 0.930948
vt 0.544724 0.688327
vt 0.553955 0.859042
vt 0.656938 0.932498
vt 0.711333 0.658234
vt 0.712250 0.669738
vt 0.723091 0.805785
vt 0.813234 0.714525
vt 0.817159 0.741912
vt 0.810000 0.734251
vt 0.819951 0.652717
vt 0.871265 0.643038
vt 0.854308 0.637070
vt 0.857431 0.655028
vt 0.874636 0.756145
vt 0.822444 0.669037
vt 0.841960 0.798198
vt 0.885719 0.674848
vt 0.912816 0.666934
vt 0.741983 0.644185
vt 0.744361 0.664594
vt 0.738982 0.729574
vt 0.751427 0.725223
vt 0.741080 0.802119
vt 0.767096 0.727550
vt 0.767164 0.727385
vt 0.756973 0.726331
vt 0.780391 0.715859
vt 0.423716 0.985557
vt 0.430733 0.997366
vt 0.439783 0.986064
vt 0.959273 0.842011
vt 0.959953 0.841683
vt 0.958724 0.838231
vt 0.603898 0.883536
vt 0.627402 0.882530
vt 0.959350 0.837666
vt 0.959392 0.838543
vt 0.772535 0.788856
vt 0.772878 0.789050
vt 0.731022 0.765712
vt 0.731925 0.769376
vt 0.720644 0.775080
vt 0.704797 0.776062
vt 0.772103 0.651954
vt 0.790699 0.673418
vt 0.802279 0.671819
vt 0.804081 0.663707
vt 0.803688 0.682505
vt 0.791706 0.678316
vt 0.958799 0.838772
vt 0.439764 0.756691
vt 0.316869 0.807624
vt 0.499221 0.784369
vt 0.550121 0.788142
vt 0.129328 0.682351
vt 0.958202 0.840196
vt 0.958489 0.839952
vt 0.601310 0.992023
vt 0.613319 0.989783
vt 0.623273 0.990403
vt 0.499568 0.880070
vt 0.485161 0.890449
vt 0.404932 0.829136
vt 0.437943 0.810300
vt 0.468387 0.839885
vt 0.482798 0.852119
vt 0.499401 0.834020
vt 0.520529 0.845636
vt 0.523936 0.846519
vt 0.600945 0.838449
vt 0.573723 0.859968
vt 0.595835 0.760445
vt 0.623955 0.776900
vt 0.643047 0.758054
vt 0.831070 0.724715
vt 0.846723 0.726595
vt 0.853102 0.717555
vt 0.866035 0.705996
vt 0.877250 0.691303
vt 0.879281 0.687498
vt 0.924345 0.651656
vt 0.933653 0.627580
vt 0.811788 0.704439
vt 0.805171 0.707486
vt 0.797526 0.706601
vt 0.811139 0.704738
vt 0.805813 0.707190
vt 0.806415 0.674238
vt 0.803859 0.679023
vt 0.958804 0.840342
vt 0.958420 0.840726
vt 0.785929 0.745798
vt 0.787660 0.801989
vt 0.958276 0.831452
vt 0.957290 0.833256
vt 0.956864 0.833437
vt 0.238300 0.561489
vt 0.224698 0.652985
vt 0.259321 0.588012
vt 0.225969 0.684559
vt 0.255852 0.610382
vt 0.224818 0.718936
vt 0.222180 0.646548
vt 0.225971 0.689210
vt 0.234319 0.703263
vt 0.245897 0.689261
vt 0.257189 0.627826
vt 0.255776 0.717991
vt 0.254125 0.651115
vt 0.262929 0.665329
vt 0.251170 0.648784
vt 0.243174 0.642527
vt 0.215743 0.628142
vt 0.211201 0.628950
vt 0.206087 0.620325
vt 0.204085 0.620667
vt 0.210668 0.632617
vt 0.216547 0.630441
vt 0.206308 0.662607
vt 0.201635 0.694751
vt 0.152794 0.726897
vt 0.252607 0.640989
vt 0.244782 0.627274
vt 0.228001 0.627261
vt 0.250728 0.629964
vt 0.244813 0.650827
vt 0.230969 0.608310
vt 0.235919 0.664159
vt 0.234357 0.662180
vt 0.243306 0.661393
vt 0.240622 0.680218
vt 0.233425 0.681836
vt 0.231824 0.691139
vt 0.229619 0.688662
vt 0.235164 0.694892
vt 0.229223 0.667946
vt 0.225188 0.665151
vt 0.225290 0.667702
vt 0.282179 0.700549
vt 0.293206 0.729185
vt 0.271485 0.753303
vt 0.282452 0.765725
vt 0.287256 0.675505
vt 0.305501 0.705891
vt 0.327358 0.731883
vt 0.423800 0.677119
vt 0.421879 0.766933
vt 0.420960 0.819991
vt 0.431705 0.968741
vt 0.451305 0.823285
vt 0.458065 0.766382
vt 0.457916 0.669251
vt 0.424632 0.967340
vt 0.440361 0.968231
vt 0.486418 0.682230
vt 0.488489 0.780626
vt 0.490128 0.844129
vt 0.492074 0.885469
vt 0.508011 0.884465
vt 0.508520 0.839034
vt 0.511547 0.786502
vt 0.514042 0.681640
vt 0.410326 0.905073
vt 0.423345 0.892861
vt 0.435299 0.888133
vt 0.446092 0.897001
vt 0.460628 0.906668
vt 0.322767 0.765032
vt 0.345929 0.788119
vt 0.360656 0.790488
vt 0.376236 0.766395
vt 0.749829 0.735717
vt 0.750577 0.741459
vt 0.752044 0.777434
vt 0.759417 0.726583
vt 0.738201 0.733118
vt 0.715013 0.775429
vt 0.720772 0.776687
vt 0.729159 0.789226
vt 0.517250 0.891738
vt 0.521391 0.845860
vt 0.532712 0.788750
vt 0.545950 0.856684
vt 0.539210 0.824274
vt 0.533646 0.833295
vt 0.529947 0.849948
vt 0.551745 0.818170
vt 0.536889 0.828037
vt 0.305872 0.794902
vt 0.310316 0.750905
vt 0.316405 0.718858
vt 0.367845 0.779370
vt 0.367268 0.709003
vt 0.959278 0.845747
vt 0.959806 0.845896
vt 0.959781 0.846611
vt 0.959236 0.845920
vt 0.957783 0.854550
vt 0.957221 0.853141
vt 0.957591 0.852165
vt 0.958271 0.854075
vt 0.958110 0.851104
vt 0.958467 0.850921
vt 0.958407 0.851259
vt 0.958243 0.851239
vt 0.957369 0.833602
vt 0.957774 0.835388
vt 0.957765 0.835311
vt 0.958175 0.835192
vt 0.959928 0.843797
vt 0.959036 0.844646
vt 0.959040 0.844411
vt 0.959944 0.844590
vt 0.959961 0.845418
vt 0.959224 0.845577
vt 0.959702 0.847716
vt 0.958672 0.847264
vt 0.958598 0.846841
vt 0.959648 0.848737
vt 0.958660 0.848371
vt 0.958718 0.848011
vt 0.958461 0.847884
vt 0.958440 0.847391
vt 0.958508 0.848955
vt 0.958536 0.848813
vt 0.958355 0.848703
vt 0.958363 0.848554
vt 0.959023 0.834003
vt 0.959230 0.835188
vt 0.958330 0.836156
vt 0.958253 0.835890
vt 0.958138 0.835570
vt 0.957692 0.835084
vt 0.958257 0.839829
vt 0.958688 0.853668
vt 0.957871 0.852293
vt 0.957974 0.852067
vt 0.958118 0.851880
vt 0.958386 0.851801
vt 0.959070 0.852461
vt 0.959143 0.841272
vt 0.958692 0.841797
vt 0.958520 0.841834
vt 0.959095 0.840858
vt 0.959317 0.836989
vt 0.958442 0.836936
vt 0.958358 0.836492
vt 0.958089 0.837731
vt 0.958286 0.838102
vt 0.957138 0.854582
vt 0.956795 0.853946
vt 0.955969 0.854399
vt 0.959047 0.844174
vt 0.958805 0.846266
vt 0.958854 0.843890
vt 0.958845 0.842779
vt 0.958563 0.843085
vt 0.958602 0.843544
vt 0.957991 0.840822
vt 0.958033 0.840602
vt 0.959458 0.839128
vt 0.958292 0.839478
vt 0.959516 0.839632
vt 0.958190 0.846748
vt 0.958506 0.846473
vt 0.958562 0.837445
vt 0.957763 0.852649
vt 0.775477 0.650103
vt 0.778914 0.621648
vt 0.773929 0.634910
vt 0.773194 0.627695
vt 0.786139 0.666434
vt 0.778910 0.655361
vt 0.785959 0.656142
vt 0.782045 0.660163
vt 0.799177 0.612676
vt 0.801276 0.623021
vt 0.804053 0.688660
vt 0.801634 0.663863
vt 0.783421 0.640596
vt 0.800550 0.644543
vt 0.794967 0.614540
vt 0.798786 0.603611
vt 0.799794 0.627002
vt 0.649849 0.843475
vt 0.608694 0.956758
vt 0.589869 0.894390
vt 0.587070 0.849417
vt 0.579900 0.768456
vt 0.611983 0.769894
vt 0.616271 0.848180
vt 0.615327 0.883047
vt 0.654279 0.899104
vt 0.639545 0.849795
vt 0.632749 0.768219
vt 0.661076 0.774392
vt 0.663724 0.846157
vn -0.295432 0.344573 0.891061
vn -0.183477 0.317162 0.930454
vn 0.481779 0.269394 0.833856
vn 0.532506 0.466432 0.706313
vn 0.452355 0.416221 0.788755
vn 0.586672 0.433103 0.684279
vn 0.461266 0.545141 0.700039
vn -0.862108 0.506566 0.012654
vn -0.306934 0.752490 0.582710
vn -0.335113 0.456355 0.824281
vn -0.528072 0.688831 0.496640
vn -0.898539 0.309453 -0.311235
vn -0.430921 0.892982 -0.129961
vn 0.777613 0.605049 0.170981
vn 0.283305 0.955011 0.087706
vn 0.475669 0.868890 -0.137005
vn -0.303880 0.354322 0.884371
vn -0.617914 0.548304 0.563511
vn -0.334616 0.592979 0.732399
vn -0.271779 0.688121 0.672774
vn -0.372996 0.542986 0.752357
vn -0.618862 0.783220 -0.059802
vn -0.216329 -0.058753 0.974551
vn -0.016180 0.058219 0.998173
vn 0.008149 0.071230 0.997427
vn 0.065260 0.401871 0.913368
vn 0.199227 0.171085 0.964903
vn 0.265686 0.276245 0.923634
vn -0.097629 0.217836 0.971090
vn -0.000821 0.353910 0.935279
vn -0.024584 0.419079 0.907617
vn 0.019761 0.418014 0.908226
vn -0.312307 0.311199 0.897563
vn -0.317054 0.318325 0.893390
vn -0.627433 0.339748 0.700642
vn -0.635328 0.377438 0.673721
vn -0.797140 0.285973 0.531778
vn -0.996240 -0.080508 0.032006
vn -0.928601 -0.347452 -0.130297
vn -0.062687 0.632774 0.771795
vn -0.146211 0.722083 0.676179
vn -0.096193 0.508939 0.855411
vn -0.292734 0.404314 0.866509
vn -0.609978 0.463363 0.642823
vn -0.335913 0.568722 0.750811
vn -0.070773 0.408059 0.910208
vn -0.081393 0.449000 0.889817
vn -0.543402 0.292364 0.786917
vn -0.417335 0.215365 0.882865
vn -0.753331 0.374860 0.540345
vn -0.375196 0.438824 0.816493
vn -0.226613 0.169749 0.959079
vn -0.195516 0.324130 0.925588
vn -0.455330 0.195816 0.868522
vn -0.333812 0.420578 0.843614
vn -0.580655 0.501019 0.641732
vn -0.405396 0.337685 0.849484
vn -0.125181 0.574538 0.808848
vn -0.182891 0.376757 0.908078
vn -0.569353 0.539650 0.620174
vn 0.343468 0.475336 0.809991
vn -0.633755 0.522572 0.570328
vn 0.409229 0.420995 0.809503
vn -0.147900 0.573638 0.805646
vn -0.499876 0.228312 0.835463
vn -0.143452 0.908976 0.391387
vn 0.037554 0.389618 0.920210
vn -0.098657 0.422238 0.901100
vn -0.159690 0.279742 0.946701
vn -0.132511 0.335409 0.932707
vn -0.025619 0.287766 0.957358
vn -0.501822 0.283031 0.817354
vn 0.091999 0.313826 0.945013
vn -0.111952 0.313291 0.943035
vn 0.141550 0.154472 0.977805
vn 0.616717 0.089673 0.782061
vn 0.938142 0.172824 0.300034
vn 0.457163 0.880737 0.123714
vn -0.522229 0.603950 0.602097
vn 0.566080 0.274897 0.777165
vn 0.653940 0.470006 0.592838
vn 0.857268 0.504421 0.103202
vn 0.429419 0.171456 0.886681
vn 0.663711 0.303177 0.683791
vn 0.055094 0.056419 0.996886
vn 0.013665 0.170091 0.985334
vn 0.102818 0.240335 0.965229
vn 0.161611 0.247605 0.955287
vn 0.019466 0.122755 0.992246
vn 0.556302 0.417733 0.718350
vn 0.581166 0.463693 0.668756
vn 0.194914 0.280635 0.939815
vn 0.599828 0.524422 0.604308
vn 0.640773 0.077999 0.763758
vn 0.625669 0.397369 0.671294
vn 0.718798 0.416498 0.556650
vn 0.912811 0.404974 -0.052652
vn 0.740948 0.413011 0.529544
vn 0.903106 0.245780 -0.352125
vn 0.195016 0.715036 0.671337
vn 0.397261 0.612571 0.683331
vn 0.554867 0.510173 0.657150
vn 0.228721 0.378346 0.896962
vn 0.351843 0.440775 0.825787
vn 0.422301 0.371878 0.826661
vn -0.427049 0.202426 0.881279
vn 0.396837 0.209137 0.893746
vn -0.451708 0.224365 0.863493
vn 0.568486 0.319305 0.758201
vn -0.533591 0.329614 0.778868
vn -0.097818 0.381348 0.919242
vn 0.569341 0.520193 0.636593
vn 0.467972 0.521725 0.713306
vn 0.573762 0.348937 0.740973
vn -0.386451 0.524490 0.758661
vn -0.304216 0.238498 0.922264
vn -0.199567 0.333426 0.921412
vn -0.508651 0.380210 0.772473
vn -0.085355 0.785486 0.612965
vn -0.020958 0.252988 0.967242
vn 0.189052 0.098414 0.977023
vn 0.574874 0.411827 0.707049
vn 0.424188 0.243054 0.872347
vn 0.200925 0.166444 0.965363
vn 0.329368 0.261686 0.907214
vn 0.464075 0.359387 0.809614
vn 0.125597 0.653675 0.746280
vn 0.362084 0.038248 0.931360
vn 0.487632 0.753173 0.441527
vn 0.481643 0.464995 0.742832
vn -0.132263 0.218542 0.966823
vn 0.606337 0.220874 0.763918
vn 0.570585 0.289716 0.768438
vn 0.291946 0.494511 0.818673
vn 0.041821 0.478607 0.877033
vn -0.143245 0.378470 0.914462
vn 0.091568 0.277709 0.956291
vn 0.731649 0.340988 0.590269
vn 0.659902 0.434279 0.613132
vn 0.434377 0.342389 0.833119
vn 0.657417 0.333755 0.675582
vn 0.487046 0.395254 0.778820
vn 0.574150 0.451491 0.683013
vn 0.363271 0.384683 0.848559
vn 0.106376 0.413726 0.904165
vn 0.126464 0.323908 0.937598
vn 0.569858 0.463559 0.678509
vn 0.156693 0.405796 0.900431
vn 0.316519 0.137512 0.938566
vn -0.480013 0.260002 0.837847
vn -0.617312 0.304464 0.725416
vn -0.552993 0.275475 0.786328
vn -0.616865 0.257711 0.743682
vn -0.214856 0.301388 0.928979
vn -0.341702 0.328208 0.880636
vn -0.452687 0.141590 0.880356
vn -0.597330 0.200264 0.776590
vn -0.564954 0.175578 0.806225
vn -0.486181 0.179551 0.855213
vn 0.643655 0.150802 0.750311
vn 0.950462 0.151135 0.271627
vn 0.659727 0.192999 0.726300
vn 0.939382 0.210294 0.270810
vn 0.103985 0.411245 0.905574
vn 0.545600 0.288454 0.786838
vn 0.195972 0.452097 0.870174
vn -0.144283 0.294226 0.944782
vn 0.076652 0.187994 0.979175
vn 0.041082 0.090492 0.995049
vn 0.468166 0.321555 0.823057
vn -0.436309 0.335675 0.834840
vn -0.180583 0.155201 0.971238
vn -0.782613 0.230792 0.578146
vn 0.022250 0.314309 0.949060
vn 0.198905 0.351696 0.914739
vn 0.061888 0.017192 0.997935
vn -0.191058 0.329552 0.924604
vn 0.155776 0.156902 0.975252
vn -0.214073 0.103575 0.971311
vn -0.204696 0.204993 0.957119
vn 0.378883 0.431858 0.818503
vn -0.413200 0.268202 0.870249
vn -0.695408 0.228263 0.681399
vn 0.373864 0.398726 0.837402
vn -0.770607 0.154651 0.618262
vn -0.784108 -0.258856 0.564064
vn -0.370696 0.281541 0.885053
vn -0.310053 0.439786 0.842885
vn -0.314775 0.284903 0.905399
vn -0.122851 0.199814 0.972102
vn -0.248763 0.212132 0.945049
vn -0.085422 0.337835 0.937321
vn -0.228502 0.248565 0.941277
vn -0.400139 0.176439 0.899310
vn -0.283075 0.535641 0.795586
vn -0.182687 0.211408 0.960173
vn 0.529453 0.621415 0.577514
vn -0.120406 0.900515 0.417823
vn -0.085370 0.552752 0.828962
vn 0.114016 0.565122 0.817091
vn -0.419592 0.421337 0.804001
vn -0.503105 0.632076 0.589377
vn -0.101974 0.904686 0.413697
vn 0.327064 0.477115 0.815714
vn 0.372223 0.618378 0.692141
vn -0.248145 0.377104 0.892309
vn -0.413359 0.552043 0.724143
vn -0.447792 0.364633 0.816410
vn 0.130223 0.309042 0.942091
vn 0.044022 0.383985 0.922289
vn 0.177893 0.333721 0.925734
vn -0.019631 0.377410 0.925838
vn 0.186464 0.316259 0.930167
vn -0.438324 0.232080 0.868338
vn -0.419217 0.245631 0.874027
vn -0.358531 0.135041 0.923699
vn 0.351804 0.318752 0.880131
vn 0.189175 0.185770 0.964211
vn 0.436399 0.272167 0.857602
vn 0.162363 0.308704 0.937198
vn -0.531545 0.191841 0.825019
vn -0.462085 0.194704 0.865198
vn 0.084207 0.170852 0.981692
vn 0.050686 0.167456 0.984576
vn 0.574762 0.117865 0.809788
vn 0.593082 0.056996 0.803122
vn -0.394349 0.750834 0.529846
vn -0.189461 0.604199 0.773982
vn -0.351234 0.313838 0.882123
vn 0.218933 0.315213 0.923422
vn 0.286364 0.360882 0.887558
vn 0.481411 0.183559 0.857059
vn -0.401176 0.223315 0.888363
vn -0.609615 0.622562 0.490700
vn -0.981629 0.145741 -0.123143
vn -0.870238 0.491223 0.037236
vn 0.215128 0.872349 0.439007
vn -0.974452 -0.100624 -0.200794
vn -0.759999 0.612084 -0.218530
vn -0.906195 -0.129527 0.402535
vn 0.034796 0.599627 0.799523
vn -0.517378 0.473864 0.712581
vn 0.591956 0.548143 0.590870
vn -0.441818 0.130455 0.887569
vn -0.457380 0.235140 0.857620
vn -0.251819 0.271334 0.928959
vn 0.443184 0.201555 0.873478
vn 0.020234 0.252566 0.967368
vn 0.450514 0.254428 0.855747
vn -0.076194 0.296774 0.951903
vn -0.290622 0.173710 0.940938
vn -0.432434 0.219845 0.874454
vn 0.418284 0.156252 0.894776
vn 0.193272 0.306657 0.931991
vn 0.622816 0.209352 0.753838
vn 0.034540 0.182440 0.982610
vn -0.043824 0.247615 0.967867
vn -0.001505 0.238502 0.971141
vn 0.440072 0.656847 0.612282
vn 0.250624 0.299192 0.920691
vn -0.353109 0.006865 0.935557
vn -0.167324 0.239808 0.956292
vn -0.615282 0.263321 0.743028
vn -0.034412 0.164615 0.985758
vn 0.411979 0.107221 0.904863
vn 0.661731 0.004158 0.749729
vn 0.001091 0.206764 0.978390
vn -0.745266 0.170033 0.644723
vn -0.476301 0.327421 0.816047
vn -0.358726 0.228159 0.905129
vn 0.476120 0.337856 0.811888
vn 0.160912 0.259639 0.952205
vn 0.081521 0.120824 0.989321
vn -0.350877 0.316386 0.881354
vn -0.130648 0.079005 0.988276
vn -0.364361 0.479795 0.798147
vn -0.437056 0.719794 0.539332
vn -0.520734 0.385177 0.761889
vn -0.362978 0.221379 0.905118
vn -0.129902 -0.036483 0.990856
vn 0.405350 0.740327 0.536290
vn -0.344228 0.569071 0.746770
vn 0.939615 0.341511 -0.022233
vn 0.917823 0.381215 0.110795
vn 0.809921 0.394918 0.433668
vn 0.937065 0.347413 -0.034838
vn -0.398320 0.198404 0.895531
vn -0.156643 0.233067 0.959762
vn -0.191946 0.217627 0.956972
vn -0.340176 0.595187 0.728034
vn 0.180498 0.329025 0.926911
vn 0.810302 0.126163 0.572271
vn 0.009479 0.364777 0.931047
vn 0.723333 0.234450 0.649478
vn 0.732185 0.224734 0.642962
vn 0.023234 0.741606 0.670434
vn 0.369666 0.286776 0.883802
vn 0.928169 0.243403 0.281527
vn 0.980168 0.058062 0.189470
vn 0.985311 -0.155716 0.070100
vn 0.375809 0.751913 0.541659
vn 0.622432 0.770913 0.135176
vn -0.769482 0.471814 0.430451
vn 0.888861 0.371075 -0.268755
vn 0.302561 0.698788 0.648192
vn 0.854184 0.488007 -0.179494
vn 0.892643 0.364955 0.264569
vn 0.668671 0.429928 0.606664
vn 0.540652 0.372123 0.754467
vn 0.772349 0.603325 -0.198686
vn 0.878119 0.477943 0.021865
vn 0.774415 0.385706 0.501510
vn 0.769601 0.636856 -0.046136
vn 0.527559 0.314239 0.789263
vn -0.225489 0.752309 0.619020
vn 0.119012 0.730965 0.671957
vn 0.353613 0.317636 0.879810
vn 0.975107 -0.206469 0.080848
vn -0.272910 0.337126 0.901036
vn 0.875033 0.476350 -0.086065
vn 0.964174 0.198914 -0.175504
vn 0.863131 0.175417 0.473534
vn 0.905651 -0.417887 0.071888
vn 0.681483 0.261691 0.683447
vn 0.102329 0.979076 0.175895
vn 0.421667 0.894677 0.147482
vn -0.168728 0.673231 0.719924
vn 0.612053 0.407770 0.677580
vn 0.427991 0.401393 0.809758
vn 0.444638 0.225513 0.866857
vn -0.081268 0.244933 0.966128
vn 0.675248 0.306649 0.670825
vn 0.591451 0.297132 0.749599
vn 0.542017 0.275791 0.793824
vn 0.146659 0.261255 0.954064
vn -0.114296 0.515635 0.849151
vn 0.024228 0.249351 0.968110
vn -0.006779 0.228998 0.973403
vn 0.015055 0.351050 0.936236
vn 0.019199 0.318492 0.947731
vn 0.016342 0.298914 0.954140
vn 0.106696 0.194126 0.975157
vn 0.049194 0.100794 0.993690
vn 0.158066 0.196386 0.967702
vn 0.051457 0.169850 0.984126
vn -0.268620 0.477909 0.836329
vn 0.005255 0.280717 0.959776
vn -0.801265 0.248860 0.544098
vn 0.409498 0.286887 0.866030
vn -0.193693 0.875492 -0.442715
vn -0.897788 0.350239 -0.267038
vn -0.507992 0.603544 -0.614556
vn 0.090110 0.574287 0.813680
vn 0.194421 0.783798 0.589797
vn 0.813280 0.344371 0.469025
vn 0.251752 0.640194 0.725791
vn 0.446530 0.080909 0.891103
vn -0.146127 0.334774 0.930899
vn 0.015899 0.235317 0.971789
vn -0.106370 0.207456 0.972444
f 21/21/1 137/137/2 20/20/3
f 79/1/4 167/2/5 76/4/6
f 76/4/6 167/2/5 8/3/7
f 156/156/8 311/311/9 35/36/10
f 182/184/11 177/179/12 178/180/13
f 180/182/14 181/183/15 179/181/16
f 53/9/17 153/10/18 13/11/19
f 1/12/20 226/13/21 14/14/22
f 321/321/23 87/87/24 202/204/25
f 25/25/26 193/26/27 5/56/28
f 191/124/29 192/166/30 26/67/31
f 26/67/31 192/166/30 124/167/32
f 131/131/33 128/128/34 129/129/35
f 129/129/35 128/128/34 32/32/36
f 332/404/37 333/405/38 334/406/39
f 179/181/16 181/183/15 178/180/13
f 178/180/13 181/183/15 182/184/11
f 223/171/40 11/172/41 43/168/42
f 43/168/42 11/172/41 39/185/43
f 92/191/44 230/192/45 29/226/46
f 29/226/46 230/192/45 231/225/47
f 143/143/48 208/210/49 48/50/50
f 48/50/50 208/210/49 151/151/51
f 211/213/52 149/149/53 210/212/54
f 210/212/54 149/149/53 51/53/55
f 57/59/56 153/153/18 46/48/57
f 46/48/57 153/153/18 53/55/17
f 1/12/20 54/229/58 215/230/59
f 343/415/60 344/416/61 37/38/62
f 37/38/62 344/416/61 41/43/63
f 145/145/64 150/150/65 47/49/66
f 215/230/59 226/13/21 1/12/20
f 163/329/67 165/330/68 162/332/69
f 162/332/69 165/330/68 4/331/70
f 107/107/71 327/327/72 306/306/73
f 306/306/73 64/66/74 107/107/71
f 107/107/71 64/66/74 63/65/75
f 87/87/24 315/315/76 202/204/25
f 202/204/25 315/315/76 316/316/77
f 249/249/78 250/250/79 74/74/80
f 232/232/81 248/248/82 74/74/80
f 330/402/83 67/334/84 73/335/85
f 95/95/86 121/121/87 93/93/88
f 93/93/88 121/121/87 96/96/89
f 76/76/6 237/237/90 89/89/91
f 98/337/92 101/338/93 104/340/94
f 104/340/94 101/338/93 97/339/95
f 77/77/96 241/241/97 245/245/98
f 245/245/98 241/241/97 244/244/99
f 78/78/100 111/111/101 112/112/102
f 82/82/103 109/109/104 83/83/105
f 85/85/106 84/84/107 305/305/108
f 305/305/108 84/84/107 304/304/109
f 129/129/35 130/130/110 131/131/33
f 131/131/33 130/130/110 40/42/111
f 91/91/112 89/89/91 119/119/113
f 119/119/113 89/89/91 243/243/114
f 77/77/96 243/243/114 89/89/91
f 54/229/58 214/341/115 215/230/59
f 43/45/42 228/228/116 42/44/117
f 92/92/44 141/141/118 45/47/119
f 94/94/120 95/95/86 73/73/85
f 73/73/85 95/95/86 188/190/121
f 95/95/86 93/93/88 188/190/121
f 72/72/122 120/120/123 94/94/120
f 94/94/120 120/120/123 95/95/86
f 120/120/123 121/121/87 95/95/86
f 105/105/124 120/120/123 103/103/125
f 72/72/122 99/99/126 120/120/123
f 120/120/123 99/99/126 103/103/125
f 74/74/80 250/250/79 71/71/127
f 256/256/128 96/96/89 120/120/123
f 120/120/123 96/96/89 121/121/87
f 104/104/94 105/105/124 98/98/92
f 98/98/92 105/105/124 103/103/125
f 106/106/129 100/100/130 72/72/122
f 72/72/122 100/100/130 99/99/126
f 60/62/131 107/107/71 63/65/75
f 303/303/132 304/304/109 185/187/133
f 185/187/133 304/304/109 84/84/107
f 108/108/134 110/110/135 78/78/100
f 324/324/136 325/325/137 185/187/133
f 185/187/133 325/325/137 303/303/132
f 78/78/100 110/110/135 111/111/101
f 276/276/138 127/127/139 90/90/140
f 90/90/140 127/127/139 79/79/4
f 277/277/141 116/116/142 113/113/143
f 113/113/143 116/116/142 80/80/144
f 117/117/145 116/116/142 81/81/146
f 90/90/140 119/119/113 243/243/114
f 248/248/82 249/249/78 74/74/80
f 101/101/93 122/122/147 76/76/6
f 25/25/26 124/167/32 193/26/27
f 193/26/27 124/167/32 192/166/30
f 256/256/128 120/120/123 104/104/94
f 104/104/94 120/120/123 105/105/124
f 102/102/148 126/126/149 97/97/95
f 276/276/138 277/277/141 127/127/139
f 127/127/139 277/277/141 113/113/143
f 79/79/4 127/127/139 113/113/143
f 34/35/150 176/178/151 32/32/36
f 32/32/36 176/178/151 129/129/35
f 176/178/151 130/130/110 129/129/35
f 357/429/152 358/430/153 348/420/154
f 348/420/154 358/430/153 207/209/155
f 292/292/156 293/293/157 199/201/158
f 199/201/158 293/293/157 195/197/159
f 295/295/160 201/203/161 294/294/162
f 294/294/162 201/203/161 88/88/163
f 135/135/164 24/24/165 134/134/166
f 23/23/167 135/135/164 134/134/166
f 19/19/168 20/20/3 322/322/169
f 322/322/169 20/20/3 137/137/2
f 18/18/170 317/317/171 320/320/172
f 320/320/172 317/317/171 323/323/173
f 207/209/155 359/431/174 348/420/154
f 348/420/154 359/431/174 360/432/175
f 30/30/176 138/138/177 31/31/178
f 34/35/150 139/139/179 140/140/180
f 140/140/180 139/139/179 35/36/10
f 141/141/118 44/46/181 45/47/119
f 140/140/180 175/177/182 34/35/150
f 175/177/182 312/312/183 34/35/150
f 312/312/183 176/178/151 34/35/150
f 35/36/10 174/176/184 140/140/180
f 140/140/180 174/176/184 175/177/182
f 143/143/48 144/144/185 142/142/186
f 50/52/187 147/147/188 148/148/189
f 212/342/190 213/343/191 52/344/192
f 148/148/189 147/147/188 146/146/193
f 211/213/52 212/214/190 149/149/53
f 149/149/53 212/214/190 52/54/192
f 145/145/64 50/52/187 150/150/65
f 208/210/49 209/211/194 151/151/51
f 151/151/51 209/211/194 49/51/195
f 53/55/17 152/152/196 46/48/57
f 145/145/64 47/49/66 340/412/197
f 340/412/197 47/49/66 180/182/14
f 35/36/10 154/154/198 155/155/199
f 155/155/199 154/154/198 36/37/200
f 155/155/199 157/157/201 35/36/10
f 35/36/10 157/157/201 156/156/8
f 311/311/9 156/156/8 308/308/202
f 308/308/202 156/156/8 307/307/203
f 36/37/200 160/161/204 155/155/199
f 155/155/199 160/161/204 157/157/201
f 310/310/205 36/37/200 159/160/206
f 159/160/206 36/37/200 33/34/207
f 33/33/207 161/162/208 159/159/206
f 3/345/209 191/124/29 26/67/31
f 65/349/210 164/350/211 229/348/212
f 134/347/166 229/348/212 23/346/167
f 23/346/167 229/348/212 164/350/211
f 7/351/213 60/352/131 4/331/70
f 63/353/75 162/332/69 60/352/131
f 4/331/70 60/352/131 162/332/69
f 299/299/214 288/288/215 298/298/216
f 298/298/216 288/288/215 162/163/69
f 164/165/211 289/289/217 302/302/218
f 302/302/218 289/289/217 301/301/219
f 165/330/68 163/329/67 65/349/210
f 65/349/210 163/329/67 164/350/211
f 166/354/220 82/355/103 7/351/213
f 82/355/103 83/356/105 7/351/213
f 7/351/213 83/356/105 60/352/131
f 79/1/4 113/359/143 167/2/5
f 113/359/143 80/360/144 167/2/5
f 167/2/5 80/360/144 166/354/220
f 82/355/103 166/354/220 80/360/144
f 351/423/221 352/424/222 203/205/223
f 203/205/223 352/424/222 205/207/224
f 205/207/224 353/425/225 203/205/223
f 203/205/223 353/425/225 354/426/226
f 170/364/227 49/365/195 171/363/228
f 49/365/195 51/366/55 171/363/228
f 51/366/55 149/367/53 171/363/228
f 52/344/192 171/363/228 149/367/53
f 171/363/228 52/344/192 13/11/19
f 13/11/19 52/344/192 53/9/17
f 309/309/229 158/158/230 173/175/231
f 314/314/232 158/158/230 44/46/181
f 313/313/233 314/314/232 141/141/118
f 141/141/118 314/314/232 44/46/181
f 92/92/44 176/178/151 141/141/118
f 176/178/151 312/312/183 141/141/118
f 312/312/183 313/313/233 141/141/118
f 130/130/110 176/178/151 92/92/44
f 6/6/234 177/179/12 33/33/207
f 178/180/13 335/407/235 37/38/62
f 37/38/62 335/407/235 337/409/236
f 37/38/62 342/414/237 178/180/13
f 178/180/13 342/414/237 179/181/16
f 180/182/14 179/181/16 342/414/237
f 344/416/61 180/182/14 41/43/63
f 47/49/66 216/218/238 221/223/239
f 221/223/239 216/218/238 219/221/240
f 182/184/11 341/413/241 218/220/242
f 218/220/242 341/413/241 217/219/243
f 161/162/208 33/33/207 218/220/242
f 218/220/242 33/33/207 182/184/11
f 33/33/207 177/179/12 182/184/11
f 45/369/119 230/192/45 92/191/44
f 281/281/244 282/282/245 61/63/246
f 61/63/246 282/282/245 64/66/74
f 287/287/247 22/22/248 286/286/249
f 286/286/249 22/22/248 66/68/250
f 185/187/133 84/84/107 109/109/104
f 109/109/104 84/84/107 83/83/105
f 109/109/104 324/324/136 185/187/133
f 290/290/251 291/291/252 22/22/248
f 22/22/248 291/291/252 66/68/250
f 297/297/253 15/15/254 296/296/255
f 296/296/255 15/15/254 18/18/170
f 187/189/256 317/317/171 136/136/257
f 136/136/257 317/317/171 15/15/254
f 19/19/168 187/189/256 16/16/258
f 16/16/258 187/189/256 136/136/257
f 190/375/259 189/370/260 102/374/148
f 188/371/121 93/372/88 189/370/260
f 93/372/88 96/373/89 189/370/260
f 189/370/260 96/373/89 102/374/148
f 76/4/6 8/3/7 101/338/93
f 8/3/7 190/375/259 101/338/93
f 101/338/93 190/375/259 97/339/95
f 190/375/259 102/374/148 97/339/95
f 21/21/1 87/87/24 86/86/261
f 349/421/262 350/422/263 168/169/264
f 355/427/265 349/421/262 168/169/264
f 193/26/27 169/377/266 30/376/176
f 30/376/176 169/377/266 28/378/267
f 231/225/47 31/379/178 29/226/46
f 5/56/28 193/26/27 31/379/178
f 31/379/178 193/26/27 30/376/176
f 86/86/261 318/318/268 21/21/1
f 21/21/1 318/318/268 137/137/2
f 60/62/131 85/85/106 107/107/71
f 294/294/162 88/88/163 135/135/164
f 135/135/164 88/88/163 24/24/165
f 293/293/157 135/135/164 195/197/159
f 195/197/159 135/135/164 23/23/167
f 282/282/245 283/283/269 64/66/74
f 64/66/74 283/283/269 196/198/270
f 286/286/249 66/68/250 285/285/271
f 285/285/271 66/68/250 198/200/272
f 199/201/158 198/200/272 66/68/250
f 291/291/252 292/292/156 66/68/250
f 66/68/250 292/292/156 199/201/158
f 296/296/255 18/18/170 295/295/160
f 295/295/160 18/18/170 201/203/161
f 202/204/25 316/316/77 18/18/170
f 321/321/23 202/204/25 320/320/172
f 320/320/172 202/204/25 18/18/170
f 203/205/223 354/426/226 168/169/264
f 168/169/264 354/426/226 355/427/265
f 350/422/263 351/423/221 168/169/264
f 168/169/264 351/423/221 203/205/223
f 123/123/273 205/207/224 352/424/222
f 123/123/273 353/425/225 205/207/224
f 132/132/274 207/209/155 358/430/153
f 132/132/274 359/431/174 207/209/155
f 208/210/49 143/143/48 150/150/65
f 143/143/48 142/142/186 150/150/65
f 142/142/186 216/218/238 150/150/65
f 47/49/66 150/150/65 216/218/238
f 209/211/194 208/210/49 50/52/187
f 50/52/187 208/210/49 150/150/65
f 210/212/54 209/211/194 50/52/187
f 211/213/52 210/212/54 148/148/189
f 148/148/189 210/212/54 50/52/187
f 212/214/190 211/213/52 146/146/193
f 146/146/193 211/213/52 148/148/189
f 46/48/57 213/215/191 146/146/193
f 146/146/193 213/215/191 212/214/190
f 152/152/196 213/215/191 46/48/57
f 153/153/18 57/59/56 214/216/115
f 55/57/275 215/217/59 58/60/276
f 58/60/276 215/217/59 57/59/56
f 215/217/59 214/216/115 57/59/56
f 54/229/58 13/11/19 214/341/115
f 214/341/115 13/11/19 153/10/18
f 170/364/227 12/380/277 49/365/195
f 49/365/195 12/380/277 151/382/51
f 12/380/277 48/381/50 151/382/51
f 47/49/66 181/183/15 180/182/14
f 216/218/238 142/142/186 219/221/240
f 218/220/242 217/219/243 38/39/278
f 218/220/242 38/39/278 161/162/208
f 161/162/208 38/39/278 227/227/279
f 38/39/278 42/44/117 227/227/279
f 144/144/185 38/39/278 220/222/280
f 220/222/280 38/39/278 217/219/243
f 220/222/280 222/224/281 219/221/240
f 219/221/240 222/224/281 221/223/239
f 219/221/240 142/142/186 220/222/280
f 220/222/280 142/142/186 144/144/185
f 329/401/282 48/381/50 12/380/277
f 221/223/239 222/224/281 47/49/66
f 47/49/66 222/224/281 181/183/15
f 341/413/241 222/224/281 217/219/243
f 217/219/243 222/224/281 220/222/280
f 12/380/277 223/171/40 329/401/282
f 329/401/282 223/171/40 43/168/42
f 188/371/121 330/402/83 73/335/85
f 2/385/283 225/386/284 9/333/285
f 9/333/285 225/386/284 67/334/84
f 2/385/283 68/387/286 225/386/284
f 51/53/55 49/51/195 210/212/54
f 210/212/54 49/51/195 209/211/194
f 159/159/206 161/162/208 227/227/279
f 172/173/287 228/228/116 39/40/43
f 39/40/43 228/228/116 43/45/42
f 159/159/206 227/227/279 172/173/287
f 172/173/287 227/227/279 228/228/116
f 42/44/117 228/228/116 227/227/279
f 229/348/212 134/347/166 3/345/209
f 3/345/209 134/347/166 24/388/165
f 162/332/69 63/353/75 298/389/216
f 164/165/211 302/302/218 23/23/167
f 23/23/167 302/302/218 195/197/159
f 87/87/24 24/24/165 315/315/76
f 27/391/288 191/124/29 87/390/24
f 87/390/24 191/124/29 3/345/209
f 19/19/168 204/206/289 20/20/3
f 20/20/3 204/206/289 27/27/288
f 20/392/3 27/391/288 21/393/1
f 21/393/1 27/391/288 87/390/24
f 92/191/44 29/226/46 130/395/110
f 130/395/110 29/226/46 40/394/111
f 158/158/230 45/47/119 44/46/181
f 11/172/41 183/396/290 39/185/43
f 39/185/43 183/396/290 230/192/45
f 230/192/45 183/396/290 231/225/47
f 231/225/47 183/396/290 10/398/291
f 5/56/28 31/379/178 10/398/291
f 10/398/291 31/379/178 231/225/47
f 144/144/185 143/143/48 38/39/278
f 38/39/278 143/143/48 48/50/50
f 258/258/292 262/262/293 70/70/294
f 70/70/294 262/262/293 232/232/81
f 271/271/295 272/272/296 233/233/297
f 70/70/294 234/234/298 258/258/292
f 234/234/298 236/236/299 258/258/292
f 236/236/299 260/260/300 258/258/292
f 237/237/90 239/239/301 240/240/302
f 241/241/97 77/77/96 240/240/302
f 77/77/96 89/89/91 240/240/302
f 89/89/91 237/237/90 240/240/302
f 232/232/81 262/262/293 238/238/303
f 272/272/296 238/238/303 233/233/297
f 269/269/304 239/239/301 235/235/305
f 241/241/97 240/240/302 75/75/306
f 234/234/298 242/242/307 236/236/299
f 236/236/299 242/242/307 260/260/300
f 260/260/300 242/242/307 244/244/99
f 69/69/308 242/242/307 234/234/298
f 243/243/114 77/77/96 118/118/309
f 118/118/309 77/77/96 245/245/98
f 90/90/140 243/243/114 118/118/309
f 244/244/99 242/242/307 245/245/98
f 245/245/98 242/242/307 69/69/308
f 118/118/309 245/245/98 69/69/308
f 246/246/310 244/244/99 261/261/311
f 247/247/312 246/246/310 261/261/311
f 79/79/4 119/119/113 90/90/140
f 232/232/81 238/238/303 253/253/313
f 76/76/6 122/122/147 237/237/90
f 237/237/90 122/122/147 255/255/314
f 103/103/125 255/255/314 98/98/92
f 255/255/314 122/122/147 98/98/92
f 98/98/92 122/122/147 101/101/93
f 71/71/127 251/251/315 106/106/129
f 106/106/129 251/251/315 100/100/130
f 71/71/127 250/250/79 251/251/315
f 251/251/315 250/250/79 252/252/316
f 252/252/316 250/250/79 249/249/78
f 252/252/316 249/249/78 253/253/313
f 253/253/313 249/249/78 248/248/82
f 232/232/81 253/253/313 248/248/82
f 232/232/81 74/74/80 71/71/127
f 251/251/315 252/252/316 100/100/130
f 252/252/316 254/254/317 100/100/130
f 254/254/317 99/99/126 100/100/130
f 254/254/317 252/252/316 239/239/301
f 238/238/303 239/239/301 253/253/313
f 239/239/301 252/252/316 253/253/313
f 255/255/314 103/103/125 254/254/317
f 254/254/317 103/103/125 99/99/126
f 237/237/90 255/255/314 239/239/301
f 239/239/301 255/255/314 254/254/317
f 97/97/95 126/126/149 104/104/94
f 104/104/94 126/126/149 256/256/128
f 102/102/148 96/96/89 126/126/149
f 126/126/149 96/96/89 256/256/128
f 257/257/318 244/244/99 246/246/310
f 258/258/292 257/257/318 247/247/312
f 247/247/312 257/257/318 246/246/310
f 259/259/319 258/258/292 233/233/297
f 233/233/297 258/258/292 247/247/312
f 238/238/303 259/259/319 233/233/297
f 260/260/300 244/244/99 257/257/318
f 258/258/292 260/260/300 257/257/318
f 265/265/320 241/241/97 263/263/321
f 264/264/322 265/265/320 263/263/321
f 262/262/293 258/258/292 259/259/319
f 238/238/303 262/262/293 259/259/319
f 263/263/321 241/241/97 266/266/323
f 271/271/295 264/264/322 267/267/324
f 264/264/322 266/266/323 267/267/324
f 266/266/323 75/75/306 267/267/324
f 233/233/297 247/247/312 264/264/322
f 247/247/312 261/261/311 264/264/322
f 261/261/311 265/265/320 264/264/322
f 261/261/311 244/244/99 265/265/320
f 265/265/320 244/244/99 241/241/97
f 266/266/323 241/241/97 75/75/306
f 266/266/323 264/264/322 263/263/321
f 267/267/324 270/270/325 268/268/326
f 270/270/325 239/239/301 268/268/326
f 267/267/324 268/268/326 269/269/304
f 268/268/326 239/239/301 269/269/304
f 75/75/306 270/270/325 267/267/324
f 239/239/301 270/270/325 240/240/302
f 240/240/302 270/270/325 75/75/306
f 233/233/297 264/264/322 271/271/295
f 271/271/295 273/273/327 272/272/296
f 273/273/327 238/238/303 272/272/296
f 271/271/295 267/267/324 273/273/327
f 273/273/327 267/267/324 235/235/305
f 267/267/324 269/269/304 235/235/305
f 238/238/303 273/273/327 239/239/301
f 239/239/301 273/273/327 235/235/305
f 112/112/102 278/278/328 69/69/308
f 69/69/308 278/278/328 118/118/309
f 112/112/102 111/111/101 278/278/328
f 278/278/328 111/111/101 114/114/329
f 81/81/146 275/275/330 279/279/331
f 279/279/331 275/275/330 114/114/329
f 118/118/309 274/274/332 90/90/140
f 90/90/140 274/274/332 276/276/138
f 277/277/141 276/276/138 115/115/333
f 276/276/138 274/274/332 115/115/333
f 274/274/332 275/275/330 115/115/333
f 275/275/330 81/81/146 115/115/333
f 81/81/146 116/116/142 115/115/333
f 116/116/142 277/277/141 115/115/333
f 278/278/328 114/114/329 274/274/332
f 274/274/332 114/114/329 275/275/330
f 118/118/309 278/278/328 274/274/332
f 279/279/331 114/114/329 110/110/135
f 110/110/135 114/114/329 111/111/101
f 108/108/134 280/280/334 326/326/335
f 62/64/336 280/280/334 108/108/134
f 282/282/245 281/281/244 184/186/337
f 184/186/337 281/281/244 125/125/338
f 283/283/269 282/282/245 197/199/339
f 197/199/339 282/282/245 184/186/337
f 288/288/215 299/299/214 284/284/340
f 284/284/340 299/299/214 300/300/341
f 301/301/219 289/289/217 300/300/341
f 300/300/341 289/289/217 284/284/340
f 184/186/337 286/286/249 197/199/339
f 197/199/339 286/286/249 285/285/271
f 125/125/338 287/287/247 184/186/337
f 184/186/337 287/287/247 286/286/249
f 288/288/215 284/284/340 162/163/69
f 162/163/69 284/284/340 163/164/67
f 289/289/217 164/165/211 284/284/340
f 284/284/340 164/165/211 163/164/67
f 291/291/252 290/290/251 186/188/342
f 186/188/342 290/290/251 133/133/343
f 292/292/156 291/291/252 200/202/344
f 200/202/344 291/291/252 186/188/342
f 293/293/157 292/292/156 194/196/345
f 194/196/345 292/292/156 200/202/344
f 135/135/164 293/293/157 194/196/345
f 194/196/345 294/294/162 135/135/164
f 200/202/344 295/295/160 194/196/345
f 194/196/345 295/295/160 294/294/162
f 186/188/342 296/296/255 200/202/344
f 200/202/344 296/296/255 295/295/160
f 133/133/343 297/297/253 186/188/342
f 186/188/342 297/297/253 296/296/255
f 298/389/216 63/353/75 196/400/270
f 196/400/270 63/353/75 64/399/74
f 283/283/269 299/299/214 196/198/270
f 196/198/270 299/299/214 298/298/216
f 299/299/214 283/283/269 300/300/341
f 300/300/341 283/283/269 197/199/339
f 197/199/339 285/285/271 300/300/341
f 300/300/341 285/285/271 301/301/219
f 302/302/218 301/301/219 198/200/272
f 198/200/272 301/301/219 285/285/271
f 302/302/218 198/200/272 195/197/159
f 195/197/159 198/200/272 199/201/158
f 326/326/335 280/280/334 325/325/137
f 325/325/137 280/280/334 303/303/132
f 62/64/336 304/304/109 280/280/334
f 280/280/334 304/304/109 303/303/132
f 305/305/108 304/304/109 62/64/336
f 327/327/72 328/328/346 306/306/73
f 306/306/73 328/328/346 59/61/347
f 64/66/74 306/306/73 61/63/246
f 61/63/246 306/306/73 59/61/347
f 160/161/204 307/307/203 157/157/201
f 157/157/201 307/307/203 156/156/8
f 172/174/287 309/309/229 159/160/206
f 159/160/206 309/309/229 310/310/205
f 309/309/229 308/308/202 310/310/205
f 39/41/43 158/158/230 172/174/287
f 172/174/287 158/158/230 309/309/229
f 308/308/202 307/307/203 310/310/205
f 310/310/205 307/307/203 160/161/204
f 36/37/200 310/310/205 160/161/204
f 309/309/229 173/175/231 308/308/202
f 308/308/202 173/175/231 311/311/9
f 35/36/10 311/311/9 174/176/184
f 174/176/184 311/311/9 173/175/231
f 313/313/233 312/312/183 175/177/182
f 175/177/182 174/176/184 313/313/233
f 174/176/184 314/314/232 313/313/233
f 174/176/184 173/175/231 314/314/232
f 314/314/232 173/175/231 158/158/230
f 3/345/209 24/388/165 87/390/24
f 315/315/76 24/24/165 88/88/163
f 315/315/76 88/88/163 316/316/77
f 316/316/77 88/88/163 201/203/161
f 18/18/170 316/316/77 201/203/161
f 319/319/348 322/322/169 318/318/268
f 318/318/268 322/322/169 137/137/2
f 15/15/254 317/317/171 18/18/170
f 320/320/172 323/323/173 86/86/261
f 86/86/261 323/323/173 318/318/268
f 86/86/261 321/321/23 320/320/172
f 86/86/261 87/87/24 321/321/23
f 322/322/169 319/319/348 187/189/256
f 187/189/256 319/319/348 317/317/171
f 187/189/256 19/19/168 322/322/169
f 323/323/173 317/317/171 319/319/348
f 318/318/268 323/323/173 319/319/348
f 324/324/136 109/109/104 117/117/145
f 117/117/145 109/109/104 82/82/103
f 325/325/137 324/324/136 81/81/146
f 81/81/146 324/324/136 117/117/145
f 326/326/335 325/325/137 279/279/331
f 279/279/331 325/325/137 81/81/146
f 108/108/134 326/326/335 110/110/135
f 110/110/135 326/326/335 279/279/331
f 107/107/71 85/85/106 327/327/72
f 327/327/72 85/85/106 305/305/108
f 328/328/346 327/327/72 62/64/336
f 62/64/336 327/327/72 305/305/108
f 62/64/336 108/108/134 328/328/346
f 91/7/112 76/4/6 89/5/91
f 82/355/103 80/360/144 117/362/145
f 117/362/145 80/360/144 116/361/142
f 83/356/105 84/357/107 60/352/131
f 60/352/131 84/357/107 85/358/106
f 39/185/43 230/192/45 158/397/230
f 158/397/230 230/192/45 45/369/119
f 43/168/42 42/384/117 329/401/282
f 329/401/282 42/384/117 38/383/278
f 38/383/278 48/381/50 329/401/282
f 52/344/192 213/343/191 53/9/17
f 53/9/17 213/343/191 152/368/196
f 55/231/275 226/13/21 215/230/59
f 76/4/6 91/7/112 79/1/4
f 79/1/4 91/7/112 119/8/113
f 330/402/83 188/371/121 224/336/349
f 224/336/349 188/371/121 189/370/260
f 67/334/84 330/402/83 9/333/285
f 9/333/285 330/402/83 224/336/349
f 336/408/350 177/179/12 331/403/351
f 177/179/12 334/406/39 333/405/38
f 37/38/62 337/409/236 343/415/60
f 343/415/60 337/409/236 333/405/38
f 337/409/236 331/403/351 333/405/38
f 177/179/12 333/405/38 331/403/351
f 6/6/234 334/406/39 177/179/12
f 332/404/37 334/406/39 6/6/234
f 337/409/236 336/408/350 331/403/351
f 337/409/236 338/410/352 336/408/350
f 338/410/352 177/179/12 336/408/350
f 337/409/236 335/407/235 338/410/352
f 335/407/235 177/179/12 338/410/352
f 178/180/13 177/179/12 335/407/235
f 345/417/353 346/418/354 339/411/355
f 346/418/354 340/412/197 339/411/355
f 56/58/356 145/145/64 340/412/197
f 182/184/11 181/183/15 341/413/241
f 181/183/15 222/224/281 341/413/241
f 37/38/62 41/43/63 342/414/237
f 180/182/14 342/414/237 41/43/63
f 343/415/60 333/405/38 332/404/37
f 332/404/37 345/417/353 343/415/60
f 344/416/61 343/415/60 347/419/357
f 345/417/353 347/419/357 343/415/60
f 339/411/355 340/412/197 347/419/357
f 56/58/356 346/418/354 6/6/234
f 346/418/354 345/417/353 6/6/234
f 6/6/234 345/417/353 332/404/37
f 56/58/356 340/412/197 346/418/354
f 347/419/357 340/412/197 344/416/61
f 344/416/61 340/412/197 180/182/14
f 347/419/357 345/417/353 339/411/355
f 348/420/154 360/432/175 356/428/358
f 356/428/358 357/429/152 348/420/154
f 192/194/30 191/193/29 349/421/262
f 191/193/29 27/27/288 349/421/262
f 27/27/288 350/422/263 349/421/262
f 351/423/221 350/422/263 204/206/289
f 204/206/289 350/422/263 27/27/288
f 352/424/222 351/423/221 19/19/168
f 19/19/168 351/423/221 204/206/289
f 123/123/273 352/424/222 16/16/258
f 16/16/258 352/424/222 19/19/168
f 206/208/359 353/425/225 17/17/360
f 17/17/360 353/425/225 123/123/273
f 353/425/225 206/208/359 354/426/226
f 354/426/226 206/208/359 28/28/267
f 355/427/265 354/426/226 169/170/266
f 169/170/266 354/426/226 28/28/267
f 169/170/266 193/195/27 355/427/265
f 192/194/30 349/421/262 193/195/27
f 193/195/27 349/421/262 355/427/265
f 357/429/152 356/428/358 28/28/267
f 30/30/176 28/28/267 138/138/177
f 28/28/267 356/428/358 138/138/177
f 358/430/153 357/429/152 206/208/359
f 206/208/359 357/429/152 28/28/267
f 132/132/274 358/430/153 17/17/360
f 17/17/360 358/430/153 206/208/359
f 132/132/274 128/128/34 359/431/174
f 128/128/34 131/131/33 359/431/174
f 131/131/33 40/42/111 359/431/174
f 359/431/174 40/42/111 360/432/175
f 360/432/175 40/42/111 29/29/46
f 31/31/178 138/138/177 29/29/46
f 138/138/177 356/428/358 29/29/46
f 356/428/358 360/432/175 29/29/46
