# This file uses centimeters as units for non-parametric coordinates.

v 10.231194 6.650243 10.782722
v 24.137955 8.109653 -6.547047
v 9.944237 2.808256 -3.106188
v -18.137806 6.981105 -2.514897
v 1.241764 5.941558 10.840996
v 0.640640 3.379469 -2.538337
v -0.046786 12.926139 -13.412527
v 0.471242 2.451393 -8.508040
v -8.110475 2.462451 -2.979172
v 0.671550 2.462412 3.868540
v 9.913824 2.462241 -0.250511
v -5.235760 2.462477 -8.445263
v -7.560947 2.462477 -6.267613
v -8.212400 2.462462 -0.761173
v -4.658270 2.462326 3.825413
v 6.060957 2.462425 3.473923
v 8.811428 2.462455 -6.002502
v 5.728191 2.462476 -8.201378
v -5.149824 12.477354 -13.434251
v 6.120544 12.201099 -13.499607
v 9.922294 3.905340 -7.858856
v 18.263781 8.504948 9.598760
v 6.314993 5.941558 10.843380
v -5.654530 6.597104 10.766943
v -7.296535 12.486637 -13.841417
v -12.914573 12.120616 -11.621295
v -18.457844 7.807566 -5.025012
v 7.742336 11.397961 -14.042577
v 9.619309 11.334569 -13.510188
v 12.346430 11.374200 -12.902059
v 18.650187 11.105158 -9.475298
v 21.241199 6.462964 1.863513
v 0.380557 3.528540 -11.164615
v 1.742877 3.522587 -11.378210
v 3.864253 3.549867 -11.654174
v 0.245837 5.498307 -11.907338
v 1.869411 5.440539 -11.984143
v 1.706598 7.790193 -12.058947
v 0.878493 7.797043 -12.212046
v -1.819167 3.987046 -11.068558
v -1.309188 9.562890 -12.073542
v -0.445696 9.508075 -12.326614
v 4.025814 12.835487 -13.432892
v 3.206041 12.768893 -13.411500
v 2.188617 8.651605 -12.629380
v 4.058208 7.437292 -12.570867
v 6.049420 7.378642 -12.226574
v 4.766734 9.863258 -12.962691
v 5.485899 9.862331 -12.724678
v 6.008174 3.956239 -10.566913
v 9.588448 4.074695 -9.706284
v 6.805188 3.892573 -10.194714
v 7.892900 3.998595 -9.965832
v 9.241157 4.119783 -9.842945
v 10.336520 4.947911 -8.417191
v 11.163907 7.496522 -10.529019
v 9.117147 9.552514 -11.675711
v 6.019392 5.988436 -11.541149
v 10.948979 5.046048 -8.232333
v 10.466768 8.022543 -10.899712
v 10.051649 9.455810 -11.445154
v 7.857371 7.137442 -10.878601
v 7.532021 7.509212 -11.160808
v 15.033837 6.216974 -8.192471
v 11.407660 5.090303 -9.089694
v 12.103103 9.370887 -10.033048
v 13.313494 9.436151 -9.383465
v 13.158134 5.925947 -8.659118
v 13.765896 9.277634 -9.201508
v 14.908004 9.229481 -8.927742
v 15.949447 7.836146 -8.393337
v 20.605976 10.584023 -8.149375
v 18.106140 5.910432 -6.345602
v 11.297964 4.007596 -7.540878
v 12.302298 4.341240 -6.832609
v 13.370463 4.864836 -4.739872
v 9.286834 2.462413 -4.792011
v 10.329009 3.064254 -6.098532
v 15.975674 6.015971 -6.775607
v 15.790689 5.663311 -6.360342
v 13.787544 4.971203 -7.526506
v 12.310637 5.024568 2.805074
v 16.246988 5.555977 -5.072393
v 14.351289 5.924577 4.973826
v 9.919641 2.462275 -1.495555
v 12.768508 4.985895 -1.352129
v 15.244152 5.966960 -0.653936
v 10.052675 4.253256 4.848591
v 6.137609 3.998229 5.781188
v 0.808188 3.753579 5.785515
v -5.359324 4.101564 5.653414
v -10.533582 4.552193 -0.816440
v -10.899607 4.261245 -3.811683
v -10.988750 4.038091 -4.827723
v -8.795093 3.297036 -8.428450
v -5.564041 3.729822 -10.288016
v 0.407467 3.144078 -9.794586
v 5.954982 3.192886 -9.610378
v -5.580467 4.354085 -11.129780
v -5.941651 7.653237 -12.153921
v -4.292190 4.212593 -11.117099
v -6.394633 4.561443 -11.560076
v -5.143384 7.424089 -12.102983
v -4.857606 5.814434 -11.884594
v -3.007960 12.848862 -13.485014
v -1.735160 5.667048 -11.583520
v -6.800012 2.462471 1.769961
v -8.052501 3.615267 3.214905
v -16.209480 4.665042 -6.284700
v -17.300861 5.095559 1.193922
v -13.309908 7.351803 9.434526
v -10.684109 7.201886 10.746017
v -9.338981 3.700461 -9.122125
v -10.395634 3.476455 -7.018071
v -11.589808 3.991603 -6.106761
v -12.708411 5.082640 -7.245718
v -14.565689 5.538960 -7.476942
v -14.060177 4.791503 -5.508043
v -14.200752 5.106242 -3.810234
v -14.104766 5.647685 0.014110
v -10.615669 5.405040 6.252679
v -5.480034 5.622352 8.214271
v 1.026873 5.021708 8.227418
v 6.216227 4.960184 8.117356
v 10.179493 5.730417 7.949667
v -11.223000 5.083414 -6.778408
v -10.132825 5.670732 -8.041647
v -11.640671 8.288506 -9.552923
v -10.147667 5.705432 -9.415330
v -7.850104 3.656187 -10.129894
v -9.900955 7.339741 -10.608287
v -8.767810 7.275350 -11.526110
v -8.299075 5.733276 -10.999300
v -7.978630 7.719273 -11.749642
v -7.331819 7.723846 -12.194534
v -7.038134 6.618631 -12.217021
v -6.118003 6.702729 -12.049359
v 0.688503 7.202882 -12.265645
v 0.148595 8.748948 -12.314937
v -0.160767 8.215796 -12.122847
v 0.639431 2.462477 -4.112472
v 5.339409 2.462477 -2.339843
v 0.597103 2.462477 -0.901594
v -3.825103 2.462477 -2.399089
v 4.893548 2.462477 -3.859529
v 4.583531 2.462477 -1.088702
v -3.227087 2.462477 -1.153536
v -3.898815 2.462477 -1.728539
v -3.271380 2.462477 -3.629098
v -9.983844 3.435978 -6.459816
v -7.716339 2.462465 -4.510016
v -10.797454 6.574353 -9.199892
v -9.563454 6.203417 -10.112620
v -10.995992 7.392737 -9.958179
v 7.796249 3.291065 -8.758756
v 7.297152 2.462477 -7.097227
v 6.966223 7.085423 -11.381353
v 6.673078 3.169473 -9.394083
v 6.346738 2.462477 -8.010784
v 1.622115 2.985916 -9.749468
v 1.662207 2.448015 -8.454331
v 3.939773 3.057200 -9.705156
v 3.881236 2.456345 -8.346684
v -14.383487 7.160735 -7.536522
v -13.485293 5.374003 -7.108067
v -13.856519 6.093182 -7.350099
v -14.062612 7.678833 -7.701413
v -12.987421 8.726318 -8.057377
v -12.707454 7.461589 -8.117488
v -12.217025 5.322522 -7.863713
v -12.195934 4.750939 -7.537777
v -12.463013 8.436573 -8.925295
v -13.923598 8.775866 -7.750923
v -12.599304 6.322529 -7.948935
v -12.958869 7.971759 -8.163508
v -12.842377 7.070870 -8.163277
v -12.220067 4.364456 -7.037432
v -12.432085 4.473418 -5.173188
v -5.581856 6.950611 -11.844474
v -7.164592 3.976369 -10.702283
v -7.407317 7.252842 -11.456961
v -6.711285 3.385354 -9.939240
v -5.670340 2.462477 -7.970631
v -7.981105 4.055241 -10.473120
v -8.171702 3.976461 -10.406110
v -8.755748 3.599966 -9.506304
v -9.019755 7.275066 -11.318639
v -8.395022 4.580098 -10.777024
v -8.685707 5.810052 -10.906666
v -8.526212 6.680455 -11.266810
v -8.256763 6.590548 -11.486938
v -9.586699 5.079308 -9.833838
v -10.346718 7.262952 -10.202229
v -13.320721 7.082391 -7.650446
v -13.943994 7.057709 -7.517977
v -12.092879 8.043912 -8.734007
v 2.796678 3.429945 -11.030046
v 2.756584 3.190456 -9.828515
v 2.783967 2.448015 -8.486747
v 3.661747 12.803707 -13.424981
v -3.021984 3.141860 -10.188107
v -13.492237 8.392126 -7.637552
v -9.201880 7.030845 -10.851872
v 5.725085 3.862917 -10.931019
v 6.015459 4.659575 -11.042730
v 6.363970 6.278380 -11.428079
v 6.016628 5.190000 -11.252919
v 4.604340 3.303541 -10.585406
v -0.887800 3.533982 -10.735165
v -0.888039 9.590648 -12.105110
v -0.851635 9.117813 -11.733253
v 0.989048 3.416023 -11.057372
v 1.330062 7.258073 -11.668393
v 5.173980 9.469391 -12.585707
v 7.393094 3.680009 -10.023881
v 7.325435 4.122001 -10.085924
v 7.286189 7.141188 -10.964547
v 11.607606 6.498363 -9.565461
v 11.655731 7.287671 -9.680413
v 11.431190 7.062632 -9.716547
v 12.167919 4.888472 -8.677763
v 14.768980 6.414897 -8.321212
v 13.898253 5.711205 -8.261779
v 13.945053 5.995853 -8.393083
v 14.275743 9.108919 -8.816068
v 12.217807 5.435452 -8.799685
v 12.741488 9.478131 -9.427207
v 15.366362 7.600262 -8.461427
v 16.546320 7.934228 -7.932580
v 8.465721 3.771262 -9.278057
v 8.524399 4.079361 -9.925180
v 8.302638 5.702798 -11.039142
v 8.556597 5.814734 -10.310080
v 8.257817 7.308848 -11.757680
v 9.515080 5.753604 -10.794478
v 8.968276 5.820565 -10.341200
v 10.032632 5.554929 -10.437240
v -2.972475 3.379469 -2.562053
v 4.192397 3.350468 -2.498362
v -3.180265 3.166241 -3.254524
v -3.410044 3.323228 -2.469228
v -3.481652 3.166241 -2.031889
v -3.137442 3.166241 -1.598107
v 0.608759 3.166241 -1.301470
v 4.274566 3.137240 -1.560980
v 4.761173 3.137240 -2.326148
v 4.495011 3.137240 -3.345651
v 0.642028 3.166241 -3.704676
v 5.774382 2.931959 -8.536076
v 3.791175 3.083846 -8.783416
v 2.739396 2.800912 -8.875770
v 1.641794 2.808884 -8.804127
v 0.421119 2.651165 -8.821248
v -5.253296 2.815404 -8.575193
v -0.556682 2.606780 -8.704026
v -1.931005 3.088329 -8.621060
v -4.053868 2.919544 -8.584383
v -0.599542 3.051782 -9.824399
v -5.769166 2.673903 -8.049858
v 6.386221 2.771077 -8.323388
v 7.667921 2.972930 -7.366003
v 7.224782 3.210802 -7.919809
v 7.240645 3.229074 -9.065116
v 9.059861 2.637153 -6.266037
v 9.491199 2.746406 -4.948224
v 9.625546 2.753615 -3.552494
v 9.353249 2.462391 -2.910309
v 4.725328 3.151589 -9.667061
v 4.899908 2.966524 -8.748469
v 4.842612 2.462477 -8.246066
v 8.471628 3.357135 -8.384251
v 8.360107 2.814658 -6.834773
v 8.053666 2.462476 -6.528769
v -1.862609 2.459949 -8.351189
v -0.680124 2.462477 -4.110049
v -0.767711 2.882934 -3.728584
v -1.090314 3.379469 -2.549600
v -1.188773 3.166241 -1.442086
v -1.130544 2.462477 -0.753751
v -1.839386 2.462412 3.855895
v -1.994775 3.792272 5.859606
v -2.160449 5.034757 8.240014
v -2.116829 5.944265 10.837586
v -1.501658 2.462477 -4.329896
v -1.526933 3.166241 -3.932528
v -1.697597 3.379469 -2.553598
v -1.725867 3.166241 -1.484777
v -1.691081 2.462477 -1.050774
v -0.536023 2.455755 -8.440629
v -0.497639 2.462477 -6.242924
v -1.673563 2.462477 -6.432183
v -4.213868 2.462477 -5.797687
v -2.944325 2.462478 -6.114783
v -3.865920 2.462477 -8.404620
v 2.500365 2.462477 -4.001525
v 2.271122 3.140456 -3.523228
v 2.349003 3.297312 -2.453670
v 2.518584 3.166241 -1.436435
v 2.576914 2.462477 -0.995243
v 3.213633 2.462419 3.679919
v 3.237536 3.772851 5.783517
v 3.489366 4.992195 8.174621
v 3.670617 5.941558 10.842150
v 1.596127 2.462478 -6.212675
v 0.583591 2.462477 -6.227304
v 4.012722 2.462477 -6.117602
v 2.658135 2.462477 -6.187489
v 5.473592 2.462476 -6.161616
v 6.958781 2.462443 -4.732650
v 7.333807 2.462435 -2.620979
v 5.235651 2.462452 1.031655
v 2.821592 2.462450 1.127641
v 7.747933 2.462347 1.877337
v 7.539282 2.462390 -0.372788
v 0.580865 2.462447 1.322953
v -1.813969 2.462444 1.346276
v -4.157721 2.462459 1.204689
v -5.767263 2.462429 -1.303358
v -5.878642 2.462448 -2.716430
v -5.065330 2.462463 -4.211551
v -4.938262 2.462444 -0.024934
v 3.629518 2.525130 -1.321074
v 3.607606 3.149720 -1.521055
v 3.469676 3.184056 -2.307807
v 3.224096 3.139578 -3.122351
v 3.318306 2.462477 -3.603312
v 3.849961 2.462477 -3.921466
v 3.675812 3.137240 -3.413828
v 3.688982 2.462463 -0.024021
v -0.542544 2.462458 0.380883
v -0.384386 2.462477 -0.964929
v -0.347606 3.166241 -1.375832
v -0.464080 3.379469 -2.545502
v -0.225643 2.901677 -3.633334
v -2.460597 3.272734 -3.655951
v 1.578190 3.235605 -3.675196
v 4.691888 3.249666 -2.855047
v 5.118900 2.462477 -3.091433
v 6.012980 2.462463 -2.434792
v 5.129800 2.462477 -1.596226
v 4.536536 3.137240 -1.972916
v 6.291927 2.462444 -0.807194
v -1.140376 3.067349 -3.867293
v 10.310241 2.544780 -0.490293
v 11.337482 3.718245 -1.424174
v 11.132736 3.521649 -3.672885
v 10.743200 3.327665 -4.368782
v 11.014943 3.441182 -0.685428
v 10.615827 3.212721 0.644440
v 9.975237 3.254387 2.004766
v 8.560205 3.093526 2.924510
v 6.094717 3.138831 4.490100
v 3.226218 3.152343 4.787434
v 0.747150 3.176796 4.929175
v -1.925953 3.203276 4.972160
v -5.010228 3.354300 4.749092
v -7.477787 3.133354 2.542876
v -9.139363 3.413951 -0.815739
v -9.419252 3.306521 -3.369821
v -9.448528 3.194934 -3.838526
v -8.878984 2.961627 -5.509760
v -8.118254 2.839341 -7.243388
v -5.968390 2.824348 -8.449392
v 7.901574 2.479320 2.075408
v 9.651347 2.502481 0.759994
v 10.342175 2.904136 -0.298266
v -3.655305 10.081215 -12.317763
v -3.356355 10.257720 -12.346989
v -3.030801 10.037539 -12.375526
v -3.871245 12.606180 -13.524600
v -9.129151 12.572071 -13.123972
v -10.475605 12.576018 -13.096382
v 3.064563 8.392295 -11.829831
v 3.990991 8.312669 -12.348599
v 14.845332 11.769715 -11.550205
v 16.592304 11.813179 -10.350971
v 9.420026 7.440350 -11.117164
v 8.024949 6.412241 -11.597651
v 7.864501 6.507556 -10.695433
v 7.295047 6.459785 -10.766250
v 6.926203 6.291938 -11.086451
v 10.021394 4.580068 -8.960222
v 10.442036 5.352356 -8.742911
v 10.961388 5.391199 -8.545213
v 11.226501 5.054063 -8.663196
v 11.299477 5.282683 -9.520323
v 10.821728 5.013984 -9.655729
v 8.614998 11.368487 -13.795053
v -3.152688 5.647044 -10.778375
v -7.352654 6.514951 -11.287001
v -0.714667 5.603152 -10.953619
v 1.188435 5.662427 -11.548279
v -14.767989 6.848936 -7.315313
v -17.201368 9.953123 -7.494069
v -15.530701 11.613740 -9.560752
v 2.826666 10.653739 -12.459282
v 3.298431 10.643444 -12.408848
v 3.685955 10.678381 -12.459507
v -0.843203 8.039160 -11.427660
v -1.477123 8.028294 -11.943851
v -4.436172 7.031051 -12.171467
v -3.121051 6.674237 -11.160208
v -2.145525 6.928881 -12.002736
v -1.535259 7.169701 -11.731803
v -0.712472 6.880170 -11.323632
v 0.012734 7.013420 -12.042834
v 0.198735 7.072856 -12.373164
v 2.969434 7.210152 -11.550288
v 2.038219 7.549028 -12.403198
v 2.931020 5.273536 -11.234443
v 3.982031 5.426343 -12.100558
v 4.812747 5.426517 -11.385132
v 12.555059 7.262274 -9.325836
v 13.233974 7.577423 -9.087947
v 13.483928 7.722639 -8.949869
v 14.121270 7.654737 -8.618482
v 14.836759 7.787099 -8.616916
v 14.960155 7.790300 -8.572846
v 17.443342 7.750580 -6.631883
v 18.027502 7.576280 -6.489170
v 11.726680 6.102334 -9.491726
v 11.253275 6.037155 -9.864084
v 10.930420 5.802557 -9.933128
v 12.343103 5.951641 -10.242468
v 11.198595 5.935511 -10.498274
v 12.094481 5.035368 -9.634526
v 11.623889 5.247135 -10.043829
v 11.101628 11.436883 -13.221235
v -17.854729 8.684522 -6.753194
v -17.306599 4.610989 -3.792617
v 21.258299 5.910426 -5.549901
v 10.205877 6.700428 -10.654373
v 10.133348 7.996199 -11.026253
v -1.453138 12.878623 -13.455177
v 7.312361 7.990268 -11.890356
v 6.597956 8.678345 -12.798611
v -10.779763 3.642163 -6.724930
v -10.603498 5.091312 -7.410373
v -10.084058 3.542508 -7.638495
v -10.464711 5.960936 -7.848698
v -10.167906 4.085213 -7.752612
v -11.166527 6.480267 -9.071484
v -10.967277 4.638290 -8.324969
v -10.892783 5.562483 -8.570774
v -10.738073 5.376800 -8.586042
v -10.658540 5.327815 -8.616673
v -10.097526 4.200509 -8.363646
v -9.901609 5.899727 -9.972314
v -10.447592 4.676672 -8.337266
v -9.744835 4.706692 -9.269276
v -10.013788 4.826767 -7.986727
v -10.228596 4.871111 -7.668643
v -11.037210 5.194048 -6.970249
v -11.261831 5.344362 -6.847824
v -11.412264 5.212744 -6.721006
v -11.783010 4.468775 -7.663013
v -11.668292 4.875114 -7.839008
v -11.397261 4.652280 -7.589621
v -11.769032 5.626953 -8.051358
v -11.877006 6.432789 -8.278959
v -13.424767 7.876914 -7.642624
v -9.985664 4.627367 -7.973751
v -10.263390 4.580601 -7.533128
v -10.666290 4.699884 -7.202171
v -10.124068 4.477549 -7.820503
v -10.222285 4.948597 -7.905601
v -10.667318 4.361778 -7.140816
v -10.380125 5.170479 -7.804264
v -10.375027 5.175105 -7.710681
v -10.202707 5.106633 -7.935374
v -10.167828 5.388186 -7.988417
v -10.313522 5.460171 -7.798802
v -10.355792 5.554821 -7.919003
v -10.368118 5.876474 -7.904854
v -10.221430 5.748208 -7.990135
v -10.462745 5.286288 -7.598258
v -10.631884 5.411711 -7.433250
v -10.489548 5.392451 -7.654162
v -8.984890 5.090919 -10.045101
v -8.569013 5.343222 -10.862296
v -9.076951 6.070105 -10.475077
v -8.802356 6.135010 -10.958076
v -8.895675 4.510426 -9.835323
v -8.075096 4.883244 -10.798768
v -7.243927 5.047287 -10.948950
v -3.569757 2.842993 -1.903175
v -3.507095 2.949216 -2.468596
v 6.807612 2.462477 -7.567782
v 6.168613 2.462461 -5.492906
v -4.123417 3.396615 -10.231396
v -3.767651 3.770427 -10.733465
v -3.886917 5.671003 -11.014238
v -3.805488 6.785284 -11.453177
v -3.361629 9.716651 -12.130213
v -2.629652 6.770472 -11.376556
v -2.437462 5.624547 -11.060998
v -2.431966 3.556449 -10.619994
v -1.962309 3.102456 -10.029006
v -3.617858 9.671885 -12.160003
v -3.058999 9.659333 -12.194489
v -1.333688 3.750884 -10.797256
v -1.234923 5.635726 -11.177228
v -1.172010 7.041877 -11.454082
v -1.172939 8.033508 -11.598639
v -0.503496 8.104225 -11.615476
v -0.399460 6.937684 -11.536533
v -0.271123 5.554737 -11.296510
v -0.254719 3.531266 -10.851998
v -4.146244 8.280978 -12.254936
v -3.660391 8.242075 -11.853631
v -3.236410 8.175271 -11.725205
v -2.795491 8.272633 -11.840799
v -2.359169 8.364857 -12.138191
v -7.291513 5.689635 -11.096904
v -6.751903 5.705501 -12.027843
v -6.248713 5.785476 -11.941113
v -5.558904 5.414338 -11.440002
v 8.644568 6.078902 -10.466710
v 8.803497 6.147083 -11.032614
v 8.725618 6.928603 -11.356329
v 9.212312 5.776478 -10.764233
v 8.409334 5.739127 -11.466853
v 7.163977 6.400140 -10.880033
v 7.294583 6.495442 -10.776626
v 7.675809 6.827154 -10.768472
v -0.181012 8.351082 -12.322440
v -0.072427 7.063270 -12.270272
v 0.510548 5.544397 -11.806503
v 1.015095 7.224133 -11.899937
v 0.755682 6.467750 -11.934826
v 0.538396 6.648115 -12.298231
v 0.412790 7.124433 -12.272960
v 1.248418 6.338230 -11.599150
v 0.819116 6.536273 -12.213284
v -7.831146 6.522833 -11.283612
v -7.802144 5.679821 -10.939778
v -7.665287 4.933363 -10.765561
v -5.979516 5.617866 -11.530024
v -6.039571 4.462154 -11.166612
v 11.619677 8.991060 -11.443638
v -15.397942 6.334907 -7.293806
vt 0.646788 0.028166
vt 0.993316 0.346630
vt 0.128525 0.337739
vt 0.366168 0.029775
vt 0.991631 0.635835
vt 0.128498 0.339487
vt 0.715626 0.346637
vt 0.692668 0.647878
vt 0.127572 0.339077
vt 0.686749 0.737730
vt 0.410117 0.635918
vt 0.703478 0.513821
vt 0.418243 0.035199
vt 0.992098 0.581081
vt 0.493635 0.733003
vt 0.422138 0.692018
vt 0.408476 0.594781
vt 0.517345 0.507741
vt 0.869316 0.520786
vt 0.953459 0.684046
vt 0.864308 0.725270
vt 0.127870 0.337853
vt 0.128155 0.337241
vt 0.281629 0.036105
vt 0.991333 0.717209
vt 0.638171 0.206238
vt 0.876550 0.346633
vt 0.471732 0.351541
vt 0.128111 0.337647
vt 0.128352 0.337643
vt 0.138363 0.336831
vt 0.138645 0.336744
vt 0.139661 0.338045
vt 0.141866 0.336292
vt 0.140547 0.335443
vt 0.141444 0.333673
vt 0.486148 0.307002
vt 0.683039 0.793370
vt 0.724703 0.799341
vt 0.799335 0.801577
vt 0.678632 0.859452
vt 0.733637 0.849608
vt 0.727513 0.919624
vt 0.699233 0.920288
vt 0.610065 0.794659
vt 0.631131 0.970789
vt 0.658435 0.968981
vt 0.133847 0.339716
vt 0.133634 0.338845
vt 0.744068 0.936637
vt 0.812008 0.904311
vt 0.874255 0.899299
vt 0.834705 0.967731
vt 0.861231 0.966525
vt 0.869426 0.790727
vt 0.225450 0.035417
vt 0.991012 0.774197
vt 0.896617 0.783111
vt 0.940969 0.777016
vt 0.979247 0.775887
vt 0.227050 0.061298
vt 0.153405 0.090696
vt 0.081627 0.033655
vt 0.990191 0.920087
vt 0.872443 0.858565
vt 0.226827 0.079145
vt 0.131635 0.072492
vt 0.084107 0.059914
vt 0.946713 0.867624
vt 0.942773 0.883074
vt 0.238764 0.175431
vt 0.218616 0.086509
vt 0.134132 0.110005
vt 0.137945 0.144842
vt 0.219411 0.132106
vt 0.158235 0.158823
vt 0.170292 0.185811
vt 0.212802 0.203214
vt 0.134502 0.339429
vt 0.295096 0.232354
vt 0.292300 0.073670
vt 0.312038 0.097020
vt 0.358799 0.124882
vt 0.971120 0.665671
vt 0.319152 0.036073
vt 0.991539 0.680513
vt 0.261083 0.192835
vt 0.294843 0.186081
vt 0.271207 0.140714
vt 0.490819 0.094589
vt 0.353359 0.190824
vt 0.554292 0.142683
vt 0.392067 0.033041
vt 0.991964 0.605000
vt 0.419712 0.110905
vt 0.440714 0.169895
vt 0.520281 0.031104
vt 0.992678 0.478066
vt 0.871823 0.466719
vt 0.707206 0.468071
vt 0.497356 0.462837
vt 0.305611 0.579195
vt 0.295465 0.636127
vt 0.294466 0.660243
vt 0.380955 0.733802
vt 0.489538 0.766914
vt 0.685086 0.762669
vt 0.868062 0.760047
vt 0.486653 0.790799
vt 0.471381 0.917212
vt 0.528612 0.798739
vt 0.460288 0.821220
vt 0.501595 0.913836
vt 0.515861 0.853060
vt 0.133534 0.339706
vt 0.616861 0.851477
vt 0.459543 0.548268
vt 0.409010 0.516449
vt 0.092037 0.702822
vt 0.056162 0.531770
vt 0.207445 0.374668
vt 0.326740 0.356497
vt 0.359793 0.755273
vt 0.322808 0.712967
vt 0.272165 0.696767
vt 0.225873 0.753108
vt 0.147310 0.751861
vt 0.167719 0.686903
vt 0.158845 0.636376
vt 0.168191 0.555614
vt 0.305182 0.446349
vt 0.487127 0.412278
vt 0.711673 0.413250
vt 0.874212 0.415170
vt 0.581541 0.028993
vt 0.993019 0.417398
vt 0.273289 0.746241
vt 0.306792 0.799219
vt 0.260331 0.856186
vt 0.322135 0.800140
vt 0.413588 0.761394
vt 0.309490 0.869205
vt 0.355787 0.883880
vt 0.383708 0.824712
vt 0.376113 0.911924
vt 0.422662 0.918793
vt 0.433476 0.890750
vt 0.468412 0.891514
vt 0.693342 0.902890
vt 0.673352 0.938652
vt 0.666354 0.926037
vt 0.693386 0.668723
vt 0.843087 0.637418
vt 0.695685 0.609464
vt 0.545721 0.635670
vt 0.827344 0.663580
vt 0.821614 0.612967
vt 0.567875 0.613714
vt 0.544110 0.623829
vt 0.562996 0.657428
vt 0.338275 0.697503
vt 0.415814 0.662505
vt 0.300142 0.815794
vt 0.329127 0.824728
vt 0.298176 0.843234
vt 0.929590 0.739765
vt 0.909283 0.710582
vt 0.914524 0.873229
vt 0.891927 0.752180
vt 0.885356 0.722453
vt 0.724852 0.762099
vt 0.725713 0.736597
vt 0.800166 0.761020
vt 0.798362 0.734483
vt 0.169039 0.795376
vt 0.195621 0.752627
vt 0.189847 0.772254
vt 0.176416 0.810149
vt 0.201773 0.839677
vt 0.226239 0.815746
vt 0.239482 0.765568
vt 0.243818 0.748843
vt 0.231195 0.847972
vt 0.174083 0.838866
vt 0.233099 0.789752
vt 0.216216 0.825549
vt 0.219189 0.804285
vt 0.245028 0.729795
vt 0.233996 0.672963
vt 0.483195 0.901575
vt 0.431643 0.784523
vt 0.401348 0.897271
vt 0.450916 0.755136
vt 0.479121 0.724683
vt 0.404498 0.780658
vt 0.388582 0.776145
vt 0.380159 0.757590
vt 0.345163 0.880513
vt 0.389072 0.801848
vt 0.370346 0.830672
vt 0.369812 0.854160
vt 0.381011 0.855686
vt 0.344415 0.790104
vt 0.311673 0.845391
vt 0.205509 0.799528
vt 0.182133 0.794020
vt 0.246992 0.839468
vt 0.761733 0.782475
vt 0.762050 0.761566
vt 0.762424 0.735529
vt 0.133311 0.338855
vt 0.571971 0.765124
vt 0.189651 0.830061
vt 0.337509 0.866022
vt 0.859514 0.792262
vt 0.870595 0.817012
vt 0.885317 0.863051
vt 0.871257 0.831894
vt 0.821466 0.782423
vt 0.643578 0.782394
vt 0.644897 0.969878
vt 0.644774 0.952479
vt 0.702971 0.792332
vt 0.714913 0.906165
vt 0.848153 0.955146
vt 0.918530 0.772266
vt 0.919716 0.779936
vt 0.933742 0.870653
vt 0.188637 0.094846
vt 0.170376 0.099925
vt 0.175484 0.090662
vt 0.229851 0.103537
vt 0.236305 0.169927
vt 0.240284 0.147988
vt 0.228310 0.152028
vt 0.164532 0.172919
vt 0.218969 0.106763
vt 0.136491 0.131556
vt 0.215094 0.188628
vt 0.220371 0.223686
vt 0.958184 0.762898
vt 0.961262 0.776506
vt 0.954301 0.819835
vt 0.970404 0.816934
vt 0.957017 0.868208
vt 0.181897 0.034883
vt 0.990763 0.818375
vt 0.977578 0.817672
vt 0.187748 0.052354
vt 0.569269 0.653720
vt 0.810918 0.653692
vt 0.565420 0.657592
vt 0.560397 0.650175
vt 0.557438 0.642215
vt 0.566725 0.634119
vt 0.694206 0.623303
vt 0.818425 0.628367
vt 0.833223 0.641920
vt 0.824177 0.659940
vt 0.693107 0.661733
vt 0.867332 0.743632
vt 0.799995 0.758507
vt 0.762174 0.752936
vt 0.725216 0.751316
vt 0.686258 0.745090
vt 0.492139 0.745384
vt 0.653187 0.740668
vt 0.609930 0.752288
vt 0.536850 0.746382
vt 0.652130 0.763384
vt 0.473565 0.730681
vt 0.887167 0.735813
vt 0.921430 0.725340
vt 0.909138 0.739881
vt 0.910976 0.745901
vt 0.962547 0.690307
vt 0.979182 0.670002
vt 0.983599 0.645998
vt 0.976912 0.634885
vt 0.826833 0.760637
vt 0.835422 0.750681
vt 0.829846 0.733568
vt 0.952001 0.732377
vt 0.944014 0.711661
vt 0.931216 0.697407
vt 0.610122 0.735577
vt 0.651689 0.667165
vt 0.647251 0.661534
vt 0.635868 0.647981
vt 0.634929 0.625692
vt 0.640877 0.605887
vt 0.619923 0.514855
vt 0.614526 0.465759
vt 0.605551 0.412791
vt 0.603204 0.348237
vt 0.624744 0.674594
vt 0.624651 0.669174
vt 0.615708 0.648018
vt 0.616932 0.626417
vt 0.620006 0.611980
vt 0.653680 0.736801
vt 0.655133 0.698789
vt 0.617743 0.703997
vt 0.531765 0.691458
vt 0.574733 0.697724
vt 0.544531 0.734128
vt 0.749297 0.667894
vt 0.750239 0.662401
vt 0.749982 0.652769
vt 0.758188 0.629630
vt 0.760635 0.607373
vt 0.782747 0.517150
vt 0.783223 0.467446
vt 0.789644 0.414171
vt 0.793514 0.346635
vt 0.722382 0.700185
vt 0.689226 0.700570
vt 0.801501 0.698848
vt 0.757132 0.698990
vt 0.849374 0.699369
vt 0.896179 0.671096
vt 0.909754 0.635007
vt 0.843783 0.570129
vt 0.769626 0.568504
vt 0.924816 0.546633
vt 0.917282 0.590839
vt 0.699319 0.564861
vt 0.620401 0.563877
vt 0.539213 0.565928
vt 0.479738 0.610975
vt 0.475732 0.635798
vt 0.502920 0.662806
vt 0.510054 0.588013
vt 0.795784 0.618598
vt 0.795714 0.627441
vt 0.787682 0.647705
vt 0.780904 0.654790
vt 0.779939 0.658743
vt 0.796797 0.666846
vt 0.797746 0.661095
vt 0.795044 0.591611
vt 0.661191 0.583516
vt 0.663555 0.610532
vt 0.662859 0.624566
vt 0.656535 0.647944
vt 0.662927 0.659788
vt 0.588363 0.663126
vt 0.721202 0.665748
vt 0.830751 0.653003
vt 0.836203 0.648061
vt 0.866537 0.635086
vt 0.835463 0.619750
vt 0.826392 0.635663
vt 0.876994 0.602790
vt 0.636089 0.665307
vt 0.415172 0.045304
vt 0.406712 0.072921
vt 0.363402 0.066853
vt 0.347615 0.056696
vt 0.417240 0.063449
vt 0.438097 0.052234
vt 0.462267 0.033104
vt 0.992355 0.535519
vt 0.948733 0.522468
vt 0.870420 0.496974
vt 0.782997 0.490982
vt 0.705541 0.488508
vt 0.616916 0.487504
vt 0.506401 0.483157
vt 0.431314 0.530493
vt 0.362360 0.587794
vt 0.356317 0.636016
vt 0.356353 0.647226
vt 0.376057 0.680450
vt 0.403541 0.710887
vt 0.468776 0.735853
vt 0.929340 0.542062
vt 0.981822 0.565216
vt 0.420031 0.046773
vt 0.547710 0.987574
vt 0.556789 0.995448
vt 0.568499 0.987912
vt 0.133488 0.338832
vt 0.133707 0.339711
vt 0.136009 0.338121
vt 0.779530 0.922498
vt 0.809939 0.921826
vt 0.136386 0.338931
vt 0.135801 0.338985
vt 0.140323 0.034374
vt 0.998157 0.859494
vt 0.944003 0.843932
vt 0.945171 0.846375
vt 0.930576 0.850179
vt 0.910073 0.850833
vt 0.226376 0.050396
vt 0.216048 0.065690
vt 0.217114 0.080673
vt 0.222523 0.083005
vt 0.213972 0.081167
vt 0.212782 0.066994
vt 0.135649 0.338218
vt 0.567173 0.837917
vt 0.408171 0.871879
vt 0.644098 0.856373
vt 0.709953 0.858889
vt 0.165529 0.788347
vt 0.134699 0.337447
vt 0.134861 0.337818
vt 0.773013 0.994962
vt 0.788550 0.993469
vt 0.801429 0.993882
vt 0.644547 0.920186
vt 0.625907 0.927107
vt 0.522106 0.886224
vt 0.564817 0.873664
vt 0.604205 0.893391
vt 0.622850 0.901549
vt 0.644331 0.889480
vt 0.671667 0.897226
vt 0.676075 0.897815
vt 0.775709 0.892434
vt 0.740490 0.906782
vt 0.769098 0.840420
vt 0.805480 0.851392
vt 0.830181 0.838826
vt 0.181843 0.117923
vt 0.180589 0.138175
vt 0.186617 0.146428
vt 0.194324 0.163160
vt 0.204122 0.177671
vt 0.206659 0.180298
vt 0.230558 0.238603
vt 0.246612 0.250645
vt 0.195363 0.092976
vt 0.193331 0.084415
vt 0.193921 0.074523
vt 0.195163 0.092136
vt 0.193528 0.085246
vt 0.215501 0.086025
vt 0.212310 0.082718
vt 0.134601 0.338225
vt 0.134346 0.337727
vt 0.045419 0.635781
vt 0.344971 0.292518
vt 0.167784 0.059519
vt 0.128434 0.059705
vt 0.140529 0.337541
vt 0.139327 0.336266
vt 0.139206 0.335715
vt 0.306518 0.707756
vt 0.288919 0.768765
vt 0.333714 0.725442
vt 0.290563 0.789819
vt 0.329226 0.740358
vt 0.289074 0.812741
vt 0.285661 0.764473
vt 0.290566 0.792920
vt 0.301367 0.802291
vt 0.316346 0.792955
vt 0.330956 0.751989
vt 0.329128 0.812111
vt 0.326992 0.767519
vt 0.338382 0.776996
vt 0.323169 0.765964
vt 0.312824 0.761792
vt 0.277333 0.752200
vt 0.271456 0.752739
vt 0.264840 0.746987
vt 0.262250 0.747216
vt 0.270766 0.755184
vt 0.278373 0.753733
vt 0.265126 0.775182
vt 0.259080 0.796615
vt 0.195889 0.818050
vt 0.325028 0.760766
vt 0.314904 0.751621
vt 0.293192 0.751613
vt 0.322597 0.753415
vt 0.314943 0.767326
vt 0.297032 0.738976
vt 0.303437 0.776216
vt 0.301416 0.774896
vt 0.312994 0.774372
vt 0.309522 0.786924
vt 0.300210 0.788003
vt 0.298138 0.794207
vt 0.295286 0.792555
vt 0.302460 0.796709
vt 0.294774 0.778741
vt 0.289552 0.776878
vt 0.289685 0.778579
vt 0.363288 0.800481
vt 0.377555 0.819576
vt 0.349452 0.835658
vt 0.363642 0.843941
vt 0.369857 0.783782
vt 0.393462 0.804043
vt 0.421741 0.821375
vt 0.551510 0.630900
vt 0.551651 0.639112
vt 0.896959 0.716697
vt 0.871277 0.686138
vt 0.536254 0.765900
vt 0.546517 0.784858
vt 0.544033 0.844746
vt 0.542844 0.880125
vt 0.558047 0.976361
vt 0.582104 0.882322
vt 0.590851 0.844379
vt 0.590657 0.779612
vt 0.607036 0.764363
vt 0.548896 0.975427
vt 0.569247 0.976021
vt 0.627534 0.788266
vt 0.630212 0.853877
vt 0.632334 0.896221
vt 0.634851 0.923786
vt 0.655471 0.923117
vt 0.656130 0.892823
vt 0.660046 0.857795
vt 0.663274 0.787872
vt 0.530126 0.928809
vt 0.545930 0.928715
vt 0.561396 0.925563
vt 0.575359 0.931476
vt 0.591043 0.936983
vt 0.415802 0.843479
vt 0.445768 0.858873
vt 0.464822 0.860453
vt 0.484980 0.844388
vt 0.968336 0.823931
vt 0.969304 0.827760
vt 0.971201 0.851748
vt 0.980741 0.817841
vt 0.953291 0.822199
vt 0.923291 0.850411
vt 0.930742 0.851250
vt 0.941593 0.859611
vt 0.667424 0.927967
vt 0.672781 0.897375
vt 0.687428 0.859294
vt 0.704557 0.904593
vt 0.695836 0.882981
vt 0.688637 0.888997
vt 0.683851 0.900101
vt 0.712054 0.878911
vt 0.692833 0.885491
vt 0.393942 0.863396
vt 0.399691 0.834058
vt 0.407570 0.812690
vt 0.474124 0.853040
vt 0.473376 0.806118
vt 0.130997 0.338838
vt 0.130898 0.339521
vt 0.130421 0.339489
vt 0.130882 0.338783
vt 0.125127 0.336903
vt 0.126067 0.336176
vt 0.126717 0.336655
vt 0.125444 0.337535
vt 0.127425 0.337327
vt 0.127547 0.337788
vt 0.127322 0.337711
vt 0.127335 0.337499
vt 0.139096 0.336368
vt 0.137905 0.336891
vt 0.137956 0.336880
vt 0.138036 0.337411
vt 0.132297 0.339679
vt 0.131732 0.338525
vt 0.131888 0.338531
vt 0.131769 0.339700
vt 0.131216 0.339722
vt 0.131111 0.338768
vt 0.129685 0.339386
vt 0.129986 0.338055
vt 0.130268 0.337959
vt 0.129004 0.339317
vt 0.129248 0.338039
vt 0.129488 0.338113
vt 0.129573 0.337781
vt 0.129901 0.337753
vt 0.128858 0.337842
vt 0.128953 0.337878
vt 0.129026 0.337643
vt 0.129125 0.337654
vt 0.138828 0.338508
vt 0.138038 0.338777
vt 0.137393 0.337612
vt 0.137570 0.337512
vt 0.137784 0.337363
vt 0.138107 0.336786
vt 0.134944 0.337517
vt 0.125716 0.338075
vt 0.126633 0.337018
vt 0.126783 0.337151
vt 0.126908 0.337337
vt 0.126961 0.337684
vt 0.126521 0.338569
vt 0.133981 0.338663
vt 0.133631 0.338080
vt 0.133607 0.337857
vt 0.134257 0.338601
vt 0.136837 0.338889
vt 0.136873 0.337756
vt 0.137169 0.337648
vt 0.136342 0.337300
vt 0.136095 0.337554
vt 0.125106 0.336069
vt 0.125530 0.335625
vt 0.125228 0.334557
vt 0.132046 0.338539
vt 0.130652 0.338226
vt 0.132236 0.338290
vt 0.132977 0.338278
vt 0.132772 0.337913
vt 0.132467 0.337963
vt 0.134281 0.337173
vt 0.134428 0.337228
vt 0.135411 0.339071
vt 0.135177 0.337563
vt 0.135075 0.339146
vt 0.130330 0.337431
vt 0.130513 0.337839
vt 0.136533 0.337912
vt 0.126395 0.336878
vn -0.000010 1.000000 -0.000002
vn -0.000004 1.000000 0.000001
vn 0.151929 0.981496 -0.116551
vn 0.412170 0.903792 -0.115220
vn -0.000005 1.000000 0.000005
vn -0.000002 1.000000 0.000002
vn 0.231305 0.959296 0.162014
vn 0.251013 0.718939 0.648166
vn 0.347877 0.869451 0.350766
vn -0.335666 0.937942 0.087144
vn -0.362211 0.929158 0.073946
vn -0.458284 0.885456 0.077100
vn -0.553457 0.828704 0.083278
vn 0.599844 0.596720 0.533022
vn 0.709345 0.655034 0.260310
vn 0.235930 0.942860 0.235268
vn 0.280315 0.959753 -0.017237
vn -0.007024 0.853834 -0.520498
vn 0.049813 0.855069 -0.516117
vn 0.000461 0.914008 -0.405696
vn 0.087574 0.904551 -0.417274
vn -0.309187 0.897265 -0.315150
vn -0.127109 0.880214 -0.457238
vn -0.216336 0.910660 -0.351990
vn -0.076163 0.933057 -0.351573
vn -0.295432 0.344573 0.891061
vn -0.183477 0.317162 0.930454
vn 0.481779 0.269394 0.833856
vn 0.532506 0.466432 0.706313
vn 0.452355 0.416221 0.788755
vn 0.586672 0.433103 0.684279
vn 0.461266 0.545141 0.700039
vn -0.444967 0.767923 0.460759
vn -0.315522 0.891920 0.323921
vn -0.393839 0.900661 0.183576
vn -0.487211 0.868523 0.091069
vn -0.268705 0.941002 -0.205700
vn -0.473180 0.871354 -0.129778
vn -0.029956 0.874435 -0.484217
vn -0.009604 0.924234 -0.381706
vn 0.408906 0.860572 -0.303665
vn 0.196886 0.943394 -0.266916
vn 0.174424 0.850100 -0.496898
vn 0.145281 0.905556 -0.398574
vn 0.007829 0.997034 -0.076564
vn 0.447386 0.884044 -0.135322
vn 0.096825 0.986350 -0.133184
vn 0.429892 0.884334 -0.182062
vn 0.407606 0.902214 -0.140949
vn 0.385004 0.921218 -0.055942
vn 0.100781 0.976050 0.192793
vn -0.862108 0.506566 0.012654
vn -0.306934 0.752490 0.582710
vn -0.365336 0.626258 0.688716
vn -0.633082 0.757747 0.158197
vn -0.830600 0.556779 -0.010054
vn -0.554275 0.831768 -0.030682
vn 0.544954 0.732603 0.407822
vn 0.221384 0.900295 0.374777
vn 0.230733 0.830590 0.506835
vn -0.303880 0.354322 0.884371
vn -0.617914 0.548304 0.563511
vn -0.334616 0.592979 0.732399
vn -0.271779 0.688121 0.672774
vn -0.225950 0.896274 0.381628
vn -0.251982 0.960110 -0.121214
vn -0.216329 -0.058753 0.974551
vn -0.016180 0.058219 0.998173
vn 0.008149 0.071230 0.997427
vn 0.065260 0.401871 0.913368
vn 0.133531 0.144676 0.980428
vn 0.265686 0.276245 0.923634
vn -0.031798 0.185348 0.982158
vn -0.017116 0.260180 0.965408
vn -0.024584 0.419079 0.907617
vn 0.019761 0.418014 0.908226
vn -0.356797 0.309278 0.881501
vn -0.394751 0.503627 0.768460
vn -0.551800 0.359922 0.752312
vn -0.447934 0.705857 0.548745
vn -0.262537 0.851097 0.454652
vn -0.130072 0.910626 0.392225
vn -0.045938 0.989429 0.137551
vn -0.287817 0.902233 0.321151
vn -0.218465 0.895292 0.388233
vn 0.081964 0.638743 0.765042
vn -0.454138 0.708780 0.539806
vn -0.584496 0.584213 0.563081
vn -0.062687 0.632774 0.771795
vn -0.146211 0.722083 0.676179
vn -0.096193 0.508939 0.855411
vn -0.292734 0.404314 0.866509
vn -0.609978 0.463363 0.642823
vn -0.335913 0.568722 0.750811
vn -0.189334 0.407171 0.893513
vn -0.081393 0.449000 0.889817
vn -0.377566 0.783098 0.494168
vn -0.412191 0.489782 0.768253
vn -0.271622 0.530945 0.802695
vn -0.224276 0.262200 0.938590
vn -0.543402 0.292364 0.786917
vn -0.417335 0.215365 0.882865
vn -0.753331 0.374860 0.540345
vn -0.375196 0.438824 0.816493
vn -0.226613 0.169749 0.959079
vn -0.195516 0.324130 0.925588
vn -0.455330 0.195816 0.868522
vn -0.333812 0.420578 0.843614
vn -0.459756 0.579580 0.672838
vn -0.125181 0.574538 0.808848
vn -0.119367 0.332090 0.935665
vn -0.094381 0.820614 0.563635
vn 0.139762 0.620928 0.771307
vn -0.551039 0.834319 -0.016398
vn -0.517634 0.855258 0.024282
vn -0.264357 0.720972 0.640558
vn -0.499876 0.228312 0.835463
vn -0.148889 0.888314 0.434432
vn -0.332910 0.884624 0.326514
vn -0.637353 0.770314 0.019920
vn -0.403456 0.912439 -0.068401
vn -0.186773 0.982054 0.026205
vn -0.407973 0.903656 0.130244
vn -0.570044 0.819112 -0.064068
vn -0.218926 0.972770 -0.076099
vn -0.624738 0.709893 -0.325199
vn -0.707295 0.700482 -0.095183
vn -0.237889 0.919833 -0.311955
vn -0.471209 0.826661 -0.307562
vn -0.632113 0.763700 -0.131130
vn -0.290343 0.858601 -0.422499
vn -0.156096 0.827856 -0.538785
vn -0.037723 0.840882 -0.539903
vn -0.009191 0.830427 -0.557052
vn 0.027819 0.817894 -0.574696
vn 0.469526 0.809630 -0.352201
vn 0.219625 0.801728 -0.555876
vn 0.582114 0.797464 -0.158727
vn 0.626024 0.767026 -0.140590
vn 0.507411 0.857164 -0.088341
vn 0.266533 0.943440 0.197182
vn 0.401993 0.914993 0.034499
vn 0.118076 0.825947 0.551244
vn 0.408387 0.756954 0.510138
vn 0.122516 0.830013 0.544121
vn 0.021250 0.949056 0.314391
vn -0.025642 0.898784 0.437641
vn -0.017433 0.948757 0.315527
vn -0.025704 0.866516 0.498486
vn -0.048543 0.913890 0.403049
vn -0.043875 0.832618 0.552107
vn -0.082771 0.858244 0.506524
vn -0.249290 0.853881 0.456882
vn 0.037554 0.389618 0.920210
vn -0.098657 0.422238 0.901100
vn -0.159690 0.279742 0.946701
vn -0.132511 0.335409 0.932707
vn -0.025619 0.287766 0.957358
vn -0.501822 0.283031 0.817354
vn 0.091999 0.313826 0.945013
vn -0.111952 0.313291 0.943035
vn 0.141550 0.154472 0.977805
vn 0.616717 0.089673 0.782061
vn 0.938142 0.172824 0.300034
vn 0.457163 0.880737 0.123714
vn -0.522229 0.603950 0.602097
vn 0.566080 0.274897 0.777165
vn 0.559901 0.619982 0.549666
vn 0.078619 0.566685 0.820175
vn 0.473165 0.880911 0.010568
vn 0.342094 0.816501 0.465078
vn 0.249764 0.961685 -0.113048
vn 0.230169 0.904666 -0.358610
vn 0.148743 0.921550 -0.358638
vn 0.145358 0.927556 -0.344255
vn 0.087312 0.938493 -0.334078
vn 0.001812 0.942846 -0.333223
vn -0.123080 0.938264 -0.323284
vn 0.001443 0.941674 -0.336522
vn -0.227999 0.927038 -0.297687
vn 0.594699 0.708484 0.379978
vn 0.857268 0.504421 0.103202
vn 0.429419 0.171456 0.886681
vn 0.007494 0.414406 0.910061
vn 0.013666 0.170091 0.985334
vn 0.102819 0.240335 0.965229
vn 0.161611 0.247605 0.955287
vn 0.019466 0.122755 0.992246
vn 0.556302 0.417733 0.718350
vn 0.581166 0.463693 0.668756
vn 0.194914 0.280635 0.939815
vn 0.599828 0.524422 0.604308
vn 0.640773 0.077999 0.763758
vn 0.625669 0.397369 0.671294
vn 0.718798 0.416498 0.556650
vn 0.912811 0.404974 -0.052652
vn 0.740948 0.413011 0.529544
vn 0.903106 0.245780 -0.352125
vn 0.058449 0.897481 0.437163
vn 0.046759 0.820732 0.569397
vn 0.180045 0.625904 0.758833
vn 0.084585 0.628456 0.773233
vn -0.161882 0.601302 0.782452
vn 0.167615 0.827336 0.536116
vn 0.397261 0.612571 0.683331
vn 0.446740 0.722352 0.527855
vn 0.228721 0.378346 0.896962
vn 0.351843 0.440775 0.825787
vn 0.422301 0.371878 0.826661
vn -0.427049 0.202426 0.881279
vn 0.396837 0.209137 0.893746
vn -0.451708 0.224365 0.863493
vn 0.568486 0.319305 0.758201
vn -0.533591 0.329614 0.778868
vn -0.309732 0.375203 0.873664
vn 0.080016 0.996308 0.031107
vn 0.587052 0.793186 -0.161944
vn 0.168731 0.831989 -0.528512
vn 0.189596 0.831164 0.522705
vn 0.448833 0.846804 0.285434
vn 0.104978 0.989783 -0.096484
vn -0.045110 0.852551 0.520693
vn 0.004558 0.993851 -0.110631
vn -0.035782 0.869128 0.493292
vn -0.066086 0.822325 -0.565168
vn 0.245441 0.839899 -0.484076
vn 0.578026 0.765228 0.283395
vn 0.296013 0.920729 0.254235
vn 0.596864 0.655885 0.462134
vn 0.569341 0.520193 0.636593
vn 0.467972 0.521725 0.713306
vn 0.573762 0.348937 0.740973
vn -0.361465 0.452388 0.815284
vn -0.304216 0.238498 0.922264
vn -0.199567 0.333426 0.921412
vn -0.347026 0.906531 0.240362
vn -0.275815 0.600254 0.750747
vn -0.101006 0.891625 0.441364
vn -0.371947 0.478374 0.795496
vn -0.322157 0.888576 0.326569
vn -0.316610 0.806135 0.499904
vn -0.508651 0.380210 0.772473
vn -0.085355 0.785486 0.612965
vn -0.031781 0.956519 0.289933
vn 0.026406 0.651501 0.758188
vn 0.032251 0.941397 0.335755
vn -0.013387 0.635967 0.771600
vn 0.191499 0.604539 0.773215
vn 0.007882 0.926341 0.376603
vn -0.042276 0.870773 0.489865
vn -0.062605 0.607826 0.791599
vn 0.028504 0.826973 0.561519
vn -0.006727 0.990667 0.136140
vn -0.075748 0.971071 0.226458
vn -0.030701 0.900525 0.433719
vn -0.078589 0.895274 0.438529
vn -0.063173 0.917514 0.392654
vn -0.098260 0.852717 0.513048
vn 0.189053 0.098414 0.977023
vn 0.424188 0.243054 0.872347
vn 0.200925 0.166444 0.965363
vn 0.329368 0.261686 0.907214
vn 0.464075 0.359387 0.809614
vn 0.362084 0.038248 0.931360
vn 0.481643 0.464995 0.742832
vn -0.132263 0.218542 0.966823
vn 0.606337 0.220874 0.763918
vn 0.570585 0.289716 0.768438
vn 0.041821 0.478607 0.877033
vn -0.143245 0.378470 0.914462
vn 0.091568 0.277709 0.956291
vn 0.731649 0.340988 0.590269
vn 0.659902 0.434279 0.613132
vn 0.434377 0.342389 0.833119
vn 0.657417 0.333755 0.675582
vn 0.487046 0.395254 0.778820
vn 0.574150 0.451491 0.683013
vn 0.363271 0.384683 0.848559
vn 0.106376 0.413726 0.904165
vn 0.126464 0.323908 0.937598
vn 0.569858 0.463559 0.678509
vn -0.123072 0.956815 -0.263359
vn 0.000017 1.000000 0.000010
vn -0.022550 0.959949 -0.279264
vn -0.000000 1.000000 0.000013
vn -0.000748 1.000000 -0.000644
vn 0.000003 1.000000 0.000002
vn 0.000920 0.999998 -0.001555
vn -0.010447 0.958166 -0.286024
vn -0.000001 1.000000 0.000013
vn 0.001208 0.968707 -0.248202
vn 0.000000 1.000000 0.000013
vn 0.343479 0.938776 -0.026854
vn -0.000008 1.000000 0.000008
vn 0.123361 0.864353 0.487519
vn -0.183882 0.478257 0.858754
vn -0.187884 0.374401 0.908033
vn 0.264852 0.629730 0.730269
vn 0.156693 0.405796 0.900431
vn 0.316519 0.137512 0.938566
vn -0.624507 0.281089 0.728684
vn -0.250905 0.326503 0.911286
vn -0.223585 0.325327 0.918788
vn -0.026292 0.242020 0.969915
vn -0.010446 0.056096 0.998371
vn 0.499327 0.044658 0.865262
vn -0.452687 0.141590 0.880356
vn -0.597330 0.200264 0.776590
vn -0.564954 0.175578 0.806225
vn -0.486181 0.179551 0.855213
vn 0.643655 0.150802 0.750311
vn 0.950462 0.151135 0.271627
vn 0.659727 0.192999 0.726300
vn 0.939382 0.210294 0.270810
vn 0.103985 0.411245 0.905574
vn 0.545600 0.288454 0.786838
vn 0.195972 0.452097 0.870174
vn -0.144283 0.294226 0.944782
vn 0.134535 0.177840 0.974820
vn 0.041082 0.090492 0.995049
vn 0.468166 0.321555 0.823057
vn -0.436309 0.335675 0.834840
vn -0.180583 0.155201 0.971238
vn -0.782613 0.230792 0.578146
vn 0.155776 0.156902 0.975252
vn -0.204696 0.204993 0.957119
vn 0.378883 0.431858 0.818503
vn -0.413200 0.268202 0.870249
vn -0.695408 0.228263 0.681399
vn 0.373864 0.398726 0.837402
vn -0.770607 0.154651 0.618262
vn -0.784108 -0.258856 0.564064
vn -0.370687 0.367820 0.852819
vn -0.314775 0.284903 0.905399
vn -0.122851 0.199814 0.972102
vn -0.248763 0.212132 0.945049
vn -0.085422 0.337835 0.937321
vn -0.400139 0.176439 0.899310
vn -0.283075 0.535641 0.795586
vn -0.182687 0.211408 0.960173
vn -0.085370 0.552752 0.828962
vn -0.419592 0.421337 0.804001
vn -0.503105 0.632076 0.589377
vn -0.101974 0.904686 0.413697
vn 0.327064 0.477115 0.815714
vn 0.372223 0.618378 0.692141
vn -0.248145 0.377104 0.892309
vn -0.447792 0.364633 0.816410
vn -0.106039 0.992935 0.053246
vn -0.628300 0.657396 -0.416015
vn -0.659553 0.745929 -0.092629
vn -0.701558 0.675932 0.225683
vn -0.390994 0.753171 0.529015
vn -0.028068 0.999167 0.029636
vn -0.002723 0.914101 -0.405478
vn 0.076157 0.997052 -0.009330
vn 0.244397 0.806577 -0.538240
vn 0.089986 0.829674 0.550948
vn 0.054963 0.795752 0.603124
vn -0.391552 0.850182 -0.351963
vn -0.919720 0.345031 -0.187264
vn -0.458901 0.884602 -0.083000
vn -0.229163 0.969479 0.087152
vn -0.803457 0.527834 0.275407
vn -0.190968 0.893886 0.405585
vn 0.001030 0.788014 0.615656
vn -0.036291 0.952524 0.302293
vn 0.038969 0.706136 0.707003
vn 0.053102 0.868870 0.492183
vn 0.381381 0.893393 0.237482
vn 0.076097 0.959548 0.271067
vn 0.208968 0.957204 -0.200235
vn 0.104763 0.918531 -0.381216
vn -0.053954 0.809671 -0.584399
vn 0.157108 0.840269 -0.518908
vn 0.032688 0.931434 0.362439
vn 0.080739 0.841920 0.533527
vn 0.039237 0.820063 0.570926
vn -0.002656 0.754639 0.656135
vn 0.011219 0.372829 0.927832
vn 0.217407 0.521363 0.825175
vn -0.126402 0.482135 0.866930
vn 0.025484 0.897299 0.440687
vn 0.124031 0.947578 0.294470
vn -0.204376 0.918532 0.338422
vn -0.213553 0.944090 0.251175
vn -0.270184 0.835612 0.478282
vn -0.390433 0.817810 0.422787
vn -0.171692 0.935945 0.307456
vn -0.364097 0.886469 0.285669
vn -0.168977 0.949482 0.264443
vn -0.344052 0.937123 0.058557
vn 0.000028 1.000000 0.000015
vn 0.000013 1.000000 0.000008
vn 0.000048 1.000000 0.000017
vn -0.379073 0.908248 -0.177172
vn -0.024639 0.999383 -0.025036
vn -0.012709 0.827724 0.560992
vn 0.322634 0.797252 -0.510192
vn -0.009058 0.861523 -0.507638
vn 0.046397 0.998923 -0.001004
vn -0.040984 0.820157 0.570669
vn -0.110098 0.834251 0.540282
vn -0.000026 1.000000 -0.000656
vn 0.000159 1.000000 -0.000300
vn 0.113406 0.824509 -0.554368
vn -0.232171 0.795971 -0.559040
vn -0.000003 1.000000 0.000018
vn 0.157697 0.909812 -0.383894
vn 0.034648 0.925920 0.376128
vn -0.025251 0.882575 -0.469494
vn 0.000645 0.999995 -0.003264
vn 0.000009 0.999995 -0.003198
vn 0.082469 0.835668 -0.543007
vn -0.042390 0.998016 -0.046543
vn 0.001969 0.787275 0.616599
vn -0.002819 0.944368 0.328879
vn -0.001290 0.999994 -0.003140
vn 0.000008 1.000000 0.000010
vn 0.395830 0.915137 -0.076434
vn 0.000026 1.000000 0.000012
vn 0.000021 1.000000 0.000002
vn 0.002108 0.999813 0.019205
vn 0.000000 1.000000 0.000014
vn 0.201684 0.979133 0.024933
vn -0.210559 0.839103 -0.501568
vn -0.078740 0.842479 -0.532944
vn -0.164813 0.805046 -0.569858
vn 0.626830 0.769284 0.123638
vn 0.413017 0.910721 -0.001942
vn 0.130223 0.309042 0.942091
vn 0.044022 0.383985 0.922289
vn 0.177893 0.333721 0.925734
vn -0.019631 0.377410 0.925838
vn -0.689332 0.613825 -0.384761
vn -0.305913 0.931604 -0.196297
vn -0.219229 0.939683 -0.262555
vn 0.186464 0.316259 0.930167
vn -0.438324 0.232080 0.868338
vn -0.419217 0.245631 0.874027
vn -0.358531 0.135041 0.923699
vn 0.351804 0.318752 0.880131
vn 0.189175 0.185770 0.964211
vn 0.436399 0.272167 0.857602
vn 0.162363 0.308704 0.937198
vn 0.070784 0.173246 0.982332
vn 0.034049 0.203949 0.978389
vn -0.099951 0.209753 0.972632
vn -0.394349 0.750834 0.529846
vn -0.189461 0.604199 0.773982
vn -0.351234 0.313838 0.882123
vn 0.218933 0.315213 0.923422
vn 0.286364 0.360882 0.887558
vn 0.481411 0.183559 0.857059
vn -0.401176 0.223315 0.888363
vn -0.974452 -0.100624 -0.200794
vn -0.471074 0.878046 -0.084402
vn -0.906195 -0.129527 0.402535
vn -0.445971 0.377646 0.811476
vn 0.607800 0.478408 0.633802
vn -0.457380 0.235140 0.857620
vn 0.450514 0.254428 0.855747
vn -0.076194 0.296774 0.951903
vn -0.432434 0.219845 0.874454
vn 0.622816 0.209352 0.753838
vn 0.034540 0.182440 0.982610
vn 0.440072 0.656847 0.612282
vn 0.250624 0.299192 0.920691
vn -0.353109 0.006865 0.935557
vn -0.072113 0.195470 0.978055
vn -0.043707 0.172888 0.983971
vn 0.478640 0.008254 0.877972
vn -0.745266 0.170033 0.644723
vn -0.476301 0.327421 0.816047
vn -0.358726 0.228159 0.905129
vn 0.476120 0.337856 0.811888
vn 0.160912 0.259639 0.952205
vn -0.181025 0.600043 0.779216
vn -0.437056 0.719794 0.539332
vn -0.520734 0.385177 0.761889
vn -0.362978 0.221379 0.905118
vn -0.129902 -0.036483 0.990856
vn 0.392229 0.729658 0.560138
vn -0.344228 0.569071 0.746770
vn 0.939615 0.341511 -0.022233
vn 0.809921 0.394918 0.433668
vn -0.398320 0.198404 0.895531
vn -0.340176 0.595187 0.728034
vn 0.180498 0.329025 0.926911
vn 0.810302 0.126163 0.572271
vn 0.009479 0.364777 0.931047
vn 0.732185 0.224734 0.642962
vn 0.023234 0.741606 0.670434
vn 0.369666 0.286776 0.883802
vn 0.985311 -0.155716 0.070100
vn 0.980168 0.058062 0.189470
vn 0.375809 0.751913 0.541659
vn 0.622432 0.770913 0.135176
vn -0.769482 0.471814 0.430451
vn 0.888861 0.371075 -0.268755
vn 0.302561 0.698788 0.648192
vn 0.854184 0.488007 -0.179494
vn 0.892643 0.364955 0.264569
vn 0.540652 0.372123 0.754467
vn 0.772349 0.603325 -0.198686
vn 0.878119 0.477943 0.021865
vn 0.774415 0.385706 0.501510
vn 0.769601 0.636856 -0.046136
vn 0.527559 0.314239 0.789263
vn -0.225489 0.752309 0.619020
vn 0.119012 0.730965 0.671957
vn 0.353613 0.317636 0.879810
vn 0.975107 -0.206469 0.080848
vn -0.272910 0.337126 0.901036
vn 0.875033 0.476350 -0.086065
vn 0.964174 0.198914 -0.175504
vn 0.863131 0.175417 0.473534
vn 0.905651 -0.417887 0.071888
vn 0.681483 0.261691 0.683447
vn 0.102329 0.979076 0.175895
vn 0.421667 0.894677 0.147482
vn -0.168728 0.673231 0.719924
vn 0.612053 0.407770 0.677580
vn 0.427991 0.401393 0.809758
vn 0.444638 0.225513 0.866857
vn -0.081268 0.244933 0.966128
vn 0.675248 0.306649 0.670825
vn 0.591451 0.297132 0.749599
vn 0.542017 0.275791 0.793824
vn 0.146659 0.261255 0.954064
vn -0.114296 0.515635 0.849151
vn 0.024228 0.249351 0.968110
vn 0.015055 0.351050 0.936236
vn 0.019199 0.318492 0.947731
vn 0.016342 0.298914 0.954140
vn 0.080383 0.584728 0.807237
vn 0.106696 0.194126 0.975157
vn 0.158066 0.196386 0.967702
vn 0.051457 0.169850 0.984126
vn -0.801265 0.248860 0.544098
vn 0.409498 0.286887 0.866030
f 321/333/1 318/330/2 107/117/3
f 107/117/3 318/330/2 14/17/4
f 320/332/5 292/304/6 13/16/7
f 12/15/8 183/194/9 292/304/6
f 13/16/7 292/304/6 183/194/9
f 267/279/10 85/94/11 3/5/12
f 3/5/12 266/278/13 267/279/10
f 113/123/14 439/453/15 95/105/16
f 95/105/16 439/453/15 150/161/17
f 90/100/18 281/293/19 123/133/20
f 123/133/20 281/293/19 282/294/21
f 88/98/22 89/99/23 125/136/24
f 125/136/24 89/99/23 124/134/25
f 39/44/26 213/224/27 38/43/28
f 131/3/29 372/6/30 128/22/31
f 128/22/31 372/6/30 26/9/32
f 21/25/33 264/276/34 78/86/35
f 78/86/35 264/276/34 265/277/36
f 125/135/24 84/92/37 88/97/22
f 88/97/22 84/92/37 82/90/38
f 301/313/39 302/314/40 89/99/23
f 89/99/23 302/314/40 124/134/25
f 108/118/41 121/131/42 91/101/43
f 91/101/43 121/131/42 122/132/44
f 120/130/45 92/102/46 119/129/47
f 119/129/47 92/102/46 93/103/48
f 94/104/49 178/189/50 93/103/48
f 93/103/48 178/189/50 119/129/47
f 118/128/51 119/129/47 178/189/50
f 232/243/52 522/536/53 53/59/54
f 387/401/55 382/396/56 383/397/57
f 385/399/58 386/400/59 384/398/60
f 71/31/61 229/32/62 31/33/63
f 2/34/64 431/35/65 32/36/66
f 532/546/67 139/150/68 407/421/69
f 43/48/70 398/49/71 20/79/72
f 396/211/73 397/383/74 44/115/75
f 44/115/75 397/383/74 200/384/76
f 207/218/77 204/215/78 205/216/79
f 205/216/79 204/215/78 50/55/80
f 204/215/78 208/219/81 50/55/80
f 50/55/80 208/219/81 98/108/82
f 208/219/81 268/280/83 98/108/82
f 271/283/84 21/25/33 230/241/85
f 54/60/86 230/241/85 51/57/87
f 51/57/87 230/241/85 21/25/33
f 55/61/88 382/396/56 21/24/33
f 384/398/60 386/400/59 383/397/57
f 383/397/57 386/400/59 387/401/55
f 428/388/89 29/389/90 61/385/91
f 61/385/91 29/389/90 57/402/92
f 157/408/93 435/409/94 47/443/95
f 47/443/95 435/409/94 436/442/96
f 81/89/97 64/71/98 223/234/99
f 223/234/99 64/71/98 222/233/100
f 219/230/101 413/427/102 66/73/103
f 66/73/103 413/427/102 227/238/104
f 416/430/105 225/236/106 415/429/107
f 415/429/107 225/236/106 69/76/108
f 79/87/109 229/240/62 64/71/98
f 64/71/98 229/240/62 71/78/61
f 2/34/64 72/448/110 420/449/111
f 74/81/112 59/66/113 21/24/33
f 21/24/33 59/66/113 55/61/88
f 78/85/35 74/81/112 21/24/33
f 346/358/114 347/359/115 3/4/12
f 78/86/35 265/277/36 3/5/12
f 3/5/12 265/277/36 266/278/13
f 347/359/115 78/85/35 3/4/12
f 221/232/116 226/237/117 65/72/118
f 420/449/111 431/35/65 2/34/64
f 81/89/97 80/88/119 64/71/98
f 64/71/98 80/88/119 79/87/109
f 85/93/11 345/357/120 3/4/12
f 3/4/12 345/357/120 346/358/114
f 76/83/121 83/91/122 75/82/123
f 83/91/122 80/88/119 75/82/123
f 80/88/119 81/89/97 75/82/123
f 86/95/124 87/96/125 76/83/121
f 76/83/121 87/96/125 83/91/122
f 344/356/126 348/360/127 85/93/11
f 85/93/11 348/360/127 345/357/120
f 84/92/37 87/96/125 82/90/38
f 82/90/38 87/96/125 86/95/124
f 87/96/125 84/92/37 32/37/66
f 32/37/66 84/92/37 22/26/128
f 88/97/22 82/90/38 350/362/129
f 350/362/129 82/90/38 349/361/130
f 350/363/129 351/364/131 88/98/22
f 352/365/132 353/366/133 89/99/23
f 89/99/23 353/366/133 301/313/39
f 354/367/134 355/368/135 90/100/18
f 90/100/18 355/368/135 281/293/19
f 357/370/136 108/118/41 356/369/137
f 356/369/137 108/118/41 91/101/43
f 93/103/48 92/102/46 359/372/138
f 359/372/138 92/102/46 358/371/139
f 94/104/49 93/103/48 360/373/140
f 360/373/140 93/103/48 359/372/138
f 95/105/16 150/161/17 362/375/141
f 362/375/141 150/161/17 361/374/142
f 254/266/143 259/271/144 12/15/8
f 12/15/8 259/271/144 183/194/9
f 255/267/145 289/301/146 253/265/147
f 253/265/147 289/301/146 8/10/148
f 269/281/149 270/282/150 249/261/151
f 249/261/151 270/282/150 18/21/152
f 271/283/84 272/284/153 21/25/33
f 21/25/33 272/284/153 264/276/34
f 368/554/154 370/555/155 367/557/156
f 367/557/156 370/555/155 19/556/157
f 179/190/158 538/552/159 517/531/160
f 517/531/160 104/114/161 179/190/158
f 179/190/158 104/114/161 103/113/162
f 139/150/68 526/540/163 407/421/69
f 407/421/69 526/540/163 527/541/164
f 92/102/46 108/118/41 358/371/139
f 358/371/139 108/118/41 357/370/136
f 120/130/45 121/131/42 92/102/46
f 92/102/46 121/131/42 108/118/41
f 454/468/165 455/469/166 126/137/167
f 118/128/51 116/126/168 165/176/169
f 430/444/170 119/129/47 109/119/171
f 109/119/171 119/129/47 118/128/51
f 110/120/172 120/130/45 430/444/170
f 430/444/170 120/130/45 119/129/47
f 111/121/173 121/131/42 110/120/172
f 110/120/172 121/131/42 120/130/45
f 111/121/173 112/122/174 121/131/42
f 121/131/42 112/122/174 122/132/44
f 122/132/44 112/122/174 24/28/175
f 282/294/21 283/295/176 123/133/20
f 123/133/20 283/295/176 5/7/177
f 23/27/178 124/134/25 303/315/179
f 303/315/179 124/134/25 302/314/40
f 124/134/25 23/27/178 125/136/24
f 125/136/24 23/27/178 1/2/180
f 22/26/128 84/92/37 1/1/180
f 1/1/180 84/92/37 125/135/24
f 437/451/181 453/467/182 126/137/167
f 541/627/183 109/559/171 117/560/184
f 166/177/185 195/206/186 164/175/187
f 164/175/187 195/206/186 167/178/188
f 128/139/31 442/456/189 152/163/190
f 169/562/191 172/563/192 175/565/193
f 175/565/193 172/563/192 168/564/194
f 129/140/195 446/460/196 450/464/197
f 450/464/197 446/460/196 449/463/198
f 182/193/199 96/106/200 180/191/201
f 99/109/202 539/553/203 96/106/200
f 539/553/203 180/191/201 96/106/200
f 130/141/204 185/196/205 186/197/206
f 134/145/207 181/192/208 135/146/209
f 137/148/210 136/147/211 516/530/212
f 516/530/212 136/147/211 515/529/213
f 205/216/79 206/217/214 207/218/77
f 207/218/77 206/217/214 58/65/215
f 239/251/216 337/349/217 247/259/218
f 239/251/216 245/257/219 341/353/220
f 277/289/221 278/290/222 333/345/223
f 333/345/223 278/290/222 332/344/224
f 334/346/225 276/288/226 333/345/223
f 333/345/223 276/288/226 277/289/221
f 177/188/227 178/189/50 115/125/228
f 115/125/228 178/189/50 94/104/49
f 150/161/17 114/124/229 437/451/181
f 360/373/140 361/374/142 94/104/49
f 94/104/49 361/374/142 150/161/17
f 154/165/230 152/163/190 193/204/231
f 193/204/231 152/163/190 448/462/232
f 129/140/195 448/462/232 152/163/190
f 72/448/110 419/566/233 420/449/111
f 61/68/91 433/447/234 60/67/235
f 263/275/236 215/226/237 158/169/238
f 158/169/238 215/226/237 52/58/239
f 262/274/240 263/275/236 260/272/241
f 260/272/241 263/275/236 158/169/238
f 157/168/93 217/228/242 63/70/243
f 158/169/238 52/58/239 98/108/82
f 98/108/82 52/58/239 50/55/80
f 260/272/241 158/169/238 249/261/151
f 249/261/151 158/169/238 98/108/82
f 160/171/244 34/39/245 97/107/246
f 34/39/245 212/223/247 97/107/246
f 212/223/247 33/38/248 97/107/246
f 161/172/249 252/264/250 8/10/148
f 8/10/148 252/264/250 253/265/147
f 35/40/251 197/208/252 162/173/253
f 162/173/253 197/208/252 198/209/254
f 163/174/255 250/262/256 199/210/257
f 199/210/257 250/262/256 251/263/258
f 164/175/187 393/407/259 166/177/185
f 393/407/259 117/127/184 166/177/185
f 165/176/169 166/177/185 117/127/184
f 195/206/186 166/177/185 194/205/260
f 116/126/168 194/205/260 165/176/169
f 194/205/260 166/177/185 165/176/169
f 176/187/261 194/205/260 174/185/262
f 116/126/168 170/181/263 194/205/260
f 194/205/260 170/181/263 174/185/262
f 126/137/167 455/469/166 115/125/228
f 165/176/169 117/127/184 118/128/51
f 118/128/51 117/127/184 109/119/171
f 461/475/264 167/178/188 194/205/260
f 194/205/260 167/178/188 195/206/186
f 175/186/193 176/187/261 169/180/191
f 169/180/191 176/187/261 174/185/262
f 177/188/227 171/182/265 116/126/168
f 116/126/168 171/182/265 170/181/263
f 118/128/51 178/189/50 116/126/168
f 116/126/168 178/189/50 177/188/227
f 100/110/266 179/190/158 103/113/162
f 514/528/267 515/529/213 390/404/268
f 390/404/268 515/529/213 136/147/211
f 180/191/201 184/195/269 130/141/204
f 180/191/201 130/141/204 182/193/199
f 182/193/199 130/141/204 95/105/16
f 130/141/204 186/197/206 95/105/16
f 186/197/206 113/123/14 95/105/16
f 183/194/9 259/271/144 13/16/7
f 535/549/270 536/550/271 390/404/268
f 390/404/268 536/550/271 514/528/267
f 130/141/204 184/195/269 185/196/205
f 481/495/272 203/214/273 153/164/274
f 153/164/274 203/214/273 131/142/29
f 482/496/275 190/201/276 187/198/277
f 187/198/277 190/201/276 132/143/278
f 191/202/279 190/201/276 133/144/280
f 153/164/274 193/204/231 448/462/232
f 453/467/182 454/468/165 126/137/167
f 172/183/192 196/207/281 128/139/31
f 16/19/282 311/323/283 300/312/284
f 300/312/284 311/323/283 312/324/285
f 306/318/286 308/320/287 270/282/150
f 270/282/150 308/320/287 18/21/152
f 290/302/288 8/10/148 289/301/146
f 10/12/289 315/327/290 280/292/291
f 280/292/291 315/327/290 316/328/292
f 14/17/4 318/330/2 9/11/293
f 9/11/293 318/330/2 319/331/294
f 198/209/254 197/208/252 160/171/244
f 160/171/244 197/208/252 34/39/245
f 199/210/257 251/263/258 161/172/249
f 161/172/249 251/263/258 252/264/250
f 43/48/70 200/384/76 398/49/71
f 398/49/71 200/384/76 397/383/74
f 96/106/200 490/504/295 99/109/202
f 490/504/295 491/505/296 99/109/202
f 491/505/296 101/111/297 99/109/202
f 508/522/298 97/107/246 33/38/248
f 461/475/264 194/205/260 175/186/193
f 175/186/193 194/205/260 176/187/261
f 173/184/299 202/213/300 168/179/194
f 481/495/272 482/496/275 203/214/273
f 203/214/273 482/496/275 187/198/277
f 131/142/29 203/214/273 187/198/277
f 206/217/214 205/216/79 381/395/301
f 50/55/80 52/58/239 205/216/79
f 52/58/239 381/395/301 205/216/79
f 412/426/302 214/225/303 411/425/304
f 214/225/303 48/53/305 411/425/304
f 411/425/304 48/53/305 46/51/306
f 503/517/307 504/518/308 404/418/309
f 404/418/309 504/518/308 400/414/310
f 506/520/311 406/420/312 505/519/313
f 505/519/313 406/420/312 140/151/314
f 211/222/315 42/47/316 210/221/317
f 41/46/318 211/222/315 210/221/317
f 37/42/319 38/43/28 533/547/320
f 533/547/320 38/43/28 213/224/27
f 36/41/321 528/542/322 531/545/323
f 531/545/323 528/542/322 534/548/324
f 49/54/325 214/225/303 47/52/95
f 214/225/303 412/426/302 47/52/95
f 412/426/302 58/65/215 47/52/95
f 48/53/305 214/225/303 49/54/325
f 52/58/239 215/226/237 216/227/326
f 216/227/326 215/226/237 53/59/54
f 217/228/242 62/69/327 63/70/243
f 216/227/326 380/394/328 52/58/239
f 380/394/328 523/537/329 52/58/239
f 523/537/329 381/395/301 52/58/239
f 53/59/54 379/393/330 216/227/326
f 216/227/326 379/393/330 380/394/328
f 219/230/101 220/231/331 218/229/332
f 68/75/333 223/234/99 224/235/334
f 417/567/335 418/568/336 70/569/337
f 224/235/334 223/234/99 222/233/100
f 416/430/105 417/431/335 225/236/106
f 225/236/106 417/431/335 70/77/337
f 221/232/116 68/75/333 226/237/117
f 413/427/102 414/428/338 227/238/104
f 227/238/104 414/428/338 67/74/339
f 71/78/61 228/239/340 64/71/98
f 74/81/112 221/232/116 385/399/58
f 385/399/58 221/232/116 65/72/118
f 223/234/99 68/75/333 81/89/97
f 81/89/97 68/75/333 221/232/116
f 81/89/97 221/232/116 75/82/123
f 75/82/123 221/232/116 74/81/112
f 53/59/54 230/241/85 231/242/341
f 231/242/341 230/241/85 54/60/86
f 231/242/341 233/244/342 53/59/54
f 53/59/54 233/244/342 232/243/52
f 522/536/53 232/243/52 519/533/343
f 519/533/343 232/243/52 518/532/344
f 54/60/86 236/248/345 231/242/341
f 231/242/341 236/248/345 233/244/342
f 521/535/346 54/60/86 235/247/347
f 235/247/347 54/60/86 51/57/87
f 51/56/87 237/249/348 235/246/347
f 238/250/349 240/252/350 241/253/351
f 238/250/349 242/254/352 243/255/353
f 324/336/354 325/337/355 297/309/356
f 297/309/356 325/337/355 296/308/357
f 297/309/356 298/310/358 324/336/354
f 324/336/354 298/310/358 323/335/359
f 241/253/351 242/254/352 238/250/349
f 240/252/350 149/160/360 487/501/361
f 487/501/361 149/160/360 144/155/362
f 148/159/363 486/500/364 144/155/362
f 144/155/362 486/500/364 487/501/361
f 243/255/353 486/500/364 147/158/365
f 147/158/365 486/500/364 148/159/363
f 332/344/224 278/290/222 331/343/366
f 331/343/366 278/290/222 279/291/367
f 323/335/359 298/310/358 322/334/368
f 322/334/368 298/310/358 299/311/369
f 341/353/220 245/257/219 340/352/370
f 340/352/370 245/257/219 146/157/371
f 337/349/217 145/156/372 247/259/218
f 295/307/373 296/308/357 326/338/374
f 326/338/374 296/308/357 325/337/355
f 334/346/225 275/287/375 276/288/226
f 268/280/83 269/281/149 98/108/82
f 98/108/82 269/281/149 249/261/151
f 251/263/258 250/262/256 198/209/254
f 198/209/254 250/262/256 162/173/253
f 252/264/250 251/263/258 160/171/244
f 160/171/244 251/263/258 198/209/254
f 252/264/250 160/171/244 253/265/147
f 253/265/147 160/171/244 97/107/246
f 97/107/246 258/270/376 253/265/147
f 253/265/147 258/270/376 255/267/145
f 256/268/377 201/212/378 257/269/379
f 257/269/379 490/504/295 254/266/143
f 254/266/143 490/504/295 96/106/200
f 40/45/380 497/511/381 501/515/382
f 501/515/382 497/511/381 498/512/383
f 255/267/145 258/270/376 256/268/377
f 256/268/377 258/270/376 498/512/383
f 96/106/200 182/193/199 254/266/143
f 254/266/143 182/193/199 363/376/384
f 362/375/141 363/376/384 95/105/16
f 95/105/16 363/376/384 182/193/199
f 159/170/385 260/272/241 18/21/152
f 18/21/152 260/272/241 249/261/151
f 156/167/386 261/273/387 488/502/388
f 488/502/388 261/273/387 262/274/240
f 263/275/236 262/274/240 155/166/389
f 155/166/389 262/274/240 261/273/387
f 155/166/389 53/59/54 263/275/236
f 263/275/236 53/59/54 215/226/237
f 264/276/34 272/284/153 17/20/390
f 17/20/390 272/284/153 273/285/391
f 264/276/34 17/20/390 265/277/36
f 265/277/36 17/20/390 77/84/392
f 267/279/10 77/84/392 310/322/393
f 310/322/393 77/84/392 309/321/394
f 85/94/11 314/326/395 11/14/396
f 11/14/396 314/326/395 313/325/397
f 267/279/10 266/278/13 77/84/392
f 77/84/392 266/278/13 265/277/36
f 268/280/83 208/219/81 162/173/253
f 162/173/253 208/219/81 35/40/251
f 269/281/149 268/280/83 250/262/256
f 250/262/256 268/280/83 162/173/253
f 270/282/150 269/281/149 163/174/255
f 163/174/255 269/281/149 250/262/256
f 271/283/84 230/241/85 155/166/389
f 155/166/389 230/241/85 53/59/54
f 272/284/153 271/283/84 261/273/387
f 261/273/387 271/283/84 155/166/389
f 272/284/153 261/273/387 273/285/391
f 273/285/391 261/273/387 156/167/386
f 294/306/398 257/269/379 12/15/8
f 12/15/8 257/269/379 254/266/143
f 276/288/226 275/287/375 343/355/399
f 343/355/399 275/287/375 284/296/400
f 276/288/226 343/355/399 277/289/221
f 277/289/221 343/355/399 286/298/401
f 287/299/402 278/290/222 286/298/401
f 286/298/401 278/290/222 277/289/221
f 279/291/367 278/290/222 288/300/403
f 288/300/403 278/290/222 287/299/402
f 355/368/135 356/369/137 281/293/19
f 281/293/19 356/369/137 91/101/43
f 281/293/19 91/101/43 282/294/21
f 282/294/21 91/101/43 122/132/44
f 282/294/21 122/132/44 283/295/176
f 283/295/176 122/132/44 24/28/175
f 284/296/400 291/303/404 293/305/405
f 285/297/406 284/296/400 335/347/407
f 335/347/407 284/296/400 149/160/360
f 285/297/406 335/347/407 286/298/401
f 286/298/401 335/347/407 238/250/349
f 243/255/353 287/299/402 238/250/349
f 238/250/349 287/299/402 286/298/401
f 288/300/403 287/299/402 147/158/365
f 147/158/365 287/299/402 243/255/353
f 316/328/292 317/329/408 280/292/291
f 280/292/291 317/329/408 15/18/409
f 289/301/146 255/267/145 274/286/410
f 274/286/410 255/267/145 256/268/377
f 275/287/375 290/302/288 284/296/400
f 291/303/404 290/302/288 274/286/410
f 293/305/405 294/306/398 292/304/6
f 292/304/6 294/306/398 12/15/8
f 294/306/398 293/305/405 274/286/410
f 274/286/410 256/268/377 294/306/398
f 294/306/398 256/268/377 257/269/379
f 284/296/400 293/305/405 149/160/360
f 149/160/360 293/305/405 292/304/6
f 275/287/375 141/152/411 290/302/288
f 290/302/288 305/317/412 8/10/148
f 274/286/410 290/302/288 289/301/146
f 274/286/410 293/305/405 291/303/404
f 284/296/400 290/302/288 291/303/404
f 304/316/413 199/210/257 161/172/249
f 141/152/411 336/348/414 295/307/373
f 295/307/373 336/348/414 296/308/357
f 296/308/357 336/348/414 297/309/356
f 297/309/356 336/348/414 6/8/415
f 6/8/415 244/256/416 297/309/356
f 297/309/356 244/256/416 298/310/358
f 298/310/358 244/256/416 299/311/369
f 299/311/369 244/256/416 143/154/417
f 300/312/284 312/324/285 10/12/289
f 10/12/289 312/324/285 315/327/290
f 301/313/39 353/366/133 90/100/18
f 90/100/18 353/366/133 354/367/134
f 302/314/40 301/313/39 123/133/20
f 123/133/20 301/313/39 90/100/18
f 303/315/179 302/314/40 5/7/177
f 5/7/177 302/314/40 123/133/20
f 304/316/413 161/172/249 305/317/412
f 305/317/412 161/172/249 8/10/148
f 290/302/288 141/152/411 305/317/412
f 141/152/411 304/316/413 305/317/412
f 295/307/373 307/319/418 304/316/413
f 295/307/373 304/316/413 141/152/411
f 163/174/255 306/318/286 270/282/150
f 326/338/374 306/318/286 295/307/373
f 306/318/286 163/174/255 307/319/418
f 307/319/418 163/174/255 199/210/257
f 304/316/413 307/319/418 199/210/257
f 295/307/373 306/318/286 307/319/418
f 145/156/372 308/320/287 306/318/286
f 156/167/386 489/503/419 273/285/391
f 273/285/391 489/503/419 309/321/394
f 145/156/372 309/321/394 489/503/419
f 338/350/420 309/321/394 145/156/372
f 309/321/394 77/84/392 273/285/391
f 273/285/391 77/84/392 17/20/390
f 340/352/370 342/354/421 339/351/422
f 339/351/422 342/354/421 310/322/393
f 329/341/423 311/323/283 146/157/371
f 314/326/395 311/323/283 313/325/397
f 88/98/22 351/364/131 89/99/23
f 89/99/23 351/364/131 352/365/132
f 313/325/397 311/323/283 16/19/282
f 314/326/395 85/94/11 310/322/393
f 310/322/393 85/94/11 267/279/10
f 310/322/393 342/354/421 314/326/395
f 315/327/290 312/324/285 143/154/417
f 143/154/417 312/324/285 299/311/369
f 330/342/424 315/327/290 143/154/417
f 317/329/408 316/328/292 147/158/365
f 147/158/365 316/328/292 288/300/403
f 148/159/363 318/330/2 321/333/1
f 318/330/2 148/159/363 319/331/294
f 319/331/294 148/159/363 144/155/362
f 149/160/360 292/304/6 320/332/5
f 13/16/7 151/162/425 320/332/5
f 320/332/5 151/162/425 319/331/294
f 319/331/294 151/162/425 9/11/293
f 149/160/360 320/332/5 144/155/362
f 144/155/362 320/332/5 319/331/294
f 321/333/1 107/117/3 317/329/408
f 317/329/408 107/117/3 15/18/409
f 148/159/363 321/333/1 147/158/365
f 147/158/365 321/333/1 317/329/408
f 316/328/292 279/291/367 288/300/403
f 323/335/359 322/334/368 245/257/219
f 245/257/219 322/334/368 146/157/371
f 323/335/359 245/257/219 324/336/354
f 324/336/354 245/257/219 239/251/216
f 239/251/216 247/259/218 328/340/426
f 328/340/426 247/259/218 327/339/427
f 327/339/427 247/259/218 145/156/372
f 145/156/372 306/318/286 327/339/427
f 327/339/427 306/318/286 326/338/374
f 325/337/355 328/340/426 326/338/374
f 326/338/374 328/340/426 327/339/427
f 239/251/216 328/340/426 324/336/354
f 324/336/354 328/340/426 325/337/355
f 312/324/285 329/341/423 299/311/369
f 312/324/285 311/323/283 329/341/423
f 322/334/368 329/341/423 146/157/371
f 299/311/369 329/341/423 322/334/368
f 279/291/367 330/342/424 331/343/366
f 316/328/292 330/342/424 279/291/367
f 316/328/292 315/327/290 330/342/424
f 331/343/366 330/342/424 143/154/417
f 332/344/224 331/343/366 244/256/416
f 244/256/416 331/343/366 143/154/417
f 333/345/223 332/344/224 6/8/415
f 6/8/415 332/344/224 244/256/416
f 248/260/428 334/346/225 6/8/415
f 6/8/415 334/346/225 333/345/223
f 275/287/375 334/346/225 141/152/411
f 141/152/411 334/346/225 248/260/428
f 335/347/407 149/160/360 240/252/350
f 238/250/349 335/347/407 240/252/350
f 248/260/428 336/348/414 141/152/411
f 6/8/415 336/348/414 248/260/428
f 246/258/429 337/349/217 239/251/216
f 337/349/217 338/350/420 145/156/372
f 142/153/430 338/350/420 246/258/429
f 246/258/429 338/350/420 337/349/217
f 339/351/422 338/350/420 142/153/430
f 142/153/430 340/352/370 339/351/422
f 341/353/220 340/352/370 246/258/429
f 246/258/429 340/352/370 142/153/430
f 239/251/216 341/353/220 246/258/429
f 340/352/370 146/157/371 342/354/421
f 342/354/421 146/157/371 311/323/283
f 314/326/395 342/354/421 311/323/283
f 309/321/394 338/350/420 310/322/393
f 310/322/393 338/350/420 339/351/422
f 343/355/399 284/296/400 285/297/406
f 286/298/401 343/355/399 285/297/406
f 7/570/431 396/211/73 44/115/75
f 105/574/432 369/575/433 434/573/434
f 210/572/317 434/573/434 41/571/318
f 41/571/318 434/573/434 369/575/433
f 11/13/396 344/356/126 85/93/11
f 82/90/38 86/95/124 349/361/130
f 349/361/130 86/95/124 348/360/127
f 86/95/124 345/357/120 348/360/127
f 345/357/120 86/95/124 346/358/114
f 346/358/114 86/95/124 76/83/121
f 75/82/123 347/359/115 76/83/121
f 76/83/121 347/359/115 346/358/114
f 74/81/112 78/85/35 75/82/123
f 75/82/123 78/85/35 347/359/115
f 366/379/435 348/360/127 344/356/126
f 350/362/129 349/361/130 11/13/396
f 11/14/396 365/378/436 350/363/129
f 352/365/132 351/364/131 16/19/282
f 16/19/282 351/364/131 364/377/437
f 353/366/133 352/365/132 300/312/284
f 300/312/284 352/365/132 16/19/282
f 354/367/134 353/366/133 10/12/289
f 10/12/289 353/366/133 300/312/284
f 355/368/135 354/367/134 280/292/291
f 280/292/291 354/367/134 10/12/289
f 356/369/137 355/368/135 15/18/409
f 15/18/409 355/368/135 280/292/291
f 107/117/3 357/370/136 15/18/409
f 15/18/409 357/370/136 356/369/137
f 358/371/139 357/370/136 14/17/4
f 14/17/4 357/370/136 107/117/3
f 359/372/138 358/371/139 9/11/293
f 9/11/293 358/371/139 14/17/4
f 360/373/140 359/372/138 9/11/293
f 361/374/142 360/373/140 151/162/425
f 151/162/425 360/373/140 9/11/293
f 362/375/141 361/374/142 13/16/7
f 13/16/7 361/374/142 151/162/425
f 13/16/7 259/271/144 362/375/141
f 362/375/141 259/271/144 363/376/384
f 254/266/143 363/376/384 259/271/144
f 11/14/396 313/325/397 365/378/436
f 365/378/436 313/325/397 364/377/437
f 16/19/282 364/377/437 313/325/397
f 365/378/436 364/377/437 350/363/129
f 350/363/129 364/377/437 351/364/131
f 11/13/396 366/379/435 344/356/126
f 349/361/130 366/379/435 11/13/396
f 349/361/130 348/360/127 366/379/435
f 25/576/438 100/577/266 19/556/157
f 103/578/162 367/557/156 100/577/266
f 19/556/157 100/577/266 367/557/156
f 510/524/439 499/513/440 509/523/441
f 509/523/441 499/513/440 367/380/156
f 369/382/433 500/514/442 513/527/443
f 513/527/443 500/514/442 512/526/444
f 370/555/155 368/554/154 105/574/432
f 105/574/432 368/554/154 369/575/433
f 371/579/445 134/580/207 25/576/438
f 134/580/207 135/581/209 25/576/438
f 25/576/438 135/581/209 100/577/266
f 131/3/29 187/584/277 372/6/30
f 187/584/277 132/585/278 372/6/30
f 372/6/30 132/585/278 371/579/445
f 134/580/207 371/579/445 132/585/278
f 410/424/446 408/422/447 37/42/319
f 37/42/319 408/422/447 409/423/448
f 410/424/446 411/425/304 408/422/447
f 408/422/447 411/425/304 46/51/306
f 375/589/449 67/590/339 376/588/450
f 67/590/339 69/591/108 376/588/450
f 69/591/108 225/592/106 376/588/450
f 70/569/337 376/588/450 225/592/106
f 376/588/450 70/569/337 31/33/63
f 31/33/63 70/569/337 71/31/61
f 520/534/451 234/245/452 378/392/453
f 525/539/454 234/245/452 62/69/327
f 524/538/455 525/539/454 217/228/242
f 217/228/242 525/539/454 62/69/327
f 157/168/93 381/395/301 217/228/242
f 381/395/301 523/537/329 217/228/242
f 523/537/329 524/538/455 217/228/242
f 206/217/214 381/395/301 157/168/93
f 21/24/33 382/396/56 51/56/87
f 383/397/57 382/396/56 55/61/88
f 59/66/113 384/398/60 55/61/88
f 55/61/88 384/398/60 383/397/57
f 385/399/58 384/398/60 59/66/113
f 74/81/112 385/399/58 59/66/113
f 65/72/118 421/435/456 426/440/457
f 426/440/457 421/435/456 424/438/458
f 387/401/55 386/400/59 423/437/459
f 423/437/459 386/400/59 422/436/460
f 237/249/348 51/56/87 423/437/459
f 423/437/459 51/56/87 387/401/55
f 51/56/87 382/396/56 387/401/55
f 63/594/243 435/409/94 157/408/93
f 491/505/296 492/506/461 101/111/297
f 101/111/297 492/506/461 104/114/161
f 497/511/381 40/45/380 496/510/462
f 496/510/462 40/45/380 106/116/463
f 390/404/268 136/147/211 181/192/208
f 181/192/208 136/147/211 135/146/209
f 181/192/208 535/549/270 390/404/268
f 501/515/382 502/516/464 40/45/380
f 40/45/380 502/516/464 106/116/463
f 508/522/298 33/38/248 507/521/465
f 507/521/465 33/38/248 36/41/321
f 392/406/466 528/542/322 212/223/247
f 212/223/247 528/542/322 33/38/248
f 37/42/319 392/406/466 34/39/245
f 34/39/245 392/406/466 212/223/247
f 395/600/467 394/595/468 173/599/299
f 393/596/259 164/597/187 394/595/468
f 164/597/187 167/598/188 394/595/468
f 394/595/468 167/598/188 173/599/299
f 128/22/31 26/9/32 172/563/192
f 26/9/32 395/600/467 172/563/192
f 172/563/192 395/600/467 168/564/194
f 395/600/467 173/599/299 168/564/194
f 39/44/26 139/150/68 138/149/469
f 396/410/73 45/50/470 397/411/74
f 397/411/74 45/50/470 373/386/471
f 398/412/71 397/411/74 374/387/472
f 374/387/472 397/411/74 373/386/471
f 398/49/71 374/602/472 48/601/305
f 48/601/305 374/602/472 46/603/306
f 436/442/96 49/604/325 47/443/95
f 20/79/72 398/49/71 49/604/325
f 49/604/325 398/49/71 48/601/305
f 138/149/469 529/543/473 39/44/26
f 39/44/26 529/543/473 213/224/27
f 100/110/266 137/148/210 179/190/158
f 505/519/313 140/151/314 211/222/315
f 211/222/315 140/151/314 42/47/316
f 504/518/308 211/222/315 400/414/310
f 400/414/310 211/222/315 41/46/318
f 492/506/461 493/507/474 104/114/161
f 104/114/161 493/507/474 401/415/475
f 496/510/462 106/116/463 495/509/476
f 495/509/476 106/116/463 403/417/477
f 404/418/309 403/417/477 106/116/463
f 502/516/464 503/517/307 106/116/463
f 106/116/463 503/517/307 404/418/309
f 507/521/465 36/41/321 506/520/311
f 506/520/311 36/41/321 406/420/312
f 407/421/69 527/541/164 36/41/321
f 532/546/67 407/421/69 531/545/323
f 531/545/323 407/421/69 36/41/321
f 408/422/447 46/51/306 373/386/471
f 373/386/471 46/51/306 374/387/472
f 408/422/447 373/386/471 409/423/448
f 409/423/448 373/386/471 45/50/470
f 197/208/252 410/424/446 34/39/245
f 34/39/245 410/424/446 37/42/319
f 411/425/304 410/424/446 35/40/251
f 35/40/251 410/424/446 197/208/252
f 208/219/81 412/426/302 35/40/251
f 35/40/251 412/426/302 411/425/304
f 58/65/215 412/426/302 207/218/77
f 208/219/81 204/215/78 412/426/302
f 204/215/78 207/218/77 412/426/302
f 413/427/102 219/230/101 226/237/117
f 219/230/101 218/229/332 226/237/117
f 218/229/332 421/435/456 226/237/117
f 65/72/118 226/237/117 421/435/456
f 414/428/338 413/427/102 68/75/333
f 68/75/333 413/427/102 226/237/117
f 415/429/107 414/428/338 68/75/333
f 416/430/105 415/429/107 224/235/334
f 224/235/334 415/429/107 68/75/333
f 417/431/335 416/430/105 222/233/100
f 222/233/100 416/430/105 224/235/334
f 64/71/98 418/432/336 222/233/100
f 222/233/100 418/432/336 417/431/335
f 228/239/340 418/432/336 64/71/98
f 229/240/62 79/87/109 419/433/233
f 420/434/111 419/433/233 73/80/478
f 80/88/119 73/80/478 79/87/109
f 419/433/233 79/87/109 73/80/478
f 72/448/110 31/33/63 419/566/233
f 419/566/233 31/33/63 229/32/62
f 375/589/449 30/605/479 67/590/339
f 67/590/339 30/605/479 227/607/104
f 30/605/479 66/606/103 227/607/104
f 65/72/118 386/400/59 385/399/58
f 421/435/456 218/229/332 424/438/458
f 423/437/459 422/436/460 56/62/480
f 423/437/459 56/62/480 237/249/348
f 237/249/348 56/62/480 432/446/481
f 56/62/480 60/67/235 432/446/481
f 220/231/331 56/62/480 425/439/482
f 425/439/482 56/62/480 422/436/460
f 425/439/482 427/441/483 424/438/458
f 424/438/458 427/441/483 426/440/457
f 424/438/458 218/229/332 425/439/482
f 425/439/482 218/229/332 220/231/331
f 540/626/484 66/606/103 30/605/479
f 65/72/118 426/440/457 386/400/59
f 386/400/59 426/440/457 427/441/483
f 386/400/59 427/441/483 422/436/460
f 422/436/460 427/441/483 425/439/482
f 30/605/479 428/388/89 540/626/484
f 540/626/484 428/388/89 61/385/91
f 393/596/259 541/627/183 117/560/184
f 4/610/485 430/611/170 27/558/486
f 27/558/486 430/611/170 109/559/171
f 4/610/485 110/612/172 430/611/170
f 431/445/65 73/80/478 83/91/122
f 83/91/122 73/80/478 80/88/119
f 32/37/66 431/445/65 87/96/125
f 87/96/125 431/445/65 83/91/122
f 69/76/108 67/74/339 415/429/107
f 415/429/107 67/74/339 414/428/338
f 235/246/347 237/249/348 432/446/481
f 377/390/487 433/447/234 57/63/92
f 57/63/92 433/447/234 61/68/91
f 235/246/347 432/446/481 377/390/487
f 377/390/487 432/446/481 433/447/234
f 60/67/235 433/447/234 432/446/481
f 434/573/434 210/572/317 7/570/431
f 7/570/431 210/572/317 42/613/316
f 367/557/156 103/578/162 509/614/441
f 369/382/433 513/527/443 41/46/318
f 41/46/318 513/527/443 400/414/310
f 139/150/68 42/47/316 526/540/163
f 45/616/470 396/211/73 139/615/68
f 139/615/68 396/211/73 7/570/431
f 37/42/319 409/423/448 38/43/28
f 38/43/28 409/423/448 45/50/470
f 38/617/28 45/616/470 39/618/26
f 39/618/26 45/616/470 139/615/68
f 157/408/93 47/443/95 206/620/214
f 206/620/214 47/443/95 58/619/215
f 234/245/452 63/70/243 62/69/327
f 29/389/90 388/621/488 57/402/92
f 57/402/92 388/621/488 435/409/94
f 435/409/94 388/621/488 436/442/96
f 436/442/96 388/621/488 28/623/489
f 20/79/72 49/604/325 28/623/489
f 28/623/489 49/604/325 436/442/96
f 220/231/331 219/230/101 56/62/480
f 56/62/480 219/230/101 66/73/103
f 463/477/490 467/481/491 114/124/229
f 114/124/229 467/481/491 437/451/181
f 476/490/492 477/491/493 438/452/494
f 465/479/495 463/477/490 441/455/496
f 114/124/229 439/453/15 463/477/490
f 439/453/15 441/455/496 463/477/490
f 150/161/17 439/453/15 114/124/229
f 437/451/181 115/125/228 150/161/17
f 150/161/17 115/125/228 94/104/49
f 442/456/189 444/458/497 445/459/498
f 446/460/196 129/140/195 445/459/498
f 129/140/195 152/163/190 445/459/498
f 152/163/190 442/456/189 445/459/498
f 437/451/181 467/481/491 443/457/499
f 477/491/493 443/457/499 438/452/494
f 474/488/500 444/458/497 440/454/501
f 446/460/196 445/459/498 127/138/502
f 439/453/15 447/461/503 441/455/496
f 441/455/496 447/461/503 465/479/495
f 465/479/495 447/461/503 449/463/198
f 113/123/14 447/461/503 439/453/15
f 448/462/232 129/140/195 192/203/504
f 192/203/504 129/140/195 450/464/197
f 153/164/274 448/462/232 192/203/504
f 449/463/198 447/461/503 450/464/197
f 450/464/197 447/461/503 113/123/14
f 192/203/504 450/464/197 113/123/14
f 451/465/505 449/463/198 466/480/506
f 452/466/507 451/465/505 466/480/506
f 131/142/29 193/204/231 153/164/274
f 437/451/181 443/457/499 458/472/508
f 128/139/31 196/207/281 442/456/189
f 442/456/189 196/207/281 460/474/509
f 174/185/262 460/474/509 169/180/191
f 460/474/509 196/207/281 169/180/191
f 169/180/191 196/207/281 172/183/192
f 115/125/228 456/470/510 177/188/227
f 177/188/227 456/470/510 171/182/265
f 115/125/228 455/469/166 456/470/510
f 456/470/510 455/469/166 457/471/511
f 457/471/511 455/469/166 454/468/165
f 457/471/511 454/468/165 458/472/508
f 458/472/508 454/468/165 453/467/182
f 437/451/181 458/472/508 453/467/182
f 437/451/181 126/137/167 115/125/228
f 456/470/510 457/471/511 171/182/265
f 457/471/511 459/473/512 171/182/265
f 459/473/512 170/181/263 171/182/265
f 459/473/512 457/471/511 444/458/497
f 443/457/499 444/458/497 458/472/508
f 444/458/497 457/471/511 458/472/508
f 460/474/509 174/185/262 459/473/512
f 459/473/512 174/185/262 170/181/263
f 442/456/189 460/474/509 444/458/497
f 444/458/497 460/474/509 459/473/512
f 168/179/194 202/213/300 175/186/193
f 175/186/193 202/213/300 461/475/264
f 173/184/299 167/178/188 202/213/300
f 202/213/300 167/178/188 461/475/264
f 462/476/513 449/463/198 451/465/505
f 463/477/490 462/476/513 452/466/507
f 452/466/507 462/476/513 451/465/505
f 464/478/514 463/477/490 438/452/494
f 438/452/494 463/477/490 452/466/507
f 443/457/499 464/478/514 438/452/494
f 465/479/495 449/463/198 462/476/513
f 463/477/490 465/479/495 462/476/513
f 470/484/515 446/460/196 468/482/516
f 469/483/517 470/484/515 468/482/516
f 467/481/491 463/477/490 464/478/514
f 443/457/499 467/481/491 464/478/514
f 468/482/516 446/460/196 471/485/518
f 476/490/492 469/483/517 472/486/519
f 469/483/517 471/485/518 472/486/519
f 471/485/518 127/138/502 472/486/519
f 438/452/494 452/466/507 469/483/517
f 452/466/507 466/480/506 469/483/517
f 466/480/506 470/484/515 469/483/517
f 466/480/506 449/463/198 470/484/515
f 470/484/515 449/463/198 446/460/196
f 471/485/518 446/460/196 127/138/502
f 471/485/518 469/483/517 468/482/516
f 472/486/519 475/489/520 473/487/521
f 475/489/520 444/458/497 473/487/521
f 472/486/519 473/487/521 474/488/500
f 473/487/521 444/458/497 474/488/500
f 127/138/502 475/489/520 472/486/519
f 444/458/497 475/489/520 445/459/498
f 445/459/498 475/489/520 127/138/502
f 438/452/494 469/483/517 476/490/492
f 476/490/492 478/492/522 477/491/493
f 478/492/522 443/457/499 477/491/493
f 476/490/492 472/486/519 478/492/522
f 478/492/522 472/486/519 440/454/501
f 472/486/519 474/488/500 440/454/501
f 443/457/499 478/492/522 444/458/497
f 444/458/497 478/492/522 440/454/501
f 186/197/206 483/497/523 113/123/14
f 113/123/14 483/497/523 192/203/504
f 186/197/206 185/196/205 483/497/523
f 483/497/523 185/196/205 188/199/524
f 133/144/280 480/494/525 484/498/526
f 484/498/526 480/494/525 188/199/524
f 192/203/504 479/493/527 153/164/274
f 153/164/274 479/493/527 481/495/272
f 482/496/275 481/495/272 189/200/528
f 481/495/272 479/493/527 189/200/528
f 479/493/527 480/494/525 189/200/528
f 480/494/525 133/144/280 189/200/528
f 133/144/280 190/201/276 189/200/528
f 190/201/276 482/496/275 189/200/528
f 483/497/523 188/199/524 479/493/527
f 479/493/527 188/199/524 480/494/525
f 192/203/504 483/497/523 479/493/527
f 484/498/526 188/199/524 184/195/269
f 184/195/269 188/199/524 185/196/205
f 180/191/201 485/499/529 537/551/530
f 102/112/531 485/499/529 180/191/201
f 243/255/353 242/254/352 486/500/364
f 486/500/364 242/254/352 487/501/361
f 487/501/361 242/254/352 241/253/351
f 241/253/351 240/252/350 487/501/361
f 262/274/240 260/272/241 488/502/388
f 488/502/388 260/272/241 159/170/385
f 18/21/152 308/320/287 159/170/385
f 308/320/287 488/502/388 159/170/385
f 489/503/419 156/167/386 308/320/287
f 308/320/287 156/167/386 488/502/388
f 145/156/372 489/503/419 308/320/287
f 257/269/379 201/212/378 490/504/295
f 201/212/378 491/505/296 490/504/295
f 492/506/461 491/505/296 389/403/532
f 389/403/532 491/505/296 201/212/378
f 493/507/474 492/506/461 402/416/533
f 402/416/533 492/506/461 389/403/532
f 499/513/440 510/524/439 494/508/534
f 494/508/534 510/524/439 511/525/535
f 512/526/444 500/514/442 511/525/535
f 511/525/535 500/514/442 494/508/534
f 389/403/532 496/510/462 402/416/533
f 402/416/533 496/510/462 495/509/476
f 201/212/378 497/511/381 389/403/532
f 389/403/532 497/511/381 496/510/462
f 498/512/383 497/511/381 201/212/378
f 256/268/377 498/512/383 201/212/378
f 499/513/440 494/508/534 367/380/156
f 367/380/156 494/508/534 368/381/154
f 500/514/442 369/382/433 494/508/534
f 494/508/534 369/382/433 368/381/154
f 501/515/382 498/512/383 209/220/536
f 209/220/536 498/512/383 258/270/376
f 502/516/464 501/515/382 391/405/537
f 391/405/537 501/515/382 209/220/536
f 503/517/307 502/516/464 405/419/538
f 405/419/538 502/516/464 391/405/537
f 504/518/308 503/517/307 399/413/539
f 399/413/539 503/517/307 405/419/538
f 211/222/315 504/518/308 399/413/539
f 399/413/539 505/519/313 211/222/315
f 405/419/538 506/520/311 399/413/539
f 399/413/539 506/520/311 505/519/313
f 391/405/537 507/521/465 405/419/538
f 405/419/538 507/521/465 506/520/311
f 209/220/536 508/522/298 391/405/537
f 391/405/537 508/522/298 507/521/465
f 209/220/536 258/270/376 508/522/298
f 508/522/298 258/270/376 97/107/246
f 509/614/441 103/578/162 401/625/475
f 401/625/475 103/578/162 104/624/161
f 493/507/474 510/524/439 401/415/475
f 401/415/475 510/524/439 509/523/441
f 510/524/439 493/507/474 511/525/535
f 511/525/535 493/507/474 402/416/533
f 402/416/533 495/509/476 511/525/535
f 511/525/535 495/509/476 512/526/444
f 513/527/443 512/526/444 403/417/477
f 403/417/477 512/526/444 495/509/476
f 513/527/443 403/417/477 400/414/310
f 400/414/310 403/417/477 404/418/309
f 537/551/530 485/499/529 536/550/271
f 536/550/271 485/499/529 514/528/267
f 102/112/531 515/529/213 485/499/529
f 485/499/529 515/529/213 514/528/267
f 516/530/212 515/529/213 102/112/531
f 538/552/159 539/553/203 517/531/160
f 517/531/160 539/553/203 99/109/202
f 104/114/161 517/531/160 101/111/297
f 101/111/297 517/531/160 99/109/202
f 236/248/345 518/532/344 233/244/342
f 233/244/342 518/532/344 232/243/52
f 377/391/487 520/534/451 235/247/347
f 235/247/347 520/534/451 521/535/346
f 520/534/451 519/533/343 521/535/346
f 57/64/92 234/245/452 377/391/487
f 377/391/487 234/245/452 520/534/451
f 519/533/343 518/532/344 521/535/346
f 521/535/346 518/532/344 236/248/345
f 54/60/86 521/535/346 236/248/345
f 520/534/451 378/392/453 519/533/343
f 519/533/343 378/392/453 522/536/53
f 53/59/54 522/536/53 379/393/330
f 379/393/330 522/536/53 378/392/453
f 524/538/455 523/537/329 380/394/328
f 380/394/328 379/393/330 524/538/455
f 379/393/330 525/539/454 524/538/455
f 379/393/330 378/392/453 525/539/454
f 525/539/454 378/392/453 234/245/452
f 7/570/431 42/613/316 139/615/68
f 526/540/163 42/47/316 140/151/314
f 526/540/163 140/151/314 527/541/164
f 527/541/164 140/151/314 406/420/312
f 36/41/321 527/541/164 406/420/312
f 530/544/540 533/547/320 529/543/473
f 529/543/473 533/547/320 213/224/27
f 33/38/248 528/542/322 36/41/321
f 531/545/323 534/548/324 138/149/469
f 138/149/469 534/548/324 529/543/473
f 138/149/469 532/546/67 531/545/323
f 138/149/469 139/150/68 532/546/67
f 533/547/320 530/544/540 392/406/466
f 392/406/466 530/544/540 528/542/322
f 392/406/466 37/42/319 533/547/320
f 534/548/324 528/542/322 530/544/540
f 529/543/473 534/548/324 530/544/540
f 535/549/270 181/192/208 191/202/279
f 191/202/279 181/192/208 134/145/207
f 536/550/271 535/549/270 133/144/280
f 133/144/280 535/549/270 191/202/279
f 537/551/530 536/550/271 484/498/526
f 484/498/526 536/550/271 133/144/280
f 180/191/201 537/551/530 184/195/269
f 184/195/269 537/551/530 484/498/526
f 179/190/158 137/148/210 538/552/159
f 538/552/159 137/148/210 516/530/212
f 539/553/203 538/552/159 102/112/531
f 102/112/531 538/552/159 516/530/212
f 102/112/531 180/191/201 539/553/203
f 154/29/230 128/22/31 152/23/190
f 134/580/207 132/585/278 191/587/279
f 191/587/279 132/585/278 190/586/276
f 135/581/209 136/582/211 100/577/266
f 100/577/266 136/582/211 137/583/210
f 57/402/92 435/409/94 234/622/452
f 234/622/452 435/409/94 63/594/243
f 61/385/91 60/609/235 540/626/484
f 540/626/484 60/609/235 56/608/480
f 56/608/480 66/606/103 540/626/484
f 70/569/337 418/568/336 71/31/61
f 71/31/61 418/568/336 228/593/340
f 73/450/478 431/35/65 420/449/111
f 128/22/31 154/29/230 131/3/29
f 131/3/29 154/29/230 193/30/231
f 541/627/183 393/596/259 429/561/541
f 429/561/541 393/596/259 394/595/468
f 109/559/171 541/627/183 27/558/486
f 27/558/486 541/627/183 429/561/541
