# This file uses centimeters as units for non-parametric coordinates.

v 10.231194 6.650243 10.782722
v 9.944237 2.808256 -3.106188
v 1.241764 5.941558 10.840996
v 0.640640 3.379469 -2.538337
v 0.471242 2.451393 -8.508040
v -8.110475 2.462451 -2.979172
v 0.671550 2.462412 3.868540
v 9.913824 2.462241 -0.250511
v -5.235760 2.462477 -8.445263
v -7.560947 2.462477 -6.267613
v -8.212400 2.462462 -0.761173
v -4.658270 2.462326 3.825413
v 6.060957 2.462425 3.473923
v 8.811428 2.462455 -6.002502
v 5.728191 2.462476 -8.201378
v 9.922294 3.905340 -7.858856
v 18.263781 8.504948 9.598760
v 6.314993 5.941558 10.843380
v -5.654530 6.597104 10.766943
v 21.241199 6.462964 1.863513
v 0.380557 3.528540 -11.164615
v 1.742877 3.522587 -11.378210
v 3.864253 3.549867 -11.654174
v -1.819167 3.987046 -11.068558
v 6.008174 3.956239 -10.566913
v 9.588448 4.074695 -9.706284
v 6.805188 3.892573 -10.194714
v 7.892900 3.998595 -9.965832
v 9.241157 4.119783 -9.842945
v 15.033837 6.216974 -8.192471
v 13.158134 5.925947 -8.659118
v 18.106140 5.910432 -6.345602
v 11.297964 4.007596 -7.540878
v 12.302298 4.341240 -6.832609
v 13.370463 4.864836 -4.739872
v 9.286834 2.462413 -4.792011
v 10.329009 3.064254 -6.098532
v 15.975674 6.015971 -6.775607
v 15.790689 5.663311 -6.360342
v 13.787544 4.971203 -7.526506
v 12.310637 5.024568 2.805074
v 16.246988 5.555977 -5.072393
v 14.351289 5.924577 4.973826
v 9.919641 2.462275 -1.495555
v 12.768508 4.985895 -1.352129
v 15.244152 5.966960 -0.653936
v 10.052675 4.253256 4.848591
v 6.137609 3.998229 5.781188
v 0.808188 3.753579 5.785515
v -5.359324 4.101564 5.653414
v -10.533582 4.552193 -0.816440
v -10.899607 4.261245 -3.811683
v -10.988750 4.038091 -4.827723
v -8.795093 3.297036 -8.428450
v -5.564041 3.729822 -10.288016
v 0.407467 3.144078 -9.794586
v 5.954982 3.192886 -9.610378
v -5.580467 4.354085 -11.129780
v -4.292190 4.212593 -11.117099
v -6.800012 2.462471 1.769961
v -8.052501 3.615267 3.214905
v -16.209480 4.665042 -6.284700
v -17.300861 5.095559 1.193922
v -13.309908 7.351803 9.434526
v -10.684109 7.201886 10.746017
v -9.338981 3.700461 -9.122125
v -10.395634 3.476455 -7.018071
v -11.589808 3.991603 -6.106761
v -12.708411 5.082640 -7.245718
v -14.565689 5.538960 -7.476942
v -14.060177 4.791503 -5.508043
v -14.200752 5.106242 -3.810234
v -14.104766 5.647685 0.014110
v -10.615669 5.405040 6.252679
v -5.480034 5.622352 8.214271
v 1.026873 5.021708 8.227418
v 6.216227 4.960184 8.117356
v 10.179493 5.730417 7.949667
v -7.850104 3.656187 -10.129894
v 0.639431 2.462477 -4.112472
v 5.339409 2.462477 -2.339843
v 0.597103 2.462477 -0.901594
v -3.825103 2.462477 -2.399089
v 4.893548 2.462477 -3.859529
v 4.583531 2.462477 -1.088702
v -3.227087 2.462477 -1.153536
v -3.898815 2.462477 -1.728539
v -3.271380 2.462477 -3.629098
v -9.983844 3.435978 -6.459816
v -7.716339 2.462465 -4.510016
v 7.796249 3.291065 -8.758756
v 7.297152 2.462477 -7.097227
v 6.673078 3.169473 -9.394083
v 6.346738 2.462477 -8.010784
v 1.622115 2.985916 -9.749468
v 1.662207 2.448015 -8.454331
v 3.939773 3.057200 -9.705156
v 3.881236 2.456345 -8.346684
v -13.485293 5.374003 -7.108067
v -12.220067 4.364456 -7.037432
v -12.432085 4.473418 -5.173188
v -7.164592 3.976369 -10.702283
v -6.711285 3.385354 -9.939240
v -5.670340 2.462477 -7.970631
v -8.755748 3.599966 -9.506304
v 2.796678 3.429945 -11.030046
v 2.756584 3.190456 -9.828515
v 2.783967 2.448015 -8.486747
v -3.021984 3.141860 -10.188107
v 5.725085 3.862917 -10.931019
v 4.604340 3.303541 -10.585406
v -0.887800 3.533982 -10.735165
v 0.989048 3.416023 -11.057372
v 7.393094 3.680009 -10.023881
v 12.167919 4.888472 -8.677763
v 14.768980 6.414897 -8.321212
v 13.898253 5.711205 -8.261779
v 8.465721 3.771262 -9.278057
v -2.972475 3.379469 -2.562053
v 4.192397 3.350468 -2.498362
v -3.180265 3.166241 -3.254524
v -3.410044 3.323228 -2.469228
v -3.481652 3.166241 -2.031889
v -3.137442 3.166241 -1.598107
v 0.608759 3.166241 -1.301470
v 4.274566 3.137240 -1.560980
v 4.761173 3.137240 -2.326148
v 4.495011 3.137240 -3.345651
v 0.642028 3.166241 -3.704676
v 5.774382 2.931959 -8.536076
v 3.791175 3.083846 -8.783416
v 2.739396 2.800912 -8.875770
v 1.641794 2.808884 -8.804127
v 0.421119 2.651165 -8.821248
v -5.253296 2.815404 -8.575193
v -0.556682 2.606780 -8.704026
v -1.931005 3.088329 -8.621060
v -4.053868 2.919544 -8.584383
v -0.599542 3.051782 -9.824399
v -5.769166 2.673903 -8.049858
v 6.386221 2.771077 -8.323388
v 7.667921 2.972930 -7.366003
v 7.224782 3.210802 -7.919809
v 7.240645 3.229074 -9.065116
v 9.059861 2.637153 -6.266037
v 9.491199 2.746406 -4.948224
v 9.625546 2.753615 -3.552494
v 9.353249 2.462391 -2.910309
v 4.725328 3.151589 -9.667061
v 4.899908 2.966524 -8.748469
v 4.842612 2.462477 -8.246066
v 8.471628 3.357135 -8.384251
v 8.360107 2.814658 -6.834773
v 8.053666 2.462476 -6.528769
v -1.862609 2.459949 -8.351189
v -0.680124 2.462477 -4.110049
v -0.767711 2.882934 -3.728584
v -1.090314 3.379469 -2.549600
v -1.188773 3.166241 -1.442086
v -1.130544 2.462477 -0.753751
v -1.839386 2.462412 3.855895
v -1.994775 3.792272 5.859606
v -2.160449 5.034757 8.240014
v -2.116829 5.944265 10.837586
v -1.501658 2.462477 -4.329896
v -1.526933 3.166241 -3.932528
v -1.697597 3.379469 -2.553598
v -1.725867 3.166241 -1.484777
v -1.691081 2.462477 -1.050774
v -0.536023 2.455755 -8.440629
v -0.497639 2.462477 -6.242924
v -1.673563 2.462477 -6.432183
v -4.213868 2.462477 -5.797687
v -2.944325 2.462478 -6.114783
v -3.865920 2.462477 -8.404620
v 2.500365 2.462477 -4.001525
v 2.271122 3.140456 -3.523228
v 2.349003 3.297312 -2.453670
v 2.518584 3.166241 -1.436435
v 2.576914 2.462477 -0.995243
v 3.213633 2.462419 3.679919
v 3.237536 3.772851 5.783517
v 3.489366 4.992195 8.174621
v 3.670617 5.941558 10.842150
v 1.596127 2.462478 -6.212675
v 0.583591 2.462477 -6.227304
v 4.012722 2.462477 -6.117602
v 2.658135 2.462477 -6.187489
v 5.473592 2.462476 -6.161616
v 6.958781 2.462443 -4.732650
v 7.333807 2.462435 -2.620979
v 5.235651 2.462452 1.031655
v 2.821592 2.462450 1.127641
v 7.747933 2.462347 1.877337
v 7.539282 2.462390 -0.372788
v 0.580865 2.462447 1.322953
v -1.813969 2.462444 1.346276
v -4.157721 2.462459 1.204689
v -5.767263 2.462429 -1.303358
v -5.878642 2.462448 -2.716430
v -5.065330 2.462463 -4.211551
v -4.938262 2.462444 -0.024934
v 3.629518 2.525130 -1.321074
v 3.607606 3.149720 -1.521055
v 3.469676 3.184056 -2.307807
v 3.224096 3.139578 -3.122351
v 3.318306 2.462477 -3.603312
v 3.849961 2.462477 -3.921466
v 3.675812 3.137240 -3.413828
v 3.688982 2.462463 -0.024021
v -0.542544 2.462458 0.380883
v -0.384386 2.462477 -0.964929
v -0.347606 3.166241 -1.375832
v -0.464080 3.379469 -2.545502
v -0.225643 2.901677 -3.633334
v -2.460597 3.272734 -3.655951
v 1.578190 3.235605 -3.675196
v 4.691888 3.249666 -2.855047
v 5.118900 2.462477 -3.091433
v 6.012980 2.462463 -2.434792
v 5.129800 2.462477 -1.596226
v 4.536536 3.137240 -1.972916
v 6.291927 2.462444 -0.807194
v -1.140376 3.067349 -3.867293
v 10.310241 2.544780 -0.490293
v 11.337482 3.718245 -1.424174
v 11.132736 3.521649 -3.672885
v 10.743200 3.327665 -4.368782
v 11.014943 3.441182 -0.685428
v 10.615827 3.212721 0.644440
v 9.975237 3.254387 2.004766
v 8.560205 3.093526 2.924510
v 6.094717 3.138831 4.490100
v 3.226218 3.152343 4.787434
v 0.747150 3.176796 4.929175
v -1.925953 3.203276 4.972160
v -5.010228 3.354300 4.749092
v -7.477787 3.133354 2.542876
v -9.139363 3.413951 -0.815739
v -9.419252 3.306521 -3.369821
v -9.448528 3.194934 -3.838526
v -8.878984 2.961627 -5.509760
v -8.118254 2.839341 -7.243388
v -5.968390 2.824348 -8.449392
v 7.901574 2.479320 2.075408
v 9.651347 2.502481 0.759994
v 10.342175 2.904136 -0.298266
v -17.306599 4.610989 -3.792617
v 21.258299 5.910426 -5.549901
v -10.779763 3.642163 -6.724930
v -10.084058 3.542508 -7.638495
v -3.569757 2.842993 -1.903175
v -3.507095 2.949216 -2.468596
v 6.807612 2.462477 -7.567782
v 6.168613 2.462461 -5.492906
v -4.123417 3.396615 -10.231396
v -3.767651 3.770427 -10.733465
v -2.431966 3.556449 -10.619994
v -1.962309 3.102456 -10.029006
v -1.333688 3.750884 -10.797256
v -0.254719 3.531266 -10.851998
v -6.039571 4.462154 -11.166612
vt 0.761696 0.027439
vt 0.769136 0.019912
vt 0.762939 0.448283
vt 0.767834 0.453630
vt 0.554506 0.023664
vt 0.536762 0.471691
vt 0.532186 0.606441
vt 0.318373 0.453754
vt 0.545117 0.270646
vt 0.767132 0.370187
vt 0.768196 0.371516
vt 0.382926 0.599352
vt 0.327665 0.537888
vt 0.317105 0.392062
vt 0.401252 0.261528
vt 0.673295 0.281092
vt 0.738330 0.525931
vt 0.669425 0.587755
vt 0.767832 0.575065
vt 0.767604 0.575666
vt 0.899330 0.040363
vt 0.678886 0.023658
vt 0.365997 0.023534
vt 0.977212 0.268350
vt 0.529319 0.689884
vt 0.561522 0.698839
vt 0.619206 0.702192
vt 0.472916 0.691817
vt 0.673380 0.685921
vt 0.767356 0.661130
vt 0.694396 0.674499
vt 0.728677 0.665358
vt 0.758262 0.663665
vt 0.875519 0.639350
vt 0.842032 0.668375
vt 0.919516 0.554869
vt 0.796866 0.559063
vt 0.814914 0.529462
vt 0.836449 0.459335
vt 0.751981 0.498375
vt 0.767807 0.518794
vt 0.767763 0.520633
vt 0.888970 0.605879
vt 0.883750 0.555249
vt 0.848686 0.590696
vt 0.813035 0.261345
vt 0.887416 0.467492
vt 0.850208 0.166154
vt 0.765463 0.409443
vt 0.768091 0.407387
vt 0.825646 0.367983
vt 0.871240 0.336487
vt 0.763967 0.217161
vt 0.768643 0.217025
vt 0.675233 0.200008
vt 0.547998 0.202035
vt 0.385802 0.194186
vt 0.237599 0.368688
vt 0.229758 0.454067
vt 0.228985 0.490235
vt 0.295834 0.600551
vt 0.379759 0.650208
vt 0.530901 0.643842
vt 0.672326 0.639909
vt 0.377529 0.686029
vt 0.409960 0.697937
vt 0.356576 0.322307
vt 0.317518 0.274587
vt 0.072525 0.554090
vt 0.030331 0.290080
vt 0.161726 0.061959
vt 0.253931 0.027224
vt 0.279478 0.632750
vt 0.250891 0.569304
vt 0.211749 0.545010
vt 0.175969 0.629503
vt 0.115247 0.627633
vt 0.131021 0.530217
vt 0.124162 0.454441
vt 0.131385 0.333324
vt 0.237268 0.169459
vt 0.377896 0.118364
vt 0.551451 0.119821
vt 0.677080 0.122700
vt 0.762335 0.125290
vt 0.768907 0.126042
vt 0.321057 0.641929
vt 0.537317 0.502951
vt 0.653023 0.456004
vt 0.539093 0.414081
vt 0.423184 0.453383
vt 0.640854 0.495239
vt 0.636426 0.419336
vt 0.440307 0.420455
vt 0.421939 0.435624
vt 0.436536 0.486013
vt 0.262846 0.546114
vt 0.322777 0.493627
vt 0.719882 0.609493
vt 0.704186 0.565728
vt 0.690771 0.628112
vt 0.685693 0.583531
vt 0.561637 0.642988
vt 0.562302 0.604742
vt 0.619848 0.641369
vt 0.618454 0.601573
vt 0.152587 0.628783
vt 0.190774 0.594541
vt 0.182247 0.509310
vt 0.335011 0.676617
vt 0.349908 0.632546
vt 0.371707 0.586875
vt 0.295219 0.636225
vt 0.590143 0.673546
vt 0.590388 0.642188
vt 0.590677 0.603140
vt 0.443473 0.647525
vt 0.665719 0.688222
vt 0.636311 0.673468
vt 0.498819 0.673424
vt 0.544724 0.688327
vt 0.711333 0.658234
vt 0.819951 0.652717
vt 0.871265 0.643038
vt 0.854308 0.637070
vt 0.741983 0.644185
vt 0.441385 0.480452
vt 0.628158 0.480411
vt 0.438410 0.486258
vt 0.434527 0.475136
vt 0.432240 0.463198
vt 0.439419 0.451056
vt 0.537950 0.434836
vt 0.633961 0.442430
vt 0.645398 0.462755
vt 0.638407 0.489781
vt 0.537101 0.492469
vt 0.671761 0.615293
vt 0.619716 0.637600
vt 0.590483 0.629245
vt 0.561918 0.626816
vt 0.531807 0.617479
vt 0.381770 0.617920
vt 0.506246 0.610847
vt 0.472812 0.628274
vt 0.416328 0.619417
vt 0.505429 0.644915
vt 0.367414 0.595870
vt 0.687092 0.603566
vt 0.713575 0.587859
vt 0.704074 0.609667
vt 0.705495 0.618695
vt 0.745355 0.535321
vt 0.758212 0.504870
vt 0.761626 0.468872
vt 0.756457 0.452205
vt 0.640460 0.640796
vt 0.647098 0.625864
vt 0.642788 0.600199
vt 0.737204 0.598414
vt 0.731031 0.567345
vt 0.721138 0.545969
vt 0.472961 0.603212
vt 0.505088 0.500616
vt 0.501658 0.492170
vt 0.492860 0.471846
vt 0.492134 0.438418
vt 0.496731 0.408718
vt 0.480536 0.272196
vt 0.476364 0.198569
vt 0.469427 0.119132
vt 0.467613 0.026063
vt 0.484262 0.511756
vt 0.484190 0.503628
vt 0.477278 0.471901
vt 0.478224 0.439506
vt 0.480600 0.417855
vt 0.506627 0.605048
vt 0.507750 0.548042
vt 0.478850 0.555852
vt 0.412397 0.537047
vt 0.445608 0.546445
vt 0.422264 0.601039
vt 0.580530 0.501710
vt 0.581259 0.493470
vt 0.581060 0.479026
vt 0.587403 0.444325
vt 0.589294 0.410946
vt 0.606385 0.275639
vt 0.606752 0.201099
vt 0.611715 0.121202
vt 0.614706 0.023661
vt 0.559728 0.550136
vt 0.534101 0.550713
vt 0.620880 0.548131
vt 0.586587 0.548343
vt 0.657882 0.548911
vt 0.694058 0.506511
vt 0.704550 0.452388
vt 0.653560 0.355091
vt 0.596243 0.352654
vt 0.716192 0.319855
vt 0.710368 0.386150
vt 0.541902 0.347191
vt 0.480906 0.345716
vt 0.418154 0.348791
vt 0.372184 0.416348
vt 0.369088 0.453575
vt 0.390103 0.494078
vt 0.395616 0.381912
vt 0.616461 0.427780
vt 0.616407 0.441041
vt 0.610199 0.471431
vt 0.604960 0.482056
vt 0.604214 0.487985
vt 0.617244 0.500137
vt 0.617978 0.491513
vt 0.615889 0.387308
vt 0.512432 0.375168
vt 0.514260 0.415683
vt 0.513721 0.436730
vt 0.508833 0.471789
vt 0.513774 0.489552
vt 0.456142 0.494559
vt 0.558815 0.498490
vt 0.643488 0.479377
vt 0.647702 0.471966
vt 0.671147 0.452506
vt 0.647129 0.429508
vt 0.640118 0.453372
vt 0.679230 0.404073
vt 0.493030 0.497829
vt 0.774942 0.374792
vt 0.796287 0.387479
vt 0.791597 0.452431
vt 0.783747 0.476107
vt 0.788966 0.371691
vt 0.780298 0.340412
vt 0.765512 0.304164
vt 0.768394 0.303186
vt 0.734678 0.283614
vt 0.674149 0.245380
vt 0.606578 0.236395
vt 0.546711 0.232684
vt 0.478212 0.231178
vt 0.392793 0.224660
vt 0.334757 0.295649
vt 0.281461 0.381583
vt 0.276791 0.453901
vt 0.276819 0.470713
vt 0.292048 0.520539
vt 0.313291 0.566185
vt 0.363712 0.603626
vt 0.719688 0.313000
vt 0.760253 0.347723
vt 0.776077 0.367505
vt 0.026849 0.462905
vt 0.968910 0.485687
vt 0.238300 0.561489
vt 0.259321 0.588012
vt 0.427658 0.446228
vt 0.427767 0.458544
vt 0.694661 0.574898
vt 0.674811 0.529069
vt 0.415867 0.648687
vt 0.423800 0.677119
vt 0.457916 0.669251
vt 0.470575 0.646383
vt 0.486418 0.682230
vt 0.514042 0.681640
vt 0.367268 0.709003
vn -0.000010 1.000000 -0.000002
vn -0.000004 1.000000 0.000001
vn 0.151929 0.981496 -0.116551
vn 0.412170 0.903792 -0.115220
vn -0.000005 1.000000 0.000005
vn -0.000002 1.000000 0.000002
vn 0.231305 0.959296 0.162014
vn 0.251013 0.718939 0.648166
vn 0.347877 0.869451 0.350766
vn -0.335666 0.937942 0.087144
vn -0.362211 0.929158 0.073946
vn -0.458284 0.885456 0.077100
vn -0.553457 0.828704 0.083278
vn 0.332827 0.904897 0.265307
vn 0.180894 0.972908 0.143969
vn 0.235930 0.942860 0.235268
vn 0.280315 0.959753 -0.017237
vn -0.007024 0.853834 -0.520498
vn 0.049813 0.855069 -0.516117
vn 0.000461 0.914008 -0.405696
vn 0.087574 0.904551 -0.417274
vn -0.309187 0.897265 -0.315150
vn -0.127109 0.880214 -0.457238
vn -0.216336 0.910660 -0.351990
vn -0.076163 0.933057 -0.351573
vn -0.315495 0.868561 0.382184
vn -0.315522 0.891920 0.323921
vn -0.393839 0.900661 0.183576
vn -0.487211 0.868523 0.091069
vn -0.268705 0.941002 -0.205700
vn -0.473180 0.871354 -0.129778
vn -0.029956 0.874435 -0.484217
vn -0.009604 0.924234 -0.381706
vn 0.408906 0.860572 -0.303665
vn 0.196886 0.943394 -0.266916
vn 0.174424 0.850100 -0.496898
vn 0.145281 0.905556 -0.398574
vn 0.007829 0.997034 -0.076564
vn 0.447386 0.884044 -0.135322
vn 0.096825 0.986350 -0.133184
vn 0.429892 0.884334 -0.182062
vn 0.407606 0.902214 -0.140949
vn 0.385004 0.921218 -0.055942
vn 0.100781 0.976050 0.192793
vn -0.045938 0.989429 0.137551
vn -0.130072 0.910626 0.392226
vn -0.200863 0.944410 0.260277
vn -0.420695 0.902122 0.095871
vn -0.342096 0.831602 0.437502
vn -0.232904 0.923585 0.304542
vn -0.221976 0.920405 0.321842
vn -0.078471 0.899855 0.429073
vn -0.215855 0.874423 0.434501
vn -0.377566 0.783098 0.494168
vn -0.403430 0.658950 0.634845
vn -0.243531 0.589856 0.769911
vn -0.202708 0.328732 0.922412
vn -0.373661 0.865359 0.333963
vn -0.551039 0.834319 -0.016398
vn -0.517634 0.855258 0.024282
vn -0.348347 0.916075 0.198649
vn -0.485035 0.761240 0.430412
vn -0.637353 0.770314 0.019920
vn -0.141405 0.988952 0.044473
vn -0.392256 0.919442 -0.027590
vn -0.426352 0.895585 0.127090
vn -0.570044 0.819112 -0.064068
vn -0.218926 0.972770 -0.076099
vn -0.624738 0.709893 -0.325199
vn -0.707295 0.700482 -0.095183
vn -0.118511 0.983407 -0.137353
vn -0.237889 0.919833 -0.311955
vn -0.471209 0.826661 -0.307562
vn -0.632113 0.763700 -0.131130
vn -0.290343 0.858601 -0.422499
vn -0.156096 0.827856 -0.538785
vn -0.037723 0.840882 -0.539903
vn -0.009191 0.830427 -0.557052
vn 0.027819 0.817894 -0.574696
vn 0.469526 0.809630 -0.352201
vn 0.219625 0.801728 -0.555876
vn 0.582114 0.797464 -0.158727
vn 0.626024 0.767026 -0.140590
vn 0.507411 0.857164 -0.088341
vn 0.266533 0.943440 0.197182
vn 0.401993 0.914993 0.034499
vn 0.118076 0.825947 0.551244
vn 0.408387 0.756954 0.510138
vn 0.122516 0.830013 0.544121
vn 0.021250 0.949056 0.314391
vn -0.025642 0.898784 0.437641
vn -0.017433 0.948757 0.315527
vn -0.025704 0.866516 0.498486
vn -0.048543 0.913890 0.403049
vn -0.043875 0.832618 0.552107
vn -0.082771 0.858244 0.506524
vn -0.249290 0.853881 0.456882
vn 0.475855 0.836953 0.270316
vn 0.207163 0.893002 0.399538
vn -0.172672 0.980634 -0.092423
vn -0.118897 0.991332 0.055889
vn -0.035629 0.992288 -0.118724
vn 0.230169 0.904666 -0.358610
vn 0.148743 0.921550 -0.358638
vn 0.145358 0.927556 -0.344255
vn 0.087312 0.938493 -0.334078
vn 0.001812 0.942846 -0.333223
vn -0.123080 0.938264 -0.323284
vn 0.001443 0.941674 -0.336522
vn -0.227999 0.927038 -0.297687
vn 0.058449 0.897481 0.437163
vn 0.049741 0.810844 0.583144
vn 0.000372 0.783925 0.620855
vn 0.111301 0.799270 0.590576
vn 0.043414 0.778856 0.625699
vn 0.080016 0.996308 0.031107
vn 0.587052 0.793186 -0.161944
vn 0.168731 0.831989 -0.528512
vn 0.189596 0.831164 0.522705
vn 0.448833 0.846804 0.285434
vn 0.104978 0.989783 -0.096484
vn -0.045110 0.852551 0.520693
vn 0.004558 0.993851 -0.110631
vn -0.035782 0.869128 0.493292
vn -0.066086 0.822325 -0.565168
vn 0.245441 0.839899 -0.484076
vn 0.675696 0.736405 0.033804
vn 0.354836 0.926482 -0.125389
vn 0.136206 0.990266 -0.028671
vn 0.294038 0.944197 -0.148434
vn -0.347026 0.906531 0.240362
vn -0.270766 0.842935 0.464916
vn -0.101006 0.891625 0.441364
vn -0.107517 0.755868 0.645836
vn -0.322157 0.888576 0.326569
vn -0.316610 0.806135 0.499904
vn -0.010266 0.949946 0.312246
vn 0.081483 0.956570 0.279882
vn -0.027352 0.958006 0.285441
vn 0.048551 0.935250 0.350642
vn 0.132245 0.955024 0.265405
vn 0.007882 0.926341 0.376603
vn -0.042276 0.870773 0.489865
vn 0.000277 0.969508 0.245059
vn -0.014602 0.971529 0.236469
vn -0.006727 0.990667 0.136140
vn -0.075748 0.971071 0.226458
vn -0.030701 0.900525 0.433719
vn -0.078589 0.895274 0.438529
vn -0.063173 0.917514 0.392654
vn -0.098260 0.852717 0.513048
vn -0.085878 0.923928 0.372802
vn 0.135054 0.913156 0.384587
vn 0.231275 0.934369 0.271046
vn -0.123072 0.956815 -0.263359
vn 0.000017 1.000000 0.000010
vn -0.022550 0.959949 -0.279264
vn -0.000000 1.000000 0.000013
vn -0.000748 1.000000 -0.000644
vn 0.000003 1.000000 0.000002
vn 0.000920 0.999998 -0.001555
vn -0.010447 0.958166 -0.286024
vn -0.000001 1.000000 0.000013
vn 0.001208 0.968707 -0.248202
vn 0.000000 1.000000 0.000013
vn 0.343479 0.938776 -0.026854
vn -0.000008 1.000000 0.000008
vn 0.124687 0.762266 0.635141
vn 0.145705 0.741295 0.655173
vn 0.128149 0.854566 0.503284
vn 0.042044 0.927605 0.371190
vn -0.351093 0.610624 0.709839
vn -0.437047 0.781950 0.444459
vn -0.106039 0.992935 0.053246
vn -0.628300 0.657396 -0.416015
vn -0.659553 0.745929 -0.092629
vn -0.701558 0.675932 0.225683
vn -0.390994 0.753171 0.529015
vn -0.028068 0.999167 0.029636
vn -0.002723 0.914101 -0.405478
vn 0.076157 0.997052 -0.009330
vn 0.244397 0.806577 -0.538240
vn 0.089986 0.829674 0.550948
vn 0.054963 0.795752 0.603124
vn -0.391552 0.850182 -0.351963
vn -0.919720 0.345031 -0.187264
vn -0.458901 0.884602 -0.083000
vn -0.229163 0.969479 0.087152
vn -0.803457 0.527834 0.275407
vn -0.190968 0.893886 0.405585
vn 0.001030 0.788014 0.615656
vn -0.036291 0.952524 0.302293
vn 0.038969 0.706136 0.707003
vn 0.053102 0.868870 0.492183
vn 0.381381 0.893393 0.237482
vn 0.076097 0.959548 0.271067
vn 0.208968 0.957204 -0.200235
vn 0.104763 0.918531 -0.381216
vn -0.053954 0.809671 -0.584399
vn 0.157108 0.840269 -0.518908
vn 0.032688 0.931434 0.362439
vn 0.080739 0.841920 0.533527
vn 0.051349 0.935618 0.349260
vn -0.002656 0.754639 0.656135
vn -0.020850 0.735328 0.677391
vn -0.041783 0.759766 0.648853
vn 0.053296 0.728321 0.683161
vn 0.025484 0.897299 0.440687
vn 0.124031 0.947578 0.294470
vn -0.204376 0.918532 0.338422
vn -0.213553 0.944090 0.251175
vn -0.270184 0.835612 0.478282
vn -0.390433 0.817810 0.422787
vn -0.171692 0.935945 0.307456
vn -0.376988 0.830014 0.411044
vn -0.364097 0.886469 0.285669
vn -0.168977 0.949482 0.264443
vn -0.344052 0.937123 0.058557
vn 0.000028 1.000000 0.000015
vn 0.000013 1.000000 0.000008
vn 0.000048 1.000000 0.000017
vn -0.379073 0.908248 -0.177172
vn -0.024639 0.999383 -0.025036
vn -0.012709 0.827724 0.560992
vn 0.322634 0.797252 -0.510192
vn -0.009058 0.861523 -0.507638
vn 0.046397 0.998923 -0.001004
vn -0.040984 0.820157 0.570669
vn -0.110098 0.834251 0.540282
vn -0.000026 1.000000 -0.000656
vn 0.000159 1.000000 -0.000300
vn 0.113406 0.824509 -0.554368
vn -0.232171 0.795971 -0.559040
vn -0.000003 1.000000 0.000018
vn 0.157697 0.909812 -0.383894
vn 0.034648 0.925920 0.376128
vn -0.025251 0.882575 -0.469494
vn 0.000645 0.999995 -0.003264
vn 0.000009 0.999995 -0.003198
vn 0.082469 0.835668 -0.543007
vn -0.042390 0.998016 -0.046543
vn 0.001969 0.787275 0.616599
vn -0.002819 0.944368 0.328879
vn -0.001290 0.999994 -0.003140
vn 0.000008 1.000000 0.000010
vn 0.395830 0.915137 -0.076434
vn 0.000026 1.000000 0.000012
vn 0.000021 1.000000 0.000002
vn 0.002108 0.999813 0.019205
vn 0.000000 1.000000 0.000014
vn 0.201684 0.979133 0.024933
vn -0.210559 0.839103 -0.501568
vn -0.078740 0.842479 -0.532944
vn -0.164813 0.805046 -0.569858
vn 0.626830 0.769284 0.123638
vn 0.413017 0.910721 -0.001942
vn -0.689332 0.613825 -0.384761
vn -0.305913 0.931604 -0.196297
vn -0.219229 0.939683 -0.262555
vn -0.061263 0.998110 0.004815
vn -0.078276 0.984064 0.159658
vn 0.089357 0.823246 0.560607
f 202/210/1 199/207/2 60/67/3
f 60/67/3 199/207/2 11/14/4
f 201/209/5 173/181/6 10/13/7
f 9/12/8 104/112/9 173/181/6
f 10/13/7 173/181/6 104/112/9
f 148/156/10 44/50/11 2/4/12
f 2/4/12 147/155/13 148/156/10
f 66/73/14 251/260/15 54/61/16
f 54/61/16 251/260/15 89/97/17
f 49/56/18 162/170/19 76/83/20
f 76/83/20 162/170/19 163/171/21
f 47/54/22 48/55/23 78/86/24
f 78/86/24 48/55/23 77/84/25
f 16/20/26 145/153/27 37/42/28
f 37/42/28 145/153/27 146/154/29
f 78/85/24 43/48/30 47/53/22
f 47/53/22 43/48/30 41/46/31
f 182/190/32 183/191/33 48/55/23
f 48/55/23 183/191/33 77/84/25
f 61/68/34 74/81/35 50/57/36
f 50/57/36 74/81/35 75/82/37
f 73/80/38 51/58/39 72/79/40
f 72/79/40 51/58/39 52/59/41
f 53/60/42 101/109/43 52/59/41
f 52/59/41 101/109/43 72/79/40
f 71/78/44 72/79/40 101/109/43
f 149/157/45 57/64/46 111/119/47
f 110/118/48 111/119/47 25/29/49
f 25/29/49 111/119/47 57/64/46
f 16/20/26 26/30/50 152/160/51
f 26/30/50 29/33/52 152/160/51
f 29/33/52 118/126/53 152/160/51
f 40/45/54 30/34/55 117/125/56
f 117/125/56 30/34/55 116/124/57
f 37/41/28 33/37/58 16/19/26
f 227/235/59 228/236/60 2/3/12
f 37/42/28 146/154/29 2/4/12
f 2/4/12 146/154/29 147/155/13
f 228/236/60 37/41/28 2/3/12
f 40/45/54 39/44/61 30/34/55
f 30/34/55 39/44/61 38/43/62
f 44/49/11 226/234/63 2/3/12
f 2/3/12 226/234/63 227/235/59
f 42/47/64 39/44/61 35/39/65
f 35/39/65 39/44/61 34/38/66
f 39/44/61 40/45/54 34/38/66
f 45/51/67 46/52/68 35/39/65
f 35/39/65 46/52/68 42/47/64
f 225/233/69 229/237/70 44/49/11
f 44/49/11 229/237/70 226/234/63
f 43/48/30 46/52/68 41/46/31
f 41/46/31 46/52/68 45/51/67
f 46/52/68 43/48/30 20/24/71
f 20/24/71 43/48/30 17/21/72
f 47/53/22 41/46/31 231/239/73
f 231/239/73 41/46/31 230/238/74
f 231/240/73 232/241/75 47/54/22
f 233/242/76 234/243/77 48/55/23
f 48/55/23 234/243/77 182/190/32
f 235/244/78 236/245/79 49/56/18
f 49/56/18 236/245/79 162/170/19
f 238/247/80 61/68/34 237/246/81
f 237/246/81 61/68/34 50/57/36
f 52/59/41 51/58/39 240/249/82
f 240/249/82 51/58/39 239/248/83
f 53/60/42 52/59/41 241/250/84
f 241/250/84 52/59/41 240/249/82
f 54/61/16 89/97/17 243/252/85
f 243/252/85 89/97/17 242/251/86
f 135/143/87 140/148/88 9/12/8
f 9/12/8 140/148/88 104/112/9
f 136/144/89 170/178/90 134/142/91
f 134/142/91 170/178/90 5/7/92
f 150/158/93 151/159/94 130/138/95
f 130/138/95 151/159/94 15/18/96
f 152/160/51 153/161/97 16/20/26
f 16/20/26 153/161/97 145/153/27
f 51/58/39 61/68/34 239/248/83
f 239/248/83 61/68/34 238/247/80
f 73/80/38 74/81/35 51/58/39
f 51/58/39 74/81/35 61/68/34
f 71/78/44 69/76/98 99/107/99
f 248/257/100 72/79/40 62/69/101
f 62/69/101 72/79/40 71/78/44
f 63/70/102 73/80/38 248/257/100
f 248/257/100 73/80/38 72/79/40
f 64/71/103 74/81/35 63/70/102
f 63/70/102 74/81/35 73/80/38
f 64/71/103 65/72/104 74/81/35
f 74/81/35 65/72/104 75/82/37
f 75/82/37 65/72/104 19/23/105
f 163/171/21 164/172/106 76/83/20
f 76/83/20 164/172/106 3/5/107
f 18/22/108 77/84/25 184/192/109
f 184/192/109 77/84/25 183/191/33
f 77/84/25 18/22/108 78/86/24
f 78/86/24 18/22/108 1/2/110
f 17/21/72 43/48/30 1/1/110
f 1/1/110 43/48/30 78/85/24
f 103/111/111 55/62/112 102/110/113
f 58/65/114 262/271/115 55/62/112
f 262/271/115 102/110/113 55/62/112
f 120/128/116 218/226/117 128/136/118
f 120/128/116 126/134/119 222/230/120
f 158/166/121 159/167/122 214/222/123
f 214/222/123 159/167/122 213/221/124
f 215/223/125 157/165/126 214/222/123
f 214/222/123 157/165/126 158/166/121
f 100/108/127 101/109/43 68/75/128
f 68/75/128 101/109/43 53/60/42
f 89/97/17 67/74/129 250/259/130
f 241/250/84 242/251/86 53/60/42
f 53/60/42 242/251/86 89/97/17
f 144/152/131 114/122/132 93/101/133
f 93/101/133 114/122/132 27/31/134
f 143/151/135 144/152/131 141/149/136
f 141/149/136 144/152/131 93/101/133
f 93/101/133 27/31/134 57/64/46
f 57/64/46 27/31/134 25/29/49
f 141/149/136 93/101/133 130/138/95
f 130/138/95 93/101/133 57/64/46
f 22/26/137 113/121/138 95/103/139
f 95/103/139 113/121/138 56/63/140
f 113/121/138 21/25/141 56/63/140
f 96/104/142 133/141/143 5/7/92
f 5/7/92 133/141/143 134/142/91
f 23/27/144 106/114/145 97/105/146
f 97/105/146 106/114/145 107/115/147
f 98/106/148 131/139/149 108/116/150
f 108/116/150 131/139/149 132/140/151
f 99/107/99 70/77/152 71/78/44
f 71/78/44 70/77/152 62/69/101
f 71/78/44 101/109/43 69/76/98
f 69/76/98 101/109/43 100/108/127
f 102/110/113 79/87/153 103/111/111
f 103/111/111 79/87/153 54/61/16
f 79/87/153 105/113/154 54/61/16
f 105/113/154 66/73/14 54/61/16
f 104/112/9 140/148/88 10/13/7
f 13/16/155 192/200/156 181/189/157
f 181/189/157 192/200/156 193/201/158
f 187/195/159 189/197/160 151/159/94
f 151/159/94 189/197/160 15/18/96
f 171/179/161 5/7/92 170/178/90
f 7/9/162 196/204/163 161/169/164
f 161/169/164 196/204/163 197/205/165
f 11/14/4 199/207/2 6/8/166
f 6/8/166 199/207/2 200/208/167
f 107/115/147 106/114/145 95/103/139
f 95/103/139 106/114/145 22/26/137
f 108/116/150 132/140/151 96/104/142
f 96/104/142 132/140/151 133/141/143
f 58/65/114 55/62/112 59/66/168
f 257/266/169 59/66/168 256/265/170
f 256/265/170 59/66/168 55/62/112
f 261/270/171 56/63/140 21/25/141
f 117/125/56 31/35/172 40/45/54
f 40/45/54 31/35/172 115/123/173
f 40/45/54 115/123/173 34/38/66
f 34/38/66 115/123/173 33/37/58
f 119/127/174 121/129/175 122/130/176
f 119/127/174 123/131/177 124/132/178
f 205/213/179 206/214/180 178/186/181
f 178/186/181 206/214/180 177/185/182
f 178/186/181 179/187/183 205/213/179
f 205/213/179 179/187/183 204/212/184
f 122/130/176 123/131/177 119/127/174
f 121/129/175 88/96/185 253/262/186
f 253/262/186 88/96/185 83/91/187
f 87/95/188 252/261/189 83/91/187
f 83/91/187 252/261/189 253/262/186
f 124/132/178 252/261/189 86/94/190
f 86/94/190 252/261/189 87/95/188
f 213/221/124 159/167/122 212/220/191
f 212/220/191 159/167/122 160/168/192
f 204/212/184 179/187/183 203/211/193
f 203/211/193 179/187/183 180/188/194
f 222/230/120 126/134/119 221/229/195
f 221/229/195 126/134/119 85/93/196
f 218/226/117 84/92/197 128/136/118
f 176/184/198 177/185/182 207/215/199
f 207/215/199 177/185/182 206/214/180
f 215/223/125 156/164/200 157/165/126
f 149/157/45 150/158/93 57/64/46
f 57/64/46 150/158/93 130/138/95
f 132/140/151 131/139/149 107/115/147
f 107/115/147 131/139/149 97/105/146
f 133/141/143 132/140/151 95/103/139
f 95/103/139 132/140/151 107/115/147
f 133/141/143 95/103/139 134/142/91
f 134/142/91 95/103/139 56/63/140
f 56/63/140 139/147/201 134/142/91
f 134/142/91 139/147/201 136/144/89
f 137/145/202 109/117/203 138/146/204
f 138/146/204 256/265/170 135/143/87
f 135/143/87 256/265/170 55/62/112
f 24/28/205 258/267/206 260/269/207
f 260/269/207 258/267/206 259/268/208
f 136/144/89 139/147/201 137/145/202
f 137/145/202 139/147/201 259/268/208
f 55/62/112 103/111/111 135/143/87
f 135/143/87 103/111/111 244/253/209
f 243/252/85 244/253/209 54/61/16
f 54/61/16 244/253/209 103/111/111
f 94/102/210 141/149/136 15/18/96
f 15/18/96 141/149/136 130/138/95
f 92/100/211 142/150/212 254/263/213
f 254/263/213 142/150/212 143/151/135
f 144/152/131 143/151/135 91/99/214
f 91/99/214 143/151/135 142/150/212
f 91/99/214 28/32/215 144/152/131
f 144/152/131 28/32/215 114/122/132
f 145/153/27 153/161/97 14/17/216
f 14/17/216 153/161/97 154/162/217
f 145/153/27 14/17/216 146/154/29
f 146/154/29 14/17/216 36/40/218
f 148/156/10 36/40/218 191/199/219
f 191/199/219 36/40/218 190/198/220
f 44/50/11 195/203/221 8/11/222
f 8/11/222 195/203/221 194/202/223
f 148/156/10 147/155/13 36/40/218
f 36/40/218 147/155/13 146/154/29
f 149/157/45 111/119/47 97/105/146
f 97/105/146 111/119/47 23/27/144
f 150/158/93 149/157/45 131/139/149
f 131/139/149 149/157/45 97/105/146
f 151/159/94 150/158/93 98/106/148
f 98/106/148 150/158/93 131/139/149
f 152/160/51 118/126/53 91/99/214
f 91/99/214 118/126/53 28/32/215
f 153/161/97 152/160/51 142/150/212
f 142/150/212 152/160/51 91/99/214
f 153/161/97 142/150/212 154/162/217
f 154/162/217 142/150/212 92/100/211
f 175/183/224 138/146/204 9/12/8
f 9/12/8 138/146/204 135/143/87
f 157/165/126 156/164/200 224/232/225
f 224/232/225 156/164/200 165/173/226
f 157/165/126 224/232/225 158/166/121
f 158/166/121 224/232/225 167/175/227
f 168/176/228 159/167/122 167/175/227
f 167/175/227 159/167/122 158/166/121
f 160/168/192 159/167/122 169/177/229
f 169/177/229 159/167/122 168/176/228
f 236/245/79 237/246/81 162/170/19
f 162/170/19 237/246/81 50/57/36
f 162/170/19 50/57/36 163/171/21
f 163/171/21 50/57/36 75/82/37
f 163/171/21 75/82/37 164/172/106
f 164/172/106 75/82/37 19/23/105
f 165/173/226 172/180/230 174/182/231
f 166/174/232 165/173/226 216/224/233
f 216/224/233 165/173/226 88/96/185
f 166/174/232 216/224/233 167/175/227
f 167/175/227 216/224/233 119/127/174
f 124/132/178 168/176/228 119/127/174
f 119/127/174 168/176/228 167/175/227
f 169/177/229 168/176/228 86/94/190
f 86/94/190 168/176/228 124/132/178
f 197/205/165 198/206/234 161/169/164
f 161/169/164 198/206/234 12/15/235
f 170/178/90 136/144/89 155/163/236
f 155/163/236 136/144/89 137/145/202
f 156/164/200 171/179/161 165/173/226
f 172/180/230 171/179/161 155/163/236
f 174/182/231 175/183/224 173/181/6
f 173/181/6 175/183/224 9/12/8
f 175/183/224 174/182/231 155/163/236
f 155/163/236 137/145/202 175/183/224
f 175/183/224 137/145/202 138/146/204
f 165/173/226 174/182/231 88/96/185
f 88/96/185 174/182/231 173/181/6
f 156/164/200 80/88/237 171/179/161
f 171/179/161 186/194/238 5/7/92
f 155/163/236 171/179/161 170/178/90
f 155/163/236 174/182/231 172/180/230
f 165/173/226 171/179/161 172/180/230
f 185/193/239 108/116/150 96/104/142
f 80/88/237 217/225/240 176/184/198
f 176/184/198 217/225/240 177/185/182
f 177/185/182 217/225/240 178/186/181
f 178/186/181 217/225/240 4/6/241
f 4/6/241 125/133/242 178/186/181
f 178/186/181 125/133/242 179/187/183
f 179/187/183 125/133/242 180/188/194
f 180/188/194 125/133/242 82/90/243
f 181/189/157 193/201/158 7/9/162
f 7/9/162 193/201/158 196/204/163
f 182/190/32 234/243/77 49/56/18
f 49/56/18 234/243/77 235/244/78
f 183/191/33 182/190/32 76/83/20
f 76/83/20 182/190/32 49/56/18
f 184/192/109 183/191/33 3/5/107
f 3/5/107 183/191/33 76/83/20
f 185/193/239 96/104/142 186/194/238
f 186/194/238 96/104/142 5/7/92
f 171/179/161 80/88/237 186/194/238
f 80/88/237 185/193/239 186/194/238
f 176/184/198 188/196/244 185/193/239
f 176/184/198 185/193/239 80/88/237
f 98/106/148 187/195/159 151/159/94
f 207/215/199 187/195/159 176/184/198
f 187/195/159 98/106/148 188/196/244
f 188/196/244 98/106/148 108/116/150
f 185/193/239 188/196/244 108/116/150
f 176/184/198 187/195/159 188/196/244
f 84/92/197 189/197/160 187/195/159
f 92/100/211 255/264/245 154/162/217
f 154/162/217 255/264/245 190/198/220
f 84/92/197 190/198/220 255/264/245
f 219/227/246 190/198/220 84/92/197
f 190/198/220 36/40/218 154/162/217
f 154/162/217 36/40/218 14/17/216
f 221/229/195 223/231/247 220/228/248
f 220/228/248 223/231/247 191/199/219
f 210/218/249 192/200/156 85/93/196
f 195/203/221 192/200/156 194/202/223
f 47/54/22 232/241/75 48/55/23
f 48/55/23 232/241/75 233/242/76
f 194/202/223 192/200/156 13/16/155
f 195/203/221 44/50/11 191/199/219
f 191/199/219 44/50/11 148/156/10
f 191/199/219 223/231/247 195/203/221
f 196/204/163 193/201/158 82/90/243
f 82/90/243 193/201/158 180/188/194
f 211/219/250 196/204/163 82/90/243
f 198/206/234 197/205/165 86/94/190
f 86/94/190 197/205/165 169/177/229
f 87/95/188 199/207/2 202/210/1
f 199/207/2 87/95/188 200/208/167
f 200/208/167 87/95/188 83/91/187
f 88/96/185 173/181/6 201/209/5
f 10/13/7 90/98/251 201/209/5
f 201/209/5 90/98/251 200/208/167
f 200/208/167 90/98/251 6/8/166
f 88/96/185 201/209/5 83/91/187
f 83/91/187 201/209/5 200/208/167
f 202/210/1 60/67/3 198/206/234
f 198/206/234 60/67/3 12/15/235
f 87/95/188 202/210/1 86/94/190
f 86/94/190 202/210/1 198/206/234
f 197/205/165 160/168/192 169/177/229
f 204/212/184 203/211/193 126/134/119
f 126/134/119 203/211/193 85/93/196
f 204/212/184 126/134/119 205/213/179
f 205/213/179 126/134/119 120/128/116
f 120/128/116 128/136/118 209/217/252
f 209/217/252 128/136/118 208/216/253
f 208/216/253 128/136/118 84/92/197
f 84/92/197 187/195/159 208/216/253
f 208/216/253 187/195/159 207/215/199
f 206/214/180 209/217/252 207/215/199
f 207/215/199 209/217/252 208/216/253
f 120/128/116 209/217/252 205/213/179
f 205/213/179 209/217/252 206/214/180
f 193/201/158 210/218/249 180/188/194
f 193/201/158 192/200/156 210/218/249
f 203/211/193 210/218/249 85/93/196
f 180/188/194 210/218/249 203/211/193
f 160/168/192 211/219/250 212/220/191
f 197/205/165 211/219/250 160/168/192
f 197/205/165 196/204/163 211/219/250
f 212/220/191 211/219/250 82/90/243
f 213/221/124 212/220/191 125/133/242
f 125/133/242 212/220/191 82/90/243
f 214/222/123 213/221/124 4/6/241
f 4/6/241 213/221/124 125/133/242
f 129/137/254 215/223/125 4/6/241
f 4/6/241 215/223/125 214/222/123
f 156/164/200 215/223/125 80/88/237
f 80/88/237 215/223/125 129/137/254
f 216/224/233 88/96/185 121/129/175
f 119/127/174 216/224/233 121/129/175
f 129/137/254 217/225/240 80/88/237
f 4/6/241 217/225/240 129/137/254
f 127/135/255 218/226/117 120/128/116
f 218/226/117 219/227/246 84/92/197
f 81/89/256 219/227/246 127/135/255
f 127/135/255 219/227/246 218/226/117
f 220/228/248 219/227/246 81/89/256
f 81/89/256 221/229/195 220/228/248
f 222/230/120 221/229/195 127/135/255
f 127/135/255 221/229/195 81/89/256
f 120/128/116 222/230/120 127/135/255
f 221/229/195 85/93/196 223/231/247
f 223/231/247 85/93/196 192/200/156
f 195/203/221 223/231/247 192/200/156
f 190/198/220 219/227/246 191/199/219
f 191/199/219 219/227/246 220/228/248
f 224/232/225 165/173/226 166/174/232
f 167/175/227 224/232/225 166/174/232
f 8/10/222 225/233/69 44/49/11
f 41/46/31 45/51/67 230/238/74
f 230/238/74 45/51/67 229/237/70
f 45/51/67 226/234/63 229/237/70
f 226/234/63 45/51/67 227/235/59
f 227/235/59 45/51/67 35/39/65
f 34/38/66 228/236/60 35/39/65
f 35/39/65 228/236/60 227/235/59
f 33/37/58 37/41/28 34/38/66
f 34/38/66 37/41/28 228/236/60
f 247/256/257 229/237/70 225/233/69
f 231/239/73 230/238/74 8/10/222
f 8/11/222 246/255/258 231/240/73
f 233/242/76 232/241/75 13/16/155
f 13/16/155 232/241/75 245/254/259
f 234/243/77 233/242/76 181/189/157
f 181/189/157 233/242/76 13/16/155
f 235/244/78 234/243/77 7/9/162
f 7/9/162 234/243/77 181/189/157
f 236/245/79 235/244/78 161/169/164
f 161/169/164 235/244/78 7/9/162
f 237/246/81 236/245/79 12/15/235
f 12/15/235 236/245/79 161/169/164
f 60/67/3 238/247/80 12/15/235
f 12/15/235 238/247/80 237/246/81
f 239/248/83 238/247/80 11/14/4
f 11/14/4 238/247/80 60/67/3
f 240/249/82 239/248/83 6/8/166
f 6/8/166 239/248/83 11/14/4
f 241/250/84 240/249/82 6/8/166
f 242/251/86 241/250/84 90/98/251
f 90/98/251 241/250/84 6/8/166
f 243/252/85 242/251/86 10/13/7
f 10/13/7 242/251/86 90/98/251
f 10/13/7 140/148/88 243/252/85
f 243/252/85 140/148/88 244/253/209
f 135/143/87 244/253/209 140/148/88
f 8/11/222 194/202/223 246/255/258
f 246/255/258 194/202/223 245/254/259
f 13/16/155 245/254/259 194/202/223
f 246/255/258 245/254/259 231/240/73
f 231/240/73 245/254/259 232/241/75
f 8/10/222 247/256/257 225/233/69
f 230/238/74 247/256/257 8/10/222
f 230/238/74 229/237/70 247/256/257
f 249/258/260 32/36/261 42/47/64
f 42/47/64 32/36/261 39/44/61
f 20/24/71 249/258/260 46/52/68
f 46/52/68 249/258/260 42/47/64
f 89/97/17 251/260/15 67/74/129
f 250/259/130 68/75/128 89/97/17
f 89/97/17 68/75/128 53/60/42
f 124/132/178 123/131/177 252/261/189
f 252/261/189 123/131/177 253/262/186
f 253/262/186 123/131/177 122/130/176
f 122/130/176 121/129/175 253/262/186
f 143/151/135 141/149/136 254/263/213
f 254/263/213 141/149/136 94/102/210
f 15/18/96 189/197/160 94/102/210
f 189/197/160 254/263/213 94/102/210
f 255/264/245 92/100/211 189/197/160
f 189/197/160 92/100/211 254/263/213
f 84/92/197 255/264/245 189/197/160
f 138/146/204 109/117/203 256/265/170
f 109/117/203 257/266/169 256/265/170
f 259/268/208 258/267/206 109/117/203
f 137/145/202 259/268/208 109/117/203
f 260/269/207 259/268/208 112/120/262
f 112/120/262 259/268/208 139/147/201
f 112/120/262 139/147/201 261/270/171
f 261/270/171 139/147/201 56/63/140
