# This file uses centimeters as units for non-parametric coordinates.

v -0.310841 -0.022990 0.309353
v -0.310841 0.022990 0.309353
v 0.010191 -0.013594 0.340063
v 0.010191 0.013594 0.340063
v 0.010191 0.098878 0.000545
v -0.327518 -0.012958 0.000533
v 0.010191 -0.098878 0.000539
v -0.328352 0.013594 0.000534
v -0.074816 -0.012187 0.314532
v -0.310306 -0.012322 0.107033
v -0.310306 0.012322 0.091563
v -0.081904 0.012456 0.314532
v -0.276961 -0.073193 0.277590
v -0.191170 -0.012650 0.330004
v -0.324036 0.012740 0.197566
v -0.321690 -0.012776 0.190285
v -0.276824 0.071056 0.277368
v -0.191327 0.012698 0.330014
v -0.140610 -0.012913 0.288648
v -0.148306 0.012120 0.288851
v -0.231104 -0.040559 0.235867
v -0.281680 0.012198 0.162390
v -0.281648 -0.012970 0.162687
v -0.235163 0.035135 0.232888
v -0.205660 0.064730 0.000542
v 0.010191 0.064730 0.217937
v -0.144767 0.060156 0.150450
v 0.010191 -0.064730 0.221338
v -0.143599 -0.059867 0.155530
v -0.211458 -0.062629 0.000530
v -0.194551 -0.060270 0.068318
v -0.044647 -0.063226 0.207126
v -0.050668 0.061889 0.205925
v -0.191078 0.062947 0.057685
v 0.010191 0.077210 0.278138
v -0.065174 0.072883 0.257646
v -0.267234 0.077210 0.000538
v -0.247627 0.072664 0.073753
v -0.191096 0.071005 0.190727
v -0.025144 0.084745 0.120939
v -0.087492 0.082336 0.092149
v -0.114252 0.084646 0.035454
v -0.115146 0.086115 0.000544
v 0.010191 0.086115 0.124338
v -0.112077 -0.084180 0.040571
v -0.081548 -0.083068 0.090336
v -0.024832 -0.083074 0.132231
v 0.010191 -0.084238 0.133475
v -0.122274 -0.084211 0.000534
v -0.266937 0.071056 -0.285453
v -0.187136 0.012740 -0.332665
v -0.299417 0.022990 -0.320090
v -0.319584 0.012698 -0.199956
v -0.299417 -0.022990 -0.320090
v -0.319573 -0.012650 -0.199799
v -0.267159 -0.073193 -0.285590
v -0.179854 -0.012776 -0.330319
v -0.225436 -0.040559 -0.239734
v -0.278217 -0.012913 -0.149239
v -0.152256 -0.012970 -0.290277
v -0.278420 0.012120 -0.156935
v -0.222457 0.035135 -0.243792
v -0.304101 0.012456 -0.090533
v -0.304101 -0.012187 -0.083445
v -0.247215 0.072883 -0.073803
v -0.151959 0.012198 -0.290310
v 0.010191 -0.012322 -0.334034
v -0.096602 -0.012322 -0.318935
v -0.081132 0.012322 -0.318935
v 0.010191 0.013594 -0.335701
v -0.063322 0.072664 -0.256256
v 0.010191 0.077210 -0.275388
v -0.180296 0.071005 -0.199725
v -0.081718 0.082336 -0.096121
v -0.110509 0.084745 -0.033773
v 0.010191 0.086115 -0.125014
v -0.025023 0.084646 -0.122881
v -0.195495 0.061889 -0.059297
v -0.140020 0.060156 -0.153396
v -0.047254 0.062947 -0.199707
v 0.010191 0.064730 -0.212442
v -0.145099 -0.059867 -0.152228
v -0.196695 -0.063226 -0.053276
v -0.079905 -0.083068 -0.090177
v -0.030141 -0.084180 -0.120706
v -0.121800 -0.083074 -0.033461
v 0.010191 -0.084184 -0.130132
v 0.010191 -0.060529 -0.220638
v -0.057887 -0.060270 -0.203180
v 0.297274 0.071056 0.277368
v 0.344496 0.012740 0.197566
v 0.331306 0.022990 0.309353
v 0.211757 0.012698 0.330014
v 0.331306 -0.022990 0.309353
v 0.211600 -0.012650 0.330004
v 0.297410 -0.073193 0.277590
v 0.342150 -0.012776 0.190285
v 0.251544 -0.040559 0.235867
v 0.161028 -0.012913 0.288648
v 0.302099 -0.012970 0.162687
v 0.168726 0.012120 0.288851
v 0.255604 0.035135 0.232888
v 0.102309 0.012456 0.314532
v 0.095218 -0.012187 0.314532
v 0.085575 0.072883 0.257646
v 0.302131 0.012198 0.162390
v 0.347980 -0.012958 0.000533
v 0.330763 -0.012322 0.107033
v 0.330763 0.012322 0.091563
v 0.348814 0.013594 0.000534
v 0.268071 0.072664 0.073753
v 0.287681 0.077210 0.000538
v 0.211526 0.071005 0.190727
v 0.107898 0.082336 0.092149
v 0.045535 0.084745 0.120939
v 0.135558 0.086115 0.000544
v 0.134665 0.084646 0.035454
v 0.071065 0.061889 0.205925
v 0.165186 0.060156 0.150450
v 0.211507 0.062947 0.057685
v 0.226093 0.064730 0.000542
v 0.164017 -0.059867 0.155530
v 0.065042 -0.063226 0.207126
v 0.101952 -0.083068 0.090336
v 0.132488 -0.084180 0.040571
v 0.045223 -0.083074 0.132231
v 0.142688 -0.084211 0.000534
v 0.231892 -0.062629 0.000530
v 0.214982 -0.060270 0.068318
v 0.287384 0.071056 -0.285453
v 0.207565 0.012740 -0.332665
v 0.319880 0.022990 -0.320090
v 0.340043 0.012698 -0.199956
v 0.319880 -0.022990 -0.320090
v 0.340033 -0.012650 -0.199799
v 0.287607 -0.073193 -0.285590
v 0.200282 -0.012776 -0.330319
v 0.245873 -0.040559 -0.239734
v 0.298667 -0.012913 -0.149239
v 0.172676 -0.012970 -0.290277
v 0.298870 0.012120 -0.156935
v 0.242894 0.035135 -0.243792
v 0.324557 0.012456 -0.090533
v 0.324557 -0.012187 -0.083445
v 0.267659 0.072883 -0.073803
v 0.172380 0.012198 -0.290310
v 0.117010 -0.012322 -0.318935
v 0.101536 0.012322 -0.318935
v 0.083326 0.071440 -0.254965
v 0.200327 0.069781 -0.198434
v 0.102123 0.082336 -0.096121
v 0.130920 0.084745 -0.033773
v 0.045414 0.084646 -0.122881
v 0.215925 0.061889 -0.059297
v 0.160437 0.060156 -0.153396
v 0.067650 0.062947 -0.199707
v 0.165518 -0.059867 -0.152228
v 0.217126 -0.063226 -0.053276
v 0.100310 -0.083068 -0.090177
v 0.050533 -0.084180 -0.120706
v 0.142213 -0.083074 -0.033461
v 0.078287 -0.060270 -0.203180
v -0.185512 -0.077963 0.194010
v -0.059743 -0.077910 0.260870
v 0.010191 -0.077913 0.276929
v -0.249727 -0.077910 0.086772
v -0.261205 -0.077912 0.000532
v -0.179609 -0.077959 -0.189817
v -0.244785 -0.077912 -0.066784
v -0.075890 -0.077910 -0.257007
v 0.203789 -0.077961 0.192035
v 0.080851 -0.077910 0.263394
v 0.258628 -0.077912 0.082913
v 0.287852 -0.077911 0.000532
v 0.200655 -0.077959 -0.190492
v 0.272764 -0.077910 -0.068900
v 0.097634 -0.077909 -0.261013
v 0.010191 -0.077910 -0.276272
vt 0.523074 0.958523
vt 0.673366 0.778160
vt 0.672166 0.779129
vt 0.523370 0.944639
vt 0.349509 0.770894
vt 0.349705 0.770400
vt 0.734481 0.734286
vt 0.734156 0.734792
vt 0.284269 0.702640
vt 0.499701 0.492017
vt 0.284906 0.701957
vt 0.499699 0.492228
vt 0.439873 0.875214
vt 0.516451 0.868608
vt 0.600707 0.875864
vt 0.588471 0.874727
vt 0.517339 0.871623
vt 0.432108 0.876724
vt 0.433989 0.801699
vt 0.434108 0.801228
vt 0.513114 0.810007
vt 0.592152 0.796758
vt 0.592272 0.796994
vt 0.513187 0.810049
vt 0.659703 0.651879
vt 0.342639 0.645460
vt 0.505138 0.713555
vt 0.504863 0.713773
vt 0.342618 0.645466
vt 0.659592 0.651977
vt 0.603965 0.687337
vt 0.393786 0.688175
vt 0.393494 0.688064
vt 0.604136 0.687242
vt 0.310412 0.677101
vt 0.368601 0.736074
vt 0.636972 0.730364
vt 0.692521 0.685767
vt 0.508948 0.759236
vt 0.502119 0.626208
vt 0.432166 0.615759
vt 0.593031 0.587367
vt 0.562549 0.611555
vt 0.408469 0.582133
vt 0.503172 0.623621
vt 0.562061 0.610765
vt 0.407454 0.583085
vt 0.431925 0.616323
vt 0.593765 0.588027
vt 0.857238 0.468643
vt 0.846582 0.383359
vt 0.959796 0.470689
vt 0.865714 0.560177
vt 0.945906 0.470404
vt 0.864209 0.548440
vt 0.854243 0.469595
vt 0.846785 0.395591
vt 0.810192 0.475096
vt 0.823872 0.540507
vt 0.804864 0.412478
vt 0.824344 0.540615
vt 0.810232 0.475023
vt 0.791375 0.645094
vt 0.790877 0.644909
vt 0.747328 0.623427
vt 0.804631 0.412602
vt 0.734412 0.268420
vt 0.774811 0.325868
vt 0.773817 0.324689
vt 0.734558 0.268345
vt 0.735936 0.355237
vt 0.701245 0.299167
vt 0.767513 0.482620
vt 0.634659 0.492264
vt 0.625693 0.562424
vt 0.593806 0.401654
vt 0.618730 0.432159
vt 0.698801 0.599556
vt 0.721923 0.487397
vt 0.693519 0.388978
vt 0.664081 0.335181
vt 0.722146 0.487667
vt 0.698906 0.599261
vt 0.632050 0.491267
vt 0.617950 0.432664
vt 0.626263 0.562652
vt 0.593939 0.401522
vt 0.663923 0.335094
vt 0.693618 0.389147
vt 0.119248 0.464534
vt 0.132032 0.387554
vt 0.037236 0.476001
vt 0.146295 0.557958
vt 0.051134 0.475717
vt 0.150492 0.552896
vt 0.122289 0.465490
vt 0.137166 0.397117
vt 0.183969 0.463302
vt 0.214927 0.530374
vt 0.200956 0.378064
vt 0.214448 0.530482
vt 0.183928 0.463228
vt 0.235464 0.624235
vt 0.235969 0.624050
vt 0.266426 0.612903
vt 0.201192 0.378190
vt 0.278906 0.261743
vt 0.230578 0.323039
vt 0.231584 0.321861
vt 0.278387 0.262056
vt 0.264930 0.348105
vt 0.311273 0.293568
vt 0.233121 0.469758
vt 0.367969 0.485304
vt 0.377198 0.555489
vt 0.409165 0.395277
vt 0.384023 0.425210
vt 0.303071 0.592522
vt 0.279397 0.480310
vt 0.308041 0.381914
vt 0.345014 0.327151
vt 0.279171 0.480579
vt 0.302964 0.592227
vt 0.370614 0.484309
vt 0.384815 0.425716
vt 0.376620 0.555716
vt 0.408509 0.394529
vt 0.344912 0.327260
vt 0.307941 0.382083
vt 0.510313 0.110104
vt 0.589876 0.108432
vt 0.510636 0.026474
vt 0.425306 0.102855
vt 0.508245 0.045710
vt 0.435675 0.109693
vt 0.509289 0.113077
vt 0.578980 0.109560
vt 0.508062 0.154304
vt 0.432800 0.161962
vt 0.583616 0.161212
vt 0.432699 0.161487
vt 0.508137 0.154265
vt 0.357692 0.200454
vt 0.357870 0.200956
vt 0.375605 0.240176
vt 0.583485 0.161442
vt 0.674928 0.215014
vt 0.676105 0.216034
vt 0.647510 0.257633
vt 0.518876 0.223178
vt 0.506481 0.355804
vt 0.435116 0.363181
vt 0.567157 0.373091
vt 0.398874 0.289239
vt 0.513133 0.268656
vt 0.612440 0.299284
vt 0.512864 0.268426
vt 0.399175 0.289141
vt 0.507442 0.358435
vt 0.566629 0.373859
vt 0.434895 0.362607
vt 0.612271 0.299181
vt 0.508815 0.759867
vt 0.369976 0.733701
vt 0.312314 0.675198
vt 0.691692 0.687258
vt 0.636473 0.731091
vt 0.763400 0.483248
vt 0.740086 0.619700
vt 0.735620 0.356537
vt 0.267866 0.608899
vt 0.235911 0.472728
vt 0.273335 0.355592
vt 0.305361 0.290264
vt 0.376122 0.240978
vt 0.518253 0.226537
vt 0.648709 0.254848
vt 0.703548 0.296780
vn -0.090442 0.994456 0.053636
vn -0.789736 0.536056 -0.298263
vn -0.669618 0.387670 0.633501
vn 0.232086 0.538798 0.809835
vn 0.401492 -0.482822 0.778259
vn -0.704284 -0.274571 0.654671
vn -0.103011 -0.990614 0.089850
vn -0.693510 -0.509203 -0.509664
vn 0.591691 0.467512 0.656760
vn 0.173509 0.963652 -0.203147
vn -0.116724 0.963767 0.239850
vn -0.307861 0.327930 0.893131
vn -0.000018 0.895146 0.445772
vn -0.000031 0.225532 0.974236
vn -0.541121 0.443885 -0.714251
vn -0.239643 0.964342 0.112318
vn -0.442039 0.896952 -0.008882
vn -0.866848 0.437123 0.239787
vn -0.958570 0.272379 -0.083389
vn -0.127046 0.984460 0.121238
vn -0.428611 0.803859 0.412436
vn -0.317460 0.464314 0.826820
vn -0.826345 0.444365 0.345968
vn -0.152922 0.976577 0.151370
vn -0.082364 0.982953 0.164377
vn -0.000010 1.000000 -0.000478
vn -0.184719 0.982724 0.011496
vn -0.170487 0.982041 0.080807
vn -0.000008 0.981856 0.189627
vn -0.000000 0.978542 -0.206048
vn 0.042766 0.979621 -0.196250
vn 0.123933 0.985148 -0.118844
vn 0.161023 0.986498 -0.029881
vn 0.193577 0.981075 -0.004533
vn -0.236406 0.965791 0.106586
vn -0.231730 0.972523 -0.022370
vn -0.188244 0.965071 0.182214
vn -0.109133 0.967988 0.226028
vn -0.000010 0.974879 0.222734
vn -0.152918 -0.978941 0.135241
vn -0.172029 -0.981520 0.083808
vn -0.000009 -1.000000 0.000381
vn -0.000006 -0.981579 0.191057
vn -0.089653 -0.980417 0.175343
vn -0.199621 -0.979817 0.010514
vn -0.050598 0.994888 -0.087393
vn 0.301523 0.536636 -0.788102
vn -0.631842 0.392248 -0.668518
vn -0.808720 0.539189 0.235050
vn -0.777090 -0.483294 0.403185
vn -0.653849 -0.277492 -0.703903
vn -0.086887 -0.991195 -0.099920
vn 0.511370 -0.509379 -0.692123
vn -0.656761 0.467510 0.591692
vn 0.203147 0.963652 0.173509
vn -0.240206 0.963553 -0.117759
vn -0.894354 0.327635 -0.304610
vn 0.714251 0.443886 -0.541120
vn -0.112675 0.964173 -0.240156
vn 0.006124 0.900691 -0.434418
vn -0.232191 0.430228 -0.872348
vn -0.000020 0.341588 -0.939850
vn -0.121238 0.984460 -0.127046
vn -0.412436 0.803859 -0.428611
vn -0.826820 0.464315 -0.317460
vn -0.345968 0.444364 -0.826346
vn -0.151470 0.976545 -0.153028
vn -0.175757 0.980679 -0.085895
vn -0.000007 0.980007 -0.198964
vn -0.083790 0.981889 -0.169922
vn 0.197113 0.979578 0.039656
vn 0.118844 0.985148 0.123933
vn 0.027341 0.986455 0.161738
vn 0.004191 0.984214 0.176935
vn -0.107177 0.965404 -0.237715
vn -0.000009 0.971365 -0.237593
vn -0.182214 0.965071 -0.188244
vn -0.224799 0.966472 -0.124088
vn -0.135355 -0.978904 -0.153055
vn -0.081831 -0.981507 -0.173054
vn -0.175797 -0.980463 -0.088250
vn -0.000006 -0.978022 -0.208500
vn 0.090425 0.994459 0.053608
vn 0.669588 0.387732 0.633495
vn 0.789691 0.536096 -0.298311
vn -0.232061 0.538806 0.809837
vn 0.704266 -0.274616 0.654673
vn -0.401438 -0.482827 0.778284
vn 0.102993 -0.990618 0.089823
vn 0.693447 -0.509232 -0.509719
vn -0.173478 0.963658 -0.203147
vn -0.591609 0.467529 0.656822
vn 0.307796 0.327932 0.893153
vn 0.116698 0.963770 0.239854
vn 0.541033 0.443902 -0.714307
vn 0.239613 0.964349 0.112325
vn 0.866808 0.437179 0.239831
vn 0.441981 0.896980 -0.008882
vn 0.958557 0.272420 -0.083406
vn 0.127021 0.984463 0.121240
vn 0.428538 0.803892 0.412448
vn 0.317393 0.464322 0.826841
vn 0.826291 0.444422 0.346024
vn 0.152888 0.976582 0.151371
vn 0.082345 0.982955 0.164377
vn 0.184679 0.982732 0.011497
vn 0.170450 0.982047 0.080807
vn -0.042756 0.979621 -0.196250
vn -0.123904 0.985152 -0.118844
vn -0.160984 0.986505 -0.029880
vn -0.193532 0.981084 -0.004533
vn 0.236355 0.965803 0.106587
vn 0.231679 0.972535 -0.022368
vn 0.188202 0.965079 0.182215
vn 0.109108 0.967991 0.226029
vn 0.152883 -0.978947 0.135242
vn 0.171990 -0.981527 0.083810
vn 0.089633 -0.980419 0.175343
vn 0.199576 -0.979826 0.010513
vn 0.050589 0.994891 -0.087366
vn 0.631812 0.392309 -0.668512
vn -0.301486 0.536649 -0.788108
vn 0.808678 0.539233 0.235092
vn 0.653835 -0.277528 -0.703903
vn 0.777036 -0.483329 0.403246
vn 0.086876 -0.991198 -0.099897
vn -0.511310 -0.509384 -0.692163
vn -0.203113 0.963660 0.173506
vn 0.656688 0.467522 0.591764
vn 0.894321 0.327668 -0.304669
vn 0.237598 0.964002 -0.119363
vn -0.714177 0.443911 -0.541197
vn 0.115468 0.964918 -0.235799
vn 0.235357 0.436316 -0.868467
vn 0.115575 0.985008 -0.128071
vn 0.400990 0.813593 -0.421039
vn 0.826772 0.464363 -0.317515
vn 0.343042 0.452584 -0.823098
vn 0.151436 0.976550 -0.153030
vn 0.175718 0.980686 -0.085894
vn 0.083770 0.981890 -0.169923
vn -0.197067 0.979588 0.039656
vn -0.112666 0.987179 0.113064
vn -0.021617 0.989067 0.145875
vn 0.107153 0.965406 -0.237716
vn 0.182174 0.965078 -0.188247
vn 0.224750 0.966483 -0.124090
vn 0.135325 -0.978908 -0.153055
vn 0.081812 -0.981509 -0.173054
vn 0.175756 -0.980470 -0.088252
vn 0.536717 -0.526286 0.659514
vn 0.170255 -0.970856 -0.168676
vn -0.457073 -0.597374 -0.658960
vn -0.322943 -0.388253 0.863115
vn -0.278931 -0.380327 0.881787
vn -0.000030 -0.381840 0.924228
vn -0.918958 -0.234769 0.316858
vn -0.924536 -0.380671 0.017955
vn -0.799664 -0.475231 0.367004
vn -0.351329 -0.934497 -0.057295
vn -0.343144 -0.931720 0.118954
vn -0.006488 -0.999373 0.034798
vn -0.436310 -0.775594 0.456166
vn -0.234514 -0.965531 0.112934
vn -0.172339 -0.967601 0.184520
vn -0.235158 -0.971766 0.019269
vn -0.233331 -0.969216 -0.078596
vn -0.184520 -0.967601 -0.172339
vn 0.456998 -0.597378 -0.659009
vn 0.958485 -0.285142 -0.000255
vn 0.886340 -0.349027 0.304271
vn 0.778101 -0.525050 0.344792
vn -0.337680 -0.933723 -0.118881
vn -0.280497 -0.959845 -0.004410
vn 0.160096 -0.984800 0.067374
vn 0.442098 -0.896875 -0.012843
vn 0.089931 -0.969838 0.226555
vn 0.172300 -0.967608 0.184521
vn 0.234461 -0.965543 0.112936
vn 0.235108 -0.971778 0.019269
vn -0.168646 -0.970862 0.170250
vn 0.659440 -0.526302 0.536792
vn -0.658900 -0.597382 -0.457149
vn 0.886793 -0.375275 -0.269752
vn 0.865506 -0.380897 -0.325295
vn 0.309316 -0.228741 -0.923039
vn 0.372323 -0.462385 -0.804721
vn 0.241475 -0.966954 -0.081790
vn -0.232891 -0.969090 0.081399
vn 0.233278 -0.969229 -0.078599
vn 0.287469 -0.957594 0.019360
vn 0.272507 -0.955212 -0.115367
vn 0.171241 -0.959079 -0.225488
vn -0.659513 -0.526287 0.536716
vn -0.855859 -0.409260 -0.316246
vn -0.874434 -0.403425 -0.269471
vn -0.207887 -0.975782 -0.068066
vn 0.266325 -0.959224 0.094657
vn 0.658961 -0.597374 -0.457072
vn 0.168676 -0.970856 0.170255
vn -0.014348 -0.999773 0.015744
vn -0.440049 -0.796741 -0.414198
vn -0.105620 -0.965118 -0.239565
vn -0.000008 -0.967500 -0.252872
vn 0.249077 -0.949684 0.189897
vn -0.231592 -0.954904 0.185804
vn 0.019353 -0.999772 0.009002
vn -0.131951 -0.954532 0.267314
vn 0.119621 -0.926449 -0.356908
vn 0.184479 -0.967609 -0.172340
vn 0.105596 -0.965121 -0.239565
vn 0.452778 -0.780670 -0.430752
vn -0.286589 -0.323599 -0.901749
vn 0.019746 -0.300358 -0.953622
vn -0.364302 -0.481548 -0.797117
vn -0.112803 -0.957284 -0.266237
vn -0.027452 -0.926514 -0.375258
vn 0.135577 -0.950019 0.281215
vn 0.004855 -0.957169 0.289488
vn -0.088801 -0.965548 0.244604
vn -0.002990 -0.882736 0.469860
vn -0.089952 -0.969836 0.226554
vn -0.000009 -0.976227 0.216751
vn -0.170225 -0.970862 -0.168674
vn -0.536644 -0.526288 0.659571
vn 0.275025 -0.372951 0.886154
vn 0.325954 -0.378259 0.866415
vn -0.061357 -0.969853 -0.235842
vn -0.216971 -0.952852 -0.212123
vn 0.088917 -0.964110 0.250173
vn 0.071576 -0.995153 0.067433
vn 0.065328 -0.967097 -0.245877
vn 0.002887 -0.970907 -0.239439
vn 0.433262 -0.792793 0.428677
f 17/17/1 15/15/2 2/1/3
f 18/18/4 17/17/1 2/1/3
f 14/13/5 18/18/4 1/4/6
f 1/4/6 18/18/4 2/1/3
f 13/14/7 14/13/5 1/4/6
f 16/16/8 13/14/7 1/4/6
f 2/1/3 15/15/2 1/4/6
f 1/4/6 15/15/2 16/16/8
f 20/19/9 24/24/10 18/18/4
f 18/18/4 24/24/10 17/17/1
f 36/36/11 12/5/12 35/35/13
f 35/35/13 12/5/12 4/9/14
f 22/22/15 15/15/2 24/24/10
f 24/24/10 15/15/2 17/17/1
f 38/37/16 37/38/17 11/2/18
f 11/2/18 37/38/17 8/8/19
f 39/39/20 24/24/21 36/36/11
f 24/24/21 20/19/22 36/36/11
f 36/36/11 20/19/22 12/5/12
f 39/39/20 38/37/16 24/24/21
f 24/24/21 38/37/16 22/22/23
f 38/37/16 11/2/18 22/22/23
f 41/40/24 40/41/25 5/10/26
f 43/42/27 42/43/28 5/10/26
f 40/41/25 44/44/29 5/10/26
f 42/43/28 41/40/24 5/10/26
f 35/35/13 26/26/30 36/36/11
f 36/36/11 26/26/30 33/33/31
f 39/39/20 36/36/11 27/27/32
f 27/27/32 36/36/11 33/33/31
f 39/39/20 27/27/32 38/37/16
f 38/37/16 27/27/32 34/34/33
f 37/38/17 38/37/16 25/25/34
f 25/25/34 38/37/16 34/34/33
f 42/43/28 43/42/27 34/34/35
f 34/34/35 43/42/27 25/25/36
f 42/43/28 34/34/35 41/40/24
f 41/40/24 34/34/35 27/27/37
f 40/41/25 41/40/24 33/33/38
f 33/33/38 41/40/24 27/27/37
f 40/41/25 33/33/38 44/44/29
f 44/44/29 33/33/38 26/26/39
f 46/45/40 45/46/41 7/12/42
f 48/47/43 47/48/44 7/12/42
f 45/46/41 49/49/45 7/12/42
f 47/48/44 46/45/40 7/12/42
f 50/50/46 51/51/47 52/52/48
f 53/53/49 50/50/46 52/52/48
f 55/55/50 53/53/49 54/54/51
f 54/54/51 53/53/49 52/52/48
f 56/56/52 55/55/50 54/54/51
f 57/57/53 56/56/52 54/54/51
f 52/52/48 51/51/47 54/54/51
f 54/54/51 51/51/47 57/57/53
f 61/61/54 62/62/55 53/53/49
f 53/53/49 62/62/55 50/50/46
f 65/65/56 63/63/57 37/38/17
f 37/38/17 63/63/57 8/8/19
f 66/66/58 51/51/47 62/62/55
f 62/62/55 51/51/47 50/50/46
f 71/71/59 72/72/60 69/69/61
f 69/69/61 72/72/60 70/70/62
f 73/73/63 62/62/64 65/65/56
f 62/62/64 61/61/65 65/65/56
f 65/65/56 61/61/65 63/63/57
f 73/73/63 71/71/59 62/62/64
f 62/62/64 71/71/59 66/66/66
f 71/71/59 69/69/61 66/66/66
f 74/74/67 75/75/68 5/10/26
f 76/76/69 77/77/70 5/10/26
f 75/75/68 43/42/27 5/10/26
f 77/77/70 74/74/67 5/10/26
f 37/38/17 25/25/34 65/65/56
f 65/65/56 25/25/34 78/78/71
f 73/73/63 65/65/56 79/79/72
f 79/79/72 65/65/56 78/78/71
f 73/73/63 79/79/72 71/71/59
f 71/71/59 79/79/72 80/80/73
f 72/72/60 71/71/59 81/81/74
f 81/81/74 71/71/59 80/80/73
f 77/77/70 76/76/69 80/80/75
f 80/80/75 76/76/69 81/81/76
f 77/77/70 80/80/75 74/74/67
f 74/74/67 80/80/75 79/79/77
f 75/75/68 74/74/67 78/78/78
f 78/78/78 74/74/67 79/79/77
f 43/42/27 75/75/68 25/25/36
f 25/25/36 75/75/68 78/78/78
f 84/84/79 85/85/80 7/12/42
f 49/49/45 86/86/81 7/12/42
f 85/85/80 87/87/82 7/12/42
f 86/86/81 84/84/79 7/12/42
f 90/90/83 92/92/84 91/91/85
f 93/93/86 92/92/84 90/90/83
f 92/92/84 93/93/86 94/94/87
f 94/94/87 93/93/86 95/95/88
f 96/96/89 94/94/87 95/95/88
f 97/97/90 94/94/87 96/96/89
f 92/92/84 94/94/87 91/91/85
f 91/91/85 94/94/87 97/97/90
f 90/90/83 102/102/91 93/93/86
f 93/93/86 102/102/91 101/101/92
f 4/9/14 103/103/93 35/35/13
f 35/35/13 103/103/93 105/105/94
f 90/90/83 91/91/85 102/102/91
f 102/102/91 91/91/85 106/106/95
f 111/111/96 109/109/97 112/112/98
f 112/112/98 109/109/97 110/110/99
f 113/113/100 105/105/94 102/102/101
f 102/102/101 105/105/94 101/101/102
f 105/105/94 103/103/93 101/101/102
f 113/113/100 102/102/101 111/111/96
f 102/102/101 106/106/103 111/111/96
f 106/106/103 109/109/97 111/111/96
f 114/114/104 5/10/26 115/115/105
f 116/116/106 5/10/26 117/117/107
f 115/115/105 5/10/26 44/44/29
f 117/117/107 5/10/26 114/114/104
f 118/118/108 26/26/30 105/105/94
f 105/105/94 26/26/30 35/35/13
f 118/118/108 105/105/94 119/119/109
f 119/119/109 105/105/94 113/113/100
f 120/120/110 119/119/109 111/111/96
f 111/111/96 119/119/109 113/113/100
f 120/120/110 111/111/96 121/121/111
f 121/121/111 111/111/96 112/112/98
f 117/117/107 120/120/112 116/116/106
f 116/116/106 120/120/112 121/121/113
f 119/119/114 120/120/112 114/114/104
f 114/114/104 120/120/112 117/117/107
f 115/115/105 118/118/115 114/114/104
f 114/114/104 118/118/115 119/119/114
f 26/26/39 118/118/115 44/44/29
f 44/44/29 118/118/115 115/115/105
f 124/124/116 7/12/42 125/125/117
f 48/47/43 7/12/42 126/126/118
f 125/125/117 7/12/42 127/127/119
f 126/126/118 7/12/42 124/124/116
f 130/130/120 132/132/121 131/131/122
f 133/133/123 132/132/121 130/130/120
f 132/132/121 133/133/123 134/134/124
f 134/134/124 133/133/123 135/135/125
f 136/136/126 134/134/124 135/135/125
f 137/137/127 134/134/124 136/136/126
f 132/132/121 134/134/124 131/131/122
f 131/131/122 134/134/124 137/137/127
f 130/130/120 142/142/128 133/133/123
f 133/133/123 142/142/128 141/141/129
f 110/110/99 143/143/130 112/112/98
f 112/112/98 143/143/130 145/145/131
f 130/130/120 131/131/122 142/142/128
f 142/142/128 131/131/122 146/146/132
f 149/149/133 148/148/134 72/72/60
f 72/72/60 148/148/134 70/70/62
f 150/150/135 145/145/131 142/142/136
f 142/142/136 145/145/131 141/141/137
f 145/145/131 143/143/130 141/141/137
f 150/150/135 142/142/136 149/149/133
f 142/142/136 146/146/138 149/149/133
f 146/146/138 148/148/134 149/149/133
f 151/151/139 5/10/26 152/152/140
f 76/76/69 5/10/26 153/153/141
f 152/152/140 5/10/26 116/116/106
f 153/153/141 5/10/26 151/151/139
f 154/154/142 121/121/111 145/145/131
f 145/145/131 121/121/111 112/112/98
f 154/154/142 145/145/131 155/155/143
f 155/155/143 145/145/131 150/150/135
f 156/156/144 155/155/143 149/149/133
f 149/149/133 155/155/143 150/150/135
f 156/156/144 149/149/133 81/81/74
f 81/81/74 149/149/133 72/72/60
f 153/153/141 156/156/145 76/76/69
f 76/76/69 156/156/145 81/81/76
f 155/155/146 156/156/145 151/151/139
f 151/151/139 156/156/145 153/153/141
f 152/152/140 154/154/147 151/151/139
f 151/151/139 154/154/147 155/155/146
f 116/116/106 121/121/113 152/152/140
f 152/152/140 121/121/113 154/154/147
f 159/159/148 7/12/42 160/160/149
f 127/127/119 7/12/42 161/161/150
f 160/160/149 7/12/42 87/87/82
f 161/161/150 7/12/42 159/159/148
f 19/20/151 14/13/5 21/21/152
f 21/21/152 14/13/5 13/14/7
f 23/23/153 21/21/152 16/16/8
f 16/16/8 21/21/152 13/14/7
f 19/20/151 20/19/9 14/13/5
f 14/13/5 20/19/9 18/18/4
f 20/19/22 19/20/154 12/5/12
f 12/5/12 19/20/154 9/6/155
f 12/5/12 9/6/155 4/9/14
f 4/9/14 9/6/155 3/11/156
f 23/23/153 16/16/8 22/22/15
f 22/22/15 16/16/8 15/15/2
f 10/3/157 11/2/18 6/7/158
f 6/7/158 11/2/18 8/8/19
f 23/23/159 22/22/23 10/3/157
f 10/3/157 22/22/23 11/2/18
f 167/166/160 166/167/161 6/7/158
f 6/7/158 166/167/161 10/3/157
f 163/163/162 21/21/163 166/167/161
f 21/21/163 23/23/159 166/167/161
f 166/167/161 23/23/159 10/3/157
f 45/46/41 46/45/40 31/31/164
f 31/31/164 46/45/40 29/28/165
f 45/46/41 31/31/164 49/49/45
f 49/49/45 31/31/164 30/30/166
f 86/86/81 49/49/45 83/83/167
f 83/83/167 49/49/45 30/30/166
f 84/84/79 86/86/81 82/82/168
f 82/82/168 86/86/81 83/83/167
f 91/91/85 97/97/90 106/106/95
f 106/106/95 97/97/90 100/100/169
f 110/110/99 109/109/97 107/107/170
f 107/107/170 109/109/97 108/108/171
f 109/109/97 106/106/103 108/108/171
f 108/108/171 106/106/103 100/100/172
f 129/129/173 128/128/174 173/173/175
f 173/173/175 128/128/174 174/174/176
f 123/123/177 126/126/118 122/122/178
f 122/122/178 126/126/118 124/124/116
f 122/122/178 124/124/116 129/129/179
f 129/129/179 124/124/116 125/125/117
f 128/128/180 129/129/179 127/127/119
f 127/127/119 129/129/179 125/125/117
f 136/136/126 135/135/125 138/138/181
f 138/138/181 135/135/125 139/139/182
f 136/136/126 138/138/181 137/137/127
f 137/137/127 138/138/181 140/140/183
f 133/133/123 141/141/129 135/135/125
f 135/135/125 141/141/129 139/139/182
f 144/144/184 139/139/185 143/143/130
f 143/143/130 139/139/185 141/141/137
f 107/107/170 144/144/184 110/110/99
f 110/110/99 144/144/184 143/143/130
f 131/131/122 137/137/127 146/146/132
f 146/146/132 137/137/127 140/140/183
f 148/148/134 146/146/138 147/147/186
f 147/147/186 146/146/138 140/140/187
f 174/174/176 128/128/174 176/175/188
f 176/175/188 128/128/174 158/158/189
f 161/161/150 158/158/190 127/127/119
f 127/127/119 158/158/190 128/128/180
f 167/166/160 30/30/191 166/167/161
f 166/167/161 30/30/191 31/31/192
f 166/167/161 31/31/192 163/163/162
f 163/163/162 31/31/192 29/28/193
f 107/107/170 108/108/171 174/174/176
f 174/174/176 108/108/171 173/173/175
f 176/175/188 144/144/184 174/174/176
f 174/174/176 144/144/184 107/107/170
f 59/59/194 61/61/54 55/55/50
f 55/55/50 61/61/54 53/53/49
f 61/61/65 59/59/195 63/63/57
f 63/63/57 59/59/195 64/64/196
f 63/63/57 64/64/196 8/8/19
f 8/8/19 64/64/196 6/7/158
f 169/169/197 167/166/160 64/64/196
f 64/64/196 167/166/160 6/7/158
f 167/166/160 169/169/197 30/30/191
f 30/30/191 169/169/197 83/83/198
f 60/60/199 57/57/53 66/66/58
f 66/66/58 57/57/53 51/51/47
f 59/59/194 55/55/50 58/58/200
f 58/58/200 55/55/50 56/56/52
f 60/60/199 58/58/200 57/57/53
f 57/57/53 58/58/200 56/56/52
f 168/168/201 169/169/197 58/58/202
f 58/58/202 169/169/197 59/59/195
f 59/59/195 169/169/197 64/64/196
f 85/85/80 84/84/79 89/89/203
f 89/89/203 84/84/79 82/82/168
f 85/85/80 89/89/203 87/87/82
f 87/87/82 89/89/203 88/88/204
f 168/168/201 82/82/205 169/169/197
f 169/169/197 82/82/205 83/83/198
f 158/158/189 157/157/206 176/175/188
f 176/175/188 157/157/206 175/176/207
f 157/157/206 162/162/208 175/176/207
f 175/176/207 162/162/208 177/177/209
f 158/158/190 161/161/150 157/157/210
f 157/157/210 161/161/150 159/159/148
f 157/157/210 159/159/148 162/162/211
f 162/162/211 159/159/148 160/160/149
f 175/176/207 138/138/212 176/175/188
f 138/138/212 139/139/185 176/175/188
f 139/139/185 144/144/184 176/175/188
f 175/176/207 177/177/209 138/138/212
f 138/138/212 177/177/209 140/140/187
f 140/140/187 177/177/209 147/147/186
f 68/68/213 69/69/61 67/67/214
f 67/67/214 69/69/61 70/70/62
f 60/60/215 66/66/66 68/68/213
f 68/68/213 66/66/66 69/69/61
f 70/70/62 148/148/134 67/67/214
f 67/67/214 148/148/134 147/147/186
f 88/88/204 162/162/211 87/87/82
f 87/87/82 162/162/211 160/160/149
f 170/170/216 68/68/213 178/178/217
f 178/178/217 68/68/213 67/67/214
f 168/168/201 58/58/202 170/170/216
f 58/58/202 60/60/215 170/170/216
f 60/60/215 68/68/213 170/170/216
f 170/170/216 89/89/218 168/168/201
f 168/168/201 89/89/218 82/82/205
f 178/178/217 88/88/219 170/170/216
f 170/170/216 88/88/219 89/89/218
f 147/147/186 177/177/209 67/67/214
f 67/67/214 177/177/209 178/178/217
f 178/178/217 177/177/209 88/88/219
f 88/88/219 177/177/209 162/162/208
f 163/163/162 164/164/220 21/21/163
f 21/21/163 164/164/220 19/20/154
f 19/20/154 164/164/220 9/6/155
f 164/164/220 165/165/221 9/6/155
f 9/6/155 165/165/221 3/11/156
f 47/48/44 48/47/43 32/32/222
f 32/32/222 48/47/43 28/29/223
f 46/45/40 47/48/44 29/28/165
f 29/28/165 47/48/44 32/32/222
f 96/96/89 95/95/88 98/98/224
f 98/98/224 95/95/88 99/99/225
f 96/96/89 98/98/224 97/97/90
f 97/97/90 98/98/224 100/100/169
f 93/93/86 101/101/92 95/95/88
f 95/95/88 101/101/92 99/99/225
f 104/104/226 99/99/227 103/103/93
f 103/103/93 99/99/227 101/101/102
f 3/11/156 104/104/226 4/9/14
f 4/9/14 104/104/226 103/103/93
f 123/123/228 122/122/229 172/171/230
f 172/171/230 122/122/229 171/172/231
f 171/172/231 122/122/229 173/173/175
f 173/173/175 122/122/229 129/129/173
f 28/29/223 48/47/43 123/123/177
f 123/123/177 48/47/43 126/126/118
f 163/163/162 29/28/193 164/164/220
f 164/164/220 29/28/193 32/32/232
f 165/165/221 164/164/220 28/29/233
f 28/29/233 164/164/220 32/32/232
f 171/172/231 98/98/234 172/171/230
f 98/98/234 99/99/227 172/171/230
f 99/99/227 104/104/226 172/171/230
f 171/172/231 173/173/175 98/98/234
f 98/98/234 173/173/175 100/100/172
f 100/100/172 173/173/175 108/108/171
f 3/11/156 165/165/221 104/104/226
f 104/104/226 165/165/221 172/171/230
f 165/165/221 28/29/233 172/171/230
f 172/171/230 28/29/233 123/123/228
