# This file uses centimeters as units for non-parametric coordinates.

v 0.246809 -0.359188 0.000000
v 0.246809 0.361418 0.000000
v 0.389355 0.211158 0.000000
v 0.393446 -0.221029 0.000000
v -0.321960 -0.346197 0.000000
v -0.416813 -0.147482 0.000000
v -0.409312 0.264370 0.000000
v -0.276221 0.388131 0.000000
vt 0.752009 0.142498
vt 0.752004 0.142671
vt 0.752009 0.859453
vt 0.752004 0.859463
vt 0.889096 0.709998
vt 0.893030 0.280099
vt 0.183542 0.155423
vt 0.088740 0.353132
vt 0.096237 0.762897
vt 0.229257 0.886031
vn 0.000000 0.000000 1.000000
vn 0.000000 0.000000 1.000000
vn 0.000000 0.000000 1.000000
vn 0.000000 0.000000 1.000000
vn 0.000000 0.000000 1.000000
vn 0.000000 0.000000 1.000000
vn 0.000000 0.000000 1.000000
vn 0.000000 0.000000 1.000000
vn 0.000000 0.000000 1.000000
vn 0.000000 0.000000 1.000000
f 4/6/1 3/5/2 1/2/3
f 1/2/3 3/5/2 2/4/4
f 1/1/5 2/3/6 5/7/7
f 2/3/6 8/10/8 5/7/7
f 5/7/7 8/10/8 6/8/9
f 8/10/8 7/9/10 6/8/9
