# This file uses centimeters as units for non-parametric coordinates.

v -0.369380 0.000000 -0.369380
v -0.500000 0.000000 -0.175969
v -0.194964 0.000000 -0.500000
v 0.385822 0.000000 -0.385822
v 0.500000 0.000000 -0.181592
v 0.175856 0.000000 -0.500000
v 0.160247 0.000000 0.500000
v 0.376074 0.000000 0.376074
v 0.500000 0.000000 0.189807
v -0.500000 0.000000 0.186906
v -0.382458 0.000000 0.382458
v -0.154881 0.000000 0.500000
v -0.359298 0.000000 0.134310
v -0.274600 0.000000 0.274600
v 0.126767 0.000000 -0.360428
v 0.271209 0.000000 -0.271209
v 0.355338 0.000000 -0.129053
v -0.112921 0.000000 0.364542
v -0.360225 0.000000 -0.126777
v -0.265212 0.000000 -0.265212
v 0.361956 0.000000 0.137403
v 0.274645 0.000000 0.274645
v -0.145169 0.000000 -0.372296
v 0.113344 0.000000 0.353653
vt 0.130620 0.869380
vt 0.000000 0.675969
vt 0.305039 1.000000
vt 0.885822 0.885822
vt 1.000000 0.681592
vt 0.675857 1.000000
vt 0.876074 0.123926
vt 0.660247 0.000000
vt 1.000000 0.310193
vt 0.000000 0.313094
vt 0.117542 0.117542
vt 0.345119 0.000000
vt 0.225400 0.225400
vt 0.140702 0.365690
vt 0.626768 0.860428
vt 0.771209 0.771209
vt 0.855338 0.629053
vt 0.387079 0.135458
vt 0.139775 0.626777
vt 0.234788 0.765212
vt 0.861956 0.362597
vt 0.774645 0.225355
vt 0.354834 0.872296
vt 0.613344 0.146347
vn 0.000000 1.000000 0.000000
vn 0.000000 1.000000 0.000000
vn 0.000000 1.000000 0.000000
vn 0.000000 1.000000 0.000000
vn 0.000000 1.000000 0.000000
vn 0.000000 1.000000 0.000000
vn 0.000000 1.000000 0.000000
vn 0.000000 1.000000 0.000000
vn 0.000000 1.000000 0.000000
vn 0.000000 1.000000 0.000000
vn 0.000000 1.000000 0.000000
vn 0.000000 1.000000 0.000000
vn 0.000000 1.000000 0.000000
vn 0.000000 1.000000 0.000000
vn 0.000000 1.000000 0.000000
vn 0.000000 1.000000 0.000000
vn 0.000000 1.000000 0.000000
vn 0.000000 1.000000 0.000000
vn 0.000000 1.000000 0.000000
vn 0.000000 1.000000 0.000000
vn 0.000000 1.000000 0.000000
vn 0.000000 1.000000 0.000000
vn 0.000000 1.000000 0.000000
vn 0.000000 1.000000 0.000000
vn 0.000000 1.000000 0.000000
vn 0.000000 1.000000 0.000000
vn 0.000000 1.000000 0.000000
vn 0.000000 1.000000 0.000000
vn 0.000000 1.000000 0.000000
vn 0.000000 1.000000 0.000000
vn 0.000000 1.000000 0.000000
vn 0.000000 1.000000 0.000000
vn 0.000000 1.000000 0.000000
vn 0.000000 1.000000 0.000000
vn 0.000000 1.000000 0.000000
vn 0.000000 1.000000 0.000000
vn 0.000000 1.000000 0.000000
vn 0.000000 1.000000 0.000000
vn 0.000000 1.000000 0.000000
vn 0.000000 1.000000 0.000000
vn 0.000000 1.000000 0.000000
vn 0.000000 1.000000 0.000000
vn 0.000000 1.000000 0.000000
vn 0.000000 1.000000 0.000000
vn 0.000000 1.000000 0.000000
vn 0.000000 1.000000 0.000000
vn 0.000000 1.000000 0.000000
vn 0.000000 1.000000 0.000000
f 13/14/1 10/10/2 14/13/3
f 14/13/3 10/10/2 11/11/4
f 17/17/5 5/5/6 16/16/7
f 16/16/7 5/5/6 4/4/8
f 18/18/9 14/13/10 12/12/11
f 12/12/11 14/13/10 11/11/12
f 17/17/13 21/21/14 5/5/15
f 5/5/15 21/21/14 9/9/16
f 22/22/17 8/7/18 21/21/19
f 21/21/19 8/7/18 9/9/20
f 24/24/21 18/18/22 7/8/23
f 7/8/23 18/18/22 12/12/24
f 24/24/25 7/8/26 22/22/27
f 22/22/27 7/8/26 8/7/28
f 15/15/29 16/16/30 6/6/31
f 6/6/31 16/16/30 4/4/32
f 20/20/33 1/1/34 19/19/35
f 19/19/35 1/1/34 2/2/36
f 19/19/37 2/2/38 13/14/39
f 13/14/39 2/2/38 10/10/40
f 15/15/41 6/6/42 23/23/43
f 23/23/43 6/6/42 3/3/44
f 3/3/45 1/1/46 23/23/47
f 23/23/47 1/1/46 20/20/48
