# This file uses centimeters as units for non-parametric coordinates.

v -0.500000 -0.500000 0.500000
v 0.500000 -0.500000 0.500000
v -0.500000 0.500000 0.500000
v 0.500000 0.500000 0.500000
v -0.500000 0.500000 -0.500000
v 0.500000 0.500000 -0.500000
v -0.500000 -0.500000 -0.500000
v 0.500000 -0.500000 -0.500000
v -0.475000 -0.475000 0.500000
v 0.475000 -0.475000 0.500000
v 0.475000 0.475000 0.500000
v -0.475000 0.475000 0.500000
v -0.475000 0.500000 0.475000
v 0.475000 0.500000 0.475000
v 0.475000 0.500000 -0.475000
v -0.475000 0.500000 -0.475000
v -0.475000 0.475000 -0.500000
v 0.475000 0.475000 -0.500000
v 0.475000 -0.475000 -0.500000
v -0.475000 -0.475000 -0.500000
v -0.475000 -0.500000 -0.475000
v 0.475000 -0.500000 -0.475000
v 0.475000 -0.500000 0.475000
v -0.475000 -0.500000 0.475000
v 0.500000 -0.475000 -0.475000
v 0.500000 -0.475000 0.475000
v 0.500000 0.475000 -0.475000
v 0.500000 0.475000 0.475000
v -0.500000 -0.475000 -0.475000
v -0.500000 -0.475000 0.475000
v -0.500000 0.475000 0.475000
v -0.500000 0.475000 -0.475000
v -0.475145 -0.475145 0.475145
v 0.475145 -0.475145 0.475145
v 0.475145 0.475145 0.475145
v -0.475145 0.475145 0.475145
v 0.475145 0.475145 -0.475145
v -0.475145 0.475145 -0.475145
v 0.475145 -0.475145 -0.475145
v -0.475145 -0.475145 -0.475145
vt 0.701492 0.103000
vt 0.796466 0.068580
vt 0.701492 0.144383
vt 0.848781 0.104823
vt 0.701492 0.185767
vt 0.756669 0.185767
vt 0.701492 0.227150
vt 0.756669 0.227150
vt 0.701492 0.268533
vt 0.756669 0.268533
vt 0.847641 0.105989
vt 0.797895 0.071681
vt 0.646866 0.103000
vt 0.646866 0.144383
vt 0.851710 0.188485
vt 0.756669 0.103000
vt 0.756669 0.144383
vt 0.701492 0.144383
vt 0.701492 0.144383
vt 0.756669 0.144383
vt 0.756669 0.185767
vt 0.850375 0.185588
vt 0.701492 0.185767
vt 0.756669 0.185767
vt 0.756669 0.227150
vt 0.701492 0.227150
vt 0.701492 0.227150
vt 0.756669 0.227150
vt 0.756669 0.268533
vt 0.701492 0.268533
vt 0.756669 0.103000
vt 0.797001 0.157766
vt 0.812398 0.144383
vt 0.756669 0.144383
vt 0.646866 0.103000
vt 0.701492 0.103000
vt 0.701492 0.144383
vt 0.646866 0.144383
vt 0.798470 0.156264
vt 0.756669 0.103000
vt 0.756669 0.144383
vt 0.701492 0.144383
vt 0.701492 0.144383
vt 0.756669 0.144383
vt 0.756669 0.185767
vt 0.720592 0.177978
vt 0.701492 0.185767
vt 0.756669 0.185767
vt 0.756669 0.227150
vt 0.723421 0.097063
vt 0.724883 0.097919
vt 0.756669 0.227150
vt 0.756669 0.268533
vt 0.701492 0.268533
vt 0.756669 0.103000
vt 0.595284 0.083514
vt 0.812398 0.144383
vt 0.756669 0.144383
vt 0.660220 0.059979
vt 0.701492 0.103000
vt 0.701492 0.144383
vt 0.646866 0.144383
vt 0.704493 0.258446
vt 0.778622 0.236697
vt 0.778060 0.238061
vt 0.707708 0.258633
vt 0.830397 0.265769
vt 0.827316 0.265590
vt 0.759035 0.284233
vt 0.759461 0.283198
vt 0.708987 0.179249
vt 0.776252 0.154981
vt 0.777597 0.155882
vt 0.710371 0.180060
vt 0.825890 0.189063
vt 0.761027 0.209814
vt 0.759817 0.209102
vt 0.824760 0.188265
vt 0.779468 0.155229
vt 0.826546 0.187696
vt 0.758200 0.209624
vt 0.708720 0.180672
vt 0.658509 0.062446
vt 0.596754 0.084726
vt 0.660685 0.137468
vt 0.658867 0.135968
vt 0.592628 0.157436
vt 0.594296 0.155030
vt 0.705390 0.163994
vt 0.643094 0.180160
vt 0.643100 0.178359
vt 0.705344 0.162106
vt 0.643430 0.110466
vt 0.702970 0.091274
vt 0.703043 0.093004
vt 0.643420 0.112133
vt 0.704683 0.092482
vt 0.707059 0.161641
vt 0.641554 0.178747
vt 0.641936 0.112613
vt 0.722125 0.178732
vt 0.776755 0.206902
vt 0.722069 0.180945
vt 0.776762 0.204829
vt 0.778409 0.129360
vt 0.778095 0.205446
vt 0.777130 0.128607
vt 0.724971 0.095900
vt 0.777142 0.126688
vn 0.000000 0.000000 1.000000
vn 0.000000 0.000000 1.000000
vn 0.000000 0.000000 1.000000
vn 0.000000 0.000000 1.000000
vn 0.000000 0.000000 1.000000
vn 0.000000 0.000000 1.000000
vn 0.000000 0.000000 1.000000
vn 0.000000 0.000000 1.000000
vn 0.000000 0.000000 1.000000
vn 0.000000 0.000000 1.000000
vn 0.000000 0.000000 1.000000
vn 0.000000 0.000000 1.000000
vn 0.000000 0.000000 1.000000
vn 0.000000 0.000000 1.000000
vn 0.000000 0.000000 1.000000
vn 0.000000 0.000000 1.000000
vn 0.000000 1.000000 0.000000
vn 0.000000 1.000000 0.000000
vn 0.000000 1.000000 0.000000
vn 0.000000 1.000000 0.000000
vn 0.000000 1.000000 0.000000
vn 0.000000 1.000000 0.000000
vn 0.000000 1.000000 0.000000
vn 0.000000 1.000000 0.000000
vn 0.000000 1.000000 0.000000
vn 0.000000 1.000000 0.000000
vn 0.000000 0.000000 -1.000000
vn 0.000000 0.000000 -1.000000
vn 0.000000 0.000000 -1.000000
vn 0.000000 0.000000 -1.000000
vn 0.000000 0.000000 -1.000000
vn 0.000000 0.000000 -1.000000
vn 0.000000 0.000000 -1.000000
vn 0.000000 0.000000 -1.000000
vn 0.000000 -1.000000 0.000000
vn 0.000000 -1.000000 0.000000
vn 0.000000 -1.000000 0.000000
vn 0.000000 -1.000000 0.000000
vn 0.000000 -1.000000 0.000000
vn 0.000000 -1.000000 0.000000
vn 0.000000 -1.000000 0.000000
vn 0.000000 -1.000000 0.000000
vn 1.000000 0.000000 0.000000
vn 1.000000 0.000000 0.000000
vn 1.000000 0.000000 0.000000
vn 1.000000 0.000000 0.000000
vn 1.000000 0.000000 0.000000
vn 1.000000 0.000000 0.000000
vn 1.000000 0.000000 0.000000
vn 1.000000 0.000000 0.000000
vn -1.000000 0.000000 0.000000
vn -1.000000 0.000000 0.000000
vn -1.000000 0.000000 0.000000
vn -1.000000 0.000000 0.000000
vn -1.000000 0.000000 0.000000
vn -1.000000 0.000000 0.000000
vn -1.000000 0.000000 0.000000
vn -1.000000 0.000000 0.000000
vn 0.000000 0.999983 -0.005824
vn 0.000000 0.999983 -0.005827
vn 0.000000 0.999983 -0.005824
vn 0.000000 0.999983 -0.005827
vn -0.999983 0.000000 -0.005825
vn -0.999983 0.000000 -0.005825
vn -0.999983 0.000000 -0.005825
vn -0.999983 0.000000 -0.005825
vn 0.000000 -0.999983 -0.005824
vn 0.000000 -0.999983 -0.005827
vn 0.000000 -0.999983 -0.005824
vn 0.000000 -0.999983 -0.005827
vn 0.999983 0.000000 -0.005825
vn 0.999983 0.000000 -0.005825
vn 0.999983 0.000000 -0.005825
vn 0.999983 0.000000 -0.005825
vn 0.000000 -0.005825 -0.999983
vn 0.000000 -0.005825 -0.999983
vn 0.000000 -0.005825 -0.999983
vn 0.000000 -0.005825 -0.999983
vn -0.999983 -0.005824 0.000000
vn -0.999983 -0.005827 0.000000
vn -0.999983 -0.005824 0.000000
vn -0.999983 -0.005827 0.000000
vn 0.000000 -0.005825 0.999983
vn 0.000000 -0.005825 0.999983
vn 0.000000 -0.005825 0.999983
vn 0.000000 -0.005825 0.999983
vn 0.999983 -0.005824 0.000000
vn 0.999983 -0.005827 0.000000
vn 0.999983 -0.005824 0.000000
vn 0.999983 -0.005827 0.000000
vn 0.000000 -0.999983 0.005824
vn 0.000000 -0.999983 0.005827
vn 0.000000 -0.999983 0.005824
vn 0.000000 -0.999983 0.005827
vn -0.999983 0.000000 0.005825
vn -0.999983 0.000000 0.005825
vn -0.999983 0.000000 0.005825
vn -0.999983 0.000000 0.005825
vn 0.000000 0.999983 0.005824
vn 0.000000 0.999983 0.005827
vn 0.000000 0.999983 0.005824
vn 0.000000 0.999983 0.005827
vn 0.999983 0.000000 0.005825
vn 0.999983 0.000000 0.005825
vn 0.999983 0.000000 0.005825
vn 0.999983 0.000000 0.005825
vn 0.000000 0.005825 0.999983
vn 0.000000 0.005825 0.999983
vn 0.000000 0.005825 0.999983
vn 0.000000 0.005825 0.999983
vn -0.999983 0.005824 0.000000
vn -0.999983 0.005827 0.000000
vn -0.999983 0.005824 0.000000
vn -0.999983 0.005827 0.000000
vn 0.000000 0.005825 -0.999983
vn 0.000000 0.005825 -0.999983
vn 0.000000 0.005825 -0.999983
vn 0.000000 0.005825 -0.999983
vn 0.999983 0.005824 0.000000
vn 0.999983 0.005827 0.000000
vn 0.999983 0.005824 0.000000
vn 0.999983 0.005827 0.000000
vn -0.005825 0.999983 0.000000
vn -0.005825 0.999983 0.000000
vn -0.005825 0.999983 0.000000
vn -0.005825 0.999983 0.000000
vn -0.005824 0.000000 0.999983
vn -0.005827 0.000000 0.999983
vn -0.005824 0.000000 0.999983
vn -0.005827 0.000000 0.999983
vn -0.005825 -0.999983 0.000000
vn -0.005825 -0.999983 0.000000
vn -0.005825 -0.999983 0.000000
vn -0.005825 -0.999983 0.000000
vn -0.005824 0.000000 -0.999983
vn -0.005827 0.000000 -0.999983
vn -0.005824 0.000000 -0.999983
vn -0.005827 0.000000 -0.999983
vn 0.005825 0.999983 0.000000
vn 0.005825 0.999983 0.000000
vn 0.005825 0.999983 0.000000
vn 0.005825 0.999983 0.000000
vn 0.005824 0.000000 -0.999983
vn 0.005827 0.000000 -0.999983
vn 0.005824 0.000000 -0.999983
vn 0.005827 0.000000 -0.999983
vn 0.005825 -0.999983 0.000000
vn 0.005825 -0.999983 0.000000
vn 0.005825 -0.999983 0.000000
vn 0.005825 -0.999983 0.000000
vn 0.005824 0.000000 0.999983
vn 0.005827 0.000000 0.999983
vn 0.005824 0.000000 0.999983
vn 0.005827 0.000000 0.999983
f 1/56/1 2/59/2 9/84/3
f 9/84/3 2/59/2 10/83/4
f 2/59/5 4/85/6 10/83/7
f 10/83/7 4/85/6 11/86/8
f 4/85/9 3/87/10 11/86/11
f 11/86/11 3/87/10 12/88/12
f 3/87/13 1/56/14 12/88/15
f 12/88/15 1/56/14 9/84/16
f 3/63/17 4/64/18 13/66/19
f 13/66/19 4/64/18 14/65/20
f 4/64/21 6/67/22 14/65/23
f 14/65/23 6/67/22 15/68/24
f 6/67/22 5/69/25 15/68/24
f 15/68/24 5/69/25 16/70/26
f 5/69/25 3/63/17 16/70/26
f 16/70/26 3/63/17 13/66/19
f 5/5/27 6/6/28 17/23/29
f 17/23/29 6/6/28 18/24/30
f 6/6/28 8/8/31 18/24/30
f 18/24/30 8/8/31 19/25/32
f 8/8/31 7/7/33 19/25/32
f 19/25/32 7/7/33 20/26/34
f 7/7/33 5/5/27 20/26/34
f 20/26/34 5/5/27 17/23/29
f 7/7/35 8/8/36 21/27/37
f 21/27/37 8/8/36 22/28/38
f 8/8/36 2/10/39 22/28/38
f 22/28/38 2/10/39 23/29/40
f 2/10/39 1/9/41 23/29/40
f 23/29/40 1/9/41 24/30/42
f 1/9/41 7/7/35 24/30/42
f 24/30/42 7/7/35 21/27/37
f 2/2/43 8/4/44 26/12/45
f 26/12/45 8/4/44 25/11/46
f 8/4/44 6/15/47 25/11/46
f 25/11/46 6/15/47 27/22/48
f 6/15/47 4/32/49 27/22/48
f 27/22/48 4/32/49 28/39/50
f 4/32/49 2/2/43 28/39/50
f 28/39/50 2/2/43 26/12/45
f 7/13/51 1/1/52 29/35/53
f 29/35/53 1/1/52 30/36/54
f 1/1/52 3/3/55 30/36/54
f 30/36/54 3/3/55 31/37/56
f 3/3/55 5/14/57 31/37/56
f 31/37/56 5/14/57 32/38/58
f 5/14/57 7/13/51 32/38/58
f 32/38/58 7/13/51 29/35/53
f 9/71/59 10/72/60 33/74/61
f 33/74/61 10/72/60 34/73/62
f 10/16/63 11/17/64 34/40/65
f 34/40/65 11/17/64 35/41/66
f 11/17/67 12/18/68 35/41/69
f 35/41/69 12/18/68 36/42/70
f 12/46/71 9/50/72 36/101/73
f 36/101/73 9/50/72 33/51/74
f 13/19/75 14/20/76 36/43/77
f 36/43/77 14/20/76 35/44/78
f 14/20/79 15/21/80 35/44/81
f 35/44/81 15/21/80 37/45/82
f 15/89/83 16/90/84 37/92/85
f 37/92/85 16/90/84 38/91/86
f 16/102/87 13/103/88 38/104/89
f 38/104/89 13/103/88 36/101/90
f 17/23/91 18/24/92 38/47/93
f 38/47/93 18/24/92 37/48/94
f 18/24/95 19/25/96 37/48/97
f 37/48/97 19/25/96 39/49/98
f 19/75/99 20/76/100 39/78/101
f 39/78/101 20/76/100 40/77/102
f 20/105/103 17/106/104 40/107/105
f 40/107/105 17/106/104 38/104/106
f 21/93/107 22/94/108 40/96/109
f 40/96/109 22/94/108 39/95/110
f 22/28/111 23/29/112 39/52/113
f 39/52/113 23/29/112 34/53/114
f 23/29/115 24/30/116 34/53/117
f 34/53/117 24/30/116 33/54/118
f 24/108/119 21/109/120 33/51/121
f 33/51/121 21/109/120 40/107/122
f 26/79/123 25/80/124 34/73/125
f 34/73/125 25/80/124 39/78/126
f 25/97/127 27/98/128 39/95/129
f 39/95/129 27/98/128 37/92/130
f 27/33/131 28/34/132 37/57/133
f 37/57/133 28/34/132 35/58/134
f 28/34/135 26/31/136 35/58/137
f 35/58/137 26/31/136 34/55/138
f 29/81/139 30/82/140 40/77/141
f 40/77/141 30/82/140 33/74/142
f 30/36/143 31/37/144 33/60/145
f 33/60/145 31/37/144 36/61/146
f 31/37/147 32/38/148 36/61/149
f 36/61/149 32/38/148 38/62/150
f 32/99/151 29/100/152 38/91/153
f 38/91/153 29/100/152 40/96/154
