# This file uses centimeters as units for non-parametric coordinates.

v 0.000000 0.000000 0.000000
v -0.369380 0.000000 -0.369380
v -0.500000 0.000000 -0.175969
v -0.194964 0.000000 -0.500000
v 0.385822 0.000000 -0.385822
v 0.500000 0.000000 -0.181592
v 0.175856 0.000000 -0.500000
v 0.160247 0.000000 0.500000
v 0.376074 0.000000 0.376074
v 0.500000 0.000000 0.189807
v -0.500000 0.000000 0.186906
v -0.382458 0.000000 0.382458
v -0.154881 0.000000 0.500000
vt 0.500000 0.500000
vt 0.130620 0.869380
vt 0.000000 0.675969
vt 0.305039 1.000000
vt 0.885822 0.885822
vt 1.000000 0.681592
vt 0.675857 1.000000
vt 0.876074 0.123926
vt 0.660247 0.000000
vt 1.000000 0.310193
vt 0.000000 0.313094
vt 0.117542 0.117542
vt 0.345119 0.000000
vn 0.000000 1.000000 0.000000
vn 0.000000 1.000000 0.000000
vn 0.000000 1.000000 0.000000
vn 0.000000 1.000000 0.000000
vn 0.000000 1.000000 0.000000
vn 0.000000 1.000000 0.000000
vn 0.000000 1.000000 0.000000
vn 0.000000 1.000000 0.000000
vn 0.000000 1.000000 0.000000
vn 0.000000 1.000000 0.000000
vn 0.000000 1.000000 0.000000
vn 0.000000 1.000000 0.000000
vn 0.000000 1.000000 0.000000
vn 0.000000 1.000000 0.000000
vn 0.000000 1.000000 0.000000
vn 0.000000 1.000000 0.000000
vn 0.000000 1.000000 0.000000
vn 0.000000 1.000000 0.000000
vn 0.000000 1.000000 0.000000
vn 0.000000 1.000000 0.000000
vn 0.000000 1.000000 0.000000
vn 0.000000 1.000000 0.000000
vn 0.000000 1.000000 0.000000
vn 0.000000 1.000000 0.000000
vn 0.000000 1.000000 0.000000
vn 0.000000 1.000000 0.000000
vn 0.000000 1.000000 0.000000
vn 0.000000 1.000000 0.000000
vn 0.000000 1.000000 0.000000
vn 0.000000 1.000000 0.000000
vn 0.000000 1.000000 0.000000
vn 0.000000 1.000000 0.000000
vn 0.000000 1.000000 0.000000
vn 0.000000 1.000000 0.000000
vn 0.000000 1.000000 0.000000
vn 0.000000 1.000000 0.000000
f 1/1/1 11/11/2 12/12/3
f 7/7/4 1/1/5 5/5/6
f 1/1/7 6/6/8 5/5/9
f 13/13/10 1/1/11 12/12/12
f 3/3/13 1/1/14 2/2/15
f 1/1/16 10/10/17 6/6/18
f 11/11/19 1/1/20 3/3/21
f 10/10/22 1/1/23 9/8/24
f 1/1/25 4/4/26 2/2/27
f 8/9/28 1/1/29 13/13/30
f 1/1/31 7/7/32 4/4/33
f 1/1/34 8/9/35 9/8/36
