# This file uses centimeters as units for non-parametric coordinates.

v 0.091393 0.420462 -0.000000
v 0.143208 0.385053 -0.000000
v 0.154191 0.477183 -0.000000
v 0.246808 0.480363 -0.000000
v 0.348359 0.404078 -0.000000
v 0.368340 0.366551 -0.000000
v 0.334198 0.340426 -0.000000
v 0.273235 0.407404 -0.000000
v 0.193271 0.430217 -0.000000
v 0.141133 0.355393 -0.000000
v 0.231171 0.311070 -0.000000
v 0.188770 0.200661 -0.000000
v 0.295225 0.040054 -0.000000
v 0.311495 -0.143307 -0.000000
v 0.189655 -0.327358 -0.000000
v -0.076892 -0.378201 -0.000000
v -0.280603 -0.243588 -0.000000
v -0.320839 -0.011786 -0.000000
v -0.216331 0.191646 -0.000000
v -0.053635 0.260632 -0.000000
v -0.017573 0.384941 -0.000000
v 0.072164 0.370185 -0.000000
v 0.065175 0.438378 -0.000000
v 0.282288 0.290012 -0.000000
v 0.041045 0.410889 -0.000000
v -0.048483 0.415838 -0.000000
v -0.104317 0.283730 -0.000000
v -0.179628 0.270719 -0.000000
v -0.290191 0.186844 -0.000000
v -0.388258 0.010315 -0.000000
v -0.205201 -0.428033 -0.000000
v 0.024727 -0.462721 -0.000000
v 0.163599 -0.435417 -0.000000
v 0.318039 -0.324404 -0.000000
v 0.384489 -0.167493 -0.000000
v 0.385947 0.026379 -0.000000
v 0.255873 0.185640 -0.000000
v 0.256879 0.500000 -0.000000
v 0.251261 0.331468 -0.000000
v 0.203232 0.363518 -0.000000
v 0.239106 0.374761 -0.000000
v 0.302638 0.314796 -0.000000
v 0.354313 0.272025 -0.000000
v 0.423408 0.289578 -0.000000
v 0.439265 0.350728 -0.000000
v 0.359679 0.432907 -0.000000
v 0.121396 0.500000 -0.000000
v -0.377721 -0.182539 -0.000000
vt 0.643208 0.885053
vt 0.591393 0.920462
vt 0.654191 0.977183
vt 0.746808 0.980363
vt 0.848359 0.904078
vt 0.868340 0.866551
vt 0.834198 0.840426
vt 0.773235 0.907404
vt 0.693271 0.930217
vt 0.731171 0.811070
vt 0.688770 0.700661
vt 0.795225 0.540054
vt 0.811495 0.356693
vt 0.689655 0.172642
vt 0.423108 0.121799
vt 0.219397 0.256412
vt 0.179161 0.488214
vt 0.283669 0.691646
vt 0.446365 0.760632
vt 0.482427 0.884941
vt 0.572164 0.870185
vt 0.641133 0.855393
vt 0.565175 0.938378
vt 0.541045 0.910889
vt 0.451517 0.915838
vt 0.395683 0.783730
vt 0.320372 0.770719
vt 0.209809 0.686844
vt 0.111742 0.510315
vt 0.294799 0.071967
vt 0.524727 0.037279
vt 0.663599 0.064583
vt 0.818038 0.175596
vt 0.884489 0.332507
vt 0.885947 0.526379
vt 0.755873 0.685640
vt 0.782301 0.790003
vt 0.751270 0.831461
vt 0.703236 0.863515
vt 0.739111 0.874758
vt 0.802646 0.814791
vt 0.854318 0.772022
vt 0.923408 0.789578
vt 0.939265 0.850728
vt 0.859679 0.932907
vt 0.756879 1.000000
vt 0.621396 1.000000
vt 0.122279 0.317461
vn 0.000000 0.000000 1.000000
vn 0.000000 0.000000 1.000000
vn 0.000000 0.000000 1.000000
vn 0.000000 0.000000 1.000000
vn 0.000000 0.000000 1.000000
vn 0.000000 0.000000 1.000000
vn 0.000000 0.000000 1.000000
vn 0.000000 0.000000 1.000000
vn 0.000000 0.000000 1.000000
vn 0.000000 0.000000 1.000000
vn 0.000000 0.000000 1.000000
vn 0.000000 0.000000 1.000000
vn 0.000000 0.000000 1.000000
vn 0.000000 0.000000 1.000000
vn 0.000000 0.000000 1.000000
vn 0.000000 0.000000 1.000000
vn 0.000000 0.000000 1.000000
vn 0.000000 0.000000 1.000000
vn 0.000000 0.000000 1.000000
vn 0.000000 0.000000 1.000000
vn 0.000000 0.000000 1.000000
vn 0.000000 0.000000 1.000000
vn 0.000000 0.000000 1.000000
vn 0.000000 0.000000 1.000000
vn 0.000000 0.000000 1.000000
vn 0.000000 0.000000 1.000000
vn 0.000000 0.000000 1.000000
vn 0.000000 0.000000 1.000000
vn 0.000000 0.000000 1.000000
vn 0.000000 0.000000 1.000000
vn 0.000000 0.000000 1.000000
vn 0.000000 0.000000 1.000000
vn -0.000000 0.000000 1.000000
vn -0.000000 0.000000 1.000000
vn -0.000000 0.000000 1.000000
vn 0.000000 0.000000 1.000000
vn 0.000000 0.000000 1.000000
vn 0.000000 0.000000 1.000000
vn 0.000000 0.000000 1.000000
vn 0.000000 0.000000 1.000000
vn 0.000000 0.000000 1.000000
vn 0.000000 0.000000 1.000000
vn 0.000000 0.000000 1.000000
vn 0.000000 0.000000 1.000000
vn 0.000000 0.000000 1.000000
vn 0.000000 0.000000 1.000000
vn 0.000000 0.000000 1.000000
vn -0.000000 0.000000 1.000000
vn -0.000000 0.000000 1.000000
vn -0.000000 0.000000 1.000000
vn 0.000000 0.000000 1.000000
vn 0.000000 0.000000 1.000000
vn 0.000000 0.000000 1.000000
vn 0.000000 0.000000 1.000000
vn 0.000000 0.000000 1.000000
vn 0.000000 0.000000 1.000000
vn 0.000000 0.000000 1.000000
vn 0.000000 0.000000 1.000000
vn 0.000000 0.000000 1.000000
vn 0.000000 0.000000 1.000000
vn 0.000000 0.000000 1.000000
vn 0.000000 0.000000 1.000000
vn 0.000000 0.000000 1.000000
vn 0.000000 0.000000 1.000000
vn 0.000000 0.000000 1.000000
vn 0.000000 0.000000 1.000000
vn 0.000000 0.000000 1.000000
vn 0.000000 0.000000 1.000000
vn 0.000000 0.000000 1.000000
vn 0.000000 0.000000 1.000000
vn 0.000000 0.000000 1.000000
vn 0.000000 0.000000 1.000000
vn 0.000000 0.000000 1.000000
vn 0.000000 0.000000 1.000000
vn 0.000000 0.000000 1.000000
vn 0.000000 0.000000 1.000000
vn 0.000000 0.000000 1.000000
vn 0.000000 0.000000 1.000000
vn 0.000000 0.000000 1.000000
vn 0.000000 0.000000 1.000000
vn 0.000000 0.000000 1.000000
vn 0.000000 0.000000 1.000000
vn 0.000000 0.000000 1.000000
vn 0.000000 0.000000 1.000000
vn 0.000000 0.000000 1.000000
vn 0.000000 0.000000 1.000000
vn 0.000000 0.000000 1.000000
vn 0.000000 0.000000 1.000000
vn 0.000000 0.000000 1.000000
vn 0.000000 0.000000 1.000000
vn 0.000000 0.000000 1.000000
vn 0.000000 0.000000 1.000000
vn 0.000000 0.000000 1.000000
vn 0.000000 0.000000 1.000000
vn 0.000000 0.000000 1.000000
vn 0.000000 0.000000 1.000000
vn 0.000000 0.000000 1.000000
vn 0.000000 0.000000 1.000000
vn 0.000000 0.000000 1.000000
vn 0.000000 0.000000 1.000000
vn 0.000000 0.000000 1.000000
vn 0.000000 0.000000 1.000000
vn 0.000000 0.000000 1.000000
vn 0.000000 0.000000 1.000000
f 44/43/1 6/6/2 43/42/3
f 43/42/3 6/6/2 7/7/4
f 45/44/5 6/6/6 44/43/7
f 45/44/8 46/45/9 6/6/10
f 6/6/10 46/45/9 5/5/11
f 5/5/12 46/45/13 4/4/14
f 4/4/14 46/45/13 38/46/15
f 16/15/16 31/30/17 32/31/18
f 17/16/19 31/30/20 16/15/21
f 31/30/22 17/16/23 48/48/24
f 19/18/25 28/27/26 29/28/27
f 17/16/28 18/17/29 48/48/30
f 48/48/30 18/17/29 30/29/31
f 19/18/32 29/28/33 18/17/34
f 18/17/34 29/28/33 30/29/35
f 34/33/36 15/14/37 33/32/38
f 33/32/39 15/14/40 32/31/41
f 32/31/41 15/14/40 16/15/42
f 15/14/43 34/33/44 14/13/45
f 14/13/45 34/33/44 35/34/46
f 35/34/47 36/35/48 14/13/49
f 14/13/49 36/35/48 13/12/50
f 19/18/51 20/19/52 28/27/53
f 28/27/53 20/19/52 27/26/54
f 20/19/55 21/20/56 27/26/57
f 27/26/57 21/20/56 26/25/58
f 26/25/59 21/20/60 25/24/61
f 25/24/61 21/20/60 22/21/62
f 47/47/63 3/3/64 38/46/65
f 38/46/65 3/3/64 4/4/66
f 23/23/67 1/2/68 47/47/69
f 47/47/69 1/2/68 3/3/70
f 22/21/71 1/2/72 25/24/73
f 25/24/73 1/2/72 23/23/74
f 12/11/75 13/12/76 37/36/77
f 37/36/77 13/12/76 36/35/78
f 41/40/79 8/8/80 9/9/81
f 10/22/82 40/39/83 2/1/84
f 2/1/85 40/39/86 9/9/87
f 9/9/87 40/39/86 41/40/88
f 12/11/89 37/36/90 11/10/91
f 11/10/91 37/36/90 24/37/92
f 11/10/93 24/37/94 39/38/95
f 43/42/96 7/7/97 42/41/98
f 41/40/99 42/41/98 8/8/100
f 8/8/100 42/41/98 7/7/97
f 10/22/101 11/10/102 40/39/103
f 40/39/103 11/10/102 39/38/104
