# This file uses centimeters as units for non-parametric coordinates.

v 0.020554 0.070758 0.136993
v 0.048735 0.080733 0.135435
v 0.063352 0.074195 0.135343
v -0.025142 0.067669 0.006203
v 0.003587 0.088033 -0.009127
v 0.047594 0.083349 0.025133
v -0.014629 -0.017712 -0.001747
v 0.016188 -0.011498 -0.019351
v 0.047915 -0.000855 0.007608
v 0.028523 -0.020443 0.097444
v 0.061515 -0.014513 0.104733
v 0.073853 -0.017299 0.091796
v 0.011960 0.036398 0.119727
v 0.064909 0.024073 0.140372
v 0.090702 0.018009 0.116963
v -0.025437 0.012508 0.003802
v -0.019508 0.025737 0.065145
v -0.016340 0.081378 0.067733
v 0.002203 0.095274 0.068347
v 0.038459 0.092025 0.059256
v 0.058137 0.018971 0.056160
v 0.050380 -0.028324 0.039794
v 0.021804 -0.036545 0.036656
v -0.000419 -0.034533 0.048755
v 0.053190 0.112020 0.090910
v 0.061263 0.099882 0.084307
v 0.076222 0.111104 0.045157
v 0.056858 0.117390 0.052998
v 0.049671 0.042298 0.009267
v 0.006606 0.038516 -0.024424
vt 0.419930 0.369050
vt 0.425634 0.351381
vt 0.455440 0.376315
vt 0.437478 0.386887
vt 0.441719 0.351869
vt 0.449649 0.337742
vt 0.461735 0.343115
vt 0.453468 0.359943
vt 0.475838 0.339372
vt 0.971380 0.939809
vt 0.965711 0.960140
vt 0.970759 0.915263
vt 0.953712 0.934794
vt 0.953064 0.954073
vt 0.958582 0.915870
vt 0.911745 0.937388
vt 0.905763 0.919919
vt 0.892123 0.912632
vt 0.899620 0.947623
vt 0.911777 0.912739
vt 0.907344 0.900144
vt 0.362073 0.323553
vt 0.374930 0.282921
vt 0.383928 0.296569
vt 0.378522 0.318668
vt 0.399767 0.280577
vt 0.396431 0.292824
vt 0.958460 0.899125
vt 0.444854 0.325167
vt 0.465348 0.305231
vt 0.948234 0.967502
vt 0.435203 0.415515
vt 0.395584 0.383534
vt 0.968615 0.978776
vt 0.472152 0.386332
vt 0.492839 0.322629
vt 0.982274 0.902298
vt 0.982274 0.902298
vt 0.984422 0.941881
vn -0.878185 0.357487 0.317798
vn -0.441652 0.871201 0.214367
vn -0.879721 0.374159 -0.293420
vn 0.045218 0.675943 -0.735565
vn 0.075427 -0.053899 0.995694
vn 0.751504 -0.144619 0.643682
vn 0.232561 0.951007 -0.203718
vn 0.980332 -0.173730 -0.093635
vn 0.029500 -0.486857 -0.872983
vn 0.157949 -0.974233 -0.161002
vn -0.540590 -0.714755 -0.443721
vn -0.664675 -0.718327 0.205459
vn 0.775239 -0.292992 -0.559608
vn 0.642821 -0.732694 -0.223475
vn 0.220614 -0.861139 0.458006
vn 0.067777 -0.308625 0.948766
vn -0.338441 -0.733055 0.589990
vn -0.582638 -0.256089 0.771331
vn 0.796117 -0.604489 -0.028111
vn 0.924715 -0.219131 0.311263
vn 0.034170 0.573930 0.818191
vn -0.535043 0.390884 0.748959
vn 0.790711 0.521047 0.321381
vn 0.950897 0.118591 -0.285888
vn 0.892147 0.145036 -0.427829
vn 0.839995 0.173430 -0.514132
vn 0.911731 -0.190464 0.363963
vn -0.921533 -0.186029 0.340839
vn -0.901936 -0.170148 -0.396939
vn 0.005320 0.081067 -0.996695
f 18/1/1 19/2/2 4/4/3
f 4/4/3 19/2/2 5/3/4
f 25/5/5 26/6/6 28/8/7
f 28/8/7 26/6/6 27/7/8
f 8/10/9 23/13/10 7/11/11
f 7/11/11 23/13/10 24/14/12
f 8/10/9 9/12/13 23/13/10
f 23/13/10 9/12/13 22/15/14
f 11/17/15 14/18/16 10/16/17
f 10/16/17 14/18/16 13/19/18
f 12/20/19 15/21/20 11/17/15
f 11/17/15 15/21/20 14/18/16
f 14/23/16 2/24/21 13/22/18
f 13/22/18 2/24/21 1/25/22
f 15/26/20 3/27/23 14/23/16
f 14/23/16 3/27/23 2/24/21
f 22/15/14 9/12/13 21/28/24
f 21/28/24 9/12/13 29/37/25
f 6/9/26 20/29/27 29/36/25
f 29/36/25 20/29/27 21/30/24
f 17/31/28 16/34/29 24/14/12
f 24/14/12 16/34/29 7/11/11
f 18/1/1 4/4/3 17/33/28
f 17/33/28 4/4/3 16/32/29
f 1/25/22 18/1/1 13/22/18
f 13/22/18 18/1/1 17/33/28
f 2/24/21 19/2/2 1/25/22
f 1/25/22 19/2/2 18/1/1
f 3/27/23 20/29/27 2/24/21
f 2/24/21 20/29/27 19/2/2
f 15/26/20 21/30/24 3/27/23
f 3/27/23 21/30/24 20/29/27
f 15/21/20 12/20/19 21/28/24
f 21/28/24 12/20/19 22/15/14
f 23/13/10 22/15/14 11/17/15
f 11/17/15 22/15/14 12/20/19
f 24/14/12 23/13/10 10/16/17
f 10/16/17 23/13/10 11/17/15
f 13/19/18 17/31/28 10/16/17
f 10/16/17 17/31/28 24/14/12
f 19/2/2 20/29/27 25/5/5
f 25/5/5 20/29/27 26/6/6
f 6/9/26 27/7/8 20/29/27
f 20/29/27 27/7/8 26/6/6
f 5/3/4 28/8/7 6/9/26
f 6/9/26 28/8/7 27/7/8
f 5/3/4 19/2/2 28/8/7
f 28/8/7 19/2/2 25/5/5
f 16/32/29 4/4/3 30/35/30
f 30/35/30 4/4/3 5/3/4
f 6/9/26 29/36/25 5/3/4
f 5/3/4 29/36/25 30/35/30
f 29/38/25 9/12/13 30/39/30
f 30/39/30 9/12/13 8/10/9
f 7/11/11 16/34/29 8/10/9
f 8/10/9 16/34/29 30/39/30
