# This file uses centimeters as units for non-parametric coordinates.

v -0.093674 -0.286364 0.086309
v -0.037870 -0.286364 0.127468
v 0.031107 -0.286364 0.127468
v 0.086911 -0.286364 0.086309
v 0.108227 -0.286364 0.019713
v 0.086911 -0.286364 -0.046884
v 0.031107 -0.286364 -0.088043
v -0.037870 -0.286364 -0.088043
v -0.093674 -0.286364 -0.046884
v -0.114990 -0.286364 0.019713
v -0.166084 -0.220091 0.139716
v -0.065528 -0.220091 0.213881
v 0.058765 -0.220091 0.213881
v 0.159321 -0.220091 0.139716
v 0.197729 -0.220091 0.019713
v 0.159321 -0.220091 -0.100290
v 0.058765 -0.220091 -0.174456
v -0.065528 -0.220091 -0.174456
v -0.169232 -0.220091 -0.108142
v -0.204493 -0.220091 0.019713
v -0.206268 -0.124323 0.169354
v -0.080877 -0.124323 0.246861
v 0.074114 -0.124323 0.251365
v 0.199505 -0.124323 0.169354
v 0.247400 -0.124323 0.019713
v 0.203034 -0.181533 -0.147763
v 0.117393 -0.182190 -0.208358
v -0.087190 -0.162614 -0.221278
v -0.206727 -0.148846 -0.121758
v -0.254163 -0.124323 0.019713
v -0.206268 -0.054521 0.169354
v -0.074070 -0.020139 0.230936
v 0.074114 -0.018030 0.251910
v 0.199505 -0.018030 0.169354
v 0.251890 -0.051218 0.044773
v 0.227605 -0.048550 -0.142330
v 0.074114 -0.018030 -0.222412
v -0.080877 -0.018030 -0.222412
v -0.236725 0.011339 -0.109757
v -0.265556 -0.078858 0.026451
v -0.171241 0.046127 0.144070
v -0.065528 0.077739 0.213881
v 0.053922 0.082620 0.212377
v 0.163144 0.044624 0.139677
v 0.216975 0.040343 0.025098
v 0.159321 0.034170 -0.100290
v 0.058765 0.041247 -0.174456
v -0.065528 0.046948 -0.174456
v -0.169629 0.093130 -0.073869
v -0.148035 0.111903 0.103219
v -0.049382 0.137896 0.165239
v 0.032509 0.135031 0.156995
v 0.136612 0.100001 0.135410
v 0.108227 0.144012 0.019713
v 0.086911 0.144012 -0.046884
v 0.031107 0.131586 -0.088043
v -0.037870 0.123486 -0.088043
v -0.093674 0.123384 -0.046884
v -0.003392 -0.313214 0.016374
v -0.003351 0.167665 0.019713
v -0.119714 -0.084613 0.045399
v -0.101071 -0.069316 0.052274
v -0.076577 -0.076092 0.066136
v -0.064310 -0.055018 0.085796
v -0.068408 -0.115009 0.077227
v -0.088043 -0.129881 0.069770
v -0.110262 -0.127931 0.057989
v -0.122047 -0.110301 0.048784
v -0.133602 -0.075491 0.021152
v -0.103328 -0.050684 0.032427
v -0.059970 -0.059584 0.056334
v -0.040696 -0.053193 0.082309
v -0.043976 -0.128322 0.076705
v -0.080763 -0.145976 0.060917
v -0.119843 -0.140208 0.040113
v -0.140631 -0.119842 0.025452
v -0.136861 -0.072526 -0.003402
v -0.092965 -0.022951 0.001159
v -0.044603 -0.050868 0.040341
v -0.020084 -0.052322 0.070413
v -0.025834 -0.137681 0.065359
v -0.071359 -0.161953 0.046252
v -0.120328 -0.155317 0.020205
v -0.146361 -0.127105 0.001448
v -0.128602 -0.076074 -0.023326
v -0.089589 -0.044649 -0.008733
v -0.036343 -0.054415 0.020418
v -0.010372 -0.092878 0.040684
v -0.017575 -0.141230 0.045435
v -0.063100 -0.165501 0.026329
v -0.112069 -0.158864 0.000282
v -0.138102 -0.130653 -0.018476
v -0.094290 -0.100375 0.066820
v 0.048393 -0.107279 0.085637
v 0.064578 -0.107381 0.108183
v 0.078843 -0.107728 0.074679
v 0.083786 -0.120871 0.075075
v 0.078459 -0.134464 0.079414
v 0.064325 -0.140095 0.085576
v 0.049664 -0.134464 0.089951
v 0.043065 -0.120871 0.089976
v 0.067416 -0.110035 0.086680
v 0.065621 -0.088400 0.092772
v 0.087767 -0.099872 0.059734
v 0.097405 -0.122487 0.059910
v 0.090428 -0.156254 0.068693
v 0.062337 -0.157128 0.078832
v 0.068455 -0.160492 0.095000
v 0.058605 -0.134051 0.094049
v 0.058213 -0.115302 0.104311
v 0.061307 -0.082180 0.078134
v 0.089977 -0.096156 0.043150
v 0.102552 -0.124823 0.043314
v 0.093204 -0.164639 0.054029
v 0.058823 -0.168018 0.066910
v 0.022640 -0.150531 0.076811
v 0.045630 -0.136384 0.084085
v 0.018768 -0.110769 0.058779
v 0.055510 -0.047763 0.073200
v 0.089162 -0.155958 0.025552
v 0.098208 -0.127414 0.028575
v 0.088860 -0.167231 0.039289
v 0.055880 -0.179590 0.081698
v 0.018296 -0.153123 0.062072
v 0.041285 -0.138976 0.069346
v 0.064392 -0.120295 0.085805
v -0.099164 0.121261 0.085772
v -0.005201 0.098743 0.160199
v 0.105706 0.056126 0.142955
v 0.175233 0.006490 0.048516
v 0.170849 -0.026939 -0.078930
v 0.094605 -0.028519 -0.179749
v 0.006256 0.002489 -0.204422
v -0.107402 0.032623 -0.136829
v -0.133515 0.089236 -0.030379
v -0.043414 0.304156 0.032770
v 0.061585 0.283712 0.099257
v 0.177521 0.236761 0.084503
v 0.250147 0.185274 -0.004591
v 0.245480 0.153340 -0.126335
v 0.165705 0.155904 -0.223765
v 0.048149 0.191763 -0.251291
v -0.052183 0.244141 -0.196035
v -0.088344 0.288528 -0.083850
v -0.036596 0.416544 0.033557
v 0.092609 0.391386 0.115373
v 0.135716 0.355009 -0.123271
v 0.235274 0.333612 0.097217
v 0.324644 0.270254 -0.012417
v 0.318902 0.230958 -0.162229
v 0.220735 0.234112 -0.282121
v 0.076075 0.278240 -0.315994
v -0.047387 0.342693 -0.247998
v -0.091884 0.397313 -0.109950
v -0.230174 -0.117277 -0.004954
v -0.267191 -0.091283 -0.029572
v -0.217737 -0.065745 -0.003539
v -0.272783 -0.048315 -0.037733
v -0.205301 -0.014211 -0.002125
v -0.248719 -0.014737 -0.027471
v -0.213296 -0.012283 0.014836
v -0.256713 -0.012807 -0.010510
v -0.225732 -0.063815 0.013422
v -0.280778 -0.046385 -0.020772
v -0.238168 -0.115348 0.012007
v -0.275186 -0.089354 -0.012611
v 0.219735 -0.153133 -0.005449
v 0.257993 -0.130497 -0.030411
v 0.209712 -0.101584 -0.005449
v 0.265483 -0.088122 -0.039615
v 0.199689 -0.050032 -0.005449
v 0.242926 -0.053000 -0.030411
v 0.207684 -0.048103 0.011512
v 0.250920 -0.051070 -0.013450
v 0.217707 -0.099653 0.011512
v 0.273477 -0.086192 -0.022654
v 0.227729 -0.151204 0.011512
v 0.265987 -0.128567 -0.013450
v 0.064367 0.316156 0.132753
v -0.062829 0.334114 0.049804
v 0.210401 0.263326 0.117213
v 0.294298 0.194821 0.005405
v 0.287041 0.155081 -0.142507
v 0.190277 0.158255 -0.260894
v 0.046551 0.197834 -0.288341
v -0.074343 0.265390 -0.227188
v -0.117346 0.317029 -0.090393
v -0.023556 -0.220091 -0.174456
v -0.233409 -0.030595 -0.051933
v -0.215607 -0.098610 -0.125016
v 0.236014 -0.033233 0.044773
v 0.180300 0.021947 0.085455
v -0.234392 -0.005610 0.029179
v -0.054787 0.118737 0.172731
v -0.148368 0.073798 0.123898
v 0.039474 0.116771 0.163657
v 0.140695 0.075602 0.132466
v 0.012955 -0.184290 -0.192383
v 0.203034 -0.135146 -0.141227
v 0.232014 -0.053253 -0.012791
v -0.039984 -0.127711 -0.244750
v 0.040487 -0.167218 -0.199500
v -0.080987 -0.097650 -0.244750
v 0.020492 -0.157502 -0.228400
v 0.033267 -0.127711 -0.244750
v 0.109779 -0.113357 -0.236537
v 0.199505 -0.057048 0.169354
v 0.192442 0.037716 -0.028257
v -0.171551 0.116584 0.020186
v -0.215597 0.044171 0.019279
vt 0.155643 0.686328
vt 0.203853 0.686328
vt 0.179959 0.731245
vt 0.093087 0.731245
vt 0.263444 0.686328
vt 0.287338 0.731245
vt 0.311654 0.686328
vt 0.374209 0.731245
vt 0.573297 0.704631
vt 0.600570 0.720759
vt 0.543977 0.760089
vt 0.513957 0.760089
vt 0.644185 0.720759
vt 0.622568 0.760089
vt 0.698096 0.720759
vt 0.719713 0.760089
vt 0.741711 0.720759
vt 0.798304 0.760089
vt 0.770044 0.706647
vt 0.828323 0.760089
vt 0.330068 0.686328
vt 0.407391 0.731245
vt 0.137228 0.686328
vt 0.059905 0.731245
vt 0.166698 0.796151
vt 0.058372 0.796151
vt 0.512570 0.816923
vt 0.475136 0.816923
vt 0.608891 0.807680
vt 0.731709 0.816923
vt 0.829711 0.816923
vt 0.867144 0.816923
vt 0.300598 0.796151
vt 0.408925 0.796151
vt 0.450302 0.796151
vt 0.016994 0.796151
vt 0.166698 0.868192
vt 0.512570 0.880004
vt 0.473456 0.851433
vt 0.610572 0.880004
vt 0.731709 0.880004
vt 0.789374 0.877483
vt 0.859712 0.875327
vt 0.058372 0.843460
vt 0.300598 0.868192
vt 0.403782 0.863985
vt 0.441887 0.856505
vt 0.016994 0.868192
vt 0.543977 0.910983
vt 0.513861 0.942719
vt 0.622568 0.915182
vt 0.719713 0.918566
vt 0.798304 0.936838
vt 0.179959 0.933098
vt 0.105032 0.911979
vt 0.287338 0.926309
vt 0.372863 0.899555
vt 0.430354 0.918779
vt 0.597386 0.962057
vt 0.575420 0.986341
vt 0.643124 0.952667
vt 0.697035 0.954916
vt 0.741711 0.963927
vt 0.671140 0.679869
vt 0.670127 0.988281
vt 0.203853 0.978015
vt 0.062347 0.969230
vt 0.263444 0.978015
vt 0.311654 0.978015
vt 0.330068 0.978015
vt 0.233648 0.639630
vt 0.233648 0.994045
vt 0.465236 0.735587
vt 0.474234 0.743659
vt 0.475517 0.751764
vt 0.460905 0.739106
vt 0.486057 0.740083
vt 0.494072 0.748793
vt 0.492679 0.731676
vt 0.504076 0.732639
vt 0.490000 0.719550
vt 0.501792 0.712524
vt 0.480522 0.711702
vt 0.484036 0.703210
vt 0.469798 0.712731
vt 0.468839 0.704098
vt 0.464110 0.722033
vt 0.458374 0.715490
vt 0.475790 0.758546
vt 0.456959 0.741964
vt 0.501490 0.753392
vt 0.514025 0.733098
vt 0.510549 0.707587
vt 0.488575 0.694780
vt 0.467096 0.699360
vt 0.452374 0.713167
vt 0.474385 0.763358
vt 0.452321 0.742895
vt 0.504182 0.757126
vt 0.518866 0.732934
vt 0.514535 0.705715
vt 0.489327 0.689674
vt 0.465260 0.694253
vt 0.447951 0.708707
vt 0.477507 0.727271
vt 0.259687 0.252325
vt 0.267589 0.257423
vt 0.268147 0.268320
vt 0.250733 0.261275
vt 0.275964 0.252067
vt 0.280734 0.256578
vt 0.278606 0.244521
vt 0.285886 0.243593
vt 0.275758 0.236717
vt 0.282156 0.224207
vt 0.268203 0.233484
vt 0.267141 0.223706
vt 0.260367 0.236717
vt 0.251288 0.232307
vt 0.256840 0.244521
vt 0.246023 0.247488
vt 0.269247 0.271664
vt 0.245065 0.263408
vt 0.282369 0.258711
vt 0.289772 0.243161
vt 0.283640 0.219394
vt 0.265263 0.217454
vt 0.245922 0.227493
vt 0.239088 0.246148
vt 0.268060 0.277216
vt 0.240017 0.265100
vt 0.284362 0.262446
vt 0.292900 0.242355
vt 0.286541 0.215635
vt 0.262486 0.213468
vt 0.240648 0.224416
vt 0.233359 0.245114
vt 0.268239 0.244852
vt 0.338641 0.060733
vt 0.381301 0.046854
vt 0.413834 0.160300
vt 0.376059 0.178740
vt 0.419704 0.036270
vt 0.454394 0.149837
vt 0.227129 0.018284
vt 0.180936 0.021223
vt 0.206078 0.153654
vt 0.249532 0.142841
vt 0.127444 0.028760
vt 0.154317 0.173242
vt 0.071990 0.044948
vt 0.102955 0.189984
vt 0.017223 0.070170
vt 0.051016 0.204392
vt 0.459571 0.024561
vt 0.491985 0.138240
vt 0.264887 0.092159
vt 0.301781 0.077250
vt 0.346177 0.196834
vt 0.312908 0.214234
vt 0.264532 0.176807
vt 0.388019 0.217358
vt 0.218168 0.189206
vt 0.174131 0.256328
vt 0.159550 0.205274
vt 0.105744 0.223398
vt 0.050411 0.237781
vt 0.418302 0.203268
vt 0.417306 0.251080
vt 0.029463 0.845483
vt 0.029631 0.842693
vt 0.025801 0.842644
vt 0.034279 0.843710
vt 0.025559 0.845287
vt 0.025818 0.833940
vt 0.025917 0.837395
vt 0.029600 0.836855
vt 0.029500 0.833768
vt 0.025815 0.851690
vt 0.025819 0.839991
vt 0.029869 0.840187
vt 0.423466 0.834067
vt 0.432123 0.836827
vt 0.423158 0.834054
vt 0.423145 0.833825
vt 0.423494 0.833890
vt 0.423199 0.833249
vt 0.423466 0.833231
vt 0.423484 0.833479
vt 0.431146 0.837672
vt 0.423186 0.833477
vt 0.423500 0.833686
vt 0.423161 0.833642
vt 0.471295 0.189024
vt 0.511421 0.177769
vt 0.325590 0.253605
vt 0.356289 0.231454
vt 0.028922 0.851671
vt 0.030644 0.850421
vt 0.026705 0.849772
vt 0.030244 0.848822
vt 0.027595 0.847855
vt 0.031657 0.844745
vt 0.031261 0.846455
vt 0.035160 0.845761
vt 0.032965 0.847792
vt 0.036040 0.847813
vt 0.431228 0.837419
vt 0.431682 0.837485
vt 0.431498 0.837657
vt 0.431310 0.837165
vt 0.431621 0.837276
vt 0.432032 0.837102
vt 0.432540 0.837174
vt 0.432472 0.836948
vt 0.431940 0.837378
vt 0.432334 0.837362
vt 0.379443 0.189667
vt 0.415482 0.176146
vt 0.461918 0.167283
vt 0.498853 0.152209
vt 0.254833 0.154844
vt 0.210092 0.165458
vt 0.156063 0.183932
vt 0.103653 0.198343
vt 0.050814 0.215517
vt 0.317134 0.227353
vt 0.349252 0.207363
vt 0.686908 0.760089
vt 0.808965 0.846737
vt 0.835650 0.872422
vt 0.436586 0.895864
vt 0.399814 0.904286
vt 0.855564 0.895019
vt 0.015427 0.877934
vt 0.093981 0.933525
vt 0.195141 0.956925
vt 0.273537 0.951461
vt 0.360410 0.919120
vt 0.665095 0.790579
vt 0.490295 0.851433
vt 0.512570 0.844452
vt 0.485833 0.871478
vt 0.646381 0.790263
vt 0.699662 0.816923
vt 0.731709 0.834764
vt 0.668645 0.807283
vt 0.642411 0.816923
vt 0.610572 0.836329
vt 0.405670 0.839084
vt 0.526676 0.929214
vt 0.787394 0.967425
vt 0.012696 0.973396
vt 0.840175 0.920697
vt 0.013986 0.940528
vn -0.392703 -0.889599 0.233234
vn -0.178634 -0.891537 0.416236
vn -0.615692 -0.615203 0.492391
vn -0.196838 -0.654223 0.730238
vn 0.148909 -0.879681 0.451650
vn 0.190023 -0.569544 0.799694
vn 0.392693 -0.889605 0.233228
vn 0.615873 -0.618825 0.487602
vn 0.421591 -0.906786 -0.000346
vn 0.686939 -0.726707 0.003423
vn 0.394697 -0.888184 -0.235250
vn 0.416511 -0.830881 -0.368992
vn -0.421610 -0.906777 -0.000346
vn -0.731996 -0.680972 -0.021431
vn -0.381460 -0.882319 -0.275684
vn -0.576606 -0.676482 -0.458146
vn -0.314655 -0.176091 0.932730
vn -0.795536 -0.248064 0.552798
vn -0.000012 -0.999993 -0.003636
vn 0.179839 -0.889248 -0.420589
vn -0.087462 -0.876013 -0.474291
vn -0.417107 0.508930 0.753002
vn -0.462840 0.722775 0.513202
vn -0.684282 0.308935 0.660543
vn -0.821806 0.425499 0.378927
vn -0.654503 0.656151 0.375621
vn -0.335290 0.895862 0.291569
vn -0.626550 0.635277 0.451507
vn 0.028297 0.674595 0.737645
vn -0.142137 -0.204001 0.968597
vn 0.157225 -0.365318 0.917509
vn -0.327775 -0.277906 0.902957
vn -0.246116 -0.598225 0.762597
vn -0.566646 -0.289287 0.771508
vn -0.608452 -0.529310 0.591284
vn -0.705462 -0.021314 0.708427
vn -0.895472 -0.086504 0.436631
vn -0.854183 0.500904 -0.139523
vn -0.187329 0.952733 -0.239183
vn 0.090599 0.993015 0.075585
vn 0.723387 0.528889 0.443833
vn 0.643439 -0.436208 0.629054
vn -0.031199 -0.864033 0.502467
vn -0.545858 -0.801415 0.244487
vn -0.949509 -0.293010 -0.112155
vn 0.036181 0.793652 -0.607295
vn -0.832648 0.370944 -0.411216
vn 0.461606 0.869708 -0.174726
vn 0.978385 0.087601 0.187321
vn 0.603417 -0.703519 0.375431
vn -0.007696 -0.985030 0.172210
vn -0.533359 -0.842904 -0.070997
vn -0.889452 -0.337029 -0.308686
vn -0.563162 0.176214 0.807340
vn -0.541274 0.462309 0.702348
vn 0.239922 -0.094210 0.966210
vn 0.594988 0.050424 -0.802151
vn 0.531636 0.520849 0.667892
vn 0.807301 0.055657 0.587510
vn 0.789869 0.451050 0.415525
vn 0.649716 0.170104 0.740901
vn 0.861539 0.165119 0.480091
vn 0.542000 -0.101542 0.834221
vn 0.662755 -0.393767 0.636948
vn 0.630051 0.021150 0.776265
vn 0.396422 -0.708249 0.584152
vn 0.802431 0.400536 0.442352
vn 0.483077 -0.341147 0.806384
vn 0.666073 -0.068551 -0.742730
vn 0.484501 -0.614068 -0.623040
vn -0.108168 0.835049 0.539438
vn -0.269795 0.024955 0.962595
vn 0.626840 0.700041 -0.342072
vn 0.999942 -0.009873 0.004229
vn 0.825102 -0.424401 0.372949
vn 0.301383 -0.259974 0.917378
vn -0.617219 0.019909 0.786540
vn -0.711099 -0.069483 0.699650
vn -0.729693 -0.027492 0.683222
vn 0.403955 0.196145 0.893503
vn -0.189205 0.450346 -0.872577
vn 0.673792 0.181782 -0.716212
vn 0.828513 -0.539693 -0.149323
vn 0.233930 -0.122701 0.964480
vn -0.957055 0.129636 0.259307
vn -0.831013 0.535424 0.150793
vn 0.328086 -0.102756 0.939042
vn -0.231032 -0.821992 -0.520532
vn -0.392977 -0.436073 -0.809574
vn 0.502633 -0.097721 -0.858959
vn -0.223035 0.086565 -0.970959
vn -0.098199 0.611549 -0.785089
vn 0.262245 0.844635 -0.466711
vn -0.469740 0.817665 0.332820
vn -0.326129 0.774073 0.542633
vn -0.502632 0.097720 0.858960
vn -0.970142 0.240614 0.030473
vn -0.825265 -0.482352 0.293725
vn -0.695204 -0.520577 0.495672
vn 0.181823 -0.850861 -0.492926
vn -0.502632 -0.097723 -0.858960
vn 0.372414 -0.476962 -0.796125
vn 0.232422 0.050129 -0.971322
vn -0.222737 0.844967 -0.486229
vn 0.131490 0.585698 -0.799793
vn 0.357003 0.771487 0.526646
vn 0.504679 0.802873 0.317324
vn 0.502631 0.097723 0.858960
vn 0.980044 0.196484 0.030119
vn 0.659916 -0.545156 0.517026
vn 0.795928 -0.517508 0.314140
vn -0.142145 0.355666 0.923741
vn 0.432085 0.122342 0.893496
vn -0.295776 -0.123479 0.947243
vn 0.259464 -0.518107 0.815012
vn 0.855360 -0.205522 0.475521
vn 0.588228 -0.721669 0.364941
vn 0.868052 -0.420425 -0.264063
vn 0.430530 -0.898424 -0.086476
vn 0.476781 -0.373702 -0.795630
vn 0.224787 -0.763435 -0.605506
vn -0.198220 -0.200265 -0.959480
vn -0.356510 -0.676740 -0.644145
vn -0.784318 0.031330 -0.619567
vn -0.807769 -0.448451 -0.382624
vn 0.914936 0.300280 0.269676
vn 0.950203 0.123674 -0.286039
vn 0.335920 0.906024 -0.257445
vn 0.622304 0.117763 -0.773867
vn -0.047071 0.191639 -0.980336
vn -0.518294 0.581850 -0.626755
vn -0.643318 0.761617 -0.077993
vn -0.385476 0.806643 0.448036
vn 0.810778 -0.440278 -0.385738
vn 0.912553 -0.309105 0.267772
vn 0.316518 -0.389271 -0.865034
vn -0.219413 -0.244284 -0.944555
vn -0.674255 0.016908 -0.738305
vn 0.102594 -0.883124 0.457784
vn 0.104626 -0.982875 0.151691
vn -0.058529 -0.993140 -0.101225
vn -0.388781 -0.906847 -0.162723
vn -0.638816 -0.766323 -0.068286
vn -0.740594 0.380808 0.553630
vn -0.764506 -0.171665 0.621339
vn -0.969612 0.187464 -0.157194
vn -0.953689 -0.243023 0.177251
vn 0.144290 0.704886 0.694490
vn 0.598755 0.645509 0.474142
vn -0.599428 -0.639177 0.481808
vn -0.288842 -0.667056 0.686736
vn -0.271693 0.294189 0.916316
vn 0.498187 0.037251 0.866269
vn -0.950328 0.270743 -0.153543
vn -0.793110 0.354579 0.495227
vn -0.038195 -0.756559 0.652809
vn -0.714423 -0.684122 0.146891
vn 0.076309 -0.688696 -0.721023
vn -0.816848 -0.362370 -0.448829
vn -0.954533 -0.292905 -0.055440
vn 0.235205 0.251976 0.938716
vn 0.208460 0.690765 0.692379
vn -0.246492 0.411216 0.877578
vn -0.207681 0.791319 0.575051
vn 0.000000 -0.636842 -0.770994
vn -0.170674 -0.714940 -0.678035
vn 0.982649 -0.181572 0.037842
vn 0.776588 -0.473198 -0.415926
vn 0.265971 0.824658 0.499198
vn -0.182720 0.766079 0.616227
vn 0.244075 0.594871 0.765869
vn -0.370053 0.543095 0.753730
vn 0.144232 0.813252 -0.563754
vn -0.148538 0.846904 -0.510579
vn -0.042007 0.998310 -0.040167
vn 0.996696 0.037169 -0.072223
vn 0.819945 -0.244673 -0.517519
vn 0.952800 -0.110753 -0.282677
vn 0.292175 -0.608627 -0.737704
vn 0.574109 -0.569205 -0.588561
vn 0.188962 -0.608060 -0.771075
vn 0.194883 -0.723238 -0.662531
vn 0.231359 -0.493989 -0.838121
vn -0.415478 -0.502729 -0.758051
vn 0.524556 -0.267953 -0.808110
vn 0.048484 -0.530175 -0.846501
vn -0.887020 -0.113712 -0.447510
vn 0.876572 0.082983 -0.474063
vn 0.354723 -0.784237 -0.509062
vn 0.354723 -0.784237 -0.509062
vn 0.354723 -0.784237 -0.509062
vn -0.531055 -0.185192 -0.826852
vn -0.122439 -0.590911 -0.797391
vn -0.283612 -0.410020 -0.866861
vn -0.082989 -0.449876 -0.889227
vn 0.013158 -0.434199 -0.900721
vn -0.210468 -0.762814 -0.611406
vn -0.063711 -0.709335 -0.701986
vn 0.021282 -0.087389 -0.995947
vn 0.000000 -0.481134 -0.876647
vn 0.000000 -0.248347 -0.968671
vn 0.575449 0.615014 -0.539088
vn 0.156619 0.243419 -0.957193
vn 0.303656 0.504999 -0.807941
vn 0.300278 -0.160170 0.940308
vn 0.772434 -0.239412 0.588242
vn -0.266386 0.203419 0.942157
vn 0.342098 0.238616 0.908863
vn 0.777832 -0.033053 0.627603
vn 0.792143 0.447612 0.414913
vn 0.962126 0.263982 0.068025
vn 0.703316 0.564456 0.432129
vn 0.913976 0.270102 -0.302809
vn 0.436129 0.825234 -0.358861
vn 0.161776 0.678630 -0.716443
vn 0.528995 0.659474 -0.534095
vn 0.562630 -0.005611 0.826690
vn 0.591374 0.537372 0.601256
vn 0.644509 0.677228 0.354924
vn 0.831550 0.554575 0.031166
vn 0.525778 0.849357 -0.046371
vn 0.669799 0.672590 -0.314630
vn 0.675394 0.712582 -0.189919
vn 0.941906 0.225253 0.249146
vn 0.926445 0.300395 0.226855
vn 0.800150 0.176288 0.573308
vn 0.751019 0.660278 0.001785
vn 0.746321 0.650849 0.139286
vn -0.260718 0.924683 -0.277467
vn -0.289868 0.950246 -0.114058
vn -0.497058 0.786866 -0.365752
vn -0.195498 0.679347 -0.707297
vn -0.148033 0.434871 -0.888242
vn -0.108888 0.190012 -0.975725
vn -0.573471 0.667245 0.475304
vn -0.826175 0.562799 0.026324
vn -0.825955 0.499121 0.262060
vn -0.853182 0.518221 0.059389
vn -0.739849 0.228459 0.632795
vn -0.993565 0.072702 0.086847
vn -0.682405 0.507248 0.526331
vn -0.907396 0.387223 0.163373
vn -0.952679 0.089715 -0.290436
vn -0.617479 0.703491 0.351881
vn -0.819636 -0.144541 -0.554350
vn -0.995860 0.089114 -0.017946
vn -0.967044 -0.035012 -0.252190
vn -0.562830 0.566227 -0.602170
vn -0.758156 0.356971 0.545684
vn -0.929913 0.283178 0.234676
vn -0.913157 0.376035 0.157296
vn -0.730968 0.675391 0.097642
f 1/1/1 2/2/2 11/4/3
f 11/4/3 2/2/2 12/3/4
f 2/2/2 3/5/5 12/3/4
f 12/3/4 3/5/5 13/6/6
f 4/7/7 14/8/8 3/5/5
f 3/5/5 14/8/8 13/6/6
f 5/21/9 15/22/10 4/7/7
f 4/7/7 15/22/10 14/8/8
f 5/9/9 6/10/11 15/12/10
f 15/12/10 6/10/11 16/11/12
f 10/19/13 20/20/14 9/17/15
f 9/17/15 20/20/14 19/18/16
f 10/23/13 1/1/1 20/24/14
f 20/24/14 1/1/1 11/4/3
f 12/3/4 22/25/17 11/4/3
f 11/4/3 22/25/17 21/26/18
f 2/2/2 1/1/1 59/71/19
f 3/5/5 2/2/2 59/71/19
f 4/7/7 3/5/5 59/71/19
f 5/21/9 4/7/7 59/71/19
f 6/10/11 5/9/9 59/64/19
f 7/13/20 6/10/11 59/64/19
f 8/15/21 7/13/20 59/64/19
f 9/17/15 8/15/21 59/64/19
f 10/19/13 9/17/15 59/64/19
f 1/1/1 10/23/13 59/71/19
f 62/74/22 70/75/23 61/73/24
f 61/73/24 70/75/23 69/76/25
f 63/77/26 71/78/27 62/74/22
f 62/74/22 71/78/27 70/75/23
f 63/77/26 64/79/28 71/78/27
f 71/78/27 64/79/28 72/80/29
f 64/79/28 65/81/30 72/80/29
f 72/80/29 65/81/30 73/82/31
f 66/83/32 74/84/33 65/81/30
f 65/81/30 74/84/33 73/82/31
f 66/83/32 67/85/34 74/84/33
f 74/84/33 67/85/34 75/86/35
f 67/85/34 68/87/36 75/86/35
f 75/86/35 68/87/36 76/88/37
f 68/87/36 61/73/24 76/88/37
f 76/88/37 61/73/24 69/76/25
f 69/76/25 70/75/23 77/90/38
f 77/90/38 70/75/23 78/89/39
f 71/78/27 79/91/40 70/75/23
f 70/75/23 79/91/40 78/89/39
f 71/78/27 72/80/29 79/91/40
f 79/91/40 72/80/29 80/92/41
f 72/80/29 73/82/31 80/92/41
f 80/92/41 73/82/31 81/93/42
f 74/84/33 82/94/43 73/82/31
f 73/82/31 82/94/43 81/93/42
f 74/84/33 75/86/35 82/94/43
f 82/94/43 75/86/35 83/95/44
f 75/86/35 76/88/37 83/95/44
f 83/95/44 76/88/37 84/96/45
f 69/76/25 77/90/38 76/88/37
f 76/88/37 77/90/38 84/96/45
f 78/89/39 86/97/46 77/90/38
f 77/90/38 86/97/46 85/98/47
f 78/89/39 79/91/40 86/97/46
f 86/97/46 79/91/40 87/99/48
f 79/91/40 80/92/41 87/99/48
f 87/99/48 80/92/41 88/100/49
f 80/92/41 81/93/42 88/100/49
f 88/100/49 81/93/42 89/101/50
f 81/93/42 82/94/43 89/101/50
f 89/101/50 82/94/43 90/102/51
f 82/94/43 83/95/44 90/102/51
f 90/102/51 83/95/44 91/103/52
f 83/95/44 84/96/45 91/103/52
f 91/103/52 84/96/45 92/104/53
f 77/90/38 85/98/47 84/96/45
f 84/96/45 85/98/47 92/104/53
f 62/74/22 61/73/24 93/105/54
f 63/77/26 62/74/22 93/105/54
f 64/79/28 63/77/26 93/105/54
f 65/81/30 64/79/28 93/105/54
f 66/83/32 65/81/30 93/105/54
f 67/85/34 66/83/32 93/105/54
f 68/87/36 67/85/34 93/105/54
f 61/73/24 68/87/36 93/105/54
f 94/106/55 95/107/56 102/109/57
f 95/107/56 103/108/58 102/109/57
f 95/107/56 96/110/59 103/108/58
f 103/108/58 96/110/59 104/111/60
f 96/110/59 97/112/61 104/111/60
f 104/111/60 97/112/61 105/113/62
f 97/112/61 98/114/63 105/113/62
f 105/113/62 98/114/63 106/115/64
f 99/116/65 107/117/66 98/114/63
f 98/114/63 107/117/66 106/115/64
f 100/118/67 108/119/68 99/116/65
f 99/116/65 108/119/68 107/117/66
f 101/120/69 109/121/70 100/118/67
f 100/118/67 109/121/70 108/119/68
f 94/106/55 102/109/57 101/120/69
f 101/120/69 102/109/57 109/121/70
f 111/122/71 110/123/72 103/108/58
f 102/109/57 103/108/58 110/123/72
f 103/108/58 104/111/60 111/122/71
f 111/122/71 104/111/60 112/124/73
f 104/111/60 105/113/62 112/124/73
f 112/124/73 105/113/62 113/125/74
f 105/113/62 106/115/64 113/125/74
f 113/125/74 106/115/64 114/126/75
f 107/117/66 115/127/76 106/115/64
f 106/115/64 115/127/76 114/126/75
f 108/119/68 116/128/77 107/117/66
f 107/117/66 116/128/77 115/127/76
f 109/121/70 117/129/78 108/119/68
f 108/119/68 117/129/78 116/128/77
f 117/129/78 109/121/70 110/123/72
f 109/121/70 102/109/57 110/123/72
f 110/123/72 111/122/71 118/131/79
f 118/131/79 111/122/71 119/130/80
f 119/130/80 111/122/71 120/132/81
f 111/122/71 112/124/73 120/132/81
f 120/132/81 112/124/73 121/133/82
f 112/124/73 113/125/74 121/133/82
f 114/126/75 122/134/83 113/125/74
f 113/125/74 122/134/83 121/133/82
f 122/134/83 114/126/75 123/135/84
f 114/126/75 115/127/76 123/135/84
f 124/136/85 123/135/84 116/128/77
f 115/127/76 116/128/77 123/135/84
f 117/129/78 125/137/86 116/128/77
f 116/128/77 125/137/86 124/136/85
f 110/123/72 118/131/79 117/129/78
f 117/129/78 118/131/79 125/137/86
f 95/107/56 94/106/55 126/138/87
f 96/110/59 95/107/56 126/138/87
f 97/112/61 96/110/59 126/138/87
f 98/114/63 97/112/61 126/138/87
f 99/116/65 98/114/63 126/138/87
f 100/118/67 99/116/65 126/138/87
f 101/120/69 100/118/67 126/138/87
f 94/106/55 101/120/69 126/138/87
f 155/173/88 156/203/89 157/205/90
f 157/205/90 156/203/89 158/204/91
f 158/204/91 160/206/92 157/205/90
f 157/205/90 160/206/92 159/207/93
f 160/171/92 162/172/94 159/170/93
f 159/170/93 162/172/94 161/174/95
f 161/179/95 162/198/94 163/200/96
f 163/200/96 162/198/94 164/199/97
f 164/199/97 166/201/98 163/200/96
f 163/200/96 166/201/98 165/202/99
f 165/175/99 166/176/98 155/178/88
f 155/178/88 166/176/98 156/177/89
f 166/176/98 164/180/97 156/177/89
f 156/177/89 164/180/97 158/181/91
f 158/181/91 164/180/97 160/171/92
f 160/171/92 164/180/97 162/172/94
f 167/183/100 169/213/101 168/215/102
f 168/215/102 169/213/101 170/214/103
f 171/216/104 172/217/105 169/213/101
f 169/213/101 172/217/105 170/214/103
f 173/184/106 174/185/107 171/182/104
f 171/182/104 174/185/107 172/186/105
f 173/190/106 175/208/108 174/210/107
f 174/210/107 175/208/108 176/209/109
f 177/211/110 178/212/111 175/208/108
f 175/208/108 178/212/111 176/209/109
f 177/187/110 167/188/100 178/191/111
f 178/191/111 167/188/100 168/189/102
f 170/192/103 176/193/109 168/189/102
f 168/189/102 176/193/109 178/191/111
f 170/192/103 172/186/105 176/193/109
f 176/193/109 172/186/105 174/185/107
f 128/140/112 129/143/113 137/141/114
f 137/141/114 129/143/113 138/144/115
f 129/143/113 130/155/116 138/144/115
f 138/144/115 130/155/116 139/156/117
f 130/145/116 131/146/118 139/148/117
f 139/148/117 131/146/118 140/147/119
f 132/149/120 141/150/121 131/146/118
f 131/146/118 141/150/121 140/147/119
f 132/149/120 133/151/122 141/150/121
f 141/150/121 133/151/122 142/152/123
f 134/153/124 143/154/125 133/151/122
f 133/151/122 143/154/125 142/152/123
f 149/161/126 150/163/127 147/164/128
f 150/163/127 151/165/129 147/164/128
f 151/165/129 152/166/130 147/164/128
f 152/166/130 153/167/131 147/164/128
f 153/196/131 154/197/132 147/169/128
f 154/197/132 145/162/133 147/169/128
f 183/223/134 150/163/127 182/222/135
f 182/222/135 150/163/127 149/161/126
f 184/224/136 151/165/129 183/223/134
f 183/223/134 151/165/129 150/163/127
f 185/225/137 152/166/130 184/224/136
f 184/224/136 152/166/130 151/165/129
f 185/225/137 186/226/138 152/166/130
f 152/166/130 186/226/138 153/167/131
f 182/222/139 139/148/117 183/223/140
f 183/223/140 139/148/117 140/147/119
f 183/223/140 140/147/119 184/224/141
f 184/224/141 140/147/119 141/150/121
f 184/224/141 141/150/121 185/225/142
f 185/225/142 141/150/121 142/152/123
f 186/226/143 185/225/142 143/154/125
f 143/154/125 185/225/142 142/152/123
f 128/140/112 137/141/114 127/139/144
f 127/139/144 137/141/114 136/142/145
f 134/157/124 135/158/146 143/160/125
f 143/160/125 135/158/146 144/159/147
f 135/158/146 127/139/144 144/159/147
f 144/159/147 127/139/144 136/142/145
f 145/162/133 146/168/148 147/169/128
f 146/168/148 148/194/149 147/169/128
f 148/194/149 149/195/126 147/169/128
f 136/142/145 137/141/114 180/218/150
f 180/218/150 137/141/114 179/219/151
f 179/219/152 181/220/153 146/168/148
f 146/168/148 181/220/153 148/194/149
f 148/194/149 181/220/153 149/195/126
f 149/195/126 181/220/153 182/221/135
f 186/227/138 187/228/154 153/196/131
f 153/196/131 187/228/154 154/197/132
f 187/228/154 180/218/155 154/197/132
f 154/197/132 180/218/155 145/162/133
f 181/220/156 179/219/151 138/144/115
f 138/144/115 179/219/151 137/141/114
f 181/220/156 138/144/115 182/221/139
f 182/221/139 138/144/115 139/156/117
f 186/227/143 143/160/125 187/228/157
f 187/228/157 143/160/125 144/159/147
f 187/228/157 144/159/147 180/218/150
f 180/218/150 144/159/147 136/142/145
f 146/168/148 145/162/133 179/219/152
f 179/219/152 145/162/133 180/218/155
f 6/10/11 7/13/20 16/11/12
f 16/11/12 7/13/20 17/14/158
f 19/18/16 20/20/14 29/31/159
f 29/31/159 20/20/14 30/32/160
f 20/24/14 11/4/3 30/36/160
f 30/36/160 11/4/3 21/26/18
f 196/238/161 52/68/162 194/237/163
f 194/237/163 52/68/162 51/66/164
f 7/13/20 8/15/21 17/14/158
f 17/14/158 8/15/21 188/229/165
f 8/15/21 18/16/166 188/229/165
f 8/15/21 9/17/15 18/16/166
f 18/16/166 9/17/15 19/18/16
f 25/28/167 15/12/10 26/27/168
f 26/27/168 15/12/10 16/11/12
f 196/238/169 194/237/170 43/56/171
f 43/56/171 194/237/170 42/54/172
f 56/61/173 57/62/174 60/65/175
f 51/66/164 52/68/162 60/72/175
f 200/241/176 199/242/177 36/38/178
f 26/27/168 16/11/12 27/29/179
f 27/29/179 16/11/12 17/14/158
f 204/247/180 205/248/181 202/244/182
f 202/244/182 205/248/181 27/29/183
f 18/16/166 19/18/16 28/30/184
f 28/30/184 19/18/16 29/31/159
f 36/38/178 199/242/177 206/249/185
f 206/249/185 199/242/177 27/29/183
f 205/248/181 206/249/185 27/29/183
f 28/30/184 198/240/186 18/16/166
f 18/16/166 198/240/186 188/229/165
f 190/230/187 28/30/184 29/31/159
f 27/29/179 199/242/188 26/27/168
f 198/240/189 204/247/190 202/244/191
f 203/246/192 201/245/193 28/30/194
f 27/29/179 17/14/158 202/244/195
f 188/229/165 198/240/196 17/14/158
f 17/14/158 198/240/196 202/244/195
f 204/247/197 198/240/198 201/245/193
f 201/245/193 198/240/198 28/30/194
f 205/248/199 204/247/200 201/245/201
f 36/38/202 206/249/203 37/40/204
f 12/3/4 13/6/6 22/25/17
f 22/25/17 13/6/6 23/33/205
f 13/6/6 14/8/8 23/33/205
f 23/33/205 14/8/8 24/34/206
f 22/25/17 23/33/205 32/37/207
f 32/37/207 23/33/205 33/45/208
f 15/22/10 25/35/167 14/8/8
f 14/8/8 25/35/167 24/34/206
f 24/34/206 207/250/209 23/33/205
f 23/33/205 207/250/209 33/45/208
f 207/250/209 34/46/210 33/45/208
f 24/34/206 25/35/167 207/250/209
f 25/35/167 35/47/211 207/250/209
f 35/47/211 34/46/210 207/250/209
f 33/45/208 43/56/171 32/37/207
f 32/37/207 43/56/171 42/54/172
f 34/46/210 44/57/212 33/45/208
f 33/45/208 44/57/212 43/56/171
f 35/39/211 25/28/167 200/241/213
f 26/27/168 199/242/188 25/28/167
f 25/28/167 199/242/188 200/241/213
f 55/59/214 56/61/173 60/65/175
f 47/51/215 56/61/173 46/49/216
f 46/49/216 56/61/173 55/59/214
f 36/38/202 37/40/204 46/49/216
f 46/49/216 37/40/204 47/51/215
f 197/239/217 53/69/218 196/238/161
f 196/238/161 53/69/218 52/68/162
f 196/238/169 43/56/171 197/239/219
f 197/239/219 43/56/171 44/57/212
f 192/233/220 197/239/219 44/57/212
f 52/68/162 53/69/218 60/72/175
f 53/69/218 54/70/221 60/72/175
f 54/60/221 55/59/214 60/65/175
f 46/49/216 55/59/214 208/251/222
f 55/59/214 54/60/221 208/251/222
f 54/60/221 45/50/223 208/251/222
f 36/38/178 45/50/224 200/241/176
f 200/241/176 45/50/224 191/243/225
f 192/233/226 191/232/225 45/58/224
f 200/241/213 191/243/227 35/39/211
f 35/47/211 191/232/227 34/46/210
f 34/46/210 191/232/227 192/233/228
f 45/50/223 36/38/202 208/251/222
f 36/38/202 46/49/216 208/251/222
f 53/69/218 45/58/223 54/70/221
f 34/46/210 192/233/220 44/57/212
f 45/58/224 53/69/218 192/233/226
f 192/233/226 53/69/218 197/239/217
f 57/62/174 58/63/229 60/65/175
f 60/65/175 58/63/229 209/252/230
f 209/252/230 58/63/229 49/53/231
f 48/52/232 57/62/174 47/51/215
f 47/51/215 57/62/174 56/61/173
f 37/40/204 38/41/233 47/51/215
f 47/51/215 38/41/233 48/52/232
f 37/40/204 206/249/203 38/41/233
f 38/41/233 206/249/203 203/246/234
f 206/249/203 205/248/199 203/246/234
f 205/248/199 201/245/201 203/246/234
f 48/52/232 49/53/231 57/62/174
f 57/62/174 49/53/231 58/63/229
f 60/72/175 209/253/230 50/67/235
f 50/67/235 51/66/164 60/72/175
f 210/255/236 50/67/237 209/253/238
f 21/26/18 22/25/17 31/44/239
f 31/44/239 22/25/17 32/37/207
f 30/36/160 21/26/18 40/48/240
f 40/48/240 21/26/18 31/44/239
f 31/44/239 32/37/207 41/55/241
f 41/55/241 32/37/207 42/54/172
f 193/234/242 189/231/243 40/43/240
f 40/48/240 31/44/239 193/235/242
f 193/235/242 31/44/239 41/55/241
f 194/237/170 195/236/244 42/54/172
f 42/54/172 195/236/244 41/55/241
f 190/230/245 189/231/246 39/42/247
f 203/246/234 39/42/248 38/41/233
f 39/42/247 203/246/192 190/230/245
f 190/230/245 203/246/192 28/30/194
f 195/236/249 194/237/163 50/67/235
f 50/67/235 194/237/163 51/66/164
f 49/53/231 48/52/232 39/42/248
f 39/42/248 48/52/232 38/41/233
f 39/42/248 210/254/236 49/53/231
f 49/53/231 210/254/236 209/252/238
f 39/42/247 189/231/246 210/254/250
f 210/254/250 189/231/246 193/234/251
f 50/67/235 210/255/250 195/236/249
f 195/236/249 210/255/250 193/235/251
f 40/43/240 189/231/243 30/32/160
f 29/31/159 30/32/160 190/230/187
f 190/230/187 30/32/160 189/231/243
f 193/235/252 41/55/241 195/236/244
