# This file uses centimeters as units for non-parametric coordinates.

v -9.447036 3.292451 -4.118703
v 6.297449 3.292456 -4.302042
v -9.447227 3.292455 -0.967907
v 6.298812 3.292456 -1.283741
v -7.239123 3.292454 -4.118705
v -7.238585 3.292455 -0.967908
v 3.718366 3.292455 -4.302043
v 3.718255 3.292456 -1.283727
v 2.416713 3.292455 -2.999702
v 2.480366 3.292456 -1.283741
v -5.898044 3.292454 -2.999703
v -5.899479 3.292455 -0.967907
v 3.718366 3.292455 -5.904827
v 2.416713 3.292455 -5.904827
v -5.898045 3.292454 -5.904827
v -7.239123 3.292454 -5.904827
v 3.718366 3.292455 -7.162553
v 2.416713 3.292455 -7.162553
v -5.898044 3.292454 -7.162553
v -7.239123 3.292454 -7.162553
v -0.487053 3.292455 -5.904827
v -0.487277 3.292455 -7.162553
v -2.938739 3.292454 -5.904827
v -2.938739 3.292454 -7.162553
v -2.938739 3.292454 -2.999702
v -2.938739 3.292455 -1.283741
v -0.487167 3.292454 -2.999702
v -0.487509 3.292455 -1.283741
v -4.425477 3.292454 -2.999702
v -4.426751 3.292456 -1.283741
v 1.115534 3.292455 -2.999702
v 1.094270 3.292455 -1.283741
v -5.899479 3.292455 1.548652
v -4.426751 3.292456 1.548800
v 1.094270 3.292455 1.549703
v 2.480366 3.292456 1.549820
v -5.899558 3.292455 3.224689
v -4.426928 3.292456 3.224801
v 1.094269 3.292455 3.225516
v 2.480366 3.292456 3.225606
v -2.938739 3.292456 1.548800
v -2.938739 3.292456 3.224801
v -0.487854 3.292455 1.549703
v -0.487864 3.292455 3.225516
v 8.959501 -4.118603 -4.545217
v 3.718408 -3.027905 -2.999702
v -11.871425 -3.384292 -1.085042
v 8.631385 -3.319820 0.256139
v -11.182228 -2.534246 0.849486
v -7.239123 -3.027846 -4.302043
v -9.186814 -2.378393 1.496481
v 5.913702 -3.168561 0.484744
v 2.416713 -3.027900 -2.999702
v 1.115534 -3.027895 -2.999702
v 4.766048 -3.250530 1.140355
v 3.718408 -3.027905 -5.904827
v 2.416713 -3.027900 -5.904827
v -5.898044 -3.027851 -2.999702
v -5.898044 -3.027851 -5.904827
v -7.239123 -3.027846 -5.904827
v 3.718408 -3.027905 -7.162553
v 2.416713 -3.027900 -7.162553
v -7.239123 -3.027846 -7.162553
v -5.898044 -3.027851 -7.162553
v -0.487053 -3.027900 -5.904827
v -0.487277 -3.027900 -7.162553
v -2.938739 -3.027851 -5.904827
v -2.938739 -3.027851 -7.162553
v -2.938739 -3.027869 -2.999702
v -4.425477 -3.027857 -2.999702
v -2.938739 -3.027919 -1.283741
v -0.487509 -3.027920 -1.283741
v 1.094270 -3.027921 -1.283741
v -4.426751 -3.027917 -1.283741
v -0.487167 -3.027885 -2.999702
v -8.442613 -2.442373 2.740074
v -4.426751 -3.027917 1.548800
v 1.094270 -3.027921 1.549703
v 3.888325 -3.276037 4.140366
v -7.269782 -2.812947 2.444729
v -4.909966 -3.228020 3.939881
v 2.869672 -2.904831 4.224669
v 1.121120 -2.765122 3.479915
v -2.938739 -3.027917 1.548800
v -2.923454 -3.625320 5.109716
v -0.487854 -3.027921 1.549703
v -0.523624 -3.555633 3.892423
v -5.898045 3.292454 -4.118705
v -5.898044 -3.027851 -4.302045
v 2.416713 3.292455 -4.302043
v 2.416713 -3.027900 -4.302046
v 3.718316 3.292456 -2.927768
v 6.298134 3.292456 -2.785194
v 8.808708 -3.281227 -2.295115
v -7.238873 3.292455 -2.680217
v -9.447136 3.292454 -2.735887
v -13.144873 -3.883689 -3.812136
v 6.297449 -1.982429 -4.302042
v -9.447129 -2.135840 -2.832068
v -9.447227 -2.233895 -0.967908
v 6.298100 -2.080253 -2.860364
v -7.238585 -2.244511 -0.967908
v -9.447036 -1.967143 -4.302042
v -5.899479 -2.239835 -0.967908
v 3.718291 -2.186074 -1.283727
v 6.298812 -2.187233 -1.283741
v 2.480366 -2.176028 -1.283741
v -5.899479 -0.610301 1.548652
v 2.480366 -2.079170 1.549820
v -5.899558 -2.061302 3.224689
v -4.426928 -2.038687 3.224801
v 2.480366 -2.008416 3.225606
v 1.094269 -2.015159 3.225516
v -2.938739 -2.032378 3.224801
v -0.487864 -2.021461 3.225516
v -4.518272 -2.282952 3.375821
v -2.970222 -2.269581 3.738108
v -0.505380 -2.501974 3.426154
v 1.104828 -2.310066 3.325553
v -2.938739 3.292455 -0.990822
v -0.487509 3.292455 -0.990822
v -2.938739 -3.027919 -0.990822
v -0.487509 -3.027920 -0.990822
vt 0.823148 0.855220
vt 0.850007 0.744641
vt 0.992014 0.738315
vt 0.946494 0.849436
vt 0.168739 0.855539
vt 0.123869 0.743343
vt 0.263732 0.744434
vt 0.296040 0.856612
vt 0.768288 0.807791
vt 0.779537 0.751786
vt 0.758571 0.858330
vt 0.697286 0.810340
vt 0.714527 0.754162
vt 0.336760 0.750174
vt 0.350898 0.809126
vt 0.358369 0.856512
vt 0.371535 0.905268
vt 0.313657 0.903450
vt 0.748495 0.900984
vt 0.805669 0.901116
vt 0.794902 0.937883
vt 0.740589 0.939450
vt 0.380781 0.942091
vt 0.323992 0.941973
vt 0.619908 0.941730
vt 0.622980 0.904088
vt 0.498212 0.904697
vt 0.500739 0.944040
vt 0.419503 0.810140
vt 0.412150 0.756986
vt 0.485194 0.757514
vt 0.491244 0.811987
vt 0.627930 0.756438
vt 0.627479 0.812028
vt 0.313690 0.617678
vt 0.393893 0.620899
vt 0.739855 0.615628
vt 0.821133 0.613226
vt 0.296807 0.530762
vt 0.384425 0.532174
vt 0.752579 0.529009
vt 0.841211 0.532225
vt 0.478022 0.533365
vt 0.483455 0.618347
vt 0.654164 0.613559
vt 0.661067 0.527844
vt 0.171242 0.116930
vt 0.196190 0.116801
vt 0.191734 0.077477
vt 0.164485 0.374035
vt 0.241152 0.374786
vt 0.269589 0.374363
vt 0.165045 0.070850
vt 0.836032 0.375397
vt 0.945417 0.377155
vt 0.745899 0.600947
vt 0.145819 0.962592
vt 0.775099 0.374958
vt 0.032297 0.101963
vt 0.740085 0.647776
vt 0.368248 0.645956
vt 0.375756 0.694689
vt 0.037247 0.117620
vt 0.037433 0.061295
vt 0.201696 0.101572
vt 0.196649 0.060870
vt 0.637764 0.706404
vt 0.734151 0.695566
vt 0.059398 0.117506
vt 0.499808 0.694993
vt 0.062708 0.078248
vt 0.132163 0.962617
vt 0.136054 0.925787
vt 0.495055 0.538088
vt 0.617097 0.538937
vt 0.691202 0.539492
vt 0.361158 0.599936
vt 0.426562 0.537514
vt 0.148700 0.925759
vt 0.169630 0.125125
vt 0.414538 0.419840
vt 0.700705 0.422152
vt 0.162768 0.086627
vt 0.330528 0.117759
vt 0.405765 0.118516
vt 0.729981 0.109232
vt 0.798664 0.104307
vt 0.200106 0.962491
vt 0.492312 0.115565
vt 0.186055 0.962517
vt 0.645556 0.107906
vt 0.061519 0.125663
vt 0.064608 0.087195
vt 0.168500 0.130872
vt 0.161856 0.092947
vt 0.155188 0.130936
vt 0.153178 0.092996
vt 0.063007 0.131384
vt 0.065945 0.093490
vt 0.075697 0.131322
vt 0.077955 0.093422
vt 0.127656 0.131070
vt 0.127126 0.093144
vt 0.103169 0.131189
vt 0.103954 0.093275
vt 0.067456 0.084817
vt 0.070880 0.101910
vt 0.073699 0.061237
vt 0.070666 0.042733
vt 0.160766 0.101657
vt 0.163248 0.084530
vt 0.160346 0.042423
vt 0.158181 0.060962
vt 0.065296 0.073670
vt 0.068769 0.030744
vt 0.164940 0.073360
vt 0.161817 0.030411
vt 0.185958 0.925677
vt 0.198968 0.925649
vt 0.215212 0.962463
vt 0.212955 0.925618
vt 0.161128 0.962563
vt 0.162876 0.925728
vt 0.198242 0.984245
vt 0.183818 0.984269
vt 0.183879 0.949684
vt 0.197343 0.949657
vt 0.162418 0.984165
vt 0.149428 0.984187
vt 0.151781 0.949592
vt 0.163906 0.949568
vt 0.159329 0.945735
vt 0.161354 0.907416
vt 0.186498 0.945680
vt 0.186358 0.907357
vt 0.835377 0.804872
vt 0.969370 0.793592
vt 0.198957 0.109148
vt 0.194060 0.069618
vt 0.281033 0.804505
vt 0.034679 0.109496
vt 0.145456 0.797322
vt 0.039701 0.070145
vt 0.192471 0.083982
vt 0.038993 0.075699
vt 0.036814 0.066190
vt 0.194794 0.075545
vt 0.159596 0.418487
vt 0.243861 0.419126
vt 0.041077 0.084686
vt 0.277629 0.419348
vt 0.837894 0.424579
vt 0.951615 0.425194
vt 0.775697 0.425749
vt 0.073361 0.066105
vt 0.069468 0.058439
vt 0.160779 0.048695
vt 0.158530 0.066447
vt 0.068239 0.037296
vt 0.325382 0.180795
vt 0.402423 0.183302
vt 0.162321 0.037339
vt 0.733577 0.176025
vt 0.805527 0.173332
vt 0.490017 0.182682
vt 0.648034 0.174995
vt 0.197320 0.066284
vt 0.403067 0.170815
vt 0.490511 0.168244
vt 0.647269 0.154297
vt 0.732203 0.150503
vt 0.627930 0.756438
vt 0.485194 0.757514
vt 0.495055 0.538088
vt 0.617097 0.538937
vn 0.000000 1.000000 0.000000
vn 0.000000 1.000000 0.000000
vn 0.000000 1.000000 0.000000
vn 0.000000 1.000000 0.000000
vn 0.000000 1.000000 0.000000
vn 0.000000 1.000000 -0.000000
vn 0.000000 1.000000 -0.000000
vn 0.000000 1.000000 -0.000000
vn 0.000000 1.000000 0.000000
vn 0.000000 1.000000 0.000000
vn 0.000000 1.000000 0.000000
vn 0.000000 1.000000 0.000000
vn -0.000000 1.000000 0.000000
vn -0.000000 1.000000 -0.000000
vn -0.000000 1.000000 -0.000000
vn -0.000000 1.000000 -0.000000
vn -0.000000 1.000000 -0.000002
vn -0.000000 1.000000 -0.000001
vn -0.000000 1.000000 -0.000001
vn 0.000000 1.000000 -0.000000
vn 0.000000 1.000000 -0.000000
vn 0.000000 1.000000 -0.000001
vn 0.000000 1.000000 -0.000001
vn 0.000000 1.000000 -0.000001
vn 0.000000 1.000000 -0.000001
vn -0.000000 1.000000 -0.000001
vn -0.000000 1.000000 -0.000001
vn -0.000000 1.000000 -0.000000
vn 0.000000 1.000000 -0.000000
vn -0.000000 1.000000 0.000000
vn -0.000000 1.000000 0.000000
vn -0.000000 1.000000 0.000001
vn 0.000000 0.000000 -1.000000
vn -0.000000 0.000000 -1.000000
vn -0.000000 0.000000 -1.000000
vn -0.000000 0.000000 -1.000000
vn -1.000000 0.000000 0.000000
vn -1.000000 0.000000 0.000000
vn -1.000000 0.000000 0.000000
vn -1.000000 0.000000 0.000000
vn 1.000000 0.000000 0.000000
vn 1.000000 0.000000 0.000000
vn 1.000000 0.000000 0.000000
vn 1.000000 0.000000 0.000000
vn 0.000000 0.000000 -1.000000
vn -0.000000 0.000000 -1.000000
vn -0.000000 0.000000 -1.000000
vn -0.000000 0.000000 -1.000000
vn -1.000000 0.000000 0.000000
vn -1.000000 0.000000 0.000000
vn -1.000000 0.000000 0.000000
vn -1.000000 0.000000 0.000000
vn 0.000000 0.000000 -1.000000
vn 0.000000 0.000000 -1.000000
vn 0.000000 0.000000 -1.000000
vn 0.000001 0.000000 -1.000000
vn 0.000000 0.000000 1.000000
vn 0.000000 0.000000 1.000000
vn 0.000000 0.000000 1.000000
vn 0.000000 0.000000 1.000000
vn 0.000000 0.000000 -1.000000
vn 0.000000 0.000000 -1.000000
vn 0.000000 0.000000 -1.000000
vn 0.000000 0.000000 -1.000000
vn 0.000000 0.000000 1.000000
vn 0.000000 0.000000 1.000000
vn 0.000000 0.000000 1.000000
vn 0.000000 0.000000 1.000000
vn 0.000000 0.000000 -1.000000
vn 0.000000 0.000000 -1.000000
vn 0.000000 0.000000 -1.000000
vn 0.000000 0.000000 -1.000000
vn 0.000000 0.000000 -1.000000
vn -0.000000 0.000000 -1.000000
vn -0.000000 0.000000 -1.000000
vn -0.000000 0.000000 -1.000000
vn 0.000000 0.000000 -1.000000
vn -0.000000 0.000000 -1.000000
vn -0.000000 0.000000 -1.000000
vn -0.000000 0.000000 -1.000000
vn 0.000000 0.000000 1.000000
vn 0.000000 0.000000 1.000000
vn 0.000000 0.000000 1.000000
vn 0.000000 0.000000 1.000000
vn 0.000000 0.000000 1.000000
vn 0.000000 0.000000 1.000000
vn 0.000000 0.000000 1.000000
vn 0.000000 0.000000 1.000000
vn 0.000000 -0.000000 -1.000000
vn 0.000000 -0.000000 -1.000000
vn 0.000000 -0.000000 -1.000000
vn 0.000000 0.000000 -1.000000
vn 0.000000 0.000000 1.000000
vn -0.000000 0.000000 1.000000
vn -0.000000 0.000000 1.000000
vn -0.000000 0.000000 1.000000
vn 0.000000 0.000000 -1.000000
vn 0.000000 0.000000 -1.000000
vn 0.000000 0.000000 -1.000000
vn -0.000000 0.000000 -1.000000
vn 1.000000 0.000000 0.000000
vn 1.000000 0.000000 0.000000
vn 1.000000 0.000000 0.000000
vn 1.000000 0.000000 0.000000
vn -1.000000 0.000000 0.000000
vn -1.000000 0.000000 0.000000
vn -1.000000 0.000000 0.000000
vn -1.000000 0.000000 0.000000
vn 0.000000 0.000000 -1.000000
vn 0.000000 0.000000 -1.000000
vn 0.000000 0.000000 -1.000000
vn 0.000000 0.000000 -1.000000
vn 0.000000 0.000000 -1.000000
vn 0.000000 0.000000 -1.000000
vn 0.000000 0.000000 -1.000000
vn 0.000000 0.000000 -1.000000
vn 0.000368 0.000000 -1.000000
vn 0.000368 0.000000 -1.000000
vn 0.000368 0.000000 -1.000000
vn 0.000368 0.000000 -1.000000
vn 1.000000 0.000000 0.000039
vn 1.000000 0.000000 0.000039
vn 1.000000 0.000000 0.000039
vn 1.000000 0.000000 0.000039
vn -1.000000 0.000000 -0.000000
vn -1.000000 0.000000 -0.000000
vn -1.000000 0.000000 -0.000000
vn -1.000000 0.000000 -0.000000
vn 1.000000 0.000000 0.000000
vn 1.000000 0.000000 -0.000000
vn 1.000000 0.000000 -0.000000
vn 1.000000 -0.000000 -0.000000
vn -1.000000 0.000000 0.000000
vn -1.000000 0.000000 0.000000
vn -1.000000 0.000000 0.000000
vn -1.000000 0.000000 0.000000
vn 0.000000 1.000000 -0.000000
vn -0.000000 1.000000 -0.000001
vn -0.000000 1.000000 -0.000001
vn -0.000001 1.000000 -0.000001
vn 0.000000 1.000000 -0.000000
vn 0.000000 1.000000 -0.000000
vn 0.000000 1.000000 -0.000000
vn 0.000001 1.000000 -0.000001
vn -0.000001 1.000000 -0.000001
vn -0.000000 1.000000 -0.000001
vn -0.000000 1.000000 -0.000001
vn 0.000000 1.000000 -0.000002
vn -0.000000 1.000000 0.000000
vn -0.000000 1.000000 0.000000
vn -0.000000 1.000000 0.000000
vn -0.000000 1.000000 0.000000
vn 0.000000 1.000000 -0.000000
vn 0.000000 1.000000 -0.000000
vn 0.000000 1.000000 -0.000000
vn 0.000000 1.000000 -0.000000
vn 0.000000 1.000000 -0.000000
vn 0.000000 1.000000 -0.000000
vn 0.000000 1.000000 -0.000000
vn 0.000000 1.000000 0.000000
vn 0.000000 0.000000 1.000000
vn 0.000000 -0.000000 1.000000
vn 0.000000 -0.000000 1.000000
vn 0.000000 -0.000000 1.000000
vn 0.000000 0.000000 1.000000
vn -0.000000 -0.000000 1.000000
vn -0.000000 -0.000000 1.000000
vn -0.000000 -0.000000 1.000000
vn 0.000005 0.000000 1.000000
vn 0.000005 -0.000000 1.000000
vn 0.000005 -0.000000 1.000000
vn 0.000005 -0.000000 1.000000
vn -0.000011 -0.000000 1.000000
vn -0.000011 -0.000000 1.000000
vn -0.000011 -0.000000 1.000000
vn -0.000011 0.000000 1.000000
vn -1.000000 -0.000000 0.000000
vn -1.000000 -0.000000 0.000000
vn -1.000000 -0.000000 0.000000
vn -1.000000 0.000000 0.000000
vn -0.000001 1.000000 -0.000001
vn -0.000000 1.000000 -0.000001
vn -0.000000 1.000000 -0.000001
vn 0.000000 1.000000 -0.000001
vn -0.000000 1.000000 -0.000000
vn -0.000000 1.000000 -0.000000
vn -0.000000 1.000000 -0.000000
vn 0.000000 1.000000 -0.000000
vn 0.004739 0.985869 0.167454
vn -0.210159 0.976881 -0.039187
vn -0.210159 0.976881 -0.039187
vn -0.406361 0.880988 -0.242342
vn -0.003487 0.998667 0.051498
vn -0.039771 0.998948 0.022829
vn -0.039771 0.998948 0.022829
vn -0.075969 0.997093 -0.005889
vn -0.404914 0.767502 -0.496976
vn -0.470075 0.876941 -0.100022
vn -0.470075 0.876941 -0.100022
vn -0.453539 0.833971 0.314316
vn 0.007436 0.916767 0.399354
vn 0.070604 0.924204 0.375317
vn 0.070604 0.924204 0.375317
vn 0.133445 0.927368 0.349544
vn 0.000395 0.874365 0.485269
vn 0.045196 0.869300 0.492214
vn 0.045196 0.869300 0.492214
vn 0.089903 0.862426 0.498135
vn -0.000001 1.000000 0.000000
vn -0.000001 1.000000 0.000000
vn -0.000001 1.000000 0.000000
vn -0.000001 1.000000 0.000000
vn 1.000000 0.000006 0.000000
vn 1.000000 0.000007 0.000000
vn 1.000000 0.000007 0.000000
vn 1.000000 0.000007 0.000000
vn -0.000000 1.000000 -0.000001
vn -0.000000 1.000000 -0.000000
vn -0.000000 1.000000 -0.000000
vn -0.000000 1.000000 0.000000
vn -0.000001 1.000000 -0.000001
vn -0.000001 1.000000 -0.000000
vn -0.000001 1.000000 -0.000000
vn -0.000001 1.000000 0.000000
vn -0.381543 -0.186550 -0.905331
vn -0.195453 -0.095564 -0.976046
vn -0.195453 -0.095564 -0.976046
vn 0.000000 0.000000 -1.000000
vn 1.000000 -0.000000 -0.000452
vn 1.000000 -0.000000 -0.000452
vn 1.000000 -0.000000 -0.000452
vn 1.000000 0.000000 -0.000452
vn 1.000000 0.000007 0.000000
vn 1.000000 0.000007 0.000000
vn 1.000000 0.000007 0.000000
vn 1.000000 0.000007 0.000000
vn -0.000001 1.000000 0.000000
vn -0.000001 1.000000 0.000000
vn -0.000001 1.000000 0.000000
vn -0.000001 1.000000 0.000000
vn 1.000000 -0.000000 -0.000452
vn 1.000000 -0.000000 -0.000452
vn 1.000000 -0.000000 -0.000452
vn 1.000000 0.000000 -0.000452
vn 0.419459 0.905705 0.061266
vn 0.416524 0.907643 0.051886
vn 0.416524 0.907643 0.051886
vn 0.413547 0.909490 0.042501
vn 0.592934 0.766866 -0.245653
vn 0.515533 0.851710 -0.093894
vn 0.515533 0.851710 -0.093894
vn 0.419459 0.905705 0.061266
vn 0.000000 1.000000 0.000000
vn 0.000000 1.000000 0.000000
vn 0.000000 1.000000 0.000000
vn 0.000000 1.000000 0.000000
vn -1.000000 0.000000 0.000000
vn -1.000000 0.000000 0.000000
vn -1.000000 0.000000 0.000000
vn -1.000000 0.000000 0.000000
vn 0.000001 1.000000 -0.000001
vn 0.000000 1.000000 -0.000000
vn 0.000000 1.000000 -0.000000
vn 0.000000 1.000000 0.000000
vn -0.000000 1.000000 -0.000001
vn -0.000000 1.000000 -0.000000
vn -0.000000 1.000000 -0.000000
vn 0.000000 1.000000 -0.000000
vn -1.000000 0.000000 -0.000052
vn -1.000000 -0.000000 -0.000052
vn -1.000000 -0.000000 -0.000052
vn -1.000000 -0.000000 -0.000051
vn -0.000001 1.000000 -0.000002
vn -0.000001 1.000000 -0.000002
vn -0.000001 1.000000 -0.000002
vn -0.000000 1.000000 -0.000001
vn -1.000000 -0.000000 -0.000064
vn -1.000000 0.000001 -0.000068
vn -1.000000 0.000001 -0.000068
vn -1.000000 0.000003 -0.000072
vn -0.447077 0.888666 0.101956
vn -0.447077 0.888666 0.101956
vn -0.447077 0.888666 0.101956
vn -0.430110 0.901531 0.047398
vn -0.432745 0.900490 0.042997
vn -0.432745 0.900490 0.042997
vn -0.435369 0.899424 0.038594
vn 0.013928 0.028993 -0.999483
vn 0.006964 0.031916 -0.999466
vn 0.006964 0.031916 -0.999466
vn -0.000001 0.034837 -0.999393
vn -0.000001 1.000000 0.000000
vn -0.000001 1.000000 0.000000
vn -0.000001 1.000000 0.000000
vn -0.000001 1.000000 0.000000
vn -0.000000 1.000000 -0.000000
vn -0.000000 1.000000 0.000000
vn -0.000001 1.000000 0.000000
vn -0.000001 1.000000 0.000000
vn 0.000000 1.000000 0.000000
vn 0.000000 1.000000 0.000000
vn 0.000000 1.000000 0.000000
vn 0.000000 1.000000 0.000000
vn 1.000000 0.000000 0.000000
vn 1.000000 0.000000 0.000000
vn 1.000000 0.000000 0.000000
vn 1.000000 0.000000 0.000000
vn -1.000000 0.000000 -0.000047
vn -1.000000 0.000000 -0.000047
vn -1.000000 0.000000 -0.000047
vn -1.000000 0.000000 -0.000047
vn -0.000076 0.000000 1.000000
vn -0.000076 0.000000 1.000000
vn -0.000076 0.000000 1.000000
vn -0.000076 0.000000 1.000000
vn 1.000000 0.000000 0.000000
vn 1.000000 0.000000 0.000000
vn 1.000000 0.000000 0.000000
vn 1.000000 0.000000 0.000000
vn -0.000065 0.000000 1.000000
vn -0.000065 0.000000 1.000000
vn -0.000065 0.000000 1.000000
vn -0.000065 0.000000 1.000000
vn 0.000000 0.000000 1.000000
vn 0.000000 0.000000 1.000000
vn 0.000000 0.000000 1.000000
vn 0.000000 0.000000 1.000000
vn 0.000000 0.000000 1.000000
vn 0.000000 0.000000 1.000000
vn 0.000000 0.000000 1.000000
vn 0.000000 0.000000 1.000000
vn -0.000291 0.000000 1.000000
vn -0.000292 0.000000 1.000000
vn -0.000292 0.000000 1.000000
vn -0.000292 0.000000 1.000000
vn 0.297102 0.195397 0.934639
vn -0.191245 0.469617 0.861908
vn -0.191245 0.469617 0.861908
vn -0.618591 0.594044 0.514254
vn -0.008174 0.528063 0.849166
vn -0.008174 0.528063 0.849166
vn -0.008174 0.528063 0.849166
vn -0.192329 0.567082 0.800892
vn -0.101950 0.766496 0.634106
vn -0.101950 0.766496 0.634106
vn -0.003849 0.907846 0.419286
vn 0.137926 0.895839 0.422433
vn 0.072982 0.687837 0.722187
vn 0.072982 0.687837 0.722187
vn -0.001985 0.385371 0.922760
vn 0.011783 0.384917 0.922876
vn 0.005255 0.353269 0.935507
vn 0.005255 0.353269 0.935507
vn -0.001279 0.321196 0.947012
vn -0.001624 0.321184 0.947015
vn -0.001624 0.321184 0.947015
vn -0.001624 0.321184 0.947015
vn 0.679805 0.732740 -0.030937
vn 0.534851 0.796849 0.281008
vn 0.534851 0.796849 0.281008
vn 0.324414 0.763399 0.558550
vn 0.451532 0.891734 -0.030481
vn 0.463481 0.884226 0.057695
vn 0.463481 0.884226 0.057695
vn 0.471734 0.869668 0.145411
vn -0.010956 0.515816 0.856629
vn -0.284326 0.314099 0.905815
vn -0.284326 0.314099 0.905815
vn -0.524191 0.075368 0.848259
vn -0.193275 0.560667 0.805169
vn -0.230431 0.623618 0.746995
vn -0.230431 0.623618 0.746995
vn -0.265576 0.681127 0.682302
vn 0.152016 0.397766 0.904806
vn 0.238915 0.550497 0.799921
vn 0.238915 0.550497 0.799921
vn 0.315808 0.680174 0.661536
vn 0.020782 0.321835 0.946568
vn 0.027985 0.363237 0.931276
vn 0.027985 0.363237 0.931276
vn 0.035133 0.403913 0.914123
vn -0.001625 0.321184 0.947015
vn -0.126634 0.512828 0.849101
vn -0.126634 0.512828 0.849101
vn -0.243799 0.672706 0.698591
vn 0.000000 1.000000 0.000000
vn 0.000000 1.000000 0.000000
vn 0.000000 1.000000 0.000000
vn 0.000000 1.000000 0.000000
vn -1.000000 0.000000 0.000000
vn -1.000000 0.000000 0.000000
vn -1.000000 0.000000 0.000000
vn -1.000000 0.000000 0.000000
vn -0.000001 -1.000000 0.000000
vn -0.000001 -1.000000 0.000000
vn -0.000001 -1.000000 0.000000
vn -0.000001 -1.000000 0.000000
vn 1.000000 0.000000 0.000000
vn 1.000000 0.000000 0.000000
vn 1.000000 0.000000 0.000000
vn 1.000000 0.000000 0.000000
f 16/18/1 15/17/2 20/24/3
f 20/24/3 15/17/2 19/23/4
f 14/19/5 18/22/6 21/26/7
f 21/26/7 18/22/6 22/25/8
f 19/23/9 15/17/10 24/28/11
f 24/28/11 15/17/10 23/27/12
f 24/28/13 23/27/14 22/25/15
f 22/25/15 23/27/14 21/26/16
f 29/29/17 30/30/18 25/32/19
f 25/32/19 30/30/18 26/31/20
f 25/32/21 26/31/22 27/34/23
f 27/34/23 26/31/22 28/33/24
f 28/33/25 32/13/26 27/34/27
f 27/34/27 32/13/26 31/12/28
f 25/32/29 27/34/30 23/27/31
f 23/27/31 27/34/30 21/26/32
f 31/57/33 9/72/34 54/79/35
f 54/79/35 9/72/34 53/73/36
f 9/9/37 90/11/38 53/56/39
f 53/56/39 90/11/38 91/60/40
f 88/16/41 89/61/42 15/17/43
f 15/17/43 89/61/42 59/62/44
f 18/96/45 17/94/46 62/97/47
f 62/97/47 17/94/46 61/95/48
f 16/92/49 20/98/50 60/93/51
f 60/93/51 20/98/50 63/99/52
f 20/98/53 19/100/54 63/99/55
f 63/99/55 19/100/54 64/101/56
f 14/19/57 21/26/58 57/68/59
f 57/68/59 21/26/58 65/67/60
f 22/102/61 18/96/62 66/103/63
f 66/103/63 18/96/62 62/97/64
f 23/27/65 15/17/66 67/70/67
f 67/70/67 15/17/66 59/62/68
f 19/100/69 24/104/70 64/101/71
f 64/101/71 24/104/70 68/105/72
f 24/104/73 22/102/74 68/105/75
f 68/105/75 22/102/74 66/103/76
f 29/88/77 25/90/78 70/119/79
f 70/119/79 25/90/78 69/118/80
f 121/172/81 120/173/82 123/175/83
f 123/175/83 120/173/82 122/174/84
f 32/13/85 28/33/86 73/76/87
f 73/76/87 28/33/86 72/75/88
f 11/120/89 29/88/90 58/121/91
f 58/121/91 29/88/90 70/119/92
f 26/31/93 30/30/94 71/74/95
f 71/74/95 30/30/94 74/78/96
f 27/122/97 31/57/98 75/123/99
f 75/123/99 31/57/98 54/79/100
f 30/30/101 34/36/102 74/78/103
f 74/78/103 34/36/102 77/81/104
f 35/37/105 32/13/106 78/82/107
f 78/82/107 32/13/106 73/76/108
f 34/124/109 41/125/110 77/127/111
f 77/127/111 41/125/110 84/126/112
f 43/128/113 35/129/114 86/131/115
f 86/131/115 35/129/114 78/130/116
f 41/125/117 43/128/118 84/126/119
f 84/126/119 43/128/118 86/131/120
f 21/132/121 27/122/122 65/133/123
f 65/133/123 27/122/122 75/123/124
f 25/90/125 23/134/126 69/118/127
f 69/118/127 23/134/126 67/135/128
f 89/61/129 88/16/130 58/77/131
f 58/77/131 88/16/130 11/15/132
f 91/60/133 90/11/134 57/68/135
f 57/68/135 90/11/134 14/19/136
f 31/12/137 32/13/138 9/9/139
f 9/9/139 32/13/138 10/10/140
f 6/7/141 12/14/142 95/140/143
f 95/140/143 12/14/142 11/15/144
f 12/14/145 30/30/146 11/15/147
f 11/15/147 30/30/146 29/29/148
f 30/30/149 12/14/150 34/36/151
f 34/36/151 12/14/150 33/35/152
f 44/46/153 39/41/154 43/45/155
f 43/45/155 39/41/154 35/37/156
f 43/45/157 41/44/158 44/46/159
f 44/46/159 41/44/158 42/43/160
f 102/149/161 6/7/162 100/148/163
f 100/148/163 6/7/162 3/6/164
f 102/149/165 104/151/166 6/7/167
f 6/7/167 104/151/166 12/14/168
f 105/152/169 106/153/170 8/2/171
f 8/2/171 106/153/170 4/3/172
f 105/152/173 8/2/174 107/154/175
f 107/154/175 8/2/174 10/10/176
f 104/155/177 108/156/178 12/107/179
f 12/107/179 108/156/178 33/106/180
f 9/9/181 10/10/182 92/136/183
f 92/136/183 10/10/182 8/2/184
f 92/136/185 8/2/186 93/137/187
f 93/137/187 8/2/186 4/3/188
f 102/149/189 100/148/190 49/51/191
f 49/51/191 100/148/190 47/50/192
f 104/151/193 102/149/194 51/52/195
f 51/52/195 102/149/194 49/51/196
f 104/155/197 51/108/198 108/156/199
f 108/156/199 51/108/198 76/109/200
f 107/154/201 55/58/202 105/152/203
f 105/152/203 55/58/202 52/54/204
f 105/152/205 52/54/206 106/153/207
f 106/153/207 52/54/206 48/55/208
f 18/22/209 14/19/210 17/21/211
f 17/21/211 14/19/210 13/20/212
f 61/95/213 17/94/214 56/83/215
f 56/83/215 17/94/214 13/80/216
f 7/1/217 92/136/218 2/4/219
f 2/4/219 92/136/218 93/137/220
f 92/136/221 7/1/222 9/9/223
f 9/9/223 7/1/222 90/11/224
f 46/53/225 7/47/226 98/144/227
f 98/144/227 7/47/226 2/48/228
f 101/147/229 98/144/230 93/138/231
f 93/138/231 98/144/230 2/48/232
f 13/80/233 7/47/234 56/83/235
f 56/83/235 7/47/234 46/53/236
f 13/20/237 14/19/238 7/1/239
f 7/1/239 14/19/238 90/11/240
f 106/167/241 101/147/242 4/65/243
f 4/65/243 101/147/242 93/138/244
f 101/147/245 106/167/246 94/139/247
f 94/139/247 106/167/246 48/66/248
f 45/49/249 98/144/250 94/139/251
f 94/139/251 98/144/250 101/147/252
f 16/18/253 5/8/254 15/17/255
f 15/17/255 5/8/254 88/16/256
f 5/69/257 16/92/258 50/71/259
f 50/71/259 16/92/258 60/93/260
f 95/140/261 11/15/262 5/8/263
f 5/8/263 11/15/262 88/16/264
f 96/142/265 3/6/266 95/140/267
f 95/140/267 3/6/266 6/7/268
f 100/146/269 3/59/270 99/145/271
f 99/145/271 3/59/270 96/141/272
f 1/5/273 96/142/274 5/8/275
f 5/8/275 96/142/274 95/140/276
f 99/145/277 96/141/278 103/150/279
f 103/150/279 96/141/278 1/63/280
f 99/145/281 103/150/282 97/143/283
f 100/146/284 99/145/285 47/64/286
f 47/64/286 99/145/285 97/143/287
f 50/71/288 103/150/289 5/69/290
f 5/69/290 103/150/289 1/63/291
f 35/37/292 36/38/293 32/13/294
f 32/13/294 36/38/293 10/10/295
f 37/39/296 38/40/297 33/35/152
f 33/35/152 38/40/297 34/36/151
f 39/41/298 40/42/299 35/37/292
f 35/37/292 40/42/299 36/38/293
f 42/43/300 41/44/301 38/40/302
f 38/40/302 41/44/301 34/36/303
f 107/158/304 10/110/305 109/157/306
f 109/157/306 10/110/305 36/111/307
f 110/159/308 37/114/309 108/156/310
f 108/156/310 37/114/309 33/106/311
f 110/160/312 111/161/313 37/39/314
f 37/39/314 111/161/313 38/40/315
f 109/157/316 36/111/317 112/162/318
f 112/162/318 36/111/317 40/116/319
f 113/163/320 112/164/321 39/41/322
f 39/41/322 112/164/321 40/42/323
f 111/161/324 114/165/325 38/40/326
f 38/40/326 114/165/325 42/43/327
f 115/166/328 113/163/329 44/46/330
f 44/46/330 113/163/329 39/41/331
f 114/165/332 115/166/333 42/43/334
f 42/43/334 115/166/333 44/46/335
f 76/109/336 80/115/337 108/156/338
f 108/156/338 80/115/337 110/159/339
f 110/160/340 116/168/341 111/161/342
f 116/168/343 117/169/344 111/161/345
f 111/161/345 117/169/344 114/165/346
f 117/169/347 118/170/348 114/165/349
f 114/165/349 118/170/348 115/166/350
f 118/170/351 119/171/352 115/166/353
f 115/166/353 119/171/352 113/163/354
f 119/171/355 112/164/356 113/163/357
f 109/157/358 112/162/359 79/112/360
f 79/112/360 112/162/359 82/117/361
f 107/158/362 109/157/363 55/113/364
f 55/113/364 109/157/363 79/112/365
f 116/168/366 110/160/367 81/85/368
f 81/85/368 110/160/367 80/84/369
f 116/168/370 81/85/371 117/169/372
f 117/169/372 81/85/371 85/89/373
f 118/170/374 117/169/375 87/91/376
f 87/91/376 117/169/375 85/89/377
f 119/171/378 118/170/379 83/86/380
f 83/86/380 118/170/379 87/91/381
f 119/171/382 83/86/383 112/164/384
f 112/164/384 83/86/383 82/87/385
f 28/33/386 26/31/387 121/172/388
f 121/172/388 26/31/387 120/173/389
f 26/31/390 71/74/391 120/173/392
f 120/173/392 71/74/391 122/174/393
f 71/74/394 72/75/395 122/174/396
f 122/174/396 72/75/395 123/175/397
f 72/75/398 28/33/399 123/175/400
f 123/175/400 28/33/399 121/172/401
