# This file uses centimeters as units for non-parametric coordinates.

v -9.447226 3.268091 -0.967906
v 6.298812 3.244650 -1.283741
v -7.224564 3.263322 -1.031863
v 3.766104 3.273984 -1.282142
v 2.436959 3.292455 -2.999703
v 2.480366 3.299391 -1.283741
v -5.898044 3.292454 -2.999703
v -5.899479 3.292455 -0.967908
v 2.416713 3.292455 -5.904827
v -5.914675 3.275881 -5.904827
v -0.487053 3.292455 -5.904827
v -2.938739 3.292454 -5.904827
v -2.938739 3.292454 -2.999703
v -2.983302 3.292455 -1.283741
v -0.487167 3.292454 -2.999703
v -4.426751 3.292456 -1.283741
v 1.094270 3.292455 -1.283741
v -5.881162 3.264384 1.548652
v -4.426751 3.292456 1.548800
v 1.094270 3.292455 1.549703
v 2.480366 3.292456 1.567015
v -5.899558 3.292455 3.224689
v -4.426928 3.254395 3.224801
v 1.094269 3.263244 3.225516
v 2.480366 3.292456 3.225606
v -2.943573 3.267321 3.200901
v -0.468545 3.292455 3.225516
v 8.959501 -4.118603 -4.545217
v -11.871425 -3.384292 -1.085042
v -13.144873 -3.883689 -3.812136
v 8.631385 -3.319820 0.256139
v -11.182228 -2.534246 0.849486
v -9.186814 -2.378393 1.496481
v 5.913702 -3.168561 0.484744
v 4.766048 -3.250530 1.140355
v -3.107617 -2.044279 -1.306109
v -0.432502 -2.044280 -1.306109
v 1.258003 -2.044281 -1.306110
v -4.659922 -2.044278 -1.306109
v -8.442613 -2.442373 2.740074
v -4.659922 -2.044278 1.733648
v 3.888325 -3.276037 4.140366
v -7.269782 -2.812947 2.444729
v -4.909966 -3.228020 3.939881
v 2.869672 -2.904831 4.224669
v 1.121120 -2.765122 3.479915
v -2.923454 -3.625320 5.109716
v -0.523624 -3.555633 3.892423
v -5.898045 3.292454 -4.118705
v 2.432122 3.292455 -4.302043
v -9.447227 -2.233895 -0.967907
v -7.238585 -2.244512 -0.967906
v -5.899479 -2.239835 -0.967907
v -5.899479 -0.610301 1.548652
v -5.899558 -2.061302 3.224689
v -4.426928 -2.038687 3.224801
v -2.938739 -2.032378 3.224801
v -0.487864 -2.021461 3.225516
v 1.094269 -2.015159 3.225516
v 2.480366 -2.009217 3.225606
v 2.480366 -2.079170 1.549820
v 2.480366 -2.197454 -1.283741
v 3.718293 -2.200314 -1.283727
v 6.298812 -2.205874 -1.283741
v 6.297448 -1.965233 -4.302042
v -9.447037 -1.967142 -4.302043
v -7.238585 2.574956 -0.967906
v -5.899480 2.614501 -0.967907
v -7.238585 0.678920 -0.967906
v -5.899479 0.676241 -0.967907
v -7.238588 1.300058 -0.967905
v -9.447226 1.350465 -1.342966
v -5.899478 1.262417 -0.967906
v -4.518272 -2.282952 3.375821
v -2.970222 -2.269581 3.738108
v -0.505380 -2.501974 3.426154
v 1.104828 -2.310066 3.325553
v 2.480366 2.426847 -1.283741
v 3.751309 2.436055 -1.283727
v 3.718272 0.824483 -1.283727
v 2.480366 0.795926 -1.283741
v 2.480366 0.030758 -1.283741
v 3.718277 0.117389 -1.283727
v 6.298155 -2.089870 -2.738754
v -0.538137 3.294768 -1.063016
v -0.482799 -1.932005 -1.084248
v -3.040744 -1.999553 -1.084524
v -2.925652 3.295255 -1.063014
v -1.688318 3.295003 -1.063015
v -1.681387 -1.963676 -1.084377
v -3.017841 3.200243 3.224801
v -0.408293 3.226763 3.225516
v -5.899558 2.452457 3.224689
v -4.426928 2.454258 3.224801
v 1.094269 2.460968 3.225516
v -2.942834 2.451027 3.204555
v -0.487864 2.459178 3.225516
v -5.899558 2.368299 2.775837
v -4.426928 2.373178 3.135356
v 1.094269 2.391282 3.225516
v -0.487864 2.386403 3.225516
v -3.003135 2.369983 3.121429
v -2.939544 -1.150425 3.220818
v 1.094269 0.854587 3.225516
v -2.941231 0.696001 3.212480
v -0.487864 0.858632 3.225516
v -4.426928 0.713133 3.169011
v -5.899558 0.737570 2.950999
v -2.972768 0.688839 3.168892
v -1.723181 3.276279 3.213133
v -1.739316 -2.027036 3.225151
v -1.720082 2.455087 3.214995
v -1.727284 0.776472 3.218930
v -5.899558 -0.760193 2.904682
v -4.426928 -0.768969 3.199059
v 1.094269 -0.614450 3.225516
v -1.733592 -0.693265 3.222192
v -0.487864 -0.615641 3.225516
v -2.946363 -0.772947 3.210161
v -2.939893 -0.768353 3.219093
v 2.420339 0.850990 3.225603
v 2.480366 0.912519 3.225606
v 2.480366 0.811191 3.060733
v 2.422706 -0.613349 3.225603
v 2.480366 -0.552448 3.225606
v 2.480366 -0.646448 3.028148
v 2.425149 2.462592 3.225603
v 2.480366 2.527148 3.225606
v 2.427781 2.395697 3.225603
v 2.480366 2.340543 2.887813
v 2.432791 3.291453 3.225603
v 2.480366 0.802495 3.225606
v 2.410400 0.852034 3.060073
v 2.480366 -0.669565 3.225606
v 2.405329 -0.611796 3.045844
v 2.480366 2.320703 3.225606
v 2.424413 2.401571 2.917600
v -5.820227 2.368562 3.135251
v -5.899558 2.282296 3.136981
v -5.835903 0.736514 3.168209
v -5.899558 0.810136 3.166708
v -5.899558 0.655303 3.169834
v -5.838546 -0.760557 3.198443
v -5.899558 -0.839173 3.200011
v -5.899558 -0.697157 3.197144
v 5.012399 3.220544 -1.283734
v 5.072222 -2.203231 -1.283735
v -2.938739 3.306911 -4.538173
v -0.492457 3.292454 -4.499314
v -8.397334 1.326503 -0.967906
v -6.016220 3.303615 -0.967908
v -5.922543 3.238410 -1.025190
v -9.447226 2.610189 -1.147929
v -8.379123 2.593151 -0.967906
v -7.273899 3.259185 -0.978779
v -8.406336 3.292454 -0.969799
v -8.338513 3.291972 -0.968209
v -8.370045 3.224524 -0.967906
v -7.249611 3.244921 -1.004912
v -9.447226 2.556226 -0.967906
v -9.447226 2.649027 -0.967906
v -9.411343 2.609617 -0.967906
v -9.400284 1.349393 -0.967906
v -9.416141 1.280360 -0.967906
v -9.447226 1.394728 -0.967906
v -2.993535 0.940141 -6.063697
v -6.044909 0.992703 -6.060147
v -3.025187 1.494355 -3.049535
v -6.043781 1.010368 -4.222693
v -6.043068 1.021520 -3.062640
v 2.505711 1.191628 -4.397771
v 2.510918 1.412802 -3.051795
v 2.535736 0.917628 -6.065217
v -0.461344 0.799800 -6.073174
v -0.464612 1.105197 -3.060320
v -9.404907 3.292454 -0.967906
v -9.410977 2.648345 -0.967906
v -8.418196 2.629679 -1.023569
v -8.376654 1.262771 -0.967906
v -9.370113 1.279603 -0.967906
v -7.288033 1.244884 -0.967905
v -9.392244 1.315502 -1.021276
v -9.369697 1.311392 -1.021276
v -8.387698 1.296808 -1.021276
v -7.264818 1.270789 -1.021275
v -9.416141 -0.474718 -1.222843
v -9.393087 -0.474073 -0.967907
v -5.899479 -0.523083 -0.967907
v -7.238585 -0.504794 -0.967906
v -7.805614 -0.497050 -0.967906
v -9.416141 -0.437898 -0.967907
v -9.447226 -0.502253 -0.967907
v 5.038590 0.886340 -1.283734
v 6.163014 0.945381 -1.890141
v 3.718283 -0.692661 -1.283727
v 2.480366 -0.712363 -1.283741
v 5.055547 -0.671383 -1.283735
v 6.202740 -0.651601 -2.055631
v 6.128278 0.940261 -1.283741
v 6.237563 1.068948 -1.283741
v 6.256882 0.854917 -1.283741
v 6.278811 -0.783522 -1.283741
v 6.191528 -0.652990 -1.283741
v 6.296619 -0.579329 -1.283741
v 5.021845 2.424663 -1.283734
v 6.230890 2.413504 -1.734723
v 6.176066 2.414314 -1.283741
v 6.231693 2.326738 -1.327815
v 6.298812 2.469841 -1.283741
v 6.211387 3.292456 -1.283741
v -5.879261 3.295636 -4.186502
v 4.948807 3.291063 -1.283655
v 5.069958 3.292456 -1.283735
v 1.104500 3.252040 -1.226490
v 2.466676 3.233517 1.548028
v -5.916288 3.262668 -4.151591
v -5.899479 3.292455 1.477545
v -0.492462 3.216650 -4.462718
v 2.414816 3.233122 -4.369042
v 2.444743 3.056484 -4.318461
v 2.428306 3.054480 -4.373306
v 2.479887 3.290392 -1.184590
v 2.480137 3.217969 -1.236244
v 3.724437 3.265592 -1.282195
v 3.703588 3.266174 -1.282221
v -2.938739 3.266441 -4.497555
v -0.497920 3.257842 -1.279659
v -0.487079 3.250759 -1.283916
v -0.488935 3.251872 -3.014256
v -0.440489 3.229021 3.225516
v -2.981333 3.190982 3.208824
v 2.480366 -2.079170 1.549820
v 2.480366 -2.197454 -1.283741
v 2.480366 -2.009216 3.225606
v 1.742228 -2.012381 3.225558
v 1.767274 -2.165179 3.277420
v 1.872888 -2.825188 3.800112
v 1.615009 -0.614019 3.225550
v 1.481495 0.853537 3.225541
v 1.327382 2.392054 3.225531
v 1.320455 2.461244 3.225531
v 1.239814 3.266311 3.225525
vt 0.853848 0.740267
vt 0.991290 0.736864
vt 0.124494 0.741826
vt 0.264714 0.746044
vt 0.767927 0.805967
vt 0.783294 0.752233
vt 0.758225 0.856266
vt 0.713945 0.753500
vt 0.338418 0.744634
vt 0.348821 0.807296
vt 0.358636 0.854457
vt 0.371781 0.902981
vt 0.748165 0.898718
vt 0.622068 0.901807
vt 0.498264 0.902413
vt 0.412334 0.755404
vt 0.485266 0.755929
vt 0.394105 0.619963
vt 0.739537 0.614718
vt 0.297168 0.530255
vt 0.384651 0.531660
vt 0.752242 0.528510
vt 0.840719 0.531753
vt 0.479121 0.535544
vt 0.659721 0.532207
vt 0.961406 0.418837
vt 0.006785 0.323964
vt 0.066086 0.230112
vt 0.081940 0.116148
vt 0.922133 0.302553
vt 0.974361 0.328600
vt 0.899236 0.241649
vt 0.162897 0.374083
vt 0.112370 0.510328
vt 0.945149 0.374209
vt 0.495113 0.537546
vt 0.616968 0.538391
vt 0.690959 0.538944
vt 0.426724 0.536975
vt 0.414719 0.419860
vt 0.300618 0.017657
vt 0.405959 0.020370
vt 0.729679 0.011130
vt 0.809745 0.048481
vt 0.492374 0.017433
vt 0.186585 0.959958
vt 0.645383 0.009811
vt 0.290810 0.219866
vt 0.300933 0.372238
vt 0.842255 0.160800
vt 0.798224 0.107275
vt 0.300725 0.574742
vt 0.883797 0.078885
vt 0.161696 0.960004
vt 0.159899 0.943255
vt 0.187027 0.943201
vt 0.006780 0.501922
vt 0.290546 0.371248
vt 0.330266 0.117700
vt 0.403838 0.113580
vt 0.490934 0.111612
vt 0.646981 0.105174
vt 0.732038 0.107037
vt 0.731110 0.069324
vt 0.829541 0.374149
vt 0.866900 0.373112
vt 0.993628 0.404574
vt 0.146117 0.033750
vt 0.268801 0.684951
vt 0.320438 0.685716
vt 0.281308 0.524158
vt 0.291268 0.526630
vt 0.278886 0.576147
vt 0.142194 0.574536
vt 0.404644 0.078134
vt 0.491266 0.089936
vt 0.646496 0.076227
vt 0.801703 0.687522
vt 0.845303 0.685464
vt 0.837905 0.576892
vt 0.835425 0.566469
vt 0.844546 0.529843
vt 0.851669 0.529255
vt 0.952986 0.395723
vt 0.625093 0.743370
vt 0.615176 0.538703
vt 0.495726 0.541002
vt 0.487077 0.745627
vt 0.557561 0.744916
vt 0.559170 0.539781
vt 0.473138 0.527385
vt 0.661292 0.526197
vt 0.302361 0.465525
vt 0.387668 0.465927
vt 0.749077 0.462482
vt 0.480927 0.470723
vt 0.656695 0.466269
vt 0.302881 0.459040
vt 0.387960 0.459568
vt 0.748812 0.456949
vt 0.656537 0.460404
vt 0.477319 0.464031
vt 0.488966 0.182255
vt 0.742962 0.334921
vt 0.484844 0.330149
vt 0.653225 0.337281
vt 0.312963 0.333378
vt 0.393934 0.329384
vt 0.482881 0.329471
vt 0.568266 0.534490
vt 0.567301 0.108462
vt 0.568472 0.468505
vt 0.568161 0.333678
vt 0.322222 0.217962
vt 0.399268 0.213154
vt 0.737370 0.218266
vt 0.567710 0.215609
vt 0.650029 0.218469
vt 0.487717 0.212464
vt 0.488113 0.212858
vt 0.817761 0.336208
vt 0.821643 0.341204
vt 0.820639 0.331177
vt 0.806415 0.219009
vt 0.809900 0.223912
vt 0.808898 0.213898
vt 0.830681 0.465204
vt 0.834584 0.470479
vt 0.830317 0.459855
vt 0.833089 0.455538
vt 0.837681 0.531643
vt 0.820569 0.330480
vt 0.819047 0.336433
vt 0.808713 0.212047
vt 0.806825 0.218164
vt 0.832930 0.453950
vt 0.830424 0.459689
vt 0.307464 0.459069
vt 0.303413 0.452413
vt 0.312514 0.338970
vt 0.316463 0.333205
vt 0.313471 0.327039
vt 0.325414 0.217763
vt 0.322710 0.211876
vt 0.321832 0.222820
vt 0.907956 0.373688
vt 0.920608 0.740002
vt 0.160768 0.951358
vt 0.186819 0.951084
vt 0.205279 0.575459
vt 0.331943 0.744484
vt 0.336022 0.744578
vt 0.198426 0.680766
vt 0.129445 0.680617
vt 0.261758 0.740609
vt 0.190307 0.742337
vt 0.194592 0.742307
vt 0.193100 0.736589
vt 0.263213 0.743284
vt 0.131719 0.680612
vt 0.128450 0.675977
vt 0.130185 0.683957
vt 0.146680 0.574963
vt 0.140966 0.572308
vt 0.139067 0.579241
vt 0.490193 0.810816
vt 0.373597 0.812667
vt 0.186552 0.947604
vt 0.186966 0.926389
vt 0.362853 0.764846
vt 0.355535 0.718702
vt 0.750959 0.773774
vt 0.760053 0.733460
vt 0.741792 0.807741
vt 0.629736 0.809912
vt 0.162411 0.944978
vt 0.160844 0.925443
vt 0.127169 0.741847
vt 0.131461 0.683941
vt 0.195686 0.683822
vt 0.206801 0.571814
vt 0.146996 0.571051
vt 0.275964 0.571477
vt 0.143875 0.573660
vt 0.146852 0.572833
vt 0.205988 0.573761
vt 0.277336 0.573670
vt 0.151908 0.473426
vt 0.154932 0.472739
vt 0.285048 0.462244
vt 0.295243 0.463132
vt 0.248821 0.471178
vt 0.151678 0.475501
vt 0.152080 0.471871
vt 0.915068 0.579623
vt 0.965880 0.580572
vt 0.856992 0.474682
vt 0.839542 0.477918
vt 0.911482 0.475793
vt 0.953747 0.476725
vt 0.970147 0.586741
vt 0.963214 0.580856
vt 0.967418 0.574892
vt 0.953513 0.476660
vt 0.955685 0.468024
vt 0.957689 0.483780
vt 0.918610 0.682159
vt 0.979443 0.679386
vt 0.979418 0.672866
vt 0.975452 0.680118
vt 0.984884 0.684587
vt 0.986487 0.737077
vt 0.359134 0.856299
vt 0.917246 0.740010
vt 0.923770 0.739862
vt 0.715456 0.745753
vt 0.358878 0.855350
vt 0.160850 0.952116
vt 0.757805 0.858041
vt 0.756979 0.842118
vt 0.756789 0.845534
vt 0.850624 0.739493
vt 0.848193 0.739694
vt 0.186813 0.951318
vt 0.630031 0.754183
vt 0.630969 0.755047
vt 0.161686 0.959917
vt 0.660596 0.528159
vt 0.476087 0.531407
vt 0.027689 0.938468
vt 0.059800 0.938468
vt 0.059800 0.970475
vt 0.027689 0.970475
vt 0.027689 0.938468
vt 0.059800 0.938468
vt 0.059800 0.970475
vt 0.027689 0.970475
vt 0.572326 0.652422
vt 0.570627 0.652190
vt 0.570813 0.641573
vt 0.570680 0.652724
vt 0.572238 0.652803
vt 0.570611 0.653125
vt 0.571851 0.664108
vt 0.570420 0.664025
vt 0.570478 0.664446
vt 0.571918 0.664471
vt 0.570404 0.664917
vt 0.573152 0.676551
vt 0.570202 0.676419
vt 0.570250 0.677003
vt 0.572933 0.677019
vt 0.570243 0.677550
vt 0.570173 0.678120
vt 0.570062 0.684455
vt 0.584532 0.683625
vt 0.584370 0.684124
vt 0.606732 0.683588
vt 0.607134 0.683013
vt 0.607509 0.683641
vt 0.607469 0.676850
vt 0.607395 0.664310
vt 0.607361 0.658495
vt 0.607328 0.652888
vt 0.607263 0.641802
vt 0.477840 0.634901
vt 0.475540 0.646100
vt 0.462518 0.647847
vt 0.478363 0.645313
vt 0.476145 0.675045
vt 0.481459 0.684209
vt 0.463930 0.684171
vt 0.463222 0.684432
vt 0.438326 0.684735
vt 0.438396 0.678079
vt 0.479036 0.658693
vt 0.476900 0.659509
vt 0.478426 0.646554
vt 0.438586 0.659966
vt 0.438530 0.665306
vt 0.479108 0.660122
vt 0.479813 0.674137
vt 0.438697 0.649392
vt 0.438848 0.635026
vt 0.480841 0.675792
vt 0.762987 0.107129
vt 0.763441 0.087580
vt 0.764111 0.027170
vt 0.764443 0.218541
vt 0.764810 0.335285
vt 0.762949 0.462938
vt 0.763063 0.457449
vt 0.761514 0.528888
vt 0.763421 0.087623
vt 0.764091 0.027213
vt 0.762967 0.107171
vt 0.764423 0.218583
vt 0.764790 0.335327
vt 0.763043 0.457492
vt 0.762929 0.462980
vt 0.761535 0.528846
vn -0.193275 0.560667 0.805169
vn -0.230431 0.623618 0.746995
vn -0.230431 0.623618 0.746995
vn -0.265576 0.681127 0.682302
vn 0.152016 0.397766 0.904806
vn 0.238915 0.550497 0.799921
vn 0.238915 0.550497 0.799921
vn 0.315808 0.680174 0.661536
vn 0.137926 0.895839 0.422433
vn 0.047542 0.591483 0.804915
vn 0.072982 0.687837 0.722187
vn -0.001985 0.385371 0.922760
vn -0.001985 0.385371 0.922760
vn -0.002808 0.002231 0.999994
vn -0.004060 0.001115 0.999991
vn -0.004060 0.001115 0.999991
vn -0.005313 0.000000 0.999986
vn -0.810327 0.001905 0.585975
vn -0.810331 0.001906 0.585969
vn -0.810331 0.001906 0.585969
vn -0.810336 0.001906 0.585963
vn -0.002850 0.004513 0.999986
vn -0.004156 0.003378 0.999986
vn -0.004156 0.003378 0.999986
vn -0.005462 0.002242 0.999983
vn -0.810322 0.001905 0.585982
vn -0.810322 0.001905 0.585982
vn -0.810322 0.001905 0.585982
vn -0.002707 0.002230 0.999994
vn -0.001510 0.003373 0.999993
vn -0.001110 0.003754 0.999992
vn -0.000312 0.004516 0.999990
vn -0.000311 0.004516 0.999990
vn -0.002669 0.000000 0.999996
vn -0.001485 0.001110 0.999998
vn -0.001485 0.001110 0.999998
vn -0.000301 0.002220 0.999998
vn 0.503302 0.862911 0.045512
vn 0.503302 0.862911 0.045512
vn 0.503302 0.862911 0.045512
vn 0.437179 0.893274 0.104579
vn 0.437179 0.893274 0.104579
vn 0.437179 0.893274 0.104579
vn 0.745948 0.664859 0.039050
vn 0.745948 0.664859 0.039050
vn 0.745948 0.664859 0.039050
vn 0.000554 0.028231 0.999601
vn 0.005189 0.024250 0.999692
vn 0.005189 0.024250 0.999692
vn 0.009825 0.020269 0.999746
vn -0.003849 0.907846 0.419285
vn -0.101950 0.766496 0.634106
vn -0.101950 0.766496 0.634106
vn -0.192329 0.567082 0.800892
vn -0.007443 0.020269 0.999767
vn -0.007163 0.017584 0.999820
vn -0.010734 0.024117 0.999652
vn -0.007023 0.016242 0.999843
vn -0.000019 0.004516 0.999990
vn -0.000315 0.020270 0.999794
vn -0.000275 0.020231 0.999795
vn -0.000275 0.020231 0.999795
vn -0.000235 0.020192 0.999796
vn -0.007420 0.028086 0.999578
vn -0.003500 0.024178 0.999702
vn -0.003500 0.024178 0.999702
vn 0.000421 0.020269 0.999794
vn -0.731750 -0.666244 0.143738
vn -0.731750 -0.666244 0.143738
vn -0.731750 -0.666244 0.143738
vn -0.818606 0.550169 0.164919
vn -0.818606 0.550169 0.164919
vn -0.818606 0.550169 0.164919
vn 0.000000 0.000000 1.000000
vn 0.000000 0.000000 1.000000
vn 0.000000 0.000000 1.000000
vn 0.055970 -0.000526 0.998432
vn 0.039510 0.478260 0.877329
vn 0.039510 0.478260 0.877329
vn 0.013404 0.840268 0.542006
vn -0.692203 -0.716729 0.084587
vn -0.692203 -0.716729 0.084587
vn -0.692203 -0.716729 0.084587
vn -0.911994 -0.394327 0.113018
vn -0.911994 -0.394327 0.113018
vn -0.911994 -0.394327 0.113018
vn -0.153933 -0.844427 0.513077
vn -0.153933 -0.844427 0.513077
vn -0.153933 -0.844427 0.513077
vn 0.000000 0.000000 1.000000
vn 0.000001 0.000000 1.000000
vn 0.000001 0.000000 1.000000
vn 0.000001 0.000000 1.000000
vn -0.020281 -0.875217 0.483305
vn -0.020097 -0.873847 0.485785
vn -0.020097 -0.873847 0.485785
vn -0.019912 -0.872470 0.488261
vn -0.012991 -0.874766 0.484372
vn -0.015869 -0.848286 0.529301
vn -0.015869 -0.848286 0.529301
vn -0.018703 -0.819491 0.572786
vn -0.000000 0.000000 1.000000
vn -0.000000 0.000000 1.000000
vn -0.000000 0.000000 1.000000
vn -0.000000 0.000000 1.000000
vn -0.000000 0.000000 1.000000
vn -0.000000 0.000000 1.000000
vn -0.000000 0.000000 1.000000
vn -0.000000 0.000000 1.000000
vn -0.897470 -0.000005 0.441076
vn -0.897470 -0.000005 0.441076
vn -0.897470 -0.000005 0.441076
vn 0.899649 0.078601 0.429480
vn 0.899649 0.078601 0.429480
vn 0.899649 0.078601 0.429480
vn -0.430448 0.899742 0.071961
vn -0.442508 0.894711 0.060655
vn -0.442508 0.894711 0.060655
vn -0.454437 0.889412 0.049332
vn -0.000001 -0.000000 1.000000
vn -0.000001 -0.000000 1.000000
vn -0.000001 -0.000000 1.000000
vn 0.000000 -0.000000 1.000000
vn 0.004739 0.985869 0.167454
vn -0.210159 0.976882 -0.039187
vn -0.210159 0.976882 -0.039187
vn -0.406361 0.880989 -0.242342
vn -0.000001 -0.000000 1.000000
vn -0.000000 -0.000000 1.000000
vn -0.000000 -0.000000 1.000000
vn -0.000000 -0.000000 1.000000
vn -0.000000 -0.000000 1.000000
vn 0.000000 -0.000000 1.000000
vn 0.000001 -0.000000 1.000000
vn 0.000001 -0.000000 1.000000
vn 0.000000 0.000000 1.000000
vn -0.652020 0.733702 0.191182
vn -0.652020 0.733702 0.191182
vn -0.652020 0.733702 0.191182
vn 0.154622 0.848289 0.506456
vn 0.084386 0.842647 0.531813
vn 0.084386 0.842647 0.531813
vn 0.013676 0.832280 0.554187
vn 0.012757 0.859031 0.511764
vn 0.013533 0.851788 0.523712
vn 0.013533 0.851788 0.523712
vn 0.014307 0.844378 0.535556
vn 0.020759 0.895855 0.443860
vn 0.017340 0.871310 0.490427
vn 0.017340 0.871310 0.490427
vn 0.013873 0.844339 0.535630
vn 0.000000 -0.000000 1.000000
vn 0.000000 -0.000000 1.000000
vn 0.000000 -0.000000 1.000000
vn -0.000001 -0.000000 1.000000
vn -0.000001 -0.000000 1.000000
vn -0.000001 -0.000000 1.000000
vn -0.000001 -0.000000 1.000000
vn 0.000000 0.000000 1.000000
vn 0.000000 0.000000 1.000000
vn 0.000000 0.000000 1.000000
vn -0.840765 -0.535841 0.077385
vn -0.840765 -0.535841 0.077385
vn -0.840765 -0.535841 0.077385
vn -0.461354 0.886338 0.039474
vn -0.461354 0.886338 0.039474
vn -0.461354 0.886338 0.039474
vn 0.450467 0.892016 -0.037236
vn 0.463091 0.884645 0.054321
vn 0.463091 0.884645 0.054321
vn 0.471734 0.869668 0.145411
vn 0.002116 0.917917 0.396767
vn 0.066816 0.925747 0.372193
vn 0.066816 0.925747 0.372193
vn 0.131192 0.929086 0.345815
vn -0.000011 -0.000000 1.000000
vn -0.000011 -0.000000 1.000000
vn -0.000011 -0.000000 1.000000
vn -0.000011 0.000000 1.000000
vn -0.000011 0.000000 1.000000
vn -0.000011 -0.000000 1.000000
vn -0.000011 -0.000000 1.000000
vn -0.000011 -0.000000 1.000000
vn 0.486933 0.866376 -0.110859
vn 0.586918 0.809637 0.003983
vn 0.563198 0.825946 -0.024932
vn 0.631109 0.773263 0.061365
vn 0.631109 0.773263 0.061365
vn 0.000005 -0.000000 1.000000
vn 0.000005 -0.000000 1.000000
vn 0.000005 -0.000000 1.000000
vn 0.000005 0.000000 1.000000
vn 0.001895 0.878126 0.478426
vn 0.031138 0.875012 0.483099
vn 0.001895 0.878126 0.478426
vn 0.089540 0.866456 0.491159
vn 0.045763 0.873162 0.485277
vn 0.831207 0.555809 0.013073
vn 0.831207 0.555809 0.013073
vn 0.831207 0.555809 0.013073
vn 0.573958 -0.818856 0.006863
vn 0.573958 -0.818856 0.006863
vn 0.573958 -0.818856 0.006863
vn 0.000006 0.000000 1.000000
vn 0.000006 0.000000 1.000000
vn 0.000006 0.000000 1.000000
vn 0.000005 0.000000 1.000000
vn 0.000005 0.000000 1.000000
vn 0.000005 0.000000 1.000000
vn 0.000005 -0.000000 1.000000
vn 0.761675 -0.646834 0.038169
vn 0.761675 -0.646834 0.038169
vn 0.761675 -0.646834 0.038169
vn 0.552534 0.832592 0.038681
vn 0.552534 0.832592 0.038681
vn 0.552534 0.832592 0.038681
vn 0.000004 0.000000 1.000000
vn 0.000005 0.000000 1.000000
vn 0.000005 0.000000 1.000000
vn 0.000006 0.000000 1.000000
vn -0.000011 -0.000000 1.000000
vn -0.000011 -0.000000 1.000000
vn -0.000011 -0.000000 1.000000
vn -0.000011 0.000000 1.000000
vn 0.000006 -0.000000 1.000000
vn 0.000005 -0.000000 1.000000
vn 0.000005 -0.000000 1.000000
vn 0.000005 0.000000 1.000000
vn 0.000005 0.000000 1.000000
vn 0.000006 -0.000000 1.000000
vn 0.000006 0.000000 1.000000
vn 0.000006 0.000000 1.000000
vn 0.000006 0.000000 1.000000
vn 0.411610 -0.909894 0.051670
vn 0.411610 -0.909894 0.051670
vn 0.411610 -0.909894 0.051670
vn 0.862385 0.495467 0.103948
vn 0.862385 0.495467 0.103948
vn 0.862385 0.495467 0.103948
vn 0.000006 -0.000000 1.000000
vn 0.345912 0.015812 0.938134
vn 0.345912 0.015812 0.938134
vn 0.649020 0.029667 0.760193
vn 0.000005 -0.000000 1.000000
vn 0.000005 -0.000000 1.000000
vn 0.000005 -0.000000 1.000000
vn 0.000005 0.000000 1.000000
vn -0.998731 -0.049388 -0.009868
vn -0.998957 -0.045461 -0.004379
vn -0.998957 -0.045461 -0.004379
vn -0.999137 -0.041531 0.001110
vn -0.954121 -0.078945 0.288828
vn -0.951292 -0.075586 0.298883
vn -0.951292 -0.075586 0.298883
vn -0.948348 -0.072219 0.308903
vn -0.997160 -0.075199 -0.004137
vn -0.997160 -0.075199 -0.004137
vn -0.997160 -0.075199 -0.004137
vn -0.956560 -0.043532 0.288266
vn -0.956560 -0.043532 0.288266
vn -0.956560 -0.043532 0.288266
vn -0.998552 -0.053665 0.003709
vn -0.998552 -0.053665 0.003709
vn -0.998552 -0.053665 0.003709
vn -0.999225 -0.039349 0.001142
vn -0.999331 -0.036210 0.005222
vn -0.999331 -0.036210 0.005222
vn -0.999410 -0.033069 0.009301
vn 0.000006 -0.000000 1.000000
vn 0.000006 -0.000000 1.000000
vn 0.000006 -0.000000 1.000000
vn 0.000006 -0.000000 1.000000
vn 0.000010 0.000000 1.000000
vn 0.000010 0.000000 1.000000
vn 0.000010 0.000000 1.000000
vn 0.001259 0.000015 0.999999
vn 0.001259 0.000015 0.999999
vn 0.001259 0.000015 0.999999
vn 0.000005 0.000000 1.000000
vn 0.000005 -0.000000 1.000000
vn 0.000005 -0.000000 1.000000
vn 0.000005 -0.000000 1.000000
vn -0.000011 0.000000 1.000000
vn -0.000011 0.000000 1.000000
vn -0.000011 0.000000 1.000000
vn -0.000011 0.000000 1.000000
vn 0.000005 -0.000000 1.000000
vn 0.000005 -0.000000 1.000000
vn 0.000005 -0.000000 1.000000
vn 0.000005 -0.000000 1.000000
vn 0.001307 -0.001916 0.999997
vn 0.000656 -0.001003 0.999999
vn 0.000656 -0.001003 0.999999
vn 0.000005 -0.000091 1.000000
vn -0.000898 -0.001877 0.999998
vn -0.000898 -0.001877 0.999998
vn -0.000898 -0.001877 0.999998
vn -0.001328 -0.001891 0.999997
vn -0.001328 -0.001891 0.999997
vn -0.001328 -0.001891 0.999997
vn 0.000003 -0.001814 0.999998
vn -0.000620 -0.000907 0.999999
vn -0.000620 -0.000907 0.999999
vn -0.001242 0.000000 0.999999
vn 0.000000 0.000000 1.000000
vn -0.000001 0.000000 1.000000
vn -0.000001 0.000000 1.000000
vn -0.000002 0.000000 1.000000
vn -0.193103 -0.075906 0.978238
vn -0.542873 -0.034575 0.839103
vn -0.542873 -0.034575 0.839103
vn -0.814792 0.011714 0.579635
vn 0.055970 -0.000527 0.998432
vn 0.028963 -0.040760 0.998749
vn 0.028963 -0.040760 0.998749
vn 0.001889 -0.080897 0.996721
vn 0.744814 0.049014 0.665469
vn 0.744814 0.049014 0.665469
vn 0.744814 0.049014 0.665469
vn 0.000253 0.015903 0.999874
vn 0.006700 0.005206 0.999964
vn 0.005089 0.007880 0.999956
vn 0.009923 -0.000142 0.999951
vn 0.009923 -0.000142 0.999951
vn 0.714202 0.050319 0.698128
vn 0.714202 0.050319 0.698128
vn 0.714202 0.050319 0.698128
vn 0.000000 -0.004191 0.999991
vn -0.000000 -0.004191 0.999991
vn -0.000000 -0.004191 0.999991
vn -0.000000 -0.004191 0.999991
vn 0.887274 -0.035707 -0.459859
vn 0.887274 -0.035707 -0.459859
vn 0.887274 -0.035707 -0.459859
vn 0.998377 -0.056944 -0.000066
vn 0.997887 -0.064217 -0.009899
vn 0.997887 -0.064217 -0.009899
vn 0.997247 -0.071481 -0.019731
vn 0.997967 -0.063731 -0.000000
vn 0.997967 -0.063731 -0.000000
vn 0.997967 -0.063731 -0.000000
vn 0.997967 -0.063731 -0.000000
vn 0.713534 -0.062420 0.697834
vn 0.713534 -0.062420 0.697834
vn 0.713534 -0.062420 0.697834
vn -0.000008 -0.067871 0.997694
vn 0.000183 -0.067632 0.997710
vn 0.000183 -0.067632 0.997710
vn 0.000375 -0.067393 0.997727
vn -0.999593 0.024296 -0.014964
vn -0.994041 0.092396 0.057842
vn -0.999330 0.035766 -0.007733
vn -0.981085 0.148648 0.124003
vn -0.981044 0.149058 0.123831
vn -0.998845 0.048046 -0.000834
vn 0.000000 -0.004062 0.999992
vn -0.000000 -0.004062 0.999992
vn -0.000000 -0.004062 0.999992
vn -0.000001 -0.004062 0.999992
vn -0.987491 -0.030945 0.154609
vn -0.987491 -0.030945 0.154609
vn -0.987491 -0.030945 0.154609
vn -0.000000 -0.004062 0.999992
vn -0.000000 -0.004062 0.999992
vn -0.000000 -0.004062 0.999992
vn 0.000000 -0.004062 0.999992
vn 0.365420 -0.000135 0.930843
vn 0.365420 -0.000135 0.930843
vn 0.365420 -0.000135 0.930843
vn 0.000000 -0.004191 0.999991
vn 0.000000 -0.004191 0.999991
vn 0.000000 -0.004191 0.999991
vn 0.000000 -0.004191 0.999991
vn 0.000000 -0.067384 0.997727
vn 0.000000 -0.067384 0.997727
vn 0.000000 -0.067384 0.997727
vn 0.000000 -0.067384 0.997727
vn 0.999947 0.010310 0.000039
vn 0.999951 0.009448 0.002830
vn 0.999920 0.012648 0.000644
vn 0.999932 0.011388 -0.002712
vn 0.999950 0.009808 0.001913
vn 0.999991 0.001788 0.003845
vn 0.986894 0.014631 -0.160703
vn 0.986894 0.014631 -0.160703
vn 0.986894 0.014631 -0.160703
vn -0.008545 0.002235 0.999961
vn -0.009209 0.001232 0.999957
vn -0.009209 0.001232 0.999957
vn -0.009872 0.000229 0.999951
vn 0.000000 0.000000 1.000000
vn 0.000000 0.000000 1.000000
vn 0.000000 0.000000 1.000000
vn -0.005470 0.002368 0.999982
vn -0.007004 0.001184 0.999975
vn -0.007515 0.000789 0.999971
vn -0.008538 0.000000 0.999964
vn -0.008538 0.000000 0.999964
vn -0.000004 0.000000 1.000000
vn -0.000004 0.000000 1.000000
vn -0.000004 0.000000 1.000000
vn -0.810334 0.001906 0.585965
vn -0.810332 0.001906 0.585968
vn -0.810332 0.001906 0.585968
vn -0.810331 0.001906 0.585970
vn -0.008545 0.002381 0.999961
vn -0.007079 0.003446 0.999969
vn -0.007079 0.003446 0.999969
vn -0.005613 0.004511 0.999974
vn 0.007918 -0.718854 0.695116
vn 0.006413 -0.729970 0.683449
vn 0.006413 -0.729970 0.683449
vn 0.004906 -0.740894 0.671604
vn 0.404218 0.015755 0.914527
vn 0.404218 0.015755 0.914527
vn 0.404218 0.015755 0.914527
vn -0.010040 0.002229 0.999947
vn -0.009296 0.003349 0.999951
vn -0.009296 0.003349 0.999951
vn -0.008552 0.004469 0.999953
vn 0.196517 0.004567 0.980490
vn 0.196517 0.004567 0.980490
vn 0.196517 0.004567 0.980490
vn 0.000000 0.000000 0.000000
vn 0.000000 0.000000 0.000000
vn 0.000000 0.000000 0.000000
vn 0.000000 0.000000 0.000000
vn 0.927088 -0.044994 -0.372134
vn 0.981603 -0.022918 -0.189555
vn 0.981603 -0.022918 -0.189555
vn 1.000000 0.000000 0.000000
vn 0.928546 -0.085451 -0.361247
vn 0.981974 -0.043510 -0.183939
vn 0.981974 -0.043510 -0.183939
vn 1.000000 0.000000 0.000000
vn 0.983897 0.000000 -0.178737
vn 0.983897 0.000000 -0.178737
vn 0.983897 0.000000 -0.178737
vn 0.976113 -0.197746 -0.090000
vn 0.990399 -0.130653 -0.045152
vn 0.990399 -0.130653 -0.045152
vn 0.998033 -0.062683 0.000000
vn 0.999010 -0.044317 0.003907
vn 0.999010 -0.044317 0.003907
vn 0.999010 -0.044317 0.003907
vn 0.999909 -0.005354 0.012359
vn 0.999909 -0.005354 0.012359
vn 0.999909 -0.005354 0.012359
vn 0.999988 -0.000000 0.004833
vn 0.999988 -0.000000 0.004833
vn 0.999988 -0.000000 0.004833
vn 0.999911 -0.000510 0.013314
vn 0.999911 -0.000510 0.013314
vn 0.999911 -0.000510 0.013314
vn 0.740390 0.672034 0.013904
vn 0.740390 0.672034 0.013904
vn 0.740390 0.672034 0.013904
vn 0.998847 -0.045021 0.016670
vn 0.999712 -0.022517 0.008337
vn 0.999712 -0.022517 0.008337
vn 1.000000 0.000000 -0.000000
vn 0.504166 0.863601 -0.003034
vn 0.504166 0.863601 -0.003034
vn 0.504166 0.863601 -0.003034
vn 0.998563 -0.052755 0.009477
vn 0.999641 -0.026387 0.004740
vn 0.999641 -0.026387 0.004740
vn 1.000000 0.000000 -0.000000
vn 0.442042 0.886132 0.139173
vn 0.442042 0.886132 0.139173
vn 0.442042 0.886132 0.139173
vn 0.983451 0.009677 0.180918
vn 0.980069 0.010325 0.198389
vn 0.980069 0.010325 0.198389
vn 0.976377 0.010970 0.215798
vn -0.000233 0.020269 0.999795
vn -0.000188 0.020231 0.999795
vn -0.000188 0.020231 0.999795
vn -0.000143 0.020192 0.999796
vn -0.010956 0.515816 0.856629
vn -0.284326 0.314099 0.905815
vn -0.284326 0.314099 0.905815
vn -0.524191 0.075368 0.848259
vn -0.008174 0.528063 0.849166
vn -0.008174 0.528063 0.849166
vn -0.008174 0.528063 0.849166
vn -0.000386 0.020192 0.999796
vn -0.000351 0.020231 0.999795
vn -0.000351 0.020231 0.999795
vn -0.000315 0.020270 0.999795
vn -0.000320 0.020189 0.999796
vn -0.000320 0.020189 0.999796
vn -0.000320 0.020189 0.999796
vn -0.000231 0.020192 0.999796
vn -0.000276 0.020190 0.999796
vn -0.000276 0.020190 0.999796
vn -0.000321 0.020189 0.999796
vn 0.999047 -0.043650 0.000000
vn 0.999047 -0.043650 0.000000
vn 0.999047 -0.043650 0.000000
vn 0.999047 -0.043650 0.000000
vn 0.013580 -0.025652 0.999579
vn 0.006791 -0.012827 0.999895
vn 0.006791 -0.012827 0.999895
vn 0.000000 0.000000 1.000000
vn 0.002404 -0.740902 0.671609
vn 0.001622 -0.734967 0.678101
vn 0.001622 -0.734967 0.678101
vn 0.000840 -0.728975 0.684540
vn -0.000075 0.000000 1.000000
vn -0.000076 0.000000 1.000000
vn -0.000076 0.000000 1.000000
vn -0.000076 0.000000 1.000000
vn -0.000149 0.020192 0.999796
vn -0.000189 0.020190 0.999796
vn -0.000189 0.020190 0.999796
vn -0.000229 0.020188 0.999796
vn -0.003488 0.998667 0.051497
vn -0.039771 0.998948 0.022828
vn -0.039771 0.998948 0.022828
vn -0.075969 0.997093 -0.005889
vn 0.000001 0.000000 1.000000
vn 0.000001 0.000000 1.000000
vn 0.000001 0.000000 1.000000
vn 0.000001 0.000000 1.000000
vn -0.404913 0.767502 -0.496976
vn -0.470075 0.876941 -0.100022
vn -0.470075 0.876941 -0.100022
vn -0.453539 0.833971 0.314316
vn 0.297102 0.195397 0.934639
vn -0.191245 0.469617 0.861908
vn -0.191245 0.469617 0.861908
vn -0.618591 0.594044 0.514254
vn 0.000001 0.000000 1.000000
vn 0.000001 0.000000 1.000000
vn 0.000001 0.000000 1.000000
vn 0.000001 0.000000 1.000000
vn 0.000000 -0.000001 1.000000
vn 0.000001 -0.000002 1.000000
vn 0.000001 -0.000002 1.000000
vn 0.000001 -0.000002 1.000000
vn -0.714173 -0.684256 0.147481
vn -0.714173 -0.684256 0.147481
vn -0.714173 -0.684256 0.147481
vn -0.777956 0.606988 0.162326
vn -0.777956 0.606988 0.162326
vn -0.777956 0.606988 0.162326
vn -1.000000 -0.000014 -0.000060
vn -1.000000 -0.000014 -0.000060
vn -1.000000 -0.000014 -0.000060
vn -1.000000 0.000000 0.000000
vn -1.000000 0.000000 0.000000
vn -1.000000 0.000000 0.000000
vn -0.639422 -0.755688 0.141689
vn -0.639422 -0.755688 0.141689
vn -0.639422 -0.755688 0.141689
vn -0.725044 0.669968 0.159544
vn -0.725044 0.669968 0.159544
vn -0.725044 0.669968 0.159544
vn 0.000001 0.000001 1.000000
vn 0.000001 0.000001 1.000000
vn 0.000001 0.000001 1.000000
vn 0.000000 0.000000 1.000000
vn 0.000001 0.000001 1.000000
vn -0.027906 0.046817 0.998514
vn -0.027906 0.046817 0.998514
vn -0.055731 0.093494 0.994059
vn -0.927633 0.000001 0.373493
vn -0.927633 0.000001 0.373493
vn -0.927633 0.000001 0.373493
vn 0.567092 0.096069 0.818033
vn 0.567092 0.096069 0.818033
vn 0.567092 0.096069 0.818033
vn -0.999924 0.005375 -0.011065
vn -0.993322 -0.111343 0.030233
vn -0.999891 0.013951 -0.004803
vn -0.993000 -0.113126 0.033974
vn -0.982135 -0.181338 0.050272
vn -1.000000 0.000001 0.000000
vn -0.741065 -0.636389 0.214082
vn -0.741065 -0.636389 0.214082
vn -0.741065 -0.636389 0.214082
vn -0.764292 0.603627 0.226918
vn -0.764292 0.603627 0.226918
vn -0.764292 0.603627 0.226918
vn -1.000000 -0.000001 0.000000
vn -1.000000 -0.000000 0.000000
vn -1.000000 -0.000000 0.000000
vn -1.000000 0.000000 0.000000
vn -1.000000 -0.000002 -0.000020
vn -1.000000 -0.000000 -0.000021
vn -1.000000 0.000000 -0.000021
vn -1.000000 0.000001 -0.000022
vn -1.000000 -0.000002 -0.000021
vn -1.000000 0.000000 0.000000
vn -1.000000 0.000000 0.000000
vn -1.000000 0.000000 0.000000
vn -1.000000 0.000000 0.000000
vn -1.000000 0.000000 0.000000
vn -1.000000 0.000000 0.000000
vn -1.000000 0.000000 0.000000
vn -1.000000 0.000000 0.000000
vn -1.000000 0.000000 0.000000
vn -1.000000 0.000000 0.000000
vn -1.000000 0.000000 0.000000
vn -1.000000 0.000001 -0.000058
vn -1.000000 -0.000019 -0.000039
vn -1.000000 -0.000019 -0.000039
vn -1.000000 -0.000039 -0.000019
vn -0.999576 -0.028922 -0.003262
vn -0.999576 -0.028922 -0.003262
vn -0.999576 -0.028922 -0.003262
vn -0.958311 0.021129 0.284944
vn -0.962998 0.020569 0.268721
vn -0.962998 0.020569 0.268721
vn -0.967411 0.020003 0.252421
vn 0.000000 0.000000 1.000000
vn 0.000000 0.000000 1.000000
vn 0.000000 0.000000 1.000000
vn 0.000000 0.000000 1.000000
vn 0.679466 0.733069 -0.030601
vn 0.534616 0.797035 0.280929
vn 0.534616 0.797035 0.280929
vn 0.324477 0.763663 0.558151
vn -0.001439 0.321190 0.947014
vn -0.001439 0.321190 0.947014
vn -0.001439 0.321190 0.947014
vn -0.076511 0.611466 0.787563
vn -0.160881 0.645471 0.746649
vn -0.160881 0.645471 0.746649
vn -0.243650 0.673055 0.698307
vn -0.000066 0.000000 1.000000
vn -0.000066 0.000000 1.000000
vn -0.000066 0.000000 1.000000
vn -0.000065 0.000000 1.000000
vn 0.696775 0.714676 -0.061179
vn 0.696775 0.714676 -0.061179
vn 0.696775 0.714676 -0.061179
vn -0.000049 0.000000 1.000000
vn -0.000049 0.000000 1.000000
vn -0.000049 0.000000 1.000000
vn 0.000000 0.000000 1.000000
vn 0.000000 0.000000 1.000000
vn 0.000000 0.000000 1.000000
vn -0.000000 0.000000 1.000000
vn -0.000063 0.000000 1.000000
vn -0.000060 0.000000 1.000000
vn -0.000060 0.000000 1.000000
vn -0.000057 0.000000 1.000000
vn 0.628089 0.777450 -0.032810
vn 0.628089 0.777450 -0.032810
vn 0.628089 0.777450 -0.032810
vn -0.000066 0.000000 1.000000
vn -0.000066 -0.000000 1.000000
vn -0.000066 -0.000000 1.000000
vn -0.000066 -0.000000 1.000000
vn -0.000059 0.000000 1.000000
vn -0.000060 -0.000000 1.000000
vn -0.000060 -0.000000 1.000000
vn -0.000061 -0.000000 1.000000
vn -0.000065 0.000000 1.000000
vn -0.000066 0.000001 1.000000
vn -0.000066 0.000001 1.000000
vn -0.000066 0.000001 1.000000
vn -0.000065 -0.000000 1.000000
vn -0.000065 -0.000000 1.000000
vn -0.000065 -0.000000 1.000000
vn -0.000066 0.000000 1.000000
vn -0.000058 -0.000000 1.000000
vn -0.000063 -0.000000 1.000000
vn -0.000063 -0.000000 1.000000
vn -0.000068 0.000000 1.000000
vn 0.818771 0.574116 0.001997
vn 0.818771 0.574116 0.001997
vn 0.818771 0.574116 0.001997
vn -0.000065 -0.000000 1.000000
vn -0.000065 -0.000000 1.000000
vn -0.000065 -0.000000 1.000000
vn -0.000066 0.000000 1.000000
vn 0.000000 0.000000 1.000000
vn 0.000000 0.000000 1.000000
vn 0.000000 0.000000 1.000000
vn -0.000000 0.000000 1.000000
vn 0.000000 0.000000 1.000000
vn -0.000000 0.000000 1.000000
vn -0.000000 0.000000 1.000000
vn -0.000000 0.000000 1.000000
vn 0.000000 0.000000 0.000000
vn 1.000000 0.000000 0.000000
vn 1.000000 0.000000 0.000000
vn 1.000000 0.000000 0.000000
vn 1.000000 0.000000 0.000000
vn 1.000000 0.000000 0.000000
vn 1.000000 0.000000 0.000000
vn 0.724065 -0.685541 -0.075917
vn 0.724065 -0.685541 -0.075917
vn 0.724065 -0.685541 -0.075917
vn 0.714986 -0.697535 -0.047331
vn 0.714986 -0.697535 -0.047331
vn 0.714986 -0.697535 -0.047331
vn 0.999176 0.039301 -0.010175
vn 0.999176 0.039301 -0.010175
vn 0.999176 0.039301 -0.010175
vn 0.753880 -0.644827 0.125950
vn 0.753880 -0.644827 0.125950
vn 0.753880 -0.644827 0.125950
vn 1.000000 0.000000 -0.000000
vn 1.000000 0.000000 -0.000000
vn 1.000000 0.000000 -0.000000
vn 1.000000 0.000000 -0.000000
vn 1.000000 0.000000 -0.000000
vn 1.000000 0.000000 -0.000000
vn 1.000000 0.000000 -0.000000
vn 0.000000 0.000000 1.000000
vn 0.000000 0.000000 1.000000
vn 0.000000 0.000000 1.000000
vn -0.000000 0.000000 1.000000
vn 0.011783 0.384917 0.922876
vn 0.005255 0.353269 0.935507
vn 0.005255 0.353269 0.935507
vn -0.001279 0.321196 0.947012
vn 0.035133 0.403913 0.914123
vn 0.027985 0.363237 0.931276
vn 0.027985 0.363237 0.931276
vn 0.020782 0.321835 0.946568
vn -0.000068 -0.000000 1.000000
vn -0.000065 -0.000000 1.000000
vn -0.000065 -0.000000 1.000000
vn -0.000061 0.000000 1.000000
vn -0.000065 0.000000 1.000000
vn -0.000065 0.000000 1.000000
vn -0.000065 0.000000 1.000000
vn -0.000064 0.000000 1.000000
vn -0.000066 -0.000000 1.000000
vn -0.000065 -0.000000 1.000000
vn -0.000065 -0.000000 1.000000
vn -0.000064 0.000000 1.000000
vn -0.000065 0.000000 1.000000
vn -0.000066 0.000000 1.000000
vn -0.000066 0.000000 1.000000
vn -0.000067 0.000000 1.000000
vn -0.000065 0.000000 1.000000
vn -0.000065 0.000000 1.000000
vn -0.000065 0.000000 1.000000
vn -0.000065 0.000000 1.000000
vn -0.001439 0.321190 0.947014
vn -0.001439 0.321190 0.947014
vn -0.001439 0.321190 0.947014
vn -0.001439 0.321190 0.947014
vn -0.284050 0.566921 0.773250
vn -0.145887 0.453830 0.879065
vn -0.145887 0.453830 0.879065
vn -0.001440 0.321191 0.947013
f 74/75/1 44/42/2 75/76/3
f 75/76/3 44/42/2 47/45/4
f 76/77/5 75/76/6 48/47/7
f 48/47/7 75/76/6 47/45/8
f 75/76/9 76/77/10 57/61/11
f 57/61/11 76/77/10 111/111/12
f 76/77/10 58/62/13 111/111/12
f 117/117/14 118/118/15 113/113/16
f 113/113/16 118/118/15 106/106/17
f 119/119/18 120/120/19 109/109/20
f 109/109/20 120/120/19 105/105/21
f 120/120/22 117/117/23 105/105/24
f 105/105/24 117/117/23 113/113/25
f 120/120/26 119/119/27 103/103/28
f 117/117/29 120/120/30 111/111/31
f 120/120/30 103/103/32 111/111/31
f 103/103/32 57/61/33 111/111/31
f 118/118/34 117/117/35 58/62/36
f 58/62/36 117/117/35 111/111/37
f 133/133/38 132/132/39 123/123/40
f 135/135/41 134/134/42 126/126/43
f 137/137/44 136/136/45 130/130/46
f 109/109/47 102/102/48 107/108/49
f 107/108/49 102/102/48 99/99/50
f 57/61/51 56/60/52 75/76/53
f 75/76/53 56/60/52 74/75/54
f 115/115/55 56/60/56 119/119/57
f 119/119/57 56/60/56 103/103/58
f 56/60/56 57/61/59 103/103/58
f 115/115/60 107/108/61 143/143/62
f 143/143/62 107/108/61 140/141/63
f 119/119/64 109/109/65 115/115/66
f 115/115/66 109/109/65 107/108/67
f 162/160/68 161/162/69 153/154/70
f 160/161/71 162/160/72 153/154/73
f 177/179/74 161/162/75 162/160/76
f 177/179/77 162/160/78 178/180/79
f 178/180/79 162/160/78 154/153/80
f 163/163/81 165/165/82 72/74/83
f 72/74/84 182/184/85 163/163/86
f 182/184/87 183/185/88 163/163/89
f 162/160/90 160/161/91 163/163/92
f 163/163/92 160/161/91 165/165/93
f 184/186/94 185/187/95 150/150/96
f 150/150/96 185/187/95 71/73/97
f 184/186/98 150/150/99 183/185/100
f 183/185/100 150/150/99 163/163/101
f 150/150/102 154/153/103 163/163/104
f 163/163/104 154/153/103 162/160/105
f 71/73/106 67/69/107 150/150/108
f 150/150/108 67/69/107 154/153/109
f 185/187/110 69/71/111 71/73/112
f 69/71/113 185/187/114 181/183/115
f 51/33/116 66/34/117 29/27/118
f 29/27/118 66/34/117 30/57/119
f 187/189/120 180/182/121 191/193/122
f 191/193/122 180/182/121 164/164/123
f 52/58/124 51/33/125 32/28/126
f 32/28/126 51/33/125 29/27/127
f 190/192/128 179/181/129 187/189/130
f 187/189/130 179/181/129 180/182/131
f 179/181/132 190/192/133 181/183/134
f 181/183/134 190/192/133 69/71/135
f 190/192/133 189/190/136 69/71/135
f 182/184/137 72/74/138 164/164/139
f 183/185/140 182/184/141 180/182/142
f 180/182/142 182/184/141 164/164/143
f 183/185/144 180/182/145 184/186/146
f 184/186/146 180/182/145 179/181/147
f 185/187/148 184/186/149 181/183/150
f 181/183/150 184/186/149 179/181/151
f 187/189/152 192/194/153 51/33/154
f 187/189/155 51/33/156 190/192/157
f 190/192/157 51/33/156 52/58/158
f 189/190/159 190/192/160 52/58/161
f 187/189/162 191/193/163 186/188/164
f 192/194/165 187/189/166 186/188/167
f 62/65/168 61/50/169 35/32/170
f 35/32/170 61/50/169 42/53/171
f 62/65/172 35/32/173 63/66/174
f 63/66/174 35/32/173 34/30/175
f 195/197/176 196/198/177 63/66/178
f 63/66/178 196/198/177 62/65/179
f 196/198/180 195/197/181 82/82/182
f 82/82/182 195/197/181 83/83/183
f 31/31/184 28/67/185 64/35/186
f 64/35/186 28/67/185 84/84/187
f 28/67/185 65/26/188 84/84/187
f 197/199/189 195/197/190 147/146/191
f 147/146/191 195/197/190 63/66/192
f 63/66/193 34/30/194 147/146/195
f 31/31/196 64/35/197 34/30/194
f 147/146/195 34/30/194 64/35/197
f 203/204/198 202/205/199 198/200/200
f 204/206/201 203/204/202 198/200/203
f 203/204/204 64/35/205 202/205/206
f 64/35/207 203/204/208 147/146/209
f 147/146/209 203/204/208 197/199/210
f 200/201/211 199/202/212 194/196/213
f 199/202/214 201/203/215 194/196/216
f 199/202/217 203/204/218 201/203/219
f 201/203/219 203/204/218 204/206/220
f 80/80/221 81/81/222 83/83/223
f 83/83/223 81/81/222 82/82/224
f 193/195/225 80/80/226 197/199/227
f 80/80/226 83/83/228 197/199/227
f 197/199/227 83/83/228 195/197/229
f 197/199/230 203/204/231 193/195/232
f 193/195/232 203/204/231 199/202/233
f 209/211/234 207/210/235 206/208/236
f 207/210/237 208/209/238 206/208/239
f 199/202/240 200/201/241 207/210/242
f 207/210/242 200/201/241 208/209/243
f 207/210/244 209/211/245 210/212/246
f 210/212/246 209/211/245 2/2/247
f 173/174/248 171/172/249 9/13/250
f 9/13/250 171/172/249 221/221/251
f 221/221/252 220/220/253 219/219/254
f 219/219/254 220/220/253 50/7/255
f 9/13/256 221/221/257 219/219/258
f 220/220/259 221/221/260 171/172/261
f 220/220/262 5/5/263 50/7/264
f 5/5/265 220/220/266 172/173/267
f 172/173/267 220/220/266 171/172/268
f 193/195/269 199/202/270 205/207/271
f 205/207/271 199/202/270 207/210/272
f 205/207/273 213/215/274 146/147/275
f 212/214/276 205/207/277 146/147/278
f 205/207/279 207/210/280 213/215/281
f 213/215/281 207/210/280 210/212/282
f 79/79/283 78/78/284 80/80/285
f 80/80/285 78/78/284 81/81/286
f 80/80/287 193/195/288 79/79/289
f 79/79/289 193/195/288 205/207/290
f 4/1/291 79/79/292 212/214/293
f 212/214/293 79/79/292 205/207/294
f 224/222/295 79/79/296 4/1/297
f 225/223/298 79/79/299 224/222/300
f 79/79/301 225/223/302 78/78/303
f 78/78/303 225/223/302 6/6/304
f 161/162/305 177/179/306 1/3/307
f 1/3/307 177/179/306 176/178/308
f 156/156/309 178/180/310 158/158/311
f 158/158/311 178/180/310 154/153/312
f 177/179/313 178/180/314 176/178/315
f 176/178/315 178/180/314 156/156/316
f 67/69/317 159/159/318 155/155/319
f 67/69/320 155/155/321 154/153/322
f 157/157/323 158/158/324 155/155/321
f 155/155/321 158/158/324 154/153/322
f 159/159/325 67/69/326 3/4/327
f 14/17/328 16/16/329 36/36/330
f 36/36/330 16/16/329 39/39/331
f 169/170/332 216/217/333 49/11/334
f 167/167/335 10/12/336 169/170/337
f 169/170/337 10/12/336 211/213/338
f 169/170/339 49/11/340 170/171/341
f 170/171/341 49/11/340 7/10/342
f 216/217/343 169/170/344 211/213/345
f 167/167/346 166/166/347 10/12/348
f 10/12/348 166/166/347 12/15/349
f 166/169/350 168/168/351 12/56/352
f 12/56/352 168/168/351 148/149/353
f 148/149/353 168/168/351 226/224/354
f 168/168/351 13/46/355 226/224/354
f 89/89/356 88/88/357 90/90/358
f 90/90/358 88/88/357 87/87/359
f 38/38/360 214/216/361 17/8/362
f 90/90/363 86/86/364 89/89/365
f 89/89/365 86/86/364 85/85/366
f 227/225/367 37/37/368 228/226/369
f 228/226/370 37/37/371 17/8/372
f 17/8/372 37/37/371 38/38/373
f 173/174/374 9/13/375 174/175/376
f 174/175/376 9/13/375 11/14/377
f 174/177/378 11/55/379 175/176/380
f 229/227/381 175/176/380 218/218/382
f 149/148/383 218/218/382 11/55/379
f 11/55/379 218/218/382 175/176/380
f 175/176/384 229/227/385 15/54/386
f 112/112/387 97/97/388 110/110/389
f 110/110/389 97/97/388 27/25/390
f 97/97/391 230/228/392 27/25/393
f 113/113/394 106/106/395 112/112/396
f 97/97/397 112/112/396 101/101/398
f 101/101/398 112/112/396 106/106/395
f 230/228/399 97/97/400 92/92/401
f 109/109/402 105/105/403 102/102/404
f 102/102/404 105/105/403 96/96/405
f 112/112/406 96/96/407 113/113/408
f 113/113/408 96/96/407 105/105/409
f 96/96/410 94/94/411 102/102/412
f 102/102/412 94/94/411 99/99/413
f 96/96/414 231/229/415 91/91/416
f 110/110/417 26/24/418 112/112/419
f 112/112/419 26/24/418 96/96/420
f 231/229/421 96/96/422 26/24/423
f 232/233/424 61/230/425 233/232/426
f 61/230/425 62/231/427 233/232/426
f 135/242/428 123/244/429 125/243/430
f 125/243/430 123/244/429 132/245/431
f 133/247/432 130/249/433 122/248/434
f 122/248/434 130/249/433 136/250/435
f 128/254/436 137/252/437 25/255/438
f 215/256/439 21/257/440 137/252/441
f 25/255/442 137/252/441 21/257/440
f 215/256/443 137/252/444 222/258/445
f 223/259/446 222/258/447 137/252/448
f 6/260/449 223/259/450 78/261/451
f 78/261/452 223/259/453 137/252/454
f 137/252/455 130/249/456 78/261/457
f 133/247/458 81/262/459 130/249/460
f 130/249/460 81/262/459 78/261/461
f 133/247/462 123/244/463 81/262/464
f 135/242/465 82/263/466 123/244/467
f 123/244/467 82/263/466 81/262/468
f 135/242/469 126/238/470 82/263/471
f 85/85/472 86/86/473 227/225/474
f 227/225/474 86/86/473 37/37/475
f 107/108/476 99/99/477 140/141/478
f 140/141/478 99/99/477 138/138/479
f 74/75/480 55/59/481 44/42/482
f 44/42/482 55/59/481 43/41/483
f 56/60/484 55/59/485 74/75/486
f 55/59/487 56/60/488 143/143/489
f 143/143/489 56/60/488 115/115/490
f 55/59/491 143/143/492 144/144/493
f 140/141/494 142/142/495 143/143/496
f 143/143/496 142/142/495 145/145/497
f 16/16/498 19/18/499 39/39/500
f 39/39/500 19/18/499 41/40/501
f 96/96/502 91/91/503 94/94/504
f 94/94/504 91/91/503 23/21/505
f 99/99/506 94/94/507 138/138/508
f 138/138/508 94/94/507 93/93/509
f 22/20/510 93/93/511 23/21/512
f 23/21/512 93/93/511 94/94/513
f 138/138/514 139/139/515 140/141/516
f 140/141/516 139/139/515 141/140/517
f 53/49/518 52/58/519 33/29/520
f 33/29/520 52/58/519 32/28/521
f 189/190/522 52/58/523 188/191/524
f 188/191/524 52/58/523 53/49/525
f 53/49/526 33/29/527 54/48/528
f 54/48/528 33/29/527 40/68/529
f 40/68/530 43/41/531 54/48/532
f 54/48/532 43/41/531 55/59/533
f 188/191/534 70/72/535 189/190/536
f 189/190/536 70/72/535 69/71/537
f 71/73/538 69/71/539 73/52/540
f 73/52/540 69/71/539 70/72/541
f 143/143/542 145/145/543 114/114/544
f 144/144/545 143/143/546 114/114/547
f 55/266/548 114/267/549 54/268/550
f 114/267/551 55/266/552 144/269/553
f 138/138/554 93/93/555 98/98/556
f 139/139/557 138/138/558 98/98/559
f 68/70/560 67/69/561 73/52/562
f 73/52/562 67/69/561 71/73/563
f 68/70/564 151/151/565 67/69/566
f 67/69/566 151/151/565 3/4/567
f 152/152/568 68/70/569 8/9/570
f 68/70/571 152/152/572 151/151/573
f 22/271/574 18/272/575 98/270/576
f 98/270/576 18/272/575 68/275/577
f 18/272/575 217/273/578 68/275/577
f 217/273/578 8/274/579 68/275/577
f 140/141/580 141/140/581 108/107/582
f 142/142/583 140/141/584 108/107/585
f 108/277/586 114/267/587 142/276/588
f 142/276/588 114/267/587 145/278/589
f 108/277/590 98/270/591 70/279/592
f 70/279/592 98/270/591 73/280/593
f 98/270/591 68/275/594 73/280/593
f 141/281/595 139/282/596 108/277/597
f 108/277/597 139/282/596 98/270/598
f 53/284/599 54/268/600 188/283/601
f 188/283/601 54/268/600 70/279/602
f 22/271/603 98/270/604 93/285/605
f 114/267/606 108/277/607 54/268/608
f 54/268/608 108/277/607 70/279/609
f 214/216/610 38/38/611 20/19/612
f 36/36/613 87/87/614 14/17/615
f 14/17/615 87/87/614 88/88/616
f 116/116/617 104/104/618 118/118/619
f 118/118/619 104/104/618 106/106/620
f 61/50/621 60/51/622 42/53/623
f 42/53/623 60/51/622 45/44/624
f 235/296/625 236/294/626 60/51/627
f 236/294/628 237/295/629 60/51/630
f 60/51/630 237/295/629 45/44/631
f 238/297/632 235/296/633 124/124/634
f 124/124/634 235/296/633 60/51/635
f 134/134/636 135/135/637 124/124/638
f 134/134/639 124/124/640 60/51/641
f 106/106/642 104/104/643 101/101/644
f 101/101/644 104/104/643 100/100/645
f 127/127/646 128/128/647 131/131/648
f 131/131/648 128/128/647 25/23/649
f 132/132/650 133/133/651 121/121/652
f 239/298/653 238/297/654 121/121/655
f 121/121/655 238/297/654 124/124/656
f 132/132/657 121/121/658 125/125/659
f 125/125/659 121/121/658 124/124/660
f 241/300/661 240/299/662 127/127/663
f 127/127/663 240/299/662 129/129/664
f 240/299/665 239/298/666 129/129/667
f 129/129/667 239/298/666 121/121/668
f 129/129/669 121/121/670 136/136/671
f 136/136/671 121/121/670 122/122/672
f 136/136/673 137/137/674 129/129/675
f 242/293/676 241/300/677 131/131/678
f 131/131/678 241/300/677 127/127/679
f 101/101/680 100/100/681 97/97/682
f 97/97/682 100/100/681 95/95/683
f 24/22/684 92/92/685 95/95/686
f 95/95/686 92/92/685 97/97/687
f 61/235/688 232/236/689 60/234/690
f 232/236/689 234/237/691 60/234/690
f 126/238/692 134/239/693 60/240/694
f 124/241/695 135/242/696 125/243/697
f 121/246/698 133/247/699 122/248/700
f 129/251/701 137/252/702 127/253/703
f 128/254/704 127/253/705 137/252/706
f 60/240/707 196/264/708 126/238/709
f 126/238/709 196/264/708 82/263/710
f 62/265/711 196/264/712 60/240/713
f 58/62/714 59/63/715 118/118/716
f 118/118/716 59/63/715 116/116/717
f 76/77/718 77/64/719 58/62/720
f 58/62/720 77/64/719 59/63/721
f 48/47/722 46/43/723 76/77/724
f 76/77/724 46/43/723 77/64/725
f 241/291/726 242/301/727 95/95/728
f 95/95/728 242/301/727 24/22/729
f 240/292/730 241/291/731 100/100/732
f 100/100/732 241/291/731 95/95/733
f 239/290/734 240/292/735 104/104/736
f 104/104/736 240/292/735 100/100/737
f 238/289/738 239/290/739 116/116/740
f 116/116/740 239/290/739 104/104/741
f 235/286/742 238/289/743 59/63/744
f 59/63/744 238/289/743 116/116/745
f 235/286/746 59/63/747 236/287/748
f 236/287/748 59/63/747 77/64/749
f 237/288/750 236/287/751 46/43/752
f 46/43/752 236/287/751 77/64/753
