# This file uses centimeters as units for non-parametric coordinates.

v 0.846140 32.638065 -1.796133
v -19.263626 32.367962 -2.801593
v -45.013130 28.893877 2.021928
v -46.103149 8.978462 8.439286
v -43.455765 1.656307 9.021061
v -46.493538 22.682209 8.411642
v -16.578562 -6.650560 10.899762
v 18.656593 33.119854 -0.704339
v 32.630932 34.281212 5.877539
v 35.910465 2.023172 13.017611
v 36.060741 11.801640 14.074838
v 35.750057 22.127605 14.184019
v 17.288877 -5.720732 13.625518
v -17.707655 -6.080682 -0.320780
v -27.350632 -0.733597 -1.844411
v -29.069904 4.005821 -2.849309
v -29.075243 8.459497 -2.799236
v -29.326761 12.877127 -2.864392
v -29.550856 16.699951 -2.860976
v -28.382196 16.712954 -13.802016
v -19.282204 14.476727 -20.024002
v -12.072583 14.833835 -20.505722
v -5.465744 14.975015 -20.336042
v 0.966603 15.105936 -18.745234
v 5.518939 15.399314 -17.766638
v 12.524110 15.401506 -16.831480
v 18.869049 15.712317 -13.802640
v 21.696684 18.060560 -6.224988
v 23.653303 16.696005 4.053617
v 23.871078 13.228138 4.093252
v 24.123917 9.201925 4.139260
v 24.151428 5.132079 4.149688
v 24.821005 0.530579 4.561239
v 15.823041 -5.361901 3.056778
v 0.846140 32.464912 29.353344
v 18.656593 32.946701 29.354122
v -19.263626 32.194809 29.352612
v -45.013130 28.720724 29.356094
v -46.103149 8.805310 29.360729
v -43.455765 1.483155 29.361149
v -46.493538 22.509056 29.360716
v -14.872089 -6.823713 29.362682
v 32.630932 34.108059 29.358885
v 35.999161 10.545989 29.363586
v 18.306828 -5.732756 29.364529
v 35.999161 16.810091 29.363586
v 35.608765 23.015902 29.363571
v -4.985242 14.854210 49.835651
vt 0.849826 0.839716
vt 0.850802 0.839842
vt 0.849800 0.847267
vt 0.845487 0.847151
vt 0.847029 0.839598
vt 0.848446 0.839659
vt 0.839964 0.845655
vt 0.843531 0.840408
vt 0.845483 0.839445
vt 0.843752 0.832893
vt 0.843384 0.834934
vt 0.839731 0.837076
vt 0.840298 0.833922
vt 0.843383 0.836852
vt 0.843281 0.840402
vt 0.839647 0.842979
vt 0.845821 0.830590
vt 0.846063 0.830344
vt 0.853620 0.847475
vt 0.852305 0.839843
vt 0.853665 0.839976
vt 0.854798 0.835419
vt 0.854942 0.833437
vt 0.857320 0.834080
vt 0.854792 0.837172
vt 0.857352 0.838292
vt 0.854738 0.838907
vt 0.857286 0.842740
vt 0.854691 0.840400
vt 0.856617 0.847975
vt 0.854272 0.840988
vt 0.843329 0.838755
vt 0.853326 0.830745
vt 0.853012 0.830899
vt 0.853620 0.847400
vt 0.849800 0.847193
vt 0.845487 0.847076
vt 0.839964 0.845580
vt 0.839731 0.837001
vt 0.840298 0.833848
vt 0.839647 0.842904
vt 0.846429 0.830269
vt 0.856617 0.847901
vt 0.853545 0.830739
vt 0.857339 0.837751
vt 0.857339 0.840450
vt 0.857256 0.843123
vt 0.848549 0.839607
vn -0.142698 -0.688445 0.711112
vn -0.100684 -0.690704 0.716095
vn -0.002070 -0.951926 0.306322
vn 0.100055 -0.950612 0.293812
vn -0.052965 -0.710882 0.701315
vn 0.033899 -0.703183 0.710200
vn 0.374588 -0.882214 0.285275
vn 0.383643 -0.533342 0.753900
vn 0.186508 -0.681444 0.707707
vn 0.360840 0.889010 0.281880
vn 0.568591 0.214101 0.794270
vn 0.507503 0.842304 0.181563
vn 0.896151 0.129514 0.424428
vn 0.551122 0.016555 0.834261
vn 0.685477 0.635641 0.355081
vn 0.941864 0.033092 0.334360
vn 0.132049 0.990552 0.037021
vn 0.123645 0.991812 0.031940
vn -0.070912 -0.924094 0.375530
vn -0.118220 -0.657912 0.743758
vn -0.472159 -0.533684 0.701603
vn -0.603483 -0.008265 0.797333
vn -0.497626 0.762286 0.413871
vn -0.747754 0.662244 0.047925
vn -0.624477 -0.039339 0.780052
vn -0.907917 -0.028462 0.418181
vn -0.634878 -0.029547 0.772047
vn -0.948290 -0.048804 0.313630
vn -0.508259 -0.796436 0.327661
vn -0.818761 0.322861 0.474753
vn -0.829725 -0.107090 0.547803
vn 0.555595 0.029274 0.830937
vn -0.160524 0.986081 0.043308
vn -0.132565 0.989672 0.054547
vn 0.019120 -0.945692 -0.324502
vn 0.053446 -0.947017 -0.316705
vn 0.081343 -0.933825 -0.348360
vn 0.332642 -0.853614 -0.400863
vn 0.712955 0.101349 -0.693847
vn 0.431306 0.737031 -0.520346
vn 0.719561 -0.041283 -0.693201
vn 0.109806 0.862569 -0.493880
vn -0.458405 -0.653724 -0.602088
vn -0.275221 0.753051 -0.597636
vn -0.591996 0.391438 -0.704497
vn -0.679952 -0.021204 -0.732950
vn -0.650418 -0.128601 -0.748611
vn 0.000753 0.165439 -0.986220
f 24/1/1 25/2/2 1/3/3
f 1/3/3 2/4/4 23/6/5
f 23/6/5 2/4/4 22/5/6
f 3/7/7 20/8/8 2/4/4
f 2/4/4 20/8/8 21/9/9
f 15/10/10 16/11/11 5/13/12
f 5/13/12 16/11/11 4/12/13
f 16/11/11 17/14/14 4/12/13
f 20/8/8 3/7/7 19/15/15
f 19/15/15 3/7/7 6/16/16
f 14/17/17 15/10/10 7/18/18
f 7/18/18 15/10/10 5/13/12
f 8/19/19 26/20/20 27/21/21
f 32/22/22 33/23/23 10/24/24
f 32/22/22 10/24/24 31/25/25
f 31/25/25 10/24/24 11/26/26
f 31/25/25 11/26/26 30/27/27
f 30/27/27 11/26/26 12/28/28
f 12/28/28 9/30/29 29/29/30
f 29/29/30 9/30/29 28/31/31
f 18/32/32 19/15/15 6/16/16
f 6/16/16 4/12/13 18/32/32
f 18/32/32 4/12/13 17/14/14
f 21/9/9 22/5/6 2/4/4
f 23/6/5 24/1/1 1/3/3
f 9/30/29 8/19/19 28/31/31
f 28/31/31 8/19/19 27/21/21
f 12/28/28 29/29/30 30/27/27
f 10/24/24 33/23/23 13/33/33
f 13/33/33 33/23/23 34/34/34
f 8/19/19 1/3/3 26/20/20
f 26/20/20 1/3/3 25/2/2
f 1/3/3 8/19/19 35/36/35
f 35/36/35 8/19/19 36/35/36
f 2/4/4 1/3/3 37/37/37
f 37/37/37 1/3/3 35/36/35
f 2/4/4 37/37/37 3/7/7
f 3/7/7 37/37/37 38/38/38
f 4/12/13 39/39/39 5/13/12
f 5/13/12 39/39/39 40/40/40
f 6/16/16 41/41/41 4/12/13
f 4/12/13 41/41/41 39/39/39
f 3/7/7 38/38/38 6/16/16
f 6/16/16 38/38/38 41/41/41
f 5/13/12 40/40/40 7/18/18
f 7/18/18 40/40/40 42/42/42
f 8/19/19 9/30/29 36/35/36
f 36/35/36 9/30/29 43/43/43
f 13/33/33 45/44/44 10/24/24
f 10/24/24 45/44/44 44/45/45
f 10/24/24 44/45/45 11/26/26
f 11/26/26 44/45/45 46/46/46
f 11/26/26 46/46/46 12/28/28
f 12/28/28 46/46/46 47/47/47
f 9/30/29 12/28/28 43/43/43
f 43/43/43 12/28/28 47/47/47
f 14/17/17 7/18/18 34/34/34
f 34/34/34 7/18/18 13/33/33
f 7/18/18 42/42/42 13/33/33
f 13/33/33 42/42/42 45/44/44
f 44/45/45 48/48/48 46/46/46
f 38/38/38 37/37/37 48/48/48
f 48/48/48 37/37/37 35/36/35
f 48/48/48 35/36/35 36/35/36
f 48/48/48 36/35/36 43/43/43
f 48/48/48 43/43/43 47/47/47
f 48/48/48 47/47/47 46/46/46
f 45/44/44 48/48/48 44/45/45
f 42/42/42 48/48/48 45/44/44
f 40/40/40 48/48/48 42/42/42
f 39/39/39 48/48/48 40/40/40
f 41/41/41 48/48/48 39/39/39
f 38/38/38 48/48/48 41/41/41
