# This file uses centimeters as units for non-parametric coordinates.

v -0.002985 -0.173047 -0.075057
v -0.002985 -0.037758 -0.209202
v -0.002985 -0.107916 0.323182
v -0.002262 0.073030 -0.320961
v -0.003008 0.095873 0.229025
v -0.004123 0.156309 -0.282924
v -0.003636 0.111480 0.236000
v -0.004626 0.241643 -0.179416
v -0.003268 0.224482 0.161434
v -0.003783 0.286184 -0.051804
v -0.004239 0.272793 0.030968
v -0.002987 0.067741 0.235468
v -0.002986 0.042795 0.244840
v -0.002985 -0.144284 0.322042
v -0.002985 0.008328 0.251106
v -0.002985 -0.053780 0.272393
v -0.002985 -0.224396 0.177817
v -0.002985 -0.235694 -0.057751
v -0.002985 -0.194958 0.313409
v -0.002985 -0.230653 0.090148
v -0.002985 -0.329030 0.040795
v -0.002985 -0.325071 0.078206
v -0.002985 -0.334012 0.004910
v -0.002985 -0.332840 -0.039339
v -0.002985 -0.184871 -0.062889
v -0.002985 -0.229422 0.251280
v 0.092073 -0.151526 -0.048880
v 0.113583 -0.107351 -0.101086
v -0.003026 -0.108701 -0.140073
v 0.123272 -0.134915 -0.013606
v 0.143492 -0.110608 0.025996
v 0.155482 -0.073295 0.027727
v 0.163238 -0.064511 -0.069764
v 0.160541 -0.139828 0.108559
v 0.145279 -0.142865 0.091489
v 0.102512 -0.188766 0.125554
v 0.132194 -0.186616 0.151122
v 0.095064 -0.143425 0.296581
v 0.139612 -0.157439 0.231698
v 0.107973 -0.112003 0.282531
v 0.127467 -0.032507 -0.179609
v 0.071812 0.084012 -0.262770
v 0.161985 -0.048029 0.019122
v 0.175342 0.007996 0.015183
v 0.146754 -0.010826 0.123601
v 0.172948 -0.021662 0.108860
v 0.114919 0.059422 0.228962
v 0.115923 0.076375 0.226973
v 0.104547 0.165261 -0.239488
v 0.169823 0.047652 0.034068
v 0.166463 0.100076 0.199077
v 0.107849 0.093370 0.210304
v 0.114968 0.118991 0.230196
v 0.108557 0.243187 -0.149126
v 0.166733 0.050878 0.058251
v 0.166279 0.047124 0.084089
v 0.190966 0.081855 0.152035
v 0.157887 0.169361 0.119495
v 0.153880 0.105139 0.107924
v 0.079645 0.209318 0.139476
v 0.074647 -0.191785 -0.031935
v 0.053654 -0.242502 -0.035341
v 0.105476 -0.180383 0.016867
v 0.086729 -0.185902 -0.001655
v 0.060246 -0.241312 -0.010784
v 0.076327 -0.240664 0.011808
v 0.154856 0.012401 0.127604
v 0.185042 0.001793 0.109908
v 0.102845 0.262427 -0.054797
v 0.144981 0.209552 0.031725
v 0.153959 0.214922 -0.044155
v 0.193439 0.130425 0.025690
v 0.167926 0.135397 0.065472
v 0.099719 0.255882 0.031776
v 0.185820 0.030745 0.118461
v 0.198540 0.113271 -0.017702
v 0.207495 0.087422 -0.066125
v 0.155931 -0.033220 0.120747
v 0.149693 0.022782 0.169988
v 0.170258 0.205231 -0.113198
v 0.171908 0.154297 -0.173970
v 0.195945 0.028379 -0.091118
v 0.173952 -0.024175 -0.089405
v 0.127526 0.081527 0.165034
v 0.170174 -0.042027 0.105383
v 0.156162 -0.058809 0.126262
v 0.145328 -0.013071 0.154959
v 0.126675 -0.047681 0.220973
v 0.122947 -0.001167 0.216348
v 0.206027 0.020202 0.027613
v 0.188303 -0.036969 0.037355
v 0.143880 -0.168696 0.192749
v 0.168118 -0.122171 0.146074
v 0.163721 -0.068145 0.060138
v 0.159597 -0.100562 0.052926
v 0.158423 -0.095095 0.069386
v 0.163723 -0.086340 0.081635
v 0.156986 -0.112854 0.195646
v 0.161950 -0.071347 0.107458
v 0.063471 -0.239784 0.057078
v 0.119897 -0.164578 0.047644
v 0.073587 -0.204922 0.099984
v 0.058090 -0.221065 0.165976
v 0.034395 -0.222647 0.097071
v 0.034656 -0.255823 0.076782
v 0.064024 -0.297649 0.050053
v 0.071607 -0.305395 0.013140
v 0.075925 -0.309290 -0.039622
v 0.111470 -0.194904 0.245796
v 0.067001 -0.217589 0.202547
v 0.058732 -0.198151 0.301653
v 0.046727 -0.222342 0.249609
v 0.165485 0.077550 -0.210146
v -0.002985 -0.266586 0.081094
v 0.038517 -0.310283 0.064139
v 0.144709 0.046565 0.171926
v -0.002985 -0.304324 -0.057170
v 0.045325 -0.307118 -0.047215
v -0.119985 -0.107351 -0.101086
v -0.098327 -0.151526 -0.048880
v -0.101518 -0.143392 0.296901
v -0.114334 -0.111992 0.282611
v -0.106964 0.101529 0.208608
v -0.107738 0.116618 0.204579
v -0.112643 0.207448 0.169476
v -0.104662 0.254940 0.031693
v -0.109122 0.261395 -0.055066
v -0.121745 0.077841 0.226422
v -0.132700 -0.047702 0.220782
v -0.080849 -0.191785 -0.031935
v -0.146136 -0.157454 0.231865
v -0.117926 -0.194706 0.246358
v -0.149372 -0.168775 0.191583
v -0.064241 -0.221065 0.165976
v -0.108725 -0.188716 0.125552
v -0.138018 -0.186688 0.150309
v -0.073088 -0.217526 0.202544
v -0.064886 -0.198151 0.301653
v -0.052845 -0.222342 0.249609
v -0.181856 0.007996 0.015182
v -0.175448 0.049126 0.034294
v -0.170985 0.055024 0.058820
v -0.213480 0.022313 0.027678
v -0.102203 0.243187 -0.149126
v -0.133830 -0.032507 -0.179609
v -0.078116 0.084012 -0.262770
v -0.110828 0.165306 -0.239514
v -0.178402 0.154297 -0.173970
v -0.176745 0.205320 -0.113139
v -0.205074 0.114120 -0.018060
v -0.214046 0.087928 -0.066339
v -0.171963 0.077550 -0.210146
v -0.202514 0.028379 -0.091118
v -0.173669 -0.122568 0.144642
v -0.162832 -0.113119 0.194469
v -0.166744 -0.140204 0.108178
v -0.159534 0.216900 -0.042205
v -0.200203 0.131431 0.025756
v -0.150523 0.209425 0.031756
v -0.174624 0.136328 0.065705
v -0.129377 0.195905 0.119845
v -0.180454 -0.024175 -0.089405
v -0.169709 -0.064511 -0.069764
v -0.169388 -0.048195 0.018982
v -0.092968 -0.185902 -0.001655
v -0.111772 -0.180383 0.016867
v -0.082534 -0.240664 0.011808
v -0.066404 -0.241312 -0.010784
v -0.040474 -0.222647 0.097071
v -0.079786 -0.204922 0.099984
v -0.040737 -0.255823 0.076782
v -0.044610 -0.310283 0.064139
v -0.069639 -0.239784 0.057078
v -0.070193 -0.297649 0.050053
v -0.120121 0.060466 0.228736
v -0.128978 -0.001355 0.216506
v -0.133814 0.081382 0.164353
v -0.149921 0.045932 0.171365
v -0.158118 0.101324 0.192967
v -0.154983 0.021821 0.170057
v -0.183108 0.112506 0.106349
v -0.185733 0.004829 0.095750
v -0.170519 0.051707 0.084433
v -0.158814 0.007035 0.112242
v -0.180528 0.034181 0.118606
v -0.191098 0.081921 0.172057
v -0.059792 -0.242502 -0.035341
v -0.051438 -0.307118 -0.047215
v -0.077800 -0.305395 0.013140
v -0.082131 -0.309290 -0.039622
v -0.129622 -0.134915 -0.013606
v -0.161873 -0.073312 0.027727
v -0.149608 -0.110696 0.025996
v -0.194927 -0.037320 0.037173
v -0.151554 -0.143142 0.091518
v -0.126236 -0.164578 0.047644
v -0.166070 -0.100802 0.052865
v -0.170332 -0.086586 0.081629
v -0.169642 -0.064062 0.115034
v -0.164994 -0.095370 0.069364
v -0.170519 -0.068402 0.060013
v -0.149323 -0.056058 0.131858
v -0.150665 -0.008729 0.135141
v -0.156909 -0.017268 0.116742
v -0.153995 -0.004968 0.110771
v -0.175747 -0.040684 0.106436
v -0.184141 -0.015867 0.096885
vt 0.861160 0.625919
vt 0.128955 0.273107
vt 0.128955 0.243798
vt 0.844772 0.596193
vt 0.848374 0.768449
vt 0.860266 0.790722
vt 0.807013 0.787972
vt 0.807014 0.764665
vt 0.874508 0.905770
vt 0.867915 0.945013
vt 0.807002 0.948464
vt 0.807008 0.907896
vt 0.201460 0.243798
vt 0.201460 0.273107
vt 0.167953 0.008175
vt 0.167953 0.048328
vt 0.128955 0.048328
vt 0.128955 0.008175
vt 0.873662 0.877840
vt 0.807010 0.883194
vt 0.862107 0.803412
vt 0.807010 0.805968
vt 0.806958 0.599781
vt 0.806935 0.628383
vt 0.873773 0.767005
vt 0.863785 0.742673
vt 0.883222 0.746954
vt 0.853863 0.721301
vt 0.886271 0.726333
vt 0.883778 0.736543
vt 0.856285 0.729088
vt 0.807005 0.737810
vt 0.833728 0.738991
vt 0.806995 0.718301
vt 0.825209 0.725924
vt 0.807004 0.725939
vt 0.974705 0.855695
vt 0.971926 0.874296
vt 0.964670 0.876656
vt 0.960823 0.857381
vt 0.128955 0.110171
vt 0.128955 0.076760
vt 0.167953 0.076760
vt 0.167953 0.110171
vt 0.128955 0.143995
vt 0.167953 0.143995
vt 0.230071 0.206005
vt 0.230071 0.176406
vt 0.261891 0.158824
vt 0.261891 0.206005
vt 0.230071 0.143995
vt 0.201460 0.143995
vt 0.201460 0.110171
vt 0.230071 0.110171
vt 0.897531 0.770212
vt 0.883084 0.784060
vt 0.899175 0.755874
vt 0.900172 0.807185
vt 0.201460 0.076760
vt 0.230071 0.076760
vt 0.201460 0.048328
vt 0.261891 0.110171
vt 0.201460 0.226979
vt 0.904383 0.747943
vt 0.942448 0.788285
vt 0.933597 0.792690
vt 0.941220 0.815645
vt 0.953268 0.788019
vt 0.910168 0.732862
vt 0.964990 0.787405
vt 0.230071 0.226979
vt 0.230071 0.243798
vt 0.861452 0.592188
vt 0.986467 0.781661
vt 0.948619 0.856678
vt 0.943412 0.839306
vt 0.957675 0.834832
vt 0.971103 0.831129
vt 0.975397 0.801156
vt 0.951904 0.812049
vt 0.976266 0.784877
vt 0.872549 0.626107
vt 0.888407 0.628637
vt 0.884582 0.586813
vt 0.806998 0.711648
vt 0.853409 0.712808
vt 0.886675 0.718870
vt 0.887288 0.705193
vt 0.851614 0.703683
vt 0.806998 0.700855
vt 0.806975 0.677292
vt 0.841315 0.680009
vt 0.806993 0.667884
vt 0.875009 0.684271
vt 0.807010 0.844300
vt 0.870062 0.843773
vt 0.867084 0.823558
vt 0.807008 0.826448
vt 0.905627 0.841949
vt 0.902702 0.823240
vt 0.928678 0.833923
vt 0.929631 0.839738
vt 0.906401 0.873731
vt 0.930221 0.855403
vt 0.904350 0.898774
vt 0.902700 0.943141
vt 0.261891 0.226979
vt 0.949844 0.880231
vt 0.935714 0.882996
vt 0.923176 0.897302
vt 0.923812 0.584713
vt 0.925615 0.632179
vt 0.882718 0.558023
vt 0.856032 0.566713
vt 0.903978 0.553015
vt 0.838024 0.574565
vt 0.806958 0.579188
vt 0.806962 0.552123
vt 0.833357 0.549810
vt 0.201460 0.008175
vt 0.230071 0.048328
vt 0.261891 0.076760
vt 0.230071 0.008175
vt 0.868930 0.539860
vt 0.261891 0.008175
vt 0.261891 0.273107
vt 0.261891 0.243798
vt 0.051734 0.273107
vt 0.051734 0.243798
vt 0.088585 0.049151
vt 0.088585 0.110171
vt 0.088585 0.076760
vt 0.088585 0.143995
vt 0.845055 0.547968
vt 0.806978 0.530559
vt 0.806968 0.537533
vt 0.902957 0.534071
vt 0.806986 0.527456
vt 0.031690 0.206005
vt 0.013605 0.206005
vt 0.013605 0.152018
vt 0.031690 0.176406
vt 0.848374 0.768449
vt 0.860266 0.790722
vt 0.807013 0.787972
vt 0.807014 0.764665
vt 0.874508 0.905770
vt 0.867915 0.945013
vt 0.807002 0.948464
vt 0.807008 0.907896
vt 0.031690 0.143995
vt 0.051734 0.143995
vt 0.051734 0.110171
vt 0.031690 0.110171
vt 0.051734 0.076760
vt 0.031690 0.076760
vt 0.873662 0.877840
vt 0.807010 0.883194
vt 0.862107 0.803412
vt 0.807010 0.805968
vt 0.861160 0.625919
vt 0.844772 0.596193
vt 0.806958 0.599781
vt 0.806935 0.628383
vt 0.873773 0.767005
vt 0.863785 0.742673
vt 0.883222 0.746954
vt 0.853863 0.721301
vt 0.886271 0.726333
vt 0.883778 0.736543
vt 0.856285 0.729088
vt 0.807005 0.737810
vt 0.833728 0.738991
vt 0.806995 0.718301
vt 0.825209 0.725924
vt 0.807004 0.725939
vt 0.974705 0.855695
vt 0.971926 0.874296
vt 0.964670 0.876656
vt 0.960823 0.857381
vt 0.051847 0.049151
vt 0.013605 0.110171
vt 0.031690 0.226979
vt 0.013605 0.226979
vt 0.031690 0.049151
vt 0.013605 0.076760
vt 0.050600 0.008175
vt 0.031690 0.008175
vt 0.013605 0.049151
vt 0.013605 0.273107
vt 0.031690 0.243798
vt 0.013605 0.243798
vt 0.128955 0.226979
vt 0.167953 0.206005
vt 0.128955 0.206005
vt 0.897531 0.770212
vt 0.883084 0.784060
vt 0.899175 0.755874
vt 0.167953 0.176406
vt 0.128955 0.176406
vt 0.201460 0.176406
vt 0.201460 0.206005
vt 0.051734 0.226979
vt 0.088585 0.206005
vt 0.051734 0.206005
vt 0.088585 0.176406
vt 0.051734 0.176406
vt 0.861452 0.592188
vt 0.884582 0.586813
vt 0.882718 0.558023
vt 0.856032 0.566713
vt 0.806998 0.711648
vt 0.853409 0.712808
vt 0.886675 0.718870
vt 0.851614 0.703683
vt 0.806998 0.700855
vt 0.806975 0.677292
vt 0.841315 0.680009
vt 0.887288 0.705193
vt 0.806993 0.667884
vt 0.875009 0.684271
vt 0.807010 0.844300
vt 0.870062 0.843773
vt 0.867084 0.823558
vt 0.807008 0.826448
vt 0.904350 0.898774
vt 0.906401 0.873731
vt 0.902700 0.943141
vt 0.905627 0.841949
vt 0.948619 0.856678
vt 0.949844 0.880231
vt 0.930221 0.855403
vt 0.935714 0.882996
vt 0.923176 0.897302
vt 0.838024 0.574565
vt 0.806958 0.579188
vt 0.806962 0.552123
vt 0.833357 0.549810
vt 0.868930 0.539860
vt 0.845055 0.547968
vt 0.806978 0.530559
vt 0.806968 0.537533
vt 0.902957 0.534071
vt 0.903978 0.553015
vt 0.806986 0.527456
vt 0.094870 0.008175
vt 0.872549 0.626107
vt 0.888407 0.628637
vt 0.975397 0.801156
vt 0.976266 0.784877
vt 0.986467 0.781661
vt 0.957675 0.834832
vt 0.971103 0.831129
vt 0.904383 0.747943
vt 0.910168 0.732862
vt 0.923812 0.584713
vt 0.925615 0.632179
vt 0.942448 0.788285
vt 0.933597 0.792690
vt 0.953268 0.788019
vt 0.964990 0.787405
vt 0.951904 0.812049
vt 0.900172 0.807185
vt 0.902702 0.823240
vt 0.928678 0.833923
vt 0.929631 0.839738
vt 0.941220 0.815645
vt 0.943412 0.839306
vn 0.000314 -0.717775 -0.696275
vn 0.552839 -0.669340 -0.496340
vn 0.000422 -0.772197 -0.635383
vn 0.516101 -0.746870 -0.419314
vn 0.626594 0.318454 0.711313
vn 0.001414 0.328690 0.944437
vn 0.551346 -0.116880 0.826049
vn 0.001497 -0.094323 0.995541
vn 0.636375 0.451194 0.625660
vn 0.313903 -0.220367 0.923528
vn -0.002519 0.346025 0.938222
vn -0.016760 -0.097872 0.995058
vn 0.726625 0.278571 0.628024
vn 0.000051 0.564734 0.825273
vn 0.671044 -0.548974 -0.498324
vn 0.660436 -0.462621 -0.591444
vn 0.000387 -0.622535 -0.782592
vn 0.000455 -0.328412 -0.944535
vn 0.873315 -0.231726 0.428513
vn 0.639865 -0.701656 0.313452
vn 0.821954 -0.554560 0.129826
vn 0.533320 -0.818097 -0.215145
vn 0.622027 -0.768622 -0.149337
vn 0.315538 -0.945622 -0.078961
vn 0.352861 -0.935116 0.032355
vn 0.000186 -0.720801 0.693142
vn 0.350581 -0.554616 0.754648
vn -0.000004 -0.999977 0.006733
vn 0.207940 -0.957098 0.201802
vn 0.000211 -0.976103 0.217309
vn 0.938137 -0.302845 -0.167881
vn 0.999951 0.007696 0.006164
vn 0.960738 -0.224783 0.162653
vn 0.951328 -0.183624 0.247503
vn 0.981282 0.144551 0.127247
vn 0.988216 -0.135759 0.070701
vn 0.947677 0.062803 0.312992
vn 0.913229 -0.337352 -0.228489
vn 0.954991 0.141081 0.260939
vn 0.962374 -0.113822 0.246742
vn 0.541135 -0.548121 -0.637759
vn 0.906999 -0.378112 -0.185432
vn 0.894791 -0.423902 -0.140201
vn 0.971614 -0.229680 0.056690
vn 0.838728 -0.496238 -0.224240
vn 0.956506 -0.220193 -0.191343
vn 0.783722 -0.443384 -0.434961
vn 0.940001 -0.102127 -0.325529
vn 0.127348 -0.674460 0.727246
vn 0.303741 -0.872309 0.383168
vn 0.555627 -0.824780 0.104964
vn 0.367595 -0.282648 0.885993
vn 0.229593 -0.167168 0.958823
vn 0.455236 -0.556985 0.694643
vn 0.440708 -0.613581 0.655206
vn 0.781543 -0.452510 0.429447
vn 0.380624 -0.917591 0.114684
vn 0.774401 -0.425107 0.468601
vn -0.000043 0.266479 0.963841
vn 0.509847 0.103813 0.853978
vn 0.718184 -0.043978 0.694463
vn -0.000087 0.114879 0.993379
vn 0.704373 -0.177966 0.687158
vn 0.831792 0.003003 0.555080
vn 0.367745 0.224713 0.902368
vn 0.777704 -0.312465 0.545475
vn 0.947646 -0.018974 0.318758
vn 0.954679 0.107194 0.277664
vn 0.991445 0.130302 0.007587
vn 0.542606 0.010703 -0.839919
vn 0.000498 -0.054684 -0.998504
vn 0.000349 -0.138217 -0.990402
vn 0.203414 -0.209889 -0.956331
vn 0.817951 -0.573814 0.041152
vn 0.747850 -0.454932 -0.483485
vn 0.000316 -0.771703 -0.635983
vn 0.326094 -0.942946 0.067202
vn 0.806549 -0.488685 -0.332664
vn 0.774978 -0.604844 -0.183230
vn 0.933110 -0.357121 0.042063
vn 0.878354 -0.389607 -0.276951
vn 0.913677 -0.279908 -0.294697
vn 0.756145 -0.592182 -0.278506
vn 0.790333 -0.603853 -0.103609
vn 0.943234 -0.288740 -0.164130
vn 0.989612 -0.108181 -0.094684
vn 0.995145 -0.043718 0.088180
vn 0.950663 -0.263153 -0.164285
vn 0.953463 -0.290205 -0.081791
vn 0.934202 -0.214065 -0.285381
vn 0.939950 -0.260464 -0.220574
vn 0.981094 -0.151565 0.120345
vn 0.940581 0.120806 0.317353
vn 0.974555 -0.029357 0.222219
vn 0.761782 -0.093355 0.641072
vn 0.818792 -0.286516 0.497481
vn 0.917067 -0.146740 0.370751
vn 0.829755 0.101901 0.548746
vn -0.514882 -0.747801 -0.419154
vn -0.552056 -0.669911 -0.496441
vn -0.549565 -0.115461 0.827434
vn -0.628247 0.324320 0.707193
vn -0.634845 0.430171 0.641813
vn -0.333951 0.115298 0.935512
vn -0.755096 0.275766 0.594796
vn -0.670091 -0.549715 -0.498790
vn -0.659635 -0.463188 -0.591894
vn -0.879067 -0.230903 0.417043
vn -0.821787 -0.556846 0.120782
vn -0.639072 -0.704243 0.309238
vn -0.354125 -0.934618 0.032934
vn -0.621213 -0.769664 -0.147351
vn -0.315014 -0.945787 -0.079072
vn -0.530772 -0.819384 -0.216545
vn -0.347580 -0.555984 0.755030
vn -0.207662 -0.957229 0.201467
vn -0.443906 -0.011023 -0.896006
vn -0.860397 0.389234 -0.328959
vn -0.409250 0.719070 -0.561652
vn -0.792316 0.593675 0.140662
vn -0.938061 -0.302937 -0.168138
vn -0.962035 -0.217499 0.164870
vn -0.999922 0.009472 0.008126
vn -0.944619 -0.185553 0.270676
vn -0.981948 0.141359 0.125683
vn -0.955045 0.093181 0.281436
vn -0.985895 -0.085604 0.143817
vn -0.865845 -0.419631 -0.272438
vn -0.790633 0.605638 0.090012
vn -0.469250 0.882188 -0.039339
vn -0.812093 0.570160 -0.124190
vn -0.377410 0.828657 -0.413388
vn -0.950753 0.139890 0.276587
vn -0.782893 0.564388 0.261811
vn -0.955801 0.210046 0.205729
vn -0.953166 -0.133156 0.271560
vn -0.906958 -0.376850 -0.188181
vn -0.969593 -0.239400 0.050764
vn -0.939700 -0.102349 -0.326325
vn -0.956310 -0.220755 -0.191673
vn -0.782836 -0.444189 -0.435733
vn -0.838533 -0.496518 -0.224351
vn -0.126989 -0.674500 0.727271
vn -0.303029 -0.872491 0.383319
vn -0.555103 -0.825064 0.105497
vn -0.366778 -0.282739 0.886303
vn -0.454198 -0.557329 0.695046
vn -0.228967 -0.167184 0.958970
vn -0.439669 -0.613945 0.655563
vn -0.780771 -0.453234 0.430088
vn -0.773712 -0.425514 0.469369
vn -0.379662 -0.917983 0.114739
vn -0.511057 0.109031 0.852604
vn -0.737103 -0.079417 0.671098
vn -0.795301 0.041602 0.604786
vn -0.534197 -0.157240 0.830608
vn -0.917184 -0.179495 0.355747
vn -0.826180 0.518249 0.221009
vn -0.959998 0.279971 -0.004392
vn -0.623822 0.117170 0.772734
vn -0.650891 -0.208711 0.729918
vn -0.541837 0.010684 -0.840415
vn -0.202833 -0.209893 -0.956454
vn -0.747465 -0.455028 -0.483990
vn -0.817600 -0.574314 0.041147
vn -0.325229 -0.943242 0.067228
vn -0.806440 -0.490691 -0.329966
vn -0.890277 -0.432550 -0.142501
vn -0.774213 -0.605910 -0.182943
vn -0.925713 -0.376057 0.040451
vn -0.876868 -0.391297 -0.279265
vn -0.914302 -0.286716 -0.286086
vn -0.890378 -0.390662 -0.233688
vn -0.756570 -0.449920 -0.474525
vn -0.751410 -0.596798 -0.281451
vn -0.789140 -0.605110 -0.105358
vn -0.940387 -0.293991 -0.171002
vn -0.986247 -0.137699 -0.091407
vn -0.904592 0.091702 0.416297
vn -0.948417 -0.270058 -0.166056
vn -0.933039 -0.348729 -0.088466
vn -0.927378 -0.230789 -0.294460
vn -0.938791 -0.267567 -0.216978
vn -0.980138 -0.160334 0.116716
vn -0.872232 0.195797 0.448190
vn -0.970549 -0.115937 0.211171
vn -0.769101 0.217092 0.601128
vn -0.888073 -0.034900 0.458376
vn 0.000292 -0.608787 -0.793333
vn 0.467803 -0.170159 -0.867298
vn 0.004486 -0.710193 -0.703992
vn 0.003457 -0.178853 -0.983870
vn 0.451713 0.452937 -0.768637
vn -0.001377 0.468097 -0.883676
vn 0.795839 -0.087303 -0.599181
vn 0.815334 0.363696 -0.450507
vn -0.540359 -0.548421 -0.638159
vn -0.465496 -0.173819 -0.867813
vn -0.795268 -0.087328 -0.599936
vn -0.452925 0.464931 -0.760722
vn -0.006116 0.838050 -0.545559
vn -0.801203 0.388039 -0.455521
vn -0.216646 0.344203 0.913558
vn -0.465898 0.860487 0.206158
vn -0.506130 0.624496 0.594841
vn -0.028855 0.097887 0.994779
vn 0.012546 0.764543 0.644451
vn -0.006166 0.997332 -0.072743
vn 0.403005 0.819535 -0.407369
vn 0.485767 0.873860 -0.020011
vn 0.829368 0.549768 -0.099517
vn 0.799860 0.593947 0.086322
vn 0.770571 0.588766 0.244081
vn 0.851994 0.446695 0.273077
vn 0.350030 0.779560 0.519390
vn 0.449330 0.865098 0.222951
vn 0.045184 0.956597 0.287890
vn -0.953178 0.299825 -0.039466
vn -0.867513 0.006016 0.497379
vn -0.978449 -0.077880 -0.191241
vn -0.770753 0.028602 0.636492
vn -0.970079 -0.068410 -0.232952
vn -0.951408 0.275634 -0.137292
vn -0.770033 -0.464201 0.437683
vn -0.716177 -0.457139 0.527366
vn -0.817344 -0.037175 0.574950
vn 0.448585 -0.014944 -0.893615
vn 0.452127 0.720076 -0.526376
vn 0.849718 0.380870 -0.364579
vn 0.767652 0.628235 0.126613
vn 0.963897 0.252407 -0.084816
vn 0.875518 -0.060016 0.479444
vn 0.940454 0.277192 -0.196750
vn 0.536604 -0.458329 0.708513
vn 0.851027 -0.002222 0.525117
vn 0.845881 0.300788 -0.440467
vn 0.758928 -0.441876 -0.478302
vn 0.846296 -0.472018 -0.246946
vn 0.793871 -0.258637 0.550342
vn 0.885623 0.109505 -0.451310
f 29/3/1 28/13/2 1/2/3
f 1/2/3 28/13/2 27/14/4
f 40/6/5 3/7/6 38/5/7
f 38/5/7 3/7/6 14/8/8
f 48/19/9 52/9/10 12/20/11
f 12/20/11 52/9/10 5/12/12
f 88/21/13 16/22/14 40/6/5
f 40/6/5 16/22/14 3/7/6
f 27/1/15 61/4/16 1/24/17
f 1/24/17 61/4/16 25/23/18
f 39/25/19 109/26/20 92/27/21
f 36/29/22 37/30/23 103/28/24
f 103/28/24 37/30/23 110/31/25
f 109/26/20 110/31/25 92/27/21
f 92/27/21 110/31/25 37/30/23
f 19/32/26 111/33/27 14/8/8
f 14/8/8 111/33/27 38/5/7
f 111/33/27 109/26/20 38/5/7
f 38/5/7 109/26/20 39/25/19
f 103/28/24 110/31/25 17/34/28
f 17/34/28 110/31/25 112/35/29
f 110/31/25 109/26/20 112/35/29
f 112/35/29 109/26/20 111/33/27
f 26/36/30 112/35/29 19/32/26
f 19/32/26 112/35/29 111/33/27
f 26/36/30 17/34/28 112/35/29
f 82/47/31 77/48/32 44/50/33
f 44/50/33 77/48/32 50/49/34
f 50/49/34 77/48/32 76/51/35
f 93/55/36 98/56/37 92/27/21
f 92/27/21 98/56/37 39/25/19
f 34/57/38 93/55/36 37/30/23
f 37/30/23 93/55/36 92/27/21
f 98/56/37 40/6/5 39/25/19
f 39/25/19 40/6/5 38/5/7
f 76/51/35 72/54/39 50/49/34
f 50/49/34 72/54/39 55/62/40
f 41/63/41 83/71/42 28/13/2
f 28/13/2 83/71/42 33/72/43
f 43/107/44 83/71/42 44/50/33
f 44/50/33 83/71/42 82/47/31
f 63/84/45 66/113/46 64/73/47
f 64/73/47 66/113/46 65/114/48
f 20/85/49 104/86/50 17/34/28
f 17/34/28 104/86/50 103/28/24
f 36/29/22 103/28/24 102/87/51
f 102/87/51 103/28/24 104/86/50
f 105/89/52 114/90/53 115/92/54
f 115/92/54 114/90/53 22/91/55
f 105/89/52 100/88/56 104/86/50
f 104/86/50 100/88/56 102/87/51
f 115/92/54 21/93/57 106/94/58
f 114/90/53 105/89/52 20/85/49
f 20/85/49 105/89/52 104/86/50
f 100/88/56 105/89/52 106/94/58
f 106/94/58 105/89/52 115/92/54
f 21/93/57 115/92/54 22/91/55
f 13/95/59 47/96/60 12/20/11
f 12/20/11 47/96/60 48/19/9
f 89/97/61 15/98/62 88/21/13
f 88/21/13 15/98/62 16/22/14
f 13/95/59 15/98/62 47/96/60
f 47/96/60 15/98/62 89/97/61
f 52/9/10 48/19/9 84/105/63
f 84/105/63 48/19/9 116/103/64
f 53/10/65 52/9/10 51/106/66
f 51/106/66 52/9/10 84/105/63
f 79/99/67 116/103/64 47/96/60
f 47/96/60 116/103/64 48/19/9
f 72/54/39 73/60/68 55/62/40
f 55/62/40 73/60/68 56/122/69
f 62/116/70 61/4/16 65/114/48
f 65/114/48 61/4/16 64/73/47
f 61/4/16 62/116/70 25/23/18
f 25/23/18 62/116/70 18/117/71
f 18/117/71 62/116/70 117/118/72
f 117/118/72 62/116/70 118/119/73
f 66/113/46 107/124/74 65/114/48
f 65/114/48 107/124/74 108/134/75
f 24/136/76 108/134/75 23/135/77
f 23/135/77 108/134/75 107/124/74
f 107/124/74 66/113/46 106/137/58
f 106/137/58 66/113/46 100/115/56
f 23/135/77 107/124/74 21/138/57
f 21/138/57 107/124/74 106/137/58
f 118/119/73 24/136/76 117/118/72
f 118/119/73 62/116/70 108/134/75
f 108/134/75 62/116/70 65/114/48
f 24/136/76 118/119/73 108/134/75
f 61/4/16 27/1/15 64/73/47
f 64/73/47 27/1/15 30/82/78
f 27/14/4 28/13/2 30/126/79
f 30/126/79 28/13/2 33/72/43
f 32/127/80 33/72/43 43/107/44
f 43/107/44 33/72/43 83/71/42
f 32/127/80 30/126/79 33/72/43
f 31/83/81 63/84/45 30/82/78
f 30/82/78 63/84/45 64/73/47
f 32/79/82 31/81/81 30/74/78
f 34/57/38 37/30/23 35/64/83
f 35/64/83 37/30/23 36/29/22
f 35/64/83 36/29/22 101/69/84
f 101/69/84 36/29/22 102/87/51
f 102/87/51 100/88/56 101/69/84
f 66/113/46 63/84/45 100/115/56
f 100/115/56 63/84/45 101/111/84
f 63/84/45 31/83/81 101/111/84
f 101/111/84 31/83/81 95/112/85
f 97/65/86 99/66/87 34/57/38
f 34/57/38 99/66/87 93/55/36
f 97/65/86 34/57/38 96/68/88
f 96/68/88 34/57/38 35/64/83
f 101/69/84 95/70/85 35/64/83
f 35/64/83 95/70/85 96/68/88
f 94/80/89 95/70/85 32/79/90
f 32/79/90 95/70/85 31/81/81
f 94/80/91 97/65/86 96/68/88
f 95/70/85 94/80/92 96/68/88
f 40/6/5 98/56/37 88/21/13
f 88/21/13 98/56/37 86/58/93
f 47/96/60 89/97/61 79/99/67
f 79/99/67 89/97/61 87/100/94
f 45/102/95 67/104/96 87/100/94
f 87/100/94 67/104/96 79/99/67
f 86/58/93 87/100/94 88/21/13
f 88/21/13 87/100/94 89/97/61
f 99/66/87 86/58/93 93/55/36
f 93/55/36 86/58/93 98/56/37
f 99/66/87 85/67/97 86/58/93
f 86/58/93 85/67/97 78/101/98
f 45/102/95 87/100/94 78/101/98
f 78/101/98 87/100/94 86/58/93
f 97/65/86 94/80/89 99/66/87
f 99/66/87 94/80/89 85/67/97
f 120/128/99 119/129/100 1/2/3
f 1/2/3 119/129/100 29/3/1
f 14/146/8 3/145/6 121/143/101
f 121/143/101 3/145/6 122/144/102
f 128/157/103 12/158/11 123/147/104
f 123/147/104 12/158/11 5/150/12
f 3/145/6 16/160/14 122/144/102
f 122/144/102 16/160/14 129/159/105
f 120/161/106 1/164/17 130/162/107
f 130/162/107 1/164/17 25/163/18
f 131/165/108 133/167/109 132/166/110
f 137/171/111 136/170/112 134/168/113
f 134/168/113 136/170/112 135/169/114
f 136/170/112 137/171/111 133/167/109
f 133/167/109 137/171/111 132/166/110
f 121/143/101 138/173/115 14/146/8
f 14/146/8 138/173/115 19/172/26
f 131/165/108 132/166/110 121/143/101
f 121/143/101 132/166/110 138/173/115
f 139/175/116 137/171/111 17/174/28
f 17/174/28 137/171/111 134/168/113
f 138/173/115 132/166/110 139/175/116
f 139/175/116 132/166/110 137/171/111
f 138/173/115 139/175/116 19/172/26
f 19/172/26 139/175/116 26/176/30
f 26/176/30 139/175/116 17/174/28
f 140/177/117 143/180/118 141/178/119
f 141/178/119 143/180/118 142/179/120
f 153/139/121 140/140/122 151/142/123
f 151/142/123 140/140/122 141/141/124
f 141/141/124 150/151/125 151/142/123
f 131/165/108 155/197/126 133/167/109
f 133/167/109 155/197/126 154/196/127
f 133/167/109 154/196/127 136/170/112
f 136/170/112 154/196/127 156/198/128
f 121/143/101 122/144/102 131/165/108
f 131/165/108 122/144/102 155/197/126
f 157/153/129 127/131/130 149/152/131
f 149/152/131 127/131/130 144/133/132
f 149/152/131 150/151/125 157/153/129
f 157/153/129 150/151/125 158/154/133
f 157/153/129 158/154/133 159/155/134
f 159/155/134 158/154/133 160/156/135
f 150/151/125 141/141/124 158/154/133
f 158/154/133 141/141/124 142/182/136
f 153/139/121 162/183/137 140/140/122
f 140/140/122 162/183/137 164/184/138
f 168/211/139 167/210/140 165/208/141
f 165/208/141 167/210/140 166/209/142
f 20/212/143 17/174/28 169/213/144
f 169/213/144 17/174/28 134/168/113
f 135/169/114 170/214/145 134/168/113
f 134/168/113 170/214/145 169/213/144
f 171/215/146 172/218/147 114/216/148
f 114/216/148 172/218/147 22/217/149
f 171/215/146 169/213/144 173/219/150
f 173/219/150 169/213/144 170/214/145
f 172/218/147 174/221/151 21/220/152
f 114/216/148 20/212/143 171/215/146
f 171/215/146 20/212/143 169/213/144
f 172/218/147 171/215/146 174/221/151
f 174/221/151 171/215/146 173/219/150
f 21/220/152 22/217/149 172/218/147
f 13/222/59 12/158/11 175/223/153
f 175/223/153 12/158/11 128/157/103
f 16/160/14 15/225/62 129/159/105
f 129/159/105 15/225/62 176/224/154
f 176/224/154 15/225/62 175/223/153
f 175/223/153 15/225/62 13/222/59
f 178/227/155 128/157/103 177/226/156
f 177/226/156 128/157/103 123/147/104
f 128/157/103 178/227/155 175/223/153
f 175/223/153 178/227/155 180/229/157
f 159/155/134 160/156/135 161/181/158
f 161/181/158 160/156/135 181/185/159
f 177/226/156 179/228/160 186/234/161
f 161/181/158 181/185/159 179/187/160
f 179/187/160 181/185/159 186/188/161
f 165/208/141 130/162/107 168/211/139
f 168/211/139 130/162/107 187/235/162
f 18/236/71 187/235/162 25/163/18
f 25/163/18 187/235/162 130/162/107
f 188/238/163 187/235/162 117/237/72
f 117/237/72 187/235/162 18/236/71
f 190/240/164 189/239/165 168/211/139
f 168/211/139 189/239/165 167/210/140
f 189/239/165 190/240/164 23/241/166
f 23/241/166 190/240/164 24/242/76
f 173/244/150 167/210/140 174/243/151
f 174/243/151 167/210/140 189/239/165
f 174/243/151 189/239/165 21/245/152
f 21/245/152 189/239/165 23/241/166
f 188/238/163 117/237/72 24/242/76
f 168/211/139 187/235/162 190/240/164
f 190/240/164 187/235/162 188/238/163
f 24/242/76 190/240/164 188/238/163
f 191/247/167 120/161/106 165/208/141
f 165/208/141 120/161/106 130/162/107
f 163/191/168 119/129/100 191/190/169
f 191/190/169 119/129/100 120/128/99
f 192/192/170 164/184/138 163/191/168
f 163/191/168 164/184/138 162/183/137
f 192/192/170 163/191/168 191/190/169
f 193/248/171 191/247/167 166/209/142
f 166/209/142 191/247/167 165/208/141
f 192/249/172 191/251/167 193/250/171
f 143/180/118 140/177/117 194/252/173
f 194/252/173 140/177/117 164/253/174
f 156/198/128 195/254/175 136/170/112
f 136/170/112 195/254/175 135/169/114
f 195/254/175 196/255/176 135/169/114
f 135/169/114 196/255/176 170/214/145
f 170/214/145 196/255/176 173/219/150
f 196/256/176 166/209/142 173/244/150
f 173/244/150 166/209/142 167/210/140
f 197/257/177 193/248/171 196/256/176
f 196/256/176 193/248/171 166/209/142
f 156/198/128 154/196/127 198/258/178
f 198/258/178 154/196/127 199/259/179
f 195/254/175 156/198/128 200/260/180
f 200/260/180 156/198/128 198/258/178
f 196/255/176 195/254/175 197/261/177
f 197/261/177 195/254/175 200/260/180
f 201/262/181 192/249/182 197/261/177
f 197/261/177 192/249/182 193/250/171
f 192/249/182 201/262/181 164/253/174
f 164/253/174 201/262/181 194/252/173
f 201/262/183 200/260/180 198/258/178
f 197/261/177 200/260/180 201/262/184
f 202/263/185 155/197/126 129/159/105
f 129/159/105 155/197/126 122/144/102
f 203/264/186 176/224/154 180/229/157
f 180/229/157 176/224/154 175/223/153
f 176/224/154 203/264/186 129/159/105
f 129/159/105 203/264/186 202/263/185
f 155/197/126 202/263/185 154/196/127
f 154/196/127 202/263/185 199/259/179
f 204/265/187 206/267/188 202/263/185
f 202/263/185 206/267/188 199/259/179
f 199/259/179 206/267/188 198/258/178
f 198/258/178 206/267/188 201/262/181
f 2/193/189 41/63/41 29/3/1
f 29/3/1 41/63/41 28/13/2
f 42/194/190 2/193/191 4/195/192
f 49/199/193 42/194/190 6/200/194
f 6/200/194 42/194/190 4/195/192
f 113/202/195 41/63/41 42/194/190
f 42/194/190 41/63/41 2/193/189
f 81/201/196 113/202/195 49/199/193
f 49/199/193 113/202/195 42/194/190
f 81/201/196 77/48/32 113/202/195
f 113/202/195 77/48/32 82/47/31
f 83/71/42 41/63/41 82/47/31
f 82/47/31 41/63/41 113/202/195
f 119/129/100 145/203/197 29/3/1
f 29/3/1 145/203/197 2/193/189
f 2/193/189 145/203/197 146/204/198
f 146/204/198 145/203/197 152/205/199
f 4/195/192 146/204/198 6/200/194
f 6/200/194 146/204/198 147/206/200
f 144/133/132 8/45/201 147/206/200
f 147/206/200 8/45/201 6/200/194
f 149/152/131 144/133/132 148/207/202
f 148/207/202 144/133/132 147/206/200
f 148/207/202 151/142/123 149/152/131
f 149/152/131 151/142/123 150/151/125
f 148/207/202 147/206/200 152/205/199
f 152/205/199 147/206/200 146/204/198
f 153/139/121 151/142/123 152/205/199
f 152/205/199 151/142/123 148/207/202
f 163/191/168 162/183/137 119/129/100
f 119/129/100 162/183/137 145/203/197
f 162/183/137 153/139/121 145/203/197
f 145/203/197 153/139/121 152/205/199
f 2/193/191 146/204/198 4/195/192
f 124/148/203 179/228/160 123/147/104
f 123/147/104 179/228/160 177/226/156
f 159/155/134 126/132/204 157/153/129
f 157/153/129 126/132/204 127/131/130
f 125/130/205 126/132/204 161/181/158
f 161/181/158 126/132/204 159/155/134
f 124/246/203 125/130/205 179/187/160
f 179/187/160 125/130/205 161/181/158
f 7/18/206 9/17/207 124/246/203
f 124/246/203 9/17/207 125/130/205
f 8/45/201 10/41/208 54/46/209
f 54/46/209 10/41/208 69/44/210
f 54/46/209 69/44/210 80/52/211
f 80/52/211 69/44/210 71/53/212
f 72/54/39 76/51/35 71/53/212
f 71/53/212 76/51/35 80/52/211
f 73/60/68 72/54/39 70/59/213
f 70/59/213 72/54/39 71/53/212
f 58/61/214 70/59/213 60/16/215
f 60/16/215 70/59/213 74/43/216
f 70/59/213 71/53/212 74/43/216
f 74/43/216 71/53/212 69/44/210
f 51/120/66 58/61/214 53/15/65
f 53/15/65 58/61/214 60/16/215
f 8/45/201 144/133/132 10/41/208
f 10/41/208 144/133/132 127/131/130
f 6/200/194 8/45/201 49/199/193
f 49/199/193 8/45/201 54/46/209
f 49/199/193 54/46/209 81/201/196
f 81/201/196 54/46/209 80/52/211
f 81/201/196 80/52/211 77/48/32
f 77/48/32 80/52/211 76/51/35
f 127/131/130 126/132/204 10/41/208
f 10/41/208 126/132/204 11/42/217
f 5/12/12 52/9/10 7/11/206
f 7/11/206 52/9/10 53/10/65
f 9/17/207 7/18/206 60/16/215
f 60/16/215 7/18/206 53/15/65
f 124/148/203 123/147/104 7/149/206
f 7/149/206 123/147/104 5/150/12
f 11/42/217 126/132/204 9/17/207
f 9/17/207 126/132/204 125/130/205
f 74/43/216 11/42/217 60/16/215
f 60/16/215 11/42/217 9/17/207
f 11/42/217 74/43/216 10/41/208
f 10/41/208 74/43/216 69/44/210
f 183/231/218 142/179/120 182/230/219
f 182/230/219 142/179/120 143/180/118
f 183/186/220 160/156/135 142/182/136
f 142/182/136 160/156/135 158/154/133
f 205/266/221 204/265/187 203/264/186
f 203/264/186 204/265/187 202/263/185
f 185/189/222 186/188/161 181/185/159
f 182/230/219 185/233/223 183/231/218
f 160/156/135 183/186/220 181/185/159
f 181/185/159 183/186/220 185/189/222
f 184/232/224 180/229/157 185/233/225
f 185/233/225 180/229/157 178/227/155
f 185/233/225 178/227/155 186/234/161
f 186/234/161 178/227/155 177/226/156
f 143/180/118 194/252/173 182/230/219
f 182/230/219 194/252/173 207/268/226
f 207/268/226 205/266/221 182/230/219
f 182/230/219 205/266/221 184/232/224
f 205/266/221 203/264/186 184/232/224
f 184/232/224 203/264/186 180/229/157
f 206/267/188 204/265/187 207/268/226
f 207/268/226 204/265/187 205/266/221
f 194/252/173 201/262/181 207/268/226
f 207/268/226 201/262/181 206/267/188
f 185/233/225 182/230/219 184/232/224
f 44/37/227 50/38/228 90/40/229
f 90/40/229 50/38/228 55/39/230
f 59/121/231 73/60/68 58/61/214
f 58/61/214 73/60/68 70/59/213
f 90/40/229 55/39/230 68/75/232
f 68/75/232 55/39/230 56/108/233
f 75/109/234 57/110/235 116/103/64
f 116/103/64 57/110/235 84/105/63
f 84/105/63 57/110/235 51/106/66
f 57/123/235 59/121/231 51/120/66
f 51/120/66 59/121/231 58/61/214
f 75/125/236 59/121/231 57/123/235
f 68/75/232 75/109/234 67/104/96
f 75/125/236 56/122/69 59/121/231
f 59/121/231 56/122/69 73/60/68
f 43/78/237 44/37/227 91/77/238
f 91/77/238 44/37/227 90/40/229
f 91/77/238 94/80/89 43/78/237
f 43/78/237 94/80/89 32/79/90
f 79/99/67 67/104/96 116/103/64
f 116/103/64 67/104/96 75/109/234
f 90/40/229 68/75/232 91/77/238
f 91/77/238 68/75/232 46/76/239
f 67/104/96 45/102/95 68/75/232
f 68/75/232 45/102/95 46/76/239
f 45/102/95 78/101/98 46/76/239
f 46/76/239 78/101/98 85/67/97
f 85/67/97 94/80/89 46/76/239
f 46/76/239 94/80/89 91/77/238
f 75/109/240 68/75/232 56/108/233
