# This file uses centimeters as units for non-parametric coordinates.

v -0.068139 -0.037374 0.084649
v -0.000937 -0.049240 0.098359
v 0.068351 -0.037374 0.086342
v -0.114509 0.090968 0.131184
v -0.000559 0.078033 0.136305
v 0.127344 0.084538 0.122284
v -0.138571 0.145874 0.116180
v -0.002030 0.144235 0.129096
v 0.134776 0.149503 0.110033
v -0.223155 0.195728 0.019642
v -0.000226 0.239077 0.018486
v 0.221378 0.199915 0.021049
v -0.124389 0.161343 -0.069952
v 0.001707 0.139452 -0.055506
v 0.133753 0.161343 -0.067846
v -0.091486 0.072968 -0.035468
v -0.000066 0.080958 -0.029500
v 0.102594 0.067237 -0.034596
v -0.081039 -0.010926 -0.025600
v -0.000496 -0.022426 -0.033168
v 0.084458 -0.012167 -0.024145
v -0.134954 -0.025938 0.014582
v -0.001114 -0.073335 0.013211
v 0.133227 -0.025289 0.016934
v 0.131176 0.122504 0.028973
v -0.126683 0.118418 0.027833
v -0.006546 0.219890 0.060517
v 0.211418 0.194880 0.049937
v 0.131509 0.085020 0.102202
v 0.114998 -0.046470 0.041596
v 0.001655 -0.072316 0.068260
v -0.109801 -0.046485 0.043310
v -0.125060 0.080933 0.109049
v -0.212984 0.185323 0.051664
v -0.204466 0.171249 -0.043467
v -0.156864 0.085120 -0.012967
v -0.115552 -0.013615 -0.006181
v -0.001112 -0.046475 -0.019722
v 0.114797 -0.013747 -0.003551
v 0.167657 0.089964 -0.008647
v 0.209495 0.170921 -0.044420
v 0.000681 0.242340 -0.031496
v -0.001620 0.168959 0.116866
v -0.156650 0.201466 0.073727
v -0.182625 0.215627 0.019013
v -0.155507 0.227457 -0.029548
v 0.001319 0.210318 -0.075857
v 0.163163 0.227235 -0.030191
v 0.180233 0.215816 0.020990
v 0.145076 0.199956 0.082492
v -0.114274 0.189127 0.100373
v 0.098873 0.192747 0.094256
v 0.024845 0.137997 -0.087342
v 0.031602 0.071932 -0.043545
v 0.014878 -0.019332 -0.047172
v -0.017466 0.137741 -0.087943
v -0.017296 0.071970 -0.044137
v -0.012849 -0.020088 -0.047373
v 0.000359 0.011626 0.126663
v -0.074950 0.007489 0.102876
v 0.076595 0.008157 0.100037
v -0.095576 0.020803 0.071055
v -0.128848 0.020037 0.026597
v 0.100171 0.021119 0.069253
v 0.128986 0.024989 0.031566
v -0.011415 0.050518 -0.023821
v 0.002426 0.048354 -0.028042
v 0.022526 0.050459 -0.023542
v 0.121943 0.026331 -0.004065
v 0.086660 0.049925 -0.020979
v -0.116239 0.027523 -0.009338
v -0.080861 0.050595 -0.023699
v -0.120102 0.232150 -0.063295
v 0.129668 0.216878 -0.062317
v 0.130086 -0.069928 -0.020334
v 0.076118 -0.116217 -0.043095
v -0.202271 0.282296 -0.102353
v -0.138733 0.322074 -0.105605
v -0.139721 0.318317 -0.129515
v -0.203794 0.277953 -0.126193
v 0.080139 -0.107964 -0.068639
v 0.132253 -0.064682 -0.046570
vt 0.407407 0.889824
vt 0.420016 0.945140
vt 0.398957 0.960181
vt 0.389435 0.936757
vt 0.533050 0.960181
vt 0.559231 0.952955
vt 0.583164 0.978031
vt 0.548723 0.978031
vt 0.471447 0.924236
vt 0.522452 0.945140
vt 0.471447 0.960181
vt 0.385901 0.978031
vt 0.364836 0.978031
vt 0.471447 0.978031
vt 0.471447 0.887744
vt 0.522452 0.900332
vt 0.386382 0.730204
vt 0.386382 0.678361
vt 0.409909 0.678361
vt 0.409909 0.717312
vt 0.486223 0.730204
vt 0.486223 0.717312
vt 0.567711 0.678361
vt 0.591235 0.678361
vt 0.591235 0.730204
vt 0.567711 0.717312
vt 0.420016 0.790198
vt 0.471972 0.793076
vt 0.468569 0.842761
vt 0.415288 0.839037
vt 0.522452 0.788279
vt 0.522452 0.843240
vt 0.559231 0.843240
vt 0.583164 0.843240
vt 0.559231 0.788279
vt 0.471447 0.772223
vt 0.471447 0.754062
vt 0.559231 0.751546
vt 0.522452 0.772223
vt 0.389435 0.754172
vt 0.420016 0.772223
vt 0.471447 0.742456
vt 0.583164 0.742456
vt 0.583164 0.788279
vt 0.486223 0.700683
vt 0.469018 0.678361
vt 0.486223 0.678361
vt 0.505709 0.678361
vt 0.438564 0.678361
vt 0.536980 0.678361
vt 0.386382 0.618703
vt 0.409909 0.618703
vt 0.438564 0.618703
vt 0.469018 0.618703
vt 0.486223 0.618703
vt 0.364836 0.843240
vt 0.364836 0.788279
vt 0.389435 0.788279
vt 0.389435 0.843240
vt 0.364836 0.742456
vt 0.567711 0.582491
vt 0.386382 0.492876
vt 0.486223 0.492875
vt 0.486223 0.507133
vt 0.409909 0.507133
vt 0.386382 0.582491
vt 0.409909 0.582491
vt 0.438564 0.582491
vt 0.469018 0.582491
vt 0.469018 0.525377
vt 0.438564 0.525377
vt 0.536980 0.618703
vt 0.536980 0.582491
vt 0.505709 0.618703
vt 0.486223 0.582491
vt 0.505709 0.582491
vt 0.505709 0.525377
vt 0.486223 0.525377
vt 0.536980 0.525377
vt 0.591235 0.582491
vt 0.591235 0.618703
vt 0.567711 0.618703
vt 0.591235 0.492876
vt 0.567711 0.507133
vt 0.536980 0.700683
vt 0.438564 0.700683
vt 0.345005 0.309528
vt 0.357123 0.305394
vt 0.360293 0.307959
vt 0.348386 0.311908
vt 0.360476 0.171010
vt 0.357026 0.171865
vt 0.346668 0.175441
vt 0.349421 0.175291
vn -0.107785 0.608592 0.786129
vn -0.253885 0.789455 0.558841
vn -0.464265 0.204874 0.861676
vn -0.856254 0.106981 0.505355
vn 0.184154 0.775680 0.603662
vn 0.824431 0.170199 0.539765
vn 0.242243 0.938083 0.247627
vn 0.934202 0.344637 0.092149
vn 0.014278 0.603430 0.797288
vn 0.073450 0.586973 0.806268
vn -0.008013 0.837249 0.546764
vn -0.388659 0.914860 0.109433
vn -0.999163 0.039723 0.009773
vn -0.003260 0.970087 0.242735
vn 0.464741 0.227282 0.855780
vn 0.023207 0.291593 0.956261
vn 0.062467 -0.296898 0.952864
vn 0.023928 -0.131613 0.991012
vn -0.496747 -0.414797 0.762356
vn -0.391382 -0.172502 0.903915
vn 0.501468 -0.369039 0.782522
vn 0.610715 -0.257800 0.748709
vn 0.903573 -0.363319 0.227057
vn 0.861666 -0.432022 0.266249
vn 0.790330 -0.378473 0.481806
vn -0.063770 -0.583420 0.809663
vn -0.004561 -0.920501 0.390715
vn 0.457411 -0.498852 0.736154
vn 0.668820 -0.625666 0.401526
vn -0.647772 -0.621330 0.440841
vn -0.509808 -0.535492 0.673309
vn 0.001087 -0.892440 -0.451165
vn 0.772616 -0.487645 -0.406531
vn 0.962817 -0.186646 0.195310
vn 0.614131 -0.448583 -0.649320
vn 0.013447 -0.737016 -0.675741
vn 0.612388 -0.350376 -0.708673
vn 0.835016 -0.474083 -0.279274
vn 0.359385 -0.250683 -0.898888
vn -0.133631 -0.122747 -0.983400
vn 0.117750 -0.404076 -0.907115
vn 0.051093 -0.107711 -0.992868
vn -0.861394 -0.466342 0.201311
vn -0.974709 -0.159431 0.156605
vn -0.827517 -0.442141 0.346016
vn -0.743957 -0.359964 0.562987
vn -0.798915 -0.349438 0.489519
vn -0.781837 -0.514236 -0.352552
vn 0.087471 0.102998 -0.990828
vn -0.015840 -0.092429 -0.995593
vn 0.431978 -0.290809 -0.853713
vn 0.378238 -0.511607 -0.771488
vn -0.585220 -0.396719 -0.707199
vn 0.170319 -0.127896 -0.977054
vn 0.726559 -0.183815 -0.662061
vn -0.647439 -0.157803 -0.745601
vn -0.319683 -0.224146 -0.920631
vn -0.104596 0.131402 -0.985796
vn -0.116080 -0.342856 -0.932188
vn -0.550731 -0.265073 -0.791474
vn 0.378138 0.854371 -0.356457
vn 0.905143 -0.087530 -0.415998
vn 0.017122 0.969729 -0.243584
vn -0.878084 0.143703 -0.456420
vn -0.401383 0.858749 -0.318500
vn 0.008736 0.326251 -0.945243
vn -0.195838 -0.245588 -0.949386
vn -0.685550 -0.321130 -0.653373
vn -0.252702 0.645194 -0.721018
vn 0.233812 0.490839 -0.839291
vn 0.301097 -0.306874 -0.902867
vn 0.801506 -0.254219 -0.541259
vn -0.322523 -0.082596 -0.942951
vn 0.214845 -0.513508 -0.830754
vn 0.373136 -0.126450 -0.919119
vn -0.255673 -0.312955 -0.914708
vn -0.271695 -0.559353 -0.783139
vn -0.796289 -0.462928 -0.389386
vn -0.205501 -0.459621 -0.864013
vn -0.980358 0.195363 0.027045
vn -0.970586 0.196144 -0.139609
vn -0.107086 0.982275 -0.153847
vn 0.479513 0.877260 -0.021956
vn -0.427696 -0.893899 -0.134240
vn 0.992260 -0.111277 -0.055113
vn 0.263571 -0.933859 -0.241737
vn 0.992666 -0.104289 0.061136
vn 0.028524 -0.126882 -0.991508
vn 0.194913 -0.039425 -0.980028
vn 0.194913 -0.039425 -0.980028
vn 0.354389 0.049431 -0.933791
vn -0.058460 0.173750 0.983053
vn -0.194475 0.044671 0.979890
vn -0.194475 0.044671 0.979890
vn -0.323649 -0.085979 0.942263
f 51/2/1 44/3/2 7/1/3
f 7/1/3 44/3/2 34/4/4
f 50/5/5 28/6/6 49/8/7
f 49/8/7 28/6/6 12/7/8
f 43/9/9 52/10/10 27/11/11
f 44/3/2 45/12/12 34/4/4
f 34/4/4 45/12/12 10/13/13
f 44/3/2 51/2/1 27/11/11
f 45/12/12 44/3/2 11/14/14
f 11/14/14 44/3/2 27/11/11
f 27/11/11 50/5/5 11/14/14
f 11/14/14 50/5/5 49/8/7
f 9/16/15 52/10/10 8/15/16
f 8/15/16 52/10/10 43/9/9
f 7/1/3 8/15/16 51/2/1
f 51/2/1 8/15/16 43/9/9
f 27/11/11 51/2/1 43/9/9
f 52/10/10 9/16/15 50/5/5
f 50/5/5 9/16/15 28/6/6
f 27/11/11 52/10/10 50/5/5
f 59/28/17 5/29/18 60/27/19
f 60/27/19 5/29/18 4/30/20
f 59/28/17 61/31/21 5/29/18
f 5/29/18 61/31/21 6/32/22
f 5/29/18 8/15/16 4/30/20
f 4/30/20 8/15/16 7/1/3
f 5/29/18 6/32/22 8/15/16
f 8/15/16 6/32/22 9/16/15
f 29/33/23 25/34/24 28/6/6
f 28/6/6 25/34/24 12/7/8
f 6/32/22 29/33/23 9/16/15
f 9/16/15 29/33/23 28/6/6
f 61/31/21 64/35/25 6/32/22
f 6/32/22 64/35/25 29/33/23
f 2/36/26 31/37/27 3/39/28
f 3/39/28 31/37/27 30/38/29
f 32/40/30 31/37/27 1/41/31
f 1/41/31 31/37/27 2/36/26
f 31/37/27 23/42/32 30/38/29
f 30/38/29 23/42/32 24/43/33
f 64/35/25 65/44/34 29/33/23
f 29/33/23 65/44/34 25/34/24
f 24/62/33 23/63/32 39/65/35
f 39/65/35 23/63/32 38/64/36
f 69/67/37 40/52/38 65/66/34
f 65/66/34 40/52/38 25/51/24
f 39/65/35 38/64/36 21/71/39
f 21/71/39 38/64/36 55/70/40
f 59/28/17 60/27/19 2/36/26
f 2/36/26 60/27/19 1/41/31
f 61/31/21 59/28/17 3/39/28
f 3/39/28 59/28/17 2/36/26
f 61/31/21 3/39/28 64/35/25
f 64/35/25 3/39/28 30/38/29
f 64/35/25 30/38/29 65/44/34
f 65/44/34 30/38/29 24/43/33
f 69/67/37 65/66/34 39/65/35
f 39/65/35 65/66/34 24/62/33
f 70/68/41 69/67/37 21/71/39
f 21/71/39 69/67/37 39/65/35
f 70/68/41 21/71/39 68/69/42
f 68/69/42 21/71/39 55/70/40
f 26/56/43 63/57/44 33/59/45
f 33/59/45 63/57/44 62/58/46
f 33/59/45 34/4/4 26/56/43
f 26/56/43 34/4/4 10/13/13
f 62/58/47 60/27/19 33/59/45
f 33/59/45 60/27/19 4/30/20
f 34/4/4 33/59/45 7/1/3
f 7/1/3 33/59/45 4/30/20
f 31/37/27 32/40/30 23/42/32
f 23/42/32 32/40/30 22/60/48
f 67/75/49 66/76/50 17/55/51
f 17/55/51 66/76/50 57/74/52
f 22/83/48 37/84/53 23/63/32
f 23/63/32 37/84/53 38/64/36
f 38/64/36 58/77/54 20/78/55
f 55/70/40 38/64/36 20/78/56
f 58/77/54 38/64/36 19/79/57
f 19/79/57 38/64/36 37/84/53
f 62/58/46 63/57/44 32/40/30
f 32/40/30 63/57/44 22/60/48
f 60/27/19 62/58/47 1/41/31
f 1/41/31 62/58/47 32/40/30
f 68/69/42 55/70/40 67/75/58
f 67/75/58 55/70/40 20/78/56
f 66/76/50 67/75/49 58/77/54
f 58/77/54 67/75/49 20/78/55
f 72/73/59 66/76/50 19/79/57
f 19/79/57 66/76/50 58/77/54
f 72/73/59 19/79/57 71/61/60
f 71/61/60 19/79/57 37/84/53
f 71/61/60 37/84/53 63/80/44
f 63/80/44 37/84/53 22/83/48
f 49/17/7 12/18/8 48/20/61
f 48/20/61 12/18/8 41/19/62
f 49/17/7 48/20/61 11/21/14
f 11/21/14 48/20/61 42/22/63
f 10/24/13 45/25/12 35/23/64
f 35/23/64 45/25/12 46/26/65
f 45/25/12 11/21/14 46/26/65
f 46/26/65 11/21/14 42/22/63
f 47/45/66 53/46/67 14/47/68
f 42/22/63 73/85/69 46/26/65
f 74/86/70 42/22/63 48/20/61
f 56/48/71 47/45/66 14/47/72
f 73/85/69 13/50/73 46/26/65
f 46/26/65 13/50/73 35/23/64
f 12/18/8 25/51/24 41/19/62
f 41/19/62 25/51/24 40/52/38
f 18/53/74 15/49/75 40/52/38
f 40/52/38 15/49/75 41/19/62
f 17/55/76 14/47/68 54/54/77
f 54/54/77 14/47/68 53/46/67
f 70/68/41 18/53/74 69/67/37
f 69/67/37 18/53/74 40/52/38
f 54/54/77 53/46/67 18/53/74
f 18/53/74 53/46/67 15/49/75
f 18/53/74 70/68/41 54/54/77
f 54/54/77 70/68/41 68/69/42
f 71/61/60 63/80/44 36/82/78
f 36/82/78 63/80/44 26/81/43
f 10/24/13 35/23/64 26/81/43
f 26/81/43 35/23/64 36/82/78
f 35/23/64 13/50/73 36/82/78
f 36/82/78 13/50/73 16/72/79
f 72/73/59 71/61/60 16/72/79
f 16/72/79 71/61/60 36/82/78
f 17/55/51 57/74/52 14/47/72
f 14/47/72 57/74/52 56/48/71
f 54/54/77 68/69/42 17/55/76
f 17/55/76 68/69/42 67/75/58
f 66/76/50 72/73/59 57/74/52
f 57/74/52 72/73/59 16/72/79
f 57/74/52 16/72/79 56/48/71
f 56/48/71 16/72/79 13/50/73
f 41/19/62 15/49/75 48/20/61
f 48/20/61 15/49/75 74/86/70
f 15/49/75 53/46/67 74/86/70
f 74/86/70 53/46/67 47/45/66
f 42/22/63 74/86/70 47/45/66
f 73/85/69 42/22/63 47/45/66
f 73/85/69 47/45/66 13/50/73
f 13/50/73 47/45/66 56/48/71
f 80/88/80 77/89/81 79/87/82
f 79/87/82 77/89/81 78/90/83
f 81/92/84 82/93/85 76/91/86
f 76/91/86 82/93/85 75/94/87
f 80/88/80 81/92/84 77/89/81
f 77/89/81 81/92/84 76/91/86
f 75/94/87 82/93/85 78/90/83
f 78/90/83 82/93/85 79/87/82
f 80/88/88 79/87/89 81/92/90
f 81/92/90 79/87/89 82/93/91
f 78/90/92 77/89/93 75/94/94
f 75/94/94 77/89/93 76/91/95
