# This file uses centimeters as units for non-parametric coordinates.

v 0.056133 0.049933 0.130794
v 0.074108 0.056759 0.124383
v 0.087308 0.054963 0.106370
v -0.031576 0.037893 -0.002949
v -0.007753 0.071043 0.010834
v 0.049838 0.058632 0.016074
v -0.028863 -0.040508 -0.013280
v -0.006524 -0.044837 -0.021418
v 0.034425 -0.044296 0.007840
v 0.043348 -0.050569 0.120654
v 0.050970 -0.048407 0.109613
v 0.052763 -0.048968 0.057845
v 0.040750 -0.009839 0.139888
v 0.083701 -0.007561 0.111203
v 0.078821 -0.006658 0.080683
v -0.039149 -0.011507 -0.010106
v -0.036266 -0.017917 0.079078
v -0.014699 0.045908 0.081530
v -0.002708 0.060696 0.071277
v 0.046659 0.045301 0.062538
v 0.034524 -0.021117 0.075853
v 0.023991 -0.063102 0.045240
v -0.004056 -0.066296 0.042239
v -0.019453 -0.060720 0.051034
v 0.046127 0.054043 0.103237
v 0.054831 0.033804 0.091794
v 0.081637 0.061622 0.060630
v 0.068564 0.075937 0.086625
v 0.035506 -0.004430 0.019999
v -0.010810 -0.003084 -0.033950
v -0.049054 -0.013835 -0.007407
v -0.042924 -0.040776 -0.007194
v -0.041889 -0.052568 0.050967
v -0.050744 -0.017079 0.075104
v -0.042476 0.031975 0.001690
v -0.038789 0.037217 0.081322
v 0.085757 0.034952 0.114602
v 0.049268 0.040517 0.009611
v -0.009678 0.021596 -0.025173
v 0.012028 0.051180 0.072318
v 0.047734 0.107624 0.040980
v 0.076503 0.085903 0.022526
v -0.023734 -0.017787 0.117178
v 0.060482 0.053575 0.094252
v -0.001526 -0.057659 0.108963
v 0.011578 0.050882 0.122597
v 0.032657 0.060441 0.115541
v 0.025999 -0.057039 0.074621
v 0.009329 -0.056980 0.098601
vt 0.082909 0.519504
vt 0.082909 0.506676
vt 0.154816 0.506676
vt 0.154816 0.519504
vt 0.082909 0.483201
vt 0.077044 0.595241
vt 0.093430 0.608063
vt 0.154816 0.483201
vt 0.154816 0.581943
vt 0.173528 0.590778
vt 0.082909 0.590778
vt 0.082909 0.581943
vt 0.107567 0.605982
vt 0.109255 0.595241
vt 0.032181 0.581943
vt 0.015173 0.590778
vt 0.015173 0.550648
vt 0.032181 0.550648
vt 0.137556 0.627303
vt 0.095593 0.638946
vt 0.015173 0.519504
vt 0.032181 0.519504
vt 0.137556 0.638946
vt 0.077474 0.613280
vt 0.123956 0.616815
vt 0.162038 0.619693
vt 0.131080 0.606050
vt 0.173285 0.638946
vt 0.099070 0.572250
vt 0.099070 0.550648
vt 0.139620 0.550648
vt 0.139620 0.572250
vt 0.139620 0.526268
vt 0.099070 0.526268
vt 0.057603 0.550648
vt 0.057603 0.519504
vt 0.082909 0.550648
vt 0.057603 0.506676
vt 0.173285 0.656234
vt 0.057603 0.581943
vt 0.082909 0.496476
vt 0.137556 0.659314
vt 0.154816 0.496476
vt 0.173528 0.519504
vt 0.173528 0.550648
vt 0.154816 0.550648
vt 0.032181 0.506676
vt 0.137556 0.698347
vt 0.057603 0.590778
vt 0.173285 0.714902
vt 0.173285 0.619693
vt 0.069157 0.622167
vt 0.095593 0.714902
vt 0.095593 0.698347
vt 0.019231 0.714902
vt 0.034153 0.698347
vt 0.034153 0.666098
vt 0.018898 0.666098
vt 0.034153 0.638946
vt 0.019627 0.641391
vt 0.095593 0.666098
vt 0.060196 0.627984
vt 0.060196 0.638946
vt 0.060243 0.698347
vt 0.060243 0.714902
vt 0.034153 0.627984
vn -0.312456 0.949435 -0.030731
vn -0.252307 0.848181 -0.465758
vn -0.793290 0.540306 0.280641
vn -0.675997 0.638660 -0.367616
vn -0.435651 -0.413058 0.799744
vn 0.462337 -0.768794 0.441814
vn 0.429826 0.522664 0.736255
vn 0.983420 -0.180381 -0.018676
vn 0.960388 -0.092979 0.262697
vn 0.200740 0.268341 0.942176
vn 0.798261 -0.292856 0.526322
vn 0.157645 -0.189362 0.969170
vn 0.544038 0.145628 -0.826326
vn 0.920583 -0.387559 -0.048213
vn 0.781824 0.056435 -0.620940
vn -0.998972 0.045153 -0.004079
vn -0.994521 -0.101742 -0.024021
vn -0.974463 -0.222773 -0.028200
vn -0.974658 -0.221986 -0.027655
vn -0.243203 0.656980 0.713603
vn -0.507317 0.784227 -0.357236
vn -0.390380 0.617085 0.683235
vn -0.493219 0.504963 -0.708341
vn -0.448957 0.574167 0.684668
vn -0.738327 -0.018047 0.674202
vn -0.916215 -0.259272 0.305496
vn -0.015690 0.984422 0.175121
vn -0.641303 0.612950 0.461544
vn -0.099879 -0.970731 -0.218418
vn 0.762242 -0.185434 -0.620162
vn 0.099558 0.990933 -0.090219
vn -0.618008 0.204717 -0.759050
vn -0.009488 0.313951 -0.949392
vn -0.643678 0.118279 -0.756101
vn -0.043601 -0.022785 -0.998789
vn 0.921259 -0.115145 -0.371516
vn 0.243423 -0.550367 -0.798650
vn 0.669989 -0.587574 -0.453731
vn -0.484060 -0.627199 -0.610170
vn -0.280090 0.082595 -0.956414
vn -0.360450 0.081094 -0.929247
vn -0.332832 -0.608008 -0.720797
vn -0.306060 -0.606579 -0.733750
vn -0.303549 -0.799286 0.518652
vn -0.255517 -0.959318 0.120087
vn -0.190697 -0.334465 0.922913
vn -0.267490 -0.332553 0.904355
vn -0.976874 0.211512 0.031307
vn -0.983926 0.178382 0.008377
vn 0.354078 0.774788 0.523767
vn 0.631277 -0.010597 0.775485
vn 0.862364 0.196029 -0.466800
vn -0.045601 -0.993067 -0.108344
vn -0.384641 -0.919210 0.084286
vn 0.794448 -0.607158 -0.014575
vn 0.321762 -0.826044 0.462731
vn 0.599015 -0.773616 0.206639
vn 0.271783 -0.436631 -0.857606
vn 0.790088 -0.049593 -0.610984
vn 0.830678 0.526017 -0.182426
vn 0.969676 -0.217713 -0.111035
vn 0.328749 0.724955 -0.605280
vn -0.046598 -0.933816 -0.354705
vn -0.209760 0.313987 -0.925966
vn 0.173209 -0.983546 0.051347
vn -0.380978 -0.775898 0.502831
vn 0.011283 -0.992557 0.121257
vn 0.488387 -0.864649 0.117728
f 19/2/1 5/3/2 18/1/3
f 18/1/3 5/3/2 4/4/4
f 25/6/5 26/7/6 28/14/7
f 28/14/7 26/7/6 27/13/8
f 37/21/9 1/22/10 14/17/11
f 14/17/11 1/22/10 13/18/12
f 6/19/13 20/20/14 38/23/15
f 34/30/16 31/31/17 33/29/18
f 33/29/18 31/31/17 32/32/19
f 18/1/20 4/4/21 36/34/22
f 36/34/22 4/4/21 35/33/23
f 46/36/24 18/1/3 43/35/25
f 43/35/25 18/1/3 17/37/26
f 47/38/27 19/2/1 46/36/24
f 46/36/24 19/2/1 18/1/3
f 40/24/28 20/20/29 25/6/5
f 25/6/5 20/20/29 26/7/6
f 42/25/30 27/13/8 20/20/29
f 20/20/29 27/13/8 26/7/6
f 5/26/2 41/27/31 6/19/13
f 6/19/13 41/27/31 42/25/30
f 19/2/1 40/41/28 5/3/2
f 5/3/2 40/41/28 41/43/31
f 4/4/32 39/44/33 16/46/34
f 16/46/34 39/44/33 30/45/35
f 6/19/13 38/23/15 5/26/2
f 5/26/2 38/23/15 39/28/33
f 30/39/35 29/42/36 8/50/37
f 8/50/37 29/42/36 9/48/38
f 16/46/34 30/45/35 7/9/39
f 7/9/39 30/45/35 8/10/37
f 31/31/40 16/46/41 32/32/42
f 32/32/42 16/46/41 7/9/43
f 33/29/44 32/32/42 24/12/45
f 24/12/45 32/32/42 7/9/43
f 24/12/45 17/37/46 33/29/44
f 33/29/44 17/37/46 34/30/47
f 18/1/20 36/34/22 17/37/46
f 17/37/46 36/34/22 34/30/47
f 36/34/48 35/33/49 34/30/16
f 34/30/16 35/33/49 31/31/17
f 31/31/40 35/33/23 16/46/41
f 16/46/41 35/33/23 4/4/21
f 38/23/15 29/42/36 39/28/33
f 39/28/33 29/42/36 30/39/35
f 41/43/31 40/41/28 28/8/7
f 28/8/7 40/41/28 25/5/5
f 42/25/30 41/27/31 27/13/8
f 27/13/8 41/27/31 28/14/7
f 20/20/14 6/19/13 42/25/30
f 43/35/25 13/18/12 46/36/24
f 46/36/24 13/18/12 1/22/10
f 2/47/50 47/38/27 1/22/10
f 1/22/10 47/38/27 46/36/24
f 1/22/10 37/21/51 2/47/50
f 39/28/33 4/51/4 5/26/2
f 19/52/1 20/20/52 40/24/28
f 8/10/37 23/11/53 7/9/39
f 7/9/39 23/11/53 24/12/54
f 8/50/37 9/48/38 23/53/53
f 23/53/53 9/48/38 22/54/55
f 10/15/56 11/16/57 13/18/12
f 13/18/12 11/16/57 14/17/11
f 12/56/58 15/57/59 11/55/57
f 11/55/57 15/57/59 14/58/11
f 3/59/60 37/60/9 15/57/59
f 15/57/59 37/60/9 14/58/11
f 21/61/61 22/54/55 29/42/36
f 29/42/36 22/54/55 9/48/38
f 44/63/62 20/20/52 47/62/27
f 47/62/27 20/20/52 19/52/1
f 21/61/61 20/20/52 44/63/62
f 48/64/63 21/61/64 12/56/58
f 12/56/58 21/61/64 15/57/59
f 49/65/65 48/64/63 11/55/57
f 11/55/57 48/64/63 12/56/58
f 45/40/66 49/49/65 10/15/56
f 10/15/56 49/49/65 11/16/57
f 43/35/25 17/37/26 45/40/66
f 45/40/66 17/37/26 24/12/54
f 43/35/25 45/40/66 13/18/12
f 13/18/12 45/40/66 10/15/56
f 47/62/27 2/66/50 44/63/62
f 44/63/62 2/66/50 3/59/60
f 37/60/51 3/59/60 2/66/50
f 38/23/15 20/20/52 29/42/36
f 29/42/36 20/20/52 21/61/61
f 45/40/66 24/12/54 49/49/67
f 49/49/67 24/12/54 23/11/53
f 21/61/64 44/63/62 15/57/59
f 15/57/59 44/63/62 3/59/60
f 49/65/67 23/53/53 48/64/68
f 48/64/68 23/53/53 22/54/55
f 21/61/61 48/64/68 22/54/55
