# This file uses centimeters as units for non-parametric coordinates.

v -0.025912 0.046554 0.057059
v -0.010670 0.046884 0.057059
v 0.007718 0.033131 0.057205
v -0.054580 0.057376 -0.059344
v -0.017827 0.065217 -0.048920
v 0.015846 0.057626 -0.064588
v -0.076204 0.017796 -0.062956
v -0.016192 0.040638 -0.125693
v 0.024683 0.019581 -0.073917
v -0.056670 -0.020979 -0.064013
v -0.017931 -0.027176 -0.057169
v 0.015424 -0.019035 -0.064644
v -0.041483 -0.006824 0.041840
v -0.018984 -0.019861 0.041840
v 0.001432 -0.015688 0.057049
v 0.016322 0.011349 0.057128
v -0.040320 0.021319 0.050601
v -0.013238 0.017247 0.081104
v -0.043868 0.008503 -0.123026
v -0.079938 0.019745 -0.099962
v -0.048704 0.054973 -0.094505
v -0.018320 0.061420 -0.090244
v 0.013162 0.056919 -0.091225
v 0.019315 0.024877 -0.112425
v 0.005524 0.014629 -0.128795
v -0.018912 0.015766 -0.139151
v -0.016462 -0.006450 0.071070
v -0.031764 0.001091 0.071045
v -0.032187 0.020346 0.071253
v -0.020857 0.035883 0.071212
v -0.011066 0.037152 0.071193
v 0.003070 0.029329 0.071245
v 0.005277 0.013615 0.071264
v -0.003371 -0.003911 0.071203
v -0.038289 0.020244 0.067128
v -0.040700 0.005369 0.067407
v -0.044462 0.000077 0.048249
v -0.075652 -0.005459 -0.058584
v -0.080215 -0.000981 -0.104584
v -0.080860 0.022395 -0.113284
v -0.079244 0.044647 -0.099615
v -0.075296 0.050300 -0.063202
v -0.035271 0.042079 0.059179
v -0.035180 0.036660 0.065284
v -0.026051 0.036307 0.064579
v -0.035245 0.020861 0.066227
v -0.036526 0.005164 0.065948
v -0.041965 -0.000934 0.044947
v -0.060974 -0.006999 -0.063877
v -0.055186 -0.002261 -0.110874
v -0.053142 0.022002 -0.118546
v -0.050496 0.049355 -0.094617
v -0.055899 0.053685 -0.059339
v -0.028384 0.043194 0.057069
v -0.059207 -0.007993 -0.039121
v -0.055189 -0.021143 -0.039976
v -0.018696 -0.028507 -0.045024
v 0.017936 -0.019913 -0.042181
v 0.027607 0.018771 -0.044521
v 0.016399 0.055175 -0.036295
v -0.019010 0.064250 -0.036488
v -0.052654 0.056813 -0.033784
v -0.054190 0.052929 -0.033957
v -0.051958 -0.028282 -0.111449
v -0.016850 -0.036711 -0.117731
v 0.014936 -0.023335 -0.114769
v 0.022277 0.020381 -0.090821
vt 0.045801 0.935934
vt 0.045801 0.906649
vt 0.113881 0.906649
vt 0.113881 0.935934
vt 0.045801 0.878134
vt 0.113881 0.878134
vt 0.164695 0.935934
vt 0.204784 0.768970
vt 0.188082 0.906649
vt 0.204784 0.801041
vt 0.202551 0.906649
vt 0.204784 0.744610
vt 0.116776 0.801041
vt 0.116776 0.768970
vt 0.047858 0.768970
vt 0.047858 0.801041
vt 0.116776 0.744610
vt 0.047858 0.744610
vt 0.047858 0.730927
vt 0.188082 0.949041
vt 0.116776 0.730927
vt 0.047858 0.820532
vt 0.116776 0.820532
vt 0.164695 0.949041
vt 0.007528 0.820532
vt 0.024397 0.820532
vt 0.024397 0.801041
vt 0.164695 0.906649
vt 0.164695 0.878134
vt 0.045801 0.857315
vt 0.007528 0.801054
vt 0.113881 0.857315
vt 0.024397 0.768970
vt 0.024397 0.744610
vt 0.007528 0.771488
vt 0.204784 0.820532
vt 0.193244 0.820532
vt 0.045801 0.949041
vt 0.113881 0.949041
vt 0.023770 0.935934
vt 0.023770 0.906649
vt 0.204784 0.730927
vt 0.007194 0.857315
vt 0.024397 0.730927
vt 0.138406 0.820532
vt 0.023770 0.878134
vt 0.193244 0.801041
vt 0.138406 0.801041
vt 0.193244 0.744610
vt 0.193244 0.730927
vt 0.138406 0.730927
vt 0.188082 0.857315
vt 0.023770 0.949041
vt 0.045801 0.969170
vt 0.023770 0.969170
vt 0.141108 0.935934
vt 0.141108 0.949041
vt 0.138406 0.744610
vt 0.141108 0.906649
vt 0.193244 0.768970
vt 0.138406 0.768970
vt 0.047858 0.836220
vt 0.024397 0.836220
vt 0.007528 0.848236
vt 0.141108 0.878134
vt 0.164695 0.857315
vt 0.141108 0.857315
vt 0.007194 0.949445
vt 0.047858 0.848236
vt 0.138406 0.836220
vt 0.138406 0.848236
vt 0.007194 0.923227
vt 0.164695 0.969170
vt 0.188082 0.969170
vt 0.164695 0.991480
vt 0.193244 0.848236
vt 0.193244 0.836220
vt 0.204784 0.848236
vt 0.007194 0.991480
vt 0.128124 0.969170
vt 0.007194 0.968160
vt 0.128124 0.991480
vt 0.045801 0.991480
vt 0.202551 0.949041
vt 0.202551 0.857315
vn 0.212751 0.892621 0.397447
vn 0.007893 0.985020 0.172263
vn -0.432842 0.779415 0.452947
vn -0.678679 0.682002 0.272522
vn 0.741310 0.548955 0.386146
vn 0.738659 0.647119 0.188735
vn 0.018453 -0.994907 0.099091
vn -0.195716 -0.946902 0.255091
vn -0.591692 -0.781701 0.197091
vn -0.810119 -0.500683 0.304997
vn 0.631910 -0.765683 0.120084
vn 0.400810 -0.806028 0.435511
vn 0.929083 -0.083443 0.360336
vn 0.993655 0.015240 0.111434
vn -0.941340 -0.214487 0.260527
vn -0.946412 -0.244749 0.210720
vn -0.782525 0.468370 0.410224
vn -0.894252 0.340910 0.289991
vn -0.807462 0.278832 0.519864
vn -0.855922 -0.168500 0.488882
vn -0.676074 0.225853 0.701366
vn -0.569789 -0.462054 0.679593
vn -0.349921 0.589301 0.728203
vn 0.222331 0.689119 0.689698
vn -0.109975 -0.690775 0.714658
vn 0.439687 -0.448364 0.778232
vn 0.013400 0.033142 0.999361
vn 0.712670 -0.013371 0.701372
vn 0.589876 0.404114 0.699098
vn -0.018593 0.907934 0.418701
vn -0.084483 0.897051 0.433777
vn 0.085849 0.554685 0.827620
vn 0.154889 0.308916 0.938392
vn -0.003050 0.995804 -0.091463
vn 0.498032 0.862286 -0.091800
vn -0.015002 0.996594 -0.081083
vn 0.808912 0.578365 -0.105619
vn 0.980097 -0.090211 -0.176837
vn 0.988579 0.076850 -0.129639
vn 0.806725 -0.425047 -0.410524
vn 0.746304 -0.665137 0.024973
vn 0.066530 -0.785174 -0.615691
vn -0.040343 -0.988060 0.148696
vn -0.963572 0.118944 0.239543
vn -0.976302 0.167569 0.136945
vn -0.966967 0.140964 0.212376
vn -0.974852 0.179926 0.131492
vn -0.981843 0.012290 0.189296
vn -0.982386 0.036034 0.183356
vn -0.996225 0.010523 0.086171
vn -0.996023 -0.005382 0.088935
vn -0.997366 0.012388 0.071472
vn -0.995281 0.027206 0.093140
vn -0.969103 0.052501 0.241005
vn -0.961282 0.134344 0.240602
vn -0.681989 0.468325 0.561750
vn -0.971742 0.183690 0.148242
vn 0.215677 0.025009 0.976144
vn 0.297787 -0.006681 0.954609
vn 0.230760 -0.622474 0.747848
vn 0.200985 -0.621051 0.757562
vn -0.120036 -0.971077 0.206398
vn -0.127852 -0.970519 0.204320
vn -0.266717 -0.954530 0.133173
vn -0.309615 -0.940628 0.139129
vn -0.242296 0.956804 0.160683
vn -0.363756 0.913868 0.180354
vn -0.109200 -0.991207 -0.074730
vn -0.115587 -0.992794 -0.031604
vn -0.124607 -0.990552 -0.057266
vn -0.506780 -0.861770 -0.022939
vn -0.953919 -0.294692 0.056524
vn -0.794192 -0.606027 0.044611
vn -0.954063 -0.294271 0.056290
vn 0.022183 -0.997345 -0.069364
vn 0.011230 -0.994054 -0.108307
vn 0.819273 -0.563147 -0.107966
vn 0.541226 -0.834475 -0.103568
vn 0.996876 0.009394 -0.078419
vn 0.995064 -0.004704 -0.099128
vn 0.547096 0.834221 0.069001
vn 0.822705 0.568466 -0.001506
vn 0.018154 0.996688 0.079268
vn 0.018107 0.997408 0.069633
vn -0.042924 -0.379009 -0.924397
vn 0.631096 -0.338924 -0.697745
vn 0.959871 -0.217636 -0.176868
vn 0.967171 0.240344 -0.082553
vn -0.505077 0.860708 0.063870
vn -0.777907 0.624409 0.070528
vn -0.933778 0.349777 0.075594
vn -0.939117 0.335707 0.073212
vn -0.153640 0.984907 -0.079703
vn -0.179754 0.982842 0.041358
vn -0.161910 0.985508 -0.050582
vn -0.923430 0.299379 -0.240102
vn -0.923430 0.299379 -0.240102
vn -0.923430 0.299379 -0.240102
vn -0.001327 0.862645 -0.505808
vn 0.312333 0.728259 -0.609989
vn 0.013848 0.610708 -0.791735
vn -0.115237 0.482448 -0.868311
vn -0.429444 0.299122 -0.852117
vn 0.431836 0.453519 -0.779640
vn -0.352351 0.368698 -0.860181
vn 0.491627 0.518759 -0.699423
vn -0.274509 0.732582 -0.622871
vn -0.945931 -0.289794 -0.145719
vn -0.873827 -0.178288 -0.452371
vn -0.835867 -0.547698 -0.036803
vn -0.636217 -0.658459 -0.402070
vn -0.490793 0.860423 -0.137094
vn -0.775670 0.607141 -0.172385
vn -0.931507 0.316633 -0.178990
vn -0.936010 0.302202 -0.180440
vn -0.175169 -0.889976 -0.421021
vn -0.195572 -0.624628 -0.756037
vn -0.114894 0.332622 -0.936035
vn -0.210859 -0.036766 -0.976825
vn -0.090591 0.926345 -0.365620
vn -0.095208 0.777733 -0.621343
vn -0.510988 -0.220108 -0.830930
vn -0.632273 -0.184640 -0.752422
f 2/2/1 61/3/2 1/1/3
f 1/1/3 61/3/2 62/4/4
f 3/5/5 60/6/6 2/2/1
f 2/2/1 60/6/6 61/3/2
f 57/14/7 14/15/8 56/13/9
f 56/13/9 14/15/8 13/16/10
f 57/14/7 58/17/11 14/15/8
f 14/15/8 58/17/11 15/18/12
f 15/18/12 58/17/11 16/19/13
f 16/19/13 58/17/11 59/21/14
f 3/5/5 16/30/13 60/6/6
f 60/6/6 16/30/13 59/32/14
f 48/22/15 55/23/16 13/16/10
f 13/16/10 55/23/16 56/13/9
f 1/1/3 62/4/4 54/38/17
f 54/38/17 62/4/4 63/39/18
f 46/25/19 47/26/20 29/31/21
f 29/31/21 47/26/20 28/27/22
f 1/1/3 30/40/23 2/2/1
f 2/2/1 30/40/23 31/41/24
f 27/33/25 34/34/26 18/35/27
f 16/30/13 3/5/5 33/43/28
f 33/43/28 3/5/5 32/46/29
f 54/38/30 43/54/31 45/53/32
f 45/53/32 43/54/31 44/55/33
f 32/46/29 3/5/5 31/41/24
f 31/41/24 3/5/5 2/2/1
f 15/18/12 16/19/13 34/34/26
f 34/34/26 16/19/13 33/44/28
f 27/33/25 28/27/22 14/15/8
f 14/15/8 28/27/22 13/16/10
f 5/59/34 6/65/35 22/28/36
f 22/28/36 6/65/35 23/29/37
f 67/66/38 23/29/37 9/67/39
f 9/67/39 23/29/37 6/65/35
f 66/49/40 67/50/38 12/58/41
f 12/58/41 67/50/38 9/51/39
f 66/49/40 12/58/41 65/60/42
f 65/60/42 12/58/41 11/61/43
f 27/33/25 18/35/27 28/27/22
f 29/31/21 28/27/22 18/35/27
f 30/40/23 29/68/21 18/72/27
f 31/41/24 30/40/23 18/72/27
f 18/72/27 32/46/29 31/41/24
f 18/72/27 33/43/28 32/46/29
f 34/34/26 33/44/28 18/35/27
f 34/34/26 27/33/25 15/18/12
f 15/18/12 27/33/25 14/15/8
f 28/27/22 47/26/20 13/16/10
f 13/16/10 47/26/20 48/22/15
f 37/62/44 36/63/45 17/69/46
f 17/69/46 36/63/45 35/64/47
f 38/70/48 37/62/44 7/71/49
f 7/71/49 37/62/44 17/69/46
f 20/76/50 39/77/51 7/71/49
f 7/71/49 39/77/51 38/70/48
f 20/76/50 40/78/52 39/77/51
f 41/73/53 40/74/52 20/75/50
f 42/80/54 41/73/53 7/82/49
f 7/82/49 41/73/53 20/75/50
f 43/54/55 42/80/54 17/83/46
f 17/83/46 42/80/54 7/82/49
f 30/40/23 45/53/56 29/68/21
f 29/68/21 45/53/56 46/81/19
f 43/54/55 17/83/46 44/55/57
f 44/55/57 17/83/46 35/79/47
f 45/53/32 44/55/33 46/81/58
f 46/81/58 44/55/33 35/79/59
f 36/63/60 47/26/61 35/64/59
f 35/64/59 47/26/61 46/25/58
f 48/22/62 47/26/61 37/62/63
f 37/62/63 47/26/61 36/63/60
f 48/22/62 37/62/63 55/23/64
f 55/23/64 37/62/63 38/70/65
f 54/38/30 63/39/66 43/54/31
f 43/54/31 63/39/66 42/80/67
f 54/38/17 45/53/56 1/1/3
f 1/1/3 45/53/56 30/40/23
f 49/45/68 55/23/69 38/70/70
f 56/13/71 55/23/72 10/48/73
f 10/48/73 55/23/72 49/45/74
f 10/48/73 11/61/75 56/13/71
f 56/13/71 11/61/75 57/14/76
f 12/58/77 58/17/78 11/61/75
f 11/61/75 58/17/78 57/14/76
f 58/17/78 12/58/77 59/21/79
f 59/21/79 12/58/77 9/51/80
f 60/6/81 59/32/79 6/65/82
f 6/65/82 59/32/79 9/67/80
f 61/3/83 60/6/81 5/59/84
f 5/59/84 60/6/81 6/65/82
f 26/8/85 25/12/86 65/60/42
f 65/60/42 25/12/86 66/49/40
f 24/42/87 67/50/38 25/12/86
f 25/12/86 67/50/38 66/49/40
f 24/52/87 23/29/88 67/66/38
f 61/3/83 5/59/84 62/4/89
f 62/4/89 5/59/84 4/56/90
f 62/4/89 4/56/90 63/39/91
f 63/39/91 4/56/90 53/57/92
f 42/80/93 63/39/94 53/57/95
f 21/7/96 51/20/97 52/24/98
f 22/28/99 23/29/100 8/9/101
f 26/11/102 19/84/103 8/9/101
f 8/9/101 25/85/104 26/11/102
f 19/84/103 51/20/105 8/9/101
f 8/9/101 24/52/106 25/85/104
f 21/7/107 22/28/99 8/9/101
f 8/9/101 23/29/100 24/52/106
f 49/45/108 50/37/109 10/48/110
f 10/48/110 50/37/109 64/47/111
f 4/56/112 21/7/113 53/57/114
f 53/57/114 21/7/113 52/24/115
f 5/59/34 22/28/36 4/56/112
f 4/56/112 22/28/36 21/7/113
f 10/48/110 64/47/111 11/61/43
f 11/61/43 64/47/111 65/60/42
f 38/70/70 39/77/116 49/45/68
f 49/45/68 39/77/116 50/37/117
f 51/36/118 50/37/117 40/78/119
f 40/78/119 50/37/117 39/77/116
f 52/24/120 51/20/118 41/73/121
f 41/73/121 51/20/118 40/74/119
f 53/57/95 52/24/120 42/80/93
f 42/80/93 52/24/120 41/73/121
f 64/47/111 19/10/122 65/60/42
f 65/60/42 19/10/122 26/8/85
f 51/36/123 19/10/122 50/37/109
f 50/37/109 19/10/122 64/47/111
f 51/20/105 21/7/107 8/9/101
