# This file uses centimeters as units for non-parametric coordinates.

v -0.077324 -0.046601 0.047724
v -0.012981 -0.081574 0.068889
v 0.051812 -0.046601 0.091636
v -0.045411 -0.021833 -0.011600
v 0.015984 0.005649 -0.016295
v 0.065864 -0.021833 0.026237
v -0.057501 0.083527 0.054221
v -0.012981 0.125905 0.068889
v 0.002761 0.109011 0.022593
v -0.025947 0.066633 0.012588
v 0.048673 0.082298 0.090568
v 0.052224 0.065404 0.039413
v 0.056494 -0.068455 0.065074
v -0.000880 -0.088778 0.032638
v -0.061829 -0.067885 0.020853
vt 0.580339 0.015063
vt 0.797678 0.016334
vt 0.772965 0.016334
vt 0.608076 0.015063
vt 0.772965 0.055514
vt 0.797678 0.077480
vt 0.704437 0.037991
vt 0.608076 0.077467
vt 0.580339 0.060997
vt 0.940849 0.080441
vt 0.704437 0.055514
vt 0.704437 0.077480
vt 0.940849 0.050113
vt 0.704437 0.016334
vt 0.517230 0.077749
vt 0.979989 0.050113
vt 0.979989 0.080441
vt 0.940849 0.012527
vt 0.979989 0.012527
vt 0.900348 0.050113
vt 0.900348 0.012527
vt 0.917484 0.012527
vt 0.917484 0.050113
vt 0.900348 0.080441
vt 0.917484 0.080441
vt 0.517230 0.015063
vt 0.517230 0.036695
vt 0.517230 0.060997
vn 0.036828 0.942736 -0.331500
vn 0.127292 0.743260 -0.656781
vn -0.737953 0.383202 -0.555502
vn -0.419387 0.387378 -0.821007
vn 0.928111 0.370987 0.031274
vn 0.808550 0.391526 -0.439266
vn -0.492648 -0.458896 0.739400
vn -0.280349 -0.536273 0.796126
vn -0.312656 0.000079 0.949867
vn -0.322328 0.000002 0.946628
vn -0.665445 0.265362 -0.697686
vn 0.248113 0.330568 -0.910585
vn -0.878065 0.126787 -0.461439
vn -0.088138 -0.423208 0.901735
vn -0.331419 -0.000122 0.943484
vn 0.979812 0.017148 0.199183
vn 0.978397 0.137377 -0.154489
vn 0.277505 -0.480633 -0.831855
vn 0.478122 -0.542714 -0.690551
vn 0.185559 -0.811822 -0.553637
vn 0.367296 -0.921761 0.124299
vn 0.055926 -0.524297 -0.849697
vn -0.360959 -0.916431 -0.172812
vn 0.987859 0.025329 0.153273
vn -0.799948 0.150858 -0.580796
f 8/4/1 9/8/2 7/1/3
f 7/1/3 9/8/2 10/9/4
f 8/2/1 11/3/5 9/6/2
f 9/6/2 11/3/5 12/5/6
f 1/10/7 2/13/8 7/17/9
f 7/17/9 2/13/8 8/16/10
f 4/28/11 10/9/4 5/15/12
f 5/15/12 10/9/4 9/8/2
f 15/27/13 7/1/3 4/28/11
f 4/28/11 7/1/3 10/9/4
f 3/18/14 11/19/15 2/13/8
f 2/13/8 11/19/15 8/16/10
f 13/7/16 6/11/17 11/3/5
f 11/3/5 6/11/17 12/5/6
f 6/11/17 5/12/12 12/5/6
f 12/5/6 5/12/12 9/6/2
f 5/20/18 6/21/19 14/23/20
f 14/23/20 6/21/19 13/22/21
f 5/20/18 14/23/20 4/24/22
f 4/24/22 14/23/20 15/25/23
f 3/14/24 13/7/16 11/3/5
f 14/23/20 13/22/21 2/13/8
f 2/13/8 13/22/21 3/18/14
f 14/23/20 2/13/8 15/25/23
f 15/25/23 2/13/8 1/10/7
f 7/1/3 15/27/13 1/26/25
