# This file uses centimeters as units for non-parametric coordinates.

v -0.001488 -0.032702 0.029473
v 0.073930 -0.021899 0.001926
v 0.078410 -0.049640 0.041712
v -0.001226 0.005584 -0.022284
v -0.071075 -0.021899 0.001926
v -0.077361 -0.049070 0.037937
v 0.083492 -0.031930 0.068366
v 0.078410 -0.049640 0.041712
v 0.079401 0.082233 0.068367
v 0.063231 0.065339 0.018791
v 0.073930 -0.021899 0.001926
v -0.001226 0.005584 -0.022284
v -0.001225 0.108946 0.018792
v -0.001225 0.125840 0.067690
v -0.080697 0.082233 0.068367
v -0.060376 0.065339 0.018791
v -0.071075 -0.021899 0.001926
v -0.077361 -0.049070 0.037937
v -0.084788 -0.031930 0.068365
v -0.084788 -0.031930 0.068365
v -0.001225 -0.025498 0.067690
v -0.080697 0.082233 0.068367
v -0.077361 -0.049070 0.037937
v -0.001225 0.125840 0.067690
v -0.001488 -0.032702 0.029473
v 0.079401 0.082233 0.068367
v 0.078410 -0.049640 0.041712
v 0.083492 -0.031930 0.068366
v -0.001799 0.011296 0.027487
v 0.090938 0.024580 -0.006385
v 0.096447 -0.009532 0.042537
v -0.001476 0.058374 -0.036155
v -0.087365 0.024580 -0.006385
v -0.095095 -0.008831 0.037895
v 0.102696 0.012245 0.075311
v 0.096447 -0.009532 0.042537
v 0.097665 0.152624 0.075312
v 0.077782 0.131851 0.014353
v 0.090938 0.024580 -0.006385
v -0.001476 0.058374 -0.036155
v -0.001475 0.185471 0.014354
v -0.001475 0.206244 0.074480
v -0.099197 0.152624 0.075312
v -0.074209 0.131851 0.014353
v -0.087365 0.024580 -0.006385
v -0.095095 -0.008831 0.037895
v -0.104227 0.012245 0.075310
v -0.001475 0.020154 0.074480
v 0.058504 -0.207386 0.078300
v -0.001273 -0.202848 0.077823
v -0.095095 -0.008831 0.037895
v -0.104227 0.012245 0.075310
v -0.099196 0.152622 0.089904
v -0.099197 0.152624 0.075312
v -0.001799 0.011296 0.027487
v -0.060237 -0.207386 0.078299
v 0.096447 -0.009532 0.042537
v 0.102696 0.012245 0.075311
v 0.097666 0.152622 0.089904
v 0.102697 0.012243 0.089903
v -0.104226 0.012243 0.089901
v -0.001474 0.020152 0.089071
v -0.001474 0.206242 0.089072
v -0.001475 0.206244 0.074480
v 0.097665 0.152624 0.075312
v -0.001273 -0.202849 0.086196
v -0.060236 -0.207387 0.086672
v 0.058505 -0.207387 0.086673
vt 0.187137 0.327474
vt 0.225330 0.341436
vt 0.227588 0.321263
vt 0.187259 0.353674
vt 0.151888 0.341436
vt 0.148684 0.323171
vt 0.431952 0.054292
vt 0.429389 0.067811
vt 0.429877 0.054292
vt 0.421698 0.079423
vt 0.427115 0.087953
vt 0.389029 0.100221
vt 0.389029 0.079423
vt 0.389029 0.054658
vt 0.348791 0.054292
vt 0.359091 0.079423
vt 0.353643 0.087953
vt 0.350469 0.069734
vt 0.346716 0.054292
vt 0.144915 0.307774
vt 0.187259 0.308110
vt 0.147005 0.307774
vt 0.228107 0.307774
vt 0.230182 0.307774
vt 0.186954 0.328466
vt 0.233951 0.345647
vt 0.236728 0.320836
vt 0.187137 0.360723
vt 0.143618 0.345647
vt 0.139696 0.323201
vt 0.234150 0.295613
vt 0.231220 0.310979
vt 0.231769 0.295613
vt 0.222461 0.324208
vt 0.228626 0.333928
vt 0.185321 0.347860
vt 0.185321 0.324208
vt 0.185321 0.296025
vt 0.139513 0.295613
vt 0.151232 0.324208
vt 0.145052 0.333928
vt 0.141436 0.313146
vt 0.137148 0.295613
vt 0.213428 0.294224
vt 0.185412 0.294453
vt 0.139513 0.288792
vt 0.185168 0.318044
vt 0.157778 0.294224
vt 0.231769 0.288792
vt 0.234150 0.288792
vt 0.137148 0.288792
vt 0.185321 0.289158
vt 0.185412 0.290532
vt 0.157778 0.290303
vt 0.213428 0.290303
vt 0.148684 0.323171
vt 0.187259 0.308110
vt 0.187137 0.327474
vt 0.227588 0.321263
vt 0.185321 0.296025
vt 0.141436 0.313146
vt 0.137148 0.295613
vt 0.139513 0.295613
vt 0.231220 0.310979
vt 0.234150 0.295613
vt 0.185321 0.289158
vt 0.185321 0.296025
vt 0.231769 0.295613
vn -0.087999 -0.821693 -0.563095
vn -0.087999 -0.821693 -0.563095
vn -0.087999 -0.821693 -0.563095
vn -0.101700 -0.799497 -0.591998
vn 0.109792 -0.799344 -0.590758
vn 0.107695 -0.802560 -0.586771
vn 0.977162 0.034999 -0.209592
vn 0.977162 0.034999 -0.209592
vn 0.977162 0.034999 -0.209592
vn 0.942922 0.059201 -0.327708
vn 0.991721 0.126203 -0.023701
vn 0.371007 0.219904 -0.902217
vn 0.508101 0.751001 -0.421701
vn 0.457089 0.840679 -0.290393
vn -0.462300 0.838100 -0.289600
vn -0.262696 0.356294 -0.896686
vn -0.395875 0.220886 -0.891343
vn -0.988333 0.134905 -0.070702
vn -0.966240 0.034601 -0.255310
vn 0.008100 -0.000300 0.999967
vn 0.008100 -0.000300 0.999967
vn 0.008100 -0.000300 0.999967
vn 0.070397 -0.861661 0.502577
vn 0.008500 0.000000 0.999964
vn 0.226509 -0.957437 0.178907
vn -0.008400 0.000000 0.999965
vn -0.230508 -0.955935 0.181807
vn -0.008000 -0.000300 0.999968
vn -0.087999 -0.821693 -0.563095
vn -0.087999 -0.821693 -0.563095
vn -0.087999 -0.821693 -0.563095
vn -0.101700 -0.799497 -0.591998
vn 0.109792 -0.799344 -0.590758
vn 0.107695 -0.802560 -0.586771
vn 0.977162 0.034999 -0.209592
vn 0.977162 0.034999 -0.209592
vn 0.977162 0.034999 -0.209592
vn 0.942922 0.059201 -0.327708
vn 0.991721 0.126203 -0.023701
vn 0.371007 0.219904 -0.902217
vn 0.508101 0.751001 -0.421701
vn 0.457089 0.840679 -0.290393
vn -0.462300 0.838100 -0.289600
vn -0.262696 0.356294 -0.896686
vn -0.395875 0.220886 -0.891343
vn -0.988333 0.134905 -0.070702
vn -0.966240 0.034601 -0.255310
vn 0.006800 -0.014999 -0.999864
vn 0.006800 -0.014999 -0.999864
vn 0.006800 -0.014999 -0.999864
vn 0.070397 -0.861661 0.502577
vn 0.070397 -0.861661 0.502577
vn -0.999359 0.035799 0.000100
vn -0.999359 0.035799 0.000100
vn 0.226509 -0.957437 0.178907
vn -0.006900 -0.014999 -0.999864
vn -0.230508 -0.955935 0.181807
vn 0.999359 0.035799 0.000000
vn 0.999359 0.035799 0.000000
vn 0.999359 0.035799 0.000000
vn 0.008100 -0.000300 0.999967
vn 0.008100 -0.000300 0.999967
vn 0.008500 0.000000 0.999964
vn -0.481009 0.876716 0.000200
vn 0.475703 0.879606 0.000100
vn -0.075702 -0.997130 -0.000100
vn 0.076697 -0.997054 -0.000200
vn 0.980345 -0.197289 -0.000100
f 1/1/1 2/2/2 3/3/3
f 4/4/4 2/2/2 1/1/1
f 4/4/4 1/1/1 5/5/5
f 5/5/5 1/1/1 6/6/6
f 7/7/7 8/8/8 9/9/9
f 8/8/8 10/10/10 9/9/9
f 11/11/11 10/10/10 8/8/8
f 11/11/11 12/12/12 10/10/10
f 13/13/13 9/9/9 10/10/10
f 10/10/10 12/12/12 13/13/13
f 14/14/14 9/9/9 13/13/13
f 14/14/14 13/13/13 15/15/15
f 12/12/12 16/16/16 13/13/13
f 15/15/15 13/13/13 16/16/16
f 17/17/17 16/16/16 12/12/12
f 17/17/17 18/18/18 16/16/16
f 16/16/16 18/18/18 15/15/15
f 15/15/15 18/18/18 19/19/19
f 20/20/20 21/21/21 22/22/22
f 23/56/23 21/21/21 20/20/20
f 22/22/22 21/21/21 24/57/24
f 25/58/25 21/21/21 23/56/23
f 21/21/21 26/23/26 24/57/24
f 25/58/25 27/59/27 21/21/21
f 28/24/28 26/23/26 21/21/21
f 21/21/21 27/59/27 28/24/28
f 29/25/29 30/26/30 31/27/31
f 32/28/32 30/26/30 29/25/29
f 32/28/32 29/25/29 33/29/33
f 33/29/33 29/25/29 34/30/34
f 35/31/35 36/32/36 37/33/37
f 36/32/36 38/34/38 37/33/37
f 39/35/39 38/34/38 36/32/36
f 39/35/39 40/36/40 38/34/38
f 41/37/41 37/33/37 38/34/38
f 38/34/38 40/36/40 41/37/41
f 42/38/42 37/33/37 41/37/41
f 42/38/42 41/37/41 43/39/43
f 40/36/40 44/40/44 41/37/41
f 43/39/43 41/37/41 44/40/44
f 45/41/45 44/40/44 40/36/40
f 45/41/45 46/42/46 44/40/44
f 44/40/44 46/42/46 43/39/43
f 43/39/43 46/42/46 47/43/47
f 48/60/48 49/44/49 50/45/50
f 51/61/51 48/60/48 52/62/52
f 52/62/52 53/46/53 54/63/54
f 55/47/55 48/60/48 51/61/51
f 48/60/48 56/48/56 52/62/52
f 55/47/55 57/64/57 48/60/48
f 58/65/58 59/49/59 60/50/60
f 48/60/48 57/64/57 58/65/58
f 61/51/61 62/52/62 53/46/53
f 53/46/53 62/52/62 63/66/63
f 62/52/62 59/49/59 63/66/63
f 60/50/60 59/49/59 62/52/62
f 54/63/54 63/66/63 64/67/64
f 65/68/65 63/66/63 59/49/59
f 49/44/49 66/53/66 50/45/50
f 56/48/56 66/53/66 67/54/67
f 58/65/58 68/55/68 49/44/49
f 62/52/62 68/55/68 60/50/60
f 62/52/62 67/54/67 66/53/66
f 52/62/52 67/54/67 61/51/61
f 48/60/48 58/65/58 49/44/49
f 52/62/52 61/51/61 53/46/53
f 48/60/48 50/45/50 56/48/56
f 58/65/58 65/68/65 59/49/59
f 54/63/54 53/46/53 63/66/63
f 65/68/65 64/67/64 63/66/63
f 49/44/49 68/55/68 66/53/66
f 56/48/56 50/45/50 66/53/66
f 58/65/58 60/50/60 68/55/68
f 62/52/62 66/53/66 68/55/68
f 62/52/62 61/51/61 67/54/67
f 52/62/52 56/48/56 67/54/67
