# This file uses centimeters as units for non-parametric coordinates.

v -0.000252 0.053517 0.112398
v -0.048206 0.052110 0.019930
v -0.083815 0.047085 0.113074
v -0.001546 0.077183 0.015018
v 0.042825 0.051194 0.018619
v 0.084465 0.047085 0.113075
v -0.000252 0.053517 0.112398
v 0.077270 -0.013703 0.113304
v 0.084465 0.047085 0.113075
v -0.000252 -0.013703 0.112627
v 0.056318 -0.123603 0.113087
v -0.083815 0.047085 0.113074
v -0.000252 -0.131492 0.112411
v -0.074326 -0.028180 0.113304
v -0.052513 -0.103440 0.113087
v 0.084465 0.047085 0.113075
v 0.077270 -0.013703 0.113304
v 0.042825 0.051194 0.018619
v 0.024283 -0.015233 0.017137
v 0.047942 -0.052885 0.009366
v 0.056318 -0.123603 0.113087
v 0.061420 -0.002823 -0.069188
v -0.004599 -0.075431 0.026670
v -0.000252 -0.131492 0.112411
v -0.052513 -0.103440 0.113087
v 0.074193 -0.079055 -0.024399
v 0.060201 -0.063318 -0.061767
v 0.049235 0.027049 -0.091236
v -0.000012 -0.100047 -0.029971
v -0.000252 -0.076077 -0.066713
v -0.043545 -0.079328 -0.032173
v -0.041654 -0.060368 -0.070397
v -0.059644 -0.003339 -0.077166
v -0.071237 -0.048002 0.009971
v -0.074326 -0.028180 0.113304
v -0.074969 -0.009715 0.013167
v -0.083815 0.047085 0.113074
v -0.056453 0.024912 -0.087165
v -0.048206 0.052110 0.019930
v -0.044861 0.040521 -0.083084
v -0.001546 0.077183 0.015018
v 0.000725 0.051393 -0.051555
v 0.042905 0.042184 -0.086862
v -0.045636 0.047585 -0.128014
v -0.056945 0.028319 -0.129964
v 0.039191 0.047287 -0.127913
v 0.050108 0.028018 -0.129818
v -0.006980 0.059666 -0.150142
v -0.005692 0.029405 -0.148535
v -0.006487 0.059885 -0.142207
v -0.006686 0.070467 -0.121526
v -0.003878 0.070957 -0.080628
v 0.000725 0.051393 -0.051555
v -0.005692 0.029405 -0.148535
v 0.050108 0.028018 -0.129818
v 0.001967 0.011099 -0.097651
v -0.056945 0.028319 -0.129964
v 0.049235 0.027049 -0.091236
v -0.056453 0.024912 -0.087165
v -0.000252 -0.002822 -0.077776
v 0.061420 -0.002823 -0.069188
v -0.059644 -0.003339 -0.077166
v 0.060201 -0.063318 -0.061767
v -0.041654 -0.060368 -0.070397
v -0.000252 -0.076077 -0.066713
vt 0.187198 0.307607
vt 0.162905 0.354452
vt 0.144854 0.307256
vt 0.186526 0.356954
vt 0.209003 0.355123
vt 0.230106 0.307256
vt 0.226474 0.307149
vt 0.187198 0.307485
vt 0.215839 0.307256
vt 0.187198 0.307591
vt 0.149660 0.307149
vt 0.160723 0.307256
vt 0.710246 0.023667
vt 0.707195 0.023560
vt 0.692653 0.063523
vt 0.684825 0.064149
vt 0.694835 0.067430
vt 0.698375 0.023651
vt 0.700511 0.100603
vt 0.672633 0.060121
vt 0.674479 0.023926
vt 0.652399 0.023651
vt 0.705913 0.081697
vt 0.699992 0.097490
vt 0.695369 0.109911
vt 0.674586 0.084047
vt 0.674479 0.099580
vt 0.656199 0.084977
vt 0.656992 0.101122
vt 0.649393 0.103990
vt 0.644511 0.067201
vt 0.643198 0.023560
vt 0.642939 0.065843
vt 0.639200 0.023667
vt 0.650752 0.108217
vt 0.654215 0.062989
vt 0.655650 0.106477
vt 0.673930 0.065049
vt 0.674891 0.093172
vt 0.692683 0.108064
vt 0.655314 0.125444
vt 0.650538 0.126268
vt 0.691142 0.125399
vt 0.695735 0.126207
vt 0.671641 0.134783
vt 0.672175 0.134112
vt 0.671855 0.131456
vt 0.671763 0.122698
vt 0.672938 0.105455
vt 0.675425 0.112642
vt 0.674479 0.104234
vt 0.187198 0.307607
vt 0.230106 0.307256
vt 0.144854 0.307256
vt 0.674891 0.093172
vt 0.672175 0.134112
vt 0.695735 0.126207
vt 0.650538 0.126268
vt 0.695369 0.109911
vt 0.650752 0.108217
vt 0.700511 0.100603
vt 0.649393 0.103990
vt 0.699992 0.097490
vt 0.656992 0.101122
vt 0.674479 0.099580
vn -0.076498 0.996769 0.024499
vn -0.076498 0.996769 0.024499
vn -0.076498 0.996769 0.024499
vn -0.444210 0.869220 0.217105
vn 0.482927 0.852348 0.200711
vn 0.075599 0.997088 0.010000
vn -0.007600 0.004700 0.999960
vn -0.007600 0.004700 0.999960
vn -0.007600 0.004700 0.999960
vn -0.008700 0.003400 0.999956
vn -0.008700 -0.000300 0.999962
vn 0.007800 0.003400 0.999964
vn -0.011700 -0.001800 0.999930
vn 0.008300 0.004100 0.999957
vn 0.012000 -0.001800 0.999926
vn 0.907834 -0.109004 -0.404915
vn 0.907834 -0.109004 -0.404915
vn 0.907834 -0.109004 -0.404915
vn 0.854302 -0.228001 -0.467101
vn 0.731063 0.544272 -0.411479
vn 0.962029 -0.183006 -0.202506
vn 0.900203 -0.259101 0.350001
vn 0.161301 -0.809307 -0.564805
vn 0.121996 -0.827876 -0.547484
vn -0.419284 -0.769472 -0.481782
vn 0.836298 0.465799 0.289199
vn 0.925338 -0.064503 -0.373615
vn 0.931996 0.361598 -0.025100
vn 0.273607 -0.845521 -0.458512
vn 0.216191 -0.817065 -0.534477
vn -0.348304 -0.786108 -0.510606
vn -0.284795 -0.853085 -0.437192
vn -0.926696 -0.316398 -0.202799
vn -0.429514 -0.836728 0.339711
vn -0.960152 -0.278386 0.024699
vn -0.935212 -0.304804 -0.180202
vn -0.992004 -0.125100 -0.016700
vn -0.985108 0.053500 -0.163401
vn -0.860625 0.406212 -0.307109
vn -0.787323 0.609318 -0.094103
vn -0.479488 0.870178 -0.113497
vn 0.026801 0.932445 -0.360317
vn -0.101003 0.926529 -0.362411
vn -0.811315 0.575211 0.104402
vn -0.863532 0.501819 0.049902
vn 0.918481 0.393992 -0.034099
vn 0.870974 0.490286 0.031999
vn -0.546295 0.395396 -0.738393
vn -0.338787 -0.064298 -0.938664
vn 0.278299 0.959495 -0.043800
vn 0.361384 0.831464 -0.421982
vn 0.518903 0.853605 -0.045800
vn 0.515295 0.746593 0.420796
vn 0.094100 -0.932199 -0.349500
vn 0.094100 -0.932199 -0.349500
vn 0.094100 -0.932199 -0.349500
vn -0.097397 -0.941068 -0.323889
vn 0.321699 -0.946698 -0.016500
vn -0.242102 -0.967409 -0.074201
vn 0.335989 -0.788674 -0.514883
vn 0.114304 -0.559322 -0.821032
vn -0.006800 -0.333001 -0.942902
vn 0.136897 -0.123298 -0.982882
vn -0.009100 -0.120706 -0.992647
vn 0.111700 -0.148400 -0.982599
f 1/1/1 2/2/2 3/3/3
f 4/4/4 2/2/2 1/1/1
f 4/4/4 1/1/1 5/5/5
f 5/5/5 1/1/1 6/6/6
f 7/52/7 8/7/8 9/53/9
f 10/8/10 8/7/8 7/52/7
f 10/8/10 11/9/11 8/7/8
f 12/54/12 10/8/10 7/52/7
f 13/10/13 11/9/11 10/8/10
f 14/11/14 10/8/10 12/54/12
f 13/10/13 10/8/10 15/12/15
f 15/12/15 10/8/10 14/11/14
f 16/13/16 17/14/17 18/15/18
f 18/15/18 17/14/17 19/16/19
f 17/14/17 20/17/20 19/16/19
f 21/18/21 20/17/20 17/14/17
f 19/16/19 22/19/22 18/15/18
f 20/17/20 21/18/21 23/20/23
f 23/20/23 21/18/21 24/21/24
f 25/22/25 23/20/23 24/21/24
f 20/17/20 26/23/26 19/16/19
f 19/16/19 26/23/26 22/19/22
f 22/19/22 26/23/26 27/24/27
f 18/15/18 22/19/22 28/25/28
f 29/26/29 27/24/27 26/23/26
f 26/23/26 20/17/20 29/26/29
f 29/26/29 20/17/20 23/20/23
f 30/27/30 27/24/27 29/26/29
f 31/28/31 30/27/30 29/26/29
f 29/26/29 23/20/23 31/28/31
f 32/29/32 30/27/30 31/28/31
f 31/28/31 33/30/33 32/29/32
f 31/28/31 23/20/23 34/31/34
f 34/31/34 23/20/23 25/22/25
f 25/22/25 35/32/35 34/31/34
f 31/28/31 36/33/36 33/30/33
f 34/31/34 36/33/36 31/28/31
f 34/31/34 35/32/35 36/33/36
f 35/32/35 37/34/37 36/33/36
f 36/33/36 38/35/38 33/30/33
f 36/33/36 37/34/37 39/36/39
f 39/36/39 38/35/38 36/33/36
f 39/36/39 40/37/40 38/35/38
f 39/36/39 41/38/41 40/37/40
f 40/37/40 41/38/41 42/39/42
f 41/38/41 43/40/43 42/39/42
f 41/38/41 18/15/18 43/40/43
f 43/40/43 18/15/18 28/25/28
f 40/37/40 44/41/44 38/35/38
f 38/35/38 44/41/44 45/42/45
f 43/40/43 28/25/28 46/43/46
f 46/43/46 28/25/28 47/44/47
f 45/42/45 44/41/44 48/45/48
f 48/45/48 46/43/46 47/44/47
f 45/42/45 48/45/48 49/46/49
f 48/45/48 47/44/47 49/46/49
f 50/47/50 46/43/46 48/45/48
f 48/45/48 44/41/44 50/47/50
f 51/48/51 46/43/46 50/47/50
f 44/41/44 51/48/51 50/47/50
f 51/48/51 43/40/43 46/43/46
f 40/37/40 51/48/51 44/41/44
f 52/49/52 43/40/43 51/48/51
f 52/49/52 51/48/51 40/37/40
f 53/55/53 43/40/43 52/49/52
f 40/37/40 53/55/53 52/49/52
f 54/56/54 55/57/55 56/50/56
f 56/50/56 57/58/57 54/56/54
f 56/50/56 55/57/55 58/59/58
f 59/60/59 57/58/57 56/50/56
f 56/50/56 58/59/58 60/51/60
f 56/50/56 60/51/60 59/60/59
f 60/51/60 58/59/58 61/61/61
f 59/60/59 60/51/60 62/62/62
f 61/61/61 63/63/63 60/51/60
f 62/62/62 60/51/60 64/64/64
f 60/51/60 63/63/63 65/65/65
f 64/64/64 60/51/60 65/65/65
