# This file uses centimeters as units for non-parametric coordinates.

v -0.091788 -0.006020 -0.090503
v -0.053521 0.026570 -0.109325
v -0.040366 0.002242 -0.104656
v 0.005424 0.089396 -0.080311
v -0.025380 0.054191 -0.106374
v -0.019958 0.090452 -0.091480
v -0.118278 0.111979 -0.026605
v -0.075600 0.124924 -0.056064
v -0.110629 0.107005 -0.052115
v -0.132181 0.019004 -0.064794
v -0.091212 0.020514 -0.098951
v -0.001973 0.039924 -0.100631
v -0.070489 0.136426 -0.031993
v -0.039792 0.118387 -0.071611
v -0.142642 0.065606 -0.039559
v -0.120819 0.038857 -0.080107
v -0.021635 0.127507 -0.053204
v 0.032170 -0.120379 0.033259
v 0.079339 -0.069233 0.087719
v 0.034492 -0.113252 0.083017
v 0.061344 0.074726 0.113399
v -0.000696 0.043495 0.167897
v 0.056372 0.033076 0.143121
v -0.110835 -0.094271 0.095346
v -0.084982 -0.039233 0.159060
v -0.127129 -0.021687 0.134651
v 0.103489 0.015366 0.071178
v 0.087980 -0.011443 0.111456
v -0.056521 0.014938 0.174192
v -0.089181 0.050541 0.154828
v -0.025578 -0.122903 0.099550
v -0.047923 -0.133247 0.055303
v 0.091967 -0.061687 0.039529
v -0.014748 0.088618 0.146434
v -0.072761 -0.093671 0.129582
v -0.128487 0.073015 -0.061610
vt 0.064603 0.538380
vt 0.086021 0.541840
vt 0.087545 0.532802
vt 0.106671 0.528555
vt 0.096688 0.538592
vt 0.099479 0.538578
vt 0.054109 0.543286
vt 0.077263 0.545912
vt 0.061513 0.549520
vt 0.046917 0.543317
vt 0.069232 0.545941
vt 0.102854 0.528570
vt 0.075596 0.538350
vt 0.090964 0.541248
vt 0.042773 0.545226
vt 0.056259 0.549536
vt 0.095065 0.532194
vt 0.075216 0.452538
vt 0.090348 0.440915
vt 0.071286 0.444559
vt 0.088119 0.450783
vt 0.057330 0.449914
vt 0.082578 0.444514
vt 0.011545 0.462079
vt 0.016059 0.447358
vt 0.005080 0.465091
vt 0.106218 0.442166
vt 0.094805 0.437936
vt 0.029302 0.445077
vt 0.022724 0.462034
vt 0.041965 0.444419
vt 0.039502 0.457166
vt 0.100266 0.442182
vt 0.056604 0.460040
vt 0.020901 0.445106
vt 0.053226 0.550968
vn -0.209794 -0.292491 -0.932971
vn -0.209794 -0.292491 -0.932971
vn -0.209794 -0.292491 -0.932971
vn 0.394811 0.297908 -0.869123
vn 0.394811 0.297908 -0.869123
vn 0.394811 0.297908 -0.869123
vn -0.460997 0.834795 -0.300998
vn -0.460997 0.834795 -0.300998
vn -0.460997 0.834795 -0.300998
vn -0.618865 -0.226087 -0.752257
vn -0.618865 -0.226087 -0.752257
vn 0.187396 -0.086398 -0.978478
vn -0.020600 0.903784 -0.427493
vn -0.020600 0.903784 -0.427493
vn -0.851499 0.088700 -0.516799
vn -0.851499 0.088700 -0.516799
vn 0.315883 0.688562 -0.652764
vn 0.694992 -0.715592 0.070099
vn 0.694992 -0.715592 0.070099
vn 0.694992 -0.715592 0.070099
vn 0.420593 0.493192 0.761487
vn 0.420593 0.493192 0.761487
vn 0.420593 0.493192 0.761487
vn -0.580626 -0.484622 0.654229
vn -0.580626 -0.484622 0.654229
vn -0.580626 -0.484622 0.654229
vn 0.837285 0.247796 0.487392
vn 0.837285 0.247796 0.487392
vn -0.495511 0.017800 0.868419
vn -0.495511 0.017800 0.868419
vn 0.192191 -0.972656 0.130394
vn 0.192191 -0.972656 0.130394
vn 0.949735 -0.229508 0.212908
vn -0.102498 0.401093 0.910285
vn 0.302389 -0.400486 0.864969
vn -0.791538 0.509924 -0.336816
f 1/1/1 2/2/2 3/3/3
f 4/4/4 5/5/5 6/6/6
f 7/7/7 8/8/8 9/9/9
f 10/10/10 11/11/11 1/1/1
f 12/12/12 2/2/2 5/5/5
f 13/13/13 14/14/14 8/8/8
f 15/15/15 16/16/16 10/10/10
f 17/17/17 6/6/6 14/14/14
f 14/14/14 6/6/6 16/16/16
f 18/18/18 19/19/19 20/20/20
f 21/21/21 22/22/22 23/23/23
f 24/24/24 25/25/25 26/26/26
f 27/27/27 23/23/23 28/28/28
f 26/26/26 29/29/29 30/30/30
f 18/18/18 31/31/31 32/32/32
f 33/33/33 28/28/28 19/19/19
f 34/34/34 29/29/29 22/22/22
f 35/35/35 31/31/31 28/28/28
f 32/32/32 35/35/35 24/24/24
f 7/7/7 36/36/36 15/15/15
f 34/34/34 7/7/7 30/30/30
f 27/27/27 12/12/12 4/4/4
f 18/18/18 1/1/1 3/3/3
f 30/30/30 15/15/15 26/26/26
f 21/21/21 4/4/4 17/17/17
f 26/26/26 10/10/10 24/24/24
f 34/34/34 17/17/17 13/13/13
f 33/33/33 3/3/3 12/12/12
f 24/24/24 1/1/1 32/32/32
f 1/1/1 11/11/11 2/2/2
f 4/4/4 12/12/12 5/5/5
f 7/7/7 13/13/13 8/8/8
f 10/10/10 16/16/16 11/11/11
f 12/12/12 3/3/3 2/2/2
f 13/13/13 17/17/17 14/14/14
f 15/15/15 36/36/36 16/16/16
f 17/17/17 4/4/4 6/6/6
f 6/6/6 5/5/5 11/11/11
f 5/5/5 2/2/2 11/11/11
f 11/11/11 16/16/16 6/6/6
f 16/16/16 36/36/36 14/14/14
f 36/36/36 9/9/9 8/8/8
f 14/14/14 36/36/36 8/8/8
f 18/18/18 33/33/33 19/19/19
f 21/21/21 34/34/34 22/22/22
f 24/24/24 35/35/35 25/25/25
f 27/27/27 21/21/21 23/23/23
f 26/26/26 25/25/25 29/29/29
f 18/18/18 20/20/20 31/31/31
f 33/33/33 27/27/27 28/28/28
f 34/34/34 30/30/30 29/29/29
f 20/20/20 19/19/19 31/31/31
f 19/19/19 28/28/28 31/31/31
f 28/28/28 23/23/23 35/35/35
f 23/23/23 22/22/22 25/25/25
f 22/22/22 29/29/29 25/25/25
f 25/25/25 35/35/35 23/23/23
f 32/32/32 31/31/31 35/35/35
f 7/7/7 9/9/9 36/36/36
f 34/34/34 13/13/13 7/7/7
f 27/27/27 33/33/33 12/12/12
f 18/18/18 32/32/32 1/1/1
f 30/30/30 7/7/7 15/15/15
f 21/21/21 27/27/27 4/4/4
f 26/26/26 15/15/15 10/10/10
f 34/34/34 21/21/21 17/17/17
f 33/33/33 18/18/18 3/3/3
f 24/24/24 10/10/10 1/1/1
