# This file uses centimeters as units for non-parametric coordinates.

v -0.018551 0.107243 0.153216
v -0.010170 0.111025 0.151936
v 0.001627 0.107595 0.152587
v -0.027963 0.080151 0.061954
v -0.017200 0.088038 0.056880
v -0.002741 0.078718 0.060840
v 0.007233 0.054356 -0.094991
v 0.027281 0.063287 -0.095579
v 0.047102 0.050390 -0.103272
v -0.001276 0.007984 -0.098796
v 0.062102 0.002154 -0.149947
v 0.078565 0.005091 -0.096606
v 0.010610 -0.058857 -0.097381
v 0.048453 -0.076512 -0.095865
v 0.076795 -0.064885 -0.094670
v -0.030240 -0.017648 0.105904
v -0.012790 -0.030878 0.112138
v 0.004193 -0.020244 0.107585
v -0.016498 0.035171 0.187477
v -0.006234 0.025491 0.191907
v 0.002814 0.029779 0.189074
v -0.000739 0.094050 0.217098
v 0.007197 0.096464 0.222300
v 0.016471 0.093671 0.216591
v -0.006358 0.030505 0.085997
v -0.034960 0.029002 0.084302
v -0.010372 0.002420 -0.046261
v -0.005053 0.070102 -0.045941
v 0.008332 0.081203 -0.045175
v 0.030390 0.066798 -0.043983
v 0.035009 0.000588 -0.043735
v 0.035895 -0.064298 -0.043657
v 0.017040 -0.077338 -0.044709
v -0.004176 -0.054261 -0.045892
v 0.033222 0.044293 -0.118402
v 0.017497 0.035973 -0.118373
v 0.018987 0.004421 -0.138068
v 0.019501 -0.045705 -0.120005
v 0.060508 -0.061205 -0.116568
v 0.078378 -0.050046 -0.113947
v 0.079031 0.003130 -0.126228
v 0.058895 0.036450 -0.121369
v -0.024870 0.068848 0.167979
v -0.001815 0.071021 0.170328
vt 0.308953 0.687830
vt 0.298508 0.701116
vt 0.269098 0.708164
vt 0.271122 0.685849
vt 0.240616 0.697901
vt 0.233143 0.685045
vt 0.267961 0.655999
vt 0.306419 0.655817
vt 0.235754 0.655789
vt 0.283065 0.581812
vt 0.312129 0.594510
vt 0.312726 0.655381
vt 0.314028 0.688164
vt 0.256558 0.569537
vt 0.223111 0.684184
vt 0.222642 0.655117
vt 0.305706 0.534266
vt 0.327522 0.542654
vt 0.316610 0.597393
vt 0.286571 0.523187
vt 0.249041 0.565995
vt 0.320026 0.506355
vt 0.329671 0.543381
vt 0.281070 0.520669
vt 0.321398 0.503400
vt 0.586089 0.507195
vt 0.594137 0.517643
vt 0.555370 0.517518
vt 0.554238 0.500417
vt 0.590993 0.547897
vt 0.552771 0.548040
vt 0.514974 0.518636
vt 0.523540 0.507508
vt 0.553675 0.486725
vt 0.589666 0.500727
vt 0.597875 0.608410
vt 0.570042 0.622933
vt 0.515313 0.548085
vt 0.517098 0.505995
vt 0.614545 0.661375
vt 0.593431 0.671617
vt 0.540745 0.635395
vt 0.599309 0.547209
vt 0.603255 0.606124
vt 0.606507 0.698324
vt 0.569623 0.682438
vt 0.534606 0.638024
vt 0.507785 0.547478
vt 0.567147 0.684074
vt 0.748008 0.847215
vt 0.754694 0.846846
vt 0.752219 0.898844
vt 0.744024 0.901089
vt 0.757851 0.807335
vt 0.763107 0.810571
vt 0.753353 0.810283
vt 0.743258 0.846489
vt 0.489256 0.012173
vt 0.488314 0.023647
vt 0.471443 0.022936
vt 0.478619 0.010612
vt 0.463968 0.054013
vt 0.452744 0.053387
vt 0.448917 0.022034
vt 0.454209 0.008566
vt 0.822363 0.918827
vt 0.835292 0.918128
vt 0.853961 0.948848
vt 0.835325 0.952645
vt 0.860874 0.959457
vt 0.838808 0.966024
vt 0.823573 0.952301
vt 0.829590 0.966007
vt 0.445237 0.914422
vt 0.450599 0.916963
vt 0.458690 0.954819
vt 0.453195 0.956474
vt 0.625568 0.857438
vt 0.601606 0.856178
vt 0.602538 0.827413
vt 0.611277 0.822789
vt 0.624682 0.892650
vt 0.601892 0.884036
vn -0.835190 0.539590 0.106306
vn -0.121095 0.992159 -0.030940
vn -0.854126 0.492042 -0.168413
vn -0.194832 0.965115 -0.174909
vn 0.845954 0.527888 -0.075476
vn 0.813671 0.580552 0.029989
vn -0.813630 0.513123 -0.273335
vn 0.008648 0.980912 -0.194258
vn 0.795005 0.598281 0.100138
vn -0.695571 0.529725 -0.485358
vn -0.615225 0.428434 -0.661773
vn -0.932907 0.002561 -0.360108
vn -0.571249 0.171708 -0.802615
vn 0.683791 0.727691 -0.053814
vn 0.925083 0.289446 0.245850
vn 0.603716 0.694713 -0.391025
vn 0.923573 0.237955 -0.300649
vn -0.723605 -0.583219 -0.369124
vn -0.496210 -0.481776 -0.722266
vn 0.058646 -0.964940 -0.255836
vn 0.204033 -0.681390 -0.702907
vn 0.857368 -0.303223 -0.415903
vn 0.829273 -0.536580 0.156168
vn -0.898320 -0.406222 0.167346
vn -0.887972 -0.447870 -0.104491
vn -0.223599 -0.905437 0.360816
vn -0.053452 -0.989075 0.137383
vn 0.846874 -0.421860 0.323787
vn 0.724346 -0.557894 0.405065
vn -0.156437 -0.627709 0.762568
vn -0.879788 -0.193077 0.434390
vn 0.896253 -0.297903 0.328610
vn -0.741675 0.308032 0.595848
vn 0.154798 0.467498 0.870335
vn 0.988427 0.085782 0.125113
vn 0.981021 -0.074657 -0.178951
vn 0.995945 0.072358 0.053462
vn 0.905459 0.136673 0.401826
vn -0.965704 0.085297 0.245234
vn -0.999785 0.010436 0.017910
vn -0.982461 0.001343 -0.186462
vn 0.146703 0.897418 -0.416075
vn -0.083919 0.685405 -0.723310
vn 0.260693 0.047534 -0.964251
f 1/18/1 2/23/2 4/11/3
f 4/11/3 2/23/2 5/19/4
f 3/51/5 6/52/6 2/50/2
f 2/50/2 6/52/6 5/53/4
f 4/11/3 5/19/4 28/8/7
f 28/8/7 5/19/4 29/12/8
f 5/44/4 6/36/6 29/43/8
f 29/43/8 6/36/6 30/30/9
f 7/1/10 36/2/11 10/4/12
f 10/4/12 36/2/11 37/3/13
f 9/27/14 12/28/15 42/26/16
f 42/26/16 12/28/15 41/29/17
f 13/64/18 38/65/19 14/60/20
f 14/60/20 38/65/19 39/61/21
f 40/58/22 15/59/23 39/61/21
f 39/61/21 15/59/23 14/60/20
f 16/14/24 34/9/25 17/21/26
f 17/21/26 34/9/25 33/16/27
f 17/47/26 33/48/27 18/42/28
f 18/42/28 33/48/27 32/38/29
f 17/21/26 20/24/30 16/14/24
f 16/14/24 20/24/30 19/20/31
f 17/47/26 18/42/28 20/49/30
f 20/49/30 18/42/28 21/46/32
f 19/20/31 20/24/30 22/22/33
f 22/22/33 20/24/30 23/25/34
f 20/74/30 21/75/32 23/77/34
f 23/77/34 21/75/32 24/76/35
f 23/54/34 2/50/2 22/56/33
f 22/56/33 2/50/2 1/57/1
f 24/55/35 3/51/5 23/54/34
f 23/54/34 3/51/5 2/50/2
f 44/41/36 21/46/32 25/37/37
f 25/37/37 21/46/32 18/42/28
f 44/41/36 25/37/37 3/40/5
f 3/40/5 25/37/37 6/36/6
f 25/37/37 18/42/28 31/31/38
f 31/31/38 18/42/28 32/38/29
f 25/37/37 31/31/38 6/36/6
f 6/36/6 31/31/38 30/30/9
f 43/17/39 26/10/40 19/20/31
f 19/20/31 26/10/40 16/14/24
f 43/17/39 1/18/1 26/10/40
f 26/10/40 1/18/1 4/11/3
f 26/10/40 27/7/41 16/14/24
f 16/14/24 27/7/41 34/9/25
f 26/10/40 4/11/3 27/7/41
f 27/7/41 4/11/3 28/8/7
f 28/8/7 29/12/8 7/1/10
f 7/1/10 29/12/8 8/13/42
f 28/8/7 7/1/10 27/7/41
f 27/7/41 7/1/10 10/4/12
f 27/7/41 10/4/12 34/9/25
f 34/9/25 10/4/12 13/6/18
f 14/15/20 33/16/27 13/6/18
f 13/6/18 33/16/27 34/9/25
f 15/59/23 32/62/29 14/60/20
f 14/60/20 32/62/29 33/63/27
f 32/38/29 15/32/23 31/31/38
f 31/31/38 15/32/23 12/28/15
f 30/30/9 31/31/38 9/27/14
f 9/27/14 31/31/38 12/28/15
f 29/66/8 30/67/9 8/69/42
f 8/69/42 30/67/9 9/68/14
f 8/69/42 35/71/43 7/72/10
f 7/72/10 35/71/43 36/73/11
f 41/29/17 12/28/15 40/33/22
f 40/33/22 12/28/15 15/32/23
f 37/3/13 38/5/19 10/4/12
f 10/4/12 38/5/19 13/6/18
f 8/69/42 9/68/14 35/71/43
f 35/71/43 9/68/14 42/70/16
f 11/78/44 37/79/13 35/81/43
f 35/81/43 37/79/13 36/80/11
f 39/82/21 38/83/19 11/78/44
f 11/78/44 38/83/19 37/79/13
f 39/39/21 11/34/44 40/33/22
f 40/33/22 11/34/44 41/29/17
f 41/29/17 11/34/44 42/26/16
f 42/26/16 11/34/44 35/35/43
f 19/20/31 22/22/33 43/17/39
f 22/22/33 1/18/1 43/17/39
f 3/40/5 24/45/35 44/41/36
f 24/45/35 21/46/32 44/41/36
