# This file uses centimeters as units for non-parametric coordinates.

v -0.025185 0.073854 -0.030765
v -0.013941 0.083326 -0.033475
v 0.000321 0.073854 -0.030693
v -0.025185 -0.031113 -0.030902
v -0.013941 -0.040703 -0.033769
v 0.000321 -0.031330 -0.030546
v -0.012957 0.008464 0.085382
v -0.016870 0.011790 0.079799
v -0.016870 0.048248 0.079799
v -0.012957 0.051544 0.085382
v -0.007995 0.048248 0.079799
v -0.007995 0.011763 0.079799
v -0.019634 -0.008120 -0.059933
v -0.013285 -0.013613 -0.068993
v -0.005230 -0.008223 -0.059933
v -0.005230 0.051002 -0.059933
v -0.013285 0.056351 -0.068993
v -0.019634 0.051002 -0.059933
v 0.003744 0.018621 -0.041035
v -0.018061 0.028152 0.099021
v -0.006804 0.027305 0.099021
v -0.003297 0.019340 -0.078221
v -0.021568 0.020715 -0.078221
v -0.028609 0.021057 -0.041312
v -0.013513 0.020168 -0.089714
v -0.013098 0.027743 0.106102
vt 0.060910 0.329007
vt 0.065963 0.323524
vt 0.086998 0.342832
vt 0.075339 0.351984
vt 0.062248 0.325581
vt 0.085665 0.339753
vt 0.055977 0.376684
vt 0.061668 0.373436
vt 0.040000 0.356391
vt 0.040697 0.357553
vt 0.064539 0.361830
vt 0.037123 0.343451
vt 0.014038 0.315602
vt 0.028946 0.300325
vt 0.032558 0.296964
vt 0.016691 0.313422
vt 0.021641 0.308660
vt 0.034407 0.295552
vt 0.049116 0.334921
vt 0.020754 0.308720
vt 0.027164 0.302989
vt 0.074409 0.351516
vt 0.065360 0.364715
vt 0.050693 0.343436
vt 0.073873 0.358690
vt 0.023846 0.306000
vn -0.893364 0.424396 -0.147611
vn -0.064225 0.977193 -0.202407
vn -0.871459 0.327018 -0.365539
vn -0.052031 0.626037 -0.778056
vn 0.869947 0.467856 -0.155894
vn 0.840027 0.365925 -0.400567
vn -0.066183 -0.643414 -0.762652
vn -0.066640 -0.948231 -0.310510
vn -0.872501 -0.327194 -0.362886
vn -0.891565 -0.451438 -0.036272
vn 0.836185 -0.378072 -0.397311
vn 0.856394 -0.515332 -0.031964
vn 0.997163 -0.013621 -0.074029
vn 0.884233 -0.017899 -0.466704
vn -0.997151 -0.006573 -0.075147
vn -0.915647 -0.004415 -0.401960
vn -0.889266 0.414773 0.192796
vn -0.050666 0.810864 0.583037
vn 0.857725 0.465887 0.217388
vn 0.915721 -0.047154 0.399039
vn -0.068442 -0.850087 0.522177
vn -0.933006 -0.302013 0.195672
vn -0.940403 -0.026219 0.339050
vn -0.083806 -0.073424 0.993773
vn 0.908259 -0.355221 0.221095
vn -0.067527 -0.019696 -0.997523
f 1/1/1 2/2/2 18/4/3
f 18/4/3 2/2/2 17/3/4
f 3/5/5 16/6/6 2/2/2
f 2/2/2 16/6/6 17/3/4
f 14/8/7 5/9/8 13/7/9
f 13/7/9 5/9/8 4/10/10
f 14/8/7 15/11/11 5/9/8
f 5/9/8 15/11/11 6/12/12
f 3/5/5 19/19/13 16/6/6
f 16/6/6 19/19/13 22/22/14
f 4/10/10 24/24/15 13/7/9
f 13/7/9 24/24/15 23/23/16
f 1/1/1 9/14/17 2/2/2
f 2/2/2 9/14/17 10/15/18
f 3/5/5 2/2/2 11/18/19
f 11/18/19 2/2/2 10/15/18
f 21/21/20 19/19/13 11/18/19
f 11/18/19 19/19/13 3/5/5
f 5/9/8 7/16/21 4/10/10
f 4/10/10 7/16/21 8/13/22
f 9/14/17 20/20/23 10/15/18
f 10/15/18 20/20/23 26/26/24
f 12/17/25 7/16/21 6/12/12
f 6/12/12 7/16/21 5/9/8
f 4/10/10 8/13/22 24/24/15
f 24/24/15 8/13/22 20/20/23
f 25/25/26 23/23/16 17/3/4
f 17/3/4 23/23/16 18/4/3
f 16/6/6 22/22/14 17/3/4
f 17/3/4 22/22/14 25/25/26
f 26/26/24 21/21/20 10/15/18
f 10/15/18 21/21/20 11/18/19
f 22/22/14 19/19/13 15/11/11
f 15/11/11 19/19/13 6/12/12
f 23/23/16 24/24/15 18/4/3
f 18/4/3 24/24/15 1/1/1
f 21/21/20 12/17/25 19/19/13
f 19/19/13 12/17/25 6/12/12
f 26/26/24 20/20/23 7/16/21
f 7/16/21 20/20/23 8/13/22
f 20/20/23 9/14/17 24/24/15
f 24/24/15 9/14/17 1/1/1
f 25/25/26 14/8/7 23/23/16
f 23/23/16 14/8/7 13/7/9
f 25/25/26 22/22/14 14/8/7
f 14/8/7 22/22/14 15/11/11
f 26/26/24 7/16/21 21/21/20
f 21/21/20 7/16/21 12/17/25
