# This file uses centimeters as units for non-parametric coordinates.

v -0.072540 0.042503 0.117073
v -0.001504 0.048374 0.118372
v 0.074261 0.045746 0.114798
v -0.057127 0.020810 0.031902
v -0.000756 0.044951 0.014828
v 0.022404 0.018712 0.026747
v -0.022983 0.008930 -0.106435
v -0.004445 0.023868 -0.110581
v -0.024728 -0.007176 -0.107822
v 0.017805 -0.004601 -0.109409
v 0.000535 -0.021131 -0.105569
v -0.034697 0.003458 0.025851
v -0.002859 -0.008563 -0.014196
v -0.059398 0.002749 0.113746
v -0.001641 -0.010943 0.112757
v 0.060877 -0.007092 0.113746
v -0.083368 0.008498 0.119696
v -0.001504 0.015564 0.118707
v 0.066309 0.016075 0.115133
v 0.033709 0.004162 0.019267
v -0.040288 0.010081 0.032187
v 0.009677 0.014651 -0.107025
v -0.059777 0.039950 0.052638
v 0.058885 0.039701 0.055277
v -0.059576 -0.002924 0.062094
v -0.004780 -0.012091 0.062448
v 0.046066 -0.008424 0.063939
v 0.043905 0.005531 0.066761
v -0.071064 0.003870 0.064023
v -0.000659 0.046175 0.054559
v -0.012758 -0.019288 -0.099585
v -0.005291 -0.005999 -0.182014
v -0.005370 0.012015 -0.180221
vt 0.688423 0.812311
vt 0.692320 0.810808
vt 0.714323 0.863826
vt 0.681091 0.868864
vt 0.687309 0.781367
vt 0.680284 0.811304
vt 0.662663 0.865703
vt 0.679693 0.780609
vt 0.707674 0.880926
vt 0.664397 0.885781
vt 0.646546 0.851556
vt 0.673296 0.812927
vt 0.715330 0.906089
vt 0.677752 0.906231
vt 0.646723 0.884588
vt 0.642078 0.883958
vt 0.648409 0.905644
vt 0.559784 0.712120
vt 0.606169 0.713314
vt 0.602687 0.742652
vt 0.553472 0.737468
vt 0.576579 0.752093
vt 0.561944 0.751964
vt 0.551943 0.714829
vt 0.544205 0.738346
vt 0.579009 0.815080
vt 0.571676 0.815711
vt 0.552910 0.754848
vt 0.609508 0.759867
vt 0.585810 0.816967
vt 0.580414 0.848675
vt 0.572212 0.849492
vt 0.566161 0.811961
vt 0.536512 0.773082
vt 0.531700 0.738185
vt 0.565322 0.814685
vt 0.408445 0.084905
vt 0.408609 0.051179
vt 0.432011 0.049248
vt 0.432471 0.084796
vt 0.409303 0.019884
vt 0.432471 0.010769
vt 0.037224 0.887466
vt 0.038122 0.924019
vt 0.008011 0.931911
vt 0.007404 0.887989
vt 0.055791 0.887526
vt 0.047812 0.922381
vt 0.036889 0.850649
vt 0.009074 0.841142
vt 0.237358 0.936757
vt 0.241406 0.892070
vt 0.244565 0.933513
vt 0.894096 0.955038
vt 0.883071 0.934497
vt 0.904415 0.934448
vt 0.898725 0.963562
vt 0.886171 0.912263
vt 0.904827 0.910331
vt 0.930835 0.934448
vt 0.926107 0.959711
vt 0.928718 0.907503
vt 0.346848 0.975496
vt 0.334859 0.944742
vt 0.334909 0.943307
vt 0.365733 0.950896
vn -0.790873 0.334034 -0.512778
vn 0.130020 0.983757 -0.123763
vn -0.904291 0.388452 -0.177098
vn -0.045328 0.985138 -0.165678
vn 0.762430 0.631720 -0.140108
vn 0.759146 0.569636 -0.314978
vn 0.300610 -0.953217 -0.031804
vn 0.157090 -0.987568 -0.005643
vn -0.384786 -0.922876 -0.015487
vn -0.570728 -0.808527 -0.143365
vn 0.974381 0.049364 -0.219418
vn 0.933650 -0.327505 -0.145044
vn -0.139183 -0.989633 -0.035432
vn -0.486707 -0.825300 -0.286349
vn 0.938055 -0.015666 -0.346132
vn 0.616259 -0.761353 -0.201411
vn -0.033921 -0.860233 0.508772
vn 0.016880 -0.146453 0.989074
vn -0.211628 -0.892094 0.399227
vn -0.477744 -0.526856 0.702982
vn 0.729320 -0.475987 0.491457
vn 0.773844 -0.264911 0.575316
vn -0.668855 0.539115 0.511848
vn 0.006901 0.822294 0.569021
vn 0.714203 0.517020 0.471810
vn 0.748629 0.423812 -0.509840
vn -0.826769 -0.459069 -0.325128
vn -0.530053 0.786424 -0.317144
vn -0.760126 -0.538692 -0.363345
vn -0.929826 -0.338269 -0.144904
vn 0.074783 0.957725 -0.277797
vn -0.078788 -0.904793 -0.418500
vn -0.064331 0.863525 -0.500186
f 4/22/1 5/29/2 7/26/3
f 7/26/3 5/29/2 8/30/4
f 8/2/4 5/3/2 22/1/5
f 22/1/5 5/3/2 6/4/6
f 11/36/7 13/34/8 31/33/9
f 31/33/9 13/34/8 12/28/10
f 20/7/11 13/11/8 10/6/12
f 10/6/12 13/11/8 11/12/7
f 13/34/8 26/35/13 12/28/10
f 12/28/10 26/35/13 25/25/14
f 28/10/15 27/15/16 20/7/11
f 26/16/13 13/11/8 27/15/16
f 27/15/16 13/11/8 20/7/11
f 15/55/17 18/56/18 14/54/19
f 14/54/19 18/56/18 17/57/20
f 15/55/17 16/58/21 18/56/18
f 18/56/18 16/58/21 19/59/22
f 17/57/20 18/56/18 1/61/23
f 1/61/23 18/56/18 2/60/24
f 18/56/18 19/59/22 2/60/24
f 2/60/24 19/59/22 3/62/25
f 19/14/22 16/17/21 28/10/15
f 28/10/15 16/17/21 27/15/16
f 3/13/25 19/14/22 24/9/26
f 24/9/26 19/14/22 28/10/15
f 17/18/20 29/21/27 14/24/19
f 14/24/19 29/21/27 25/25/14
f 17/18/20 1/19/23 29/21/27
f 29/21/27 1/19/23 23/20/28
f 21/23/29 9/27/30 12/28/10
f 12/28/10 9/27/30 31/33/9
f 4/22/1 7/26/3 21/23/29
f 21/23/29 7/26/3 9/27/30
f 5/47/2 4/48/1 30/43/31
f 30/43/31 4/48/1 23/44/28
f 5/64/2 30/65/31 6/63/6
f 6/63/6 30/65/31 24/66/26
f 10/6/12 22/1/5 20/7/11
f 20/7/11 22/1/5 6/4/6
f 25/37/14 26/38/13 14/40/19
f 14/40/19 26/38/13 15/39/17
f 26/38/13 27/41/16 15/39/17
f 15/39/17 27/41/16 16/42/21
f 24/9/26 28/10/15 6/4/6
f 6/4/6 28/10/15 20/7/11
f 29/21/27 21/23/29 25/25/14
f 25/25/14 21/23/29 12/28/10
f 23/20/28 4/22/1 29/21/27
f 29/21/27 4/22/1 21/23/29
f 30/43/31 23/44/28 2/46/24
f 2/46/24 23/44/28 1/45/23
f 30/43/31 2/46/24 24/49/26
f 24/49/26 2/46/24 3/50/25
f 11/12/7 32/8/32 10/6/12
f 22/1/5 33/5/33 8/2/4
f 32/8/32 33/5/33 10/6/12
f 10/6/12 33/5/33 22/1/5
f 9/27/30 32/32/32 31/33/9
f 7/26/3 33/31/33 9/27/30
f 9/27/30 33/31/33 32/32/32
f 8/30/4 33/31/33 7/26/3
f 31/51/9 32/52/32 11/53/7
