# This file uses centimeters as units for non-parametric coordinates.

v -0.048757 -0.023296 0.048956
v -0.000978 -0.019619 0.048570
v 0.047461 -0.023296 0.048957
v -0.040916 -0.017561 0.010968
v -0.000978 -0.001847 -0.002875
v 0.041994 -0.017561 0.010968
v -0.101574 0.057921 0.048957
v -0.001376 0.127522 0.048570
v -0.001376 0.117863 0.020611
v -0.075953 0.048262 0.020611
v 0.100278 0.057921 0.048957
v 0.079891 0.048262 0.020611
v 0.044555 -0.033422 0.033716
v -0.001129 -0.023738 0.026719
v -0.044511 -0.033096 0.031558
v -0.022341 -0.031319 0.048743
v -0.023559 -0.018906 0.004952
v -0.051958 0.109299 0.048734
v -0.047934 0.089741 0.020611
v -0.020824 -0.039244 0.028916
v 0.024914 -0.030956 0.048777
v 0.023253 -0.018186 0.004931
v 0.057010 0.103712 0.048761
v 0.050682 0.087651 0.020611
v 0.021786 -0.039187 0.030229
vt 0.690665 0.281550
vt 0.703704 0.290641
vt 0.698177 0.328370
vt 0.681929 0.333907
vt 0.698177 0.350948
vt 0.682041 0.360154
vt 0.681929 0.287354
vt 0.118788 0.201185
vt 0.118674 0.166621
vt 0.135340 0.170367
vt 0.135340 0.201185
vt 0.135340 0.228748
vt 0.118691 0.231130
vt 0.118559 0.260503
vt 0.135340 0.245335
vt 0.945488 0.175923
vt 0.947502 0.162776
vt 0.958144 0.160981
vt 0.958025 0.175837
vt 0.928508 0.175837
vt 0.932987 0.161934
vt 0.949503 0.149712
vt 0.958247 0.148045
vt 0.958124 0.188094
vt 0.946748 0.187223
vt 0.936451 0.151181
vt 0.932999 0.188792
vt 0.948264 0.200814
vt 0.958247 0.203250
vt 0.936451 0.198751
vt 0.958247 0.233554
vt 0.025346 0.202871
vt 0.021368 0.189771
vt 0.091099 0.204458
vt 0.065621 0.229062
vt 0.027170 0.179178
vt 0.100135 0.179375
vt 0.021548 0.166338
vt 0.088328 0.150422
vt 0.025346 0.155157
vt 0.065621 0.128966
vt 0.963725 0.727755
vt 0.972620 0.739528
vt 0.915970 0.752238
vt 0.901307 0.727962
vt 0.971918 0.748579
vt 0.937598 0.766847
vt 0.917059 0.700818
vt 0.972244 0.715120
vt 0.980019 0.750453
vt 0.932561 0.780206
vt 0.971918 0.705349
vt 0.937598 0.685589
vn -0.444385 0.720624 0.532187
vn -0.411444 0.371410 -0.832327
vn -0.991150 0.038051 0.127179
vn -0.594735 -0.058662 -0.801779
vn 0.016527 0.788168 0.615239
vn 0.451157 0.710227 0.540403
vn 0.006397 0.704288 -0.709885
vn 0.416429 0.392186 -0.820230
vn -0.463234 -0.599606 0.652600
vn 0.117589 -0.614131 0.780395
vn -0.058512 -0.401661 -0.913917
vn 0.002883 -0.202045 -0.979372
vn -0.463754 -0.526413 -0.712616
vn -0.627647 -0.765245 -0.143040
vn -0.092786 -0.598378 0.795823
vn 0.016877 -0.376969 0.926072
vn 0.454654 -0.550931 -0.699832
vn 0.625448 -0.067773 -0.777317
vn 0.632775 -0.771720 -0.063591
vn 0.973474 0.042897 0.224739
vn 0.059473 -0.409378 -0.910425
vn 0.039457 -0.978946 -0.200269
vn -0.063133 -0.966208 -0.249914
vn 0.081994 -0.954563 -0.286506
vn 0.448576 -0.557593 0.698477
f 18/13/1 19/12/2 7/14/3
f 7/14/3 19/12/2 10/15/4
f 8/8/5 23/9/6 9/11/7
f 9/11/7 23/9/6 24/10/8
f 1/32/9 16/33/10 7/35/3
f 7/35/3 16/33/10 18/34/1
f 17/43/11 19/44/2 5/42/12
f 5/42/12 19/44/2 9/45/7
f 4/46/13 15/50/14 10/47/4
f 10/47/4 15/50/14 7/51/3
f 21/38/15 23/39/6 2/36/16
f 2/36/16 23/39/6 8/37/5
f 6/2/17 12/3/18 13/1/19
f 13/1/19 12/3/18 11/4/20
f 6/52/17 22/49/21 12/53/18
f 12/53/18 22/49/21 24/48/8
f 5/20/12 22/21/21 14/16/22
f 14/16/22 22/21/21 25/17/23
f 17/27/11 20/25/24 4/30/13
f 4/30/13 20/25/24 15/28/14
f 3/7/25 13/1/19 11/4/20
f 25/17/23 21/18/15 14/16/22
f 14/16/22 21/18/15 2/19/16
f 20/25/24 16/24/10 15/28/14
f 15/28/14 16/24/10 1/29/9
f 7/31/3 15/28/14 1/29/9
f 19/12/2 18/13/1 9/11/7
f 9/11/7 18/13/1 8/8/5
f 16/33/10 2/36/16 18/34/1
f 18/34/1 2/36/16 8/37/5
f 19/44/2 17/43/11 10/47/4
f 10/47/4 17/43/11 4/46/13
f 20/25/24 17/27/11 14/16/22
f 14/16/22 17/27/11 5/20/12
f 20/25/24 14/16/22 16/24/10
f 16/24/10 14/16/22 2/19/16
f 23/6/6 11/4/20 24/5/8
f 24/5/8 11/4/20 12/3/18
f 23/39/6 21/38/15 11/41/20
f 11/41/20 21/38/15 3/40/25
f 22/49/21 5/42/12 24/48/8
f 24/48/8 5/42/12 9/45/7
f 22/21/21 6/26/17 25/17/23
f 25/17/23 6/26/17 13/22/19
f 25/17/23 13/22/19 21/18/15
f 21/18/15 13/22/19 3/23/25
