# This file uses centimeters as units for non-parametric coordinates.

v -0.003285 -0.133276 -0.023106
v -0.004119 -0.068729 -0.094644
v -0.004494 -0.111337 0.273825
v -0.002200 0.021864 -0.179920
v -0.007871 0.136113 -0.171550
v -0.004494 0.109208 0.223431
v -0.007286 0.186787 -0.131023
v -0.004494 0.207955 0.172211
v -0.004512 0.241218 -0.016909
v -0.004494 0.237369 0.065837
v -0.004494 0.083104 0.242400
v -0.005328 0.002918 0.205716
v -0.004494 -0.138484 0.265866
v -0.004494 -0.043780 0.268528
v -0.004494 -0.078979 0.276325
v -0.005084 -0.203182 0.179961
v -0.001250 -0.220596 -0.031935
v -0.005084 -0.166155 0.245886
v -0.004443 -0.209640 0.114378
v -0.002663 -0.295530 0.037092
v -0.002663 -0.292076 0.057885
v -0.002663 -0.299875 0.005787
v -0.002652 -0.298668 -0.012386
v -0.003185 -0.162287 -0.018394
v -0.005084 -0.200464 0.224343
v -0.002812 -0.105941 -0.059213
v -0.003661 -0.263013 0.075898
v -0.001023 -0.269958 -0.035738
v -0.080882 -0.102730 -0.026023
v -0.046345 -0.135012 0.006997
v -0.049538 -0.139887 0.248965
v -0.061461 -0.109209 0.258084
v -0.096044 0.086498 0.238710
v -0.065520 -0.078955 0.264570
v -0.032531 -0.173958 0.008368
v -0.071556 -0.151696 0.220012
v -0.056117 -0.172621 0.220559
v -0.080586 -0.161667 0.193141
v -0.029912 -0.200231 0.171792
v -0.059550 -0.179444 0.146784
v -0.075510 -0.175838 0.168101
v -0.031804 -0.197152 0.200898
v -0.036008 -0.168983 0.237775
v -0.025240 -0.196924 0.223190
v -0.197510 0.013348 -0.026618
v -0.206506 0.056298 -0.006717
v -0.179637 0.030646 0.065902
v -0.177841 0.012456 0.022473
v -0.199618 0.083559 0.028074
v -0.127271 -0.120457 0.160941
v -0.119403 -0.112205 0.195140
v -0.124192 -0.133338 0.142235
v -0.116881 -0.052292 -0.055797
v -0.177022 -0.024777 -0.021324
v -0.132940 -0.084824 0.006089
v -0.165106 -0.036068 0.028596
v -0.050497 -0.169130 0.038326
v -0.062210 -0.164326 0.056738
v -0.055853 -0.234949 0.030549
v -0.040376 -0.235596 0.007958
v -0.026836 -0.202548 0.119154
v -0.036207 -0.186848 0.121164
v -0.026241 -0.248918 0.068802
v -0.030331 -0.279176 0.057456
v -0.042176 -0.232879 0.049098
v -0.046638 -0.268154 0.045168
v -0.083670 0.024408 0.189524
v -0.065001 -0.044929 0.259111
v -0.142468 0.058925 0.183553
v -0.104248 0.113697 0.216937
v -0.158768 0.109576 0.169375
v -0.123709 0.018629 0.173794
v -0.030043 -0.235167 -0.015379
v -0.021401 -0.275599 -0.029470
v -0.058659 -0.274911 0.012967
v -0.033026 -0.278807 -0.023837
v -0.077192 -0.130986 0.029954
v -0.156154 -0.075880 0.059915
v -0.102318 -0.111128 0.056555
v -0.093160 -0.138787 0.123283
v -0.058468 -0.155092 0.077700
v -0.118795 -0.114543 0.085235
v -0.145499 -0.091642 0.132404
v -0.159628 -0.072581 0.154809
v -0.126455 -0.110074 0.111471
v -0.160260 -0.076111 0.112448
v -0.148940 -0.094277 0.099772
v -0.177142 -0.062024 0.094240
v -0.141734 -0.072544 0.182155
v -0.156006 -0.021834 0.158471
v -0.164449 0.012419 0.160559
v -0.154967 -0.047338 0.141299
v -0.070666 0.024986 -0.161883
v -0.110208 0.136478 -0.168567
v -0.154659 0.029227 -0.117205
v -0.175469 0.103121 -0.102349
v -0.112098 0.220199 -0.019927
v -0.118832 0.192642 -0.105368
v -0.180533 0.159023 -0.069440
v -0.163212 0.178122 -0.009286
v -0.197064 0.082991 0.072123
v -0.154233 0.173365 0.066594
v -0.084448 0.197724 0.168241
v -0.158890 0.140762 0.138446
v -0.108971 0.222390 0.066645
v -0.281626 0.070511 0.021558
v -0.175637 -0.000500 0.119390
v -0.175532 0.029495 0.118958
v -0.249068 -0.027028 0.043181
v -0.162080 0.044803 0.147067
v -0.162561 -0.029290 0.121879
v -0.175573 0.073182 0.127784
v -0.111084 -0.048311 0.209682
v -0.096237 -0.078967 0.230204
v 0.042287 -0.135629 -0.003616
v 0.076394 -0.107806 -0.024902
v 0.040551 -0.139887 0.248965
v 0.052474 -0.109209 0.258084
v 0.056532 -0.078955 0.264570
v 0.024823 -0.172350 0.009411
v 0.062568 -0.151696 0.220012
v 0.071598 -0.161667 0.193141
v 0.045948 -0.172621 0.220559
v 0.019743 -0.200231 0.171792
v 0.021635 -0.197152 0.200898
v 0.066522 -0.175838 0.168101
v 0.050563 -0.179444 0.146784
v 0.025839 -0.168983 0.237775
v 0.015071 -0.196924 0.223190
v 0.169757 0.007547 -0.012482
v 0.161542 0.009441 0.028517
v 0.169519 0.029980 0.066914
v 0.181196 0.047590 0.007797
v 0.183425 0.079312 0.034530
v 0.110415 -0.112205 0.195140
v 0.118283 -0.120457 0.160941
v 0.115087 -0.133104 0.142244
v 0.109634 -0.095375 0.002364
v 0.134135 -0.057880 -0.016145
v 0.083748 -0.058995 -0.058397
v 0.153029 -0.035918 0.029512
v 0.042953 -0.168845 0.038327
v 0.032904 -0.233992 0.009167
v 0.047225 -0.234869 0.030552
v 0.054601 -0.163764 0.056857
v 0.017949 -0.202548 0.119154
v 0.027320 -0.186848 0.121164
v 0.017351 -0.248918 0.068802
v 0.025006 -0.279176 0.057456
v 0.033285 -0.232879 0.049098
v 0.041313 -0.268154 0.045168
v 0.087057 0.086498 0.238710
v 0.074683 0.024408 0.189524
v 0.056013 -0.044929 0.259111
v 0.133480 0.058925 0.183553
v 0.095260 0.113697 0.216937
v 0.149781 0.109576 0.169375
v 0.114721 0.018629 0.173794
v 0.024698 -0.231022 -0.012254
v 0.018643 -0.272754 -0.027325
v 0.030331 -0.275458 -0.021312
v 0.054256 -0.274726 0.013107
v 0.078575 -0.127469 0.030411
v 0.147350 -0.073220 0.059897
v 0.099312 -0.107810 0.056930
v 0.084119 -0.138681 0.123287
v 0.049557 -0.155044 0.077702
v 0.110270 -0.112288 0.085463
v 0.150640 -0.072581 0.154809
v 0.136412 -0.091443 0.132412
v 0.117047 -0.109236 0.111502
v 0.151007 -0.075582 0.112468
v 0.167764 -0.061245 0.094270
v 0.139115 -0.092607 0.099835
v 0.087249 -0.078967 0.230204
v 0.102097 -0.048311 0.209682
v 0.132746 -0.072544 0.182155
v 0.145979 -0.047338 0.141299
v 0.053516 0.026086 -0.160618
v 0.101806 0.126710 -0.154655
v 0.129123 0.029195 -0.110035
v 0.170413 0.104075 -0.107444
v 0.106261 0.187844 -0.100374
v 0.102720 0.219677 -0.019383
v 0.170704 0.157896 -0.068268
v 0.154175 0.178056 -0.009217
v 0.187479 0.082639 0.072659
v 0.145246 0.173365 0.066594
v 0.082340 0.187772 0.173760
v 0.099984 0.214402 0.066645
v 0.149903 0.140762 0.138446
v 0.269545 0.068717 0.024286
v 0.166649 -0.000500 0.119390
v 0.166544 0.029495 0.118958
v 0.235825 -0.022031 0.047889
v 0.153093 0.042280 0.147067
v 0.151342 0.008622 0.160559
v 0.153573 -0.029290 0.121879
v 0.147018 -0.021834 0.158471
v 0.166586 0.073182 0.127784
v -0.286570 0.054822 0.019991
v 0.275702 0.048643 0.025605
v 0.141272 0.168871 0.123936
v 0.103142 0.197290 0.118590
v 0.078290 0.192030 0.171700
v 0.092910 0.148261 0.197684
v 0.097394 0.183828 0.187759
v 0.131198 0.203218 0.136661
v 0.017822 0.109946 0.225282
v 0.005125 0.145874 0.235663
v -0.005017 0.152828 0.206252
v -0.059281 0.088086 0.242502
v -0.064784 0.125407 0.251150
v -0.064891 0.142090 0.213480
v -0.143367 0.100608 0.226447
v -0.136203 0.132577 0.252444
v -0.124738 0.148309 0.215792
v -0.189422 0.158478 0.203648
v -0.193917 0.173342 0.216947
v -0.183741 0.177866 0.200022
v -0.231494 0.217326 0.168970
v 0.128769 0.205322 0.047993
v -0.197119 0.066485 -0.134181
v -0.189230 0.172342 -0.081226
v -0.149383 0.173568 -0.098168
v -0.149804 0.116192 -0.139318
v -0.195404 0.149098 -0.046946
v -0.216849 0.084496 -0.067293
v -0.168779 -0.046787 -0.100667
v -0.195581 -0.001617 -0.052455
v -0.124778 0.021565 -0.138327
v -0.064310 -0.127369 -0.046115
v -0.065058 -0.126122 0.006369
v -0.010598 -0.117973 -0.038916
v -0.070754 -0.183493 -0.033255
v -0.067478 -0.203614 -0.002735
v -0.031116 -0.176805 -0.038813
v -0.083827 -0.199816 -0.043294
v -0.077685 -0.221390 -0.030213
v -0.063666 -0.223110 -0.041019
v -0.094951 -0.230264 -0.058711
v -0.138346 0.203176 -0.033115
v 0.055214 0.242645 0.135387
v 0.102123 0.231363 0.084118
v 0.067688 0.232027 0.051390
v 0.010086 0.250475 0.084885
v 0.120137 0.202538 0.089747
v 0.078278 0.190822 0.179531
v -0.026355 0.224472 0.176518
v -0.000032 0.154355 0.206904
v -0.065426 0.230239 0.101548
v -0.098823 0.181876 0.195507
v -0.080863 0.136641 0.210976
v -0.108933 0.211799 0.114922
v -0.190644 0.104851 0.179243
v -0.160435 0.068238 0.174498
v -0.166895 0.158380 0.109818
v -0.260386 0.144383 0.052353
v -0.252031 0.127082 0.041962
v -0.242366 0.158786 0.047182
v -0.275961 0.192847 -0.008686
v 0.118871 0.205994 0.009860
v -0.173189 0.023276 0.144584
v -0.176693 0.022738 0.124986
v -0.164855 0.022379 0.161036
v -0.174915 -0.015767 0.143128
v -0.168925 -0.016628 0.146346
v -0.173751 -0.014574 0.131926
v -0.184896 -0.047319 0.151807
v -0.174614 -0.048053 0.157150
v -0.180231 -0.053431 0.134000
v -0.196479 -0.070855 0.158069
v -0.194484 -0.076249 0.159847
v -0.200126 -0.072541 0.152369
v -0.209853 -0.080948 0.158031
v -0.165000 0.040031 0.140139
v -0.143090 -0.093552 -0.090857
v -0.144180 -0.075895 -0.010824
v -0.062076 -0.046517 -0.073145
v 0.048053 0.263249 0.020470
v 0.109752 0.219056 -0.023563
v 0.091989 0.213786 -0.062356
v 0.013411 0.235725 -0.039528
v 0.130577 0.203158 0.019282
v 0.073306 0.225980 0.073178
v -0.028914 0.271450 0.035350
v -0.001418 0.227927 0.091120
v -0.058593 0.233902 -0.022584
v -0.097666 0.257824 0.047614
v -0.072214 0.218435 0.115530
v -0.106733 0.226410 -0.018717
v -0.152999 0.223544 0.046094
v -0.160401 0.154014 0.107522
v -0.140848 0.207882 -0.017242
v -0.205483 0.165357 -0.012393
v -0.200197 0.137372 0.013100
v -0.197390 0.161547 -0.049076
v -0.234857 0.141583 -0.070502
v 0.164777 0.165140 -0.054060
v -0.233219 0.047879 -0.020928
v -0.225113 0.111480 -0.011601
v -0.204795 0.106485 -0.030235
v -0.208593 0.075818 -0.056012
v -0.208159 0.094359 0.023795
v -0.215855 0.060630 0.032193
v -0.247675 -0.021171 -0.020095
v -0.234318 0.001769 0.029913
v -0.191503 0.004793 -0.045729
v -0.202362 -0.065623 0.012629
v -0.189119 -0.036892 0.047438
v -0.151678 -0.042180 -0.020191
v -0.142669 -0.075071 0.064160
v -0.159466 -0.091378 0.025585
v -0.149173 -0.126671 0.028866
v -0.137627 -0.131321 0.052500
v -0.099640 -0.095546 -0.001915
v -0.105400 -0.134799 0.017292
v -0.160853 -0.160972 0.024757
v -0.155644 -0.171594 0.036392
v -0.146132 -0.177873 0.026207
v -0.216779 -0.187727 0.025077
v -0.182318 0.132731 0.001295
v -0.113332 -0.103578 0.040676
v -0.075589 -0.111553 -0.010011
v -0.059217 -0.140651 -0.005538
v -0.069837 -0.150005 0.018924
v -0.034787 -0.140373 -0.023320
v -0.034186 -0.167481 -0.009672
v -0.075084 -0.193024 -0.006287
v -0.079504 -0.197816 0.005023
v -0.058226 -0.208133 -0.013621
v -0.103771 -0.231475 -0.017202
v -0.137482 -0.058356 0.016031
v -0.101073 -0.081609 -0.015103
v -0.049948 -0.096250 -0.035216
v 0.187321 0.130666 0.133441
v 0.177013 0.153499 0.102733
v 0.138617 0.162437 0.119216
v 0.133854 0.148731 0.168904
v 0.165316 0.133712 0.084451
v 0.174691 0.101944 0.105106
v 0.185188 0.088228 0.146526
v 0.178436 0.079476 0.111520
v 0.145682 0.098561 0.181916
v 0.176090 0.048142 0.137012
v 0.172616 0.055869 0.106291
v 0.150580 0.049415 0.156960
v 0.188072 0.009883 0.124475
v 0.193108 0.013221 0.109076
v 0.166648 0.002592 0.131557
v 0.221842 -0.030748 0.105833
v 0.224254 -0.029719 0.097783
v 0.209561 -0.041663 0.105362
v 0.273679 -0.061455 0.026043
v 0.145604 0.170521 0.061068
v 0.162977 0.030083 0.133052
v 0.163075 -0.008453 0.139316
v 0.155519 -0.010172 0.143024
v 0.154217 0.028424 0.148548
v 0.163485 -0.006433 0.123256
v 0.168198 0.030173 0.113931
v 0.166969 -0.045900 0.151253
v 0.157893 -0.047213 0.155531
v 0.171370 -0.051281 0.124243
v 0.181722 -0.068813 0.166690
v 0.178958 -0.073399 0.172313
v 0.187520 -0.074826 0.161790
v 0.192504 -0.074113 0.169567
v 0.155813 0.046558 0.128130
v 0.178001 0.082772 -0.133436
v 0.170280 0.179995 -0.080748
v 0.129376 0.175022 -0.090992
v 0.136788 0.111246 -0.133577
v 0.175011 0.149744 -0.043610
v 0.179622 0.082059 -0.061959
v 0.121973 -0.053211 -0.099506
v 0.150205 -0.004370 -0.041283
v 0.093499 0.019670 -0.132719
v 0.112098 -0.089756 -0.079597
v 0.126869 -0.076088 -0.012020
v 0.050063 -0.047968 -0.073837
v 0.085489 -0.118647 0.005442
v 0.090883 -0.112119 -0.044220
v 0.072062 -0.148476 -0.045631
v 0.081600 -0.178758 -0.011218
v 0.028518 -0.112205 -0.035332
v 0.055315 -0.152226 -0.045351
v 0.081258 -0.169501 -0.054265
v 0.084037 -0.187895 -0.036701
v 0.065884 -0.185362 -0.052823
v 0.093917 -0.205998 -0.059688
v 0.125015 0.202301 -0.032204
v 0.207011 0.044387 -0.004968
v 0.186966 0.132006 -0.009757
v 0.176997 0.128845 -0.029063
v 0.178379 0.070899 -0.045409
v 0.181271 0.111945 0.022887
v 0.187211 0.055437 0.040089
v 0.205921 -0.023352 -0.011131
v 0.203343 -0.001220 0.035458
v 0.158246 0.000885 -0.033584
v 0.185568 -0.055984 0.011021
v 0.181639 -0.035051 0.046878
v 0.141281 -0.044175 -0.019561
v 0.155382 -0.069642 0.062083
v 0.165933 -0.082166 0.023311
v 0.153063 -0.117362 0.023567
v 0.144126 -0.121071 0.052509
v 0.123277 -0.089632 -0.003963
v 0.111211 -0.123366 0.018276
v 0.145009 -0.166488 0.023153
v 0.143451 -0.172125 0.037154
v 0.132877 -0.169632 0.021829
v 0.156630 -0.203819 0.016588
v 0.157953 0.162246 -0.004796
v 0.136180 -0.097592 0.040789
v 0.119971 -0.108814 -0.013514
v 0.121597 -0.137649 -0.010750
v 0.120189 -0.149779 0.012626
v 0.093501 -0.139706 -0.008619
v 0.108644 -0.162804 -0.012779
v 0.137098 -0.172838 -0.012310
v 0.132218 -0.179915 -0.002044
v 0.132238 -0.184686 -0.016044
v 0.181637 -0.210946 -0.037205
v 0.136572 -0.057212 0.016871
v 0.116706 -0.082421 -0.016955
v 0.076907 -0.093887 -0.033527
v 0.061381 0.097026 -0.222157
v -0.019619 0.094935 -0.193013
v 0.012719 0.190608 -0.162290
v 0.054603 0.193159 -0.151703
v 0.072333 0.172044 -0.133023
v 0.101072 0.104345 -0.167237
v 0.082428 0.010596 -0.126262
v 0.053166 -0.044552 -0.166631
v -0.011765 -0.011418 -0.148439
v 0.072954 -0.056714 -0.072502
v 0.052635 -0.074446 -0.132444
v 0.005581 -0.049858 -0.108566
v 0.061618 -0.099995 -0.046312
v 0.071804 -0.147110 -0.067197
v 0.054242 -0.117088 -0.088698
v 0.048238 -0.095120 -0.091085
v 0.028356 -0.143377 -0.086269
v 0.003895 -0.110590 -0.064340
v 0.075811 -0.149187 -0.079397
v 0.063261 -0.131306 -0.088011
v 0.052636 -0.148016 -0.085362
v 0.079180 -0.153660 -0.115968
v 0.026428 0.214916 -0.040555
v -0.141879 0.111332 -0.199396
v -0.149592 0.117126 -0.151768
v -0.144172 0.187103 -0.087394
v -0.123237 0.214129 -0.113421
v -0.024126 0.180916 -0.139395
v -0.068077 0.134652 -0.213162
v -0.025925 -0.009021 -0.154439
v -0.109917 0.000037 -0.155386
v -0.131430 0.009135 -0.128380
v 0.004054 -0.071946 -0.108187
v -0.079020 -0.094108 -0.130230
v -0.075890 -0.089784 -0.053948
v 0.019236 -0.101930 -0.083439
v 0.017981 -0.155893 -0.087812
v -0.012977 -0.152926 -0.083274
v -0.024098 -0.119948 -0.083396
v -0.026084 -0.173191 -0.063577
v -0.054455 -0.145831 -0.049420
v 0.011370 -0.177538 -0.087122
v -0.015398 -0.173178 -0.084114
v -0.023630 -0.184033 -0.075088
v -0.013940 -0.203926 -0.096531
v -0.077297 0.221599 -0.025277
v -0.050797 0.205518 -0.175730
v -0.075674 0.202256 -0.130973
v -0.059740 0.233838 -0.036085
v -0.024458 0.266479 -0.045189
v 0.034962 0.218309 -0.052236
v 0.026648 0.180630 -0.144787
v 0.020615 0.113382 -0.207273
v -0.062698 0.095282 -0.240596
v -0.088586 0.102510 -0.199685
v 0.019350 -0.006742 -0.155136
v -0.041604 0.016666 -0.215132
v -0.058591 0.011473 -0.143604
v 0.010792 -0.061023 -0.143669
v -0.000510 -0.074841 -0.180621
v -0.017559 -0.058001 -0.183642
v -0.035402 -0.036020 -0.180978
v -0.034423 -0.072120 -0.173856
v -0.053666 -0.056150 -0.154946
v -0.006628 -0.073288 -0.197315
v -0.022087 -0.063127 -0.196468
v -0.031508 -0.067161 -0.193396
v -0.025359 -0.056239 -0.227041
v 0.005777 0.247907 0.028823
v -0.232198 0.107198 0.117434
v -0.211000 0.075728 0.092359
v -0.205314 0.147679 0.085756
v 0.116557 0.175215 -0.146402
v 0.059053 0.174661 -0.129447
v 0.032577 0.208511 -0.046054
v 0.086455 0.237118 -0.029478
v 0.111847 0.179494 -0.014398
v 0.142234 0.139170 -0.092387
v 0.146773 0.064147 -0.134100
v 0.131902 0.062006 -0.186158
v 0.090914 0.117081 -0.179138
v 0.095142 -0.026014 -0.092861
v 0.096140 -0.003255 -0.165920
v 0.038302 -0.003398 -0.127078
v 0.085211 -0.065311 -0.101906
v 0.090863 -0.084412 -0.126560
v 0.082234 -0.071800 -0.137377
v 0.082770 -0.046538 -0.144258
v 0.065923 -0.073397 -0.139605
v 0.044410 -0.052286 -0.139398
v 0.094588 -0.089064 -0.137527
v 0.086278 -0.078246 -0.147125
v 0.078043 -0.078007 -0.148928
v 0.101244 -0.092476 -0.170059
v 0.056085 0.216948 0.036685
v -0.010582 -0.062237 -0.201002
v -0.004245 -0.057685 -0.184154
v 0.005900 -0.044566 -0.172279
v 0.006884 0.013531 -0.205125
v 0.015302 0.121978 -0.224640
v 0.020845 0.207841 -0.157719
v 0.036269 0.254707 -0.050162
v 0.150050 0.198994 -0.055669
v -0.038477 0.245698 -0.122513
v -0.059201 0.161020 -0.216810
v 0.061472 0.156413 -0.201268
v 0.093266 0.247936 -0.010573
v -0.138165 0.160246 -0.176578
v -0.086659 0.221717 -0.130128
v -0.103364 0.160556 -0.197478
v -0.100065 0.127262 -0.210621
v -0.067321 -0.000372 -0.157943
v -0.207558 0.056743 0.041057
v -0.211909 0.090149 0.037662
v -0.236406 0.079884 -0.007737
v -0.258733 0.060583 -0.012540
v -0.195828 0.109323 0.014752
v -0.231660 0.087908 -0.039119
v -0.291101 0.112265 -0.039372
v -0.295986 0.106005 -0.041894
v -0.284910 0.117474 -0.052191
v -0.324963 0.154034 -0.057183
v -0.179240 0.055791 0.100640
v -0.174789 0.089212 0.083893
v -0.145213 0.123854 0.061976
v -0.211951 0.094354 0.149900
v -0.186402 0.060400 0.134641
v -0.186765 0.152845 0.097373
v 0.115202 0.218488 0.095838
v 0.085218 0.203892 0.172927
v -0.002662 0.173482 0.210877
v -0.081121 0.153045 0.218857
v -0.154157 0.187772 0.096446
v -0.079908 0.245329 0.095145
v -0.005056 0.258137 0.077445
v 0.060558 0.249540 0.055040
v 0.031379 0.245903 0.003376
v 0.048068 0.266021 -0.018144
v -0.011229 0.289087 -0.046450
v -0.026774 0.273311 -0.033018
v 0.040349 0.244169 -0.052575
v 0.002637 0.272642 -0.059662
v -0.047539 0.302992 -0.066284
v -0.054798 0.294307 -0.058819
v -0.045127 0.291701 -0.078730
v -0.087257 0.348024 -0.106436
v 0.082144 0.225429 0.040209
v 0.093624 0.236943 0.006256
v 0.103892 0.213405 -0.027191
vt 0.195885 0.175648
vt 0.240480 0.173903
vt 0.781367 0.717471
vt 0.801046 0.718947
vt 0.801012 0.738521
vt 0.244814 0.210804
vt 0.773637 0.738161
vt 0.800996 0.758772
vt 0.775678 0.757324
vt 0.765343 0.711205
vt 0.756821 0.702237
vt 0.769639 0.699989
vt 0.772775 0.666411
vt 0.196432 0.214527
vt 0.195396 0.140419
vt 0.770951 0.684942
vt 0.751719 0.686827
vt 0.747423 0.666734
vt 0.235490 0.138214
vt 0.302946 0.277000
vt 0.343417 0.280758
vt 0.350651 0.305191
vt 0.785441 0.701572
vt 0.311010 0.304298
vt 0.318619 0.326812
vt 0.292533 0.206033
vt 0.295634 0.243148
vt 0.801085 0.702284
vt 0.801173 0.672649
vt 0.249809 0.248753
vt 0.337246 0.240808
vt 0.277046 0.132035
vt 0.268139 0.096420
vt 0.314277 0.077962
vt 0.318826 0.122558
vt 0.229033 0.106499
vt 0.789673 0.686544
vt 0.194963 0.109601
vt 0.194590 0.084913
vt 0.217538 0.081760
vt 0.252200 0.069184
vt 0.328794 0.032115
vt 0.801128 0.687012
vt 0.753547 0.725124
vt 0.193750 0.011497
vt 0.194330 0.066443
vt 0.285731 0.170947
vt 0.343953 0.199229
vt 0.740583 0.710927
vt 0.731679 0.693393
vt 0.801284 0.642877
vt 0.771551 0.641317
vt 0.741051 0.641250
vt 0.771095 0.614731
vt 0.780076 0.589516
vt 0.801519 0.592211
vt 0.801397 0.616155
vt 0.731354 0.611937
vt 0.746070 0.577521
vt 0.801620 0.573602
vt 0.801010 0.808770
vt 0.332866 0.171818
vt 0.197065 0.261264
vt 0.222314 0.285234
vt 0.801030 0.839166
vt 0.761772 0.836920
vt 0.766922 0.807011
vt 0.197265 0.286545
vt 0.233205 0.313329
vt 0.197337 0.315076
vt 0.261724 0.279794
vt 0.271824 0.308190
vt 0.197160 0.348118
vt 0.241346 0.344815
vt 0.253664 0.382472
vt 0.800994 0.781889
vt 0.771497 0.779999
vt 0.725445 0.831537
vt 0.753688 0.869963
vt 0.196665 0.389102
vt 0.281359 0.335339
vt 0.293646 0.361540
vt 0.356430 0.327689
vt 0.714135 0.859801
vt 0.733412 0.802357
vt 0.684677 0.581172
vt 0.671227 0.535029
vt 0.801975 0.515124
vt 0.724149 0.672449
vt 0.713875 0.645010
vt 0.678623 0.627644
vt 0.320942 0.401539
vt 0.282997 0.434431
vt 0.195693 0.445186
vt 0.382825 0.300033
vt 0.365983 0.240097
vt 0.361485 0.209534
vt 0.694200 0.671772
vt 0.673446 0.666382
vt 0.720287 0.722953
vt 0.710265 0.703371
vt 0.703618 0.684658
vt 0.685477 0.712479
vt 0.650109 0.718193
vt 0.660137 0.695248
vt 0.685858 0.691039
vt 0.756584 0.752365
vt 0.742394 0.773772
vt 0.734626 0.740203
vt 0.695674 0.737313
vt 0.737841 0.909109
vt 0.699508 0.963346
vt 0.657313 0.924755
vt 0.697339 0.886274
vt 0.801005 0.874024
vt 0.800830 0.916852
vt 0.800364 0.974789
vt 0.613110 0.815726
vt 0.661575 0.798625
vt 0.665458 0.828217
vt 0.627727 0.835744
vt 0.692463 0.827072
vt 0.698884 0.797106
vt 0.628797 0.752752
vt 0.668848 0.753450
vt 0.708085 0.760369
vt 0.680066 0.851430
vt 0.630936 0.855783
vt 0.147964 0.210390
vt 0.151234 0.173743
vt 0.155246 0.138212
vt 0.092866 0.274602
vt 0.820722 0.717510
vt 0.828368 0.738204
vt 0.826299 0.757353
vt 0.836746 0.711284
vt 0.832515 0.700062
vt 0.845295 0.702343
vt 0.086387 0.300877
vt 0.050622 0.299585
vt 0.829599 0.666479
vt 0.854916 0.666865
vt 0.850481 0.686951
vt 0.831294 0.685016
vt 0.816725 0.701607
vt 0.812580 0.686571
vt 0.861438 0.711075
vt 0.848452 0.725219
vt 0.870421 0.693582
vt 0.831014 0.641387
vt 0.861481 0.641389
vt 0.831692 0.614803
vt 0.053209 0.277491
vt 0.078168 0.323236
vt 0.144224 0.247925
vt 0.098535 0.241737
vt 0.099968 0.205365
vt 0.822983 0.589571
vt 0.871374 0.612098
vt 0.857100 0.577668
vt 0.057085 0.239056
vt 0.113526 0.132110
vt 0.071421 0.122870
vt 0.075653 0.078409
vt 0.121595 0.096638
vt 0.160834 0.106574
vt 0.171531 0.081847
vt 0.058021 0.032900
vt 0.835095 0.807014
vt 0.840334 0.836950
vt 0.830473 0.780015
vt 0.876741 0.831507
vt 0.888430 0.859993
vt 0.848470 0.870114
vt 0.868562 0.802322
vt 0.932426 0.535401
vt 0.917976 0.581423
vt 0.878102 0.672640
vt 0.888622 0.645207
vt 0.924179 0.627901
vt 0.928739 0.666604
vt 0.907972 0.672007
vt 0.891663 0.703661
vt 0.881584 0.723156
vt 0.898453 0.684905
vt 0.916196 0.713002
vt 0.916075 0.691312
vt 0.941678 0.695335
vt 0.136369 0.069457
vt 0.105840 0.170721
vt 0.047534 0.198610
vt 0.058633 0.171665
vt 0.172345 0.284607
vt 0.161717 0.312312
vt 0.133332 0.278305
vt 0.123895 0.306086
vt 0.951067 0.719463
vt 0.845357 0.752419
vt 0.859505 0.773805
vt 0.140145 0.380632
vt 0.153291 0.343478
vt 0.114141 0.332849
vt 0.867256 0.740314
vt 0.905978 0.737572
vt 0.864111 0.909488
vt 0.906184 0.887294
vt 0.949868 0.928638
vt 0.900962 0.963692
vt 0.987185 0.815002
vt 0.974570 0.834026
vt 0.936582 0.827534
vt 0.939794 0.798291
vt 0.902906 0.796960
vt 0.909639 0.826764
vt 0.972046 0.752549
vt 0.932503 0.753668
vt 0.893629 0.760464
vt 0.922326 0.851056
vt 0.101211 0.358597
vt 0.038477 0.324271
vt 0.072391 0.397670
vt 0.109413 0.431351
vt 0.012263 0.296720
vt 0.029060 0.238387
vt 0.034369 0.208663
vt 0.970796 0.853695
vt 0.617369 0.798627
vt 0.378252 0.283760
vt 0.016513 0.281960
vt 0.983355 0.799200
vt 0.091388 0.968992
vt 0.104729 0.968991
vt 0.104736 0.955476
vt 0.091388 0.989921
vt 0.104724 0.981374
vt 0.091388 0.981374
vt 0.068657 0.968992
vt 0.068657 0.981373
vt 0.068657 0.989921
vt 0.053494 0.968992
vt 0.053494 0.981373
vt 0.053494 0.989921
vt 0.037536 0.968992
vt 0.037536 0.981374
vt 0.037536 0.989921
vt 0.024175 0.968991
vt 0.024175 0.981374
vt 0.024175 0.989921
vt 0.012827 0.962547
vt 0.115583 0.985575
vt 0.024175 0.955476
vt 0.037536 0.955475
vt 0.053494 0.955475
vt 0.068657 0.955476
vt 0.091388 0.955476
vt 0.104718 0.989921
vt 0.115583 0.975846
vt 0.115549 0.963243
vt 0.012827 0.974077
vt 0.012827 0.985099
vt 0.094849 0.866212
vt 0.109786 0.866212
vt 0.109794 0.851079
vt 0.094849 0.851079
vt 0.109781 0.880075
vt 0.094849 0.880075
vt 0.069400 0.866212
vt 0.069400 0.880075
vt 0.069400 0.851080
vt 0.052423 0.866212
vt 0.052423 0.880075
vt 0.052423 0.851079
vt 0.034556 0.866212
vt 0.034557 0.880075
vt 0.034556 0.851079
vt 0.019597 0.866212
vt 0.019597 0.880075
vt 0.019597 0.851079
vt 0.006891 0.871905
vt 0.006891 0.858996
vt 0.019597 0.889644
vt 0.034557 0.889644
vt 0.006891 0.884247
vt 0.052423 0.889644
vt 0.121939 0.873886
vt 0.121939 0.884778
vt 0.109775 0.889644
vt 0.121901 0.859776
vt 0.094849 0.889644
vt 0.069400 0.889644
vt 0.254938 0.909977
vt 0.272234 0.909976
vt 0.272244 0.892453
vt 0.254938 0.892453
vt 0.272229 0.926030
vt 0.254938 0.926030
vt 0.225469 0.909977
vt 0.225469 0.926029
vt 0.225469 0.892454
vt 0.205810 0.909977
vt 0.205810 0.926029
vt 0.205810 0.892453
vt 0.185121 0.909977
vt 0.185121 0.926030
vt 0.185121 0.892453
vt 0.167798 0.909976
vt 0.167798 0.926030
vt 0.167798 0.892453
vt 0.153086 0.916569
vt 0.153086 0.901621
vt 0.167798 0.937110
vt 0.185121 0.937110
vt 0.153086 0.930860
vt 0.205810 0.937110
vt 0.286307 0.918863
vt 0.286307 0.931476
vt 0.272221 0.937110
vt 0.286263 0.902524
vt 0.254938 0.937110
vt 0.225469 0.937110
vt 0.251875 0.865347
vt 0.251880 0.857311
vt 0.251873 0.872710
vt 0.230427 0.865348
vt 0.230427 0.872710
vt 0.230427 0.857311
vt 0.221411 0.865348
vt 0.221411 0.872710
vt 0.221411 0.857311
vt 0.203978 0.865347
vt 0.203978 0.872710
vt 0.203978 0.857311
vt 0.197230 0.868371
vt 0.197230 0.861515
vt 0.203978 0.877792
vt 0.197230 0.874925
vt 0.221411 0.877792
vt 0.258329 0.869423
vt 0.258329 0.875208
vt 0.251869 0.877792
vt 0.258309 0.861929
vt 0.230427 0.877792
vt 0.060770 0.866212
vt 0.060770 0.880075
vt 0.060770 0.851079
vt 0.060770 0.889644
vt 0.112249 0.916546
vt 0.130454 0.916545
vt 0.130464 0.898101
vt 0.112249 0.898101
vt 0.130448 0.933442
vt 0.112249 0.933442
vt 0.081230 0.916546
vt 0.081230 0.933442
vt 0.081230 0.898101
vt 0.060537 0.916545
vt 0.060537 0.933442
vt 0.060537 0.898100
vt 0.038760 0.916545
vt 0.038761 0.933442
vt 0.038760 0.898100
vt 0.020527 0.916545
vt 0.020527 0.933442
vt 0.020527 0.898101
vt 0.005041 0.923485
vt 0.005041 0.907750
vt 0.020527 0.945106
vt 0.038761 0.945106
vt 0.005041 0.938527
vt 0.060537 0.945106
vt 0.145267 0.925899
vt 0.145267 0.939175
vt 0.130440 0.945106
vt 0.145220 0.908700
vt 0.112249 0.945106
vt 0.081230 0.945106
vt 0.255085 0.961151
vt 0.273630 0.961151
vt 0.273639 0.942363
vt 0.255085 0.942363
vt 0.273623 0.978362
vt 0.255085 0.978362
vt 0.223489 0.961151
vt 0.223489 0.978362
vt 0.223489 0.942364
vt 0.212775 0.961151
vt 0.212775 0.978362
vt 0.212775 0.942363
vt 0.202411 0.978362
vt 0.202411 0.961151
vt 0.180229 0.961151
vt 0.180230 0.978362
vt 0.202411 0.942363
vt 0.180229 0.942363
vt 0.161657 0.961151
vt 0.161657 0.978362
vt 0.161657 0.942363
vt 0.145883 0.968219
vt 0.145883 0.952192
vt 0.161657 0.990243
vt 0.180230 0.990243
vt 0.145883 0.983541
vt 0.202411 0.990243
vt 0.288717 0.970679
vt 0.288717 0.984202
vt 0.273615 0.990243
vt 0.288670 0.953160
vt 0.255085 0.990243
vt 0.223489 0.990243
vt 0.212775 0.990243
vt 0.979627 0.977114
vt 0.979627 0.966799
vt 0.966333 0.966799
vt 0.966334 0.977114
vt 0.979627 0.955539
vt 0.966333 0.955539
vt 0.955203 0.966799
vt 0.955203 0.977114
vt 0.955203 0.955539
vt 0.945749 0.971035
vt 0.945749 0.961430
vt 0.955203 0.984234
vt 0.966334 0.984234
vt 0.945749 0.980218
vt 0.979627 0.984234
vt 0.985838 0.977114
vt 0.985838 0.966799
vt 0.985838 0.984234
vt 0.985838 0.955539
vt 0.958967 0.569354
vt 0.958625 0.554940
vt 0.944022 0.555278
vt 0.944363 0.569700
vt 0.972004 0.554628
vt 0.972345 0.569037
vt 0.959549 0.593913
vt 0.972926 0.593596
vt 0.944945 0.594259
vt 0.959936 0.610296
vt 0.973314 0.609979
vt 0.945333 0.610642
vt 0.960345 0.627538
vt 0.973723 0.627220
vt 0.945741 0.627884
vt 0.960686 0.641974
vt 0.974065 0.641657
vt 0.946083 0.642320
vt 0.966471 0.654104
vt 0.954014 0.654399
vt 0.983299 0.641438
vt 0.982957 0.627002
vt 0.978381 0.653822
vt 0.982549 0.609761
vt 0.965754 0.543037
vt 0.976265 0.542788
vt 0.981238 0.554415
vt 0.952137 0.543396
vt 0.981579 0.568819
vt 0.982161 0.593377
vt 0.668617 0.970875
vt 0.644939 0.970876
vt 0.644939 0.979003
vt 0.668614 0.979003
vt 0.644939 0.962004
vt 0.668621 0.962004
vt 0.634986 0.970876
vt 0.634986 0.979003
vt 0.634986 0.962004
vt 0.615741 0.970875
vt 0.615741 0.979003
vt 0.615741 0.962004
vt 0.608292 0.974213
vt 0.608292 0.966645
vt 0.615741 0.984613
vt 0.608292 0.981449
vt 0.634986 0.984613
vt 0.675741 0.975375
vt 0.675741 0.981761
vt 0.668610 0.984613
vt 0.675719 0.967102
vt 0.644939 0.984613
vt 0.203451 0.732306
vt 0.214925 0.732306
vt 0.214931 0.720682
vt 0.203451 0.720682
vt 0.214921 0.742955
vt 0.203451 0.742955
vt 0.183903 0.732306
vt 0.183903 0.742954
vt 0.183903 0.720683
vt 0.177274 0.732306
vt 0.177274 0.742954
vt 0.177274 0.720682
vt 0.170862 0.742954
vt 0.170862 0.732306
vt 0.157139 0.732306
vt 0.157139 0.742955
vt 0.170862 0.720682
vt 0.157139 0.720682
vt 0.145648 0.732306
vt 0.145648 0.742955
vt 0.145648 0.720682
vt 0.135889 0.736679
vt 0.135889 0.726764
vt 0.145648 0.750305
vt 0.157139 0.750305
vt 0.135889 0.746159
vt 0.170862 0.750305
vt 0.224259 0.738201
vt 0.224259 0.746567
vt 0.214916 0.750305
vt 0.224230 0.727362
vt 0.203451 0.750305
vt 0.183903 0.750305
vt 0.177274 0.750305
vt 0.254452 0.739359
vt 0.254512 0.729509
vt 0.244533 0.729442
vt 0.244472 0.739298
vt 0.263654 0.729568
vt 0.263593 0.739415
vt 0.254349 0.756141
vt 0.263490 0.756197
vt 0.244370 0.756079
vt 0.254314 0.761832
vt 0.263455 0.761888
vt 0.244334 0.761771
vt 0.263421 0.767393
vt 0.254280 0.767336
vt 0.254207 0.779118
vt 0.263349 0.779174
vt 0.244300 0.767275
vt 0.244228 0.779057
vt 0.254147 0.788983
vt 0.263289 0.789039
vt 0.244168 0.788922
vt 0.257850 0.797384
vt 0.249337 0.797332
vt 0.269599 0.789078
vt 0.269659 0.779213
vt 0.265988 0.797434
vt 0.269732 0.767431
vt 0.259622 0.721526
vt 0.266805 0.721570
vt 0.269964 0.729611
vt 0.250317 0.721494
vt 0.269904 0.739454
vt 0.269801 0.756236
vt 0.269766 0.761927
vt 0.984064 0.691030
vt 0.984064 0.681234
vt 0.971439 0.681234
vt 0.971439 0.691030
vt 0.984064 0.670541
vt 0.971439 0.670541
vt 0.960868 0.681234
vt 0.960868 0.691030
vt 0.960868 0.670541
vt 0.951890 0.685257
vt 0.951890 0.676136
vt 0.960868 0.697792
vt 0.971439 0.697792
vt 0.951890 0.693978
vt 0.984064 0.697792
vt 0.989962 0.691030
vt 0.989962 0.681234
vt 0.989962 0.697792
vt 0.989962 0.670541
vt 0.249276 0.820390
vt 0.249276 0.805547
vt 0.263935 0.805547
vt 0.263927 0.820390
vt 0.263922 0.833988
vt 0.249276 0.833988
vt 0.224315 0.833987
vt 0.224315 0.820390
vt 0.224315 0.805547
vt 0.215850 0.833987
vt 0.215850 0.820390
vt 0.215850 0.805547
vt 0.207662 0.833987
vt 0.190138 0.833988
vt 0.190138 0.820390
vt 0.207662 0.820390
vt 0.190138 0.805547
vt 0.207662 0.805547
vt 0.175465 0.833988
vt 0.175465 0.820390
vt 0.175465 0.805547
vt 0.163003 0.825974
vt 0.163003 0.813313
vt 0.190138 0.843374
vt 0.175465 0.843374
vt 0.163003 0.838079
vt 0.207662 0.843374
vt 0.275847 0.827918
vt 0.275847 0.838601
vt 0.263916 0.843374
vt 0.275809 0.814077
vt 0.249276 0.843374
vt 0.224315 0.843374
vt 0.215850 0.843374
vt 0.111959 0.813013
vt 0.111959 0.794672
vt 0.130072 0.794672
vt 0.130062 0.813013
vt 0.130056 0.829815
vt 0.111959 0.829815
vt 0.081115 0.829815
vt 0.081115 0.813013
vt 0.081115 0.794672
vt 0.070655 0.829815
vt 0.070655 0.813013
vt 0.070655 0.794672
vt 0.060538 0.829815
vt 0.038884 0.829815
vt 0.038884 0.813013
vt 0.060538 0.813013
vt 0.038884 0.794672
vt 0.060538 0.794672
vt 0.020753 0.829815
vt 0.020753 0.813013
vt 0.020753 0.794672
vt 0.005354 0.819913
vt 0.005354 0.804267
vt 0.038884 0.841413
vt 0.020753 0.841413
vt 0.005354 0.834871
vt 0.060538 0.841413
vt 0.144791 0.822314
vt 0.144791 0.835515
vt 0.130048 0.841413
vt 0.144745 0.805212
vt 0.111959 0.841413
vt 0.081115 0.841413
vt 0.070655 0.841413
vt 0.099415 0.758431
vt 0.099415 0.743172
vt 0.114485 0.743172
vt 0.114477 0.758430
vt 0.114472 0.772409
vt 0.099415 0.772409
vt 0.073755 0.772409
vt 0.073755 0.758431
vt 0.073755 0.743172
vt 0.065052 0.772409
vt 0.065052 0.758431
vt 0.065052 0.743172
vt 0.056635 0.772409
vt 0.038621 0.772409
vt 0.038620 0.758431
vt 0.056635 0.758431
vt 0.038620 0.743172
vt 0.056635 0.743172
vt 0.023536 0.772409
vt 0.023536 0.758430
vt 0.023536 0.743172
vt 0.010725 0.764171
vt 0.010725 0.751155
vt 0.038621 0.782058
vt 0.023536 0.782058
vt 0.010725 0.776616
vt 0.056635 0.782058
vt 0.126731 0.766169
vt 0.126731 0.777152
vt 0.114465 0.782058
vt 0.126692 0.751941
vt 0.099415 0.782058
vt 0.073755 0.782058
vt 0.065052 0.782058
vt 0.176287 0.909976
vt 0.176288 0.926030
vt 0.176287 0.892453
vt 0.176288 0.937110
vt 0.204558 0.768318
vt 0.204558 0.756994
vt 0.215741 0.756994
vt 0.215735 0.768317
vt 0.215731 0.778691
vt 0.204558 0.778691
vt 0.185515 0.778690
vt 0.185515 0.768318
vt 0.185515 0.756994
vt 0.179057 0.778690
vt 0.179057 0.768318
vt 0.179057 0.756994
vt 0.172812 0.778690
vt 0.159443 0.778691
vt 0.159442 0.768317
vt 0.172812 0.768317
vt 0.159442 0.756994
vt 0.172812 0.756994
vt 0.148249 0.778691
vt 0.148249 0.768317
vt 0.148249 0.756994
vt 0.138742 0.772578
vt 0.138742 0.762918
vt 0.159443 0.785851
vt 0.148249 0.785851
vt 0.138742 0.781812
vt 0.172812 0.785851
vt 0.224828 0.774060
vt 0.224828 0.782210
vt 0.215726 0.785851
vt 0.224800 0.763501
vt 0.204558 0.785851
vt 0.185515 0.785851
vt 0.179057 0.785851
vt 0.023536 0.766892
vt 0.038620 0.766892
vt 0.056635 0.766892
vt 0.065052 0.766892
vt 0.073755 0.766892
vt 0.099415 0.766892
vt 0.114474 0.766892
vt 0.219250 0.735038
vt 0.219237 0.730015
vt 0.106705 0.758431
vt 0.089261 0.758431
vt 0.257189 0.820390
vt 0.122775 0.916545
vt 0.120898 0.813013
vt 0.130060 0.818239
vt 0.116949 0.820435
vt 0.111959 0.821420
vt 0.081115 0.820479
vt 0.167795 0.874968
vt 0.167795 0.865099
vt 0.155076 0.865099
vt 0.155077 0.874968
vt 0.167795 0.854327
vt 0.155076 0.854327
vt 0.144428 0.865099
vt 0.144428 0.874968
vt 0.144428 0.854327
vt 0.135383 0.869152
vt 0.135383 0.859963
vt 0.144428 0.881780
vt 0.155077 0.881780
vt 0.135383 0.877937
vt 0.167795 0.881780
vt 0.173737 0.874968
vt 0.173737 0.865100
vt 0.173737 0.881780
vt 0.173737 0.854327
vt 0.180552 0.909976
vt 0.180553 0.926030
vt 0.180552 0.892453
vt 0.180553 0.937110
vt 0.272232 0.918241
vt 0.254938 0.918494
vt 0.225469 0.917882
vt 0.205810 0.918772
vt 0.038761 0.927950
vt 0.060537 0.928187
vt 0.081230 0.927642
vt 0.112249 0.925950
vt 0.645178 0.550747
vt 0.645178 0.538495
vt 0.629388 0.538495
vt 0.629388 0.550747
vt 0.645178 0.525120
vt 0.629388 0.525120
vt 0.616167 0.538494
vt 0.616167 0.550747
vt 0.616167 0.525120
vt 0.604937 0.543527
vt 0.604937 0.532117
vt 0.616167 0.559204
vt 0.629388 0.559204
vt 0.604937 0.554434
vt 0.645178 0.559204
vt 0.652556 0.550747
vt 0.652556 0.538495
vt 0.652556 0.559204
vt 0.652556 0.525120
vn -0.580942 -0.510868 -0.633656
vn -0.386691 -0.751259 -0.534864
vn -0.127989 -0.611337 -0.780952
vn 0.091991 -0.727562 -0.679847
vn 0.037514 -0.451692 0.891385
vn 0.000000 -0.248013 0.968757
vn -0.384688 -0.438426 0.812280
vn -0.513247 -0.291861 0.807090
vn -0.000000 -0.031716 0.999497
vn -0.427949 0.004983 0.903789
vn -0.051425 -0.150763 -0.987231
vn -0.777731 0.015899 -0.628396
vn -0.645866 -0.477410 0.595766
vn -0.711863 -0.616570 0.336291
vn -0.621761 -0.643358 0.446659
vn -0.408874 -0.902215 0.137223
vn -0.583927 -0.811405 -0.025507
vn -0.356405 -0.934209 0.015114
vn -0.621225 -0.731169 -0.281909
vn -0.045336 -0.528825 0.847519
vn -0.404807 -0.487419 0.773663
vn -0.329341 -0.802009 0.498313
vn 0.000113 -0.996853 0.079271
vn -0.000000 -0.859188 0.511660
vn -0.899251 -0.373576 -0.227571
vn -0.805197 -0.248416 -0.538468
vn -0.992090 -0.120452 0.035349
vn -0.975482 0.104253 0.193819
vn -0.976952 0.177893 0.117976
vn -0.755606 -0.403735 0.515807
vn -0.819181 -0.513880 0.254697
vn -0.732377 -0.671260 -0.114163
vn -0.665365 -0.702115 -0.253623
vn -0.494214 -0.634351 -0.594434
vn -0.849696 -0.509113 -0.137188
vn -0.760811 -0.548401 -0.347021
vn -0.844623 0.181822 -0.503540
vn -0.998751 0.043629 -0.024352
vn -0.818428 -0.186940 -0.543350
vn -0.908412 -0.417685 0.018108
vn 0.003423 -0.905590 0.424139
vn -0.648937 -0.740976 0.172728
vn -0.836625 -0.544895 -0.056111
vn -0.599635 -0.369733 0.709744
vn -0.531390 -0.621294 0.575863
vn 0.004340 -0.463851 0.885903
vn -0.001557 -0.822588 0.568636
vn -0.850873 -0.253494 0.460169
vn -0.789990 -0.358512 0.497378
vn -0.000829 -0.986691 0.162605
vn -0.000790 0.457825 0.889042
vn -0.000949 -0.175239 0.984526
vn -0.361302 -0.082187 0.928820
vn -0.342156 0.047256 0.938454
vn -0.000046 0.419803 0.907615
vn -0.441312 0.431630 0.786727
vn -0.488336 0.438757 0.754334
vn -0.706012 -0.219560 0.673306
vn -0.819157 0.172558 0.546997
vn -0.485253 0.014080 0.874260
vn -0.654798 0.181630 -0.733655
vn 0.042117 0.213668 -0.975998
vn -0.296402 -0.242450 -0.923777
vn 0.066017 -0.125140 -0.989940
vn -0.701358 -0.381401 -0.602188
vn -0.863187 -0.492659 -0.110432
vn 0.005325 -0.998031 -0.062501
vn 0.052047 -0.804138 -0.592160
vn -0.617874 -0.703890 -0.350387
vn -0.701555 -0.663104 -0.260987
vn -0.656435 -0.740520 -0.143953
vn -0.570645 -0.763089 -0.303415
vn -0.761373 -0.647906 -0.023004
vn -0.583085 -0.784763 -0.210140
vn -0.803610 -0.594824 0.019905
vn -0.941237 -0.244047 0.233482
vn -0.642590 -0.748592 -0.163363
vn -0.907798 -0.348583 0.233221
vn -0.776825 -0.617231 0.124773
vn -0.693812 -0.720121 0.007138
vn -0.734728 -0.051009 0.676441
vn -0.658508 0.236441 0.714467
vn -0.838507 -0.085216 0.538186
vn -0.968173 0.027392 0.248779
vn -0.030209 -0.696431 -0.716988
vn -0.298805 -0.403306 -0.864905
vn 0.039924 -0.335560 -0.941172
vn -0.399126 0.283567 -0.871945
vn 0.060820 0.231400 -0.970956
vn -0.657976 -0.365755 -0.658249
vn -0.846556 0.110308 -0.520745
vn 0.048923 0.755376 -0.653462
vn -0.407373 0.758507 -0.508639
vn 0.017737 0.984081 -0.176831
vn -0.456307 0.881795 -0.119257
vn -0.783132 0.617943 0.069647
vn -0.850337 0.484650 -0.205041
vn -0.981217 0.055336 0.184803
vn -0.838766 0.525244 0.143496
vn -0.309437 0.746457 0.589109
vn -0.482736 0.862645 0.151029
vn -0.793021 0.481383 0.373348
vn -0.001468 0.545799 0.837915
vn 0.018528 0.775188 0.631459
vn 0.037724 0.979998 0.195400
vn 0.006810 0.999474 -0.031709
vn -0.843141 0.001709 0.537690
vn -0.963057 -0.046655 0.265225
vn -0.936187 -0.155515 -0.315228
vn -0.806839 -0.009189 0.590700
vn -0.781887 0.050392 0.621381
vn -0.847472 -0.236864 0.475066
vn -0.845574 -0.115691 0.521173
vn -0.915269 -0.003450 0.402828
vn -0.765877 -0.640678 -0.054442
vn 0.484603 -0.626202 -0.610763
vn 0.462889 -0.711475 -0.528712
vn 0.513247 -0.291861 0.807090
vn 0.444926 -0.428646 0.786323
vn 0.427949 0.004983 0.903789
vn 0.793458 -0.058215 -0.605835
vn 0.663733 -0.487676 0.567126
vn 0.604290 -0.640751 0.473574
vn 0.706106 -0.623022 0.336538
vn 0.620372 -0.733325 -0.278159
vn 0.579506 -0.814678 -0.021756
vn 0.351808 -0.935844 0.020651
vn 0.405480 -0.903388 0.139558
vn 0.327529 -0.531730 0.781017
vn 0.329341 -0.802009 0.498314
vn 0.904679 -0.356901 -0.232758
vn 0.974232 -0.213372 -0.073105
vn 0.675912 -0.163134 -0.718700
vn 0.991099 0.099769 0.088146
vn 0.994194 0.106162 0.017534
vn 0.819342 -0.515640 0.250588
vn 0.755607 -0.403735 0.515807
vn 0.732545 -0.669580 -0.122638
vn 0.502834 -0.574392 -0.645935
vn 0.691212 -0.657940 -0.298900
vn 0.751109 -0.521040 -0.405405
vn 0.793467 -0.498946 -0.348515
vn 0.891132 -0.447619 0.074303
vn 0.996372 0.084441 -0.010641
vn 0.821993 -0.258633 -0.507383
vn 0.855391 0.210562 -0.473254
vn 0.646999 -0.741599 0.177266
vn 0.836981 -0.544413 -0.055470
vn 0.599530 -0.336386 0.726229
vn 0.533525 -0.600975 0.595130
vn 0.846972 -0.237002 0.475888
vn 0.795618 -0.306452 0.522570
vn 0.360775 -0.083187 0.928935
vn 0.342156 0.047255 0.938454
vn 0.441506 0.431896 0.786472
vn 0.819157 0.172557 0.546998
vn 0.492049 0.433399 0.755018
vn 0.703240 -0.218010 0.676701
vn 0.493379 0.007228 0.869785
vn 0.705361 0.196994 -0.680925
vn 0.383186 -0.211970 -0.899020
vn 0.886034 -0.449964 -0.111694
vn 0.730044 -0.332332 -0.597153
vn 0.647330 -0.715336 -0.263170
vn 0.707902 -0.654663 -0.265125
vn 0.678396 -0.729379 -0.088231
vn 0.576714 -0.755276 -0.311383
vn 0.759749 -0.650212 -0.002349
vn 0.599475 -0.774820 -0.200709
vn 0.801566 -0.597892 -0.004219
vn 0.942522 -0.244248 0.228023
vn 0.647382 -0.738091 -0.190047
vn 0.908107 -0.360662 0.212755
vn 0.689470 -0.723963 -0.022556
vn 0.783295 -0.612969 0.103532
vn 0.734728 -0.051009 0.676441
vn 0.658508 0.236441 0.714467
vn 0.838507 -0.085216 0.538186
vn 0.968661 0.025826 0.247039
vn 0.378045 -0.372947 -0.847344
vn 0.400147 0.240096 -0.884441
vn 0.698165 -0.386751 -0.602486
vn 0.810152 0.079978 -0.580739
vn 0.417544 0.764765 -0.490705
vn 0.428768 0.894683 -0.125302
vn 0.896664 0.397067 -0.195783
vn 0.748597 0.662969 0.008652
vn 0.990795 0.051993 0.124988
vn 0.834195 0.540144 0.111193
vn 0.336242 0.740558 0.581821
vn 0.788187 0.490214 0.372092
vn 0.472953 0.864887 0.168187
vn -0.007806 0.999450 -0.032221
vn 0.829971 0.024079 0.557287
vn 0.924823 -0.238667 -0.296210
vn 0.801781 -0.040103 0.596271
vn 0.766055 0.038654 0.641611
vn 0.845094 -0.098021 0.525555
vn 0.849182 -0.239794 0.470519
vn 0.957421 -0.063359 0.281656
vn 0.916558 -0.001513 0.399900
vn 0.785054 -0.616692 -0.058143
vn 0.492710 0.499145 0.712805
vn 0.391383 0.881114 0.265437
vn -0.689179 0.698059 -0.194285
vn -0.907085 0.231869 -0.351332
vn 0.463298 -0.885313 -0.039702
vn 0.492351 -0.869081 0.047830
vn 0.100266 0.534355 0.839292
vn 0.246003 -0.868881 -0.429568
vn -0.301198 0.206679 -0.930894
vn 0.180460 -0.807143 0.562098
vn 0.007118 0.391765 0.920038
vn -0.090002 0.422739 -0.901771
vn -0.346500 -0.915021 -0.206578
vn -0.360424 0.065499 0.930486
vn 0.326817 0.868911 -0.371731
vn -0.520537 -0.695229 -0.495679
vn -0.210564 0.573439 0.791726
vn 0.615471 0.600017 -0.511053
vn -0.454695 0.279019 -0.845814
vn 0.321228 0.817499 -0.478025
vn -0.726295 -0.056746 -0.685037
vn -0.708849 0.601338 -0.368682
vn 0.834661 0.219407 -0.505175
vn 0.856434 0.336573 -0.391459
vn 0.291321 -0.317752 0.902311
vn -0.431508 0.210653 0.877169
vn -0.642807 0.281809 0.712308
vn -0.563477 -0.526715 -0.636447
vn 0.871442 0.182097 -0.455445
vn -0.688005 -0.459915 0.561362
vn -0.303730 -0.698976 -0.647442
vn 0.800893 0.489361 -0.345102
vn -0.308728 -0.539918 -0.783055
vn -0.873611 0.171939 -0.455237
vn -0.147096 0.089912 0.985027
vn -0.090423 -0.574878 0.813227
vn 0.932340 0.023613 -0.360812
vn 0.796486 -0.385236 -0.466052
vn -0.663124 -0.410770 0.625727
vn -0.630357 0.613894 -0.475168
vn 0.589678 -0.574613 -0.567539
vn -0.497488 -0.855543 -0.143360
vn -0.276222 0.943135 0.184925
vn 0.433119 0.900642 -0.035376
vn -0.168333 0.848335 -0.501987
vn 0.268335 0.932920 0.240119
vn -0.381120 -0.307532 -0.871879
vn 0.789478 0.577354 0.208296
vn 0.576638 0.448665 0.682780
vn 0.515257 -0.852191 0.091001
vn 0.518162 -0.689049 0.506675
vn 0.141599 0.308038 0.940778
vn 0.305674 -0.911450 0.275357
vn -0.126395 0.852827 0.506666
vn -0.126373 -0.282931 -0.950779
vn -0.086729 -0.015265 0.996115
vn 0.334996 -0.940554 0.055996
vn -0.503276 0.833578 -0.227731
vn -0.414741 0.665799 0.620243
vn -0.571005 0.100340 0.814791
vn 0.061021 -0.918449 0.390804
vn 0.063584 0.738285 -0.671485
vn -0.828900 -0.088395 0.552369
vn 0.350777 -0.830064 -0.433531
vn 0.278155 0.891752 -0.356943
vn -0.141982 -0.687810 -0.711869
vn -0.801220 0.334551 0.496107
vn -0.959703 0.278006 -0.041029
vn 0.547396 0.835732 -0.043712
vn 0.805326 0.559567 -0.195792
vn -0.934272 0.188055 0.302938
vn 0.647911 0.105578 0.754364
vn -0.918368 0.159670 0.362087
vn 0.558893 0.263604 0.786226
vn -0.855713 0.004985 -0.517426
vn 0.835899 0.100000 -0.539696
vn -0.685082 0.457879 0.566577
vn 0.793097 -0.392267 0.465966
vn -0.101147 -0.217672 -0.970767
vn -0.478834 0.526042 0.702850
vn 0.137218 -0.206884 0.968695
vn -0.478346 -0.144356 -0.866226
vn -0.641003 0.380204 0.666754
vn -0.749963 0.607013 0.262851
vn -0.307428 -0.194834 -0.931412
vn 0.543245 0.831628 -0.115243
vn 0.378246 0.304140 -0.874316
vn 0.699217 0.667335 -0.256438
vn 0.773585 -0.578458 0.258753
vn 0.631607 0.040599 0.774225
vn 0.404644 0.758163 0.511324
vn 0.177481 0.983647 -0.030640
vn 0.168515 0.805892 0.567574
vn -0.079576 0.992963 -0.087705
vn -0.184184 -0.210297 -0.960131
vn -0.200543 0.762213 0.615478
vn -0.335809 0.936467 -0.101308
vn -0.337242 0.446357 -0.828875
vn -0.695622 0.439363 0.568392
vn -0.610083 0.790894 0.047794
vn 0.463054 -0.293547 -0.836308
vn -0.776384 0.625885 0.074142
vn 0.335824 0.263520 -0.904312
vn -0.428523 -0.870878 0.240708
vn -0.913343 0.397549 -0.088091
vn 0.054863 -0.724048 0.687565
vn 0.264087 -0.737131 0.622009
vn 0.678771 0.687180 -0.258948
vn 0.282840 -0.262895 0.922436
vn -0.957183 0.111503 -0.267148
vn -0.818931 0.571525 -0.052072
vn -0.029496 0.347554 -0.937196
vn 0.852212 0.189193 -0.487792
vn 0.430850 0.145077 0.890686
vn 0.533436 0.124666 0.836603
vn -0.651423 0.015840 0.758549
vn -0.856210 -0.312829 -0.411149
vn 0.637951 0.014707 -0.769936
vn -0.571512 -0.808760 -0.138856
vn -0.025461 0.255333 0.966518
vn 0.594362 0.190711 -0.781257
vn 0.244726 0.337440 0.908980
vn -0.794315 -0.604166 -0.063613
vn 0.004941 -0.247985 0.968751
vn -0.823188 -0.074430 -0.562870
vn 0.719611 -0.190674 -0.667685
vn 0.698014 -0.520545 -0.491740
vn -0.418201 -0.075855 0.905182
vn -0.637917 0.585826 -0.499870
vn 0.492075 -0.753666 -0.435718
vn -0.410297 -0.550868 0.726774
vn 0.052955 0.998185 -0.028674
vn -0.250246 -0.527369 0.811948
vn -0.615900 -0.490801 -0.616264
vn -0.927965 -0.040728 0.370435
vn -0.638270 -0.215908 -0.738915
vn 0.784593 -0.182618 -0.592507
vn 0.769533 -0.465004 -0.437710
vn -0.619024 0.354829 -0.700647
vn -0.216370 -0.239755 0.946415
vn 0.598514 -0.604023 -0.526249
vn -0.829439 0.387806 -0.402041
vn -0.632540 0.081932 0.770182
vn -0.617782 -0.587635 -0.522523
vn 0.631481 0.250877 -0.733684
vn 0.869979 0.445209 -0.211956
vn -0.769118 0.626058 0.128488
vn 0.849705 0.414655 0.325672
vn -0.749155 0.444684 0.490941
vn 0.005948 -0.540282 -0.841463
vn 0.073599 -0.532816 -0.843024
vn 0.940723 -0.132798 0.312099
vn 0.140486 -0.061298 -0.988183
vn -0.607642 -0.162706 0.777366
vn 0.901876 -0.083402 0.423867
vn -0.267461 0.071328 -0.960925
vn -0.616133 -0.333804 0.713411
vn 0.713539 0.423693 -0.557984
vn 0.605793 0.007061 0.795591
vn -0.497179 -0.756290 0.425251
vn 0.769706 0.159935 0.618040
vn 0.297280 0.792897 -0.531920
vn -0.564539 -0.818062 0.109865
vn 0.847337 0.419663 0.325429
vn 0.352779 0.569910 -0.742125
vn 0.928813 0.197891 0.313283
vn -0.654173 0.147548 0.741814
vn 0.877602 0.116022 0.465139
vn -0.718023 0.090317 0.690135
vn 0.124761 0.300546 -0.945572
vn 0.227165 0.002684 -0.973853
vn -0.678871 -0.001462 0.734256
vn 0.679061 0.502558 0.535082
vn 0.374059 -0.224198 -0.899897
vn 0.450392 0.784505 0.426262
vn -0.136895 -0.279461 0.950348
vn 0.708326 -0.411146 -0.573789
vn 0.698898 0.563565 0.440382
vn 0.742936 0.574893 0.342848
vn 0.758587 -0.111485 -0.641963
vn -0.816178 0.330949 -0.473630
vn 0.719255 0.542896 -0.433516
vn -0.704517 0.519625 -0.483369
vn 0.074395 -0.121452 0.989805
vn 0.358856 0.243872 0.900971
vn 0.568614 0.248026 0.784322
vn 0.529646 -0.517146 -0.672336
vn -0.848983 0.266311 -0.456405
vn 0.738412 -0.148003 0.657908
vn 0.309824 -0.730442 -0.608657
vn -0.901857 -0.068521 -0.426567
vn -0.090449 -0.738364 0.668310
vn 0.869659 0.134541 -0.474965
vn 0.379909 -0.525217 0.761457
vn 0.331842 -0.581124 -0.743086
vn -0.763418 -0.082422 -0.640625
vn -0.966969 0.223676 0.122231
vn 0.838799 -0.318121 0.441831
vn 0.438159 0.385610 -0.811987
vn -0.727176 -0.617665 -0.299508
vn 0.453691 -0.623288 -0.636927
vn -0.367513 0.753945 0.544519
vn 0.420523 0.906682 -0.032977
vn 0.980464 0.098497 -0.170259
vn -0.372866 0.131944 -0.918456
vn 0.901649 0.408213 -0.142794
vn -0.385387 0.307353 -0.870064
vn -0.522292 0.215798 0.825011
vn -0.274016 0.322589 0.906009
vn 0.735866 -0.101426 0.669488
vn 0.746025 -0.354528 -0.563699
vn -0.878502 0.207041 -0.430545
vn 0.140301 0.149711 0.978725
vn 0.779093 -0.615483 -0.119141
vn -0.404404 -0.244210 -0.881373
vn -0.376050 0.261591 0.888907
vn 0.228409 -0.158499 0.960577
vn 0.858333 -0.484882 -0.167791
vn 0.743969 -0.353885 -0.566811
vn -0.712374 -0.073864 -0.697902
vn -0.480657 -0.173458 -0.859582
vn 0.279891 -0.355869 0.891638
vn 0.798873 0.053340 -0.599130
vn -0.918324 -0.364400 -0.154577
vn 0.590626 -0.242519 -0.769640
vn 0.458795 0.887766 -0.037123
vn -0.167391 -0.063443 0.983847
vn 0.566482 -0.270695 0.778346
vn 0.753868 -0.131404 -0.643752
vn 0.549915 0.164979 -0.818764
vn -0.814568 -0.423418 -0.396481
vn -0.668969 -0.479884 -0.567619
vn -0.025542 -0.594724 0.803524
vn 0.736616 0.487000 -0.469285
vn -0.544309 -0.503665 -0.670858
vn 0.782207 -0.622930 -0.010583
vn 0.963678 0.210094 -0.164880
vn 0.655504 -0.017341 -0.754993
vn -0.816806 -0.032739 -0.575982
vn -0.892112 0.447098 0.065113
vn -0.928463 0.336260 0.157752
vn 0.392006 0.572445 -0.720165
vn 0.473416 0.836843 -0.274901
vn 0.790564 -0.029401 0.611674
vn 0.951115 0.120365 0.284415
vn 0.761421 0.262688 0.592649
vn 0.322962 -0.172129 -0.930627
vn 0.099683 -0.646989 -0.755955
vn -0.923996 -0.234524 -0.302044
vn 0.706137 0.227035 0.670691
vn 0.472740 -0.737086 -0.482931
vn -0.964374 -0.264515 -0.003755
vn 0.789148 -0.385914 0.477824
vn 0.595242 0.175170 -0.784221
vn 0.766069 -0.151906 0.624551
vn 0.292515 -0.432829 -0.852698
vn -0.472054 -0.797165 -0.376422
vn -0.921157 0.042162 0.386901
vn 0.849698 -0.467956 0.242963
vn 0.566608 0.665657 -0.485651
vn -0.299576 -0.759292 -0.577694
vn 0.103058 -0.154642 -0.982581
vn 0.409000 0.906992 0.100421
vn -0.761124 -0.042973 -0.647181
vn -0.822630 -0.496362 0.277315
vn -0.708112 0.476170 -0.521382
vn -0.089956 0.602527 -0.793013
vn -0.214771 -0.022401 -0.976408
vn -0.016945 -0.343243 -0.939094
vn -0.525193 -0.387057 -0.757865
vn -0.698937 0.143419 0.700655
vn -0.282392 -0.626713 -0.726282
vn -0.296075 0.236197 0.925500
vn 0.857538 0.230499 0.459890
vn 0.945030 -0.118709 -0.304676
vn -0.231034 -0.438005 -0.868778
vn -0.461986 -0.066879 -0.884362
vn -0.610424 -0.631485 0.478130
vn -0.713831 -0.434922 0.548897
vn 0.632649 -0.630239 -0.450060
vn -0.610528 0.227178 -0.758713
vn -0.735915 -0.598206 0.317143
vn -0.562739 -0.053185 -0.824922
vn -0.090776 0.932323 0.350049
vn -0.018320 0.907832 -0.418934
vn -0.573561 0.809374 -0.126263
vn -0.894069 -0.079309 0.440851
vn 0.994120 -0.107101 0.015965
vn 0.683252 0.082580 -0.725498
vn 0.837719 0.436413 -0.328284
vn 0.824996 -0.125185 -0.551098
vn -0.329534 0.735587 -0.591877
vn -0.990285 -0.077744 0.115286
vn -0.294638 0.889389 -0.349536
vn 0.790622 -0.490041 0.367118
vn 0.655557 0.538695 -0.529199
vn 0.655404 -0.700671 0.281966
vn 0.690702 0.718264 -0.083827
vn 0.893964 0.024618 0.447462
vn 0.693715 0.168687 -0.700218
vn -0.396215 0.534378 -0.746628
vn -0.933473 -0.268929 0.237288
vn 0.836848 -0.021699 0.547005
vn 0.573589 -0.319822 -0.754128
vn -0.275156 -0.059479 -0.959558
vn -0.573148 -0.461204 -0.677342
vn -0.804553 0.031333 0.593054
vn 0.566928 -0.672343 0.475970
vn 0.594911 -0.744916 -0.301962
vn 0.695465 0.001569 -0.718558
vn 0.628541 0.504460 -0.591994
vn -0.253047 0.783292 -0.567821
vn -0.641703 -0.722021 -0.258654
vn -0.425096 -0.223964 -0.877003
vn -0.754126 -0.368671 0.543485
vn 0.729396 -0.459619 -0.506687
vn 0.413178 0.854848 -0.313878
vn -0.244888 0.969492 -0.010749
vn -0.969062 -0.115432 -0.218161
vn 0.237682 0.931392 -0.275709
vn 0.316204 0.461366 0.828949
vn -0.923795 0.090994 0.371919
vn -0.255039 0.964911 0.062461
vn -0.074670 -0.820061 -0.567384
vn -0.880835 0.094409 0.463915
vn 0.332718 0.897800 -0.288537
vn 0.560609 0.578340 -0.592655
vn -0.936974 -0.079233 -0.340296
vn 0.361766 0.929010 -0.077879
vn -0.999158 -0.032870 0.024566
vn 0.159220 -0.790532 0.591362
vn 0.583516 -0.460981 0.668585
vn 0.872598 0.011524 0.488303
vn 0.607169 -0.020954 -0.794296
vn -0.827576 0.033584 -0.560348
vn 0.499080 -0.343981 0.795359
vn 0.312955 -0.497548 -0.809015
vn -0.966148 0.248825 -0.068154
vn 0.102777 -0.958061 0.267498
vn 0.708073 0.575081 -0.409773
vn 0.507019 -0.584536 0.633443
vn 0.477337 -0.204961 -0.854482
vn -0.544029 -0.627193 -0.557370
vn -0.938946 -0.343997 0.006779
vn 0.978469 0.156040 0.135090
vn 0.506800 0.822456 -0.258303
vn -0.685528 0.036794 -0.727116
vn 0.385765 0.798895 -0.461468
vn -0.160518 0.508858 0.845753
vn -0.777692 0.415554 0.471710
vn -0.564708 0.638189 0.523278
vn -0.759783 -0.518420 0.392391
vn -0.298014 -0.739946 0.603049
vn -0.221457 0.952840 -0.207490
vn 0.413680 0.480031 -0.773589
vn -0.034918 0.563938 0.825079
vn -0.680770 -0.670210 -0.295587
vn 0.492312 0.493530 -0.716978
vn -0.357202 0.319578 0.877654
vn -0.412568 -0.892597 0.181820
vn -0.718627 0.496156 0.487241
vn 0.800571 -0.274125 -0.532862
vn -0.651244 -0.491472 0.578219
vn 0.402777 0.913696 0.054134
vn -0.649304 -0.279690 0.707232
vn 0.266968 0.949270 0.166176
vn 0.071558 -0.339227 -0.937979
vn 0.202370 -0.241964 -0.948947
vn -0.620752 0.237947 0.747026
vn 0.428533 0.873172 0.232229
vn 0.182033 -0.258996 -0.948570
vn 0.197897 0.895453 0.398749
vn -0.581463 0.021396 0.813291
vn 0.312293 0.904744 0.289675
vn 0.330395 -0.441546 -0.834192
f 30/2/1 29/6/2 1/1/3
f 1/1/3 29/6/2 26/14/4
f 13/4/5 3/5/6 31/3/7
f 31/3/7 3/5/6 32/7/8
f 3/5/6 15/8/9 32/7/8
f 32/7/8 15/8/9 34/9/10
f 1/1/3 24/15/11 30/2/1
f 30/2/1 24/15/11 35/19/12
f 36/10/13 38/11/14 37/12/15
f 42/16/16 41/17/17 39/13/18
f 39/13/18 41/17/17 40/18/19
f 38/11/14 41/17/17 37/12/15
f 37/12/15 41/17/17 42/16/16
f 13/4/5 31/3/7 18/28/20
f 18/28/20 31/3/7 43/23/21
f 31/3/7 36/10/13 43/23/21
f 43/23/21 36/10/13 37/12/15
f 44/37/22 42/16/16 16/29/23
f 16/29/23 42/16/16 39/13/18
f 43/23/21 37/12/15 44/37/22
f 44/37/22 37/12/15 42/16/16
f 43/23/21 44/37/22 18/28/20
f 18/28/20 44/37/22 25/43/24
f 25/43/24 44/37/22 16/29/23
f 45/20/25 48/21/26 46/24/27
f 46/24/27 48/21/26 47/22/28
f 47/22/28 49/25/29 46/24/27
f 36/10/13 51/44/30 38/11/14
f 38/11/14 51/44/30 50/49/31
f 41/17/17 38/11/14 52/50/32
f 52/50/32 38/11/14 50/49/31
f 31/3/7 32/7/8 36/10/13
f 36/10/13 32/7/8 51/44/30
f 29/6/2 55/26/33 53/30/34
f 53/30/34 55/26/33 54/27/35
f 45/20/25 54/27/35 48/21/26
f 48/21/26 54/27/35 56/31/36
f 60/33/37 59/34/38 57/32/39
f 57/32/39 59/34/38 58/35/40
f 16/29/23 39/13/18 19/51/41
f 19/51/41 39/13/18 61/52/42
f 62/53/43 61/52/42 40/18/19
f 40/18/19 61/52/42 39/13/18
f 63/54/44 64/55/45 27/57/46
f 27/57/46 64/55/45 21/56/47
f 63/54/44 61/52/42 65/58/48
f 65/58/48 61/52/42 62/53/43
f 64/55/45 66/59/49 20/60/50
f 27/57/46 19/51/41 63/54/44
f 63/54/44 19/51/41 61/52/42
f 64/55/45 63/54/44 66/59/49
f 66/59/49 63/54/44 65/58/48
f 20/60/50 21/56/47 64/55/45
f 12/61/51 11/65/52 67/67/53
f 67/67/53 11/65/52 33/66/54
f 15/8/9 14/76/55 34/9/10
f 34/9/10 14/76/55 68/77/56
f 67/67/53 68/77/56 12/61/51
f 12/61/51 68/77/56 14/76/55
f 33/66/54 70/79/57 69/78/58
f 69/78/58 70/79/57 71/84/59
f 33/66/54 69/78/58 67/67/53
f 67/67/53 69/78/58 72/85/60
f 57/32/39 35/19/12 60/33/37
f 60/33/37 35/19/12 73/36/61
f 24/15/11 17/38/62 35/19/12
f 35/19/12 17/38/62 73/36/61
f 74/40/63 73/36/61 28/39/64
f 28/39/64 73/36/61 17/38/62
f 76/41/65 75/42/66 60/33/37
f 60/33/37 75/42/66 59/34/38
f 75/42/66 76/41/65 22/45/67
f 22/45/67 76/41/65 23/46/68
f 65/58/48 59/86/38 66/59/49
f 66/59/49 59/86/38 75/87/66
f 66/59/49 75/87/66 20/60/50
f 20/60/50 75/87/66 22/88/67
f 74/40/63 28/39/64 23/46/68
f 60/33/37 73/36/61 76/41/65
f 76/41/65 73/36/61 74/40/63
f 23/46/68 76/41/65 74/40/63
f 77/47/69 30/2/1 57/32/39
f 57/32/39 30/2/1 35/19/12
f 55/26/33 29/6/2 77/47/69
f 77/47/69 29/6/2 30/2/1
f 78/48/70 56/31/36 55/26/33
f 55/26/33 56/31/36 54/27/35
f 79/62/71 77/47/69 58/35/40
f 58/35/40 77/47/69 57/32/39
f 78/48/70 55/26/33 79/62/71
f 79/62/71 55/26/33 77/47/69
f 52/50/32 80/89/72 41/17/17
f 41/17/17 80/89/72 40/18/19
f 80/89/72 81/90/73 40/18/19
f 40/18/19 81/90/73 62/53/43
f 62/53/43 81/90/73 65/58/48
f 81/90/73 58/91/40 65/58/48
f 65/58/48 58/91/40 59/86/38
f 82/98/74 79/99/71 81/90/73
f 81/90/73 79/99/71 58/91/40
f 52/50/32 50/49/31 83/101/75
f 83/101/75 50/49/31 84/100/76
f 80/89/72 52/50/32 85/102/77
f 85/102/77 52/50/32 83/101/75
f 81/90/73 80/89/72 82/98/74
f 82/98/74 80/89/72 85/102/77
f 86/103/78 88/104/79 87/106/80
f 87/106/80 88/104/79 78/105/70
f 85/102/77 83/101/75 87/106/80
f 87/106/80 83/101/75 86/103/78
f 34/9/10 114/107/81 32/7/8
f 68/77/56 67/67/53 113/108/82
f 113/108/82 67/67/53 72/85/60
f 51/44/30 89/109/83 50/49/31
f 50/49/31 89/109/83 84/100/76
f 83/101/75 84/100/76 86/103/78
f 86/103/78 84/100/76 92/110/84
f 26/14/4 29/6/2 2/63/85
f 2/63/85 29/6/2 53/30/34
f 93/64/86 4/68/87 2/63/85
f 94/69/88 5/70/89 93/64/86
f 93/64/86 5/70/89 4/68/87
f 2/63/85 53/30/34 93/64/86
f 93/64/86 53/30/34 95/71/90
f 93/64/86 95/71/90 94/69/88
f 94/69/88 95/71/90 96/72/91
f 95/71/90 45/20/25 96/72/91
f 96/72/91 45/20/25 46/24/27
f 95/71/90 53/30/34 45/20/25
f 45/20/25 53/30/34 54/27/35
f 7/73/92 98/74/93 9/80/94
f 9/80/94 98/74/93 97/75/95
f 100/82/96 97/75/95 99/81/97
f 99/81/97 97/75/95 98/74/93
f 101/83/98 102/92/99 49/25/29
f 49/25/29 102/92/99 100/82/96
f 103/111/100 105/112/101 104/114/102
f 104/114/102 105/112/101 102/113/99
f 102/92/99 105/93/101 100/82/96
f 100/82/96 105/93/101 97/75/95
f 103/111/100 104/114/102 70/79/57
f 70/79/57 104/114/102 71/84/59
f 98/74/93 7/73/92 94/69/88
f 94/69/88 7/73/92 5/70/89
f 99/81/97 98/74/93 96/72/91
f 96/72/91 98/74/93 94/69/88
f 49/25/29 99/81/97 46/24/27
f 46/24/27 99/81/97 96/72/91
f 11/65/52 6/115/103 33/66/54
f 33/66/54 6/115/103 70/79/57
f 70/79/57 6/115/103 103/111/100
f 103/111/100 6/115/103 8/116/104
f 8/116/104 10/117/105 103/111/100
f 103/111/100 10/117/105 105/112/101
f 10/94/105 9/80/94 105/93/101
f 105/93/101 9/80/94 97/75/95
f 106/95/106 47/22/28 48/21/26
f 47/121/28 107/119/107 108/120/108
f 48/21/26 201/228/109 106/95/106
f 69/78/58 110/122/110 72/85/60
f 72/85/60 110/122/110 91/123/111
f 201/227/109 107/119/107 106/118/106
f 111/125/112 90/126/113 107/119/107
f 107/119/107 90/126/113 91/123/111
f 111/125/112 92/110/84 90/126/113
f 88/104/79 86/103/78 111/125/112
f 111/125/112 86/103/78 92/110/84
f 107/119/107 91/123/111 108/120/108
f 108/120/108 91/123/111 110/122/110
f 112/127/114 71/84/59 104/114/102
f 82/98/74 85/102/77 87/106/80
f 79/99/71 82/98/74 78/105/70
f 78/105/70 82/98/74 87/106/80
f 109/96/115 56/31/36 88/97/79
f 88/97/79 56/31/36 78/48/70
f 111/125/112 109/124/115 88/104/79
f 108/120/108 110/122/110 112/127/114
f 101/83/98 49/25/29 47/22/28
f 84/100/76 89/109/83 92/110/84
f 92/110/84 89/109/83 90/126/113
f 112/127/114 101/128/98 108/120/108
f 108/120/108 101/128/98 47/121/28
f 71/84/59 112/127/114 69/78/58
f 69/78/58 112/127/114 110/122/110
f 112/127/114 104/114/102 101/128/98
f 101/128/98 104/114/102 102/113/99
f 49/25/29 100/82/96 99/81/97
f 113/108/82 114/107/81 68/77/56
f 68/77/56 114/107/81 34/9/10
f 113/108/82 72/85/60 90/126/113
f 90/126/113 72/85/60 91/123/111
f 114/107/81 113/108/82 89/109/83
f 89/109/83 113/108/82 90/126/113
f 32/7/8 114/107/81 51/44/30
f 51/44/30 114/107/81 89/109/83
f 1/1/3 26/14/4 115/130/116
f 115/130/116 26/14/4 116/129/117
f 118/134/118 3/5/6 117/133/119
f 117/133/119 3/5/6 13/4/5
f 119/135/120 15/8/9 118/134/118
f 118/134/118 15/8/9 3/5/6
f 120/131/121 24/15/11 115/130/116
f 115/130/116 24/15/11 1/1/3
f 121/136/122 123/137/123 122/138/124
f 127/142/125 126/143/126 124/141/127
f 124/141/127 126/143/126 125/144/128
f 122/138/124 123/137/123 126/143/126
f 126/143/126 123/137/123 125/144/128
f 18/28/20 128/145/129 13/4/5
f 13/4/5 128/145/129 117/133/119
f 128/145/129 123/137/123 117/133/119
f 117/133/119 123/137/123 121/136/122
f 124/141/127 125/144/128 16/29/23
f 16/29/23 125/144/128 129/146/130
f 125/144/128 123/137/123 129/146/130
f 129/146/130 123/137/123 128/145/129
f 25/43/24 129/146/130 18/28/20
f 18/28/20 129/146/130 128/145/129
f 25/43/24 16/29/23 129/146/130
f 130/132/131 133/139/132 131/153/133
f 131/153/133 133/139/132 132/140/134
f 132/140/134 133/139/132 134/154/135
f 136/147/136 135/148/137 122/138/124
f 122/138/124 135/148/137 121/136/122
f 126/143/126 137/149/138 122/138/124
f 122/138/124 137/149/138 136/147/136
f 135/148/137 118/134/118 121/136/122
f 121/136/122 118/134/118 117/133/119
f 116/129/117 140/155/139 138/157/140
f 138/157/140 140/155/139 139/156/141
f 131/153/133 141/161/142 130/132/131
f 130/132/131 141/161/142 139/156/141
f 145/163/143 144/164/144 142/162/145
f 142/162/145 144/164/144 143/165/146
f 146/150/147 124/141/127 19/51/41
f 19/51/41 124/141/127 16/29/23
f 124/141/127 146/150/147 127/142/125
f 127/142/125 146/150/147 147/151/148
f 148/152/149 27/57/46 149/158/150
f 149/158/150 27/57/46 21/56/47
f 148/152/149 150/159/151 146/150/147
f 146/150/147 150/159/151 147/151/148
f 149/158/150 20/60/50 151/160/152
f 27/57/46 148/152/149 19/51/41
f 19/51/41 148/152/149 146/150/147
f 150/159/151 148/152/149 151/160/152
f 151/160/152 148/152/149 149/158/150
f 20/60/50 149/158/150 21/56/47
f 12/61/51 153/169/153 11/65/52
f 11/65/52 153/169/153 152/170/154
f 154/171/155 14/76/55 119/135/120
f 119/135/120 14/76/55 15/8/9
f 153/169/153 12/61/51 154/171/155
f 154/171/155 12/61/51 14/76/55
f 157/173/156 156/174/157 155/172/158
f 155/172/158 156/174/157 152/170/154
f 158/175/159 155/172/158 153/169/153
f 153/169/153 155/172/158 152/170/154
f 159/166/160 120/131/121 143/165/146
f 143/165/146 120/131/121 142/162/145
f 24/15/11 120/131/121 17/38/62
f 17/38/62 120/131/121 159/166/160
f 17/38/62 159/166/160 28/39/64
f 28/39/64 159/166/160 160/167/161
f 144/164/144 162/168/162 143/165/146
f 143/165/146 162/168/162 161/189/163
f 23/46/68 161/189/163 22/45/67
f 22/45/67 161/189/163 162/168/162
f 162/176/162 144/177/144 151/160/152
f 151/160/152 144/177/144 150/159/151
f 22/88/67 162/176/162 20/60/50
f 20/60/50 162/176/162 151/160/152
f 160/167/161 23/46/68 28/39/64
f 160/167/161 159/166/160 161/189/163
f 161/189/163 159/166/160 143/165/146
f 23/46/68 160/167/161 161/189/163
f 120/131/121 115/130/116 142/162/145
f 142/162/145 115/130/116 163/190/164
f 115/130/116 116/129/117 163/190/164
f 163/190/164 116/129/117 138/157/140
f 164/191/165 138/157/140 141/161/142
f 141/161/142 138/157/140 139/156/141
f 165/192/166 145/163/143 163/190/164
f 163/190/164 145/163/143 142/162/145
f 164/191/165 165/192/166 138/157/140
f 138/157/140 165/192/166 163/190/164
f 137/149/138 126/143/126 166/178/167
f 166/178/167 126/143/126 127/142/125
f 166/178/167 127/142/125 167/179/168
f 167/179/168 127/142/125 147/151/148
f 147/151/148 150/159/151 167/179/168
f 144/177/144 145/180/143 150/159/151
f 150/159/151 145/180/143 167/179/168
f 145/180/143 165/181/166 167/179/168
f 167/179/168 165/181/166 168/182/169
f 137/149/138 170/183/170 136/147/136
f 136/147/136 170/183/170 169/184/171
f 170/183/170 137/149/138 171/185/172
f 171/185/172 137/149/138 166/178/167
f 167/179/168 168/182/169 166/178/167
f 166/178/167 168/182/169 171/185/172
f 172/186/173 174/187/174 173/197/175
f 173/197/175 174/187/174 164/188/165
f 171/185/172 174/187/174 170/183/170
f 170/183/170 174/187/174 172/186/173
f 119/135/120 118/134/118 175/198/176
f 154/171/155 176/199/177 153/169/153
f 153/169/153 176/199/177 158/175/159
f 169/184/171 177/203/178 136/147/136
f 136/147/136 177/203/178 135/148/137
f 170/183/170 172/186/173 169/184/171
f 169/184/171 172/186/173 178/204/179
f 2/63/85 140/155/139 26/14/4
f 26/14/4 140/155/139 116/129/117
f 179/193/180 2/63/85 4/68/87
f 180/194/181 179/193/180 5/70/89
f 5/70/89 179/193/180 4/68/87
f 181/195/182 140/155/139 179/193/180
f 179/193/180 140/155/139 2/63/85
f 182/196/183 181/195/182 180/194/181
f 180/194/181 181/195/182 179/193/180
f 182/196/183 133/139/132 181/195/182
f 181/195/182 133/139/132 130/132/131
f 139/156/141 140/155/139 130/132/131
f 130/132/131 140/155/139 181/195/182
f 7/73/92 9/80/94 183/201/184
f 183/201/184 9/80/94 184/200/185
f 185/202/186 183/201/184 186/219/187
f 186/219/187 183/201/184 184/200/185
f 187/220/188 134/154/135 188/221/189
f 188/221/189 134/154/135 186/219/187
f 189/205/190 191/206/191 190/208/192
f 190/208/192 191/206/191 188/207/189
f 188/221/189 186/219/187 190/222/192
f 190/222/192 186/219/187 184/200/185
f 157/173/156 191/206/191 156/174/157
f 156/174/157 191/206/191 189/205/190
f 5/70/89 7/73/92 180/194/181
f 180/194/181 7/73/92 183/201/184
f 180/194/181 183/201/184 182/196/183
f 182/196/183 183/201/184 185/202/186
f 182/196/183 185/202/186 133/139/132
f 133/139/132 185/202/186 134/154/135
f 11/65/52 152/170/154 6/115/103
f 6/115/103 152/170/154 156/174/157
f 8/116/104 6/115/103 189/205/190
f 189/205/190 6/115/103 156/174/157
f 190/208/192 10/117/105 189/205/190
f 189/205/190 10/117/105 8/116/104
f 10/94/105 190/222/192 9/80/94
f 9/80/94 190/222/192 184/200/185
f 192/223/193 131/153/133 132/140/134
f 192/209/193 132/210/134 193/212/194
f 202/229/195 131/153/133 192/223/193
f 155/172/158 158/175/159 196/214/196
f 196/214/196 158/175/159 197/213/197
f 193/212/194 202/230/195 192/209/193
f 197/213/197 199/217/198 193/212/194
f 193/212/194 199/217/198 198/216/199
f 198/216/199 199/217/198 178/204/179
f 178/204/179 172/186/173 198/216/199
f 198/216/199 172/186/173 173/197/175
f 196/214/196 197/213/197 194/211/200
f 194/211/200 197/213/197 193/212/194
f 200/218/201 191/206/191 157/173/156
f 168/182/169 174/187/174 171/185/172
f 174/187/174 168/182/169 164/188/165
f 164/188/165 168/182/169 165/181/166
f 164/191/165 141/161/142 173/225/175
f 173/225/175 141/161/142 195/224/202
f 198/216/199 173/197/175 195/215/202
f 194/211/200 200/218/201 196/214/196
f 187/220/188 132/140/134 134/154/135
f 199/217/198 177/203/178 178/204/179
f 178/204/179 177/203/178 169/184/171
f 132/210/134 187/226/188 194/211/200
f 194/211/200 187/226/188 200/218/201
f 196/214/196 200/218/201 155/172/158
f 155/172/158 200/218/201 157/173/156
f 188/207/189 191/206/191 187/226/188
f 187/226/188 191/206/191 200/218/201
f 134/154/135 185/202/186 186/219/187
f 176/199/177 154/171/155 175/198/176
f 175/198/176 154/171/155 119/135/120
f 197/213/197 158/175/159 199/217/198
f 199/217/198 158/175/159 176/199/177
f 199/217/198 176/199/177 177/203/178
f 177/203/178 176/199/177 175/198/176
f 118/134/118 135/148/137 175/198/176
f 175/198/176 135/148/137 177/203/178
f 193/212/194 132/210/134 194/211/200
f 106/118/106 107/119/107 47/121/28
f 201/228/109 48/21/26 109/96/115
f 109/96/115 48/21/26 56/31/36
f 111/125/112 107/119/107 109/124/115
f 109/124/115 107/119/107 201/227/109
f 202/230/195 193/212/194 195/215/202
f 195/215/202 193/212/194 198/216/199
f 141/161/142 131/153/133 195/224/202
f 195/224/202 131/153/133 202/229/195
f 207/231/203 208/232/204 205/255/205
f 205/255/205 208/232/204 204/233/206
f 208/232/204 207/231/203 203/235/207
f 203/235/207 207/231/203 206/236/208
f 207/231/203 210/237/209 206/236/208
f 206/236/208 210/237/209 209/238/210
f 207/231/203 205/255/205 210/237/209
f 210/237/209 205/255/205 211/254/211
f 209/238/210 210/237/209 212/241/212
f 212/241/212 210/237/209 213/240/213
f 211/254/211 214/253/214 210/237/209
f 210/237/209 214/253/214 213/240/213
f 212/241/212 213/240/213 215/244/215
f 215/244/215 213/240/213 216/243/216
f 214/253/214 217/252/217 213/240/213
f 213/240/213 217/252/217 216/243/216
f 215/244/215 216/243/216 218/247/218
f 218/247/218 216/243/216 219/246/219
f 216/243/216 217/252/217 219/246/219
f 219/246/219 217/252/217 220/251/220
f 218/247/218 219/246/219 221/259/221
f 219/246/219 220/251/220 221/249/221
f 215/244/215 218/247/218 217/245/217
f 217/245/217 218/247/218 220/248/220
f 218/247/218 221/260/221 220/248/220
f 212/241/212 215/244/215 214/242/214
f 214/242/214 215/244/215 217/245/217
f 222/257/222 208/232/204 203/235/207
f 222/250/222 203/235/207 204/256/206
f 222/258/222 204/233/206 208/232/204
f 206/236/208 205/234/205 203/235/207
f 203/235/207 205/234/205 204/256/206
f 209/238/210 211/239/211 206/236/208
f 206/236/208 211/239/211 205/234/205
f 212/241/212 214/242/214 209/238/210
f 209/238/210 214/242/214 211/239/211
f 223/261/223 224/262/224 226/264/225
f 226/264/225 224/262/224 225/263/226
f 227/265/227 224/262/224 228/266/228
f 228/266/228 224/262/224 223/261/223
f 228/266/228 223/261/223 230/268/229
f 230/268/229 223/261/223 229/267/230
f 226/264/225 231/269/231 223/261/223
f 223/261/223 231/269/231 229/267/230
f 230/268/229 229/267/230 278/344/232
f 278/344/232 229/267/230 277/343/233
f 231/269/231 279/345/234 229/267/230
f 229/267/230 279/345/234 277/343/233
f 232/270/235 235/273/236 233/271/237
f 233/271/237 235/273/236 236/274/238
f 234/272/239 237/275/240 232/270/235
f 232/270/235 237/275/240 235/273/236
f 236/274/238 235/273/236 239/277/241
f 239/277/241 235/273/236 238/276/242
f 237/275/240 240/278/243 235/273/236
f 235/273/236 240/278/243 238/276/242
f 239/277/241 238/276/242 241/279/244
f 238/276/242 240/278/243 241/280/244
f 239/277/241 240/281/243 236/274/238
f 236/274/238 240/281/243 237/282/240
f 239/277/241 241/283/244 240/281/243
f 236/274/238 237/282/240 233/271/237
f 233/271/237 237/282/240 234/284/239
f 242/285/245 224/262/224 227/265/227
f 242/286/245 227/265/227 225/287/226
f 242/288/245 225/263/226 224/262/224
f 228/266/228 226/289/225 227/265/227
f 227/265/227 226/289/225 225/287/226
f 230/268/229 231/290/231 228/266/228
f 228/266/228 231/290/231 226/289/225
f 278/344/232 279/346/234 230/268/229
f 230/268/229 279/346/234 231/290/231
f 244/292/246 245/293/247 243/291/248
f 243/291/248 245/293/247 246/294/249
f 557/750/250 558/751/251 247/295/252
f 247/295/252 558/751/251 248/296/253
f 558/751/251 559/752/254 248/296/253
f 248/296/253 559/752/254 250/298/255
f 243/291/248 246/294/249 249/297/256
f 249/297/256 246/294/249 251/299/257
f 559/752/254 560/753/258 250/298/255
f 250/298/255 560/753/258 253/301/259
f 251/299/257 254/302/260 249/297/256
f 249/297/256 254/302/260 252/300/261
f 560/753/258 255/303/262 253/301/259
f 253/301/259 255/303/262 256/304/263
f 254/302/260 257/305/264 252/300/261
f 252/300/261 257/305/264 255/303/262
f 255/303/262 554/746/265 256/304/263
f 256/304/263 554/746/265 555/747/266
f 255/303/262 257/305/264 554/746/265
f 554/746/265 257/305/264 556/748/267
f 259/307/268 258/306/269 261/309/270
f 258/306/269 260/308/271 261/310/270
f 256/304/263 555/747/266 257/312/264
f 257/312/264 555/747/266 556/749/267
f 259/307/268 261/313/270 260/311/271
f 256/304/263 257/312/264 253/301/259
f 253/301/259 257/312/264 254/314/260
f 262/315/272 557/750/250 247/295/252
f 262/316/272 247/295/252 245/317/247
f 262/318/272 245/293/247 244/292/246
f 248/296/253 246/319/249 247/295/252
f 247/295/252 246/319/249 245/317/247
f 248/296/253 250/298/255 246/319/249
f 246/319/249 250/298/255 251/320/257
f 250/298/255 253/301/259 251/320/257
f 251/320/257 253/301/259 254/314/260
f 266/324/273 267/325/274 263/321/275
f 263/321/275 267/325/274 265/323/276
f 266/324/273 263/321/275 268/326/277
f 268/326/277 263/321/275 264/322/278
f 266/324/273 269/327/279 267/325/274
f 267/325/274 269/327/279 270/328/280
f 268/326/277 271/329/281 266/324/273
f 266/324/273 271/329/281 269/327/279
f 272/330/282 273/331/283 269/327/279
f 269/327/279 273/331/283 270/328/280
f 272/330/282 269/327/279 274/332/284
f 274/332/284 269/327/279 271/329/281
f 273/331/283 272/330/282 275/333/285
f 272/330/282 274/332/284 275/334/285
f 273/331/283 274/335/284 270/328/280
f 270/328/280 274/335/284 271/337/281
f 273/331/283 275/336/285 274/335/284
f 276/338/286 263/321/275 265/323/276
f 276/339/286 265/323/276 264/340/278
f 276/341/286 264/322/278 263/321/275
f 268/342/277 264/340/278 267/325/274
f 267/325/274 264/340/278 265/323/276
f 270/328/280 271/337/281 267/325/274
f 267/325/274 271/337/281 268/342/277
f 277/343/233 232/270/235 278/344/232
f 278/344/232 232/270/235 233/271/237
f 278/344/232 233/271/237 279/346/234
f 279/346/234 233/271/237 234/284/239
f 277/343/233 279/345/234 232/270/235
f 232/270/235 279/345/234 234/272/239
f 283/350/287 535/721/288 282/349/289
f 282/349/289 535/721/288 281/348/290
f 281/348/290 535/721/288 284/351/291
f 284/351/291 535/721/288 285/352/292
f 564/757/293 280/347/294 563/756/295
f 563/756/295 280/347/294 286/353/296
f 280/347/294 283/350/287 286/353/296
f 286/353/296 283/350/287 288/355/297
f 563/756/295 286/353/296 562/755/298
f 562/755/298 286/353/296 289/356/299
f 286/353/296 288/355/297 289/356/299
f 289/356/299 288/355/297 291/358/300
f 561/754/301 562/755/298 292/359/302
f 292/359/302 562/755/298 289/356/299
f 289/356/299 291/358/300 292/359/302
f 292/359/302 291/358/300 294/361/303
f 295/362/304 561/754/301 292/359/302
f 292/359/302 294/361/303 295/362/304
f 295/362/304 294/361/303 297/364/305
f 296/363/306 295/362/304 298/365/307
f 295/362/304 297/364/305 298/366/307
f 293/360/308 296/363/306 294/368/303
f 294/368/303 296/363/306 297/367/305
f 296/363/306 298/369/307 297/367/305
f 293/360/308 294/368/303 290/357/309
f 290/357/309 294/368/303 291/370/300
f 299/371/310 281/348/290 284/351/291
f 299/372/310 284/351/291 282/373/289
f 299/374/310 282/349/289 281/348/290
f 285/352/292 283/375/287 284/351/291
f 284/351/291 283/375/287 282/373/289
f 285/352/292 287/354/311 283/375/287
f 283/375/287 287/354/311 288/376/297
f 287/354/311 290/357/309 288/376/297
f 288/376/297 290/357/309 291/370/300
f 300/377/312 301/378/313 303/380/314
f 303/380/314 301/378/313 302/379/315
f 304/381/316 301/378/313 305/382/317
f 305/382/317 301/378/313 300/377/312
f 305/382/317 300/377/312 307/384/318
f 307/384/318 300/377/312 306/383/319
f 303/380/314 308/385/320 300/377/312
f 300/377/312 308/385/320 306/383/319
f 306/383/319 309/386/321 307/384/318
f 307/384/318 309/386/321 310/387/322
f 306/383/319 308/385/320 309/386/321
f 309/386/321 308/385/320 311/388/323
f 312/389/324 313/390/325 315/392/326
f 315/392/326 313/390/325 314/391/327
f 313/390/325 316/393/328 314/391/327
f 314/391/327 316/393/328 317/394/329
f 315/392/326 314/391/327 319/396/330
f 319/396/330 314/391/327 318/395/331
f 317/394/329 320/397/332 314/391/327
f 314/391/327 320/397/332 318/395/331
f 319/396/330 318/395/331 321/398/333
f 318/395/331 320/397/332 321/399/333
f 319/396/330 320/400/332 315/392/326
f 315/392/326 320/400/332 317/401/329
f 319/396/330 321/402/333 320/400/332
f 312/389/324 315/392/326 316/403/328
f 316/403/328 315/392/326 317/401/329
f 322/404/334 301/378/313 304/381/316
f 322/405/334 304/381/316 302/406/315
f 322/407/334 302/379/315 301/378/313
f 304/381/316 305/382/317 302/406/315
f 302/406/315 305/382/317 303/408/314
f 307/384/318 308/409/320 305/382/317
f 305/382/317 308/409/320 303/408/314
f 307/384/318 310/387/322 308/409/320
f 308/409/320 310/387/322 311/410/323
f 309/386/321 313/390/325 310/387/322
f 310/387/322 313/390/325 312/389/324
f 310/387/322 312/389/324 311/410/323
f 311/410/323 312/389/324 316/403/328
f 309/386/321 311/388/323 313/390/325
f 313/390/325 311/388/323 316/393/328
f 323/411/335 324/412/336 326/414/337
f 326/414/337 324/412/336 325/413/338
f 324/412/336 327/415/339 325/413/338
f 325/413/338 327/415/339 328/416/340
f 325/413/338 329/417/341 326/414/337
f 326/414/337 329/417/341 330/418/342
f 325/413/338 328/416/340 329/417/341
f 329/417/341 328/416/340 331/419/343
f 330/418/342 329/417/341 332/420/344
f 329/417/341 331/419/343 332/421/344
f 326/414/337 330/418/342 328/423/340
f 328/423/340 330/418/342 331/422/343
f 330/418/342 332/424/344 331/422/343
f 323/411/335 326/414/337 327/425/339
f 327/425/339 326/414/337 328/423/340
f 333/426/345 334/427/346 323/411/335
f 323/411/335 334/427/346 324/412/336
f 333/426/345 323/411/335 335/428/347
f 335/428/347 323/411/335 327/425/339
f 334/427/346 335/429/347 324/412/336
f 324/412/336 335/429/347 327/415/339
f 337/431/348 338/432/349 336/430/350
f 336/430/350 338/432/349 339/433/351
f 340/434/352 337/431/348 341/435/353
f 341/435/353 337/431/348 336/430/350
f 336/430/350 342/436/354 341/435/353
f 341/435/353 342/436/354 343/437/355
f 339/433/351 344/438/356 336/430/350
f 336/430/350 344/438/356 342/436/354
f 342/436/354 345/439/357 343/437/355
f 343/437/355 345/439/357 346/440/358
f 344/438/356 347/441/359 342/436/354
f 342/436/354 347/441/359 345/439/357
f 346/440/358 345/439/357 349/443/360
f 349/443/360 345/439/357 348/442/361
f 347/441/359 350/444/362 345/439/357
f 345/439/357 350/444/362 348/442/361
f 348/442/361 351/445/363 349/443/360
f 349/443/360 351/445/363 352/446/364
f 350/444/362 353/447/365 348/442/361
f 348/442/361 353/447/365 351/445/363
f 352/446/364 351/445/363 354/448/366
f 351/445/363 353/447/365 354/449/366
f 352/446/364 353/450/365 349/443/360
f 349/443/360 353/450/365 350/451/362
f 352/446/364 354/452/366 353/450/365
f 349/443/360 350/451/362 346/440/358
f 346/440/358 350/451/362 347/453/359
f 355/454/367 337/431/348 340/434/352
f 355/455/367 340/434/352 338/456/349
f 355/457/367 338/432/349 337/431/348
f 340/434/352 341/435/353 338/456/349
f 338/456/349 341/435/353 339/458/351
f 343/437/355 344/459/356 341/435/353
f 341/435/353 344/459/356 339/458/351
f 346/440/358 347/453/359 343/437/355
f 343/437/355 347/453/359 344/459/356
f 356/460/368 359/463/369 357/461/370
f 357/461/370 359/463/369 358/462/371
f 361/465/372 356/460/368 360/464/373
f 360/464/373 356/460/368 357/461/370
f 363/467/374 362/466/375 358/462/371
f 358/462/371 362/466/375 357/461/370
f 362/466/375 364/468/376 357/461/370
f 357/461/370 364/468/376 360/464/373
f 362/466/375 363/467/374 365/469/377
f 365/469/377 363/467/374 366/470/378
f 364/468/376 362/466/375 367/471/379
f 367/471/379 362/466/375 365/469/377
f 366/470/378 368/472/380 365/469/377
f 365/469/377 368/473/380 367/471/379
f 366/470/378 367/474/379 368/475/380
f 366/470/378 363/467/374 367/474/379
f 367/474/379 363/467/374 364/476/376
f 369/477/381 359/463/369 356/460/368
f 369/478/381 361/479/372 359/463/369
f 369/480/381 356/460/368 361/465/372
f 358/462/371 359/463/369 360/481/373
f 360/481/373 359/463/369 361/479/372
f 360/481/373 364/476/376 358/462/371
f 358/462/371 364/476/376 363/467/374
f 370/482/382 373/485/383 371/483/384
f 371/483/384 373/485/383 372/484/385
f 374/486/386 375/487/387 371/483/384
f 371/483/384 375/487/387 370/482/382
f 375/487/387 377/489/388 370/482/382
f 370/482/382 377/489/388 376/488/389
f 376/488/389 378/490/390 370/482/382
f 370/482/382 378/490/390 373/485/383
f 377/489/388 380/492/391 376/488/389
f 376/488/389 380/492/391 379/491/392
f 379/491/392 381/493/393 376/488/389
f 376/488/389 381/493/393 378/490/390
f 385/497/394 384/496/395 382/494/396
f 382/494/396 384/496/395 383/495/397
f 384/496/395 387/499/398 383/495/397
f 383/495/397 387/499/398 386/498/399
f 385/497/394 389/501/400 384/496/395
f 384/496/395 389/501/400 388/500/401
f 384/496/395 388/500/401 387/499/398
f 387/499/398 388/500/401 390/502/402
f 389/501/400 391/503/403 388/500/401
f 388/500/401 391/504/403 390/502/402
f 387/506/398 390/505/402 385/497/394
f 385/497/394 390/505/402 389/501/400
f 389/501/400 390/505/402 391/507/403
f 386/508/399 387/506/398 382/494/396
f 382/494/396 387/506/398 385/497/394
f 392/509/404 374/486/386 531/716/405
f 392/510/404 372/511/385 374/486/386
f 392/512/404 531/717/405 372/484/385
f 372/511/385 373/513/383 374/486/386
f 374/486/386 373/513/383 375/487/387
f 373/513/383 378/514/390 375/487/387
f 375/487/387 378/514/390 377/489/388
f 378/514/390 381/515/393 377/489/388
f 377/489/388 381/515/393 380/492/391
f 382/494/396 383/495/397 380/492/391
f 380/492/391 383/495/397 379/491/392
f 381/515/393 386/508/399 380/492/391
f 380/492/391 386/508/399 382/494/396
f 379/491/392 383/495/397 381/493/393
f 381/493/393 383/495/397 386/498/399
f 393/516/406 396/519/407 394/517/408
f 394/517/408 396/519/407 395/518/409
f 398/521/410 393/516/406 397/520/411
f 397/520/411 393/516/406 394/517/408
f 398/521/410 400/523/412 393/516/406
f 393/516/406 400/523/412 399/522/413
f 399/522/413 401/524/414 393/516/406
f 393/516/406 401/524/414 396/519/407
f 403/526/415 402/525/416 400/523/412
f 400/523/412 402/525/416 399/522/413
f 402/525/416 404/527/417 399/522/413
f 399/522/413 404/527/417 401/524/414
f 405/528/418 408/531/419 406/529/420
f 406/529/420 408/531/419 407/530/421
f 406/529/420 407/530/421 409/532/422
f 409/532/422 407/530/421 410/533/423
f 412/535/424 411/534/425 408/531/419
f 408/531/419 411/534/425 407/530/421
f 407/530/421 411/534/425 410/533/423
f 410/533/423 411/534/425 413/536/426
f 412/535/424 414/537/427 411/534/425
f 411/534/425 414/538/427 413/536/426
f 410/540/423 413/539/426 408/531/419
f 408/531/419 413/539/426 412/535/424
f 412/535/424 413/539/426 414/541/427
f 405/528/418 409/542/422 408/531/419
f 408/531/419 409/542/422 410/540/423
f 415/543/428 397/520/411 394/517/408
f 415/544/428 395/545/409 397/520/411
f 415/546/428 394/517/408 395/518/409
f 395/545/409 396/547/407 397/520/411
f 397/520/411 396/547/407 398/521/410
f 396/547/407 401/548/414 398/521/410
f 398/521/410 401/548/414 400/523/412
f 400/523/412 401/548/414 403/526/415
f 403/526/415 401/548/414 404/549/417
f 405/528/418 406/529/420 403/526/415
f 403/526/415 406/529/420 402/525/416
f 409/542/422 405/528/418 404/549/417
f 404/549/417 405/528/418 403/526/415
f 402/525/416 406/529/420 404/527/417
f 404/527/417 406/529/420 409/532/422
f 416/550/429 419/553/430 417/551/431
f 417/551/431 419/553/430 418/552/432
f 417/551/431 418/552/432 420/554/433
f 420/554/433 418/552/432 421/555/434
f 423/557/435 422/556/436 419/553/430
f 419/553/430 422/556/436 418/552/432
f 418/552/432 422/556/436 421/555/434
f 421/555/434 422/556/436 424/558/437
f 423/557/435 425/559/438 422/556/436
f 422/556/436 425/560/438 424/558/437
f 419/553/430 421/562/434 423/557/435
f 423/557/435 421/562/434 424/561/437
f 423/557/435 424/561/437 425/563/438
f 416/550/429 420/564/433 419/553/430
f 419/553/430 420/564/433 421/562/434
f 416/550/429 417/551/431 426/565/439
f 426/565/439 417/551/431 427/566/440
f 420/564/433 416/550/429 428/567/441
f 428/567/441 416/550/429 426/565/439
f 427/566/440 417/551/431 428/568/441
f 428/568/441 417/551/431 420/554/433
f 430/570/442 431/571/443 534/720/444
f 534/720/444 431/571/443 432/572/445
f 434/574/446 534/720/444 433/573/447
f 433/573/447 534/720/444 432/572/445
f 434/574/446 435/575/448 429/569/449
f 429/569/449 435/575/448 436/576/450
f 436/576/450 437/577/451 429/569/449
f 429/569/449 437/577/451 430/570/442
f 438/578/452 439/579/453 435/575/448
f 435/575/448 439/579/453 436/576/450
f 439/579/453 440/580/454 436/576/450
f 436/576/450 440/580/454 437/577/451
f 442/582/455 443/583/456 441/581/457
f 441/581/457 443/583/456 444/584/458
f 443/583/456 445/585/459 444/584/458
f 444/584/458 445/585/459 446/586/460
f 447/587/461 448/588/462 442/582/455
f 442/582/455 448/588/462 443/583/456
f 448/588/462 449/589/463 443/583/456
f 443/583/456 449/589/463 445/585/459
f 447/587/461 450/590/464 448/588/462
f 448/588/462 450/591/464 449/589/463
f 445/592/459 449/593/463 442/582/455
f 442/582/455 449/593/463 447/587/461
f 447/587/461 449/593/463 450/594/464
f 446/595/460 445/592/459 441/581/457
f 441/581/457 445/592/459 442/582/455
f 451/596/465 433/573/447 432/572/445
f 451/597/465 431/598/443 433/573/447
f 451/599/465 432/572/445 431/571/443
f 433/573/447 431/598/443 434/574/446
f 434/574/446 431/598/443 430/600/442
f 434/574/446 430/600/442 435/575/448
f 435/575/448 430/600/442 437/601/451
f 437/601/451 440/602/454 435/575/448
f 435/575/448 440/602/454 438/578/452
f 441/581/457 444/584/458 438/578/452
f 438/578/452 444/584/458 439/579/453
f 440/602/454 446/595/460 438/578/452
f 438/578/452 446/595/460 441/581/457
f 439/579/453 444/584/458 440/580/454
f 440/580/454 444/584/458 446/586/460
f 452/603/466 453/604/467 536/722/468
f 538/724/469 539/725/470 536/722/468
f 536/722/468 539/725/470 452/603/466
f 540/726/471 459/610/472 539/725/470
f 539/725/470 459/610/472 452/603/466
f 452/603/466 459/610/472 453/604/467
f 453/604/467 459/610/472 460/611/473
f 540/726/471 462/613/474 459/610/472
f 459/610/472 462/613/474 460/611/473
f 460/611/473 462/613/474 463/614/475
f 464/615/476 465/616/477 467/618/478
f 467/618/478 465/616/477 466/617/479
f 467/618/478 466/617/479 469/620/480
f 469/620/480 466/617/479 468/619/481
f 465/616/477 470/621/482 466/617/479
f 466/617/479 470/621/482 471/622/483
f 466/617/479 471/622/483 468/619/481
f 468/619/481 471/622/483 472/623/484
f 470/621/482 473/624/485 471/622/483
f 471/622/483 473/625/485 472/623/484
f 465/616/477 468/626/481 470/621/482
f 470/621/482 468/626/481 472/627/484
f 470/621/482 472/627/484 473/628/485
f 464/615/476 469/629/480 465/616/477
f 465/616/477 469/629/480 468/626/481
f 474/630/486 537/723/487 455/606/488
f 474/631/486 454/632/489 456/607/490
f 474/633/486 455/606/488 454/605/489
f 454/632/489 453/634/467 456/607/490
f 456/607/490 453/634/467 457/608/491
f 453/634/467 460/635/473 457/608/491
f 457/608/491 460/635/473 458/609/492
f 460/635/473 463/636/475 458/609/492
f 458/609/492 463/636/475 461/612/493
f 464/615/476 467/618/478 461/612/493
f 461/612/493 467/618/478 462/613/474
f 469/629/480 464/615/476 463/636/475
f 463/636/475 464/615/476 461/612/493
f 462/613/474 467/618/478 463/614/475
f 463/614/475 467/618/478 469/620/480
f 475/637/494 476/638/495 532/718/496
f 480/642/497 529/714/498 479/641/499
f 479/641/499 529/714/498 530/715/500
f 481/643/501 528/713/502 480/642/497
f 480/642/497 528/713/502 529/714/498
f 475/637/494 533/719/503 476/638/495
f 476/638/495 533/719/503 483/645/504
f 484/646/505 527/712/506 481/643/501
f 481/643/501 527/712/506 528/713/502
f 482/644/507 485/647/508 483/645/504
f 483/645/504 485/647/508 486/648/509
f 487/649/510 488/650/511 526/711/512
f 526/711/512 488/650/511 525/710/513
f 489/651/514 491/653/515 490/652/516
f 490/652/516 491/653/515 492/654/517
f 488/650/511 493/655/518 525/710/513
f 525/710/513 493/655/518 524/709/519
f 494/656/520 495/657/521 489/651/514
f 489/651/514 495/657/521 491/653/515
f 524/709/519 496/658/522 494/656/520
f 494/656/520 496/659/522 495/657/521
f 491/660/515 495/661/521 488/650/511
f 488/650/511 495/661/521 493/655/518
f 493/655/518 495/661/521 496/662/522
f 492/663/517 491/660/515 487/649/510
f 487/649/510 491/660/515 488/650/511
f 497/664/523 479/641/499 530/715/500
f 497/665/523 477/666/524 479/641/499
f 497/667/523 478/640/525 477/639/524
f 477/666/524 476/668/495 479/641/499
f 479/641/499 476/668/495 480/642/497
f 476/668/495 483/669/504 480/642/497
f 480/642/497 483/669/504 481/643/501
f 483/669/504 486/670/509 481/643/501
f 481/643/501 486/670/509 484/646/505
f 487/649/510 526/711/512 484/646/505
f 484/646/505 526/711/512 527/712/506
f 486/670/509 492/663/517 484/646/505
f 484/646/505 492/663/517 487/649/510
f 485/647/508 490/652/516 486/648/509
f 486/648/509 490/652/516 492/654/517
f 499/672/526 498/671/527 259/307/268
f 259/307/268 498/671/527 258/306/269
f 499/672/526 259/307/268 500/674/528
f 500/674/528 259/307/268 260/311/271
f 498/671/527 500/673/528 258/306/269
f 258/306/269 500/673/528 260/308/271
f 501/675/529 502/676/530 504/678/531
f 504/678/531 502/676/530 503/677/532
f 505/679/533 506/680/534 504/678/531
f 504/678/531 506/680/534 501/675/529
f 506/680/534 507/681/535 501/675/529
f 501/675/529 507/681/535 508/682/536
f 508/682/536 509/683/537 501/675/529
f 501/675/529 509/683/537 502/676/530
f 510/684/538 511/685/539 507/681/535
f 507/681/535 511/685/539 508/682/536
f 508/682/536 511/685/539 509/683/537
f 509/683/537 511/685/539 512/686/540
f 514/688/541 515/689/542 513/687/543
f 513/687/543 515/689/542 516/690/544
f 515/689/542 517/691/545 516/690/544
f 516/690/544 517/691/545 518/692/546
f 514/688/541 519/693/547 515/689/542
f 515/689/542 519/693/547 520/694/548
f 520/694/548 521/695/549 515/689/542
f 515/689/542 521/695/549 517/691/545
f 519/693/547 522/696/550 520/694/548
f 520/694/548 522/697/550 521/695/549
f 517/698/545 521/699/549 514/688/541
f 514/688/541 521/699/549 519/693/547
f 519/693/547 521/699/549 522/700/550
f 518/701/546 517/698/545 513/687/543
f 513/687/543 517/698/545 514/688/541
f 523/702/551 505/679/533 504/678/531
f 523/703/551 503/704/532 505/679/533
f 523/705/551 504/678/531 503/677/532
f 503/704/532 502/706/530 505/679/533
f 505/679/533 502/706/530 506/680/534
f 502/706/530 509/707/537 506/680/534
f 506/680/534 509/707/537 507/681/535
f 509/707/537 512/708/540 507/681/535
f 507/681/535 512/708/540 510/684/538
f 513/687/543 516/690/544 510/684/538
f 510/684/538 516/690/544 511/685/539
f 512/708/540 518/701/546 510/684/538
f 510/684/538 518/701/546 513/687/543
f 511/685/539 516/690/544 512/686/540
f 512/686/540 516/690/544 518/692/546
f 525/710/513 524/709/519 489/651/514
f 489/651/514 524/709/519 494/656/520
f 525/710/513 489/651/514 526/711/512
f 526/711/512 489/651/514 490/652/516
f 526/711/512 490/652/516 527/712/506
f 527/712/506 490/652/516 485/647/508
f 528/713/502 527/712/506 482/644/507
f 482/644/507 527/712/506 485/647/508
f 528/713/502 533/719/503 529/714/498
f 529/714/498 533/719/503 475/637/494
f 532/718/496 529/714/498 475/637/494
f 493/655/518 496/658/522 524/709/519
f 497/664/523 530/715/500 478/640/525
f 531/716/405 374/486/386 371/483/384
f 372/484/385 531/717/405 371/483/384
f 476/638/495 477/639/524 532/718/496
f 532/718/496 477/639/524 478/640/525
f 529/714/498 532/718/496 530/715/500
f 530/715/500 532/718/496 478/640/525
f 533/719/503 528/713/502 482/644/507
f 483/645/504 533/719/503 482/644/507
f 534/720/444 434/574/446 429/569/449
f 429/569/449 430/570/442 534/720/444
f 280/347/294 535/721/288 283/350/287
f 564/757/293 535/721/288 280/347/294
f 453/604/467 454/605/489 536/722/468
f 536/722/468 454/605/489 455/606/488
f 538/724/469 536/722/468 537/723/487
f 537/723/487 536/722/468 455/606/488
f 474/630/486 456/607/490 537/723/487
f 457/608/491 538/724/469 456/607/490
f 456/607/490 538/724/469 537/723/487
f 539/725/470 538/724/469 457/608/491
f 458/609/492 540/726/471 457/608/491
f 457/608/491 540/726/471 539/725/470
f 461/612/493 462/613/474 458/609/492
f 458/609/492 462/613/474 540/726/471
f 542/728/552 543/729/553 541/727/554
f 541/727/554 543/729/553 544/730/555
f 542/728/552 545/731/556 543/729/553
f 543/729/553 545/731/556 546/732/557
f 543/729/553 547/733/558 544/730/555
f 544/730/555 547/733/558 548/734/559
f 543/729/553 546/732/557 547/733/558
f 547/733/558 546/732/557 549/735/560
f 548/734/559 547/733/558 550/736/561
f 547/733/558 549/735/560 550/737/561
f 544/730/555 548/734/559 546/739/557
f 546/739/557 548/734/559 549/738/560
f 548/734/559 550/740/561 549/738/560
f 541/727/554 544/730/555 545/741/556
f 545/741/556 544/730/555 546/739/557
f 551/742/562 552/743/563 541/727/554
f 541/727/554 552/743/563 542/728/552
f 551/742/562 541/727/554 553/744/564
f 553/744/564 541/727/554 545/741/556
f 553/745/564 545/731/556 552/743/563
f 552/743/563 545/731/556 542/728/552
f 555/747/266 554/746/265 499/672/526
f 499/672/526 554/746/265 498/671/527
f 555/747/266 499/672/526 556/749/267
f 556/749/267 499/672/526 500/674/528
f 554/746/265 556/748/267 498/671/527
f 498/671/527 556/748/267 500/673/528
f 262/315/272 244/292/246 557/750/250
f 558/751/251 557/750/250 243/291/248
f 243/291/248 557/750/250 244/292/246
f 559/752/254 558/751/251 249/297/256
f 249/297/256 558/751/251 243/291/248
f 560/753/258 559/752/254 252/300/261
f 252/300/261 559/752/254 249/297/256
f 255/303/262 560/753/258 252/300/261
f 293/360/308 561/754/301 296/363/306
f 296/363/306 561/754/301 295/362/304
f 562/755/298 561/754/301 290/357/309
f 290/357/309 561/754/301 293/360/308
f 563/756/295 562/755/298 287/354/311
f 287/354/311 562/755/298 290/357/309
f 285/352/292 564/757/293 287/354/311
f 287/354/311 564/757/293 563/756/295
f 285/352/292 535/721/288 564/757/293
f 565/758/565 566/759/566 568/761/567
f 568/761/567 566/759/566 567/760/568
f 569/762/569 570/763/570 566/759/566
f 566/759/566 570/763/570 567/760/568
f 568/761/567 567/760/568 572/765/571
f 572/765/571 567/760/568 571/764/572
f 570/763/570 573/766/573 567/760/568
f 567/760/568 573/766/573 571/764/572
f 572/765/571 571/764/572 574/767/574
f 571/764/572 573/766/573 574/768/574
f 572/765/571 573/769/573 568/761/567
f 568/761/567 573/769/573 570/770/570
f 572/765/571 574/771/574 573/769/573
f 568/761/567 570/770/570 565/758/565
f 565/758/565 570/770/570 569/772/569
f 575/773/575 576/774/576 565/758/565
f 565/758/565 576/774/576 566/759/566
f 575/773/575 565/758/565 577/775/577
f 577/775/577 565/758/565 569/772/569
f 576/774/576 577/776/577 566/759/566
f 566/759/566 577/776/577 569/762/569
