# This file uses centimeters as units for non-parametric coordinates.

v -0.011211 0.039134 0.043260
v 0.001970 0.029276 0.043260
v -0.015851 0.057241 -0.052021
v 0.008921 0.051516 -0.052069
v 0.015407 0.019809 -0.052245
v -0.040908 -0.005394 -0.052058
v -0.014635 -0.010559 -0.051929
v 0.009847 -0.003774 -0.052070
v -0.033299 0.000636 0.043260
v -0.017171 -0.008710 0.043260
v -0.002536 -0.005718 0.043260
v 0.008137 0.013662 0.043260
v -0.013266 0.017002 0.080455
v -0.016609 0.052075 -0.089867
v 0.004604 0.042967 -0.089870
v -0.017008 0.021743 -0.103933
v -0.016074 -0.003638 0.071716
v -0.029402 0.002931 0.071693
v -0.029771 0.019701 0.071875
v -0.011375 0.034339 0.071823
v 0.000938 0.027526 0.071868
v 0.002860 0.013839 0.071884
v -0.004672 -0.001426 0.071831
v -0.035454 0.040556 -0.089876
v -0.041577 0.048232 -0.051970
v -0.026195 0.033279 0.043260
v -0.036468 -0.004992 -0.018175
v -0.014683 -0.009984 -0.018175
v 0.007185 -0.004158 -0.018175
v 0.012517 0.018993 -0.018188
v 0.005826 0.043670 -0.018188
v -0.015311 0.049822 -0.018188
v -0.036313 0.042148 -0.018188
v -0.033021 0.000206 -0.089867
v -0.014345 -0.006243 -0.089885
v 0.004606 0.000437 -0.089877
v 0.010745 0.020675 -0.089847
v -0.028859 0.020405 0.043260
v -0.037780 0.021922 -0.018188
v -0.043451 0.022790 -0.052013
v -0.039958 0.021983 -0.089883
v -0.023817 0.027865 0.071853
vt 0.954499 0.142148
vt 0.968043 0.142459
vt 0.972186 0.192299
vt 0.952588 0.193077
vt 0.968936 0.398490
vt 0.947846 0.399487
vt 0.949317 0.339772
vt 0.964482 0.341084
vt 0.926143 0.400275
vt 0.934902 0.340339
vt 0.907517 0.342701
vt 0.904564 0.401907
vt 0.985075 0.343423
vt 0.989369 0.401684
vt 0.981100 0.294846
vt 0.960133 0.314322
vt 0.947592 0.313219
vt 0.936445 0.313571
vt 0.985480 0.134158
vt 0.943226 0.298478
vt 0.988562 0.189527
vt 0.933380 0.191831
vt 0.939992 0.142493
vt 0.954478 0.117352
vt 0.916653 0.308623
vt 0.942575 0.117839
vt 0.978946 0.105142
vt 0.929464 0.470872
vt 0.908360 0.481040
vt 0.903437 0.437185
vt 0.968249 0.117008
vt 0.949207 0.226533
vt 0.923942 0.433532
vt 0.948398 0.470427
vt 0.948326 0.432661
vt 0.969431 0.225663
vt 0.965005 0.430927
vt 0.986400 0.433314
vt 0.946689 0.494324
vt 0.966410 0.470361
vt 0.980574 0.477286
vt 0.970654 0.259339
vt 0.948915 0.259971
vt 0.917207 0.283563
vt 0.985158 0.269904
vt 0.915966 0.225360
vt 0.988969 0.223396
vt 0.953524 0.102772
vt 0.917625 0.192933
vt 0.946557 0.286061
vt 0.930223 0.263026
vt 0.931592 0.226225
vt 0.921117 0.142394
vt 0.929039 0.112034
vn 0.829114 0.543678 0.130324
vn 0.753256 0.633194 0.177964
vn 0.163656 0.968763 0.186317
vn -0.045842 0.977726 0.204820
vn 0.055103 -0.998314 0.018252
vn -0.220572 -0.969274 0.108882
vn -0.625083 -0.777321 0.071018
vn -0.938559 -0.318266 0.133465
vn 0.684141 -0.727229 0.055584
vn 0.467250 -0.876704 0.114319
vn 0.978041 -0.160037 0.133505
vn 0.995492 0.036268 0.087633
vn -0.988573 0.053830 0.140803
vn -0.967557 0.238971 0.082010
vn -0.778498 0.587686 0.220378
vn -0.720603 0.667039 0.189185
vn -0.814285 0.256888 0.520528
vn -0.771817 -0.419493 0.477833
vn 0.052363 0.881352 0.469549
vn -0.672766 0.564988 0.477676
vn -0.038408 -0.837586 0.544954
vn 0.585879 -0.600905 0.543745
vn -0.011582 0.033817 0.999361
vn 0.866040 -0.018853 0.499620
vn 0.672516 0.461740 0.578376
vn 0.633678 0.772312 0.044554
vn 0.645887 0.582825 -0.493097
vn -0.027966 0.999312 0.024355
vn -0.122721 0.832025 -0.540994
vn 0.813375 -0.009785 -0.581658
vn 0.998957 0.026286 -0.037335
vn 0.636172 -0.609769 -0.472723
vn 0.797110 -0.602952 -0.032641
vn 0.000228 -0.813114 -0.582105
vn 0.024572 -0.997922 -0.059565
vn -0.837479 -0.546199 -0.017224
vn -0.999940 -0.004121 -0.010137
vn -0.030685 -0.016223 -0.999397
vn -0.740334 0.671151 -0.038229
vn -0.755508 0.391473 -0.525315
vn -0.641757 -0.601485 -0.475776
vn -0.845213 -0.030719 -0.533547
f 2/2/1 31/3/2 1/1/3
f 1/1/3 31/3/2 32/4/4
f 28/6/5 10/7/6 27/5/7
f 27/5/7 10/7/6 9/8/8
f 29/9/9 11/10/10 28/6/5
f 28/6/5 11/10/10 10/7/6
f 11/10/10 29/9/9 12/11/11
f 12/11/11 29/9/9 30/12/12
f 12/19/11 30/21/12 2/2/1
f 2/2/1 30/21/12 31/3/2
f 27/5/7 9/8/8 39/14/13
f 39/14/13 9/8/8 38/13/14
f 33/22/15 26/23/16 32/4/4
f 32/4/4 26/23/16 1/1/3
f 19/15/17 38/13/14 18/16/18
f 18/16/18 38/13/14 9/8/8
f 1/1/3 26/23/16 20/24/19
f 20/24/19 26/23/16 42/26/20
f 17/17/21 23/18/22 13/20/23
f 12/19/11 2/2/1 22/27/24
f 22/27/24 2/2/1 21/31/25
f 21/31/25 2/2/1 20/24/19
f 20/24/19 2/2/1 1/1/3
f 11/10/10 12/11/11 23/18/22
f 23/18/22 12/11/11 22/25/24
f 17/17/21 18/16/18 10/7/6
f 10/7/6 18/16/18 9/8/8
f 4/36/26 15/42/27 3/32/28
f 3/32/28 15/42/27 14/43/29
f 37/45/30 15/42/27 5/47/31
f 5/47/31 15/42/27 4/36/26
f 37/29/30 5/30/31 36/28/32
f 36/28/32 5/30/31 8/33/33
f 35/34/34 36/28/32 7/35/35
f 7/35/35 36/28/32 8/33/33
f 17/17/21 13/20/23 18/16/18
f 13/20/23 19/15/17 18/16/18
f 13/48/23 42/26/20 19/54/17
f 13/48/23 20/24/19 42/26/20
f 13/48/23 21/31/25 20/24/19
f 13/48/23 22/27/24 21/31/25
f 23/18/22 22/25/24 13/20/23
f 23/18/22 17/17/21 11/10/10
f 11/10/10 17/17/21 10/7/6
f 19/54/17 42/26/20 38/53/14
f 38/53/14 42/26/20 26/23/16
f 27/5/7 39/14/13 6/37/36
f 6/37/36 39/14/13 40/38/37
f 6/37/36 7/35/35 27/5/7
f 27/5/7 7/35/35 28/6/5
f 8/33/33 29/9/9 7/35/35
f 7/35/35 29/9/9 28/6/5
f 29/9/9 8/33/33 30/12/12
f 30/12/12 8/33/33 5/30/31
f 30/21/12 5/47/31 31/3/2
f 31/3/2 5/47/31 4/36/26
f 31/3/2 4/36/26 32/4/4
f 32/4/4 4/36/26 3/32/28
f 36/28/32 16/39/38 37/29/30
f 32/4/4 3/32/28 33/22/15
f 33/22/15 3/32/28 25/52/39
f 24/51/40 14/43/29 16/50/38
f 37/45/30 16/50/38 15/42/27
f 6/37/36 40/38/37 34/40/41
f 34/40/41 40/38/37 41/41/42
f 24/51/40 25/52/39 14/43/29
f 14/43/29 25/52/39 3/32/28
f 6/37/36 34/40/41 7/35/35
f 7/35/35 34/40/41 35/34/34
f 34/40/41 16/39/38 35/34/34
f 33/22/15 39/49/13 26/23/16
f 26/23/16 39/49/13 38/53/14
f 39/49/13 33/22/15 40/46/37
f 40/46/37 33/22/15 25/52/39
f 41/44/42 40/46/37 24/51/40
f 24/51/40 40/46/37 25/52/39
f 15/42/27 16/50/38 14/43/29
f 16/50/38 41/44/42 24/51/40
f 16/39/38 34/40/41 41/41/42
f 36/28/32 35/34/34 16/39/38
