# This file uses centimeters as units for non-parametric coordinates.

v -0.007198 0.500000 0.000000
v -0.337152 0.426588 0.000000
v 0.250227 -0.448444 0.000000
v -0.026469 -0.472842 0.000000
v -0.352399 -0.419809 0.000000
v -0.464482 -0.146494 0.000000
v -0.355478 0.097864 0.000000
v -0.417018 0.248930 0.000000
v 0.484077 -0.242999 0.000000
v 0.481161 -0.067419 0.000000
v 0.343590 0.074164 0.000000
v 0.451575 0.235850 0.000000
v 0.309586 0.438989 0.000000
v 0.116011 -0.207521 0.000000
v -0.015564 0.086340 0.000000
v 0.015831 -0.104709 0.000000
v -0.008384 0.242776 0.000000
vt 0.925642 0.416905
vt 0.970513 0.324552
vt 0.936388 0.251045
vt 0.982749 0.182729
vt 0.982301 0.094351
vt 0.906883 0.013451
vt 0.819442 0.002359
vt 0.716442 0.026469
vt 0.681021 0.150727
vt 0.715469 0.261819
vt 0.696021 0.330498
vt 0.721260 0.411267
vt 0.825532 0.444643
vt 0.864468 0.122982
vt 0.822888 0.256580
vt 0.832810 0.169723
vt 0.825157 0.327701
vn 0.000000 0.000000 1.000000
vn 0.000000 0.000000 1.000000
vn 0.000000 0.000000 1.000000
vn 0.000000 0.000000 1.000000
vn 0.000000 0.000000 1.000000
vn 0.000000 0.000000 1.000000
vn 0.000000 0.000000 1.000000
vn 0.000000 0.000000 1.000000
vn 0.000000 0.000000 1.000000
vn 0.000000 0.000000 1.000000
vn 0.000000 0.000000 1.000000
vn 0.000000 0.000000 1.000000
vn 0.000000 0.000000 1.000000
vn 0.000000 0.000000 1.000000
vn 0.000000 0.000000 1.000000
vn 0.000000 0.000000 1.000000
vn 0.000000 0.000000 1.000000
vn 0.000000 0.000000 1.000000
vn 0.000000 0.000000 1.000000
vn 0.000000 0.000000 1.000000
vn 0.000000 0.000000 1.000000
vn 0.000000 0.000000 1.000000
vn 0.000000 0.000000 1.000000
vn 0.000000 0.000000 1.000000
vn 0.000000 0.000000 1.000000
vn 0.000000 0.000000 1.000000
vn 0.000000 0.000000 1.000000
vn 0.000000 0.000000 1.000000
vn 0.000000 0.000000 1.000000
vn 0.000000 0.000000 1.000000
vn 0.000000 0.000000 1.000000
vn 0.000000 0.000000 1.000000
vn 0.000000 0.000000 1.000000
vn 0.000000 0.000000 1.000000
vn 0.000000 0.000000 1.000000
vn 0.000000 0.000000 1.000000
vn 0.000000 0.000000 1.000000
vn 0.000000 0.000000 1.000000
vn 0.000000 0.000000 1.000000
vn 0.000000 0.000000 1.000000
vn 0.000000 0.000000 1.000000
f 15/15/1 16/16/2 11/3/3
f 11/3/3 16/16/2 10/4/4
f 16/16/5 14/14/6 10/4/7
f 4/7/8 14/14/9 5/8/10
f 5/8/10 14/14/9 6/9/11
f 4/7/12 3/6/13 14/14/14
f 14/14/14 3/6/13 9/5/15
f 10/4/16 14/14/17 9/5/18
f 1/13/19 17/17/20 13/1/21
f 13/1/21 17/17/20 12/2/22
f 15/15/23 11/3/24 17/17/25
f 17/17/25 11/3/24 12/2/26
f 1/13/27 2/12/28 17/17/29
f 17/17/29 2/12/28 8/11/30
f 15/15/31 17/17/32 7/10/33
f 7/10/33 17/17/32 8/11/34
f 15/15/35 7/10/36 16/16/37
f 16/16/37 7/10/36 6/9/38
f 14/14/39 16/16/40 6/9/41
