# This file uses centimeters as units for non-parametric coordinates.

v 0.121694 -0.500000 0.000000
v 0.037120 0.500000 0.000000
v 0.394044 0.407874 0.000000
v 0.411887 0.221635 0.000000
v 0.311459 0.120826 0.000000
v 0.323260 -0.435968 0.000000
v -0.090074 0.500000 0.000000
v -0.108655 -0.500000 0.000000
v -0.273245 -0.401305 0.000000
v -0.334752 0.140368 0.000000
v -0.450154 0.340922 0.000000
v -0.356228 0.459053 0.000000
v -0.015967 0.280840 0.000000
v -0.053205 0.390964 0.000000
vt 0.546577 0.315055
vt 0.549615 0.031891
vt 0.497725 -0.000673
vt 0.475953 0.507889
vt 0.567837 0.461037
vt 0.572430 0.366323
vt 0.396055 0.049519
vt 0.380222 0.324994
vt 0.350513 0.426988
vt 0.374693 0.487065
vt 0.443209 0.507889
vt 0.438426 -0.000673
vt 0.462287 0.396432
vt 0.452701 0.452437
vn 0.000000 0.000000 1.000000
vn 0.000000 0.000000 1.000000
vn 0.000000 0.000000 1.000000
vn 0.000000 0.000000 1.000000
vn 0.000000 0.000000 1.000000
vn 0.000000 0.000000 1.000000
vn 0.000000 0.000000 1.000000
vn 0.000000 0.000000 1.000000
vn 0.000000 0.000000 1.000000
vn 0.000000 0.000000 1.000000
vn 0.000000 0.000000 1.000000
vn 0.000000 0.000000 1.000000
vn 0.000000 0.000000 1.000000
vn 0.000000 0.000000 1.000000
vn 0.000000 0.000000 1.000000
vn 0.000000 0.000000 1.000000
vn 0.000000 0.000000 1.000000
vn 0.000000 0.000000 1.000000
vn 0.000000 0.000000 1.000000
vn 0.000000 0.000000 1.000000
vn 0.000000 0.000000 1.000000
vn 0.000000 0.000000 1.000000
vn 0.000000 0.000000 1.000000
vn 0.000000 0.000000 1.000000
vn 0.000000 0.000000 1.000000
vn 0.000000 0.000000 1.000000
vn 0.000000 0.000000 1.000000
vn 0.000000 0.000000 1.000000
vn 0.000000 0.000000 1.000000
vn 0.000000 0.000000 1.000000
f 6/2/1 9/7/2 1/3/3
f 1/3/3 9/7/2 8/12/4
f 10/8/5 9/7/6 5/1/7
f 5/1/7 9/7/6 6/2/8
f 3/5/9 2/4/10 14/14/11
f 14/14/11 2/4/10 7/11/12
f 10/8/13 5/1/14 13/13/15
f 13/13/15 5/1/14 4/6/16
f 12/10/17 14/14/18 7/11/19
f 10/8/20 13/13/21 11/9/22
f 4/6/23 3/5/24 13/13/25
f 13/13/25 3/5/24 14/14/26
f 14/14/27 12/10/28 13/13/29
f 13/13/29 12/10/28 11/9/30
