# This file uses centimeters as units for non-parametric coordinates.

v -0.286067 -0.286067 0.286066
v 0.286067 -0.286067 0.286066
v -0.286067 0.286066 0.286066
v 0.286067 0.286066 0.286066
v -0.286067 0.286067 -0.286067
v 0.286067 0.286067 -0.286067
v -0.286067 -0.286067 -0.286067
v 0.286067 -0.286067 -0.286067
v -0.292464 -0.272124 0.292463
v -0.291151 -0.272648 0.293026
vt 0.000000 0.000000
vt 1.000000 0.000000
vt 0.000000 1.000000
vt 1.000000 1.000000
vt 0.000000 0.000000
vt 1.000000 0.000000
vt 0.000000 1.000000
vt 1.000000 1.000000
vt 0.000000 0.000000
vt 1.000000 0.000000
vt 0.000000 0.000000
vt 0.000000 1.000000
vt 1.000000 0.000000
vt 1.000000 1.000000
vt 0.000000 0.000000
vt 0.000000 0.000000
vn -0.536661 0.401404 0.742206
vn 0.004126 -0.153301 0.988171
vn 0.578479 0.578594 0.574970
vn -0.352079 -0.851373 0.388850
vn 0.390403 -0.563359 0.728157
vn -0.575165 0.578498 -0.578382
vn 0.577350 0.577350 -0.577350
vn -0.738893 -0.548512 -0.391370
vn 0.577350 -0.577350 -0.577350
vn -0.469877 -0.276272 0.838385
vn -0.900445 -0.220462 0.374960
f 3/3/1 10/16/2 4/4/3
f 1/1/4 2/2/5 10/16/2
f 10/16/2 2/2/5 4/4/3
f 3/3/1 4/4/3 5/5/6
f 5/5/6 4/4/3 6/6/7
f 7/7/8 5/5/6 8/8/9
f 8/8/9 5/5/6 6/6/7
f 6/12/7 4/4/3 8/11/9
f 8/11/9 4/4/3 2/2/5
f 7/7/8 8/8/9 1/9/4
f 1/9/4 8/8/9 2/10/5
f 10/16/10 3/3/1 9/15/11
f 1/1/4 9/15/11 7/13/8
f 7/13/8 9/15/11 5/14/6
f 9/15/11 3/3/1 5/14/6
f 1/1/4 10/16/10 9/15/11
