# This file uses centimeters as units for non-parametric coordinates.

v 0.573532 0.186352 -0.224987
v 0.487876 0.354462 -0.224987
v 0.354462 0.487876 -0.224987
v 0.186352 0.573532 -0.224987
v 0.000000 0.603047 -0.224987
v -0.186352 0.573532 -0.224987
v -0.354462 0.487876 -0.224987
v -0.487875 0.354462 -0.224987
v -0.573532 0.186352 -0.224987
v -0.603047 0.000000 -0.224987
v -0.573532 -0.186352 -0.224987
v -0.487875 -0.354462 -0.224987
v -0.354462 -0.487875 -0.224987
v -0.186352 -0.573532 -0.224987
v -0.000000 -0.603047 -0.224987
v 0.186352 -0.573532 -0.224987
v 0.354462 -0.487875 -0.224987
v 0.487875 -0.354462 -0.224987
v 0.573532 -0.186352 -0.224987
v 0.603047 0.000000 -0.224987
v 0.573532 0.186352 0.224987
v 0.487876 0.354462 0.224987
v 0.354462 0.487876 0.224987
v 0.186352 0.573532 0.224987
v 0.000000 0.603047 0.224987
v -0.186352 0.573532 0.224987
v -0.354462 0.487875 0.224987
v -0.487875 0.354462 0.224987
v -0.573532 0.186352 0.224987
v -0.603047 0.000000 0.224987
v -0.573532 -0.186352 0.224987
v -0.487875 -0.354462 0.224987
v -0.354462 -0.487875 0.224987
v -0.186352 -0.573532 0.224987
v -0.000000 -0.603047 0.224987
v 0.186352 -0.573532 0.224987
v 0.354462 -0.487875 0.224987
v 0.487875 -0.354462 0.224987
v 0.573532 -0.186352 0.224987
v 0.603047 0.000000 0.224987
v 0.000000 0.613485 -0.157931
v 0.189577 0.583459 -0.157931
v 0.360598 0.496320 -0.157931
v 0.496320 0.360598 -0.157931
v 0.583459 0.189577 -0.157931
v 0.613485 0.000000 -0.157931
v 0.583459 -0.189577 -0.157931
v 0.496320 -0.360597 -0.157931
v 0.360597 -0.496320 -0.157931
v 0.189577 -0.583459 -0.157931
v -0.000000 -0.613485 -0.157931
v -0.189577 -0.583459 -0.157931
v -0.360597 -0.496320 -0.157931
v -0.496320 -0.360597 -0.157931
v -0.583459 -0.189577 -0.157931
v -0.613485 0.000000 -0.157931
v -0.583459 0.189577 -0.157931
v -0.496320 0.360597 -0.157931
v -0.360597 0.496320 -0.157931
v -0.189577 0.583459 -0.157931
v 0.000000 0.613485 0.161526
v 0.189577 0.583459 0.161526
v 0.360598 0.496320 0.161526
v 0.496320 0.360598 0.161526
v 0.583459 0.189577 0.161526
v 0.613485 0.000000 0.161526
v 0.583459 -0.189577 0.161526
v 0.496320 -0.360597 0.161526
v 0.360597 -0.496320 0.161526
v 0.189577 -0.583459 0.161526
v -0.000000 -0.613485 0.161526
v -0.189577 -0.583459 0.161526
v -0.360597 -0.496320 0.161526
v -0.496320 -0.360597 0.161526
v -0.583459 -0.189577 0.161526
v -0.613485 0.000000 0.161526
v -0.583459 0.189577 0.161526
v -0.496320 0.360597 0.161526
v -0.360597 0.496320 0.161526
v -0.189577 0.583459 0.161526
v 0.533510 0.176000 -0.260504
v 0.453831 0.334773 -0.260504
v 0.329727 0.460775 -0.260504
v 0.173348 0.541674 -0.260504
v -0.000000 0.569549 -0.260504
v -0.173348 0.541674 -0.260504
v -0.329727 0.460775 -0.260504
v -0.453831 0.334773 -0.260504
v -0.533510 0.176000 -0.260504
v -0.560966 0.000000 -0.260504
v -0.533510 -0.176000 -0.260504
v -0.453831 -0.334773 -0.260505
v -0.329727 -0.460775 -0.260505
v -0.173348 -0.541673 -0.260505
v -0.000000 -0.569549 -0.260505
v 0.173348 -0.541673 -0.260505
v 0.329727 -0.460775 -0.260505
v 0.453831 -0.334773 -0.260505
v 0.533510 -0.176000 -0.260504
v 0.560966 0.000000 -0.260504
v 0.533510 0.176000 0.260504
v 0.453831 0.334773 0.260505
v 0.329727 0.460775 0.260505
v 0.173348 0.541674 0.260505
v -0.000000 0.569549 0.260505
v -0.173348 0.541674 0.260505
v -0.329727 0.460775 0.260505
v -0.453831 0.334773 0.260505
v -0.533510 0.176000 0.260504
v -0.560966 0.000000 0.260504
v -0.533510 -0.176000 0.260504
v -0.453831 -0.334773 0.260504
v -0.329727 -0.460775 0.260504
v -0.173348 -0.541673 0.260504
v -0.000000 -0.569549 0.260504
v 0.173348 -0.541673 0.260504
v 0.329727 -0.460775 0.260504
v 0.453831 -0.334773 0.260504
v 0.533510 -0.176000 0.260504
v 0.560966 0.000000 0.260504
v 0.216914 0.162218 0.280123
v 0.260430 0.086879 0.278121
v 0.167862 0.233222 0.280216
v 0.085967 0.277187 0.280262
v -0.004939 0.289982 0.280262
v -0.089968 0.282094 0.280446
v -0.179845 0.242406 0.280354
v -0.240783 0.169752 0.280435
v -0.289958 0.087390 0.280492
v -0.293790 -0.010649 0.280492
v -0.281551 -0.093126 0.280446
v -0.244071 -0.180185 0.280446
v -0.182901 -0.255572 0.280446
v -0.101626 -0.297418 0.280515
v -0.007956 -0.302933 0.280377
v 0.090705 -0.283318 0.280331
v 0.169349 -0.237331 0.273794
v 0.224626 -0.166208 0.280446
v 0.263991 -0.087498 0.280446
v 0.280607 -0.000327 0.280446
v 0.261888 0.091969 -0.277760
v 0.212172 0.164004 -0.280362
v 0.170740 0.238620 -0.282647
v 0.085802 0.268562 -0.280706
v -0.000249 0.283437 -0.280706
v -0.086244 0.268387 -0.280706
v -0.162486 0.226391 -0.280706
v -0.229021 0.168429 -0.280706
v -0.279845 0.091909 -0.280706
v -0.292708 0.002285 -0.280971
v -0.293038 -0.096916 -0.280706
v -0.231577 -0.170969 -0.280707
v -0.162962 -0.233994 -0.281024
v -0.087345 -0.272483 -0.280707
v -0.000249 -0.284082 -0.280707
v 0.085192 -0.267311 -0.280707
v 0.167202 -0.234331 -0.280707
v 0.229696 -0.169948 -0.280707
v 0.282105 -0.093473 -0.280706
v 0.282904 -0.001375 -0.280025
v -0.000249 -0.000327 0.300890
v 0.107339 0.079036 0.300890
v -0.089847 -0.066420 0.300890
v 0.065818 0.162971 0.300890
v -0.053929 0.074688 0.300890
v -0.164869 -0.007103 0.296150
v 0.169819 0.012615 0.300890
v -0.057658 -0.160345 0.300890
v 0.053680 -0.075690 0.293645
v -0.108767 0.034259 0.300890
v -0.000596 -0.116959 0.300890
v -0.044834 -0.033216 0.300890
v 0.009847 0.121706 0.296150
v 0.115534 -0.028660 0.300890
v 0.058621 0.043099 0.300890
v -0.000250 -0.000327 -0.300349
v -0.127408 0.041621 -0.300349
v 0.106690 -0.035605 -0.300349
v -0.111327 0.130209 -0.300349
v 0.027135 0.085244 -0.300349
v 0.152655 0.044483 -0.304714
v -0.169230 -0.043731 -0.300349
v -0.028399 -0.088289 -0.300349
v 0.098089 -0.128308 -0.304714
v -0.056488 0.112400 -0.300349
v -0.113612 -0.061328 -0.300349
v -0.084423 0.027441 -0.304714
v 0.090058 0.064811 -0.300349
v 0.034146 -0.108077 -0.300349
v 0.051844 -0.017512 -0.300349
v -0.206598 0.291922 -0.248016
v -0.284270 0.208609 -0.249394
v 0.272445 0.208199 -0.249049
v 0.329086 0.113786 -0.246620
v 0.371204 -0.001794 -0.248713
v -0.374356 0.001865 -0.249659
v -0.352298 -0.114049 -0.249924
v 0.289123 -0.214359 -0.249395
v 0.203950 -0.286395 -0.249395
v -0.338271 0.110695 -0.249394
v 0.357997 -0.118998 -0.249394
v -0.109628 0.348795 -0.249734
v -0.000458 0.353415 -0.249394
v -0.295516 -0.217073 -0.250084
v -0.204454 -0.292104 -0.249712
v 0.205936 0.287676 -0.251160
v 0.108151 -0.340126 -0.249395
v -0.000458 -0.344240 -0.249395
v 0.107103 0.335358 -0.249394
v -0.108566 -0.338562 -0.249395
v 0.201456 0.280041 0.245446
v 0.105292 0.329698 0.245676
v -0.345911 -0.114709 0.245676
v -0.364005 -0.011069 0.245722
v 0.340357 -0.000747 0.245676
v 0.327406 0.108963 0.247032
v -0.216209 -0.302246 0.245676
v -0.110709 -0.346703 0.245699
v 0.272761 0.200382 0.245122
v -0.298095 -0.220302 0.245676
v -0.359594 0.109874 0.245722
v -0.294934 0.209123 0.245665
v -0.004724 -0.353747 0.245561
v 0.106442 -0.333565 0.253655
v -0.000458 0.346068 0.245676
v -0.108265 0.338194 0.245676
v 0.327178 -0.108831 0.245676
v 0.276327 -0.204920 0.245676
v -0.214250 0.289774 0.245584
v 0.207106 -0.289541 0.245676
vt 0.443849 0.864688
vt 0.474310 0.803989
vt 0.505909 0.044777
vt 0.551277 0.044760
vt 0.396403 0.912859
vt 0.336619 0.943787
vt 0.551277 0.073951
vt 0.505910 0.073969
vt 0.596644 0.044746
vt 0.596645 0.073937
vt 0.270348 0.954444
vt 0.204076 0.943787
vt 0.642012 0.044737
vt 0.642012 0.073928
vt 0.687380 0.044734
vt 0.144292 0.912859
vt 0.096847 0.864688
vt 0.687380 0.073925
vt 0.732748 0.044737
vt 0.732748 0.073928
vt 0.778116 0.044746
vt 0.066385 0.803989
vt 0.055889 0.736703
vt 0.778116 0.073937
vt 0.823484 0.044760
vt 0.823483 0.073951
vt 0.066385 0.669418
vt 0.096847 0.608719
vt 0.868851 0.073969
vt 0.914209 0.044822
vt 0.914208 0.074013
vt 0.959566 0.044867
vt 0.144292 0.560548
vt 0.204076 0.529620
vt 0.052252 0.074008
vt 0.097619 0.044833
vt 0.097618 0.074025
vt 0.142984 0.044847
vt 0.270348 0.518963
vt 0.336619 0.529620
vt 0.142984 0.074039
vt 0.188350 0.044855
vt 0.188350 0.074048
vt 0.233715 0.044858
vt 0.396403 0.560548
vt 0.443849 0.608719
vt 0.233715 0.074051
vt 0.279080 0.044855
vt 0.279080 0.074048
vt 0.474310 0.669418
vt 0.484807 0.736703
vt 0.324445 0.044847
vt 0.324446 0.074039
vt 0.369811 0.044833
vt 0.369811 0.074025
vt 0.415176 0.044816
vt 0.415177 0.074008
vt 0.951199 0.802929
vt 0.920738 0.863628
vt 0.460543 0.044796
vt 0.460543 0.073988
vt 0.873293 0.911800
vt 0.813508 0.942727
vt 0.687380 0.441482
vt 0.642015 0.441485
vt 0.596650 0.441494
vt 0.551284 0.441508
vt 0.747237 0.953384
vt 0.680965 0.942727
vt 0.505918 0.441526
vt 0.460552 0.441545
vt 0.415185 0.441564
vt 0.621181 0.911799
vt 0.573736 0.863628
vt 0.369818 0.441582
vt 0.324450 0.441596
vt 0.279083 0.441605
vt 0.543274 0.802929
vt 0.532778 0.735644
vt 0.233715 0.441609
vt 0.188347 0.441605
vt 0.142979 0.441596
vt 0.097611 0.441582
vt 0.543274 0.668358
vt 0.573736 0.607659
vt 0.052244 0.441564
vt 0.868843 0.441526
vt 0.823477 0.441508
vt 0.621181 0.559488
vt 0.680965 0.528560
vt 0.778111 0.441494
vt 0.732746 0.441485
vt 0.687380 0.467298
vt 0.642015 0.467301
vt 0.747237 0.517903
vt 0.813508 0.528560
vt 0.596650 0.467310
vt 0.551285 0.467324
vt 0.505919 0.467342
vt 0.460552 0.467360
vt 0.873293 0.559488
vt 0.920738 0.607659
vt 0.415186 0.467380
vt 0.369818 0.467397
vt 0.324451 0.467411
vt 0.279083 0.467420
vt 0.951199 0.668358
vt 0.961696 0.735644
vt 0.233715 0.467423
vt 0.188347 0.467420
vt 0.142978 0.467411
vt 0.097611 0.467397
vt 0.052244 0.467380
vt 0.914208 0.467360
vt 0.977784 0.735644
vt 0.966500 0.664401
vt 0.933753 0.600132
vt 0.882749 0.549127
vt 0.818480 0.516381
vt 0.747237 0.505097
vt 0.675994 0.516381
vt 0.611725 0.549127
vt 0.560720 0.600132
vt 0.527974 0.664401
vt 0.516690 0.735644
vt 0.527974 0.806887
vt 0.560720 0.871156
vt 0.611725 0.922160
vt 0.675994 0.954907
vt 0.747237 0.966191
vt 0.818480 0.954907
vt 0.882749 0.922160
vt 0.933753 0.871156
vt 0.966500 0.806887
vt 0.500895 0.736703
vt 0.489611 0.665460
vt 0.456864 0.601191
vt 0.405860 0.550187
vt 0.341590 0.517440
vt 0.270348 0.506157
vt 0.199105 0.517440
vt 0.134836 0.550187
vt 0.083831 0.601191
vt 0.051084 0.665460
vt 0.039801 0.736703
vt 0.051084 0.807946
vt 0.083831 0.872215
vt 0.134836 0.923220
vt 0.199105 0.955966
vt 0.270348 0.967250
vt 0.341590 0.955966
vt 0.405860 0.923220
vt 0.489611 0.807946
vt 0.456864 0.872215
vt 0.868842 0.467342
vt 0.823476 0.467324
vt 0.778111 0.467311
vt 0.732745 0.467301
vt 0.868851 0.044777
vt 0.052253 0.044816
vt 0.959575 0.467380
vt 0.959576 0.441564
vt 0.959574 0.074033
vt 0.914209 0.441545
vt 0.818704 0.786439
vt 0.831737 0.760160
vt 0.801704 0.811011
vt 0.776048 0.824771
vt 0.747834 0.829013
vt 0.719467 0.825287
vt 0.691780 0.814273
vt 0.669748 0.792126
vt 0.655599 0.763097
vt 0.654410 0.730592
vt 0.660530 0.699824
vt 0.672162 0.670960
vt 0.691147 0.645965
vt 0.716234 0.625105
vt 0.747834 0.621997
vt 0.777387 0.631942
vt 0.800471 0.652013
vt 0.817626 0.675594
vt 0.829844 0.701690
vt 0.835001 0.730592
vt 0.355800 0.768901
vt 0.338617 0.793540
vt 0.323790 0.820003
vt 0.298387 0.830396
vt 0.274046 0.827198
vt 0.246934 0.830335
vt 0.218559 0.821332
vt 0.191693 0.802608
vt 0.180674 0.771868
vt 0.181089 0.737067
vt 0.185089 0.703542
vt 0.203470 0.677839
vt 0.221026 0.653337
vt 0.246605 0.642604
vt 0.272653 0.638578
vt 0.298205 0.644399
vt 0.322732 0.655846
vt 0.341421 0.678193
vt 0.357095 0.704737
vt 0.359648 0.737067
vt 0.747835 0.730591
vt 0.781225 0.756904
vt 0.720027 0.708678
vt 0.768339 0.784733
vt 0.731174 0.755462
vt 0.696743 0.728345
vt 0.800617 0.734882
vt 0.730017 0.677537
vt 0.764572 0.705605
vt 0.714155 0.742058
vt 0.733997 0.719687
vt 0.747727 0.691922
vt 0.750968 0.771051
vt 0.783769 0.721198
vt 0.766105 0.744989
vt 0.272652 0.737067
vt 0.234623 0.751627
vt 0.304634 0.724822
vt 0.239433 0.782375
vt 0.280842 0.766768
vt 0.318381 0.752620
vt 0.222116 0.722002
vt 0.264233 0.706536
vt 0.302062 0.692646
vt 0.255833 0.776193
vt 0.238749 0.715894
vt 0.247479 0.746705
vt 0.299660 0.759675
vt 0.282939 0.699668
vt 0.288231 0.731102
vt 0.204886 0.843507
vt 0.172844 0.818744
vt 0.378866 0.777732
vt 0.359071 0.811050
vt 0.389311 0.737067
vt 0.153471 0.737067
vt 0.158042 0.693186
vt 0.335504 0.635131
vt 0.361694 0.660838
vt 0.160420 0.779622
vt 0.382871 0.694868
vt 0.239955 0.855644
vt 0.274046 0.855092
vt 0.175484 0.653879
vt 0.206880 0.630393
vt 0.336115 0.839993
vt 0.272653 0.614488
vt 0.306048 0.615957
vt 0.305726 0.857008
vt 0.239411 0.616515
vt 0.781578 0.843234
vt 0.814006 0.829376
vt 0.637603 0.691744
vt 0.629443 0.730592
vt 0.856586 0.730592
vt 0.861429 0.770624
vt 0.711415 0.609018
vt 0.678990 0.627817
vt 0.840603 0.803695
vt 0.652861 0.655750
vt 0.630850 0.771819
vt 0.650339 0.807421
vt 0.747834 0.605301
vt 0.783306 0.612181
vt 0.712897 0.847218
vt 0.747834 0.848814
vt 0.852381 0.693748
vt 0.836155 0.660993
vt 0.679290 0.832918
vt 0.814874 0.630510
vn 0.843298 0.225681 -0.487767
vn 0.736965 0.478077 -0.477834
vn 0.948318 0.307803 -0.077143
vn 0.806787 0.585785 -0.077143
vn 0.558241 0.688465 -0.463015
vn 0.586282 0.806426 -0.077143
vn 0.320870 0.834132 -0.448628
vn 0.308388 0.948127 -0.077144
vn 0.023317 0.876284 -0.481231
vn 0.000307 0.997020 -0.077143
vn -0.269263 0.851932 -0.449122
vn -0.307804 0.948317 -0.077144
vn -0.514413 0.721482 -0.463512
vn -0.585785 0.806787 -0.077143
vn -0.705274 0.523248 -0.478330
vn -0.806426 0.586282 -0.077143
vn -0.827022 0.278631 -0.488261
vn -0.948127 0.308389 -0.077143
vn -0.904795 0.033214 -0.424550
vn -0.997020 0.000308 -0.077143
vn -0.843298 -0.225682 -0.487767
vn -0.948317 -0.307804 -0.077143
vn -0.736966 -0.478077 -0.477832
vn -0.806787 -0.585785 -0.077144
vn -0.558242 -0.688466 -0.463012
vn -0.586282 -0.806426 -0.077143
vn -0.320870 -0.834133 -0.448626
vn -0.308388 -0.948127 -0.077144
vn -0.023317 -0.876285 -0.481228
vn -0.000307 -0.997020 -0.077143
vn 0.269263 -0.851933 -0.449118
vn 0.307804 -0.948317 -0.077143
vn 0.514414 -0.721483 -0.463509
vn 0.585785 -0.806787 -0.077144
vn 0.705275 -0.523249 -0.478329
vn 0.806425 -0.586282 -0.077144
vn 0.827022 -0.278631 -0.488261
vn 0.948127 -0.308388 -0.077143
vn 0.904795 -0.033215 -0.424550
vn 0.997020 -0.000308 -0.077143
vn 0.307665 0.948004 0.081431
vn -0.000343 0.996679 0.081431
vn 0.585556 0.806532 0.081430
vn 0.806129 0.586111 0.081431
vn 0.947792 0.308316 0.081431
vn 0.996679 0.000342 0.081431
vn 0.948004 -0.307665 0.081431
vn 0.806532 -0.585556 0.081431
vn 0.586110 -0.806129 0.081431
vn 0.308317 -0.947792 0.081431
vn 0.000343 -0.996679 0.081431
vn -0.307665 -0.948004 0.081431
vn -0.585556 -0.806532 0.081431
vn -0.806129 -0.586111 0.081431
vn -0.947792 -0.308317 0.081431
vn -0.996679 -0.000343 0.081431
vn -0.948004 0.307665 0.081431
vn -0.806532 0.585556 0.081431
vn -0.586111 0.806129 0.081431
vn -0.308317 0.947792 0.081431
vn 0.268711 0.850083 0.452939
vn -0.023255 0.874544 0.484389
vn 0.513283 0.719844 0.467297
vn 0.703643 0.522001 0.482081
vn 0.825045 0.277934 0.491989
vn 0.902557 0.033117 0.429296
vn 0.841277 -0.225141 0.491493
vn 0.735245 -0.476961 0.481584
vn 0.556989 -0.686921 0.466801
vn 0.320178 -0.832333 0.452446
vn 0.023255 -0.874542 0.484392
vn -0.268710 -0.850081 0.452943
vn -0.513281 -0.719843 0.467300
vn -0.703642 -0.522001 0.482083
vn -0.825045 -0.277934 0.491989
vn -0.902556 -0.033119 0.429296
vn -0.841276 0.225141 0.491493
vn -0.735246 0.476961 0.481582
vn -0.556991 0.686922 0.466798
vn -0.320179 0.832334 0.452443
vn 0.023522 -0.002121 0.999721
vn -0.056320 0.026367 0.998065
vn -0.046334 -0.015866 0.998800
vn -0.103172 -0.014889 0.994552
vn 0.066588 -0.035688 0.997142
vn -0.032193 -0.083747 0.995967
vn 0.021446 -0.063800 0.997732
vn -0.006098 -0.001056 0.999981
vn 0.039691 -0.058470 0.997500
vn 0.023155 -0.031390 0.999239
vn -0.036748 0.059453 0.997555
vn -0.019981 0.051851 0.998455
vn 0.046949 0.038179 0.998167
vn 0.119779 0.009907 0.992751
vn 0.030122 0.091632 0.995337
vn -0.014512 0.005643 -0.999879
vn -0.086985 0.030616 -0.995739
vn -0.000890 0.080050 -0.996790
vn -0.063830 0.091205 -0.993784
vn -0.046478 -0.063451 -0.996902
vn -0.089298 -0.033365 -0.995446
vn 0.013595 0.060650 -0.998067
vn 0.000000 0.000000 -1.000000
vn 0.020631 0.047504 -0.998658
vn 0.023434 -0.007499 -0.999697
vn -0.029987 -0.054618 -0.998057
vn -0.011134 -0.057592 -0.998278
vn 0.051051 -0.015181 -0.998581
vn 0.095067 0.046025 -0.994406
vn 0.045968 -0.078298 -0.995870
vn -0.370277 0.001982 -0.928919
vn -0.303364 -0.115524 -0.945846
vn -0.092413 -0.355903 -0.929942
vn 0.000121 -0.225885 -0.974154
vn 0.116075 -0.435578 -0.892636
vn 0.160329 -0.248246 -0.955337
vn -0.251194 0.096779 -0.963086
vn -0.261668 0.214088 -0.941115
vn 0.368606 0.001930 -0.929584
vn 0.297628 0.118604 -0.947286
vn 0.221588 0.173281 -0.959621
vn 0.233918 0.129496 -0.963594
vn 0.158190 0.061623 -0.985484
vn 0.144454 0.017511 -0.989357
vn 0.371497 -0.143657 -0.917253
vn 0.261567 -0.213225 -0.941338
vn -0.169176 0.004567 -0.985575
vn -0.140291 -0.051768 -0.988756
vn 0.150101 -0.220258 -0.963824
vn 0.131416 -0.108699 -0.985350
vn -0.230051 0.076314 -0.970182
vn -0.171733 0.143004 -0.974709
vn 0.077928 -0.030163 -0.996503
vn -0.323959 -0.262803 -0.908837
vn -0.192114 -0.299281 -0.934625
vn -0.203634 0.159101 -0.966033
vn -0.190682 0.246341 -0.950240
vn -0.075955 0.261451 -0.962223
vn -0.102921 -0.140861 -0.984665
vn -0.109215 -0.089969 -0.989938
vn -0.265523 0.045363 -0.963037
vn -0.295107 -0.106592 -0.949500
vn -0.173593 -0.190497 -0.966218
vn -0.290867 0.124197 -0.948668
vn -0.134359 -0.222207 -0.965698
vn 0.095596 0.355154 -0.929907
vn 0.001220 0.283684 -0.958917
vn 0.193498 0.301362 -0.933670
vn 0.098883 0.126588 -0.987014
vn 0.255260 0.032896 -0.966313
vn 0.299376 0.134909 -0.944550
vn 0.204505 0.143364 -0.968310
vn 0.003828 -0.280685 -0.959792
vn 0.024518 -0.091083 -0.995541
vn 0.221833 -0.168983 -0.960331
vn 0.176260 -0.262729 -0.948634
vn 0.063562 -0.297915 -0.952474
vn 0.259145 -0.089346 -0.961697
vn -0.059349 -0.174011 -0.982954
vn -0.066099 -0.294422 -0.953387
vn 0.001012 -0.252977 -0.967472
vn 0.200800 0.241381 -0.949429
vn -0.116013 0.435390 -0.892735
vn -0.194463 0.294304 -0.935719
vn -0.093858 0.133791 -0.986555
vn -0.025510 0.075953 -0.996785
vn -0.004543 0.174208 -0.984699
vn 0.016381 0.260973 -0.965207
vn 0.056171 0.221508 -0.973539
vn 0.050002 0.220656 -0.974069
vn 0.190482 0.291381 0.937451
vn 0.093863 0.348279 0.932680
vn 0.001173 0.274518 0.961581
vn -0.293423 0.110874 0.949531
vn -0.256338 0.206923 0.944179
vn -0.089794 -0.346173 0.933863
vn -0.013142 -0.219759 0.975466
vn 0.370838 0.143455 0.917551
vn 0.210784 0.175363 0.961675
vn -0.114175 0.430139 0.895514
vn -0.189784 0.289672 0.938122
vn 0.106475 -0.355373 0.928641
vn -0.362622 -0.000529 0.931936
vn -0.239453 -0.094697 0.966279
vn 0.106169 0.136760 0.984899
vn 0.087967 0.221987 0.971074
vn -0.239982 -0.085032 0.967046
vn -0.230687 -0.013411 0.972936
vn -0.255180 -0.205809 0.944736
vn -0.232527 -0.359682 0.903637
vn -0.044070 -0.259392 0.964766
vn -0.099850 -0.169485 0.980462
vn -0.167188 -0.127429 0.977655
vn -0.122225 0.041183 0.991648
vn -0.192852 0.150589 0.969604
vn -0.312361 -0.078952 0.946677
vn -0.285991 -0.015851 0.958101
vn -0.286978 0.087540 0.953929
vn -0.019375 -0.263130 0.964566
vn 0.090787 -0.233585 0.968089
vn -0.231325 -0.271830 0.934129
vn -0.233600 -0.126288 0.964097
vn -0.117234 -0.378626 0.918095
vn 0.023902 -0.369040 0.929106
vn -0.200520 0.151474 0.967909
vn 0.132840 -0.252519 0.958430
vn 0.233702 -0.361221 0.902720
vn 0.257459 -0.209125 0.943389
vn 0.008057 0.283729 0.958871
vn -0.057253 0.178133 0.982340
vn 0.252511 0.304283 0.918504
vn 0.105526 0.376878 0.920232
vn -0.020325 0.286121 0.957978
vn -0.093290 0.139523 0.985815
vn -0.214414 0.299371 0.929733
vn -0.057805 0.306943 0.949971
vn 0.078451 -0.066482 0.994699
vn 0.156065 -0.124767 0.979835
vn 0.210119 -0.217518 0.953172
vn 0.222409 -0.185494 0.957145
vn 0.299451 -0.096603 0.949209
vn 0.312394 -0.001501 0.949951
vn 0.297239 -0.113565 0.948025
vn 0.086287 0.031738 0.995765
vn 0.301695 0.001933 0.953403
vn 0.243731 0.169363 0.954941
vn 0.192517 -0.075972 0.978348
vn 0.309590 0.126370 0.942436
vn 0.244058 0.139900 0.959617
vn 0.347867 0.020092 0.937329
f 1/3/1 2/4/2 45/8/3
f 45/8/3 2/4/2 44/7/4
f 2/4/2 3/9/5 44/7/4
f 44/7/4 3/9/5 43/10/6
f 3/9/5 4/13/7 43/10/6
f 43/10/6 4/13/7 42/14/8
f 4/13/7 5/15/9 42/14/8
f 42/14/8 5/15/9 41/18/10
f 5/15/9 6/19/11 41/18/10
f 41/18/10 6/19/11 60/20/12
f 6/19/11 7/21/13 60/20/12
f 60/20/12 7/21/13 59/24/14
f 7/21/13 8/25/15 59/24/14
f 59/24/14 8/25/15 58/26/16
f 8/25/15 9/159/17 58/26/16
f 58/26/16 9/159/17 57/29/18
f 9/159/17 10/30/19 57/29/18
f 57/29/18 10/30/19 56/31/20
f 10/30/19 11/32/21 56/31/20
f 56/31/20 11/32/21 55/163/22
f 11/160/21 12/36/23 55/35/22
f 55/35/22 12/36/23 54/37/24
f 12/36/23 13/38/25 54/37/24
f 54/37/24 13/38/25 53/41/26
f 13/38/25 14/42/27 53/41/26
f 53/41/26 14/42/27 52/43/28
f 14/42/27 15/44/29 52/43/28
f 52/43/28 15/44/29 51/47/30
f 15/44/29 16/48/31 51/47/30
f 51/47/30 16/48/31 50/49/32
f 16/48/31 17/52/33 50/49/32
f 50/49/32 17/52/33 49/53/34
f 17/52/33 18/54/35 49/53/34
f 49/53/34 18/54/35 48/55/36
f 18/54/35 19/56/37 48/55/36
f 48/55/36 19/56/37 47/57/38
f 19/56/37 20/60/39 47/57/38
f 47/57/38 20/60/39 46/61/40
f 20/60/39 1/3/1 46/61/40
f 46/61/40 1/3/1 45/8/3
f 42/14/8 41/18/10 62/65/41
f 62/65/41 41/18/10 61/64/42
f 43/10/6 42/14/8 63/66/43
f 63/66/43 42/14/8 62/65/41
f 44/7/4 43/10/6 64/67/44
f 64/67/44 43/10/6 63/66/43
f 45/8/3 44/7/4 65/70/45
f 65/70/45 44/7/4 64/67/44
f 46/61/40 45/8/3 66/71/46
f 66/71/46 45/8/3 65/70/45
f 47/57/38 46/61/40 67/72/47
f 67/72/47 46/61/40 66/71/46
f 48/55/36 47/57/38 68/75/48
f 68/75/48 47/57/38 67/72/47
f 49/53/34 48/55/36 69/76/49
f 69/76/49 48/55/36 68/75/48
f 50/49/32 49/53/34 70/77/50
f 70/77/50 49/53/34 69/76/49
f 51/47/30 50/49/32 71/80/51
f 71/80/51 50/49/32 70/77/50
f 52/43/28 51/47/30 72/81/52
f 72/81/52 51/47/30 71/80/51
f 53/41/26 52/43/28 73/82/53
f 73/82/53 52/43/28 72/81/52
f 54/37/24 53/41/26 74/83/54
f 74/83/54 53/41/26 73/82/53
f 55/35/22 54/37/24 75/86/55
f 75/86/55 54/37/24 74/83/54
f 56/31/20 55/163/22 76/164/56
f 76/164/56 55/163/22 75/162/55
f 57/29/18 56/31/20 77/87/57
f 77/87/57 56/31/20 76/164/56
f 58/26/16 57/29/18 78/88/58
f 78/88/58 57/29/18 77/87/57
f 59/24/14 58/26/16 79/91/59
f 79/91/59 58/26/16 78/88/58
f 60/20/12 59/24/14 80/92/60
f 80/92/60 59/24/14 79/91/59
f 41/18/10 60/20/12 61/64/42
f 61/64/42 60/20/12 80/92/60
f 62/65/41 61/64/42 24/94/61
f 24/94/61 61/64/42 25/93/62
f 63/66/43 62/65/41 23/97/63
f 23/97/63 62/65/41 24/94/61
f 64/67/44 63/66/43 22/98/64
f 22/98/64 63/66/43 23/97/63
f 65/70/45 64/67/44 21/99/65
f 21/99/65 64/67/44 22/98/64
f 66/71/46 65/70/45 40/100/66
f 40/100/66 65/70/45 21/99/65
f 67/72/47 66/71/46 39/103/67
f 39/103/67 66/71/46 40/100/66
f 68/75/48 67/72/47 38/104/68
f 38/104/68 67/72/47 39/103/67
f 69/76/49 68/75/48 37/105/69
f 37/105/69 68/75/48 38/104/68
f 70/77/50 69/76/49 36/106/70
f 36/106/70 69/76/49 37/105/69
f 71/80/51 70/77/50 35/109/71
f 35/109/71 70/77/50 36/106/70
f 72/81/52 71/80/51 34/110/72
f 34/110/72 71/80/51 35/109/71
f 73/82/53 72/81/52 33/111/73
f 33/111/73 72/81/52 34/110/72
f 74/83/54 73/82/53 32/112/74
f 32/112/74 73/82/53 33/111/73
f 75/86/55 74/83/54 31/113/75
f 31/113/75 74/83/54 32/112/74
f 76/164/56 75/162/55 30/114/76
f 30/114/76 75/162/55 31/161/75
f 77/87/57 76/164/56 29/155/77
f 29/155/77 76/164/56 30/114/76
f 78/88/58 77/87/57 28/156/78
f 28/156/78 77/87/57 29/155/77
f 79/91/59 78/88/58 27/157/79
f 27/157/79 78/88/58 28/156/78
f 80/92/60 79/91/59 26/158/80
f 26/158/80 79/91/59 27/157/79
f 61/64/42 80/92/60 25/93/62
f 25/93/62 80/92/60 26/158/80
f 172/215/81 170/214/82 163/207/83
f 163/207/83 170/214/82 166/210/84
f 172/215/81 163/207/83 171/216/85
f 171/216/85 163/207/83 168/212/86
f 174/218/87 175/219/88 169/213/89
f 169/213/89 175/219/88 161/205/90
f 173/217/91 165/209/92 175/219/88
f 175/219/88 165/209/92 161/205/90
f 171/216/85 169/213/89 172/215/81
f 172/215/81 169/213/89 161/205/90
f 170/214/82 172/215/81 165/209/92
f 165/209/92 172/215/81 161/205/90
f 175/219/88 174/218/87 162/206/93
f 162/206/93 174/218/87 167/211/94
f 175/219/88 162/206/93 173/217/91
f 173/217/91 162/206/93 164/208/95
f 187/231/96 177/221/97 185/229/98
f 185/229/98 177/221/97 179/223/99
f 187/231/96 186/230/100 177/221/97
f 177/221/97 186/230/100 182/226/101
f 188/232/102 190/234/103 180/224/104
f 180/224/104 190/234/103 176/220/105
f 189/233/106 183/227/107 190/234/103
f 190/234/103 183/227/107 176/220/105
f 185/229/98 180/224/104 187/231/96
f 187/231/96 180/224/104 176/220/105
f 186/230/100 187/231/96 183/227/107
f 183/227/107 187/231/96 176/220/105
f 190/234/103 188/232/102 178/222/108
f 178/222/108 188/232/102 181/225/109
f 190/234/103 178/222/108 189/233/106
f 189/233/106 178/222/108 184/228/110
f 10/145/19 90/23/111 11/144/21
f 11/144/21 90/23/111 91/27/112
f 14/141/27 94/34/113 15/140/29
f 15/140/29 94/34/113 95/39/114
f 16/139/31 15/140/29 96/40/115
f 96/40/115 15/140/29 95/39/114
f 17/138/33 16/139/31 97/45/116
f 97/45/116 16/139/31 96/40/115
f 9/146/17 8/147/15 89/22/117
f 89/22/117 8/147/15 88/17/118
f 20/135/39 100/51/119 1/153/1
f 1/153/1 100/51/119 81/2/120
f 10/145/19 9/146/17 90/23/111
f 90/23/111 9/146/17 89/22/117
f 1/153/1 81/2/120 2/154/2
f 2/154/2 81/2/120 82/1/121
f 193/238/122 82/1/121 194/237/123
f 194/237/123 82/1/121 81/2/120
f 194/237/123 81/2/120 195/239/124
f 195/239/124 81/2/120 100/51/119
f 19/136/37 18/137/35 99/50/125
f 99/50/125 18/137/35 98/46/126
f 196/240/127 197/241/128 90/23/111
f 90/23/111 197/241/128 91/27/112
f 18/137/35 17/138/33 98/46/126
f 98/46/126 17/138/33 97/45/116
f 199/242/129 198/243/130 97/45/116
f 97/45/116 198/243/130 98/46/126
f 20/135/39 19/136/37 100/51/119
f 100/51/119 19/136/37 99/50/125
f 200/244/131 89/22/117 192/236/132
f 192/236/132 89/22/117 88/17/118
f 200/244/131 196/240/127 89/22/117
f 89/22/117 196/240/127 90/23/111
f 198/243/130 201/245/133 98/46/126
f 98/46/126 201/245/133 99/50/125
f 195/239/124 100/51/119 201/245/133
f 201/245/133 100/51/119 99/50/125
f 11/144/21 91/27/112 12/143/23
f 12/143/23 91/27/112 92/28/134
f 12/143/23 92/28/134 13/142/25
f 13/142/25 92/28/134 93/33/135
f 13/142/25 93/33/135 14/141/27
f 14/141/27 93/33/135 94/34/113
f 148/192/136 147/191/137 179/223/99
f 179/223/99 147/191/137 146/190/138
f 205/249/139 93/33/135 204/248/140
f 204/248/140 93/33/135 92/28/134
f 197/241/128 204/248/140 91/27/112
f 91/27/112 204/248/140 92/28/134
f 150/194/141 182/226/101 151/195/142
f 151/195/142 182/226/101 152/196/143
f 179/223/99 177/221/97 148/192/136
f 148/192/136 177/221/97 149/193/144
f 182/226/101 150/194/141 177/221/97
f 177/221/97 150/194/141 149/193/144
f 153/197/145 152/196/143 186/230/100
f 186/230/100 152/196/143 182/226/101
f 4/151/7 84/6/146 5/150/9
f 5/150/9 84/6/146 85/11/147
f 2/154/2 82/1/121 3/152/5
f 3/152/5 82/1/121 83/5/148
f 3/152/5 83/5/148 4/151/7
f 4/151/7 83/5/148 84/6/146
f 193/238/122 206/250/149 82/1/121
f 82/1/121 206/250/149 83/5/148
f 160/204/150 181/225/109 141/185/151
f 141/185/151 181/225/109 142/186/152
f 208/251/153 207/252/154 95/39/114
f 95/39/114 207/252/154 96/40/115
f 199/242/129 97/45/116 207/252/154
f 207/252/154 97/45/116 96/40/115
f 158/202/155 157/201/156 184/228/110
f 184/228/110 157/201/156 156/200/157
f 181/225/109 160/204/150 178/222/108
f 178/222/108 160/204/150 159/203/158
f 184/228/110 178/222/108 158/202/155
f 158/202/155 178/222/108 159/203/158
f 210/254/159 94/34/113 205/249/139
f 205/249/139 94/34/113 93/33/135
f 208/251/153 95/39/114 210/254/159
f 210/254/159 95/39/114 94/34/113
f 154/198/160 153/197/145 183/227/107
f 183/227/107 153/197/145 186/230/100
f 154/198/160 183/227/107 155/199/161
f 155/199/161 183/227/107 189/233/106
f 143/187/162 142/186/152 188/232/102
f 188/232/102 142/186/152 181/225/109
f 155/199/161 189/233/106 156/200/157
f 156/200/157 189/233/106 184/228/110
f 200/244/131 192/236/132 149/193/144
f 149/193/144 192/236/132 148/192/136
f 196/240/127 200/244/131 150/194/141
f 150/194/141 200/244/131 149/193/144
f 197/241/128 196/240/127 151/195/142
f 151/195/142 196/240/127 150/194/141
f 197/241/128 151/195/142 204/248/140
f 204/248/140 151/195/142 152/196/143
f 204/248/140 152/196/143 205/249/139
f 205/249/139 152/196/143 153/197/145
f 205/249/139 153/197/145 210/254/159
f 210/254/159 153/197/145 154/198/160
f 210/254/159 154/198/160 208/251/153
f 208/251/153 154/198/160 155/199/161
f 207/252/154 208/251/153 156/200/157
f 156/200/157 208/251/153 155/199/161
f 207/252/154 156/200/157 199/242/129
f 199/242/129 156/200/157 157/201/156
f 198/243/130 199/242/129 158/202/155
f 158/202/155 199/242/129 157/201/156
f 201/245/133 198/243/130 159/203/158
f 159/203/158 198/243/130 158/202/155
f 201/245/133 159/203/158 195/239/124
f 195/239/124 159/203/158 160/204/150
f 195/239/124 160/204/150 194/237/123
f 194/237/123 160/204/150 141/185/151
f 194/237/123 141/185/151 193/238/122
f 193/238/122 141/185/151 142/186/152
f 206/250/149 193/238/122 143/187/162
f 143/187/162 193/238/122 142/186/152
f 6/149/11 5/150/9 86/12/163
f 86/12/163 5/150/9 85/11/147
f 7/148/13 6/149/11 87/16/164
f 87/16/164 6/149/11 86/12/163
f 8/147/15 7/148/13 88/17/118
f 88/17/118 7/148/13 87/16/164
f 87/16/164 191/235/165 88/17/118
f 88/17/118 191/235/165 192/236/132
f 86/12/163 85/11/147 202/246/166
f 202/246/166 85/11/147 203/247/167
f 191/235/165 87/16/164 202/246/166
f 202/246/166 87/16/164 86/12/163
f 145/189/168 185/229/98 146/190/138
f 146/190/138 185/229/98 179/223/99
f 206/250/149 209/253/169 83/5/148
f 83/5/148 209/253/169 84/6/146
f 209/253/169 203/247/167 84/6/146
f 84/6/146 203/247/167 85/11/147
f 144/188/170 180/224/104 145/189/168
f 145/189/168 180/224/104 185/229/98
f 180/224/104 144/188/170 188/232/102
f 188/232/102 144/188/170 143/187/162
f 202/246/166 146/190/138 191/235/165
f 191/235/165 146/190/138 147/191/137
f 148/192/136 192/236/132 147/191/137
f 147/191/137 192/236/132 191/235/165
f 206/250/149 143/187/162 209/253/169
f 209/253/169 143/187/162 144/188/170
f 203/247/167 209/253/169 145/189/168
f 145/189/168 209/253/169 144/188/170
f 202/246/166 203/247/167 146/190/138
f 146/190/138 203/247/167 145/189/168
f 23/132/63 24/131/61 103/62/171
f 103/62/171 24/131/61 104/63/172
f 24/131/61 25/130/62 104/63/172
f 104/63/172 25/130/62 105/68/173
f 29/126/77 109/78/174 28/127/78
f 28/127/78 109/78/174 108/74/175
f 34/121/72 35/120/71 114/90/176
f 114/90/176 35/120/71 115/95/177
f 21/134/65 22/133/64 101/58/178
f 101/58/178 22/133/64 102/59/179
f 22/133/64 23/132/63 102/59/179
f 102/59/179 23/132/63 103/62/171
f 26/129/80 106/69/180 25/130/62
f 25/130/62 106/69/180 105/68/173
f 27/128/79 107/73/181 26/129/80
f 26/129/80 107/73/181 106/69/180
f 28/127/78 108/74/175 27/128/79
f 27/128/79 108/74/175 107/73/181
f 36/119/70 116/96/182 35/120/71
f 35/120/71 116/96/182 115/95/177
f 30/125/76 110/79/183 29/126/77
f 29/126/77 110/79/183 109/78/174
f 30/125/76 31/124/75 110/79/183
f 110/79/183 31/124/75 111/84/184
f 211/256/185 103/62/171 212/255/186
f 212/255/186 103/62/171 104/63/172
f 213/257/187 214/258/188 111/84/184
f 111/84/184 214/258/188 110/79/183
f 32/123/74 33/122/73 112/85/189
f 112/85/189 33/122/73 113/89/190
f 33/122/73 34/121/72 113/89/190
f 113/89/190 34/121/72 114/90/176
f 218/261/191 217/262/192 114/90/176
f 114/90/176 217/262/192 113/89/190
f 31/124/75 32/123/74 111/84/184
f 111/84/184 32/123/74 112/85/189
f 213/257/187 111/84/184 220/264/193
f 220/264/193 111/84/184 112/85/189
f 220/264/193 112/85/189 217/262/192
f 217/262/192 112/85/189 113/89/190
f 221/265/194 222/266/195 109/78/174
f 109/78/174 222/266/195 108/74/175
f 214/258/188 221/265/194 110/79/183
f 110/79/183 221/265/194 109/78/174
f 131/175/196 166/210/84 130/174/197
f 130/174/197 166/210/84 129/173/198
f 223/267/199 218/261/191 115/95/177
f 115/95/177 218/261/191 114/90/176
f 223/267/199 115/95/177 224/268/200
f 224/268/200 115/95/177 116/96/182
f 133/177/201 168/212/86 132/176/202
f 132/176/202 168/212/86 163/207/83
f 131/175/196 132/176/202 166/210/84
f 166/210/84 132/176/202 163/207/83
f 133/177/201 134/178/203 168/212/86
f 168/212/86 134/178/203 135/179/204
f 128/172/205 129/173/198 170/214/82
f 170/214/82 129/173/198 166/210/84
f 136/180/206 171/216/85 135/179/204
f 135/179/204 171/216/85 168/212/86
f 37/118/69 117/101/207 36/119/70
f 36/119/70 117/101/207 116/96/182
f 38/117/68 118/102/208 37/118/69
f 37/118/69 118/102/208 117/101/207
f 225/270/209 105/68/173 226/269/210
f 226/269/210 105/68/173 106/69/180
f 212/255/186 104/63/172 225/270/209
f 225/270/209 104/63/172 105/68/173
f 123/167/211 124/168/212 164/208/95
f 164/208/95 124/168/212 125/169/213
f 229/273/214 226/269/210 107/73/181
f 107/73/181 226/269/210 106/69/180
f 222/266/195 229/273/214 108/74/175
f 108/74/175 229/273/214 107/73/181
f 127/171/215 165/209/92 126/170/216
f 126/170/216 165/209/92 173/217/91
f 127/171/215 128/172/205 165/209/92
f 165/209/92 128/172/205 170/214/82
f 224/268/200 116/96/182 230/274/217
f 230/274/217 116/96/182 117/101/207
f 228/272/218 230/274/217 118/102/208
f 118/102/208 230/274/217 117/101/207
f 136/180/206 137/181/219 171/216/85
f 171/216/85 137/181/219 169/213/89
f 137/181/219 138/182/220 169/213/89
f 169/213/89 138/182/220 174/218/87
f 138/182/220 139/183/221 174/218/87
f 174/218/87 139/183/221 167/211/94
f 126/170/216 173/217/91 125/169/213
f 125/169/213 173/217/91 164/208/95
f 230/274/217 228/272/218 137/181/219
f 137/181/219 228/272/218 138/182/220
f 230/274/217 137/181/219 224/268/200
f 224/268/200 137/181/219 136/180/206
f 223/267/199 224/268/200 135/179/204
f 135/179/204 224/268/200 136/180/206
f 223/267/199 135/179/204 218/261/191
f 218/261/191 135/179/204 134/178/203
f 218/261/191 134/178/203 217/262/192
f 217/262/192 134/178/203 133/177/201
f 217/262/192 133/177/201 220/264/193
f 220/264/193 133/177/201 132/176/202
f 220/264/193 132/176/202 213/257/187
f 213/257/187 132/176/202 131/175/196
f 213/257/187 131/175/196 214/258/188
f 214/258/188 131/175/196 130/174/197
f 221/265/194 214/258/188 129/173/198
f 129/173/198 214/258/188 130/174/197
f 221/265/194 129/173/198 222/266/195
f 222/266/195 129/173/198 128/172/205
f 229/273/214 222/266/195 127/171/215
f 127/171/215 222/266/195 128/172/205
f 229/273/214 127/171/215 226/269/210
f 226/269/210 127/171/215 126/170/216
f 226/269/210 126/170/216 225/270/209
f 225/270/209 126/170/216 125/169/213
f 212/255/186 225/270/209 124/168/212
f 124/168/212 225/270/209 125/169/213
f 211/256/185 212/255/186 123/167/211
f 123/167/211 212/255/186 124/168/212
f 40/115/66 120/108/222 39/116/67
f 39/116/67 120/108/222 119/107/223
f 40/115/66 21/134/65 120/108/222
f 120/108/222 21/134/65 101/58/178
f 101/58/178 216/260/224 120/108/222
f 120/108/222 216/260/224 215/259/225
f 219/263/226 216/260/224 102/59/179
f 102/59/179 216/260/224 101/58/178
f 103/62/171 211/256/185 102/59/179
f 102/59/179 211/256/185 219/263/226
f 39/116/67 119/107/223 38/117/68
f 38/117/68 119/107/223 118/102/208
f 227/271/227 228/272/218 119/107/223
f 119/107/223 228/272/218 118/102/208
f 215/259/225 227/271/227 120/108/222
f 120/108/222 227/271/227 119/107/223
f 167/211/94 122/166/228 162/206/93
f 162/206/93 122/166/228 121/165/229
f 123/167/211 164/208/95 121/165/229
f 121/165/229 164/208/95 162/206/93
f 122/166/228 167/211/94 140/184/230
f 140/184/230 167/211/94 139/183/221
f 227/271/227 215/259/225 139/183/221
f 139/183/221 215/259/225 140/184/230
f 228/272/218 227/271/227 138/182/220
f 138/182/220 227/271/227 139/183/221
f 211/256/185 123/167/211 219/263/226
f 219/263/226 123/167/211 121/165/229
f 216/260/224 219/263/226 122/166/228
f 122/166/228 219/263/226 121/165/229
f 216/260/224 122/166/228 215/259/225
f 215/259/225 122/166/228 140/184/230
