# This file uses centimeters as units for non-parametric coordinates.

v -39.747738 -4.107620 -65.711784
v -25.790421 -20.459295 -19.791363
v 41.083134 -9.496625 -73.249352
v 29.016493 -22.098545 -20.872475
v 0.612426 -25.511408 -14.581334
v 0.747691 -19.165213 -27.027954
v -32.186806 -19.478790 -41.583218
v -21.588591 -19.824871 -26.290792
v 30.022890 -19.874863 -36.793903
v 0.463132 -20.668045 -20.789022
v 20.173918 -17.410410 -24.293354
v -0.119853 -6.236755 -69.539925
v 0.608573 -16.547726 -33.641262
v 18.841841 -7.894982 -71.491516
v 12.446665 -17.834024 -35.383793
v -21.921919 -4.587298 -67.656563
v -13.348461 -17.585424 -37.208530
v 9.161141 -17.945660 -26.242374
v -10.338587 -18.815182 -27.031385
v 9.325688 -7.070340 -70.552666
v 6.596329 -17.324682 -34.419918
v -12.224947 -5.357526 -68.467896
v -6.841929 -17.031733 -35.402996
v -21.122734 -18.339817 -39.003593
v -31.167189 -3.857623 -66.922340
v 20.525969 -18.807718 -36.376320
v 29.789621 -8.604982 -72.334213
v -36.472801 -11.784295 -52.122128
v -25.510551 -11.989899 -51.426117
v -9.004552 -11.844591 -50.446808
v 0.363106 -11.852779 -50.166355
v 7.679550 -12.652482 -50.834785
v -17.120716 -11.886163 -50.853588
v 34.117683 -14.952779 -52.790634
v 24.084255 -14.426267 -52.125309
v 15.043050 -13.469987 -51.473095
v -15.695024 -19.455034 -26.588657
v -12.320542 -23.036720 -17.133375
v -10.039231 -21.141592 -22.765060
v -16.207077 -20.438408 -24.647951
v -18.467726 -21.860474 -18.346388
v 18.164602 -13.800151 -51.698277
v 22.660164 -8.142613 -71.785431
v 12.758916 -17.770798 -25.605646
v 16.410446 -18.311728 -35.870735
v 13.418778 -18.526844 -23.092375
v 16.553356 -23.596041 -18.112049
v -56.142048 4.704134 -52.050903
v -47.910770 24.081545 -58.851246
v -32.451511 33.190273 -63.149185
v -1.313982 33.674473 -63.461620
v 17.480257 31.384832 -62.551624
v 43.860260 28.273840 -61.258335
v 65.497231 11.471395 -59.933407
v 54.755180 -8.715407 -39.692970
v 54.190933 -10.291433 -29.152796
v 41.282284 -31.558929 -11.881607
v 23.617472 -31.240479 -11.829378
v 0.936846 -31.036404 -11.547425
v -16.116667 -30.532032 -11.748513
v -22.826492 -30.387262 -11.791322
v -33.345436 -30.158566 -11.832360
v -43.188614 -14.056722 -26.287958
v -51.088943 -7.149815 -35.425320
vt 0.069660 0.962848
vt 0.056847 0.050037
vt 0.947560 0.962639
vt 0.946681 0.045850
vt 0.496067 0.047786
vt 0.495982 0.136930
vt 0.058546 0.295904
vt 0.124356 0.075235
vt 0.946909 0.285366
vt 0.479792 0.086916
vt 0.890000 0.095417
vt 0.496212 0.962660
vt 0.496266 0.253798
vt 0.709457 0.962555
vt 0.698276 0.267224
vt 0.253100 0.962764
vt 0.311209 0.272456
vt 0.679555 0.118791
vt 0.308892 0.135451
vt 0.599298 0.962607
vt 0.599134 0.260309
vt 0.383953 0.962716
vt 0.384040 0.263296
vt 0.205043 0.282308
vt 0.154195 0.962809
vt 0.821220 0.276294
vt 0.826050 0.962695
vt 0.063415 0.580274
vt 0.182274 0.580273
vt 0.496241 0.580266
vt 0.384000 0.580269
vt 0.599208 0.580264
vt 0.284890 0.580272
vt 0.947185 0.580453
vt 0.823317 0.580455
vt 0.703238 0.580263
vt 0.225872 0.091163
vt 0.287111 0.025647
vt 0.305268 0.085834
vt 0.214420 0.076563
vt 0.182027 0.036778
vt 0.744671 0.580455
vt 0.750097 0.962730
vt 0.748318 0.111092
vt 0.758574 0.271772
vt 0.749443 0.092377
vt 0.748983 0.046592
vt 0.750135 0.962536
vt 0.744710 0.580262
vt 0.758613 0.271579
vt 0.748944 0.046785
vt 0.749404 0.092570
vt 0.748280 0.111285
vt 0.020135 0.981298
vt 0.152412 0.980892
vt 0.250089 0.982802
vt 0.496030 0.984347
vt 0.600421 0.985010
vt 0.762169 0.990295
vt 0.751135 0.986932
vt 0.972509 0.998547
vt 0.968772 0.596629
vt 0.966593 0.334035
vt 0.963134 0.011000
vt 0.745466 0.011375
vt 0.745505 0.011181
vt 0.462776 0.010997
vt 0.249237 0.007682
vt 0.164582 0.008483
vt 0.033532 0.009241
vt 0.012119 0.274419
vt 0.012397 0.560038
vn -0.008967 0.944944 0.327108
vn -0.067862 0.951331 0.300606
vn -0.067862 0.951331 0.300606
vn -0.126471 0.953711 0.272838
vn 0.129513 0.951415 0.279350
vn 0.143842 0.951042 0.273548
vn 0.143842 0.951042 0.273548
vn 0.158137 0.950442 0.267681
vn -0.021957 0.939413 0.342085
vn 0.041278 0.933073 0.357311
vn 0.041278 0.933073 0.357311
vn 0.104336 0.922749 0.371011
vn -0.039088 0.912375 0.407485
vn 0.033043 0.906560 0.420782
vn 0.033043 0.906560 0.420782
vn 0.104995 0.895837 0.431801
vn -0.013171 0.883411 0.468414
vn 0.014796 0.879216 0.476193
vn 0.014796 0.879216 0.476193
vn 0.042750 0.874265 0.483563
vn -0.022750 0.803009 0.595532
vn -0.113746 0.826341 0.551564
vn -0.113746 0.826341 0.551564
vn -0.203518 0.840783 0.501661
vn -0.024310 0.920064 0.391012
vn -0.099360 0.924396 0.368265
vn -0.099360 0.924396 0.368265
vn -0.173796 0.923026 0.343246
vn -0.042768 0.883399 0.466666
vn -0.113456 0.888129 0.445369
vn -0.113456 0.888129 0.445369
vn -0.183524 0.888000 0.421635
vn -0.126604 0.979639 0.155818
vn -0.048120 0.980826 0.188852
vn -0.081368 0.964941 0.249538
vn -0.058250 0.953508 0.295686
vn -0.146396 0.918745 0.366710
vn -0.128533 0.981146 0.144329
vn -0.116800 0.982200 0.147107
vn -0.116800 0.982200 0.147107
vn -0.105051 0.983110 0.149863
vn -0.055784 0.996565 0.061213
vn -0.055784 0.996565 0.061213
vn -0.055784 0.996565 0.061213
vn -0.056493 0.991896 0.113799
vn -0.091920 0.989424 0.112212
vn -0.091920 0.989424 0.112212
vn -0.127231 0.985701 0.110483
vn -0.046937 0.875598 0.480755
vn -0.059066 0.886741 0.458477
vn -0.059066 0.886741 0.458477
vn -0.071151 0.897204 0.435848
vn 0.131067 0.955923 0.262741
vn 0.070447 0.953441 0.293236
vn 0.070447 0.953441 0.293236
vn 0.009502 0.946563 0.322378
vn -0.033695 0.895070 0.444650
vn -0.033695 0.895070 0.444650
vn -0.033695 0.895070 0.444650
vn 0.039508 0.971572 0.233427
vn 0.093968 0.972673 0.212315
vn 0.093968 0.972673 0.212315
vn 0.148107 0.970455 0.190479
vn 0.129821 0.951468 0.279024
vn 0.129341 0.951488 0.279179
vn 0.129341 0.951488 0.279179
vn 0.128862 0.951508 0.279333
vn 0.094159 0.994495 0.045987
vn 0.036194 0.983077 0.179585
vn -0.029962 0.995928 0.085025
vn 0.006308 0.969172 0.246306
vn 0.165934 0.918119 0.359893
vn 0.118410 0.992912 -0.010202
vn 0.035491 0.999341 -0.007595
vn 0.035491 0.999341 -0.007595
vn -0.047673 0.998851 -0.004937
vn 0.106144 0.988116 -0.111176
vn 0.105788 0.988153 -0.111190
vn 0.058390 0.993643 -0.096252
vn -0.036845 0.997162 -0.065653
vn 0.034390 0.995467 -0.088678
vn 0.416613 0.896367 0.151526
vn 0.416613 0.896367 0.151526
vn 0.416613 0.896367 0.151526
vn -0.100940 0.945098 0.310808
vn -0.100940 0.945098 0.310808
vn -0.100940 0.945098 0.310808
vn -0.160276 0.961264 0.224239
vn -0.160276 0.961264 0.224239
vn -0.160276 0.961264 0.224239
vn 0.009932 0.703910 0.710220
vn 0.044705 0.692939 0.719609
vn 0.044705 0.692939 0.719609
vn 0.079415 0.680986 0.727978
vn -0.096146 0.954509 0.282256
vn -0.033922 0.888710 0.457214
vn -0.033922 0.888710 0.457214
vn 0.029618 0.788418 0.614427
vn 0.027587 0.878432 0.477070
vn -0.029968 0.933617 0.357017
vn -0.029968 0.933617 0.357017
vn -0.086900 0.969410 0.229548
vn -0.100941 0.945098 0.310808
vn -0.100940 0.945098 0.310808
vn -0.100940 0.945098 0.310808
vn -0.100940 0.945098 0.310808
vn 0.009932 0.703910 0.710220
vn 0.025664 0.747692 0.663549
vn 0.025664 0.747692 0.663549
vn 0.041284 0.788227 0.613998
vn 0.129147 0.953273 0.273116
vn 0.121625 0.953351 0.276279
vn 0.121625 0.953351 0.276279
vn 0.114095 0.953365 0.279423
vn -0.007501 0.960383 0.278583
vn 0.044774 0.952684 0.300648
vn 0.044774 0.952684 0.300648
vn 0.096902 0.941861 0.321726
vn 0.070298 0.948214 0.309754
vn 0.094911 0.949043 0.300514
vn 0.094911 0.949043 0.300514
vn 0.119459 0.949215 0.291067
vn 0.069530 0.953209 0.294207
vn 0.084034 0.953043 0.290940
vn 0.084034 0.953043 0.290940
vn 0.098520 0.952667 0.287610
vn 0.121491 0.947993 0.294192
vn 0.103058 0.949600 0.296040
vn 0.103058 0.949600 0.296040
vn 0.084589 0.950877 0.297787
vn 0.129878 0.951141 0.280111
vn 0.120297 0.951514 0.283108
vn 0.120297 0.951514 0.283108
vn 0.110704 0.951791 0.286075
vn 0.084007 0.954084 0.287518
vn 0.102637 0.952234 0.287604
vn 0.102637 0.952234 0.287604
vn 0.121231 0.950050 0.287589
vn 0.149236 0.946441 0.286319
vn 0.135323 0.947750 0.288891
vn 0.135323 0.947750 0.288891
vn 0.121382 0.948868 0.291405
vn 0.121110 0.950995 0.284500
vn 0.134967 0.949619 0.282858
vn 0.134967 0.949619 0.282858
vn 0.148796 0.948055 0.281161
vn 0.176803 -0.127159 0.975998
vn 0.375986 -0.096872 0.921548
vn 0.407989 -0.102644 0.907198
vn 0.639555 -0.001890 0.768743
vn 0.051273 -0.120151 0.991431
vn 0.133217 -0.100668 0.985961
vn 0.053119 -0.136572 0.989205
vn 0.073756 -0.147129 0.986364
vn 0.076583 -0.147878 0.986036
vn 0.080890 -0.219444 0.972266
vn 0.016220 -0.209981 0.977571
vn 0.009271 -0.186811 0.982352
vn -0.066285 -0.152166 0.986130
vn -0.075348 -0.236186 0.968782
vn -0.007335 -0.228385 0.973543
vn 0.068866 -0.219123 0.973264
vn 0.053337 -0.305841 0.950588
vn 0.053118 -0.305768 0.950623
vn -0.054864 -0.298507 0.952829
vn -0.109445 -0.293451 0.949688
vn -0.268887 -0.273429 0.923546
vn -0.373083 0.915265 0.151985
vn -0.471678 0.863962 0.176324
vn -0.548693 0.810580 0.204686
vn -0.708181 0.650955 0.273383
vn -0.397342 0.910454 0.114865
vn -0.392428 0.907941 0.147115
vn -0.055097 0.649384 0.758462
vn -0.244381 0.849265 0.468004
vn -0.244381 0.849265 0.468004
vn -0.394527 0.913139 0.102596
vn 0.080874 0.676402 0.732079
vn 0.047824 0.688031 0.724103
vn 0.047824 0.688031 0.724103
vn 0.014712 0.698772 0.715193
vn 0.015304 0.643268 0.765488
vn 0.074931 0.566677 0.820526
vn 0.074931 0.566677 0.820526
vn 0.133626 0.483030 0.865348
vn 0.007583 0.580912 0.813931
vn -0.037164 0.529982 0.847194
vn -0.037164 0.529982 0.847194
vn -0.081699 0.476030 0.875626
vn 0.008023 0.606876 0.794756
vn -0.017843 0.602354 0.798030
vn -0.017843 0.602354 0.798030
vn -0.043697 0.597410 0.800745
vn 0.010651 0.629339 0.777058
vn -0.012598 0.625116 0.780430
vn -0.012598 0.625116 0.780430
vn -0.035840 0.620537 0.783358
vn 0.366128 0.928242 -0.065701
vn 0.184630 0.900712 0.393229
vn 0.184630 0.900712 0.393229
vn -0.041977 0.653124 0.756087
vn 0.605163 0.736616 0.301950
vn 0.591357 0.765190 0.254524
vn 0.581758 0.784303 0.215468
vn 0.569767 0.812742 0.121719
vn 0.613605 0.730685 0.299313
vn 0.619571 0.737938 0.267546
f 30/31/1 23/23/2 31/30/3
f 31/30/3 23/23/2 13/13/4
f 32/32/5 31/30/6 21/21/7
f 21/21/7 31/30/6 13/13/8
f 30/31/9 22/22/10 33/33/11
f 33/33/11 22/22/10 16/16/12
f 33/33/13 16/16/14 29/29/15
f 29/29/15 16/16/14 25/25/16
f 29/29/17 25/25/18 28/28/19
f 28/28/19 25/25/18 1/1/20
f 28/28/21 7/7/22 29/29/23
f 29/29/23 7/7/22 24/24/24
f 33/33/25 17/17/26 30/31/27
f 30/31/27 17/17/26 23/23/28
f 29/29/29 24/24/30 33/33/31
f 33/33/31 24/24/30 17/17/32
f 17/17/33 19/19/34 23/23/35
f 19/19/34 6/6/36 23/23/35
f 23/23/35 6/6/36 13/13/37
f 24/24/38 37/37/39 17/17/40
f 17/17/40 37/37/39 19/19/41
f 8/8/42 7/7/43 2/2/44
f 37/37/45 24/24/46 8/8/47
f 8/8/47 24/24/46 7/7/48
f 39/39/49 19/19/50 40/40/51
f 40/40/51 19/19/50 37/37/52
f 41/41/53 38/38/54 40/40/55
f 40/40/55 38/38/54 39/39/56
f 40/40/57 37/37/58 8/8/59
f 40/40/60 8/8/61 41/41/62
f 41/41/62 8/8/61 2/2/63
f 36/36/64 32/32/65 15/15/66
f 15/15/66 32/32/65 21/21/67
f 15/15/68 21/21/69 18/18/70
f 18/18/70 21/21/69 6/6/71
f 21/21/69 13/13/72 6/6/71
f 45/50/73 15/15/74 44/44/75
f 44/44/75 15/15/74 18/18/76
f 9/9/77 26/26/78 11/11/79
f 44/53/80 11/11/79 45/45/81
f 45/45/81 11/11/79 26/26/78
f 4/4/82 9/9/83 11/11/84
f 44/53/85 46/52/86 11/11/87
f 10/10/88 18/18/89 6/6/90
f 46/52/91 47/51/92 11/11/93
f 11/11/93 47/51/92 4/4/94
f 39/39/95 38/38/96 10/10/97
f 10/10/97 38/38/96 5/5/98
f 19/19/99 39/39/100 6/6/101
f 6/6/101 39/39/100 10/10/102
f 44/44/103 18/18/104 46/46/105
f 46/46/105 18/18/104 10/10/106
f 46/46/107 10/10/108 47/47/109
f 47/47/109 10/10/108 5/5/110
f 31/30/111 32/32/112 12/12/113
f 12/12/113 32/32/112 20/20/114
f 31/30/115 12/12/116 30/31/117
f 30/31/117 12/12/116 22/22/118
f 34/34/119 35/35/120 9/9/121
f 9/9/121 35/35/120 26/26/122
f 35/35/123 34/34/124 27/27/125
f 27/27/125 34/34/124 3/3/126
f 42/42/127 35/35/128 43/43/129
f 43/43/129 35/35/128 27/27/130
f 32/32/131 36/36/132 20/20/133
f 20/20/133 36/36/132 14/14/134
f 43/48/135 14/14/136 42/49/137
f 42/49/137 14/14/136 36/36/138
f 45/45/139 26/26/140 42/42/141
f 42/42/141 26/26/140 35/35/142
f 42/49/143 36/36/144 45/50/145
f 45/50/145 36/36/144 15/15/146
f 25/25/147 49/55/148 1/1/149
f 1/1/149 49/55/148 48/54/150
f 16/16/151 50/56/152 25/25/147
f 25/25/147 50/56/152 49/55/148
f 50/56/152 16/16/151 51/57/153
f 16/16/151 22/22/154 51/57/153
f 51/57/153 22/22/154 12/12/155
f 20/20/156 52/58/157 12/12/158
f 12/12/158 52/58/157 51/57/159
f 53/59/160 52/58/157 43/48/161
f 43/48/161 52/58/157 14/14/162
f 52/58/157 20/20/156 14/14/162
f 43/43/163 27/27/164 53/60/165
f 27/27/164 3/3/166 53/60/165
f 54/61/167 53/60/165 3/3/166
f 34/34/168 55/62/169 3/3/170
f 3/3/170 55/62/169 54/61/171
f 56/63/172 55/62/169 9/9/173
f 9/9/173 55/62/169 34/34/168
f 57/64/174 56/63/175 4/4/176
f 4/4/176 56/63/175 9/9/177
f 47/51/178 58/65/179 4/4/180
f 4/4/180 58/65/179 57/64/181
f 58/66/182 47/47/183 59/67/184
f 59/67/184 47/47/183 5/5/185
f 60/68/186 59/67/187 38/38/188
f 38/38/188 59/67/187 5/5/189
f 61/69/190 60/68/191 41/41/192
f 41/41/192 60/68/191 38/38/193
f 62/70/194 61/69/195 2/2/196
f 2/2/196 61/69/195 41/41/197
f 7/7/198 63/71/199 2/2/200
f 2/2/200 63/71/199 62/70/201
f 28/28/202 64/72/203 7/7/204
f 7/7/204 64/72/203 63/71/205
f 64/72/203 28/28/202 48/54/206
f 48/54/206 28/28/202 1/1/207
