# This file uses centimeters as units for non-parametric coordinates.

v -7.890538 5.042833 -6.350667
v -7.890542 5.041282 -1.989524
v 8.792674 5.041664 -1.989459
v 8.777613 4.987302 -6.350662
v -7.866379 3.678421 -1.989524
v 8.741930 3.677223 -1.989459
v 8.741930 3.678316 -6.350662
v -7.866375 3.678311 -6.350667
v -6.597153 5.041316 -6.350667
v -6.424955 5.041348 -1.989514
v 7.183142 5.041600 -1.989471
v 7.311561 5.041316 -6.350663
v -7.890586 6.299067 -1.989506
v -7.890586 6.299090 -6.350651
v 8.792668 6.408297 -6.350810
v 8.792668 6.407929 -1.989522
v -6.065782 3.678310 -6.350667
v -5.990399 3.678273 -1.989516
v 6.737828 3.678314 -6.350663
v 6.663948 3.677444 -1.989471
v 6.737827 2.407142 -6.350667
v 6.737735 2.407106 -1.989468
v -6.065508 2.394575 -1.989515
v -6.065781 2.394577 -6.350668
v -4.455516 2.357261 -1.989506
v -4.524594 2.357268 -6.350668
v 4.903854 2.357239 -1.989477
v 5.052365 2.357268 -6.350667
v 5.052310 1.068833 -1.989477
v 5.052365 1.068833 -6.350667
v -4.528639 1.060177 -1.989506
v -4.524594 1.060177 -6.350668
v -2.970555 0.975726 -1.989504
v -2.965435 0.975726 -6.350667
v 3.255588 0.975726 -1.989485
v 3.255608 0.975726 -6.350667
v 3.255588 -0.275731 -1.989476
v 3.255608 -0.275731 -6.350705
v -2.970555 -0.267741 -1.989489
v -2.965435 -0.267741 -6.350705
v -1.391981 -0.345818 -1.989487
v -1.364359 -0.346199 -6.350705
v 1.808326 -0.345818 -1.989480
v 1.808271 -0.346199 -6.350705
v 1.808326 -1.840026 -1.989480
v 1.808328 -1.840038 -6.350705
v -1.391981 -1.840030 -1.989487
v -1.371202 -1.840038 -6.350705
v -0.546762 -1.840029 -1.989486
v -0.545315 -1.840038 -6.350705
v 0.981514 -1.840026 -1.989482
v 0.981515 -1.840038 -6.350705
v 0.981514 -16.064926 -1.989482
v 0.981515 -16.064919 -6.350705
v -0.546762 -16.064924 -1.989486
v -0.545315 -16.064919 -6.350705
v -3.848575 -0.848191 -3.750077
v -3.844288 0.145482 -5.862281
v 5.815536 0.975726 -3.800682
v 5.815640 2.357253 -3.815243
v -1.887046 -2.004349 -6.350700
v -1.901797 -1.037609 -3.580457
v 1.931596 -0.345818 -1.989479
v 1.902401 -0.242151 -1.980866
v 8.319192 5.711465 -6.350739
v 8.318796 5.711418 -1.989498
v 8.201573 5.526289 -1.989486
v 8.202089 5.525150 -6.350701
v 8.570572 6.406570 -6.350774
v 8.571746 6.406684 -1.989510
v 8.032892 5.369711 -1.989483
v 8.034100 5.370041 -6.350690
v 7.830364 5.227270 -6.350681
v 7.829926 5.226081 -1.989479
v 7.630539 5.138777 -1.989475
v 7.630395 5.138593 -6.350674
v -7.701943 6.302074 -1.989507
v -7.701972 6.302115 -6.350653
v -7.537718 5.714392 -1.989509
v -7.537673 5.713811 -6.350657
v -7.426673 5.514256 -1.989510
v -7.426007 5.516621 -6.350659
v -7.268491 5.373640 -6.350661
v -7.268725 5.372649 -1.989511
v -7.105422 5.241701 -1.989512
v -7.104876 5.242213 -6.350663
v -6.890910 5.132668 -6.350665
v -6.894766 5.132399 -1.989513
vt 0.183546 0.602470
vt 0.014021 0.811648
vt 0.029669 0.605846
vt 0.972165 0.778589
vt 0.804075 0.592386
vt 0.955818 0.588165
vt -0.579136 1.588341
vt -0.178744 1.574174
vt 0.325523 0.139018
vt 0.538472 2.196642
vt 0.365661 1.640809
vt 0.322966 0.140672
vt 0.325280 0.140732
vt 0.036476 0.481318
vt 0.314104 0.140442
vt 0.946966 0.468104
vt 0.863505 0.470317
vt 0.209045 0.477670
vt 0.406775 0.229009
vt 0.406727 0.229099
vt 0.857509 0.342228
vt 0.406743 0.229216
vt 0.406794 0.229134
vt 0.113360 0.362148
vt 0.776898 0.344402
vt 0.187057 0.358706
vt 0.405838 0.229092
vt 0.405803 0.229001
vt 0.773873 0.226395
vt 0.405787 0.229126
vt 0.405824 0.229209
vt 0.192663 0.248090
vt 0.260183 0.241302
vt 0.688945 0.229352
vt 0.406627 0.228887
vt 0.406593 0.228984
vt 0.686359 0.124782
vt 0.406604 0.229098
vt 0.406640 0.229008
vt 0.261697 0.127174
vt 0.335421 0.124174
vt 0.615044 0.122819
vt 0.405957 0.228978
vt 0.405934 0.228880
vt 0.405922 0.229002
vt 0.413117 0.014151
vt 0.339586 0.020891
vt 0.405947 0.229093
vt 0.614599 0.012280
vt 0.406497 0.228778
vt 0.406474 0.228880
vt 0.406481 0.228983
vt 0.159224 0.020056
vt 0.064658 0.019461
vt 0.406505 0.228886
vt 0.161529 0.339598
vt 0.311840 0.138434
vt 0.312130 0.140391
vt 0.325710 0.141426
vt 0.325071 0.142211
vt 0.325464 0.143028
vt 0.325997 0.139555
vt 0.312340 0.141807
vt 0.311254 0.141033
vt 0.311510 0.142544
vt 0.310892 0.138902
vt 0.313777 0.141852
vt 0.323664 0.142166
vt 0.406064 0.228876
vt 0.406051 0.228773
vt 0.406044 0.228881
vt 0.406058 0.228979
vt 0.406388 0.228662
vt 0.406375 0.228770
vt 0.406379 0.228879
vt 0.406393 0.228776
vt 0.406172 0.228768
vt 0.406168 0.228660
vt 0.406164 0.228774
vt 0.406170 0.228877
vt 0.406322 0.228770
vt 0.406331 0.228662
vt 0.406326 0.228443
vt 0.406318 0.228559
vt 0.406226 0.228661
vt 0.406225 0.228769
vt 0.406227 0.228558
vt 0.406228 0.228441
vt 0.541337 0.015136
vt 0.058824 0.343989
vt 0.406061 0.228934
vt 0.406057 0.228820
vt 0.406623 0.229050
vt 0.406611 0.228932
vt 0.406171 0.228819
vt 0.406167 0.228816
vt 0.406611 0.228932
vt 0.406623 0.229050
vt 0.621118 0.122987
vt 0.620841 0.131176
vt 0.312940 0.139410
vt 0.449644 1.910935
vt 0.891956 0.689737
vt 0.851848 0.645306
vt 0.313513 0.139918
vt 0.493386 2.051627
vt 0.312397 0.138927
vt 0.408126 1.777395
vt 0.931933 0.734021
vt 0.841806 0.634182
vt 0.313688 0.140073
vt 0.506718 2.094509
vt 0.313825 0.140195
vt 0.517183 2.128169
vt 0.830292 0.621428
vt 0.818076 0.607895
vt 0.313934 0.140291
vt 0.525471 2.154824
vt 0.033133 0.788065
vt -0.537109 1.586854
vt 0.325255 0.139191
vt 0.067567 0.745578
vt -0.434948 1.583239
vt 0.324602 0.139614
vt 0.091080 0.716564
vt -0.378667 1.581248
vt 0.324243 0.139846
vt -0.329220 1.579498
vt 0.323927 0.140050
vt 0.110076 0.693125
vt 0.132313 0.665687
vt -0.272151 1.577479
vt 0.323563 0.140286
vt -0.232568 1.576078
vt 0.323310 0.140450
vt 0.156763 0.635518
vn 0.000004 -0.000014 1.000000
vn 0.000004 -0.000014 1.000000
vn 0.000004 -0.000014 1.000000
vn 0.000055 0.000046 1.000000
vn 0.000055 0.000046 1.000000
vn 0.000055 0.000046 1.000000
vn -0.000008 0.000013 -1.000000
vn -0.000008 0.000013 -1.000000
vn -0.000008 0.000013 -1.000000
vn 0.000004 -0.000066 -1.000000
vn 0.000004 -0.000066 -1.000000
vn 0.000004 -0.000066 -1.000000
vn -0.999843 -0.017725 -0.000007
vn -0.999843 -0.017716 -0.000004
vn -0.999843 -0.017716 -0.000004
vn -0.999843 -0.017706 -0.000000
vn -1.000000 -0.000035 -0.000001
vn -1.000000 -0.000037 -0.000000
vn -1.000000 -0.000037 -0.000000
vn -1.000000 -0.000038 -0.000000
vn -0.015940 0.999873 0.000005
vn -0.015987 0.999872 0.000008
vn -0.015987 0.999872 0.000008
vn -0.016034 0.999871 0.000010
vn 0.999629 -0.027249 -0.000007
vn 0.999480 -0.032207 -0.001497
vn 0.999480 -0.032207 -0.001497
vn 0.999305 -0.037165 -0.002988
vn -0.000019 1.000000 -0.000066
vn -0.000009 1.000000 -0.000037
vn -0.000009 1.000000 -0.000037
vn 0.000000 1.000000 -0.000007
vn 0.999938 -0.010595 -0.003321
vn 0.999985 -0.005296 -0.001661
vn 0.999985 -0.005296 -0.001661
vn 1.000000 0.000003 0.000000
vn -0.007776 0.999970 -0.000024
vn -0.006706 0.999978 0.000030
vn -0.006706 0.999978 0.000030
vn -0.005635 0.999984 0.000084
vn -0.000007 0.000000 1.000000
vn -0.000005 0.000001 1.000000
vn -0.000006 0.000001 1.000000
vn -0.000004 0.000001 1.000000
vn -0.000004 -0.000001 1.000000
vn -0.000006 -0.000000 1.000000
vn -0.000005 -0.000001 1.000000
vn -0.000004 -0.000000 1.000000
vn -0.000001 0.000000 -1.000000
vn -0.000000 0.000000 -1.000000
vn -0.000000 0.000000 -1.000000
vn 0.000000 -0.000000 -1.000000
vn 0.000000 -0.000000 -1.000000
vn 0.000001 -0.000000 -1.000000
vn 0.000000 -0.000000 -1.000000
vn 0.000000 -0.000000 -1.000000
vn 0.998317 0.057987 0.000022
vn 0.999543 0.029007 0.008484
vn 0.999543 0.029007 0.008484
vn 0.999857 0.000000 0.016938
vn -1.000000 -0.000001 0.000062
vn -0.999536 0.029214 0.008662
vn -0.999536 0.029214 0.008662
vn -0.998144 0.058402 0.017253
vn -1.000000 0.000000 -0.000928
vn -0.999576 0.028151 0.007446
vn -0.999576 0.028151 0.007446
vn -0.998290 0.056278 0.015812
vn 1.000000 0.000000 0.000000
vn 1.000000 0.000000 0.000000
vn 1.000000 0.000000 0.000000
vn 1.000000 0.000000 0.000000
vn -0.000002 0.000000 1.000000
vn -0.000002 0.000000 1.000000
vn -0.000002 0.000000 1.000000
vn -0.000002 0.000000 1.000000
vn -1.000000 0.000000 -0.000332
vn -1.000000 0.000000 -0.000332
vn -1.000000 0.000000 -0.000332
vn -1.000000 0.000000 -0.000332
vn -0.552236 -0.753946 -0.355810
vn -0.552236 -0.753946 -0.355810
vn -0.552236 -0.753946 -0.355810
vn 0.957979 -0.003095 -0.286822
vn 0.957766 -0.001548 -0.287544
vn 0.957766 -0.001548 -0.287544
vn 0.957551 0.000000 -0.288265
vn -0.948020 0.298838 -0.109334
vn -0.948020 0.298838 -0.109334
vn -0.948020 0.298838 -0.109334
vn -0.000005 0.000001 1.000000
vn -0.000004 0.000001 1.000000
vn -0.000005 0.000002 1.000000
vn -0.000004 0.000001 1.000000
vn 0.921590 0.004022 0.388144
vn 0.907333 0.053374 0.417010
vn 0.907333 0.053374 0.417010
vn 0.889926 0.102540 0.444429
vn -0.686955 0.726700 -0.000807
vn -0.840345 0.536910 0.074487
vn -0.903625 0.372383 0.211642
vn -0.939515 0.159902 0.302892
vn -0.894890 0.000005 0.446287
vn 1.000000 0.000038 -0.000013
vn 1.000000 0.000019 -0.000006
vn 1.000000 0.000019 -0.000006
vn 1.000000 0.000000 0.000000
vn 1.000000 0.000000 0.000005
vn 1.000000 -0.000000 0.000005
vn 1.000000 -0.000000 0.000005
vn 1.000000 -0.000000 0.000005
vn -0.000005 -0.082803 0.996566
vn -0.000005 -0.082803 0.996566
vn -0.000005 -0.082803 0.996566
vn -0.000003 0.000000 1.000000
vn -0.000003 -0.000000 1.000000
vn -0.000003 -0.000000 1.000000
vn -0.000002 -0.000000 1.000000
vn -0.000002 -0.000000 1.000000
vn -0.000001 0.000000 1.000000
vn -0.000005 -0.000001 1.000000
vn -0.000004 -0.000001 1.000000
vn -0.000003 0.000001 1.000000
vn -0.000002 -0.000001 1.000000
vn -0.000001 0.000000 1.000000
vn -0.001584 -0.004304 0.999990
vn -0.952301 0.000000 0.305159
vn -0.691469 -0.664244 0.283991
vn -0.945084 -0.285678 0.158762
vn 0.287862 -0.903718 0.316906
vn -0.349962 -0.915562 0.198172
vn 0.003861 -0.015175 0.999877
vn -0.000000 0.000012 1.000000
vn -0.000001 0.000011 1.000000
vn 0.004317 -0.081594 0.996656
vn -0.002255 -0.037299 0.999302
vn -0.009171 -0.033145 0.999409
vn -0.000169 -0.000102 -1.000000
vn -0.000169 -0.000102 -1.000000
vn -0.000169 -0.000102 -1.000000
vn -0.573887 0.818935 0.000165
vn -0.575769 0.817612 0.000034
vn -0.575769 0.817612 0.000034
vn -0.577649 0.816286 -0.000098
vn -0.000013 0.000042 1.000000
vn -0.000013 0.000042 1.000000
vn -0.000013 0.000042 1.000000
vn 0.000006 0.000062 1.000000
vn 0.000006 0.000062 1.000000
vn 0.000006 0.000062 1.000000
vn -0.846661 0.532133 -0.000239
vn -0.845765 0.533555 -0.000155
vn -0.845765 0.533555 -0.000155
vn -0.844867 0.534976 -0.000071
vn -0.000073 -0.000153 -1.000000
vn -0.000073 -0.000153 -1.000000
vn -0.000073 -0.000153 -1.000000
vn 0.000059 -0.000071 -1.000000
vn 0.000059 -0.000071 -1.000000
vn 0.000059 -0.000071 -1.000000
vn -0.940395 0.340085 -0.000082
vn -0.940067 0.340990 0.000081
vn -0.940067 0.340990 0.000081
vn -0.939738 0.341895 0.000244
vn -0.000038 0.000031 1.000000
vn -0.000038 0.000031 1.000000
vn -0.000038 0.000031 1.000000
vn -0.000014 0.000036 1.000000
vn -0.000014 0.000036 1.000000
vn -0.000014 0.000036 1.000000
vn -0.678380 0.734712 -0.000132
vn -0.679348 0.733816 -0.000202
vn -0.679348 0.733816 -0.000202
vn -0.680316 0.732919 -0.000272
vn 0.000000 -0.000074 -1.000000
vn 0.000000 -0.000074 -1.000000
vn 0.000000 -0.000074 -1.000000
vn -0.000003 -0.000107 -1.000000
vn -0.000003 -0.000107 -1.000000
vn -0.000003 -0.000107 -1.000000
vn -0.212253 0.977194 -0.006314
vn -0.252253 0.967656 -0.003175
vn -0.252253 0.967656 -0.003175
vn -0.291824 0.956472 -0.000031
vn -0.000007 0.000078 1.000000
vn -0.000007 0.000078 1.000000
vn -0.000007 0.000078 1.000000
vn -0.000009 0.000062 1.000000
vn -0.000009 0.000062 1.000000
vn -0.000009 0.000062 1.000000
vn -0.405377 0.914150 -0.000025
vn -0.403239 0.915095 0.000092
vn -0.403239 0.915095 0.000092
vn -0.401098 0.916035 0.000209
vn -0.000002 -0.000081 -1.000000
vn -0.000002 -0.000081 -1.000000
vn -0.000002 -0.000081 -1.000000
vn -0.000025 -0.000010 1.000000
vn -0.000025 -0.000010 1.000000
vn -0.000025 -0.000010 1.000000
vn 0.963145 0.268984 -0.000004
vn 0.963123 0.269061 -0.000015
vn 0.963123 0.269061 -0.000015
vn 0.963102 0.269137 -0.000026
vn 0.000009 0.000009 -1.000000
vn 0.000009 0.000009 -1.000000
vn 0.000009 0.000009 -1.000000
vn -0.000016 -0.000015 1.000000
vn -0.000016 -0.000015 1.000000
vn -0.000016 -0.000015 1.000000
vn 0.870166 0.492760 -0.000056
vn 0.872301 0.488970 0.000170
vn 0.872301 0.488970 0.000170
vn 0.874419 0.485171 0.000397
vn 0.000003 0.000014 -1.000000
vn 0.000003 0.000014 -1.000000
vn 0.000003 0.000014 -1.000000
vn -0.000010 -0.000020 1.000000
vn -0.000010 -0.000020 1.000000
vn -0.000010 -0.000020 1.000000
vn 0.626247 0.779625 0.000211
vn 0.625918 0.779889 0.000190
vn 0.625918 0.779889 0.000190
vn 0.625589 0.780152 0.000170
vn -0.000002 0.000018 -1.000000
vn -0.000002 0.000018 -1.000000
vn -0.000002 0.000018 -1.000000
vn 0.000000 0.000015 -1.000000
vn 0.000000 0.000015 -1.000000
vn 0.000000 0.000015 -1.000000
vn 0.672116 0.740446 0.000504
vn 0.669834 0.742511 0.000355
vn 0.669834 0.742511 0.000355
vn 0.667546 0.744569 0.000205
vn -0.000011 -0.000019 1.000000
vn -0.000011 -0.000019 1.000000
vn -0.000011 -0.000019 1.000000
vn -0.000007 -0.000048 1.000000
vn -0.000007 -0.000048 1.000000
vn -0.000007 -0.000048 1.000000
vn 0.296949 0.954893 0.000321
vn 0.243975 0.969775 -0.003605
vn 0.243975 0.969775 -0.003605
vn 0.190258 0.981705 -0.007519
vn 0.000001 0.000021 -1.000000
vn 0.000001 0.000021 -1.000000
vn 0.000001 0.000021 -1.000000
vn 0.000001 0.000014 -1.000000
vn 0.000001 0.000014 -1.000000
vn 0.000001 0.000014 -1.000000
vn 0.455720 0.890123 0.000162
vn 0.458141 0.888879 0.000312
vn 0.458141 0.888879 0.000312
vn 0.460559 0.887629 0.000462
vn -0.000008 -0.000027 1.000000
vn -0.000008 -0.000027 1.000000
vn -0.000008 -0.000027 1.000000
f 77/119/1 13/2/2 2/3/3
f 16/4/4 70/109/5 3/6/6
f 14/9/7 78/121/8 1/13/9
f 73/113/10 72/111/11 4/58/12
f 2/59/13 1/13/14 5/61/15
f 5/61/15 1/13/14 8/60/16
f 2/59/17 13/62/18 1/13/19
f 1/13/19 13/62/18 14/9/20
f 13/2/21 77/119/22 14/7/23
f 14/7/23 77/119/22 78/120/24
f 7/63/25 4/58/26 6/65/27
f 6/65/27 4/58/26 3/64/28
f 11/5/29 12/10/30 10/1/31
f 10/1/31 12/10/30 9/8/32
f 4/58/33 15/57/34 3/64/35
f 3/64/35 15/57/34 16/66/36
f 69/108/37 70/109/38 15/11/39
f 15/11/39 70/109/38 16/4/40
f 3/6/41 11/5/42 6/16/43
f 6/16/43 11/5/42 20/17/44
f 11/5/42 10/1/45 20/17/44
f 2/3/46 5/14/47 10/1/45
f 5/14/47 18/18/48 10/1/45
f 20/17/44 10/1/45 18/18/48
f 1/13/49 9/12/50 8/60/51
f 8/60/51 9/12/50 17/68/52
f 9/12/50 12/15/53 17/68/52
f 4/58/54 7/63/55 12/15/53
f 7/63/55 19/67/56 12/15/53
f 12/15/53 19/67/56 17/68/52
f 22/19/57 21/20/58 20/23/59
f 20/23/59 21/20/58 19/22/60
f 24/27/61 23/28/62 17/31/63
f 17/31/63 23/28/62 18/30/64
f 32/43/65 31/44/66 26/48/67
f 26/48/67 31/44/66 25/45/68
f 54/84/69 52/81/70 53/83/71
f 53/83/71 52/81/70 51/82/72
f 53/53/73 51/56/74 55/54/75
f 55/54/75 51/56/74 49/90/76
f 55/88/77 49/85/78 56/87/79
f 56/87/79 49/85/78 50/86/80
f 57/92/81 58/91/82 40/69/83
f 59/97/84 30/36/85 60/93/86
f 60/93/86 30/36/85 28/38/87
f 61/95/88 62/96/89 42/80/90
f 23/24/91 25/26/92 18/18/48
f 18/18/48 25/26/92 20/17/44
f 22/21/93 20/17/44 27/25/94
f 25/26/92 27/25/94 20/17/44
f 59/94/95 60/98/96 29/35/97
f 29/35/97 60/98/96 27/39/98
f 34/72/99 58/91/100 33/71/101
f 58/91/100 57/92/102 33/71/101
f 33/71/101 57/92/102 39/70/103
f 44/75/104 43/76/105 46/74/106
f 46/74/106 43/76/105 45/73/107
f 38/51/108 36/52/109 37/50/110
f 37/50/110 36/52/109 35/55/111
f 63/99/112 64/100/113 43/42/114
f 45/49/115 43/42/116 51/89/117
f 43/42/116 41/41/118 51/89/117
f 51/89/117 41/41/118 49/46/119
f 41/41/118 47/47/120 49/46/119
f 29/29/121 27/25/122 35/34/123
f 27/25/122 25/26/124 35/34/123
f 31/32/125 33/33/126 25/26/124
f 25/26/124 33/33/126 35/34/123
f 41/79/127 62/96/128 47/78/129
f 61/95/130 48/77/131 62/96/128
f 62/96/128 48/77/131 47/78/129
f 35/34/123 33/33/126 37/37/132
f 39/40/133 41/41/134 33/33/126
f 63/99/135 37/37/132 64/100/136
f 37/37/132 33/33/126 64/100/136
f 64/100/136 33/33/126 43/42/137
f 33/33/126 41/41/134 43/42/137
f 69/107/138 15/57/139 4/58/140
f 73/114/141 74/115/142 72/112/143
f 72/112/143 74/115/142 71/110/144
f 3/6/145 71/110/146 74/115/147
f 3/6/148 66/103/149 67/104/150
f 68/106/151 67/104/152 65/102/153
f 65/102/153 67/104/152 66/103/154
f 4/58/155 68/105/156 65/101/157
f 65/101/158 69/107/159 4/58/160
f 65/102/161 66/103/162 69/108/163
f 69/108/163 66/103/162 70/109/164
f 3/6/165 70/109/166 66/103/167
f 3/6/168 67/104/169 71/110/170
f 72/112/171 71/110/172 68/106/173
f 68/106/173 71/110/172 67/104/174
f 4/58/175 72/111/176 68/105/177
f 12/15/178 76/117/179 4/58/180
f 11/5/181 75/116/182 12/10/183
f 12/10/183 75/116/182 76/118/184
f 3/6/185 75/116/186 11/5/187
f 3/6/188 74/115/189 75/116/190
f 76/118/191 75/116/192 73/114/193
f 73/114/193 75/116/192 74/115/194
f 4/58/195 76/117/196 73/113/197
f 79/122/198 77/119/199 2/3/200
f 78/120/201 77/119/202 80/123/203
f 80/123/203 77/119/202 79/122/204
f 1/13/205 78/121/206 80/124/207
f 81/125/208 79/122/209 2/3/210
f 80/123/211 79/122/212 82/126/213
f 82/126/213 79/122/212 81/125/214
f 1/13/215 80/124/216 82/127/217
f 85/131/218 84/130/219 2/3/220
f 83/128/221 84/130/222 86/132/223
f 86/132/223 84/130/222 85/131/224
f 1/13/225 83/129/226 86/133/227
f 1/13/228 82/127/229 83/129/230
f 82/126/231 81/125/232 83/128/233
f 83/128/233 81/125/232 84/130/234
f 2/3/235 84/130/236 81/125/237
f 10/1/238 88/136/239 2/3/240
f 87/134/241 88/136/242 9/8/243
f 9/8/243 88/136/242 10/1/244
f 1/13/245 87/135/246 9/12/247
f 1/13/248 86/133/249 87/135/250
f 86/132/251 85/131/252 87/134/253
f 87/134/253 85/131/252 88/136/254
f 2/3/255 88/136/256 85/131/257
