# This file uses centimeters as units for non-parametric coordinates.

v 13.735071 20.785744 78.547974
v -56.142048 4.704134 -52.050903
v -47.910770 24.081545 -58.851246
v -32.451511 33.190273 -63.149185
v -1.313982 33.674473 -63.461620
v 17.480257 31.384832 -62.551624
v 43.860260 28.273840 -61.258335
v 65.497231 11.471395 -59.933407
v 54.755180 -8.715407 -39.692970
v 54.190933 -10.291433 -29.152796
v 41.282284 -31.558929 -11.881607
v 23.617472 -31.240479 -11.829378
v 0.936846 -31.036404 -11.547425
v -16.116667 -30.532032 -11.748513
v -22.826492 -30.387262 -11.791322
v -33.345436 -30.158566 -11.832360
v -43.188614 -14.056722 -26.287958
v -51.088943 -7.149815 -35.425320
v 76.219933 -6.286404 -22.160818
v 89.756210 22.738747 -50.484077
v 58.905334 46.222378 -52.532219
v 21.648235 50.040844 -54.098251
v -4.640861 54.325733 -56.312935
v -48.635189 53.581165 -55.900887
v -71.595528 41.291935 -49.852882
v -83.852180 13.125587 -39.136021
v -76.251717 -4.256570 -15.883835
v -65.602631 -13.911281 -2.447714
v -51.048717 -38.564896 17.255875
v -36.176289 -39.316322 17.585295
v -26.535473 -39.434177 17.509682
v -1.468177 -39.886375 17.426176
v 32.174004 -40.607185 17.660622
v 57.393230 -40.566948 17.377195
v 74.662758 -8.059505 -7.944038
v 63.670242 -24.931065 59.956566
v 37.501633 -25.233467 58.465263
v 4.401017 -23.444355 61.736900
v -20.794966 -22.764675 62.513874
v -30.772202 -22.993107 61.399593
v -46.652084 -23.376011 58.441177
v -60.263580 3.358606 52.339008
v -71.703865 12.444206 41.525993
v -79.711159 29.848122 25.698986
v -66.906029 58.960526 22.410912
v -43.368462 72.891907 26.410505
v 1.393895 72.919304 21.532372
v 28.421747 68.986313 20.860931
v 67.391502 65.546196 26.832695
v 97.568306 39.681866 17.777138
v 83.518349 10.519934 38.601181
v 81.713570 7.828289 43.192970
vt 0.031871 0.052831
vt 0.031285 0.049800
vt 0.027724 0.049982
vt 0.030592 0.055262
vt 0.028638 0.055607
vt 0.027357 0.055981
vt 0.017699 0.968691
vt 0.142668 0.977740
vt 0.250089 0.982802
vt 0.496030 0.984347
vt 0.600421 0.985010
vt 0.762169 0.990295
vt 0.751135 0.986932
vt 0.968822 0.985431
vt 0.968772 0.596629
vt 0.966593 0.334035
vt 0.963134 0.011000
vt 0.745466 0.011375
vt 0.745505 0.011181
vt 0.462776 0.010997
vt 0.249237 0.007682
vt 0.136997 0.014430
vt 0.013993 0.012958
vt 0.012119 0.274419
vt 0.012397 0.560038
vt 0.970037 0.597577
vt 0.969893 0.986972
vt 0.762540 0.991152
vt 0.751167 0.987680
vt 0.600452 0.985646
vt 0.496025 0.984961
vt 0.250001 0.983392
vt 0.142590 0.978531
vt 0.013789 0.970149
vt 0.009526 0.558899
vt 0.008399 0.272698
vt 0.011697 0.008941
vt 0.135060 0.011288
vt 0.244606 0.005486
vt 0.458396 0.006157
vt 0.745034 0.006970
vt 0.745072 0.006777
vt 0.964756 0.007564
vt 0.967675 0.336710
vt 0.964831 0.007404
vt 0.745023 0.006860
vt 0.745062 0.006667
vt 0.458239 0.005984
vt 0.244432 0.005403
vt 0.134995 0.011184
vt 0.011596 0.008763
vt 0.008232 0.272621
vt 0.009371 0.558838
vt 0.013568 0.970231
vt 0.142585 0.978575
vt 0.249993 0.983444
vt 0.496025 0.985010
vt 0.600457 0.985734
vt 0.762586 0.991258
vt 0.751171 0.987771
vt 0.969988 0.987108
vt 0.970113 0.597634
vt 0.967760 0.336919
vt 0.025240 0.055977
vt 0.024290 0.054703
vt 0.023782 0.052159
vt 0.023896 0.050377
vt 0.024244 0.049281
vt 0.024849 0.046687
vt 0.025555 0.046524
vt 0.026023 0.046448
vt 0.027270 0.046285
vt 0.028940 0.046082
vt 0.030308 0.045896
vt 0.031234 0.049434
vn 0.413823 0.815135 0.405346
vn 0.724543 0.679692 0.114265
vn 0.363728 0.867863 0.338401
vn 0.679212 0.731802 -0.056006
vn 0.502363 0.727136 0.467873
vn 0.698262 0.658078 0.281714
vn 0.501729 0.714370 0.487794
vn 0.841914 0.539137 0.022621
vn 0.018702 0.954656 0.297124
vn 0.016351 0.954779 0.296865
vn 0.015578 0.999490 -0.027891
vn 0.011997 0.999529 -0.028237
vn 0.051027 0.998347 -0.026464
vn 0.042153 0.998728 -0.027670
vn 0.030532 0.953523 0.299771
vn 0.019577 0.954086 0.298892
vn 0.018087 0.954426 0.297900
vn 0.005044 0.996472 0.083777
vn 0.009929 0.955249 0.295637
vn 0.001815 0.989942 -0.141461
vn 0.024794 0.955509 0.293918
vn 0.021503 0.955118 0.295445
vn 0.019343 0.999408 -0.028447
vn 0.017938 0.999460 -0.027522
vn -0.811853 0.562656 0.155926
vn -0.691254 0.643349 0.329044
vn -0.542259 0.689914 0.479556
vn -0.547881 0.702020 0.454966
vn 0.019750 0.989598 -0.142496
vn 0.015310 0.955242 0.295430
vn 0.018591 0.996280 0.084146
vn 0.012245 0.956024 0.293033
vn 0.350690 -0.015246 0.936368
vn 0.728292 -0.300519 0.615856
vn 0.442754 0.133741 0.886613
vn 0.821435 -0.147880 0.550796
vn -0.358110 0.878308 0.316751
vn -0.643793 0.743602 0.180519
vn -0.496481 0.722775 0.480732
vn -0.756983 0.601696 0.254829
vn -0.091779 -0.393899 0.914560
vn -0.129468 -0.697904 0.704392
vn -0.113332 -0.368806 0.922571
vn -0.174714 -0.730972 0.659663
vn -0.476370 -0.567223 0.671811
vn -0.473649 -0.570717 0.670775
vn -0.249481 -0.246759 0.936413
vn -0.248920 -0.246688 0.936581
vn -0.699267 0.714800 0.009346
vn -0.213119 0.970146 0.115751
vn 0.681299 0.677434 0.277337
vn 0.439732 0.789072 0.428954
vn 0.328719 -0.643763 0.691023
vn 0.116210 -0.249629 0.961343
vn 0.020904 -0.741381 0.670759
vn 0.014542 -0.324990 0.945606
vn -0.113667 -0.845755 0.521324
vn -0.084599 -0.388194 0.917687
vn -0.923199 0.208633 -0.322763
vn -0.920460 0.106577 -0.376025
vn -0.480132 -0.522779 -0.704398
vn -0.509714 -0.314300 -0.800879
vn -0.669016 -0.662833 -0.336259
vn -0.670991 -0.732266 -0.116440
vn -0.047775 -0.760489 -0.647591
vn -0.103344 -0.987308 -0.120595
vn -0.052446 -0.974310 -0.219022
vn -0.160781 -0.985229 -0.058929
vn 0.266543 -0.507082 -0.819648
vn 0.201876 -0.956893 -0.208809
vn -0.026120 -0.969140 -0.245125
vn 0.661816 -0.681422 -0.312512
vn 0.865842 -0.407824 -0.289822
vn 0.386553 -0.489129 -0.781876
vn 0.820268 0.123616 -0.558462
vn 0.908738 0.008447 -0.417281
vn 0.724615 0.101107 -0.681696
vn 0.705940 0.204651 -0.678061
vn 0.806582 0.274718 -0.523408
vn 0.341984 -0.040176 -0.938847
vn 0.174789 0.199942 -0.964091
vn 0.124474 0.647387 -0.751928
vn 0.102213 0.774437 -0.624340
vn 0.066247 0.677915 -0.732150
vn 0.046756 0.790803 -0.610282
vn 0.100626 0.272512 -0.956876
vn -0.002528 0.710599 -0.703593
vn 0.004025 0.807319 -0.590101
vn -0.019101 0.358740 -0.933242
vn -0.071779 0.367568 -0.927222
vn -0.030774 0.712505 -0.700992
vn -0.012183 0.808049 -0.588990
vn 0.030124 0.734805 -0.677609
vn 0.017939 0.819363 -0.572994
vn 0.046806 0.419740 -0.906437
vn -0.480359 -0.175196 -0.859396
vn -0.885012 0.293758 -0.361192
vn -0.821764 0.175136 -0.542247
vn -0.895219 -0.127950 -0.426863
f 18/25/1 27/35/2 17/24/3
f 17/24/3 27/35/2 28/36/4
f 17/24/5 28/36/6 16/23/7
f 16/23/7 28/36/6 29/37/8
f 14/21/9 15/22/10 31/39/11
f 31/39/11 15/22/10 30/38/12
f 29/37/13 30/38/14 16/23/15
f 16/23/15 30/38/14 15/22/16
f 12/18/17 33/41/18 11/17/19
f 11/17/19 33/41/18 34/43/20
f 13/20/21 14/21/22 32/40/23
f 32/40/23 14/21/22 31/39/24
f 34/43/25 35/44/26 11/17/27
f 11/17/27 35/44/26 10/16/28
f 33/42/29 12/19/30 32/40/31
f 32/40/31 12/19/30 13/20/32
f 3/8/33 25/33/34 2/7/35
f 2/7/35 25/33/34 26/34/36
f 9/15/37 19/26/38 8/14/39
f 8/14/39 19/26/38 20/27/40
f 6/11/41 22/30/42 5/10/43
f 5/10/43 22/30/42 23/31/44
f 20/27/45 21/29/46 8/14/47
f 8/14/47 21/29/46 7/13/48
f 35/44/49 19/26/38 10/16/50
f 10/16/50 19/26/38 9/15/37
f 27/35/2 18/25/1 26/34/51
f 26/34/51 18/25/1 2/7/52
f 24/32/53 4/9/54 23/31/55
f 23/31/55 4/9/54 5/10/56
f 4/9/54 24/32/53 3/8/33
f 3/8/33 24/32/53 25/33/34
f 21/28/57 22/30/42 7/12/58
f 7/12/58 22/30/42 6/11/41
f 50/1/59 51/2/60 1/3/61
f 1/3/62 49/4/63 50/1/64
f 1/3/65 48/5/66 49/4/67
f 47/6/68 48/5/66 1/3/65
f 1/3/69 46/64/70 47/6/71
f 45/65/72 46/64/70 1/3/69
f 44/66/73 45/65/72 1/3/69
f 1/3/74 43/67/75 44/66/76
f 42/68/77 43/67/75 1/3/74
f 41/69/78 42/68/79 1/3/80
f 1/3/81 40/70/82 41/69/83
f 39/71/84 40/70/85 1/3/86
f 38/72/87 39/71/88 1/3/89
f 1/3/90 37/73/91 38/72/92
f 36/74/93 37/73/94 1/3/95
f 1/3/96 52/75/97 36/74/98
f 1/3/61 51/2/60 52/75/99
f 33/41/18 37/46/94 34/43/20
f 34/43/20 37/46/94 36/45/93
f 37/47/91 33/42/29 38/48/92
f 38/48/92 33/42/29 32/40/31
f 31/39/24 39/49/88 32/40/23
f 32/40/23 39/49/88 38/48/87
f 30/38/12 40/50/85 31/39/11
f 31/39/11 40/50/85 39/49/84
f 40/50/82 30/38/14 41/51/83
f 41/51/83 30/38/14 29/37/13
f 28/36/6 42/52/79 29/37/8
f 29/37/8 42/52/79 41/51/78
f 27/35/2 43/53/75 28/36/4
f 28/36/4 43/53/75 42/52/77
f 43/53/75 27/35/2 44/54/76
f 44/54/76 27/35/2 26/34/51
f 26/34/36 25/33/34 44/54/73
f 44/54/73 25/33/34 45/55/72
f 25/33/34 24/32/53 45/55/72
f 45/55/72 24/32/53 46/56/70
f 47/57/71 46/56/70 23/31/55
f 23/31/55 46/56/70 24/32/53
f 23/31/44 22/30/42 47/57/68
f 47/57/68 22/30/42 48/58/66
f 49/59/67 48/58/66 21/28/57
f 21/28/57 48/58/66 22/30/42
f 49/60/63 21/29/46 50/61/64
f 50/61/64 21/29/46 20/27/45
f 20/27/40 19/26/38 50/61/59
f 50/61/59 19/26/38 51/62/60
f 52/63/99 51/62/60 35/44/49
f 35/44/49 51/62/60 19/26/38
f 36/45/98 52/63/97 34/43/25
f 34/43/25 52/63/97 35/44/26
