# This file uses centimeters as units for non-parametric coordinates.

v -7.565668 5.277524 -1.921452
v 8.610126 5.277524 -1.921452
v -7.565668 4.827104 -1.921452
v 8.610126 4.827104 -1.921452
v 0.591503 5.277524 -1.921452
v 0.592072 4.827104 -1.921452
v -3.952145 4.827104 -1.921452
v -3.953925 5.277524 -1.921452
v 4.751301 5.277524 -1.921452
v 4.748019 4.827104 -1.921452
v -3.953925 5.277524 -6.446106
v -3.952145 4.827104 -6.446106
v -7.565668 4.827104 -6.446106
v -7.565668 5.277524 -6.446106
v 4.748019 4.827104 -6.446106
v 4.751301 5.277524 -6.446106
v 8.610126 5.277524 -6.446106
v 8.610126 4.827104 -6.446106
v 0.591503 5.277524 -6.446106
v 0.592072 4.827104 -6.446106
vt 0.330000 0.500000
vt 0.663333 0.500000
vt 0.330000 0.750000
vt 0.663333 0.750000
vt 0.497397 0.500000
vt 0.498803 0.750000
vt 0.404128 0.500000
vt 0.404763 0.750000
vt 0.584417 0.750000
vt 0.583145 0.500000
vt 0.404128 0.500000
vt 0.404763 0.750000
vt 0.330000 0.750000
vt 0.330000 0.500000
vt 0.584417 0.750000
vt 0.583145 0.500000
vt 0.663333 0.500000
vt 0.663333 0.750000
vt 0.497397 0.500000
vt 0.498803 0.750000
vn 0.000000 0.000000 -1.000000
vn 0.000000 0.000000 -1.000000
vn 0.000000 0.000000 -1.000000
vn 0.000000 0.000000 -1.000000
vn 0.000000 0.000000 -1.000000
vn 0.000000 0.000000 -1.000000
vn 0.000000 0.000000 -1.000000
vn 0.000000 0.000000 -1.000000
vn 0.000000 0.000000 -1.000000
vn 0.000000 0.000000 -1.000000
vn 0.000000 0.000000 -1.000000
vn 0.000000 0.000000 -1.000000
vn 0.000000 0.000000 -1.000000
vn 0.000000 0.000000 -1.000000
vn 0.000000 0.000000 -1.000000
vn 0.000000 0.000000 -1.000000
vn 0.000000 0.000000 1.000000
vn 0.000000 0.000000 1.000000
vn 0.000000 0.000000 1.000000
vn 0.000000 0.000000 1.000000
vn 0.000000 0.000000 1.000000
vn 0.000000 0.000000 1.000000
vn 0.000000 0.000000 1.000000
vn 0.000000 0.000000 1.000000
vn 0.000000 0.000000 1.000000
vn 0.000000 0.000000 1.000000
vn 0.000000 0.000000 1.000000
vn 0.000000 0.000000 1.000000
vn 0.000000 0.000000 1.000000
vn 0.000000 0.000000 1.000000
vn 0.000000 0.000000 1.000000
vn 0.000000 0.000000 1.000000
f 8/7/1 7/8/2 1/1/3
f 1/1/3 7/8/2 3/3/4
f 10/9/5 9/10/6 4/4/7
f 4/4/7 9/10/6 2/2/8
f 8/7/9 5/5/10 7/8/11
f 7/8/11 5/5/10 6/6/12
f 9/10/13 10/9/14 5/5/15
f 5/5/15 10/9/14 6/6/16
f 11/11/17 14/14/18 12/12/19
f 12/12/19 14/14/18 13/13/20
f 15/15/21 18/18/22 16/16/23
f 16/16/23 18/18/22 17/17/24
f 20/20/25 19/19/26 12/12/27
f 12/12/27 19/19/26 11/11/28
f 16/16/29 19/19/30 15/15/31
f 15/15/31 19/19/30 20/20/32
