# This file uses centimeters as units for non-parametric coordinates.

v -15.593817 -19.635374 -27.425930
v -17.610180 -13.638774 -38.670216
v -3.779965 -17.179155 -28.900537
v -1.876436 -18.615503 -26.830090
v 0.590352 -18.674496 -29.926094
v -3.988880 -9.339113 -29.659256
v -1.444224 -9.237939 -32.222115
v 0.524613 -9.708090 -29.399960
v -1.930106 -9.731663 -26.705154
v -6.146585 -15.198197 -40.738026
v -6.485285 -16.017378 -38.416920
v -8.150302 -15.932671 -38.241741
v -8.628482 -9.850739 -38.838902
v -6.945653 -9.878755 -39.096371
v -6.423813 -9.948180 -41.098869
v -3.981953 -8.683554 -39.553612
v -3.904533 -9.867801 -39.452168
v -11.456837 -8.585008 -38.546978
v -11.383158 -9.859176 -38.425758
v -4.549882 -8.768126 -43.516048
v -11.638474 -8.645208 -42.490364
v 2.796432 -13.694495 -41.654503
v 2.828533 -14.014218 -44.296444
v 0.386680 -13.693038 -41.502834
v 0.347158 -6.309736 -41.512375
v 0.275629 1.052196 -41.493519
v 1.474655 0.971930 -44.517811
v 2.912012 0.834822 -43.888306
v 2.823488 -6.215840 -44.614475
v 2.724584 -6.290696 -44.083302
v 1.867736 -6.302806 -41.395992
v 0.966487 -6.309022 -41.370583
v 0.156139 -6.310013 -41.270924
v 2.577446 -6.302606 -43.575291
v 1.990022 -6.303005 -41.711246
v 2.678865 -6.303056 -41.825447
v 1.681396 0.893305 -41.052204
v 4.492539 -5.124540 -38.750507
v 5.591268 -5.088033 -39.971634
v 7.879238 -5.120459 -38.151649
v 6.785938 -5.153061 -36.851162
v -20.281025 -9.462658 -41.000027
v -16.280764 -11.431598 -39.966019
v -20.288673 -9.436716 -41.014553
v -20.092943 -3.052885 -39.865665
v -17.791563 -2.358156 -40.771278
v -16.782351 -2.682148 -40.360397
v -18.717810 -3.185340 -39.537247
v 12.009326 -18.233789 -31.498037
v 15.229086 -18.285912 -30.110941
v 13.123354 -11.789752 -33.237705
v 15.900750 -11.788540 -31.593580
v 11.155438 -15.370373 -44.100315
v 8.151783 -2.381686 -43.610481
v 8.612601 -0.889770 -46.185123
v 17.257280 -0.920444 -42.629353
v 16.950548 -0.829199 -40.392185
v 16.902561 -2.381548 -40.466377
v 14.642686 -15.400722 -44.758934
v 25.665915 -17.220327 -44.470524
v 25.551622 -7.685203 -43.450291
v 24.301954 -7.684734 -45.868748
v 22.944136 -7.684420 -45.248066
v 22.571650 -17.535866 -45.689262
v 18.876097 -13.579989 -29.900692
v 22.036133 -14.032606 -27.340803
v 18.849426 -6.876646 -29.914429
v 20.447420 -6.878117 -30.621061
v 22.010992 -6.894103 -27.389906
v -13.214881 -18.258251 -32.957893
v -10.422812 -17.461750 -35.749481
v -14.834314 -8.657541 -32.507721
v -13.179826 -8.497005 -36.243275
v -11.415970 -8.364642 -35.111977
v -19.905787 -19.543856 -27.114550
v -16.798513 -7.858237 -26.389915
v -15.589073 -7.758296 -29.692591
v -15.781067 -6.299772 -29.837580
v -18.706182 -6.084681 -31.830383
v -21.290239 -7.739321 -23.067503
v -18.527122 -7.899919 -21.185608
v 20.611404 -6.886222 -26.496433
v 21.016352 -18.171215 -24.629679
v 24.248257 -7.684693 -42.726246
v 24.211823 -17.229231 -43.172112
v 8.229795 -0.802101 -43.737644
v 12.820746 -15.969991 -42.065437
v 14.627277 -2.822462 -44.782047
v 12.126240 -11.790977 -32.167850
v 15.385784 -11.788383 -30.457451
v -12.952579 -8.799400 -31.710695
v -10.415632 -17.463440 -35.734974
v -11.828299 -18.264898 -32.782269
v 20.637640 -13.729433 -26.472141
v 21.628992 -13.729692 -27.452318
v 19.484608 -13.723335 -28.164841
v 22.765688 -18.721998 -25.269751
v 21.019783 -13.729722 -24.707821
v 22.756521 -13.730890 -25.254827
v 18.278837 -18.295240 -31.660746
v 19.500450 -17.793816 -28.139069
v 19.090389 -13.713914 -31.866791
v 18.269478 -13.719431 -31.667242
v 18.812431 -13.718390 -29.925205
v 19.442358 -13.710794 -30.218567
v 15.673602 -17.833187 -31.108309
v -21.670643 -6.173169 -23.215780
v -18.817774 -6.354052 -21.244333
v -17.554667 -8.064064 -24.871717
v -17.159786 -8.057723 -24.843575
v -16.081121 -19.877884 -26.036747
v -20.635401 -9.375817 -26.223021
v 12.804482 -12.045527 -42.066460
v 11.153399 -12.033474 -44.092552
v 14.637804 -12.044166 -44.784615
v 11.141464 -2.780572 -44.072990
v 12.789924 -2.391435 -42.066502
v 4.506478 -10.673997 -38.578564
v 4.575639 -15.740962 -38.843384
v 6.678373 -16.652952 -36.840488
v 7.728278 -10.662709 -38.051895
v 6.748514 -10.646923 -36.900784
v 5.153675 -10.665532 -38.085629
v 5.146954 -10.652550 -37.102638
v 5.086550 -16.557312 -37.255745
v 4.907040 -16.523142 -38.207378
v 4.831409 -10.670330 -38.770988
v 15.669700 -0.914811 -43.282364
v 14.961629 -0.823019 -41.155174
v 15.022052 -2.381579 -41.142033
v 15.843694 -13.306879 -31.471685
v 15.406539 -11.788755 -31.886137
vt 0.235428 0.100112
vt 0.243817 0.367702
vt 0.425353 0.177964
vt 0.457233 0.120008
vt 0.486353 0.211329
vt 0.418315 0.361705
vt 0.497449 0.347421
vt 0.462988 0.405273
vt 0.452914 0.302044
vt 0.404160 0.374130
vt 0.399049 0.323698
vt 0.374262 0.322274
vt 0.368610 0.482516
vt 0.392921 0.485577
vt 0.400013 0.486450
vt 0.327005 0.479435
vt 0.324307 0.521104
vt 0.430199 0.532274
vt 0.431512 0.493654
vt 0.329742 0.570121
vt 0.429061 0.580552
vt 0.516163 0.408137
vt 0.530817 0.431449
vt 0.497335 0.421773
vt 0.490778 0.634860
vt 0.490935 0.932809
vt 0.513401 0.955834
vt 0.534416 0.954085
vt 0.534647 0.660629
vt 0.514170 0.620511
vt 0.531578 0.651090
vt 0.510117 0.622998
vt 0.495510 0.627125
vt 0.515655 0.623119
vt 0.525919 0.641149
vt 0.520124 0.618875
vt 0.515110 0.926967
vt 0.564849 0.651727
vt 0.586710 0.670128
vt 0.625199 0.627567
vt 0.606757 0.609532
vt 0.204532 0.525482
vt 0.264314 0.451130
vt 0.204425 0.526460
vt 0.239487 0.730659
vt 0.223784 0.748986
vt 0.186422 0.710453
vt 0.207686 0.691714
vt 0.708704 0.184950
vt 0.755734 0.172664
vt 0.721197 0.390992
vt 0.776869 0.356461
vt 0.651810 0.466201
vt 0.622676 0.822969
vt 0.626297 0.902149
vt 0.789167 0.883338
vt 0.796092 0.848378
vt 0.790096 0.799539
vt 0.704429 0.442504
vt 0.855767 0.393741
vt 0.816287 0.432895
vt 0.849684 0.690105
vt 0.865650 0.693527
vt 0.890371 0.655851
vt 0.830233 0.302927
vt 0.889108 0.262877
vt 0.859708 0.474122
vt 0.874912 0.495161
vt 0.924926 0.444764
vt 0.285351 0.201618
vt 0.343100 0.253445
vt 0.318636 0.466534
vt 0.297826 0.482448
vt 0.263827 0.429002
vt 0.161972 0.088973
vt 0.121060 0.252952
vt 0.078939 0.297859
vt 0.181036 0.486581
vt 0.223887 0.450737
vt 0.228483 0.406081
vt 0.195086 0.351359
vt 0.913879 0.425607
vt 0.884638 0.108351
vt 0.872049 0.651217
vt 0.837955 0.383328
vt 0.624918 0.871994
vt 0.683122 0.403072
vt 0.727434 0.806005
vt 0.713322 0.364027
vt 0.771940 0.329411
vt 0.284180 0.417170
vt 0.343206 0.253154
vt 0.309013 0.198094
vt 0.879992 0.242019
vt 0.886353 0.259401
vt 0.849880 0.271038
vt 0.905503 0.105831
vt 0.902298 0.184984
vt 0.921263 0.199421
vt 0.820960 0.202248
vt 0.853424 0.152887
vt 0.832844 0.333209
vt 0.819851 0.319424
vt 0.829355 0.304431
vt 0.830936 0.315885
vt 0.758541 0.203200
vt 0.069549 0.348735
vt 0.114027 0.302675
vt 0.179505 0.316370
vt 0.170678 0.317494
vt 0.216944 0.080193
vt 0.132911 0.264033
vt 0.658329 0.565205
vt 0.689344 0.518751
vt 0.710290 0.531007
vt 0.674691 0.813673
vt 0.704970 0.809296
vt 0.561714 0.455823
vt 0.567370 0.449277
vt 0.566579 0.342494
vt 0.618271 0.430190
vt 0.601291 0.411214
vt 0.598603 0.308129
vt 0.571548 0.444557
vt 0.573905 0.410532
vt 0.571623 0.314996
vt 0.566872 0.332140
vt 0.759249 0.886828
vt 0.757083 0.853615
vt 0.754148 0.804422
vt 0.757044 0.853808
vt 0.754110 0.804615
vt 0.759288 0.886635
vt 0.773075 0.321171
vt 0.767144 0.366196
vt 0.773101 0.328393
vt 0.773862 0.329583
vt 0.767852 0.366126
vn 0.074500 0.990788 0.113084
vn 0.075631 0.992518 0.095855
vn 0.075631 0.992518 0.095855
vn 0.076740 0.993949 0.078598
vn 0.013957 0.999630 -0.023336
vn 0.012507 0.999731 -0.019554
vn 0.012507 0.999731 -0.019554
vn 0.011057 0.999815 -0.015772
vn 0.134090 0.101535 0.985754
vn 0.141309 0.058469 0.988237
vn 0.137401 0.053085 0.989092
vn 0.149772 0.009155 0.988678
vn 0.133486 0.047697 0.989902
vn 0.115382 0.092265 0.989027
vn 0.109820 0.117480 0.986984
vn 0.130996 0.112975 0.984925
vn 0.130996 0.112975 0.984925
vn 0.152110 0.108417 0.982399
vn 0.980025 0.092957 0.175814
vn 0.973773 0.080616 0.212759
vn 0.973773 0.080616 0.212759
vn 0.966007 0.068150 0.249373
vn -0.001198 0.999999 0.000197
vn -0.001198 0.999999 0.000197
vn -0.001198 0.999999 0.000197
vn -0.300067 -0.005359 0.953903
vn -0.261792 -0.013158 0.965035
vn -0.166595 -0.024672 0.985717
vn -0.098103 -0.034228 0.994588
vn 0.028467 -0.046965 0.998491
vn 0.000116 1.000000 0.000250
vn 0.000116 1.000000 0.000250
vn 0.000116 1.000000 0.000250
vn 0.006991 -0.999970 0.003339
vn 0.006991 -0.999970 0.003339
vn 0.006991 -0.999970 0.003339
vn 0.107289 0.994097 0.016153
vn 0.097348 0.995109 0.016769
vn 0.097348 0.995109 0.016769
vn 0.087397 0.996022 0.017383
vn 0.917388 0.004743 0.397966
vn 0.925030 -0.002690 0.379885
vn 0.952392 -0.020164 0.304209
vn 0.943325 -0.020829 0.331215
vn 0.956819 -0.032181 0.288897
vn 0.973058 -0.031844 0.228351
vn 0.983410 -0.030759 0.178771
vn 0.122046 -0.027354 0.992148
vn 0.092459 -0.025088 0.995400
vn 0.167816 -0.002844 0.985814
vn 0.181622 0.014851 0.983256
vn 0.240147 0.033648 0.970153
vn 0.163503 0.025409 0.986216
vn 0.999858 0.013166 0.010555
vn 0.987570 0.057564 0.146262
vn 0.996001 0.043335 0.078136
vn 0.991948 0.058566 0.112292
vn 0.998219 0.014539 -0.057852
vn 0.739284 -0.005004 0.673376
vn 0.760835 -0.017933 0.648697
vn 0.760835 -0.017933 0.648697
vn 0.781443 -0.030840 0.623214
vn -0.817836 0.033800 0.574458
vn -0.781079 0.009962 0.624352
vn -0.781079 0.009962 0.624352
vn -0.740879 -0.013919 0.671494
vn 0.000227 1.000000 -0.000009
vn 0.000307 1.000000 -0.000008
vn 0.000307 1.000000 -0.000008
vn 0.000387 1.000000 -0.000006
vn 0.485165 -0.042652 0.873382
vn 0.578488 -0.057493 0.813662
vn 0.578488 -0.057493 0.813662
vn 0.664582 -0.071616 0.743776
vn -0.888112 -0.018065 0.459272
vn -0.864302 -0.005403 0.502945
vn -0.864302 -0.005403 0.502945
vn -0.838214 0.007272 0.545293
vn 0.017669 0.990740 0.134622
vn -0.031090 0.996969 0.071320
vn -0.031090 0.996969 0.071320
vn -0.079650 0.996794 0.007560
vn 0.894643 0.056083 0.443248
vn 0.964067 0.262027 0.043780
vn 0.963385 0.197266 0.181593
vn 0.905740 0.069584 0.418084
vn 0.963088 0.267564 0.029527
vn -0.125244 -0.126280 0.984057
vn -0.262523 -0.118980 0.957562
vn -0.262523 -0.118980 0.957562
vn -0.394656 -0.109347 0.912299
vn 0.030215 0.819635 0.572089
vn -0.007755 0.833308 0.552754
vn -0.007755 0.833308 0.552754
vn -0.045709 0.845313 0.532313
vn 0.575128 0.127956 0.807995
vn 0.479308 0.096292 0.872348
vn 0.479308 0.096292 0.872348
vn 0.376623 0.063249 0.924205
vn -0.244088 -0.164511 0.955697
vn -0.329717 0.115247 0.937019
vn -0.469932 -0.089438 0.878160
vn -0.364896 0.265385 0.892424
vn 0.004987 0.489752 0.871848
vn 0.002560 0.999990 0.003708
vn 0.004071 0.999990 0.001816
vn 0.004071 0.999990 0.001816
vn 0.005582 0.999985 -0.000076
vn -0.260197 0.005725 0.965539
vn 0.151613 -0.017496 0.988285
vn 0.362691 -0.009909 0.931857
vn 0.623952 -0.016352 0.781292
vn 0.703080 0.005220 0.711092
vn 0.300381 0.016547 0.953676
vn 0.321791 0.007186 0.946783
vn 0.321791 0.007186 0.946783
vn 0.343011 -0.002179 0.939329
vn 0.000678 1.000000 0.000017
vn 0.000604 1.000000 0.000145
vn 0.000604 1.000000 0.000145
vn 0.000531 1.000000 0.000274
vn -0.826475 -0.001170 0.562972
vn -0.859108 0.016764 0.511520
vn -0.891369 0.010187 0.453163
vn -0.918406 0.015817 0.395322
vn -0.943770 -0.003078 0.330588
vn 0.007401 0.999972 -0.001441
vn 0.007401 0.999972 -0.001441
vn 0.007401 0.999972 -0.001441
vn -0.913937 -0.000988 0.405854
vn -0.915831 0.003355 0.401550
vn -0.915831 0.003355 0.401550
vn -0.917687 0.007698 0.397229
vn -0.010772 0.999938 0.002760
vn -0.008799 0.999961 0.001162
vn -0.008799 0.999961 0.001162
vn -0.006826 0.999977 -0.000436
vn -0.944707 -0.001467 0.327913
vn -0.944787 -0.011199 0.327493
vn -0.949700 -0.016107 0.312748
vn -0.944794 -0.016068 0.327271
vn -0.934212 -0.001377 0.356715
vn -0.570060 -0.060889 0.819344
vn -0.567201 -0.067881 0.820777
vn -0.567201 -0.067881 0.820777
vn -0.564308 -0.074869 0.822162
vn 0.053798 0.998137 0.028766
vn 0.050592 0.998383 0.025910
vn 0.050592 0.998383 0.025910
vn 0.047385 0.998611 0.023053
vn 0.968505 0.078276 0.236370
vn 0.955450 0.065016 0.287904
vn 0.955450 0.065016 0.287904
vn 0.939526 0.051561 0.338573
vn -0.024644 0.992195 0.122240
vn -0.024644 0.992195 0.122240
vn -0.024644 0.992195 0.122240
vn -0.279052 -0.121619 0.952543
vn -0.174147 -0.150764 0.973110
vn -0.237643 -0.136750 0.961679
vn -0.216506 -0.144301 0.965558
vn -0.360771 -0.107121 0.926482
vn 0.931101 0.155372 0.330017
vn 0.940019 0.051047 0.337282
vn 0.934090 0.115807 0.337735
vn 0.921126 -0.072059 0.382538
vn 0.941969 -0.015549 0.335339
vn 0.951682 0.188155 0.242690
vn 0.829051 0.000791 0.559173
vn 0.828687 0.001021 0.559711
vn 0.828687 0.001021 0.559711
vn 0.828323 0.001251 0.560249
vn -0.775203 -0.001943 0.631710
vn -0.774761 -0.002494 0.632250
vn -0.774761 -0.002494 0.632250
vn -0.774318 -0.003045 0.632790
vn 0.829037 0.005484 0.559167
vn 0.828492 0.004531 0.559982
vn 0.828492 0.004531 0.559982
vn 0.827945 0.003577 0.560797
vn -0.772563 -0.001162 0.634937
vn -0.773885 -0.001749 0.633324
vn -0.773885 -0.001749 0.633324
vn -0.775203 -0.002335 0.631708
vn -0.003456 0.999749 0.022157
vn -0.005258 0.999725 0.022846
vn -0.005258 0.999725 0.022846
vn -0.007059 0.999698 0.023535
vn 0.765528 -0.009272 0.643335
vn 0.763463 -0.010157 0.645772
vn 0.763463 -0.010157 0.645772
vn 0.761388 -0.011041 0.648202
vn -0.001847 0.999911 -0.013220
vn -0.001847 0.999911 -0.013220
vn -0.001847 0.999911 -0.013220
vn -0.251686 0.012654 0.967726
vn -0.188731 -0.005906 0.982011
vn -0.188731 -0.005906 0.982011
vn -0.124925 -0.024440 0.991865
vn -0.904347 0.039549 0.424961
vn -0.889102 0.033103 0.456510
vn -0.889102 0.033103 0.456510
vn -0.872729 0.026614 0.487479
vn -0.637857 -0.002611 0.770150
vn -0.613591 0.015212 0.789478
vn -0.617380 0.011258 0.786585
vn -0.601163 0.024117 0.798762
vn -0.605946 0.023115 0.795170
vn -0.981734 0.037459 0.186533
vn -0.995632 0.024050 0.090215
vn -0.995632 0.024050 0.090215
vn -0.999922 0.010410 -0.006974
vn 0.018717 0.999144 -0.036885
vn 0.018259 0.999126 -0.037597
vn 0.018259 0.999126 -0.037597
vn 0.017801 0.999107 -0.038309
vn -0.338128 -0.005174 0.941086
vn -0.348148 -0.019353 0.937240
vn -0.348148 -0.019353 0.937240
vn -0.358059 -0.033527 0.933097
vn 0.017420 0.999152 -0.037317
vn 0.017293 0.999230 -0.035214
vn 0.017293 0.999230 -0.035214
vn 0.017165 0.999304 -0.033111
vn -0.338127 -0.005174 0.941086
vn -0.347691 0.043693 0.936591
vn -0.347691 0.043693 0.936591
vn -0.356385 0.092450 0.929754
vn 0.910805 -0.001084 0.412834
vn 0.910805 -0.001084 0.412834
vn 0.910805 -0.001084 0.412834
vn -0.000279 1.000000 -0.000264
vn -0.000279 1.000000 -0.000264
vn -0.000279 1.000000 -0.000264
vn -0.394181 0.058419 0.917174
vn -0.428694 0.079278 0.899965
vn -0.428694 0.079278 0.899965
vn -0.462383 0.099984 0.881025
vn 0.913445 -0.000326 0.406963
vn 0.913445 -0.000326 0.406963
vn 0.913445 -0.000326 0.406963
vn -0.000654 1.000000 -0.000270
vn -0.000686 1.000000 0.000104
vn -0.000686 1.000000 0.000104
vn -0.000718 1.000000 0.000477
vn 0.910805 -0.001084 0.412836
vn 0.910805 -0.001084 0.412836
vn 0.910805 -0.001084 0.412836
f 7/8/1 6/6/2 8/7/3
f 8/7/3 6/6/2 9/9/4
f 20/21/5 21/20/6 16/18/7
f 16/18/7 21/20/6 18/17/8
f 18/17/9 19/16/10 16/18/11
f 19/16/10 13/13/12 16/18/11
f 13/13/12 14/14/13 16/18/11
f 16/18/11 14/14/13 17/19/14
f 11/11/15 14/14/16 12/12/17
f 12/12/17 14/14/16 13/13/18
f 11/11/19 10/10/20 14/14/21
f 14/14/21 10/10/20 15/15/22
f 33/33/23 32/32/24 25/25/25
f 26/26/26 25/25/27 37/37/28
f 25/25/27 32/32/29 37/37/28
f 37/37/28 32/32/29 31/30/30
f 34/35/31 35/34/32 36/36/33
f 32/32/34 35/34/35 31/30/36
f 26/26/37 37/37/38 27/27/39
f 27/27/39 37/37/38 28/28/40
f 37/37/41 31/30/42 28/28/43
f 31/30/42 35/34/44 28/28/43
f 35/34/44 34/35/45 28/28/43
f 34/35/45 30/31/46 28/28/43
f 30/31/46 29/29/47 28/28/43
f 33/33/48 24/24/49 32/32/50
f 24/24/49 22/22/51 32/32/50
f 32/32/50 22/22/51 35/34/52
f 22/22/51 36/36/53 35/34/52
f 23/23/54 30/31/55 22/22/56
f 30/31/55 34/35/57 22/22/56
f 34/35/57 36/36/58 22/22/56
f 9/9/59 4/4/60 8/7/61
f 8/7/61 4/4/60 5/5/62
f 6/6/63 3/3/64 9/9/65
f 9/9/65 3/3/64 4/4/66
f 63/62/67 84/84/68 62/63/69
f 62/63/69 84/84/68 61/64/70
f 84/84/71 85/85/72 61/64/73
f 61/64/73 85/85/72 60/60/74
f 84/84/75 63/62/76 85/85/77
f 85/85/77 63/62/76 64/61/78
f 91/91/79 74/72/80 72/74/81
f 72/74/81 74/72/80 73/73/82
f 93/93/83 92/92/84 91/91/85
f 74/72/86 91/91/85 71/71/87
f 71/71/87 91/91/85 92/92/84
f 93/93/88 91/91/89 70/70/90
f 70/70/90 91/91/89 72/74/91
f 47/45/92 46/46/93 48/48/94
f 48/48/94 46/46/93 45/47/95
f 2/2/96 43/43/97 48/48/98
f 48/48/98 43/43/97 47/45/99
f 45/47/100 44/44/101 48/48/102
f 48/48/102 44/44/101 2/2/103
f 2/2/103 44/44/101 42/42/104
f 68/68/105 67/67/106 69/69/107
f 69/69/107 67/67/106 82/82/108
f 66/66/109 69/69/110 95/95/111
f 69/69/110 82/82/112 95/95/111
f 95/95/111 82/82/112 94/94/113
f 98/98/114 83/83/115 99/99/116
f 99/99/116 83/83/115 97/97/117
f 98/98/118 99/99/119 94/94/120
f 94/94/120 99/99/119 95/95/121
f 94/94/122 82/82/123 96/96/124
f 82/82/123 67/67/125 96/96/124
f 67/67/125 65/65/126 96/96/124
f 98/98/127 94/94/128 96/96/129
f 96/96/130 101/101/131 98/98/132
f 98/98/132 101/101/131 83/83/133
f 104/104/134 105/105/135 103/103/136
f 103/103/136 105/105/135 102/102/137
f 100/100/138 101/101/139 103/103/140
f 103/103/140 101/101/139 104/104/141
f 96/96/142 104/104/141 101/101/139
f 107/107/143 80/77/144 108/108/145
f 108/108/145 80/77/144 81/76/146
f 79/78/147 107/107/148 78/79/149
f 78/79/149 107/107/148 108/108/150
f 76/81/151 110/109/152 1/1/153
f 1/1/153 110/109/152 111/111/154
f 76/81/155 109/110/156 110/109/157
f 111/111/158 110/109/159 75/75/160
f 110/109/159 109/110/161 75/75/160
f 109/110/161 112/112/162 75/75/160
f 78/79/163 108/108/164 77/80/165
f 77/80/165 108/108/164 76/81/166
f 76/81/166 108/108/164 109/110/167
f 108/108/164 81/76/168 109/110/167
f 115/115/169 88/88/170 113/114/171
f 113/114/171 88/88/170 117/117/172
f 114/113/173 53/53/174 113/114/175
f 113/114/175 53/53/174 87/87/176
f 115/115/177 113/114/178 59/59/179
f 59/59/179 113/114/178 87/87/180
f 117/117/181 116/116/182 113/114/183
f 113/114/183 116/116/182 114/113/184
f 40/40/185 39/39/186 41/41/187
f 41/41/187 39/39/186 38/38/188
f 40/40/189 41/41/190 121/121/191
f 121/121/191 41/41/190 122/122/192
f 122/122/193 123/124/194 124/125/195
f 120/123/196 122/122/197 125/126/198
f 125/126/198 122/122/197 124/125/199
f 127/119/200 119/120/201 123/124/202
f 123/124/202 119/120/201 126/127/203
f 41/41/204 38/38/205 122/122/206
f 122/122/206 38/38/205 123/124/207
f 38/38/205 118/118/208 123/124/207
f 126/127/209 125/126/210 123/124/211
f 123/124/211 125/126/210 124/125/212
f 128/128/213 129/131/214 56/56/215
f 56/56/215 129/131/214 57/57/216
f 130/132/217 58/58/218 129/131/219
f 129/131/219 58/58/218 57/57/220
f 129/129/221 128/133/222 86/86/223
f 86/86/223 128/133/222 55/55/224
f 130/130/225 129/129/226 54/54/227
f 54/54/227 129/129/226 86/86/228
f 90/136/229 131/137/230 52/52/231
f 132/135/232 90/136/233 52/52/234
f 50/50/235 90/90/236 49/49/237
f 49/49/237 90/90/236 89/89/238
f 106/106/239 90/90/240 50/50/241
f 90/90/242 132/138/243 89/89/244
f 89/89/244 132/138/243 51/51/245
f 131/134/246 90/90/247 106/106/248
