# This file uses centimeters as units for non-parametric coordinates.

v -7.645425 0.679520 1.004086
v -6.975760 0.679520 1.010219
v -7.645425 -3.250085 0.857611
v -6.838563 -3.250085 0.863257
v -5.444576 -3.221333 1.037195
v -5.543105 0.679520 0.977151
v -3.326799 0.564917 0.791395
v -2.623581 0.564917 0.841710
v -2.629762 -3.130940 1.093903
v -0.818535 -3.039505 0.935334
v -0.730949 0.564917 0.898179
v -5.511000 -0.689871 0.967425
v -2.626905 -0.726938 0.834801
v -2.627613 -1.983711 1.021332
v -5.477216 -1.983711 1.001026
v 2.032159 -3.112618 0.576688
v 2.209180 0.472046 0.817855
v 2.135289 -3.157964 1.074215
v 2.361626 0.493418 0.958515
v -0.765539 -0.726938 1.120373
v 2.153019 -0.831147 0.688933
v 2.100696 -2.098949 0.538080
v -0.793158 -1.983711 1.068038
v -0.008057 -0.726938 1.115951
v 0.054691 0.564917 0.988205
v 3.443060 -3.221333 1.274791
v 3.679336 0.564917 1.100134
v 4.443214 -3.221333 0.975148
v 4.462134 0.401151 0.837596
v -7.492899 -3.009770 2.570830
v -6.623853 -3.009770 2.550755
v -5.205408 -3.045160 2.036560
v -2.545986 -3.096585 1.895035
v -0.745823 -3.042288 2.181408
v 1.775814 -3.083026 2.117298
v 3.595587 -3.036182 2.318857
v 4.703620 -2.949642 2.710401
v 6.427184 -2.949642 2.670070
v 6.008739 -2.996388 0.487045
v 5.398035 -3.024763 -2.463712
v 4.051959 -3.000969 -2.486849
v 5.454202 -3.608357 -5.450094
v 3.917003 -3.065046 -5.758755
v 5.904964 -4.131558 -9.365073
v 3.838401 -3.601662 -9.280209
v 6.143546 -4.131558 -11.154674
v 3.558230 -3.601662 -11.109501
v 7.239146 -3.823517 -10.153801
v 7.015999 -3.549897 -11.023942
v 7.473534 -3.579796 -5.515395
v 7.475928 -2.949642 -2.553496
v 7.543260 -2.996388 0.410431
v 7.446732 -2.949642 2.755684
v -7.871155 -4.143235 0.303010
v -8.048141 -4.203363 2.538058
v -7.595681 -2.571713 -2.977713
v -8.125447 -3.546846 -2.327284
v -7.664449 -2.820437 -4.873439
v -8.351582 -4.156265 -5.031767
v -7.681542 -2.857181 -8.017016
v -8.741881 -4.524921 -8.102259
v -7.804909 -2.757183 -10.585630
v -9.076511 -4.619363 -10.587402
v -9.930270 -4.569329 -10.501054
v -9.648552 -4.416541 -7.733432
v -9.339746 -4.066190 -4.902959
v -9.272145 -4.215526 -2.074475
v -9.207336 -4.235152 -0.387633
v -9.224182 -4.203363 2.477459
v -11.015256 -4.716119 -1.036694
v -10.038764 -4.203363 2.445530
v -11.249236 -5.045207 -2.608401
v -10.875447 -4.708083 -5.134873
v -11.129333 -4.490901 -7.826307
v -11.327691 -4.569329 -10.235786
v -3.363244 2.453362 -3.702977
v -2.786789 2.952671 -3.656451
v -5.184829 3.067312 -3.623321
v -4.422814 2.453939 -3.696335
v -2.787152 2.951966 -4.882044
v -5.076998 3.302752 -4.863771
v -3.368524 2.454944 -4.945905
v -4.415397 1.084702 -3.700716
v -3.363714 1.050188 -3.707565
v -3.366568 1.106363 -5.023216
v -4.444275 -3.336756 -3.710629
v -3.362918 -3.374196 -3.708732
v -3.359660 -3.414563 -5.364344
v 0.287280 2.452548 -3.595144
v 1.507227 2.452550 -3.594900
v 2.117646 2.903463 -3.353263
v -0.211319 2.975746 -3.241558
v 0.287559 1.043908 -3.595037
v 1.534187 0.984771 -3.595951
v 0.288180 2.457725 -4.389483
v 0.288157 1.214504 -4.384880
v 0.288792 -3.567687 -3.593983
v 1.525631 -3.520397 -3.594871
v 0.289827 -3.447362 -4.465072
v -5.324764 2.401075 -6.413564
v -5.248615 -3.837297 -6.570172
v -5.118617 -3.964544 -8.377263
v -5.121881 2.479126 -8.354959
v -7.664118 2.412793 -7.158506
v -7.647836 -3.844594 -6.720436
v -7.523507 2.452648 -8.530068
v 2.051251 2.432674 -7.598629
v 1.988136 -2.846827 -7.564531
v 2.098238 -2.846827 -6.050841
v 2.168743 2.437073 -5.930210
v 3.728949 -2.915798 -6.110190
v 3.838469 2.328947 -6.226643
v 3.767038 2.128718 -7.653686
v -0.195513 3.063097 -4.506042
v 1.557002 2.405892 -5.138259
v 2.046831 3.057209 -4.318173
v 1.490144 1.125823 -4.778132
v 1.481709 -3.369229 -4.817245
v 3.716943 0.508743 0.994546
v 3.479443 -3.221333 1.126888
v -0.598412 0.564917 0.913365
v -0.708410 -0.726938 1.221025
v -0.720779 -1.986593 1.196325
v -0.718454 -3.170675 1.038661
v 4.000335 -3.221333 1.044877
v 3.391717 -3.041430 2.296276
v 3.540820 -3.102663 1.943968
v 3.668588 -3.179354 1.371553
vt 0.171852 0.427458
vt 0.210473 0.427458
vt 0.187479 0.125459
vt 0.224584 0.125459
vt 0.298271 0.123890
vt 0.295316 0.219517
vt 0.292191 0.320625
vt 0.288864 0.428243
vt 0.410109 0.422751
vt 0.448259 0.421967
vt 0.448436 0.320776
vt 0.448613 0.219577
vt 0.448782 0.123105
vt 0.523843 0.124896
vt 0.524623 0.218823
vt 0.526339 0.315415
vt 0.528218 0.421183
vt 0.567415 0.315623
vt 0.571096 0.419706
vt 0.687613 0.415692
vt 0.682763 0.316206
vt 0.678159 0.221756
vt 0.673503 0.126243
vt 0.680819 0.111339
vt 0.696497 0.414907
vt 0.750901 0.115789
vt 0.770278 0.417800
vt 0.783063 0.124866
vt 0.805716 0.425919
vt 0.169710 0.065843
vt 0.219358 0.066627
vt 0.299839 0.065059
vt 0.451395 0.066627
vt 0.529786 0.067412
vt 0.672457 0.072118
vt 0.776972 0.071364
vt 0.840730 0.069010
vt 0.938458 0.070579
vt 0.892991 0.132548
vt 0.836027 0.207067
vt 0.793696 0.210205
vt 0.817213 0.266683
vt 0.797877 0.265898
vt 0.812510 0.341202
vt 0.802580 0.339633
vt 0.811987 0.372579
vt 0.805716 0.371794
vt 0.865293 0.341986
vt 0.850137 0.374147
vt 0.880448 0.268252
vt 0.906056 0.209421
vt 0.975040 0.134901
vt 0.997512 0.068226
vt 0.144103 0.134872
vt 0.115882 0.066627
vt 0.182253 0.201547
vt 0.150374 0.201547
vt 0.177027 0.264300
vt 0.157690 0.268222
vt 0.173891 0.323915
vt 0.159258 0.325484
vt 0.170233 0.381178
vt 0.159258 0.381178
vt 0.121630 0.382747
vt 0.115359 0.325484
vt 0.109088 0.265085
vt 0.089751 0.195272
vt 0.078254 0.152913
vt 0.049511 0.068196
vt 0.022858 0.169386
vt 0.003521 0.068981
vt 0.026516 0.207822
vt 0.036968 0.269791
vt 0.048466 0.327053
vt 0.058918 0.378040
vt 0.430720 0.641792
vt 0.444480 0.668080
vt 0.344227 0.671299
vt 0.363744 0.643509
vt 0.408061 0.659470
vt 0.364341 0.661986
vt 0.406497 0.643656
vt 0.362961 0.603221
vt 0.427878 0.603558
vt 0.409823 0.602818
vt 0.362775 0.550641
vt 0.427355 0.548402
vt 0.411024 0.545331
vt 0.576781 0.637207
vt 0.639011 0.635880
vt 0.653704 0.670247
vt 0.551697 0.673303
vt 0.572640 0.597822
vt 0.639533 0.593116
vt 0.613005 0.604880
vt 0.612902 0.636356
vt 0.574730 0.542535
vt 0.638488 0.545673
vt 0.597299 0.636634
vt 0.325136 0.637976
vt 0.324679 0.531858
vt 0.333934 0.532386
vt 0.332274 0.650028
vt 0.318448 0.636727
vt 0.315716 0.530411
vt 0.322973 0.655200
vt 0.654605 0.623442
vt 0.787294 0.713477
vt 0.661331 0.542450
vt 0.661639 0.613471
vt 0.674070 0.539553
vt 0.674144 0.614644
vt 0.667892 0.622856
vt 0.597394 0.605823
vt 0.613898 0.586102
vt 0.597903 0.585719
vt 0.592771 0.653272
vt 0.615982 0.650451
vt 0.575984 0.650353
vt 0.580340 0.636645
vt 0.619792 0.636781
vt 0.615436 0.650489
vt 0.582548 0.603917
vt 0.622001 0.604053
vt 0.583297 0.587022
vt 0.622750 0.587158
vt 0.585324 0.652554
vt 0.600427 0.654651
vt 0.584771 0.668244
vt 0.770942 0.422165
vt 0.754800 0.122138
vt 0.535452 0.420934
vt 0.531412 0.315440
vt 0.528037 0.218043
vt 0.526446 0.119752
vt 0.783564 0.651287
vt 0.786038 0.646851
vt 0.790326 0.710923
vt 0.770079 0.123596
vt 0.765269 0.071422
vt 0.767615 0.087296
vt 0.768077 0.113925
vt 0.765263 0.071451
vt 0.767609 0.087326
vt 0.768071 0.113954
vt 0.770072 0.123626
vt 0.770949 0.422136
vn -0.009150 -0.037248 0.999264
vn -0.008072 -0.037431 0.999267
vn -0.008072 -0.037431 0.999267
vn -0.006993 -0.037615 0.999268
vn 0.023060 -0.036558 0.999066
vn -0.071284 0.000805 0.997456
vn -0.019413 -0.022571 0.999557
vn -0.091700 0.007035 0.995762
vn -0.122874 0.024155 0.992128
vn -0.124298 0.025710 0.991912
vn 0.083256 -0.005125 0.996515
vn 0.020239 0.082413 0.996393
vn 0.007211 0.126601 0.991927
vn 0.045866 -0.005461 0.998933
vn -0.011688 0.126276 0.991926
vn -0.151644 -0.004896 0.988423
vn -0.091037 0.083126 0.992372
vn -0.091037 0.083126 0.992372
vn -0.029388 0.170198 0.984972
vn -0.007111 0.063143 0.997979
vn -0.014085 0.045905 0.998847
vn -0.014085 0.045905 0.998847
vn -0.021053 0.028651 0.999368
vn 0.046267 0.027140 0.998560
vn 0.019652 0.087165 0.996000
vn 0.019652 0.087165 0.996000
vn -0.007048 0.146813 0.989139
vn 0.144816 0.217546 0.965247
vn 0.015950 0.162014 0.986660
vn 0.015950 0.162014 0.986660
vn -0.113238 0.103218 0.988192
vn 0.166896 -0.129815 0.977391
vn 0.198091 -0.054258 0.978681
vn 0.198091 -0.054258 0.978681
vn 0.227962 0.021662 0.973429
vn 0.220744 -0.124218 0.967389
vn 0.206315 -0.085087 0.974779
vn 0.187138 -0.063714 0.980265
vn 0.148337 -0.020843 0.988717
vn 0.169981 -0.033334 0.984883
vn 0.082502 0.094101 0.992138
vn 0.136079 -0.005339 0.990684
vn 0.136079 -0.005339 0.990684
vn 0.187919 -0.104710 0.976587
vn 0.000973 0.990293 -0.138996
vn -0.001137 0.990181 -0.139789
vn -0.001137 0.990181 -0.139789
vn -0.003248 0.990064 -0.140581
vn -0.002874 0.990058 -0.140628
vn -0.019105 0.988043 -0.152993
vn -0.019105 0.988043 -0.152993
vn -0.035329 0.985612 -0.165293
vn -0.028286 0.985556 -0.166970
vn -0.005684 0.994348 -0.106015
vn -0.005684 0.994348 -0.106015
vn 0.016941 0.998861 -0.044605
vn -0.030789 0.999518 0.004029
vn -0.030789 0.999518 0.004029
vn -0.030789 0.999518 0.004029
vn 0.020635 0.981300 -0.191376
vn 0.182690 0.976572 -0.113721
vn 0.182690 0.976572 -0.113721
vn 0.338840 0.940286 -0.032391
vn 0.355923 0.922634 -0.148540
vn 0.300201 0.945651 -0.124992
vn 0.300201 0.945651 -0.124992
vn 0.243220 0.964707 -0.100921
vn 0.246745 0.968343 -0.037791
vn 0.224135 0.974543 -0.005490
vn 0.224135 0.974543 -0.005490
vn 0.201167 0.979190 0.026819
vn -0.242990 0.969488 -0.032394
vn -0.414233 0.892442 0.178770
vn -0.414233 0.892442 0.178770
vn -0.552400 0.744134 0.375659
vn -0.018363 0.990741 -0.134518
vn -0.133373 0.987226 -0.087153
vn -0.133373 0.987226 -0.087153
vn -0.246318 0.968426 -0.038438
vn -0.043755 0.980341 -0.192399
vn -0.032160 0.979219 -0.200237
vn -0.032160 0.979219 -0.200237
vn -0.020559 0.977905 -0.208036
vn -0.036220 0.999342 -0.002114
vn -0.017721 0.999820 0.006820
vn -0.017721 0.999820 0.006820
vn 0.000786 0.999876 0.015752
vn -0.001059 0.999775 -0.021206
vn 0.000304 0.999789 -0.020533
vn 0.000304 0.999789 -0.020533
vn 0.001668 0.999801 -0.019859
vn -0.906712 0.421194 0.021642
vn -0.934994 0.353897 -0.023312
vn -0.934994 0.353897 -0.023312
vn -0.956404 0.283999 -0.068095
vn -0.977412 0.165104 0.131930
vn -0.931581 0.347100 0.108064
vn -0.931581 0.347100 0.108064
vn -0.852406 0.516673 0.080331
vn -0.886200 0.462424 -0.028524
vn -0.886822 0.461202 -0.028986
vn -0.886822 0.461202 -0.028986
vn -0.887441 0.459979 -0.029447
vn -0.889226 0.457467 -0.000512
vn -0.867730 0.496579 0.021333
vn -0.867730 0.496579 0.021333
vn -0.844090 0.534464 0.043125
vn -0.843708 0.533293 0.061283
vn -0.833346 0.547589 0.075370
vn -0.833346 0.547589 0.075370
vn -0.822559 0.561606 0.089417
vn 0.053891 0.997525 -0.045165
vn 0.073276 0.995809 -0.054736
vn 0.073276 0.995809 -0.054736
vn 0.092625 0.993624 -0.064282
vn 0.066523 0.989634 -0.127276
vn 0.069830 0.989206 -0.128822
vn 0.069830 0.989206 -0.128822
vn 0.073136 0.988765 -0.130367
vn 0.059449 0.972737 -0.224163
vn -0.228585 0.969563 -0.087730
vn -0.228585 0.969563 -0.087730
vn -0.493397 0.867894 0.057614
vn -0.498709 0.866276 0.029240
vn -0.349221 0.927366 0.134299
vn -0.349221 0.927366 0.134299
vn -0.186772 0.954036 0.234374
vn -0.062737 0.997965 -0.011442
vn -0.032079 0.999456 0.007676
vn -0.032079 0.999456 0.007676
vn -0.001380 0.999640 0.026783
vn 0.000435 0.999938 -0.011092
vn -0.115597 0.992274 -0.045057
vn -0.115597 0.992274 -0.045057
vn -0.229932 0.970047 -0.078361
vn -0.264190 0.964234 0.021369
vn -0.308600 0.949270 -0.060442
vn -0.308600 0.949270 -0.060442
vn -0.350267 0.925867 -0.141716
vn -0.399552 0.914883 0.057853
vn -0.396327 0.916078 0.061045
vn -0.396327 0.916078 0.061045
vn -0.393094 0.917252 0.064237
vn -0.375144 0.924052 -0.073449
vn -0.218888 0.975731 0.006124
vn -0.218888 0.975731 0.006124
vn -0.055318 0.994802 0.085493
vn -0.046943 0.997630 -0.050297
vn -0.026518 0.998800 -0.041175
vn -0.026518 0.998800 -0.041175
vn -0.006081 0.999468 -0.032032
vn 0.006183 -0.099852 0.994983
vn 0.007385 -0.103763 0.994575
vn 0.007385 -0.103763 0.994575
vn 0.008587 -0.107673 0.994149
vn 0.049502 0.980459 0.190395
vn 0.101056 0.990291 0.095453
vn 0.101056 0.990291 0.095453
vn 0.151420 0.988469 -0.000613
vn 0.654706 -0.755884 0.000240
vn 0.652380 -0.757890 -0.001744
vn 0.652380 -0.757890 -0.001744
vn 0.650046 -0.759886 -0.003728
vn 0.006267 -0.003165 0.999975
vn 0.006336 -0.003218 0.999975
vn 0.006336 -0.003218 0.999975
vn 0.006405 -0.003272 0.999974
vn 0.999991 -0.000320 -0.004248
vn 0.999995 0.000625 -0.003175
vn 0.999995 0.000625 -0.003175
vn 0.999997 0.001570 -0.002103
vn 0.006437 -0.002284 0.999977
vn 0.002337 -0.001274 0.999997
vn 0.002337 -0.001274 0.999997
vn -0.001764 -0.000264 0.999998
vn -0.000165 -0.560046 0.828462
vn 0.012947 -0.530074 0.847853
vn 0.012947 -0.530074 0.847853
vn 0.026039 -0.499336 0.866017
vn -0.000200 0.000076 1.000000
vn 0.000250 -0.000314 1.000000
vn 0.000250 -0.000314 1.000000
vn 0.000700 -0.000703 1.000000
vn -1.000000 -0.000199 -0.000799
vn -1.000000 -0.000092 -0.000966
vn -1.000000 -0.000092 -0.000966
vn -0.999999 0.000014 -0.001133
vn 0.000744 0.000229 1.000000
vn 0.000726 0.000234 1.000000
vn 0.000726 0.000234 1.000000
vn 0.000707 0.000239 1.000000
vn -0.999999 -0.000267 -0.001225
vn -0.999999 -0.000306 -0.001028
vn -0.999999 -0.000306 -0.001028
vn -1.000000 -0.000344 -0.000831
vn 0.994499 0.009521 0.104312
vn 0.996105 0.004889 0.088036
vn 0.996105 0.004889 0.088036
vn 0.997424 0.000257 0.071734
vn -0.062409 -0.025809 0.997717
vn -0.184015 0.020160 0.982717
vn -0.184015 0.020160 0.982717
vn -0.302470 0.065783 0.950886
vn -0.007536 0.999196 0.039383
vn -0.010288 0.999384 0.033546
vn -0.010288 0.999384 0.033546
vn -0.013040 0.999531 0.027708
vn -0.997289 0.012391 0.072540
vn -0.997377 0.012049 0.071376
vn -0.997377 0.012049 0.071376
vn -0.997463 0.011707 0.070211
vn 0.173190 -0.024789 0.984576
vn 0.105503 -0.001696 0.994418
vn 0.105503 -0.001696 0.994418
vn 0.037267 0.021405 0.999076
vn 0.063365 0.997965 -0.007093
vn 0.116161 0.990284 -0.076449
vn 0.116161 0.990284 -0.076449
vn 0.168068 0.975020 -0.145219
vn 0.999998 0.000180 -0.002162
vn 1.000000 0.000781 -0.000114
vn 1.000000 0.000781 -0.000114
vn 0.999997 0.001382 0.001935
vn -0.780774 -0.624794 -0.004957
vn -0.780774 -0.624794 -0.004957
vn -0.780774 -0.624794 -0.004957
vn -0.741262 -0.668919 -0.055475
vn -0.741262 -0.668919 -0.055475
vn -0.741262 -0.668919 -0.055475
vn 0.627767 -0.760231 -0.167205
vn 0.706546 -0.704928 -0.062198
vn 0.706546 -0.704928 -0.062198
vn 0.770989 -0.635321 0.044072
vn 0.999217 0.018379 -0.035034
vn 0.999925 -0.012189 -0.000770
vn 0.999925 -0.012189 -0.000770
vn 0.998525 -0.042730 0.033495
vn 0.999345 -0.001907 -0.036144
vn 0.999322 -0.001728 -0.036780
vn 0.999322 -0.001728 -0.036780
vn 0.999299 -0.001550 -0.037415
vn 0.034268 0.997007 0.069303
vn 0.034268 0.997007 0.069303
vn 0.034268 0.997007 0.069303
vn -0.025256 -0.124072 0.991952
vn 0.029494 -0.030841 0.999089
vn 0.029494 -0.030841 0.999089
vn 0.083898 0.062752 0.994497
vn -0.151538 -0.037801 0.987728
vn -0.088915 0.054834 0.994529
vn -0.088915 0.054834 0.994529
vn -0.025177 0.146780 0.988849
vn -0.112153 0.171353 0.978805
vn -0.539743 0.200827 0.817524
vn -0.539743 0.200827 0.817524
vn -0.854141 0.188184 0.484798
vn -0.870954 -0.001321 0.491363
vn -0.870317 -0.001230 0.492490
vn -0.870317 -0.001230 0.492490
vn -0.869679 -0.001140 0.493617
vn -0.870612 -0.040699 0.490284
vn -0.822745 -0.063623 0.564839
vn -0.822745 -0.063623 0.564839
vn -0.767987 -0.086015 0.634664
vn 0.811336 0.582765 -0.046041
vn 0.811336 0.582765 -0.046041
vn 0.811336 0.582765 -0.046041
vn -0.053630 0.997868 -0.037182
vn -0.053630 0.997868 -0.037182
vn -0.053630 0.997868 -0.037182
vn -0.681610 0.065344 0.728792
vn -0.887809 0.050378 0.457447
vn -0.949420 0.051064 0.309830
vn -0.991737 0.028277 0.125133
vn -0.985274 0.050514 0.163351
vn -0.975149 0.073888 0.208867
vn -0.149554 0.040574 0.987921
vn -0.129572 0.046609 0.990474
vn -0.129572 0.046609 0.990474
vn -0.109532 0.052623 0.992589
vn 0.210036 0.029144 0.977259
vn 0.182801 0.032921 0.982599
vn 0.182801 0.032921 0.982599
vn 0.155423 0.036673 0.987167
vn 0.014422 0.997669 -0.066706
vn 0.014422 0.997669 -0.066706
vn 0.014422 0.997669 -0.066706
vn -0.017076 0.996846 -0.077501
vn 0.018170 0.993382 -0.113409
vn 0.037442 0.989812 -0.137371
vn 0.064614 0.983842 -0.166972
vn 0.075828 0.979839 -0.184839
vn -0.023799 0.988223 -0.151156
vn -0.023798 0.988223 -0.151156
vn -0.023798 0.988223 -0.151156
vn -0.023798 0.988223 -0.151156
vn -0.179428 0.975690 -0.125839
vn -0.090457 0.993149 -0.073979
vn -0.090457 0.993149 -0.073979
vn -0.000499 0.999773 -0.021313
vn -0.118432 0.990019 0.076401
vn -0.050434 0.998226 0.031647
vn -0.050434 0.998226 0.031647
vn 0.017901 0.999751 -0.013318
vn 0.933948 -0.041909 0.354943
vn 0.953595 -0.047682 0.297294
vn 0.953595 -0.047682 0.297294
vn 0.969672 -0.053277 0.238532
vn -0.037333 0.989322 -0.140881
vn -0.026687 0.987297 -0.156629
vn -0.026687 0.987297 -0.156629
vn -0.016032 0.984911 -0.172319
vn -0.005580 0.995752 0.091911
vn -0.005580 0.995752 0.091911
vn -0.005580 0.995752 0.091911
vn -0.003034 0.993735 -0.111718
vn -0.003034 0.993735 -0.111718
vn -0.003034 0.993735 -0.111718
vn -0.006106 0.984772 -0.173743
vn -0.006106 0.984772 -0.173743
vn -0.006106 0.984772 -0.173743
vn 0.155479 0.025137 0.987519
vn 0.155479 0.025137 0.987519
vn 0.155479 0.025137 0.987519
vn -0.023799 0.988223 -0.151156
vn -0.023799 0.988223 -0.151156
vn -0.023799 0.988223 -0.151156
vn -0.115158 0.980843 -0.157116
vn -0.140808 0.985059 -0.099161
vn -0.140808 0.985059 -0.099161
vn -0.165889 0.985300 -0.040806
f 1/1/1 3/3/2 2/2/3
f 2/2/3 3/3/2 4/4/4
f 2/2/5 4/4/6 6/8/7
f 6/8/7 4/4/6 12/7/8
f 12/7/8 4/4/6 15/6/9
f 4/4/6 5/5/10 15/6/9
f 6/8/11 12/7/12 7/9/13
f 13/11/14 8/10/15 12/7/12
f 7/9/13 12/7/12 8/10/15
f 13/11/16 20/16/17 8/10/18
f 8/10/18 20/16/17 11/17/19
f 14/12/20 15/6/21 9/13/22
f 9/13/22 15/6/21 5/5/23
f 12/7/24 15/6/25 13/11/26
f 13/11/26 15/6/25 14/12/27
f 122/133/28 24/18/29 121/132/30
f 121/132/30 24/18/29 25/19/31
f 124/135/32 16/23/33 123/134/34
f 123/134/34 16/23/33 22/22/35
f 22/22/36 21/21/37 123/134/38
f 122/133/39 123/134/38 24/18/40
f 123/134/38 21/21/37 24/18/40
f 25/19/41 24/18/42 17/20/43
f 17/20/43 24/18/42 21/21/44
f 3/3/45 30/30/46 4/4/47
f 4/4/47 30/30/46 31/31/48
f 4/4/49 31/31/50 5/5/51
f 5/5/51 31/31/50 32/32/52
f 5/5/53 32/32/54 9/13/55
f 9/13/55 32/32/54 33/33/56
f 10/14/57 33/33/58 34/34/59
f 40/40/60 42/42/61 41/41/62
f 41/41/62 42/42/61 43/43/63
f 43/43/64 42/42/65 45/45/66
f 45/45/66 42/42/65 44/44/67
f 45/45/68 44/44/69 47/47/70
f 47/47/70 44/44/69 46/46/71
f 44/44/72 48/48/73 46/46/74
f 46/46/74 48/48/73 49/49/75
f 42/42/76 50/50/77 44/44/78
f 44/44/78 50/50/77 48/48/79
f 40/40/80 51/51/81 42/42/82
f 42/42/82 51/51/81 50/50/83
f 40/40/84 39/39/85 51/51/86
f 51/51/86 39/39/85 52/52/87
f 39/39/88 38/38/89 52/52/90
f 52/52/90 38/38/89 53/53/91
f 30/30/92 3/3/93 55/55/94
f 55/55/94 3/3/93 54/54/95
f 54/54/96 3/3/97 57/57/98
f 57/57/98 3/3/97 56/56/99
f 56/56/100 58/58/101 57/57/102
f 57/57/102 58/58/101 59/59/103
f 58/58/104 60/60/105 59/59/106
f 59/59/106 60/60/105 61/61/107
f 60/60/108 62/62/109 61/61/110
f 61/61/110 62/62/109 63/63/111
f 63/63/112 64/64/113 61/61/114
f 61/61/114 64/64/113 65/65/115
f 61/61/116 65/65/117 59/59/118
f 59/59/118 65/65/117 66/66/119
f 59/59/120 66/66/121 57/57/122
f 57/57/122 66/66/121 67/67/123
f 67/67/124 68/68/125 57/57/126
f 57/57/126 68/68/125 54/54/127
f 68/68/128 69/69/129 54/54/130
f 54/54/130 69/69/129 55/55/131
f 69/69/132 68/68/133 71/71/134
f 71/71/134 68/68/133 70/70/135
f 68/68/136 67/67/137 70/70/138
f 70/70/138 67/67/137 72/72/139
f 67/67/140 66/66/141 72/72/142
f 72/72/142 66/66/141 73/73/143
f 66/66/144 65/65/145 73/73/146
f 73/73/146 65/65/145 74/74/147
f 65/65/148 64/64/149 74/74/150
f 74/74/150 64/64/149 75/75/151
f 76/76/152 77/77/153 79/79/154
f 79/79/154 77/77/153 78/78/155
f 78/78/156 77/77/157 81/81/158
f 81/81/158 77/77/157 80/80/159
f 77/77/160 76/76/161 80/80/162
f 80/80/162 76/76/161 82/82/163
f 79/79/164 83/83/165 76/76/166
f 76/76/166 83/83/165 84/84/167
f 76/76/168 84/84/169 82/82/170
f 82/82/170 84/84/169 85/85/171
f 83/83/172 86/86/173 84/84/174
f 84/84/174 86/86/173 87/87/175
f 89/89/176 90/90/177 92/92/178
f 92/92/178 90/90/177 91/91/179
f 89/89/180 93/93/181 90/90/182
f 90/90/182 93/93/181 94/94/183
f 93/95/184 89/96/185 96/114/186
f 96/114/186 89/96/185 95/99/187
f 93/93/188 97/97/189 94/94/190
f 94/94/190 97/97/189 98/98/191
f 97/115/192 93/95/193 99/116/194
f 99/116/194 93/95/193 96/114/195
f 100/100/196 101/101/197 103/103/198
f 103/103/198 101/101/197 102/102/199
f 101/101/200 100/100/201 105/105/202
f 105/105/202 100/100/201 104/104/203
f 100/100/204 103/103/205 104/104/206
f 104/104/206 103/103/205 106/106/207
f 108/136/208 109/137/209 107/108/210
f 107/108/210 109/137/209 110/138/211
f 110/110/212 109/109/213 112/112/214
f 112/112/214 109/109/213 111/111/215
f 110/110/216 112/112/217 107/107/218
f 107/107/218 112/112/217 113/113/219
f 84/84/220 87/87/221 85/85/222
f 85/85/222 87/87/221 88/88/223
f 95/99/224 89/96/225 114/117/226
f 114/117/227 89/96/228 92/118/229
f 91/119/230 90/120/231 116/122/232
f 116/122/232 90/120/231 115/121/233
f 94/123/234 117/124/235 90/120/236
f 90/120/236 117/124/235 115/121/237
f 98/125/238 118/126/239 94/123/240
f 94/123/240 118/126/239 117/124/241
f 92/127/242 91/128/243 114/129/244
f 23/15/245 14/12/246 10/14/247
f 10/14/247 14/12/246 9/13/248
f 20/16/249 13/11/250 23/15/251
f 23/15/251 13/11/250 14/12/252
f 11/17/253 20/16/254 121/132/255
f 121/132/255 20/16/254 122/133/256
f 23/15/257 123/134/258 20/16/259
f 20/16/259 123/134/258 122/133/260
f 23/15/261 10/14/262 123/134/263
f 123/134/263 10/14/262 124/135/264
f 34/34/265 124/135/266 10/14/267
f 10/14/268 9/13/269 33/33/270
f 19/25/271 17/20/272 18/24/273
f 17/20/272 21/21/274 18/24/273
f 21/21/274 22/22/275 18/24/273
f 18/24/273 22/22/275 16/23/276
f 18/24/277 26/26/278 19/25/279
f 19/25/279 26/26/278 27/27/280
f 119/130/281 125/146/282 29/29/283
f 29/29/283 125/146/282 28/28/284
f 18/24/285 34/34/286 35/35/287
f 35/35/288 126/140/289 18/24/290
f 126/140/289 127/141/291 18/24/290
f 26/26/292 18/24/290 127/141/291
f 28/28/293 125/146/294 37/37/295
f 125/146/294 128/145/296 37/37/295
f 28/28/297 37/37/298 39/39/299
f 39/39/299 37/37/298 38/38/300
f 28/28/301 39/39/302 41/41/303
f 41/41/303 39/39/302 40/40/304
f 27/27/305 26/26/306 119/147/307
f 119/147/307 26/26/306 120/131/308
f 128/145/309 127/144/310 37/37/311
f 127/144/310 36/36/312 37/37/311
f 16/23/313 124/135/314 18/24/315
f 18/24/316 124/135/317 34/34/318
f 127/144/319 126/143/320 36/36/321
f 125/139/322 119/147/323 120/131/324
f 128/142/325 125/139/326 120/131/327
f 127/141/328 128/142/329 26/26/330
f 26/26/330 128/142/329 120/131/331
