# This file uses centimeters as units for non-parametric coordinates.

v -5.281644 1.432241 -2.102403
v -5.289220 3.806242 -7.379889
v -6.934927 3.806239 -7.395109
v -6.938811 1.432248 -2.102363
v -5.280483 0.509974 -2.579576
v -5.291414 3.050697 -7.401056
v -7.055381 1.432224 0.640380
v -5.567382 1.432194 0.640455
v -7.645425 1.432348 -2.102395
v -7.645425 1.432224 0.640397
v -7.645424 0.681453 0.655817
v -7.005048 0.679520 0.672562
v -7.645425 0.679520 1.004086
v -6.975760 0.679520 1.010219
v -7.645425 -3.250085 0.857611
v -6.838563 -3.250085 0.863257
v -5.444576 -3.221333 1.037195
v -5.543105 0.679520 0.977151
v -5.562145 0.679520 0.638872
v -3.340151 1.432169 0.640404
v -3.341213 1.432173 -2.102408
v -3.332252 0.586258 0.459511
v -3.326799 0.564917 0.791395
v -2.623581 0.564917 0.841710
v -2.630342 0.564917 0.550770
v -2.591477 1.432148 0.640348
v -2.599682 1.432173 -2.102386
v 0.026856 1.432148 0.640379
v 0.011602 1.432146 -2.102386
v 0.048165 0.564917 0.523492
v -2.629762 -3.130940 1.093903
v -0.818535 -3.039505 0.935334
v -0.730949 0.564917 0.898179
v -0.692961 1.432148 0.640369
v -0.691742 0.564917 0.532430
v -7.067807 1.432248 -2.102358
v -6.941624 2.443857 -2.103027
v -7.645425 2.443857 -2.102384
v -6.939709 2.446800 -4.028049
v -7.645425 2.447218 -4.005622
v -6.940297 3.878587 -4.013795
v -7.645425 3.881069 -4.009127
v -6.938389 3.891542 -5.698680
v -7.645425 3.889177 -5.729425
v -6.938417 5.401530 -5.559546
v -7.645425 5.401530 -5.556197
v -6.938611 2.496383 -4.286620
v -5.286459 2.496884 -4.282068
v -5.285897 1.587342 -4.829767
v -6.937663 5.401836 -7.403562
v -7.645425 5.401836 -7.408655
v -6.934850 4.264118 -7.367649
v -6.937435 3.259006 -5.523915
v -5.287758 3.258363 -5.524006
v -5.287090 2.308943 -6.116741
v -5.511000 -0.689871 0.967425
v -2.626905 -0.726938 0.834801
v -2.627613 -1.983711 1.021332
v -5.477216 -1.983711 1.001026
v 4.449519 0.563745 0.724951
v 4.449491 1.432151 0.640276
v 4.448859 1.430929 -2.102416
v 2.032159 -3.112618 0.576688
v 2.209180 0.472046 0.817855
v 2.135289 -3.157964 1.074215
v 2.361626 0.493418 0.958515
v 2.025107 1.432171 -2.102426
v 2.077165 1.432151 0.640322
v 2.079597 0.598290 0.691604
v 2.185771 1.432171 -2.102424
v 2.211290 1.432151 0.640319
v 2.225204 0.598290 0.692782
v -0.765539 -0.726938 1.120373
v 2.153019 -0.831147 0.688933
v 2.100696 -2.098949 0.538080
v -0.793158 -1.983711 1.068038
v -0.008057 -0.726938 1.115951
v 0.054691 0.564917 0.988205
v 3.443060 -3.221333 1.274791
v 3.679336 0.564917 1.100134
v 4.443214 -3.221333 0.975148
v 4.462134 0.401151 0.837596
v 3.720120 1.432176 -2.102422
v 3.647469 1.432151 0.640290
v 3.667209 0.564917 0.719026
v 3.677994 3.805988 -7.400701
v 2.185589 3.805989 -7.399323
v 4.450856 2.312690 -2.102901
v 3.726289 2.309432 -2.102491
v 4.449019 2.305830 -3.446468
v 3.724537 2.305368 -3.445777
v 2.208339 2.228188 -3.446900
v 3.721223 2.228167 -3.444708
v 4.451183 3.782143 -3.447239
v 3.728796 3.782144 -3.447276
v 4.450986 3.782099 -5.601588
v 3.726257 3.782099 -5.601662
v 4.451530 5.252355 -5.600670
v 3.732471 5.252079 -5.601090
v 4.450208 5.250909 -7.856438
v 3.727550 5.250909 -7.837466
v 3.723796 3.828430 -7.808074
v 3.722889 2.483583 -5.697603
v 3.718158 2.240528 -5.721906
v 3.720396 2.722990 -7.721090
v -7.492899 -3.009770 2.570830
v -6.623853 -3.009770 2.550755
v -5.205408 -3.045160 2.036560
v -2.545986 -3.096585 1.895035
v -0.745823 -3.042288 2.181408
v 1.775814 -3.083026 2.117298
v 3.595587 -3.036182 2.318857
v 4.703620 -2.949642 2.710401
v 6.427184 -2.949642 2.670070
v 6.008739 -2.996388 0.487045
v 5.398035 -3.024763 -2.463712
v 4.051959 -3.000969 -2.486849
v 5.454202 -3.608357 -5.450094
v 3.917003 -3.065046 -5.758755
v 5.904964 -4.131558 -9.365073
v 3.838401 -3.601662 -9.280209
v 6.143546 -4.131558 -11.154674
v 3.558230 -3.601662 -11.109501
v 7.239146 -3.823517 -10.153801
v 7.015999 -3.549897 -11.023942
v 7.473534 -3.579796 -5.515395
v 7.475928 -2.949642 -2.553496
v 7.543260 -2.996388 0.410431
v 7.446732 -2.949642 2.755684
v -7.871155 -4.143235 0.303010
v -8.048141 -4.203363 2.538058
v -7.595681 -2.571713 -2.977713
v -8.125447 -3.546846 -2.327284
v -7.664449 -2.820437 -4.873439
v -8.351582 -4.156265 -5.031767
v -7.681542 -2.857181 -8.017016
v -8.741881 -4.524921 -8.102259
v -7.804909 -2.757183 -10.585630
v -9.076511 -4.619363 -10.587402
v -9.930270 -4.569329 -10.501054
v -9.648552 -4.416541 -7.733432
v -9.339746 -4.066190 -4.902959
v -9.272145 -4.215526 -2.074475
v -9.207336 -4.235152 -0.387633
v -9.224182 -4.203363 2.477459
v -11.015256 -4.716119 -1.036694
v -10.038764 -4.203363 2.445530
v -11.249236 -5.045207 -2.608401
v -10.875447 -4.708083 -5.134873
v -11.129333 -4.490901 -7.826307
v -11.327691 -4.569329 -10.235786
v 2.198089 3.051651 -7.471525
v 2.230337 1.737636 -5.244094
v 2.161557 -0.011644 -2.449487
v -2.778603 2.946937 -2.259164
v -2.776830 3.806111 -2.259158
v -3.993183 3.806121 -2.259166
v -3.994994 2.944899 -2.259113
v -2.781175 3.806231 -7.419274
v -4.009200 3.806240 -7.443837
v -5.288010 3.806222 -7.448066
v -5.288111 3.806121 -2.259185
v -5.288110 2.944950 -2.259133
v -2.780142 2.970913 -7.532369
v -3.363244 2.453362 -3.702977
v -2.786789 2.952671 -3.656451
v -5.184829 3.067312 -3.623321
v -4.422814 2.453939 -3.696335
v -2.787152 2.951966 -4.882044
v -3.368524 2.454944 -4.945905
v -4.415397 1.084702 -3.700716
v -3.363714 1.050188 -3.707565
v -3.366568 1.106363 -5.023216
v -4.444275 -3.336756 -3.710629
v -3.362918 -3.374196 -3.708732
v -3.359660 -3.414563 -5.364344
v -0.306603 3.805992 -2.259107
v -0.306510 2.942146 -2.259089
v 0.951780 2.944389 -2.259121
v 0.985562 3.806001 -2.259163
v 0.990689 3.806056 -7.383621
v -0.304633 3.806059 -7.403570
v -0.306012 3.017189 -7.393688
v 2.169683 2.943828 -2.259147
v 2.171356 3.805995 -2.259140
v 2.170121 3.806054 -7.427251
v 0.287280 2.452548 -3.595144
v 1.507227 2.452550 -3.594900
v 2.117646 2.903463 -3.353263
v -0.211319 2.975746 -3.241558
v 0.287559 1.043908 -3.595037
v 1.534187 0.984771 -3.595951
v 0.288180 2.457725 -4.389483
v 0.288157 1.214504 -4.384880
v 0.288792 -3.567687 -3.593983
v 1.525631 -3.520397 -3.594871
v 0.289827 -3.447362 -4.465072
v -0.195513 3.063097 -4.506042
v -5.287851 3.806174 -4.591699
v -5.287806 3.079457 -4.573625
v -5.288026 3.239101 -7.484990
v 1.557002 2.405892 -5.138259
v 2.046831 3.057209 -4.318173
v 1.490144 1.125823 -4.778132
v 1.481709 -3.369229 -4.817245
v 3.716943 0.508743 0.994546
v 3.479443 -3.221333 1.126888
v 2.170814 3.806021 -4.626170
v 2.169274 3.039383 -4.895014
v 2.167658 3.092185 -7.463440
v -0.598412 0.564917 0.913365
v -0.708410 -0.726938 1.221025
v -0.720779 -1.986593 1.196325
v -0.718454 -3.170675 1.038661
v -6.936143 3.806243 -6.286138
v -5.288066 3.806246 -6.287057
v 3.676454 3.805987 -6.093709
v 2.178824 3.805989 -6.092435
v -3.341213 -0.015174 -2.451663
v -2.599682 -0.015175 -2.499680
v 0.011602 -0.015201 -2.499903
v 2.025107 -0.015176 -2.413878
v -4.009200 3.233824 -7.443837
v 0.990689 3.024545 -7.383621
v -6.610686 3.032797 -7.403893
v 3.635925 3.043738 -7.486981
v 4.448827 0.556275 -2.031105
v 4.449017 0.964577 -3.443567
v 4.450914 2.435900 -5.636895
v 4.450208 3.902249 -7.856438
v -7.645425 -0.001534 -2.080710
v -7.645425 1.105550 -4.010431
v -7.645425 2.512665 -5.728696
v -7.645425 4.055260 -7.408655
v -0.304168 2.256867 -7.397384
v 2.167873 2.279370 -4.918355
v 2.246516 2.332592 -7.483240
v 1.012929 2.264844 -7.391432
v -0.301629 1.585116 -7.405354
v 2.168153 1.512116 -2.288089
v 2.171343 1.607909 -4.938993
v 2.268416 1.661457 -7.498446
v 1.032893 1.593594 -7.400703
v -0.286202 -3.251742 -7.454486
v 2.230568 -1.878073 -2.373997
v 2.266355 -1.781615 -5.043106
v 2.390727 -1.726434 -7.575109
v 1.134059 -1.794966 -7.456322
v -2.780142 2.142308 -7.532369
v -5.287806 2.250853 -4.573625
v -5.288026 2.410497 -7.484990
v -4.009200 2.405220 -7.443837
v -5.288121 1.420320 -2.279341
v -2.852633 1.453368 -7.528886
v -5.287805 1.555570 -4.616569
v -5.289464 1.714631 -7.507772
v -4.083127 1.716278 -7.438662
v -5.288372 -0.425919 -2.346128
v -2.819332 -3.009033 -7.521591
v -5.288770 -0.288777 -4.730537
v -5.288622 -0.131210 -7.577799
v -4.273474 -0.111262 -7.435461
v -5.078137 3.067312 -6.677077
v -4.316122 2.453939 -6.750092
v -4.308705 1.084702 -6.754472
v -4.337583 -3.336756 -6.764385
vt 0.302500 0.567342
vt 0.305509 0.609862
vt 0.330081 0.776535
vt 0.244433 0.700343
vt 0.310334 0.563900
vt 0.312301 0.609848
vt 0.297785 0.530599
vt 0.225522 0.531670
vt 0.207025 0.488483
vt 0.288526 0.487705
vt 0.215643 0.531480
vt 0.186381 0.531595
vt 0.172924 0.487434
vt 0.176257 0.438424
vt 0.212778 0.439206
vt 0.172600 0.429034
vt 0.211210 0.429034
vt 0.188222 0.127789
vt 0.225316 0.127788
vt 0.298982 0.126224
vt 0.296027 0.221613
vt 0.292903 0.322468
vt 0.289578 0.429817
vt 0.290100 0.436859
vt 0.409741 0.485372
vt 0.413532 0.525984
vt 0.411308 0.436077
vt 0.410786 0.424340
vt 0.448925 0.423557
vt 0.448925 0.432947
vt 0.450492 0.483024
vt 0.451537 0.528407
vt 0.530948 0.483550
vt 0.570133 0.483807
vt 0.567071 0.525201
vt 0.530413 0.433473
vt 0.570133 0.433729
vt 0.449102 0.322618
vt 0.449279 0.221672
vt 0.449447 0.125441
vt 0.524486 0.127227
vt 0.525265 0.220920
vt 0.526981 0.317271
vt 0.528860 0.422775
vt 0.218525 0.590221
vt 0.183244 0.589248
vt 0.233153 0.624649
vt 0.199223 0.626273
vt 0.224794 0.733411
vt 0.192924 0.734976
vt 0.238900 0.763927
vt 0.208393 0.763926
vt 0.230541 0.867211
vt 0.196582 0.864864
vt 0.303104 0.552123
vt 0.236419 0.624325
vt 0.308875 0.548917
vt 0.307738 0.529745
vt 0.244647 0.889902
vt 0.212056 0.888519
vt 0.251554 0.783532
vt 0.767621 0.483154
vt 0.764479 0.433729
vt 0.802101 0.433729
vt 0.806803 0.483024
vt 0.790607 0.528407
vt 0.755081 0.528160
vt 0.568045 0.317478
vt 0.571725 0.421301
vt 0.688207 0.417298
vt 0.683358 0.318060
vt 0.678755 0.223845
vt 0.674101 0.128571
vt 0.681415 0.113704
vt 0.697088 0.416515
vt 0.681941 0.483437
vt 0.670433 0.527571
vt 0.679840 0.433729
vt 0.689257 0.483413
vt 0.777528 0.650195
vt 0.687684 0.433729
vt 0.751475 0.118143
vt 0.770847 0.419401
vt 0.783634 0.127168
vt 0.806280 0.427469
vt 0.778177 0.677705
vt 0.749438 0.607775
vt 0.650762 0.766484
vt 0.600112 0.766737
vt 0.796354 0.583961
vt 0.760827 0.587091
vt 0.784337 0.619172
vt 0.752468 0.619172
vt 0.791652 0.722457
vt 0.756647 0.724021
vt 0.778590 0.752972
vt 0.744631 0.752972
vt 0.784053 0.856076
vt 0.751984 0.857640
vt 0.774164 0.877564
vt 0.743378 0.879490
vt 0.741708 0.769699
vt 0.740452 0.655947
vt 0.736794 0.638733
vt 0.742109 0.738395
vt 0.170459 0.068322
vt 0.220092 0.069104
vt 0.300549 0.067539
vt 0.452059 0.069104
vt 0.530427 0.069887
vt 0.673056 0.074581
vt 0.777546 0.073799
vt 0.841284 0.071451
vt 0.938982 0.073016
vt 0.893529 0.134831
vt 0.836582 0.209164
vt 0.794264 0.212294
vt 0.817774 0.268631
vt 0.798443 0.267848
vt 0.813072 0.342964
vt 0.803146 0.341399
vt 0.812550 0.374263
vt 0.806280 0.373480
vt 0.865839 0.343747
vt 0.850688 0.375827
vt 0.880991 0.270196
vt 0.906590 0.211511
vt 0.975554 0.137178
vt 0.998019 0.070669
vt 0.144859 0.137178
vt 0.116647 0.069104
vt 0.182998 0.203687
vt 0.151129 0.203687
vt 0.177773 0.266283
vt 0.158443 0.270196
vt 0.174639 0.325750
vt 0.160010 0.327315
vt 0.170982 0.382869
vt 0.160010 0.382870
vt 0.122394 0.384434
vt 0.116124 0.327315
vt 0.109855 0.267066
vt 0.090524 0.197427
vt 0.079031 0.155175
vt 0.050296 0.070669
vt 0.023651 0.171606
vt 0.004320 0.071451
vt 0.027308 0.209946
vt 0.037757 0.271761
vt 0.049251 0.328880
vt 0.059700 0.379740
vt 0.763607 0.708218
vt 0.763174 0.679536
vt 0.764823 0.650314
vt 0.459965 0.672730
vt 0.377640 0.567959
vt 0.387276 0.725586
vt 0.387798 0.675509
vt 0.379096 0.626743
vt 0.393545 0.790530
vt 0.328239 0.792095
vt 0.317211 0.724804
vt 0.317108 0.674726
vt 0.407794 0.625182
vt 0.431390 0.642834
vt 0.445146 0.669056
vt 0.344923 0.672267
vt 0.364435 0.644546
vt 0.408739 0.660468
vt 0.407175 0.644693
vt 0.363652 0.604359
vt 0.428549 0.604695
vt 0.410500 0.603956
vt 0.363466 0.551910
vt 0.428027 0.549676
vt 0.411700 0.546613
vt 0.535129 0.728716
vt 0.601885 0.701506
vt 0.605660 0.676291
vt 0.608272 0.729499
vt 0.599390 0.785053
vt 0.534606 0.785836
vt 0.544378 0.698291
vt 0.678280 0.676291
vt 0.681415 0.728716
vt 0.666608 0.783465
vt 0.577408 0.638260
vt 0.639619 0.636936
vt 0.654308 0.671217
vt 0.552331 0.674266
vt 0.573268 0.598974
vt 0.640141 0.594279
vt 0.613621 0.606013
vt 0.613518 0.637411
vt 0.575358 0.543825
vt 0.639096 0.546954
vt 0.597920 0.637689
vt 0.454784 0.788102
vt 0.407521 0.566752
vt 0.459601 0.724169
vt 0.778917 0.699627
vt 0.690302 0.606593
vt 0.692395 0.528706
vt 0.306973 0.627351
vt 0.301224 0.529739
vt 0.305080 0.698454
vt 0.391908 0.776588
vt 0.598015 0.606954
vt 0.614513 0.587282
vt 0.598523 0.586900
vt 0.593393 0.654285
vt 0.628579 0.732933
vt 0.644651 0.733648
vt 0.640851 0.756619
vt 0.320141 0.758450
vt 0.625035 0.754559
vt 0.623575 0.778230
vt 0.638313 0.779572
vt 0.616597 0.651471
vt 0.576611 0.651374
vt 0.580966 0.637700
vt 0.620406 0.637836
vt 0.616052 0.651509
vt 0.583174 0.605053
vt 0.622614 0.605189
vt 0.583922 0.588200
vt 0.623363 0.588336
vt 0.545147 0.716068
vt 0.602387 0.718176
vt 0.535129 0.679421
vt 0.771517 0.423726
vt 0.755373 0.124476
vt 0.777777 0.810240
vt 0.753858 0.757382
vt 0.775461 0.757018
vt 0.674858 0.752960
vt 0.779617 0.852539
vt 0.754670 0.853363
vt 0.754547 0.808748
vt 0.536091 0.422526
vt 0.532053 0.317296
vt 0.528679 0.220142
vt 0.527088 0.122096
vt 0.250127 0.752373
vt 0.384655 0.748205
vt 0.304342 0.593366
vt 0.739885 0.751879
vt 0.690930 0.751930
vt 0.778811 0.696473
vt 0.326680 0.747756
vt 0.313488 0.750513
vt 0.241219 0.766149
vt 0.652561 0.741107
vt 0.603990 0.741928
vt 0.435478 0.387144
vt 0.399447 0.386134
vt 0.400355 0.360758
vt 0.437485 0.370099
vt 0.386921 0.385593
vt 0.387825 0.359988
vt 0.348802 0.384476
vt 0.349683 0.358398
vt 0.312810 0.383748
vt 0.313663 0.357363
vt 0.309865 0.383653
vt 0.311025 0.357122
vt 0.404192 0.281457
vt 0.388790 0.281215
vt 0.388867 0.270205
vt 0.404189 0.274075
vt 0.420165 0.281716
vt 0.420147 0.274421
vt 0.360051 0.280559
vt 0.344043 0.280303
vt 0.344516 0.270134
vt 0.360942 0.270411
vt 0.327185 0.279932
vt 0.328668 0.270475
vt 0.637074 0.279708
vt 0.627998 0.279292
vt 0.628338 0.273160
vt 0.637048 0.273531
vt 0.577948 0.276659
vt 0.567275 0.276130
vt 0.567690 0.269874
vt 0.578526 0.270572
vt 0.611189 0.347438
vt 0.586341 0.345382
vt 0.587399 0.335322
vt 0.611781 0.337707
vt 0.627077 0.359111
vt 0.611424 0.356738
vt 0.627628 0.343621
vt 0.651401 0.377058
vt 0.627231 0.375196
vt 0.651323 0.361288
vt 0.670024 0.394533
vt 0.650721 0.393504
vt 0.669487 0.378475
vt 0.240491 0.391172
vt 0.241591 0.336428
vt 0.246589 0.391444
vt 0.279322 0.392345
vt 0.244381 0.267877
vt 0.249837 0.215089
vt 0.276850 0.211961
vt 0.270055 0.267291
vt 0.396271 0.175170
vt 0.385063 0.173014
vt 0.385145 0.160762
vt 0.396309 0.169209
vt 0.385341 0.181042
vt 0.371877 0.180943
vt 0.372090 0.167596
vt 0.372154 0.193141
vt 0.358324 0.193466
vt 0.358786 0.178845
vt 0.359082 0.207768
vt 0.346902 0.209799
vt 0.347537 0.193970
vt 0.397278 0.139999
vt 0.399372 0.169925
vt 0.342626 0.209714
vt 0.342695 0.196576
vt 0.342687 0.191730
vt 0.337076 0.183188
vt 0.615292 0.305999
vt 0.615550 0.296446
vt 0.650252 0.303754
vt 0.650210 0.293634
vt 0.647030 0.307488
vt 0.647276 0.298094
vt 0.631693 0.306313
vt 0.632095 0.296831
vt 0.615786 0.288118
vt 0.654979 0.276701
vt 0.650236 0.284822
vt 0.647551 0.289901
vt 0.632448 0.288562
vt 0.616962 0.247559
vt 0.654776 0.229581
vt 0.650593 0.242100
vt 0.649031 0.250030
vt 0.634162 0.248312
vt 0.589054 0.305230
vt 0.589494 0.294779
vt 0.551835 0.290628
vt 0.556009 0.308146
vt 0.556689 0.297507
vt 0.572819 0.308246
vt 0.573378 0.297656
vt 0.547058 0.272532
vt 0.588930 0.286172
vt 0.552579 0.281122
vt 0.557276 0.288734
vt 0.572873 0.288933
vt 0.549170 0.245597
vt 0.586862 0.263777
vt 0.554480 0.256642
vt 0.558872 0.266052
vt 0.571645 0.266265
vt 0.000000 0.000000
vt 1.000000 0.000000
vt 1.000000 1.000000
vt 0.000000 1.000000
vt 0.000000 0.000000
vt 1.000000 0.000000
vt 1.000000 1.000000
vt 0.000000 1.000000
vt 0.000000 0.000000
vt 1.000000 0.000000
vt 1.000000 1.000000
vt 0.000000 1.000000
vn -0.000002 1.000000 -0.000003
vn -0.000002 1.000000 -0.000003
vn -0.000002 1.000000 -0.000003
vn -0.000002 1.000000 -0.000003
vn 0.999995 -0.002874 -0.001056
vn 0.999999 -0.000642 -0.001395
vn 0.999997 -0.001293 -0.002129
vn 0.999999 0.000474 -0.001565
vn 1.000000 0.000660 0.000071
vn 0.000004 1.000000 0.000018
vn 0.000012 1.000000 0.000014
vn 0.000012 1.000000 0.000014
vn 0.000020 1.000000 0.000010
vn 0.000000 1.000000 0.000009
vn 0.000087 1.000000 0.000027
vn 0.000087 1.000000 0.000027
vn 0.000175 1.000000 0.000046
vn 0.000028 0.020535 0.999789
vn -0.012985 0.030755 0.999443
vn -0.012985 0.030755 0.999443
vn -0.025995 0.040967 0.998822
vn 0.002875 0.999980 0.005553
vn 0.001437 0.999995 0.002777
vn 0.001437 0.999995 0.002777
vn 0.000000 1.000000 0.000000
vn -0.009150 -0.037248 0.999264
vn -0.008072 -0.037431 0.999267
vn -0.008072 -0.037431 0.999267
vn -0.006993 -0.037615 0.999268
vn 0.023060 -0.036558 0.999066
vn -0.071284 0.000805 0.997456
vn -0.019413 -0.022571 0.999557
vn -0.091700 0.007035 0.995762
vn -0.122874 0.024155 0.992128
vn -0.124298 0.025710 0.991912
vn 0.000000 1.000000 0.000000
vn 0.000000 1.000000 0.000000
vn 0.000000 1.000000 0.000000
vn 0.000000 1.000000 0.000000
vn 0.023343 -0.001940 0.999726
vn 0.011650 0.020393 0.999724
vn 0.011650 0.020393 0.999724
vn -0.000049 0.042713 0.999087
vn 0.000011 1.000000 0.000018
vn 0.000023 1.000000 0.000010
vn 0.000023 1.000000 0.000010
vn 0.000035 1.000000 0.000001
vn 0.000023 -0.002103 0.999998
vn 0.035111 -0.105677 0.993780
vn 0.035111 -0.105677 0.993780
vn 0.069777 -0.207984 0.975640
vn 0.051398 0.998674 -0.002893
vn 0.049120 0.998335 0.030237
vn 0.049120 0.998335 0.030237
vn 0.046788 0.996895 0.063333
vn 0.022040 0.997720 0.063793
vn 0.011026 0.999430 0.031914
vn 0.011026 0.999430 0.031914
vn 0.000000 1.000000 -0.000000
vn -0.132328 -0.208459 0.969038
vn -0.066372 -0.156178 0.985497
vn -0.066372 -0.156178 0.985497
vn 0.000072 -0.102749 0.994707
vn 0.000029 1.000000 0.000009
vn 0.000015 1.000000 0.000005
vn 0.000015 1.000000 0.000005
vn 0.000000 1.000000 0.000001
vn 0.000010 1.000000 0.000009
vn 0.000005 1.000000 0.000004
vn 0.000003 1.000000 0.000003
vn 0.000000 1.000000 -0.000000
vn 0.000000 1.000000 -0.000000
vn -0.000014 -0.123510 0.992343
vn 0.005979 -0.128397 0.991705
vn 0.005979 -0.128397 0.991705
vn 0.011972 -0.133276 0.991007
vn 0.083256 -0.005125 0.996515
vn 0.020239 0.082413 0.996393
vn 0.007211 0.126601 0.991927
vn 0.045866 -0.005461 0.998933
vn -0.011688 0.126276 0.991926
vn -0.151644 -0.004896 0.988423
vn -0.091037 0.083126 0.992372
vn -0.091037 0.083126 0.992372
vn -0.029388 0.170198 0.984972
vn 0.009409 -0.103158 0.994621
vn 0.004699 -0.113341 0.993545
vn 0.004699 -0.113341 0.993545
vn -0.000011 -0.123510 0.992343
vn 0.000000 1.000000 0.000000
vn 0.000000 1.000000 0.000000
vn 0.000000 1.000000 0.000000
vn 0.000000 1.000000 0.000000
vn 0.000000 1.000000 0.000009
vn 0.000000 1.000000 0.000009
vn 0.000000 1.000000 0.000009
vn -0.000062 -0.000010 1.000000
vn 0.000425 0.000269 1.000000
vn 0.000425 0.000269 1.000000
vn 0.000912 0.000547 1.000000
vn 0.000002 0.999999 0.001766
vn 0.000321 0.999999 0.001648
vn 0.000321 0.999999 0.001648
vn 0.000641 0.999999 0.001529
vn 0.031756 -0.009937 0.999446
vn 0.019194 -0.003747 0.999809
vn 0.019194 -0.003747 0.999809
vn 0.006629 0.002444 0.999975
vn 0.003572 0.999964 0.007693
vn 0.000011 0.999981 0.006203
vn 0.000011 0.999981 0.006203
vn -0.003550 0.999983 0.004713
vn -0.042783 -0.113694 0.992594
vn -0.019040 -0.102759 0.994524
vn -0.019040 -0.102759 0.994524
vn 0.004716 -0.091753 0.995771
vn 0.000014 0.898542 0.438887
vn -0.000732 0.898765 0.438430
vn -0.000732 0.898765 0.438430
vn -0.001479 0.898987 0.437973
vn 0.999997 0.001604 -0.001638
vn 0.999997 0.001761 -0.001455
vn 0.999997 0.001761 -0.001455
vn 0.999997 0.001918 -0.001273
vn 0.999877 0.014070 0.006946
vn 0.999957 0.008426 0.003973
vn 0.999957 0.008426 0.003973
vn 0.999996 0.002781 0.000999
vn 0.000001 1.000000 0.000166
vn -0.000000 1.000000 0.000166
vn -0.000000 1.000000 0.000166
vn -0.000001 1.000000 0.000165
vn 0.999998 -0.000174 0.002082
vn 0.999999 0.001155 0.001245
vn 0.999999 0.001155 0.001245
vn 0.999997 0.002485 0.000409
vn 0.999999 -0.000232 0.001097
vn 0.999999 -0.000232 0.001097
vn 0.999999 -0.000232 0.001097
vn 0.999998 0.001825 0.001146
vn 0.999997 0.001038 0.002328
vn 0.999998 0.001373 0.001332
vn 0.999991 0.000367 0.004319
vn 0.999996 0.000644 0.002918
vn -0.001698 0.852510 0.522708
vn -0.000669 0.851899 0.523705
vn -0.000669 0.851899 0.523705
vn 0.000361 0.851286 0.524701
vn 1.000000 0.000950 -0.000394
vn 1.000000 0.000930 -0.000441
vn 1.000000 0.000930 -0.000441
vn 1.000000 0.000911 -0.000487
vn -0.007111 0.063143 0.997979
vn -0.014085 0.045905 0.998847
vn -0.014085 0.045905 0.998847
vn -0.021053 0.028651 0.999368
vn 0.046267 0.027140 0.998560
vn 0.019652 0.087165 0.996000
vn 0.019652 0.087165 0.996000
vn -0.007048 0.146813 0.989139
vn 0.000018 0.090419 0.995904
vn -0.003687 0.093732 0.995591
vn -0.003687 0.093732 0.995591
vn -0.007391 0.097043 0.995253
vn 0.000000 1.000000 0.000009
vn 0.000855 1.000000 -0.000218
vn 0.000855 1.000000 -0.000218
vn 0.001710 0.999998 -0.000446
vn 0.144816 0.217546 0.965247
vn 0.015950 0.162014 0.986660
vn 0.015950 0.162014 0.986660
vn -0.113238 0.103218 0.988192
vn -0.681610 0.065344 0.728792
vn -0.887809 0.050378 0.457447
vn -0.949420 0.051064 0.309830
vn -0.991737 0.028277 0.125133
vn -0.985274 0.050514 0.163351
vn -0.975149 0.073888 0.208867
vn -0.000002 1.000000 0.000008
vn -0.000007 1.000000 0.000004
vn -0.000007 1.000000 0.000004
vn -0.000012 1.000000 -0.000000
vn 0.000028 -0.133574 0.991039
vn -0.041879 -0.036528 0.998455
vn -0.041879 -0.036528 0.998455
vn -0.083315 0.060929 0.994659
vn 0.000000 1.000000 0.000007
vn 0.000000 1.000000 0.000007
vn 0.000000 1.000000 0.000007
vn -0.000000 1.000000 0.000008
vn 0.000020 0.061384 0.998114
vn -0.004026 0.062020 0.998067
vn -0.004026 0.062020 0.998067
vn -0.008072 0.062656 0.998003
vn 0.166896 -0.129815 0.977391
vn 0.198091 -0.054258 0.978681
vn 0.198091 -0.054258 0.978681
vn 0.227962 0.021662 0.973429
vn 0.220744 -0.124218 0.967389
vn 0.206315 -0.085087 0.974779
vn 0.187138 -0.063714 0.980265
vn 0.148337 -0.020843 0.988717
vn 0.169981 -0.033334 0.984883
vn 0.082502 0.094101 0.992138
vn 0.136079 -0.005339 0.990684
vn 0.136079 -0.005339 0.990684
vn 0.187919 -0.104710 0.976587
vn 0.000000 1.000000 0.000000
vn 0.000000 1.000000 0.000000
vn 0.000000 1.000000 0.000000
vn 0.000000 1.000000 0.000000
vn 0.084361 0.746566 0.659941
vn 0.036352 0.934781 0.353359
vn 0.036352 0.934781 0.353359
vn -0.016445 0.999865 0.000231
vn -0.582711 0.608094 0.539138
vn -0.308914 0.688880 0.655756
vn -0.308914 0.688880 0.655756
vn -0.005743 0.704161 0.710018
vn -0.149554 0.040574 0.987921
vn -0.129572 0.046609 0.990474
vn -0.129572 0.046609 0.990474
vn -0.109532 0.052623 0.992589
vn 0.209003 0.021380 0.977681
vn 0.182286 0.029038 0.982817
vn 0.182286 0.029038 0.982817
vn 0.155424 0.036673 0.987167
vn 0.000000 1.000000 0.000008
vn -0.000001 1.000000 0.000008
vn -0.000001 1.000000 0.000008
vn -0.000003 1.000000 0.000009
vn 0.000020 0.062792 0.998027
vn -0.008011 0.076428 0.997043
vn -0.008011 0.076428 0.997043
vn -0.016039 0.090045 0.995809
vn 0.015027 0.932688 0.360371
vn -0.020017 0.982675 0.184252
vn -0.020017 0.982675 0.184252
vn -0.054366 0.998520 0.001730
vn -0.000044 0.979840 0.199783
vn 0.133711 0.835038 0.533697
vn 0.133711 0.835038 0.533697
vn 0.247363 0.564683 0.787366
vn -0.000730 0.859140 0.511741
vn -0.000147 0.858998 0.511979
vn -0.000147 0.858998 0.511979
vn 0.000436 0.858855 0.512218
vn -0.000008 0.000079 1.000000
vn 0.000278 0.000314 1.000000
vn 0.000278 0.000314 1.000000
vn 0.000564 0.000549 1.000000
vn -0.004498 0.999985 -0.003019
vn -0.002570 0.999988 -0.004062
vn -0.002570 0.999988 -0.004062
vn -0.000643 0.999987 -0.005105
vn -0.000003 0.860491 0.509466
vn -0.000365 0.860312 0.509767
vn -0.000365 0.860312 0.509767
vn -0.000727 0.860134 0.510068
vn -0.999078 0.042905 0.001173
vn -0.999686 0.024973 0.002261
vn -0.999686 0.024973 0.002261
vn -0.999970 0.007032 0.003349
vn 0.000954 0.001012 0.999999
vn 0.000451 0.000767 1.000000
vn 0.000451 0.000767 1.000000
vn -0.000052 0.000522 1.000000
vn 0.000002 1.000000 -0.000021
vn 0.000001 1.000000 -0.000021
vn 0.000001 1.000000 -0.000021
vn 0.000001 1.000000 -0.000021
vn -0.000102 -0.000389 1.000000
vn -0.000343 -0.000506 1.000000
vn -0.000343 -0.000506 1.000000
vn -0.000584 -0.000624 1.000000
vn -0.000383 1.000000 -0.000522
vn -0.000200 1.000000 -0.000581
vn -0.000200 1.000000 -0.000581
vn -0.000017 1.000000 -0.000641
vn -0.999994 0.002684 0.002199
vn -0.999993 0.003456 0.001702
vn -0.999993 0.003456 0.001702
vn -0.999990 0.004227 0.001204
vn -0.999996 0.002506 0.001179
vn -0.999996 0.002696 0.001069
vn -0.999996 0.002696 0.001069
vn -0.999995 0.002885 0.000960
vn -0.999069 0.042953 0.004130
vn -0.999511 0.031136 0.002791
vn -0.999511 0.031136 0.002791
vn -0.999812 0.019315 0.001450
vn -0.999994 0.003168 0.001182
vn -0.999995 0.002824 0.001354
vn -0.999995 0.002824 0.001354
vn -0.999996 0.002480 0.001526
vn 0.000973 0.990293 -0.138996
vn -0.001137 0.990181 -0.139789
vn -0.001137 0.990181 -0.139789
vn -0.003248 0.990064 -0.140581
vn -0.002874 0.990058 -0.140628
vn -0.019105 0.988043 -0.152993
vn -0.019105 0.988043 -0.152993
vn -0.035329 0.985612 -0.165293
vn -0.028286 0.985556 -0.166970
vn -0.005684 0.994348 -0.106015
vn -0.005684 0.994348 -0.106015
vn 0.016941 0.998861 -0.044605
vn -0.030789 0.999518 0.004029
vn -0.030789 0.999518 0.004029
vn -0.030789 0.999518 0.004029
vn 0.014422 0.997669 -0.066706
vn 0.014422 0.997669 -0.066706
vn 0.014422 0.997669 -0.066706
vn 0.056322 0.997046 -0.052220
vn 0.025167 0.993248 -0.113249
vn 0.025167 0.993248 -0.113249
vn -0.006106 0.984772 -0.173744
vn -0.023799 0.988223 -0.151156
vn -0.023799 0.988223 -0.151156
vn -0.023799 0.988223 -0.151156
vn -0.179428 0.975690 -0.125839
vn -0.090457 0.993149 -0.073979
vn -0.090457 0.993149 -0.073979
vn -0.000499 0.999773 -0.021313
vn -0.118432 0.990019 0.076401
vn -0.050434 0.998226 0.031647
vn -0.050434 0.998226 0.031647
vn 0.017901 0.999751 -0.013318
vn 0.020635 0.981300 -0.191376
vn 0.182690 0.976572 -0.113721
vn 0.182690 0.976572 -0.113721
vn 0.338840 0.940286 -0.032391
vn 0.355923 0.922634 -0.148540
vn 0.300201 0.945651 -0.124992
vn 0.300201 0.945651 -0.124992
vn 0.243220 0.964707 -0.100921
vn 0.246745 0.968343 -0.037791
vn 0.224135 0.974543 -0.005490
vn 0.224135 0.974543 -0.005490
vn 0.201167 0.979190 0.026819
vn -0.242990 0.969488 -0.032394
vn -0.414233 0.892442 0.178770
vn -0.414233 0.892442 0.178770
vn -0.552400 0.744134 0.375659
vn -0.018363 0.990741 -0.134518
vn -0.133373 0.987226 -0.087153
vn -0.133373 0.987226 -0.087153
vn -0.246318 0.968426 -0.038438
vn -0.043755 0.980341 -0.192399
vn -0.032160 0.979219 -0.200237
vn -0.032160 0.979219 -0.200237
vn -0.020559 0.977905 -0.208036
vn -0.036220 0.999342 -0.002114
vn -0.017721 0.999820 0.006820
vn -0.017721 0.999820 0.006820
vn 0.000786 0.999876 0.015752
vn -0.001059 0.999775 -0.021206
vn 0.000304 0.999789 -0.020533
vn 0.000304 0.999789 -0.020533
vn 0.001668 0.999801 -0.019859
vn -0.906712 0.421194 0.021642
vn -0.934994 0.353897 -0.023312
vn -0.934994 0.353897 -0.023312
vn -0.956404 0.283999 -0.068095
vn -0.977412 0.165104 0.131930
vn -0.931581 0.347100 0.108064
vn -0.931581 0.347100 0.108064
vn -0.852406 0.516673 0.080331
vn -0.886200 0.462424 -0.028524
vn -0.886822 0.461202 -0.028986
vn -0.886822 0.461202 -0.028986
vn -0.887441 0.459979 -0.029447
vn -0.889226 0.457467 -0.000512
vn -0.867730 0.496579 0.021333
vn -0.867730 0.496579 0.021333
vn -0.844090 0.534464 0.043125
vn -0.843708 0.533293 0.061283
vn -0.833346 0.547589 0.075370
vn -0.833346 0.547589 0.075370
vn -0.822559 0.561606 0.089417
vn 0.053891 0.997525 -0.045165
vn 0.073276 0.995809 -0.054736
vn 0.073276 0.995809 -0.054736
vn 0.092625 0.993624 -0.064282
vn 0.066523 0.989634 -0.127276
vn 0.069830 0.989206 -0.128822
vn 0.069830 0.989206 -0.128822
vn 0.073136 0.988765 -0.130367
vn 0.059449 0.972737 -0.224163
vn -0.228585 0.969563 -0.087730
vn -0.228585 0.969563 -0.087730
vn -0.493397 0.867894 0.057614
vn -0.498709 0.866276 0.029240
vn -0.349221 0.927366 0.134299
vn -0.349221 0.927366 0.134299
vn -0.186772 0.954036 0.234374
vn -0.062737 0.997965 -0.011442
vn -0.032079 0.999456 0.007676
vn -0.032079 0.999456 0.007676
vn -0.001380 0.999640 0.026783
vn 0.000435 0.999938 -0.011092
vn -0.115597 0.992274 -0.045057
vn -0.115597 0.992274 -0.045057
vn -0.229932 0.970047 -0.078361
vn -0.264190 0.964234 0.021369
vn -0.308600 0.949270 -0.060442
vn -0.308600 0.949270 -0.060442
vn -0.350267 0.925867 -0.141716
vn -0.399552 0.914883 0.057853
vn -0.396327 0.916078 0.061045
vn -0.396327 0.916078 0.061045
vn -0.393094 0.917252 0.064237
vn -0.375144 0.924052 -0.073449
vn -0.218888 0.975731 0.006124
vn -0.218888 0.975731 0.006124
vn -0.055318 0.994802 0.085493
vn -0.046943 0.997630 -0.050297
vn -0.026518 0.998800 -0.041175
vn -0.026518 0.998800 -0.041175
vn -0.006081 0.999468 -0.032032
vn -0.999626 -0.026902 -0.004892
vn -0.999737 -0.022664 -0.003450
vn -0.999660 -0.025958 -0.002588
vn -0.999857 -0.016074 -0.005176
vn -0.999785 -0.020544 -0.002729
vn -0.999777 0.013760 -0.015993
vn -0.999812 0.015985 -0.010998
vn -0.999812 0.015985 -0.010998
vn -0.999816 0.018210 -0.006002
vn -0.000006 -0.000006 1.000000
vn 0.000018 0.000028 1.000000
vn 0.000018 0.000028 1.000000
vn 0.000041 0.000061 1.000000
vn 0.000008 1.000000 0.000023
vn 0.000007 1.000000 0.000023
vn 0.000007 1.000000 0.000023
vn 0.000007 1.000000 0.000023
vn -0.000000 1.000000 0.000023
vn -0.000005 1.000000 0.000021
vn -0.000000 1.000000 0.000023
vn -0.000007 1.000000 0.000020
vn -0.000014 1.000000 0.000017
vn -0.000015 0.000061 1.000000
vn -0.000015 0.000061 1.000000
vn -0.000015 0.000061 1.000000
vn -0.000015 0.000061 1.000000
vn 0.999998 -0.002063 -0.000842
vn 1.000000 -0.000394 -0.000564
vn 1.000000 -0.000394 -0.000564
vn 0.999999 0.001276 -0.000286
vn 0.006183 -0.099852 0.994983
vn 0.007385 -0.103763 0.994575
vn 0.007385 -0.103763 0.994575
vn 0.008587 -0.107673 0.994149
vn 0.654706 -0.755884 0.000240
vn 0.652380 -0.757890 -0.001744
vn 0.652380 -0.757890 -0.001744
vn 0.650046 -0.759886 -0.003728
vn 0.006267 -0.003165 0.999975
vn 0.006336 -0.003218 0.999975
vn 0.006336 -0.003218 0.999975
vn 0.006405 -0.003272 0.999974
vn 0.999991 -0.000320 -0.004248
vn 0.999995 0.000625 -0.003175
vn 0.999995 0.000625 -0.003175
vn 0.999997 0.001570 -0.002103
vn 0.006437 -0.002284 0.999977
vn 0.002337 -0.001274 0.999997
vn 0.002337 -0.001274 0.999997
vn -0.001764 -0.000264 0.999998
vn 0.000025 0.000022 1.000000
vn 0.000034 0.000035 1.000000
vn 0.000034 0.000035 1.000000
vn 0.000043 0.000048 1.000000
vn -0.000007 1.000000 0.000011
vn -0.000003 1.000000 0.000012
vn -0.000003 1.000000 0.000012
vn 0.000002 1.000000 0.000013
vn -0.999998 0.001743 -0.000383
vn -1.000000 0.000818 -0.000241
vn -1.000000 0.000818 -0.000241
vn -1.000000 -0.000108 -0.000098
vn 0.000022 0.000049 1.000000
vn 0.000001 0.000020 1.000000
vn 0.000001 0.000020 1.000000
vn -0.000020 -0.000008 1.000000
vn 0.000002 1.000000 0.000012
vn 0.000003 1.000000 0.000011
vn 0.000004 1.000000 0.000011
vn 0.000005 1.000000 0.000011
vn 0.000005 1.000000 0.000011
vn -0.000165 -0.560046 0.828462
vn 0.012947 -0.530074 0.847853
vn 0.012947 -0.530074 0.847853
vn 0.026039 -0.499336 0.866017
vn -0.000200 0.000076 1.000000
vn 0.000250 -0.000314 1.000000
vn 0.000250 -0.000314 1.000000
vn 0.000700 -0.000703 1.000000
vn -1.000000 -0.000199 -0.000799
vn -1.000000 -0.000092 -0.000966
vn -1.000000 -0.000092 -0.000966
vn -0.999999 0.000014 -0.001133
vn 0.000744 0.000229 1.000000
vn 0.000726 0.000234 1.000000
vn 0.000726 0.000234 1.000000
vn 0.000707 0.000239 1.000000
vn -0.999999 -0.000267 -0.001225
vn -0.999999 -0.000306 -0.001028
vn -0.999999 -0.000306 -0.001028
vn -1.000000 -0.000344 -0.000831
vn 0.999998 0.000180 -0.002162
vn 1.000000 0.000781 -0.000114
vn 1.000000 0.000781 -0.000114
vn 0.999997 0.001382 0.001935
vn -0.780774 -0.624794 -0.004957
vn -0.780774 -0.624794 -0.004957
vn -0.780774 -0.624794 -0.004957
vn -0.741262 -0.668919 -0.055475
vn -0.741262 -0.668919 -0.055475
vn -0.741262 -0.668919 -0.055475
vn -1.000000 -0.000001 -0.000132
vn -1.000000 -0.000034 -0.000122
vn -1.000000 -0.000034 -0.000122
vn -1.000000 -0.000066 -0.000112
vn -1.000000 -0.000060 0.000073
vn -1.000000 -0.000060 0.000073
vn -1.000000 -0.000060 0.000073
vn -1.000000 0.000025 0.000056
vn -1.000000 0.000025 0.000056
vn -1.000000 0.000025 0.000056
vn 0.627767 -0.760231 -0.167205
vn 0.706546 -0.704928 -0.062198
vn 0.706546 -0.704928 -0.062198
vn 0.770989 -0.635321 0.044072
vn 0.999217 0.018379 -0.035034
vn 0.999925 -0.012189 -0.000770
vn 0.999925 -0.012189 -0.000770
vn 0.998525 -0.042730 0.033495
vn 0.999345 -0.001907 -0.036144
vn 0.999322 -0.001728 -0.036780
vn 0.999322 -0.001728 -0.036780
vn 0.999299 -0.001550 -0.037415
vn 0.807691 0.589046 -0.025700
vn 0.807691 0.589046 -0.025700
vn 0.807691 0.589046 -0.025700
vn 0.933948 -0.041909 0.354943
vn 0.953595 -0.047682 0.297294
vn 0.953595 -0.047682 0.297294
vn 0.969672 -0.053277 0.238532
vn -0.165888 0.985300 -0.040807
vn -0.091415 0.990037 -0.107096
vn -0.091415 0.990037 -0.107096
vn -0.016032 0.984911 -0.172319
vn 0.999994 -0.003438 -0.000247
vn 0.999994 -0.003438 -0.000247
vn 0.999994 -0.003438 -0.000247
vn 0.999998 -0.001941 -0.000229
vn 0.999998 -0.001935 -0.000227
vn 0.999998 -0.001935 -0.000227
vn 0.999998 -0.001930 -0.000225
vn 0.999998 -0.001775 -0.000666
vn 0.999998 -0.001799 -0.000666
vn 0.999402 0.032967 0.010439
vn -0.025256 -0.124072 0.991952
vn 0.029494 -0.030841 0.999089
vn 0.029494 -0.030841 0.999089
vn 0.083898 0.062752 0.994497
vn -0.151538 -0.037801 0.987728
vn -0.088915 0.054834 0.994529
vn -0.088915 0.054834 0.994529
vn -0.025177 0.146780 0.988849
vn 0.000000 1.000000 0.000000
vn 0.000000 1.000000 0.000000
vn 0.000000 1.000000 0.000000
vn -0.112153 0.171353 0.978805
vn -0.539743 0.200827 0.817524
vn -0.539743 0.200827 0.817524
vn -0.854141 0.188184 0.484798
vn -0.870954 -0.001321 0.491363
vn -0.870317 -0.001230 0.492490
vn -0.870317 -0.001230 0.492490
vn -0.869679 -0.001140 0.493617
vn -0.870612 -0.040699 0.490284
vn -0.822745 -0.063623 0.564839
vn -0.822745 -0.063623 0.564839
vn -0.767987 -0.086015 0.634664
vn 0.811336 0.582765 -0.046041
vn 0.811336 0.582765 -0.046041
vn 0.811336 0.582765 -0.046041
vn -0.053630 0.997868 -0.037182
vn -0.053630 0.997868 -0.037182
vn -0.053630 0.997868 -0.037182
vn -0.005580 0.995752 0.091911
vn -0.005580 0.995752 0.091911
vn -0.005580 0.995752 0.091911
vn -0.003034 0.993735 -0.111718
vn -0.003034 0.993735 -0.111718
vn -0.003034 0.993735 -0.111718
vn 0.000324 0.812298 0.583243
vn 0.000336 0.812311 0.583225
vn 0.000336 0.812311 0.583225
vn 0.000349 0.812323 0.583207
vn 0.000001 1.000000 0.000001
vn 0.000001 1.000000 0.000000
vn 0.000001 1.000000 0.000000
vn 0.000001 1.000000 0.000000
vn 0.999991 0.002466 0.003465
vn 0.999988 0.003545 0.003309
vn 0.999988 0.003545 0.003309
vn 0.999984 0.004625 0.003152
vn 0.000014 0.459528 -0.888163
vn 0.063902 0.349321 -0.934822
vn 0.063902 0.349321 -0.934822
vn 0.126614 0.232686 -0.964275
vn 0.000029 0.234574 -0.972098
vn -0.031165 0.249534 -0.967864
vn -0.031165 0.249534 -0.967864
vn -0.062322 0.264192 -0.962455
vn 0.000003 0.264706 -0.964329
vn -0.000038 0.264775 -0.964310
vn -0.000038 0.264775 -0.964310
vn -0.000080 0.264845 -0.964291
vn -0.000022 0.210373 -0.977621
vn 0.020581 0.237640 -0.971135
vn 0.020581 0.237640 -0.971135
vn 0.041160 0.264620 -0.963474
vn 0.000006 0.210373 -0.977621
vn -0.126679 0.222099 -0.966760
vn -0.126679 0.222099 -0.966760
vn -0.251299 0.230203 -0.940136
vn 0.019998 0.000000 -0.999800
vn -0.011359 0.067181 -0.997676
vn -0.011359 0.067181 -0.997676
vn -0.042654 0.133993 -0.990064
vn 0.003299 0.064970 -0.997882
vn 0.017742 0.032505 -0.999314
vn 0.017742 0.032505 -0.999314
vn 0.032163 0.000000 -0.999483
vn 0.015399 0.000000 -0.999881
vn -0.016740 0.001837 -0.999858
vn 0.011617 -0.006270 -0.999913
vn 0.007785 -0.003830 -0.999962
vn -0.036919 0.050722 -0.998030
vn -0.061996 0.019297 -0.997890
vn -0.052313 0.025372 -0.998308
vn 0.009247 0.015231 -0.999841
vn 0.005508 0.021616 -0.999751
vn 0.005508 0.021616 -0.999751
vn 0.001769 0.028000 -0.999606
vn -0.000916 0.112524 -0.993649
vn -0.005547 0.103821 -0.994581
vn -0.005547 0.103821 -0.994581
vn -0.010177 0.095108 -0.995415
vn 1.000000 -0.000055 -0.000230
vn 1.000000 -0.000024 -0.000241
vn 1.000000 -0.000024 -0.000241
vn 1.000000 0.000008 -0.000251
vn 0.999997 -0.002266 -0.001356
vn 0.999999 -0.001134 -0.000618
vn 0.999999 -0.001134 -0.000618
vn 1.000000 -0.000002 0.000119
vn 1.000000 -0.000051 -0.000091
vn 1.000000 -0.000758 0.000343
vn 1.000000 -0.000758 0.000343
vn 0.999999 -0.001466 0.000778
vn 1.000000 0.000000 -0.000586
vn 1.000000 -0.000185 -0.000475
vn 1.000000 -0.000185 -0.000475
vn 1.000000 -0.000369 -0.000365
vn 1.000000 -0.000045 -0.000348
vn 1.000000 -0.000045 -0.000348
vn 1.000000 -0.000045 -0.000348
vn 1.000000 -0.000025 0.000127
vn 1.000000 -0.000025 0.000127
vn 1.000000 -0.000025 0.000127
vn 1.000000 0.000000 0.000865
vn 1.000000 0.000000 0.000865
vn 1.000000 0.000000 0.000865
vn 0.992050 -0.009946 -0.125451
vn 0.992050 -0.009946 -0.125451
vn 0.992050 -0.009946 -0.125451
vn 0.999999 -0.001682 -0.000246
vn 0.999999 -0.001682 -0.000246
vn 0.999999 -0.001682 -0.000246
vn -0.026242 0.000000 -0.999656
vn -0.045307 -0.010225 -0.998921
vn -0.045307 -0.010225 -0.998921
vn -0.064350 -0.020446 -0.997718
vn 0.000044 0.000656 1.000000
vn 0.000044 0.000656 1.000000
vn 0.000044 0.000656 1.000000
vn -1.000000 -0.000000 -0.000000
vn -1.000000 -0.000000 0.000000
vn -1.000000 -0.000000 0.000000
vn -1.000000 0.000000 0.000000
vn -1.000000 0.000000 0.000000
vn -1.000000 0.000000 0.000000
vn -1.000000 0.000000 0.000000
vn -1.000000 0.000000 0.000000
vn -1.000000 0.000000 0.000000
vn -1.000000 0.000000 0.000000
vn -1.000000 0.000000 0.000000
vn -1.000000 0.000000 0.000000
vn -1.000000 -0.000000 0.000000
vn -1.000000 -0.000000 0.000000
vn -1.000000 -0.000000 0.000000
vn -1.000000 0.000000 0.000000
vn -1.000000 0.000000 0.000000
vn -1.000000 0.000000 0.000000
vn -1.000000 0.000000 0.000000
vn -1.000000 -0.000000 0.000000
vn -1.000000 -0.000000 0.000000
vn -1.000000 -0.000000 0.000000
vn -1.000000 0.000000 0.000000
vn -1.000000 0.000000 0.000000
vn -1.000000 0.000000 0.000000
vn -1.000000 0.000000 -0.000001
vn -1.000000 0.000000 -0.000001
vn -1.000000 0.000000 -0.000001
vn -1.000000 0.000000 0.000000
vn 0.007192 -0.031531 -0.999477
vn 0.032417 -0.015773 -0.999350
vn 0.032417 -0.015773 -0.999350
vn 0.057612 0.000000 -0.998339
vn 0.039979 0.059810 -0.997409
vn 0.039979 0.059810 -0.997409
vn 0.039979 0.059810 -0.997409
vn 0.027000 0.022667 -0.999379
vn 0.027000 0.022667 -0.999379
vn 0.027000 0.022667 -0.999379
vn 0.999170 0.034966 0.020918
vn 0.998357 0.046141 0.033991
vn 0.005546 0.009057 -0.999944
vn -0.040862 0.013465 -0.999074
vn -0.075251 0.019156 -0.996981
vn 0.999365 0.022681 0.027489
vn 0.998621 0.031149 0.042261
vn -0.000112 0.013106 -0.999914
vn -0.049538 0.015014 -0.998659
vn -0.078237 0.017067 -0.996789
vn 0.999702 0.023001 0.008135
vn 0.999296 0.026938 0.026132
vn 0.999738 0.018049 0.014056
vn 0.998150 0.034909 0.049790
vn -0.034405 0.013392 -0.999318
vn -0.011673 0.010119 -0.999881
vn -0.087378 0.016587 -0.996037
vn -0.071846 0.000000 -0.997416
vn -0.071846 0.000000 -0.997416
vn -0.030282 -0.002151 -0.999539
vn -0.072074 0.000935 -0.997399
vn 0.032163 0.000000 -0.999483
vn 0.032163 0.000000 -0.999483
vn 0.038398 0.005400 -0.999248
vn -0.999998 0.002060 0.000189
vn -1.000000 0.000515 0.000436
vn -0.999999 0.001012 0.000380
vn -1.000000 0.000135 0.000248
vn -0.011663 0.003747 -0.999925
vn -0.069263 0.002078 -0.997596
vn 0.084199 0.020838 -0.996231
vn -1.000000 0.000395 0.000016
vn -1.000000 0.000330 0.000035
vn -1.000000 0.000130 0.000175
vn -1.000000 0.000024 0.000262
vn 0.015068 0.008419 -0.999851
vn -0.063303 -0.002104 -0.997992
vn 0.138033 0.037610 -0.989713
vn -0.628161 -0.777774 -0.021947
vn -0.628161 -0.777774 -0.021947
vn -0.628161 -0.777774 -0.021947
vn -0.628161 -0.777774 -0.021947
vn -0.999376 -0.005301 -0.034916
vn -0.999376 -0.005302 -0.034916
vn -0.999376 -0.005302 -0.034916
vn -0.999376 -0.005302 -0.034916
vn -0.999368 0.006605 -0.034916
vn -0.999368 0.006606 -0.034916
vn -0.999368 0.006606 -0.034916
vn -0.999368 0.006606 -0.034916
f 216/245/1 2/207/2 215/250/3
f 215/250/3 2/207/2 3/3/4
f 2/2/5 216/246/6 6/6/7
f 6/6/7 216/246/6 55/5/8
f 216/246/6 54/1/9 55/5/8
f 1/7/10 4/8/11 8/10/12
f 8/10/12 4/8/11 7/9/13
f 7/9/14 36/11/15 10/13/16
f 10/13/16 36/11/15 9/12/17
f 10/13/18 11/14/19 7/9/20
f 7/9/20 11/14/19 12/15/21
f 11/14/22 13/16/23 12/15/24
f 12/15/24 13/16/23 14/17/25
f 13/16/26 15/18/27 14/17/28
f 14/17/28 15/18/27 16/19/29
f 14/17/30 16/19/31 18/23/32
f 18/23/32 16/19/31 56/22/33
f 56/22/33 16/19/31 59/21/34
f 16/19/31 17/20/35 59/21/34
f 18/23/36 19/24/37 14/17/38
f 14/17/38 19/24/37 12/15/39
f 19/24/40 8/10/41 12/15/42
f 12/15/42 8/10/41 7/9/43
f 8/10/44 20/25/45 1/7/46
f 1/7/46 20/25/45 21/26/47
f 8/10/48 19/24/49 20/25/50
f 20/25/50 19/24/49 22/27/51
f 18/23/52 23/28/53 19/24/54
f 19/24/54 23/28/53 22/27/55
f 22/27/56 23/28/57 25/30/58
f 25/30/58 23/28/57 24/29/59
f 22/27/60 25/30/61 20/25/62
f 20/25/62 25/30/61 26/31/63
f 26/31/64 27/32/65 20/25/66
f 20/25/66 27/32/65 21/26/67
f 27/32/68 26/31/69 29/35/70
f 26/31/69 34/33/71 29/35/70
f 34/33/71 28/34/72 29/35/70
f 34/33/73 35/36/74 28/34/75
f 28/34/75 35/36/74 30/37/76
f 18/23/77 56/22/78 23/28/79
f 57/38/80 24/29/81 56/22/78
f 23/28/79 56/22/78 24/29/81
f 57/38/82 73/43/83 24/29/84
f 24/29/84 73/43/83 33/44/85
f 25/30/86 35/36/87 26/31/88
f 26/31/88 35/36/87 34/33/89
f 24/29/90 33/44/91 25/30/92
f 25/30/92 33/44/91 35/36/93
f 7/9/94 4/8/95 36/11/96
f 9/12/97 36/11/98 38/46/99
f 38/46/99 36/11/98 37/45/100
f 38/46/101 37/45/102 40/48/103
f 40/48/103 37/45/102 39/47/104
f 39/47/105 41/49/106 40/48/107
f 40/48/107 41/49/106 42/50/108
f 41/49/109 43/51/110 42/50/111
f 42/50/111 43/51/110 44/52/112
f 44/52/113 43/51/114 46/54/115
f 46/54/115 43/51/114 45/53/116
f 1/7/117 48/204/118 4/8/119
f 4/8/119 48/204/118 47/56/120
f 49/57/121 48/55/122 5/58/123
f 5/58/123 48/55/122 1/205/124
f 47/56/125 39/47/126 4/8/127
f 39/47/126 37/45/128 4/8/127
f 45/53/129 50/59/130 46/54/131
f 46/54/131 50/59/130 51/60/132
f 43/51/133 52/61/134 45/53/135
f 45/53/135 52/61/134 50/59/136
f 52/61/137 215/244/138 3/252/139
f 43/51/140 41/49/141 53/4/142
f 39/47/143 47/56/144 41/49/141
f 41/49/141 47/56/144 53/4/142
f 48/204/145 54/206/146 47/56/147
f 47/56/147 54/206/146 53/4/148
f 55/5/149 54/1/150 49/57/151
f 49/57/151 54/1/150 48/55/152
f 58/39/153 59/21/154 31/40/155
f 31/40/155 59/21/154 17/20/156
f 56/22/157 59/21/158 57/38/159
f 57/38/159 59/21/158 58/39/160
f 84/62/161 85/63/162 61/65/163
f 61/65/163 85/63/162 60/64/164
f 84/62/165 61/65/166 83/67/167
f 83/67/167 61/65/166 62/66/168
f 212/241/169 77/68/170 211/240/171
f 211/240/171 77/68/170 78/69/172
f 66/75/173 64/70/174 65/74/175
f 64/70/174 74/71/176 65/74/175
f 74/71/176 75/72/177 65/74/175
f 75/72/177 63/73/178 65/74/175
f 68/76/179 67/77/180 28/34/181
f 28/34/181 67/77/180 29/35/182
f 28/34/183 30/37/184 68/76/185
f 68/76/185 30/37/184 69/78/186
f 71/79/187 70/203/188 68/76/189
f 68/76/189 70/203/188 67/77/190
f 68/76/191 69/78/192 71/79/193
f 71/79/193 69/78/192 72/81/194
f 214/243/195 63/73/196 213/242/197
f 213/242/197 63/73/196 75/72/198
f 75/72/199 74/71/200 213/242/201
f 212/241/202 213/242/201 77/68/203
f 213/242/201 74/71/200 77/68/203
f 78/69/204 77/68/205 64/70/206
f 64/70/206 77/68/205 74/71/207
f 78/69/208 30/37/209 211/240/210
f 211/240/210 30/37/209 35/36/211
f 64/70/212 69/78/213 78/69/214
f 78/69/214 69/78/213 30/37/215
f 66/75/216 72/81/217 64/70/218
f 64/70/218 72/81/217 69/78/219
f 65/74/220 79/82/221 66/75/222
f 66/75/222 79/82/221 80/83/223
f 206/231/224 207/232/225 82/85/226
f 82/85/226 207/232/225 81/84/227
f 71/79/228 84/62/229 70/203/230
f 70/203/230 84/62/229 83/67/231
f 71/79/232 72/81/233 84/62/234
f 84/62/234 72/81/233 85/63/235
f 72/81/236 66/75/237 85/63/238
f 85/63/238 66/75/237 80/83/239
f 85/63/240 206/231/241 60/64/242
f 60/64/242 206/231/241 82/85/243
f 93/87/244 217/247/245 92/202/246
f 92/202/246 217/247/245 218/248/247
f 83/67/248 62/66/249 89/91/250
f 89/91/250 62/66/249 88/90/251
f 89/91/252 88/90/253 91/93/254
f 91/93/254 88/90/253 90/92/255
f 70/203/256 83/67/257 92/202/258
f 92/202/258 83/67/257 93/87/259
f 91/93/260 93/87/261 89/91/262
f 93/87/261 83/67/263 89/91/262
f 91/93/264 90/92/265 95/95/266
f 95/95/266 90/92/265 94/94/267
f 95/95/268 94/94/269 97/97/270
f 97/97/270 94/94/269 96/96/271
f 97/97/272 96/96/273 99/99/274
f 99/99/274 96/96/273 98/98/275
f 99/99/276 98/98/277 101/101/278
f 101/101/278 98/98/277 100/100/279
f 101/101/280 102/102/281 99/99/282
f 99/99/282 102/102/281 97/97/283
f 97/97/284 103/103/285 95/95/286
f 95/95/286 103/103/285 91/93/287
f 91/93/288 103/103/289 93/87/290
f 93/87/290 103/103/289 104/104/291
f 102/102/292 105/105/293 97/97/294
f 97/97/294 105/105/293 103/103/295
f 15/18/296 106/106/297 16/19/298
f 16/19/298 106/106/297 107/107/299
f 16/19/300 107/107/301 17/20/302
f 17/20/302 107/107/301 108/108/303
f 17/20/304 108/108/305 31/40/306
f 31/40/306 108/108/305 109/109/307
f 32/41/308 109/109/309 110/110/310
f 65/74/311 110/110/312 111/111/313
f 65/74/314 111/111/315 79/82/316
f 79/82/316 111/111/315 112/112/317
f 81/84/318 207/232/319 113/113/320
f 81/84/321 113/113/322 115/115/323
f 115/115/323 113/113/322 114/114/324
f 81/84/325 115/115/326 117/117/327
f 117/117/327 115/115/326 116/116/328
f 116/116/329 118/118/330 117/117/331
f 117/117/331 118/118/330 119/119/332
f 119/119/333 118/118/334 121/121/335
f 121/121/335 118/118/334 120/120/336
f 121/121/337 120/120/338 123/123/339
f 123/123/339 120/120/338 122/122/340
f 120/120/341 124/124/342 122/122/343
f 122/122/343 124/124/342 125/125/344
f 118/118/345 126/126/346 120/120/347
f 120/120/347 126/126/346 124/124/348
f 116/116/349 127/127/350 118/118/351
f 118/118/351 127/127/350 126/126/352
f 116/116/353 115/115/354 127/127/355
f 127/127/355 115/115/354 128/128/356
f 115/115/357 114/114/358 128/128/359
f 128/128/359 114/114/358 129/129/360
f 106/106/361 15/18/362 131/131/363
f 131/131/363 15/18/362 130/130/364
f 130/130/365 15/18/366 133/133/367
f 133/133/367 15/18/366 132/132/368
f 132/132/369 134/134/370 133/133/371
f 133/133/371 134/134/370 135/135/372
f 134/134/373 136/136/374 135/135/375
f 135/135/375 136/136/374 137/137/376
f 136/136/377 138/138/378 137/137/379
f 137/137/379 138/138/378 139/139/380
f 139/139/381 140/140/382 137/137/383
f 137/137/383 140/140/382 141/141/384
f 137/137/385 141/141/386 135/135/387
f 135/135/387 141/141/386 142/142/388
f 135/135/389 142/142/390 133/133/391
f 133/133/391 142/142/390 143/143/392
f 143/143/393 144/144/394 133/133/395
f 133/133/395 144/144/394 130/130/396
f 144/144/397 145/145/398 130/130/399
f 130/130/399 145/145/398 131/131/400
f 145/145/401 144/144/402 147/147/403
f 147/147/403 144/144/402 146/146/404
f 144/144/405 143/143/406 146/146/407
f 146/146/407 143/143/406 148/148/408
f 143/143/409 142/142/410 148/148/411
f 148/148/411 142/142/410 149/149/412
f 142/142/413 141/141/414 149/149/415
f 149/149/415 141/141/414 150/150/416
f 141/141/417 140/140/418 150/150/419
f 150/150/419 140/140/418 151/151/420
f 92/86/421 218/249/422 153/153/423
f 87/201/424 152/152/425 218/249/422
f 218/249/422 152/152/425 153/153/423
f 153/153/426 154/154/427 92/86/428
f 92/86/428 154/154/427 70/80/429
f 156/200/430 157/157/431 155/155/432
f 155/155/432 157/157/431 158/158/433
f 156/200/434 159/198/435 157/157/436
f 157/157/436 159/198/435 160/160/437
f 157/157/438 160/160/439 162/162/440
f 162/162/440 160/160/439 199/215/441
f 160/160/439 161/161/442 199/215/441
f 157/157/443 162/162/444 158/158/445
f 158/158/445 162/162/444 163/163/446
f 156/156/447 155/199/448 159/159/449
f 159/159/449 155/199/448 164/164/450
f 165/165/451 166/166/452 168/168/453
f 168/168/453 166/166/452 167/167/454
f 166/166/455 165/165/456 169/169/457
f 169/169/457 165/165/456 170/170/458
f 168/168/459 171/171/460 165/165/461
f 165/165/461 171/171/460 172/172/462
f 165/165/463 172/172/464 170/170/465
f 170/170/465 172/172/464 173/173/466
f 171/171/467 174/174/468 172/172/469
f 172/172/469 174/174/468 175/175/470
f 178/230/471 179/179/472 177/177/473
f 177/177/473 179/179/472 180/180/474
f 180/180/475 181/181/476 177/177/477
f 177/177/477 181/181/476 182/182/478
f 182/228/479 183/183/480 177/229/481
f 177/229/481 183/183/480 178/178/482
f 179/179/483 184/184/484 180/180/485
f 180/180/485 184/184/484 185/185/486
f 186/186/487 181/181/488 208/236/489
f 181/181/488 180/180/490 208/236/489
f 180/180/490 185/185/491 208/236/489
f 187/187/492 188/188/493 190/190/494
f 190/190/494 188/188/493 189/189/495
f 187/187/496 191/191/497 188/188/498
f 188/188/498 191/191/497 192/192/499
f 191/193/500 187/194/501 194/208/502
f 194/208/502 187/194/501 193/197/503
f 191/191/504 195/195/505 192/192/506
f 192/192/506 195/195/505 196/196/507
f 195/209/508 191/193/509 197/210/510
f 197/210/510 191/193/509 194/208/511
f 172/172/512 175/175/513 173/173/514
f 173/173/514 175/175/513 176/176/515
f 193/197/516 187/194/517 198/211/518
f 198/211/519 187/194/520 190/219/521
f 163/212/522 162/213/523 200/216/524
f 200/216/524 162/213/523 199/214/525
f 200/216/526 199/214/527 201/217/528
f 201/217/529 199/214/530 161/218/531
f 189/220/532 188/221/533 203/223/534
f 203/223/534 188/221/533 202/222/535
f 192/224/536 204/225/537 188/221/538
f 188/221/538 204/225/537 202/222/539
f 196/226/540 205/227/541 192/224/542
f 192/224/542 205/227/541 204/225/543
f 206/231/544 85/63/545 80/83/546
f 80/83/547 79/82/548 206/231/549
f 206/231/549 79/82/548 207/232/550
f 207/232/551 79/82/552 113/113/553
f 113/113/553 79/82/552 112/112/554
f 208/233/555 210/234/556 186/235/557
f 185/237/558 184/238/559 208/233/560
f 208/233/560 184/238/559 209/239/561
f 208/233/562 209/239/563 210/234/564
f 76/42/565 58/39/566 32/41/567
f 32/41/567 58/39/566 31/40/568
f 73/43/569 57/38/570 76/42/571
f 76/42/571 57/38/570 58/39/572
f 33/44/573 211/240/574 35/36/575
f 33/44/576 73/43/577 211/240/578
f 211/240/578 73/43/577 212/241/579
f 76/42/580 213/242/581 73/43/582
f 73/43/582 213/242/581 212/241/583
f 76/42/584 32/41/585 213/242/586
f 213/242/586 32/41/585 214/243/587
f 110/110/588 214/243/589 32/41/590
f 32/41/591 31/40/592 109/109/593
f 63/73/594 214/243/595 65/74/596
f 65/74/597 214/243/598 110/110/599
f 216/251/600 215/244/601 54/206/602
f 54/206/602 215/244/601 53/4/603
f 218/254/604 217/253/605 87/89/606
f 87/89/606 217/253/605 86/88/607
f 53/4/608 215/244/609 43/51/610
f 43/51/610 215/244/609 52/61/611
f 1/255/612 21/256/613 5/258/614
f 5/258/614 21/256/613 219/257/615
f 21/256/616 27/259/617 219/257/618
f 219/257/618 27/259/617 220/260/619
f 27/259/620 29/261/621 220/260/622
f 220/260/622 29/261/621 221/262/623
f 67/263/624 222/264/625 29/261/626
f 29/261/626 222/264/625 221/262/627
f 67/263/628 70/265/629 222/264/630
f 222/264/630 70/265/629 154/266/631
f 160/267/632 159/268/633 223/270/634
f 223/270/634 159/268/633 164/269/635
f 161/271/636 160/267/637 201/272/638
f 201/272/638 160/267/637 223/270/639
f 181/274/640 224/275/641 182/273/642
f 182/273/642 224/275/641 183/276/643
f 186/277/644 210/278/645 181/274/646
f 181/274/646 210/278/645 224/275/641
f 3/279/647 2/280/648 225/282/649
f 225/282/649 2/280/648 6/281/650
f 86/284/651 226/285/652 87/283/653
f 87/283/653 226/285/652 152/286/654
f 62/287/655 61/288/656 227/290/657
f 227/290/657 61/288/656 60/289/658
f 88/292/659 62/287/660 90/291/661
f 90/291/661 62/287/660 228/293/662
f 96/294/663 94/295/664 229/296/665
f 229/296/665 94/295/664 90/291/666
f 100/297/667 98/298/668 230/299/669
f 230/299/669 98/298/668 96/294/670
f 96/294/671 229/296/672 230/299/673
f 62/287/674 227/290/675 228/293/676
f 90/291/677 228/293/678 229/296/679
f 82/300/680 81/301/681 60/302/682
f 60/302/683 81/301/684 227/303/685
f 100/304/686 230/305/687 101/307/688
f 101/307/688 230/305/687 102/306/689
f 4/8/690 37/45/691 36/11/692
f 10/308/693 9/309/694 11/311/695
f 11/311/695 9/309/694 231/310/696
f 38/312/697 40/313/698 9/309/699
f 9/309/699 40/313/698 232/314/700
f 44/316/701 233/317/702 42/315/703
f 42/315/703 233/317/702 40/313/704
f 46/318/705 51/319/706 44/316/707
f 44/316/707 51/319/706 234/320/708
f 44/316/709 234/320/710 233/317/711
f 40/313/712 233/317/713 232/314/714
f 9/309/715 232/314/716 231/310/717
f 13/322/718 11/311/719 15/321/720
f 11/311/719 231/310/721 15/321/720
f 50/323/722 52/324/723 51/319/724
f 51/319/724 52/324/723 234/320/725
f 52/324/726 3/325/727 234/320/728
f 3/325/729 225/326/730 234/320/731
f 209/329/563 236/330/732 210/331/564
f 210/331/564 236/330/732 237/332/733
f 183/327/643 224/333/641 235/328/734
f 235/328/734 224/333/641 238/334/735
f 224/333/641 210/331/645 238/334/735
f 238/334/735 210/331/645 237/332/736
f 236/330/732 241/337/737 237/332/733
f 237/332/733 241/337/737 242/338/738
f 235/328/734 238/334/735 239/335/739
f 239/335/739 238/334/735 243/339/740
f 237/332/736 242/338/741 238/334/735
f 238/334/735 242/338/741 243/339/740
f 241/337/737 240/336/742 246/342/743
f 246/342/743 240/336/742 245/341/744
f 241/337/737 246/342/743 242/338/738
f 242/338/738 246/342/743 247/343/745
f 243/339/740 248/344/746 239/335/739
f 239/335/739 248/344/746 244/340/747
f 242/338/741 247/343/748 243/339/740
f 243/339/740 247/343/748 248/344/746
f 223/350/749 164/345/750 252/351/751
f 252/351/751 164/345/750 249/346/752
f 201/348/753 223/350/754 251/349/755
f 251/349/755 223/350/754 252/351/751
f 251/349/756 256/355/757 250/347/758
f 250/347/758 256/355/757 255/354/759
f 252/351/751 249/346/752 257/356/760
f 257/356/760 249/346/752 254/353/761
f 252/351/751 257/356/760 251/349/755
f 251/349/755 257/356/760 256/355/762
f 255/354/759 260/359/763 253/352/764
f 253/352/764 260/359/763 258/357/765
f 256/355/757 261/360/766 255/354/759
f 255/354/759 261/360/766 260/359/763
f 257/356/760 254/353/761 262/361/767
f 262/361/767 254/353/761 259/358/768
f 257/356/760 262/361/767 256/355/762
f 256/355/762 262/361/767 261/360/769
f 167/363/770 263/364/771 168/362/772
f 168/362/772 263/364/771 264/365/773
f 168/367/774 264/368/775 171/366/776
f 171/366/776 264/368/775 265/369/777
f 171/371/778 265/372/779 174/370/780
f 174/370/780 265/372/779 266/373/781
