# This file uses centimeters as units for non-parametric coordinates.

v -0.035941 -0.003441 -0.101486
v -0.048240 -0.021521 0.011063
v -0.043636 -0.019578 0.037695
v -0.045283 0.031033 -0.101630
v -0.062945 0.032738 0.010836
v -0.057910 0.033094 0.037476
v -0.033743 0.064810 -0.102800
v -0.044781 0.085897 0.008994
v -0.040278 0.084699 0.035687
v 0.000620 0.072508 -0.104646
v 0.009302 0.098013 0.006089
v 0.012224 0.096462 0.032868
v 0.034414 0.062531 -0.106152
v 0.062488 0.082310 0.003720
v 0.063856 0.081217 0.030567
v 0.043757 0.028056 -0.106008
v 0.077192 0.028051 0.003946
v 0.078129 0.028545 0.030787
v 0.032216 -0.005720 -0.104838
v 0.059030 -0.025108 0.005788
v 0.060499 -0.023060 0.032575
v -0.002147 -0.013419 -0.102992
v 0.004947 -0.037224 0.008694
v 0.007996 -0.034823 0.035396
v 0.012598 0.031711 0.072667
v -0.002842 0.030361 -0.134678
v -0.002876 -0.000815 -0.120796
v 0.032844 0.028552 -0.120581
v -0.034164 0.030745 -0.119178
v -0.001060 0.058422 -0.123368
v 0.051109 0.030338 0.048338
v 0.009652 -0.004750 0.052933
v -0.026224 0.032985 0.054581
v 0.012063 0.064731 0.054289
v -0.024731 0.009067 -0.119630
v 0.022122 0.008761 -0.120572
v -0.022364 0.051211 -0.121560
v 0.022451 0.048359 -0.122330
v -0.014002 0.003545 0.054140
v -0.015436 0.057090 0.055265
v 0.040595 0.054376 0.050674
v 0.038739 0.005699 0.049746
v 0.040644 -0.009850 -0.018498
v 0.002560 -0.018090 -0.019397
v -0.034536 -0.007037 -0.019513
v -0.044734 0.030646 -0.017842
v -0.032089 0.067667 -0.019411
v 0.005504 0.076054 -0.022239
v 0.042534 0.065144 -0.023629
v 0.052766 0.027391 -0.023466
vt 0.091102 0.465534
vt 0.076433 0.463813
vt 0.073270 0.464224
vt 0.078562 0.461588
vt 0.090523 0.458011
vt 0.100149 0.455212
vt 0.098367 0.454778
vt 0.087606 0.459228
vt 0.103170 0.453608
vt 0.066037 0.376786
vt 0.040445 0.386805
vt 0.046898 0.375120
vt 0.059257 0.369450
vt 0.025075 0.394295
vt 0.039720 0.379201
vt 0.097622 0.369207
vt 0.087342 0.370673
vt 0.070852 0.365787
vt 0.076372 0.366481
vt 0.054847 0.362580
vt 0.035974 0.392580
vt 0.044199 0.378788
vt 0.056985 0.386498
vt 0.057677 0.375558
vt 0.070963 0.370731
vt 0.081927 0.376758
vt 0.065945 0.410881
vt 0.051392 0.416817
vt 0.068336 0.457113
vt 0.082045 0.452785
vt 0.061423 0.458707
vt 0.095891 0.400510
vt 0.084600 0.405729
vt 0.098549 0.446536
vt 0.108964 0.442017
vt 0.092450 0.383845
vt 0.102988 0.382185
vt 0.039423 0.406190
vt 0.061045 0.399820
vt 0.086763 0.389838
vt 0.044072 0.419090
vt 0.054813 0.413015
vt 0.071702 0.454222
vt 0.044109 0.400529
vt 0.070517 0.390254
vt 0.073209 0.406069
vt 0.088488 0.447860
vt 0.088557 0.401941
vt 0.102319 0.443507
vt 0.028227 0.408114
vn -0.032945 -0.406532 -0.913042
vn -0.336577 -0.287664 -0.896641
vn -0.031793 -0.023035 -0.999229
vn -0.443625 -0.011973 -0.896133
vn -0.325092 0.266524 -0.907348
vn -0.005850 0.374149 -0.927350
vn 0.365373 -0.039711 -0.930014
vn 0.259687 -0.299430 -0.918098
vn 0.284680 0.237201 -0.928813
vn -0.464806 0.731925 0.498239
vn -0.798422 0.027772 0.601458
vn -0.467554 0.187105 0.863936
vn -0.475037 -0.011179 0.879895
vn -0.498062 -0.679134 0.539176
vn -0.441431 -0.157803 0.883310
vn 0.739697 0.532978 0.410833
vn 0.103367 0.818973 0.564445
vn 0.238197 0.510233 0.826392
vn 0.086417 0.557132 0.825915
vn 0.088519 0.485511 0.869737
vn -0.264623 0.329203 0.906422
vn 0.077478 -0.011072 0.996933
vn -0.422641 -0.014425 0.906183
vn -0.099549 0.543934 0.833202
vn 0.056827 -0.791575 0.608424
vn -0.116876 -0.489244 0.864280
vn 0.071057 -0.505413 0.859947
vn 0.206647 -0.462189 0.862368
vn 0.699898 -0.556253 0.448023
vn 0.073572 -0.479279 0.874574
vn 0.396379 -0.349646 0.848900
vn 0.533056 -0.030659 0.845524
vn 0.413066 0.317862 0.853429
vn -0.274963 -0.333492 0.901764
vn 0.543420 0.154333 0.825152
vn 0.775162 -0.020851 0.631419
vn 0.543160 -0.028700 0.839139
vn 0.508341 -0.177060 0.842757
vn 0.661700 -0.743052 -0.100132
vn 0.048702 -0.997082 -0.058782
vn 0.619103 -0.705201 -0.345547
vn -0.086241 -0.911010 -0.403267
vn 0.210567 -0.738293 -0.640770
vn -0.038603 -0.816321 -0.576308
vn -0.309185 -0.746505 -0.589182
vn -0.761999 -0.571169 -0.305161
vn 0.984984 -0.133692 -0.109238
vn 0.899332 0.012067 -0.437101
vn 0.826104 0.554779 -0.098855
vn 0.570331 0.724908 -0.386304
vn 0.711184 -0.328175 -0.621706
vn 0.799764 -0.025480 -0.599773
vn 0.734146 0.269379 -0.623269
vn -0.026754 0.937122 -0.347975
vn 0.588526 0.749698 -0.302638
vn -0.078797 -0.951443 -0.297569
vn 0.533093 -0.796599 -0.285028
vn 0.923855 -0.042725 -0.380350
vn 0.745891 -0.062311 -0.663147
vn 0.503916 0.518284 -0.690978
vn 0.465564 -0.582539 -0.666258
vn -0.027047 -0.827253 -0.561179
vn -0.576023 -0.817017 -0.026098
vn -0.997586 -0.069167 0.006197
vn -0.934527 0.072812 -0.348365
vn -0.843039 0.026097 -0.537219
vn -0.949354 0.026813 -0.313062
vn -0.556816 0.565909 -0.608032
vn -0.747252 0.642831 -0.168474
vn -0.844159 0.028079 -0.535357
vn -0.764985 0.312949 -0.562904
vn -0.554496 0.770315 -0.314880
vn -0.782477 -0.273832 -0.559236
vn 0.031175 0.998507 -0.044866
vn 0.011151 0.881830 -0.471435
vn -0.793067 0.609113 -0.005139
vn 0.017025 0.798234 -0.602107
vn 0.256035 0.711017 -0.654905
vn -0.254620 0.754836 -0.604476
vn -0.787488 -0.604012 -0.122606
vn -0.009057 0.790914 -0.611861
vn -0.600601 -0.568687 -0.562026
f 27/2/1 35/3/2 26/1/3
f 26/1/3 35/3/2 29/4/4
f 29/4/4 37/5/5 26/1/3
f 26/1/3 37/5/5 30/6/6
f 28/7/7 36/8/8 26/1/3
f 26/1/3 36/8/8 27/2/1
f 30/6/6 38/9/9 26/1/3
f 26/1/3 38/9/9 28/7/7
f 9/10/10 6/11/11 40/13/12
f 40/13/12 6/11/11 33/12/13
f 3/14/14 39/15/15 6/11/11
f 6/11/11 39/15/15 33/12/13
f 15/16/16 12/17/17 41/19/18
f 41/19/18 12/17/17 34/18/19
f 34/18/20 40/13/21 25/20/22
f 25/20/22 40/13/21 33/12/23
f 9/10/10 40/13/24 12/17/17
f 12/17/17 40/13/24 34/18/19
f 3/14/14 24/21/25 39/15/26
f 39/15/26 24/21/25 32/22/27
f 32/22/27 24/21/25 42/24/28
f 42/24/28 24/21/25 21/23/29
f 32/22/30 42/24/31 25/20/22
f 25/20/22 42/24/31 31/25/32
f 31/25/32 41/19/33 25/20/22
f 25/20/22 41/19/33 34/18/20
f 33/12/23 39/15/34 25/20/22
f 25/20/22 39/15/34 32/22/30
f 15/16/16 41/19/35 18/26/36
f 18/26/36 41/19/35 31/25/37
f 21/23/29 18/26/36 42/24/38
f 42/24/38 18/26/36 31/25/37
f 43/27/39 44/28/40 19/30/41
f 19/30/41 44/28/40 22/29/42
f 19/30/41 22/29/42 36/8/43
f 36/8/43 22/29/42 27/2/44
f 27/2/44 22/29/42 35/3/45
f 35/3/45 22/29/42 1/31/46
f 50/33/47 16/34/48 49/32/49
f 49/32/49 16/34/48 13/35/50
f 43/27/39 19/30/41 50/33/47
f 50/33/47 19/30/41 16/34/48
f 19/30/41 36/8/51 16/34/48
f 16/34/48 36/8/51 28/7/52
f 13/35/50 16/34/48 38/9/53
f 38/9/53 16/34/48 28/7/52
f 11/36/54 12/17/17 14/37/55
f 14/37/55 12/17/17 15/16/16
f 23/38/56 20/39/57 24/21/25
f 24/21/25 20/39/57 21/23/29
f 14/37/55 15/16/16 17/40/58
f 17/40/58 15/16/16 18/26/36
f 18/26/36 21/23/29 17/40/58
f 17/40/58 21/23/29 20/39/57
f 50/33/59 49/32/60 17/40/58
f 17/40/58 49/32/60 14/37/55
f 50/33/59 17/40/58 43/27/61
f 43/27/61 17/40/58 20/39/57
f 44/28/62 43/27/61 23/38/56
f 23/38/56 43/27/61 20/39/57
f 44/28/40 45/41/63 22/29/42
f 22/29/42 45/41/63 1/31/46
f 45/41/63 46/42/64 1/31/46
f 1/31/46 46/42/64 4/43/65
f 46/42/66 5/44/67 47/46/68
f 47/46/68 5/44/67 8/45/69
f 29/4/70 4/43/65 37/5/71
f 37/5/71 4/43/65 7/47/72
f 1/31/46 4/43/65 35/3/73
f 35/3/73 4/43/65 29/4/70
f 49/32/49 13/35/50 48/48/74
f 48/48/74 13/35/50 10/49/75
f 47/46/76 48/48/74 7/47/72
f 7/47/72 48/48/74 10/49/75
f 30/6/77 10/49/75 38/9/78
f 38/9/78 10/49/75 13/35/50
f 7/47/72 10/49/75 37/5/79
f 37/5/79 10/49/75 30/6/77
f 5/44/67 2/50/80 6/11/11
f 6/11/11 2/50/80 3/14/14
f 5/44/67 6/11/11 8/45/69
f 8/45/69 6/11/11 9/10/10
f 8/45/69 9/10/10 11/36/54
f 11/36/54 9/10/10 12/17/17
f 24/21/25 3/14/14 23/38/56
f 23/38/56 3/14/14 2/50/80
f 48/48/81 47/46/68 11/36/54
f 11/36/54 47/46/68 8/45/69
f 48/48/81 11/36/54 49/32/60
f 49/32/60 11/36/54 14/37/55
f 2/50/80 45/41/82 23/38/56
f 23/38/56 45/41/82 44/28/62
f 46/42/66 45/41/82 5/44/67
f 5/44/67 45/41/82 2/50/80
f 46/42/64 47/46/76 4/43/65
f 4/43/65 47/46/76 7/47/72
