# This file uses centimeters as units for non-parametric coordinates.

v 0.090168 -0.091720 -0.057041
v 0.044144 -0.038054 0.034273
v 0.061500 -0.052048 0.128441
v -0.002185 -0.104856 -0.052125
v 0.001237 -0.041794 0.032523
v -0.005197 -0.060383 0.129144
v -0.093161 -0.071277 -0.058774
v -0.034068 -0.022481 0.031735
v -0.066432 -0.038132 0.129640
v -0.118189 0.013782 -0.056733
v -0.043698 0.013469 0.031856
v -0.068058 0.013582 0.129459
v -0.061109 0.094821 -0.054573
v -0.025843 0.059397 0.038479
v -0.061093 0.062236 0.128862
v 0.024680 0.116382 -0.054428
v 0.018772 0.069779 0.016212
v 0.018092 0.070020 0.126851
v 0.110149 0.072677 -0.053531
v 0.052523 0.051422 0.039691
v 0.084548 0.047211 0.127878
v 0.130160 -0.013238 -0.054933
v 0.063528 0.001683 0.033648
v 0.081041 -0.003936 0.127949
v 0.005582 0.004910 0.127641
v 0.007514 0.002439 -0.143060
v -0.013663 0.103802 0.068996
v -0.052390 0.104794 0.128503
v 0.022334 0.152713 0.100848
v 0.025862 0.130970 0.040668
v 0.088557 0.089770 0.127519
v 0.059682 0.095836 0.070547
v 0.091949 -0.011146 -0.112352
v 0.019149 0.089365 -0.110111
v 0.012155 -0.079474 -0.113572
v -0.075852 0.009244 -0.109752
v -0.044344 -0.051268 -0.111783
v 0.066133 -0.054628 -0.112976
v 0.071826 0.047765 -0.110808
v -0.038895 0.077288 -0.108416
v 0.020085 0.096493 0.126685
v 0.063485 -0.063853 -0.059202
v -0.007302 -0.073755 -0.058024
v -0.074963 -0.046792 -0.064754
v 0.081900 0.058186 -0.061027
v 0.091770 -0.004579 -0.058642
v -0.077284 0.015991 -0.062521
v -0.056389 0.074756 -0.058042
v 0.017511 0.090685 -0.059041
vt 0.642991 0.303489
vt 0.655204 0.303361
vt 0.656387 0.304559
vt 0.639957 0.304293
vt 0.657563 0.305208
vt 0.644635 0.305097
vt 0.790389 0.348612
vt 0.788681 0.339855
vt 0.775010 0.339920
vt 0.766033 0.339815
vt 0.772829 0.338954
vt 0.790108 0.338138
vt 0.816709 0.338740
vt 0.805674 0.339258
vt 0.811565 0.337912
vt 0.680812 0.319565
vt 0.680603 0.305284
vt 0.693433 0.311102
vt 0.688045 0.326017
vt 0.679705 0.318019
vt 0.678550 0.303429
vt 0.667940 0.303366
vt 0.672778 0.304621
vt 0.669839 0.305291
vt 0.679399 0.304653
vt 0.656367 0.327043
vt 0.668577 0.325762
vt 0.809048 0.324424
vt 0.790630 0.323808
vt 0.789118 0.322955
vt 0.814102 0.322361
vt 0.764672 0.323365
vt 0.810340 0.322614
vt 0.817061 0.323393
vt 0.824935 0.322042
vt 0.816249 0.321524
vt 0.657865 0.329248
vt 0.669572 0.327341
vt 0.672719 0.332168
vt 0.677903 0.350932
vt 0.673022 0.351984
vt 0.670621 0.350257
vt 0.772188 0.323822
vt 0.767174 0.323012
vt 0.758024 0.321290
vt 0.765388 0.322669
vt 0.773285 0.324582
vt 0.792099 0.323859
vt 0.790292 0.321838
vt 0.655198 0.349435
vt 0.646232 0.327168
vt 0.644695 0.328298
vt 0.649016 0.329090
vt 0.658048 0.353423
vt 0.642370 0.353881
vt 0.640115 0.350017
vt 0.636623 0.350966
vn -0.002750 0.011346 0.999932
vn 0.002536 0.016535 0.999860
vn 0.002536 0.016535 0.999860
vn 0.007823 0.021722 0.999733
vn 0.015537 0.020447 0.999670
vn 0.020365 0.012372 0.999716
vn 0.020365 0.012372 0.999716
vn 0.025192 0.004295 0.999673
vn 0.339949 -0.012760 -0.940357
vn 0.237709 -0.250566 -0.938462
vn 0.005508 0.003891 -0.999977
vn -0.019967 -0.339650 -0.940340
vn -0.290926 -0.255953 -0.921873
vn -0.369468 0.020948 -0.929007
vn 0.068403 0.345593 -0.935888
vn 0.299885 0.232793 -0.925136
vn -0.228055 0.288954 -0.929783
vn -0.595052 0.697712 -0.398888
vn -0.635773 0.691396 -0.343169
vn -0.635773 0.691396 -0.343169
vn -0.673440 0.681759 -0.285802
vn 0.778789 0.603165 -0.172280
vn 0.750251 0.617921 -0.235153
vn 0.750251 0.617921 -0.235153
vn 0.717973 0.629597 -0.296854
vn -0.003887 0.001649 0.999991
vn -0.007237 0.007903 0.999943
vn -0.007237 0.007903 0.999943
vn -0.010587 0.014158 0.999844
vn 0.024655 0.007384 0.999669
vn 0.025176 0.007990 0.999651
vn 0.025176 0.007990 0.999651
vn 0.025698 0.008597 0.999633
vn 0.025056 0.003307 0.999681
vn 0.025315 0.003833 0.999672
vn 0.025315 0.003833 0.999672
vn 0.025574 0.004359 0.999663
vn -0.012160 0.009577 0.999880
vn -0.011820 0.008363 0.999895
vn -0.011820 0.008363 0.999895
vn -0.011480 0.007150 0.999909
vn 0.070209 0.414226 0.907462
vn 0.070209 0.414226 0.907462
vn 0.070209 0.414226 0.907462
vn 0.029814 0.416406 0.908690
vn 0.029814 0.416406 0.908690
vn 0.029814 0.416406 0.908690
vn 0.889618 0.410065 -0.201063
vn 0.942991 0.043021 -0.330026
vn 0.997680 -0.061587 0.029008
vn 0.934335 -0.293827 -0.201702
vn -0.147561 -0.136192 0.979631
vn -0.150115 -0.003712 0.988662
vn 0.334844 0.321789 0.885625
vn 0.956669 -0.108602 0.270168
vn 0.790475 0.239573 -0.563696
vn 0.828637 -0.078296 -0.554284
vn 0.512953 -0.834242 0.202284
vn 0.743916 -0.399148 -0.535976
vn 0.104045 -0.145618 0.983855
vn 0.013966 -0.170399 0.985276
vn -0.413888 0.392759 0.821241
vn 0.131303 0.908261 0.397267
vn 0.474637 0.730077 -0.491637
vn 0.198775 0.873838 -0.443729
vn -0.210812 0.892742 -0.398208
vn -0.962219 -0.049674 -0.267706
vn -0.881969 0.289596 -0.371840
vn -0.993324 0.111769 0.028550
vn -0.747511 0.635568 -0.193083
vn -0.838130 0.315528 -0.444949
vn -0.825500 0.164268 -0.539968
vn -0.586976 0.466729 -0.661531
vn 0.134512 0.938099 -0.319182
vn -0.690254 0.336080 -0.640781
vn 0.884804 -0.087200 -0.457731
vn 0.916720 -0.002253 -0.399525
vn 0.705001 0.264943 -0.657860
vn 0.746046 0.170801 -0.643616
vn 0.129077 0.956005 0.263427
vn -0.610995 0.723017 0.322384
vn 0.759431 0.591142 0.271690
vn 0.925475 -0.232278 0.299238
vn 0.581324 -0.811060 0.065150
vn 0.589436 -0.776143 -0.223983
vn -0.151891 -0.966302 -0.207823
vn -0.206484 -0.975492 0.076028
vn -0.797976 -0.599398 0.062910
vn -0.758279 -0.556480 -0.339622
vn -0.004773 0.203085 0.979150
vn -0.199630 -0.766163 0.610854
vn -0.033215 0.085181 0.995812
vn -0.719601 -0.429674 0.545485
vn 0.131557 0.087286 0.987458
vn 0.011832 -0.867325 -0.497601
vn 0.334838 -0.712640 -0.616464
vn -0.337111 -0.806305 -0.486033
vn 0.149329 -0.096859 0.984032
vn -0.451736 0.081149 0.888453
vn -0.769304 0.105662 -0.630084
vn -0.638678 -0.308897 -0.704751
vn -0.776226 0.430632 -0.460466
vn -0.736919 -0.512027 0.441338
vn -0.933668 0.000009 0.358139
vn 0.559404 -0.762065 0.326075
vn -0.162837 -0.924931 0.343493
f 24/2/1 25/3/2 3/1/3
f 3/1/3 25/3/2 6/4/4
f 6/4/5 25/3/6 9/6/7
f 9/6/7 25/3/6 12/5/8
f 33/8/9 38/9/10 26/7/11
f 26/7/11 38/9/10 35/10/12
f 35/10/12 37/11/13 26/7/11
f 26/7/11 37/11/13 36/12/14
f 34/13/15 39/14/16 26/7/11
f 26/7/11 39/14/16 33/8/9
f 36/12/14 40/15/17 26/7/11
f 26/7/11 40/15/17 34/13/15
f 28/17/18 29/18/19 27/16/20
f 27/16/20 29/18/19 30/19/21
f 30/19/22 29/18/23 32/20/24
f 32/20/24 29/18/23 31/21/25
f 24/2/26 21/22/27 25/3/28
f 25/3/28 21/22/27 18/23/29
f 18/23/30 15/24/31 25/3/32
f 25/3/32 15/24/31 12/5/33
f 15/24/34 18/23/35 28/17/36
f 28/17/36 18/23/35 41/25/37
f 21/22/38 31/21/39 18/23/40
f 18/23/40 31/21/39 41/25/41
f 28/17/42 41/25/43 29/18/44
f 41/25/45 31/21/46 29/18/47
f 20/27/48 21/22/49 23/26/50
f 23/26/50 21/22/49 24/2/51
f 45/28/52 46/29/53 19/31/54
f 19/31/54 46/29/53 22/30/55
f 19/31/54 22/30/55 39/14/56
f 39/14/56 22/30/55 33/8/57
f 1/32/58 38/9/59 22/30/55
f 22/30/55 38/9/59 33/8/57
f 48/33/60 49/34/61 13/36/62
f 13/36/62 49/34/61 16/35/63
f 49/34/61 45/28/52 16/35/63
f 16/35/63 45/28/52 19/31/54
f 19/31/54 39/14/64 16/35/63
f 16/35/63 39/14/64 34/13/65
f 13/36/62 16/35/63 40/15/66
f 40/15/66 16/35/63 34/13/65
f 12/5/67 15/24/68 11/37/69
f 11/37/69 15/24/68 14/38/70
f 14/38/70 15/24/68 27/16/71
f 27/16/71 15/24/68 28/17/72
f 14/38/70 27/16/73 17/39/74
f 17/39/74 27/16/73 30/19/75
f 31/21/76 21/22/49 32/20/77
f 32/20/77 21/22/49 20/27/48
f 20/27/48 17/39/74 32/20/78
f 32/20/78 17/39/74 30/19/79
f 49/40/80 48/41/81 17/39/74
f 17/39/74 48/41/81 14/38/70
f 49/40/80 17/39/74 45/42/82
f 45/42/82 17/39/74 20/27/48
f 46/50/83 45/42/82 23/26/50
f 23/26/50 45/42/82 20/27/48
f 23/26/50 24/2/51 2/51/84
f 2/51/84 24/2/51 3/1/85
f 3/1/85 6/4/86 2/51/84
f 2/51/84 6/4/86 5/52/87
f 5/52/87 6/4/86 8/53/88
f 8/53/88 6/4/86 9/6/89
f 11/37/69 8/53/88 12/5/67
f 12/5/67 8/53/88 9/6/89
f 43/44/90 4/45/91 42/43/92
f 42/43/92 4/45/91 1/32/58
f 4/45/91 43/44/90 7/46/93
f 7/46/93 43/44/90 44/47/94
f 4/45/91 35/10/95 1/32/58
f 1/32/58 35/10/95 38/9/96
f 7/46/93 37/11/97 4/45/91
f 4/45/91 37/11/97 35/10/95
f 46/29/53 42/43/92 22/30/55
f 22/30/55 42/43/92 1/32/58
f 48/33/60 13/36/62 47/48/98
f 47/48/98 13/36/62 10/49/99
f 47/48/98 10/49/99 44/47/94
f 44/47/94 10/49/99 7/46/93
f 10/49/99 36/12/100 7/46/93
f 7/46/93 36/12/100 37/11/101
f 10/49/99 13/36/62 36/12/100
f 36/12/100 13/36/62 40/15/102
f 44/55/103 8/53/88 47/54/104
f 47/54/104 8/53/88 11/37/69
f 47/54/104 11/37/69 48/41/81
f 48/41/81 11/37/69 14/38/70
f 42/56/105 46/50/83 2/51/84
f 2/51/84 46/50/83 23/26/50
f 42/56/105 2/51/84 43/57/106
f 43/57/106 2/51/84 5/52/87
f 44/55/103 43/57/106 8/53/88
f 8/53/88 43/57/106 5/52/87
