# This file uses centimeters as units for non-parametric coordinates.

v 0.063734 -0.030220 -0.093649
v 0.056663 -0.040108 -0.004376
v 0.036355 -0.017079 0.129739
v 0.004506 -0.046182 -0.091504
v 0.005001 -0.058260 -0.002713
v 0.005572 -0.027895 0.130730
v -0.054885 -0.031008 -0.087819
v -0.046849 -0.040797 0.000711
v -0.025324 -0.017489 0.132770
v -0.070513 0.019701 -0.084551
v -0.060559 0.017234 0.004244
v -0.033473 0.013406 0.134693
v -0.055419 0.070614 -0.082793
v -0.047460 0.075444 0.006460
v -0.025668 0.048090 0.136014
v 0.003809 0.086576 -0.084937
v 0.004203 0.093596 0.004797
v 0.005116 0.058906 0.135023
v 0.063200 0.071403 -0.088622
v 0.056053 0.076132 0.001373
v 0.036011 0.048501 0.132982
v 0.078827 0.020693 -0.091890
v 0.069762 0.018101 -0.002160
v 0.044180 0.013922 0.130877
v 0.006888 0.014840 0.148573
v 0.004143 0.021296 -0.126967
v 0.047302 -0.026978 0.098415
v 0.005220 -0.042399 0.095799
v -0.037130 -0.027717 0.101179
v -0.049123 0.015676 0.097232
v -0.038184 0.063838 0.099863
v 0.004574 0.078818 0.098757
v 0.047031 0.063788 0.100637
v 0.058592 0.016342 0.094802
vt 0.693919 0.347152
vt 0.702975 0.349591
vt 0.661937 0.360030
vt 0.661069 0.345642
vt 0.695153 0.351595
vt 0.662845 0.351451
vt 0.620950 0.347516
vt 0.628642 0.345501
vt 0.630126 0.349950
vt 0.691367 0.325440
vt 0.663248 0.325517
vt 0.686112 0.294608
vt 0.663211 0.295884
vt 0.634660 0.324008
vt 0.626464 0.321227
vt 0.689938 0.320243
vt 0.698015 0.323033
vt 0.685093 0.291121
vt 0.691895 0.294327
vt 0.663533 0.278460
vt 0.684007 0.283714
vt 0.679184 0.282003
vt 0.662098 0.281085
vt 0.680017 0.285031
vt 0.663255 0.285094
vt 0.639852 0.293859
vt 0.632778 0.293685
vt 0.632982 0.318805
vt 0.638234 0.291396
vt 0.661220 0.318723
vt 0.661587 0.291233
vt 0.645296 0.281150
vt 0.641399 0.282642
vt 0.646213 0.284180
vn 0.864164 0.029257 -0.502360
vn -0.043788 0.046339 -0.997966
vn 0.701272 0.578719 -0.416296
vn -0.023277 0.933601 -0.357556
vn 0.711838 -0.534387 -0.455760
vn -0.014009 -0.907987 -0.418765
vn -0.732680 0.556898 -0.391209
vn -0.885881 0.018185 -0.463555
vn -0.731687 -0.529602 -0.429134
vn 0.603300 -0.796086 0.047708
vn 0.007071 -0.999899 0.012337
vn 0.842993 -0.519745 0.138665
vn 0.013502 -0.987200 0.158913
vn -0.591353 -0.804660 0.053140
vn -0.994124 -0.012954 0.107468
vn 0.731489 0.678778 0.064685
vn 0.994798 -0.035007 0.095668
vn 0.604639 0.781826 0.152184
vn 0.990942 0.068663 0.115407
vn 0.772088 -0.075689 0.630993
vn 0.617449 0.346825 0.706023
vn 0.053076 -0.050905 0.997292
vn 0.020840 0.720836 0.692793
vn 0.476454 -0.572329 0.667406
vn -0.025909 -0.756546 0.653427
vn 0.548919 0.674836 0.493239
vn 0.924141 0.052652 0.378406
vn 0.771510 -0.485985 0.410597
vn 0.122975 -0.914514 0.385410
vn -0.832909 -0.533941 0.145498
vn -0.992339 -0.021394 0.121679
vn -0.602051 0.794984 0.074390
vn -0.847420 0.510014 0.147531
vn 0.065054 0.995951 0.062040
vn -0.112979 0.981462 0.154815
vn -0.578451 0.359012 0.732465
vn -0.734788 -0.086117 0.672808
vn -0.439236 -0.476660 0.761490
vn -0.001900 0.876556 0.481296
vn -0.539702 0.686891 0.486726
vn -0.647932 -0.628879 0.429762
vn -0.919790 0.052480 0.388885
f 22/2/1 26/3/2 19/1/3
f 19/1/3 26/3/2 16/4/4
f 22/2/1 1/5/5 26/3/2
f 26/3/2 1/5/5 4/6/6
f 16/4/4 26/3/2 13/8/7
f 13/8/7 26/3/2 10/7/8
f 4/6/6 7/9/9 26/3/2
f 26/3/2 7/9/9 10/7/8
f 1/5/5 2/10/10 4/6/6
f 4/6/6 2/10/10 5/11/11
f 27/12/12 28/13/13 2/10/10
f 2/10/10 28/13/13 5/11/11
f 5/11/11 8/14/14 4/6/6
f 4/6/6 8/14/14 7/9/9
f 8/14/14 11/15/15 7/9/9
f 7/9/9 11/15/15 10/7/8
f 20/16/16 23/17/17 19/1/3
f 19/1/3 23/17/17 22/2/1
f 33/18/18 34/19/19 20/16/16
f 20/16/16 34/19/19 23/17/17
f 22/2/1 23/17/17 1/5/5
f 1/5/5 23/17/17 2/10/10
f 34/19/19 27/12/12 23/17/17
f 23/17/17 27/12/12 2/10/10
f 24/21/20 21/22/21 25/20/22
f 25/20/22 21/22/21 18/23/23
f 24/21/20 25/20/22 3/24/24
f 3/24/24 25/20/22 6/25/25
f 33/18/26 21/22/21 34/19/27
f 34/19/27 21/22/21 24/21/20
f 34/19/27 24/21/20 27/12/28
f 27/12/28 24/21/20 3/24/24
f 27/12/28 3/24/24 28/13/29
f 28/13/29 3/24/24 6/25/25
f 29/26/30 8/14/14 28/13/13
f 28/13/13 8/14/14 5/11/11
f 30/27/31 11/15/15 29/26/30
f 29/26/30 11/15/15 8/14/14
f 10/7/8 11/15/15 13/8/7
f 13/8/7 11/15/15 14/28/32
f 14/28/32 11/15/15 31/29/33
f 31/29/33 11/15/15 30/27/31
f 13/8/7 14/28/32 16/4/4
f 16/4/4 14/28/32 17/30/34
f 31/29/33 32/31/35 14/28/32
f 14/28/32 32/31/35 17/30/34
f 17/30/34 20/16/16 16/4/4
f 16/4/4 20/16/16 19/1/3
f 32/31/35 33/18/18 17/30/34
f 17/30/34 33/18/18 20/16/16
f 18/23/23 15/32/36 25/20/22
f 25/20/22 15/32/36 12/33/37
f 6/25/25 25/20/22 9/34/38
f 9/34/38 25/20/22 12/33/37
f 32/31/39 31/29/40 18/23/23
f 18/23/23 31/29/40 15/32/36
f 32/31/39 18/23/23 33/18/26
f 33/18/26 18/23/23 21/22/21
f 28/13/29 6/25/25 29/26/41
f 29/26/41 6/25/25 9/34/38
f 30/27/42 29/26/41 12/33/37
f 12/33/37 29/26/41 9/34/38
f 12/33/37 15/32/36 30/27/42
f 30/27/42 15/32/36 31/29/40
