# This file uses centimeters as units for non-parametric coordinates.

v 0.021428 0.068563 0.131276
v 0.047570 0.077817 0.129832
v 0.061129 0.071752 0.129746
v -0.020962 0.065698 0.009948
v 0.005688 0.084589 -0.004273
v 0.046512 0.080244 0.027509
v -0.011210 -0.013507 0.002573
v 0.017378 -0.007742 -0.013757
v 0.046810 0.002131 0.011252
v 0.028820 -0.016040 0.094588
v 0.059425 -0.010539 0.101350
v 0.070871 -0.013124 0.089349
v 0.013455 0.036690 0.115260
v 0.062574 0.025255 0.134411
v 0.086501 0.019631 0.112696
v -0.021236 0.014528 0.007721
v -0.015736 0.026800 0.064626
v -0.012797 0.078415 0.067027
v 0.004404 0.091306 0.067597
v 0.038038 0.088292 0.059163
v 0.056292 0.020523 0.056291
v 0.049096 -0.023351 0.041109
v 0.022587 -0.030977 0.038198
v 0.001972 -0.029111 0.049422
v 0.051703 0.106841 0.088527
v 0.059192 0.095581 0.082402
v 0.073069 0.105991 0.046085
v 0.055105 0.111822 0.053358
v 0.048439 0.042162 0.012790
v 0.008489 0.038654 -0.018463
vt 0.063497 0.317519
vt 0.069461 0.314039
vt 0.078572 0.333072
vt 0.067407 0.334422
vt 0.078785 0.299719
vt 0.078657 0.300251
vt 0.088736 0.307239
vt 0.085549 0.308380
vt 0.053301 0.336205
vt 0.062296 0.335331
vt 0.050860 0.321086
vt 0.045739 0.321735
vt 0.066408 0.323265
vt 0.057102 0.315451
vt 0.047156 0.304702
vt 0.053173 0.297361
vt 0.056708 0.287265
vt 0.052582 0.300850
vt 0.056510 0.298573
vt 0.063154 0.288917
vt 0.065817 0.290049
vt 0.058649 0.294504
vt 0.067099 0.287789
vt 0.065702 0.309252
vt 0.075095 0.321765
vt 0.080817 0.317431
vt 0.076407 0.310354
vt 0.052183 0.319724
vt 0.056674 0.336073
vt 0.071250 0.337250
vn -0.878185 0.357487 0.317797
vn -0.441652 0.871201 0.214367
vn -0.879722 0.374159 -0.293420
vn 0.045219 0.675943 -0.735565
vn 0.075428 -0.053900 0.995694
vn 0.751504 -0.144620 0.643682
vn 0.232561 0.951007 -0.203718
vn 0.980332 -0.173730 -0.093635
vn 0.029499 -0.486857 -0.872983
vn 0.157949 -0.974233 -0.161003
vn -0.540590 -0.714755 -0.443721
vn -0.664675 -0.718327 0.205459
vn 0.775239 -0.292991 -0.559608
vn 0.642821 -0.732694 -0.223475
vn 0.220613 -0.861139 0.458006
vn 0.067778 -0.308625 0.948766
vn -0.338441 -0.733055 0.589990
vn -0.582638 -0.256089 0.771331
vn 0.796117 -0.604489 -0.028110
vn 0.924714 -0.219132 0.311263
vn 0.034171 0.573930 0.818191
vn -0.535043 0.390884 0.748958
vn 0.790712 0.521046 0.321381
vn 0.950897 0.118591 -0.285887
vn 0.892147 0.145037 -0.427829
vn 0.839995 0.173430 -0.514132
vn 0.911731 -0.190465 0.363963
vn -0.921533 -0.186029 0.340838
vn -0.901937 -0.170148 -0.396939
vn 0.005321 0.081067 -0.996695
f 18/1/1 19/2/2 4/4/3
f 4/4/3 19/2/2 5/3/4
f 25/5/5 26/6/6 28/8/7
f 28/8/7 26/6/6 27/7/8
f 8/10/9 23/11/10 7/9/11
f 7/9/11 23/11/10 24/12/12
f 8/10/9 9/13/13 23/11/10
f 23/11/10 9/13/13 22/14/14
f 11/16/15 14/17/16 10/15/17
f 10/15/17 14/17/16 13/18/18
f 12/19/19 15/20/20 11/16/15
f 11/16/15 15/20/20 14/17/16
f 14/17/16 2/21/21 13/18/18
f 13/18/18 2/21/21 1/22/22
f 15/20/20 3/23/23 14/17/16
f 14/17/16 3/23/23 2/21/21
f 22/14/14 9/13/13 21/24/24
f 21/24/24 9/13/13 29/25/25
f 6/26/26 20/27/27 29/25/25
f 29/25/25 20/27/27 21/24/24
f 17/28/28 16/29/29 24/12/12
f 24/12/12 16/29/29 7/9/11
f 18/1/1 4/4/3 17/28/28
f 17/28/28 4/4/3 16/29/29
f 1/22/22 18/1/1 13/18/18
f 13/18/18 18/1/1 17/28/28
f 2/21/21 19/2/2 1/22/22
f 1/22/22 19/2/2 18/1/1
f 3/23/23 20/27/27 2/21/21
f 2/21/21 20/27/27 19/2/2
f 15/20/20 21/24/24 3/23/23
f 3/23/23 21/24/24 20/27/27
f 15/20/20 12/19/19 21/24/24
f 21/24/24 12/19/19 22/14/14
f 23/11/10 22/14/14 11/16/15
f 11/16/15 22/14/14 12/19/19
f 24/12/12 23/11/10 10/15/17
f 10/15/17 23/11/10 11/16/15
f 13/18/18 17/28/28 10/15/17
f 10/15/17 17/28/28 24/12/12
f 19/2/2 20/27/27 25/5/5
f 25/5/5 20/27/27 26/6/6
f 6/26/26 27/7/8 20/27/27
f 20/27/27 27/7/8 26/6/6
f 5/3/4 28/8/7 6/26/26
f 6/26/26 28/8/7 27/7/8
f 5/3/4 19/2/2 28/8/7
f 28/8/7 19/2/2 25/5/5
f 16/29/29 4/4/3 30/30/30
f 30/30/30 4/4/3 5/3/4
f 6/26/26 29/25/25 5/3/4
f 5/3/4 29/25/25 30/30/30
f 29/25/25 9/13/13 30/30/30
f 30/30/30 9/13/13 8/10/9
f 7/9/11 16/29/29 8/10/9
f 8/10/9 16/29/29 30/30/30
