# This file uses centimeters as units for non-parametric coordinates.

v -0.201038 -0.284581 0.104279
v 0.239333 -0.287338 0.103224
v -0.051894 0.284140 -0.022939
v 0.190538 0.147743 -0.006657
v -0.087643 0.187923 -0.223449
v 0.007887 -0.318997 0.342402
v 0.049906 0.242289 0.131583
v -0.174451 -0.052594 0.182400
v 0.185960 -0.073883 0.170591
v -0.133495 0.238132 -0.136058
v 0.175518 0.211922 -0.211241
v -0.151469 -0.267777 -0.059813
v 0.142719 -0.266791 -0.087078
v -0.001033 -0.080342 0.347724
v 0.045896 0.282423 -0.136430
v 0.000492 -0.312740 -0.130324
v -0.184024 0.028756 0.154642
v -0.254159 -0.096657 0.002828
v -0.174372 -0.169453 -0.107601
v 0.000418 -0.256480 -0.186696
v 0.181043 -0.200239 -0.141561
v 0.240855 -0.045876 0.011661
v 0.182570 0.026813 0.147904
v 0.002292 0.071166 0.243848
v -0.229123 0.074375 0.200063
v -0.286074 -0.055656 -0.005930
v -0.228664 -0.134336 -0.134760
v -0.002496 -0.240209 -0.242774
v 0.209468 -0.179594 -0.181677
v 0.297599 -0.029147 0.023782
v 0.233497 0.058676 0.200916
v -0.000911 0.121113 0.315318
v 0.000630 0.173223 0.295344
v -0.229225 0.118801 0.186634
v -0.286456 0.027554 0.003724
v -0.242342 -0.061653 -0.160317
v -0.001523 -0.165233 -0.306733
v 0.223145 -0.102785 -0.232954
v 0.290239 0.013577 -0.024856
v 0.229530 0.108488 0.192016
v 0.150586 -0.057678 0.172747
v -0.146673 -0.040122 0.194481
v 0.000765 -0.055895 0.350856
v 0.178370 -0.040918 -0.237808
v -0.010575 -0.108125 -0.281801
v -0.213043 -0.024248 -0.156326
v -0.250385 0.062806 -0.000607
v -0.202292 0.140830 0.133145
v -0.018576 0.178686 0.237472
v 0.218702 0.138571 0.130396
v 0.257261 0.069704 -0.025502
v 0.006897 -0.319526 0.009518
v -0.249023 -0.182280 0.064885
v 0.003373 -0.207115 0.364735
v 0.258516 -0.198567 0.067448
v 0.136152 0.115735 0.304912
v 0.126101 0.159799 0.275574
v -0.121888 0.162582 0.273936
v -0.121392 0.113861 0.296853
v 0.113711 0.164580 0.206162
v -0.124939 0.164164 0.187735
v 0.118923 0.170418 0.096811
v -0.059868 0.268508 0.066697
v 0.108428 0.084191 0.273133
v -0.001123 -0.311322 0.137631
v -0.098900 -0.305678 0.304150
v 0.104401 -0.307727 0.296488
v -0.100162 0.095698 0.276693
v -0.113778 -0.074526 0.230354
v 0.118768 -0.058919 0.262674
v 0.137427 -0.081541 0.272266
v -0.122277 -0.087795 0.256217
v 0.136273 -0.191924 0.280077
v -0.125029 -0.200375 0.314400
v 0.069348 0.261761 -0.001131
v 0.143235 0.202991 -0.005612
v 0.129737 0.268318 -0.182988
v 0.222415 0.176898 -0.171289
v 0.225753 0.137637 -0.113013
v 0.145107 0.239716 -0.080932
v 0.086093 0.098964 -0.290886
v 0.007003 0.127674 -0.260294
v 0.028792 0.291211 -0.221925
v 0.096422 0.261210 -0.257981
v 0.156258 0.214462 -0.277573
v 0.234413 -0.126231 -0.070659
v 0.291009 -0.087009 -0.117372
v 0.288110 -0.027685 -0.142308
v 0.204993 0.022110 -0.145749
v 0.233949 0.104497 -0.187827
v 0.221437 0.144023 -0.205913
v 0.216832 0.018551 -0.188573
v 0.194273 0.168930 -0.230007
v 0.171836 0.172304 -0.292841
v 0.125507 0.065186 -0.281294
v 0.195183 0.000039 -0.243258
v 0.281795 0.097078 -0.197390
v 0.270368 0.150306 -0.235190
v 0.252345 0.032678 -0.328462
v 0.230899 0.163630 -0.276220
v 0.196482 0.162944 -0.314102
v 0.151008 0.040449 -0.319604
v 0.223732 -0.022930 -0.286076
v 0.256377 0.004746 -0.224093
v 0.163890 -0.022533 0.162413
v 0.184303 -0.024673 0.159504
v -0.082715 -0.001935 0.163154
v 0.003031 -0.007956 0.245190
v 0.086318 -0.010481 0.179425
v -0.164722 -0.019895 0.173414
v -0.183216 -0.023658 0.163254
v -0.001817 -0.112164 0.336411
v -0.045149 -0.088629 0.296231
v -0.049156 -0.073762 0.252987
v 0.002361 -0.035459 0.279840
v 0.044087 -0.088498 0.309913
v 0.040067 -0.069190 0.275560
v -0.002144 -0.101866 0.339479
v -0.021666 -0.083606 0.333970
v -0.028500 -0.067784 0.330235
v 0.004157 -0.036969 0.313363
v 0.025587 -0.083410 0.334237
v 0.026748 -0.057378 0.326439
v -0.139612 -0.009120 0.180597
v 0.150352 -0.020429 0.165382
v 0.099200 0.025343 0.204845
v -0.000800 0.032238 0.249738
v -0.084527 0.032840 0.189032
v -0.161412 0.010566 0.179291
v 0.003197 0.047426 0.249966
v -0.088616 0.067239 0.304606
v 0.102360 0.063083 0.306820
v 0.057108 0.058628 0.197633
v 0.216688 0.001407 0.064805
v 0.192689 -0.128339 -0.248185
v 0.239877 0.124419 -0.316134
v 0.237710 0.114446 -0.325890
v 0.246643 0.102135 -0.310450
v 0.249897 0.098240 -0.314776
v 0.222498 0.033712 -0.340588
v 0.115350 0.224350 -0.148726
v 0.187260 -0.009843 -0.241366
v -0.148254 0.085372 -0.191005
v 0.005788 -0.266970 0.352787
v -0.169421 0.119633 -0.145211
v -0.057919 -0.266184 0.328426
v 0.211822 0.163250 -0.297218
v 0.237207 0.112942 -0.081201
v 0.248047 -0.135790 -0.151253
v 0.232841 0.047468 -0.081681
v 0.240594 -0.165052 -0.137646
vt 0.894037 0.813454
vt 0.845895 0.781731
vt 0.098454 0.748523
vt 0.086522 0.707468
vt 0.846501 0.746385
vt 0.900021 0.776057
vt 0.748666 0.721338
vt 0.124246 0.729539
vt 0.125637 0.762797
vt 0.748737 0.765469
vt 0.336034 0.756528
vt 0.333030 0.773145
vt 0.259342 0.776789
vt 0.255449 0.761999
vt 0.870091 0.822594
vt 0.186617 0.773692
vt 0.827119 0.805244
vt 0.748920 0.796827
vt 0.186097 0.754531
vt 0.808648 0.904248
vt 0.764890 0.914089
vt 0.326960 0.732341
vt 0.727202 0.908883
vt 0.711408 0.981541
vt 0.674261 0.956978
vt 0.640387 0.746210
vt 0.668872 0.705773
vt 0.748251 0.700025
vt 0.255182 0.734015
vt 0.363450 0.727740
vt 0.349068 0.657387
vt 0.366578 0.650432
vt 0.634894 0.779305
vt 0.671503 0.814733
vt 0.666440 0.914956
vt 0.597760 0.911929
vt 0.622235 0.884894
vt 0.626734 0.925759
vt 0.202469 0.516198
vt 0.262563 0.484976
vt 0.260387 0.520209
vt 0.196578 0.730692
vt 0.217391 0.630926
vt 0.658154 0.850836
vt 0.603111 0.866727
vt 0.557702 0.875915
vt 0.585147 0.847193
vt 0.614568 0.844184
vt 0.610583 0.831526
vt 0.257142 0.626546
vt 0.312050 0.638599
vt 0.324119 0.625542
vt 0.257482 0.610690
vt 0.147487 0.720472
vt 0.655805 0.822188
vt 0.606121 0.784786
vt 0.654706 0.831289
vt 0.610337 0.752525
vt 0.640752 0.735935
vt 0.672300 0.672589
vt 0.175306 0.660107
vt 0.395033 0.723055
vt 0.397619 0.756741
vt 0.211519 0.812713
vt 0.684240 0.694767
vt 0.172434 0.810419
vt 0.271744 0.814688
vt 0.320548 0.807176
vt 0.231595 0.837424
vt 0.276963 0.839458
vt 0.322891 0.822267
vt 0.375943 0.792893
vt 0.847603 0.716808
vt 0.209396 0.850839
vt 0.270406 0.865452
vt 0.151572 0.806418
vt 0.189999 0.866729
vt 0.251649 0.879801
vt 0.238155 0.890039
vt 0.310311 0.898748
vt 0.327382 0.879259
vt 0.412758 0.748616
vt 0.392988 0.788639
vt 0.372489 0.806759
vt 0.409726 0.820666
vt 0.408456 0.826939
vt 0.368029 0.860187
vt 0.376558 0.841952
vt 0.438140 0.792542
vt 0.436056 0.774441
vt 0.453278 0.781476
vt 0.439027 0.801751
vt 0.438300 0.809951
vt 0.447662 0.760468
vt 0.415376 0.807115
vt 0.326828 0.840331
vt 0.335139 0.862029
vt 0.423082 0.733312
vt 0.417458 0.751699
vt 0.397422 0.799199
vt 0.389084 0.819458
vt 0.411319 0.781232
vt 0.431356 0.752535
vt 0.338530 0.522746
vt 0.339650 0.568711
vt 0.258964 0.550603
vt 0.405015 0.603591
vt 0.887789 0.729882
vt 0.404461 0.679157
vt 0.420217 0.697120
vt 0.411112 0.704499
vt 0.393760 0.697016
vt 0.414906 0.585897
vt 0.875208 0.696824
vt 0.831817 0.691455
vt 0.854484 0.670899
vt 0.750429 0.683154
vt 0.749926 0.657800
vt 0.260675 0.469688
vt 0.121866 0.567795
vt 0.187165 0.556278
vt 0.121352 0.606255
vt 0.159073 0.655132
vt 0.118068 0.691679
vt 0.212793 0.618879
vt 0.365049 0.688212
vt 0.355050 0.686651
vt 0.256139 0.681502
vt 0.206544 0.682924
vt 0.318836 0.681266
vt 0.164795 0.682914
vt 0.153994 0.683774
vt 0.258368 0.601734
vt 0.235188 0.614775
vt 0.232468 0.629265
vt 0.256628 0.654699
vt 0.279736 0.631506
vt 0.283729 0.616540
vt 0.257965 0.605458
vt 0.247266 0.612562
vt 0.242582 0.628151
vt 0.256782 0.646259
vt 0.273051 0.614160
vt 0.271641 0.629729
vt 0.176244 0.682917
vt 0.348730 0.685711
vt 0.322930 0.707004
vt 0.255644 0.708684
vt 0.201343 0.707852
vt 0.167482 0.695907
vt 0.255501 0.716522
vt 0.200575 0.711531
vt 0.323838 0.712716
vt 0.308063 0.710996
vt 0.381109 0.709839
vt 0.637309 0.764754
vt 0.446566 0.791025
vt 0.445608 0.792388
vt 0.445799 0.795695
vt 0.569060 0.864028
vt 0.593879 0.856688
vt 0.331882 0.869264
vt 0.444499 0.798166
vt 0.571442 0.861535
vt 0.648839 0.839777
vt 0.821393 0.854032
vt 0.799680 0.855591
vt 0.259725 0.534342
vt 0.225106 0.529984
vt 0.438624 0.801844
vt 0.395810 0.790908
vt 0.626169 0.749198
vt 0.640574 0.740947
vt 0.405084 0.770160
vn -0.971139 0.235216 -0.039522
vn -0.744969 -0.027155 -0.666546
vn -0.955218 -0.256733 0.147132
vn -0.703156 -0.558460 -0.440106
vn -0.396282 0.786635 0.473461
vn -0.395687 0.861043 0.319433
vn -0.803925 0.533642 0.262548
vn -0.707619 0.702863 0.072517
vn -0.076630 0.924183 0.374185
vn 0.025460 0.807534 0.589272
vn -0.305126 0.914110 0.267021
vn 0.290608 0.881907 0.371197
vn 0.554710 0.820718 0.136816
vn 0.362476 0.907420 0.212604
vn 0.654891 0.752486 0.069875
vn -0.366979 0.928460 0.057341
vn -0.061717 0.439793 -0.895976
vn 0.205668 0.492398 -0.845721
vn 0.716350 0.676087 -0.172478
vn 0.660498 0.740529 -0.123934
vn -0.054010 0.006259 -0.998521
vn -0.043260 0.540089 -0.840495
vn -0.381155 0.132922 -0.914906
vn 0.689746 0.720300 0.073610
vn 0.683262 0.651144 0.330400
vn 0.703148 0.685579 0.188586
vn 0.815844 0.576171 0.049249
vn -0.033257 -0.935442 -0.351912
vn -0.544082 -0.750438 -0.375257
vn -0.115315 -0.837647 -0.533900
vn -0.672745 -0.644585 -0.363214
vn -0.637695 -0.765056 0.089636
vn 0.007796 -0.998221 -0.059106
vn -0.950478 -0.281089 0.132590
vn -0.975468 -0.170318 0.139479
vn -0.896426 0.139952 0.420516
vn -0.865908 0.127906 0.483574
vn -0.022712 -0.286066 0.957941
vn -0.250136 -0.572039 0.781156
vn 0.715385 -0.314718 0.623840
vn 0.919476 0.191330 0.343448
vn -0.749665 -0.399837 0.527384
vn -0.929982 0.198094 0.309665
vn -0.757995 0.620351 0.201514
vn -0.678009 0.724304 0.125247
vn -0.155157 0.986480 0.052754
vn -0.275306 0.957330 0.087901
vn 0.788122 0.601397 0.131093
vn 0.750067 0.659954 0.043136
vn 0.595029 0.533881 0.600760
vn -0.104469 0.891592 0.440625
vn -0.113614 0.608961 0.785021
vn 0.568771 -0.031836 0.821880
vn -0.047194 -0.213012 0.975909
vn 0.002478 -0.357806 0.933793
vn -0.534546 -0.135903 0.834141
vn -0.620940 0.521983 0.584780
vn 0.210449 0.793459 0.571081
vn 0.427525 0.253046 0.867865
vn 0.294529 0.822283 0.486932
vn 0.707452 0.167734 0.686568
vn -0.417519 0.513532 0.749642
vn -0.405179 0.702603 0.584961
vn -0.528242 0.482028 0.699006
vn -0.165031 0.774428 0.610759
vn 0.497636 0.738190 0.455449
vn 0.876550 0.169413 0.450510
vn -0.475023 0.395053 0.786312
vn -0.200209 0.565388 0.800158
vn 0.233272 0.352688 0.906198
vn -0.344091 0.627922 0.698080
vn -0.418466 0.448890 0.789547
vn 0.185960 0.211723 0.959475
vn 0.880560 0.132186 0.455128
vn 0.238360 0.189820 0.952446
vn -0.445954 -0.503454 0.740040
vn 0.306847 -0.557848 0.771136
vn -0.293994 -0.580423 0.759393
vn 0.262377 -0.922291 0.283790
vn -0.022964 -0.945920 0.323588
vn -0.011945 -0.822380 0.568814
vn -0.363033 -0.138339 0.921450
vn -0.719444 -0.241727 0.651128
vn 0.022368 -0.591264 0.806168
vn 0.340312 -0.513805 0.787523
vn 0.171251 -0.760322 0.626565
vn 0.251988 -0.955671 0.152299
vn 0.002641 -0.500323 0.865835
vn -0.665819 -0.432329 0.608092
vn -0.425003 -0.058417 0.903305
vn -0.026441 -0.298039 0.954187
vn -0.127690 0.778038 0.615103
vn -0.081283 0.688633 0.720540
vn -0.466917 -0.633707 0.616769
vn -0.904819 0.049413 0.422919
vn -0.338446 -0.519604 0.784516
vn 0.921690 -0.186294 0.340267
vn 0.353349 -0.763006 0.541264
vn 0.864357 0.133212 0.484913
vn 0.414174 -0.714086 0.564395
vn 0.495052 0.036948 0.868078
vn -0.338865 0.557143 0.758131
vn -0.130560 -0.123749 0.983687
vn -0.045542 -0.263869 0.963483
vn 0.371356 -0.549970 0.748083
vn 0.324689 -0.622219 0.712335
vn 0.082478 -0.596285 0.798525
vn 0.238362 0.189820 0.952445
vn 0.398887 0.774763 0.490542
vn -0.191341 -0.725924 0.660624
vn 0.588730 -0.166792 0.790934
vn -0.325434 0.938699 0.113740
vn 0.340605 -0.781562 0.522638
vn 0.082476 -0.596285 0.798525
vn 0.406785 -0.050335 0.912136
vn 0.356349 0.840002 0.409161
vn 0.817664 0.483434 0.312598
vn 0.643498 -0.509638 0.571121
vn 0.895072 -0.301404 0.328635
vn 0.930807 0.361367 -0.054884
vn -0.174124 -0.769208 -0.614818
vn -0.173209 -0.345699 -0.922220
vn 0.358664 0.913094 0.193960
vn 0.034743 0.998669 0.038113
vn -0.268991 0.800427 -0.535687
vn 0.574671 0.802336 0.161275
vn -0.447878 -0.240128 -0.861245
vn 0.597785 0.792105 0.123384
vn 0.462370 0.885651 0.042838
vn 0.841383 0.024877 0.539867
vn 0.594295 -0.575724 0.561566
vn 0.972923 -0.005762 0.231058
vn 0.831938 -0.519484 0.194976
vn -0.265109 0.156686 -0.951402
vn 0.366352 0.053427 -0.928941
vn -0.249751 -0.869858 -0.425409
vn -0.593516 -0.265637 -0.759721
vn 0.112267 -0.963130 -0.244493
vn 0.783871 -0.611435 0.108136
vn -0.467990 -0.850454 0.240235
vn -0.012093 -0.999923 0.002818
vn 0.022243 -0.974135 0.224870
vn -0.833772 0.521426 -0.181492
vn -0.676199 0.714467 -0.179699
vn -0.610868 0.268738 -0.744728
vn -0.858322 0.292776 -0.421385
vn -0.486891 0.297148 -0.821365
vn -0.545776 0.058121 -0.835913
vn 0.450887 -0.818304 0.356481
vn 0.645790 -0.762166 0.045369
vn 0.495022 -0.789235 -0.363402
vn 0.142468 0.089902 0.985708
vn 0.277324 -0.135469 0.951178
vn 0.750447 0.005078 0.660911
vn -0.791875 -0.012916 0.610547
vn -0.362265 -0.185565 0.913417
vn 0.974502 0.010948 0.224111
vn -0.176399 0.342505 0.922808
vn 0.590265 0.031319 -0.806602
vn -0.775172 0.278807 -0.566900
vn -0.352297 -0.196852 0.914952
vn 0.902440 0.425194 -0.069369
vn 0.577179 -0.777328 -0.250250
vn 0.893156 -0.191855 -0.406773
vn 0.445375 0.877445 -0.178132
vn 0.353015 0.895826 -0.269955
vn -0.182442 0.223744 -0.957420
vn -0.138623 -0.145874 -0.979543
vn 0.841597 0.531173 -0.097826
vn 0.932080 0.325774 0.158426
vn 0.911578 0.411026 -0.009129
vn 0.901863 -0.407215 -0.144292
vn 0.915561 -0.401914 0.014619
vn 0.822443 0.352038 -0.446830
vn 0.514174 -0.745564 -0.423979
vn -0.997593 0.040759 0.056095
vn 0.908112 0.173478 -0.381101
vn 0.008539 0.114240 -0.993417
vn 0.427152 -0.498139 -0.754585
vn 0.869646 -0.405670 -0.281331
vn 0.803937 -0.406586 -0.434020
vn -0.193923 -0.167451 -0.966620
vn 0.733823 0.503015 -0.456596
vn -0.916177 0.011702 -0.400602
vn 0.818783 0.403168 -0.408718
vn 0.809098 0.419761 -0.411293
vn 0.251418 -0.827168 0.502575
f 35/1/1 36/2/2 26/6/3
f 26/6/3 36/2/2 27/5/4
f 58/16/5 61/64/6 34/9/7
f 34/9/7 61/64/6 48/66/8
f 61/64/6 58/16/5 49/67/9
f 49/67/9 58/16/5 33/13/10
f 61/64/6 49/67/9 63/69/11
f 63/69/11 49/67/9 7/70/12
f 62/71/13 7/70/12 60/68/14
f 60/68/14 7/70/12 49/67/9
f 50/72/15 62/71/13 60/68/14
f 61/64/6 63/69/11 48/66/8
f 48/66/8 63/69/11 3/74/16
f 94/86/17 85/87/18 93/85/19
f 93/85/19 85/87/18 11/88/20
f 85/38/18 81/35/21 84/25/22
f 84/25/22 81/35/21 82/23/23
f 50/72/15 4/84/24 62/71/13
f 62/71/13 4/84/24 76/96/25
f 91/95/26 93/85/19 78/101/27
f 78/101/27 93/85/19 11/88/20
f 16/117/28 12/115/29 20/28/30
f 20/28/30 12/115/29 19/73/31
f 1/116/32 12/115/29 52/118/33
f 52/118/33 12/115/29 16/117/28
f 26/6/3 27/5/4 18/108/34
f 18/108/34 27/5/4 19/73/31
f 53/114/35 12/115/29 1/116/32
f 18/124/34 53/122/35 111/132/36
f 111/132/36 53/122/35 8/123/37
f 12/115/29 53/114/35 19/73/31
f 19/73/31 53/114/35 18/108/34
f 118/139/38 112/133/39 122/143/40
f 122/143/40 112/133/39 116/138/41
f 118/139/38 119/140/42 112/133/39
f 112/133/39 119/140/42 113/134/43
f 119/140/42 120/141/44 113/134/43
f 113/134/43 120/141/44 114/135/45
f 121/142/46 115/136/47 120/141/44
f 120/141/44 115/136/47 114/135/45
f 122/143/40 116/138/41 123/144/48
f 123/144/48 116/138/41 117/137/49
f 121/142/46 123/144/48 115/136/47
f 115/136/47 123/144/48 117/137/49
f 123/144/50 121/142/51 43/50/52
f 123/144/50 43/50/52 122/143/53
f 122/143/53 43/50/52 14/53/54
f 118/139/55 122/143/53 14/53/54
f 119/140/56 118/139/55 14/53/54
f 43/50/52 120/141/57 14/53/54
f 14/53/54 120/141/57 119/140/56
f 121/142/51 120/141/57 43/50/52
f 117/137/58 116/138/59 70/51/60
f 70/51/60 116/138/59 71/52/61
f 113/134/62 114/135/63 72/125/64
f 72/125/64 114/135/63 69/43/65
f 70/51/60 71/52/61 41/31/66
f 41/31/66 71/52/61 9/32/67
f 111/132/36 8/123/37 110/131/68
f 110/131/68 8/123/37 42/61/69
f 124/145/70 42/61/69 107/129/71
f 107/129/71 42/61/69 69/43/65
f 72/125/64 69/43/65 8/123/37
f 8/123/37 69/43/65 42/61/69
f 42/61/69 124/145/72 110/131/68
f 105/127/73 41/31/66 106/126/74
f 106/126/74 41/31/66 9/32/67
f 125/146/75 41/31/66 105/127/73
f 128/149/76 124/145/77 107/129/78
f 128/149/79 131/152/80 124/145/81
f 110/131/82 124/145/81 129/150/83
f 131/152/80 129/150/83 124/145/81
f 24/29/84 130/151/85 64/22/86
f 130/151/85 133/154/87 64/22/86
f 133/154/87 132/153/88 64/22/86
f 26/4/3 25/8/89 35/3/1
f 35/3/1 25/8/89 34/9/7
f 59/19/90 32/14/91 58/16/5
f 58/16/5 32/14/91 33/13/10
f 25/8/89 59/19/90 34/9/7
f 34/9/7 59/19/90 58/16/5
f 69/43/65 114/135/63 107/129/71
f 115/136/92 108/128/93 114/135/63
f 108/128/93 107/129/71 114/135/63
f 25/8/89 26/4/3 17/54/94
f 17/54/94 26/4/3 18/124/34
f 18/124/34 111/132/95 17/54/94
f 110/131/82 129/150/83 111/132/95
f 111/132/95 129/150/83 17/54/94
f 59/19/90 25/8/89 68/42/96
f 68/42/96 25/8/89 17/54/94
f 59/19/90 68/42/96 32/14/91
f 32/14/91 68/42/96 24/29/84
f 22/112/97 134/155/98 106/126/99
f 106/126/99 134/155/98 23/30/100
f 105/127/101 106/126/99 23/30/100
f 68/42/96 131/152/102 24/29/84
f 24/29/84 131/152/102 130/151/85
f 131/152/102 68/42/96 129/150/83
f 129/150/83 68/42/96 17/54/94
f 127/148/103 128/149/76 108/128/104
f 108/128/104 128/149/76 107/129/78
f 127/148/103 108/128/104 126/147/105
f 126/147/105 108/128/104 109/130/106
f 125/146/107 126/147/105 109/130/106
f 125/146/108 109/130/109 41/31/66
f 41/31/66 109/130/109 70/51/60
f 128/149/79 127/148/110 131/152/80
f 131/152/80 127/148/110 130/151/111
f 130/151/111 127/148/110 133/154/112
f 126/147/113 132/153/88 127/148/110
f 127/148/110 132/153/88 133/154/112
f 70/51/60 109/130/109 117/137/58
f 115/136/92 117/137/58 108/128/93
f 108/128/93 117/137/58 109/130/109
f 132/153/88 126/147/113 64/22/86
f 64/22/86 126/147/113 23/30/100
f 23/30/100 126/147/113 105/127/101
f 126/147/113 125/146/114 105/127/101
f 56/11/115 57/12/116 32/14/91
f 32/14/91 57/12/116 33/13/10
f 57/12/116 60/68/14 33/13/10
f 33/13/10 60/68/14 49/67/9
f 57/12/116 40/63/117 60/68/14
f 60/68/14 40/63/117 50/72/15
f 24/29/84 64/22/86 32/14/91
f 32/14/91 64/22/86 56/11/115
f 57/12/116 56/11/115 40/63/117
f 40/63/117 56/11/115 31/62/118
f 31/62/118 30/111/119 40/63/117
f 40/63/117 30/111/119 39/82/120
f 56/11/115 64/22/86 31/62/118
f 31/62/118 64/22/86 23/30/100
f 30/111/119 31/62/118 134/155/98
f 134/155/98 31/62/118 23/30/100
f 30/111/119 134/155/98 22/112/97
f 28/7/121 27/5/4 37/10/122
f 37/10/122 27/5/4 36/2/2
f 7/70/12 75/75/123 63/69/11
f 63/69/11 75/75/123 3/74/16
f 15/78/124 3/74/16 75/75/123
f 84/80/22 83/79/125 77/81/126
f 77/81/126 83/79/125 15/78/124
f 85/87/18 84/80/22 11/88/20
f 11/88/20 84/80/22 77/81/126
f 95/37/127 81/35/21 94/36/17
f 94/36/17 81/35/21 85/38/18
f 7/70/12 62/71/13 75/75/123
f 75/75/123 62/71/13 76/96/25
f 80/97/128 75/75/123 76/96/25
f 141/162/129 15/78/124 80/97/128
f 80/97/128 15/78/124 75/75/123
f 78/101/27 11/88/20 80/97/128
f 80/97/128 11/88/20 141/162/129
f 11/88/20 77/81/126 141/162/129
f 20/28/30 19/73/31 28/7/121
f 28/7/121 19/73/31 27/5/4
f 15/78/124 141/162/129 77/81/126
f 90/102/130 92/103/131 97/90/132
f 97/90/132 92/103/131 104/94/133
f 82/23/23 81/35/21 45/18/134
f 45/18/134 81/35/21 44/34/135
f 96/44/136 44/34/135 95/37/127
f 95/37/127 44/34/135 81/35/21
f 95/37/127 102/45/137 96/44/136
f 96/44/136 102/45/137 103/48/138
f 142/165/139 96/44/136 104/49/133
f 104/49/133 96/44/136 103/48/138
f 142/165/139 104/49/133 92/57/131
f 66/39/140 65/40/141 6/41/142
f 34/9/7 48/66/8 35/3/1
f 35/3/1 48/66/8 47/76/143
f 3/74/16 10/77/144 48/66/8
f 48/66/8 10/77/144 47/76/143
f 47/15/143 46/17/145 35/1/1
f 35/1/1 46/17/145 36/2/2
f 46/17/145 47/15/143 145/166/146
f 47/15/143 10/20/144 145/166/146
f 10/20/144 5/21/147 145/166/146
f 145/166/146 5/21/147 143/167/148
f 84/25/22 82/23/23 83/24/125
f 83/24/125 82/23/23 5/21/147
f 10/20/144 83/24/125 5/21/147
f 65/40/141 67/104/149 6/41/142
f 66/39/140 1/120/32 65/40/141
f 65/40/141 1/120/32 52/119/33
f 2/60/150 52/118/33 13/65/151
f 13/65/151 52/118/33 16/117/28
f 67/104/149 65/40/141 2/113/150
f 2/113/150 65/40/141 52/119/33
f 54/106/152 144/168/153 73/105/154
f 73/105/154 144/168/153 67/104/149
f 144/168/153 6/41/142 67/104/149
f 54/106/152 74/121/155 146/169/156
f 144/168/153 146/169/156 6/41/142
f 6/41/142 146/169/156 66/39/140
f 146/169/156 74/121/155 66/39/140
f 55/107/157 73/105/154 2/113/150
f 2/113/150 73/105/154 67/104/149
f 72/125/64 8/123/37 74/121/155
f 74/121/155 8/123/37 53/122/35
f 66/39/140 74/121/155 1/120/32
f 1/120/32 74/121/155 53/122/35
f 71/52/61 73/105/154 9/32/67
f 9/32/67 73/105/154 55/107/157
f 112/133/158 54/106/152 116/138/59
f 54/106/152 73/105/154 116/138/59
f 116/138/59 73/105/154 71/52/61
f 106/126/74 9/32/67 22/112/97
f 22/112/97 9/32/67 55/107/157
f 37/10/122 36/2/2 45/18/134
f 45/18/134 36/2/2 46/17/145
f 83/79/125 10/77/144 15/78/124
f 15/78/124 10/77/144 3/74/16
f 5/21/147 82/23/23 143/167/148
f 45/18/134 46/17/145 82/23/23
f 46/17/145 143/167/148 82/23/23
f 38/33/159 37/10/122 44/34/135
f 44/34/135 37/10/122 45/18/134
f 72/125/64 74/121/155 113/134/62
f 54/106/152 112/133/158 74/121/155
f 74/121/155 112/133/158 113/134/62
f 145/166/160 143/167/148 46/17/145
f 146/169/161 144/168/153 54/106/152
f 91/95/26 90/102/130 98/89/162
f 98/89/162 90/102/130 97/90/132
f 21/27/163 13/65/151 20/28/30
f 20/28/30 13/65/151 16/117/28
f 98/89/162 97/90/132 99/91/164
f 93/85/19 91/95/26 100/92/165
f 100/92/165 91/95/26 98/89/162
f 100/92/165 147/170/166 93/85/19
f 101/93/167 94/86/17 147/170/166
f 94/86/17 93/85/19 147/170/166
f 94/36/17 101/46/167 95/37/127
f 95/37/127 101/46/167 102/45/137
f 102/45/137 140/161/168 103/48/138
f 103/48/138 140/161/168 99/47/164
f 104/49/133 103/48/138 99/47/164
f 97/90/132 104/94/133 99/91/164
f 51/83/169 4/84/24 50/72/15
f 79/100/170 76/96/25 4/84/24
f 79/100/170 4/84/24 148/171/171
f 148/171/171 4/84/24 51/83/169
f 91/95/26 78/101/27 90/102/130
f 90/102/130 78/101/27 79/100/170
f 21/27/163 86/59/172 13/65/151
f 13/65/151 86/59/172 2/60/150
f 22/112/97 55/107/157 86/109/172
f 86/109/172 55/107/157 2/113/150
f 51/83/169 50/72/15 39/82/120
f 39/82/120 50/72/15 40/63/117
f 30/111/119 87/110/173 39/82/120
f 39/82/120 87/110/173 88/98/174
f 86/109/172 87/110/173 22/112/97
f 22/112/97 87/110/173 30/111/119
f 29/26/175 21/27/163 28/7/121
f 28/7/121 21/27/163 20/28/30
f 139/159/176 137/157/177 99/91/164
f 140/161/168 102/45/137 138/160/178
f 138/160/178 102/45/137 101/46/167
f 78/101/27 80/97/128 79/100/170
f 79/100/170 80/97/128 76/96/25
f 29/26/175 135/156/179 149/172/180
f 135/156/179 38/33/159 149/172/180
f 38/33/159 88/56/174 149/172/180
f 87/58/173 149/172/180 88/56/174
f 149/172/180 151/173/181 29/26/175
f 147/170/166 136/158/182 101/93/167
f 101/93/167 136/158/182 138/163/178
f 136/158/183 137/157/177 138/163/184
f 138/163/184 137/157/177 139/159/176
f 138/160/184 139/164/176 140/161/168
f 140/161/168 139/164/176 99/47/164
f 150/174/185 148/171/171 51/83/169
f 79/100/170 89/99/186 90/102/130
f 90/102/130 89/99/186 92/103/131
f 89/99/186 150/174/185 88/98/174
f 88/98/174 150/174/185 39/82/120
f 39/82/120 150/174/185 51/83/169
f 96/44/136 142/165/139 44/34/135
f 44/34/135 142/165/139 89/55/186
f 142/165/139 92/57/131 89/55/186
f 89/55/186 88/56/174 44/34/135
f 44/34/135 88/56/174 38/33/159
f 38/33/159 135/156/179 37/10/122
f 29/26/175 28/7/121 135/156/179
f 37/10/122 135/156/179 28/7/121
f 99/91/164 137/157/177 98/89/162
f 137/157/177 136/158/183 98/89/162
f 98/89/162 136/158/183 100/92/165
f 136/158/183 147/170/166 100/92/165
f 87/58/173 86/59/172 149/172/180
f 149/172/180 86/59/172 151/173/187
f 21/27/163 29/26/175 86/59/172
f 151/173/187 86/59/172 29/26/175
f 148/171/171 150/174/185 79/100/170
f 79/100/170 150/174/185 89/99/186
