# This file uses centimeters as units for non-parametric coordinates.

v -0.026020 0.105196 0.080775
v 0.007119 0.135199 0.074198
v 0.034445 0.079097 0.080946
v -0.024973 0.083642 0.038575
v 0.003619 0.124391 0.049472
v 0.029495 0.083642 0.038575
v -0.022031 0.073834 0.027096
v 0.000650 0.073531 0.004752
v 0.022365 0.073834 0.027096
v -0.034717 0.033975 0.013312
v 0.000472 0.033651 -0.010575
v 0.034165 0.033975 0.013312
v -0.043860 -0.022315 0.009113
v 0.002896 -0.022704 -0.004081
v 0.042699 -0.022315 0.009113
v -0.056616 -0.021967 0.034749
v 0.001674 -0.021967 0.034749
v 0.055455 -0.021967 0.034749
v -0.072004 -0.011922 0.081814
v -0.006118 -0.020874 0.081899
v 0.055259 -0.029826 0.081985
v -0.053325 0.043925 0.081282
v 0.000412 0.034972 0.081367
v 0.047318 0.026020 0.081452
v 0.043439 0.034260 0.034213
v -0.041069 0.034260 0.034213
vt 0.806314 0.269335
vt 0.817528 0.274111
vt 0.813609 0.285769
vt 0.798583 0.289635
vt 0.797763 0.272420
vt 0.799332 0.292361
vt 0.795311 0.307108
vt 0.795098 0.295299
vt 0.795719 0.297506
vt 0.780985 0.314514
vt 0.780573 0.301358
vt 0.781601 0.304753
vt 0.760787 0.311653
vt 0.760165 0.303044
vt 0.761572 0.307298
vt 0.761032 0.293039
vt 0.760081 0.290118
vt 0.761902 0.295714
vt 0.761297 0.270117
vt 0.763452 0.266734
vt 0.759088 0.273242
vt 0.781449 0.270577
vt 0.783871 0.267826
vt 0.778942 0.272960
vt 0.781838 0.295246
vt 0.780578 0.291028
vn 0.159077 0.896150 -0.414257
vn 0.173075 0.792377 -0.584964
vn -0.777580 0.573959 -0.256788
vn -0.771602 0.465597 -0.433417
vn 0.923188 0.366664 -0.115248
vn 0.807472 0.426819 -0.407204
vn -0.090710 0.542542 -0.835116
vn -0.748973 0.420330 -0.512213
vn 0.671656 0.417007 -0.612359
vn -0.691714 0.231504 -0.684060
vn 0.011286 0.128604 -0.991632
vn 0.677129 0.230771 -0.698743
vn 0.015478 -0.487953 -0.872733
vn -0.685557 -0.485408 -0.542578
vn 0.668922 -0.489292 -0.559586
vn -0.020621 -0.999727 -0.011006
vn -0.597029 -0.781236 -0.182279
vn 0.874954 -0.446823 -0.186558
vn -0.092894 -0.993696 0.062765
vn -0.949065 -0.210103 -0.234803
vn 0.417434 -0.906168 -0.067881
vn -0.000000 0.009534 0.999955
vn -0.000002 0.009532 0.999955
vn -0.000002 0.009532 0.999955
vn -0.000004 0.009531 0.999955
vn 0.000003 0.009530 0.999955
vn 0.000003 0.009530 0.999955
vn 0.000003 0.009530 0.999955
vn 0.000003 0.009530 0.999955
vn -0.000201 0.008350 0.999965
vn 0.070428 0.034908 0.996906
vn 0.070428 0.034908 0.996906
vn 0.140654 0.061267 0.988161
vn 0.000004 0.009536 0.999955
vn -0.043766 0.043278 0.998104
vn -0.043766 0.043278 0.998104
vn -0.087402 0.076888 0.993201
vn 0.980608 0.195118 -0.018372
vn 0.919499 0.252161 -0.301558
vn -0.900028 0.338809 -0.274152
vn -0.894287 0.281992 -0.347465
f 2/2/1 5/3/2 1/1/3
f 1/1/3 5/3/2 4/4/4
f 2/2/1 3/5/5 5/3/2
f 5/3/2 3/5/5 6/6/6
f 5/3/2 8/7/7 4/4/4
f 4/4/4 8/7/7 7/8/8
f 8/7/7 5/3/2 9/9/9
f 5/3/2 6/6/6 9/9/9
f 7/8/8 8/7/7 10/11/10
f 10/11/10 8/7/7 11/10/11
f 9/9/9 12/12/12 8/7/7
f 8/7/7 12/12/12 11/10/11
f 11/10/11 14/13/13 10/11/10
f 10/11/10 14/13/13 13/14/14
f 11/10/11 12/12/12 14/13/13
f 14/13/13 12/12/12 15/15/15
f 14/13/13 17/16/16 13/14/14
f 13/14/14 17/16/16 16/17/17
f 14/13/13 15/15/15 17/16/16
f 17/16/16 15/15/15 18/18/18
f 17/16/16 20/19/19 16/17/17
f 16/17/17 20/19/19 19/20/20
f 18/18/18 21/21/21 17/16/16
f 17/16/16 21/21/21 20/19/19
f 19/20/22 20/19/23 22/23/24
f 22/23/24 20/19/23 23/22/25
f 21/21/26 24/24/27 20/19/28
f 20/19/28 24/24/27 23/22/29
f 22/23/30 23/22/31 1/1/32
f 1/1/32 23/22/31 2/2/33
f 24/24/34 3/5/35 23/22/36
f 23/22/36 3/5/35 2/2/37
f 21/21/21 18/18/18 24/24/38
f 24/24/38 18/18/18 25/25/39
f 24/24/38 25/25/39 3/5/5
f 3/5/5 25/25/39 6/6/6
f 18/18/18 15/15/15 25/25/39
f 25/25/39 15/15/15 12/12/12
f 6/6/6 25/25/39 9/9/9
f 9/9/9 25/25/39 12/12/12
f 22/23/40 26/26/41 19/20/20
f 19/20/20 26/26/41 16/17/17
f 1/1/3 4/4/4 22/23/40
f 22/23/40 4/4/4 26/26/41
f 16/17/17 26/26/41 13/14/14
f 13/14/14 26/26/41 10/11/10
f 4/4/4 7/8/8 26/26/41
f 26/26/41 7/8/8 10/11/10
