# This file uses centimeters as units for non-parametric coordinates.

v -1.801727 -0.000076 1.801727
v 1.801727 -0.000076 1.801727
v -1.801727 -0.000076 -1.801727
v 1.801727 -0.000076 -1.801727
v 0.000000 -0.706449 0.000000
vt 0.013074 0.013453
vt 0.984853 0.008860
vt 0.008480 0.993762
vt 0.984853 0.993762
vt 0.496667 0.501311
vn 0.000000 0.931006 0.365004
vn 0.000000 0.931006 0.365004
vn 0.000000 0.931006 0.365004
vn 0.365004 0.931006 0.000000
vn 0.365004 0.931006 0.000000
vn 0.365004 0.931006 0.000000
vn 0.000000 0.931006 -0.365004
vn 0.000000 0.931006 -0.365004
vn 0.000000 0.931006 -0.365004
vn -0.365004 0.931006 0.000000
vn -0.365004 0.931006 0.000000
vn -0.365004 0.931006 0.000000
f 3/3/1 5/5/2 4/4/3
f 1/1/4 5/5/5 3/3/6
f 1/1/7 2/2/8 5/5/9
f 4/4/10 5/5/11 2/2/12
