# This file uses centimeters as units for non-parametric coordinates.

v -0.500000 -0.500000 0.000000
v 0.500000 -0.500000 0.000000
v -0.500000 0.500000 0.000000
v 0.500000 0.500000 0.000000
v 0.188385 0.450604 0.000000
v -0.242666 0.450646 -0.000000
v -0.254969 -0.428989 -0.000000
v 0.189937 -0.428713 -0.000000
vt 0.898922 0.627234
vt 0.986399 0.627234
vt 0.898922 0.997220
vt 0.986399 0.997220
vt 0.959140 0.978945
vt 0.921433 0.978960
vt 0.920356 0.653507
vt 0.959275 0.653609
vn 0.000000 0.000000 1.000000
vn 0.000000 0.000000 1.000000
vn 0.000000 0.000000 1.000000
vn 0.000000 0.000000 1.000000
vn 0.000000 0.000000 1.000000
vn -0.000000 -0.000000 1.000000
vn -0.000000 -0.000000 1.000000
vn -0.000000 -0.000000 1.000000
vn 0.000000 0.000000 1.000000
vn -0.000000 0.000000 1.000000
vn -0.000000 0.000000 1.000000
vn -0.000000 0.000000 1.000000
vn -0.000000 0.000000 1.000000
vn 0.000000 -0.000000 1.000000
vn 0.000000 -0.000000 1.000000
vn 0.000000 -0.000000 1.000000
f 1/1/1 7/7/2 3/3/3
f 3/3/3 7/7/2 6/6/4
f 4/4/5 3/3/6 5/5/7
f 5/5/7 3/3/6 6/6/8
f 2/2/9 8/8/10 1/1/11
f 1/1/11 8/8/10 7/7/12
f 2/2/13 4/4/14 8/8/15
f 8/8/15 4/4/14 5/5/16
