# This file uses centimeters as units for non-parametric coordinates.

v 0.211630 -0.974928 -0.068763
v 0.180023 -0.974928 -0.130795
v 0.130795 -0.974928 -0.180023
v 0.068763 -0.974928 -0.211630
v 0.000000 -0.974928 -0.222521
v -0.068763 -0.974928 -0.211630
v -0.130795 -0.974928 -0.180023
v -0.180023 -0.974928 -0.130795
v -0.211630 -0.974928 -0.068763
v -0.222521 -0.974928 0.000000
v -0.211630 -0.974928 0.068763
v -0.180023 -0.974928 0.130795
v -0.130795 -0.974928 0.180023
v -0.068763 -0.974928 0.211630
v -0.000000 -0.974928 0.222521
v 0.068763 -0.974928 0.211630
v 0.130795 -0.974928 0.180023
v 0.180023 -0.974928 0.130795
v 0.211630 -0.974928 0.068763
v 0.222521 -0.974928 0.000000
v 0.412648 -0.900969 -0.134078
v 0.351020 -0.900969 -0.255031
v 0.255031 -0.900969 -0.351020
v 0.134078 -0.900969 -0.412648
v 0.000000 -0.900969 -0.433884
v -0.134078 -0.900969 -0.412648
v -0.255031 -0.900969 -0.351019
v -0.351019 -0.900969 -0.255031
v -0.412648 -0.900969 -0.134077
v -0.433884 -0.900969 0.000000
v -0.412648 -0.900969 0.134077
v -0.351019 -0.900969 0.255031
v -0.255031 -0.900969 0.351019
v -0.134077 -0.900969 0.412648
v -0.000000 -0.900969 0.433884
v 0.134077 -0.900969 0.412648
v 0.255030 -0.900969 0.351019
v 0.351019 -0.900969 0.255030
v 0.412648 -0.900969 0.134077
v 0.433884 -0.900969 0.000000
v 0.592974 -0.815091 -0.192669
v 0.504414 -0.815091 -0.366478
v 0.366478 -0.815091 -0.504414
v 0.192669 -0.815091 -0.592974
v 0.000000 -0.815091 -0.623490
v -0.192669 -0.815091 -0.592974
v -0.366478 -0.815091 -0.504414
v -0.504414 -0.815091 -0.366478
v -0.592974 -0.815091 -0.192669
v -0.623490 -0.815091 0.000000
v -0.592974 -0.815091 0.192669
v -0.504414 -0.815091 0.366478
v -0.366478 -0.781831 0.504414
v -0.192669 -0.781831 0.592974
v -0.000000 -0.781831 0.623490
v 0.192669 -0.781831 0.592974
v 0.366478 -0.781831 0.504414
v 0.504414 -0.815091 0.366478
v 0.592974 -0.815091 0.192669
v 0.623490 -0.815091 0.000000
v 0.743566 -0.684967 -0.241599
v 0.632515 -0.684967 -0.459549
v 0.459549 -0.684967 -0.632515
v 0.241599 -0.684967 -0.743566
v 0.000000 -0.684967 -0.781832
v -0.241599 -0.684967 -0.743566
v -0.459549 -0.684967 -0.632515
v -0.632515 -0.684967 -0.459549
v -0.743566 -0.684967 -0.241599
v -0.781832 -0.684967 0.000000
v -0.743566 -0.684967 0.241599
v -0.632515 -0.684967 0.459549
v -0.459549 -0.684967 0.632515
v -0.241599 -0.684967 0.743566
v -0.000000 -0.684967 0.781832
v 0.241599 -0.684967 0.743566
v 0.459549 -0.684967 0.632515
v 0.632515 -0.684967 0.459549
v 0.743566 -0.684967 0.241599
v 0.781832 -0.684967 0.000000
v 0.856873 -0.505712 -0.278415
v 0.728900 -0.505712 -0.529577
v 0.529577 -0.505712 -0.728900
v 0.278415 -0.505712 -0.856873
v 0.000000 -0.505712 -0.900969
v -0.278415 -0.505712 -0.856873
v -0.529576 -0.505712 -0.728899
v -0.728899 -0.505712 -0.529576
v -0.856873 -0.505712 -0.278415
v -0.900969 -0.505712 -0.000000
v -0.856873 -0.505712 0.278415
v -0.728899 -0.505712 0.529576
v -0.529576 -0.505712 0.728899
v -0.278415 -0.505712 0.856872
v -0.000000 -0.505712 0.900969
v 0.278415 -0.505712 0.856872
v 0.529576 -0.505712 0.728899
v 0.728899 -0.505712 0.529576
v 0.856872 -0.505712 0.278415
v 0.900969 -0.505712 -0.000000
v 0.927212 -0.277229 -0.301269
v 0.788734 -0.277229 -0.573049
v 0.573049 -0.277229 -0.788734
v 0.301269 -0.277229 -0.927212
v 0.000000 -0.277229 -0.974928
v -0.301269 -0.277229 -0.927212
v -0.573048 -0.277229 -0.788734
v -0.788733 -0.277229 -0.573048
v -0.927212 -0.277229 -0.301269
v -0.974928 -0.277229 0.000000
v -0.927212 -0.277229 0.301269
v -0.788733 -0.277229 0.573048
v -0.573048 -0.277229 0.788733
v -0.301269 -0.277229 0.927212
v -0.000000 -0.277229 0.974928
v 0.301269 -0.277229 0.927212
v 0.573048 -0.277229 0.788733
v 0.788733 -0.277229 0.573048
v 0.927212 -0.277229 0.301269
v 0.974928 -0.277229 0.000000
v 0.951057 0.000000 -0.309017
v 0.809018 0.000000 -0.587786
v 0.587786 0.000000 -0.809017
v 0.309017 0.000000 -0.951057
v 0.000000 0.000000 -1.000000
v -0.309017 0.000000 -0.951057
v -0.587785 0.000000 -0.809017
v -0.809017 0.000000 -0.587785
v -0.951057 0.000000 -0.309017
v -1.000000 0.000000 0.000000
v -0.951057 0.000000 0.309017
v -0.809017 0.000000 0.587785
v -0.587785 0.000000 0.809017
v -0.309017 0.000000 0.951057
v -0.000000 0.000000 1.000000
v 0.309017 0.000000 0.951057
v 0.587785 0.000000 0.809017
v 0.809017 0.000000 0.587785
v 0.951057 0.000000 0.309017
v 1.000000 0.000000 0.000000
v 0.927212 0.332619 -0.301269
v 0.788734 0.332619 -0.573049
v 0.573049 0.332619 -0.788734
v 0.301269 0.332619 -0.927212
v 0.000000 0.332619 -0.974928
v -0.301269 0.332619 -0.927212
v -0.573048 0.332619 -0.788734
v -0.788733 0.332619 -0.573048
v -0.927212 0.332619 -0.301269
v -0.974928 0.332619 0.000000
v -0.927212 0.332619 0.301269
v -0.788733 0.332619 0.573048
v -0.573048 0.332619 0.788733
v -0.301269 0.332619 0.927212
v -0.000000 0.332619 0.974928
v 0.301269 0.332619 0.927212
v 0.573048 0.332619 0.788733
v 0.788733 0.332619 0.573048
v 0.927212 0.332619 0.301269
v 0.974928 0.332619 0.000000
v 0.856873 0.525201 -0.278415
v 0.728900 0.525201 -0.529577
v 0.529577 0.525201 -0.728900
v 0.278415 0.525201 -0.856873
v 0.000000 0.525201 -0.900969
v -0.278415 0.525201 -0.856873
v -0.529576 0.525201 -0.728899
v -0.728899 0.525201 -0.529576
v -0.856873 0.525201 -0.278415
v -0.900969 0.525201 0.000000
v -0.856873 0.525201 0.278415
v -0.728899 0.525201 0.529576
v -0.529576 0.525201 0.728899
v -0.278415 0.525201 0.856872
v -0.000000 0.525201 0.900969
v 0.278415 0.525201 0.856872
v 0.529576 0.525201 0.728899
v 0.728899 0.525201 0.529576
v 0.856872 0.525201 0.278415
v 0.900969 0.525201 0.000000
v 0.743566 0.729666 -0.241599
v 0.632515 0.729666 -0.459549
v 0.459549 0.729666 -0.632515
v 0.241599 0.729666 -0.743566
v 0.000000 0.729666 -0.781832
v -0.241599 0.729666 -0.743566
v -0.459549 0.729666 -0.632515
v -0.632515 0.729666 -0.459549
v -0.743566 0.729666 -0.241599
v -0.781832 0.729666 -0.000000
v -0.743566 0.729666 0.241599
v -0.632515 0.729666 0.459549
v -0.459549 0.729666 0.632515
v -0.241599 0.729666 0.743566
v -0.000000 0.729666 0.781832
v 0.241599 0.729666 0.743566
v 0.459549 0.729666 0.632515
v 0.632515 0.729666 0.459549
v 0.743566 0.729666 0.241599
v 0.781832 0.729666 -0.000000
v 0.592974 0.854437 -0.192669
v 0.504414 0.854437 -0.366478
v 0.366478 0.854437 -0.504414
v 0.192669 0.854437 -0.592974
v 0.000000 0.854437 -0.623490
v -0.192669 0.854437 -0.592974
v -0.366478 0.854437 -0.504414
v -0.504414 0.854437 -0.366478
v -0.592974 0.854437 -0.192669
v -0.623490 0.854437 0.000000
v -0.592974 0.854437 0.192669
v -0.504414 0.854437 0.366478
v -0.366478 0.854437 0.504414
v -0.192669 0.854437 0.592974
v -0.000000 0.854437 0.623490
v 0.192669 0.854437 0.592974
v 0.366478 0.854437 0.504414
v 0.504414 0.854437 0.366478
v 0.592974 0.854437 0.192669
v 0.623490 0.854437 0.000000
v 0.412648 0.931578 -0.134078
v 0.351020 0.931578 -0.255031
v 0.255031 0.931578 -0.351020
v 0.134078 0.931578 -0.412648
v 0.000000 0.931578 -0.433884
v -0.134078 0.931578 -0.412648
v -0.255031 0.931578 -0.351019
v -0.351019 0.931578 -0.255031
v -0.412648 0.931578 -0.134077
v -0.433884 0.931578 0.000000
v -0.412648 0.931578 0.134077
v -0.351019 0.931578 0.255031
v -0.255031 0.931578 0.351019
v -0.134077 0.931578 0.412648
v -0.000000 0.931578 0.433884
v 0.134077 0.931578 0.412648
v 0.255030 0.931578 0.351019
v 0.351019 0.931578 0.255030
v 0.412648 0.931578 0.134077
v 0.433884 0.931578 0.000000
v 0.211630 0.974928 -0.068763
v 0.180023 0.974928 -0.130795
v 0.130795 0.974928 -0.180023
v 0.068763 0.974928 -0.211630
v 0.000000 0.974928 -0.222521
v -0.068763 0.974928 -0.211630
v -0.130795 0.974928 -0.180023
v -0.180023 0.974928 -0.130795
v -0.211630 0.974928 -0.068763
v -0.222521 0.974928 0.000000
v -0.211630 0.974928 0.068763
v -0.180023 0.974928 0.130795
v -0.130795 0.974928 0.180023
v -0.068763 0.974928 0.211630
v -0.000000 0.974928 0.222521
v 0.068763 0.974928 0.211630
v 0.130795 0.974928 0.180023
v 0.180023 0.974928 0.130795
v 0.211630 0.974928 0.068763
v 0.222521 0.974928 0.000000
v 0.057667 -1.000000 0.000000
v 0.057667 1.000000 0.000000
vt 0.000000 0.961014
vt 0.050000 0.961014
vt 0.100000 0.961014
vt 0.150000 0.961014
vt 0.200000 0.961014
vt 0.250000 0.961014
vt 0.300000 0.961014
vt 0.350000 0.961014
vt 0.400000 0.961014
vt 0.450000 0.961014
vt 0.500000 0.961014
vt 0.550000 0.961014
vt 0.600000 0.961014
vt 0.650000 0.961014
vt 0.700000 0.961014
vt 0.750000 0.961014
vt 0.800000 0.961014
vt 0.850000 0.961014
vt 0.900000 0.961014
vt 0.950000 0.961014
vt 1.000000 0.961014
vt 0.000000 0.933779
vt 0.050000 0.933779
vt 0.100000 0.933779
vt 0.150000 0.933779
vt 0.200000 0.933779
vt 0.250000 0.933779
vt 0.300000 0.933779
vt 0.350000 0.933779
vt 0.400000 0.933779
vt 0.450000 0.933779
vt 0.500000 0.933779
vt 0.550000 0.933779
vt 0.600000 0.933779
vt 0.650000 0.933779
vt 0.700000 0.933779
vt 0.750000 0.933779
vt 0.800000 0.933779
vt 0.850000 0.933779
vt 0.900000 0.933779
vt 0.950000 0.933779
vt 1.000000 0.933779
vt 0.000000 0.906543
vt 0.050000 0.906543
vt 0.100000 0.906543
vt 0.150000 0.906543
vt 0.200000 0.906543
vt 0.250000 0.906543
vt 0.300000 0.906543
vt 0.350000 0.906543
vt 0.400000 0.906543
vt 0.450000 0.906543
vt 0.500000 0.906543
vt 0.550000 0.906543
vt 0.600000 0.906543
vt 0.650000 0.906543
vt 0.700000 0.906543
vt 0.750000 0.906543
vt 0.800000 0.906543
vt 0.850000 0.906543
vt 0.900000 0.906543
vt 0.950000 0.906543
vt 1.000000 0.906543
vt 0.000000 0.879307
vt 0.050000 0.879307
vt 0.100000 0.879307
vt 0.150000 0.879307
vt 0.200000 0.879307
vt 0.250000 0.879307
vt 0.300000 0.879307
vt 0.350000 0.879307
vt 0.400000 0.879307
vt 0.450000 0.879307
vt 0.500000 0.879307
vt 0.550000 0.879307
vt 0.600000 0.879307
vt 0.650000 0.879307
vt 0.700000 0.879307
vt 0.750000 0.879307
vt 0.800000 0.879307
vt 0.850000 0.879307
vt 0.900000 0.879307
vt 0.950000 0.879307
vt 1.000000 0.879307
vt 0.000000 0.866196
vt 0.050000 0.866196
vt 0.100000 0.866196
vt 0.150000 0.866196
vt 0.200000 0.866196
vt 0.250000 0.866196
vt 0.300000 0.866196
vt 0.350000 0.866196
vt 0.400000 0.866196
vt 0.450000 0.866196
vt 0.500000 0.866196
vt 0.550000 0.866196
vt 0.600000 0.866196
vt 0.650000 0.866196
vt 0.700000 0.866196
vt 0.750000 0.866196
vt 0.800000 0.866196
vt 0.850000 0.866196
vt 0.900000 0.866196
vt 0.950000 0.866196
vt 1.000000 0.866196
vt 0.000000 0.846306
vt 0.050000 0.846306
vt 0.100000 0.846306
vt 0.150000 0.846306
vt 0.200000 0.846306
vt 0.250000 0.846306
vt 0.300000 0.846306
vt 0.350000 0.846306
vt 0.400000 0.846306
vt 0.450000 0.846306
vt 0.500000 0.846306
vt 0.550000 0.846306
vt 0.600000 0.846306
vt 0.650000 0.846306
vt 0.700000 0.846306
vt 0.750000 0.846306
vt 0.800000 0.846306
vt 0.850000 0.846306
vt 0.900000 0.846306
vt 0.950000 0.846306
vt 1.000000 0.846306
vt 0.000000 0.701484
vt 0.050000 0.701484
vt 0.100000 0.701484
vt 0.150000 0.701484
vt 0.200000 0.701484
vt 0.250000 0.701484
vt 0.300000 0.701484
vt 0.350000 0.701484
vt 0.400000 0.701484
vt 0.450000 0.701484
vt 0.500000 0.701484
vt 0.550000 0.701484
vt 0.600000 0.701484
vt 0.650000 0.701484
vt 0.700000 0.701484
vt 0.750000 0.701484
vt 0.800000 0.701484
vt 0.850000 0.701484
vt 0.900000 0.701484
vt 0.950000 0.701484
vt 1.000000 0.701484
vt 0.000000 0.153633
vt 0.050000 0.153633
vt 0.100000 0.153633
vt 0.150000 0.153633
vt 0.200000 0.153633
vt 0.250000 0.153633
vt 0.300000 0.153633
vt 0.350000 0.153633
vt 0.400000 0.153633
vt 0.450000 0.153633
vt 0.500000 0.153633
vt 0.550000 0.153633
vt 0.600000 0.153633
vt 0.650000 0.153633
vt 0.700000 0.153633
vt 0.750000 0.153633
vt 0.800000 0.153633
vt 0.850000 0.153633
vt 0.900000 0.153633
vt 0.950000 0.153633
vt 1.000000 0.153633
vt 0.000000 0.012328
vt 0.050000 0.012328
vt 0.100000 0.012328
vt 0.150000 0.012328
vt 0.200000 0.012328
vt 0.250000 0.012328
vt 0.300000 0.012328
vt 0.350000 0.012328
vt 0.400000 0.012328
vt 0.450000 0.012328
vt 0.500000 0.012328
vt 0.550000 0.012328
vt 0.600000 0.012328
vt 0.650000 0.012328
vt 0.700000 0.012328
vt 0.750000 0.012328
vt 0.800000 0.012328
vt 0.850000 0.012328
vt 0.900000 0.012328
vt 0.950000 0.012328
vt 1.000000 0.012328
vt 0.000000 0.108084
vt 0.050000 0.108084
vt 0.100000 0.108084
vt 0.150000 0.108084
vt 0.200000 0.108084
vt 0.250000 0.108084
vt 0.300000 0.108084
vt 0.350000 0.108084
vt 0.400000 0.108084
vt 0.450000 0.108084
vt 0.500000 0.108084
vt 0.550000 0.108084
vt 0.600000 0.108084
vt 0.650000 0.108084
vt 0.700000 0.108084
vt 0.750000 0.108084
vt 0.800000 0.108084
vt 0.850000 0.108084
vt 0.900000 0.108084
vt 0.950000 0.108084
vt 1.000000 0.108084
vt 0.000000 0.509449
vt 0.050000 0.509449
vt 0.100000 0.509449
vt 0.150000 0.509449
vt 0.200000 0.509449
vt 0.250000 0.509449
vt 0.300000 0.509449
vt 0.350000 0.509449
vt 0.400000 0.509449
vt 0.450000 0.509449
vt 0.500000 0.509449
vt 0.550000 0.509449
vt 0.600000 0.509449
vt 0.650000 0.509449
vt 0.700000 0.509449
vt 0.750000 0.509449
vt 0.800000 0.509449
vt 0.850000 0.509449
vt 0.900000 0.509449
vt 0.950000 0.509449
vt 1.000000 0.509449
vt 0.000000 0.662328
vt 0.050000 0.662328
vt 0.100000 0.662328
vt 0.150000 0.662328
vt 0.200000 0.662328
vt 0.250000 0.662328
vt 0.300000 0.662328
vt 0.350000 0.662328
vt 0.400000 0.662328
vt 0.450000 0.662328
vt 0.500000 0.662328
vt 0.550000 0.662328
vt 0.600000 0.662328
vt 0.650000 0.662328
vt 0.700000 0.662328
vt 0.750000 0.662328
vt 0.800000 0.662328
vt 0.850000 0.662328
vt 0.900000 0.662328
vt 0.950000 0.662328
vt 1.000000 0.662328
vt 0.000000 0.815207
vt 0.050000 0.815207
vt 0.100000 0.815207
vt 0.150000 0.815207
vt 0.200000 0.815207
vt 0.250000 0.815207
vt 0.300000 0.815207
vt 0.350000 0.815207
vt 0.400000 0.815207
vt 0.450000 0.815207
vt 0.500000 0.815207
vt 0.550000 0.815207
vt 0.600000 0.815207
vt 0.650000 0.815207
vt 0.700000 0.815207
vt 0.750000 0.815207
vt 0.800000 0.815207
vt 0.850000 0.815207
vt 0.900000 0.815207
vt 0.950000 0.815207
vt 1.000000 0.815207
vt 0.025000 0.988250
vt 0.075000 0.988250
vt 0.125000 0.988250
vt 0.175000 0.988250
vt 0.225000 0.988250
vt 0.275000 0.988250
vt 0.325000 0.988250
vt 0.375000 0.988250
vt 0.425000 0.988250
vt 0.475000 0.988250
vt 0.525000 0.988250
vt 0.575000 0.988250
vt 0.625000 0.988250
vt 0.675000 0.988250
vt 0.725000 0.988250
vt 0.775000 0.988250
vt 0.825000 0.988250
vt 0.875000 0.988250
vt 0.925000 0.988250
vt 0.975000 0.988250
vt 0.025000 0.968085
vt 0.075000 0.968085
vt 0.125000 0.968085
vt 0.175000 0.968085
vt 0.225000 0.968085
vt 0.275000 0.968085
vt 0.325000 0.968085
vt 0.375000 0.968085
vt 0.425000 0.968085
vt 0.475000 0.968085
vt 0.525000 0.968085
vt 0.575000 0.968085
vt 0.625000 0.968085
vt 0.675000 0.968085
vt 0.725000 0.968085
vt 0.775000 0.968085
vt 0.825000 0.968085
vt 0.875000 0.968085
vt 0.925000 0.968085
vt 0.975000 0.968085
vn 0.249019 -0.965987 -0.069706
vn 0.213256 -0.966677 -0.141623
vn 0.354252 -0.928319 -0.112824
vn 0.302049 -0.928319 -0.216773
vn 0.156970 -0.967629 -0.197621
vn 0.220279 -0.928319 -0.299501
vn 0.087000 -0.968654 -0.232682
vn 0.116947 -0.928319 -0.352913
vn 0.010810 -0.969609 -0.244423
vn 0.002167 -0.928319 -0.371778
vn -0.064302 -0.970414 -0.232726
vn -0.112825 -0.928319 -0.354252
vn -0.131629 -0.971040 -0.199387
vn -0.216773 -0.928319 -0.302049
vn -0.185381 -0.971481 -0.147849
vn -0.299501 -0.928319 -0.220279
vn -0.220998 -0.971741 -0.082943
vn -0.352913 -0.928319 -0.116947
vn -0.235459 -0.971827 -0.010534
vn -0.371779 -0.928319 -0.002167
vn -0.227508 -0.971742 0.062908
vn -0.354252 -0.928319 0.112825
vn -0.197762 -0.971483 0.130810
vn -0.302049 -0.928319 0.216773
vn -0.148665 -0.971044 0.187010
vn -0.224829 -0.910382 0.347356
vn -0.084321 -0.970419 0.226222
vn -0.139115 -0.901009 0.410889
vn -0.010230 -0.969614 0.244425
vn -0.005334 -0.901009 0.433767
vn 0.067000 -0.968660 0.239182
vn 0.128968 -0.901009 0.414186
vn 0.139966 -0.967636 0.209977
vn 0.240093 -0.902345 0.357951
vn 0.200909 -0.966682 0.158621
vn 0.300241 -0.931532 0.205191
vn 0.242529 -0.965990 0.089682
vn 0.352913 -0.928319 0.116947
vn 0.259322 -0.965734 0.010501
vn 0.371779 -0.928319 0.002167
vn 0.504089 -0.849149 -0.157606
vn 0.430714 -0.849149 -0.305665
vn 0.315178 -0.849149 -0.423803
vn 0.168790 -0.849149 -0.500455
vn 0.005879 -0.849149 -0.528120
vn -0.157607 -0.849149 -0.504089
vn -0.305665 -0.849149 -0.430714
vn -0.423803 -0.849149 -0.315178
vn -0.500456 -0.849149 -0.168790
vn -0.528120 -0.849149 -0.005879
vn -0.504089 -0.849149 0.157607
vn -0.412804 -0.839873 0.352431
vn -0.288905 -0.833877 0.470301
vn -0.162582 -0.849898 0.501239
vn 0.000267 -0.849898 0.526947
vn 0.163090 -0.849898 0.501074
vn 0.288143 -0.834985 0.468800
vn 0.378753 -0.862766 0.334934
vn 0.500456 -0.849149 0.168790
vn 0.528121 -0.849149 0.005880
vn 0.707115 -0.670589 -0.224274
vn 0.603201 -0.670589 -0.431809
vn 0.440242 -0.670589 -0.597074
vn 0.234189 -0.670589 -0.703893
vn 0.005212 -0.670589 -0.741811
vn -0.224275 -0.670589 -0.707114
vn -0.431809 -0.670589 -0.603201
vn -0.597074 -0.670589 -0.440242
vn -0.703893 -0.670589 -0.234189
vn -0.741811 -0.670589 -0.005212
vn -0.707114 -0.670589 0.224275
vn -0.579700 -0.687132 0.437946
vn -0.414211 -0.720642 0.555972
vn -0.222133 -0.720642 0.656759
vn -0.008312 -0.720642 0.693258
vn 0.206324 -0.720642 0.661896
vn 0.403887 -0.689069 0.601713
vn 0.556462 -0.699863 0.447820
vn 0.703893 -0.670589 0.234189
vn 0.741811 -0.670589 0.005213
vn 0.857330 -0.434963 -0.275306
vn 0.730294 -0.434963 -0.526761
vn 0.531773 -0.434963 -0.726653
vn 0.281198 -0.434963 -0.855415
vn 0.003097 -0.434963 -0.900443
vn -0.275307 -0.434963 -0.857329
vn -0.526761 -0.434963 -0.730294
vn -0.726653 -0.434963 -0.531773
vn -0.855415 -0.434963 -0.281198
vn -0.900443 -0.434963 -0.003097
vn -0.857329 -0.434963 0.275306
vn -0.730294 -0.434963 0.526761
vn -0.531773 -0.434963 0.726653
vn -0.281198 -0.434963 0.855415
vn -0.003097 -0.434963 0.900443
vn 0.275307 -0.434963 0.857329
vn 0.526761 -0.434963 0.730294
vn 0.726653 -0.434963 0.531773
vn 0.855415 -0.434963 0.281198
vn 0.900443 -0.434963 0.003098
vn 0.932136 -0.200318 -0.301653
vn 0.793298 -0.200318 -0.574936
vn 0.576806 -0.200318 -0.791939
vn 0.303852 -0.200318 -0.931422
vn 0.001156 -0.200318 -0.979730
vn -0.301655 -0.200318 -0.932136
vn -0.574936 -0.200318 -0.793298
vn -0.791939 -0.200317 -0.576806
vn -0.931422 -0.200318 -0.303852
vn -0.979730 -0.200318 -0.001156
vn -0.932136 -0.200317 0.301654
vn -0.793298 -0.200318 0.574936
vn -0.576806 -0.200318 0.791939
vn -0.303852 -0.200318 0.931422
vn -0.001156 -0.200318 0.979730
vn 0.301655 -0.200318 0.932136
vn 0.574936 -0.200318 0.793298
vn 0.791939 -0.200318 0.576806
vn 0.931422 -0.200318 0.303852
vn 0.979730 -0.200317 0.001156
vn 0.951040 -0.007480 -0.308977
vn 0.809013 -0.007480 -0.587743
vn 0.587794 -0.007480 -0.808976
vn 0.309039 -0.007480 -0.951020
vn 0.000032 -0.007480 -0.999972
vn -0.308978 -0.007480 -0.951040
vn -0.587743 -0.007480 -0.809013
vn -0.808976 -0.007480 -0.587794
vn -0.951020 -0.007480 -0.309039
vn -0.999972 -0.007480 -0.000032
vn -0.951040 -0.007480 0.308978
vn -0.809013 -0.007480 0.587743
vn -0.587795 -0.007480 0.808976
vn -0.309039 -0.007480 0.951020
vn -0.000032 -0.007480 0.999972
vn 0.308978 -0.007480 0.951040
vn 0.587743 -0.007480 0.809013
vn 0.808976 -0.007480 0.587795
vn 0.951020 -0.007480 0.309039
vn 0.999972 -0.007480 0.000033
vn 0.927398 0.219268 -0.303074
vn 0.788353 0.219268 -0.574823
vn 0.572138 0.219268 -0.790304
vn 0.299918 0.219268 -0.928424
vn -0.001659 0.219268 -0.975663
vn -0.303075 0.219268 -0.927398
vn -0.574823 0.219268 -0.788353
vn -0.790304 0.219268 -0.572138
vn -0.928424 0.219268 -0.299918
vn -0.975663 0.219268 0.001659
vn -0.927398 0.219268 0.303075
vn -0.788353 0.219268 0.574823
vn -0.572138 0.219268 0.790304
vn -0.299918 0.219268 0.928424
vn 0.001659 0.219268 0.975663
vn 0.303075 0.219268 0.927398
vn 0.574823 0.219268 0.788353
vn 0.790303 0.219268 0.572138
vn 0.928424 0.219268 0.299918
vn 0.975663 0.219268 -0.001658
vn 0.856976 0.432434 -0.280344
vn 0.728401 0.432434 -0.531444
vn 0.528525 0.432434 -0.730522
vn 0.276914 0.432434 -0.858091
vn -0.001804 0.432434 -0.901664
vn -0.280345 0.432434 -0.856976
vn -0.531444 0.432434 -0.728401
vn -0.730522 0.432434 -0.528525
vn -0.858091 0.432434 -0.276914
vn -0.901664 0.432434 0.001804
vn -0.856976 0.432434 0.280345
vn -0.728401 0.432434 0.531444
vn -0.528525 0.432434 0.730522
vn -0.276914 0.432434 0.858091
vn 0.001804 0.432434 0.901664
vn 0.280345 0.432434 0.856976
vn 0.531444 0.432434 0.728401
vn 0.730522 0.432434 0.528525
vn 0.858091 0.432434 0.276914
vn 0.901664 0.432434 -0.001803
vn 0.715533 0.656307 -0.239320
vn 0.606558 0.656307 -0.448720
vn 0.438208 0.656307 -0.614194
vn 0.226964 0.656307 -0.719548
vn -0.006496 0.656307 -0.754466
vn -0.239321 0.656307 -0.715532
vn -0.448720 0.656307 -0.606557
vn -0.614194 0.656307 -0.438208
vn -0.719547 0.656307 -0.226964
vn -0.754466 0.656307 0.006496
vn -0.715533 0.656307 0.239321
vn -0.606557 0.656307 0.448720
vn -0.438208 0.656307 0.614194
vn -0.226965 0.656307 0.719547
vn 0.006496 0.656307 0.754466
vn 0.239321 0.656307 0.715532
vn 0.448720 0.656307 0.606558
vn 0.614194 0.656307 0.438209
vn 0.719548 0.656307 0.226965
vn 0.754466 0.656307 -0.006495
vn 0.476065 0.864468 -0.161426
vn 0.402881 0.864468 -0.300638
vn 0.290260 0.864468 -0.410421
vn 0.149227 0.864468 -0.480029
vn -0.006414 0.864468 -0.502648
vn -0.161427 0.864468 -0.476064
vn -0.300638 0.864467 -0.402881
vn -0.410421 0.864468 -0.290260
vn -0.480029 0.864467 -0.149227
vn -0.502648 0.864467 0.006414
vn -0.476065 0.864467 0.161427
vn -0.402881 0.864467 0.300638
vn -0.290260 0.864467 0.410421
vn -0.149227 0.864467 0.480028
vn 0.006414 0.864467 0.502648
vn 0.161427 0.864467 0.476065
vn 0.300638 0.864467 0.402881
vn 0.410421 0.864467 0.290260
vn 0.480029 0.864467 0.149227
vn 0.502648 0.864468 -0.006413
vn 0.274418 0.956999 -0.094057
vn 0.231922 0.956999 -0.174254
vn 0.166723 0.956999 -0.237393
vn 0.085205 0.956999 -0.277295
vn -0.004654 0.956999 -0.290052
vn -0.094058 0.956999 -0.274418
vn -0.174254 0.956999 -0.231922
vn -0.237393 0.956999 -0.166723
vn -0.277295 0.956999 -0.085205
vn -0.290053 0.956999 0.004654
vn -0.274418 0.956999 0.094058
vn -0.231922 0.956999 0.174254
vn -0.166723 0.956999 0.237393
vn -0.085205 0.956999 0.277295
vn 0.004654 0.956999 0.290053
vn 0.094058 0.956999 0.274418
vn 0.174254 0.956999 0.231922
vn 0.237393 0.956999 0.166724
vn 0.277295 0.956999 0.085205
vn 0.290053 0.956999 -0.004654
vn 0.169057 0.983688 -0.061461
vn 0.139713 0.984169 -0.109046
vn 0.097047 0.984828 -0.143859
vn 0.046593 0.985531 -0.162964
vn -0.006081 0.986181 -0.165560
vn -0.055983 0.986725 -0.152444
vn -0.098885 0.987145 -0.125563
vn -0.131401 0.987439 -0.087735
vn -0.151065 0.987612 -0.042444
vn -0.156427 0.987669 0.006373
vn -0.147126 0.987611 0.054566
vn -0.123909 0.987438 0.098046
vn -0.088575 0.987143 0.133053
vn -0.043865 0.986722 0.156380
vn 0.006658 0.986177 0.165560
vn 0.058707 0.985527 0.159028
vn 0.107349 0.984824 0.136374
vn 0.147197 0.984166 0.098744
vn 0.172991 0.983686 0.049353
vn 0.180744 0.983510 -0.006365
vn 0.015553 -0.999879 0.000000
vn 0.015553 0.999879 0.000000
f 1/1/1 2/2/2 21/22/3
f 21/22/3 2/2/2 22/23/4
f 2/2/2 3/3/5 22/23/4
f 22/23/4 3/3/5 23/24/6
f 3/3/5 4/4/7 23/24/6
f 23/24/6 4/4/7 24/25/8
f 4/4/7 5/5/9 24/25/8
f 24/25/8 5/5/9 25/26/10
f 5/5/9 6/6/11 25/26/10
f 25/26/10 6/6/11 26/27/12
f 6/6/11 7/7/13 26/27/12
f 26/27/12 7/7/13 27/28/14
f 7/7/13 8/8/15 27/28/14
f 27/28/14 8/8/15 28/29/16
f 8/8/15 9/9/17 28/29/16
f 28/29/16 9/9/17 29/30/18
f 9/9/17 10/10/19 29/30/18
f 29/30/18 10/10/19 30/31/20
f 10/10/19 11/11/21 30/31/20
f 30/31/20 11/11/21 31/32/22
f 11/11/21 12/12/23 31/32/22
f 31/32/22 12/12/23 32/33/24
f 12/12/23 13/13/25 32/33/24
f 32/33/24 13/13/25 33/34/26
f 13/13/25 14/14/27 33/34/26
f 33/34/26 14/14/27 34/35/28
f 14/14/27 15/15/29 34/35/28
f 34/35/28 15/15/29 35/36/30
f 15/15/29 16/16/31 35/36/30
f 35/36/30 16/16/31 36/37/32
f 16/16/31 17/17/33 36/37/32
f 36/37/32 17/17/33 37/38/34
f 17/17/33 18/18/35 37/38/34
f 37/38/34 18/18/35 38/39/36
f 18/18/35 19/19/37 38/39/36
f 38/39/36 19/19/37 39/40/38
f 19/19/37 20/20/39 39/40/38
f 39/40/38 20/20/39 40/41/40
f 20/20/39 1/21/1 40/41/40
f 40/41/40 1/21/1 21/42/3
f 21/22/3 22/23/4 41/43/41
f 41/43/41 22/23/4 42/44/42
f 22/23/4 23/24/6 42/44/42
f 42/44/42 23/24/6 43/45/43
f 23/24/6 24/25/8 43/45/43
f 43/45/43 24/25/8 44/46/44
f 24/25/8 25/26/10 44/46/44
f 44/46/44 25/26/10 45/47/45
f 25/26/10 26/27/12 45/47/45
f 45/47/45 26/27/12 46/48/46
f 26/27/12 27/28/14 46/48/46
f 46/48/46 27/28/14 47/49/47
f 27/28/14 28/29/16 47/49/47
f 47/49/47 28/29/16 48/50/48
f 28/29/16 29/30/18 48/50/48
f 48/50/48 29/30/18 49/51/49
f 29/30/18 30/31/20 49/51/49
f 49/51/49 30/31/20 50/52/50
f 30/31/20 31/32/22 50/52/50
f 50/52/50 31/32/22 51/53/51
f 31/32/22 32/33/24 51/53/51
f 51/53/51 32/33/24 52/54/52
f 32/33/24 33/34/26 52/54/52
f 52/54/52 33/34/26 53/55/53
f 33/34/26 34/35/28 53/55/53
f 53/55/53 34/35/28 54/56/54
f 34/35/28 35/36/30 54/56/54
f 54/56/54 35/36/30 55/57/55
f 35/36/30 36/37/32 55/57/55
f 55/57/55 36/37/32 56/58/56
f 36/37/32 37/38/34 56/58/56
f 56/58/56 37/38/34 57/59/57
f 38/39/36 58/60/58 37/38/34
f 37/38/34 58/60/58 57/59/57
f 38/39/36 39/40/38 58/60/58
f 58/60/58 39/40/38 59/61/59
f 39/40/38 40/41/40 59/61/59
f 59/61/59 40/41/40 60/62/60
f 40/41/40 21/42/3 60/62/60
f 60/62/60 21/42/3 41/63/41
f 41/43/41 42/44/42 61/64/61
f 61/64/61 42/44/42 62/65/62
f 42/44/42 43/45/43 62/65/62
f 62/65/62 43/45/43 63/66/63
f 43/45/43 44/46/44 63/66/63
f 63/66/63 44/46/44 64/67/64
f 44/46/44 45/47/45 64/67/64
f 64/67/64 45/47/45 65/68/65
f 45/47/45 46/48/46 65/68/65
f 65/68/65 46/48/46 66/69/66
f 46/48/46 47/49/47 66/69/66
f 66/69/66 47/49/47 67/70/67
f 47/49/47 48/50/48 67/70/67
f 67/70/67 48/50/48 68/71/68
f 48/50/48 49/51/49 68/71/68
f 68/71/68 49/51/49 69/72/69
f 49/51/49 50/52/50 69/72/69
f 69/72/69 50/52/50 70/73/70
f 50/52/50 51/53/51 70/73/70
f 70/73/70 51/53/51 71/74/71
f 51/53/51 52/54/52 71/74/71
f 71/74/71 52/54/52 72/75/72
f 52/54/52 53/55/53 72/75/72
f 72/75/72 53/55/53 73/76/73
f 53/55/53 54/56/54 73/76/73
f 73/76/73 54/56/54 74/77/74
f 54/56/54 55/57/55 74/77/74
f 74/77/74 55/57/55 75/78/75
f 55/57/55 56/58/56 75/78/75
f 75/78/75 56/58/56 76/79/76
f 56/58/56 57/59/57 76/79/76
f 76/79/76 57/59/57 77/80/77
f 58/60/58 78/81/78 57/59/57
f 57/59/57 78/81/78 77/80/77
f 58/60/58 59/61/59 78/81/78
f 78/81/78 59/61/59 79/82/79
f 59/61/59 60/62/60 79/82/79
f 79/82/79 60/62/60 80/83/80
f 60/62/60 41/63/41 80/83/80
f 80/83/80 41/63/41 61/84/61
f 61/64/61 62/65/62 81/85/81
f 81/85/81 62/65/62 82/86/82
f 62/65/62 63/66/63 82/86/82
f 82/86/82 63/66/63 83/87/83
f 63/66/63 64/67/64 83/87/83
f 83/87/83 64/67/64 84/88/84
f 64/67/64 65/68/65 84/88/84
f 84/88/84 65/68/65 85/89/85
f 65/68/65 66/69/66 85/89/85
f 85/89/85 66/69/66 86/90/86
f 66/69/66 67/70/67 86/90/86
f 86/90/86 67/70/67 87/91/87
f 67/70/67 68/71/68 87/91/87
f 87/91/87 68/71/68 88/92/88
f 68/71/68 69/72/69 88/92/88
f 88/92/88 69/72/69 89/93/89
f 69/72/69 70/73/70 89/93/89
f 89/93/89 70/73/70 90/94/90
f 70/73/70 71/74/71 90/94/90
f 90/94/90 71/74/71 91/95/91
f 71/74/71 72/75/72 91/95/91
f 91/95/91 72/75/72 92/96/92
f 72/75/72 73/76/73 92/96/92
f 92/96/92 73/76/73 93/97/93
f 73/76/73 74/77/74 93/97/93
f 93/97/93 74/77/74 94/98/94
f 74/77/74 75/78/75 94/98/94
f 94/98/94 75/78/75 95/99/95
f 75/78/75 76/79/76 95/99/95
f 95/99/95 76/79/76 96/100/96
f 76/79/76 77/80/77 96/100/96
f 96/100/96 77/80/77 97/101/97
f 77/80/77 78/81/78 97/101/97
f 97/101/97 78/81/78 98/102/98
f 78/81/78 79/82/79 98/102/98
f 98/102/98 79/82/79 99/103/99
f 79/82/79 80/83/80 99/103/99
f 99/103/99 80/83/80 100/104/100
f 80/83/80 61/84/61 100/104/100
f 100/104/100 61/84/61 81/105/81
f 81/85/81 82/86/82 101/106/101
f 101/106/101 82/86/82 102/107/102
f 82/86/82 83/87/83 102/107/102
f 102/107/102 83/87/83 103/108/103
f 83/87/83 84/88/84 103/108/103
f 103/108/103 84/88/84 104/109/104
f 84/88/84 85/89/85 104/109/104
f 104/109/104 85/89/85 105/110/105
f 85/89/85 86/90/86 105/110/105
f 105/110/105 86/90/86 106/111/106
f 86/90/86 87/91/87 106/111/106
f 106/111/106 87/91/87 107/112/107
f 87/91/87 88/92/88 107/112/107
f 107/112/107 88/92/88 108/113/108
f 88/92/88 89/93/89 108/113/108
f 108/113/108 89/93/89 109/114/109
f 89/93/89 90/94/90 109/114/109
f 109/114/109 90/94/90 110/115/110
f 90/94/90 91/95/91 110/115/110
f 110/115/110 91/95/91 111/116/111
f 91/95/91 92/96/92 111/116/111
f 111/116/111 92/96/92 112/117/112
f 92/96/92 93/97/93 112/117/112
f 112/117/112 93/97/93 113/118/113
f 93/97/93 94/98/94 113/118/113
f 113/118/113 94/98/94 114/119/114
f 94/98/94 95/99/95 114/119/114
f 114/119/114 95/99/95 115/120/115
f 95/99/95 96/100/96 115/120/115
f 115/120/115 96/100/96 116/121/116
f 96/100/96 97/101/97 116/121/116
f 116/121/116 97/101/97 117/122/117
f 97/101/97 98/102/98 117/122/117
f 117/122/117 98/102/98 118/123/118
f 98/102/98 99/103/99 118/123/118
f 118/123/118 99/103/99 119/124/119
f 99/103/99 100/104/100 119/124/119
f 119/124/119 100/104/100 120/125/120
f 100/104/100 81/105/81 120/125/120
f 120/125/120 81/105/81 101/126/101
f 101/106/101 102/107/102 121/127/121
f 121/127/121 102/107/102 122/128/122
f 102/107/102 103/108/103 122/128/122
f 122/128/122 103/108/103 123/129/123
f 103/108/103 104/109/104 123/129/123
f 123/129/123 104/109/104 124/130/124
f 104/109/104 105/110/105 124/130/124
f 124/130/124 105/110/105 125/131/125
f 105/110/105 106/111/106 125/131/125
f 125/131/125 106/111/106 126/132/126
f 106/111/106 107/112/107 126/132/126
f 126/132/126 107/112/107 127/133/127
f 107/112/107 108/113/108 127/133/127
f 127/133/127 108/113/108 128/134/128
f 108/113/108 109/114/109 128/134/128
f 128/134/128 109/114/109 129/135/129
f 109/114/109 110/115/110 129/135/129
f 129/135/129 110/115/110 130/136/130
f 110/115/110 111/116/111 130/136/130
f 130/136/130 111/116/111 131/137/131
f 111/116/111 112/117/112 131/137/131
f 131/137/131 112/117/112 132/138/132
f 112/117/112 113/118/113 132/138/132
f 132/138/132 113/118/113 133/139/133
f 113/118/113 114/119/114 133/139/133
f 133/139/133 114/119/114 134/140/134
f 114/119/114 115/120/115 134/140/134
f 134/140/134 115/120/115 135/141/135
f 115/120/115 116/121/116 135/141/135
f 135/141/135 116/121/116 136/142/136
f 116/121/116 117/122/117 136/142/136
f 136/142/136 117/122/117 137/143/137
f 117/122/117 118/123/118 137/143/137
f 137/143/137 118/123/118 138/144/138
f 118/123/118 119/124/119 138/144/138
f 138/144/138 119/124/119 139/145/139
f 119/124/119 120/125/120 139/145/139
f 139/145/139 120/125/120 140/146/140
f 120/125/120 101/126/101 140/146/140
f 140/146/140 101/126/101 121/147/121
f 121/127/121 122/128/122 141/148/141
f 141/148/141 122/128/122 142/149/142
f 122/128/122 123/129/123 142/149/142
f 142/149/142 123/129/123 143/150/143
f 123/129/123 124/130/124 143/150/143
f 143/150/143 124/130/124 144/151/144
f 124/130/124 125/131/125 144/151/144
f 144/151/144 125/131/125 145/152/145
f 125/131/125 126/132/126 145/152/145
f 145/152/145 126/132/126 146/153/146
f 126/132/126 127/133/127 146/153/146
f 146/153/146 127/133/127 147/154/147
f 127/133/127 128/134/128 147/154/147
f 147/154/147 128/134/128 148/155/148
f 128/134/128 129/135/129 148/155/148
f 148/155/148 129/135/129 149/156/149
f 129/135/129 130/136/130 149/156/149
f 149/156/149 130/136/130 150/157/150
f 130/136/130 131/137/131 150/157/150
f 150/157/150 131/137/131 151/158/151
f 131/137/131 132/138/132 151/158/151
f 151/158/151 132/138/132 152/159/152
f 132/138/132 133/139/133 152/159/152
f 152/159/152 133/139/133 153/160/153
f 133/139/133 134/140/134 153/160/153
f 153/160/153 134/140/134 154/161/154
f 134/140/134 135/141/135 154/161/154
f 154/161/154 135/141/135 155/162/155
f 135/141/135 136/142/136 155/162/155
f 155/162/155 136/142/136 156/163/156
f 136/142/136 137/143/137 156/163/156
f 156/163/156 137/143/137 157/164/157
f 137/143/137 138/144/138 157/164/157
f 157/164/157 138/144/138 158/165/158
f 138/144/138 139/145/139 158/165/158
f 158/165/158 139/145/139 159/166/159
f 139/145/139 140/146/140 159/166/159
f 159/166/159 140/146/140 160/167/160
f 140/146/140 121/147/121 160/167/160
f 160/167/160 121/147/121 141/168/141
f 141/148/141 142/149/142 161/169/161
f 161/169/161 142/149/142 162/170/162
f 142/149/142 143/150/143 162/170/162
f 162/170/162 143/150/143 163/171/163
f 143/150/143 144/151/144 163/171/163
f 163/171/163 144/151/144 164/172/164
f 144/151/144 145/152/145 164/172/164
f 164/172/164 145/152/145 165/173/165
f 145/152/145 146/153/146 165/173/165
f 165/173/165 146/153/146 166/174/166
f 146/153/146 147/154/147 166/174/166
f 166/174/166 147/154/147 167/175/167
f 147/154/147 148/155/148 167/175/167
f 167/175/167 148/155/148 168/176/168
f 148/155/148 149/156/149 168/176/168
f 168/176/168 149/156/149 169/177/169
f 149/156/149 150/157/150 169/177/169
f 169/177/169 150/157/150 170/178/170
f 150/157/150 151/158/151 170/178/170
f 170/178/170 151/158/151 171/179/171
f 151/158/151 152/159/152 171/179/171
f 171/179/171 152/159/152 172/180/172
f 152/159/152 153/160/153 172/180/172
f 172/180/172 153/160/153 173/181/173
f 153/160/153 154/161/154 173/181/173
f 173/181/173 154/161/154 174/182/174
f 154/161/154 155/162/155 174/182/174
f 174/182/174 155/162/155 175/183/175
f 155/162/155 156/163/156 175/183/175
f 175/183/175 156/163/156 176/184/176
f 156/163/156 157/164/157 176/184/176
f 176/184/176 157/164/157 177/185/177
f 157/164/157 158/165/158 177/185/177
f 177/185/177 158/165/158 178/186/178
f 158/165/158 159/166/159 178/186/178
f 178/186/178 159/166/159 179/187/179
f 159/166/159 160/167/160 179/187/179
f 179/187/179 160/167/160 180/188/180
f 160/167/160 141/168/141 180/188/180
f 180/188/180 141/168/141 161/189/161
f 161/169/161 162/170/162 181/190/181
f 181/190/181 162/170/162 182/191/182
f 162/170/162 163/171/163 182/191/182
f 182/191/182 163/171/163 183/192/183
f 163/171/163 164/172/164 183/192/183
f 183/192/183 164/172/164 184/193/184
f 164/172/164 165/173/165 184/193/184
f 184/193/184 165/173/165 185/194/185
f 165/173/165 166/174/166 185/194/185
f 185/194/185 166/174/166 186/195/186
f 166/174/166 167/175/167 186/195/186
f 186/195/186 167/175/167 187/196/187
f 167/175/167 168/176/168 187/196/187
f 187/196/187 168/176/168 188/197/188
f 168/176/168 169/177/169 188/197/188
f 188/197/188 169/177/169 189/198/189
f 169/177/169 170/178/170 189/198/189
f 189/198/189 170/178/170 190/199/190
f 170/178/170 171/179/171 190/199/190
f 190/199/190 171/179/171 191/200/191
f 171/179/171 172/180/172 191/200/191
f 191/200/191 172/180/172 192/201/192
f 172/180/172 173/181/173 192/201/192
f 192/201/192 173/181/173 193/202/193
f 173/181/173 174/182/174 193/202/193
f 193/202/193 174/182/174 194/203/194
f 174/182/174 175/183/175 194/203/194
f 194/203/194 175/183/175 195/204/195
f 175/183/175 176/184/176 195/204/195
f 195/204/195 176/184/176 196/205/196
f 176/184/176 177/185/177 196/205/196
f 196/205/196 177/185/177 197/206/197
f 177/185/177 178/186/178 197/206/197
f 197/206/197 178/186/178 198/207/198
f 178/186/178 179/187/179 198/207/198
f 198/207/198 179/187/179 199/208/199
f 179/187/179 180/188/180 199/208/199
f 199/208/199 180/188/180 200/209/200
f 180/188/180 161/189/161 200/209/200
f 200/209/200 161/189/161 181/210/181
f 181/190/181 182/191/182 201/211/201
f 201/211/201 182/191/182 202/212/202
f 182/191/182 183/192/183 202/212/202
f 202/212/202 183/192/183 203/213/203
f 183/192/183 184/193/184 203/213/203
f 203/213/203 184/193/184 204/214/204
f 184/193/184 185/194/185 204/214/204
f 204/214/204 185/194/185 205/215/205
f 185/194/185 186/195/186 205/215/205
f 205/215/205 186/195/186 206/216/206
f 186/195/186 187/196/187 206/216/206
f 206/216/206 187/196/187 207/217/207
f 187/196/187 188/197/188 207/217/207
f 207/217/207 188/197/188 208/218/208
f 188/197/188 189/198/189 208/218/208
f 208/218/208 189/198/189 209/219/209
f 189/198/189 190/199/190 209/219/209
f 209/219/209 190/199/190 210/220/210
f 190/199/190 191/200/191 210/220/210
f 210/220/210 191/200/191 211/221/211
f 191/200/191 192/201/192 211/221/211
f 211/221/211 192/201/192 212/222/212
f 192/201/192 193/202/193 212/222/212
f 212/222/212 193/202/193 213/223/213
f 193/202/193 194/203/194 213/223/213
f 213/223/213 194/203/194 214/224/214
f 194/203/194 195/204/195 214/224/214
f 214/224/214 195/204/195 215/225/215
f 195/204/195 196/205/196 215/225/215
f 215/225/215 196/205/196 216/226/216
f 196/205/196 197/206/197 216/226/216
f 216/226/216 197/206/197 217/227/217
f 197/206/197 198/207/198 217/227/217
f 217/227/217 198/207/198 218/228/218
f 198/207/198 199/208/199 218/228/218
f 218/228/218 199/208/199 219/229/219
f 199/208/199 200/209/200 219/229/219
f 219/229/219 200/209/200 220/230/220
f 200/209/200 181/210/181 220/230/220
f 220/230/220 181/210/181 201/231/201
f 201/211/201 202/212/202 221/232/221
f 221/232/221 202/212/202 222/233/222
f 202/212/202 203/213/203 222/233/222
f 222/233/222 203/213/203 223/234/223
f 203/213/203 204/214/204 223/234/223
f 223/234/223 204/214/204 224/235/224
f 204/214/204 205/215/205 224/235/224
f 224/235/224 205/215/205 225/236/225
f 205/215/205 206/216/206 225/236/225
f 225/236/225 206/216/206 226/237/226
f 206/216/206 207/217/207 226/237/226
f 226/237/226 207/217/207 227/238/227
f 207/217/207 208/218/208 227/238/227
f 227/238/227 208/218/208 228/239/228
f 208/218/208 209/219/209 228/239/228
f 228/239/228 209/219/209 229/240/229
f 209/219/209 210/220/210 229/240/229
f 229/240/229 210/220/210 230/241/230
f 210/220/210 211/221/211 230/241/230
f 230/241/230 211/221/211 231/242/231
f 211/221/211 212/222/212 231/242/231
f 231/242/231 212/222/212 232/243/232
f 212/222/212 213/223/213 232/243/232
f 232/243/232 213/223/213 233/244/233
f 213/223/213 214/224/214 233/244/233
f 233/244/233 214/224/214 234/245/234
f 214/224/214 215/225/215 234/245/234
f 234/245/234 215/225/215 235/246/235
f 215/225/215 216/226/216 235/246/235
f 235/246/235 216/226/216 236/247/236
f 216/226/216 217/227/217 236/247/236
f 236/247/236 217/227/217 237/248/237
f 217/227/217 218/228/218 237/248/237
f 237/248/237 218/228/218 238/249/238
f 218/228/218 219/229/219 238/249/238
f 238/249/238 219/229/219 239/250/239
f 219/229/219 220/230/220 239/250/239
f 239/250/239 220/230/220 240/251/240
f 220/230/220 201/231/201 240/251/240
f 240/251/240 201/231/201 221/252/221
f 221/232/221 222/233/222 241/253/241
f 241/253/241 222/233/222 242/254/242
f 222/233/222 223/234/223 242/254/242
f 242/254/242 223/234/223 243/255/243
f 223/234/223 224/235/224 243/255/243
f 243/255/243 224/235/224 244/256/244
f 224/235/224 225/236/225 244/256/244
f 244/256/244 225/236/225 245/257/245
f 225/236/225 226/237/226 245/257/245
f 245/257/245 226/237/226 246/258/246
f 226/237/226 227/238/227 246/258/246
f 246/258/246 227/238/227 247/259/247
f 227/238/227 228/239/228 247/259/247
f 247/259/247 228/239/228 248/260/248
f 228/239/228 229/240/229 248/260/248
f 248/260/248 229/240/229 249/261/249
f 229/240/229 230/241/230 249/261/249
f 249/261/249 230/241/230 250/262/250
f 230/241/230 231/242/231 250/262/250
f 250/262/250 231/242/231 251/263/251
f 231/242/231 232/243/232 251/263/251
f 251/263/251 232/243/232 252/264/252
f 232/243/232 233/244/233 252/264/252
f 252/264/252 233/244/233 253/265/253
f 233/244/233 234/245/234 253/265/253
f 253/265/253 234/245/234 254/266/254
f 234/245/234 235/246/235 254/266/254
f 254/266/254 235/246/235 255/267/255
f 235/246/235 236/247/236 255/267/255
f 255/267/255 236/247/236 256/268/256
f 236/247/236 237/248/237 256/268/256
f 256/268/256 237/248/237 257/269/257
f 237/248/237 238/249/238 257/269/257
f 257/269/257 238/249/238 258/270/258
f 238/249/238 239/250/239 258/270/258
f 258/270/258 239/250/239 259/271/259
f 239/250/239 240/251/240 259/271/259
f 259/271/259 240/251/240 260/272/260
f 240/251/240 221/252/221 260/272/260
f 260/272/260 221/252/221 241/273/241
f 2/2/2 1/1/1 261/274/261
f 3/3/5 2/2/2 261/275/261
f 4/4/7 3/3/5 261/276/261
f 5/5/9 4/4/7 261/277/261
f 6/6/11 5/5/9 261/278/261
f 7/7/13 6/6/11 261/279/261
f 8/8/15 7/7/13 261/280/261
f 9/9/17 8/8/15 261/281/261
f 10/10/19 9/9/17 261/282/261
f 11/11/21 10/10/19 261/283/261
f 12/12/23 11/11/21 261/284/261
f 13/13/25 12/12/23 261/285/261
f 14/14/27 13/13/25 261/286/261
f 15/15/29 14/14/27 261/287/261
f 16/16/31 15/15/29 261/288/261
f 17/17/33 16/16/31 261/289/261
f 18/18/35 17/17/33 261/290/261
f 19/19/37 18/18/35 261/291/261
f 20/20/39 19/19/37 261/292/261
f 1/21/1 20/20/39 261/293/261
f 241/253/241 242/254/242 262/294/262
f 242/254/242 243/255/243 262/295/262
f 243/255/243 244/256/244 262/296/262
f 244/256/244 245/257/245 262/297/262
f 245/257/245 246/258/246 262/298/262
f 246/258/246 247/259/247 262/299/262
f 247/259/247 248/260/248 262/300/262
f 248/260/248 249/261/249 262/301/262
f 249/261/249 250/262/250 262/302/262
f 250/262/250 251/263/251 262/303/262
f 251/263/251 252/264/252 262/304/262
f 252/264/252 253/265/253 262/305/262
f 253/265/253 254/266/254 262/306/262
f 254/266/254 255/267/255 262/307/262
f 255/267/255 256/268/256 262/308/262
f 256/268/256 257/269/257 262/309/262
f 257/269/257 258/270/258 262/310/262
f 258/270/258 259/271/259 262/311/262
f 259/271/259 260/272/260 262/312/262
f 260/272/260 241/273/241 262/313/262
