# This file uses centimeters as units for non-parametric coordinates.

v -0.487298 -0.493933 0.520841
v 0.548243 -0.393369 0.641348
v -0.487620 0.459062 0.520837
v 0.522579 0.604791 0.673909
v -0.479999 0.320699 -0.767285
v 0.854908 0.483868 -0.587171
v -0.487620 -0.564324 -0.502549
v 0.535767 -0.564324 -0.502549
v 0.041449 -0.590152 0.649434
v 0.064124 0.699934 0.711574
v 0.340275 0.705824 -0.358798
v 0.024073 -0.743417 -0.681642
v -0.673885 0.082675 0.644804
v 0.714859 -0.052631 0.699930
v -0.556865 0.542561 0.142750
v 0.874594 0.622166 0.031379
v -0.524313 -0.100557 -0.644560
v 1.048924 -0.313149 -0.341787
v -0.666713 -0.743417 0.009144
v 0.916807 -0.598918 0.119335
v -0.000954 0.050141 1.020649
v 0.024073 0.868417 0.009144
v 0.024073 -0.052631 -0.911904
v 0.021004 -0.731233 0.407992
v 1.129782 -0.030809 -0.127031
v -1.041993 -0.127305 0.107726
vt 0.500032 0.266667
vt 0.616699 0.317148
vt 0.616699 0.500000
vt 0.500032 0.500000
vt 0.616699 0.682852
vt 0.500032 0.733333
vt 0.383365 0.682852
vt 0.383365 0.500000
vt 0.383365 0.317148
vt 0.733365 0.733333
vt 0.500017 0.966667
vt 0.033365 0.733333
vt 0.150032 0.682852
vt 0.266698 0.733333
vt 0.850032 0.500000
vt 0.033365 0.500000
vt 0.033365 0.266667
vt 0.150032 0.317148
vt 0.150032 0.500000
vt 0.733365 0.266667
vt 0.500017 0.033333
vt 0.266698 0.266667
vt 0.733365 0.500000
vt 0.266698 0.500000
vt 0.966699 0.733333
vt 0.746342 0.698696
vt 0.850032 0.682852
vt 0.966699 0.500000
vt 0.966699 0.266667
vt 0.850032 0.317148
vn -0.008571 -0.706103 0.708058
vn 0.381628 -0.601836 0.701536
vn -0.074224 -0.025727 0.996910
vn 0.730296 -0.042417 0.681813
vn 0.448350 0.642097 0.621847
vn -0.155873 0.768765 0.620246
vn -0.553141 0.666111 0.500331
vn -0.738053 0.188893 0.647763
vn -0.475162 -0.584572 0.657645
vn -0.114316 0.993401 0.009277
vn 0.680301 0.724317 0.112052
vn 0.628765 0.468437 -0.620662
vn -0.023650 0.839001 -0.543616
vn -0.535185 0.453892 -0.712432
vn -0.742970 0.661129 -0.104429
vn 0.017799 -0.056484 -0.998245
vn 0.742721 -0.344529 -0.574165
vn 0.403531 -0.761962 -0.506534
vn -0.022893 -0.840138 -0.541889
vn -0.580823 -0.427334 -0.692843
vn -0.786628 -0.088069 -0.611113
vn 0.079035 -0.954214 0.288494
vn 0.676200 -0.697136 0.238234
vn -0.636238 -0.768206 -0.071140
vn 0.994868 0.051697 0.086983
vn -0.992046 -0.044509 0.117747
f 9/1/1 2/2/2 21/4/3
f 21/4/3 2/2/2 14/3/4
f 14/3/4 4/5/5 21/4/3
f 21/4/3 4/5/5 10/6/6
f 10/6/6 3/7/7 21/4/3
f 21/4/3 3/7/7 13/8/8
f 13/8/8 1/9/9 21/4/3
f 21/4/3 1/9/9 9/1/1
f 10/6/6 4/5/5 22/11/10
f 22/11/10 4/5/5 16/10/11
f 6/27/12 11/25/13 16/26/11
f 16/26/11 11/25/13 22/11/10
f 5/13/14 15/14/15 11/12/13
f 11/12/13 15/14/15 22/11/10
f 15/14/15 3/7/7 22/11/10
f 22/11/10 3/7/7 10/6/6
f 11/25/13 6/27/12 23/28/16
f 23/28/16 6/27/12 18/15/17
f 18/15/17 8/30/18 23/28/16
f 23/28/16 8/30/18 12/29/19
f 12/17/19 7/18/20 23/16/16
f 23/16/16 7/18/20 17/19/21
f 17/19/21 5/13/14 23/16/16
f 23/16/16 5/13/14 11/12/13
f 12/29/19 8/30/18 24/21/22
f 24/21/22 8/30/18 20/20/23
f 20/20/23 2/2/2 24/21/22
f 24/21/22 2/2/2 9/1/1
f 9/1/1 1/9/9 24/21/22
f 24/21/22 1/9/9 19/22/24
f 7/18/20 12/17/19 19/22/24
f 19/22/24 12/17/19 24/21/22
f 8/30/18 18/15/17 20/20/23
f 20/20/23 18/15/17 25/23/25
f 18/15/17 6/27/12 25/23/25
f 25/23/25 6/27/12 16/10/11
f 4/5/5 14/3/4 16/10/11
f 16/10/11 14/3/4 25/23/25
f 2/2/2 20/20/23 14/3/4
f 14/3/4 20/20/23 25/23/25
f 19/22/24 1/9/9 26/24/26
f 26/24/26 1/9/9 13/8/8
f 3/7/7 15/14/15 13/8/8
f 13/8/8 15/14/15 26/24/26
f 5/13/14 17/19/21 15/14/15
f 15/14/15 17/19/21 26/24/26
f 7/18/20 19/22/24 17/19/21
f 17/19/21 19/22/24 26/24/26
