# This file uses centimeters as units for non-parametric coordinates.

v -0.515635 -0.525555 0.522835
v 0.507914 -0.525559 0.613811
v -0.515635 0.504254 0.462993
v 0.507860 0.497009 0.554275
v -0.515647 0.506506 -0.466548
v 0.500517 0.503021 -0.471444
v -0.515635 -0.525552 -0.473050
v 0.507569 -0.525552 -0.473050
v 0.002867 -0.525551 0.383488
v 0.002863 0.493202 0.462286
v 0.002838 0.495212 -0.464296
v 0.002866 -0.525544 -0.469653
v -0.515646 -0.002258 0.664895
v 0.503611 -0.007488 0.647141
v -0.515667 0.495475 0.028857
v 0.496936 0.493199 0.028868
v -0.515637 -0.009340 -0.470356
v 0.503345 -0.019251 -0.479073
v -0.515645 -0.525544 0.028868
v 0.496986 -0.525558 0.029034
v 0.002866 -0.004175 0.664860
v 0.002866 0.483901 0.028868
v 0.002866 -0.007488 -0.465284
v 0.002866 -0.525545 0.029465
v 0.501819 -0.001309 0.029082
v -0.515643 -0.007130 0.028874
v 0.505754 -0.265489 0.442659
v 0.002867 -0.257762 0.339738
v -0.515641 -0.259239 0.407020
v 0.505835 0.256466 0.582786
v 0.002864 0.260153 0.541708
v -0.515640 0.275689 0.539179
vt 0.519502 0.868157
vt 0.536471 0.938609
vt 0.085456 0.457277
vt 0.344336 0.211001
vt 0.780257 0.266232
vt 0.780321 0.167564
vt 0.873692 0.168353
vt 0.183135 0.649366
vt 0.469578 0.936985
vt 0.872610 0.266920
vt 0.953768 0.268023
vt 0.969464 0.363557
vt 0.871604 0.360346
vt 0.778335 0.360365
vt 0.955508 0.169393
vt 0.004688 0.455820
vt 0.786751 0.495645
vt 0.471399 0.866985
vt 0.401598 0.935334
vt 0.403573 0.865333
vt 0.230276 0.618133
vt 0.404594 0.796722
vt 0.473010 0.799838
vt 0.552759 0.800297
vt 0.003799 0.371747
vt 0.230257 0.682598
vt 0.085526 0.371021
vt 0.339998 0.162834
vt 0.168558 0.682550
vt 0.426737 0.165571
vt 0.005184 0.285920
vt 0.166921 0.583049
vt 0.894112 0.470263
vt 0.895589 0.577199
vt 0.786035 0.598344
vt 0.898617 0.686520
vt 0.784943 0.708070
vt 0.670839 0.728907
vt 0.673997 0.620506
vt 0.677139 0.516468
vt 0.428296 0.216704
vt 0.433833 0.060223
vt 0.344459 0.056802
vt 0.343464 0.010679
vt 0.430973 0.017721
vt 0.525590 0.060257
vt 0.522094 0.018857
vt 0.520554 0.166553
vt 0.525798 0.216051
vt 0.346532 0.107070
vt 0.438349 0.108495
vt 0.531372 0.110716
vt 0.176486 0.554901
vt 0.230298 0.556101
vt 0.291623 0.554883
vt 0.292307 0.618501
vt 0.292859 0.682648
vt 0.151124 0.617408
vt 0.085161 0.290570
vt 0.168144 0.292745
vt 0.172728 0.331656
vt 0.151302 0.415729
vt 0.178509 0.458689
vt 0.182923 0.374622
vn 0.021675 0.999517 0.022257
vn 0.021991 0.999503 0.022589
vn 0.021991 0.999503 0.022589
vn 0.022308 0.999488 0.022922
vn -0.014393 0.001965 -0.999894
vn -0.020796 0.008209 -0.999750
vn -0.020796 0.008209 -0.999750
vn -0.027197 0.014451 -0.999526
vn -0.006731 -0.011950 -0.999906
vn -0.017038 -0.001761 -0.999853
vn -0.017038 -0.001761 -0.999853
vn -0.027341 0.008429 -0.999591
vn 0.006552 0.005219 -0.999965
vn 0.008151 0.006825 -0.999944
vn 0.008151 0.006825 -0.999944
vn 0.009750 0.008432 -0.999917
vn 0.004505 0.007381 -0.999963
vn 0.007139 0.004674 -0.999964
vn 0.007139 0.004674 -0.999964
vn 0.009774 0.001967 -0.999950
vn 0.000002 -1.000000 -0.000021
vn 0.000001 -1.000000 -0.000019
vn 0.000001 -1.000000 -0.000019
vn -0.000001 -1.000000 -0.000017
vn 0.000014 -1.000000 0.000015
vn 0.000007 -1.000000 0.000007
vn 0.000007 -1.000000 0.000007
vn -0.000001 -1.000000 -0.000001
vn -0.006241 0.999955 -0.007121
vn -0.012526 0.999819 -0.014286
vn -0.012526 0.999819 -0.014286
vn -0.018811 0.999593 -0.021450
vn -0.015406 0.999691 0.019515
vn -0.017108 0.999628 0.021221
vn -0.017108 0.999628 0.021221
vn -0.018810 0.999560 0.022926
vn 0.021279 0.999569 -0.020216
vn 0.021794 0.999545 -0.020832
vn 0.021794 0.999545 -0.020832
vn 0.022309 0.999521 -0.021448
vn -0.356527 0.511541 0.781802
vn -0.282718 0.342870 0.895829
vn -0.282718 0.342870 0.895829
vn -0.195650 0.158119 0.967843
vn -0.079971 0.117989 0.989790
vn -0.126928 0.219294 0.967367
vn -0.126928 0.219294 0.967367
vn -0.172238 0.317755 0.932398
vn 0.005048 0.322573 0.946531
vn 0.006541 0.319392 0.947600
vn 0.006541 0.319392 0.947600
vn 0.008034 0.316207 0.948656
vn 0.126577 0.159939 0.978978
vn 0.184607 0.276083 0.943238
vn 0.184607 0.276083 0.943238
vn 0.239290 0.387219 0.890394
vn -0.000015 -1.000000 -0.000012
vn -0.000021 -1.000000 -0.000007
vn -0.000021 -1.000000 -0.000007
vn -0.000026 -1.000000 -0.000001
vn -0.000015 -1.000000 -0.000002
vn -0.000021 -1.000000 -0.000009
vn -0.000021 -1.000000 -0.000009
vn -0.000026 -1.000000 -0.000016
vn 0.999741 0.008591 0.021072
vn 0.999926 -0.000314 0.012202
vn 0.999926 -0.000314 0.012202
vn 0.999952 -0.009218 0.003329
vn 0.999982 0.005375 0.002814
vn 0.999958 0.007626 0.005082
vn 0.999958 0.007626 0.005082
vn 0.999924 0.009876 0.007349
vn 0.999881 0.009867 -0.011845
vn 0.999867 -0.000504 -0.016277
vn 0.999867 -0.000504 -0.016277
vn 0.999727 -0.010874 -0.020707
vn 0.999839 -0.009215 -0.015400
vn 0.999833 -0.006603 -0.017042
vn 0.999833 -0.006603 -0.017042
vn 0.999817 -0.003992 -0.018684
vn -1.000000 0.000004 0.000009
vn -1.000000 -0.000003 0.000015
vn -1.000000 -0.000003 0.000015
vn -1.000000 -0.000011 0.000020
vn -1.000000 -0.000049 0.000033
vn -1.000000 -0.000002 0.000053
vn -1.000000 -0.000002 0.000053
vn -1.000000 0.000044 0.000073
vn -1.000000 -0.000019 -0.000041
vn -1.000000 -0.000034 -0.000026
vn -1.000000 -0.000034 -0.000026
vn -1.000000 -0.000049 -0.000011
vn -1.000000 -0.000004 -0.000019
vn -1.000000 0.000000 -0.000015
vn -1.000000 0.000000 -0.000015
vn -1.000000 0.000004 -0.000011
vn 0.999941 0.010519 -0.002795
vn 0.999941 0.010519 -0.002795
vn 0.999941 0.010519 -0.002795
vn -0.136690 -0.781110 0.609247
vn -0.057123 -0.708253 0.703644
vn -0.057123 -0.708253 0.703644
vn 0.023619 -0.620841 0.783581
vn 0.081776 -0.785871 0.612960
vn 0.039711 -0.749141 0.661219
vn 0.039711 -0.749141 0.661219
vn -0.002571 -0.708331 0.705876
vn -1.000000 -0.000016 -0.000004
vn -1.000000 -0.000016 -0.000004
vn -1.000000 -0.000016 -0.000004
vn -1.000000 0.000018 -0.000004
vn -1.000000 0.000018 -0.000004
vn -1.000000 0.000018 -0.000004
vn 0.007903 0.412095 0.911107
vn 0.004762 0.417215 0.908795
vn 0.004762 0.417215 0.908795
vn 0.001622 0.422318 0.906446
vn -0.070756 0.421260 0.904176
vn -0.017527 0.330923 0.943495
vn -0.017527 0.330923 0.943495
vn 0.035922 0.236436 0.970983
vn 0.999954 -0.009151 -0.002991
vn 0.999954 -0.009151 -0.002991
vn 0.999954 -0.009151 -0.002991
f 5/6/1 15/7/2 11/5/3
f 11/5/3 15/7/2 22/10/4
f 11/17/5 6/33/6 23/35/7
f 23/35/7 6/33/6 18/34/8
f 8/36/9 12/37/10 18/34/11
f 18/34/11 12/37/10 23/35/12
f 7/38/13 17/39/14 12/37/15
f 12/37/15 17/39/14 23/35/16
f 5/40/17 11/17/18 17/39/19
f 17/39/19 11/17/18 23/35/20
f 1/2/21 19/9/22 9/1/23
f 9/1/23 19/9/22 24/18/24
f 7/19/25 12/20/26 19/9/27
f 19/9/27 12/20/26 24/18/28
f 4/12/29 16/13/30 10/11/31
f 10/11/31 16/13/30 22/10/32
f 6/14/33 11/5/34 16/13/35
f 16/13/35 11/5/34 22/10/36
f 3/15/37 10/11/38 15/7/39
f 15/7/39 10/11/38 22/10/40
f 2/4/41 27/28/42 9/41/43
f 9/41/43 27/28/42 28/30/44
f 30/43/45 4/44/46 31/42/47
f 31/42/47 4/44/46 10/45/48
f 31/42/49 10/45/50 32/46/51
f 32/46/51 10/45/50 3/47/52
f 28/30/53 29/48/54 9/41/55
f 9/41/55 29/48/54 1/49/56
f 8/22/57 20/23/58 12/20/59
f 12/20/59 20/23/58 24/18/60
f 2/24/61 9/1/62 20/23/63
f 20/23/63 9/1/62 24/18/64
f 8/16/65 18/25/66 20/3/67
f 20/3/67 18/25/66 25/27/68
f 18/25/69 6/31/70 25/27/71
f 25/27/71 6/31/70 16/59/72
f 25/27/73 16/59/74 30/61/75
f 30/61/75 16/59/74 4/60/76
f 25/27/77 27/62/78 20/3/79
f 20/3/79 27/62/78 2/63/80
f 26/21/81 19/26/82 29/8/83
f 29/8/83 19/26/82 1/29/84
f 26/21/85 32/32/86 15/54/87
f 15/54/87 32/32/86 3/53/88
f 5/55/89 17/56/90 15/54/91
f 15/54/91 17/56/90 26/21/92
f 7/57/93 19/26/94 17/56/95
f 17/56/95 19/26/94 26/21/96
f 27/62/97 25/27/98 14/64/99
f 28/30/100 27/28/101 21/51/102
f 21/51/102 27/28/101 14/50/103
f 28/30/104 21/51/105 29/48/106
f 29/48/106 21/51/105 13/52/107
f 26/21/108 29/8/109 13/58/110
f 32/32/111 26/21/112 13/58/113
f 32/46/114 13/52/115 31/42/116
f 31/42/116 13/52/115 21/51/117
f 31/42/118 21/51/119 30/43/120
f 30/43/120 21/51/119 14/50/121
f 25/27/122 30/61/123 14/64/124
