# This file uses centimeters as units for non-parametric coordinates.

v -0.500000 -0.500000 0.000000
v 0.500000 -0.500000 0.000000
v -0.500000 0.500000 0.000000
v 0.500000 0.500000 0.000000
v -0.364999 -0.364999 0.000000
v 0.368326 -0.368326 0.000000
v 0.364168 0.364168 0.000000
v -0.362622 0.362622 0.000000
vt 0.000000 0.000000
vt 1.000000 0.000000
vt 0.000000 1.000000
vt 1.000000 1.000000
vt 0.868326 0.131674
vt 0.135001 0.135001
vt 0.864168 0.864168
vt 0.137378 0.862622
vn 0.000000 0.000000 1.000000
vn 0.000000 0.000000 1.000000
vn 0.000000 0.000000 1.000000
vn 0.000000 0.000000 1.000000
vn 0.000000 0.000000 1.000000
vn 0.000000 0.000000 1.000000
vn 0.000000 0.000000 1.000000
vn 0.000000 0.000000 1.000000
vn 0.000000 0.000000 1.000000
vn 0.000000 0.000000 1.000000
vn 0.000000 0.000000 1.000000
vn 0.000000 0.000000 1.000000
vn 0.000000 0.000000 1.000000
vn 0.000000 0.000000 1.000000
vn 0.000000 0.000000 1.000000
vn 0.000000 0.000000 1.000000
f 6/5/1 5/6/2 2/2/3
f 2/2/3 5/6/2 1/1/4
f 6/5/5 2/2/6 7/7/7
f 7/7/7 2/2/6 4/4/8
f 7/7/9 4/4/10 8/8/11
f 8/8/11 4/4/10 3/3/12
f 3/3/13 1/1/14 8/8/15
f 8/8/15 1/1/14 5/6/16
