# This file uses centimeters as units for non-parametric coordinates.

v -8.755911 4.886189 4.995132
v -0.962529 4.850852 5.012329
v 0.337189 4.868434 4.997724
v -8.650090 -81.972443 4.995130
v -0.945860 -81.972702 4.995354
v 0.332525 -81.971909 4.994533
v 9.420959 4.886189 4.995132
v 1.630630 4.863538 4.999352
v 9.315141 -81.972443 4.995130
v 1.610909 -81.972702 4.995354
v -8.755911 4.623555 4.995132
v -0.960920 4.623914 4.995358
v 0.332527 4.624198 5.001306
v 1.612736 4.623790 5.062200
v 9.420959 4.624631 4.995132
v -5.043364 4.886297 4.995238
v -5.031672 4.623726 4.995240
v -5.053586 -81.972702 4.995233
v 5.260664 4.886312 4.995253
v 5.254301 4.624183 5.030921
v 4.881714 -81.972519 4.995258
v 7.146129 -81.972473 4.995193
v 7.117234 4.624396 5.013924
v 7.122403 4.886256 4.995198
v 7.082067 4.904933 4.995202
v 1.605567 4.863550 4.999321
v -0.978148 4.886417 4.988771
v -5.015832 4.897231 4.982742
v -7.281375 4.886232 4.995174
v -7.247145 4.623624 4.995176
v -7.158509 -81.972702 4.995172
v -7.260006 4.907022 4.981356
v 5.293575 4.887262 4.995250
v 4.414306 4.624092 5.038136
v 4.056294 -81.972305 4.995282
v 4.453952 4.881250 4.996164
v -8.755911 -3.973589 4.995132
v 9.420960 -4.094760 4.995132
v -0.960920 -4.025399 4.995358
v 0.332526 -4.034255 4.995013
v -7.246789 -3.983620 4.995176
v -5.110594 -3.997818 4.995238
v 7.219112 -4.079194 4.996446
v 1.625031 -4.039428 5.000104
v 4.957142 -4.063265 4.997703
v 4.121866 -4.057329 4.998247
v 9.420959 -42.061066 4.995132
v -0.960920 -42.146473 4.995358
v 0.332525 -42.136368 4.994618
v 7.225037 -42.078941 4.995429
v 1.625796 -42.124493 4.996240
v -8.755911 -42.210896 4.995132
v -7.246764 -42.198418 4.995176
v -5.115850 -42.180813 4.995238
v 4.939375 -42.097572 4.995717
v 4.104202 -42.104359 4.995837
vt 0.025766 0.039809
vt 0.404264 0.043610
vt 0.505850 0.046220
vt 0.030547 0.014563
vt 0.402900 0.008431
vt 0.514113 0.009506
vt 0.547539 0.046496
vt 0.997169 0.046818
vt 0.544944 0.008379
vt 0.990037 0.009682
vt 0.514032 0.009506
vt 0.029082 0.019965
vt 0.401242 0.030875
vt 0.505858 0.032296
vt 0.541455 0.027952
vt 0.992738 0.028462
vt 0.263355 0.041673
vt 0.265739 0.021462
vt 0.264616 0.017255
vt 0.820586 0.046227
vt 0.825525 0.028697
vt 0.826076 0.009511
vt 0.903858 0.027766
vt 0.905435 0.007687
vt 0.908777 0.046794
vt 0.899773 0.047065
vt 0.539009 0.046262
vt 0.397574 0.043436
vt 0.268470 0.041679
vt 0.116905 0.041192
vt 0.120138 0.020250
vt 0.120909 0.016117
vt 0.122356 0.040276
vt 0.830378 0.046515
vt 0.755131 0.009210
vt 0.759999 0.028530
vt 0.759906 0.046291
vt 0.759907 0.046270
vt 0.760000 0.028509
vt 0.755129 0.009231
vt 0.030432 0.014985
vt 0.990213 0.010904
vt 0.402780 0.010058
vt 0.513523 0.011136
vt 0.513447 0.011136
vt 0.120849 0.016436
vt 0.264701 0.017573
vt 0.905330 0.009027
vt 0.544696 0.009769
vt 0.826038 0.010825
vt 0.755466 0.010564
vt 0.755467 0.010543
vt 0.990070 0.009911
vt 0.402878 0.008732
vt 0.514004 0.009808
vt 0.513924 0.009808
vt 0.905416 0.007937
vt 0.544898 0.008637
vt 0.030526 0.014640
vt 0.120898 0.016176
vt 0.264632 0.017314
vt 0.826069 0.009756
vt 0.755192 0.009479
vt 0.755194 0.009458
vn -0.004598 0.000000 0.999990
vn -0.000874 -0.000184 1.000000
vn -0.002168 -0.000363 0.999998
vn 0.000265 -0.000369 1.000000
vn -0.004569 -0.074602 0.997203
vn 0.003239 -0.030106 0.999542
vn 0.003239 -0.030106 0.999542
vn 0.011040 0.014451 0.999835
vn -0.861892 -0.043889 0.505188
vn -0.861892 -0.043889 0.505188
vn -0.861892 -0.043889 0.505188
vn 0.496693 0.064748 0.865508
vn 0.496693 0.064748 0.865508
vn 0.496693 0.064748 0.865508
vn -0.000029 0.000000 1.000000
vn -0.000029 -0.000000 1.000000
vn -0.000029 -0.000000 1.000000
vn -0.000029 -0.000000 1.000000
vn -0.000029 -0.000000 1.000000
vn -0.000029 -0.000000 1.000000
vn -0.000029 -0.000000 1.000000
vn -0.000029 0.000000 1.000000
vn -0.000030 0.025085 0.999685
vn -0.000700 0.035409 0.999373
vn -0.000700 0.035409 0.999373
vn -0.001369 0.045729 0.998953
vn 0.407273 0.018143 0.913126
vn 0.407273 0.018143 0.913126
vn 0.407273 0.018143 0.913126
vn -0.000029 0.000002 1.000000
vn -0.000029 0.000001 1.000000
vn -0.000029 0.000001 1.000000
vn -0.000030 0.000000 1.000000
vn -0.000028 -0.000000 1.000000
vn -0.000028 -0.000000 1.000000
vn -0.000028 -0.000000 1.000000
vn -0.000029 -0.000000 1.000000
vn -0.005802 0.048443 0.998809
vn -0.002917 0.024232 0.999702
vn -0.002917 0.024232 0.999702
vn -0.000030 0.000006 1.000000
vn 0.008157 -0.001913 0.999965
vn 0.002372 -0.000485 0.999997
vn 0.004377 -0.000956 0.999990
vn 0.000597 0.000000 1.000000
vn 0.008129 0.071165 0.997431
vn 0.004082 0.035605 0.999358
vn 0.004082 0.035605 0.999358
vn 0.000029 0.000000 1.000000
vn 0.032782 0.070645 0.996963
vn 0.032782 0.070645 0.996963
vn 0.032782 0.070645 0.996963
vn -0.001034 0.253647 0.967296
vn -0.001034 0.253647 0.967296
vn -0.001034 0.253647 0.967296
vn -0.000644 -0.000022 1.000000
vn -0.001773 -0.000034 0.999998
vn -0.000949 -0.000012 1.000000
vn -0.001254 -0.000006 0.999999
vn -0.001204 0.014686 0.999892
vn -0.023727 0.134408 0.990642
vn -0.023727 0.134408 0.990642
vn -0.045897 0.252125 0.966606
vn 0.000356 -0.000060 1.000000
vn 0.000119 -0.000046 1.000000
vn 0.000096 -0.000018 1.000000
vn 0.000030 -0.000022 1.000000
vn 0.000104 0.161068 0.986943
vn 0.004198 0.207260 0.978277
vn 0.004198 0.207260 0.978277
vn 0.008283 0.252990 0.967434
vn 0.000269 -0.000028 1.000000
vn 0.000094 -0.000023 1.000000
vn 0.000078 -0.000009 1.000000
vn 0.000029 -0.000012 1.000000
vn 0.009027 0.133031 0.991071
vn 0.004201 0.099828 0.994996
vn 0.004201 0.099828 0.994996
vn -0.000630 0.066510 0.997786
vn -0.003782 0.134922 0.990849
vn -0.003782 0.134922 0.990849
vn -0.003782 0.134922 0.990849
vn 0.000472 -0.001577 0.999999
vn 0.003287 -0.002928 0.999990
vn 0.004603 -0.004366 0.999980
vn 0.008588 -0.004117 0.999955
vn 0.008462 0.159807 0.987112
vn 0.004367 0.147327 0.989078
vn 0.004367 0.147327 0.989078
vn 0.000271 0.134821 0.990870
vn 0.000471 -0.000004 1.000000
vn 0.000596 -0.000001 1.000000
vn -0.000029 -0.000000 1.000000
vn -0.000029 -0.000000 1.000000
vn -0.000029 -0.000000 1.000000
vn -0.000029 -0.000000 1.000000
vn -0.000030 -0.000000 1.000000
vn -0.000029 -0.000000 1.000000
vn -0.000029 0.000000 1.000000
vn -0.000029 0.000000 1.000000
vn 0.000289 -0.000009 1.000000
vn 0.000100 -0.000011 1.000000
vn -0.003954 -0.003637 0.999986
vn -0.025746 -0.003950 0.999661
vn -0.014171 -0.002003 0.999898
vn -0.047512 -0.000726 0.998870
vn 0.000533 -0.002444 0.999997
vn 0.003342 -0.004038 0.999986
vn 0.004641 -0.006025 0.999971
vn 0.008590 -0.004884 0.999951
vn 0.000403 -0.001307 0.999999
vn 0.003403 -0.001923 0.999992
vn 0.004826 -0.002871 0.999984
vn 0.009124 -0.001901 0.999957
vn 0.000313 -0.000043 1.000000
vn 0.000105 -0.000030 1.000000
vn 0.000608 -0.000001 1.000000
vn 0.000643 0.000000 1.000000
vn -0.000029 -0.000000 1.000000
vn -0.000030 -0.000000 1.000000
vn -0.000029 -0.000000 1.000000
vn -0.000029 -0.000000 1.000000
vn 0.000082 -0.000003 1.000000
vn 0.000029 -0.000006 1.000000
vn 0.000086 -0.000013 1.000000
vn 0.000029 -0.000014 1.000000
f 12/13/1 39/43/2 13/14/3
f 13/14/3 39/43/2 40/44/4
f 12/13/5 13/14/6 2/2/7
f 2/2/7 13/14/6 3/3/8
f 27/28/9 12/13/10 2/2/11
f 30/31/12 32/33/13 29/30/14
f 41/46/15 42/47/16 30/31/17
f 30/31/17 42/47/16 17/18/18
f 42/47/19 39/43/20 17/18/21
f 17/18/21 39/43/20 12/13/22
f 12/13/23 27/28/24 17/18/25
f 17/18/25 27/28/24 28/29/26
f 17/18/27 28/29/28 16/17/29
f 30/31/30 29/30/31 11/12/32
f 11/12/32 29/30/31 1/1/33
f 4/4/34 31/32/35 52/59/36
f 52/59/36 31/32/35 53/60/37
f 32/33/38 30/31/39 16/17/40
f 16/17/40 30/31/39 17/18/41
f 23/23/42 43/48/43 15/16/44
f 15/16/44 43/48/43 38/42/45
f 23/23/46 15/16/47 24/25/48
f 24/25/48 15/16/47 7/8/49
f 25/26/50 23/23/51 24/25/52
f 26/27/53 14/15/54 8/7/55
f 10/9/56 51/58/57 6/11/58
f 6/11/58 51/58/57 49/56/59
f 3/3/60 13/14/61 26/27/62
f 26/27/62 13/14/61 14/15/63
f 56/64/64 51/58/65 35/35/66
f 35/35/66 51/58/65 10/9/67
f 36/38/68 8/7/69 34/39/70
f 34/39/70 8/7/69 14/15/71
f 50/57/72 55/62/73 22/24/74
f 22/24/74 55/62/73 21/22/75
f 20/21/76 23/23/77 33/34/78
f 33/34/78 23/23/77 25/26/79
f 20/21/80 33/34/81 19/20/82
f 46/51/83 45/50/84 34/36/85
f 34/36/85 45/50/84 20/21/86
f 34/36/87 20/21/88 36/37/89
f 36/37/89 20/21/88 19/20/90
f 40/44/4 39/43/2 49/55/91
f 49/55/91 39/43/2 48/54/92
f 42/47/16 41/46/15 54/61/93
f 54/61/93 41/46/15 53/60/94
f 39/43/20 42/47/19 48/54/95
f 48/54/95 42/47/19 54/61/96
f 41/46/97 30/31/98 37/41/99
f 37/41/99 30/31/98 11/12/100
f 38/42/45 43/48/43 47/53/101
f 47/53/101 43/48/43 50/57/102
f 44/49/103 14/15/104 40/45/105
f 40/45/105 14/15/104 13/14/106
f 44/49/107 46/52/108 14/15/109
f 14/15/109 46/52/108 34/39/110
f 45/50/111 43/48/112 20/21/113
f 20/21/113 43/48/112 23/23/114
f 45/50/84 46/51/83 55/62/115
f 55/62/115 46/51/83 56/63/116
f 52/59/36 53/60/37 37/41/99
f 37/41/99 53/60/37 41/46/97
f 49/56/59 51/58/57 40/45/105
f 40/45/105 51/58/57 44/49/103
f 51/58/65 56/64/64 44/49/107
f 44/49/107 56/64/64 46/52/108
f 55/62/73 50/57/72 45/50/111
f 45/50/111 50/57/72 43/48/112
f 49/55/91 48/54/92 6/6/117
f 6/6/117 48/54/92 5/5/118
f 54/61/93 53/60/94 18/19/119
f 18/19/119 53/60/94 31/32/120
f 48/54/95 54/61/96 5/5/121
f 5/5/121 54/61/96 18/19/122
f 47/53/101 50/57/102 9/10/123
f 9/10/123 50/57/102 22/24/124
f 55/62/115 56/63/116 21/22/125
f 21/22/125 56/63/116 35/40/126
