# This file uses centimeters as units for non-parametric coordinates.

v -37.395733 -63.784454 40.773605
v 51.350311 -70.964531 22.319328
v -83.228516 -105.035233 -10.107042
v -88.179138 -103.695099 29.691553
v -57.414700 -85.146912 73.091782
v -4.081872 -80.009804 99.657646
v 39.381531 -85.183426 86.942398
v 73.267891 -89.894165 63.486450
v 89.605247 -98.816956 21.642925
v 75.997467 -99.966087 -44.656971
v -41.054844 -69.628334 -32.024227
v -71.015236 -96.425476 -24.856911
v -63.807545 -89.911026 -29.645987
v 34.358288 -62.740269 -41.767605
v 58.710583 -79.944572 -48.936939
v -1.256183 -49.705685 -28.896008
v -0.400245 -65.173981 47.085239
v -13.232753 -53.628033 -29.296972
v 4.918376 -53.125366 -30.542900
v -59.225594 -79.124039 3.813629
v 48.650017 -61.058846 -15.729659
v -75.237183 -90.745560 15.176651
v -48.726746 -76.353180 61.707142
v -2.369653 -73.433380 82.071823
v 62.708111 -76.351524 46.426502
v 76.103050 -79.222092 11.280103
v 68.448715 -69.667877 -18.821461
v 86.154381 -89.097099 -12.116987
v -24.150526 -59.753635 -28.650780
v -32.306263 -59.582390 -12.323092
v -25.909281 -56.122677 14.137700
v -0.299478 -58.705997 24.988407
v 22.462313 -56.961273 3.961478
v 28.248486 -53.743866 -19.576277
v 20.338411 -60.017014 -40.527397
v 35.692719 -73.759903 67.449669
v 23.236244 -63.747528 43.301380
v 13.278680 -56.499695 18.848732
v -14.133261 -53.045887 -12.728645
v 1.772243 -50.168850 -13.276525
v 4.566951 -49.768192 -13.864435
v 12.323693 -52.884663 -16.289049
v -70.907486 -89.966003 -19.098215
v -48.562473 -69.962158 -25.449274
v -30.106672 -59.055611 -23.270260
v -10.664831 -52.093128 -20.675051
v 2.110006 -48.611591 -19.601055
v 2.944376 -48.459743 -19.910158
v 9.675289 -51.772202 -21.707636
v 24.884285 -56.912502 -31.854923
v 44.651394 -62.000420 -33.473404
v 69.059616 -81.988022 -41.244953
v 80.311974 -99.622032 -38.993397
v -31.385897 -58.339630 2.365303
v -52.528786 -73.837166 22.167944
v -69.906837 -85.760597 45.744392
v -81.275917 -93.188553 57.339802
v -75.083084 -90.812363 -0.587777
v -89.225288 -106.282516 5.617651
v -17.069834 -64.265686 45.707771
v -26.732506 -74.747498 72.635162
v -32.148598 -82.329758 89.505936
v 10.794876 -64.114624 46.541714
v 17.782635 -73.099686 75.733444
v 20.369978 -82.371223 94.960953
v 36.620605 -67.021255 35.866459
v 53.665363 -74.730362 59.401371
v 61.550339 -88.261887 77.334984
v 76.159599 -81.691551 30.845026
v 83.730125 -94.710388 40.418640
v 48.882984 -61.038639 -25.883844
v 69.359924 -74.637489 -29.252081
v 81.778694 -93.168976 -27.495949
v -44.900528 -83.345940 79.957085
v -72.082832 -89.220421 65.659622
v -18.453239 -80.623367 98.345177
v 8.178812 -80.799408 97.361450
v -87.471634 -98.914009 39.629463
v 78.077499 -92.187691 51.361797
v 46.600655 -71.418549 -46.742859
v 59.500954 -65.402435 -16.508213
v 70.934097 -75.423569 -4.697748
v 89.531158 -91.911629 1.270074
v 64.385246 -80.716995 -45.392494
v 68.141724 -90.867630 -46.601933
v 52.427528 -75.006630 -47.911751
v -75.906136 -87.548965 32.966515
v -84.371048 -95.895241 50.918663
v -76.806015 -89.265961 24.882406
vt 0.735865 0.429603
vt 0.251723 0.422258
vt 0.057115 0.453382
vt 0.024578 0.285508
vt 0.108416 0.182974
vt 0.474031 0.020400
vt 0.648742 0.035046
vt 0.913138 0.157320
vt 0.964926 0.228288
vt 0.929687 0.531599
vt 0.268864 0.738063
vt 0.106559 0.522168
vt 0.162882 0.601248
vt 0.708322 0.779825
vt 0.801002 0.689383
vt 0.537338 0.852907
vt 0.513023 0.428289
vt 0.455820 0.829717
vt 0.566507 0.842848
vt 0.260494 0.583853
vt 0.720212 0.628633
vt 0.141765 0.433705
vt 0.179522 0.301701
vt 0.491950 0.207847
vt 0.817676 0.303944
vt 0.880150 0.366978
vt 0.835969 0.546949
vt 0.944508 0.404025
vt 0.354279 0.779937
vt 0.371947 0.724143
vt 0.360132 0.638685
vt 0.521243 0.571850
vt 0.653161 0.631405
vt 0.644542 0.734092
vt 0.670258 0.796741
vt 0.657617 0.256723
vt 0.617713 0.428906
vt 0.587772 0.601885
vt 0.429576 0.777324
vt 0.534196 0.798039
vt 0.547869 0.800490
vt 0.590690 0.783839
vt 0.159388 0.573523
vt 0.267640 0.715520
vt 0.358273 0.767325
vt 0.450175 0.818447
vt 0.536361 0.835860
vt 0.540455 0.837393
vt 0.574106 0.824305
vt 0.665245 0.784530
vt 0.710012 0.758326
vt 0.806994 0.664978
vt 0.932557 0.506893
vt 0.365974 0.680942
vt 0.256296 0.506501
vt 0.160237 0.369122
vt 0.063200 0.238274
vt 0.149992 0.498978
vt 0.043216 0.381671
vt 0.394064 0.425543
vt 0.330167 0.256446
vt 0.277658 0.107719
vt 0.565866 0.428601
vt 0.576406 0.232763
vt 0.561040 0.027694
vt 0.671906 0.429226
vt 0.743092 0.281940
vt 0.782513 0.096910
vt 0.848590 0.335135
vt 0.941442 0.196107
vt 0.714466 0.701695
vt 0.821429 0.606177
vt 0.937858 0.461263
vt 0.192638 0.145524
vt 0.083153 0.213870
vt 0.384193 0.060348
vt 0.517289 0.024027
vt 0.041767 0.264486
vt 0.928218 0.177986
vt 0.756077 0.733223
vt 0.778616 0.587420
vt 0.855357 0.467971
vt 0.953345 0.327969
vt 0.804047 0.676981
vt 0.871208 0.603302
vt 0.776129 0.713656
vt 0.151963 0.398049
vt 0.052500 0.251360
vt 0.147382 0.414066
vn 0.142672 0.938177 0.315388
vn 0.218472 0.911865 0.347522
vn 0.009823 0.956029 0.293108
vn 0.203044 0.947886 0.245529
vn -0.565540 0.824721 -0.000617
vn -0.511767 0.852727 0.104643
vn -0.351682 0.916868 0.188873
vn -0.396720 0.869520 0.294192
vn -0.066081 0.988994 -0.132377
vn -0.256003 0.961509 0.099815
vn 0.357407 0.920671 -0.156926
vn 0.350627 0.854636 -0.382959
vn 0.367697 0.782991 -0.501721
vn 0.250597 0.876338 -0.411380
vn -0.296696 0.954469 -0.030994
vn -0.420798 0.906438 -0.036039
vn -0.017202 0.950403 0.310546
vn -0.175097 0.935105 0.308090
vn -0.034158 0.959863 0.278382
vn -0.043355 0.962156 0.269028
vn -0.401644 0.890733 -0.212785
vn -0.327782 0.859927 -0.391261
vn 0.209733 0.961512 -0.177500
vn 0.171331 0.929415 -0.326854
vn 0.221749 0.928854 -0.296744
vn 0.143567 0.905471 -0.399388
vn -0.471000 0.716177 -0.515025
vn -0.663066 0.584235 -0.467988
vn -0.612149 0.777088 -0.146315
vn -0.713936 0.678036 -0.174824
vn 0.600164 0.789298 0.129662
vn 0.550032 0.825271 0.128032
vn 0.356530 0.922012 0.150931
vn 0.344735 0.921615 0.178281
vn -0.788991 0.571094 -0.226593
vn -0.785209 0.419317 -0.455653
vn -0.459832 0.876613 0.141787
vn -0.382219 0.849238 0.364286
vn -0.169719 0.940678 0.293804
vn 0.010422 0.936264 0.351142
vn 0.288484 0.856424 0.428154
vn 0.252308 0.884454 0.392533
vn 0.786057 0.590807 0.181827
vn 0.787471 0.600133 0.140465
vn 0.492741 0.558710 -0.667121
vn 0.546375 0.664716 -0.509536
vn 0.656171 0.343035 -0.672136
vn 0.458482 0.886848 0.057405
vn 0.612176 0.787857 0.067256
vn 0.639344 0.766855 -0.056335
vn 0.738817 0.664714 -0.110932
vn 0.715335 0.692499 0.093495
vn -0.206980 0.965807 0.156126
vn -0.502073 0.864819 -0.003330
vn -0.016111 0.970738 0.239599
vn 0.130684 0.972210 0.194239
vn 0.223107 0.974415 0.027162
vn 0.289665 0.941417 0.172708
vn 0.456931 0.877351 0.146523
vn 0.321171 0.899363 0.296642
vn 0.588895 0.762186 0.268840
vn 0.388871 0.818271 0.423334
vn 0.312899 0.939231 0.141208
vn -0.241493 0.970384 0.005917
vn -0.074640 0.981619 0.175651
vn 0.222282 0.968776 0.109841
vn 0.201290 0.974734 0.096826
vn -0.687659 0.720273 -0.091280
vn -0.745853 0.659373 -0.094504
vn -0.666907 0.741634 -0.072208
vn -0.768740 0.627020 -0.126034
vn -0.608273 0.793655 -0.010776
vn -0.504387 0.863405 -0.011211
vn 0.401619 0.893308 -0.201749
vn 0.643482 0.675776 -0.359523
vn 0.662355 0.596939 -0.452714
vn 0.775137 0.449362 -0.444113
vn 0.796877 0.489305 -0.354356
vn -0.559373 0.828510 0.025939
vn -0.516160 0.855466 0.041921
vn -0.615160 0.787930 0.027270
vn -0.290249 0.882710 0.369565
vn -0.306589 0.901122 0.306567
vn 0.137117 0.915199 0.378958
vn 0.681088 0.696106 0.227058
vn -0.748304 0.657186 -0.090270
vn 0.451260 0.768279 -0.453995
vn 0.686090 0.474489 -0.551489
vn -0.643343 0.746125 -0.171486
f 64/64/1 36/36/2 63/63/3
f 63/63/3 36/36/2 37/37/4
f 55/55/5 56/56/6 1/2/7
f 1/2/7 56/56/6 23/23/8
f 16/16/9 47/47/10 48/48/11
f 51/51/12 80/80/13 14/14/14
f 47/47/10 16/16/9 46/46/15
f 46/46/15 16/16/9 18/18/16
f 60/60/17 61/61/18 17/17/19
f 17/17/19 61/61/18 24/24/20
f 45/45/21 46/46/15 29/29/22
f 29/29/22 46/46/15 18/18/16
f 49/49/23 50/50/24 19/19/25
f 19/19/25 50/50/24 35/35/26
f 11/11/27 13/13/28 44/44/29
f 44/44/29 13/13/28 43/43/30
f 69/69/31 26/26/32 2/1/33
f 2/1/33 26/26/32 21/21/34
f 3/3/35 43/43/30 12/12/36
f 12/12/36 43/43/30 13/13/28
f 56/56/6 75/75/37 23/23/8
f 23/23/8 75/75/37 5/5/38
f 61/61/18 76/76/39 24/24/20
f 24/24/20 76/76/39 6/6/40
f 36/36/2 64/64/1 7/7/41
f 7/7/41 64/64/1 65/65/42
f 70/70/43 9/9/44 69/69/31
f 69/69/31 9/9/44 26/26/32
f 15/15/45 84/84/46 85/85/47
f 81/81/48 82/82/49 27/27/50
f 27/27/50 82/82/49 28/28/51
f 28/28/51 82/82/49 83/83/52
f 44/44/29 45/45/21 11/11/27
f 11/11/27 45/45/21 29/29/22
f 1/2/7 31/31/53 55/55/5
f 55/55/5 31/31/53 54/54/54
f 32/32/55 60/60/17 17/17/19
f 37/37/4 38/38/56 63/63/3
f 34/34/57 33/33/58 21/21/34
f 21/21/34 33/33/58 2/1/33
f 35/35/26 50/50/24 14/14/14
f 14/14/14 50/50/24 51/51/12
f 25/25/59 67/67/60 8/8/61
f 8/8/61 67/67/60 68/68/62
f 67/67/60 25/25/59 66/66/63
f 66/66/63 25/25/59 2/1/33
f 33/33/58 66/66/63 2/1/33
f 16/16/9 48/48/11 19/19/25
f 19/19/25 48/48/11 49/49/23
f 39/39/64 54/54/54 31/31/53
f 32/32/55 40/40/65 31/31/53
f 31/31/53 40/40/65 39/39/64
f 41/41/66 40/40/65 38/38/56
f 38/38/56 40/40/65 32/32/55
f 42/42/67 41/41/66 33/33/58
f 33/33/58 41/41/66 38/38/56
f 34/34/57 42/42/67 33/33/58
f 58/58/68 59/59/69 22/22/70
f 22/22/70 59/59/69 4/4/71
f 20/20/72 58/58/68 22/22/70
f 20/20/72 30/30/73 44/44/29
f 44/44/29 30/30/73 45/45/21
f 30/30/73 39/39/64 45/45/21
f 45/45/21 39/39/64 46/46/15
f 39/39/64 40/40/65 46/46/15
f 46/46/15 40/40/65 47/47/10
f 48/48/11 47/47/10 41/41/66
f 41/41/66 47/47/10 40/40/65
f 48/48/11 41/41/66 49/49/23
f 49/49/23 41/41/66 42/42/67
f 50/50/24 49/49/23 34/34/57
f 34/34/57 49/49/23 42/42/67
f 50/50/24 34/34/57 51/51/12
f 51/51/12 34/34/57 71/71/74
f 71/71/74 72/72/75 51/51/12
f 51/51/12 72/72/75 52/52/76
f 53/53/77 52/52/76 73/73/78
f 73/73/78 52/52/76 72/72/75
f 30/30/73 54/54/54 39/39/64
f 55/55/5 54/54/54 20/20/72
f 20/20/72 54/54/54 30/30/73
f 55/55/5 87/87/79 56/56/6
f 57/57/80 56/56/6 88/88/81
f 88/88/81 56/56/6 87/87/79
f 44/44/29 43/43/30 20/20/72
f 20/20/72 43/43/30 58/58/68
f 59/59/69 58/58/68 3/3/35
f 3/3/35 58/58/68 43/43/30
f 1/2/7 60/60/17 31/31/53
f 31/31/53 60/60/17 32/32/55
f 23/23/8 61/61/18 1/2/7
f 1/2/7 61/61/18 60/60/17
f 23/23/8 74/74/82 61/61/18
f 61/61/18 74/74/82 62/62/83
f 38/38/56 32/32/55 63/63/3
f 63/63/3 32/32/55 17/17/19
f 24/24/20 64/64/1 17/17/19
f 17/17/19 64/64/1 63/63/3
f 65/65/42 64/64/1 77/77/84
f 77/77/84 64/64/1 24/24/20
f 33/33/58 38/38/56 66/66/63
f 66/66/63 38/38/56 37/37/4
f 37/37/4 36/36/2 66/66/63
f 66/66/63 36/36/2 67/67/60
f 67/67/60 36/36/2 68/68/62
f 68/68/62 36/36/2 7/7/41
f 25/25/59 69/69/31 2/1/33
f 25/25/59 79/79/85 69/69/31
f 69/69/31 79/79/85 70/70/43
f 71/71/74 34/34/57 21/21/34
f 71/71/74 81/81/48 72/72/75
f 72/72/75 81/81/48 27/27/50
f 73/73/78 72/72/75 28/28/51
f 28/28/51 72/72/75 27/27/50
f 5/5/38 74/74/82 23/23/8
f 75/75/37 56/56/6 57/57/80
f 61/61/18 62/62/83 76/76/39
f 77/77/84 24/24/20 6/6/40
f 78/78/86 22/22/70 4/4/71
f 8/8/61 79/79/85 25/25/59
f 51/51/12 86/86/87 80/80/13
f 21/21/34 81/81/48 71/71/74
f 26/26/32 82/82/49 21/21/34
f 21/21/34 82/82/49 81/81/48
f 82/82/49 26/26/32 83/83/52
f 83/83/52 26/26/32 9/9/44
f 51/51/12 52/52/76 84/84/46
f 10/10/88 85/85/47 53/53/77
f 53/53/77 85/85/47 52/52/76
f 85/85/47 84/84/46 52/52/76
f 51/51/12 84/84/46 86/86/87
f 86/86/87 84/84/46 15/15/45
f 55/55/5 89/89/89 87/87/79
f 88/88/81 87/87/79 78/78/86
f 78/78/86 87/87/79 89/89/89
f 20/20/72 22/22/70 55/55/5
f 55/55/5 22/22/70 89/89/89
f 78/78/86 89/89/89 22/22/70
