# This file uses centimeters as units for non-parametric coordinates.

v 0.042380 0.038588 0.146537
v 0.079320 0.046026 0.113404
v 0.094918 0.044538 0.076713
v -0.033720 0.047254 -0.000933
v 0.006110 0.083844 0.016285
v 0.054731 0.056799 0.016771
v -0.037272 -0.040994 -0.010719
v -0.011465 -0.046944 -0.028636
v 0.028908 -0.047773 -0.008893
v 0.034399 -0.061767 0.124758
v 0.069726 -0.060958 0.125205
v 0.072920 -0.053378 0.081451
v 0.022336 -0.018137 0.143831
v 0.085132 -0.022867 0.130567
v 0.089981 -0.012880 0.073486
v -0.044310 -0.010004 -0.006044
v -0.025093 -0.017325 0.075364
v -0.004426 0.047153 0.072108
v 0.013134 0.061140 0.063263
v 0.061722 0.032243 0.061217
v 0.038690 -0.025877 0.062522
v 0.033601 -0.066763 0.025681
v 0.001964 -0.070048 0.029416
v -0.017775 -0.062995 0.046728
v 0.068924 0.044830 0.076662
v 0.083841 0.028008 0.070309
v 0.093853 0.052059 0.041293
v 0.079358 0.067516 0.060985
v 0.033646 -0.005679 0.002044
v -0.015923 -0.002563 -0.039443
v -0.057487 -0.012912 -0.000342
v -0.053255 -0.041612 -0.001186
v -0.041726 -0.054415 0.052058
v -0.043307 -0.016708 0.075729
v -0.048442 0.035319 0.006820
v -0.031378 0.032712 0.077707
v 0.097600 0.024777 0.138031
v 0.046597 0.032396 0.008210
v -0.012360 0.023476 -0.031605
v 0.056946 0.060543 0.077576
v 0.047683 0.092062 0.039035
v 0.075162 0.064936 0.035844
v -0.012559 -0.017441 0.109168
v 0.062695 0.046888 0.080472
v -0.002596 -0.071357 0.093154
v 0.017623 0.046710 0.107862
v 0.037574 0.057043 0.095995
v 0.043673 -0.071322 0.074975
v 0.022648 -0.072828 0.090631
v 0.012244 -0.063201 0.112579
vt 0.061717 0.507806
vt 0.068989 0.507651
vt 0.068895 0.522078
vt 0.055656 0.518114
vt 0.072615 0.512338
vt 0.079025 0.511903
vt 0.078617 0.516095
vt 0.071428 0.518689
vt 0.084086 0.518733
vt 0.067661 0.590755
vt 0.055062 0.591492
vt 0.079154 0.587123
vt 0.067368 0.584677
vt 0.058441 0.584056
vt 0.077211 0.581461
vt 0.058390 0.561197
vt 0.068117 0.557099
vt 0.069699 0.549674
vt 0.054214 0.557970
vt 0.072322 0.558959
vt 0.077659 0.555155
vt 0.062458 0.491121
vt 0.078245 0.487039
vt 0.075646 0.492728
vt 0.067358 0.492424
vt 0.084048 0.494617
vt 0.079650 0.493046
vt 0.082534 0.579423
vt 0.080848 0.510117
vt 0.084079 0.509137
vt 0.051450 0.583604
vt 0.049751 0.522195
vt 0.056172 0.504516
vt 0.048904 0.594751
vt 0.068762 0.524386
vt 0.089719 0.521306
vt 0.083428 0.588908
vt 0.083428 0.588908
vt 0.067374 0.594195
vt 0.292645 0.675113
vt 0.279990 0.674113
vt 0.281634 0.672877
vt 0.291333 0.673552
vt 0.281126 0.657639
vt 0.281910 0.662827
vt 0.280330 0.662904
vt 0.279519 0.656541
vt 0.810462 0.736583
vt 0.818288 0.751551
vt 0.795224 0.752431
vt 0.794122 0.741217
vt 0.812982 0.772444
vt 0.793880 0.771029
vt 0.289218 0.655653
vt 0.289843 0.654060
vt 0.295078 0.662187
vt 0.293491 0.662264
vt 0.076855 0.490082
vt 0.086685 0.519920
vt 0.068822 0.523335
vt 0.070928 0.510157
vt 0.070173 0.520368
vt 0.081809 0.517635
vt 0.052697 0.572036
vt 0.059008 0.498472
vt 0.080162 0.500345
vt 0.058416 0.572802
vt 0.064653 0.499800
vt 0.072257 0.500326
vt 0.074956 0.571085
vt 0.067737 0.571072
vt 0.058403 0.566898
vn 0.040356 -0.173850 0.983945
vn 0.588192 -0.473999 0.655253
vn 0.668701 0.598255 0.441509
vn 0.762264 -0.193626 -0.617626
vn 0.620520 0.132116 -0.772981
vn 0.824819 -0.429892 -0.367243
vn 0.702918 0.045765 -0.709797
vn -0.976446 0.075347 0.202178
vn -0.982274 -0.048752 0.180998
vn -0.973275 -0.149329 0.174463
vn -0.973282 -0.148667 0.174989
vn -0.100032 0.233651 0.967161
vn -0.388089 -0.921130 -0.030117
vn 0.667469 0.256926 -0.698909
vn -0.188896 0.885186 -0.425164
vn 0.243738 0.969834 0.003812
vn -0.291406 0.811277 0.506865
vn -0.728447 0.193398 -0.657238
vn -0.028350 0.363066 -0.931332
vn -0.756312 0.135500 -0.640025
vn -0.229164 -0.005882 -0.973370
vn 0.835728 -0.082761 -0.542871
vn 0.072997 -0.538311 -0.839579
vn 0.538208 -0.548666 -0.639764
vn -0.618612 -0.584346 -0.525222
vn -0.412276 0.090699 -0.906533
vn -0.478558 0.093251 -0.873090
vn -0.436281 -0.579486 -0.688371
vn -0.405284 -0.568029 -0.716302
vn -0.143328 -0.779773 0.609435
vn -0.206627 -0.965377 0.159225
vn -0.946743 0.219086 0.235963
vn -0.959187 0.186661 0.212409
vn -0.625862 0.657992 -0.418739
vn -0.694744 0.618620 -0.366933
vn -0.077805 0.575768 0.813903
vn 0.449351 0.813762 0.368612
vn 0.285985 0.938794 0.192039
vn -0.595098 0.764456 -0.247921
vn 0.994244 0.042490 -0.098356
vn -0.687498 0.612639 0.389897
vn -0.124263 -0.971202 -0.203286
vn -0.641827 -0.766791 0.009453
vn 0.815563 -0.506778 -0.279346
vn -0.423370 -0.130132 0.896562
vn -0.081648 -0.643361 0.761197
vn 0.605037 -0.334073 0.722721
vn 0.430956 -0.812309 0.392978
vn 0.687480 -0.649072 -0.325693
vn 0.729666 -0.175269 -0.660961
vn 0.886322 -0.223501 0.405563
vn 0.623194 0.703785 -0.341051
vn 0.980915 -0.181996 -0.068432
vn -0.339759 0.735749 0.585864
vn -0.093605 0.360300 0.928128
vn -0.588227 0.644704 0.488206
vn -0.824438 0.019067 0.565631
vn -0.943898 -0.092180 0.317112
vn 0.058663 0.998273 0.003085
vn 0.333668 0.686690 -0.645850
vn 0.487799 -0.858173 -0.159973
vn -0.015137 -0.994066 0.107722
vn -0.393818 -0.700586 0.595051
vn -0.589503 -0.745089 0.311975
vn 0.059487 -0.292954 0.954274
vn 0.009054 -0.297958 0.954536
vn 0.261751 -0.110324 -0.958809
vn 0.544927 -0.761810 -0.350286
vn 0.162452 -0.953584 0.253550
vn -0.437434 -0.616380 0.654773
f 25/5/1 26/6/2 28/8/3
f 28/8/3 26/6/2 27/7/4
f 6/9/5 20/29/6 38/59/7
f 34/49/8 31/50/9 33/48/10
f 33/48/10 31/50/9 32/51/11
f 40/61/12 20/29/13 25/5/1
f 25/5/1 20/29/13 26/6/2
f 42/63/14 27/7/4 20/29/13
f 20/29/13 27/7/4 26/6/2
f 5/3/15 41/62/16 6/9/5
f 6/9/5 41/62/16 42/63/14
f 5/3/15 19/2/17 41/62/16
f 41/62/16 19/2/17 40/61/12
f 4/4/18 39/60/19 16/32/20
f 16/32/20 39/60/19 30/35/21
f 6/9/5 38/59/7 5/3/15
f 5/3/15 38/59/7 39/60/19
f 30/39/21 29/38/22 8/10/23
f 8/10/23 29/38/22 9/12/24
f 16/34/20 30/39/21 7/11/25
f 7/11/25 30/39/21 8/10/23
f 31/45/26 16/46/27 32/44/28
f 32/44/28 16/46/27 7/47/29
f 33/54/30 32/44/28 24/55/31
f 24/55/31 32/44/28 7/47/29
f 36/52/32 35/53/33 34/49/8
f 34/49/8 35/53/33 31/50/9
f 31/45/26 35/42/34 16/46/27
f 16/46/27 35/42/34 4/41/35
f 38/59/7 29/36/22 39/60/19
f 39/60/19 29/36/22 30/35/21
f 41/62/16 40/61/12 28/8/3
f 28/8/3 40/61/12 25/5/1
f 41/62/16 28/8/3 42/63/14
f 42/63/14 28/8/3 27/7/4
f 20/29/6 6/9/5 42/63/14
f 1/25/36 37/58/37 2/24/38
f 39/60/19 4/4/39 5/3/15
f 19/2/17 20/29/40 40/61/12
f 4/4/39 18/1/41 5/3/15
f 5/3/15 18/1/41 19/2/17
f 8/10/23 23/13/42 7/11/25
f 7/11/25 23/13/42 24/14/43
f 8/10/23 9/12/24 23/13/42
f 23/13/42 9/12/24 22/15/44
f 13/19/45 10/16/46 14/18/47
f 14/18/47 10/16/46 11/17/48
f 11/17/48 12/20/49 14/18/47
f 14/18/47 12/20/49 15/21/50
f 37/58/51 1/25/36 14/23/47
f 14/23/47 1/25/36 13/22/45
f 3/27/52 37/58/51 15/26/50
f 15/26/50 37/58/51 14/23/47
f 21/28/53 22/15/44 29/37/22
f 29/37/22 22/15/44 9/12/24
f 4/41/35 35/42/34 18/40/54
f 18/40/54 35/42/34 36/43/55
f 46/68/56 18/1/41 43/65/57
f 43/65/57 18/1/41 17/33/58
f 18/1/41 46/68/56 19/2/17
f 19/2/17 46/68/56 47/69/59
f 44/66/60 20/29/40 47/69/59
f 47/69/59 20/29/40 19/2/17
f 21/30/53 20/29/40 44/66/60
f 21/28/53 48/70/61 22/15/44
f 49/71/62 23/13/42 48/70/61
f 48/70/61 23/13/42 22/15/44
f 50/72/63 45/67/64 49/71/62
f 49/71/62 45/67/64 23/13/42
f 43/64/57 17/31/58 45/67/64
f 45/67/64 17/31/58 24/14/43
f 24/55/31 17/56/65 33/54/30
f 33/54/30 17/56/65 34/57/66
f 18/40/54 36/43/55 17/56/65
f 17/56/65 36/43/55 34/57/66
f 50/72/63 43/64/57 45/67/64
f 43/65/57 13/22/45 46/68/56
f 46/68/56 13/22/45 1/25/36
f 2/24/38 47/69/59 1/25/36
f 1/25/36 47/69/59 46/68/56
f 47/69/59 2/24/38 44/66/60
f 44/66/60 2/24/38 3/27/52
f 37/58/37 3/27/52 2/24/38
f 38/59/7 20/29/40 29/36/22
f 29/36/22 20/29/40 21/30/53
f 24/14/43 23/13/42 45/67/64
f 21/30/67 44/66/60 15/26/50
f 15/26/50 44/66/60 3/27/52
f 48/70/68 21/28/67 12/20/49
f 12/20/49 21/28/67 15/21/50
f 48/70/68 12/20/49 49/71/69
f 49/71/69 12/20/49 11/17/48
f 50/72/70 49/71/69 10/16/46
f 10/16/46 49/71/69 11/17/48
f 43/64/57 50/72/70 13/19/45
f 13/19/45 50/72/70 10/16/46
