# This file uses centimeters as units for non-parametric coordinates.

v 44.180542 -52.916122 0.571093
v 28.596640 -52.936829 -13.110142
v 18.134428 -54.069141 -22.366928
v 8.060637 -53.955521 -28.500940
v -3.294022 -55.254120 -28.997276
v -14.837432 -54.043041 -25.992649
v -26.085251 -53.238846 -18.639021
v -39.496277 -52.238094 -9.201020
v -51.732544 -51.697636 1.143949
v -56.272125 -54.178783 24.796225
v -50.639065 -58.629009 69.535950
v -19.193220 -60.482136 92.019485
v 19.884544 -56.333488 83.250847
v 45.806194 -57.504395 51.146347
v 54.494408 -54.667900 23.286503
v 34.558285 -42.266567 -1.412347
v 25.189503 -43.689827 -11.650668
v 15.821172 -45.188564 -19.277340
v 7.287441 -44.655453 -24.913795
v -2.353377 -44.906773 -25.744692
v -12.793930 -43.913795 -22.645575
v -23.313908 -42.770226 -17.057371
v -32.777424 -42.132359 -8.365668
v -42.420116 -41.619759 2.043651
v -44.896484 -43.207775 22.466421
v -39.926216 -42.894302 63.368717
v -15.862656 -44.843349 78.584763
v 17.618771 -43.627968 65.881905
v 37.317341 -45.583183 43.409679
v 40.682217 -43.395203 16.907772
v 27.711540 -37.046314 -1.212647
v 21.395380 -38.539047 -10.082421
v 13.745975 -40.201916 -16.618229
v 6.538119 -40.130836 -21.221333
v -1.530809 -40.061668 -21.764585
v -11.151786 -39.129482 -19.046043
v -21.165956 -37.480625 -14.751040
v -28.420229 -36.854198 -7.090446
v -33.644451 -36.458313 3.387880
v -32.074726 -37.575768 20.240805
v -23.502087 -38.033173 42.318375
v -12.169050 -38.556366 54.110283
v 11.638533 -38.588703 48.656311
v 27.388071 -39.648788 35.338127
v 30.453890 -37.896294 13.597858
v 20.537573 -32.949211 -0.574040
v 16.913303 -34.011784 -8.346458
v 11.700428 -35.532078 -13.649599
v 5.862179 -36.103798 -16.831772
v -0.960712 -35.658585 -17.538992
v -9.353629 -34.919830 -15.390476
v -17.032419 -33.706062 -11.432301
v -21.225716 -33.047276 -5.026650
v -22.527103 -32.355190 3.276077
v -20.180761 -32.931602 15.091443
v -14.752950 -33.852623 27.622982
v -7.542255 -34.088692 34.296661
v 5.841410 -34.420849 31.515728
v 17.753513 -34.318439 23.478922
v 20.926573 -33.338615 10.128894
v 15.274523 -29.292692 -0.468164
v 13.474566 -29.768688 -6.840384
v 10.066975 -30.877563 -10.881886
v 5.351191 -31.469749 -13.164198
v -0.545322 -30.940741 -14.020384
v -7.348869 -30.467665 -12.448330
v -12.587688 -29.947868 -8.728486
v -14.901278 -29.496984 -3.406479
v -14.240694 -29.469200 3.089432
v -12.325125 -29.927622 11.596889
v -9.921448 -30.557159 20.567251
v -4.598593 -31.037868 25.161432
v 4.276375 -30.947512 22.732416
v 11.498177 -30.702667 16.108660
v 14.552661 -29.837870 7.351073
v 10.494335 -27.369389 0.143993
v 9.712600 -27.029585 -4.299646
v 7.584285 -27.214626 -7.271865
v 4.313119 -27.202478 -9.065992
v 0.149220 -26.926636 -9.591867
v -4.212256 -26.853857 -8.435146
v -7.437809 -26.857565 -5.780849
v -8.680639 -27.142420 -1.815788
v -8.349526 -27.437798 2.554982
v -7.032625 -27.584639 7.279896
v -4.872537 -27.723238 11.716747
v -1.263199 -27.974129 14.046649
v 3.350063 -28.121824 13.030447
v 7.223950 -28.138697 9.671884
v 9.590935 -27.872690 4.932866
v 6.429849 -26.131180 0.497765
v 6.067771 -25.738506 -1.914972
v 4.861561 -25.387323 -3.847370
v 2.986007 -25.074202 -5.072658
v 0.716756 -24.911255 -5.364918
v -1.467572 -25.010841 -4.609648
v -3.056944 -25.304546 -2.958927
v -3.806771 -25.623119 -0.766442
v -3.748666 -25.827400 1.564313
v -2.986208 -25.931149 3.860548
v -1.597183 -25.979191 5.695362
v 0.323348 -26.010098 6.546857
v 2.481972 -26.087570 6.159361
v 4.476681 -26.288877 4.869246
v 5.869648 -26.345274 2.847303
v 1.314454 -24.932571 0.220666
v 3.876130 -25.668156 1.689893
v 3.087616 -25.609680 2.742903
v 1.980272 -25.472721 3.396173
v 0.809314 -25.432444 3.594328
v -0.254496 -25.429754 3.176337
v -1.051657 -25.402122 2.221500
v -1.484704 -25.336361 0.969507
v -1.501042 -25.218521 -0.325768
v -1.065279 -25.024418 -1.549149
v -0.200660 -24.819691 -2.501588
v 0.989533 -24.744875 -2.942545
v 2.252480 -24.839714 -2.776956
v 3.314166 -25.058147 -2.056200
v 3.997713 -25.319992 -0.929278
v 4.194474 -25.561272 0.412855
v 7.609452 -27.051249 3.842746
v 5.711624 -27.109335 7.036317
v 2.909230 -26.970411 9.172751
v -0.277786 -26.830940 9.780175
v -3.009739 -26.707994 8.310548
v -4.856244 -26.648273 5.422549
v -5.890209 -26.542841 2.080868
v -6.045233 -26.264545 -1.224469
v -5.082151 -25.892733 -4.305894
v -2.737721 -25.697428 -6.450110
v 0.458033 -25.650589 -7.412491
v 3.647916 -25.857248 -7.017370
v 6.202361 -26.079548 -5.484424
v 7.839339 -26.246794 -3.017637
v 8.372856 -26.687492 0.380544
v 11.930534 -28.728148 6.108469
v 9.164499 -29.320417 12.781521
v 3.790810 -29.462341 17.841890
v -2.856602 -29.451427 19.599691
v -7.329347 -29.049913 16.160975
v -9.460603 -28.686169 9.468158
v -11.075691 -28.382936 2.882646
v -11.714718 -28.187265 -2.580236
v -10.023258 -28.255781 -7.278611
v -5.839527 -28.488966 -10.518500
v -0.211490 -28.756865 -11.870625
v 4.893894 -29.169456 -11.153584
v 8.911331 -28.858532 -9.134739
v 11.626421 -28.198364 -5.644425
v 12.824473 -28.166449 -0.191779
v 17.400219 -31.415457 8.656366
v 14.227456 -32.320232 19.407019
v 4.826020 -32.515873 26.749491
v -6.039628 -32.487179 29.366840
v -12.133289 -32.118587 23.782616
v -15.817560 -31.267767 13.249969
v -18.026072 -30.769289 3.182447
v -17.970011 -31.183683 -4.180952
v -14.865793 -31.798807 -10.046020
v -8.445210 -32.665707 -13.944112
v -0.766680 -33.287365 -15.793166
v 5.629704 -33.818707 -14.972736
v 10.910496 -33.148319 -12.307363
v 15.136575 -31.776569 -7.648547
v 17.726158 -30.976377 -0.520454
v 25.625048 -35.521286 11.836908
v 22.421305 -36.891483 29.214533
v 7.991388 -36.855019 39.019321
v -9.596289 -36.146027 42.581612
v -18.629963 -35.840881 34.079937
v -25.798168 -35.166409 17.783993
v -27.943533 -34.310505 3.486693
v -24.982965 -34.887703 -6.075071
v -19.258987 -35.544415 -13.108274
v -10.272705 -37.061256 -17.158758
v -1.216366 -37.913013 -19.601963
v 6.179121 -38.175320 -19.018160
v 12.686946 -37.891766 -15.136555
v 19.100830 -36.270378 -9.196764
v 24.055182 -34.956509 -0.861030
v 34.887669 -40.243053 15.079995
v 32.191921 -42.195480 39.602528
v 14.665039 -40.329830 56.680412
v -14.508533 -40.308720 66.182167
v -31.317434 -38.965137 53.483242
v -38.017635 -39.973175 21.560453
v -38.185600 -38.629623 2.790999
v -30.695818 -39.048218 -7.835187
v -22.334120 -39.653904 -16.032446
v -11.957976 -41.100182 -20.880070
v -1.917955 -42.062939 -23.831079
v 6.908346 -42.016453 -23.132322
v 14.772391 -42.396183 -17.945059
v 23.357401 -40.783871 -10.892270
v 30.913731 -39.207508 -1.509973
v 48.536579 -48.372475 19.750631
v 42.953934 -50.958088 47.920967
v 19.877220 -49.525921 76.819405
v -17.616379 -52.967899 88.093178
v -46.723557 -51.215778 68.454544
v -52.135384 -48.248264 23.522377
v -47.444633 -46.249874 1.380289
v -35.901569 -46.803596 -8.805240
v -24.622528 -47.596230 -17.893728
v -13.780455 -48.545704 -24.339193
v -2.816092 -49.634705 -27.424019
v 7.671956 -48.919128 -26.706875
v 16.957514 -49.310940 -20.783476
v 26.993729 -47.967720 -12.391598
v 39.237904 -47.156689 -0.548347
v 5.961298 -26.172100 1.622493
v 5.022604 -26.232660 3.678939
v 3.392829 -26.070152 5.223293
v 1.407208 -25.921597 6.016329
v -0.533462 -25.887487 5.818556
v -2.111492 -25.859900 4.546632
v -3.137783 -25.790602 2.579848
v -3.530581 -25.647602 0.387770
v -3.205439 -25.390396 -1.762689
v -2.099168 -25.067625 -3.620053
v -0.300063 -24.850737 -4.793309
v 1.838289 -24.878948 -5.017188
v 3.828739 -25.130533 -4.272889
v 5.306185 -25.478041 -2.743358
v 6.057875 -25.864466 -0.646791
v 10.243401 -27.627165 2.517838
v 8.593795 -28.043221 7.385695
v 5.447793 -28.155800 11.585099
v 1.022576 -28.063293 13.912661
v -3.246055 -27.848423 13.250737
v -6.096481 -27.644360 9.642079
v -7.792449 -27.522562 4.894816
v -8.673856 -27.300989 0.324184
v -8.293555 -26.978519 -3.903452
v -6.033967 -26.833778 -7.288873
v -2.087645 -26.870199 -9.217272
v 2.308751 -27.067255 -9.516117
v 6.078637 -27.249540 -8.313401
v 8.802147 -27.098036 -5.961178
v 10.295654 -27.146622 -2.196472
v 15.215754 -29.469391 3.275656
v 13.462685 -30.298410 11.794378
v 8.302478 -30.879967 19.810698
v -0.305579 -31.033575 24.679762
v -7.726760 -30.848780 23.638750
v -11.317981 -30.240276 16.313906
v -13.364099 -29.653711 7.141832
v -14.843739 -29.422346 -0.361787
v -14.134420 -29.691483 -6.228560
v -10.267773 -30.210968 -10.823789
v -3.976491 -30.694185 -13.531759
v 2.552673 -31.273642 -13.834222
v 7.860889 -31.295910 -12.207284
v 11.948417 -30.312820 -9.127975
v 14.632183 -29.414618 -3.894891
v 21.023970 -33.004013 4.310486
v 20.377224 -33.835121 17.027590
v 12.470222 -34.485374 28.154636
v -1.194341 -34.251453 33.867634
v -11.709156 -34.010445 32.019028
v -17.716625 -33.431522 21.669149
v -21.803358 -32.522354 8.842095
v -22.279219 -32.622704 -1.226003
v -19.541449 -33.345917 -8.491650
v -13.481779 -34.303261 -13.675234
v -5.072933 -35.341774 -16.752058
v 2.629862 -35.958122 -17.533831
v 8.877320 -35.957172 -15.520276
v 14.397328 -34.816719 -11.278377
v 19.055878 -33.339958 -4.784966
v 29.331583 -37.255527 5.147147
v 30.984104 -38.738258 24.512516
v 20.780664 -39.437721 43.435749
v -0.890621 -38.727779 52.130775
v -19.071106 -37.984707 50.936172
v -28.366110 -37.833233 31.460979
v -34.403301 -36.961288 10.761764
v -31.268221 -36.542545 -2.309554
v -25.131849 -37.089165 -11.308729
v -16.323677 -38.273884 -17.200493
v -6.188005 -39.720303 -20.682484
v 2.669325 -40.131992 -21.987135
v 10.185994 -40.275616 -19.298599
v 17.544830 -39.513229 -13.572696
v 24.925232 -37.604431 -6.103749
v 37.222317 -42.773422 6.793659
v 41.326958 -44.295048 29.423721
v 28.950323 -44.945835 54.790737
v -0.498259 -43.853043 72.992332
v -27.998528 -44.519798 75.268265
v -47.676872 -42.788410 42.178291
v -45.259583 -42.272320 9.912113
v -37.565666 -41.731644 -3.582488
v -28.297421 -42.420052 -13.052188
v -18.103081 -43.300892 -20.198494
v -7.514432 -44.528389 -24.577200
v 2.599324 -44.793858 -25.913233
v 11.643355 -44.983212 -22.531502
v 20.270630 -44.634293 -15.674392
v 30.480377 -42.705585 -7.214551
v 50.383972 -53.752285 10.819162
v 52.707844 -56.142715 36.835899
v 32.882759 -57.353848 66.867432
v -3.315904 -57.843487 90.577744
v -33.258907 -60.354454 83.266663
v -60.183800 -55.398949 45.764000
v -55.045212 -52.421337 9.732564
v -45.954765 -51.774437 -4.573292
v -32.748096 -52.749924 -14.044044
v -20.316727 -53.598061 -22.748339
v -9.109253 -54.814117 -27.980440
v 2.479182 -54.675556 -29.333298
v 13.297043 -53.969193 -26.001053
v 22.707401 -53.587360 -18.123131
v 36.811798 -52.603333 -7.214879
v 8.146235 -26.896862 2.124648
v 6.791048 -27.114914 5.520191
v 4.398036 -27.051193 8.267923
v 1.310126 -26.898895 9.712114
v -1.737452 -26.764183 9.279124
v -4.041758 -26.675371 6.981441
v -5.475103 -26.610241 3.769153
v -6.090651 -26.423277 0.413741
v -5.726602 -26.072021 -2.837139
v -4.059029 -25.773964 -5.514965
v -1.192665 -25.647606 -7.093272
v 2.098267 -25.735495 -7.374146
v 5.025465 -25.977381 -6.376755
v 7.146944 -26.147003 -4.374137
v 8.258864 -26.449015 -1.383819
v 12.627762 -28.403954 2.875389
v 10.835115 -29.058498 9.513000
v 6.765908 -29.429104 15.617936
v 0.399252 -29.491032 19.278242
v -5.421791 -29.275629 18.453642
v -8.567920 -28.858114 13.001067
v -10.335082 -28.525330 6.065931
v -11.606491 -28.260614 0.033296
v -11.188382 -28.192110 -5.060856
v -8.193880 -28.363287 -9.111508
v -3.077512 -28.604679 -11.451413
v 2.456770 -29.000143 -11.723652
v 7.052062 -29.098150 -10.304512
v 10.445192 -28.506300 -7.616490
v 12.447286 -28.094891 -3.099433
v 17.895760 -31.073868 3.794051
v 16.475529 -31.885706 14.152521
v 10.055859 -32.494789 23.582138
v -0.855398 -32.523224 28.905615
v -9.599569 -32.362423 27.474892
v -14.183365 -31.708708 18.784760
v -17.148573 -30.925762 7.959782
v -18.333502 -30.904335 -0.772049
v -16.835695 -31.464689 -7.317773
v -11.965201 -32.232967 -12.245402
v -4.583195 -32.992104 -15.170234
v 2.602096 -33.633949 -15.670931
v 8.400043 -33.622562 -13.866948
v 13.166213 -32.473789 -10.262491
v 16.722380 -31.247772 -4.367622
v 25.079075 -35.061420 4.712430
v 25.542702 -36.209354 20.872807
v 16.186176 -37.064262 35.157318
v -1.253027 -36.508163 41.749870
v -14.854667 -36.005600 39.836143
v -22.571325 -35.548386 26.285973
v -27.623892 -34.637196 10.094627
v -26.934017 -34.499897 -1.753270
v -22.504095 -35.158043 -9.927524
v -14.998154 -36.281746 -15.415448
v -5.609665 -37.582176 -18.652843
v 2.657776 -38.103020 -19.732159
v 9.495223 -38.161049 -17.410950
v 15.930534 -37.173592 -12.421191
v 21.961597 -35.446827 -5.410155
v 32.913074 -39.545853 5.718404
v 35.674835 -41.103100 26.964191
v 25.059221 -41.621002 49.447968
v -0.492222 -40.813988 61.084026
v -24.256338 -39.118187 63.558952
v -36.558125 -40.151188 36.523430
v -40.045811 -39.230087 10.504189
v -34.456532 -38.711750 -2.944768
v -26.803019 -39.289707 -12.315063
v -17.256752 -40.339451 -18.777521
v -6.819824 -41.704937 -22.677061
v 2.645414 -42.056355 -24.031652
v 10.895561 -42.296375 -20.943840
v 18.955986 -41.774448 -14.617671
v 27.633177 -39.767693 -6.757195
v 43.658920 -47.819031 8.638041
v 48.477806 -49.490486 33.024940
v 32.191681 -50.728371 61.279877
v -1.240245 -50.242195 85.108559
v -30.553741 -53.197235 81.849724
v -56.380867 -48.646206 45.353199
v -50.872875 -46.934021 9.499670
v -41.775330 -46.359383 -4.181448
v -30.387976 -47.192169 -13.595779
v -19.160835 -48.028435 -21.502827
v -8.291935 -49.226227 -26.317154
v 2.542071 -49.312077 -27.656324
v 12.455477 -49.128609 -24.239763
v 21.538954 -48.793438 -16.869677
v 33.762180 -47.240276 -7.307269
vt 0.309686 0.175570
vt 0.268888 0.204351
vt 0.257190 0.225237
vt 0.292056 0.201239
vt 0.217519 0.220162
vt 0.214183 0.238562
vt 0.160065 0.221812
vt 0.164870 0.239990
vt 0.101995 0.208932
vt 0.112812 0.229054
vt 0.055194 0.182801
vt 0.071978 0.207272
vt 0.025113 0.145663
vt 0.045790 0.176262
vt 0.018966 0.102094
vt 0.040256 0.139799
vt 0.041586 0.059380
vt 0.059674 0.103965
vt 0.092167 0.026818
vt 0.103461 0.076590
vt 0.161743 0.013005
vt 0.163868 0.064963
vt 0.234439 0.021999
vt 0.227025 0.072535
vt 0.293251 0.051131
vt 0.278059 0.097035
vt 0.326601 0.092466
vt 0.306898 0.131729
vt 0.331053 0.136561
vt 0.310640 0.168651
vt 0.248641 0.244694
vt 0.278611 0.224151
vt 0.211362 0.256298
vt 0.167749 0.257543
vt 0.120888 0.248029
vt 0.083838 0.229309
vt 0.060804 0.202826
vt 0.056093 0.171792
vt 0.073366 0.141406
vt 0.111977 0.118266
vt 0.165085 0.108457
vt 0.220612 0.114844
vt 0.265615 0.135542
vt 0.291242 0.164939
vt 0.294807 0.196339
vt 0.232659 0.260179
vt 0.254702 0.244542
vt 0.203493 0.269057
vt 0.169237 0.269964
vt 0.132911 0.262725
vt 0.102822 0.248426
vt 0.085101 0.228558
vt 0.081893 0.205494
vt 0.095533 0.183133
vt 0.125245 0.166251
vt 0.165746 0.159132
vt 0.208062 0.163765
vt 0.242608 0.178843
vt 0.262659 0.200432
vt 0.266076 0.223718
vt 0.222844 0.279938
vt 0.239018 0.268533
vt 0.200774 0.286386
vt 0.175332 0.287064
vt 0.149249 0.281852
vt 0.126788 0.271404
vt 0.112981 0.257028
vt 0.110795 0.240688
vt 0.121245 0.225126
vt 0.143275 0.213554
vt 0.172664 0.208731
vt 0.203135 0.211873
vt 0.228336 0.222176
vt 0.243263 0.237143
vt 0.246510 0.253563
vt 0.211774 0.283285
vt 0.223383 0.275150
vt 0.195623 0.287905
vt 0.177030 0.288384
vt 0.158450 0.284647
vt 0.142713 0.277191
vt 0.133190 0.267050
vt 0.132085 0.255755
vt 0.140145 0.245252
vt 0.156113 0.237607
vt 0.176682 0.234465
vt 0.197642 0.236518
vt 0.215155 0.243302
vt 0.225759 0.253346
vt 0.228450 0.264629
vt 0.198257 0.281250
vt 0.204373 0.276967
vt 0.189546 0.283705
vt 0.179565 0.283956
vt 0.169865 0.281965
vt 0.162005 0.278030
vt 0.157494 0.272763
vt 0.157322 0.267025
vt 0.161695 0.261814
vt 0.169861 0.258093
vt 0.180206 0.256578
vt 0.190789 0.257566
vt 0.199647 0.260860
vt 0.205286 0.265820
vt 0.206893 0.271524
vt 0.182644 0.273389
vt 0.194769 0.272456
vt 0.193965 0.269604
vt 0.191146 0.267124
vt 0.186717 0.265477
vt 0.181425 0.264983
vt 0.176253 0.265741
vt 0.172170 0.267601
vt 0.169983 0.270207
vt 0.170069 0.273076
vt 0.172325 0.275709
vt 0.176255 0.277677
vt 0.181105 0.278672
vt 0.186095 0.278547
vt 0.190451 0.277319
vt 0.193509 0.275178
vt 0.217671 0.268076
vt 0.215523 0.259583
vt 0.207401 0.252081
vt 0.194215 0.247042
vt 0.178444 0.245521
vt 0.162987 0.247850
vt 0.150920 0.253533
vt 0.144704 0.261390
vt 0.145342 0.269907
vt 0.152359 0.277611
vt 0.164158 0.283306
vt 0.178297 0.286170
vt 0.192585 0.285805
vt 0.205016 0.282268
vt 0.213878 0.276058
vt 0.237480 0.259096
vt 0.234511 0.245244
vt 0.221745 0.232739
vt 0.200388 0.224196
vt 0.174673 0.221598
vt 0.149694 0.225581
vt 0.130695 0.235189
vt 0.121440 0.248222
vt 0.123085 0.262039
vt 0.134750 0.274298
vt 0.153850 0.283249
vt 0.176181 0.287724
vt 0.198198 0.287145
vt 0.217309 0.281611
vt 0.231201 0.271841
vt 0.256293 0.238641
vt 0.252961 0.218788
vt 0.235472 0.200510
vt 0.205598 0.187819
vt 0.169205 0.183932
vt 0.134260 0.189903
vt 0.108389 0.204130
vt 0.096344 0.223091
vt 0.099041 0.242793
vt 0.114805 0.259915
vt 0.141080 0.272288
vt 0.172284 0.278514
vt 0.202133 0.277722
vt 0.227751 0.270058
vt 0.246860 0.256537
vt 0.280441 0.210028
vt 0.276950 0.182686
vt 0.254112 0.157193
vt 0.214337 0.139305
vt 0.165415 0.133795
vt 0.118611 0.142259
vt 0.084450 0.162270
vt 0.068993 0.188643
vt 0.072953 0.215692
vt 0.093330 0.238868
vt 0.126899 0.255377
vt 0.168493 0.263754
vt 0.207427 0.262678
vt 0.240650 0.252436
vt 0.266656 0.234346
vt 0.302723 0.182495
vt 0.299070 0.148334
vt 0.271837 0.116289
vt 0.223819 0.093690
vt 0.164476 0.086710
vt 0.107719 0.097428
vt 0.066520 0.122686
vt 0.048174 0.155795
vt 0.053297 0.189544
vt 0.077908 0.218291
vt 0.116850 0.238542
vt 0.166309 0.248767
vt 0.212772 0.247430
vt 0.252916 0.234966
vt 0.285333 0.212695
vt 0.320847 0.152606
vt 0.316750 0.112097
vt 0.285655 0.074083
vt 0.230732 0.047267
vt 0.162806 0.038984
vt 0.097814 0.051704
vt 0.050630 0.081673
vt 0.029611 0.120946
vt 0.035451 0.160962
vt 0.063586 0.195037
vt 0.107404 0.218993
vt 0.162467 0.230901
vt 0.215851 0.229362
vt 0.263039 0.214794
vt 0.300871 0.188405
vt 0.205633 0.274245
vt 0.206090 0.268672
vt 0.202466 0.263340
vt 0.195218 0.259213
vt 0.185497 0.257072
vt 0.175034 0.257335
vt 0.165778 0.259953
vt 0.159509 0.264419
vt 0.157408 0.269894
vt 0.159750 0.275397
vt 0.165935 0.279997
vt 0.174715 0.282960
vt 0.184555 0.283830
vt 0.193902 0.282477
vt 0.201315 0.279108
vt 0.225916 0.269889
vt 0.227104 0.258987
vt 0.220457 0.248324
vt 0.206398 0.239910
vt 0.187162 0.235492
vt 0.166397 0.236036
vt 0.148129 0.241430
vt 0.136115 0.250504
vt 0.132637 0.261403
vt 0.137951 0.272121
vt 0.150581 0.280919
vt 0.167740 0.286515
vt 0.186327 0.288144
vt 0.203699 0.285595
vt 0.217578 0.279217
vt 0.242764 0.261048
vt 0.244887 0.245353
vt 0.235800 0.229660
vt 0.215735 0.217025
vt 0.187899 0.210302
vt 0.157970 0.211143
vt 0.132260 0.219340
vt 0.116020 0.232907
vt 0.111888 0.248858
vt 0.119885 0.264216
vt 0.138019 0.276628
vt 0.162291 0.284458
vt 0.188053 0.286725
vt 0.211809 0.283162
vt 0.230931 0.274235
vt 0.260389 0.234130
vt 0.264367 0.212075
vt 0.252633 0.189638
vt 0.225335 0.171304
vt 0.186904 0.161449
vt 0.145495 0.162692
vt 0.110389 0.174692
vt 0.088713 0.194314
vt 0.083497 0.217026
vt 0.093962 0.238492
vt 0.117867 0.255576
vt 0.151074 0.266345
vt 0.186365 0.269511
vt 0.218076 0.264618
vt 0.243680 0.252360
vt 0.286709 0.210245
vt 0.293024 0.180639
vt 0.278429 0.150241
vt 0.243114 0.125193
vt 0.192849 0.111651
vt 0.138531 0.113362
vt 0.092672 0.129836
vt 0.064729 0.156599
vt 0.058448 0.187309
vt 0.072321 0.216067
vt 0.102363 0.238669
vt 0.144319 0.252786
vt 0.189555 0.256921
vt 0.230001 0.250496
vt 0.263626 0.234422
vt 0.301348 0.184945
vt 0.308769 0.150190
vt 0.292479 0.114382
vt 0.252542 0.084785
vt 0.195447 0.068749
vt 0.133664 0.070776
vt 0.081567 0.090278
vt 0.049965 0.121882
vt 0.043023 0.158030
vt 0.058884 0.191767
vt 0.092395 0.218163
vt 0.138841 0.234522
vt 0.189526 0.239276
vt 0.235687 0.231899
vt 0.274623 0.213238
vt 0.320370 0.156065
vt 0.328827 0.114513
vt 0.309926 0.071799
vt 0.263845 0.036565
vt 0.198091 0.017502
vt 0.126955 0.019911
vt 0.066877 0.043099
vt 0.030276 0.080737
vt 0.022039 0.123879
vt 0.040154 0.164232
vt 0.078595 0.195867
vt 0.131030 0.215372
vt 0.188792 0.220987
vt 0.243204 0.212257
vt 0.289287 0.189961
vt 0.215775 0.272067
vt 0.216597 0.263830
vt 0.211462 0.255832
vt 0.200808 0.249562
vt 0.186330 0.246282
vt 0.170715 0.246686
vt 0.156954 0.250692
vt 0.147812 0.257461
vt 0.145023 0.265648
vt 0.148850 0.273759
vt 0.158258 0.280458
vt 0.171227 0.284738
vt 0.185441 0.285987
vt 0.198800 0.284036
vt 0.209447 0.279163
vt 0.234340 0.265469
vt 0.235996 0.252170
vt 0.228128 0.238992
vt 0.211067 0.228467
vt 0.187531 0.222897
vt 0.162184 0.223589
vt 0.140195 0.230385
vt 0.126067 0.241705
vt 0.122263 0.255130
vt 0.128918 0.268168
vt 0.144300 0.278773
vt 0.165015 0.285487
vt 0.187190 0.287435
vt 0.207754 0.284378
vt 0.224255 0.276726
vt 0.251577 0.247589
vt 0.254627 0.228714
vt 0.244216 0.209649
vt 0.220535 0.194164
vt 0.187402 0.185876
vt 0.151733 0.186917
vt 0.121325 0.197016
vt 0.102366 0.213610
vt 0.097693 0.232942
vt 0.106923 0.251354
vt 0.127943 0.266102
vt 0.156682 0.275401
vt 0.187209 0.278118
vt 0.214942 0.273890
vt 0.237306 0.263298
vt 0.273549 0.222187
vt 0.278696 0.196357
vt 0.265531 0.169939
vt 0.234224 0.148249
vt 0.189876 0.136550
vt 0.142013 0.138027
vt 0.101530 0.152264
vt 0.076721 0.175456
vt 0.070973 0.202167
vt 0.083141 0.227280
vt 0.110115 0.247123
vt 0.147696 0.259565
vt 0.187960 0.263216
vt 0.224038 0.257557
vt 0.253653 0.243391
vt 0.294028 0.197595
vt 0.300897 0.165415
vt 0.285454 0.132311
vt 0.247828 0.104989
vt 0.194148 0.090200
vt 0.136098 0.092069
vt 0.087119 0.110057
vt 0.057347 0.139240
vt 0.050736 0.172669
vt 0.065602 0.203917
vt 0.097379 0.228416
vt 0.141580 0.243654
vt 0.189541 0.248098
vt 0.232844 0.241198
vt 0.269125 0.223830
vt 0.310859 0.170505
vt 0.318798 0.132352
vt 0.301202 0.093090
vt 0.258194 0.060675
vt 0.196769 0.043125
vt 0.130310 0.045344
vt 0.074222 0.066688
vt 0.040121 0.101310
vt 0.032531 0.140954
vt 0.049519 0.178000
vt 0.085495 0.207015
vt 0.134935 0.224947
vt 0.189159 0.230132
vt 0.239445 0.222078
vt 0.281955 0.201599
vn 0.708418 0.567900 -0.419087
vn 0.640189 0.377091 -0.669299
vn 0.703567 0.572365 -0.421179
vn 0.621412 0.401601 -0.672729
vn 0.592975 0.345683 -0.727244
vn 0.571989 0.353175 -0.740335
vn 0.564586 0.301967 -0.768152
vn 0.558350 0.331217 -0.760618
vn 0.495521 0.361653 -0.789725
vn 0.508961 0.387664 -0.768554
vn 0.587436 0.378742 -0.715174
vn 0.577886 0.390666 -0.716539
vn 0.007191 0.291372 -0.956583
vn 0.037973 0.329048 -0.943549
vn 0.262631 0.328885 -0.907116
vn 0.297586 0.365127 -0.882114
vn -0.115991 0.276917 -0.953868
vn -0.215589 0.301298 -0.928838
vn -0.114185 0.311800 -0.943262
vn -0.224881 0.335662 -0.914746
vn -0.371137 0.328608 -0.868490
vn -0.489775 0.287951 -0.822924
vn -0.356243 0.348810 -0.866846
vn -0.455455 0.305548 -0.836182
vn -0.549976 0.327189 -0.768423
vn -0.580416 0.328334 -0.745194
vn -0.550618 0.259329 -0.793454
vn -0.547960 0.274531 -0.790173
vn -0.567213 0.483528 -0.666686
vn -0.548691 0.528919 -0.647443
vn -0.520647 0.414475 -0.746416
vn -0.554361 0.429548 -0.712862
vn -0.800139 0.593874 -0.084209
vn -0.709129 0.700860 -0.077018
vn -0.719788 0.572043 -0.393284
vn -0.651793 0.643284 -0.401686
vn -0.853523 0.491803 0.172130
vn -0.718001 0.683301 0.132567
vn -0.832063 0.545191 -0.102167
vn -0.694856 0.715885 -0.068443
vn -0.703256 0.451548 0.549122
vn -0.536574 0.360589 0.762931
vn -0.627130 0.584129 0.515268
vn -0.441513 0.536401 0.719264
vn -0.232722 0.463988 0.854725
vn 0.126037 0.540041 0.832148
vn -0.159039 0.648058 0.744801
vn 0.144534 0.739575 0.657373
vn 0.403103 0.607731 0.684230
vn 0.683400 0.509355 0.522993
vn 0.399601 0.750405 0.526509
vn 0.597773 0.653513 0.464315
vn 0.695141 0.534315 0.480922
vn 0.742052 0.605591 0.287434
vn 0.625933 0.673079 0.393920
vn 0.646287 0.736681 0.199034
vn 0.752451 0.658604 0.007676
vn 0.707862 0.649657 -0.277268
vn 0.656307 0.750457 -0.077951
vn 0.662338 0.699773 -0.267629
vn 0.673161 0.654549 -0.344123
vn 0.583920 0.517928 -0.625130
vn 0.583306 0.763366 -0.277536
vn 0.512868 0.665740 -0.541993
vn 0.533547 0.430359 -0.728093
vn 0.526478 0.429098 -0.733959
vn 0.483073 0.566976 -0.667217
vn 0.472651 0.539225 -0.697020
vn 0.507696 0.463549 -0.726201
vn 0.463997 0.591885 -0.659075
vn 0.546452 0.453638 -0.703990
vn 0.489002 0.557694 -0.670712
vn 0.060271 0.445411 -0.893295
vn 0.059216 0.636733 -0.768808
vn 0.316507 0.464008 -0.827357
vn 0.291735 0.628224 -0.721267
vn -0.106374 0.435215 -0.894020
vn -0.213627 0.455024 -0.864475
vn -0.084913 0.636545 -0.766551
vn -0.161308 0.642994 -0.748691
vn -0.304430 0.452611 -0.838132
vn -0.389077 0.397600 -0.830983
vn -0.210627 0.624652 -0.751961
vn -0.293418 0.557550 -0.776559
vn -0.605321 0.384110 -0.697170
vn -0.569592 0.538824 -0.620672
vn -0.519062 0.346515 -0.781346
vn -0.442449 0.504259 -0.741594
vn -0.554323 0.619977 -0.555296
vn -0.524080 0.748790 -0.405775
vn -0.604727 0.484720 -0.631943
vn -0.590513 0.618615 -0.518276
vn -0.587995 0.808680 -0.017282
vn -0.443456 0.895092 0.046450
vn -0.577533 0.755032 -0.310456
vn -0.481976 0.857951 -0.177819
vn -0.426374 0.904051 0.029962
vn -0.236392 0.971658 0.000143
vn -0.483845 0.875146 -0.003635
vn -0.369616 0.924333 0.094829
vn -0.274873 0.783775 0.556903
vn -0.098790 0.961188 0.257603
vn -0.433998 0.841229 0.322459
vn -0.208279 0.974918 0.078461
vn -0.047397 0.857961 0.511524
vn 0.121201 0.916400 0.381472
vn 0.054668 0.959787 0.275356
vn 0.080100 0.968678 0.235046
vn 0.277020 0.895307 0.348833
vn 0.452893 0.821346 0.346812
vn 0.162486 0.956810 0.241067
vn 0.315212 0.921485 0.226951
vn 0.480955 0.835436 0.265950
vn 0.497292 0.857193 0.133867
vn 0.374330 0.904628 0.203777
vn 0.423393 0.898099 0.118980
vn 0.538854 0.839734 -0.066961
vn 0.628953 0.758830 -0.169105
vn 0.485554 0.874016 -0.018280
vn 0.579430 0.810397 -0.086705
vn 0.498391 0.837507 -0.224029
vn 0.463562 0.755571 -0.462842
vn 0.475352 0.859742 -0.186776
vn 0.472075 0.780885 -0.409100
vn 0.447968 0.658604 -0.604621
vn 0.438375 0.609867 -0.660220
vn 0.461529 0.684854 -0.563885
vn 0.446170 0.622426 -0.643054
vn 0.406157 0.669812 -0.621602
vn 0.362827 0.673856 -0.643641
vn 0.438713 0.616522 -0.653782
vn 0.414925 0.617529 -0.668203
vn 0.053722 0.734169 -0.676839
vn 0.069747 0.727342 -0.682722
vn 0.255303 0.722758 -0.642216
vn 0.240989 0.726959 -0.643005
vn -0.065525 0.721671 -0.689128
vn -0.127323 0.712014 -0.690525
vn -0.047160 0.698866 -0.713696
vn -0.127837 0.683135 -0.719016
vn -0.200315 0.684061 -0.701380
vn -0.180405 0.727203 -0.662292
vn -0.149779 0.699673 -0.698587
vn -0.155395 0.689400 -0.707517
vn -0.452488 0.748396 -0.484931
vn -0.371529 0.845001 -0.384630
vn -0.336432 0.699725 -0.630236
vn -0.280611 0.790310 -0.544672
vn -0.435942 0.863858 -0.252395
vn -0.376647 0.909684 -0.174961
vn -0.470713 0.799510 -0.373112
vn -0.383568 0.879289 -0.282358
vn -0.347948 0.933552 0.086097
vn -0.319442 0.942300 0.100135
vn -0.385297 0.920244 -0.068531
vn -0.350834 0.936284 -0.016957
vn -0.245121 0.964532 0.097946
vn -0.260817 0.954318 0.145780
vn -0.320681 0.937178 0.137334
vn -0.299608 0.942441 0.148457
vn -0.049895 0.994093 0.096384
vn -0.137443 0.978130 0.156110
vn -0.164611 0.985043 0.050932
vn -0.218718 0.964735 0.146454
vn 0.053418 0.982901 0.176219
vn 0.047427 0.975406 0.215251
vn 0.012280 0.977567 0.210267
vn 0.070329 0.972702 0.221143
vn 0.114842 0.979744 0.164051
vn 0.212918 0.962217 0.169716
vn 0.120157 0.972673 0.198668
vn 0.173282 0.959485 0.222176
vn 0.288240 0.938029 0.192403
vn 0.371684 0.920098 0.123578
vn 0.254454 0.942543 0.216485
vn 0.344276 0.930268 0.126794
vn 0.446448 0.894439 0.025749
vn 0.499573 0.865223 -0.042624
vn 0.413633 0.908994 0.051360
vn 0.453695 0.890991 -0.017186
vn 0.519087 0.841218 -0.151332
vn 0.535488 0.761739 -0.364702
vn 0.567786 0.815861 -0.109496
vn 0.605680 0.735352 -0.303988
vn 0.487688 0.586481 -0.646684
vn 0.505043 0.582808 -0.636605
vn 0.535115 0.658354 -0.529360
vn 0.593389 0.642877 -0.484354
vn 0.333532 0.628807 -0.702394
vn 0.311497 0.590209 -0.744730
vn 0.412637 0.583297 -0.699639
vn 0.406913 0.567487 -0.715807
vn 0.106814 0.670199 -0.734455
vn 0.141077 0.613008 -0.777379
vn 0.240307 0.672722 -0.699784
vn 0.241395 0.613938 -0.751537
vn -0.027091 0.640689 -0.767322
vn -0.138572 0.625053 -0.768184
vn -0.006673 0.597259 -0.802021
vn -0.144271 0.588395 -0.795599
vn -0.230594 0.707868 -0.667645
vn -0.297430 0.693531 -0.656163
vn -0.200170 0.640138 -0.741725
vn -0.240052 0.613626 -0.752222
vn -0.389802 0.852378 -0.348576
vn -0.436582 0.837752 -0.327976
vn -0.309820 0.794320 -0.522558
vn -0.364783 0.784451 -0.501568
vn -0.401993 0.881670 -0.247103
vn -0.379514 0.915352 -0.134539
vn -0.438817 0.877512 -0.193421
vn -0.386817 0.920398 -0.056916
vn -0.344624 0.938699 0.008906
vn -0.316377 0.942511 0.107606
vn -0.331301 0.942064 0.052486
vn -0.302426 0.946278 0.114440
vn -0.277790 0.943989 0.178096
vn -0.310347 0.932660 0.183930
vn -0.299557 0.941028 0.157266
vn -0.300512 0.942567 0.145805
vn -0.168505 0.963917 0.206083
vn -0.194250 0.945189 0.262459
vn -0.244015 0.951604 0.186832
vn -0.288361 0.930377 0.226379
vn -0.013906 0.965682 0.259355
vn 0.087637 0.952246 0.292484
vn -0.031814 0.950398 0.309404
vn 0.089676 0.937079 0.337404
vn 0.140585 0.945500 0.293710
vn 0.185195 0.943446 0.274976
vn 0.159306 0.928646 0.335021
vn 0.212154 0.931482 0.295522
vn 0.254231 0.940257 0.226459
vn 0.341109 0.929844 0.137969
vn 0.270540 0.933897 0.233761
vn 0.350713 0.921620 0.166185
vn 0.416110 0.905938 0.078290
vn 0.478434 0.878010 0.014147
vn 0.435439 0.891758 0.123130
vn 0.511281 0.857679 0.054575
vn 0.554864 0.805502 -0.208068
vn 0.433500 0.894867 -0.106256
vn 0.514428 0.856561 -0.040822
vn 0.390255 0.919672 0.043643
vn 0.456329 0.681140 -0.572549
vn 0.380732 0.805903 -0.453392
vn 0.533538 0.741193 -0.407395
vn 0.437826 0.853941 -0.281235
vn 0.276770 0.635923 -0.720417
vn 0.262411 0.723266 -0.638770
vn 0.358672 0.647351 -0.672526
vn 0.315838 0.760049 -0.567955
vn 0.160645 0.640407 -0.751047
vn 0.152926 0.710078 -0.687316
vn 0.230417 0.636037 -0.736454
vn 0.219666 0.703151 -0.676259
vn -0.126396 0.665491 -0.735626
vn -0.112535 0.765380 -0.633663
vn 0.017791 0.649728 -0.759959
vn 0.022581 0.737065 -0.675444
vn -0.316353 0.757845 -0.570607
vn -0.296147 0.838584 -0.457246
vn -0.237038 0.696612 -0.677159
vn -0.212433 0.798692 -0.562994
vn -0.405099 0.874442 -0.266919
vn -0.362070 0.916420 -0.170525
vn -0.371750 0.826949 -0.421849
vn -0.355608 0.880988 -0.312096
vn -0.408246 0.907412 -0.099694
vn -0.363705 0.931195 0.024367
vn -0.352885 0.935483 -0.018553
vn -0.330984 0.941038 0.069984
vn -0.319296 0.943241 0.091363
vn -0.301155 0.946139 0.118856
vn -0.315899 0.942706 0.107302
vn -0.312113 0.942452 0.119869
vn -0.306595 0.938702 0.157601
vn -0.283118 0.948391 0.142826
vn -0.305162 0.943428 0.129690
vn -0.308437 0.942741 0.126907
vn -0.152255 0.952210 0.264790
vn -0.102397 0.965654 0.238805
vn -0.260178 0.941774 0.213003
vn -0.207553 0.959608 0.189930
vn -0.021366 0.953828 0.299593
vn 0.080137 0.945782 0.314760
vn -0.004729 0.963805 0.266567
vn 0.075472 0.958411 0.275230
vn 0.155253 0.939035 0.306772
vn 0.216117 0.937399 0.273086
vn 0.145630 0.952951 0.265851
vn 0.204810 0.947994 0.243640
vn 0.264261 0.936678 0.229783
vn 0.320777 0.928025 0.189400
vn 0.243350 0.945319 0.217145
vn 0.272183 0.943317 0.189919
vn 0.381986 0.910630 0.157605
vn 0.445252 0.890604 0.092606
vn 0.298688 0.939831 0.165839
vn 0.340727 0.931844 0.124790
vn 0.363508 0.931587 -0.002617
vn 0.315782 0.946248 0.069978
vn 0.324105 0.941128 0.096096
vn 0.298653 0.945714 0.128183
vn 0.339426 0.888694 -0.308243
vn 0.306211 0.940413 -0.147842
vn 0.372462 0.916366 -0.146783
vn 0.318872 0.947307 -0.030516
vn 0.266236 0.819911 -0.506818
vn 0.265610 0.900351 -0.344702
vn 0.307507 0.851515 -0.424691
vn 0.289040 0.923631 -0.251719
vn 0.214457 0.794722 -0.567825
vn 0.127423 0.795427 -0.592503
vn 0.209890 0.885573 -0.414375
vn 0.113040 0.890243 -0.441236
vn -0.117687 0.840885 -0.528264
vn -0.124993 0.911309 -0.392292
vn 0.005202 0.815330 -0.578973
vn -0.007084 0.898519 -0.438878
vn -0.272405 0.898213 -0.344978
vn -0.259972 0.941918 -0.212613
vn -0.202361 0.869270 -0.451020
vn -0.201691 0.925673 -0.320080
vn -0.336003 0.919785 -0.202725
vn -0.346383 0.935723 -0.066650
vn -0.286686 0.953120 -0.096816
vn -0.308830 0.951002 0.014795
vn -0.328981 0.943475 0.040322
vn -0.320449 0.943081 0.088939
vn -0.310200 0.948338 0.066566
vn -0.309796 0.946124 0.094208
vn -0.312954 0.942398 0.118093
vn -0.295406 0.947830 0.119810
vn -0.316979 0.942341 0.107324
vn -0.305361 0.945895 0.109721
vn -0.260989 0.953492 0.150788
vn -0.231712 0.959539 0.159984
vn -0.299092 0.945091 0.131709
vn -0.271481 0.952523 0.137833
vn -0.085748 0.968912 0.232070
vn -0.083394 0.969951 0.228561
vn -0.182047 0.964622 0.190694
vn -0.163222 0.967209 0.194591
vn 0.006919 0.966086 0.258128
vn 0.088491 0.960095 0.265304
vn 0.008132 0.966686 0.255834
vn 0.095377 0.959494 0.265093
vn 0.155918 0.953864 0.256581
vn 0.211262 0.948070 0.237764
vn 0.166875 0.951600 0.258090
vn 0.228371 0.944339 0.236793
vn 0.248053 0.945079 0.212827
vn 0.268362 0.945001 0.186962
vn 0.265720 0.940752 0.210661
vn 0.286104 0.939928 0.186228
vn 0.278595 0.945068 0.170969
vn 0.292123 0.943596 0.155855
vn 0.289714 0.940914 0.175349
vn 0.290158 0.943114 0.162310
vn 0.268667 0.953451 0.136926
vn 0.263243 0.957354 0.119065
vn 0.218948 0.965823 0.138737
vn 0.272993 0.959487 0.069717
vn 0.257824 0.966135 0.010454
vn 0.214550 0.969588 0.117762
vn 0.268495 0.958924 -0.091521
vn 0.234144 0.966425 -0.105830
vn 0.190997 0.979246 0.067810
vn 0.182972 0.960148 -0.211273
vn 0.093521 0.978729 -0.182602
vn 0.123055 0.992128 0.023233
vn -0.005252 0.970430 -0.241327
vn -0.097563 0.984110 -0.148357
vn 0.010608 0.999858 0.013077
vn -0.175902 0.973935 -0.143212
vn -0.209136 0.977606 -0.023413
vn -0.097672 0.993939 0.050454
vn -0.242487 0.970154 0.001325
vn -0.228843 0.971378 0.063679
vn -0.145846 0.985028 0.091917
vn -0.255885 0.963661 0.076684
vn -0.232574 0.968323 0.090884
vn -0.148582 0.984133 0.096983
vn -0.252318 0.961679 0.107280
vn -0.222043 0.968076 0.116302
vn -0.144645 0.984879 0.095347
vn -0.219969 0.965489 0.139446
vn -0.170445 0.973653 0.151486
vn -0.129394 0.985237 0.112097
vn -0.139252 0.973497 0.181416
vn -0.071289 0.978238 0.194857
vn -0.087213 0.986449 0.138968
vn 0.000147 0.972822 0.231553
vn 0.076680 0.971319 0.225079
vn 0.002603 0.986639 0.162898
vn 0.165711 0.958711 0.231111
vn 0.221122 0.955806 0.193752
vn 0.133879 0.978562 0.156505
vn 0.262366 0.948064 0.179828
vn 0.264392 0.951692 0.156138
vn 0.217526 0.967310 0.130362
vn 0.269684 0.950402 0.154942
vn 0.257219 0.954952 0.148005
vn 0.225665 0.965805 0.127655
vn 0.046031 0.992985 0.108909
f 1/1/1 316/316/2 211/211/3
f 211/211/3 316/316/2 406/406/4
f 315/315/5 405/405/6 2/2/7
f 2/2/7 405/405/6 210/210/8
f 314/314/9 404/404/10 3/5/11
f 3/5/11 404/404/10 209/209/12
f 313/313/13 403/403/14 4/7/15
f 4/7/15 403/403/14 208/208/16
f 5/9/17 312/312/18 207/207/19
f 207/207/19 312/312/18 402/402/20
f 6/11/21 311/311/22 206/206/23
f 206/206/23 311/311/22 401/401/24
f 310/310/25 400/400/26 7/13/27
f 7/13/27 400/400/26 205/205/28
f 309/309/29 399/399/30 8/15/31
f 8/15/31 399/399/30 204/204/32
f 308/308/33 398/398/34 9/17/35
f 9/17/35 398/398/34 203/203/36
f 307/307/37 397/397/38 10/19/39
f 10/19/39 397/397/38 202/202/40
f 11/21/41 306/306/42 201/201/43
f 201/201/43 306/306/42 396/396/44
f 12/23/45 305/305/46 200/200/47
f 200/200/47 305/305/46 395/395/48
f 13/25/49 304/304/50 199/199/51
f 199/199/51 304/304/50 394/394/52
f 14/27/53 303/303/54 198/198/55
f 198/198/55 303/303/54 393/393/56
f 15/29/57 302/302/58 197/197/59
f 197/197/59 302/302/58 392/392/60
f 16/4/61 301/301/62 196/196/63
f 196/196/63 301/301/62 391/391/64
f 17/3/65 300/300/66 195/195/67
f 195/195/67 300/300/66 390/390/68
f 299/299/69 389/389/70 18/6/71
f 18/6/71 389/389/70 194/194/72
f 298/298/73 388/388/74 19/8/75
f 19/8/75 388/388/74 193/193/76
f 20/10/77 297/297/78 192/192/79
f 192/192/79 297/297/78 387/387/80
f 21/12/81 296/296/82 191/191/83
f 191/191/83 296/296/82 386/386/84
f 295/295/85 385/385/86 22/14/87
f 22/14/87 385/385/86 190/190/88
f 294/294/89 384/384/90 23/16/91
f 23/16/91 384/384/90 189/189/92
f 293/293/93 383/383/94 24/18/95
f 24/18/95 383/383/94 188/188/96
f 292/292/97 382/382/98 25/20/99
f 25/20/99 382/382/98 187/187/100
f 291/291/101 381/381/102 26/22/103
f 26/22/103 381/381/102 186/186/104
f 27/24/105 290/290/106 185/185/107
f 185/185/107 290/290/106 380/380/108
f 28/26/109 289/289/110 184/184/111
f 184/184/111 289/289/110 379/379/112
f 29/28/113 288/288/114 183/183/115
f 183/183/115 288/288/114 378/378/116
f 30/30/117 287/287/118 182/182/119
f 182/182/119 287/287/118 377/377/120
f 31/32/121 286/286/122 181/181/123
f 181/181/123 286/286/122 376/376/124
f 32/31/125 285/285/126 180/180/127
f 180/180/127 285/285/126 375/375/128
f 284/284/129 374/374/130 33/33/131
f 33/33/131 374/374/130 179/179/132
f 283/283/133 373/373/134 34/34/135
f 34/34/135 373/373/134 178/178/136
f 35/35/137 282/282/138 177/177/139
f 177/177/139 282/282/138 372/372/140
f 281/281/141 371/371/142 36/36/143
f 36/36/143 371/371/142 176/176/144
f 280/280/145 370/370/146 37/37/147
f 37/37/147 370/370/146 175/175/148
f 279/279/149 369/369/150 38/38/151
f 38/38/151 369/369/150 174/174/152
f 278/278/153 368/368/154 39/39/155
f 39/39/155 368/368/154 173/173/156
f 277/277/157 367/367/158 40/40/159
f 40/40/159 367/367/158 172/172/160
f 276/276/161 366/366/162 41/41/163
f 41/41/163 366/366/162 171/171/164
f 42/42/165 275/275/166 170/170/167
f 170/170/167 275/275/166 365/365/168
f 43/43/169 274/274/170 169/169/171
f 169/169/171 274/274/170 364/364/172
f 44/44/173 273/273/174 168/168/175
f 168/168/175 273/273/174 363/363/176
f 45/45/177 272/272/178 167/167/179
f 167/167/179 272/272/178 362/362/180
f 46/47/181 271/271/182 166/166/183
f 166/166/183 271/271/182 361/361/184
f 270/270/185 360/360/186 47/46/187
f 47/46/187 360/360/186 165/165/188
f 269/269/189 359/359/190 48/48/191
f 48/48/191 359/359/190 164/164/192
f 268/268/193 358/358/194 49/49/195
f 49/49/195 358/358/194 163/163/196
f 50/50/197 267/267/198 162/162/199
f 162/162/199 267/267/198 357/357/200
f 266/266/201 356/356/202 51/51/203
f 51/51/203 356/356/202 161/161/204
f 265/265/205 355/355/206 52/52/207
f 52/52/207 355/355/206 160/160/208
f 53/53/209 264/264/210 159/159/211
f 159/159/211 264/264/210 354/354/212
f 54/54/213 263/263/214 158/158/215
f 158/158/215 263/263/214 353/353/216
f 262/262/217 352/352/218 55/55/219
f 55/55/219 352/352/218 157/157/220
f 261/261/221 351/351/222 56/56/223
f 56/56/223 351/351/222 156/156/224
f 57/57/225 260/260/226 155/155/227
f 155/155/227 260/260/226 350/350/228
f 58/58/229 259/259/230 154/154/231
f 154/154/231 259/259/230 349/349/232
f 59/59/233 258/258/234 153/153/235
f 153/153/235 258/258/234 348/348/236
f 60/60/237 257/257/238 152/152/239
f 152/152/239 257/257/238 347/347/240
f 256/256/241 346/346/242 61/62/243
f 61/62/243 346/346/242 151/151/244
f 255/255/245 345/345/246 62/61/247
f 62/61/247 345/345/246 150/150/248
f 254/254/249 344/344/250 63/63/251
f 63/63/251 344/344/250 149/149/252
f 253/253/253 343/343/254 64/64/255
f 64/64/255 343/343/254 148/148/256
f 252/252/257 342/342/258 65/65/259
f 65/65/259 342/342/258 147/147/260
f 251/251/261 341/341/262 66/66/263
f 66/66/263 341/341/262 146/146/264
f 250/250/265 340/340/266 67/67/267
f 67/67/267 340/340/266 145/145/268
f 68/68/269 249/249/270 144/144/271
f 144/144/271 249/249/270 339/339/272
f 69/69/273 248/248/274 143/143/275
f 143/143/275 248/248/274 338/338/276
f 247/247/277 337/337/278 70/70/279
f 70/70/279 337/337/278 142/142/280
f 246/246/281 336/336/282 71/71/283
f 71/71/283 336/336/282 141/141/284
f 72/72/285 245/245/286 140/140/287
f 140/140/287 245/245/286 335/335/288
f 73/73/289 244/244/290 139/139/291
f 139/139/291 244/244/290 334/334/292
f 74/74/293 243/243/294 138/138/295
f 138/138/295 243/243/294 333/333/296
f 75/75/297 242/242/298 137/137/299
f 137/137/299 242/242/298 332/332/300
f 241/241/301 331/331/302 76/77/303
f 76/77/303 331/331/302 136/136/304
f 240/240/305 330/330/306 77/76/307
f 77/76/307 330/330/306 135/135/308
f 239/239/309 329/329/310 78/78/311
f 78/78/311 329/329/310 134/134/312
f 79/79/313 238/238/314 133/133/315
f 133/133/315 238/238/314 328/328/316
f 237/237/317 327/327/318 80/80/319
f 80/80/319 327/327/318 132/132/320
f 236/236/321 326/326/322 81/81/323
f 81/81/323 326/326/322 131/131/324
f 82/82/325 235/235/326 130/130/327
f 130/130/327 235/235/326 325/325/328
f 83/83/329 234/234/330 129/129/331
f 129/129/331 234/234/330 324/324/332
f 233/233/333 323/323/334 84/84/335
f 84/84/335 323/323/334 128/128/336
f 232/232/337 322/322/338 85/85/339
f 85/85/339 322/322/338 127/127/340
f 231/231/341 321/321/342 86/86/343
f 86/86/343 321/321/342 126/126/344
f 87/87/345 230/230/346 125/125/347
f 125/125/347 230/230/346 320/320/348
f 88/88/349 229/229/350 124/124/351
f 124/124/351 229/229/350 319/319/352
f 89/89/353 228/228/354 123/123/355
f 123/123/355 228/228/354 318/318/356
f 90/90/357 227/227/358 122/122/359
f 122/122/359 227/227/358 317/317/360
f 91/92/361 226/226/362 121/121/363
f 92/91/364 225/225/365 120/120/366
f 93/93/367 224/224/368 119/119/369
f 94/94/370 223/223/371 118/118/372
f 95/95/373 222/222/374 117/117/375
f 96/96/376 221/221/377 116/116/378
f 97/97/379 220/220/380 115/115/381
f 98/98/382 219/219/383 114/114/384
f 99/99/385 218/218/386 113/113/387
f 100/100/388 217/217/389 112/112/390
f 101/101/391 216/216/392 111/111/393
f 102/102/394 215/215/395 110/110/396
f 103/103/397 214/214/398 109/109/399
f 104/104/400 213/213/401 108/108/402
f 105/105/403 212/212/404 107/107/405
f 107/107/405 121/121/363 106/106/406
f 121/121/363 212/212/404 91/92/361
f 107/107/405 212/212/404 121/121/363
f 108/108/402 107/107/405 106/106/406
f 107/107/405 213/213/401 105/105/403
f 108/108/402 213/213/401 107/107/405
f 109/109/399 108/108/402 106/106/406
f 108/108/402 214/214/398 104/104/400
f 109/109/399 214/214/398 108/108/402
f 110/110/396 109/109/399 106/106/406
f 109/109/399 215/215/395 103/103/397
f 110/110/396 215/215/395 109/109/399
f 111/111/393 110/110/396 106/106/406
f 110/110/396 216/216/392 102/102/394
f 111/111/393 216/216/392 110/110/396
f 112/112/390 111/111/393 106/106/406
f 111/111/393 217/217/389 101/101/391
f 112/112/390 217/217/389 111/111/393
f 113/113/387 112/112/390 106/106/406
f 112/112/390 218/218/386 100/100/388
f 113/113/387 218/218/386 112/112/390
f 114/114/384 113/113/387 106/106/406
f 113/113/387 219/219/383 99/99/385
f 114/114/384 219/219/383 113/113/387
f 115/115/381 114/114/384 106/106/406
f 114/114/384 220/220/380 98/98/382
f 115/115/381 220/220/380 114/114/384
f 116/116/378 115/115/381 106/106/406
f 115/115/381 221/221/377 97/97/379
f 116/116/378 221/221/377 115/115/381
f 117/117/375 116/116/378 106/106/406
f 116/116/378 222/222/374 96/96/376
f 117/117/375 222/222/374 116/116/378
f 118/118/372 117/117/375 106/106/406
f 117/117/375 223/223/371 95/95/373
f 118/118/372 223/223/371 117/117/375
f 119/119/369 118/118/372 106/106/406
f 118/118/372 224/224/368 94/94/370
f 119/119/369 224/224/368 118/118/372
f 120/120/366 119/119/369 106/106/406
f 119/119/369 225/225/365 93/93/367
f 120/120/366 225/225/365 119/119/369
f 121/121/363 120/120/366 106/106/406
f 120/120/366 226/226/362 92/91/364
f 121/121/363 226/226/362 120/120/366
f 212/212/404 317/317/360 91/92/361
f 91/92/361 317/317/360 136/136/304
f 317/317/360 227/227/358 136/136/304
f 136/136/304 227/227/358 76/77/303
f 122/122/359 317/317/360 105/105/403
f 105/105/403 317/317/360 212/212/404
f 318/318/356 122/122/359 213/213/401
f 213/213/401 122/122/359 105/105/403
f 122/122/359 318/318/356 90/90/357
f 90/90/357 318/318/356 228/228/354
f 123/123/355 318/318/356 104/104/400
f 104/104/400 318/318/356 213/213/401
f 319/319/352 123/123/355 214/214/398
f 214/214/398 123/123/355 104/104/400
f 123/123/355 319/319/352 89/89/353
f 89/89/353 319/319/352 229/229/350
f 124/124/351 319/319/352 103/103/397
f 103/103/397 319/319/352 214/214/398
f 320/320/348 124/124/351 215/215/395
f 215/215/395 124/124/351 103/103/397
f 124/124/351 320/320/348 88/88/349
f 88/88/349 320/320/348 230/230/346
f 125/125/347 320/320/348 102/102/394
f 102/102/394 320/320/348 215/215/395
f 216/216/392 321/321/342 102/102/394
f 102/102/394 321/321/342 125/125/347
f 321/321/342 231/231/341 125/125/347
f 125/125/347 231/231/341 87/87/345
f 321/321/342 216/216/392 126/126/344
f 126/126/344 216/216/392 101/101/391
f 217/217/389 322/322/338 101/101/391
f 101/101/391 322/322/338 126/126/344
f 322/322/338 232/232/337 126/126/344
f 126/126/344 232/232/337 86/86/343
f 322/322/338 217/217/389 127/127/340
f 127/127/340 217/217/389 100/100/388
f 218/218/386 323/323/334 100/100/388
f 100/100/388 323/323/334 127/127/340
f 323/323/334 233/233/333 127/127/340
f 127/127/340 233/233/333 85/85/339
f 323/323/334 218/218/386 128/128/336
f 128/128/336 218/218/386 99/99/385
f 219/219/383 324/324/332 99/99/385
f 99/99/385 324/324/332 128/128/336
f 128/128/336 324/324/332 84/84/335
f 84/84/335 324/324/332 234/234/330
f 129/129/331 324/324/332 98/98/382
f 98/98/382 324/324/332 219/219/383
f 220/220/380 325/325/328 98/98/382
f 98/98/382 325/325/328 129/129/331
f 129/129/331 325/325/328 83/83/329
f 83/83/329 325/325/328 235/235/326
f 130/130/327 325/325/328 97/97/379
f 97/97/379 325/325/328 220/220/380
f 221/221/377 326/326/322 97/97/379
f 97/97/379 326/326/322 130/130/327
f 326/326/322 236/236/321 130/130/327
f 130/130/327 236/236/321 82/82/325
f 131/131/324 326/326/322 96/96/376
f 96/96/376 326/326/322 221/221/377
f 222/222/374 327/327/318 96/96/376
f 96/96/376 327/327/318 131/131/324
f 327/327/318 237/237/317 131/131/324
f 131/131/324 237/237/317 81/81/323
f 132/132/320 327/327/318 95/95/373
f 95/95/373 327/327/318 222/222/374
f 223/223/371 328/328/316 95/95/373
f 95/95/373 328/328/316 132/132/320
f 328/328/316 238/238/314 132/132/320
f 132/132/320 238/238/314 80/80/319
f 133/133/315 328/328/316 94/94/370
f 94/94/370 328/328/316 223/223/371
f 224/224/368 329/329/310 94/94/370
f 94/94/370 329/329/310 133/133/315
f 133/133/315 329/329/310 79/79/313
f 79/79/313 329/329/310 239/239/309
f 134/134/312 329/329/310 93/93/367
f 93/93/367 329/329/310 224/224/368
f 225/225/365 330/330/306 93/93/367
f 93/93/367 330/330/306 134/134/312
f 330/330/306 240/240/305 134/134/312
f 134/134/312 240/240/305 78/78/311
f 330/330/306 225/225/365 135/135/308
f 135/135/308 225/225/365 92/91/364
f 226/226/362 331/331/302 92/91/364
f 92/91/364 331/331/302 135/135/308
f 331/331/302 241/241/301 135/135/308
f 135/135/308 241/241/301 77/76/307
f 136/136/304 331/331/302 91/92/361
f 91/92/361 331/331/302 226/226/362
f 227/227/358 332/332/300 76/77/303
f 76/77/303 332/332/300 151/151/244
f 151/151/244 332/332/300 61/62/243
f 61/62/243 332/332/300 242/242/298
f 137/137/299 332/332/300 90/90/357
f 90/90/357 332/332/300 227/227/358
f 333/333/296 137/137/299 228/228/354
f 228/228/354 137/137/299 90/90/357
f 137/137/299 333/333/296 75/75/297
f 75/75/297 333/333/296 243/243/294
f 138/138/295 333/333/296 89/89/353
f 89/89/353 333/333/296 228/228/354
f 334/334/292 138/138/295 229/229/350
f 229/229/350 138/138/295 89/89/353
f 138/138/295 334/334/292 74/74/293
f 74/74/293 334/334/292 244/244/290
f 139/139/291 334/334/292 88/88/349
f 88/88/349 334/334/292 229/229/350
f 335/335/288 139/139/291 230/230/346
f 230/230/346 139/139/291 88/88/349
f 139/139/291 335/335/288 73/73/289
f 73/73/289 335/335/288 245/245/286
f 140/140/287 335/335/288 87/87/345
f 87/87/345 335/335/288 230/230/346
f 231/231/341 336/336/282 87/87/345
f 87/87/345 336/336/282 140/140/287
f 336/336/282 246/246/281 140/140/287
f 140/140/287 246/246/281 72/72/285
f 336/336/282 231/231/341 141/141/284
f 141/141/284 231/231/341 86/86/343
f 232/232/337 337/337/278 86/86/343
f 86/86/343 337/337/278 141/141/284
f 337/337/278 247/247/277 141/141/284
f 141/141/284 247/247/277 71/71/283
f 337/337/278 232/232/337 142/142/280
f 142/142/280 232/232/337 85/85/339
f 233/233/333 338/338/276 85/85/339
f 85/85/339 338/338/276 142/142/280
f 338/338/276 248/248/274 142/142/280
f 142/142/280 248/248/274 70/70/279
f 338/338/276 233/233/333 143/143/275
f 143/143/275 233/233/333 84/84/335
f 339/339/272 143/143/275 234/234/330
f 234/234/330 143/143/275 84/84/335
f 143/143/275 339/339/272 69/69/273
f 69/69/273 339/339/272 249/249/270
f 144/144/271 339/339/272 83/83/329
f 83/83/329 339/339/272 234/234/330
f 340/340/266 144/144/271 235/235/326
f 235/235/326 144/144/271 83/83/329
f 144/144/271 340/340/266 68/68/269
f 68/68/269 340/340/266 250/250/265
f 340/340/266 235/235/326 145/145/268
f 145/145/268 235/235/326 82/82/325
f 236/236/321 341/341/262 82/82/325
f 82/82/325 341/341/262 145/145/268
f 341/341/262 251/251/261 145/145/268
f 145/145/268 251/251/261 67/67/267
f 341/341/262 236/236/321 146/146/264
f 146/146/264 236/236/321 81/81/323
f 237/237/317 342/342/258 81/81/323
f 81/81/323 342/342/258 146/146/264
f 342/342/258 252/252/257 146/146/264
f 146/146/264 252/252/257 66/66/263
f 342/342/258 237/237/317 147/147/260
f 147/147/260 237/237/317 80/80/319
f 238/238/314 343/343/254 80/80/319
f 80/80/319 343/343/254 147/147/260
f 343/343/254 253/253/253 147/147/260
f 147/147/260 253/253/253 65/65/259
f 148/148/256 343/343/254 79/79/313
f 79/79/313 343/343/254 238/238/314
f 239/239/309 344/344/250 79/79/313
f 79/79/313 344/344/250 148/148/256
f 344/344/250 254/254/249 148/148/256
f 148/148/256 254/254/249 64/64/255
f 344/344/250 239/239/309 149/149/252
f 149/149/252 239/239/309 78/78/311
f 240/240/305 345/345/246 78/78/311
f 78/78/311 345/345/246 149/149/252
f 345/345/246 255/255/245 149/149/252
f 149/149/252 255/255/245 63/63/251
f 345/345/246 240/240/305 150/150/248
f 150/150/248 240/240/305 77/76/307
f 241/241/301 346/346/242 77/76/307
f 77/76/307 346/346/242 150/150/248
f 346/346/242 256/256/241 150/150/248
f 150/150/248 256/256/241 62/61/247
f 346/346/242 241/241/301 151/151/244
f 151/151/244 241/241/301 76/77/303
f 347/347/240 166/166/183 242/242/298
f 242/242/298 166/166/183 61/62/243
f 166/166/183 347/347/240 46/47/181
f 46/47/181 347/347/240 257/257/238
f 152/152/239 347/347/240 75/75/297
f 75/75/297 347/347/240 242/242/298
f 348/348/236 152/152/239 243/243/294
f 243/243/294 152/152/239 75/75/297
f 152/152/239 348/348/236 60/60/237
f 60/60/237 348/348/236 258/258/234
f 153/153/235 348/348/236 74/74/293
f 74/74/293 348/348/236 243/243/294
f 349/349/232 153/153/235 244/244/290
f 244/244/290 153/153/235 74/74/293
f 153/153/235 349/349/232 59/59/233
f 59/59/233 349/349/232 259/259/230
f 154/154/231 349/349/232 73/73/289
f 73/73/289 349/349/232 244/244/290
f 350/350/228 154/154/231 245/245/286
f 245/245/286 154/154/231 73/73/289
f 154/154/231 350/350/228 58/58/229
f 58/58/229 350/350/228 260/260/226
f 155/155/227 350/350/228 72/72/285
f 72/72/285 350/350/228 245/245/286
f 246/246/281 351/351/222 72/72/285
f 72/72/285 351/351/222 155/155/227
f 351/351/222 261/261/221 155/155/227
f 155/155/227 261/261/221 57/57/225
f 351/351/222 246/246/281 156/156/224
f 156/156/224 246/246/281 71/71/283
f 247/247/277 352/352/218 71/71/283
f 71/71/283 352/352/218 156/156/224
f 352/352/218 262/262/217 156/156/224
f 156/156/224 262/262/217 56/56/223
f 352/352/218 247/247/277 157/157/220
f 157/157/220 247/247/277 70/70/279
f 248/248/274 353/353/216 70/70/279
f 70/70/279 353/353/216 157/157/220
f 353/353/216 263/263/214 157/157/220
f 157/157/220 263/263/214 55/55/219
f 158/158/215 353/353/216 69/69/273
f 69/69/273 353/353/216 248/248/274
f 354/354/212 158/158/215 249/249/270
f 249/249/270 158/158/215 69/69/273
f 158/158/215 354/354/212 54/54/213
f 54/54/213 354/354/212 264/264/210
f 159/159/211 354/354/212 68/68/269
f 68/68/269 354/354/212 249/249/270
f 355/355/206 159/159/211 250/250/265
f 250/250/265 159/159/211 68/68/269
f 355/355/206 265/265/205 159/159/211
f 159/159/211 265/265/205 53/53/209
f 355/355/206 250/250/265 160/160/208
f 160/160/208 250/250/265 67/67/267
f 251/251/261 356/356/202 67/67/267
f 67/67/267 356/356/202 160/160/208
f 356/356/202 266/266/201 160/160/208
f 160/160/208 266/266/201 52/52/207
f 356/356/202 251/251/261 161/161/204
f 161/161/204 251/251/261 66/66/263
f 252/252/257 357/357/200 66/66/263
f 66/66/263 357/357/200 161/161/204
f 357/357/200 267/267/198 161/161/204
f 161/161/204 267/267/198 51/51/203
f 162/162/199 357/357/200 65/65/259
f 65/65/259 357/357/200 252/252/257
f 358/358/194 162/162/199 253/253/253
f 253/253/253 162/162/199 65/65/259
f 162/162/199 358/358/194 50/50/197
f 50/50/197 358/358/194 268/268/193
f 358/358/194 253/253/253 163/163/196
f 163/163/196 253/253/253 64/64/255
f 254/254/249 359/359/190 64/64/255
f 64/64/255 359/359/190 163/163/196
f 359/359/190 269/269/189 163/163/196
f 163/163/196 269/269/189 49/49/195
f 359/359/190 254/254/249 164/164/192
f 164/164/192 254/254/249 63/63/251
f 255/255/245 360/360/186 63/63/251
f 63/63/251 360/360/186 164/164/192
f 360/360/186 270/270/185 164/164/192
f 164/164/192 270/270/185 48/48/191
f 360/360/186 255/255/245 165/165/188
f 165/165/188 255/255/245 62/61/247
f 256/256/241 361/361/184 62/61/247
f 62/61/247 361/361/184 165/165/188
f 165/165/188 361/361/184 47/46/187
f 47/46/187 361/361/184 271/271/182
f 166/166/183 361/361/184 61/62/243
f 61/62/243 361/361/184 256/256/241
f 362/362/180 181/181/123 257/257/238
f 257/257/238 181/181/123 46/47/181
f 181/181/123 362/362/180 31/32/121
f 31/32/121 362/362/180 272/272/178
f 167/167/179 362/362/180 60/60/237
f 60/60/237 362/362/180 257/257/238
f 363/363/176 167/167/179 258/258/234
f 258/258/234 167/167/179 60/60/237
f 167/167/179 363/363/176 45/45/177
f 45/45/177 363/363/176 273/273/174
f 168/168/175 363/363/176 59/59/233
f 59/59/233 363/363/176 258/258/234
f 364/364/172 168/168/175 259/259/230
f 259/259/230 168/168/175 59/59/233
f 168/168/175 364/364/172 44/44/173
f 44/44/173 364/364/172 274/274/170
f 169/169/171 364/364/172 58/58/229
f 58/58/229 364/364/172 259/259/230
f 365/365/168 169/169/171 260/260/226
f 260/260/226 169/169/171 58/58/229
f 169/169/171 365/365/168 43/43/169
f 43/43/169 365/365/168 275/275/166
f 170/170/167 365/365/168 57/57/225
f 57/57/225 365/365/168 260/260/226
f 261/261/221 366/366/162 57/57/225
f 57/57/225 366/366/162 170/170/167
f 366/366/162 276/276/161 170/170/167
f 170/170/167 276/276/161 42/42/165
f 366/366/162 261/261/221 171/171/164
f 171/171/164 261/261/221 56/56/223
f 262/262/217 367/367/158 56/56/223
f 56/56/223 367/367/158 171/171/164
f 367/367/158 277/277/157 171/171/164
f 171/171/164 277/277/157 41/41/163
f 367/367/158 262/262/217 172/172/160
f 172/172/160 262/262/217 55/55/219
f 263/263/214 368/368/154 55/55/219
f 55/55/219 368/368/154 172/172/160
f 368/368/154 278/278/153 172/172/160
f 172/172/160 278/278/153 40/40/159
f 368/368/154 263/263/214 173/173/156
f 173/173/156 263/263/214 54/54/213
f 264/264/210 369/369/150 54/54/213
f 54/54/213 369/369/150 173/173/156
f 369/369/150 279/279/149 173/173/156
f 173/173/156 279/279/149 39/39/155
f 369/369/150 264/264/210 174/174/152
f 174/174/152 264/264/210 53/53/209
f 265/265/205 370/370/146 53/53/209
f 53/53/209 370/370/146 174/174/152
f 370/370/146 280/280/145 174/174/152
f 174/174/152 280/280/145 38/38/151
f 370/370/146 265/265/205 175/175/148
f 175/175/148 265/265/205 52/52/207
f 266/266/201 371/371/142 52/52/207
f 52/52/207 371/371/142 175/175/148
f 371/371/142 281/281/141 175/175/148
f 175/175/148 281/281/141 37/37/147
f 371/371/142 266/266/201 176/176/144
f 176/176/144 266/266/201 51/51/203
f 372/372/140 176/176/144 267/267/198
f 267/267/198 176/176/144 51/51/203
f 176/176/144 372/372/140 36/36/143
f 36/36/143 372/372/140 282/282/138
f 177/177/139 372/372/140 50/50/197
f 50/50/197 372/372/140 267/267/198
f 373/373/134 177/177/139 268/268/193
f 268/268/193 177/177/139 50/50/197
f 177/177/139 373/373/134 35/35/137
f 35/35/137 373/373/134 283/283/133
f 373/373/134 268/268/193 178/178/136
f 178/178/136 268/268/193 49/49/195
f 269/269/189 374/374/130 49/49/195
f 49/49/195 374/374/130 178/178/136
f 374/374/130 284/284/129 178/178/136
f 178/178/136 284/284/129 34/34/135
f 374/374/130 269/269/189 179/179/132
f 179/179/132 269/269/189 48/48/191
f 270/270/185 375/375/128 48/48/191
f 48/48/191 375/375/128 179/179/132
f 375/375/128 285/285/126 179/179/132
f 179/179/132 285/285/126 33/33/131
f 180/180/127 375/375/128 47/46/187
f 47/46/187 375/375/128 270/270/185
f 376/376/124 180/180/127 271/271/182
f 271/271/182 180/180/127 47/46/187
f 180/180/127 376/376/124 32/31/125
f 32/31/125 376/376/124 286/286/122
f 181/181/123 376/376/124 46/47/181
f 46/47/181 376/376/124 271/271/182
f 377/377/120 196/196/63 272/272/178
f 272/272/178 196/196/63 31/32/121
f 196/196/63 377/377/120 16/4/61
f 16/4/61 377/377/120 287/287/118
f 182/182/119 377/377/120 45/45/177
f 45/45/177 377/377/120 272/272/178
f 378/378/116 182/182/119 273/273/174
f 273/273/174 182/182/119 45/45/177
f 182/182/119 378/378/116 30/30/117
f 30/30/117 378/378/116 288/288/114
f 183/183/115 378/378/116 44/44/173
f 44/44/173 378/378/116 273/273/174
f 379/379/112 183/183/115 274/274/170
f 274/274/170 183/183/115 44/44/173
f 183/183/115 379/379/112 29/28/113
f 29/28/113 379/379/112 289/289/110
f 184/184/111 379/379/112 43/43/169
f 43/43/169 379/379/112 274/274/170
f 380/380/108 184/184/111 275/275/166
f 275/275/166 184/184/111 43/43/169
f 184/184/111 380/380/108 28/26/109
f 28/26/109 380/380/108 290/290/106
f 185/185/107 380/380/108 42/42/165
f 42/42/165 380/380/108 275/275/166
f 276/276/161 381/381/102 42/42/165
f 42/42/165 381/381/102 185/185/107
f 381/381/102 291/291/101 185/185/107
f 185/185/107 291/291/101 27/24/105
f 381/381/102 276/276/161 186/186/104
f 186/186/104 276/276/161 41/41/163
f 277/277/157 382/382/98 41/41/163
f 41/41/163 382/382/98 186/186/104
f 382/382/98 292/292/97 186/186/104
f 186/186/104 292/292/97 26/22/103
f 382/382/98 277/277/157 187/187/100
f 187/187/100 277/277/157 40/40/159
f 383/383/94 187/187/100 278/278/153
f 278/278/153 187/187/100 40/40/159
f 187/187/100 383/383/94 25/20/99
f 25/20/99 383/383/94 293/293/93
f 383/383/94 278/278/153 188/188/96
f 188/188/96 278/278/153 39/39/155
f 279/279/149 384/384/90 39/39/155
f 39/39/155 384/384/90 188/188/96
f 384/384/90 294/294/89 188/188/96
f 188/188/96 294/294/89 24/18/95
f 384/384/90 279/279/149 189/189/92
f 189/189/92 279/279/149 38/38/151
f 280/280/145 385/385/86 38/38/151
f 38/38/151 385/385/86 189/189/92
f 385/385/86 295/295/85 189/189/92
f 189/189/92 295/295/85 23/16/91
f 385/385/86 280/280/145 190/190/88
f 190/190/88 280/280/145 37/37/147
f 386/386/84 190/190/88 281/281/141
f 281/281/141 190/190/88 37/37/147
f 190/190/88 386/386/84 22/14/87
f 22/14/87 386/386/84 296/296/82
f 191/191/83 386/386/84 36/36/143
f 36/36/143 386/386/84 281/281/141
f 387/387/80 191/191/83 282/282/138
f 282/282/138 191/191/83 36/36/143
f 191/191/83 387/387/80 21/12/81
f 21/12/81 387/387/80 297/297/78
f 192/192/79 387/387/80 35/35/137
f 35/35/137 387/387/80 282/282/138
f 283/283/133 388/388/74 35/35/137
f 35/35/137 388/388/74 192/192/79
f 388/388/74 298/298/73 192/192/79
f 192/192/79 298/298/73 20/10/77
f 388/388/74 283/283/133 193/193/76
f 193/193/76 283/283/133 34/34/135
f 284/284/129 389/389/70 34/34/135
f 34/34/135 389/389/70 193/193/76
f 389/389/70 299/299/69 193/193/76
f 193/193/76 299/299/69 19/8/75
f 389/389/70 284/284/129 194/194/72
f 194/194/72 284/284/129 33/33/131
f 285/285/126 390/390/68 33/33/131
f 33/33/131 390/390/68 194/194/72
f 390/390/68 300/300/66 194/194/72
f 194/194/72 300/300/66 18/6/71
f 195/195/67 390/390/68 32/31/125
f 32/31/125 390/390/68 285/285/126
f 391/391/64 195/195/67 286/286/122
f 286/286/122 195/195/67 32/31/125
f 195/195/67 391/391/64 17/3/65
f 17/3/65 391/391/64 301/301/62
f 196/196/63 391/391/64 31/32/121
f 31/32/121 391/391/64 286/286/122
f 392/392/60 211/211/3 287/287/118
f 287/287/118 211/211/3 16/4/61
f 211/211/3 392/392/60 1/1/1
f 1/1/1 392/392/60 302/302/58
f 197/197/59 392/392/60 30/30/117
f 30/30/117 392/392/60 287/287/118
f 393/393/56 197/197/59 288/288/114
f 288/288/114 197/197/59 30/30/117
f 197/197/59 393/393/56 15/29/57
f 15/29/57 393/393/56 303/303/54
f 198/198/55 393/393/56 29/28/113
f 29/28/113 393/393/56 288/288/114
f 394/394/52 198/198/55 289/289/110
f 289/289/110 198/198/55 29/28/113
f 198/198/55 394/394/52 14/27/53
f 14/27/53 394/394/52 304/304/50
f 199/199/51 394/394/52 28/26/109
f 28/26/109 394/394/52 289/289/110
f 395/395/48 199/199/51 290/290/106
f 290/290/106 199/199/51 28/26/109
f 199/199/51 395/395/48 13/25/49
f 13/25/49 395/395/48 305/305/46
f 200/200/47 395/395/48 27/24/105
f 27/24/105 395/395/48 290/290/106
f 291/291/101 396/396/44 27/24/105
f 27/24/105 396/396/44 200/200/47
f 200/200/47 396/396/44 12/23/45
f 12/23/45 396/396/44 306/306/42
f 396/396/44 291/291/101 201/201/43
f 201/201/43 291/291/101 26/22/103
f 292/292/97 397/397/38 26/22/103
f 26/22/103 397/397/38 201/201/43
f 397/397/38 307/307/37 201/201/43
f 201/201/43 307/307/37 11/21/41
f 397/397/38 292/292/97 202/202/40
f 202/202/40 292/292/97 25/20/99
f 293/293/93 398/398/34 25/20/99
f 25/20/99 398/398/34 202/202/40
f 398/398/34 308/308/33 202/202/40
f 202/202/40 308/308/33 10/19/39
f 398/398/34 293/293/93 203/203/36
f 203/203/36 293/293/93 24/18/95
f 294/294/89 399/399/30 24/18/95
f 24/18/95 399/399/30 203/203/36
f 399/399/30 309/309/29 203/203/36
f 203/203/36 309/309/29 9/17/35
f 399/399/30 294/294/89 204/204/32
f 204/204/32 294/294/89 23/16/91
f 295/295/85 400/400/26 23/16/91
f 23/16/91 400/400/26 204/204/32
f 400/400/26 310/310/25 204/204/32
f 204/204/32 310/310/25 8/15/31
f 400/400/26 295/295/85 205/205/28
f 205/205/28 295/295/85 22/14/87
f 296/296/82 401/401/24 22/14/87
f 22/14/87 401/401/24 205/205/28
f 401/401/24 311/311/22 205/205/28
f 205/205/28 311/311/22 7/13/27
f 206/206/23 401/401/24 21/12/81
f 21/12/81 401/401/24 296/296/82
f 402/402/20 206/206/23 297/297/78
f 297/297/78 206/206/23 21/12/81
f 206/206/23 402/402/20 6/11/21
f 6/11/21 402/402/20 312/312/18
f 207/207/19 402/402/20 20/10/77
f 20/10/77 402/402/20 297/297/78
f 298/298/73 403/403/14 20/10/77
f 20/10/77 403/403/14 207/207/19
f 403/403/14 313/313/13 207/207/19
f 207/207/19 313/313/13 5/9/17
f 403/403/14 298/298/73 208/208/16
f 208/208/16 298/298/73 19/8/75
f 299/299/69 404/404/10 19/8/75
f 19/8/75 404/404/10 208/208/16
f 404/404/10 314/314/9 208/208/16
f 208/208/16 314/314/9 4/7/15
f 404/404/10 299/299/69 209/209/12
f 209/209/12 299/299/69 18/6/71
f 300/300/66 405/405/6 18/6/71
f 18/6/71 405/405/6 209/209/12
f 405/405/6 315/315/5 209/209/12
f 209/209/12 315/315/5 3/5/11
f 210/210/8 405/405/6 17/3/65
f 17/3/65 405/405/6 300/300/66
f 406/406/4 210/210/8 301/301/62
f 301/301/62 210/210/8 17/3/65
f 210/210/8 406/406/4 2/2/7
f 2/2/7 406/406/4 316/316/2
f 211/211/3 406/406/4 16/4/61
f 16/4/61 406/406/4 301/301/62
