# This file uses centimeters as units for non-parametric coordinates.

v -37.395729 -63.784451 40.773605
v 51.350311 -70.964531 22.319328
v -79.907867 -104.706192 -16.247723
v -88.179138 -103.695099 29.691553
v -57.414700 -85.146912 73.091782
v -4.081872 -80.009804 99.657646
v 39.381531 -85.183426 86.942398
v 73.267891 -89.894165 63.486450
v 89.605247 -98.816956 21.642925
v 75.997467 -99.966087 -44.656971
v -35.342743 -56.496597 -22.906559
v -67.694588 -96.096436 -30.997591
v -60.486893 -89.581993 -35.786667
v 30.095152 -57.793137 -33.944847
v 58.027176 -81.149918 -47.416367
v 1.733623 -34.384361 -21.750538
v -0.396136 -61.820217 43.841770
v -2.330020 -34.509117 -21.404665
v 5.654894 -36.271568 -22.648277
v -59.225594 -79.124039 3.813630
v 41.122829 -53.887630 -13.618221
v -75.237183 -90.745560 15.176651
v -48.726746 -76.353180 61.707142
v -2.369653 -73.433380 82.071823
v 62.708111 -76.351524 46.426502
v 76.103050 -79.222092 11.280103
v 68.448715 -69.667877 -18.821461
v 86.154381 -89.097099 -12.116987
v -9.817896 -39.928436 -23.473602
v -11.373439 -27.891577 -8.109185
v -10.951373 -29.877085 4.442795
v 0.498141 -30.606970 8.094797
v 9.709168 -29.376419 1.383489
v 10.108459 -29.288866 -6.608736
v 11.587191 -43.548164 -27.005302
v 35.692719 -73.759903 67.449669
v 22.669563 -62.561630 42.212326
v 5.428867 -29.434832 5.644167
v -3.452802 -24.626589 -7.762037
v 2.309542 -23.980879 -6.669663
v 2.988814 -23.883495 -6.812556
v 5.719319 -24.261400 -7.428744
v -67.586838 -89.636971 -25.238895
v -40.060017 -55.665215 -18.219728
v -10.850136 -33.492958 -15.791086
v -3.831101 -26.673031 -12.296240
v 1.966135 -25.541000 -11.455183
v 2.849106 -25.464952 -11.615969
v 6.166255 -28.622572 -13.094713
v 12.905393 -34.441795 -17.535444
v 40.852650 -59.908947 -29.775230
v 69.059616 -81.988022 -41.244953
v 80.311974 -99.622032 -38.993397
v -14.173512 -28.027836 -2.378006
v -52.458092 -73.756561 22.135126
v -69.906837 -85.760597 45.744392
v -81.275917 -93.188553 57.339802
v -75.083084 -90.812370 -0.587777
v -89.225288 -106.282516 5.617651
v -16.580647 -62.805607 44.310413
v -26.732506 -74.747498 72.635162
v -32.148598 -82.329758 89.505936
v 10.174813 -61.346111 43.837517
v 17.782635 -73.099686 75.733444
v 20.369978 -82.371223 94.960953
v 36.405556 -66.715096 35.646019
v 53.665363 -74.730362 59.401371
v 61.550339 -88.261887 77.334984
v 76.159599 -81.691551 30.845026
v 83.730125 -94.710388 40.418640
v 43.577145 -57.678432 -23.593870
v 69.359924 -74.637489 -29.252081
v 81.778694 -93.168976 -27.495949
v -44.900528 -83.345940 79.957085
v -72.082832 -89.220421 65.659622
v -18.453239 -80.623367 98.345177
v 8.178812 -80.799408 97.361450
v -87.471634 -98.914009 39.629463
v 78.077499 -92.187691 51.361797
v 45.509701 -73.168488 -43.942596
v 59.500954 -65.402435 -16.508213
v 70.934097 -75.423569 -4.697748
v 89.531158 -91.911629 1.270074
v 64.223503 -81.400146 -44.460629
v 68.141724 -90.867630 -46.601933
v 51.336575 -76.756569 -45.111488
v -75.906136 -87.548965 32.966515
v -84.371048 -95.895241 50.918663
v -76.806015 -89.265961 24.882406
v -8.941580 -25.460588 -3.821931
v -5.320906 -24.747219 -1.473913
v 0.873174 -24.296888 1.229043
v 3.097546 -23.865366 -0.051888
v 5.848304 -23.953608 -2.568818
v -18.534660 -47.335964 -23.949060
v -20.262178 -41.969223 -17.000277
v -24.652294 -44.869919 -3.269006
v -25.268093 -43.928703 5.915569
v -19.314270 -42.105297 17.267239
v -4.924630 -40.830521 19.593798
v 0.188469 -41.415558 20.473331
v 7.231706 -41.556938 20.152637
v 12.281010 -42.600746 20.177816
v 18.012726 -41.873192 12.369678
v 22.364054 -42.559063 7.373914
v 24.865067 -40.505981 -11.004860
v 24.989250 -40.734940 -14.908504
v 19.567545 -41.781597 -22.270813
v 16.934151 -50.011261 -29.341606
vt 0.735865 0.429603
vt 0.251723 0.422258
vt 0.057115 0.453382
vt 0.024578 0.285508
vt 0.108416 0.182974
vt 0.474031 0.020400
vt 0.648742 0.035046
vt 0.913138 0.157320
vt 0.964926 0.228288
vt 0.929687 0.531599
vt 0.268864 0.738063
vt 0.106559 0.522168
vt 0.162882 0.601248
vt 0.726181 0.776424
vt 0.801002 0.689383
vt 0.550945 0.856309
vt 0.509621 0.376412
vt 0.444764 0.846726
vt 0.617534 0.842848
vt 0.198411 0.576199
vt 0.738072 0.596316
vt 0.141765 0.433705
vt 0.179522 0.301701
vt 0.491950 0.207847
vt 0.817676 0.303944
vt 0.880150 0.366978
vt 0.835969 0.546949
vt 0.944508 0.404025
vt 0.351727 0.806301
vt 0.371947 0.724143
vt 0.405206 0.630180
vt 0.521243 0.571850
vt 0.653161 0.631405
vt 0.644542 0.734092
vt 0.676211 0.813750
vt 0.657617 0.256723
vt 0.645778 0.389786
vt 0.587772 0.601885
vt 0.431277 0.778174
vt 0.534196 0.798039
vt 0.553822 0.800490
vt 0.604297 0.785540
vt 0.159388 0.573523
vt 0.267640 0.715520
vt 0.358273 0.767325
vt 0.450175 0.818447
vt 0.543165 0.834159
vt 0.547258 0.835692
vt 0.614077 0.815801
vt 0.662694 0.785381
vt 0.724470 0.744719
vt 0.806994 0.664978
vt 0.932557 0.506893
vt 0.365974 0.680942
vt 0.225679 0.497996
vt 0.160237 0.369122
vt 0.063200 0.238274
vt 0.149992 0.498978
vt 0.043216 0.381671
vt 0.378756 0.382170
vt 0.330167 0.256446
vt 0.277658 0.107719
vt 0.585426 0.379275
vt 0.576406 0.232763
vt 0.561040 0.027694
vt 0.702523 0.402011
vt 0.743092 0.281940
vt 0.782513 0.096910
vt 0.848590 0.335135
vt 0.941442 0.196107
vt 0.743381 0.682985
vt 0.821429 0.606177
vt 0.937858 0.461263
vt 0.192638 0.145524
vt 0.083153 0.213870
vt 0.384193 0.060348
vt 0.517289 0.024027
vt 0.041767 0.264486
vt 0.928218 0.177986
vt 0.756077 0.733223
vt 0.778616 0.587420
vt 0.855357 0.467971
vt 0.953345 0.327969
vt 0.804047 0.676981
vt 0.871208 0.603302
vt 0.776129 0.713656
vt 0.151963 0.398049
vt 0.052500 0.251360
vt 0.147382 0.414066
vt 0.386237 0.713453
vt 0.409399 0.703920
vt 0.526164 0.657775
vt 0.571102 0.684856
vt 0.615440 0.723448
vt 0.308170 0.768339
vt 0.309390 0.733553
vt 0.312893 0.675942
vt 0.327626 0.619950
vt 0.353781 0.563188
vt 0.480862 0.525396
vt 0.518397 0.522138
vt 0.579451 0.536060
vt 0.599672 0.533136
vt 0.659613 0.561815
vt 0.682654 0.594581
vt 0.678276 0.687079
vt 0.672055 0.721345
vt 0.688288 0.771768
vt 0.697027 0.797412
vn 0.056678 0.875455 0.479965
vn 0.150918 0.925122 0.348386
vn 0.301529 0.868950 0.392437
vn 0.231187 0.904491 0.358397
vn -0.639284 0.766850 0.057078
vn -0.511825 0.852646 0.105021
vn -0.444250 0.848232 0.288349
vn -0.396720 0.869519 0.294192
vn 0.097823 0.757333 -0.645661
vn -0.078759 0.827371 -0.556107
vn 0.271539 0.765650 -0.583135
vn 0.398936 0.749576 -0.528191
vn 0.347877 0.738841 -0.577144
vn 0.345810 0.703654 -0.620714
vn -0.252112 0.775942 -0.578233
vn -0.259378 0.715059 -0.649164
vn -0.090633 0.861780 0.499120
vn -0.189428 0.927029 0.323626
vn -0.045286 0.885167 0.463064
vn -0.046308 0.952020 0.302514
vn -0.450406 0.676368 -0.582804
vn -0.446407 0.653466 -0.611312
vn 0.447469 0.751076 -0.485445
vn 0.413919 0.789319 -0.453483
vn 0.274110 0.709533 -0.649174
vn 0.301492 0.627261 -0.718085
vn -0.471253 0.648092 -0.598246
vn -0.653496 0.608605 -0.450047
vn -0.695634 0.716932 -0.045840
vn -0.747457 0.629618 -0.211872
vn 0.600164 0.789298 0.129662
vn 0.564895 0.810530 0.154712
vn 0.466200 0.856532 0.221385
vn 0.584456 0.801197 0.128437
vn -0.795681 0.546170 -0.261897
vn -0.785210 0.419318 -0.455652
vn -0.459832 0.876613 0.141787
vn -0.382219 0.849238 0.364286
vn -0.169719 0.940678 0.293804
vn 0.010422 0.936264 0.351142
vn 0.288484 0.856424 0.428154
vn 0.252308 0.884454 0.392533
vn 0.786057 0.590807 0.181827
vn 0.787471 0.600133 0.140465
vn 0.352357 0.638035 -0.684657
vn 0.407139 0.677992 -0.612017
vn 0.574273 0.369741 -0.730413
vn 0.527988 0.849217 -0.007696
vn 0.679163 0.732599 0.045123
vn 0.639344 0.766855 -0.056335
vn 0.738817 0.664714 -0.110932
vn 0.715335 0.692499 0.093495
vn -0.433895 0.657665 -0.615803
vn -0.629594 0.725824 -0.277112
vn -0.391107 0.797375 0.459595
vn -0.368449 0.772741 0.516833
vn -0.719813 0.689316 0.081935
vn -0.725359 0.686614 0.049144
vn -0.051563 0.775385 0.629380
vn -0.117984 0.767374 0.630252
vn 0.014272 0.753005 0.657860
vn 0.083182 0.762042 0.642163
vn 0.369857 0.768635 0.521925
vn 0.350057 0.756512 0.552403
vn 0.621969 0.777274 -0.094866
vn 0.619575 0.744105 0.249869
vn 0.645421 0.752855 0.129004
vn 0.622032 0.747090 0.234378
vn 0.378869 0.715238 -0.587276
vn 0.147351 0.617022 -0.773027
vn 0.458636 0.876473 0.146455
vn 0.322366 0.898393 0.298280
vn 0.588895 0.762186 0.268840
vn 0.388871 0.818271 0.423334
vn 0.420256 0.860681 0.287424
vn 0.514733 0.748552 0.417995
vn -0.200802 0.952910 -0.227245
vn -0.357733 0.930382 -0.080099
vn -0.205831 0.903843 0.375102
vn -0.139093 0.872887 0.467677
vn -0.092494 0.990956 -0.097212
vn 0.023642 0.987963 -0.152872
vn 0.251987 0.884200 0.393310
vn 0.595062 0.756864 -0.270294
vn 0.587045 0.796461 0.145010
vn -0.689022 0.711432 -0.138250
vn -0.749958 0.649719 -0.124214
vn -0.667047 0.741478 -0.072519
vn -0.768740 0.627020 -0.126034
vn -0.694312 0.719592 0.010907
vn -0.718559 0.695420 0.007937
vn -0.663884 0.667509 -0.337180
vn 0.536761 0.784660 -0.310156
vn 0.493368 0.802639 -0.335200
vn 0.611601 0.695450 -0.377219
vn 0.616504 0.630982 -0.470941
vn 0.783456 0.444471 -0.434330
vn 0.796877 0.489305 -0.354356
vn -0.559782 0.828227 0.026167
vn -0.516160 0.855466 0.041921
vn -0.615160 0.787930 0.027270
vn -0.290249 0.882710 0.369565
vn -0.306589 0.901122 0.306567
vn 0.137117 0.915199 0.378958
vn 0.681088 0.696106 0.227058
vn -0.748304 0.657186 -0.090270
vn 0.300633 0.738179 -0.603913
vn 0.700545 0.384445 -0.601197
vn -0.643671 0.745861 -0.171405
f 63/63/1 64/64/2 37/37/3
f 37/37/3 64/64/2 36/36/4
f 55/55/5 56/56/6 1/2/7
f 1/2/7 56/56/6 23/23/8
f 16/16/9 47/47/10 48/48/11
f 51/51/12 80/80/13 14/14/14
f 47/47/10 16/16/9 46/46/15
f 46/46/15 16/16/9 18/18/16
f 60/60/17 61/61/18 17/17/19
f 17/17/19 61/61/18 24/24/20
f 46/46/15 18/18/16 45/45/21
f 45/45/21 18/18/16 29/29/22
f 49/49/23 50/50/24 19/19/25
f 19/19/25 50/50/24 35/35/26
f 11/11/27 13/13/28 44/44/29
f 44/44/29 13/13/28 43/43/30
f 69/69/31 26/26/32 2/1/33
f 2/1/33 26/26/32 21/21/34
f 3/3/35 43/43/30 12/12/36
f 12/12/36 43/43/30 13/13/28
f 56/56/6 75/75/37 23/23/8
f 23/23/8 75/75/37 5/5/38
f 61/61/18 76/76/39 24/24/20
f 24/24/20 76/76/39 6/6/40
f 36/36/4 64/64/2 7/7/41
f 7/7/41 64/64/2 65/65/42
f 70/70/43 9/9/44 69/69/31
f 69/69/31 9/9/44 26/26/32
f 15/15/45 84/84/46 85/85/47
f 81/81/48 82/82/49 27/27/50
f 27/27/50 82/82/49 28/28/51
f 28/28/51 82/82/49 83/83/52
f 95/95/53 96/96/54 29/29/22
f 29/29/22 96/96/54 45/45/21
f 99/99/55 31/31/56 98/98/57
f 98/98/57 31/31/56 54/54/58
f 32/32/59 100/100/60 101/101/61
f 102/102/62 103/103/63 38/38/64
f 34/34/65 33/33/66 106/106/67
f 106/106/67 33/33/66 105/105/68
f 50/50/24 108/108/69 35/35/26
f 35/35/26 108/108/69 109/109/70
f 25/25/71 67/67/72 8/8/73
f 8/8/73 67/67/72 68/68/74
f 67/67/72 25/25/71 66/66/75
f 66/66/75 25/25/71 2/1/33
f 33/33/66 104/104/76 105/105/68
f 48/48/11 49/49/23 16/16/9
f 16/16/9 49/49/23 19/19/25
f 39/39/77 90/90/78 91/91/79
f 92/92/80 40/40/81 91/91/79
f 91/91/79 40/40/81 39/39/77
f 41/41/82 40/40/81 93/93/83
f 93/93/83 40/40/81 92/92/80
f 42/42/84 41/41/82 94/94/85
f 94/94/85 41/41/82 93/93/83
f 34/34/65 42/42/84 94/94/85
f 58/58/86 59/59/87 22/22/88
f 22/22/88 59/59/87 4/4/89
f 20/20/90 58/58/86 22/22/88
f 97/97/91 30/30/92 96/96/54
f 96/96/54 30/30/92 45/45/21
f 39/39/77 46/46/15 30/30/92
f 30/30/92 46/46/15 45/45/21
f 40/40/81 47/47/10 39/39/77
f 39/39/77 47/47/10 46/46/15
f 48/48/11 47/47/10 41/41/82
f 41/41/82 47/47/10 40/40/81
f 49/49/23 48/48/11 42/42/84
f 42/42/84 48/48/11 41/41/82
f 50/50/24 49/49/23 34/34/65
f 34/34/65 49/49/23 42/42/84
f 108/108/69 50/50/24 107/107/93
f 107/107/93 50/50/24 34/34/65
f 71/71/94 72/72/95 51/51/12
f 51/51/12 72/72/95 52/52/96
f 53/53/97 52/52/96 73/73/98
f 73/73/98 52/52/96 72/72/95
f 30/30/92 90/90/78 39/39/77
f 98/98/57 54/54/58 97/97/91
f 97/97/91 54/54/58 30/30/92
f 55/55/5 87/87/99 56/56/6
f 57/57/100 56/56/6 88/88/101
f 88/88/101 56/56/6 87/87/99
f 44/44/29 43/43/30 20/20/90
f 20/20/90 43/43/30 58/58/86
f 59/59/87 58/58/86 3/3/35
f 3/3/35 58/58/86 43/43/30
f 99/99/55 100/100/60 31/31/56
f 31/31/56 100/100/60 32/32/59
f 23/23/8 61/61/18 1/2/7
f 1/2/7 61/61/18 60/60/17
f 23/23/8 74/74/102 61/61/18
f 61/61/18 74/74/102 62/62/103
f 101/101/61 102/102/62 32/32/59
f 32/32/59 102/102/62 38/38/64
f 24/24/20 64/64/2 17/17/19
f 17/17/19 64/64/2 63/63/1
f 65/65/42 64/64/2 77/77/104
f 77/77/104 64/64/2 24/24/20
f 33/33/66 38/38/64 104/104/76
f 104/104/76 38/38/64 103/103/63
f 37/37/3 36/36/4 66/66/75
f 66/66/75 36/36/4 67/67/72
f 67/67/72 36/36/4 68/68/74
f 68/68/74 36/36/4 7/7/41
f 25/25/71 69/69/31 2/1/33
f 25/25/71 79/79/105 69/69/31
f 69/69/31 79/79/105 70/70/43
f 106/106/67 107/107/93 34/34/65
f 71/71/94 81/81/48 72/72/95
f 72/72/95 81/81/48 27/27/50
f 73/73/98 72/72/95 28/28/51
f 28/28/51 72/72/95 27/27/50
f 5/5/38 74/74/102 23/23/8
f 75/75/37 56/56/6 57/57/100
f 61/61/18 62/62/103 76/76/39
f 77/77/104 24/24/20 6/6/40
f 78/78/106 22/22/88 4/4/89
f 8/8/73 79/79/105 25/25/71
f 51/51/12 86/86/107 80/80/13
f 21/21/34 81/81/48 71/71/94
f 21/21/34 26/26/32 81/81/48
f 81/81/48 26/26/32 82/82/49
f 82/82/49 26/26/32 83/83/52
f 83/83/52 26/26/32 9/9/44
f 51/51/12 52/52/96 84/84/46
f 53/53/97 10/10/108 52/52/96
f 10/10/108 85/85/47 52/52/96
f 85/85/47 84/84/46 52/52/96
f 51/51/12 84/84/46 86/86/107
f 86/86/107 84/84/46 15/15/45
f 55/55/5 89/89/109 87/87/99
f 88/88/101 87/87/99 78/78/106
f 78/78/106 87/87/99 89/89/109
f 20/20/90 22/22/88 55/55/5
f 55/55/5 22/22/88 89/89/109
f 78/78/106 89/89/109 22/22/88
f 30/30/92 54/54/58 90/90/78
f 90/90/78 54/54/58 91/91/79
f 91/91/79 54/54/58 31/31/56
f 31/31/56 32/32/59 91/91/79
f 91/91/79 32/32/59 92/92/80
f 93/93/83 92/92/80 38/38/64
f 38/38/64 92/92/80 32/32/59
f 94/94/85 93/93/83 33/33/66
f 33/33/66 93/93/83 38/38/64
f 34/34/65 94/94/85 33/33/66
f 44/44/29 96/96/54 11/11/27
f 11/11/27 96/96/54 95/95/53
f 20/20/90 97/97/91 44/44/29
f 44/44/29 97/97/91 96/96/54
f 98/98/57 97/97/91 55/55/5
f 55/55/5 97/97/91 20/20/90
f 99/99/55 98/98/57 1/2/7
f 1/2/7 98/98/57 55/55/5
f 1/2/7 60/60/17 99/99/55
f 99/99/55 60/60/17 100/100/60
f 101/101/61 100/100/60 17/17/19
f 17/17/19 100/100/60 60/60/17
f 63/63/1 102/102/62 17/17/19
f 17/17/19 102/102/62 101/101/61
f 37/37/3 103/103/63 63/63/1
f 63/63/1 103/103/63 102/102/62
f 103/103/63 37/37/3 104/104/76
f 104/104/76 37/37/3 66/66/75
f 104/104/76 66/66/75 105/105/68
f 105/105/68 66/66/75 2/1/33
f 106/106/67 105/105/68 21/21/34
f 21/21/34 105/105/68 2/1/33
f 71/71/94 107/107/93 21/21/34
f 21/21/34 107/107/93 106/106/67
f 51/51/12 108/108/69 71/71/94
f 71/71/94 108/108/69 107/107/93
f 109/109/70 108/108/69 14/14/14
f 14/14/14 108/108/69 51/51/12
