# This file uses centimeters as units for non-parametric coordinates.

v -7.540033 4.333769 -10.102247
v 8.121348 4.333769 -10.090606
v -7.297699 2.423469 3.792525
v 8.122778 2.429529 3.777641
v -7.198964 4.333589 3.824517
v 8.123440 4.333587 3.817266
v -7.505775 4.333809 -7.946470
v 8.121557 4.333746 -7.795057
v -7.279915 4.333645 1.826262
v 8.122936 4.333629 1.818733
v 5.935144 4.333587 3.817863
v 5.935235 4.333630 1.819314
v 5.935487 4.333748 -7.804530
v 5.935523 4.333769 -10.091310
v -5.356100 4.333589 3.823598
v -5.380499 4.333644 1.825405
v -5.380872 4.333803 -7.934412
v -5.380925 4.333769 -10.101379
v -5.380482 3.226852 -7.846926
v -5.508126 3.226764 1.950022
v 5.929024 3.226762 1.842087
v 5.931019 3.226846 -7.952576
v -7.391138 4.333730 -2.741330
v -5.380687 4.333726 -2.739487
v -5.380402 3.226811 -2.738764
v 5.930205 3.226811 -2.724685
v 5.935386 4.333701 -2.725399
v 8.122099 4.333701 -2.723836
v -0.724632 3.226851 -7.888020
v -0.825157 3.237479 -2.733208
v -0.858452 3.226764 1.907746
v -0.915457 4.333641 1.823050
v -0.836579 4.333589 3.821571
v 1.523930 3.226851 -7.910388
v 1.492699 3.237479 -2.730284
v 1.424844 3.226763 1.885661
v 1.506384 4.333636 1.821729
v 1.522324 4.333589 3.820129
v 3.649670 3.226848 -7.930979
v 3.658894 3.226811 -2.727551
v 3.617791 3.226762 1.864446
v -3.088572 3.226851 -7.867186
v -3.017444 3.226811 -2.735975
v -3.068840 3.226764 1.929130
v -5.380364 3.226794 -0.804431
v -5.380600 4.333690 -0.706383
v -7.342982 4.333692 -0.763576
v 1.524242 4.333775 -7.856343
v 1.528500 4.333769 -10.095240
v -0.727010 4.333786 -7.883017
v -0.727038 4.333769 -10.097396
v -0.727366 3.866269 -8.798923
v 1.524247 3.866221 -8.799287
v -2.842147 4.333589 3.822496
v -0.864766 3.438778 3.803891
v -2.871096 3.451825 3.805223
v -5.391973 2.424244 3.790005
v -5.374205 3.377669 3.806646
v 6.080408 2.428964 3.779001
v 6.007246 3.396110 3.798570
v -0.891198 2.199816 -10.126693
v 1.528358 2.261989 -10.100656
v 5.752091 3.397696 3.798771
v 0.849725 3.428352 3.802591
v 3.077804 3.413268 3.800710
v -7.540033 2.226203 -10.102247
v -7.505775 2.226243 -7.946470
v 8.121348 2.226204 -10.090606
v 5.935523 2.226204 -10.091310
v -7.391138 2.226162 -2.741330
v 8.121557 2.226186 -7.795057
v 8.122936 2.226064 1.818733
v 8.122099 2.226137 -2.723836
v -5.380925 2.226203 -10.101379
v -7.342982 2.226124 -0.763576
v -7.279915 2.226079 1.826262
v -0.727207 4.667884 -10.089737
v 1.526357 4.673112 -10.100690
v -0.727160 4.334098 -9.517227
v 1.526165 4.324675 -9.515913
v -3.096872 4.333642 1.824201
v 3.650505 4.333635 1.820558
v 3.787843 4.333587 3.818965
v 3.881512 3.408586 3.800128
v 1.607450 3.423222 3.801955
v -0.726084 3.596252 -8.371858
v 1.524099 3.596851 -8.383497
v 3.613255 4.333763 -7.831806
v 3.664104 4.329079 -8.686117
v 3.745556 4.333769 -10.093261
v 3.687104 2.244462 -10.096080
v -3.028603 4.333793 -7.908435
v -3.021858 4.333954 -8.736756
v -3.010884 4.333769 -10.099352
v -3.334122 2.214170 -10.112924
vt 0.209723 0.892575
vt 0.803688 0.904663
vt 0.042915 0.319346
vt 0.962573 0.321443
vt 0.010593 0.481921
vt 0.992094 0.487652
vt 0.193397 0.856041
vt 0.824547 0.860750
vt 0.057054 0.579804
vt 0.946462 0.587408
vt 0.916114 0.487183
vt 0.880923 0.587209
vt 0.775073 0.861432
vt 0.758911 0.904777
vt 0.085109 0.483095
vt 0.120118 0.582009
vt 0.239473 0.856317
vt 0.251465 0.894959
vt 0.243057 0.794339
vt 0.165923 0.587030
vt 0.837996 0.594479
vt 0.771762 0.801872
vt 0.142437 0.746839
vt 0.187247 0.745851
vt 0.197201 0.680498
vt 0.806254 0.689224
vt 0.815921 0.755750
vt 0.873338 0.753465
vt 0.451407 0.801781
vt 0.437533 0.683941
vt 0.429143 0.589947
vt 0.414047 0.584018
vt 0.409828 0.484250
vt 0.558989 0.801662
vt 0.564047 0.685754
vt 0.566680 0.591472
vt 0.579096 0.585146
vt 0.605097 0.485390
vt 0.663769 0.800515
vt 0.682282 0.687448
vt 0.698775 0.592936
vt 0.346144 0.796957
vt 0.317874 0.682227
vt 0.295997 0.588471
vt 0.167708 0.595310
vt 0.157523 0.673861
vt 0.097763 0.673242
vt 0.559371 0.856489
vt 0.558475 0.900337
vt 0.450311 0.860376
vt 0.452925 0.900675
vt 0.452949 0.855932
vt 0.556683 0.852402
vt 0.253777 0.484863
vt 0.409446 0.403161
vt 0.257809 0.402404
vt 0.111601 0.321263
vt 0.098479 0.401419
vt 0.891979 0.322869
vt 0.901515 0.400542
vt 0.890194 0.400983
vt 0.567864 0.396852
vt 0.732117 0.400867
vt 0.219165 0.474934
vt 0.087971 0.474913
vt 0.093011 0.417580
vt 0.222910 0.417791
vt 0.211619 0.473347
vt 0.078331 0.473226
vt 0.083494 0.424371
vt 0.215502 0.425116
vt 0.532425 0.474988
vt 0.533114 0.418379
vt 0.649891 0.475010
vt 0.649449 0.418612
vt 0.769766 0.481311
vt 0.681920 0.481369
vt 0.679978 0.423305
vt 0.767098 0.423198
vt 0.488382 0.481497
vt 0.315627 0.481610
vt 0.316696 0.423746
vt 0.488033 0.423539
vt 0.962976 0.474021
vt 0.850127 0.473919
vt 0.848315 0.428669
vt 0.960233 0.429301
vt 0.802372 0.475037
vt 0.800475 0.418916
vt 0.908971 0.424164
vt 0.912029 0.475066
vt 0.244003 0.481656
vt 0.246996 0.429374
vt 0.606993 0.426653
vt 0.597448 0.473693
vt 0.471614 0.426574
vt 0.470131 0.473579
vt 0.452937 0.877585
vt 0.557572 0.876177
vt 0.452051 0.887205
vt 0.558765 0.886137
vt 0.452943 0.866182
vt 0.557088 0.863243
vt 0.000000 0.000000
vt 1.000000 0.000000
vt 0.349817 0.532820
vt 0.000000 0.000000
vt 0.761851 0.000000
vt 0.615694 1.000000
vt 0.000000 0.000000
vt 0.599746 0.000000
vt 0.801174 1.000000
vt 0.000000 0.000000
vt 1.000000 0.000000
vt 0.297900 0.373470
vt 0.000000 0.000000
vt 0.856227 0.000000
vt 0.882019 1.000000
vt 0.000066 0.932152
vt 0.270447 0.583036
vt 0.725218 0.586144
vt 0.764772 0.486310
vt 0.779624 0.400902
vt 0.623723 0.398217
vt 0.452226 0.830544
vt 0.557762 0.828668
vt 0.661520 0.858830
vt 0.663646 0.874159
vt 0.659309 0.902571
vt 0.340081 0.473462
vt 0.346164 0.425860
vt 0.346040 0.858368
vt 0.347231 0.871974
vt 0.354060 0.897870
vt 0.721447 0.473804
vt 0.738300 0.427750
vn 0.000003 1.000000 -0.000016
vn 0.000001 1.000000 -0.000017
vn 0.000001 1.000000 -0.000017
vn 0.000000 1.000000 -0.000019
vn 0.000273 -0.020554 0.999789
vn 0.000443 -0.020513 0.999790
vn 0.000328 -0.020681 0.999786
vn 0.000528 -0.020492 0.999790
vn 0.000671 -0.020178 0.999796
vn 0.000002 1.000000 0.000015
vn 0.000002 1.000000 0.000015
vn 0.000002 1.000000 0.000015
vn 0.000003 1.000000 0.000015
vn 0.000000 1.000000 0.000027
vn 0.000000 1.000000 0.000027
vn 0.000000 1.000000 0.000027
vn 0.000000 1.000000 0.000022
vn 0.000000 1.000000 0.000021
vn 0.000000 1.000000 0.000021
vn 0.000000 1.000000 0.000021
vn 0.000001 1.000000 0.000009
vn 0.000001 1.000000 0.000009
vn 0.000001 1.000000 0.000009
vn 0.000000 1.000000 0.000009
vn -0.000000 1.000000 0.000010
vn 0.000000 1.000000 0.000010
vn 0.000000 1.000000 0.000010
vn 0.000001 1.000000 0.000010
vn 0.000000 1.000000 0.000021
vn 0.000001 1.000000 0.000023
vn 0.000001 1.000000 0.000023
vn 0.000003 1.000000 0.000024
vn 0.008812 0.078787 0.996853
vn -0.001112 0.058325 0.998297
vn -0.001112 0.058325 0.998297
vn -0.011035 0.037833 0.999223
vn 0.000000 1.000000 -0.000136
vn -0.000035 1.000000 -0.000076
vn -0.000035 1.000000 -0.000076
vn -0.000069 1.000000 -0.000016
vn 1.000000 0.000349 -0.000036
vn 1.000000 0.000303 -0.000026
vn 1.000000 0.000303 -0.000026
vn 1.000000 0.000258 -0.000016
vn -0.000545 -0.020567 -0.999788
vn -0.005106 -0.029951 -0.999538
vn -0.005106 -0.029951 -0.999538
vn -0.009666 -0.039332 -0.999180
vn -0.999992 0.004058 -0.000156
vn -0.999990 0.004368 -0.000088
vn -0.999990 0.004368 -0.000088
vn -0.999989 0.004678 -0.000020
vn 0.000000 1.000000 0.000007
vn 0.000000 1.000000 0.000007
vn 0.000000 1.000000 0.000007
vn 0.000001 1.000000 0.000007
vn 0.000000 1.000000 0.000018
vn 0.000000 1.000000 0.000018
vn 0.000000 1.000000 0.000018
vn 1.000000 0.000215 -0.000040
vn 0.998240 -0.054641 0.023048
vn 0.998240 -0.054641 0.023048
vn 0.992941 -0.109304 0.046055
vn 0.000000 1.000000 0.000011
vn 0.000000 1.000000 0.000011
vn 0.000000 1.000000 0.000011
vn 0.000000 1.000000 0.000011
vn -0.999989 0.004681 -0.000033
vn -0.999987 0.005143 -0.000146
vn -0.999987 0.005143 -0.000146
vn -0.999984 0.005605 -0.000259
vn 0.000000 1.000000 0.000016
vn 0.000000 1.000000 0.000016
vn 0.000000 1.000000 0.000016
vn 0.000000 1.000000 0.000016
vn -0.004866 0.999988 0.000075
vn -0.002442 0.999997 -0.000994
vn -0.002442 0.999997 -0.000994
vn -0.000018 0.999998 -0.002062
vn 0.000000 1.000000 0.000010
vn -0.002434 0.999996 0.001142
vn -0.002434 0.999996 0.001142
vn -0.004869 0.999986 0.002274
vn -0.009645 -0.076786 -0.997001
vn -0.005086 -0.085591 -0.996317
vn -0.005086 -0.085591 -0.996317
vn -0.000525 -0.094388 -0.995535
vn 0.000000 1.000000 0.000027
vn 0.000000 1.000000 0.000027
vn 0.000000 1.000000 0.000027
vn 0.000003 0.999998 -0.002062
vn -0.000009 0.999998 -0.002057
vn -0.000009 0.999998 -0.002057
vn -0.000020 0.999998 -0.002052
vn 0.000022 0.999997 0.002309
vn 0.000010 0.999997 0.002315
vn 0.000010 0.999997 0.002315
vn -0.000003 0.999997 0.002321
vn -0.000545 -0.057622 -0.998338
vn -0.005094 -0.067208 -0.997726
vn -0.005094 -0.067208 -0.997726
vn -0.009644 -0.076786 -0.997001
vn 0.000000 1.000000 0.000024
vn 0.000001 1.000000 0.000025
vn 0.000001 1.000000 0.000025
vn 0.000002 1.000000 0.000026
vn 0.004927 0.999986 -0.002022
vn 0.002464 0.999996 -0.001008
vn 0.002464 0.999996 -0.001008
vn 0.000001 1.000000 0.000007
vn -0.000000 1.000000 0.000008
vn 0.000000 1.000000 0.000008
vn 0.000000 1.000000 0.000008
vn 0.000000 1.000000 0.000008
vn -0.000000 1.000000 0.000011
vn 0.000001 1.000000 0.000011
vn 0.000000 1.000000 0.000010
vn 0.000001 1.000000 0.000010
vn -0.000000 1.000000 0.000009
vn 1.000000 0.000258 -0.000019
vn 1.000000 0.000237 -0.000031
vn 1.000000 0.000237 -0.000031
vn 1.000000 0.000217 -0.000043
vn 0.000001 1.000000 0.000019
vn 0.000001 1.000000 0.000019
vn 0.000001 1.000000 0.000019
vn 0.000002 1.000000 0.000019
vn -0.011731 -0.048759 0.998742
vn -0.001042 -0.068856 0.997626
vn -0.001042 -0.068856 0.997626
vn 0.009647 -0.088917 0.995992
vn -0.003280 0.999990 0.003144
vn -0.001647 0.999954 0.009421
vn -0.001647 0.999954 0.009421
vn -0.000014 0.999877 0.015698
vn 0.999996 0.002286 -0.001555
vn 0.999996 0.002286 -0.001555
vn 0.999996 0.002286 -0.001555
vn 0.001132 0.841861 0.539693
vn 0.001347 0.842259 0.539071
vn 0.000933 0.842297 0.539014
vn 0.002590 0.839262 0.543720
vn -1.000000 0.000307 -0.000158
vn -1.000000 0.000307 -0.000158
vn -1.000000 0.000307 -0.000158
vn -0.004912 0.022914 -0.999725
vn -0.001978 0.003431 -0.999992
vn -0.001978 0.003431 -0.999992
vn 0.000956 -0.016053 -0.999871
vn 0.000537 -0.019603 0.999808
vn 0.000499 -0.019686 0.999806
vn 0.000499 -0.019686 0.999806
vn 0.000462 -0.019769 0.999804
vn 0.004925 0.999988 0.000055
vn 0.002474 0.999996 0.001188
vn 0.002474 0.999996 0.001188
vn 0.000023 0.999997 0.002322
vn 0.001329 -0.016815 0.999858
vn 0.000986 -0.017139 0.999853
vn 0.000824 -0.017339 0.999849
vn 0.000571 -0.017602 0.999845
vn 0.000499 -0.017740 0.999843
vn 0.001094 -0.017751 0.999842
vn 0.000766 -0.018676 0.999825
vn 0.000766 -0.018676 0.999825
vn 0.000438 -0.019600 0.999808
vn 0.000513 -0.020307 0.999794
vn 0.000559 -0.020410 0.999792
vn 0.000593 -0.020449 0.999791
vn 0.000662 -0.020525 0.999789
vn 0.000634 -0.020519 0.999789
vn -0.999874 0.000000 0.015889
vn -0.999874 0.000000 0.015889
vn -0.999874 0.000000 0.015889
vn -0.999874 0.000000 0.015889
vn 0.000322 0.000000 -1.000000
vn 0.000322 0.000000 -1.000000
vn 0.000322 0.000000 -1.000000
vn 0.000322 0.000000 -1.000000
vn -0.999758 0.000000 0.022018
vn -0.999758 0.000000 0.022018
vn -0.999758 0.000000 0.022018
vn -0.999758 0.000000 0.022018
vn 1.000000 0.000000 -0.000091
vn 1.000000 0.000000 -0.000091
vn 1.000000 0.000000 -0.000091
vn 1.000000 0.000000 -0.000091
vn 1.000000 0.000000 -0.000184
vn 1.000000 0.000000 -0.000184
vn 1.000000 0.000000 -0.000184
vn 1.000000 0.000000 -0.000184
vn 0.000402 0.000000 -1.000000
vn 0.000402 0.000000 -1.000000
vn 0.000402 0.000000 -1.000000
vn 0.000402 0.000000 -1.000000
vn -0.999704 0.000000 0.024342
vn -0.999704 0.000000 0.024342
vn -0.999704 0.000000 0.024342
vn -0.999704 0.000000 0.024342
vn 1.000000 0.000000 -0.000107
vn 1.000000 0.000000 -0.000107
vn 1.000000 0.000000 -0.000107
vn 1.000000 0.000000 -0.000107
vn -0.999704 0.000000 0.024344
vn -0.999704 0.000000 0.024344
vn -0.999704 0.000000 0.024344
vn -0.999704 0.000000 0.024344
vn 1.000000 -0.000343 -0.000252
vn 1.000000 -0.000171 -0.000086
vn 1.000000 -0.000171 -0.000086
vn 1.000000 0.000000 0.000081
vn 0.000892 0.001324 -0.999999
vn 0.001517 0.001969 -0.999997
vn 0.001517 0.001969 -0.999997
vn 0.002142 0.002614 -0.999994
vn 0.000854 0.006272 -0.999980
vn -0.002393 0.003136 -0.999992
vn -0.002393 0.003136 -0.999992
vn -0.005640 0.000000 -0.999984
vn -0.999959 0.000000 -0.009044
vn -0.999552 0.025468 0.015701
vn -0.999552 0.025468 0.015701
vn -0.997885 0.050904 0.040426
vn 0.003319 0.863891 0.503667
vn 0.001907 0.861488 0.507775
vn 0.001907 0.861488 0.507775
vn 0.000495 0.859062 0.511871
vn 0.000002 1.000000 0.000194
vn 0.000002 1.000000 0.000194
vn 0.000002 1.000000 0.000194
vn 0.003185 0.837943 0.545749
vn 0.001645 0.840165 0.542328
vn 0.999971 0.006382 0.004131
vn 0.999971 0.006382 0.004131
vn 0.999971 0.006382 0.004131
vn -1.000000 -0.000502 -0.000210
vn -1.000000 -0.000502 -0.000210
vn -1.000000 -0.000502 -0.000210
vn -0.999997 0.002352 -0.001172
vn -0.999997 0.002352 -0.001172
vn -0.999997 0.002352 -0.001172
vn 1.000000 -0.000581 -0.000092
vn 1.000000 -0.000581 -0.000092
vn 1.000000 -0.000581 -0.000092
vn 0.000956 0.002614 -0.999996
vn 0.005692 0.007770 -0.999954
vn 0.005692 0.007770 -0.999954
vn 0.010428 0.012925 -0.999862
vn -0.000525 -0.094388 -0.995535
vn -0.004519 -0.102650 -0.994707
vn -0.004519 -0.102650 -0.994707
vn -0.008511 -0.110903 -0.993795
vn 0.000000 1.000000 0.000026
vn 0.000000 1.000000 0.000026
vn 0.000000 1.000000 0.000026
vn -0.000546 -0.039603 -0.999215
vn -0.005102 -0.048279 -0.998821
vn -0.005102 -0.048279 -0.998821
vn -0.009658 -0.056951 -0.998330
vn 0.000001 1.000000 0.000025
vn 0.000001 1.000000 0.000024
vn 0.000001 1.000000 0.000024
vn 0.000000 1.000000 0.000023
vn 0.000606 -0.020298 0.999794
vn 0.000560 -0.020263 0.999795
vn 0.000610 -0.020139 0.999797
vn 0.000613 -0.020060 0.999799
vn 0.000711 -0.019893 0.999802
vn 0.000705 -0.019894 0.999802
vn 0.000658 -0.019859 0.999803
vn 0.000651 -0.019831 0.999803
vn 0.000624 -0.019800 0.999804
vn 0.000638 -0.019775 0.999804
vn 0.999997 0.002155 -0.001357
vn 0.999997 0.002155 -0.001357
vn 0.999997 0.002155 -0.001357
vn 0.002977 0.787711 0.616038
vn 0.004507 0.791280 0.611437
vn 0.004507 0.791280 0.611437
vn 0.006037 0.794821 0.606814
vn -1.000000 0.000288 -0.000131
vn -1.000000 0.000288 -0.000131
vn -1.000000 0.000288 -0.000131
vn 0.000068 0.999985 -0.005484
vn 0.000069 0.999985 -0.005481
vn 0.000069 0.999985 -0.005481
vn 0.000070 0.999985 -0.005479
vn -0.011699 -0.089612 0.995908
vn -0.001158 -0.111138 0.993804
vn -0.001158 -0.111138 0.993804
vn 0.009382 -0.132599 0.991125
vn 0.000071 0.999985 -0.005478
vn 0.000071 0.999985 -0.005478
vn 0.000071 0.999985 -0.005478
vn -0.000003 0.999995 0.003332
vn -0.001031 0.999998 0.001671
vn -0.001031 0.999998 0.001671
vn -0.002059 0.999998 0.000009
vn 0.000891 0.000000 -1.000000
vn 0.001512 0.000645 -0.999999
vn 0.001512 0.000645 -0.999999
vn 0.002132 0.001290 -0.999997
vn 0.008807 0.036760 0.999285
vn -0.001118 0.016113 0.999870
vn -0.001118 0.016113 0.999870
vn -0.011043 -0.004543 0.999929
vn 0.000002 1.000000 0.000190
vn 0.000002 1.000000 0.000192
vn 0.000002 1.000000 0.000192
vn 0.000001 1.000000 0.000193
vn 0.000000 1.000000 -0.000567
vn -0.000054 1.000000 -0.000352
vn -0.000054 1.000000 -0.000352
vn -0.000109 1.000000 -0.000136
vn 0.000856 0.013662 -0.999906
vn -0.002368 0.010459 -0.999943
vn -0.002368 0.010459 -0.999943
vn -0.005592 0.007256 -0.999958
vn 0.000000 1.000000 0.000028
vn 0.000000 1.000000 0.000028
vn 0.000000 1.000000 0.000028
vn 0.000001 1.000000 0.000018
vn 0.000001 1.000000 0.000018
vn 0.000001 1.000000 0.000018
vn 0.000001 1.000000 0.000028
vn 0.000001 1.000000 0.000028
vn 0.000001 1.000000 0.000028
vn 0.000001 1.000000 0.000026
vn 0.000001 1.000000 0.000026
vn 0.000001 1.000000 0.000026
f 17/17/1 18/18/2 7/7/3
f 7/7/3 18/18/2 1/1/4
f 11/11/5 60/60/6 6/6/7
f 6/6/7 60/60/6 4/4/8
f 60/60/6 59/59/9 4/4/8
f 24/24/10 17/17/11 23/23/12
f 23/23/12 17/17/11 7/7/13
f 5/5/14 15/15/15 16/16/16
f 11/11/17 6/6/18 12/12/19
f 12/12/19 6/6/18 10/10/20
f 13/13/21 27/27/22 8/8/23
f 8/8/23 27/27/22 28/28/24
f 14/14/25 13/13/26 2/2/27
f 2/2/27 13/13/26 8/8/28
f 11/11/29 12/12/30 83/122/31
f 83/122/31 12/12/30 82/121/32
f 19/19/33 42/42/34 17/17/35
f 17/17/35 42/42/34 92/132/36
f 94/134/37 18/18/38 93/133/39
f 93/133/39 18/18/38 17/17/40
f 17/17/41 24/24/42 19/19/43
f 19/19/43 24/24/42 25/25/44
f 12/12/45 21/21/46 82/121/47
f 82/121/47 21/21/46 41/41/48
f 22/22/49 26/26/50 13/13/51
f 13/13/51 26/26/50 27/27/52
f 40/40/53 26/26/54 39/39/55
f 39/39/55 26/26/54 22/22/56
f 9/9/57 16/16/58 46/46/59
f 46/46/60 16/16/61 45/45/62
f 45/45/62 16/16/61 20/20/63
f 41/41/64 21/21/65 40/40/66
f 40/40/66 21/21/65 26/26/67
f 27/27/68 26/26/69 12/12/70
f 12/12/70 26/26/69 21/21/71
f 28/28/72 27/27/73 10/10/74
f 10/10/74 27/27/73 12/12/75
f 43/43/76 30/30/77 42/42/78
f 42/42/78 30/30/77 29/29/79
f 44/44/80 31/31/81 43/43/82
f 43/43/82 31/31/81 30/30/83
f 31/31/84 44/44/85 32/32/86
f 32/32/86 44/44/85 81/120/87
f 32/32/88 54/54/89 33/33/90
f 30/30/91 35/35/92 29/29/93
f 29/29/93 35/35/92 34/34/94
f 31/31/95 36/36/96 30/30/97
f 30/30/97 36/36/96 35/35/98
f 37/37/99 36/36/100 32/32/101
f 32/32/101 36/36/100 31/31/102
f 38/38/103 37/37/104 33/33/105
f 33/33/105 37/37/104 32/32/106
f 35/35/107 40/40/108 34/34/109
f 34/34/109 40/40/108 39/39/110
f 43/43/111 42/42/112 25/25/113
f 25/25/113 42/42/112 19/19/114
f 20/20/115 44/44/116 45/45/117
f 44/44/116 43/43/118 45/45/117
f 43/43/118 25/25/119 45/45/117
f 25/25/120 24/24/121 45/45/122
f 45/45/122 24/24/121 46/46/123
f 46/46/124 24/24/125 47/47/126
f 47/47/126 24/24/125 23/23/127
f 48/48/128 34/34/129 88/127/130
f 88/127/130 34/34/129 39/39/131
f 89/128/132 90/129/133 80/101/134
f 80/101/134 90/129/133 49/49/135
f 50/50/136 86/125/137 52/52/138
f 52/52/139 86/125/140 53/53/141
f 53/53/141 86/125/140 87/126/142
f 53/53/143 87/126/144 48/48/145
f 77/98/146 78/99/147 51/51/148
f 51/51/148 78/99/147 49/49/149
f 56/56/150 55/55/151 54/54/152
f 54/54/152 55/55/151 33/33/153
f 40/40/154 35/35/155 41/41/156
f 41/41/156 35/35/155 36/36/157
f 3/3/158 57/57/159 5/5/160
f 57/57/159 58/58/161 5/5/160
f 58/58/161 15/15/162 5/5/160
f 58/58/163 56/56/164 15/15/165
f 15/15/165 56/56/164 54/54/166
f 83/122/167 84/123/168 11/11/169
f 60/60/170 11/11/169 63/61/171
f 84/123/168 63/61/171 11/11/169
f 7/64/172 1/65/173 67/67/174
f 67/67/174 1/65/173 66/66/175
f 14/68/176 2/69/177 69/71/178
f 69/71/178 2/69/177 68/70/179
f 23/72/180 7/64/181 70/73/182
f 70/73/182 7/64/181 67/67/183
f 2/76/184 8/77/185 68/79/186
f 68/79/186 8/77/185 71/78/187
f 28/80/188 10/81/189 73/83/190
f 73/83/190 10/81/189 72/82/191
f 1/84/192 18/85/193 66/87/194
f 66/87/194 18/85/193 74/86/195
f 47/74/196 23/72/197 75/75/198
f 75/75/198 23/72/197 70/73/199
f 8/77/200 28/80/201 71/78/202
f 71/78/202 28/80/201 73/83/203
f 9/88/204 47/74/205 76/89/206
f 76/89/206 47/74/205 75/75/207
f 6/92/208 4/93/209 10/81/210
f 10/81/210 4/93/209 72/82/211
f 90/130/212 91/131/213 49/97/214
f 49/97/214 91/131/213 62/96/215
f 94/135/216 95/136/217 18/85/218
f 18/85/218 95/136/217 74/86/219
f 76/89/220 3/90/221 9/88/222
f 9/88/222 3/90/221 5/91/223
f 79/102/224 80/103/225 77/98/226
f 77/98/226 80/103/225 78/99/227
f 93/133/228 17/17/229 92/132/230
f 79/102/231 52/52/139 80/103/232
f 80/103/232 52/52/139 53/53/141
f 78/104/233 80/105/234 49/106/235
f 77/107/236 51/108/237 79/109/238
f 80/110/239 53/111/240 48/112/241
f 79/113/242 50/114/243 52/115/244
f 49/116/245 62/117/246 51/119/247
f 51/119/247 62/117/246 61/118/248
f 81/120/249 44/44/250 16/16/251
f 16/16/251 44/44/250 20/20/252
f 15/15/253 54/54/254 81/120/255
f 82/121/256 41/41/257 37/37/258
f 37/37/258 41/41/257 36/36/259
f 83/122/260 82/121/261 38/38/262
f 38/38/262 82/121/261 37/37/263
f 84/123/264 83/122/265 65/63/266
f 83/122/265 38/38/267 65/63/266
f 38/38/267 85/124/268 65/63/266
f 85/124/269 38/38/270 64/62/271
f 38/38/270 33/33/272 64/62/271
f 33/33/272 55/55/273 64/62/271
f 50/50/274 29/29/275 86/125/276
f 87/126/277 86/125/278 34/34/279
f 34/34/279 86/125/278 29/29/280
f 48/48/281 87/126/282 34/34/283
f 80/101/284 48/48/285 89/128/286
f 89/128/286 48/48/285 88/127/287
f 88/127/288 39/39/289 13/13/290
f 13/13/290 39/39/289 22/22/291
f 89/128/292 88/127/293 13/13/294
f 90/129/295 89/128/296 14/14/297
f 14/14/297 89/128/296 13/13/298
f 14/68/299 69/71/300 90/130/301
f 90/130/301 69/71/300 91/131/302
f 42/42/303 29/29/304 92/132/305
f 92/132/305 29/29/304 50/50/306
f 79/100/307 93/133/308 50/50/309
f 50/50/309 93/133/308 92/132/310
f 51/51/311 94/134/312 79/100/313
f 79/100/313 94/134/312 93/133/314
f 51/95/315 61/94/316 94/135/317
f 94/135/317 61/94/316 95/136/318
f 5/5/319 16/16/320 9/9/321
f 9/9/322 46/46/323 47/47/324
f 15/15/325 81/120/326 16/16/327
f 81/120/328 54/54/329 32/32/330
