# This file uses centimeters as units for non-parametric coordinates.

v 7.844273 5.058813 -6.345322
v -8.136448 3.675350 -0.918273
v 8.865257 3.813742 -2.493601
v -0.533018 3.302088 4.083425
v 7.601148 3.467367 -0.271657
v 6.677761 3.250199 1.559379
v -6.123806 3.691490 1.360239
v 0.536668 3.359944 4.075491
v -8.150584 5.178572 -0.607095
v -6.122619 5.233634 2.184309
v -0.533149 5.285240 5.219392
v 0.538020 5.226111 5.213265
v 7.059721 5.042899 1.182616
v 8.874648 4.937068 -2.350430
v 7.591205 5.058101 0.063795
v 4.016621 5.014196 3.801103
v 3.578294 3.285348 3.498930
v -3.656074 5.053528 4.121205
v -3.410909 3.285165 3.279847
v -9.185611 5.189857 -5.789298
v -7.293407 5.308261 -6.873043
v -8.780589 4.941455 -1.947333
v -8.834270 3.586812 -2.386147
v 5.612426 5.031618 2.790080
v 5.218703 3.287404 2.869127
v 2.175626 5.103329 4.748608
v 2.037627 3.256725 3.940933
v 8.203548 5.043441 -0.971113
v 8.067023 3.610350 -1.137722
v -4.762659 5.093014 3.397535
v -4.547494 3.407177 2.611351
v -1.982444 5.092326 4.847312
v -1.902248 3.262100 3.840898
v -7.264086 5.240052 0.740694
v -7.120127 3.714921 0.315319
v -8.865932 5.393073 -2.658059
v -1.196472 5.100330 4.997767
v -0.994341 5.241557 5.101837
v -5.507059 5.039307 2.685436
v -1.641650 5.125934 4.913464
v 8.835314 5.134494 -3.539973
v 8.595375 5.043737 -1.882139
v 8.441234 3.749858 -1.845920
v -9.060620 5.347136 -3.516113
v 8.797825 5.088924 -5.135304
v -8.255537 5.392150 -6.877604
v -8.974938 5.308388 -6.384047
v 8.710339 5.082966 -5.605135
v 8.353603 5.069757 -6.340607
v -7.162432 4.196966 -7.152508
v -8.124562 4.280855 -7.157070
v -8.628624 3.908082 -2.823229
v -8.823311 3.862146 -3.681283
v -8.851971 3.866478 -6.064717
v -9.254095 3.985008 -6.528156
v 8.839364 4.107630 -3.563591
v 8.801875 4.062060 -5.158921
v 8.659780 4.456920 -5.583677
v 8.303044 4.443712 -6.319149
v 7.793715 4.432767 -6.323864
v -0.098569 -3.710914 0.947374
v -0.504223 -172.385941 0.339293
v -3.567172 -3.328964 -1.614238
v -3.778548 -172.137268 0.105054
v 2.887626 -1.429426 -3.853953
v 4.955992 -172.317505 0.076028
v 3.625909 -1.529129 0.067526
v 4.061541 -172.198883 -0.183020
v -1.918939 -3.675327 0.737583
v -2.939251 -172.144287 0.013161
v 1.384273 -2.959725 0.446368
v 1.406519 -172.178207 -0.109311
v 2.414120 -2.343926 0.302205
v 2.653392 -172.187897 -0.143927
v -1.083025 -3.691669 0.833919
v -1.753118 -172.261948 0.170741
v -5.401298 0.878425 -1.167494
v -3.678930 0.626035 0.877369
v -2.233128 0.601682 2.041443
v -0.376616 0.601769 2.504693
v 0.722506 0.619995 2.181153
v 2.656355 0.649026 1.711745
v 4.426659 0.697646 0.556910
v 4.416890 0.780666 -2.176381
v -7.228108 2.062874 -0.997742
v -4.898522 -0.595147 -1.448610
v -3.875110 -1.358356 -1.445563
v -6.664331 2.912808 0.218616
v -3.617452 -5.146256 -1.205265
v -2.151132 -5.334208 0.572567
v -1.235653 -5.377572 0.682866
v -0.191433 -5.427058 0.808563
v 1.390320 -5.147956 0.295316
v 2.484653 -4.901284 0.170694
v 3.739752 -4.012080 0.002051
v -4.158293 -6.418310 -0.889863
v -2.390991 -7.047853 0.402104
v -1.407369 -7.274319 0.512922
v -0.283597 -7.130237 0.670801
v 1.395826 -7.140059 0.157804
v 2.528491 -6.490756 0.088956
v 3.842512 -6.253292 -0.057050
v 4.269653 -6.556790 -1.807004
v -3.706042 -9.915773 -0.484696
v -2.557948 -9.808289 0.283450
v -1.504708 -9.917147 0.416587
v -0.348885 -9.904397 0.573210
v 1.399812 -10.150167 0.058231
v 2.579359 -9.902744 -0.005889
v 3.925510 -9.631118 -0.104784
v 5.267914 -10.382177 -1.241217
v -4.172220 -13.002448 -0.272557
v -2.718029 -12.974300 0.169683
v -1.588474 -12.864738 0.333686
v -0.393381 -12.749021 0.506698
v 1.401762 -12.878195 0.009517
v 2.605055 -12.856743 -0.053800
v 3.979738 -12.836171 -0.135972
v 5.307292 -13.505513 -0.716268
v 4.433584 -4.577468 -2.495585
v -3.878551 -21.623589 0.009131
v -2.873086 -21.549961 0.059975
v -1.702322 -21.582504 0.221013
v -0.469144 -21.616167 0.392273
v 1.405357 -21.639050 -0.080263
v 2.639207 -21.555246 -0.117478
v 4.046195 -21.745825 -0.174193
v 5.053500 -21.856808 -0.143883
v -3.785886 -35.183846 0.098016
v -2.934721 -35.246983 0.016366
v -1.748814 -35.151752 0.175000
v -0.500654 -35.049686 0.344683
v 1.406448 -35.372219 -0.107524
v 2.652555 -35.407688 -0.142365
v 4.060658 -35.448280 -0.182512
v 4.963716 -35.294846 0.058608
vt 0.163402 0.475546
vt 0.841999 0.567637
vt 0.449360 0.413137
vt 0.778163 0.508706
vt 0.724260 0.474577
vt 0.232583 0.446689
vt 0.496026 0.417548
vt 0.158713 0.535714
vt 0.228768 0.487611
vt 0.459401 0.477008
vt 0.509608 0.480326
vt 0.735677 0.538957
vt 0.837725 0.614098
vt 0.773515 0.556197
vt 0.622941 0.509719
vt 0.602901 0.444253
vt 0.334303 0.471474
vt 0.343867 0.429465
vt 0.114967 0.560161
vt 0.133144 0.479034
vt 0.671777 0.522385
vt 0.663316 0.459349
vt 0.562667 0.494087
vt 0.545484 0.429906
vt 0.808016 0.587308
vt 0.804602 0.533114
vt 0.290025 0.478244
vt 0.300569 0.436166
vt 0.401801 0.474460
vt 0.400171 0.420750
vt 0.193565 0.511783
vt 0.202248 0.459342
vt 0.432889 0.475835
vt 0.441271 0.476206
vt 0.254008 0.483752
vt 0.415631 0.475072
vt 0.828001 0.605329
vt 0.825212 0.552140
vt 0.421249 0.109996
vt 0.417026 0.110107
vt 0.415540 0.105994
vt 0.419650 0.105840
vt 0.380934 0.120808
vt 0.382536 0.119198
vt 0.382481 0.114463
vt 0.380929 0.116195
vt 0.385591 0.114545
vt 0.385218 0.110063
vt 0.385529 0.114003
vt 0.385148 0.109430
vt 0.378813 0.116191
vt 0.379489 0.120632
vt 0.361351 0.115456
vt 0.359740 0.117365
vt 0.361767 0.119798
vt 0.362209 0.117014
vt 0.360261 0.114466
vt 0.359420 0.116690
vt 0.359965 0.114928
vt 0.359722 0.115645
vt 0.360276 0.113856
vt 0.361878 0.113665
vt 0.363192 0.120816
vt 0.363522 0.117738
vt 0.427304 0.292641
vt 0.426830 0.234288
vt 0.465530 0.236060
vt 0.463832 0.295309
vt 0.607689 0.349764
vt 0.607485 0.267567
vt 0.646062 0.268920
vt 0.622411 0.348999
vt 0.449360 0.413137
vt 0.400171 0.420750
vt 0.376126 0.376565
vt 0.454961 0.367534
vt 0.778163 0.508706
vt 0.724260 0.474577
vt 0.659204 0.413636
vt 0.688964 0.423871
vt 0.663316 0.459349
vt 0.562604 0.332697
vt 0.562451 0.245099
vt 0.301546 0.380839
vt 0.232583 0.446689
vt 0.218334 0.434857
vt 0.352562 0.313234
vt 0.359499 0.249777
vt 0.393500 0.232739
vt 0.396287 0.290375
vt 0.505018 0.373044
vt 0.496026 0.417548
vt 0.518236 0.239333
vt 0.516682 0.315315
vt 0.584359 0.392922
vt 0.602901 0.444253
vt 0.545484 0.429906
vt 0.343867 0.429465
vt 0.300569 0.436166
vt 0.305504 0.356446
vt 0.202248 0.459342
vt 0.265780 0.367147
vt 0.246481 0.394638
vt 0.202781 0.421943
vt 0.163402 0.475546
vt 0.350589 0.198566
vt 0.390621 0.173200
vt 0.426297 0.168638
vt 0.467216 0.177258
vt 0.519650 0.170162
vt 0.562356 0.190653
vt 0.607301 0.193372
vt 0.357884 0.160647
vt 0.388617 0.131757
vt 0.425995 0.131423
vt 0.468410 0.135602
vt 0.520674 0.120075
vt 0.562246 0.127477
vt 0.607152 0.133446
vt 0.638431 0.210249
vt 0.660680 0.126829
vt 0.352192 0.115599
vt 0.386696 0.092021
vt 0.425735 0.099398
vt 0.469224 0.107213
vt 0.521175 0.095571
vt 0.562191 0.095564
vt 0.607054 0.094293
vt 0.651381 0.086218
vt 0.365128 0.042596
vt 0.384022 0.036729
vt 0.425223 0.036452
vt 0.469915 0.036151
vt 0.522398 0.035798
vt 0.562086 0.035531
vt 0.588178 0.040338
vt 0.608840 0.046262
vt 0.361842 0.061141
vt 0.384822 0.053266
vt 0.425381 0.055872
vt 0.469696 0.058640
vt 0.522099 0.050409
vt 0.562117 0.053148
vt 0.591719 0.050460
vt 0.620648 0.057353
vt 0.364886 0.043957
vt 0.384077 0.037861
vt 0.425237 0.038097
vt 0.469893 0.038439
vt 0.522379 0.036697
vt 0.562088 0.036571
vt 0.588382 0.040920
vt 0.609776 0.047141
vn -0.895737 -0.104487 0.432133
vn -0.894685 -0.101635 0.434982
vn -0.894768 -0.101860 0.434758
vn -0.893697 -0.098993 0.437614
vn -0.745503 -0.313674 0.588076
vn -0.729965 -0.289872 0.618971
vn -0.729460 -0.289123 0.619916
vn -0.703228 -0.251819 0.664874
vn -0.171516 -0.489685 0.854863
vn -0.171516 -0.489685 0.854863
vn -0.171516 -0.489685 0.854863
vn 0.034469 -0.520272 0.853305
vn -0.007278 -0.503346 0.864054
vn 0.017253 -0.513424 0.857962
vn -0.022469 -0.496918 0.867507
vn 0.743106 -0.017742 0.668938
vn 0.704566 -0.066735 0.706493
vn 0.711246 -0.058598 0.700497
vn 0.661871 -0.115840 0.740614
vn 0.846909 -0.086207 0.524704
vn 0.840078 -0.078596 0.536742
vn 0.843524 -0.082408 0.530733
vn 0.837650 -0.075942 0.540902
vn 0.900490 -0.084337 0.426622
vn 0.895426 -0.093975 0.435179
vn 0.895160 -0.094472 0.435618
vn 0.893210 -0.098089 0.438810
vn 0.431831 -0.260417 0.863542
vn 0.359899 -0.323795 0.875003
vn 0.355152 -0.327773 0.875461
vn 0.259268 -0.403225 0.877604
vn -0.505577 -0.426836 0.749802
vn -0.501188 -0.423856 0.754425
vn -0.498292 -0.421887 0.757441
vn -0.493393 -0.418552 0.762481
vn 0.534005 -0.082407 0.841456
vn 0.447426 -0.163113 0.879320
vn 0.449097 -0.161637 0.878741
vn 0.347652 -0.246269 0.904704
vn 0.054130 -0.403535 0.913362
vn 0.149839 -0.475547 0.866835
vn 0.124655 -0.457183 0.880594
vn 0.199139 -0.510242 0.836658
vn 0.881653 -0.136509 0.451723
vn 0.863488 -0.111766 0.491831
vn 0.868945 -0.118921 0.480408
vn 0.855538 -0.101705 0.507653
vn -0.619923 -0.395235 0.677853
vn -0.619923 -0.395235 0.677853
vn -0.619923 -0.395235 0.677853
vn -0.343486 -0.464037 0.816509
vn -0.334029 -0.456086 0.824870
vn -0.331297 -0.453783 0.827238
vn -0.318451 -0.442907 0.838106
vn -0.808749 -0.227601 0.542331
vn -0.787525 -0.183710 0.588265
vn -0.788415 -0.185429 0.586531
vn -0.762230 -0.138081 0.632408
vn -0.190274 -0.469540 0.862165
vn -0.190274 -0.469540 0.862165
vn -0.190274 -0.469540 0.862165
vn -0.110260 -0.482500 0.868929
vn -0.128246 -0.486686 0.864112
vn -0.137868 -0.488857 0.861401
vn -0.138277 -0.488948 0.861283
vn -0.614232 -0.392202 0.684761
vn -0.626341 -0.381695 0.679710
vn -0.620659 -0.386658 0.682113
vn -0.655015 -0.355727 0.666644
vn -0.120840 -0.482371 0.867592
vn -0.120840 -0.482371 0.867592
vn -0.120840 -0.482371 0.867592
vn 0.914236 -0.097908 0.393176
vn 0.905488 -0.110680 0.409685
vn 0.898073 -0.120969 0.422885
vn 0.886766 -0.135842 0.441806
vn 0.026103 0.246693 -0.968742
vn 0.026103 0.246693 -0.968742
vn 0.026103 0.246693 -0.968742
vn 0.026103 0.246693 -0.968742
vn -0.957495 -0.178238 0.226793
vn -0.957495 -0.178237 0.226792
vn -0.957495 -0.178237 0.226792
vn -0.957495 -0.178237 0.226791
vn -0.984189 -0.164563 0.065501
vn -0.975567 -0.217554 0.030644
vn -0.980242 -0.192003 0.047541
vn -0.969043 -0.246640 0.011204
vn -0.571189 0.136234 -0.809434
vn -0.531089 0.182893 -0.827342
vn -0.535464 0.177959 -0.825596
vn -0.516064 0.199567 -0.832977
vn -0.931290 0.227434 -0.284555
vn -0.900338 -0.189168 0.391928
vn -0.993007 0.097377 -0.066751
vn -0.755848 -0.310523 0.576428
vn -0.932042 0.144566 -0.332263
vn -0.992959 -0.111041 -0.041271
vn -0.977390 0.033258 -0.208811
vn -0.987029 -0.159633 0.017086
vn 0.999711 0.004485 -0.023621
vn 0.999711 0.004486 -0.023621
vn 0.999711 0.004487 -0.023621
vn 0.999711 0.004488 -0.023621
vn 0.979710 -0.085338 -0.181347
vn 0.968369 -0.036384 -0.246857
vn 0.959035 -0.008591 -0.283158
vn 0.951273 0.010841 -0.308158
vn 0.010005 -0.035061 -0.999335
vn 0.010005 -0.035061 -0.999335
vn 0.010005 -0.035061 -0.999335
vn 0.010005 -0.035061 -0.999335
vn 0.896926 -0.087293 -0.433480
vn 0.896926 -0.087293 -0.433480
vn 0.896926 -0.087292 -0.433480
vn 0.896926 -0.087292 -0.433480
vn 0.999468 0.004685 -0.032272
vn 0.999587 -0.000484 -0.028741
vn 0.999578 -0.000022 -0.029057
vn 0.999660 -0.005095 -0.025591
vn -0.122772 -0.077533 0.989402
vn -0.120440 -0.076340 0.989781
vn -0.118148 -0.075168 0.990147
vn -0.115601 -0.073865 0.990546
vn 0.964991 0.037399 0.259604
vn 0.947874 0.310679 -0.070805
vn 0.951988 0.300668 -0.057602
vn 0.911614 0.377769 -0.162022
vn -0.136102 -0.505883 0.851797
vn -0.164063 -0.516275 0.840561
vn -0.191261 -0.525935 0.828741
vn -0.205173 -0.530703 0.822349
vn 0.672573 -0.694022 0.256863
vn 0.661315 -0.749585 0.027995
vn 0.669984 -0.733327 0.115556
vn 0.653464 -0.756534 -0.025314
vn 0.493431 -0.658381 0.568384
vn 0.493431 -0.658381 0.568384
vn 0.493431 -0.658381 0.568384
vn 0.165048 -0.046112 0.985207
vn 0.175360 -0.037661 0.983784
vn 0.189603 -0.025934 0.981518
vn 0.200864 -0.016619 0.979478
vn -0.554338 -0.541656 0.631917
vn -0.554338 -0.541656 0.631917
vn -0.554338 -0.541656 0.631917
vn -0.798517 0.153109 0.582176
vn -0.791602 0.123718 0.598382
vn -0.784815 0.097981 0.611935
vn -0.768417 0.044048 0.638432
vn 0.245918 -0.539888 0.805013
vn 0.084269 -0.514043 0.853615
vn 0.210182 -0.535449 0.817996
vn 0.033609 -0.502980 0.863644
vn 0.322192 -0.093631 0.942033
vn 0.335967 -0.077825 0.938653
vn 0.338447 -0.074958 0.937995
vn 0.348212 -0.063597 0.935256
vn 0.230894 -0.599995 0.765959
vn 0.230894 -0.599995 0.765959
vn 0.230894 -0.599995 0.765959
vn 0.127993 -0.067947 0.989445
vn 0.139384 -0.061334 0.988337
vn 0.157077 -0.051012 0.986268
vn 0.165467 -0.046097 0.985137
vn -0.471078 -0.531603 0.703906
vn -0.471078 -0.531603 0.703906
vn -0.471078 -0.531603 0.703906
vn -0.123012 -0.081170 0.989080
vn -0.120980 -0.080365 0.989397
vn -0.118047 -0.079202 0.989845
vn -0.115647 -0.078250 0.990203
vn -0.851639 -0.360820 0.380159
vn -0.848817 -0.320364 0.420566
vn -0.847710 -0.310365 0.430187
vn -0.818223 -0.174741 0.547702
vn -0.115044 -0.297391 0.947799
vn -0.583768 -0.275694 0.763680
vn -0.299243 -0.298288 0.906354
vn -0.606210 -0.272327 0.747227
vn -0.229361 -0.319982 0.919242
vn -0.156109 -0.335796 0.928909
vn -0.220526 -0.322002 0.920697
vn -0.114137 -0.343919 0.932037
vn 0.267009 -0.379850 0.885675
vn 0.332383 -0.343341 0.878430
vn 0.417765 -0.290895 0.860728
vn 0.432090 -0.281522 0.856764
vn 0.219036 -0.430174 0.875770
vn 0.240022 -0.418343 0.876001
vn 0.298607 -0.383575 0.873902
vn 0.336776 -0.359483 0.870261
vn 0.517229 -0.356948 0.777858
vn 0.493197 -0.373523 0.785645
vn 0.464228 -0.392664 0.793919
vn 0.432643 -0.412549 0.801637
vn 0.941866 -0.335715 -0.013563
vn 0.902749 -0.415895 -0.109886
vn 0.892073 -0.432549 -0.130792
vn 0.866807 -0.466903 -0.175062
vn -0.653095 -0.444989 0.612741
vn -0.653095 -0.444989 0.612741
vn -0.653095 -0.444989 0.612741
vn -0.734899 -0.360346 0.574521
vn -0.734899 -0.360346 0.574522
vn -0.734899 -0.360346 0.574522
vn -0.482943 -0.645231 0.591982
vn -0.482943 -0.645231 0.591982
vn -0.482943 -0.645231 0.591982
vn 0.417003 -0.672976 0.610911
vn 0.342229 -0.635840 0.691799
vn 0.386669 -0.658676 0.645471
vn 0.286257 -0.604216 0.743626
vn 0.195546 -0.610022 0.767877
vn 0.095567 -0.585126 0.805292
vn 0.162817 -0.602618 0.781244
vn 0.034820 -0.566749 0.823155
vn -0.524285 -0.562392 0.639406
vn -0.564530 -0.556423 0.609672
vn -0.539637 -0.560306 0.628370
vn -0.576467 -0.554330 0.600336
vn -0.307314 -0.506627 0.805535
vn -0.307314 -0.506627 0.805535
vn -0.307314 -0.506627 0.805535
vn -0.680963 -0.413391 0.604481
vn -0.680807 -0.426381 0.595568
vn -0.680865 -0.422959 0.597937
vn -0.679822 -0.455590 0.574700
vn -0.607083 -0.669038 0.428763
vn -0.531351 -0.676927 0.509349
vn -0.574812 -0.673510 0.464732
vn -0.374513 -0.669552 0.641436
vn -0.671789 0.434394 0.600002
vn -0.654408 0.248017 0.714309
vn -0.632063 0.142785 0.761649
vn -0.589648 0.002192 0.807657
vn -0.123012 -0.081170 0.989080
vn -0.127597 -0.077945 0.988759
vn -0.125332 -0.079538 0.988921
vn -0.129089 -0.076894 0.988647
vn -0.122618 -0.073420 0.989735
vn -0.125217 -0.074829 0.989303
vn -0.127236 -0.075923 0.988962
vn -0.129036 -0.076899 0.988654
vn 0.318262 -0.064409 0.945812
vn 0.306233 -0.076713 0.948861
vn 0.304890 -0.078079 0.949182
vn 0.290380 -0.092749 0.952406
vn 0.123598 -0.047563 0.991192
vn 0.112645 -0.056971 0.992001
vn 0.106108 -0.062570 0.992384
vn 0.099464 -0.068250 0.992698
vn 0.146604 -0.019358 0.989006
vn 0.138769 -0.027385 0.989946
vn 0.133289 -0.032988 0.990528
vn 0.118824 -0.047724 0.991768
vn -0.585851 0.018105 0.810217
vn -0.573043 0.009370 0.819472
vn -0.581636 0.015217 0.813307
vn -0.555941 -0.002104 0.831219
vn -0.119928 -0.035393 0.992151
vn -0.126598 -0.032299 0.991428
vn -0.121874 -0.034491 0.991946
vn -0.128541 -0.031397 0.991207
vn -0.135072 -0.031660 0.990330
vn -0.134785 -0.031543 0.990373
vn -0.134186 -0.031300 0.990462
vn -0.133877 -0.031175 0.990507
vn 0.291679 -0.040483 0.955659
vn 0.282409 -0.034178 0.958685
vn 0.286384 -0.036879 0.957405
vn 0.278296 -0.031387 0.959982
vn 0.075823 -0.026577 0.996767
vn 0.073192 -0.027714 0.996933
vn 0.064636 -0.031408 0.997415
vn 0.061134 -0.032919 0.997587
vn 0.112440 -0.011278 0.993595
vn 0.104358 -0.014925 0.994428
vn 0.086091 -0.023150 0.996018
vn 0.078565 -0.026531 0.996556
vn 0.972090 0.020583 0.233705
vn 0.791611 0.225764 0.567788
vn 0.920478 0.105331 0.376331
vn 0.706756 0.280492 0.649476
vn -0.291150 0.109292 0.950414
vn -0.358989 0.082935 0.929650
vn -0.484679 0.030460 0.874162
vn -0.555963 -0.001758 0.831205
vn -0.127839 -0.024253 0.991498
vn -0.131278 -0.025352 0.991021
vn -0.138592 -0.027689 0.989962
vn -0.140926 -0.028435 0.989612
vn -0.134022 -0.021069 0.990754
vn -0.135864 -0.021800 0.990488
vn -0.139435 -0.023219 0.989959
vn -0.140974 -0.023830 0.989726
vn 0.278927 -0.026808 0.959938
vn 0.270739 -0.020728 0.962430
vn 0.274195 -0.023292 0.961392
vn 0.265734 -0.017022 0.963896
vn 0.057554 -0.015689 0.998219
vn 0.056498 -0.016162 0.998272
vn 0.054134 -0.017219 0.998385
vn 0.052855 -0.017791 0.998444
vn 0.074958 -0.008435 0.997151
vn 0.071396 -0.010146 0.997396
vn 0.064218 -0.013593 0.997843
vn 0.059895 -0.015667 0.998082
vn 0.647272 0.003534 0.762251
vn 0.528058 0.102483 0.843002
vn 0.605588 0.040062 0.794770
vn 0.459507 0.152845 0.874924
vn -0.048248 0.009855 0.998787
vn -0.066721 0.009030 0.997731
vn -0.278939 -0.005037 0.960296
vn -0.290826 -0.006981 0.956751
vn -0.142639 -0.010929 0.989714
vn -0.142135 -0.010869 0.989788
vn -0.136613 -0.005704 0.990608
vn -0.136282 -0.005745 0.990653
vn -0.142170 -0.011558 0.989775
vn -0.141800 -0.011510 0.989828
vn -0.137866 -0.006230 0.990431
vn -0.137605 -0.006291 0.990467
vn 0.265899 -0.014710 0.963889
vn 0.245480 -0.006572 0.969379
vn 0.262984 -0.014051 0.964698
vn 0.243556 -0.006159 0.969867
vn 0.052672 -0.007103 0.998587
vn 0.050674 -0.007390 0.998688
vn 0.031229 -0.005105 0.999499
vn 0.030395 -0.004882 0.999526
vn 0.059773 -0.007073 0.998187
vn 0.040672 -0.002840 0.999169
vn 0.057637 -0.006744 0.998315
vn 0.039486 -0.002492 0.999217
vn 0.400123 -0.000947 0.916461
vn -0.004628 0.033980 0.999412
vn 0.384001 0.001972 0.923331
vn -0.026264 0.034472 0.999061
vn 0.964991 0.037400 0.259604
vn 0.967332 0.025795 0.252197
vn 0.967436 0.025259 0.251853
vn 0.971554 0.001918 0.236811
vn 0.094880 0.000603 0.995489
vn 0.095545 0.000757 0.995425
vn -0.132584 -0.000281 0.991172
vn -0.132563 -0.000236 0.991175
vn -0.134699 -0.000320 0.990887
vn -0.134681 -0.000269 0.990889
vn 0.230803 -0.000267 0.973001
vn 0.230674 -0.000184 0.973031
vn 0.027956 -0.000184 0.999609
vn 0.027942 -0.000197 0.999610
vn 0.028564 -0.000065 0.999592
vn 0.028498 -0.000054 0.999594
vn -0.256866 0.000108 0.966447
vn -0.258050 0.000062 0.966131
vn 0.108785 -0.000027 0.994065
vn 0.108838 -0.000027 0.994060
vn -0.131702 -0.000019 0.991289
vn -0.131697 -0.000019 0.991290
vn -0.133756 -0.000027 0.991014
vn -0.133750 -0.000027 0.991015
vn 0.228587 -0.000013 0.973523
vn 0.228566 -0.000013 0.973528
vn 0.027752 -0.000013 0.999615
vn 0.027751 -0.000013 0.999615
vn 0.027756 -0.000011 0.999615
vn 0.027751 -0.000011 0.999615
vn -0.278089 -0.000005 0.960555
vn -0.278185 -0.000005 0.960527
f 23/20/1 2/1/2 22/19/3
f 22/19/3 2/1/2 9/8/4
f 10/9/5 34/31/6 7/6/7
f 7/6/7 34/31/6 35/32/8
f 11/10/9 38/34/10 4/3/11
f 8/7/12 12/11/13 4/3/14
f 4/3/14 12/11/13 11/10/15
f 13/12/16 24/21/17 6/5/18
f 6/5/18 24/21/17 25/22/19
f 42/37/20 43/38/21 14/13/22
f 14/13/22 43/38/21 3/2/23
f 15/14/24 13/12/25 5/4/26
f 5/4/26 13/12/25 6/5/27
f 16/15/28 26/23/29 17/16/30
f 17/16/30 26/23/29 27/24/31
f 18/17/32 30/27/33 19/18/34
f 19/18/34 30/27/33 31/28/35
f 24/21/36 16/15/37 25/22/38
f 25/22/38 16/15/37 17/16/39
f 27/24/40 26/23/41 8/7/42
f 8/7/42 26/23/41 12/11/43
f 29/26/44 28/25/45 5/4/46
f 5/4/46 28/25/45 15/14/47
f 31/28/48 30/27/49 39/35/50
f 32/29/51 18/17/52 33/30/53
f 33/30/53 18/17/52 19/18/54
f 34/31/55 9/8/56 35/32/57
f 35/32/57 9/8/56 2/1/58
f 33/30/59 37/33/60 40/36/61
f 38/34/62 37/33/63 4/3/64
f 4/3/64 37/33/63 33/30/65
f 31/28/66 39/35/67 7/6/68
f 7/6/68 39/35/67 10/9/69
f 33/30/70 40/36/71 32/29/72
f 42/37/73 28/25/74 43/38/75
f 43/38/75 28/25/74 29/26/76
f 46/39/77 21/40/78 51/42/79
f 51/42/79 21/40/78 50/41/80
f 36/43/81 44/44/82 52/46/83
f 52/46/83 44/44/82 53/45/84
f 44/44/85 20/47/86 53/45/87
f 53/45/87 20/47/86 54/48/88
f 46/39/89 51/42/90 47/49/91
f 47/49/91 51/42/90 55/50/92
f 47/49/93 55/50/94 20/47/95
f 20/47/95 55/50/94 54/48/96
f 23/51/97 22/52/98 52/46/99
f 52/46/99 22/52/98 36/43/100
f 41/55/101 56/56/102 45/54/103
f 45/54/103 56/56/102 57/57/104
f 48/58/105 45/54/106 58/59/107
f 58/59/107 45/54/106 57/57/108
f 49/60/109 59/61/110 1/53/111
f 1/53/111 59/61/110 60/62/112
f 48/58/113 58/59/114 49/60/115
f 49/60/115 58/59/114 59/61/116
f 41/55/117 14/63/118 56/56/119
f 56/56/119 14/63/118 3/64/120
f 91/66/121 92/67/122 75/65/123
f 75/65/123 92/67/122 61/68/124
f 95/70/125 120/71/126 67/69/127
f 67/69/127 120/71/126 65/72/128
f 4/73/129 33/74/130 80/76/131
f 80/76/131 33/74/130 79/75/132
f 6/78/133 83/79/134 5/77/135
f 5/77/135 83/79/134 84/80/136
f 83/79/137 6/78/138 25/81/139
f 94/83/140 95/70/141 73/82/142
f 73/82/142 95/70/141 67/69/143
f 78/84/144 7/85/145 88/86/146
f 63/87/147 89/88/148 69/90/149
f 69/90/149 89/88/148 90/89/150
f 81/91/151 8/92/152 80/76/153
f 80/76/153 8/92/152 4/73/154
f 92/67/155 93/93/156 61/68/157
f 61/68/157 93/93/156 71/94/158
f 82/95/159 17/96/160 27/97/161
f 93/93/162 94/83/163 71/94/164
f 71/94/164 94/83/163 73/82/165
f 79/75/166 19/98/167 31/99/168
f 90/89/169 91/66/170 69/90/171
f 69/90/171 91/66/170 75/65/172
f 78/84/173 87/100/174 69/90/175
f 69/90/175 87/100/174 63/87/176
f 75/65/177 79/75/178 69/90/179
f 69/90/179 79/75/178 78/84/180
f 79/75/181 75/65/182 80/76/183
f 80/76/183 75/65/182 61/68/184
f 81/91/185 80/76/186 71/94/187
f 71/94/187 80/76/186 61/68/188
f 82/95/189 81/91/190 73/82/191
f 73/82/191 81/91/190 71/94/192
f 83/79/193 82/95/194 67/69/195
f 67/69/195 82/95/194 73/82/196
f 83/79/197 67/69/198 84/80/199
f 84/80/199 67/69/198 65/72/200
f 88/86/201 7/85/202 35/101/203
f 86/102/204 78/84/205 77/103/206
f 87/100/207 78/84/208 86/102/209
f 83/79/210 25/81/211 82/95/212
f 82/95/212 25/81/211 17/96/213
f 82/95/214 27/97/215 81/91/216
f 81/91/216 27/97/215 8/92/217
f 79/75/218 31/99/219 78/84/220
f 78/84/220 31/99/219 7/85/221
f 79/75/222 33/74/223 19/98/224
f 85/104/225 88/86/226 2/105/227
f 2/105/227 88/86/226 35/101/228
f 78/84/229 88/86/230 77/103/231
f 77/103/231 88/86/230 85/104/232
f 89/88/233 96/106/234 90/89/235
f 90/89/235 96/106/234 97/107/236
f 90/89/237 97/107/238 91/66/239
f 91/66/239 97/107/238 98/108/240
f 92/67/241 91/66/242 99/109/243
f 99/109/243 91/66/242 98/108/244
f 93/93/245 92/67/246 100/110/247
f 100/110/247 92/67/246 99/109/248
f 94/83/249 93/93/250 101/111/251
f 101/111/251 93/93/250 100/110/252
f 95/70/253 94/83/254 102/112/255
f 102/112/255 94/83/254 101/111/256
f 96/106/257 104/113/258 97/107/259
f 97/107/259 104/113/258 105/114/260
f 97/107/261 105/114/262 98/108/263
f 98/108/263 105/114/262 106/115/264
f 99/109/265 98/108/266 107/116/267
f 107/116/267 98/108/266 106/115/268
f 99/109/269 107/116/270 100/110/271
f 100/110/271 107/116/270 108/117/272
f 101/111/273 100/110/274 109/118/275
f 109/118/275 100/110/274 108/117/276
f 102/112/277 101/111/278 110/119/279
f 110/119/279 101/111/278 109/118/280
f 102/112/281 110/119/282 103/120/283
f 103/120/283 110/119/282 111/121/284
f 112/122/285 113/123/286 104/113/287
f 104/113/287 113/123/286 105/114/288
f 106/115/289 105/114/290 114/124/291
f 114/124/291 105/114/290 113/123/292
f 107/116/293 106/115/294 115/125/295
f 115/125/295 106/115/294 114/124/296
f 107/116/297 115/125/298 108/117/299
f 108/117/299 115/125/298 116/126/300
f 109/118/301 108/117/302 117/127/303
f 117/127/303 108/117/302 116/126/304
f 110/119/305 109/118/306 118/128/307
f 118/128/307 109/118/306 117/127/308
f 110/119/309 118/128/310 111/121/311
f 111/121/311 118/128/310 119/129/312
f 121/138/313 122/139/314 112/122/315
f 112/122/315 122/139/314 113/123/316
f 114/124/317 113/123/318 123/140/319
f 123/140/319 113/123/318 122/139/320
f 115/125/321 114/124/322 124/141/323
f 124/141/323 114/124/322 123/140/324
f 115/125/325 124/141/326 116/126/327
f 116/126/327 124/141/326 125/142/328
f 117/127/329 116/126/330 126/143/331
f 126/143/331 116/126/330 125/142/332
f 117/127/333 126/143/334 118/128/335
f 118/128/335 126/143/334 127/144/336
f 118/128/337 127/144/338 119/129/339
f 119/129/339 127/144/338 128/145/340
f 95/70/341 102/112/342 120/71/343
f 120/71/343 102/112/342 103/120/344
f 122/139/314 121/138/313 130/147/345
f 130/147/345 121/138/313 129/146/346
f 123/140/319 122/139/320 131/148/347
f 131/148/347 122/139/320 130/147/348
f 124/141/323 123/140/324 132/149/349
f 132/149/349 123/140/324 131/148/350
f 124/141/326 132/149/351 125/142/328
f 125/142/328 132/149/351 133/150/352
f 126/143/331 125/142/332 134/151/353
f 134/151/353 125/142/332 133/150/354
f 126/143/334 134/151/355 127/144/336
f 127/144/336 134/151/355 135/152/356
f 128/145/340 127/144/338 136/153/357
f 136/153/357 127/144/338 135/152/358
f 129/146/346 64/130/359 130/147/345
f 130/147/345 64/130/359 70/131/360
f 131/148/347 130/147/348 76/132/361
f 76/132/361 130/147/348 70/131/362
f 132/149/349 131/148/350 62/133/363
f 62/133/363 131/148/350 76/132/364
f 132/149/351 62/133/365 133/150/352
f 133/150/352 62/133/365 72/134/366
f 134/151/353 133/150/354 74/135/367
f 74/135/367 133/150/354 72/134/368
f 135/152/356 134/151/355 68/136/369
f 68/136/369 134/151/355 74/135/370
f 136/153/357 135/152/358 66/137/371
f 66/137/371 135/152/358 68/136/372
