# This file uses centimeters as units for non-parametric coordinates.

v 8.435152 -202.494736 -1.788054
v 0.485077 420.956573 -8.232971
v 406.495392 -84.006676 105.251717
v 17.349220 -84.123177 -414.975739
v 417.146942 -72.320862 -129.320572
v 291.910461 -80.955421 -319.849213
v -257.724884 -83.301933 -334.820343
v 306.449280 -7.098062 106.693024
v -238.765503 -6.676020 -339.696686
v 20.712286 -13.570467 -424.044983
v 273.636505 -6.743258 -335.912872
v 399.201050 -2.397659 -127.529343
v 402.315887 -196.310181 -113.259842
v 276.850372 -178.747314 -289.308899
v 13.572939 -172.461487 -383.988403
v -255.854431 -172.854996 -316.469940
v 418.399933 -174.264008 116.771698
v -352.618530 -173.427658 -102.963791
v -385.239502 -83.003899 -123.471031
v -403.764404 -7.154154 -133.250107
v -314.689667 -172.894547 209.330017
v -339.910400 -84.064445 215.405975
v -352.105164 -8.053499 229.602829
v -43.647041 -168.762009 380.595184
v -44.749149 -79.798943 409.689972
v -48.772720 -5.888807 417.490997
v 248.749847 -171.718491 304.786194
v 267.188202 -82.887978 331.784973
v 303.772797 -6.892687 354.664734
v 18.119650 100.043327 -441.391266
v 269.279297 102.527740 -364.987213
v 434.871490 105.685867 -143.979279
v 451.724792 97.302261 115.578987
v 315.522583 100.733398 365.985443
v -12.687469 33.694427 128.577911
v -348.534119 100.552406 231.275391
v -401.226685 101.021606 -135.595917
v 10.924044 26.101845 114.217903
v 71.689285 24.131960 115.613190
v 71.086418 -2.132191 117.007446
v 13.044389 5.057083 116.386543
v 41.299694 11.211716 103.106850
v 54.041718 29.627575 117.781281
v 96.599770 10.031126 115.985046
v 41.683178 -1.162983 115.837097
v -9.355576 10.186073 115.771667
v 79.721756 18.892111 115.936981
v 74.075462 8.871971 103.095177
v 89.272507 -0.711336 117.418907
v 0.593832 21.087973 114.506378
v 6.730341 8.511021 103.576927
v -0.309752 3.913092 114.435944
v 16.578859 10.060705 102.873192
v 27.688416 25.630962 114.594704
v 29.447914 10.659893 102.994789
v 26.441820 -0.304840 115.119049
v 65.290268 8.985340 102.782944
v 62.774094 30.795315 118.059753
v 52.666958 12.411662 103.622383
v 57.052414 0.738153 117.233459
v 84.753868 13.824878 115.344093
v 88.951729 9.506931 115.873352
v 93.531593 2.630674 116.832237
v -9.226428 17.795216 114.861687
v -3.077693 8.054363 103.484207
v -5.072983 5.969638 114.592247
v -114.452209 16.510099 -22.314274
v -115.799896 23.445993 -18.063513
v -101.091476 17.477106 -16.618607
v -107.071709 34.216782 41.193539
v -105.656883 35.202705 49.837700
v -89.557632 21.538116 35.602386
v -91.340660 20.604498 24.338764
v -98.225960 6.557595 42.021515
v -99.907616 5.218385 26.621607
v -111.257248 12.746892 -18.689285
v -83.260231 18.127579 56.092472
v -96.664032 24.215021 65.063232
v -93.623093 19.467867 69.486748
v -92.021820 15.140457 73.392670
v -90.059052 8.232152 77.587906
v -90.692223 4.886986 73.337997
v -113.890968 27.272535 -12.150732
v -112.599747 32.101761 -1.809168
v -96.436249 19.734425 0.135899
v -98.924171 18.120409 -9.408524
v -108.578979 11.251659 -0.720290
v -109.483627 10.778134 -14.226046
v -109.017570 31.428385 14.565265
v -93.783615 20.187357 12.735287
v -102.926308 6.346876 11.682897
v -84.994537 18.383532 47.477554
v -99.573578 29.399874 57.531067
v -94.064316 3.760178 55.441586
v -90.526749 15.560563 80.900505
v -49.581150 29.938286 -99.012505
v -44.397053 26.001141 -98.414925
v -36.614918 27.498064 -87.380005
v 24.181204 10.649766 -133.061951
v 32.010406 11.203436 -136.139145
v 19.868780 21.168493 -87.202789
v 6.899671 17.736006 -64.574074
v 21.519739 28.749510 -102.105377
v 6.795065 31.121660 -97.789246
v -49.943069 36.760338 -110.432854
v 40.914787 22.294977 -91.177124
v 54.895042 17.649330 -130.218369
v 48.871273 17.780420 -104.982971
v 52.896717 20.539881 -106.603317
v 56.753719 23.507605 -108.850273
v 52.972168 27.683681 -108.806000
v -48.050301 24.952629 -123.039772
v -33.541515 18.934563 -125.150597
v -15.224535 25.179878 -79.412422
v -24.976515 26.890455 -78.230293
v -18.093323 32.350864 -93.185791
v -30.483713 34.344986 -88.761467
v -10.153013 17.841776 -130.518829
v -1.802459 18.608547 -62.735638
v -7.958717 31.521246 -93.992661
v 32.392853 22.791452 -89.111572
v 45.055122 13.663592 -127.397903
v 35.296036 29.872576 -104.861588
v 55.211739 18.268953 -108.660477
v 416.619202 40.014713 -135.561966
v 271.604492 33.406029 -349.471954
v 12.056794 14.671846 -253.955688
v 159.624207 0.542216 -201.653641
v 412.413422 24.882517 -133.622421
v 18.757311 67.117531 -437.124939
v 408.288239 10.040106 -131.720016
v 415.487610 18.628895 -103.264816
v 449.420898 102.925552 -48.461929
v -60.060341 13.247713 -100.006813
v -178.601379 181.722778 -386.739380
v -161.193512 57.238052 -81.450630
v -361.645508 -7.887407 162.591644
v -350.540955 28.131536 230.335419
v -124.690773 6.241691 19.380566
v -366.383484 100.711349 106.999496
v -129.234161 21.068243 -14.847242
v -379.266724 112.227081 11.911171
v -376.511536 166.763718 54.408821
v -379.190247 -7.581970 39.357903
v -28.718493 40.332203 148.154953
v -225.161316 -7.147581 308.233521
v -58.585678 30.721821 116.921783
v -201.813126 144.189758 331.273193
v -280.750580 -7.544287 273.800781
v -280.531952 74.216797 285.784882
v -267.722565 100.822243 279.865692
v -215.949936 48.031349 217.541260
v -187.804245 111.173111 340.411621
v -160.849579 144.326538 355.903717
v -156.131363 186.704544 360.289795
v 210.475433 13.647770 41.891869
v 307.981842 18.660767 358.720062
v 327.241150 27.288403 83.605171
v 490.763428 -52.335827 -4.747922
v -199.384384 -161.050705 -210.281067
v 89.303871 -156.292938 -246.031143
v 87.777603 -110.213898 -256.767975
v -198.886063 -151.536438 -211.228745
v -60.464840 -56.437996 -247.831955
v -58.712624 -153.865753 -232.063110
v -105.338379 -69.584244 -239.826157
v -122.992630 -151.920868 -227.095123
v -19.598698 -71.506874 -248.469589
v 3.908417 -155.760437 -236.902863
v -136.751389 -76.405678 -235.445709
v -142.488693 -151.330994 -225.588364
v 7.223458 -58.793530 -259.106720
v 30.746948 -156.572479 -238.977112
v 35.693554 -70.926796 -259.177032
v 43.266327 -156.951263 -239.944672
v -71.187790 -57.790413 -246.328644
v -60.640694 -67.753784 -246.081406
v -50.700539 -59.080257 -248.208740
v 3.122702 -59.390297 -257.845093
v 8.327571 -62.839890 -258.278107
v 11.369769 -59.196823 -259.422852
v -32.710670 -67.559929 -248.084808
v -16.029503 -87.405472 -246.123703
v -10.447536 -67.649200 -252.086273
v 77.210739 -114.520401 -74.764313
v 43.339188 -114.944641 -84.867096
v 45.278000 -95.054665 -85.217346
v 85.384224 -43.903717 -72.896309
v 125.560966 -38.587494 -15.706520
v 121.193657 -46.251572 -21.368042
v 121.652100 -36.821983 -21.389496
v 148.232086 -120.608353 20.551567
v 140.778076 -119.969383 10.547874
v 137.509827 -50.466942 2.608711
v 148.953934 -57.999126 19.029503
v 117.804916 -38.456257 -26.405983
v 151.393051 -125.662857 54.268780
v 151.502045 -117.203972 54.328018
v 94.791061 -40.929329 -55.404282
v 92.793274 -43.475739 -58.340656
v 93.482414 -40.158478 -57.886536
v 91.894669 -40.252182 -60.033512
v 116.201233 -117.862671 -22.436226
v 110.478043 -44.485142 -35.549061
v 103.125778 -60.050354 -44.095928
v 105.277222 -47.014320 -42.260338
v 102.586151 -43.173370 -47.974190
v 81.997513 -114.930763 -68.340614
v 92.258965 -115.810287 -54.568939
v -13.603104 -110.625290 -101.590607
v -5.107869 -47.318687 -106.529900
v -46.882500 -93.080276 -80.013565
v -48.291424 -108.688347 -78.667580
v 57.974411 -43.355747 -96.268547
v 51.760075 -41.791668 -97.278008
v 51.355095 -50.145412 -96.957726
v 95.568985 -116.018646 -88.312241
v 95.506088 -60.552658 -89.765175
v 77.414642 -53.879841 -92.581749
v 84.110916 -115.452583 -89.705795
v 45.915352 -43.239483 -97.903755
v 107.558434 -116.610931 -86.853912
v 108.287949 -73.419800 -87.056236
v 14.495567 -40.500381 -104.283127
v 12.142189 -39.817478 -104.990562
v 11.304430 -42.756264 -104.819313
v 9.693943 -39.900494 -105.297661
v 46.332008 -113.586227 -94.300903
v 34.977554 -48.580517 -98.833656
v 27.109455 -50.821136 -99.634743
v 24.297390 -62.369858 -99.366493
v 21.983215 -47.418407 -101.477997
v -6.245247 -110.988831 -100.695961
v 9.528351 -111.768013 -98.777397
v 101.889969 -126.453941 0.173172
v 103.463211 -61.232563 7.534307
v 109.953697 -108.515640 -26.447124
v 113.941368 -123.140923 -27.159004
v 77.092613 -50.521034 72.358063
v 79.869987 -48.755524 66.044464
v 79.610619 -58.185112 65.665855
v 58.179718 -132.541885 110.710770
v 59.853912 -69.932663 110.524117
v 67.800400 -62.400482 92.153961
v 62.767197 -131.902924 99.109436
v 82.112961 -50.389797 60.133888
v 28.033684 -112.808563 166.371170
v 28.035812 -110.213593 166.409164
v 95.244247 -55.069092 24.917664
v 96.667068 -54.298241 22.499046
v 96.690811 -57.615501 21.674084
v 97.657944 -54.391945 20.019405
v 77.893173 -129.796204 60.857964
v 86.035355 -56.418682 49.093319
v 89.007774 -58.947861 41.140053
v 89.437325 -71.983894 38.344776
v 92.451942 -55.106911 35.845932
v 98.944366 -126.864304 7.623062
v 92.628891 -127.743828 23.594002
v 41.155125 -131.755325 99.283432
v 45.027336 -85.260895 86.488083
v 70.207207 -124.529449 62.560452
v 70.765404 -132.284073 62.134651
v -37.014084 -57.742962 97.518547
v -30.181831 -55.792976 97.977333
v -29.678894 -65.220070 97.908585
v -77.440430 -140.904587 95.089104
v -78.249481 -78.279839 94.601303
v -58.474014 -70.218033 95.732727
v -64.993393 -139.944336 95.529266
v -23.823425 -57.265579 98.175476
v -90.464951 -141.909363 94.628326
v -92.324951 -93.203011 93.343651
v 26.895496 -68.628525 81.871841
v 29.629726 -67.773308 82.382767
v 30.497120 -71.076591 82.236618
v 32.299244 -67.797760 82.493973
v -23.953476 -136.778229 96.980743
v -11.962029 -63.000290 98.388924
v -3.413261 -65.313408 98.623024
v -0.314056 -78.287201 98.514267
v 2.628204 -61.276909 99.983238
v 33.162277 -132.371994 99.001068
v 16.027092 -133.693832 98.394989
v -93.442825 -116.641121 -18.188190
v -96.668625 -30.791924 -28.045368
v -98.451530 -124.351280 50.587017
v -100.944038 -116.775993 19.923931
v -43.837444 -36.175690 -83.148300
v -48.179810 -34.406731 -77.790436
v -48.449135 -43.843086 -77.688690
v -26.374952 -116.564949 -116.142067
v -26.008001 -47.350628 -112.986427
v -37.692348 -38.300491 -98.499847
v -33.973278 -116.560478 -106.246429
v -52.046349 -36.051098 -72.792130
v -18.424047 -116.569633 -126.496674
v -4.726716 -71.473907 -118.938217
v -83.437645 -23.073677 -44.696880
v -85.441376 -22.283028 -42.740299
v -85.838722 -25.611816 -42.071903
v -87.085442 -22.379318 -40.636234
v -59.026112 -116.545753 -73.619141
v -66.895416 -32.322273 -61.976559
v -72.068810 -34.866879 -55.249844
v -73.828690 -47.920990 -53.145222
v -76.676849 -30.968918 -50.982067
v -88.563873 -116.644005 -24.542820
v -78.103638 -116.650154 -38.165558
v -94.529320 -126.877327 108.333580
v -102.922203 -55.938850 99.338066
v -75.148956 -113.009407 149.188660
v -74.616768 -118.181000 149.629669
v -128.322479 -56.776741 33.933975
v -125.827003 -54.495163 40.199677
v -125.342163 -63.886303 41.035805
v -141.782761 -141.814850 0.119919
v -143.058441 -79.304344 -3.562614
v -135.711151 -70.285492 14.382362
v -136.823303 -140.247101 11.477379
v -123.226639 -55.655064 46.075905
v -146.972137 -143.455307 -11.764442
v -147.679749 -94.897369 -16.128510
v -111.541344 -49.850433 79.324463
v -110.839447 -48.862843 81.970268
v -110.260887 -52.119621 82.832878
v -109.785919 -48.756737 84.423454
v -120.471359 -135.077972 48.924583
v -118.169746 -60.802746 57.101044
v -114.637177 -62.695015 65.002182
v -112.917213 -75.501556 68.314354
v -113.341614 -58.368763 70.854279
v -97.714310 -127.884102 101.040604
v -104.541672 -130.042252 85.405388
v 189.215057 -160.872620 -93.201111
v 233.338013 -163.525970 -46.831509
v 234.613083 -156.297302 -47.995373
v 200.645111 -74.773270 -110.044418
v 120.648972 -58.462700 -181.429688
v 127.203773 -68.727020 -173.539886
v 128.897842 -57.431103 -174.361328
v 55.761002 -149.772812 -222.852325
v 69.767761 -150.937790 -209.244675
v 92.916428 -69.221893 -202.942154
v 66.759689 -88.116920 -215.679169
v 135.574615 -60.358257 -167.338654
v 12.382177 -151.398056 -227.957291
v 10.083370 -141.163742 -222.739151
v 178.380951 -62.287231 -133.371063
v 182.066284 -65.889091 -129.818161
v 182.052368 -61.817036 -131.120789
v 185.021454 -62.342491 -128.228973
v 115.949181 -154.778854 -164.379272
v 147.177856 -69.356651 -153.924103
v 156.271851 -89.667603 -140.480988
v 156.043503 -73.685310 -144.420746
v 160.972717 -75.680611 -138.853165
v 180.220657 -160.124527 -101.939247
v 160.938766 -158.520782 -120.671753
v 201.810242 -170.379578 181.269470
v 178.112152 -171.913940 221.181702
v 188.134705 -126.406532 229.518906
v 222.806229 -85.188057 192.627823
v 279.036438 -67.056023 101.684631
v 272.176239 -77.418335 109.176697
v 273.600769 -66.221115 111.109444
v 305.557434 -156.440277 27.046204
v 294.668640 -157.903275 43.232773
v 294.896301 -77.100105 70.137497
v 310.798523 -82.400650 42.361206
v 267.817627 -69.276840 118.834930
v 282.715393 -150.756790 -38.772846
v 283.462952 -138.375656 -36.702076
v 242.076355 -72.274338 166.983612
v 239.147430 -75.951675 171.115982
v 240.538086 -71.910034 171.016602
v 238.214981 -72.498222 174.438904
v 258.767212 -162.726944 96.601318
v 256.469482 -78.469734 132.335571
v 244.329147 -98.859062 142.958191
v 248.602783 -82.964981 142.609711
v 245.834808 -79.671494 152.263519
v 208.802536 -169.440125 170.875259
v 223.792343 -167.426117 148.592560
v -194.874451 -171.619324 125.574730
v -233.648788 -167.623444 75.224167
v -234.030579 -162.226349 75.821739
v -197.327591 -84.095772 138.265427
v -115.649292 -72.682076 208.690155
v -123.268311 -82.585342 201.311279
v -123.792023 -71.148964 201.589828
v -60.199127 -168.080582 254.387131
v -74.334076 -168.451981 240.867584
v -89.033508 -85.188080 230.663834
v -65.422028 -92.521225 251.669113
v -130.775970 -73.708237 194.723907
v -12.697456 -158.748383 281.978699
v -13.180980 -142.662415 279.949310
v -173.760681 -72.858345 160.938004
v -177.816895 -76.228935 157.567032
v -177.378326 -72.122200 158.672012
v -180.403122 -72.478004 155.812225
v -120.938110 -169.676559 196.292389
v -143.320862 -82.100006 181.771652
v -154.527969 -101.990372 169.332764
v -152.640594 -85.945862 172.497955
v -161.109222 -81.708107 167.804382
v -185.797684 -171.380844 134.256393
v -166.339462 -170.869522 152.867676
v -190.706879 -161.361298 -166.349213
v -117.593277 -151.659409 -196.098618
v -118.410271 -143.347366 -196.124222
v -201.150574 -73.605904 -162.182266
v -245.026398 -64.231087 -63.448853
v -240.401764 -73.949760 -73.181824
v -240.502441 -62.498539 -73.226395
v -275.633911 -160.954254 -0.427963
v -266.720398 -160.996964 -17.842346
v -258.837280 -77.403053 -32.089584
v -272.434021 -85.304749 -3.713730
v -235.985687 -64.896370 -81.962219
v -280.413635 -157.395416 87.119812
v -277.966400 -146.512054 95.139275
v -215.845230 -62.924088 -132.759598
v -213.864792 -66.188675 -137.719131
v -214.685120 -62.084267 -136.847641
v -212.817230 -62.368908 -140.573822
v -237.331604 -161.137817 -75.258972
v -227.383667 -73.005188 -97.956253
v -219.209381 -92.646072 -112.901756
v -221.261292 -76.637115 -109.659973
v -219.061600 -72.148605 -118.972290
v -196.430771 -161.333878 -155.166489
v -208.701385 -161.275040 -131.193756
v -19.659790 -174.287354 243.501678
v -70.585945 -159.564743 233.353897
v -70.488396 -150.744125 234.511063
v -16.536125 -91.202209 250.055740
v 91.760132 -71.875946 235.082886
v 81.533356 -82.101204 236.277344
v 81.073273 -70.677521 236.933395
v 168.714157 -169.198135 216.400330
v 145.660065 -165.980270 222.697968
v 125.960510 -83.308350 228.207047
v 157.359589 -89.661545 223.085251
v 71.422546 -73.537041 238.006042
v 185.246887 -176.205994 206.572525
v 201.606522 -162.206116 169.065582
v 18.094177 -74.378746 250.058884
v 13.024353 -77.910858 251.058670
v 14.033951 -73.774071 251.441788
v 9.919678 -74.258072 251.982971
v 81.743195 -169.192001 230.741241
v 53.721558 -82.478363 239.517624
v 37.609924 -102.870583 240.240662
v 40.769501 -86.726868 240.876099
v 31.662613 -82.786240 244.514832
v -7.211014 -173.661835 241.935196
v 19.475830 -172.320847 238.576965
v 330.719910 -161.032242 -51.524139
v 355.364075 -174.675247 19.131191
v 356.064178 -166.063110 19.101101
v 335.920929 -72.836487 -56.204422
v 293.780762 -58.099216 -156.582458
v 297.494507 -68.496132 -147.165375
v 297.724213 -57.068401 -146.460373
v 269.781372 -148.461319 -227.225876
v 276.177246 -149.780701 -208.784973
v 281.933716 -67.437698 -187.819260
v 266.621704 -83.679413 -216.950851
v 300.874725 -60.103237 -137.331970
v 217.796570 -145.775299 -269.059845
v 215.968964 -139.225647 -270.105988
v 324.440094 -62.682800 -83.360275
v 326.611725 -66.281898 -78.722397
v 326.596497 -62.107845 -79.647690
v 327.989014 -62.663513 -75.748138
v 297.264923 -154.130829 -147.983856
v 307.740295 -67.789619 -119.401543
v 312.647736 -88.503876 -104.475487
v 311.907440 -72.276855 -107.147980
v 317.154663 -68.379906 -98.842224
v 326.612854 -160.184998 -63.366104
v 317.808197 -158.368698 -88.751984
v 18.741276 -73.260406 -44.957745
v 20.156178 -29.378807 -45.911629
v -9.086624 -52.437614 -59.614506
v -9.268314 -70.300270 -58.766926
v 44.636723 -25.006468 -32.446850
v 42.137619 -24.090836 -33.777092
v 42.296104 -29.859066 -33.684433
v 62.308376 -74.096931 -23.489250
v 60.016998 -35.878727 -24.226471
v 52.629017 -31.754168 -28.053085
v 57.735786 -74.009148 -25.742439
v 39.870319 -25.242983 -34.887192
v 67.092926 -74.188774 -21.131500
v 65.495987 -44.414680 -21.205925
v 27.651596 -24.163923 -42.131279
v 26.748533 -23.752142 -42.770317
v 26.507471 -25.800859 -42.814884
v 25.781975 -23.873800 -43.255180
v 42.659481 -73.719681 -33.171654
v 35.709682 -29.213873 -36.858524
v 32.664478 -30.966074 -38.335106
v 31.975266 -39.000603 -38.608311
v 30.655926 -28.747372 -39.857018
v 21.677631 -73.316841 -43.510967
v 27.972340 -73.437645 -40.409073
v -38.382008 -89.146057 -13.347406
v -43.319065 -35.619392 -37.022739
v -42.449867 -84.949303 -0.119012
v -40.433052 -91.378563 -5.793641
v -17.405107 -31.540159 -47.598824
v -20.161882 -30.643124 -46.928814
v -19.475176 -36.158981 -45.376411
v 1.024355 -89.122803 -38.095318
v 1.342480 -44.306759 -48.873562
v -7.927582 -38.022636 -48.010078
v -3.911218 -88.833130 -37.144073
v -22.417452 -31.701048 -45.706699
v 15.844275 -88.302895 -33.210205
v 23.070269 -67.883141 -34.061394
v -35.907227 -30.749239 -41.383190
v -37.024857 -30.387966 -41.265545
v -37.041016 -32.323963 -40.552105
v -38.027550 -30.488531 -40.854889
v -14.747776 -88.419861 -32.517323
v -26.690483 -35.410316 -44.403820
v -29.691433 -37.023376 -42.696125
v -29.649914 -44.677731 -40.144173
v -32.365227 -34.999420 -42.861900
v -35.439442 -88.396553 -23.499725
v -30.078671 -88.299500 -26.786636
v -30.807636 -42.481815 -107.222427
v -25.453587 -55.193871 -114.499870
v -21.583189 -50.455818 -115.063477
v 87.068321 -42.509453 -70.784416
v 85.453209 -46.652775 -73.478455
v 84.226738 -45.189529 -73.893799
v -213.310852 62.252972 9.448027
v -206.598877 56.035484 -45.422283
v -211.262878 61.779556 61.435452
v -186.223923 32.722900 89.825066
v -203.416000 1.547475 66.960648
v -229.109695 0.569963 27.577093
v -183.102875 15.530404 -38.080421
v 417.627502 217.850662 88.353340
v 297.495758 220.991516 344.441711
v -40.645126 225.280609 400.760437
v -41.683327 225.271103 401.447266
v -66.503853 227.990997 407.624512
v -142.264313 226.700104 358.690735
v -188.565460 224.882385 327.579651
v -260.118286 227.144592 279.604462
v -350.460114 226.605194 221.295731
v -366.277313 225.393234 124.139442
v -385.974335 228.477615 5.272398
v -408.130829 215.708954 -135.597351
v -210.965576 122.982025 -98.101433
v -294.508148 218.285950 -257.072388
v -208.400574 226.903397 -377.141418
v -149.855209 229.295578 -392.587402
v 17.602737 224.901657 -437.128998
v 261.966614 223.492096 -361.081512
v 415.329895 227.988647 -135.116348
v -137.078064 -200.887466 -45.282970
v -99.395592 -201.447144 -128.750534
v 14.724357 -201.959091 -150.544952
v 125.188759 -201.913467 -108.008377
v 150.782318 -203.144226 -10.578756
v 148.435699 -202.871765 46.271183
v 97.273132 -202.061386 114.252441
v -9.120901 -200.977921 152.249786
v -99.937714 -201.744919 71.704773
vt 0.561470 0.006463
vt 0.768662 0.992653
vt 0.313530 0.993371
vt 0.608448 0.497127
vt 0.465554 0.500000
vt 0.904744 0.500000
vt 0.685149 0.500000
vt 0.218389 0.500000
vt 0.608448 0.747127
vt 0.222101 0.750000
vt 0.472145 0.750000
vt 0.688686 0.768285
vt 0.904744 0.763191
vt 0.904744 0.225714
vt 0.681854 0.250000
vt 0.458963 0.250000
vt 0.216788 0.272372
vt 0.988728 0.271571
vt 0.008374 0.271602
vt 0.005869 0.500000
vt 0.006452 0.750000
vt 0.145165 0.993371
vt 0.918286 0.271572
vt 0.913899 0.500000
vt 0.905196 0.750000
vt 0.697903 0.993371
vt 0.080364 0.271571
vt 0.072097 0.500000
vt 0.067036 0.750000
vt 0.230410 0.993371
vt 0.833633 0.271571
vt 0.842311 0.500000
vt 0.833715 0.750000
vt 0.477271 0.944472
vt 0.690855 0.932834
vt 0.904745 0.936662
vt 0.608448 0.943331
vt 0.824753 0.965381
vt 0.085290 0.930404
vt 0.906718 0.933694
vt 0.009017 0.941078
vt 0.396429 0.829011
vt 0.635455 0.841744
vt 0.651174 0.771272
vt 0.395755 0.771787
vt 0.508262 0.800942
vt 0.506048 0.845052
vt 0.681181 0.804907
vt 0.510476 0.756832
vt 0.355946 0.799074
vt 0.653045 0.829474
vt 0.625021 0.800692
vt 0.668822 0.783310
vt 0.376332 0.817569
vt 0.402544 0.799741
vt 0.377086 0.781601
vt 0.434494 0.800104
vt 0.455233 0.837616
vt 0.472896 0.800540
vt 0.460189 0.763388
vt 0.599354 0.800747
vt 0.572290 0.843358
vt 0.557220 0.800837
vt 0.590297 0.765024
vt 0.672058 0.816113
vt 0.661805 0.804093
vt 0.674533 0.793997
vt 0.362751 0.809837
vt 0.373276 0.799408
vt 0.364774 0.788073
vt 0.529282 0.784703
vt 0.532084 0.789803
vt 0.536419 0.784862
vt 0.639701 0.816303
vt 0.666979 0.815500
vt 0.660773 0.795353
vt 0.640613 0.795403
vt 0.674395 0.778385
vt 0.641525 0.774503
vt 0.532917 0.779491
vt 0.688694 0.795284
vt 0.700235 0.808922
vt 0.708064 0.802591
vt 0.703842 0.796896
vt 0.709083 0.792113
vt 0.706732 0.787049
vt 0.537677 0.793466
vt 0.594560 0.808702
vt 0.610235 0.795006
vt 0.548471 0.785019
vt 0.594282 0.781589
vt 0.537987 0.776424
vt 0.618775 0.812779
vt 0.626049 0.795213
vt 0.620816 0.777609
vt 0.678125 0.795310
vt 0.692991 0.814735
vt 0.699464 0.781345
vt 0.711821 0.797282
vt 0.523716 0.823436
vt 0.516315 0.834255
vt 0.504867 0.823772
vt 0.360464 0.869654
vt 0.288419 0.867951
vt 0.304809 0.825208
vt 0.358056 0.825314
vt 0.268834 0.789209
vt 0.355647 0.780974
vt 0.514115 0.812378
vt 0.231068 0.825062
vt 0.200589 0.853994
vt 0.179910 0.840564
vt 0.191061 0.828482
vt 0.177219 0.818333
vt 0.183429 0.807590
vt 0.501544 0.842027
vt 0.479686 0.853529
vt 0.438286 0.824472
vt 0.473035 0.824107
vt 0.480420 0.796007
vt 0.500724 0.805872
vt 0.415731 0.862179
vt 0.396520 0.824910
vt 0.410341 0.787564
vt 0.258983 0.825118
vt 0.219719 0.866328
vt 0.202624 0.795489
vt 0.169988 0.829300
vt 0.904744 0.847898
vt 0.689697 0.845024
vt 0.474315 0.832340
vt 0.689114 0.800825
vt 0.904744 0.827444
vt 0.476011 0.896641
vt 0.904744 0.807383
vt 0.913074 0.818593
vt 0.929291 0.939876
vt 0.238887 0.851164
vt 0.292562 0.975001
vt 0.073412 0.976608
vt 0.739218 0.750000
vt 0.905863 0.830458
vt 0.511270 0.809649
vt 0.602626 0.936195
vt 0.261852 0.874917
vt 0.359552 0.938195
vt 0.479092 0.967092
vt 0.433982 0.750000
vt 0.178313 0.930777
vt 0.554429 0.750000
vt 0.389827 0.829115
vt 0.483952 0.932001
vt 0.708031 0.750000
vt 0.702895 0.829930
vt 0.690096 0.932826
vt 0.705313 0.792309
vt 0.440842 0.884879
vt 0.374146 0.931561
vt 0.363217 0.952965
vt 0.608448 0.809068
vt 0.830505 0.827155
vt 0.608448 0.847857
vt 0.608448 0.591993
vt 0.209127 0.013810
vt 0.446626 0.013810
vt 0.435278 0.190151
vt 0.211743 0.195655
vt 0.330612 0.192728
vt 0.320253 0.013810
vt 0.273137 0.194143
vt 0.251685 0.013810
vt 0.386068 0.191362
vt 0.387051 0.013810
vt 0.238410 0.194998
vt 0.230888 0.013810
vt 0.413584 0.190685
vt 0.415680 0.013810
vt 0.425985 0.190379
vt 0.429035 0.013810
vt 0.317349 0.193055
vt 0.329208 0.215777
vt 0.344513 0.192386
vt 0.409691 0.190781
vt 0.413705 0.200675
vt 0.415492 0.190638
vt 0.368928 0.191784
vt 0.386234 0.220318
vt 0.395876 0.191121
vt 0.423289 0.007145
vt 0.440881 0.007145
vt 0.429532 0.189334
vt 0.420239 0.189563
vt 0.311603 0.192238
vt 0.323462 0.214960
vt 0.324866 0.191911
vt 0.225142 0.007145
vt 0.245939 0.007145
vt 0.267391 0.193326
vt 0.232664 0.194182
vt 0.338767 0.191569
vt 0.203381 0.007145
vt 0.205998 0.194838
vt 0.403946 0.189964
vt 0.407960 0.199858
vt 0.407838 0.189868
vt 0.409746 0.189821
vt 0.314507 0.007145
vt 0.363182 0.190968
vt 0.380488 0.219501
vt 0.380322 0.190546
vt 0.390130 0.190304
vt 0.409935 0.007145
vt 0.381306 0.007145
vt 0.423289 0.007145
vt 0.420239 0.189563
vt 0.429532 0.189334
vt 0.440881 0.007145
vt 0.311603 0.192238
vt 0.324866 0.191911
vt 0.323462 0.214960
vt 0.225142 0.007145
vt 0.232664 0.194182
vt 0.267391 0.193326
vt 0.245939 0.007145
vt 0.338767 0.191569
vt 0.203381 0.007145
vt 0.205998 0.194838
vt 0.403946 0.189964
vt 0.407838 0.189868
vt 0.407960 0.199858
vt 0.409746 0.189821
vt 0.314507 0.007145
vt 0.363182 0.190968
vt 0.380322 0.190546
vt 0.380488 0.219501
vt 0.390130 0.190304
vt 0.409935 0.007145
vt 0.381306 0.007145
vt 0.425239 0.012993
vt 0.420239 0.189563
vt 0.429532 0.189334
vt 0.442830 0.012993
vt 0.311603 0.192238
vt 0.324866 0.191911
vt 0.323462 0.214960
vt 0.227092 0.012993
vt 0.232664 0.194182
vt 0.267391 0.193326
vt 0.247888 0.012993
vt 0.338767 0.191569
vt 0.205331 0.012993
vt 0.205998 0.194838
vt 0.403946 0.189964
vt 0.407838 0.189868
vt 0.407960 0.199858
vt 0.409746 0.189821
vt 0.316457 0.012993
vt 0.363182 0.190968
vt 0.380322 0.190546
vt 0.380488 0.219501
vt 0.390130 0.190304
vt 0.411884 0.012993
vt 0.383255 0.012993
vt 0.423289 0.009094
vt 0.420239 0.189563
vt 0.429532 0.189334
vt 0.440881 0.009094
vt 0.311603 0.192238
vt 0.324866 0.191911
vt 0.323462 0.214960
vt 0.225142 0.009094
vt 0.232664 0.194182
vt 0.267391 0.193326
vt 0.245939 0.009094
vt 0.338767 0.191569
vt 0.203381 0.009094
vt 0.205998 0.194838
vt 0.403946 0.189964
vt 0.407838 0.189868
vt 0.407960 0.199858
vt 0.409746 0.189821
vt 0.314507 0.009094
vt 0.363182 0.190968
vt 0.380322 0.190546
vt 0.380488 0.219501
vt 0.390130 0.190304
vt 0.409935 0.009094
vt 0.381306 0.009094
vt 0.423289 0.009094
vt 0.420239 0.189563
vt 0.429532 0.189334
vt 0.440881 0.009094
vt 0.311603 0.192238
vt 0.324866 0.191911
vt 0.323462 0.214960
vt 0.225142 0.009094
vt 0.232664 0.194182
vt 0.267391 0.193326
vt 0.245939 0.009094
vt 0.338767 0.191569
vt 0.203381 0.009094
vt 0.205998 0.194838
vt 0.403946 0.189964
vt 0.407838 0.189868
vt 0.407960 0.199858
vt 0.409746 0.189821
vt 0.314507 0.009094
vt 0.363182 0.190968
vt 0.380322 0.190546
vt 0.380488 0.219501
vt 0.390130 0.190304
vt 0.409935 0.009094
vt 0.381306 0.009094
vt 0.423289 0.012993
vt 0.420239 0.189563
vt 0.429532 0.189334
vt 0.440881 0.012993
vt 0.311603 0.192238
vt 0.324866 0.191911
vt 0.323462 0.214960
vt 0.225142 0.012993
vt 0.232664 0.194182
vt 0.267391 0.193326
vt 0.245939 0.012993
vt 0.338767 0.191569
vt 0.203381 0.012993
vt 0.205998 0.194838
vt 0.403946 0.189964
vt 0.407838 0.189868
vt 0.407960 0.199858
vt 0.409746 0.189821
vt 0.314507 0.012993
vt 0.363182 0.190968
vt 0.380322 0.190546
vt 0.380488 0.219501
vt 0.390130 0.190304
vt 0.409935 0.012993
vt 0.381306 0.012993
vt 0.429035 0.013810
vt 0.446626 0.013810
vt 0.435278 0.190151
vt 0.425985 0.190379
vt 0.317349 0.193055
vt 0.329208 0.215777
vt 0.330612 0.192728
vt 0.230888 0.013810
vt 0.251685 0.013810
vt 0.273137 0.194143
vt 0.238410 0.194998
vt 0.344513 0.192386
vt 0.209127 0.013810
vt 0.211743 0.195655
vt 0.409691 0.190781
vt 0.413705 0.200675
vt 0.413584 0.190685
vt 0.415492 0.190638
vt 0.320253 0.013810
vt 0.368928 0.191784
vt 0.386234 0.220318
vt 0.386068 0.191362
vt 0.395876 0.191121
vt 0.415680 0.013810
vt 0.387051 0.013810
vt 0.429035 0.013810
vt 0.446626 0.013810
vt 0.435278 0.190151
vt 0.425985 0.190379
vt 0.317349 0.193055
vt 0.329208 0.215777
vt 0.330612 0.192728
vt 0.230888 0.013810
vt 0.251685 0.013810
vt 0.273137 0.194143
vt 0.238410 0.194998
vt 0.344513 0.192386
vt 0.209127 0.013810
vt 0.211743 0.195655
vt 0.409691 0.190781
vt 0.413705 0.200675
vt 0.413584 0.190685
vt 0.415492 0.190638
vt 0.320253 0.013810
vt 0.368928 0.191784
vt 0.386234 0.220318
vt 0.386068 0.191362
vt 0.395876 0.191121
vt 0.415680 0.013810
vt 0.387051 0.013810
vt 0.429035 0.013810
vt 0.446626 0.013810
vt 0.435278 0.190151
vt 0.425985 0.190379
vt 0.317349 0.193055
vt 0.329208 0.215777
vt 0.330612 0.192728
vt 0.230888 0.013810
vt 0.251685 0.013810
vt 0.273137 0.194143
vt 0.238410 0.194998
vt 0.344513 0.192386
vt 0.209127 0.013810
vt 0.211743 0.195655
vt 0.409691 0.190781
vt 0.413705 0.200675
vt 0.413584 0.190685
vt 0.415492 0.190638
vt 0.320253 0.013810
vt 0.368928 0.191784
vt 0.386234 0.220318
vt 0.386068 0.191362
vt 0.395876 0.191121
vt 0.415680 0.013810
vt 0.387051 0.013810
vt 0.429035 0.013810
vt 0.446626 0.013810
vt 0.435278 0.190151
vt 0.425985 0.190379
vt 0.317349 0.193055
vt 0.329208 0.215777
vt 0.330612 0.192728
vt 0.230888 0.013810
vt 0.251685 0.013810
vt 0.273137 0.194143
vt 0.238410 0.194998
vt 0.344513 0.192386
vt 0.209127 0.013810
vt 0.211743 0.195655
vt 0.409691 0.190781
vt 0.413705 0.200675
vt 0.413584 0.190685
vt 0.415492 0.190638
vt 0.320253 0.013810
vt 0.368928 0.191784
vt 0.386234 0.220318
vt 0.386068 0.191362
vt 0.395876 0.191121
vt 0.415680 0.013810
vt 0.387051 0.013810
vt 0.429035 0.013810
vt 0.446626 0.013810
vt 0.435278 0.190151
vt 0.425985 0.190379
vt 0.317349 0.193055
vt 0.329208 0.215777
vt 0.330612 0.192728
vt 0.230888 0.013810
vt 0.251685 0.013810
vt 0.273137 0.194143
vt 0.238410 0.194998
vt 0.344513 0.192386
vt 0.209127 0.013810
vt 0.211743 0.195655
vt 0.409691 0.190781
vt 0.413705 0.200675
vt 0.413584 0.190685
vt 0.415492 0.190638
vt 0.320253 0.013810
vt 0.368928 0.191784
vt 0.386234 0.220318
vt 0.386068 0.191362
vt 0.395876 0.191121
vt 0.415680 0.013810
vt 0.387051 0.013810
vt 0.429035 0.013810
vt 0.446626 0.013810
vt 0.435278 0.190151
vt 0.425985 0.190379
vt 0.317349 0.193055
vt 0.329208 0.215777
vt 0.330612 0.192728
vt 0.230888 0.013810
vt 0.251685 0.013810
vt 0.273137 0.194143
vt 0.238410 0.194998
vt 0.344513 0.192386
vt 0.209127 0.013810
vt 0.211743 0.195655
vt 0.409691 0.190781
vt 0.413705 0.200675
vt 0.413584 0.190685
vt 0.415492 0.190638
vt 0.320253 0.013810
vt 0.368928 0.191784
vt 0.386234 0.220318
vt 0.386068 0.191362
vt 0.395876 0.191121
vt 0.415680 0.013810
vt 0.387051 0.013810
vt 0.423289 0.009094
vt 0.420239 0.189563
vt 0.429532 0.189334
vt 0.440881 0.009094
vt 0.311603 0.192238
vt 0.324866 0.191911
vt 0.323462 0.214960
vt 0.225142 0.009094
vt 0.232664 0.194182
vt 0.267391 0.193326
vt 0.245939 0.009094
vt 0.338767 0.191569
vt 0.203381 0.009094
vt 0.205998 0.194838
vt 0.403946 0.189964
vt 0.407838 0.189868
vt 0.407960 0.199858
vt 0.409746 0.189821
vt 0.314507 0.009094
vt 0.363182 0.190968
vt 0.380322 0.190546
vt 0.380488 0.219501
vt 0.390130 0.190304
vt 0.409935 0.009094
vt 0.381306 0.009094
vt 0.423289 0.011044
vt 0.420239 0.189563
vt 0.429532 0.189334
vt 0.440881 0.011044
vt 0.311603 0.192238
vt 0.324866 0.191911
vt 0.323462 0.214960
vt 0.225142 0.011044
vt 0.232664 0.194182
vt 0.267391 0.193326
vt 0.245939 0.011044
vt 0.338767 0.191569
vt 0.203381 0.011044
vt 0.205998 0.194838
vt 0.403946 0.189964
vt 0.407838 0.189868
vt 0.407960 0.199858
vt 0.409746 0.189821
vt 0.314507 0.011044
vt 0.363182 0.190968
vt 0.380322 0.190546
vt 0.380488 0.219501
vt 0.390130 0.190304
vt 0.409935 0.011044
vt 0.381306 0.011044
vt 0.248111 0.193801
vt 0.231539 0.219277
vt 0.227855 0.194300
vt 0.418179 0.189613
vt 0.420393 0.198229
vt 0.420620 0.189553
vt 0.315402 0.909600
vt 0.141376 0.906443
vt 0.545513 0.857083
vt 0.625805 0.815689
vt 0.587003 0.789832
vt 0.479559 0.785176
vt 0.211737 0.850405
vt 0.608448 0.990379
vt 0.823497 0.995566
vt 0.091861 0.995355
vt 0.098266 0.995222
vt 0.149282 0.990111
vt 0.349321 0.989418
vt 0.474332 0.990509
vt 0.667961 0.994929
vt 0.907226 0.995030
vt 0.662859 0.994590
vt 0.363672 0.995960
vt 0.009683 0.990668
vt 0.049477 0.995242
vt 0.136438 0.997452
vt 0.265543 0.994932
vt 0.320770 0.995986
vt 0.478593 0.994582
vt 0.691637 0.992225
vt 0.904745 0.993238
vt 0.008170 0.007481
vt 0.214911 0.005437
vt 0.452495 0.004674
vt 0.678612 0.004077
vt 0.904745 0.003594
vt 0.977792 0.004209
vt 0.819880 0.006534
vt 0.098623 0.010602
vt 0.914704 0.006726
vn -0.455316 -0.472213 0.754787
vn -0.792865 -0.517200 0.322288
vn -0.244931 -0.969539 -0.001517
vn -0.328302 -0.889190 0.318684
vn -0.282612 -0.907901 0.309590
vn -0.282612 -0.907901 0.309590
vn -0.236211 -0.924324 0.299717
vn -0.005401 0.997469 0.070895
vn -0.014528 0.716746 0.697183
vn 0.050940 0.996956 0.059031
vn 0.523625 0.681084 0.511803
vn -0.035547 0.999254 -0.015086
vn -0.666447 0.729559 0.153596
vn -0.014354 0.998737 0.048141
vn -0.410360 0.775757 0.479380
vn 0.040490 -0.457196 0.888444
vn -0.834124 -0.544615 -0.087361
vn -0.556878 -0.598596 -0.575820
vn -0.029600 0.997914 -0.057372
vn -0.357808 0.755041 -0.549442
vn -0.054127 0.997792 -0.038494
vn -0.577217 0.785289 -0.223924
vn -0.279352 -0.957380 -0.073392
vn -0.636352 -0.125374 -0.761142
vn -0.896702 -0.412390 -0.160812
vn 0.582422 0.132836 0.801959
vn -0.019690 0.174960 0.984379
vn 0.497987 -0.452388 0.739834
vn -0.037877 -0.768638 0.638562
vn -0.617241 0.133786 0.775316
vn -0.632074 -0.197994 0.749187
vn -0.883227 0.208659 0.419966
vn -0.945219 0.093856 0.312654
vn -0.882563 0.335335 -0.329596
vn -0.470624 0.342353 -0.813208
vn 0.067992 0.997681 0.002973
vn 0.545598 0.837446 0.031725
vn 0.931008 0.275453 0.239477
vn 0.988298 -0.104544 0.111077
vn 0.145055 -0.713893 0.685066
vn 0.440096 -0.426006 0.790465
vn -0.212435 -0.012925 0.977090
vn 0.068621 0.997185 -0.030229
vn 0.471704 0.778270 -0.414477
vn 0.915363 0.240639 -0.322806
vn 0.517285 -0.847338 -0.120142
vn 0.751176 -0.654734 0.084013
vn 0.865094 -0.123783 -0.486098
vn 0.356366 -0.907261 -0.223338
vn 0.679473 -0.464168 -0.568211
vn 0.930514 -0.336690 -0.144163
vn 0.014132 0.996205 -0.085882
vn 0.096122 0.781424 -0.616553
vn 0.292259 0.213631 -0.932173
vn 0.438728 -0.305756 -0.845003
vn 0.269725 -0.619285 -0.737383
vn 0.008056 -0.688134 -0.725539
vn 0.255908 -0.891979 -0.372672
vn 0.435845 -0.613417 -0.658604
vn 0.435845 -0.613417 -0.658604
vn -0.286644 0.091824 -0.953627
vn -0.057535 0.982897 0.174938
vn -0.249542 0.911052 0.328197
vn 0.287640 0.921248 0.261848
vn 0.293006 0.916285 0.273073
vn -0.890069 0.292222 0.349834
vn -0.729616 0.607074 0.314836
vn -0.969617 0.244231 -0.013909
vn -0.943461 0.035622 0.329564
vn -0.946933 0.282529 0.153284
vn -0.890070 0.292221 0.349833
vn -0.425177 0.163429 -0.890233
vn -0.433170 0.367434 -0.823017
vn -0.733462 0.655594 -0.179526
vn -0.931264 0.238510 -0.275428
vn 0.141343 -0.066229 -0.987743
vn -0.655527 0.420372 -0.627353
vn -0.295819 0.744539 -0.598459
vn -0.219896 0.842202 -0.492283
vn 0.032238 0.946200 -0.321972
vn 0.972335 -0.027839 -0.231926
vn 0.414591 -0.029449 -0.909531
vn -0.852389 -0.367802 -0.371692
vn -0.892538 -0.038585 -0.449318
vn -0.852389 -0.367802 -0.371692
vn -0.060663 0.636917 -0.768542
vn 0.056435 -0.056240 -0.996821
vn -0.030953 0.632379 -0.774041
vn 0.024818 0.117750 -0.992733
vn 0.150761 -0.725865 -0.671111
vn 0.071961 -0.724850 -0.685138
vn -0.713345 -0.654345 -0.250941
vn 0.441665 0.081965 -0.893428
vn 0.597389 0.328318 -0.731665
vn 0.530272 0.517528 -0.671548
vn 0.493403 0.567146 -0.659469
vn -0.018387 -0.150092 -0.988501
vn 0.338482 -0.130328 -0.931904
vn -0.286510 0.544970 -0.787985
vn -0.215808 0.542541 -0.811835
vn -0.074430 -0.333562 -0.939785
vn -0.015167 -0.331923 -0.943185
vn 0.126084 -0.940437 -0.315724
vn 0.126703 -0.940266 -0.315984
vn 0.034646 0.585181 -0.810162
vn 0.006846 0.598301 -0.801242
vn -0.116849 -0.141426 -0.983029
vn 0.013714 -0.092506 -0.995618
vn -0.372383 -0.834392 -0.406351
vn -0.171011 -0.815658 -0.552682
vn 0.003854 -0.364395 -0.931237
vn -0.010447 0.617037 -0.786865
vn -0.010025 -0.740408 -0.672083
vn 0.033950 -0.106164 -0.993769
vn 0.235910 0.638110 -0.732914
vn 0.200627 -0.118930 -0.972422
vn 0.426442 0.612593 -0.665490
vn 0.075482 -0.789902 -0.608570
vn 0.043692 -0.788110 -0.613982
vn 0.181515 0.543715 -0.819406
vn 0.148235 0.579377 -0.801467
vn 0.021361 0.173058 -0.984680
vn -0.141729 -0.444930 -0.884279
vn -0.174513 -0.809054 -0.561228
vn -0.211795 -0.791928 -0.572707
vn 0.022191 -0.112078 -0.993452
vn 0.021452 -0.101060 -0.994649
vn 0.022191 -0.112078 -0.993452
vn 0.022927 -0.123082 -0.992132
vn -0.248558 0.665333 -0.703954
vn -0.136733 0.661838 -0.737071
vn -0.278531 -0.228044 -0.932961
vn 0.020463 -0.242560 -0.969921
vn -0.177145 -0.934546 -0.308616
vn -0.391625 -0.889027 -0.237196
vn 0.388735 0.048292 -0.920083
vn 0.296605 0.540259 -0.787493
vn 0.388735 0.048292 -0.920083
vn 0.537839 0.823186 -0.181920
vn 0.961887 0.218054 -0.165004
vn 0.550947 0.820116 -0.154490
vn 0.904810 0.384511 -0.182952
vn 0.855361 -0.515751 -0.048554
vn 0.850325 -0.510388 -0.128260
vn 0.376646 -0.456622 -0.805999
vn 0.915971 0.320021 0.242040
vn 0.734556 0.511662 0.445678
vn 0.612873 0.677690 0.406354
vn 0.580038 0.722371 0.376478
vn 0.961928 0.126028 -0.242512
vn 0.984775 0.127065 0.118632
vn 0.529066 0.741640 -0.412383
vn 0.568132 0.745330 -0.348870
vn 0.952104 -0.063374 -0.299134
vn 0.968327 -0.061284 -0.242048
vn 0.573505 -0.819137 -0.010286
vn 0.573844 -0.818907 -0.009726
vn 0.612208 0.784131 -0.101684
vn 0.594056 0.794508 -0.125920
vn 0.932124 0.133557 -0.336611
vn 0.960649 0.183140 -0.208836
vn 0.517056 -0.688865 -0.508053
vn 0.695005 -0.632246 -0.342392
vn 0.970050 -0.095915 -0.223166
vn 0.571690 0.808720 -0.138357
vn 0.823576 -0.528345 -0.206333
vn 0.967133 0.169356 -0.189666
vn 0.571549 0.812514 0.114688
vn 0.988393 0.150073 -0.023609
vn 0.558427 0.768202 0.313090
vn 0.796591 -0.593920 -0.112701
vn 0.793963 -0.590493 -0.144708
vn 0.665229 0.745748 0.036482
vn 0.631412 0.775378 0.010413
vn 0.881835 0.435533 -0.180772
vn 0.914274 -0.185198 -0.360285
vn 0.700470 -0.623536 -0.347196
vn 0.698219 -0.603662 -0.384814
vn 0.965727 0.163654 -0.201467
vn 0.963765 0.174580 -0.201688
vn 0.965727 0.163654 -0.201467
vn 0.967569 0.152707 -0.201222
vn 0.353468 0.729154 -0.585999
vn 0.455217 0.785796 -0.418691
vn 0.804080 0.003167 -0.594513
vn 0.957189 0.015078 -0.289070
vn 0.536011 -0.783639 -0.314011
vn 0.446670 -0.739456 -0.503677
vn -0.651476 0.113916 0.750068
vn -0.563003 -0.667312 0.487568
vn -0.651476 0.113916 0.750068
vn 0.160149 -0.958721 0.234962
vn 0.742904 -0.007589 0.669355
vn 0.201274 -0.962036 0.184324
vn 0.578270 -0.018590 0.815633
vn 0.271076 0.845462 0.460121
vn 0.257378 0.881903 0.394972
vn -0.292353 0.816877 0.497234
vn 0.642863 -0.046916 0.764543
vn 0.436413 -0.677945 0.591552
vn -0.050865 -0.957533 0.283802
vn -0.681200 -0.714647 -0.158892
vn 0.315976 0.276502 0.907582
vn 0.576034 0.235290 0.782831
vn -0.346697 -0.912298 0.217978
vn -0.248228 -0.946585 0.205817
vn 0.005473 -0.118680 0.992917
vn 0.095215 -0.138426 0.985785
vn 0.250684 0.866467 0.431732
vn 0.294863 0.845840 0.444534
vn -0.013946 -0.989946 0.140757
vn -0.271107 -0.956198 0.110392
vn -0.392556 -0.030489 0.919223
vn -0.758009 0.090876 0.645882
vn 0.108058 0.890831 0.441297
vn 0.039680 0.908916 0.415088
vn 0.184822 -0.188825 0.964462
vn -0.148287 -0.988261 0.036761
vn 0.143269 0.922010 0.359684
vn 0.227143 -0.121276 0.966281
vn 0.217543 -0.943566 0.249718
vn 0.507549 -0.040044 0.860692
vn 0.424987 -0.868388 0.255516
vn 0.201615 0.889604 0.409825
vn 0.178750 0.890011 0.419439
vn 0.043669 -0.976782 0.209740
vn 0.104722 -0.963709 0.245555
vn 0.115229 -0.734230 0.669051
vn 0.087923 0.599092 0.795839
vn 0.007976 0.911480 0.411267
vn -0.019650 0.902490 0.430262
vn 0.539950 -0.191941 0.819520
vn 0.500666 -0.242397 0.831010
vn 0.539950 -0.191941 0.819520
vn 0.576954 -0.140675 0.804571
vn 0.001817 -0.999105 0.042272
vn -0.431458 -0.706035 0.561567
vn -0.160996 -0.966991 0.197506
vn -0.648263 0.141418 0.748169
vn -0.522516 0.591749 0.613849
vn -0.554283 0.610491 0.565748
vn -0.661199 0.208448 0.720670
vn -0.582129 0.024564 0.812726
vn 0.410786 -0.881904 0.231301
vn 0.812852 -0.076126 0.577474
vn 0.885751 0.226744 0.405010
vn 0.731976 -0.341642 -0.589485
vn 0.909214 0.147767 -0.389224
vn 0.909214 0.147767 -0.389224
vn -0.025514 -0.993769 0.108499
vn -0.015107 -0.993120 0.116125
vn -0.887028 -0.219601 0.406149
vn -0.894590 0.291996 0.338299
vn -0.094961 0.154952 0.983348
vn -0.064423 0.027472 0.997544
vn 0.141741 -0.906900 0.396790
vn 0.233555 -0.553320 0.799555
vn 0.233555 -0.553320 0.799555
vn -0.753488 0.622139 0.212601
vn -0.946692 0.282871 0.154139
vn -0.723637 0.682092 -0.105359
vn -0.747142 0.546606 -0.378156
vn -0.946690 0.282877 0.154139
vn 0.075844 -0.996773 0.026308
vn 0.530138 0.808400 0.255820
vn 0.531675 0.808174 0.253330
vn 0.200995 -0.550905 0.810003
vn 0.314448 0.127968 0.940610
vn 0.786135 0.617238 -0.031760
vn 0.786135 0.617238 -0.031760
vn 0.288535 0.954409 0.076491
vn 0.410459 -0.675559 0.612489
vn 0.410459 -0.675559 0.612489
vn 0.410459 -0.675559 0.612489
vn 0.604656 0.758503 0.243033
vn 0.604656 0.758503 0.243033
vn 0.604656 0.758503 0.243033
vn 0.267496 -0.870714 -0.412677
vn 0.154801 -0.938362 -0.309052
vn 0.154801 -0.938362 -0.309052
vn 0.037770 -0.979722 -0.196770
vn 0.695511 0.430104 0.575565
vn 0.776117 0.614325 -0.142295
vn 0.279980 0.955467 -0.093239
vn 0.286570 0.955260 -0.073188
vn 0.970115 -0.209829 -0.121853
vn 0.990500 0.049832 -0.128165
vn 0.053445 -0.998520 -0.010084
vn 0.053445 -0.998520 -0.010084
vn 0.053445 -0.998520 -0.010084
vn 0.083351 -0.988879 -0.123171
vn -0.525979 -0.137580 -0.839296
vn 0.418445 -0.899839 -0.123266
vn -0.099027 0.894099 -0.436784
vn -0.134617 0.893534 -0.428341
vn -0.134617 0.893534 -0.428341
vn -0.170026 0.891772 -0.419325
vn 0.232832 -0.891207 -0.389281
vn 0.442433 -0.576384 -0.687048
vn 0.531109 -0.397982 -0.748020
vn -0.548584 -0.096237 -0.830538
vn -0.172918 0.853704 -0.491211
vn -0.172918 0.853704 -0.491211
vn -0.172918 0.853704 -0.491211
vn 0.517595 -0.167961 -0.838978
vn 0.560952 -0.209339 -0.800943
vn 0.928986 0.081547 -0.361019
vn 0.999470 -0.027469 -0.017462
vn 0.459178 -0.538589 -0.706455
vn -0.406470 -0.761633 -0.504676
vn -0.057335 -0.850302 -0.523164
vn 0.044584 -0.735909 -0.675611
vn 0.743780 -0.478071 -0.467161
vn 0.595382 -0.044717 -0.802198
vn 0.607757 -0.205387 -0.767103
vn 0.617468 -0.149489 -0.772260
vn 0.579365 -0.432623 -0.690778
vn 0.515275 0.006398 -0.857001
vn 0.515275 0.006398 -0.857001
vn 0.515257 -0.018534 -0.856835
vn 0.514972 0.031326 -0.856635
vn 0.278500 -0.889394 -0.362514
vn 0.456874 -0.613518 -0.644098
vn 0.531142 -0.458518 -0.712495
vn -0.205107 -0.874785 -0.438956
vn -0.247761 -0.065703 -0.966591
vn -0.178481 0.406405 -0.896091
vn -0.187871 -0.981534 -0.035988
vn -0.096870 -0.980591 -0.170463
vn -0.187871 -0.981534 -0.035988
vn -0.273918 -0.956599 0.099436
vn -0.104707 0.993990 -0.031942
vn -0.085161 0.992630 -0.086214
vn -0.104707 0.993990 -0.031942
vn -0.123906 0.992040 0.022437
vn -0.849165 0.526255 0.044444
vn 0.124361 0.229074 0.965432
vn 0.125472 0.228051 0.965531
vn 0.125472 0.228051 0.965531
vn 0.126583 0.227027 0.965627
vn 0.118691 0.149999 0.981536
vn 0.118691 0.149999 0.981536
vn 0.118691 0.149999 0.981536
vn 0.080191 0.123980 0.989039
vn 0.094826 0.126468 0.987428
vn 0.094826 0.126468 0.987428
vn 0.109440 0.128929 0.985596
vn 0.078941 0.151206 0.985345
vn 0.078941 0.151206 0.985345
vn 0.078941 0.151206 0.985345
vn 0.245599 0.083334 0.965783
vn 0.245283 0.095677 0.964719
vn 0.245283 0.095677 0.964719
vn 0.244930 0.108006 0.963506
vn 0.249377 0.259122 0.933095
vn 0.249377 0.259122 0.933095
vn 0.249377 0.259122 0.933095
vn 0.095773 0.224715 0.969707
vn 0.095773 0.224715 0.969707
vn 0.095773 0.224715 0.969707
vn 0.080420 0.135448 0.987515
vn 0.105376 0.148859 0.983228
vn 0.113679 0.153304 0.981619
vn 0.130245 0.162148 0.978133
vn 0.130246 0.162148 0.978133
vn 0.077813 0.162605 0.983618
vn 0.077813 0.162605 0.983618
vn 0.077813 0.162605 0.983618
vn 0.285039 0.202238 0.936938
vn 0.285039 0.202238 0.936938
vn 0.285039 0.202238 0.936938
vn 0.081835 0.224306 0.971077
vn 0.092473 0.223510 0.970305
vn 0.089815 0.223711 0.970508
vn 0.097787 0.223101 0.969878
vn 0.097788 0.223102 0.969878
vn 0.080810 0.156362 0.984389
vn 0.077825 0.158266 0.984325
vn 0.073655 0.160036 0.984359
vn 0.072163 0.160986 0.984315
vn 0.069484 0.161803 0.984374
vn 0.069481 0.161803 0.984374
vn 0.081780 0.219736 0.972125
vn 0.195723 0.226096 0.954240
vn 0.205382 0.211154 0.955632
vn 0.244475 0.251319 0.936521
vn 0.258888 0.220921 0.940304
vn 0.273113 0.206406 0.939577
vn -0.300858 0.018474 0.953490
vn -0.295953 0.027232 0.954814
vn -0.300858 0.018474 0.953490
vn -0.286053 0.044739 0.957169
vn -0.293490 0.031610 0.955440
vn -0.817226 0.041040 0.574854
vn -0.817226 0.041040 0.574854
vn -0.817226 0.041040 0.574854
vn -0.800917 0.023779 0.598303
vn -0.807523 0.025887 0.589268
vn -0.807523 0.025887 0.589268
vn -0.814024 0.027992 0.580156
vn -0.799156 0.040218 0.599776
vn -0.799156 0.040218 0.599776
vn -0.799156 0.040218 0.599776
vn -0.995390 0.012158 0.095140
vn -0.995387 0.012972 0.095058
vn -0.995387 0.012972 0.095058
vn -0.995384 0.013785 0.094976
vn -0.864170 0.112379 0.490491
vn -0.864170 0.112379 0.490491
vn -0.864170 0.112379 0.490491
vn -0.802835 0.086017 0.589963
vn -0.802835 0.086017 0.589963
vn -0.802835 0.086017 0.589963
vn -0.800558 0.030717 0.598467
vn -0.814831 0.042800 0.578116
vn -0.811321 0.039776 0.583246
vn -0.821733 0.048838 0.567775
vn -0.821735 0.048829 0.567775
vn -0.798083 0.047129 0.600702
vn -0.798083 0.047129 0.600702
vn -0.798083 0.047129 0.600702
vn -0.880203 0.079381 0.467913
vn -0.880203 0.079381 0.467913
vn -0.880203 0.079381 0.467913
vn -0.796307 0.085365 0.598839
vn -0.854437 0.081853 0.513066
vn -0.871859 0.080650 0.483072
vn -0.908940 -0.035211 0.415438
vn -0.907627 0.021413 0.419231
vn -0.906530 0.040130 0.420229
vn -0.799793 0.043418 0.598703
vn -0.796937 0.045092 0.602377
vn -0.798300 0.044472 0.600616
vn -0.794198 0.046326 0.605891
vn -0.795067 0.046061 0.604770
vn -0.794198 0.046328 0.605891
vn -0.800187 0.037123 0.598600
vn -0.793846 0.037513 0.606961
vn -0.802754 0.018966 0.596008
vn -0.659644 0.148226 0.736816
vn -0.746956 0.065695 0.661620
vn -0.760921 0.056396 0.646390
vn 0.541387 -0.007053 0.840744
vn 0.546786 0.007498 0.837239
vn 0.546786 0.007498 0.837239
vn 0.552046 0.022047 0.833522
vn -0.149107 0.045100 0.987792
vn -0.149107 0.045100 0.987792
vn -0.149107 0.045100 0.987792
vn -0.119433 0.025863 0.992505
vn -0.131075 0.028278 0.990969
vn -0.131075 0.028278 0.990969
vn -0.142698 0.030689 0.989290
vn -0.117051 0.043714 0.992163
vn -0.117051 0.043714 0.992163
vn -0.117051 0.043714 0.992163
vn -0.120415 0.006684 0.992701
vn -0.151587 0.016120 0.988313
vn -0.151587 0.016120 0.988313
vn -0.182595 0.025539 0.982857
vn -0.251390 0.127573 0.959441
vn -0.251390 0.127573 0.959441
vn -0.251390 0.127573 0.959441
vn -0.127038 0.093757 0.987457
vn -0.127038 0.093757 0.987457
vn -0.127038 0.093757 0.987457
vn -0.119048 0.033403 0.992326
vn -0.144955 0.047013 0.988321
vn -0.138489 0.043608 0.989403
vn -0.157858 0.053815 0.985994
vn -0.157860 0.053803 0.985995
vn -0.115570 0.051183 0.991980
vn -0.115570 0.051183 0.991980
vn -0.115570 0.051183 0.991980
vn -0.282881 0.091059 0.954823
vn -0.282881 0.091059 0.954823
vn -0.282881 0.091059 0.954823
vn -0.115667 0.092682 0.988955
vn -0.122183 0.092726 0.988167
vn -0.124357 0.092751 0.987893
vn -0.128703 0.092799 0.987332
vn -0.128699 0.092783 0.987334
vn -0.118309 0.047200 0.991854
vn -0.113509 0.048936 0.992331
vn -0.115803 0.048303 0.992097
vn -0.108919 0.050205 0.992782
vn -0.110378 0.049937 0.992634
vn -0.108919 0.050203 0.992782
vn -0.115894 0.089587 0.989213
vn -0.217172 0.091389 0.971846
vn -0.208661 0.100975 0.972761
vn -0.247584 0.121772 0.961184
vn -0.260533 0.101891 0.960073
vn -0.272857 0.092997 0.957549
vn -0.964977 0.052291 -0.257071
vn -0.936204 -0.085169 -0.340983
vn -0.936204 -0.085169 -0.340983
vn -0.882374 -0.220348 -0.415768
vn -0.918756 0.041038 -0.392688
vn -0.918756 0.041038 -0.392688
vn -0.918756 0.041038 -0.392688
vn -0.930120 0.023779 -0.366485
vn -0.925911 0.025887 -0.376855
vn -0.925911 0.025887 -0.376855
vn -0.921581 0.027992 -0.387176
vn -0.930448 0.040217 -0.364210
vn -0.930448 0.040217 -0.364210
vn -0.930448 0.040217 -0.364210
vn -0.878137 0.007723 -0.478347
vn -0.876863 0.014849 -0.480512
vn -0.876863 0.014849 -0.480512
vn -0.875538 0.021973 -0.482649
vn -0.871698 0.112379 -0.476984
vn -0.871698 0.112379 -0.476984
vn -0.871698 0.112379 -0.476984
vn -0.924037 0.086024 -0.372500
vn -0.924037 0.086024 -0.372500
vn -0.924037 0.086024 -0.372500
vn -0.930072 0.030717 -0.366091
vn -0.920270 0.042799 -0.388936
vn -0.922787 0.039776 -0.383252
vn -0.915106 0.048836 -0.400245
vn -0.915106 0.048828 -0.400246
vn -0.930670 0.047130 -0.362812
vn -0.930670 0.047130 -0.362812
vn -0.930670 0.047130 -0.362812
vn -0.860927 0.079381 -0.502497
vn -0.860927 0.079381 -0.502497
vn -0.860927 0.079381 -0.502497
vn -0.929263 0.063489 -0.363923
vn -0.912525 0.062282 -0.404250
vn -0.907453 0.055841 -0.416425
vn -0.896733 0.042936 -0.440483
vn -0.895429 0.051948 -0.442164
vn -0.929870 0.043418 -0.365318
vn -0.931492 0.045092 -0.360956
vn -0.930710 0.044472 -0.363043
vn -0.933040 0.046324 -0.356777
vn -0.932544 0.046060 -0.358107
vn -0.933040 0.046327 -0.356777
vn -0.929862 0.043858 -0.365285
vn -0.929602 0.043825 -0.365951
vn -0.925166 0.027216 -0.378586
vn -0.960084 0.135240 -0.244845
vn -0.943127 0.064983 -0.326018
vn -0.938753 0.057906 -0.339691
vn -0.768982 -0.109295 -0.629859
vn -0.776224 -0.065752 -0.627019
vn -0.776224 -0.065752 -0.627019
vn -0.781948 -0.022081 -0.622953
vn 0.063959 0.010689 -0.997895
vn 0.063959 0.010689 -0.997895
vn 0.063959 0.010689 -0.997895
vn 0.035904 -0.007320 -0.999328
vn 0.047028 -0.004922 -0.998881
vn 0.047028 -0.004922 -0.998881
vn 0.058146 -0.002524 -0.998305
vn 0.033240 0.009062 -0.999406
vn 0.033240 0.009062 -0.999406
vn 0.033240 0.009062 -0.999406
vn 0.037264 -0.024926 -0.998995
vn 0.066586 -0.015728 -0.997657
vn 0.066586 -0.015728 -0.997657
vn 0.095845 -0.006515 -0.995375
vn 0.157320 0.084840 -0.983897
vn 0.157320 0.084840 -0.983897
vn 0.157320 0.084840 -0.983897
vn 0.042062 0.055182 -0.997590
vn 0.042062 0.055182 -0.997590
vn 0.042062 0.055182 -0.997590
vn 0.035375 -0.000391 -0.999374
vn 0.059874 0.012344 -0.998130
vn 0.053753 0.009156 -0.998512
vn 0.072104 0.018717 -0.997221
vn 0.072106 0.018708 -0.997221
vn 0.031680 0.015946 -0.999371
vn 0.031680 0.015946 -0.999371
vn 0.031680 0.015946 -0.999371
vn 0.185764 0.052601 -0.981185
vn 0.185764 0.052601 -0.981185
vn 0.185764 0.052601 -0.981185
vn 0.233320 -0.052026 -0.971007
vn 0.105603 -0.196465 -0.974808
vn 0.130995 -0.159104 -0.978533
vn 0.040267 -0.265958 -0.963143
vn 0.054736 -0.269175 -0.961535
vn 0.034401 0.012297 -0.999332
vn 0.029708 0.013853 -0.999463
vn 0.031950 0.013290 -0.999401
vn 0.025225 0.014969 -0.999570
vn 0.026649 0.014743 -0.999536
vn 0.025224 0.014974 -0.999570
vn -0.556848 0.166590 -0.813737
vn -0.382141 -0.072682 -0.921241
vn -0.525240 0.013606 -0.850846
vn -0.167559 -0.218682 -0.961302
vn -0.003949 -0.249007 -0.968494
vn 0.054240 -0.261230 -0.963751
vn 0.988242 -0.108974 -0.107253
vn 0.998730 -0.025386 0.043512
vn 0.998730 -0.025386 0.043512
vn 0.979430 0.058960 0.192980
vn 0.774322 -0.015278 0.632608
vn 0.774322 -0.015278 0.632608
vn 0.774322 -0.015278 0.632608
vn 0.732365 -0.078740 0.676345
vn 0.732365 -0.078740 0.676345
vn 0.732365 -0.078740 0.676345
vn 0.793414 -0.016085 0.608470
vn 0.793414 -0.016085 0.608470
vn 0.793414 -0.016085 0.608470
vn 0.327458 -0.156652 0.931789
vn 0.327458 -0.156652 0.931789
vn 0.327458 -0.156652 0.931789
vn 0.708856 0.056561 0.703082
vn 0.708856 0.056561 0.703082
vn 0.708856 0.056561 0.703082
vn 0.786963 0.029807 0.616280
vn 0.786963 0.029807 0.616280
vn 0.786963 0.029807 0.616280
vn 0.790528 -0.081029 0.607042
vn 0.849474 -0.047956 0.525447
vn 0.799267 -0.075058 0.596270
vn 0.928712 0.007438 0.370726
vn 0.875581 -0.031076 0.482070
vn 0.794318 -0.009152 0.607433
vn 0.794318 -0.009152 0.607433
vn 0.794318 -0.009152 0.607433
vn 0.689989 0.023614 0.723435
vn 0.689989 0.023614 0.723435
vn 0.689989 0.023614 0.723435
vn 0.789287 0.099233 0.605953
vn 0.779628 0.098829 0.618396
vn 0.782184 0.075550 0.618450
vn 0.786008 0.028875 0.617542
vn 0.778405 0.063680 0.624525
vn 0.879510 0.048474 0.473406
vn 0.799482 -0.006751 0.600652
vn 0.734548 0.009320 0.678493
vn 0.607670 0.169216 0.775953
vn 0.661924 0.025282 0.749144
vn 0.699792 -0.090574 0.708582
vn 0.789727 0.093117 0.606351
vn 0.782376 0.084475 0.617051
vn 0.742023 0.078591 0.665751
vn 0.711585 0.051526 0.700709
vn 0.757180 0.070661 0.649373
vn 0.830248 0.068912 0.553118
vn 0.894900 0.054319 -0.442948
vn 0.895303 0.052131 -0.442398
vn 0.895303 0.052131 -0.442398
vn 0.895700 0.049943 -0.441845
vn 0.927102 0.014518 -0.374529
vn 0.927102 0.014518 -0.374529
vn 0.927102 0.014518 -0.374529
vn 0.916670 -0.004835 -0.399615
vn 0.921020 -0.001896 -0.389510
vn 0.921020 -0.001896 -0.389510
vn 0.925251 0.001043 -0.379354
vn 0.915233 0.011392 -0.402763
vn 0.915233 0.011392 -0.402763
vn 0.915233 0.011392 -0.402763
vn 0.917340 -0.022354 -0.397476
vn 0.928601 -0.011733 -0.370894
vn 0.928601 -0.011733 -0.370894
vn 0.938984 -0.001101 -0.343960
vn 0.953198 0.093148 -0.287641
vn 0.953198 0.093148 -0.287641
vn 0.953198 0.093148 -0.287641
vn 0.916401 0.057891 -0.396053
vn 0.916401 0.057891 -0.396053
vn 0.916401 0.057891 -0.396053
vn 0.916331 0.002059 -0.400416
vn 0.925515 0.015978 -0.378373
vn 0.923286 0.012494 -0.383911
vn 0.929841 0.022943 -0.367245
vn 0.929842 0.022933 -0.367243
vn 0.914376 0.018196 -0.404457
vn 0.914376 0.018196 -0.404457
vn 0.914376 0.018196 -0.404457
vn 0.963746 0.062336 -0.259439
vn 0.963746 0.062336 -0.259439
vn 0.963746 0.062336 -0.259439
vn 0.912081 0.056412 -0.406111
vn 0.914606 0.056732 -0.400346
vn 0.915440 0.056852 -0.398418
vn 0.917096 0.057091 -0.394557
vn 0.917095 0.057070 -0.394562
vn 0.915596 0.014685 -0.401831
vn 0.913652 0.016009 -0.406183
vn 0.914577 0.015556 -0.404112
vn 0.911786 0.016904 -0.410317
vn 0.912376 0.016749 -0.409010
vn 0.911786 0.016909 -0.410318
vn 0.912389 0.053569 -0.405804
vn 0.946156 0.059566 -0.318182
vn 0.943058 0.067669 -0.325672
vn 0.952718 0.087881 -0.290872
vn 0.957614 0.070879 -0.279199
vn 0.961263 0.063572 -0.268200
vn -0.697972 0.232186 0.677440
vn -0.698360 0.228878 0.678165
vn -0.698360 0.228878 0.678165
vn -0.698740 0.225568 0.678882
vn -0.654012 0.151974 0.741062
vn -0.654012 0.151974 0.741062
vn -0.654012 0.151974 0.741062
vn -0.694521 0.040321 0.718342
vn -0.590520 0.054198 0.805201
vn -0.590520 0.054198 0.805201
vn -0.475563 0.067069 0.877121
vn -0.683118 0.154358 0.713809
vn -0.683118 0.154358 0.713809
vn -0.683118 0.154358 0.713809
vn -0.085991 -0.467813 0.879634
vn -0.053311 -0.295395 0.953887
vn -0.053311 -0.295395 0.953887
vn -0.018695 -0.112251 0.993504
vn -0.528728 0.256975 0.808956
vn -0.528728 0.256975 0.808956
vn -0.528728 0.256975 0.808956
vn -0.658534 0.227248 0.717420
vn -0.658534 0.227248 0.717420
vn -0.658534 0.227248 0.717420
vn -0.684137 0.138575 0.716068
vn -0.664107 0.151231 0.732183
vn -0.657306 0.155424 0.737422
vn -0.643531 0.163766 0.747696
vn -0.643531 0.163764 0.747696
vn -0.682304 0.165772 0.712026
vn -0.682304 0.165772 0.712026
vn -0.682304 0.165772 0.712026
vn -0.710260 0.158901 0.685770
vn -0.710260 0.158901 0.685770
vn -0.710260 0.158901 0.685770
vn -0.668792 0.227262 0.707863
vn -0.661201 0.226148 0.715311
vn -0.663105 0.226432 0.713457
vn -0.657379 0.225575 0.719006
vn -0.657377 0.225582 0.719005
vn -0.681043 0.159451 0.714671
vn -0.682925 0.161441 0.712426
vn -0.685666 0.163332 0.709356
vn -0.686598 0.164324 0.708224
vn -0.688393 0.165220 0.706270
vn -0.688393 0.165219 0.706270
vn -0.669723 0.222701 0.708431
vn -0.529712 0.191808 0.826205
vn -0.601055 0.213144 0.770261
vn -0.490730 0.303531 0.816733
vn -0.453202 0.168635 0.875311
vn -0.469291 0.116564 0.875317
vn -0.832025 0.271837 -0.483569
vn -0.832804 0.270777 -0.482823
vn -0.832804 0.270777 -0.482823
vn -0.833581 0.269715 -0.482075
vn -0.842267 0.193973 -0.502953
vn -0.842267 0.193973 -0.502953
vn -0.842267 0.193973 -0.502953
vn -0.824705 0.169958 -0.539422
vn -0.832461 0.171760 -0.526790
vn -0.832461 0.171760 -0.526790
vn -0.840031 0.173525 -0.514040
vn -0.820650 0.196990 -0.536404
vn -0.820650 0.196990 -0.536404
vn -0.820650 0.196990 -0.536404
vn -0.944665 0.002178 0.328028
vn -0.944798 0.000686 0.327651
vn -0.944798 0.000686 0.327651
vn -0.944929 -0.000807 0.327274
vn -0.883558 0.295079 -0.363665
vn -0.883558 0.295079 -0.363665
vn -0.883558 0.295079 -0.363665
vn -0.817766 0.268854 -0.508898
vn -0.817766 0.268854 -0.508898
vn -0.817766 0.268854 -0.508898
vn -0.823489 0.181316 -0.537579
vn -0.835376 0.193461 -0.514509
vn -0.839187 0.197478 -0.506722
vn -0.846576 0.205455 -0.491016
vn -0.846577 0.205451 -0.491017
vn -0.818432 0.208320 -0.535510
vn -0.818432 0.208320 -0.535510
vn -0.818432 0.208320 -0.535510
vn -0.909449 0.237048 -0.341630
vn -0.909449 0.237048 -0.341630
vn -0.909449 0.237048 -0.341630
vn -0.810208 0.269107 -0.520715
vn -0.816195 0.267836 -0.511947
vn -0.814707 0.268158 -0.514143
vn -0.819152 0.267186 -0.507544
vn -0.819153 0.267189 -0.507541
vn -0.820982 0.202013 -0.534022
vn -0.819059 0.204032 -0.536204
vn -0.816481 0.205972 -0.539384
vn -0.815509 0.206978 -0.540468
vn -0.813886 0.207907 -0.542553
vn -0.813887 0.207908 -0.542552
vn -0.811062 0.264601 -0.521694
vn -0.867433 0.265382 -0.420870
vn -0.874711 0.250146 -0.415099
vn -0.883333 0.287667 -0.370097
vn -0.895645 0.256932 -0.363050
vn -0.904078 0.241829 -0.352366
vn 0.791014 0.122329 -0.599444
vn 0.791044 0.115889 -0.600682
vn 0.791044 0.115889 -0.600682
vn 0.791040 0.109445 -0.601895
vn 0.661615 0.048523 -0.748272
vn 0.661615 0.048523 -0.748272
vn 0.661615 0.048523 -0.748272
vn 0.690739 0.021746 -0.722777
vn 0.680001 0.024433 -0.732804
vn 0.680001 0.024433 -0.732804
vn 0.669112 0.027114 -0.742667
vn 0.690979 0.049208 -0.721198
vn 0.690979 0.049208 -0.721198
vn 0.690979 0.049208 -0.721198
vn 0.513610 -0.092182 -0.853057
vn 0.496008 -0.045471 -0.867127
vn 0.496008 -0.045471 -0.867127
vn 0.477071 0.001362 -0.878864
vn 0.547311 0.162455 -0.821011
vn 0.547311 0.162455 -0.821011
vn 0.547311 0.162455 -0.821011
vn 0.673968 0.123976 -0.728284
vn 0.673968 0.123976 -0.728284
vn 0.673968 0.123976 -0.728284
vn 0.690361 0.033312 -0.722698
vn 0.671634 0.047170 -0.739380
vn 0.665267 0.051786 -0.744807
vn 0.652356 0.061000 -0.755454
vn 0.652356 0.060995 -0.755455
vn 0.691356 0.060706 -0.719959
vn 0.691356 0.060706 -0.719959
vn 0.691356 0.060706 -0.719959
vn 0.521945 0.105579 -0.846420
vn 0.521945 0.105579 -0.846420
vn 0.521945 0.105579 -0.846420
vn 0.684226 0.123395 -0.718755
vn 0.676516 0.122711 -0.726132
vn 0.678450 0.122887 -0.724296
vn 0.672635 0.122358 -0.729788
vn 0.672632 0.122364 -0.729790
vn 0.689428 0.054438 -0.722306
vn 0.691516 0.056329 -0.720161
vn 0.694456 0.058073 -0.717188
vn 0.695491 0.059018 -0.716107
vn 0.697380 0.059817 -0.714201
vn 0.697380 0.059817 -0.714201
vn 0.684683 0.118741 -0.719104
vn 0.596101 0.127257 -0.792760
vn 0.589534 0.112284 -0.799901
vn 0.552499 0.154314 -0.819104
vn 0.543328 0.123739 -0.830352
vn 0.532187 0.109423 -0.839526
vn 0.372103 0.039429 0.927354
vn 0.376383 0.020405 0.926239
vn 0.376383 0.020405 0.926239
vn 0.380520 0.001374 0.924772
vn 0.906870 0.009613 0.421302
vn 0.906870 0.009613 0.421302
vn 0.906870 0.009613 0.421302
vn 0.890009 -0.017858 0.455593
vn 0.896628 -0.014921 0.442533
vn 0.896628 -0.014921 0.442533
vn 0.903048 -0.011980 0.429374
vn 0.889323 0.009598 0.457179
vn 0.889323 0.009598 0.457179
vn 0.889323 0.009598 0.457179
vn 0.982159 -0.179471 -0.056156
vn 0.993925 -0.110063 -0.000037
vn 0.993925 -0.110063 -0.000037
vn 0.997634 -0.039763 0.056083
vn 0.947121 0.126695 0.294804
vn 0.947121 0.126695 0.294804
vn 0.947121 0.126695 0.294804
vn 0.893324 0.084842 0.441331
vn 0.893324 0.084842 0.441331
vn 0.893324 0.084842 0.441331
vn 0.890144 -0.006287 0.455637
vn 0.901171 0.008014 0.433391
vn 0.904683 0.012786 0.425894
vn 0.911457 0.022324 0.410790
vn 0.911457 0.022316 0.410789
vn 0.888561 0.021089 0.458273
vn 0.888561 0.021089 0.458273
vn 0.888561 0.021089 0.458273
vn 0.962667 0.070463 0.261358
vn 0.962667 0.070463 0.261358
vn 0.962667 0.070463 0.261358
vn 0.887103 0.084023 0.453859
vn 0.891954 0.083513 0.444347
vn 0.890751 0.083649 0.446728
vn 0.894340 0.083240 0.439577
vn 0.894340 0.083255 0.439572
vn 0.890085 0.014863 0.455553
vn 0.888677 0.016706 0.458229
vn 0.886715 0.018384 0.461950
vn 0.886000 0.019305 0.463284
vn 0.884735 0.020061 0.465662
vn 0.884736 0.020060 0.465660
vn 0.887437 0.079350 0.454047
vn 0.932993 0.090102 0.348434
vn 0.937549 0.075282 0.339609
vn 0.946551 0.118406 0.300037
vn 0.953869 0.088032 0.287028
vn 0.959088 0.074015 0.273263
vn 0.228312 0.124156 -0.965639
vn 0.216658 0.096781 -0.971439
vn 0.216658 0.096781 -0.971439
vn 0.204804 0.069318 -0.976345
vn -0.164968 0.049926 -0.985034
vn -0.164968 0.049926 -0.985034
vn -0.164968 0.049926 -0.985034
vn -0.257482 0.044370 -0.965264
vn -0.206653 0.036641 -0.977728
vn -0.206653 0.036641 -0.977728
vn -0.155245 0.028810 -0.987456
vn -0.125482 0.051844 -0.990740
vn -0.125482 0.051844 -0.990740
vn -0.125482 0.051844 -0.990740
vn -0.571403 -0.655426 -0.493878
vn -0.731607 -0.381801 -0.564783
vn -0.731607 -0.381801 -0.564783
vn -0.814580 -0.067871 -0.576067
vn -0.296885 0.159648 -0.941473
vn -0.296885 0.159648 -0.941473
vn -0.296885 0.159648 -0.941473
vn -0.143927 0.126029 -0.981530
vn -0.143927 0.126029 -0.981530
vn -0.143927 0.126029 -0.981530
vn -0.126551 0.035904 -0.991310
vn -0.151713 0.048980 -0.987210
vn -0.160076 0.053336 -0.985663
vn -0.176752 0.062031 -0.982299
vn -0.176752 0.062023 -0.982299
vn -0.124638 0.063369 -0.990177
vn -0.124638 0.063369 -0.990177
vn -0.124638 0.063369 -0.990177
vn -0.330859 0.101683 -0.938186
vn -0.330859 0.101683 -0.938186
vn -0.330859 0.101683 -0.938186
vn -0.128516 0.082788 -0.988246
vn -0.065111 0.126725 -0.989799
vn -0.069284 0.090007 -0.993528
vn -0.056510 0.199507 -0.978266
vn -0.033211 0.148446 -0.988363
vn -0.127472 0.057004 -0.990203
vn -0.124549 0.058986 -0.990459
vn -0.120445 0.060858 -0.990853
vn -0.118978 0.061849 -0.990969
vn -0.116338 0.062730 -0.991227
vn -0.116345 0.062729 -0.991226
vn -0.129928 0.121225 -0.984085
vn -0.243153 0.126174 -0.961747
vn -0.252381 0.110911 -0.961251
vn -0.291887 0.151658 -0.944352
vn -0.305471 0.120657 -0.944526
vn -0.319179 0.105901 -0.941759
vn -0.936647 0.077335 0.341630
vn -0.936835 0.075357 0.341557
vn -0.936835 0.075357 0.341557
vn -0.937020 0.073379 0.341482
vn -0.931651 -0.003688 0.363336
vn -0.931651 -0.003688 0.363336
vn -0.931651 -0.003688 0.363336
vn -0.942481 -0.096717 0.319962
vn -0.909384 -0.081059 0.407984
vn -0.909384 -0.081059 0.407984
vn -0.868022 -0.064664 0.492298
vn -0.945396 -0.001106 0.325921
vn -0.945396 -0.001106 0.325921
vn -0.945396 -0.001106 0.325921
vn -0.627722 -0.051089 0.776759
vn -0.630561 -0.101373 0.769491
vn -0.630561 -0.101373 0.769491
vn -0.631768 -0.151394 0.760230
vn -0.866918 0.104858 0.487297
vn -0.866918 0.104858 0.487297
vn -0.866918 0.104858 0.487297
vn -0.935906 0.072982 0.344606
vn -0.935906 0.072982 0.344606
vn -0.935906 0.072982 0.344606
vn -0.945028 -0.017077 0.326543
vn -0.939637 -0.008996 0.342054
vn -0.937774 -0.009347 0.347122
vn -0.933964 -0.010049 0.357225
vn -0.933958 -0.005480 0.357342
vn -0.945526 0.010445 0.325378
vn -0.945526 0.010445 0.325378
vn -0.945526 0.010445 0.325378
vn -0.854185 0.046330 0.517902
vn -0.854185 0.046330 0.517902
vn -0.854185 0.046330 0.517902
vn -0.940636 0.073060 0.331461
vn -0.926139 0.056151 0.372979
vn -0.928589 0.069057 0.364628
vn -0.920570 0.030316 0.389400
vn -0.918118 0.047649 0.393431
vn -0.944692 0.004025 0.327934
vn -0.945628 0.006062 0.325193
vn -0.942928 0.001776 0.332992
vn -0.940697 0.001828 0.339244
vn -0.940146 -0.002510 0.340763
vn -0.945536 -0.000576 0.325518
vn -0.942202 0.054063 0.330655
vn -0.919848 0.045502 0.389627
vn -0.903733 0.045416 0.425680
vn -0.901873 0.038261 0.430304
vn -0.886220 0.045260 0.461049
vn -0.860253 0.050640 0.507347
vn -0.445814 0.033819 0.894486
vn -0.441771 0.040439 0.896216
vn -0.441771 0.040439 0.896216
vn -0.437700 0.047057 0.897889
vn -0.469502 0.001283 0.882930
vn -0.469502 0.001283 0.882930
vn -0.469502 0.001283 0.882930
vn -0.442134 -0.009207 0.896902
vn -0.452706 -0.008365 0.891621
vn -0.452706 -0.008365 0.891621
vn -0.463215 -0.007521 0.886214
vn -0.440680 0.002312 0.897662
vn -0.440680 0.002312 0.897662
vn -0.440680 0.002312 0.897662
vn -0.442258 -0.021479 0.896631
vn -0.470567 -0.017329 0.882194
vn -0.470567 -0.017329 0.882194
vn -0.498394 -0.013160 0.866851
vn -0.562230 0.048197 0.825575
vn -0.562230 0.048197 0.825575
vn -0.562230 0.048197 0.825575
vn -0.451520 0.033732 0.891623
vn -0.451520 0.033732 0.891623
vn -0.451520 0.033732 0.891623
vn -0.442084 -0.004380 0.896963
vn -0.465874 0.002754 0.884847
vn -0.459959 0.000967 0.887940
vn -0.477635 0.006326 0.878536
vn -0.477635 0.006320 0.878535
vn -0.439629 0.007171 0.898151
vn -0.439629 0.007171 0.898151
vn -0.439629 0.007171 0.898151
vn -0.587579 0.022900 0.808842
vn -0.587579 0.022900 0.808842
vn -0.587579 0.022900 0.808842
vn -0.452984 0.033016 0.890907
vn -0.449062 0.033243 0.892882
vn -0.452979 0.033004 0.890910
vn -0.447097 0.033357 0.893863
vn -0.441202 0.033720 0.896774
vn -0.433570 0.006944 0.901093
vn -0.434881 0.006686 0.900463
vn -0.433570 0.006943 0.901093
vn -0.441946 0.004464 0.897031
vn -0.437675 0.005860 0.899114
vn -0.439724 0.005318 0.898117
vn -0.558734 0.044680 0.828142
vn -0.558739 0.044671 0.828139
vn -0.547568 0.041797 0.835717
vn -0.509436 0.028434 0.860039
vn -0.484040 0.020269 0.874811
vn -0.441951 0.004465 0.897028
vn 0.972889 0.149284 0.176637
vn 0.950494 0.187838 0.247543
vn 0.950494 0.187838 0.247543
vn 0.921431 0.225074 0.316713
vn 0.314821 0.293256 0.902712
vn 0.314821 0.293256 0.902712
vn 0.314821 0.293256 0.902712
vn 0.197149 0.227920 0.953512
vn 0.217602 0.224544 0.949858
vn 0.217602 0.224544 0.949858
vn 0.237958 0.221069 0.945782
vn 0.345141 0.293838 0.891368
vn 0.345141 0.293838 0.891368
vn 0.345141 0.293838 0.891368
vn -0.316998 0.151206 0.936295
vn -0.346871 0.185422 0.919402
vn -0.346871 0.185422 0.919402
vn -0.375930 0.219202 0.900348
vn 0.205619 0.336882 0.918821
vn 0.205619 0.336882 0.918821
vn 0.205619 0.336882 0.918821
vn 0.330565 0.323911 0.886458
vn 0.330565 0.323911 0.886458
vn 0.330565 0.323911 0.886458
vn 0.259597 0.321771 0.910535
vn 0.256834 0.287423 0.922727
vn 0.302017 0.266264 0.915363
vn 0.322727 0.237945 0.916095
vn 0.390019 0.221942 0.893660
vn 0.345786 0.298461 0.889580
vn 0.345786 0.298461 0.889580
vn 0.345786 0.298461 0.889580
vn 0.178380 0.312082 0.933159
vn 0.178380 0.312082 0.933159
vn 0.178380 0.312082 0.933159
vn 0.329105 0.323257 0.887240
vn 0.588483 0.297514 0.751780
vn 0.341538 0.302406 0.889889
vn 0.709854 0.272411 0.649538
vn 0.934143 0.212869 0.286469
vn 0.148986 0.170498 0.974030
vn 0.229864 0.236123 0.944144
vn 0.151981 0.210034 0.965809
vn 0.338769 0.272434 0.900564
vn 0.292930 0.269732 0.917299
vn 0.359745 0.277863 0.890716
vn 0.500540 0.264939 0.824177
vn 0.385414 0.279970 0.879246
vn 0.512835 0.212102 0.831873
vn 0.488331 0.105581 0.866248
vn 0.382245 0.226122 0.895967
vn 0.083388 0.291024 0.953075
vn 0.778835 -0.025025 0.626730
vn 0.785132 -0.026177 0.618774
vn 0.781234 -0.025167 0.623731
vn 0.788251 -0.026752 0.614772
vn 0.792833 -0.028193 0.608787
vn 0.184048 -0.033491 0.982347
vn 0.185726 -0.031289 0.982103
vn 0.400037 -0.138030 0.906045
vn 0.506135 -0.190840 0.841075
vn 0.750175 -0.324431 0.576179
vn -0.716788 -0.161627 0.678301
vn -0.716788 -0.161627 0.678301
vn -0.716788 -0.161627 0.678301
vn -0.510959 -0.190334 0.838268
vn -0.510959 -0.190334 0.838268
vn -0.510959 -0.190334 0.838268
vn 0.441056 -0.892305 -0.096239
vn 0.843633 -0.514615 -0.153149
vn 0.843633 -0.514615 -0.153149
vn 0.535295 0.844559 -0.013396
vn 0.517609 0.843937 0.140892
vn 0.517609 0.843937 0.140892
vn 0.487440 0.822962 0.291782
vn 0.427677 0.902550 -0.049955
vn 0.427677 0.902550 -0.049955
vn 0.427677 0.902550 -0.049955
vn 0.390135 0.059765 -0.918816
vn 0.390135 0.059765 -0.918816
vn 0.390135 0.059765 -0.918816
vn 0.243221 0.969971 -0.000748
vn 0.243221 0.969971 -0.000748
vn 0.243221 0.969971 -0.000748
vn 0.346593 0.791107 0.504007
vn 0.684611 0.717711 0.127277
vn 0.541490 0.683972 0.488846
vn 0.410459 -0.675559 0.612489
vn 0.507682 -0.676239 0.533816
vn 0.053445 -0.998520 -0.010084
vn 0.053445 -0.998520 -0.010084
vn 0.037770 -0.979722 -0.196770
vn 0.074221 -0.991382 -0.107950
vn 0.390135 0.059764 -0.918816
vn 0.390135 0.059764 -0.918816
vn 0.390135 0.059764 -0.918816
vn -0.493291 0.548762 -0.674926
vn 0.532218 -0.217243 -0.818260
vn 0.585228 -0.180187 -0.790595
vn 0.618818 -0.136999 -0.773495
vn 0.988780 0.023941 -0.147446
vn 0.986408 0.021553 -0.162895
vn 0.990500 0.049832 -0.128165
vn -0.202862 0.093295 0.974753
vn 0.803651 0.591214 -0.067899
vn 0.426670 0.845708 0.320517
vn 0.658216 0.709482 0.251767
vn 0.594288 0.746210 0.299987
vn 0.256314 -0.036141 0.965918
vn 0.255607 -0.033937 0.966185
vn 0.005207 0.999986 -0.001116
f 565/569/1 566/570/2 2/2/3
f 134/138/4 136/140/5 9/10/6
f 9/10/6 136/140/5 37/41/7
f 569/573/8 15/16/9 568/572/10
f 568/572/10 15/16/9 16/17/11
f 571/575/12 13/14/13 570/574/14
f 570/574/14 13/14/13 14/15/15
f 564/568/16 565/569/1 2/2/3
f 570/574/14 14/15/15 569/573/8
f 569/573/8 14/15/15 15/16/9
f 548/552/17 549/553/18 2/2/3
f 573/577/19 27/31/20 572/576/21
f 572/576/21 27/31/20 17/18/22
f 159/163/23 29/33/24 8/9/25
f 7/8/26 4/5/27 9/10/28
f 9/10/28 4/5/27 10/11/29
f 6/7/30 11/12/31 4/5/27
f 4/5/27 11/12/31 10/11/29
f 5/6/32 12/13/33 6/7/30
f 6/7/30 12/13/33 11/12/31
f 13/14/13 5/6/32 14/15/15
f 14/15/15 5/6/32 6/7/30
f 14/15/15 6/7/30 15/16/9
f 15/16/9 6/7/30 4/5/27
f 16/17/11 15/16/9 7/8/26
f 7/8/26 15/16/9 4/5/27
f 17/18/22 27/31/20 3/4/34
f 3/4/34 27/31/20 28/32/35
f 567/571/36 568/572/10 18/19/37
f 18/19/37 568/572/10 16/17/11
f 18/19/37 16/17/11 19/20/38
f 19/20/38 16/17/11 7/8/26
f 19/20/38 7/8/26 20/21/39
f 20/21/39 7/8/26 9/10/28
f 2/22/40 559/563/41 560/564/42
f 567/571/36 18/19/37 575/579/43
f 575/579/43 18/19/37 21/23/44
f 21/23/44 18/19/37 22/24/45
f 22/24/45 18/19/37 19/20/38
f 19/20/38 20/21/39 22/24/45
f 20/21/39 144/148/46 22/24/45
f 144/148/46 137/141/47 22/24/45
f 23/25/48 22/24/45 137/141/47
f 2/26/49 556/560/50 557/561/51
f 575/579/43 21/23/44 574/578/52
f 574/578/52 21/23/44 24/27/53
f 24/27/53 21/23/44 25/28/54
f 25/28/54 21/23/44 22/24/45
f 22/24/45 23/25/48 25/28/54
f 23/25/48 149/153/55 25/28/54
f 149/153/55 146/150/56 25/28/54
f 26/29/57 25/28/54 146/150/56
f 2/30/58 552/556/59 553/557/60
f 573/577/19 574/578/52 27/31/20
f 27/31/20 574/578/52 24/27/53
f 28/32/35 27/31/20 25/28/54
f 25/28/54 27/31/20 24/27/53
f 29/33/24 28/32/35 26/29/57
f 26/29/57 28/32/35 25/28/54
f 2/2/3 549/553/18 550/554/61
f 13/14/13 571/575/12 17/18/22
f 17/18/22 571/575/12 572/576/21
f 5/6/32 13/14/13 3/4/34
f 3/4/34 13/14/13 17/18/22
f 12/13/33 159/163/23 8/9/25
f 2/2/3 566/570/2 548/552/17
f 128/132/62 126/130/63 127/131/64
f 127/131/64 126/130/63 130/134/65
f 125/129/66 126/130/63 129/133/67
f 128/132/62 129/133/67 126/130/63
f 133/137/68 32/36/69 132/136/70
f 132/136/70 32/36/69 125/129/71
f 157/161/72 34/38/73 158/162/74
f 158/162/74 34/38/73 33/37/75
f 34/38/73 157/161/72 35/39/76
f 157/161/72 29/33/24 35/39/76
f 35/39/76 29/33/24 26/29/57
f 154/158/77 145/149/78 153/157/79
f 153/157/79 145/149/78 147/151/80
f 37/41/81 542/546/82 20/21/39
f 46/50/83 64/68/84 65/69/85
f 58/62/86 59/63/87 43/47/88
f 43/47/88 59/63/87 42/46/89
f 60/64/90 45/49/91 59/63/87
f 59/63/87 45/49/91 42/46/89
f 65/69/85 66/70/92 46/50/83
f 62/66/93 48/52/94 61/65/95
f 48/52/94 47/51/96 61/65/95
f 63/67/97 49/53/98 62/66/93
f 62/66/93 49/53/98 48/52/94
f 50/54/99 38/42/100 51/55/101
f 51/55/101 38/42/100 53/57/102
f 53/57/102 41/45/103 51/55/101
f 51/55/101 41/45/103 52/56/104
f 38/42/105 54/58/106 53/57/107
f 53/57/107 54/58/106 55/59/108
f 41/45/109 53/57/107 56/60/110
f 56/60/110 53/57/107 55/59/108
f 55/59/111 54/58/112 42/46/89
f 42/46/89 54/58/112 43/47/88
f 56/60/113 55/59/111 45/49/91
f 45/49/91 55/59/111 42/46/89
f 57/61/114 39/43/115 48/52/116
f 48/52/116 39/43/115 47/51/117
f 49/53/118 40/44/119 48/52/116
f 48/52/116 40/44/119 57/61/114
f 58/62/120 39/43/121 59/63/122
f 59/63/122 39/43/121 57/61/123
f 40/44/124 60/64/125 57/61/123
f 57/61/123 60/64/125 59/63/122
f 62/66/126 61/65/127 44/48/128
f 44/48/128 63/67/129 62/66/126
f 64/68/130 50/54/131 65/69/132
f 65/69/132 50/54/131 51/55/133
f 51/55/133 52/56/134 65/69/132
f 65/69/132 52/56/134 66/70/135
f 67/71/136 68/72/137 69/73/138
f 71/75/139 72/76/140 70/74/141
f 70/74/141 72/76/140 73/77/142
f 74/78/143 75/79/144 72/76/140
f 72/76/140 75/79/144 73/77/142
f 69/73/138 76/80/145 67/71/136
f 80/84/146 77/81/147 79/83/148
f 77/81/147 78/82/149 79/83/148
f 81/85/150 82/86/151 80/84/146
f 80/84/146 82/86/151 77/81/147
f 83/87/152 84/88/153 86/90/154
f 86/90/154 84/88/153 85/89/155
f 85/89/155 87/91/156 86/90/154
f 86/90/154 87/91/156 88/92/157
f 84/88/158 89/93/159 85/89/160
f 85/89/160 89/93/159 90/94/161
f 87/91/162 85/89/160 91/95/163
f 91/95/163 85/89/160 90/94/161
f 90/94/164 89/93/165 73/77/142
f 73/77/142 89/93/165 70/74/141
f 91/95/166 90/94/164 75/79/144
f 75/79/144 90/94/164 73/77/142
f 92/96/167 93/97/168 77/81/169
f 77/81/169 93/97/168 78/82/170
f 82/86/171 94/98/172 77/81/169
f 77/81/169 94/98/172 92/96/167
f 71/75/173 93/97/174 72/76/175
f 72/76/175 93/97/174 92/96/176
f 94/98/177 74/78/178 92/96/176
f 92/96/176 74/78/178 72/76/175
f 80/84/179 79/83/180 95/99/181
f 95/99/181 81/85/182 80/84/179
f 68/72/183 83/87/184 69/73/185
f 69/73/185 83/87/184 86/90/186
f 86/90/186 88/92/187 69/73/185
f 69/73/185 88/92/187 76/80/188
f 96/100/189 97/101/190 98/102/191
f 100/104/192 101/105/193 99/103/194
f 99/103/194 101/105/193 102/106/195
f 103/107/196 104/108/197 101/105/193
f 101/105/193 104/108/197 102/106/195
f 98/102/191 105/109/198 96/100/189
f 109/113/199 106/110/200 108/112/201
f 106/110/200 107/111/202 108/112/201
f 110/114/203 111/115/204 109/113/199
f 109/113/199 111/115/204 106/110/200
f 112/116/205 113/117/206 115/119/207
f 115/119/207 113/117/206 114/118/208
f 114/118/208 116/120/209 115/119/207
f 115/119/207 116/120/209 117/121/210
f 113/117/211 118/122/212 114/118/213
f 114/118/213 118/122/212 119/123/214
f 116/120/215 114/118/213 120/124/216
f 120/124/216 114/118/213 119/123/214
f 119/123/217 118/122/218 102/106/195
f 102/106/195 118/122/218 99/103/194
f 104/108/197 120/124/219 102/106/195
f 102/106/195 120/124/219 119/123/217
f 121/125/220 122/126/221 106/110/222
f 106/110/222 122/126/221 107/111/223
f 111/115/224 123/127/225 106/110/222
f 106/110/222 123/127/225 121/125/220
f 100/104/226 122/126/227 101/105/228
f 101/105/228 122/126/227 121/125/229
f 123/127/230 103/107/231 121/125/229
f 121/125/229 103/107/231 101/105/228
f 109/113/232 108/112/233 124/128/234
f 124/128/234 110/114/235 109/113/232
f 112/116/236 115/119/237 97/101/238
f 97/101/238 115/119/237 98/102/239
f 115/119/237 117/121/240 98/102/239
f 98/102/239 117/121/240 105/109/241
f 125/129/71 32/36/69 126/130/242
f 126/130/242 32/36/69 31/35/243
f 2/3/244 561/565/245 562/566/246
f 2/22/247 560/564/248 561/565/249
f 9/10/28 37/41/81 20/21/39
f 11/12/31 128/132/250 10/11/29
f 10/11/29 128/132/250 127/131/251
f 128/132/250 11/12/31 129/133/252
f 11/12/31 131/135/253 129/133/252
f 126/130/242 31/35/243 130/134/254
f 130/134/254 31/35/243 30/34/255
f 2/3/256 562/566/257 563/567/258
f 11/12/31 12/13/33 131/135/259
f 132/136/260 129/133/252 131/135/253
f 131/135/259 12/13/33 132/136/261
f 8/9/25 132/136/261 12/13/33
f 33/37/75 133/137/68 158/162/74
f 158/162/74 133/137/68 132/136/262
f 132/136/263 125/129/66 129/133/67
f 10/11/29 127/131/251 9/10/28
f 9/10/28 127/131/251 134/138/264
f 134/138/265 127/131/64 135/139/266
f 135/139/266 127/131/64 130/134/65
f 2/3/3 563/567/267 564/568/16
f 135/139/268 130/134/254 30/34/255
f 142/146/269 140/144/270 541/545/271
f 139/143/272 544/548/273 545/549/274
f 543/547/275 544/548/276 139/143/277
f 141/145/278 139/143/279 547/551/280
f 547/551/280 139/143/279 546/550/281
f 37/41/282 142/146/283 542/546/284
f 542/546/284 142/146/283 541/545/285
f 2/22/40 558/562/286 559/563/41
f 143/147/287 140/144/270 142/146/269
f 546/550/288 139/143/289 545/549/290
f 147/151/291 26/29/57 146/150/56
f 35/39/76 26/29/57 145/149/292
f 145/149/292 26/29/57 147/151/293
f 150/154/294 153/157/295 152/156/296
f 152/156/296 153/157/295 147/151/297
f 2/26/298 554/558/299 555/559/300
f 2/30/3 550/554/61 551/555/301
f 138/142/302 150/154/303 152/156/304
f 151/155/305 150/154/306 36/40/307
f 36/40/307 150/154/306 138/142/308
f 2/26/49 555/559/309 556/560/50
f 147/151/310 146/150/56 152/156/311
f 152/156/311 146/150/56 149/153/55
f 152/156/312 149/153/55 138/142/313
f 138/142/313 149/153/55 23/25/48
f 148/152/314 153/157/315 151/155/316
f 151/155/316 153/157/315 150/154/317
f 148/152/318 154/158/319 153/157/320
f 155/159/321 154/158/319 148/152/318
f 2/30/322 553/557/323 554/558/324
f 2/30/325 551/555/326 552/556/327
f 156/160/328 132/136/329 8/9/330
f 8/9/330 157/161/331 156/160/328
f 158/162/332 132/136/333 156/160/334
f 156/160/334 157/161/335 158/162/332
f 8/9/25 29/33/24 157/161/72
f 12/13/33 5/6/32 159/163/336
f 159/163/336 5/6/32 3/4/34
f 28/32/35 29/33/24 3/4/34
f 3/4/34 29/33/24 159/163/336
f 161/165/337 162/166/338 175/179/339
f 175/179/339 162/166/338 174/178/340
f 176/180/341 177/181/342 164/168/343
f 171/175/344 167/171/345 170/174/346
f 170/174/346 167/171/345 166/170/347
f 177/181/348 178/182/349 164/168/350
f 160/164/351 171/175/352 163/167/353
f 171/175/352 170/174/354 163/167/353
f 179/183/355 180/184/356 172/176/357
f 180/184/358 181/185/359 172/176/360
f 167/171/361 165/169/362 166/170/363
f 176/180/364 166/170/363 177/181/365
f 165/169/362 177/181/365 166/170/363
f 182/186/366 183/187/367 168/172/368
f 168/172/369 183/187/370 184/188/371
f 175/179/372 174/178/373 173/177/374
f 181/185/375 180/184/376 174/178/373
f 173/177/374 174/178/373 180/184/376
f 169/173/377 183/187/378 165/169/379
f 183/187/378 182/186/380 165/169/379
f 182/186/380 178/182/381 165/169/379
f 165/169/379 178/182/381 177/181/382
f 173/177/383 180/184/384 169/173/385
f 179/183/386 184/188/387 180/184/384
f 180/184/384 184/188/387 169/173/385
f 184/188/387 183/187/388 169/173/385
f 540/544/389 187/191/390 539/543/391
f 186/190/392 185/189/393 187/191/390
f 185/189/393 539/543/391 187/191/390
f 189/193/394 191/195/395 190/194/396
f 192/196/397 195/199/398 193/197/399
f 193/197/399 195/199/398 194/198/400
f 190/194/401 191/195/402 196/200/403
f 197/201/404 198/202/405 192/196/406
f 198/202/405 195/199/407 192/196/406
f 199/203/408 201/205/409 200/204/410
f 200/204/411 201/205/412 202/206/413
f 193/197/414 194/198/415 203/207/416
f 189/193/417 190/194/418 194/198/415
f 194/198/415 190/194/418 203/207/416
f 204/208/419 206/210/420 205/209/421
f 206/210/422 207/211/423 205/209/424
f 185/189/425 208/212/426 539/543/427
f 202/206/428 538/542/429 200/204/430
f 208/212/426 200/204/430 539/543/427
f 200/204/430 538/542/429 539/543/427
f 209/213/431 203/207/432 205/209/433
f 196/200/434 204/208/435 190/194/436
f 190/194/436 204/208/435 203/207/432
f 203/207/432 204/208/435 205/209/433
f 208/212/437 209/213/438 200/204/439
f 207/211/440 199/203/441 205/209/442
f 199/203/441 200/204/439 205/209/442
f 200/204/439 209/213/438 205/209/442
f 211/215/443 212/216/444 210/214/445
f 210/214/445 212/216/444 213/217/446
f 214/218/447 215/219/448 216/220/449
f 217/221/450 218/222/451 220/224/452
f 220/224/452 218/222/451 219/223/453
f 216/220/454 215/219/455 221/225/456
f 222/226/457 223/227/458 217/221/459
f 217/221/459 223/227/458 218/222/460
f 224/228/461 225/229/462 226/230/463
f 226/230/464 225/229/465 227/231/466
f 220/224/467 219/223/468 228/232/469
f 214/218/470 216/220/471 219/223/468
f 219/223/468 216/220/471 228/232/469
f 229/233/472 230/234/473 231/235/474
f 230/234/475 232/236/476 231/235/477
f 210/214/478 233/237/479 211/215/480
f 227/231/481 211/215/480 226/230/482
f 233/237/479 226/230/482 211/215/480
f 234/238/483 228/232/484 231/235/485
f 221/225/486 229/233/487 216/220/488
f 216/220/488 229/233/487 228/232/484
f 228/232/484 229/233/487 231/235/485
f 233/237/489 234/238/490 226/230/491
f 224/228/492 226/230/491 232/236/493
f 226/230/491 234/238/490 232/236/493
f 232/236/493 234/238/490 231/235/494
f 236/240/495 237/241/496 235/239/497
f 235/239/497 237/241/496 238/242/498
f 239/243/499 240/244/500 241/245/501
f 242/246/502 243/247/503 245/249/504
f 245/249/504 243/247/503 244/248/505
f 241/245/506 240/244/507 246/250/508
f 247/251/509 248/252/510 242/246/511
f 248/252/510 243/247/512 242/246/511
f 249/253/513 250/254/514 251/255/515
f 251/255/516 250/254/517 252/256/518
f 245/249/519 244/248/520 253/257/521
f 239/243/522 241/245/523 244/248/520
f 244/248/520 241/245/523 253/257/521
f 254/258/524 255/259/525 256/260/526
f 255/259/527 257/261/528 256/260/529
f 235/239/530 258/262/531 236/240/532
f 252/256/533 236/240/532 251/255/534
f 258/262/531 251/255/534 236/240/532
f 259/263/535 253/257/536 256/260/537
f 246/250/538 254/258/539 241/245/540
f 241/245/540 254/258/539 253/257/536
f 253/257/536 254/258/539 256/260/537
f 258/262/541 259/263/542 251/255/543
f 257/261/544 249/253/545 256/260/546
f 249/253/545 251/255/543 256/260/546
f 251/255/543 259/263/542 256/260/546
f 261/265/547 262/266/548 260/264/549
f 260/264/549 262/266/548 263/267/550
f 264/268/551 265/269/552 266/270/553
f 267/271/554 268/272/555 270/274/556
f 270/274/556 268/272/555 269/273/557
f 266/270/558 265/269/559 271/275/560
f 272/276/561 273/277/562 267/271/563
f 267/271/563 273/277/562 268/272/564
f 274/278/565 275/279/566 276/280/567
f 276/280/568 275/279/569 277/281/570
f 270/274/571 269/273/572 278/282/573
f 264/268/574 266/270/575 269/273/572
f 269/273/572 266/270/575 278/282/573
f 279/283/576 280/284/577 281/285/578
f 280/284/579 282/286/580 281/285/581
f 277/281/582 261/265/583 276/280/584
f 276/280/584 261/265/583 283/287/585
f 283/287/585 261/265/583 260/264/586
f 284/288/587 278/282/588 281/285/589
f 271/275/590 279/283/591 266/270/592
f 266/270/592 279/283/591 278/282/588
f 278/282/588 279/283/591 281/285/589
f 282/286/593 274/278/594 281/285/595
f 281/285/595 274/278/594 284/288/596
f 274/278/594 276/280/597 284/288/596
f 276/280/597 283/287/598 284/288/596
f 287/291/599 288/292/600 286/290/601
f 285/289/602 286/290/601 288/292/600
f 289/293/603 290/294/604 291/295/605
f 536/540/606 293/297/607 535/539/608
f 291/295/609 290/294/610 296/300/611
f 536/540/612 537/541/613 293/297/614
f 299/303/615 300/304/616 301/305/617
f 301/305/618 300/304/619 302/306/620
f 303/307/621 295/299/622 291/295/623
f 294/298/624 289/293/625 295/299/622
f 295/299/622 289/293/625 291/295/623
f 304/308/626 305/309/627 306/310/628
f 305/309/629 307/311/630 306/310/631
f 285/289/632 308/312/633 286/290/634
f 302/306/635 286/290/634 301/305/636
f 308/312/633 301/305/636 286/290/634
f 309/313/637 303/307/638 306/310/639
f 304/308/640 306/310/639 296/300/641
f 296/300/641 306/310/639 291/295/642
f 303/307/638 291/295/642 306/310/639
f 308/312/643 309/313/644 301/305/645
f 299/303/646 301/305/645 307/311/647
f 301/305/645 309/313/644 307/311/647
f 307/311/647 309/313/644 306/310/648
f 313/317/649 310/314/650 312/316/651
f 310/314/650 311/315/652 312/316/651
f 314/318/653 315/319/654 316/320/655
f 317/321/656 318/322/657 320/324/658
f 320/324/658 318/322/657 319/323/659
f 316/320/660 315/319/661 321/325/662
f 322/326/663 323/327/664 317/321/665
f 317/321/665 323/327/664 318/322/666
f 324/328/667 325/329/668 326/330/669
f 326/330/670 325/329/671 327/331/672
f 320/324/673 319/323/674 328/332/675
f 314/318/676 316/320/677 319/323/674
f 319/323/674 316/320/677 328/332/675
f 329/333/678 330/334/679 331/335/680
f 330/334/681 332/336/682 331/335/683
f 310/314/684 333/337/685 311/315/686
f 327/331/687 311/315/686 326/330/688
f 333/337/685 326/330/688 311/315/686
f 334/338/689 328/332/690 331/335/691
f 321/325/692 329/333/693 316/320/694
f 316/320/694 329/333/693 328/332/690
f 328/332/690 329/333/693 331/335/691
f 333/337/695 334/338/696 326/330/697
f 324/328/698 326/330/697 332/336/699
f 326/330/697 334/338/696 332/336/699
f 332/336/699 334/338/696 331/335/700
f 336/340/701 337/341/702 335/339/703
f 335/339/703 337/341/702 338/342/704
f 339/343/705 340/344/706 341/345/707
f 342/346/708 343/347/709 345/349/710
f 345/349/710 343/347/709 344/348/711
f 340/344/712 346/350/713 341/345/714
f 347/351/715 342/346/716 348/352/717
f 348/352/717 342/346/716 345/349/718
f 349/353/719 350/354/720 351/355/721
f 350/354/722 352/356/723 351/355/724
f 343/347/725 353/357/726 344/348/727
f 339/343/728 344/348/727 340/344/729
f 353/357/726 340/344/729 344/348/727
f 354/358/730 355/359/731 356/360/732
f 356/360/733 355/359/734 357/361/735
f 335/339/736 338/342/737 358/362/738
f 352/356/739 350/354/740 338/342/737
f 358/362/738 338/342/737 350/354/740
f 359/363/741 355/359/742 353/357/743
f 355/359/742 354/358/744 353/357/743
f 354/358/744 346/350/745 353/357/743
f 353/357/743 346/350/745 340/344/746
f 358/362/747 350/354/748 359/363/749
f 349/353/750 357/361/751 350/354/748
f 359/363/749 350/354/748 355/359/752
f 357/361/751 355/359/752 350/354/748
f 361/365/753 362/366/754 360/364/755
f 360/364/755 362/366/754 363/367/756
f 364/368/757 365/369/758 366/370/759
f 367/371/760 368/372/761 370/374/762
f 370/374/762 368/372/761 369/373/763
f 365/369/764 371/375/765 366/370/766
f 372/376/767 367/371/768 373/377/769
f 373/377/769 367/371/768 370/374/770
f 374/378/771 375/379/772 376/380/773
f 375/379/774 377/381/775 376/380/776
f 368/372/777 378/382/778 369/373/779
f 364/368/780 369/373/779 365/369/781
f 378/382/778 365/369/781 369/373/779
f 379/383/782 380/384/783 381/385/784
f 381/385/785 380/384/786 382/386/787
f 360/364/788 363/367/789 383/387/790
f 377/381/791 375/379/792 363/367/789
f 383/387/790 363/367/789 375/379/792
f 384/388/793 380/384/794 378/382/795
f 380/384/794 379/383/796 378/382/795
f 379/383/796 371/375/797 378/382/795
f 378/382/795 371/375/797 365/369/798
f 383/387/799 375/379/800 384/388/801
f 374/378/802 382/386/803 375/379/800
f 375/379/800 382/386/803 384/388/801
f 382/386/803 380/384/804 384/388/801
f 386/390/805 387/391/806 385/389/807
f 385/389/807 387/391/806 388/392/808
f 389/393/809 390/394/810 391/395/811
f 392/396/812 393/397/813 395/399/814
f 395/399/814 393/397/813 394/398/815
f 390/394/816 396/400/817 391/395/818
f 397/401/819 392/396/820 398/402/821
f 398/402/821 392/396/820 395/399/822
f 399/403/823 400/404/824 401/405/825
f 400/404/826 402/406/827 401/405/828
f 393/397/829 403/407/830 394/398/831
f 389/393/832 394/398/831 390/394/833
f 403/407/830 390/394/833 394/398/831
f 404/408/834 405/409/835 406/410/836
f 406/410/837 405/409/838 407/411/839
f 385/389/840 388/392/841 408/412/842
f 402/406/843 400/404/844 388/392/841
f 408/412/842 388/392/841 400/404/844
f 409/413/845 405/409/846 403/407/847
f 405/409/846 404/408/848 403/407/847
f 404/408/848 396/400/849 403/407/847
f 403/407/847 396/400/849 390/394/850
f 408/412/851 400/404/852 409/413/853
f 399/403/854 407/411/855 400/404/852
f 400/404/852 407/411/855 409/413/853
f 407/411/855 405/409/856 409/413/853
f 411/415/857 412/416/858 410/414/859
f 410/414/859 412/416/858 413/417/860
f 414/418/861 415/419/862 416/420/863
f 417/421/864 418/422/865 420/424/866
f 420/424/866 418/422/865 419/423/867
f 415/419/868 421/425/869 416/420/870
f 423/427/871 422/426/872 420/424/873
f 422/426/872 417/421/874 420/424/873
f 424/428/875 425/429/876 426/430/877
f 425/429/878 427/431/879 426/430/880
f 418/422/881 428/432/882 419/423/883
f 414/418/884 419/423/883 415/419/885
f 428/432/882 415/419/885 419/423/883
f 429/433/886 430/434/887 431/435/888
f 431/435/889 430/434/890 432/436/891
f 410/414/892 413/417/893 433/437/894
f 427/431/895 425/429/896 413/417/893
f 433/437/894 413/417/893 425/429/896
f 434/438/897 430/434/898 428/432/899
f 430/434/898 429/433/900 428/432/899
f 429/433/900 421/425/901 428/432/899
f 428/432/899 421/425/901 415/419/902
f 433/437/903 425/429/904 434/438/905
f 424/428/906 432/436/907 425/429/904
f 425/429/904 432/436/907 434/438/905
f 432/436/907 430/434/908 434/438/905
f 436/440/909 437/441/910 435/439/911
f 435/439/911 437/441/910 438/442/912
f 439/443/913 440/444/914 441/445/915
f 442/446/916 443/447/917 445/449/918
f 445/449/918 443/447/917 444/448/919
f 440/444/920 446/450/921 441/445/922
f 447/451/923 442/446/924 448/452/925
f 448/452/925 442/446/924 445/449/926
f 449/453/927 450/454/928 451/455/929
f 450/454/930 452/456/931 451/455/932
f 443/447/933 453/457/934 444/448/935
f 439/443/936 444/448/935 440/444/937
f 453/457/934 440/444/937 444/448/935
f 454/458/938 455/459/939 456/460/940
f 456/460/941 455/459/942 457/461/943
f 435/439/944 438/442/945 458/462/946
f 452/456/947 450/454/948 438/442/945
f 458/462/946 438/442/945 450/454/948
f 459/463/949 455/459/950 453/457/951
f 455/459/950 454/458/952 453/457/951
f 454/458/952 446/450/953 453/457/951
f 453/457/951 446/450/953 440/444/954
f 458/462/955 450/454/956 459/463/957
f 449/453/958 457/461/959 450/454/956
f 450/454/956 457/461/959 459/463/957
f 457/461/959 455/459/960 459/463/957
f 461/465/961 462/466/962 460/464/963
f 460/464/963 462/466/962 463/467/964
f 464/468/965 465/469/966 466/470/967
f 467/471/968 468/472/969 470/474/970
f 470/474/970 468/472/969 469/473/971
f 465/469/972 471/475/973 466/470/974
f 472/476/975 467/471/976 473/477/977
f 467/471/976 470/474/978 473/477/977
f 474/478/979 475/479/980 476/480/981
f 475/479/982 477/481/983 476/480/984
f 468/472/985 478/482/986 469/473/987
f 464/468/988 469/473/987 465/469/989
f 478/482/986 465/469/989 469/473/987
f 479/483/990 480/484/991 481/485/992
f 481/485/993 480/484/994 482/486/995
f 460/464/996 463/467/997 483/487/998
f 477/481/999 475/479/1000 463/467/997
f 483/487/998 463/467/997 475/479/1000
f 484/488/1001 480/484/1002 478/482/1003
f 480/484/1002 479/483/1004 478/482/1003
f 479/483/1004 471/475/1005 478/482/1003
f 478/482/1003 471/475/1005 465/469/1006
f 483/487/1007 475/479/1008 484/488/1009
f 475/479/1008 474/478/1010 484/488/1009
f 474/478/1010 482/486/1011 484/488/1009
f 482/486/1011 480/484/1012 484/488/1009
f 486/490/1013 487/491/1014 485/489/1015
f 485/489/1015 487/491/1014 488/492/1016
f 489/493/1017 490/494/1018 491/495/1019
f 492/496/1020 493/497/1021 495/499/1022
f 495/499/1022 493/497/1021 494/498/1023
f 491/495/1024 490/494/1025 496/500/1026
f 497/501/1027 498/502/1028 492/496/1029
f 492/496/1029 498/502/1028 493/497/1030
f 499/503/1031 500/504/1032 501/505/1033
f 501/505/1034 500/504/1035 502/506/1036
f 495/499/1037 494/498/1038 503/507/1039
f 489/493/1040 491/495/1041 494/498/1038
f 494/498/1038 491/495/1041 503/507/1039
f 504/508/1042 505/509/1043 506/510/1044
f 505/509/1045 507/511/1046 506/510/1047
f 502/506/1048 486/490/1049 501/505/1050
f 501/505/1050 486/490/1049 508/512/1051
f 508/512/1051 486/490/1049 485/489/1052
f 496/500/1053 504/508/1054 491/495/1055
f 509/513/1056 503/507/1057 506/510/1058
f 491/495/1055 504/508/1054 503/507/1057
f 503/507/1057 504/508/1054 506/510/1058
f 499/503/1059 501/505/1060 507/511/1061
f 501/505/1060 508/512/1062 507/511/1061
f 507/511/1061 508/512/1062 506/510/1063
f 508/512/1062 509/513/1064 506/510/1063
f 512/516/1065 513/517/1066 511/515/1067
f 510/514/1068 511/515/1067 513/517/1066
f 514/518/1069 515/519/1070 516/520/1071
f 517/521/1072 518/522/1073 520/524/1074
f 520/524/1074 518/522/1073 519/523/1075
f 516/520/1076 515/519/1077 521/525/1078
f 522/526/1079 523/527/1080 517/521/1081
f 517/521/1081 523/527/1080 518/522/1082
f 524/528/1083 525/529/1084 526/530/1085
f 526/530/1086 525/529/1087 527/531/1088
f 514/518/1089 516/520/1090 519/523/1091
f 516/520/1090 528/532/1092 519/523/1091
f 520/524/1093 519/523/1091 528/532/1092
f 529/533/1094 530/534/1095 531/535/1096
f 530/534/1097 532/536/1098 531/535/1099
f 527/531/1100 511/515/1101 526/530/1102
f 526/530/1102 511/515/1101 533/537/1103
f 533/537/1103 511/515/1101 510/514/1104
f 521/525/1105 529/533/1106 516/520/1107
f 534/538/1108 528/532/1109 531/535/1110
f 516/520/1107 529/533/1106 528/532/1109
f 528/532/1109 529/533/1106 531/535/1110
f 533/537/1111 534/538/1112 526/530/1113
f 524/528/1114 526/530/1113 532/536/1115
f 526/530/1113 534/538/1112 532/536/1115
f 532/536/1115 534/538/1112 531/535/1116
f 294/298/1117 295/299/1118 535/539/1119
f 535/539/1119 295/299/1118 536/540/1120
f 292/296/1121 536/540/1120 295/299/1118
f 537/541/1122 536/540/1123 298/302/1124
f 536/540/1123 292/296/1125 298/302/1124
f 297/301/1126 298/302/1124 292/296/1125
f 539/543/1127 538/542/1128 188/192/1129
f 540/544/1130 539/543/1131 188/192/1132
f 2/26/1133 557/561/1134 558/562/1135
f 543/547/1136 139/143/1137 541/545/1138
f 541/545/1138 139/143/1137 141/145/1139
f 542/546/1140 541/545/1141 141/145/1142
f 547/551/1143 542/546/1144 141/145/1145
f 541/545/1146 140/144/1147 543/547/1148
f 543/547/1149 140/144/1150 544/548/1151
f 140/144/1150 36/40/307 544/548/1151
f 36/40/307 138/142/308 544/548/1151
f 545/549/1152 544/548/1153 137/141/47
f 138/142/313 23/25/48 544/548/1153
f 544/548/1153 23/25/48 137/141/47
f 546/550/1154 545/549/1155 144/148/46
f 144/148/46 545/549/1155 137/141/47
f 546/550/1156 144/148/46 547/551/1157
f 547/551/1157 144/148/46 20/21/39
f 20/21/1158 542/546/1159 547/551/1160
f 34/38/73 549/553/18 33/37/75
f 33/37/75 549/553/18 548/552/17
f 549/553/18 34/38/73 550/554/61
f 550/554/61 34/38/73 35/39/76
f 551/555/301 550/554/61 145/149/292
f 550/554/61 35/39/76 145/149/292
f 551/555/326 145/149/78 552/556/327
f 552/556/327 145/149/78 155/159/1161
f 145/149/78 154/158/77 155/159/1161
f 553/557/60 552/556/59 155/159/1162
f 553/557/323 155/159/1163 554/558/324
f 554/558/324 155/159/1163 148/152/1164
f 554/558/299 148/152/314 555/559/300
f 555/559/300 148/152/314 151/155/316
f 555/559/309 151/155/305 556/560/50
f 556/560/50 151/155/305 36/40/307
f 556/560/50 36/40/307 557/561/51
f 557/561/51 36/40/307 143/147/1165
f 36/40/307 140/144/1150 143/147/1165
f 558/562/1135 557/561/1134 143/147/1166
f 143/147/1167 142/146/283 558/562/286
f 142/146/283 37/41/282 558/562/286
f 559/563/41 558/562/286 37/41/282
f 559/563/41 37/41/282 560/564/42
f 560/564/42 37/41/282 136/140/1168
f 561/565/249 560/564/248 136/140/1169
f 134/138/1170 135/139/1171 136/140/1172
f 135/139/1171 562/566/246 136/140/1172
f 562/566/246 561/565/245 136/140/1172
f 563/567/258 562/566/257 135/139/1173
f 563/567/267 135/139/1174 564/568/16
f 564/568/16 135/139/1174 30/34/255
f 31/35/243 565/569/1 30/34/255
f 30/34/255 565/569/1 564/568/16
f 32/36/69 566/570/2 31/35/243
f 31/35/243 566/570/2 565/569/1
f 566/570/2 32/36/69 548/552/17
f 32/36/69 133/137/68 548/552/17
f 548/552/17 133/137/68 33/37/75
f 1/1/1175 568/572/10 567/571/36
f 1/1/1175 569/573/8 568/572/10
f 1/1/1175 570/574/14 569/573/8
f 1/1/1175 571/575/12 570/574/14
f 572/576/21 571/575/12 1/1/1175
f 1/1/1175 573/577/19 572/576/21
f 1/1/1175 574/578/52 573/577/19
f 1/1/1175 575/579/43 574/578/52
f 1/1/1175 567/571/36 575/579/43
