# This file uses centimeters as units for non-parametric coordinates.

v -0.345001 -0.345667 0.344942
v 0.346334 -0.345667 0.344942
v -0.345001 0.345667 0.344942
v 0.346334 0.345667 0.344942
v -0.345001 0.345667 -0.346392
v 0.346334 0.345667 -0.346392
v -0.345001 -0.345667 -0.346392
v 0.346334 -0.345667 -0.346392
v 0.344004 0.343338 -0.004467
v -0.004052 0.005105 0.323802
v 0.279379 0.280722 0.344942
v -0.276638 0.277305 0.344942
v 0.273283 -0.272617 0.344942
v -0.295182 -0.275400 0.351994
v -0.250356 0.251409 0.323802
v 0.255114 0.256494 0.323802
v 0.252574 -0.251521 0.323802
v -0.272642 -0.254317 0.323732
v 0.000681 -0.321243 -0.000549
v 0.272981 -0.345667 -0.273040
v -0.281101 -0.345667 -0.282492
v -0.277099 -0.345667 0.277041
v 0.275175 -0.345667 0.273783
v 0.256709 -0.321243 -0.256576
v -0.260001 -0.321243 -0.261232
v -0.259246 -0.321243 0.259379
v 0.248399 -0.321243 0.247169
v 0.318751 0.000098 -0.000615
v 0.346334 -0.277620 0.276895
v 0.346334 0.274507 0.273782
v 0.346334 0.259477 -0.260202
v 0.346334 -0.277145 -0.277870
v 0.318751 -0.260968 0.260451
v 0.318751 0.256826 0.256113
v 0.318751 0.244868 -0.245385
v 0.318751 -0.258695 -0.259408
v 0.000822 0.000137 -0.321806
v 0.270517 -0.269851 -0.346392
v 0.269750 0.269084 -0.346392
v -0.272270 0.272937 -0.346392
v -0.282664 -0.283330 -0.346392
v 0.245738 -0.244779 -0.321806
v 0.248732 0.248047 -0.321806
v -0.252760 0.253719 -0.321806
v -0.261206 -0.261891 -0.321806
v -0.320651 -0.000077 -0.000487
v -0.345001 -0.269998 -0.270722
v -0.345001 -0.265281 0.264556
v -0.345001 0.270703 0.269978
v -0.345001 0.277826 -0.278550
v -0.320651 -0.248453 0.247890
v -0.320651 -0.247936 -0.248346
v -0.320651 0.252949 -0.253512
v -0.320651 0.246329 0.245919
v 0.001084 0.321243 -0.000342
v 0.258277 0.345667 0.256885
v -0.271794 0.345667 0.271735
v -0.282495 0.345667 -0.283886
v 0.253798 0.345667 -0.253857
v -0.248249 0.321243 0.248992
v -0.258987 0.321243 -0.260413
v 0.232823 0.321243 -0.232080
v 0.237259 0.321243 0.235832
vt 0.000000 0.016668
vt 0.002884 0.995343
vt 0.996967 0.999672
vt 0.000719 0.998241
vt 0.997600 0.014891
vt 0.000564 0.017695
vt 0.998233 0.991543
vt 0.995274 0.991168
vt 0.998866 0.022225
vt 0.007293 0.025029
vt 0.990268 0.998152
vt 0.989635 0.019098
vt 0.000629 0.019163
vt 0.000785 0.998301
vt -0.004015 0.497930
vt 0.499693 0.017200
vt 0.492384 0.507616
vt 0.103530 0.881615
vt 0.888016 0.886727
vt 0.890814 0.128733
vt 0.110041 0.139159
vt 0.116614 0.868531
vt 0.877701 0.876721
vt 0.878492 0.141056
vt 0.108114 0.142929
vt 0.498132 0.502963
vt 0.897781 0.878874
vt 0.116637 0.880716
vt 0.897376 0.130001
vt 0.108114 0.132804
vt 0.890311 0.871556
vt 0.120459 0.876972
vt 0.890887 0.136357
vt 0.121831 0.146241
vt 0.494287 0.512552
vt 0.108516 0.131828
vt 0.100557 0.887239
vt 0.878026 0.144844
vt 0.887707 0.887246
vt 0.114075 0.137379
vt 0.107618 0.880187
vt 0.873067 0.149796
vt 0.879416 0.878966
vt 0.500000 0.494496
vt 0.888144 0.128528
vt 0.883402 0.879085
vt 0.107777 0.125320
vt 0.108578 0.874195
vt 0.879844 0.136828
vt 0.875661 0.871344
vt 0.112987 0.141798
vt 0.115144 0.867629
vt 0.497048 0.501629
vt 0.885088 0.134649
vt 0.108285 0.131564
vt 0.891024 0.878200
vt 0.109853 0.885806
vt 0.117443 0.140704
vt 0.880011 0.139715
vt 0.117442 0.878232
vt 0.882083 0.869277
vt 0.496793 0.503361
vt 0.121017 0.875422
vt 0.892530 0.879434
vt 0.898656 0.123036
vt 0.112935 0.124634
vt 0.887641 0.133995
vt 0.883027 0.869980
vt 0.128289 0.868187
vt 0.123565 0.135209
vt 0.995429 0.017535
vt 0.003039 0.020532
vt 0.998046 0.018297
vt 0.997412 0.999733
vt 0.000632 0.998104
vt 0.995274 0.996672
vt 0.000000 0.017619
vt 0.995429 0.018355
vt 0.000632 0.992600
vt 0.005129 0.990112
vn 0.000000 0.000000 1.000000
vn 0.000000 0.000000 1.000000
vn 0.000000 0.000000 1.000000
vn 0.000000 0.000000 1.000000
vn 0.000000 0.000000 1.000000
vn 0.000000 0.000000 1.000000
vn -0.000134 -0.000134 1.000000
vn -0.000134 -0.000134 1.000000
vn -0.000134 -0.000134 1.000000
vn -0.000134 -0.000134 1.000000
vn -0.000134 -0.000134 1.000000
vn -0.000134 -0.000134 1.000000
vn -0.003854 0.705951 0.708250
vn -0.000166 0.755033 0.655687
vn -0.000166 0.755033 0.655687
vn 0.003522 0.800199 0.599724
vn 0.000000 -1.000000 0.000000
vn 0.000000 -1.000000 0.000000
vn 0.000000 -1.000000 0.000000
vn 0.000000 -1.000000 0.000000
vn 0.000000 -1.000000 0.000000
vn 0.000000 -1.000000 0.000000
vn 0.000000 -1.000000 0.000000
vn 0.000000 -1.000000 0.000000
vn 0.000000 -1.000000 0.000000
vn 0.000000 -1.000000 0.000000
vn 0.000000 -1.000000 0.000000
vn 0.000000 -1.000000 0.000000
vn 1.000000 -0.000000 0.000000
vn 1.000000 -0.000000 0.000000
vn 1.000000 -0.000000 0.000000
vn 1.000000 -0.000000 0.000000
vn 1.000000 -0.000000 0.000000
vn 1.000000 -0.000000 0.000000
vn 1.000000 0.000000 0.000000
vn 1.000000 0.000000 0.000000
vn 1.000000 0.000000 0.000000
vn 0.508846 -0.007212 -0.860828
vn 0.525295 -0.005977 -0.850899
vn 0.525295 -0.005977 -0.850899
vn 0.541550 -0.004740 -0.840655
vn 1.000000 0.000000 0.000000
vn 1.000000 0.000000 0.000000
vn 1.000000 0.000000 0.000000
vn -0.836399 -0.547947 -0.013797
vn -0.761830 -0.647753 -0.005587
vn -0.761830 -0.647753 -0.005587
vn -0.675384 -0.737461 0.002709
vn 0.543203 -0.027629 0.839146
vn 0.513460 -0.026017 0.857719
vn 0.513460 -0.026017 0.857719
vn 0.483084 -0.024374 0.875235
vn 0.476713 -0.878809 0.020955
vn 0.502896 -0.864056 0.022429
vn 0.502896 -0.864056 0.022429
vn 0.528623 -0.848521 0.023883
vn 0.515199 0.857062 0.003747
vn 0.535919 0.844267 0.002230
vn 0.535919 0.844267 0.002230
vn 0.556320 0.830968 0.000711
vn 0.000000 0.000000 -1.000000
vn 0.000000 0.000000 -1.000000
vn 0.000000 0.000000 -1.000000
vn 0.000000 -0.000000 -1.000000
vn 0.000000 -0.000000 -1.000000
vn 0.000000 -0.000000 -1.000000
vn -0.000000 -0.000000 -1.000000
vn -0.000000 -0.000000 -1.000000
vn -0.000000 -0.000000 -1.000000
vn 0.000000 0.000000 -1.000000
vn 0.000000 0.000000 -1.000000
vn 0.000000 0.000000 -1.000000
vn -0.019649 -0.576392 -0.816937
vn -0.011882 -0.661479 -0.749870
vn -0.011882 -0.661479 -0.749870
vn -0.003975 -0.738761 -0.673955
vn 0.806914 -0.590668 -0.001170
vn 0.783570 -0.621295 -0.003302
vn 0.783570 -0.621295 -0.003302
vn 0.759060 -0.650998 -0.005428
vn -0.007450 -0.562334 0.826877
vn -0.010221 -0.607154 0.794518
vn -0.010221 -0.607154 0.794518
vn -0.012960 -0.650114 0.759726
vn -0.008948 -0.791261 -0.611413
vn -0.007169 -0.774673 -0.632321
vn -0.007169 -0.774673 -0.632321
vn -0.005385 -0.757531 -0.652777
vn 0.000000 -1.000000 0.000000
vn 0.000000 -1.000000 0.000000
vn 0.000000 -1.000000 0.000000
vn 0.000000 -1.000000 0.000000
vn 1.000000 -0.000002 0.000000
vn 1.000000 -0.000000 0.000000
vn 1.000000 -0.000000 0.000000
vn 1.000000 0.000001 0.000000
vn -0.762045 0.004630 -0.647508
vn -0.734098 0.001815 -0.679042
vn -0.734098 0.001815 -0.679042
vn -0.704841 -0.001003 -0.709364
vn -0.016850 0.691519 -0.722162
vn -0.021358 0.729052 -0.684125
vn -0.021358 0.729052 -0.684125
vn -0.025805 0.764489 -0.644120
vn 0.778380 -0.012751 -0.627664
vn 0.768994 -0.013472 -0.639114
vn 0.768994 -0.013472 -0.639114
vn 0.759439 -0.014189 -0.650424
vn -0.000000 0.000000 1.000000
vn 0.006441 -0.054518 0.998492
vn 0.006441 -0.054518 0.998492
vn 0.012863 -0.108871 0.993973
vn -0.000000 -1.000000 -0.000000
vn -0.000000 -1.000000 -0.000000
vn -0.000000 -1.000000 -0.000000
vn -0.000000 -1.000000 -0.000001
vn 0.000000 -1.000000 0.000000
vn 0.000000 -1.000000 0.000000
vn 0.000000 -1.000000 0.000000
vn 0.000000 -1.000000 0.000000
vn -0.000000 -1.000000 0.000000
vn -0.000000 -1.000000 -0.000000
vn -0.000000 -1.000000 -0.000000
vn -0.000000 -1.000000 -0.000000
vn -0.000000 0.000000 -1.000000
vn -0.000000 0.000000 -1.000000
vn -0.000000 0.000000 -1.000000
vn 0.000000 -0.000000 -1.000000
vn -1.000000 0.000000 0.000000
vn -1.000000 0.000000 0.000000
vn -1.000000 0.000000 0.000000
vn -1.000000 0.000000 0.000000
vn -1.000000 0.000000 0.000000
vn -1.000000 0.000000 0.000000
vn -1.000000 0.000000 0.000000
vn -1.000000 0.000000 0.000000
vn -1.000000 0.000000 0.000000
vn -1.000000 0.000000 0.000000
vn -1.000000 0.000000 0.000000
vn -1.000000 0.000000 0.000000
vn -1.000000 0.000000 0.000000
vn -0.568111 0.822951 0.000858
vn -0.619363 0.785099 -0.002855
vn -0.619363 0.785099 -0.002855
vn -0.668092 0.744050 -0.006557
vn -1.000000 0.000000 0.000000
vn -1.000000 0.000000 0.000000
vn -1.000000 0.000000 0.000000
vn 0.006653 -0.661224 0.750159
vn 0.005263 -0.645755 0.763526
vn 0.005263 -0.645755 0.763526
vn 0.003872 -0.630015 0.776573
vn -0.712559 0.003563 0.701604
vn -0.687209 0.005425 0.726439
vn -0.687209 0.005425 0.726439
vn -0.660992 0.007281 0.750358
vn 0.620232 -0.010802 0.784344
vn 0.712637 -0.023117 0.701152
vn 0.712637 -0.023117 0.701152
vn 0.793918 -0.035071 0.607013
vn -0.563240 -0.003292 -0.826287
vn -0.633651 0.001978 -0.773617
vn -0.633651 0.001978 -0.773617
vn -0.699145 0.007232 -0.714944
vn -0.711996 -0.702121 -0.009307
vn -0.710991 -0.703141 -0.009225
vn -0.710991 -0.703141 -0.009225
vn -0.709984 -0.704159 -0.009144
vn -0.680322 0.007559 0.732875
vn -0.696257 0.008799 0.717739
vn -0.696257 0.008799 0.717739
vn -0.711855 0.010035 0.702255
vn 0.000001 0.000000 1.000000
vn 0.000000 0.000000 1.000000
vn 0.000000 0.000000 1.000000
vn 0.000000 0.000000 1.000000
vn 1.000000 0.000000 0.000000
vn 1.000000 0.000000 0.000000
vn 1.000000 0.000000 0.000000
vn 1.000000 0.000000 0.000000
vn 0.999953 0.006860 0.006860
vn 0.999893 0.014650 -0.000236
vn 0.999822 0.018619 0.003003
vn 0.999821 0.018545 -0.003784
vn 0.999955 0.006712 -0.006712
vn 1.000000 0.000000 -0.000000
vn 1.000000 -0.000000 0.000000
vn 1.000000 -0.000000 0.000000
vn 1.000000 -0.000000 0.000000
vn -0.000001 0.000000 -1.000000
vn -0.000001 0.000000 -1.000000
vn -0.000001 0.000000 -1.000000
vn 0.000000 0.000000 -1.000000
vn -0.000000 0.000000 1.000000
vn -0.000000 0.000000 1.000000
vn -0.000000 0.000000 1.000000
vn 0.000000 0.000000 1.000000
vn -0.000000 -0.000000 -1.000000
vn -0.000000 -0.000000 -1.000000
vn -0.000000 -0.000000 -1.000000
vn -0.000000 0.000000 -1.000000
vn 0.012343 0.012343 0.999848
vn -0.064092 0.006190 0.997925
vn -0.064092 0.006190 0.997925
vn -0.140150 0.000000 0.990130
vn 0.000001 0.000000 -1.000000
vn -0.000000 0.000000 -1.000000
vn -0.000000 0.000000 -1.000000
vn -0.000001 0.000000 -1.000000
vn -1.000000 -0.000000 0.000000
vn -1.000000 -0.000000 0.000000
vn -1.000000 -0.000000 0.000000
vn -1.000000 0.000000 0.000000
vn -1.000000 0.000000 0.000000
vn -1.000000 -0.000000 0.000000
vn -1.000000 -0.000000 0.000000
vn -1.000000 -0.000000 0.000000
vn -1.000000 -0.000000 0.000000
vn -1.000000 -0.000000 0.000000
vn -1.000000 -0.000000 0.000000
vn -1.000000 0.000000 0.000000
vn 0.006712 0.999955 -0.006712
vn 0.013345 0.999911 -0.000028
vn 0.016587 0.999856 -0.003472
vn 0.016661 0.999856 0.003314
vn 0.006860 0.999953 0.006860
vn 0.000000 1.000000 -0.000000
vn 0.000000 1.000000 -0.000001
vn 0.000000 1.000000 -0.000001
vn 0.000000 1.000000 -0.000001
vn 0.000001 1.000000 0.000001
vn 0.000001 1.000000 0.000001
vn 0.000001 1.000000 0.000001
vn 0.000000 1.000000 0.000000
vn 0.000000 1.000000 0.000000
vn 0.000000 1.000000 0.000000
vn 0.000001 1.000000 0.000001
vn 0.000001 1.000000 0.000001
vn 0.000001 1.000000 0.000001
vn 0.000000 1.000000 -0.000000
vn 0.000000 1.000000 -0.000000
vn 0.000000 1.000000 -0.000000
vn 0.000000 1.000000 0.000000
vn 0.000000 1.000000 0.000000
vn 0.000000 1.000000 0.000000
vn 0.000000 1.000000 0.000000
vn 0.000000 1.000000 0.000000
vn -0.020775 0.670528 -0.741593
vn -0.020533 0.666634 -0.745103
vn -0.020533 0.666634 -0.745103
vn -0.020290 0.662721 -0.748592
vn -0.755694 0.654891 0.006626
vn -0.758372 0.651785 0.006921
vn -0.758372 0.651785 0.006921
vn -0.761037 0.648668 0.007215
vn -0.041916 0.684718 0.727602
vn -0.041678 0.678040 0.733843
vn -0.041678 0.678040 0.733843
vn -0.041436 0.671305 0.740022
vn 0.712850 0.701155 -0.015025
vn 0.720020 0.693801 -0.014515
vn 0.720020 0.693801 -0.014515
vn 0.727114 0.686374 -0.014004
vn 0.000000 1.000000 0.000000
vn 0.000000 1.000000 0.000000
vn 0.000000 1.000000 0.000000
f 16/23/1 15/22/2 10/17/3
f 17/24/4 16/23/5 10/17/6
f 18/25/7 17/24/8 10/17/9
f 15/22/10 18/25/11 10/17/12
f 17/24/13 18/25/14 13/20/15
f 13/20/15 18/25/14 14/21/16
f 25/31/17 24/32/18 19/26/19
f 26/33/20 25/31/21 19/26/22
f 27/34/23 26/33/24 19/26/25
f 24/32/26 27/34/27 19/26/28
f 34/40/29 33/41/30 28/35/31
f 35/42/32 34/40/33 28/35/34
f 33/41/35 36/43/36 28/35/37
f 33/41/38 34/40/39 29/37/40
f 29/37/40 34/40/39 30/36/41
f 36/43/42 35/42/43 28/35/44
f 24/32/45 20/28/46 27/34/47
f 27/34/47 20/28/46 23/30/48
f 32/39/49 31/38/50 36/43/51
f 36/43/51 31/38/50 35/42/52
f 35/42/53 31/38/54 34/40/55
f 34/40/55 31/38/54 30/36/56
f 33/41/57 29/37/58 36/43/59
f 36/43/59 29/37/58 32/39/60
f 43/49/61 42/50/62 37/44/63
f 44/51/64 43/49/65 37/44/66
f 45/52/67 44/51/68 37/44/69
f 42/50/70 45/52/71 37/44/72
f 26/33/73 27/34/74 22/29/75
f 22/29/75 27/34/74 23/30/76
f 26/33/77 22/29/78 25/31/79
f 25/31/79 22/29/78 21/27/80
f 24/32/81 25/31/82 20/28/83
f 20/28/83 25/31/82 21/27/84
f 44/51/85 40/47/86 43/49/87
f 43/49/87 40/47/86 39/45/88
f 8/80/89 2/10/90 20/28/91
f 20/28/91 2/10/90 23/30/92
f 29/37/93 2/2/94 32/39/95
f 32/39/95 2/2/94 8/11/96
f 43/49/97 39/45/98 42/50/99
f 42/50/99 39/45/98 38/46/100
f 38/46/101 41/48/102 42/50/103
f 42/50/103 41/48/102 45/52/104
f 44/51/105 45/52/106 40/47/107
f 40/47/107 45/52/106 41/48/108
f 2/71/109 13/20/110 1/1/111
f 1/1/111 13/20/110 14/21/112
f 22/29/113 23/30/114 1/9/115
f 1/9/115 23/30/114 2/10/116
f 21/27/117 22/29/118 7/7/119
f 7/7/119 22/29/118 1/9/120
f 21/27/121 7/7/122 20/28/123
f 20/28/123 7/7/122 8/80/124
f 41/48/125 38/46/126 7/79/127
f 7/79/127 38/46/126 8/8/128
f 47/55/129 7/13/130 48/54/131
f 48/54/131 7/13/130 1/73/132
f 52/58/133 51/59/134 46/53/135
f 53/60/136 52/58/137 46/53/138
f 54/61/139 53/60/140 46/53/141
f 51/59/142 52/58/143 48/54/144
f 48/54/144 52/58/143 47/55/145
f 51/59/146 54/61/147 46/53/148
f 16/23/149 11/19/150 15/22/151
f 15/22/151 11/19/150 12/18/152
f 17/24/153 13/20/154 16/23/155
f 16/23/155 13/20/154 11/19/156
f 12/18/157 14/21/158 15/22/159
f 15/22/159 14/21/158 18/25/160
f 51/59/161 48/54/162 54/61/163
f 54/61/163 48/54/162 49/56/164
f 54/61/165 49/56/166 53/60/167
f 53/60/167 49/56/166 50/57/168
f 52/58/169 53/60/170 47/55/171
f 47/55/171 53/60/170 50/57/172
f 11/19/173 13/20/174 4/76/175
f 4/76/175 13/20/174 2/71/176
f 29/37/177 30/36/178 2/2/179
f 2/2/179 30/36/178 4/72/180
f 6/12/181 9/16/182 31/38/183
f 31/38/183 9/16/182 30/36/184
f 9/16/182 4/72/185 30/36/184
f 6/12/186 31/38/187 8/11/188
f 8/11/188 31/38/187 32/39/189
f 38/46/190 39/45/191 8/8/192
f 8/8/192 39/45/191 6/78/193
f 11/19/194 4/76/195 12/18/196
f 12/18/196 4/76/195 3/75/197
f 40/47/198 5/77/199 39/45/200
f 39/45/200 5/77/199 6/78/201
f 12/18/202 3/75/203 14/21/204
f 14/21/204 3/75/203 1/1/205
f 5/77/206 40/47/207 7/79/208
f 7/79/208 40/47/207 41/48/209
f 50/57/210 49/56/211 5/14/212
f 5/14/212 49/56/211 3/74/213
f 1/73/214 3/74/215 48/54/216
f 48/54/216 3/74/215 49/56/217
f 50/57/218 5/14/219 47/55/220
f 47/55/220 5/14/219 7/13/221
f 4/4/222 9/15/223 56/63/224
f 56/63/224 9/15/223 59/66/225
f 9/15/223 6/6/226 59/66/225
f 4/4/227 56/63/228 3/3/229
f 3/3/229 56/63/228 57/64/230
f 61/67/231 60/68/232 55/62/233
f 63/69/234 62/70/235 55/62/236
f 62/70/237 61/67/238 55/62/239
f 58/65/240 59/66/241 5/5/242
f 5/5/242 59/66/241 6/6/243
f 58/65/244 5/5/245 57/64/246
f 57/64/246 5/5/245 3/3/247
f 57/64/248 56/63/249 60/68/250
f 60/68/250 56/63/249 63/69/251
f 59/66/252 62/70/253 56/63/254
f 56/63/254 62/70/253 63/69/255
f 62/70/256 59/66/257 61/67/258
f 61/67/258 59/66/257 58/65/259
f 60/68/260 61/67/261 57/64/262
f 57/64/262 61/67/261 58/65/263
f 60/68/264 63/69/265 55/62/266
