# This file uses centimeters as units for non-parametric coordinates.

v 0.455578 0.344187 0.000000
v 0.454466 -0.329386 0.000000
v -0.460666 -0.310105 0.000000
v -0.452274 0.318175 0.000000
v -0.032154 0.330212 0.000000
v -0.033698 -0.319101 0.000000
vt 0.948511 0.646043
vt 0.947420 0.558926
vt 0.049168 0.561420
vt 0.057405 0.642679
vt 0.469776 0.644236
vt 0.468260 0.560256
vn 0.000000 0.000000 1.000000
vn 0.000000 0.000000 1.000000
vn 0.000000 0.000000 1.000000
vn 0.000000 0.000000 1.000000
vn 0.000000 0.000000 1.000000
vn 0.000000 0.000000 1.000000
f 1/1/1 5/5/2 2/2/3
f 2/2/3 5/5/2 6/6/4
f 5/5/2 4/4/5 6/6/4
f 6/6/4 4/4/5 3/3/6
