# This file uses centimeters as units for non-parametric coordinates.

v -0.647019 -0.968638 0.000000
v 0.647019 -0.968638 0.000000
v -0.494441 0.500000 0.000000
v 0.494441 0.500000 0.000000
v -0.002217 0.500000 0.000000
v -0.005797 -1.062782 0.000000
v -0.502059 -0.042025 0.000000
v -0.003469 -0.036289 0.000000
v 0.503154 -0.030479 0.000000
v -0.514766 -0.329595 0.000000
v -0.004129 -0.319034 0.000000
v 0.516718 -0.308323 0.000000
v -0.505861 -0.197425 0.000000
v -0.003825 -0.189146 0.000000
v 0.507423 -0.180756 0.000000
v -0.640426 -0.829182 0.000000
v -0.005397 -0.825905 0.000000
v 0.640113 -0.822573 0.000000
v 0.431240 0.500000 0.000000
v 0.442210 -0.031091 0.000000
v 0.443407 -0.181682 0.000000
v 0.444425 -0.309655 0.000000
v 0.526383 -0.823127 0.000000
v 0.543137 -1.062782 0.000000
v -0.423859 0.500000 0.000000
v -0.441756 -0.041504 0.000000
v -0.443941 -0.196652 0.000000
v -0.445797 -0.328479 0.000000
v -0.537595 -0.828740 0.000000
v -0.538713 -1.062782 0.000000
v -0.529840 -0.394220 0.000000
v -0.456061 -0.414069 0.000000
v -0.004402 -0.403821 0.000000
v 0.448496 -0.390305 0.000000
v 0.531267 -0.384084 0.000000
v -0.557402 -0.525989 0.000000
v -0.474497 -0.537921 0.000000
v -0.004718 -0.535064 0.000000
v 0.465057 -0.520172 0.000000
v 0.559952 -0.521582 0.000000
vt 0.013376 0.535294
vt 0.988985 0.535294
vt 0.013376 0.667978
vt 0.988985 0.667978
vt 0.498993 0.667978
vt 0.496809 0.535294
vt 0.013376 0.603589
vt 0.497945 0.604270
vt 0.988985 0.604961
vt 0.013376 0.569427
vt 0.497392 0.570682
vt 0.988985 0.571954
vt 0.013376 0.585128
vt 0.497646 0.586112
vt 0.988985 0.587109
vt 0.013376 0.551860
vt 0.497088 0.552250
vt 0.988985 0.552646
vt 0.940739 0.667978
vt 0.937235 0.604888
vt 0.934720 0.586999
vt 0.927881 0.571796
vt 0.907236 0.552580
vt 0.915529 0.535294
vt 0.058077 0.667978
vt 0.057405 0.603651
vt 0.058637 0.585220
vt 0.064533 0.569560
vt 0.078705 0.551913
vt 0.082165 0.535294
vt 0.013376 0.561750
vt 0.072698 0.559392
vt 0.497226 0.560610
vt 0.917588 0.562216
vt 0.988985 0.562954
vt 0.013376 0.557162
vt 0.075628 0.555744
vt 0.497152 0.556084
vt 0.912901 0.557853
vt 0.988985 0.557685
vn 0.000000 0.000000 1.000000
vn 0.000000 0.000000 1.000000
vn 0.000000 0.000000 1.000000
vn 0.000000 0.000000 1.000000
vn 0.000000 0.000000 1.000000
vn 0.000000 0.000000 1.000000
vn 0.000000 0.000000 1.000000
vn 0.000000 0.000000 1.000000
vn 0.000000 0.000000 1.000000
vn 0.000000 0.000000 1.000000
vn 0.000000 0.000000 1.000000
vn 0.000000 0.000000 1.000000
vn 0.000000 0.000000 1.000000
vn 0.000000 0.000000 1.000000
vn 0.000000 0.000000 1.000000
vn 0.000000 0.000000 1.000000
vn 0.000000 0.000000 1.000000
vn 0.000000 0.000000 1.000000
vn 0.000000 0.000000 1.000000
vn 0.000000 0.000000 1.000000
vn 0.000000 0.000000 1.000000
vn 0.000000 0.000000 1.000000
vn 0.000000 0.000000 1.000000
vn 0.000000 0.000000 1.000000
vn 0.000000 0.000000 1.000000
vn 0.000000 0.000000 1.000000
vn 0.000000 0.000000 1.000000
vn 0.000000 0.000000 1.000000
vn 0.000000 0.000000 1.000000
vn 0.000000 0.000000 1.000000
vn 0.000000 0.000000 1.000000
vn 0.000000 0.000000 1.000000
vn 0.000000 0.000000 1.000000
vn 0.000000 0.000000 1.000000
vn 0.000000 0.000000 1.000000
vn 0.000000 0.000000 1.000000
vn 0.000000 0.000000 1.000000
vn 0.000000 0.000000 1.000000
vn 0.000000 0.000000 1.000000
vn 0.000000 0.000000 1.000000
f 19/19/1 20/20/2 4/4/3
f 4/4/3 20/20/2 9/9/4
f 26/26/5 8/8/6 25/25/7
f 25/25/7 8/8/6 5/5/8
f 27/27/9 14/14/10 26/26/5
f 26/26/5 14/14/10 8/8/6
f 20/20/2 21/21/11 9/9/4
f 9/9/4 21/21/11 15/15/12
f 32/32/13 33/33/14 28/28/15
f 28/28/15 33/33/14 11/11/16
f 22/22/17 34/34/18 12/12/19
f 12/12/19 34/34/18 35/35/20
f 28/28/15 11/11/16 27/27/9
f 27/27/9 11/11/16 14/14/10
f 21/21/11 22/22/17 15/15/12
f 15/15/12 22/22/17 12/12/19
f 30/30/21 6/6/22 29/29/23
f 29/29/23 6/6/22 17/17/24
f 18/18/25 23/23/26 2/2/27
f 2/2/27 23/23/26 24/24/28
f 5/5/8 8/8/6 19/19/1
f 19/19/1 8/8/6 20/20/2
f 20/20/2 8/8/6 21/21/11
f 21/21/11 8/8/6 14/14/10
f 21/21/11 14/14/10 22/22/17
f 22/22/17 14/14/10 11/11/16
f 33/33/14 34/34/18 11/11/16
f 11/11/16 34/34/18 22/22/17
f 24/24/28 23/23/26 6/6/22
f 6/6/22 23/23/26 17/17/24
f 7/7/29 26/26/5 3/3/30
f 3/3/30 26/26/5 25/25/7
f 13/13/31 27/27/9 7/7/29
f 7/7/29 27/27/9 26/26/5
f 10/10/32 28/28/15 13/13/31
f 13/13/31 28/28/15 27/27/9
f 31/31/33 32/32/13 10/10/32
f 10/10/32 32/32/13 28/28/15
f 30/30/21 29/29/23 1/1/34
f 1/1/34 29/29/23 16/16/35
f 37/37/36 32/32/13 36/36/37
f 36/36/37 32/32/13 31/31/33
f 33/33/14 32/32/13 38/38/38
f 38/38/38 32/32/13 37/37/36
f 39/39/39 34/34/18 38/38/38
f 38/38/38 34/34/18 33/33/14
f 34/34/18 39/39/39 35/35/20
f 35/35/20 39/39/39 40/40/40
f 16/16/35 29/29/23 36/36/37
f 36/36/37 29/29/23 37/37/36
f 38/38/38 37/37/36 17/17/24
f 17/17/24 37/37/36 29/29/23
f 23/23/26 39/39/39 17/17/24
f 17/17/24 39/39/39 38/38/38
f 39/39/39 23/23/26 40/40/40
f 40/40/40 23/23/26 18/18/25
