# This file uses centimeters as units for non-parametric coordinates.

v -0.587336 -0.592821 0.000000
v 0.592423 -0.640679 0.000000
v -0.475735 0.546326 0.000000
v 0.502303 0.514286 0.000000
v -0.017874 0.530317 0.000000
v -0.017501 -0.600778 0.000000
v -0.529832 -0.009627 0.000000
v -0.015988 0.077739 0.000000
v 0.539360 -0.049355 0.000000
v 0.214425 0.530317 0.000000
v 0.247728 0.076142 0.000000
v 0.274714 -0.600778 0.000000
v -0.250297 0.530317 0.000000
v -0.280388 0.079340 0.000000
v -0.311720 -0.600778 0.000000
v -0.351389 0.530317 0.000000
v -0.502309 0.272702 0.000000
v 0.317778 0.530317 0.000000
v 0.516839 0.241697 0.000000
vt 0.006961 0.529850
vt 0.992918 0.529850
vt 0.006961 0.675001
vt 0.992918 0.675001
vt 0.484843 0.675002
vt 0.484903 0.529850
vt 0.006961 0.611003
vt 0.484870 0.610547
vt 0.992918 0.610063
vt 0.723917 0.675002
vt 0.723940 0.610320
vt 0.723945 0.529850
vt 0.245103 0.675002
vt 0.244938 0.610775
vt 0.244791 0.529850
vt 0.135061 0.675002
vt 0.006961 0.641416
vt 0.833096 0.675002
vt 0.992918 0.640021
vn 0.000000 0.000000 1.000000
vn 0.000000 0.000000 1.000000
vn 0.000000 0.000000 1.000000
vn 0.000000 0.000000 1.000000
vn 0.000000 0.000000 1.000000
vn 0.000000 0.000000 1.000000
vn 0.000000 0.000000 1.000000
vn 0.000000 0.000000 1.000000
vn 0.000000 0.000000 1.000000
vn 0.000000 0.000000 1.000000
vn 0.000000 0.000000 1.000000
vn 0.000000 0.000000 1.000000
vn 0.000000 0.000000 1.000000
vn 0.000000 0.000000 1.000000
vn 0.000000 0.000000 1.000000
vn 0.000000 0.000000 1.000000
vn 0.000000 0.000000 1.000000
vn 0.000000 0.000000 1.000000
vn 0.000000 0.000000 1.000000
f 10/10/1 11/11/2 18/18/3
f 14/14/4 5/5/5 13/13/6
f 14/14/4 6/6/7 8/8/8
f 9/9/9 11/11/2 2/2/10
f 5/5/5 11/11/2 10/10/1
f 12/12/11 8/8/8 6/6/7
f 3/3/12 14/14/4 16/16/13
f 1/1/14 15/15/15 14/14/4
f 1/1/14 14/14/4 7/7/16
f 7/7/16 14/14/4 17/17/17
f 4/4/18 11/11/2 19/19/19
f 2/2/10 11/11/2 12/12/11
f 8/8/8 12/12/11 11/11/2
f 11/11/2 5/5/5 8/8/8
f 5/5/5 14/14/4 8/8/8
f 14/14/4 15/15/15 6/6/7
f 16/16/13 14/14/4 13/13/6
f 17/17/17 14/14/4 3/3/12
f 18/18/3 11/11/2 4/4/18
f 19/19/19 11/11/2 9/9/9
