# This file uses centimeters as units for non-parametric coordinates.

v -0.500000 -0.515989 0.000000
v 0.495055 -0.515989 0.000000
v -0.605018 0.539962 0.000000
v 0.601689 0.539962 0.000000
v -0.013715 0.539962 0.000000
v -0.009406 -0.515989 0.000000
v -0.302178 0.539962 0.000000
v -0.287312 -0.515989 0.000000
v 0.204742 -0.515989 0.000000
v 0.306346 0.539962 0.000000
v -0.543930 -0.031247 0.000000
v -0.288702 -0.040069 0.000000
v -0.010515 -0.049685 0.000000
v 0.249984 -0.058689 0.000000
v 0.537600 -0.068631 0.000000
vt 0.006961 0.529850
vt 0.992918 0.529850
vt 0.006961 0.675001
vt 0.992918 0.675001
vt 0.490094 0.675002
vt 0.490665 0.529850
vt 0.235681 0.675002
vt 0.235381 0.529850
vt 0.727866 0.529850
vt 0.725544 0.675002
vt 0.006961 0.600211
vt 0.235524 0.598931
vt 0.490399 0.597535
vt 0.726804 0.596228
vt 0.992918 0.594785
vn 0.000000 0.000000 1.000000
vn 0.000000 0.000000 1.000000
vn 0.000000 0.000000 1.000000
vn 0.000000 0.000000 1.000000
vn 0.000000 0.000000 1.000000
vn 0.000000 0.000000 1.000000
vn 0.000000 0.000000 1.000000
vn 0.000000 0.000000 1.000000
vn 0.000000 0.000000 1.000000
vn 0.000000 0.000000 1.000000
vn 0.000000 0.000000 1.000000
vn 0.000000 0.000000 1.000000
vn 0.000000 0.000000 1.000000
vn 0.000000 0.000000 1.000000
vn 0.000000 0.000000 1.000000
f 5/5/1 14/14/2 10/10/3
f 13/13/4 7/7/5 12/12/6
f 11/11/7 12/12/6 3/3/8
f 4/4/9 14/14/2 15/15/10
f 1/1/11 8/8/12 12/12/6
f 6/6/13 12/12/6 8/8/12
f 14/14/2 6/6/13 9/9/14
f 2/2/15 14/14/2 9/9/14
f 3/3/8 12/12/6 7/7/5
f 1/1/11 12/12/6 11/11/7
f 14/14/2 2/2/15 15/15/10
f 14/14/2 4/4/9 10/10/3
f 7/7/5 13/13/4 5/5/1
f 14/14/2 5/5/1 13/13/4
f 6/6/13 14/14/2 13/13/4
f 12/12/6 6/6/13 13/13/4
