# This file uses centimeters as units for non-parametric coordinates.

v 7.414364 7.726686 -3.877293
v -2.419250 1.593345 1.448941
v -2.483548 1.593361 6.480298
v 2.234253 1.593345 1.809281
v 2.249872 1.593361 6.465899
v 6.925074 3.479970 -8.801464
v 8.379582 1.593361 6.443592
v 8.295862 1.593360 1.809581
v -7.718879 3.069351 -8.690276
v -9.524671 1.593361 6.503832
v -9.459809 1.593360 1.448943
v -7.770853 3.101224 -0.795650
v -9.775247 7.639956 -0.921556
v 8.569417 6.057471 -0.767598
v -2.418864 1.593355 -3.943698
v 2.230962 1.593546 -3.954635
v -9.773379 7.645745 1.448892
v -2.400511 2.223453 -3.945192
v 8.318353 2.679005 1.784792
v 2.247808 2.667591 -3.959416
v 2.233512 2.678973 1.789995
v -2.419393 2.223453 1.448981
v 8.422810 2.679008 6.487976
v -9.776655 2.666470 6.472759
v -9.777035 2.569444 1.448905
v -7.770853 3.101223 1.449000
v -4.407535 2.223453 1.436765
v -4.329679 2.223453 -5.464812
v -4.330388 2.569717 -5.464811
v -4.407677 2.570159 1.426526
v -6.186893 2.569650 -6.980343
v -6.186173 2.573714 1.421996
v -6.186883 3.069348 -6.980305
v -6.186896 3.101223 1.449117
v 3.956683 2.223453 -5.464740
v 5.149520 2.223453 -6.980366
v 5.149500 3.480006 -6.980366
v -7.809487 7.649412 -0.919110
v -7.811604 7.651459 1.448974
v -9.362494 2.569387 1.448944
v -9.447113 2.666423 6.479634
v -6.186910 1.593352 1.448942
v -7.767946 1.593355 1.448942
v -4.330127 1.593349 1.436733
v -6.165076 3.122471 -0.899645
v -6.186900 2.569860 -0.899602
v -7.718886 3.060484 -0.925091
v -8.768294 8.631010 0.422336
v -9.473299 7.636207 -0.642122
v -8.123665 7.641488 -0.643871
v -8.127012 7.643763 1.084569
v -9.474241 7.640368 1.085988
v 2.233089 2.679003 1.419846
v 8.568812 2.679005 1.420834
v 8.685740 2.679005 6.455035
v 6.874954 2.679003 1.414812
v 8.570399 6.064031 1.420553
v 6.876091 6.069510 1.420772
v 7.732430 7.164130 0.262720
v 8.415103 6.064845 1.219921
v 7.084778 6.056127 1.220728
v 7.086933 6.056787 -0.538169
v 8.413340 6.060843 -0.600818
v 6.875106 1.593355 1.809485
v 6.874935 2.679003 1.786260
v 2.573591 2.672009 -3.957509
v 2.592883 2.679003 1.418269
v 2.230015 2.223453 -5.464760
v 2.229778 2.223453 -3.954720
v 2.592865 2.678973 1.418107
v 2.592882 2.223453 1.418429
v 2.248060 1.593471 -0.643481
v 2.242479 2.679000 -1.544641
v -2.280147 2.223453 -5.464809
v -2.278029 2.569824 -5.464807
v -2.276894 2.569595 -6.980297
v -2.273170 3.069342 -6.980256
v -2.267609 3.069313 -8.690276
v -2.280498 2.569533 -8.690276
v -2.280203 2.223453 -6.980353
v -0.043964 1.593463 -3.954596
v -0.051600 2.223453 -3.954663
v -0.051788 2.223453 -5.464788
v -0.051297 2.223453 -6.980369
v -0.051350 2.569643 -6.980301
v -0.051268 2.569516 -8.690280
v -0.051185 2.223453 -8.690280
v 1.642407 2.223453 -6.978258
v 1.648399 2.119514 -8.690283
v 2.720675 2.223453 -6.980366
v 2.781506 2.223453 -8.633101
v 4.018962 3.480006 -8.781797
v 3.998637 3.480010 -6.980366
v 6.876091 2.713512 1.420932
v 3.951159 2.223453 1.415623
v 5.096247 2.223453 -1.013215
v 5.096243 3.480006 -2.336205
v 6.876087 2.223453 1.401701
v 6.876090 2.223459 -0.375860
v 6.876091 4.675991 1.420831
v 6.876090 4.680839 -0.375732
v 6.876091 4.680815 1.053175
v 6.875106 2.223460 0.538131
v 3.952048 2.223453 0.537576
v 3.953146 2.223453 -1.032604
v 2.604473 2.223453 -1.495954
v 3.954131 2.223453 -1.499368
v 5.096253 2.223453 -3.199382
v 3.955036 2.223453 -3.199456
v 2.592860 2.223453 -3.961416
v 3.955912 2.223453 -3.976141
v -6.186886 3.069443 -2.996475
v -6.186897 2.569763 -2.995616
v -7.718887 3.069408 -2.971969
v -6.186884 3.069376 -5.464842
v -7.718887 3.069376 -5.464850
v -6.186894 2.569685 -5.464841
v -4.283116 2.569634 -6.980330
v 3.965924 2.223453 -6.980366
v 5.150559 3.480006 -4.899968
v 6.925694 3.517250 -4.891194
v 5.124925 3.454058 -3.207232
v 6.890286 3.480202 -3.199555
v 6.876091 2.706809 1.053181
v 8.555077 2.679008 1.752877
v 2.604478 2.686414 -1.544671
v 2.233950 1.593364 1.441713
v 6.876087 2.223459 1.053180
v -4.329722 2.223453 -3.945117
v -6.186898 2.569803 -1.662980
v -4.329812 2.223453 -1.666045
v -2.465637 2.223453 -1.670216
v -4.330287 2.569897 -1.663976
v -2.432117 1.593352 -1.669180
v -6.217922 3.069342 -8.690276
v 3.312506 2.755975 -8.781646
v 3.312505 10.158187 -8.783617
v 3.312506 3.485311 -8.784123
v 4.756820 3.480006 -8.782220
v 4.761900 10.158186 -8.783609
v 3.312504 10.158187 -9.992780
v 3.312504 3.485138 -9.992784
v -1.484300 2.569524 -8.690276
v -1.487433 10.923857 -10.193315
v -1.487434 3.132138 -10.193305
v -2.976276 3.069319 -8.690276
v -2.976218 10.923856 -10.197237
v 6.150743 10.556802 -9.915526
v 7.426607 0.435682 -8.801463
v 7.426782 10.607984 -8.801463
v 6.890285 3.480202 -3.917416
v 6.917531 4.725004 -3.916804
v 8.058888 7.731099 -3.027864
v 6.876090 4.670757 -0.767559
v 6.876090 6.066672 -0.767613
v 6.890593 3.480202 -2.511281
v 6.912265 4.724315 -2.511308
v 7.029304 7.726273 -2.780335
v 6.890267 2.223453 -1.016634
v 6.890286 3.480006 -2.314051
v 6.876090 2.223453 -0.767792
v 6.926235 3.533305 -7.034186
v 8.057995 4.733782 -2.499047
v 7.466466 5.407371 -8.801463
v 6.150743 5.413932 -9.850503
v 6.150743 5.405867 -8.801463
v 6.150743 3.479995 -8.801464
v 6.150743 10.607984 -8.801463
v 3.312506 4.616556 -8.783739
v 4.758227 4.615791 -8.783753
v 3.312505 7.027140 -8.783655
v 4.760856 7.026924 -8.783655
v 5.104227 2.223453 -4.927974
v 6.904997 6.154387 -2.511315
v 6.950871 6.166427 -3.902480
v 8.057995 6.163897 -2.499048
v 8.059189 -0.211900 -2.511530
v -3.488509 3.069322 -8.690276
v -7.505354 4.023021 -8.690274
v -3.488513 4.023016 -8.690274
v -4.183876 4.023016 -8.690274
v -4.183887 5.115027 -8.690274
v -4.894327 5.115027 -8.690274
v -4.894403 6.230042 -8.690274
v -6.007992 6.230042 -8.690274
v -6.008008 5.114995 -8.690274
v -6.664821 5.114995 -9.737761
v -6.664820 4.023021 -8.690274
v -4.894404 6.230041 -9.737666
v -6.007992 6.230041 -9.737619
v -6.007814 5.114994 -9.740172
v -4.925507 5.115027 -9.737761
v -4.183941 5.115027 -9.749979
v -4.227538 4.023016 -9.732945
v -3.488515 4.023016 -9.733134
v -6.664807 4.023021 -9.737738
v -7.505342 4.023021 -9.737738
v -3.488503 1.943304 -9.732969
v -6.664818 5.114995 -8.690274
v -7.504252 3.069350 -8.690276
v -6.017555 3.069340 -8.690276
v -5.454825 5.115027 -8.690274
v -6.018107 4.023021 -8.690274
v -5.456008 4.023019 -8.690274
v -4.823983 3.069331 -8.690276
v -4.822822 4.023020 -8.690274
v 3.312505 0.980924 -9.992812
v 3.312503 0.994763 -8.789368
v 6.150743 1.106050 -9.799296
v -7.781933 4.454591 1.448992
v -9.776359 4.452286 1.448900
v -7.799286 6.503706 -0.886513
v -7.801511 6.501924 1.448981
v -9.775654 6.502653 1.448895
v -8.899741 1.899078 -1.595625
v -8.864706 6.011271 -3.979182
v 6.150743 3.605362 -9.802074
v 6.150743 1.007685 -8.758986
v 7.427359 3.526479 -8.801464
v 6.928672 0.434543 -8.804009
v 8.059190 3.488130 -2.511530
v 6.877649 -0.191222 -2.510488
v 7.965883 7.723455 -3.554025
v -7.718887 3.069379 -5.124925
v -7.718887 3.069425 -1.595855
v -7.718887 3.876087 -1.596023
v -7.718886 3.876034 -5.125092
v -7.718886 3.876044 -4.507378
v -7.718887 3.876076 -2.312265
v -7.718887 4.963943 -2.312210
v -7.718886 4.963889 -4.507560
v -7.718887 4.963897 -3.977582
v -7.718887 4.963927 -2.903283
v -7.718887 6.010733 -2.912443
v -7.718887 6.010652 -3.979077
v -8.874641 4.963859 -2.294072
v -8.872789 4.963856 -2.879542
v -8.867227 6.011059 -2.898876
v -8.889626 4.963857 -4.507227
v -8.888117 3.875833 -5.124079
v -8.888180 3.875917 -4.506207
v -8.889089 4.963848 -3.980275
v -8.878288 3.875909 -2.296761
v -8.878904 3.875929 -1.595791
v -7.718887 3.069410 -2.833453
v -7.718887 3.876067 -2.833598
v -7.718887 4.963914 -3.405914
v -7.718887 3.876060 -3.405980
v -7.718887 3.069393 -4.097114
v -7.718887 3.876049 -4.095441
v -1.484330 3.128423 -8.690276
v -1.484156 10.923857 -8.690259
v -2.976171 10.923856 -8.690260
v -2.976272 0.672785 -10.195662
v 7.842709 6.136812 -0.767606
v 8.044786 6.022270 -0.767603
v 3.953043 2.223453 -0.769794
v 5.082851 2.223453 -0.769805
v -1.480499 0.502297 -8.691025
v -1.487454 0.502747 -10.193400
v -1.487444 2.570539 -10.193353
v -2.971727 0.571287 -8.560328
v -2.976255 2.948804 -10.196157
v -2.282495 10.923856 -8.690260
v -8.878804 3.056963 -1.595662
v -7.718886 1.899826 -1.595831
v -3.488504 3.206233 -9.732985
v -3.488509 1.943623 -8.770927
v -7.799768 6.503319 -0.379864
v -7.770853 3.101224 -0.290659
v -7.800955 6.502369 0.865400
v -7.781322 3.101223 0.944459
v -9.917451 3.101448 1.097699
v -9.802884 6.653972 1.047374
v -9.780623 3.101430 -0.303996
v -9.722614 6.646514 -0.356651
v 2.592758 1.593347 1.809307
v 2.592758 2.678977 1.789480
v 0.047812 2.223453 -6.980245
v 0.039899 1.593466 -3.954597
v 0.049556 2.223453 -3.954666
v 0.044404 2.223453 -5.464787
v -1.088399 1.593386 -1.376751
v 0.756711 1.593433 -0.971242
v 6.150743 7.286656 -8.801463
v 6.150743 7.288517 -9.879492
v 7.465662 7.286422 -8.801463
v 7.514281 7.726364 -2.576346
v 7.477206 6.154387 -2.511392
v 6.907964 6.154387 -3.350663
v 6.898515 7.726364 -3.334487
v 7.487857 7.725346 -3.273925
v 8.057892 6.154572 -3.056989
v 7.029160 6.154393 -2.780084
v 7.328694 6.154337 -3.774778
v 7.749616 6.154395 -3.917494
v 6.991642 7.726971 -3.662363
v 7.099405 6.154266 -3.644453
v 7.703183 7.725204 -3.796217
v 8.073496 7.710824 -3.331743
v 7.878905 6.154469 -2.680834
v 7.871656 7.721683 -2.757173
v 8.486085 2.223220 1.052496
v 8.486087 4.681617 1.052213
v 8.346380 2.223227 -0.378012
v 8.330035 4.681541 -0.380049
v 8.569846 4.704908 1.420651
v 7.738606 6.066720 1.420661
v 7.724821 4.690481 1.420741
v -2.416281 2.223453 -1.740528
v -1.528467 4.848639 -8.690270
v -1.531633 4.785473 -10.193308
v -2.272946 4.810996 -8.690270
v -2.976239 4.777428 -8.690270
v -2.976241 4.809069 -10.196561
v -2.943288 4.761712 -8.711807
v -1.484269 4.816154 -8.690270
v -1.487434 4.755271 -10.193308
v -6.191803 3.101224 -0.871552
v -7.770878 3.101224 -0.870269
v -6.202698 2.563928 1.470571
v -9.776995 2.681330 1.448905
v -7.769918 2.616314 1.448981
v -2.976176 7.711173 -8.690261
v -2.976220 7.667313 -10.197181
v -1.490583 7.703036 -10.193315
v -1.486908 7.735793 -8.690260
v -2.281869 7.722651 -8.690261
v 4.761779 8.475298 -8.783615
v 3.312505 8.475598 -8.783621
v 3.312504 8.475383 -9.992780
v -7.857931 3.101233 -0.291237
v 6.876090 3.038191 -0.375816
v 6.921042 3.038283 -0.767714
v 8.337224 3.039582 -0.379153
v 8.486086 3.039575 1.052327
v 7.749225 6.060543 1.220319
v 5.155445 3.480006 -3.225061
v 6.890927 3.480014 -4.880135
v 3.312504 4.614002 -9.992783
v 3.312504 7.029024 -9.992781
v 3.240786 4.687369 -9.992783
v 4.707674 4.663805 -8.783751
v 4.707514 6.996374 -8.783656
v 1.603416 2.223453 -8.690283
v 1.705378 2.223453 -8.687407
v 2.611435 2.642008 -3.967999
v 2.219671 2.629950 -3.964083
v 2.219111 2.654351 -1.510229
v 2.581065 2.661603 -1.506168
v 6.891865 3.492225 -7.020062
v 6.984565 4.746696 -3.889693
v 6.957987 4.798862 -3.900499
v 8.059200 4.701493 -2.511524
v 7.241984 7.726316 -2.658937
v 7.229449 6.154390 -2.612701
v 6.949130 7.726319 -3.026698
v 6.948795 6.154391 -3.026590
v -6.186547 2.211442 1.435665
v -7.768834 2.211355 1.448960
v -6.200197 2.205641 1.476972
v -7.770285 3.101223 0.961480
v -7.770500 3.101223 0.963230
v -4.306778 2.223453 1.437391
v 5.164951 3.455463 -3.217333
v 6.911207 4.663568 -2.511307
v 8.513554 4.726951 1.426555
v 6.066033 5.402723 -9.849496
v 7.428425 5.363021 -8.801463
v 8.559176 2.679008 1.869351
v 8.556931 2.588902 1.805560
v 8.321879 2.679005 1.851291
v 8.559237 2.679008 1.871081
v -2.599903 2.671245 6.482831
v 2.162056 2.674598 6.485054
v -9.776655 2.666470 6.705925
v -9.447113 2.666423 6.706505
v 8.422810 2.679008 6.687094
v 8.685740 2.679005 6.685447
v -2.599903 2.671245 6.723093
v 2.162056 2.674598 6.722718
v -9.504371 1.593361 4.921779
v -9.451235 2.638315 4.960550
v -9.776708 2.653139 4.958858
v -9.753433 2.585399 5.008519
v -9.477612 2.572373 4.994442
v 8.525615 2.744461 1.414373
v 8.568868 2.786171 1.420825
v 8.588352 4.743022 1.418497
v -7.788915 3.876038 -1.595952
v -7.797030 3.065458 -1.595793
v -7.825075 1.899567 -1.595760
v -2.381325 1.593352 -1.729225
v -4.899984 5.146760 -9.780388
v -4.183895 4.046370 -9.739524
v -7.787717 4.459841 0.918705
v -7.805534 4.444180 0.918996
v -7.780799 4.231081 -0.321343
v -7.780145 4.213207 -0.825345
v -7.837884 4.233473 -0.321784
v -7.795309 4.201305 -0.824402
v -7.811351 4.444767 0.920692
v -9.857190 4.315288 1.071229
v -9.750548 4.284659 -0.331296
v 6.876090 3.091339 -0.767709
v 6.876090 2.993101 -0.767718
v 6.907372 4.665191 1.035638
v 6.907372 4.661791 1.403296
v 6.907562 4.670212 -0.375732
v 6.907562 4.659243 -0.767560
v -7.828811 6.472683 -0.379075
v -7.828351 6.475855 -0.885769
v -7.829578 6.472880 -0.379085
v -7.854593 6.480867 1.426775
v -9.756449 6.480784 1.448895
v -7.854215 6.487096 0.888333
v -7.783936 6.450040 1.448981
v -7.783553 6.440438 0.867679
v -9.819088 4.433212 1.448900
v 2.592882 2.250273 1.418419
v 2.592881 2.250286 1.418410
v 2.602998 2.251059 -1.496598
v 2.604474 2.252848 -1.499047
v 5.782779 2.678996 1.787081
v 5.928269 1.593353 1.809446
v 4.847208 1.593361 6.456447
v 6.402394 2.223459 0.538041
v 6.113718 2.223453 1.405329
v 5.986578 2.678997 1.415496
v 4.773188 10.158186 -9.966743
v 7.398489 10.578112 -9.934789
vt 0.767054 0.887375
vt 0.380293 0.291550
vt 0.357007 0.041144
vt 0.594623 0.253966
vt 0.610220 0.027303
vt 0.709821 0.784447
vt 0.906585 0.260127
vt 0.973990 0.034814
vt 0.307162 0.781108
vt 0.032678 0.056972
vt 0.120194 0.299675
vt 0.179254 0.736509
vt 0.226059 0.540922
vt 0.786541 0.646321
vt 0.411818 0.569772
vt 0.577226 0.571387
vt 0.045702 0.637992
vt 0.411805 0.607073
vt 0.911576 0.354296
vt 0.581076 0.606319
vt 0.597539 0.345733
vt 0.378207 0.335015
vt 0.993902 0.137602
vt 0.080897 0.385955
vt 0.006730 0.207132
vt 0.190360 0.429811
vt 0.317103 0.336477
vt 0.376431 0.647217
vt 0.373403 0.682645
vt 0.313115 0.382625
vt 0.340694 0.714460
vt 0.255503 0.383724
vt 0.338498 0.751422
vt 0.248215 0.428596
vt 0.636168 0.648886
vt 0.675001 0.685624
vt 0.678545 0.756440
vt 0.207906 0.738143
vt 0.164613 0.637369
vt 0.020865 0.167068
vt 0.108701 0.387104
vt 0.260809 0.294887
vt 0.207140 0.297116
vt 0.322460 0.292322
vt 0.281463 0.543509
vt 0.284199 0.499299
vt 0.232583 0.547939
vt 0.114838 0.793292
vt 0.179295 0.720897
vt 0.178900 0.732405
vt 0.069337 0.656491
vt 0.153166 0.662389
vt 0.595426 0.378081
vt 0.922218 0.388516
vt 0.990988 0.225540
vt 0.807593 0.381846
vt 0.936202 0.541297
vt 0.819110 0.537286
vt 0.867851 0.695245
vt 0.910497 0.558781
vt 0.833696 0.556566
vt 0.805797 0.635983
vt 0.806486 0.255565
vt 0.816823 0.349384
vt 0.601816 0.605246
vt 0.624904 0.378114
vt 0.601191 0.648544
vt 0.579593 0.605039
vt 0.627264 0.374832
vt 0.626889 0.377840
vt 0.583560 0.450713
vt 0.583751 0.534234
vt 0.461554 0.647766
vt 0.460003 0.684877
vt 0.463112 0.717401
vt 0.462658 0.753039
vt 0.465822 0.784020
vt 0.465777 0.750727
vt 0.463962 0.684222
vt 0.502690 0.570691
vt 0.501774 0.608485
vt 0.502705 0.648052
vt 0.503759 0.684719
vt 0.502992 0.718360
vt 0.503318 0.750145
vt 0.505029 0.714772
vt 0.548690 0.683910
vt 0.547162 0.714629
vt 0.589400 0.684174
vt 0.588113 0.716227
vt 0.629275 0.786431
vt 0.633197 0.757487
vt 0.804570 0.390211
vt 0.679364 0.356938
vt 0.711114 0.603863
vt 0.715985 0.466385
vt 0.767312 0.467872
vt 0.761892 0.605275
vt 0.800140 0.347333
vt 0.770589 0.459987
vt 0.777929 0.433111
vt 0.782722 0.599931
vt 0.790037 0.575231
vt 0.814700 0.484662
vt 0.806361 0.513733
vt 0.785897 0.403939
vt 0.673369 0.402759
vt 0.664170 0.466309
vt 0.611983 0.514790
vt 0.657598 0.515197
vt 0.698270 0.564207
vt 0.650613 0.563261
vt 0.601666 0.607372
vt 0.643216 0.608779
vt 0.306488 0.640900
vt 0.310686 0.600173
vt 0.263249 0.642143
vt 0.328060 0.717486
vt 0.288633 0.718904
vt 0.332225 0.683608
vt 0.378537 0.715369
vt 0.630789 0.685060
vt 0.717545 0.756769
vt 0.694837 0.688919
vt 0.738674 0.687845
vt 0.702195 0.646723
vt 0.750778 0.646995
vt 0.797756 0.417368
vt 0.936266 0.356752
vt 0.607973 0.534092
vt 0.593329 0.276109
vt 0.795205 0.371585
vt 0.368289 0.608146
vt 0.299722 0.558417
vt 0.399823 0.515275
vt 0.351721 0.515839
vt 0.350020 0.557049
vt 0.401816 0.479970
vt 0.344698 0.782350
vt 0.604946 0.748103
vt 0.604664 0.786533
vt 0.608961 0.925945
vt 0.643844 0.785834
vt 0.650690 0.926075
vt 0.602470 0.808831
vt 0.606695 0.925581
vt 0.482425 0.750879
vt 0.481845 0.784418
vt 0.482920 0.899552
vt 0.441884 0.783690
vt 0.439746 0.898526
vt 0.689852 0.993026
vt 0.724703 0.758117
vt 0.735455 0.976901
vt 0.745941 0.662468
vt 0.750060 0.711291
vt 0.817199 0.879120
vt 0.754900 0.633259
vt 0.759790 0.677682
vt 0.779542 0.869149
vt 0.806905 0.675750
vt 0.729936 0.825366
vt 0.691894 0.825801
vt 0.687604 0.845320
vt 0.690150 0.784655
vt 0.694346 0.976591
vt 0.605151 0.825306
vt 0.644168 0.825443
vt 0.607506 0.897807
vt 0.649282 0.897409
vt 0.690823 0.605861
vt 0.765689 0.765874
vt 0.755403 0.802384
vt 0.814673 0.765198
vt 0.803952 0.652369
vt 0.330664 0.914739
vt 0.328020 0.820835
vt 0.306711 0.819554
vt 0.429080 0.783513
vt 0.426398 0.822335
vt 0.408901 0.823070
vt 0.406218 0.895567
vt 0.384327 0.897839
vt 0.381854 0.974145
vt 0.341404 0.970764
vt 0.345533 0.894073
vt 0.347374 0.991034
vt 0.385799 0.993931
vt 0.342990 0.915983
vt 0.389241 0.918131
vt 0.408449 0.919081
vt 0.411357 0.847710
vt 0.431663 0.846894
vt 0.333274 0.846273
vt 0.316300 0.845466
vt 0.434438 0.788186
vt 0.323194 0.891714
vt 0.310184 0.781288
vt 0.364802 0.896245
vt 0.349329 0.782413
vt 0.367906 0.822953
vt 0.346276 0.821536
vt 0.387713 0.823010
vt 0.388844 0.782958
vt 0.604801 0.747867
vt 0.602058 0.764524
vt 0.684718 0.799369
vt 0.182442 0.483766
vt 0.066733 0.484608
vt 0.170542 0.585288
vt 0.212807 0.688450
vt 0.052364 0.584689
vt 0.227779 0.558328
vt 0.215916 0.891342
vt 0.684821 0.802546
vt 0.688008 0.788680
vt 0.727501 0.785368
vt 0.720165 0.758893
vt 0.806112 0.664964
vt 0.766360 0.638050
vt 0.793629 0.895813
vt 0.286275 0.711773
vt 0.245777 0.590406
vt 0.240709 0.639748
vt 0.283219 0.754688
vt 0.275572 0.734013
vt 0.249820 0.664382
vt 0.241747 0.757252
vt 0.269384 0.818210
vt 0.264907 0.808335
vt 0.249787 0.774986
vt 0.243475 0.864077
vt 0.260009 0.891173
vt 0.223842 0.752476
vt 0.222633 0.773657
vt 0.217489 0.863774
vt 0.265721 0.819284
vt 0.275311 0.756445
vt 0.275432 0.745994
vt 0.265239 0.812796
vt 0.228943 0.663106
vt 0.219236 0.637905
vt 0.260731 0.635384
vt 0.256638 0.682818
vt 0.256353 0.789468
vt 0.263075 0.700222
vt 0.271329 0.722539
vt 0.274877 0.677304
vt 0.480586 0.784387
vt 0.481444 0.899426
vt 0.440697 0.898608
vt 0.441622 0.794269
vt 0.815679 0.646641
vt 0.888109 0.646477
vt 0.664851 0.460509
vt 0.716188 0.459985
vt 0.482321 0.771157
vt 0.482238 0.773470
vt 0.482032 0.779190
vt 0.441799 0.787144
vt 0.441034 0.826980
vt 0.460484 0.899005
vt 0.226488 0.577250
vt 0.243931 0.585452
vt 0.434185 0.793537
vt 0.429367 0.783763
vt 0.203891 0.667492
vt 0.218874 0.521207
vt 0.180111 0.611242
vt 0.198561 0.460455
vt 0.194548 0.520710
vt 0.184103 0.614197
vt 0.086101 0.609785
vt 0.196354 0.520533
vt 0.185083 0.616836
vt 0.623596 0.253704
vt 0.627991 0.344844
vt 0.578393 0.608339
vt 0.579588 0.649409
vt 0.616356 0.608670
vt 0.604317 0.608556
vt 0.505914 0.684318
vt 0.505181 0.608363
vt 0.505414 0.570716
vt 0.505946 0.648109
vt 0.505171 0.608478
vt 0.453862 0.473092
vt 0.525587 0.460716
vt 0.693071 0.898138
vt 0.689305 0.910645
vt 0.732609 0.898770
vt 0.801325 0.865129
vt 0.792500 0.765504
vt 0.760351 0.784822
vt 0.769084 0.879504
vt 0.786700 0.884202
vt 0.809548 0.777216
vt 0.771495 0.771412
vt 0.762064 0.802469
vt 0.758923 0.802429
vt 0.768276 0.882636
vt 0.761213 0.793701
vt 0.776182 0.894847
vt 0.808482 0.889033
vt 0.804890 0.768958
vt 0.812861 0.867770
vt 0.796990 0.437200
vt 0.806054 0.511224
vt 0.795335 0.436845
vt 0.804500 0.517431
vt 0.932647 0.487644
vt 0.881304 0.538419
vt 0.875463 0.487213
vt 0.068766 0.675215
vt 0.070743 0.671310
vt 0.112155 0.717795
vt 0.401105 0.516371
vt 0.482216 0.824118
vt 0.480893 0.825627
vt 0.463908 0.825247
vt 0.441467 0.824099
vt 0.440553 0.853716
vt 0.441478 0.823011
vt 0.480888 0.824848
vt 0.482209 0.823393
vt 0.279245 0.543348
vt 0.229129 0.547336
vt 0.253568 0.381791
vt 0.195756 0.387613
vt 0.080055 0.391818
vt 0.439813 0.894794
vt 0.440749 0.893502
vt 0.481409 0.894842
vt 0.482870 0.894175
vt 0.460708 0.894168
vt 0.608798 0.922791
vt 0.650526 0.922743
vt 0.606567 0.922928
vt 0.213078 0.521178
vt 0.782041 0.481368
vt 0.776218 0.503892
vt 0.800469 0.481986
vt 0.802398 0.481364
vt 0.874202 0.557688
vt 0.703185 0.648069
vt 0.738819 0.686823
vt 0.602618 0.845871
vt 0.605279 0.897789
vt 0.602702 0.847507
vt 0.644273 0.826930
vt 0.649215 0.896463
vt 0.546047 0.714633
vt 0.549221 0.714709
vt 0.601801 0.605466
vt 0.580063 0.605346
vt 0.583989 0.531108
vt 0.608341 0.530721
vt 0.718099 0.754963
vt 0.750517 0.713251
vt 0.750431 0.716446
vt 0.806890 0.675551
vt 0.789952 0.867228
vt 0.781357 0.768638
vt 0.774234 0.874405
vt 0.767083 0.776722
vt 0.260350 0.339093
vt 0.257362 0.336262
vt 0.202015 0.337860
vt 0.200224 0.458502
vt 0.200189 0.458401
vt 0.320236 0.336402
vt 0.702755 0.647485
vt 0.757899 0.674110
vt 0.930905 0.490144
vt 0.687546 0.844431
vt 0.729878 0.824423
vt 0.940637 0.345657
vt 0.935383 0.347079
vt 0.914355 0.346981
vt 0.940661 0.345599
vt 0.936382 0.294780
vt 0.936046 0.296052
vt 0.962152 0.226747
vt 0.961253 0.227469
vt 0.945888 0.269054
vt 0.952517 0.251115
vt 0.935140 0.294339
vt 0.934687 0.295592
vt 0.961121 0.225525
vt 0.960746 0.226526
vt 0.944503 0.268239
vt 0.951249 0.250109
vt 0.060068 0.132932
vt 0.046308 0.230805
vt 0.016920 0.231700
vt 0.043080 0.222720
vt 0.015570 0.228445
vt 0.919977 0.392461
vt 0.922676 0.394830
vt 0.934508 0.493134
vt 0.889681 0.647127
vt 0.851376 0.612982
vt 0.234112 0.639182
vt 0.239637 0.586218
vt 0.238332 0.576049
vt 0.890018 0.638574
vt 0.884066 0.647647
vt 0.404222 0.482933
vt 0.389159 0.919945
vt 0.411308 0.848925
vt 0.193159 0.509371
vt 0.193220 0.508820
vt 0.213636 0.570422
vt 0.221728 0.589136
vt 0.209827 0.570421
vt 0.221866 0.587604
vt 0.189054 0.569884
vt 0.193174 0.509497
vt 0.190510 0.570462
vt 0.774941 0.510182
vt 0.774452 0.504551
vt 0.806217 0.512117
vt 0.814537 0.483138
vt 0.789986 0.574624
vt 0.782665 0.599277
vt 0.204023 0.666183
vt 0.212916 0.687242
vt 0.203971 0.666190
vt 0.052544 0.583436
vt 0.170741 0.583596
vt 0.180288 0.609854
vt 0.170991 0.581457
vt 0.180668 0.606887
vt 0.067021 0.482602
vt 0.622557 0.378761
vt 0.626911 0.377663
vt 0.606514 0.532586
vt 0.606489 0.532808
vt 0.750770 0.646940
vt 0.754892 0.633204
vt 0.745949 0.662523
vt 0.768660 0.348212
vt 0.766055 0.255197
vt 0.764355 0.030454
vt 0.767706 0.403794
vt 0.768666 0.349877
vt 0.770187 0.380434
vt 0.768668 0.348267
vt 0.770180 0.380379
vt 0.768659 0.349822
vt 0.767698 0.403739
vt 0.766047 0.255142
vt 0.764363 0.030509
vt 0.770596 0.460042
vt 0.334084 0.354552
vt 0.371921 0.414334
vt 0.334146 0.415385
vt 0.371635 0.354807
vt 0.282682 0.413875
vt 0.314988 0.470786
vt 0.282863 0.469550
vt 0.315683 0.414099
vt 0.362554 0.464394
vt 0.362612 0.426755
vt 0.371545 0.426815
vt 0.381826 0.426885
vt 0.381723 0.464426
vn 0.499616 0.764461 -0.407411
vn -0.484377 0.775850 -0.404272
vn 0.007899 0.998088 0.061301
vn -0.501593 0.698952 0.509774
vn 0.518812 0.682410 0.514929
vn 0.999954 -0.009560 -0.000037
vn 0.999969 -0.007837 0.000356
vn 0.999969 -0.007837 0.000356
vn 0.999981 -0.006114 0.000750
vn -1.000000 -0.000158 -0.000184
vn -1.000000 -0.000072 -0.000092
vn -1.000000 -0.000072 -0.000092
vn -1.000000 0.000014 -0.000000
vn 0.000003 1.000000 -0.000002
vn 0.000001 1.000000 -0.000000
vn 0.000001 1.000000 -0.000000
vn 0.000000 1.000000 0.000001
vn -0.000001 1.000000 0.000000
vn -0.000000 1.000000 0.000000
vn -0.000000 1.000000 0.000000
vn 0.000000 1.000000 0.000001
vn -1.000000 -0.000012 -0.000012
vn -1.000000 -0.000005 -0.000005
vn -1.000000 -0.000005 -0.000005
vn -1.000000 0.000002 0.000003
vn 0.003183 0.999915 -0.012654
vn 0.009033 0.999933 -0.007254
vn 0.005228 0.999946 0.009008
vn 0.005375 0.999957 0.007612
vn -1.000000 0.000001 -0.000001
vn -1.000000 0.000001 -0.000001
vn -1.000000 0.000001 -0.000001
vn 0.000541 1.000000 -0.000077
vn 0.000414 1.000000 0.000060
vn 0.000414 1.000000 0.000060
vn 0.000286 1.000000 0.000198
vn -0.000073 1.000000 -0.000008
vn -0.000068 1.000000 -0.000017
vn -0.000068 1.000000 -0.000017
vn -0.000063 1.000000 -0.000027
vn 0.020565 0.018347 0.999620
vn 0.016191 0.013549 0.999777
vn 0.016191 0.013549 0.999777
vn 0.011816 0.008750 0.999892
vn 1.000000 -0.000000 0.000000
vn 1.000000 -0.000000 -0.000000
vn 1.000000 -0.000000 0.000000
vn 1.000000 0.000000 -0.000000
vn 1.000000 0.000000 -0.000001
vn -0.000042 1.000000 -0.000018
vn -0.000042 1.000000 -0.000018
vn -0.000042 1.000000 -0.000018
vn -0.000027 1.000000 0.000018
vn -0.000027 1.000000 0.000018
vn -0.000027 1.000000 0.000018
vn -0.000173 1.000000 -0.000135
vn -0.000173 1.000000 -0.000135
vn -0.000173 1.000000 -0.000135
vn -0.000109 1.000000 -0.000016
vn -0.000109 1.000000 -0.000016
vn -0.000109 1.000000 -0.000016
vn 1.000000 -0.000001 0.000000
vn 1.000000 -0.000001 0.000000
vn 1.000000 -0.000001 0.000000
vn 1.000000 -0.000001 0.000001
vn 1.000000 -0.000001 0.000001
vn 1.000000 0.000000 0.000001
vn 1.000000 0.000000 0.000000
vn 1.000000 0.000000 0.000001
vn 1.000000 0.000000 0.000001
vn 1.000000 0.000000 0.000001
vn 1.000000 0.000000 0.000001
vn 0.999996 0.001839 -0.002090
vn 0.999994 0.000917 -0.003360
vn 0.999994 0.000917 -0.003360
vn 0.999989 -0.000005 -0.004629
vn -0.000013 -0.000081 1.000000
vn -0.000012 -0.000091 1.000000
vn -0.000015 -0.000097 1.000000
vn -0.000012 -0.000096 1.000000
vn -0.000007 -0.000077 1.000000
vn -0.000002 -0.000002 1.000000
vn -0.000001 -0.000002 1.000000
vn -0.000001 -0.000002 1.000000
vn 0.000001 -0.000002 1.000000
vn 0.000001 -0.000002 1.000000
vn 0.000002 -0.000002 1.000000
vn 1.000000 -0.000020 0.000001
vn 1.000000 -0.000020 0.000001
vn 1.000000 -0.000020 0.000001
vn 1.000000 -0.000020 0.000001
vn 0.000002 1.000000 -0.000008
vn 0.000001 1.000000 -0.000008
vn 0.000009 1.000000 -0.000009
vn 0.000013 1.000000 -0.000013
vn 0.000016 1.000000 -0.000011
vn 0.000006 1.000000 -0.000003
vn 1.000000 -0.000023 0.000001
vn 1.000000 -0.000022 0.000001
vn 1.000000 -0.000022 0.000001
vn 1.000000 -0.000020 0.000001
vn -0.000000 1.000000 -0.000028
vn -0.000016 1.000000 -0.000017
vn -0.000020 1.000000 -0.000015
vn -0.000027 1.000000 -0.000011
vn -0.000023 1.000000 -0.000013
vn -0.000023 1.000000 -0.000013
vn 1.000000 0.000001 0.000005
vn 1.000000 0.000000 0.000006
vn 1.000000 0.000000 0.000006
vn 1.000000 -0.000000 0.000006
vn -0.013143 0.999866 -0.009742
vn -0.013809 0.999860 -0.009440
vn -0.018209 0.999810 0.007002
vn -0.011714 0.999845 0.013173
vn 0.000011 1.000000 -0.000036
vn -0.000005 1.000000 -0.000044
vn -0.000001 1.000000 -0.000054
vn -0.000008 1.000000 -0.000063
vn 0.000005 1.000000 -0.000074
vn 0.000002 -0.000196 1.000000
vn 0.000005 -0.000180 1.000000
vn 0.000005 -0.000180 1.000000
vn 0.000007 -0.000164 1.000000
vn 0.000000 1.000000 0.000000
vn 0.000000 1.000000 0.000000
vn 0.000000 1.000000 0.000000
vn 0.000000 1.000000 0.000000
vn -0.000000 0.000000 1.000000
vn -0.000000 0.000000 1.000000
vn -0.000000 0.000000 1.000000
vn 0.000000 0.000000 1.000000
vn -1.000000 0.000000 0.000000
vn -1.000000 0.000000 0.000000
vn -1.000000 0.000000 0.000000
vn -1.000000 0.000000 0.000000
vn -0.493662 -0.043718 -0.868554
vn -0.473459 -0.038571 -0.879971
vn -0.473459 -0.038571 -0.879971
vn -0.452988 -0.033403 -0.890890
vn -0.000002 -0.000008 1.000000
vn -0.000002 -0.000006 1.000000
vn -0.000002 -0.000006 1.000000
vn -0.000001 -0.000004 1.000000
vn -0.000052 1.000000 -0.000057
vn -0.000016 1.000000 -0.000104
vn -0.000016 1.000000 -0.000104
vn 0.000019 1.000000 -0.000151
vn 0.000009 1.000000 -0.000055
vn -0.000005 1.000000 -0.000039
vn -0.000005 1.000000 -0.000039
vn -0.000018 1.000000 -0.000022
vn 0.000000 1.000000 0.000000
vn 0.000000 1.000000 0.000000
vn 0.000000 1.000000 0.000000
vn 0.000000 1.000000 0.000000
vn 0.000000 1.000000 -0.000000
vn 0.000000 1.000000 0.000000
vn 0.999998 0.000054 -0.002092
vn 0.999998 0.000018 -0.002078
vn 0.999998 0.000018 -0.002078
vn 0.999998 -0.000018 -0.002065
vn 0.999970 -0.007451 -0.002107
vn 0.999862 -0.016615 0.000572
vn 0.999862 -0.016615 0.000572
vn 0.999662 -0.025779 0.003251
vn -0.000002 0.000000 1.000000
vn -0.000000 0.000000 1.000000
vn -0.000000 0.000000 1.000000
vn 0.000002 0.000000 1.000000
vn -0.999995 -0.001682 0.002675
vn -0.999999 -0.000837 0.001330
vn -0.999999 -0.000837 0.001330
vn -1.000000 0.000007 -0.000015
vn 0.000008 1.000000 -0.000003
vn 0.000005 1.000000 -0.000004
vn 0.000006 1.000000 -0.000008
vn 0.000006 1.000000 -0.000014
vn 0.000007 1.000000 -0.000017
vn 0.000006 1.000000 -0.000016
vn 0.000007 1.000000 -0.000016
vn 0.000008 1.000000 -0.000017
vn 0.999998 -0.000036 -0.002104
vn 0.999998 -0.000018 -0.002085
vn 0.999998 -0.000018 -0.002085
vn 0.999998 -0.000000 -0.002065
vn 0.999177 -0.039463 -0.009395
vn 0.999794 -0.019743 -0.004697
vn 0.999908 -0.013169 -0.003131
vn 1.000000 -0.000019 0.000002
vn 1.000000 -0.000022 0.000001
vn -1.000000 0.000001 0.000029
vn -1.000000 0.000001 0.000030
vn -1.000000 0.000001 0.000030
vn -1.000000 0.000001 0.000031
vn 0.563850 0.825152 -0.034611
vn 0.577948 0.815329 -0.034855
vn 0.577948 0.815329 -0.034855
vn 0.591875 0.805266 -0.035088
vn 0.999997 -0.000978 -0.002424
vn 0.999997 -0.000921 -0.002302
vn 0.999997 -0.000921 -0.002302
vn 0.999997 -0.000863 -0.002180
vn -0.032104 -0.000102 0.999485
vn -0.016055 0.006311 0.999851
vn -0.016055 0.006311 0.999851
vn -0.000000 0.012721 0.999919
vn -0.999544 0.019773 0.022815
vn -0.999886 0.009892 0.011401
vn -0.999886 0.009892 0.011401
vn -1.000000 0.000008 -0.000015
vn 0.000000 0.000000 1.000000
vn 0.000000 0.000000 1.000000
vn 0.000000 0.000000 1.000000
vn 0.000000 -0.000000 1.000000
vn -0.000000 -0.000000 1.000000
vn -0.000000 -0.000000 1.000000
vn -0.000001 -0.000000 1.000000
vn 0.000000 -0.000000 1.000000
vn 0.000000 -0.000000 1.000000
vn 0.000000 -0.000000 1.000000
vn 0.000000 -0.000000 1.000000
vn 0.037194 -0.779293 0.625555
vn 0.037194 -0.779293 0.625555
vn 0.037194 -0.779293 0.625555
vn -0.440429 -0.897589 -0.018854
vn -0.440429 -0.897589 -0.018854
vn -0.440429 -0.897589 -0.018854
vn 0.000001 -0.000003 1.000000
vn 0.000000 -0.000003 1.000000
vn 0.000000 -0.000003 1.000000
vn -0.000001 -0.000003 1.000000
vn -1.000000 0.000022 0.000029
vn -1.000000 0.000014 0.000015
vn -1.000000 0.000014 0.000015
vn -1.000000 0.000007 0.000001
vn 0.000000 -0.000003 1.000000
vn 0.000000 -0.000003 1.000000
vn 0.000000 -0.000003 1.000000
vn 0.000000 -0.000003 1.000000
vn 0.000000 -0.000004 1.000000
vn 0.000000 -0.000003 1.000000
vn 0.000000 -0.000003 1.000000
vn 0.000001 -0.000003 1.000000
vn 0.999894 -0.014393 -0.002131
vn 0.999897 -0.014231 -0.001823
vn 0.999897 -0.014231 -0.001823
vn 0.999900 -0.014068 -0.001515
vn 0.517045 0.721759 0.460140
vn 0.505905 0.703218 -0.499544
vn -0.020023 0.971950 0.234334
vn -0.003891 0.655344 0.755321
vn -0.531321 0.710072 0.462055
vn -0.552218 0.675401 -0.488763
vn -0.071943 0.991455 0.108820
vn -0.011893 0.998473 0.053942
vn 0.013618 0.999255 0.036108
vn 0.014744 0.928015 0.372252
vn 0.204064 0.941133 -0.269495
vn 0.204064 0.941133 -0.269495
vn 0.301993 0.532761 -0.790548
vn -0.066717 0.994352 -0.082545
vn -0.023781 0.998815 -0.042454
vn -0.012804 0.999489 -0.029297
vn -0.003783 0.655346 0.755320
vn -0.000004 -0.000002 1.000000
vn -0.000005 -0.000003 1.000000
vn -0.000005 -0.000003 1.000000
vn -0.000006 -0.000003 1.000000
vn -1.000000 0.000000 0.000001
vn -1.000000 0.000000 0.000001
vn -1.000000 0.000000 0.000001
vn -1.000000 0.000000 0.000001
vn -1.000000 -0.000000 0.000002
vn -1.000000 0.000000 0.000002
vn -1.000000 0.000000 0.000002
vn -1.000000 0.000001 0.000002
vn -0.003268 0.003397 0.999989
vn -0.003268 0.003397 0.999989
vn -0.003268 0.003397 0.999989
vn 0.000009 -0.000035 1.000000
vn 0.000005 -0.000038 1.000000
vn 0.000005 -0.000038 1.000000
vn 0.000000 -0.000041 1.000000
vn 0.000009 0.001350 0.999999
vn -0.000905 0.001025 0.999999
vn 0.000292 0.001707 0.999999
vn -0.001361 0.000862 0.999999
vn -0.003298 -0.000340 0.999995
vn -0.715094 -0.699027 0.001477
vn -0.715094 -0.699027 0.001477
vn -0.715094 -0.699027 0.001477
vn -0.000004 -0.000024 1.000000
vn -0.000002 -0.000026 1.000000
vn -0.000002 -0.000026 1.000000
vn 0.000000 -0.000028 1.000000
vn -1.000000 0.000000 0.000002
vn -1.000000 0.000000 0.000002
vn -1.000000 0.000000 0.000002
vn -1.000000 0.000000 0.000002
vn -1.000000 0.000000 0.000001
vn -1.000000 -0.000000 0.000001
vn -1.000000 -0.000000 0.000001
vn -1.000000 -0.000000 0.000001
vn -0.998245 -0.000002 0.059216
vn -0.999443 0.015314 0.029649
vn -0.999443 0.015314 0.029649
vn -0.999531 0.030613 0.000049
vn 0.000010 -0.000029 1.000000
vn 0.000010 -0.000029 1.000000
vn 0.000010 -0.000029 1.000000
vn 0.000001 -0.000031 1.000000
vn 0.000001 -0.000031 1.000000
vn 0.000001 -0.000031 1.000000
vn 0.000000 1.000000 -0.000000
vn 0.000000 1.000000 -0.000000
vn 0.000000 1.000000 -0.000000
vn 0.000000 1.000000 0.000000
vn 1.000000 0.000238 0.000066
vn 1.000000 0.000195 0.000057
vn 1.000000 0.000195 0.000057
vn 1.000000 0.000152 0.000048
vn 0.000000 1.000000 -0.000000
vn 0.000000 1.000000 -0.000000
vn 0.000000 1.000000 -0.000000
vn 0.000000 1.000000 0.000000
vn 0.000000 1.000000 0.000000
vn 0.000000 1.000000 0.000000
vn 0.000000 1.000000 0.000000
vn 0.000000 1.000000 0.000000
vn 0.000000 1.000000 0.000000
vn 0.000000 1.000000 0.000000
vn 0.000000 1.000000 0.000000
vn 0.917540 0.397094 -0.020897
vn 0.917540 0.397094 -0.020897
vn 0.917540 0.397094 -0.020897
vn -0.876048 0.481142 -0.032277
vn -0.876048 0.481142 -0.032277
vn -0.876048 0.481142 -0.032277
vn -0.019003 0.308562 -0.951015
vn -0.007445 0.215287 -0.976522
vn -0.007445 0.215287 -0.976522
vn 0.004185 0.119971 -0.992769
vn -0.800670 0.599088 -0.004597
vn -0.800670 0.599088 -0.004597
vn -0.800670 0.599088 -0.004597
vn -0.415002 -0.582399 -0.698988
vn -0.415002 -0.582399 -0.698988
vn -0.415002 -0.582399 -0.698988
vn 0.000000 1.000000 -0.000000
vn 0.000000 1.000000 0.000000
vn 0.000000 1.000000 0.000000
vn 0.000000 1.000000 0.000000
vn -0.700876 0.712816 -0.025797
vn -0.708854 0.705185 -0.015525
vn -0.705382 0.708566 -0.019248
vn -0.712782 0.701309 -0.010387
vn -0.715717 0.698343 -0.008077
vn -0.010893 0.294025 0.955736
vn -0.010893 0.294025 0.955736
vn -0.010893 0.294025 0.955736
vn 0.019475 0.310470 0.950384
vn 0.019475 0.310470 0.950384
vn 0.019475 0.310470 0.950384
vn -0.007278 0.999906 -0.011638
vn -0.014128 0.999883 -0.005814
vn -0.014128 0.999883 -0.005814
vn -0.020976 0.999780 0.000011
vn 0.015936 0.998749 0.047406
vn 0.015936 0.998749 0.047406
vn 0.015936 0.998749 0.047406
vn 0.019933 0.999167 0.035617
vn 0.019933 0.999167 0.035617
vn 0.019933 0.999167 0.035617
vn 0.822562 -0.011023 0.568568
vn 0.865563 0.007061 0.500750
vn 0.865563 0.007061 0.500750
vn 0.902699 0.025097 0.429540
vn -0.035660 0.999225 -0.016690
vn -0.035660 0.999225 -0.016690
vn -0.035660 0.999225 -0.016690
vn -0.015586 0.999213 -0.036465
vn -0.015586 0.999213 -0.036465
vn -0.015586 0.999213 -0.036465
vn 0.038700 0.998943 0.024806
vn 0.038700 0.998943 0.024806
vn 0.038700 0.998943 0.024806
vn -0.836142 -0.063498 -0.544825
vn -0.909710 -0.033629 -0.413879
vn -0.909710 -0.033629 -0.413879
vn -0.961945 -0.002971 -0.273228
vn -0.019302 0.999584 0.021418
vn -0.019302 0.999584 0.021418
vn -0.019302 0.999584 0.021418
vn 0.001493 0.999996 0.002273
vn 0.001493 0.999996 0.002273
vn 0.001493 0.999996 0.002273
vn 0.001645 0.999999 -0.000350
vn 0.001645 0.999999 -0.000350
vn 0.001645 0.999999 -0.000350
vn 0.000272 0.999999 -0.001470
vn 0.000272 0.999999 -0.001470
vn 0.000272 0.999999 -0.001470
vn 0.001698 0.999997 0.002014
vn 0.001698 0.999997 0.002014
vn 0.001698 0.999997 0.002014
vn 0.004666 0.999988 0.001652
vn 0.004666 0.999988 0.001652
vn 0.004666 0.999988 0.001652
vn 0.005007 0.999986 0.001795
vn 0.005007 0.999986 0.001795
vn 0.005007 0.999986 0.001795
vn 0.028981 0.998667 0.042715
vn 0.028981 0.998667 0.042715
vn 0.028981 0.998667 0.042715
vn 0.018254 0.997673 -0.065687
vn 0.018254 0.997673 -0.065687
vn 0.018254 0.997673 -0.065687
vn 0.012127 0.999925 -0.001916
vn 0.012127 0.999925 -0.001916
vn 0.012127 0.999925 -0.001916
vn -0.289949 0.046337 0.955920
vn -0.334509 0.038327 0.941613
vn -0.334509 0.038327 0.941613
vn -0.378315 0.030230 0.925183
vn 0.388485 0.028894 0.921002
vn 0.420258 0.037218 0.906641
vn 0.420258 0.037218 0.906641
vn 0.451490 0.045495 0.891116
vn -0.000039 1.000000 0.000006
vn -0.000039 1.000000 0.000006
vn -0.000039 1.000000 0.000006
vn -0.950914 0.000224 0.309456
vn -0.950832 0.000180 0.309709
vn -0.950832 0.000180 0.309709
vn -0.950749 0.000136 0.309961
vn -0.000001 1.000000 0.000041
vn -0.000001 1.000000 0.000041
vn -0.000001 1.000000 0.000041
vn 0.000567 0.999999 -0.001349
vn 0.000567 0.999999 -0.001349
vn 0.000567 0.999999 -0.001349
vn -0.641011 0.027672 0.767033
vn -0.570666 0.013985 0.821063
vn -0.570666 0.013985 0.821063
vn -0.495725 0.000184 0.868480
vn -0.000004 1.000000 0.000018
vn -0.000004 1.000000 0.000018
vn -0.000004 1.000000 0.000018
vn 0.001741 0.999999 -0.000139
vn 0.001741 0.999999 -0.000139
vn 0.001741 0.999999 -0.000139
vn -0.986747 0.000222 0.162267
vn -0.989621 -0.003515 0.143660
vn -0.989621 -0.003515 0.143660
vn -0.992130 -0.007251 0.125000
vn -0.000088 1.000000 0.000003
vn -0.000088 1.000000 0.000003
vn -0.000088 1.000000 0.000003
vn -0.000050 1.000000 -0.000031
vn -0.000044 1.000000 -0.000039
vn -0.000035 1.000000 -0.000037
vn -0.000028 1.000000 -0.000040
vn -0.000018 1.000000 -0.000032
vn -0.000051 1.000000 -0.000086
vn -0.000061 1.000000 -0.000080
vn 0.000627 1.000000 -0.000607
vn 0.000966 0.999999 -0.000867
vn 0.002003 0.999997 -0.001661
vn 0.735053 -0.028976 0.677390
vn 0.735053 -0.028976 0.677390
vn 0.735053 -0.028976 0.677390
vn -0.000485 0.802417 -0.596764
vn -0.026238 0.999581 -0.012245
vn -0.026238 0.999581 -0.012245
vn -0.041990 0.815705 0.576942
vn 0.947533 -0.015117 0.319299
vn 0.947533 -0.015117 0.319299
vn 0.947533 -0.015117 0.319299
vn 0.999997 0.001480 -0.002115
vn 0.999985 0.005360 -0.001222
vn 0.999985 0.005360 -0.001222
vn 0.999957 0.009241 -0.000329
vn 0.948915 0.012256 0.315294
vn 0.947450 0.011754 0.319689
vn 0.947450 0.011754 0.319689
vn 0.945964 0.011252 0.324078
vn -0.006215 -0.000815 0.999980
vn -0.006215 -0.000815 0.999980
vn -0.006215 -0.000815 0.999980
vn 0.999686 0.001153 0.025041
vn 0.999686 0.001187 0.025037
vn 0.999686 0.001187 0.025037
vn 0.999686 0.001222 0.025033
vn 0.999998 0.002046 0.000028
vn 0.999998 0.001926 0.000001
vn 0.999999 0.001741 0.000014
vn 0.999999 0.001588 0.000006
vn 0.999999 0.001370 0.000039
vn 0.006576 0.000757 0.999978
vn 0.002906 0.011117 0.999934
vn 0.002906 0.011117 0.999934
vn -0.000763 0.021477 0.999769
vn 0.949224 0.006199 0.314541
vn 0.949224 0.006199 0.314541
vn 0.949224 0.006199 0.314541
vn -0.017855 -0.000054 0.999841
vn -0.008930 -0.022899 0.999698
vn -0.008930 -0.022899 0.999698
vn -0.000000 -0.045731 0.998954
vn -0.000872 0.037704 0.999289
vn -0.001679 0.033612 0.999434
vn -0.001679 0.033612 0.999434
vn -0.002486 0.029519 0.999561
vn 0.000000 1.000000 0.000000
vn 0.000000 1.000000 0.000000
vn 0.000000 1.000000 0.000000
vn -0.244663 -0.000485 -0.969608
vn -0.244663 -0.000485 -0.969608
vn -0.244663 -0.000485 -0.969608
vn -0.999307 0.036950 -0.004610
vn -0.999116 0.042032 -0.000848
vn -0.999116 0.042032 -0.000848
vn -0.998885 0.047113 0.002914
vn -0.999757 -0.000016 -0.022063
vn -0.999772 0.018414 -0.010780
vn -0.999772 0.018414 -0.010780
vn -0.999321 0.036837 0.000508
vn 0.000000 0.000000 1.000000
vn 0.000000 0.000000 1.000000
vn -0.000000 0.000000 1.000000
vn -0.000000 0.000000 1.000000
vn -0.000000 0.000000 1.000000
vn -0.560514 0.043305 0.827012
vn -0.560514 0.043305 0.827012
vn -0.560514 0.043305 0.827012
vn -0.015105 0.996779 0.078767
vn -0.015105 0.996779 0.078767
vn -0.015105 0.996779 0.078767
vn -0.000113 1.000000 0.000000
vn -0.000076 1.000000 -0.000065
vn -0.000113 1.000000 0.000000
vn -0.000057 1.000000 -0.000098
vn -0.000002 1.000000 -0.000196
vn 0.000882 -0.000000 1.000000
vn 0.000546 0.000108 1.000000
vn 0.000546 0.000108 1.000000
vn 0.000211 0.000215 1.000000
vn 0.000368 0.999557 -0.029765
vn -0.007410 0.999869 -0.014399
vn -0.009877 0.999905 -0.009597
vn -0.014997 0.999887 0.000489
vn -0.014807 0.999890 0.000006
vn -0.007001 -0.360659 0.932671
vn -0.003465 -0.183434 0.983026
vn -0.003465 -0.183434 0.983026
vn 0.000189 0.000020 1.000000
vn -0.998491 0.017363 -0.052092
vn -0.807934 0.589226 -0.007462
vn -0.807934 0.589226 -0.007462
vn -0.322213 0.945826 0.039893
vn -0.885154 -0.462163 -0.053932
vn -0.885154 -0.462163 -0.053932
vn -0.885154 -0.462163 -0.053932
vn 0.000133 0.000006 1.000000
vn -0.005301 0.002153 0.999984
vn -0.010618 0.001435 0.999943
vn -0.015993 0.002150 0.999870
vn -0.021250 0.000000 0.999774
vn -0.999437 -0.005079 -0.033167
vn -0.999626 -0.020267 -0.018354
vn -0.999156 -0.015284 -0.038133
vn -0.998967 -0.020390 -0.040616
vn -0.996968 -0.005300 -0.077635
vn -0.014078 0.295346 0.955287
vn -0.014078 0.295346 0.955287
vn -0.014078 0.295346 0.955287
vn -0.999754 0.021885 -0.003542
vn -0.999803 0.019782 -0.001770
vn -0.999819 0.018994 -0.001032
vn -0.999846 0.017548 0.000224
vn -0.999848 0.017417 0.000446
vn 0.000189 -0.000005 1.000000
vn 0.000201 0.000007 1.000000
vn 0.000201 0.000007 1.000000
vn 0.000213 0.000018 1.000000
vn 0.020346 0.999300 -0.031403
vn 0.038659 0.999023 -0.021434
vn -0.005111 0.000002 0.999987
vn -0.005111 0.000002 0.999987
vn -0.005111 0.000002 0.999987
vn -1.000000 0.000000 0.000000
vn -1.000000 0.000000 0.000000
vn -1.000000 0.000000 0.000000
vn -1.000000 -0.000000 0.000000
vn 0.000077 -0.000836 1.000000
vn 0.000077 -0.000836 1.000000
vn 0.000077 -0.000836 1.000000
vn -1.000000 0.000000 0.000000
vn -1.000000 0.000000 0.000000
vn -1.000000 0.000000 0.000000
vn -1.000000 0.000000 0.000000
vn 0.000000 0.000000 1.000000
vn 0.000000 0.000000 1.000000
vn 0.000000 0.000000 1.000000
vn 0.000000 0.000000 1.000000
vn -0.000000 0.000000 1.000000
vn -0.000000 0.000000 1.000000
vn -0.000000 0.000000 1.000000
vn -1.000000 0.000000 0.000000
vn -0.998934 -0.022425 0.040352
vn -0.998934 -0.022425 0.040352
vn -0.995738 -0.044802 0.080617
vn 0.000003 1.000000 -0.000002
vn -0.007620 0.999962 -0.004194
vn 0.000002 1.000000 -0.000001
vn 0.000004 1.000000 -0.000001
vn -0.010151 0.999826 -0.015648
vn -0.015230 0.999609 -0.023470
vn 0.000033 0.999545 -0.030165
vn -0.131082 0.991342 0.007622
vn -0.131082 0.991342 0.007622
vn -0.131082 0.991342 0.007622
vn 0.000001 -0.000000 1.000000
vn -0.000001 -0.000001 1.000000
vn -0.000001 -0.000001 1.000000
vn -0.000001 -0.000001 1.000000
vn 0.000000 -0.000001 1.000000
vn 0.115464 0.503129 0.856463
vn 0.115464 0.503129 0.856463
vn 0.115464 0.503129 0.856463
vn 0.354683 0.934798 -0.018809
vn 0.354683 0.934798 -0.018809
vn 0.354683 0.934798 -0.018809
vn -0.000009 1.000000 0.000000
vn 0.034946 0.887600 -0.459287
vn 0.034946 0.887600 -0.459287
vn 0.062045 0.575668 -0.815326
vn 0.043814 0.996985 -0.064034
vn 0.022560 0.997964 -0.059662
vn 0.022560 0.997964 -0.059662
vn 0.001295 0.998471 -0.055262
vn 0.999518 -0.028273 0.012825
vn 0.998729 -0.050372 -0.001534
vn 0.998729 -0.050372 -0.001534
vn 0.997247 -0.072435 -0.015892
vn 0.998316 -0.051738 0.026244
vn 0.996955 -0.075496 0.019511
vn 0.996955 -0.075496 0.019511
vn 0.994985 -0.099207 0.012767
vn 0.045611 0.998675 -0.023818
vn 0.022880 0.999502 -0.021725
vn 0.022880 0.999502 -0.021725
vn 0.000138 0.999808 -0.019621
vn 0.843069 -0.062690 0.534140
vn 0.843069 -0.062690 0.534140
vn 0.843069 -0.062690 0.534140
vn 0.066372 0.434991 0.897986
vn 0.044887 0.518002 0.854201
vn 0.044887 0.518002 0.854201
vn 0.022986 0.596211 0.802498
vn -0.000010 1.000000 -0.000009
vn -0.000010 1.000000 -0.000009
vn -0.000010 1.000000 -0.000009
vn 0.006178 0.999981 -0.000721
vn 0.006280 0.999942 -0.008706
vn -0.001621 0.999889 -0.014803
vn -0.006476 0.999493 -0.031161
vn -0.006663 0.999492 -0.031175
vn -0.001722 0.998879 -0.047299
vn 0.013372 -0.002516 0.999907
vn 0.014532 -0.001283 0.999894
vn 0.014532 -0.001283 0.999894
vn 0.015691 -0.000050 0.999877
vn 1.000000 0.000000 0.000000
vn 1.000000 0.000000 0.000000
vn 1.000000 0.000000 -0.000000
vn 1.000000 0.000000 0.000000
vn 1.000000 0.000001 -0.000000
vn 1.000000 0.000001 -0.000001
vn -0.000695 1.000000 -0.000015
vn -0.000695 1.000000 -0.000015
vn -0.000695 1.000000 -0.000015
vn 1.000000 0.000001 0.000000
vn 1.000000 -0.000000 0.000000
vn 1.000000 -0.000001 0.000000
vn 1.000000 -0.000000 0.000000
vn 1.000000 0.000001 0.000000
vn 1.000000 0.000000 0.000000
vn 1.000000 0.000000 0.000000
vn 1.000000 -0.000001 0.000000
vn 1.000000 -0.000001 0.000000
vn 1.000000 -0.000002 0.000000
vn 1.000000 -0.000002 0.000000
vn 0.000780 0.000188 1.000000
vn 0.000898 0.000198 1.000000
vn 0.000898 0.000198 1.000000
vn 0.001016 0.000209 0.999999
vn 0.000674 0.000013 1.000000
vn 0.000729 0.000017 1.000000
vn 0.000729 0.000017 1.000000
vn 0.000784 0.000020 1.000000
vn -0.039443 0.998913 -0.024851
vn -0.006831 0.999973 -0.002888
vn -0.013642 0.999890 -0.005765
vn 0.006075 0.999959 0.006658
vn -0.000023 1.000000 -0.000013
vn -0.000023 1.000000 -0.000013
vn -0.000143 1.000000 0.000038
vn -0.000122 1.000000 0.000005
vn -0.000122 1.000000 0.000005
vn -0.000101 1.000000 -0.000027
vn 0.000148 0.000194 1.000000
vn 0.000134 0.000176 1.000000
vn 0.000134 0.000176 1.000000
vn 0.000120 0.000158 1.000000
vn 0.000121 0.000026 1.000000
vn 0.000123 0.000028 1.000000
vn 0.000123 0.000028 1.000000
vn 0.000125 0.000029 1.000000
vn 0.004589 0.002238 0.999987
vn 0.004310 0.001197 0.999990
vn 0.004310 0.001197 0.999990
vn 0.004032 0.000156 0.999992
vn 0.000013 0.000108 1.000000
vn 0.000021 0.000108 1.000000
vn 0.000021 0.000108 1.000000
vn 0.000030 0.000107 1.000000
vn -0.000045 1.000000 0.000011
vn -0.000036 1.000000 0.000007
vn -0.000036 1.000000 0.000007
vn -0.000027 1.000000 0.000002
vn -0.000036 1.000000 0.000020
vn -0.000032 1.000000 0.000019
vn -0.000032 1.000000 0.000019
vn -0.000029 1.000000 0.000018
vn -0.999977 -0.000929 -0.006766
vn -0.999927 -0.012077 -0.000901
vn -0.999927 -0.012077 -0.000901
vn -0.999718 -0.023224 0.004965
vn -0.000036 1.000000 0.000020
vn -0.000033 1.000000 0.000021
vn -0.000033 1.000000 0.000021
vn -0.000030 1.000000 0.000023
vn -0.000037 1.000000 0.000051
vn -0.000037 1.000000 0.000051
vn -0.000037 1.000000 0.000051
vn 0.998339 0.055081 -0.016923
vn 0.999904 0.013004 -0.004891
vn 0.999904 0.013004 -0.004891
vn 0.999551 -0.029097 0.007150
vn 0.998480 0.053092 -0.014803
vn 0.999600 0.026669 -0.009468
vn 0.999600 0.026669 -0.009468
vn 0.999991 0.000227 -0.004127
vn -0.000026 1.000000 0.000002
vn -0.000026 1.000000 0.000002
vn -0.000026 1.000000 0.000002
vn 0.817674 0.044441 0.573963
vn 0.790832 0.049202 0.610053
vn 0.790832 0.049202 0.610053
vn 0.762372 0.053863 0.644894
vn -0.000026 1.000000 0.000002
vn -0.000015 1.000000 0.000016
vn -0.000015 1.000000 0.000016
vn -0.000004 1.000000 0.000031
vn 0.000000 1.000000 0.000000
vn 0.000000 1.000000 0.000000
vn 0.000000 1.000000 0.000000
vn -0.000000 1.000000 -0.000000
vn 0.000000 1.000000 0.000000
vn 0.000000 1.000000 0.000000
vn 0.000000 1.000000 0.000000
vn 0.000000 1.000000 0.000000
vn 0.000000 1.000000 -0.000004
vn 0.000000 1.000000 -0.000004
vn 0.000000 1.000000 -0.000004
vn -0.006389 -0.000808 0.999979
vn -0.006265 -0.000436 0.999980
vn -0.006265 -0.000436 0.999980
vn -0.006140 -0.000065 0.999981
vn -0.000000 1.000000 -0.000000
vn 0.000000 1.000000 -0.000002
vn 0.000002 1.000000 -0.000001
vn 0.000001 1.000000 -0.000002
vn 0.000002 1.000000 -0.000001
vn 0.000002 1.000000 -0.000001
vn 0.000002 1.000000 -0.000000
vn 0.000003 1.000000 -0.000000
vn -0.000022 1.000000 -0.000015
vn -0.000022 1.000000 -0.000015
vn -0.000022 1.000000 -0.000015
vn -0.000000 1.000000 -0.000001
vn 0.000000 1.000000 -0.000001
vn 0.000000 1.000000 -0.000001
vn 0.000000 1.000000 -0.000001
vn 0.999974 -0.004941 -0.005333
vn 0.999993 -0.002436 -0.002667
vn 0.999993 -0.002436 -0.002667
vn 1.000000 0.000069 -0.000000
vn 0.000000 0.000000 1.000000
vn 0.000000 0.000000 1.000000
vn 0.000000 0.000000 1.000000
vn 0.000000 0.000000 1.000000
vn 0.000000 0.000000 1.000000
vn 0.000000 0.000000 1.000000
vn 0.000000 0.000000 1.000000
vn 0.000000 0.000000 1.000000
vn 0.000000 0.000000 1.000000
vn 0.000000 0.000000 1.000000
vn 0.000000 0.000000 1.000000
vn -0.000001 -0.000002 1.000000
vn -0.000000 -0.000002 1.000000
vn -0.000000 -0.000002 1.000000
vn -0.000000 -0.000002 1.000000
vn -0.000000 -0.000002 1.000000
vn 0.763891 -0.644944 -0.022738
vn 0.763891 -0.644944 -0.022738
vn 0.763891 -0.644944 -0.022738
vn 1.000000 0.000004 0.000006
vn 1.000000 0.000009 0.000002
vn 1.000000 0.000009 0.000002
vn 1.000000 0.000014 -0.000002
vn 0.000000 1.000000 0.000000
vn 0.000000 1.000000 0.000000
vn 0.000000 1.000000 0.000000
vn 0.000000 1.000000 0.000000
vn 1.000000 0.000010 -0.000018
vn 1.000000 0.000026 -0.000035
vn 1.000000 0.000026 -0.000035
vn 1.000000 0.000042 -0.000051
vn 0.000000 0.000000 1.000000
vn 0.000000 0.000000 1.000000
vn 0.000000 0.000000 1.000000
vn 0.000000 0.000000 1.000000
vn 0.000000 0.000000 1.000000
vn 0.000000 0.000000 1.000000
vn -0.000001 1.000000 0.000000
vn -0.000000 1.000000 -0.000000
vn -0.000000 1.000000 -0.000000
vn 0.000000 1.000000 -0.000001
vn 0.000000 -0.000002 1.000000
vn 0.000000 -0.000002 1.000000
vn 0.000000 -0.000002 1.000000
vn 0.000000 -0.000002 1.000000
vn 0.000000 -0.000002 1.000000
vn 0.469407 -0.882763 -0.019656
vn 0.469407 -0.882763 -0.019656
vn 0.469407 -0.882763 -0.019656
vn -0.000000 1.000000 0.000000
vn -0.000000 1.000000 0.000053
vn -0.000000 1.000000 0.000131
vn -0.000000 1.000000 0.000132
vn 0.000000 1.000000 0.000000
vn -0.000000 1.000000 0.000000
vn 0.000000 1.000000 0.000000
vn 0.000103 1.000000 0.000001
vn 0.000103 1.000000 0.000001
vn 0.000103 1.000000 0.000001
vn 0.000105 1.000000 -0.000002
vn 0.000105 1.000000 -0.000002
vn 0.000105 1.000000 -0.000002
vn -0.071541 -0.020198 -0.997233
vn -0.071541 -0.020198 -0.997233
vn -0.071541 -0.020198 -0.997233
vn 0.000104 1.000000 0.000001
vn 0.000104 1.000000 0.000001
vn 0.000104 1.000000 0.000001
vn 0.000018 1.000000 0.000324
vn 0.000019 1.000000 0.000162
vn 0.000019 1.000000 0.000162
vn 0.000021 1.000000 0.000000
vn -0.000769 0.745968 -0.665981
vn -0.000769 0.745968 -0.665981
vn -0.000769 0.745968 -0.665981
vn -0.450505 -0.892736 -0.008259
vn -0.434747 -0.900496 -0.010087
vn -0.434747 -0.900496 -0.010087
vn -0.418852 -0.907976 -0.011913
vn 0.002088 0.099597 0.995026
vn 0.002088 0.099597 0.995026
vn 0.002088 0.099597 0.995026
vn 0.006924 -0.159856 0.987116
vn 0.006924 -0.159856 0.987116
vn 0.006924 -0.159856 0.987116
vn 0.000130 0.000057 1.000000
vn 0.000118 0.000049 1.000000
vn 0.000118 0.000049 1.000000
vn 0.000106 0.000042 1.000000
vn 0.002597 0.000032 0.999997
vn 0.001361 -0.000762 0.999999
vn 0.001361 -0.000762 0.999999
vn 0.000124 -0.001555 0.999999
vn 0.004343 -0.248341 0.968663
vn 0.004343 -0.248341 0.968663
vn 0.004343 -0.248341 0.968663
vn 0.013137 -0.765494 0.643309
vn 0.013137 -0.765488 0.643317
vn 0.013137 -0.765488 0.643317
vn 0.013137 -0.765481 0.643324
vn -0.032139 0.563479 0.825505
vn -0.032139 0.563479 0.825505
vn -0.032139 0.563479 0.825505
vn 0.010499 -0.000069 -0.999945
vn 0.005912 -0.004524 -0.999972
vn 0.005912 -0.004524 -0.999972
vn 0.001325 -0.008979 -0.999959
vn -0.999873 0.015973 0.000148
vn -0.999872 0.016012 -0.000072
vn -0.999872 0.016012 -0.000072
vn -0.999871 0.016051 -0.000293
vn -0.010442 0.000096 0.999945
vn -0.005383 0.004577 0.999975
vn -0.005383 0.004577 0.999975
vn -0.000325 0.009057 0.999959
vn -0.760063 -0.643954 -0.087332
vn -0.760063 -0.643954 -0.087332
vn -0.760063 -0.643954 -0.087332
vn -0.999798 0.020068 -0.000562
vn -0.999806 0.019674 0.001027
vn -0.999806 0.019674 0.001027
vn -0.999811 0.019280 0.002616
vn -0.706580 0.702995 -0.080884
vn -0.706580 0.702995 -0.080884
vn -0.706580 0.702995 -0.080884
vn -0.994636 0.000007 0.103434
vn -0.994377 -0.002143 0.105874
vn -0.994377 -0.002143 0.105874
vn -0.994108 -0.004293 0.108313
vn 0.000498 -1.000000 -0.000001
vn 0.000491 -1.000000 -0.000009
vn 0.000491 -1.000000 -0.000009
vn 0.000483 -1.000000 -0.000017
vn -0.994576 -0.011008 0.103427
vn -0.994941 -0.005494 0.100315
vn -0.994941 -0.005494 0.100315
vn -0.995265 0.000019 0.097199
vn -1.000000 -0.000001 0.000000
vn -1.000000 -0.000001 0.000000
vn -1.000000 -0.000001 0.000000
vn -1.000000 -0.000000 0.000000
vn -1.000000 0.000000 0.000000
vn -1.000000 -0.000000 0.000000
vn 0.002284 -0.000095 0.999997
vn 0.002657 0.000232 0.999996
vn 0.002657 0.000232 0.999996
vn 0.003030 0.000559 0.999995
vn 0.002965 0.008726 0.999958
vn 0.002965 0.008726 0.999958
vn 0.002965 0.008726 0.999958
vn -0.343466 -0.938797 0.026282
vn -0.331676 -0.943053 0.025329
vn -0.331676 -0.943053 0.025329
vn -0.319834 -0.947160 0.024372
vn 0.725687 -0.688015 -0.003649
vn 0.708980 -0.705226 -0.001771
vn 0.708980 -0.705226 -0.001771
vn 0.691862 -0.722029 0.000108
vn -0.005349 0.030789 0.999512
vn -0.005349 0.030789 0.999512
vn -0.005349 0.030789 0.999512
vn -0.006592 0.027086 0.999611
vn -0.006611 0.027087 0.999611
vn -0.006611 0.027087 0.999611
vn -0.006629 0.027088 0.999611
vn 0.618238 -0.785468 0.028657
vn 0.618238 -0.785468 0.028657
vn 0.618238 -0.785468 0.028657
vn 0.999538 0.008003 -0.029304
vn 0.999778 0.015117 -0.014654
vn 0.999778 0.015117 -0.014654
vn 0.999753 0.022227 0.000000
vn -0.006623 0.025634 0.999649
vn -0.006640 0.025619 0.999650
vn -0.006640 0.025619 0.999650
vn -0.006656 0.025603 0.999650
vn 0.999772 0.021328 0.001040
vn 0.999771 0.021378 0.000789
vn 0.999771 0.021378 0.000789
vn 0.999770 0.021428 0.000537
vn -0.000042 0.000003 1.000000
vn -0.000043 0.000004 1.000000
vn -0.000043 0.000004 1.000000
vn -0.000044 0.000005 1.000000
vn 0.013026 0.012827 0.999833
vn 0.013026 0.012827 0.999833
vn 0.013026 0.012827 0.999833
vn 0.999960 0.008929 0.000886
vn 0.999961 0.008818 0.000941
vn 0.999960 0.008854 0.000923
vn 0.999961 0.008780 0.000959
vn 0.999961 0.008781 0.000959
vn 0.999961 0.008781 0.000959
vn -0.074275 -0.997238 -0.000831
vn -0.074275 -0.997238 -0.000831
vn -0.074275 -0.997238 -0.000831
vn -0.004247 0.027044 0.999625
vn -0.005439 0.025139 0.999669
vn -0.005439 0.025139 0.999669
vn -0.006632 0.023234 0.999708
vn 0.012820 0.010582 0.999862
vn 0.004267 0.018090 0.999827
vn 0.004267 0.018090 0.999827
vn -0.004286 0.025595 0.999663
vn 0.011629 0.010219 0.999880
vn 0.006180 -0.390002 0.920793
vn 0.006180 -0.390002 0.920793
vn -0.000298 -0.725303 0.688430
vn -0.072228 -0.018161 -0.997223
vn -0.072228 -0.018161 -0.997223
vn -0.072228 -0.018161 -0.997223
vn -0.245719 0.262220 -0.933200
vn -0.245719 0.262220 -0.933200
vn -0.245719 0.262220 -0.933200
vn -0.075423 -0.997151 0.000985
vn -0.075423 -0.997151 0.000985
vn -0.075423 -0.997151 0.000985
vn 0.372477 -0.927982 -0.010474
vn 0.324403 -0.945903 -0.005479
vn 0.324403 -0.945903 -0.005479
vn 0.275467 -0.961311 -0.000470
vn 0.996806 -0.023577 0.076308
vn 0.995606 -0.035412 0.086688
vn 0.995606 -0.035412 0.086688
vn 0.994158 -0.047238 0.097046
vn 0.997044 -0.010976 0.076050
vn 0.997637 -0.016786 0.066621
vn 0.997637 -0.016786 0.066621
vn 0.998108 -0.022594 0.057183
vn -0.117292 -0.679031 -0.724679
vn -0.117292 -0.679031 -0.724679
vn -0.117292 -0.679031 -0.724679
vn -0.017787 0.017736 0.999685
vn -0.015783 0.008823 0.999837
vn -0.015783 0.008823 0.999837
vn -0.013777 -0.000090 0.999905
vn -0.012418 0.040260 0.999112
vn -0.006247 0.020115 0.999778
vn -0.006247 0.020115 0.999778
vn -0.000074 -0.000038 1.000000
vn -0.000000 1.000000 0.000001
vn -0.000000 1.000000 0.000001
vn -0.000000 1.000000 0.000001
vn 0.000021 1.000000 0.000000
vn 0.000021 1.000000 0.000000
vn 0.000021 1.000000 0.000000
vn -0.000039 -0.000038 1.000000
vn -0.000044 -0.000011 1.000000
vn -0.000043 -0.000018 1.000000
vn -0.000046 0.000003 1.000000
vn -0.000045 0.000005 1.000000
vn 0.660011 -0.751114 -0.014635
vn 0.660011 -0.751114 -0.014635
vn 0.660011 -0.751114 -0.014635
vn 0.999629 0.017629 -0.020741
vn 0.999382 0.012905 -0.032696
vn 0.999382 0.012905 -0.032696
vn 0.998969 0.008178 -0.044645
vn -0.245665 0.262207 -0.933218
vn -0.245665 0.262207 -0.933218
vn -0.245665 0.262207 -0.933218
vn -0.000044 0.000003 1.000000
vn -0.000045 0.000004 1.000000
vn -0.000045 0.000004 1.000000
vn -0.000046 0.000006 1.000000
vn 0.999998 -0.002085 0.000694
vn 0.999987 -0.000541 -0.005101
vn 0.999987 -0.000541 -0.005101
vn 0.999940 0.001003 -0.010896
vn -0.072847 -0.008481 -0.997307
vn -0.080164 -0.015200 -0.996666
vn -0.074600 -0.010071 -0.997163
vn -0.091279 -0.025455 -0.995500
vn -0.083820 -0.018559 -0.996308
vn -0.047100 0.343818 -0.937854
vn -0.047100 0.343818 -0.937854
vn -0.047100 0.343818 -0.937854
vn 0.403766 0.914742 -0.014845
vn 0.480171 0.877172 -0.002418
vn 0.480171 0.877172 -0.002418
vn 0.553021 0.833107 0.010027
vn 0.009292 0.598410 0.801136
vn 0.009292 0.598410 0.801136
vn 0.009292 0.598410 0.801136
vn 0.000001 -0.000001 1.000000
vn -0.000008 -0.000015 1.000000
vn -0.000032 0.000557 1.000000
vn -0.000019 -0.000041 1.000000
vn -0.000051 0.000753 1.000000
vn -0.000038 0.000003 1.000000
vn -0.000065 0.001156 0.999999
vn -0.000047 0.000110 1.000000
vn -0.000047 0.000110 1.000000
vn -0.000047 0.000110 1.000000
vn 0.000017 0.000108 1.000000
vn 0.000021 0.000122 1.000000
vn 0.000021 0.000122 1.000000
vn 0.000025 0.000136 1.000000
vn 0.000000 1.000000 0.000000
vn 0.000000 1.000000 -0.000000
vn 0.000000 1.000000 -0.000000
vn 0.000000 1.000000 -0.000000
vn -0.018431 -0.023481 -0.999554
vn -0.013978 -0.019393 -0.999714
vn -0.013978 -0.019393 -0.999714
vn -0.009524 -0.015304 -0.999838
vn -0.999986 -0.000854 0.005164
vn -0.999935 -0.009120 0.006904
vn -0.999985 -0.001366 0.005394
vn -0.999882 -0.013253 0.007774
vn -0.999648 -0.024625 0.009923
vn 0.998567 0.053407 0.003480
vn 0.999636 0.026713 0.003730
vn 0.999636 0.026713 0.003730
vn 0.999992 0.000000 0.003977
vn -0.020478 0.999774 -0.005707
vn -0.017005 0.999842 -0.005231
vn -0.017005 0.999842 -0.005231
vn -0.013533 0.999897 -0.004754
vn -0.022846 0.820036 0.571855
vn -0.020062 0.832841 0.553148
vn -0.020062 0.832841 0.553148
vn -0.017267 0.845212 0.534152
vn 0.619036 0.785261 -0.012612
vn 0.619036 0.785261 -0.012612
vn 0.619036 0.785261 -0.012612
vn 0.999989 -0.000513 -0.004710
vn 0.999989 -0.000513 -0.004710
vn 0.999989 -0.000513 -0.004710
vn 0.836158 0.057409 0.545475
vn 0.836158 0.057409 0.545475
vn 0.836158 0.057409 0.545475
vn 0.000000 1.000000 0.000000
vn 0.000000 1.000000 0.000000
vn 0.000000 1.000000 0.000000
vn 0.000000 1.000000 0.000000
vn 0.000000 1.000000 0.000000
vn -0.000000 1.000000 -0.000001
vn -0.000000 1.000000 -0.000000
vn -0.000000 1.000000 -0.000000
vn -0.000000 1.000000 0.000000
vn 0.000000 1.000000 0.000000
vn 0.000000 1.000000 0.000000
vn 0.000000 1.000000 0.000000
vn 0.000000 1.000000 0.000000
vn 0.000000 1.000000 0.000000
vn 0.000000 1.000000 0.000000
vn 0.000000 1.000000 0.000000
vn 0.000000 1.000000 0.000000
vn 0.000000 1.000000 0.000000
vn 0.000000 1.000000 0.000000
vn 0.000000 1.000000 0.000000
vn 0.000000 1.000000 -0.000000
vn 0.000000 1.000000 -0.000000
vn 0.000000 1.000000 -0.000000
vn 0.000000 1.000000 -0.000001
vn 0.999989 -0.000505 -0.004710
vn 0.999749 -0.022396 -0.000516
vn 0.999749 -0.022396 -0.000516
vn 0.999013 -0.044276 0.003679
vn 0.836200 0.057386 0.545413
vn 0.836188 0.057388 0.545432
vn 0.836188 0.057388 0.545432
vn 0.836176 0.057389 0.545451
vn 0.001326 0.718328 0.695703
vn -0.003589 0.721707 0.692189
vn -0.003589 0.721707 0.692189
vn -0.008504 0.725052 0.688642
vn 0.000000 1.000000 -0.000000
vn 0.000000 1.000000 0.000001
vn 0.000000 1.000000 0.000001
vn 0.000000 1.000000 0.000002
vn -0.999170 0.023064 -0.033588
vn -0.999792 0.011531 -0.016799
vn -0.999792 0.011531 -0.016799
vn -1.000000 -0.000006 -0.000003
vn 0.000000 1.000000 0.000000
vn 0.000000 1.000000 0.000000
vn 0.000000 1.000000 0.000000
vn 0.000000 1.000000 0.000000
vn 0.000000 1.000000 0.000000
vn -0.998357 0.021891 0.052947
vn -0.998357 0.021891 0.052947
vn -0.998357 0.021891 0.052947
vn -0.999566 0.023259 0.018059
vn -0.999319 0.031076 0.019903
vn -0.999319 0.031076 0.019903
vn -0.999007 0.038890 0.021746
vn -0.000009 1.000000 0.000001
vn -0.000001 1.000000 -0.000000
vn -0.000001 1.000000 -0.000000
vn 0.000008 1.000000 -0.000001
vn -0.999999 -0.000770 0.001141
vn -0.999999 -0.000719 0.000983
vn -0.999999 -0.000719 0.000983
vn -0.999999 -0.000668 0.000824
vn -0.000004 1.000000 0.000051
vn -0.000002 1.000000 0.000024
vn -0.000001 1.000000 0.000015
vn 0.000000 1.000000 -0.000003
vn -0.000000 1.000000 -0.000003
vn 0.000149 1.000000 -0.000010
vn 0.000155 1.000000 -0.000003
vn 0.000154 1.000000 -0.000005
vn 0.000159 1.000000 0.000000
vn 0.000158 1.000000 -0.000000
vn 0.000000 1.000000 -0.000001
vn 0.000000 1.000000 0.000000
vn 0.000000 1.000000 0.000000
vn 0.000000 1.000000 0.000001
vn -0.000488 -0.000206 -1.000000
vn -0.000456 -0.000102 -1.000000
vn -0.000456 -0.000102 -1.000000
vn -0.000425 0.000002 -1.000000
vn -1.000000 -0.000000 0.000001
vn -1.000000 0.000001 0.000001
vn -1.000000 0.000001 0.000001
vn -1.000000 0.000002 0.000001
vn 0.002284 -0.000053 0.999997
vn 0.001874 0.000680 0.999998
vn 0.001874 0.000680 0.999998
vn 0.001464 0.001414 0.999998
vn -0.000034 1.000000 -0.000017
vn -0.000018 1.000000 -0.000009
vn -0.000018 1.000000 -0.000009
vn -0.000003 1.000000 -0.000001
vn 0.000000 1.000000 -0.000005
vn -0.000001 1.000000 -0.000002
vn -0.000001 1.000000 -0.000003
vn -0.000001 1.000000 -0.000001
vn -0.000000 1.000000 -0.000001
vn -0.000067 0.021388 0.999771
vn 0.000475 0.022097 0.999756
vn 0.000475 0.022097 0.999756
vn 0.001017 0.022806 0.999739
vn 0.000000 1.000000 0.000001
vn 0.000000 1.000000 0.000000
vn 0.000000 1.000000 0.000000
vn -0.000000 1.000000 -0.000000
vn -0.000000 1.000000 -0.000000
vn -0.000000 1.000000 -0.000000
vn -0.000000 1.000000 0.000000
vn -0.019939 0.999767 -0.008316
vn -0.009983 0.999925 -0.007133
vn -0.009983 0.999925 -0.007133
vn -0.000026 0.999982 -0.005950
vn 0.999994 -0.000000 0.003470
vn 0.999645 0.026633 -0.000441
vn 0.999645 0.026633 -0.000441
vn 0.998572 0.053247 -0.004352
vn -0.000002 1.000000 0.000001
vn -0.000002 1.000000 0.000000
vn -0.000002 1.000000 0.000000
vn -0.000002 1.000000 0.000000
vn -1.000000 0.000010 0.000000
vn -1.000000 0.000007 -0.000000
vn -1.000000 0.000007 -0.000000
vn -1.000000 0.000005 -0.000000
vn -0.003501 -0.174516 0.984648
vn -0.003501 -0.174516 0.984648
vn -0.003501 -0.174516 0.984648
vn 0.972706 0.009101 -0.231863
vn 0.972706 0.009101 -0.231863
vn 0.972706 0.009101 -0.231863
vn -0.000000 1.000000 -0.000002
vn -0.000002 1.000000 -0.000001
vn -0.000001 1.000000 -0.000001
vn -0.000003 1.000000 -0.000000
vn -0.000004 1.000000 -0.000000
vn -0.000072 0.018260 0.999833
vn 0.000680 0.018011 0.999838
vn 0.000680 0.018011 0.999838
vn 0.001431 0.017763 0.999841
vn 0.000752 0.020697 0.999786
vn 0.000355 0.021042 0.999779
vn 0.000355 0.021042 0.999779
vn -0.000042 0.021388 0.999771
vn 0.000000 1.000000 0.000069
vn -0.000005 1.000000 0.000074
vn -0.000005 1.000000 0.000074
vn -0.000011 1.000000 0.000080
vn -0.000042 0.020590 0.999788
vn 0.000355 0.019425 0.999811
vn 0.000355 0.019425 0.999811
vn 0.000752 0.018260 0.999833
vn 0.000000 1.000000 0.000007
vn -0.000011 1.000000 0.000013
vn -0.000008 1.000000 0.000009
vn -0.000012 1.000000 0.000010
vn -0.000003 1.000000 0.000002
vn -0.994941 0.000043 0.100459
vn -0.994941 0.000043 0.100459
vn -0.994941 0.000043 0.100459
vn -0.002066 -0.000706 -0.999998
vn -0.002066 -0.000706 -0.999998
vn -0.002066 -0.000706 -0.999998
vn -0.994837 0.000036 0.101488
vn -0.994258 0.000039 0.107008
vn -0.994258 0.000039 0.107008
vn -0.993649 0.000042 0.112526
vn -0.000002 1.000000 0.000006
vn -0.000001 1.000000 0.000003
vn -0.000001 1.000000 0.000003
vn 0.000000 1.000000 0.000000
vn -0.004716 -0.135805 -0.990724
vn -0.004716 -0.135805 -0.990724
vn -0.004716 -0.135805 -0.990724
vn -0.004758 0.028757 -0.999575
vn -0.002764 0.025427 -0.999673
vn -0.002764 0.025427 -0.999673
vn -0.000769 0.022096 -0.999756
vn -0.003552 0.021320 -0.999766
vn -0.002161 0.010307 -0.999945
vn -0.002161 0.010307 -0.999945
vn -0.000769 -0.000707 -1.000000
vn -0.000007 1.000000 -0.000003
vn 0.010605 0.995699 -0.092037
vn 0.007065 0.998094 -0.061305
vn 0.010606 0.995703 -0.092001
vn -0.000006 1.000000 0.000069
vn -0.000002 1.000000 -0.000002
vn -0.000002 1.000000 -0.000003
vn -0.000001 1.000000 -0.000003
vn -0.000003 1.000000 -0.000003
vn -0.000002 1.000000 -0.000003
vn -0.000007 1.000000 0.000000
vn -0.000007 1.000000 -0.000001
vn -0.000007 1.000000 -0.000001
vn -0.000006 1.000000 -0.000002
vn -0.000704 1.000000 0.000000
vn -0.000704 1.000000 0.000000
vn -0.000704 1.000000 0.000000
vn -0.000704 1.000000 0.000000
vn 0.000143 1.000000 0.000000
vn 0.000143 1.000000 0.000000
vn 0.000143 1.000000 0.000000
vn 0.000143 1.000000 0.000000
vn 0.000008 1.000000 0.000000
vn 0.000008 1.000000 0.000000
vn 0.000008 1.000000 0.000000
vn 0.000008 1.000000 0.000000
vn -0.000704 1.000000 0.000000
vn -0.000704 1.000000 0.000000
vn -0.000704 1.000000 0.000000
vn -0.000704 1.000000 0.000000
vn -0.000704 1.000000 0.000000
vn -0.000704 1.000000 0.000000
vn -0.000704 1.000000 0.000000
vn -0.000704 1.000000 0.000000
vn 0.000001 1.000000 0.000000
vn 0.000001 1.000000 0.000000
vn 0.000001 1.000000 -0.000000
vn 0.000001 1.000000 0.000001
vn -0.008884 0.999308 -0.036120
vn -0.008884 0.999308 -0.036120
vn -0.017766 0.998789 -0.045886
vn 0.000000 0.999653 -0.026348
vn -0.000001 1.000000 0.000000
vn -0.000000 1.000000 0.000002
vn -0.000001 1.000000 0.000001
vn -0.000001 1.000000 0.000002
vn -0.000001 1.000000 0.000000
f 50/49/1 49/316/2 48/48/3
f 52/51/4 51/52/5 48/48/3
f 51/52/5 50/49/1 48/48/3
f 49/316/2 52/51/4 48/48/3
f 80/79/6 76/75/7 74/73/8
f 74/73/8 76/75/7 75/74/9
f 191/189/10 186/186/11 190/187/12
f 190/187/12 186/186/11 185/185/13
f 191/189/14 187/176/15 186/186/16
f 186/186/16 187/176/15 199/197/17
f 188/177/18 196/194/19 179/178/20
f 179/178/20 196/194/19 197/195/21
f 196/194/22 188/177/23 187/176/24
f 187/176/24 188/177/23 199/197/25
f 17/17/26 52/51/27 13/314/28
f 13/314/28 52/51/27 49/315/29
f 136/140/30 207/206/31 208/205/32
f 235/233/33 216/214/34 234/232/35
f 234/232/35 216/214/34 238/236/36
f 236/234/37 230/228/38 237/235/39
f 237/235/39 230/228/38 233/231/40
f 237/235/41 233/231/42 238/236/43
f 238/236/43 233/231/42 234/232/44
f 235/233/45 234/232/46 232/230/47
f 232/230/47 234/232/46 247/245/48
f 234/232/46 233/231/49 247/245/48
f 231/229/50 242/240/51 232/230/52
f 242/240/53 231/229/54 239/237/55
f 241/239/56 227/225/57 240/238/58
f 227/225/59 241/239/60 228/226/61
f 227/225/62 228/226/63 224/222/64
f 224/222/64 228/226/63 249/248/65
f 228/226/63 250/247/66 249/248/65
f 247/245/67 248/246/68 232/230/69
f 248/246/68 250/247/70 232/230/69
f 232/230/69 250/247/70 231/229/71
f 250/247/70 228/226/72 231/229/71
f 143/147/73 259/257/74 261/259/75
f 261/259/75 259/257/74 260/258/76
f 77/76/77 33/33/78 76/75/79
f 76/75/79 33/33/78 118/121/80
f 33/33/78 31/31/81 118/121/80
f 201/200/82 203/202/83 135/139/84
f 203/202/83 188/177/85 135/139/84
f 135/139/84 188/177/85 200/198/86
f 188/177/85 179/178/87 200/198/86
f 117/120/88 31/31/89 115/118/90
f 115/118/90 31/31/89 33/33/91
f 9/9/92 116/119/93 200/198/94
f 116/119/93 115/118/95 200/198/94
f 115/118/95 33/33/96 200/198/94
f 33/33/96 135/139/97 200/198/94
f 112/115/98 113/116/99 115/118/100
f 115/118/100 113/116/99 117/120/101
f 115/118/102 116/119/103 112/115/104
f 116/119/103 224/222/105 112/115/104
f 224/222/105 249/248/106 112/115/104
f 249/248/106 114/117/107 112/115/104
f 267/265/108 178/179/109 198/196/110
f 198/196/110 178/179/109 268/266/111
f 39/39/112 51/52/113 17/17/26
f 17/17/26 51/52/113 52/51/27
f 38/38/114 13/12/28 50/49/115
f 50/49/115 13/12/28 49/50/29
f 50/49/115 51/52/113 38/38/114
f 38/38/114 51/52/113 39/39/112
f 79/78/116 76/75/117 143/147/118
f 76/75/117 85/84/119 143/147/118
f 143/147/118 85/84/119 86/85/120
f 85/84/121 76/75/122 84/83/123
f 84/83/123 76/75/122 80/79/124
f 83/82/125 84/83/126 74/73/127
f 74/73/127 84/83/126 80/79/128
f 287/291/129 150/154/130 285/289/131
f 285/289/131 150/154/130 168/166/132
f 286/290/133 285/289/134 148/152/135
f 148/152/135 285/289/134 168/166/136
f 298/302/137 297/301/138 295/299/139
f 295/299/139 297/301/138 1/1/140
f 75/74/141 29/29/142 74/73/143
f 74/73/143 29/29/142 28/28/144
f 29/29/145 75/74/146 118/121/147
f 118/121/147 75/74/146 76/75/148
f 118/121/149 31/31/150 29/29/151
f 29/29/151 31/31/150 117/120/152
f 129/133/153 18/18/154 28/28/155
f 28/28/155 18/18/154 74/73/156
f 18/18/154 82/81/157 74/73/156
f 82/81/157 83/82/158 74/73/156
f 143/147/159 261/259/160 251/249/161
f 251/249/161 261/259/160 145/148/162
f 76/75/163 79/78/164 77/76/165
f 77/76/165 79/78/164 78/77/166
f 251/249/167 78/77/168 143/147/169
f 143/147/169 78/77/168 79/78/170
f 262/260/171 146/150/172 254/252/173
f 254/252/173 146/150/172 263/261/174
f 135/139/175 33/33/176 201/200/177
f 33/33/176 77/76/178 201/200/177
f 201/200/177 77/76/178 205/204/179
f 205/204/179 77/76/178 178/179/180
f 178/179/180 77/76/178 146/150/181
f 77/76/178 78/77/182 146/150/181
f 317/324/183 251/249/184 318/325/185
f 318/325/185 251/249/184 145/148/186
f 45/45/187 46/46/188 112/115/189
f 46/46/188 130/134/190 112/115/189
f 112/115/189 130/134/190 113/116/191
f 325/331/192 324/332/193 147/151/194
f 147/151/194 324/332/193 253/251/195
f 318/325/196 312/318/197 317/324/198
f 317/324/198 312/318/197 311/319/199
f 326/334/200 144/149/201 327/333/202
f 327/333/202 144/149/201 252/250/203
f 313/320/204 316/323/205 78/77/206
f 78/77/206 316/323/205 146/150/207
f 316/323/208 315/322/209 146/150/210
f 146/150/210 315/322/209 263/261/211
f 313/320/212 317/324/213 311/319/214
f 328/335/215 327/333/216 264/262/217
f 264/262/217 327/333/216 252/250/218
f 324/332/219 328/335/220 253/251/221
f 253/251/221 328/335/220 264/262/222
f 316/323/223 313/320/224 314/321/225
f 315/322/226 316/323/227 314/321/228
f 317/324/229 313/320/230 251/249/231
f 251/249/231 313/320/230 78/77/232
f 324/332/233 325/331/234 314/321/235
f 314/321/235 325/331/234 315/322/236
f 328/335/237 324/332/238 313/320/239
f 313/320/239 324/332/238 314/321/240
f 327/333/241 328/335/242 311/319/243
f 311/319/243 328/335/242 313/320/244
f 327/333/245 311/319/246 326/334/247
f 326/334/247 311/319/246 312/318/248
f 60/60/249 63/402/250 59/59/251
f 337/344/252 59/59/251 61/61/253
f 62/62/254 61/61/253 59/59/251
f 63/402/250 62/62/254 59/59/251
f 255/253/255 155/14/256 62/62/257
f 62/62/258 63/402/259 255/253/260
f 255/253/260 63/402/259 256/407/261
f 256/254/262 63/406/263 14/401/264
f 59/59/251 337/344/265 60/60/249
f 330/336/266 329/337/267 137/142/268
f 137/142/268 329/337/267 140/144/269
f 141/146/270 331/338/271 137/142/272
f 137/142/272 331/338/271 330/336/273
f 207/206/274 136/140/275 142/145/276
f 142/145/276 136/140/275 138/141/277
f 138/141/278 136/140/279 92/91/280
f 169/167/281 343/350/282 171/169/283
f 171/169/283 343/350/282 344/351/284
f 170/168/285 169/167/286 139/143/287
f 139/143/287 169/167/286 92/91/288
f 169/167/286 138/141/289 92/91/288
f 169/167/290 342/349/291 340/347/292
f 330/336/293 171/169/294 329/337/295
f 329/337/295 171/169/294 172/170/296
f 169/167/297 340/347/298 138/141/299
f 138/141/299 340/347/298 142/145/300
f 171/169/301 330/336/302 341/348/303
f 341/348/303 330/336/302 331/338/304
f 169/167/305 171/169/306 342/349/307
f 342/349/307 171/169/306 341/348/308
f 343/350/309 169/167/310 170/168/311
f 171/169/312 344/351/313 172/170/314
f 282/285/315 83/82/316 281/286/317
f 281/286/317 83/82/316 82/81/318
f 87/86/319 86/85/320 84/83/321
f 84/83/321 86/85/320 85/84/322
f 88/87/323 345/352/324 279/282/325
f 279/282/325 345/352/324 87/86/326
f 279/282/327 87/86/328 84/83/329
f 84/83/330 83/82/331 279/282/332
f 279/282/332 83/82/331 282/285/333
f 345/352/334 88/87/335 89/88/336
f 88/87/337 346/353/338 89/88/339
f 347/354/340 348/355/341 66/65/342
f 66/65/342 348/355/341 20/20/343
f 348/355/344 73/72/345 20/20/346
f 72/71/347 349/356/348 73/72/349
f 88/87/350 90/89/351 346/353/352
f 346/353/352 90/89/351 91/90/353
f 90/89/354 93/92/355 91/90/356
f 91/90/356 93/92/355 136/140/357
f 93/92/355 92/91/358 136/140/357
f 120/124/359 339/346/360 121/125/361
f 37/37/362 351/358/363 162/123/364
f 351/358/365 37/37/366 121/125/367
f 121/125/367 37/37/366 120/124/368
f 175/173/369 295/299/370 296/300/371
f 175/173/372 298/302/373 295/299/374
f 153/157/375 302/306/376 293/297/377
f 293/297/377 302/306/376 301/305/378
f 301/305/379 176/174/380 293/297/381
f 176/174/382 301/305/383 289/293/384
f 298/302/385 175/173/386 290/294/387
f 298/302/388 290/294/389 297/301/390
f 297/301/390 290/294/389 291/295/391
f 292/296/392 302/306/393 153/157/394
f 292/296/395 297/301/396 291/295/397
f 292/296/398 357/364/399 158/160/400
f 292/296/401 355/362/402 288/292/403
f 292/296/404 1/1/405 297/301/406
f 292/296/407 299/303/408 1/1/409
f 299/303/410 292/296/411 223/221/412
f 292/296/413 300/304/414 223/221/415
f 292/296/416 153/157/417 300/304/418
f 302/306/419 292/296/420 288/292/421
f 288/292/422 355/362/423 289/293/424
f 289/293/424 355/362/423 356/363/425
f 289/293/426 301/305/427 288/292/428
f 288/292/428 301/305/427 302/306/429
f 358/365/430 174/172/431 294/298/432
f 357/364/433 358/365/434 158/160/435
f 158/160/435 358/365/434 294/298/436
f 356/363/437 174/172/438 289/293/439
f 355/362/440 292/296/441 158/160/442
f 356/363/443 355/362/444 294/298/445
f 294/298/445 355/362/444 158/160/446
f 174/172/447 356/363/448 294/298/449
f 357/364/450 292/296/451 291/295/452
f 357/364/453 291/295/454 358/365/455
f 358/365/455 291/295/454 290/294/456
f 174/172/457 358/365/458 290/294/459
f 130/134/460 133/137/461 113/116/462
f 133/137/461 29/29/463 113/116/462
f 113/116/462 29/29/463 117/120/464
f 133/137/465 130/134/466 30/30/467
f 130/134/466 46/46/468 30/30/467
f 30/30/467 46/46/468 32/32/469
f 319/326/470 46/46/471 45/45/472
f 320/327/473 319/326/474 47/47/475
f 47/47/475 319/326/474 45/45/476
f 321/328/477 32/32/478 34/34/479
f 34/34/480 32/32/481 319/326/482
f 319/326/482 32/32/481 46/46/483
f 361/367/484 359/366/485 321/328/486
f 321/328/486 359/366/485 32/32/487
f 44/44/488 364/371/489 27/27/490
f 27/27/491 131/136/492 30/30/493
f 30/30/493 131/136/492 133/137/494
f 28/28/495 29/29/496 129/133/497
f 29/29/496 133/137/498 129/133/497
f 129/133/497 133/137/498 131/136/499
f 44/44/500 27/27/501 42/42/502
f 42/42/502 27/27/501 359/366/503
f 359/366/504 361/367/505 42/42/506
f 360/368/507 43/43/508 361/367/509
f 361/367/509 43/43/508 42/42/510
f 359/366/511 27/27/512 32/32/513
f 32/32/513 27/27/512 30/30/514
f 364/371/515 131/136/516 27/27/517
f 365/372/518 108/111/519 122/126/520
f 173/171/521 108/111/522 120/124/523
f 120/124/523 108/111/522 338/345/524
f 36/36/525 173/171/526 37/37/527
f 37/37/527 173/171/526 120/124/528
f 90/89/529 119/122/530 93/92/531
f 119/122/530 36/36/532 93/92/531
f 93/92/531 36/36/532 37/37/533
f 108/111/534 365/372/535 338/345/536
f 123/127/537 365/372/538 122/126/539
f 123/127/540 151/441/541 338/345/542
f 338/345/542 151/441/541 120/124/543
f 151/441/541 339/346/544 120/124/543
f 177/175/545 221/219/546 222/220/547
f 222/220/547 221/219/546 156/440/548
f 97/95/549 160/98/550 122/126/551
f 160/98/550 156/158/552 122/126/551
f 122/126/551 156/158/552 123/127/553
f 163/161/554 157/159/555 354/361/556
f 354/361/556 157/159/555 366/373/557
f 157/159/558 352/359/559 366/373/560
f 366/373/560 352/359/559 152/156/561
f 157/159/562 353/360/563 352/359/564
f 174/172/565 157/159/566 289/293/567
f 157/159/566 163/161/568 289/293/567
f 289/293/567 163/161/568 176/174/569
f 157/159/570 174/172/571 353/360/572
f 174/172/571 290/294/573 353/360/572
f 353/360/572 290/294/573 175/173/574
f 365/372/575 123/127/576 338/345/577
f 152/156/578 151/155/579 366/373/580
f 151/155/579 123/439/581 366/373/580
f 366/373/580 123/439/581 156/440/582
f 354/361/583 366/373/584 221/219/585
f 221/219/585 366/373/584 156/440/586
f 61/61/587 62/62/257 58/58/588
f 58/58/588 62/62/257 155/14/256
f 219/217/589 220/218/590 149/153/591
f 218/216/592 167/165/593 209/207/594
f 209/207/594 167/165/593 217/215/595
f 220/218/596 219/217/597 6/6/598
f 286/290/599 165/164/600 285/289/601
f 285/289/601 165/164/600 166/163/602
f 166/163/603 164/162/604 285/289/605
f 285/289/605 164/162/604 287/291/606
f 166/163/607 369/376/608 164/162/609
f 167/165/610 166/163/611 217/215/612
f 217/215/612 166/163/611 368/375/613
f 93/92/614 37/37/615 92/91/616
f 92/91/616 37/37/615 139/143/617
f 139/143/617 37/37/615 167/165/618
f 37/37/615 162/123/619 167/165/618
f 162/123/619 6/6/620 167/165/618
f 368/375/621 166/163/622 165/164/623
f 166/163/624 167/165/625 369/376/626
f 167/165/625 6/6/627 369/376/626
f 369/376/626 6/6/627 219/217/628
f 19/19/629 371/378/630 125/129/631
f 372/379/632 371/378/633 19/19/634
f 373/380/635 370/377/636 372/379/637
f 371/378/638 372/379/637 370/377/636
f 386/396/639 385/397/640 41/40/641
f 41/40/641 385/397/640 24/25/642
f 382/393/643 386/396/644 10/10/645
f 10/10/645 386/396/644 41/40/646
f 383/394/647 382/393/648 40/41/649
f 40/41/649 382/393/648 11/11/650
f 384/395/651 383/394/652 25/24/653
f 25/24/653 383/394/652 40/41/654
f 386/396/655 382/393/656 383/394/657
f 386/396/658 383/394/659 385/397/660
f 385/397/660 383/394/659 384/395/661
f 19/19/662 125/129/663 54/54/664
f 57/57/665 60/60/666 308/312/667
f 308/312/667 60/60/666 337/344/668
f 57/57/665 14/401/264 60/60/666
f 60/60/666 14/401/264 63/406/263
f 337/344/669 61/61/587 308/312/670
f 308/312/670 61/61/587 58/58/588
f 243/241/671 229/227/672 236/234/673
f 236/234/673 229/227/672 230/228/674
f 230/228/675 229/227/676 233/231/677
f 229/227/676 246/244/678 233/231/677
f 246/244/678 248/246/679 233/231/677
f 233/231/677 248/246/679 247/245/680
f 229/227/681 390/403/682 226/224/683
f 245/243/684 114/117/685 246/244/686
f 246/244/686 114/117/685 248/246/687
f 114/117/685 249/248/688 248/246/687
f 249/248/688 250/247/689 248/246/687
f 246/244/690 229/227/691 245/243/692
f 245/243/692 229/227/691 225/223/693
f 229/227/691 226/224/694 225/223/693
f 391/404/695 225/223/696 390/403/697
f 390/403/697 225/223/696 226/224/698
f 392/405/699 266/264/700 391/404/701
f 391/404/701 266/264/700 225/223/702
f 45/45/703 112/115/704 47/47/705
f 47/47/705 112/115/704 225/223/706
f 114/117/707 245/243/708 112/115/704
f 112/115/704 245/243/708 225/223/706
f 229/227/709 243/241/710 390/403/711
f 390/403/711 243/241/710 244/242/712
f 390/403/713 244/242/714 391/404/715
f 391/404/715 244/242/714 265/263/716
f 391/404/717 265/263/718 392/405/719
f 392/405/719 265/263/718 215/213/720
f 15/15/721 81/80/722 18/18/723
f 18/18/723 81/80/722 82/81/724
f 280/284/725 281/283/726 81/80/727
f 81/80/727 281/283/726 82/81/728
f 81/80/729 15/15/730 283/287/731
f 283/287/731 15/15/730 393/408/732
f 280/284/733 81/80/734 284/288/735
f 284/288/735 81/80/734 283/287/736
f 127/131/737 53/53/738 72/71/739
f 72/71/739 53/53/738 349/356/740
f 280/284/741 284/288/742 16/16/743
f 16/16/743 284/288/742 72/71/744
f 284/288/745 127/131/746 72/71/747
f 393/408/748 15/15/749 310/317/750
f 310/317/750 15/15/749 18/18/751
f 132/135/752 22/22/753 134/138/754
f 134/138/754 22/22/753 2/2/755
f 2/2/756 283/287/757 134/138/758
f 132/135/759 134/138/760 310/317/761
f 310/317/761 134/138/760 393/408/762
f 283/287/763 2/2/764 284/288/765
f 284/288/765 2/2/764 127/131/766
f 22/22/767 132/135/768 364/371/769
f 364/371/769 132/135/768 131/136/770
f 131/136/771 310/317/772 129/133/773
f 129/133/773 310/317/772 18/18/774
f 310/317/775 131/136/776 132/135/777
f 44/44/778 2/2/779 364/371/780
f 364/371/780 2/2/779 22/22/781
f 10/10/782 3/3/783 382/393/784
f 3/3/783 2/2/785 382/393/784
f 2/2/785 44/44/786 382/393/784
f 44/44/786 42/42/787 382/393/784
f 42/42/787 43/43/788 382/393/784
f 382/393/784 43/43/788 11/11/789
f 283/287/790 393/408/791 134/138/792
f 189/188/793 190/187/794 184/184/795
f 184/184/795 190/187/794 185/185/796
f 394/409/797 189/188/798 183/183/799
f 183/183/799 189/188/798 184/184/800
f 183/183/801 184/184/802 202/199/803
f 184/184/802 185/185/804 202/199/803
f 202/199/803 185/185/804 186/186/805
f 202/199/806 186/186/807 204/201/808
f 204/201/808 186/186/807 203/202/809
f 186/186/807 199/197/810 203/202/809
f 199/197/810 188/177/811 203/202/809
f 203/202/812 201/200/813 204/201/814
f 201/200/813 205/204/815 204/201/814
f 204/201/814 205/204/815 206/203/816
f 394/409/817 183/183/818 192/190/819
f 178/179/820 267/265/821 180/180/822
f 180/180/822 267/265/821 195/193/823
f 182/182/824 193/191/825 183/183/826
f 183/183/826 193/191/825 192/190/827
f 181/181/828 395/410/829 182/182/830
f 182/182/830 395/410/829 193/191/831
f 204/201/832 206/203/833 202/199/834
f 202/199/834 206/203/833 183/183/835
f 183/183/835 206/203/833 182/182/836
f 206/203/833 181/181/837 182/182/836
f 194/192/838 181/181/839 195/193/840
f 195/193/840 181/181/839 180/180/841
f 205/204/842 178/179/843 206/203/844
f 206/203/844 178/179/843 181/181/845
f 178/179/843 180/180/846 181/181/845
f 395/410/847 181/181/848 194/192/849
f 34/34/850 319/326/851 363/370/852
f 363/370/852 319/326/851 362/369/853
f 362/369/853 319/326/851 270/268/854
f 320/327/855 12/13/856 319/326/851
f 319/326/851 12/13/856 270/268/854
f 272/270/857 332/339/858 275/274/859
f 272/270/860 275/274/861 273/271/862
f 273/271/863 397/412/864 272/270/865
f 332/339/866 272/270/867 270/268/868
f 363/370/869 362/369/870 272/270/871
f 272/270/871 362/369/870 270/268/872
f 304/308/873 407/422/874 102/105/875
f 407/422/876 408/423/877 102/105/878
f 102/105/878 408/423/877 100/104/879
f 387/398/880 94/93/881 54/54/882
f 388/399/883 94/93/884 387/398/885
f 308/312/886 58/58/887 309/313/888
f 309/313/888 58/58/887 100/104/889
f 309/313/890 389/400/891 308/312/892
f 308/312/892 389/400/891 57/57/893
f 367/374/894 309/313/895 307/311/896
f 307/311/897 309/313/898 408/423/899
f 408/423/899 309/313/898 100/104/900
f 389/400/901 309/313/902 367/374/903
f 304/308/904 336/343/905 407/422/906
f 407/422/906 336/343/905 124/128/907
f 407/422/908 124/128/909 408/423/910
f 408/423/910 124/128/909 94/93/911
f 307/311/912 408/423/913 388/399/914
f 388/399/914 408/423/913 94/93/915
f 333/340/916 405/420/917 334/341/918
f 410/425/919 405/420/920 409/424/921
f 409/424/921 405/420/920 333/340/922
f 406/421/923 333/340/924 334/341/925
f 336/343/926 304/308/927 335/342/928
f 335/342/928 304/308/927 306/310/929
f 304/308/930 102/105/931 306/310/932
f 306/310/932 102/105/931 101/103/933
f 335/342/934 305/309/935 336/343/936
f 336/343/936 305/309/935 303/307/937
f 100/104/938 58/58/939 102/105/940
f 58/58/939 155/14/941 102/105/940
f 154/102/942 101/103/943 155/14/941
f 102/105/940 155/14/941 101/103/943
f 333/340/944 335/342/945 409/424/946
f 409/424/946 335/342/945 306/310/947
f 409/424/948 306/310/949 101/103/950
f 410/425/951 409/424/952 154/102/953
f 154/102/953 409/424/952 101/103/954
f 411/426/955 412/427/956 269/267/957
f 269/267/957 412/427/956 212/211/958
f 413/428/959 411/426/960 269/267/961
f 400/415/962 332/339/963 398/413/964
f 398/413/964 332/339/963 270/268/965
f 398/413/966 401/416/967 399/414/968
f 398/413/969 270/268/970 401/416/971
f 401/416/971 270/268/970 12/13/972
f 413/428/973 400/415/974 411/426/975
f 411/426/975 400/415/974 398/413/976
f 412/427/977 411/426/978 399/414/979
f 399/414/979 411/426/978 398/413/980
f 17/17/981 214/212/982 39/39/983
f 39/39/983 214/212/982 213/210/984
f 276/275/985 413/428/986 269/267/987
f 38/38/988 39/39/989 212/211/990
f 212/211/990 39/39/989 269/267/991
f 269/267/991 39/39/989 271/269/992
f 39/39/989 213/210/993 271/269/992
f 271/273/994 276/275/995 269/267/996
f 400/415/997 404/419/998 332/339/999
f 332/339/999 404/419/998 275/274/1000
f 276/275/1001 404/419/1002 413/428/1003
f 413/428/1003 404/419/1002 400/415/1004
f 415/429/1005 414/430/1006 214/212/1007
f 214/212/1007 414/430/1006 213/210/1008
f 403/417/1009 402/418/1010 273/271/1011
f 402/418/1012 397/412/1013 273/271/1014
f 276/275/1015 271/273/1016 274/272/1017
f 414/430/1018 416/431/1019 213/210/1020
f 213/210/1020 416/431/1019 271/269/1021
f 404/419/1022 403/417/1023 275/274/1024
f 275/274/1024 403/417/1023 273/271/1025
f 404/419/1026 276/275/1027 403/417/1028
f 403/417/1028 276/275/1027 274/272/1029
f 416/431/1030 274/272/1031 271/269/1032
f 361/367/1033 321/328/1034 360/368/1035
f 360/368/1035 321/328/1034 323/329/1036
f 321/328/1037 34/34/1038 323/329/1039
f 323/329/1039 34/34/1038 26/26/1040
f 34/34/1041 363/370/1042 26/26/1043
f 363/370/1044 272/270/1045 26/26/1046
f 323/329/1047 26/26/1048 322/330/1049
f 322/330/1049 26/26/1048 419/434/1050
f 26/26/1048 210/208/1051 419/434/1050
f 210/208/1052 397/412/1053 396/411/1054
f 272/270/1055 397/412/1056 26/26/1057
f 26/26/1057 397/412/1056 210/208/1058
f 397/412/1059 402/418/1060 396/411/1061
f 415/429/1062 211/209/1063 417/432/1064
f 417/432/1064 211/209/1063 210/208/1065
f 418/433/1066 417/432/1067 396/411/1068
f 396/411/1068 417/432/1067 210/208/1069
f 403/417/1070 274/272/1071 402/418/1072
f 418/433/1073 396/411/1074 274/272/1071
f 274/272/1071 396/411/1074 402/418/1072
f 418/433/1075 274/272/1076 416/431/1077
f 417/432/1078 418/433/1079 414/430/1080
f 414/430/1080 418/433/1079 416/431/1081
f 415/429/1082 417/432/1083 414/430/1084
f 11/11/1085 43/43/1086 40/41/1087
f 43/43/1086 360/368/1088 40/41/1087
f 360/368/1088 323/329/1089 40/41/1087
f 322/330/1090 25/24/1091 323/329/1089
f 323/329/1089 25/24/1091 40/41/1087
f 419/434/1092 210/208/1093 211/209/1094
f 280/284/1095 16/16/1096 281/283/1097
f 281/283/1097 16/16/1096 69/68/1098
f 282/285/1099 281/286/1100 68/279/1101
f 68/279/1101 281/286/1100 69/278/1102
f 69/68/1103 348/355/1104 110/113/1105
f 110/113/1105 348/355/1104 347/354/1106
f 72/71/1107 73/72/1108 16/16/1109
f 16/16/1109 73/72/1108 69/68/1110
f 73/72/1108 348/355/1111 69/68/1110
f 422/437/1112 420/435/1113 106/109/1114
f 106/109/1114 420/435/1113 71/70/1115
f 126/130/1116 66/65/1117 73/72/1118
f 73/72/1118 66/65/1117 20/20/1119
f 349/356/1120 350/357/1121 73/72/1122
f 73/72/1122 350/357/1121 126/130/1123
f 126/130/1124 347/354/1125 66/65/1126
f 110/113/1127 423/438/1128 106/109/1129
f 423/438/1130 422/437/1131 106/109/1132
f 69/281/1133 110/280/1134 68/67/1135
f 68/67/1135 110/280/1134 35/35/1136
f 110/280/1134 111/114/1137 35/35/1136
f 111/114/1138 110/113/1139 109/112/1140
f 110/113/1139 106/109/1141 109/112/1140
f 106/109/1141 107/110/1142 109/112/1140
f 119/122/1143 90/89/1144 35/35/1145
f 35/35/1145 90/89/1144 68/279/1146
f 90/89/1144 88/87/1147 68/279/1146
f 68/279/1146 88/87/1147 282/285/1148
f 88/87/1147 279/282/1149 282/285/1148
f 36/36/1150 119/122/1151 173/171/1152
f 119/122/1151 35/35/1153 173/171/1152
f 35/35/1153 111/114/1154 173/171/1152
f 173/171/1152 111/114/1154 108/111/1155
f 111/114/1154 109/112/1156 108/111/1155
f 423/438/1157 110/113/1158 126/130/1159
f 126/130/1159 110/113/1158 347/354/1160
f 422/437/1161 423/438/1162 350/357/1163
f 423/438/1162 126/130/1164 350/357/1163
f 159/97/1165 160/98/1166 96/96/1167
f 96/96/1167 160/98/1166 97/95/1168
f 257/255/1169 258/256/1170 105/108/1171
f 105/108/1171 258/256/1170 96/96/1172
f 122/126/1173 108/111/1174 97/95/1175
f 97/95/1175 108/111/1174 96/96/1176
f 96/96/1177 108/111/1178 105/108/1179
f 105/108/1179 108/111/1178 107/110/1180
f 108/111/1178 109/112/1181 107/110/1180
f 8/7/1182 372/379/1183 19/19/1184
f 8/7/1185 7/8/1186 372/379/1187
f 372/379/1187 7/8/1186 23/23/1188
f 373/380/1189 372/379/1190 55/55/1191
f 55/55/1191 372/379/1190 23/23/1192
f 53/53/1193 127/131/1194 21/21/1195
f 21/21/1195 127/131/1194 4/4/1196
f 127/131/1197 2/2/1198 4/4/1199
f 2/2/1198 3/3/1200 4/4/1199
f 4/4/1199 3/3/1200 5/5/1201
f 303/307/1202 305/309/1203 128/132/1204
f 128/132/1204 305/309/1203 103/106/1205
f 305/309/1203 99/101/1206 103/106/1205
f 258/256/1207 161/454/1208 96/96/1209
f 96/96/1209 161/454/1208 159/97/1210
f 336/343/1211 303/307/1212 124/128/1213
f 124/128/1213 303/307/1212 128/132/1214
f 333/340/1215 406/421/1216 99/101/1217
f 99/101/1217 406/421/1216 161/100/1218
f 333/340/1219 99/101/1220 335/342/1221
f 335/342/1221 99/101/1220 305/309/1222
f 161/100/1223 427/451/1224 99/101/1225
f 99/101/1225 427/451/1224 103/106/1226
f 161/454/1227 258/256/1228 427/445/1229
f 427/445/1229 258/256/1228 104/107/1230
f 258/256/1228 257/255/1231 104/107/1230
f 64/63/1232 8/7/1233 65/64/1234
f 65/64/1234 8/7/1233 19/19/1235
f 107/110/1236 106/109/1237 105/108/1238
f 106/109/1237 71/70/1239 105/108/1238
f 105/108/1238 71/70/1239 257/255/1240
f 257/255/1240 71/70/1239 104/107/1241
f 71/70/1239 95/94/1242 104/107/1241
f 349/356/1243 53/53/1244 350/357/1245
f 350/357/1245 53/53/1244 67/66/1246
f 420/435/1247 422/437/1248 67/66/1249
f 67/66/1249 422/437/1248 350/357/1250
f 65/64/1251 19/19/1252 56/56/1253
f 56/56/1253 19/19/1252 54/54/1254
f 128/132/1255 98/99/1256 124/128/1257
f 124/128/1257 98/99/1256 94/93/1258
f 54/54/1259 94/93/1260 56/56/1261
f 94/93/1262 98/99/1263 56/56/1264
f 426/444/1265 7/8/1266 425/452/1267
f 425/452/1267 7/8/1266 64/63/1268
f 7/8/1266 8/7/1269 64/63/1268
f 277/276/1270 278/277/1271 4/4/1272
f 4/4/1272 278/277/1271 21/21/1273
f 424/442/1274 425/452/1275 65/64/1276
f 65/64/1276 425/452/1275 64/63/1277
f 67/66/1278 53/53/1279 278/277/1280
f 278/277/1280 53/53/1279 21/21/1281
f 425/443/1282 424/448/1283 277/276/1284
f 277/276/1284 424/448/1283 278/277/1285
f 428/450/1286 98/99/1287 427/451/1288
f 98/99/1287 128/132/1289 427/451/1288
f 427/451/1288 128/132/1289 103/106/1290
f 420/435/1291 421/436/1292 71/70/1293
f 421/436/1294 95/94/1295 71/70/1296
f 420/435/1297 67/66/1298 421/436/1299
f 421/436/1299 67/66/1298 70/69/1300
f 427/445/1301 104/107/1302 428/446/1303
f 428/446/1303 104/107/1302 95/94/1304
f 421/436/1305 428/446/1306 95/94/1307
f 98/99/1308 428/450/1309 56/56/1310
f 56/56/1310 428/450/1309 429/449/1311
f 428/446/1312 421/436/1313 429/447/1314
f 429/447/1314 421/436/1313 70/69/1315
f 429/447/1316 70/69/1317 424/448/1318
f 70/69/1317 67/66/1319 424/448/1318
f 67/66/1319 278/277/1320 424/448/1318
f 425/443/1321 277/276/1322 426/453/1323
f 4/4/1324 5/5/1325 277/276/1322
f 277/276/1322 5/5/1325 426/453/1323
f 56/56/1326 429/449/1327 65/64/1328
f 65/64/1328 429/449/1327 424/442/1329
f 380/391/1330 374/385/1331 377/387/1332
f 377/387/1332 374/385/1331 41/381/1333
f 377/387/1334 41/381/1335 376/388/1336
f 376/388/1336 41/381/1335 24/382/1337
f 378/390/1338 379/389/1339 23/384/1340
f 23/384/1340 379/389/1339 55/383/1341
f 23/384/1342 375/386/1343 378/390/1344
f 378/390/1344 375/386/1343 381/392/1345
f 375/386/1346 374/385/1347 381/392/1348
f 381/392/1348 374/385/1347 380/391/1349
f 137/455/1350 430/456/1351 141/457/1352
f 137/455/1350 140/458/1353 430/456/1351
f 168/459/1354 431/460/1355 148/461/1356
f 168/459/1354 150/462/1357 431/460/1355
f 147/463/1358 253/464/1359 144/467/1360
f 253/464/1359 264/465/1361 144/467/1360
f 264/465/1361 252/466/1362 144/467/1360
