# This file uses centimeters as units for non-parametric coordinates.

v -2.474627 10.392057 1.355384
v -9.836660 1.688361 1.355386
v -2.462612 1.597968 1.355384
v -9.878754 10.362333 1.355386
v -2.474627 10.392057 -4.047937
v -2.462612 1.597968 -4.047937
v 2.278141 10.392057 -4.047937
v 2.290156 1.597968 -4.047937
v 2.278141 10.392057 1.718041
v 2.290156 1.597968 1.718041
v 8.543610 10.392057 1.718041
v 8.555625 1.597968 1.718041
vt 0.181895 0.482588
vt 0.195249 0.386304
vt 0.079206 0.390514
vt 0.066133 0.481423
vt 0.181895 0.482588
vt 0.195249 0.386304
vt 0.181895 0.482588
vt 0.181895 0.482588
vt 0.181895 0.482588
vt 0.181895 0.482588
vt 0.181895 0.482588
vt 0.181895 0.482588
vn 0.000000 0.000000 1.000000
vn 0.000000 0.000000 1.000000
vn 0.000000 0.000000 1.000000
vn 0.000000 0.000000 1.000000
vn 0.999999 0.001366 0.000000
vn 0.999999 0.001366 0.000000
vn 0.999999 0.001366 0.000000
vn 0.999999 0.001366 0.000000
vn 0.000000 0.000000 1.000000
vn 0.000000 0.000000 1.000000
vn 0.000000 0.000000 1.000000
vn 0.000000 0.000000 1.000000
vn -0.999999 -0.001366 0.000000
vn -0.999999 -0.001366 0.000000
vn -0.999999 -0.001366 0.000000
vn -0.999999 -0.001366 0.000000
vn 0.000000 0.000000 1.000000
vn 0.000000 0.000000 1.000000
vn 0.000000 0.000000 1.000000
vn 0.000000 0.000000 1.000000
f 3/2/1 1/1/2 2/3/3
f 2/3/3 1/1/2 4/4/4
f 1/2/5 3/6/6 5/5/7
f 5/5/7 3/6/6 6/1/8
f 5/5/9 6/1/10 7/8/11
f 7/8/11 6/1/10 8/7/12
f 7/8/13 8/7/14 9/10/15
f 9/10/15 8/7/14 10/9/16
f 9/10/17 10/9/18 11/12/19
f 11/12/19 10/9/18 12/11/20
