# This file uses centimeters as units for non-parametric coordinates.

v -0.500002 -0.500000 0.000000
v 0.499998 -0.500000 0.000000
v -0.500002 0.500000 0.000000
v 0.499998 0.500000 0.000000
v -0.018037 0.025551 0.000026
v -0.027589 -0.016333 0.001462
v 0.013678 -0.025519 0.000590
v 0.021684 0.015911 -0.000811
v -2.104832 -2.104828 0.576948
v 2.104826 -2.104828 0.576948
v -2.104832 2.104828 0.576948
v 2.104826 2.104828 0.576948
v -3.367203 -3.367202 11.404195
v 3.367199 -3.367202 11.404195
v -3.367203 3.367201 11.404195
v 3.367199 3.367201 11.404195
v -0.000002 4.606569 11.404195
v -0.163803 2.879552 0.576948
v -0.030052 0.684035 0.000000
v -0.011655 -0.028341 0.001284
v -0.026785 -0.684035 0.000000
v -0.145994 -2.879552 0.576948
v -0.000002 -4.606569 11.404195
v 0.026337 -0.006660 -0.000291
v 0.689413 -0.021419 0.000000
v 2.902199 -0.116754 0.576948
v 4.642796 0.000000 11.404195
v -4.642799 0.000000 11.404195
v -2.902203 -0.099028 0.576948
v -0.689417 -0.018167 0.000000
v -0.030616 0.009086 0.000993
v -0.000002 0.000000 13.298796
v 0.014700 0.058339 -0.002337
v -0.034046 0.049445 -0.000244
v -0.056036 0.010923 0.001463
v -0.048909 -0.029894 0.002436
v -0.014977 -0.052414 0.002148
v 0.028205 -0.048338 0.000844
v 0.049530 -0.012657 -0.000764
v 0.055588 0.030470 -0.003273
v 0.017400 0.019458 -0.000736
v 0.033953 0.039511 -0.001829
v 0.009994 0.031510 -0.001952
v 0.019095 0.026689 -0.000437
v -0.006782 0.034927 0.000198
v -0.009058 0.027741 0.000544
v 0.022305 0.078835 -0.002520
v 0.009328 0.057381 -0.002162
v 0.003292 0.034252 -0.000914
v 0.037454 0.025040 -0.001511
v 0.032241 0.033714 -0.002027
v 0.016401 0.046132 -0.002962
v 0.011345 0.045306 -0.002557
v 0.031658 0.021352 -0.001246
v 0.026959 0.030817 -0.001388
v 0.015229 0.039403 -0.002737
v 0.025087 0.048182 -0.002063
v 0.024613 0.042218 -0.002860
v 0.022383 0.037131 -0.002087
v 0.014317 0.029571 -0.000822
v 0.006095 0.040606 -0.001373
v 0.011350 0.036486 -0.002022
v -0.027371 0.016774 0.000973
v -0.032011 -0.004941 0.001422
v -0.020022 -0.024046 0.001551
v 0.002425 -0.029553 0.000621
v 0.021553 -0.018601 -0.000345
v 0.026306 0.005805 -0.000897
v -0.001775 0.034954 -0.000316
v -0.090802 0.017665 0.002226
v -0.072990 -0.045212 0.003537
v -0.022318 -0.080099 0.003143
v 0.045618 -0.075693 0.001149
v 0.080200 -0.020535 -0.001381
v 0.083142 0.048309 -0.004484
v 0.025603 0.099685 -0.003211
v -0.051861 0.077430 -0.000556
v -0.023125 0.022094 0.000726
v -0.045008 0.030242 0.000607
v -0.059900 0.034968 0.000881
v -0.057445 0.086202 -0.000653
v 0.027141 -0.000147 -0.000712
v 0.018189 -0.022561 -0.000009
v -0.003310 -0.029637 0.000932
v -0.032230 0.000667 0.001240
v -0.030062 -0.011195 0.001430
v -0.024238 -0.020324 0.001502
v -0.031328 -0.041562 0.002287
v -0.016215 -0.026343 0.001416
v 0.024481 -0.012948 -0.000322
v 0.024474 0.011038 -0.000846
v 0.008960 -0.028060 0.000586
v 0.038841 -0.030541 0.000042
v -0.015148 0.033160 0.000183
v -0.012546 0.027366 0.000353
v 0.021112 0.044580 -0.002900
v 0.008523 0.043504 -0.001970
v 0.010389 0.034266 -0.001964
v 0.018900 0.038754 -0.002443
v 0.012970 0.038320 -0.002370
v 0.024955 0.034311 -0.001724
v 0.001251 0.034535 -0.000673
v 0.004591 0.037374 -0.001140
v 0.028149 0.039029 -0.002522
vt 0.000000 0.000000
vt 1.000000 0.000000
vt 0.000000 1.000000
vt 1.000000 1.000000
vt 0.250000 0.750000
vt 0.250000 0.250000
vt 0.750000 0.250000
vt 0.750000 0.750000
vt 0.000000 0.000000
vt 1.000000 0.000000
vt 1.000000 1.000000
vt 0.000000 1.000000
vt 0.000000 0.000000
vt 1.000000 0.000000
vt 1.000000 1.000000
vt 0.000000 1.000000
vt 0.000000 0.000000
vt 1.000000 0.000000
vt 1.000000 1.000000
vt 0.000000 1.000000
vt 0.000000 0.000000
vt 1.000000 0.000000
vt 1.000000 1.000000
vt 0.000000 1.000000
vt 0.000000 0.000000
vt 1.000000 0.000000
vt 1.000000 1.000000
vt 0.000000 1.000000
vt 0.000000 0.000000
vt 1.000000 0.000000
vt 1.000000 1.000000
vt 0.000000 1.000000
vt 0.000000 0.000000
vt 1.000000 0.000000
vt 1.000000 1.000000
vt 0.000000 1.000000
vt 0.000000 0.000000
vt 1.000000 0.000000
vt 1.000000 1.000000
vt 0.000000 1.000000
vt 0.500000 1.000000
vt 0.471780 0.000000
vt 0.471780 1.000000
vt 0.478207 0.000000
vt 0.478207 1.000000
vt 0.500000 0.250000
vt 0.480576 0.000000
vt 0.519424 0.000000
vt 0.525152 1.000000
vt 0.525152 0.000000
vt 0.500000 1.000000
vt 0.750000 0.500000
vt 1.000000 0.484344
vt 0.515656 0.000000
vt 0.520273 1.000000
vt 0.520273 0.000000
vt 0.500000 1.000000
vt 0.500000 1.000000
vt 0.482805 0.000000
vt 0.482805 1.000000
vt 0.486721 0.000000
vt 0.000000 0.486721
vt 0.250000 0.500000
vt 0.000000 0.000000
vt 1.000000 0.000000
vt 0.500000 1.000000
vt 0.000000 0.000000
vt 1.000000 0.000000
vt 0.500000 1.000000
vt 0.000000 0.000000
vt 1.000000 0.000000
vt 0.500000 1.000000
vt 0.000000 0.000000
vt 1.000000 0.000000
vt 0.500000 1.000000
vt 0.000000 0.000000
vt 1.000000 0.000000
vt 0.500000 1.000000
vt 0.000000 0.000000
vt 1.000000 0.000000
vt 0.500000 1.000000
vt 0.000000 0.000000
vt 1.000000 0.000000
vt 0.500000 1.000000
vt 0.000000 0.000000
vt 1.000000 0.000000
vt 0.500000 1.000000
vt 0.499015 0.761302
vt 0.239269 0.760731
vt 0.240279 0.499484
vt 0.240665 0.240665
vt 0.499267 0.240568
vt 0.759987 0.240013
vt 0.759169 0.499426
vt 0.760323 0.760323
vt 0.680414 0.750000
vt 0.673394 0.760649
vt 0.499774 0.752592
vt 0.678461 0.752963
vt 0.383214 0.751383
vt 0.427869 0.750000
vt 0.498630 0.765717
vt 0.466576 0.761231
vt 0.458001 0.752159
vt 0.756403 0.756403
vt 0.674883 0.758390
vt 0.499290 0.758142
vt 0.462979 0.757426
vt 0.753865 0.753865
vt 0.676389 0.756106
vt 0.499517 0.755537
vt 0.593089 0.760950
vt 0.565034 0.758235
vt 0.585186 0.755813
vt 0.604393 0.752809
vt 0.460216 0.754502
vt 0.499653 0.753979
vt 0.250000 0.632358
vt 0.250000 0.388647
vt 0.380105 0.250000
vt 0.619072 0.250000
vt 0.750000 0.369209
vt 0.750000 0.639404
vt 0.420079 0.751765
vt 0.226872 0.498772
vt 0.230122 0.230122
vt 0.498418 0.229641
vt 0.771958 0.228042
vt 0.771154 0.498675
vt 0.772593 0.772593
vt 0.497914 0.773930
vt 0.227021 0.772979
vt 0.250000 0.689935
vt 0.239772 0.630501
vt 0.233622 0.641401
vt 0.223182 0.776818
vt 0.750000 0.570422
vt 0.750000 0.312099
vt 0.561116 0.250000
vt 0.250000 0.434289
vt 0.250000 0.317599
vt 0.315689 0.250000
vt 0.374656 0.240615
vt 0.437715 0.250000
vt 0.750000 0.433593
vt 0.750000 0.693253
vt 0.690905 0.250000
vt 0.759579 0.369402
vt 0.314643 0.750671
vt 0.357553 0.750000
vt 0.531499 0.758187
vt 0.461638 0.756007
vt 0.499724 0.753172
vt 0.536775 0.755657
vt 0.499585 0.754756
vt 0.631130 0.755961
vt 0.442726 0.752000
vt 0.459090 0.753310
vt 0.613879 0.758304
vn 0.026951 0.086965 0.995847
vn 0.024100 0.049894 0.998464
vn 0.012118 0.024368 0.999630
vn 0.022334 0.026065 0.999411
vn -0.001581 0.011238 0.999936
vn 0.025651 0.032560 0.999141
vn 0.041508 0.037538 0.998433
vn 0.034826 0.020688 0.999179
vn 0.041287 0.010032 0.999097
vn 0.014318 0.017498 0.999744
vn -0.005341 0.144574 0.989480
vn -0.060900 0.136970 0.988701
vn 0.029086 0.142237 0.989405
vn 0.003238 0.253990 0.967201
vn 0.004032 0.253957 0.967207
vn -0.089304 0.257524 0.962136
vn -0.088581 0.257355 0.962248
vn 0.003634 -0.253947 0.967211
vn -0.088858 -0.258044 0.962038
vn 0.004526 -0.253905 0.967219
vn -0.088055 -0.257851 0.962164
vn 0.252223 0.002215 0.967667
vn 0.254277 -0.092475 0.962700
vn 0.252207 0.002764 0.967669
vn 0.254167 -0.091959 0.962779
vn -0.252193 0.002612 0.967673
vn -0.252171 0.003260 0.967677
vn -0.254817 -0.092013 0.962602
vn -0.254685 -0.091412 0.962694
vn 0.134969 0.978334 0.156989
vn -0.112975 0.981209 0.156413
vn -0.331627 0.931294 0.150716
vn -0.341610 0.928109 0.148039
vn 0.136777 -0.978072 0.157058
vn -0.330487 -0.931650 0.151020
vn -0.112141 -0.981306 0.156405
vn -0.341610 -0.928109 0.148039
vn 0.978332 0.133872 0.157938
vn 0.927079 -0.343295 0.150576
vn 0.980368 -0.118549 0.157559
vn 0.924755 -0.350325 0.148664
vn -0.978069 0.135697 0.158011
vn -0.980474 -0.117666 0.157558
vn -0.927470 -0.342094 0.150901
vn -0.924755 -0.350325 0.148664
vn 0.366512 -0.918276 0.149796
vn 0.354223 -0.923630 0.146402
vn 0.097870 -0.247541 0.963922
vn 0.098844 -0.247648 0.963795
vn 0.031901 0.029218 0.999064
vn 0.037808 0.030728 0.998812
vn 0.047947 0.030332 0.998389
vn 0.097332 0.248168 0.963815
vn 0.098190 0.248268 0.963702
vn 0.352768 0.924160 0.146575
vn 0.363643 0.919448 0.149598
vn 0.015572 0.031176 0.999393
vn 0.029299 0.028526 0.999164
vn 0.017743 -0.011708 0.999774
vn -0.247229 0.098504 0.963937
vn -0.247316 0.099193 0.963844
vn -0.921501 0.359301 0.147442
vn -0.917644 0.368047 0.149902
vn 0.918792 0.365250 0.149709
vn 0.922024 0.357882 0.147624
vn 0.247843 0.097978 0.963833
vn 0.247921 0.098556 0.963754
vn 0.027763 0.024790 0.999307
vn 0.028978 0.024722 0.999274
vn 0.035864 0.017616 0.999201
vn 0.138651 0.376695 -0.915902
vn 0.138651 0.376695 -0.915902
vn 0.138651 0.376695 -0.915902
vn 0.138651 -0.376695 -0.915902
vn 0.138651 -0.376695 -0.915902
vn 0.138651 -0.376695 -0.915902
vn 0.374014 0.141688 -0.916536
vn 0.374014 0.141688 -0.916536
vn 0.374014 0.141688 -0.916536
vn -0.374014 0.141688 -0.916536
vn -0.374014 0.141688 -0.916536
vn -0.374014 0.141688 -0.916536
vn -0.138651 -0.376695 -0.915902
vn -0.138651 -0.376695 -0.915902
vn -0.138651 -0.376695 -0.915902
vn -0.138651 0.376695 -0.915902
vn -0.138651 0.376695 -0.915902
vn -0.138651 0.376695 -0.915902
vn -0.374014 -0.141688 -0.916536
vn -0.374014 -0.141688 -0.916536
vn -0.374014 -0.141688 -0.916536
vn 0.374014 -0.141688 -0.916536
vn 0.374014 -0.141688 -0.916536
vn 0.374014 -0.141688 -0.916536
vn 0.022280 0.006109 0.999733
vn 0.021609 0.020015 0.999566
vn 0.030256 0.016449 0.999407
vn 0.027996 0.041741 0.998736
vn 0.027471 0.028610 0.999213
vn 0.018458 0.023382 0.999556
vn 0.014380 0.017496 0.999744
vn 0.019865 0.013528 0.999711
vn 0.024921 0.028684 0.999278
vn 0.023567 0.017728 0.999565
vn 0.018297 0.032697 0.999298
vn 0.020579 0.038384 0.999051
vn 0.056261 0.039809 0.997622
vn 0.015872 0.017704 0.999717
vn 0.059107 0.078225 0.995182
vn 0.039832 0.056514 0.997607
vn 0.025847 -0.015249 0.999550
vn -0.013778 -0.037984 0.999183
vn 0.035514 0.064118 0.997310
vn -0.032892 0.013854 0.999363
vn -0.034040 0.028327 0.999019
vn -0.057660 0.003384 0.998331
vn 0.074734 -0.010997 0.997143
vn -0.006793 -0.024635 0.999673
vn -0.029869 0.001559 0.999553
vn -0.083341 -0.074377 0.993742
vn 0.102413 0.055308 0.993203
vn 0.142954 -0.008517 0.989693
vn 0.030721 0.040305 0.998715
vn -0.052445 0.032332 0.998100
vn -0.142219 -0.066877 0.987574
vn -0.007356 -0.071471 0.997416
vn -0.080096 -0.140879 0.986782
vn -0.145923 -0.119589 0.982041
vn -0.007155 0.246174 0.969199
vn -0.001082 0.138529 0.990358
vn -0.007684 0.268088 0.963364
vn 0.120067 0.021921 0.992524
vn 0.121006 0.019429 0.992462
vn 0.114922 0.026832 0.993012
vn 0.086326 0.087910 0.992381
vn -0.236519 0.038156 0.970877
vn -0.091171 0.090071 0.991754
vn 0.019236 0.010179 0.999763
vn 0.022061 0.029401 0.999324
vn 0.019555 0.030387 0.999347
vn 0.050226 0.027598 0.998357
vn 0.027144 0.029201 0.999205
vn 0.010827 0.036825 0.999263
vn 0.026811 0.024944 0.999329
vn 0.009499 0.013900 0.999858
vn 0.008209 0.009547 0.999921
vn -0.004841 0.006184 0.999969
vn -0.002128 -0.005548 0.999982
vn 0.009454 -0.004194 0.999947
vn 0.009005 0.008947 0.999919
vn -0.004062 0.014407 0.999888
vn -0.000808 -0.008374 0.999965
vn 0.003860 -0.002310 0.999990
vn -0.004788 0.039360 0.999214
vn 0.040999 0.056775 0.997545
vn 0.044359 0.029726 0.998573
vn 0.027405 0.026491 0.999273
vn -0.013748 0.346729 0.937865
vn 0.120068 0.021921 0.992524
f 78/133/1 79/134/2 63/118/3
f 63/118/3 79/134/2 35/90/4
f 92/147/5 38/93/6 7/7/7
f 54/109/8 91/146/9 68/123/10
f 59/114/11 60/115/12 101/156/13
f 21/48/14 22/49/15 2/9/16
f 2/9/16 22/49/15 10/12/17
f 19/44/18 4/14/19 18/43/20
f 18/43/20 4/14/19 12/15/21
f 30/61/22 3/18/23 29/60/24
f 29/60/24 3/18/23 11/19/25
f 25/54/26 26/55/27 4/21/28
f 4/21/28 26/55/27 12/24/29
f 22/50/30 23/51/31 10/25/32
f 10/25/32 23/51/31 14/28/33
f 18/42/34 12/30/35 17/41/36
f 17/41/36 12/30/35 16/31/37
f 29/59/38 11/34/39 28/58/40
f 28/58/40 11/34/39 15/35/41
f 26/56/42 27/57/43 12/37/44
f 12/37/44 27/57/43 16/40/45
f 11/29/46 18/42/34 15/32/47
f 15/32/47 18/42/34 17/41/36
f 19/44/18 18/43/20 3/13/48
f 3/13/48 18/43/20 11/16/49
f 65/120/50 37/92/51 89/144/52
f 21/48/14 1/10/53 22/49/15
f 22/49/15 1/10/53 9/11/54
f 23/51/31 22/50/30 13/27/55
f 13/27/55 22/50/30 9/26/56
f 67/122/57 39/94/58 90/145/59
f 25/54/26 2/22/60 26/55/27
f 26/55/27 2/22/60 10/23/61
f 27/57/43 26/56/42 14/39/62
f 14/39/62 26/56/42 10/38/63
f 9/33/64 29/59/38 13/36/65
f 13/36/65 29/59/38 28/58/40
f 30/61/22 29/60/24 1/17/66
f 1/17/66 29/60/24 9/20/67
f 64/119/68 36/91/69 86/141/70
f 23/64/71 13/65/72 32/66/73
f 15/67/74 17/68/75 32/69/76
f 13/70/77 28/71/78 32/72/79
f 27/73/80 14/74/81 32/75/82
f 17/76/83 16/77/84 32/78/85
f 14/79/86 23/80/87 32/81/88
f 16/82/89 27/83/90 32/84/91
f 28/85/92 15/86/93 32/87/94
f 76/131/95 77/132/96 47/102/97
f 47/102/97 77/132/96 34/89/98
f 79/134/2 80/135/99 35/90/4
f 35/90/4 80/135/99 70/125/100
f 70/125/100 71/126/101 35/90/4
f 35/90/4 71/126/101 36/91/69
f 71/126/101 72/127/102 88/143/103
f 88/143/103 72/127/102 37/92/51
f 37/92/51 72/127/102 38/93/6
f 38/93/6 72/127/102 73/128/104
f 73/128/104 74/129/105 93/148/106
f 93/148/106 74/129/105 39/94/58
f 39/94/58 74/129/105 40/95/107
f 40/95/107 74/129/105 75/130/108
f 76/131/95 47/102/97 75/130/108
f 75/130/108 47/102/97 40/95/107
f 55/110/109 44/99/110 54/109/8
f 54/109/8 44/99/110 8/8/111
f 8/8/111 44/99/110 41/96/112
f 45/100/113 34/89/98 94/149/114
f 45/100/113 94/149/114 46/101/115
f 46/101/115 94/149/114 95/150/116
f 47/102/97 48/103/117 33/88/118
f 40/95/107 47/102/97 42/97/119
f 42/97/119 47/102/97 57/112/120
f 47/102/97 34/89/98 48/103/117
f 48/103/117 97/152/121 53/108/122
f 40/95/107 42/97/119 50/105/123
f 50/105/123 42/97/119 51/106/124
f 42/97/119 104/159/125 51/106/124
f 33/88/118 48/103/117 52/107/126
f 52/107/126 48/103/117 53/108/122
f 51/106/124 55/110/109 50/105/123
f 50/105/123 55/110/109 54/109/8
f 57/112/120 47/102/97 33/88/118
f 57/112/120 96/151/127 58/113/128
f 59/114/11 99/154/129 62/117/130
f 62/117/130 99/154/129 100/155/131
f 102/157/132 103/158/133 69/124/134
f 69/124/134 103/158/133 61/116/135
f 43/98/136 60/115/12 98/153/137
f 98/153/137 60/115/12 59/114/11
f 63/118/3 35/90/4 31/63/138
f 35/90/4 85/140/139 31/63/138
f 87/142/140 88/143/103 65/120/50
f 65/120/50 88/143/103 37/92/51
f 84/139/141 37/92/51 66/121/142
f 66/121/142 37/92/51 38/93/6
f 67/122/57 93/148/106 39/94/58
f 50/105/123 39/94/58 40/95/107
f 39/94/58 82/137/143 24/52/144
f 34/89/98 45/100/113 61/116/135
f 69/124/134 61/116/135 45/100/113
f 77/132/96 81/136/145 70/125/100
f 81/136/145 3/3/146 70/125/100
f 30/62/147 70/125/100 3/3/146
f 70/125/100 30/62/147 71/126/101
f 1/1/148 71/126/101 30/62/147
f 71/126/101 1/1/148 72/127/102
f 1/1/148 21/47/149 72/127/102
f 72/127/102 21/47/149 73/128/104
f 73/128/104 21/47/149 2/2/150
f 73/128/104 2/2/150 74/129/105
f 25/53/151 74/129/105 2/2/150
f 74/129/105 25/53/151 75/130/108
f 75/130/108 25/53/151 4/4/152
f 19/45/153 76/131/95 4/4/152
f 4/4/152 76/131/95 75/130/108
f 76/131/95 19/45/153 77/132/96
f 77/132/96 19/45/153 81/136/145
f 3/3/146 81/136/145 19/45/153
f 77/132/96 70/125/100 80/135/99
f 34/89/98 79/134/2 5/5/154
f 5/5/154 79/134/2 78/133/1
f 34/89/98 80/135/99 79/134/2
f 77/132/96 80/135/99 34/89/98
f 50/105/123 54/109/8 39/94/58
f 39/94/58 54/109/8 82/137/143
f 54/109/8 68/123/10 82/137/143
f 38/93/6 83/138/155 7/7/7
f 20/46/156 37/92/51 84/139/141
f 36/91/69 64/119/68 35/90/4
f 35/90/4 64/119/68 85/140/139
f 86/141/70 36/91/69 6/6/157
f 36/91/69 88/143/103 6/6/157
f 6/6/157 88/143/103 87/142/140
f 71/126/101 88/143/103 36/91/69
f 89/144/52 37/92/51 20/46/156
f 90/145/59 39/94/58 24/52/144
f 8/8/111 91/146/9 54/109/8
f 66/121/142 38/93/6 92/147/5
f 38/93/6 93/148/106 83/138/155
f 83/138/155 93/148/106 67/122/57
f 73/128/104 93/148/106 38/93/6
f 94/149/114 34/89/98 5/5/154
f 95/150/116 94/149/114 5/5/154
f 96/151/127 57/112/120 52/107/126
f 52/107/126 57/112/120 33/88/118
f 61/116/135 97/152/121 34/89/98
f 34/89/98 97/152/121 48/103/117
f 98/153/137 59/114/11 62/117/130
f 100/155/131 99/154/129 56/111/158
f 60/115/12 44/99/110 101/156/13
f 101/156/13 44/99/110 55/110/109
f 49/104/159 103/158/133 102/157/132
f 58/113/128 104/159/125 57/112/120
f 57/112/120 104/159/125 42/97/119
