# This file uses centimeters as units for non-parametric coordinates.

v -0.404925 0.223802 0.000000
v -0.355071 0.326104 0.000000
v -0.313461 0.341304 0.000000
v -0.121958 0.347258 0.000000
v 0.236250 0.350184 0.000000
v 0.303850 0.305810 0.000000
v 0.348493 0.217914 0.000000
v 0.354929 0.046435 0.000000
v 0.341649 -0.132907 0.000000
v 0.228219 -0.221769 0.000000
v 0.028829 -0.228559 0.000000
v -0.127294 -0.233556 0.000000
v -0.339958 -0.206399 0.000000
v -0.410104 -0.101768 0.000000
v -0.413024 0.050777 0.000000
v -0.261645 -0.216400 0.000000
v -0.124697 0.049147 0.000000
v 0.231995 0.047130 0.000000
v -0.286402 0.050061 0.000000
v -0.347246 0.050405 0.000000
v 0.326183 0.046598 0.000000
v 0.315580 0.169664 0.000000
v -0.349877 0.143109 0.000000
vt 0.095075 0.723803
vt 0.144929 0.826104
vt 0.186539 0.841304
vt 0.378043 0.847258
vt 0.736250 0.850185
vt 0.803853 0.805813
vt 0.848496 0.717916
vt 0.854928 0.546434
vt 0.841649 0.367093
vt 0.728219 0.278231
vt 0.528829 0.271441
vt 0.372706 0.266444
vt 0.160042 0.293601
vt 0.089896 0.398232
vt 0.086976 0.550777
vt 0.238355 0.283600
vt 0.731995 0.547130
vt 0.375303 0.549147
vt 0.213598 0.550061
vt 0.152754 0.550405
vt 0.826182 0.546597
vt 0.815581 0.669666
vt 0.150123 0.643109
vn 0.000000 0.000000 1.000000
vn 0.000000 0.000000 1.000000
vn 0.000000 0.000000 1.000000
vn 0.000000 0.000000 1.000000
vn 0.000000 0.000000 1.000000
vn 0.000000 0.000000 1.000000
vn 0.000000 0.000000 1.000000
vn 0.000000 0.000000 1.000000
vn 0.000000 0.000000 1.000000
vn 0.000000 0.000000 1.000000
vn 0.000000 0.000000 1.000000
vn 0.000000 0.000000 1.000000
vn 0.000000 0.000000 1.000000
vn 0.000000 0.000000 1.000000
vn 0.000000 0.000000 1.000000
vn 0.000000 0.000000 1.000000
vn 0.000000 0.000000 1.000000
vn 0.000000 0.000000 1.000000
vn 0.000000 0.000000 1.000000
vn 0.000000 0.000000 1.000000
vn 0.000000 0.000000 1.000000
vn 0.000000 0.000000 1.000000
vn 0.000000 0.000000 1.000000
vn 0.000000 0.000000 1.000000
vn 0.000000 0.000000 1.000000
vn 0.000000 0.000000 1.000000
vn 0.000000 0.000000 1.000000
vn 0.000000 0.000000 1.000000
vn 0.000000 0.000000 1.000000
vn 0.000000 0.000000 1.000000
vn 0.000000 0.000000 1.000000
vn 0.000000 0.000000 1.000000
vn 0.000000 0.000000 1.000000
vn 0.000000 0.000000 1.000000
vn 0.000000 0.000000 1.000000
vn 0.000000 0.000000 1.000000
vn 0.000000 0.000000 1.000000
vn 0.000000 0.000000 1.000000
vn 0.000000 0.000000 1.000000
vn 0.000000 0.000000 1.000000
vn 0.000000 0.000000 1.000000
vn 0.000000 0.000000 1.000000
vn 0.000000 0.000000 1.000000
vn 0.000000 0.000000 1.000000
vn 0.000000 0.000000 1.000000
vn 0.000000 0.000000 1.000000
vn 0.000000 0.000000 1.000000
vn 0.000000 0.000000 1.000000
vn 0.000000 0.000000 1.000000
vn 0.000000 0.000000 1.000000
vn 0.000000 0.000000 1.000000
vn 0.000000 0.000000 1.000000
vn 0.000000 0.000000 1.000000
vn 0.000000 0.000000 1.000000
vn 0.000000 0.000000 1.000000
vn 0.000000 0.000000 1.000000
vn 0.000000 0.000000 1.000000
vn 0.000000 0.000000 1.000000
vn 0.000000 0.000000 1.000000
vn 0.000000 0.000000 1.000000
f 21/21/1 9/9/2 8/8/3
f 6/6/4 5/5/5 22/22/6
f 22/22/6 5/5/5 18/17/7
f 7/7/8 22/22/9 8/8/10
f 8/8/10 22/22/9 21/21/11
f 21/21/12 18/17/13 9/9/14
f 9/9/14 18/17/13 10/10/15
f 22/22/16 18/17/17 21/21/18
f 22/22/19 7/7/20 6/6/21
f 19/19/22 3/3/23 23/23/24
f 23/23/24 3/3/23 2/2/25
f 16/16/26 19/19/27 13/13/28
f 13/13/28 19/19/27 20/20/29
f 1/1/30 23/23/31 2/2/32
f 13/13/33 20/20/34 14/14/35
f 14/14/35 20/20/34 15/15/36
f 12/12/37 17/18/38 16/16/39
f 16/16/39 17/18/38 19/19/40
f 3/3/41 19/19/42 4/4/43
f 4/4/43 19/19/42 17/18/44
f 12/12/45 11/11/46 17/18/47
f 17/18/47 11/11/46 18/17/48
f 11/11/46 10/10/49 18/17/48
f 17/18/50 18/17/51 4/4/52
f 4/4/52 18/17/51 5/5/53
f 1/1/54 15/15/55 23/23/56
f 23/23/56 15/15/55 20/20/57
f 19/19/58 23/23/59 20/20/60
