# This file uses centimeters as units for non-parametric coordinates.

v -0.331500 0.381777 0.000000
v 0.061406 0.384126 0.000000
v 0.238668 0.390398 0.000000
v 0.323998 0.347627 0.000000
v 0.386826 0.235197 0.000000
v 0.417958 0.053364 0.000000
v 0.401411 -0.205383 0.000000
v 0.289384 -0.337332 0.000000
v 0.067145 -0.334863 0.000000
v -0.286456 -0.313475 0.000000
v -0.382921 -0.280126 0.000000
v -0.448022 -0.134917 0.000000
v -0.457697 0.041114 0.000000
v -0.438450 0.245083 0.000000
v -0.371940 0.367292 0.000000
v -0.404925 0.223802 0.000000
v -0.355071 0.326104 0.000000
v -0.313461 0.341304 0.000000
v -0.121958 0.347258 0.000000
v 0.236250 0.350184 0.000000
v 0.303850 0.305810 0.000000
v 0.348493 0.217914 0.000000
v 0.354929 0.046435 0.000000
v 0.341649 -0.132907 0.000000
v 0.228219 -0.221769 0.000000
v 0.028829 -0.228559 0.000000
v -0.127294 -0.233556 0.000000
v -0.339958 -0.206399 0.000000
v -0.410104 -0.101768 0.000000
v -0.413024 0.050777 0.000000
v -0.261645 -0.216400 0.000000
v -0.125749 -0.323195 0.000000
v -0.124424 0.387634 0.000000
vt 0.168500 0.881777
vt 0.561406 0.884126
vt 0.738668 0.890398
vt 0.823998 0.847627
vt 0.886826 0.735197
vt 0.917958 0.553364
vt 0.901411 0.294617
vt 0.789384 0.162668
vt 0.567145 0.165137
vt 0.213544 0.186525
vt 0.117079 0.219874
vt 0.051978 0.365083
vt 0.042303 0.541114
vt 0.061550 0.745083
vt 0.128060 0.867292
vt 0.095075 0.723803
vt 0.144929 0.826104
vt 0.186539 0.841304
vt 0.378043 0.847258
vt 0.736250 0.850185
vt 0.803853 0.805813
vt 0.848496 0.717916
vt 0.854928 0.546434
vt 0.841649 0.367093
vt 0.728219 0.278231
vt 0.528829 0.271441
vt 0.372706 0.266444
vt 0.160042 0.293601
vt 0.089896 0.398232
vt 0.086976 0.550777
vt 0.238355 0.283600
vt 0.374251 0.176805
vt 0.375576 0.887634
vn 0.000000 0.000000 1.000000
vn 0.000000 0.000000 1.000000
vn 0.000000 0.000000 1.000000
vn 0.000000 0.000000 1.000000
vn 0.000000 0.000000 1.000000
vn 0.000000 0.000000 1.000000
vn 0.000000 0.000000 1.000000
vn 0.000000 0.000000 1.000000
vn 0.000000 0.000000 1.000000
vn 0.000000 0.000000 1.000000
vn 0.000000 0.000000 1.000000
vn 0.000000 0.000000 1.000000
vn 0.000000 0.000000 1.000000
vn 0.000000 0.000000 1.000000
vn 0.000000 0.000000 1.000000
vn 0.000000 0.000000 1.000000
vn 0.000000 0.000000 1.000000
vn 0.000000 0.000000 1.000000
vn 0.000000 0.000000 1.000000
vn 0.000000 0.000000 1.000000
vn 0.000000 0.000000 1.000000
vn 0.000000 0.000000 1.000000
vn 0.000000 0.000000 1.000000
vn 0.000000 0.000000 1.000000
vn 0.000000 0.000000 1.000000
vn 0.000000 0.000000 1.000000
vn 0.000000 0.000000 1.000000
vn 0.000000 0.000000 1.000000
vn 0.000000 0.000000 1.000000
vn 0.000000 0.000000 1.000000
vn 0.000000 0.000000 1.000000
vn 0.000000 0.000000 1.000000
vn 0.000000 0.000000 1.000000
vn 0.000000 0.000000 1.000000
vn 0.000000 0.000000 1.000000
vn 0.000000 0.000000 1.000000
vn 0.000000 0.000000 1.000000
vn 0.000000 0.000000 1.000000
vn 0.000000 0.000000 1.000000
vn 0.000000 0.000000 1.000000
vn 0.000000 0.000000 1.000000
vn 0.000000 0.000000 1.000000
vn 0.000000 0.000000 1.000000
vn 0.000000 0.000000 1.000000
vn 0.000000 0.000000 1.000000
vn 0.000000 0.000000 1.000000
vn 0.000000 0.000000 1.000000
vn 0.000000 0.000000 1.000000
vn 0.000000 0.000000 1.000000
vn 0.000000 0.000000 1.000000
vn 0.000000 0.000000 1.000000
vn 0.000000 0.000000 1.000000
vn 0.000000 0.000000 1.000000
vn 0.000000 0.000000 1.000000
vn 0.000000 0.000000 1.000000
vn 0.000000 0.000000 1.000000
vn 0.000000 0.000000 1.000000
vn 0.000000 0.000000 1.000000
vn 0.000000 0.000000 1.000000
vn 0.000000 0.000000 1.000000
vn 0.000000 0.000000 1.000000
vn 0.000000 0.000000 1.000000
vn 0.000000 0.000000 1.000000
f 29/29/1 12/12/2 28/28/3
f 28/28/3 12/12/2 11/11/4
f 11/11/5 10/10/6 28/28/7
f 28/28/7 10/10/6 31/31/8
f 27/27/9 31/31/10 32/32/11
f 32/32/11 31/31/10 10/10/12
f 8/8/13 25/25/14 9/9/15
f 25/25/14 26/26/16 9/9/15
f 9/9/15 26/26/16 32/32/17
f 26/26/16 27/27/18 32/32/17
f 8/8/19 7/7/20 25/25/21
f 25/25/21 7/7/20 24/24/22
f 7/7/23 6/6/24 24/24/25
f 24/24/25 6/6/24 23/23/26
f 23/23/27 6/6/28 22/22/29
f 22/22/29 6/6/28 5/5/30
f 22/22/31 5/5/32 21/21/33
f 21/21/33 5/5/32 4/4/34
f 21/21/35 4/4/36 20/20/37
f 20/20/37 4/4/36 3/3/38
f 30/30/39 13/13/40 29/29/41
f 29/29/41 13/13/40 12/12/42
f 14/14/43 13/13/44 16/16/45
f 16/16/45 13/13/44 30/30/46
f 16/16/47 17/17/48 14/14/49
f 14/14/49 17/17/48 15/15/50
f 15/15/51 17/17/52 1/1/53
f 1/1/53 17/17/52 18/18/54
f 19/19/55 33/33/56 18/18/57
f 18/18/57 33/33/56 1/1/58
f 3/3/59 2/2/60 20/20/61
f 20/20/61 2/2/60 19/19/62
f 2/2/60 33/33/63 19/19/62
