# This file uses centimeters as units for non-parametric coordinates.

v 0.001790 0.272121 0.166816
v 0.001854 0.124603 0.202299
v -0.010722 0.271829 0.169133
v -0.010658 0.124310 0.204616
v -0.012141 0.398493 0.459589
v -0.009617 0.241842 0.482688
v 0.000371 0.398785 0.457272
v 0.002895 0.242135 0.480371
v -0.011643 0.385751 0.332553
v -0.008497 0.162970 0.348245
v 0.000841 0.386049 0.330088
v 0.003987 0.163268 0.345780
v 0.002318 0.128281 0.052742
v -0.010187 0.127551 0.055041
v -0.010462 0.369467 0.550947
v 0.002105 0.370176 0.548982
v -0.009828 0.266592 0.343162
v 0.002682 0.267321 0.340894
v -0.011274 0.199210 0.192477
v 0.001235 0.198702 0.187208
v 0.002613 0.331744 0.467975
v -0.009943 0.331818 0.471400
v -0.000479 0.092371 0.185334
v -0.000744 0.107473 0.065306
v -0.008404 0.106028 0.066115
v -0.008130 0.091058 0.186384
v -0.009085 0.054975 0.156246
v -0.003572 -0.004546 0.249036
v -0.001901 0.039738 0.308944
v -0.005702 -0.024798 0.363543
v 0.003569 -0.083381 0.382363
v 0.011275 -0.082123 0.381666
v 0.001949 -0.023485 0.362492
v 0.002599 -0.050939 0.330604
v 0.004093 -0.003118 0.248237
v 0.005730 0.041132 0.307842
v 0.000477 0.025556 0.119658
v 0.000969 -0.039434 0.194396
v -0.006662 -0.040829 0.195498
v -0.007174 0.024243 0.120709
v -0.005042 -0.052731 0.332269
v -0.001530 0.057622 0.153656
v 0.004860 -0.086554 0.287288
v -0.002791 -0.087867 0.288339
v -0.004574 0.271972 0.167994
v -0.005509 0.385897 0.331342
v -0.005993 0.398637 0.458451
v -0.004287 0.369815 0.549981
v -0.003470 0.241986 0.481550
v -0.002363 0.163117 0.347034
v -0.004510 0.124454 0.203478
v -0.004043 0.127910 0.053912
v -0.004518 0.091678 0.185888
v 0.001701 0.040396 0.308424
v -0.002091 -0.024178 0.363047
v 0.007206 -0.082787 0.382034
v 0.000820 -0.087248 0.287843
v -0.003060 -0.040171 0.194978
v -0.003563 0.024863 0.120213
v -0.004788 0.106710 0.065733
vt 0.685928 0.866854
vt 0.958779 0.663598
vt 0.952058 0.657118
vt 0.681540 0.859230
vt 0.695473 0.679327
vt 0.419392 0.680274
vt 0.352060 0.949891
vt 0.147725 0.854378
vt 0.027483 0.702704
vt 0.024412 0.709389
vt 0.146749 0.862010
vt 0.178053 0.704257
vt 0.420769 0.687015
vt 0.353379 0.958626
vt 0.732705 0.511082
vt 0.486280 0.455873
vt 0.483663 0.452194
vt 0.727892 0.507026
vt 0.176765 0.697929
vt 0.705057 0.686239
vt 0.223416 0.496086
vt 0.223623 0.492144
vt 0.695101 0.365310
vt 0.946548 0.225864
vt 0.940413 0.226090
vt 0.689889 0.365540
vt 0.707008 0.229708
vt 0.460585 0.213595
vt 0.394260 0.414284
vt 0.216056 0.331586
vt 0.113250 0.207655
vt 0.114854 0.207010
vt 0.218920 0.331190
vt 0.250129 0.213977
vt 0.464300 0.213277
vt 0.398213 0.414432
vt 0.746720 0.097308
vt 0.527581 0.042736
vt 0.523025 0.044402
vt 0.741269 0.098849
vt 0.245394 0.214632
vt 0.716792 0.229964
vt 0.294258 0.058731
vt 0.291030 0.060457
vt 0.683696 0.862976
vt 0.352708 0.954183
vt 0.147246 0.858128
vt 0.025974 0.705989
vt 0.223522 0.494081
vt 0.484949 0.454001
vt 0.730257 0.509019
vt 0.955360 0.660302
vt 0.692349 0.365431
vt 0.396126 0.414354
vt 0.217408 0.331399
vt 0.114007 0.207351
vt 0.292553 0.059642
vt 0.525176 0.043616
vt 0.743842 0.098122
vt 0.943309 0.225983
vn 0.991107 -0.019693 -0.131600
vn -0.162961 -0.231964 -0.958977
vn 0.995498 0.068186 -0.065832
vn -0.141983 0.724446 -0.674551
vn -0.999996 -0.000824 0.002902
vn -0.999916 -0.011667 0.005695
vn -0.995868 0.067452 -0.060811
vn -0.998657 0.047436 -0.020845
vn 0.145359 0.145887 0.978564
vn 0.984858 0.048356 0.166485
vn -0.010127 0.997261 0.073268
vn 0.990047 0.140707 0.002947
vn 0.999899 0.014126 -0.001798
vn 0.995794 0.083963 -0.036661
vn 0.999916 0.011644 -0.005770
vn 0.996303 -0.085864 0.002617
vn 0.998380 -0.054180 0.017377
vn 0.045567 -0.991782 0.119547
vn 0.098260 -0.916727 0.387243
vn -0.100207 0.912073 -0.397594
vn -0.997609 0.068087 0.011855
vn -0.999898 -0.014168 0.001589
vn -0.986434 0.000118 0.164161
vn 0.999996 0.000798 -0.002656
vn 0.995725 -0.062547 0.067974
vn 0.147053 -0.691942 0.706819
vn -0.996426 -0.075695 0.037494
vn -0.995336 -0.094605 0.018854
vn -0.995515 -0.068548 0.065203
vn -0.988668 -0.045223 -0.143147
vn 0.990513 0.110176 -0.082131
vn -0.203180 0.682952 -0.701637
vn 0.994826 0.101037 -0.010630
vn -0.127723 0.955739 0.265045
vn -0.999881 -0.010033 0.011725
vn -0.999414 0.000117 0.034229
vn -0.995319 0.077289 0.058013
vn -0.996573 0.061304 0.055540
vn 0.180511 -0.750398 0.635860
vn 0.999447 0.007497 0.032410
vn 0.029323 0.513200 0.857768
vn 0.991482 0.088555 0.095505
vn 0.998662 0.049285 -0.015674
vn 0.998180 0.056461 0.021165
vn 0.999412 -0.000075 -0.034304
vn 0.998602 -0.026401 -0.045798
vn 0.994468 -0.059918 -0.086277
vn 0.010754 -0.661497 -0.749871
vn 0.071165 -0.828679 -0.555181
vn -0.073036 0.833232 0.548079
vn -0.996607 0.018779 0.080136
vn -0.998635 -0.049715 0.016006
vn -0.948827 -0.258919 0.180798
vn 0.999892 0.009550 -0.011212
vn 0.997391 -0.063168 -0.034938
vn 0.134516 -0.964791 -0.226017
vn -0.998441 -0.055034 0.009294
vn -0.992202 -0.089837 -0.086404
vn -0.993182 -0.116304 -0.007950
vn -0.989692 0.085924 -0.114576
f 13/2/1 52/52/2 1/1/3
f 1/1/3 52/52/2 45/45/4
f 19/5/5 17/6/6 3/4/7
f 3/4/7 17/6/6 9/7/8
f 48/48/9 16/10/10 47/47/11
f 47/47/11 16/10/10 7/11/12
f 7/11/12 21/12/13 11/14/14
f 11/14/14 21/12/13 18/13/15
f 2/15/16 12/16/17 51/51/18
f 51/51/18 12/16/17 50/50/19
f 11/14/14 46/46/20 7/11/12
f 7/11/12 46/46/20 47/47/11
f 5/8/21 22/19/22 15/9/23
f 1/1/3 20/20/24 13/2/1
f 12/16/17 8/21/25 50/50/19
f 50/50/19 8/21/25 49/49/26
f 46/46/20 11/14/14 45/45/4
f 45/45/4 11/14/14 1/1/3
f 13/2/1 2/15/16 52/52/2
f 52/52/2 2/15/16 51/51/18
f 17/6/6 19/5/5 10/17/27
f 10/17/27 19/5/5 4/18/28
f 48/48/9 49/49/26 16/10/10
f 16/10/10 49/49/26 8/21/25
f 21/12/13 8/21/25 18/13/15
f 18/13/15 8/21/25 12/16/17
f 15/9/23 22/19/22 6/22/29
f 13/2/1 20/20/24 2/15/16
f 3/4/7 14/3/30 19/5/5
f 4/18/28 19/5/5 14/3/30
f 11/14/14 18/13/15 1/1/3
f 1/1/3 18/13/15 20/20/24
f 2/15/16 20/20/24 12/16/17
f 12/16/17 20/20/24 18/13/15
f 7/11/12 16/10/10 21/12/13
f 8/21/25 21/12/13 16/10/10
f 17/6/6 22/19/22 9/7/8
f 9/7/8 22/19/22 5/8/21
f 22/19/22 17/6/6 6/22/29
f 6/22/29 17/6/6 10/17/27
f 24/24/31 60/60/32 23/23/33
f 23/23/33 60/60/32 53/53/34
f 27/27/35 28/28/36 26/26/37
f 26/26/37 28/28/36 29/29/38
f 56/56/39 32/32/40 55/55/41
f 55/55/41 32/32/40 33/33/42
f 33/33/42 34/34/43 36/36/44
f 36/36/44 34/34/43 35/35/45
f 37/37/46 38/38/47 59/59/48
f 59/59/48 38/38/47 58/58/49
f 36/36/44 54/54/50 33/33/42
f 33/33/42 54/54/50 55/55/41
f 30/30/51 41/41/52 31/31/53
f 23/23/33 42/42/54 24/24/31
f 38/38/47 43/43/55 58/58/49
f 58/58/49 43/43/55 57/57/56
f 54/54/50 36/36/44 53/53/34
f 53/53/34 36/36/44 23/23/33
f 24/24/31 37/37/46 60/60/32
f 60/60/32 37/37/46 59/59/48
f 28/28/36 27/27/35 39/39/57
f 39/39/57 27/27/35 40/40/58
f 56/56/39 57/57/56 32/32/40
f 32/32/40 57/57/56 43/43/55
f 34/34/43 43/43/55 35/35/45
f 35/35/45 43/43/55 38/38/47
f 31/31/53 41/41/52 44/44/59
f 24/24/31 42/42/54 37/37/46
f 26/26/37 25/25/60 27/27/35
f 40/40/58 27/27/35 25/25/60
f 36/36/44 35/35/45 23/23/33
f 23/23/33 35/35/45 42/42/54
f 37/37/46 42/42/54 38/38/47
f 38/38/47 42/42/54 35/35/45
f 33/33/42 32/32/40 34/34/43
f 43/43/55 34/34/43 32/32/40
f 28/28/36 41/41/52 29/29/38
f 29/29/38 41/41/52 30/30/51
f 41/41/52 28/28/36 44/44/59
f 44/44/59 28/28/36 39/39/57
f 9/7/8 46/46/20 3/4/7
f 3/4/7 46/46/20 45/45/4
f 46/46/20 9/7/8 47/47/11
f 47/47/11 9/7/8 5/8/21
f 15/9/23 48/48/9 5/8/21
f 5/8/21 48/48/9 47/47/11
f 49/49/26 48/48/9 6/22/29
f 6/22/29 48/48/9 15/9/23
f 50/50/19 49/49/26 10/17/27
f 10/17/27 49/49/26 6/22/29
f 51/51/18 50/50/19 4/18/28
f 4/18/28 50/50/19 10/17/27
f 52/52/2 51/51/18 14/3/30
f 14/3/30 51/51/18 4/18/28
f 52/52/2 14/3/30 45/45/4
f 45/45/4 14/3/30 3/4/7
f 29/29/38 54/54/50 26/26/37
f 26/26/37 54/54/50 53/53/34
f 54/54/50 29/29/38 55/55/41
f 55/55/41 29/29/38 30/30/51
f 31/31/53 56/56/39 30/30/51
f 30/30/51 56/56/39 55/55/41
f 57/57/56 56/56/39 44/44/59
f 44/44/59 56/56/39 31/31/53
f 58/58/49 57/57/56 39/39/57
f 39/39/57 57/57/56 44/44/59
f 59/59/48 58/58/49 40/40/58
f 40/40/58 58/58/49 39/39/57
f 60/60/32 59/59/48 25/25/60
f 25/25/60 59/59/48 40/40/58
f 60/60/32 25/25/60 53/53/34
f 53/53/34 25/25/60 26/26/37
