# This file uses centimeters as units for non-parametric coordinates.

v -0.071850 0.111315 0.046193
v -0.003728 0.112312 0.046193
v 0.078456 0.070741 0.046550
v -0.080479 0.067387 -0.059344
v -0.016684 0.077265 -0.061414
v 0.042961 0.067696 -0.064588
v 0.058450 0.020818 -0.073917
v -0.081915 -0.035308 -0.062451
v -0.014644 -0.050546 -0.060789
v 0.042011 -0.034967 -0.062347
v -0.119448 -0.044290 0.041256
v -0.041164 -0.083020 0.040535
v 0.050360 -0.076816 0.046168
v 0.116909 0.004905 0.046360
v -0.013490 0.026309 0.062497
v -0.062312 0.054191 -0.113554
v -0.016962 0.061019 -0.117850
v 0.031708 0.056271 -0.110710
v -0.029615 -0.048896 0.080563
v -0.098007 -0.026101 0.080500
v -0.099897 0.032098 0.081011
v -0.049259 0.079061 0.080911
v -0.005500 0.082894 0.080863
v 0.057680 0.059252 0.080992
v 0.067545 0.011754 0.081037
v 0.028892 -0.041220 0.080888
v -0.069161 0.021985 -0.117988
v -0.093528 -0.043992 -0.015648
v -0.025999 -0.058818 -0.015079
v 0.049658 -0.040610 -0.017651
v 0.071978 0.022281 -0.022446
v 0.046256 0.076709 -0.012464
v -0.016967 0.088502 -0.017970
v -0.084139 0.077708 -0.010138
v -0.067361 -0.031737 -0.111834
v -0.014006 -0.040741 -0.117281
v 0.034299 -0.026451 -0.114713
v 0.045592 0.022708 -0.115309
v -0.120201 0.029860 0.044290
v -0.093336 0.027034 -0.013434
v -0.087252 0.025337 -0.061615
v -0.011172 0.018198 -0.141227
vt 0.203432 0.838211
vt 0.205268 0.872404
vt 0.169025 0.867761
vt 0.172887 0.824120
vt 0.211787 0.920717
vt 0.174782 0.907958
vt 0.223711 0.962160
vt 0.167148 0.945941
vt 0.850839 0.816670
vt 0.813030 0.823312
vt 0.815225 0.791746
vt 0.853537 0.784797
vt 0.770053 0.830805
vt 0.774828 0.792461
vt 0.724869 0.787631
vt 0.737664 0.845907
vt 0.165817 0.794022
vt 0.883150 0.766922
vt 0.211070 0.788047
vt 0.228918 0.845476
vt 0.228898 0.870730
vt 0.251693 0.929137
vt 0.890785 0.815127
vt 0.809832 0.765465
vt 0.780152 0.765046
vt 0.232641 0.908616
vt 0.144672 0.828169
vt 0.114736 0.842468
vt 0.098695 0.832092
vt 0.803622 0.720937
vt 0.132556 0.805627
vt 0.748353 0.750692
vt 0.846045 0.761767
vt 0.861295 0.888086
vt 0.843832 0.869029
vt 0.145655 0.869060
vt 0.850435 0.842675
vt 0.113307 0.870016
vt 0.144740 0.907029
vt 0.118035 0.899571
vt 0.882694 0.850257
vt 0.793006 0.881446
vt 0.778665 0.901653
vt 0.756975 0.878827
vt 0.779773 0.855307
vt 0.817276 0.875446
vt 0.811052 0.846629
vt 0.863269 0.740509
vt 0.105370 0.915678
vt 0.130873 0.933848
vt 0.237289 0.803570
vt 0.264311 0.866005
vt 0.085798 0.875295
vt 0.822608 0.910518
vn 0.201259 0.944317 0.260308
vn -0.000694 0.952871 -0.303375
vn -0.492292 0.848780 0.192927
vn -0.715582 0.626108 -0.309728
vn 0.767657 0.617787 0.170417
vn 0.549714 0.791128 -0.268200
vn -0.017739 -0.947110 -0.320420
vn -0.176263 -0.948813 0.262079
vn -0.660597 -0.653293 -0.369891
vn -0.905694 -0.423933 -0.000414
vn 0.569959 -0.743790 -0.349174
vn 0.454066 -0.861131 0.228643
vn 0.986695 -0.150575 0.061322
vn 0.933425 0.114398 -0.340045
vn -0.960298 0.070458 -0.269934
vn -0.975008 0.207543 0.079281
vn -0.072302 0.343697 0.936293
vn 0.036912 0.268383 0.962605
vn -0.030315 -0.299181 0.953715
vn 0.094669 -0.344085 0.934154
vn -0.009620 -0.033437 0.999395
vn 0.385998 -0.038841 0.921682
vn 0.284092 0.333461 0.898941
vn -0.429646 -0.270577 0.861506
vn -0.616460 0.146395 -0.773658
vn -0.603339 -0.546249 -0.581029
vn -0.965704 0.057192 -0.253269
vn -0.735504 -0.627362 -0.255834
vn -0.679735 0.682087 -0.269660
vn -0.569477 0.613422 -0.547184
vn -0.011431 0.963136 -0.268770
vn -0.066435 0.675310 -0.734536
vn 0.595507 0.759849 -0.260771
vn 0.503247 0.665269 -0.551506
vn 0.741310 0.100247 -0.663634
vn 0.962040 0.044265 -0.269294
vn 0.604157 -0.588778 -0.536968
vn 0.734083 -0.642936 -0.218529
vn 0.032683 -0.775404 -0.630619
vn 0.062010 -0.983367 -0.170715
vn -0.425053 0.175611 0.887970
vn 0.046302 0.035433 -0.998299
f 2/2/1 33/3/2 1/1/3
f 1/1/3 33/3/2 34/4/4
f 3/5/5 32/6/6 2/2/1
f 2/2/1 32/6/6 33/3/2
f 29/10/7 12/11/8 28/9/9
f 28/9/9 12/11/8 11/12/10
f 30/13/11 13/14/12 29/10/7
f 29/10/7 13/14/12 12/11/8
f 13/14/12 30/13/11 14/15/13
f 14/15/13 30/13/11 31/16/14
f 14/7/13 31/8/14 3/5/5
f 3/5/5 31/8/14 32/6/6
f 28/9/9 11/12/10 40/23/15
f 40/23/15 11/12/10 39/18/16
f 1/1/3 34/4/4 39/19/16
f 39/19/16 34/4/4 40/17/15
f 1/1/3 22/20/17 2/2/1
f 2/2/1 22/20/17 23/21/18
f 19/24/19 26/25/20 15/30/21
f 14/7/13 3/5/5 25/22/22
f 25/22/22 3/5/5 24/26/23
f 3/5/5 2/2/1 24/26/23
f 24/26/23 2/2/1 23/21/18
f 14/15/13 25/32/22 13/14/12
f 13/14/12 25/32/22 26/25/20
f 19/24/19 20/33/24 12/11/8
f 12/11/8 20/33/24 11/12/10
f 27/34/25 35/35/26 41/41/27
f 41/41/27 35/35/26 8/37/28
f 4/27/29 16/28/30 41/31/27
f 41/31/27 16/28/30 27/29/25
f 4/27/29 5/36/31 16/28/30
f 16/28/30 5/36/31 17/38/32
f 6/39/33 18/40/34 5/36/31
f 5/36/31 18/40/34 17/38/32
f 38/49/35 18/40/34 7/50/36
f 7/50/36 18/40/34 6/39/33
f 38/43/35 7/44/36 37/42/37
f 37/42/37 7/44/36 10/45/38
f 36/46/39 37/42/37 9/47/40
f 9/47/40 37/42/37 10/45/38
f 8/37/28 35/35/26 9/47/40
f 9/47/40 35/35/26 36/46/39
f 19/24/19 15/30/21 20/33/24
f 21/48/41 20/33/24 15/30/21
f 22/20/17 21/51/41 15/52/21
f 23/21/18 22/20/17 15/52/21
f 15/52/21 24/26/23 23/21/18
f 15/52/21 25/22/22 24/26/23
f 26/25/20 25/32/22 15/30/21
f 13/14/12 26/25/20 12/11/8
f 12/11/8 26/25/20 19/24/19
f 11/12/10 20/33/24 39/18/16
f 39/18/16 20/33/24 21/48/41
f 28/9/9 40/23/15 8/37/28
f 8/37/28 40/23/15 41/41/27
f 9/47/40 29/10/7 8/37/28
f 8/37/28 29/10/7 28/9/9
f 10/45/38 30/13/11 9/47/40
f 9/47/40 30/13/11 29/10/7
f 30/13/11 10/45/38 31/16/14
f 31/16/14 10/45/38 7/44/36
f 32/6/6 31/8/14 6/39/33
f 6/39/33 31/8/14 7/50/36
f 32/6/6 6/39/33 33/3/2
f 33/3/2 6/39/33 5/36/31
f 34/4/4 33/3/2 4/27/29
f 4/27/29 33/3/2 5/36/31
f 34/4/4 4/27/29 40/17/15
f 40/17/15 4/27/29 41/31/27
f 36/46/39 35/35/26 42/54/42
f 42/54/42 35/35/26 27/34/25
f 39/19/16 21/51/41 1/1/3
f 1/1/3 21/51/41 22/20/17
f 42/53/42 27/29/25 17/38/32
f 17/38/32 27/29/25 16/28/30
f 38/49/35 42/53/42 18/40/34
f 18/40/34 42/53/42 17/38/32
f 36/46/39 42/54/42 37/42/37
f 37/42/37 42/54/42 38/43/35
