# This file uses centimeters as units for non-parametric coordinates.

v -0.125822 0.055119 0.090121
v 0.007660 0.107871 0.089088
v 0.118062 0.054701 0.089365
v -0.083593 0.057279 0.021570
v -0.002543 0.082626 0.017538
v 0.085692 0.053837 0.011856
v -0.057101 0.038932 -0.092921
v 0.080367 0.036985 -0.101292
v -0.060292 -0.004496 -0.099151
v 0.019601 -0.009320 -0.153772
v 0.092552 -0.005965 -0.099469
v -0.042301 -0.061526 -0.092381
v -0.000598 -0.079506 -0.093226
v 0.091334 -0.066461 -0.092048
v -0.106493 -0.088039 0.020813
v -0.009903 -0.137106 0.021084
v 0.107327 -0.121056 0.011892
v -0.075820 -0.132306 0.090144
v 0.007660 -0.175230 0.089109
v 0.098024 -0.163159 0.090144
v -0.133883 -0.013935 0.091251
v 0.007660 0.005012 0.089438
v 0.143160 -0.002558 0.083220
v 0.125963 -0.024434 0.027270
v -0.113936 -0.007769 0.014454
v 0.001821 0.053861 -0.096574
v -0.047390 -0.079328 -0.032172
v -0.003341 -0.106238 -0.043287
v 0.101358 -0.079699 -0.036756
v -0.090894 -0.005727 -0.034810
v -0.075717 0.034402 -0.031353
v -0.000876 0.063943 -0.019160
v 0.082738 0.034989 -0.044509
v 0.107635 -0.014188 -0.036275
v -0.056747 0.103122 0.089586
v -0.046533 0.068869 0.019726
v -0.037438 0.049511 -0.025116
v 0.031916 0.049800 -0.027471
v 0.040220 0.067477 0.015917
v 0.067306 0.103533 0.089544
v -0.035868 -0.005840 -0.124180
v 0.065085 -0.007292 -0.130858
v 0.009656 -0.050211 -0.128062
v 0.009960 0.031457 -0.126456
v 0.060071 0.020146 -0.129981
v 0.058928 -0.039170 -0.131087
v -0.016050 -0.040909 -0.126184
v -0.027987 0.021788 -0.124149
vt 0.838711 0.639146
vt 0.921972 0.628921
vt 0.931561 0.619380
vt 0.939269 0.622066
vt 0.933872 0.632564
vt 0.945141 0.609397
vt 0.954187 0.623523
vt 0.915616 0.644915
vt 0.930667 0.645836
vt 0.926552 0.661633
vt 0.901706 0.663190
vt 0.960517 0.654178
vt 0.828912 0.652337
vt 0.827944 0.642420
vt 0.955280 0.667035
vt 0.820675 0.626288
vt 0.929202 0.680428
vt 0.912097 0.680854
vt 0.946045 0.682616
vt 0.828372 0.629858
vt 0.820258 0.644630
vt 0.926968 0.724215
vt 0.884637 0.689142
vt 0.772515 0.683532
vt 0.756128 0.646730
vt 0.780743 0.645680
vt 0.972364 0.702293
vt 0.974215 0.679241
vt 0.971172 0.629351
vt 0.977168 0.653021
vt 0.781581 0.656749
vt 0.779348 0.671828
vt 0.772196 0.611291
vt 0.959241 0.638597
vt 0.885194 0.656380
vt 0.776747 0.623387
vt 0.893705 0.636581
vt 0.911970 0.617055
vt 0.960798 0.618217
vt 0.923369 0.611884
vt 0.833508 0.656729
vt 0.832545 0.625585
vt 0.804414 0.646112
vt 0.796194 0.646766
vt 0.780221 0.635401
vt 0.788400 0.604455
vt 0.795587 0.624796
vt 0.805854 0.636864
vt 0.808542 0.623460
vt 0.806814 0.609562
vt 0.823736 0.616641
vt 0.795617 0.666659
vt 0.796372 0.683834
vt 0.810738 0.676475
vt 0.808047 0.666779
vt 0.820761 0.658588
vt 0.806390 0.656138
vt 0.796630 0.636332
vt 0.796465 0.657392
vt 0.827521 0.665706
vn -0.045452 0.001246 -0.998966
vn -0.441371 0.445393 -0.778984
vn -0.012215 0.709632 -0.704467
vn 0.470914 0.400804 -0.785873
vn 0.491547 0.792758 -0.360439
vn -0.051291 0.941059 -0.334332
vn -0.655367 -0.575497 -0.489180
vn -0.459089 -0.467938 -0.755163
vn -0.173157 -0.809294 -0.561302
vn -0.083550 -0.640097 -0.763737
vn 0.416359 -0.444152 -0.793331
vn -0.071661 -0.878891 -0.471609
vn -0.222040 -0.862497 -0.454750
vn -0.570138 -0.686693 -0.450994
vn -0.771961 -0.489081 -0.406050
vn 0.793711 -0.468371 -0.388139
vn 0.663908 -0.622743 -0.414027
vn -0.624399 -0.752497 -0.209460
vn -0.162525 -0.878045 -0.450135
vn 0.461115 -0.793353 -0.397445
vn 0.000124 -0.001829 0.999998
vn 0.012019 -0.004349 0.999918
vn 0.012325 -0.002356 0.999921
vn 0.011989 0.006107 0.999910
vn 0.018144 0.013944 0.999738
vn 0.044169 -0.029683 0.998583
vn 0.008412 0.008775 0.999926
vn 0.006766 0.002930 0.999973
vn 0.000046 0.003407 0.999994
vn 0.021165 -0.045548 0.998738
vn -0.002910 0.000689 0.999996
vn 0.970684 -0.005771 -0.240289
vn 0.943549 0.140397 -0.300008
vn 0.791761 0.495347 -0.357415
vn 0.608848 0.712218 -0.349356
vn 0.879507 0.114174 -0.461987
vn 0.959779 0.178171 -0.216980
vn 0.646834 -0.572378 -0.503973
vn 0.719661 0.677526 -0.151810
vn -0.979140 -0.152735 -0.134004
vn -0.914115 0.186596 -0.359967
vn -0.810349 0.461427 -0.361138
vn -0.530897 0.736187 -0.419735
vn -0.880620 -0.108532 -0.461227
vn -0.813900 -0.021162 -0.580620
vn -0.758406 0.558956 -0.335244
vn -0.589311 0.693279 -0.414821
vn -0.284029 0.850739 -0.442235
vn -0.302731 0.868219 -0.393128
vn 0.228950 0.875631 -0.425268
vn 0.327242 0.841854 -0.429178
vn -0.303391 0.917230 -0.258155
vn 0.260058 0.941936 -0.212427
vn -0.011946 0.909392 -0.415768
vn 0.100072 0.917787 -0.384257
vn 0.004997 0.938683 -0.344746
vn 0.611689 0.011550 -0.791014
vn -0.599728 -0.060536 -0.797911
f 10/1/1 48/13/2 44/14/3
f 45/20/4 44/14/3 8/16/5
f 8/16/5 44/14/3 26/21/6
f 12/2/7 47/3/8 13/5/9
f 13/5/9 47/3/8 43/4/10
f 10/6/1 46/7/11 43/4/10
f 28/9/12 16/10/13 27/8/14
f 27/8/14 16/10/13 15/11/15
f 29/12/16 17/15/17 28/9/12
f 28/9/12 17/15/17 16/10/13
f 15/11/15 16/10/13 18/18/18
f 18/18/18 16/10/13 19/17/19
f 17/15/17 20/19/20 16/10/13
f 16/10/13 20/19/20 19/17/19
f 19/17/21 22/22/22 18/18/23
f 18/18/23 22/22/22 21/23/24
f 19/17/21 20/19/25 22/22/22
f 22/22/22 20/19/25 23/27/26
f 21/24/24 22/25/22 1/32/27
f 1/32/27 22/25/22 35/31/28
f 22/25/22 2/26/29 35/31/28
f 23/33/26 3/36/30 22/25/22
f 3/36/30 40/45/31 22/25/22
f 22/25/22 40/45/31 2/26/29
f 20/19/20 17/15/17 23/27/32
f 23/27/32 17/15/17 24/28/33
f 23/33/32 24/46/33 3/36/34
f 3/36/34 24/46/33 6/47/35
f 11/29/36 34/30/37 14/34/38
f 14/34/38 34/30/37 29/12/16
f 34/50/37 11/51/36 33/49/39
f 33/49/39 11/51/36 8/16/5
f 18/18/18 21/23/40 15/11/15
f 15/11/15 21/23/40 25/35/41
f 21/24/40 1/32/42 25/53/41
f 25/53/41 1/32/42 4/52/43
f 27/8/14 30/37/44 12/2/7
f 12/2/7 30/37/44 9/38/45
f 30/54/44 31/55/46 9/60/45
f 9/60/45 31/55/46 7/56/47
f 36/59/48 4/52/43 35/31/49
f 35/31/49 4/52/43 1/32/42
f 39/58/50 40/45/51 6/47/35
f 6/47/35 40/45/51 3/36/34
f 31/55/46 37/57/52 7/56/47
f 7/56/47 37/57/52 26/21/6
f 26/21/6 38/48/53 8/16/5
f 8/16/5 38/48/53 33/49/39
f 12/2/7 13/5/9 27/8/14
f 27/8/14 13/5/9 28/9/12
f 13/5/9 14/34/38 28/9/12
f 28/9/12 14/34/38 29/12/16
f 25/35/41 30/37/44 15/11/15
f 15/11/15 30/37/44 27/8/14
f 4/52/43 31/55/46 25/53/41
f 25/53/41 31/55/46 30/54/44
f 36/59/48 37/57/52 4/52/43
f 4/52/43 37/57/52 31/55/46
f 33/49/39 38/48/53 6/47/35
f 6/47/35 38/48/53 39/58/50
f 24/46/33 34/50/37 6/47/35
f 6/47/35 34/50/37 33/49/39
f 17/15/17 29/12/16 24/28/33
f 24/28/33 29/12/16 34/30/37
f 36/59/48 35/31/49 5/44/54
f 5/44/54 35/31/49 2/26/55
f 5/44/54 32/43/56 36/59/48
f 36/59/48 32/43/56 37/57/52
f 26/21/6 37/57/52 32/43/56
f 38/48/53 26/21/6 32/43/56
f 38/48/53 32/43/56 39/58/50
f 39/58/50 32/43/56 5/44/54
f 40/45/51 39/58/50 2/26/55
f 2/26/55 39/58/50 5/44/54
f 8/16/5 11/51/36 45/20/4
f 45/20/4 11/51/36 42/42/57
f 10/6/1 42/39/57 46/7/11
f 41/40/58 47/3/8 9/38/45
f 9/38/45 47/3/8 12/2/7
f 10/1/1 41/41/58 48/13/2
f 44/14/3 48/13/2 26/21/6
f 26/21/6 48/13/2 7/56/47
f 44/14/3 45/20/4 10/1/1
f 43/4/10 47/3/8 10/6/1
f 43/4/10 46/7/11 13/5/9
f 13/5/9 46/7/11 14/34/38
f 45/20/4 42/42/57 10/1/1
f 42/39/57 11/29/36 46/7/11
f 46/7/11 11/29/36 14/34/38
f 47/3/8 41/40/58 10/6/1
f 41/41/58 9/60/45 48/13/2
f 48/13/2 9/60/45 7/56/47
