# This file uses centimeters as units for non-parametric coordinates.

v -0.093829 -0.133563 -0.091503
v -0.155070 -0.161080 0.234241
v 0.000000 -0.129417 0.320150
v -0.071568 -0.062094 0.238614
v -0.094812 -0.112524 -0.214238
v -0.305634 0.082036 0.089257
v -0.137769 0.167623 0.240666
v -0.245394 0.144699 0.146548
v -0.116950 -0.019836 0.200443
v -0.166450 -0.150671 0.198947
v -0.190084 0.019803 0.079973
v -0.154644 0.079076 0.145176
v -0.115707 0.110227 0.262224
v -0.085239 -0.109651 0.247577
v -0.080225 0.022009 0.236499
v -0.120536 0.023989 0.188899
v -0.144030 -0.035663 0.139304
v -0.176343 -0.063844 0.100693
v -0.204065 -0.178752 0.150479
v -0.108715 -0.067988 0.204043
v -0.144796 -0.093734 0.162116
v -0.177682 -0.120132 0.119972
v -0.105351 -0.179252 0.006897
v -0.071462 -0.016258 0.237453
v -0.149711 -0.104040 0.046266
v -0.143091 -0.156461 0.057348
v -0.136489 -0.217578 0.083188
v -0.077092 -0.469407 0.157169
v -0.135557 -0.118367 0.224020
v -0.119447 -0.150620 0.275088
v -0.102891 -0.131048 -0.164764
v -0.079993 -0.479939 0.271365
v -0.075825 -0.307218 0.060668
v -0.068963 -0.277841 0.020397
v -0.047251 -0.273892 -0.021670
v -0.061650 -0.181545 -0.051443
v -0.125644 -0.127390 -0.025130
v -0.225443 -0.077592 -0.134335
v -0.182843 -0.087531 -0.061903
v -0.147674 0.137398 0.263852
v -0.280379 0.101078 0.152558
v -0.335273 0.038332 0.105864
v -0.245094 -0.113538 -0.134283
v -0.113979 -0.154429 -0.208620
v 0.000000 -0.234516 0.354481
v -0.160744 -0.342749 0.106022
v -0.137434 -0.257556 0.298314
v -0.065942 -0.365948 0.084048
v -0.226602 -0.323988 0.159548
v -0.191177 -0.272653 0.248873
v -0.194265 -0.063088 0.027003
v -0.315356 -0.066362 0.007161
v -0.293731 -0.036861 -0.011622
v -0.114522 0.094213 0.248499
v -0.000047 -0.018254 -0.135140
v -0.062509 -0.013132 -0.118427
v -0.120781 0.084530 0.038748
v -0.104690 0.106880 0.064229
v -0.064204 0.130175 0.104042
v -0.005097 0.130622 0.120198
v -0.107690 0.017157 -0.075483
v -0.119774 0.057085 -0.005670
v 0.030414 0.110159 -0.174572
v -0.031722 0.134092 -0.168985
v -0.074046 0.224306 -0.089417
v -0.063707 0.239609 -0.072117
v -0.042571 0.253333 -0.041877
v -0.012106 0.246447 -0.018957
v -0.070260 0.167384 -0.147773
v -0.082747 0.195812 -0.122253
v 0.010254 -0.149567 -0.098734
v 0.000000 -0.056357 0.270273
v 0.028576 -0.120666 -0.232632
v -0.002068 0.157180 0.306651
v -0.001624 0.097477 0.300944
v 0.000000 -0.093909 0.285802
v -0.000092 0.022623 0.273240
v 0.000000 -0.015716 0.276000
v 0.024093 -0.144569 -0.183996
v 0.000000 -0.357284 -0.007127
v 0.000000 -0.277431 -0.041478
v 0.005371 -0.177709 -0.073858
v 0.000000 -0.504094 0.299803
v 0.000000 -0.496633 0.171574
v -0.002228 0.131668 0.332777
v 0.030877 -0.150824 -0.241901
v 0.000000 -0.390537 0.096664
v -0.000603 0.072789 0.256497
v 0.131990 0.238633 -0.353962
v 0.114321 -0.133507 -0.091619
v 0.155070 -0.161107 0.234235
v 0.071568 -0.061852 0.238664
v 0.149550 -0.112524 -0.214238
v 0.303441 0.087648 0.097042
v 0.132263 0.167094 0.239975
v 0.235609 0.145136 0.152578
v 0.116950 -0.019686 0.200503
v 0.166450 -0.150774 0.198936
v 0.187476 0.020369 0.082476
v 0.148563 0.080297 0.151340
v 0.114962 0.110997 0.262591
v 0.085239 -0.109532 0.247579
v 0.080225 0.022447 0.236614
v 0.120536 0.024181 0.188962
v 0.144031 -0.036586 0.139369
v 0.176343 -0.064497 0.100618
v 0.204065 -0.178989 0.150479
v 0.108715 -0.067871 0.204087
v 0.144796 -0.093894 0.162092
v 0.177682 -0.120514 0.119913
v 0.105351 -0.179252 0.006897
v 0.071462 -0.015895 0.237546
v 0.149711 -0.104356 0.046223
v 0.143091 -0.156648 0.057346
v 0.136489 -0.217603 0.083203
v 0.077092 -0.469407 0.157169
v 0.135557 -0.118364 0.224025
v 0.119447 -0.150585 0.275042
v 0.149849 -0.131048 -0.164764
v 0.079993 -0.479939 0.271365
v 0.075825 -0.307218 0.060668
v 0.068963 -0.277841 0.020397
v 0.047251 -0.273892 -0.021670
v 0.065998 -0.181545 -0.051443
v 0.127053 -0.127390 -0.025130
v 0.225443 -0.077592 -0.134335
v 0.186061 -0.087531 -0.061903
v 0.144413 0.137616 0.264986
v 0.275711 0.107508 0.163495
v 0.335278 0.043089 0.111948
v 0.245094 -0.113538 -0.134283
v 0.168716 -0.154429 -0.208620
v 0.160744 -0.342749 0.106022
v 0.137434 -0.257556 0.298314
v 0.065942 -0.365948 0.084048
v 0.226602 -0.323988 0.159548
v 0.191177 -0.272653 0.248873
v 0.194265 -0.063605 0.026904
v 0.315356 -0.066865 0.007064
v 0.293731 -0.037349 -0.011750
v 0.114402 0.094746 0.248624
v 0.060192 -0.016078 -0.115869
v 0.114589 0.085018 0.047846
v 0.095926 0.109649 0.074005
v 0.055352 0.130788 0.107860
v 0.102763 0.010827 -0.066442
v 0.113855 0.052803 0.002038
v 0.082890 0.116053 -0.133450
v 0.077489 0.191796 -0.036603
v 0.052121 0.210497 -0.028973
v 0.025920 0.236784 -0.016497
v 0.084701 0.142445 -0.090538
v 0.085412 0.164414 -0.065987
v 0.079228 0.227703 -0.312903
v 0.085244 0.262602 -0.306620
v 0.090111 0.267155 -0.304074
v 0.099967 0.270552 -0.299543
v 0.079298 0.245809 -0.310933
v 0.082335 0.254401 -0.308729
v 0.089576 0.214085 -0.309985
v 0.110026 0.267014 -0.295669
v 0.110342 0.213846 -0.301231
v 0.121170 0.252892 -0.292469
v 0.125347 0.245639 -0.291480
v 0.117888 0.262299 -0.292849
v 0.118260 0.227120 -0.296461
v 0.122477 0.235366 -0.293794
v -0.108737 -0.436741 0.134930
v -0.124810 -0.349395 0.298264
v -0.046210 -0.431028 0.112235
v -0.180944 -0.407477 0.185424
v -0.172068 -0.368288 0.249722
v 0.000000 -0.382360 0.337892
v 0.000000 -0.431201 0.111786
v 0.108737 -0.436741 0.134930
v 0.046210 -0.431028 0.112235
v 0.124810 -0.349395 0.298264
v 0.172068 -0.368288 0.249722
v 0.180944 -0.407477 0.185424
v 0.088455 -0.468929 0.203217
v 0.040899 -0.500443 0.225351
v -0.000000 -0.525266 0.238664
v -0.040899 -0.500443 0.225351
v -0.088455 -0.468929 0.203217
v 0.039604 -0.490149 0.168889
v -0.039604 -0.490149 0.168889
v -0.118972 0.033227 0.290280
v -0.175742 0.006000 0.204060
v -0.133597 0.083593 0.268862
v -0.250362 0.103585 0.195012
v -0.040556 0.071708 0.284697
v -0.019911 0.031803 0.300107
v 0.245625 0.105353 0.199141
v 0.177168 0.005843 0.204403
v 0.134809 0.083939 0.269320
v 0.120398 0.033483 0.290706
v 0.020524 0.031899 0.300434
v 0.040147 0.071961 0.285087
v -0.146238 0.006028 0.138210
v 0.145146 0.005652 0.139428
v 0.223088 0.043150 0.193935
v 0.131758 0.059212 0.286477
v 0.026206 0.055858 0.295968
v -0.000381 0.052359 0.264150
v -0.026143 0.055720 0.295619
v -0.130433 0.058939 0.286028
v -0.225201 0.042062 0.191439
v 0.000000 -0.455595 0.315244
v 0.139078 -0.435688 0.261280
v 0.094438 -0.398596 0.304239
v -0.094438 -0.398596 0.304239
v -0.139078 -0.435688 0.261280
v 0.046239 -0.438333 0.309118
v -0.046239 -0.438333 0.309118
v 0.000000 -0.326167 0.351007
vt 0.163177 0.048634
vt 0.159675 0.076454
vt 0.136120 0.095329
vt 0.118912 0.070816
vt 0.403200 0.258744
vt 0.382926 0.251511
vt 0.379087 0.234675
vt 0.397210 0.238435
vt 0.438498 0.265223
vt 0.104555 0.338066
vt 0.437747 0.281006
vt 0.095688 0.324054
vt 0.163847 0.029549
vt 0.209476 0.024212
vt 0.406808 0.276235
vt 0.392902 0.363626
vt 0.382682 0.375155
vt 0.156559 0.293723
vt 0.208262 0.046514
vt 0.316847 0.367959
vt 0.350311 0.345861
vt 0.385292 0.287516
vt 0.407272 0.292354
vt 0.091649 0.094154
vt 0.066672 0.055188
vt 0.403341 0.304852
vt 0.382486 0.299917
vt 0.436933 0.298581
vt 0.436095 0.316290
vt 0.114839 0.033638
vt 0.171974 0.102281
vt 0.202274 0.095688
vt 0.199956 0.135371
vt 0.181523 0.138751
vt 0.145555 0.118518
vt 0.167996 0.150830
vt 0.109264 0.111636
vt 0.092227 0.161894
vt 0.093838 0.137081
vt 0.157037 0.309012
vt 0.345588 0.229049
vt 0.367471 0.239557
vt 0.044481 0.380260
vt 0.121359 0.127297
vt 0.128705 0.151839
vt 0.364182 0.263899
vt 0.344352 0.255989
vt 0.439311 0.248418
vt 0.085440 0.122096
vt 0.391008 0.356375
vt 0.172402 0.244363
vt 0.066563 0.380103
vt 0.019807 0.414934
vt 0.434680 0.345841
vt 0.161504 0.230381
vt 0.433525 0.364519
vt 0.362039 0.332972
vt 0.392600 0.347240
vt 0.386629 0.272064
vt 0.040656 0.411286
vt 0.182885 0.221333
vt 0.163409 0.170523
vt 0.359671 0.284220
vt 0.204226 0.080498
vt 0.138144 0.199458
vt 0.340843 0.277661
vt 0.109183 0.210825
vt 0.344019 0.169639
vt 0.181695 0.274511
vt 0.373762 0.192345
vt 0.163883 0.260428
vt 0.184926 0.252759
vt 0.059515 0.539799
vt 0.396144 0.200095
vt 0.020955 0.478906
vt 0.037214 0.476666
vt 0.071659 0.528511
vt 0.126018 0.562486
vt 0.114794 0.577947
vt 0.176061 0.569952
vt 0.177488 0.583404
vt 0.119811 0.415746
vt 0.113397 0.429952
vt 0.158398 0.389049
vt 0.135339 0.396080
vt 0.119594 0.484465
vt 0.138052 0.505547
vt 0.114102 0.451818
vt 0.163095 0.511698
vt 0.210726 0.335342
vt 0.219109 0.320481
vt 0.272482 0.369118
vt 0.250447 0.371927
vt 0.300692 0.403798
vt 0.279207 0.400815
vt 0.268475 0.533653
vt 0.255519 0.523440
vt 0.286643 0.469689
vt 0.303005 0.470881
vt 0.236643 0.572671
vt 0.287244 0.632959
vt 0.173390 0.194270
vt 0.130371 0.239118
vt 0.307074 0.523061
vt 0.199006 0.204123
vt 0.198732 0.221098
vt 0.772094 0.553537
vt 0.742675 0.553744
vt 0.711401 0.440684
vt 0.335728 0.523061
vt 0.313009 0.632960
vt 0.742317 0.440684
vt 0.618369 0.554100
vt 0.591329 0.553937
vt 0.611613 0.440684
vt 0.637349 0.440684
vt 0.568901 0.553522
vt 0.449603 0.632960
vt 0.540789 0.552956
vt 0.570498 0.440684
vt 0.437460 0.523061
vt 0.591327 0.440684
vt 0.700263 0.553975
vt 0.686532 0.440684
vt 0.462336 0.523061
vt 0.477840 0.632960
vt 0.509432 0.632960
vt 0.487553 0.523061
vt 0.509394 0.523061
vt 0.535511 0.632959
vt 0.371851 0.523061
vt 0.347854 0.632960
vt 0.407614 0.523061
vt 0.406926 0.632960
vt 0.361909 0.438142
vt 0.382029 0.438142
vt 0.419231 0.438142
vt 0.431949 0.438142
vt 0.442443 0.438142
vt 0.460148 0.438142
vt 0.397525 0.438142
vt 0.407228 0.438142
vt 0.060449 0.115097
vt 0.019807 0.079212
vt 0.441098 0.211866
vt 0.223857 0.558641
vt 0.206598 0.424115
vt 0.198435 0.409450
vt 0.182085 0.393251
vt 0.366190 0.136723
vt 0.381396 0.158544
vt 0.290718 0.347552
vt 0.334159 0.313675
vt 0.374990 0.312983
vt 0.199595 0.165702
vt 0.252860 0.043522
vt 0.283701 0.072796
vt 0.265573 0.097149
vt 0.248223 0.075660
vt 0.400264 0.327892
vt 0.396656 0.337359
vt 0.254105 0.022991
vt 0.309597 0.097279
vt 0.365603 0.321516
vt 0.286852 0.036566
vt 0.334913 0.058476
vt 0.432644 0.380140
vt 0.407752 0.398488
vt 0.417756 0.123550
vt 0.445539 0.122149
vt 0.444730 0.138441
vt 0.429403 0.142222
vt 0.426268 0.323241
vt 0.424204 0.332181
vt 0.230050 0.102597
vt 0.218333 0.139072
vt 0.254945 0.119898
vt 0.231550 0.151599
vt 0.474230 0.262521
vt 0.482167 0.242976
vt 0.500558 0.241148
vt 0.495102 0.257458
vt 0.468952 0.279533
vt 0.474947 0.368038
vt 0.516528 0.355185
vt 0.291551 0.114346
vt 0.306982 0.165303
vt 0.270869 0.153913
vt 0.278933 0.129587
vt 0.306151 0.140357
vt 0.314978 0.125547
vt 0.224272 0.245215
vt 0.547337 0.382176
vt 0.483256 0.380144
vt 0.515147 0.292166
vt 0.534440 0.287624
vt 0.214560 0.221828
vt 0.235624 0.231569
vt 0.235585 0.171497
vt 0.259952 0.201338
vt 0.288516 0.213727
vt 0.232243 0.261587
vt 0.536588 0.323764
vt 0.513109 0.305728
vt 0.489295 0.292932
vt 0.490831 0.305458
vt 0.469677 0.308242
vt 0.466947 0.295485
vt 0.534440 0.239098
vt 0.533076 0.265900
vt 0.512574 0.271709
vt 0.511642 0.247212
vt 0.477690 0.361001
vt 0.489440 0.277478
vt 0.509999 0.199691
vt 0.541821 0.180370
vt 0.486972 0.204979
vt 0.505739 0.165284
vt 0.523023 0.145253
vt 0.576949 0.362906
vt 0.496992 0.319422
vt 0.213966 0.275078
vt 0.211479 0.253201
vt 0.224907 0.195015
vt 0.266424 0.241357
vt 0.340696 0.120072
vt 0.504654 0.328961
vt 0.383902 0.084918
vt 0.197681 0.283511
vt 0.198159 0.255590
vt 0.413059 0.153849
vt 0.442578 0.181830
vt 0.474706 0.157189
vt 0.443503 0.163160
vt 0.459599 0.143861
vt 0.400942 0.106874
vt 0.396798 0.137299
vt 0.476888 0.351522
vt 0.473679 0.341329
vt 0.470957 0.331601
vt 0.449914 0.341283
vt 0.506847 0.340760
vt 0.445534 0.324330
vt 0.446688 0.333425
vt 0.420196 0.339683
vt 0.435241 0.334639
vt 0.187270 0.503959
vt 0.401603 0.169162
vt 0.204077 0.480516
vt 0.207659 0.447427
vt 0.659230 0.307395
vt 0.484589 0.173649
vt 0.359875 0.297750
vt 0.425986 0.102192
vt 0.446530 0.102263
vt 0.466970 0.104425
vt 0.660915 0.342883
vt 0.672050 0.342883
vt 0.491414 0.111804
vt 0.473034 0.126557
vt 0.659284 0.554091
vt 0.492519 0.142499
vt 0.660680 0.440684
vt 0.626299 0.342883
vt 0.614195 0.342883
vt 0.647521 0.342883
vt 0.637889 0.342883
vt 0.701911 0.342883
vt 0.683898 0.342883
vn -0.136973 -0.966640 0.216439
vn -0.414702 -0.878091 -0.238702
vn -0.282823 -0.944359 0.167920
vn -0.734524 -0.646426 -0.206418
vn -0.461885 0.544260 0.700317
vn -0.673289 0.550646 0.493427
vn -0.527567 0.468376 0.708729
vn -0.776383 0.365965 0.513127
vn -0.000490 0.474353 0.880335
vn -0.532253 0.204635 0.821481
vn -0.000482 0.094663 0.995509
vn 0.006234 -0.592738 -0.805372
vn 0.044134 -0.993566 0.104301
vn -0.356121 -0.773904 -0.523690
vn -0.601895 -0.732651 0.317718
vn -0.523673 -0.773314 0.357424
vn -0.709329 -0.651912 -0.268073
vn -0.447226 -0.659085 0.604645
vn -0.578929 0.079283 0.811514
vn -0.848131 -0.029257 0.528977
vn -0.646340 -0.121596 0.753299
vn 0.007569 -0.498432 -0.866896
vn 0.003846 -0.359205 -0.933251
vn -0.484967 -0.531998 -0.694107
vn -0.645378 -0.388549 -0.657660
vn -0.777414 -0.425447 -0.463274
vn -0.791486 -0.417398 -0.446463
vn -0.533617 -0.037744 0.844883
vn -0.449582 -0.649193 0.613535
vn -0.804017 -0.030767 0.593810
vn -0.349811 -0.830238 0.433978
vn -0.000454 -0.034175 0.999416
vn 0.001403 -0.296587 0.955005
vn -0.962258 0.255579 -0.093484
vn -0.817989 0.447840 0.361016
vn -0.987961 0.107348 -0.111402
vn -0.818855 0.374117 0.435331
vn -0.000049 0.604471 0.796627
vn -0.446618 0.590052 0.672585
vn -0.000743 -0.108730 0.994071
vn -0.000554 -0.788291 0.615302
vn -0.330208 0.737810 0.588727
vn -0.774943 0.628317 -0.068420
vn -0.894350 -0.408770 -0.181785
vn -0.707207 -0.113014 -0.697916
vn -0.854352 -0.320760 -0.408896
vn -0.738291 0.220668 0.637364
vn -0.850945 0.053590 0.522513
vn -0.925042 -0.077185 0.371940
vn -0.394650 -0.801952 -0.448469
vn -0.455324 -0.651684 -0.606621
vn -0.105142 -0.553612 -0.826111
vn -0.656998 -0.350995 -0.667200
vn -0.016807 -0.886151 -0.463092
vn -0.829363 0.113223 0.547118
vn -0.961570 -0.176952 -0.209931
vn -0.507678 -0.341281 -0.791069
vn -0.423274 -0.903705 -0.064472
vn -0.542793 -0.832005 -0.114645
vn -0.236831 -0.852080 -0.466766
vn -0.157508 0.977115 0.142960
vn -0.003085 0.885831 0.463997
vn -0.003452 -0.209703 0.977759
vn -0.404754 0.904614 -0.133598
vn -0.960827 -0.030655 0.275448
vn -0.568168 0.715022 -0.407343
vn -0.639608 0.522335 -0.563975
vn -0.438911 0.520370 -0.732511
vn -0.223176 0.439992 -0.869828
vn 0.037811 0.560783 -0.827099
vn -0.564860 0.111721 0.817589
vn 0.000042 0.186811 0.982396
vn -0.334722 -0.525952 -0.781880
vn -0.811124 -0.253036 0.527305
vn -0.753718 -0.642927 -0.136215
vn -0.000000 -0.608960 -0.793201
vn -0.000000 -0.581950 -0.813224
vn -0.596343 -0.571894 0.563304
vn -0.195327 -0.688470 0.698467
vn -0.437073 0.154291 0.886093
vn -0.306509 -0.896936 0.318681
vn -0.763693 -0.538536 0.356023
vn -0.555932 0.720979 -0.413677
vn -0.684360 0.728994 -0.014803
vn 0.017429 0.983367 0.180790
vn -0.224048 0.966090 0.128347
vn -0.352190 0.404006 -0.844240
vn -0.697014 0.336665 -0.633110
vn -0.734791 0.538378 -0.412591
vn -0.536047 -0.256402 -0.804308
vn -0.030202 0.245830 -0.968842
vn 0.083843 -0.596864 -0.797950
vn -0.839619 0.530357 -0.117306
vn -0.633076 0.773875 -0.018254
vn 0.011494 0.889690 0.456420
vn -0.337553 0.899242 0.278249
vn -0.768890 0.025924 -0.638856
vn -0.880343 0.283561 -0.380249
vn -0.590189 -0.335804 -0.734107
vn -0.172926 -0.761818 -0.624283
vn -0.379847 0.840039 -0.387365
vn -0.591245 0.600768 -0.538059
vn 0.347118 0.936614 0.047586
vn -0.012375 0.983862 -0.178501
vn -0.706728 0.137458 -0.694003
vn -0.683698 0.361299 -0.634051
vn -0.515641 -0.720490 0.463691
vn -0.000000 -0.747258 0.664534
vn -0.318397 -0.328122 0.889359
vn 0.000000 -0.299412 0.954124
vn 0.000000 -0.705522 -0.708688
vn 0.423946 -0.413630 0.805717
vn 0.243874 0.429244 0.869641
vn 0.102783 -0.955508 0.276479
vn 0.293934 -0.929275 0.223722
vn 0.378106 -0.919899 -0.104029
vn 0.743065 -0.653780 -0.142918
vn 0.462349 0.543313 0.700746
vn 0.527833 0.467954 0.708810
vn 0.674311 0.549978 0.492777
vn 0.776603 0.365911 0.512833
vn 0.531977 0.203785 0.821871
vn 0.557668 -0.528601 -0.639991
vn 0.601111 -0.731741 0.321278
vn 0.523046 -0.775384 0.353841
vn 0.757659 -0.614265 -0.220526
vn 0.458499 -0.648695 0.607431
vn 0.859357 0.000039 0.511376
vn 0.573676 0.134620 0.807944
vn 0.643693 -0.063384 0.762654
vn 0.649908 -0.397617 -0.647704
vn 0.503233 -0.571991 -0.647752
vn 0.791320 -0.417456 -0.446704
vn 0.783497 -0.433806 -0.444909
vn 0.851568 0.057215 0.521112
vn 0.926080 -0.072401 0.370317
vn 0.770166 -0.500686 0.395167
vn 0.605913 -0.568502 0.556484
vn 0.347916 -0.829025 0.437804
vn 0.449069 -0.651027 0.611965
vn 0.805069 -0.029106 0.592467
vn 0.533148 -0.037725 0.845181
vn 0.962182 0.255656 -0.094057
vn 0.987891 0.106985 -0.112362
vn 0.818506 0.447887 0.359785
vn 0.819674 0.374372 0.433567
vn 0.453948 0.606278 0.652961
vn 0.895194 -0.409089 -0.176847
vn 0.707269 -0.113359 -0.697797
vn 0.854880 -0.323125 -0.405918
vn 0.738833 0.220153 0.636913
vn 0.394650 -0.801952 -0.448469
vn 0.105142 -0.553612 -0.826111
vn 0.455324 -0.651684 -0.606620
vn 0.657062 -0.351158 -0.667051
vn 0.829485 0.113314 0.546914
vn 0.961578 -0.176864 -0.209968
vn 0.507686 -0.341253 -0.791076
vn 0.423274 -0.903705 -0.064471
vn 0.236831 -0.852080 -0.466766
vn 0.542793 -0.832005 -0.114645
vn 0.147599 0.988748 0.024348
vn 0.398289 0.911638 -0.101405
vn 0.962317 -0.019459 0.271233
vn 0.522827 0.741505 -0.420503
vn 0.489133 0.584912 -0.647014
vn 0.619443 0.542434 -0.567499
vn 0.286185 0.441242 -0.850532
vn 0.564848 0.111816 0.817585
vn 0.334722 -0.525952 -0.781879
vn 0.811125 -0.253036 0.527304
vn 0.753718 -0.642927 -0.136215
vn 0.784625 -0.516625 0.342729
vn 0.439017 0.156910 0.884671
vn 0.322732 -0.891267 0.318571
vn 0.193131 -0.688768 0.698784
vn 0.655185 0.664380 -0.359628
vn 0.476928 0.876554 -0.064754
vn 0.383733 0.907869 0.168890
vn 0.416713 0.387356 -0.822378
vn 0.729460 0.470401 -0.496599
vn 0.721343 0.515197 -0.462857
vn 0.872499 -0.334648 -0.356029
vn 0.847846 0.479088 0.227228
vn 0.723772 0.604832 0.332164
vn 0.432274 0.805892 0.404571
vn 0.995471 -0.075364 -0.057942
vn 0.998996 0.043910 0.008891
vn 0.546644 -0.782750 -0.297459
vn 0.982730 0.108424 0.149955
vn 0.849000 0.490933 0.195408
vn 0.763866 0.626821 0.153635
vn 0.902000 -0.431121 0.023062
vn 0.938940 -0.335113 0.078050
vn 0.000000 -0.998473 -0.055239
vn -0.000000 -0.889694 -0.456557
vn -0.417655 -0.419925 0.805746
vn -0.245171 0.421962 0.872834
vn 0.515513 0.371758 -0.772038
vn -0.560394 -0.141682 0.816018
vn 0.560394 -0.141682 0.816018
vn 0.688979 -0.535718 0.488174
vn 0.515641 -0.720489 0.463691
vn -0.757564 -0.513504 0.403002
vn 0.000740 0.546754 0.837293
vn 0.211511 0.725848 0.654529
vn 0.754591 0.653071 -0.063957
vn -0.214197 0.721972 0.657934
vn 0.329287 0.738854 0.587932
vn -0.688979 -0.535717 0.488174
vn 0.318397 -0.328122 0.889359
vn 0.000000 -0.257271 0.966339
vn 0.398421 -0.273732 0.875404
vn 0.000000 -0.112814 0.993616
vn -0.398421 -0.273732 0.875404
f 31/1/1 1/2/2 39/4/3
f 39/4/3 1/2/2 37/3/4
f 14/5/5 29/6/6 30/8/7
f 30/8/7 29/6/6 2/7/8
f 14/5/5 76/9/9 4/15/10
f 4/15/10 76/9/9 72/11/11
f 86/14/12 79/19/13 44/13/14
f 44/13/14 79/19/13 31/1/1
f 51/24/15 52/25/16 39/4/3
f 39/4/3 52/25/16 43/30/17
f 13/16/18 40/17/19 12/21/20
f 12/21/20 40/17/19 41/20/21
f 82/32/22 81/33/23 36/31/24
f 36/31/24 81/33/23 35/34/25
f 36/31/24 35/34/25 23/35/26
f 23/35/26 35/34/25 34/36/27
f 24/23/28 15/26/29 9/22/30
f 9/22/30 15/26/29 16/27/31
f 78/28/32 77/29/33 24/23/28
f 24/23/28 77/29/33 15/26/29
f 19/41/34 10/42/35 22/47/36
f 22/47/36 10/42/35 21/46/37
f 10/42/35 2/7/8 29/6/6
f 30/8/7 3/48/38 14/5/5
f 14/5/5 3/48/38 76/9/9
f 54/50/39 88/54/40 13/16/18
f 13/16/18 88/54/40 75/56/41
f 54/50/39 12/21/20 189/58/42
f 189/58/42 12/21/20 190/57/43
f 25/37/44 51/24/15 37/3/4
f 37/3/4 51/24/15 39/4/3
f 19/38/34 22/39/36 27/45/45
f 27/45/45 22/39/36 26/44/46
f 21/46/37 20/59/47 17/63/48
f 17/63/48 20/59/47 9/22/30
f 22/47/36 21/46/37 18/66/49
f 18/66/49 21/46/37 17/63/48
f 18/49/49 25/37/44 22/39/36
f 22/39/36 25/37/44 26/44/46
f 4/15/10 24/23/28 20/59/47
f 20/59/47 24/23/28 9/22/30
f 4/15/10 72/11/11 24/23/28
f 24/23/28 72/11/11 78/28/32
f 23/35/26 26/44/46 37/3/4
f 37/3/4 26/44/46 25/37/44
f 28/51/50 168/55/51 170/61/52
f 29/6/6 14/5/5 20/59/47
f 20/59/47 14/5/5 4/15/10
f 10/42/35 29/6/6 21/46/37
f 21/46/37 29/6/6 20/59/47
f 23/35/26 34/36/27 26/44/46
f 34/36/27 33/62/53 26/44/46
f 27/45/45 26/44/46 33/62/53
f 1/2/2 36/31/24 37/3/4
f 37/3/4 36/31/24 23/35/26
f 1/2/2 71/64/54 36/31/24
f 36/31/24 71/64/54 82/32/22
f 2/7/8 10/42/35 50/70/55
f 49/68/56 50/70/55 19/41/34
f 19/41/34 50/70/55 10/42/35
f 46/65/57 49/67/56 27/45/45
f 27/45/45 49/67/56 19/38/34
f 183/69/58 184/71/59 186/72/60
f 186/72/60 184/71/59 28/51/50
f 39/4/3 43/30/17 31/1/1
f 31/1/1 43/30/17 44/13/14
f 7/10/61 40/12/19 74/40/62
f 74/40/62 40/12/19 85/18/63
f 41/43/21 40/12/19 8/52/64
f 8/52/64 40/12/19 7/10/61
f 42/53/65 41/43/21 6/60/66
f 6/60/66 41/43/21 8/52/64
f 52/75/16 53/76/67 43/73/17
f 43/73/17 53/76/67 38/77/68
f 43/73/17 38/77/68 44/79/14
f 44/79/14 38/77/68 5/78/69
f 73/80/70 86/81/12 5/78/69
f 5/78/69 86/81/12 44/79/14
f 47/74/71 45/145/72 30/8/7
f 30/8/7 45/145/72 3/48/38
f 48/102/73 46/65/57 33/62/53
f 33/62/53 46/65/57 27/45/45
f 50/70/55 49/68/56 172/151/74
f 172/151/74 49/68/56 171/150/75
f 28/51/50 184/71/59 168/55/51
f 168/55/51 184/71/59 171/103/75
f 50/70/55 47/74/71 2/7/8
f 2/7/8 47/74/71 30/8/7
f 48/102/73 87/105/76 170/61/52
f 170/61/52 87/105/76 174/106/77
f 42/152/65 11/153/78 41/20/21
f 41/20/21 11/153/78 12/21/20
f 11/143/78 51/24/15 18/49/49
f 18/49/49 51/24/15 25/37/44
f 42/144/65 52/25/16 11/143/78
f 11/143/78 52/25/16 51/24/15
f 52/75/16 42/53/65 53/76/67
f 53/76/67 42/53/65 6/60/66
f 187/160/79 206/161/80 188/154/81
f 188/154/81 206/161/80 207/164/82
f 6/60/66 8/52/64 57/83/83
f 57/83/83 8/52/64 58/82/84
f 74/40/62 60/84/85 7/10/61
f 7/10/61 60/84/85 59/85/86
f 7/10/61 59/85/86 8/52/64
f 8/52/64 59/85/86 58/82/84
f 5/78/69 38/77/68 56/87/87
f 56/87/87 38/77/68 61/86/88
f 38/77/68 53/76/67 61/86/88
f 61/86/88 53/76/67 62/88/89
f 53/76/67 6/60/66 62/88/89
f 62/88/89 6/60/66 57/83/83
f 56/108/87 64/109/90 55/107/91
f 55/107/91 64/109/90 63/112/92
f 57/113/83 58/114/84 65/116/93
f 65/116/93 58/114/84 66/115/94
f 60/119/85 68/120/95 59/117/86
f 59/117/86 68/120/95 67/122/96
f 59/117/86 67/122/96 58/114/84
f 58/114/84 67/122/96 66/115/94
f 56/108/87 61/123/88 64/109/90
f 64/109/90 61/123/88 69/124/97
f 62/261/89 70/263/98 61/123/88
f 61/123/88 70/263/98 69/124/97
f 57/113/83 65/116/93 62/261/89
f 62/261/89 65/116/93 70/263/98
f 64/109/90 154/269/99 63/112/92
f 63/112/92 154/269/99 160/268/100
f 66/115/94 156/267/101 65/116/93
f 65/116/93 156/267/101 155/266/102
f 68/120/95 161/265/103 67/122/96
f 67/122/96 161/265/103 157/264/104
f 67/122/96 157/264/104 66/115/94
f 66/115/94 157/264/104 156/267/101
f 69/124/97 158/258/105 64/109/90
f 64/109/90 158/258/105 154/269/99
f 70/263/98 159/257/106 69/124/97
f 69/124/97 159/257/106 158/258/105
f 65/116/93 155/266/102 70/263/98
f 70/263/98 155/266/102 159/257/106
f 79/19/13 71/64/54 31/1/1
f 31/1/1 71/64/54 1/2/2
f 75/56/41 85/167/63 13/16/18
f 13/16/18 85/167/63 40/17/19
f 32/169/107 83/170/108 214/172/109
f 214/172/109 83/170/108 208/171/110
f 81/33/23 80/155/111 35/34/25
f 80/155/111 33/62/53 34/36/27
f 80/155/111 48/102/73 33/62/53
f 192/173/112 205/174/113 187/160/79
f 187/160/79 205/174/113 206/161/80
f 73/80/70 5/78/69 55/89/91
f 55/89/91 5/78/69 56/87/87
f 119/156/114 127/157/115 90/159/116
f 90/159/116 127/157/115 125/158/117
f 102/179/118 118/180/119 117/182/120
f 117/182/120 118/180/119 91/181/121
f 102/179/118 92/183/122 76/9/9
f 76/9/9 92/183/122 72/11/11
f 132/162/123 119/156/114 86/14/12
f 86/14/12 119/156/114 79/19/13
f 138/163/124 127/157/115 139/166/125
f 139/166/125 127/157/115 131/165/126
f 101/184/127 100/185/128 128/194/129
f 128/194/129 100/185/128 129/193/130
f 123/176/131 81/33/23 124/175/132
f 124/175/132 81/33/23 82/32/22
f 122/178/133 123/176/131 111/177/134
f 111/177/134 123/176/131 124/175/132
f 105/195/135 106/196/136 200/204/137
f 200/204/137 106/196/136 99/203/138
f 104/206/139 103/207/140 97/205/141
f 97/205/141 103/207/140 112/208/142
f 103/207/140 77/29/33 112/208/142
f 112/208/142 77/29/33 78/28/32
f 107/209/143 110/210/144 98/212/145
f 98/212/145 110/210/144 109/211/146
f 98/212/145 117/182/120 91/181/121
f 118/180/119 102/179/118 3/48/38
f 3/48/38 102/179/118 76/9/9
f 75/56/41 88/54/40 101/184/127
f 101/184/127 88/54/40 141/213/147
f 113/186/148 125/158/117 138/163/124
f 138/163/124 125/158/117 127/157/115
f 107/187/143 115/188/149 110/190/144
f 110/190/144 115/188/149 114/189/150
f 109/211/146 105/195/135 108/214/151
f 108/214/151 105/195/135 97/205/141
f 110/210/144 106/196/136 109/211/146
f 109/211/146 106/196/136 105/195/135
f 114/189/150 113/186/148 110/190/144
f 110/190/144 113/186/148 106/191/136
f 92/183/122 108/214/151 112/208/142
f 112/208/142 108/214/151 97/205/141
f 92/183/122 112/208/142 72/11/11
f 72/11/11 112/208/142 78/28/32
f 111/177/134 125/158/117 114/189/150
f 114/189/150 125/158/117 113/186/148
f 116/192/152 176/197/153 175/198/154
f 92/183/122 102/179/118 108/214/151
f 108/214/151 102/179/118 117/182/120
f 98/212/145 109/211/146 117/182/120
f 117/182/120 109/211/146 108/214/151
f 111/177/134 114/189/150 122/178/133
f 122/178/133 114/189/150 121/199/155
f 115/188/149 121/199/155 114/189/150
f 90/159/116 125/158/117 124/175/132
f 124/175/132 125/158/117 111/177/134
f 90/159/116 124/175/132 71/64/54
f 71/64/54 124/175/132 82/32/22
f 91/181/121 137/215/156 98/212/145
f 136/216/157 107/209/143 137/215/156
f 107/209/143 98/212/145 137/215/156
f 133/200/158 115/188/149 136/201/157
f 136/201/157 115/188/149 107/187/143
f 181/222/159 185/223/160 180/202/161
f 180/202/161 185/223/160 116/192/152
f 132/162/123 131/165/126 119/156/114
f 119/156/114 131/165/126 127/157/115
f 95/90/162 74/40/62 128/91/129
f 128/91/129 74/40/62 85/18/63
f 129/92/130 96/93/163 128/91/129
f 128/91/129 96/93/163 95/90/162
f 130/94/164 94/95/165 129/92/130
f 129/92/130 94/95/165 96/93/163
f 126/97/166 140/98/167 131/96/126
f 131/96/126 140/98/167 139/99/125
f 131/96/126 132/100/123 126/97/166
f 126/97/166 132/100/123 93/146/168
f 132/100/123 86/81/12 93/146/168
f 93/146/168 86/81/12 73/80/70
f 134/217/169 118/180/119 45/145/72
f 45/145/72 118/180/119 3/48/38
f 135/224/170 121/199/155 133/200/158
f 133/200/158 121/199/155 115/188/149
f 137/215/156 178/218/171 136/216/157
f 136/216/157 178/218/171 179/219/172
f 116/192/152 175/198/154 180/202/161
f 180/202/161 175/198/154 179/225/172
f 137/215/156 91/181/121 134/217/169
f 134/217/169 91/181/121 118/180/119
f 135/224/170 176/197/153 87/105/76
f 87/105/76 176/197/153 174/106/77
f 130/220/164 129/193/130 99/203/138
f 99/203/138 129/193/130 100/185/128
f 99/226/138 106/191/136 138/163/124
f 138/163/124 106/191/136 113/186/148
f 138/163/124 139/166/125 99/226/138
f 99/226/138 139/166/125 130/228/164
f 94/95/165 130/94/164 140/98/167
f 140/98/167 130/94/164 139/99/125
f 105/195/135 200/204/137 97/205/141
f 97/205/141 200/204/137 104/206/139
f 201/227/173 202/239/174 194/221/175
f 194/221/175 202/239/174 196/240/176
f 94/95/165 143/147/177 96/93/163
f 96/93/163 143/147/177 144/148/178
f 145/149/179 60/84/85 95/90/162
f 95/90/162 60/84/85 74/40/62
f 96/93/163 144/148/178 95/90/162
f 95/90/162 144/148/178 145/149/179
f 93/146/168 142/247/180 126/97/166
f 126/97/166 142/247/180 146/249/181
f 126/97/166 146/249/181 140/98/167
f 140/98/167 146/249/181 147/250/182
f 140/98/167 147/250/182 94/95/165
f 94/95/165 147/250/182 143/147/177
f 55/101/91 63/104/92 142/111/180
f 142/111/180 63/104/92 148/110/183
f 143/118/177 149/121/184 144/126/178
f 144/126/178 149/121/184 150/125/185
f 145/127/179 151/128/186 60/130/85
f 60/130/85 151/128/186 68/129/95
f 144/126/178 150/125/185 145/127/179
f 145/127/179 150/125/185 151/128/186
f 142/111/180 148/110/183 146/132/181
f 146/132/181 148/110/183 152/131/187
f 146/132/181 152/131/187 147/134/182
f 147/134/182 152/131/187 153/133/188
f 147/134/182 153/133/188 143/118/177
f 143/118/177 153/133/188 149/121/184
f 160/135/100 162/136/189 63/104/92
f 63/104/92 162/136/189 148/110/183
f 164/137/190 163/138/191 149/121/184
f 149/121/184 163/138/191 150/125/185
f 165/139/192 161/140/103 151/128/186
f 151/128/186 161/140/103 68/129/95
f 163/138/191 165/139/192 150/125/185
f 150/125/185 165/139/192 151/128/186
f 162/136/189 166/141/193 148/110/183
f 148/110/183 166/141/193 152/131/187
f 166/141/193 167/142/194 152/131/187
f 152/131/187 167/142/194 153/133/188
f 167/142/194 164/137/190 153/133/188
f 153/133/188 164/137/190 149/121/184
f 119/156/114 90/159/116 79/19/13
f 79/19/13 90/159/116 71/64/54
f 75/56/41 101/184/127 85/167/63
f 85/167/63 101/184/127 128/194/129
f 81/33/23 123/176/131 80/155/111
f 80/155/111 122/178/133 121/199/155
f 182/229/195 84/230/196 181/222/159
f 181/222/159 84/230/196 185/223/160
f 197/243/197 196/240/176 203/244/198
f 203/244/198 196/240/176 202/239/174
f 55/89/91 142/247/180 73/80/70
f 73/80/70 142/247/180 93/146/168
f 160/268/100 154/269/99 89/251/199
f 155/266/102 156/267/101 89/251/199
f 157/264/104 161/265/103 89/251/199
f 156/267/101 157/264/104 89/251/199
f 154/269/99 158/258/105 89/251/199
f 158/258/105 159/257/106 89/251/199
f 159/257/106 155/266/102 89/251/199
f 162/136/189 160/135/100 89/168/199
f 163/138/191 164/137/190 89/168/199
f 161/140/103 165/139/192 89/168/199
f 165/139/192 163/138/191 89/168/199
f 166/141/193 162/136/189 89/168/199
f 167/142/194 166/141/193 89/168/199
f 164/137/190 167/142/194 89/168/199
f 170/61/52 168/55/51 48/102/73
f 48/102/73 168/55/51 46/65/57
f 172/151/74 169/248/200 50/70/55
f 50/70/55 169/248/200 47/74/71
f 168/55/51 171/103/75 46/65/57
f 46/65/57 171/103/75 49/67/56
f 28/51/50 170/61/52 186/72/60
f 186/72/60 170/61/52 174/106/77
f 176/197/153 135/224/170 175/198/154
f 175/198/154 135/224/170 133/200/158
f 178/218/171 137/215/156 177/252/201
f 177/252/201 137/215/156 134/217/169
f 175/198/154 133/200/158 179/225/172
f 179/225/172 133/200/158 136/201/157
f 116/192/152 185/223/160 176/197/153
f 176/197/153 185/223/160 174/106/77
f 135/224/170 80/155/111 121/199/155
f 80/155/111 123/176/131 122/178/133
f 35/34/25 80/155/111 34/36/27
f 209/262/202 120/260/203 180/259/161
f 180/259/161 120/260/203 181/256/159
f 182/255/195 181/256/159 83/170/108
f 83/170/108 181/256/159 120/260/203
f 182/255/195 83/170/108 183/254/58
f 183/254/58 83/170/108 32/169/107
f 174/106/77 185/223/160 84/230/196
f 186/72/60 174/106/77 84/230/196
f 186/72/60 84/230/196 183/69/58
f 183/69/58 84/230/196 182/229/195
f 80/155/111 135/224/170 87/105/76
f 48/102/73 80/155/111 87/105/76
f 15/26/29 187/160/79 16/27/31
f 16/27/31 187/160/79 188/154/81
f 16/27/31 188/154/81 199/253/204
f 77/29/33 204/246/205 192/173/112
f 192/173/112 204/246/205 205/174/113
f 88/54/40 54/50/39 191/245/206
f 191/245/206 54/50/39 189/58/42
f 77/29/33 192/173/112 15/26/29
f 15/26/29 192/173/112 187/160/79
f 193/242/207 99/203/138 100/185/128
f 141/213/147 100/185/128 101/184/127
f 103/207/140 104/206/139 196/240/176
f 196/240/176 104/206/139 194/221/175
f 77/29/33 103/207/140 197/243/197
f 197/243/197 103/207/140 196/240/176
f 88/54/40 198/241/208 141/213/147
f 141/213/147 198/241/208 195/238/209
f 203/244/198 204/246/205 197/243/197
f 197/243/197 204/246/205 77/29/33
f 17/63/48 199/253/204 18/66/49
f 18/66/49 199/253/204 11/153/78
f 16/27/31 199/253/204 9/22/30
f 9/22/30 199/253/204 17/63/48
f 202/239/174 201/227/173 195/238/209
f 195/238/209 201/227/173 193/242/207
f 203/244/198 202/239/174 198/241/208
f 198/241/208 202/239/174 195/238/209
f 88/54/40 204/246/205 198/241/208
f 198/241/208 204/246/205 203/244/198
f 205/174/113 204/246/205 191/245/206
f 191/245/206 204/246/205 88/54/40
f 205/174/113 191/245/206 206/161/80
f 206/161/80 191/245/206 189/58/42
f 206/161/80 189/58/42 207/164/82
f 207/164/82 189/58/42 190/57/43
f 188/154/81 207/164/82 199/253/204
f 199/253/204 207/164/82 11/153/78
f 200/204/137 194/221/175 104/206/139
f 11/153/78 207/164/82 190/57/43
f 194/221/175 200/204/137 201/227/173
f 201/227/173 200/204/137 99/203/138
f 11/153/78 190/57/43 12/21/20
f 201/227/173 99/203/138 193/242/207
f 54/50/39 13/16/18 12/21/20
f 141/213/147 195/238/209 100/185/128
f 100/185/128 195/238/209 193/242/207
f 212/237/210 184/236/59 32/169/107
f 32/169/107 184/236/59 183/254/58
f 120/260/203 213/235/211 83/170/108
f 83/170/108 213/235/211 208/171/110
f 208/171/110 213/235/211 173/234/212
f 173/234/212 214/172/109 208/171/110
f 178/218/171 209/262/202 179/219/172
f 179/219/172 209/262/202 180/259/161
f 210/233/213 209/262/202 177/252/201
f 177/252/201 209/262/202 178/218/171
f 173/234/212 210/233/213 215/232/214
f 215/232/214 210/233/213 177/252/201
f 169/248/200 211/231/215 215/232/214
f 215/232/214 211/231/215 173/234/212
f 211/231/215 169/248/200 212/237/210
f 212/237/210 169/248/200 172/151/74
f 172/151/74 171/150/75 212/237/210
f 212/237/210 171/150/75 184/236/59
f 209/262/202 210/233/213 120/260/203
f 120/260/203 210/233/213 213/235/211
f 173/234/212 213/235/211 210/233/213
f 173/234/212 211/231/215 214/172/109
f 214/172/109 211/231/215 32/169/107
f 32/169/107 211/231/215 212/237/210
f 177/252/201 134/217/169 215/232/214
f 215/232/214 134/217/169 45/145/72
f 169/248/200 215/232/214 47/74/71
f 47/74/71 215/232/214 45/145/72
