# This file uses centimeters as units for non-parametric coordinates.

v -0.069961 0.051968 0.078157
v -0.019033 0.056969 0.086869
v 0.032914 0.051968 0.078157
v -0.058337 0.060534 0.023359
v -0.013457 0.070592 0.023509
v 0.032565 0.060534 0.023359
v -0.042384 0.036402 -0.147524
v -0.012563 0.042502 -0.151901
v 0.033229 0.040355 -0.153993
v -0.053523 0.009251 -0.148900
v -0.010279 0.006383 -0.175879
v 0.055284 0.010992 -0.157129
v -0.042897 -0.017646 -0.151535
v -0.014173 -0.022434 -0.153529
v 0.033600 -0.015257 -0.151043
v -0.059622 -0.043831 0.023359
v -0.013457 -0.054793 0.023196
v 0.033850 -0.043831 0.023358
v -0.071466 -0.028648 0.076838
v -0.016670 -0.041393 0.085353
v 0.034318 -0.028648 0.076838
v -0.084772 0.004713 0.079985
v -0.014461 0.006340 0.124100
v 0.046704 0.004713 0.079985
v 0.047595 0.005211 0.023052
v -0.074677 0.005297 0.021857
v -0.057369 0.007489 -0.124804
v -0.045969 0.041251 -0.125360
v -0.010701 0.046966 -0.125348
v 0.035112 0.043422 -0.128858
v 0.047866 0.010113 -0.128293
v 0.033263 -0.021254 -0.128274
v -0.009878 -0.029325 -0.124775
v -0.047543 -0.025095 -0.124802
v -0.048697 0.049481 -0.063698
v -0.009815 0.056518 -0.063699
v 0.027993 0.048194 -0.063413
v 0.042652 0.010914 -0.063715
v 0.032720 -0.030421 -0.063710
v -0.009347 -0.039230 -0.064037
v -0.055066 -0.033050 -0.063943
v -0.068058 0.010037 -0.064015
v -0.011352 0.033952 -0.166863
v -0.033326 0.028646 -0.158945
v -0.039226 0.008960 -0.161008
v -0.035295 -0.010696 -0.160576
v -0.013089 -0.019712 -0.165313
v 0.022538 -0.010904 -0.167560
v 0.037228 0.010108 -0.175708
v 0.022031 0.035929 -0.172263
vt 0.276609 0.758985
vt 0.275357 0.725501
vt 0.316512 0.726366
vt 0.312486 0.758169
vt 0.282590 0.691977
vt 0.317489 0.693543
vt 0.373660 0.727823
vt 0.371920 0.758793
vt 0.375685 0.697551
vt 0.428684 0.755954
vt 0.439064 0.752141
vt 0.448181 0.762750
vt 0.363040 0.831014
vt 0.365855 0.825557
vt 0.376427 0.825936
vt 0.375810 0.831424
vt 0.392185 0.823832
vt 0.397443 0.832028
vt 0.370435 0.913351
vt 0.349325 0.912775
vt 0.353274 0.871384
vt 0.375512 0.873392
vt 0.391719 0.915775
vt 0.396189 0.874914
vt 0.367674 0.941439
vt 0.343618 0.938230
vt 0.390700 0.941247
vt 0.367157 0.971460
vt 0.330216 0.946411
vt 0.437458 0.773709
vt 0.447180 0.713818
vt 0.436751 0.703921
vt 0.450496 0.683276
vt 0.462645 0.700663
vt 0.402738 0.951209
vt 0.414622 0.920481
vt 0.415882 0.874005
vt 0.325450 0.912050
vt 0.258067 0.783977
vt 0.231673 0.717902
vt 0.267865 0.664252
vt 0.314649 0.651959
vt 0.333046 0.866081
vt 0.359724 0.843282
vt 0.345835 0.836338
vt 0.352278 0.824620
vt 0.377210 0.845150
vt 0.379722 0.667942
vt 0.306817 0.800140
vt 0.373769 0.791253
vt 0.397252 0.843289
vt 0.413771 0.758136
vt 0.412725 0.840052
vt 0.410931 0.824114
vt 0.401177 0.815013
vt 0.360185 0.818287
vt 0.414007 0.732208
vt 0.431801 0.735360
vt 0.376759 0.812517
vt 0.420024 0.782650
vt 0.420701 0.699822
vt 0.428009 0.675518
vt 0.443341 0.735967
vt 0.463524 0.740537
vn -0.705993 0.602199 0.372734
vn -0.045368 0.886381 0.460729
vn -0.574850 0.817705 -0.030106
vn -0.009460 0.999811 0.016993
vn 0.620639 0.669056 0.408867
vn 0.598708 0.799613 -0.046550
vn -0.559837 0.816299 -0.142262
vn 0.058305 0.986200 -0.154952
vn 0.644346 0.760615 -0.079264
vn -0.595433 0.695091 -0.402875
vn -0.468883 0.446447 -0.762125
vn -0.828721 0.092623 -0.551945
vn -0.584813 0.008067 -0.811128
vn 0.098389 0.643039 -0.759487
vn 0.524625 0.809158 -0.264634
vn 0.510199 -0.098082 -0.854445
vn 0.964464 -0.042277 -0.260809
vn -0.611412 -0.603813 -0.511455
vn -0.453242 -0.481572 -0.750107
vn -0.037126 -0.940662 -0.337309
vn -0.137740 -0.740429 -0.657870
vn 0.522501 -0.801104 -0.291933
vn 0.226966 -0.721964 -0.653647
vn -0.602666 -0.797862 0.014524
vn -0.654224 -0.740543 -0.153584
vn 0.021459 -0.999144 0.035381
vn 0.043200 -0.985913 -0.161585
vn 0.601611 -0.798750 -0.007938
vn 0.685917 -0.718094 -0.117723
vn -0.041204 -0.885455 0.462895
vn -0.706725 -0.605353 0.366180
vn 0.629019 -0.662356 0.406965
vn 0.018781 -0.034286 0.999236
vn -0.908906 -0.045508 0.414510
vn 0.883027 -0.043629 0.467291
vn 0.999876 0.006470 -0.014332
vn 0.999213 0.035603 0.017522
vn -0.991743 0.009264 -0.127905
vn -0.990042 0.059292 -0.127678
vn -0.700909 0.685277 -0.197795
vn -0.040198 0.987997 -0.149148
vn -0.153166 0.910524 -0.384039
vn -0.981629 0.015934 -0.190135
vn -0.627655 -0.745316 -0.224842
vn 0.043190 -0.976904 -0.209268
vn 0.715340 -0.691716 -0.099083
vn 0.997414 -0.030438 0.065102
vn 0.690634 0.722241 -0.037308
vn -0.281786 0.596328 -0.751658
vn -0.227178 -0.036490 -0.973170
f 1/1/1 2/2/2 4/4/3
f 4/4/3 2/2/2 5/3/4
f 2/2/2 3/5/5 5/3/4
f 5/3/4 3/5/5 6/6/6
f 4/4/3 5/3/4 35/8/7
f 35/8/7 5/3/4 36/7/8
f 5/3/4 6/6/6 36/7/8
f 36/7/8 6/6/6 37/9/9
f 7/10/10 44/11/11 10/30/12
f 10/30/12 44/11/11 45/12/13
f 50/31/14 9/32/15 49/34/16
f 49/34/16 9/32/15 12/33/17
f 13/13/18 46/14/19 14/16/20
f 14/16/20 46/14/19 47/15/21
f 15/18/22 14/16/20 48/17/23
f 48/17/23 14/16/20 47/15/21
f 16/20/24 41/21/25 17/19/26
f 17/19/26 41/21/25 40/22/27
f 17/19/26 40/22/27 18/23/28
f 18/23/28 40/22/27 39/24/29
f 17/19/26 20/25/30 16/20/24
f 16/20/24 20/25/30 19/26/31
f 18/23/28 21/27/32 17/19/26
f 17/19/26 21/27/32 20/25/30
f 19/26/31 23/28/33 22/29/34
f 23/28/33 21/27/32 24/35/35
f 22/39/34 23/40/33 1/1/1
f 23/40/33 24/41/35 3/5/5
f 24/35/35 21/27/32 25/36/36
f 25/36/36 21/27/32 18/23/28
f 24/41/35 25/42/36 3/5/5
f 3/5/5 25/42/36 6/6/6
f 18/23/28 39/24/29 25/36/36
f 25/36/36 39/24/29 38/37/37
f 6/6/6 25/42/36 37/9/9
f 37/9/9 25/42/36 38/48/37
f 22/29/34 26/38/38 19/26/31
f 19/26/31 26/38/38 16/20/24
f 22/39/34 1/1/1 26/49/38
f 26/49/38 1/1/1 4/4/3
f 16/20/24 26/38/38 41/21/25
f 41/21/25 26/38/38 42/43/39
f 4/4/3 35/8/7 26/49/38
f 26/49/38 35/8/7 42/50/39
f 28/52/40 29/57/41 7/10/10
f 7/10/10 29/57/41 8/58/42
f 28/52/40 7/10/10 27/60/43
f 27/60/43 7/10/10 10/30/12
f 34/44/44 27/45/43 13/13/18
f 13/13/18 27/45/43 10/46/12
f 14/16/20 33/47/45 13/13/18
f 13/13/18 33/47/45 34/44/44
f 14/16/20 15/18/22 33/47/45
f 33/47/45 15/18/22 32/51/46
f 32/51/46 15/18/22 31/53/47
f 31/53/47 15/18/22 12/54/17
f 30/61/48 31/62/47 9/32/15
f 9/32/15 31/62/47 12/33/17
f 30/61/48 9/32/15 29/57/41
f 29/57/41 9/32/15 8/58/42
f 35/8/7 28/52/40 42/50/39
f 42/50/39 28/52/40 27/60/43
f 36/7/8 29/57/41 35/8/7
f 35/8/7 29/57/41 28/52/40
f 36/7/8 37/9/9 29/57/41
f 29/57/41 37/9/9 30/61/48
f 37/9/9 38/48/37 30/61/48
f 30/61/48 38/48/37 31/62/47
f 39/24/29 32/51/46 38/37/37
f 38/37/37 32/51/46 31/53/47
f 32/51/46 39/24/29 33/47/45
f 33/47/45 39/24/29 40/22/27
f 33/47/45 40/22/27 34/44/44
f 34/44/44 40/22/27 41/21/25
f 41/21/25 42/43/39 34/44/44
f 34/44/44 42/43/39 27/45/43
f 7/10/10 8/58/42 44/11/11
f 44/11/11 8/58/42 43/63/49
f 12/54/17 15/18/22 49/55/16
f 49/55/16 15/18/22 48/17/23
f 10/46/12 45/56/13 13/13/18
f 13/13/18 45/56/13 46/14/19
f 9/32/15 50/31/14 8/58/42
f 8/58/42 50/31/14 43/63/49
f 11/64/50 45/12/13 44/11/11
f 11/59/50 47/15/21 46/14/19
f 48/17/23 47/15/21 11/59/50
f 50/31/14 49/34/16 11/64/50
f 19/26/31 20/25/30 23/28/33
f 1/1/1 23/40/33 2/2/2
f 23/40/33 3/5/5 2/2/2
f 20/25/30 21/27/32 23/28/33
f 11/59/50 46/14/19 45/56/13
f 48/17/23 11/59/50 49/55/16
f 11/64/50 44/11/11 43/63/49
f 50/31/14 11/64/50 43/63/49
