# This file uses centimeters as units for non-parametric coordinates.

v -0.064450 0.034822 0.094557
v 0.001168 0.038358 0.127284
v 0.075056 0.031001 0.109232
v -0.046355 0.054838 -0.002037
v -0.000219 0.059194 -0.002037
v 0.084378 0.048989 0.004674
v -0.038996 0.044469 -0.068190
v -0.000046 0.053753 -0.065905
v 0.092288 0.037097 -0.073744
v -0.047887 0.001016 -0.089326
v -0.000590 0.006944 -0.128777
v 0.095612 -0.001150 -0.093015
v -0.037588 -0.047259 -0.087278
v 0.000681 -0.076226 -0.094176
v 0.084511 -0.063900 -0.093869
v -0.047241 -0.062703 -0.002038
v 0.000247 -0.066976 -0.002037
v 0.092063 -0.064092 0.003448
v -0.063881 -0.071380 0.097172
v 0.002985 -0.071220 0.129899
v 0.078033 -0.075202 0.111846
v -0.076702 -0.009581 0.099875
v -0.002249 -0.015025 0.148055
v 0.086460 -0.013402 0.114550
v 0.103527 -0.003504 0.003448
v -0.059637 -0.002116 -0.002038
v -0.041943 0.048575 -0.051827
v -0.000046 0.056441 -0.051702
v 0.090292 0.039030 -0.054959
v 0.102295 -0.000174 -0.066721
v 0.098757 -0.047130 -0.064047
v -0.000046 -0.056528 -0.059339
v -0.042721 -0.049166 -0.059003
v -0.055155 -0.000156 -0.059917
v -0.039126 0.001739 -0.110372
v 0.004308 -0.038007 -0.124380
v 0.068307 -0.000274 -0.115612
v -0.003621 0.042432 -0.088872
v -0.027433 0.033381 -0.100303
v -0.028592 -0.029653 -0.120164
v 0.070239 0.026357 -0.107063
v 0.065699 -0.043995 -0.122112
v -0.063320 0.055146 0.054099
v -0.001617 0.070267 0.064731
v 0.087135 0.053065 0.059962
v 0.105220 -0.011130 0.059111
v 0.091024 -0.085496 0.060460
v 0.000364 -0.088914 0.063054
v -0.065066 -0.085289 0.052897
v -0.082233 -0.009645 0.043319
vt 0.674369 0.837221
vt 0.675015 0.857083
vt 0.655221 0.855741
vt 0.656498 0.839492
vt 0.673760 0.885279
vt 0.656584 0.885611
vt 0.640619 0.840190
vt 0.640092 0.854974
vt 0.635662 0.854738
vt 0.635274 0.841052
vt 0.637596 0.886739
vt 0.631755 0.886241
vt 0.487312 0.803832
vt 0.493760 0.782593
vt 0.511554 0.781050
vt 0.510043 0.805064
vt 0.555307 0.770301
vt 0.575330 0.789981
vt 0.549162 0.807770
vt 0.543039 0.789100
vt 0.505791 0.824637
vt 0.480880 0.819238
vt 0.561555 0.821548
vt 0.476361 0.852548
vt 0.504285 0.853326
vt 0.505423 0.889034
vt 0.475002 0.885243
vt 0.557961 0.860296
vt 0.549957 0.888920
vt 0.473861 0.908906
vt 0.506962 0.927023
vt 0.500221 0.958499
vt 0.448489 0.923908
vt 0.543126 0.914613
vt 0.616579 0.836443
vt 0.624356 0.844523
vt 0.627753 0.853165
vt 0.610253 0.853059
vt 0.563271 0.939124
vt 0.587368 0.901146
vt 0.592037 0.859229
vt 0.583648 0.809309
vt 0.436593 0.882139
vt 0.442764 0.844765
vt 0.456598 0.805628
vt 0.467448 0.786375
vt 0.479073 0.774030
vt 0.506813 0.757569
vt 0.620587 0.879035
vt 0.698801 0.826221
vt 0.714446 0.858778
vt 0.612229 0.880994
vt 0.696338 0.859072
vt 0.623628 0.830418
vt 0.688131 0.836810
vt 0.700294 0.893930
vt 0.690659 0.883556
vt 0.679403 0.905914
vt 0.634317 0.824649
vt 0.656598 0.818383
vt 0.677371 0.815539
vt 0.620439 0.893634
vt 0.630274 0.898964
vt 0.656843 0.905607
vn -0.778551 0.625626 -0.049502
vn -0.022256 0.985242 0.169712
vn -0.554623 0.811453 -0.184220
vn -0.023303 0.993171 -0.114317
vn 0.751881 0.642332 0.148611
vn 0.474734 0.875472 -0.090431
vn -0.656143 0.734365 -0.173737
vn -0.015829 0.988434 -0.150825
vn -0.555656 0.757127 -0.343519
vn 0.027006 0.956994 -0.288849
vn 0.661449 0.747652 -0.059178
vn 0.698350 0.652631 -0.293906
vn -0.720506 0.213587 -0.659736
vn -0.500224 0.641920 -0.581132
vn -0.096960 0.338183 -0.936072
vn -0.048847 0.851891 -0.521436
vn 0.329326 0.630823 -0.702572
vn -0.625711 -0.278199 -0.728760
vn -0.136772 -0.368565 -0.919485
vn -0.721276 -0.631386 -0.284804
vn -0.209622 -0.925555 -0.315287
vn 0.356479 0.130618 -0.925128
vn 0.841522 0.069953 -0.535675
vn 0.362502 -0.303786 -0.881083
vn 0.579186 -0.794447 -0.182752
vn -0.074915 -0.991792 0.103617
vn -0.665176 -0.724186 -0.181922
vn 0.861520 -0.502203 -0.074670
vn -0.037261 -0.963561 -0.264881
vn -0.033193 -0.999449 0.000846
vn -0.590028 -0.707039 -0.389825
vn -0.636534 -0.761423 -0.122713
vn 0.660395 -0.730409 -0.174304
vn 0.534758 -0.842644 -0.063123
vn 0.010684 -0.621805 0.783099
vn -0.097599 0.029537 0.994787
vn -0.646857 -0.575244 0.500669
vn -0.781463 0.111988 0.613819
vn 0.574621 -0.619124 0.535253
vn 0.628684 -0.001191 0.777660
vn -0.171370 0.597136 0.783621
vn -0.679668 0.577922 0.451727
vn 0.539055 0.540747 0.645765
vn 0.985409 0.015279 0.169517
vn 0.992988 0.117925 -0.008332
vn 0.988068 0.124826 -0.090223
vn -0.991575 0.001660 -0.129523
vn -0.972452 0.060750 -0.225046
vn -0.983363 0.026814 -0.179660
vn -0.935351 0.084694 -0.343432
f 43/1/1 44/2/2 4/4/3
f 4/4/3 44/2/2 5/3/4
f 45/5/5 6/6/6 44/2/2
f 44/2/2 6/6/6 5/3/4
f 27/7/7 28/8/8 7/10/9
f 7/10/9 28/8/8 8/9/10
f 28/8/8 29/11/11 8/9/10
f 8/9/10 29/11/11 9/12/12
f 35/35/13 39/36/14 11/38/15
f 11/38/15 39/36/14 38/37/16
f 9/12/12 41/49/17 8/9/10
f 8/9/10 41/49/17 38/37/16
f 40/14/18 36/15/19 13/13/20
f 13/13/20 36/15/19 14/16/21
f 37/17/22 12/18/23 42/20/24
f 42/20/24 12/18/23 15/19/25
f 14/16/21 32/21/26 13/13/20
f 13/13/20 32/21/26 33/22/27
f 14/16/21 15/19/25 32/21/26
f 32/21/26 15/19/25 31/23/28
f 17/25/29 48/26/30 16/24/31
f 16/24/31 48/26/30 49/27/32
f 18/28/33 47/29/34 17/25/29
f 17/25/29 47/29/34 48/26/30
f 20/31/35 23/32/36 19/30/37
f 19/30/37 23/32/36 22/33/38
f 21/34/39 24/39/40 20/31/35
f 20/31/35 24/39/40 23/32/36
f 23/51/36 2/53/41 22/50/38
f 22/50/38 2/53/41 1/55/42
f 24/56/40 3/57/43 23/51/36
f 23/51/36 3/57/43 2/53/41
f 47/29/34 18/28/33 46/40/44
f 46/40/44 18/28/33 25/41/45
f 46/58/44 25/64/45 45/5/5
f 45/5/5 25/64/45 6/6/6
f 30/42/46 31/23/28 12/18/23
f 12/18/23 31/23/28 15/19/25
f 29/11/11 30/63/46 9/12/12
f 9/12/12 30/63/46 12/62/23
f 49/27/32 50/43/47 16/24/31
f 16/24/31 50/43/47 26/44/48
f 50/61/47 43/1/1 26/60/48
f 26/60/48 43/1/1 4/4/3
f 33/22/27 34/45/49 13/13/20
f 13/13/20 34/45/49 10/46/50
f 27/7/7 7/10/9 34/59/49
f 34/59/49 7/10/9 10/54/50
f 4/4/3 5/3/4 27/7/7
f 27/7/7 5/3/4 28/8/8
f 5/3/4 6/6/6 28/8/8
f 28/8/8 6/6/6 29/11/11
f 6/6/6 25/64/45 29/11/11
f 29/11/11 25/64/45 30/63/46
f 18/28/33 31/23/28 25/41/45
f 25/41/45 31/23/28 30/42/46
f 31/23/28 18/28/33 32/21/26
f 32/21/26 18/28/33 17/25/29
f 32/21/26 17/25/29 33/22/27
f 33/22/27 17/25/29 16/24/31
f 16/24/31 26/44/48 33/22/27
f 33/22/27 26/44/48 34/45/49
f 4/4/3 27/7/7 26/60/48
f 26/60/48 27/7/7 34/59/49
f 35/47/13 11/48/15 40/14/18
f 40/14/18 11/48/15 36/15/19
f 11/48/15 37/17/22 36/15/19
f 36/15/19 37/17/22 42/20/24
f 38/37/16 41/49/17 11/38/15
f 11/38/15 41/49/17 37/52/22
f 7/10/9 39/36/14 10/54/50
f 10/54/50 39/36/14 35/35/13
f 8/9/10 38/37/16 7/10/9
f 7/10/9 38/37/16 39/36/14
f 35/47/13 40/14/18 10/46/50
f 10/46/50 40/14/18 13/13/20
f 9/12/12 12/62/23 41/49/17
f 41/49/17 12/62/23 37/52/22
f 15/19/25 14/16/21 42/20/24
f 42/20/24 14/16/21 36/15/19
f 2/53/41 44/2/2 1/55/42
f 1/55/42 44/2/2 43/1/1
f 2/53/41 3/57/43 44/2/2
f 44/2/2 3/57/43 45/5/5
f 24/56/40 46/58/44 3/57/43
f 3/57/43 46/58/44 45/5/5
f 24/39/40 21/34/39 46/40/44
f 46/40/44 21/34/39 47/29/34
f 47/29/34 21/34/39 48/26/30
f 48/26/30 21/34/39 20/31/35
f 49/27/32 48/26/30 19/30/37
f 19/30/37 48/26/30 20/31/35
f 22/33/38 50/43/47 19/30/37
f 19/30/37 50/43/47 49/27/32
f 22/50/38 1/55/42 50/61/47
f 50/61/47 1/55/42 43/1/1
