# This file uses centimeters as units for non-parametric coordinates.

v -0.100698 -0.016265 0.055371
v -0.000000 -0.020121 0.072134
v 0.105812 -0.013696 0.054799
v -0.102636 0.032717 0.060431
v -0.000000 0.023127 0.104963
v 0.112389 0.029169 0.055461
v -0.120871 0.108662 0.077501
v -0.000276 0.116236 0.123861
v 0.134200 0.109103 0.079561
v -0.166299 0.110581 -0.022723
v -0.000139 0.174375 0.017863
v 0.167656 0.111144 -0.020091
v -0.105194 0.123746 -0.105785
v -0.000276 0.114869 -0.113611
v 0.111768 0.123746 -0.103370
v -0.088408 0.008462 -0.109869
v -0.000000 0.008765 -0.104886
v 0.099841 0.008462 -0.107940
v -0.106733 -0.037642 -0.091080
v -0.000000 -0.032198 -0.082679
v 0.111017 -0.037642 -0.089472
v -0.134750 -0.039963 -0.018807
v -0.000000 -0.052658 -0.017147
v 0.135882 -0.039509 -0.016861
v 0.151955 0.012714 -0.008781
v -0.141540 0.012170 -0.011115
v 0.026381 -0.047526 -0.089919
v -0.027625 -0.047042 -0.090327
v 0.014304 0.115913 -0.121099
v 0.012093 0.008734 -0.116641
v -0.014625 0.115694 -0.121819
v -0.013217 0.008730 -0.116752
v -0.000139 0.060158 0.119261
v 0.123030 0.057734 0.069429
v 0.157146 0.058873 -0.015555
v 0.103505 0.071663 -0.103381
v 0.013068 0.068133 -0.117339
v -0.000139 0.066451 -0.108925
v -0.013510 0.068251 -0.117764
v -0.095727 0.069615 -0.106362
v -0.152171 0.060081 -0.018213
v -0.111645 0.059410 0.071556
v -0.000425 0.090124 0.138793
v 0.147400 0.084483 0.085780
v 0.185549 0.087429 -0.020967
v 0.123383 0.099122 -0.118348
v 0.015544 0.091502 -0.136979
v -0.000425 0.089156 -0.128088
v -0.016325 0.092590 -0.137252
v -0.115632 0.097327 -0.121677
v -0.183157 0.084101 -0.023704
v -0.133674 0.083180 0.085472
vt 0.840986 0.242842
vt 0.843450 0.316178
vt 0.812555 0.317699
vt 0.807114 0.241661
vt 0.839429 0.391222
vt 0.810052 0.395747
vt 0.775528 0.236403
vt 0.769980 0.317534
vt 0.755607 0.317050
vt 0.761437 0.243974
vt 0.775320 0.403081
vt 0.761660 0.394812
vt 0.887741 0.165154
vt 0.803306 0.121040
vt 0.829589 0.123433
vt 0.795686 0.065153
vt 0.805214 0.031301
vt 0.817935 0.024786
vt 0.824272 0.053085
vt 0.794334 0.108521
vt 0.823283 0.109303
vt 0.878945 0.104111
vt 0.879682 0.118273
vt 0.879475 0.052434
vt 0.870805 0.018323
vt 0.887315 0.029109
vt 0.887183 0.053619
vt 0.858006 0.406913
vt 0.953966 0.024694
vt 0.866756 0.312119
vt 0.969430 0.030910
vt 0.822985 0.418446
vt 0.777250 0.418464
vt 0.764251 0.408184
vt 0.973394 0.064690
vt 0.942877 0.052959
vt 0.941357 0.123350
vt 0.971014 0.120673
vt 0.887288 0.103363
vt 0.895521 0.104695
vt 0.763969 0.216448
vt 0.778489 0.206623
vt 0.717923 0.313317
vt 0.894659 0.118121
vt 0.887261 0.118115
vt 0.904536 0.018614
vt 0.887657 0.022991
vt 0.946946 0.108193
vt 0.979473 0.106697
vt 0.823027 0.213060
vt 0.895474 0.052429
vt 0.858176 0.217577
vt 0.786346 0.394257
vt 0.782943 0.317315
vt 0.788435 0.410150
vt 0.829234 0.099632
vt 0.802106 0.097868
vt 0.879777 0.096667
vt 0.887242 0.096238
vt 0.894724 0.096715
vt 0.940811 0.098286
vt 0.784807 0.243682
vt 0.970347 0.098462
vt 0.787244 0.216975
vn -0.518143 -0.557210 0.648880
vn -0.079311 -0.699114 0.710598
vn -0.593994 -0.323909 0.736379
vn 0.092664 -0.437713 0.894327
vn 0.470932 -0.581325 0.663539
vn 0.703221 -0.260014 0.661720
vn -0.762447 -0.153750 0.628519
vn -0.017913 -0.089453 0.995830
vn -0.453235 0.681250 0.574871
vn -0.020726 0.716234 0.697552
vn 0.790727 -0.130976 0.597994
vn 0.443088 0.691893 0.570050
vn 0.504960 -0.857103 0.101932
vn -0.000806 -0.993990 0.109471
vn 0.985265 -0.161526 0.056231
vn 0.990798 -0.071131 -0.115153
vn 0.676102 0.736293 -0.027563
vn -0.978552 -0.183386 -0.093838
vn -0.696957 0.717018 -0.011650
vn -0.003149 0.998622 -0.052383
vn 0.278370 0.781886 -0.557821
vn 0.638795 -0.506275 -0.579333
vn 0.489857 -0.142237 -0.860121
vn 0.655491 -0.049199 -0.753599
vn -0.058846 -0.051484 -0.996939
vn -0.232268 0.698927 -0.676427
vn -0.132458 -0.801863 -0.582642
vn -0.015061 -0.702170 -0.711850
vn -0.395812 -0.238526 -0.886813
vn -0.020056 -0.285171 -0.958267
vn -0.550972 -0.830356 0.083306
vn -0.992532 -0.103627 -0.064357
vn -0.656688 -0.428163 -0.620836
vn -0.398336 -0.129095 -0.908109
vn -0.273413 0.774282 -0.570730
vn 0.075491 -0.044506 -0.996153
vn 0.253759 0.697304 -0.670353
vn 0.011465 -0.094939 -0.995417
vn 0.011997 0.745613 -0.666272
vn 0.127888 -0.800792 -0.585129
vn -0.631066 -0.089052 -0.770601
vn 0.384982 -0.241971 -0.890640
vn 0.483281 -0.571278 0.663385
vn -0.090217 -0.461238 0.882678
vn 0.864712 -0.495757 -0.080615
vn 0.433265 -0.416593 -0.799207
vn -0.156954 -0.330950 -0.930504
vn -0.000364 -0.276149 -0.961115
vn 0.166892 -0.327544 -0.929980
vn -0.505175 -0.407002 -0.761018
vn -0.793127 -0.609050 -0.002828
vn -0.503873 -0.592445 0.628587
f 1/1/1 2/2/2 4/4/3
f 4/4/3 2/2/2 5/3/4
f 2/2/2 3/5/5 5/3/4
f 5/3/4 3/5/5 6/6/6
f 52/7/7 43/8/8 7/10/9
f 7/10/9 43/8/8 8/9/10
f 44/11/11 9/12/12 43/8/8
f 43/8/8 9/12/12 8/9/10
f 24/28/13 3/5/5 23/30/14
f 23/30/14 3/5/5 2/2/2
f 24/28/13 25/32/15 3/5/5
f 3/5/5 25/32/15 6/6/6
f 45/33/16 12/34/17 44/11/11
f 44/11/11 12/34/17 9/12/12
f 51/42/18 52/7/7 10/41/19
f 10/41/19 52/7/7 7/10/9
f 7/10/9 11/43/20 10/41/19
f 11/43/20 9/12/12 12/34/17
f 11/13/20 12/14/17 15/15/21
f 24/17/13 21/18/22 25/16/15
f 25/16/15 21/18/22 18/19/23
f 45/20/16 46/21/24 12/14/17
f 12/14/17 46/21/24 15/15/21
f 46/21/24 47/22/25 15/15/21
f 15/15/21 47/22/25 29/23/26
f 27/25/27 20/26/28 30/24/29
f 30/24/29 20/26/28 17/27/30
f 30/24/29 18/19/23 27/25/27
f 27/25/27 18/19/23 21/18/22
f 22/52/31 1/1/1 26/50/32
f 26/50/32 1/1/1 4/4/3
f 22/52/31 23/30/14 1/1/1
f 1/1/1 23/30/14 2/2/2
f 22/31/31 26/35/32 19/29/33
f 19/29/33 26/35/32 16/36/34
f 13/37/35 10/38/19 11/13/20
f 49/40/36 31/44/37 48/39/38
f 48/39/38 31/44/37 14/45/39
f 19/29/33 28/46/40 22/31/31
f 22/31/31 28/46/40 23/47/14
f 13/37/35 50/48/41 10/38/19
f 10/38/19 50/48/41 51/49/18
f 23/47/14 28/46/40 20/26/28
f 11/13/20 29/23/26 14/45/39
f 31/44/37 11/13/20 14/45/39
f 28/46/40 32/51/42 20/26/28
f 20/26/28 32/51/42 17/27/30
f 31/44/37 49/40/36 13/37/35
f 13/37/35 49/40/36 50/48/41
f 14/45/39 29/23/26 48/39/38
f 48/39/38 29/23/26 47/22/25
f 20/26/28 27/25/27 23/47/14
f 23/47/14 27/25/27 24/17/13
f 24/17/13 27/25/27 21/18/22
f 32/51/42 28/46/40 16/36/34
f 16/36/34 28/46/40 19/29/33
f 11/13/20 15/15/21 29/23/26
f 13/37/35 11/13/20 31/44/37
f 7/10/9 8/9/10 11/43/20
f 11/43/20 8/9/10 9/12/12
f 6/6/6 34/53/43 5/3/4
f 5/3/4 34/53/43 33/54/44
f 25/32/15 35/55/45 6/6/6
f 6/6/6 35/55/45 34/53/43
f 25/16/15 18/19/23 35/57/45
f 35/57/45 18/19/23 36/56/46
f 30/24/29 37/58/47 18/19/23
f 18/19/23 37/58/47 36/56/46
f 37/58/47 30/24/29 38/59/48
f 38/59/48 30/24/29 17/27/30
f 39/60/49 38/59/48 32/51/42
f 32/51/42 38/59/48 17/27/30
f 40/61/50 39/60/49 16/36/34
f 16/36/34 39/60/49 32/51/42
f 41/63/51 40/61/50 26/35/32
f 26/35/32 40/61/50 16/36/34
f 42/62/52 41/64/51 4/4/3
f 4/4/3 41/64/51 26/50/32
f 5/3/4 33/54/44 4/4/3
f 4/4/3 33/54/44 42/62/52
f 33/54/44 34/53/43 43/8/8
f 43/8/8 34/53/43 44/11/11
f 34/53/43 35/55/45 44/11/11
f 44/11/11 35/55/45 45/33/16
f 36/56/46 46/21/24 35/57/45
f 35/57/45 46/21/24 45/20/16
f 37/58/47 47/22/25 36/56/46
f 36/56/46 47/22/25 46/21/24
f 47/22/25 37/58/47 48/39/38
f 48/39/38 37/58/47 38/59/48
f 38/59/48 39/60/49 48/39/38
f 48/39/38 39/60/49 49/40/36
f 50/48/41 49/40/36 40/61/50
f 40/61/50 49/40/36 39/60/49
f 51/49/18 50/48/41 41/63/51
f 41/63/51 50/48/41 40/61/50
f 51/42/18 41/64/51 52/7/7
f 52/7/7 41/64/51 42/62/52
f 33/54/44 43/8/8 42/62/52
f 42/62/52 43/8/8 52/7/7
