# This file uses centimeters as units for non-parametric coordinates.

v 0.042380 0.038588 0.146537
v 0.079320 0.046026 0.113404
v 0.094918 0.044538 0.076713
v -0.033720 0.047254 -0.000933
v 0.006110 0.083844 0.016285
v 0.054731 0.056799 0.016771
v -0.037272 -0.040994 -0.010719
v -0.011465 -0.046944 -0.028636
v 0.028908 -0.047773 -0.008893
v 0.034399 -0.061767 0.124758
v 0.069726 -0.060958 0.125205
v 0.072920 -0.053378 0.081451
v 0.022336 -0.018137 0.143831
v 0.085132 -0.022867 0.130567
v 0.089981 -0.012880 0.073486
v -0.044310 -0.010004 -0.006044
v -0.025093 -0.017325 0.075364
v -0.004426 0.047153 0.072108
v 0.013134 0.061140 0.063263
v 0.061722 0.032243 0.061217
v 0.038690 -0.025877 0.062522
v 0.033601 -0.066763 0.025681
v 0.001964 -0.070048 0.029416
v -0.017775 -0.062995 0.046728
v 0.068924 0.044830 0.076662
v 0.083841 0.028008 0.070309
v 0.093853 0.052059 0.041293
v 0.079358 0.067516 0.060985
v 0.033646 -0.005679 0.002044
v -0.015923 -0.002563 -0.039443
v 0.097600 0.024777 0.138031
v 0.046597 0.032396 0.008210
v -0.012360 0.023476 -0.031605
v 0.056946 0.060543 0.077576
v 0.047683 0.092062 0.039035
v 0.075162 0.064936 0.035843
v -0.012559 -0.017441 0.109168
v 0.062695 0.046888 0.080472
v -0.002596 -0.071357 0.093154
v 0.017623 0.046710 0.107862
v 0.037574 0.057043 0.095995
v 0.043673 -0.071322 0.074975
v 0.022648 -0.072828 0.090631
v 0.012244 -0.063201 0.112579
vt 0.103312 0.776398
vt 0.098588 0.755691
vt 0.125186 0.757502
vt 0.130377 0.777432
vt 0.155611 0.736510
vt 0.105260 0.728843
vt 0.158631 0.714073
vt 0.566936 0.690690
vt 0.139926 0.754390
vt 0.201575 0.749594
vt 0.169321 0.771082
vt 0.092133 0.780921
vt 0.580079 0.715181
vt 0.214864 0.686495
vt 0.215483 0.663665
vt 0.563164 0.727051
vt 0.162197 0.679676
vt 0.165894 0.641322
vt 0.199901 0.629411
vt 0.563757 0.706788
vt 0.587444 0.618796
vt 0.019807 0.694476
vt 0.044119 0.724682
vt 0.596767 0.667992
vt 0.151193 0.601864
vt 0.556146 0.648834
vt 0.140922 0.629980
vt 0.634040 0.609771
vt 0.651021 0.573355
vt 0.052983 0.617239
vt 0.034086 0.650030
vt 0.083149 0.639383
vt 0.074716 0.673054
vt 0.065992 0.714032
vt 0.113564 0.667739
vt 0.679190 0.573094
vt 0.678925 0.610281
vt 0.703665 0.612123
vt 0.070589 0.754274
vt 0.084666 0.731244
vt 0.104123 0.621697
vt 0.099775 0.598560
vt 0.721317 0.594693
vt 0.544262 0.688812
vt 0.620177 0.747812
vt 0.614588 0.791287
vt 0.588565 0.762994
vt 0.615977 0.672494
vt 0.737491 0.657520
vt 0.715363 0.665313
vt 0.662680 0.741467
vt 0.699027 0.747403
vt 0.700605 0.778001
vt 0.663734 0.796538
vt 0.667446 0.704443
vt 0.611789 0.709728
vt 0.672113 0.677070
vt 0.591004 0.713127
vt 0.726280 0.722970
vt 0.702856 0.726198
vt 0.710875 0.707637
vn 0.040355 -0.173849 0.983945
vn 0.588192 -0.473998 0.655253
vn 0.668701 0.598255 0.441509
vn 0.762265 -0.193627 -0.617625
vn 0.620520 0.132117 -0.772981
vn 0.722197 -0.654405 -0.224023
vn 0.702918 0.045765 -0.709797
vn -0.100032 0.233651 0.967161
vn 0.667468 0.256926 -0.698910
vn -0.188895 0.885186 -0.425164
vn 0.243738 0.969834 0.003811
vn -0.291406 0.811277 0.506865
vn -0.872942 0.473555 -0.117124
vn -0.028350 0.363066 -0.931332
vn -0.971728 0.006668 -0.236008
vn -0.229164 -0.005883 -0.973370
vn 0.835728 -0.082761 -0.542871
vn 0.072998 -0.538311 -0.839579
vn 0.538208 -0.548667 -0.639764
vn -0.741288 -0.548370 -0.387017
vn -0.077804 0.575768 0.813902
vn 0.829773 0.301706 0.469522
vn 0.285985 0.938794 0.192040
vn -0.728759 0.564428 0.387727
vn -0.124263 -0.971202 -0.203286
vn -0.807504 -0.581420 0.099440
vn 0.815562 -0.506778 -0.279346
vn -0.423370 -0.130132 0.896562
vn -0.081648 -0.643361 0.761197
vn 0.605037 -0.334073 0.722721
vn 0.430957 -0.812309 0.392978
vn 0.687480 -0.649072 -0.325693
vn 0.729666 -0.175268 -0.660960
vn 0.623195 0.703785 -0.341051
vn 0.815413 -0.183602 -0.548992
vn -0.588227 0.644704 0.488206
vn -0.824438 0.019067 0.565632
vn -0.955037 -0.014359 0.296139
vn 0.058663 0.998273 0.003085
vn 0.333668 0.686690 -0.645850
vn 0.511975 -0.827052 -0.232093
vn 0.085603 -0.977800 0.191258
vn -0.421031 -0.650237 0.632396
vn -0.589503 -0.745089 0.311975
f 25/1/1 26/2/2 28/4/3
f 28/4/3 26/2/2 27/3/4
f 6/5/5 20/6/6 32/7/7
f 34/8/8 20/13/6 25/20/1
f 25/20/1 20/13/6 26/16/2
f 36/9/9 27/3/4 20/6/6
f 20/6/6 27/3/4 26/2/2
f 5/10/10 35/11/11 6/5/5
f 6/5/5 35/11/11 36/9/9
f 5/21/10 19/24/12 35/26/11
f 35/26/11 19/24/12 34/8/8
f 4/28/13 33/29/14 16/37/15
f 16/37/15 33/29/14 30/36/16
f 6/5/5 32/7/7 5/10/10
f 5/10/10 32/7/7 33/14/14
f 30/15/16 29/17/17 8/19/18
f 8/19/18 29/17/17 9/18/19
f 16/37/15 30/36/16 7/38/20
f 7/38/20 30/36/16 8/43/18
f 32/7/7 29/17/17 33/14/14
f 33/14/14 29/17/17 30/15/16
f 35/26/11 34/8/8 28/44/3
f 28/44/3 34/8/8 25/20/1
f 35/11/11 28/4/3 36/9/9
f 36/9/9 28/4/3 27/3/4
f 20/6/6 6/5/5 36/9/9
f 1/45/21 31/46/22 2/47/23
f 33/29/14 4/28/13 5/21/10
f 19/24/12 20/13/6 34/8/8
f 4/28/13 18/48/24 5/21/10
f 5/21/10 18/48/24 19/24/12
f 8/43/18 23/49/25 7/38/20
f 7/38/20 23/49/25 24/50/26
f 8/19/18 9/18/19 23/25/25
f 23/25/25 9/18/19 22/27/27
f 13/51/28 10/52/29 14/54/30
f 14/54/30 10/52/29 11/53/31
f 11/30/31 12/32/32 14/31/30
f 14/31/30 12/32/32 15/33/33
f 31/46/22 1/45/21 14/54/30
f 14/54/30 1/45/21 13/51/28
f 3/34/34 31/22/22 15/33/33
f 15/33/33 31/22/22 14/31/30
f 21/35/35 22/27/27 29/17/17
f 29/17/17 22/27/27 9/18/19
f 40/56/36 18/48/24 37/55/37
f 37/55/37 18/48/24 17/57/38
f 18/48/24 40/56/36 19/24/12
f 19/24/12 40/56/36 41/58/39
f 38/40/40 20/6/6 41/39/39
f 41/39/39 20/6/6 19/12/12
f 21/35/35 20/6/6 38/40/40
f 21/35/35 42/41/41 22/27/27
f 43/42/42 23/25/25 42/41/41
f 42/41/41 23/25/25 22/27/27
f 44/60/43 39/61/44 43/59/42
f 43/59/42 39/61/44 23/49/25
f 37/55/37 17/57/38 39/61/44
f 39/61/44 17/57/38 24/50/26
f 44/60/43 37/55/37 39/61/44
f 37/55/37 13/51/28 40/56/36
f 40/56/36 13/51/28 1/45/21
f 2/47/23 41/58/39 1/45/21
f 1/45/21 41/58/39 40/56/36
f 41/39/39 2/23/23 38/40/40
f 38/40/40 2/23/23 3/34/34
f 31/22/22 3/34/34 2/23/23
f 32/7/7 20/6/6 29/17/17
f 29/17/17 20/6/6 21/35/35
f 24/50/26 23/49/25 39/61/44
f 21/35/35 38/40/40 15/33/33
f 15/33/33 38/40/40 3/34/34
f 42/41/41 21/35/35 12/32/32
f 12/32/32 21/35/35 15/33/33
f 42/41/41 12/32/32 43/42/42
f 43/42/42 12/32/32 11/30/31
f 44/60/43 43/59/42 10/52/29
f 10/52/29 43/59/42 11/53/31
f 37/55/37 44/60/43 13/51/28
f 13/51/28 44/60/43 10/52/29
f 7/38/20 24/50/26 16/37/15
f 16/37/15 24/50/26 17/57/38
f 16/37/15 17/57/38 4/28/13
f 4/28/13 17/57/38 18/48/24
