# This file uses centimeters as units for non-parametric coordinates.

v -10.738258 4.622928 -1.097694
v -10.738258 4.787930 -1.097694
v -10.726999 4.787930 -5.474733
v -10.726999 4.622928 -5.474733
v -8.290112 4.780100 -5.474733
v -8.290112 4.622928 -5.474733
v -8.337065 4.589553 -1.132948
v -8.337065 4.566811 -1.132948
v -10.314591 5.212890 -0.915575
v -10.314591 5.377892 -0.915575
v -10.314591 5.212890 1.121974
v -10.314591 5.377892 1.121974
v -6.705964 2.946671 1.142408
v -6.705964 3.111673 1.142408
v -5.461020 2.946671 1.142408
v -5.461020 3.011280 1.142408
v -5.315790 2.946671 -3.507049
v -5.315790 3.011280 -3.507049
v -3.599598 2.946671 -3.562634
v -3.599598 3.040462 -3.562634
v -3.491863 2.946671 1.146442
v -3.491863 3.040462 1.146442
v -9.347621 4.592117 -1.041870
v -9.347621 4.575544 -1.041870
v -9.347621 4.663565 -0.980131
v -9.347621 4.611465 -0.980131
v -6.837097 3.095337 -1.115354
v -6.837097 2.972691 -1.115354
v -6.735047 3.088031 -6.001282
v -6.735047 2.959916 -6.001282
v -2.397476 3.047416 -6.001282
v -2.397476 2.959916 -6.001282
v -2.316511 3.057316 -1.044613
v -2.316511 2.959916 -1.044613
v -1.481479 3.041615 -0.932524
v -1.481479 2.959916 -0.932524
v -1.483063 2.946671 1.146442
v -1.483063 3.071609 1.146442
v 7.334562 4.623005 -1.053147
v 7.406419 4.627118 -5.618634
v 7.406419 4.792120 -5.618634
v 7.334562 4.788007 -1.053147
v 5.015326 4.627567 -5.569107
v 5.015326 4.784740 -5.569107
v 5.062401 4.564177 -0.977033
v 5.062401 4.586919 -0.977033
v 7.264337 5.343980 -0.985095
v 7.264337 5.178978 -0.985095
v 7.045082 5.392710 1.196800
v 7.045082 5.227708 1.196800
v 3.549010 3.111673 1.142408
v 3.549010 2.946671 1.142408
v 2.306832 3.011280 1.112505
v 2.306832 2.946671 1.112505
v 2.218264 3.011280 -3.570741
v 2.218264 2.946671 -3.570741
v 0.513776 3.040462 -3.590005
v 0.513776 2.946671 -3.590005
v 0.379127 3.040462 1.146442
v 0.379127 2.946671 1.146442
v 6.068292 4.572969 -1.025527
v 6.068292 4.594159 -1.025527
v 6.055761 4.483227 -0.980131
v 6.055761 4.535326 -0.980131
v 3.567019 3.022432 -1.067089
v 3.567019 3.145078 -1.067089
v 3.451937 2.958194 -5.953790
v 3.451937 3.086309 -5.953790
v -0.631277 2.948645 -5.956865
v -0.631277 3.036146 -5.956865
v -0.768632 2.966053 -1.025535
v -0.768632 3.063454 -1.025535
v -8.328529 4.780100 -1.963041
v -8.328596 4.622928 -1.963078
v 5.051816 4.779807 -1.962512
v 5.051861 4.622628 -1.962539
v -6.973169 3.110445 -0.973838
v -6.982359 3.232223 -0.973862
v -6.735047 3.082973 -1.351633
v -6.735047 2.959916 -1.381216
v -5.461020 3.121250 -3.188082
v -5.461020 2.946671 -3.192156
v -4.989678 2.946671 -3.685208
v -5.030154 3.017665 -3.685208
v -3.826943 3.035497 -3.685208
v -3.843704 2.946671 -3.685208
v -3.491863 2.946671 -3.283653
v -3.491863 3.088113 -3.303615
v -2.397476 2.959916 -1.231485
v -2.397476 3.119062 -1.221801
v -2.153879 3.053141 -0.932524
v -2.146683 2.959916 -0.932524
v -0.973186 3.055583 -0.935103
v -0.982108 2.963772 -0.935058
v -0.683856 3.124080 -1.199700
v -0.683832 2.965133 -1.201894
v 0.365808 2.946671 -3.331089
v 0.365788 3.088113 -3.337788
v 0.789076 2.946671 -3.685208
v 0.749455 3.034670 -3.685208
v 2.037917 3.015271 -3.685208
v 2.024947 2.946671 -3.685208
v 2.303278 3.121250 -3.368073
v 2.303290 2.946671 -3.352068
v 3.513465 3.116822 -1.272591
v 3.513493 2.993878 -1.270426
v 3.729916 3.248125 -0.986371
v 3.737784 3.136396 -0.986350
vt 0.625000 0.000000
vt 0.625000 0.250000
vt 0.875000 0.000000
vt 0.875000 0.250000
vt 0.000000 0.000000
vt 1.000000 0.000000
vt 1.000000 1.000000
vt 0.000000 1.000000
vt 0.000000 0.000000
vt 1.000000 0.000000
vt 1.000000 1.000000
vt 0.000000 1.000000
vt 0.000000 0.000000
vt 1.000000 0.000000
vt 1.000000 1.000000
vt 0.000000 1.000000
vt 0.000000 0.000000
vt 1.000000 0.000000
vt 1.000000 1.000000
vt 0.000000 1.000000
vt 0.000000 0.000000
vt 1.000000 0.000000
vt 1.000000 1.000000
vt 0.000000 1.000000
vt 0.000000 0.000000
vt 1.000000 0.000000
vt 1.000000 1.000000
vt 0.000000 1.000000
vt 0.000000 0.000000
vt 1.000000 0.000000
vt 1.000000 1.000000
vt 0.000000 1.000000
vt 0.000000 0.000000
vt 1.000000 0.000000
vt 1.000000 1.000000
vt 0.000000 1.000000
vt 0.000000 0.000000
vt 1.000000 0.000000
vt 1.000000 1.000000
vt 0.000000 1.000000
vt 0.000000 0.000000
vt 1.000000 0.000000
vt 1.000000 1.000000
vt 0.000000 1.000000
vt 0.000000 0.000000
vt 1.000000 0.000000
vt 1.000000 1.000000
vt 0.000000 1.000000
vt 0.000000 0.000000
vt 1.000000 0.000000
vt 1.000000 1.000000
vt 0.000000 1.000000
vt 0.000000 0.000000
vt 1.000000 0.000000
vt 1.000000 1.000000
vt 0.000000 1.000000
vt 0.000000 0.000000
vt 1.000000 0.000000
vt 1.000000 1.000000
vt 0.000000 1.000000
vt 0.000000 0.000000
vt 1.000000 0.000000
vt 1.000000 1.000000
vt 0.000000 1.000000
vt 0.000000 0.000000
vt 1.000000 0.000000
vt 1.000000 1.000000
vt 0.000000 1.000000
vt 0.000000 0.000000
vt 1.000000 0.000000
vt 1.000000 1.000000
vt 0.000000 1.000000
vt 0.625000 0.000000
vt 0.875000 0.000000
vt 0.875000 0.250000
vt 0.625000 0.250000
vt 0.000000 0.000000
vt 1.000000 0.000000
vt 1.000000 1.000000
vt 0.000000 1.000000
vt 0.000000 0.000000
vt 1.000000 0.000000
vt 1.000000 1.000000
vt 0.000000 1.000000
vt 0.000000 0.000000
vt 1.000000 0.000000
vt 1.000000 1.000000
vt 0.000000 1.000000
vt 0.000000 0.000000
vt 1.000000 0.000000
vt 1.000000 1.000000
vt 0.000000 1.000000
vt 0.000000 0.000000
vt 1.000000 0.000000
vt 1.000000 1.000000
vt 0.000000 1.000000
vt 0.000000 0.000000
vt 1.000000 0.000000
vt 1.000000 1.000000
vt 0.000000 1.000000
vt 0.000000 0.000000
vt 1.000000 0.000000
vt 1.000000 1.000000
vt 0.000000 1.000000
vt 0.000000 0.000000
vt 1.000000 0.000000
vt 1.000000 1.000000
vt 0.000000 1.000000
vt 0.000000 0.000000
vt 1.000000 0.000000
vt 1.000000 1.000000
vt 0.000000 1.000000
vt 0.000000 0.000000
vt 1.000000 0.000000
vt 1.000000 1.000000
vt 0.000000 1.000000
vt 0.000000 0.000000
vt 1.000000 0.000000
vt 1.000000 1.000000
vt 0.000000 1.000000
vt 0.000000 0.000000
vt 1.000000 0.000000
vt 1.000000 1.000000
vt 0.000000 1.000000
vt 0.000000 0.000000
vt 1.000000 0.000000
vt 1.000000 1.000000
vt 0.000000 1.000000
vt 0.000000 0.000000
vt 1.000000 0.000000
vt 1.000000 1.000000
vt 0.000000 1.000000
vt 0.000000 0.000000
vt 1.000000 0.000000
vt 1.000000 1.000000
vt 0.000000 1.000000
vt 0.000000 0.000000
vt 1.000000 0.000000
vt 1.000000 1.000000
vt 0.000000 1.000000
vt 0.000000 0.000000
vt 1.000000 0.000000
vt 1.000000 1.000000
vt 0.000000 1.000000
vt 0.000000 0.818217
vt 1.000000 0.819646
vt 0.000000 0.775144
vt 1.000000 0.776101
vt 0.000051 0.905337
vt 1.000000 0.908855
vt 0.000001 0.075263
vt 1.000000 0.081146
vt 1.000000 0.897024
vt 0.000000 0.897868
vt 1.000000 0.218808
vt 0.000000 0.239363
vt 1.000000 0.829835
vt 0.000000 0.821324
vt 1.000000 0.078978
vt 0.000000 0.083109
vt 0.000007 0.942915
vt 1.000000 0.941019
vt 0.000000 0.265936
vt 1.000000 0.273792
vt 0.000000 0.360408
vt 1.000000 0.371636
vt 0.000000 0.947584
vt 0.999992 0.947155
vt 1.000000 0.071905
vt -0.000000 0.073292
vt 1.000000 0.801524
vt 0.000000 0.781083
vt 0.999999 0.136776
vt 0.000000 0.143468
vt 1.000000 0.933899
vt 0.000000 0.930563
vt 0.999999 0.057075
vt -0.000000 0.057511
vt 0.000003 0.916213
vt 0.999999 0.913114
vn 0.999997 0.000000 0.002572
vn 0.999997 0.000000 0.002572
vn 0.999997 0.000000 0.002572
vn 0.999997 0.000000 0.002572
vn 0.000000 0.000000 1.000000
vn 0.000000 0.000000 1.000000
vn 0.000000 0.000000 1.000000
vn 0.000000 0.000000 1.000000
vn -0.999948 0.000424 -0.010184
vn -0.999948 0.000212 -0.010192
vn -0.999948 0.000212 -0.010192
vn -0.999948 0.000000 -0.010201
vn 0.394923 0.000000 -0.918714
vn 0.394922 0.000000 -0.918715
vn 0.394922 0.000000 -0.918715
vn 0.394922 0.000000 -0.918715
vn 1.000000 0.000000 0.000000
vn 1.000000 0.000000 0.000000
vn 1.000000 0.000000 0.000000
vn 1.000000 0.000000 0.000000
vn 0.005663 0.000000 -0.999984
vn 0.005663 0.000000 -0.999984
vn 0.005663 0.000000 -0.999984
vn 0.005663 0.000000 -0.999984
vn -0.089765 0.000000 -0.995963
vn -0.089764 0.000000 -0.995963
vn -0.089764 0.000000 -0.995963
vn -0.089763 0.000000 -0.995963
vn -0.999876 0.000000 -0.015737
vn -0.999876 0.000000 -0.015737
vn -0.999876 0.000000 -0.015737
vn -0.999876 0.000000 -0.015737
vn 0.020709 0.000000 0.999786
vn 0.020709 0.000000 0.999786
vn 0.020709 0.000000 0.999786
vn 0.020709 0.000000 0.999786
vn 0.999949 0.000000 -0.010117
vn 0.999949 0.000141 -0.010123
vn 0.999949 0.000141 -0.010123
vn 0.999949 0.000283 -0.010129
vn -0.695903 0.000000 -0.718136
vn -0.695906 0.000000 -0.718132
vn -0.695906 0.000000 -0.718132
vn -0.695910 0.000000 -0.718129
vn -0.994989 0.000000 -0.099985
vn -0.994989 0.000000 -0.099985
vn -0.994989 0.000000 -0.099985
vn -0.994989 0.000000 -0.099985
vn 0.015556 0.000000 -0.999879
vn 0.015556 0.000000 -0.999879
vn 0.015556 0.000000 -0.999879
vn 0.015557 0.000000 -0.999879
vn -0.048153 0.000000 -0.998840
vn -0.048155 0.000000 -0.998840
vn -0.048155 0.000000 -0.998840
vn -0.048156 0.000000 -0.998840
vn -0.999940 0.000000 -0.010939
vn -0.999940 0.000214 -0.010949
vn -0.999940 0.000214 -0.010949
vn -0.999940 0.000428 -0.010958
vn 0.999943 0.000279 -0.010685
vn 0.999943 0.000140 -0.010690
vn 0.999943 0.000140 -0.010690
vn 0.999943 0.000000 -0.010695
vn -1.000000 0.000000 0.000000
vn -1.000000 0.000000 0.000000
vn -1.000000 0.000000 0.000000
vn -1.000000 0.000000 0.000000
vn -0.002650 0.000000 0.999997
vn -0.002651 0.000000 0.999997
vn -0.002651 0.000000 0.999997
vn -0.002651 0.000000 0.999996
vn 0.722664 0.054672 0.689034
vn 0.722020 0.027346 0.691332
vn 0.722020 0.027346 0.691332
vn 0.720832 0.000000 0.693110
vn 1.000000 -0.000007 0.000000
vn 1.000000 -0.000003 0.000000
vn 1.000000 -0.000003 0.000000
vn 1.000000 0.000000 0.000000
vn 0.928671 -0.086693 0.360630
vn 0.924384 -0.043395 0.378987
vn 0.924384 -0.043395 0.378987
vn 0.918035 0.000000 0.396500
vn 0.000000 0.000000 -1.000000
vn 0.000000 0.000000 -1.000000
vn 0.000000 0.000000 -1.000000
vn 0.000000 0.000000 -1.000000
vn -1.000000 0.000005 0.000000
vn -1.000000 0.000003 0.000000
vn -1.000000 0.000003 0.000000
vn -1.000000 0.000000 0.000000
vn -0.908790 0.009735 -0.417141
vn -0.908443 0.004868 -0.417980
vn -0.908443 0.004868 -0.417980
vn -0.908074 0.000000 -0.418809
vn -0.462467 -0.263666 -0.846525
vn -0.500494 -0.133069 -0.855452
vn -0.500494 -0.133069 -0.855452
vn -0.529220 0.000000 -0.848485
vn 0.000000 0.000000 -1.000000
vn 0.000000 0.000000 -1.000000
vn 0.000000 0.000000 -1.000000
vn 0.000000 0.000000 -1.000000
vn 0.000000 0.000000 -1.000000
vn 0.000000 0.000000 -1.000000
vn 0.000000 0.000000 -1.000000
vn 0.000000 0.000000 -1.000000
vn 0.925438 -0.052949 -0.375182
vn 0.929505 -0.026484 -0.367856
vn 0.929505 -0.026484 -0.367856
vn 0.932857 0.000000 -0.360247
vn 0.447138 -0.084373 -0.890477
vn 0.461315 -0.042229 -0.886231
vn 0.461315 -0.042229 -0.886231
vn 0.474573 0.000000 -0.880216
vn 1.000000 0.000003 0.000000
vn 1.000000 0.000002 0.000000
vn 1.000000 0.000002 0.000000
vn 1.000000 0.000000 0.000000
vn 0.000000 0.000000 1.000000
vn 0.000000 0.000000 1.000000
vn 0.000000 0.000000 1.000000
vn 0.000000 0.000000 1.000000
vn -1.000000 0.000002 0.000000
vn -1.000000 0.000001 0.000000
vn -1.000000 0.000001 0.000000
vn -1.000000 0.000000 0.000000
vn -0.912507 -0.024844 0.408307
vn -0.915129 -0.012423 0.402969
vn -0.915129 -0.012423 0.402969
vn -0.917578 0.000000 0.397555
vn -0.550356 -0.042484 0.833849
vn -0.559078 -0.021248 0.828843
vn -0.559078 -0.021248 0.828843
vn -0.567491 0.000000 0.823380
vn -0.000000 0.000000 1.000000
vn -0.000000 0.000000 1.000000
vn -0.000000 0.000000 1.000000
vn 0.000000 0.000000 1.000000
vn 0.005075 0.000000 0.999987
vn 0.005075 0.000000 0.999987
vn 0.005075 0.000000 0.999987
vn 0.005075 0.000000 0.999987
vn 0.999939 -0.000001 0.011052
vn 0.999939 -0.000000 0.011052
vn 0.999939 -0.000000 0.011052
vn 0.999939 0.000000 0.011052
vn 0.390288 -0.037475 0.919930
vn 0.397396 -0.018741 0.917456
vn 0.397396 -0.018741 0.917456
vn 0.404342 0.000000 0.914608
vn 0.899928 -0.005883 0.435998
vn 0.900583 -0.002942 0.434674
vn 0.900583 -0.002942 0.434674
vn 0.901228 0.000000 0.433345
vn -0.999996 -0.000000 0.002975
vn -0.999996 -0.000000 0.002975
vn -0.999996 -0.000000 0.002975
vn -0.999996 0.000000 0.002975
vn 0.000000 0.000000 -1.000000
vn -0.000000 0.000000 -1.000000
vn -0.000000 0.000000 -1.000000
vn -0.000000 0.000000 -1.000000
vn -0.868220 0.000000 -0.496179
vn -0.866285 -0.011963 -0.499407
vn -0.866285 -0.011963 -0.499407
vn -0.864213 -0.023925 -0.502557
vn -0.323345 -0.145581 -0.935016
vn -0.349991 -0.073009 -0.933904
vn -0.349991 -0.073009 -0.933904
vn -0.374545 0.000000 -0.927209
vn 0.000000 0.000000 -1.000000
vn 0.000000 0.000000 -1.000000
vn 0.000000 0.000000 -1.000000
vn 0.000000 0.000000 -1.000000
vn 0.024067 0.000000 -0.999710
vn 0.024067 0.000000 -0.999710
vn 0.024067 0.000000 -0.999710
vn 0.024066 0.000000 -0.999710
vn 0.928060 -0.033935 -0.370882
vn 0.930185 -0.016970 -0.366698
vn 0.930185 -0.016970 -0.366698
vn 0.932023 0.000000 -0.362400
vn 0.507154 -0.095887 -0.856505
vn 0.522181 -0.048004 -0.851482
vn 0.522181 -0.048004 -0.851482
vn 0.535880 0.000000 -0.844294
vn 1.000000 -0.000000 -0.000793
vn 1.000000 -0.000000 -0.000793
vn 1.000000 -0.000000 -0.000793
vn 1.000000 0.000000 -0.000793
vn -0.999914 0.000000 0.013142
vn -0.999914 0.000000 0.013142
vn -0.999914 0.000000 0.013142
vn -0.999914 0.000000 0.013142
vn -0.000753 0.000000 1.000000
vn -0.000753 0.000000 1.000000
vn -0.000753 0.000000 1.000000
vn -0.000753 0.000000 1.000000
vn 0.963949 0.000000 0.266088
vn 0.963951 0.000000 0.266079
vn 0.963951 0.000000 0.266079
vn 0.963954 0.000000 0.266070
vn -0.002683 -0.000000 0.999996
vn -0.002684 -0.000000 0.999996
vn -0.002684 -0.000000 0.999996
vn -0.002684 0.000000 0.999996
vn -0.967680 0.000000 0.252180
vn -0.967439 0.002123 0.253094
vn -0.967439 0.002123 0.253094
vn -0.967193 0.004246 0.254006
vn -0.428494 -0.030004 0.903046
vn -0.428016 -0.015004 0.903646
vn -0.428016 -0.015004 0.903646
vn -0.427442 0.000000 0.904043
f 1/1/1 4/3/2 2/2/3
f 2/2/3 4/3/2 3/4/4
f 3/5/5 4/6/6 5/8/7
f 5/8/7 4/6/6 6/7/8
f 73/145/9 74/146/10 7/12/11
f 7/12/11 74/146/10 8/11/12
f 1/13/13 2/14/14 9/16/15
f 9/16/15 2/14/14 10/15/16
f 9/17/17 10/18/18 11/20/19
f 11/20/19 10/18/18 12/19/20
f 12/22/21 14/23/22 11/21/23
f 11/21/23 14/23/22 13/24/24
f 7/41/25 8/42/26 23/44/27
f 23/44/27 8/42/26 24/43/28
f 39/73/29 42/76/30 40/74/31
f 40/74/31 42/76/30 41/75/32
f 41/77/33 44/80/34 40/78/35
f 40/78/35 44/80/34 43/79/36
f 44/81/37 75/147/38 43/82/39
f 43/82/39 75/147/38 76/148/40
f 39/85/41 48/88/42 42/86/43
f 42/86/43 48/88/42 47/87/44
f 48/89/45 50/92/46 47/90/47
f 47/90/47 50/92/46 49/91/48
f 52/96/49 51/95/50 50/93/51
f 50/93/51 51/95/50 49/94/52
f 46/113/53 62/116/54 45/114/55
f 45/114/55 62/116/54 61/115/56
f 5/9/57 6/10/58 73/145/59
f 73/145/59 6/10/58 74/146/60
f 75/147/61 46/84/62 76/148/63
f 76/148/63 46/84/62 45/83/64
f 24/46/65 26/47/66 23/45/67
f 23/45/67 26/47/66 25/48/68
f 77/150/69 78/149/70 26/50/71
f 26/50/71 78/149/70 25/49/72
f 78/149/73 77/150/74 27/52/75
f 27/52/75 77/150/74 28/51/76
f 79/151/77 80/152/78 29/56/79
f 29/56/79 80/152/78 30/55/80
f 80/152/81 79/151/82 28/54/83
f 28/54/83 79/151/82 27/53/84
f 14/26/85 16/27/86 13/25/87
f 13/25/87 16/27/86 15/28/88
f 81/153/89 82/154/90 16/30/91
f 16/30/91 82/154/90 15/29/92
f 81/153/93 18/31/94 82/154/95
f 82/154/95 18/31/94 17/32/96
f 83/156/97 17/33/98 84/155/99
f 84/155/99 17/33/98 18/34/100
f 86/158/101 83/156/102 85/157/103
f 85/157/103 83/156/102 84/155/104
f 21/69/105 22/70/106 37/72/107
f 37/72/107 22/70/106 38/71/108
f 88/159/109 87/160/110 20/38/111
f 20/38/111 87/160/110 19/37/112
f 86/158/113 85/157/114 19/36/115
f 19/36/115 85/157/114 20/35/116
f 88/159/117 22/39/118 87/160/119
f 87/160/119 22/39/118 21/40/120
f 32/59/121 31/60/122 30/58/123
f 30/58/123 31/60/122 29/57/124
f 90/161/125 31/61/126 89/162/127
f 89/162/127 31/61/126 32/62/128
f 90/161/129 89/162/130 33/64/131
f 33/64/131 89/162/130 34/63/132
f 92/164/133 91/163/134 34/66/135
f 34/66/135 91/163/134 33/65/136
f 91/163/137 92/164/138 35/68/139
f 35/68/139 92/164/138 36/67/140
f 93/165/141 35/140/142 94/166/143
f 94/166/143 35/140/142 36/139/144
f 95/167/145 96/168/146 70/133/147
f 70/133/147 96/168/146 69/134/148
f 94/166/149 71/138/150 93/165/151
f 93/165/151 71/138/150 72/137/152
f 95/167/153 72/136/154 96/168/155
f 96/168/155 72/136/154 71/135/156
f 98/169/157 97/170/158 59/111/159
f 59/111/159 97/170/158 60/112/160
f 60/141/161 37/144/162 59/142/163
f 59/142/163 37/144/162 38/143/164
f 58/109/165 97/170/166 57/110/167
f 57/110/167 97/170/166 98/169/168
f 99/172/169 58/108/170 100/171/171
f 100/171/171 58/108/170 57/107/172
f 102/174/173 99/172/174 101/173/175
f 101/173/175 99/172/174 100/171/176
f 54/100/177 53/99/178 52/97/179
f 52/97/179 53/99/178 51/98/180
f 103/175/181 104/176/182 55/103/183
f 55/103/183 104/176/182 56/104/184
f 102/174/185 101/173/186 56/105/187
f 56/105/187 101/173/186 55/106/188
f 103/175/189 53/102/190 104/176/191
f 104/176/191 53/102/190 54/101/192
f 106/177/193 105/178/194 67/127/195
f 67/127/195 105/178/194 68/128/196
f 69/131/197 67/130/198 70/132/199
f 70/132/199 67/130/198 68/129/200
f 62/117/201 64/120/202 61/118/203
f 61/118/203 64/120/202 63/119/204
f 108/180/205 63/122/206 107/179/207
f 107/179/207 63/122/206 64/121/208
f 66/125/209 105/178/210 65/126/211
f 65/126/211 105/178/210 106/177/212
f 107/179/213 66/124/214 108/180/215
f 108/180/215 66/124/214 65/123/216
