# This file uses centimeters as units for non-parametric coordinates.

v -0.026053 0.039584 0.057059
v -0.013816 0.039842 0.057059
v 0.000946 0.029057 0.057205
v -0.049068 0.048070 -0.059344
v -0.019562 0.054219 -0.048920
v 0.007471 0.048266 -0.064588
v -0.066428 0.017032 -0.062956
v -0.018250 0.034944 -0.125693
v 0.014565 0.018432 -0.073917
v -0.050746 -0.013376 -0.064013
v -0.019646 -0.018235 -0.057169
v 0.007133 -0.011852 -0.064644
v -0.038554 -0.002275 0.041840
v -0.020491 -0.012500 0.041840
v -0.004101 -0.009227 0.057049
v 0.007853 0.011976 0.057128
v -0.037620 0.019794 0.050601
v -0.015878 0.016601 0.081104
v -0.040468 0.009744 -0.123026
v -0.069426 0.018560 -0.099962
v -0.044350 0.046186 -0.094505
v -0.019958 0.051242 -0.090244
v 0.005317 0.047712 -0.091225
v 0.010256 0.022584 -0.112425
v -0.000816 0.014548 -0.128795
v -0.020433 0.015440 -0.139151
v -0.018466 -0.001983 0.071070
v -0.030751 0.003931 0.071045
v -0.031091 0.019031 0.071253
v -0.021995 0.031216 0.071212
v -0.014135 0.032210 0.071193
v -0.002786 0.026076 0.071245
v -0.001014 0.013753 0.071264
v -0.007957 0.000009 0.071203
v -0.035989 0.018951 0.067128
v -0.037925 0.007286 0.067407
v -0.040945 0.003136 0.048249
v -0.065985 -0.001205 -0.058584
v -0.069648 0.002307 -0.104584
v -0.070166 0.020638 -0.113284
v -0.068868 0.038088 -0.099615
v -0.065699 0.042521 -0.063202
v -0.033567 0.036075 0.059179
v -0.033493 0.031825 0.065284
v -0.026165 0.031548 0.064579
v -0.033545 0.019435 0.066227
v -0.034574 0.007126 0.065948
v -0.038941 0.002344 0.044947
v -0.054201 -0.002413 -0.063877
v -0.049554 0.001302 -0.110874
v -0.047914 0.020330 -0.118546
v -0.045789 0.041780 -0.094617
v -0.050127 0.045176 -0.059339
v -0.028037 0.036948 0.057069
v -0.052783 -0.003192 -0.039121
v -0.049557 -0.013505 -0.039976
v -0.020260 -0.019280 -0.045024
v 0.009149 -0.012540 -0.042181
v 0.016913 0.017796 -0.044521
v 0.007915 0.046344 -0.036295
v -0.020511 0.053461 -0.036488
v -0.047522 0.047628 -0.033784
v -0.048755 0.044583 -0.033957
v -0.046963 -0.019103 -0.111449
v -0.018777 -0.025713 -0.117731
v 0.006740 -0.015223 -0.114769
v 0.012634 0.019058 -0.090821
vt 0.045801 0.935934
vt 0.045801 0.906649
vt 0.113881 0.906649
vt 0.113881 0.935934
vt 0.045801 0.878134
vt 0.113881 0.878134
vt 0.164695 0.935934
vt 0.204784 0.768970
vt 0.188082 0.906649
vt 0.204784 0.801041
vt 0.202551 0.906649
vt 0.204784 0.744610
vt 0.116776 0.801041
vt 0.116776 0.768970
vt 0.047858 0.768970
vt 0.047858 0.801041
vt 0.116776 0.744610
vt 0.047858 0.744610
vt 0.047858 0.730927
vt 0.188082 0.949041
vt 0.116776 0.730927
vt 0.047858 0.820532
vt 0.116776 0.820532
vt 0.164695 0.949041
vt 0.007528 0.820532
vt 0.024397 0.820532
vt 0.024397 0.801041
vt 0.164695 0.906649
vt 0.164695 0.878134
vt 0.045801 0.857315
vt 0.007528 0.801054
vt 0.113881 0.857315
vt 0.024397 0.768970
vt 0.024397 0.744610
vt 0.007528 0.771488
vt 0.204784 0.820532
vt 0.193244 0.820532
vt 0.045801 0.949041
vt 0.113881 0.949041
vt 0.023770 0.935934
vt 0.023770 0.906649
vt 0.204784 0.730927
vt 0.007194 0.857315
vt 0.024397 0.730927
vt 0.138406 0.820532
vt 0.023770 0.878134
vt 0.193244 0.801041
vt 0.138406 0.801041
vt 0.193244 0.744610
vt 0.193244 0.730927
vt 0.138406 0.730927
vt 0.188082 0.857315
vt 0.023770 0.949041
vt 0.045801 0.969170
vt 0.023770 0.969170
vt 0.141108 0.935934
vt 0.141108 0.949041
vt 0.138406 0.744610
vt 0.141108 0.906649
vt 0.193244 0.768970
vt 0.138406 0.768970
vt 0.047858 0.836220
vt 0.024397 0.836220
vt 0.007528 0.848236
vt 0.141108 0.878134
vt 0.164695 0.857315
vt 0.141108 0.857315
vt 0.007194 0.949445
vt 0.047858 0.848236
vt 0.138406 0.836220
vt 0.138406 0.848236
vt 0.007194 0.923227
vt 0.164695 0.969170
vt 0.188082 0.969170
vt 0.164695 0.991480
vt 0.193244 0.848236
vt 0.193244 0.836220
vt 0.204784 0.848236
vt 0.007194 0.991480
vt 0.128124 0.969170
vt 0.007194 0.968160
vt 0.128124 0.991480
vt 0.045801 0.991480
vt 0.202551 0.949041
vt 0.202551 0.857315
vn 0.212623 0.920846 0.326856
vn 0.007729 0.990697 0.135870
vn -0.448162 0.809816 0.378614
vn -0.683951 0.695641 0.219761
vn 0.756710 0.570941 0.318459
vn 0.738092 0.657609 0.150903
vn 0.018096 -0.996800 0.077856
vn -0.196548 -0.958892 0.204682
vn -0.591053 -0.791103 0.157519
vn -0.819521 -0.516683 0.247839
vn 0.629251 -0.771307 0.095545
vn 0.409633 -0.836644 0.363631
vn 0.948919 -0.089991 0.302414
vn 0.995847 0.015770 0.089666
vn -0.951767 -0.222130 0.211654
vn -0.952591 -0.252145 0.170273
vn -0.800624 0.492166 0.341722
vn -0.905326 0.353319 0.235692
vn -0.847996 0.298170 0.438176
vn -0.893252 -0.175920 0.413707
vn -0.737145 0.248970 0.628197
vn -0.614866 -0.497125 0.612215
vn -0.381839 0.656363 0.650682
vn 0.232446 0.753731 0.614702
vn -0.114198 -0.756406 0.644057
vn 0.485325 -0.511084 0.709403
vn 0.016366 0.039828 0.999073
vn 0.774344 -0.020278 0.632440
vn 0.633669 0.442275 0.634710
vn -0.014221 0.936460 0.350486
vn -0.078659 0.928410 0.363136
vn 0.098669 0.623831 0.775306
vn 0.189273 0.352977 0.916288
vn -0.002975 0.997412 -0.071842
vn 0.495400 0.865608 -0.072811
vn -0.014747 0.997861 -0.063680
vn 0.807995 0.583094 -0.084538
vn 0.996514 -0.007489 -0.083095
vn 0.991415 0.078743 -0.104386
vn 0.843964 -0.389328 -0.368983
vn 0.742099 -0.670021 0.019001
vn 0.061411 -0.813324 -0.578561
vn -0.039421 -0.992335 0.117120
vn -0.971088 0.170206 0.167389
vn -0.978909 0.172006 0.110237
vn -0.974847 0.123536 0.185508
vn -0.974541 0.187500 0.122936
vn -0.981223 0.064030 0.181941
vn -0.990524 0.017889 0.136167
vn -0.997539 0.010787 0.069277
vn -0.997425 -0.005518 0.071504
vn -0.998269 0.012694 0.057432
vn -0.996801 0.027895 0.074893
vn -0.979077 0.054450 0.196068
vn -0.970385 0.167303 0.174249
vn -0.719270 0.505770 0.476285
vn -0.964992 0.209672 0.157570
vn 0.264154 0.031815 0.963956
vn 0.362081 -0.008189 0.932111
vn 0.278083 -0.646772 0.710180
vn 0.246396 -0.647341 0.721276
vn -0.117683 -0.979480 0.163614
vn -0.125347 -0.978821 0.161858
vn -0.261894 -0.959371 0.104970
vn -0.304245 -0.946250 0.109758
vn -0.238519 0.962817 0.126858
vn -0.358672 0.922482 0.142767
vn -0.106803 -0.992546 -0.058703
vn -0.112964 -0.993290 -0.024796
vn -0.121844 -0.991530 -0.044966
vn -0.952358 -0.301632 0.045081
vn -0.952480 -0.301215 0.045298
vn -0.662561 -0.749008 -0.000376
vn -0.651503 -0.758123 0.028169
vn 0.021689 -0.998279 -0.054490
vn 0.010890 -0.996310 -0.085133
vn 0.818055 -0.568624 -0.086323
vn 0.538121 -0.838848 -0.082226
vn 0.997965 0.009382 -0.063070
vn 0.996805 -0.004870 -0.079722
vn 0.542327 0.838412 0.054288
vn 0.819203 0.573502 -0.001701
vn 0.017944 0.997899 0.062252
vn 0.017875 0.998344 0.054672
vn -0.046791 -0.462679 -0.885290
vn 0.530370 -0.286563 -0.797866
vn 0.966400 0.040665 -0.253807
vn 0.967001 0.246004 -0.066264
vn -0.500586 0.864207 0.050590
vn -0.774361 0.630238 0.056255
vn -0.931989 0.357390 0.060572
vn -0.937473 0.343076 0.058673
vn -0.150316 0.986647 -0.062714
vn -0.175775 0.983895 0.032468
vn -0.158300 0.986587 -0.039829
vn -0.930997 0.308996 -0.194337
vn -0.930997 0.308996 -0.194337
vn -0.930997 0.308996 -0.194337
vn -0.001481 0.908551 -0.417771
vn 0.336446 0.784660 -0.520685
vn 0.013807 0.689972 -0.723704
vn -0.118627 0.572879 -0.811010
vn -0.488351 0.345761 -0.801226
vn 0.483542 0.520333 -0.703875
vn -0.404424 0.424757 -0.809952
vn 0.536722 0.579615 -0.613169
vn -0.296582 0.791984 -0.533667
vn -0.947598 -0.297193 -0.117192
vn -0.900412 -0.187850 -0.392392
vn -0.833318 -0.551959 -0.030373
vn -0.649745 -0.662149 -0.373351
vn -0.488847 0.865528 -0.109042
vn -0.776575 0.614691 -0.138151
vn -0.934586 0.325214 -0.144171
vn -0.939392 0.310494 -0.145384
vn -0.187708 -0.904964 -0.381846
vn -0.223729 -0.669899 -0.707941
vn -0.142361 0.391082 -0.909279
vn -0.259493 -0.056902 -0.964067
vn -0.086639 0.946710 -0.310217
vn -0.099793 0.830596 -0.547861
vn -0.580920 -0.261691 -0.770747
vn -0.706734 -0.211283 -0.675194
f 2/2/1 61/3/2 1/1/3
f 1/1/3 61/3/2 62/4/4
f 3/5/5 60/6/6 2/2/1
f 2/2/1 60/6/6 61/3/2
f 57/14/7 14/15/8 56/13/9
f 56/13/9 14/15/8 13/16/10
f 57/14/7 58/17/11 14/15/8
f 14/15/8 58/17/11 15/18/12
f 15/18/12 58/17/11 16/19/13
f 16/19/13 58/17/11 59/21/14
f 3/5/5 16/30/13 60/6/6
f 60/6/6 16/30/13 59/32/14
f 48/22/15 55/23/16 13/16/10
f 13/16/10 55/23/16 56/13/9
f 1/1/3 62/4/4 54/38/17
f 54/38/17 62/4/4 63/39/18
f 46/25/19 47/26/20 29/31/21
f 29/31/21 47/26/20 28/27/22
f 1/1/3 30/40/23 2/2/1
f 2/2/1 30/40/23 31/41/24
f 27/33/25 34/34/26 18/35/27
f 16/30/13 3/5/5 33/43/28
f 33/43/28 3/5/5 32/46/29
f 54/38/30 43/54/31 45/53/32
f 45/53/32 43/54/31 44/55/33
f 32/46/29 3/5/5 31/41/24
f 31/41/24 3/5/5 2/2/1
f 15/18/12 16/19/13 34/34/26
f 34/34/26 16/19/13 33/44/28
f 27/33/25 28/27/22 14/15/8
f 14/15/8 28/27/22 13/16/10
f 5/59/34 6/65/35 22/28/36
f 22/28/36 6/65/35 23/29/37
f 67/66/38 23/29/37 9/67/39
f 9/67/39 23/29/37 6/65/35
f 66/49/40 67/50/38 12/58/41
f 12/58/41 67/50/38 9/51/39
f 66/49/40 12/58/41 65/60/42
f 65/60/42 12/58/41 11/61/43
f 27/33/25 18/35/27 28/27/22
f 29/31/21 28/27/22 18/35/27
f 30/40/23 29/68/21 18/72/27
f 31/41/24 30/40/23 18/72/27
f 18/72/27 32/46/29 31/41/24
f 18/72/27 33/43/28 32/46/29
f 34/34/26 33/44/28 18/35/27
f 34/34/26 27/33/25 15/18/12
f 15/18/12 27/33/25 14/15/8
f 28/27/22 47/26/20 13/16/10
f 13/16/10 47/26/20 48/22/15
f 37/62/44 36/63/45 17/69/46
f 17/69/46 36/63/45 35/64/47
f 37/62/44 17/69/46 38/70/48
f 38/70/48 17/69/46 7/71/49
f 20/76/50 39/77/51 7/71/49
f 7/71/49 39/77/51 38/70/48
f 20/76/50 40/78/52 39/77/51
f 41/73/53 40/74/52 20/75/50
f 42/80/54 41/73/53 7/82/49
f 7/82/49 41/73/53 20/75/50
f 43/54/55 42/80/54 17/83/46
f 17/83/46 42/80/54 7/82/49
f 30/40/23 45/53/56 29/68/21
f 29/68/21 45/53/56 46/81/19
f 44/55/57 43/54/55 35/79/47
f 35/79/47 43/54/55 17/83/46
f 45/53/32 44/55/33 46/81/58
f 46/81/58 44/55/33 35/79/59
f 36/63/60 47/26/61 35/64/59
f 35/64/59 47/26/61 46/25/58
f 48/22/62 47/26/61 37/62/63
f 37/62/63 47/26/61 36/63/60
f 48/22/62 37/62/63 55/23/64
f 55/23/64 37/62/63 38/70/65
f 54/38/30 63/39/66 43/54/31
f 43/54/31 63/39/66 42/80/67
f 54/38/17 45/53/56 1/1/3
f 1/1/3 45/53/56 30/40/23
f 49/45/68 55/23/69 38/70/70
f 55/23/71 49/45/72 56/13/73
f 56/13/73 49/45/72 10/48/74
f 10/48/74 11/61/75 56/13/73
f 56/13/73 11/61/75 57/14/76
f 12/58/77 58/17/78 11/61/75
f 11/61/75 58/17/78 57/14/76
f 58/17/78 12/58/77 59/21/79
f 59/21/79 12/58/77 9/51/80
f 60/6/81 59/32/79 6/65/82
f 6/65/82 59/32/79 9/67/80
f 61/3/83 60/6/81 5/59/84
f 5/59/84 60/6/81 6/65/82
f 26/8/85 25/12/86 65/60/42
f 65/60/42 25/12/86 66/49/40
f 25/12/86 24/42/87 66/49/40
f 66/49/40 24/42/87 67/50/38
f 24/52/87 23/29/88 67/66/38
f 61/3/83 5/59/84 62/4/89
f 62/4/89 5/59/84 4/56/90
f 62/4/89 4/56/90 63/39/91
f 63/39/91 4/56/90 53/57/92
f 42/80/93 63/39/94 53/57/95
f 21/7/96 51/20/97 52/24/98
f 22/28/99 23/29/100 8/9/101
f 26/11/102 19/84/103 8/9/101
f 8/9/101 25/85/104 26/11/102
f 19/84/103 51/20/105 8/9/101
f 8/9/101 24/52/106 25/85/104
f 21/7/107 22/28/99 8/9/101
f 8/9/101 23/29/100 24/52/106
f 49/45/108 50/37/109 10/48/110
f 10/48/110 50/37/109 64/47/111
f 4/56/112 21/7/113 53/57/114
f 53/57/114 21/7/113 52/24/115
f 5/59/34 22/28/36 4/56/112
f 4/56/112 22/28/36 21/7/113
f 10/48/110 64/47/111 11/61/43
f 11/61/43 64/47/111 65/60/42
f 38/70/70 39/77/116 49/45/68
f 49/45/68 39/77/116 50/37/117
f 51/36/118 50/37/117 40/78/119
f 40/78/119 50/37/117 39/77/116
f 52/24/120 51/20/118 41/73/121
f 41/73/121 51/20/118 40/74/119
f 53/57/95 52/24/120 42/80/93
f 42/80/93 52/24/120 41/73/121
f 64/47/111 19/10/122 65/60/42
f 65/60/42 19/10/122 26/8/85
f 51/36/123 19/10/122 50/37/109
f 50/37/109 19/10/122 64/47/111
f 51/20/105 21/7/107 8/9/101
