# This file uses centimeters as units for non-parametric coordinates.

v -0.059543 0.044768 0.101158
v -0.002576 0.049970 0.112406
v 0.051662 0.044768 0.124464
v -0.026948 0.052120 0.022179
v -0.001546 0.077183 0.015017
v 0.025816 0.051207 0.042984
v -0.056453 0.024911 -0.087165
v -0.003878 0.070956 -0.080629
v 0.049235 0.027048 -0.091236
v -0.059644 -0.003340 -0.077166
v -0.000252 -0.002823 -0.077776
v 0.061420 -0.002823 -0.069188
v -0.063638 -0.041778 -0.070397
v 0.000208 -0.057251 -0.066712
v 0.060662 -0.044492 -0.061767
v -0.049519 -0.029165 0.012220
v -0.012143 -0.056605 0.053285
v 0.031393 -0.034045 0.033731
v -0.034592 -0.056821 0.106401
v -0.002579 -0.079511 0.112419
v 0.029221 -0.073130 0.119775
v -0.052026 -0.016111 0.102968
v -0.002623 -0.004401 0.112630
v 0.045880 -0.004401 0.123486
v 0.016279 -0.015233 0.043750
v -0.053711 -0.009705 0.015416
v 0.001967 0.011098 -0.097651
v -0.006980 0.059665 -0.150142
v -0.005692 0.029404 -0.148535
v -0.056945 0.028318 -0.129964
v -0.006686 0.070466 -0.121526
v 0.050108 0.028017 -0.129818
v -0.006487 0.059884 -0.142207
v -0.045636 0.047584 -0.128014
v -0.044861 0.040520 -0.083084
v 0.000725 0.051393 -0.051555
v 0.042905 0.042183 -0.086862
v 0.039191 0.047286 -0.127913
v -0.065529 -0.060737 -0.032172
v 0.000448 -0.081221 -0.029970
v 0.074653 -0.060229 -0.024398
v 0.002076 0.124825 0.088500
vt 0.727008 0.263013
vt 0.764879 0.239571
vt 0.764879 0.263013
vt 0.797097 0.263013
vt 0.964764 0.278397
vt 0.909506 0.278397
vt 0.909506 0.262680
vt 0.964764 0.262680
vt 0.853588 0.278397
vt 0.853588 0.262680
vt 0.909506 0.246563
vt 0.950704 0.246563
vt 0.876305 0.246563
vt 0.950704 0.221340
vt 0.909506 0.221340
vt 0.817731 0.077846
vt 0.817731 0.044515
vt 0.862725 0.044515
vt 0.862725 0.077846
vt 0.817731 0.012626
vt 0.862725 0.012626
vt 0.764879 0.104474
vt 0.727008 0.103995
vt 0.797097 0.104697
vt 0.826320 0.182119
vt 0.797097 0.182119
vt 0.826320 0.263013
vt 0.811005 0.263013
vt 0.727008 0.182119
vt 0.700982 0.182119
vt 0.712924 0.263013
vt 0.700982 0.263013
vt 0.764879 0.182119
vt 0.712924 0.309481
vt 0.764879 0.315423
vt 0.764879 0.326105
vt 0.727008 0.303694
vt 0.764879 0.297077
vt 0.764879 0.308503
vt 0.797097 0.304005
vt 0.909506 0.161562
vt 0.972525 0.161562
vt 0.811005 0.312296
vt 0.964764 0.311489
vt 0.876305 0.221340
vt 0.876305 0.161562
vt 0.909506 0.111622
vt 0.853588 0.311489
vt 0.909506 0.311489
vt 0.972525 0.111622
vt 0.972525 0.260139
vt 0.435475 0.012889
vt 0.876305 0.111622
vt 0.670715 0.014234
vt 0.853588 0.161562
vt 0.475412 0.012889
vt 0.475412 0.076519
vt 0.435475 0.076519
vt 0.506942 0.012889
vt 0.506942 0.076519
vt 0.640014 0.014234
vt 0.640014 0.077864
vt 0.670715 0.077864
vt 0.697119 0.014234
vt 0.697119 0.077864
vt 0.895545 0.044515
vt 0.895545 0.077846
vt 0.895545 0.012626
vt 0.764879 0.143047
vn 0.022573 -0.944770 -0.326956
vn 0.278385 -0.827466 -0.487650
vn 0.055473 -0.426577 -0.902749
vn 0.127805 -0.375861 -0.917821
vn -0.007718 -0.253643 -0.967267
vn -0.000153 -0.185865 -0.982575
vn 0.064810 -0.198248 -0.978007
vn 0.128449 -0.186439 -0.974034
vn -0.819321 -0.571258 0.048758
vn 0.013520 -0.999875 0.008229
vn -0.769672 -0.606021 0.200858
vn -0.108885 -0.982461 -0.151375
vn 0.861860 -0.506634 0.022791
vn 0.953035 -0.246937 0.175349
vn -0.665811 -0.733596 -0.136136
vn -0.146569 -0.930170 -0.336604
vn 0.572788 -0.752933 -0.324047
vn -0.205797 -0.002867 0.978591
vn -0.203974 0.001255 0.978976
vn -0.189387 -0.001172 0.981902
vn -0.192611 0.002924 0.981271
vn -0.221612 -0.001310 0.975134
vn -0.217761 0.003500 0.975996
vn 0.956003 0.059758 -0.287206
vn 0.966465 0.256004 0.020170
vn 0.952096 0.249895 0.176255
vn -0.969861 -0.243201 0.014898
vn -0.994561 0.074092 0.073208
vn -0.989808 0.133449 0.049709
vn -0.691226 0.329279 -0.643259
vn -0.025689 0.592291 -0.805314
vn -0.011537 -0.053540 -0.998499
vn -0.001681 -0.941035 -0.338306
vn 0.212250 -0.959182 -0.186867
vn -0.637186 0.753793 -0.160595
vn -0.036504 0.991204 -0.127206
vn -0.018948 0.969743 -0.243392
vn 0.635257 0.738266 -0.226744
vn 0.660321 0.318651 -0.680027
vn -0.798709 -0.522389 -0.298618
vn -0.070163 -0.854861 -0.514091
vn 0.535940 -0.663731 -0.521757
vn -0.607076 0.789913 0.086580
vn -0.006081 0.829209 0.558906
vn -0.027616 0.955993 0.292087
vn 0.622205 0.782325 0.028783
vn -0.200276 -0.777363 -0.596319
vn -0.171549 -0.964414 -0.201190
vn -0.892052 0.442445 0.092118
vn 0.906970 0.418895 0.043960
vn -0.193621 0.004768 0.981065
vn -0.209664 0.004822 0.977762
vn -0.216455 0.006043 0.976274
vn 0.945493 -0.105071 -0.308226
vn 0.976899 0.213346 -0.012311
vn -0.975505 0.149522 -0.161347
vn -0.843783 0.536525 -0.013099
vn -0.704532 0.610818 -0.361297
vn 0.079221 0.834654 -0.545047
vn 0.079221 0.834654 -0.545047
vn 0.807668 0.475788 -0.348279
vn -0.030174 0.981080 -0.191237
vn -0.037183 0.931400 -0.362092
vn -0.783027 0.559825 -0.271045
vn -0.783027 0.559825 -0.271045
vn -0.783027 0.559825 -0.271045
vn 0.869785 0.430059 -0.241917
vn 0.869785 0.430059 -0.241917
vn 0.869785 0.430059 -0.241917
vn -0.194685 0.309365 0.930801
vn -0.211325 0.309250 0.927203
vn -0.194685 0.309365 0.930801
vn -0.177989 0.309391 0.934129
f 27/6/1 9/9/2 11/7/3
f 11/7/3 9/9/2 12/10/4
f 10/8/5 11/7/3 13/12/6
f 13/12/6 11/7/3 14/11/7
f 12/10/4 15/13/8 11/7/3
f 11/7/3 15/13/8 14/11/7
f 39/14/9 40/15/10 16/42/11
f 16/42/11 40/15/10 17/41/12
f 41/45/13 18/46/14 40/15/10
f 40/15/10 18/46/14 17/41/12
f 16/42/11 17/41/12 19/50/15
f 19/50/15 17/41/12 20/47/16
f 18/46/14 21/53/17 17/41/12
f 17/41/12 21/53/17 20/47/16
f 20/17/18 23/18/19 19/16/20
f 19/16/20 23/18/19 22/19/21
f 20/17/18 21/20/22 23/18/19
f 23/18/19 21/20/22 24/21/23
f 21/61/17 18/62/14 24/54/24
f 24/54/24 18/62/14 25/63/25
f 25/55/25 18/46/14 12/10/26
f 18/46/14 41/45/13 12/10/26
f 19/52/15 22/56/27 16/58/11
f 16/58/11 22/56/27 26/57/28
f 16/42/11 26/51/28 39/14/9
f 39/14/9 26/51/28 10/8/29
f 30/34/30 28/35/31 29/36/32
f 29/49/33 32/48/34 27/6/1
f 27/6/1 32/48/34 9/9/2
f 34/37/35 31/38/36 33/39/37
f 33/39/37 38/40/38 28/35/31
f 28/35/31 38/40/38 32/43/39
f 28/35/31 32/43/39 29/36/32
f 30/34/30 34/37/35 28/35/31
f 28/35/31 34/37/35 33/39/37
f 31/38/36 38/40/38 33/39/37
f 39/14/9 10/8/29 13/12/40
f 13/12/40 14/11/41 39/14/9
f 39/14/9 14/11/41 40/15/10
f 14/11/41 15/13/42 40/15/10
f 40/15/10 15/13/42 41/45/13
f 12/10/26 41/45/13 15/13/42
f 35/1/43 36/2/44 8/3/45
f 36/2/44 37/4/46 8/3/45
f 27/6/1 11/7/3 7/5/47
f 7/5/47 11/7/3 10/8/5
f 7/5/47 30/44/48 27/6/1
f 27/6/1 30/44/48 29/49/33
f 8/3/45 31/38/36 35/1/43
f 35/1/43 31/38/36 34/37/35
f 8/3/45 37/4/46 31/38/36
f 31/38/36 37/4/46 38/40/38
f 35/1/43 34/37/35 7/31/49
f 7/31/49 34/37/35 30/34/30
f 37/4/46 9/28/50 38/40/38
f 38/40/38 9/28/50 32/43/39
f 22/19/21 23/18/19 1/67/51
f 1/67/51 23/18/19 2/66/52
f 23/18/19 24/21/23 2/66/52
f 2/66/52 24/21/23 3/68/53
f 3/64/54 24/54/24 6/65/55
f 6/65/55 24/54/24 25/63/25
f 25/25/25 12/27/26 6/26/55
f 6/26/55 12/27/26 9/28/50
f 22/56/27 1/59/56 26/57/28
f 26/57/28 1/59/56 4/60/57
f 4/29/57 7/31/49 26/30/28
f 26/30/28 7/31/49 10/32/29
f 4/29/58 42/69/59 5/33/60
f 42/69/59 6/26/61 5/33/60
f 35/1/43 5/33/62 36/2/63
f 37/4/46 6/26/55 9/28/50
f 4/29/57 35/1/43 7/31/49
f 5/33/62 37/4/46 36/2/63
f 4/29/57 5/33/62 35/1/43
f 5/33/62 6/26/55 37/4/46
f 1/23/64 42/69/65 4/29/66
f 42/69/67 3/24/68 6/26/69
f 42/69/70 1/23/71 2/22/72
f 3/24/73 42/69/70 2/22/72
