# This file uses centimeters as units for non-parametric coordinates.

v -0.035718 0.033240 0.046473
v -0.013677 0.035773 0.072442
v 0.008805 0.033240 0.046473
v -0.037748 0.040307 -0.012978
v -0.012331 0.045625 -0.012858
v 0.013733 0.040307 -0.012978
v -0.071036 0.077518 -0.178037
v -0.004633 0.093830 -0.173759
v 0.065727 0.082733 -0.166629
v -0.105925 0.007805 -0.182900
v -0.011957 0.002526 -0.224334
v 0.080585 0.007780 -0.181799
v -0.086308 -0.060597 -0.178720
v -0.008744 -0.071929 -0.177915
v 0.066674 -0.059224 -0.159098
v -0.038476 -0.014874 -0.012978
v -0.012331 -0.020670 -0.013108
v 0.014461 -0.014874 -0.012978
v -0.036369 -0.007599 0.042543
v -0.012654 -0.014056 0.067923
v 0.009413 -0.007599 0.042543
v -0.042127 0.009301 0.051922
v -0.013678 0.009301 0.077891
v 0.014773 0.009301 0.051922
v 0.022245 0.011056 -0.013223
v -0.047003 0.011101 -0.014177
v -0.011266 0.049862 -0.089736
v -0.037132 0.042266 -0.094919
v -0.047896 0.011113 -0.097081
v -0.038513 -0.015038 -0.095227
v -0.011266 -0.022469 -0.089737
v 0.015957 -0.014989 -0.084245
v 0.024367 0.011144 -0.082513
v 0.014468 0.042228 -0.084519
v -0.121525 0.007039 -0.155575
v -0.077238 0.088300 -0.142505
v -0.007235 0.107172 -0.122767
v 0.084404 0.092087 -0.116516
v 0.100756 0.007060 -0.115072
v 0.079685 -0.073008 -0.115025
v -0.007216 -0.088306 -0.114756
v -0.097525 -0.076135 -0.148288
v -0.088022 0.083328 -0.114150
v -0.010174 0.091060 -0.093340
v 0.048091 0.076877 -0.091200
v 0.070987 0.012666 -0.090023
v 0.054368 -0.062091 -0.088605
v -0.006951 -0.087841 -0.082824
v -0.113101 -0.060522 -0.115681
v -0.132445 0.012776 -0.127295
v -0.002945 0.073210 -0.197961
v -0.054274 0.058506 -0.203304
v -0.067736 0.008283 -0.212032
v -0.058120 -0.041895 -0.209026
v -0.007379 -0.063774 -0.194004
v 0.058166 -0.049593 -0.179194
v 0.056263 0.007633 -0.206108
v 0.054264 0.071277 -0.190840
vt 0.240611 0.955799
vt 0.240611 0.918923
vt 0.291008 0.918923
vt 0.291008 0.955799
vt 0.240611 0.882443
vt 0.291008 0.882443
vt 0.355187 0.918923
vt 0.355187 0.955799
vt 0.355187 0.882443
vt 0.310282 0.580236
vt 0.340603 0.580236
vt 0.310282 0.696435
vt 0.340603 0.696435
vt 0.368762 0.601201
vt 0.310282 0.601201
vt 0.340603 0.662569
vt 0.310282 0.662569
vt 0.340603 0.635586
vt 0.310282 0.635586
vt 0.275347 0.696435
vt 0.275347 0.717289
vt 0.310282 0.717289
vt 0.275347 0.662569
vt 0.355187 0.826263
vt 0.355187 0.789675
vt 0.291008 0.789675
vt 0.291008 0.826263
vt 0.355187 0.750405
vt 0.291008 0.750405
vt 0.240611 0.789675
vt 0.240611 0.826263
vt 0.240611 0.750405
vt 0.218640 0.789675
vt 0.218640 0.847735
vt 0.218640 0.735031
vt 0.291008 0.735031
vt 0.355187 0.735031
vt 0.291008 0.847735
vt 0.355187 0.847735
vt 0.340603 0.515514
vt 0.310282 0.515514
vt 0.310282 0.493585
vt 0.275347 0.635586
vt 0.275347 0.611433
vt 0.310282 0.611433
vt 0.239419 0.611433
vt 0.239419 0.635586
vt 0.368762 0.493585
vt 0.239419 0.662569
vt 0.239419 0.696435
vt 0.239419 0.717289
vt 0.207569 0.611433
vt 0.207569 0.635586
vt 0.207569 0.662569
vt 0.207569 0.696435
vt 0.207569 0.717289
vt 0.368762 0.611433
vt 0.368762 0.717289
vt 0.275347 0.580236
vt 0.275347 0.541846
vt 0.310282 0.541846
vt 0.275347 0.601201
vt 0.368762 0.662569
vt 0.368762 0.541846
vt 0.340603 0.541846
vt 0.275347 0.515514
vt 0.275347 0.493585
vt 0.239419 0.601201
vt 0.239419 0.580236
vt 0.239419 0.541846
vt 0.239419 0.515514
vt 0.239419 0.493585
vt 0.207569 0.580236
vt 0.207569 0.541846
vt 0.207569 0.515514
vt 0.207569 0.493585
vt 0.207569 0.601201
vt 0.218640 0.976367
vt 0.218640 0.918923
vt 0.218640 0.858429
vt 0.291008 0.858429
vt 0.355187 0.858429
vt 0.291008 0.976367
vt 0.355187 0.976367
vn 0.000061 0.707528 0.706685
vn 0.039163 0.995180 0.089903
vn -0.716950 0.659890 0.224785
vn -0.594281 0.802018 0.059973
vn 0.717099 0.650304 0.250747
vn 0.755790 0.650612 0.074063
vn -0.074626 0.996231 0.044209
vn -0.809094 0.587566 0.011502
vn 0.535832 0.843436 0.038718
vn -0.562599 0.642377 -0.520417
vn -0.299852 0.480757 -0.823991
vn -0.720835 0.074156 -0.689128
vn -0.416219 0.063428 -0.907050
vn 0.619324 0.666768 -0.414557
vn 0.853662 -0.038921 -0.519372
vn 0.431949 0.515771 -0.739865
vn 0.411720 -0.062023 -0.909197
vn -0.569063 -0.545500 -0.615303
vn -0.316867 -0.472496 -0.822401
vn 0.038527 -0.899721 -0.434761
vn 0.148131 -0.629958 -0.762371
vn 0.615941 -0.668368 -0.417014
vn 0.497159 -0.586115 -0.639767
vn -0.800479 -0.599341 0.004901
vn -0.075427 -0.997014 0.016547
vn -0.591254 -0.804714 0.053426
vn 0.040684 -0.996578 0.071960
vn 0.534292 -0.845068 0.019815
vn 0.755703 -0.650624 0.074846
vn -0.698138 -0.689851 0.191596
vn 0.014150 -0.805450 0.592495
vn 0.706354 -0.676275 0.209084
vn -0.863022 -0.081904 0.498483
vn 0.003770 -0.103995 0.994571
vn 0.858458 -0.071799 0.507834
vn 0.995904 -0.017434 0.088718
vn 0.999673 -0.002913 0.025413
vn -0.999102 -0.014066 0.039961
vn -0.999925 -0.005898 0.010774
vn 0.018390 0.989532 0.143141
vn -0.031499 0.876807 -0.479810
vn -0.471757 0.875654 -0.103322
vn -0.912133 0.112778 -0.394075
vn -0.522433 -0.804450 -0.282710
vn 0.059739 -0.998213 0.001401
vn 0.642431 -0.744544 0.181486
vn 0.984543 -0.048616 0.168258
vn 0.647475 0.624245 0.437142
vn -0.913753 0.140238 -0.381298
vn -0.634947 0.749424 -0.187632
vn -0.099275 0.928235 0.358502
vn 0.281821 0.661995 0.694507
vn 0.601716 0.070619 0.795582
vn 0.537845 -0.607597 0.584422
vn 0.070800 -0.997393 0.013928
vn -0.684325 -0.725370 -0.074415
vn -0.196717 0.090618 0.976264
vn -0.164140 0.120652 0.979031
vn -0.270190 0.084367 0.959104
vn -0.308311 0.066049 0.948990
vn 0.030442 0.113349 0.993089
vn 0.069360 0.123565 0.989910
vn 0.159123 -0.002240 0.987256
vn 0.138827 0.013850 0.990220
vn 0.037281 -0.011492 0.999239
vn 0.102771 -0.008257 0.994671
vn -0.146785 0.052583 0.987770
vn -0.196367 0.090280 0.976366
vn -0.291410 0.025962 0.956246
vn -0.237445 0.036575 0.970712
vn -0.311223 0.030045 0.949862
vn -0.335279 0.048305 0.940880
vn 0.064206 0.504595 -0.860965
vn 0.029477 -0.002376 -0.999563
f 2/2/1 5/3/2 1/1/3
f 1/1/3 5/3/2 4/4/4
f 2/2/1 3/5/5 5/3/2
f 5/3/2 3/5/5 6/6/6
f 5/3/2 27/7/7 4/4/4
f 4/4/4 27/7/7 28/8/8
f 6/6/6 34/9/9 5/3/2
f 5/3/2 34/9/9 27/7/7
f 7/10/10 52/11/11 10/15/12
f 10/15/12 52/11/11 53/14/13
f 9/41/14 12/42/15 58/40/16
f 58/40/16 12/42/15 57/48/17
f 13/12/18 54/13/19 14/17/20
f 14/17/20 54/13/19 55/16/21
f 15/19/22 14/17/20 56/18/23
f 56/18/23 14/17/20 55/16/21
f 30/24/24 31/25/25 16/27/26
f 16/27/26 31/25/25 17/26/27
f 31/25/25 32/28/28 17/26/27
f 17/26/27 32/28/28 18/29/29
f 16/27/26 17/26/27 19/31/30
f 19/31/30 17/26/27 20/30/31
f 18/29/29 21/32/32 17/26/27
f 17/26/27 21/32/32 20/30/31
f 19/31/30 20/30/31 22/34/33
f 22/34/33 20/30/31 23/33/34
f 21/32/32 24/35/35 20/30/31
f 20/30/31 24/35/35 23/33/34
f 23/79/34 2/2/1 22/78/33
f 22/78/33 2/2/1 1/1/3
f 23/79/34 24/80/35 2/2/1
f 2/2/1 24/80/35 3/5/5
f 24/35/35 21/32/32 25/36/36
f 25/36/36 21/32/32 18/29/29
f 24/80/35 25/81/36 3/5/5
f 3/5/5 25/81/36 6/6/6
f 25/36/36 18/29/29 33/37/37
f 33/37/37 18/29/29 32/28/28
f 25/81/36 33/82/37 6/6/6
f 6/6/6 33/82/37 34/9/9
f 22/34/33 26/38/38 19/31/30
f 19/31/30 26/38/38 16/27/26
f 22/78/33 1/1/3 26/83/38
f 26/83/38 1/1/3 4/4/4
f 16/27/26 26/38/38 30/24/24
f 30/24/24 26/38/38 29/39/39
f 4/4/4 28/8/8 26/83/38
f 26/83/38 28/8/8 29/84/39
f 37/60/40 8/61/41 36/59/42
f 36/59/42 8/61/41 7/10/10
f 36/59/42 7/10/10 35/62/43
f 35/62/43 7/10/10 10/15/12
f 42/20/44 35/21/43 13/12/18
f 13/12/18 35/21/43 10/22/12
f 13/12/18 14/17/20 42/20/44
f 42/20/44 14/17/20 41/23/45
f 14/17/20 15/19/22 41/23/45
f 41/23/45 15/19/22 40/43/46
f 40/43/46 15/19/22 39/44/47
f 39/44/47 15/19/22 12/45/15
f 38/66/48 39/67/47 9/41/14
f 9/41/14 39/67/47 12/42/15
f 38/66/48 9/41/14 37/60/40
f 37/60/40 9/41/14 8/61/41
f 50/68/49 43/69/50 35/62/43
f 35/62/43 43/69/50 36/59/42
f 43/69/50 44/70/51 36/59/42
f 36/59/42 44/70/51 37/60/40
f 44/70/51 45/71/52 37/60/40
f 37/60/40 45/71/52 38/66/48
f 45/71/52 46/72/53 38/66/48
f 38/66/48 46/72/53 39/67/47
f 46/46/53 47/47/54 39/44/47
f 39/44/47 47/47/54 40/43/46
f 40/43/46 47/47/54 41/23/45
f 41/23/45 47/47/54 48/49/55
f 42/20/44 41/23/45 49/50/56
f 49/50/56 41/23/45 48/49/55
f 50/51/49 35/21/43 49/50/56
f 49/50/56 35/21/43 42/20/44
f 27/74/57 44/70/58 28/73/59
f 28/73/59 44/70/58 43/69/60
f 27/74/57 34/75/61 44/70/58
f 44/70/58 34/75/61 45/71/62
f 33/76/63 46/72/64 34/75/61
f 34/75/61 46/72/64 45/71/62
f 33/52/63 32/53/65 46/46/64
f 46/46/64 32/53/65 47/47/66
f 47/47/66 32/53/65 48/49/67
f 48/49/67 32/53/65 31/54/68
f 49/50/69 48/49/67 30/55/70
f 30/55/70 48/49/67 31/54/68
f 30/55/70 29/56/71 49/50/69
f 49/50/69 29/56/71 50/51/72
f 28/73/59 43/69/60 29/77/71
f 29/77/71 43/69/60 50/68/72
f 7/10/10 8/61/41 52/11/11
f 52/11/11 8/61/41 51/65/73
f 57/57/17 12/45/15 56/18/23
f 56/18/23 12/45/15 15/19/22
f 53/58/13 54/13/19 10/22/12
f 10/22/12 54/13/19 13/12/18
f 9/41/14 58/40/16 8/61/41
f 8/61/41 58/40/16 51/65/73
f 53/14/13 52/11/11 11/64/74
f 11/64/74 52/11/11 51/65/73
f 55/16/21 54/13/19 11/63/74
f 11/63/74 54/13/19 53/58/13
f 56/18/23 55/16/21 57/57/17
f 57/57/17 55/16/21 11/63/74
f 58/40/16 57/48/17 51/65/73
f 51/65/73 57/48/17 11/64/74
