# This file uses centimeters as units for non-parametric coordinates.

v -0.002985 -0.173047 -0.075057
v -0.002985 -0.037758 -0.209202
v -0.002985 -0.107916 0.307786
v -0.002985 0.081610 -0.275827
v -0.003013 0.121631 0.217209
v -0.003081 0.183330 -0.246531
v -0.003102 0.149389 0.204183
v -0.003487 0.242805 -0.162570
v -0.003268 0.224482 0.161434
v -0.002916 0.287624 -0.050651
v -0.002771 0.273532 0.039625
v -0.002987 0.071725 0.235468
v -0.002986 0.046779 0.244840
v -0.002985 -0.144284 0.306646
v -0.002985 0.008328 0.251106
v -0.002985 -0.053780 0.272393
v -0.002985 -0.224396 0.177817
v -0.002985 -0.235694 -0.057751
v -0.002985 -0.194958 0.298013
v -0.002985 -0.230653 0.090148
v -0.002985 -0.329030 0.040795
v -0.002985 -0.325071 0.078206
v -0.002985 -0.334012 0.004910
v -0.002985 -0.332840 -0.039339
v -0.002985 -0.184871 -0.062889
v -0.002985 -0.229422 0.251280
v 0.092073 -0.151526 -0.048880
v 0.140562 -0.107351 -0.101086
v -0.002985 -0.108701 -0.140073
v 0.123272 -0.134915 -0.013606
v 0.143492 -0.110608 0.025996
v 0.155482 -0.073295 0.027727
v 0.163238 -0.064511 -0.069764
v 0.160541 -0.139828 0.108559
v 0.145279 -0.142865 0.091489
v 0.102512 -0.188766 0.125554
v 0.132194 -0.186616 0.151122
v 0.095064 -0.143425 0.281185
v 0.139612 -0.147302 0.222662
v 0.107973 -0.112003 0.267136
v 0.127467 -0.032507 -0.179609
v 0.071812 0.084012 -0.243039
v 0.161985 -0.048029 0.019122
v 0.175342 0.007996 0.015183
v 0.147621 -0.005082 0.110499
v 0.151999 -0.018091 0.082510
v 0.114919 0.038073 0.228962
v 0.115923 0.076375 0.226973
v 0.104547 0.165261 -0.219756
v 0.169823 0.047652 0.034068
v 0.105356 0.114211 0.141508
v 0.089829 0.111747 0.209250
v 0.074246 0.132083 0.193168
v 0.102246 0.225629 -0.147745
v 0.166733 0.050878 0.058251
v 0.166279 0.047124 0.084089
v 0.133268 0.079429 0.138583
v 0.127260 0.171063 0.121334
v 0.153880 0.105139 0.107924
v 0.079645 0.209318 0.139476
v 0.074647 -0.191785 -0.031935
v 0.053654 -0.242502 -0.035341
v 0.105476 -0.180383 0.016867
v 0.086729 -0.185902 -0.001655
v 0.060246 -0.241312 -0.010784
v 0.076327 -0.240664 0.011808
v 0.151789 0.007210 0.112057
v 0.151968 0.006329 0.082417
v 0.102845 0.262427 -0.054797
v 0.144981 0.209552 0.031725
v 0.174110 0.225086 -0.046355
v 0.193439 0.130425 0.025690
v 0.167926 0.135397 0.065472
v 0.099719 0.255882 0.031776
v 0.155616 0.025761 0.109842
v 0.198540 0.113271 -0.017702
v 0.207495 0.087422 -0.066125
v 0.151263 -0.017020 0.116524
v 0.149693 0.022782 0.169988
v 0.170258 0.205231 -0.113198
v 0.171908 0.154297 -0.173970
v 0.195945 0.028379 -0.091118
v 0.173952 -0.024175 -0.089405
v 0.127526 0.081527 0.165034
v 0.162506 -0.044507 0.095629
v 0.144909 -0.047325 0.143860
v 0.145328 -0.013071 0.154959
v 0.126675 -0.047681 0.220973
v 0.122947 -0.001167 0.216348
v 0.206027 0.020202 0.027613
v 0.188303 -0.036969 0.037355
v 0.143880 -0.168696 0.192749
v 0.168118 -0.122171 0.146074
v 0.163721 -0.068145 0.060138
v 0.159597 -0.100562 0.052926
v 0.158423 -0.095095 0.069386
v 0.163723 -0.086340 0.081635
v 0.156986 -0.112854 0.195646
v 0.162056 -0.074477 0.094930
v 0.063471 -0.239784 0.057078
v 0.119897 -0.164578 0.047644
v 0.073587 -0.204922 0.099984
v 0.058090 -0.221065 0.165976
v 0.034395 -0.222647 0.097071
v 0.034656 -0.255823 0.076782
v 0.064024 -0.297649 0.050053
v 0.071607 -0.305395 0.013140
v 0.075925 -0.309290 -0.039622
v 0.111470 -0.184767 0.236760
v 0.067001 -0.217589 0.202547
v 0.058732 -0.198151 0.286257
v 0.046727 -0.222342 0.249609
v 0.165485 0.077550 -0.210146
v -0.002985 -0.266586 0.081094
v 0.038517 -0.310283 0.064139
v 0.144709 0.046565 0.171926
v -0.002985 -0.304324 -0.057170
v 0.045325 -0.307118 -0.047215
v 0.049650 0.243274 -0.343955
v 0.014269 0.216042 -0.201753
v 0.031954 0.213592 -0.255877
v 0.181795 0.206156 0.009207
v 0.177160 0.119791 0.060461
v 0.187568 0.147222 0.040529
v 0.096690 0.239085 -0.133092
v 0.155313 0.243746 -0.020683
v 0.143805 0.240911 -0.079321
v 0.113586 0.285724 -0.055423
v 0.077124 0.255546 0.007922
v 0.090530 0.257209 0.012600
v 0.115135 0.265715 -0.073111
v 0.154166 0.229812 0.040161
v 0.152690 0.238618 0.006068
v 0.053063 0.266182 -0.110485
v 0.085626 0.271976 -0.024116
v 0.088731 0.275728 -0.047734
v -0.006835 0.125889 0.255331
v 0.016973 0.167761 0.205454
v -0.045058 0.109723 0.284724
v 0.139754 0.245176 0.037820
v 0.112626 0.265941 -0.043427
v 0.138492 0.240914 0.089431
v 0.228035 0.062461 -0.114313
v 0.165083 0.115391 -0.206194
v 0.191495 0.052977 0.001811
v 0.023892 0.290950 -0.041646
v 0.045121 0.246208 0.019678
v 0.060062 0.240915 0.009625
v 0.126346 0.273413 -0.241334
v -0.026906 0.249627 -0.194492
v 0.045987 0.245223 -0.220317
v 0.007818 0.283121 -0.098205
v 0.016341 0.278181 -0.018632
v 0.035749 0.278596 -0.046787
v 0.173943 0.206183 0.032766
v 0.177791 0.224833 -0.032824
v 0.130789 0.193347 0.087020
v -0.179185 0.016826 0.084340
v -0.197975 -0.164005 0.097057
v -0.155735 0.076360 0.124300
v 0.205685 0.129857 -0.107332
v 0.171586 0.182215 -0.135197
v 0.210615 0.095238 -0.050930
v 0.017691 0.174013 -0.338424
v 0.013210 0.225828 -0.248312
v 0.001900 0.203000 -0.241972
v -0.058384 0.274672 -0.087407
v -0.007891 0.251328 0.095763
v 0.013085 0.267159 0.053994
v 0.239007 -0.104964 0.083096
v 0.145149 0.031307 0.103999
v 0.168004 -0.031914 0.141837
v -0.146964 -0.107351 -0.101086
v -0.098327 -0.151526 -0.048880
v -0.101518 -0.143392 0.281506
v -0.114334 -0.111992 0.267215
v -0.095879 0.111633 0.209185
v -0.079983 0.132457 0.192452
v -0.112643 0.207448 0.169476
v -0.104662 0.254940 0.031693
v -0.109122 0.261395 -0.055066
v -0.121745 0.077841 0.226422
v -0.132700 -0.047702 0.220782
v -0.080849 -0.191785 -0.031935
v -0.146136 -0.147317 0.222828
v -0.117926 -0.184569 0.237322
v -0.149372 -0.168775 0.191583
v -0.064241 -0.221065 0.165976
v -0.108725 -0.188716 0.125552
v -0.138018 -0.186688 0.150309
v -0.073088 -0.217526 0.202544
v -0.064886 -0.198151 0.286257
v -0.052845 -0.222342 0.249609
v -0.181856 0.007996 0.015182
v -0.175448 0.049126 0.034294
v -0.170985 0.055024 0.058820
v -0.213480 0.022313 0.027678
v -0.108514 0.225629 -0.147745
v -0.133830 -0.032507 -0.179609
v -0.078116 0.084012 -0.243039
v -0.110828 0.165306 -0.219783
v -0.178402 0.154297 -0.173970
v -0.176745 0.205320 -0.113139
v -0.205074 0.114120 -0.018060
v -0.214046 0.087928 -0.066339
v -0.171963 0.077550 -0.210146
v -0.202514 0.028379 -0.091118
v -0.173669 -0.122568 0.144642
v -0.162832 -0.113119 0.194469
v -0.166744 -0.140204 0.108178
v -0.180653 0.225774 -0.046155
v -0.200203 0.131431 0.025756
v -0.150523 0.209425 0.031756
v -0.174624 0.136328 0.065705
v -0.129377 0.195905 0.119845
v -0.180454 -0.024175 -0.089405
v -0.169709 -0.064511 -0.069764
v -0.169388 -0.048195 0.018982
v -0.092968 -0.185902 -0.001655
v -0.111772 -0.180383 0.016867
v -0.082534 -0.240664 0.011808
v -0.066404 -0.241312 -0.010784
v -0.040474 -0.222647 0.097071
v -0.079786 -0.204922 0.099984
v -0.040737 -0.255823 0.076782
v -0.044610 -0.310283 0.064139
v -0.069639 -0.239784 0.057078
v -0.070193 -0.297649 0.050053
v -0.120121 0.039116 0.228736
v -0.128978 -0.001355 0.216506
v -0.133814 0.081382 0.164353
v -0.149921 0.045932 0.171365
v -0.111040 0.114278 0.141264
v -0.154983 0.021821 0.170057
v -0.158632 0.110172 0.107726
v -0.159250 0.009627 0.082589
v -0.170519 0.051707 0.084433
v -0.158814 0.007035 0.112242
v -0.163368 0.026765 0.109858
v -0.139305 0.078621 0.138056
v -0.059792 -0.242502 -0.035341
v -0.051438 -0.307118 -0.047215
v -0.077800 -0.305395 0.013140
v -0.082131 -0.309290 -0.039622
v -0.063488 0.141265 0.245782
v 0.012737 0.157787 0.140288
v -0.077993 0.129226 0.320688
v -0.210060 0.219431 -0.022064
v -0.116026 0.237695 -0.140741
v -0.213210 0.186927 0.062061
v -0.209766 0.122273 -0.155217
v -0.171430 0.162734 -0.210930
v -0.219853 0.098060 -0.040514
v -0.030117 0.313954 -0.091147
v -0.029079 0.273203 -0.033002
v -0.043071 0.270591 -0.036272
v 0.046615 0.169884 0.154066
v 0.116481 0.031017 0.391903
v 0.064611 0.065581 0.335638
v -0.065033 0.223616 -0.355341
v -0.035865 0.264274 -0.193842
v -0.044804 0.219355 -0.220630
v -0.131673 0.267381 -0.017023
v -0.153143 0.226723 0.099957
v -0.123999 0.264557 -0.094867
v -0.010045 0.284268 0.022471
v -0.002810 0.295401 -0.065574
v 0.005008 0.271130 0.069731
v -0.063830 0.243378 -0.220138
v -0.088353 0.307609 -0.230412
v -0.046223 0.266164 -0.198986
v -0.071861 0.283689 -0.122406
v -0.092236 0.288555 -0.028327
v -0.089561 0.260987 0.072517
v -0.023729 0.324024 -0.177774
v 0.014086 0.202618 -0.082352
v -0.009393 0.241573 -0.113306
v -0.095819 0.328566 -0.139980
v -0.017282 0.232207 -0.089656
v -0.063515 0.240240 -0.115335
v -0.145540 0.029736 0.120616
v -0.247288 -0.059973 0.106737
v -0.137265 0.040833 0.102303
v -0.156917 0.186402 0.084666
v -0.223244 0.207832 0.040300
v -0.129706 0.201514 0.098001
v 0.008830 0.225237 0.190085
v -0.064936 0.275240 0.042535
v -0.026513 0.279014 0.114101
v -0.096145 0.279075 -0.267145
v -0.017015 0.247612 -0.198351
v -0.059670 0.242419 -0.210994
v -0.322272 0.178326 0.021176
v -0.130163 0.184710 0.084908
v -0.178490 0.155478 0.083916
v -0.190565 0.304632 0.075274
v -0.074926 0.220201 0.159173
v -0.126920 0.192524 0.170626
v -0.129622 -0.134915 -0.013606
v -0.161873 -0.073312 0.027727
v -0.149608 -0.110696 0.025996
v -0.194927 -0.037320 0.037173
v -0.151554 -0.143142 0.091518
v -0.126236 -0.164578 0.047644
v -0.166070 -0.100802 0.052865
v -0.170332 -0.086586 0.081629
v -0.168377 -0.074653 0.094922
v -0.164994 -0.095370 0.069364
v -0.170519 -0.068402 0.060013
v -0.150167 -0.047558 0.143535
v -0.150579 -0.014022 0.155387
v -0.156909 -0.017268 0.116742
v -0.153995 -0.004968 0.110771
v -0.168053 -0.044749 0.095569
v -0.158394 -0.017529 0.082481
v -0.160415 0.187381 0.194882
v -0.057772 0.199741 0.219804
v 0.059053 0.206284 -0.184681
v 0.035249 0.172533 -0.216029
v -0.005898 0.165079 -0.228280
v -0.007362 0.241640 -0.138567
v 0.039249 0.232193 -0.151600
v -0.047330 0.172731 -0.209003
v -0.073771 0.178620 -0.165676
v -0.055604 0.202011 -0.132283
v 0.032499 0.208658 -0.257440
v 0.056134 0.240653 -0.224949
v -0.009228 0.197878 -0.270415
v -0.010724 0.245418 -0.228681
v -0.010485 0.272548 -0.174648
v 0.036500 0.268317 -0.193011
v -0.053089 0.215687 -0.257336
v -0.075879 0.235823 -0.222091
v -0.060553 0.267802 -0.196763
v -0.156531 -0.107705 -0.027988
v -0.142669 -0.091147 -0.049356
v -0.193176 -0.209417 -0.108264
v -0.102744 -0.142724 -0.068431
v -0.086768 -0.119774 -0.080305
v -0.069317 -0.234651 -0.160974
v -0.110507 -0.101558 -0.064900
v -0.082882 -0.110722 -0.073607
v -0.179147 -0.202607 -0.121556
v -0.008172 -0.131466 -0.074261
v 0.028147 -0.148328 -0.077323
v -0.096753 -0.256354 -0.165051
v 0.022091 -0.147144 -0.086136
v 0.040668 -0.133298 -0.066487
v 0.061852 -0.272972 -0.059327
v 0.131681 -0.096616 -0.007673
v 0.146972 -0.109852 0.014996
v 0.108091 -0.208810 -0.078301
v -0.072041 -0.095138 -0.122594
v -0.035307 -0.082487 -0.112428
v -0.036939 -0.269460 -0.114470
v 0.122423 -0.151330 -0.058798
v 0.114468 -0.144857 -0.070703
v 0.075098 -0.198388 -0.096562
v 0.063995 -0.215583 -0.109181
v -0.025958 -0.190359 -0.157810
v -0.046433 -0.204473 -0.163537
v -0.081279 -0.163758 -0.134554
v -0.090283 -0.170556 -0.124892
v 0.215756 0.178031 -0.102646
v 0.192517 0.188405 -0.090393
v 0.219601 0.157200 0.059222
v 0.124804 0.217546 -0.164351
v 0.170605 0.019081 -0.199978
v 0.168916 0.050010 -0.176938
v 0.200782 -0.001461 -0.034210
v 0.096301 0.086307 -0.243967
v -0.201344 0.221252 -0.082882
v -0.202715 0.187493 -0.119326
v -0.235532 0.109228 0.021712
v -0.085220 0.221621 -0.183411
v -0.186602 0.036555 -0.198929
v -0.171406 0.006429 -0.201725
v -0.212822 0.015891 -0.067894
v -0.058136 0.042266 -0.245529
v -0.066481 0.298118 -0.011670
v -0.048952 0.296201 -0.028033
v 0.032976 0.330329 -0.171943
v -0.020398 0.246859 -0.190875
v 0.016125 0.281817 -0.180817
v -0.032653 0.255912 0.116787
v 0.100333 0.222347 0.122708
v 0.081074 0.228146 0.123963
v 0.067403 0.180759 0.190252
v 0.098694 0.268879 0.040217
v -0.102841 0.282039 -0.030122
v 0.163890 0.219002 0.031860
v 0.062780 0.277501 -0.240778
v 0.070366 0.262205 -0.238287
v 0.045276 0.145391 0.275185
v 0.070223 0.142651 0.277872
v -0.276314 0.257403 0.132214
v -0.079428 0.090595 0.092169
v -0.037098 0.141249 0.051238
v -0.168803 0.221299 0.138807
v -0.157759 0.242659 0.118345
v -0.049618 0.231996 0.189710
v -0.068894 0.247066 0.150868
v 0.038996 0.178326 0.160602
v 0.047504 0.245277 0.031850
v 0.040431 0.197672 0.130928
v -0.183907 0.233918 -0.008392
vt 0.861160 0.625919
vt 0.128955 0.273107
vt 0.128955 0.243798
vt 0.844772 0.596193
vt 0.848374 0.768449
vt 0.860266 0.790722
vt 0.807013 0.787972
vt 0.807014 0.764665
vt 0.874508 0.905770
vt 0.867915 0.945013
vt 0.807002 0.948464
vt 0.807008 0.907896
vt 0.201460 0.243798
vt 0.201460 0.273107
vt 0.167953 0.008175
vt 0.167953 0.048328
vt 0.128955 0.048328
vt 0.128955 0.008175
vt 0.873662 0.877840
vt 0.807010 0.883194
vt 0.862107 0.803412
vt 0.807010 0.805968
vt 0.806958 0.599781
vt 0.806935 0.628383
vt 0.873773 0.767005
vt 0.863785 0.742673
vt 0.883222 0.746954
vt 0.853863 0.721301
vt 0.886271 0.726333
vt 0.883778 0.736543
vt 0.856285 0.729088
vt 0.807005 0.737810
vt 0.833728 0.738991
vt 0.806995 0.718301
vt 0.825209 0.725924
vt 0.807004 0.725939
vt 0.974705 0.855695
vt 0.971926 0.874296
vt 0.964670 0.876656
vt 0.960823 0.857381
vt 0.128955 0.110171
vt 0.128955 0.076760
vt 0.167953 0.076760
vt 0.167953 0.110171
vt 0.128955 0.143995
vt 0.167953 0.143995
vt 0.230071 0.206005
vt 0.230071 0.176406
vt 0.261891 0.158824
vt 0.261891 0.206005
vt 0.230071 0.143995
vt 0.201460 0.143995
vt 0.201460 0.110171
vt 0.230071 0.110171
vt 0.897531 0.770212
vt 0.883084 0.784060
vt 0.899175 0.755874
vt 0.900172 0.807185
vt 0.201460 0.076760
vt 0.230071 0.076760
vt 0.201460 0.048328
vt 0.261891 0.110171
vt 0.201460 0.226979
vt 0.904383 0.747943
vt 0.921143 0.785406
vt 0.912291 0.789810
vt 0.941220 0.815645
vt 0.931962 0.785140
vt 0.910168 0.732862
vt 0.943684 0.784526
vt 0.230071 0.226979
vt 0.230071 0.243798
vt 0.861452 0.592188
vt 0.965161 0.778782
vt 0.948619 0.856678
vt 0.943412 0.839306
vt 0.957675 0.834832
vt 0.971103 0.831129
vt 0.975397 0.801156
vt 0.951904 0.812049
vt 0.954961 0.781998
vt 0.872549 0.626107
vt 0.888407 0.628637
vt 0.884582 0.586813
vt 0.806998 0.711648
vt 0.853409 0.712808
vt 0.886675 0.718870
vt 0.887288 0.705193
vt 0.851614 0.703683
vt 0.806998 0.700855
vt 0.806975 0.677292
vt 0.841315 0.680009
vt 0.806993 0.667884
vt 0.875009 0.684271
vt 0.807010 0.844300
vt 0.870062 0.843773
vt 0.867084 0.823558
vt 0.807008 0.826448
vt 0.905627 0.841949
vt 0.902702 0.823240
vt 0.923784 0.825285
vt 0.929631 0.839738
vt 0.906401 0.873731
vt 0.930221 0.855403
vt 0.904350 0.898774
vt 0.902700 0.943141
vt 0.261891 0.226979
vt 0.949844 0.880231
vt 0.935714 0.882996
vt 0.923176 0.897302
vt 0.923812 0.584713
vt 0.925615 0.632179
vt 0.882718 0.558023
vt 0.856032 0.566713
vt 0.903978 0.553015
vt 0.838024 0.574565
vt 0.806958 0.579188
vt 0.806962 0.552123
vt 0.833357 0.549810
vt 0.201460 0.008175
vt 0.230071 0.048328
vt 0.261891 0.076760
vt 0.230071 0.008175
vt 0.868930 0.539860
vt 0.261891 0.008175
vt 0.261891 0.273107
vt 0.261891 0.243798
vt 0.051734 0.273107
vt 0.051734 0.243798
vt 0.088585 0.049151
vt 0.104221 0.026628
vt 0.088585 0.110171
vt 0.088585 0.076760
vt 0.088585 0.143995
vt 0.845055 0.547968
vt 0.806978 0.530559
vt 0.806968 0.537533
vt 0.902957 0.534071
vt 0.806986 0.527456
vt 0.335834 0.262315
vt 0.339604 0.281942
vt 0.332165 0.252983
vt 0.363746 0.201133
vt 0.374903 0.209299
vt 0.357927 0.198013
vt 0.360234 0.232326
vt 0.351988 0.247047
vt 0.360979 0.229186
vt 0.350357 0.232624
vt 0.351795 0.226043
vt 0.351875 0.223590
vt 0.351726 0.235969
vt 0.359156 0.210335
vt 0.358958 0.217769
vt 0.344531 0.248497
vt 0.344985 0.231511
vt 0.347879 0.235806
vt 0.332860 0.171284
vt 0.332441 0.186969
vt 0.328251 0.161005
vt 0.355639 0.212655
vt 0.354094 0.230454
vt 0.352902 0.203159
vt 0.368114 0.213061
vt 0.377558 0.235801
vt 0.365863 0.214330
vt 0.343517 0.234602
vt 0.342491 0.225025
vt 0.342357 0.221548
vt 0.339761 0.253243
vt 0.335789 0.235668
vt 0.341321 0.240098
vt 0.293093 0.175629
vt 0.289870 0.150505
vt 0.297350 0.175841
vt 0.364081 0.225527
vt 0.368547 0.237464
vt 0.356457 0.213334
vt 0.333334 0.271804
vt 0.332122 0.262650
vt 0.329885 0.258509
vt 0.375137 0.159065
vt 0.356927 0.172831
vt 0.361246 0.157739
vt 0.314986 0.161339
vt 0.311758 0.145784
vt 0.330621 0.182871
vt 0.289600 0.215376
vt 0.289825 0.205802
vt 0.289837 0.237076
vt 0.303911 0.235521
vt 0.305475 0.233072
vt 0.314767 0.246586
vt 0.031690 0.206005
vt 0.013605 0.206005
vt 0.013605 0.152018
vt 0.031690 0.176406
vt 0.848374 0.768449
vt 0.860266 0.790722
vt 0.807013 0.787972
vt 0.807014 0.764665
vt 0.874508 0.905770
vt 0.867915 0.945013
vt 0.807002 0.948464
vt 0.807008 0.907896
vt 0.322893 0.246164
vt 0.031690 0.143995
vt 0.051734 0.143995
vt 0.320127 0.230393
vt 0.051734 0.110171
vt 0.031690 0.110171
vt 0.051734 0.076760
vt 0.031690 0.076760
vt 0.873662 0.877840
vt 0.807010 0.883194
vt 0.862107 0.803412
vt 0.807010 0.805968
vt 0.861160 0.625919
vt 0.844772 0.596193
vt 0.806958 0.599781
vt 0.806935 0.628383
vt 0.873773 0.767005
vt 0.863785 0.742673
vt 0.883222 0.746954
vt 0.853863 0.721301
vt 0.886271 0.726333
vt 0.883778 0.736543
vt 0.856285 0.729088
vt 0.807005 0.737810
vt 0.833728 0.738991
vt 0.806995 0.718301
vt 0.825209 0.725924
vt 0.807004 0.725939
vt 0.974705 0.855695
vt 0.971926 0.874296
vt 0.964670 0.876656
vt 0.960823 0.857381
vt 0.051847 0.049151
vt 0.013605 0.110171
vt 0.031690 0.226979
vt 0.013605 0.226979
vt 0.069725 0.025891
vt 0.031690 0.049151
vt 0.013605 0.076760
vt 0.050600 0.008175
vt 0.031690 0.008175
vt 0.013605 0.049151
vt 0.013605 0.273107
vt 0.031690 0.243798
vt 0.013605 0.243798
vt 0.128955 0.226979
vt 0.167953 0.206005
vt 0.128955 0.206005
vt 0.897531 0.770212
vt 0.883084 0.784060
vt 0.899175 0.755874
vt 0.167953 0.176406
vt 0.128955 0.176406
vt 0.201460 0.176406
vt 0.201460 0.206005
vt 0.051734 0.226979
vt 0.088585 0.206005
vt 0.051734 0.206005
vt 0.088585 0.176406
vt 0.051734 0.176406
vt 0.861452 0.592188
vt 0.884582 0.586813
vt 0.882718 0.558023
vt 0.856032 0.566713
vt 0.806998 0.711648
vt 0.853409 0.712808
vt 0.886675 0.718870
vt 0.851614 0.703683
vt 0.806998 0.700855
vt 0.806975 0.677292
vt 0.841315 0.680009
vt 0.887288 0.705193
vt 0.806993 0.667884
vt 0.875009 0.684271
vt 0.807010 0.844300
vt 0.870062 0.843773
vt 0.867084 0.823558
vt 0.807008 0.826448
vt 0.904350 0.898774
vt 0.906401 0.873731
vt 0.902700 0.943141
vt 0.322897 0.230097
vt 0.905627 0.841949
vt 0.340008 0.079177
vt 0.948619 0.856678
vt 0.949844 0.880231
vt 0.334605 0.033186
vt 0.930221 0.855403
vt 0.935714 0.882996
vt 0.923176 0.897302
vt 0.341940 0.016378
vt 0.317204 0.281683
vt 0.838024 0.574565
vt 0.806958 0.579188
vt 0.806962 0.552123
vt 0.833357 0.549810
vt 0.868930 0.539860
vt 0.845055 0.547968
vt 0.806978 0.530559
vt 0.806968 0.537533
vt 0.902957 0.534071
vt 0.903978 0.553015
vt 0.806986 0.527456
vt 0.320609 0.257002
vt 0.322218 0.258149
vt 0.297285 0.221390
vt 0.298525 0.211887
vt 0.301058 0.235810
vt 0.326463 0.221325
vt 0.329297 0.210817
vt 0.328243 0.238928
vt 0.314567 0.255765
vt 0.317922 0.254937
vt 0.299070 0.269556
vt 0.324506 0.263230
vt 0.327150 0.240468
vt 0.331698 0.229608
vt 0.310012 0.257220
vt 0.316444 0.240830
vt 0.325501 0.234952
vt 0.299500 0.170505
vt 0.301200 0.175270
vt 0.279835 0.161969
vt 0.297041 0.197434
vt 0.302357 0.196862
vt 0.284027 0.208628
vt 0.310622 0.273498
vt 0.317615 0.258392
vt 0.325971 0.256675
vt 0.264599 0.208583
vt 0.292840 0.193605
vt 0.302370 0.197081
vt 0.069819 0.076956
vt 0.061377 0.045470
vt 0.081306 0.043773
vt 0.094870 0.008175
vt 0.298439 0.180172
vt 0.301201 0.186088
vt 0.292041 0.181915
vt 0.307543 0.187471
vt 0.312956 0.187791
vt 0.294790 0.185104
vt 0.327456 0.185048
vt 0.334501 0.183355
vt 0.310917 0.185869
vt 0.352684 0.179346
vt 0.351183 0.182331
vt 0.354409 0.176986
vt 0.357313 0.171150
vt 0.349914 0.175679
vt 0.343617 0.180364
vt 0.341512 0.180504
vt 0.333360 0.185108
vt 0.872549 0.626107
vt 0.336887 0.183263
vt 0.340926 0.164422
vt 0.888407 0.628637
vt 0.975397 0.801156
vt 0.954961 0.781998
vt 0.965161 0.778782
vt 0.957675 0.834832
vt 0.971103 0.831129
vt 0.904383 0.747943
vt 0.910168 0.732862
vt 0.923812 0.584713
vt 0.925615 0.632179
vt 0.921143 0.785406
vt 0.912291 0.789810
vt 0.931962 0.785140
vt 0.943684 0.784526
vt 0.951904 0.812049
vt 0.900172 0.807185
vt 0.902702 0.823240
vt 0.923784 0.825285
vt 0.929631 0.839738
vt 0.941220 0.815645
vt 0.943412 0.839306
vt 0.324383 0.192639
vt 0.320486 0.191947
vt 0.342712 0.462073
vt 0.348025 0.452124
vt 0.357222 0.448537
vt 0.357356 0.462380
vt 0.357239 0.475055
vt 0.346920 0.471389
vt 0.366776 0.453427
vt 0.371720 0.462131
vt 0.368226 0.470970
vt 0.342712 0.462294
vt 0.348050 0.452308
vt 0.357059 0.449353
vt 0.357102 0.475084
vt 0.346950 0.471480
vt 0.366096 0.453658
vt 0.371585 0.462353
vt 0.367538 0.471107
vt 0.315249 0.198542
vt 0.322311 0.198213
vt 0.322171 0.175037
vt 0.313613 0.192014
vt 0.311845 0.189456
vt 0.309138 0.182873
vt 0.312247 0.187862
vt 0.316121 0.187774
vt 0.367344 0.236514
vt 0.364795 0.240660
vt 0.367388 0.204868
vt 0.350875 0.253448
vt 0.363156 0.220255
vt 0.363964 0.226910
vt 0.368657 0.194917
vt 0.343728 0.238163
vt 0.287990 0.235854
vt 0.289099 0.237024
vt 0.281763 0.209459
vt 0.310335 0.252118
vt 0.293109 0.229513
vt 0.296159 0.226059
vt 0.287338 0.203349
vt 0.318299 0.238176
vt 0.336326 0.216976
vt 0.338727 0.214082
vt 0.337970 0.238343
vt 0.332822 0.187783
vt 0.340856 0.193058
vt 0.335741 0.262845
vt 0.325274 0.255238
vt 0.332438 0.257983
vt 0.325583 0.200778
vt 0.321564 0.200369
vt 0.322210 0.181904
vt 0.322229 0.220627
vt 0.348179 0.194275
vt 0.344327 0.194865
vt 0.341360 0.176394
vt 0.348130 0.215665
vt 0.310272 0.231487
vt 0.308178 0.230982
vt 0.310380 0.209266
vt 0.314762 0.247933
vt 0.363073 0.208522
vt 0.361096 0.210407
vt 0.354329 0.196981
vt 0.364016 0.222992
vt 0.341864 0.268059
vt 0.343346 0.265536
vt 0.354405 0.267411
vt 0.324002 0.256280
vt 0.338476 0.260111
vt 0.336315 0.047740
vt 0.341038 0.045696
vt 0.069819 0.076956
vt 0.061377 0.045470
vt 0.081306 0.043773
vt 0.074497 0.063441
vt 0.066432 0.064323
vt 0.114477 0.033634
vt 0.104621 0.048824
vt 0.148454 0.028252
vt 0.148852 0.076760
vt 0.149239 0.048328
vt 0.289828 0.213985
vn 0.000469 -0.710762 -0.703433
vn 0.000315 -0.739935 -0.672678
vn 0.374139 -0.799174 -0.470469
vn 0.672455 -0.641179 -0.369720
vn 0.603307 0.252675 0.756423
vn 0.001410 0.273463 0.961882
vn 0.546056 -0.112161 0.830206
vn 0.001497 -0.094323 0.995540
vn 0.633394 0.396701 0.664410
vn 0.470462 0.656558 0.589574
vn -0.000277 0.310355 0.950621
vn -0.001620 0.492044 0.870569
vn 0.731728 0.232196 0.640827
vn 0.000066 0.468290 0.883575
vn 0.671044 -0.548974 -0.498324
vn 0.660436 -0.462621 -0.591444
vn 0.000387 -0.622535 -0.782592
vn 0.000455 -0.328412 -0.944535
vn 0.834959 -0.211189 0.508176
vn 0.656035 -0.661989 0.362476
vn 0.861854 -0.451622 0.230748
vn 0.533320 -0.818097 -0.215145
vn 0.618822 -0.776950 -0.115797
vn 0.315538 -0.945622 -0.078961
vn 0.335204 -0.940249 0.059748
vn 0.000192 -0.652665 0.757646
vn 0.379793 -0.508442 0.772815
vn -0.000004 -0.999977 0.006733
vn 0.262614 -0.928249 0.263414
vn 0.000211 -0.960029 0.279902
vn 0.448585 -0.014944 -0.893615
vn 0.452127 0.720076 -0.526376
vn 0.926496 0.355186 -0.124294
vn 0.926074 0.262212 0.271351
vn 0.938137 -0.302845 -0.167881
vn 0.999951 0.007696 0.006164
vn 0.960738 -0.224782 0.162653
vn 0.951328 -0.183624 0.247503
vn 0.994697 0.055889 0.086344
vn 0.989982 -0.119584 0.075068
vn 0.932268 0.062807 0.356275
vn 0.914560 -0.340459 -0.218329
vn 0.943542 0.099766 0.315873
vn 0.962374 -0.113822 0.246742
vn 0.536325 -0.493428 -0.684751
vn 0.939549 -0.313962 -0.136663
vn 0.934409 -0.356123 -0.007507
vn 0.971614 -0.229680 0.056690
vn 0.838728 -0.496238 -0.224240
vn 0.956506 -0.220193 -0.191343
vn 0.783722 -0.443384 -0.434961
vn 0.940001 -0.102127 -0.325529
vn 0.127348 -0.674460 0.727246
vn 0.303741 -0.872309 0.383168
vn 0.555627 -0.824780 0.104964
vn 0.367595 -0.282648 0.885993
vn 0.229593 -0.167168 0.958823
vn 0.455236 -0.556985 0.694643
vn 0.440708 -0.613581 0.655206
vn 0.781543 -0.452510 0.429447
vn 0.380624 -0.917591 0.114684
vn 0.774401 -0.425107 0.468601
vn -0.000268 0.257483 0.966283
vn 0.519289 0.074626 0.851334
vn 0.717794 -0.062601 0.693435
vn -0.000311 0.088793 0.996050
vn 0.804566 0.568128 0.172926
vn 0.927644 0.279959 0.247184
vn 0.436870 0.532803 0.724752
vn 0.773633 0.420162 0.474296
vn 0.958909 -0.044119 0.280263
vn 0.806195 0.143953 0.573870
vn 0.907969 0.189321 0.373831
vn 0.767210 0.293447 0.570332
vn 0.712884 0.607998 0.349478
vn 0.939352 -0.151731 0.307564
vn 0.942341 -0.332238 0.040144
vn 0.965252 0.023916 0.260223
vn 0.996669 -0.034063 0.074095
vn 0.868518 0.484239 0.105776
vn 0.713481 0.220912 0.664938
vn 0.870026 0.030911 0.492037
vn 0.970533 -0.238188 0.036492
vn 0.542606 0.010703 -0.839919
vn 0.000498 -0.054684 -0.998504
vn 0.000349 -0.138217 -0.990402
vn 0.203414 -0.209889 -0.956331
vn 0.817951 -0.573814 0.041152
vn 0.747850 -0.454932 -0.483485
vn 0.000316 -0.771703 -0.635983
vn 0.326094 -0.942946 0.067202
vn 0.910757 0.299771 0.284006
vn 0.910757 0.299771 0.284006
vn 0.910757 0.299771 0.284006
vn 0.334494 0.467611 0.818201
vn 0.334494 0.467611 0.818201
vn 0.334494 0.467611 0.818201
vn 0.021115 0.998402 -0.052410
vn 0.021115 0.998402 -0.052410
vn 0.021115 0.998402 -0.052410
vn -0.223282 0.923638 0.311508
vn -0.223282 0.923638 0.311508
vn -0.223282 0.923638 0.311508
vn 0.185662 0.953309 0.238182
vn 0.185662 0.953309 0.238182
vn 0.185662 0.953309 0.238182
vn -0.404381 0.910011 0.091412
vn -0.404381 0.910011 0.091412
vn -0.404381 0.910011 0.091412
vn 0.240537 0.683804 0.688879
vn 0.240537 0.683804 0.688879
vn 0.240537 0.683804 0.688879
vn 0.433212 0.897304 0.084689
vn 0.433212 0.897304 0.084689
vn 0.433212 0.897304 0.084689
vn 0.433568 0.876778 0.208038
vn 0.433568 0.876778 0.208038
vn 0.433568 0.876778 0.208038
vn 0.523879 0.764211 0.376208
vn 0.523879 0.764211 0.376208
vn 0.523879 0.764211 0.376208
vn 0.059239 0.996698 0.055535
vn 0.059239 0.996698 0.055535
vn 0.059239 0.996698 0.055535
vn -0.924421 0.121479 0.361510
vn -0.924421 0.121479 0.361510
vn -0.924421 0.121479 0.361510
vn 0.703294 0.631636 0.326211
vn 0.703294 0.631636 0.326211
vn 0.703294 0.631636 0.326211
vn 0.892383 -0.370619 0.257476
vn 0.892383 -0.370619 0.257476
vn 0.892383 -0.370619 0.257476
vn 0.796492 0.495413 0.346651
vn 0.796492 0.495413 0.346651
vn 0.796492 0.495413 0.346651
vn 0.806549 -0.488685 -0.332664
vn 0.798681 -0.600993 -0.030269
vn 0.933110 -0.357121 0.042063
vn 0.878354 -0.389607 -0.276951
vn 0.913677 -0.279908 -0.294697
vn 0.758928 -0.441876 -0.478302
vn 0.938420 -0.345432 -0.006638
vn 0.756145 -0.592182 -0.278506
vn 0.790333 -0.603853 -0.103609
vn 0.943234 -0.288740 -0.164130
vn 0.992146 -0.096985 -0.079000
vn 0.994314 0.046622 0.095743
vn 0.950663 -0.263153 -0.164285
vn 0.989607 -0.139718 -0.034000
vn 0.934202 -0.214065 -0.285381
vn 0.939950 -0.260464 -0.220574
vn 0.981094 -0.151565 0.120345
vn 0.963563 0.128009 0.234861
vn 0.980400 -0.064798 0.186058
vn 0.998270 -0.000821 0.058784
vn 0.980749 0.154369 0.119589
vn 0.967411 0.217532 0.129599
vn 0.960674 0.153472 0.231411
vn -0.373247 -0.799522 -0.470586
vn -0.671688 -0.641817 -0.370008
vn -0.544177 -0.110609 0.831647
vn -0.605631 0.260108 0.752034
vn -0.638219 0.394803 0.660913
vn -0.469280 0.661582 0.584881
vn -0.736447 0.230497 0.636017
vn -0.670091 -0.549715 -0.498790
vn -0.659635 -0.463188 -0.591894
vn -0.843776 -0.209897 0.493948
vn -0.864663 -0.453791 0.215479
vn -0.657558 -0.663331 0.357226
vn -0.335289 -0.940253 0.059200
vn -0.619080 -0.776846 -0.115114
vn -0.315014 -0.945787 -0.079072
vn -0.530772 -0.819384 -0.216545
vn -0.376707 -0.509985 0.773309
vn -0.261970 -0.928535 0.263049
vn -0.443906 -0.011023 -0.896006
vn -0.913095 0.377996 -0.152893
vn -0.409250 0.719070 -0.561652
vn -0.915199 0.316456 0.249532
vn -0.938061 -0.302937 -0.168138
vn -0.962035 -0.217499 0.164870
vn -0.999922 0.009472 0.008126
vn -0.944619 -0.185553 0.270676
vn -0.995012 0.051745 0.085282
vn -0.937409 0.064277 0.342246
vn -0.989403 -0.119566 0.082380
vn -0.915031 -0.343092 -0.212147
vn -0.808904 0.582376 0.080703
vn -0.393793 0.910727 -0.124513
vn -0.779022 0.568255 -0.264974
vn -0.366727 0.789246 -0.492547
vn -0.938744 0.097260 0.330607
vn -0.722167 0.618439 0.309851
vn -0.913719 0.174970 0.366747
vn -0.953166 -0.133156 0.271560
vn -0.939512 -0.312842 -0.139451
vn -0.969593 -0.239400 0.050764
vn -0.939700 -0.102349 -0.326325
vn -0.956310 -0.220755 -0.191673
vn -0.782836 -0.444189 -0.435733
vn -0.838533 -0.496518 -0.224351
vn -0.126989 -0.674500 0.727271
vn -0.303029 -0.872491 0.383319
vn -0.555103 -0.825064 0.105497
vn -0.366778 -0.282739 0.886303
vn -0.454198 -0.557329 0.695046
vn -0.228967 -0.167184 0.958970
vn -0.439669 -0.613945 0.655563
vn -0.780771 -0.453234 0.430088
vn -0.773712 -0.425514 0.469369
vn -0.379662 -0.917983 0.114739
vn -0.520467 0.083118 0.849827
vn -0.720496 -0.054037 0.691351
vn -0.927108 0.273094 0.256693
vn -0.811770 0.560917 0.162486
vn -0.954378 -0.042240 0.295597
vn -0.863008 0.436453 0.254414
vn -0.807729 0.145892 0.571218
vn -0.965954 -0.258714 0.000655
vn -0.944402 -0.147175 0.294015
vn -0.970178 0.018438 0.241690
vn -0.996578 -0.049714 0.066035
vn -0.970926 0.187728 0.148531
vn -0.977978 -0.083078 0.191461
vn -0.962951 0.128024 0.237352
vn -0.876692 0.260430 0.404458
vn -0.871046 0.479165 0.108072
vn -0.700542 0.222622 0.677998
vn -0.886727 0.062059 0.458109
vn -0.996862 -0.024293 0.075338
vn -0.962046 -0.270011 0.039506
vn -0.541837 0.010684 -0.840415
vn -0.202833 -0.209893 -0.956454
vn -0.747465 -0.455028 -0.483990
vn -0.817600 -0.574314 0.041147
vn -0.325229 -0.943242 0.067228
vn 0.007653 0.987068 0.160118
vn 0.007653 0.987068 0.160118
vn 0.007653 0.987068 0.160118
vn -0.647911 0.754808 0.102355
vn -0.647911 0.754808 0.102355
vn -0.647911 0.754808 0.102355
vn -0.276141 0.784733 0.554924
vn -0.276141 0.784733 0.554924
vn -0.276141 0.784733 0.554924
vn -0.982888 0.105592 0.150933
vn -0.982888 0.105592 0.150933
vn -0.982888 0.105592 0.150933
vn -0.971128 0.214923 -0.103535
vn -0.971128 0.214923 -0.103535
vn -0.971128 0.214923 -0.103535
vn 0.350034 0.925328 0.145757
vn 0.350034 0.925328 0.145757
vn 0.350034 0.925328 0.145757
vn -0.678775 -0.143965 0.720096
vn -0.678775 -0.143965 0.720096
vn -0.678775 -0.143965 0.720096
vn -0.023403 0.613260 0.789535
vn -0.023403 0.613260 0.789535
vn -0.023403 0.613260 0.789535
vn -0.474869 0.071078 0.877182
vn -0.474869 0.071078 0.877182
vn -0.474869 0.071078 0.877182
vn -0.665438 0.732582 0.143237
vn -0.665438 0.732582 0.143237
vn -0.665438 0.732582 0.143237
vn -0.508793 0.171737 0.843585
vn -0.508793 0.171737 0.843585
vn -0.508793 0.171737 0.843585
vn -0.277863 0.711762 0.645126
vn -0.277863 0.711762 0.645126
vn -0.277863 0.711762 0.645126
vn -0.293704 0.457082 0.839532
vn -0.293704 0.457082 0.839532
vn -0.293704 0.457082 0.839532
vn -0.141438 0.593556 0.792267
vn -0.141438 0.593556 0.792267
vn -0.141438 0.593556 0.792267
vn -0.806440 -0.490691 -0.329966
vn -0.930902 -0.365129 -0.010137
vn -0.797952 -0.601968 -0.030125
vn -0.925713 -0.376057 0.040451
vn -0.876868 -0.391297 -0.279265
vn -0.914302 -0.286716 -0.286086
vn -0.937684 -0.347485 -0.001531
vn -0.756570 -0.449920 -0.474525
vn -0.751410 -0.596798 -0.281451
vn -0.789140 -0.605110 -0.105358
vn -0.940387 -0.293991 -0.171002
vn -0.992152 0.056839 0.111373
vn -0.992795 -0.097833 -0.069194
vn -0.948417 -0.270058 -0.166056
vn -0.989475 -0.142828 -0.023226
vn -0.927378 -0.230789 -0.294460
vn -0.938791 -0.267567 -0.216978
vn -0.980138 -0.160334 0.116716
vn -0.978051 0.153851 0.140522
vn -0.959205 0.127158 0.252501
vn 0.000305 -0.555540 -0.831490
vn 0.325268 -0.110214 -0.939177
vn 0.000763 -0.487369 -0.873196
vn 0.000810 -0.115083 -0.993356
vn 0.379214 0.501850 -0.777395
vn 0.000451 0.450113 -0.892971
vn 0.745025 -0.059724 -0.664358
vn 0.751233 0.424948 -0.505043
vn -0.535551 -0.493788 -0.685097
vn -0.324380 -0.110425 -0.939459
vn -0.744448 -0.059778 -0.664999
vn -0.378814 0.501762 -0.777647
vn -0.001108 0.870175 -0.492742
vn -0.750393 0.425563 -0.505772
vn -0.828725 0.193855 0.525009
vn 0.089858 0.730154 -0.677349
vn 0.075792 0.668157 -0.740150
vn -0.005407 0.766196 -0.642584
vn 0.053399 0.659723 -0.749609
vn -0.002100 0.842778 -0.538257
vn 0.009364 0.893618 -0.448730
vn -0.066629 0.740008 -0.669290
vn -0.174525 0.735308 -0.654876
vn -0.029948 0.795787 -0.604836
vn 0.987080 0.148641 0.059816
vn 0.746154 -0.476475 -0.465002
vn 0.982600 -0.099824 -0.156630
vn 0.558703 -0.617607 -0.553545
vn -0.044865 -0.773488 -0.632221
vn -0.044423 -0.790018 -0.611473
vn -0.158650 0.725561 0.669621
vn 0.544495 0.652695 0.526797
vn 0.097728 0.756947 0.646127
vn 0.755358 0.519878 0.398950
vn -0.703783 -0.551487 -0.447830
vn -0.587312 -0.648136 -0.484753
vn -0.997774 0.013598 0.065279
vn -0.955632 -0.243893 -0.165178
vn -0.712954 0.462731 0.526856
vn -0.708098 0.487252 0.511061
vn -0.862076 0.466624 -0.197705
vn -0.862076 0.466624 -0.197705
vn -0.862076 0.466624 -0.197705
vn -0.088777 0.532326 -0.841872
vn -0.088777 0.532326 -0.841872
vn -0.088777 0.532326 -0.841872
vn 0.161753 0.502637 -0.849230
vn 0.161753 0.502637 -0.849230
vn 0.161753 0.502637 -0.849230
vn 0.854808 0.123695 -0.503986
vn 0.863121 0.259029 -0.433504
vn 0.860148 0.169185 -0.481166
vn 0.864069 0.257792 -0.432351
vn 0.827348 -0.015784 -0.561468
vn 0.694781 0.076197 -0.715174
vn 0.326425 0.500767 -0.801673
vn 0.599945 0.263046 -0.755562
vn 0.381485 0.546325 -0.745653
vn 0.884263 -0.324637 -0.335693
vn 0.309148 -0.063507 -0.948891
vn 0.067133 0.374514 -0.924788
vn 0.246087 0.106447 -0.963385
vn 0.116728 0.393710 -0.911793
vn 0.520636 -0.464708 -0.716229
vn -0.792290 0.276139 -0.544081
vn -0.812347 0.315934 -0.490183
vn -0.816220 0.412057 -0.404963
vn -0.840131 0.389530 -0.377420
vn -0.764074 0.108101 -0.636007
vn 0.427871 0.902603 0.047259
vn 0.427871 0.902603 0.047259
vn 0.450428 0.886803 0.103420
vn 0.403640 0.914873 -0.009088
vn 0.877320 0.316585 -0.360672
vn 0.877320 0.316585 -0.360672
vn 0.973089 0.169461 -0.156144
vn 0.717814 0.440709 -0.538997
vn -0.806488 0.448578 -0.385170
vn -0.806488 0.448578 -0.385170
vn -0.975634 0.178047 -0.128206
vn -0.501990 0.643824 -0.577491
vn -0.687065 -0.284515 -0.668575
vn -0.687065 -0.284515 -0.668575
vn -0.875293 -0.419123 -0.241245
vn -0.336580 -0.082716 -0.938015
vn 0.039147 0.996215 0.077616
vn 0.031995 0.996080 -0.082465
vn -0.186078 0.932794 -0.308657
vn 0.150045 0.951942 0.267008
vn 0.049924 0.925358 0.375792
vn -0.147324 -0.128235 0.980740
vn -0.147324 -0.128235 0.980740
vn -0.147324 -0.128235 0.980740
vn -0.819854 0.276236 0.501531
vn -0.819854 0.276236 0.501531
vn -0.783691 0.273173 0.557858
vn -0.852336 0.278058 0.442952
vn 0.275605 0.799836 0.533203
vn 0.275605 0.799836 0.533203
vn 0.266854 0.757130 0.596275
vn 0.282736 0.837840 0.466996
vn -0.528218 0.848041 0.042581
vn -0.528218 0.848041 0.042581
vn -0.537368 0.809764 0.235621
vn -0.498565 0.853402 -0.152113
vn 0.699069 0.577937 0.421060
vn 0.699069 0.577937 0.421060
vn 0.605704 0.517681 0.604259
vn 0.760340 0.611660 0.218530
vn 0.253297 0.300171 0.919640
vn 0.212867 0.258999 0.942129
vn 0.019561 0.170148 0.985224
vn 0.363081 0.356728 0.860766
vn 0.329447 0.377249 0.865533
vn 0.035209 0.844543 0.534328
vn -0.121200 0.775018 0.620208
vn 0.085863 0.976356 0.198387
vn -0.214782 0.595731 0.773934
vn -0.401161 0.567911 0.718712
vn 0.467875 0.473177 0.746456
vn 0.650714 0.209570 0.729830
vn 0.513232 0.369680 0.774552
vn 0.579646 0.161091 0.798787
vn 0.167222 0.635577 0.753710
vn -0.390733 0.087757 0.916311
vn -0.078155 0.365419 0.927556
vn -0.511432 0.843692 0.163160
vn -0.449326 0.734815 0.508087
vn -0.530178 0.761033 0.373819
vn -0.514567 0.799657 0.309465
vn 0.092343 0.666707 0.739577
vn 0.053158 0.998572 -0.005417
vn 0.331918 0.940444 -0.073455
vn 0.367480 0.787152 -0.495329
vn 0.782000 0.565013 -0.263128
vn 0.815187 0.573774 0.079078
vn 0.170907 0.794536 0.582669
vn 0.281962 0.923821 0.258944
vn 0.415814 0.860756 0.293594
vn 0.270069 0.926638 0.261542
vn 0.283788 0.389081 0.876402
vn 0.605765 0.700845 0.376649
vn 0.504364 0.707735 0.494700
vn 0.230927 0.675014 0.700735
vn 0.436474 0.733911 0.520447
vn 0.119741 0.963002 0.241431
vn -0.342721 0.827250 0.445196
vn -0.244396 0.929670 0.275653
vn -0.503671 0.862471 0.049585
vn -0.503671 0.862471 0.049585
vn -0.402536 0.897362 -0.180848
vn -0.572297 0.771912 0.276817
f 1/2/1 29/3/2 27/14/3
f 27/14/3 29/3/2 28/13/4
f 40/6/5 3/7/6 38/5/7
f 38/5/7 3/7/6 14/8/8
f 48/19/9 52/9/10 12/20/11
f 12/20/11 52/9/10 5/12/12
f 88/21/13 16/22/14 40/6/5
f 40/6/5 16/22/14 3/7/6
f 27/1/15 61/4/16 1/24/17
f 1/24/17 61/4/16 25/23/18
f 39/25/19 109/26/20 92/27/21
f 36/29/22 37/30/23 103/28/24
f 103/28/24 37/30/23 110/31/25
f 92/27/21 109/26/20 37/30/23
f 37/30/23 109/26/20 110/31/25
f 19/32/26 111/33/27 14/8/8
f 14/8/8 111/33/27 38/5/7
f 111/33/27 109/26/20 38/5/7
f 38/5/7 109/26/20 39/25/19
f 103/28/24 110/31/25 17/34/28
f 17/34/28 110/31/25 112/35/29
f 110/31/25 109/26/20 112/35/29
f 112/35/29 109/26/20 111/33/27
f 26/36/30 112/35/29 19/32/26
f 19/32/26 112/35/29 111/33/27
f 26/36/30 17/34/28 112/35/29
f 44/37/31 50/38/32 90/40/33
f 90/40/33 50/38/32 55/39/34
f 82/47/35 77/48/36 44/50/37
f 44/50/37 77/48/36 50/49/38
f 50/49/38 77/48/36 76/51/39
f 93/55/40 98/56/41 92/27/21
f 92/27/21 98/56/41 39/25/19
f 34/57/42 93/55/40 37/30/23
f 37/30/23 93/55/40 92/27/21
f 98/56/41 40/6/5 39/25/19
f 39/25/19 40/6/5 38/5/7
f 76/51/39 72/54/43 50/49/38
f 50/49/38 72/54/43 55/62/44
f 41/63/45 83/71/46 28/13/4
f 28/13/4 83/71/46 33/72/47
f 43/107/48 83/71/46 44/50/37
f 44/50/37 83/71/46 82/47/35
f 63/84/49 66/113/50 64/73/51
f 64/73/51 66/113/50 65/114/52
f 20/85/53 104/86/54 17/34/28
f 17/34/28 104/86/54 103/28/24
f 36/29/22 103/28/24 102/87/55
f 102/87/55 103/28/24 104/86/54
f 105/89/56 114/90/57 115/92/58
f 115/92/58 114/90/57 22/91/59
f 105/89/56 100/88/60 104/86/54
f 104/86/54 100/88/60 102/87/55
f 115/92/58 21/93/61 106/94/62
f 114/90/57 105/89/56 20/85/53
f 20/85/53 105/89/56 104/86/54
f 100/88/60 105/89/56 106/94/62
f 106/94/62 105/89/56 115/92/58
f 21/93/61 115/92/58 22/91/59
f 13/95/63 47/96/64 12/20/11
f 12/20/11 47/96/64 48/19/9
f 89/97/65 15/98/66 88/21/13
f 88/21/13 15/98/66 16/22/14
f 13/95/63 15/98/66 47/96/64
f 47/96/64 15/98/66 89/97/65
f 52/9/10 48/19/9 84/105/67
f 84/105/67 48/19/9 116/103/68
f 53/10/69 52/9/10 51/106/70
f 51/106/70 52/9/10 84/105/67
f 79/99/71 116/103/68 47/96/64
f 47/96/64 116/103/68 48/19/9
f 59/121/72 73/60/73 58/61/74
f 58/61/74 73/60/73 70/59/75
f 90/40/33 55/39/34 68/75/76
f 68/75/76 55/39/34 56/108/77
f 72/54/43 73/60/73 55/62/44
f 55/62/44 73/60/73 56/122/78
f 75/109/79 57/110/80 116/103/68
f 116/103/68 57/110/80 84/105/67
f 84/105/67 57/110/80 51/106/70
f 57/123/81 59/121/72 51/120/70
f 51/120/70 59/121/72 58/61/74
f 75/125/82 59/121/72 57/123/81
f 67/104/83 68/75/76 75/109/79
f 75/109/79 68/75/76 56/108/77
f 75/125/82 56/122/78 59/121/72
f 59/121/72 56/122/78 73/60/73
f 62/116/84 61/4/16 65/114/52
f 65/114/52 61/4/16 64/73/51
f 61/4/16 62/116/84 25/23/18
f 25/23/18 62/116/84 18/117/85
f 18/117/85 62/116/84 117/118/86
f 117/118/86 62/116/84 118/119/87
f 66/113/50 107/124/88 65/114/52
f 65/114/52 107/124/88 108/135/89
f 24/137/90 108/135/89 23/136/91
f 23/136/91 108/135/89 107/124/88
f 107/124/88 66/113/50 106/138/62
f 106/138/62 66/113/50 100/115/60
f 23/136/91 107/124/88 21/139/61
f 21/139/61 107/124/88 106/138/62
f 118/119/87 24/137/90 117/118/86
f 118/119/87 62/116/84 108/135/89
f 108/135/89 62/116/84 65/114/52
f 24/137/90 118/119/87 108/135/89
f 121/140/92 119/141/93 120/142/94
f 124/143/95 122/144/96 123/145/97
f 127/146/98 125/147/99 126/148/100
f 128/149/101 129/150/102 130/151/103
f 131/152/104 132/153/105 133/154/106
f 134/155/107 135/156/108 136/157/109
f 137/158/110 138/159/111 139/160/112
f 140/161/113 141/162/114 142/163/115
f 143/164/116 144/165/117 145/166/118
f 146/167/119 147/168/120 148/169/121
f 152/170/122 153/171/123 154/172/124
f 158/173/125 159/174/126 160/175/127
f 161/176/128 162/177/129 163/178/130
f 164/179/131 165/180/132 166/181/133
f 170/182/134 171/183/135 172/184/136
f 61/4/16 27/1/15 64/73/51
f 64/73/51 27/1/15 30/82/137
f 27/14/3 28/13/4 30/126/138
f 30/126/138 28/13/4 33/72/47
f 32/127/139 33/72/47 43/107/48
f 43/107/48 33/72/47 83/71/46
f 32/127/139 30/126/138 33/72/47
f 31/83/140 63/84/49 30/82/137
f 30/82/137 63/84/49 64/73/51
f 32/79/141 31/81/140 30/74/137
f 43/78/142 44/37/31 91/77/143
f 91/77/143 44/37/31 90/40/33
f 34/57/42 37/30/23 35/64/144
f 35/64/144 37/30/23 36/29/22
f 35/64/144 36/29/22 101/69/145
f 101/69/145 36/29/22 102/87/55
f 102/87/55 100/88/60 101/69/145
f 66/113/50 63/84/49 100/115/60
f 100/115/60 63/84/49 101/111/145
f 63/84/49 31/83/140 101/111/145
f 101/111/145 31/83/140 95/112/146
f 97/65/147 99/66/148 34/57/42
f 34/57/42 99/66/148 93/55/40
f 97/65/147 34/57/42 96/68/149
f 96/68/149 34/57/42 35/64/144
f 101/69/145 95/70/146 35/64/144
f 35/64/144 95/70/146 96/68/149
f 94/80/150 95/70/146 32/79/151
f 32/79/151 95/70/146 31/81/140
f 91/77/143 94/80/150 43/78/142
f 43/78/142 94/80/150 32/79/151
f 94/80/152 97/65/147 96/68/149
f 95/70/146 94/80/153 96/68/149
f 40/6/5 98/56/41 88/21/13
f 88/21/13 98/56/41 86/58/154
f 47/96/64 89/97/65 79/99/71
f 79/99/71 89/97/65 87/100/155
f 45/102/156 67/104/83 87/100/155
f 87/100/155 67/104/83 79/99/71
f 86/58/154 87/100/155 88/21/13
f 88/21/13 87/100/155 89/97/65
f 67/104/83 75/109/79 79/99/71
f 79/99/71 75/109/79 116/103/68
f 99/66/148 86/58/154 93/55/40
f 93/55/40 86/58/154 98/56/41
f 99/66/148 85/67/157 86/58/154
f 86/58/154 85/67/157 78/101/158
f 90/40/33 68/75/76 91/77/143
f 91/77/143 68/75/76 46/76/159
f 67/104/83 45/102/156 68/75/76
f 68/75/76 45/102/156 46/76/159
f 45/102/156 87/100/155 78/101/158
f 78/101/158 87/100/155 86/58/154
f 45/102/156 78/101/158 46/76/159
f 46/76/159 78/101/158 85/67/157
f 85/67/157 94/80/150 46/76/159
f 46/76/159 94/80/150 91/77/143
f 97/65/147 94/80/150 99/66/148
f 99/66/148 94/80/150 85/67/157
f 1/2/1 174/128/160 29/3/2
f 29/3/2 174/128/160 173/129/161
f 14/201/8 3/200/6 175/198/162
f 175/198/162 3/200/6 176/199/163
f 182/214/164 12/215/11 177/202/165
f 177/202/165 12/215/11 5/205/12
f 3/200/6 16/217/14 176/199/163
f 176/199/163 16/217/14 183/216/166
f 174/218/167 1/221/17 184/219/168
f 184/219/168 1/221/17 25/220/18
f 185/222/169 187/224/170 186/223/171
f 191/228/172 190/227/173 188/225/174
f 188/225/174 190/227/173 189/226/175
f 187/224/170 190/227/173 186/223/171
f 186/223/171 190/227/173 191/228/172
f 175/198/162 192/230/176 14/201/8
f 14/201/8 192/230/176 19/229/26
f 185/222/169 186/223/171 175/198/162
f 175/198/162 186/223/171 192/230/176
f 193/232/177 191/228/172 17/231/28
f 17/231/28 191/228/172 188/225/174
f 192/230/176 186/223/171 193/232/177
f 193/232/177 186/223/171 191/228/172
f 192/230/176 193/232/177 19/229/26
f 19/229/26 193/232/177 26/233/30
f 26/233/30 193/232/177 17/231/28
f 194/234/178 197/237/179 195/235/180
f 195/235/180 197/237/179 196/236/181
f 207/194/182 194/195/183 205/197/184
f 205/197/184 194/195/183 195/196/185
f 195/196/185 204/207/186 205/197/184
f 185/222/169 209/255/187 187/224/170
f 187/224/170 209/255/187 208/254/188
f 187/224/170 208/254/188 190/227/173
f 190/227/173 208/254/188 210/256/189
f 175/198/162 176/199/163 185/222/169
f 185/222/169 176/199/163 209/255/187
f 211/210/190 181/132/191 203/208/192
f 203/208/192 181/132/191 198/134/193
f 203/208/192 204/207/186 211/210/190
f 211/210/190 204/207/186 212/211/194
f 211/210/190 212/211/194 213/212/195
f 213/212/195 212/211/194 214/213/196
f 204/207/186 195/196/185 212/211/194
f 212/211/194 195/196/185 196/239/197
f 207/194/182 216/240/198 194/195/183
f 194/195/183 216/240/198 218/241/199
f 222/269/200 221/268/201 219/266/202
f 219/266/202 221/268/201 220/267/203
f 20/270/204 17/231/28 223/271/205
f 223/271/205 17/231/28 188/225/174
f 189/226/175 224/272/206 188/225/174
f 188/225/174 224/272/206 223/271/205
f 225/273/207 226/276/208 114/274/209
f 114/274/209 226/276/208 22/275/210
f 225/273/207 223/271/205 227/277/211
f 227/277/211 223/271/205 224/272/206
f 226/276/208 228/279/212 21/278/213
f 114/274/209 20/270/204 225/273/207
f 225/273/207 20/270/204 223/271/205
f 226/276/208 225/273/207 228/279/212
f 228/279/212 225/273/207 227/277/211
f 21/278/213 22/275/210 226/276/208
f 13/280/63 12/215/11 229/281/214
f 229/281/214 12/215/11 182/214/164
f 16/217/14 15/283/66 183/216/166
f 183/216/166 15/283/66 230/282/215
f 230/282/215 15/283/66 229/281/214
f 229/281/214 15/283/66 13/280/63
f 232/285/216 182/214/164 231/284/217
f 231/284/217 182/214/164 177/202/165
f 182/214/164 232/285/216 229/281/214
f 229/281/214 232/285/216 234/288/218
f 213/212/195 214/213/196 215/238/219
f 215/238/219 214/213/196 235/243/220
f 237/291/221 196/236/181 236/290/222
f 236/290/222 196/236/181 197/237/179
f 237/244/223 214/213/196 196/239/197
f 196/239/197 214/213/196 212/211/194
f 313/380/224 312/379/225 311/378/226
f 311/378/226 312/379/225 310/377/227
f 231/284/217 233/286/228 240/295/229
f 215/238/219 235/243/220 233/245/228
f 233/245/228 235/243/220 240/246/230
f 239/247/231 240/246/230 235/243/220
f 237/291/221 236/290/222 239/294/232
f 239/294/232 236/290/222 238/293/233
f 214/213/196 237/244/223 235/243/220
f 235/243/220 237/244/223 239/247/231
f 219/266/202 184/219/168 222/269/200
f 222/269/200 184/219/168 241/298/234
f 18/299/85 241/298/234 25/220/18
f 25/220/18 241/298/234 184/219/168
f 242/301/235 241/298/234 117/300/86
f 117/300/86 241/298/234 18/299/85
f 244/303/236 243/302/237 222/269/200
f 222/269/200 243/302/237 221/268/201
f 243/302/237 244/303/236 23/304/238
f 23/304/238 244/303/236 24/305/90
f 227/307/211 221/268/201 228/306/212
f 228/306/212 221/268/201 243/302/237
f 228/306/212 243/302/237 21/308/213
f 21/308/213 243/302/237 23/304/238
f 242/301/235 117/300/86 24/305/90
f 222/269/200 241/298/234 244/303/236
f 244/303/236 241/298/234 242/301/235
f 24/305/90 244/303/236 242/301/235
f 245/185/239 247/186/240 246/187/241
f 251/191/242 253/192/243 252/193/244
f 254/206/245 256/209/246 255/287/247
f 260/297/248 262/309/249 261/310/250
f 263/311/251 265/312/252 264/313/253
f 266/314/254 268/315/255 267/316/256
f 269/317/257 271/318/258 270/319/259
f 275/320/260 277/321/261 276/322/262
f 278/323/263 280/324/264 279/325/265
f 281/326/266 283/327/267 282/328/268
f 284/329/269 286/330/270 285/331/271
f 290/332/272 292/333/273 291/334/274
f 293/335/275 295/336/276 294/337/277
f 296/338/278 298/339/279 297/340/280
f 299/359/281 174/218/167 219/266/202
f 219/266/202 174/218/167 184/219/168
f 217/249/282 173/129/161 299/248/283
f 299/248/283 173/129/161 174/128/160
f 300/250/284 218/241/199 217/249/282
f 217/249/282 218/241/199 216/240/198
f 300/250/284 217/249/282 299/248/283
f 301/362/285 299/359/281 220/267/203
f 220/267/203 299/359/281 219/266/202
f 300/363/286 299/365/281 301/364/285
f 197/237/179 194/234/178 302/366/287
f 302/366/287 194/234/178 218/367/288
f 210/256/189 303/368/289 190/227/173
f 190/227/173 303/368/289 189/226/175
f 303/368/289 304/369/290 189/226/175
f 189/226/175 304/369/290 224/272/206
f 224/272/206 304/369/290 227/277/211
f 304/370/290 220/267/203 227/307/211
f 227/307/211 220/267/203 221/268/201
f 305/371/291 301/362/285 304/370/290
f 304/370/290 301/362/285 220/267/203
f 208/254/188 307/373/292 210/256/189
f 210/256/189 307/373/292 306/372/293
f 303/368/289 210/256/189 308/374/294
f 308/374/294 210/256/189 306/372/293
f 304/369/290 303/368/289 305/375/291
f 305/375/291 303/368/289 308/374/294
f 309/376/295 300/363/296 305/375/291
f 305/375/291 300/363/296 301/364/285
f 300/363/296 309/376/295 218/367/288
f 218/367/288 309/376/295 302/366/287
f 309/376/297 308/374/294 306/372/293
f 305/375/291 308/374/294 309/376/298
f 310/377/227 209/255/187 183/216/166
f 183/216/166 209/255/187 176/199/163
f 311/378/226 230/282/215 234/288/218
f 234/288/218 230/282/215 229/281/214
f 238/293/233 234/288/218 239/294/232
f 239/294/232 234/288/218 232/285/216
f 230/282/215 311/378/226 183/216/166
f 183/216/166 311/378/226 310/377/227
f 239/294/232 232/285/216 240/295/229
f 240/295/229 232/285/216 231/284/217
f 209/255/187 310/377/227 208/254/188
f 208/254/188 310/377/227 307/373/292
f 312/379/225 314/381/299 310/377/227
f 310/377/227 314/381/299 307/373/292
f 197/237/179 302/366/287 236/290/222
f 236/290/222 302/366/287 315/382/300
f 315/382/300 313/380/224 236/290/222
f 236/290/222 313/380/224 238/293/233
f 313/380/224 311/378/226 238/293/233
f 238/293/233 311/378/226 234/288/218
f 314/381/299 312/379/225 315/382/300
f 315/382/300 312/379/225 313/380/224
f 302/366/287 309/376/295 315/382/300
f 315/382/300 309/376/295 314/381/299
f 306/372/293 307/373/292 309/376/295
f 309/376/295 307/373/292 314/381/299
f 2/251/301 41/63/45 29/3/2
f 29/3/2 41/63/45 28/13/4
f 42/252/302 2/251/303 4/253/304
f 49/257/305 42/252/302 6/258/306
f 6/258/306 42/252/302 4/253/304
f 113/260/307 41/63/45 42/252/302
f 42/252/302 41/63/45 2/251/301
f 81/259/308 113/260/307 49/257/305
f 49/257/305 113/260/307 42/252/302
f 81/259/308 77/48/36 113/260/307
f 113/260/307 77/48/36 82/47/35
f 83/71/46 41/63/45 82/47/35
f 82/47/35 41/63/45 113/260/307
f 173/129/161 199/261/309 29/3/2
f 29/3/2 199/261/309 2/251/301
f 2/251/301 199/261/309 200/262/310
f 200/262/310 199/261/309 206/263/311
f 4/253/304 200/262/310 6/258/306
f 6/258/306 200/262/310 201/264/312
f 198/134/193 8/45/313 201/264/312
f 201/264/312 8/45/313 6/258/306
f 203/208/192 198/134/193 202/265/314
f 202/265/314 198/134/193 201/264/312
f 202/265/314 205/197/184 203/208/192
f 203/208/192 205/197/184 204/207/186
f 202/265/314 201/264/312 206/263/311
f 206/263/311 201/264/312 200/262/310
f 207/194/182 205/197/184 206/263/311
f 206/263/311 205/197/184 202/265/314
f 217/249/282 216/240/198 173/129/161
f 173/129/161 216/240/198 199/261/309
f 216/240/198 207/194/182 199/261/309
f 199/261/309 207/194/182 206/263/311
f 2/251/303 200/262/310 4/253/304
f 233/245/228 316/242/315 215/238/219
f 327/385/316 326/386/317 329/388/318
f 329/388/318 326/386/317 328/387/319
f 327/385/316 329/388/318 331/390/320
f 331/390/320 329/388/318 330/389/321
f 328/387/319 332/391/322 329/388/318
f 329/388/318 332/391/322 333/392/323
f 333/392/323 334/393/324 329/388/318
f 329/388/318 334/393/324 330/389/321
f 318/394/325 319/395/326 327/385/327
f 327/385/327 319/395/326 326/386/328
f 319/395/326 320/396/329 326/386/328
f 326/386/328 320/396/329 328/387/330
f 321/397/331 322/398/332 330/389/333
f 330/389/333 322/398/332 331/390/334
f 322/398/332 318/394/325 331/390/334
f 331/390/334 318/394/325 327/385/327
f 323/399/335 332/391/336 320/396/329
f 320/396/329 332/391/336 328/387/330
f 324/400/337 333/392/338 323/399/335
f 323/399/335 333/392/338 332/391/336
f 325/401/339 334/393/340 324/400/337
f 324/400/337 334/393/340 333/392/338
f 325/401/339 321/397/331 334/393/340
f 334/393/340 321/397/331 330/389/333
f 335/342/341 336/343/342 337/344/343
f 341/345/344 342/346/345 343/347/346
f 344/348/347 345/349/348 346/350/349
f 357/352/350 350/353/351 356/351/352
f 356/351/352 350/353/351 351/354/353
f 357/352/350 356/351/352 352/355/354
f 359/357/355 347/358/356 358/356/357
f 358/356/357 347/358/356 348/360/358
f 359/357/355 358/356/357 349/361/359
f 361/384/360 353/402/361 360/383/362
f 360/383/362 353/402/361 354/403/363
f 361/384/360 360/383/362 355/404/364
f 362/405/365 363/406/366 339/408/367
f 339/408/367 363/406/366 338/407/368
f 363/406/366 362/405/365 340/409/369
f 364/410/370 365/411/371 366/412/372
f 365/411/371 364/410/370 367/413/373
f 368/414/374 369/415/375 370/416/376
f 369/415/375 368/414/374 371/417/377
f 372/418/378 373/419/379 374/420/380
f 373/419/379 372/418/378 375/421/381
f 376/422/382 377/423/383 378/424/384
f 377/423/383 376/422/382 379/425/385
f 380/426/386 381/427/387 167/428/388
f 381/427/387 380/426/386 169/430/389
f 169/430/389 380/426/386 168/429/390
f 382/431/391 383/432/392 384/433/393
f 289/434/394 385/435/395 287/436/396
f 385/435/395 289/434/394 288/437/397
f 386/438/398 387/439/399 388/440/400
f 387/439/399 386/438/398 389/441/401
f 273/442/402 390/443/403 274/444/404
f 390/443/403 273/442/402 272/445/405
f 155/446/406 391/447/407 157/448/408
f 391/447/407 155/446/406 156/449/409
f 392/450/410 393/451/411 149/452/412
f 393/451/411 392/450/410 151/454/413
f 151/454/413 392/450/410 150/453/414
f 394/455/415 395/456/416 257/289/417
f 394/455/415 259/292/418 395/456/416
f 395/456/416 259/292/418 258/296/419
f 399/461/420 397/458/421 400/460/422
f 400/460/422 397/458/421 398/459/423
f 399/461/420 400/460/422 396/457/424
f 178/203/425 233/286/228 177/202/165
f 177/202/165 233/286/228 231/284/217
f 233/245/228 178/341/425 316/242/315
f 317/131/426 316/242/315 178/341/425
f 180/133/427 181/132/191 213/212/195
f 213/212/195 181/132/191 211/210/190
f 401/462/428 402/463/429 179/130/430
f 402/463/429 180/133/427 179/130/430
f 179/130/430 180/133/427 215/238/219
f 215/238/219 180/133/427 213/212/195
f 215/238/219 316/242/315 179/130/430
f 316/242/315 317/131/426 179/130/430
f 401/462/431 179/130/430 317/131/426
f 10/41/432 69/44/433 8/45/313
f 8/45/313 69/44/433 54/46/434
f 54/46/434 69/44/433 80/52/435
f 80/52/435 69/44/433 71/53/436
f 72/54/43 76/51/39 71/53/436
f 71/53/436 76/51/39 80/52/435
f 73/60/73 72/54/43 70/59/75
f 70/59/75 72/54/43 71/53/436
f 58/61/74 70/59/75 60/16/437
f 60/16/437 70/59/75 74/43/438
f 71/53/436 69/44/433 70/59/75
f 70/59/75 69/44/433 74/43/438
f 51/120/70 58/61/74 53/15/69
f 53/15/69 58/61/74 60/16/437
f 198/134/193 181/132/191 8/45/313
f 8/45/313 181/132/191 10/41/432
f 6/258/306 8/45/313 49/257/305
f 49/257/305 8/45/313 54/46/434
f 49/257/305 54/46/434 81/259/308
f 81/259/308 54/46/434 80/52/435
f 81/259/308 80/52/435 77/48/36
f 77/48/36 80/52/435 76/51/39
f 69/44/433 10/41/432 404/465/439
f 404/465/439 10/41/432 11/42/440
f 181/132/191 180/133/427 10/41/432
f 10/41/432 180/133/427 11/42/440
f 52/9/10 53/10/69 5/12/12
f 5/12/12 53/10/69 7/11/441
f 405/466/442 9/17/443 403/464/444
f 403/464/444 9/17/443 7/18/441
f 404/465/439 11/42/440 405/466/442
f 405/466/442 11/42/440 9/17/443
f 177/202/165 5/205/12 178/203/425
f 178/203/425 5/205/12 7/204/441
f 178/341/425 7/18/441 317/131/426
f 401/462/445 7/18/441 9/17/443
f 7/18/441 401/462/431 317/131/426
f 402/463/446 401/462/445 9/17/443
f 180/133/427 402/463/446 11/42/440
f 11/42/440 402/463/446 9/17/443
f 7/18/441 53/15/69 403/464/444
f 53/15/69 60/16/437 403/464/444
f 403/464/444 60/16/437 405/466/447
f 405/466/447 60/16/437 404/465/448
f 404/465/448 60/16/437 74/43/438
f 69/44/433 404/465/448 74/43/438
f 248/188/449 406/467/450 249/190/451
f 406/467/450 248/188/449 250/189/452
