# This file uses centimeters as units for non-parametric coordinates.

v -0.108028 0.023855 0.021283
v -0.001689 -0.020121 0.054823
v 0.110209 0.027066 0.019618
v -0.110067 0.042232 0.024763
v -0.000376 0.013542 0.056556
v 0.118744 0.047638 0.020639
v -0.075196 0.136130 -0.001752
v -0.000150 0.144442 0.038466
v 0.080578 0.140772 -0.001616
v -0.087301 0.143393 -0.031543
v 0.000666 0.212474 -0.025870
v 0.088641 0.144114 -0.030431
v -0.060959 0.147870 -0.073520
v 0.000810 0.142103 -0.075521
v 0.064871 0.148272 -0.072406
v -0.092732 0.008462 -0.123974
v 0.002093 0.014203 -0.122863
v 0.104759 0.008462 -0.122046
v -0.106733 -0.037642 -0.091080
v 0.000797 -0.042587 -0.081767
v 0.111017 -0.037642 -0.089472
v -0.134750 -0.039963 -0.018807
v 0.000591 -0.052658 -0.017147
v 0.135882 -0.039509 -0.016861
v 0.158585 0.020770 -0.009526
v -0.148625 0.013233 -0.011115
v -0.051370 -0.019341 0.020024
v 0.058741 -0.015058 0.022687
v 0.026381 -0.047526 -0.089919
v -0.027625 -0.047042 -0.090327
v 0.008345 0.141382 -0.079166
v 0.012451 0.008734 -0.130746
v -0.004933 0.141152 -0.079458
v -0.008275 0.008730 -0.130857
v 0.100570 0.065430 -0.111055
v 0.012065 0.065337 -0.120601
v -0.008255 0.065193 -0.120971
v 0.001142 0.063031 -0.114797
v -0.092743 0.064001 -0.113612
v -0.035693 -0.001729 0.050299
v -0.034535 0.007367 0.040917
v -0.054071 0.139974 0.019380
v -0.034609 -0.021861 0.040199
v 0.035824 -0.003033 0.050759
v 0.035214 0.006032 0.042250
v 0.048484 0.140275 0.021942
v 0.036415 -0.019694 0.043532
v 0.088076 0.102148 -0.085324
v -0.134167 0.080172 -0.015819
v -0.105480 0.053555 0.033415
v -0.007808 0.098762 -0.096940
v 0.001013 0.097271 -0.092125
v -0.082011 0.103365 -0.086203
v 0.137399 0.079548 -0.013737
v 0.118063 0.061124 0.021886
v -0.050796 0.057714 0.040916
v 0.041468 0.056350 0.044344
v -0.000434 0.055471 0.056698
v 0.012277 0.099528 -0.096015
v -0.086736 0.101891 0.007941
v -0.054247 0.100551 0.034903
v 0.047649 0.101606 0.037813
v 0.000434 0.109018 0.056876
v 0.094564 0.112851 0.003181
v -0.001193 -0.040772 0.034368
vt 0.812012 0.379052
vt 0.812012 0.356658
vt 0.828221 0.356658
vt 0.828221 0.379052
vt 0.742567 0.379052
vt 0.742567 0.356658
vt 0.848144 0.379052
vt 0.848144 0.356658
vt 0.912931 0.379052
vt 0.912931 0.356658
vt 0.625129 0.347752
vt 0.686684 0.334259
vt 0.662385 0.336220
vt 0.912931 0.422116
vt 0.848144 0.422116
vt 0.961160 0.400769
vt 0.961160 0.338246
vt 0.961160 0.449302
vt 0.912931 0.449302
vt 0.686684 0.400769
vt 0.742567 0.422116
vt 0.812012 0.422116
vt 0.828221 0.422116
vt 0.828221 0.449302
vt 0.812012 0.449302
vt 0.625129 0.362771
vt 0.848144 0.449302
vt 0.742567 0.449302
vt 0.961160 0.487568
vt 0.662385 0.387682
vt 0.625129 0.387682
vt 0.912931 0.474854
vt 0.414909 0.460291
vt 0.414909 0.404118
vt 0.453869 0.404129
vt 0.453869 0.432333
vt 0.503046 0.425258
vt 0.502893 0.455218
vt 0.459516 0.455218
vt 0.828221 0.487186
vt 0.537427 0.425258
vt 0.570881 0.425258
vt 0.686684 0.485343
vt 0.571034 0.455218
vt 0.537332 0.455218
vt 0.537427 0.487395
vt 0.625129 0.432333
vt 0.619482 0.455218
vt 0.662385 0.461209
vt 0.453869 0.387682
vt 0.414909 0.387682
vt 0.742567 0.474854
vt 0.812012 0.474854
vt 0.848144 0.474854
vt 0.828221 0.474854
vt 0.686684 0.449302
vt 0.503046 0.387682
vt 0.503046 0.404129
vt 0.537427 0.404129
vt 0.537427 0.387682
vt 0.570881 0.387682
vt 0.570881 0.404129
vt 0.625129 0.404129
vt 0.662385 0.403068
vt 0.828221 0.336510
vt 0.570881 0.357889
vt 0.570881 0.370632
vt 0.537427 0.370632
vt 0.537427 0.357889
vt 0.453869 0.347752
vt 0.503046 0.357889
vt 0.503046 0.370632
vt 0.453869 0.362771
vt 0.537427 0.337792
vt 0.414909 0.336220
vn -0.067865 -0.595216 -0.800695
vn -0.522991 -0.523317 -0.672770
vn -0.250569 -0.208619 -0.945354
vn -0.599474 -0.049947 -0.798835
vn 0.085580 -0.339792 -0.936599
vn 0.070797 -0.569163 -0.819171
vn 0.630768 -0.052601 -0.774187
vn 0.509884 -0.545870 -0.664864
vn 0.321974 -0.302871 -0.896996
vn 0.063993 -0.599287 -0.797973
vn -0.079253 -0.212359 -0.973973
vn -0.059648 -0.567705 -0.821068
vn 0.441408 -0.669916 0.596969
vn 0.432084 -0.799993 0.416312
vn 0.397435 -0.172697 0.901233
vn -0.085306 0.392803 -0.915658
vn 0.209066 0.353988 -0.911583
vn -0.868253 0.251572 -0.427607
vn -0.889033 0.415661 0.191957
vn -0.769594 0.482424 -0.418320
vn -0.454030 -0.801615 0.388934
vn -0.993869 -0.045166 0.100915
vn -0.788388 -0.499002 -0.359780
vn -0.895613 0.019871 -0.444389
vn 0.755043 -0.576408 -0.312511
vn 0.987407 -0.047342 0.150952
vn 0.902452 -0.009264 -0.430690
vn 0.876203 0.449098 0.174869
vn 0.857329 0.324495 -0.399612
vn 0.776007 0.503331 -0.380093
vn -0.222327 0.384317 -0.896031
vn 0.096747 0.328059 -0.939690
vn -0.456257 0.393603 -0.798064
vn 0.542614 0.375343 -0.751457
vn -0.163688 0.456440 -0.874568
vn -0.376592 0.384760 -0.842697
vn 0.522280 -0.048581 0.851389
vn 0.495826 0.364806 -0.788082
vn 0.226491 0.450485 -0.863577
vn -0.092787 0.500612 -0.860685
vn 0.101324 0.503529 -0.858016
vn -0.670205 0.742092 0.011189
vn -0.597521 0.412080 0.687865
vn -0.507577 0.134930 0.850976
vn -0.255011 0.693616 -0.673696
vn -0.450386 0.209866 0.867818
vn -0.516552 0.498259 0.696357
vn -0.673806 0.561837 0.479922
vn 0.065009 0.203215 0.976974
vn 0.396771 0.297595 0.868338
vn -0.002745 0.514062 0.857749
vn 0.429305 0.490575 0.758310
vn -0.002319 0.999731 0.023064
vn 0.619888 0.475259 0.624394
vn 0.628596 0.601791 0.492661
vn 0.666111 0.743994 -0.052626
vn -0.510101 -0.165998 0.843944
vn -0.310008 0.186375 0.932287
vn -0.305043 -0.016432 0.952197
vn -0.143108 0.000188 0.989707
vn 0.032003 0.184200 0.982368
vn 0.308634 0.217545 0.925969
vn 0.308184 -0.008881 0.951285
vn 0.543168 0.217342 0.811006
vn 0.263241 0.697911 -0.666052
vn -0.145395 0.610072 -0.778892
vn 0.220550 0.609692 -0.761337
vn 0.059673 0.467336 -0.882064
vn 0.402103 0.011989 0.915516
vn -0.027730 -0.409507 0.911886
vn 0.429705 -0.593403 0.680607
vn -0.027116 -0.703785 0.709895
vn -0.479596 -0.614666 0.626237
vn -0.445149 -0.009280 0.895408
vn -0.442923 -0.703339 0.555998
vn -0.421326 -0.192120 0.886326
vn -0.007886 -0.966556 0.256335
vn -0.006881 -0.985380 0.170234
vn -0.004247 -0.995899 -0.090374
vn 0.197154 -0.968774 -0.150356
vn -0.233388 -0.960672 -0.150466
vn -0.006951 -0.996351 -0.085073
f 29/2/1 20/3/2 32/1/3
f 32/1/3 20/3/2 17/4/4
f 32/1/3 18/5/5 29/2/1
f 29/2/1 18/5/5 21/6/6
f 17/4/7 20/3/8 34/7/9
f 34/7/9 20/3/8 30/8/10
f 34/7/9 30/8/10 16/9/11
f 16/9/11 30/8/10 19/10/12
f 28/11/13 24/13/14 3/26/15
f 39/14/16 37/15/17 16/9/11
f 16/9/11 37/15/17 34/7/9
f 39/14/18 49/18/19 53/19/20
f 22/17/21 26/16/22 19/10/23
f 19/10/23 26/16/22 16/9/24
f 49/18/19 39/14/18 26/16/22
f 26/16/22 39/14/18 16/9/24
f 24/12/14 21/6/25 25/20/26
f 25/20/26 21/6/25 18/5/27
f 54/56/28 35/21/29 48/28/30
f 36/22/31 35/21/32 32/1/3
f 32/1/3 35/21/32 18/5/5
f 38/23/33 36/22/31 17/4/4
f 17/4/4 36/22/31 32/1/3
f 38/23/34 17/4/7 37/15/17
f 37/15/17 17/4/7 34/7/9
f 36/22/31 38/23/33 59/25/35
f 59/25/35 38/23/33 52/24/36
f 24/13/14 25/30/26 3/26/15
f 3/26/15 25/30/26 6/31/37
f 52/24/38 38/23/34 51/27/39
f 51/27/39 38/23/34 37/15/17
f 39/14/16 53/19/40 37/15/17
f 37/15/17 53/19/40 51/27/39
f 59/25/35 48/28/41 36/22/31
f 36/22/31 48/28/41 35/21/32
f 10/33/42 49/34/19 60/36/43
f 60/36/43 49/34/19 50/35/44
f 49/18/19 10/29/42 53/19/20
f 53/19/20 10/29/42 13/32/45
f 61/37/46 42/38/47 60/36/43
f 60/36/43 42/38/47 7/39/48
f 63/41/49 62/42/50 8/45/51
f 8/45/51 62/42/50 46/44/52
f 10/33/42 7/39/48 11/46/53
f 42/38/47 11/46/53 7/39/48
f 46/44/52 11/46/53 8/45/51
f 63/41/49 8/45/51 61/37/46
f 61/37/46 8/45/51 42/38/47
f 11/46/53 42/38/47 8/45/51
f 62/42/50 64/47/54 46/44/52
f 46/44/52 64/47/54 9/48/55
f 12/49/56 11/46/53 9/48/55
f 11/46/53 46/44/52 9/48/55
f 50/35/44 49/34/19 4/50/57
f 4/50/57 49/34/19 26/51/22
f 41/57/58 56/58/59 4/50/57
f 4/50/57 56/58/59 50/35/44
f 56/58/59 41/57/58 58/59/60
f 58/59/60 41/57/58 5/60/61
f 45/61/62 57/62/63 5/60/61
f 5/60/61 57/62/63 58/59/60
f 55/63/64 57/62/63 6/31/37
f 6/31/37 57/62/63 45/61/62
f 48/28/41 59/25/35 15/52/65
f 15/52/65 59/25/35 31/53/66
f 51/27/39 33/54/67 52/24/38
f 52/24/38 33/54/67 14/55/68
f 33/54/67 51/27/39 13/32/45
f 13/32/45 51/27/39 53/19/40
f 55/63/64 54/64/28 64/47/54
f 64/47/54 54/64/28 12/49/56
f 54/56/28 48/28/30 12/43/56
f 12/43/56 48/28/30 15/52/65
f 11/40/53 12/43/56 31/53/66
f 31/53/66 12/43/56 15/52/65
f 13/32/45 10/29/42 33/54/67
f 33/54/67 10/29/42 11/40/53
f 11/40/53 31/53/66 14/55/68
f 33/54/67 11/40/53 14/55/68
f 55/63/64 6/31/37 54/64/28
f 54/64/28 6/31/37 25/30/26
f 54/56/28 25/20/26 35/21/29
f 35/21/29 25/20/26 18/5/27
f 14/55/68 31/53/66 52/24/36
f 52/24/36 31/53/66 59/25/35
f 10/33/42 60/36/43 7/39/48
f 64/47/54 12/49/56 9/48/55
f 61/37/46 60/36/43 56/58/59
f 56/58/59 60/36/43 50/35/44
f 63/41/49 61/37/46 58/59/60
f 58/59/60 61/37/46 56/58/59
f 62/42/50 63/41/49 57/62/63
f 57/62/63 63/41/49 58/59/60
f 64/47/54 62/42/50 55/63/64
f 55/63/64 62/42/50 57/62/63
f 44/67/69 2/68/70 47/66/71
f 47/66/71 2/68/70 65/69/72
f 43/71/73 40/72/74 27/70/75
f 27/70/75 40/72/74 1/73/76
f 43/71/73 27/70/75 65/69/77
f 65/69/77 27/70/75 23/74/78
f 23/74/78 24/13/14 28/11/13
f 23/65/78 30/8/79 20/3/80
f 20/3/81 29/2/82 23/65/78
f 23/65/78 29/2/82 24/12/14
f 24/12/14 29/2/82 21/6/25
f 22/75/21 23/74/78 27/70/75
f 22/75/21 27/70/75 1/73/76
f 19/10/23 30/8/79 22/17/21
f 22/17/21 30/8/79 23/65/78
f 65/69/72 2/68/70 43/71/73
f 43/71/73 2/68/70 40/72/74
f 47/66/71 28/11/13 44/67/69
f 44/67/69 28/11/13 3/26/15
f 40/72/74 41/57/58 1/73/76
f 1/73/76 41/57/58 4/50/57
f 22/75/21 1/73/76 26/51/22
f 26/51/22 1/73/76 4/50/57
f 45/61/62 5/60/61 44/67/69
f 44/67/69 5/60/61 2/68/70
f 41/57/58 40/72/74 5/60/61
f 5/60/61 40/72/74 2/68/70
f 44/67/69 3/26/15 45/61/62
f 45/61/62 3/26/15 6/31/37
f 47/66/71 65/69/77 28/11/13
f 28/11/13 65/69/77 23/74/78
