# This file uses centimeters as units for non-parametric coordinates.

v 0.045548 0.027619 0.128451
v 0.059280 0.060327 0.088383
v 0.072916 0.058177 0.086545
v -0.030645 0.051422 0.008132
v -0.009749 0.063060 0.018963
v 0.048567 0.057910 0.024726
v -0.030698 -0.036372 -0.006500
v -0.011665 -0.040011 -0.014611
v 0.025617 -0.039380 0.009537
v 0.032534 -0.042581 0.109646
v 0.038536 -0.040571 0.099604
v 0.060329 -0.040843 0.059400
v 0.033002 -0.011335 0.124830
v 0.072277 -0.005548 0.094203
v 0.069654 -0.008220 0.075284
v -0.039724 -0.010825 -0.003142
v -0.032180 -0.016854 0.075405
v -0.012180 0.051846 0.080327
v -0.002438 0.065041 0.070861
v 0.040188 0.051809 0.061064
v 0.029302 -0.019186 0.069657
v 0.018781 -0.056232 0.042875
v -0.005780 -0.059233 0.041356
v -0.018742 -0.054447 0.049770
v 0.055951 0.071269 0.100677
v 0.062292 0.059256 0.094313
v 0.071334 0.079437 0.049600
v 0.058446 0.076723 0.071338
v 0.026898 -0.004192 0.020411
v -0.016452 -0.003085 -0.025297
v -0.048177 -0.012961 -0.000367
v -0.042599 -0.036731 -0.000557
v -0.038350 -0.047395 0.050665
v -0.045015 -0.016194 0.072493
v -0.039826 0.046098 0.012641
v -0.033092 0.044001 0.081085
v 0.073239 0.021750 0.099113
v 0.039545 0.047826 0.014234
v -0.015187 0.018697 -0.017482
v 0.020865 0.064388 0.081834
v 0.029877 0.084354 0.045759
v 0.057353 0.069920 0.034328
v -0.018594 -0.019085 0.113734
v 0.057583 0.056158 0.090705
v 0.000074 -0.051869 0.100169
v 0.013035 0.027528 0.128365
v 0.029538 0.042161 0.105906
v 0.021579 -0.050777 0.084640
v 0.008942 -0.051150 0.090587
vt 0.082909 0.519504
vt 0.082909 0.506676
vt 0.154816 0.506676
vt 0.154816 0.519504
vt 0.082909 0.483201
vt 0.077044 0.595241
vt 0.093430 0.608063
vt 0.154816 0.483201
vt 0.154816 0.581943
vt 0.173528 0.590778
vt 0.082909 0.590778
vt 0.082909 0.581943
vt 0.107567 0.605982
vt 0.109255 0.595241
vt 0.032181 0.581943
vt 0.015173 0.590778
vt 0.015173 0.550648
vt 0.032181 0.550648
vt 0.137556 0.627303
vt 0.095593 0.638946
vt 0.015173 0.519504
vt 0.032181 0.519504
vt 0.137556 0.638946
vt 0.077474 0.613280
vt 0.123956 0.616815
vt 0.162038 0.619693
vt 0.131080 0.606050
vt 0.173285 0.638946
vt 0.099070 0.572250
vt 0.099070 0.550648
vt 0.139620 0.550648
vt 0.139620 0.572250
vt 0.139620 0.526268
vt 0.099070 0.526268
vt 0.057603 0.550648
vt 0.057603 0.519504
vt 0.082909 0.550648
vt 0.057603 0.506676
vt 0.173285 0.656234
vt 0.057603 0.581943
vt 0.082909 0.496476
vt 0.137556 0.659314
vt 0.154816 0.496476
vt 0.173528 0.519504
vt 0.173528 0.550648
vt 0.154816 0.550648
vt 0.032181 0.506676
vt 0.137556 0.698347
vt 0.057603 0.590778
vt 0.173285 0.714902
vt 0.173285 0.619693
vt 0.069157 0.622167
vt 0.095593 0.714902
vt 0.095593 0.698347
vt 0.019231 0.714902
vt 0.034153 0.698347
vt 0.034153 0.666098
vt 0.018898 0.666098
vt 0.034153 0.638946
vt 0.019627 0.641391
vt 0.095593 0.666098
vt 0.060196 0.627984
vt 0.060196 0.638946
vt 0.060243 0.698347
vt 0.060243 0.714902
vt 0.034153 0.627984
vn -0.399445 0.779855 0.481944
vn -0.235293 0.846850 -0.476951
vn -0.615990 0.663949 0.423944
vn -0.288860 0.876679 -0.384700
vn 0.244379 0.571733 0.783199
vn 0.641250 -0.473770 0.603607
vn 0.206668 0.962711 0.174574
vn 0.998658 0.034084 -0.038999
vn 0.984092 -0.069536 0.163484
vn 0.392135 0.318765 0.862913
vn 0.849677 -0.321861 0.417678
vn 0.329223 -0.315141 0.890111
vn 0.620686 0.222711 -0.751764
vn 0.747964 -0.660885 0.061488
vn 0.745968 0.034047 -0.665112
vn -0.997728 0.026606 0.061897
vn -0.993026 -0.111432 0.038504
vn -0.972790 -0.229390 0.032558
vn -0.972953 -0.228615 0.033112
vn -0.198584 0.603928 0.771904
vn -0.533890 0.804446 -0.260438
vn -0.342779 0.571818 0.745337
vn -0.539430 0.535126 -0.650119
vn -0.253262 0.429783 0.866686
vn -0.583639 -0.208397 0.784816
vn -0.898139 -0.294514 0.326508
vn -0.167499 0.917616 0.360451
vn 0.384569 -0.923078 0.005826
vn -0.464259 0.112527 0.878522
vn 0.668084 0.495249 -0.555330
vn -0.062625 0.985728 -0.156266
vn -0.679429 0.225552 -0.698214
vn 0.015068 0.367224 -0.930010
vn -0.694975 0.123553 -0.708339
vn -0.098590 -0.019063 -0.994946
vn 0.903747 -0.082193 -0.420103
vn 0.208160 -0.544863 -0.812277
vn 0.652253 -0.575460 -0.493367
vn -0.514346 -0.628936 -0.583000
vn -0.332001 0.094601 -0.938523
vn -0.414634 0.094565 -0.905061
vn -0.366887 -0.607919 -0.704150
vn -0.340606 -0.606243 -0.718649
vn -0.275811 -0.801714 0.530267
vn -0.245177 -0.960714 0.130064
vn -0.141557 -0.359231 0.922450
vn -0.224178 -0.354769 0.907680
vn -0.978520 0.179285 0.101758
vn -0.985134 0.154408 0.075293
vn 0.317804 0.860716 0.397703
vn 0.463165 0.389069 0.796306
vn 0.990288 0.121361 0.067829
vn -0.083030 -0.984055 -0.157293
vn -0.375199 -0.921240 0.102680
vn 0.691330 -0.721796 -0.032747
vn 0.288610 -0.749569 0.595693
vn 0.553510 -0.739488 0.383124
vn 0.611365 -0.621667 -0.489656
vn 0.649773 0.138818 -0.747346
vn 0.569801 0.038206 -0.820894
vn 0.962009 -0.203959 -0.181491
vn -0.056335 0.085542 -0.994741
vn 0.047331 -0.991819 -0.118557
vn -0.143745 0.144836 -0.978959
vn 0.261219 -0.948151 0.181036
vn -0.342981 -0.850873 0.397971
vn 0.021958 -0.992191 0.122783
vn 0.646771 -0.760625 0.056019
f 19/2/1 5/3/2 18/1/3
f 18/1/3 5/3/2 4/4/4
f 25/6/5 26/7/6 28/14/7
f 28/14/7 26/7/6 27/13/8
f 37/21/9 1/22/10 14/17/11
f 14/17/11 1/22/10 13/18/12
f 6/19/13 20/20/14 38/23/15
f 34/30/16 31/31/17 33/29/18
f 33/29/18 31/31/17 32/32/19
f 18/1/20 4/4/21 36/34/22
f 36/34/22 4/4/21 35/33/23
f 46/36/24 18/1/3 43/35/25
f 43/35/25 18/1/3 17/37/26
f 46/36/24 47/38/27 18/1/3
f 18/1/3 47/38/27 19/2/1
f 20/20/28 26/7/6 40/24/29
f 40/24/29 26/7/6 25/6/5
f 42/25/30 27/13/8 20/20/28
f 20/20/28 27/13/8 26/7/6
f 5/26/2 41/27/31 6/19/13
f 6/19/13 41/27/31 42/25/30
f 5/3/2 19/2/1 41/43/31
f 41/43/31 19/2/1 40/41/29
f 4/4/32 39/44/33 16/46/34
f 16/46/34 39/44/33 30/45/35
f 6/19/13 38/23/15 5/26/2
f 5/26/2 38/23/15 39/28/33
f 30/39/35 29/42/36 8/50/37
f 8/50/37 29/42/36 9/48/38
f 16/46/34 30/45/35 7/9/39
f 7/9/39 30/45/35 8/10/37
f 31/31/40 16/46/41 32/32/42
f 32/32/42 16/46/41 7/9/43
f 33/29/44 32/32/42 24/12/45
f 24/12/45 32/32/42 7/9/43
f 24/12/45 17/37/46 33/29/44
f 33/29/44 17/37/46 34/30/47
f 18/1/20 36/34/22 17/37/46
f 17/37/46 36/34/22 34/30/47
f 36/34/48 35/33/49 34/30/16
f 34/30/16 35/33/49 31/31/17
f 31/31/40 35/33/23 16/46/41
f 16/46/41 35/33/23 4/4/21
f 38/23/15 29/42/36 39/28/33
f 39/28/33 29/42/36 30/39/35
f 41/43/31 40/41/29 28/8/7
f 28/8/7 40/41/29 25/5/5
f 41/27/31 28/14/7 42/25/30
f 42/25/30 28/14/7 27/13/8
f 20/20/14 6/19/13 42/25/30
f 43/35/25 13/18/12 46/36/24
f 46/36/24 13/18/12 1/22/10
f 2/47/50 47/38/27 1/22/10
f 1/22/10 47/38/27 46/36/24
f 1/22/10 37/21/51 2/47/50
f 39/28/33 4/51/4 5/26/2
f 19/52/1 20/20/52 40/24/29
f 8/10/37 23/11/53 7/9/39
f 7/9/39 23/11/53 24/12/54
f 8/50/37 9/48/38 23/53/53
f 23/53/53 9/48/38 22/54/55
f 10/15/56 11/16/57 13/18/12
f 13/18/12 11/16/57 14/17/11
f 11/55/57 12/56/58 14/58/11
f 14/58/11 12/56/58 15/57/59
f 3/59/60 37/60/9 15/57/59
f 15/57/59 37/60/9 14/58/11
f 21/61/61 22/54/55 29/42/36
f 29/42/36 22/54/55 9/48/38
f 44/63/62 20/20/52 47/62/27
f 47/62/27 20/20/52 19/52/1
f 21/61/61 20/20/52 44/63/62
f 48/64/63 21/61/64 12/56/58
f 12/56/58 21/61/64 15/57/59
f 49/65/65 48/64/63 11/55/57
f 11/55/57 48/64/63 12/56/58
f 45/40/66 49/49/65 10/15/56
f 10/15/56 49/49/65 11/16/57
f 43/35/25 17/37/26 45/40/66
f 45/40/66 17/37/26 24/12/54
f 45/40/66 10/15/56 43/35/25
f 43/35/25 10/15/56 13/18/12
f 47/62/27 2/66/50 44/63/62
f 44/63/62 2/66/50 3/59/60
f 37/60/51 3/59/60 2/66/50
f 38/23/15 20/20/52 29/42/36
f 29/42/36 20/20/52 21/61/61
f 45/40/66 24/12/54 49/49/67
f 49/49/67 24/12/54 23/11/53
f 21/61/64 44/63/62 15/57/59
f 15/57/59 44/63/62 3/59/60
f 48/64/68 49/65/67 22/54/55
f 22/54/55 49/65/67 23/53/53
f 21/61/61 48/64/68 22/54/55
