# This file uses centimeters as units for non-parametric coordinates.

v -0.537297 0.537313 -0.000000
v -0.677038 0.344976 -0.000000
v -0.750504 0.118871 -0.000000
v -0.750503 -0.118871 -0.000000
v -0.677037 -0.344976 -0.000000
v -0.537313 -0.536921 -0.000000
v 0.000000 -0.000473 0.000000
vt 0.500000 0.500000
vt 0.142040 0.857960
vt 0.048943 0.729825
vt 0.000000 0.579192
vt 0.000000 0.420808
vt 0.048944 0.270175
vt 0.142040 0.142040
vn -0.000000 0.000000 1.000000
vn -0.000000 0.000000 1.000000
vn -0.000000 0.000000 1.000000
vn -0.000000 0.000000 1.000000
vn -0.000000 -0.000000 1.000000
vn -0.000000 -0.000000 1.000000
vn -0.000000 -0.000000 1.000000
f 1/2/1 2/3/2 7/1/3
f 2/3/2 3/4/4 7/1/3
f 3/4/4 4/5/5 7/1/3
f 4/5/5 5/6/6 7/1/3
f 5/6/6 6/7/7 7/1/3
