# This file uses centimeters as units for non-parametric coordinates.

v -0.537313 -0.536921 -0.000000
v -0.344976 -0.676662 -0.000000
v -0.118871 -0.750128 -0.000000
v 0.118871 -0.750128 -0.000000
v 0.344976 -0.676662 -0.000000
v 0.537313 -0.536921 -0.000000
v 0.000000 -0.000473 0.000000
vt 0.500000 0.500000
vt 0.142040 0.142040
vt 0.270175 0.048944
vt 0.420808 0.000000
vt 0.579192 0.000000
vt 0.729825 0.048944
vt 0.857961 0.142040
vn -0.000000 -0.000000 1.000000
vn -0.000000 -0.000000 1.000000
vn -0.000000 -0.000000 1.000000
vn -0.000000 -0.000000 1.000000
vn 0.000000 -0.000000 1.000000
vn 0.000000 -0.000000 1.000000
vn 0.000000 -0.000000 1.000000
f 1/2/1 2/3/2 7/1/3
f 2/3/2 3/4/4 7/1/3
f 3/4/4 4/5/5 7/1/3
f 4/5/5 5/6/6 7/1/3
f 5/6/6 6/7/7 7/1/3
