# This file uses centimeters as units for non-parametric coordinates.

v 0.170607 -0.250974 0.149838
v 0.214968 -0.109470 0.145238
v -0.005137 -0.112174 0.227839
v -0.009224 -0.320023 0.198860
v 0.174764 0.063983 0.124445
v -0.022610 0.115231 0.115725
v -0.166023 -0.248634 0.173034
v -0.232186 -0.116800 0.149044
v -0.163819 0.064701 0.122219
v 0.221321 -0.284187 -0.038921
v 0.282456 -0.122108 -0.038841
v -0.008427 -0.357328 -0.027711
v -0.129968 0.226805 -0.131833
v 0.199865 0.079426 -0.040007
v -0.211130 -0.302243 -0.022775
v -0.288041 -0.122639 -0.024792
v -0.223706 0.070370 -0.040182
v 0.185821 -0.262085 -0.166872
v 0.226161 -0.117813 -0.181061
v 0.002360 -0.308833 -0.163297
v 0.006896 0.103396 -0.178082
v 0.161871 0.042090 -0.165270
v -0.191563 -0.277647 -0.144033
v -0.227168 -0.114120 -0.178166
v -0.163355 0.058694 -0.151009
v 0.000005 -0.110157 -0.264967
v 0.003444 0.133920 -0.103783
v -0.146388 0.119103 -0.064494
v -0.038740 0.132992 0.041472
v 0.038490 0.150185 -0.024874
v -0.034423 0.202773 -0.065034
v -0.129337 0.172883 -0.083120
v -0.078480 0.184394 -0.133702
v -0.092899 0.209794 -0.043210
v -0.006539 -0.244983 0.223182
v 0.000322 -0.273811 -0.216538
v 0.002008 0.064637 -0.219273
v -0.004572 0.037881 0.183894
v -0.004867 -0.031813 0.213413
v 0.202106 -0.030924 0.135496
v -0.208588 -0.032535 0.136257
v 0.260971 -0.026793 -0.038992
v -0.275600 -0.018920 -0.023759
v 0.206036 -0.023075 -0.171909
v -0.203377 -0.009435 -0.172967
v -0.003433 -0.013374 -0.256308
v 0.206970 -0.182374 0.150344
v -0.220032 -0.186174 0.156118
v 0.271538 -0.195744 -0.039148
v -0.276289 -0.198892 -0.025099
v 0.208146 -0.212789 -0.180233
v -0.206815 -0.200923 -0.164469
v -0.006361 -0.178127 0.228830
v -0.004385 -0.199299 -0.253967
v -0.216079 0.075580 0.046104
v -0.269369 -0.013698 0.067007
v -0.280920 -0.119680 0.069335
v -0.269378 -0.199180 0.068467
v -0.202723 -0.295857 0.070849
v -0.008432 -0.358631 0.145945
v 0.210421 -0.271294 0.073514
v 0.260656 -0.195845 0.069405
v 0.272730 -0.119463 0.071778
v 0.250466 -0.021941 0.064663
v 0.197935 0.079188 0.056773
v 0.086266 0.102152 0.116743
v 0.099567 0.115781 0.058539
v 0.127191 0.130483 -0.037468
v 0.087730 0.094910 -0.167259
v -0.094177 0.099611 0.116453
v -0.148004 0.109250 0.027216
v -0.093293 0.053077 0.167119
v -0.055044 0.072827 0.165620
v -0.014875 0.080586 0.164388
v 0.039445 0.069025 0.167579
v 0.079183 0.050072 0.172353
v 0.091230 -0.031400 0.193460
v 0.096586 -0.110924 0.205888
v 0.093711 -0.180119 0.208236
v 0.072838 -0.246855 0.208275
v -0.007750 -0.278828 0.216296
v -0.083403 -0.246743 0.215236
v -0.121212 -0.182452 0.205970
v -0.126775 -0.114652 0.201850
v -0.127278 -0.032247 0.183275
v -0.095024 -0.294882 0.196584
v -0.102622 -0.345234 0.121207
v -0.110107 -0.336864 -0.025921
v 0.089245 -0.295662 0.190114
v 0.108085 -0.336226 0.112172
v 0.116821 -0.335331 -0.039980
v -0.115725 0.112547 -0.112356
v -0.108703 0.170089 -0.108896
v -0.124222 0.195121 -0.060415
v -0.122172 0.118333 -0.003536
v -0.051024 0.206768 -0.048712
v 0.016769 0.144039 0.018575
v -0.092445 0.177207 -0.130148
v -0.052002 0.121524 -0.122413
v -0.070411 0.081337 -0.174418
v -0.087515 0.061212 -0.200231
v -0.111907 -0.019109 -0.226383
v -0.109834 -0.119909 -0.238547
v -0.105622 -0.207984 -0.224994
v -0.094839 -0.283538 -0.196112
v -0.080547 -0.295500 -0.155061
v 0.090731 0.052103 -0.199911
v 0.115252 -0.014064 -0.232102
v 0.123700 -0.109747 -0.242151
v 0.122934 -0.202284 -0.232466
v 0.088518 -0.265276 -0.214258
v -0.057802 0.157399 0.007724
v -0.003608 0.166556 -0.055700
v -0.127530 0.137868 -0.072438
v -0.048950 0.155575 -0.104724
v -0.077828 0.139438 -0.104238
v -0.112537 0.141007 -0.023648
v -0.011319 0.163911 -0.014861
v -0.069404 0.142140 -0.105106
v -0.049415 0.201999 -0.105193
v -0.012853 0.165779 -0.091591
v 0.029808 0.141422 -0.073199
v 0.111970 0.111146 -0.111605
v 0.186356 0.062290 -0.110194
v 0.238402 -0.021696 -0.113040
v 0.258462 -0.116647 -0.119656
v 0.248572 -0.200731 -0.108333
vt 0.400495 0.521159
vt 0.470315 0.600439
vt 0.253890 0.602994
vt 0.252326 0.526271
vt 0.432467 0.813666
vt 0.259424 0.862284
vt 0.256234 0.804085
vt 0.114304 0.516316
vt 0.043035 0.598224
vt 0.119728 0.844757
vt 0.480449 0.661181
vt 0.512698 0.596425
vt 0.523176 0.660214
vt 0.246772 0.453751
vt 0.250682 0.438912
vt 0.465965 0.520105
vt 0.246700 0.900933
vt 0.295821 0.930991
vt 0.240048 0.973472
vt 0.216853 0.939902
vt 0.465352 0.738051
vt 0.503739 0.743058
vt 0.432760 0.860565
vt 0.078393 0.509394
vt 0.014283 0.594256
vt 0.031489 0.661656
vt 0.053318 0.742764
vt 0.025249 0.747300
vt 0.003198 0.659956
vt 0.160767 0.906015
vt 0.175244 0.949160
vt 0.097314 0.878129
vt 0.172966 0.986638
vt 0.254827 0.739559
vt 0.253990 0.664206
vt 0.551307 0.666380
vt 0.559709 0.602689
vt 0.653371 0.605157
vt 0.641337 0.677150
vt 0.598143 0.526255
vt 0.769249 0.462829
vt 0.746131 0.530961
vt 0.668175 0.542597
vt 0.772772 0.886244
vt 0.728463 0.918098
vt 0.614145 0.840997
vt 0.685980 0.817496
vt 0.772715 0.853011
vt 0.567601 0.748895
vt 0.652049 0.756769
vt 0.924963 0.524901
vt 0.846975 0.535983
vt 0.973591 0.599800
vt 0.871775 0.604890
vt 0.982609 0.665720
vt 0.964022 0.753167
vt 0.875546 0.754196
vt 0.881023 0.677231
vt 0.839065 0.905954
vt 0.841296 0.941458
vt 0.813026 0.950785
vt 0.757245 0.823145
vt 0.764272 0.546142
vt 0.760518 0.604928
vt 0.760134 0.676766
vt 0.841140 0.839166
vt 0.927552 0.847670
vt 0.838164 0.983329
vt 0.768879 0.963803
vt 0.760932 0.755873
vt 0.100860 0.860458
vt 0.041867 0.745011
vt 0.021486 0.660879
vt 0.031831 0.596312
vt 0.099636 0.513135
vt 0.246607 0.445984
vt 0.428391 0.520680
vt 0.489968 0.598345
vt 0.500872 0.660662
vt 0.481781 0.740525
vt 0.430183 0.833867
vt 0.344349 0.838423
vt 0.341433 0.863505
vt 0.685180 0.879791
vt 0.353494 0.889771
vt 0.744213 0.851523
vt 0.181684 0.841877
vt 0.164431 0.865705
vt 0.168992 0.813017
vt 0.214913 0.825032
vt 0.257979 0.835919
vt 0.298931 0.820724
vt 0.338540 0.808559
vt 0.359873 0.727910
vt 0.358650 0.662808
vt 0.354767 0.593205
vt 0.335998 0.512081
vt 0.254972 0.490128
vt 0.171770 0.521154
vt 0.158238 0.587139
vt 0.134788 0.662840
vt 0.133746 0.741485
vt 0.172664 0.481571
vt 0.171264 0.473726
vt 0.158631 0.468123
vt 0.848722 0.494509
vt 0.351527 0.491422
vt 0.345715 0.472026
vt 0.679800 0.495986
vt 0.356678 0.464119
vt 0.824181 0.891643
vt 0.826387 0.947996
vt 0.193910 0.942802
vt 0.195495 0.902467
vt 0.230802 0.963984
vt 0.274453 0.915388
vt 0.819283 0.948685
vt 0.803844 0.896404
vt 0.803830 0.851203
vt 0.806062 0.812586
vt 0.813252 0.757083
vt 0.817160 0.677257
vt 0.808439 0.605257
vt 0.798425 0.553879
vt 0.789672 0.513387
vt 0.721593 0.814819
vt 0.703783 0.756844
vt 0.697270 0.677862
vt 0.710657 0.604380
vt 0.730209 0.546026
vt 0.226720 0.919380
vt 0.749109 0.944937
vt 0.264852 0.953797
vt 0.174706 0.925722
vt 0.836419 0.923627
vt 0.801242 0.927450
vt 0.818269 0.924844
vt 0.200688 0.921619
vt 0.251871 0.938610
vt 0.809125 0.926040
vt 0.801161 0.955355
vt 0.781568 0.933034
vt 0.756572 0.905171
vt 0.711938 0.867464
vt 0.653966 0.823207
vt 0.610528 0.754347
vt 0.594531 0.674855
vt 0.620294 0.605031
vn 0.659024 -0.187134 0.728470
vn 0.339785 -0.069462 0.937934
vn 0.591692 -0.391746 0.704582
vn 0.299086 -0.157741 0.941098
vn -0.002149 0.635398 0.772182
vn 0.121271 0.641807 0.757216
vn -0.010141 0.893815 0.448321
vn 0.215963 0.829634 0.514848
vn -0.242967 -0.160459 0.956671
vn -0.327548 -0.029412 0.944377
vn -0.562291 -0.402301 0.722484
vn -0.646345 -0.211346 0.733193
vn -0.475559 0.621275 0.622785
vn -0.267990 0.465259 0.843632
vn -0.279582 0.841493 0.462303
vn -0.169014 0.626218 0.761108
vn 0.672900 0.118335 0.730207
vn 0.932580 0.056528 0.356511
vn 0.903472 -0.336126 0.266002
vn 0.360407 -0.545532 0.756639
vn 0.421836 -0.868143 0.261499
vn 0.677714 -0.660494 0.323190
vn 0.284036 0.875493 0.390943
vn 0.590315 0.806785 0.025040
vn 0.349325 0.857434 0.377862
vn 0.579275 0.814345 -0.035823
vn 0.600094 0.219437 0.769243
vn 0.874376 0.349104 0.337037
vn 0.525988 0.582297 0.619893
vn 0.627900 0.750824 0.204949
vn 0.010501 -0.619574 0.784868
vn -0.320321 -0.558471 0.765183
vn 0.016009 -0.920686 0.389975
vn -0.388896 -0.883384 0.261521
vn -0.635851 -0.714491 0.291883
vn -0.908659 -0.315544 0.273444
vn -0.720125 0.072105 0.690088
vn -0.625294 0.306260 0.717783
vn -0.941222 0.061988 0.332052
vn -0.861839 0.332168 0.383272
vn -0.886157 0.267364 0.378473
vn -0.715961 0.491131 0.496176
vn -0.326338 0.726293 0.604981
vn -0.183069 0.705556 0.684599
vn 0.932115 0.067076 -0.355898
vn 0.884160 -0.303410 -0.355252
vn 0.749984 0.014870 -0.661288
vn 0.691336 -0.303950 -0.655491
vn 0.739832 -0.668084 -0.079457
vn 0.332537 -0.932609 -0.140215
vn 0.508442 -0.691844 -0.512678
vn 0.209991 0.780017 -0.589472
vn 0.290925 0.767265 -0.571547
vn -0.053088 0.839762 -0.540353
vn 0.858748 0.362572 -0.362069
vn 0.673820 0.343604 -0.654143
vn 0.650148 0.650808 -0.392119
vn 0.524846 0.592801 -0.610838
vn -0.031986 -0.987186 -0.156338
vn -0.278949 -0.948179 -0.152132
vn -0.148357 -0.925976 -0.347216
vn -0.532398 -0.688753 -0.492109
vn -0.668056 -0.742755 -0.044905
vn -0.918588 -0.339336 -0.202603
vn -0.717362 -0.243747 -0.652671
vn -0.983097 -0.080769 -0.164309
vn -0.944083 0.298311 -0.140419
vn -0.737242 0.014096 -0.675481
vn -0.696878 0.385831 -0.604562
vn -0.010601 -0.145833 -0.989252
vn -0.363259 0.010719 -0.931627
vn -0.243308 -0.502039 -0.829914
vn -0.621111 -0.476933 -0.621897
vn 0.013604 0.641715 -0.766823
vn 0.370685 -0.259290 -0.891830
vn 0.197182 -0.627962 -0.752850
vn -0.019804 -0.256592 -0.966317
vn -0.063704 -0.689908 -0.721089
vn -0.363676 -0.077086 -0.928331
vn -0.357048 -0.309553 -0.881302
vn -0.248945 0.791537 -0.558118
vn -0.302322 0.601964 -0.739081
vn -0.492337 0.660476 -0.566899
vn -0.400561 0.692351 -0.600168
vn -0.161028 0.669399 -0.725241
vn -0.344619 0.922478 0.173990
vn -0.684990 0.667928 0.290965
vn 0.219617 0.932218 0.287643
vn -0.107540 0.911265 0.397532
vn -0.445859 0.716852 -0.536034
vn 0.582459 0.482415 -0.654230
vn 0.309365 -0.151498 -0.938798
vn 0.276971 0.159245 -0.947591
vn 0.588964 0.564298 -0.578524
vn 0.029401 -0.300445 0.953346
vn 0.050799 -0.900529 -0.431817
vn -0.212771 -0.748891 -0.627607
vn -0.019356 0.322746 -0.946288
vn 0.358471 0.308081 -0.881240
vn -0.029964 0.027939 -0.999161
vn 0.359373 0.019934 -0.932981
vn -0.382771 0.247687 -0.890021
vn -0.383061 0.271968 0.882778
vn 0.217075 0.478542 0.850809
vn 0.301282 0.252132 0.919597
vn -0.692350 0.695379 -0.192612
vn 0.309723 0.519049 -0.796656
vn -0.359066 0.130217 0.924184
vn 0.351206 0.106050 0.930273
vn -0.606530 0.787936 -0.106197
vn 0.941039 -0.324973 -0.094011
vn 0.994425 -0.028010 -0.101654
vn 0.944079 0.317159 -0.090141
vn 0.780047 0.613797 -0.121577
vn 0.149345 0.909441 0.388090
vn 0.296281 0.952599 0.069083
vn 0.390341 0.915731 -0.095243
vn 0.354977 0.853878 -0.380635
vn -0.462651 0.808080 0.364639
vn 0.015420 0.367649 0.929837
vn -0.027722 0.258040 0.965737
vn 0.000604 0.075408 0.997153
vn 0.015492 -0.029429 0.999447
vn 0.040758 -0.142670 0.988931
vn -0.919201 0.220824 -0.326046
vn -0.962305 -0.162897 -0.217794
vn 0.376527 0.866988 -0.326433
f 47/2/1 79/96/2 1/1/3
f 1/1/3 79/96/2 80/97/4
f 74/91/5 75/92/6 6/6/7
f 6/6/7 75/92/6 66/82/8
f 82/99/9 83/100/10 7/8/11
f 7/8/11 83/100/10 48/9/12
f 9/10/13 72/89/14 70/87/15
f 70/87/15 72/89/14 73/90/16
f 2/11/17 47/2/1 63/79/18
f 63/79/18 47/2/1 62/78/19
f 89/107/20 90/108/21 1/1/3
f 1/1/3 90/108/21 61/77/22
f 118/139/23 113/133/24 96/115/25
f 96/115/25 113/133/24 31/19/26
f 40/21/27 64/80/28 5/5/29
f 5/5/29 64/80/28 65/81/30
f 4/14/31 86/103/32 60/76/33
f 60/76/33 86/103/32 87/104/34
f 7/8/11 48/9/12 59/75/35
f 59/75/35 48/9/12 58/74/36
f 8/26/37 41/27/38 57/73/39
f 57/73/39 41/27/38 56/72/40
f 94/113/41 117/138/42 34/20/43
f 34/20/43 117/138/42 112/131/44
f 126/147/45 127/148/46 19/39/47
f 19/39/47 127/148/46 51/38/48
f 10/40/49 91/109/50 18/43/51
f 27/44/52 69/86/53 21/48/54
f 125/146/55 44/50/56 124/145/57
f 124/145/57 44/50/56 22/47/58
f 12/41/59 88/106/60 106/125/61
f 106/125/61 88/106/60 23/52/62
f 15/51/63 50/53/64 23/52/62
f 23/52/62 50/53/64 52/54/65
f 16/55/66 43/56/67 24/58/68
f 24/58/68 43/56/67 45/57/69
f 119/140/70 116/137/71 98/117/72
f 98/117/72 116/137/71 93/112/73
f 69/86/53 37/62/74 21/48/54
f 110/129/75 111/130/76 54/64/77
f 54/64/77 111/130/76 36/63/78
f 24/58/68 103/122/79 52/54/65
f 52/54/65 103/122/79 104/123/80
f 100/119/81 101/120/82 25/66/83
f 25/66/83 92/111/84 100/119/81
f 100/119/81 92/111/84 99/118/85
f 70/87/15 71/88/86 9/10/13
f 9/10/13 71/88/86 55/71/87
f 66/82/8 67/83/88 6/6/7
f 6/6/7 67/83/88 29/17/89
f 13/68/90 120/141/91 33/61/92
f 13/33/90 96/115/25 31/19/26
f 13/33/90 94/113/41 34/20/43
f 13/68/90 98/117/72 93/112/73
f 33/61/92 120/141/91 115/136/93
f 115/136/93 120/141/91 121/142/94
f 82/99/9 86/103/32 81/98/95
f 81/98/95 86/103/32 4/14/31
f 80/97/4 81/98/95 89/107/20
f 89/107/20 81/98/95 4/14/31
f 20/42/96 36/63/78 111/130/76
f 23/52/62 105/124/97 106/125/61
f 46/70/98 108/127/99 26/65/100
f 26/65/100 108/127/99 109/128/101
f 45/57/69 102/121/102 24/58/68
f 24/58/68 102/121/102 103/122/79
f 41/27/38 85/102/103 9/10/13
f 9/10/13 85/102/103 72/89/14
f 76/93/104 77/94/105 5/5/29
f 5/5/29 77/94/105 40/21/27
f 63/79/18 64/80/28 2/11/17
f 2/11/17 64/80/28 40/21/27
f 56/72/40 41/27/38 55/71/87
f 55/71/87 41/27/38 9/10/13
f 44/50/56 125/146/55 19/39/47
f 19/39/47 125/146/55 126/147/45
f 43/56/67 17/67/106 45/57/69
f 45/57/69 17/67/106 25/66/83
f 108/127/99 46/70/98 107/126/107
f 107/126/107 46/70/98 37/62/74
f 101/120/82 102/121/102 25/66/83
f 25/66/83 102/121/102 45/57/69
f 85/102/103 41/27/38 84/101/108
f 84/101/108 41/27/38 8/26/37
f 77/94/105 78/95/109 40/21/27
f 40/21/27 78/95/109 2/11/17
f 79/96/2 47/2/1 78/95/109
f 78/95/109 47/2/1 2/11/17
f 83/100/10 84/101/108 48/9/12
f 48/9/12 84/101/108 8/26/37
f 62/78/19 47/2/1 61/77/22
f 61/77/22 47/2/1 1/1/3
f 57/73/39 58/74/36 8/26/37
f 8/26/37 58/74/36 48/9/12
f 51/38/48 127/148/46 18/43/51
f 50/53/64 16/55/66 52/54/65
f 52/54/65 16/55/66 24/58/68
f 110/129/75 54/64/77 109/128/101
f 109/128/101 54/64/77 26/65/100
f 52/54/65 104/123/80 23/52/62
f 23/52/62 104/123/80 105/124/97
f 55/71/87 71/88/86 17/32/106
f 17/32/106 71/88/86 28/30/110
f 56/72/40 55/71/87 43/28/67
f 43/28/67 55/71/87 17/32/106
f 56/72/40 43/28/67 57/73/39
f 57/73/39 43/28/67 16/29/66
f 50/25/64 58/74/36 16/29/66
f 16/29/66 58/74/36 57/73/39
f 59/75/35 58/74/36 15/24/63
f 15/24/63 58/74/36 50/25/64
f 60/76/33 87/104/34 12/15/59
f 12/15/59 87/104/34 88/105/60
f 90/108/21 91/110/50 61/77/22
f 61/77/22 91/110/50 10/16/49
f 49/12/111 62/78/19 10/16/49
f 10/16/49 62/78/19 61/77/22
f 63/79/18 62/78/19 11/13/112
f 11/13/112 62/78/19 49/12/111
f 64/80/28 63/79/18 42/22/113
f 42/22/113 63/79/18 11/13/112
f 65/81/30 64/80/28 14/23/114
f 14/23/114 64/80/28 42/22/113
f 97/116/115 67/83/88 30/18/116
f 30/18/116 67/83/88 68/85/117
f 5/5/29 66/82/8 76/93/104
f 76/93/104 66/82/8 75/92/6
f 65/81/30 67/83/88 5/5/29
f 5/5/29 67/83/88 66/82/8
f 67/83/88 65/81/30 68/85/117
f 68/85/117 65/81/30 14/23/114
f 69/86/53 123/144/118 22/47/58
f 22/47/58 123/144/118 124/145/57
f 69/86/53 107/126/107 37/62/74
f 70/87/15 73/90/16 6/6/7
f 6/6/7 73/90/16 74/91/5
f 71/88/86 70/87/15 29/17/89
f 29/17/89 70/87/15 6/6/7
f 95/114/119 71/88/86 29/17/89
f 73/90/16 72/89/14 38/7/120
f 74/91/5 73/90/16 38/7/120
f 38/7/120 75/92/6 74/91/5
f 76/93/104 75/92/6 38/7/120
f 76/93/104 38/7/120 77/94/105
f 77/94/105 38/7/120 39/34/121
f 77/94/105 39/34/121 78/95/109
f 78/95/109 39/34/121 3/35/122
f 53/3/123 79/96/2 3/35/122
f 3/35/122 79/96/2 78/95/109
f 79/96/2 53/3/123 80/97/4
f 80/97/4 53/3/123 35/4/124
f 80/97/4 35/4/124 81/98/95
f 82/99/9 81/98/95 35/4/124
f 83/100/10 82/99/9 53/3/123
f 53/3/123 82/99/9 35/4/124
f 84/101/108 83/100/10 3/35/122
f 3/35/122 83/100/10 53/3/123
f 85/102/103 84/101/108 39/34/121
f 39/34/121 84/101/108 3/35/122
f 85/102/103 39/34/121 72/89/14
f 72/89/14 39/34/121 38/7/120
f 7/8/11 86/103/32 82/99/9
f 86/103/32 7/8/11 87/104/34
f 87/104/34 7/8/11 59/75/35
f 87/104/34 59/75/35 88/105/60
f 88/105/60 59/75/35 15/24/63
f 23/52/62 88/106/60 15/51/63
f 90/108/21 89/107/20 60/76/33
f 60/76/33 89/107/20 4/14/31
f 91/110/50 90/108/21 12/15/59
f 12/15/59 90/108/21 60/76/33
f 18/43/51 91/109/50 20/42/96
f 20/42/96 91/109/50 12/41/59
f 17/67/106 28/59/110 25/66/83
f 25/66/83 28/59/110 92/111/84
f 116/137/71 114/135/125 93/112/73
f 93/112/73 114/135/125 32/60/126
f 13/68/90 93/112/73 32/60/126
f 1/1/3 80/97/4 89/107/20
f 32/31/126 94/113/41 13/33/90
f 95/114/119 117/138/42 28/30/110
f 28/30/110 117/138/42 114/134/125
f 28/30/110 71/88/86 95/114/119
f 34/20/43 96/115/25 13/33/90
f 97/116/115 118/139/23 29/17/89
f 29/17/89 118/139/23 112/131/44
f 29/17/89 67/83/88 97/116/115
f 33/61/92 98/117/72 13/68/90
f 27/44/52 99/118/85 115/136/93
f 115/136/93 99/118/85 119/140/70
f 100/119/81 99/118/85 21/48/54
f 21/48/54 99/118/85 27/44/52
f 101/120/82 100/119/81 37/62/74
f 37/62/74 100/119/81 21/48/54
f 102/121/102 101/120/82 46/70/98
f 46/70/98 101/120/82 37/62/74
f 103/122/79 102/121/102 26/65/100
f 26/65/100 102/121/102 46/70/98
f 104/123/80 103/122/79 54/64/77
f 54/64/77 103/122/79 26/65/100
f 105/124/97 104/123/80 36/63/78
f 36/63/78 104/123/80 54/64/77
f 105/124/97 36/63/78 106/125/61
f 106/125/61 36/63/78 20/42/96
f 12/41/59 106/125/61 20/42/96
f 122/143/127 123/144/118 27/44/52
f 27/44/52 123/144/118 69/86/53
f 22/47/58 107/126/107 69/86/53
f 44/50/56 108/127/99 22/47/58
f 22/47/58 108/127/99 107/126/107
f 108/127/99 44/50/56 109/128/101
f 109/128/101 44/50/56 19/39/47
f 51/38/48 110/129/75 19/39/47
f 19/39/47 110/129/75 109/128/101
f 111/130/76 110/129/75 18/43/51
f 18/43/51 110/129/75 51/38/48
f 20/42/96 111/130/76 18/43/51
f 113/133/24 118/139/23 30/18/116
f 30/18/116 118/139/23 97/116/115
f 117/138/42 95/114/119 112/131/44
f 112/131/44 95/114/119 29/17/89
f 119/140/70 99/118/85 116/137/71
f 116/137/71 99/118/85 92/111/84
f 115/136/93 121/142/94 27/44/52
f 27/44/52 121/142/94 122/143/127
f 116/137/71 92/111/84 114/135/125
f 114/135/125 92/111/84 28/59/110
f 117/138/42 94/113/41 114/134/125
f 114/134/125 94/113/41 32/31/126
f 118/139/23 96/115/25 112/131/44
f 112/131/44 96/115/25 34/20/43
f 115/136/93 119/140/70 33/61/92
f 33/61/92 119/140/70 98/117/72
f 13/68/90 31/69/26 120/141/91
f 120/141/91 31/69/26 121/142/94
f 121/142/94 31/69/26 113/132/24
f 121/142/94 113/132/24 122/143/127
f 122/143/127 113/132/24 30/45/116
f 123/144/118 122/143/127 68/84/117
f 68/84/117 122/143/127 30/45/116
f 123/144/118 68/84/117 124/145/57
f 124/145/57 68/84/117 14/46/114
f 42/49/113 125/146/55 14/46/114
f 14/46/114 125/146/55 124/145/57
f 125/146/55 42/49/113 126/147/45
f 126/147/45 42/49/113 11/36/112
f 49/37/111 127/148/46 11/36/112
f 11/36/112 127/148/46 126/147/45
f 18/43/51 127/148/46 10/40/49
f 10/40/49 127/148/46 49/37/111
