# This file uses centimeters as units for non-parametric coordinates.

v -0.090644 -0.047148 0.065470
v 0.000140 -0.039006 0.064615
v 0.092178 -0.047149 0.065471
v -0.075745 -0.034449 -0.018645
v 0.000140 0.000346 -0.049295
v 0.081790 -0.034449 -0.018645
v -0.078303 0.041081 0.064947
v 0.001168 0.084688 0.064271
v 0.001168 0.067794 0.015373
v -0.057982 0.024187 0.015373
v 0.081794 0.041081 0.064947
v 0.065625 0.024187 0.015373
v 0.086658 -0.069570 0.031725
v -0.000146 -0.048126 0.016231
v -0.082575 -0.068848 0.026947
vt 0.840862 0.053713
vt 0.885087 0.048848
vt 0.885610 0.081860
vt 0.840463 0.074007
vt 0.931193 0.053432
vt 0.930871 0.074878
vt 0.812592 0.028543
vt 0.884996 0.030575
vt 0.883672 0.127206
vt 0.823903 0.096523
vt 0.820521 0.056425
vt 0.959264 0.029620
vt 0.953340 0.053808
vt 0.949939 0.097944
vt 0.445388 0.982155
vt 0.391668 0.962692
vt 0.384377 0.929073
vt 0.442317 0.939888
vt 0.491251 0.962496
vt 0.494871 0.931696
vt 0.383909 0.908848
vt 0.442865 0.909586
vt 0.500481 0.908043
vn -0.002299 0.764553 0.644556
vn -0.011298 0.846635 -0.532054
vn -0.821412 0.547104 0.161121
vn -0.728411 0.504052 -0.464058
vn 0.819434 0.536009 0.203031
vn 0.733134 0.505711 -0.454720
vn -0.517193 -0.434856 0.737164
vn -0.000067 -0.549644 0.835399
vn -0.531639 -0.344753 -0.773631
vn -0.013914 0.185669 -0.982514
vn -0.741924 -0.647098 -0.175537
vn 0.504488 -0.405886 0.762069
vn 0.531527 -0.366975 -0.763419
vn 0.749800 -0.653209 -0.105437
vn 0.005055 -0.933073 -0.359653
f 8/2/1 9/3/2 7/1/3
f 7/1/3 9/3/2 10/4/4
f 8/2/1 11/5/5 9/3/2
f 9/3/2 11/5/5 12/6/6
f 1/7/7 2/8/8 7/1/3
f 7/1/3 2/8/8 8/2/1
f 4/10/9 10/4/4 5/9/10
f 5/9/10 10/4/4 9/3/2
f 4/10/9 15/11/11 10/4/4
f 10/4/4 15/11/11 7/1/3
f 3/12/12 11/5/5 2/8/8
f 2/8/8 11/5/5 8/2/1
f 6/14/13 12/6/6 13/13/14
f 13/13/14 12/6/6 11/5/5
f 6/14/13 5/9/10 12/6/6
f 12/6/6 5/9/10 9/3/2
f 5/15/10 6/16/13 14/18/15
f 14/18/15 6/16/13 13/17/14
f 5/15/10 14/18/15 4/19/9
f 4/19/9 14/18/15 15/20/11
f 3/12/12 13/13/14 11/5/5
f 14/18/15 13/17/14 2/22/8
f 2/22/8 13/17/14 3/21/12
f 14/18/15 2/22/8 15/20/11
f 15/20/11 2/22/8 1/23/7
f 7/1/3 15/11/11 1/7/7
