# This file uses centimeters as units for non-parametric coordinates.

v 0.000001 -0.148955 -0.129564
v -0.111151 -0.146173 -0.100386
v -0.161945 -0.118208 -0.010027
v -0.103362 -0.175579 0.201542
v -0.003942 -0.162375 0.280603
v -0.007407 -0.062294 -0.312135
v -0.123493 -0.055637 -0.266690
v -0.291211 -0.019959 -0.104537
v -0.276104 -0.050607 0.039193
v -0.111921 -0.112304 0.245946
v -0.003699 -0.107916 0.283637
v 0.000075 0.080724 -0.327870
v -0.091970 0.087424 -0.274275
v -0.308480 0.057526 -0.133985
v -0.296297 0.093056 0.103021
v -0.082457 0.145122 0.292541
v 0.000075 0.146548 0.319123
v 0.000075 0.171952 -0.311275
v -0.075982 0.177664 -0.269983
v -0.294045 0.150312 -0.118702
v -0.293101 0.166184 0.061369
v -0.086800 0.275264 0.237397
v 0.000075 0.282901 0.253575
v 0.000075 0.306441 -0.229907
v -0.085309 0.279765 -0.207511
v -0.204778 0.280550 -0.071773
v -0.204674 0.274757 0.021867
v -0.091069 0.342217 0.100338
v -0.001075 0.359471 0.093821
v -0.090951 0.348674 -0.079887
v -0.001075 0.373673 -0.076994
v -0.091894 0.358245 0.019798
v -0.001075 0.380428 0.022276
v -0.236211 0.196623 0.025403
v -0.250128 0.174411 0.081733
v -0.245971 0.116943 0.106894
v -0.102069 0.158419 0.253203
v -0.117216 0.262079 0.207807
v -0.121787 0.309282 0.088202
v -0.123139 0.319156 0.017127
v -0.123369 0.313763 -0.077523
v -0.120699 0.267772 -0.180104
v -0.112978 0.164264 -0.223904
v -0.238020 0.192950 -0.062579
v -0.239668 0.152145 -0.143791
v -0.239060 0.091807 -0.158894
v -0.105706 0.106236 -0.242412
v -0.204645 0.261487 0.071268
v -0.204444 0.208024 0.137051
v -0.204513 0.127682 0.146972
v -0.238214 0.087720 0.135931
v -0.180774 -0.050770 0.135266
v -0.116939 -0.166985 0.167716
v -0.204730 0.241414 -0.158304
v -0.204633 0.148284 -0.192576
v -0.200284 0.092782 -0.184692
v -0.215446 0.067853 -0.232601
v -0.205544 -0.046237 -0.200478
v -0.133146 -0.117817 -0.062667
v -0.291570 0.190407 -0.057746
v -0.290977 0.197747 0.015485
v 0.000001 0.090081 0.331795
v -0.107304 0.088974 0.283818
v -0.228535 0.026283 0.122556
v -0.293601 0.032195 0.096280
v -0.217779 -0.054199 0.060026
v -0.234848 -0.025329 0.109283
v -0.224177 -0.005585 0.147673
v -0.134067 0.058256 0.252198
v 0.000001 0.078428 0.306489
v -0.312049 0.093304 -0.054560
v -0.298067 -0.014455 -0.040918
v -0.311301 0.104307 0.013626
v -0.303430 0.009632 0.026771
v -0.120224 -0.192958 0.139661
v -0.054265 -0.209476 0.203472
v -0.098438 -0.143528 0.251138
v -0.003151 -0.144284 0.282660
v 0.000001 0.054958 0.326128
v -0.134827 0.040393 0.270024
v -0.221774 -0.009566 0.151955
v -0.223180 -0.036732 0.111425
v -0.207895 -0.059745 0.091975
v 0.000001 0.013665 0.256805
v -0.118525 0.009350 0.213669
v -0.196271 -0.019307 0.153999
v -0.195153 -0.030688 0.122637
v -0.183572 -0.058423 0.102193
v -0.172730 -0.079293 0.088987
v -0.198896 -0.095863 0.048307
v -0.229343 -0.082633 -0.104957
v -0.245632 0.069170 -0.155231
v -0.236070 -0.035134 -0.139897
v -0.252691 -0.066032 -0.041968
v -0.156259 0.251862 0.187692
v -0.160868 0.290723 0.082690
v -0.162068 0.297347 0.017851
v -0.162436 0.292155 -0.075920
v -0.159512 0.251841 -0.173868
v -0.152037 0.167395 -0.214047
v -0.146401 0.104198 -0.234913
v -0.146592 0.150927 0.229514
v -0.131838 0.154437 0.239673
v -0.139865 0.260264 0.191515
v -0.138969 0.316452 0.083863
v -0.143543 0.324920 0.015190
v -0.148094 0.320143 -0.079082
v -0.138476 0.271337 -0.178145
v -0.129758 0.170854 -0.220265
v -0.124680 0.101775 -0.239639
v -0.194758 -0.084969 0.070791
v -0.128393 -0.181111 0.166809
v -0.093921 -0.195713 0.214662
v -0.006243 -0.182116 0.279779
v -0.156387 -0.120710 0.160514
v -0.148458 -0.128952 0.128298
v -0.162868 -0.138883 0.118175
v -0.150680 -0.150946 0.095349
v -0.122690 -0.167826 0.044245
v -0.139046 -0.045463 0.216348
v -0.002749 -0.051059 0.273605
v -0.159895 -0.104588 0.043124
v -0.137079 -0.152096 0.081145
v -0.098253 -0.192401 0.119709
v -0.045051 -0.212510 0.178661
v -0.002505 -0.215670 0.192286
v -0.131765 -0.152791 0.186916
v -0.084790 -0.165519 0.245476
v -0.067703 -0.189100 0.246148
v -0.032254 -0.223663 0.224555
v -0.203304 -0.110478 -0.168489
v -0.134967 -0.132071 -0.225170
v -0.016136 -0.136923 -0.261254
v 0.000001 -0.239117 -0.057776
v -0.045264 -0.243113 -0.036133
v -0.061462 -0.240694 -0.011802
v -0.076148 -0.237257 0.010990
v -0.102589 -0.240715 0.054227
v -0.060010 -0.198696 0.244577
v -0.006549 -0.194958 0.275261
v -0.084576 -0.211485 0.111424
v -0.038192 -0.232005 0.154197
v -0.000022 -0.239536 0.159452
v -0.055902 -0.255307 0.081661
v -0.064177 -0.265090 0.056918
v -0.062666 -0.272682 0.021661
v -0.055230 -0.276390 -0.017561
v 0.000001 -0.274817 0.038060
v 0.000001 -0.271046 0.075566
v 0.000001 -0.279226 0.007326
v 0.000001 -0.277434 -0.031348
v -0.109328 -0.178988 0.013647
v -0.087724 -0.182570 -0.016873
v -0.063824 -0.185389 -0.050416
v 0.000001 -0.184717 -0.075031
v -0.218435 -0.061232 0.029516
v -0.159961 -0.109120 0.024179
v -0.294874 -0.017018 -0.070546
v -0.310456 0.077335 -0.090011
v 0.111153 -0.146173 -0.100386
v 0.139618 -0.120692 -0.221916
v 0.133148 -0.117817 -0.062667
v 0.161947 -0.118208 -0.010027
v 0.224826 -0.078769 -0.069645
v 0.216410 -0.102256 -0.154714
v 0.150682 -0.150946 0.095349
v 0.137081 -0.152096 0.081145
v 0.098256 -0.193470 0.109597
v 0.120226 -0.193839 0.131319
v 0.089211 -0.140967 0.253865
v 0.127771 -0.156475 0.178561
v 0.100914 -0.178505 0.190968
v 0.074879 -0.166901 0.252761
v 0.111322 -0.112387 0.245259
v 0.130780 -0.055637 -0.266690
v 0.092822 0.077316 -0.275623
v 0.247153 -0.024313 -0.127371
v 0.291213 -0.019959 -0.104537
v 0.302352 0.079471 -0.132701
v 0.269824 0.072276 -0.167115
v 0.271568 -0.061338 0.037262
v 0.293603 0.032195 0.096280
v 0.303432 0.009632 0.026771
v 0.223350 0.001558 0.153514
v 0.115998 0.065141 0.265858
v 0.107306 0.088974 0.283818
v 0.221935 0.029220 0.173639
v 0.087412 0.177726 -0.269395
v 0.235189 0.100634 -0.161368
v 0.294047 0.150312 -0.118702
v 0.239671 0.152145 -0.143791
v 0.146480 0.258647 0.195859
v 0.124906 0.153308 0.243145
v 0.106852 0.162637 0.250588
v 0.128326 0.268436 0.199880
v 0.083713 0.148009 0.293096
v 0.086950 0.275264 0.237397
v 0.085458 0.279765 -0.207511
v 0.291572 0.190407 -0.057746
v 0.238022 0.192950 -0.062579
v 0.290979 0.197747 0.015485
v 0.236213 0.196623 0.025403
v 0.221498 0.208024 0.137051
v 0.144204 0.304990 0.083112
v 0.208773 0.259428 0.090760
v 0.091218 0.342217 0.100338
v 0.063826 -0.185389 -0.050416
v 0.045266 -0.243113 -0.036133
v 0.109330 -0.178988 0.013647
v 0.087726 -0.182570 -0.016873
v 0.061464 -0.240694 -0.011802
v 0.076150 -0.237257 0.010990
v 0.128396 -0.182560 0.153095
v 0.092096 -0.197092 0.214607
v 0.116941 -0.168434 0.154002
v 0.061788 -0.189574 0.248321
v 0.296299 0.093056 0.103021
v 0.311303 0.104307 0.013626
v 0.091101 0.348674 -0.079887
v 0.148130 0.312738 0.016919
v 0.155747 0.307540 -0.076963
v 0.202588 0.280550 -0.071773
v 0.208440 0.274757 0.021867
v 0.092043 0.358245 0.019798
v 0.293103 0.166184 0.061369
v 0.246131 0.168270 0.094036
v 0.235244 0.133004 0.135224
v 0.091250 0.169215 0.258757
v 0.108730 0.262049 0.207810
v 0.119685 0.309427 0.088187
v 0.121911 0.319353 0.017106
v 0.118734 0.315022 -0.077390
v 0.111749 0.271295 -0.174299
v 0.109164 0.164063 -0.223883
v 0.205284 0.241414 -0.158304
v 0.202551 0.094869 -0.185072
v 0.210778 0.148284 -0.192576
v 0.111475 0.117886 -0.244629
v 0.203678 0.135674 0.153259
v 0.237951 0.113931 0.171729
v 0.246962 -0.008102 0.102106
v 0.150652 0.262498 -0.173650
v 0.148522 0.168814 -0.214365
v 0.138689 0.105517 -0.235686
v 0.216927 0.066218 -0.216494
v 0.218579 -0.044109 -0.181829
v 0.208137 -0.054199 0.060026
v 0.177231 -0.050770 0.135266
v 0.181518 -0.015318 0.153080
v 0.187561 -0.026699 0.121717
v 0.180213 -0.058423 0.102193
v 0.136207 -0.045463 0.216348
v 0.118528 0.009350 0.213669
v 0.310458 0.077335 -0.090011
v 0.312051 0.093304 -0.054560
v 0.298069 -0.014455 -0.040918
v 0.147777 -0.130870 0.128638
v 0.162870 -0.138883 0.118175
v 0.044635 -0.215171 0.152815
v 0.053120 -0.212907 0.169610
v 0.029941 -0.223720 0.233570
v 0.134829 0.040393 0.270024
v 0.221777 -0.009566 0.151955
v 0.223182 -0.036732 0.111425
v 0.186712 -0.059745 0.091975
v 0.218437 -0.061232 0.029516
v 0.175297 -0.079293 0.088987
v 0.277081 -0.070166 -0.038657
v 0.135043 0.318357 0.083368
v 0.139617 0.326824 0.014695
v 0.144168 0.322047 -0.079577
v 0.133880 0.268684 -0.177926
v 0.129760 0.170854 -0.220265
v 0.125903 0.117731 -0.241808
v 0.177712 -0.095863 0.048307
v 0.045401 -0.199282 0.248441
v 0.154946 -0.122628 0.160854
v 0.173574 -0.084969 0.070791
v 0.159897 -0.104588 0.043124
v 0.102591 -0.240715 0.054227
v 0.122692 -0.167826 0.044245
v 0.159963 -0.109120 0.024179
v 0.084578 -0.212816 0.098825
v 0.038194 -0.233941 0.135882
v 0.294876 -0.017018 -0.070546
v 0.055904 -0.256011 0.074995
v 0.064180 -0.265176 0.056102
v 0.062668 -0.272682 0.021661
v 0.055232 -0.276390 -0.017561
v -0.160164 0.117208 0.226250
v -0.164975 0.058911 0.228386
v 0.165214 0.133414 0.242619
v 0.169853 0.062525 0.238946
v -0.003524 -0.229413 0.235375
vt 0.587640 0.694878
vt 0.587248 0.698391
vt 0.566420 0.645391
vt 0.568020 0.633556
vt 0.584119 0.700298
vt 0.584119 0.731507
vt 0.573485 0.697979
vt 0.575428 0.676403
vt 0.604598 0.798136
vt 0.609698 0.792283
vt 0.619167 0.823477
vt 0.616137 0.823331
vt 0.149983 0.739514
vt 0.144407 0.734232
vt 0.147051 0.725690
vt 0.155696 0.725699
vt 0.177215 0.737316
vt 0.174897 0.765281
vt 0.142609 0.763533
vt 0.776375 0.459438
vt 0.859256 0.468340
vt 0.842090 0.570697
vt 0.797894 0.579663
vt 0.925095 0.517891
vt 0.510488 0.664070
vt 0.474828 0.673118
vt 0.952171 0.527766
vt 0.569912 0.760214
vt 0.525369 0.776943
vt 0.529177 0.741864
vt 0.087177 0.862080
vt 0.115987 0.852215
vt 0.129113 0.865605
vt 0.174945 0.858817
vt 0.175515 0.870934
vt 0.951636 0.567989
vt 0.927253 0.568981
vt 0.843078 0.618259
vt 0.456054 0.703451
vt 0.467104 0.668026
vt 0.474637 0.673391
vt 0.456195 0.703390
vt 0.448358 0.697077
vt 0.429203 0.802212
vt 0.130293 0.880467
vt 0.451786 0.828652
vt 0.812549 0.666204
vt 0.454928 0.724541
vt 0.446372 0.836008
vt 0.461318 0.747014
vt 0.422456 0.814119
vt 0.180160 0.884103
vt 0.454465 0.724461
vt 0.444037 0.722586
vt 0.790457 0.689081
vt 0.461274 0.747086
vt 0.426275 0.968991
vt 0.403344 0.974739
vt 0.402996 0.968542
vt 0.419304 0.963348
vt 0.442477 0.954679
vt 0.434790 0.961469
vt 0.425103 0.957887
vt 0.430357 0.952830
vt 0.614014 0.820735
vt 0.603353 0.845679
vt 0.131268 0.721225
vt 0.145223 0.713104
vt 0.139213 0.729219
vt 0.177807 0.726497
vt 0.497513 0.777792
vt 0.485131 0.743484
vt 0.843635 0.660042
vt 0.450179 0.754153
vt 0.442822 0.786896
vt 0.415140 0.779718
vt 0.431713 0.766625
vt 0.406713 0.753966
vt 0.400722 0.727954
vt 0.844001 0.672025
vt 0.472220 0.760830
vt 0.179399 0.940566
vt 0.140050 0.934345
vt 0.425722 0.724174
vt 0.431230 0.753170
vt 0.471624 0.759996
vt 0.458583 0.768945
vt 0.497889 0.778595
vt 0.809310 0.621559
vt 0.466754 0.783418
vt 0.448483 0.862696
vt 0.443341 0.845899
vt 0.407032 0.833858
vt 0.415529 0.824248
vt 0.390310 0.788246
vt 0.536957 0.796240
vt 0.379031 0.790368
vt 0.842889 0.650037
vt 0.810998 0.650625
vt 0.374145 0.759768
vt 0.384385 0.758940
vt 0.571803 0.765122
vt 0.156351 0.708318
vt 0.178013 0.707852
vt 0.110159 0.794795
vt 0.095793 0.818640
vt 0.100429 0.801088
vt 0.102970 0.790851
vt 0.125615 0.792640
vt 0.119649 0.829514
vt 0.488862 0.712210
vt 0.531383 0.707073
vt 0.173971 0.789183
vt 0.601396 0.802720
vt 0.616673 0.837863
vt 0.613829 0.838069
vt 0.613332 0.847619
vt 0.616509 0.846686
vt 0.173159 0.823844
vt 0.125199 0.749191
vt 0.115397 0.743450
vt 0.118656 0.838505
vt 0.173043 0.835151
vt 0.576185 0.745895
vt 0.175057 0.856144
vt 0.564642 0.703886
vt 0.375350 0.723209
vt 0.381039 0.725052
vt 0.389428 0.680950
vt 0.392259 0.685617
vt 0.419474 0.647008
vt 0.422696 0.652709
vt 0.580758 0.755679
vt 0.605260 0.854923
vt 0.603672 0.871220
vt 0.119447 0.846906
vt 0.587269 0.775047
vt 0.584651 0.752759
vt 0.439769 0.942813
vt 0.447203 0.948232
vt 0.583837 0.745698
vt 0.452269 0.940585
vt 0.460621 0.951145
vt 0.460708 0.955199
vt 0.438115 0.930192
vt 0.433164 0.931229
vt 0.418720 0.916112
vt 0.416236 0.920743
vt 0.402411 0.919296
vt 0.404497 0.911272
vt 0.402455 0.936855
vt 0.422752 0.936051
vt 0.521652 0.687046
vt 0.485699 0.693073
vt 0.587640 0.694878
vt 0.587248 0.698391
vt 0.566420 0.645391
vt 0.568020 0.633556
vt 0.584119 0.700298
vt 0.584119 0.731507
vt 0.573485 0.697979
vt 0.575428 0.676403
vt 0.604598 0.798136
vt 0.609698 0.792283
vt 0.619167 0.823477
vt 0.616137 0.823331
vt 0.090907 0.834005
vt 0.084559 0.851138
vt 0.070475 0.841321
vt 0.080220 0.829996
vt 0.095875 0.792825
vt 0.087613 0.795112
vt 0.455306 0.635001
vt 0.428361 0.702754
vt 0.463948 0.654946
vt 0.437106 0.674922
vt 0.453913 0.642309
vt 0.510488 0.664070
vt 0.474828 0.673118
vt 0.907747 0.566031
vt 0.569912 0.760214
vt 0.525369 0.776943
vt 0.529177 0.741864
vt 0.179517 0.985148
vt 0.144607 0.972176
vt 0.476398 0.666401
vt 0.455343 0.635374
vt 0.445391 0.643425
vt 0.462481 0.801804
vt 0.900221 0.494482
vt 0.925390 0.492909
vt 0.946472 0.503890
vt 0.456054 0.703451
vt 0.467104 0.668026
vt 0.525040 0.776598
vt 0.472909 0.807810
vt 0.413053 0.694594
vt 0.429376 0.666568
vt 0.453913 0.642309
vt 0.472900 0.650407
vt 0.081617 0.881550
vt 0.536784 0.795752
vt 0.448523 0.697412
vt 0.773761 0.648802
vt 0.454928 0.724541
vt 0.456981 0.702948
vt 0.461318 0.747014
vt 0.474793 0.673309
vt 0.086214 0.853041
vt 0.428533 0.803438
vt 0.422025 0.814718
vt 0.814533 0.680029
vt 0.446408 0.835542
vt 0.425787 0.941207
vt 0.425319 0.948886
vt 0.422727 0.957668
vt 0.402595 0.952006
vt 0.402536 0.945208
vt 0.402711 0.960892
vt 0.461534 0.962490
vt 0.451399 0.974415
vt 0.614014 0.820735
vt 0.603353 0.845679
vt 0.109246 0.782814
vt 0.159173 0.703650
vt 0.177414 0.698001
vt 0.131886 0.755738
vt 0.497513 0.777792
vt 0.485131 0.743484
vt 0.840017 0.685438
vt 0.452783 0.829087
vt 0.444126 0.721951
vt 0.454651 0.724195
vt 0.448754 0.754103
vt 0.461262 0.745909
vt 0.441957 0.786119
vt 0.815157 0.692555
vt 0.472220 0.760830
vt 0.400752 0.785799
vt 0.274450 0.838947
vt 0.274127 0.851798
vt 0.224881 0.862948
vt 0.431666 0.765334
vt 0.416132 0.779521
vt 0.407013 0.753396
vt 0.431420 0.753644
vt 0.396123 0.757762
vt 0.426587 0.723497
vt 0.389575 0.728123
vt 0.450578 0.645556
vt 0.889763 0.453168
vt 0.234979 0.850580
vt 0.400974 0.728317
vt 0.536957 0.796240
vt 0.471915 0.760531
vt 0.855802 0.443087
vt 0.770175 0.436002
vt 0.755206 0.589762
vt 0.730422 0.473838
vt 0.571803 0.765122
vt 0.100603 0.774322
vt 0.194403 0.743628
vt 0.197581 0.724586
vt 0.208678 0.719199
vt 0.216084 0.729866
vt 0.201299 0.768474
vt 0.226569 0.720214
vt 0.219187 0.728223
vt 0.485699 0.693073
vt 0.488862 0.712210
vt 0.531383 0.707073
vt 0.210597 0.715033
vt 0.601396 0.802720
vt 0.616673 0.837863
vt 0.613829 0.838069
vt 0.613332 0.847619
vt 0.616509 0.846686
vt 0.198848 0.710520
vt 0.250159 0.792760
vt 0.254164 0.794966
vt 0.258516 0.816226
vt 0.252534 0.829862
vt 0.576185 0.745895
vt 0.226762 0.832735
vt 0.564642 0.703886
vt 0.458606 0.767854
vt 0.497780 0.777631
vt 0.465561 0.783880
vt 0.450423 0.865483
vt 0.678580 0.503137
vt 0.678047 0.586287
vt 0.580758 0.755679
vt 0.605260 0.854923
vt 0.603672 0.871220
vt 0.226380 0.795293
vt 0.587269 0.775047
vt 0.584651 0.752759
vt 0.443580 0.981806
vt 0.403688 0.988545
vt 0.583837 0.745698
vt 0.380270 0.969286
vt 0.386526 0.963558
vt 0.363788 0.955183
vt 0.521652 0.687046
vt 0.375280 0.953182
vt 0.380620 0.958172
vt 0.371604 0.961874
vt 0.365593 0.943288
vt 0.359019 0.948796
vt 0.346262 0.955932
vt 0.346296 0.951877
vt 0.353925 0.941213
vt 0.242143 0.742021
vt 0.235105 0.745862
vt 0.229003 0.839308
vt 0.232461 0.855728
vt 0.256100 0.833117
vt 0.258874 0.843146
vt 0.282223 0.798531
vt 0.272186 0.799492
vt 0.266354 0.796327
vt 0.265359 0.769264
vt 0.260381 0.777256
vt 0.195247 0.705862
vt 0.228916 0.753115
vt 0.265188 0.769709
vt 0.442491 0.844282
vt 0.415977 0.824498
vt 0.407645 0.834075
vt 0.212370 0.886958
vt 0.213095 0.941559
vt 0.390517 0.787461
vt 0.379154 0.792056
vt 0.373226 0.759016
vt 0.214075 0.978659
vt 0.385601 0.759489
vt 0.381344 0.725125
vt 0.375781 0.723137
vt 0.393573 0.685957
vt 0.310111 0.890887
vt 0.389902 0.680613
vt 0.419086 0.646859
vt 0.422820 0.652378
vt 0.429043 0.701900
vt 0.463948 0.654946
vt 0.271517 0.887450
vt 0.303008 0.856647
vt 0.283179 0.840123
vt 0.437569 0.675546
vt 0.666103 0.600569
vt 0.662875 0.511536
vt 0.767243 0.624955
vt 0.476439 0.666091
vt 0.455121 0.635080
vt 0.445391 0.643425
vt 0.776720 0.660425
vt 0.462083 0.801647
vt 0.471962 0.807575
vt 0.412865 0.694879
vt 0.429565 0.666735
vt 0.453913 0.642309
vt 0.472900 0.650407
vt 0.403843 0.786700
vt 0.395834 0.757478
vt 0.389952 0.728390
vt 0.712648 0.580790
vt 0.693669 0.492371
vt 0.678466 0.486615
vt 0.696361 0.473098
vt 0.404055 0.690180
vt 0.428129 0.659488
vt 0.450578 0.645556
vt 0.715178 0.464885
vt 0.735190 0.448355
vt 0.783534 0.677321
vt 0.404300 0.690414
vt 0.427600 0.659250
vt 0.450578 0.645556
vt 0.523818 0.796321
vt 0.513071 0.794659
vt 0.498349 0.779352
vt 0.461208 0.834102
vt 0.104456 0.882589
vt 0.108004 0.863900
vt 0.100441 0.851081
vt 0.445391 0.643425
vt 0.367441 0.932874
vt 0.372230 0.934403
vt 0.386478 0.922020
vt 0.388714 0.924966
vt 0.382310 0.937789
vt 0.379291 0.941686
vt 0.379865 0.949177
vt 0.382631 0.957925
vt 0.345523 0.963234
vt 0.355949 0.975028
vt 0.363665 0.982319
vt 0.240122 0.887189
vt 0.460529 0.838313
vt 0.247828 0.857752
vt 0.613277 0.852863
vt 0.613277 0.852863
vn -0.315730 -0.947459 0.051342
vn -0.151587 -0.985463 -0.076707
vn 0.021565 -0.992502 -0.120308
vn 0.032035 -0.994978 -0.094832
vn -0.522808 -0.848082 0.086195
vn -0.506718 -0.860301 -0.055849
vn -0.418110 -0.900427 0.120062
vn -0.432224 -0.887850 0.157811
vn -0.516523 -0.737610 -0.434897
vn -0.345538 -0.869673 -0.352522
vn -0.425247 -0.758738 -0.493438
vn -0.280845 -0.934217 -0.219922
vn -0.794615 -0.536063 0.284998
vn -0.696554 -0.643261 0.317849
vn -0.576643 -0.332747 0.746165
vn -0.496460 -0.370560 0.784992
vn -0.013837 -0.154143 0.987952
vn -0.007039 0.058550 0.998260
vn -0.649710 -0.047328 0.758708
vn -0.440158 -0.248557 -0.862833
vn -0.448343 0.342993 -0.825436
vn -0.024622 -0.225297 -0.973979
vn -0.006159 0.035821 -0.999339
vn -0.571683 -0.364439 -0.735094
vn -0.714314 -0.512914 -0.476104
vn -0.667828 -0.021527 -0.744004
vn -0.797781 -0.097475 -0.595016
vn -0.594638 -0.762394 0.255267
vn -0.759490 -0.248321 0.601258
vn -0.973231 -0.209490 0.094523
vn -0.714883 -0.148864 0.683214
vn -0.650288 0.000959 0.759687
vn -0.352681 -0.628586 0.693178
vn 0.000869 -0.771449 0.636291
vn 0.000000 -0.908333 0.418247
vn -0.014820 0.278942 -0.960194
vn -0.638001 0.279525 -0.717510
vn -0.707156 0.464065 -0.533454
vn -0.429862 0.098727 -0.897480
vn -0.352845 0.596162 -0.721173
vn -0.674252 0.331711 0.659812
vn -0.491981 0.454952 0.742276
vn -0.518785 0.507426 0.688027
vn -0.419593 0.708492 0.567434
vn -0.009967 0.328568 0.944428
vn 0.018035 0.662029 0.749261
vn -0.509116 0.357750 0.782825
vn -0.510629 0.600977 0.614886
vn -0.005715 0.736241 -0.676696
vn -0.574875 0.530639 -0.622849
vn -0.089214 0.953277 -0.288625
vn -0.767617 0.611134 -0.193077
vn -0.532724 0.836123 0.130783
vn -0.127046 0.951682 0.279572
vn -0.811753 0.386897 0.437456
vn -0.612290 0.740490 0.277082
vn -0.789853 0.346684 0.505907
vn -0.784316 0.569584 0.245811
vn -0.024713 0.945234 0.325456
vn -0.519092 0.802475 0.294242
vn -0.488402 -0.654780 -0.576824
vn 0.000000 -0.527081 -0.849815
vn -0.511689 -0.351278 -0.784078
vn 0.000000 -0.441817 -0.897105
vn -0.783817 -0.509087 -0.355614
vn -0.716725 -0.595662 -0.362619
vn -0.785470 -0.485836 -0.383406
vn -0.841679 -0.305656 -0.445142
vn -0.672270 -0.296671 0.678262
vn -0.510591 -0.347638 0.786412
vn -0.042458 -0.181597 0.982456
vn -0.036790 -0.304031 0.951952
vn -0.725697 0.249540 0.641166
vn -0.992961 0.082893 0.084603
vn -0.002915 0.981374 -0.192083
vn -0.546100 0.795223 -0.263430
vn -0.295536 0.914675 -0.275732
vn -0.639594 0.759867 -0.116280
vn -0.399811 0.915962 0.034138
vn -0.757371 0.647128 0.087256
vn -0.488389 0.869615 0.072430
vn -0.002871 0.994116 0.108287
vn -0.417048 0.676810 0.606630
vn -0.609361 0.572522 0.548543
vn -0.454706 0.469808 0.756653
vn -0.628699 0.409905 0.660845
vn -0.735241 0.510607 0.445759
vn -0.762624 0.624520 0.168460
vn -0.766218 0.642579 -0.001258
vn -0.727643 0.664024 -0.172073
vn -0.663725 0.558292 -0.497773
vn -0.746535 0.207822 -0.632057
vn -0.914344 0.404322 0.022318
vn -0.933059 0.352918 -0.069647
vn -0.860629 0.236327 -0.451074
vn -0.655596 0.532105 -0.535778
vn -0.601246 -0.158369 -0.783213
vn -0.690064 -0.010942 -0.723666
vn -0.635737 0.101671 -0.765180
vn -0.588657 0.366565 -0.720495
vn -0.842704 0.327792 0.427087
vn -0.706115 0.240515 0.665999
vn -0.778417 0.129359 0.614275
vn -0.657533 0.153714 0.737579
vn -0.751656 0.396842 0.526811
vn -0.926259 0.146890 0.347085
vn -0.730516 -0.506168 0.458411
vn -0.867958 -0.025826 0.495966
vn -0.375895 0.661623 -0.648813
vn -0.424915 0.308384 -0.851086
vn -0.564451 0.045923 -0.824188
vn -0.650882 0.366282 -0.664974
vn -0.274695 0.640667 -0.717000
vn -0.590752 0.624079 -0.511407
vn -0.786041 -0.251272 -0.564803
vn -0.608766 0.105547 0.786297
vn -0.004245 0.128256 0.991732
vn -0.769982 -0.025351 0.637562
vn -0.742844 0.225663 0.630285
vn -0.537790 -0.236326 0.809279
vn -0.651754 -0.712856 0.258946
vn -0.659063 -0.539447 0.524054
vn -0.460723 -0.743651 0.484477
vn -0.862321 -0.443443 0.244459
vn -0.600792 -0.623432 0.500382
vn -0.706393 -0.029752 0.707194
vn -0.391974 -0.349980 0.850806
vn -0.002896 0.220736 0.975329
vn 0.000290 -0.626439 0.779471
vn -0.998810 0.007396 -0.048213
vn -0.998399 0.040724 -0.039260
vn -0.927749 -0.372263 -0.026507
vn -0.631779 0.472867 0.614209
vn -0.619113 0.290182 0.729721
vn -0.834641 -0.046441 0.548833
vn -0.888907 -0.223018 0.400135
vn -0.721541 -0.692163 -0.016981
vn -0.037357 -0.111280 0.993087
vn 0.105602 -0.021152 0.994183
vn -0.141905 0.659894 0.737836
vn -0.495239 -0.240764 0.834728
vn -0.616356 -0.528091 0.584145
vn -0.414531 -0.747636 0.518849
vn -0.505470 -0.695837 0.510207
vn -0.504011 -0.860004 0.079781
vn -0.640515 -0.322059 0.697151
vn -0.586057 -0.810102 0.016518
vn -0.904877 -0.229433 -0.358549
vn -0.672412 0.699602 0.241700
vn -0.293744 0.924996 0.241033
vn -0.364666 0.930902 0.020958
vn -0.805977 0.589010 0.058894
vn -0.406210 0.881893 -0.239289
vn -0.832232 0.533632 -0.150424
vn -0.511110 0.484960 -0.709634
vn -0.325944 0.707932 -0.626572
vn -0.301060 0.331925 -0.893973
vn -0.204767 0.326943 -0.922593
vn -0.158270 0.543649 -0.824255
vn -0.806114 0.121207 0.579215
vn -0.473662 0.530861 0.702731
vn 0.096485 0.939574 0.328467
vn 0.299141 0.952560 0.056077
vn 0.233712 0.943296 -0.235737
vn 0.023047 0.597887 -0.801249
vn -0.118908 0.308513 -0.943759
vn -0.497978 -0.866527 -0.033890
vn -0.693591 -0.720128 -0.018659
vn -0.368182 -0.871682 -0.323438
vn -0.631970 -0.773239 0.052100
vn -0.824772 -0.562725 0.055609
vn -0.816839 -0.574323 -0.054101
vn -0.895875 -0.403884 0.185164
vn -0.912480 -0.408172 -0.027851
vn -0.792797 -0.464901 0.394133
vn -0.859871 -0.509302 0.035137
vn -0.793205 -0.607637 0.040039
vn -0.796805 -0.601805 -0.054150
vn -0.861919 -0.507040 0.002487
vn -0.857089 -0.492656 0.150625
vn -0.741040 -0.653539 0.154102
vn -0.716385 -0.598870 0.357977
vn -0.526832 -0.722724 0.447345
vn -0.376654 -0.816768 0.437061
vn -0.930148 -0.366154 -0.027499
vn -0.841441 -0.304691 -0.446252
vn -0.920010 -0.308280 -0.241963
vn -0.530117 -0.367019 -0.764378
vn -0.020083 -0.527325 -0.849427
vn 0.168998 -0.847451 0.503256
vn 0.020172 -0.944343 0.328343
vn -0.425048 -0.795909 0.431118
vn -0.436211 -0.885422 0.160464
vn -0.604302 -0.796136 -0.031428
vn -0.576896 -0.700499 -0.420110
vn 0.000000 -0.998319 0.057962
vn 0.000087 -0.988648 0.150252
vn 0.000000 -0.754496 -0.656304
vn -0.733520 -0.651495 -0.193657
vn -0.738924 -0.654705 -0.159224
vn -0.504038 -0.816276 -0.282206
vn 0.000000 -0.845196 -0.534456
vn -0.897948 -0.436123 -0.059040
vn -0.996693 -0.045736 -0.067167
vn 0.178780 -0.974061 -0.138716
vn 0.314631 -0.949210 0.002804
vn 0.417303 -0.898306 0.137491
vn 0.402969 -0.906439 -0.126432
vn 0.434313 -0.894296 0.107741
vn 0.552357 -0.830707 0.069483
vn 0.526731 -0.697893 -0.485283
vn 0.390972 -0.840299 -0.375552
vn 0.514700 -0.718673 -0.467539
vn 0.331360 -0.911838 -0.242388
vn 0.504074 -0.278207 0.817625
vn 0.724830 -0.605779 0.328107
vn 0.571575 -0.300074 0.763713
vn 0.765175 -0.593351 0.249883
vn 0.630322 -0.093973 0.770626
vn 0.474393 0.170458 -0.863652
vn 0.467196 -0.274345 -0.840513
vn 0.414656 -0.597718 -0.686144
vn 0.711410 0.021582 -0.702446
vn 0.767409 -0.458947 -0.447717
vn 0.816249 0.143113 -0.559693
vn 0.575628 -0.739162 0.349703
vn 0.972824 -0.211174 0.094968
vn 0.847134 -0.311291 0.430652
vn 0.722625 -0.294195 0.625510
vn 0.436411 -0.580430 0.687493
vn 0.763485 -0.225770 0.605077
vn 0.302981 -0.675763 0.671973
vn 0.302137 -0.500954 0.811023
vn 0.269725 -0.656990 0.703998
vn 0.672552 0.283049 -0.683782
vn 0.347466 0.614628 -0.708167
vn 0.704200 0.466685 -0.535077
vn 0.427498 0.543789 -0.722177
vn 0.267780 0.754390 0.599324
vn 0.470975 0.450127 0.758662
vn 0.483963 0.502898 0.716152
vn 0.496645 0.690907 0.525349
vn 0.670365 0.480351 0.565574
vn 0.509481 0.406879 0.758208
vn 0.662544 0.515167 -0.543727
vn 0.089214 0.953277 -0.288625
vn 0.767617 0.611135 -0.193077
vn 0.532724 0.836123 0.130783
vn 0.114427 0.948008 0.296962
vn 0.786417 0.255281 0.562476
vn 0.795792 0.569234 0.206611
vn 0.705080 0.405278 0.581904
vn 0.533761 0.819534 0.208478
vn 0.496235 0.806919 0.320363
vn 0.488402 -0.654780 -0.576824
vn 0.511689 -0.351278 -0.784078
vn 0.783817 -0.509087 -0.355614
vn 0.786032 -0.484657 -0.383746
vn 0.716724 -0.595662 -0.362620
vn 0.841679 -0.305656 -0.445142
vn 0.577914 0.423853 0.697398
vn 0.827309 0.308018 0.469770
vn 0.821660 -0.297936 0.485910
vn 0.678823 -0.571657 0.460878
vn 0.425840 -0.444894 0.787864
vn 0.660725 -0.280412 0.696284
vn 0.820350 0.234454 0.521591
vn 0.992961 0.082893 0.084603
vn 0.578428 0.771945 -0.263672
vn 0.777801 0.625156 0.064844
vn 0.674676 0.720250 -0.161408
vn 0.518409 0.853828 0.047224
vn 0.505672 0.838742 -0.202009
vn 0.494765 0.865912 0.073515
vn 0.667138 0.594146 0.449353
vn 0.502026 0.642463 0.578974
vn 0.542357 0.704158 0.458269
vn 0.809063 0.438434 0.391399
vn 0.763429 0.321505 0.560188
vn 0.782015 0.597120 0.178608
vn 0.787556 0.616230 -0.004125
vn 0.765789 0.614846 -0.188498
vn 0.753392 0.499250 -0.427961
vn 0.870976 0.230924 -0.433676
vn 0.933126 0.350921 -0.078300
vn 0.935850 0.350845 0.033051
vn 0.718410 0.453924 -0.527105
vn 0.888338 0.228367 -0.398377
vn 0.593208 -0.200880 -0.779584
vn 0.644379 0.089774 -0.759419
vn 0.746845 -0.051616 -0.662992
vn 0.571646 0.348023 -0.743035
vn 0.930678 0.310594 0.193313
vn 0.745881 0.120715 0.655049
vn 0.634618 0.075013 0.769177
vn 0.693189 0.425600 0.581682
vn 0.398557 0.872499 0.282662
vn 0.698935 -0.536941 0.472425
vn 0.453583 0.691417 -0.562320
vn 0.392934 0.312840 -0.864716
vn 0.504476 0.019774 -0.863199
vn 0.530271 0.409202 -0.742541
vn 0.551848 0.364973 -0.749839
vn 0.386128 0.762729 -0.518796
vn 0.761381 -0.283126 -0.583213
vn 0.510611 0.032628 0.859192
vn 0.679008 -0.040625 0.733006
vn 0.597086 0.510225 0.618997
vn 0.524019 -0.783551 0.333843
vn 0.843636 -0.411958 0.344339
vn 0.525210 -0.680653 0.510750
vn 0.929609 -0.292289 0.224488
vn 0.672793 -0.508466 0.537411
vn 0.726884 0.021927 0.686410
vn 0.384597 -0.420331 0.821831
vn 0.985740 -0.065501 -0.155003
vn 0.998399 0.040724 -0.039260
vn 0.965815 -0.259232 -0.000097
vn 0.934073 -0.217131 0.283481
vn 0.553092 0.213292 0.805354
vn 0.216618 -0.976005 0.022176
vn 0.256653 -0.966488 -0.005504
vn 0.712300 -0.701339 0.027411
vn 0.516828 -0.415541 0.748475
vn 0.495880 0.570440 0.654753
vn 0.442326 -0.716404 0.539549
vn 0.441594 -0.797102 0.411854
vn 0.620014 -0.660409 0.423607
vn 0.877325 -0.456756 0.147224
vn 0.902227 -0.287538 0.321417
vn 0.395240 -0.898335 0.191781
vn 0.650106 -0.758420 -0.046484
vn 0.917185 -0.315669 -0.243158
vn 0.266119 0.936059 0.230164
vn 0.721982 0.648124 0.242233
vn 0.838692 0.536792 0.091929
vn 0.305088 0.951676 0.035138
vn 0.731336 0.654893 -0.190431
vn 0.304975 0.914775 -0.264910
vn 0.376106 0.543805 -0.750214
vn 0.222635 0.733468 -0.642229
vn 0.159631 0.382791 -0.909939
vn 0.401901 0.301029 -0.864788
vn 0.315021 0.352623 -0.881146
vn 0.758187 0.131412 0.638658
vn 0.233020 0.609834 0.757499
vn -0.346209 0.897985 0.271594
vn -0.415692 0.907795 0.055753
vn -0.231750 0.941966 -0.242884
vn -0.014698 0.611969 -0.790745
vn 0.080306 0.402060 -0.912085
vn 0.639714 -0.753753 0.150409
vn 0.877368 -0.479676 -0.011713
vn 0.918527 -0.352561 0.178913
vn 0.866041 -0.499945 0.005298
vn 0.903289 -0.338217 0.263967
vn 0.701053 -0.700711 0.132396
vn 0.514740 -0.808065 -0.286485
vn 0.793747 -0.601629 0.089489
vn 0.860109 -0.508150 0.044683
vn 0.857090 -0.492656 0.150624
vn 0.861919 -0.507040 0.002487
vn 0.799278 -0.598289 -0.056612
vn 0.697488 -0.582415 0.417497
vn 0.728874 -0.663812 0.167621
vn 0.471820 -0.761820 0.443865
vn 0.546098 -0.671357 0.501055
vn 0.959974 -0.268351 -0.080243
vn 0.872168 -0.323055 -0.367366
vn 0.928974 -0.370003 0.010257
vn 0.546279 -0.415174 -0.727468
vn 0.418342 -0.757528 0.501140
vn 0.441252 -0.876072 0.194408
vn 0.604438 -0.796050 -0.030967
vn 0.576896 -0.700499 -0.420110
vn 0.738924 -0.654706 -0.159224
vn 0.733520 -0.651495 -0.193657
vn 0.504038 -0.816276 -0.282206
vn 0.547784 -0.824973 0.139115
vn 0.959974 -0.268348 -0.080242
vn 0.996693 -0.045737 -0.067169
vn 0.377417 -0.465572 0.800499
vn -0.656802 -0.618584 0.431237
vn -0.853240 0.141500 0.501955
vn -0.394999 -0.915971 0.070519
vn -0.229627 -0.965335 -0.124097
vn -0.465805 -0.679974 0.566270
vn -0.092979 -0.621639 0.777766
vn 0.027765 -0.981909 -0.187305
vn -0.335873 -0.933761 0.123612
vn -0.003629 -0.807937 0.589258
vn 0.016140 -0.703149 0.710860
vn 0.346894 -0.596977 0.723383
vn 0.257933 -0.942860 0.210918
vn 0.034818 -0.952377 -0.302927
f 2/2/1 132/3/2 1/1/3
f 1/1/3 132/3/2 133/4/4
f 3/6/5 91/7/6 59/5/7
f 59/5/7 91/7/6 131/8/8
f 123/10/9 124/11/10 118/9/11
f 118/9/11 124/11/10 75/12/12
f 127/14/13 4/15/14 77/13/15
f 77/13/15 4/15/14 128/16/16
f 78/17/17 11/18/18 77/13/15
f 77/13/15 11/18/18 10/19/19
f 7/21/20 13/22/21 6/20/22
f 6/20/22 13/22/21 12/23/23
f 93/24/24 8/27/25 92/37/26
f 92/37/26 8/27/25 14/36/27
f 9/28/28 65/29/29 74/30/30
f 291/384/31 69/32/32 63/33/33
f 69/32/32 70/34/34 63/33/33
f 63/33/33 70/34/34 62/35/35
f 12/23/23 13/22/21 18/89/36
f 18/89/36 13/22/21 19/38/37
f 14/41/27 20/42/38 46/40/39
f 46/40/39 20/42/38 45/43/40
f 102/46/41 103/49/42 95/44/43
f 95/44/43 103/49/42 104/51/44
f 17/52/45 23/82/46 16/45/47
f 16/45/47 23/82/46 22/83/48
f 18/89/36 19/38/37 24/99/49
f 24/99/49 19/38/37 25/98/50
f 45/43/40 20/42/38 44/54/51
f 44/54/51 20/42/38 60/53/52
f 60/53/52 61/56/53 44/54/51
f 44/54/51 61/56/53 34/74/54
f 95/44/55 96/76/56 49/75/57
f 49/75/57 96/76/56 48/77/58
f 23/82/46 29/184/59 22/83/48
f 22/83/48 29/184/59 28/185/60
f 154/57/61 155/58/62 135/60/63
f 135/60/63 155/58/62 134/59/64
f 152/61/65 153/62/66 137/64/67
f 137/64/67 153/62/66 136/63/68
f 128/16/69 129/103/70 5/70/71
f 5/70/71 129/103/70 114/104/72
f 15/71/73 73/72/74 65/29/29
f 65/29/29 73/72/74 74/30/30
f 31/47/75 24/99/49 30/73/76
f 30/73/76 24/99/49 25/98/50
f 98/79/77 26/84/78 97/78/79
f 97/78/79 26/84/78 27/85/80
f 30/73/76 32/80/81 31/47/75
f 31/47/75 32/80/81 33/212/82
f 97/78/79 27/85/80 96/76/56
f 96/76/56 27/85/80 48/77/58
f 33/212/82 32/80/81 29/237/59
f 29/237/59 32/80/81 28/230/60
f 35/87/83 34/74/54 21/86/84
f 21/86/84 34/74/54 61/56/53
f 15/88/73 36/90/85 21/86/84
f 21/86/84 36/90/85 35/87/83
f 102/46/41 16/91/47 103/49/42
f 16/91/47 22/93/48 37/92/86
f 37/92/86 22/93/48 38/94/87
f 39/95/88 38/94/87 28/97/60
f 28/97/60 38/94/87 22/93/48
f 40/101/89 39/95/88 32/100/81
f 32/100/81 39/95/88 28/97/60
f 32/100/81 30/127/76 40/101/89
f 40/101/89 30/127/76 41/128/90
f 25/129/50 42/130/91 30/127/76
f 30/127/76 42/130/91 41/128/90
f 19/131/37 43/132/92 25/129/50
f 25/129/50 43/132/92 42/130/91
f 34/74/93 27/85/80 44/54/94
f 44/54/94 27/85/80 26/84/78
f 45/43/95 44/54/94 54/174/96
f 54/174/96 44/54/94 26/84/78
f 56/175/97 46/40/98 55/176/99
f 55/176/99 46/40/98 45/43/95
f 92/186/26 14/41/27 46/40/39
f 13/187/21 47/188/100 19/131/37
f 19/131/37 47/188/100 43/132/92
f 48/77/58 27/85/80 34/74/93
f 49/75/57 48/77/58 35/87/101
f 35/87/101 48/77/58 34/74/93
f 36/90/102 50/189/103 35/87/101
f 35/87/101 50/189/103 49/75/57
f 15/88/73 51/196/104 36/90/85
f 36/90/85 51/196/104 50/189/105
f 64/31/106 67/209/107 68/385/108
f 26/84/78 98/79/77 54/174/96
f 54/174/96 98/79/77 99/197/109
f 55/176/99 54/174/96 100/198/110
f 100/198/110 54/174/96 99/197/109
f 56/175/97 55/176/99 101/199/111
f 101/199/111 55/176/99 100/198/110
f 13/187/21 57/200/112 101/199/113
f 101/199/113 57/200/112 56/175/114
f 58/190/115 57/180/112 7/21/20
f 7/21/20 57/180/112 13/22/21
f 132/3/2 2/2/1 131/8/8
f 131/8/8 2/2/1 59/5/7
f 153/62/66 154/57/61 136/63/68
f 136/63/68 154/57/61 135/60/63
f 55/176/99 45/43/95 54/174/96
f 61/50/53 73/72/74 21/81/84
f 21/81/84 73/72/74 15/71/73
f 63/33/116 62/35/117 16/45/47
f 16/45/47 62/35/117 17/52/45
f 291/384/118 63/33/116 290/383/119
f 290/383/119 63/33/116 16/45/47
f 64/379/120 51/380/104 65/195/29
f 65/195/29 51/380/104 15/381/73
f 66/102/121 67/96/107 9/28/28
f 9/28/28 67/96/107 65/29/29
f 86/106/122 87/107/123 52/105/124
f 52/105/124 87/107/123 88/108/125
f 52/105/124 120/109/126 86/106/122
f 86/106/122 120/109/126 85/110/127
f 120/109/126 121/113/128 85/110/127
f 85/110/127 121/113/128 84/119/129
f 159/154/130 20/39/38 14/26/27
f 71/111/131 73/72/74 60/48/52
f 60/48/52 73/72/74 61/50/53
f 72/112/132 74/30/30 71/111/131
f 71/111/131 74/30/30 73/72/74
f 53/69/133 116/120/134 112/67/135
f 112/67/135 116/120/134 117/121/136
f 53/69/137 4/15/14 127/14/13
f 5/70/138 78/17/17 128/16/16
f 128/16/16 78/17/17 77/13/15
f 79/123/139 70/125/140 80/122/141
f 80/122/141 70/125/140 69/136/32
f 80/122/141 69/136/32 81/167/142
f 81/167/142 69/136/32 68/168/108
f 82/170/143 81/167/142 67/169/107
f 67/169/107 81/167/142 68/168/108
f 82/170/143 67/169/107 83/171/144
f 83/171/144 67/169/107 66/172/121
f 156/124/145 66/102/121 9/28/28
f 85/110/127 84/119/129 80/122/141
f 80/122/141 84/119/129 79/123/139
f 86/106/122 85/110/127 81/167/142
f 81/167/142 85/110/127 80/122/141
f 82/170/143 87/107/123 81/167/142
f 81/167/142 87/107/123 86/106/122
f 88/108/125 87/107/123 83/171/144
f 83/171/144 87/107/123 82/170/143
f 89/224/146 88/108/125 83/171/144
f 93/24/24 91/191/6 8/27/25
f 8/27/25 91/191/6 94/192/147
f 57/200/112 92/186/26 56/175/114
f 56/175/114 92/186/26 46/40/39
f 93/24/148 92/37/26 58/190/115
f 58/190/115 92/37/26 57/180/112
f 94/126/147 9/28/28 72/112/132
f 72/112/132 9/28/28 74/30/30
f 95/44/43 104/51/44 96/76/149
f 96/76/149 104/51/44 105/239/150
f 106/247/151 97/78/152 105/239/150
f 105/239/150 97/78/152 96/76/149
f 107/249/153 98/79/154 106/247/151
f 106/247/151 98/79/154 97/78/152
f 99/197/155 98/79/154 108/376/156
f 108/376/156 98/79/154 107/249/153
f 100/198/157 99/197/155 109/377/158
f 109/377/158 99/197/155 108/376/156
f 110/378/159 101/199/113 109/377/158
f 109/377/158 101/199/113 100/198/157
f 13/173/21 101/177/113 110/250/159
f 50/189/103 102/46/160 49/75/57
f 49/75/57 102/46/160 95/44/55
f 290/382/119 16/91/47 102/46/41
f 103/49/42 16/91/47 37/92/86
f 104/51/44 103/49/42 38/94/161
f 38/94/161 103/49/42 37/92/86
f 105/239/150 104/51/44 39/95/162
f 39/95/162 104/51/44 38/94/161
f 39/95/162 40/101/163 105/239/150
f 105/239/150 40/101/163 106/247/151
f 40/101/163 41/128/164 106/247/151
f 106/247/151 41/128/164 107/249/153
f 107/249/153 41/128/164 108/376/156
f 108/376/156 41/128/164 42/130/165
f 43/132/166 109/377/158 42/130/165
f 42/130/165 109/377/158 108/376/156
f 47/188/100 110/378/159 43/132/166
f 43/132/166 110/378/159 109/377/158
f 13/173/21 110/250/159 47/386/100
f 3/6/5 157/141/167 156/124/145
f 156/124/145 157/141/167 90/133/168
f 157/141/167 122/138/169 90/133/168
f 112/65/135 117/114/136 75/12/170
f 75/12/170 117/114/136 118/9/171
f 116/120/172 115/227/173 89/224/174
f 89/224/174 115/227/173 52/105/124
f 116/120/134 89/224/146 117/121/136
f 117/121/136 89/224/146 111/261/175
f 117/114/136 111/137/175 118/9/171
f 118/9/171 111/137/175 90/133/168
f 90/133/168 122/138/169 118/9/11
f 118/9/11 122/138/169 123/10/9
f 119/140/176 152/61/65 138/139/177
f 138/139/177 152/61/65 137/64/67
f 10/19/19 120/109/126 115/227/173
f 115/227/173 120/109/126 52/105/124
f 11/18/18 121/113/128 10/19/19
f 10/19/19 121/113/128 120/109/126
f 123/142/178 122/143/179 119/140/176
f 119/140/176 122/143/179 157/144/180
f 123/142/178 119/140/176 124/145/181
f 124/145/181 119/140/176 141/146/182
f 124/145/181 141/146/182 125/147/183
f 125/147/183 141/146/182 142/148/184
f 115/227/173 127/14/13 10/19/19
f 10/19/19 127/14/13 77/13/15
f 127/14/13 115/227/173 53/69/137
f 53/69/137 115/227/173 116/120/172
f 8/25/25 94/126/147 158/153/185
f 159/154/130 14/26/27 158/153/185
f 158/153/185 14/26/27 8/25/25
f 58/190/115 131/251/186 93/24/148
f 93/24/148 131/251/186 91/191/187
f 7/21/20 132/256/188 58/190/115
f 58/190/115 132/256/188 131/251/186
f 132/256/188 7/21/20 133/257/189
f 133/257/189 7/21/20 6/20/22
f 91/7/6 156/124/145 94/126/147
f 94/126/147 156/124/145 9/28/28
f 66/172/121 111/261/175 83/171/144
f 83/171/144 111/261/175 89/224/146
f 143/149/190 142/148/184 149/151/191
f 149/151/191 142/148/184 144/152/192
f 141/146/182 119/140/176 138/139/177
f 144/152/192 142/148/184 141/146/182
f 141/146/182 138/139/177 144/152/192
f 144/152/192 138/139/177 145/214/193
f 146/215/194 145/214/193 137/64/67
f 137/64/67 145/214/193 138/139/177
f 137/64/67 136/63/68 146/215/194
f 146/215/194 136/63/68 147/216/195
f 135/60/63 147/216/195 136/63/68
f 150/217/196 148/218/197 146/215/194
f 146/215/194 148/218/197 145/214/193
f 148/218/197 149/151/191 145/214/193
f 145/214/193 149/151/191 144/152/192
f 151/219/198 150/217/196 147/216/195
f 147/216/195 150/217/196 146/215/194
f 134/59/64 151/219/198 135/60/63
f 135/60/63 151/219/198 147/216/195
f 59/221/199 153/62/66 3/220/200
f 3/220/200 153/62/66 152/61/65
f 154/57/61 153/62/66 2/298/201
f 2/298/201 153/62/66 59/221/199
f 2/298/201 1/299/202 154/57/61
f 154/57/61 1/299/202 155/58/62
f 111/137/175 66/102/121 90/133/168
f 90/133/168 66/102/121 156/124/145
f 91/7/6 3/6/5 156/124/145
f 157/144/180 3/220/200 119/140/176
f 119/140/176 3/220/200 152/61/65
f 158/153/203 94/126/147 72/112/132
f 71/111/131 159/154/204 72/112/132
f 72/112/132 159/154/204 158/153/203
f 60/48/52 20/39/38 71/111/131
f 71/111/131 20/39/38 159/154/204
f 89/224/146 52/105/124 88/108/125
f 133/158/4 161/157/205 1/155/3
f 1/155/3 161/157/205 160/156/206
f 165/162/207 164/161/208 162/159/209
f 162/159/209 164/161/208 163/160/210
f 166/163/211 169/166/212 167/164/213
f 167/164/213 169/166/212 168/165/214
f 173/263/215 172/264/216 170/262/217
f 170/262/217 172/264/216 171/265/218
f 174/266/219 11/18/18 170/262/217
f 170/262/217 11/18/18 78/17/17
f 12/23/23 176/258/220 6/20/22
f 6/20/22 176/258/220 175/259/221
f 177/290/222 180/291/223 178/351/224
f 178/351/224 180/291/223 179/350/225
f 181/181/226 183/183/227 182/182/228
f 187/241/229 293/400/230 184/240/231
f 184/240/231 293/400/230 185/252/232
f 185/252/233 186/242/234 70/34/34
f 70/34/34 186/242/234 62/35/35
f 12/23/23 18/89/36 176/258/220
f 176/258/220 18/89/36 188/352/235
f 191/203/236 190/206/237 189/194/238
f 189/194/238 190/206/237 179/208/225
f 195/211/239 194/213/240 192/210/241
f 192/210/241 194/213/240 193/231/242
f 197/331/243 23/82/46 196/330/244
f 196/330/244 23/82/46 17/52/45
f 18/89/36 24/99/49 188/352/235
f 188/352/235 24/99/49 198/204/245
f 191/203/236 200/232/246 190/206/237
f 190/206/237 200/232/246 199/233/247
f 199/233/247 200/232/246 201/235/248
f 201/235/248 200/232/246 202/234/249
f 203/236/250 205/243/251 192/210/252
f 192/210/252 205/243/251 204/244/253
f 197/331/243 206/335/254 23/82/46
f 23/82/46 206/335/254 29/184/59
f 207/301/255 208/302/256 155/58/62
f 155/58/62 208/302/256 134/59/64
f 209/303/257 212/305/258 210/307/259
f 210/307/259 212/305/258 211/306/260
f 215/268/261 172/264/262 213/267/263
f 213/267/263 172/264/262 214/272/264
f 114/104/72 216/278/265 5/70/71
f 5/70/71 216/278/265 173/263/266
f 217/228/267 182/182/228 218/229/268
f 218/229/268 182/182/228 183/183/227
f 31/47/75 219/356/269 24/99/49
f 24/99/49 219/356/269 198/204/245
f 223/246/270 222/248/271 220/245/272
f 220/245/272 222/248/271 221/253/273
f 33/212/82 224/375/274 31/47/75
f 31/47/75 224/375/274 219/356/269
f 205/243/251 223/246/270 204/244/253
f 204/244/253 223/246/270 220/245/272
f 33/212/82 29/237/59 224/375/274
f 224/375/274 29/237/59 206/55/254
f 201/235/248 202/234/249 225/255/275
f 225/255/275 202/234/249 226/286/276
f 225/255/275 226/286/276 217/287/267
f 217/287/267 226/286/276 227/288/277
f 193/231/242 194/213/240 196/289/244
f 229/328/278 197/329/243 228/327/279
f 228/327/279 197/329/243 196/289/244
f 230/332/280 206/333/254 229/328/278
f 229/328/278 206/333/254 197/329/243
f 206/333/254 230/332/280 224/334/274
f 224/334/274 230/332/280 231/336/281
f 224/334/274 231/336/281 219/338/269
f 219/338/269 231/336/281 232/337/282
f 232/337/282 233/339/283 219/338/269
f 219/338/269 233/339/283 198/341/245
f 188/342/235 198/341/245 234/343/284
f 234/343/284 198/341/245 233/339/283
f 222/248/271 223/246/270 200/232/285
f 200/232/285 223/246/270 202/234/286
f 222/248/271 200/232/285 235/344/287
f 235/344/287 200/232/285 191/203/288
f 236/345/289 237/349/290 189/194/291
f 189/194/291 237/349/290 191/203/288
f 180/353/223 189/194/238 179/208/225
f 176/354/220 188/342/235 238/355/292
f 238/355/292 188/342/235 234/343/284
f 205/243/251 202/234/286 223/246/270
f 202/234/286 205/243/251 226/286/293
f 226/286/293 205/243/251 203/236/250
f 226/286/293 203/236/250 227/288/294
f 227/288/294 203/236/250 239/357/295
f 217/287/267 227/288/277 240/358/296
f 240/358/296 227/288/277 239/357/297
f 182/347/228 187/241/229 241/348/298
f 241/348/298 187/241/229 184/240/231
f 235/344/287 242/359/299 222/248/271
f 222/248/271 242/359/299 221/253/273
f 242/359/299 235/344/287 243/360/300
f 243/360/300 235/344/287 237/349/290
f 243/360/300 237/349/290 244/361/301
f 244/361/301 237/349/290 236/345/289
f 176/354/220 244/361/302 245/362/303
f 245/362/303 244/361/302 236/345/304
f 176/258/220 245/366/303 175/259/221
f 175/259/221 245/366/303 246/367/305
f 161/157/205 165/162/207 160/156/206
f 160/156/206 165/162/207 162/159/209
f 208/302/256 207/301/255 211/306/260
f 211/306/260 207/301/255 210/307/259
f 237/349/290 235/344/287 191/203/288
f 217/228/267 218/229/268 225/238/275
f 225/238/275 218/229/268 201/207/248
f 186/242/306 196/330/244 62/35/117
f 62/35/117 196/330/244 17/52/45
f 187/241/229 240/346/296 293/400/307
f 293/400/307 240/346/296 292/398/308
f 182/347/228 217/340/267 187/241/229
f 187/241/229 217/340/267 240/346/296
f 182/182/228 241/254/298 181/181/226
f 181/181/226 241/254/298 247/260/309
f 251/280/310 250/281/311 248/279/312
f 248/279/312 250/281/311 249/282/313
f 248/279/312 249/282/313 252/295/314
f 252/295/314 249/282/313 253/284/315
f 252/295/314 253/284/315 121/113/128
f 121/113/128 253/284/315 84/119/129
f 254/269/316 179/179/225 190/193/237
f 255/270/317 199/205/247 218/229/268
f 218/229/268 199/205/247 201/207/248
f 218/229/268 183/183/227 255/270/317
f 255/270/317 183/183/227 256/271/318
f 258/313/319 257/314/320 213/267/263
f 213/267/263 257/314/320 215/268/261
f 259/274/321 168/165/214 260/275/322
f 260/275/322 168/165/214 169/166/212
f 215/268/323 171/265/218 172/264/216
f 170/262/217 78/17/17 173/263/215
f 173/263/215 78/17/17 5/70/138
f 262/315/324 185/316/325 79/123/139
f 79/123/139 185/316/325 70/125/140
f 263/317/326 184/318/231 262/315/324
f 262/315/324 184/318/231 185/316/325
f 184/318/231 263/317/326 241/319/298
f 241/319/298 263/317/326 264/320/327
f 265/321/328 247/322/309 264/320/327
f 264/320/327 247/322/309 241/319/298
f 247/322/309 265/321/328 278/326/329
f 278/326/329 265/321/328 267/323/330
f 266/283/331 181/181/226 247/260/309
f 253/284/315 262/315/324 84/119/129
f 84/119/129 262/315/324 79/123/139
f 249/282/313 263/317/326 253/284/315
f 253/284/315 263/317/326 262/315/324
f 264/320/327 263/317/326 250/281/311
f 250/281/311 263/317/326 249/282/313
f 251/280/310 265/321/328 250/281/311
f 250/281/311 265/321/328 264/320/327
f 267/323/330 265/321/328 251/280/310
f 177/290/222 178/351/224 164/369/208
f 164/369/208 178/351/224 268/368/332
f 236/345/304 189/194/238 245/362/303
f 245/362/303 189/194/238 180/353/223
f 245/366/303 180/291/223 246/367/305
f 246/367/305 180/291/223 177/290/333
f 183/183/227 181/181/226 256/271/318
f 256/271/318 181/181/226 268/285/332
f 269/363/334 195/211/239 204/244/335
f 204/244/335 195/211/239 192/210/241
f 204/244/335 220/245/336 269/363/334
f 269/363/334 220/245/336 270/364/337
f 220/245/336 221/253/338 270/364/337
f 270/364/337 221/253/338 271/365/339
f 242/359/340 272/370/341 221/253/338
f 221/253/338 272/370/341 271/365/339
f 272/370/341 242/359/340 273/371/342
f 273/371/342 242/359/340 243/360/343
f 273/371/342 243/360/343 274/372/344
f 274/372/344 243/360/343 244/361/302
f 176/354/220 274/372/344 244/361/302
f 203/236/250 192/210/252 239/357/295
f 239/357/295 192/210/252 193/231/345
f 240/358/296 239/357/297 292/399/308
f 292/399/308 239/357/297 193/231/242
f 194/213/240 228/327/279 196/289/244
f 195/211/239 229/328/346 194/213/240
f 194/213/240 229/328/346 228/327/279
f 269/363/334 230/332/347 195/211/239
f 195/211/239 230/332/347 229/328/346
f 230/332/347 269/363/334 231/336/348
f 231/336/348 269/363/334 270/364/337
f 231/336/348 270/364/337 232/337/349
f 232/337/349 270/364/337 271/365/339
f 233/339/350 232/337/349 272/370/341
f 272/370/341 232/337/349 271/365/339
f 234/343/351 233/339/350 273/371/342
f 273/371/342 233/339/350 272/370/341
f 238/355/292 234/343/351 274/372/344
f 274/372/344 234/343/351 273/371/342
f 176/354/220 238/355/292 274/372/344
f 169/166/352 166/163/353 213/222/263
f 213/222/263 166/163/353 258/273/319
f 169/166/352 213/222/263 260/275/322
f 260/275/322 213/222/263 214/223/264
f 267/323/354 248/279/312 257/314/355
f 257/314/355 248/279/312 277/325/356
f 278/326/329 267/323/330 258/313/319
f 258/313/319 267/323/330 257/314/320
f 275/292/357 278/296/329 166/163/353
f 166/163/353 278/296/329 258/273/319
f 275/292/357 166/163/211 279/297/358
f 279/297/358 166/163/211 167/164/213
f 212/305/258 209/303/257 280/308/359
f 280/308/359 209/303/257 281/309/360
f 174/266/219 277/325/356 252/295/314
f 252/295/314 277/325/356 248/279/312
f 252/295/314 121/113/128 174/266/219
f 174/266/219 121/113/128 11/18/18
f 282/310/361 279/311/362 281/309/360
f 281/309/360 279/311/362 167/312/363
f 283/388/364 281/309/360 168/387/365
f 168/387/365 281/309/360 167/312/363
f 284/390/366 283/388/364 259/389/367
f 259/389/367 283/388/364 168/387/365
f 277/325/356 174/266/219 171/265/218
f 171/265/218 174/266/219 170/262/217
f 215/268/323 257/314/355 171/265/218
f 171/265/218 257/314/355 277/325/356
f 216/278/265 214/272/264 173/263/266
f 173/263/266 214/272/264 172/264/262
f 178/178/224 285/304/368 268/285/332
f 285/304/368 178/178/224 254/269/316
f 254/269/316 178/178/224 179/179/225
f 246/367/305 177/290/333 165/373/369
f 165/373/369 177/290/333 164/369/370
f 175/259/221 246/367/305 161/374/371
f 161/374/371 246/367/305 165/373/369
f 6/20/22 175/259/221 133/257/189
f 133/257/189 175/259/221 161/374/371
f 181/181/226 266/283/331 268/285/332
f 268/285/332 266/283/331 164/161/208
f 286/391/372 284/390/366 149/151/191
f 149/151/191 284/390/366 143/149/190
f 283/388/364 280/308/359 281/309/360
f 286/391/372 283/388/364 284/390/366
f 283/388/364 286/391/372 280/308/359
f 280/308/359 286/391/372 287/392/373
f 288/393/374 212/305/258 287/392/373
f 287/392/373 212/305/258 280/308/359
f 212/305/258 288/393/374 211/306/260
f 211/306/260 288/393/374 289/394/375
f 208/302/256 211/306/260 289/394/375
f 150/217/196 288/393/374 148/218/197
f 148/218/197 288/393/374 287/392/373
f 148/218/197 287/392/373 149/151/191
f 149/151/191 287/392/373 286/391/372
f 151/219/198 289/394/375 150/217/196
f 150/217/196 289/394/375 288/393/374
f 134/59/64 208/302/256 151/219/198
f 151/219/198 208/302/256 289/394/375
f 209/303/257 210/307/259 163/395/376
f 163/395/376 210/307/259 162/396/377
f 207/301/255 160/397/378 210/307/259
f 210/307/259 160/397/378 162/396/377
f 160/397/378 207/301/255 1/299/202
f 1/299/202 207/301/255 155/58/62
f 164/161/208 266/283/331 163/160/210
f 266/283/331 247/260/309 275/292/357
f 275/292/357 247/260/309 278/296/329
f 163/160/210 266/283/331 282/300/379
f 279/297/358 282/300/379 275/292/357
f 275/292/357 282/300/379 266/283/331
f 209/303/257 163/395/376 281/309/360
f 281/309/360 163/395/376 282/310/361
f 285/304/380 256/271/318 268/285/332
f 285/304/380 254/269/381 256/271/318
f 256/271/318 254/269/381 255/270/317
f 199/205/247 255/270/317 190/193/237
f 190/193/237 255/270/317 254/269/381
f 267/323/330 251/280/310 248/279/312
f 51/196/104 290/382/119 50/189/105
f 50/189/105 290/382/119 102/46/41
f 64/31/120 291/384/118 51/201/104
f 51/201/104 291/384/118 290/383/119
f 69/32/32 291/384/31 68/385/108
f 68/385/108 291/384/31 64/31/106
f 65/195/29 67/202/107 64/379/120
f 292/399/308 193/231/242 196/289/244
f 293/400/307 292/398/308 186/242/306
f 186/242/306 292/398/308 196/330/244
f 185/252/233 293/400/382 186/242/234
f 113/68/383 4/15/384 112/67/135
f 112/67/135 4/15/384 53/69/133
f 76/116/385 75/12/12 125/115/386
f 125/115/386 75/12/12 124/11/10
f 112/65/135 75/12/170 113/66/383
f 113/66/383 75/12/170 76/116/385
f 129/103/70 139/225/387 114/104/72
f 114/104/72 139/225/387 140/226/388
f 129/103/70 128/16/69 113/68/383
f 113/68/383 128/16/69 4/15/384
f 139/225/387 129/103/70 113/68/383
f 126/118/389 130/117/390 125/115/386
f 125/115/386 130/117/390 76/116/385
f 143/149/190 126/150/391 142/148/184
f 142/148/184 126/150/391 125/147/183
f 130/117/390 139/134/387 76/116/385
f 76/116/385 139/134/387 113/66/383
f 139/134/387 130/117/390 140/135/388
f 140/135/388 130/117/390 294/401/392
f 216/278/265 114/104/72 276/324/393
f 276/324/393 114/104/72 140/226/388
f 276/324/393 214/272/264 216/278/265
f 261/276/394 126/277/389 260/275/322
f 260/275/322 126/277/389 259/274/321
f 284/390/366 259/389/367 143/149/190
f 143/149/190 259/389/367 126/150/391
f 260/275/322 214/223/264 261/276/394
f 261/276/394 214/223/264 276/293/393
f 261/276/394 276/293/393 294/402/392
f 294/402/392 276/293/393 140/294/388
f 294/401/395 130/117/390 126/118/389
f 261/276/394 294/402/395 126/277/389
