# This file uses centimeters as units for non-parametric coordinates.

v -12.363352 7.990938 -6.416368
v -12.360014 7.941748 -6.051544
v -12.461542 7.944084 -6.467602
v -8.259733 7.243043 -5.164631
v -8.242592 7.990805 -5.075557
v -8.777935 7.990785 -5.052820
v -8.827147 7.228765 -5.028543
v -7.587150 7.532053 -5.250429
v -7.788782 7.990865 -5.106324
v -7.386892 7.990794 -5.237072
v -7.533669 7.990926 -5.124284
v -7.223701 7.991538 -5.468219
v -7.470239 7.991139 -5.436417
v -7.439601 8.010341 -5.985820
v -7.649008 7.998736 -5.984395
v -9.303240 7.990735 -5.027056
v -9.194491 7.201380 -5.022887
v -9.443959 7.990705 -5.017334
v -9.462169 7.235368 -5.034827
v -9.810256 7.990725 -5.016046
v -9.779893 7.318266 -5.030016
v -10.168280 7.990715 -5.011294
v -10.192059 7.388696 -5.105190
v -10.561715 7.990726 -5.012526
v -10.569503 7.249234 -5.145191
v -10.829273 7.990746 -4.988303
v -10.920622 7.311366 -5.071231
v -11.390346 7.990710 -5.184446
v -11.243355 7.362916 -5.105078
v -11.829321 7.990731 -5.413766
v -11.641039 7.453319 -5.230092
v -12.048502 7.990772 -5.408591
v -12.107033 7.616562 -5.369285
v -12.267085 7.990873 -5.689759
v -12.407537 7.619329 -5.808940
v -8.845572 7.990948 -5.410638
v -9.356758 7.990887 -5.380582
v -8.272968 7.990964 -5.387787
v -7.919707 7.990973 -5.405068
v -7.716779 7.990973 -5.410896
v -7.982570 7.990893 -5.987103
v -8.282161 7.990904 -5.981106
v -8.603597 7.990904 -5.971771
v -9.167967 7.990852 -5.915455
v -9.829082 7.990867 -5.365204
v -10.263063 7.990897 -5.366392
v -10.665277 7.990804 -5.505931
v -10.937038 7.990813 -5.479163
v -11.313538 7.990834 -5.488491
v -11.512756 7.990855 -5.511949
v -11.945482 7.990844 -5.728627
v -12.292416 7.990929 -6.474217
v -11.801663 7.990613 -5.977101
v -11.043520 7.990988 -5.705460
v -11.356428 7.990968 -5.708231
v -10.769751 7.990958 -5.728026
v -10.422920 7.990949 -5.787372
v -9.967158 7.991031 -5.808069
v -9.596368 7.990411 -5.843948
v -8.919978 7.990516 -6.470456
v -9.413287 7.991015 -6.470440
v -9.936742 7.991031 -6.470463
v -10.286360 7.991001 -6.470523
v -10.721177 7.990719 -6.470475
v -11.082780 7.991135 -6.470479
v -11.360283 7.991112 -6.471888
v -11.666326 7.991025 -6.472752
v -11.851673 7.990954 -6.188941
v -8.550934 7.990812 -6.470458
v -8.163195 7.990848 -6.470465
v -7.722566 7.991152 -6.470118
v 1.034210 4.548685 -4.896789
v -0.431481 4.418200 -4.906135
v -2.064920 4.743060 -4.812718
v -3.198173 4.547044 -5.673103
v 0.978414 4.908961 -4.953050
v -0.470492 4.910679 -4.840447
v -2.079412 4.953764 -4.766844
v -0.483535 4.910058 -5.500988
v -1.899114 4.953650 -5.445146
v -3.008858 4.938947 -5.156677
v -2.358334 4.938907 -5.492729
v -3.192594 4.938934 -5.626204
v -2.795953 4.938906 -6.244337
v 0.567622 4.910965 -5.554012
v 1.561562 4.653970 -5.098882
v 1.504593 4.908913 -5.131233
v 1.861839 4.723434 -5.221013
v 1.827884 4.897476 -5.236115
v 1.255227 4.910965 -5.487784
v 1.575850 4.911013 -5.449750
v 1.976567 4.908435 -5.606946
v 1.615805 4.910965 -5.669368
v 2.031578 4.824546 -5.608540
v 0.828919 4.910965 -5.869732
v 0.357678 4.910965 -5.838760
v -0.529864 4.909390 -5.899428
v -1.628938 4.953942 -5.851746
v -2.084857 4.954420 -5.952823
v -0.608234 4.911204 -6.138599
v -1.404488 4.954110 -6.114662
v -0.087647 4.910965 -6.180830
v 0.467597 4.910917 -6.374470
v 1.322752 4.910965 -6.171169
v 1.893755 4.905477 -5.814051
v 2.012172 4.849834 -5.677810
v -0.455021 9.350906 -4.890840
v -1.229699 9.350494 -4.598360
v -2.130736 9.403343 -4.538393
v -2.720931 9.404443 -4.548865
v -2.928501 9.405315 -4.652483
v -3.416795 9.403766 -6.062323
v 0.109823 9.220333 -5.860115
v -0.768277 9.356747 -6.200600
v -1.570847 9.359118 -5.997915
v -2.220578 9.404366 -6.168037
v -2.737191 9.404379 -6.167310
v -3.167006 9.404457 -6.167233
v -0.957209 12.363926 -6.662565
v 0.468144 12.656231 -5.075815
v -0.495146 12.655869 -5.115006
v 0.940964 12.657470 -5.041841
v 1.460433 12.656057 -5.596630
v -0.767012 12.713560 -6.182124
v 0.336495 12.657436 -6.022690
v -0.077992 12.657475 -6.306280
v 0.752290 12.656260 -6.112684
v 1.262793 12.656240 -6.095228
v -1.212449 12.684456 -6.639829
v 3.751074 4.038164 -5.506155
v 3.580199 3.878209 -6.305845
v 3.919468 3.981182 -5.315568
v 5.586809 3.721095 -6.123637
v 5.829098 3.852297 -6.307895
v 5.885535 4.355750 -6.284373
v 5.588216 4.355521 -5.593218
v 5.606502 3.877082 -6.051284
v 5.362112 3.864835 -5.911452
v 5.122905 3.831812 -5.805072
v 4.741609 3.901581 -5.608912
v 4.235874 3.961052 -5.430641
v 5.286157 4.355631 -5.260427
v 5.044171 4.356074 -5.214669
v 4.445131 4.354524 -5.036535
v 4.217957 4.354413 -5.131886
v 3.979080 4.354398 -5.110131
v 3.700799 4.354405 -5.370384
v 3.411465 4.354405 -5.785974
v 5.700181 4.355528 -6.200958
v 5.470572 4.355536 -5.718544
v 5.261131 4.355528 -5.515879
v 5.049755 4.355565 -5.415438
v 4.531763 4.354310 -5.241483
v 4.341427 4.354391 -5.235794
v 4.143433 4.354391 -5.234144
v 3.902538 4.354391 -5.450251
v 3.447283 4.354413 -6.178177
v 5.522275 4.355536 -6.207319
v 5.355918 4.355536 -6.058723
v 5.183335 4.355536 -5.921561
v 5.055472 4.355528 -5.829108
v 4.661208 4.355536 -5.631146
v 4.531875 4.354686 -5.643115
v 4.795891 4.355536 -6.158152
v 4.629531 4.355247 -6.097233
v 5.107692 4.355528 -6.174184
v 5.239788 4.355602 -6.301680
v 5.332046 4.317582 -6.332053
v 5.297810 4.318477 -6.423092
v 5.219451 4.355609 -6.384901
v 5.127055 4.355521 -6.338285
v 4.847844 4.355137 -6.314192
v 4.693777 4.354878 -6.313323
v 4.459202 4.354753 -6.312294
v 4.334412 4.354575 -5.905952
v 4.207068 4.354391 -5.557549
v 3.865657 4.354214 -5.981115
v 4.161678 4.354258 -6.063874
v 4.243042 4.354944 -6.311780
v 3.587237 4.354413 -6.304248
v 3.830603 4.354405 -6.311541
v 8.743713 7.769516 -4.775462
v 7.854779 7.819404 -4.996848
v 7.014939 7.851954 -4.938645
v 6.258232 7.828859 -4.903353
v 5.786270 7.780234 -5.245574
v 5.571888 7.815672 -5.351013
v 5.535954 7.903998 -6.087067
v 5.521378 8.130299 -5.398339
v 5.545327 8.130260 -6.087065
v 5.697872 8.130299 -5.053512
v 6.090318 8.141037 -4.920616
v 7.092307 8.141155 -4.879648
v 7.934961 8.141176 -4.844945
v 8.850354 8.130474 -4.828156
v 10.378572 8.130529 -5.308379
v 9.923171 8.130531 -5.032257
v 9.857660 7.768243 -4.971354
v 10.628753 7.770420 -6.221426
v 10.562465 8.122761 -6.221712
v 10.270449 8.122655 -5.633757
v 10.153583 8.130478 -5.313473
v 10.073734 8.122612 -5.684486
v 9.797317 8.130389 -5.434503
v 9.469964 8.130434 -5.298930
v 8.841735 8.130342 -5.056161
v 8.091104 8.130289 -5.030542
v 7.104147 8.130162 -4.984526
v 6.266002 8.130124 -5.054247
v 5.881076 8.130172 -5.143935
v 5.892912 8.130264 -5.500018
v 6.322940 8.130224 -5.504332
v 5.982307 8.130203 -5.889091
v 5.751507 8.130230 -6.179848
v 6.290138 8.130188 -5.805050
v 6.058550 8.130098 -6.178820
v 7.029538 8.130100 -5.423935
v 7.900510 8.130132 -5.440361
v 8.631973 8.130196 -5.436954
v 9.018275 8.130274 -5.488830
v 9.530890 8.130241 -5.735677
v 9.950493 8.123587 -6.216270
v 10.485536 8.122664 -6.220482
v 10.343389 8.130440 -6.218413
v 9.442205 8.129747 -6.201977
v 8.944548 8.130176 -6.017430
v 8.522884 8.130603 -5.961679
v 8.024578 8.130077 -5.854628
v 7.150455 8.130037 -5.829281
v 7.103661 8.130203 -6.189427
v 6.482111 8.130066 -6.191086
v 7.982824 8.129987 -6.189131
v 8.518694 8.130033 -6.189250
v 8.981842 8.130024 -6.189398
v -12.063277 7.990910 -6.474168
v -7.219893 7.557468 -5.545112
v -7.418719 7.982589 -6.359139
v 10.365328 7.870656 -5.183898
v 0.402699 12.656889 -5.579649
v 0.894690 12.656866 -5.495805
v -2.840595 4.589385 -6.177011
v -1.733091 9.363129 -6.275913
v -1.489493 9.477109 -6.283700
v -1.573293 9.478428 -6.381497
v -0.820222 13.024015 -6.320047
v -0.203144 13.049614 -6.297129
v -1.489040 9.377091 -5.195536
v -2.154296 9.403851 -5.176178
v -2.672468 9.404351 -5.285037
v -3.064924 9.404831 -5.226812
v -3.420519 9.403477 -5.151725
v -3.441357 9.077495 -6.167305
v -3.417087 9.077410 -5.358636
v -3.088857 9.074763 -4.807309
v -2.683582 9.052177 -4.833146
v -2.261216 9.041939 -4.742563
v -1.329906 9.065257 -4.740221
v -0.453295 9.004477 -5.026617
v 1.466744 12.285108 -6.105967
v 0.728820 12.656996 -5.097058
v 0.619705 12.656879 -5.559006
v 0.511824 12.656199 -6.083941
v 0.139763 12.898970 -6.687167
v 1.034366 12.656603 -6.093491
v 1.374840 12.656493 -6.101500
v -3.026346 4.938907 -6.019309
v 1.063216 4.910965 -6.248787
v 1.627931 4.910965 -6.022293
v -2.714971 4.946251 -4.876332
v -2.686704 4.639974 -4.843151
v -3.538215 9.403139 -5.719155
v -7.139995 7.701877 -6.031692
v 8.228916 10.686146 -5.128204
v 8.010575 10.834449 -5.868751
v 8.593132 10.737389 -5.109477
v 11.052816 10.815027 -5.719133
v 11.260028 11.220696 -6.207662
v 10.920326 11.257540 -5.036835
v 10.807985 10.837214 -5.269331
v 10.450351 10.826251 -5.234745
v 10.149217 10.796692 -5.211972
v 9.702291 10.859143 -5.176696
v 8.977322 10.837958 -5.161348
v 10.486092 11.257407 -4.983376
v 10.138219 11.256884 -4.969512
v 9.251237 11.258117 -4.963531
v 8.950466 11.258492 -4.978637
v 8.607062 11.258861 -5.034246
v 8.207012 11.258129 -5.212107
v 7.970254 11.258130 -5.427821
v 11.081285 11.257997 -6.207437
v 10.751204 11.258026 -5.238612
v 10.450114 11.258040 -5.201234
v 10.146244 11.258235 -5.180763
v 9.401588 11.258979 -5.181128
v 9.127965 11.259563 -5.182672
v 8.843332 11.259895 -5.240275
v 8.497027 11.259511 -5.580407
v 7.991309 10.862767 -6.194300
v 7.974838 11.241719 -6.206728
v 10.825531 11.257998 -6.206860
v 10.639769 11.258026 -5.805466
v 10.391667 11.258030 -5.677093
v 10.154465 11.258040 -5.672565
v 9.654663 11.258661 -5.682028
v 9.288196 11.258534 -5.703993
v 9.810145 11.235736 -6.201121
v 9.570990 11.235959 -6.201266
v 10.229534 11.258055 -6.202206
v 10.419432 11.258059 -6.202285
v 10.552061 11.257998 -6.204245
v 9.117880 11.258658 -6.201534
v 8.934814 11.259471 -5.738090
v 8.361286 11.258715 -6.204722
v -12.808958 10.550745 -5.234194
v -13.060179 10.533269 -6.113103
v -12.338717 10.571103 -5.244691
v -10.361827 10.423573 -5.986670
v -10.744253 10.402324 -6.029591
v -11.538314 10.501312 -6.050389
v -11.798460 10.501002 -5.968010
v -9.998234 10.537237 -5.921023
v -9.965421 10.901887 -5.892888
v -10.129740 10.938730 -5.047478
v -10.154394 10.559206 -5.126713
v -10.648536 10.558663 -5.211524
v -11.094116 10.570560 -5.255517
v -11.799183 10.579709 -5.262749
v -12.080277 10.595231 -5.226482
v -10.563974 10.938598 -5.018043
v -10.911847 10.938074 -5.031658
v -11.798829 10.939307 -5.048104
v -12.099600 10.939682 -5.070599
v -12.443004 10.940051 -5.090501
v -12.843054 10.939320 -5.167188
v -13.159270 10.933033 -5.519607
v -10.144163 10.939187 -5.901428
v -10.298862 10.939217 -5.174383
v -10.599952 10.939231 -5.150874
v -10.903822 10.939425 -5.143475
v -11.648478 10.940169 -5.155124
v -11.922101 10.940754 -5.174357
v -12.206734 10.941086 -5.186477
v -12.553039 10.940701 -5.389350
v -13.159022 10.807188 -6.113103
v -13.075228 10.922910 -6.113108
v -10.299786 10.939188 -5.923235
v -10.463687 10.939217 -5.645783
v -10.711788 10.939220 -5.632091
v -10.895601 10.939231 -5.627563
v -11.462388 10.939852 -5.637027
v -11.648315 10.939725 -5.715081
v -11.239921 10.916926 -6.139843
v -11.479076 10.917150 -6.134329
v -10.820532 10.939245 -6.098767
v -10.630634 10.939249 -6.095851
v -10.498005 10.939188 -6.021857
v -11.932186 10.939849 -6.124194
v -12.115252 10.940661 -5.693089
v -12.688780 10.939905 -6.006517
v -12.126309 10.939962 -6.131701
v -12.678267 10.918663 -6.114381
v 0.472495 12.320609 -5.068633
v 0.717155 12.319846 -5.156954
v 1.339854 12.366675 -5.036522
v 1.470863 12.447598 -5.587770
v 0.934828 12.320120 -5.108108
v -0.433073 12.320835 -5.135313
v 1.458477 12.451031 -6.102775
v 2.031119 4.723330 -5.655031
v 1.928510 4.721116 -5.779863
v -13.102079 10.528635 -5.609583
v -12.846860 10.819398 -5.175373
v -13.169699 10.796528 -5.561528
v -7.140050 7.990492 -6.017798
v -2.922927 4.564275 -5.206573
v 0.115616 8.902366 -5.869804
v 3.654742 4.354405 -5.922976
v -0.692411 12.682095 -5.456848
v -0.633960 12.336707 -5.548896
v 1.367049 12.651055 -5.085761
vt 0.149290 0.713277
vt 0.138852 0.696567
vt 0.229392 0.659540
vt 0.225237 0.680499
vt 0.219786 0.676336
vt 0.221425 0.647529
vt 0.236908 0.670473
vt 0.229310 0.683788
vt 0.237939 0.685462
vt 0.234361 0.684408
vt 0.241925 0.687556
vt 0.238758 0.699374
vt 0.243328 0.700154
vt 0.242485 0.707056
vt 0.212584 0.671442
vt 0.213779 0.640808
vt 0.209454 0.667288
vt 0.208384 0.641236
vt 0.201108 0.670057
vt 0.201674 0.635502
vt 0.192762 0.668673
vt 0.193613 0.635608
vt 0.183372 0.670057
vt 0.182233 0.626478
vt 0.176591 0.671442
vt 0.179392 0.631581
vt 0.165115 0.672827
vt 0.169498 0.635314
vt 0.154682 0.675597
vt 0.159109 0.644812
vt 0.149466 0.681136
vt 0.154252 0.650388
vt 0.142444 0.692189
vt 0.145485 0.661941
vt 0.218361 0.702830
vt 0.213105 0.700525
vt 0.225029 0.704861
vt 0.231352 0.701037
vt 0.236451 0.703846
vt 0.243069 0.717126
vt 0.238056 0.721247
vt 0.235014 0.728222
vt 0.223016 0.726837
vt 0.202673 0.697755
vt 0.192762 0.701909
vt 0.185459 0.696370
vt 0.178677 0.696370
vt 0.169809 0.699140
vt 0.165115 0.701909
vt 0.156474 0.706275
vt 0.156866 0.728224
vt 0.164071 0.729607
vt 0.178677 0.728222
vt 0.171374 0.725452
vt 0.185459 0.725452
vt 0.194326 0.726837
vt 0.204759 0.737916
vt 0.212584 0.735146
vt 0.238641 0.743465
vt 0.224834 0.758772
vt 0.212837 0.761542
vt 0.204490 0.760157
vt 0.192762 0.761458
vt 0.186749 0.756832
vt 0.178677 0.751764
vt 0.171896 0.746225
vt 0.165115 0.740685
vt 0.241529 0.733776
vt 0.244596 0.721969
vt 0.247597 0.707119
vt 0.436213 0.456981
vt 0.412892 0.440170
vt 0.384412 0.459750
vt 0.438974 0.474792
vt 0.410284 0.458174
vt 0.384074 0.468025
vt 0.410284 0.488641
vt 0.383159 0.490025
vt 0.363108 0.476480
vt 0.374813 0.496950
vt 0.357599 0.483101
vt 0.363716 0.496371
vt 0.431150 0.498334
vt 0.446436 0.467192
vt 0.449407 0.483101
vt 0.452269 0.481451
vt 0.452265 0.488830
vt 0.444712 0.501104
vt 0.450972 0.505259
vt 0.455912 0.506452
vt 0.452015 0.514953
vt 0.456643 0.484419
vt 0.436888 0.519107
vt 0.427498 0.517723
vt 0.410284 0.510798
vt 0.389419 0.513568
vt 0.380551 0.517723
vt 0.409762 0.531571
vt 0.394635 0.531571
vt 0.419673 0.537111
vt 0.431150 0.532956
vt 0.447526 0.528462
vt 0.454952 0.517441
vt 0.458842 0.504855
vt 0.401416 0.646515
vt 0.382116 0.640975
vt 0.369075 0.650669
vt 0.359685 0.653439
vt 0.354713 0.656688
vt 0.350263 0.666593
vt 0.416022 0.652054
vt 0.399330 0.675597
vt 0.383159 0.670057
vt 0.369556 0.677952
vt 0.361042 0.675348
vt 0.353947 0.675597
vt 0.400373 0.769767
vt 0.426976 0.766998
vt 0.413414 0.762843
vt 0.438452 0.772877
vt 0.446090 0.773025
vt 0.402957 0.781993
vt 0.425092 0.786777
vt 0.418109 0.787771
vt 0.434268 0.786377
vt 0.444004 0.783939
vt 0.396721 0.780847
vt 0.723121 0.490036
vt 0.719127 0.495514
vt 0.727203 0.483599
vt 0.766387 0.462104
vt 0.769506 0.473262
vt 0.771374 0.502350
vt 0.767738 0.495174
vt 0.767041 0.472223
vt 0.758952 0.471225
vt 0.751001 0.469038
vt 0.738325 0.473491
vt 0.731745 0.477312
vt 0.758516 0.490432
vt 0.750408 0.487861
vt 0.738363 0.493737
vt 0.732290 0.500181
vt 0.726411 0.501919
vt 0.721230 0.501599
vt 0.717958 0.506794
vt 0.769442 0.520679
vt 0.762520 0.508137
vt 0.755592 0.505353
vt 0.748565 0.504153
vt 0.738991 0.507655
vt 0.734181 0.511160
vt 0.729331 0.512723
vt 0.724938 0.514600
vt 0.716656 0.515065
vt 0.761293 0.525521
vt 0.755824 0.521318
vt 0.750149 0.520667
vt 0.745945 0.519001
vt 0.739426 0.519659
vt 0.735898 0.521004
vt 0.733343 0.521711
vt 0.730423 0.518932
vt 0.744103 0.524589
vt 0.749224 0.525668
vt 0.754219 0.528990
vt 0.750483 0.534654
vt 0.748864 0.531756
vt 0.744965 0.528065
vt 0.734070 0.525229
vt 0.730883 0.525765
vt 0.726141 0.526168
vt 0.724842 0.519420
vt 0.728272 0.524173
vt 0.723916 0.523702
vt 0.720866 0.519450
vt 0.723155 0.525085
vt 0.719959 0.524077
vt 0.717355 0.519107
vt 0.854530 0.702902
vt 0.841624 0.709555
vt 0.825057 0.716439
vt 0.804154 0.722286
vt 0.783722 0.730805
vt 0.773534 0.731324
vt 0.768497 0.740198
vt 0.766017 0.749524
vt 0.769575 0.761229
vt 0.764217 0.768948
vt 0.774271 0.750447
vt 0.784216 0.752339
vt 0.806132 0.742506
vt 0.825989 0.736843
vt 0.843148 0.735463
vt 0.866954 0.744990
vt 0.858592 0.741256
vt 0.865959 0.698269
vt 0.871019 0.750217
vt 0.866449 0.756864
vt 0.864965 0.752939
vt 0.859578 0.761513
vt 0.856878 0.757070
vt 0.852795 0.749693
vt 0.842961 0.746960
vt 0.827058 0.750132
vt 0.807619 0.754529
vt 0.787615 0.762915
vt 0.778277 0.761717
vt 0.773260 0.771754
vt 0.782491 0.775332
vt 0.775715 0.779921
vt 0.771612 0.780861
vt 0.780416 0.783047
vt 0.773782 0.792572
vt 0.800026 0.778697
vt 0.818863 0.776011
vt 0.834680 0.770527
vt 0.840861 0.764614
vt 0.846352 0.771069
vt 0.849317 0.776616
vt 0.868676 0.760835
vt 0.861524 0.766037
vt 0.839913 0.788150
vt 0.835275 0.789435
vt 0.831340 0.790302
vt 0.817150 0.793579
vt 0.798912 0.795760
vt 0.797839 0.808091
vt 0.782388 0.797813
vt 0.813187 0.805428
vt 0.826025 0.803126
vt 0.830775 0.798217
vt 0.165145 0.739662
vt 0.150858 0.721300
vt 0.238786 0.668550
vt 0.242720 0.700625
vt 0.379974 0.683907
vt 0.276629 0.179171
vt 0.350840 0.664491
vt 0.253989 0.186239
vt 0.253533 0.186509
vt 0.253583 0.186389
vt 0.271304 0.179114
vt 0.241758 0.207913
vt 0.251495 0.183196
vt 0.413840 0.805559
vt 0.436888 0.780846
vt 0.425368 0.779444
vt 0.862737 0.709040
vt 0.388763 0.680457
vt 0.387015 0.686656
vt 0.403650 0.798870
vt 0.382841 0.661209
vt 0.369315 0.664311
vt 0.360443 0.665671
vt 0.353707 0.666652
vt 0.351548 0.661909
vt 0.349509 0.660076
vt 0.351680 0.656089
vt 0.354427 0.651766
vt 0.360044 0.647091
vt 0.369507 0.642930
vt 0.382559 0.635979
vt 0.401254 0.638316
vt 0.443759 0.766923
vt 0.242558 0.172430
vt 0.434061 0.770627
vt 0.430447 0.780062
vt 0.429680 0.786577
vt 0.418790 0.807233
vt 0.440153 0.784903
vt 0.444550 0.781083
vt 0.271821 0.172450
vt 0.362400 0.493516
vt 0.240673 0.203354
vt 0.442064 0.529961
vt 0.451657 0.522331
vt 0.253728 0.186706
vt 0.376314 0.470536
vt 0.375601 0.464186
vt 0.242167 0.674862
vt 0.723121 0.490036
vt 0.719127 0.495514
vt 0.727203 0.483599
vt 0.769506 0.473262
vt 0.771374 0.502350
vt 0.767738 0.495174
vt 0.767041 0.472223
vt 0.758952 0.471225
vt 0.751001 0.469038
vt 0.738325 0.473491
vt 0.731745 0.477312
vt 0.758516 0.490432
vt 0.750408 0.487861
vt 0.738363 0.493737
vt 0.732290 0.500181
vt 0.726411 0.501919
vt 0.721230 0.501599
vt 0.717958 0.506794
vt 0.769283 0.516036
vt 0.762520 0.508137
vt 0.755592 0.505353
vt 0.748565 0.504153
vt 0.738991 0.507655
vt 0.734181 0.511160
vt 0.729331 0.512723
vt 0.724938 0.514600
vt 0.716663 0.502724
vt 0.716656 0.515065
vt 0.760703 0.521519
vt 0.755824 0.521318
vt 0.750149 0.520667
vt 0.745945 0.519001
vt 0.739426 0.519659
vt 0.735898 0.521004
vt 0.739557 0.524659
vt 0.735531 0.522166
vt 0.744103 0.524589
vt 0.749224 0.525668
vt 0.753629 0.524988
vt 0.729950 0.522653
vt 0.728272 0.524173
vt 0.723916 0.523702
vt 0.723121 0.490036
vt 0.720984 0.501540
vt 0.727203 0.483599
vt 0.763179 0.464783
vt 0.756544 0.461957
vt 0.752592 0.452647
vt 0.738357 0.460421
vt 0.770349 0.477294
vt 0.772217 0.506381
vt 0.764699 0.491491
vt 0.763833 0.474902
vt 0.755744 0.473903
vt 0.747793 0.471716
vt 0.738325 0.473491
vt 0.731745 0.477312
vt 0.755477 0.486749
vt 0.747200 0.490539
vt 0.738363 0.493737
vt 0.732290 0.500181
vt 0.726411 0.501919
vt 0.721230 0.501599
vt 0.717958 0.506794
vt 0.766075 0.518715
vt 0.759312 0.510815
vt 0.752384 0.508032
vt 0.745357 0.506831
vt 0.738991 0.507655
vt 0.734181 0.511160
vt 0.729331 0.512723
vt 0.724938 0.514600
vt 0.716663 0.502724
vt 0.716656 0.515065
vt 0.757360 0.520883
vt 0.752616 0.523997
vt 0.746941 0.523345
vt 0.742737 0.521680
vt 0.739426 0.519659
vt 0.735898 0.521004
vt 0.736914 0.521671
vt 0.735826 0.520271
vt 0.741793 0.522513
vt 0.745172 0.524161
vt 0.750286 0.524352
vt 0.729826 0.524696
vt 0.728272 0.524173
vt 0.723916 0.523702
vt 0.725251 0.523336
vt 0.719959 0.524077
vt 0.427067 0.760537
vt 0.433628 0.765803
vt 0.440567 0.770504
vt 0.445039 0.770274
vt 0.437859 0.768792
vt 0.247465 0.178342
vt 0.413414 0.757627
vt 0.261241 0.172443
vt 0.454624 0.479461
vt 0.254364 0.186239
vt 0.253913 0.186440
vt 0.722054 0.495777
vt 0.722056 0.496548
vt 0.719997 0.501311
vt 0.241420 0.690970
vt 0.368696 0.466922
vt 0.416442 0.642392
vt 0.720371 0.514856
vt 0.408610 0.762099
vt 0.408587 0.769277
vt 0.441565 0.772937
vn 0.073554 0.645432 0.760268
vn 0.068103 0.594309 0.801348
vn 0.151239 -0.074931 0.985653
vn 0.123710 0.023616 0.992037
vn 0.313241 -0.256109 0.914488
vn 0.042447 0.786903 0.615615
vn 0.213170 0.799121 0.562107
vn 0.631120 0.420528 0.651800
vn 0.005802 0.014059 0.999884
vn 0.017222 0.705816 0.708186
vn 0.011104 -0.016354 0.999805
vn 0.019387 0.698955 0.714903
vn -0.057417 -0.024334 0.998054
vn -0.048174 0.516748 0.854781
vn -0.053618 -0.128832 0.990216
vn 0.003021 0.805878 0.592074
vn 0.047895 0.514759 0.855996
vn 0.067269 -0.176406 0.982016
vn 0.047819 -0.138481 0.989210
vn -0.088725 0.690303 0.718059
vn -0.247813 -0.003011 0.968803
vn -0.207968 0.817823 0.536576
vn -0.316588 0.151096 0.936452
vn -0.138565 0.770766 0.621867
vn -0.485419 0.184715 0.854546
vn -0.260351 0.791215 0.553350
vn -0.537324 0.769661 0.344826
vn -0.818233 0.129649 0.560077
vn -0.000078 1.000000 0.000176
vn -0.000269 1.000000 -0.000026
vn -0.000021 1.000000 0.000199
vn -0.000016 1.000000 0.000149
vn -0.003947 0.999983 0.004242
vn -0.008618 0.999864 0.014070
vn -0.020223 0.999755 -0.009017
vn -0.007938 0.999968 -0.000257
vn -0.000011 1.000000 -0.000129
vn -0.000183 1.000000 -0.000241
vn -0.000233 1.000000 -0.000137
vn 0.000247 1.000000 0.000144
vn -0.000106 1.000000 0.000334
vn -0.000043 1.000000 0.000336
vn 0.000046 1.000000 0.000467
vn 0.000021 1.000000 0.000564
vn -0.000137 1.000000 0.000204
vn -0.029111 0.999576 0.000220
vn -0.000053 1.000000 0.000428
vn -0.053658 0.996407 -0.065530
vn 0.000018 1.000000 0.000440
vn -0.000379 1.000000 0.000348
vn 0.000274 1.000000 0.000264
vn -0.000202 1.000000 0.000121
vn 0.000495 1.000000 0.000084
vn 0.000212 1.000000 0.000026
vn 0.000017 1.000000 -0.000368
vn 0.000043 1.000000 0.000506
vn 0.000541 1.000000 0.000349
vn -0.000304 1.000000 -0.000006
vn 0.000158 1.000000 -0.000208
vn 0.000397 1.000000 0.000045
vn -0.000145 1.000000 0.000192
vn -0.000039 1.000000 0.000506
vn 0.000006 1.000000 0.000752
vn -0.000300 1.000000 -0.000198
vn -0.000249 1.000000 -0.000026
vn -0.000104 1.000000 -0.000079
vn 0.207131 0.180423 0.961532
vn 0.085841 0.738286 0.669003
vn 0.029555 -0.035106 0.998947
vn 0.044390 0.765391 0.642033
vn -0.040111 -0.116093 0.992428
vn -0.043283 0.627764 0.777200
vn 0.003164 0.999987 -0.003995
vn 0.016530 0.999861 0.002008
vn -0.000119 1.000000 0.000944
vn 0.211344 0.767223 0.605559
vn 0.000046 0.999996 0.002952
vn 0.011267 0.999885 0.010189
vn -0.000024 1.000000 -0.000018
vn 0.006196 0.999977 -0.002809
vn -0.000733 1.000000 0.000250
vn 0.022211 0.999742 0.004756
vn 0.013160 0.999856 0.010716
vn -0.012767 0.999916 -0.002256
vn 0.032123 0.999441 0.009294
vn 0.027286 0.999627 -0.001359
vn -0.011186 0.999808 0.016098
vn -0.000281 0.999995 0.003234
vn -0.000006 1.000000 -0.000070
vn -0.000035 1.000000 -0.000020
vn 0.041636 0.506985 0.860949
vn -0.199820 0.468680 0.860471
vn -0.061673 -0.540922 0.838808
vn -0.170290 -0.569901 0.803874
vn -0.560169 -0.275784 0.781124
vn -0.322513 0.614567 0.719926
vn -0.767899 0.479041 0.425267
vn -0.933082 -0.264452 0.243767
vn 0.197831 0.498419 0.844062
vn 0.029433 0.999566 0.001000
vn 0.025651 0.999658 -0.005027
vn 0.001380 0.999999 -0.000095
vn -0.001445 0.999999 -0.000222
vn 0.075256 0.993260 0.088159
vn -0.236546 0.908980 0.343223
vn -0.019660 0.994986 0.098066
vn -0.248462 0.948745 0.195318
vn 0.037262 0.999268 -0.008642
vn -0.000467 1.000000 -0.000355
vn 0.002297 0.999997 -0.000791
vn 0.000900 0.999999 0.000674
vn -0.005493 0.940109 0.340831
vn 0.719832 -0.247931 0.648362
vn 0.808545 0.281394 0.516790
vn 0.703776 -0.373706 0.604188
vn 0.540603 0.707492 0.455196
vn 0.681314 -0.377035 0.627420
vn 0.456064 -0.657936 0.599272
vn 0.470493 0.407677 0.782583
vn 0.233644 -0.728736 0.643704
vn 0.238676 0.374865 0.895829
vn 0.185889 -0.723467 0.664861
vn 0.012822 0.421494 0.906741
vn 0.026692 -0.655864 0.754407
vn 0.003802 0.490525 0.871419
vn -0.305602 -0.483080 0.820513
vn -0.206939 0.800037 0.563131
vn -0.628266 0.580672 0.517785
vn -0.772430 -0.434758 0.462965
vn -0.000286 1.000000 -0.000040
vn 0.000028 1.000000 0.000025
vn 0.000005 1.000000 -0.000128
vn -0.000566 1.000000 -0.000513
vn -0.002327 0.999997 -0.000240
vn -0.000039 1.000000 -0.000057
vn -0.000011 1.000000 -0.000081
vn 0.036807 0.998166 -0.048054
vn -0.056876 0.996349 -0.063675
vn -0.000071 1.000000 0.000057
vn 0.000008 1.000000 -0.000025
vn -0.002776 0.999996 0.000471
vn -0.002690 0.999996 0.000521
vn -0.002643 0.999996 -0.000748
vn -0.001053 0.999998 -0.001448
vn -0.000448 1.000000 -0.000471
vn 0.115909 0.992398 -0.041369
vn 0.241343 0.961913 -0.128366
vn 0.371781 0.919063 -0.130777
vn 0.246201 0.966417 -0.073648
vn -0.000964 1.000000 -0.000013
vn -0.001067 0.999998 -0.001974
vn -0.001629 0.999996 -0.002496
vn -0.000972 1.000000 0.000191
vn -0.001360 0.999999 -0.000089
vn -0.000538 0.999999 0.000893
vn -0.000206 0.999996 0.002702
vn -0.000414 0.999999 0.001164
vn -0.189046 -0.151323 0.970239
vn -0.248359 0.658779 0.710161
vn -0.426170 -0.433728 0.793889
vn -0.597134 0.332270 0.730087
vn 0.055622 -0.213838 0.975284
vn 0.011695 0.519665 0.854290
vn -0.075065 -0.336577 0.938659
vn -0.081006 0.672153 0.735967
vn -0.030678 -0.042531 0.998624
vn 0.067284 0.831880 0.550861
vn 0.243520 0.104181 0.964285
vn 0.191846 0.845594 0.498163
vn 0.002603 0.999898 -0.014038
vn 0.004536 0.999961 -0.007603
vn -0.000153 1.000000 -0.000382
vn -0.000204 1.000000 -0.000398
vn 0.001531 0.999829 -0.018448
vn 0.001603 0.998993 -0.044832
vn 0.004405 0.999171 -0.040475
vn 0.000067 1.000000 -0.000073
vn 0.000119 1.000000 0.000094
vn -0.000074 1.000000 -0.000211
vn -0.000068 1.000000 0.000036
vn -0.000178 1.000000 -0.000262
vn 0.005972 0.999978 -0.003020
vn 0.002936 0.999996 0.000355
vn 0.004348 0.999989 -0.001748
vn 0.000365 1.000000 -0.000725
vn -0.000051 1.000000 -0.000730
vn -0.000425 1.000000 0.000050
vn 0.000032 1.000000 -0.000000
vn 0.000131 1.000000 -0.000193
vn 0.000005 1.000000 -0.000009
vn 0.000012 1.000000 0.000455
vn -0.000245 1.000000 -0.000618
vn 0.000204 0.999998 -0.001961
vn 0.000300 1.000000 -0.000813
vn -0.164887 0.984126 -0.065638
vn -0.118317 0.992976 0.000912
vn -0.264265 0.908330 -0.324191
vn -0.388779 0.854436 0.344659
vn 0.000474 1.000000 -0.000148
vn -0.001911 0.999998 0.000190
vn -0.724127 0.689225 -0.024685
vn -0.984588 -0.076255 -0.157389
vn 0.035315 0.351172 0.935645
vn 0.532084 0.834071 0.145646
vn -0.606435 0.766026 -0.213168
vn 0.537078 0.830390 0.148321
vn 0.718225 0.346625 0.603328
vn 0.877877 -0.305623 0.368682
vn 0.351304 -0.525267 0.775035
vn 0.079681 0.496445 0.864404
vn 0.081834 -0.491725 0.866897
vn 0.038680 0.510741 0.858864
vn 0.058357 -0.464243 0.883784
vn 0.013982 -0.458502 0.888583
vn -0.001491 0.528889 0.848690
vn 0.002097 -0.352634 0.935759
vn -0.066908 0.765742 0.639658
vn -0.105320 0.637254 0.763423
vn -0.105361 -0.042642 0.993519
vn 0.033579 0.999408 0.007437
vn 0.068334 0.997392 0.023241
vn 0.000154 0.999997 0.002460
vn 0.000831 0.999998 0.001982
vn 0.001228 0.999996 0.002429
vn 0.001555 0.999996 0.002294
vn -0.000295 0.999998 0.002171
vn 0.000096 1.000000 -0.000044
vn 0.000001 1.000000 -0.000066
vn 0.000114 1.000000 -0.000056
vn -0.009957 0.999897 -0.010354
vn 0.001211 0.999755 -0.022118
vn 0.009945 0.999892 -0.010810
vn 0.017769 0.999232 -0.034933
vn -0.016720 0.999360 -0.031631
vn -0.017718 0.999840 -0.002477
vn 0.000161 1.000000 -0.000021
vn 0.000228 1.000000 -0.000121
vn 0.017617 0.999824 -0.006428
vn 0.001046 0.999999 -0.001039
vn -0.008674 0.999962 -0.001325
vn -0.014749 0.999890 0.001790
vn -0.738725 0.673863 0.013953
vn 0.975477 -0.102795 0.194620
vn 0.769289 0.623631 0.138851
vn 0.518536 -0.514279 0.683109
vn 0.466478 0.733598 0.494199
vn -0.060378 -0.800989 0.595626
vn 0.003620 -0.984917 0.172989
vn -0.045917 -0.982991 0.177824
vn -0.058512 -0.825949 0.560700
vn -0.034693 -0.992079 0.120733
vn 0.024952 -0.843023 0.537298
vn 0.036294 -0.993171 0.110875
vn -0.036209 0.568943 0.821580
vn -0.040208 0.692230 0.720556
vn -0.004150 0.286050 0.958206
vn -0.003925 -0.447754 0.894148
vn -0.044349 0.539093 0.841078
vn 0.039056 0.999234 0.002335
vn 0.067731 0.997600 0.014356
vn 0.000056 0.999993 0.003638
vn 0.000756 0.999992 0.003847
vn 0.001049 0.999987 0.005020
vn 0.001312 0.999986 0.005043
vn 0.000034 1.000000 -0.000051
vn 0.000029 1.000000 -0.000082
vn 0.000162 1.000000 -0.000064
vn -0.009860 0.999893 -0.010761
vn 0.003701 0.999729 -0.023007
vn 0.012293 0.999827 -0.013946
vn 0.022623 0.998865 -0.041907
vn -0.016877 0.999316 -0.032895
vn -0.017436 0.999844 -0.002738
vn 0.000183 1.000000 0.000095
vn 0.000146 1.000000 -0.000009
vn 0.017291 0.999776 -0.012184
vn 0.000578 0.999999 -0.001122
vn -0.000267 0.999988 0.004993
vn -0.010393 0.999944 -0.001877
vn -0.014662 0.997639 -0.067089
vn -0.016410 0.996893 -0.077039
vn -0.017056 0.980694 -0.194805
vn 0.061347 -0.176643 0.982361
vn -0.011558 0.546033 0.837684
vn 0.116052 -0.045305 0.992209
vn -0.008582 0.704862 0.709292
vn 0.505219 0.648279 0.569639
vn 0.435422 0.900174 0.009698
vn 0.287258 0.889580 -0.355148
vn 0.000000 1.000000 0.000001
vn 0.866575 0.302957 -0.396567
vn 0.538264 0.711000 -0.452495
vn 0.719533 -0.002019 -0.694455
vn 0.323613 0.174663 0.929929
vn 0.776485 0.068108 0.626444
vn 0.947516 0.260041 0.185989
vn 0.981792 -0.023835 -0.188456
vn -0.401660 0.899886 -0.169924
vn -0.627663 0.693296 -0.354091
vn -0.014321 0.999863 0.008338
vn -0.444778 0.891691 -0.084022
vn -0.014041 -0.396225 0.918046
vn -0.080183 0.451881 0.888467
vn -0.429198 -0.310966 0.847991
vn -0.544201 -0.147562 0.825876
vn -0.350549 0.711061 0.609515
vn -0.741311 0.579917 0.337867
vn -0.999194 0.002744 -0.040039
vn -0.945993 -0.040111 0.321695
vn -0.935199 -0.308289 0.174243
vn -0.937532 -0.338306 -0.081131
vn 0.687125 0.691543 0.222774
vn 0.003520 0.999888 -0.014574
vn 0.003915 0.999932 -0.010980
vn 0.012878 0.998326 -0.056388
vn 0.845805 -0.140927 0.514542
vn 0.488772 0.871556 0.038623
vn 0.988064 -0.013057 0.153493
vn -0.240286 0.718577 0.652618
vn -0.559372 -0.050475 0.827378
vn -0.564665 0.669155 0.483100
vn -0.798202 -0.162478 -0.580064
vn -0.869798 -0.052089 -0.490650
vn -0.785521 -0.255236 0.563748
vn -0.322683 0.590638 0.739610
vn -0.804911 0.519963 0.285931
vn -0.997598 -0.041545 0.055424
vn -0.984908 -0.148612 0.088722
vn -0.652740 -0.032859 0.756869
vn 0.686896 -0.195191 0.700053
vn 0.481627 0.575181 0.661212
vn 0.155841 -0.457011 0.875703
vn 0.815034 0.350044 0.461724
vn 0.828847 -0.001949 0.559472
vn 0.668211 0.187730 0.719897
vn 0.968399 0.123740 0.216543
vn 0.532470 0.803659 0.265722
vn 0.392442 0.916737 0.074714
vn 0.026832 0.999591 0.009858
vn 0.004433 0.999979 -0.004759
vn 0.011323 0.999852 0.012967
vn 0.003614 0.999969 -0.007004
vn -0.915459 0.302150 0.265781
vn -0.898883 -0.426812 0.099205
vn 0.000140 1.000000 -0.000130
vn -0.481632 0.875270 -0.043969
vn 0.000295 1.000000 -0.000082
vn -0.000433 1.000000 0.000078
vn 0.000038 1.000000 -0.000125
vn 0.000311 1.000000 0.000153
vn -0.852078 -0.272701 0.446763
vn -0.710105 0.695284 0.111047
vn -0.998390 -0.056660 -0.002513
vn -0.311806 0.950083 -0.010907
vn -0.000070 0.999873 -0.015917
vn 0.000117 1.000000 0.000016
vn 0.000195 1.000000 -0.000169
vn 0.000284 1.000000 -0.000135
vn 0.000212 1.000000 -0.000285
vn -0.048560 0.898610 0.436053
vn -0.252786 0.847512 0.466715
vn -0.532592 -0.142550 0.834281
vn -0.737392 0.667286 0.104797
vn -0.627684 0.215004 0.748189
vn -0.981532 -0.028751 0.189125
vn -0.846791 -0.210575 0.488470
vn -0.699071 -0.180761 0.691828
vn -0.409118 0.310990 0.857851
vn -0.872890 -0.258078 0.414076
vn -0.837601 0.279578 0.469320
vn -0.204538 -0.178138 0.962513
vn -0.082130 0.523380 0.848132
vn 0.001785 0.999998 0.000267
vn 0.000209 1.000000 -0.000390
vn -0.000425 0.999999 -0.000993
vn 0.945774 -0.266548 0.185642
vn 0.991979 -0.074941 0.101795
vn 0.874859 0.447730 0.184825
vn 0.760131 0.649762 0.003306
vn 0.077746 0.761940 0.642965
vn 0.358655 0.931443 -0.061486
vn -0.000405 0.999999 -0.001291
vn 0.974433 -0.216479 0.060137
vn 0.984781 0.159794 -0.068359
vn -0.023736 -0.014277 0.999616
f 5/4/1 6/5/2 4/3/3
f 4/3/3 6/5/2 7/6/4
f 4/3/3 8/7/5 5/4/1
f 5/4/1 8/7/5 9/8/6
f 11/10/7 8/7/5 10/9/8
f 7/6/4 6/5/2 17/16/9
f 17/16/9 6/5/2 16/15/10
f 17/16/9 16/15/10 19/18/11
f 19/18/11 16/15/10 18/17/12
f 19/18/11 18/17/12 21/20/13
f 21/20/13 18/17/12 20/19/14
f 21/20/13 20/19/14 23/22/15
f 23/22/15 20/19/14 22/21/16
f 22/21/16 24/23/17 23/22/15
f 23/22/15 24/23/17 25/24/18
f 25/24/18 24/23/17 27/26/19
f 27/26/19 24/23/17 26/25/20
f 27/26/19 26/25/20 29/28/21
f 29/28/21 26/25/20 28/27/22
f 29/28/21 28/27/22 31/30/23
f 31/30/23 28/27/22 30/29/24
f 31/30/23 30/29/24 33/32/25
f 33/32/25 30/29/24 32/31/26
f 32/31/26 34/33/27 33/32/25
f 33/32/25 34/33/27 35/34/28
f 6/5/2 36/35/29 16/15/10
f 16/15/10 36/35/29 37/36/30
f 5/4/1 38/37/31 6/5/2
f 6/5/2 38/37/31 36/35/29
f 9/8/6 39/38/32 5/4/1
f 5/4/1 39/38/32 38/37/31
f 11/10/7 40/39/33 9/8/6
f 9/8/6 40/39/33 39/38/32
f 11/10/7 13/12/34 40/39/33
f 13/12/34 15/14/35 40/39/33
f 40/39/33 15/14/35 41/40/36
f 40/39/33 41/40/36 39/38/32
f 39/38/32 41/40/36 42/41/37
f 39/38/32 42/41/37 38/37/31
f 38/37/31 42/41/37 43/42/38
f 38/37/31 43/42/38 36/35/29
f 36/35/29 43/42/38 44/43/39
f 16/15/10 37/36/30 18/17/12
f 18/17/12 37/36/30 45/44/40
f 18/17/12 45/44/40 20/19/14
f 20/19/14 45/44/40 22/21/16
f 22/21/16 45/44/40 46/45/41
f 22/21/16 46/45/41 24/23/17
f 24/23/17 46/45/41 47/46/42
f 24/23/17 47/46/42 26/25/20
f 26/25/20 47/46/42 48/47/43
f 26/25/20 48/47/43 28/27/22
f 28/27/22 48/47/43 49/48/44
f 49/48/44 50/49/45 28/27/22
f 28/27/22 50/49/45 30/29/24
f 50/49/45 51/50/46 30/29/24
f 30/29/24 51/50/46 32/31/26
f 32/31/26 51/50/46 34/33/27
f 50/49/45 53/52/47 51/50/46
f 51/50/46 53/52/47 52/51/48
f 48/47/43 54/53/49 49/48/44
f 49/48/44 54/53/49 55/54/50
f 49/48/44 55/54/50 50/49/45
f 50/49/45 55/54/50 53/52/47
f 47/46/42 56/55/51 48/47/43
f 48/47/43 56/55/51 54/53/49
f 46/45/41 57/56/52 47/46/42
f 47/46/42 57/56/52 56/55/51
f 45/44/40 58/57/53 46/45/41
f 46/45/41 58/57/53 57/56/52
f 37/36/30 59/58/54 45/44/40
f 45/44/40 59/58/54 58/57/53
f 36/35/29 44/43/39 37/36/30
f 37/36/30 44/43/39 59/58/54
f 43/42/38 60/59/55 44/43/39
f 44/43/39 60/59/55 61/60/56
f 44/43/39 61/60/56 59/58/54
f 59/58/54 61/60/56 62/61/57
f 59/58/54 62/61/57 58/57/53
f 58/57/53 62/61/57 63/62/58
f 58/57/53 63/62/58 57/56/52
f 57/56/52 63/62/58 64/63/59
f 57/56/52 64/63/59 56/55/51
f 56/55/51 64/63/59 65/64/60
f 56/55/51 65/64/60 54/53/49
f 54/53/49 65/64/60 66/65/61
f 54/53/49 66/65/61 55/54/50
f 55/54/50 66/65/61 67/66/62
f 55/54/50 67/66/62 53/52/47
f 53/52/47 67/66/62 68/67/63
f 42/41/37 69/68/64 43/42/38
f 43/42/38 69/68/64 60/59/55
f 41/40/36 70/69/65 42/41/37
f 42/41/37 70/69/65 69/68/64
f 235/233/66 52/51/48 68/67/63
f 68/67/63 52/51/48 53/52/47
f 72/71/67 76/74/68 73/72/69
f 73/72/69 76/74/68 77/75/70
f 73/72/69 77/75/70 74/73/71
f 74/73/71 77/75/70 78/76/72
f 78/76/72 77/75/70 80/78/73
f 80/78/73 77/75/70 79/77/74
f 76/74/68 85/83/75 77/75/70
f 77/75/70 85/83/75 79/77/74
f 87/85/76 90/88/77 76/74/68
f 76/74/68 90/88/77 85/83/75
f 90/88/77 91/89/78 95/93/79
f 91/89/78 93/91/80 95/93/79
f 90/88/77 95/93/79 85/83/75
f 85/83/75 95/93/79 96/94/81
f 85/83/75 96/94/81 79/77/74
f 79/77/74 96/94/81 97/95/82
f 97/95/82 98/96/83 79/77/74
f 79/77/74 98/96/83 80/78/73
f 80/78/73 98/96/83 82/80/84
f 98/96/83 97/95/82 101/99/85
f 101/99/85 97/95/82 100/98/86
f 98/96/83 101/99/85 99/97/87
f 96/94/81 102/100/88 97/95/82
f 97/95/82 102/100/88 100/98/86
f 95/93/79 103/101/89 96/94/81
f 96/94/81 103/101/89 102/100/88
f 95/93/79 267/276/90 103/101/89
f 109/107/91 110/108/92 256/262/93
f 256/262/93 110/108/92 255/261/94
f 254/260/95 255/261/94 111/109/96
f 111/109/96 255/261/94 110/108/92
f 111/109/96 251/257/97 254/260/95
f 254/260/95 251/257/97 253/259/98
f 108/106/99 247/253/100 109/107/91
f 109/107/91 247/253/100 248/254/101
f 109/107/91 248/254/101 110/108/92
f 110/108/92 248/254/101 249/255/102
f 110/108/92 249/255/102 111/109/96
f 111/109/96 249/255/102 250/256/103
f 114/112/104 243/250/105 115/113/106
f 115/113/106 242/237/107 116/114/108
f 261/268/109 262/269/110 239/248/111
f 239/248/111 262/269/110 125/123/112
f 134/132/113 135/133/114 137/135/115
f 137/135/115 135/133/114 136/134/116
f 134/132/113 137/135/115 133/131/117
f 137/135/115 136/134/116 138/136/118
f 138/136/118 136/134/116 142/140/119
f 138/136/118 142/140/119 139/137/120
f 139/137/120 142/140/119 143/141/121
f 139/137/120 143/141/121 140/138/122
f 140/138/122 143/141/121 144/142/123
f 140/138/122 144/142/123 141/139/124
f 141/139/124 144/142/123 145/143/125
f 141/139/124 145/143/125 132/130/126
f 132/130/126 145/143/125 146/144/127
f 146/144/127 147/145/128 132/130/126
f 132/130/126 147/145/128 130/128/129
f 135/133/114 149/147/130 136/134/116
f 136/134/116 149/147/130 150/148/131
f 150/148/131 151/149/132 136/134/116
f 136/134/116 151/149/132 142/140/119
f 151/149/132 152/150/133 142/140/119
f 142/140/119 152/150/133 143/141/121
f 152/150/133 153/151/134 143/141/121
f 143/141/121 153/151/134 144/142/123
f 153/151/134 154/152/135 144/142/123
f 144/142/123 154/152/135 145/143/125
f 154/152/135 155/153/136 145/143/125
f 145/143/125 155/153/136 146/144/127
f 150/148/131 149/147/130 159/157/137
f 159/157/137 149/147/130 158/156/138
f 159/157/137 160/158/139 150/148/131
f 150/148/131 160/158/139 151/149/132
f 160/158/139 161/159/140 151/149/132
f 151/149/132 161/159/140 152/150/133
f 161/159/140 162/160/141 152/150/133
f 152/150/133 162/160/141 153/151/134
f 162/160/141 163/161/142 153/151/134
f 153/151/134 163/161/142 154/152/135
f 163/161/142 162/160/141 165/163/143
f 165/163/143 162/160/141 164/162/144
f 162/160/141 161/159/140 164/162/144
f 164/162/144 161/159/140 166/164/145
f 161/159/140 160/158/139 166/164/145
f 166/164/145 160/158/139 167/165/146
f 160/158/139 159/157/137 167/165/146
f 167/165/146 159/157/137 168/166/147
f 159/157/137 158/156/138 168/166/147
f 169/167/148 170/168/149 168/166/147
f 168/166/147 170/168/149 167/165/146
f 170/168/149 171/169/150 167/165/146
f 167/165/146 171/169/150 166/164/145
f 171/169/150 172/170/151 166/164/145
f 166/164/145 172/170/151 164/162/144
f 172/170/151 173/171/152 164/162/144
f 164/162/144 173/171/152 165/163/143
f 173/171/152 174/172/153 165/163/143
f 165/163/143 174/172/153 175/173/154
f 175/173/154 174/172/153 178/176/155
f 178/176/155 174/172/153 179/177/156
f 178/176/155 179/177/156 181/179/157
f 185/184/158 192/191/159 186/185/160
f 186/185/160 192/191/159 191/190/161
f 184/183/162 193/192/163 185/184/158
f 185/184/158 193/192/163 192/191/159
f 184/183/162 183/182/164 193/192/163
f 193/192/163 183/182/164 194/193/165
f 183/182/164 182/181/166 194/193/165
f 194/193/165 182/181/166 195/194/167
f 182/181/166 198/180/168 195/194/167
f 195/194/167 198/180/168 197/196/169
f 202/200/170 204/202/171 197/196/169
f 197/196/169 204/202/171 205/203/172
f 197/196/169 205/203/172 195/194/167
f 195/194/167 205/203/172 206/204/173
f 206/204/173 207/205/174 195/194/167
f 195/194/167 207/205/174 194/193/165
f 207/205/174 208/206/175 194/193/165
f 194/193/165 208/206/175 193/192/163
f 208/206/175 209/207/176 193/192/163
f 193/192/163 209/207/176 192/191/159
f 208/206/175 217/215/177 209/207/176
f 209/207/176 217/215/177 212/210/178
f 207/205/174 218/216/179 208/206/175
f 208/206/175 218/216/179 217/215/177
f 206/204/173 219/217/180 207/205/174
f 207/205/174 219/217/180 218/216/179
f 205/203/172 220/218/181 206/204/173
f 206/204/173 220/218/181 219/217/180
f 204/202/171 221/219/182 205/203/172
f 205/203/172 221/219/182 220/218/181
f 221/219/182 222/220/183 225/223/184
f 225/223/184 226/224/185 221/219/182
f 221/219/182 226/224/185 220/218/181
f 220/218/181 226/224/185 219/217/180
f 219/217/180 226/224/185 227/225/186
f 227/225/186 228/226/187 219/217/180
f 219/217/180 228/226/187 218/216/179
f 228/226/187 229/227/188 218/216/179
f 218/216/179 229/227/188 217/215/177
f 229/227/188 215/213/189 217/215/177
f 217/215/177 215/213/189 212/210/178
f 215/213/189 229/227/188 231/229/190
f 231/229/190 229/227/188 230/228/191
f 228/226/187 232/230/192 229/227/188
f 229/227/188 232/230/192 230/228/191
f 228/226/187 227/225/186 232/230/192
f 232/230/192 227/225/186 233/231/193
f 227/225/186 226/224/185 233/231/193
f 233/231/193 226/224/185 234/232/194
f 226/224/185 225/223/184 234/232/194
f 68/67/63 67/66/62 235/233/66
f 1/1/195 2/2/196 51/50/46
f 51/50/46 2/2/196 34/33/27
f 3/234/197 1/1/195 52/51/48
f 1/1/195 51/50/46 52/51/48
f 115/113/106 243/250/105 242/237/107
f 242/237/107 243/250/105 244/251/198
f 111/109/96 250/256/103 251/257/97
f 9/8/6 8/7/5 11/10/7
f 247/253/100 114/112/104 115/113/106
f 247/253/100 115/113/106 248/254/101
f 248/254/101 115/113/106 116/114/108
f 248/254/101 116/114/108 249/255/102
f 249/255/102 116/114/108 117/115/199
f 118/116/200 250/256/103 117/115/199
f 117/115/199 250/256/103 249/255/102
f 251/257/97 250/256/103 271/239/201
f 251/257/97 271/239/201 253/259/98
f 253/259/98 271/239/201 252/258/202
f 246/246/203 125/123/112 263/270/204
f 112/110/205 271/239/201 118/116/200
f 118/116/200 271/239/201 250/256/103
f 252/258/202 271/239/201 112/110/205
f 277/286/206 278/287/207 276/285/208
f 276/285/208 278/287/207 279/288/209
f 278/287/207 284/293/210 279/288/209
f 279/288/209 284/293/210 280/289/211
f 284/293/210 285/294/212 280/289/211
f 280/289/211 285/294/212 281/290/213
f 281/290/213 285/294/212 282/291/214
f 282/291/214 285/294/212 286/295/215
f 282/291/214 286/295/215 283/292/216
f 283/292/216 286/295/215 287/296/217
f 287/296/217 288/297/218 283/292/216
f 283/292/216 288/297/218 275/284/219
f 278/287/207 277/286/206 292/301/220
f 292/301/220 277/286/206 291/300/221
f 278/287/207 292/301/220 284/293/210
f 284/293/210 292/301/220 293/302/222
f 284/293/210 293/302/222 285/294/212
f 285/294/212 293/302/222 294/303/223
f 294/303/223 295/304/224 285/294/212
f 285/294/212 295/304/224 286/295/215
f 295/304/224 296/305/225 286/295/215
f 286/295/215 296/305/225 287/296/217
f 296/305/225 297/306/226 287/296/217
f 287/296/217 297/306/226 288/297/218
f 292/301/220 291/300/221 302/311/227
f 302/311/227 291/300/221 301/310/228
f 302/311/227 303/312/229 292/301/220
f 292/301/220 303/312/229 293/302/222
f 293/302/222 303/312/229 294/303/223
f 294/303/223 303/312/229 304/313/230
f 304/313/230 305/314/231 294/303/223
f 294/303/223 305/314/231 295/304/224
f 305/314/231 306/315/232 295/304/224
f 295/304/224 306/315/232 296/305/225
f 306/315/232 305/314/231 308/317/233
f 308/317/233 305/314/231 307/316/234
f 305/314/231 304/313/230 307/316/234
f 307/316/234 304/313/230 309/318/235
f 304/313/230 303/312/229 309/318/235
f 309/318/235 303/312/229 310/319/236
f 303/312/229 302/311/227 310/319/236
f 310/319/236 302/311/227 311/320/237
f 302/311/227 301/310/228 311/320/237
f 308/317/233 312/321/238 306/315/232
f 306/315/232 312/321/238 313/322/239
f 306/315/232 313/322/239 296/305/225
f 296/305/225 313/322/239 297/306/226
f 297/306/226 313/322/239 298/307/240
f 313/322/239 314/323/241 298/307/240
f 298/307/240 314/323/241 300/309/242
f 313/322/239 312/321/238 314/323/241
f 322/331/243 323/332/244 325/334/245
f 325/334/245 323/332/244 324/333/246
f 325/334/245 326/335/247 318/327/248
f 318/327/248 326/335/247 319/328/249
f 326/335/247 327/336/250 319/328/249
f 319/328/249 327/336/250 320/329/251
f 327/336/250 328/337/252 320/329/251
f 320/329/251 328/337/252 321/330/253
f 324/333/246 330/339/254 325/334/245
f 325/334/245 330/339/254 326/335/247
f 330/339/254 331/340/255 326/335/247
f 326/335/247 331/340/255 327/336/250
f 331/340/255 332/341/256 327/336/250
f 327/336/250 332/341/256 328/337/252
f 328/337/252 332/341/256 329/338/257
f 329/338/257 332/341/256 333/342/258
f 324/333/246 323/332/244 338/347/259
f 338/347/259 323/332/244 337/346/260
f 324/333/246 338/347/259 330/339/254
f 330/339/254 338/347/259 339/348/261
f 330/339/254 339/348/261 331/340/255
f 331/340/255 339/348/261 340/349/262
f 340/349/262 341/350/263 331/340/255
f 331/340/255 341/350/263 332/341/256
f 341/350/263 342/351/264 332/341/256
f 332/341/256 342/351/264 333/342/258
f 338/347/259 337/346/260 348/357/265
f 348/357/265 337/346/260 347/356/266
f 338/347/259 348/357/265 339/348/261
f 339/348/261 348/357/265 349/358/267
f 339/348/261 349/358/267 340/349/262
f 340/349/262 349/358/267 350/359/268
f 350/359/268 351/360/269 340/349/262
f 340/349/262 351/360/269 341/350/263
f 351/360/269 352/361/270 341/350/263
f 341/350/263 352/361/270 342/351/264
f 352/361/270 351/360/269 354/363/271
f 354/363/271 351/360/269 353/362/272
f 351/360/269 350/359/268 353/362/272
f 353/362/272 350/359/268 355/364/273
f 350/359/268 349/358/267 355/364/273
f 355/364/273 349/358/267 356/365/274
f 348/357/265 357/366/275 349/358/267
f 349/358/267 357/366/275 356/365/274
f 348/357/265 347/356/266 357/366/275
f 354/363/271 358/367/276 352/361/270
f 352/361/270 358/367/276 359/368/277
f 352/361/270 359/368/277 342/351/264
f 342/351/264 359/368/277 343/352/278
f 343/352/278 359/368/277 344/353/279
f 358/367/276 361/370/280 359/368/277
f 359/368/277 361/370/280 360/369/281
f 360/369/281 361/370/280 362/371/282
f 364/373/283 260/267/284 363/372/285
f 363/372/285 260/267/284 120/118/286
f 260/267/284 261/268/109 120/118/286
f 120/118/286 261/268/109 239/248/111
f 89/87/287 91/89/78 87/85/76
f 87/85/76 91/89/78 90/88/77
f 89/87/287 92/90/288 91/89/78
f 91/89/78 92/90/288 93/91/80
f 93/91/80 268/277/289 104/102/290
f 92/90/288 106/104/291 105/103/292
f 93/91/80 104/102/290 95/93/79
f 95/93/79 104/102/290 267/276/90
f 93/91/80 92/90/288 105/103/292
f 93/91/80 105/103/292 268/277/289
f 268/278/289 105/241/292 371/382/293
f 371/382/293 105/241/292 106/242/291
f 86/84/294 87/85/76 72/71/67
f 72/71/67 87/85/76 76/74/68
f 87/85/76 86/84/294 89/87/287
f 89/87/287 86/84/294 88/86/295
f 92/90/288 89/87/287 94/92/296
f 94/92/296 89/87/287 88/86/295
f 92/90/288 94/92/296 106/104/291
f 88/86/295 370/380/297 94/92/296
f 371/382/293 106/242/291 370/381/297
f 370/381/297 106/242/291 94/240/296
f 83/81/298 82/80/84 266/274/299
f 98/96/83 99/97/87 82/80/84
f 82/80/84 99/97/87 84/82/300
f 266/274/299 82/80/84 84/82/300
f 359/368/277 360/369/281 344/353/279
f 344/353/279 360/369/281 346/355/301
f 346/355/301 360/369/281 362/371/282
f 329/338/257 333/342/258 317/326/302
f 317/326/302 333/342/258 334/343/303
f 342/351/264 343/352/278 333/342/258
f 333/342/258 343/352/278 334/343/303
f 317/326/302 334/343/303 315/324/304
f 315/324/304 334/343/303 373/384/305
f 343/352/278 344/353/279 334/343/303
f 334/343/303 344/353/279 335/344/306
f 335/344/306 344/353/279 336/345/307
f 345/354/308 374/385/309 346/355/301
f 346/355/301 374/385/309 336/345/307
f 336/345/307 344/353/279 346/355/301
f 374/385/309 373/384/305 336/345/307
f 336/345/307 373/384/305 335/344/306
f 373/384/305 334/343/303 335/344/306
f 374/385/309 345/354/308 372/383/310
f 372/383/310 345/354/308 316/325/311
f 373/384/305 374/385/309 315/324/304
f 315/324/304 374/385/309 372/383/310
f 11/10/7 10/9/8 13/12/34
f 13/12/34 10/9/8 12/11/312
f 12/11/312 14/13/313 13/12/34
f 13/12/34 14/13/313 15/14/35
f 15/14/35 71/70/314 41/40/36
f 41/40/36 71/70/314 70/69/65
f 71/70/314 15/14/35 237/236/315
f 237/236/315 15/14/35 14/13/313
f 8/7/5 236/235/316 10/9/8
f 10/9/8 236/235/316 12/11/312
f 14/13/313 375/386/317 237/236/315
f 12/11/312 236/235/316 272/281/318
f 375/386/317 14/13/313 12/11/312
f 272/281/318 375/386/317 12/11/312
f 78/76/72 269/279/319 74/73/71
f 74/73/71 269/279/319 270/280/320
f 78/76/72 80/78/73 269/279/319
f 81/79/321 82/80/84 83/81/298
f 80/78/73 82/80/84 269/279/319
f 269/279/319 82/80/84 81/79/321
f 241/238/322 75/243/323 266/275/299
f 266/275/299 75/243/323 83/244/298
f 269/279/319 81/79/321 270/280/320
f 270/280/320 81/79/321 376/387/324
f 297/306/226 298/307/240 288/297/218
f 288/297/218 298/307/240 289/298/325
f 289/298/325 298/307/240 290/299/326
f 299/308/327 274/283/328 300/309/242
f 300/309/242 274/283/328 290/299/326
f 290/299/326 298/307/240 300/309/242
f 288/297/218 289/298/325 275/284/219
f 275/284/219 289/298/325 273/282/329
f 289/298/325 290/299/326 273/282/329
f 273/282/329 290/299/326 274/283/328
f 258/264/330 107/105/331 257/263/332
f 257/263/332 107/105/331 108/106/99
f 108/106/99 109/107/91 257/263/332
f 257/263/332 109/107/91 256/262/93
f 107/105/331 258/264/330 113/111/333
f 113/111/333 258/264/330 377/388/334
f 107/105/331 113/111/333 114/112/104
f 114/112/104 247/253/100 107/105/331
f 107/105/331 247/253/100 108/106/99
f 238/249/335 199/197/336 196/195/337
f 196/195/337 199/197/336 200/198/338
f 200/198/338 223/221/339 201/199/340
f 201/199/340 223/221/339 224/222/341
f 196/195/337 202/200/170 197/196/169
f 201/199/340 203/201/342 202/200/170
f 202/200/170 203/201/342 204/202/171
f 204/202/171 203/201/342 221/219/182
f 221/219/182 203/201/342 222/220/183
f 201/199/340 196/195/337 200/198/338
f 201/199/340 224/222/341 203/201/342
f 203/201/342 224/222/341 222/220/183
f 198/180/168 238/249/335 197/196/169
f 197/196/169 238/249/335 196/195/337
f 196/195/337 201/199/340 202/200/170
f 147/145/128 148/146/343 130/128/129
f 130/128/129 148/146/343 131/129/344
f 155/153/136 156/154/345 146/144/127
f 146/144/127 156/154/345 147/145/128
f 157/155/346 131/129/344 148/146/343
f 148/146/343 378/389/347 157/155/346
f 165/163/143 175/173/154 163/161/142
f 163/161/142 175/173/154 176/174/348
f 163/161/142 176/174/348 154/152/135
f 154/152/135 176/174/348 155/153/136
f 155/153/136 176/174/348 156/154/345
f 176/174/348 175/173/154 177/175/349
f 177/175/349 175/173/154 178/176/155
f 177/175/349 180/178/350 378/389/347
f 378/389/347 180/178/350 157/155/346
f 178/176/155 181/179/157 177/175/349
f 177/175/349 181/179/157 180/178/350
f 156/154/345 378/389/347 147/145/128
f 147/145/128 378/389/347 148/146/343
f 378/389/347 156/154/345 177/175/349
f 177/175/349 156/154/345 176/174/348
f 187/186/351 189/188/352 188/187/353
f 188/187/353 189/188/352 190/189/354
f 186/185/160 191/190/161 187/186/351
f 187/186/351 191/190/161 189/188/352
f 209/207/176 210/208/355 192/191/159
f 192/191/159 210/208/355 191/190/161
f 191/190/161 210/208/355 189/188/352
f 211/209/356 189/188/352 210/208/355
f 209/207/176 212/210/178 210/208/355
f 210/208/355 212/210/178 211/209/356
f 211/209/356 213/211/357 190/189/354
f 190/189/354 213/211/357 214/212/358
f 212/210/178 215/213/189 211/209/356
f 211/209/356 215/213/189 213/211/357
f 213/211/357 215/213/189 216/214/359
f 216/214/359 215/213/189 231/229/190
f 213/211/357 216/214/359 214/212/358
f 189/188/352 211/209/356 190/189/354
f 126/124/360 239/248/111 125/123/112
f 126/124/360 125/123/112 246/246/203
f 120/118/286 239/248/111 121/119/361
f 121/119/361 239/248/111 126/124/360
f 363/372/285 120/118/286 368/378/362
f 368/378/362 120/118/286 121/119/361
f 379/391/363 124/122/364 380/390/365
f 380/390/365 124/122/364 119/117/366
f 379/391/363 126/124/360 124/122/364
f 124/122/364 129/127/367 119/117/366
f 124/122/364 245/252/368 129/127/367
f 126/124/360 246/246/203 124/122/364
f 124/122/364 246/246/203 245/252/368
f 380/390/369 368/378/362 379/391/370
f 379/391/370 368/378/362 121/119/361
f 126/124/360 379/391/370 121/119/361
f 364/373/283 367/376/371 260/267/284
f 260/267/284 367/376/371 122/120/372
f 240/247/373 264/271/374 127/125/375
f 262/269/110 261/268/109 127/125/375
f 127/125/375 261/268/109 240/247/373
f 365/374/376 366/375/377 381/392/378
f 381/392/378 366/375/377 123/121/379
f 381/392/380 240/247/373 122/120/372
f 240/247/373 265/272/381 128/126/382
f 261/268/109 260/267/284 240/247/373
f 240/247/373 260/267/284 122/120/372
f 240/247/373 128/126/382 264/271/374
f 240/247/373 123/121/379 265/272/381
f 366/375/377 365/374/376 259/265/383
f 366/377/377 369/379/384 123/245/379
f 123/245/379 369/379/384 265/273/381
f 369/379/384 366/377/377 259/266/383
f 381/392/380 122/120/372 365/374/385
f 365/374/385 122/120/372 367/376/371
f 240/247/373 381/392/378 123/121/379
