# This file uses centimeters as units for non-parametric coordinates.

v -10.762924 5.769768 12.998943
v 7.034089 7.735179 12.548732
v -17.710251 2.314804 10.801886
v -19.343399 2.260559 15.108690
v -13.561249 3.250832 21.024361
v -2.770502 3.063087 25.624268
v 5.293430 2.612099 21.529694
v 11.880341 3.248672 18.885418
v 14.948242 3.257156 13.161774
v 11.251144 2.571693 6.878231
v -9.492239 4.122742 6.996780
v -15.460716 2.997780 9.232994
v -14.094372 3.065010 8.586420
v 3.357037 5.387020 6.144615
v 8.281765 4.181358 6.155994
v -2.077387 4.606279 6.687113
v -4.190458 9.122681 12.372128
v -5.414593 4.059928 6.131247
v -0.615147 5.479566 6.896826
v -13.396267 3.363853 11.454452
v 6.171729 7.125813 9.353341
v -17.039585 3.533478 13.951646
v -12.215996 4.221832 18.750751
v -3.029499 4.256432 22.930683
v 9.478760 4.749687 17.767395
v 12.066849 4.970833 13.490393
v 10.109962 5.540985 10.271833
v 13.264999 3.484856 10.394527
v -7.307806 4.136626 6.436104
v -8.625660 4.868530 7.684862
v -7.754728 5.699982 9.542755
v -3.924536 8.421886 10.162599
v -0.060337 8.777586 9.934402
v 2.462282 7.499258 8.257185
v 1.030495 5.196537 6.660592
v 3.211342 6.168304 18.967003
v -0.069664 9.091148 13.935434
v -1.924478 8.369129 9.936292
v -6.186510 5.353741 6.955997
v -3.361253 5.999538 7.964499
v -1.993720 6.311039 7.952118
v -0.342869 6.730057 7.834576
v -15.406124 2.854530 9.849512
v -11.133881 4.119675 7.866426
v -8.003197 4.880600 6.942326
v -5.607887 4.681754 6.629168
v -2.509246 4.882417 7.180197
v -2.076207 4.993726 7.322184
v -0.389268 5.957330 7.461641
v 1.635657 6.419092 7.436687
v 5.424355 5.375511 7.384171
v 10.162407 3.757607 7.402809
v 11.982620 2.431015 7.456902
v -8.772413 5.077427 8.369473
v -13.267422 4.903107 12.657181
v -16.080345 3.575996 17.585272
v -18.022079 2.703400 19.168530
v -16.128849 2.482155 12.004454
v -18.729492 1.199760 12.058693
v -6.103930 6.544518 12.141762
v -7.975746 4.289337 19.919659
v -8.997465 3.131882 23.542709
v -2.007628 9.267349 13.491608
v 0.541712 4.026978 21.913990
v 1.724621 2.480118 24.253456
v 3.429863 9.057709 13.644686
v 6.903351 6.254723 18.339027
v 9.653683 2.725471 20.328640
v 12.160179 4.500114 15.734164
v 13.841568 3.279488 15.760603
v 6.323715 5.482548 8.635176
v 10.271027 4.426964 8.820936
v 12.356468 3.073189 8.708149
v -11.124535 3.299942 21.743000
v -16.308067 2.962952 20.333237
v -6.112016 3.062767 24.870071
v -0.423845 3.087013 25.142899
v -19.209953 2.478485 16.613186
v 12.764305 3.296913 17.301380
v 5.767109 4.891174 5.717525
v 8.597969 6.157867 10.143757
v 10.840702 5.259697 11.773495
v 14.082542 3.177155 11.737714
v 9.265564 3.954269 6.855072
v 9.793495 3.507599 6.880768
v 7.067963 4.549767 5.986557
v -17.183769 3.546349 16.170382
v -18.607613 2.565964 18.195087
v -17.338398 3.509331 15.187662
vt 0.759394 0.389604
vt 0.252900 0.318732
vt 0.057115 0.453382
vt 0.024578 0.285508
vt 0.108416 0.182974
vt 0.474031 0.020400
vt 0.648742 0.035046
vt 0.913138 0.157320
vt 0.964926 0.228288
vt 0.929687 0.531599
vt 0.270040 0.634537
vt 0.106559 0.522168
vt 0.162882 0.601248
vt 0.717733 0.721004
vt 0.786885 0.737617
vt 0.526750 0.671737
vt 0.520081 0.309470
vt 0.426409 0.643841
vt 0.558271 0.672266
vt 0.261670 0.480327
vt 0.739035 0.495696
vt 0.141765 0.433705
vt 0.179522 0.301701
vt 0.491950 0.207847
vt 0.817676 0.303944
vt 0.880150 0.366978
vt 0.835969 0.546949
vt 0.944508 0.404025
vt 0.337809 0.644647
vt 0.337830 0.553560
vt 0.362485 0.453985
vt 0.510655 0.390680
vt 0.620221 0.481998
vt 0.656307 0.589391
vt 0.647905 0.701450
vt 0.657617 0.256723
vt 0.621242 0.377143
vt 0.577185 0.420714
vt 0.418988 0.596153
vt 0.523608 0.616869
vt 0.537281 0.619320
vt 0.580102 0.602669
vt 0.159388 0.573523
vt 0.268817 0.611994
vt 0.341803 0.613212
vt 0.430176 0.623160
vt 0.525774 0.654689
vt 0.529867 0.656223
vt 0.565871 0.652546
vt 0.647599 0.659829
vt 0.735894 0.623037
vt 0.806994 0.664978
vt 0.932557 0.506893
vt 0.331858 0.510359
vt 0.257472 0.402975
vt 0.160237 0.369122
vt 0.063200 0.238274
vt 0.149992 0.498978
vt 0.043216 0.381671
vt 0.425828 0.351428
vt 0.330167 0.256446
vt 0.277658 0.107719
vt 0.572924 0.309781
vt 0.576406 0.232763
vt 0.561040 0.027694
vt 0.669554 0.397462
vt 0.743092 0.281940
vt 0.782513 0.096910
vt 0.848590 0.335135
vt 0.941442 0.196107
vt 0.733289 0.578169
vt 0.821429 0.606177
vt 0.937858 0.461263
vt 0.192638 0.145524
vt 0.083153 0.213870
vt 0.384193 0.060348
vt 0.517289 0.024027
vt 0.041767 0.264486
vt 0.928218 0.177986
vt 0.739607 0.746164
vt 0.778616 0.587420
vt 0.855357 0.467971
vt 0.953345 0.327969
vt 0.789930 0.725214
vt 0.871208 0.603302
vt 0.769070 0.746596
vt 0.151963 0.398049
vt 0.052500 0.251360
vt 0.147382 0.414066
vn 0.158515 0.844767 0.511119
vn 0.038274 0.805974 0.590712
vn -0.097165 0.935762 0.338983
vn 0.006795 0.963401 0.267979
vn -0.220746 0.960312 0.170507
vn -0.153989 0.960907 0.230097
vn -0.397259 0.898386 -0.187318
vn -0.197167 0.975645 0.096136
vn -0.172639 0.840086 -0.514248
vn 0.019829 0.690955 -0.722626
vn -0.187325 0.614859 -0.766067
vn 0.318668 0.874421 -0.365840
vn 0.215967 0.948619 -0.231259
vn 0.158957 0.886369 -0.434837
vn 0.062793 0.579177 -0.812780
vn 0.022882 0.650345 -0.759294
vn -0.514192 0.855752 0.057407
vn -0.219019 0.914235 0.340889
vn -0.442649 0.877156 0.186172
vn -0.059423 0.903960 0.423468
vn -0.241928 0.722986 -0.647119
vn -0.114179 0.496638 -0.860415
vn 0.001503 0.637870 -0.770143
vn -0.170427 0.603200 -0.779169
vn -0.150436 0.557152 -0.816671
vn -0.224503 0.787785 -0.573579
vn -0.342807 0.610225 -0.714219
vn -0.367794 0.895627 -0.250159
vn -0.322070 0.935730 -0.143806
vn -0.247040 0.966680 0.067089
vn 0.423284 0.854793 0.300265
vn 0.499286 0.866437 -0.000273
vn 0.405559 0.913039 -0.043375
vn 0.334378 0.842373 -0.422610
vn -0.309926 0.906298 0.287349
vn -0.030935 0.972979 0.228813
vn -0.179255 0.945147 0.273066
vn -0.188237 0.961760 0.198960
vn -0.144791 0.938139 0.314531
vn -0.017809 0.913510 0.406426
vn 0.213365 0.665786 0.714985
vn 0.324693 0.856171 0.401927
vn 0.537520 0.809908 0.234781
vn 0.510955 0.859604 -0.002497
vn 0.324415 0.933404 -0.153336
vn 0.359386 0.899696 -0.247770
vn 0.492690 0.621483 -0.609110
vn 0.354482 0.842456 -0.405722
vn 0.519046 0.838618 -0.165261
vn 0.465005 0.825917 -0.318796
vn 0.523449 0.811830 -0.258717
vn 0.499164 0.831613 -0.243426
vn -0.301305 0.913115 -0.274656
vn -0.370955 0.867595 -0.331166
vn -0.373866 0.776670 -0.506960
vn -0.092713 0.883176 -0.459788
vn 0.018543 0.945339 -0.325561
vn 0.293432 0.805745 0.514463
vn 0.258249 0.659930 0.705549
vn 0.426811 0.822761 0.375363
vn 0.318307 0.838583 0.442107
vn 0.195308 0.971184 0.136585
vn -0.118940 0.898539 -0.422471
vn -0.168082 0.693520 -0.700556
vn -0.180000 0.619453 -0.764119
vn -0.138456 0.661089 -0.737423
vn 0.150934 0.787287 -0.597828
vn -0.353880 0.882310 -0.310320
vn -0.515454 0.798584 -0.310760
vn -0.458564 0.806401 -0.373410
vn -0.560819 0.790102 -0.247429
vn -0.456723 0.809112 -0.369787
vn -0.332194 0.922404 -0.197024
vn 0.347361 0.727257 -0.591977
vn 0.371316 0.785828 -0.494568
vn 0.376290 0.816468 -0.437934
vn 0.511851 0.691454 -0.509803
vn 0.484904 0.749372 -0.450899
vn -0.292088 0.948035 0.126151
vn -0.304599 0.941341 0.145246
vn -0.376729 0.916211 0.136499
vn -0.122352 0.944252 0.305644
vn -0.119170 0.955033 0.271498
vn 0.198829 0.913964 0.353747
vn 0.447137 0.812636 0.373754
vn -0.476056 0.878850 0.031504
vn 0.315175 0.932016 -0.178915
vn 0.487014 0.759680 -0.430932
vn -0.405106 0.913720 -0.031698
f 64/64/1 36/36/2 63/63/3
f 63/63/3 36/36/2 37/37/4
f 56/56/5 23/23/6 55/55/7
f 55/55/7 23/23/6 1/2/8
f 16/16/9 47/47/10 48/48/11
f 51/51/12 80/80/13 14/14/14
f 46/46/15 47/47/10 18/18/16
f 18/18/16 47/47/10 16/16/9
f 60/60/17 61/61/18 17/17/19
f 17/17/19 61/61/18 24/24/20
f 45/45/21 46/46/15 29/29/22
f 29/29/22 46/46/15 18/18/16
f 50/50/23 35/35/24 49/49/25
f 49/49/25 35/35/24 19/19/26
f 11/11/27 13/13/28 44/44/29
f 44/44/29 13/13/28 43/43/30
f 69/69/31 26/26/32 2/1/33
f 2/1/33 26/26/32 21/21/34
f 3/3/35 43/43/30 12/12/36
f 12/12/36 43/43/30 13/13/28
f 23/23/6 56/56/5 5/5/37
f 5/5/37 56/56/5 75/75/38
f 61/61/18 76/76/39 24/24/20
f 24/24/20 76/76/39 6/6/40
f 36/36/2 64/64/1 7/7/41
f 7/7/41 64/64/1 65/65/42
f 69/69/31 70/70/43 26/26/32
f 26/26/32 70/70/43 9/9/44
f 15/15/45 84/84/46 85/85/47
f 81/81/48 82/82/49 27/27/50
f 27/27/50 82/82/49 28/28/51
f 28/28/51 82/82/49 83/83/52
f 44/44/29 45/45/21 11/11/27
f 11/11/27 45/45/21 29/29/22
f 31/31/53 54/54/54 1/2/8
f 1/2/8 54/54/54 55/55/7
f 32/32/55 60/60/17 17/17/19
f 37/37/4 38/38/56 63/63/3
f 21/21/34 33/33/57 2/1/33
f 35/35/24 50/50/23 14/14/14
f 14/14/14 50/50/23 51/51/12
f 67/67/58 68/68/59 25/25/60
f 25/25/60 68/68/59 8/8/61
f 66/66/62 67/67/58 2/1/33
f 2/1/33 67/67/58 25/25/60
f 33/33/57 66/66/62 2/1/33
f 16/16/9 48/48/11 19/19/26
f 19/19/26 48/48/11 49/49/25
f 39/39/63 54/54/54 31/31/53
f 32/32/55 40/40/64 31/31/53
f 31/31/53 40/40/64 39/39/63
f 41/41/65 40/40/64 38/38/56
f 38/38/56 40/40/64 32/32/55
f 41/41/65 38/38/56 42/42/66
f 42/42/66 38/38/56 33/33/57
f 34/34/67 42/42/66 33/33/57
f 58/58/68 59/59/69 22/22/70
f 22/22/70 59/59/69 4/4/71
f 20/20/72 58/58/68 22/22/70
f 20/20/72 30/30/73 44/44/29
f 44/44/29 30/30/73 45/45/21
f 30/30/73 39/39/63 45/45/21
f 45/45/21 39/39/63 46/46/15
f 39/39/63 40/40/64 46/46/15
f 46/46/15 40/40/64 47/47/10
f 48/48/11 47/47/10 41/41/65
f 41/41/65 47/47/10 40/40/64
f 48/48/11 41/41/65 49/49/25
f 49/49/25 41/41/65 42/42/66
f 34/34/67 50/50/23 42/42/66
f 42/42/66 50/50/23 49/49/25
f 50/50/23 34/34/67 51/51/12
f 51/51/12 34/34/67 71/71/74
f 72/72/75 52/52/76 71/71/74
f 71/71/74 52/52/76 51/51/12
f 53/53/77 52/52/76 73/73/78
f 73/73/78 52/52/76 72/72/75
f 30/30/73 54/54/54 39/39/63
f 55/55/7 54/54/54 20/20/72
f 20/20/72 54/54/54 30/30/73
f 55/55/7 87/87/79 56/56/5
f 57/57/80 56/56/5 88/88/81
f 88/88/81 56/56/5 87/87/79
f 44/44/29 43/43/30 20/20/72
f 20/20/72 43/43/30 58/58/68
f 59/59/69 58/58/68 3/3/35
f 3/3/35 58/58/68 43/43/30
f 1/2/8 60/60/17 31/31/53
f 31/31/53 60/60/17 32/32/55
f 23/23/6 61/61/18 1/2/8
f 1/2/8 61/61/18 60/60/17
f 23/23/6 74/74/82 61/61/18
f 61/61/18 74/74/82 62/62/83
f 63/63/3 38/38/56 17/17/19
f 17/17/19 38/38/56 32/32/55
f 17/17/19 24/24/20 63/63/3
f 63/63/3 24/24/20 64/64/1
f 65/65/42 64/64/1 77/77/84
f 77/77/84 64/64/1 24/24/20
f 38/38/56 37/37/4 33/33/57
f 33/33/57 37/37/4 66/66/62
f 37/37/4 36/36/2 66/66/62
f 66/66/62 36/36/2 67/67/58
f 68/68/59 67/67/58 7/7/41
f 7/7/41 67/67/58 36/36/2
f 25/25/60 69/69/31 2/1/33
f 25/25/60 79/79/85 69/69/31
f 69/69/31 79/79/85 70/70/43
f 71/71/74 34/34/67 21/21/34
f 71/71/74 81/81/48 72/72/75
f 72/72/75 81/81/48 27/27/50
f 73/73/78 72/72/75 28/28/51
f 28/28/51 72/72/75 27/27/50
f 5/5/37 74/74/82 23/23/6
f 75/75/38 56/56/5 57/57/80
f 61/61/18 62/62/83 76/76/39
f 77/77/84 24/24/20 6/6/40
f 78/78/86 22/22/70 4/4/71
f 8/8/61 79/79/85 25/25/60
f 51/51/12 86/86/87 80/80/13
f 21/21/34 81/81/48 71/71/74
f 21/21/34 26/26/32 81/81/48
f 81/81/48 26/26/32 82/82/49
f 82/82/49 26/26/32 83/83/52
f 83/83/52 26/26/32 9/9/44
f 51/51/12 52/52/76 84/84/46
f 84/84/46 52/52/76 85/85/47
f 52/52/76 53/53/77 85/85/47
f 85/85/47 53/53/77 10/10/88
f 51/51/12 84/84/46 86/86/87
f 86/86/87 84/84/46 15/15/45
f 55/55/7 89/89/89 87/87/79
f 88/88/81 87/87/79 78/78/86
f 78/78/86 87/87/79 89/89/89
f 20/20/72 22/22/70 55/55/7
f 55/55/7 22/22/70 89/89/89
f 78/78/86 89/89/89 22/22/70
f 34/34/67 33/33/57 21/21/34
