# This file uses centimeters as units for non-parametric coordinates.

v -0.209944 0.500000 0.000000
v 0.209448 0.500000 0.000000
v -0.381340 0.398369 0.000000
v 0.275693 -0.387532 0.000000
v 0.184310 -0.501333 0.000000
v -0.161922 -0.501677 0.000000
v -0.256448 -0.419552 0.000000
v -0.247128 -0.237158 0.000000
v -0.178103 -0.171432 0.000000
v -0.289686 -0.145760 0.000000
v -0.349111 -0.017303 0.000000
v 0.258411 -0.220574 0.000000
v 0.167344 -0.157442 0.000000
v 0.358461 -0.100559 0.000000
v 0.349825 0.422284 0.000000
v -0.155542 0.405755 0.000000
v -0.168444 -0.038561 0.000000
vt 0.011066 0.888359
vt 0.061451 0.984583
vt 0.400425 0.990503
vt 0.437304 0.859498
vt 0.478234 0.921922
vt 0.586477 0.933768
vt 0.659800 0.871128
vt 0.660024 0.633796
vt 0.607236 0.569001
vt 0.488986 0.575390
vt 0.446374 0.622704
vt 0.429730 0.546217
vt 0.346448 0.505483
vt 0.076956 0.483391
vt 0.011066 0.600878
vt 0.072168 0.638169
vt 0.360230 0.629325
vn 0.000000 0.000000 1.000000
vn 0.000000 0.000000 1.000000
vn 0.000000 0.000000 1.000000
vn 0.000000 0.000000 1.000000
vn 0.000000 0.000000 1.000000
vn 0.000000 0.000000 1.000000
vn 0.000000 0.000000 1.000000
vn 0.000000 0.000000 1.000000
vn 0.000000 0.000000 1.000000
vn 0.000000 0.000000 1.000000
vn 0.000000 0.000000 1.000000
vn 0.000000 0.000000 1.000000
vn 0.000000 0.000000 1.000000
vn 0.000000 0.000000 1.000000
vn 0.000000 0.000000 1.000000
vn 0.000000 0.000000 1.000000
vn 0.000000 0.000000 1.000000
vn 0.000000 0.000000 1.000000
vn 0.000000 0.000000 1.000000
vn 0.000000 0.000000 1.000000
vn 0.000000 0.000000 1.000000
vn 0.000000 0.000000 1.000000
vn 0.000000 0.000000 1.000000
vn 0.000000 0.000000 1.000000
vn 0.000000 0.000000 1.000000
vn 0.000000 0.000000 1.000000
vn 0.000000 0.000000 1.000000
vn 0.000000 0.000000 1.000000
vn 0.000000 0.000000 1.000000
vn 0.000000 0.000000 1.000000
vn 0.000000 0.000000 1.000000
vn 0.000000 0.000000 1.000000
vn 0.000000 0.000000 1.000000
vn 0.000000 0.000000 1.000000
vn 0.000000 0.000000 1.000000
f 1/15/1 16/16/2 2/1/3
f 2/1/3 16/16/2 15/2/4
f 16/16/5 17/17/6 15/2/7
f 15/2/7 17/17/6 14/3/8
f 16/16/9 1/15/10 3/14/11
f 17/17/12 16/16/13 11/13/14
f 11/13/14 16/16/13 3/14/15
f 9/11/16 13/4/17 17/17/18
f 17/17/18 13/4/17 14/3/19
f 9/11/20 17/17/21 10/12/22
f 10/12/22 17/17/21 11/13/23
f 12/5/24 8/10/25 4/6/26
f 4/6/26 8/10/25 7/9/27
f 12/5/28 13/4/29 8/10/30
f 8/10/30 13/4/29 9/11/31
f 4/6/32 7/9/33 5/7/34
f 5/7/34 7/9/33 6/8/35
