# This file uses centimeters as units for non-parametric coordinates.

v -0.065964 0.134219 0.127214
v 0.044514 0.134911 0.128932
v -0.061695 0.070926 0.113445
v 0.041468 0.071572 0.115049
v -0.056889 0.023737 0.099553
v 0.037688 0.024330 0.101023
v -0.069046 -0.059778 -0.055960
v -0.006161 -0.056579 -0.088458
v -0.085582 -0.066186 0.019002
v -0.043055 -0.069502 0.062416
v 0.026184 -0.069068 0.063492
v 0.069996 -0.065211 0.021421
v 0.055719 -0.058996 -0.054020
v -0.052144 -0.103890 -0.044374
v -0.006195 -0.101552 -0.068119
v -0.064227 -0.108572 0.010400
v -0.033346 -0.112072 0.054955
v 0.017246 -0.111755 0.055742
v 0.049451 -0.107859 0.012167
v 0.039019 -0.103319 -0.042956
v -0.073436 0.172439 -0.040702
v -0.007832 0.175777 -0.074605
v -0.090687 0.165754 0.037501
v -0.046424 0.161721 0.089631
v 0.025809 0.162173 0.090754
v 0.071617 0.166771 0.040024
v 0.056723 0.173254 -0.038678
v -0.104635 0.255056 -0.411798
v 0.000996 0.257921 -0.460618
v -0.132265 0.249933 -0.298839
v -0.061088 0.246410 -0.206801
v 0.055298 0.247139 -0.204992
v 0.129252 0.251572 -0.294773
v 0.105085 0.256371 -0.408537
v -0.018229 0.252937 -0.353681
v 0.014662 0.253829 -0.368883
v -0.026832 0.251342 -0.318508
v -0.004670 0.250245 -0.289850
v 0.031570 0.250472 -0.289287
v 0.054598 0.251852 -0.317242
v 0.047073 0.253347 -0.352666
v -0.018306 0.264024 -0.353197
v 0.014585 0.264916 -0.368399
v -0.026909 0.262429 -0.318024
v -0.004747 0.261331 -0.289366
v 0.031493 0.261559 -0.288803
v 0.054521 0.262939 -0.316758
v 0.046996 0.264433 -0.352182
v -0.020776 0.250022 -0.431849
v 0.010347 0.249257 -0.450409
v -0.025663 0.252284 -0.396007
v -0.000635 0.254339 -0.369872
v 0.035463 0.254641 -0.373124
v 0.055447 0.252961 -0.403316
v 0.044269 0.250565 -0.437711
v -0.020933 0.261095 -0.432570
v 0.010190 0.260330 -0.451130
v -0.025821 0.263357 -0.396727
v -0.000792 0.265412 -0.370592
v 0.035306 0.265714 -0.373845
v 0.055290 0.264034 -0.404036
v 0.044112 0.261638 -0.438431
v -0.014302 0.257317 -0.272770
v 0.020343 0.259764 -0.283136
v -0.027584 0.250936 -0.239655
v -0.009503 0.245427 -0.208729
v 0.026326 0.244937 -0.203279
v 0.052924 0.249836 -0.227409
v 0.050261 0.256435 -0.262949
v -0.014462 0.268225 -0.270732
v 0.020182 0.270672 -0.281099
v -0.027745 0.261844 -0.237618
v -0.009664 0.256334 -0.206692
v 0.026165 0.255845 -0.201242
v 0.052763 0.260744 -0.225372
v 0.050100 0.267343 -0.260912
v -0.100564 0.257317 -0.406550
v -0.065919 0.259764 -0.416916
v -0.113846 0.250936 -0.373435
v -0.095765 0.245426 -0.342509
v -0.059936 0.244937 -0.337059
v -0.033338 0.249836 -0.361190
v -0.036001 0.256435 -0.396729
v -0.100724 0.268224 -0.404512
v -0.066080 0.270672 -0.414879
v -0.114007 0.261843 -0.371398
v -0.095926 0.256334 -0.340472
v -0.060097 0.255844 -0.335022
v -0.033499 0.260743 -0.359152
v -0.036162 0.267342 -0.394692
v -0.049708 0.257317 -0.324860
v -0.023373 0.259764 -0.300077
v -0.085020 0.250936 -0.319758
v -0.102719 0.245426 -0.288611
v -0.089477 0.244937 -0.254876
v -0.055266 0.249836 -0.243954
v -0.025847 0.256435 -0.264070
v -0.051551 0.268225 -0.323979
v -0.025217 0.270672 -0.299195
v -0.086863 0.261844 -0.318876
v -0.104562 0.256334 -0.287730
v -0.091321 0.255845 -0.253994
v -0.057109 0.260744 -0.243072
v -0.027690 0.267343 -0.263189
v 0.088298 0.243658 -0.324495
v 0.121350 0.250735 -0.311411
v 0.056664 0.242979 -0.306816
v 0.050269 0.249209 -0.271688
v 0.073929 0.257657 -0.245562
v 0.109827 0.261962 -0.248113
v 0.130931 0.258881 -0.277418
v 0.086850 0.254443 -0.326671
v 0.119902 0.261520 -0.313588
v 0.055216 0.253764 -0.308992
v 0.048821 0.259994 -0.273864
v 0.072481 0.268442 -0.247739
v 0.108379 0.272747 -0.250289
v 0.129484 0.269666 -0.279595
v 0.088298 0.260238 -0.410702
v 0.121350 0.261662 -0.395896
v 0.056664 0.252728 -0.394683
v 0.050269 0.244787 -0.359902
v 0.073929 0.242395 -0.332549
v 0.109827 0.247353 -0.333222
v 0.130931 0.255928 -0.361414
v 0.086850 0.271020 -0.408507
v 0.119902 0.272444 -0.393700
v 0.055216 0.263510 -0.392488
v 0.048821 0.255569 -0.357706
v 0.072481 0.253176 -0.330353
v 0.108379 0.258134 -0.331026
v 0.129484 0.266709 -0.359218
v 0.050086 0.262184 -0.388294
v 0.083650 0.262091 -0.374616
v 0.018493 0.264164 -0.370639
v 0.012663 0.266539 -0.334945
v 0.036985 0.267521 -0.308090
v 0.073145 0.266371 -0.310297
v 0.093913 0.263954 -0.339904
v 0.050396 0.273256 -0.388980
v 0.083961 0.273163 -0.375302
v 0.018804 0.275236 -0.371325
v 0.012974 0.277611 -0.335631
v 0.037296 0.278593 -0.308776
v 0.073455 0.277442 -0.310983
v 0.094223 0.275026 -0.340590
v -0.096822 0.270646 -0.375121
v -0.063453 0.266438 -0.361611
v -0.128446 0.271331 -0.357426
v -0.134513 0.267976 -0.321850
v -0.110453 0.263109 -0.295183
v -0.074384 0.260394 -0.297505
v -0.053468 0.261875 -0.327069
v -0.095917 0.281642 -0.373930
v -0.062549 0.277434 -0.360420
v -0.127542 0.282327 -0.356235
v -0.133608 0.278972 -0.320659
v -0.109548 0.274105 -0.293992
v -0.073480 0.271390 -0.296314
v -0.052563 0.272871 -0.325878
v 0.055220 0.172099 -0.035612
v 0.025000 0.161266 0.090913
v 0.069780 0.165761 0.041322
v -0.045610 0.160824 0.089815
v -0.088879 0.164767 0.038856
v -0.007885 0.174564 -0.070732
v -0.072015 0.171301 -0.037591
v -0.093692 0.193713 -0.054430
v -0.116333 0.184940 0.048203
v -0.058242 0.179646 0.116619
v 0.036556 0.180240 0.118093
v 0.096676 0.186275 0.051515
v 0.077128 0.194783 -0.051775
v -0.007594 0.198093 -0.098925
v -0.164893 0.086298 0.052269
v -0.006022 0.105515 -0.162689
v -0.131814 0.099115 -0.097681
v 0.126074 0.187353 -0.094320
v 0.062595 0.164598 0.171458
v 0.156659 0.174040 0.067289
v -0.085728 0.163669 0.169152
v -0.176620 0.171952 0.062107
v -0.006483 0.192532 -0.168093
v -0.141195 0.185678 -0.098476
v -0.065964 0.134219 0.127214
v 0.044514 0.134911 0.128932
v -0.061695 0.070926 0.113445
v 0.041468 0.071572 0.115049
v -0.056889 0.023737 0.099553
v 0.037688 0.024330 0.101023
v -0.083200 -0.167415 -0.071355
v -0.005563 -0.163465 -0.111476
v -0.103616 -0.175325 0.021192
v -0.051112 -0.179420 0.074790
v 0.034369 -0.142110 0.076119
v 0.088459 -0.174122 0.024179
v 0.070832 -0.166449 -0.068960
v -0.079997 0.078695 0.150665
v 0.146318 0.088248 0.057108
v 0.058505 0.079562 0.152819
v 0.117758 0.100679 -0.093801
v -0.121078 0.033897 -0.093699
v -0.005756 0.039765 -0.153296
v -0.151405 0.022147 0.043771
v -0.073544 0.015341 0.132015
v 0.133905 0.023935 0.048207
v 0.053430 0.016136 0.133989
v 0.107722 0.035331 -0.090142
v -0.108904 -0.213100 -0.097046
v -0.004672 -0.207797 -0.150911
v -0.136313 -0.223720 0.027203
v -0.065824 -0.229218 0.099162
v 0.121558 -0.222105 0.031213
v 0.048940 -0.191724 0.100946
v 0.097893 -0.211804 -0.093831
v -0.086211 -0.042080 0.020375
v -0.043475 -0.045646 0.066776
v 0.026170 -0.045209 0.067859
v -0.112998 -0.061577 0.026674
v -0.055622 -0.066364 0.088970
v -0.005744 -0.048604 -0.118443
v -0.090666 -0.052924 -0.074557
v 0.097100 -0.060261 0.029941
v 0.077820 -0.051869 -0.071937
v 0.037880 -0.065778 0.090424
v 0.001259 0.299387 -0.494235
v -0.132246 0.295766 -0.432532
v -0.167167 0.289291 -0.289764
v -0.077208 0.284838 -0.173440
v 0.069890 0.285760 -0.171152
v 0.163360 0.291362 -0.284625
v 0.132816 0.297427 -0.428411
v -0.168333 0.251668 -0.464435
v 0.002291 0.256295 -0.543294
v -0.212964 0.243393 -0.281972
v -0.097992 0.237701 -0.133304
v 0.090006 0.238879 -0.130381
v 0.209463 0.246040 -0.275404
v 0.170427 0.253791 -0.459168
v -0.154694 0.191801 -0.456156
v 0.002443 0.196063 -0.528781
v -0.195796 0.184180 -0.288116
v -0.089913 0.178939 -0.151200
v 0.083224 0.180023 -0.148508
v 0.193238 0.186618 -0.282067
v 0.157288 0.193756 -0.451305
v -0.162834 0.139605 -0.465438
v 0.002975 0.144102 -0.542073
v -0.206205 0.131563 -0.288124
v -0.094478 0.126032 -0.143652
v 0.088214 0.127177 -0.140811
v 0.204301 0.134135 -0.281742
v 0.166366 0.141667 -0.460320
v -0.200092 0.041804 -0.500957
v 0.004412 0.047350 -0.595475
v -0.253585 0.031885 -0.282264
v -0.115784 0.025064 -0.104076
v 0.109543 0.026476 -0.100573
v 0.252720 0.035058 -0.274392
v 0.205933 0.044348 -0.494644
v -0.134139 -0.155280 -0.456362
v 0.004491 -0.151520 -0.520434
v -0.170401 -0.162004 -0.308113
v -0.076988 -0.166628 -0.187322
v 0.075758 -0.165671 -0.184947
v 0.172816 -0.159853 -0.302776
v 0.141099 -0.153556 -0.452082
v -0.078679 -0.198183 -0.412796
v 0.003688 -0.195949 -0.450864
v -0.100223 -0.202177 -0.324715
v -0.044722 -0.204925 -0.252948
v 0.046031 -0.204356 -0.251536
v 0.103697 -0.200900 -0.321544
v 0.084853 -0.197158 -0.410253
v -0.104635 0.255056 -0.411798
v 0.000996 0.257921 -0.460618
v -0.132265 0.249933 -0.298839
v -0.061088 0.246410 -0.206801
v 0.055298 0.247139 -0.204992
v 0.129252 0.251572 -0.294773
v 0.105085 0.256371 -0.408537
vt 0.810368 0.601079
vt 0.818010 0.602585
vt 0.817061 0.618914
vt 0.806586 0.616849
vt 0.814695 0.646100
vt 0.804163 0.643809
vt 0.905993 0.563892
vt 0.904498 0.549426
vt 0.912418 0.549359
vt 0.911934 0.563357
vt 0.817025 0.681068
vt 0.803591 0.675799
vt 0.890462 0.979575
vt 0.877232 0.986693
vt 0.864002 0.979575
vt 0.860735 0.963582
vt 0.869890 0.950755
vt 0.884574 0.950755
vt 0.893729 0.963582
vt 0.610124 0.417221
vt 0.610158 0.410931
vt 0.614995 0.410389
vt 0.614961 0.416680
vt 0.836963 0.696149
vt 0.833163 0.704494
vt 0.814602 0.698132
vt 0.939062 0.701198
vt 0.939062 0.707948
vt 0.934035 0.707776
vt 0.934035 0.701027
vt 0.905993 0.535375
vt 0.911934 0.535809
vt 0.803628 0.693075
vt 0.848975 0.702361
vt 0.845936 0.707347
vt 0.887143 0.402902
vt 0.881878 0.380130
vt 0.894414 0.356613
vt 0.917650 0.356613
vt 0.930186 0.380130
vt 0.924920 0.402902
vt 0.906032 0.412751
vt 0.899688 0.344352
vt 0.912376 0.344352
vt 0.139987 0.994341
vt 0.123531 0.994948
vt 0.123531 0.995922
vt 0.139987 0.996530
vt 0.160507 0.996313
vt 0.169639 0.995436
vt 0.160507 0.994558
vt 0.128875 0.962416
vt 0.122359 0.974419
vt 0.134813 0.983990
vt 0.156406 0.984572
vt 0.172101 0.975812
vt 0.170052 0.963624
vt 0.150542 0.957382
vt 0.128931 0.966980
vt 0.150779 0.961972
vt 0.170447 0.968173
vt 0.172502 0.980285
vt 0.156673 0.988990
vt 0.134906 0.988415
vt 0.122355 0.978911
vt 0.472469 0.638248
vt 0.498526 0.624276
vt 0.504393 0.633771
vt 0.479871 0.645714
vt 0.207761 0.260155
vt 0.201162 0.264897
vt 0.193980 0.254883
vt 0.198410 0.251091
vt 0.561007 0.678813
vt 0.550685 0.706519
vt 0.542287 0.700195
vt 0.550806 0.674284
vt 0.321781 0.487074
vt 0.315269 0.482213
vt 0.324779 0.473320
vt 0.329140 0.477192
vt 0.511904 0.732610
vt 0.510690 0.722914
vt 0.509052 0.712380
vt 0.533051 0.695886
vt 0.541296 0.677230
vt 0.502759 0.643592
vt 0.485388 0.654283
vt 0.472288 0.680290
vt 0.461630 0.680091
vt 0.482125 0.706125
vt 0.474704 0.714627
vt 0.263106 0.577070
vt 0.281223 0.575551
vt 0.278756 0.607193
vt 0.266790 0.608831
vt 0.572036 0.063905
vt 0.540662 0.065478
vt 0.537354 0.024848
vt 0.564100 0.028807
vt 0.154141 0.542468
vt 0.180319 0.542925
vt 0.176306 0.579165
vt 0.154519 0.584058
vt 0.510479 0.063905
vt 0.512414 0.028807
vt 0.571446 0.492540
vt 0.550719 0.492540
vt 0.554839 0.458012
vt 0.568755 0.458012
vt 0.572228 0.567388
vt 0.546933 0.567388
vt 0.547951 0.534205
vt 0.572396 0.534205
vt 0.121401 0.469186
vt 0.157650 0.468133
vt 0.156204 0.500647
vt 0.123338 0.501850
vt 0.261411 0.504079
vt 0.284445 0.504093
vt 0.283380 0.536488
vt 0.261459 0.536906
vt 0.582779 0.137791
vt 0.543332 0.140405
vt 0.542304 0.107656
vt 0.578381 0.104956
vt 0.190597 0.469236
vt 0.186111 0.501887
vt 0.126214 0.542905
vt 0.131305 0.579157
vt 0.544423 0.164403
vt 0.510317 0.160015
vt 0.505652 0.137791
vt 0.568517 0.588629
vt 0.550069 0.588629
vt 0.125601 0.447132
vt 0.157906 0.443788
vt 0.264729 0.482958
vt 0.281605 0.482964
vt 0.579503 0.160015
vt 0.187873 0.447181
vt 0.507868 0.104956
vt 0.558142 0.928849
vt 0.556175 0.902612
vt 0.569608 0.902632
vt 0.567696 0.928871
vt 0.558054 0.882514
vt 0.568648 0.882523
vt 0.200994 0.316826
vt 0.204067 0.288427
vt 0.206285 0.285438
vt 0.205588 0.317030
vt 0.964733 0.157669
vt 0.965369 0.167403
vt 0.960885 0.171035
vt 0.960248 0.161302
vt 0.318456 0.510547
vt 0.321108 0.538557
vt 0.314187 0.538635
vt 0.311256 0.507427
vt 0.053247 0.774197
vt 0.054088 0.798160
vt 0.045689 0.798410
vt 0.046948 0.773605
vt 0.323716 0.571631
vt 0.319730 0.597157
vt 0.315518 0.600121
vt 0.317582 0.574525
vt 0.053247 0.821407
vt 0.046948 0.822375
vt 0.467967 0.722345
vt 0.198390 0.353156
vt 0.207914 0.317030
vt 0.204472 0.356161
vt 0.451859 0.680198
vt 0.867541 0.213050
vt 0.866698 0.189806
vt 0.875092 0.190061
vt 0.873837 0.214021
vt 0.205436 0.260155
vt 0.867541 0.165839
vt 0.873837 0.165251
vt 0.202974 0.384591
vt 0.207132 0.387632
vt 0.231161 0.272762
vt 0.231488 0.302428
vt 0.225200 0.302557
vt 0.226445 0.273620
vt 0.516811 0.416555
vt 0.476671 0.412898
vt 0.469722 0.396351
vt 0.516166 0.399248
vt 0.051950 0.282045
vt 0.025266 0.337463
vt 0.018162 0.337390
vt 0.047464 0.276537
vt 0.051927 0.392787
vt 0.113441 0.406187
vt 0.113280 0.413169
vt 0.047464 0.398237
vt 0.159516 0.367972
vt 0.160659 0.308121
vt 0.166017 0.303641
vt 0.166018 0.371102
vt 0.111825 0.268388
vt 0.113303 0.261500
vt 0.457847 0.456158
vt 0.491304 0.456158
vt 0.493480 0.484815
vt 0.456466 0.484815
vt 0.412381 0.286732
vt 0.416802 0.322503
vt 0.398841 0.320876
vt 0.395699 0.282079
vt 0.416802 0.384003
vt 0.412381 0.422494
vt 0.395699 0.427681
vt 0.398841 0.385370
vt 0.559319 0.412898
vt 0.566142 0.396351
vt 0.463031 0.440447
vt 0.486089 0.440447
vt 0.061801 0.598518
vt 0.038707 0.598518
vt 0.033485 0.582816
vt 0.066995 0.582816
vt 0.371129 0.386915
vt 0.366964 0.431718
vt 0.321971 0.433380
vt 0.325223 0.388004
vt 0.371129 0.318575
vt 0.031539 0.554314
vt 0.068611 0.554314
vt 0.464896 0.368698
vt 0.514354 0.372591
vt 0.366964 0.277612
vt 0.567844 0.368698
vt 0.511849 0.328100
vt 0.462156 0.325145
vt 0.471048 0.281355
vt 0.512172 0.276529
vt 0.565884 0.325145
vt 0.493146 0.529953
vt 0.457691 0.529953
vt 0.325223 0.316511
vt 0.032127 0.509353
vt 0.067638 0.509353
vt 0.321971 0.275092
vt 0.603457 0.685159
vt 0.603457 0.640150
vt 0.629130 0.641445
vt 0.629130 0.678457
vt 0.272942 0.322789
vt 0.278526 0.286236
vt 0.278526 0.421961
vt 0.272942 0.382692
vt 0.587192 0.339097
vt 0.511849 0.342052
vt 0.512172 0.263957
vt 0.577166 0.268782
vt 0.487536 0.571874
vt 0.462747 0.571874
vt 0.079297 0.523305
vt 0.021663 0.523305
vt 0.027088 0.451838
vt 0.074039 0.451838
vt 0.652940 0.704220
vt 0.624003 0.681143
vt 0.624003 0.644131
vt 0.652940 0.621054
vt 0.689024 0.629291
vt 0.705083 0.662637
vt 0.689024 0.695984
vt 0.650853 0.612088
vt 0.694732 0.622104
vt 0.714261 0.662655
vt 0.694732 0.703207
vt 0.641010 0.728601
vt 0.605821 0.700539
vt 0.658067 0.701534
vt 0.615664 0.640150
vt 0.650853 0.713221
vt 0.595174 0.219085
vt 0.595174 0.205649
vt 0.599243 0.207116
vt 0.599243 0.220551
vt 0.151071 0.363906
vt 0.160019 0.327367
vt 0.231161 0.332325
vt 0.226445 0.331660
vt 0.490239 0.218078
vt 0.490239 0.203791
vt 0.493792 0.203035
vt 0.493792 0.217322
vt 0.128087 0.393686
vt 0.419428 0.704340
vt 0.419428 0.717770
vt 0.415364 0.719243
vt 0.415364 0.705813
vt 0.128875 0.962416
vt 0.122359 0.974419
vt 0.134813 0.983990
vt 0.156406 0.984572
vt 0.172101 0.975812
vt 0.170052 0.963624
vt 0.150542 0.957382
vt 0.128931 0.966980
vt 0.150779 0.961972
vt 0.170447 0.968173
vt 0.172502 0.980285
vt 0.156673 0.988990
vt 0.134906 0.988415
vt 0.122355 0.978911
vt 0.128875 0.962416
vt 0.122359 0.974419
vt 0.134813 0.983990
vt 0.156406 0.984572
vt 0.172101 0.975812
vt 0.170052 0.963624
vt 0.150542 0.957382
vt 0.128931 0.966980
vt 0.150779 0.961972
vt 0.170447 0.968173
vt 0.172502 0.980285
vt 0.156673 0.988990
vt 0.134906 0.988415
vt 0.122355 0.978911
vt 0.128875 0.962416
vt 0.122359 0.974419
vt 0.134813 0.983990
vt 0.156406 0.984572
vt 0.172101 0.975812
vt 0.170052 0.963624
vt 0.150542 0.957382
vt 0.128931 0.966980
vt 0.150779 0.961972
vt 0.170447 0.968173
vt 0.172502 0.980285
vt 0.156673 0.988990
vt 0.134906 0.988415
vt 0.122355 0.978911
vt 0.128875 0.962416
vt 0.122359 0.974419
vt 0.134813 0.983990
vt 0.156406 0.984572
vt 0.172101 0.975812
vt 0.170052 0.963624
vt 0.150542 0.957382
vt 0.128931 0.966980
vt 0.150779 0.961972
vt 0.170447 0.968173
vt 0.172502 0.980285
vt 0.156673 0.988990
vt 0.134906 0.988415
vt 0.122355 0.978911
vt 0.128875 0.962416
vt 0.122359 0.974419
vt 0.134813 0.983990
vt 0.156406 0.984572
vt 0.172101 0.975812
vt 0.170052 0.963624
vt 0.150542 0.957382
vt 0.128931 0.966980
vt 0.150779 0.961972
vt 0.170447 0.968173
vt 0.172502 0.980285
vt 0.156673 0.988990
vt 0.134906 0.988415
vt 0.122355 0.978911
vt 0.128875 0.962416
vt 0.122359 0.974419
vt 0.134813 0.983990
vt 0.156406 0.984572
vt 0.172101 0.975812
vt 0.170052 0.963624
vt 0.150542 0.957382
vt 0.128931 0.966980
vt 0.150779 0.961972
vt 0.170447 0.968173
vt 0.172502 0.980285
vt 0.156673 0.988990
vt 0.134906 0.988415
vt 0.122355 0.978911
vt 0.128875 0.962416
vt 0.122359 0.974419
vt 0.134813 0.983990
vt 0.156406 0.984572
vt 0.172101 0.975812
vt 0.170052 0.963624
vt 0.150542 0.957382
vt 0.128931 0.966980
vt 0.150779 0.961972
vt 0.170447 0.968173
vt 0.172502 0.980285
vt 0.156673 0.988990
vt 0.134906 0.988415
vt 0.122355 0.978911
vt 0.128875 0.962416
vt 0.122359 0.974419
vt 0.134813 0.983990
vt 0.156406 0.984572
vt 0.172101 0.975812
vt 0.170052 0.963624
vt 0.150542 0.957382
vt 0.128931 0.966980
vt 0.150779 0.961972
vt 0.170447 0.968173
vt 0.172502 0.980285
vt 0.156673 0.988990
vt 0.134906 0.988415
vt 0.122355 0.978911
vn -0.016700 0.280595 0.959681
vn -0.016700 0.280595 0.959681
vn -0.013500 -0.247099 0.968896
vn -0.013500 -0.247099 0.968896
vn -0.013500 -0.247099 0.968896
vn -0.013500 -0.247099 0.968896
vn -0.012700 -0.324889 0.945667
vn -0.012700 -0.324889 0.945667
vn 0.016700 -0.412012 -0.911026
vn 0.718343 -0.410824 -0.561433
vn 0.015099 -0.741965 -0.670269
vn 0.505094 -0.757290 -0.413995
vn -0.012700 -0.324889 0.945667
vn -0.012700 -0.324889 0.945667
vn 0.263489 -0.340786 0.902463
vn -0.287106 -0.344207 0.893919
vn -0.482507 -0.763411 -0.429406
vn 0.015099 -0.741965 -0.670269
vn -0.605594 -0.791092 0.086199
vn 0.505094 -0.757290 -0.413995
vn 0.612525 -0.783432 0.105104
vn 0.263594 -0.748182 0.608886
vn -0.273016 -0.751545 0.600536
vn 0.885181 -0.414091 0.212095
vn 0.263489 -0.340786 0.902463
vn 0.612525 -0.783432 0.105104
vn 0.263594 -0.748182 0.608886
vn -0.886096 -0.425198 0.184499
vn -0.605594 -0.791092 0.086199
vn -0.287106 -0.344207 0.893919
vn -0.273016 -0.751545 0.600536
vn 0.016700 -0.412012 -0.911026
vn 0.015099 -0.741965 -0.670269
vn -0.695319 -0.419711 -0.583416
vn -0.482507 -0.763411 -0.429406
vn 0.718343 -0.410824 -0.561433
vn 0.885181 -0.414091 0.212095
vn 0.505094 -0.757290 -0.413995
vn 0.612525 -0.783432 0.105104
vn 0.263489 -0.340786 0.902463
vn -0.287106 -0.344207 0.893919
vn 0.263594 -0.748182 0.608886
vn -0.273016 -0.751545 0.600536
vn -0.695319 -0.419711 -0.583416
vn -0.482507 -0.763411 -0.429406
vn -0.886096 -0.425198 0.184499
vn -0.605594 -0.791092 0.086199
vn -0.007500 0.996480 0.083498
vn -0.007500 0.996480 0.083498
vn -0.007500 0.996480 0.083498
vn -0.007500 0.996480 0.083498
vn -0.007500 0.996480 0.083498
vn -0.011000 0.944965 0.326988
vn -0.011000 0.944965 0.326988
vn -0.016700 0.280595 0.959681
vn -0.016700 0.280595 0.959681
vn -0.011000 0.944965 0.326988
vn -0.011000 0.944965 0.326988
vn -0.006900 0.999025 0.043601
vn -0.006900 0.999025 0.043601
vn -0.006900 0.999025 0.043601
vn -0.006900 0.999025 0.043601
vn -0.006900 0.999025 0.043601
vn -0.006900 0.999025 0.043601
vn -0.006900 0.999025 0.043601
vn -0.600800 -0.603100 -0.524700
vn 0.016299 -0.586380 -0.809872
vn -0.762183 -0.633086 0.135197
vn 0.624337 -0.595435 -0.505630
vn 0.765491 -0.623493 0.158998
vn 0.333504 -0.649407 0.683407
vn -0.346403 -0.653606 0.672907
vn -0.609388 0.638188 -0.470491
vn -0.770834 0.608227 0.189408
vn 0.007600 0.654889 -0.755687
vn -0.355005 0.587608 0.727110
vn 0.324907 0.591912 0.737615
vn 0.756889 0.617791 0.213197
vn 0.615729 0.645830 -0.451421
vn -0.346403 -0.653606 0.672907
vn 0.333504 -0.649407 0.683407
vn -0.355005 0.587608 0.727110
vn 0.324907 0.591912 0.737615
vn -0.600800 -0.603100 -0.524700
vn -0.762183 -0.633086 0.135197
vn -0.609388 0.638188 -0.470491
vn -0.770834 0.608227 0.189408
vn 0.624337 -0.595435 -0.505630
vn 0.016299 -0.586380 -0.809872
vn 0.615729 0.645830 -0.451421
vn 0.007600 0.654889 -0.755687
vn 0.333504 -0.649407 0.683407
vn 0.765491 -0.623493 0.158998
vn 0.324907 0.591912 0.737615
vn 0.756889 0.617791 0.213197
vn -0.762183 -0.633086 0.135197
vn -0.346403 -0.653606 0.672907
vn -0.770834 0.608227 0.189408
vn -0.355005 0.587608 0.727110
vn 0.016299 -0.586380 -0.809872
vn -0.600800 -0.603100 -0.524700
vn 0.007600 0.654889 -0.755687
vn -0.609388 0.638188 -0.470491
vn 0.765491 -0.623493 0.158998
vn 0.624337 -0.595435 -0.505630
vn 0.756889 0.617791 0.213197
vn 0.615729 0.645830 -0.451421
vn -0.644796 -0.657196 -0.390298
vn -0.060900 -0.671499 -0.738499
vn -0.736528 -0.614723 0.282211
vn 0.575497 -0.646997 -0.500198
vn 0.785201 -0.602001 0.145100
vn 0.410290 -0.570486 0.711483
vn -0.266993 -0.576185 0.772480
vn -0.662475 0.582578 -0.470882
vn -0.754140 0.625033 0.201511
vn -0.078602 0.568213 -0.819119
vn -0.284588 0.663571 0.691870
vn 0.392625 0.669243 0.630840
vn 0.767593 0.637694 0.064399
vn 0.557870 0.592768 -0.580868
vn -0.266993 -0.576185 0.772480
vn 0.410290 -0.570486 0.711483
vn -0.284588 0.663571 0.691870
vn 0.392625 0.669243 0.630840
vn -0.644796 -0.657196 -0.390298
vn -0.736528 -0.614723 0.282211
vn -0.662475 0.582578 -0.470882
vn -0.754140 0.625033 0.201511
vn 0.575497 -0.646997 -0.500198
vn -0.060900 -0.671499 -0.738499
vn 0.557870 0.592768 -0.580868
vn -0.078602 0.568213 -0.819119
vn 0.410290 -0.570486 0.711483
vn 0.785201 -0.602001 0.145100
vn 0.392625 0.669243 0.630840
vn 0.767593 0.637694 0.064399
vn -0.736528 -0.614723 0.282211
vn -0.266993 -0.576185 0.772480
vn -0.754140 0.625033 0.201511
vn -0.284588 0.663571 0.691870
vn -0.060900 -0.671499 -0.738499
vn -0.644796 -0.657196 -0.390298
vn -0.078602 0.568213 -0.819119
vn -0.662475 0.582578 -0.470882
vn 0.785201 -0.602001 0.145100
vn 0.575497 -0.646997 -0.500198
vn 0.767593 0.637694 0.064399
vn 0.557870 0.592768 -0.580868
vn -0.523204 -0.512604 -0.680805
vn 0.126798 -0.466691 -0.875284
vn -0.772421 -0.632317 -0.059502
vn 0.688050 -0.529161 -0.496564
vn 0.737992 -0.652993 0.170198
vn 0.239000 -0.744899 0.622900
vn -0.433190 -0.735683 0.520688
vn -0.541214 0.708618 -0.452712
vn -0.790415 0.588911 0.168603
vn 0.108703 0.754517 -0.647215
vn -0.451202 0.485502 0.748803
vn 0.221000 0.476400 0.851000
vn 0.719997 0.568298 0.398298
vn 0.670020 0.692120 -0.268408
vn -0.433190 -0.735683 0.520688
vn 0.239000 -0.744899 0.622900
vn -0.451202 0.485502 0.748803
vn 0.221000 0.476400 0.851000
vn -0.523204 -0.512604 -0.680805
vn -0.772421 -0.632317 -0.059502
vn -0.541214 0.708618 -0.452712
vn -0.790415 0.588911 0.168603
vn 0.688050 -0.529161 -0.496564
vn 0.126798 -0.466691 -0.875284
vn 0.670020 0.692120 -0.268408
vn 0.108703 0.754517 -0.647215
vn 0.239000 -0.744899 0.622900
vn 0.737992 -0.652993 0.170198
vn 0.221000 0.476400 0.851000
vn 0.719997 0.568298 0.398298
vn -0.772421 -0.632317 -0.059502
vn -0.433190 -0.735683 0.520688
vn -0.790415 0.588911 0.168603
vn -0.451202 0.485502 0.748803
vn 0.126798 -0.466691 -0.875284
vn -0.523204 -0.512604 -0.680805
vn 0.108703 0.754517 -0.647215
vn -0.541214 0.708618 -0.452712
vn 0.737992 -0.652993 0.170198
vn 0.688050 -0.529161 -0.496564
vn 0.719997 0.568298 0.398298
vn 0.670020 0.692120 -0.268408
vn -0.523204 -0.512604 -0.680805
vn 0.126798 -0.466691 -0.875284
vn -0.772421 -0.632317 -0.059502
vn 0.688050 -0.529161 -0.496564
vn 0.737992 -0.652993 0.170198
vn 0.239000 -0.744899 0.622900
vn -0.433190 -0.735683 0.520688
vn -0.541214 0.708618 -0.452712
vn -0.790415 0.588911 0.168603
vn 0.108801 0.754509 -0.647208
vn -0.451202 0.485502 0.748803
vn 0.221000 0.476400 0.851000
vn 0.719997 0.568298 0.398298
vn 0.670020 0.692120 -0.268408
vn -0.433190 -0.735683 0.520688
vn 0.239000 -0.744899 0.622900
vn -0.451202 0.485502 0.748803
vn 0.221000 0.476400 0.851000
vn -0.523204 -0.512604 -0.680805
vn -0.772421 -0.632317 -0.059502
vn -0.541214 0.708618 -0.452712
vn -0.790415 0.588911 0.168603
vn 0.688050 -0.529161 -0.496564
vn 0.126798 -0.466691 -0.875284
vn 0.670020 0.692120 -0.268408
vn 0.108801 0.754509 -0.647208
vn 0.239000 -0.744899 0.622900
vn 0.737992 -0.652993 0.170198
vn 0.221000 0.476400 0.851000
vn 0.719997 0.568298 0.398298
vn -0.772421 -0.632317 -0.059502
vn -0.433190 -0.735683 0.520688
vn -0.790415 0.588911 0.168603
vn -0.451202 0.485502 0.748803
vn 0.126798 -0.466691 -0.875284
vn -0.523204 -0.512604 -0.680805
vn 0.108801 0.754509 -0.647208
vn -0.541214 0.708618 -0.452712
vn 0.737992 -0.652993 0.170198
vn 0.688050 -0.529161 -0.496564
vn 0.719997 0.568298 0.398298
vn 0.670020 0.692120 -0.268408
vn 0.326890 -0.512585 -0.793977
vn 0.820930 -0.466717 -0.329012
vn -0.335614 -0.632327 -0.698230
vn 0.774513 -0.529209 0.346506
vn 0.222601 -0.653003 0.723903
vn -0.419207 -0.744913 0.519009
vn -0.667683 -0.735681 -0.113897
vn 0.120504 0.708622 -0.695222
vn -0.542009 0.588910 -0.599510
vn 0.614525 0.754531 -0.230309
vn -0.874103 0.485502 -0.015200
vn -0.625597 0.476398 0.617797
vn 0.016199 0.568282 0.822674
vn 0.568091 0.692089 0.445293
vn -0.667683 -0.735681 -0.113897
vn -0.419207 -0.744913 0.519009
vn -0.874103 0.485502 -0.015200
vn -0.625597 0.476398 0.617797
vn 0.326890 -0.512585 -0.793977
vn -0.335614 -0.632327 -0.698230
vn 0.120504 0.708622 -0.695222
vn -0.542009 0.588910 -0.599510
vn 0.774513 -0.529209 0.346506
vn 0.820930 -0.466717 -0.329012
vn 0.568091 0.692089 0.445293
vn 0.614525 0.754531 -0.230309
vn -0.419207 -0.744913 0.519009
vn 0.222601 -0.653003 0.723903
vn -0.625597 0.476398 0.617797
vn 0.016199 0.568282 0.822674
vn -0.335614 -0.632327 -0.698230
vn -0.667683 -0.735681 -0.113897
vn -0.542009 0.588910 -0.599510
vn -0.874103 0.485502 -0.015200
vn 0.820930 -0.466717 -0.329012
vn 0.326890 -0.512585 -0.793977
vn 0.614525 0.754531 -0.230309
vn 0.120504 0.708622 -0.695222
vn 0.222601 -0.653003 0.723903
vn 0.774513 -0.529209 0.346506
vn 0.016199 0.568282 0.822674
vn 0.568091 0.692089 0.445293
vn 0.045698 -0.763173 -0.644577
vn 0.665808 -0.630408 -0.399105
vn -0.547797 -0.775895 -0.312898
vn 0.845570 -0.477583 0.238592
vn 0.449612 -0.419811 0.788421
vn -0.223897 -0.500493 0.836288
vn -0.667737 -0.659036 0.346119
vn -0.116393 0.444374 -0.888248
vn -0.709886 0.431591 -0.556589
vn 0.503713 0.577114 -0.642816
vn -0.829830 0.548520 0.102504
vn -0.385996 0.706993 0.592594
vn 0.287487 0.787764 0.544775
vn 0.683466 0.729964 -0.005100
vn -0.667737 -0.659036 0.346119
vn -0.223897 -0.500493 0.836288
vn -0.829830 0.548520 0.102504
vn -0.385996 0.706993 0.592594
vn 0.045698 -0.763173 -0.644577
vn -0.547797 -0.775895 -0.312898
vn -0.116393 0.444374 -0.888248
vn -0.709886 0.431591 -0.556589
vn 0.845570 -0.477583 0.238592
vn 0.665808 -0.630408 -0.399105
vn 0.683466 0.729964 -0.005100
vn 0.503713 0.577114 -0.642816
vn -0.223897 -0.500493 0.836288
vn 0.449612 -0.419811 0.788421
vn -0.385996 0.706993 0.592594
vn 0.287487 0.787764 0.544775
vn -0.547797 -0.775895 -0.312898
vn -0.667737 -0.659036 0.346119
vn -0.709886 0.431591 -0.556589
vn -0.829830 0.548520 0.102504
vn 0.665808 -0.630408 -0.399105
vn 0.045698 -0.763173 -0.644577
vn 0.503713 0.577114 -0.642816
vn -0.116393 0.444374 -0.888248
vn 0.449612 -0.419811 0.788421
vn 0.845570 -0.477583 0.238592
vn 0.287487 0.787764 0.544775
vn 0.683466 0.729964 -0.005100
vn 0.045700 -0.451899 -0.890898
vn 0.665808 -0.425205 -0.613107
vn -0.547781 -0.592780 -0.590380
vn 0.845576 -0.532785 0.033799
vn 0.449602 -0.693703 0.562702
vn -0.223887 -0.786655 0.575367
vn -0.667714 -0.741815 0.062201
vn -0.116398 0.755189 -0.645090
vn -0.709875 0.614278 -0.344588
vn 0.503702 0.781904 -0.367302
vn -0.829827 0.465315 0.308010
vn -0.386012 0.420413 0.821126
vn 0.287513 0.513424 0.808537
vn 0.683490 0.674290 0.279596
vn -0.667714 -0.741815 0.062201
vn -0.223887 -0.786655 0.575367
vn -0.829827 0.465315 0.308010
vn -0.386012 0.420413 0.821126
vn 0.045700 -0.451899 -0.890898
vn -0.547781 -0.592780 -0.590380
vn -0.116398 0.755189 -0.645090
vn -0.709875 0.614278 -0.344588
vn 0.845576 -0.532785 0.033799
vn 0.665808 -0.425205 -0.613107
vn 0.683490 0.674290 0.279596
vn 0.503702 0.781904 -0.367302
vn -0.223887 -0.786655 0.575367
vn 0.449602 -0.693703 0.562702
vn -0.386012 0.420413 0.821126
vn 0.287513 0.513424 0.808537
vn -0.547781 -0.592780 -0.590380
vn -0.667714 -0.741815 0.062201
vn -0.709875 0.614278 -0.344588
vn -0.829827 0.465315 0.308010
vn 0.665808 -0.425205 -0.613107
vn 0.045700 -0.451899 -0.890898
vn 0.503702 0.781904 -0.367302
vn -0.116398 0.755189 -0.645090
vn 0.449602 -0.693703 0.562702
vn 0.845576 -0.532785 0.033799
vn 0.287513 0.513424 0.808537
vn 0.683490 0.674290 0.279596
vn -0.066498 -0.666782 -0.742280
vn 0.563192 -0.668591 -0.485593
vn -0.659204 -0.629704 -0.411003
vn 0.755717 -0.633614 0.165604
vn 0.366080 -0.588267 0.721060
vn -0.312287 -0.566676 0.762467
vn -0.768615 -0.585111 0.258605
vn -0.031799 0.572790 -0.819085
vn -0.624485 0.609985 -0.487788
vn 0.597920 0.571119 -0.562419
vn -0.733843 0.654538 0.181811
vn -0.277521 0.672951 0.685652
vn 0.400893 0.651388 0.644188
vn 0.790495 0.605996 0.088799
vn -0.768615 -0.585111 0.258605
vn -0.312287 -0.566676 0.762467
vn -0.733843 0.654538 0.181811
vn -0.277521 0.672951 0.685652
vn -0.066498 -0.666782 -0.742280
vn -0.659204 -0.629704 -0.411003
vn -0.031799 0.572790 -0.819085
vn -0.624485 0.609985 -0.487788
vn 0.755717 -0.633614 0.165604
vn 0.563192 -0.668591 -0.485593
vn 0.790495 0.605996 0.088799
vn 0.597920 0.571119 -0.562419
vn -0.312287 -0.566676 0.762467
vn 0.366080 -0.588267 0.721060
vn -0.277521 0.672951 0.685652
vn 0.400893 0.651388 0.644188
vn -0.659204 -0.629704 -0.411003
vn -0.768615 -0.585111 0.258605
vn -0.624485 0.609985 -0.487788
vn -0.733843 0.654538 0.181811
vn 0.563192 -0.668591 -0.485593
vn -0.066498 -0.666782 -0.742280
vn 0.597920 0.571119 -0.562419
vn -0.031799 0.572790 -0.819085
vn 0.366080 -0.588267 0.721060
vn 0.755717 -0.633614 0.165604
vn 0.400893 0.651388 0.644188
vn 0.790495 0.605996 0.088799
vn -0.094103 -0.527818 -0.844128
vn 0.531919 -0.606722 -0.590721
vn -0.687368 -0.514976 -0.512176
vn 0.719312 -0.692312 0.057401
vn 0.326908 -0.720117 0.612015
vn -0.349800 -0.669200 0.655600
vn -0.801197 -0.577898 0.155299
vn 0.007200 0.703379 -0.710779
vn -0.586116 0.716220 -0.378810
vn 0.633219 0.624418 -0.457314
vn -0.699917 0.653316 0.288607
vn -0.248599 0.561997 0.788896
vn 0.428097 0.510997 0.745396
vn 0.820544 0.538829 0.190710
vn -0.801197 -0.577898 0.155299
vn -0.349800 -0.669200 0.655600
vn -0.699917 0.653316 0.288607
vn -0.248599 0.561997 0.788896
vn -0.094103 -0.527818 -0.844128
vn -0.687368 -0.514976 -0.512176
vn 0.007200 0.703379 -0.710779
vn -0.586116 0.716220 -0.378810
vn 0.719312 -0.692312 0.057401
vn 0.531919 -0.606722 -0.590721
vn 0.820544 0.538829 0.190710
vn 0.633219 0.624418 -0.457314
vn -0.349800 -0.669200 0.655600
vn 0.326908 -0.720117 0.612015
vn -0.248599 0.561997 0.788896
vn 0.428097 0.510997 0.745396
vn -0.687368 -0.514976 -0.512176
vn -0.801197 -0.577898 0.155299
vn -0.586116 0.716220 -0.378810
vn -0.699917 0.653316 0.288607
vn 0.531919 -0.606722 -0.590721
vn -0.094103 -0.527818 -0.844128
vn 0.633219 0.624418 -0.457314
vn 0.007200 0.703379 -0.710779
vn 0.326908 -0.720117 0.612015
vn 0.719312 -0.692312 0.057401
vn 0.428097 0.510997 0.745396
vn 0.820544 0.538829 0.190710
vn -0.838712 0.484107 0.249404
vn 0.054001 0.383110 0.922123
vn 0.101700 0.993299 0.054900
vn 0.618772 0.737167 0.271488
vn 0.054001 0.383110 0.922123
vn 0.892388 -0.041099 0.449394
vn 0.618772 0.737167 0.271488
vn 0.788718 0.612014 -0.058001
vn 0.824378 0.494587 0.275293
vn -0.115804 0.991936 0.051502
vn -0.087502 0.382210 0.919923
vn -0.636114 0.729316 0.251906
vn -0.087502 0.382210 0.919923
vn -0.636114 0.729316 0.251906
vn -0.905311 -0.052401 0.421505
vn -0.794153 0.602065 -0.082695
vn 0.689896 0.559297 -0.459598
vn -0.101404 0.982137 0.158506
vn 0.824378 0.494587 0.275293
vn -0.115804 0.991936 0.051502
vn -0.582812 0.807817 -0.088102
vn -0.115804 0.991936 0.051502
vn -0.496509 0.767914 0.404707
vn -0.101404 0.982137 0.158506
vn -0.794153 0.602065 -0.082695
vn -0.636114 0.729316 0.251906
vn -0.582812 0.807817 -0.088102
vn -0.115804 0.991936 0.051502
vn 0.788718 0.612014 -0.058001
vn 0.575088 0.815083 -0.070099
vn 0.618772 0.737167 0.271488
vn 0.101700 0.993299 0.054900
vn 0.575088 0.815083 -0.070099
vn 0.474081 0.773970 0.419784
vn 0.101700 0.993299 0.054900
vn 0.084100 0.983299 0.161400
vn 0.474081 0.773970 0.419784
vn -0.014800 0.767719 0.640616
vn 0.084100 0.983299 0.161400
vn -0.009100 0.982299 0.187100
vn -0.496509 0.767914 0.404707
vn -0.101404 0.982137 0.158506
vn -0.014800 0.767719 0.640616
vn -0.009100 0.982299 0.187100
vn -0.267406 -0.182104 0.946220
vn -0.274206 -0.687216 0.672715
vn 0.951215 -0.164203 0.261204
vn 0.479577 -0.848060 0.225389
vn 0.016500 -0.103697 -0.994472
vn 0.801897 -0.112900 -0.586698
vn 0.013300 -0.768596 -0.639596
vn 0.466274 -0.802355 -0.372579
vn -0.781817 -0.120703 -0.611713
vn -0.446695 -0.807090 -0.386095
vn -0.955024 -0.177805 0.237306
vn -0.558175 -0.823663 0.100096
vn 0.801897 -0.112900 -0.586698
vn 0.951215 -0.164203 0.261204
vn 0.466274 -0.802355 -0.372579
vn 0.479577 -0.848060 0.225389
vn 0.016500 -0.103697 -0.994472
vn 0.013300 -0.768596 -0.639596
vn -0.781817 -0.120703 -0.611713
vn -0.446695 -0.807090 -0.386095
vn 0.016100 -0.099501 -0.994907
vn 0.016600 -0.244901 -0.969406
vn -0.780368 -0.126095 -0.612475
vn -0.752428 -0.265210 -0.602923
vn 0.120505 -0.227309 0.966338
vn -0.954376 -0.196095 0.225194
vn 0.124501 -0.340104 0.932110
vn -0.918821 -0.333408 0.211205
vn 0.949307 -0.184101 0.254802
vn -0.147596 -0.228994 0.962173
vn 0.915924 -0.321908 0.239706
vn -0.149207 -0.341817 0.927846
vn 0.016100 -0.099501 -0.994907
vn 0.800528 -0.116204 -0.587921
vn 0.016600 -0.244901 -0.969406
vn 0.774067 -0.255689 -0.579175
vn -0.780368 -0.126095 -0.612475
vn -0.752428 -0.265210 -0.602923
vn -0.954376 -0.196095 0.225194
vn -0.918821 -0.333408 0.211205
vn -0.955024 -0.177805 0.237306
vn -0.558175 -0.823663 0.100096
vn 0.238005 -0.178504 0.954720
vn 0.210896 -0.808785 0.548990
vn 0.689896 0.559297 -0.459598
vn 0.824378 0.494587 0.275293
vn 0.800528 -0.116204 -0.587921
vn 0.949307 -0.184101 0.254802
vn 0.009100 0.576475 -0.817064
vn 0.016100 -0.099501 -0.994907
vn -0.682223 0.550719 -0.480916
vn -0.780368 -0.126095 -0.612475
vn 0.054001 0.383110 0.922123
vn -0.838712 0.484107 0.249404
vn 0.120505 -0.227309 0.966338
vn -0.954376 -0.196095 0.225194
vn -0.087502 0.382210 0.919923
vn -0.147596 -0.228994 0.962173
vn 0.824378 0.494587 0.275293
vn 0.949307 -0.184101 0.254802
vn 0.009100 0.576475 -0.817064
vn 0.689896 0.559297 -0.459598
vn 0.016100 -0.099501 -0.994907
vn 0.800528 -0.116204 -0.587921
vn -0.682223 0.550719 -0.480916
vn -0.780368 -0.126095 -0.612475
vn -0.838712 0.484107 0.249404
vn -0.954376 -0.196095 0.225194
vn 0.800528 -0.116204 -0.587921
vn 0.949307 -0.184101 0.254802
vn 0.774067 -0.255689 -0.579175
vn 0.915924 -0.321908 0.239706
vn 0.957532 -0.222307 -0.183606
vn 0.798009 -0.434305 -0.417805
vn 0.997531 -0.068402 0.015900
vn 0.717699 -0.090100 -0.690500
vn 0.957532 -0.222307 -0.183606
vn 0.210896 -0.808785 0.548990
vn 0.798009 -0.434305 -0.417805
vn -0.558175 -0.823663 0.100096
vn 0.892912 -0.040501 0.448406
vn 0.893412 -0.039401 0.447506
vn 0.124501 -0.340104 0.932110
vn 0.120505 -0.227309 0.966338
vn -0.962472 -0.222694 0.155096
vn -0.802077 -0.553584 -0.224093
vn -0.274206 -0.687216 0.672715
vn 0.479577 -0.848060 0.225389
vn -0.905810 -0.051801 0.420505
vn -0.149207 -0.341817 0.927846
vn -0.906332 -0.050702 0.419515
vn -0.147596 -0.228994 0.962173
vn -0.659876 -0.623577 0.419185
vn 0.466274 -0.802355 -0.372579
vn -0.802077 -0.553584 -0.224093
vn 0.479577 -0.848060 0.225389
vn -0.903393 -0.048200 0.426097
vn -0.962472 -0.222694 0.155096
vn -0.267406 -0.182104 0.946220
vn -0.274206 -0.687216 0.672715
vn -0.659876 -0.623577 0.419185
vn -0.007500 -0.664686 0.747085
vn 0.466274 -0.802355 -0.372579
vn 0.013300 -0.768596 -0.639596
vn 0.009100 0.576475 -0.817064
vn -0.009100 0.982299 0.187100
vn 0.689896 0.559297 -0.459598
vn -0.101404 0.982137 0.158506
vn -0.906332 -0.050702 0.419515
vn -0.147596 -0.228994 0.962173
vn -0.905311 -0.052401 0.421505
vn -0.087502 0.382210 0.919923
vn 0.997531 -0.068402 0.015900
vn 0.892912 -0.040501 0.448406
vn 0.238005 -0.178504 0.954720
vn 0.124501 -0.340104 0.932110
vn 0.009100 0.576475 -0.817064
vn -0.682223 0.550719 -0.480916
vn -0.009100 0.982299 0.187100
vn 0.084100 0.983299 0.161400
vn 0.654316 -0.615315 0.439611
vn -0.446695 -0.807090 -0.386095
vn -0.007500 -0.664686 0.747085
vn 0.013300 -0.768596 -0.639596
vn -0.682223 0.550719 -0.480916
vn -0.838712 0.484107 0.249404
vn 0.084100 0.983299 0.161400
vn 0.101700 0.993299 0.054900
vn 0.893412 -0.039401 0.447506
vn 0.892388 -0.041099 0.449394
vn 0.120505 -0.227309 0.966338
vn 0.054001 0.383110 0.922123
vn 0.654316 -0.615315 0.439611
vn 0.798009 -0.434305 -0.417805
vn -0.446695 -0.807090 -0.386095
vn -0.558175 -0.823663 0.100096
vn 0.997531 -0.068402 0.015900
vn 0.238005 -0.178504 0.954720
vn 0.957532 -0.222307 -0.183606
vn 0.210896 -0.808785 0.548990
vn -0.903393 -0.048200 0.426097
vn -0.267406 -0.182104 0.946220
vn -0.905810 -0.051801 0.420505
vn -0.149207 -0.341817 0.927846
vn -0.918821 -0.333408 0.211205
vn -0.955024 -0.177805 0.237306
vn 0.124501 -0.340104 0.932110
vn 0.238005 -0.178504 0.954720
vn 0.016600 -0.244901 -0.969406
vn 0.016500 -0.103697 -0.994472
vn -0.752428 -0.265210 -0.602923
vn -0.781817 -0.120703 -0.611713
vn 0.774067 -0.255689 -0.579175
vn 0.915924 -0.321908 0.239706
vn 0.801897 -0.112900 -0.586698
vn 0.951215 -0.164203 0.261204
vn -0.752428 -0.265210 -0.602923
vn -0.781817 -0.120703 -0.611713
vn -0.918821 -0.333408 0.211205
vn -0.955024 -0.177805 0.237306
vn 0.016600 -0.244901 -0.969406
vn 0.774067 -0.255689 -0.579175
vn 0.016500 -0.103697 -0.994472
vn 0.801897 -0.112900 -0.586698
vn 0.915924 -0.321908 0.239706
vn -0.149207 -0.341817 0.927846
vn 0.951215 -0.164203 0.261204
vn -0.267406 -0.182104 0.946220
vn -0.078603 0.979342 0.186308
vn 0.060500 0.980208 0.188501
vn 0.330397 0.693994 -0.639695
vn -0.319006 0.689913 -0.649812
vn 0.768418 0.261206 -0.584214
vn 0.943721 0.226405 0.241105
vn 0.790901 -0.007200 -0.611901
vn 0.970926 -0.042901 0.235506
vn 0.060500 0.980208 0.188501
vn -0.078603 0.979342 0.186308
vn 0.407220 0.194209 0.892443
vn -0.437201 0.188900 0.879302
vn -0.163693 0.983557 0.076297
vn -0.130697 0.989677 -0.058799
vn -0.953525 0.214506 0.211606
vn -0.753079 0.251693 -0.607883
vn -0.004400 0.993099 -0.117200
vn 0.120105 0.991242 -0.054902
vn 0.013300 0.272398 -0.962093
vn 0.768418 0.261206 -0.584214
vn 0.149001 0.985506 0.081100
vn 0.060500 0.980208 0.188501
vn 0.943721 0.226405 0.241105
vn 0.407220 0.194209 0.892443
vn -0.078603 0.979342 0.186308
vn -0.163693 0.983557 0.076297
vn -0.437201 0.188900 0.879302
vn -0.953525 0.214506 0.211606
vn -0.130697 0.989677 -0.058799
vn -0.004400 0.993099 -0.117200
vn -0.753079 0.251693 -0.607883
vn 0.013300 0.272398 -0.962093
vn 0.120105 0.991242 -0.054902
vn 0.149001 0.985506 0.081100
vn 0.768418 0.261206 -0.584214
vn 0.943721 0.226405 0.241105
vn 0.970926 -0.042901 0.235506
vn 0.420017 -0.075903 0.904337
vn 0.911501 0.335300 0.238200
vn 0.392818 0.304214 0.867841
vn 0.407220 0.194209 0.892443
vn -0.437201 0.188900 0.879302
vn 0.420017 -0.075903 0.904337
vn -0.447009 -0.081402 0.890818
vn -0.953525 0.214506 0.211606
vn -0.753079 0.251693 -0.607883
vn -0.977169 -0.055098 0.205194
vn -0.771322 -0.017000 -0.636218
vn 0.013300 0.272398 -0.962093
vn 0.768418 0.261206 -0.584214
vn 0.015500 0.004400 -0.999870
vn 0.790901 -0.007200 -0.611901
vn 0.943721 0.226405 0.241105
vn 0.407220 0.194209 0.892443
vn 0.970926 -0.042901 0.235506
vn 0.420017 -0.075903 0.904337
vn -0.437201 0.188900 0.879302
vn -0.953525 0.214506 0.211606
vn -0.447009 -0.081402 0.890818
vn -0.977169 -0.055098 0.205194
vn -0.753079 0.251693 -0.607883
vn 0.013300 0.272398 -0.962093
vn -0.771322 -0.017000 -0.636218
vn 0.015500 0.004400 -0.999870
vn -0.922614 0.323805 0.209603
vn -0.728816 0.359708 -0.582613
vn -0.978038 0.009500 0.208208
vn -0.772104 0.047700 -0.633703
vn -0.447009 -0.081402 0.890818
vn -0.977169 -0.055098 0.205194
vn -0.423416 0.299111 0.855132
vn -0.922614 0.323805 0.209603
vn -0.771322 -0.017000 -0.636218
vn 0.015500 0.004400 -0.999870
vn -0.728816 0.359708 -0.582613
vn 0.012000 0.379797 -0.924992
vn 0.790901 -0.007200 -0.611901
vn 0.970926 -0.042901 0.235506
vn 0.742031 0.368916 -0.559724
vn 0.911501 0.335300 0.238200
vn 0.420017 -0.075903 0.904337
vn -0.447009 -0.081402 0.890818
vn 0.392818 0.304214 0.867841
vn -0.423416 0.299111 0.855132
vn -0.977169 -0.055098 0.205194
vn -0.771322 -0.017000 -0.636218
vn -0.922614 0.323805 0.209603
vn -0.728816 0.359708 -0.582613
vn 0.015500 0.004400 -0.999870
vn 0.790901 -0.007200 -0.611901
vn 0.012000 0.379797 -0.924992
vn 0.742031 0.368916 -0.559724
vn 0.790789 0.057399 -0.609392
vn 0.970900 0.021700 0.238500
vn 0.623479 -0.596880 -0.504983
vn 0.764504 -0.624803 0.158601
vn 0.012000 0.379797 -0.924992
vn 0.742031 0.368916 -0.559724
vn 0.015100 0.069000 -0.997502
vn 0.790789 0.057399 -0.609392
vn 0.911501 0.335300 0.238200
vn 0.392818 0.304214 0.867841
vn 0.970900 0.021700 0.238500
vn 0.419780 -0.011299 0.907556
vn -0.423416 0.299111 0.855132
vn -0.922614 0.323805 0.209603
vn -0.447590 -0.016800 0.894081
vn -0.978038 0.009500 0.208208
vn -0.728816 0.359708 -0.582613
vn 0.012000 0.379797 -0.924992
vn -0.772104 0.047700 -0.633703
vn 0.015100 0.069000 -0.997502
vn 0.742031 0.368916 -0.559724
vn 0.911501 0.335300 0.238200
vn 0.790789 0.057399 -0.609392
vn 0.970900 0.021700 0.238500
vn 0.392818 0.304214 0.867841
vn -0.423416 0.299111 0.855132
vn 0.419780 -0.011299 0.907556
vn -0.447590 -0.016800 0.894081
vn 0.016301 -0.587820 -0.808827
vn 0.623479 -0.596880 -0.504983
vn 0.011501 -0.930456 -0.366222
vn 0.264003 -0.934210 -0.239903
vn 0.419780 -0.011299 0.907556
vn -0.447590 -0.016800 0.894081
vn 0.333005 -0.650710 0.682411
vn -0.345902 -0.655004 0.671804
vn -0.978038 0.009500 0.208208
vn -0.772104 0.047700 -0.633703
vn -0.761125 -0.634421 0.134904
vn -0.599937 -0.604537 -0.524032
vn 0.015100 0.069000 -0.997502
vn 0.790789 0.057399 -0.609392
vn 0.016301 -0.587820 -0.808827
vn 0.623479 -0.596880 -0.504983
vn 0.970900 0.021700 0.238500
vn 0.419780 -0.011299 0.907556
vn 0.764504 -0.624803 0.158601
vn 0.333005 -0.650710 0.682411
vn -0.447590 -0.016800 0.894081
vn -0.978038 0.009500 0.208208
vn -0.345902 -0.655004 0.671804
vn -0.761125 -0.634421 0.134904
vn -0.772104 0.047700 -0.633703
vn 0.015100 0.069000 -0.997502
vn -0.599937 -0.604537 -0.524032
vn 0.016301 -0.587820 -0.808827
vn -0.244700 -0.937399 -0.247800
vn 0.011501 -0.930456 -0.366222
vn -0.311707 -0.949820 0.026101
vn 0.264003 -0.934210 -0.239903
vn 0.322615 -0.945845 0.036002
vn 0.143200 -0.956598 0.253799
vn -0.139094 -0.958362 0.249390
vn 0.764504 -0.624803 0.158601
vn 0.333005 -0.650710 0.682411
vn 0.322615 -0.945845 0.036002
vn 0.143200 -0.956598 0.253799
vn -0.345902 -0.655004 0.671804
vn -0.761125 -0.634421 0.134904
vn -0.139094 -0.958362 0.249390
vn -0.311707 -0.949820 0.026101
vn -0.599937 -0.604537 -0.524032
vn 0.016301 -0.587820 -0.808827
vn -0.244700 -0.937399 -0.247800
vn 0.011501 -0.930456 -0.366222
vn 0.623479 -0.596880 -0.504983
vn 0.764504 -0.624803 0.158601
vn 0.264003 -0.934210 -0.239903
vn 0.322615 -0.945845 0.036002
vn 0.333005 -0.650710 0.682411
vn -0.345902 -0.655004 0.671804
vn 0.143200 -0.956598 0.253799
vn -0.139094 -0.958362 0.249390
vn -0.761125 -0.634421 0.134904
vn -0.599937 -0.604537 -0.524032
vn -0.311707 -0.949820 0.026101
vn -0.244700 -0.937399 -0.247800
vn -0.130697 0.989677 -0.058799
vn -0.163693 0.983557 0.076297
vn 0.573419 0.645721 0.504217
vn 0.727606 0.674306 -0.126101
vn 0.120105 0.991242 -0.054902
vn -0.004400 0.993099 -0.117200
vn -0.596888 0.638387 0.485990
vn -0.016001 0.629736 0.776644
vn 0.060500 0.980208 0.188501
vn 0.149001 0.985506 0.081100
vn -0.319006 0.689913 -0.649812
vn -0.731694 0.665194 -0.148799
vn -0.163693 0.983557 0.076297
vn -0.078603 0.979342 0.186308
vn 0.727606 0.674306 -0.126101
vn 0.330397 0.693994 -0.639695
vn -0.004400 0.993099 -0.117200
vn -0.130697 0.989677 -0.058799
vn -0.016001 0.629736 0.776644
vn 0.573419 0.645721 0.504217
vn 0.149001 0.985506 0.081100
vn 0.120105 0.991242 -0.054902
vn -0.731694 0.665194 -0.148799
vn -0.596888 0.638387 0.485990
f 2/1/1 1/2/2 4/4/3
f 4/4/3 1/2/2 3/3/4
f 4/4/5 3/3/6 6/6/7
f 6/6/7 3/3/6 5/5/8
f 8/7/9 13/8/10 15/10/11
f 15/10/11 13/8/10 20/9/12
f 6/6/13 5/5/14 11/12/15
f 11/12/15 5/5/14 10/11/16
f 14/13/17 15/14/18 16/19/19
f 20/15/20 19/16/21 15/14/18
f 15/14/18 19/16/21 16/19/19
f 19/16/21 18/17/22 16/19/19
f 18/17/22 17/18/23 16/19/19
f 12/20/24 11/21/25 19/23/26
f 19/23/26 11/21/25 18/22/27
f 9/24/28 16/25/29 10/11/30
f 10/11/30 16/25/29 17/26/31
f 8/28/32 15/29/33 7/27/34
f 7/27/34 15/29/33 14/30/35
f 13/8/36 12/31/37 20/9/38
f 20/9/38 12/31/37 19/32/39
f 11/12/40 10/11/41 18/33/42
f 18/33/42 10/11/41 17/26/43
f 7/34/44 14/35/45 9/24/46
f 9/24/46 14/35/45 16/25/47
f 22/42/48 21/36/49 27/41/50
f 21/36/49 23/37/51 27/41/50
f 27/41/50 23/37/51 26/40/52
f 23/37/51 24/38/53 26/40/52
f 24/38/53 25/39/54 26/40/52
f 1/43/55 2/44/56 24/38/57
f 24/38/57 2/44/56 25/39/58
f 28/45/59 30/46/60 29/51/61
f 30/46/60 31/47/62 29/51/61
f 31/47/62 32/48/63 29/51/61
f 32/48/63 33/49/64 29/51/61
f 33/49/64 34/50/65 29/51/61
f 35/52/66 36/53/67 37/58/68
f 41/54/69 40/55/70 36/53/67
f 39/56/71 38/57/72 40/55/70
f 36/53/67 40/55/70 37/58/68
f 40/55/70 38/57/72 37/58/68
f 42/59/73 44/60/74 43/65/75
f 45/61/76 46/62/77 44/60/74
f 47/63/78 48/64/79 46/62/77
f 44/60/74 46/62/77 43/65/75
f 46/62/77 48/64/79 43/65/75
f 38/57/80 39/56/81 45/61/82
f 45/61/82 39/56/81 46/62/83
f 35/52/84 37/58/85 42/59/86
f 42/59/86 37/58/85 44/60/87
f 41/54/88 36/53/89 48/64/90
f 48/64/90 36/53/89 43/65/91
f 39/56/92 40/55/93 46/62/94
f 46/62/94 40/55/93 47/63/95
f 37/58/96 38/57/97 44/60/98
f 44/60/98 38/57/97 45/61/99
f 36/53/100 35/52/101 43/65/102
f 43/65/102 35/52/101 42/59/103
f 40/55/104 41/54/105 47/63/106
f 47/63/106 41/54/105 48/64/107
f 49/300/108 50/301/109 51/306/110
f 55/302/111 54/303/112 50/301/109
f 53/304/113 52/305/114 54/303/112
f 50/301/109 54/303/112 51/306/110
f 54/303/112 52/305/114 51/306/110
f 56/307/115 58/308/116 57/313/117
f 59/309/118 60/310/119 58/308/116
f 61/311/120 62/312/121 60/310/119
f 58/308/116 60/310/119 57/313/117
f 60/310/119 62/312/121 57/313/117
f 52/305/122 53/304/123 59/309/124
f 59/309/124 53/304/123 60/310/125
f 49/300/126 51/306/127 56/307/128
f 56/307/128 51/306/127 58/308/129
f 55/302/130 50/301/131 62/312/132
f 62/312/132 50/301/131 57/313/133
f 53/304/134 54/303/135 60/310/136
f 60/310/136 54/303/135 61/311/137
f 51/306/138 52/305/139 58/308/140
f 58/308/140 52/305/139 59/309/141
f 50/301/142 49/300/143 57/313/144
f 57/313/144 49/300/143 56/307/145
f 54/303/146 55/302/147 61/311/148
f 61/311/148 55/302/147 62/312/149
f 63/314/150 64/315/151 65/320/152
f 69/316/153 68/317/154 64/315/151
f 67/318/155 66/319/156 68/317/154
f 64/315/151 68/317/154 65/320/152
f 68/317/154 66/319/156 65/320/152
f 70/321/157 72/322/158 71/327/159
f 73/323/160 74/324/161 72/322/158
f 75/325/162 76/326/163 74/324/161
f 72/322/158 74/324/161 71/327/159
f 74/324/161 76/326/163 71/327/159
f 66/319/164 67/318/165 73/323/166
f 73/323/166 67/318/165 74/324/167
f 63/314/168 65/320/169 70/321/170
f 70/321/170 65/320/169 72/322/171
f 69/316/172 64/315/173 76/326/174
f 76/326/174 64/315/173 71/327/175
f 67/318/176 68/317/177 74/324/178
f 74/324/178 68/317/177 75/325/179
f 65/320/180 66/319/181 72/322/182
f 72/322/182 66/319/181 73/323/183
f 64/315/184 63/314/185 71/327/186
f 71/327/186 63/314/185 70/321/187
f 68/317/188 69/316/189 75/325/190
f 75/325/190 69/316/189 76/326/191
f 77/328/192 78/329/193 79/334/194
f 83/330/195 82/331/196 78/329/193
f 81/332/197 80/333/198 82/331/196
f 78/329/193 82/331/196 79/334/194
f 82/331/196 80/333/198 79/334/194
f 84/335/199 86/336/200 85/341/201
f 87/337/202 88/338/203 86/336/200
f 89/339/204 90/340/205 88/338/203
f 86/336/200 88/338/203 85/341/201
f 88/338/203 90/340/205 85/341/201
f 80/333/206 81/332/207 87/337/208
f 87/337/208 81/332/207 88/338/209
f 77/328/210 79/334/211 84/335/212
f 84/335/212 79/334/211 86/336/213
f 83/330/214 78/329/215 90/340/216
f 90/340/216 78/329/215 85/341/217
f 81/332/218 82/331/219 88/338/220
f 88/338/220 82/331/219 89/339/221
f 79/334/222 80/333/223 86/336/224
f 86/336/224 80/333/223 87/337/225
f 78/329/226 77/328/227 85/341/228
f 85/341/228 77/328/227 84/335/229
f 82/331/230 83/330/231 89/339/232
f 89/339/232 83/330/231 90/340/233
f 91/342/234 92/343/235 93/348/236
f 97/344/237 96/345/238 92/343/235
f 95/346/239 94/347/240 96/345/238
f 92/343/235 96/345/238 93/348/236
f 96/345/238 94/347/240 93/348/236
f 98/349/241 100/350/242 99/355/243
f 101/351/244 102/352/245 100/350/242
f 103/353/246 104/354/247 102/352/245
f 100/350/242 102/352/245 99/355/243
f 102/352/245 104/354/247 99/355/243
f 94/347/248 95/346/249 101/351/250
f 101/351/250 95/346/249 102/352/251
f 91/342/252 93/348/253 98/349/254
f 98/349/254 93/348/253 100/350/255
f 97/344/256 92/343/257 104/354/258
f 104/354/258 92/343/257 99/355/259
f 95/346/260 96/345/261 102/352/262
f 102/352/262 96/345/261 103/353/263
f 93/348/264 94/347/265 100/350/266
f 100/350/266 94/347/265 101/351/267
f 92/343/268 91/342/269 99/355/270
f 99/355/270 91/342/269 98/349/271
f 96/345/272 97/344/273 103/353/274
f 103/353/274 97/344/273 104/354/275
f 105/356/276 106/357/277 107/362/278
f 111/358/279 110/359/280 106/357/277
f 109/360/281 108/361/282 110/359/280
f 106/357/277 110/359/280 107/362/278
f 110/359/280 108/361/282 107/362/278
f 112/363/283 114/364/284 113/369/285
f 115/365/286 116/366/287 114/364/284
f 117/367/288 118/368/289 116/366/287
f 114/364/284 116/366/287 113/369/285
f 116/366/287 118/368/289 113/369/285
f 108/361/290 109/360/291 115/365/292
f 115/365/292 109/360/291 116/366/293
f 105/356/294 107/362/295 112/363/296
f 112/363/296 107/362/295 114/364/297
f 111/358/298 106/357/299 118/368/300
f 118/368/300 106/357/299 113/369/301
f 109/360/302 110/359/303 116/366/304
f 116/366/304 110/359/303 117/367/305
f 107/362/306 108/361/307 114/364/308
f 114/364/308 108/361/307 115/365/309
f 106/357/310 105/356/311 113/369/312
f 113/369/312 105/356/311 112/363/313
f 110/359/314 111/358/315 117/367/316
f 117/367/316 111/358/315 118/368/317
f 119/370/318 120/371/319 121/376/320
f 125/372/321 124/373/322 120/371/319
f 123/374/323 122/375/324 124/373/322
f 120/371/319 124/373/322 121/376/320
f 124/373/322 122/375/324 121/376/320
f 126/377/325 128/378/326 127/383/327
f 129/379/328 130/380/329 128/378/326
f 131/381/330 132/382/331 130/380/329
f 128/378/326 130/380/329 127/383/327
f 130/380/329 132/382/331 127/383/327
f 122/375/332 123/374/333 129/379/334
f 129/379/334 123/374/333 130/380/335
f 119/370/336 121/376/337 126/377/338
f 126/377/338 121/376/337 128/378/339
f 125/372/340 120/371/341 132/382/342
f 132/382/342 120/371/341 127/383/343
f 123/374/344 124/373/345 130/380/346
f 130/380/346 124/373/345 131/381/347
f 121/376/348 122/375/349 128/378/350
f 128/378/350 122/375/349 129/379/351
f 120/371/352 119/370/353 127/383/354
f 127/383/354 119/370/353 126/377/355
f 124/373/356 125/372/357 131/381/358
f 131/381/358 125/372/357 132/382/359
f 133/384/360 134/385/361 135/390/362
f 139/386/363 138/387/364 134/385/361
f 137/388/365 136/389/366 138/387/364
f 134/385/361 138/387/364 135/390/362
f 138/387/364 136/389/366 135/390/362
f 140/391/367 142/392/368 141/397/369
f 143/393/370 144/394/371 142/392/368
f 145/395/372 146/396/373 144/394/371
f 142/392/368 144/394/371 141/397/369
f 144/394/371 146/396/373 141/397/369
f 136/389/374 137/388/375 143/393/376
f 143/393/376 137/388/375 144/394/377
f 133/384/378 135/390/379 140/391/380
f 140/391/380 135/390/379 142/392/381
f 139/386/382 134/385/383 146/396/384
f 146/396/384 134/385/383 141/397/385
f 137/388/386 138/387/387 144/394/388
f 144/394/388 138/387/387 145/395/389
f 135/390/390 136/389/391 142/392/392
f 142/392/392 136/389/391 143/393/393
f 134/385/394 133/384/395 141/397/396
f 141/397/396 133/384/395 140/391/397
f 138/387/398 139/386/399 145/395/400
f 145/395/400 139/386/399 146/396/401
f 147/398/402 148/399/403 149/404/404
f 153/400/405 152/401/406 148/399/403
f 151/402/407 150/403/408 152/401/406
f 148/399/403 152/401/406 149/404/404
f 152/401/406 150/403/408 149/404/404
f 154/405/409 156/406/410 155/411/411
f 157/407/412 158/408/413 156/406/410
f 159/409/414 160/410/415 158/408/413
f 156/406/410 158/408/413 155/411/411
f 158/408/413 160/410/415 155/411/411
f 150/403/416 151/402/417 157/407/418
f 157/407/418 151/402/417 158/408/419
f 147/398/420 149/404/421 154/405/422
f 154/405/422 149/404/421 156/406/423
f 153/400/424 148/399/425 160/410/426
f 160/410/426 148/399/425 155/411/427
f 151/402/428 152/401/429 158/408/430
f 158/408/430 152/401/429 159/409/431
f 149/404/432 150/403/433 156/406/434
f 156/406/434 150/403/433 157/407/435
f 148/399/436 147/398/437 155/411/438
f 155/411/438 147/398/437 154/405/439
f 152/401/440 153/400/441 159/409/442
f 159/409/442 153/400/441 160/410/443
f 182/66/444 181/67/445 169/69/446
f 169/69/446 181/67/445 170/68/447
f 181/70/448 185/71/449 170/73/450
f 170/73/450 185/71/449 164/72/451
f 180/75/452 172/76/453 179/74/454
f 179/74/454 172/76/453 171/77/455
f 179/79/456 171/80/457 186/78/458
f 186/78/458 171/80/457 162/81/459
f 178/82/460 173/83/461 180/75/462
f 180/75/462 173/83/461 172/76/463
f 163/85/464 172/76/465 161/84/466
f 161/84/466 172/76/465 173/83/467
f 162/86/468 171/77/469 163/85/470
f 163/85/470 171/77/469 172/76/471
f 164/87/472 165/88/473 170/68/474
f 170/68/474 165/88/473 169/69/475
f 165/88/476 167/89/477 169/69/478
f 169/69/478 167/89/477 168/90/479
f 167/89/480 166/91/481 168/90/482
f 168/90/482 166/91/481 174/92/483
f 161/84/484 173/83/485 166/91/486
f 166/91/486 173/83/485 174/92/487
f 225/94/488 214/95/489 223/93/490
f 223/93/490 214/95/489 213/96/491
f 221/97/492 224/98/493 210/100/494
f 210/100/494 224/98/493 215/99/495
f 222/102/496 209/103/497 219/101/498
f 219/101/498 209/103/497 211/104/499
f 224/98/500 223/105/501 215/99/502
f 215/99/502 223/105/501 213/106/503
f 221/108/504 210/109/505 222/107/506
f 222/107/506 210/109/505 209/110/507
f 176/112/508 203/113/509 177/111/510
f 177/111/510 203/113/509 202/114/511
f 198/115/512 175/116/513 205/118/514
f 205/118/514 175/116/513 204/117/515
f 199/119/516 200/120/517 206/122/518
f 206/122/518 200/120/517 207/121/519
f 176/123/520 201/124/521 203/126/522
f 203/126/522 201/124/521 208/125/523
f 177/127/524 202/128/525 175/116/526
f 175/116/526 202/128/525 204/117/527
f 219/101/528 211/104/529 220/129/530
f 220/129/530 211/104/529 212/130/531
f 178/131/532 180/132/533 201/124/534
f 201/124/534 180/132/533 199/133/535
f 183/135/536 176/112/537 184/134/538
f 184/134/538 176/112/537 177/111/539
f 181/136/540 182/137/541 198/115/542
f 198/115/542 182/137/541 175/116/543
f 179/139/544 200/120/545 180/138/546
f 180/138/546 200/120/545 199/119/547
f 183/140/548 178/131/549 176/123/550
f 176/123/550 178/131/549 201/124/551
f 184/141/552 177/127/553 182/137/554
f 182/137/554 177/127/553 175/116/555
f 201/124/556 199/133/557 208/125/558
f 208/125/558 199/133/557 206/142/559
f 194/144/560 193/145/561 217/143/562
f 217/143/562 193/145/561 216/146/563
f 194/144/564 212/147/565 193/145/566
f 193/145/566 212/147/565 211/148/567
f 189/149/568 187/150/569 205/152/570
f 205/152/570 187/150/569 198/151/571
f 195/153/572 196/154/573 214/156/574
f 214/156/574 196/154/573 213/155/575
f 190/158/576 207/159/577 188/157/578
f 188/157/578 207/159/577 200/160/579
f 197/162/580 215/163/581 196/161/582
f 196/161/582 215/163/581 213/164/583
f 218/165/584 195/166/585 225/168/586
f 225/168/586 195/166/585 214/167/587
f 197/162/588 192/169/589 215/163/590
f 215/163/590 192/169/589 210/170/591
f 183/171/592 174/92/593 178/82/594
f 178/82/594 174/92/593 173/83/595
f 188/157/596 200/160/597 186/78/598
f 186/78/598 200/160/597 179/79/599
f 217/172/600 189/149/601 220/174/602
f 220/174/602 189/149/601 205/173/603
f 183/171/604 184/175/605 174/92/606
f 174/92/606 184/175/605 168/90/607
f 191/177/608 209/178/609 192/176/610
f 192/176/610 209/178/609 210/179/611
f 184/175/612 182/66/613 168/90/614
f 168/90/614 182/66/613 169/69/615
f 187/150/616 185/71/617 198/151/618
f 198/151/618 185/71/617 181/180/619
f 191/177/620 193/181/621 209/178/622
f 209/178/622 193/181/621 211/182/623
f 217/172/624 220/174/625 194/183/626
f 194/183/626 220/174/625 212/184/627
f 218/165/628 225/168/629 190/158/630
f 190/158/630 225/168/629 207/159/631
f 204/117/632 219/101/633 205/118/634
f 205/118/634 219/101/633 220/129/635
f 203/113/636 221/108/637 202/114/638
f 202/114/638 221/108/637 222/107/639
f 208/125/640 206/142/641 224/98/642
f 224/98/642 206/142/641 223/105/643
f 202/128/644 222/102/645 204/117/646
f 204/117/646 222/102/645 219/101/647
f 203/126/648 208/125/649 221/97/650
f 221/97/650 208/125/649 224/98/651
f 206/122/652 207/121/653 223/93/654
f 223/93/654 207/121/653 225/94/655
f 229/185/656 230/186/657 278/188/658
f 278/188/658 230/186/657 279/187/659
f 239/189/660 238/190/661 246/192/662
f 246/192/662 238/190/661 245/191/663
f 230/193/664 229/194/665 237/196/666
f 237/196/666 229/194/665 236/195/667
f 228/197/668 227/198/669 235/200/670
f 235/200/670 227/198/669 233/199/671
f 226/201/672 232/202/673 234/204/674
f 234/204/674 232/202/673 239/203/675
f 231/205/676 230/193/677 238/206/678
f 238/206/678 230/193/677 237/196/679
f 229/194/680 228/197/681 236/195/682
f 236/195/682 228/197/681 235/200/683
f 227/198/684 226/201/685 233/199/686
f 233/199/686 226/201/685 234/204/687
f 232/202/688 231/205/689 239/203/690
f 239/203/690 231/205/689 238/206/691
f 245/207/692 244/208/693 252/210/694
f 252/210/694 244/208/693 251/209/695
f 237/211/696 236/212/697 244/214/698
f 244/214/698 236/212/697 243/213/699
f 235/215/700 233/216/701 242/218/702
f 242/218/702 233/216/701 240/217/703
f 234/219/704 239/189/705 241/220/706
f 241/220/706 239/189/705 246/192/707
f 238/221/708 237/222/709 245/207/710
f 245/207/710 237/222/709 244/208/711
f 236/212/712 235/215/713 243/213/714
f 243/213/714 235/215/713 242/218/715
f 233/223/716 234/224/717 240/226/718
f 240/226/718 234/224/717 241/225/719
f 249/227/720 247/228/721 256/230/722
f 256/230/722 247/228/721 254/229/723
f 243/213/724 242/218/725 250/231/726
f 250/231/726 242/218/725 249/227/727
f 240/226/728 241/225/729 247/233/730
f 247/233/730 241/225/729 248/232/731
f 246/192/732 245/191/733 253/235/734
f 253/235/734 245/191/733 252/234/735
f 244/214/736 243/213/737 251/236/738
f 251/236/738 243/213/737 250/231/739
f 242/218/740 240/217/741 249/227/742
f 249/227/742 240/217/741 247/228/743
f 241/220/744 246/192/745 248/237/746
f 248/237/746 246/192/745 253/235/747
f 260/238/748 259/239/749 267/241/750
f 267/241/750 259/239/749 266/240/751
f 248/237/752 253/235/753 255/242/754
f 255/242/754 253/235/753 260/238/755
f 252/210/756 251/209/757 259/244/758
f 259/244/758 251/209/757 258/243/759
f 250/231/760 249/227/761 257/245/762
f 257/245/762 249/227/761 256/230/763
f 247/233/764 248/232/765 254/247/766
f 254/247/766 248/232/765 255/246/767
f 253/235/768 252/234/769 260/238/770
f 260/238/770 252/234/769 259/239/771
f 251/236/772 250/231/773 258/248/774
f 258/248/774 250/231/773 257/245/775
f 262/249/776 267/250/777 269/252/778
f 269/252/778 267/250/777 274/251/779
f 258/248/780 257/245/781 265/254/782
f 265/254/782 257/245/781 264/253/783
f 256/230/784 254/229/785 263/256/786
f 263/256/786 254/229/785 261/255/787
f 255/257/788 260/258/789 262/260/790
f 262/260/790 260/258/789 267/259/791
f 259/244/792 258/243/793 266/262/794
f 266/262/794 258/243/793 265/261/795
f 257/245/796 256/230/797 264/253/798
f 264/253/798 256/230/797 263/256/799
f 254/263/800 255/264/801 261/266/802
f 261/266/802 255/264/801 262/265/803
f 268/267/804 269/268/805 270/273/806
f 274/269/807 273/270/808 269/268/805
f 272/271/809 271/272/810 273/270/808
f 269/268/805 273/270/808 270/273/806
f 273/270/808 271/272/810 270/273/806
f 266/274/811 265/275/812 273/270/813
f 273/270/813 265/275/812 272/271/814
f 264/276/815 263/277/816 271/272/817
f 271/272/817 263/277/816 270/273/818
f 261/278/819 262/279/820 268/280/821
f 268/280/821 262/279/820 269/252/822
f 267/281/823 266/274/824 274/269/825
f 274/269/825 266/274/824 273/270/826
f 265/275/827 264/276/828 272/271/829
f 272/271/829 264/276/828 271/272/830
f 263/277/831 261/282/832 270/273/833
f 270/273/833 261/282/832 268/267/834
f 227/283/835 228/284/836 275/286/837
f 275/286/837 228/284/836 277/285/838
f 232/202/839 226/201/840 281/288/841
f 281/288/841 226/201/840 276/287/842
f 230/186/843 231/289/844 279/187/845
f 279/187/845 231/289/844 280/290/846
f 228/291/847 229/292/848 277/294/849
f 277/294/849 229/292/848 278/293/850
f 226/201/851 227/198/852 276/287/853
f 276/287/853 227/198/852 275/295/854
f 231/296/855 232/297/856 280/299/857
f 280/299/857 232/297/856 281/298/858
