# This file uses centimeters as units for non-parametric coordinates.

v -0.006581 -0.104212 -0.083117
v 0.029376 -0.121528 -0.083117
v -0.015462 -0.065302 -0.083117
v 0.009421 -0.034100 -0.083117
v 0.049331 -0.034100 -0.083117
v 0.074214 -0.065302 -0.083117
v 0.065334 -0.104212 -0.083117
v -0.006581 -0.104212 -0.016294
v 0.029376 -0.121528 -0.016295
v -0.015462 -0.065303 -0.016295
v 0.009421 -0.034100 -0.016295
v 0.049331 -0.034100 -0.016295
v 0.074214 -0.065303 -0.016295
v 0.065334 -0.104212 -0.016294
v 0.000085 -0.098895 -0.091785
v 0.029376 -0.113001 -0.091785
v -0.007149 -0.067200 -0.091785
v 0.013121 -0.041782 -0.091785
v 0.045631 -0.041782 -0.091785
v 0.065901 -0.067200 -0.091785
v 0.058667 -0.098895 -0.091785
v 0.088511 -0.122696 0.011649
v 0.103117 -0.058706 0.011648
v 0.062194 -0.007390 0.011649
v -0.003441 -0.007390 0.011649
v -0.044364 -0.058706 0.011648
v 0.029376 -0.151174 0.011649
v -0.029759 -0.122696 0.011649
v 0.079752 -0.115710 -0.018910
v 0.092194 -0.061199 -0.018910
v 0.057333 -0.017484 -0.018910
v 0.001420 -0.017484 -0.018910
v -0.033442 -0.061199 -0.018910
v 0.029376 -0.139970 -0.018910
v -0.021000 -0.115710 -0.018910
v -0.006581 -0.104212 -0.014031
v 0.029376 -0.121528 -0.014031
v -0.015462 -0.065303 -0.014031
v 0.009421 -0.034100 -0.014031
v 0.049331 -0.034100 -0.014031
v 0.074214 -0.065303 -0.014031
v 0.065334 -0.104212 -0.014031
v -0.012834 -0.109198 -0.002288
v 0.029376 -0.129525 -0.002288
v -0.023259 -0.063523 -0.002288
v 0.005952 -0.026895 -0.002288
v 0.052801 -0.026895 -0.002288
v 0.082011 -0.063523 -0.002288
v 0.071586 -0.109198 -0.002288
v -0.018717 -0.113890 0.057542
v 0.029376 -0.137050 0.057542
v -0.030595 -0.061848 0.057542
v 0.002687 -0.020115 0.057542
v 0.056066 -0.020115 0.057542
v 0.089347 -0.061848 0.057542
v 0.077469 -0.113890 0.057542
v -0.038002 -0.129269 0.116016
v 0.029376 -0.161716 0.116016
v -0.054643 -0.056360 0.116016
v -0.008016 0.002109 0.116016
v 0.066768 0.002109 0.116016
v 0.113395 -0.056360 0.116016
v 0.096754 -0.129269 0.116016
vt 0.150491 0.486983
vt 0.150588 0.495347
vt 0.167252 0.495330
vt 0.170163 0.486829
vt 0.170462 0.457807
vt 0.150948 0.458380
vt 0.164871 0.484253
vt 0.165177 0.452973
vt 0.177260 0.455449
vt 0.177073 0.485649
vt 0.127485 0.484616
vt 0.128255 0.454154
vt 0.142760 0.452374
vt 0.142127 0.483774
vt 0.132455 0.456816
vt 0.131819 0.486040
vt 0.134792 0.494719
vt 0.131260 0.493873
vt 0.143603 0.493447
vt 0.162625 0.493809
vt 0.172964 0.494663
vt 0.394223 0.940935
vt 0.394223 0.916642
vt 0.378134 0.919535
vt 0.376899 0.939956
vt 0.343350 0.912332
vt 0.322536 0.912277
vt 0.318406 0.926527
vt 0.343801 0.926788
vt 0.343801 0.950249
vt 0.318406 0.950509
vt 0.322536 0.964759
vt 0.343350 0.964705
vt 0.411548 0.939956
vt 0.410313 0.919535
vt 0.960636 0.819832
vt 0.959364 0.800221
vt 0.950691 0.800221
vt 0.949419 0.819832
vt 0.105406 0.895836
vt 0.084248 0.900666
vt 0.074832 0.920218
vt 0.084248 0.939771
vt 0.105406 0.944600
vt 0.122373 0.931069
vt 0.122373 0.909368
vt 0.358991 0.928460
vt 0.358991 0.948577
vt 0.959104 0.774100
vt 0.960635 0.760127
vt 0.949419 0.760126
vt 0.950951 0.774100
vt 0.394223 0.955689
vt 0.380006 0.953713
vt 0.357293 0.915867
vt 0.357293 0.961170
vt 0.408441 0.953713
vt 0.959363 0.740516
vt 0.950691 0.740516
vt 0.959104 0.833805
vt 0.950951 0.833805
vt 0.818290 0.395347
vt 0.817360 0.405495
vt 0.824688 0.405495
vt 0.825227 0.393129
vt 0.885282 0.699249
vt 0.884743 0.686883
vt 0.873424 0.687765
vt 0.871751 0.699249
vt 0.923306 0.709398
vt 0.924237 0.699249
vt 0.916908 0.699249
vt 0.916369 0.711616
vt 0.891680 0.709398
vt 0.892610 0.699249
vt 0.884743 0.711616
vt 0.818290 0.415644
vt 0.825227 0.417861
vt 0.923306 0.689101
vt 0.916369 0.686883
vt 0.891680 0.689101
vt 0.962078 0.117954
vt 0.967897 0.117954
vt 0.968991 0.110806
vt 0.960984 0.110806
vt 0.957741 0.667248
vt 0.964462 0.681204
vt 0.979564 0.684651
vt 0.991675 0.674993
vt 0.991675 0.659502
vt 0.979564 0.649844
vt 0.964462 0.653291
vt 0.968083 0.099996
vt 0.961893 0.099996
vt 0.838219 0.405495
vt 0.836546 0.394011
vt 0.903377 0.699249
vt 0.905050 0.710734
vt 0.873424 0.710734
vt 0.836546 0.416979
vt 0.905050 0.687765
vt 0.016373 0.983909
vt 0.014717 0.985986
vt 0.033407 0.990251
vt 0.032816 0.987662
vt 0.016373 0.953519
vt 0.014717 0.951442
vt 0.006400 0.968714
vt 0.009055 0.968714
vt 0.046002 0.960281
vt 0.048394 0.959129
vt 0.033407 0.947177
vt 0.032816 0.949766
vt 0.048394 0.978299
vt 0.046002 0.977147
vn 0.000000 -0.938088 -0.346396
vn 0.000000 -0.471802 -0.881704
vn 0.733409 -0.584907 -0.346404
vn 0.368893 -0.294195 -0.881684
vn 0.733409 -0.584907 -0.346404
vn 0.781814 -0.623511 0.000000
vn 0.000000 -0.938088 -0.346396
vn 0.000000 -1.000000 0.000000
vn 0.406999 0.845198 -0.346399
vn 0.433885 0.900968 0.000000
vn 0.914581 0.208696 -0.346393
vn 0.974931 0.222507 0.000000
vn -0.914581 0.208696 -0.346393
vn -0.974931 0.222507 0.000000
vn -0.406999 0.845198 -0.346399
vn -0.433885 0.900968 0.000000
vn 0.000000 -0.938088 -0.346396
vn 0.000000 -1.000000 0.000000
vn -0.733409 -0.584907 -0.346404
vn -0.781814 -0.623511 0.000000
vn 0.914581 0.208696 -0.346393
vn 0.974931 0.222507 0.000000
vn 0.733409 -0.584907 -0.346404
vn 0.781814 -0.623511 0.000000
vn -0.406999 0.845198 -0.346399
vn -0.433885 0.900968 0.000000
vn 0.406999 0.845198 -0.346399
vn 0.433885 0.900968 0.000000
vn -0.733409 -0.584907 -0.346404
vn -0.781814 -0.623511 0.000000
vn -0.914581 0.208696 -0.346393
vn -0.974931 0.222507 0.000000
vn -0.368893 -0.294195 -0.881684
vn -0.459995 0.104999 -0.881691
vn 0.000000 -0.471802 -0.881704
vn -0.204699 0.425099 -0.881697
vn 0.204699 0.425099 -0.881697
vn 0.459995 0.104999 -0.881691
vn 0.368893 -0.294195 -0.881684
vn 0.914581 0.208696 -0.346393
vn 0.459995 0.104999 -0.881691
vn 0.406999 0.845198 -0.346399
vn 0.204699 0.425099 -0.881697
vn -0.406999 0.845198 -0.346399
vn -0.204699 0.425099 -0.881697
vn -0.914581 0.208696 -0.346393
vn -0.459995 0.104999 -0.881691
vn -0.733409 -0.584907 -0.346404
vn -0.368893 -0.294195 -0.881684
vn 0.000000 -0.938088 -0.346396
vn 0.000000 -0.471802 -0.881704
vn 0.733409 -0.584907 -0.346404
vn 0.368893 -0.294195 -0.881684
vn 0.914581 0.208696 -0.346393
vn 0.459995 0.104999 -0.881691
vn 0.406999 0.845198 -0.346399
vn 0.204699 0.425099 -0.881697
vn -0.406999 0.845198 -0.346399
vn -0.204699 0.425099 -0.881697
vn -0.914581 0.208696 -0.346393
vn -0.459995 0.104999 -0.881691
vn -0.733409 -0.584907 -0.346404
vn -0.368893 -0.294195 -0.881684
vn 0.000000 -0.976194 -0.216899
vn 0.000000 -0.812400 0.583100
vn -0.763233 -0.608626 -0.216909
vn -0.635132 -0.506525 0.583129
vn -0.951722 0.217205 -0.216905
vn -0.792017 0.180804 0.583112
vn -0.423599 0.879499 -0.216900
vn -0.352511 0.731922 0.583118
vn 0.423599 0.879499 -0.216900
vn 0.352511 0.731922 0.583118
vn 0.951722 0.217205 -0.216905
vn 0.792017 0.180804 0.583112
vn 0.763233 -0.608626 -0.216909
vn 0.635132 -0.506525 0.583129
vn 0.000000 -0.976194 -0.216899
vn 0.000000 -0.812400 0.583100
vn -0.763233 -0.608626 -0.216909
vn -0.635132 -0.506525 0.583129
vn -0.951722 0.217205 -0.216905
vn -0.792017 0.180804 0.583112
vn -0.423599 0.879499 -0.216900
vn -0.352511 0.731922 0.583118
vn 0.423599 0.879499 -0.216900
vn 0.352511 0.731922 0.583118
vn -0.635132 -0.506525 0.583129
vn 0.000000 -0.812400 0.583100
vn -0.792017 0.180804 0.583112
vn 0.635132 -0.506525 0.583129
vn 0.792017 0.180804 0.583112
vn 0.352511 0.731922 0.583118
vn -0.352511 0.731922 0.583118
vn -0.254713 0.528927 -0.809541
vn -0.423599 0.879499 -0.216900
vn 0.254713 0.528927 -0.809541
vn 0.423599 0.879499 -0.216900
vn 0.572403 0.130601 -0.809505
vn 0.951722 0.217205 -0.216905
vn 0.459017 -0.366013 -0.809529
vn 0.763233 -0.608626 -0.216909
vn 0.000000 -0.587107 -0.809509
vn 0.000000 -0.976194 -0.216899
vn -0.459017 -0.366013 -0.809529
vn -0.763233 -0.608626 -0.216909
vn -0.572403 0.130601 -0.809505
vn -0.951722 0.217205 -0.216905
vn -0.254713 0.528927 -0.809541
vn -0.423599 0.879499 -0.216900
vn 0.254713 0.528927 -0.809541
vn 0.423599 0.879499 -0.216900
vn 0.572403 0.130601 -0.809505
vn 0.951722 0.217205 -0.216905
vn 0.459017 -0.366013 -0.809529
vn 0.763233 -0.608626 -0.216909
vn 0.000000 -0.587107 -0.809509
vn 0.000000 -0.976194 -0.216899
vn 0.951722 0.217205 -0.216905
vn 0.792017 0.180804 0.583112
vn 0.763233 -0.608626 -0.216909
vn 0.635132 -0.506525 0.583129
vn -0.459017 -0.366013 -0.809529
vn -0.763233 -0.608626 -0.216909
vn -0.572403 0.130601 -0.809505
vn -0.951722 0.217205 -0.216905
vn 0.696403 0.555302 -0.454602
vn 0.868373 -0.198194 -0.454586
vn 0.736982 0.587685 0.333892
vn 0.918970 -0.209793 0.333889
vn -0.918970 -0.209793 0.333889
vn -0.736982 0.587685 0.333892
vn -0.798482 -0.182196 -0.573787
vn -0.640318 0.510615 -0.573816
vn -0.696403 0.555302 -0.454602
vn 0.000000 0.890697 -0.454598
vn -0.736982 0.587685 0.333892
vn 0.000000 0.942608 0.333903
vn -0.386490 -0.802480 -0.454589
vn -0.868373 -0.198194 -0.454586
vn -0.408983 -0.849266 0.333887
vn -0.918970 -0.209793 0.333889
vn 0.868373 -0.198194 -0.454586
vn 0.386490 -0.802480 -0.454589
vn 0.918970 -0.209793 0.333889
vn 0.408983 -0.849266 0.333887
vn 0.000000 0.890697 -0.454598
vn 0.696403 0.555302 -0.454602
vn 0.000000 0.942608 0.333903
vn 0.736982 0.587685 0.333892
vn -0.868373 -0.198194 -0.454586
vn -0.696403 0.555302 -0.454602
vn -0.918970 -0.209793 0.333889
vn -0.736982 0.587685 0.333892
vn 0.386490 -0.802480 -0.454589
vn -0.386490 -0.802480 -0.454589
vn 0.408983 -0.849266 0.333887
vn -0.408983 -0.849266 0.333887
vn 0.640318 0.510615 -0.573816
vn 0.798482 -0.182196 -0.573787
vn 0.000000 0.818997 -0.573798
vn 0.355391 -0.737881 -0.573785
vn -0.355391 -0.737881 -0.573785
vn -0.798482 -0.182196 -0.573787
vn -0.640318 0.510615 -0.573816
vn 0.408983 -0.849266 0.333887
vn -0.408983 -0.849266 0.333887
vn 0.355391 -0.737881 -0.573785
vn -0.355391 -0.737881 -0.573785
vn 0.736982 0.587685 0.333892
vn 0.918970 -0.209793 0.333889
vn 0.640318 0.510615 -0.573816
vn 0.798482 -0.182196 -0.573787
vn -0.736982 0.587685 0.333892
vn 0.000000 0.942608 0.333903
vn -0.640318 0.510615 -0.573816
vn 0.000000 0.818997 -0.573798
vn -0.408983 -0.849266 0.333887
vn -0.918970 -0.209793 0.333889
vn -0.355391 -0.737881 -0.573785
vn -0.798482 -0.182196 -0.573787
vn 0.918970 -0.209793 0.333889
vn 0.408983 -0.849266 0.333887
vn 0.798482 -0.182196 -0.573787
vn 0.355391 -0.737881 -0.573785
vn 0.000000 0.942608 0.333903
vn 0.736982 0.587685 0.333892
vn 0.000000 0.818997 -0.573798
vn 0.640318 0.510615 -0.573816
vn -0.386490 -0.802480 -0.454589
vn 0.254713 0.528927 -0.809541
vn -0.868373 -0.198194 -0.454586
vn 0.572403 0.130601 -0.809505
vn 0.868373 -0.198194 -0.454586
vn -0.572403 0.130601 -0.809505
vn 0.386490 -0.802480 -0.454589
vn -0.254713 0.528927 -0.809541
vn 0.000000 0.890697 -0.454598
vn 0.000000 -0.587107 -0.809509
vn 0.696403 0.555302 -0.454602
vn -0.459017 -0.366013 -0.809529
vn -0.868373 -0.198194 -0.454586
vn 0.572403 0.130601 -0.809505
vn -0.696403 0.555302 -0.454602
vn 0.459017 -0.366013 -0.809529
vn 0.386490 -0.802480 -0.454589
vn -0.254713 0.528927 -0.809541
vn -0.386490 -0.802480 -0.454589
vn 0.254713 0.528927 -0.809541
vn 0.696403 0.555302 -0.454602
vn -0.459017 -0.366013 -0.809529
vn 0.868373 -0.198194 -0.454586
vn -0.572403 0.130601 -0.809505
vn -0.696403 0.555302 -0.454602
vn 0.459017 -0.366013 -0.809529
vn 0.000000 0.890697 -0.454598
vn 0.000000 -0.587107 -0.809509
f 2/1/1 16/2/2 7/4/3
f 7/4/3 16/2/2 21/3/4
f 7/4/5 14/5/6 2/1/7
f 2/1/7 14/5/6 9/6/8
f 5/7/9 12/8/10 6/10/11
f 6/10/11 12/8/10 13/9/12
f 3/11/13 10/12/14 4/14/15
f 4/14/15 10/12/14 11/13/16
f 2/1/17 9/6/18 1/16/19
f 1/16/19 9/6/18 8/15/20
f 6/10/21 13/9/22 7/4/23
f 7/4/23 13/9/22 14/5/24
f 4/14/25 11/13/26 5/7/27
f 5/7/27 11/13/26 12/8/28
f 1/16/29 8/15/30 3/11/31
f 3/11/31 8/15/30 10/12/32
f 15/17/33 17/18/34 16/2/35
f 18/19/36 19/20/37 17/18/34
f 20/21/38 21/3/39 19/20/37
f 17/18/34 19/20/37 16/2/35
f 19/20/37 21/3/39 16/2/35
f 6/10/40 20/21/41 5/7/42
f 5/7/42 20/21/41 19/20/43
f 4/14/44 18/19/45 3/11/46
f 3/11/46 18/19/45 17/18/47
f 1/16/48 15/17/49 2/1/50
f 2/1/50 15/17/49 16/2/51
f 7/4/52 21/3/53 6/10/54
f 6/10/54 21/3/53 20/21/55
f 5/7/56 19/20/57 4/14/58
f 4/14/58 19/20/57 18/19/59
f 3/11/60 17/18/61 1/16/62
f 1/16/62 17/18/61 15/17/63
f 27/22/64 58/23/65 28/25/66
f 28/25/66 58/23/65 57/24/67
f 26/26/68 59/27/69 25/29/70
f 25/29/70 59/27/69 60/28/71
f 24/30/72 61/31/73 23/33/74
f 23/33/74 61/31/73 62/32/75
f 22/34/76 63/35/77 27/22/78
f 27/22/78 63/35/77 58/23/79
f 28/36/80 57/37/81 26/39/82
f 26/39/82 57/37/81 59/38/83
f 25/29/84 60/28/85 24/30/86
f 24/30/86 60/28/85 61/31/87
f 57/40/88 58/41/89 59/46/90
f 63/42/91 62/43/92 58/41/89
f 61/44/93 60/45/94 62/43/92
f 58/41/89 62/43/92 59/46/90
f 62/43/92 60/45/94 59/46/90
f 32/47/95 25/29/96 31/48/97
f 31/48/97 25/29/96 24/30/98
f 30/49/99 23/50/100 29/52/101
f 29/52/101 23/50/100 22/51/102
f 34/53/103 27/22/104 35/54/105
f 35/54/105 27/22/104 28/25/106
f 33/55/107 26/26/108 32/47/109
f 32/47/109 26/26/108 25/29/110
f 31/48/111 24/30/112 30/56/113
f 30/56/113 24/30/112 23/33/114
f 29/57/115 22/34/116 34/53/117
f 34/53/117 22/34/116 27/22/118
f 23/50/119 62/58/120 22/51/121
f 22/51/121 62/58/120 63/59/122
f 35/60/123 28/36/124 33/61/125
f 33/61/125 28/36/124 26/39/126
f 36/62/127 38/63/128 43/65/129
f 43/65/129 38/63/128 45/64/130
f 48/66/131 49/67/132 55/69/133
f 55/69/133 49/67/132 56/68/134
f 42/70/135 37/71/136 49/73/137
f 49/73/137 37/71/136 44/72/138
f 40/74/139 41/75/140 47/76/141
f 47/76/141 41/75/140 48/66/142
f 38/63/143 39/77/144 45/64/145
f 45/64/145 39/77/144 46/78/146
f 37/71/147 36/79/148 44/72/149
f 44/72/149 36/79/148 43/80/150
f 41/75/151 42/81/152 48/66/153
f 48/66/153 42/81/152 49/67/154
f 39/82/155 40/83/156 46/85/157
f 46/85/157 40/83/156 47/84/158
f 50/86/159 52/87/160 51/92/161
f 53/88/162 54/89/163 52/87/160
f 55/90/164 56/91/165 54/89/163
f 52/87/160 54/89/163 51/92/161
f 54/89/163 56/91/165 51/92/161
f 46/85/166 47/84/167 53/94/168
f 53/94/168 47/84/167 54/93/169
f 43/65/170 45/64/171 50/96/172
f 50/96/172 45/64/171 52/95/173
f 49/73/174 44/72/175 56/98/176
f 56/98/176 44/72/175 51/97/177
f 47/76/178 48/66/179 54/99/180
f 54/99/180 48/66/179 55/69/181
f 45/64/182 46/78/183 52/95/184
f 52/95/184 46/78/183 53/100/185
f 44/72/186 43/80/187 51/97/188
f 51/97/188 43/80/187 50/101/189
f 40/102/190 31/103/191 41/105/192
f 41/105/192 31/103/191 30/104/193
f 38/106/194 33/107/195 39/109/196
f 39/109/196 33/107/195 32/108/197
f 37/110/198 34/111/199 36/113/200
f 36/113/200 34/111/199 35/112/201
f 41/105/202 30/104/203 42/115/204
f 42/115/204 30/104/203 29/114/205
f 39/109/206 32/108/207 40/102/208
f 40/102/208 32/108/207 31/103/209
f 36/113/210 35/112/211 38/106/212
f 38/106/212 35/112/211 33/107/213
f 42/115/214 29/114/215 37/110/216
f 37/110/216 29/114/215 34/111/217
