# This file uses centimeters as units for non-parametric coordinates.

v -0.021567 0.067104 0.048328
v 0.006855 0.060801 0.067934
v 0.037111 0.067104 0.048328
v -0.032253 0.074992 0.010074
v 0.004474 0.088463 0.010227
v 0.042137 0.074992 0.010074
v 0.007528 0.047752 -0.121521
v 0.030517 0.057449 -0.127706
v 0.052528 0.051791 -0.112333
v -0.000095 0.002944 -0.122759
v 0.041581 -0.000599 -0.169421
v 0.058872 0.004263 -0.122395
v 0.008638 -0.047269 -0.126586
v 0.030309 -0.053604 -0.127112
v 0.052555 -0.034556 -0.101280
v -0.033305 -0.064787 0.010074
v 0.004474 -0.079468 0.009909
v 0.043188 -0.064787 0.010074
v -0.022425 -0.052592 0.044928
v 0.009548 -0.056509 0.059957
v 0.037912 -0.052592 0.044928
v -0.028305 0.008032 0.086001
v 0.009190 0.008032 0.108466
v 0.046686 0.008032 0.086001
v 0.054437 0.000896 0.009762
v -0.045625 0.001011 0.008544
v -0.030857 -0.002151 -0.078941
v -0.020327 0.067390 -0.077951
v 0.015262 0.080125 -0.069949
v 0.052850 0.069680 -0.062374
v 0.060383 0.001584 -0.059360
v 0.052479 -0.066332 -0.057164
v 0.018080 -0.079607 -0.064428
v -0.020336 -0.072033 -0.072819
v 0.036200 0.046416 -0.146563
v 0.020827 0.036462 -0.143745
v 0.013351 0.004806 -0.147656
v 0.018603 -0.026173 -0.145838
v 0.030845 -0.052728 -0.143316
v 0.052118 -0.040018 -0.120047
v 0.061627 0.007976 -0.140100
v 0.048732 0.034137 -0.133363
vt 0.101924 0.355240
vt 0.095877 0.346481
vt 0.117686 0.356551
vt 0.115984 0.362350
vt 0.100056 0.352772
vt 0.113168 0.359003
vt 0.151286 0.381671
vt 0.150527 0.388152
vt 0.146007 0.383207
vt 0.164743 0.402751
vt 0.166850 0.412855
vt 0.158384 0.431398
vt 0.149075 0.424237
vt 0.161748 0.410193
vt 0.161586 0.397102
vt 0.147655 0.420517
vt 0.154078 0.422924
vt 0.131729 0.447982
vt 0.146376 0.444997
vt 0.134393 0.452990
vt 0.129226 0.449488
vt 0.131570 0.440173
vt 0.127943 0.433210
vt 0.078414 0.407464
vt 0.082691 0.405442
vt 0.111450 0.435550
vt 0.107457 0.434866
vt 0.080920 0.400555
vt 0.109317 0.427633
vt 0.062730 0.391680
vt 0.074528 0.392869
vt 0.073342 0.389331
vt 0.068618 0.357812
vt 0.076311 0.364831
vt 0.074778 0.361364
vt 0.095816 0.380494
vt 0.127467 0.405153
vt 0.099236 0.386258
vt 0.131996 0.412800
vt 0.169105 0.398970
vt 0.170573 0.408331
vt 0.160469 0.434897
vn -0.008405 0.721827 0.692023
vn -0.003256 0.977735 0.209818
vn -0.632029 0.629392 0.452112
vn -0.680145 0.732088 0.038073
vn 0.652065 0.648279 0.393123
vn 0.673487 0.731946 0.103296
vn 0.004552 0.968673 -0.248297
vn -0.768281 0.530464 -0.358263
vn 0.844988 0.533101 -0.042413
vn -0.639247 0.497238 -0.586616
vn -0.627113 0.410561 -0.661943
vn -0.843994 0.032406 -0.535372
vn -0.678329 0.093013 -0.728847
vn 0.794385 0.531623 -0.293818
vn 0.999102 0.042307 -0.002494
vn 0.840500 0.482737 -0.246019
vn 0.957524 0.168863 -0.233737
vn -0.701464 -0.221999 -0.677247
vn -0.023665 -0.806835 -0.590303
vn -0.615631 -0.570371 -0.543761
vn 0.268462 -0.958983 -0.090997
vn 0.854480 -0.510023 -0.098693
vn 0.850797 -0.513846 -0.110036
vn -0.835396 -0.538169 0.111753
vn -0.590295 -0.759729 -0.272696
vn -0.027997 -0.968582 0.247115
vn 0.205810 -0.952102 -0.226152
vn 0.682171 -0.705677 0.191474
vn 0.869635 -0.487713 -0.076628
vn -0.648612 -0.593188 0.476898
vn 0.009816 -0.727146 0.686413
vn 0.687280 -0.607544 0.398168
vn -0.728872 -0.007745 0.684606
vn -0.002731 0.005640 0.999980
vn 0.761071 0.001534 0.648667
vn 0.991828 -0.002456 0.127558
vn 0.999964 -0.008444 -0.001170
vn -0.995897 0.018652 0.088552
vn -0.916034 -0.026348 -0.400234
vn 0.062666 0.854086 -0.516343
vn 0.214914 0.608799 -0.763660
vn 0.162316 -0.131284 -0.977966
f 2/2/1 5/3/2 1/1/3
f 1/1/3 5/3/2 4/4/4
f 2/2/1 3/5/5 5/3/2
f 5/3/2 3/5/5 6/6/6
f 5/3/2 29/7/7 4/4/4
f 4/4/4 29/7/7 28/8/8
f 5/3/2 6/6/6 29/7/7
f 29/7/7 6/6/6 30/9/9
f 7/10/10 36/11/11 10/13/12
f 10/13/12 36/11/11 37/12/13
f 9/15/14 12/16/15 42/14/16
f 42/14/16 12/16/15 41/17/17
f 38/19/18 39/20/19 13/18/20
f 13/18/20 39/20/19 14/21/21
f 15/23/22 14/21/21 40/22/23
f 40/22/23 14/21/21 39/20/19
f 16/25/24 34/26/25 17/24/26
f 17/24/26 34/26/25 33/27/27
f 17/24/26 33/27/27 18/28/28
f 18/28/28 33/27/27 32/29/29
f 16/25/24 17/24/26 19/31/30
f 19/31/30 17/24/26 20/30/31
f 18/28/28 21/32/32 17/24/26
f 17/24/26 21/32/32 20/30/31
f 19/31/30 20/30/31 22/34/33
f 22/34/33 20/30/31 23/33/34
f 21/32/32 24/35/35 20/30/31
f 20/30/31 24/35/35 23/33/34
f 23/33/34 2/2/1 22/34/33
f 22/34/33 2/2/1 1/1/3
f 23/33/34 24/35/35 2/2/1
f 2/2/1 24/35/35 3/5/5
f 24/35/35 21/32/32 25/36/36
f 25/36/36 21/32/32 18/28/28
f 24/35/35 25/36/36 3/5/5
f 3/5/5 25/36/36 6/6/6
f 18/28/28 32/29/29 25/36/36
f 25/36/36 32/29/29 31/37/37
f 6/6/6 25/36/36 30/9/9
f 30/9/9 25/36/36 31/37/37
f 22/34/33 26/38/38 19/31/30
f 19/31/30 26/38/38 16/25/24
f 22/34/33 1/1/3 26/38/38
f 26/38/38 1/1/3 4/4/4
f 26/38/38 27/39/39 16/25/24
f 16/25/24 27/39/39 34/26/25
f 4/4/4 28/8/8 26/38/38
f 26/38/38 28/8/8 27/39/39
f 28/8/8 29/7/7 7/10/10
f 7/10/10 29/7/7 8/40/40
f 28/8/8 7/10/10 27/39/39
f 27/39/39 7/10/10 10/13/12
f 34/26/25 27/39/39 13/18/20
f 13/18/20 27/39/39 10/13/12
f 14/21/21 33/27/27 13/18/20
f 13/18/20 33/27/27 34/26/25
f 14/21/21 15/23/22 33/27/27
f 33/27/27 15/23/22 32/29/29
f 32/29/29 15/23/22 31/37/37
f 31/37/37 15/23/22 12/16/15
f 30/9/9 31/37/37 9/15/14
f 9/15/14 31/37/37 12/16/15
f 30/9/9 9/15/14 29/7/7
f 29/7/7 9/15/14 8/40/40
f 7/10/10 8/40/40 36/11/11
f 36/11/11 8/40/40 35/41/41
f 41/17/17 12/16/15 40/22/23
f 40/22/23 12/16/15 15/23/22
f 37/12/13 38/19/18 10/13/12
f 10/13/12 38/19/18 13/18/20
f 9/15/14 42/14/16 8/40/40
f 8/40/40 42/14/16 35/41/41
f 11/42/42 37/12/13 35/41/41
f 35/41/41 37/12/13 36/11/11
f 39/20/19 38/19/18 11/42/42
f 11/42/42 38/19/18 37/12/13
f 39/20/19 11/42/42 40/22/23
f 40/22/23 11/42/42 41/17/17
f 42/14/16 41/17/17 35/41/41
f 35/41/41 41/17/17 11/42/42
