# This file uses centimeters as units for non-parametric coordinates.

v 0.042380 0.038588 0.146537
v 0.079320 0.046026 0.113404
v 0.094918 0.044538 0.076713
v -0.033720 0.047254 -0.000933
v 0.006110 0.083844 0.016285
v 0.054731 0.056799 0.016771
v -0.037272 -0.040994 -0.010719
v -0.011465 -0.046944 -0.028636
v 0.028908 -0.047773 -0.008893
v 0.034399 -0.061767 0.124758
v 0.069726 -0.060958 0.125205
v 0.072920 -0.053378 0.081451
v 0.022336 -0.018137 0.143831
v 0.085132 -0.022867 0.130567
v 0.089981 -0.012880 0.073486
v -0.044310 -0.010004 -0.006044
v -0.025093 -0.017325 0.075364
v -0.004426 0.047153 0.072108
v 0.013134 0.061140 0.063263
v 0.061722 0.032243 0.061217
v 0.038690 -0.025877 0.062522
v 0.033601 -0.066763 0.025681
v 0.001964 -0.070048 0.029416
v -0.017775 -0.062995 0.046728
v 0.068924 0.044830 0.076662
v 0.083841 0.028008 0.070309
v 0.093853 0.052059 0.041293
v 0.079358 0.067516 0.060985
v 0.033646 -0.005679 0.002044
v -0.015923 -0.002563 -0.039443
v 0.097600 0.024777 0.138031
v 0.046597 0.032396 0.008210
v -0.012360 0.023476 -0.031605
v 0.056946 0.060543 0.077576
v 0.047683 0.092062 0.039035
v 0.075162 0.064936 0.035844
v -0.012559 -0.017441 0.109168
v 0.062695 0.046888 0.080472
v -0.002596 -0.071357 0.093154
v 0.017623 0.046710 0.107862
v 0.037574 0.057043 0.095995
v 0.043673 -0.071322 0.074975
v 0.022648 -0.072828 0.090631
v 0.012244 -0.063201 0.112579
vt 0.538771 0.267069
vt 0.533630 0.259862
vt 0.516680 0.263262
vt 0.526913 0.267161
vt 0.518727 0.288911
vt 0.536404 0.273236
vt 0.520871 0.292675
vt 0.560119 0.305417
vt 0.568905 0.307169
vt 0.547027 0.335277
vt 0.546300 0.329486
vt 0.541116 0.274126
vt 0.518771 0.274943
vt 0.530363 0.316224
vt 0.525305 0.290579
vt 0.548989 0.299612
vt 0.539984 0.335771
vt 0.524654 0.329247
vt 0.525744 0.329705
vt 0.526787 0.296856
vt 0.528778 0.297644
vt 0.533129 0.320598
vt 0.559176 0.305027
vt 0.568001 0.262939
vt 0.554105 0.240445
vt 0.549704 0.253370
vt 0.552305 0.300099
vt 0.541739 0.286554
vt 0.573316 0.268425
vt 0.566049 0.263705
vt 0.565229 0.252006
vt 0.559430 0.245645
vt 0.549334 0.257197
vt 0.537391 0.253402
vt 0.530854 0.253973
vt 0.549671 0.279556
vt 0.573330 0.293396
vt 0.566403 0.285817
vt 0.554659 0.279377
vt 0.541932 0.269475
vt 0.556980 0.271070
vt 0.564526 0.276563
vt 0.574696 0.277471
vt 0.568695 0.287459
vn 0.040357 -0.173849 0.983945
vn 0.588192 -0.473998 0.655252
vn 0.668701 0.598255 0.441508
vn 0.762264 -0.193626 -0.617626
vn 0.620520 0.132116 -0.772981
vn 0.722197 -0.654404 -0.224022
vn 0.702918 0.045764 -0.709797
vn -0.955037 -0.014359 0.296140
vn -0.971728 0.006668 -0.236008
vn -0.807504 -0.581420 0.099440
vn -0.741288 -0.548370 -0.387018
vn -0.100032 0.233652 0.967161
vn 0.667469 0.256926 -0.698909
vn -0.188896 0.885186 -0.425164
vn 0.243739 0.969833 0.003812
vn -0.291406 0.811277 0.506865
vn -0.872942 0.473555 -0.117125
vn -0.028350 0.363066 -0.931332
vn -0.229163 -0.005882 -0.973370
vn 0.835728 -0.082761 -0.542871
vn 0.072997 -0.538311 -0.839579
vn 0.538208 -0.548666 -0.639764
vn -0.728759 0.564428 0.387727
vn -0.077804 0.575768 0.813903
vn 0.829773 0.301706 0.469522
vn 0.285985 0.938794 0.192040
vn -0.124263 -0.971202 -0.203286
vn 0.815563 -0.506777 -0.279346
vn -0.423370 -0.130132 0.896562
vn -0.081648 -0.643361 0.761197
vn 0.605037 -0.334073 0.722721
vn 0.430957 -0.812308 0.392978
vn 0.687480 -0.649073 -0.325693
vn 0.729665 -0.175269 -0.660961
vn 0.623194 0.703785 -0.341051
vn 0.815413 -0.183603 -0.548992
vn -0.588227 0.644704 0.488206
vn -0.824438 0.019067 0.565631
vn 0.058663 0.998273 0.003085
vn 0.333667 0.686690 -0.645850
vn 0.511975 -0.827052 -0.232093
vn 0.085603 -0.977800 0.191258
vn -0.421031 -0.650237 0.632396
vn -0.589503 -0.745089 0.311974
f 25/1/1 26/2/2 28/4/3
f 28/4/3 26/2/2 27/3/4
f 6/5/5 20/6/6 32/7/7
f 17/9/8 16/10/9 24/8/10
f 24/8/10 16/10/9 7/11/11
f 34/12/12 20/6/6 25/1/1
f 25/1/1 20/6/6 26/2/2
f 36/13/13 27/3/4 20/6/6
f 20/6/6 27/3/4 26/2/2
f 5/14/14 35/15/15 6/5/5
f 6/5/5 35/15/15 36/13/13
f 5/14/14 19/16/16 35/15/15
f 35/15/15 19/16/16 34/12/12
f 4/17/17 33/18/18 16/10/9
f 16/10/9 33/18/18 30/19/19
f 6/5/5 32/7/7 5/14/14
f 5/14/14 32/7/7 33/18/18
f 30/19/19 29/20/20 8/22/21
f 8/22/21 29/20/20 9/21/22
f 16/10/9 30/19/19 7/11/11
f 7/11/11 30/19/19 8/22/21
f 16/10/9 17/9/8 4/17/17
f 4/17/17 17/9/8 18/23/23
f 32/7/7 29/20/20 33/18/18
f 33/18/18 29/20/20 30/19/19
f 35/15/15 34/12/12 28/4/3
f 28/4/3 34/12/12 25/1/1
f 35/15/15 28/4/3 36/13/13
f 36/13/13 28/4/3 27/3/4
f 20/6/6 6/5/5 36/13/13
f 1/24/24 31/25/25 2/26/26
f 33/18/18 4/17/17 5/14/14
f 19/16/16 20/6/6 34/12/12
f 4/17/17 18/23/23 5/14/14
f 5/14/14 18/23/23 19/16/16
f 8/22/21 23/27/27 7/11/11
f 7/11/11 23/27/27 24/8/10
f 8/22/21 9/21/22 23/27/27
f 23/27/27 9/21/22 22/28/28
f 13/29/29 10/30/30 14/32/31
f 14/32/31 10/30/30 11/31/32
f 11/31/32 12/33/33 14/32/31
f 14/32/31 12/33/33 15/34/34
f 31/25/25 1/24/24 14/32/31
f 14/32/31 1/24/24 13/29/29
f 3/35/35 31/25/25 15/34/34
f 15/34/34 31/25/25 14/32/31
f 21/36/36 22/28/28 29/20/20
f 29/20/20 22/28/28 9/21/22
f 40/38/37 18/23/23 37/37/38
f 37/37/38 18/23/23 17/9/8
f 18/23/23 40/38/37 19/16/16
f 19/16/16 40/38/37 41/39/39
f 38/40/40 20/6/6 41/39/39
f 41/39/39 20/6/6 19/16/16
f 21/36/36 20/6/6 38/40/40
f 21/36/36 42/41/41 22/28/28
f 43/42/42 23/27/27 42/41/41
f 42/41/41 23/27/27 22/28/28
f 44/43/43 39/44/44 43/42/42
f 43/42/42 39/44/44 23/27/27
f 37/37/38 17/9/8 39/44/44
f 39/44/44 17/9/8 24/8/10
f 44/43/43 37/37/38 39/44/44
f 37/37/38 13/29/29 40/38/37
f 40/38/37 13/29/29 1/24/24
f 2/26/26 41/39/39 1/24/24
f 1/24/24 41/39/39 40/38/37
f 41/39/39 2/26/26 38/40/40
f 38/40/40 2/26/26 3/35/35
f 31/25/25 3/35/35 2/26/26
f 32/7/7 20/6/6 29/20/20
f 29/20/20 20/6/6 21/36/36
f 24/8/10 23/27/27 39/44/44
f 21/36/36 38/40/40 15/34/34
f 15/34/34 38/40/40 3/35/35
f 42/41/41 21/36/36 12/33/33
f 12/33/33 21/36/36 15/34/34
f 42/41/41 12/33/33 43/42/42
f 43/42/42 12/33/33 11/31/32
f 44/43/43 43/42/42 10/30/30
f 10/30/30 43/42/42 11/31/32
f 37/37/38 44/43/43 13/29/29
f 13/29/29 44/43/43 10/30/30
