# This file uses centimeters as units for non-parametric coordinates.

v -0.040112 0.082282 -0.007750
v -0.006224 0.083217 -0.007750
v 0.034659 0.044225 -0.007483
v -0.076501 -0.019607 -0.022609
v -0.026478 -0.056570 -0.022609
v 0.019797 -0.066006 -0.000947
v 0.052902 0.010646 -0.000804
v -0.008926 0.019277 0.081104
v -0.015680 -0.017380 0.071070
v -0.047728 -0.005714 0.071045
v -0.048614 0.024071 0.071253
v -0.024885 0.048106 0.071212
v -0.004379 0.050068 0.071193
v 0.025227 0.037968 0.071245
v 0.029850 0.013660 0.071264
v 0.011737 -0.013452 0.071203
v -0.055019 0.024868 0.066227
v -0.057701 0.000587 0.065948
v -0.077573 -0.002909 -0.016915
v -0.061220 0.023844 -0.067261
v -0.056367 0.003159 -0.068131
v -0.011522 -0.008425 -0.073264
v 0.039544 -0.014767 -0.069315
v 0.036961 0.038851 -0.076307
v 0.022514 0.052395 -0.062032
v -0.014294 0.066671 -0.062229
v -0.049268 0.054972 -0.059479
v -0.022756 0.052015 -0.073976
v -0.013949 0.030114 -0.085485
v -0.019615 0.002341 -0.082630
vt 0.060910 0.329007
vt 0.065963 0.323524
vt 0.086998 0.342832
vt 0.075339 0.351984
vt 0.062248 0.325581
vt 0.085665 0.339753
vt 0.055977 0.376684
vt 0.061668 0.373436
vt 0.040000 0.356391
vt 0.040697 0.357553
vt 0.064539 0.361830
vt 0.037123 0.343451
vt 0.054749 0.327382
vt 0.092520 0.349922
vt 0.042161 0.352400
vt 0.063906 0.370704
vt 0.021032 0.311833
vt 0.015606 0.317624
vt 0.014038 0.315602
vt 0.020021 0.309162
vt 0.028946 0.300325
vt 0.032558 0.296964
vt 0.016691 0.313422
vt 0.021641 0.308660
vt 0.021658 0.300833
vt 0.029934 0.300290
vt 0.034407 0.295552
vt 0.071121 0.378146
vt 0.088189 0.357134
vt 0.086694 0.370201
vn 0.291460 0.953437 0.077523
vn -0.015917 0.845170 -0.534261
vn -0.552031 0.832945 0.038280
vn -0.643399 0.610974 -0.461247
vn 0.711293 0.698649 0.077151
vn 0.393838 0.766543 -0.507251
vn -0.144815 -0.702390 -0.696905
vn -0.327551 -0.911901 -0.247281
vn -0.603699 -0.423455 -0.675451
vn -0.845834 -0.532853 -0.025141
vn 0.452018 -0.571605 -0.684798
vn 0.442552 -0.873693 0.202008
vn 0.990836 -0.020617 0.133490
vn 0.655790 0.385875 -0.648876
vn -0.986821 0.153409 -0.051470
vn -0.627532 0.148297 -0.764338
vn -0.783442 0.378008 0.493284
vn -0.818308 -0.165209 0.550526
vn -0.420902 0.151034 0.894444
vn -0.443984 -0.511620 0.735611
vn -0.268315 0.654279 0.707054
vn 0.244045 0.736500 0.630880
vn -0.136351 -0.667781 0.731763
vn 0.468858 -0.492222 0.733409
vn 0.006720 0.022921 0.999715
vn 0.656578 -0.135726 0.741946
vn 0.629760 0.478264 0.612099
vn -0.114170 -0.315608 -0.941996
vn -0.137518 0.511995 -0.847909
vn -0.071217 0.307181 -0.948983
f 2/2/1 26/3/2 1/1/3
f 1/1/3 26/3/2 27/4/4
f 3/5/5 25/6/6 2/2/1
f 2/2/1 25/6/6 26/3/2
f 22/8/7 5/9/8 21/7/9
f 21/7/9 5/9/8 4/10/10
f 22/8/7 23/11/11 5/9/8
f 5/9/8 23/11/11 6/12/12
f 6/12/12 23/11/11 7/13/13
f 7/13/13 23/11/11 24/14/14
f 7/13/13 24/14/14 3/5/5
f 3/5/5 24/14/14 25/6/6
f 4/10/10 19/15/15 21/7/9
f 21/7/9 19/15/15 20/16/16
f 1/1/3 27/4/4 19/15/15
f 19/15/15 27/4/4 20/16/16
f 17/17/17 18/18/18 11/20/19
f 11/20/19 18/18/18 10/19/20
f 1/1/3 12/21/21 2/2/1
f 2/2/1 12/21/21 13/22/22
f 9/23/23 16/24/24 8/25/25
f 15/26/26 7/13/13 14/27/27
f 14/27/27 7/13/13 3/5/5
f 12/21/21 1/1/3 17/17/17
f 18/18/18 17/17/17 19/15/15
f 1/1/3 19/15/15 17/17/17
f 14/27/27 3/5/5 13/22/22
f 13/22/22 3/5/5 2/2/1
f 6/12/12 7/13/13 16/24/24
f 16/24/24 7/13/13 15/26/26
f 9/23/23 10/19/20 5/9/8
f 5/9/8 10/19/20 4/10/10
f 9/23/23 8/25/25 10/19/20
f 11/20/19 10/19/20 8/25/25
f 12/21/21 11/20/19 8/25/25
f 13/22/22 12/21/21 8/25/25
f 8/25/25 14/27/27 13/22/22
f 8/25/25 15/26/26 14/27/27
f 16/24/24 15/26/26 8/25/25
f 16/24/24 9/23/23 6/12/12
f 6/12/12 9/23/23 5/9/8
f 10/19/20 18/18/18 4/10/10
f 4/10/10 18/18/18 19/15/15
f 12/21/21 17/17/17 11/20/19
f 21/7/9 30/28/28 22/8/7
f 27/4/4 26/3/2 28/29/29
f 27/4/4 28/29/29 20/16/16
f 20/16/16 28/29/29 29/30/30
f 29/30/30 30/28/28 20/16/16
f 20/16/16 30/28/28 21/7/9
f 28/29/29 26/3/2 25/6/6
f 28/29/29 25/6/6 29/30/30
f 29/30/30 25/6/6 24/14/14
f 29/30/30 24/14/14 30/28/28
f 30/28/28 24/14/14 23/11/11
f 22/8/7 30/28/28 23/11/11
