# This file uses centimeters as units for non-parametric coordinates.

v -0.116011 -0.165394 0.180518
v 0.090990 -0.175800 0.179411
v -0.074001 -0.033012 0.183222
v -0.002858 -0.028340 0.201125
v 0.072722 -0.029614 0.188385
v -0.072319 0.127610 0.162860
v 0.001882 0.088513 0.155478
v 0.070273 0.130780 0.146631
v -0.203022 0.201270 -0.022399
v -0.013034 0.389178 -0.140732
v 0.179010 0.227684 -0.050779
v -0.195947 0.217869 -0.166139
v -0.001934 0.239933 -0.235424
v 0.170545 0.220885 -0.198153
v -0.194250 0.087072 -0.196008
v -0.008229 0.088008 -0.226481
v 0.161969 0.069763 -0.208306
v -0.190807 -0.106116 -0.203422
v 0.009900 -0.134393 -0.212599
v 0.189359 -0.109270 -0.155342
v -0.277537 -0.187337 -0.102132
v 0.268311 -0.167360 -0.086081
v 0.259645 -0.010146 -0.009737
v -0.257993 -0.009959 -0.008961
v -0.005727 0.265940 0.027146
v 0.162792 0.177679 0.078033
v 0.236687 -0.015969 0.073902
v 0.256852 -0.173868 0.046287
v -0.238963 -0.171465 0.048217
v -0.233261 -0.016693 0.088190
v -0.168290 0.170042 0.080494
v -0.204926 0.259416 -0.103092
v -0.244540 0.069021 -0.146441
v -0.238484 -0.183962 -0.179610
v 0.242927 -0.164424 -0.162285
v 0.245749 0.067335 -0.145663
v 0.185930 0.281040 -0.150928
v -0.006558 0.308741 -0.196108
v -0.002043 0.205952 0.108910
v -0.120952 0.246768 0.042269
v -0.161712 0.274296 -0.023233
v -0.193155 0.282976 -0.100014
v -0.009494 0.291579 -0.215562
v 0.174496 0.295036 -0.134138
v 0.157676 0.276244 -0.055980
v 0.107975 0.231722 0.051498
v -0.052626 0.215302 0.101400
v 0.047721 0.218303 0.068765
v -0.062157 -0.151672 -0.219638
v 0.077575 -0.151459 -0.228364
v 0.057263 0.291953 -0.220996
v 0.058309 0.244643 -0.228845
v 0.060093 0.100092 -0.227622
v -0.107903 0.297367 -0.195776
v -0.095546 0.242662 -0.207907
v -0.060544 0.095221 -0.226310
v 0.054769 0.310552 -0.198694
v -0.099671 0.305772 -0.155678
v -0.003232 -0.166567 0.196461
v 0.079437 -0.250365 -0.191400
v 0.010391 -0.228568 -0.325388
v -0.077424 -0.228065 -0.218805
v -0.168968 -0.303563 0.059438
v 0.006548 -0.322579 0.053502
v 0.159987 -0.298330 0.053591
v -0.158497 -0.328392 -0.027845
v 0.009470 -0.347135 -0.028439
v 0.153575 -0.327879 -0.024376
v 0.046296 0.263686 0.039268
v 0.041069 0.385729 -0.139525
v -0.062471 0.385984 -0.140502
v -0.057581 0.264445 0.034481
v 0.089756 -0.240535 -0.281374
v 0.074856 -0.270543 -0.272615
v 0.010098 -0.300384 -0.269722
v -0.059989 -0.267388 -0.274211
v -0.065063 -0.202455 -0.286508
v -0.024159 -0.153112 -0.280097
v 0.010546 -0.146309 -0.279403
v 0.069134 -0.162016 -0.280196
v 0.056451 -0.287293 -0.186313
v 0.021138 -0.304677 -0.172851
v -0.079579 -0.274683 -0.187392
v -0.175395 0.250107 -0.022957
v -0.136999 0.220759 0.055226
v -0.059032 0.186775 0.121393
v -0.000955 0.173403 0.121817
v 0.057697 0.179586 0.103210
v 0.133571 0.209986 0.065091
v 0.168473 0.247092 -0.053848
vt 0.247329 0.264034
vt 0.305143 0.262865
vt 0.305938 0.346679
vt 0.261140 0.342666
vt 0.366060 0.260502
vt 0.352892 0.345512
vt 0.314133 0.419875
vt 0.271110 0.432766
vt 0.353909 0.426133
vt 0.277582 0.505553
vt 0.211968 0.536779
vt 0.201064 0.465523
vt 0.382375 0.507889
vt 0.400318 0.459360
vt 0.430664 0.472494
vt 0.416546 0.528172
vt 0.415220 0.348596
vt 0.442286 0.354435
vt 0.164903 0.258897
vt 0.179431 0.263008
vt 0.183146 0.349183
vt 0.173756 0.351260
vt 0.193594 0.481636
vt 0.310779 0.519790
vt 0.314560 0.496496
vt 0.345824 0.502667
vt 0.341776 0.523284
vt 0.429094 0.262354
vt 0.200823 0.543179
vt 0.844319 0.799428
vt 0.849098 0.760879
vt 0.273222 0.526596
vt 0.825297 0.791557
vt 0.829654 0.811985
vt 0.890407 0.573697
vt 0.869188 0.567784
vt 0.841303 0.570296
vt 0.822166 0.769536
vt 0.725872 0.864466
vt 0.831186 0.855926
vt 0.781933 0.837969
vt 0.725989 0.838132
vt 0.632877 0.803941
vt 0.611925 0.786416
vt 0.620269 0.813440
vt 0.634155 0.824818
vt 0.593526 0.429471
vt 0.560512 0.404703
vt 0.575836 0.547514
vt 0.594135 0.577209
vt 0.636034 0.766557
vt 0.620245 0.577736
vt 0.623798 0.459884
vt 0.673344 0.837651
vt 0.638092 0.858917
vt 0.727694 0.557039
vt 0.725412 0.766209
vt 0.773563 0.768969
vt 0.778955 0.566690
vt 0.731473 0.446982
vt 0.764258 0.442933
vt 0.884188 0.415807
vt 0.277275 0.536591
vt 0.312618 0.531602
vt 0.343605 0.533318
vt 0.450812 0.242678
vt 0.373477 0.213502
vt 0.306752 0.214947
vt 0.230962 0.211450
vt 0.235729 0.202901
vt 0.306287 0.206215
vt 0.367439 0.202204
vt 0.872202 0.430098
vt 0.833427 0.459774
vt 0.724331 0.816142
vt 0.782841 0.820287
vt 0.677957 0.817604
vt 0.690765 0.446724
vt 0.682225 0.567029
vt 0.680475 0.763064
vt 0.666537 0.384487
vt 0.786633 0.396827
vt 0.732153 0.387297
vt 0.665071 0.366818
vt 0.730422 0.353782
vt 0.787118 0.369395
vt 0.772744 0.391906
vt 0.765279 0.373157
vt 0.728906 0.359159
vt 0.697291 0.371586
vt 0.684420 0.384372
vt 0.705494 0.419740
vt 0.730903 0.426373
vt 0.752752 0.423570
vt 0.772582 0.371899
vt 0.729447 0.357241
vt 0.687259 0.370102
vt 0.619164 0.795070
vt 0.198429 0.522794
vt 0.208272 0.512625
vt 0.275477 0.481875
vt 0.314442 0.475260
vt 0.349401 0.468812
vt 0.391866 0.485888
vt 0.845419 0.776712
vt 0.420757 0.504025
vn -0.407089 -0.299108 0.863026
vn -0.015089 -0.255668 0.966647
vn -0.253369 0.126067 0.959120
vn -0.043005 0.169199 0.984643
vn 0.384255 -0.332217 0.861383
vn 0.275537 0.133965 0.951910
vn 0.037028 0.308855 0.950388
vn -0.158485 0.358026 0.920163
vn 0.225673 0.420485 0.878786
vn -0.153927 0.559519 0.814398
vn -0.130091 0.710907 0.691149
vn -0.524374 0.583617 0.620019
vn -0.410801 0.679430 0.607962
vn 0.404858 0.673771 0.618161
vn 0.793513 0.483889 0.369037
vn 0.385794 0.661437 0.643168
vn 0.615560 0.650858 0.444375
vn 0.730600 0.137963 0.668723
vn 0.977783 0.192424 0.083154
vn 0.616580 0.511510 0.598486
vn 0.851315 0.448105 0.272883
vn -0.956724 -0.281734 -0.072839
vn -0.888250 -0.267363 0.373537
vn -0.981667 0.162934 0.098906
vn -0.745155 0.113858 0.657100
vn -0.668162 0.462634 0.582691
vn -0.869209 0.376247 0.320802
vn 0.171040 0.617198 0.767992
vn 0.128540 0.649595 0.749336
vn 0.020519 0.784567 0.619705
vn 0.111346 0.729117 0.675270
vn 0.880217 -0.285431 0.379140
vn -0.756808 0.463120 0.461260
vn -0.517434 0.700414 0.491611
vn -0.090365 0.822467 0.561589
vn -0.355150 0.931102 -0.083177
vn 0.001193 0.986106 -0.166114
vn 0.246069 0.967514 -0.058018
vn 0.131786 0.456666 0.879823
vn 0.210887 0.606449 0.766646
vn 0.722537 0.688962 -0.057200
vn 0.780835 0.571228 -0.252972
vn 0.881113 -0.423670 -0.210105
vn 0.846826 0.133460 -0.514854
vn 0.444033 -0.041713 -0.895039
vn 0.459727 0.161950 -0.873169
vn -0.100408 0.687262 -0.719436
vn 0.172520 0.739480 -0.650696
vn -0.852428 0.507499 -0.125745
vn -0.801860 0.586885 -0.112195
vn -0.730546 -0.240779 -0.639006
vn -0.914267 0.145238 -0.378181
vn -0.668101 0.273309 -0.692057
vn -0.474718 0.095100 -0.874985
vn -0.346876 0.000220 -0.937911
vn -0.452280 0.666658 -0.592461
vn -0.008797 -0.060703 -0.998117
vn -0.063179 0.110543 -0.991861
vn 0.075639 -0.010989 -0.997075
vn 0.191084 0.079565 -0.978344
vn -0.065201 0.520173 -0.851569
vn 0.555867 0.338268 -0.759333
vn 0.674804 -0.101844 -0.730936
vn 0.396714 0.062449 -0.915816
vn -0.124719 0.541437 -0.831439
vn 0.191733 0.472280 -0.860343
vn -0.443344 0.381016 -0.811341
vn -0.112712 -0.002946 -0.993623
vn -0.297620 0.153683 -0.942234
vn -0.369665 0.676037 -0.637433
vn -0.764716 -0.208250 -0.609788
vn 0.068189 0.854718 -0.514594
vn 0.539410 0.542411 -0.644070
vn 0.016884 -0.049340 -0.998639
vn -0.327250 0.760813 -0.560420
vn 0.792352 -0.523885 -0.312607
vn 0.443768 -0.720331 0.533098
vn 0.011095 -0.843314 0.537307
vn -0.504724 -0.702569 0.501649
vn -0.551789 -0.822928 -0.135346
vn 0.029063 -0.993169 -0.113009
vn 0.535907 -0.839315 -0.091399
vn -0.723573 -0.450115 -0.523296
vn -0.795024 0.199895 -0.572694
vn 0.905188 -0.097963 -0.413566
vn 0.650188 -0.670772 -0.356819
vn 0.026966 -0.931670 -0.362303
vn 0.508884 -0.834573 -0.211009
vn 0.066431 -0.983781 -0.166619
vn -0.538172 -0.787981 -0.299094
f 1/1/1 59/2/2 3/4/3
f 3/4/3 59/2/2 4/3/4
f 2/5/5 5/6/6 59/2/2
f 59/2/2 5/6/6 4/3/4
f 4/3/4 7/7/7 3/4/3
f 3/4/3 7/7/7 6/8/8
f 4/3/4 5/6/6 7/7/7
f 7/7/7 5/6/6 8/9/9
f 86/101/10 47/10/11 85/100/12
f 85/100/12 47/10/11 40/11/13
f 89/104/14 90/106/15 46/13/16
f 46/13/16 90/106/15 45/16/17
f 27/17/18 23/18/19 26/14/20
f 26/14/20 23/18/19 11/15/21
f 21/19/22 29/20/23 24/22/24
f 24/22/24 29/20/23 30/21/25
f 30/21/25 31/12/26 24/22/24
f 24/22/24 31/12/26 9/23/27
f 39/25/28 48/26/29 25/24/30
f 25/24/30 48/26/29 69/27/31
f 5/6/6 27/17/18 8/9/9
f 8/9/9 27/17/18 26/14/20
f 28/28/32 27/17/18 2/5/5
f 2/5/5 27/17/18 5/6/6
f 29/20/23 1/1/1 30/21/25
f 30/21/25 1/1/1 3/4/3
f 31/12/26 30/21/25 6/8/8
f 6/8/8 30/21/25 3/4/3
f 85/100/12 40/11/13 84/99/33
f 84/99/33 40/11/13 41/29/34
f 72/32/35 47/10/11 25/24/30
f 25/24/30 47/10/11 39/25/28
f 72/32/35 25/24/30 71/63/36
f 71/63/36 25/24/30 10/64/37
f 69/27/31 70/65/38 25/24/30
f 25/24/30 70/65/38 10/64/37
f 87/102/39 88/103/40 39/25/28
f 39/25/28 88/103/40 48/26/29
f 87/102/39 39/25/28 86/101/10
f 86/101/10 39/25/28 47/10/11
f 88/103/40 89/104/14 48/26/29
f 48/26/29 89/104/14 46/13/16
f 45/30/17 90/105/15 44/34/41
f 44/34/41 90/105/15 37/33/42
f 22/66/43 23/18/19 28/28/32
f 28/28/32 23/18/19 27/17/18
f 23/35/19 36/36/44 11/31/21
f 11/31/21 36/36/44 37/33/42
f 17/37/45 14/38/46 36/36/44
f 36/36/44 14/38/46 37/33/42
f 10/39/37 70/40/38 38/42/47
f 38/42/47 70/40/38 57/41/48
f 32/43/49 84/98/33 42/46/50
f 42/46/50 84/98/33 41/45/34
f 21/48/22 24/49/24 34/47/51
f 34/47/51 24/49/24 33/50/52
f 32/43/49 33/50/52 9/44/27
f 9/44/27 33/50/52 24/49/24
f 32/43/49 12/51/53 33/50/52
f 33/50/52 12/51/53 15/52/54
f 34/47/51 33/50/52 18/53/55
f 18/53/55 33/50/52 15/52/54
f 58/54/56 71/55/36 38/42/47
f 38/42/47 71/55/36 10/39/37
f 16/56/57 13/57/58 53/59/59
f 53/59/59 13/57/58 52/58/60
f 16/56/57 53/59/59 19/60/61
f 19/60/61 53/59/59 50/61/62
f 22/62/43 35/73/63 23/35/19
f 23/35/19 35/73/63 36/36/44
f 35/73/63 20/74/64 36/36/44
f 36/36/44 20/74/64 17/37/45
f 43/75/65 51/76/66 13/57/58
f 13/57/58 51/76/66 52/58/60
f 49/78/67 56/79/68 19/60/61
f 19/60/61 56/79/68 16/56/57
f 12/51/53 55/80/69 15/52/54
f 15/52/54 55/80/69 56/79/68
f 54/77/70 32/43/49 58/54/56
f 58/54/56 32/43/49 42/46/50
f 52/58/60 51/76/66 14/38/46
f 14/38/46 51/76/66 37/33/42
f 17/37/45 53/59/59 14/38/46
f 14/38/46 53/59/59 52/58/60
f 13/57/58 55/80/69 43/75/65
f 43/75/65 55/80/69 54/77/70
f 55/80/69 13/57/58 56/79/68
f 56/79/68 13/57/58 16/56/57
f 53/59/59 17/37/45 50/61/62
f 50/61/62 17/37/45 20/74/64
f 49/78/67 18/53/55 56/79/68
f 56/79/68 18/53/55 15/52/54
f 38/42/47 57/41/48 43/75/65
f 43/75/65 57/41/48 51/76/66
f 58/54/56 38/42/47 54/77/70
f 54/77/70 38/42/47 43/75/65
f 49/78/67 62/81/71 18/53/55
f 18/53/55 62/81/71 34/47/51
f 79/93/72 80/94/73 61/83/74
f 78/92/75 79/93/72 61/83/74
f 20/74/64 35/73/63 50/61/62
f 50/61/62 35/73/63 60/82/76
f 65/67/77 28/28/32 2/5/5
f 65/67/77 2/5/5 64/68/78
f 64/68/78 2/5/5 59/2/2
f 63/69/79 64/68/78 1/1/1
f 1/1/1 64/68/78 59/2/2
f 29/20/23 63/69/79 1/1/1
f 21/19/22 66/70/80 29/20/23
f 29/20/23 66/70/80 63/69/79
f 67/71/81 64/68/78 66/70/80
f 66/70/80 64/68/78 63/69/79
f 67/71/81 68/72/82 64/68/78
f 64/68/78 68/72/82 65/67/77
f 22/66/43 28/28/32 68/72/82
f 68/72/82 28/28/32 65/67/77
f 62/81/71 66/84/80 34/47/51
f 34/47/51 66/84/80 21/48/22
f 76/90/83 77/91/84 61/83/74
f 61/83/74 73/87/85 74/88/86
f 35/73/63 22/62/43 60/82/76
f 60/82/76 22/62/43 68/86/82
f 69/27/31 48/26/29 46/13/16
f 70/65/38 69/27/31 45/16/17
f 45/16/17 69/27/31 46/13/16
f 44/34/41 70/40/38 45/30/17
f 42/46/50 71/55/36 58/54/56
f 40/11/13 72/32/35 41/29/34
f 41/29/34 72/32/35 71/63/36
f 40/11/13 47/10/11 72/32/35
f 44/34/41 37/33/42 57/41/48
f 57/41/48 37/33/42 51/76/66
f 55/80/69 12/51/53 54/77/70
f 54/77/70 12/51/53 32/43/49
f 80/94/73 73/87/85 61/83/74
f 77/91/84 78/92/75 61/83/74
f 61/83/74 74/88/86 75/89/87
f 75/89/87 76/90/83 61/83/74
f 73/87/85 60/82/76 74/88/86
f 74/88/86 60/82/76 81/95/88
f 74/88/86 81/95/88 75/89/87
f 75/89/87 81/95/88 82/96/89
f 82/96/89 83/97/90 75/89/87
f 75/89/87 83/97/90 76/90/83
f 77/91/84 76/90/83 62/81/71
f 62/81/71 76/90/83 83/97/90
f 78/92/75 77/91/84 49/78/67
f 49/78/67 77/91/84 62/81/71
f 79/93/72 78/92/75 19/60/61
f 19/60/61 78/92/75 49/78/67
f 80/94/73 79/93/72 50/61/62
f 50/61/62 79/93/72 19/60/61
f 60/82/76 73/87/85 50/61/62
f 50/61/62 73/87/85 80/94/73
f 81/95/88 60/82/76 68/86/82
f 82/96/89 81/95/88 67/85/81
f 67/85/81 81/95/88 68/86/82
f 66/84/80 83/97/90 67/85/81
f 67/85/81 83/97/90 82/96/89
f 62/81/71 83/97/90 66/84/80
f 32/43/49 9/44/27 84/98/33
f 31/12/26 85/100/12 9/23/27
f 9/23/27 85/100/12 84/99/33
f 6/8/8 86/101/10 31/12/26
f 31/12/26 86/101/10 85/100/12
f 7/7/7 87/102/39 6/8/8
f 6/8/8 87/102/39 86/101/10
f 7/7/7 8/9/9 87/102/39
f 87/102/39 8/9/9 88/103/40
f 89/104/14 88/103/40 26/14/20
f 26/14/20 88/103/40 8/9/9
f 90/106/15 89/104/14 11/15/21
f 11/15/21 89/104/14 26/14/20
f 37/33/42 90/105/15 11/31/21
f 42/46/50 41/45/34 71/55/36
f 57/41/48 70/40/38 44/34/41
