# This file uses centimeters as units for non-parametric coordinates.

v -9.987611 3.492889 -9.189294
v -10.006543 3.495857 -8.414632
v -9.171178 3.495857 -8.355433
v -9.174278 3.436111 -9.207939
v -5.928425 1.875592 1.975094
v -7.413434 3.495857 -8.355433
v -7.413431 3.495857 -9.207939
v -9.187361 3.494292 -5.467099
v -9.188613 2.794253 -8.355312
v -9.224449 2.794253 -5.467505
v -7.413434 2.794253 -8.355311
v 8.196506 2.794253 -8.355306
v 6.340684 2.794253 -2.094599
v 6.339737 2.794253 -5.913502
v -1.964660 2.794253 -5.913499
v -5.766396 2.794253 -5.913499
v -5.765461 2.794253 -4.592265
v -5.900386 2.794253 -4.592264
v -8.398996 3.738980 -0.565648
v 6.549731 3.333227 -9.257360
v 6.544160 2.794253 -8.355311
v 6.544153 3.356476 -8.355355
v 8.206155 3.356476 -8.355301
v 8.222273 3.356476 -4.932436
v 9.037734 3.356476 -4.932664
v 9.057609 3.356476 -7.150883
v 8.211955 3.356476 -7.171512
v 8.206203 2.794253 -7.152542
v 9.104342 3.356476 -7.213017
v 9.114299 3.356476 -9.197030
v 0.792215 1.109203 -2.074826
v 6.340183 2.794261 -4.529148
v 0.797905 1.109203 -3.345897
v 0.797920 1.109203 -4.566948
v 0.797931 1.109202 -4.657901
v -5.900386 1.109360 -4.658001
v 4.572829 2.794261 -5.913499
v 4.572829 2.793686 -4.570720
v -5.767533 1.955168 -5.913448
v -5.762659 1.967609 -4.597542
v -9.224449 2.761141 -4.573190
v -5.966632 1.961645 -4.592248
v 3.188863 2.779890 -8.355310
v 3.178428 2.794253 -5.913499
v 1.987095 2.009297 -0.837277
v 5.283041 1.063648 -0.836118
v 5.215246 1.109630 0.634866
v -2.791849 1.109203 -2.090497
v 1.928502 1.109626 1.321168
v 3.418937 1.109630 0.634861
v -2.841335 1.109232 2.539875
v -2.893927 1.109232 2.538463
v -4.381001 1.109288 2.538291
v -5.954713 1.917616 4.380601
v -2.464354 1.119384 4.668802
v -5.954713 2.794236 4.668802
v -5.953316 2.794253 2.026739
v -7.489722 2.727264 7.387682
v -5.900460 2.794236 7.387682
v -7.578486 2.794253 2.026497
v -8.398996 2.794253 2.026739
v -8.398996 3.738980 2.026738
v -8.398996 2.794253 -0.558695
v -6.697135 2.794253 2.026738
v -8.398996 2.794253 -1.809730
v -4.370951 1.028688 -4.620762
v -5.900392 1.109345 -1.638865
v -4.379775 1.109345 -1.476996
v 1.907909 1.109625 2.540478
v 6.878773 1.109630 0.603722
v 6.878775 1.109630 3.079474
v 6.878775 1.109630 4.669414
v 5.215559 1.109566 4.668792
v 2.365005 1.066619 4.668792
v -6.696797 3.738782 2.026735
v -5.937831 3.738782 2.026734
v -6.697311 3.738782 -0.952791
v -6.697447 3.738782 -1.813295
v -5.930970 3.738782 -1.813298
v -5.931154 1.799317 -1.778135
v -5.931156 1.818812 -0.015241
v -5.931625 2.785941 -1.813283
v -5.953316 1.916855 2.033442
v -5.990280 0.948895 1.617773
v -7.415414 2.794253 -4.573537
v -7.415238 2.794253 -2.559116
v 2.301455 1.109262 7.387682
v -2.464160 1.109198 7.387682
v -0.488178 1.068363 4.668792
v -0.488285 1.109262 7.387682
v 6.878775 1.109394 7.387682
v -9.108205 2.862406 -1.807080
v 8.179303 2.794253 -4.931056
v 8.249331 2.772148 -2.094594
v 8.602123 1.983411 -0.876626
v 8.602123 1.983411 -1.262873
v 8.608196 1.063648 -0.836276
v 8.608196 1.109630 0.603668
v 8.608196 1.109630 3.078742
v 8.608196 1.109167 7.387682
v -9.095757 3.724809 2.008876
v -9.327715 2.794253 2.027110
v -9.404614 2.794253 7.387682
v -8.440371 3.738980 -1.809606
v -9.061331 3.738980 -1.809530
v -9.991137 3.479182 -5.467425
v 1.987095 2.009297 -1.302682
v 3.418840 1.110042 -0.820079
v 1.946624 1.095551 -0.816748
v -2.826963 1.109203 -4.630710
v -2.827663 1.109222 1.319002
v 4.572684 2.291951 -4.535261
v -5.943403 1.109288 2.538368
v 6.340422 2.794257 -3.354043
v 1.987093 1.084443 -1.339833
v -1.965675 2.743021 -8.355310
v 8.212475 3.369306 -9.241719
v -4.353721 2.035246 7.387682
v 3.403340 1.096571 2.537982
v -5.937831 2.858084 1.978013
v -6.698010 2.794253 -1.806526
v -9.224446 2.794253 -2.537118
v -7.414077 2.794253 -5.913436
v -6.346589 1.885045 -5.913234
v -5.960490 1.918175 -4.844324
v -4.380125 1.109281 -0.354485
v -2.820668 1.109214 -0.335667
v -4.356380 1.109360 -3.429709
v -2.840732 1.109203 -3.463805
v 1.987094 1.080236 -0.836986
v -4.353693 2.035247 4.668801
v -9.111060 3.738980 -0.493060
v -5.900386 2.794006 -2.532574
v -5.966632 1.084548 -4.575111
v -5.966632 1.103484 -4.575481
v -5.966632 1.907524 -4.591190
v -7.580921 2.794253 -1.808023
v -5.966638 1.046912 -1.787149
v -5.957995 1.052932 -0.117500
v -5.934968 0.997379 -4.615233
v -5.923738 1.025007 -1.674013
v -5.913895 1.109281 -0.121439
v -4.380666 1.109289 1.154369
v -5.929625 1.109290 0.871623
v -5.938001 1.050627 -0.119639
v -5.990219 0.923384 0.975685
v -5.936575 0.113743 2.384878
v 8.608172 1.091139 -1.290729
v -9.111154 2.794253 2.026701
v -9.224496 2.875986 -1.806552
v -6.024730 0.799521 2.589365
v -9.224496 -0.651809 -1.806552
v -9.040858 -0.651809 -1.806552
v 5.215246 1.070909 -0.818434
v 8.608196 1.109630 -0.825573
v 1.532119 1.109262 7.387682
v 1.549774 1.109262 4.668792
v 1.903329 1.109262 7.387682
v 1.919952 1.109262 4.668792
v 0.189328 2.794253 -8.355311
v 0.168619 2.794253 -5.913499
v -3.721243 2.794253 -8.355310
v -3.605225 2.794253 -5.913499
v 1.928499 1.109628 0.652926
v -9.982273 3.455554 -7.576769
v -9.176700 3.495323 -7.578747
v -9.200385 2.794253 -7.578504
v -5.834046 1.932929 -5.810068
v 8.633072 1.139175 3.014647
v 5.159552 1.124859 -0.818482
v 8.564874 2.001961 -0.836816
v 8.571142 2.001954 -1.302685
v 8.247258 2.794253 -2.178578
v 8.283344 3.356476 -9.238208
v 8.253689 3.317955 -9.239677
v 6.585189 3.356791 -9.256975
v 3.155098 2.803021 -8.355310
v -1.918917 2.794253 -8.355310
v -2.011382 2.794253 -8.355310
v -7.346612 2.787801 -8.355311
v -7.378239 2.736804 -8.355311
v -9.117055 3.495857 -9.207939
v -9.204170 3.495857 -9.207939
v -10.006253 3.495503 -7.613688
v -9.982244 3.495450 -7.531413
v -9.224449 2.794253 -4.610361
v -9.224449 2.799229 -4.540044
v -10.005297 3.494334 -5.519217
v -9.947004 3.495857 -9.207939
v -10.006543 3.495857 -9.141617
v -8.398996 3.738980 -1.725954
v -9.111141 3.738980 -1.725220
v -9.110844 3.738980 1.944063
v -9.110859 3.670137 2.026736
v -9.403111 2.794253 2.105825
v -7.653570 2.817862 7.387682
v -7.532501 2.814597 7.387682
v -2.396359 1.100593 4.668801
v -2.457848 1.097251 4.668802
v -0.405887 1.109262 4.668792
v -0.555805 1.108903 4.668793
v 2.411715 1.109268 4.668792
v 2.310966 1.109262 4.668792
v 3.418938 1.109625 2.482271
v 3.373073 1.109625 2.540394
v -4.312270 1.109095 -4.621119
v -4.412043 1.109103 -4.622409
v -2.780815 1.109226 1.319024
v -2.808310 1.058395 1.332071
v 1.930746 1.047774 1.321162
v 1.879541 1.109621 1.321146
v 1.985272 1.109630 -0.825482
v 3.413886 1.092537 -0.820123
vt 0.219741 0.974029
vt 0.213979 0.960124
vt 0.241661 0.974044
vt 0.238293 0.963187
vt 0.270869 0.541452
vt 0.288253 0.974497
vt 0.285531 0.963938
vt 0.221571 0.927445
vt 0.200296 0.925879
vt 0.239608 0.927746
vt 0.225733 0.887523
vt 0.286030 0.928789
vt 0.707304 0.925328
vt 0.701892 0.811738
vt 0.314473 0.847617
vt 0.328994 0.904126
vt 0.317896 0.847142
vt 0.427842 0.903926
vt 0.669134 0.904166
vt 0.179672 0.738786
vt 0.665328 0.965671
vt 0.661258 0.973354
vt 0.663651 0.927460
vt 0.710315 0.964166
vt 0.739993 0.949075
vt 0.751007 0.924032
vt 0.730004 0.923906
vt 0.717510 0.949680
vt 0.714527 0.913504
vt 0.740001 0.950965
vt 0.728905 0.971581
vt 0.534194 0.726736
vt 0.678763 0.876997
vt 0.529644 0.760166
vt 0.524961 0.790498
vt 0.628499 0.875161
vt 0.620913 0.904406
vt 0.331019 0.867463
vt 0.319302 0.809080
vt 0.316632 0.809039
vt 0.570409 0.930353
vt 0.574834 0.906086
vt 0.841320 0.697341
vt 0.664167 0.714475
vt 0.668408 0.696142
vt 0.831989 0.716124
vt 0.723499 0.654931
vt 0.665483 0.652117
vt 0.659946 0.653430
vt 0.853718 0.611314
vt 0.737389 0.611662
vt 0.422282 0.724934
vt 0.552017 0.595761
vt 0.545878 0.644965
vt 0.603598 0.644984
vt 0.613991 0.600090
vt 0.352799 0.532770
vt 0.286247 0.533132
vt 0.421104 0.542239
vt 0.419626 0.533871
vt 0.625978 0.548451
vt 0.157814 0.438051
vt 0.242538 0.442727
vt 0.265149 0.514621
vt 0.253455 0.519362
vt 0.410782 0.420363
vt 0.262255 0.587052
vt 0.190580 0.583935
vt 0.154926 0.582449
vt 0.143373 0.631763
vt 0.190004 0.687954
vt 0.230916 0.585661
vt 0.202133 0.735155
vt 0.371062 0.793684
vt 0.364899 0.682281
vt 0.305144 0.682707
vt 0.560919 0.546014
vt 0.900881 0.499639
vt 0.797485 0.611083
vt 0.837626 0.498604
vt 0.788473 0.432360
vt 0.859969 0.434701
vt 0.642816 0.425854
vt 0.229615 0.639217
vt 0.264841 0.639552
vt 0.254600 0.745291
vt 0.262074 0.774199
vt 0.293332 0.774831
vt 0.297606 0.688688
vt 0.289286 0.647869
vt 0.295189 0.734600
vt 0.266991 0.532393
vt 0.274772 0.533824
vt 0.247815 0.782671
vt 0.262153 0.845067
vt 0.654483 0.356200
vt 0.413224 0.344876
vt 0.488966 0.420979
vt 0.493266 0.346009
vt 0.887349 0.361855
vt 0.726184 0.883791
vt 0.421537 0.795075
vt 0.421741 0.592298
vt 0.689699 0.846140
vt 0.429331 0.929975
vt 0.705910 0.972916
vt 0.325793 0.394999
vt 0.265689 0.614711
vt 0.251617 0.745232
vt 0.193746 0.782892
vt 0.958469 0.362400
vt 0.078617 0.439497
vt 0.320297 0.790568
vt 0.837106 0.656491
vt 0.837106 0.656491
vt 0.320297 0.790568
vt 0.121099 0.580411
vt 0.112406 0.629391
vt 0.320297 0.790568
vt 0.117788 0.580389
vt 0.192449 0.782240
vt 0.165773 0.779751
vt 0.112406 0.629391
vt 0.192449 0.782240
vt 0.211531 0.843927
vt 0.211531 0.843927
vt 0.754204 0.809710
vt 0.523064 0.796385
vt 0.278979 0.904067
vt 0.361440 0.639544
vt 0.422519 0.643380
vt 0.369432 0.759856
vt 0.421379 0.761997
vt 0.328927 0.471871
vt 0.150904 0.738159
vt 0.303244 0.778055
vt 0.320211 0.790956
vt 0.320211 0.790956
vt 0.316878 0.807929
vt 0.316878 0.807929
vt 0.250203 0.793559
vt 0.295573 0.791874
vt 0.298843 0.801889
vt 0.223619 0.584610
vt 0.250977 0.747265
vt 0.229721 0.748029
vt 0.192014 0.584614
vt 0.204459 0.744845
vt 0.188698 0.685730
vt 0.162623 0.583013
vt 0.296563 0.828291
vt 0.261388 0.842155
vt 0.256159 0.819186
vt 0.298093 0.816892
vt 0.304469 0.843486
vt 0.300756 0.646411
vt 0.292631 0.596768
vt 0.292631 0.596768
vt 0.319302 0.809080
vt 0.319302 0.809080
vt 0.319302 0.809080
vt 0.444967 0.479056
vt 0.445098 0.479397
vt 0.445906 0.481162
vt 0.445410 0.479051
vt 0.444697 0.481077
vt 0.299211 0.635749
vt 0.356103 0.573593
vt 0.292300 0.581047
vt 0.445373 0.477155
vt 0.443982 0.471626
vt 0.443213 0.468444
vt 0.444057 0.471446
vt 0.443290 0.468373
vt 0.443334 0.468462
vt 0.444072 0.471530
vt 0.442343 0.464342
vt 0.442419 0.464679
vt 0.272506 0.516497
vt 0.445200 0.476995
vt 0.445307 0.476863
vt 0.442202 0.464587
vt 0.154926 0.582449
vt 0.630174 0.849670
vt 0.275823 0.514851
vt 0.374235 0.224315
vt 0.375575 0.224287
vt 0.374257 0.224366
vt 0.374919 0.224356
vt 0.375581 0.224349
vt 0.610068 0.353392
vt 0.605442 0.424898
vt 0.631499 0.354747
vt 0.623606 0.425587
vt 0.127062 0.580903
vt 0.721040 0.657229
vt 0.296559 0.796448
vt 0.187599 0.284015
vt 0.189033 0.276456
vt 0.186987 0.281031
vt 0.186296 0.284766
vt 0.489472 0.904888
vt 0.488379 0.930399
vt 0.385093 0.903639
vt 0.383003 0.929642
vt 0.549116 0.619010
vt 0.232433 0.951452
vt 0.210737 0.952010
vt 0.232840 0.910933
vt 0.332721 0.861918
vt 0.271254 0.515623
vt 0.271035 0.516400
vt 0.272631 0.516639
vt 0.257612 0.535378
vt 0.266180 0.534616
vt 0.261162 0.539155
vt 0.270995 0.516170
vt 0.271926 0.516426
vt 0.899659 0.502531
vt 0.720236 0.654773
vt 0.831050 0.716115
vt 0.840189 0.697333
vt 0.753374 0.811903
vt 0.707717 0.972811
vt 0.706961 0.972855
vt 0.662356 0.973343
vt 0.569485 0.930353
vt 0.430612 0.929984
vt 0.428125 0.929966
vt 0.287785 0.928804
vt 0.286955 0.928797
vt 0.243175 0.974059
vt 0.240874 0.974043
vt 0.210880 0.952367
vt 0.210420 0.951217
vt 0.212121 0.845739
vt 0.211241 0.842933
vt 0.200658 0.926785
vt 0.221310 0.974030
vt 0.219260 0.972866
vt 0.191589 0.779318
vt 0.164821 0.777087
vt 0.191589 0.779318
vt 0.113669 0.632959
vt 0.113039 0.625821
vt 0.117213 0.578320
vt 0.152871 0.442708
vt 0.155133 0.442287
vt 0.413474 0.420384
vt 0.412045 0.420373
vt 0.491084 0.421757
vt 0.487031 0.421548
vt 0.645765 0.425986
vt 0.640921 0.425828
vt 0.625612 0.550026
vt 0.624003 0.548377
vt 0.372932 0.793734
vt 0.368817 0.793546
vt 0.422952 0.592200
vt 0.422417 0.592188
vt 0.551620 0.595750
vt 0.550675 0.595724
vt 0.548077 0.644965
vt 0.603152 0.644984
vn 0.999891 -0.014209 -0.004034
vn 0.999956 -0.000182 -0.009384
vn 0.994314 -0.075644 0.074951
vn 0.999886 -0.014895 0.002563
vn 0.999802 -0.018195 0.008094
vn 0.999738 0.022694 -0.002916
vn -0.772040 0.635554 -0.005031
vn -0.038559 0.999256 -0.000427
vn -0.099664 0.995021 -0.000948
vn 0.000022 1.000000 0.000023
vn 0.000022 1.000000 -0.000002
vn -0.804699 0.593683 -0.000217
vn -0.291097 0.956694 0.000046
vn -0.363991 0.931402 0.000579
vn -0.945968 0.324261 0.000162
vn -0.422462 0.902659 0.082057
vn -0.827526 0.535564 0.168440
vn 0.805393 0.565832 0.176570
vn 0.999982 0.002243 0.005603
vn 0.772947 0.634470 0.001290
vn 0.998420 0.056190 -0.000596
vn -0.477555 0.878480 0.014611
vn 0.000020 1.000000 -0.000001
vn -0.984344 0.174817 0.022516
vn 0.999540 -0.026511 0.014701
vn 0.030239 0.221049 0.974794
vn 0.000061 0.000148 1.000000
vn 0.086607 0.855645 0.510265
vn 0.000000 0.000150 1.000000
vn 0.981452 0.163462 0.100158
vn 0.305225 0.952015 0.022475
vn 0.981597 -0.122089 0.146840
vn 0.377509 0.925927 0.012085
vn 0.412421 -0.910907 0.012512
vn 0.999931 -0.000231 -0.011765
vn 0.906846 -0.421440 -0.004351
vn -0.769223 0.638974 0.002854
vn 0.991251 0.131984 0.001009
vn 0.120211 -0.992691 -0.010669
vn -0.119072 0.983665 0.134999
vn -0.992307 0.073507 0.099622
vn 0.752496 0.615470 0.234406
vn 0.190460 0.981678 0.005832
vn 0.217147 0.976138 -0.001329
vn 0.434595 0.900623 -0.002513
vn 0.439390 0.898296 0.001069
vn 0.999706 -0.021495 0.011262
vn 0.999427 -0.031579 0.012188
vn 0.999417 -0.031143 0.014017
vn 0.999846 -0.017557 0.000601
vn -0.010278 0.999938 0.004203
vn -0.004133 0.999992 0.000082
vn 0.000077 0.999932 0.011670
vn -0.011411 0.999935 0.000000
vn 0.020077 0.999667 -0.016232
vn -0.004899 0.999955 -0.008096
vn -0.002255 0.999921 -0.012401
vn 0.000140 0.999993 -0.003665
vn 0.024651 0.999683 0.005188
vn 0.007825 0.662602 0.748931
vn 0.759300 0.360877 0.541509
vn 0.002263 0.999997 0.000002
vn 0.513566 0.858050 0.000000
vn -0.062739 0.447497 0.892082
vn -0.145602 0.989343 0.000000
vn -0.075794 -0.271739 0.959382
vn -0.250481 -0.968010 -0.014725
vn 0.000464 -0.456917 0.889509
vn 0.000676 -0.710986 0.703206
vn 0.000238 -0.998280 -0.058631
vn -0.001999 0.999995 -0.002548
vn -0.000137 1.000000 0.000241
vn -0.000035 1.000000 0.000030
vn -0.059855 0.998207 0.000012
vn -0.002186 0.999996 -0.001767
vn -0.181105 0.983463 -0.000811
vn -0.261689 0.965152 -0.000112
vn -0.172148 0.985070 0.001295
vn -0.206975 0.978335 0.004596
vn -0.290233 0.956649 0.024235
vn -0.151695 0.988427 -0.000002
vn 0.000000 1.000000 0.000000
vn 0.000000 1.000000 0.000000
vn 0.000000 1.000000 0.000000
vn -0.223352 0.974734 -0.002704
vn 0.000006 1.000000 0.000004
vn 0.011199 0.967069 0.254267
vn 0.011199 0.967069 0.254267
vn 0.011199 0.967069 0.254267
vn 0.000000 1.000000 0.000000
vn -0.550546 0.834799 0.003048
vn 0.000000 1.000000 0.000000
vn -0.547196 0.836989 -0.005174
vn 0.000000 1.000000 -0.000000
vn -0.000003 0.649071 0.760728
vn -0.278395 0.960466 0.001136
vn -0.288340 0.865970 0.408603
vn -0.193770 0.942610 0.271920
vn 0.779513 0.626216 0.014622
vn 0.022349 0.999643 0.014628
vn -0.553126 0.832726 -0.024884
vn -0.553126 0.832726 -0.024884
vn -0.553126 0.832726 -0.024884
vn -0.000005 0.842456 0.538766
vn 0.000000 1.000000 0.000000
vn 0.000000 1.000000 0.000000
vn -0.789222 0.610220 -0.068999
vn -0.789222 0.610220 -0.068999
vn -0.789222 0.610220 -0.068999
vn -0.002364 0.999987 0.004599
vn 0.000171 0.999983 -0.005881
vn 0.004867 0.999981 -0.003860
vn 0.565160 0.824978 -0.002437
vn -0.001736 0.999999 -0.000014
vn -0.000959 0.999999 0.000916
vn -0.001272 0.999997 0.002036
vn 0.000000 0.999994 0.003591
vn -0.005666 0.999764 -0.020973
vn -0.738543 0.674065 -0.013835
vn 0.000142 0.999780 -0.020976
vn 0.000000 1.000000 -0.000000
vn 0.000000 1.000000 0.000000
vn 0.746121 0.665658 -0.014276
vn 0.101382 0.994848 -0.000267
vn 0.000000 1.000000 -0.000000
vn 0.000000 1.000000 -0.000000
vn 0.000000 1.000000 -0.000000
vn -0.000554 1.000000 -0.000837
vn -0.000455 1.000000 -0.000924
vn -0.001780 0.999995 -0.002691
vn -0.849575 0.526882 -0.024864
vn -0.849575 0.526882 -0.024864
vn -0.849575 0.526882 -0.024864
vn 0.852695 0.522408 0.000224
vn 0.036209 0.947043 0.319059
vn 0.005173 0.999979 -0.003800
vn 0.000603 1.000000 0.000578
vn 0.000000 1.000000 -0.000000
vn 0.000914 1.000000 -0.000000
vn 0.001488 0.999998 0.001153
vn -0.018260 0.996809 -0.077701
vn -0.013539 0.746632 0.665100
vn -0.018269 0.997370 -0.070135
vn -0.012160 0.656415 -0.754302
vn 0.000000 1.000000 0.000000
vn 0.268544 0.963266 0.001699
vn -0.018131 0.958264 0.285309
vn -0.018131 0.958264 0.285309
vn -0.018131 0.958264 0.285309
vn -0.049366 0.997890 -0.042181
vn -0.031163 0.668232 0.743300
vn -0.048565 0.990253 0.130539
vn -0.038660 0.750301 -0.659965
vn 0.311435 0.950260 0.003864
vn 0.282963 0.714800 0.639525
vn 0.000015 1.000000 0.000555
vn 0.697254 0.716813 0.003908
vn 0.000148 1.000000 0.000504
vn 0.678807 0.734278 0.007502
vn 0.198490 0.864612 0.461571
vn 0.000000 1.000000 0.000000
vn -0.000016 1.000000 0.000222
vn 0.000000 0.765284 0.643693
vn 0.000000 1.000000 -0.000000
vn 0.000000 1.000000 0.000000
vn -0.139442 0.987843 -0.068724
vn -0.721431 0.690970 -0.045801
vn -0.003574 0.997548 -0.069898
vn 0.893778 0.447174 -0.034590
vn 0.000071 1.000000 0.000558
vn -0.051431 0.997579 0.046800
vn -0.051431 0.997579 0.046800
vn -0.051431 0.997579 0.046800
vn 0.000000 1.000000 0.000001
vn 0.000000 1.000000 0.000001
vn 0.000000 1.000000 0.000001
vn 0.042571 0.998069 -0.045231
vn 0.042571 0.998069 -0.045231
vn 0.042571 0.998069 -0.045231
vn 0.352646 0.935722 -0.008112
vn 0.806016 0.437507 -0.398655
vn 0.895663 0.039283 -0.442995
vn 0.696449 0.629526 -0.344464
vn 0.000000 1.000000 -0.000003
vn 0.000000 1.000000 -0.000003
vn 0.826267 0.563278 0.000000
vn 0.000000 1.000000 0.000000
vn 0.810370 0.585919 0.000000
vn 0.000000 1.000000 0.000000
vn 0.683862 0.729612 0.000000
vn 0.801670 0.560761 0.207057
vn 0.000000 1.000000 0.000000
vn -0.031736 0.792196 0.609442
vn -0.025455 0.975352 0.219180
vn -0.032041 0.765727 0.642367
vn -0.030761 0.318053 0.947574
vn 0.213240 0.975552 0.053166
vn -0.004072 0.995384 0.095883
vn -0.000023 -0.000015 1.000000
vn 0.000000 1.000000 0.000005
vn 0.000000 1.000000 0.000005
vn 0.000000 1.000000 0.000005
vn -0.003586 0.999993 0.001163
vn 0.046745 0.998890 0.005725
vn 0.898015 0.439866 -0.009372
vn 0.000000 1.000000 0.000000
vn -0.013403 0.999910 -0.000734
vn -0.012320 0.999924 -0.001054
vn 0.026957 0.999629 -0.004025
vn 0.026957 0.999629 -0.004025
vn 0.026957 0.999629 -0.004025
vn 0.000000 1.000000 0.000000
vn 0.000000 1.000000 -0.000000
vn 0.000000 1.000000 -0.000000
vn 0.000000 1.000000 -0.000000
vn 0.445033 0.895513 0.001402
vn 0.440115 0.897936 0.003333
vn 0.959407 0.282023 0.000988
vn -0.054275 0.998516 -0.004514
vn -0.054275 0.998516 -0.004514
vn -0.054275 0.998516 -0.004514
vn -0.043498 0.998941 -0.015028
vn -0.445030 0.895414 -0.013487
vn -0.002584 0.999884 -0.015041
vn -0.004515 0.999985 -0.003277
vn -0.001660 0.999998 -0.001274
vn -0.002649 0.999995 -0.001968
vn -0.000032 1.000000 -0.000131
vn 0.514123 0.857620 -0.012880
vn -0.000043 1.000000 0.000053
vn 0.000023 1.000000 0.000083
vn 0.000041 1.000000 0.000077
vn 0.000116 1.000000 0.000096
vn 0.000000 1.000000 -0.000000
vn 0.000000 1.000000 -0.000000
vn 0.000000 1.000000 0.000000
vn 0.000000 1.000000 -0.000000
vn -0.000059 1.000000 0.000049
vn -0.000106 1.000000 -0.000002
vn 0.035761 0.999250 -0.014836
vn -0.674019 0.738208 -0.027332
vn -0.009493 0.999829 -0.015903
vn 0.619472 0.785016 0.002167
vn 0.397030 0.862677 0.313297
vn 0.397030 0.862677 0.313297
vn 0.397030 0.862677 0.313297
vn 0.000017 1.000000 -0.000014
vn 0.000048 1.000000 0.000001
vn 0.000041 1.000000 0.000020
vn -0.058374 0.998295 -0.000312
vn 0.000000 1.000000 -0.000005
vn -0.000021 1.000000 -0.000001
vn 0.000052 1.000000 -0.000049
vn 0.000059 1.000000 0.000004
vn -0.076881 0.994824 -0.066441
vn -0.807471 0.589143 -0.030026
vn 0.012485 0.997626 -0.067724
vn 0.000179 1.000000 -0.000224
vn -0.075261 0.997164 -0.000043
vn 0.000029 1.000000 -0.000130
vn 0.890046 0.453966 -0.041636
vn 0.011889 0.999929 0.000129
vn 0.000037 1.000000 -0.000006
vn 0.000000 1.000000 0.000000
vn 0.000000 1.000000 0.000003
vn -0.001067 0.999999 -0.000016
vn 0.027669 0.999617 0.000302
vn 0.933598 0.358170 0.010452
vn -0.000083 1.000000 -0.000009
vn -0.000085 1.000000 -0.000002
vn -0.000083 1.000000 -0.000008
vn -0.000085 1.000000 -0.000001
vn -0.883385 0.466598 -0.043793
vn -0.883385 0.466598 -0.043793
vn -0.883385 0.466598 -0.043793
vn 0.770148 0.637613 -0.017919
vn 0.770148 0.637613 -0.017919
vn 0.770148 0.637613 -0.017919
vn -0.999200 -0.036250 -0.016876
vn -0.024835 0.999692 -0.000418
vn -0.018532 0.999828 0.000284
vn -0.004757 0.999977 0.004875
vn -0.344907 0.938543 -0.013243
vn -0.344907 0.938543 -0.013243
vn -0.344907 0.938543 -0.013243
vn -0.000002 1.000000 0.000002
vn 0.002959 0.999991 -0.002904
vn 0.005742 0.999968 -0.005637
vn 0.012008 0.999858 -0.011788
vn -0.962215 0.272290 0.000142
f 80/89/1 136/140/2 42/40/3
f 81/90/4 139/158/5 80/89/1
f 80/89/1 139/158/5 138/156/6
f 138/171/6 139/172/5 141/173/7
f 142/167/8 144/169/9 126/130/10
f 126/130/10 144/169/9 143/168/11
f 145/174/12 141/173/7 139/172/5
f 78/87/13 121/109/14 77/86/15
f 64/72/16 75/84/17 121/109/14
f 77/86/15 121/109/14 75/84/17
f 76/85/18 120/108/19 79/88/20
f 79/88/20 120/108/19 82/91/21
f 79/88/20 78/87/13 76/85/18
f 78/87/13 77/86/15 76/85/18
f 77/86/15 75/84/17 76/85/18
f 144/169/9 113/58/22 143/168/11
f 143/168/11 113/58/22 53/57/23
f 142/175/8 145/174/12 144/178/9
f 144/178/9 145/174/12 146/177/24
f 82/91/21 120/108/19 80/89/1
f 80/89/1 120/108/19 81/90/4
f 120/108/19 5/5/25 81/90/4
f 150/198/26 152/199/27 92/201/28
f 92/201/28 152/199/27 153/200/29
f 17/17/30 18/15/31 40/39/32
f 40/39/32 18/15/31 42/40/3
f 133/152/33 121/151/14 82/155/21
f 80/89/1 42/40/3 82/91/21
f 82/91/21 42/40/3 133/136/33
f 42/40/3 18/15/31 133/136/33
f 42/40/3 136/139/2 125/160/34
f 125/160/34 136/139/2 135/137/35
f 42/162/3 125/163/34 40/165/32
f 40/165/32 125/163/34 39/164/36
f 141/173/7 140/181/37 138/171/6
f 138/171/6 140/181/37 134/180/38
f 136/140/2 80/89/1 135/138/35
f 138/156/6 134/119/38 80/89/1
f 80/89/1 134/119/38 135/138/35
f 125/161/34 135/137/35 134/116/38
f 39/164/36 125/163/34 124/166/39
f 124/159/39 168/210/40 39/38/36
f 147/211/41 113/212/22 146/179/24
f 146/179/24 113/212/22 144/213/9
f 57/67/42 120/108/19 76/85/18
f 64/72/16 57/67/42 75/84/17
f 75/84/17 57/67/42 76/85/18
f 56/65/43 59/63/44 131/134/45
f 131/134/45 59/63/44 118/107/46
f 139/157/5 81/90/4 84/93/47
f 84/93/47 81/90/4 5/5/25
f 145/174/12 139/172/5 146/177/24
f 146/177/24 139/172/5 84/182/47
f 84/93/47 5/5/25 83/92/48
f 120/108/19 57/67/42 5/5/25
f 5/5/25 57/67/42 83/92/48
f 56/65/43 83/92/48 57/67/42
f 83/92/48 151/185/49 84/93/47
f 54/64/50 151/185/49 83/92/48
f 83/92/48 56/65/43 54/64/50
f 84/218/47 151/217/49 147/211/41
f 147/214/41 146/216/24 84/215/47
f 169/219/51 71/80/52 99/78/53
f 155/114/54 154/47/55 98/50/56
f 98/50/56 154/47/55 70/79/57
f 154/47/55 47/51/58 70/79/57
f 71/80/52 169/219/51 70/79/57
f 70/79/57 169/219/51 98/50/56
f 170/220/59 47/51/58 154/47/55
f 171/222/60 95/43/61 172/221/62
f 172/221/62 95/43/61 96/46/63
f 45/45/64 107/44/65 130/48/66
f 130/48/66 107/44/65 115/49/67
f 171/222/60 97/115/68 95/43/61
f 97/188/68 46/189/69 148/186/70
f 148/186/70 46/189/69 115/187/67
f 46/189/69 130/190/66 115/187/67
f 172/221/62 107/44/65 171/222/60
f 171/222/60 107/44/65 45/45/64
f 97/115/68 171/222/60 46/196/69
f 45/45/64 130/48/66 171/222/60
f 171/222/60 130/48/66 46/196/69
f 37/37/71 38/36/72 14/19/73
f 14/19/73 38/36/72 32/33/74
f 37/37/71 14/19/73 21/23/75
f 31/32/76 13/14/77 33/34/78
f 33/34/78 13/14/77 114/104/79
f 114/104/79 112/184/80 33/34/78
f 33/34/78 112/184/80 34/35/81
f 112/184/80 114/104/79 32/33/74
f 13/14/82 173/223/83 93/101/84
f 32/33/74 114/104/79 93/101/85
f 93/101/86 114/104/79 13/14/77
f 173/223/87 13/14/88 94/127/89
f 29/30/90 27/28/91 26/25/92
f 27/28/91 24/27/93 26/25/92
f 26/25/92 24/27/93 25/26/94
f 21/23/95 28/29/96 12/13/97
f 21/23/75 14/19/73 28/29/96
f 14/19/73 32/33/74 28/29/96
f 27/28/91 28/29/96 24/27/93
f 24/27/93 28/29/96 93/101/85
f 28/29/96 32/33/74 93/101/85
f 23/24/98 175/225/99 117/106/100
f 22/21/101 176/226/102 20/22/103
f 21/23/95 12/13/97 22/21/104
f 22/21/104 12/13/97 23/24/98
f 23/24/98 12/13/97 27/28/91
f 27/28/91 12/13/97 28/29/96
f 30/31/105 174/224/106 29/30/90
f 174/224/106 23/24/98 29/30/90
f 23/24/98 27/28/91 29/30/90
f 175/225/107 23/24/108 174/224/109
f 22/21/104 23/24/98 176/226/110
f 176/226/110 23/24/98 117/106/100
f 44/42/111 37/37/71 43/41/112
f 43/41/112 37/37/71 21/23/75
f 177/227/113 44/42/111 43/41/112
f 160/203/114 161/202/115 177/227/116
f 177/227/116 161/202/115 44/42/117
f 15/18/118 178/228/119 116/105/120
f 15/18/121 161/202/115 178/228/122
f 178/228/122 161/202/115 160/203/114
f 179/229/123 15/18/118 116/105/120
f 16/16/124 18/15/31 17/17/30
f 39/38/36 16/16/124 40/39/32
f 40/39/32 16/16/124 17/17/30
f 15/18/125 179/229/126 163/204/127
f 163/204/127 179/229/126 162/205/128
f 163/204/127 162/205/128 16/16/124
f 123/129/129 16/16/124 162/205/128
f 180/230/130 123/129/129 162/205/128
f 181/231/131 123/129/132 180/230/133
f 123/129/129 181/231/134 11/12/135
f 92/197/28 122/141/136 150/142/26
f 133/152/33 86/153/137 121/151/14
f 121/151/14 86/153/137 137/154/138
f 85/95/139 187/237/140 86/94/137
f 86/94/137 187/237/140 122/110/136
f 133/136/33 18/15/31 86/94/137
f 86/94/137 18/15/31 85/95/139
f 85/95/141 186/236/142 41/125/143
f 16/16/124 123/129/129 18/15/31
f 18/15/31 123/129/129 85/95/139
f 187/237/144 85/95/141 41/126/143
f 186/236/145 85/95/139 10/11/146
f 10/11/146 85/95/139 123/129/129
f 8/8/147 188/238/148 106/9/149
f 166/207/150 184/234/151 165/208/152
f 185/235/153 166/207/150 165/208/152
f 123/129/129 11/12/135 167/209/154
f 167/209/154 11/12/135 9/10/155
f 188/238/156 8/8/157 185/235/158
f 185/235/158 8/8/157 166/207/159
f 123/129/129 167/209/154 10/11/146
f 167/209/154 166/207/159 10/11/146
f 10/11/146 166/207/159 8/8/157
f 3/4/160 190/240/161 2/2/162
f 3/4/160 6/7/163 182/232/164
f 182/232/164 6/7/163 7/6/165
f 9/10/155 11/12/135 3/4/160
f 3/4/160 11/12/135 6/7/163
f 3/4/166 182/232/167 4/3/168
f 183/233/169 3/4/166 4/3/168
f 167/209/154 9/10/155 166/207/159
f 166/207/159 9/10/155 3/4/160
f 166/207/159 3/4/160 184/234/170
f 184/234/170 3/4/160 2/2/162
f 3/4/171 189/239/172 1/1/173
f 189/239/174 3/4/175 183/233/176
f 190/240/177 3/4/178 1/1/179
f 122/141/136 92/197/28 65/143/180
f 137/154/138 86/153/137 65/143/180
f 65/143/180 86/153/137 122/141/136
f 191/243/181 65/73/182 104/124/183
f 192/242/184 191/241/181 105/122/185
f 105/122/185 191/241/181 104/121/183
f 191/241/186 192/242/187 19/20/188
f 19/20/188 192/242/187 132/135/189
f 65/73/180 191/243/186 63/71/190
f 63/71/190 191/243/186 19/20/188
f 62/70/191 19/20/188 193/244/192
f 193/244/192 19/20/188 132/135/189
f 62/70/193 193/244/194 101/123/195
f 194/245/196 62/70/193 101/118/195
f 19/20/188 62/70/191 63/71/190
f 63/71/190 62/70/191 61/183/197
f 149/117/198 61/183/197 194/245/199
f 194/245/199 61/183/197 62/70/191
f 195/246/200 149/195/201 102/120/202
f 64/144/16 121/145/14 60/147/203
f 60/147/203 121/145/14 137/146/138
f 59/63/44 56/65/43 58/62/204
f 58/62/204 56/65/43 60/68/203
f 60/68/203 56/65/43 64/72/16
f 56/65/43 57/67/42 64/72/16
f 60/147/203 137/146/138 61/150/197
f 61/150/197 137/146/138 63/149/190
f 137/146/138 65/148/180 63/149/190
f 60/68/203 197/248/205 58/62/204
f 149/195/198 195/246/206 103/112/207
f 103/112/207 196/247/208 149/195/198
f 149/195/198 196/247/208 61/69/197
f 196/247/208 60/68/203 61/69/197
f 197/248/209 60/68/210 196/247/211
f 157/192/212 200/251/213 156/191/214
f 156/191/214 200/251/213 90/99/215
f 131/134/45 118/107/46 55/66/216
f 55/66/216 118/107/46 88/97/217
f 88/97/217 199/250/218 55/66/216
f 199/250/219 88/97/220 198/249/221
f 90/99/222 200/251/223 89/98/224
f 198/249/225 88/97/226 201/252/227
f 201/252/227 88/97/226 90/99/228
f 201/252/229 90/99/222 89/98/224
f 73/81/230 91/100/231 72/82/232
f 91/100/231 100/111/233 72/82/232
f 100/111/233 99/78/53 72/82/232
f 99/78/53 71/80/52 72/82/232
f 72/82/232 71/80/52 73/81/230
f 73/81/230 71/80/52 47/51/58
f 47/51/58 71/80/52 70/79/57
f 159/194/234 157/192/212 158/193/235
f 158/193/235 157/192/212 156/191/214
f 203/254/236 159/194/234 87/96/237
f 87/96/237 159/194/234 158/193/235
f 91/100/231 73/81/230 87/96/238
f 87/96/238 73/81/230 202/253/239
f 87/96/240 202/253/241 74/83/242
f 203/254/243 87/96/240 74/83/242
f 204/255/244 205/256/245 119/61/246
f 129/133/247 48/52/248 33/34/78
f 33/34/78 48/52/248 31/32/76
f 68/75/249 67/76/250 126/130/10
f 126/130/10 67/76/250 142/167/8
f 141/173/7 145/174/12 67/176/250
f 67/176/250 145/174/12 142/175/8
f 33/34/78 34/35/81 129/133/247
f 35/128/251 110/102/252 34/35/81
f 129/133/247 34/35/81 110/102/252
f 129/133/247 128/132/253 48/52/248
f 128/132/253 68/75/249 48/52/248
f 48/52/248 68/75/249 127/131/254
f 68/75/249 126/130/10 127/131/254
f 128/132/255 206/257/256 66/74/257
f 128/132/253 207/258/258 36/113/259
f 36/113/259 67/76/250 128/132/253
f 128/132/253 67/76/250 68/75/249
f 141/173/7 67/176/250 140/181/37
f 140/181/37 67/176/250 36/170/259
f 128/132/253 129/133/247 206/257/260
f 206/257/260 129/133/247 110/102/252
f 207/258/261 128/132/255 66/74/257
f 143/168/11 53/57/23 111/103/262
f 111/103/262 53/57/23 52/60/263
f 111/103/262 127/131/254 143/168/11
f 143/168/11 127/131/254 126/130/10
f 205/256/264 204/255/265 69/77/266
f 111/103/262 52/60/263 51/59/267
f 51/59/267 209/260/268 111/103/262
f 51/59/269 69/77/270 208/259/271
f 208/259/271 69/77/270 211/262/272
f 209/260/273 51/59/274 208/259/275
f 211/262/276 69/77/277 210/261/278
f 210/261/279 69/77/266 49/53/280
f 108/55/281 50/56/282 170/220/59
f 170/220/59 50/56/282 47/51/58
f 164/206/283 212/263/284 109/54/285
f 164/206/286 49/53/280 50/56/287
f 49/53/280 69/77/266 50/56/287
f 69/77/266 204/255/265 50/56/287
f 164/206/286 50/56/287 212/263/288
f 212/263/288 50/56/287 213/264/289
f 213/264/290 50/56/282 108/55/281
