# This file uses centimeters as units for non-parametric coordinates.

v 0.104654 -0.251853 -0.081338
v 0.044548 -0.273568 -0.137912
v -0.031214 -0.233887 -0.141802
v -0.111686 -0.244705 -0.077306
v -0.161476 -0.287321 -0.003347
v -0.126461 -0.267945 0.103712
v -0.053422 -0.260258 0.142867
v 0.044185 -0.260499 0.148313
v 0.131068 -0.281683 0.106699
v 0.151928 -0.263890 0.002700
v 0.219123 -0.155806 -0.160706
v 0.096248 -0.164233 -0.238566
v -0.074909 -0.147525 -0.255561
v -0.197647 -0.145284 -0.192844
v -0.244939 -0.146635 0.002895
v -0.196776 -0.148289 0.141691
v -0.080190 -0.124821 0.239703
v 0.075474 -0.147195 0.237721
v 0.208652 -0.148691 0.154637
v 0.208467 -0.134774 0.000624
v 0.224314 0.027249 -0.181712
v 0.083865 0.010840 -0.257168
v -0.086256 0.002738 -0.291799
v -0.232042 -0.000229 -0.171704
v -0.280905 0.001269 -0.002970
v -0.193333 0.000189 0.138383
v -0.100209 -0.016704 0.295159
v 0.073395 0.002591 0.289058
v 0.227282 -0.005258 0.184176
v 0.265216 0.008106 -0.008304
v 0.217920 0.165494 -0.164974
v 0.030662 0.104720 -0.188768
v -0.073304 0.182879 -0.255246
v -0.196608 0.159077 -0.141125
v -0.253368 0.148961 0.003957
v -0.221349 0.159661 0.155742
v -0.078472 0.157811 0.218265
v 0.080436 0.155799 0.256111
v 0.195573 0.144780 0.142455
v 0.289890 0.147546 0.032835
v 0.134014 0.262557 -0.091785
v 0.048084 0.252191 -0.148670
v -0.044761 0.227204 -0.122125
v -0.123676 0.255986 -0.089946
v -0.142508 0.239239 -0.000737
v -0.125350 0.261895 0.085255
v -0.040958 0.235759 0.131975
v 0.064312 0.251117 0.173511
v 0.126969 0.250654 0.090161
v 0.146812 0.240449 0.000979
v 0.001883 -0.268574 0.006659
v 0.024242 0.272920 0.082249
v 0.064340 0.270992 0.053099
v 0.084176 0.268939 0.003600
v 0.070919 0.265270 -0.051057
v 0.024760 0.265874 -0.078583
v -0.030701 0.265847 -0.079058
v -0.068802 0.270512 -0.044165
v -0.079654 0.272187 0.004234
v -0.064597 0.270465 0.048312
v -0.025305 0.272994 0.075458
v 0.059719 0.329700 -0.042247
v 0.020165 0.330800 -0.065255
v -0.003092 0.364680 0.005358
v -0.027059 0.333038 -0.068094
v -0.058279 0.335835 -0.035542
v -0.066517 0.337589 0.005665
v -0.055123 0.337833 0.043131
v -0.022084 0.338480 0.063119
v 0.017144 0.337833 0.067197
v 0.052430 0.335932 0.045726
v 0.070279 0.333669 0.004664
v 0.080013 -0.259428 -0.115036
v 0.009228 -0.238884 -0.148754
v -0.077946 -0.242911 -0.123615
v -0.147483 -0.259004 -0.048105
v -0.148809 -0.273149 0.042513
v -0.098689 -0.274044 0.145942
v -0.007206 -0.256146 0.152305
v 0.090721 -0.274147 0.144645
v 0.150612 -0.268440 0.055069
v 0.137232 -0.258261 -0.047008
v 0.172440 -0.180566 -0.216594
v 0.004232 -0.152680 -0.244943
v -0.147434 -0.144796 -0.203007
v -0.250857 -0.150549 -0.090796
v -0.240013 -0.153937 0.066154
v -0.153116 -0.139394 0.211572
v -0.004012 -0.124647 0.235521
v 0.137511 -0.150053 0.206318
v 0.242273 -0.152538 0.075957
v 0.221646 -0.138026 -0.077267
v 0.166551 0.012408 -0.209116
v -0.004703 0.006367 -0.264800
v -0.181653 -0.001125 -0.253642
v -0.242158 0.010041 -0.081372
v -0.262043 -0.000166 0.073057
v -0.144083 0.000274 0.207563
v -0.008598 0.002393 0.279078
v 0.156896 -0.000795 0.239271
v 0.225325 0.009648 0.081489
v 0.242881 0.015936 -0.100738
v 0.145946 0.142288 -0.194925
v -0.014646 0.156013 -0.253712
v -0.120926 0.147141 -0.168401
v -0.220425 0.145981 -0.073180
v -0.266155 0.164021 0.086228
v -0.147871 0.152265 0.174929
v 0.001803 0.147149 0.222439
v 0.145753 0.150897 0.201447
v 0.254941 0.149414 0.087549
v 0.238720 0.149286 -0.076171
v 0.092396 0.254285 -0.129585
v -0.000198 0.241410 -0.141687
v -0.089683 0.250281 -0.117107
v -0.154490 0.270301 -0.049450
v -0.133477 0.234492 0.039388
v -0.091195 0.256982 0.118118
v 0.011455 0.256535 0.173141
v 0.104088 0.254107 0.133261
v 0.151048 0.261414 0.051075
v 0.157863 0.260995 -0.045616
v 0.173619 -0.220488 -0.127513
v 0.076007 -0.247954 -0.213893
v -0.063790 -0.231030 -0.212903
v -0.161702 -0.202191 -0.115438
v -0.203525 -0.223815 0.006320
v -0.165301 -0.211878 0.122902
v -0.059106 -0.179126 0.163587
v 0.053938 -0.204616 0.195895
v 0.171061 -0.226918 0.130769
v 0.185840 -0.199551 0.000514
v 0.194408 -0.058992 -0.159526
v 0.082828 -0.071922 -0.263092
v -0.074680 -0.071984 -0.293027
v -0.244698 -0.081288 -0.187110
v -0.259011 -0.074264 -0.002444
v -0.213121 -0.082749 0.143407
v -0.088139 -0.063820 0.265338
v 0.072938 -0.070783 0.246558
v 0.240403 -0.075772 0.186457
v 0.250270 -0.069991 -0.005443
v 0.234502 0.107933 -0.192839
v 0.055840 0.065917 -0.220416
v -0.093079 0.102711 -0.265204
v -0.232735 0.087497 -0.173003
v -0.273976 0.076165 -0.002650
v -0.219948 0.083163 0.156692
v -0.084309 0.074044 0.256203
v 0.058512 0.070730 0.226944
v 0.223127 0.074964 0.173640
v 0.303176 0.086512 0.008740
v 0.166660 0.206833 -0.117395
v 0.045527 0.181252 -0.173951
v -0.070429 0.231806 -0.192965
v -0.159964 0.213669 -0.117277
v -0.197853 0.206256 0.000192
v -0.183936 0.235177 0.128266
v -0.066541 0.219862 0.188451
v 0.076262 0.223281 0.217187
v 0.167764 0.208861 0.111745
v 0.228309 0.210113 0.012519
v 0.055208 -0.309589 -0.052528
v 0.019265 -0.271833 -0.073858
v -0.020165 -0.262402 -0.082121
v -0.063068 -0.263854 -0.046479
v -0.089550 -0.295118 0.004951
v -0.067031 -0.273056 0.060755
v -0.030668 -0.288422 0.093463
v 0.029214 -0.266599 0.083108
v 0.077212 -0.283752 0.059390
v 0.081813 -0.272490 0.005452
v 0.098580 0.274079 -0.069216
v 0.032415 0.258695 -0.103047
v -0.040964 0.265949 -0.107523
v -0.088706 0.259149 -0.060410
v -0.113795 0.271955 0.002932
v -0.091420 0.266280 0.063961
v -0.031866 0.258963 0.100957
v 0.040266 0.257733 0.113682
v 0.101791 0.287879 0.078278
v 0.107934 0.257504 0.001849
v 0.046222 0.271928 0.071413
v 0.077629 0.270132 0.030111
v 0.082002 0.266901 -0.025263
v 0.050735 0.265359 -0.068402
v -0.003631 0.265539 -0.082856
v -0.052786 0.267987 -0.064940
v -0.077610 0.271915 -0.020423
v -0.075353 0.271199 0.027753
v -0.047273 0.271543 0.064129
v -0.000568 0.273320 0.082534
v 0.066095 0.295578 -0.047324
v 0.022585 0.296827 -0.072554
v 0.043570 0.328953 -0.058074
v 0.011949 0.351844 -0.040626
v 0.037776 0.351354 -0.025324
v -0.029362 0.299096 -0.075748
v -0.004136 0.331053 -0.072143
v -0.018864 0.353107 -0.042155
v -0.063718 0.302453 -0.039902
v -0.046392 0.333798 -0.056325
v -0.039324 0.354783 -0.021136
v -0.072779 0.304473 0.005412
v -0.066495 0.336269 -0.015563
v -0.044790 0.355844 0.005886
v -0.060250 0.304541 0.046638
v -0.064950 0.337213 0.026316
v -0.037201 0.355878 0.030299
v -0.023888 0.305496 0.068629
v -0.041325 0.337587 0.056398
v -0.015715 0.356345 0.043522
v 0.019297 0.305051 0.073262
v -0.002565 0.337832 0.069226
v 0.009976 0.355935 0.046025
v 0.058104 0.302621 0.049506
v 0.037066 0.336548 0.060806
v 0.033052 0.354963 0.032065
v 0.077720 0.300049 0.004329
v 0.065907 0.334287 0.027556
v 0.044716 0.353614 0.005168
v 0.070605 0.330684 -0.020776
v 0.120906 -0.232453 -0.170442
v 0.003334 -0.245826 -0.218083
v -0.116323 -0.207775 -0.157592
v -0.205724 -0.221881 -0.052849
v -0.192324 -0.218996 0.064496
v -0.124850 -0.216112 0.172632
v 0.000849 -0.179451 0.175461
v 0.109957 -0.236251 0.199824
v 0.196489 -0.216224 0.064643
v 0.195558 -0.214113 -0.065597
v 0.168531 -0.076868 -0.228659
v -0.001625 -0.071385 -0.265559
v -0.158088 -0.069612 -0.212796
v -0.276343 -0.070152 -0.087120
v -0.272485 -0.085219 0.061587
v -0.154727 -0.066315 0.216703
v -0.007259 -0.061023 0.266548
v 0.166232 -0.079593 0.226247
v 0.266219 -0.077391 0.092774
v 0.274513 -0.073396 -0.102164
v 0.166215 0.090330 -0.220334
v 0.005525 0.098715 -0.268712
v -0.167482 0.091222 -0.235793
v -0.262491 0.082906 -0.088102
v -0.261020 0.079099 0.084890
v -0.165371 0.083917 0.219073
v -0.001053 0.079399 0.238091
v 0.147909 0.076910 0.216703
v 0.243801 0.079503 0.085724
v 0.259785 0.093312 -0.105687
v 0.121427 0.205545 -0.167541
v 0.002382 0.211978 -0.210816
v -0.115564 0.216827 -0.157505
v -0.178347 0.200387 -0.058662
v -0.203105 0.209485 0.066175
v -0.128291 0.226251 0.164549
v 0.006826 0.223192 0.231306
v 0.123746 0.206072 0.155065
v 0.215933 0.226608 0.072810
v 0.181816 0.198126 -0.056518
v 0.042509 -0.302913 -0.079452
v 0.001999 -0.245490 -0.091085
v -0.048787 -0.274520 -0.085992
v -0.095165 -0.280009 -0.025979
v -0.095293 -0.291988 0.036986
v -0.060432 -0.288978 0.096645
v -0.002394 -0.256650 0.098709
v 0.066121 -0.280510 0.086895
v 0.098150 -0.272079 0.038979
v 0.082022 -0.271910 -0.027343
v 0.031048 0.348340 -0.040955
v -0.004014 0.349652 -0.051246
v -0.035013 0.351459 -0.039604
v -0.049764 0.353268 -0.009700
v -0.048592 0.353806 0.021007
v -0.031271 0.354043 0.043058
v -0.002856 0.354111 0.052431
v 0.026198 0.353461 0.046302
v 0.047410 0.351976 0.021954
v 0.050905 0.349542 -0.013538
v 0.067459 0.258806 0.094968
v 0.109709 0.273951 0.038405
v 0.104992 0.259342 -0.033553
v 0.065416 0.261738 -0.090262
v -0.003198 0.253869 -0.103989
v -0.074125 0.278507 -0.097837
v -0.100241 0.256962 -0.030022
v -0.113589 0.278499 0.038955
v -0.070292 0.272755 0.090958
v 0.003757 0.273204 0.120993
v 0.047122 0.295708 -0.063055
v -0.004120 0.297788 -0.078144
v -0.049507 0.300770 -0.061174
v -0.071159 0.303695 -0.017399
v -0.069484 0.304579 0.027611
v -0.044087 0.304961 0.059934
v -0.002438 0.305654 0.073849
v 0.040196 0.304090 0.064745
v 0.071145 0.301496 0.028940
v 0.076165 0.297564 -0.022991
vt 0.000000 0.110113
vt 0.141667 0.115321
vt 0.231250 0.115321
vt 0.320833 0.115321
vt 0.410417 0.115321
vt 0.500000 0.115321
vt 0.589583 0.115321
vt 0.679167 0.115321
vt 0.768750 0.115321
vt 0.858333 0.115321
vt 1.000000 0.110113
vt 0.000000 0.243533
vt 0.100000 0.243533
vt 0.200000 0.243533
vt 0.300000 0.243533
vt 0.400000 0.243533
vt 0.500000 0.243533
vt 0.600000 0.243533
vt 0.700000 0.243533
vt 0.800000 0.243533
vt 0.900000 0.243533
vt 1.000000 0.243533
vt 0.000000 0.376953
vt 0.100000 0.376953
vt 0.200000 0.376953
vt 0.300000 0.376953
vt 0.400000 0.376953
vt 0.500000 0.376953
vt 0.600000 0.376953
vt 0.700000 0.376953
vt 0.800000 0.376953
vt 0.900000 0.376953
vt 1.000000 0.376953
vt 0.000000 0.510373
vt 0.100000 0.510373
vt 0.200000 0.510373
vt 0.300000 0.510373
vt 0.400000 0.510373
vt 0.500000 0.510373
vt 0.600000 0.510373
vt 0.700000 0.510373
vt 0.800000 0.510373
vt 0.900000 0.510373
vt 1.000000 0.510373
vt 0.000000 0.643793
vt 0.100000 0.642039
vt 0.200000 0.642039
vt 0.300000 0.642039
vt 0.400000 0.642039
vt 0.500000 0.642039
vt 0.600000 0.642039
vt 0.700000 0.642039
vt 0.800000 0.642039
vt 0.900000 0.642039
vt 1.000000 0.643793
vt 0.500000 0.000000
vt 0.500000 1.000000
vt 0.700000 0.765575
vt 0.800000 0.765575
vt 0.900000 0.765575
vt 1.000000 0.763184
vt 0.000000 0.763184
vt 0.100000 0.765575
vt 0.200000 0.765575
vt 0.300000 0.765575
vt 0.400000 0.765575
vt 0.500000 0.765575
vt 0.600000 0.765575
vt 0.000000 0.901702
vt 0.141667 0.894627
vt 0.231250 0.894627
vt 0.320833 0.894627
vt 0.410417 0.894627
vt 0.500000 0.894627
vt 0.589583 0.894627
vt 0.679167 0.894627
vt 0.768750 0.894627
vt 0.858333 0.894627
vt 1.000000 0.901702
vt 0.050000 0.176823
vt 0.150000 0.176823
vt 0.250000 0.176823
vt 0.350000 0.176823
vt 0.450000 0.176823
vt 0.550000 0.176823
vt 0.650000 0.176823
vt 0.750000 0.176823
vt 0.850000 0.176823
vt 0.950000 0.176823
vt 0.050000 0.310243
vt 0.150000 0.310243
vt 0.250000 0.310243
vt 0.350000 0.310243
vt 0.450000 0.310243
vt 0.550000 0.310243
vt 0.650000 0.310243
vt 0.750000 0.310243
vt 0.850000 0.310243
vt 0.950000 0.310243
vt 0.050000 0.443663
vt 0.150000 0.443663
vt 0.250000 0.443663
vt 0.350000 0.443663
vt 0.450000 0.443663
vt 0.550000 0.443663
vt 0.650000 0.443663
vt 0.750000 0.443663
vt 0.850000 0.443663
vt 0.950000 0.443663
vt 0.050000 0.577083
vt 0.150000 0.577083
vt 0.250000 0.577083
vt 0.350000 0.577083
vt 0.450000 0.577083
vt 0.550000 0.577083
vt 0.650000 0.577083
vt 0.750000 0.577083
vt 0.850000 0.577083
vt 0.950000 0.577083
vt 0.200000 0.073409
vt 0.266667 0.073409
vt 0.333333 0.073409
vt 0.400000 0.073409
vt 0.466667 0.073409
vt 0.533333 0.073409
vt 0.600000 0.073409
vt 0.666667 0.073409
vt 0.733333 0.073409
vt 0.800000 0.073409
vt 0.200000 0.934468
vt 0.266667 0.934468
vt 0.333333 0.934468
vt 0.400000 0.934468
vt 0.466667 0.934468
vt 0.533333 0.934468
vt 0.600000 0.934468
vt 0.666667 0.934468
vt 0.733333 0.934468
vt 0.800000 0.934468
vt 0.750000 0.703488
vt 0.850000 0.703488
vt 0.950000 0.703488
vt 0.050000 0.703488
vt 0.150000 0.703488
vt 0.250000 0.703488
vt 0.350000 0.703488
vt 0.450000 0.703488
vt 0.550000 0.703488
vt 0.650000 0.703488
vt 0.050000 0.832443
vt 0.150000 0.832443
vt 0.250000 0.832443
vt 0.350000 0.832443
vt 0.450000 0.832443
vt 0.550000 0.832443
vt 0.650000 0.832443
vt 0.750000 0.832443
vt 0.850000 0.832443
vt 0.950000 0.832443
vt 0.087500 0.117615
vt 0.100000 0.176823
vt 0.050000 0.243533
vt 0.000000 0.176823
vt 0.179167 0.117615
vt 0.200000 0.176823
vt 0.150000 0.243533
vt 0.270833 0.117615
vt 0.300000 0.176823
vt 0.250000 0.243533
vt 0.362500 0.117615
vt 0.400000 0.176823
vt 0.350000 0.243533
vt 0.454167 0.117615
vt 0.500000 0.176823
vt 0.450000 0.243533
vt 0.545833 0.117615
vt 0.600000 0.176823
vt 0.550000 0.243533
vt 0.637500 0.117615
vt 0.700000 0.176823
vt 0.650000 0.243533
vt 0.729167 0.117615
vt 0.800000 0.176823
vt 0.750000 0.243533
vt 0.820833 0.117615
vt 0.900000 0.176823
vt 0.850000 0.243533
vt 0.912500 0.117615
vt 1.000000 0.176823
vt 0.950000 0.243533
vt 0.100000 0.310243
vt 0.050000 0.376953
vt 0.000000 0.310243
vt 0.200000 0.310243
vt 0.150000 0.376953
vt 0.300000 0.310243
vt 0.250000 0.376953
vt 0.400000 0.310243
vt 0.350000 0.376953
vt 0.500000 0.310243
vt 0.450000 0.376953
vt 0.600000 0.310243
vt 0.550000 0.376953
vt 0.700000 0.310243
vt 0.650000 0.376953
vt 0.800000 0.310243
vt 0.750000 0.376953
vt 0.900000 0.310243
vt 0.850000 0.376953
vt 1.000000 0.310243
vt 0.950000 0.376953
vt 0.100000 0.443663
vt 0.050000 0.510373
vt 0.000000 0.443663
vt 0.200000 0.443663
vt 0.150000 0.510373
vt 0.300000 0.443663
vt 0.250000 0.510373
vt 0.400000 0.443663
vt 0.350000 0.510373
vt 0.500000 0.443663
vt 0.450000 0.510373
vt 0.600000 0.443663
vt 0.550000 0.510373
vt 0.700000 0.443663
vt 0.650000 0.510373
vt 0.800000 0.443663
vt 0.750000 0.510373
vt 0.900000 0.443663
vt 0.850000 0.510373
vt 1.000000 0.443663
vt 0.950000 0.510373
vt 0.100000 0.577083
vt 0.050000 0.642039
vt 0.000000 0.577083
vt 0.200000 0.577083
vt 0.150000 0.642039
vt 0.300000 0.577083
vt 0.250000 0.642039
vt 0.400000 0.577083
vt 0.350000 0.642039
vt 0.500000 0.577083
vt 0.450000 0.642039
vt 0.600000 0.577083
vt 0.550000 0.642039
vt 0.700000 0.577083
vt 0.650000 0.642039
vt 0.800000 0.577083
vt 0.750000 0.642039
vt 0.900000 0.577083
vt 0.850000 0.642039
vt 1.000000 0.577083
vt 0.950000 0.642039
vt 0.250000 0.055057
vt 0.266667 0.064233
vt 0.325000 0.064233
vt 0.383333 0.064233
vt 0.441667 0.064233
vt 0.500000 0.064233
vt 0.558333 0.064233
vt 0.616667 0.064233
vt 0.675000 0.064233
vt 0.733333 0.064233
vt 0.750000 0.055057
vt 0.087500 0.892579
vt 0.266667 0.942660
vt 0.250000 0.950851
vt 0.179167 0.892579
vt 0.325000 0.942660
vt 0.270833 0.892579
vt 0.383333 0.942660
vt 0.362500 0.892579
vt 0.441667 0.942660
vt 0.454167 0.892579
vt 0.500000 0.942660
vt 0.545833 0.892579
vt 0.558333 0.942660
vt 0.637500 0.892579
vt 0.616667 0.942660
vt 0.729167 0.892579
vt 0.675000 0.942660
vt 0.820833 0.892579
vt 0.733333 0.942660
vt 0.912500 0.892579
vt 0.750000 0.950851
vt 0.800000 0.703488
vt 0.750000 0.765575
vt 0.700000 0.703488
vt 0.900000 0.703488
vt 0.850000 0.765575
vt 1.000000 0.703488
vt 0.950000 0.765575
vt 0.100000 0.703488
vt 0.050000 0.765575
vt 0.000000 0.703488
vt 0.200000 0.703488
vt 0.150000 0.765575
vt 0.300000 0.703488
vt 0.250000 0.765575
vt 0.400000 0.703488
vt 0.350000 0.765575
vt 0.500000 0.703488
vt 0.450000 0.765575
vt 0.600000 0.703488
vt 0.550000 0.765575
vt 0.650000 0.765575
vt 0.100000 0.832443
vt 0.000000 0.832443
vt 0.200000 0.832443
vt 0.300000 0.832443
vt 0.400000 0.832443
vt 0.500000 0.832443
vt 0.600000 0.832443
vt 0.700000 0.832443
vt 0.800000 0.832443
vt 0.900000 0.832443
vt 1.000000 0.832443
vn 0.507494 -0.833105 -0.219968
vn -0.234568 -0.918111 -0.319452
vn 0.438254 -0.834282 -0.334525
vn 0.136511 -0.751789 -0.645119
vn 0.255969 -0.332982 -0.907526
vn 0.517738 -0.521903 -0.677912
vn 0.886140 -0.279132 -0.369919
vn 0.608756 -0.761335 -0.223127
vn 0.452394 -0.862242 -0.227770
vn -0.319419 -0.940311 -0.117420
vn -0.019401 -0.960619 -0.277190
vn -0.111773 -0.899827 -0.421684
vn -0.359469 -0.744553 -0.562515
vn -0.229400 -0.377608 -0.897100
vn 0.030218 -0.289430 -0.956722
vn -0.275096 -0.819165 -0.503280
vn -0.296070 -0.866426 -0.402056
vn -0.445358 -0.810669 -0.380095
vn -0.405323 -0.761959 -0.505105
vn -0.420600 -0.539290 -0.729563
vn -0.479015 -0.516450 -0.709805
vn -0.432445 -0.881354 -0.190282
vn -0.797685 -0.601488 0.043704
vn -0.375241 -0.788137 -0.487887
vn -0.694377 -0.685829 -0.217897
vn -0.923783 -0.382865 -0.006250
vn -0.848735 -0.492787 -0.191858
vn -0.512228 -0.821661 0.249993
vn -0.476491 -0.838148 0.265449
vn -0.731532 -0.597613 0.328207
vn -0.698693 -0.555242 0.451148
vn -0.762883 -0.418909 0.492468
vn -0.844667 -0.442478 0.301251
vn -0.177519 -0.805546 0.565316
vn 0.202675 -0.666061 0.717834
vn -0.344337 -0.514043 0.785616
vn 0.007502 -0.527821 0.849322
vn -0.153262 -0.523242 0.838289
vn -0.464197 -0.394369 0.793092
vn -0.227005 -0.887407 0.401221
vn -0.190587 -0.449195 0.872869
vn -0.159907 -0.680712 0.714885
vn -0.307615 -0.488281 0.816673
vn 0.000438 -0.437998 0.898976
vn -0.029125 -0.570897 0.820505
vn 0.297221 -0.937253 0.182256
vn 0.687681 -0.586920 0.427340
vn 0.107730 -0.900156 0.422035
vn 0.146633 -0.589507 0.794342
vn 0.708966 -0.491773 0.505497
vn 0.402961 -0.346082 0.847260
vn 0.488501 -0.870345 -0.062186
vn 0.468405 -0.871764 -0.143616
vn 0.837536 -0.545326 -0.033941
vn 0.874715 -0.479527 -0.070199
vn 0.897181 -0.429140 -0.104431
vn 0.876008 -0.476221 -0.076312
vn 0.458759 -0.870994 -0.175811
vn 0.844081 -0.533949 0.049245
vn 0.867382 -0.491201 0.079816
vn 0.627066 0.039296 -0.777975
vn 0.154311 -0.092802 -0.983654
vn 0.244860 0.228966 -0.942135
vn 0.601062 -0.067300 -0.796363
vn 0.745446 -0.259074 -0.614159
vn 0.790458 -0.004958 -0.612496
vn 0.173290 -0.178188 -0.968617
vn -0.086773 -0.181213 -0.979608
vn -0.214430 0.021609 -0.976500
vn 0.226423 0.112850 -0.967470
vn -0.497105 -0.231807 -0.836154
vn -0.736248 -0.110945 -0.667555
vn -0.858485 0.081111 -0.506384
vn -0.633980 -0.177730 -0.752649
vn -0.981472 -0.187173 0.040978
vn -0.990731 0.023405 -0.133808
vn -0.999396 0.003729 -0.034567
vn -0.961313 0.052183 -0.270470
vn -0.798557 -0.055076 0.599394
vn -0.970622 -0.173550 0.166654
vn -0.775715 -0.069111 0.627287
vn -0.926364 0.012088 0.376437
vn -0.668562 0.019036 0.743413
vn -0.329764 -0.319973 0.888185
vn -0.455069 -0.060128 0.888424
vn -0.762228 -0.032673 0.646484
vn 0.223871 -0.301112 0.926938
vn 0.041626 -0.360173 0.931956
vn 0.194214 0.044457 0.979951
vn 0.078950 0.169311 0.982395
vn 0.419594 -0.234582 0.876876
vn 0.769252 -0.196326 0.608035
vn 0.802047 0.183029 0.568525
vn 0.432387 0.108733 0.895108
vn 0.958224 -0.282290 0.046045
vn 0.993048 -0.012899 0.117004
vn 0.971992 -0.201897 0.120291
vn 0.985598 0.037962 0.164788
vn 0.960629 -0.130305 -0.245384
vn 0.926854 -0.057397 -0.371009
vn 0.248359 0.180451 -0.951712
vn 0.186053 0.495731 -0.848313
vn 0.508937 0.439309 -0.740264
vn 0.079367 0.496838 -0.864206
vn 0.622642 0.652944 -0.431255
vn 0.634553 0.235998 -0.735967
vn -0.211494 0.309975 -0.926923
vn 0.525805 0.282355 -0.802374
vn -0.337772 0.532055 -0.776419
vn 0.513353 0.281832 -0.810580
vn -0.513449 0.444368 -0.734103
vn -0.880857 0.170909 -0.441454
vn -0.633680 0.649700 -0.419928
vn -0.582675 0.499887 -0.640783
vn -0.985358 0.151381 -0.078448
vn -0.945878 0.243328 -0.214723
vn -0.867709 0.460873 -0.186219
vn -0.791176 0.564566 -0.235172
vn -0.931379 -0.051353 0.360411
vn -0.722502 -0.044372 0.689943
vn -0.687160 0.319782 0.652342
vn -0.885127 0.438238 0.156517
vn -0.218258 0.328866 0.918809
vn -0.626769 0.116833 0.770397
vn -0.216491 0.406975 0.887414
vn -0.448775 0.349491 0.822470
vn 0.096403 0.270975 0.957747
vn 0.151180 0.348738 0.924947
vn 0.155060 0.088239 0.983957
vn -0.186244 0.089175 0.978448
vn 0.482638 0.181936 0.856715
vn 0.861472 0.201524 0.466104
vn 0.679111 0.407589 0.610474
vn 0.688864 0.410433 0.597504
vn 0.864182 -0.132594 0.485395
vn 0.999651 -0.015900 0.021080
vn 0.918225 0.348779 0.187660
vn 0.746282 0.339305 0.572656
vn 0.962171 0.043920 -0.268885
vn 0.751861 0.611524 -0.246462
vn 0.307163 0.362197 -0.880037
vn 0.289610 0.558044 -0.777633
vn -0.042476 0.810671 -0.583959
vn 0.218444 0.858783 -0.463438
vn 0.512110 0.827320 -0.230837
vn 0.578629 0.713987 -0.394222
vn 0.417307 0.691606 -0.589522
vn -0.355249 0.862965 -0.359292
vn -0.069712 0.843652 -0.532345
vn -0.060836 0.925711 -0.373307
vn -0.641266 0.588717 -0.492128
vn -0.399759 0.693236 -0.599681
vn -0.397244 0.865646 -0.304719
vn -0.075891 0.643521 -0.761657
vn -0.599879 0.787468 -0.141562
vn -0.779155 0.601620 -0.175985
vn -0.624301 0.772567 0.115705
vn -0.476879 0.877267 0.054661
vn -0.602404 0.793866 -0.082979
vn -0.532274 0.693243 0.485899
vn -0.347819 0.931617 0.105417
vn -0.692765 0.720475 -0.031520
vn -0.321160 0.656057 0.682968
vn -0.218237 0.716293 0.662795
vn -0.234322 0.889836 0.391518
vn -0.039816 0.909036 0.414811
vn -0.216743 0.483884 0.847867
vn 0.411159 0.708113 0.574042
vn 0.310809 0.885408 0.345617
vn -0.088296 0.938860 0.332786
vn 0.633912 0.613239 0.471267
vn 0.468737 0.627863 0.621348
vn 0.480876 0.768230 0.422589
vn 0.350667 0.897858 0.266239
vn 0.602075 0.774138 -0.195487
vn 0.596571 0.708960 0.376137
vn 0.456261 0.880652 -0.127586
vn 0.388613 0.915601 0.103218
vn 0.734626 0.648176 -0.200480
vn 0.561737 0.818215 0.122381
vn 0.042573 -0.943855 -0.327606
vn 0.163796 -0.983943 0.070909
vn -0.065140 -0.997549 -0.025534
vn -0.596077 -0.761771 -0.253768
vn -0.248386 -0.862932 -0.440061
vn 0.179459 -0.942579 -0.281673
vn -0.049897 -0.973487 -0.223232
vn 0.063017 -0.979446 -0.191612
vn -0.011842 -0.857206 -0.514838
vn 0.095504 -0.992361 -0.078101
vn 0.011345 -0.975661 0.218990
vn 0.081719 -0.996218 -0.029536
vn -0.063759 -0.995474 0.070467
vn 0.216982 -0.945096 0.244362
vn 0.143486 -0.916045 0.374532
vn -0.113367 -0.968265 0.222736
vn -0.218618 -0.968591 0.118484
vn -0.001414 -0.994458 -0.105128
vn 0.187690 -0.968651 -0.162748
vn 0.243434 -0.969704 0.020341
vn 0.441006 -0.893553 -0.084125
vn 0.473215 0.401289 -0.784241
vn 0.245963 0.546142 -0.800769
vn 0.309190 0.816190 -0.488094
vn 0.141016 0.916818 -0.373576
vn 0.012627 0.999681 -0.021857
vn 0.297811 0.920328 -0.253585
vn 0.676983 0.560311 -0.477226
vn 0.037607 0.438354 -0.898015
vn -0.295624 0.571795 -0.765282
vn 0.062415 0.824846 -0.561902
vn -0.082149 0.932180 -0.352551
vn -0.655479 0.434087 -0.617993
vn -0.751648 0.539740 -0.379087
vn -0.362276 0.833958 -0.416257
vn -0.302920 0.930676 -0.205137
vn -0.897970 0.406882 -0.167623
vn -0.813894 0.580713 0.018683
vn -0.562545 0.814441 -0.142227
vn -0.371288 0.928516 -0.001874
vn -0.888770 0.367608 0.273775
vn -0.650304 0.528155 0.546037
vn -0.553763 0.814763 0.171776
vn -0.294515 0.930004 0.219895
vn -0.460145 0.394647 0.795311
vn -0.260328 0.569483 0.779692
vn -0.320933 0.808177 0.493814
vn -0.120603 0.925810 0.358232
vn -0.115600 0.399117 0.909584
vn 0.162040 0.532685 0.830656
vn -0.045744 0.809711 0.585044
vn 0.097322 0.932505 0.347798
vn 0.457599 0.415123 0.786306
vn 0.638174 0.539514 0.549234
vn 0.317785 0.824334 0.468493
vn 0.298170 0.931964 0.206245
vn 0.824947 0.423376 0.374454
vn 0.831112 0.551882 0.068400
vn 0.530939 0.825075 0.193275
vn 0.369577 0.928916 -0.022978
vn 0.876837 0.436178 -0.202253
vn 0.533268 0.825210 -0.186156
vn 0.044677 0.936320 0.348294
vn 0.087008 0.953018 0.290150
vn 0.375706 0.857100 0.352456
vn 0.462743 0.656128 0.596125
vn 0.287478 0.713673 0.638770
vn 0.202658 0.958624 0.199927
vn 0.232613 0.950042 -0.208112
vn 0.334504 0.932309 -0.137503
vn 0.844977 0.534736 0.008416
vn 0.669736 0.734042 0.112413
vn 0.212723 0.966019 0.146824
vn 0.004690 0.999988 0.001725
vn 0.330744 0.914747 -0.232049
vn 0.726960 0.652186 -0.214902
vn -0.072188 0.984909 -0.157297
vn -0.070477 0.968224 -0.239949
vn 0.177954 0.651385 -0.737584
vn 0.366690 0.716494 -0.593443
vn -0.021808 0.889927 -0.455582
vn 0.198438 0.814329 -0.545427
vn -0.089340 0.674919 -0.732464
vn 0.048965 0.497851 -0.865879
vn -0.142508 0.975268 -0.168948
vn -0.277928 0.958071 0.069691
vn -0.687710 0.602144 -0.405560
vn -0.370588 0.824505 -0.427617
vn -0.258045 0.958496 -0.121240
vn -0.419623 0.890358 -0.176575
vn -0.712685 0.696684 -0.081917
vn -0.833341 0.505003 -0.224755
vn -0.340448 0.937784 0.068233
vn -0.074267 0.984229 0.160554
vn -0.593587 0.729041 0.340814
vn -0.488249 0.851965 0.189124
vn -0.114559 0.903654 0.412656
vn -0.053260 0.983963 0.170239
vn -0.321992 0.466724 0.823705
vn -0.374467 0.688548 0.621028
vn -0.116883 0.967091 0.225994
vn -0.149119 0.720034 0.677728
vn 0.473177 0.196140 -0.858855
vn 0.265201 0.194506 -0.944371
vn 0.769355 0.208874 -0.603709
vn 0.063762 0.161663 -0.984784
vn -0.340741 0.168332 -0.924965
vn -0.683656 0.177754 -0.707826
vn -0.878183 0.195871 -0.436383
vn -0.959231 0.189138 -0.210008
vn -0.982485 0.177876 0.055527
vn -0.932872 0.150812 0.327116
vn -0.775369 0.154995 0.612193
vn -0.537406 0.161496 0.827716
vn -0.313406 0.172278 0.933861
vn 0.193410 0.230184 0.953734
vn -0.096538 0.197377 0.975563
vn 0.746925 0.211159 0.630488
vn 0.535102 0.224170 0.814502
vn 0.975084 0.201466 0.092859
vn 0.909098 0.193636 0.368843
vn 0.948546 0.197761 -0.247286
f 73/160/1 2/2/2 223/80/3
f 223/80/3 2/2/2 124/161/4
f 124/161/4 12/13/5 223/80/3
f 223/80/3 12/13/5 83/162/6
f 11/12/7 123/163/8 83/162/6
f 83/162/6 123/163/8 223/80/3
f 123/163/8 1/1/9 223/80/3
f 223/80/3 1/1/9 73/160/1
f 74/164/10 3/3/11 224/81/12
f 224/81/12 3/3/11 125/165/13
f 13/14/14 84/166/15 125/165/13
f 125/165/13 84/166/15 224/81/12
f 12/13/5 124/161/4 84/166/15
f 84/166/15 124/161/4 224/81/12
f 2/2/2 74/164/10 124/161/4
f 124/161/4 74/164/10 224/81/12
f 75/167/16 4/4/17 225/82/18
f 225/82/18 4/4/17 126/168/19
f 14/15/20 85/169/21 126/168/19
f 126/168/19 85/169/21 225/82/18
f 13/14/14 125/165/13 85/169/21
f 85/169/21 125/165/13 225/82/18
f 125/165/13 3/3/11 225/82/18
f 225/82/18 3/3/11 75/167/16
f 5/5/22 127/171/23 76/170/24
f 76/170/24 127/171/23 226/83/25
f 127/171/23 15/16/26 226/83/25
f 226/83/25 15/16/26 86/172/27
f 14/15/20 126/168/19 86/172/27
f 86/172/27 126/168/19 226/83/25
f 4/4/17 76/170/24 126/168/19
f 126/168/19 76/170/24 226/83/25
f 77/173/28 6/6/29 227/84/30
f 227/84/30 6/6/29 128/174/31
f 128/174/31 16/17/32 227/84/30
f 227/84/30 16/17/32 87/175/33
f 15/16/26 127/171/23 87/175/33
f 87/175/33 127/171/23 227/84/30
f 5/5/22 77/173/28 127/171/23
f 127/171/23 77/173/28 227/84/30
f 78/176/34 7/7/35 228/85/36
f 228/85/36 7/7/35 129/177/37
f 17/18/38 88/178/39 129/177/37
f 129/177/37 88/178/39 228/85/36
f 88/178/39 16/17/32 228/85/36
f 228/85/36 16/17/32 128/174/31
f 128/174/31 6/6/29 228/85/36
f 228/85/36 6/6/29 78/176/34
f 8/8/40 130/180/41 79/179/42
f 79/179/42 130/180/41 229/86/43
f 130/180/41 18/19/44 229/86/43
f 229/86/43 18/19/44 89/181/45
f 17/18/38 129/177/37 89/181/45
f 89/181/45 129/177/37 229/86/43
f 7/7/35 79/179/42 129/177/37
f 129/177/37 79/179/42 229/86/43
f 9/9/46 131/183/47 80/182/48
f 80/182/48 131/183/47 230/87/49
f 19/20/50 90/184/51 131/183/47
f 131/183/47 90/184/51 230/87/49
f 18/19/44 130/180/41 90/184/51
f 90/184/51 130/180/41 230/87/49
f 130/180/41 8/8/40 230/87/49
f 230/87/49 8/8/40 80/182/48
f 81/185/52 10/10/53 231/88/54
f 231/88/54 10/10/53 132/186/55
f 132/186/55 20/21/56 231/88/54
f 231/88/54 20/21/56 91/187/57
f 91/187/57 19/20/50 231/88/54
f 231/88/54 19/20/50 131/183/47
f 9/9/46 81/185/52 131/183/47
f 131/183/47 81/185/52 231/88/54
f 1/11/9 123/189/8 82/188/58
f 82/188/58 123/189/8 232/89/59
f 11/22/7 92/190/60 123/189/8
f 123/189/8 92/190/60 232/89/59
f 92/190/60 20/21/56 232/89/59
f 232/89/59 20/21/56 132/186/55
f 10/10/53 82/188/58 132/186/55
f 132/186/55 82/188/58 232/89/59
f 83/162/6 12/13/5 233/90/61
f 233/90/61 12/13/5 134/191/62
f 134/191/62 22/24/63 233/90/61
f 233/90/61 22/24/63 93/192/64
f 21/23/65 133/193/66 93/192/64
f 93/192/64 133/193/66 233/90/61
f 133/193/66 11/12/7 233/90/61
f 233/90/61 11/12/7 83/162/6
f 84/166/15 13/14/14 234/91/67
f 234/91/67 13/14/14 135/194/68
f 23/25/69 94/195/70 135/194/68
f 135/194/68 94/195/70 234/91/67
f 22/24/63 134/191/62 94/195/70
f 94/195/70 134/191/62 234/91/67
f 12/13/5 84/166/15 134/191/62
f 134/191/62 84/166/15 234/91/67
f 85/169/21 14/15/20 235/92/71
f 235/92/71 14/15/20 136/196/72
f 136/196/72 24/26/73 235/92/71
f 235/92/71 24/26/73 95/197/74
f 95/197/74 23/25/69 235/92/71
f 235/92/71 23/25/69 135/194/68
f 135/194/68 13/14/14 235/92/71
f 235/92/71 13/14/14 85/169/21
f 15/16/26 137/198/75 86/172/27
f 86/172/27 137/198/75 236/93/76
f 137/198/75 25/27/77 236/93/76
f 236/93/76 25/27/77 96/199/78
f 96/199/78 24/26/73 236/93/76
f 236/93/76 24/26/73 136/196/72
f 14/15/20 86/172/27 136/196/72
f 136/196/72 86/172/27 236/93/76
f 16/17/32 138/200/79 87/175/33
f 87/175/33 138/200/79 237/94/80
f 26/28/81 97/201/82 138/200/79
f 138/200/79 97/201/82 237/94/80
f 25/27/77 137/198/75 97/201/82
f 97/201/82 137/198/75 237/94/80
f 137/198/75 15/16/26 237/94/80
f 237/94/80 15/16/26 87/175/33
f 88/178/39 17/18/38 238/95/83
f 238/95/83 17/18/38 139/202/84
f 27/29/85 98/203/86 139/202/84
f 139/202/84 98/203/86 238/95/83
f 98/203/86 26/28/81 238/95/83
f 238/95/83 26/28/81 138/200/79
f 16/17/32 88/178/39 138/200/79
f 138/200/79 88/178/39 238/95/83
f 18/19/44 140/204/87 89/181/45
f 89/181/45 140/204/87 239/96/88
f 140/204/87 28/30/89 239/96/88
f 239/96/88 28/30/89 99/205/90
f 27/29/85 139/202/84 99/205/90
f 99/205/90 139/202/84 239/96/88
f 139/202/84 17/18/38 239/96/88
f 239/96/88 17/18/38 89/181/45
f 90/184/51 19/20/50 240/97/91
f 240/97/91 19/20/50 141/206/92
f 141/206/92 29/31/93 240/97/91
f 240/97/91 29/31/93 100/207/94
f 28/30/89 140/204/87 100/207/94
f 100/207/94 140/204/87 240/97/91
f 18/19/44 90/184/51 140/204/87
f 140/204/87 90/184/51 240/97/91
f 20/21/56 142/208/95 91/187/57
f 91/187/57 142/208/95 241/98/96
f 30/32/97 101/209/98 142/208/95
f 142/208/95 101/209/98 241/98/96
f 101/209/98 29/31/93 241/98/96
f 241/98/96 29/31/93 141/206/92
f 141/206/92 19/20/50 241/98/96
f 241/98/96 19/20/50 91/187/57
f 92/190/60 11/22/7 242/99/99
f 242/99/99 11/22/7 133/210/66
f 21/33/65 102/211/100 133/210/66
f 133/210/66 102/211/100 242/99/99
f 102/211/100 30/32/97 242/99/99
f 242/99/99 30/32/97 142/208/95
f 20/21/56 92/190/60 142/208/95
f 142/208/95 92/190/60 242/99/99
f 93/192/64 22/24/63 243/100/101
f 243/100/101 22/24/63 144/212/102
f 32/35/103 103/213/104 144/212/102
f 144/212/102 103/213/104 243/100/101
f 31/34/105 143/214/106 103/213/104
f 103/213/104 143/214/106 243/100/101
f 143/214/106 21/23/65 243/100/101
f 243/100/101 21/23/65 93/192/64
f 23/25/69 145/215/107 94/195/70
f 94/195/70 145/215/107 244/101/108
f 33/36/109 104/216/110 145/215/107
f 145/215/107 104/216/110 244/101/108
f 104/216/110 32/35/103 244/101/108
f 244/101/108 32/35/103 144/212/102
f 22/24/63 94/195/70 144/212/102
f 144/212/102 94/195/70 244/101/108
f 95/197/74 24/26/73 245/102/111
f 245/102/111 24/26/73 146/217/112
f 146/217/112 34/37/113 245/102/111
f 245/102/111 34/37/113 105/218/114
f 33/36/109 145/215/107 105/218/114
f 105/218/114 145/215/107 245/102/111
f 145/215/107 23/25/69 245/102/111
f 245/102/111 23/25/69 95/197/74
f 25/27/77 147/219/115 96/199/78
f 96/199/78 147/219/115 246/103/116
f 35/38/117 106/220/118 147/219/115
f 147/219/115 106/220/118 246/103/116
f 106/220/118 34/37/113 246/103/116
f 246/103/116 34/37/113 146/217/112
f 24/26/73 96/199/78 146/217/112
f 146/217/112 96/199/78 246/103/116
f 97/201/82 26/28/81 247/104/119
f 247/104/119 26/28/81 148/221/120
f 148/221/120 36/39/121 247/104/119
f 247/104/119 36/39/121 107/222/122
f 107/222/122 35/38/117 247/104/119
f 247/104/119 35/38/117 147/219/115
f 25/27/77 97/201/82 147/219/115
f 147/219/115 97/201/82 247/104/119
f 27/29/85 149/223/123 98/203/86
f 98/203/86 149/223/123 248/105/124
f 149/223/123 37/40/125 248/105/124
f 248/105/124 37/40/125 108/224/126
f 36/39/121 148/221/120 108/224/126
f 108/224/126 148/221/120 248/105/124
f 148/221/120 26/28/81 248/105/124
f 248/105/124 26/28/81 98/203/86
f 28/30/89 150/225/127 99/205/90
f 99/205/90 150/225/127 249/106/128
f 38/41/129 109/226/130 150/225/127
f 150/225/127 109/226/130 249/106/128
f 109/226/130 37/40/125 249/106/128
f 249/106/128 37/40/125 149/223/123
f 27/29/85 99/205/90 149/223/123
f 149/223/123 99/205/90 249/106/128
f 100/207/94 29/31/93 250/107/131
f 250/107/131 29/31/93 151/227/132
f 151/227/132 39/42/133 250/107/131
f 250/107/131 39/42/133 110/228/134
f 110/228/134 38/41/129 250/107/131
f 250/107/131 38/41/129 150/225/127
f 28/30/89 100/207/94 150/225/127
f 150/225/127 100/207/94 250/107/131
f 101/209/98 30/32/97 251/108/135
f 251/108/135 30/32/97 152/229/136
f 152/229/136 40/43/137 251/108/135
f 251/108/135 40/43/137 111/230/138
f 111/230/138 39/42/133 251/108/135
f 251/108/135 39/42/133 151/227/132
f 29/31/93 101/209/98 151/227/132
f 151/227/132 101/209/98 251/108/135
f 102/211/100 21/33/65 252/109/139
f 252/109/139 21/33/65 143/231/106
f 143/231/106 31/44/105 252/109/139
f 252/109/139 31/44/105 112/232/140
f 40/43/137 152/229/136 112/232/140
f 112/232/140 152/229/136 252/109/139
f 152/229/136 30/32/97 252/109/139
f 252/109/139 30/32/97 102/211/100
f 32/35/103 154/233/141 103/213/104
f 103/213/104 154/233/141 253/110/142
f 154/233/141 42/46/143 253/110/142
f 253/110/142 42/46/143 113/234/144
f 41/45/145 153/235/146 113/234/144
f 113/234/144 153/235/146 253/110/142
f 31/34/105 103/213/104 153/235/146
f 153/235/146 103/213/104 253/110/142
f 104/216/110 33/36/109 254/111/147
f 254/111/147 33/36/109 155/236/148
f 43/47/149 114/237/150 155/236/148
f 155/236/148 114/237/150 254/111/147
f 42/46/143 154/233/141 114/237/150
f 114/237/150 154/233/141 254/111/147
f 32/35/103 104/216/110 154/233/141
f 154/233/141 104/216/110 254/111/147
f 34/37/113 156/238/151 105/218/114
f 105/218/114 156/238/151 255/112/152
f 156/238/151 44/48/153 255/112/152
f 255/112/152 44/48/153 115/239/154
f 115/239/154 43/47/149 255/112/152
f 255/112/152 43/47/149 155/236/148
f 33/36/109 105/218/114 155/236/148
f 155/236/148 105/218/114 255/112/152
f 35/38/117 157/240/155 106/220/118
f 106/220/118 157/240/155 256/113/156
f 157/240/155 45/49/157 256/113/156
f 256/113/156 45/49/157 116/241/158
f 116/241/158 44/48/153 256/113/156
f 256/113/156 44/48/153 156/238/151
f 156/238/151 34/37/113 256/113/156
f 256/113/156 34/37/113 106/220/118
f 107/222/122 36/39/121 257/114/159
f 257/114/159 36/39/121 158/242/160
f 158/242/160 46/50/161 257/114/159
f 257/114/159 46/50/161 117/243/162
f 45/49/157 157/240/155 117/243/162
f 117/243/162 157/240/155 257/114/159
f 157/240/155 35/38/117 257/114/159
f 257/114/159 35/38/117 107/222/122
f 108/224/126 37/40/125 258/115/163
f 258/115/163 37/40/125 159/244/164
f 47/51/165 118/245/166 159/244/164
f 159/244/164 118/245/166 258/115/163
f 118/245/166 46/50/161 258/115/163
f 258/115/163 46/50/161 158/242/160
f 36/39/121 108/224/126 158/242/160
f 158/242/160 108/224/126 258/115/163
f 109/226/130 38/41/129 259/116/167
f 259/116/167 38/41/129 160/246/168
f 48/52/169 119/247/170 160/246/168
f 160/246/168 119/247/170 259/116/167
f 47/51/165 159/244/164 119/247/170
f 119/247/170 159/244/164 259/116/167
f 37/40/125 109/226/130 159/244/164
f 159/244/164 109/226/130 259/116/167
f 110/228/134 39/42/133 260/117/171
f 260/117/171 39/42/133 161/248/172
f 161/248/172 49/53/173 260/117/171
f 260/117/171 49/53/173 120/249/174
f 120/249/174 48/52/169 260/117/171
f 260/117/171 48/52/169 160/246/168
f 38/41/129 110/228/134 160/246/168
f 160/246/168 110/228/134 260/117/171
f 40/43/137 162/250/175 111/230/138
f 111/230/138 162/250/175 261/118/176
f 50/54/177 121/251/178 162/250/175
f 162/250/175 121/251/178 261/118/176
f 49/53/173 161/248/172 121/251/178
f 121/251/178 161/248/172 261/118/176
f 39/42/133 111/230/138 161/248/172
f 161/248/172 111/230/138 261/118/176
f 31/44/105 153/252/146 112/232/140
f 112/232/140 153/252/146 262/119/179
f 153/252/146 41/55/145 262/119/179
f 262/119/179 41/55/145 122/253/180
f 122/253/180 50/54/177 262/119/179
f 262/119/179 50/54/177 162/250/175
f 40/43/137 112/232/140 162/250/175
f 162/250/175 112/232/140 262/119/179
f 73/160/1 1/1/9 263/120/181
f 263/120/181 1/1/9 163/254/182
f 51/56/183 164/255/184 163/254/182
f 163/254/182 164/255/184 263/120/181
f 164/255/184 2/2/2 263/120/181
f 263/120/181 2/2/2 73/160/1
f 74/164/10 2/2/2 264/121/185
f 264/121/185 2/2/2 164/255/184
f 51/56/183 165/256/186 164/255/184
f 164/255/184 165/256/186 264/121/185
f 165/256/186 3/3/11 264/121/185
f 264/121/185 3/3/11 74/164/10
f 75/167/16 3/3/11 265/122/187
f 265/122/187 3/3/11 165/256/186
f 51/56/183 166/257/188 165/256/186
f 165/256/186 166/257/188 265/122/187
f 166/257/188 4/4/17 265/122/187
f 265/122/187 4/4/17 75/167/16
f 76/170/24 4/4/17 266/123/189
f 266/123/189 4/4/17 166/257/188
f 51/56/183 167/258/190 166/257/188
f 166/257/188 167/258/190 266/123/189
f 167/258/190 5/5/22 266/123/189
f 266/123/189 5/5/22 76/170/24
f 5/5/22 167/258/190 77/173/28
f 77/173/28 167/258/190 267/124/191
f 51/56/183 168/259/192 167/258/190
f 167/258/190 168/259/192 267/124/191
f 168/259/192 6/6/29 267/124/191
f 267/124/191 6/6/29 77/173/28
f 78/176/34 6/6/29 268/125/193
f 268/125/193 6/6/29 168/259/192
f 51/56/183 169/260/194 168/259/192
f 168/259/192 169/260/194 268/125/193
f 169/260/194 7/7/35 268/125/193
f 268/125/193 7/7/35 78/176/34
f 79/179/42 7/7/35 269/126/195
f 269/126/195 7/7/35 169/260/194
f 51/56/183 170/261/196 169/260/194
f 169/260/194 170/261/196 269/126/195
f 170/261/196 8/8/40 269/126/195
f 269/126/195 8/8/40 79/179/42
f 80/182/48 8/8/40 270/127/197
f 270/127/197 8/8/40 170/261/196
f 51/56/183 171/262/198 170/261/196
f 170/261/196 171/262/198 270/127/197
f 171/262/198 9/9/46 270/127/197
f 270/127/197 9/9/46 80/182/48
f 9/9/46 171/262/198 81/185/52
f 81/185/52 171/262/198 271/128/199
f 51/56/183 172/263/200 171/262/198
f 171/262/198 172/263/200 271/128/199
f 172/263/200 10/10/53 271/128/199
f 271/128/199 10/10/53 81/185/52
f 82/188/58 10/10/53 272/129/201
f 272/129/201 10/10/53 172/263/200
f 51/56/183 163/264/182 172/263/200
f 172/263/200 163/264/182 272/129/201
f 163/264/182 1/11/9 272/129/201
f 272/129/201 1/11/9 82/188/58
f 195/265/202 63/70/203 273/130/204
f 273/130/204 63/70/203 196/266/205
f 64/57/206 197/267/207 196/266/205
f 196/266/205 197/267/207 273/130/204
f 197/267/207 62/69/208 273/130/204
f 273/130/204 62/69/208 195/265/202
f 199/268/209 65/71/210 274/131/211
f 274/131/211 65/71/210 200/269/212
f 64/57/206 196/266/205 200/269/212
f 200/269/212 196/266/205 274/131/211
f 196/266/205 63/70/203 274/131/211
f 274/131/211 63/70/203 199/268/209
f 202/270/213 66/72/214 275/132/215
f 275/132/215 66/72/214 203/271/216
f 64/57/206 200/269/212 203/271/216
f 203/271/216 200/269/212 275/132/215
f 200/269/212 65/71/210 275/132/215
f 275/132/215 65/71/210 202/270/213
f 205/272/217 67/73/218 276/133/219
f 276/133/219 67/73/218 206/273/220
f 64/57/206 203/271/216 206/273/220
f 206/273/220 203/271/216 276/133/219
f 203/271/216 66/72/214 276/133/219
f 276/133/219 66/72/214 205/272/217
f 208/274/221 68/74/222 277/134/223
f 277/134/223 68/74/222 209/275/224
f 64/57/206 206/273/220 209/275/224
f 209/275/224 206/273/220 277/134/223
f 206/273/220 67/73/218 277/134/223
f 277/134/223 67/73/218 208/274/221
f 211/276/225 69/75/226 278/135/227
f 278/135/227 69/75/226 212/277/228
f 64/57/206 209/275/224 212/277/228
f 212/277/228 209/275/224 278/135/227
f 209/275/224 68/74/222 278/135/227
f 278/135/227 68/74/222 211/276/225
f 214/278/229 70/76/230 279/136/231
f 279/136/231 70/76/230 215/279/232
f 64/57/206 212/277/228 215/279/232
f 215/279/232 212/277/228 279/136/231
f 212/277/228 69/75/226 279/136/231
f 279/136/231 69/75/226 214/278/229
f 217/280/233 71/77/234 280/137/235
f 280/137/235 71/77/234 218/281/236
f 64/57/206 215/279/232 218/281/236
f 218/281/236 215/279/232 280/137/235
f 215/279/232 70/76/230 280/137/235
f 280/137/235 70/76/230 217/280/233
f 220/282/237 72/78/238 281/138/239
f 281/138/239 72/78/238 221/283/240
f 64/57/206 218/281/236 221/283/240
f 221/283/240 218/281/236 281/138/239
f 218/281/236 71/77/234 281/138/239
f 281/138/239 71/77/234 220/282/237
f 222/284/241 62/79/208 282/139/242
f 282/139/242 62/79/208 197/285/207
f 64/57/206 221/283/240 197/285/207
f 197/285/207 221/283/240 282/139/242
f 221/283/240 72/78/238 282/139/242
f 282/139/242 72/78/238 222/284/241
f 120/249/174 49/53/173 283/140/243
f 283/140/243 49/53/173 181/286/244
f 181/286/244 53/59/245 283/140/243
f 283/140/243 53/59/245 183/287/246
f 52/58/247 180/288/248 183/287/246
f 183/287/246 180/288/248 283/140/243
f 48/52/169 120/249/174 180/288/248
f 180/288/248 120/249/174 283/140/243
f 121/251/178 50/54/177 284/141/249
f 284/141/249 50/54/177 182/289/250
f 54/60/251 184/290/252 182/289/250
f 182/289/250 184/290/252 284/141/249
f 184/290/252 53/59/245 284/141/249
f 284/141/249 53/59/245 181/286/244
f 181/286/244 49/53/173 284/141/249
f 284/141/249 49/53/173 121/251/178
f 122/253/180 41/55/145 285/142/253
f 285/142/253 41/55/145 173/291/254
f 173/291/254 55/61/255 285/142/253
f 285/142/253 55/61/255 185/292/256
f 54/60/251 182/289/250 185/292/256
f 185/292/256 182/289/250 285/142/253
f 182/289/250 50/54/177 285/142/253
f 285/142/253 50/54/177 122/253/180
f 113/234/144 42/46/143 286/143/257
f 286/143/257 42/46/143 174/293/258
f 56/63/259 186/294/260 174/293/258
f 174/293/258 186/294/260 286/143/257
f 186/294/260 55/62/255 286/143/257
f 286/143/257 55/62/255 173/295/254
f 41/45/145 113/234/144 173/295/254
f 173/295/254 113/234/144 286/143/257
f 114/237/150 43/47/149 287/144/261
f 287/144/261 43/47/149 175/296/262
f 175/296/262 57/64/263 287/144/261
f 287/144/261 57/64/263 187/297/264
f 187/297/264 56/63/259 287/144/261
f 287/144/261 56/63/259 174/293/258
f 42/46/143 114/237/150 174/293/258
f 174/293/258 114/237/150 287/144/261
f 115/239/154 44/48/153 288/145/265
f 288/145/265 44/48/153 176/298/266
f 58/65/267 188/299/268 176/298/266
f 176/298/266 188/299/268 288/145/265
f 57/64/263 175/296/262 188/299/268
f 188/299/268 175/296/262 288/145/265
f 43/47/149 115/239/154 175/296/262
f 175/296/262 115/239/154 288/145/265
f 116/241/158 45/49/157 289/146/269
f 289/146/269 45/49/157 177/300/270
f 177/300/270 59/66/271 289/146/269
f 289/146/269 59/66/271 189/301/272
f 189/301/272 58/65/267 289/146/269
f 289/146/269 58/65/267 176/298/266
f 176/298/266 44/48/153 289/146/269
f 289/146/269 44/48/153 116/241/158
f 117/243/162 46/50/161 290/147/273
f 290/147/273 46/50/161 178/302/274
f 60/67/275 190/303/276 178/302/274
f 178/302/274 190/303/276 290/147/273
f 59/66/271 177/300/270 190/303/276
f 190/303/276 177/300/270 290/147/273
f 45/49/157 117/243/162 177/300/270
f 177/300/270 117/243/162 290/147/273
f 47/51/165 179/304/277 118/245/166
f 118/245/166 179/304/277 291/148/278
f 61/68/279 191/305/280 179/304/277
f 179/304/277 191/305/280 291/148/278
f 191/305/280 60/67/275 291/148/278
f 291/148/278 60/67/275 178/302/274
f 46/50/161 118/245/166 178/302/274
f 178/302/274 118/245/166 291/148/278
f 48/52/169 180/288/248 119/247/170
f 119/247/170 180/288/248 292/149/281
f 180/288/248 52/58/247 292/149/281
f 292/149/281 52/58/247 192/306/282
f 61/68/279 179/304/277 192/306/282
f 192/306/282 179/304/277 292/149/281
f 179/304/277 47/51/165 292/149/281
f 292/149/281 47/51/165 119/247/170
f 186/294/260 56/63/259 293/150/283
f 293/150/283 56/63/259 194/307/284
f 63/70/203 195/265/202 194/307/284
f 194/307/284 195/265/202 293/150/283
f 62/69/208 193/308/285 195/265/202
f 195/265/202 193/308/285 293/150/283
f 55/62/255 186/294/260 193/308/285
f 193/308/285 186/294/260 293/150/283
f 187/297/264 57/64/263 294/151/286
f 294/151/286 57/64/263 198/309/287
f 65/71/210 199/268/209 198/309/287
f 198/309/287 199/268/209 294/151/286
f 199/268/209 63/70/203 294/151/286
f 294/151/286 63/70/203 194/307/284
f 56/63/259 187/297/264 194/307/284
f 194/307/284 187/297/264 294/151/286
f 188/299/268 58/65/267 295/152/288
f 295/152/288 58/65/267 201/310/289
f 66/72/214 202/270/213 201/310/289
f 201/310/289 202/270/213 295/152/288
f 202/270/213 65/71/210 295/152/288
f 295/152/288 65/71/210 198/309/287
f 57/64/263 188/299/268 198/309/287
f 198/309/287 188/299/268 295/152/288
f 189/301/272 59/66/271 296/153/290
f 296/153/290 59/66/271 204/311/291
f 67/73/218 205/272/217 204/311/291
f 204/311/291 205/272/217 296/153/290
f 205/272/217 66/72/214 296/153/290
f 296/153/290 66/72/214 201/310/289
f 58/65/267 189/301/272 201/310/289
f 201/310/289 189/301/272 296/153/290
f 190/303/276 60/67/275 297/154/292
f 297/154/292 60/67/275 207/312/293
f 68/74/222 208/274/221 207/312/293
f 207/312/293 208/274/221 297/154/292
f 67/73/218 204/311/291 208/274/221
f 208/274/221 204/311/291 297/154/292
f 59/66/271 190/303/276 204/311/291
f 204/311/291 190/303/276 297/154/292
f 191/305/280 61/68/279 298/155/294
f 298/155/294 61/68/279 210/313/295
f 69/75/226 211/276/225 210/313/295
f 210/313/295 211/276/225 298/155/294
f 211/276/225 68/74/222 298/155/294
f 298/155/294 68/74/222 207/312/293
f 60/67/275 191/305/280 207/312/293
f 207/312/293 191/305/280 298/155/294
f 52/58/247 213/314/296 192/306/282
f 192/306/282 213/314/296 299/156/297
f 213/314/296 70/76/230 299/156/297
f 299/156/297 70/76/230 214/278/229
f 69/75/226 210/313/295 214/278/229
f 214/278/229 210/313/295 299/156/297
f 210/313/295 61/68/279 299/156/297
f 299/156/297 61/68/279 192/306/282
f 53/59/245 216/315/298 183/287/246
f 183/287/246 216/315/298 300/157/299
f 216/315/298 71/77/234 300/157/299
f 300/157/299 71/77/234 217/280/233
f 70/76/230 213/314/296 217/280/233
f 217/280/233 213/314/296 300/157/299
f 213/314/296 52/58/247 300/157/299
f 300/157/299 52/58/247 183/287/246
f 54/60/251 219/316/300 184/290/252
f 184/290/252 219/316/300 301/158/301
f 219/316/300 72/78/238 301/158/301
f 301/158/301 72/78/238 220/282/237
f 71/77/234 216/315/298 220/282/237
f 220/282/237 216/315/298 301/158/301
f 216/315/298 53/59/245 301/158/301
f 301/158/301 53/59/245 184/290/252
f 55/61/255 193/317/285 185/292/256
f 185/292/256 193/317/285 302/159/302
f 193/317/285 62/79/208 302/159/302
f 302/159/302 62/79/208 222/284/241
f 72/78/238 219/316/300 222/284/241
f 222/284/241 219/316/300 302/159/302
f 219/316/300 54/60/251 302/159/302
f 302/159/302 54/60/251 185/292/256
