# This file uses centimeters as units for non-parametric coordinates.

v 0.042380 0.038588 0.146537
v 0.079320 0.046026 0.113404
v 0.094918 0.044538 0.076713
v -0.033720 0.047254 -0.000933
v 0.006110 0.083844 0.016285
v 0.054731 0.056799 0.016771
v -0.037272 -0.040994 -0.010719
v -0.011465 -0.046944 -0.028636
v 0.028908 -0.047773 -0.008893
v 0.034399 -0.061767 0.124758
v 0.069726 -0.060958 0.125205
v 0.072920 -0.053378 0.081451
v 0.022336 -0.018137 0.143831
v 0.085132 -0.022867 0.130567
v 0.089981 -0.012880 0.073486
v -0.044310 -0.010004 -0.006044
v -0.025093 -0.017325 0.075364
v -0.004426 0.047153 0.072108
v 0.013134 0.061140 0.063263
v 0.061722 0.032243 0.061217
v 0.038690 -0.025877 0.062522
v 0.033601 -0.066763 0.025681
v 0.001964 -0.070048 0.029416
v -0.017775 -0.062995 0.046728
v 0.068924 0.044830 0.076662
v 0.083841 0.028008 0.070309
v 0.093853 0.052059 0.041293
v 0.079358 0.067516 0.060985
v 0.033646 -0.005679 0.002044
v -0.015923 -0.002563 -0.039443
v 0.097600 0.024777 0.138031
v 0.046597 0.032396 0.008210
v -0.012360 0.023476 -0.031605
v 0.056946 0.060543 0.077576
v 0.047683 0.092062 0.039035
v 0.075162 0.064936 0.035844
v -0.012559 -0.017441 0.109168
v 0.062695 0.046888 0.080472
v -0.002596 -0.071357 0.093154
v 0.017623 0.046710 0.107862
v 0.037574 0.057043 0.095995
v 0.043673 -0.071322 0.074975
v 0.022648 -0.072828 0.090631
v 0.012244 -0.063201 0.112579
vt 0.348907 0.316807
vt 0.362285 0.312048
vt 0.342161 0.289125
vt 0.329474 0.304035
vt 0.341307 0.270403
vt 0.360495 0.305307
vt 0.362891 0.264399
vt 0.449236 0.297385
vt 0.409497 0.319062
vt 0.407101 0.254306
vt 0.433665 0.251402
vt 0.336300 0.317371
vt 0.332598 0.284804
vt 0.321050 0.269533
vt 0.310998 0.286856
vt 0.338947 0.306960
vt 0.355978 0.256900
vt 0.376017 0.233268
vt 0.399131 0.227732
vt 0.396547 0.260583
vt 0.433201 0.253136
vt 0.436865 0.237481
vt 0.351967 0.314555
vt 0.354068 0.371750
vt 0.362197 0.363582
vt 0.346208 0.344813
vt 0.453822 0.283723
vt 0.447971 0.280483
vt 0.404198 0.371602
vt 0.440892 0.357299
vt 0.436855 0.356518
vt 0.403333 0.359313
vt 0.431383 0.322678
vt 0.396116 0.315319
vt 0.347452 0.316372
vt 0.411673 0.308048
vt 0.407553 0.345506
vt 0.349852 0.342179
vt 0.339999 0.332165
vt 0.347466 0.319818
vt 0.449489 0.318681
vt 0.452416 0.331325
vt 0.444597 0.348512
vt 0.453618 0.333870
vn 0.040357 -0.173849 0.983945
vn 0.588192 -0.473998 0.655252
vn 0.668701 0.598255 0.441508
vn 0.762264 -0.193626 -0.617626
vn 0.620520 0.132116 -0.772981
vn 0.824819 -0.429892 -0.367243
vn 0.702918 0.045764 -0.709797
vn -0.959841 0.062995 0.273379
vn -0.966277 -0.124717 0.225288
vn -0.941867 -0.261312 0.211195
vn -0.942321 -0.247940 0.224850
vn -0.100032 0.233652 0.967161
vn -0.388089 -0.921130 -0.030117
vn 0.667469 0.256926 -0.698909
vn -0.188896 0.885186 -0.425164
vn 0.243739 0.969833 0.003812
vn -0.291406 0.811277 0.506865
vn -0.728447 0.193398 -0.657238
vn -0.028350 0.363066 -0.931332
vn -0.756312 0.135500 -0.640025
vn -0.229163 -0.005882 -0.973370
vn 0.835728 -0.082761 -0.542871
vn 0.072997 -0.538311 -0.839579
vn 0.538208 -0.548666 -0.639764
vn -0.618612 -0.584347 -0.525222
vn -0.926096 0.229800 0.299230
vn -0.884792 0.301533 0.355275
vn -0.077804 0.575768 0.813903
vn 0.449351 0.813762 0.368612
vn 0.285985 0.938794 0.192040
vn -0.595098 0.764456 -0.247921
vn 0.994244 0.042490 -0.098356
vn -0.687498 0.612639 0.389897
vn -0.124263 -0.971202 -0.203286
vn -0.641827 -0.766791 0.009453
vn 0.815563 -0.506777 -0.279346
vn -0.423370 -0.130132 0.896562
vn -0.081648 -0.643361 0.761197
vn 0.605037 -0.334073 0.722721
vn 0.430957 -0.812308 0.392978
vn 0.687480 -0.649073 -0.325693
vn 0.729665 -0.175269 -0.660961
vn 0.886322 -0.223501 0.405563
vn 0.623194 0.703785 -0.341051
vn 0.980915 -0.181996 -0.068432
vn -0.588227 0.644704 0.488206
vn -0.824438 0.019067 0.565631
vn -0.943898 -0.092180 0.317112
vn 0.058663 0.998273 0.003085
vn 0.333667 0.686690 -0.645850
vn 0.487799 -0.858173 -0.159974
vn -0.015138 -0.994066 0.107722
vn -0.393819 -0.700586 0.595051
vn -0.589503 -0.745089 0.311974
vn 0.261750 -0.110324 -0.958809
vn 0.544927 -0.761810 -0.350286
vn 0.162453 -0.953583 0.253550
vn -0.437434 -0.616379 0.654773
f 25/1/1 26/2/2 28/4/3
f 28/4/3 26/2/2 27/3/4
f 6/5/5 20/6/6 32/7/7
f 17/9/8 16/10/9 24/8/10
f 24/8/10 16/10/9 7/11/11
f 34/12/12 20/6/13 25/1/1
f 25/1/1 20/6/13 26/2/2
f 36/13/14 27/3/4 20/6/13
f 20/6/13 27/3/4 26/2/2
f 5/14/15 35/15/16 6/5/5
f 6/5/5 35/15/16 36/13/14
f 5/14/15 19/16/17 35/15/16
f 35/15/16 19/16/17 34/12/12
f 4/17/18 33/18/19 16/10/20
f 16/10/20 33/18/19 30/19/21
f 6/5/5 32/7/7 5/14/15
f 5/14/15 32/7/7 33/18/19
f 30/19/21 29/20/22 8/22/23
f 8/22/23 29/20/22 9/21/24
f 16/10/20 30/19/21 7/11/25
f 7/11/25 30/19/21 8/22/23
f 16/10/9 17/9/8 4/17/26
f 4/17/26 17/9/8 18/23/27
f 32/7/7 29/20/22 33/18/19
f 33/18/19 29/20/22 30/19/21
f 35/15/16 34/12/12 28/4/3
f 28/4/3 34/12/12 25/1/1
f 35/15/16 28/4/3 36/13/14
f 36/13/14 28/4/3 27/3/4
f 20/6/6 6/5/5 36/13/14
f 1/24/28 31/25/29 2/26/30
f 33/18/19 4/17/31 5/14/15
f 19/16/17 20/6/32 34/12/12
f 4/17/31 18/23/33 5/14/15
f 5/14/15 18/23/33 19/16/17
f 8/22/23 23/27/34 7/11/25
f 7/11/25 23/27/34 24/8/35
f 8/22/23 9/21/24 23/27/34
f 23/27/34 9/21/24 22/28/36
f 13/29/37 10/30/38 14/32/39
f 14/32/39 10/30/38 11/31/40
f 11/31/40 12/33/41 14/32/39
f 14/32/39 12/33/41 15/34/42
f 31/25/43 1/24/28 14/32/39
f 14/32/39 1/24/28 13/29/37
f 3/35/44 31/25/43 15/34/42
f 15/34/42 31/25/43 14/32/39
f 21/36/45 22/28/36 29/20/22
f 29/20/22 22/28/36 9/21/24
f 40/38/46 18/23/33 37/37/47
f 37/37/47 18/23/33 17/9/48
f 18/23/33 40/38/46 19/16/17
f 19/16/17 40/38/46 41/39/49
f 38/40/50 20/6/32 41/39/49
f 41/39/49 20/6/32 19/16/17
f 21/36/45 20/6/32 38/40/50
f 21/36/45 42/41/51 22/28/36
f 43/42/52 23/27/34 42/41/51
f 42/41/51 23/27/34 22/28/36
f 44/43/53 39/44/54 43/42/52
f 43/42/52 39/44/54 23/27/34
f 37/37/47 17/9/48 39/44/54
f 39/44/54 17/9/48 24/8/35
f 44/43/53 37/37/47 39/44/54
f 37/37/47 13/29/37 40/38/46
f 40/38/46 13/29/37 1/24/28
f 2/26/30 41/39/49 1/24/28
f 1/24/28 41/39/49 40/38/46
f 41/39/49 2/26/30 38/40/50
f 38/40/50 2/26/30 3/35/44
f 31/25/29 3/35/44 2/26/30
f 32/7/7 20/6/32 29/20/22
f 29/20/22 20/6/32 21/36/45
f 24/8/35 23/27/34 39/44/54
f 21/36/55 38/40/50 15/34/42
f 15/34/42 38/40/50 3/35/44
f 42/41/56 21/36/55 12/33/41
f 12/33/41 21/36/55 15/34/42
f 42/41/56 12/33/41 43/42/57
f 43/42/57 12/33/41 11/31/40
f 44/43/58 43/42/57 10/30/38
f 10/30/38 43/42/57 11/31/40
f 37/37/47 44/43/58 13/29/37
f 13/29/37 44/43/58 10/30/38
