# This file uses centimeters as units for non-parametric coordinates.

v -0.034776 0.030213 0.048328
v -0.014235 0.033487 0.070792
v 0.006716 0.030213 0.048328
v -0.027534 0.022366 0.009925
v -0.013492 0.026172 0.010045
v 0.000907 0.022366 0.009925
v -0.031855 0.023020 -0.150258
v -0.014571 0.027946 -0.161430
v 0.004072 0.024534 -0.150942
v -0.038311 0.001097 -0.153771
v -0.012931 -0.002611 -0.208647
v 0.007446 0.000825 -0.166113
v -0.032153 -0.020622 -0.160496
v -0.015505 -0.024488 -0.165586
v 0.004287 -0.020370 -0.143412
v -0.027937 -0.017125 0.009925
v -0.013492 -0.021273 0.009795
v 0.001309 -0.017125 0.009925
v -0.035383 -0.022562 0.044928
v -0.013283 -0.030905 0.066883
v 0.007282 -0.022562 0.044928
v -0.040749 -0.000722 0.053041
v -0.014236 -0.000722 0.075506
v 0.012277 -0.000722 0.053041
v 0.005610 0.001432 0.009680
v -0.032647 0.001464 0.008726
v -0.013013 0.018458 -0.034927
v -0.027587 0.014612 -0.037661
v -0.033541 0.001402 -0.035955
v -0.028257 -0.011840 -0.032437
v -0.012902 -0.015602 -0.032396
v 0.002441 -0.011815 -0.032991
v 0.007185 0.001418 -0.036664
v 0.001493 0.014592 -0.037982
v -0.036867 0.000582 -0.099142
v -0.031059 0.017046 -0.100563
v -0.013091 0.019833 -0.100531
v 0.005615 0.017092 -0.100829
v 0.008878 0.000848 -0.099385
v 0.004673 -0.014448 -0.099338
v -0.012672 -0.017370 -0.099069
v -0.031861 -0.015307 -0.099138
v -0.027723 0.016781 -0.062784
v -0.012613 0.019477 -0.062820
v 0.003252 0.017356 -0.060546
v 0.007777 0.002007 -0.063388
v 0.003917 -0.013828 -0.063210
v -0.012431 -0.017202 -0.074636
v -0.030199 -0.014835 -0.071369
v -0.035248 0.001671 -0.073896
v -0.014420 0.029365 -0.185632
v -0.031443 0.022989 -0.179411
v -0.052345 0.000870 -0.184677
v -0.046799 -0.020122 -0.183583
v -0.016831 -0.029849 -0.181675
v 0.002356 -0.017324 -0.163507
v 0.024162 0.001152 -0.190421
v 0.001470 0.020910 -0.175153
vt 0.524124 0.454318
vt 0.529946 0.438596
vt 0.544335 0.487534
vt 0.531612 0.491033
vt 0.543499 0.448784
vt 0.557574 0.483635
vt 0.548458 0.500223
vt 0.535719 0.505251
vt 0.562292 0.497886
vt 0.553079 0.581040
vt 0.562779 0.595973
vt 0.550211 0.601270
vt 0.548159 0.582685
vt 0.587614 0.586675
vt 0.585964 0.572289
vt 0.591590 0.578040
vt 0.601064 0.590476
vt 0.555154 0.582952
vt 0.553879 0.598100
vt 0.573054 0.590831
vt 0.570957 0.581272
vt 0.586609 0.576198
vt 0.585074 0.563953
vt 0.535076 0.500038
vt 0.548966 0.495761
vt 0.545258 0.484954
vt 0.532172 0.488816
vt 0.562776 0.492495
vt 0.558478 0.481319
vt 0.531768 0.439499
vt 0.525064 0.455207
vt 0.544801 0.449570
vt 0.529562 0.435224
vt 0.520962 0.451715
vt 0.545588 0.444679
vt 0.562166 0.481381
vt 0.567457 0.494508
vt 0.527673 0.491807
vt 0.530458 0.504598
vt 0.545541 0.552041
vt 0.561884 0.547688
vt 0.570652 0.583521
vt 0.540481 0.550811
vt 0.545418 0.547724
vt 0.562657 0.542571
vt 0.578228 0.538624
vt 0.581912 0.539231
vt 0.579060 0.542701
vt 0.535165 0.526937
vt 0.539705 0.520089
vt 0.553442 0.516451
vt 0.567602 0.510800
vt 0.572391 0.509830
vt 0.569077 0.509245
vt 0.556323 0.519629
vt 0.539794 0.522528
vt 0.574943 0.596875
vt 0.579866 0.607522
vn -0.002658 0.892278 0.451479
vn -0.001826 0.984292 -0.176537
vn -0.792812 0.592062 0.144606
vn -0.610170 0.768966 -0.190745
vn 0.795218 0.583903 0.163357
vn 0.617603 0.766517 -0.176123
vn -0.001553 0.986454 -0.164028
vn -0.791846 0.607091 -0.066494
vn 0.799886 0.597606 -0.055213
vn -0.588739 0.805633 0.065902
vn -0.617851 0.755687 -0.217249
vn -0.982119 0.045420 0.182703
vn -0.912954 0.274879 -0.301590
vn 0.703702 0.710388 -0.012374
vn 0.989660 0.040785 0.137514
vn 0.648755 0.736459 -0.191690
vn 0.996332 0.079634 0.031336
vn -0.741945 -0.657786 -0.129749
vn 0.114984 -0.989371 -0.089013
vn -0.469856 -0.851880 0.231379
vn 0.103443 -0.985688 0.133115
vn 0.701668 -0.712366 -0.014034
vn 0.690782 -0.720963 -0.055076
vn -0.803403 -0.593637 -0.046251
vn -0.002065 -0.991998 -0.126234
vn -0.616623 -0.769919 -0.164320
vn 0.000235 -0.985702 -0.168498
vn 0.816231 -0.576859 -0.031631
vn 0.624456 -0.767327 -0.145820
vn -0.750825 -0.658447 -0.052049
vn 0.011030 -0.805590 0.592371
vn 0.762625 -0.645721 -0.038044
vn -0.913058 -0.092102 0.397294
vn -0.000018 0.050787 0.998710
vn 0.912045 -0.081334 0.401945
vn 0.996411 0.006074 -0.084427
vn 0.998724 0.037412 0.033934
vn -0.993857 0.002956 -0.110633
vn -0.999481 0.025301 0.019961
vn -0.773771 0.630015 0.066031
vn -0.039481 0.995883 0.081595
vn 0.003022 0.999409 0.034247
vn -0.998819 0.018584 0.044897
vn -0.708001 -0.704291 0.052046
vn 0.003186 -0.997191 0.074832
vn 0.575329 -0.816465 0.048789
vn 0.998360 -0.056344 0.010152
vn 0.676930 0.734613 0.045933
vn -0.610929 0.789844 0.053968
vn -0.996840 0.049607 0.062041
vn 0.006486 0.998986 0.044551
vn 0.721394 0.688104 0.078130
vn 0.997831 0.057091 0.032786
vn 0.744162 -0.666338 0.047093
vn 0.028660 -0.999335 0.022528
vn -0.651492 -0.756019 0.063193
vn 0.002274 0.999330 0.036534
vn -0.493993 0.867528 0.058028
vn 0.476625 0.872564 0.107056
vn 0.997593 0.033003 0.060992
vn 0.675519 -0.732790 0.081811
vn 0.013939 -0.998057 0.060730
vn -0.660581 -0.745306 0.090287
vn -0.997181 0.052515 0.053603
vn 0.096340 0.911943 -0.398846
vn 0.067661 0.000294 -0.997708
f 2/2/1 5/3/2 1/1/3
f 1/1/3 5/3/2 4/4/4
f 2/2/1 3/5/5 5/3/2
f 5/3/2 3/5/5 6/6/6
f 5/3/2 27/7/7 4/4/4
f 4/4/4 27/7/7 28/8/8
f 5/3/2 6/6/6 27/7/7
f 27/7/7 6/6/6 34/9/9
f 7/10/10 52/11/11 10/13/12
f 10/13/12 52/11/11 53/12/13
f 9/15/14 12/16/15 58/14/16
f 58/14/16 12/16/15 57/17/17
f 54/19/18 55/20/19 13/18/20
f 13/18/20 55/20/19 14/21/21
f 15/23/22 14/21/21 56/22/23
f 56/22/23 14/21/21 55/20/19
f 30/24/24 31/25/25 16/27/26
f 16/27/26 31/25/25 17/26/27
f 32/28/28 18/29/29 31/25/25
f 31/25/25 18/29/29 17/26/27
f 16/27/26 17/26/27 19/31/30
f 19/31/30 17/26/27 20/30/31
f 18/29/29 21/32/32 17/26/27
f 17/26/27 21/32/32 20/30/31
f 19/31/30 20/30/31 22/34/33
f 22/34/33 20/30/31 23/33/34
f 21/32/32 24/35/35 20/30/31
f 20/30/31 24/35/35 23/33/34
f 22/34/33 23/33/34 1/1/3
f 1/1/3 23/33/34 2/2/1
f 24/35/35 3/5/5 23/33/34
f 23/33/34 3/5/5 2/2/1
f 24/35/35 21/32/32 25/36/36
f 25/36/36 21/32/32 18/29/29
f 24/35/35 25/36/36 3/5/5
f 3/5/5 25/36/36 6/6/6
f 18/29/29 32/28/28 25/36/36
f 25/36/36 32/28/28 33/37/37
f 6/6/6 25/36/36 34/9/9
f 34/9/9 25/36/36 33/37/37
f 22/34/33 26/38/38 19/31/30
f 19/31/30 26/38/38 16/27/26
f 22/34/33 1/1/3 26/38/38
f 26/38/38 1/1/3 4/4/4
f 16/27/26 26/38/38 30/24/24
f 30/24/24 26/38/38 29/39/39
f 4/4/4 28/8/8 26/38/38
f 26/38/38 28/8/8 29/39/39
f 36/40/40 37/41/41 7/10/10
f 7/10/10 37/41/41 8/42/42
f 35/43/43 36/40/40 10/13/12
f 10/13/12 36/40/40 7/10/10
f 35/43/43 10/13/12 42/44/44
f 42/44/44 10/13/12 13/18/20
f 14/21/21 41/45/45 13/18/20
f 13/18/20 41/45/45 42/44/44
f 14/21/21 15/23/22 41/45/45
f 41/45/45 15/23/22 40/46/46
f 40/46/46 15/23/22 39/47/47
f 39/47/47 15/23/22 12/16/15
f 38/48/48 39/47/47 9/15/14
f 9/15/14 39/47/47 12/16/15
f 38/48/48 9/15/14 37/41/41
f 37/41/41 9/15/14 8/42/42
f 43/50/49 36/40/40 50/49/50
f 50/49/50 36/40/40 35/43/43
f 44/51/51 37/41/41 43/50/49
f 43/50/49 37/41/41 36/40/40
f 45/52/52 38/48/48 44/51/51
f 44/51/51 38/48/48 37/41/41
f 45/52/52 46/53/53 38/48/48
f 38/48/48 46/53/53 39/47/47
f 46/53/53 47/54/54 39/47/47
f 39/47/47 47/54/54 40/46/46
f 41/45/45 40/46/46 48/55/55
f 48/55/55 40/46/46 47/54/54
f 41/45/45 48/55/55 42/44/44
f 42/44/44 48/55/55 49/56/56
f 49/56/56 50/49/50 42/44/44
f 42/44/44 50/49/50 35/43/43
f 27/7/57 44/51/51 28/8/58
f 28/8/58 44/51/51 43/50/49
f 27/7/57 34/9/59 44/51/51
f 44/51/51 34/9/59 45/52/52
f 34/9/59 33/37/60 45/52/52
f 45/52/52 33/37/60 46/53/53
f 32/28/61 47/54/54 33/37/60
f 33/37/60 47/54/54 46/53/53
f 48/55/55 47/54/54 31/25/62
f 31/25/62 47/54/54 32/28/61
f 48/55/55 31/25/62 49/56/56
f 49/56/56 31/25/62 30/24/63
f 30/24/63 29/39/64 49/56/56
f 49/56/56 29/39/64 50/49/50
f 28/8/58 43/50/49 29/39/64
f 29/39/64 43/50/49 50/49/50
f 7/10/10 8/42/42 52/11/11
f 52/11/11 8/42/42 51/57/65
f 57/17/17 12/16/15 56/22/23
f 56/22/23 12/16/15 15/23/22
f 53/12/13 54/19/18 10/13/12
f 10/13/12 54/19/18 13/18/20
f 9/15/14 58/14/16 8/42/42
f 8/42/42 58/14/16 51/57/65
f 53/12/13 52/11/11 11/58/66
f 11/58/66 52/11/11 51/57/65
f 55/20/19 54/19/18 11/58/66
f 11/58/66 54/19/18 53/12/13
f 55/20/19 11/58/66 56/22/23
f 56/22/23 11/58/66 57/17/17
f 57/17/17 11/58/66 58/14/16
f 58/14/16 11/58/66 51/57/65
