# This file uses centimeters as units for non-parametric coordinates.

v -0.056266 -0.005507 0.023691
v -0.002073 -0.020121 0.072134
v 0.078373 -0.015731 0.050616
v -0.064029 0.040151 0.025248
v -0.000487 0.034770 0.104963
v 0.083526 0.035541 0.020435
v -0.057762 0.085699 0.022038
v -0.000816 0.095714 0.091764
v 0.088595 0.087591 0.023993
v -0.136072 0.088560 -0.016865
v 0.000215 0.070604 -0.010128
v 0.146697 0.091612 -0.014645
v -0.082669 0.099165 -0.078265
v 0.001321 0.094612 -0.083776
v 0.097854 0.101763 -0.076206
v -0.087112 0.007165 -0.109903
v 0.002110 0.008765 -0.104886
v 0.086868 0.011057 -0.107545
v -0.080880 -0.035055 -0.091904
v 0.000797 -0.022222 -0.069527
v 0.083846 -0.042820 -0.088595
v -0.108897 -0.037377 -0.019631
v 0.000591 -0.052658 -0.017147
v 0.108712 -0.044687 -0.015983
v 0.138982 0.015310 -0.008385
v -0.140244 0.010873 -0.011150
v -0.042578 -0.037591 0.017569
v 0.062814 -0.034368 0.023136
v 0.026381 -0.047526 -0.089919
v -0.027625 -0.047042 -0.090327
v 0.012676 0.095453 -0.089312
v 0.012093 0.008734 -0.116641
v -0.007334 0.095277 -0.089844
v -0.008136 0.008730 -0.116752
vt 0.715784 0.209500
vt 0.778776 0.193746
vt 0.777061 0.216388
vt 0.704432 0.239157
vt 0.856869 0.196006
vt 0.857452 0.225780
vt 0.770332 0.317932
vt 0.709988 0.315522
vt 0.838841 0.329460
vt 0.778195 0.310578
vt 0.654400 0.313405
vt 0.899089 0.324117
vt 0.294078 0.161883
vt 0.142589 0.172591
vt 0.137164 0.166917
vt 0.272129 0.157256
vt -0.004017 0.165281
vt 0.017508 0.157206
vt 0.137376 0.079704
vt 0.230018 0.076542
vt 0.055930 0.085749
vt 0.149983 0.043768
vt 0.227005 0.061038
vt 0.075889 0.039851
vt 0.151081 0.045388
vt 0.255049 0.058626
vt 0.062456 0.036012
vt 0.722096 0.174717
vt 0.781773 0.166410
vt 0.848411 0.189951
vt 0.038660 0.083377
vt 0.851290 0.193255
vt 0.258761 0.085900
vt 0.903464 0.219755
vt 0.662622 0.181308
vt 0.660116 0.222610
vt 0.125774 0.058538
vt 0.167195 0.052079
vt 0.127085 0.169179
vt 0.129185 0.080836
vt 0.147373 0.167774
vt 0.150426 0.079204
vn -0.535941 -0.287771 0.793697
vn -0.392354 -0.522159 0.757238
vn -0.633286 -0.010176 0.773851
vn 0.028372 -0.062909 0.997616
vn 0.521322 -0.394786 0.756550
vn 0.601865 0.114944 0.790282
vn -0.071008 0.705295 0.705349
vn -0.363962 0.839468 0.403516
vn 0.391633 0.741875 0.544284
vn 0.175863 -0.858112 0.482407
vn 0.598309 -0.793689 0.109930
vn 0.982830 -0.107838 0.149719
vn 0.582727 0.662931 0.470056
vn 0.204900 -0.860041 0.467274
vn -0.667760 -0.404160 0.625101
vn -0.945906 -0.172599 0.274719
vn -0.497945 0.759286 0.418971
vn -0.002190 0.999266 0.038250
vn 0.504393 0.708180 -0.494032
vn -0.237606 0.700865 -0.672556
vn 0.521076 -0.103067 -0.847265
vn 0.372058 -0.815203 -0.443866
vn -0.471732 -0.218760 -0.854174
vn -0.327049 -0.670350 -0.666085
vn -0.785720 -0.479784 -0.390450
vn -0.053812 -0.938706 0.340493
vn -0.000226 -0.939554 0.342401
vn -0.000226 -0.939554 0.342401
vn -0.560225 -0.809181 0.177125
vn 0.182458 -0.982252 -0.043473
vn -0.139492 -0.959906 0.243150
vn -0.458866 -0.351475 0.816032
vn 0.053362 -0.937700 0.343324
vn -0.159185 -0.986981 -0.023004
vn 0.066006 -0.942995 0.326196
vn -0.476832 -0.673811 -0.564455
vn -0.501188 -0.122176 -0.856670
vn -0.471721 0.748957 -0.465342
vn 0.254614 0.705358 -0.661545
vn 0.471222 -0.246039 -0.847003
vn 0.697878 -0.080211 -0.711711
vn 0.028175 0.908983 -0.415880
vn 0.598688 -0.613293 -0.515213
vn 0.209988 -0.793500 -0.571194
vn 0.751062 -0.529034 -0.395005
vn -0.030415 0.950455 0.309372
vn -0.663602 -0.058995 -0.745756
vn -0.623708 -0.576235 -0.528150
f 1/1/1 2/2/2 4/4/3
f 4/4/3 2/2/2 5/3/4
f 2/2/2 3/5/5 5/3/4
f 5/3/4 3/5/5 6/6/6
f 5/3/4 8/7/7 4/4/3
f 4/4/3 8/7/7 7/8/8
f 5/3/4 6/6/6 8/7/7
f 8/7/7 6/6/6 9/9/9
f 28/30/10 3/5/5 2/2/2
f 24/32/11 25/34/12 3/5/5
f 3/5/5 25/34/12 6/6/6
f 25/34/12 12/12/13 6/6/6
f 6/6/6 12/12/13 9/9/9
f 28/30/14 24/32/11 3/5/5
f 1/1/1 27/28/15 2/2/2
f 26/36/16 4/4/3 10/11/17
f 10/11/17 4/4/3 7/8/8
f 8/7/7 11/10/18 7/8/8
f 7/8/8 11/10/18 10/11/17
f 8/7/7 9/9/9 11/10/18
f 11/10/18 9/9/9 12/12/13
f 12/17/13 15/18/19 11/14/18
f 11/14/18 15/18/19 31/39/20
f 25/31/12 24/27/11 18/21/21
f 18/21/21 24/27/11 21/24/22
f 18/21/21 15/18/19 25/31/12
f 25/31/12 15/18/19 12/17/13
f 32/40/23 31/39/20 18/21/21
f 18/21/21 31/39/20 15/18/19
f 32/40/23 29/37/24 20/22/25
f 32/40/23 18/21/21 29/37/24
f 29/37/24 18/21/21 21/24/22
f 27/28/26 23/29/27 2/2/28
f 22/35/29 1/1/1 26/36/16
f 26/36/16 1/1/1 4/4/3
f 22/35/29 23/29/30 27/28/31
f 22/35/29 27/28/32 1/1/1
f 23/29/27 28/30/33 2/2/28
f 23/29/34 24/32/11 28/30/35
f 19/23/36 22/26/29 16/20/37
f 16/20/37 22/26/29 26/33/16
f 10/13/17 11/14/18 13/16/38
f 13/16/38 11/14/18 33/41/39
f 34/42/40 33/41/39 17/19/41
f 17/19/41 33/41/39 14/15/42
f 20/22/43 34/42/40 17/19/41
f 19/23/36 30/38/44 22/26/29
f 22/26/29 30/38/44 23/25/30
f 16/20/37 26/33/16 13/16/38
f 13/16/38 26/33/16 10/13/17
f 23/25/30 30/38/44 20/22/45
f 11/14/46 31/39/20 14/15/42
f 33/41/39 11/14/46 14/15/42
f 20/22/45 30/38/44 34/42/40
f 34/42/40 16/20/37 33/41/39
f 33/41/39 16/20/37 13/16/38
f 14/15/42 31/39/20 17/19/47
f 17/19/47 31/39/20 32/40/23
f 32/40/23 20/22/48 17/19/47
f 20/22/25 29/37/24 23/25/34
f 24/27/11 23/25/34 21/24/22
f 21/24/22 23/25/34 29/37/24
f 34/42/40 30/38/44 16/20/37
f 16/20/37 30/38/44 19/23/36
