# This file uses centimeters as units for non-parametric coordinates.

v 0.000051 0.003187 -0.245363
v 0.000051 -0.108061 0.285646
v 0.000051 0.105692 -0.327870
v 0.000051 0.126900 0.241818
v 0.000051 0.211717 -0.333328
v 0.000051 0.230033 0.238005
v 0.000051 0.356530 -0.229916
v 0.000051 0.282904 0.217465
v 0.000051 0.374563 0.039609
v 0.000051 0.086875 0.287078
v 0.000051 -0.148535 0.290692
v 0.000051 -0.007848 0.296805
v 0.000051 -0.161168 0.298631
v 0.000051 -0.061760 0.286870
v 0.000051 -0.211234 0.171648
v 0.000051 -0.034564 -0.112291
v 0.000051 -0.234505 -0.082730
v 0.000051 -0.196275 0.077681
v 0.000051 -0.275778 0.060685
v 0.000051 -0.282527 -0.081936
v 0.000051 -0.132427 -0.078108
v 0.034306 -0.028361 -0.092550
v 0.092335 -0.034743 -0.054890
v 0.116793 -0.147014 0.096011
v 0.095393 -0.186917 0.110953
v 0.078226 -0.150871 0.247668
v 0.090639 -0.115034 0.242898
v 0.080658 0.026756 -0.216446
v 0.075359 0.103370 -0.288247
v 0.163262 0.045069 -0.135712
v 0.188720 0.124922 -0.159217
v 0.117886 0.037877 0.246692
v 0.207598 0.044919 0.130782
v 0.084048 0.213504 -0.300572
v 0.200176 0.204241 -0.170588
v 0.106711 0.236814 0.241486
v 0.088866 0.324928 -0.207595
v 0.181350 0.182243 -0.026331
v 0.187367 0.196407 0.140635
v 0.187189 0.263217 0.079300
v 0.091969 0.280385 0.207971
v 0.040068 -0.127436 -0.050332
v 0.044444 -0.238500 -0.061086
v 0.073189 -0.171286 0.249125
v 0.101334 0.342756 0.036403
v 0.197709 0.273174 -0.005854
v 0.193786 0.267265 -0.158590
v 0.182622 0.121124 0.110088
v 0.082675 -0.059978 0.240498
v 0.177197 0.106931 0.014663
v 0.183326 0.045510 0.018442
v 0.042567 -0.210735 0.158041
v 0.110605 -0.201500 0.182248
v 0.068824 -0.206104 0.256593
v 0.130931 -0.008443 0.248745
v 0.147095 -0.036335 0.091247
v 0.098799 -0.104296 0.048083
v 0.091038 -0.186883 0.052934
v 0.050291 -0.190679 0.070609
v 0.057059 -0.260744 0.060115
v 0.054126 -0.281483 -0.068150
v 0.000051 -0.212285 0.284118
v 0.150957 -0.038303 0.049180
v 0.067278 0.107464 0.191184
v 0.071124 0.170763 0.188350
v 0.033038 0.180496 0.224363
v 0.029625 0.113130 0.220369
v 0.094021 0.073876 0.202842
v 0.038936 0.084249 0.218879
v 0.151974 0.131934 0.131908
v 0.156328 0.099183 0.163580
v 0.153065 0.148535 0.137506
v 0.062593 -0.003414 0.273032
v 0.000051 0.048023 0.256136
v 0.000051 0.001948 0.233915
v 0.034840 -0.000032 0.247201
v 0.048034 0.060278 0.274267
v 0.201110 -0.012185 0.086132
v 0.140042 -0.040742 0.134425
v 0.132564 -0.123614 0.139620
v 0.122112 -0.176868 0.148037
v 0.000051 0.095697 0.268825
v 0.000051 0.069825 0.286206
v 0.111768 -0.182178 0.195197
v 0.111090 -0.161810 0.177618
v 0.123770 -0.120958 0.172904
v 0.133152 -0.038761 0.179847
v 0.189293 -0.010787 0.116205
v 0.220560 0.050620 0.064529
v 0.196414 0.126325 0.050612
v 0.198649 0.180179 0.031199
v 0.047386 -0.056736 0.263333
v 0.035970 -0.109186 0.267398
v 0.043949 -0.147262 0.275159
v 0.041191 -0.165973 0.283424
v 0.035605 -0.212316 0.280716
v -0.095291 -0.186917 0.110953
v -0.120750 -0.116504 0.090059
v -0.136153 -0.111056 0.129628
v -0.122010 -0.176868 0.148037
v -0.076977 -0.154347 0.248292
v -0.089449 -0.103440 0.240939
v -0.048729 -0.108030 0.266623
v -0.045587 -0.147261 0.275935
v -0.075257 0.103370 -0.288247
v -0.080556 0.026756 -0.216446
v -0.083946 0.213504 -0.300572
v -0.067176 0.107464 0.191184
v -0.071022 0.170763 0.188350
v -0.032936 0.180496 0.224363
v -0.029523 0.113130 0.220369
v -0.088764 0.324928 -0.207595
v -0.116545 0.231946 0.242600
v -0.091867 0.280385 0.207971
v -0.039966 -0.127436 -0.050332
v -0.044342 -0.238500 -0.061086
v -0.041089 -0.165973 0.283424
v -0.073087 -0.171286 0.249125
v -0.101231 0.342756 0.036403
v -0.187087 0.263217 0.079300
v -0.187265 0.196407 0.140635
v -0.197607 0.273174 -0.005854
v -0.193684 0.267265 -0.158590
v -0.200074 0.204241 -0.170588
v -0.181248 0.182243 -0.026331
v -0.188618 0.124922 -0.159217
v -0.177094 0.106931 0.014663
v -0.198547 0.180179 0.031199
v -0.093919 0.073876 0.202842
v -0.038833 0.084249 0.218879
v -0.156226 0.099183 0.163580
v -0.151871 0.131934 0.131908
v -0.182520 0.121124 0.110088
v -0.196311 0.126325 0.050612
v -0.220458 0.050620 0.064529
v -0.207496 0.044919 0.130782
v -0.108122 -0.199849 0.186380
v -0.042465 -0.210735 0.158041
v -0.047932 0.060278 0.274267
v -0.062491 -0.003414 0.273032
v -0.130829 -0.008443 0.248745
v -0.117784 0.037877 0.246692
v -0.077980 -0.059223 0.246772
v -0.042691 -0.055982 0.269607
v -0.152963 0.148535 0.137506
v -0.146993 -0.036335 0.091247
v -0.139940 -0.040742 0.134425
v -0.102756 -0.134806 0.054036
v -0.090936 -0.186883 0.052934
v -0.050189 -0.190679 0.070609
v -0.111665 -0.182178 0.195197
v -0.110988 -0.161810 0.177618
v -0.092233 -0.034743 -0.054890
v -0.034204 -0.028361 -0.092550
v -0.163160 0.045069 -0.135712
v -0.056957 -0.260744 0.060115
v -0.054024 -0.281483 -0.068150
v -0.150854 -0.038303 0.049180
v -0.183224 0.045510 0.018442
v -0.035503 -0.212316 0.280716
v -0.068722 -0.206104 0.256593
v -0.201008 -0.012185 0.086132
v -0.189191 -0.010787 0.116205
v -0.034738 -0.000032 0.247201
v -0.133050 -0.038761 0.179847
v -0.126800 -0.104435 0.166194
v -0.097107 0.315286 0.111967
v 0.000051 0.331965 0.122267
v 0.096767 0.312339 0.120072
vt 0.267217 0.516745
vt 0.259316 0.555510
vt 0.288493 0.564742
vt 0.295612 0.521117
vt 0.370694 0.512064
vt 0.371741 0.542531
vt 0.418245 0.548948
vt 0.431002 0.501944
vt 0.075334 0.706982
vt 0.026900 0.848632
vt 0.055595 0.823822
vt 0.088387 0.718915
vt 0.052673 0.947049
vt 0.077546 0.921967
vt 0.362080 0.779037
vt 0.359801 0.846976
vt 0.401073 0.847637
vt 0.410396 0.774282
vt 0.110002 0.976433
vt 0.122364 0.956856
vt 0.368726 0.891845
vt 0.368757 0.928802
vt 0.405760 0.912539
vt 0.411866 0.882505
vt 0.228546 0.588129
vt 0.236710 0.507532
vt 0.236576 0.506873
vt 0.240389 0.590225
vt 0.432343 0.489161
vt 0.369837 0.497379
vt 0.279042 0.987687
vt 0.234736 0.962800
vt 0.238423 0.876089
vt 0.289662 0.855685
vt 0.193373 0.896793
vt 0.127547 0.907355
vt 0.104692 0.870518
vt 0.178594 0.835210
vt 0.100781 0.807916
vt 0.174140 0.765391
vt 0.231147 0.826655
vt 0.375928 0.740857
vt 0.410180 0.752290
vt 0.325315 0.751928
vt 0.312964 0.787800
vt 0.275610 0.785827
vt 0.234806 0.776419
vt 0.234636 0.713592
vt 0.288299 0.721411
vt 0.304259 0.483277
vt 0.295104 0.474943
vt 0.410711 0.728911
vt 0.403673 0.662074
vt 0.352996 0.651825
vt 0.360690 0.692048
vt 0.362524 0.623305
vt 0.417276 0.621632
vt 0.310943 0.837288
vt 0.254175 0.620395
vt 0.275988 0.631104
vt 0.250140 0.566832
vt 0.251556 0.515394
vt 0.279563 0.470307
vt 0.316962 0.511366
vt 0.315316 0.535905
vt 0.181451 0.660161
vt 0.170787 0.649979
vt 0.103468 0.724066
vt 0.159757 0.642590
vt 0.269440 0.460934
vt 0.267500 0.469324
vt 0.283772 0.455011
vt 0.240940 0.493462
vt 0.249891 0.486402
vt 0.233004 0.641781
vt 0.172348 0.713326
vt 0.423924 0.456012
vt 0.368493 0.468184
vt 0.377444 0.443830
vt 0.243044 0.681697
vt 0.281650 0.681846
vt 0.436005 0.789380
vt 0.434245 0.775385
vt 0.438042 0.707312
vt 0.440663 0.687619
vt 0.426546 0.685359
vt 0.466436 0.662226
vt 0.435981 0.763614
vt 0.441922 0.732818
vt 0.307927 0.635888
vt 0.310208 0.570886
vt 0.466046 0.621769
vt 0.465215 0.560626
vt 0.464868 0.507221
vt 0.467817 0.492941
vt 0.454659 0.447192
vt 0.267217 0.516745
vt 0.259316 0.555510
vt 0.288493 0.564742
vt 0.295612 0.521117
vt 0.370694 0.512064
vt 0.371741 0.542531
vt 0.418245 0.548948
vt 0.431002 0.501944
vt 0.281650 0.681846
vt 0.243044 0.681697
vt 0.055595 0.823822
vt 0.088387 0.718915
vt 0.307927 0.635888
vt 0.077546 0.921967
vt 0.362080 0.779037
vt 0.359801 0.846976
vt 0.401073 0.847637
vt 0.410396 0.774282
vt 0.368493 0.468184
vt 0.122364 0.956856
vt 0.368726 0.891845
vt 0.368757 0.928802
vt 0.172348 0.713326
vt 0.228546 0.588129
vt 0.236710 0.507532
vt 0.426546 0.685359
vt 0.310208 0.570886
vt 0.432343 0.489161
vt 0.369837 0.497379
vt 0.423924 0.456012
vt 0.234736 0.962800
vt 0.238423 0.876089
vt 0.289662 0.855685
vt 0.193373 0.896793
vt 0.127547 0.907355
vt 0.104692 0.870518
vt 0.178594 0.835210
vt 0.100781 0.807916
vt 0.174140 0.765391
vt 0.231147 0.826655
vt 0.375928 0.740857
vt 0.410180 0.752290
vt 0.325315 0.751928
vt 0.312964 0.787800
vt 0.275610 0.785827
vt 0.234806 0.776419
vt 0.234636 0.713592
vt 0.288299 0.721411
vt 0.304259 0.483277
vt 0.295104 0.474943
vt 0.410711 0.728911
vt 0.403673 0.662074
vt 0.352996 0.651825
vt 0.360690 0.692048
vt 0.362524 0.623305
vt 0.417276 0.621632
vt 0.310943 0.837288
vt 0.254175 0.620395
vt 0.275988 0.631104
vt 0.250140 0.566832
vt 0.251556 0.515394
vt 0.279563 0.470307
vt 0.316962 0.511366
vt 0.315316 0.535905
vt 0.181451 0.660161
vt 0.170787 0.649979
vt 0.103468 0.724066
vt 0.240940 0.493462
vt 0.233004 0.641781
vt 0.267500 0.469324
vt 0.279281 0.949363
vt 0.370058 0.973280
vt 0.283655 0.946911
vn 0.509409 -0.833879 -0.212483
vn 0.893158 -0.321765 -0.314224
vn 0.937290 -0.346691 -0.035944
vn 0.978223 -0.174257 0.112762
vn 0.743243 -0.050183 0.667137
vn 0.462072 0.078309 0.883378
vn 0.736677 0.019018 0.675978
vn 0.534859 0.199274 0.821107
vn 0.431849 -0.328444 -0.840019
vn 0.538013 -0.343020 -0.769987
vn 0.392537 -0.720464 -0.571705
vn 0.511461 -0.728050 -0.456454
vn 0.393456 0.133150 -0.909650
vn 0.584752 0.205625 -0.784719
vn 0.474830 0.332949 0.814667
vn 0.528180 -0.321774 0.785804
vn 0.671105 0.124897 0.730766
vn 0.438947 -0.235013 0.867234
vn 0.368346 0.743201 -0.558547
vn 0.507641 0.740915 -0.439710
vn 0.396241 -0.142618 0.907002
vn 0.373625 0.717419 0.587974
vn 0.122438 0.193408 0.973449
vn 0.094664 0.666334 0.739620
vn 0.740951 -0.179098 -0.647237
vn 0.726154 0.035159 -0.686632
vn 0.531514 -0.110584 -0.839800
vn 0.439126 0.012877 -0.898333
vn 0.477394 0.096638 0.873359
vn 0.746449 0.001619 0.665441
vn 0.450327 0.879415 0.154384
vn 0.318700 0.942505 0.100571
vn 0.186259 0.898201 0.398175
vn 0.383644 0.860989 0.333941
vn 0.807319 0.524458 0.270518
vn 0.814315 -0.076232 0.575396
vn 0.949153 0.314521 -0.013581
vn 0.874269 0.438325 -0.208627
vn 0.901085 0.094996 -0.423109
vn 0.994263 -0.095460 -0.048250
vn 0.902141 -0.253163 -0.349357
vn 0.957816 -0.060790 -0.280878
vn 0.996374 -0.061140 -0.059162
vn 0.287257 0.733652 0.615823
vn 0.563396 0.572960 0.595232
vn 0.531176 0.150290 0.833826
vn 0.476989 0.582873 0.657830
vn 0.987337 0.099961 -0.123180
vn 0.856481 0.133433 0.498634
vn 0.976900 0.046421 -0.208592
vn 0.898000 0.051645 0.436953
vn 0.111521 -0.985563 -0.127393
vn 0.783810 -0.619485 0.043359
vn 0.439759 0.552352 0.708180
vn 0.128233 -0.133580 0.982707
vn 0.498019 0.436192 0.749476
vn 0.682387 -0.331186 0.651662
vn 0.636979 -0.204700 0.743206
vn 0.463629 -0.160924 0.871293
vn 0.441865 -0.335311 0.832059
vn 0.817514 -0.570553 -0.078358
vn 0.834212 -0.523835 0.172303
vn 0.851080 -0.368950 -0.373549
vn 0.909202 -0.397902 -0.122581
vn 0.270891 -0.872040 0.407633
vn 0.913187 -0.033916 0.406128
vn 0.944307 -0.072428 0.320996
vn 0.659806 -0.583503 -0.473477
vn 0.468539 -0.626397 -0.622975
vn 0.765734 -0.568698 -0.300391
vn 0.434455 -0.757117 -0.487875
vn 0.131192 -0.871677 0.472194
vn 0.648985 -0.377405 0.660594
vn 0.091517 -0.820555 0.564193
vn 0.649736 -0.670222 -0.358672
vn 0.326896 -0.385453 -0.862882
vn 0.715181 -0.644474 -0.270498
vn 0.831700 -0.345930 -0.434289
vn 0.615824 -0.633828 0.467998
vn 0.288191 -0.751224 0.593808
vn 0.000000 -0.998945 -0.045926
vn 0.746188 -0.664122 -0.046325
vn 0.723990 -0.623797 0.294476
vn 0.571402 0.158681 0.805183
vn 0.658246 0.595881 0.460041
vn -0.543428 -0.540234 0.642521
vn -0.288755 0.481016 0.827795
vn -0.435128 0.459818 0.774100
vn 0.293624 0.572936 0.765199
vn -0.062856 -0.256556 0.964483
vn 0.444861 0.422067 0.789910
vn 0.788266 -0.522738 0.324627
vn 0.924934 -0.113642 0.362744
vn 0.451863 -0.071232 0.889239
vn 0.453586 0.043459 0.890152
vn 0.360679 0.305978 0.881072
vn 0.357046 0.129095 0.925123
vn -0.000000 -0.573468 0.819228
vn -0.618169 -0.752635 -0.226732
vn -0.936085 -0.346546 -0.060418
vn -0.899460 -0.363385 -0.242741
vn -0.981451 -0.174688 0.078982
vn -0.515100 0.121082 0.848535
vn -0.505664 0.055533 0.860941
vn -0.759743 0.008397 0.650170
vn -0.770903 -0.061714 0.633955
vn -0.511461 -0.728050 -0.456454
vn -0.538013 -0.343020 -0.769987
vn -0.392537 -0.720464 -0.571705
vn -0.431849 -0.328444 -0.840019
vn -0.393456 0.133150 -0.909650
vn -0.584752 0.205625 -0.784719
vn -0.474830 0.332949 0.814667
vn -0.671105 0.124897 0.730766
vn -0.524498 -0.343542 0.779026
vn -0.428459 -0.252617 0.867530
vn -0.368346 0.743201 -0.558547
vn -0.507641 0.740915 -0.439710
vn -0.394394 -0.178776 0.901384
vn -0.122954 0.182215 0.975541
vn -0.376607 0.722020 0.580391
vn -0.094664 0.666334 0.739620
vn -0.721503 -0.185820 -0.667011
vn -0.531514 -0.110584 -0.839800
vn -0.726154 0.035159 -0.686632
vn -0.439126 0.012877 -0.898333
vn -0.760533 -0.093733 0.642498
vn -0.473930 0.074949 0.877367
vn -0.318700 0.942505 0.100571
vn -0.450327 0.879415 0.154384
vn -0.186259 0.898201 0.398175
vn -0.383644 0.860988 0.333941
vn -0.807319 0.524458 0.270518
vn -0.824449 -0.078995 0.560395
vn -0.949153 0.314522 -0.013581
vn -0.874269 0.438325 -0.208627
vn -0.901085 0.094996 -0.423109
vn -0.994263 -0.095460 -0.048250
vn -0.957817 -0.060790 -0.280878
vn -0.902141 -0.253163 -0.349357
vn -0.996374 -0.061140 -0.059162
vn -0.287258 0.733652 0.615823
vn -0.563396 0.572960 0.595232
vn -0.476989 0.582873 0.657830
vn -0.531176 0.150289 0.833826
vn -0.856481 0.133433 0.498634
vn -0.987337 0.099961 -0.123180
vn -0.898000 0.051646 0.436953
vn -0.976900 0.046421 -0.208592
vn -0.803748 -0.576970 0.145239
vn -0.122219 -0.984859 -0.122940
vn -0.439759 0.552352 0.708180
vn -0.498019 0.436192 0.749476
vn -0.131227 -0.106586 0.985606
vn -0.681668 -0.321908 0.657042
vn -0.427832 -0.105749 0.897651
vn -0.587149 -0.201206 0.784074
vn -0.441865 -0.335311 0.832059
vn -0.826763 -0.562549 -0.000596
vn -0.835593 -0.521505 0.172673
vn -0.870468 -0.357749 -0.338086
vn -0.910729 -0.408828 -0.058588
vn -0.270891 -0.872040 0.407633
vn -0.948780 -0.052138 0.311607
vn -0.918804 -0.094371 0.383266
vn -0.664330 -0.554920 -0.500728
vn -0.765734 -0.568698 -0.300391
vn -0.468539 -0.626397 -0.622975
vn -0.434455 -0.757117 -0.487875
vn -0.131192 -0.871677 0.472194
vn -0.091517 -0.820555 0.564193
vn -0.648985 -0.377405 0.660594
vn -0.649736 -0.670222 -0.358672
vn -0.326896 -0.385453 -0.862882
vn -0.797754 -0.538987 -0.270336
vn -0.831700 -0.345930 -0.434290
vn -0.574438 -0.689666 0.440888
vn -0.288191 -0.751224 0.593808
vn -0.746188 -0.664122 -0.046325
vn -0.723990 -0.623797 0.294476
vn -0.571402 0.158681 0.805183
vn -0.658246 0.595881 0.460041
vn 0.543428 -0.540234 0.642521
vn 0.435128 0.459818 0.774100
vn 0.288755 0.481016 0.827795
vn -0.264933 0.584776 0.766712
vn 0.062856 -0.256556 0.964483
vn -0.444860 0.422067 0.789910
vn -0.822823 -0.433945 0.366953
vn -0.936724 -0.147039 0.317691
vn -0.383898 -0.095983 0.918373
vn -0.351505 0.068000 0.933713
vn -0.318063 0.308520 0.896466
vn -0.357046 0.129095 0.925123
f 25/1/1 24/2/2 81/4/3
f 81/4/3 24/2/2 80/3/4
f 27/6/5 93/7/6 26/5/7
f 26/5/7 93/7/6 94/8/8
f 3/10/9 29/11/10 1/9/11
f 1/9/11 29/11/10 28/12/12
f 3/10/9 5/13/13 29/11/10
f 29/11/10 5/13/13 34/14/14
f 64/15/15 65/16/16 67/18/17
f 67/18/17 65/16/16 66/17/18
f 5/13/13 7/19/19 34/14/14
f 34/14/14 7/19/19 37/20/20
f 36/21/21 41/22/22 6/24/23
f 6/24/23 41/22/22 8/23/24
f 42/25/25 43/26/26 21/28/27
f 21/28/27 43/26/26 17/27/28
f 95/29/29 44/30/30 94/8/8
f 94/8/8 44/30/30 26/5/7
f 45/32/31 37/20/20 9/31/32
f 9/31/32 37/20/20 7/19/19
f 9/31/32 168/168/33 45/32/31
f 45/32/31 168/168/33 169/169/34
f 40/33/35 41/22/22 39/34/36
f 39/34/36 41/22/22 36/21/21
f 169/169/34 40/33/35 45/32/31
f 45/32/31 40/33/35 46/35/37
f 37/20/20 45/32/31 47/36/38
f 47/36/38 45/32/31 46/35/37
f 34/14/14 37/20/20 35/37/39
f 35/37/39 37/20/20 47/36/38
f 35/37/39 47/36/38 38/38/40
f 38/38/40 47/36/38 46/35/37
f 35/37/39 38/38/40 31/39/41
f 31/39/41 38/38/40 50/40/42
f 39/34/36 91/41/43 40/33/35
f 68/42/44 64/15/15 69/43/45
f 69/43/45 64/15/15 67/18/17
f 70/45/46 64/15/15 71/44/47
f 71/44/47 64/15/15 68/42/44
f 90/47/48 91/41/43 48/46/49
f 48/46/49 91/41/43 39/34/36
f 90/47/48 48/46/49 89/48/50
f 89/48/50 48/46/49 33/49/51
f 52/51/52 25/1/1 53/50/53
f 53/50/53 25/1/1 81/4/3
f 77/52/54 73/53/55 32/55/56
f 32/55/56 73/53/55 55/54/57
f 55/54/57 73/53/55 49/56/58
f 49/56/58 73/53/55 92/57/59
f 72/58/60 65/16/16 70/45/46
f 70/45/46 65/16/16 64/15/15
f 24/2/2 56/59/61 80/3/4
f 80/3/4 56/59/61 79/60/62
f 57/61/63 58/62/64 42/25/25
f 42/25/25 58/62/64 43/26/26
f 27/6/5 49/56/58 93/7/6
f 93/7/6 49/56/58 92/57/59
f 25/1/1 58/62/64 24/2/2
f 24/2/2 58/62/64 57/61/63
f 52/51/52 59/63/65 25/1/1
f 25/1/1 59/63/65 58/62/64
f 44/30/30 84/64/66 26/5/7
f 26/5/7 84/64/66 85/65/67
f 23/66/68 22/67/69 30/68/70
f 30/68/70 22/67/69 28/12/12
f 1/9/11 28/12/12 16/69/71
f 16/69/71 28/12/12 22/67/69
f 19/70/72 60/71/73 18/72/74
f 18/72/74 60/71/73 59/63/65
f 60/71/73 58/62/64 59/63/65
f 58/62/64 60/71/73 43/26/26
f 43/26/26 60/71/73 61/73/75
f 20/74/76 61/73/75 19/70/72
f 19/70/72 61/73/75 60/71/73
f 17/27/28 43/26/26 20/74/76
f 20/74/76 43/26/26 61/73/75
f 42/25/25 21/28/27 22/67/69
f 22/67/69 21/28/27 16/69/71
f 63/75/77 56/59/61 57/61/63
f 57/61/63 56/59/61 24/2/2
f 31/39/41 50/40/42 30/68/70
f 30/68/70 50/40/42 51/76/78
f 44/30/30 95/29/29 54/78/79
f 54/78/79 95/29/29 96/77/80
f 15/79/81 52/51/52 54/78/79
f 54/78/79 52/51/52 53/50/53
f 59/63/65 52/51/52 18/72/74
f 18/72/74 52/51/52 15/79/81
f 44/30/30 54/78/79 84/64/66
f 84/64/66 54/78/79 53/50/53
f 54/78/79 96/77/80 15/79/81
f 51/76/78 78/80/82 63/75/77
f 89/48/50 33/49/51 78/80/82
f 78/80/82 33/49/51 88/81/83
f 6/24/23 66/17/18 36/21/21
f 36/21/21 66/17/18 65/16/16
f 6/24/23 4/82/84 66/17/18
f 66/17/18 4/82/84 67/18/17
f 4/82/84 82/83/85 67/18/17
f 67/18/17 82/83/85 69/43/45
f 69/43/45 77/52/54 68/42/44
f 68/42/44 77/52/54 32/55/56
f 33/49/51 48/46/49 71/44/47
f 71/44/47 48/46/49 70/45/46
f 33/49/51 71/44/47 32/55/56
f 32/55/56 71/44/47 68/42/44
f 39/34/36 72/58/60 48/46/49
f 48/46/49 72/58/60 70/45/46
f 36/21/21 65/16/16 39/34/36
f 39/34/36 65/16/16 72/58/60
f 74/84/86 75/85/87 76/86/88
f 73/53/55 76/86/88 12/87/89
f 12/87/89 76/86/88 75/85/87
f 35/37/39 31/39/41 34/14/14
f 34/14/14 31/39/41 29/11/10
f 29/11/10 31/39/41 28/12/12
f 28/12/12 31/39/41 30/68/70
f 73/53/55 77/52/54 83/89/90
f 83/89/90 77/52/54 10/88/91
f 88/81/83 33/49/51 55/54/57
f 55/54/57 33/49/51 32/55/56
f 49/56/58 87/90/92 55/54/57
f 55/54/57 87/90/92 88/81/83
f 87/90/92 49/56/58 86/91/93
f 86/91/93 49/56/58 27/6/5
f 26/5/7 85/65/67 27/6/5
f 27/6/5 85/65/67 86/91/93
f 69/43/45 82/83/85 77/52/54
f 77/52/54 82/83/85 10/88/91
f 83/89/90 74/84/86 73/53/55
f 73/53/55 74/84/86 76/86/88
f 84/64/66 53/50/53 85/65/67
f 85/65/67 53/50/53 81/4/3
f 86/91/93 85/65/67 80/3/4
f 80/3/4 85/65/67 81/4/3
f 80/3/4 79/60/62 86/91/93
f 86/91/93 79/60/62 87/90/92
f 87/90/92 79/60/62 88/81/83
f 88/81/83 79/60/62 78/80/82
f 89/48/50 78/80/82 51/76/78
f 51/76/78 50/40/42 89/48/50
f 89/48/50 50/40/42 90/47/48
f 90/47/48 50/40/42 91/41/43
f 91/41/43 50/40/42 38/38/40
f 40/33/35 91/41/43 46/35/37
f 46/35/37 91/41/43 38/38/40
f 57/61/63 42/25/25 23/66/68
f 23/66/68 42/25/25 22/67/69
f 63/75/77 23/66/68 51/76/78
f 51/76/78 23/66/68 30/68/70
f 56/59/61 78/80/82 79/60/62
f 63/75/77 78/80/82 56/59/61
f 23/66/68 63/75/77 57/61/63
f 73/53/55 12/87/89 92/57/59
f 92/57/59 12/87/89 14/92/94
f 92/57/59 14/92/94 93/7/6
f 93/7/6 14/92/94 2/93/95
f 94/8/8 93/7/6 11/94/96
f 11/94/96 93/7/6 2/93/95
f 13/95/97 95/29/29 11/94/96
f 11/94/96 95/29/29 94/8/8
f 96/77/80 95/29/29 62/96/98
f 62/96/98 95/29/29 13/95/97
f 15/79/81 96/77/80 62/96/98
f 97/97/99 100/100/100 98/98/101
f 98/98/101 100/100/100 99/99/102
f 104/104/103 103/103/104 101/101/105
f 101/101/105 103/103/104 102/102/106
f 106/108/107 105/107/108 1/9/109
f 1/9/109 105/107/108 3/10/110
f 3/10/110 105/107/108 5/13/111
f 5/13/111 105/107/108 107/110/112
f 108/111/113 111/114/114 109/112/115
f 109/112/115 111/114/114 110/113/116
f 5/13/111 107/110/112 7/19/117
f 7/19/117 107/110/112 112/116/118
f 113/117/119 6/24/120 114/118/121
f 114/118/121 6/24/120 8/23/122
f 115/120/123 21/28/124 116/121/125
f 116/121/125 21/28/124 17/27/126
f 101/101/105 118/125/127 104/104/103
f 104/104/103 118/125/127 117/124/128
f 7/19/117 112/116/118 9/31/129
f 9/31/129 112/116/118 119/127/130
f 9/31/129 119/127/130 168/168/131
f 168/168/131 119/127/130 167/167/132
f 120/128/133 121/129/134 114/118/121
f 114/118/121 121/129/134 113/117/119
f 122/130/135 120/128/133 119/127/130
f 119/127/130 120/128/133 167/167/132
f 122/130/135 119/127/130 123/131/136
f 123/131/136 119/127/130 112/116/118
f 123/131/136 112/116/118 124/132/137
f 124/132/137 112/116/118 107/110/112
f 124/132/137 125/133/138 123/131/136
f 123/131/136 125/133/138 122/130/135
f 127/135/139 125/133/138 126/134/140
f 126/134/140 125/133/138 124/132/137
f 121/129/134 120/128/133 128/136/141
f 129/137/142 130/138/143 108/111/113
f 108/111/113 130/138/143 111/114/114
f 129/137/142 108/111/113 131/139/144
f 131/139/144 108/111/113 132/140/145
f 121/129/134 128/136/141 133/141/146
f 133/141/146 128/136/141 134/142/147
f 136/144/148 133/141/146 135/143/149
f 135/143/149 133/141/146 134/142/147
f 100/100/100 97/97/99 137/145/150
f 137/145/150 97/97/99 138/146/151
f 139/147/152 142/150/153 140/148/154
f 140/148/154 142/150/153 141/149/155
f 144/152/156 140/148/154 143/151/157
f 143/151/157 140/148/154 141/149/155
f 108/111/113 109/112/115 132/140/145
f 132/140/145 109/112/115 145/153/158
f 98/98/101 99/99/102 146/154/159
f 146/154/159 99/99/102 147/155/160
f 148/156/161 115/120/123 149/157/162
f 149/157/162 115/120/123 116/121/125
f 102/102/106 103/103/104 143/151/157
f 143/151/157 103/103/104 144/152/156
f 98/98/101 148/156/161 97/97/99
f 97/97/99 148/156/161 149/157/162
f 138/146/151 97/97/99 150/158/163
f 150/158/163 97/97/99 149/157/162
f 152/160/164 151/159/165 101/101/105
f 101/101/105 151/159/165 118/125/127
f 153/161/166 155/163/167 154/162/168
f 154/162/168 155/163/167 106/108/107
f 154/162/168 106/108/107 16/69/169
f 16/69/169 106/108/107 1/9/109
f 19/70/170 18/72/171 156/166/172
f 156/166/172 18/72/171 150/158/163
f 156/166/172 150/158/163 149/157/162
f 157/164/173 156/166/172 116/121/125
f 116/121/125 156/166/172 149/157/162
f 156/166/172 157/164/173 19/70/170
f 19/70/170 157/164/173 20/74/174
f 17/27/126 20/74/174 116/121/125
f 116/121/125 20/74/174 157/164/173
f 16/69/169 21/28/124 154/162/168
f 154/162/168 21/28/124 115/120/123
f 148/156/161 98/98/101 158/165/175
f 158/165/175 98/98/101 146/154/159
f 126/134/140 155/163/167 127/135/139
f 127/135/139 155/163/167 159/119/176
f 118/125/127 161/115/177 117/124/128
f 117/124/128 161/115/177 160/126/178
f 137/145/150 138/146/151 161/115/177
f 161/115/177 138/146/151 15/79/81
f 15/79/81 138/146/151 18/72/171
f 18/72/171 138/146/151 150/158/163
f 151/159/165 137/145/150 118/125/127
f 118/125/127 137/145/150 161/115/177
f 161/115/177 15/79/81 160/126/178
f 159/119/176 158/165/175 162/106/179
f 163/105/180 136/144/148 162/106/179
f 162/106/179 136/144/148 135/143/149
f 109/112/115 110/113/116 113/117/119
f 113/117/119 110/113/116 6/24/120
f 6/24/120 110/113/116 4/82/181
f 4/82/181 110/113/116 111/114/114
f 4/82/181 111/114/114 82/83/182
f 82/83/182 111/114/114 130/138/143
f 130/138/143 129/137/142 139/147/152
f 139/147/152 129/137/142 142/150/153
f 136/144/148 131/139/144 133/141/146
f 133/141/146 131/139/144 132/140/145
f 129/137/142 131/139/144 142/150/153
f 142/150/153 131/139/144 136/144/148
f 132/140/145 145/153/158 133/141/146
f 133/141/146 145/153/158 121/129/134
f 145/153/158 109/112/115 121/129/134
f 121/129/134 109/112/115 113/117/119
f 74/84/183 164/122/184 75/85/185
f 75/85/185 164/122/184 12/87/186
f 12/87/186 164/122/184 140/148/154
f 124/132/137 107/110/112 126/134/140
f 126/134/140 107/110/112 105/107/108
f 105/107/108 106/108/107 126/134/140
f 126/134/140 106/108/107 155/163/167
f 140/148/154 83/89/187 139/147/152
f 139/147/152 83/89/187 10/88/188
f 142/150/153 136/144/148 141/149/155
f 141/149/155 136/144/148 163/105/180
f 143/151/157 141/149/155 165/109/189
f 165/109/189 141/149/155 163/105/180
f 166/123/190 102/102/106 165/109/189
f 165/109/189 102/102/106 143/151/157
f 101/101/105 102/102/106 152/160/164
f 152/160/164 102/102/106 166/123/190
f 130/138/143 139/147/152 82/83/182
f 82/83/182 139/147/152 10/88/188
f 164/122/184 74/84/183 140/148/154
f 140/148/154 74/84/183 83/89/187
f 100/100/100 137/145/150 152/160/164
f 152/160/164 137/145/150 151/159/165
f 166/123/190 99/99/102 152/160/164
f 152/160/164 99/99/102 100/100/100
f 99/99/102 166/123/190 147/155/160
f 147/155/160 166/123/190 165/109/189
f 162/106/179 147/155/160 163/105/180
f 163/105/180 147/155/160 165/109/189
f 135/143/149 159/119/176 162/106/179
f 159/119/176 135/143/149 127/135/139
f 127/135/139 135/143/149 134/142/147
f 125/133/138 127/135/139 128/136/141
f 128/136/141 127/135/139 134/142/147
f 120/128/133 122/130/135 128/136/141
f 128/136/141 122/130/135 125/133/138
f 154/162/168 115/120/123 153/161/166
f 153/161/166 115/120/123 148/156/161
f 155/163/167 153/161/166 159/119/176
f 159/119/176 153/161/166 158/165/175
f 146/154/159 147/155/160 162/106/179
f 158/165/175 146/154/159 162/106/179
f 153/161/166 148/156/161 158/165/175
f 14/92/191 12/87/186 144/152/156
f 144/152/156 12/87/186 140/148/154
f 103/103/104 2/93/192 144/152/156
f 144/152/156 2/93/192 14/92/191
f 11/94/193 2/93/192 104/104/103
f 104/104/103 2/93/192 103/103/104
f 104/104/103 117/124/128 11/94/193
f 11/94/193 117/124/128 13/95/194
f 160/126/178 62/96/98 117/124/128
f 117/124/128 62/96/98 13/95/194
f 15/79/81 62/96/98 160/126/178
f 167/167/132 120/128/133 114/118/121
f 167/167/132 114/118/121 168/168/131
f 168/168/131 114/118/121 8/23/122
f 169/169/34 168/168/33 41/22/22
f 41/22/22 168/168/33 8/23/24
f 40/33/35 169/169/34 41/22/22
