# This file uses centimeters as units for non-parametric coordinates.

v -0.084788 -0.031930 0.068365
v -0.001225 -0.025498 0.067690
v 0.083492 -0.031930 0.068366
v -0.071075 -0.021899 0.001926
v -0.001226 0.005584 -0.022284
v 0.073930 -0.021899 0.001926
v -0.080697 0.082233 0.068366
v -0.001225 0.125840 0.067689
v -0.001225 0.108946 0.018791
v -0.060376 0.065339 0.018791
v 0.079401 0.082233 0.068366
v 0.063231 0.065339 0.018791
v 0.078410 -0.049640 0.041712
v -0.001488 -0.032702 0.029473
v -0.077361 -0.049070 0.037937
vt 0.586632 0.030708
vt 0.622173 0.063922
vt 0.612442 0.084083
vt 0.579275 0.060646
vt 0.605705 0.105537
vt 0.594049 0.118435
vt 0.517866 0.039975
vt 0.531814 0.078695
vt 0.550856 0.109776
vt 0.525836 0.070568
vt 0.508652 0.056638
vt 0.538180 0.118536
vt 0.527151 0.127992
vt 0.543353 0.138314
vt 0.527667 0.093743
vn -0.002944 0.945175 -0.326551
vn -0.008796 0.763938 -0.645230
vn -0.797552 0.460352 -0.389856
vn -0.705612 0.341795 -0.620716
vn 0.808745 0.472542 -0.350194
vn 0.714921 0.354303 -0.602792
vn 0.045267 -0.497101 0.866511
vn -0.000077 -0.553064 0.833138
vn 0.008307 -0.000146 0.999966
vn 0.000061 0.000002 1.000000
vn -0.803428 0.206494 -0.558448
vn -0.011954 0.306200 -0.951892
vn -0.966426 0.080374 -0.244052
vn -0.042508 -0.467012 0.883229
vn -0.008196 -0.000140 0.999966
vn 0.809482 0.205597 -0.549972
vn 0.979245 0.074112 -0.188646
vn 0.004059 -0.803947 -0.594687
vn -0.094836 -0.810783 -0.577614
vn 0.004328 -0.933568 -0.358376
vn -0.146197 -0.986905 0.068151
vn 0.108719 -0.800966 -0.588757
vn 0.152413 -0.987673 0.035684
vn 0.977170 0.035016 -0.209555
vn -0.966231 0.034626 -0.255340
f 8/2/1 9/3/2 7/1/3
f 7/1/3 9/3/2 10/4/4
f 8/2/1 11/5/5 9/3/2
f 9/3/2 11/5/5 12/6/6
f 1/7/7 2/8/8 7/1/9
f 7/1/9 2/8/8 8/2/10
f 4/10/11 10/4/4 5/9/12
f 5/9/12 10/4/4 9/3/2
f 4/10/11 15/11/13 10/4/4
f 10/4/4 15/11/13 7/1/3
f 3/12/14 11/5/15 2/8/8
f 2/8/8 11/5/15 8/2/10
f 6/14/16 12/6/6 13/13/17
f 13/13/17 12/6/6 11/5/5
f 6/14/16 5/9/12 12/6/6
f 12/6/6 5/9/12 9/3/2
f 5/9/18 6/14/19 14/15/20
f 14/15/20 6/14/19 13/13/21
f 5/9/18 14/15/20 4/10/22
f 4/10/22 14/15/20 15/11/23
f 3/12/24 13/13/17 11/5/5
f 14/15/20 13/13/21 2/8/8
f 2/8/8 13/13/21 3/12/14
f 14/15/20 2/8/8 15/11/23
f 15/11/23 2/8/8 1/7/7
f 7/1/3 15/11/13 1/7/25
