# This file uses centimeters as units for non-parametric coordinates.

v -0.057498 -0.042316 0.112533
v -0.001159 -0.068555 0.107847
v 0.054872 -0.043322 0.099803
v -0.053776 0.080587 0.163929
v -0.001239 0.084509 0.177804
v 0.054575 0.083439 0.167930
v -0.059148 0.154527 0.157597
v -0.001596 0.146970 0.156768
v 0.059047 0.157373 0.144145
v -0.146131 0.228883 0.032180
v -0.000478 0.239077 0.031504
v 0.147152 0.228883 0.034797
v -0.122943 0.217679 -0.083199
v 0.000720 0.189054 -0.085729
v 0.124038 0.208265 -0.099570
v -0.115931 0.117264 -0.095903
v 0.002773 0.108242 -0.093304
v 0.128413 0.105868 -0.103321
v -0.090433 -0.022264 -0.075205
v 0.005593 -0.004166 -0.070156
v 0.109491 -0.024425 -0.079984
v -0.146739 -0.054005 -0.012449
v -0.000261 -0.122409 -0.004669
v 0.146543 -0.054005 -0.009831
v 0.180798 0.096806 0.016006
v -0.170934 0.096806 0.012867
v -0.004396 0.219890 0.060517
v 0.131188 0.210389 0.087004
v 0.163844 0.091917 0.080828
v 0.128722 -0.046376 0.051965
v -0.001001 -0.097624 0.042033
v -0.127474 -0.046403 0.054037
v -0.152670 0.091153 0.088162
v -0.132834 0.200832 0.088731
v -0.129809 0.223037 -0.028892
v -0.153069 0.102111 -0.057488
v -0.129530 -0.034290 -0.055596
v 0.000689 -0.092766 -0.046912
v 0.131571 -0.034500 -0.052415
v 0.165217 0.101783 -0.050292
v 0.132266 0.222728 -0.029790
v -0.003842 0.269779 -0.011501
v -0.001342 0.182692 0.128291
v -0.097788 0.216975 0.073727
v -0.113947 0.231136 0.032031
v -0.097077 0.222826 -0.029548
v 0.000480 0.210318 -0.075857
v 0.101169 0.222604 -0.030191
v 0.111788 0.231325 0.034008
v 0.089917 0.215465 0.082492
v -0.043270 0.191086 0.122066
v 0.039907 0.193780 0.095015
v -0.034848 -0.006793 -0.076263
v -0.041429 -0.075709 -0.047453
v -0.043693 -0.099955 -0.004178
v -0.042288 -0.081681 0.055343
v -0.046051 -0.053954 0.104029
v 0.051116 -0.095837 -0.003170
v 0.047215 -0.074210 -0.046375
v 0.036172 -0.010335 -0.077875
v 0.035179 -0.082938 0.040910
v 0.035898 -0.056756 0.105416
v -0.001118 -0.064373 0.063708
v 0.004172 -0.033337 -0.030887
v -0.037168 -0.034297 -0.032677
v -0.044260 -0.061792 0.050850
v 0.047152 -0.030929 -0.033353
v 0.035778 -0.060437 0.055861
v 0.033778 0.214381 -0.060755
v 0.038267 0.191335 -0.074687
v 0.053228 0.118386 -0.094189
v 0.038203 0.145929 -0.093094
v 0.132089 0.147115 -0.100096
v 0.152581 0.148165 -0.042429
v -0.036389 0.215045 -0.058356
v -0.039503 0.191823 -0.075247
v -0.035861 0.114297 -0.093172
v -0.030227 0.142872 -0.093015
v -0.119630 0.134373 -0.103380
v -0.141568 0.161905 -0.043348
v 0.002563 0.140580 -0.093304
v 0.045102 0.222380 -0.017653
v -0.041555 0.222469 -0.022032
v 0.130236 -0.040065 -0.003499
v 0.117403 -0.021029 -0.001055
v 0.041764 -0.031105 0.011713
v 0.041857 -0.044666 0.008181
v 0.040951 -0.078753 -0.000949
v -0.041821 -0.078435 -0.000539
v -0.040424 -0.046918 0.005666
v -0.039697 -0.027208 0.001779
v -0.115584 -0.021223 -0.001288
v -0.128576 -0.039911 -0.004722
v 0.160417 0.178023 -0.041084
v 0.119420 0.175479 -0.097500
v 0.035484 0.158807 -0.093094
v 0.002460 0.156431 -0.093304
v -0.032714 0.158016 -0.093304
v -0.118063 0.170445 -0.089679
v -0.149872 0.182924 -0.049865
vt 0.709445 0.386188
vt 0.737314 0.374430
vt 0.761451 0.365020
vt 0.749553 0.480714
vt 0.693847 0.483704
vt 0.792233 0.389343
vt 0.820423 0.412026
vt 0.809587 0.486146
vt 0.746320 0.525880
vt 0.688086 0.534896
vt 0.801449 0.537994
vt 0.685663 0.563095
vt 0.086494 0.446798
vt 0.663892 0.571169
vt 0.038805 0.440669
vt 0.060775 0.421972
vt 0.094098 0.437839
vt 0.034302 0.320456
vt 0.055262 0.342304
vt 0.057417 0.382519
vt 0.073682 0.351587
vt 0.071062 0.344933
vt 0.153723 0.442912
vt 0.127580 0.438281
vt 0.640822 0.552919
vt 0.229086 0.434574
vt 0.259311 0.435105
vt 0.810673 0.576570
vt 0.831197 0.556022
vt 0.839279 0.563243
vt 0.222864 0.446330
vt 0.825029 0.585149
vt 0.216056 0.442317
vt 0.853207 0.487234
vt 0.880343 0.482519
vt 0.647756 0.369003
vt 0.689186 0.378659
vt 0.636412 0.484364
vt 0.617625 0.482793
vt 0.628418 0.568041
vt 0.743697 0.550598
vt 0.789455 0.567720
vt 0.236978 0.245702
vt 0.245148 0.251544
vt 0.264786 0.327004
vt 0.746561 0.588257
vt 0.242013 0.344822
vt 0.255173 0.395288
vt 0.226197 0.426058
vt 0.860166 0.400508
vt 0.760129 0.344207
vt 0.781492 0.352740
vt 0.245797 0.374229
vt 0.782189 0.366832
vt 0.218246 0.238024
vt 0.225795 0.348724
vt 0.179797 0.431028
vt 0.117765 0.373541
vt 0.760516 0.365015
vt 0.647512 0.581391
vt 0.738017 0.608205
vt 0.759573 0.327159
vt 0.789840 0.342747
vt 0.872813 0.387210
vt 0.734004 0.340436
vt 0.156293 0.378009
vt 0.156029 0.416802
vt 0.133258 0.419597
vt 0.142106 0.253415
vt 0.734524 0.352304
vt 0.759223 0.342300
vt 0.156429 0.357889
vt 0.735957 0.354405
vt 0.734704 0.365893
vt 0.786489 0.353087
vt 0.783900 0.352907
vt 0.735174 0.353257
vt 0.800748 0.394253
vt 0.841264 0.401709
vt 0.794222 0.389357
vt 0.116426 0.357426
vt 0.738780 0.372981
vt 0.727282 0.373535
vt 0.117100 0.251257
vt 0.071953 0.219811
vt 0.080345 0.235827
vt 0.090826 0.247504
vt 0.155916 0.421550
vt 0.135416 0.424535
vt 0.177712 0.425153
vt 0.166671 0.251609
vt 0.191334 0.357659
vt 0.694066 0.381078
vt 0.687659 0.378702
vt 0.180342 0.420009
vt 0.187796 0.377731
vt 0.090292 0.245742
vt 0.080231 0.234400
vt 0.156843 0.459768
vt 0.073410 0.413133
vt 0.168722 0.212847
vt 0.169815 0.211818
vt 0.144473 0.201518
vt 0.234685 0.245094
vt 0.141962 0.238006
vt 0.166840 0.237436
vt 0.214880 0.237182
vt 0.167390 0.243530
vt 0.116194 0.239210
vt 0.080291 0.235154
vt 0.167714 0.231983
vt 0.119187 0.212422
vt 0.090579 0.246689
vt 0.118393 0.241538
vt 0.118423 0.233260
vt 0.116469 0.212550
vt 0.057263 0.395976
vt 0.078062 0.380445
vt 0.124572 0.387511
vt 0.156226 0.387843
vt 0.185837 0.388842
vt 0.242013 0.393469
vt 0.250931 0.408439
vn -0.355272 -0.052927 0.933263
vn -0.339651 -0.385223 0.858044
vn -0.041994 -0.193591 0.980183
vn 0.032694 -0.782348 0.621983
vn -0.141514 -0.836337 0.529637
vn 0.369169 -0.124032 0.921049
vn 0.545512 -0.782772 0.299475
vn 0.434790 -0.832395 0.343622
vn 0.035793 0.432387 0.900978
vn -0.289487 0.362481 0.885892
vn 0.220138 0.552484 0.803928
vn -0.047737 0.714609 0.697893
vn -0.592865 0.549574 0.588626
vn -0.128958 0.874873 0.466870
vn -0.027198 0.824320 0.565471
vn 0.520479 0.636464 0.569223
vn 0.052344 0.992033 0.114589
vn 0.804174 0.585832 0.100527
vn 0.753128 -0.071416 0.653986
vn 0.999877 0.009932 0.012131
vn -0.987222 -0.148818 -0.056980
vn -0.943435 -0.213344 0.253800
vn -0.999882 0.010820 -0.010928
vn -0.776446 -0.090395 0.623667
vn -0.753702 0.643842 0.131909
vn 0.125262 0.872103 0.473018
vn 0.008236 0.802404 0.596725
vn 0.020356 0.843841 0.536207
vn 0.185483 -0.951898 0.243896
vn 0.070393 -0.812817 0.578250
vn 0.741612 -0.370411 0.559292
vn 0.043382 -0.838471 0.543217
vn 0.840369 -0.463796 0.280489
vn -0.602766 -0.294392 0.741624
vn -0.044516 0.998460 0.033105
vn 0.007768 0.893258 0.449478
vn 0.069495 0.885966 0.458513
vn -0.037674 0.999232 -0.010812
vn -0.018293 0.953467 0.300943
vn -0.054131 0.843097 0.535030
vn 0.033469 0.999256 -0.019154
vn 0.091556 0.700056 0.708194
vn 0.205981 0.822893 0.529546
vn -0.171415 0.758437 0.628801
vn 0.370116 0.907424 -0.198985
vn -0.009193 0.983172 -0.182451
vn 0.000890 -0.997994 -0.063305
vn 0.816688 -0.575226 0.046219
vn 0.879615 -0.264438 0.395412
vn 0.251612 -0.956258 -0.149204
vn 0.895097 -0.010171 -0.445755
vn 0.960892 0.149728 -0.232955
vn 0.477099 0.169899 -0.862271
vn 0.303029 -0.100039 -0.947716
vn 0.290263 0.951438 -0.102540
vn -0.037579 0.987908 -0.150417
vn -0.385226 0.906516 -0.172711
vn 0.024932 0.992557 -0.119205
vn -0.821339 -0.119418 -0.557801
vn -0.802151 -0.074459 -0.592460
vn -0.950992 0.069679 -0.301263
vn -0.457935 0.149511 -0.876323
vn -0.266560 0.726350 -0.633531
vn -0.271877 -0.156101 -0.949587
vn -0.312616 -0.320424 -0.894203
vn 0.028226 0.986454 -0.161592
vn -0.343404 0.935055 -0.088012
vn 0.000707 0.076108 -0.997099
vn 0.151155 0.372415 -0.915674
vn 0.005360 0.243938 -0.969776
vn 0.000683 0.409873 -0.912142
vn -0.305829 -0.509958 -0.803997
vn -0.072512 -0.075900 -0.994475
vn -0.009531 -0.585693 -0.810477
vn -0.066812 -0.024164 -0.997473
vn 0.191985 -0.873428 -0.447510
vn 0.240435 -0.736688 -0.632046
vn 0.264742 0.475287 -0.839055
vn -0.022239 0.728442 -0.684746
vn -0.339424 0.850365 -0.402083
vn 0.291164 0.866757 -0.404914
vn 0.120273 -0.656524 -0.744654
vn 0.077114 -0.352725 -0.932544
vn 0.043741 -0.112031 -0.992742
vn 0.020871 -0.119171 -0.992654
vn -0.005371 0.251000 -0.967972
vn -0.046432 0.448161 -0.892746
vn 0.010636 0.784074 -0.620576
vn 0.076344 -0.086492 -0.993323
vn 0.086141 -0.534801 -0.840576
vn -0.074049 -0.097010 -0.992525
vn 0.009083 -0.559907 -0.828506
vn -0.388140 -0.917842 -0.083152
vn -0.191035 -0.516034 0.834994
vn -0.265683 -0.570843 0.776885
vn 0.698366 0.059345 -0.713276
vn -0.138896 -0.353416 -0.925097
vn 0.969832 -0.029902 -0.241932
vn -0.668972 -0.736253 -0.102022
vn -0.645660 -0.754289 -0.119047
vn -0.831198 -0.549411 -0.085192
vn 0.002981 -0.994045 -0.108933
vn 0.247137 -0.948842 -0.196525
vn 0.990962 -0.051687 0.123784
vn 0.992112 -0.051069 0.114481
vn 0.856708 0.488038 0.166947
vn -0.996184 0.087221 -0.003256
vn -0.996184 0.087221 -0.003256
vn -0.996184 0.087221 -0.003256
vn -0.997378 -0.024041 -0.068261
vn -0.997784 0.039480 -0.053562
vn -0.997520 0.022050 -0.066840
vn -0.996654 0.039282 -0.071682
vn 0.256916 -0.938764 -0.229599
vn -0.181901 -0.969648 -0.163387
vn 0.091277 -0.988124 -0.123607
vn -0.075180 -0.993994 -0.079523
vn 0.351605 -0.926697 0.132691
vn 0.619833 -0.779080 -0.094030
vn 0.620522 -0.783645 0.029212
vn 0.825222 -0.559496 -0.077291
vn 0.635511 -0.766031 -0.096553
vn 0.635511 -0.766031 -0.096553
vn 0.635511 -0.766031 -0.096553
vn 0.990526 0.102920 0.090921
vn -0.998889 0.029004 -0.037149
vn -0.994661 0.103167 -0.002317
vn 0.232178 0.662093 -0.712549
vn -0.029255 0.010676 -0.999515
vn 0.339491 0.106236 -0.934591
vn 0.948378 0.122628 -0.292474
vn -0.048744 0.965351 -0.256361
vn -0.009139 0.734144 -0.678932
vn -0.132337 0.359372 -0.923764
vn -0.245319 0.503050 -0.828710
vn 0.000183 0.069584 -0.997576
vn 0.042873 -0.005960 -0.999063
vn -0.354131 -0.004583 -0.935185
vn -0.958442 0.029586 -0.283751
vn 0.005888 0.000038 -0.999983
vn -0.006844 0.002344 -0.999974
vn -0.996184 0.087221 -0.003256
vn -0.998659 0.011550 -0.050469
vn -0.994702 -0.101808 -0.014226
vn -0.996632 0.069338 -0.043789
vn -0.458198 -0.867858 -0.192036
vn -0.768686 -0.605495 -0.206149
vn 0.609690 -0.762624 -0.216063
vn 0.328938 -0.884172 -0.331723
vn 0.635511 -0.766031 -0.096553
f 4/5/1 1/1/2 5/4/3
f 2/3/4 5/4/3 57/2/5
f 1/1/2 57/2/5 5/4/3
f 5/4/3 2/3/4 6/8/6
f 2/3/4 62/6/7 6/8/6
f 62/6/7 3/7/8 6/8/6
f 5/4/3 8/9/9 4/5/1
f 4/5/1 8/9/9 7/10/10
f 5/4/3 6/8/6 8/9/9
f 8/9/9 6/8/6 9/11/11
f 7/10/10 51/12/12 34/25/13
f 34/25/13 51/12/12 44/14/14
f 50/28/15 28/29/16 49/32/17
f 49/32/17 28/29/16 12/30/18
f 29/34/19 25/35/20 28/29/16
f 28/29/16 25/35/20 12/30/18
f 22/36/21 32/37/22 26/39/23
f 26/39/23 32/37/22 33/38/24
f 33/38/24 34/25/13 26/39/23
f 26/39/23 34/25/13 10/40/25
f 43/41/26 52/42/27 27/46/28
f 6/8/6 29/34/19 9/11/11
f 9/11/11 29/34/19 28/29/16
f 30/50/29 29/34/19 3/7/8
f 3/7/8 29/34/19 6/8/6
f 31/51/30 61/52/31 63/59/32
f 63/59/32 61/52/31 68/54/33
f 32/37/34 1/1/2 33/38/24
f 33/38/24 1/1/2 4/5/1
f 34/25/13 33/38/24 7/10/10
f 7/10/10 33/38/24 4/5/1
f 34/25/13 44/14/14 10/40/25
f 10/40/25 44/14/14 45/60/35
f 44/14/36 51/12/37 27/46/28
f 45/60/38 44/14/36 11/61/39
f 11/61/39 44/14/36 27/46/28
f 27/46/28 50/28/40 11/61/39
f 11/61/39 50/28/40 49/32/41
f 8/9/9 9/11/11 43/41/42
f 43/41/42 9/11/11 52/42/43
f 7/10/10 8/9/9 51/12/12
f 51/12/12 8/9/9 43/41/42
f 27/46/28 51/12/37 43/41/26
f 52/42/44 9/11/11 50/28/15
f 50/28/15 9/11/11 28/29/16
f 27/46/28 52/42/27 50/28/40
f 12/15/18 41/16/45 49/13/17
f 49/13/17 41/16/45 48/17/46
f 23/62/47 58/63/48 31/51/30
f 31/51/30 58/63/48 61/52/49
f 24/64/50 25/35/20 30/50/29
f 30/50/29 25/35/20 29/34/19
f 40/19/51 74/20/52 25/18/20
f 25/18/20 74/20/52 12/15/18
f 74/20/52 40/19/51 73/21/53
f 73/21/53 40/19/51 18/22/54
f 11/23/39 49/13/41 82/24/55
f 82/24/55 49/13/41 48/17/56
f 10/27/25 45/31/35 35/26/57
f 35/26/57 45/31/35 46/33/58
f 22/44/21 26/45/23 37/43/59
f 37/43/59 26/45/23 36/47/60
f 35/26/57 100/123/61 10/27/25
f 99/122/62 100/123/61 13/49/63
f 13/49/63 100/123/61 35/26/57
f 37/43/59 36/47/60 19/55/64
f 19/55/64 36/47/60 16/56/65
f 46/33/66 45/31/38 83/57/67
f 83/57/67 45/31/38 11/23/39
f 97/120/68 14/67/69 96/119/70
f 96/119/70 14/67/69 70/68/71
f 20/69/72 17/72/73 60/84/74
f 60/84/74 17/72/73 71/81/75
f 24/85/50 39/86/76 25/18/20
f 25/18/20 39/86/76 40/19/51
f 39/86/76 21/87/77 40/19/51
f 40/19/51 21/87/77 18/22/54
f 14/67/69 47/88/78 70/68/71
f 70/68/71 47/88/78 69/89/79
f 83/57/67 75/90/80 46/33/66
f 69/89/81 82/24/55 48/17/56
f 20/69/82 53/91/83 17/72/84
f 17/72/84 53/91/83 77/92/85
f 98/121/86 99/122/62 76/95/87
f 76/95/87 99/122/62 13/49/63
f 76/95/87 13/49/63 75/90/88
f 75/90/88 13/49/63 46/33/58
f 13/49/63 35/26/57 46/33/58
f 64/105/89 65/106/90 20/69/82
f 20/69/82 65/106/90 53/91/83
f 54/70/91 38/71/92 55/65/93
f 55/65/93 38/71/92 23/62/47
f 56/73/94 55/65/93 31/51/30
f 31/51/30 55/65/93 23/62/47
f 66/74/95 63/59/32 57/2/5
f 57/2/5 63/59/32 2/3/4
f 23/62/47 38/71/92 58/63/48
f 58/63/48 38/71/92 59/75/96
f 20/69/72 60/84/74 64/105/97
f 64/105/97 60/84/74 67/109/98
f 39/86/76 24/85/50 84/110/99
f 21/87/77 39/86/76 85/113/100
f 85/113/100 39/86/76 84/110/101
f 21/87/77 85/113/102 60/84/74
f 60/84/74 85/113/102 86/114/103
f 59/116/96 67/109/98 88/112/104
f 88/112/104 67/109/98 87/115/105
f 58/63/48 59/75/96 88/76/106
f 54/70/107 55/65/108 89/77/109
f 53/91/110 65/106/111 91/108/112
f 91/108/112 65/106/111 90/111/113
f 53/91/114 91/108/115 19/55/116
f 19/55/116 91/108/115 92/107/117
f 19/55/118 92/107/119 37/43/120
f 37/43/120 92/107/119 93/104/121
f 22/44/122 37/43/123 93/104/124
f 68/54/33 62/6/7 63/59/32
f 63/59/32 62/6/7 2/3/4
f 65/106/90 64/105/89 54/102/91
f 54/102/91 64/105/89 38/103/92
f 66/74/95 56/73/94 63/59/32
f 63/59/32 56/73/94 31/51/30
f 67/109/98 59/116/96 64/105/97
f 64/105/97 59/116/96 38/103/92
f 87/115/105 67/109/98 86/114/125
f 86/114/125 67/109/98 60/84/74
f 90/111/113 65/106/111 89/101/126
f 89/101/126 65/106/111 54/102/127
f 70/68/71 69/89/79 15/100/128
f 69/89/79 48/17/46 15/100/128
f 48/17/46 41/16/45 15/100/128
f 72/58/129 73/21/53 71/81/75
f 71/81/75 73/21/53 18/22/54
f 96/119/70 70/68/71 95/118/130
f 95/118/130 70/68/71 15/100/128
f 41/16/45 94/117/131 15/100/128
f 15/100/128 94/117/131 95/118/130
f 12/15/18 94/117/131 41/16/45
f 42/99/132 69/89/81 47/88/133
f 47/88/133 75/90/80 42/99/132
f 14/67/134 76/95/87 47/88/135
f 47/88/135 76/95/87 75/90/88
f 97/120/136 98/121/86 14/67/134
f 14/67/134 98/121/86 76/95/87
f 78/96/137 77/92/85 79/53/138
f 79/53/138 77/92/85 16/56/65
f 80/48/139 79/53/138 36/47/60
f 36/47/60 79/53/138 16/56/65
f 10/27/25 80/48/139 26/45/23
f 26/45/23 80/48/139 36/47/60
f 71/81/75 18/22/54 60/84/74
f 60/84/74 18/22/54 21/87/77
f 53/91/83 19/55/64 77/92/85
f 77/92/85 19/55/64 16/56/65
f 81/66/140 72/58/129 17/72/73
f 17/72/73 72/58/129 71/81/75
f 17/72/84 77/92/85 81/66/141
f 81/66/141 77/92/85 78/96/137
f 42/99/132 82/24/55 69/89/81
f 11/23/39 82/24/55 42/99/132
f 83/57/67 11/23/39 42/99/132
f 42/99/132 75/90/80 83/57/67
f 84/110/99 24/85/50 30/98/29
f 84/110/101 30/98/29 85/113/100
f 85/113/100 30/98/29 3/97/8
f 85/79/102 3/7/8 86/78/103
f 86/78/103 3/7/8 62/6/7
f 87/80/105 86/78/125 68/54/33
f 68/54/33 86/78/125 62/6/7
f 88/76/104 87/80/105 61/52/31
f 61/52/31 87/80/105 68/54/33
f 58/63/48 88/76/106 61/52/49
f 89/77/109 55/65/108 56/73/142
f 90/82/113 89/77/126 66/74/143
f 66/74/143 89/77/126 56/73/144
f 90/82/113 66/74/143 91/83/112
f 91/83/112 66/74/143 57/2/145
f 92/93/117 91/83/115 1/1/146
f 1/1/146 91/83/115 57/2/147
f 93/94/121 92/93/119 32/37/148
f 32/37/148 92/93/119 1/1/149
f 22/36/122 93/94/124 32/37/150
f 12/15/18 74/20/52 94/117/131
f 94/117/131 74/20/52 95/118/130
f 95/118/130 74/20/52 73/21/53
f 73/21/53 72/58/129 95/118/130
f 95/118/130 72/58/129 96/119/70
f 81/66/140 97/120/68 72/58/129
f 72/58/129 97/120/68 96/119/70
f 81/66/141 78/96/137 97/120/136
f 97/120/136 78/96/137 98/121/86
f 99/122/62 98/121/86 79/53/138
f 79/53/138 98/121/86 78/96/137
f 100/123/61 99/122/62 80/48/139
f 80/48/139 99/122/62 79/53/138
f 10/27/25 100/123/61 80/48/139
