# This file uses centimeters as units for non-parametric coordinates.

v -0.083815 0.047086 0.113074
v -0.000252 0.053517 0.112398
v 0.084465 0.047086 0.113075
v -0.040773 0.007986 0.052449
v -0.001504 0.012244 0.017545
v 0.012303 0.004816 0.049849
v -0.040564 0.008051 -0.085888
v -0.003878 0.030951 -0.080629
v 0.029844 0.006803 -0.085710
v -0.043755 -0.006982 -0.075889
v 0.006768 -0.037972 -0.104432
v 0.016081 -0.009092 -0.063662
v -0.026974 -0.012313 -0.070523
v -0.001462 -0.022272 -0.068116
v 0.033044 -0.015483 -0.063171
v -0.025804 -0.018234 0.049397
v -0.004558 -0.027647 0.029199
v 0.017025 -0.016328 0.046033
v -0.052637 -0.072946 0.109235
v -0.000376 -0.100997 0.108559
v 0.056194 -0.093108 0.109235
v -0.074326 -0.028179 0.113304
v -0.000252 -0.013702 0.112627
v 0.077270 -0.013702 0.113304
v 0.019847 -0.017170 0.046077
v -0.029535 -0.008227 0.052593
v 0.008987 -0.030565 -0.124308
v -0.006980 0.024943 -0.150142
v -0.005175 -0.006846 -0.146435
v -0.054980 -0.008654 -0.134830
v -0.006686 0.030690 -0.121526
v 0.050108 0.008103 -0.129818
v -0.006487 0.025060 -0.142207
v -0.045636 0.018514 -0.128014
v -0.028972 0.016357 -0.081806
v 0.000725 0.020541 -0.051555
v 0.023514 0.014856 -0.081336
v 0.039191 0.018356 -0.127913
v -0.039783 -0.017097 -0.039032
v -0.004070 -0.028745 -0.037263
v 0.018930 -0.017509 -0.037428
v -0.055007 0.019459 0.077191
v 0.052363 0.018948 0.078995
v -0.052798 -0.084568 0.073912
v -0.003216 -0.103350 0.074154
v 0.042792 -0.095836 0.075174
v 0.040836 -0.034256 0.077104
v -0.063193 -0.037659 0.075231
v -0.001515 0.032213 0.078504
vt 0.589741 0.239876
vt 0.600418 0.262354
vt 0.606919 0.240914
vt 0.625136 0.255257
vt 0.582835 0.238190
vt 0.594663 0.249684
vt 0.607074 0.261019
vt 0.576897 0.249425
vt 0.630563 0.258268
vt 0.613627 0.273421
vt 0.602129 0.284591
vt 0.585841 0.271730
vt 0.624298 0.293653
vt 0.567526 0.274835
vt 0.590806 0.290858
vt 0.569509 0.325426
vt 0.549216 0.326006
vt 0.606885 0.291983
vt 0.579239 0.334958
vt 0.553164 0.384240
vt 0.520300 0.361957
vt 0.584403 0.393714
vt 0.510012 0.375133
vt 0.544412 0.401875
vt 0.546990 0.363794
vt 0.496250 0.350869
vt 0.571519 0.399363
vt 0.584256 0.383795
vt 0.549903 0.333303
vt 0.510088 0.319347
vt 0.580983 0.364174
vt 0.584823 0.365764
vt 0.576468 0.349736
vt 0.581094 0.336126
vt 0.575690 0.326093
vt 0.515028 0.338287
vt 0.522604 0.315638
vt 0.546131 0.322134
vt 0.539302 0.311691
vt 0.576807 0.302061
vt 0.558617 0.324966
vt 0.585704 0.209705
vt 0.606336 0.207304
vt 0.606161 0.215701
vt 0.626749 0.234457
vt 0.593198 0.209352
vt 0.597524 0.220322
vt 0.604117 0.211694
vt 0.619024 0.227879
vn -0.413525 0.899171 0.143137
vn 0.009786 0.941919 0.335697
vn 0.005535 0.985811 0.167769
vn 0.535671 0.831356 0.148003
vn 0.181548 -0.941156 -0.285073
vn 0.020858 -0.990981 -0.132373
vn -0.661767 -0.708156 -0.246130
vn -0.606623 -0.752327 -0.256929
vn 0.823729 -0.551020 0.133594
vn 0.918225 0.192522 -0.346119
vn -0.372484 -0.879858 0.295135
vn -0.131106 -0.920454 0.368207
vn 0.867860 -0.325712 -0.375142
vn -0.013700 -0.991525 -0.129191
vn 0.004338 -0.906972 -0.421168
vn -0.600496 -0.798836 -0.035578
vn -0.766816 -0.337263 -0.546120
vn 0.591886 -0.805055 0.039454
vn 0.211549 -0.744657 -0.633035
vn -0.700340 -0.568481 -0.431686
vn 0.097573 -0.803220 -0.587637
vn 0.479556 -0.606548 -0.634134
vn -0.008752 -0.046544 0.998878
vn 0.000813 -0.029980 0.999550
vn 0.006218 -0.062645 0.998017
vn 0.016421 -0.037338 0.999168
vn -0.007084 -0.047706 0.998836
vn -0.008358 -0.013599 0.999873
vn 0.008075 0.003756 0.999960
vn -0.002844 0.003829 0.999989
vn -0.007628 0.004672 0.999960
vn 0.746319 -0.130553 -0.652659
vn 0.770859 -0.474533 -0.424964
vn 0.810988 0.006856 -0.585023
vn 0.761811 -0.092589 -0.641148
vn 0.705296 -0.111290 -0.700123
vn 0.949744 0.295522 0.103211
vn 0.862305 -0.083965 -0.499380
vn 0.925642 0.329590 -0.185894
vn 0.910010 0.331870 0.248484
vn -0.922543 -0.131749 -0.362706
vn -0.846999 -0.079815 -0.525568
vn -0.840042 -0.537674 0.072367
vn -0.813196 -0.104269 -0.572573
vn -0.857846 -0.108566 -0.502309
vn -0.922599 -0.261591 -0.283517
vn -0.918841 -0.394427 -0.012588
vn -0.964106 0.264858 -0.018709
vn -0.831838 0.542554 0.116964
vn 0.261351 0.917299 -0.300432
vn -0.274620 0.874640 -0.399487
vn 0.081892 0.869332 -0.487397
vn -0.147146 0.818478 -0.555375
vn 0.522496 0.727915 -0.444001
vn 0.154288 0.776596 -0.610814
vn -0.711926 0.222788 -0.665978
vn -0.002897 0.619928 -0.784653
vn 0.046009 -0.113125 -0.992515
vn 0.123643 -0.636453 -0.761341
vn 0.633126 -0.715416 -0.295519
vn -0.549505 0.831042 -0.086102
vn -0.012859 0.999258 -0.036302
vn -0.011604 0.990268 -0.138688
vn 0.487741 0.872375 -0.032719
vn 0.627520 0.510332 -0.588031
vn -0.293365 -0.940027 -0.174032
vn 0.095753 0.990422 0.099480
vn 0.074936 0.989788 0.121261
vn -0.283631 -0.928936 -0.237973
vn 0.101318 -0.987364 -0.121845
vn 0.874181 -0.123912 0.469525
vn -0.132804 -0.984006 0.118723
vn 0.004806 0.802425 -0.596734
vn -0.064075 0.765210 -0.640584
vn 0.061556 0.740425 -0.669315
f 35/1/1 36/2/2 8/3/3
f 36/2/2 37/4/4 8/3/3
f 27/6/5 11/7/6 7/5/7
f 7/5/7 11/7/6 10/8/8
f 27/6/5 9/9/9 11/7/6
f 11/7/6 9/9/9 12/10/10
f 10/8/8 11/7/6 13/12/11
f 11/7/6 14/11/12 13/12/11
f 14/11/12 11/7/6 15/13/13
f 11/7/6 12/10/10 15/13/13
f 40/15/14 17/16/15 39/14/16
f 39/14/16 17/16/15 16/17/17
f 40/15/14 41/18/18 17/16/15
f 17/16/15 41/18/18 18/19/19
f 16/17/17 17/16/15 44/21/20
f 44/21/20 17/16/15 45/20/21
f 17/16/15 18/19/19 45/20/21
f 45/20/21 18/19/19 46/22/22
f 20/24/23 23/25/24 19/23/25
f 19/23/25 23/25/24 22/26/26
f 20/24/23 21/27/27 23/25/24
f 23/25/24 21/27/27 24/28/28
f 22/26/26 23/25/24 1/30/29
f 1/30/29 23/25/24 2/29/30
f 23/25/24 24/28/28 2/29/30
f 2/29/30 24/28/28 3/31/31
f 24/28/32 21/27/33 47/32/34
f 47/32/34 21/27/33 46/22/22
f 3/31/35 24/28/32 43/33/36
f 43/33/36 24/28/32 47/32/34
f 12/10/37 25/34/38 41/18/18
f 25/34/38 18/19/19 41/18/18
f 25/34/38 12/10/37 6/35/39
f 6/35/39 12/10/37 9/9/40
f 22/26/41 48/36/42 19/23/43
f 19/23/43 48/36/42 44/21/20
f 1/30/44 42/37/45 22/26/41
f 22/26/41 42/37/45 48/36/42
f 16/17/17 26/38/46 39/14/16
f 39/14/16 26/38/46 10/8/47
f 26/38/46 4/39/48 10/8/47
f 10/8/47 4/39/48 7/5/49
f 5/40/50 4/39/51 49/41/52
f 49/41/52 4/39/51 42/37/53
f 5/40/50 49/41/52 6/35/54
f 6/35/54 49/41/52 43/33/55
f 30/42/56 28/43/57 29/44/58
f 29/44/59 32/45/60 27/6/5
f 27/6/5 32/45/60 9/9/9
f 34/46/61 31/47/62 33/48/63
f 33/48/63 38/49/64 28/43/57
f 28/43/57 38/49/64 32/45/65
f 7/5/7 30/42/66 27/6/5
f 27/6/5 30/42/66 29/44/59
f 8/3/3 31/47/62 35/1/1
f 35/1/1 31/47/62 34/46/61
f 8/3/3 37/4/4 31/47/62
f 31/47/62 37/4/4 38/49/64
f 28/43/57 32/45/65 29/44/58
f 30/42/56 34/46/61 28/43/57
f 28/43/57 34/46/61 33/48/63
f 35/1/1 34/46/61 7/5/49
f 7/5/49 34/46/61 30/42/56
f 35/1/1 5/40/67 36/2/68
f 37/4/4 6/35/39 9/9/40
f 37/4/4 9/9/40 38/49/64
f 38/49/64 9/9/40 32/45/65
f 31/47/62 38/49/64 33/48/63
f 4/39/48 35/1/1 7/5/49
f 5/40/67 37/4/4 36/2/68
f 39/14/16 10/8/47 13/12/69
f 14/11/70 40/15/14 13/12/69
f 13/12/69 40/15/14 39/14/16
f 15/13/71 41/18/18 14/11/70
f 14/11/70 41/18/18 40/15/14
f 12/10/37 41/18/18 15/13/71
f 4/39/48 5/40/67 35/1/1
f 5/40/67 6/35/39 37/4/4
f 45/20/21 20/24/72 44/21/20
f 44/21/20 20/24/72 19/23/43
f 45/20/21 46/22/22 20/24/72
f 20/24/72 46/22/22 21/27/33
f 18/19/19 25/34/38 46/22/22
f 47/32/34 46/22/22 25/34/38
f 43/33/36 47/32/34 6/35/39
f 6/35/39 47/32/34 25/34/38
f 44/21/20 48/36/42 16/17/17
f 16/17/17 48/36/42 26/38/46
f 48/36/42 42/37/45 26/38/46
f 26/38/46 42/37/45 4/39/48
f 49/41/52 42/37/53 2/29/73
f 2/29/73 42/37/53 1/30/74
f 49/41/52 2/29/73 43/33/55
f 43/33/55 2/29/73 3/31/75
