# This file uses centimeters as units for non-parametric coordinates.

v 0.070073 -0.083195 0.164570
v 0.036580 -0.075339 0.034289
v 0.066915 0.062077 0.195492
v 0.020965 0.092902 0.036602
v -0.035989 0.077717 0.195454
v -0.078866 0.074316 0.049141
v -0.062914 -0.067102 0.194841
v -0.081101 -0.066952 0.032410
v -0.075759 -0.082492 0.097993
v -0.070912 0.088223 0.090339
v 0.001988 0.094070 0.103202
v 0.022518 -0.079103 0.100918
v 0.017947 0.104682 0.118748
v 0.028980 0.141390 0.066445
v -0.042968 0.133978 0.091157
v -0.050809 0.141571 0.124511
v 0.016958 0.103041 0.152314
v 0.056920 0.163549 0.135665
v -0.010890 0.173494 0.144456
v -0.024691 0.127167 0.155327
v -0.054679 -0.013830 -0.052143
v 0.019776 -0.021695 -0.059552
v -0.073231 0.060913 -0.037587
v 0.015797 0.064203 -0.051057
v -0.090376 -0.091443 0.136151
v -0.060939 0.085015 0.148886
v 0.087743 0.082724 0.145027
v 0.082604 -0.085485 0.119294
v 0.037198 0.012123 -0.063740
v -0.077445 0.012593 -0.053198
v -0.097869 0.006903 0.041131
v -0.093567 0.010758 0.104015
v -0.099189 0.011146 0.153206
v -0.060926 0.008689 0.209670
v 0.083064 -0.006374 0.193431
v 0.106917 0.008801 0.132234
v 0.013093 0.009496 0.105618
v 0.031469 0.012497 0.031170
v -0.010277 0.118817 0.154285
v -0.009991 0.119671 0.121090
v -0.023798 0.098749 0.127178
v 0.002951 0.091894 0.143365
v 0.023432 0.082560 0.200030
v 0.009004 -0.002414 0.223481
v -0.008202 -0.095165 0.181472
v -0.023278 -0.108276 0.130091
v -0.035943 -0.084551 0.101884
v -0.031839 -0.081035 0.033723
v -0.027059 -0.030224 -0.055466
v -0.026256 0.012376 -0.058062
v -0.023690 0.062589 -0.041933
v -0.026547 0.090083 0.035180
v -0.007123 0.147143 0.065661
v 0.016047 0.178827 0.137476
v -0.076851 0.070403 0.012023
v -0.094100 0.008830 0.007087
v -0.072398 -0.030840 0.005757
v -0.030237 -0.045164 0.004377
v 0.030343 -0.037263 0.000777
v 0.032989 0.012397 0.005983
v 0.018639 0.073385 0.003086
v -0.025579 0.071981 0.008660
v -0.016996 0.152995 0.149267
v 0.013805 0.145864 0.162928
v 0.048291 0.130116 0.161111
v 0.022355 0.119348 0.097851
vt 0.408125 0.174143
vt 0.578178 0.178867
vt 0.332912 0.813600
vt 0.547569 0.824234
vt 0.612763 0.959973
vt 0.539303 0.966144
vt 0.565550 0.955776
vt 0.643583 0.938735
vt 0.472801 0.763786
vt 0.357485 0.731733
vt 0.333566 0.626545
vt 0.505656 0.651328
vt 0.675839 0.513868
vt 0.681036 0.537090
vt 0.635745 0.502708
vt 0.638670 0.489942
vt 0.429507 0.121811
vt 0.457859 0.122672
vt 0.120338 0.733001
vt 0.143096 0.761257
vt 0.757720 0.670522
vt 0.671304 0.826610
vt 0.659292 0.803488
vt 0.790048 0.655769
vt 0.578899 0.774119
vt 0.595909 0.656183
vt 0.600175 0.827919
vt 0.534002 0.809912
vt 0.560604 0.817833
vt 0.616168 0.349693
vt 0.513773 0.501397
vt 0.520462 0.486457
vt 0.399019 0.324455
vt 0.418661 0.913401
vt 0.333466 0.783452
vt 0.433071 0.897638
vt 0.514364 0.878242
vt 0.465005 0.871149
vt 0.533434 0.825747
vt 0.524708 0.832785
vt 0.606164 0.916007
vt 0.584556 0.941440
vt 0.585547 0.831397
vt 0.583393 0.843312
vt 0.462845 0.500411
vt 0.461372 0.487242
vt 0.268593 0.705751
vt 0.266098 0.617927
vt 0.288367 0.762701
vt 0.281708 0.752080
vt 0.227218 0.197522
vt 0.690428 0.766799
vt 0.810173 0.609182
vt 0.767370 0.534318
vt 0.743345 0.513369
vt 0.457280 0.145996
vt 0.439126 0.145858
vt 0.370330 0.503345
vt 0.282949 0.509347
vt 0.511840 0.486749
vt 0.631365 0.487057
vt 0.798849 0.530518
vt 0.586034 0.853308
vt 0.118581 0.544216
vt 0.094192 0.627338
vt 0.092774 0.672683
vt 0.258569 0.341589
vt 0.395437 0.379288
vt 0.488624 0.422050
vt 0.325548 0.468541
vt 0.257052 0.441191
vt 0.647762 0.176257
vt 0.684511 0.244508
vt 0.073457 0.211496
vt 0.094768 0.326742
vt 0.068750 0.068445
vt 0.266495 0.035663
vt 0.377103 0.033342
vt 0.546962 0.038045
vt 0.674258 0.048848
vt 0.869868 0.163301
vt 0.832325 0.064700
vt 0.824439 0.247416
vt 0.329068 0.348131
vt 0.269655 0.392339
vt 0.469135 0.106646
vt 0.457041 0.099047
vt 0.479419 0.145853
vt 0.482200 0.123411
vt 0.684685 0.553391
vt 0.631225 0.511306
vt 0.506323 0.512247
vt 0.461082 0.509699
vt 0.369250 0.498599
vt 0.372649 0.504720
vt 0.365940 0.488509
vt 0.436061 0.102275
vn 0.994278 0.091048 0.055871
vn 0.910772 0.278993 -0.304396
vn 0.871409 0.136815 -0.471092
vn 0.971991 0.019009 0.234249
vn 0.739684 -0.367620 0.563669
vn 0.895984 0.365664 0.251997
vn -0.036381 0.252266 0.966974
vn 0.135725 0.985190 0.104787
vn -0.875616 0.453719 0.165636
vn -0.821831 0.554069 -0.132674
vn -0.995732 0.089369 -0.023048
vn -0.993496 -0.004212 -0.113792
vn 0.537645 -0.555716 -0.634127
vn -0.036630 -0.991587 -0.124153
vn 0.377834 -0.784530 -0.491686
vn -0.035935 -0.944937 -0.325275
vn 0.662226 0.016645 -0.749119
vn -0.115520 0.104208 -0.987824
vn 0.454289 0.628354 -0.631500
vn -0.115819 0.823703 -0.555067
vn 0.709117 -0.108229 0.696734
vn 0.623410 0.316900 0.714797
vn 0.095999 -0.079872 0.992172
vn 0.125201 0.760809 0.636785
vn -0.624299 0.719741 0.303684
vn -0.948285 0.123449 0.292431
vn 0.563801 0.804300 -0.187696
vn 0.032961 0.982400 0.183860
vn 0.036283 0.622383 0.781871
vn 0.992411 0.025650 -0.120261
vn -0.042258 -0.939302 -0.340479
vn 0.790353 -0.526471 -0.313321
vn 0.862630 -0.498157 -0.087805
vn 0.706372 0.460967 -0.537167
vn -0.227647 0.777846 -0.585775
vn -0.208392 0.755638 -0.620955
vn -0.639192 0.671726 -0.374456
vn -0.781898 0.230371 0.579280
vn -0.285439 -0.838490 0.464176
vn 0.351881 -0.924542 0.146298
vn -0.464851 0.825872 0.319139
vn -0.382542 0.263346 0.885613
vn 0.141694 -0.874007 0.464795
vn -0.366441 -0.491014 0.790333
vn -0.150854 -0.785052 -0.600780
vn 0.735516 -0.587114 -0.338103
vn -0.657894 0.716063 -0.233303
vn -0.982136 -0.045443 -0.182603
vn 0.505556 0.807878 -0.302898
vn -0.062450 0.936735 -0.344423
vn 0.998796 0.048518 -0.007236
vn -0.290765 0.685824 0.667159
vn -0.607600 0.174226 0.774898
vn 0.024276 -0.760297 0.649121
vn 0.560442 -0.650943 0.512034
vn -0.121827 -0.718581 -0.684689
vn 0.545134 -0.461399 -0.699957
vn -0.710291 -0.549454 -0.439985
vn -0.694850 -0.567829 -0.441310
vn -0.553197 -0.806351 -0.209216
vn -0.728835 -0.679492 -0.084203
vn -0.478932 -0.504989 0.718060
vn -0.575600 -0.490099 0.654589
vn -0.415443 -0.586905 -0.694946
vn -0.674696 -0.178704 -0.716136
vn -0.477015 0.662022 -0.578087
f 38/2/1 4/30/2 37/1/3
f 37/1/3 4/30/2 11/33/4
f 65/5/5 18/6/6 64/8/7
f 64/8/7 18/6/6 54/7/8
f 10/9/9 6/10/10 32/12/11
f 32/12/11 6/10/10 31/11/12
f 28/13/13 46/14/14 12/16/15
f 12/16/15 46/14/14 47/15/16
f 29/17/17 50/18/18 24/57/19
f 24/57/19 50/18/18 51/56/20
f 35/21/21 3/22/22 44/24/23
f 44/24/23 3/22/22 43/23/24
f 10/9/9 32/12/11 26/25/25
f 26/25/25 32/12/11 33/26/26
f 27/27/27 11/4/4 42/29/28
f 42/29/28 11/4/4 41/28/29
f 36/51/30 37/1/3 27/67/27
f 27/67/27 37/1/3 11/33/4
f 47/15/16 48/31/31 12/16/15
f 12/16/15 48/31/31 2/32/32
f 66/68/33 4/30/2 14/69/34
f 52/35/35 53/36/36 4/3/2
f 4/3/2 53/36/36 14/34/34
f 6/10/10 10/9/9 15/38/37
f 15/38/37 10/9/9 16/37/38
f 41/28/29 11/4/4 40/40/39
f 40/40/39 11/4/4 13/39/40
f 14/69/34 18/70/6 66/68/33
f 66/68/33 18/70/6 65/71/5
f 53/36/36 54/7/8 14/34/34
f 14/34/34 54/7/8 18/6/6
f 15/38/37 16/37/38 19/42/41
f 19/42/41 16/37/38 63/41/42
f 13/39/40 17/43/43 40/40/39
f 40/40/39 17/43/43 39/44/44
f 48/31/31 58/45/45 2/32/32
f 2/32/32 58/45/45 59/46/46
f 6/10/10 55/47/47 31/11/12
f 31/11/12 55/47/47 56/48/48
f 4/3/2 61/49/49 52/35/35
f 52/35/35 61/49/49 62/50/50
f 4/30/2 38/2/1 61/73/49
f 61/73/49 38/2/1 60/72/51
f 5/52/52 26/25/25 34/53/53
f 34/53/53 26/25/25 33/26/26
f 3/22/22 27/27/27 43/23/24
f 43/23/24 27/27/27 42/29/28
f 35/74/21 36/51/30 3/75/22
f 3/75/22 36/51/30 27/67/27
f 45/54/54 46/14/14 1/55/55
f 1/55/55 46/14/14 28/13/13
f 49/87/56 50/18/18 22/97/57
f 22/97/57 50/18/18 29/17/17
f 8/58/58 31/11/12 57/59/59
f 57/59/59 31/11/12 56/48/48
f 31/11/12 8/58/58 32/12/11
f 32/12/11 8/58/58 9/60/60
f 33/26/26 32/12/11 25/61/61
f 25/61/61 32/12/11 9/60/60
f 34/53/53 33/26/26 7/62/62
f 7/62/62 33/26/26 25/61/61
f 35/21/21 44/24/23 1/55/55
f 1/55/55 44/24/23 45/54/54
f 28/77/13 36/51/30 1/76/55
f 1/76/55 36/51/30 35/74/21
f 12/78/15 37/1/3 28/77/13
f 28/77/13 37/1/3 36/51/30
f 12/78/15 2/79/32 37/1/3
f 37/1/3 2/79/32 38/2/1
f 60/72/51 38/2/1 59/80/46
f 59/80/46 38/2/1 2/79/32
f 16/37/38 40/40/39 20/63/63
f 20/63/63 40/40/39 39/44/44
f 10/9/9 41/28/29 16/37/38
f 16/37/38 41/28/29 40/40/39
f 42/29/28 41/28/29 26/25/25
f 26/25/25 41/28/29 10/9/9
f 43/23/24 42/29/28 5/52/52
f 5/52/52 42/29/28 26/25/25
f 43/23/24 5/52/52 44/24/23
f 44/24/23 5/52/52 34/53/53
f 45/54/54 44/24/23 7/62/62
f 7/62/62 44/24/23 34/53/53
f 25/90/61 46/14/14 7/62/62
f 7/62/62 46/14/14 45/54/54
f 46/14/14 25/90/61 47/15/16
f 47/15/16 25/90/61 9/91/60
f 47/15/16 9/91/60 48/31/31
f 48/31/31 9/91/60 8/92/58
f 48/31/31 8/92/58 58/45/45
f 58/45/45 8/92/58 57/93/59
f 49/87/56 21/86/64 50/18/18
f 50/18/18 21/86/64 30/89/65
f 51/56/20 50/18/18 23/88/66
f 23/88/66 50/18/18 30/89/65
f 6/10/10 52/35/35 55/47/47
f 55/47/47 52/35/35 62/50/50
f 53/36/36 52/35/35 15/38/37
f 15/38/37 52/35/35 6/10/10
f 54/7/8 53/36/36 19/42/41
f 19/42/41 53/36/36 15/38/37
f 54/7/8 19/42/41 64/8/7
f 64/8/7 19/42/41 63/41/42
f 55/47/47 23/66/66 56/48/48
f 56/48/48 23/66/66 30/65/65
f 56/48/48 30/65/65 57/59/59
f 57/59/59 30/65/65 21/64/64
f 49/94/56 58/45/45 21/95/64
f 21/95/64 58/45/45 57/93/59
f 58/45/45 49/94/56 59/46/46
f 59/46/46 49/94/56 22/96/57
f 29/81/17 60/72/51 22/82/57
f 22/82/57 60/72/51 59/80/46
f 61/73/49 60/72/51 24/83/19
f 24/83/19 60/72/51 29/81/17
f 62/50/50 61/49/49 51/19/20
f 51/19/20 61/49/49 24/20/19
f 55/47/47 62/50/50 23/66/66
f 23/66/66 62/50/50 51/19/20
f 63/41/42 16/37/38 20/63/63
f 64/8/7 63/41/42 39/44/44
f 39/44/44 63/41/42 20/63/63
f 65/5/5 64/8/7 17/43/43
f 17/43/43 64/8/7 39/44/44
f 13/84/40 66/68/33 17/85/43
f 17/85/43 66/68/33 65/71/5
f 4/30/2 66/68/33 11/33/4
f 11/33/4 66/68/33 13/84/40
