# This file uses centimeters as units for non-parametric coordinates.

v -0.043396 0.057113 0.055777
v 0.008974 0.060490 0.067869
v 0.076872 0.045905 0.060988
v -0.070277 0.059385 -0.004795
v 0.007974 0.069740 -0.004083
v 0.097372 0.059564 -0.005295
v -0.061728 0.058282 -0.058640
v 0.009521 0.068274 -0.057008
v 0.090604 0.058958 -0.054475
v -0.077587 -0.002511 -0.065328
v 0.009521 0.003868 -0.093504
v 0.119552 -0.002241 -0.063565
v -0.059187 -0.062253 -0.067177
v 0.009737 -0.073663 -0.072104
v 0.101018 -0.064312 -0.067486
v -0.072764 -0.066226 -0.004484
v 0.007974 -0.074677 -0.002989
v 0.111609 -0.070142 -0.002989
v -0.042684 -0.062193 0.058141
v 0.009521 -0.061242 0.070233
v 0.074942 -0.062193 0.058141
v -0.056013 -0.010087 0.062201
v 0.009521 -0.010087 0.074293
v 0.087132 -0.010087 0.062202
v 0.134825 -0.005835 -0.002989
v -0.096951 -0.007699 -0.005569
v -0.061834 -0.001734 -0.080359
v 0.009521 -0.044508 -0.090363
v 0.062860 -0.002172 -0.079703
v 0.009521 0.038593 -0.080385
v -0.040811 0.032319 -0.073168
v -0.042895 -0.035517 -0.087353
v 0.053212 0.026626 -0.073597
v 0.058172 -0.049223 -0.084345
v -0.060487 0.061084 0.039814
v 0.009521 0.072139 0.045390
v 0.086346 0.060168 0.040164
v 0.109618 -0.010282 0.042822
v 0.087870 -0.072564 0.040620
v 0.009521 -0.071447 0.047229
v -0.063316 -0.063629 0.038336
v -0.081651 -0.009793 0.037736
vt 0.904975 0.912625
vt 0.902833 0.886694
vt 0.922372 0.887146
vt 0.921853 0.917595
vt 0.903971 0.857291
vt 0.921781 0.851872
vt 0.944796 0.886925
vt 0.945019 0.915384
vt 0.942176 0.853597
vt 0.186679 0.832129
vt 0.971756 0.934038
vt 0.959155 0.913506
vt 0.200582 0.833716
vt 0.961491 0.887747
vt 0.200309 0.859201
vt 0.187408 0.859612
vt 0.211540 0.893139
vt 0.200816 0.929393
vt 0.185131 0.896663
vt 0.195434 0.881412
vt 0.159708 0.858314
vt 0.160071 0.826473
vt 0.159399 0.899525
vt 0.139437 0.858721
vt 0.142433 0.828813
vt 0.143405 0.891369
vt 0.134406 0.835923
vt 0.129232 0.858707
vt 0.106448 0.858587
vt 0.114847 0.816696
vt 0.134022 0.887959
vt 0.114689 0.908622
vt 0.128074 0.923168
vt 0.159595 0.928824
vt 0.980913 0.888663
vt 0.960711 0.865152
vt 0.875309 0.930680
vt 0.131616 0.800488
vt 0.161108 0.801555
vt 0.201267 0.804335
vt 0.211384 0.814353
vt 0.220006 0.859760
vt 0.867175 0.889395
vt 0.894141 0.887146
vt 0.897427 0.908333
vt 0.875315 0.840791
vt 0.894326 0.858826
vt 0.888280 0.826840
vt 0.919030 0.820908
vt 0.959753 0.819956
vt 0.891814 0.946830
vt 0.921045 0.946073
vt 0.961628 0.944064
vt 0.970759 0.855445
vn 0.009914 0.947176 0.320562
vn -0.007732 0.999603 -0.027089
vn -0.557530 0.721526 0.410562
vn -0.772716 0.634651 0.011341
vn 0.509293 0.799255 0.319079
vn 0.703576 0.707332 0.068286
vn 0.019711 0.771779 -0.635586
vn -0.421677 0.744613 -0.517436
vn 0.353140 0.708696 -0.610771
vn -0.448997 0.187423 -0.873656
vn -0.274151 0.419796 -0.865224
vn 0.018055 0.187475 -0.982103
vn 0.039759 0.490947 -0.870282
vn 0.222779 0.392358 -0.892426
vn -0.491421 -0.733296 -0.469875
vn -0.329615 -0.255052 -0.909012
vn -0.036241 -0.780089 -0.624618
vn 0.046186 -0.230408 -0.971997
vn 0.838199 0.114382 -0.533235
vn 0.411173 -0.628774 -0.659985
vn 0.260398 0.127090 -0.957101
vn 0.178027 -0.264562 -0.947794
vn -0.038451 -0.999254 -0.003671
vn -0.756888 -0.653534 -0.003795
vn 0.747912 -0.660527 0.065826
vn -0.527124 -0.748707 0.401967
vn -0.040086 -0.957869 0.284395
vn 0.388084 -0.828232 0.404256
vn -0.017378 -0.582405 0.812713
vn -0.026375 -0.004520 0.999642
vn -0.304005 -0.549434 0.778270
vn -0.531651 -0.012202 0.846876
vn 0.335276 -0.462367 0.820857
vn 0.417652 -0.035374 0.907918
vn -0.316863 0.496755 0.807981
vn -0.011486 0.556545 0.830738
vn 0.396893 0.414758 0.818811
vn 0.820813 0.012490 0.571061
vn 0.986857 0.088161 0.135430
vn -0.896641 -0.016477 0.442451
vn -0.999888 -0.006333 0.013564
vn -0.834272 0.039160 -0.549961
f 36/2/1 5/3/2 35/1/3
f 35/1/3 5/3/2 4/4/4
f 36/2/1 37/5/5 5/3/2
f 5/3/2 37/5/5 6/6/6
f 8/7/7 7/8/8 5/3/2
f 5/3/2 7/8/8 4/4/4
f 8/7/7 5/3/2 9/9/9
f 9/9/9 5/3/2 6/6/6
f 27/11/10 31/12/11 11/35/12
f 11/35/12 31/12/11 30/14/13
f 9/9/9 33/36/14 8/7/7
f 8/7/7 33/36/14 30/14/13
f 13/10/15 32/13/16 14/16/17
f 14/16/17 32/13/16 28/15/18
f 12/18/19 15/19/20 29/17/21
f 29/17/21 15/19/20 34/20/22
f 14/16/17 17/21/23 13/10/15
f 13/10/15 17/21/23 16/22/24
f 14/16/17 15/19/20 17/21/23
f 17/21/23 15/19/20 18/23/25
f 16/22/24 17/21/23 41/25/26
f 41/25/26 17/21/23 40/24/27
f 18/23/25 39/26/28 17/21/23
f 17/21/23 39/26/28 40/24/27
f 20/28/29 23/29/30 19/27/31
f 19/27/31 23/29/30 22/30/32
f 20/28/29 21/31/33 23/29/30
f 23/29/30 21/31/33 24/32/34
f 22/37/32 23/43/30 1/45/35
f 1/45/35 23/43/30 2/44/36
f 24/46/34 3/47/37 23/43/30
f 23/43/30 3/47/37 2/44/36
f 39/26/28 18/23/25 38/33/38
f 38/33/38 18/23/25 25/34/39
f 37/5/5 38/48/38 6/6/6
f 6/6/6 38/48/38 25/49/39
f 15/19/20 12/18/19 18/23/25
f 18/23/25 12/18/19 25/34/39
f 9/9/9 6/6/6 12/50/19
f 12/50/19 6/6/6 25/49/39
f 41/25/26 42/38/40 16/22/24
f 16/22/24 42/38/40 26/39/41
f 35/1/3 4/4/4 42/51/40
f 42/51/40 4/4/4 26/52/41
f 13/10/15 16/22/24 10/40/42
f 10/40/42 16/22/24 26/39/41
f 7/8/8 10/53/42 4/4/4
f 4/4/4 10/53/42 26/52/41
f 27/41/10 11/42/12 32/13/16
f 32/13/16 11/42/12 28/15/18
f 11/42/12 29/17/21 28/15/18
f 28/15/18 29/17/21 34/20/22
f 30/14/13 33/36/14 11/35/12
f 11/35/12 33/36/14 29/54/21
f 7/8/8 31/12/11 10/53/42
f 10/53/42 31/12/11 27/11/10
f 7/8/8 8/7/7 31/12/11
f 31/12/11 8/7/7 30/14/13
f 27/41/10 32/13/16 10/40/42
f 10/40/42 32/13/16 13/10/15
f 33/36/14 9/9/9 29/54/21
f 29/54/21 9/9/9 12/50/19
f 15/19/20 14/16/17 34/20/22
f 34/20/22 14/16/17 28/15/18
f 2/44/36 36/2/1 1/45/35
f 1/45/35 36/2/1 35/1/3
f 2/44/36 3/47/37 36/2/1
f 36/2/1 3/47/37 37/5/5
f 24/46/34 38/48/38 3/47/37
f 3/47/37 38/48/38 37/5/5
f 24/32/34 21/31/33 38/33/38
f 38/33/38 21/31/33 39/26/28
f 39/26/28 21/31/33 40/24/27
f 40/24/27 21/31/33 20/28/29
f 41/25/26 40/24/27 19/27/31
f 19/27/31 40/24/27 20/28/29
f 19/27/31 22/30/32 41/25/26
f 41/25/26 22/30/32 42/38/40
f 1/45/35 35/1/3 22/37/32
f 22/37/32 35/1/3 42/51/40
