# This file uses centimeters as units for non-parametric coordinates.

v -0.028454 0.065101 0.041069
v -0.004454 0.065611 0.041069
v 0.024501 0.044339 0.041072
v -0.052974 -0.017459 0.040761
v -0.017546 -0.037624 0.040761
v 0.014603 -0.031169 0.041069
v 0.038049 0.010650 0.041071
v -0.008497 0.019771 0.080559
v -0.013574 -0.016881 0.067965
v -0.037669 -0.005217 0.067933
v -0.038336 0.024564 0.068194
v -0.020495 0.048596 0.068143
v -0.005078 0.050558 0.068119
v 0.017181 0.038459 0.068184
v 0.020657 0.014154 0.068208
v 0.007039 -0.012954 0.068131
v -0.043643 0.023852 0.040940
v -0.027776 0.071894 -0.093275
v -0.000045 0.072456 -0.093275
v 0.033409 0.049024 -0.093273
v -0.056106 -0.019049 -0.093495
v -0.015172 -0.041262 -0.093495
v 0.021972 -0.034151 -0.093275
v 0.049062 0.011914 -0.093274
v -0.045325 0.026457 -0.093367
v -0.006384 0.017379 -0.128900
v -0.035739 0.087196 -0.039519
v -0.000715 0.087920 -0.039544
v 0.041469 0.057791 -0.038887
v -0.071283 -0.029409 -0.036929
v -0.019839 -0.057755 -0.036315
v 0.026844 -0.048713 -0.036526
v 0.061071 0.010185 -0.037839
v -0.057820 0.028820 -0.038221
vt 0.078608 0.769061
vt 0.079234 0.788554
vt 0.070257 0.787787
vt 0.067742 0.769498
vt 0.379651 0.691725
vt 0.368543 0.689246
vt 0.381020 0.662623
vt 0.364778 0.707609
vt 0.337144 0.699309
vt 0.044516 0.802667
vt 0.028278 0.776799
vt 0.353751 0.673388
vt 0.378377 0.710605
vt 0.393182 0.691456
vt 0.394353 0.709603
vt 0.408467 0.675208
vt 0.413861 0.700791
vt 0.050497 0.772983
vt 0.056669 0.790916
vt 0.099759 0.801467
vt 0.388126 0.775519
vt 0.376078 0.772300
vt 0.366400 0.774994
vt 0.350736 0.791936
vt 0.399172 0.796127
vt 0.372263 0.806090
vt 0.072016 0.814292
vt 0.103668 0.774786
vt 0.060124 0.706192
vt 0.065360 0.705366
vt 0.050971 0.701490
vt 0.040094 0.689701
vt 0.071521 0.688617
vt 0.059194 0.676270
vt 0.070180 0.727832
vt 0.062696 0.728662
vt 0.049786 0.727892
vt 0.390925 0.750518
vt 0.377373 0.747844
vt 0.365326 0.748915
vt 0.035221 0.725624
vt 0.345130 0.753732
vt 0.405209 0.756946
vt 0.084733 0.724030
vn -0.545870 0.751827 0.369840
vn -0.414936 0.627406 0.658931
vn 0.269287 0.881867 0.387034
vn 0.226607 0.701876 0.675292
vn -0.029707 -0.628671 0.777104
vn 0.453664 -0.464244 0.760702
vn 0.010880 0.027922 0.999551
vn 0.912327 -0.110277 0.394332
vn 0.748186 0.561861 0.352889
vn 0.722352 -0.008867 0.691469
vn 0.580714 0.403202 0.707247
vn 0.414389 -0.799681 0.434503
vn -0.624622 -0.313114 0.715407
vn -0.191417 -0.859997 0.473037
vn -0.853579 -0.363761 0.372937
vn -0.734742 0.235794 0.636046
vn -0.922836 0.279071 0.265504
vn 0.189851 0.981813 0.000464
vn -0.581496 0.813315 -0.019507
vn 0.783518 0.620836 0.025756
vn -0.206181 -0.978244 0.022967
vn -0.914949 -0.403074 -0.020016
vn 0.582530 -0.812804 0.002970
vn 0.985874 -0.166547 -0.017767
vn -0.956922 0.289694 -0.019425
vn 0.645947 0.521601 -0.557391
vn -0.008133 0.056364 -0.998377
vn 0.318043 0.791981 -0.521167
vn -0.053896 -0.831332 -0.553156
vn -0.775912 -0.325687 -0.540267
vn -0.821685 0.256039 -0.509193
vn -0.504147 0.686984 -0.523344
vn 0.857943 0.044482 -0.511816
vn 0.566183 -0.630924 -0.530445
f 1/1/1 12/2/2 2/4/3
f 2/4/3 12/2/2 13/3/4
f 9/5/5 16/6/6 8/7/7
f 7/11/8 3/18/9 15/10/10
f 15/10/10 3/18/9 14/19/11
f 14/19/11 3/18/9 13/3/4
f 13/3/4 3/18/9 2/4/3
f 6/8/12 7/9/8 16/6/6
f 16/6/6 7/9/8 15/12/10
f 9/5/5 10/14/13 5/13/14
f 5/13/14 10/14/13 4/15/15
f 9/5/5 8/7/7 10/14/13
f 11/16/16 10/14/13 8/7/7
f 12/2/2 11/20/16 8/27/7
f 13/3/4 12/2/2 8/27/7
f 8/27/7 14/19/11 13/3/4
f 8/27/7 15/10/10 14/19/11
f 16/6/6 15/12/10 8/7/7
f 16/6/6 9/5/5 6/8/12
f 6/8/12 9/5/5 5/13/14
f 4/15/15 10/14/13 17/17/17
f 17/17/17 10/14/13 11/16/16
f 1/1/1 17/28/17 12/2/2
f 12/2/2 17/28/17 11/20/16
f 2/4/3 28/36/18 1/1/1
f 1/1/1 28/36/18 27/35/19
f 3/18/9 29/37/20 2/4/3
f 2/4/3 29/37/20 28/36/18
f 5/13/14 4/15/15 31/39/21
f 31/39/21 4/15/15 30/38/22
f 5/13/14 31/39/21 6/8/12
f 6/8/12 31/39/21 32/40/23
f 6/8/12 32/40/23 7/9/8
f 7/9/8 32/40/23 33/42/24
f 3/18/9 7/11/8 29/37/20
f 29/37/20 7/11/8 33/41/24
f 17/17/17 34/43/25 4/15/15
f 4/15/15 34/43/25 30/38/22
f 17/28/17 1/1/1 34/44/25
f 34/44/25 1/1/1 27/35/19
f 20/31/26 26/34/27 19/29/28
f 22/22/29 21/21/30 26/26/27
f 26/26/27 21/21/30 25/25/31
f 26/34/27 25/33/31 18/30/32
f 26/34/27 18/30/32 19/29/28
f 24/32/33 26/34/27 20/31/26
f 23/23/34 26/26/27 24/24/33
f 22/22/29 26/26/27 23/23/34
f 27/35/19 28/36/18 18/30/32
f 18/30/32 28/36/18 19/29/28
f 28/36/18 29/37/20 19/29/28
f 19/29/28 29/37/20 20/31/26
f 30/38/22 21/21/30 31/39/21
f 31/39/21 21/21/30 22/22/29
f 31/39/21 22/22/29 32/40/23
f 32/40/23 22/22/29 23/23/34
f 32/40/23 23/23/34 33/42/24
f 33/42/24 23/23/34 24/24/33
f 33/41/24 24/32/33 29/37/20
f 29/37/20 24/32/33 20/31/26
f 30/38/22 34/43/25 21/21/30
f 21/21/30 34/43/25 25/25/31
f 27/35/19 18/30/32 34/44/25
f 34/44/25 18/30/32 25/33/31
