# This file uses centimeters as units for non-parametric coordinates.

v -0.081395 0.091363 0.113074
v 0.013085 0.164306 0.112398
v 0.108870 0.091363 0.113075
v -0.073227 0.096387 0.019930
v 0.011223 0.121461 0.015017
v 0.103079 0.100600 0.017870
v -0.049540 0.053245 -0.082200
v 0.067133 0.055110 -0.082200
v -0.053292 -0.001122 -0.082201
v 0.004026 -0.009960 -0.133481
v 0.078157 -0.000235 -0.082200
v -0.034706 -0.040714 -0.082200
v 0.005788 -0.050016 -0.082200
v 0.078284 -0.041920 -0.082200
v -0.051607 -0.079936 0.006618
v 0.015698 -0.102237 0.022568
v 0.109916 -0.083024 0.012502
v -0.058423 -0.082101 0.113088
v 0.013085 -0.110153 0.112412
v 0.077046 -0.102264 0.113088
v -0.070667 -0.028179 0.113304
v 0.013085 -0.013702 0.112627
v 0.100735 -0.013702 0.113304
v 0.115828 -0.001703 0.018410
v -0.088796 -0.012800 0.011959
v 0.006360 0.055805 -0.082200
vt 0.888843 0.496398
vt 0.915913 0.565917
vt 0.123666 0.628810
vt 0.101845 0.677181
vt 0.859469 0.520624
vt 0.102960 0.628078
vt 0.048506 0.639869
vt 0.067653 0.623455
vt 0.100257 0.567992
vt 0.124394 0.574014
vt 0.069042 0.569828
vt 0.100466 0.534989
vt 0.128788 0.525633
vt 0.079494 0.534334
vt 0.098202 0.507564
vt 0.153239 0.505648
vt 0.041624 0.505988
vt 0.043359 0.568503
vt 0.918826 0.500365
vt 0.950278 0.495492
vt 0.857349 0.365299
vt 0.151733 0.572748
vt 0.920538 0.363082
vt 0.147047 0.640031
vt 0.922690 0.414554
vt 0.897327 0.406688
vt 0.987964 0.362209
vt 0.949977 0.403207
vt 0.986638 0.433459
vt 0.950006 0.436785
vt 0.980520 0.520437
vt 0.895226 0.439262
vt 0.855735 0.440052
vt 0.921547 0.441494
vn -0.579345 0.515036 -0.631742
vn -0.052595 -0.081974 -0.995246
vn -0.812473 -0.155875 -0.561775
vn -0.012567 0.731066 -0.682191
vn 0.518912 0.536389 -0.665595
vn -0.591024 -0.609007 -0.528962
vn -0.078718 -0.855742 -0.511380
vn 0.784355 0.078584 -0.615315
vn 0.571594 -0.537006 -0.620407
vn -0.047729 -0.968298 -0.245195
vn -0.640317 -0.732157 -0.232251
vn 0.810979 -0.571684 -0.124456
vn -0.506409 -0.654783 0.561079
vn -0.091465 -0.721945 0.685879
vn 0.375764 -0.680687 0.628862
vn -0.000127 0.000131 1.000000
vn -0.771285 -0.218557 0.597790
vn 0.745612 -0.104809 0.658086
vn -0.745645 0.468269 0.474065
vn -0.004610 0.745072 0.666968
vn 0.733143 0.471564 0.490029
vn 0.984688 0.032351 -0.171295
vn 0.724690 0.641171 -0.252438
vn -0.971095 -0.157531 -0.179327
vn -0.742068 0.630556 -0.227454
vn -0.023779 0.935581 -0.352311
f 7/1/1 10/2/2 9/5/3
f 26/19/4 8/20/5 10/2/2
f 12/3/6 10/4/2 13/6/7
f 10/4/2 11/7/8 14/8/9
f 16/9/10 15/10/11 13/6/7
f 13/6/7 15/10/11 12/3/6
f 17/11/12 16/9/10 14/8/9
f 14/8/9 16/9/10 13/6/7
f 15/10/11 16/9/10 18/13/13
f 18/13/13 16/9/10 19/12/14
f 17/11/12 20/14/15 16/9/10
f 16/9/10 20/14/15 19/12/14
f 19/12/14 22/15/16 18/13/13
f 18/13/13 22/15/16 21/16/17
f 19/12/14 20/14/15 22/15/16
f 22/15/16 20/14/15 23/17/18
f 21/21/17 22/23/16 1/26/19
f 1/26/19 22/23/16 2/25/20
f 23/27/18 3/28/21 22/23/16
f 22/23/16 3/28/21 2/25/20
f 20/14/15 17/11/12 23/17/18
f 23/17/18 17/11/12 24/18/22
f 23/27/18 24/29/22 3/28/21
f 3/28/21 24/29/22 6/30/23
f 11/7/8 24/18/22 14/8/9
f 14/8/9 24/18/22 17/11/12
f 6/30/23 24/29/22 8/20/5
f 8/20/5 24/29/22 11/31/8
f 18/13/13 21/16/17 15/10/11
f 15/10/11 21/16/17 25/22/24
f 21/21/17 1/26/19 25/33/24
f 25/33/24 1/26/19 4/32/25
f 15/10/11 25/22/24 12/3/6
f 12/3/6 25/22/24 9/24/3
f 4/32/25 7/1/1 25/33/24
f 25/33/24 7/1/1 9/5/3
f 4/32/25 1/26/19 5/34/26
f 5/34/26 1/26/19 2/25/20
f 6/30/23 5/34/26 3/28/21
f 3/28/21 5/34/26 2/25/20
f 6/30/23 8/20/5 5/34/26
f 5/34/26 8/20/5 26/19/4
f 4/32/25 5/34/26 7/1/1
f 7/1/1 5/34/26 26/19/4
f 7/1/1 26/19/4 10/2/2
f 10/2/2 8/20/5 11/31/8
f 10/4/2 14/8/9 13/6/7
f 9/24/3 10/4/2 12/3/6
