# This file uses centimeters as units for non-parametric coordinates.

v 0.042380 0.038588 0.146537
v 0.079320 0.046026 0.113404
v 0.094918 0.044538 0.076713
v -0.033720 0.047254 -0.000933
v 0.006110 0.083844 0.016285
v 0.054731 0.056799 0.016771
v -0.037272 -0.040994 -0.010719
v -0.011465 -0.046944 -0.028636
v 0.028908 -0.047773 -0.008893
v 0.034399 -0.061767 0.124758
v 0.069726 -0.060958 0.125205
v 0.072920 -0.053378 0.081451
v 0.022336 -0.018137 0.143831
v 0.085132 -0.022867 0.130567
v 0.089981 -0.012880 0.073486
v -0.044310 -0.010004 -0.006044
v -0.025093 -0.017325 0.075364
v -0.004426 0.047153 0.072108
v 0.013134 0.061140 0.063263
v 0.061722 0.032243 0.061217
v 0.038690 -0.025877 0.062522
v 0.033601 -0.066763 0.025681
v 0.001964 -0.070048 0.029416
v -0.017775 -0.062995 0.046728
v 0.066080 0.055045 0.085115
v 0.080996 0.038223 0.078761
v 0.091008 0.062274 0.049745
v 0.076513 0.077731 0.069438
v 0.033646 -0.005679 0.002044
v -0.015923 -0.002563 -0.039443
v 0.097600 0.024777 0.138031
v 0.046597 0.032396 0.008210
v -0.012360 0.023476 -0.031605
v 0.056946 0.060543 0.077576
v 0.047683 0.092062 0.039035
v 0.075162 0.064936 0.035844
v -0.012559 -0.017441 0.109168
v 0.062695 0.046888 0.080472
v -0.002596 -0.071357 0.093154
v 0.017623 0.046710 0.107862
v 0.037574 0.057043 0.095995
v 0.043673 -0.071322 0.074975
v 0.022648 -0.072828 0.090631
v 0.012244 -0.063201 0.112579
vt 0.653938 0.890482
vt 0.654822 0.896848
vt 0.643791 0.897275
vt 0.641756 0.885803
vt 0.637161 0.913395
vt 0.655884 0.909794
vt 0.640684 0.926510
vt 0.412776 0.879199
vt 0.640006 0.902225
vt 0.619317 0.912346
vt 0.624188 0.895485
vt 0.406777 0.878884
vt 0.409579 0.869019
vt 0.621962 0.955250
vt 0.628197 0.968855
vt 0.411370 0.870994
vt 0.649547 0.944391
vt 0.659795 0.961851
vt 0.648644 0.982749
vt 0.420377 0.924788
vt 0.402998 0.893516
vt 0.681022 0.969804
vt 0.428872 0.904018
vt 0.386889 0.929867
vt 0.675833 0.956456
vt 0.377627 0.950986
vt 0.720088 0.923578
vt 0.696501 0.926582
vt 0.360346 0.953912
vt 0.683649 0.911214
vt 0.707826 0.903379
vt 0.665529 0.891538
vt 0.692301 0.878549
vt 0.674998 0.931841
vt 0.658430 0.896428
vt 0.696041 0.941420
vt 0.707718 0.946475
vt 0.406010 0.870438
vt 0.359829 0.929818
vt 0.339068 0.871925
vt 0.343350 0.863026
vt 0.328321 0.861694
vt 0.345315 0.929610
vt 0.333487 0.942344
vt 0.423954 0.880452
vt 0.386516 0.858972
vt 0.399269 0.833126
vt 0.399851 0.856623
vt 0.390391 0.892965
vt 0.323798 0.902890
vt 0.337070 0.897735
vt 0.365351 0.859246
vt 0.345259 0.852493
vt 0.405929 0.873424
vt 0.397364 0.875558
vt 0.344120 0.835482
vt 0.369316 0.834273
vt 0.362152 0.876291
vt 0.388921 0.875552
vt 0.360514 0.890574
vn -0.161247 0.097127 0.982123
vn 0.353896 -0.578667 0.734780
vn 0.456242 0.762300 0.459066
vn 0.926353 -0.131912 -0.352804
vn 0.620520 0.132116 -0.772981
vn 0.867067 -0.445089 -0.223808
vn 0.702918 0.045764 -0.709797
vn -0.494908 0.076392 0.865581
vn 0.720292 0.220182 -0.657798
vn -0.188896 0.885186 -0.425164
vn 0.118336 0.992928 -0.009567
vn -0.291406 0.811277 0.506865
vn -0.872942 0.473555 -0.117125
vn -0.028350 0.363066 -0.931332
vn -0.971728 0.006668 -0.236008
vn -0.229164 -0.005882 -0.973370
vn 0.835729 -0.082761 -0.542871
vn 0.072997 -0.538311 -0.839579
vn 0.538208 -0.548666 -0.639764
vn -0.741288 -0.548370 -0.387017
vn -0.077804 0.575768 0.813903
vn 0.829773 0.301706 0.469522
vn 0.285985 0.938794 0.192040
vn -0.728759 0.564428 0.387727
vn -0.124263 -0.971202 -0.203286
vn -0.807504 -0.581421 0.099440
vn 0.815563 -0.506777 -0.279346
vn -0.423370 -0.130132 0.896562
vn -0.081648 -0.643360 0.761197
vn 0.605037 -0.334073 0.722721
vn 0.430957 -0.812308 0.392978
vn 0.687480 -0.649073 -0.325693
vn 0.729665 -0.175269 -0.660961
vn 0.623194 0.703785 -0.341051
vn 0.815413 -0.183603 -0.548992
vn -0.588227 0.644704 0.488206
vn -0.824438 0.019067 0.565631
vn -0.955037 -0.014359 0.296140
vn 0.058663 0.998273 0.003085
vn 0.333667 0.686690 -0.645850
vn 0.511975 -0.827052 -0.232092
vn 0.085603 -0.977800 0.191258
vn -0.421032 -0.650237 0.632396
vn -0.589503 -0.745089 0.311975
f 25/1/1 26/2/2 28/4/3
f 28/4/3 26/2/2 27/3/4
f 6/5/5 20/6/6 32/7/7
f 20/12/6 26/13/2 34/8/8
f 34/8/8 26/13/2 25/16/1
f 36/9/9 27/3/4 20/6/6
f 20/6/6 27/3/4 26/2/2
f 5/10/10 35/11/11 6/5/5
f 6/5/5 35/11/11 36/9/9
f 5/20/10 19/21/12 35/23/11
f 35/23/11 19/21/12 34/8/8
f 4/24/13 33/26/14 16/39/15
f 16/39/15 33/26/14 30/29/16
f 6/5/5 32/7/7 5/10/10
f 5/10/10 32/7/7 33/14/14
f 30/15/16 29/17/17 8/19/18
f 8/19/18 29/17/17 9/18/19
f 16/39/15 30/29/16 7/43/20
f 7/43/20 30/29/16 8/44/18
f 32/7/7 29/17/17 33/14/14
f 33/14/14 29/17/17 30/15/16
f 35/23/11 34/8/8 28/45/3
f 28/45/3 34/8/8 25/16/1
f 35/11/11 28/4/3 36/9/9
f 36/9/9 28/4/3 27/3/4
f 20/6/6 6/5/5 36/9/9
f 1/46/21 31/47/22 2/48/23
f 33/26/14 4/24/13 5/20/10
f 19/21/12 20/12/6 34/8/8
f 4/24/13 18/49/24 5/20/10
f 5/20/10 18/49/24 19/21/12
f 8/44/18 23/50/25 7/43/20
f 7/43/20 23/50/25 24/51/26
f 8/19/18 9/18/19 23/22/25
f 23/22/25 9/18/19 22/25/27
f 13/52/28 10/53/29 14/57/30
f 14/57/30 10/53/29 11/56/31
f 11/27/31 12/28/32 14/31/30
f 14/31/30 12/28/32 15/30/33
f 31/47/22 1/46/21 14/57/30
f 14/57/30 1/46/21 13/52/28
f 3/32/34 31/33/22 15/30/33
f 15/30/33 31/33/22 14/31/30
f 21/34/35 22/25/27 29/17/17
f 29/17/17 22/25/27 9/18/19
f 40/59/36 18/49/24 37/58/37
f 37/58/37 18/49/24 17/60/38
f 18/49/24 40/59/36 19/21/12
f 19/21/12 40/59/36 41/55/39
f 38/54/40 20/12/6 41/55/39
f 41/55/39 20/12/6 19/21/12
f 21/34/35 20/6/6 38/35/40
f 21/34/35 42/36/41 22/25/27
f 43/37/42 23/22/25 42/36/41
f 42/36/41 23/22/25 22/25/27
f 44/41/43 39/40/44 43/42/42
f 43/42/42 39/40/44 23/50/25
f 37/58/37 17/60/38 39/40/44
f 39/40/44 17/60/38 24/51/26
f 44/41/43 37/58/37 39/40/44
f 37/58/37 13/52/28 40/59/36
f 40/59/36 13/52/28 1/46/21
f 2/48/23 41/55/39 1/46/21
f 1/46/21 41/55/39 40/59/36
f 41/55/39 2/48/23 38/54/40
f 38/54/40 2/48/23 3/38/34
f 31/47/22 3/38/34 2/48/23
f 32/7/7 20/6/6 29/17/17
f 29/17/17 20/6/6 21/34/35
f 24/51/26 23/50/25 39/40/44
f 21/34/35 38/35/40 15/30/33
f 15/30/33 38/35/40 3/32/34
f 42/36/41 21/34/35 12/28/32
f 12/28/32 21/34/35 15/30/33
f 42/36/41 12/28/32 43/37/42
f 43/37/42 12/28/32 11/27/31
f 44/41/43 43/42/42 10/53/29
f 10/53/29 43/42/42 11/56/31
f 37/58/37 44/41/43 13/52/28
f 13/52/28 44/41/43 10/53/29
f 16/39/15 17/60/38 4/24/13
f 4/24/13 17/60/38 18/49/24
f 17/60/38 16/39/15 24/51/26
f 24/51/26 16/39/15 7/43/20
