# This file uses centimeters as units for non-parametric coordinates.

v -0.367348 -0.367348 0.000000
v 0.345887 -0.345887 0.000000
v 0.361747 0.361747 0.000000
v -0.389025 0.389025 0.000000
v -0.432081 0.261299 0.000000
v -0.424343 -0.258649 0.000000
v -0.226622 -0.390854 0.000000
v 0.285700 -0.393856 0.000000
v 0.389942 -0.245337 0.000000
v 0.384120 0.328057 0.000000
v -0.306866 0.412065 0.000000
v 0.297156 0.401890 0.000000
v 0.409689 0.409689 0.000000
v -0.421406 0.421406 0.000000
v -0.435965 -0.435965 0.000000
v 0.440593 -0.440593 0.000000
v -0.322984 0.456011 0.000000
v 0.312117 0.455455 0.000000
v 0.465822 0.334690 0.000000
v 0.482808 -0.272537 0.000000
v 0.301057 -0.480924 0.000000
v -0.235847 -0.476625 0.000000
v -0.488442 -0.270487 0.000000
v -0.480552 0.293545 0.000000
vt 0.132652 0.132652
vt 0.273378 0.109146
vt 0.785700 0.106144
vt 0.845887 0.154113
vt 0.889942 0.254663
vt 0.884120 0.828057
vt 0.861747 0.861747
vt 0.110975 0.889025
vt 0.067919 0.761299
vt 0.075657 0.241351
vt 0.193131 0.912065
vt 0.797156 0.901890
vt 0.064035 0.064035
vt 0.078594 0.921406
vt 0.940593 0.059407
vt 0.801055 0.019076
vt 0.264152 0.023375
vt 0.909688 0.909688
vt 0.965822 0.834690
vt 0.982808 0.227464
vt 0.177020 0.956011
vt 0.812117 0.955455
vt 0.011558 0.229513
vt 0.019447 0.793559
vn 0.000000 0.000000 1.000000
vn 0.000000 0.000000 1.000000
vn 0.000000 0.000000 1.000000
vn 0.000000 0.000000 1.000000
vn 0.000000 0.000000 1.000000
vn 0.000000 0.000000 1.000000
vn 0.000000 0.000000 1.000000
vn 0.000000 0.000000 1.000000
vn 0.000000 0.000000 1.000000
vn 0.000000 0.000000 1.000000
vn 0.000000 0.000000 1.000000
vn 0.000000 0.000000 1.000000
vn 0.000000 0.000000 1.000000
vn 0.000000 0.000000 1.000000
vn 0.000000 0.000000 1.000000
vn 0.000000 0.000000 1.000000
vn 0.000000 0.000000 1.000000
vn 0.000000 0.000000 1.000000
vn 0.000000 0.000000 1.000000
vn 0.000000 0.000000 1.000000
vn 0.000000 0.000000 1.000000
vn 0.000000 0.000000 1.000000
vn 0.000000 0.000000 1.000000
vn 0.000000 0.000000 1.000000
vn 0.000000 0.000000 1.000000
vn 0.000000 0.000000 1.000000
vn 0.000000 0.000000 1.000000
vn 0.000000 0.000000 1.000000
vn 0.000000 0.000000 1.000000
vn 0.000000 0.000000 1.000000
vn 0.000000 0.000000 1.000000
vn 0.000000 0.000000 1.000000
vn 0.000000 0.000000 1.000000
vn 0.000000 0.000000 1.000000
vn 0.000000 0.000000 1.000000
vn 0.000000 0.000000 1.000000
vn 0.000000 0.000000 1.000000
vn 0.000000 0.000000 1.000000
vn 0.000000 0.000000 1.000000
vn 0.000000 0.000000 1.000000
vn 0.000000 0.000000 1.000000
vn 0.000000 0.000000 1.000000
vn 0.000000 0.000000 1.000000
vn 0.000000 0.000000 1.000000
vn 0.000000 0.000000 1.000000
vn 0.000000 0.000000 1.000000
vn 0.000000 0.000000 1.000000
vn 0.000000 0.000000 1.000000
f 24/24/1 23/23/2 5/9/3
f 5/9/3 23/23/2 6/10/4
f 15/13/5 1/1/6 23/23/7
f 23/23/7 1/1/6 6/10/8
f 14/14/9 24/24/10 4/8/11
f 4/8/11 24/24/10 5/9/12
f 14/14/13 4/8/14 17/21/15
f 17/21/15 4/8/14 11/11/16
f 13/18/17 18/22/18 3/7/19
f 3/7/19 18/22/18 12/12/20
f 17/21/21 11/11/22 18/22/23
f 18/22/23 11/11/22 12/12/24
f 15/13/25 22/17/26 1/1/27
f 1/1/27 22/17/26 7/2/28
f 21/16/29 8/3/30 22/17/31
f 22/17/31 8/3/30 7/2/32
f 16/15/33 2/4/34 21/16/35
f 21/16/35 2/4/34 8/3/36
f 16/15/37 20/20/38 2/4/39
f 2/4/39 20/20/38 9/5/40
f 20/20/41 19/19/42 9/5/43
f 9/5/43 19/19/42 10/6/44
f 19/19/45 13/18/46 10/6/47
f 10/6/47 13/18/46 3/7/48
