# This file uses centimeters as units for non-parametric coordinates.

v -0.423837 0.500000 0.000000
v -0.500000 0.208440 0.000000
v -0.534077 -0.450071 0.000000
v 0.500000 0.205418 0.000000
v 0.427819 0.500000 0.000000
v 0.534077 -0.442846 0.000000
v -0.463291 -0.449592 0.000000
v 0.458804 -0.443356 0.000000
v 0.428239 0.301618 0.000000
v -0.426362 0.292133 0.000000
v 0.500000 -0.163238 0.000000
v 0.429047 -0.152790 0.000000
v -0.500000 -0.161117 0.000000
v -0.431050 -0.166083 0.000000
vt 0.060770 0.999538
vt 0.018191 0.946127
vt 0.018191 0.850226
vt 0.536897 0.999538
vt 0.577250 0.945574
vt 0.577250 0.851465
vt 0.055239 0.850308
vt 0.537853 0.851378
vt 0.537131 0.963196
vt 0.059359 0.961459
vt 0.537853 0.851378
vt 0.055239 0.850308
vt 0.537583 0.893181
vt 0.577250 0.891267
vt 0.018191 0.891656
vt 0.056738 0.890746
vt 0.056738 0.890746
vt 0.537583 0.893181
vn 0.000000 0.000000 1.000000
vn 0.000000 0.000000 1.000000
vn 0.000000 0.000000 1.000000
vn 0.000000 0.000000 1.000000
vn 0.000000 0.000000 1.000000
vn 0.000000 0.000000 1.000000
vn 0.000000 0.000000 1.000000
vn 0.000000 0.000000 1.000000
vn 0.000000 0.000000 1.000000
vn 0.000000 0.000000 1.000000
vn 0.000000 0.000000 1.000000
vn 0.000000 0.000000 1.000000
vn 0.000000 0.000000 1.000000
vn 0.000000 0.000000 1.000000
vn 0.000000 0.000000 1.000000
vn 0.000000 0.000000 1.000000
vn 0.000000 0.000000 1.000000
vn 0.000000 0.000000 1.000000
vn 0.000000 0.000000 1.000000
vn 0.000000 0.000000 1.000000
vn 0.000000 0.000000 1.000000
vn 0.000000 0.000000 1.000000
vn 0.000000 0.000000 1.000000
vn 0.000000 0.000000 1.000000
vn 0.000000 0.000000 1.000000
vn 0.000000 0.000000 1.000000
vn 0.000000 0.000000 1.000000
vn 0.000000 0.000000 1.000000
vn 0.000000 0.000000 1.000000
vn 0.000000 0.000000 1.000000
f 9/9/1 4/5/2 5/4/3
f 11/14/4 4/5/5 12/13/6
f 12/13/6 4/5/5 9/9/7
f 2/2/8 10/10/9 1/1/10
f 10/10/11 9/9/12 1/1/13
f 1/1/13 9/9/12 5/4/14
f 13/15/15 14/16/16 2/2/17
f 2/2/17 14/16/16 10/10/18
f 14/16/19 13/15/20 7/7/21
f 7/7/21 13/15/20 3/3/22
f 12/18/23 14/17/24 8/11/25
f 8/11/25 14/17/24 7/12/26
f 12/13/27 8/8/28 11/14/29
f 11/14/29 8/8/28 6/6/30
