# This file uses centimeters as units for non-parametric coordinates.

v -0.384600 -0.311272 0.000000
v 0.427365 -0.261484 0.000000
v 0.426067 0.311922 0.000000
v -0.388304 0.342345 0.000000
v 0.426813 -0.017498 0.000000
v -0.455357 0.000201 0.000000
v -0.301621 -0.009008 0.000000
v -0.303191 -0.266385 0.000000
v -0.299711 0.303930 0.000000
vt 0.055239 0.850308
vt 0.537853 0.851378
vt 0.537131 0.963196
vt 0.059359 0.961459
vt 0.537546 0.898957
vt 0.057111 0.900807
vt 0.107563 0.900612
vt 0.106689 0.850422
vt 0.108625 0.961638
vn 0.000000 0.000000 1.000000
vn 0.000000 0.000000 1.000000
vn 0.000000 0.000000 1.000000
vn 0.000000 0.000000 1.000000
vn 0.000000 0.000000 1.000000
vn 0.000000 0.000000 1.000000
vn 0.000000 0.000000 1.000000
vn 0.000000 0.000000 1.000000
vn 0.000000 0.000000 1.000000
vn 0.000000 0.000000 1.000000
vn 0.000000 0.000000 1.000000
vn 0.000000 0.000000 1.000000
vn 0.000000 0.000000 1.000000
vn 0.000000 0.000000 1.000000
vn 0.000000 0.000000 1.000000
vn 0.000000 0.000000 1.000000
f 7/7/1 5/5/2 9/9/3
f 9/9/3 5/5/2 3/3/4
f 7/7/5 8/8/6 5/5/7
f 5/5/7 8/8/6 2/2/8
f 7/7/9 9/9/10 6/6/11
f 6/6/11 9/9/10 4/4/12
f 1/1/13 8/8/14 6/6/15
f 6/6/15 8/8/14 7/7/16
