# This file uses centimeters as units for non-parametric coordinates.

v -0.266583 0.500000 0.000000
v -0.500000 0.335718 0.000000
v 0.500000 0.298493 0.000000
v 0.301550 0.500000 0.000000
v -0.500000 -0.334635 0.000000
v -0.304333 -0.500000 0.000000
v 0.289082 -0.500000 0.000000
v 0.500000 -0.289252 0.000000
v -0.273104 0.327272 0.000000
v 0.299131 0.305970 0.000000
v -0.297744 -0.325456 0.000000
v 0.291592 -0.298710 0.000000
vt 0.621842 0.994470
vt 0.577121 0.964700
vt 0.768712 0.957955
vt 0.730691 0.994470
vt 0.577121 0.843226
vt 0.614609 0.813260
vt 0.768712 0.851450
vt 0.728302 0.813260
vt 0.620592 0.963170
vt 0.730227 0.959309
vt 0.615872 0.844889
vt 0.728783 0.849736
vn 0.000000 0.000000 1.000000
vn 0.000000 0.000000 1.000000
vn 0.000000 0.000000 1.000000
vn 0.000000 0.000000 1.000000
vn 0.000000 0.000000 1.000000
vn 0.000000 0.000000 1.000000
vn 0.000000 0.000000 1.000000
vn 0.000000 0.000000 1.000000
vn 0.000000 0.000000 1.000000
vn 0.000000 0.000000 1.000000
vn 0.000000 0.000000 1.000000
vn 0.000000 0.000000 1.000000
vn 0.000000 0.000000 1.000000
vn 0.000000 0.000000 1.000000
vn 0.000000 0.000000 1.000000
vn 0.000000 0.000000 1.000000
vn 0.000000 0.000000 1.000000
vn 0.000000 0.000000 1.000000
vn 0.000000 0.000000 1.000000
vn 0.000000 0.000000 1.000000
vn 0.000000 0.000000 1.000000
vn 0.000000 0.000000 1.000000
vn 0.000000 0.000000 1.000000
vn 0.000000 0.000000 1.000000
vn 0.000000 0.000000 1.000000
vn 0.000000 0.000000 1.000000
vn 0.000000 0.000000 1.000000
vn 0.000000 0.000000 1.000000
f 2/2/1 9/9/2 1/1/3
f 9/9/4 10/10/5 1/1/6
f 1/1/6 10/10/5 4/4/7
f 10/10/8 3/3/9 4/4/10
f 9/9/11 2/2/12 11/11/13
f 11/11/13 2/2/12 5/5/14
f 3/3/15 10/10/16 8/7/17
f 8/7/17 10/10/16 12/12/18
f 11/11/19 5/5/20 6/6/21
f 12/12/22 11/11/23 7/8/24
f 7/8/24 11/11/23 6/6/25
f 8/7/26 12/12/27 7/8/28
