# This file uses centimeters as units for non-parametric coordinates.

v 3.520792 5.925025 0.614899
v 3.559878 6.131348 0.614821
v 1.621004 5.914463 0.580649
v 1.629367 6.073549 0.580801
v 5.435880 5.908840 0.497330
v 5.435193 6.115163 0.497253
v 7.337252 7.457454 0.479956
v 7.336565 7.663777 0.479879
v 8.443362 7.472017 0.428119
v 8.442676 7.639416 0.428042
v 8.399587 7.489326 -6.652087
v 8.398900 7.656725 -6.652164
v 6.776114 9.258498 -4.105303
v 6.775428 9.375933 -4.105322
v 6.754790 9.346416 -6.742357
v 6.755477 9.269894 -6.742338
v 6.323920 9.248116 -4.122790
v 6.323234 9.353112 -4.122809
v 3.871348 7.500623 -4.120344
v 3.870661 7.560215 -4.120363
v 1.462919 7.436431 -6.516936
v 1.492497 7.902430 -6.516975
v 1.498829 7.913825 -5.318071
v 1.469032 7.447826 -5.318032
v 1.550776 5.910488 -0.898972
v 1.550795 6.035768 -0.899011
v 1.540038 6.599769 -2.596194
v 1.539733 6.445500 -2.617092
v 1.406822 6.065317 -0.671183
v 1.406841 6.241166 -0.671222
v 5.435880 5.908840 -0.511337
v 5.435193 5.941175 -0.511415
v 7.301572 7.587721 -0.518144
v 7.302259 7.438632 -0.518067
v 6.396482 6.648905 -0.520115
v 6.396632 6.746783 -0.520200
v 1.213858 6.077427 0.510881
v 1.221478 6.236513 0.511033
v 0.834651 6.217240 0.501384
v 0.842271 6.376327 0.501537
v 0.655444 6.220496 0.481942
v 0.655448 6.379582 0.482095
v 1.032795 6.224725 -0.677263
v 1.032814 6.400574 -0.677302
v 0.655442 6.279132 -0.679149
v 0.655448 6.454981 -0.679188
v -0.311091 6.073549 0.580801
v -2.260218 6.131348 0.614821
v -2.221694 5.925025 0.614899
v -0.302760 5.914463 0.580649
v -4.119402 6.115163 0.497253
v -4.119811 5.908840 0.497330
v -6.004086 7.663777 0.479879
v -6.004910 7.457454 0.479956
v -7.100480 7.639416 0.428042
v -7.101294 7.472017 0.428119
v -7.057141 7.656725 -6.652164
v -7.057924 7.489326 -6.652087
v -5.448024 9.258498 -4.105303
v -5.448024 9.375933 -4.105322
v -5.427355 9.346416 -6.742357
v -5.427774 9.269894 -6.742338
v -4.999745 9.248116 -4.122790
v -4.999735 9.353112 -4.122809
v -2.569059 7.500623 -4.120344
v -2.567858 7.560215 -4.120363
v -0.187431 7.447826 -5.318032
v -0.181346 7.436431 -6.516936
v -0.210896 7.902430 -6.516975
v -0.217576 7.913825 -5.318071
v -0.266258 6.599769 -2.596194
v -0.265846 6.445500 -2.617092
v -0.242089 6.017188 -0.858261
v -0.242089 5.891908 -0.858221
v -0.089512 6.241166 -0.671222
v -0.089512 6.065317 -0.671183
v -5.072670 6.746783 -0.520200
v -5.072267 6.648905 -0.520115
v -5.970054 7.438632 -0.518067
v -5.969270 7.587721 -0.518144
v -4.119402 5.941175 -0.511415
v -4.119811 5.908840 -0.511337
v 0.101505 6.077427 0.510881
v 0.093927 6.236513 0.511033
v 0.477473 6.217240 0.501384
v 0.469886 6.376327 0.501537
v 0.281117 6.400574 -0.677302
v 0.281117 6.224725 -0.677263
v 2.403018 7.482844 -5.476217
v 4.786875 7.563288 -2.954988
v 4.787602 7.482019 -2.954987
v 2.403121 7.446620 -5.476219
v 7.196310 7.563463 -2.924949
v 7.196289 7.482039 -2.924948
v 2.393474 7.563847 -2.955400
v 2.401875 7.482030 -2.955400
v -1.111299 7.563847 -2.955400
v -1.119626 7.482030 -2.955400
v -1.088342 7.446620 -5.476219
v -1.088244 7.482844 -5.476217
v -5.869530 7.482039 -2.904617
v -3.483202 7.482019 -2.954987
v -3.482488 7.563288 -2.954988
v -5.869548 7.563463 -2.904618
vt 0.000000 0.000000
vt 1.000000 0.000000
vt 1.000000 1.000000
vt 0.000000 1.000000
vt 0.000000 0.000000
vt 1.000000 0.000000
vt 1.000000 1.000000
vt 0.000000 1.000000
vt 0.000000 0.000000
vt 1.000000 0.000000
vt 1.000000 1.000000
vt 0.000000 1.000000
vt 0.000000 0.000000
vt 1.000000 0.000000
vt 1.000000 1.000000
vt 0.000000 1.000000
vt 0.000000 0.000000
vt 1.000000 0.000000
vt 1.000000 1.000000
vt 0.000000 1.000000
vt 0.000000 0.000000
vt 1.000000 0.000000
vt 1.000000 1.000000
vt 0.000000 1.000000
vt 0.000000 0.000000
vt 1.000000 0.000000
vt 1.000000 1.000000
vt 0.000000 1.000000
vt 0.000000 0.000000
vt 1.000000 0.000000
vt 1.000000 1.000000
vt 0.000000 1.000000
vt 0.000000 0.000000
vt 1.000000 0.000000
vt 1.000000 1.000000
vt 0.000000 1.000000
vt 0.000000 0.000000
vt 1.000000 0.000000
vt 1.000000 1.000000
vt 0.000000 1.000000
vt 1.000000 0.604795
vt 0.000000 0.600143
vt 0.000000 0.000000
vt 1.000000 0.000000
vt 1.000000 1.000000
vt 0.000000 1.000000
vt 0.000000 0.000000
vt 1.000000 0.000000
vt 1.000000 1.000000
vt 0.000000 1.000000
vt 0.999999 0.505655
vt -0.000000 0.505211
vt 0.000000 0.000000
vt 1.000000 0.000000
vt 1.000000 1.000000
vt 0.000000 1.000000
vt 0.000000 0.000000
vt 1.000000 0.000000
vt 1.000000 1.000000
vt 0.000000 1.000000
vt 0.000000 0.000000
vt 1.000000 0.000000
vt 1.000000 1.000000
vt 0.000000 1.000000
vt 0.000000 0.000000
vt 1.000000 0.000000
vt 1.000000 1.000000
vt 0.000000 1.000000
vt 0.000000 0.000000
vt 1.000000 0.000000
vt 1.000000 1.000000
vt 0.000000 1.000000
vt 0.000000 0.000000
vt 0.000000 1.000000
vt 1.000000 1.000000
vt 1.000000 0.000000
vt 0.000000 0.000000
vt 1.000000 0.000000
vt 1.000000 1.000000
vt 0.000000 1.000000
vt 0.000000 0.000000
vt 1.000000 0.000000
vt 1.000000 1.000000
vt 0.000000 1.000000
vt 0.000000 0.000000
vt 1.000000 0.000000
vt 1.000000 1.000000
vt 0.000000 1.000000
vt 0.000000 0.000000
vt 1.000000 0.000000
vt 1.000000 1.000000
vt 0.000000 1.000000
vt 0.000000 0.000000
vt 1.000000 0.000000
vt 1.000000 1.000000
vt 0.000000 1.000000
vt 0.000000 0.000000
vt 1.000000 0.000000
vt 1.000000 1.000000
vt 0.000000 1.000000
vt 0.000000 0.000000
vt 1.000000 0.000000
vt 1.000000 1.000000
vt 0.000000 1.000000
vt 0.000000 1.000000
vt 0.000000 0.000000
vt 1.000000 0.000000
vt 1.000000 1.000000
vt 1.000000 0.604795
vt 0.000000 0.600143
vt 0.000000 0.000000
vt 1.000000 0.000000
vt 1.000000 1.000000
vt 0.000000 1.000000
vt 0.000000 0.000000
vt 1.000000 0.000000
vt 1.000000 1.000000
vt 0.000000 1.000000
vt 0.999999 0.505655
vt -0.000000 0.505211
vt 0.000000 1.000000
vt 1.000000 1.000000
vt 1.000000 0.000000
vt 0.000000 0.000000
vt 0.000000 0.000000
vt 1.000000 0.000000
vt 1.000000 1.000000
vt 0.000000 1.000000
vt 0.000000 0.000000
vt 1.000000 0.000000
vt 1.000000 1.000000
vt 0.000000 1.000000
vt 0.000000 0.000000
vt 1.000000 0.000000
vt 1.000000 1.000000
vt 0.000000 1.000000
vt 0.000000 0.000000
vt 1.000000 0.000000
vt 1.000000 1.000000
vt 0.000000 1.000000
vt 0.000000 0.000000
vt 1.000000 0.000000
vt 1.000000 1.000000
vt 0.000000 1.000000
vt 0.000000 0.000000
vt 0.000000 1.000000
vt 1.000000 1.000000
vt 1.000000 0.000000
vt 0.000000 0.000000
vt 1.000000 0.000000
vt 1.000000 1.000000
vt 0.000000 1.000000
vt 0.000001 0.106947
vt 0.999999 0.110441
vt 0.000001 0.106947
vt 0.999999 0.110441
vt 1.000000 0.000000
vt 0.000000 0.000000
vt 0.000000 1.000000
vt 0.000000 0.000000
vt 1.000000 0.000000
vt 1.000000 1.000000
vt 0.000000 1.000000
vt 1.000000 1.000000
vn 0.017731 -0.003733 -0.999836
vn 0.017878 -0.001861 -0.999838
vn 0.017878 -0.001861 -0.999838
vn 0.018025 0.000011 -0.999838
vn -0.061177 0.011216 -0.998064
vn -0.061877 0.005317 -0.998070
vn -0.061877 0.005317 -0.998070
vn -0.062575 -0.000582 -0.998040
vn -0.008808 -0.000404 -0.999961
vn -0.008808 -0.000404 -0.999961
vn -0.008808 -0.000404 -0.999961
vn -0.008808 -0.000404 -0.999961
vn -0.046824 -0.000530 -0.998903
vn -0.046814 -0.000591 -0.998904
vn -0.046814 -0.000591 -0.998904
vn -0.046805 -0.000653 -0.998904
vn -0.999973 -0.004100 0.006173
vn -0.999973 -0.004101 0.006173
vn -0.999973 -0.004101 0.006173
vn -0.999973 -0.004101 0.006173
vn -0.999953 -0.005839 0.007800
vn -0.999942 -0.007404 0.007863
vn -0.999942 -0.007404 0.007863
vn -0.999928 -0.008970 0.007926
vn 0.038639 0.000064 -0.999253
vn 0.038641 0.000067 -0.999253
vn 0.038641 0.000067 -0.999253
vn 0.038643 0.000071 -0.999253
vn -0.000862 -0.000187 -1.000000
vn -0.000813 -0.000258 -1.000000
vn -0.000813 -0.000258 -1.000000
vn -0.000764 -0.000329 -1.000000
vn 0.997982 -0.063344 -0.004486
vn 0.997966 -0.063578 -0.004576
vn 0.997966 -0.063578 -0.004576
vn 0.997951 -0.063812 -0.004665
vn 0.999671 0.001496 -0.025613
vn 0.998875 -0.031145 -0.035762
vn 0.998875 -0.031145 -0.035762
vn 0.996911 -0.063749 -0.045869
vn 0.999977 -0.001068 -0.006693
vn 0.999978 -0.000611 -0.006584
vn 0.999978 -0.000611 -0.006584
vn 0.999979 -0.000153 -0.006475
vn 0.845355 0.000037 0.534204
vn 0.845355 0.000033 0.534205
vn 0.845355 0.000033 0.534205
vn 0.845354 0.000028 0.534206
vn -0.003021 0.000872 0.999995
vn -0.002881 0.000689 0.999996
vn -0.002881 0.000689 0.999996
vn -0.002741 0.000506 0.999996
vn 0.008421 0.000854 0.999964
vn 0.007800 0.001698 0.999968
vn 0.007800 0.001698 0.999968
vn 0.007178 0.002542 0.999971
vn 0.165869 -0.007774 -0.986117
vn 0.165872 -0.007386 -0.986120
vn 0.165872 -0.007386 -0.986120
vn 0.165876 -0.006999 -0.986122
vn 0.024949 -0.000236 -0.999689
vn 0.024949 -0.000236 -0.999689
vn 0.024949 -0.000236 -0.999689
vn 0.024949 -0.000236 -0.999689
vn 0.103437 -0.004000 -0.994628
vn 0.105655 -0.001525 -0.994402
vn 0.105655 -0.001525 -0.994402
vn 0.107871 0.000950 -0.994164
vn -0.016158 0.000224 0.999869
vn -0.016158 0.000224 0.999869
vn -0.016158 0.000224 0.999869
vn -0.016158 0.000224 0.999869
vn -0.004966 0.000223 0.999988
vn -0.004966 0.000223 0.999988
vn -0.004966 0.000223 0.999988
vn -0.004966 0.000223 0.999988
vn -0.017845 0.000024 -0.999841
vn -0.017702 -0.001814 -0.999842
vn -0.017702 -0.001814 -0.999842
vn -0.017559 -0.003653 -0.999839
vn 0.061722 0.011151 -0.998031
vn 0.062420 0.005326 -0.998036
vn 0.062420 0.005326 -0.998036
vn 0.063115 -0.000499 -0.998006
vn 0.008894 -0.000392 -0.999960
vn 0.008887 -0.000401 -0.999960
vn 0.008887 -0.000401 -0.999960
vn 0.008881 -0.000410 -0.999960
vn 0.047218 -0.000690 -0.998884
vn 0.047229 -0.000627 -0.998884
vn 0.047229 -0.000627 -0.998884
vn 0.047239 -0.000563 -0.998883
vn 0.999970 -0.004861 0.006114
vn 0.999970 -0.004764 0.006111
vn 0.999970 -0.004764 0.006111
vn 0.999970 -0.004667 0.006109
vn 0.999971 -0.000000 0.007679
vn 0.999966 -0.002736 0.007789
vn 0.999966 -0.002736 0.007789
vn 0.999954 -0.005473 0.007899
vn -0.038987 -0.000162 -0.999240
vn -0.038986 -0.000170 -0.999240
vn -0.038986 -0.000170 -0.999240
vn -0.038985 -0.000178 -0.999240
vn 0.000872 -0.000182 -1.000000
vn 0.000819 -0.000259 -1.000000
vn 0.000819 -0.000259 -1.000000
vn 0.000766 -0.000335 -1.000000
vn -0.997902 -0.064555 -0.004947
vn -0.997944 -0.063919 -0.004705
vn -0.997944 -0.063919 -0.004705
vn -0.997986 -0.063284 -0.004463
vn -0.996717 -0.064482 -0.048957
vn -0.998746 -0.031659 -0.038789
vn -0.998746 -0.031659 -0.038789
vn -0.999591 0.001201 -0.028575
vn -0.999909 0.000004 0.013507
vn -0.999913 -0.002176 0.012976
vn -0.999913 -0.002176 0.012976
vn -0.999913 -0.004356 0.012445
vn -0.774970 0.000197 0.631998
vn -0.774965 0.000169 0.632004
vn -0.774965 0.000169 0.632004
vn -0.774961 0.000140 0.632009
vn 0.002765 0.000504 0.999996
vn 0.002910 0.000692 0.999996
vn 0.002910 0.000692 0.999996
vn 0.003055 0.000880 0.999995
vn -0.007286 0.002481 0.999970
vn -0.007899 0.001657 0.999967
vn -0.007899 0.001657 0.999967
vn -0.008512 0.000832 0.999963
vn -0.167015 -0.007011 -0.985929
vn -0.167011 -0.007406 -0.985927
vn -0.167011 -0.007406 -0.985927
vn -0.167007 -0.007800 -0.985925
vn -0.025163 -0.000241 -0.999683
vn -0.025162 -0.000241 -0.999683
vn -0.025162 -0.000241 -0.999683
vn -0.025162 -0.000240 -0.999683
vn -0.104131 -0.004012 -0.994555
vn -0.106372 -0.001528 -0.994325
vn -0.106372 -0.001528 -0.994325
vn -0.108612 0.000957 -0.994084
vn 0.016307 0.000222 0.999867
vn 0.016307 0.000222 0.999867
vn 0.016307 0.000222 0.999867
vn 0.016307 0.000222 0.999867
vn 0.005006 0.000222 0.999987
vn 0.005006 0.000222 0.999987
vn 0.005006 0.000222 0.999987
vn 0.005006 0.000222 0.999987
vn 0.994770 0.102143 0.000484
vn 0.998618 0.052554 0.000470
vn 0.998618 0.052554 0.000470
vn 0.999996 0.002834 0.000455
vn 0.012470 -0.000018 -0.999922
vn 0.012468 0.000039 -0.999922
vn 0.012468 0.000039 -0.999922
vn 0.012466 0.000097 -0.999922
vn 0.000172 0.000018 -1.000000
vn 0.000173 0.000002 -1.000000
vn 0.000173 0.000002 -1.000000
vn 0.000173 -0.000013 -1.000000
vn -0.994785 0.101246 -0.012352
vn -0.998568 0.052036 -0.012415
vn -0.998568 0.052036 -0.012415
vn -0.999919 0.002699 -0.012447
vn -0.021103 -0.000019 -0.999777
vn -0.021100 0.000076 -0.999777
vn -0.021100 0.000076 -0.999777
vn -0.021097 0.000171 -0.999777
vn -0.000175 -0.000013 -1.000000
vn -0.000174 0.000002 -1.000000
vn -0.000174 0.000002 -1.000000
vn -0.000174 0.000018 -1.000000
f 2/4/1 1/3/2 4/1/3
f 4/1/3 1/3/2 3/2/4
f 1/5/5 2/6/6 5/8/7
f 5/8/7 2/6/6 6/7/8
f 5/9/9 6/10/10 7/12/11
f 7/12/11 6/10/10 8/11/12
f 8/14/13 10/15/14 7/13/15
f 7/13/15 10/15/14 9/16/16
f 9/17/17 10/18/18 11/20/19
f 11/20/19 10/18/18 12/19/20
f 13/21/21 14/22/22 16/24/23
f 16/24/23 14/22/22 15/23/24
f 14/25/25 13/26/26 18/28/27
f 18/28/27 13/26/26 17/27/28
f 18/29/29 17/30/30 20/32/31
f 20/32/31 17/30/30 19/31/32
f 21/33/33 22/34/34 24/36/35
f 24/36/35 22/34/34 23/35/36
f 28/42/37 24/37/38 27/41/39
f 27/41/39 24/37/38 23/38/40
f 27/41/41 26/39/42 28/42/43
f 28/42/43 26/39/42 25/40/44
f 25/43/45 26/44/46 29/46/47
f 29/46/47 26/44/46 30/45/48
f 35/52/49 34/50/50 36/51/51
f 36/51/51 34/50/50 33/49/52
f 36/51/53 32/48/54 35/52/55
f 35/52/55 32/48/54 31/47/56
f 3/54/57 37/55/58 4/53/59
f 4/53/59 37/55/58 38/56/60
f 37/58/61 39/59/62 38/57/63
f 38/57/63 39/59/62 40/60/64
f 40/61/65 39/62/66 42/64/67
f 42/64/67 39/62/66 41/63/68
f 29/65/69 30/66/70 43/68/71
f 43/68/71 30/66/70 44/67/72
f 43/69/73 44/70/74 45/72/75
f 45/72/75 44/70/74 46/71/76
f 50/76/77 49/75/78 47/73/79
f 47/73/79 49/75/78 48/74/80
f 49/77/81 52/80/82 48/78/83
f 48/78/83 52/80/82 51/79/84
f 52/81/85 54/84/86 51/82/87
f 51/82/87 54/84/86 53/83/88
f 56/88/89 55/87/90 54/85/91
f 54/85/91 55/87/90 53/86/92
f 56/89/93 58/92/94 55/90/95
f 55/90/95 58/92/94 57/91/96
f 59/93/97 62/96/98 60/94/99
f 60/94/99 62/96/98 61/95/100
f 60/97/101 64/100/102 59/98/103
f 59/98/103 64/100/102 63/99/104
f 64/101/105 66/104/106 63/102/107
f 63/102/107 66/104/106 65/103/108
f 70/108/109 69/107/110 67/105/111
f 67/105/111 69/107/110 68/106/112
f 70/112/113 67/111/114 71/109/115
f 71/109/115 67/111/114 72/110/116
f 74/114/117 73/113/118 72/110/119
f 72/110/119 73/113/118 71/109/120
f 74/115/121 76/118/122 73/116/123
f 73/116/123 76/118/122 75/117/124
f 80/122/125 79/121/126 77/119/127
f 77/119/127 79/121/126 78/120/128
f 82/124/129 81/123/130 78/120/131
f 78/120/131 81/123/130 77/119/132
f 84/128/133 83/127/134 47/125/135
f 47/125/135 83/127/134 50/126/136
f 86/132/137 85/131/138 84/129/139
f 84/129/139 85/131/138 83/130/140
f 86/133/141 42/136/142 85/134/143
f 85/134/143 42/136/142 41/135/144
f 76/137/145 88/140/146 75/138/147
f 75/138/147 88/140/146 87/139/148
f 88/141/149 45/144/150 87/142/151
f 87/142/151 45/144/150 46/143/152
f 95/153/153 96/154/154 89/145/155
f 89/145/155 96/154/154 92/148/156
f 94/152/157 91/149/158 93/151/159
f 93/151/159 91/149/158 90/150/160
f 95/153/161 90/146/162 96/154/163
f 96/154/163 90/146/162 91/147/164
f 97/155/165 100/158/166 98/156/167
f 98/156/167 100/158/166 99/157/168
f 101/159/169 104/162/170 102/160/171
f 102/160/171 104/162/170 103/161/172
f 102/164/173 103/163/174 98/156/175
f 98/156/175 103/163/174 97/155/176
