# This file uses centimeters as units for non-parametric coordinates.

v 8.460747 5.693931 0.488342
v 7.296206 5.762832 0.707927
v 1.555840 5.614824 0.696893
v 2.689152 5.332584 0.749462
v 7.467407 5.063128 0.821395
v 4.611297 5.307044 0.779376
v 4.677840 4.910878 0.936095
v 3.098784 4.765706 0.924808
v 4.591357 -10.509117 0.630091
v 5.650216 -10.429447 0.672463
v 7.758805 4.442455 -1.951928
v 7.667849 -11.723071 -2.163407
v 2.791158 -11.495479 -0.114856
v 4.348015 -0.051105 -0.620384
v 5.534710 0.475466 -0.075500
v 1.792798 5.016396 -2.953668
v 1.200082 5.547377 0.696193
v 6.885197 -0.530515 -2.957142
v 7.836181 5.129406 0.595936
v 8.286182 5.366462 0.605237
v 5.612287 -2.532836 -0.259813
v 4.461652 -2.596281 -0.304850
v 3.070606 -1.704015 -2.249297
v 2.962498 -4.161332 -2.198960
v 2.707350 -11.781537 -1.714750
v 2.742024 1.060527 -2.624896
v 3.632823 2.856484 0.656559
v 5.134964 2.947316 0.398889
v 6.794123 2.506576 -2.134499
v 7.223868 2.764670 -2.349166
v 7.735665 3.639443 -2.091804
v 1.598975 5.879495 0.569555
v 0.655448 6.154575 0.608045
v 1.835881 5.157848 0.773235
v 2.181646 4.900502 0.738585
v 3.402303 1.960996 -0.669031
v 3.649302 -0.299268 -0.740070
v 3.729997 -2.580383 -0.425828
v 3.559412 -10.941872 0.241605
v 2.929520 3.620802 0.519394
v 2.467677 4.420557 -2.980814
v 3.060920 3.075330 0.460117
v 2.510696 2.710677 -3.084012
v 2.665476 1.950594 -2.874437
v 2.706935 1.321013 -2.792131
v 3.604982 -0.110324 -0.997705
v 2.721040 0.721023 -2.596648
v 3.057670 0.200873 -2.594425
v 3.040923 -0.731250 -2.524753
v 3.063091 -1.481103 -2.357566
v 6.889272 1.833745 -2.430484
v 6.846285 -0.143021 -3.108856
v 6.838514 1.110670 -2.603571
v 5.351626 1.875386 -0.103371
v 3.819347 1.790576 0.061167
v 7.001987 -3.703446 -3.047884
v 7.577134 -11.327379 -2.316306
v 7.245558 -10.488864 -2.956622
v 7.269461 -11.110321 -2.582274
v 5.579311 -0.785626 -0.334462
v 6.916696 -2.747985 -3.345972
v 6.926377 -1.237450 -2.949338
v 4.407879 -0.894858 -0.291044
v 3.688175 -1.180311 -0.516298
v 3.006764 -2.973793 -2.572672
v 3.594738 0.101921 -0.910784
v 8.445162 7.452098 0.418784
v 6.370130 6.624470 0.480829
v 5.969534 6.288831 0.465664
v 5.446307 5.907540 0.466474
v 5.631905 5.897023 0.455965
v 6.384475 5.908134 -0.903806
v 6.484872 6.538146 0.439661
v 7.055175 7.054765 0.444467
v 7.129146 7.286460 -0.512774
v 8.418631 7.389848 0.415932
v 5.446232 5.901967 -0.513447
v 5.893829 5.787510 0.659335
v 5.786327 4.392184 0.469344
v 6.152721 5.319453 1.101802
v 6.181768 4.405613 0.959600
v 7.069469 6.425385 0.412654
v 7.055282 6.522985 0.410770
v 6.586577 5.877283 0.476549
v 6.387792 6.465770 0.444411
v 6.437202 5.877275 0.453514
v 7.056700 5.855085 -0.903313
v 6.522676 6.414529 0.437126
v 7.069623 5.866246 0.470925
v 8.450163 5.784581 0.385684
v 6.506416 5.824112 0.758249
v 6.599179 5.211526 1.102511
v 6.471145 4.429989 0.941412
v 6.689786 5.822319 0.786150
v 6.904170 5.245895 1.134726
v 6.782901 4.474365 0.997763
v 7.135173 7.276338 0.469860
v 7.343026 7.452083 0.476838
v 7.797278 7.186844 0.350836
v 7.866851 5.836331 0.564028
v 7.876804 5.694437 0.546460
v 7.963673 5.280026 0.598421
v 7.373540 5.597178 0.796423
v 7.904075 5.576039 0.764161
v 6.357763 6.607400 -0.502684
v 5.963549 6.287390 -0.504680
v 6.066231 6.204482 0.488172
v 7.055193 6.549164 -0.587918
v 7.065177 5.857306 -0.736614
v 7.035201 6.971474 -0.483856
v 7.779454 6.354308 0.419403
v 8.420055 6.386971 0.327696
v 8.461864 7.112036 0.402384
v 8.513798 5.924602 0.203166
v 7.036807 7.066335 -0.496019
v 3.369014 3.843678 0.878514
v 4.865969 4.095078 0.745061
v 6.436736 6.525200 -0.524567
v 2.114129 5.860206 0.645980
v 1.957641 5.691874 0.692563
v 4.282505 5.768377 0.754538
v 3.967363 5.769526 0.783952
v 3.978355 5.269364 0.969435
v 5.377242 5.243164 0.697201
v 5.095485 5.822986 0.660478
v 3.649209 4.819997 1.012727
v 3.648187 5.037979 0.965810
v 4.475821 5.538083 0.866197
v 7.069465 6.459166 -0.622639
v 7.070619 5.903283 -0.367293
v 5.901919 2.702938 -0.346259
v 6.953815 -11.420354 -0.340085
v 6.729541 -10.993242 -0.781969
v 6.684860 -10.700508 -1.043741
v 6.412375 -3.404976 -1.173737
v 6.390588 -2.344008 -1.652014
v 6.318165 -0.286255 -1.062470
v 6.282817 0.296652 -1.131880
v 6.325856 1.243981 -0.598981
v 6.257908 2.581658 -0.716050
v 7.220526 4.453209 0.621256
v 6.892672 3.815776 0.342758
v 6.683885 3.409845 0.279795
v 6.221919 3.673836 0.757189
v 5.556285 3.839844 0.740921
v 2.876786 -6.922775 -2.310465
v 3.647182 -5.686865 -0.101806
v 4.524252 -5.204497 0.146385
v 5.630886 -5.145780 0.197326
v 6.520068 -5.878420 -1.102012
v 7.133056 -6.700964 -2.998775
v 2.803609 -10.955952 -2.144082
v 3.597984 -10.129082 0.090684
v 4.566473 -9.804893 0.450720
v 5.643558 -9.782500 0.508794
v 6.611104 -10.066504 -1.041381
v 7.174836 -10.248514 -2.983120
v 1.599871 5.523015 -3.002652
v 1.429325 5.386243 0.548577
v 1.342624 5.431554 0.605278
v 1.540375 5.500999 0.712068
v 1.242332 5.491304 0.646520
v 1.290953 5.410321 0.581015
v 1.359984 5.400413 0.573050
v 1.004280 5.676523 0.714352
v 0.655448 5.696754 0.712342
v 1.160370 6.056632 0.597232
v 0.946332 6.128940 0.595523
v 0.853303 5.699958 0.706398
v 1.308011 5.975457 0.625999
v 1.594485 5.757573 0.600001
v 1.489138 5.460863 0.638363
v 1.451099 5.488933 0.664980
v 1.344148 5.565614 0.743458
v 1.041568 5.750173 0.711671
v 0.871787 5.804420 0.711008
v 0.655448 5.813675 0.726184
v 0.986072 5.683143 0.715078
v 1.231778 5.510695 0.662552
v 8.422754 5.500363 0.520897
v 5.598363 5.908135 -0.544343
v 6.367949 5.895567 -0.756516
v 6.026052 6.237700 -0.490323
v 6.426564 5.877783 -0.564769
v 6.513445 6.449838 -0.549430
v 6.547546 5.877553 -0.578960
v 7.121414 7.030834 -0.622822
v 7.045761 6.800797 -0.717537
v 7.076186 6.313550 -0.862573
v 6.920493 7.108833 -0.508263
v 6.939844 7.104329 0.466228
v 8.007828 7.452098 0.443420
v 8.191326 7.298126 0.402800
v 8.346872 6.677221 0.394078
v 7.800249 6.691777 0.425396
v 8.251582 6.673232 0.412455
v 8.415499 6.608649 0.406520
v 8.412336 6.762654 0.405119
v 8.444260 6.139780 0.321395
v 8.271857 6.210470 0.303043
v 8.419396 6.216470 0.299806
v 8.418867 6.078995 0.277319
v 8.238017 5.886631 0.358397
v 8.445642 5.857112 0.291240
v 2.499728 3.031739 -3.192353
v 2.783922 5.750280 0.795920
v 1.341869 5.777548 0.703189
v 7.414708 7.095372 0.499575
v 2.696837 5.652864 0.910608
v 2.012446 5.775754 0.742031
v 0.655455 5.833317 0.728924
v 0.875542 5.822752 0.711944
v 1.048138 5.768516 0.710767
v 1.341951 5.791751 0.702055
v 3.916430 5.502934 0.957057
v 8.288466 6.380799 0.329749
v 6.804258 5.864306 -0.555291
v 6.437797 5.891734 -0.792127
v 1.534187 5.882967 0.575520
v -6.566679 5.576039 0.764161
v -7.118720 5.693931 0.488342
v -6.539915 5.694437 0.546460
v -5.889401 4.453209 0.621256
v -6.133809 5.063128 0.821395
v -5.575291 5.245895 1.134726
v -5.455311 4.474365 0.997763
v -4.934887 2.581658 -0.374665
v -5.356836 3.409845 0.279795
v -4.899244 3.673836 0.757189
v -4.582253 2.702938 -0.004875
v -3.216343 -5.204497 0.146385
v -3.153932 -2.596281 -0.304850
v -2.428834 -2.580383 -0.425828
v -2.346936 -5.686865 -0.101806
v -4.313145 -5.145780 0.197326
v -4.294892 -2.532836 -0.259813
v -5.066216 -2.344008 -1.652014
v -4.994451 -0.286255 -1.062470
v -4.217874 0.475466 -0.075500
v -4.262043 -0.785626 -0.334462
v -3.100828 -0.894858 -0.291044
v -2.387488 -1.180311 -0.516298
v -3.041262 -0.051105 -0.620384
v -2.517173 1.790576 0.061167
v -2.304792 -0.110324 -0.997705
v -2.348961 -0.299268 -0.740070
v -4.036702 1.875386 -0.103371
v -4.960005 0.296652 -1.131880
v -5.002151 1.243981 -0.598981
v -1.618993 1.139932 -2.465906
v -2.104150 1.960996 -0.669031
v -1.411082 1.526749 -2.465906
v -1.668036 -4.161332 -2.198960
v -1.711816 -2.973793 -2.572672
v -1.582933 -6.922775 -2.310465
v -1.767744 -1.481103 -2.357566
v -1.775056 -1.704015 -2.249297
v -3.821487 2.947316 0.740273
v -2.332361 2.856484 0.656559
v -2.294659 0.101921 -0.910784
v -5.194310 -5.878420 -1.102012
v -5.087695 -3.404976 -1.173737
v -4.332565 -10.902660 0.672463
v -5.402212 -11.466455 -0.781969
v -5.358013 -11.173721 -1.043741
v -5.624723 -11.893567 -0.340085
v -1.559430 0.618746 -2.465906
v -1.672883 -1.031810 -2.465906
v -5.725276 6.549164 -0.587918
v -5.159430 6.538146 0.468145
v -5.725248 6.522985 0.410770
v -4.467559 4.392184 0.810728
v -4.859097 4.405613 0.959600
v -4.830709 5.319453 1.101802
v -4.061835 5.243164 0.697201
v -5.146056 4.429989 0.941412
v -5.272917 5.211526 1.102511
v -6.625874 5.280026 0.598421
v -6.040585 5.597178 0.796423
v -6.499393 5.129406 0.595936
v -7.081029 5.500363 0.520897
v -3.555189 4.095078 1.086445
v -2.070908 3.843678 0.878514
v -4.239356 3.839844 1.082305
v -3.368327 4.910878 0.936095
v -6.332418 -13.192959 -2.163407
v -6.242826 -11.800592 -2.316306
v -5.937618 -11.583534 -2.582274
v -5.914107 -10.962077 -2.956622
v -5.802681 -6.700964 -2.998775
v -5.672554 -3.703446 -3.047884
v -5.587866 -2.747985 -3.345972
v -5.597974 -1.237450 -2.949338
v -5.556659 -0.530515 -2.957142
v -5.518135 -0.143021 -3.108856
v -5.510405 1.110670 -3.301021
v -5.560688 1.833745 -2.430484
v -5.466614 2.506576 -2.134499
v -5.892254 2.764670 -2.349166
v -6.422786 4.442455 -1.951928
v -5.563949 3.815776 0.342758
v -6.399686 3.639443 -2.091804
v -2.297892 -10.129082 0.090684
v -1.510762 -10.955952 -2.144082
v -3.258105 -9.804893 0.450720
v -4.325692 -9.782500 0.508794
v -5.285083 -10.539717 -1.041381
v -5.843620 -10.305936 -2.983120
v -2.259804 -11.415085 0.241605
v -1.415111 -12.254750 -1.714750
v -1.498214 -11.968692 -0.114856
v -3.282816 -10.982330 0.630091
v 0.024986 5.410321 0.581015
v -0.043341 5.400413 0.573050
v -0.026252 5.431554 0.605278
v -0.111954 5.386243 0.548577
v -0.171082 5.460863 0.638363
v -0.133462 5.488933 0.664980
v -0.735839 5.167605 -2.396484
v -0.798655 5.956079 -2.014344
v 0.073658 5.491304 0.646520
v 0.366811 6.128940 0.595523
v 0.459132 5.699958 0.706398
v 0.440800 5.804420 0.711008
v -0.221999 5.500999 0.712068
v 0.437009 5.822752 0.711944
v -6.945683 5.366462 0.605237
v -5.111997 6.525200 -0.524567
v -5.716312 6.800797 -0.717537
v -5.705765 6.971474 -0.483856
v -5.707410 7.066335 -0.496019
v -5.790900 7.030834 -0.622822
v -5.746321 6.313550 -0.862573
v -5.739035 6.459166 -0.622639
v -5.963979 5.762832 0.707927
v -5.362890 5.822319 0.786150
v -5.181318 5.824112 0.758249
v -4.573734 5.787510 0.659335
v -5.739440 6.425385 0.412654
v -5.740617 5.903283 -0.367293
v -1.635593 3.620802 0.519394
v -1.803384 4.765706 0.924808
v -0.893892 4.900502 0.738585
v -0.897121 3.651269 -2.465906
v -0.550989 5.157848 0.773235
v -0.804315 4.008716 -2.514326
v -1.765332 3.075330 0.460117
v -1.124103 3.004499 -2.465906
v -1.383934 2.380054 -2.465906
v -1.547055 1.860940 -2.448274
v -2.348962 4.819997 1.012727
v -2.347758 5.037979 0.965810
v -1.029367 3.162934 -2.491166
v -0.027514 5.565614 0.743458
v 0.084085 5.510695 0.662552
v 0.115399 5.547377 0.696193
v -0.237494 5.614824 0.696893
v 0.272563 5.750173 0.711671
v 0.327589 5.683143 0.715078
v 0.309566 5.676523 0.714352
v 0.265936 5.768516 0.710767
v 0.154606 6.056632 0.597232
v -5.725881 7.013801 0.447214
v -7.108176 5.784581 0.385684
v -6.529428 5.836331 0.564028
v -7.119553 7.112036 0.402384
v -7.076967 7.389848 0.415932
v -6.851649 7.298126 0.402800
v -6.460891 7.186844 0.350836
v -6.081522 7.095372 0.499575
v -6.463752 6.691777 0.425396
v -6.443470 6.354308 0.419403
v -7.076967 6.078995 0.277319
v -7.102122 6.139780 0.321395
v -6.931477 6.210470 0.303043
v -7.103744 5.857112 0.291240
v -7.171000 5.924602 0.203166
v -6.897843 5.886631 0.358397
v -6.947667 6.380799 0.329749
v -5.063741 6.465770 0.472894
v -4.744789 6.204482 0.457159
v -4.705060 6.237700 -0.490323
v -5.112818 5.877275 0.453514
v -4.370399 5.897023 0.455965
v -5.739440 5.866246 0.470925
v -5.260746 5.877283 0.476549
v -5.197502 6.414529 0.465610
v -5.188220 6.449838 -0.549430
v -5.102290 5.877783 -0.564769
v -5.043910 5.895567 -0.756516
v -5.476377 5.864306 -0.555291
v -5.734980 5.857306 -0.736614
v -5.222251 5.877553 -0.578960
v -5.113232 5.891734 -0.792127
v -1.397274 5.332584 0.749462
v -0.671798 5.691874 0.692563
v -1.404558 5.652864 0.910608
v -0.726102 5.775754 0.742031
v 0.008203 5.975457 0.625999
v -0.025003 5.777548 0.703189
v -0.025317 5.791751 0.702055
v -0.215995 5.882967 0.575520
v -0.826596 5.860206 0.645980
v -0.280481 5.879495 0.569555
v -0.275445 5.757573 0.600001
v -4.281108 5.908135 -0.544343
v -5.726870 5.855085 -0.903313
v -5.060510 5.908134 -0.903806
v -3.782171 5.822986 0.660478
v -3.302676 5.307044 0.779376
v -2.674851 5.269364 0.969435
v -3.168119 5.538083 0.866197
v -2.976406 5.768377 0.754538
v -2.613642 5.502934 0.957057
v -7.103320 7.452098 0.418784
v -6.669656 7.452098 0.443420
v -6.010618 7.452083 0.476838
v -5.804274 7.276338 0.469860
v -5.046350 6.624470 0.480829
v -5.610936 7.104329 0.466228
v -4.648731 6.288831 0.465664
v -1.490899 5.750280 0.795920
v -2.663918 5.769526 0.783952
v -4.130329 5.907540 0.466474
v -5.798623 7.286460 -0.512774
v -6.911196 6.673232 0.412455
v -7.077385 6.216470 0.299806
v -7.078206 6.386971 0.327696
v -7.073738 6.608649 0.406520
v -7.005655 6.677221 0.394078
v -7.070507 6.762654 0.405119
v 2.981496 0.529331 -1.025555
v 3.036166 0.952840 -0.898165
v 3.002994 1.290461 -0.853891
v 2.812612 1.594713 -0.992809
v 2.725659 2.469537 -0.681119
v 2.460771 3.009640 -0.701596
v 2.471690 3.083392 -0.727197
v 2.184246 3.832438 -0.657695
v 1.697553 5.156292 0.255749
v 1.614334 5.253362 0.315580
v 1.451540 5.341785 0.414794
v -1.854079 -1.510591 -2.041487
v -1.847873 -1.276578 -2.154671
v -1.745057 0.946262 -0.898262
v -1.735118 1.336459 -0.841210
v -1.537194 1.605765 -0.983039
v -1.440634 2.483416 -0.654972
v -1.197490 3.012605 -0.649151
v -1.201056 3.083117 -0.686742
v -0.896732 3.801542 -0.698085
v -0.403486 5.156478 0.317517
v -0.254075 5.322433 0.423025
v -0.127622 5.354719 0.453713
vt 0.988091 0.578461
vt 0.920890 0.577926
vt 0.580032 0.573769
vt 0.677307 0.525887
vt 0.920088 0.541761
vt 0.748430 0.538519
vt 0.746755 0.504585
vt 0.682264 0.501558
vt 0.682979 0.263286
vt 0.728647 0.263550
vt 0.886341 0.513089
vt 0.791362 0.262369
vt 0.612451 0.263371
vt 0.680908 0.381666
vt 0.736458 0.382326
vt 0.581089 0.536887
vt 0.532008 0.574828
vt 0.774581 0.388112
vt 0.937945 0.543016
vt 0.985662 0.560161
vt 0.732687 0.324982
vt 0.681895 0.325250
vt 0.629705 0.384079
vt 0.624593 0.330395
vt 0.609538 0.278418
vt 0.614089 0.442412
vt 0.679833 0.443099
vt 0.740697 0.446783
vt 0.794991 0.450310
vt 0.815445 0.453681
vt 0.859989 0.487759
vt 0.588449 0.592824
vt 0.500087 0.621668
vt 0.602052 0.539218
vt 0.627747 0.510822
vt 0.643946 0.443149
vt 0.649289 0.383810
vt 0.649848 0.329006
vt 0.638864 0.263031
vt 0.633322 0.487530
vt 0.595412 0.511965
vt 0.639000 0.463810
vt 0.606899 0.484121
vt 0.617329 0.461832
vt 0.613437 0.449277
vt 0.648176 0.396170
vt 0.621218 0.431141
vt 0.619477 0.420607
vt 0.625660 0.401859
vt 0.630036 0.394621
vt 0.790283 0.438203
vt 0.772376 0.399057
vt 0.779444 0.419582
vt 0.738441 0.412478
vt 0.680413 0.409930
vt 0.771707 0.335435
vt 0.789323 0.276722
vt 0.777607 0.310375
vt 0.778943 0.291288
vt 0.734604 0.354129
vt 0.770103 0.352974
vt 0.773258 0.370783
vt 0.681442 0.351113
vt 0.649575 0.355787
vt 0.625889 0.360008
vt 0.647855 0.399742
vt 0.578488 0.601963
vt 0.989589 0.722617
vt 0.867720 0.633201
vt 0.843564 0.613585
vt 0.807240 0.587823
vt 0.819068 0.587085
vt 0.847196 0.609142
vt 0.871814 0.629098
vt 0.916055 0.665495
vt 0.916407 0.689994
vt 0.990366 0.710615
vt 0.824392 0.571865
vt 0.797675 0.511621
vt 0.833175 0.540119
vt 0.818970 0.511721
vt 0.876457 0.624118
vt 0.917938 0.631387
vt 0.917612 0.637289
vt 0.895907 0.648566
vt 0.869193 0.583116
vt 0.865309 0.623984
vt 0.862897 0.583475
vt 0.857106 0.616140
vt 0.871912 0.625006
vt 0.920393 0.586924
vt 0.987757 0.584167
vt 0.862161 0.571554
vt 0.859093 0.540609
vt 0.836268 0.511802
vt 0.873240 0.572900
vt 0.878934 0.540984
vt 0.856972 0.511900
vt 0.928945 0.681994
vt 0.944170 0.693103
vt 0.960874 0.691880
vt 0.944592 0.585934
vt 0.949954 0.577312
vt 0.956213 0.547305
vt 0.919755 0.566320
vt 0.954522 0.566184
vt 0.892653 0.672221
vt 0.952714 0.632439
vt 0.989983 0.637924
vt 0.988939 0.689803
vt 0.988123 0.606935
vt 0.902702 0.680670
vt 0.679218 0.478240
vt 0.743180 0.484538
vt 0.641440 0.564444
vt 0.623466 0.547244
vt 0.734991 0.556051
vt 0.725535 0.556014
vt 0.725103 0.524049
vt 0.791164 0.539326
vt 0.796229 0.570726
vt 0.707059 0.501674
vt 0.710273 0.512185
vt 0.740593 0.549750
vt 0.858011 0.643955
vt 0.897177 0.627749
vt 0.900789 0.621396
vt 0.771672 0.448304
vt 0.780092 0.263847
vt 0.772893 0.287818
vt 0.772254 0.304373
vt 0.764680 0.333354
vt 0.765287 0.353419
vt 0.767899 0.387697
vt 0.767029 0.400549
vt 0.774455 0.417912
vt 0.787043 0.449059
vt 0.877136 0.511995
vt 0.846451 0.490559
vt 0.826910 0.476909
vt 0.807986 0.484001
vt 0.775894 0.486835
vt 0.622502 0.311536
vt 0.644516 0.296977
vt 0.682418 0.295344
vt 0.730706 0.294859
vt 0.767674 0.321900
vt 0.775445 0.323236
vt 0.616915 0.296330
vt 0.641348 0.277949
vt 0.682771 0.275174
vt 0.729356 0.274335
vt 0.770204 0.312218
vt 0.776636 0.319431
vt 0.566191 0.547676
vt 0.560455 0.557232
vt 0.548695 0.566089
vt 0.576133 0.565654
vt 0.542991 0.567925
vt 0.545244 0.565481
vt 0.555650 0.564253
vt 0.519483 0.583050
vt 0.500102 0.583090
vt 0.541348 0.612874
vt 0.516601 0.617592
vt 0.507763 0.583069
vt 0.554586 0.610245
vt 0.584219 0.582347
vt 0.982746 0.636823
vt 0.570464 0.559875
vt 0.559382 0.566796
vt 0.557311 0.573814
vt 0.523140 0.588039
vt 0.509519 0.589928
vt 0.500099 0.590916
vt 0.517155 0.583054
vt 0.539253 0.571477
vt 0.986098 0.563834
vt 0.872454 0.655740
vt 0.821854 0.589406
vt 0.848587 0.607510
vt 0.856687 0.612181
vt 0.875736 0.599309
vt 0.876159 0.600174
vt 0.881369 0.603352
vt 0.881150 0.602617
vt 0.632385 0.369823
vt 0.652368 0.369823
vt 0.654718 0.371323
vt 0.632297 0.371251
vt 0.856804 0.613285
vt 0.885015 0.605475
vt 0.884445 0.604760
vt 0.881157 0.603759
vt 0.884604 0.606106
vt 0.885681 0.604314
vt 0.885231 0.596746
vt 0.885155 0.602199
vt 0.885666 0.604231
vt 0.883652 0.601796
vt 0.889076 0.608962
vt 0.887721 0.607343
vt 0.887881 0.603940
vt 0.891044 0.604108
vt 0.891065 0.608709
vt 0.885416 0.605224
vt 0.888395 0.605494
vt 0.901916 0.653615
vt 0.892080 0.645474
vt 0.891500 0.596051
vt 0.884095 0.665238
vt 0.892492 0.599445
vt 0.902732 0.682270
vt 0.892810 0.674350
vt 0.871481 0.656671
vt 0.863131 0.648133
vt 0.892097 0.599008
vt 0.892639 0.598798
vt 0.910471 0.668525
vt 0.873911 0.609749
vt 0.849398 0.607978
vt 0.972996 0.712663
vt 0.982112 0.702834
vt 0.986249 0.655811
vt 0.959130 0.650311
vt 0.977766 0.653732
vt 0.989211 0.651771
vt 0.989601 0.661293
vt 0.992481 0.625523
vt 0.976149 0.625379
vt 0.989367 0.628095
vt 0.988870 0.620170
vt 0.969397 0.598484
vt 0.988006 0.599338
vt 0.613372 0.494149
vt 0.847196 0.609142
vt 0.837906 0.592347
vt 0.858828 0.617542
vt 0.671920 0.551251
vt 0.554955 0.590271
vt 0.942967 0.674153
vt 0.675065 0.536401
vt 0.628835 0.552381
vt 0.500098 0.592465
vt 0.509876 0.591322
vt 0.524057 0.589289
vt 0.554768 0.591314
vt 0.725258 0.544502
vt 0.046237 0.566184
vt 0.012668 0.578461
vt 0.050805 0.577312
vt 0.123623 0.511995
vt 0.080671 0.541761
vt 0.121825 0.540984
vt 0.143787 0.511900
vt 0.213716 0.449059
vt 0.173849 0.476909
vt 0.192773 0.484001
vt 0.229087 0.448304
vt 0.318341 0.295344
vt 0.318864 0.325250
vt 0.350911 0.329006
vt 0.356243 0.296977
vt 0.270053 0.294859
vt 0.268072 0.324982
vt 0.235472 0.353419
vt 0.232860 0.387697
vt 0.264301 0.382326
vt 0.266155 0.354129
vt 0.319317 0.351113
vt 0.351184 0.355787
vt 0.319851 0.381666
vt 0.320346 0.409930
vt 0.352583 0.396170
vt 0.351470 0.383810
vt 0.262318 0.412478
vt 0.233730 0.400549
vt 0.226304 0.417912
vt 0.379541 0.431141
vt 0.356813 0.443149
vt 0.386670 0.442412
vt 0.376166 0.330395
vt 0.374870 0.360008
vt 0.378257 0.311536
vt 0.370723 0.394621
vt 0.371054 0.384079
vt 0.260062 0.446783
vt 0.320926 0.443099
vt 0.352904 0.399742
vt 0.233085 0.321900
vt 0.236079 0.333354
vt 0.272112 0.263550
vt 0.227866 0.287818
vt 0.228505 0.304373
vt 0.220667 0.263847
vt 0.381282 0.420607
vt 0.375099 0.401859
vt 0.104852 0.648566
vt 0.128945 0.629098
vt 0.083147 0.637289
vt 0.203084 0.511621
vt 0.181789 0.511721
vt 0.167584 0.540119
vt 0.209595 0.539326
vt 0.164491 0.511802
vt 0.141666 0.540609
vt 0.044546 0.547305
vt 0.081004 0.566320
vt 0.062814 0.543016
vt 0.014661 0.563834
vt 0.257579 0.484538
vt 0.321541 0.478240
vt 0.224865 0.486835
vt 0.254004 0.504585
vt 0.209397 0.262369
vt 0.211436 0.276722
vt 0.221816 0.291288
vt 0.223152 0.310375
vt 0.225314 0.323236
vt 0.229052 0.335435
vt 0.230656 0.352974
vt 0.227501 0.370783
vt 0.226178 0.388112
vt 0.228383 0.399057
vt 0.221315 0.419582
vt 0.210476 0.438203
vt 0.205768 0.450310
vt 0.185314 0.453681
vt 0.114418 0.513089
vt 0.154308 0.490559
vt 0.140770 0.487759
vt 0.359411 0.277949
vt 0.383844 0.296330
vt 0.317988 0.275174
vt 0.271403 0.274335
vt 0.230555 0.312218
vt 0.224123 0.319431
vt 0.361895 0.263031
vt 0.391221 0.278418
vt 0.388308 0.263371
vt 0.317780 0.263286
vt 0.455515 0.565481
vt 0.445109 0.564253
vt 0.452064 0.566089
vt 0.440304 0.557232
vt 0.430295 0.559875
vt 0.441377 0.566796
vt 0.419670 0.536887
vt 0.434568 0.547676
vt 0.457768 0.567925
vt 0.484158 0.617592
vt 0.500087 0.621668
vt 0.500099 0.590916
vt 0.500102 0.583090
vt 0.492996 0.583069
vt 0.491240 0.589928
vt 0.424626 0.565654
vt 0.490883 0.591322
vt 0.500098 0.592465
vt 0.015097 0.560161
vt 0.108679 0.645474
vt 0.107949 0.674350
vt 0.116664 0.665238
vt 0.108106 0.672221
vt 0.098057 0.680670
vt 0.098027 0.682270
vt 0.129278 0.656671
vt 0.128305 0.655740
vt 0.079869 0.577926
vt 0.127519 0.572900
vt 0.138598 0.571554
vt 0.176367 0.571865
vt 0.082821 0.631387
vt 0.103583 0.627749
vt 0.099970 0.621396
vt 0.367437 0.487530
vt 0.318495 0.501558
vt 0.373012 0.510822
vt 0.405347 0.511965
vt 0.398707 0.539218
vt 0.409982 0.514983
vt 0.361759 0.463810
vt 0.393860 0.484121
vt 0.383430 0.461832
vt 0.387322 0.449277
vt 0.293700 0.501674
vt 0.290486 0.512185
vt 0.387387 0.494149
vt 0.443448 0.573814
vt 0.461506 0.571477
vt 0.468751 0.574828
vt 0.420727 0.573769
vt 0.477619 0.588039
vt 0.483604 0.583054
vt 0.481276 0.583050
vt 0.476702 0.589289
vt 0.459411 0.612874
vt 0.084704 0.665495
vt 0.113038 0.607343
vt 0.109694 0.608709
vt 0.115343 0.605224
vt 0.115744 0.605475
vt 0.098843 0.653615
vt 0.013002 0.584167
vt 0.056167 0.585934
vt 0.011820 0.689803
vt 0.010393 0.710615
vt 0.018647 0.702834
vt 0.039885 0.691880
vt 0.057792 0.674153
vt 0.041629 0.650311
vt 0.048045 0.632439
vt 0.011889 0.620170
vt 0.008278 0.625523
vt 0.024610 0.625379
vt 0.012753 0.599338
vt 0.012636 0.606935
vt 0.031362 0.598484
vt 0.018013 0.636823
vt 0.116314 0.604760
vt 0.119609 0.602617
vt 0.119390 0.603352
vt 0.137862 0.583475
vt 0.181691 0.587085
vt 0.080366 0.586924
vt 0.131566 0.583116
vt 0.128847 0.625006
vt 0.109715 0.604108
vt 0.115078 0.604314
vt 0.115093 0.604231
vt 0.112878 0.603940
vt 0.112364 0.605494
vt 0.135450 0.623984
vt 0.143955 0.613285
vt 0.141931 0.617542
vt 0.152172 0.607510
vt 0.126848 0.609749
vt 0.124302 0.624118
vt 0.115604 0.602199
vt 0.115528 0.596746
vt 0.151361 0.607978
vt 0.117107 0.601796
vt 0.144072 0.612181
vt 0.323452 0.525887
vt 0.377293 0.547244
vt 0.325694 0.536401
vt 0.371924 0.552381
vt 0.446173 0.610245
vt 0.445804 0.590271
vt 0.445991 0.591314
vt 0.422271 0.601963
vt 0.359319 0.564444
vt 0.412310 0.592824
vt 0.416540 0.582347
vt 0.125023 0.599309
vt 0.124600 0.600174
vt 0.142748 0.643955
vt 0.162853 0.592347
vt 0.178905 0.589406
vt 0.153563 0.609142
vt 0.137628 0.648133
vt 0.143653 0.616140
vt 0.207901 0.570726
vt 0.252329 0.538519
vt 0.275656 0.524049
vt 0.260166 0.549750
vt 0.265768 0.556051
vt 0.275501 0.544502
vt 0.011170 0.722617
vt 0.027763 0.712663
vt 0.056589 0.693103
vt 0.071814 0.681994
vt 0.133039 0.633201
vt 0.090288 0.668525
vt 0.157195 0.613585
vt 0.153563 0.609142
vt 0.328839 0.551251
vt 0.275224 0.556014
vt 0.193519 0.587823
vt 0.084352 0.689994
vt 0.022993 0.653732
vt 0.011392 0.628095
vt 0.010776 0.637924
vt 0.011548 0.651771
vt 0.014510 0.655811
vt 0.011158 0.661293
vt 0.624386 0.416997
vt 0.626019 0.425481
vt 0.625385 0.433342
vt 0.618762 0.442527
vt 0.620119 0.462087
vt 0.609229 0.482647
vt 0.615856 0.491208
vt 0.600101 0.511799
vt 0.584241 0.537238
vt 0.577696 0.544228
vt 0.563971 0.551373
vt 0.368358 0.384042
vt 0.368016 0.394852
vt 0.374571 0.425282
vt 0.374101 0.434015
vt 0.381237 0.442546
vt 0.380208 0.462126
vt 0.390186 0.481797
vt 0.384115 0.490275
vt 0.401457 0.511827
vt 0.414392 0.537474
vt 0.425470 0.549436
vt 0.437811 0.553078
vn 0.047798 0.879982 0.472596
vn 0.047798 0.879982 0.472596
vn 0.047798 0.879982 0.472596
vn 0.568038 -0.454971 0.685809
vn 0.500242 -0.343489 0.794842
vn 0.500242 -0.343489 0.794842
vn 0.417982 -0.222075 0.880894
vn 0.287356 -0.793268 0.536798
vn 0.243372 -0.779904 0.576645
vn 0.243372 -0.779904 0.576645
vn 0.198487 -0.763653 0.614359
vn -0.157421 0.164678 0.973704
vn -0.242003 0.136233 0.960664
vn -0.242003 0.136233 0.960664
vn -0.324617 0.106681 0.939810
vn -0.047987 0.171804 0.983962
vn -0.051127 0.170382 0.984051
vn -0.051127 0.170382 0.984051
vn -0.054266 0.168957 0.984128
vn 0.745415 -0.159218 0.647307
vn 0.740317 -0.135374 0.658487
vn 0.740317 -0.135374 0.658487
vn 0.734685 -0.111433 0.669194
vn -0.038596 -0.009328 0.999211
vn -0.002815 0.016995 0.999852
vn -0.002815 0.016995 0.999852
vn 0.032973 0.043284 0.998519
vn -0.161606 0.058828 0.985101
vn -0.227730 0.020975 0.973498
vn -0.227730 0.020975 0.973498
vn -0.292501 -0.017003 0.956114
vn -0.385294 -0.415520 0.823949
vn -0.456560 0.188594 0.869474
vn -0.456560 0.188594 0.869474
vn -0.357938 0.722531 0.591464
vn 0.104874 0.033504 0.993921
vn -0.066412 -0.188449 0.979835
vn -0.066412 -0.188449 0.979835
vn -0.232464 -0.395552 0.888538
vn 0.120813 -0.490852 0.862826
vn 0.120813 -0.490852 0.862826
vn 0.120813 -0.490852 0.862826
vn -0.988033 0.072402 0.136193
vn -0.888974 -0.118554 0.442346
vn -0.965146 -0.200462 0.168247
vn -0.778794 -0.218922 0.587837
vn -0.946716 0.128259 0.295428
vn -0.949236 0.060481 0.308697
vn -0.949236 0.060481 0.308697
vn -0.947221 -0.007585 0.320492
vn -0.934785 0.061413 0.349864
vn -0.941198 0.038934 0.335606
vn -0.941198 0.038934 0.335606
vn -0.946904 0.016426 0.321096
vn -0.958524 0.124653 0.256309
vn -0.957700 0.112582 0.264831
vn -0.957700 0.112582 0.264831
vn -0.956667 0.100486 0.273295
vn 0.819721 0.116486 0.560792
vn 0.819704 0.117422 0.560622
vn 0.819704 0.117422 0.560622
vn 0.819687 0.118358 0.560451
vn 0.502180 0.100675 0.858883
vn 0.593847 -0.066445 0.801830
vn 0.593847 -0.066445 0.801830
vn 0.662005 -0.230934 0.713035
vn 0.119723 -0.401293 0.908092
vn 0.148591 -0.429119 0.890942
vn 0.148591 -0.429119 0.890942
vn 0.177177 -0.456130 0.872098
vn -0.640556 -0.317296 0.699294
vn -0.799806 -0.283811 0.528925
vn -0.770214 -0.238106 0.591672
vn -0.863225 -0.261018 0.432102
vn -0.841826 -0.367911 0.394932
vn 0.837616 0.052237 0.543756
vn 0.818231 0.080949 0.569161
vn 0.818231 0.080949 0.569161
vn 0.797336 0.109512 0.593517
vn 0.784566 0.475548 0.397882
vn 0.784566 0.475548 0.397882
vn 0.784566 0.475548 0.397882
vn 0.707236 0.652622 0.271851
vn 0.707236 0.652622 0.271851
vn 0.707236 0.652622 0.271851
vn 0.832647 0.241715 0.498271
vn 0.855996 0.140327 0.497573
vn 0.855996 0.140327 0.497573
vn 0.870080 0.037420 0.491488
vn 0.000617 0.363647 0.931536
vn -0.176319 0.086128 0.980558
vn -0.176319 0.086128 0.980558
vn -0.333731 -0.200929 0.921005
vn -0.367963 0.213614 0.904971
vn -0.321352 0.274081 0.906429
vn -0.321352 0.274081 0.906429
vn -0.272866 0.332949 0.902601
vn -0.937189 -0.041096 0.346394
vn -0.941958 -0.000192 0.335732
vn -0.941958 -0.000192 0.335732
vn -0.945022 0.040712 0.324463
vn -0.534955 -0.161316 0.829337
vn -0.700727 -0.160020 0.695252
vn -0.972841 -0.121427 0.197068
vn -0.942964 0.045644 0.329750
vn -0.923154 -0.083987 0.375144
vn -0.918281 -0.217950 0.330541
vn -0.635322 -0.392683 0.664956
vn 0.027886 0.999268 0.026192
vn 0.027886 0.999268 0.026192
vn 0.027886 0.999268 0.026192
vn -0.770929 -0.121787 0.625170
vn -0.601021 -0.274488 0.750620
vn -0.601021 -0.274488 0.750620
vn -0.390290 -0.408545 0.825085
vn 0.079198 -0.213682 0.973688
vn 0.020142 -0.184674 0.982593
vn 0.020142 -0.184674 0.982593
vn -0.039003 -0.154852 0.987167
vn -0.085700 -0.161071 0.983215
vn -0.118323 -0.168541 0.978567
vn -0.118323 -0.168541 0.978567
vn -0.150811 -0.175819 0.972802
vn 0.062885 0.057641 0.996355
vn 0.316146 -0.164901 0.934269
vn 0.357335 -0.239613 0.902717
vn 0.480429 -0.372152 0.794160
vn 0.426822 -0.374859 0.822985
vn 0.431631 0.066582 0.899590
vn 0.431631 0.066582 0.899590
vn 0.431631 0.066582 0.899590
vn 0.178295 -0.245594 0.952835
vn 0.148502 -0.216791 0.964857
vn 0.148502 -0.216791 0.964857
vn 0.118431 -0.187583 0.975083
vn -0.109096 -0.310384 0.944330
vn -0.109096 -0.310384 0.944330
vn -0.109096 -0.310384 0.944330
vn 0.315306 -0.101079 0.943591
vn 0.345225 -0.114908 0.931459
vn 0.345225 -0.114908 0.931459
vn 0.374718 -0.128596 0.918177
vn 0.316206 -0.755837 0.573344
vn 0.114954 -0.572385 0.811887
vn 0.114954 -0.572385 0.811887
vn -0.101363 -0.313917 0.944024
vn 0.644932 -0.213479 0.733819
vn 0.644932 -0.213479 0.733819
vn 0.644932 -0.213479 0.733819
vn 0.767471 0.609286 0.199395
vn 0.820853 0.485285 0.301162
vn 0.740460 0.627608 0.240473
vn 0.515017 0.851434 0.099086
vn 0.725288 0.636635 0.262018
vn 0.900480 0.358108 0.246769
vn 0.918329 0.287121 0.272460
vn 0.918329 0.287121 0.272460
vn 0.930651 0.214405 0.296512
vn 0.954966 0.050060 0.292463
vn 0.955607 0.048303 0.290657
vn 0.955607 0.048303 0.290657
vn 0.956242 0.046545 0.288850
vn 0.952371 0.165017 0.256433
vn 0.951437 0.154501 0.266266
vn 0.951437 0.154501 0.266266
vn 0.950304 0.143952 0.276043
vn 0.945052 -0.088680 0.314662
vn 0.928826 -0.015731 0.370183
vn 0.938411 -0.027253 0.344443
vn 0.955019 -0.050125 0.292278
vn 0.933414 0.003629 0.358782
vn 0.957216 0.090764 0.274772
vn 0.957440 0.138702 0.253121
vn 0.957440 0.138702 0.253121
vn 0.955015 0.186256 0.230771
vn 0.948593 -0.113237 0.295547
vn 0.949509 -0.150036 0.275538
vn 0.949509 -0.150036 0.275538
vn 0.948759 -0.186572 0.255045
vn 0.958768 -0.128037 0.253712
vn 0.950640 -0.025511 0.309247
vn 0.957818 -0.026344 0.286166
vn 0.941694 0.025957 0.335468
vn 0.934712 -0.023812 0.354608
vn 0.589971 -0.763243 0.263426
vn 0.619261 -0.731923 0.284261
vn 0.619261 -0.731923 0.284261
vn 0.647144 -0.698939 0.304449
vn 0.887589 -0.420780 0.187432
vn 0.648603 -0.725388 0.230492
vn 0.648603 -0.725388 0.230492
vn 0.311189 -0.919915 0.238575
vn 0.939634 -0.084820 0.331502
vn 0.915303 -0.305969 0.261922
vn 0.915303 -0.305969 0.261922
vn 0.841234 -0.510492 0.178109
vn 0.784342 -0.545685 0.295019
vn 0.803841 -0.509391 0.307180
vn 0.803841 -0.509391 0.307180
vn 0.821857 -0.472158 0.318775
vn 0.518430 -0.558019 0.647955
vn 0.523134 -0.555567 0.646278
vn 0.523134 -0.555567 0.646278
vn 0.527823 -0.553098 0.644582
vn 0.542012 -0.393920 0.742327
vn 0.542012 -0.393920 0.742327
vn 0.542012 -0.393920 0.742327
vn 0.082469 -0.261479 0.961680
vn 0.082469 -0.261479 0.961680
vn 0.082469 -0.261479 0.961680
vn 0.148171 0.385982 0.910529
vn 0.148171 0.385982 0.910529
vn 0.148171 0.385982 0.910529
vn -0.090793 -0.270114 0.958538
vn -0.449195 0.156627 0.879598
vn -0.449195 0.156627 0.879598
vn -0.665295 0.533750 0.522008
vn -0.148809 -0.187501 0.970927
vn -0.148809 -0.187501 0.970927
vn -0.148809 -0.187501 0.970927
vn -0.948072 0.024242 0.317129
vn -0.946707 0.027395 0.320930
vn -0.946707 0.027395 0.320930
vn -0.945316 0.030547 0.324722
vn -0.302288 0.060159 0.951317
vn -0.331875 0.052287 0.941873
vn -0.331875 0.052287 0.941873
vn -0.361121 0.044362 0.931463
vn -0.049418 0.066807 0.996541
vn -0.052249 0.066107 0.996444
vn -0.052249 0.066107 0.996444
vn -0.055080 0.065406 0.996337
vn 0.850173 0.026093 0.525857
vn 0.842578 0.032637 0.537584
vn 0.842578 0.032637 0.537584
vn 0.834783 0.039172 0.549184
vn 0.954373 0.025053 0.297566
vn 0.957549 0.018797 0.287657
vn 0.957549 0.018797 0.287657
vn 0.960585 0.012538 0.277705
vn -0.948628 0.100712 0.299938
vn -0.917751 0.350328 0.187094
vn -0.848660 0.457093 0.266164
vn -0.872451 0.473596 0.120566
vn -0.991046 0.130421 0.028596
vn -0.402217 0.212608 0.890516
vn -0.407799 0.198908 0.891143
vn -0.407799 0.198908 0.891143
vn -0.413292 0.185163 0.891574
vn -0.057272 0.244304 0.968006
vn -0.057203 0.244416 0.967982
vn -0.057203 0.244416 0.967982
vn -0.057133 0.244527 0.967958
vn 0.859052 0.098066 0.502406
vn 0.855399 0.117485 0.504471
vn 0.855399 0.117485 0.504471
vn 0.851407 0.136857 0.506336
vn 0.957202 0.110360 0.267554
vn 0.936273 0.205973 0.284550
vn 0.936273 0.205973 0.284550
vn 0.906104 0.299553 0.298738
vn -0.024794 -0.725555 0.687718
vn -0.024794 -0.725555 0.687718
vn -0.024794 -0.725555 0.687718
vn 0.056627 -0.786064 0.615546
vn 0.008252 -0.738381 0.674333
vn 0.022508 -0.755516 0.654744
vn -0.015963 -0.712304 0.701690
vn -0.020230 -0.702229 0.711664
vn -0.933432 -0.357882 -0.025014
vn -0.606658 -0.781084 0.147896
vn -0.763160 -0.644346 -0.049036
vn -0.074065 -0.954265 0.289642
vn -0.082535 -0.656238 0.750027
vn -0.082535 -0.656238 0.750027
vn -0.082535 -0.656238 0.750027
vn 0.031718 -0.117512 0.992565
vn 0.049635 -0.086760 0.994992
vn 0.049635 -0.086760 0.994992
vn 0.067489 -0.055897 0.996153
vn -0.191998 -0.799663 0.568925
vn -0.191998 -0.799663 0.568925
vn -0.191998 -0.799663 0.568925
vn 0.070354 0.340270 0.937692
vn 0.079564 0.345543 0.935024
vn 0.079115 0.212513 0.973950
vn 0.063441 -0.137907 0.988411
vn 0.068572 -0.101973 0.992421
vn 0.077118 0.050190 0.995758
vn 0.107227 -0.469204 0.876556
vn 0.107227 -0.469204 0.876556
vn 0.107227 -0.469204 0.876556
vn 0.435695 0.117686 0.892367
vn 0.435695 0.117686 0.892367
vn 0.435695 0.117686 0.892367
vn -0.039886 0.999139 -0.011423
vn -0.039886 0.999139 -0.011423
vn -0.039886 0.999139 -0.011423
vn -0.998943 -0.044105 -0.012930
vn -0.998943 -0.044105 -0.012930
vn -0.998943 -0.044105 -0.012930
vn -0.841110 0.417959 -0.343284
vn -0.868557 0.187539 -0.458735
vn -0.868557 0.187539 -0.458735
vn -0.837658 -0.055480 -0.543371
vn -0.985588 -0.105186 -0.132483
vn -0.994482 -0.085776 -0.060394
vn -0.994482 -0.085776 -0.060394
vn -0.997755 -0.065881 0.012037
vn 0.159292 0.522007 0.837935
vn 0.159292 0.522007 0.837935
vn 0.159292 0.522007 0.837935
vn 0.119532 0.500100 0.857679
vn -0.020683 0.572485 0.819654
vn -0.020683 0.572485 0.819654
vn -0.160352 0.629789 0.760035
vn -0.145036 0.471935 0.869622
vn -0.136617 0.471513 0.871213
vn -0.136617 0.471513 0.871213
vn -0.128188 0.471055 0.872740
vn 0.063684 0.880031 0.470628
vn 0.179238 0.739666 0.648667
vn 0.179238 0.739666 0.648667
vn 0.283185 0.551405 0.784703
vn 0.513893 0.129971 0.847951
vn 0.355913 0.356407 0.863886
vn 0.355913 0.356407 0.863886
vn 0.170711 0.555583 0.813748
vn -0.999998 -0.002101 -0.000065
vn -0.999998 -0.002101 -0.000065
vn -0.999998 -0.002101 -0.000065
vn -0.555636 -0.203325 0.806181
vn -0.400028 -0.252806 0.880947
vn -0.400028 -0.252806 0.880947
vn -0.231517 -0.294133 0.927300
vn -0.644850 -0.718519 -0.260574
vn -0.818180 -0.572498 0.053177
vn -0.824078 -0.548325 -0.142254
vn -0.781671 -0.591318 0.198329
vn -0.874300 -0.419535 0.244111
vn -0.948348 -0.312695 0.053459
vn -0.920681 -0.342509 0.187173
vn -0.981091 -0.180580 0.069646
vn -0.693101 -0.443964 0.567897
vn -0.994279 -0.087554 0.061189
vn -0.933719 -0.174727 0.312473
vn -0.994962 -0.072320 0.069436
vn -0.993554 -0.087802 0.071709
vn -0.548047 -0.219727 0.807072
vn -0.548047 -0.219727 0.807072
vn -0.548047 -0.219727 0.807072
vn -0.174153 0.206420 0.962840
vn -0.174153 0.206420 0.962840
vn -0.174153 0.206420 0.962840
vn -0.725565 -0.681384 0.096290
vn -0.713306 -0.689377 0.126311
vn -0.757354 -0.652977 0.005987
vn -0.411281 -0.303177 0.859612
vn -0.448358 -0.517436 0.728859
vn -0.448358 -0.517436 0.728859
vn -0.456570 -0.698384 0.551183
vn -0.956192 0.211728 0.202160
vn -0.983000 0.128335 0.131307
vn -0.998550 0.048118 -0.024137
vn -0.999233 -0.037707 -0.010575
vn -0.148112 -0.092846 0.984603
vn -0.016487 -0.131525 0.991176
vn 0.019563 -0.157198 0.987373
vn 0.103188 -0.187485 0.976833
vn 0.090870 -0.207144 0.974081
vn -0.877534 -0.422341 0.227073
vn -0.977665 -0.181506 -0.105954
vn -0.950453 -0.255128 0.177623
vn -0.999711 -0.021408 -0.010922
vn -0.003618 -0.717698 0.696345
vn -0.106869 -0.705466 0.700640
vn -0.071522 -0.715492 0.694950
vn -0.176958 -0.682545 0.709097
vn -0.158077 -0.696484 0.699944
vn -0.128606 -0.728355 0.673023
vn -0.128606 -0.728355 0.673023
vn -0.128606 -0.728355 0.673023
vn -0.044582 0.137973 0.989432
vn -0.044582 0.137973 0.989432
vn -0.044582 0.137973 0.989432
vn 0.290939 -0.455357 0.841430
vn -0.107801 -0.159079 0.981363
vn -0.107801 -0.159079 0.981363
vn -0.477827 0.179570 0.859904
vn 0.044768 0.013697 0.998904
vn 0.044768 0.013697 0.998904
vn 0.044768 0.013697 0.998904
vn -0.267229 -0.279273 0.922277
vn -0.092415 -0.147399 0.984750
vn -0.092415 -0.147399 0.984750
vn 0.087191 -0.007881 0.996161
vn 0.104740 0.332199 0.937376
vn 0.069698 0.207155 0.975822
vn 0.106995 0.329753 0.937984
vn 0.010614 0.045442 0.998911
vn 0.037617 0.109438 0.993282
vn 0.000977 -0.001900 0.999998
vn -0.069205 -0.031752 0.997097
vn -0.029777 0.005485 0.999542
vn -0.029777 0.005485 0.999542
vn 0.009739 0.042705 0.999040
vn -1.000000 -0.000206 0.000084
vn -1.000000 -0.000206 0.000084
vn -1.000000 -0.000206 0.000084
vn 0.670215 -0.740343 0.052005
vn 0.635468 -0.771952 0.016468
vn 0.635468 -0.771952 0.016468
vn 0.598516 -0.800882 -0.019127
vn -0.998209 -0.053738 0.026299
vn -0.998209 -0.053738 0.026299
vn -0.998209 -0.053738 0.026299
vn 0.066004 0.751323 0.656626
vn 0.196863 0.368382 0.908592
vn 0.196863 0.368382 0.908592
vn 0.282985 -0.098276 0.954076
vn -0.035769 -0.054232 0.997888
vn -0.035769 -0.054232 0.997888
vn -0.035769 -0.054232 0.997888
vn -0.091785 -0.135641 0.986497
vn -0.091785 -0.135641 0.986497
vn -0.091785 -0.135641 0.986497
vn -0.144298 -0.062605 0.987552
vn -0.063517 -0.113936 0.991456
vn -0.063517 -0.113936 0.991456
vn 0.017846 -0.164222 0.986262
vn 0.328864 0.142572 0.933553
vn 0.328864 0.142572 0.933553
vn 0.328864 0.142572 0.933553
vn -0.015826 -0.016779 0.999734
vn -0.015826 -0.016779 0.999734
vn -0.015826 -0.016779 0.999734
vn -0.285630 -0.481499 0.828598
vn -0.285630 -0.481499 0.828598
vn -0.285630 -0.481499 0.828598
vn 0.320383 0.615808 0.719816
vn 0.320383 0.615808 0.719816
vn 0.320383 0.615808 0.719816
vn 0.302158 0.303309 0.903717
vn 0.390399 0.203685 0.897831
vn 0.390399 0.203685 0.897831
vn 0.471712 0.100445 0.876013
vn 0.294149 0.764763 0.573249
vn 0.294149 0.764763 0.573249
vn 0.294149 0.764763 0.573249
vn 0.284664 0.132537 0.949421
vn 0.397285 0.013246 0.917600
vn 0.397285 0.013246 0.917600
vn 0.498812 -0.106414 0.860153
vn 0.261361 0.716319 0.646975
vn 0.261361 0.716319 0.646975
vn 0.261361 0.716319 0.646975
vn 0.179500 -0.169439 0.969056
vn 0.179500 -0.169439 0.969056
vn 0.179500 -0.169439 0.969056
vn 0.625486 -0.778494 -0.052112
vn 0.599235 -0.799728 -0.036773
vn 0.599235 -0.799728 -0.036773
vn 0.572161 -0.819862 -0.021383
vn -0.089219 0.977565 0.190807
vn -0.033347 0.945376 0.324272
vn -0.033347 0.945376 0.324272
vn 0.023257 0.892417 0.450611
vn 0.130333 0.948354 0.289202
vn 0.077667 0.970368 0.228809
vn 0.077667 0.970368 0.228809
vn 0.024465 0.985681 0.166835
vn -0.999999 -0.000401 -0.001205
vn -0.999999 -0.000401 -0.001205
vn -0.999999 -0.000401 -0.001205
vn 0.255488 -0.101124 0.961509
vn 0.149932 0.502726 0.851344
vn 0.149932 0.502726 0.851344
vn -0.013785 0.911562 0.410932
vn -0.007684 0.018179 0.999805
vn -0.003384 0.060973 0.998134
vn -0.036792 0.125131 0.991458
vn -0.102962 0.251343 0.962406
vn -0.051236 0.178250 0.982650
vn 0.044188 0.025698 0.998693
vn 0.047324 0.010325 0.998826
vn 0.047324 0.010325 0.998826
vn 0.050449 -0.005051 0.998714
vn 0.018229 -0.999188 -0.035931
vn 0.015351 -0.999295 -0.034271
vn 0.015351 -0.999295 -0.034271
vn 0.012472 -0.999390 -0.032610
vn -0.128392 0.339177 -0.931920
vn -0.118316 0.275684 -0.953939
vn -0.118316 0.275684 -0.953939
vn -0.107693 0.210919 -0.971553
vn 0.052215 -0.004510 0.998626
vn 0.052215 -0.004510 0.998626
vn 0.052215 -0.004510 0.998626
vn -0.017853 0.983406 0.180537
vn -0.022668 0.983552 0.179196
vn -0.022668 0.983552 0.179196
vn -0.027482 0.983674 0.177850
vn -0.152184 0.054314 0.986859
vn -0.045500 0.037688 0.998253
vn -0.045500 0.037688 0.998253
vn 0.061720 0.020619 0.997881
vn -0.996454 -0.083504 0.010368
vn -0.999284 -0.032433 -0.019496
vn -0.999284 -0.032433 -0.019496
vn -0.998608 0.018751 -0.049291
vn 0.102200 0.992901 0.060849
vn 0.063436 0.997517 0.030584
vn 0.063436 0.997517 0.030584
vn 0.024517 0.999699 0.000243
vn 0.022752 0.999711 -0.007773
vn 0.022752 0.999711 -0.007773
vn 0.022752 0.999711 -0.007773
vn -0.995571 0.093968 0.002969
vn -0.995571 0.093968 0.002969
vn -0.995571 0.093968 0.002969
vn -0.999890 0.004437 0.014179
vn -0.999890 0.004437 0.014179
vn -0.999890 0.004437 0.014179
vn 0.998182 0.059849 -0.007197
vn 0.995909 0.087657 -0.021948
vn 0.995909 0.087657 -0.021948
vn 0.992644 0.115377 -0.036677
vn 0.009133 0.998053 0.061693
vn 0.048533 0.996797 0.063563
vn 0.048533 0.996797 0.063563
vn 0.087859 0.993988 0.065333
vn -0.116302 0.044269 -0.992227
vn -0.183750 0.054224 -0.981476
vn -0.183750 0.054224 -0.981476
vn -0.250323 0.063921 -0.966050
vn 0.047639 0.997987 0.041859
vn 0.049623 0.998014 0.038794
vn 0.049623 0.998014 0.038794
vn 0.051606 0.998028 0.035729
vn 0.021624 0.999738 -0.007482
vn 0.021624 0.999738 -0.007482
vn 0.021624 0.999738 -0.007482
vn 0.051686 0.998662 -0.001656
vn 0.051686 0.998662 -0.001656
vn 0.051686 0.998662 -0.001656
vn -0.170912 0.176343 0.969377
vn -0.114425 0.109543 0.987374
vn -0.114425 0.109543 0.987374
vn -0.057025 0.041868 0.997495
vn 0.177833 0.107225 0.978202
vn 0.177833 0.107225 0.978202
vn 0.177833 0.107225 0.978202
vn -0.282328 -0.343732 0.895622
vn -0.279709 -0.385570 0.879260
vn -0.279709 -0.385570 0.879260
vn -0.276524 -0.426627 0.861118
vn 0.024528 0.040463 0.998880
vn 0.023901 0.059981 0.997913
vn 0.015637 0.218575 0.975695
vn 0.016754 0.360914 0.932448
vn 0.006972 0.371537 0.928392
vn 0.010354 0.233641 0.972268
vn 0.010721 0.186765 0.982346
vn 0.010721 0.186765 0.982346
vn 0.010721 0.186765 0.982346
vn -0.062814 0.781554 0.620667
vn -0.203968 0.542226 0.815100
vn -0.203968 0.542226 0.815100
vn -0.321664 0.240538 0.915791
vn 0.367703 0.452061 0.812672
vn 0.273335 0.324377 0.905576
vn 0.273335 0.324377 0.905576
vn 0.169717 0.185717 0.967835
vn -0.101999 0.577430 0.810044
vn -0.062115 0.375880 0.924584
vn -0.062115 0.375880 0.924584
vn -0.018794 0.153531 0.987965
vn -0.289472 -0.338826 0.895211
vn -0.289472 -0.338826 0.895211
vn -0.289472 -0.338826 0.895211
vn 0.101672 0.237496 0.966053
vn 0.101672 0.237496 0.966053
vn 0.101672 0.237496 0.966053
vn 0.355939 0.412853 0.838367
vn 0.450055 0.243367 0.859199
vn 0.426471 0.279585 0.860206
vn 0.377882 0.349126 0.857506
vn 0.458429 0.209601 0.863661
vn 0.612435 -0.789977 -0.029311
vn 0.596152 -0.801856 -0.040371
vn 0.596152 -0.801856 -0.040371
vn 0.579553 -0.813311 -0.051409
vn 0.040927 0.995146 0.089496
vn 0.030095 0.998295 0.050021
vn 0.030095 0.998295 0.050021
vn 0.019212 0.999761 0.010462
vn 0.103306 0.990000 0.096068
vn 0.103306 0.990000 0.096068
vn 0.103306 0.990000 0.096068
vn -0.999235 0.014030 -0.036507
vn -0.999638 0.026018 0.006877
vn -0.999638 0.026018 0.006877
vn -0.998015 0.037954 0.050247
vn 0.056211 0.998288 -0.016153
vn 0.067305 0.996665 0.046137
vn 0.067305 0.996665 0.046137
vn 0.078129 0.991050 0.108243
vn -0.443535 0.473838 0.760759
vn -0.232247 0.285093 0.929937
vn -0.232247 0.285093 0.929937
vn 0.004331 0.065304 0.997856
vn 0.243117 0.391851 0.887326
vn 0.243117 0.391851 0.887326
vn 0.243117 0.391851 0.887326
vn -0.155778 0.207151 0.965827
vn -0.043161 0.127083 0.990953
vn -0.043161 0.127083 0.990953
vn 0.070308 0.044508 0.996532
vn 0.130081 0.383543 0.914316
vn 0.130081 0.383543 0.914316
vn 0.130081 0.383543 0.914316
vn 0.068762 0.481389 0.873806
vn 0.068762 0.481389 0.873806
vn 0.068762 0.481389 0.873806
vn 0.292711 -0.181176 0.938880
vn 0.226067 -0.044658 0.973088
vn 0.226067 -0.044658 0.973088
vn 0.153940 0.092944 0.983699
vn -0.154787 0.205730 0.966290
vn -0.158772 0.194053 0.968057
vn -0.158772 0.194053 0.968057
vn -0.162733 0.182346 0.969674
vn -0.088747 -0.445982 0.890631
vn -0.131985 -0.225438 0.965276
vn -0.131985 -0.225438 0.965276
vn -0.167822 0.007748 0.985787
vn 0.115700 0.118682 0.986168
vn 0.244970 -0.006471 0.969509
vn 0.244970 -0.006471 0.969509
vn 0.366241 -0.131413 0.921194
vn -0.047376 -0.025562 0.998550
vn 0.003926 -0.109662 0.993961
vn 0.003926 -0.109662 0.993961
vn 0.055189 -0.192694 0.979706
vn 0.333038 0.126482 0.934392
vn 0.132225 0.089492 0.987172
vn 0.132225 0.089492 0.987172
vn -0.074468 0.048522 0.996042
vn -0.040904 -0.300170 0.953008
vn 0.002955 -0.331632 0.943404
vn 0.002955 -0.331632 0.943404
vn 0.046806 -0.362098 0.930964
vn 0.195114 -0.198690 0.960444
vn 0.195114 -0.198690 0.960444
vn 0.195114 -0.198690 0.960444
vn -0.158270 0.109194 -0.981340
vn -0.021191 -0.014411 -0.999672
vn -0.021191 -0.014411 -0.999672
vn 0.116616 -0.137520 -0.983610
vn 0.122309 -0.073730 -0.989750
vn -0.004285 0.031472 -0.999496
vn -0.004285 0.031472 -0.999496
vn -0.130761 0.135818 -0.982067
vn 0.122982 -0.144893 0.981775
vn 0.158464 -0.172952 0.972099
vn 0.158464 -0.172952 0.972099
vn 0.193607 -0.200640 0.960344
vn 0.057494 -0.127919 -0.990117
vn 0.057494 -0.127919 -0.990117
vn 0.057494 -0.127919 -0.990117
vn -0.144488 -0.061019 0.987623
vn -0.013180 -0.109151 0.993938
vn -0.013180 -0.109151 0.993938
vn 0.118386 -0.155143 0.980773
vn 0.136824 -0.207071 0.968711
vn 0.049317 0.003395 0.998777
vn 0.049317 0.003395 0.998777
vn -0.040797 0.213682 0.976051
vn -0.022379 0.762442 0.646670
vn -0.019738 0.765441 0.643203
vn -0.019738 0.765441 0.643203
vn -0.017096 0.768419 0.639718
vn 0.107333 0.505261 0.856266
vn 0.093993 0.518703 0.849772
vn 0.093993 0.518703 0.849772
vn 0.080616 0.531938 0.842937
vn -0.000376 0.544640 0.838670
vn 0.032476 0.645695 0.762905
vn 0.032476 0.645695 0.762905
vn 0.064774 0.735752 0.674146
vn 0.052447 -0.069854 0.996178
vn -0.045658 0.014619 0.998850
vn -0.045658 0.014619 0.998850
vn -0.142997 0.098846 0.984775
vn 0.040091 0.887396 0.459261
vn 0.057244 0.901772 0.428405
vn 0.057244 0.901772 0.428405
vn 0.074314 0.914837 0.396927
vn 0.174116 -0.064899 -0.982584
vn -0.014287 0.117602 -0.992958
vn -0.014287 0.117602 -0.992958
vn -0.201707 0.291998 -0.934907
vn -0.762358 0.275213 -0.585720
vn -0.762358 0.275213 -0.585720
vn -0.762358 0.275213 -0.585720
vn 0.066656 -0.103500 -0.992393
vn 0.066656 -0.103500 -0.992393
vn 0.066656 -0.103500 -0.992393
vn -0.070848 0.056808 0.995868
vn -0.018239 0.103178 0.994496
vn -0.018239 0.103178 0.994496
vn 0.034460 0.149040 0.988231
vn 0.180540 -0.246523 0.952172
vn 0.105218 -0.134295 0.985340
vn 0.105218 -0.134295 0.985340
vn 0.027857 -0.019465 0.999422
vn 0.028063 -0.157505 0.987119
vn 0.025516 -0.159488 0.986870
vn 0.025516 -0.159488 0.986870
vn 0.022969 -0.161470 0.986610
vn 0.009960 0.273954 0.961691
vn 0.009960 0.273954 0.961691
vn 0.009960 0.273954 0.961691
vn 0.165032 0.333578 0.928165
vn 0.165032 0.333578 0.928165
vn 0.165032 0.333578 0.928165
vn 0.193216 -0.269960 0.943286
vn 0.193216 -0.269960 0.943286
vn 0.193216 -0.269960 0.943286
vn 0.044769 0.001474 0.998996
vn 0.044769 0.001474 0.998996
vn 0.044769 0.001474 0.998996
vn 0.030381 -0.334324 0.941969
vn -0.022726 -0.307816 0.951174
vn -0.022726 -0.307816 0.951174
vn -0.075752 -0.280199 0.956949
vn -0.048226 0.879940 0.472631
vn -0.048226 0.879940 0.472631
vn -0.048226 0.879940 0.472631
vn -0.571287 -0.453420 0.684136
vn -0.503374 -0.342452 0.793310
vn -0.503374 -0.342452 0.793310
vn -0.420942 -0.221607 0.879601
vn -0.401765 -0.684977 0.607775
vn -0.371062 -0.666832 0.646257
vn -0.371062 -0.666832 0.646257
vn -0.339338 -0.646851 0.682960
vn 0.327164 0.106561 0.938940
vn 0.243993 0.136151 0.960172
vn 0.243993 0.136151 0.960172
vn 0.158810 0.164619 0.973489
vn 0.054751 0.168945 0.984104
vn 0.051572 0.170376 0.984029
vn 0.051572 0.170376 0.984029
vn 0.048393 0.171804 0.983942
vn -0.748311 -0.158449 0.644146
vn -0.743243 -0.134737 0.655313
vn -0.743243 -0.134737 0.655313
vn -0.737646 -0.110929 0.666013
vn 0.038923 -0.009323 0.999199
vn 0.002833 0.016999 0.999852
vn 0.002833 0.016999 0.999852
vn -0.033262 0.043286 0.998509
vn 0.163028 0.058826 0.984866
vn 0.229653 0.020998 0.973046
vn 0.229653 0.020998 0.973046
vn 0.294898 -0.016957 0.955378
vn 0.360800 0.721497 0.590986
vn 0.459774 0.188151 0.867875
vn 0.459774 0.188151 0.867875
vn 0.388208 -0.414985 0.822850
vn 0.234352 -0.395359 0.888127
vn 0.066957 -0.188410 0.979805
vn 0.066957 -0.188410 0.979805
vn -0.105746 0.033471 0.993830
vn -0.121940 -0.490737 0.862733
vn -0.121940 -0.490737 0.862733
vn -0.121940 -0.490737 0.862733
vn 0.777944 -0.273936 0.565476
vn 0.840329 -0.357326 0.407634
vn 0.516471 0.069890 0.853448
vn 0.947563 0.127191 0.293166
vn 0.950040 0.060012 0.306304
vn 0.950040 0.060012 0.306304
vn 0.948060 -0.007449 0.318004
vn 0.947720 0.016338 0.318685
vn 0.942106 0.038628 0.333082
vn 0.942106 0.038628 0.333082
vn 0.935800 0.060889 0.347234
vn 0.957347 0.103305 0.269844
vn 0.957986 0.110961 0.264480
vn 0.958606 0.113542 0.261120
vn 0.959150 0.123095 0.254713
vn -0.821840 0.117458 0.557479
vn -0.821863 0.116230 0.557703
vn -0.821863 0.116230 0.557703
vn -0.821884 0.115002 0.557926
vn -0.381713 -0.134158 0.914493
vn -0.485053 -0.301549 0.820848
vn -0.485053 -0.301549 0.820848
vn -0.565368 -0.454626 0.688240
vn 0.019097 -0.490090 0.871463
vn -0.050271 -0.547193 0.835496
vn -0.050271 -0.547193 0.835496
vn -0.119169 -0.599170 0.791703
vn 0.644240 -0.315994 0.696493
vn 0.773051 -0.236844 0.588470
vn 0.802444 -0.282110 0.525830
vn 0.865338 -0.259176 0.428973
vn 0.844175 -0.365440 0.392201
vn -0.799965 0.108826 0.590095
vn -0.820664 0.080421 0.565724
vn -0.820664 0.080421 0.565724
vn -0.839861 0.051869 0.540317
vn -0.787314 0.472772 0.395756
vn -0.787314 0.472772 0.395756
vn -0.787314 0.472772 0.395756
vn -0.710298 0.649865 0.270467
vn -0.710298 0.649865 0.270467
vn -0.710298 0.649865 0.270467
vn -0.834960 0.240118 0.495162
vn -0.858041 0.139428 0.494293
vn -0.858041 0.139428 0.494293
vn -0.871965 0.037250 0.488149
vn -0.000623 0.363648 0.931536
vn 0.177700 0.086255 0.980297
vn 0.177700 0.086255 0.980297
vn 0.336276 -0.200723 0.920124
vn 0.370797 0.213357 0.903874
vn 0.323938 0.273805 0.905591
vn 0.323938 0.273805 0.905591
vn 0.275184 0.332651 0.902007
vn 0.928686 -0.043417 0.368318
vn 0.935398 -0.015470 0.353258
vn 0.944264 0.005028 0.329151
vn 0.945861 0.040433 0.322043
vn 0.203352 -0.146723 0.968050
vn 0.566978 -0.133296 0.812876
vn 0.203352 -0.146723 0.968050
vn 0.749539 -0.114423 0.651996
vn 0.837847 -0.244414 0.488135
vn 0.878002 -0.202247 0.433830
vn 0.579153 -0.374940 0.723880
vn 0.513726 -0.346040 0.785075
vn -0.029430 0.999224 0.026195
vn -0.029430 0.999224 0.026195
vn -0.029430 0.999224 0.026195
vn 0.455656 -0.099231 0.884608
vn 0.401904 -0.127248 0.906797
vn 0.401904 -0.127248 0.906797
vn 0.346477 -0.154734 0.925209
vn -0.079860 -0.213660 0.973638
vn -0.020289 -0.184660 0.982593
vn -0.020289 -0.184660 0.982593
vn 0.039374 -0.154834 0.987156
vn 0.151998 -0.175815 0.972618
vn 0.119284 -0.168549 0.978449
vn 0.119284 -0.168549 0.978449
vn 0.086433 -0.161088 0.983148
vn -0.063414 0.057656 0.996320
vn -0.359727 -0.239137 0.901893
vn -0.318312 -0.164462 0.933611
vn -0.483466 -0.371395 0.792670
vn -0.429540 -0.374257 0.821844
vn -0.434577 0.066447 0.898180
vn -0.434577 0.066447 0.898180
vn -0.434577 0.066447 0.898180
vn 0.035595 -0.296136 0.954482
vn 0.064988 -0.269328 0.960853
vn 0.064988 -0.269328 0.960853
vn 0.094276 -0.242083 0.965665
vn 0.110055 -0.310322 0.944239
vn 0.110055 -0.310322 0.944239
vn 0.110055 -0.310322 0.944239
vn -0.214257 0.224283 0.950679
vn -0.215472 0.227086 0.949739
vn -0.215472 0.227086 0.949739
vn -0.216685 0.229886 0.948789
vn -0.296745 -0.459696 0.837032
vn -0.363361 -0.556427 0.747233
vn -0.363361 -0.556427 0.747233
vn -0.422035 -0.640995 0.641101
vn -0.549025 -0.446063 0.706823
vn -0.549025 -0.446063 0.706823
vn -0.549025 -0.446063 0.706823
vn -0.948898 0.094135 0.301215
vn -0.875390 0.385321 0.291924
vn -0.787132 0.569885 0.235912
vn -0.629179 0.756120 0.180044
vn -0.518094 0.849595 0.098828
vn -0.931743 0.212581 0.294387
vn -0.919599 0.284836 0.270566
vn -0.919599 0.284836 0.270566
vn -0.901997 0.355400 0.245138
vn -0.955642 0.049611 0.290324
vn -0.956253 0.047925 0.288589
vn -0.956253 0.047925 0.288589
vn -0.956858 0.046238 0.286853
vn -0.951055 0.142794 0.274052
vn -0.952181 0.153342 0.264269
vn -0.952181 0.153342 0.264269
vn -0.953108 0.163859 0.254430
vn -0.945853 -0.088345 0.312341
vn -0.943579 -0.075399 0.322450
vn -0.950898 -0.030629 0.307986
vn -0.952219 -0.001667 0.305412
vn -0.959061 0.059107 0.276963
vn -0.955813 0.184603 0.228786
vn -0.958206 0.137035 0.251124
vn -0.958206 0.137035 0.251124
vn -0.957946 0.089087 0.272768
vn -0.963994 0.046087 0.261900
vn -0.972458 -0.052241 0.227148
vn -0.972458 -0.052241 0.227148
vn -0.970276 -0.149996 0.189910
vn -0.936382 -0.294673 0.190672
vn -0.960491 -0.097845 0.260543
vn -0.958347 -0.146822 0.244980
vn -0.957255 -0.000369 0.289247
vn -0.956669 0.002186 0.291171
vn -0.582046 -0.785735 0.209386
vn -0.662980 -0.703412 0.256258
vn -0.662980 -0.703412 0.256258
vn -0.733622 -0.610170 0.299153
vn -0.889423 -0.417480 0.186110
vn -0.651107 -0.723381 0.229738
vn -0.651107 -0.723381 0.229738
vn -0.313644 -0.919130 0.238383
vn -0.843139 -0.507765 0.176893
vn -0.916453 -0.304231 0.259917
vn -0.916453 -0.304231 0.259917
vn -0.940559 -0.084362 0.328986
vn -0.824052 -0.469592 0.316894
vn -0.806217 -0.506663 0.305462
vn -0.806217 -0.506663 0.305462
vn -0.786912 -0.542809 0.293474
vn -0.521851 -0.556723 0.646321
vn -0.526357 -0.554362 0.644695
vn -0.526357 -0.554362 0.644695
vn -0.530847 -0.551985 0.643051
vn -0.545462 -0.393116 0.740224
vn -0.545462 -0.393116 0.740224
vn -0.545462 -0.393116 0.740224
vn -0.083156 -0.261427 0.961635
vn -0.083156 -0.261427 0.961635
vn -0.083156 -0.261427 0.961635
vn -0.149458 0.385864 0.910369
vn -0.149458 0.385864 0.910369
vn -0.149458 0.385864 0.910369
vn -0.475316 0.222189 0.851297
vn -0.080064 -0.026153 0.996447
vn -0.080064 -0.026153 0.996447
vn 0.334321 -0.268244 0.903479
vn 0.149970 -0.187551 0.970739
vn 0.149970 -0.187551 0.970739
vn 0.149970 -0.187551 0.970739
vn 0.946224 0.030220 0.322098
vn 0.947561 0.027167 0.318420
vn 0.947561 0.027167 0.318420
vn 0.948874 0.024114 0.314734
vn 0.363829 0.044333 0.930410
vn 0.334442 0.052252 0.940967
vn 0.334442 0.052252 0.940967
vn 0.304708 0.060116 0.950547
vn 0.055569 0.065405 0.996310
vn 0.052714 0.066106 0.996419
vn 0.052714 0.066106 0.996419
vn 0.049860 0.066805 0.996520
vn -0.837063 0.038924 0.545719
vn -0.846256 0.031161 0.531864
vn -0.846256 0.031161 0.531864
vn -0.855164 0.023389 0.517829
vn -0.960573 0.012114 0.277765
vn -0.957730 0.017283 0.287150
vn -0.957730 0.017283 0.287150
vn -0.954769 0.022450 0.296499
vn 0.948478 0.064496 0.310209
vn 0.851393 0.396329 0.343589
vn 0.923962 0.295518 0.242822
vn 0.888382 0.412959 0.200604
vn 0.995682 0.085378 0.036453
vn 0.395956 0.118589 0.910580
vn 0.391252 0.124781 0.911785
vn 0.391252 0.124781 0.911785
vn 0.386525 0.130965 0.912933
vn 0.051193 0.149355 0.987458
vn 0.053978 0.146680 0.987710
vn 0.053978 0.146680 0.987710
vn 0.056762 0.144003 0.987948
vn -0.864322 0.077902 0.496869
vn -0.862730 0.087550 0.498027
vn -0.862730 0.087550 0.498027
vn -0.861055 0.097189 0.499137
vn -0.951069 0.113774 0.287270
vn -0.951195 0.111065 0.287909
vn -0.951195 0.111065 0.287909
vn -0.951315 0.108356 0.288547
vn 0.025038 -0.725504 0.687762
vn 0.025038 -0.725504 0.687762
vn 0.025038 -0.725504 0.687762
vn -0.057234 -0.786014 0.615553
vn -0.022742 -0.755496 0.654759
vn -0.008330 -0.738375 0.674340
vn 0.016150 -0.712305 0.701684
vn 0.020463 -0.702241 0.711645
vn 0.249496 -0.968331 -0.009302
vn 0.013503 -0.897480 0.440848
vn 0.459036 -0.878173 0.134530
vn -0.145293 -0.805840 0.574031
vn 0.083051 -0.656423 0.749808
vn 0.083051 -0.656423 0.749808
vn 0.083051 -0.656423 0.749808
vn -0.068020 -0.055891 0.996117
vn -0.050025 -0.086756 0.994973
vn -0.050025 -0.086756 0.994973
vn -0.031966 -0.117510 0.992557
vn 0.193711 -0.799180 0.569023
vn 0.193711 -0.799180 0.569023
vn 0.193711 -0.799180 0.569023
vn -0.070900 0.340266 0.937652
vn -0.079707 0.212423 0.973922
vn -0.080167 0.345529 0.934977
vn -0.063941 -0.137859 0.988386
vn -0.077696 0.050113 0.995717
vn -0.069087 -0.102073 0.992375
vn -0.108115 -0.469132 0.876485
vn -0.108115 -0.469132 0.876485
vn -0.108115 -0.469132 0.876485
vn -0.438676 0.117731 0.890900
vn -0.438676 0.117731 0.890900
vn -0.438676 0.117731 0.890900
vn 0.040189 0.999130 -0.011111
vn 0.040189 0.999130 -0.011111
vn 0.040189 0.999130 -0.011111
vn 0.998990 -0.042735 -0.013877
vn 0.998990 -0.042735 -0.013877
vn 0.998990 -0.042735 -0.013877
vn 0.844267 0.413916 -0.340423
vn 0.871219 0.185836 -0.454359
vn 0.871219 0.185836 -0.454359
vn 0.840909 -0.054458 -0.538430
vn 0.986537 -0.101282 -0.128399
vn 0.994749 -0.082851 -0.060084
vn 0.994749 -0.082851 -0.060084
vn 0.997913 -0.064000 0.008537
vn -0.160668 0.521852 0.837769
vn -0.160668 0.521852 0.837769
vn -0.160668 0.521852 0.837769
vn 0.161641 0.629615 0.759906
vn 0.020771 0.572441 0.819683
vn 0.020771 0.572441 0.819683
vn -0.120654 0.499989 0.857586
vn 0.146266 0.471877 0.869447
vn 0.137854 0.471465 0.871044
vn 0.137854 0.471465 0.871044
vn 0.129432 0.471018 0.872576
vn -0.064222 0.879966 0.470676
vn -0.180626 0.739446 0.648532
vn -0.180626 0.739446 0.648532
vn -0.285301 0.550916 0.784280
vn -0.172186 0.555418 0.813549
vn -0.358401 0.356297 0.862903
vn -0.358401 0.356297 0.862903
vn -0.517104 0.129826 0.846019
vn 0.999996 -0.002705 0.000303
vn 0.999996 -0.002705 0.000303
vn 0.999996 -0.002705 0.000303
vn 0.233358 -0.294011 0.926877
vn 0.402939 -0.252459 0.879719
vn 0.402939 -0.252459 0.879719
vn 0.559341 -0.202649 0.803786
vn 0.947564 -0.302804 0.102138
vn 0.791372 -0.583246 0.183179
vn 0.639957 -0.698202 0.320887
vn 0.577113 -0.794450 0.189183
vn 0.814796 -0.379195 0.438542
vn 0.898372 -0.400971 0.179302
vn 0.880240 -0.407122 0.243779
vn 0.951084 -0.125531 0.282278
vn 0.692719 -0.453048 0.561148
vn 0.411839 -0.542768 0.731978
vn 0.524150 -0.679527 0.513333
vn 0.551889 -0.218716 0.804724
vn 0.551889 -0.218716 0.804724
vn 0.551889 -0.218716 0.804724
vn 0.175644 0.206219 0.962613
vn 0.175644 0.206219 0.962613
vn 0.175644 0.206219 0.962613
vn 0.597353 -0.454981 0.660426
vn 0.655789 -0.655534 0.374453
vn 0.648625 -0.611546 0.453098
vn 0.702099 -0.703236 0.111876
vn 0.722765 -0.688530 0.059476
vn 0.459666 -0.697194 0.550117
vn 0.451427 -0.516526 0.727608
vn 0.451427 -0.516526 0.727608
vn 0.414202 -0.302692 0.858379
vn 0.862970 0.270983 0.426439
vn 0.954828 0.175952 0.239466
vn 0.980135 -0.058579 0.189485
vn 0.149405 -0.092776 0.984414
vn 0.072386 -0.000194 0.997377
vn 0.135310 -0.097014 0.986042
vn 0.032888 0.046799 0.998363
vn -0.056389 0.193434 0.979492
vn 0.766442 -0.510901 0.389291
vn 0.825772 -0.371286 0.424555
vn 0.855842 -0.423392 0.297108
vn 0.913464 -0.319121 0.252477
vn 0.868783 -0.252904 0.425741
vn 0.003657 -0.717702 0.696340
vn 0.071868 -0.715539 0.694866
vn 0.107579 -0.705396 0.700602
vn 0.178381 -0.682180 0.709092
vn 0.159115 -0.696340 0.699852
vn 0.129714 -0.728053 0.673137
vn 0.129714 -0.728053 0.673137
vn 0.129714 -0.728053 0.673137
vn 0.040608 0.137476 0.989672
vn 0.040608 0.137476 0.989672
vn 0.040608 0.137476 0.989672
vn -0.293142 -0.455345 0.840671
vn 0.108459 -0.159122 0.981283
vn 0.108459 -0.159122 0.981283
vn 0.480906 0.179875 0.858123
vn -0.045213 0.013649 0.998884
vn -0.045213 0.013649 0.998884
vn -0.045213 0.013649 0.998884
vn -0.087903 -0.007904 0.996098
vn 0.093108 -0.147316 0.984697
vn 0.093108 -0.147316 0.984697
vn 0.269247 -0.279019 0.921767
vn -0.105634 0.332164 0.937288
vn -0.107919 0.329704 0.937896
vn -0.070304 0.207136 0.975783
vn -0.010691 0.045382 0.998913
vn -0.000981 -0.001915 0.999998
vn -0.037943 0.109408 0.993273
vn -0.009827 0.042701 0.999040
vn 0.030054 0.005490 0.999533
vn 0.030054 0.005490 0.999533
vn 0.069845 -0.031738 0.997053
vn 0.999999 0.001289 0.000006
vn 0.999999 0.001289 0.000006
vn 0.999999 0.001289 0.000006
vn -0.601518 -0.798649 -0.018326
vn -0.622789 -0.782389 0.001283
vn -0.622789 -0.782389 0.001283
vn -0.643375 -0.765267 0.020890
vn 0.998359 -0.052021 0.023934
vn 0.998359 -0.052021 0.023934
vn 0.998359 -0.052021 0.023934
vn -0.285173 -0.096987 0.953557
vn -0.198369 0.368996 0.908015
vn -0.198369 0.368996 0.908015
vn -0.066585 0.751309 0.656583
vn 0.036098 -0.054199 0.997878
vn 0.036098 -0.054199 0.997878
vn 0.036098 -0.054199 0.997878
vn 0.092589 -0.135500 0.986442
vn 0.092589 -0.135500 0.986442
vn 0.092589 -0.135500 0.986442
vn -0.018002 -0.164220 0.986259
vn 0.055606 -0.119189 0.991313
vn 0.055606 -0.119189 0.991313
vn 0.128798 -0.073267 0.988961
vn -0.331351 0.142385 0.932702
vn -0.331351 0.142385 0.932702
vn -0.331351 0.142385 0.932702
vn 0.015961 -0.016795 0.999732
vn 0.015961 -0.016795 0.999732
vn 0.015961 -0.016795 0.999732
vn 0.288310 -0.481035 0.827939
vn 0.288310 -0.481035 0.827939
vn 0.288310 -0.481035 0.827939
vn -0.322688 0.616103 0.718533
vn -0.322688 0.616103 0.718533
vn -0.322688 0.616103 0.718533
vn -0.474454 0.100212 0.874558
vn -0.392993 0.203261 0.896795
vn -0.392993 0.203261 0.896795
vn -0.304557 0.302702 0.903115
vn -0.296420 0.764131 0.572922
vn -0.296420 0.764131 0.572922
vn -0.296420 0.764131 0.572922
vn -0.502396 -0.106148 0.858097
vn -0.400460 0.013270 0.916218
vn -0.400460 0.013270 0.916218
vn -0.287300 0.132315 0.948658
vn -0.263331 0.715702 0.646860
vn -0.263331 0.715702 0.646860
vn -0.263331 0.715702 0.646860
vn -0.181153 -0.169117 0.968805
vn -0.181153 -0.169117 0.968805
vn -0.181153 -0.169117 0.968805
vn -0.575723 -0.817379 -0.020848
vn -0.605558 -0.794928 -0.037274
vn -0.605558 -0.794928 -0.037274
vn -0.634384 -0.771155 -0.053638
vn -0.025187 0.890474 0.454337
vn 0.032749 0.944718 0.326246
vn 0.032749 0.944718 0.326246
vn 0.089941 0.977510 0.190748
vn -0.024687 0.985675 0.166840
vn -0.078351 0.970313 0.228808
vn -0.078351 0.970313 0.228808
vn -0.131471 0.948202 0.289185
vn 0.999999 -0.000149 -0.001411
vn 0.999999 -0.000149 -0.001411
vn 0.999999 -0.000149 -0.001411
vn 0.013911 0.911560 0.410932
vn -0.151099 0.503289 0.850805
vn -0.151099 0.503289 0.850805
vn -0.257573 -0.099958 0.961075
vn 0.007750 0.018169 0.999805
vn 0.037122 0.125163 0.991441
vn 0.003413 0.060968 0.998134
vn 0.103887 0.251440 0.962281
vn 0.051698 0.178304 0.982616
vn -0.101162 0.010757 0.994812
vn -0.098857 0.021998 0.994858
vn -0.098857 0.021998 0.994858
vn -0.096540 0.033236 0.994774
vn -0.012590 -0.999389 -0.032614
vn -0.014597 -0.999323 -0.033763
vn -0.014597 -0.999323 -0.033763
vn -0.016605 -0.999252 -0.034912
vn 0.108587 0.210689 -0.971503
vn 0.119358 0.275792 -0.953778
vn 0.119358 0.275792 -0.953778
vn 0.129571 0.339607 -0.931600
vn -0.052759 -0.004228 0.998598
vn -0.052759 -0.004228 0.998598
vn -0.052759 -0.004228 0.998598
vn 0.018029 0.983403 0.180537
vn 0.022890 0.983547 0.179194
vn 0.022890 0.983547 0.179194
vn 0.027750 0.983667 0.177847
vn -0.043163 -0.029287 0.998639
vn 0.055627 -0.013709 0.998358
vn 0.055627 -0.013709 0.998358
vn 0.153861 0.002007 0.988090
vn 0.999844 0.014349 0.010344
vn 0.999210 -0.033509 -0.021359
vn 0.999210 -0.033509 -0.021359
vn 0.995284 -0.081256 -0.052991
vn -0.108414 0.992352 0.059030
vn -0.067589 0.997272 0.029665
vn -0.067589 0.997272 0.029665
vn -0.026592 0.999646 0.000223
vn -0.022959 0.999706 -0.007774
vn -0.022959 0.999706 -0.007774
vn -0.022959 0.999706 -0.007774
vn 0.995148 0.098345 0.002948
vn 0.995148 0.098345 0.002948
vn 0.995148 0.098345 0.002948
vn 0.999883 0.003940 0.014771
vn 0.999883 0.003940 0.014771
vn 0.999883 0.003940 0.014771
vn -0.992578 0.116107 -0.036170
vn -0.995889 0.087959 -0.021621
vn -0.995889 0.087959 -0.021621
vn -0.998190 0.059721 -0.007051
vn -0.009209 0.998053 0.061685
vn -0.048882 0.996783 0.063516
vn -0.048882 0.996783 0.063516
vn -0.088479 0.993939 0.065247
vn 0.251962 0.063740 -0.965636
vn 0.185066 0.054110 -0.981235
vn 0.185066 0.054110 -0.981235
vn 0.117279 0.044219 -0.992114
vn -0.048131 0.997967 0.041775
vn -0.050102 0.997992 0.038755
vn -0.050102 0.997992 0.038755
vn -0.052072 0.998004 0.035735
vn -0.021817 0.999734 -0.007483
vn -0.021817 0.999734 -0.007483
vn -0.021817 0.999734 -0.007483
vn -0.052210 0.998635 -0.001649
vn -0.052210 0.998635 -0.001649
vn -0.052210 0.998635 -0.001649
vn 0.057495 0.041872 0.997467
vn 0.115361 0.109544 0.987265
vn 0.115361 0.109544 0.987265
vn 0.172300 0.176336 0.969133
vn -0.179258 0.107181 0.977946
vn -0.179258 0.107181 0.977946
vn -0.179258 0.107181 0.977946
vn 0.278744 -0.426575 0.860428
vn 0.281960 -0.385458 0.878590
vn 0.281960 -0.385458 0.878590
vn 0.284604 -0.343559 0.894968
vn -0.024767 0.040299 0.998881
vn -0.015787 0.218441 0.975722
vn -0.024139 0.059708 0.997924
vn -0.016894 0.360912 0.932447
vn -0.007029 0.371536 0.928392
vn -0.010461 0.233455 0.972311
vn -0.010819 0.186777 0.982343
vn -0.010819 0.186777 0.982343
vn -0.010819 0.186777 0.982343
vn 0.300490 0.242745 0.922378
vn 0.190774 0.541636 0.818679
vn 0.190774 0.541636 0.818679
vn 0.059668 0.779795 0.623185
vn -0.370368 0.452245 0.811358
vn -0.275379 0.324586 0.904882
vn -0.275379 0.324586 0.904882
vn -0.171008 0.185869 0.967579
vn 0.017324 0.153178 0.988047
vn 0.057285 0.374900 0.925294
vn 0.057285 0.374900 0.925294
vn 0.094113 0.576117 0.811931
vn 0.267991 -0.354767 0.895724
vn 0.267991 -0.354767 0.895724
vn 0.267991 -0.354767 0.895724
vn -0.102131 0.237039 0.966117
vn -0.102131 0.237039 0.966117
vn -0.102131 0.237039 0.966117
vn -0.358623 0.412192 0.837548
vn -0.430819 0.276069 0.859175
vn -0.455088 0.238665 0.857866
vn -0.380757 0.347792 0.856776
vn -0.463440 0.204513 0.862205
vn -0.633832 -0.771609 -0.053629
vn -0.625728 -0.777827 -0.058735
vn -0.625728 -0.777827 -0.058735
vn -0.617542 -0.783943 -0.063833
vn -0.041308 0.995124 0.089564
vn -0.030224 0.998315 0.049526
vn -0.030224 0.998315 0.049526
vn -0.019088 0.999774 0.009402
vn -0.104155 0.989898 0.096201
vn -0.104155 0.989898 0.096201
vn -0.104155 0.989898 0.096201
vn 0.998119 0.038078 0.048055
vn 0.999649 0.026114 0.004583
vn 0.999649 0.026114 0.004583
vn 0.999144 0.014098 -0.038899
vn -0.056710 0.998262 -0.016057
vn -0.067897 0.996621 0.046231
vn -0.067897 0.996621 0.046231
vn -0.078812 0.990986 0.108333
vn -0.004368 0.065306 0.997856
vn 0.233943 0.284667 0.929643
vn 0.233943 0.284667 0.929643
vn 0.446623 0.472838 0.759574
vn -0.245013 0.391478 0.886969
vn -0.245013 0.391478 0.886969
vn -0.245013 0.391478 0.886969
vn 0.157116 0.206975 0.965648
vn 0.043522 0.127032 0.990943
vn 0.043522 0.127032 0.990943
vn -0.070940 0.044555 0.996485
vn -0.131220 0.383397 0.914214
vn -0.131220 0.383397 0.914214
vn -0.131220 0.383397 0.914214
vn -0.069372 0.481393 0.873755
vn -0.069372 0.481393 0.873755
vn -0.069372 0.481393 0.873755
vn -0.155280 0.092813 0.983501
vn -0.227849 -0.044554 0.972677
vn -0.227849 -0.044554 0.972677
vn -0.294891 -0.180840 0.938262
vn 0.156166 0.205625 0.966090
vn 0.160182 0.193955 0.967845
vn 0.160182 0.193955 0.967845
vn 0.164174 0.182255 0.969448
vn 0.169299 0.007862 0.985533
vn 0.133147 -0.225410 0.965123
vn 0.133147 -0.225410 0.965123
vn 0.089520 -0.446026 0.890532
vn -0.368997 -0.130879 0.920169
vn -0.246917 -0.006165 0.969017
vn -0.246917 -0.006165 0.969017
vn -0.116727 0.118751 0.986039
vn -0.055655 -0.192677 0.979683
vn -0.003940 -0.109630 0.993965
vn -0.003940 -0.109630 0.993965
vn 0.047813 -0.025512 0.998530
vn 0.075049 0.048566 0.995996
vn -0.133271 0.089403 0.987039
vn -0.133271 0.089403 0.987039
vn -0.335574 0.126205 0.933522
vn -0.047215 -0.362099 0.930943
vn -0.002989 -0.331638 0.943402
vn -0.002989 -0.331638 0.943402
vn 0.041246 -0.300169 0.952994
vn -0.080429 -0.040984 0.995917
vn -0.080429 -0.040984 0.995917
vn -0.080429 -0.040984 0.995917
vn -0.071049 -0.053287 0.996048
vn -0.086733 -0.065801 0.994056
vn -0.086733 -0.065801 0.994056
vn -0.102381 -0.078287 0.991660
vn -0.078212 -0.108831 0.990979
vn 0.028781 -0.077368 0.996587
vn 0.028781 -0.077368 0.996587
vn 0.135414 -0.044940 0.989769
vn -0.017153 -0.080951 0.996570
vn -0.010437 -0.065251 0.997814
vn -0.010437 -0.065251 0.997814
vn -0.003719 -0.049531 0.998766
vn 0.017238 0.768415 0.639719
vn 0.019914 0.765424 0.643219
vn 0.019914 0.765424 0.643219
vn 0.022588 0.762410 0.646700
vn -0.081294 0.531957 0.842860
vn -0.094800 0.518704 0.849682
vn -0.094800 0.518704 0.849682
vn -0.108268 0.505241 0.856160
vn -0.065334 0.735725 0.674122
vn -0.032757 0.645687 0.762899
vn -0.032757 0.645687 0.762899
vn 0.000379 0.544641 0.838669
vn -0.041046 -0.053856 0.997705
vn -0.041176 -0.053948 0.997694
vn -0.041176 -0.053948 0.997694
vn -0.041305 -0.054039 0.997684
vn -0.058236 0.902113 0.427553
vn -0.049344 0.894907 0.443516
vn -0.049344 0.894907 0.443516
vn -0.040432 0.887357 0.459307
vn 0.766474 0.273366 -0.581196
vn 0.766474 0.273366 -0.581196
vn 0.766474 0.273366 -0.581196
vn -0.034759 0.149033 0.988221
vn 0.018408 0.103172 0.994493
vn 0.018408 0.103172 0.994493
vn 0.071483 0.056798 0.995823
vn -0.028100 -0.019437 0.999416
vn -0.106188 -0.134268 0.985239
vn -0.106188 -0.134268 0.985239
vn -0.182207 -0.246482 0.951865
vn -0.023155 -0.161492 0.986602
vn -0.025765 -0.159480 0.986865
vn -0.025765 -0.159480 0.986865
vn -0.028375 -0.157466 0.987117
vn -0.010070 0.273975 0.961684
vn -0.010070 0.273975 0.961684
vn -0.010070 0.273975 0.961684
vn -0.166435 0.333620 0.927899
vn -0.166435 0.333620 0.927899
vn -0.166435 0.333620 0.927899
vn -0.194854 -0.269783 0.943000
vn -0.194854 -0.269783 0.943000
vn -0.194854 -0.269783 0.943000
vn -0.045171 0.001479 0.998978
vn -0.045171 0.001479 0.998978
vn -0.045171 0.001479 0.998978
vn 0.076378 -0.280156 0.956911
vn 0.022918 -0.307803 0.951174
vn 0.022918 -0.307803 0.951174
vn -0.030626 -0.334326 0.941960
vn -0.961050 -0.276151 0.011153
vn -0.869031 -0.313160 0.383034
vn -0.960544 -0.246304 0.129187
vn -0.767795 -0.091625 0.634111
vn -0.201773 -0.146812 0.968367
vn -0.201772 -0.146812 0.968367
vn -0.513006 0.069631 0.855556
vn -0.521015 -0.681011 0.514555
vn -0.415649 -0.535573 0.735117
vn -0.812232 -0.381624 0.441184
vn -0.860173 0.276173 0.428754
vn -0.763770 -0.513377 0.391278
vn -0.821562 -0.377397 0.427325
vn -0.866753 -0.255349 0.428411
vn -0.660023 -0.690499 0.295939
vn -0.579436 -0.799696 0.157293
vn -0.689560 -0.630350 0.356604
vn -0.622868 -0.418576 0.660931
vn -0.681731 -0.583933 0.440756
vn 0.165547 -0.881717 0.441780
vn 0.482058 -0.804347 0.347343
vn 0.914650 -0.056390 0.400295
vn 0.957051 0.102970 0.271018
vn 0.957398 0.100147 0.270850
vn 0.895239 -0.083472 0.437698
vn 0.943870 -0.128799 0.304171
vn 0.989179 0.113048 0.093512
vn 0.993349 0.022630 0.112896
vn 0.996470 -0.036440 0.075631
vn 0.876444 -0.471082 0.099640
vn 0.853966 -0.508024 0.112485
vn 0.976921 -0.213345 -0.010431
vn 0.999256 0.038574 -0.000007
vn 0.925742 0.373553 0.058825
vn 0.915127 -0.400685 0.044660
vn 0.922072 -0.383674 0.050769
vn 0.972501 -0.226998 0.052094
vn 0.860900 -0.505275 0.059563
vn 0.943094 -0.327698 0.056463
vn 0.961109 -0.264404 0.079752
vn 0.985890 -0.163075 -0.037769
vn 0.968382 -0.248593 0.020919
vn 0.987122 -0.156665 0.032358
vn 0.769512 -0.631250 -0.096822
vn 0.971160 0.162109 -0.174842
vn 0.822546 -0.478037 -0.308057
f 104/106/1 1/1/2 101/103/3
f 141/138/4 5/5/5 96/98/6
f 96/98/6 5/5/5 95/97/7
f 140/137/8 143/140/9 131/128/10
f 131/128/10 143/140/9 144/141/11
f 22/22/12 38/38/13 148/145/14
f 148/145/14 38/38/13 147/144/15
f 21/21/16 22/22/17 149/146/18
f 149/146/18 22/22/17 148/145/19
f 136/133/20 137/134/21 60/60/22
f 60/60/22 137/134/21 15/15/23
f 22/22/24 21/21/25 63/63/26
f 63/63/26 21/21/25 60/60/27
f 38/38/28 22/22/29 64/64/30
f 64/64/30 22/22/29 63/63/31
f 55/55/32 46/46/33 14/14/34
f 14/14/34 46/46/33 37/37/35
f 54/54/36 55/55/37 15/15/38
f 15/15/38 55/55/37 14/14/39
f 138/135/40 139/136/41 54/54/42
f 47/47/43 434/489/44 26/26/45
f 26/26/45 434/489/44 435/490/46
f 24/24/47 38/38/48 65/65/49
f 65/65/49 38/38/48 64/64/50
f 38/38/51 24/24/52 147/144/53
f 147/144/53 24/24/52 146/143/54
f 46/46/55 50/50/56 37/37/57
f 37/37/57 50/50/56 23/23/58
f 137/134/59 138/135/60 15/15/61
f 15/15/61 138/135/60 54/54/62
f 139/136/63 140/137/64 54/54/65
f 54/54/65 140/137/64 131/128/66
f 54/54/67 28/28/68 55/55/69
f 55/55/69 28/28/68 27/27/70
f 46/46/71 55/55/72 66/66/73
f 66/66/73 55/55/72 36/36/74
f 55/55/72 27/27/75 36/36/74
f 150/147/76 135/132/77 149/146/78
f 149/146/78 135/132/77 21/21/79
f 10/10/80 133/130/81 134/131/82
f 132/129/83 133/130/84 10/10/85
f 135/132/86 136/133/87 21/21/88
f 21/21/88 136/133/87 60/60/89
f 63/63/90 60/60/91 14/14/92
f 14/14/92 60/60/91 15/15/93
f 64/64/94 63/63/95 37/37/96
f 37/37/96 63/63/95 14/14/97
f 65/65/98 64/64/99 23/23/100
f 23/23/100 64/64/99 37/37/101
f 433/488/102 434/489/103 47/47/104
f 50/50/105 46/46/106 49/49/107
f 49/49/107 46/46/106 66/66/108
f 108/85/109 73/74/110 83/84/111
f 81/81/112 80/80/113 79/79/114
f 79/79/114 80/80/113 124/120/115
f 93/95/116 92/94/117 81/81/118
f 81/81/118 92/94/117 80/80/119
f 95/97/120 92/94/121 96/98/122
f 96/98/122 92/94/121 93/95/123
f 103/105/124 5/5/125 104/106/126
f 5/5/125 19/19/127 104/106/126
f 102/104/128 104/106/126 19/19/127
f 180/178/129 1/1/130 104/106/131
f 28/28/132 117/114/133 27/27/134
f 27/27/134 117/114/133 116/113/135
f 28/28/136 145/142/137 117/114/138
f 79/79/139 124/120/140 117/114/141
f 117/114/141 124/120/140 7/7/142
f 131/128/143 144/141/144 28/28/145
f 28/28/145 144/141/144 145/142/146
f 54/54/147 131/128/148 28/28/149
f 132/129/150 12/12/151 133/130/152
f 59/59/153 133/130/152 57/57/154
f 12/12/151 57/57/154 133/130/152
f 133/130/155 59/59/156 134/131/157
f 134/131/157 59/59/156 58/58/158
f 135/132/159 150/147/160 56/56/161
f 56/56/161 150/147/160 151/148/162
f 61/61/163 136/133/164 56/56/165
f 56/56/165 136/133/164 135/132/166
f 61/61/167 62/62/168 136/133/169
f 137/134/170 136/133/169 18/18/171
f 62/62/168 18/18/171 136/133/169
f 137/134/172 18/18/173 138/135/174
f 138/135/174 18/18/173 52/52/175
f 52/52/176 53/53/177 138/135/178
f 138/135/178 53/53/177 139/136/179
f 53/53/180 51/51/181 139/136/182
f 139/136/182 51/51/181 140/137/183
f 51/51/181 29/29/184 140/137/183
f 29/29/185 30/30/186 140/137/187
f 140/137/187 30/30/186 143/140/188
f 141/138/189 11/11/190 5/5/191
f 11/11/190 19/19/192 5/5/191
f 31/31/193 11/11/194 142/139/195
f 142/139/195 11/11/194 141/138/196
f 30/30/197 31/31/198 143/140/199
f 143/140/199 31/31/198 142/139/200
f 144/141/201 142/139/202 96/98/203
f 96/98/203 142/139/202 141/138/204
f 144/141/205 143/140/206 142/139/207
f 144/141/208 93/95/209 81/81/210
f 117/114/211 145/142/212 79/79/213
f 144/141/214 81/81/215 145/142/216
f 145/142/216 81/81/215 79/79/217
f 144/141/218 96/98/219 93/95/220
f 147/144/221 146/143/222 153/150/223
f 153/150/223 146/143/222 152/149/224
f 148/145/225 147/144/226 154/151/227
f 154/151/227 147/144/226 153/150/228
f 149/146/229 148/145/230 155/152/231
f 155/152/231 148/145/230 154/151/232
f 156/153/233 150/147/234 155/152/235
f 155/152/235 150/147/234 149/146/236
f 150/147/237 156/153/238 151/148/239
f 151/148/239 156/153/238 157/154/240
f 153/150/241 152/149/242 39/39/243
f 39/39/243 152/149/242 13/13/244
f 152/149/242 25/25/245 13/13/244
f 154/151/246 153/150/247 9/9/248
f 9/9/248 153/150/247 39/39/249
f 155/152/250 154/151/251 10/10/252
f 10/10/252 154/151/251 9/9/253
f 134/131/254 156/153/255 10/10/256
f 10/10/256 156/153/255 155/152/257
f 156/153/258 134/131/259 157/154/260
f 157/154/260 134/131/259 58/58/261
f 163/160/262 164/161/263 160/157/264
f 159/156/265 172/170/266 164/161/267
f 164/161/267 172/170/266 160/157/268
f 160/157/268 172/170/266 173/171/269
f 16/16/270 441/496/271 158/155/272
f 158/155/272 441/496/271 442/497/273
f 163/160/274 160/157/275 162/159/276
f 166/163/277 169/166/278 177/175/279
f 177/175/279 169/166/278 176/174/280
f 173/171/281 172/170/282 161/158/283
f 168/165/284 33/33/285 212/245/286
f 177/175/287 176/174/288 211/244/289
f 176/174/288 212/245/286 211/244/289
f 212/245/286 33/33/285 211/244/289
f 20/20/290 104/106/291 102/104/292
f 20/20/293 180/178/294 104/106/295
f 108/85/296 118/209/297 73/74/298
f 188/214/299 108/211/300 110/107/301
f 188/214/302 110/107/303 187/213/304
f 187/213/304 110/107/303 115/112/305
f 108/211/306 188/214/307 129/179/308
f 129/179/308 188/214/307 189/215/309
f 103/105/310 2/2/311 94/96/312
f 92/94/313 91/93/314 80/80/315
f 80/80/315 91/93/314 78/78/316
f 95/97/317 94/96/318 92/94/319
f 92/94/319 94/96/318 91/93/320
f 104/106/321 101/103/322 103/105/323
f 103/105/323 101/103/322 2/2/324
f 5/5/325 103/105/326 95/97/327
f 95/97/327 103/105/326 94/96/328
f 82/83/329 129/126/330 130/127/331
f 116/113/332 8/8/333 40/40/334
f 40/40/334 8/8/333 35/35/335
f 41/41/336 439/494/337 16/16/338
f 16/16/338 439/494/337 440/495/339
f 437/492/340 43/43/341 436/491/342
f 436/491/342 43/43/341 44/44/343
f 436/491/344 44/44/345 435/490/346
f 44/44/345 45/45/347 435/490/346
f 435/490/346 45/45/347 26/26/348
f 42/42/349 116/113/350 40/40/351
f 126/122/352 127/123/353 8/8/354
f 440/495/355 441/496/356 16/16/357
f 116/113/358 42/42/359 27/27/360
f 27/27/360 42/42/359 36/36/361
f 437/492/362 438/493/363 43/43/364
f 43/43/364 438/493/363 205/235/365
f 8/8/366 116/113/367 126/122/368
f 116/113/367 117/114/369 126/122/368
f 117/114/369 7/7/370 126/122/368
f 439/494/371 41/41/372 438/493/373
f 438/493/373 41/41/372 205/235/374
f 173/171/375 174/172/376 160/157/377
f 179/177/378 162/159/379 174/172/376
f 160/157/377 174/172/376 162/159/379
f 17/17/380 179/177/381 174/172/382
f 34/34/383 3/3/384 161/158/385
f 174/172/386 173/171/387 3/3/388
f 3/3/388 173/171/387 161/158/389
f 175/173/390 178/176/391 165/162/392
f 174/172/393 175/173/394 17/17/395
f 17/17/395 175/173/394 165/162/396
f 168/165/397 212/245/398 167/164/399
f 175/173/400 213/246/401 176/174/402
f 176/174/402 213/246/401 212/245/398
f 213/246/401 167/164/399 212/245/398
f 169/166/403 178/176/404 176/174/405
f 176/174/405 178/176/404 175/173/406
f 74/75/407 108/85/408 83/84/409
f 74/205/410 73/206/411 110/202/412
f 110/202/412 73/206/411 118/192/413
f 74/75/414 110/208/415 108/85/416
f 1/1/417 90/92/418 101/103/419
f 101/103/419 90/92/418 100/102/420
f 113/110/421 76/77/422 193/223/423
f 113/110/424 193/223/425 99/101/426
f 74/75/427 83/84/428 208/241/429
f 208/241/429 83/84/428 195/225/430
f 208/241/431 195/225/432 99/101/433
f 111/108/434 195/225/435 83/84/436
f 202/232/437 199/229/438 200/230/439
f 204/234/440 114/111/441 203/233/442
f 111/108/443 100/102/444 200/230/445
f 200/230/445 100/102/444 203/233/446
f 203/233/447 90/92/448 204/234/449
f 200/230/450 203/233/451 202/232/452
f 202/232/452 203/233/451 114/111/453
f 90/92/454 203/233/455 100/102/456
f 200/230/457 216/169/458 111/108/459
f 107/186/460 183/185/461 85/193/462
f 85/193/462 183/185/461 118/192/463
f 91/93/464 86/88/465 78/78/466
f 78/78/466 86/88/465 71/72/467
f 2/2/468 89/91/469 94/96/470
f 94/96/470 89/91/469 84/86/471
f 82/83/472 130/127/473 89/91/474
f 101/103/475 100/102/476 2/2/477
f 2/2/477 100/102/476 89/91/478
f 83/84/479 82/83/480 111/108/481
f 100/102/482 111/108/481 89/91/483
f 111/108/481 82/83/480 89/91/483
f 82/83/484 83/84/485 88/90/486
f 88/90/486 83/84/485 73/74/487
f 88/196/488 185/199/489 82/204/490
f 82/204/490 185/199/489 129/203/491
f 129/203/492 185/199/493 108/207/494
f 108/207/494 185/199/493 118/192/495
f 85/87/496 88/90/497 73/74/498
f 94/96/499 84/86/500 91/93/501
f 91/93/501 84/86/500 86/88/502
f 84/86/503 88/90/504 86/88/505
f 86/88/505 88/90/504 85/87/506
f 86/88/507 85/87/508 184/191/509
f 184/191/509 85/87/508 118/238/510
f 182/181/511 71/72/512 184/191/513
f 86/88/514 184/191/513 71/72/512
f 89/91/515 217/220/516 84/86/517
f 130/127/518 109/82/519 89/91/520
f 129/126/521 109/82/522 130/127/523
f 185/199/524 88/196/525 186/198/526
f 186/198/526 88/196/525 84/197/527
f 186/198/528 218/221/529 184/200/530
f 184/200/530 218/221/529 182/181/531
f 186/198/532 184/200/533 185/199/534
f 185/199/534 184/200/533 118/192/535
f 186/198/536 217/220/537 218/221/538
f 218/221/538 217/220/537 109/182/539
f 217/220/540 89/91/541 109/82/542
f 217/220/543 186/198/544 84/86/545
f 8/8/546 4/4/547 35/35/548
f 35/35/548 4/4/547 120/116/549
f 35/35/550 120/116/551 34/34/552
f 210/243/553 120/116/554 209/242/555
f 209/242/555 120/116/554 4/4/556
f 175/173/557 207/240/558 213/246/559
f 167/164/560 213/246/559 170/167/561
f 207/240/558 214/247/562 213/246/559
f 213/246/559 214/247/562 170/167/561
f 174/172/563 207/240/564 175/173/565
f 119/115/566 32/32/567 210/243/568
f 210/243/568 32/32/567 171/168/569
f 171/168/570 207/240/571 3/3/572
f 3/3/572 207/240/571 174/172/573
f 171/168/574 3/3/575 120/116/576
f 120/116/576 3/3/575 34/34/577
f 210/243/578 171/168/579 120/116/580
f 219/67/581 171/168/582 32/32/583
f 170/167/584 214/247/585 219/67/586
f 171/168/587 219/67/586 207/240/588
f 207/240/588 219/67/586 214/247/585
f 181/184/589 183/185/590 71/183/591
f 71/183/591 183/185/590 107/186/592
f 72/237/593 181/180/594 182/181/595
f 182/181/595 181/180/594 71/72/596
f 218/221/597 72/236/598 182/181/599
f 129/179/600 189/215/601 109/216/602
f 109/216/602 189/215/601 87/125/603
f 109/182/604 87/89/605 218/221/606
f 218/221/606 87/89/605 72/236/607
f 80/80/608 78/78/609 124/120/610
f 124/120/610 78/78/609 125/121/611
f 7/7/612 6/6/613 123/119/614
f 127/123/615 126/122/616 123/119/617
f 123/119/617 126/122/616 7/7/618
f 7/7/619 124/120/620 6/6/621
f 128/124/622 125/121/623 121/117/624
f 6/6/625 128/124/626 123/119/627
f 123/119/627 128/124/626 215/248/628
f 123/119/629 4/4/630 127/123/631
f 8/8/632 127/123/631 4/4/630
f 209/242/633 4/4/634 215/248/635
f 215/248/635 4/4/634 123/119/636
f 124/120/637 125/121/638 6/6/639
f 6/6/639 125/121/638 128/124/640
f 76/77/641 67/68/642 193/223/643
f 193/223/643 67/68/642 192/222/644
f 99/101/645 98/100/646 208/241/647
f 208/241/647 98/100/646 97/99/648
f 193/223/649 192/222/650 99/101/651
f 99/101/651 192/222/650 98/100/652
f 68/69/653 85/87/654 73/74/655
f 118/192/656 183/185/657 105/195/658
f 105/195/658 183/185/657 106/194/659
f 110/202/660 118/192/661 190/201/662
f 190/201/662 118/192/661 105/195/663
f 74/75/664 191/219/665 73/74/666
f 73/74/666 191/219/665 68/69/667
f 110/210/668 190/218/669 115/217/670
f 208/241/671 97/99/672 74/75/673
f 74/75/673 97/99/672 191/219/674
f 68/69/675 69/70/676 85/87/677
f 85/87/677 69/70/676 107/73/678
f 210/243/679 209/242/680 119/115/681
f 119/115/681 209/242/680 206/239/682
f 128/124/683 121/117/684 215/248/685
f 215/248/685 121/117/684 122/118/686
f 122/118/687 206/239/688 215/248/689
f 215/248/689 206/239/688 209/242/690
f 70/71/691 71/72/692 69/70/693
f 69/70/693 71/72/692 107/73/694
f 125/121/695 78/78/696 70/71/697
f 70/71/697 78/78/696 71/72/698
f 183/187/699 181/188/700 106/190/701
f 106/190/701 181/188/700 77/189/702
f 187/213/703 115/112/704 75/76/705
f 115/217/706 190/218/707 75/212/708
f 113/110/709 99/101/710 196/226/711
f 196/226/711 99/101/710 195/225/712
f 216/169/713 196/226/714 111/108/715
f 111/108/715 196/226/714 195/225/716
f 200/230/717 201/231/718 216/169/719
f 216/169/719 201/231/718 112/109/720
f 199/229/721 201/231/722 200/230/723
f 197/227/724 194/224/725 196/226/726
f 194/224/727 198/228/728 196/226/729
f 113/110/730 196/226/731 198/228/732
f 112/109/733 197/227/734 216/169/735
f 216/169/735 197/227/734 196/226/736
f 220/249/737 222/251/738 221/250/739
f 223/252/740 226/255/741 224/253/742
f 224/253/742 226/255/741 225/254/743
f 227/256/744 230/259/745 228/257/746
f 228/257/746 230/259/745 229/258/747
f 234/263/748 233/262/749 231/260/750
f 231/260/750 233/262/749 232/261/751
f 231/260/752 232/261/753 235/264/754
f 235/264/754 232/261/753 236/265/755
f 237/266/756 240/269/757 238/267/758
f 238/267/758 240/269/757 239/268/759
f 232/261/760 241/270/761 236/265/762
f 236/265/762 241/270/761 240/269/763
f 233/262/764 242/271/765 232/261/766
f 232/261/766 242/271/765 241/270/767
f 246/275/768 245/274/769 243/272/770
f 243/272/770 245/274/769 244/273/771
f 243/272/772 244/273/773 239/268/774
f 239/268/774 244/273/773 247/276/775
f 248/277/776 247/276/777 249/278/778
f 446/501/779 447/502/780 251/280/781
f 253/282/782 254/283/783 233/262/784
f 233/262/784 254/283/783 242/271/785
f 255/284/786 253/282/787 234/263/788
f 234/263/788 253/282/787 233/262/789
f 443/498/790 444/499/791 246/275/792
f 246/275/792 444/499/791 245/274/793
f 247/276/794 248/277/795 239/268/796
f 239/268/796 248/277/795 238/267/797
f 249/278/798 247/276/799 227/256/800
f 227/256/800 247/276/799 230/259/801
f 259/288/802 258/287/803 244/273/804
f 244/273/804 258/287/803 247/276/805
f 245/274/806 260/289/807 244/273/808
f 260/289/807 251/280/809 244/273/808
f 251/280/809 259/288/810 244/273/808
f 236/265/811 262/291/812 235/264/813
f 235/264/813 262/291/812 261/290/814
f 263/292/815 265/294/816 264/293/817
f 266/295/818 263/292/819 264/293/820
f 262/291/821 236/265/822 237/266/823
f 237/266/823 236/265/822 240/269/824
f 241/270/825 243/272/826 240/269/827
f 240/269/827 243/272/826 239/268/828
f 242/271/829 246/275/830 241/270/831
f 241/270/831 246/275/830 243/272/832
f 254/283/833 443/498/834 242/271/835
f 242/271/835 443/498/834 246/275/836
f 260/289/837 445/500/838 251/280/839
f 251/280/839 445/500/838 446/501/840
f 444/499/841 445/500/842 245/274/843
f 445/500/842 260/289/844 245/274/843
f 269/298/845 271/300/846 270/299/847
f 275/304/848 274/303/849 272/301/850
f 272/301/850 274/303/849 273/302/851
f 276/305/852 273/302/853 277/306/854
f 277/306/854 273/302/853 274/303/855
f 276/305/856 277/306/857 226/255/858
f 226/255/858 277/306/857 225/254/859
f 279/308/860 220/249/861 224/253/862
f 224/253/862 220/249/861 280/309/863
f 278/307/864 280/309/863 220/249/861
f 281/310/865 220/249/866 221/250/867
f 258/287/868 259/288/869 282/311/870
f 282/311/870 259/288/869 283/312/871
f 258/287/872 282/311/873 284/313/874
f 282/311/875 285/314/876 272/301/877
f 272/301/877 285/314/876 275/304/878
f 284/313/879 229/258/880 258/287/881
f 258/287/881 229/258/880 230/259/882
f 247/276/883 258/287/884 230/259/885
f 286/315/886 266/295/887 287/316/888
f 266/295/887 264/293/889 287/316/888
f 264/293/889 288/317/890 287/316/888
f 289/318/891 288/317/892 265/294/893
f 265/294/893 288/317/892 264/293/894
f 262/291/895 291/320/896 261/290/897
f 261/290/897 291/320/896 290/319/898
f 262/291/899 237/266/900 291/320/901
f 291/320/901 237/266/900 292/321/902
f 292/321/903 237/266/904 293/322/905
f 237/266/904 238/267/906 293/322/905
f 293/322/905 238/267/906 294/323/907
f 295/324/908 294/323/909 248/277/910
f 248/277/910 294/323/909 238/267/911
f 295/324/912 248/277/913 296/325/914
f 296/325/914 248/277/913 249/278/915
f 296/325/916 249/278/917 297/326/918
f 227/256/919 298/327/920 249/278/917
f 297/326/918 249/278/917 298/327/920
f 298/327/921 227/256/922 299/328/923
f 299/328/923 227/256/922 228/257/924
f 223/252/925 224/253/926 300/329/927
f 300/329/927 224/253/926 280/309/928
f 223/252/929 300/329/930 301/330/931
f 301/330/931 300/329/930 302/331/932
f 301/330/933 302/331/934 228/257/935
f 228/257/935 302/331/934 299/328/936
f 229/258/937 226/255/938 301/330/939
f 301/330/939 226/255/938 223/252/940
f 229/258/941 301/330/942 228/257/943
f 229/258/944 273/302/945 276/305/946
f 282/311/947 272/301/948 284/313/949
f 284/313/950 272/301/951 229/258/952
f 229/258/952 272/301/951 273/302/953
f 229/258/954 276/305/955 226/255/956
f 304/333/957 255/284/958 303/332/959
f 303/332/959 255/284/958 234/263/960
f 303/332/961 234/263/962 305/334/963
f 305/334/963 234/263/962 231/260/964
f 305/334/965 231/260/966 306/335/967
f 306/335/967 231/260/966 235/264/968
f 235/264/969 261/290/970 306/335/971
f 306/335/971 261/290/970 307/336/972
f 308/337/973 307/336/974 290/319/975
f 290/319/975 307/336/974 261/290/976
f 303/332/977 309/338/978 304/333/979
f 309/338/978 311/340/980 304/333/979
f 311/340/980 310/339/981 304/333/979
f 309/338/982 303/332/983 312/341/984
f 312/341/984 303/332/983 305/334/985
f 312/341/986 305/334/987 263/292/988
f 263/292/988 305/334/987 306/335/989
f 306/335/990 307/336/991 263/292/992
f 263/292/992 307/336/991 265/294/993
f 308/337/994 289/318/995 307/336/996
f 307/336/996 289/318/995 265/294/997
f 313/342/998 315/344/999 314/343/1000
f 316/345/1001 314/343/1002 317/346/1003
f 314/343/1002 315/344/1004 317/346/1003
f 315/344/1004 318/347/1005 317/346/1003
f 454/509/1006 316/345/1007 453/508/1008
f 453/508/1008 316/345/1007 317/346/1009
f 313/342/1010 321/350/1011 315/344/1012
f 324/356/1013 323/355/1014 177/353/1015
f 177/353/1015 323/355/1014 166/354/1016
f 318/347/1017 325/357/1018 317/346/1019
f 322/351/1020 326/358/1021 33/352/1022
f 177/353/1023 211/359/1024 324/356/1025
f 324/356/1025 211/359/1024 326/358/1021
f 326/358/1021 211/359/1024 33/352/1022
f 327/360/1026 278/307/1027 220/249/1028
f 327/360/1029 220/249/1030 281/310/1031
f 269/298/1032 270/299/1033 328/361/1034
f 329/362/1035 330/364/1036 269/363/1037
f 329/362/1038 332/366/1039 330/364/1040
f 330/364/1040 332/366/1039 331/365/1041
f 269/363/1042 334/368/1043 329/362/1044
f 329/362/1044 334/368/1043 333/367/1045
f 279/308/1046 336/370/1047 335/369/1048
f 338/372/1049 337/371/1050 274/303/1051
f 274/303/1051 337/371/1050 277/306/1052
f 225/254/1053 277/306/1054 336/370/1055
f 336/370/1055 277/306/1054 337/371/1056
f 220/249/1057 279/308/1058 222/251/1059
f 222/251/1059 279/308/1058 335/369/1060
f 336/370/1061 279/308/1062 225/254/1063
f 225/254/1063 279/308/1062 224/253/1064
f 339/373/1065 340/375/1066 334/374/1067
f 343/378/1068 342/377/1069 341/376/1070
f 341/376/1070 342/377/1069 283/312/1071
f 451/506/1072 452/507/1073 343/378/1074
f 343/378/1074 452/507/1073 345/380/1075
f 347/382/1076 448/503/1077 449/504/1078
f 447/502/1079 448/503/1080 251/280/1081
f 251/280/1081 448/503/1080 347/382/1082
f 347/382/1083 341/376/1084 283/312/1085
f 351/386/1086 342/377/1087 352/387/1088
f 325/357/1089 345/380/1090 317/346/1091
f 317/346/1091 345/380/1090 453/508/1092
f 345/380/1090 452/507/1093 453/508/1092
f 251/280/1094 347/382/1095 259/288/1096
f 259/288/1096 347/382/1095 283/312/1097
f 347/382/1098 449/504/1099 450/505/1100
f 342/377/1101 351/386/1102 283/312/1103
f 283/312/1103 351/386/1102 282/311/1104
f 351/386/1102 285/314/1105 282/311/1104
f 343/378/1106 341/376/1107 451/506/1108
f 451/506/1108 341/376/1107 450/505/1109
f 341/376/1107 347/382/1110 450/505/1109
f 318/347/1111 315/344/1112 354/389/1113
f 355/390/1114 354/389/1113 321/350/1115
f 315/344/1112 321/350/1115 354/389/1113
f 356/391/1116 354/389/1117 355/390/1118
f 345/380/1119 325/357/1120 357/392/1121
f 354/389/1122 357/392/1123 318/347/1124
f 318/347/1124 357/392/1123 325/357/1125
f 358/393/1126 360/395/1127 359/394/1128
f 360/395/1129 358/393/1130 356/391/1131
f 356/391/1131 358/393/1130 354/389/1132
f 322/351/1133 362/397/1134 326/358/1135
f 358/393/1136 324/356/1137 361/396/1138
f 324/356/1137 326/358/1135 361/396/1138
f 361/396/1138 326/358/1135 362/397/1134
f 358/393/1139 359/394/1140 324/356/1141
f 324/356/1141 359/394/1140 323/355/1142
f 363/398/1143 271/300/1144 269/298/1145
f 328/402/1146 270/401/1147 330/399/1148
f 330/399/1148 270/401/1147 363/400/1149
f 363/398/1150 269/298/1151 330/403/1152
f 365/405/1153 364/404/1154 222/251/1155
f 222/251/1155 364/404/1154 221/250/1156
f 366/406/1157 368/408/1158 367/407/1159
f 366/406/1160 369/409/1161 368/408/1162
f 371/411/1163 271/300/1164 370/410/1165
f 370/410/1165 271/300/1164 363/398/1166
f 370/410/1167 369/409/1168 371/411/1169
f 372/412/1170 271/300/1171 371/411/1172
f 373/413/1173 375/415/1174 374/414/1175
f 376/416/1176 378/418/1177 377/417/1178
f 378/418/1179 365/405/1180 375/415/1181
f 375/415/1181 365/405/1180 372/412/1182
f 378/418/1183 376/416/1184 364/404/1185
f 377/417/1186 378/418/1187 373/413/1188
f 373/413/1188 378/418/1187 375/415/1189
f 364/404/1190 365/405/1191 378/418/1192
f 375/415/1193 372/412/1194 379/419/1195
f 328/402/1196 382/422/1197 380/420/1198
f 380/420/1198 382/422/1197 381/421/1199
f 384/424/1200 383/423/1201 338/372/1202
f 338/372/1202 383/423/1201 337/371/1203
f 386/426/1204 385/425/1205 336/370/1206
f 336/370/1206 385/425/1205 335/369/1207
f 339/373/1208 385/425/1209 340/375/1210
f 385/425/1211 365/405/1212 335/369/1213
f 335/369/1213 365/405/1212 222/251/1214
f 271/300/1215 372/412/1216 339/373/1217
f 365/405/1218 385/425/1219 372/412/1216
f 372/412/1216 385/425/1219 339/373/1217
f 270/299/1220 271/300/1221 387/427/1222
f 387/427/1222 271/300/1221 339/373/1223
f 334/431/1224 388/430/1225 339/428/1226
f 339/428/1226 388/430/1225 387/429/1227
f 328/402/1228 388/430/1229 269/432/1230
f 269/432/1230 388/430/1229 334/431/1231
f 380/433/1232 270/299/1233 387/427/1234
f 336/370/1235 337/371/1236 386/426/1237
f 386/426/1237 337/371/1236 383/423/1238
f 380/433/1239 387/427/1240 383/423/1241
f 383/423/1241 387/427/1240 386/426/1242
f 389/434/1243 328/435/1244 383/423/1245
f 383/423/1245 328/435/1244 380/433/1246
f 390/436/1247 389/434/1248 384/424/1249
f 383/423/1250 384/424/1249 389/434/1248
f 385/425/1251 386/426/1252 391/437/1253
f 340/375/1254 385/425/1255 392/438/1256
f 334/374/1257 340/375/1258 392/438/1259
f 386/440/1260 387/429/1261 393/439/1262
f 393/439/1262 387/429/1261 388/430/1263
f 393/439/1264 389/442/1265 394/441/1266
f 394/441/1266 389/442/1265 390/436/1267
f 328/402/1268 389/442/1269 388/430/1270
f 388/430/1270 389/442/1269 393/439/1271
f 393/439/1272 394/441/1273 391/437/1274
f 391/437/1274 394/441/1273 392/443/1275
f 391/437/1276 392/438/1277 385/425/1278
f 391/437/1279 386/426/1280 393/439/1281
f 396/445/1282 395/444/1283 343/378/1284
f 343/378/1284 395/444/1283 342/377/1285
f 343/378/1286 345/380/1287 396/445/1288
f 395/444/1289 396/445/1290 397/446/1291
f 397/446/1291 396/445/1290 398/447/1292
f 358/393/1293 361/396/1294 400/449/1295
f 362/397/1296 399/448/1297 361/396/1294
f 400/449/1295 361/396/1294 401/450/1298
f 361/396/1294 399/448/1297 401/450/1298
f 354/389/1299 358/393/1300 400/449/1301
f 405/454/1302 404/453/1303 398/447/1304
f 398/447/1304 404/453/1303 403/452/1305
f 405/454/1306 357/392/1307 400/449/1308
f 400/449/1308 357/392/1307 354/389/1309
f 345/380/1310 357/392/1311 396/445/1312
f 396/445/1312 357/392/1311 405/454/1313
f 398/447/1314 396/445/1315 405/454/1316
f 402/451/1317 404/453/1318 405/454/1319
f 399/448/1320 402/451/1321 401/450/1322
f 405/454/1323 400/449/1324 402/451/1321
f 400/449/1324 401/450/1322 402/451/1321
f 381/421/1325 382/422/1326 384/455/1327
f 384/455/1327 382/422/1326 406/456/1328
f 408/458/1329 390/436/1330 406/459/1331
f 390/436/1330 384/424/1332 406/459/1331
f 394/441/1333 390/436/1334 408/460/1335
f 407/457/1336 333/367/1337 392/461/1338
f 392/461/1338 333/367/1337 334/368/1339
f 392/443/1340 394/441/1341 407/462/1342
f 407/462/1342 394/441/1341 408/460/1343
f 409/463/1344 338/372/1345 275/304/1346
f 275/304/1346 338/372/1345 274/303/1347
f 285/314/1348 411/465/1349 410/464/1350
f 352/387/1351 411/465/1352 351/386/1353
f 351/386/1353 411/465/1352 285/314/1354
f 285/314/1355 410/464/1356 275/304/1357
f 412/466/1358 413/467/1359 409/463/1360
f 414/468/1361 412/466/1362 411/465/1363
f 411/465/1363 412/466/1362 410/464/1364
f 411/465/1365 352/387/1366 395/444/1367
f 342/377/1368 395/444/1367 352/387/1366
f 411/465/1369 395/444/1370 414/468/1371
f 414/468/1371 395/444/1370 397/446/1372
f 412/466/1373 409/463/1374 410/464/1375
f 410/464/1375 409/463/1374 275/304/1376
f 416/470/1377 415/469/1378 368/408/1379
f 368/408/1379 415/469/1378 367/407/1380
f 418/472/1381 417/471/1382 370/410/1383
f 370/410/1383 417/471/1382 369/409/1384
f 417/471/1385 416/470/1386 369/409/1387
f 369/409/1387 416/470/1386 368/408/1388
f 419/473/1389 270/299/1390 380/433/1391
f 419/473/1392 420/474/1393 270/299/1394
f 270/299/1394 420/474/1393 363/398/1395
f 420/474/1396 418/472/1397 363/398/1398
f 363/398/1398 418/472/1397 370/410/1399
f 381/476/1400 421/475/1401 380/433/1402
f 380/433/1402 421/475/1401 419/473/1403
f 422/477/1404 397/446/1405 403/452/1406
f 403/452/1406 397/446/1405 398/447/1407
f 423/478/1408 413/467/1409 414/468/1410
f 414/468/1410 413/467/1409 412/466/1411
f 397/446/1412 422/477/1413 414/468/1414
f 414/468/1414 422/477/1413 423/478/1415
f 381/476/1416 384/424/1417 421/475/1418
f 421/475/1418 384/424/1417 424/479/1419
f 384/424/1420 338/372/1421 424/479/1422
f 424/479/1422 338/372/1421 409/463/1423
f 332/366/1424 425/480/1425 331/365/1426
f 371/411/1427 369/409/1428 426/481/1429
f 426/481/1429 369/409/1428 366/406/1430
f 371/411/1431 426/481/1432 372/412/1433
f 372/412/1433 426/481/1432 379/419/1434
f 428/483/1435 427/482/1436 379/419/1437
f 379/419/1437 427/482/1436 375/415/1438
f 374/414/1439 375/415/1440 427/482/1441
f 429/484/1442 426/481/1443 430/485/1444
f 430/485/1445 426/481/1446 431/486/1447
f 366/406/1448 431/486/1449 426/481/1450
f 426/481/1451 429/484/1452 379/419/1453
f 379/419/1453 429/484/1452 428/483/1454
f 48/48/1455 432/487/1456 47/47/1457
f 47/47/1457 432/487/1456 433/488/1458
f 49/49/107 432/487/1456 48/48/1455
f 49/49/107 66/66/108 432/487/1456
f 433/488/1458 432/487/1456 66/66/108
f 66/66/1459 36/36/1460 433/488/102
f 433/488/102 36/36/1460 434/489/103
f 435/490/46 434/489/44 36/36/1461
f 42/42/1462 436/491/344 36/36/1463
f 36/36/1463 436/491/344 435/490/346
f 42/42/1464 437/492/340 436/491/342
f 42/42/1465 438/493/363 437/492/362
f 35/35/1466 439/494/371 40/40/1467
f 439/494/371 438/493/373 40/40/1467
f 40/40/1467 438/493/373 42/42/1468
f 439/494/337 35/35/1469 440/495/339
f 440/495/339 35/35/1469 34/34/1470
f 440/495/355 34/34/1471 441/496/356
f 161/158/1472 172/170/1473 34/34/1471
f 34/34/1471 172/170/1473 441/496/356
f 441/496/271 172/170/1474 442/497/273
f 442/497/273 172/170/1474 159/156/1475
f 254/283/833 257/286/1476 443/498/834
f 444/499/791 443/498/790 256/285/1477
f 256/285/1477 443/498/790 257/286/1478
f 256/285/1479 268/297/1480 444/499/841
f 444/499/841 268/297/1480 445/500/842
f 250/279/1481 445/500/842 267/296/1482
f 268/297/1480 267/296/1482 445/500/842
f 446/501/840 445/500/838 250/279/1483
f 252/281/1484 447/502/780 250/279/1485
f 250/279/1485 447/502/780 446/501/779
f 448/503/1080 447/502/1079 349/384/1486
f 349/384/1486 447/502/1079 350/385/1487
f 447/502/1079 252/281/1488 350/385/1487
f 449/504/1078 448/503/1077 348/383/1489
f 348/383/1489 448/503/1077 349/384/1490
f 449/504/1099 348/383/1491 450/505/1100
f 450/505/1100 348/383/1491 353/388/1492
f 451/506/1108 450/505/1109 344/379/1493
f 344/379/1493 450/505/1109 353/388/1494
f 452/507/1073 451/506/1072 319/348/1495
f 344/379/1496 346/381/1497 451/506/1072
f 346/381/1497 319/348/1495 451/506/1072
f 453/508/1092 452/507/1093 319/348/1498
f 319/348/1499 320/349/1500 453/508/1008
f 453/508/1008 320/349/1500 454/509/1006
