# This file uses centimeters as units for non-parametric coordinates.

v -0.522890 0.718629 -0.002440
v 0.640975 -0.526288 0.005048
v 0.510142 -0.704309 0.009325
v -0.596720 0.491584 0.001723
v 0.603450 0.531803 0.014786
v 0.011024 -0.003171 0.002781
v -0.011751 -0.025966 0.002781
v -0.566693 -0.702167 -0.005400
v -0.644412 -0.479651 -0.009848
v -0.035274 -0.000533 0.002811
v -0.012710 0.022052 0.002811
v 0.567254 0.695848 0.011211
vt 0.040830 1.000000
vt 1.000000 0.034461
vt 0.945489 0.000000
vt 0.000000 0.978064
vt 1.000000 0.969728
vt 0.534124 0.503430
vt 0.495854 0.465126
vt 0.031149 0.000000
vt 0.000000 0.020839
vt 0.470300 0.491560
vt 0.508216 0.529510
vt 0.978285 1.000000
vn -0.002782 -0.002549 0.999993
vn -0.006144 0.003392 0.999975
vn 0.003795 0.009482 0.999948
vn 0.009556 0.016997 0.999810
vn -0.002828 -0.002997 0.999992
vn -0.006452 0.003857 0.999972
vn 0.004586 0.008023 0.999957
vn 0.010206 0.015012 0.999835
vn -0.027417 0.010408 0.999570
vn -0.019458 -0.000698 0.999810
vn -0.031661 0.014793 0.999389
vn -0.021022 0.001924 0.999777
f 6/6/1 7/7/2 2/2/3
f 2/2/3 7/7/2 3/3/4
f 10/10/5 11/11/6 4/4/7
f 4/4/7 11/11/6 1/1/8
f 8/8/9 7/7/2 9/9/10
f 9/9/10 7/7/2 10/10/5
f 11/11/6 10/10/5 6/6/1
f 6/6/1 10/10/5 7/7/2
f 12/12/11 11/11/6 5/5/12
f 5/5/12 11/11/6 6/6/1
