# This file uses centimeters as units for non-parametric coordinates.

v -0.068139 -0.037374 0.084649
v -0.000937 -0.049240 0.098359
v 0.068351 -0.037374 0.086342
v -0.107743 0.067894 0.124636
v -0.000559 0.040411 0.136305
v 0.126807 0.076174 0.121540
v -0.138571 0.145874 0.116180
v -0.002030 0.080302 0.145568
v 0.134776 0.149503 0.110033
v -0.223155 0.195728 0.019642
v -0.000226 0.239077 0.018486
v 0.221378 0.199915 0.021049
v -0.124389 0.161343 -0.069952
v 0.001707 0.139452 -0.055506
v 0.133753 0.161343 -0.067846
v -0.091486 0.072968 -0.035468
v -0.000066 0.080958 -0.029500
v 0.102594 0.067237 -0.034596
v -0.081039 -0.010926 -0.025600
v -0.000496 -0.022426 -0.033168
v 0.084458 -0.012167 -0.024145
v -0.134954 -0.025938 0.014582
v -0.001114 -0.073335 0.013211
v 0.133227 -0.025289 0.016934
v 0.131176 0.122504 0.028973
v -0.126683 0.118418 0.027833
v -0.006546 0.219890 0.060517
v 0.211418 0.194880 0.049937
v 0.131509 0.085020 0.102202
v 0.114998 -0.046470 0.041596
v 0.001655 -0.072316 0.068260
v -0.109801 -0.046485 0.043310
v -0.125060 0.080933 0.109049
v -0.212984 0.185323 0.051664
v -0.204466 0.171249 -0.043467
v -0.156864 0.085120 -0.012967
v -0.115552 -0.013615 -0.006181
v -0.001112 -0.046475 -0.019722
v 0.114797 -0.013747 -0.003551
v 0.167657 0.089964 -0.008647
v 0.209495 0.170921 -0.044420
v 0.000681 0.242340 -0.031496
v -0.001620 0.168959 0.116866
v -0.158023 0.193513 0.036638
v -0.181384 0.198789 0.020575
v -0.159732 0.198967 -0.015202
v 0.001319 0.210318 -0.075857
v 0.158939 0.198745 -0.015845
v 0.181475 0.198979 0.022553
v 0.142085 0.198973 0.043834
v -0.114724 0.182472 0.073708
v 0.098423 0.186092 0.067592
v 0.024845 0.137997 -0.087342
v 0.031602 0.071932 -0.043545
v 0.014878 -0.019332 -0.047172
v -0.017466 0.137741 -0.087943
v -0.017296 0.071970 -0.044137
v -0.012849 -0.020088 -0.047373
v 0.000359 0.011626 0.126663
v -0.074950 0.007489 0.102876
v 0.076595 0.008157 0.100037
v -0.095576 0.020803 0.071055
v -0.128848 0.020037 0.026597
v 0.100171 0.021119 0.069253
v 0.128986 0.024989 0.031566
v -0.011415 0.050518 -0.023821
v 0.002426 0.048354 -0.028042
v 0.022526 0.050459 -0.023542
v 0.121943 0.026331 -0.004065
v 0.086660 0.049925 -0.020979
v -0.116239 0.027523 -0.009338
v -0.080861 0.050595 -0.023699
v -0.124327 0.203660 -0.048949
v 0.125443 0.188388 -0.047971
vt 0.407407 0.889824
vt 0.420016 0.945140
vt 0.398957 0.960181
vt 0.389435 0.936757
vt 0.533050 0.960181
vt 0.559231 0.952955
vt 0.583164 0.978031
vt 0.548723 0.978031
vt 0.471447 0.924236
vt 0.522452 0.945140
vt 0.471447 0.960181
vt 0.385901 0.978031
vt 0.364836 0.978031
vt 0.471447 0.978031
vt 0.471447 0.887744
vt 0.522452 0.900332
vt 0.386382 0.730204
vt 0.386382 0.678361
vt 0.409909 0.678361
vt 0.409909 0.717312
vt 0.486223 0.730204
vt 0.486223 0.717312
vt 0.567711 0.678361
vt 0.591235 0.678361
vt 0.591235 0.730204
vt 0.567711 0.717312
vt 0.420016 0.790198
vt 0.471972 0.793076
vt 0.468569 0.842761
vt 0.415288 0.839037
vt 0.522452 0.788279
vt 0.522452 0.843240
vt 0.559231 0.843240
vt 0.583164 0.843240
vt 0.559231 0.788279
vt 0.471447 0.772223
vt 0.471447 0.754062
vt 0.559231 0.751546
vt 0.522452 0.772223
vt 0.389435 0.754172
vt 0.420016 0.772223
vt 0.471447 0.742456
vt 0.583164 0.742456
vt 0.583164 0.788279
vt 0.486223 0.700683
vt 0.469018 0.678361
vt 0.486223 0.678361
vt 0.505709 0.678361
vt 0.438564 0.678361
vt 0.536980 0.678361
vt 0.386382 0.618703
vt 0.409909 0.618703
vt 0.438564 0.618703
vt 0.469018 0.618703
vt 0.486223 0.618703
vt 0.364836 0.843240
vt 0.364836 0.788279
vt 0.389435 0.788279
vt 0.389435 0.843240
vt 0.364836 0.742456
vt 0.567711 0.582491
vt 0.386382 0.492876
vt 0.486223 0.492875
vt 0.486223 0.507133
vt 0.409909 0.507133
vt 0.386382 0.582491
vt 0.409909 0.582491
vt 0.438564 0.582491
vt 0.469018 0.582491
vt 0.469018 0.525377
vt 0.438564 0.525377
vt 0.536980 0.618703
vt 0.536980 0.582491
vt 0.505709 0.618703
vt 0.486223 0.582491
vt 0.505709 0.582491
vt 0.505709 0.525377
vt 0.486223 0.525377
vt 0.536980 0.525377
vt 0.591235 0.582491
vt 0.591235 0.618703
vt 0.567711 0.618703
vt 0.591235 0.492876
vt 0.567711 0.507133
vt 0.536980 0.700683
vt 0.438564 0.700683
vn -0.198219 0.787935 0.582982
vn -0.152593 0.865578 0.476959
vn -0.358128 0.402155 0.842624
vn -0.749092 0.371264 0.548657
vn 0.116884 0.871051 0.477082
vn 0.737010 0.458254 0.496809
vn 0.085725 0.991239 0.100478
vn 0.737060 0.675448 0.022613
vn 0.011753 0.641205 0.767280
vn 0.152255 0.759390 0.632570
vn -0.011651 0.819415 0.573083
vn -0.120936 0.968023 0.219788
vn -0.799723 0.599452 -0.033163
vn -0.003250 0.978307 0.207136
vn 0.005554 0.056961 0.998361
vn 0.372276 0.459086 0.806629
vn 0.062371 -0.363431 0.929531
vn 0.013394 -0.382562 0.923833
vn -0.473558 -0.428925 0.769264
vn -0.627726 -0.556215 0.544597
vn 0.509840 -0.427378 0.746600
vn 0.693565 -0.569183 0.441586
vn 0.004614 -0.226020 0.974112
vn -0.388548 -0.149818 0.909167
vn 0.528423 -0.062711 0.846662
vn 0.677564 -0.653426 -0.337553
vn 0.861666 -0.432022 0.266249
vn 0.860223 -0.104197 0.499159
vn 0.804738 -0.380261 0.455848
vn 0.914840 -0.369516 0.162868
vn -0.063770 -0.583420 0.809663
vn -0.004561 -0.920501 0.390715
vn 0.457411 -0.498852 0.736154
vn 0.668820 -0.625666 0.401526
vn -0.647772 -0.621330 0.440841
vn -0.509808 -0.535492 0.673309
vn 0.001087 -0.892440 -0.451165
vn 0.772616 -0.487645 -0.406531
vn 0.962817 -0.186646 0.195310
vn 0.614131 -0.448583 -0.649320
vn 0.013447 -0.737016 -0.675741
vn 0.612388 -0.350376 -0.708673
vn 0.835016 -0.474083 -0.279274
vn 0.359385 -0.250683 -0.898888
vn -0.133631 -0.122747 -0.983400
vn 0.117750 -0.404076 -0.907115
vn 0.051093 -0.107711 -0.992868
vn -0.861394 -0.466342 0.201311
vn -0.974709 -0.159431 0.156605
vn -0.853662 -0.421085 0.306511
vn -0.777049 -0.390665 0.493533
vn -0.634367 -0.706622 -0.313471
vn -0.721644 -0.222141 0.655655
vn -0.781837 -0.514236 -0.352552
vn 0.087471 0.102998 -0.990828
vn -0.015840 -0.092429 -0.995593
vn 0.431978 -0.290809 -0.853713
vn 0.378238 -0.511607 -0.771488
vn -0.585220 -0.396719 -0.707199
vn 0.170319 -0.127896 -0.977054
vn 0.726559 -0.183815 -0.662061
vn -0.647439 -0.157803 -0.745601
vn -0.319683 -0.224146 -0.920631
vn -0.104596 0.131402 -0.985796
vn -0.116080 -0.342856 -0.932188
vn -0.550731 -0.265073 -0.791474
vn 0.225736 0.910061 -0.347609
vn 0.895437 0.165742 -0.413184
vn 0.018527 0.950824 -0.309178
vn -0.883817 0.106655 -0.455514
vn -0.289370 0.908442 -0.301658
vn 0.042614 0.386003 -0.921513
vn -0.204406 -0.149359 -0.967425
vn -0.685550 -0.321130 -0.653373
vn -0.309516 0.613374 -0.726617
vn 0.259636 0.631015 -0.731033
vn 0.226985 -0.164287 -0.959941
vn 0.801506 -0.254219 -0.541259
vn -0.353436 0.041345 -0.934545
vn 0.214845 -0.513508 -0.830754
vn 0.322021 0.137173 -0.936742
vn -0.255673 -0.312955 -0.914708
vn -0.271695 -0.559353 -0.783139
vn -0.796289 -0.462928 -0.389386
vn -0.205501 -0.459621 -0.864013
f 51/2/1 44/3/2 7/1/3
f 7/1/3 44/3/2 34/4/4
f 50/5/5 28/6/6 49/8/7
f 49/8/7 28/6/6 12/7/8
f 43/9/9 52/10/10 27/11/11
f 44/3/2 45/12/12 34/4/4
f 34/4/4 45/12/12 10/13/13
f 44/3/2 51/2/1 27/11/11
f 45/12/12 44/3/2 11/14/14
f 11/14/14 44/3/2 27/11/11
f 27/11/11 50/5/5 11/14/14
f 11/14/14 50/5/5 49/8/7
f 8/15/15 9/16/16 43/9/9
f 43/9/9 9/16/16 52/10/10
f 8/15/15 43/9/9 7/1/3
f 7/1/3 43/9/9 51/2/1
f 27/11/11 51/2/1 43/9/9
f 52/10/10 9/16/16 50/5/5
f 50/5/5 9/16/16 28/6/6
f 27/11/11 52/10/10 50/5/5
f 59/28/17 5/29/18 60/27/19
f 60/27/19 5/29/18 4/30/20
f 59/28/17 61/31/21 5/29/18
f 5/29/18 61/31/21 6/32/22
f 5/29/23 8/15/15 4/30/24
f 4/30/24 8/15/15 7/1/3
f 5/29/23 6/32/25 8/15/15
f 8/15/15 6/32/25 9/16/16
f 29/33/26 25/34/27 28/6/6
f 28/6/6 25/34/27 12/7/8
f 6/32/25 29/33/28 9/16/16
f 9/16/16 29/33/28 28/6/6
f 61/31/21 64/35/29 6/32/22
f 6/32/22 64/35/29 29/33/30
f 2/36/31 31/37/32 3/39/33
f 3/39/33 31/37/32 30/38/34
f 32/40/35 31/37/32 1/41/36
f 1/41/36 31/37/32 2/36/31
f 31/37/32 23/42/37 30/38/34
f 30/38/34 23/42/37 24/43/38
f 64/35/29 65/44/39 29/33/30
f 29/33/30 65/44/39 25/34/27
f 24/62/38 23/63/37 39/65/40
f 39/65/40 23/63/37 38/64/41
f 69/67/42 40/52/43 65/66/39
f 65/66/39 40/52/43 25/51/27
f 39/65/40 38/64/41 21/71/44
f 21/71/44 38/64/41 55/70/45
f 59/28/17 60/27/19 2/36/31
f 2/36/31 60/27/19 1/41/36
f 61/31/21 59/28/17 3/39/33
f 3/39/33 59/28/17 2/36/31
f 61/31/21 3/39/33 64/35/29
f 64/35/29 3/39/33 30/38/34
f 64/35/29 30/38/34 65/44/39
f 65/44/39 30/38/34 24/43/38
f 69/67/42 65/66/39 39/65/40
f 39/65/40 65/66/39 24/62/38
f 70/68/46 69/67/42 21/71/44
f 21/71/44 69/67/42 39/65/40
f 70/68/46 21/71/44 68/69/47
f 68/69/47 21/71/44 55/70/45
f 26/56/48 63/57/49 33/59/50
f 33/59/50 63/57/49 62/58/51
f 33/59/52 34/4/4 26/56/48
f 26/56/48 34/4/4 10/13/13
f 33/59/50 62/58/51 4/30/20
f 4/30/20 62/58/51 60/27/19
f 34/4/4 33/59/53 7/1/3
f 7/1/3 33/59/53 4/30/24
f 31/37/32 32/40/35 23/42/37
f 23/42/37 32/40/35 22/60/54
f 67/75/55 66/76/56 17/55/57
f 17/55/57 66/76/56 57/74/58
f 22/83/54 37/84/59 23/63/37
f 23/63/37 37/84/59 38/64/41
f 38/64/41 58/77/60 20/78/61
f 55/70/45 38/64/41 20/78/62
f 58/77/60 38/64/41 19/79/63
f 19/79/63 38/64/41 37/84/59
f 62/58/51 63/57/49 32/40/35
f 32/40/35 63/57/49 22/60/54
f 60/27/19 62/58/51 1/41/36
f 1/41/36 62/58/51 32/40/35
f 68/69/47 55/70/45 67/75/64
f 67/75/64 55/70/45 20/78/62
f 66/76/56 67/75/55 58/77/60
f 58/77/60 67/75/55 20/78/61
f 72/73/65 66/76/56 19/79/63
f 19/79/63 66/76/56 58/77/60
f 72/73/65 19/79/63 71/61/66
f 71/61/66 19/79/63 37/84/59
f 71/61/66 37/84/59 63/80/49
f 63/80/49 37/84/59 22/83/54
f 49/17/7 12/18/8 48/20/67
f 48/20/67 12/18/8 41/19/68
f 49/17/7 48/20/67 11/21/14
f 11/21/14 48/20/67 42/22/69
f 35/23/70 10/24/13 46/26/71
f 46/26/71 10/24/13 45/25/12
f 45/25/12 11/21/14 46/26/71
f 46/26/71 11/21/14 42/22/69
f 47/45/72 53/46/73 14/47/74
f 42/22/69 73/85/75 46/26/71
f 74/86/76 42/22/69 48/20/67
f 56/48/77 47/45/72 14/47/78
f 73/85/75 13/50/79 46/26/71
f 46/26/71 13/50/79 35/23/70
f 12/18/8 25/51/27 41/19/68
f 41/19/68 25/51/27 40/52/43
f 18/53/80 15/49/81 40/52/43
f 40/52/43 15/49/81 41/19/68
f 17/55/82 14/47/74 54/54/83
f 54/54/83 14/47/74 53/46/73
f 70/68/46 18/53/80 69/67/42
f 69/67/42 18/53/80 40/52/43
f 54/54/83 53/46/73 18/53/80
f 18/53/80 53/46/73 15/49/81
f 18/53/80 70/68/46 54/54/83
f 54/54/83 70/68/46 68/69/47
f 71/61/66 63/80/49 36/82/84
f 36/82/84 63/80/49 26/81/48
f 10/24/13 35/23/70 26/81/48
f 26/81/48 35/23/70 36/82/84
f 35/23/70 13/50/79 36/82/84
f 36/82/84 13/50/79 16/72/85
f 72/73/65 71/61/66 16/72/85
f 16/72/85 71/61/66 36/82/84
f 17/55/57 57/74/58 14/47/78
f 14/47/78 57/74/58 56/48/77
f 54/54/83 68/69/47 17/55/82
f 17/55/82 68/69/47 67/75/64
f 66/76/56 72/73/65 57/74/58
f 57/74/58 72/73/65 16/72/85
f 57/74/58 16/72/85 56/48/77
f 56/48/77 16/72/85 13/50/79
f 41/19/68 15/49/81 48/20/67
f 48/20/67 15/49/81 74/86/76
f 15/49/81 53/46/73 74/86/76
f 74/86/76 53/46/73 47/45/72
f 42/22/69 74/86/76 47/45/72
f 73/85/75 42/22/69 47/45/72
f 13/50/79 73/85/75 56/48/77
f 56/48/77 73/85/75 47/45/72
