# This file uses centimeters as units for non-parametric coordinates.

v -0.004626 -0.173047 -0.075057
v -0.004626 -0.037758 -0.209202
v -0.004626 -0.107916 0.248256
v -0.004626 0.073030 -0.244167
v -0.004626 0.095873 0.229025
v -0.004626 0.177516 -0.219595
v -0.004626 0.137119 0.216499
v -0.004626 0.241643 -0.159517
v -0.004626 0.215945 0.151076
v -0.004626 0.286184 -0.051804
v -0.004626 0.272793 0.030968
v -0.004626 0.067741 0.235468
v -0.004626 0.042795 0.244840
v -0.004626 -0.144284 0.247470
v -0.004626 -0.006977 0.261668
v -0.004626 -0.053780 0.274205
v -0.004626 -0.224396 0.147971
v -0.004626 -0.235694 -0.057751
v -0.004626 -0.194958 0.241514
v -0.004626 -0.230653 0.087488
v -0.004626 -0.329030 0.040795
v -0.004626 -0.325071 0.064631
v -0.004626 -0.334012 0.004910
v -0.004626 -0.332840 -0.016082
v -0.004626 -0.184871 -0.062889
v -0.004626 -0.229422 0.198652
v 0.092073 -0.151526 -0.048880
v 0.113583 -0.107351 -0.101086
v -0.004626 -0.108701 -0.140073
v 0.123272 -0.134915 -0.013606
v 0.143492 -0.110608 0.025996
v 0.148704 -0.071808 0.024644
v 0.155096 -0.074640 -0.057759
v 0.112663 -0.139828 0.100190
v 0.101875 -0.142865 0.088413
v 0.071646 -0.188766 0.111915
v 0.092626 -0.186616 0.129554
v 0.066381 -0.143425 0.229904
v 0.088333 -0.157439 0.185143
v 0.075505 -0.112003 0.220212
v 0.127467 -0.032507 -0.179609
v 0.071812 0.084012 -0.223854
v 0.156578 -0.044355 0.016795
v 0.168687 0.011623 0.012270
v 0.146754 -0.010826 0.123601
v 0.153308 -0.019244 0.087010
v 0.113277 0.049375 0.217188
v 0.109746 0.074016 0.212757
v 0.104547 0.165261 -0.200571
v 0.170384 0.048424 0.031032
v 0.164113 0.135106 0.149455
v 0.107849 0.093370 0.210304
v 0.114968 0.144631 0.210696
v 0.108557 0.243187 -0.129227
v 0.166733 0.050878 0.058251
v 0.166279 0.047124 0.084089
v 0.157887 0.169361 0.119495
v 0.079645 0.209318 0.139476
v 0.074647 -0.191785 -0.031935
v 0.053654 -0.242502 -0.035341
v 0.105476 -0.180383 0.016867
v 0.086729 -0.185902 -0.001655
v 0.060246 -0.241312 -0.010784
v 0.076327 -0.240664 0.011808
v 0.155196 0.011915 0.125690
v 0.166384 0.013259 0.084520
v 0.102845 0.262427 -0.054797
v 0.144981 0.209552 0.031725
v 0.153959 0.214922 -0.044155
v 0.187812 0.107521 0.037254
v 0.178155 0.110446 0.075617
v 0.099719 0.255882 0.031776
v 0.191474 0.095248 0.004705
v 0.197259 0.077366 -0.041609
v 0.147598 -0.039283 0.132453
v 0.138417 0.026141 0.162444
v 0.170258 0.205231 -0.093299
v 0.172794 0.132137 -0.145016
v 0.189740 0.026530 -0.064693
v 0.175455 -0.023656 -0.080054
v 0.132520 0.094153 0.153646
v 0.145714 -0.039620 0.106430
v 0.150858 -0.059636 0.155278
v 0.145328 -0.013071 0.154959
v 0.126675 -0.047681 0.222784
v 0.122947 -0.001167 0.223337
v 0.206027 0.020202 0.027613
v 0.188303 -0.036969 0.037355
v 0.100886 -0.168696 0.158272
v 0.118018 -0.122171 0.126071
v 0.151007 -0.072104 0.077579
v 0.128286 -0.113272 0.052135
v 0.117202 -0.110448 0.076602
v 0.136247 -0.089639 0.097535
v 0.110150 -0.112854 0.160271
v 0.148956 -0.073557 0.121209
v 0.063471 -0.239784 0.057078
v 0.096164 -0.169069 0.050810
v 0.051200 -0.204922 0.094274
v 0.040246 -0.221065 0.139802
v 0.023498 -0.222647 0.092265
v 0.034656 -0.255823 0.076782
v 0.064024 -0.297649 0.050053
v 0.071607 -0.305395 0.013140
v 0.042533 -0.309290 -0.016366
v 0.077978 -0.194904 0.194869
v 0.046545 -0.217589 0.165032
v 0.040701 -0.198151 0.233404
v 0.032215 -0.222342 0.197499
v 0.165485 0.077550 -0.171229
v -0.004626 -0.266586 0.081094
v 0.038517 -0.310283 0.064139
v 0.133215 0.059722 0.162418
v -0.004626 -0.304324 -0.033913
v 0.024618 -0.307118 -0.023959
v 0.152828 0.044379 0.125932
v 0.145787 0.081173 0.123191
v 0.166321 0.096446 0.106649
v 0.139688 -0.092614 0.064903
v 0.167889 -0.056200 0.059371
v 0.171061 0.073235 0.068934
v -0.122836 -0.107351 -0.101086
v -0.101325 -0.151526 -0.048880
v -0.075634 -0.143425 0.229904
v -0.084758 -0.112003 0.220212
v -0.118998 0.074016 0.212757
v -0.117102 0.093370 0.210304
v -0.135927 -0.047681 0.222784
v -0.083900 -0.191785 -0.031935
v -0.097586 -0.157439 0.185143
v -0.087230 -0.194904 0.194869
v -0.110139 -0.168696 0.158272
v -0.049499 -0.221065 0.139802
v -0.080898 -0.188766 0.111915
v -0.101879 -0.186616 0.129554
v -0.055798 -0.217589 0.165032
v -0.049953 -0.198151 0.233404
v -0.041467 -0.222342 0.197499
v -0.198993 0.026530 -0.064693
v -0.206511 0.077366 -0.041609
v -0.179637 0.048424 0.031032
v -0.177939 0.011623 0.012270
v -0.200727 0.095248 0.004705
v -0.127271 -0.122171 0.126071
v -0.119403 -0.112854 0.160271
v -0.121915 -0.139828 0.100190
v -0.136720 -0.032507 -0.179609
v -0.184707 -0.023656 -0.080054
v -0.164348 -0.074640 -0.057759
v -0.165830 -0.044355 0.016795
v -0.095982 -0.185902 -0.001655
v -0.114729 -0.180383 0.016867
v -0.085579 -0.240664 0.011808
v -0.069498 -0.241312 -0.010784
v -0.032750 -0.222647 0.092265
v -0.060453 -0.204922 0.094274
v -0.043908 -0.255823 0.076782
v -0.047770 -0.310283 0.064139
v -0.072724 -0.239784 0.057078
v -0.073276 -0.297649 0.050053
v -0.122529 0.049375 0.217188
v -0.132200 -0.001167 0.223337
v -0.141773 0.094153 0.153646
v -0.142468 0.059722 0.162418
v -0.124221 0.144631 0.210696
v -0.173366 0.135106 0.149455
v -0.147670 0.026141 0.162444
v -0.062907 -0.242502 -0.035341
v -0.033871 -0.307118 -0.023959
v -0.080859 -0.305395 0.013140
v -0.051786 -0.309290 -0.016366
v -0.132525 -0.134915 -0.013606
v -0.157956 -0.071808 0.024644
v -0.152745 -0.110608 0.025996
v -0.111128 -0.142865 0.088413
v -0.105417 -0.169069 0.050810
v -0.137539 -0.113272 0.052135
v -0.145499 -0.089639 0.097535
v -0.158208 -0.073557 0.121209
v -0.126455 -0.110448 0.076602
v -0.160260 -0.072104 0.077579
v -0.148940 -0.092614 0.064903
v -0.177142 -0.056200 0.059371
v -0.160111 -0.059636 0.155278
v -0.154580 -0.013071 0.154959
v -0.156006 -0.010826 0.123601
v -0.164449 0.011915 0.125690
v -0.156850 -0.039283 0.132453
v -0.154967 -0.039620 0.106430
v -0.081065 0.084012 -0.223854
v -0.113799 0.165261 -0.200571
v -0.174738 0.077550 -0.171229
v -0.182046 0.132137 -0.145016
v -0.112098 0.262427 -0.054797
v -0.117809 0.243187 -0.129227
v -0.179511 0.205231 -0.093299
v -0.163212 0.214922 -0.044155
v -0.197064 0.107521 0.037254
v -0.154233 0.209552 0.031725
v -0.088898 0.209318 0.139476
v -0.167140 0.169361 0.119495
v -0.108971 0.255882 0.031776
v -0.215279 0.020202 0.027613
v -0.187407 0.110446 0.075617
v -0.175637 0.013259 0.084520
v -0.175986 0.050878 0.058251
v -0.175532 0.047124 0.084089
v -0.155039 0.081173 0.123191
v -0.197555 -0.036969 0.037355
v -0.162080 0.044379 0.125932
v -0.162561 -0.019244 0.087010
v -0.175573 0.096446 0.106649
v -0.180314 0.073235 0.068934
vt 0.191385 0.190978
vt 0.191589 0.227162
vt 0.147592 0.224932
vt 0.153261 0.189123
vt 0.828135 0.673363
vt 0.832666 0.695031
vt 0.808781 0.695920
vt 0.808950 0.673952
vt 0.843867 0.810853
vt 0.847877 0.842233
vt 0.807317 0.844198
vt 0.807625 0.812088
vt 0.160554 0.156692
vt 0.191170 0.156883
vt 0.837982 0.720719
vt 0.808403 0.721931
vt 0.844824 0.671569
vt 0.841309 0.658470
vt 0.853943 0.665583
vt 0.839776 0.626709
vt 0.868654 0.634505
vt 0.860792 0.652356
vt 0.089407 0.277034
vt 0.079147 0.298525
vt 0.840302 0.643749
vt 0.808981 0.655802
vt 0.825052 0.656316
vt 0.808504 0.628598
vt 0.820777 0.641400
vt 0.808808 0.640761
vt 0.869849 0.683001
vt 0.854103 0.691407
vt 0.881923 0.667951
vt 0.807884 0.601058
vt 0.843648 0.603508
vt 0.883429 0.612028
vt 0.048799 0.290502
vt 0.055029 0.271666
vt 0.065942 0.312372
vt 0.140801 0.258457
vt 0.099458 0.251053
vt 0.106499 0.219878
vt 0.063577 0.244399
vt 0.130151 0.154194
vt 0.052354 0.137419
vt 0.063049 0.094144
vt 0.145628 0.123203
vt 0.835969 0.554793
vt 0.807431 0.540076
vt 0.883425 0.548790
vt 0.807318 0.554927
vt 0.168530 0.127905
vt 0.190967 0.129461
vt 0.190849 0.108470
vt 0.847289 0.578532
vt 0.807526 0.576014
vt 0.177559 0.106921
vt 0.904090 0.586035
vt 0.807846 0.780777
vt 0.087742 0.053620
vt 0.841970 0.779733
vt 0.841462 0.748585
vt 0.808146 0.750173
vt 0.886250 0.837959
vt 0.877908 0.809587
vt 0.857824 0.876319
vt 0.904413 0.862922
vt 0.160385 0.099150
vt 0.190498 0.046268
vt 0.190836 0.095274
vt 0.876616 0.777699
vt 0.988057 0.514367
vt 0.114752 0.189298
vt 0.065840 0.217149
vt 0.041374 0.184017
vt 0.988030 0.568493
vt 0.191741 0.276264
vt 0.165494 0.296077
vt 0.191729 0.299574
vt 0.153662 0.322152
vt 0.808942 0.503945
vt 0.896984 0.650064
vt 0.921810 0.626911
vt 0.988023 0.622082
vt 0.988018 0.677654
vt 0.192092 0.325747
vt 0.126804 0.287589
vt 0.114619 0.310773
vt 0.192703 0.353810
vt 0.942873 0.665631
vt 0.906419 0.688294
vt 0.889333 0.708202
vt 0.920915 0.672370
vt 0.937331 0.704897
vt 0.946047 0.686214
vt 0.988011 0.702080
vt 0.988012 0.720295
vt 0.870323 0.718195
vt 0.876584 0.743048
vt 0.908195 0.742949
vt 0.909051 0.778413
vt 0.193357 0.386556
vt 0.890967 0.727528
vt 0.914739 0.725005
vt 0.873212 0.922381
vt 0.132091 0.378558
vt 0.144645 0.347832
vt 0.931926 0.902538
vt 0.101882 0.333230
vt 0.084459 0.357328
vt 0.035310 0.326295
vt 0.069507 0.389837
vt 0.988005 0.983741
vt 0.897254 0.983716
vt 0.106779 0.419158
vt 0.193680 0.431220
vt 0.019534 0.273241
vt 0.035131 0.238425
vt 0.053946 0.226940
vt 0.054672 0.291162
vt 0.806938 0.881040
vt 0.806288 0.926876
vt 0.229947 0.188880
vt 0.236058 0.224855
vt 0.222064 0.156346
vt 0.296845 0.277676
vt 0.333174 0.272440
vt 0.340264 0.291790
vt 0.308053 0.299614
vt 0.803839 0.983716
vt 0.962000 0.888367
vt 0.947582 0.780414
vt 0.987996 0.780219
vt 0.987997 0.804853
vt 0.322430 0.313906
vt 0.942659 0.823284
vt 0.278517 0.219649
vt 0.286083 0.251230
vt 0.243317 0.258611
vt 0.323875 0.244517
vt 0.914992 0.838264
vt 0.911630 0.812110
vt 0.988007 0.737243
vt 0.948036 0.741317
vt 0.939734 0.859852
vt 0.987990 0.853167
vt 0.966928 0.841757
vt 0.987993 0.826642
vt 0.789632 0.673401
vt 0.784531 0.695081
vt 0.253239 0.153417
vt 0.236907 0.122376
vt 0.332662 0.109367
vt 0.331938 0.152702
vt 0.771209 0.811560
vt 0.766688 0.843091
vt 0.778501 0.720811
vt 0.772424 0.671489
vt 0.762798 0.665076
vt 0.776042 0.658285
vt 0.776326 0.625179
vt 0.776646 0.643096
vt 0.755102 0.650653
vt 0.746223 0.630717
vt 0.792768 0.656304
vt 0.796671 0.641284
vt 0.778086 0.552937
vt 0.728663 0.543957
vt 0.213584 0.127544
vt 0.204226 0.106650
vt 0.221638 0.098429
vt 0.762399 0.691255
vt 0.745699 0.681968
vt 0.732581 0.664733
vt 0.315424 0.053029
vt 0.269661 0.188747
vt 0.321070 0.216672
vt 0.348290 0.190204
vt 0.218248 0.296327
vt 0.230888 0.322641
vt 0.257859 0.288075
vt 0.271001 0.311635
vt 0.771505 0.600972
vt 0.730044 0.605359
vt 0.767051 0.575395
vt 0.707895 0.577441
vt 0.241187 0.348646
vt 0.255199 0.379962
vt 0.285041 0.334565
vt 0.304050 0.359426
vt 0.773470 0.780210
vt 0.774299 0.748809
vt 0.728298 0.839694
vt 0.736769 0.810986
vt 0.756398 0.877266
vt 0.709227 0.864982
vt 0.738022 0.778475
vt 0.619665 0.551818
vt 0.619684 0.505267
vt 0.355283 0.328693
vt 0.320008 0.393072
vt 0.281772 0.421848
vt 0.370754 0.274276
vt 0.354237 0.238411
vt 0.335344 0.226650
vt 0.619684 0.813249
vt 0.647128 0.845561
vt 0.716200 0.642908
vt 0.689551 0.613811
vt 0.619684 0.596828
vt 0.619684 0.866642
vt 0.674631 0.862881
vt 0.662375 0.740316
vt 0.619684 0.739540
vt 0.703349 0.814280
vt 0.699457 0.840913
vt 0.667338 0.646510
vt 0.619684 0.637003
vt 0.724680 0.706765
vt 0.706348 0.683370
vt 0.690672 0.661684
vt 0.673375 0.698623
vt 0.619684 0.714228
vt 0.619684 0.681698
vt 0.664028 0.672487
vt 0.744809 0.717938
vt 0.619684 0.778112
vt 0.737957 0.743156
vt 0.704429 0.779260
vt 0.704904 0.742607
vt 0.722794 0.726983
vt 0.697779 0.723275
vt 0.741299 0.923110
vt 0.639596 0.815927
vt 0.673447 0.827034
vt 0.664604 0.780847
vt 0.649008 0.892792
vt 0.680030 0.904681
vt 0.619684 0.983738
vt 0.721713 0.983723
vn 0.000000 -0.717705 -0.696347
vn 0.570613 -0.670333 -0.474398
vn 0.000000 -0.700553 -0.713601
vn 0.611440 -0.635456 -0.471525
vn 0.624021 -0.251768 0.739737
vn 0.000000 -0.089289 0.996006
vn 0.590346 -0.072721 0.803868
vn 0.000000 -0.063898 0.997957
vn 0.601315 0.104557 0.792142
vn 0.000000 0.219018 0.975721
vn 0.529215 0.201594 0.824191
vn -0.000000 0.259625 0.965710
vn 0.713932 -0.164214 0.680688
vn 0.000000 -0.182553 0.983196
vn 0.658544 -0.462727 -0.593467
vn 0.000000 -0.327080 -0.944997
vn 0.871259 -0.131537 0.472870
vn 0.757479 -0.552285 0.348148
vn 0.926292 -0.299625 0.228489
vn 0.662645 -0.724762 -0.188736
vn 0.682245 -0.702102 -0.203949
vn 0.412885 -0.904944 -0.102971
vn 0.387029 -0.921597 0.029462
vn -0.000000 -0.624124 0.781325
vn 0.369461 -0.465296 0.804362
vn 0.000000 -0.999955 0.009511
vn 0.275936 -0.923047 0.268036
vn 0.000000 -0.958285 0.285814
vn 0.979306 -0.199513 -0.033987
vn 0.998079 -0.059212 0.018223
vn 0.931291 -0.180797 -0.316242
vn 0.999188 -0.019911 0.035019
vn 0.986962 0.064088 0.147644
vn 0.908936 -0.396620 0.128564
vn 0.842220 -0.390672 0.371538
vn 0.862539 -0.460452 -0.209785
vn 0.512905 -0.467890 -0.719727
vn 0.929208 -0.340004 -0.144812
vn 0.899767 -0.429304 -0.078218
vn 0.889627 -0.403818 -0.213295
vn 0.874042 -0.485588 0.015971
vn 0.956506 -0.220193 -0.191343
vn 0.783722 -0.443384 -0.434961
vn 0.863829 -0.247775 -0.438643
vn -0.000000 -0.621379 0.783510
vn 0.364061 -0.805486 0.467603
vn 0.653485 -0.725210 0.216860
vn 0.353682 -0.211527 0.911134
vn -0.000000 -0.220662 0.975350
vn 0.378388 -0.606356 0.699396
vn -0.000000 -0.734300 0.678825
vn 0.766029 -0.306402 0.565082
vn 0.000000 -0.990906 0.134559
vn 0.773999 -0.427668 0.466932
vn 0.000000 0.279172 0.960241
vn 0.631596 0.237731 0.737950
vn 0.680771 0.167095 0.713183
vn 0.000000 0.198802 0.980040
vn 0.862232 -0.175859 0.475006
vn 0.910797 0.149706 0.384757
vn 0.587094 0.301350 0.751338
vn 0.870982 -0.173245 0.459756
vn 0.922208 0.127302 0.365140
vn 0.593501 -0.254295 -0.763604
vn 0.000000 -0.250146 -0.968208
vn -0.000000 -0.432519 -0.901625
vn 0.288332 -0.400604 -0.869702
vn 0.753091 -0.630185 -0.189000
vn 0.593017 -0.579637 -0.558884
vn 0.000000 -0.761500 -0.648165
vn -0.000000 -0.998283 -0.058581
vn 0.813901 -0.511239 -0.276043
vn 0.939601 -0.329284 -0.093393
vn 0.918010 -0.388896 0.077568
vn 0.828513 -0.545034 -0.128467
vn 0.818446 -0.496139 0.289813
vn 0.791061 -0.492471 0.362898
vn 0.827076 -0.562034 -0.008017
vn 0.950383 -0.306609 0.052567
vn 0.827918 -0.560531 0.018898
vn 0.913466 -0.332933 0.233956
vn 0.803034 -0.566849 0.183901
vn 0.850736 -0.512235 0.117749
vn 0.969808 -0.179911 0.164636
vn 0.980606 0.029287 0.193788
vn 0.981762 -0.166658 0.091482
vn 0.953603 -0.143305 0.264775
vn 0.997260 0.059968 -0.043312
vn 0.996721 -0.012977 0.079874
vn 0.000000 -0.432052 -0.901849
vn 0.324407 -0.028791 -0.945479
vn 0.000000 -0.034983 -0.999388
vn 0.432240 0.407778 -0.804292
vn 0.000000 0.384027 -0.923322
vn 0.831356 -0.047251 -0.553727
vn 0.834880 0.274901 -0.476869
vn -0.000000 0.776429 -0.630205
vn -0.000000 0.995296 -0.096882
vn 0.428749 0.765121 -0.480380
vn 0.487430 0.872580 -0.031857
vn 0.861725 0.495769 -0.107908
vn 0.825318 0.553736 0.110570
vn 0.984032 0.045566 0.172060
vn 0.800817 0.563300 0.203435
vn 0.833747 0.475726 0.280268
vn 0.307584 0.803105 0.510309
vn 0.448921 0.865344 0.222822
vn 0.000000 0.436659 0.899627
vn -0.000000 0.790207 0.612840
vn 0.000000 0.940901 0.338681
vn 0.908857 0.369417 -0.193674
vn 0.971868 0.062696 0.227030
vn 0.972333 0.164764 0.165591
vn 0.922210 -0.044923 0.384072
vn 0.966902 -0.059518 0.248111
vn 0.870027 -0.132358 0.474905
vn 0.894557 -0.443185 -0.057911
vn 0.929467 0.113862 0.350893
vn 0.886003 -0.218659 0.408886
vn 0.932483 -0.159675 0.324005
vn 0.962572 -0.212702 0.167969
vn -0.611441 -0.635456 -0.471525
vn -0.570613 -0.670333 -0.474398
vn -0.590346 -0.072721 0.803868
vn -0.624021 -0.251768 0.739737
vn -0.529215 0.201593 0.824192
vn -0.601314 0.104557 0.792142
vn -0.713932 -0.164214 0.680688
vn -0.658544 -0.462727 -0.593467
vn -0.871259 -0.131537 0.472870
vn -0.926292 -0.299625 0.228489
vn -0.757479 -0.552285 0.348147
vn -0.387029 -0.921597 0.029462
vn -0.682245 -0.702102 -0.203949
vn -0.412885 -0.904944 -0.102971
vn -0.662645 -0.724762 -0.188736
vn -0.369461 -0.465296 0.804362
vn -0.275936 -0.923047 0.268036
vn -0.979306 -0.199513 -0.033987
vn -0.931291 -0.180797 -0.316242
vn -0.998079 -0.059212 0.018223
vn -0.999188 -0.019910 0.035019
vn -0.986962 0.064087 0.147644
vn -0.842220 -0.390672 0.371538
vn -0.908936 -0.396620 0.128564
vn -0.862539 -0.460452 -0.209785
vn -0.899767 -0.429304 -0.078218
vn -0.929208 -0.340004 -0.144812
vn -0.512905 -0.467890 -0.719727
vn -0.889627 -0.403818 -0.213295
vn -0.863829 -0.247775 -0.438643
vn -0.956506 -0.220193 -0.191343
vn -0.783722 -0.443384 -0.434961
vn -0.874042 -0.485588 0.015971
vn -0.364061 -0.805486 0.467603
vn -0.653485 -0.725210 0.216860
vn -0.353682 -0.211527 0.911134
vn -0.378388 -0.606357 0.699396
vn -0.766029 -0.306402 0.565082
vn -0.774000 -0.427668 0.466932
vn -0.631596 0.237731 0.737950
vn -0.680771 0.167095 0.713183
vn -0.862232 -0.175859 0.475006
vn -0.910796 0.149706 0.384757
vn -0.870982 -0.173245 0.459756
vn -0.587094 0.301350 0.751338
vn -0.922208 0.127302 0.365140
vn -0.593501 -0.254295 -0.763604
vn -0.288332 -0.400604 -0.869702
vn -0.593018 -0.579637 -0.558884
vn -0.753091 -0.630185 -0.188999
vn -0.813901 -0.511239 -0.276043
vn -0.939601 -0.329283 -0.093393
vn -0.918011 -0.388896 0.077568
vn -0.828513 -0.545034 -0.128467
vn -0.818446 -0.496139 0.289813
vn -0.791061 -0.492471 0.362898
vn -0.827075 -0.562034 -0.008017
vn -0.950383 -0.306609 0.052567
vn -0.827918 -0.560531 0.018898
vn -0.913466 -0.332933 0.233956
vn -0.850736 -0.512235 0.117749
vn -0.803034 -0.566849 0.183901
vn -0.969808 -0.179911 0.164636
vn -0.980606 0.029287 0.193788
vn -0.953603 -0.143305 0.264775
vn -0.981762 -0.166658 0.091482
vn -0.997260 0.059968 -0.043312
vn -0.996721 -0.012977 0.079874
vn -0.324407 -0.028791 -0.945479
vn -0.432240 0.407778 -0.804292
vn -0.831356 -0.047251 -0.553727
vn -0.834880 0.274901 -0.476869
vn -0.428749 0.765121 -0.480379
vn -0.487430 0.872581 -0.031858
vn -0.825318 0.553736 0.110569
vn -0.861725 0.495769 -0.107908
vn -0.984032 0.045566 0.172060
vn -0.800817 0.563300 0.203435
vn -0.448921 0.865344 0.222822
vn -0.307584 0.803105 0.510309
vn -0.833747 0.475726 0.280268
vn -0.908857 0.369417 -0.193674
vn -0.971868 0.062697 0.227030
vn -0.966902 -0.059518 0.248111
vn -0.972333 0.164765 0.165591
vn -0.922210 -0.044924 0.384072
vn -0.870027 -0.132358 0.474905
vn -0.894557 -0.443186 -0.057911
vn -0.929467 0.113862 0.350893
vn -0.886003 -0.218659 0.408886
vn -0.932483 -0.159675 0.324005
vn -0.962572 -0.212702 0.167969
f 29/2/1 28/3/2 1/1/3
f 1/1/3 28/3/2 27/4/4
f 40/6/5 3/7/6 38/5/7
f 38/5/7 3/7/6 14/8/8
f 52/10/9 5/11/10 48/9/11
f 48/9/11 5/11/10 12/12/12
f 85/15/13 16/16/14 40/6/5
f 40/6/5 16/16/14 3/7/6
f 27/4/4 59/13/15 1/1/3
f 1/1/3 59/13/15 25/14/16
f 39/17/17 106/18/18 89/19/19
f 36/21/20 37/22/21 100/20/22
f 100/20/22 37/22/21 107/25/23
f 89/19/19 106/18/18 37/22/21
f 37/22/21 106/18/18 107/25/23
f 19/26/24 108/27/25 14/8/8
f 14/8/8 108/27/25 38/5/7
f 108/27/25 106/18/18 38/5/7
f 38/5/7 106/18/18 39/17/17
f 100/20/22 107/25/23 17/28/26
f 17/28/26 107/25/23 109/29/27
f 107/25/23 106/18/18 109/29/27
f 109/29/27 106/18/18 108/27/25
f 26/30/28 109/29/27 19/26/24
f 19/26/24 109/29/27 108/27/25
f 26/30/28 17/28/26 109/29/27
f 79/23/29 74/24/30 44/38/31
f 44/38/31 74/24/30 50/37/32
f 50/37/32 74/24/30 73/39/33
f 90/31/34 95/32/35 89/19/19
f 89/19/19 95/32/35 39/17/17
f 37/22/21 34/33/36 89/19/19
f 89/19/19 34/33/36 90/31/34
f 95/32/35 40/6/5 39/17/17
f 39/17/17 40/6/5 38/5/7
f 41/40/37 80/41/38 28/3/2
f 28/3/2 80/41/38 33/42/39
f 43/43/40 80/41/38 44/38/31
f 44/38/31 80/41/38 79/23/29
f 61/45/41 64/46/42 62/44/43
f 62/44/43 64/46/42 63/47/44
f 20/34/45 101/35/46 17/28/26
f 17/28/26 101/35/46 100/20/22
f 36/21/20 100/20/22 99/36/47
f 99/36/47 100/20/22 101/35/46
f 102/55/48 111/56/49 112/48/50
f 112/48/50 111/56/49 22/51/51
f 102/55/48 97/58/52 101/35/46
f 101/35/46 97/58/52 99/36/47
f 112/48/50 21/49/53 103/50/54
f 111/56/49 102/55/48 20/34/45
f 20/34/45 102/55/48 101/35/46
f 97/58/52 102/55/48 103/50/54
f 103/50/54 102/55/48 112/48/50
f 21/49/53 112/48/50 22/51/51
f 13/59/55 47/61/56 12/12/12
f 12/12/12 47/61/56 48/9/11
f 86/62/57 15/63/58 85/15/13
f 85/15/13 15/63/58 16/16/14
f 47/61/56 13/59/55 86/62/57
f 86/62/57 13/59/55 15/63/58
f 81/64/59 52/10/9 113/65/60
f 113/65/60 52/10/9 48/9/11
f 52/10/9 81/64/59 53/66/61
f 53/66/61 81/64/59 51/67/62
f 76/71/63 113/65/60 47/61/56
f 47/61/56 113/65/60 48/9/11
f 60/52/64 59/13/15 63/47/44
f 63/47/44 59/13/15 62/44/43
f 59/13/15 60/52/64 25/14/16
f 25/14/16 60/52/64 18/53/65
f 114/54/66 18/53/65 115/57/67
f 115/57/67 18/53/65 60/52/64
f 64/46/42 104/60/68 63/47/44
f 63/47/44 104/60/68 105/68/69
f 24/70/70 105/68/69 23/69/71
f 23/69/71 105/68/69 104/60/68
f 104/72/68 64/76/42 103/50/54
f 103/50/54 64/76/42 97/58/52
f 23/81/71 104/72/68 21/49/53
f 21/49/53 104/72/68 103/50/54
f 115/57/67 24/70/70 114/54/66
f 115/57/67 60/52/64 105/68/69
f 105/68/69 60/52/64 63/47/44
f 24/70/70 115/57/67 105/68/69
f 59/13/15 27/4/4 62/44/43
f 62/44/43 27/4/4 30/73/72
f 27/4/4 28/3/2 30/73/72
f 30/73/72 28/3/2 33/42/39
f 32/74/73 33/42/39 43/43/40
f 43/43/40 33/42/39 80/41/38
f 31/75/74 61/45/41 30/73/72
f 30/73/72 61/45/41 62/44/43
f 31/75/74 30/73/72 32/74/73
f 32/74/73 30/73/72 33/42/39
f 34/33/36 37/22/21 35/82/75
f 35/82/75 37/22/21 36/21/20
f 35/82/75 36/21/20 98/83/76
f 98/83/76 36/21/20 99/36/47
f 99/36/47 97/58/52 98/83/76
f 64/76/42 61/84/41 97/58/52
f 97/58/52 61/84/41 98/83/76
f 98/83/76 61/84/41 92/90/77
f 92/90/77 61/84/41 31/85/74
f 34/33/36 94/91/78 90/31/34
f 90/31/34 94/91/78 96/92/79
f 94/91/78 34/33/36 93/93/80
f 93/93/80 34/33/36 35/82/75
f 98/83/76 92/90/77 35/82/75
f 35/82/75 92/90/77 93/93/80
f 91/94/81 119/95/82 120/97/83
f 120/97/83 119/95/82 32/96/73
f 93/93/80 119/95/82 94/91/78
f 94/91/78 119/95/82 91/94/81
f 40/6/5 95/32/35 85/15/13
f 85/15/13 95/32/35 83/98/84
f 47/61/56 86/62/57 76/71/63
f 76/71/63 86/62/57 84/99/85
f 45/100/86 65/101/87 84/99/85
f 84/99/85 65/101/87 76/71/63
f 83/98/84 84/99/85 85/15/13
f 85/15/13 84/99/85 86/62/57
f 90/31/34 96/92/79 95/32/35
f 95/32/35 96/92/79 83/98/84
f 75/103/88 96/92/79 82/104/89
f 45/100/86 84/99/85 75/103/88
f 94/91/78 91/94/81 96/92/79
f 96/92/79 91/94/81 82/104/89
f 2/77/90 41/40/37 29/2/1
f 29/2/1 41/40/37 28/3/2
f 42/78/91 2/77/90 4/79/92
f 49/80/93 42/78/91 6/86/94
f 6/86/94 42/78/91 4/79/92
f 110/87/95 41/40/37 42/78/91
f 42/78/91 41/40/37 2/77/90
f 78/88/96 110/87/95 49/80/93
f 49/80/93 110/87/95 42/78/91
f 78/88/96 74/24/30 110/87/95
f 110/87/95 74/24/30 79/23/29
f 79/23/29 80/41/38 110/87/95
f 110/87/95 80/41/38 41/40/37
f 8/89/97 10/102/98 54/107/99
f 54/107/99 10/102/98 67/106/100
f 54/107/99 67/106/100 77/109/101
f 77/109/101 67/106/100 69/110/102
f 70/111/103 73/39/33 69/110/102
f 69/110/102 73/39/33 77/109/101
f 68/112/104 70/111/103 69/110/102
f 57/108/105 68/113/104 58/105/106
f 58/105/106 68/113/104 72/114/107
f 68/112/104 69/110/102 72/115/107
f 72/115/107 69/110/102 67/106/100
f 51/67/62 57/108/105 53/66/61
f 53/66/61 57/108/105 58/105/106
f 6/86/94 8/89/97 49/80/93
f 49/80/93 8/89/97 54/107/99
f 49/80/93 54/107/99 78/88/96
f 78/88/96 54/107/99 77/109/101
f 78/88/96 77/109/101 74/24/30
f 74/24/30 77/109/101 73/39/33
f 5/11/10 52/10/9 7/121/108
f 7/121/108 52/10/9 53/66/61
f 9/122/109 7/121/108 58/105/106
f 58/105/106 7/121/108 53/66/61
f 72/114/107 11/130/110 58/105/106
f 58/105/106 11/130/110 9/122/109
f 11/116/110 72/115/107 10/102/98
f 10/102/98 72/115/107 67/106/100
f 87/117/111 44/38/31 50/37/32
f 57/108/105 71/131/112 68/113/104
f 87/133/111 55/134/113 66/132/114
f 66/132/114 55/134/113 56/136/115
f 117/141/116 51/67/62 81/64/59
f 43/43/40 44/38/31 88/118/117
f 88/118/117 44/38/31 87/117/111
f 113/65/60 76/71/63 116/142/118
f 116/142/118 76/71/63 65/101/87
f 87/133/111 66/132/114 88/143/117
f 88/143/117 66/132/114 46/144/119
f 66/132/114 65/101/87 46/144/119
f 46/144/119 65/101/87 45/100/86
f 46/144/119 45/100/86 82/104/89
f 82/104/89 91/94/81 46/144/119
f 46/144/119 91/94/81 120/97/83
f 81/64/59 113/65/60 117/141/116
f 117/141/116 113/65/60 116/142/118
f 56/136/115 116/142/118 66/132/114
f 66/132/114 116/142/118 65/101/87
f 118/145/120 57/108/105 51/67/62
f 92/90/77 119/95/82 93/93/80
f 32/96/73 119/95/82 31/85/74
f 31/85/74 119/95/82 92/90/77
f 32/74/73 43/43/40 120/119/83
f 120/119/83 43/43/40 88/118/117
f 46/144/119 120/97/83 88/143/117
f 70/146/103 71/131/112 121/147/121
f 117/141/116 56/136/115 118/145/120
f 116/142/118 56/136/115 117/141/116
f 118/145/120 121/147/121 71/131/112
f 55/134/113 121/147/121 56/136/115
f 50/148/32 121/147/121 55/134/113
f 70/111/103 50/37/32 73/39/33
f 68/113/104 71/131/112 70/146/103
f 87/117/111 50/37/32 55/120/113
f 70/146/103 121/147/121 50/148/32
f 82/104/89 45/100/86 75/103/88
f 75/103/88 84/99/85 83/98/84
f 83/98/84 96/92/79 75/103/88
f 56/136/115 121/147/121 118/145/120
f 51/67/62 117/141/116 118/145/120
f 57/108/105 118/145/120 71/131/112
f 123/123/122 122/124/123 1/1/3
f 1/1/3 122/124/123 29/2/1
f 14/8/8 3/7/6 124/149/124
f 124/149/124 3/7/6 125/150/125
f 12/12/12 5/11/10 126/155/126
f 126/155/126 5/11/10 127/156/127
f 3/7/6 16/16/14 125/150/125
f 125/150/125 16/16/14 128/157/128
f 123/123/122 1/1/3 129/125/129
f 129/125/129 1/1/3 25/14/16
f 130/158/130 132/159/131 131/160/132
f 136/162/133 135/163/134 133/161/135
f 133/161/135 135/163/134 134/164/136
f 132/159/131 135/163/134 131/160/132
f 131/160/132 135/163/134 136/162/133
f 124/149/124 137/165/137 14/8/8
f 14/8/8 137/165/137 19/26/24
f 130/158/130 131/160/132 124/149/124
f 124/149/124 131/160/132 137/165/137
f 138/166/138 136/162/133 17/28/26
f 17/28/26 136/162/133 133/161/135
f 137/165/137 131/160/132 138/166/138
f 138/166/138 131/160/132 136/162/133
f 137/165/137 138/166/138 19/26/24
f 19/26/24 138/166/138 26/30/28
f 26/30/28 138/166/138 17/28/26
f 139/126/139 142/127/140 140/129/141
f 140/129/141 142/127/140 141/128/142
f 141/128/142 143/135/143 140/129/141
f 130/158/130 145/172/144 132/159/131
f 132/159/131 145/172/144 144/173/145
f 135/163/134 132/159/131 146/174/146
f 146/174/146 132/159/131 144/173/145
f 124/149/124 125/150/125 130/158/130
f 130/158/130 125/150/125 145/172/144
f 149/137/147 148/138/148 122/124/123
f 122/124/123 148/138/148 147/139/149
f 139/126/139 148/138/148 142/127/140
f 142/127/140 148/138/148 150/140/150
f 154/152/151 153/153/152 151/151/153
f 151/151/153 153/153/152 152/154/154
f 20/34/45 17/28/26 155/183/155
f 155/183/155 17/28/26 133/161/135
f 134/164/136 156/184/156 133/161/135
f 133/161/135 156/184/156 155/183/155
f 157/185/157 158/167/158 111/56/49
f 111/56/49 158/167/158 22/51/51
f 157/185/157 155/183/155 159/186/159
f 159/186/159 155/183/155 156/184/156
f 158/167/158 160/168/160 21/49/53
f 111/56/49 20/34/45 157/185/157
f 157/185/157 20/34/45 155/183/155
f 158/167/158 157/185/157 160/168/160
f 160/168/160 157/185/157 159/186/159
f 21/49/53 22/51/51 158/167/158
f 13/59/55 12/12/12 161/191/161
f 161/191/161 12/12/12 126/155/126
f 16/16/14 15/63/58 128/157/128
f 128/157/128 15/63/58 162/192/162
f 161/191/161 162/192/162 13/59/55
f 13/59/55 162/192/162 15/63/58
f 163/193/163 164/194/164 127/156/127
f 127/156/127 164/194/164 126/155/126
f 166/196/165 163/193/163 165/195/166
f 165/195/166 163/193/163 127/156/127
f 126/155/126 164/194/164 161/191/161
f 161/191/161 164/194/164 167/197/167
f 151/151/153 129/125/129 154/152/151
f 154/152/151 129/125/129 168/169/168
f 18/53/65 168/169/168 25/14/16
f 25/14/16 168/169/168 129/125/129
f 114/54/66 169/170/169 18/53/65
f 18/53/65 169/170/169 168/169/168
f 171/171/170 170/175/171 154/152/151
f 154/152/151 170/175/171 153/153/152
f 170/175/171 171/171/170 23/69/71
f 23/69/71 171/171/170 24/70/70
f 159/186/159 153/198/152 160/168/160
f 160/168/160 153/198/152 170/199/171
f 160/168/160 170/199/171 21/49/53
f 21/49/53 170/199/171 23/81/71
f 169/170/169 114/54/66 24/70/70
f 154/152/151 168/169/168 171/171/170
f 171/171/170 168/169/168 169/170/169
f 24/70/70 171/171/170 169/170/169
f 172/176/172 123/123/122 151/151/153
f 151/151/153 123/123/122 129/125/129
f 149/137/147 122/124/123 172/176/172
f 172/176/172 122/124/123 123/123/122
f 173/177/173 150/140/150 149/137/147
f 149/137/147 150/140/150 148/138/148
f 174/178/174 172/176/172 152/154/154
f 152/154/154 172/176/172 151/151/153
f 149/137/147 172/176/172 173/177/173
f 173/177/173 172/176/172 174/178/174
f 146/174/146 175/208/175 135/163/134
f 135/163/134 175/208/175 134/164/136
f 175/208/175 176/209/176 134/164/136
f 134/164/136 176/209/176 156/184/156
f 156/184/156 176/209/176 159/186/159
f 176/209/176 152/210/154 159/186/159
f 159/186/159 152/210/154 153/198/152
f 176/209/176 177/217/177 152/210/154
f 152/210/154 177/217/177 174/218/174
f 146/174/146 144/173/145 178/220/178
f 178/220/178 144/173/145 179/219/179
f 175/208/175 146/174/146 180/221/180
f 180/221/180 146/174/146 178/220/178
f 176/209/176 175/208/175 177/217/177
f 177/217/177 175/208/175 180/221/180
f 181/222/181 183/223/182 182/225/183
f 182/225/183 183/223/182 173/224/173
f 180/221/180 178/220/178 182/225/183
f 182/225/183 178/220/178 181/222/181
f 184/226/184 145/172/144 128/157/128
f 128/157/128 145/172/144 125/150/125
f 185/228/185 162/192/162 167/197/167
f 167/197/167 162/192/162 161/191/161
f 167/197/167 187/229/186 185/228/185
f 185/228/185 187/229/186 186/230/187
f 162/192/162 185/228/185 128/157/128
f 128/157/128 185/228/185 184/226/184
f 144/173/145 145/172/144 179/219/179
f 179/219/179 145/172/144 184/226/184
f 188/231/188 189/232/189 179/219/179
f 186/230/187 188/231/188 185/228/185
f 178/220/178 179/219/179 181/222/181
f 181/222/181 179/219/179 189/232/189
f 122/124/123 147/139/149 29/2/1
f 29/2/1 147/139/149 2/77/90
f 190/179/190 4/79/92 2/77/90
f 191/180/191 6/86/94 190/179/190
f 190/179/190 6/86/94 4/79/92
f 2/77/90 147/139/149 190/179/190
f 190/179/190 147/139/149 192/181/192
f 190/179/190 192/181/192 191/180/191
f 191/180/191 192/181/192 193/182/193
f 139/126/139 140/129/141 192/181/192
f 192/181/192 140/129/141 193/182/193
f 139/126/139 192/181/192 148/138/148
f 148/138/148 192/181/192 147/139/149
f 8/89/97 195/187/194 10/102/98
f 10/102/98 195/187/194 194/188/195
f 197/190/196 194/188/195 196/189/197
f 196/189/197 194/188/195 195/187/194
f 196/189/197 143/135/143 197/190/196
f 197/190/196 143/135/143 198/200/198
f 199/201/199 197/190/196 198/200/198
f 202/240/200 199/239/199 200/233/201
f 200/233/201 199/239/199 201/238/202
f 199/201/199 202/202/200 197/190/196
f 197/190/196 202/202/200 194/188/195
f 200/233/201 201/238/202 165/195/166
f 165/195/166 201/238/202 166/196/165
f 195/187/194 8/89/97 191/180/191
f 191/180/191 8/89/97 6/86/94
f 196/189/197 195/187/194 193/182/193
f 193/182/193 195/187/194 191/180/191
f 143/135/143 196/189/197 140/129/141
f 140/129/141 196/189/197 193/182/193
f 5/11/10 7/121/108 127/156/127
f 127/156/127 7/121/108 165/195/166
f 165/195/166 7/121/108 200/233/201
f 200/233/201 7/121/108 9/122/109
f 9/122/109 11/130/110 200/233/201
f 200/233/201 11/130/110 202/240/200
f 11/116/110 10/102/98 202/202/200
f 202/202/200 10/102/98 194/188/195
f 203/203/203 141/128/142 142/127/140
f 201/238/202 199/239/199 204/237/204
f 207/235/205 206/234/206 205/236/207
f 205/236/207 206/234/206 203/227/203
f 208/216/208 163/193/163 166/196/165
f 203/203/203 142/127/140 209/204/209
f 209/204/209 142/127/140 150/140/150
f 164/194/164 210/215/210 167/197/167
f 167/197/167 210/215/210 187/229/186
f 211/213/211 205/236/207 209/214/209
f 209/214/209 205/236/207 203/227/203
f 205/236/207 211/213/211 187/229/186
f 187/229/186 211/213/211 186/230/187
f 211/213/211 189/232/189 186/230/187
f 183/223/182 181/222/181 211/213/211
f 211/213/211 181/222/181 189/232/189
f 210/215/210 164/194/164 208/216/208
f 208/216/208 164/194/164 163/193/163
f 207/235/205 205/236/207 210/215/210
f 210/215/210 205/236/207 187/229/186
f 212/212/212 166/196/165 201/238/202
f 177/217/177 180/221/180 182/225/183
f 173/224/173 174/218/174 182/225/183
f 182/225/183 174/218/174 177/217/177
f 209/204/209 150/140/150 183/205/182
f 183/205/182 150/140/150 173/177/173
f 211/213/211 209/214/209 183/223/182
f 198/211/198 213/207/213 204/237/204
f 208/216/208 212/212/212 207/235/205
f 210/215/210 208/216/208 207/235/205
f 212/212/212 204/237/204 213/207/213
f 206/234/206 207/235/205 213/207/213
f 141/206/142 206/234/206 213/207/213
f 198/200/198 143/135/143 141/128/142
f 199/239/199 198/211/198 204/237/204
f 203/227/203 206/234/206 141/206/142
f 198/211/198 141/206/142 213/207/213
f 189/232/189 188/231/188 186/230/187
f 188/231/188 184/226/184 185/228/185
f 184/226/184 188/231/188 179/219/179
f 207/235/205 212/212/212 213/207/213
f 166/196/165 212/212/212 208/216/208
f 201/238/202 204/237/204 212/212/212
