# This file uses centimeters as units for non-parametric coordinates.

v 0.056133 0.049933 0.130794
v 0.074108 0.056759 0.124383
v 0.087308 0.054963 0.106370
v -0.031576 0.037893 -0.002949
v -0.007753 0.071043 0.010834
v 0.049838 0.058632 0.016074
v -0.028863 -0.040508 -0.013280
v -0.006524 -0.044837 -0.021418
v 0.034425 -0.044296 0.007840
v 0.043348 -0.050569 0.120654
v 0.050970 -0.048407 0.109613
v 0.058920 -0.046681 0.049721
v 0.040750 -0.009839 0.139888
v 0.083701 -0.007561 0.111203
v 0.078821 -0.006658 0.080683
v -0.039149 -0.011507 -0.010106
v -0.036266 -0.017917 0.079078
v -0.014699 0.045908 0.081530
v -0.002708 0.060696 0.071277
v 0.046659 0.045301 0.062538
v 0.034524 -0.021117 0.075853
v 0.023991 -0.063102 0.045240
v -0.004056 -0.066296 0.042239
v -0.019453 -0.060720 0.051034
v 0.047011 0.058984 0.100342
v 0.062380 0.051735 0.087103
v 0.081353 0.067219 0.070333
v 0.068564 0.075937 0.086625
v 0.035506 -0.004430 0.019999
v -0.010810 -0.003084 -0.033950
v 0.085757 0.034952 0.114602
v 0.049268 0.040517 0.009611
v -0.009678 0.021596 -0.025173
v 0.018184 0.053467 0.064193
v 0.047734 0.107624 0.040980
v 0.076503 0.085903 0.022526
v -0.023734 -0.017787 0.117178
v 0.060482 0.053575 0.094252
v -0.001526 -0.057659 0.108963
v 0.011578 0.050882 0.122597
v 0.032657 0.060441 0.115541
v 0.025999 -0.057039 0.074621
v 0.009329 -0.056980 0.098601
vt 0.082909 0.500218
vt 0.082909 0.487390
vt 0.154816 0.487390
vt 0.154816 0.500218
vt 0.082909 0.463914
vt 0.077044 0.595241
vt 0.093430 0.608063
vt 0.154816 0.463914
vt 0.154816 0.562656
vt 0.173528 0.571491
vt 0.082909 0.571491
vt 0.082909 0.562656
vt 0.107567 0.605982
vt 0.109255 0.595241
vt 0.032181 0.562656
vt 0.015173 0.571491
vt 0.015173 0.531362
vt 0.032181 0.531362
vt 0.137556 0.627303
vt 0.095593 0.638946
vt 0.015173 0.500218
vt 0.032181 0.500218
vt 0.137556 0.638946
vt 0.077474 0.613280
vt 0.123956 0.616815
vt 0.162038 0.619693
vt 0.131080 0.606050
vt 0.173285 0.638946
vt 0.057603 0.531362
vt 0.057603 0.500218
vt 0.082909 0.531362
vt 0.057603 0.487390
vt 0.173285 0.656234
vt 0.057603 0.562656
vt 0.082909 0.477189
vt 0.137556 0.659314
vt 0.154816 0.477189
vt 0.173528 0.500218
vt 0.173528 0.531362
vt 0.154816 0.531362
vt 0.032181 0.487390
vt 0.137556 0.698347
vt 0.057603 0.571491
vt 0.173285 0.714902
vt 0.173285 0.619693
vt 0.069157 0.622167
vt 0.095593 0.714902
vt 0.095593 0.698347
vt 0.019231 0.714902
vt 0.034153 0.698347
vt 0.034153 0.666098
vt 0.018898 0.666098
vt 0.034153 0.638946
vt 0.019627 0.641391
vt 0.095593 0.666098
vt 0.060196 0.627984
vt 0.060196 0.638946
vt 0.060243 0.698347
vt 0.060243 0.714902
vt 0.034153 0.627984
vn -0.146828 0.984894 0.091786
vn -0.284058 0.849944 -0.443742
vn -0.823020 0.504323 0.261337
vn -0.866983 0.412768 -0.279218
vn -0.129781 -0.551917 0.823738
vn 0.549814 -0.653145 0.520679
vn 0.311216 0.550101 0.774941
vn 0.979939 -0.103844 0.170107
vn 0.859884 -0.060479 0.506894
vn 0.200740 0.268341 0.942176
vn 0.798260 -0.292856 0.526323
vn 0.157645 -0.189362 0.969170
vn 0.544038 0.145628 -0.826326
vn 0.937253 -0.318949 -0.140814
vn 0.781824 0.056435 -0.620940
vn -0.448957 0.574167 0.684668
vn -0.738327 -0.018047 0.674202
vn -0.975159 -0.113971 0.189935
vn -0.015690 0.984422 0.175121
vn -0.358435 0.811730 0.461105
vn 0.822028 -0.136035 -0.552960
vn 0.037217 0.997075 -0.066761
vn -0.009488 0.313951 -0.949392
vn -0.910385 -0.040318 -0.411794
vn -0.043601 -0.022785 -0.998789
vn 0.921259 -0.115145 -0.371516
vn 0.243423 -0.550367 -0.798650
vn 0.669989 -0.587574 -0.453731
vn -0.623634 -0.600865 -0.500041
vn 0.354078 0.774788 0.523767
vn -0.045601 -0.993067 -0.108344
vn -0.627798 -0.775618 0.065480
vn 0.794448 -0.607158 -0.014575
vn 0.321762 -0.826044 0.462731
vn 0.603226 -0.767730 0.216123
vn 0.258479 -0.398782 -0.879865
vn 0.804658 -0.015403 -0.593539
vn 0.830678 0.526017 -0.182426
vn 0.728729 0.043740 -0.683404
vn 0.328749 0.724955 -0.605280
vn 0.264674 -0.961041 -0.079674
vn 0.093210 -0.991892 0.086380
vn -0.380978 -0.775898 0.502831
f 19/2/1 5/3/2 18/1/3
f 18/1/3 5/3/2 4/4/4
f 25/6/5 26/7/6 28/14/7
f 28/14/7 26/7/6 27/13/8
f 31/21/9 1/22/10 14/17/11
f 14/17/11 1/22/10 13/18/12
f 6/19/13 20/20/14 32/23/15
f 40/30/16 18/1/3 37/29/17
f 37/29/17 18/1/3 17/31/18
f 41/32/19 19/2/1 40/30/16
f 40/30/16 19/2/1 18/1/3
f 34/24/20 20/20/14 25/6/5
f 25/6/5 20/20/14 26/7/6
f 36/25/21 27/13/8 20/20/14
f 20/20/14 27/13/8 26/7/6
f 5/26/2 35/27/22 6/19/13
f 6/19/13 35/27/22 36/25/21
f 19/2/1 34/35/20 5/3/2
f 5/3/2 34/35/20 35/37/22
f 4/4/4 33/38/23 16/40/24
f 16/40/24 33/38/23 30/39/25
f 6/19/13 32/23/15 5/26/2
f 5/26/2 32/23/15 33/28/23
f 30/33/25 29/36/26 8/44/27
f 8/44/27 29/36/26 9/42/28
f 16/40/24 30/39/25 7/9/29
f 7/9/29 30/39/25 8/10/27
f 32/23/15 29/36/26 33/28/23
f 33/28/23 29/36/26 30/33/25
f 35/37/22 34/35/20 28/8/7
f 28/8/7 34/35/20 25/5/5
f 36/25/21 35/27/22 27/13/8
f 27/13/8 35/27/22 28/14/7
f 20/20/14 6/19/13 36/25/21
f 37/29/17 13/18/12 40/30/16
f 40/30/16 13/18/12 1/22/10
f 2/41/30 41/32/19 1/22/10
f 1/22/10 41/32/19 40/30/16
f 1/22/10 31/21/9 2/41/30
f 33/28/23 4/45/4 5/26/2
f 19/46/1 20/20/14 34/24/20
f 8/10/27 23/11/31 7/9/29
f 7/9/29 23/11/31 24/12/32
f 8/44/27 9/42/28 23/47/31
f 23/47/31 9/42/28 22/48/33
f 10/15/34 11/16/35 13/18/12
f 13/18/12 11/16/35 14/17/11
f 12/50/36 15/51/37 11/49/35
f 11/49/35 15/51/37 14/52/11
f 3/53/38 31/54/9 15/51/37
f 15/51/37 31/54/9 14/52/11
f 21/55/39 22/48/33 29/36/26
f 29/36/26 22/48/33 9/42/28
f 38/57/40 20/20/14 41/56/19
f 41/56/19 20/20/14 19/46/1
f 21/55/39 20/20/14 38/57/40
f 42/58/41 21/55/39 12/50/36
f 12/50/36 21/55/39 15/51/37
f 43/59/42 42/58/41 11/49/35
f 11/49/35 42/58/41 12/50/36
f 39/34/43 43/43/42 10/15/34
f 10/15/34 43/43/42 11/16/35
f 37/29/17 17/31/18 39/34/43
f 39/34/43 17/31/18 24/12/32
f 37/29/17 39/34/43 13/18/12
f 13/18/12 39/34/43 10/15/34
f 41/56/19 2/60/30 38/57/40
f 38/57/40 2/60/30 3/53/38
f 31/54/9 3/53/38 2/60/30
f 32/23/15 20/20/14 29/36/26
f 29/36/26 20/20/14 21/55/39
f 39/34/43 24/12/32 43/43/42
f 43/43/42 24/12/32 23/11/31
f 21/55/39 38/57/40 15/51/37
f 15/51/37 38/57/40 3/53/38
f 43/59/42 23/47/31 42/58/41
f 42/58/41 23/47/31 22/48/33
f 21/55/39 42/58/41 22/48/33
f 17/31/18 16/40/24 24/12/32
f 24/12/32 16/40/24 7/9/29
f 18/1/3 4/4/4 17/31/18
f 17/31/18 4/4/4 16/40/24
