# This file uses centimeters as units for non-parametric coordinates.

v 0.309017 -0.500000 -0.951057
v -0.809017 -0.500000 -0.587785
v -0.809017 -0.500000 0.587785
v 0.309017 -0.500000 0.951057
v 1.000000 -0.500000 0.000000
v 0.309017 0.500000 -0.951057
v -0.809017 0.500000 -0.587785
v -0.809017 0.500000 0.587785
v 0.309017 0.500000 0.951057
v 1.000000 0.500000 0.000000
v 0.000000 -0.500000 0.000000
v 0.000000 0.500000 0.000000
vt 0.300745 0.017919
vt 0.107035 0.080859
vt 0.107035 0.284538
vt 0.300744 0.347478
vt 0.420464 0.182699
vt 0.021400 0.372528
vt 0.210618 0.372528
vt 0.399836 0.372528
vt 0.589054 0.372528
vt 0.778272 0.372528
vt 0.967490 0.372528
vt 0.021400 0.984899
vt 0.210618 0.984899
vt 0.399836 0.984899
vt 0.589054 0.984899
vt 0.778272 0.984899
vt 0.967490 0.984899
vt 0.819946 0.013733
vt 0.626236 0.076673
vt 0.626236 0.280352
vt 0.819946 0.343292
vt 0.939665 0.178512
vt 0.247204 0.175768
vt 0.766405 0.171582
vn 0.309017 0.000000 -0.951057
vn -0.809017 0.000000 -0.587785
vn 0.309017 0.000000 -0.951057
vn -0.809017 0.000000 -0.587785
vn -0.809017 0.000000 0.587785
vn -0.809017 0.000000 0.587785
vn 0.309017 0.000000 0.951057
vn 0.309017 0.000000 0.951057
vn 1.000000 0.000000 0.000000
vn 1.000000 0.000000 0.000000
vn 0.000000 -1.000000 0.000000
vn 0.000000 -1.000000 0.000000
vn 0.000000 -1.000000 0.000000
vn 0.000000 -1.000000 0.000000
vn 0.000000 -1.000000 0.000000
vn 0.000000 -1.000000 0.000000
vn 0.000000 1.000000 0.000000
vn 0.000000 1.000000 0.000000
vn 0.000000 1.000000 -0.000000
vn 0.000000 1.000000 0.000000
vn 0.000000 1.000000 -0.000000
vn 0.000000 1.000000 -0.000000
f 1/6/1 2/7/2 6/12/3
f 6/12/3 2/7/2 7/13/4
f 2/7/2 3/8/5 7/13/4
f 7/13/4 3/8/5 8/14/6
f 3/8/5 4/9/7 8/14/6
f 8/14/6 4/9/7 9/15/8
f 4/9/7 5/10/9 9/15/8
f 9/15/8 5/10/9 10/16/10
f 5/10/9 1/11/1 10/16/10
f 10/16/10 1/11/1 6/17/3
f 2/2/11 1/1/12 11/23/13
f 3/3/14 2/2/11 11/23/13
f 4/4/15 3/3/14 11/23/13
f 5/5/16 4/4/15 11/23/13
f 1/1/12 5/5/16 11/23/13
f 6/21/17 7/20/18 12/24/19
f 7/20/18 8/19/20 12/24/19
f 8/19/20 9/18/21 12/24/19
f 9/18/21 10/22/22 12/24/19
f 10/22/22 6/21/17 12/24/19
