# This file uses centimeters as units for non-parametric coordinates.

v -29.659849 -45.707813 -36.886757
v -22.639515 -45.725510 -36.760769
v -15.619212 -45.743221 -36.634754
v -9.798651 -45.566601 -36.570320
v -3.299324 -45.583012 -36.453659
v 3.088761 -44.905296 -35.226791
v 9.469596 -44.182415 -33.927692
v 17.385178 -44.631065 -33.680622
v 24.788183 -45.231964 -35.114361
v -29.614056 -36.576069 -38.376148
v -22.916700 -36.931179 -39.060898
v -15.884420 -36.963654 -39.605400
v -9.729713 -37.145302 -39.436138
v -3.230385 -37.161697 -39.319519
v 3.157697 -36.483997 -38.092644
v 9.538541 -35.761120 -36.793537
v 16.981619 -35.899052 -35.973183
v 24.843916 -36.861122 -36.626305
v -30.566347 -30.584629 -43.335278
v -24.051554 -30.620106 -44.084904
v -16.553232 -30.207785 -41.921486
v -9.687317 -30.060015 -40.814991
v -3.187989 -30.076403 -40.698357
v 3.280745 -29.901905 -40.276379
v 9.857526 -29.577349 -39.756809
v 16.678392 -29.701813 -39.551785
v 25.402580 -30.897112 -38.753880
v -33.473072 -27.803989 -52.677124
v -26.958298 -27.839470 -53.426758
v -18.096809 -26.816713 -47.582600
v -9.644920 -25.958769 -42.193817
v -3.188691 -26.081444 -42.485657
v 3.169364 -26.446274 -43.707943
v 10.570237 -24.983646 -41.011276
v 18.083073 -26.549963 -44.013126
v 24.786358 -26.526985 -42.978722
v -34.930573 -24.374378 -58.105835
v -28.415785 -24.409859 -58.855450
v -18.891056 -23.090105 -51.220463
v -9.602526 -21.857483 -43.572636
v -3.360684 -22.508938 -45.896381
v 2.810336 -23.335062 -48.891357
v 10.136815 -21.878075 -46.122517
v 18.781277 -23.218779 -48.677635
v 25.512255 -22.606585 -45.352524
v -34.888172 -20.273119 -59.484634
v -28.373379 -20.308603 -60.234341
v -18.848677 -18.988840 -52.599316
v -9.560135 -17.756229 -44.951485
v -3.443333 -18.716082 -48.460331
v 2.648577 -19.737329 -52.205128
v 9.845968 -19.938454 -53.104717
v 18.691160 -19.444357 -51.312447
v 25.554655 -18.505329 -46.731342
v -33.345879 -15.500211 -56.813591
v -26.831104 -15.535688 -60.863712
v -17.824739 -14.448056 -54.628395
v -9.517740 -13.654971 -49.463921
v -3.400939 -14.614828 -49.839142
v 2.690967 -15.636073 -53.583935
v 9.562635 -15.751005 -54.009350
v 18.050035 -15.162228 -51.696259
v 24.913542 -14.223189 -47.115196
v -34.219727 -7.706814 -57.977417
v -23.839575 -10.113799 -58.106857
v -16.240046 -9.656149 -55.670116
v -9.475344 -9.553707 -54.836937
v -3.234609 -10.207891 -55.578484
v 2.937515 -11.031279 -57.036060
v 9.497082 -11.063613 -57.007069
v 16.864458 -10.421895 -54.038147
v 23.612017 -9.766278 -46.537582
v -32.822807 -2.998996 -55.698898
v -22.458134 -5.386900 -60.448578
v -15.958823 -5.403295 -60.331936
v -9.459492 -5.419690 -60.215279
v -3.016110 -5.574072 -60.628876
v 3.327711 -5.974006 -61.986107
v 9.827037 -5.990401 -61.869461
v 16.482801 -5.621042 -60.270435
v 23.037170 -5.501669 -47.017830
v 3.130021 -55.050896 -23.907187
v 6.493002 -55.233612 -23.845671
v 7.035694 -19.848366 -34.640556
v 5.016537 -19.448011 -34.784176
v 9.176643 -7.921417 -35.751064
v 7.176018 -7.475347 -35.719078
v 9.310702 -3.873858 -35.949768
v 7.727220 -3.787818 -35.978737
v 9.183255 1.095050 -36.147301
v 7.599772 1.181107 -36.176266
v 9.273281 6.008142 -36.292538
v 7.689795 6.094183 -36.321503
v 8.628511 20.757530 -39.449814
v 7.045029 20.843575 -39.478775
v -9.523876 -55.973030 -28.487587
v -3.522348 -55.605446 -28.377769
v -8.381270 -13.515834 -41.757977
v -10.218351 -13.499241 -41.683674
v -8.398378 -7.817599 -41.999718
v -10.235477 -7.800991 -41.925415
v -8.865817 -4.121243 -42.380093
v -10.285335 -4.084163 -42.406033
v -9.105206 0.323069 -42.556969
v -10.524695 0.360166 -42.582905
v -8.594324 4.733457 -42.519981
v -10.011653 4.646656 -42.545918
v -9.409945 19.666174 -44.362617
v -10.827277 19.579374 -44.388550
v -5.791380 -50.332268 -16.662561
v -4.132987 -50.357052 -16.631395
v -4.890486 -34.225960 -24.778166
v -5.907381 -34.013062 -24.854889
v -4.798716 -30.337650 -26.099052
v -5.815610 -30.124733 -26.175777
v -5.081212 -27.866295 -27.106884
v -5.862077 -27.854610 -27.121563
v -5.563830 -24.803944 -28.192480
v -6.344697 -24.792267 -28.207157
v -5.934417 -21.764969 -29.220646
v -6.715284 -21.753294 -29.235323
v -6.045267 -15.457142 -32.621922
v -6.826126 -15.445463 -32.636593
v -11.734833 -52.384060 -4.394964
v -8.778852 -51.550354 -4.620268
v -9.656654 -21.669464 -18.769844
v -12.391069 -21.947607 -18.580742
v -11.179725 -15.137444 -20.992863
v -13.533861 -15.433917 -20.801876
v -11.797637 -10.278614 -23.017246
v -13.850187 -10.491794 -22.959387
v -12.569947 -5.028278 -24.756363
v -14.299987 -5.256987 -24.696911
v -12.718534 0.555967 -26.467728
v -14.310692 0.173089 -26.362637
v -13.915842 19.132061 -38.270279
v -15.332071 19.072805 -38.375931
v 3.335793 -32.381760 -30.348421
v 6.493896 -32.253971 -30.219868
v -6.062881 -37.393623 -22.567207
v -4.609089 -37.383156 -22.586533
v -9.732030 -36.873257 -14.260936
v -12.673837 -37.747383 -14.015279
v -27.791899 -55.745476 -31.739336
v -38.452660 -41.670090 -33.642582
v -38.381191 -35.771004 -35.048195
v -38.311901 -30.232288 -36.406349
v -38.587303 -25.215048 -38.732540
v -38.935318 -20.196215 -41.063721
v -43.977055 -15.184219 -45.317600
v -43.407726 -9.738732 -45.171265
v -43.026138 -3.444615 -45.011002
v -40.311790 2.363281 -45.777920
v -27.247818 15.670570 -45.780392
v -20.745766 15.682966 -45.660294
v -14.243740 15.695333 -45.540237
v -7.741708 15.707709 -45.420193
v -1.236402 15.760176 -45.295952
v 5.268898 15.812624 -45.171719
v 11.774211 15.865056 -45.047535
v 18.271067 15.813485 -44.934010
v 24.767906 15.761885 -44.820560
v 35.512718 0.745298 -43.267868
v 35.490612 -4.450127 -41.882908
v 35.469105 -9.648928 -40.497826
v 35.448162 -14.851281 -39.112579
v 35.427780 -20.057343 -37.727089
v 35.386005 -25.268576 -36.348122
v 35.352104 -30.586193 -35.024277
v 35.319229 -36.082073 -33.676796
v 35.325378 -41.840168 -32.280651
v 24.474365 -55.237335 -31.151810
v 17.837181 -55.144138 -31.052643
v 11.142939 -55.219738 -31.215727
v 4.659618 -55.301823 -31.397781
v -1.830373 -55.342270 -31.513294
v -8.322621 -55.368557 -31.606096
v -14.729608 -55.395901 -31.704361
v -21.290560 -55.422424 -31.797924
v -38.315308 -51.807529 -26.091255
v -38.174965 15.946021 -43.950932
v 35.519890 16.064962 -42.689880
v 35.284702 -53.179295 -26.719110
v -13.772152 8.987921 -29.880598
v -12.331675 9.116855 -29.813200
v -9.534189 12.911128 -41.996544
v -8.107559 13.158873 -41.959915
v 9.179465 15.613268 -37.727654
v 10.752115 15.458001 -37.688465
v -49.003288 -60.579353 -10.845439
v -50.107895 -47.085175 -20.129478
v -50.144833 -40.140633 -21.783916
v -50.183243 -33.272133 -23.431324
v -50.225842 -26.474579 -25.088558
v -50.270000 -19.646938 -26.761284
v -50.314163 -12.792505 -28.439606
v -50.358315 -5.911117 -30.123337
v -50.264835 0.938468 -31.946037
v -50.171490 7.776768 -33.765503
v -49.016804 27.051273 -34.121895
v -33.591171 26.331642 -36.784676
v -25.449434 26.313780 -36.639420
v -17.308443 26.295897 -36.494251
v -9.168181 26.278028 -36.349121
v -1.027871 26.257156 -36.216774
v 7.106544 26.236275 -36.084694
v 15.234977 26.215328 -35.952988
v 23.375717 26.202322 -35.786983
v 31.523918 26.189251 -35.621033
v 46.868584 26.836126 -32.431812
v 47.591747 7.275701 -32.313217
v 47.455360 0.433551 -30.630966
v 47.319443 -6.386122 -28.954334
v 47.183998 -13.183407 -27.283255
v 47.048973 -19.958370 -25.617706
v 46.913548 -26.712177 -23.953808
v 46.783012 -33.476284 -22.308819
v 46.653320 -40.274113 -20.661964
v 46.526279 -47.129440 -19.017014
v 45.528782 -62.514091 -12.323220
v 31.133959 -66.107674 -17.502846
v 22.924854 -66.114807 -17.617985
v 14.683167 -66.120071 -17.730949
v 6.502823 -66.127472 -17.846046
v -1.683569 -66.134872 -17.961273
v -9.876058 -66.142204 -18.076460
v -18.048363 -66.150452 -18.192665
v -26.274643 -66.157745 -18.308210
v -34.447128 -66.191338 -18.459682
vt 0.100000 0.100000
vt 0.200000 0.100000
vt 0.300000 0.100000
vt 0.400000 0.100000
vt 0.500000 0.100000
vt 0.600000 0.100000
vt 0.700000 0.100000
vt 0.800000 0.100000
vt 0.900000 0.100000
vt 0.100000 0.200000
vt 0.200000 0.200000
vt 0.300000 0.200000
vt 0.400000 0.200000
vt 0.500000 0.200000
vt 0.600000 0.200000
vt 0.700000 0.200000
vt 0.800000 0.200000
vt 0.900000 0.200000
vt 0.100000 0.300000
vt 0.200000 0.300000
vt 0.300000 0.300000
vt 0.400000 0.300000
vt 0.500000 0.300000
vt 0.600000 0.300000
vt 0.700000 0.300000
vt 0.800000 0.300000
vt 0.900000 0.300000
vt 0.100000 0.400000
vt 0.200000 0.400000
vt 0.300000 0.400000
vt 0.400000 0.400000
vt 0.500000 0.400000
vt 0.600000 0.400000
vt 0.700000 0.400000
vt 0.800000 0.400000
vt 0.900000 0.400000
vt 0.100000 0.500000
vt 0.200000 0.500000
vt 0.300000 0.500000
vt 0.400000 0.500000
vt 0.500000 0.500000
vt 0.600000 0.500000
vt 0.700000 0.500000
vt 0.800000 0.500000
vt 0.900000 0.500000
vt 0.100000 0.600000
vt 0.200000 0.600000
vt 0.300000 0.600000
vt 0.400000 0.600000
vt 0.500000 0.600000
vt 0.600000 0.600000
vt 0.700000 0.600000
vt 0.800000 0.600000
vt 0.900000 0.600000
vt 0.100000 0.700000
vt 0.200000 0.700000
vt 0.300000 0.700000
vt 0.400000 0.700000
vt 0.500000 0.700000
vt 0.600000 0.700000
vt 0.700000 0.700000
vt 0.800000 0.700000
vt 0.900000 0.700000
vt 0.100000 0.800000
vt 0.200000 0.800000
vt 0.300000 0.800000
vt 0.400000 0.800000
vt 0.500000 0.800000
vt 0.600000 0.800000
vt 0.700000 0.800000
vt 0.800000 0.800000
vt 0.900000 0.800000
vt 0.100000 0.900000
vt 0.200000 0.900000
vt 0.300000 0.900000
vt 0.400000 0.900000
vt 0.500000 0.900000
vt 0.600000 0.900000
vt 0.700000 0.900000
vt 0.800000 0.900000
vt 0.900000 0.900000
vt 0.997682 0.611857
vt 0.999044 0.611857
vt 0.952902 0.728789
vt 0.951541 0.728789
vt 0.952863 0.747447
vt 0.951690 0.747447
vt 0.955967 0.763611
vt 0.954795 0.763611
vt 0.957851 0.773009
vt 0.956678 0.773009
vt 0.967608 0.811772
vt 0.966523 0.811772
vt 0.972456 0.985626
vt 0.971372 0.985626
vt 0.778656 0.994888
vt 0.760592 0.992902
vt 0.811444 0.787372
vt 0.823122 0.797335
vt 0.813322 0.773523
vt 0.827279 0.784146
vt 0.818184 0.761024
vt 0.829195 0.769733
vt 0.839834 0.741957
vt 0.845641 0.750046
vt 0.924023 0.718570
vt 0.929044 0.735294
vt 0.989855 0.763796
vt 0.990653 0.770881
vt 0.969748 0.003360
vt 0.976189 0.003360
vt 0.978057 0.242130
vt 0.971616 0.242130
vt 0.977871 0.363244
vt 0.972322 0.363244
vt 0.977871 0.489688
vt 0.972322 0.489688
vt 0.977871 0.616131
vt 0.972322 0.616131
vt 0.977663 0.743217
vt 0.972531 0.743217
vt 0.975795 0.996913
vt 0.970663 0.996913
vt 0.948604 0.996942
vt 0.935075 0.997188
vt 0.970862 0.867160
vt 0.986229 0.861725
vt 0.970238 0.849670
vt 0.984800 0.837650
vt 0.964976 0.836239
vt 0.979062 0.817363
vt 0.956514 0.836970
vt 0.952846 0.810874
vt 0.924676 0.833672
vt 0.910699 0.827813
vt 0.919305 0.982080
vt 0.908524 0.982080
vt 0.950111 0.699164
vt 0.951472 0.699580
vt 0.970320 0.076434
vt 0.976798 0.081167
vt 0.934946 0.988657
vt 0.948483 0.988901
vt 0.100000 0.009572
vt 0.014432 0.100000
vt 0.014710 0.200000
vt 0.014466 0.300000
vt 0.014740 0.400000
vt 0.014427 0.500000
vt 0.014114 0.600000
vt 0.013799 0.700000
vt 0.013203 0.800000
vt 0.012603 0.900000
vt 0.100000 0.991588
vt 0.200000 0.991733
vt 0.300000 0.991879
vt 0.400000 0.992024
vt 0.500000 0.992344
vt 0.600000 0.992665
vt 0.700000 0.992985
vt 0.800000 0.992852
vt 0.900000 0.992719
vt 0.987806 0.900000
vt 0.987948 0.800000
vt 0.988095 0.700000
vt 0.988246 0.600000
vt 0.988401 0.500000
vt 0.988406 0.400000
vt 0.986246 0.300000
vt 0.986454 0.200000
vt 0.986858 0.100000
vt 0.900000 0.015551
vt 0.800000 0.015534
vt 0.700000 0.014547
vt 0.600000 0.014132
vt 0.500000 0.013716
vt 0.400000 0.013300
vt 0.300000 0.013099
vt 0.200000 0.012671
vt 0.015283 0.013961
vt 0.011092 0.988439
vt 0.985636 0.990339
vt 0.987878 0.012502
vt 0.909193 0.840410
vt 0.919970 0.840560
vt 0.959941 0.754183
vt 0.963912 0.736369
vt 0.971372 0.983969
vt 0.972456 0.983835
vt 0.005572 0.005090
vt 0.003950 0.100000
vt 0.003935 0.200000
vt 0.003780 0.300000
vt 0.003756 0.400000
vt 0.003595 0.500000
vt 0.003437 0.600000
vt 0.003282 0.700000
vt 0.003185 0.800000
vt 0.003084 0.900000
vt 0.003467 0.996387
vt 0.100000 0.997185
vt 0.200000 0.997232
vt 0.300000 0.997280
vt 0.400000 0.997327
vt 0.500000 0.997426
vt 0.600000 0.997524
vt 0.700000 0.997624
vt 0.800000 0.997590
vt 0.900000 0.997556
vt 0.995500 0.996973
vt 0.996761 0.900000
vt 0.996735 0.800000
vt 0.996711 0.700000
vt 0.996690 0.600000
vt 0.996671 0.500000
vt 0.996614 0.400000
vt 0.995917 0.300000
vt 0.995913 0.200000
vt 0.995963 0.100000
vt 0.995652 0.004485
vt 0.900000 0.004949
vt 0.800000 0.004925
vt 0.700000 0.004596
vt 0.600000 0.004448
vt 0.500000 0.004300
vt 0.400000 0.004153
vt 0.300000 0.004073
vt 0.200000 0.003925
vt 0.100000 0.002994
vn -0.000220 0.366822 0.930291
vn 0.016829 0.377435 0.925883
vn 0.266109 0.349001 0.898545
vn 0.299204 0.387834 0.871815
vn -0.017723 0.388175 0.921415
vn -0.010349 0.288245 0.957501
vn -0.018152 0.400414 0.916154
vn -0.017984 0.278723 0.960203
vn -0.081677 0.381833 0.920615
vn -0.113669 0.256035 0.959961
vn -0.184284 0.336870 0.923341
vn -0.193233 0.294464 0.935923
vn -0.119363 0.284849 0.951112
vn -0.124414 0.387187 0.913569
vn 0.076478 0.235697 0.968813
vn 0.003071 0.361915 0.932206
vn -0.113407 0.297987 0.947809
vn -0.074459 0.256272 0.963732
vn -0.097658 0.786064 0.610382
vn 0.356829 0.795610 0.489569
vn -0.196420 0.536590 0.820665
vn -0.064822 0.253490 0.965164
vn -0.055318 0.307035 0.950089
vn -0.063796 0.490098 0.869329
vn -0.123875 0.437115 0.890834
vn 0.028074 0.580584 0.813716
vn -0.196949 0.431615 0.880295
vn -0.218903 0.855297 0.469627
vn 0.488754 0.803866 0.338996
vn -0.450160 0.645200 0.617311
vn -0.181554 0.413316 0.892305
vn 0.119488 0.543902 0.830598
vn -0.071934 0.728899 0.680831
vn -0.000364 0.640962 0.767572
vn 0.085358 0.774605 0.626659
vn -0.319962 0.588411 0.742561
vn -0.230292 0.560514 0.795481
vn 0.626139 0.607768 0.488435
vn -0.596712 0.414490 0.687119
vn -0.194265 0.432395 0.880509
vn 0.361662 0.593440 0.719048
vn 0.133103 0.784415 0.605786
vn -0.018711 0.855814 0.516946
vn -0.154955 0.633806 0.757812
vn -0.448060 0.493421 0.745505
vn 0.423538 -0.058697 0.903974
vn -0.124198 0.071963 0.989645
vn -0.593106 0.370951 0.714577
vn -0.103536 0.517504 0.849394
vn 0.428452 0.488076 0.760401
vn 0.325698 0.409320 0.852278
vn -0.121234 0.582731 0.803572
vn -0.320838 0.396384 0.860199
vn -0.579233 0.202203 0.789685
vn 0.511047 -0.228776 0.828548
vn -0.199258 -0.004578 0.979936
vn -0.431353 0.360900 0.826853
vn -0.137604 0.657845 0.740476
vn 0.344983 0.549909 0.760649
vn 0.287414 0.511316 0.809907
vn -0.095803 0.401995 0.910616
vn -0.444056 0.085264 0.891933
vn -0.549372 -0.054305 0.833811
vn -0.052657 0.019703 0.998418
vn 0.511740 -0.145402 0.846747
vn -0.144092 0.574486 0.805732
vn -0.026954 0.723239 0.690071
vn 0.225344 0.722139 0.654015
vn 0.128595 0.638549 0.758762
vn -0.149940 0.655347 0.740296
vn -0.578285 0.390865 0.716108
vn -0.562226 -0.016893 0.826811
vn 0.386230 -0.377351 0.841684
vn 0.091295 0.093410 0.991433
vn -0.017515 -0.063410 0.997834
vn 0.024322 0.255394 0.966531
vn 0.122541 -0.044010 0.991487
vn 0.077371 0.221573 0.972070
vn -0.104110 -0.113656 0.988050
vn -0.532407 0.105017 0.839949
vn -0.547971 0.046887 0.835182
vn -0.050966 0.301825 0.952000
vn -0.026380 0.301846 0.952992
vn -0.017824 0.211658 0.977181
vn -0.025678 0.220291 0.975096
vn 0.002729 0.073998 0.997255
vn 0.014801 0.064207 0.997827
vn -0.001255 0.053282 0.998579
vn -0.015534 0.050329 0.998612
vn -0.016315 0.036152 0.999213
vn -0.016488 0.033001 0.999319
vn -0.013388 0.088914 0.995949
vn -0.013389 0.088915 0.995949
vn -0.001141 0.233843 0.972274
vn 0.003848 0.317824 0.948142
vn -0.003120 0.233647 0.972316
vn -0.000093 0.317446 0.948276
vn -0.035763 0.299012 0.953579
vn 0.015545 0.214601 0.976578
vn 0.002752 0.298258 0.954481
vn 0.041234 0.128291 0.990879
vn 0.040908 0.064154 0.997101
vn 0.022401 0.092738 0.995439
vn 0.003046 0.091531 0.995798
vn -0.016435 0.068627 0.997507
vn -0.017712 0.016238 0.999711
vn -0.017842 0.016210 0.999709
vn -0.016872 -0.026088 0.999517
vn -0.015476 -0.045789 0.998831
vn -0.048934 0.135476 0.989571
vn -0.059565 0.330964 0.941762
vn -0.037677 0.135486 0.990063
vn -0.037515 0.330957 0.942900
vn 0.001691 0.469259 0.883059
vn 0.019183 0.487607 0.872853
vn 0.023493 0.516442 0.856000
vn 0.015518 0.403761 0.914733
vn 0.000425 0.340811 0.940132
vn -0.002085 0.361715 0.932286
vn -0.004979 0.365193 0.930918
vn -0.012375 0.349779 0.936751
vn -0.012852 0.327890 0.944629
vn -0.012950 0.323462 0.946153
vn -0.011886 0.372028 0.928145
vn -0.010680 0.424007 0.905596
vn -0.009446 0.474464 0.880224
vn -0.009437 0.474463 0.880225
vn -0.089519 0.543033 0.834926
vn -0.090501 0.542791 0.834978
vn -0.061740 0.459222 0.886173
vn -0.019000 0.372083 0.928005
vn 0.034620 0.306395 0.951275
vn 0.019294 0.360555 0.932538
vn 0.025565 0.304721 0.952099
vn 0.029533 0.364957 0.930556
vn 0.001365 0.366634 0.930364
vn -0.009485 0.337168 0.941397
vn -0.006869 0.307040 0.951672
vn -0.007334 0.299796 0.953975
vn -0.013824 0.319629 0.947442
vn -0.037266 0.343976 0.938239
vn -0.085453 0.506059 0.858255
vn -0.088266 0.634091 0.768205
vn -0.071102 0.507794 0.858539
vn -0.083869 0.634370 0.768466
vn -0.003104 0.267291 0.963611
vn -0.026642 0.270421 0.962373
vn -0.010852 0.416808 0.908930
vn -0.000876 0.416080 0.909328
vn 0.554065 0.293029 0.779196
vn 0.536768 0.500400 0.679323
vn 0.179523 0.608645 0.772866
vn 0.584185 0.186114 0.789993
vn 0.626644 0.309483 0.715219
vn 0.765622 0.386345 0.514354
vn 0.829653 0.469297 0.302384
vn 0.880090 0.175424 0.441213
vn 0.857976 -0.008705 0.513617
vn 0.810943 -0.178071 0.557370
vn 0.650432 -0.223975 0.725792
vn 0.378281 -0.340731 0.860701
vn 0.131626 -0.526269 0.840069
vn 0.020588 -0.594768 0.803634
vn -0.014135 -0.613102 0.789877
vn -0.003690 -0.615752 0.787932
vn -0.010003 -0.619149 0.785210
vn 0.008460 -0.627022 0.778955
vn -0.037944 -0.627011 0.778086
vn -0.176652 -0.531139 0.828665
vn -0.111668 -0.374760 0.920372
vn -0.507138 0.079818 0.858161
vn -0.388605 -0.279768 0.877904
vn -0.569771 0.182263 0.801338
vn -0.593673 0.117284 0.796113
vn -0.664654 0.157494 0.730364
vn -0.655281 0.247030 0.713851
vn -0.597149 0.266921 0.756416
vn -0.579411 0.200153 0.790077
vn -0.524390 0.225163 0.821168
vn -0.520267 0.255225 0.814974
vn -0.163413 0.605929 0.778554
vn -0.485853 0.451823 0.748200
vn 0.032061 0.556657 0.830124
vn -0.023693 0.534954 0.844549
vn -0.056863 0.564178 0.823693
vn -0.056846 0.572379 0.818016
vn -0.013565 0.630933 0.775719
vn -0.015065 0.632447 0.774457
vn -0.016888 0.634376 0.772840
vn 0.543380 0.504334 0.671107
vn 0.608764 0.399470 0.685441
vn 0.711889 0.162835 0.683154
vn 0.708430 0.166475 0.685867
vn 0.719841 0.222842 0.657397
vn 0.758723 0.213962 0.615272
vn 0.880359 0.245310 0.405944
vn 0.902165 0.048753 0.428628
vn 0.842494 -0.014919 0.538500
vn 0.731382 -0.027843 0.681399
vn 0.417362 -0.338842 0.843205
vn 0.070816 -0.616540 0.784132
vn -0.014246 -0.650344 0.759507
vn -0.014230 -0.651180 0.758790
vn -0.013900 -0.651996 0.758095
vn -0.011570 -0.654008 0.756399
vn -0.012319 -0.656410 0.754304
vn -0.016241 -0.656678 0.753996
vn -0.017084 -0.655756 0.754780
vn -0.097857 -0.621832 0.777013
vn -0.433598 -0.338488 0.835116
vn -0.682371 0.044620 0.729643
vn -0.712230 0.181841 0.677984
vn -0.711383 0.182359 0.678734
vn -0.710583 0.182048 0.679655
vn -0.709791 0.182958 0.680238
vn -0.710432 0.178415 0.680776
vn -0.712389 0.175986 0.679361
vn -0.715658 0.172217 0.676887
vn -0.673803 0.284568 0.681917
vn -0.533039 0.484618 0.693552
vn -0.273785 0.683113 0.677051
vn 0.000553 0.777057 0.629430
vn -0.014303 0.774556 0.632344
vn -0.015507 0.778787 0.627097
vn -0.011746 0.781905 0.623287
vn -0.010652 0.783080 0.621830
vn -0.010353 0.783815 0.620908
vn -0.019217 0.787247 0.616338
vn 0.376287 0.626635 0.682449
f 2/2/1 11/11/2 1/1/3
f 1/1/3 11/11/2 10/10/4
f 3/3/5 12/12/6 2/2/1
f 2/2/1 12/12/6 11/11/2
f 4/4/7 13/13/8 3/3/5
f 3/3/5 13/13/8 12/12/6
f 4/4/7 5/5/9 13/13/8
f 13/13/8 5/5/9 14/14/10
f 5/5/9 6/6/11 14/14/10
f 14/14/10 6/6/11 15/15/12
f 6/6/11 7/7/13 15/15/12
f 15/15/12 7/7/13 16/16/14
f 8/8/15 17/17/16 7/7/13
f 7/7/13 17/17/16 16/16/14
f 9/9/17 18/18/18 8/8/15
f 8/8/15 18/18/18 17/17/16
f 11/11/2 20/20/19 10/10/4
f 10/10/4 20/20/19 19/19/20
f 12/12/6 21/21/21 11/11/2
f 11/11/2 21/21/21 20/20/19
f 13/13/8 22/22/22 12/12/6
f 12/12/6 22/22/22 21/21/21
f 13/13/8 14/14/10 22/22/22
f 22/22/22 14/14/10 23/23/23
f 14/14/10 15/15/12 23/23/23
f 23/23/23 15/15/12 24/24/24
f 15/15/12 16/16/14 24/24/24
f 24/24/24 16/16/14 25/25/25
f 17/17/16 26/26/26 16/16/14
f 16/16/14 26/26/26 25/25/25
f 18/18/18 27/27/27 17/17/16
f 17/17/16 27/27/27 26/26/26
f 20/20/19 29/29/28 19/19/20
f 19/19/20 29/29/28 28/28/29
f 21/21/21 30/30/30 20/20/19
f 20/20/19 30/30/30 29/29/28
f 22/22/22 31/31/31 21/21/21
f 21/21/21 31/31/31 30/30/30
f 22/22/22 23/23/23 31/31/31
f 31/31/31 23/23/23 32/32/32
f 23/23/23 24/24/24 32/32/32
f 32/32/32 24/24/24 33/33/33
f 24/24/24 25/25/25 33/33/33
f 33/33/33 25/25/25 34/34/34
f 25/25/25 26/26/26 34/34/34
f 34/34/34 26/26/26 35/35/35
f 27/27/27 36/36/36 26/26/26
f 26/26/26 36/36/36 35/35/35
f 29/29/28 38/38/37 28/28/29
f 28/28/29 38/38/37 37/37/38
f 30/30/30 39/39/39 29/29/28
f 29/29/28 39/39/39 38/38/37
f 31/31/31 40/40/40 30/30/30
f 30/30/30 40/40/40 39/39/39
f 31/31/31 32/32/32 40/40/40
f 40/40/40 32/32/32 41/41/41
f 32/32/32 33/33/33 41/41/41
f 41/41/41 33/33/33 42/42/42
f 34/34/34 43/43/43 33/33/33
f 33/33/33 43/43/43 42/42/42
f 34/34/34 35/35/35 43/43/43
f 43/43/43 35/35/35 44/44/44
f 36/36/36 45/45/45 35/35/35
f 35/35/35 45/45/45 44/44/44
f 37/37/38 38/38/37 46/46/46
f 46/46/46 38/38/37 47/47/47
f 39/39/39 48/48/48 38/38/37
f 38/38/37 48/48/48 47/47/47
f 40/40/40 49/49/49 39/39/39
f 39/39/39 49/49/49 48/48/48
f 40/40/40 41/41/41 49/49/49
f 49/49/49 41/41/41 50/50/50
f 41/41/41 42/42/42 50/50/50
f 50/50/50 42/42/42 51/51/51
f 43/43/43 52/52/52 42/42/42
f 42/42/42 52/52/52 51/51/51
f 44/44/44 53/53/53 43/43/43
f 43/43/43 53/53/53 52/52/52
f 45/45/45 54/54/54 44/44/44
f 44/44/44 54/54/54 53/53/53
f 46/46/46 47/47/47 55/55/55
f 55/55/55 47/47/47 56/56/56
f 47/47/47 48/48/48 56/56/56
f 56/56/56 48/48/48 57/57/57
f 49/49/49 58/58/58 48/48/48
f 48/48/48 58/58/58 57/57/57
f 49/49/49 50/50/50 58/58/58
f 58/58/58 50/50/50 59/59/59
f 50/50/50 51/51/51 59/59/59
f 59/59/59 51/51/51 60/60/60
f 52/52/52 61/61/61 51/51/51
f 51/51/51 61/61/61 60/60/60
f 53/53/53 62/62/62 52/52/52
f 52/52/52 62/62/62 61/61/61
f 54/54/54 63/63/63 53/53/53
f 53/53/53 63/63/63 62/62/62
f 56/56/56 65/65/64 55/55/55
f 55/55/55 65/65/64 64/64/65
f 56/56/56 57/57/57 65/65/64
f 65/65/64 57/57/57 66/66/66
f 58/58/58 67/67/67 57/57/57
f 57/57/57 67/67/67 66/66/66
f 58/58/58 59/59/59 67/67/67
f 67/67/67 59/59/59 68/68/68
f 59/59/59 60/60/60 68/68/68
f 68/68/68 60/60/60 69/69/69
f 60/60/60 61/61/61 69/69/69
f 69/69/69 61/61/61 70/70/70
f 62/62/62 71/71/71 61/61/61
f 61/61/61 71/71/71 70/70/70
f 63/63/63 72/72/72 62/62/62
f 62/62/62 72/72/72 71/71/71
f 64/64/65 65/65/64 73/73/73
f 73/73/73 65/65/64 74/74/74
f 65/65/64 66/66/66 74/74/74
f 74/74/74 66/66/66 75/75/75
f 67/67/67 76/76/76 66/66/66
f 66/66/66 76/76/76 75/75/75
f 67/67/67 68/68/68 76/76/76
f 76/76/76 68/68/68 77/77/77
f 68/68/68 69/69/69 77/77/77
f 77/77/77 69/69/69 78/78/78
f 69/69/69 70/70/70 78/78/78
f 78/78/78 70/70/70 79/79/79
f 71/71/71 80/80/80 70/70/70
f 70/70/70 80/80/80 79/79/79
f 72/72/72 81/81/81 71/71/71
f 71/71/71 81/81/81 80/80/80
f 138/138/82 139/139/83 85/85/84
f 85/85/84 139/139/83 84/84/85
f 84/84/85 86/86/86 85/85/84
f 85/85/84 86/86/86 87/87/87
f 86/86/86 88/88/88 87/87/87
f 87/87/87 88/88/88 89/89/89
f 88/88/88 90/90/90 89/89/89
f 89/89/89 90/90/90 91/91/91
f 90/90/90 92/92/92 91/91/91
f 91/91/91 92/92/92 93/93/93
f 189/189/94 94/94/95 188/188/96
f 188/188/96 94/94/95 95/95/97
f 97/97/98 98/98/99 96/96/100
f 96/96/100 98/98/99 99/99/101
f 98/98/99 100/100/102 99/99/101
f 99/99/101 100/100/102 101/101/103
f 100/100/102 102/102/104 101/101/103
f 101/101/103 102/102/104 103/103/105
f 102/102/104 104/104/106 103/103/105
f 103/103/105 104/104/106 105/105/107
f 105/105/107 104/104/106 107/107/108
f 107/107/108 104/104/106 106/106/109
f 187/187/110 108/108/111 186/186/112
f 186/186/112 108/108/111 109/109/113
f 141/141/114 112/112/115 140/140/116
f 140/140/116 112/112/115 113/113/117
f 112/112/115 114/114/118 113/113/117
f 113/113/117 114/114/118 115/115/119
f 114/114/118 116/116/120 115/115/119
f 115/115/119 116/116/120 117/117/121
f 116/116/120 118/118/122 117/117/121
f 117/117/121 118/118/122 119/119/123
f 118/118/122 120/120/124 119/119/123
f 119/119/123 120/120/124 121/121/125
f 120/120/124 122/122/126 121/121/125
f 121/121/125 122/122/126 123/123/127
f 124/124/128 125/125/129 143/143/130
f 143/143/130 125/125/129 142/142/131
f 126/126/132 128/128/133 127/127/134
f 127/127/134 128/128/133 129/129/135
f 129/129/135 128/128/133 131/131/136
f 131/131/136 128/128/133 130/130/137
f 131/131/136 130/130/137 133/133/138
f 133/133/138 130/130/137 132/132/139
f 133/133/138 132/132/139 135/135/140
f 135/135/140 132/132/139 134/134/141
f 185/185/142 136/136/143 184/184/144
f 184/184/144 136/136/143 137/137/145
f 83/83/146 139/139/83 82/82/147
f 82/82/147 139/139/83 138/138/82
f 111/111/148 141/141/114 110/110/149
f 110/110/149 141/141/114 140/140/116
f 143/143/130 142/142/131 127/127/134
f 127/127/134 142/142/131 126/126/132
f 145/145/150 180/180/151 1/1/3
f 1/1/3 180/180/151 144/144/152
f 146/146/153 145/145/150 10/10/4
f 10/10/4 145/145/150 1/1/3
f 146/146/153 10/10/4 147/147/154
f 147/147/154 10/10/4 19/19/20
f 147/147/154 19/19/20 148/148/155
f 148/148/155 19/19/20 28/28/29
f 148/148/155 28/28/29 149/149/156
f 149/149/156 28/28/29 37/37/38
f 149/149/156 37/37/38 150/150/157
f 150/150/157 37/37/38 46/46/46
f 151/151/158 150/150/157 55/55/55
f 55/55/55 150/150/157 46/46/46
f 152/152/159 151/151/158 64/64/65
f 64/64/65 151/151/158 55/55/55
f 153/153/160 152/152/159 73/73/73
f 73/73/73 152/152/159 64/64/65
f 181/181/161 153/153/160 154/154/162
f 154/154/162 153/153/160 73/73/73
f 74/74/74 155/155/163 73/73/73
f 73/73/73 155/155/163 154/154/162
f 74/74/74 75/75/75 155/155/163
f 155/155/163 75/75/75 156/156/164
f 75/75/75 76/76/76 156/156/164
f 156/156/164 76/76/76 157/157/165
f 76/76/76 77/77/77 157/157/165
f 157/157/165 77/77/77 158/158/166
f 78/78/78 159/159/167 77/77/77
f 77/77/77 159/159/167 158/158/166
f 78/78/78 79/79/79 159/159/167
f 159/159/167 79/79/79 160/160/168
f 79/79/79 80/80/80 160/160/168
f 160/160/168 80/80/80 161/161/169
f 80/80/80 81/81/81 161/161/169
f 161/161/169 81/81/81 162/162/170
f 81/81/81 163/163/171 162/162/170
f 162/162/170 163/163/171 182/182/172
f 72/72/72 164/164/173 81/81/81
f 81/81/81 164/164/173 163/163/171
f 63/63/63 165/165/174 72/72/72
f 72/72/72 165/165/174 164/164/173
f 54/54/54 166/166/175 63/63/63
f 63/63/63 166/166/175 165/165/174
f 45/45/45 167/167/176 54/54/54
f 54/54/54 167/167/176 166/166/175
f 168/168/177 167/167/176 36/36/36
f 36/36/36 167/167/176 45/45/45
f 169/169/178 168/168/177 27/27/27
f 27/27/27 168/168/177 36/36/36
f 18/18/18 170/170/179 27/27/27
f 27/27/27 170/170/179 169/169/178
f 9/9/17 171/171/180 18/18/18
f 18/18/18 171/171/180 170/170/179
f 172/172/181 183/183/182 9/9/17
f 9/9/17 183/183/182 171/171/180
f 172/172/181 9/9/17 173/173/183
f 173/173/183 9/9/17 8/8/15
f 173/173/183 8/8/15 174/174/184
f 174/174/184 8/8/15 7/7/13
f 174/174/184 7/7/13 175/175/185
f 175/175/185 7/7/13 6/6/11
f 175/175/185 6/6/11 176/176/186
f 176/176/186 6/6/11 5/5/9
f 176/176/186 5/5/9 177/177/187
f 177/177/187 5/5/9 4/4/7
f 177/177/187 4/4/7 178/178/188
f 178/178/188 4/4/7 3/3/5
f 178/178/188 3/3/5 179/179/189
f 179/179/189 3/3/5 2/2/1
f 179/179/189 2/2/1 144/144/152
f 144/144/152 2/2/1 1/1/3
f 135/135/140 134/134/141 184/184/144
f 184/184/144 134/134/141 185/185/142
f 107/107/108 106/106/109 186/186/112
f 186/186/112 106/106/109 187/187/110
f 93/93/93 92/92/92 188/188/96
f 188/188/96 92/92/92 189/189/94
f 190/190/190 180/180/151 191/191/191
f 191/191/191 180/180/151 145/145/150
f 191/191/191 145/145/150 192/192/192
f 192/192/192 145/145/150 146/146/153
f 192/192/192 146/146/153 193/193/193
f 193/193/193 146/146/153 147/147/154
f 193/193/193 147/147/154 194/194/194
f 194/194/194 147/147/154 148/148/155
f 194/194/194 148/148/155 195/195/195
f 195/195/195 148/148/155 149/149/156
f 195/195/195 149/149/156 196/196/196
f 196/196/196 149/149/156 150/150/157
f 197/197/197 196/196/196 151/151/158
f 151/151/158 196/196/196 150/150/157
f 198/198/198 197/197/197 152/152/159
f 152/152/159 197/197/197 151/151/158
f 199/199/199 198/198/198 153/153/160
f 153/153/160 198/198/198 152/152/159
f 200/200/200 199/199/199 181/181/161
f 181/181/161 199/199/199 153/153/160
f 200/200/200 181/181/161 201/201/201
f 201/201/201 181/181/161 154/154/162
f 155/155/163 202/202/202 154/154/162
f 154/154/162 202/202/202 201/201/201
f 156/156/164 203/203/203 155/155/163
f 155/155/163 203/203/203 202/202/202
f 157/157/165 204/204/204 156/156/164
f 156/156/164 204/204/204 203/203/203
f 158/158/166 205/205/205 157/157/165
f 157/157/165 205/205/205 204/204/204
f 158/158/166 159/159/167 205/205/205
f 205/205/205 159/159/167 206/206/206
f 159/159/167 160/160/168 206/206/206
f 206/206/206 160/160/168 207/207/207
f 160/160/168 161/161/169 207/207/207
f 207/207/207 161/161/169 208/208/208
f 161/161/169 162/162/170 208/208/208
f 208/208/208 162/162/170 209/209/209
f 162/162/170 182/182/172 209/209/209
f 209/209/209 182/182/172 210/210/210
f 210/210/210 182/182/172 211/211/211
f 211/211/211 182/182/172 163/163/171
f 164/164/173 212/212/212 163/163/171
f 163/163/171 212/212/212 211/211/211
f 165/165/174 213/213/213 164/164/173
f 164/164/173 213/213/213 212/212/212
f 165/165/174 166/166/175 213/213/213
f 213/213/213 166/166/175 214/214/214
f 166/166/175 167/167/176 214/214/214
f 214/214/214 167/167/176 215/215/215
f 167/167/176 168/168/177 215/215/215
f 215/215/215 168/168/177 216/216/216
f 168/168/177 169/169/178 216/216/216
f 216/216/216 169/169/178 217/217/217
f 169/169/178 170/170/179 217/217/217
f 217/217/217 170/170/179 218/218/218
f 170/170/179 171/171/180 218/218/218
f 218/218/218 171/171/180 219/219/219
f 220/220/220 219/219/219 183/183/182
f 183/183/182 219/219/219 171/171/180
f 220/220/220 183/183/182 221/221/221
f 221/221/221 183/183/182 172/172/181
f 221/221/221 172/172/181 222/222/222
f 222/222/222 172/172/181 173/173/183
f 222/222/222 173/173/183 223/223/223
f 223/223/223 173/173/183 174/174/184
f 223/223/223 174/174/184 224/224/224
f 224/224/224 174/174/184 175/175/185
f 224/224/224 175/175/185 225/225/225
f 225/225/225 175/175/185 176/176/186
f 226/226/226 225/225/225 177/177/187
f 177/177/187 225/225/225 176/176/186
f 227/227/227 226/226/226 178/178/188
f 178/178/188 226/226/226 177/177/187
f 228/228/228 227/227/227 179/179/189
f 179/179/189 227/227/227 178/178/188
f 229/229/229 228/228/228 144/144/152
f 144/144/152 228/228/228 179/179/189
f 190/190/190 229/229/229 180/180/151
f 180/180/151 229/229/229 144/144/152
