# This file uses centimeters as units for non-parametric coordinates.

v -78.302528 -68.457481 47.103104
v -54.509804 -76.260788 49.020294
v -24.023438 -77.223434 49.719574
v 24.754759 -78.763657 50.838409
v 66.345032 -75.393852 50.881645
v -76.113518 -31.658628 39.983429
v 67.761711 -43.611641 44.724602
v 69.268982 -6.609219 37.553879
v -74.807205 0.410151 33.768806
v -73.701851 27.545269 28.510273
v 70.474724 22.992744 31.817299
v -72.419304 62.011902 21.828924
v -39.941296 60.519165 22.664749
v 5.788221 59.075211 23.713659
v 42.371876 57.920033 24.552794
v 71.757355 57.459366 25.135954
v -49.003288 -60.579353 -10.845439
v -50.107895 -47.085175 -20.129478
v -50.144833 -40.140633 -21.783916
v -50.183243 -33.272133 -23.431324
v -50.225842 -26.474579 -25.088558
v -50.270000 -19.646938 -26.761284
v -50.314163 -12.792505 -28.439606
v -50.358315 -5.911117 -30.123337
v -50.264835 0.938468 -31.946037
v -50.171490 7.776768 -33.765503
v -49.016804 27.051273 -34.121895
v -33.591171 26.331642 -36.784676
v -25.449434 26.313780 -36.639420
v -17.308443 26.295897 -36.494251
v -9.168181 26.278028 -36.349121
v -1.027871 26.257156 -36.216774
v 7.106544 26.236275 -36.084694
v 15.234977 26.215328 -35.952988
v 23.375717 26.202322 -35.786983
v 31.523918 26.189251 -35.621033
v 46.868584 26.836126 -32.431812
v 47.591747 7.275701 -32.313217
v 47.455360 0.433551 -30.630966
v 47.319443 -6.386122 -28.954334
v 47.183998 -13.183407 -27.283255
v 47.048973 -19.958370 -25.617706
v 46.913548 -26.712177 -23.953808
v 46.783012 -33.476284 -22.308819
v 46.653320 -40.274113 -20.661964
v 46.526279 -47.129440 -19.017014
v 45.528782 -62.514091 -12.323220
v 31.133959 -66.107674 -17.502846
v 22.924854 -66.114807 -17.617985
v 14.683167 -66.120071 -17.730949
v 6.502823 -66.127472 -17.846046
v -1.683569 -66.134872 -17.961273
v -9.876058 -66.142204 -18.076460
v -18.048363 -66.150452 -18.192665
v -26.274643 -66.157745 -18.308210
v -34.447128 -66.191338 -18.459682
v -52.000092 -63.038883 -6.570665
v -53.139076 -48.493473 -16.615122
v -53.037170 -41.214996 -18.522619
v -52.936405 -33.977119 -20.422201
v -52.838127 -26.782959 -22.318989
v -52.740662 -19.598921 -24.216240
v -52.643410 -12.426167 -26.110783
v -52.546310 -5.264604 -28.002403
v -52.449696 1.886278 -29.892744
v -52.353252 9.025995 -31.780247
v -51.045128 29.128874 -32.283051
v -34.971611 28.651701 -34.827034
v -26.463688 28.606110 -34.694241
v -17.963169 28.560547 -34.561714
v -9.470062 28.514997 -34.429432
v -0.983940 28.468536 -34.304081
v 7.491894 28.422089 -34.179169
v 15.957311 28.375647 -34.054764
v 24.422043 28.331774 -33.912071
v 32.883659 28.287905 -33.769497
v 48.715740 28.589279 -30.762173
v 49.550812 8.334850 -30.536510
v 49.464870 1.253778 -28.741169
v 49.379055 -5.819040 -26.948053
v 49.293358 -12.883629 -25.157093
v 49.207756 -19.939983 -23.368235
v 49.121849 -26.988724 -21.579466
v 49.038383 -34.046513 -19.800001
v 48.955399 -41.125565 -18.018509
v 48.873886 -48.238022 -16.237074
v 47.976078 -64.744164 -8.884066
v 32.505905 -68.346741 -14.690146
v 23.982168 -68.378113 -14.774691
v 15.428863 -68.408569 -14.857927
v 6.896589 -68.439987 -14.942576
v -1.651787 -68.471413 -15.027334
v -10.216425 -68.502777 -15.112038
v -18.784065 -68.534523 -15.197386
v -27.392658 -68.565857 -15.282234
v -35.987526 -68.609100 -15.386011
v -0.662396 7.768723 112.569382
v 25.448761 -42.151020 -27.554398
v 25.022699 -54.404514 -26.400225
v 27.627186 -54.128414 -25.535837
v 27.936087 -41.890118 -26.721607
v 26.138506 -32.391399 -27.966097
v 28.508944 -32.199318 -27.161709
v 26.833849 -22.681345 -28.374662
v 29.089458 -22.628593 -27.594952
v 27.522585 -13.084395 -28.781006
v 29.688635 -12.911474 -28.031513
v 28.220272 -3.405440 -29.188467
v 30.280922 -3.251749 -28.468395
v 30.595892 13.577553 -29.858280
v 32.549076 13.713570 -29.169174
v 31.051723 40.132660 -33.823303
v 33.017963 40.235245 -33.121967
v 29.518431 -44.660553 -5.924965
v 29.138765 -56.878746 -4.430527
v 30.642481 -56.363720 -2.176568
v 30.950182 -44.171307 -3.766459
v 29.784712 -34.888508 -6.500868
v 31.145655 -34.478371 -4.431437
v 30.056166 -25.165297 -7.067463
v 31.349451 -24.904249 -5.078045
v 30.327185 -15.555267 -7.628550
v 31.562029 -15.182776 -5.725967
v 30.601484 -5.862811 -8.190697
v 31.772497 -5.519071 -6.374386
v 31.961294 11.242862 -8.437967
v 33.067711 11.559193 -6.710524
v 33.315620 37.650791 -13.116634
v 34.426620 37.935188 -11.369267
v -20.417927 -42.116543 -23.418369
v -19.254658 -54.207176 -21.387314
v -16.551250 -53.661503 -21.408199
v -17.833580 -41.597492 -23.431244
v -20.856434 -32.413628 -24.665993
v -18.384632 -31.974133 -24.664398
v -21.283798 -22.759226 -25.909157
v -18.914490 -22.468794 -25.885582
v -21.705551 -13.217406 -27.140718
v -19.442184 -12.817037 -27.125391
v -22.127281 -3.593609 -28.381540
v -19.970795 -3.222803 -28.359570
v -21.763901 13.381220 -30.879021
v -19.716908 13.723710 -30.851330
v -25.178364 39.412640 -36.519001
v -23.111927 39.724033 -36.481659
v -28.552155 -45.487057 -20.541780
v -27.388885 -57.577690 -18.510725
v -24.685478 -57.032017 -18.531610
v -25.967808 -44.968006 -20.554655
v -28.990662 -35.784142 -21.789404
v -26.518860 -35.344646 -21.787809
v -29.418026 -26.129738 -23.032568
v -27.048717 -25.839306 -23.008993
v -29.839779 -16.587919 -24.264130
v -27.576412 -16.187550 -24.248802
v -30.261509 -6.964123 -25.504951
v -28.105022 -6.593316 -25.482981
v -29.898129 10.010707 -28.002432
v -27.851135 10.353196 -27.974741
v -33.312592 36.042126 -33.642410
v -31.246155 36.353519 -33.605068
v 24.749144 -45.584583 14.436615
v 23.032253 -56.458580 16.752552
v 24.409946 -55.971096 19.825966
v 26.058079 -45.120911 17.378176
v 25.939070 -36.859203 13.334055
v 27.175198 -36.466946 16.154369
v 27.129574 -28.177460 12.246351
v 28.289478 -27.919125 14.960505
v 27.752768 -15.485889 11.293051
v 28.934723 -14.961658 14.035339
v 29.289043 -4.894403 10.928318
v 30.488441 -4.373314 13.737339
v 31.266088 11.182635 10.117117
v 32.063877 11.522456 12.002945
v 35.027924 37.228165 4.770918
v 35.824730 37.536846 6.678352
v -27.490952 -47.737507 6.058309
v -27.490351 -58.978329 6.504523
v -26.268656 -59.055527 3.329109
v -26.315676 -47.815392 3.026170
v -26.853937 -38.918015 5.300324
v -25.727175 -39.045467 2.410652
v -26.218401 -30.143997 4.534960
v -25.143471 -30.385248 1.784513
v -24.083052 -17.605816 3.755622
v -22.937397 -17.594524 0.948595
v -22.721373 -7.116414 2.084971
v -21.543980 -7.121585 -0.781093
v -20.579441 8.821672 -0.019187
v -19.786369 8.807623 -1.937266
v -20.201641 35.655094 -0.982299
v -19.401279 35.605846 -2.912425
v -35.258713 -44.054787 -6.691475
v -37.043392 -56.156391 -5.267464
v -34.991520 -56.385353 -7.096109
v -33.293514 -44.277344 -8.434143
v -33.236340 -34.546535 -7.874094
v -31.366192 -34.815643 -9.527294
v -31.218979 -25.087990 -9.058050
v -29.454426 -25.473427 -10.618929
v -29.226532 -15.739418 -10.230780
v -27.505882 -15.990196 -11.734060
v -27.213585 -6.311764 -11.415001
v -25.572918 -6.562052 -12.841181
v -23.086437 10.064293 -14.465530
v -21.527763 9.816556 -15.813644
v -20.689007 36.591400 -17.881308
v -19.120598 36.307217 -19.233292
v 40.762665 -41.883507 8.106201
v 41.795380 -52.786964 9.854597
v 41.869637 -51.952293 12.098828
v 40.825989 -41.090446 10.252237
v 39.518372 -33.209755 7.148405
v 39.578236 -32.504955 9.204945
v 38.283070 -24.577507 6.202810
v 38.350590 -24.021639 8.182444
v 35.269875 -12.325637 4.988435
v 35.266533 -11.511238 6.975483
v 33.522247 -1.788044 4.471300
v 33.513573 -0.972491 6.505177
v 30.636757 14.100096 3.444176
v 30.627359 14.635771 4.808591
v 27.784039 40.100933 -0.690147
v 27.776203 40.606319 0.689750
vt 0.000000 0.000000
vt 0.100000 0.000000
vt 0.350000 0.000000
vt 0.750000 0.000000
vt 1.000000 0.000000
vt 0.000000 0.250000
vt 1.000000 0.175000
vt 1.000000 0.550000
vt 0.000000 0.575000
vt 0.000000 0.850000
vt 1.000000 0.850000
vt 0.000000 1.000000
vt 0.175000 1.000000
vt 0.550000 1.000000
vt 0.850000 1.000000
vt 1.000000 1.000000
vt 0.005572 0.005090
vt 0.003950 0.100000
vt 0.003935 0.200000
vt 0.003780 0.300000
vt 0.003756 0.400000
vt 0.003595 0.500000
vt 0.003437 0.600000
vt 0.003282 0.700000
vt 0.003185 0.800000
vt 0.003084 0.900000
vt 0.003467 0.996387
vt 0.100000 0.997185
vt 0.200000 0.997232
vt 0.300000 0.997280
vt 0.400000 0.997327
vt 0.500000 0.997426
vt 0.600000 0.997524
vt 0.700000 0.997624
vt 0.800000 0.997590
vt 0.900000 0.997556
vt 0.995500 0.996973
vt 0.996761 0.900000
vt 0.996735 0.800000
vt 0.996711 0.700000
vt 0.996690 0.600000
vt 0.996671 0.500000
vt 0.996614 0.400000
vt 0.995917 0.300000
vt 0.995913 0.200000
vt 0.995963 0.100000
vt 0.995652 0.004485
vt 0.900000 0.004949
vt 0.800000 0.004925
vt 0.700000 0.004596
vt 0.600000 0.004448
vt 0.500000 0.004300
vt 0.400000 0.004153
vt 0.300000 0.004073
vt 0.200000 0.003925
vt 0.100000 0.002994
vt 0.002849 0.002603
vt 0.001223 0.100000
vt 0.001286 0.200000
vt 0.001301 0.300000
vt 0.001362 0.400000
vt 0.001372 0.500000
vt 0.001380 0.600000
vt 0.001387 0.700000
vt 0.001366 0.800000
vt 0.001341 0.900000
vt 0.002040 0.997874
vt 0.100000 0.998403
vt 0.200000 0.998418
vt 0.300000 0.998434
vt 0.400000 0.998450
vt 0.500000 0.998496
vt 0.600000 0.998544
vt 0.700000 0.998592
vt 0.800000 0.998561
vt 0.900000 0.998530
vt 0.997105 0.998053
vt 0.998214 0.900000
vt 0.998210 0.800000
vt 0.998208 0.700000
vt 0.998207 0.600000
vt 0.998208 0.500000
vt 0.998187 0.400000
vt 0.997825 0.300000
vt 0.997834 0.200000
vt 0.997871 0.100000
vt 0.997509 0.002569
vt 0.900000 0.002765
vt 0.800000 0.002712
vt 0.700000 0.002494
vt 0.600000 0.002376
vt 0.500000 0.002261
vt 0.400000 0.002149
vt 0.300000 0.002073
vt 0.200000 0.001963
vt 0.100000 0.001471
vt 0.018492 0.020816
vt 0.021370 0.020339
vt 0.018604 0.020005
vt 0.019924 0.020355
vt 0.020006 0.019616
vt 0.020074 0.019000
vt 0.019825 0.018683
vt 0.019448 0.018352
vt 0.019159 0.018099
vt 0.018867 0.018056
vt 0.018733 0.019081
vt 0.018341 0.021887
vt 0.018774 0.021814
vt 0.019256 0.021749
vt 0.019565 0.021707
vt 0.019776 0.021688
vt 0.019857 0.020962
vt 0.026048 0.144971
vt 0.025554 0.001293
vt 0.047163 0.001293
vt 0.047048 0.144971
vt 0.026173 0.288649
vt 0.045817 0.288649
vt 0.026650 0.432328
vt 0.045626 0.432328
vt 0.026731 0.576006
vt 0.044351 0.576006
vt 0.026799 0.719684
vt 0.043101 0.719684
vt 0.026853 0.863362
vt 0.041872 0.863362
vt 0.026683 1.007040
vt 0.041104 1.007040
vt 0.026048 0.144971
vt 0.025554 0.001293
vt 0.047163 0.001293
vt 0.047048 0.144971
vt 0.026173 0.288649
vt 0.045817 0.288649
vt 0.026650 0.432328
vt 0.045626 0.432328
vt 0.026731 0.576006
vt 0.044351 0.576006
vt 0.026799 0.719684
vt 0.043101 0.719684
vt 0.026853 0.863362
vt 0.041872 0.863362
vt 0.026683 1.007040
vt 0.041104 1.007040
vt 0.920653 0.919217
vt 0.917995 0.996552
vt 0.900969 0.996531
vt 0.904108 0.919196
vt 0.917786 0.893258
vt 0.902310 0.893239
vt 0.920323 0.849871
vt 0.898712 0.841902
vt 0.920812 0.793029
vt 0.909038 0.764641
vt 0.928960 0.792348
vt 0.940594 0.769770
vt 0.927793 0.882971
vt 0.939626 0.882971
vt 0.927659 0.996172
vt 0.939021 0.996172
vt 0.026048 0.144971
vt 0.025554 0.001293
vt 0.047163 0.001293
vt 0.047048 0.144971
vt 0.026173 0.288649
vt 0.045817 0.288649
vt 0.026650 0.432328
vt 0.045626 0.432328
vt 0.026731 0.576006
vt 0.044351 0.576006
vt 0.026799 0.719684
vt 0.043101 0.719684
vt 0.026853 0.863362
vt 0.041872 0.863362
vt 0.026683 1.007040
vt 0.041104 1.007040
vt 0.958719 0.853819
vt 0.957231 0.997478
vt 0.943973 0.997039
vt 0.945835 0.853393
vt 0.957936 0.797261
vt 0.945884 0.796861
vt 0.957497 0.754130
vt 0.946294 0.727286
vt 0.966751 0.750754
vt 0.976686 0.730016
vt 0.965219 0.806776
vt 0.975222 0.806776
vt 0.967750 0.863362
vt 0.976966 0.863362
vt 0.967645 0.995304
vt 0.976495 0.995304
vt 0.958719 0.853819
vt 0.957231 0.997478
vt 0.943973 0.997039
vt 0.945835 0.853393
vt 0.957936 0.797261
vt 0.945884 0.796861
vt 0.957497 0.754130
vt 0.946294 0.727286
vt 0.966751 0.750754
vt 0.976686 0.730016
vt 0.965219 0.806776
vt 0.975222 0.806776
vt 0.967750 0.863362
vt 0.976966 0.863362
vt 0.967645 0.995304
vt 0.976495 0.995304
vt 0.026048 0.144971
vt 0.025554 0.001293
vt 0.047163 0.001293
vt 0.047048 0.144971
vt 0.026173 0.288649
vt 0.045817 0.288649
vt 0.026650 0.432328
vt 0.045626 0.432328
vt 0.026731 0.576006
vt 0.044351 0.576006
vt 0.026799 0.719684
vt 0.043101 0.719684
vt 0.026853 0.863362
vt 0.041872 0.863362
vt 0.026683 1.007040
vt 0.041104 1.007040
vt 0.958719 0.853819
vt 0.957231 0.997478
vt 0.943973 0.997039
vt 0.945835 0.853393
vt 0.957936 0.797261
vt 0.945884 0.796861
vt 0.957497 0.754130
vt 0.946294 0.727286
vt 0.966751 0.750754
vt 0.976686 0.730016
vt 0.965219 0.806776
vt 0.975222 0.806776
vt 0.967750 0.863362
vt 0.976966 0.863362
vt 0.967645 0.995304
vt 0.976495 0.995304
vn 0.709061 0.576752 0.405696
vn 0.251945 0.947067 0.198965
vn 0.668715 0.576690 0.469307
vn 0.279393 0.850258 0.446095
vn 0.005825 0.991085 0.133108
vn -0.009640 0.898555 0.438755
vn -0.007744 0.897597 0.440749
vn -0.007806 0.897307 0.441339
vn -0.002837 0.901657 0.432443
vn -0.048770 0.986531 0.156137
vn -0.007847 0.892321 0.451334
vn -0.007689 0.892121 0.451732
vn -0.007770 0.891948 0.452072
vn -0.230593 0.844038 0.484176
vn -0.809578 0.230656 0.539798
vn -0.644817 0.620995 0.445619
vn -0.950439 0.108078 0.291521
vn -0.651939 0.686202 0.322648
vn 0.928078 0.096389 0.359695
vn 0.764067 0.321329 0.559419
vn 0.815105 0.135758 0.563182
vn -0.831810 0.143715 0.536133
vn 0.813777 0.136901 0.564824
vn -0.855564 0.137404 0.499130
vn 0.840640 0.119462 0.528256
vn -0.828529 0.146360 0.540480
vn -0.951678 0.089198 0.293858
vn 0.940224 0.059317 0.335352
vn 0.819624 0.136088 0.556504
vn -0.828499 0.147247 0.540284
vn 0.820342 0.135817 0.555511
vn -0.828813 0.146986 0.539874
vn 0.804324 0.141928 0.576992
vn -0.836150 0.145712 0.528792
vn 0.849121 0.116519 0.515186
vn 0.941635 0.019215 0.336087
vn -0.828596 0.147080 0.540181
vn -0.948132 0.067018 0.310733
vn 0.809557 0.028431 0.586352
vn -0.814221 0.040041 0.579172
vn 0.549112 -0.494554 0.673715
vn 0.596198 -0.559671 0.575601
vn 0.049008 -0.734342 0.677008
vn -0.014240 -0.751829 0.659204
vn -0.012897 -0.873156 0.487269
vn -0.018391 -0.778235 0.627704
vn -0.013991 -0.757430 0.652766
vn -0.019561 -0.883598 0.467838
vn -0.013692 -0.741901 0.670370
vn -0.013576 -0.759557 0.650299
vn -0.014515 -0.759899 0.649880
vn -0.018995 -0.785431 0.618657
vn -0.036179 -0.886815 0.460706
vn -0.076669 -0.744393 0.663325
vn -0.580140 -0.486540 0.653235
vn -0.650432 -0.531506 0.542623
vn 0.543491 0.504789 0.670676
vn 0.665394 0.285002 0.689945
vn 0.708615 0.168421 0.685200
vn 0.706943 0.170562 0.686397
vn 0.707508 0.171842 0.685494
vn 0.708951 0.171765 0.684021
vn 0.710409 0.171330 0.682617
vn 0.711363 0.171497 0.681580
vn 0.712509 0.170988 0.680510
vn 0.701017 0.105495 0.705298
vn 0.419659 -0.340982 0.841200
vn 0.026071 -0.635826 0.771392
vn -0.015083 -0.651067 0.758870
vn -0.015069 -0.651828 0.758217
vn -0.014561 -0.652867 0.757333
vn -0.013967 -0.653958 0.756402
vn -0.014201 -0.655068 0.755437
vn -0.015007 -0.656588 0.754100
vn -0.016319 -0.656440 0.754201
vn -0.056887 -0.639764 0.766464
vn -0.435502 -0.338683 0.834045
vn -0.700393 0.114426 0.704526
vn -0.711751 0.180940 0.678727
vn -0.711367 0.181127 0.679081
vn -0.711000 0.181102 0.679471
vn -0.710448 0.181365 0.679978
vn -0.709851 0.180866 0.680734
vn -0.710671 0.179158 0.680330
vn -0.712503 0.177760 0.678778
vn -0.694841 0.231503 0.680883
vn -0.532713 0.484451 0.693920
vn -0.141925 0.739758 0.657735
vn -0.009120 0.780798 0.624717
vn -0.009204 0.781188 0.624228
vn -0.009339 0.781766 0.623502
vn -0.009468 0.782161 0.623005
vn -0.009372 0.782565 0.622498
vn -0.009384 0.783254 0.621631
vn -0.011032 0.784194 0.620418
vn 0.181027 0.725173 0.664344
vn 0.726688 -0.157904 -0.668574
vn 0.014249 -0.209471 -0.977711
vn 0.726385 -0.159159 -0.668606
vn -0.737269 -0.099467 -0.668237
vn -0.736893 -0.098163 -0.668844
vn -0.447488 0.271494 -0.852083
vn -0.004175 0.579935 -0.814652
vn 0.037094 0.587551 -0.808336
vn 0.133567 0.541922 -0.829747
vn 0.528096 0.175652 -0.830820
vn 0.727270 -0.165434 -0.666116
vn 0.411223 -0.601599 -0.684818
vn -0.021455 -0.866363 -0.498954
vn -0.015838 -0.865395 -0.500840
vn -0.009797 -0.866745 -0.498656
vn -0.438948 -0.575052 -0.690391
vn -0.737042 -0.100803 -0.668288
vn -0.322936 0.099876 0.941136
vn -0.324105 0.099600 0.940764
vn -0.323708 0.087297 0.942121
vn -0.324474 0.074696 0.942941
vn -0.324426 0.062574 0.943839
vn -0.325962 0.062536 0.943312
vn -0.326677 0.062981 0.943035
vn -0.328524 0.062884 0.942400
vn -0.329685 0.063200 0.941973
vn -0.331695 0.063059 0.941277
vn -0.332865 0.070089 0.940366
vn -0.334821 0.076847 0.939143
vn -0.336529 0.104109 0.935901
vn -0.338139 0.124369 0.932842
vn -0.338633 0.144596 0.929742
vn -0.339111 0.144540 0.929576
vn -0.837912 0.091844 0.538022
vn -0.838588 0.091462 0.537033
vn -0.838443 0.079269 0.539193
vn -0.838865 0.066669 0.540241
vn -0.838722 0.054617 0.541815
vn -0.839604 0.054437 0.540464
vn -0.840021 0.054813 0.539778
vn -0.841080 0.054546 0.538154
vn -0.841749 0.054753 0.537086
vn -0.842895 0.054426 0.535318
vn -0.843638 0.061311 0.533400
vn -0.844793 0.067851 0.530775
vn -0.845624 0.094793 0.525295
vn -0.846110 0.114774 0.520505
vn -0.845691 0.134815 0.516364
vn -0.845961 0.134716 0.515947
vn -0.025330 0.163241 0.986261
vn -0.026522 0.162847 0.986295
vn -0.024513 0.150786 0.988262
vn -0.023737 0.138295 0.990107
vn -0.022217 0.126346 0.991737
vn -0.023826 0.126146 0.991726
vn -0.024631 0.126509 0.991660
vn -0.026566 0.126218 0.991647
vn -0.027829 0.126408 0.991588
vn -0.029934 0.126055 0.991572
vn -0.032016 0.132865 0.990617
vn -0.034913 0.139318 0.989632
vn -0.040222 0.165960 0.985312
vn -0.044687 0.185674 0.981595
vn -0.048107 0.205432 0.977488
vn -0.048602 0.205326 0.977486
vn -0.025330 0.163241 0.986261
vn -0.026522 0.162847 0.986295
vn -0.024514 0.150786 0.988262
vn -0.023738 0.138295 0.990107
vn -0.022216 0.126346 0.991738
vn -0.023825 0.126146 0.991725
vn -0.024630 0.126509 0.991660
vn -0.026566 0.126218 0.991647
vn -0.027829 0.126408 0.991588
vn -0.029935 0.126054 0.991572
vn -0.032020 0.132865 0.990617
vn -0.034915 0.139318 0.989632
vn -0.040221 0.165960 0.985312
vn -0.044685 0.185674 0.981595
vn -0.048106 0.205432 0.977488
vn -0.048602 0.205326 0.977486
vn -0.902528 0.221192 0.369484
vn -0.903081 0.220669 0.368441
vn -0.905581 0.204441 0.371654
vn -0.908392 0.187605 0.373669
vn -0.910534 0.171476 0.376198
vn -0.911188 0.171208 0.374734
vn -0.915036 0.139171 0.378604
vn -0.918391 0.106229 0.381146
vn -0.920152 0.097797 0.379152
vn -0.920093 0.121497 0.372382
vn -0.919340 0.140946 0.367353
vn -0.920319 0.136072 0.366740
vn -0.919171 0.155734 0.361762
vn -0.917310 0.179726 0.355305
vn -0.914472 0.203796 0.349582
vn -0.914669 0.203692 0.349128
vn 0.933329 0.014290 0.358738
vn 0.932885 0.013961 0.359904
vn 0.932679 -0.002750 0.360696
vn 0.931734 -0.019805 0.362601
vn 0.930845 -0.036215 0.363616
vn 0.930252 -0.036213 0.365130
vn 0.927431 -0.068488 0.367670
vn 0.923146 -0.101265 0.370873
vn 0.920905 -0.109149 0.374193
vn 0.922319 -0.084706 0.377031
vn 0.923342 -0.064682 0.378492
vn 0.922383 -0.069360 0.380000
vn 0.923218 -0.049094 0.381128
vn 0.923659 -0.024218 0.382449
vn 0.923930 0.000683 0.382561
vn 0.923737 0.000664 0.383027
vn 0.664667 -0.010113 0.747071
vn 0.663731 -0.010160 0.747903
vn 0.662507 -0.022458 0.748719
vn 0.660204 -0.034799 0.750279
vn 0.658460 -0.046797 0.751159
vn 0.657262 -0.046537 0.752224
vn 0.656772 -0.045959 0.752687
vn 0.655316 -0.045696 0.753971
vn 0.654458 -0.045157 0.754749
vn 0.652863 -0.044905 0.756144
vn 0.652991 -0.037726 0.756425
vn 0.652417 -0.030655 0.757240
vn 0.654530 -0.003257 0.756029
vn 0.655385 0.017257 0.755098
vn 0.656736 0.037591 0.753183
vn 0.656353 0.037628 0.753515
vn -0.994409 -0.083904 0.064109
vn -0.994458 -0.084559 0.062472
vn -0.992599 -0.100764 0.067779
vn -0.990491 -0.117624 0.071360
vn -0.988125 -0.133609 0.075874
vn -0.988239 -0.134052 0.073580
vn -0.982849 -0.165609 0.081130
vn -0.976347 -0.197852 0.087187
vn -0.974804 -0.206373 0.084666
vn -0.980280 -0.183879 0.072389
vn -0.984224 -0.165193 0.063364
vn -0.983430 -0.170111 0.062670
vn -0.987058 -0.151050 0.053851
vn -0.990899 -0.127631 0.042770
vn -0.994042 -0.103832 0.033149
vn -0.994050 -0.103986 0.032441
f 1/1/1 2/2/2 57/57/3
f 57/57/3 2/2/2 96/96/4
f 2/2/2 3/3/5 96/96/4
f 96/96/4 3/3/5 95/95/6
f 3/3/5 94/94/7 95/95/6
f 3/3/5 93/93/8 94/94/7
f 3/3/5 92/92/9 93/93/8
f 3/3/5 4/4/10 92/92/9
f 92/92/9 4/4/10 91/91/11
f 4/4/10 90/90/12 91/91/11
f 4/4/10 89/89/13 90/90/12
f 4/4/10 88/88/14 89/89/13
f 86/86/15 87/87/16 7/7/17
f 7/7/17 87/87/16 5/5/18
f 6/6/19 58/58/20 59/59/21
f 85/85/22 86/86/15 7/7/17
f 6/6/19 59/59/21 60/60/23
f 84/84/24 85/85/22 7/7/17
f 6/6/19 60/60/23 61/61/25
f 83/83/26 84/84/24 8/8/27
f 8/8/27 84/84/24 7/7/17
f 6/6/19 61/61/25 9/9/28
f 9/9/28 61/61/25 62/62/29
f 82/82/30 83/83/26 8/8/27
f 9/9/28 62/62/29 63/63/31
f 81/81/32 82/82/30 8/8/27
f 9/9/28 63/63/31 64/64/33
f 80/80/34 81/81/32 8/8/27
f 64/64/33 65/65/35 9/9/28
f 9/9/28 65/65/35 10/10/36
f 79/79/37 80/80/34 11/11/38
f 11/11/38 80/80/34 8/8/27
f 10/10/36 65/65/35 66/66/39
f 78/78/40 79/79/37 11/11/38
f 66/66/39 67/67/41 10/10/36
f 10/10/36 67/67/41 12/12/42
f 68/68/43 69/69/44 13/13/45
f 69/69/44 70/70/46 13/13/45
f 71/71/47 14/14/48 70/70/46
f 70/70/46 14/14/48 13/13/45
f 71/71/47 72/72/49 14/14/48
f 72/72/49 73/73/50 14/14/48
f 73/73/50 74/74/51 14/14/48
f 74/74/51 75/75/52 14/14/48
f 14/14/48 75/75/52 15/15/53
f 75/75/52 76/76/54 15/15/53
f 76/76/54 77/77/55 15/15/53
f 15/15/53 77/77/55 16/16/56
f 1/1/1 57/57/3 6/6/19
f 6/6/19 57/57/3 58/58/20
f 5/5/18 87/87/16 4/4/10
f 4/4/10 87/87/16 88/88/14
f 12/12/42 67/67/41 13/13/45
f 13/13/45 67/67/41 68/68/43
f 16/16/56 77/77/55 11/11/38
f 11/11/38 77/77/55 78/78/40
f 57/57/3 17/17/57 58/58/20
f 58/58/20 17/17/57 18/18/58
f 58/58/20 18/18/58 59/59/21
f 59/59/21 18/18/58 19/19/59
f 59/59/21 19/19/59 60/60/23
f 60/60/23 19/19/59 20/20/60
f 60/60/23 20/20/60 61/61/25
f 61/61/25 20/20/60 21/21/61
f 61/61/25 21/21/61 62/62/29
f 62/62/29 21/21/61 22/22/62
f 62/62/29 22/22/62 63/63/31
f 63/63/31 22/22/62 23/23/63
f 63/63/31 23/23/63 64/64/33
f 64/64/33 23/23/63 24/24/64
f 65/65/35 64/64/33 25/25/65
f 25/25/65 64/64/33 24/24/64
f 66/66/39 65/65/35 26/26/66
f 26/26/66 65/65/35 25/25/65
f 67/67/41 66/66/39 27/27/67
f 27/27/67 66/66/39 26/26/66
f 67/67/41 27/27/67 68/68/43
f 68/68/43 27/27/67 28/28/68
f 29/29/69 69/69/44 28/28/68
f 28/28/68 69/69/44 68/68/43
f 30/30/70 70/70/46 29/29/69
f 29/29/69 70/70/46 69/69/44
f 31/31/71 71/71/47 30/30/70
f 30/30/70 71/71/47 70/70/46
f 32/32/72 72/72/49 31/31/71
f 31/31/71 72/72/49 71/71/47
f 32/32/72 33/33/73 72/72/49
f 72/72/49 33/33/73 73/73/50
f 33/33/73 34/34/74 73/73/50
f 73/73/50 34/34/74 74/74/51
f 34/34/74 35/35/75 74/74/51
f 74/74/51 35/35/75 75/75/52
f 35/35/75 36/36/76 75/75/52
f 75/75/52 36/36/76 76/76/54
f 36/36/76 37/37/77 76/76/54
f 76/76/54 37/37/77 77/77/55
f 77/77/55 37/37/77 78/78/40
f 78/78/40 37/37/77 38/38/78
f 39/39/79 79/79/37 38/38/78
f 38/38/78 79/79/37 78/78/40
f 40/40/80 80/80/34 39/39/79
f 39/39/79 80/80/34 79/79/37
f 40/40/80 41/41/81 80/80/34
f 80/80/34 41/41/81 81/81/32
f 41/41/81 42/42/82 81/81/32
f 81/81/32 42/42/82 82/82/30
f 42/42/82 43/43/83 82/82/30
f 82/82/30 43/43/83 83/83/26
f 43/43/83 44/44/84 83/83/26
f 83/83/26 44/44/84 84/84/24
f 44/44/84 45/45/85 84/84/24
f 84/84/24 45/45/85 85/85/22
f 45/45/85 46/46/86 85/85/22
f 85/85/22 46/46/86 86/86/15
f 46/46/86 47/47/87 86/86/15
f 86/86/15 47/47/87 87/87/16
f 87/87/16 47/47/87 88/88/14
f 88/88/14 47/47/87 48/48/88
f 88/88/14 48/48/88 89/89/13
f 89/89/13 48/48/88 49/49/89
f 89/89/13 49/49/89 90/90/12
f 90/90/12 49/49/89 50/50/90
f 90/90/12 50/50/90 91/91/11
f 91/91/11 50/50/90 51/51/91
f 91/91/11 51/51/91 92/92/9
f 92/92/9 51/51/91 52/52/92
f 93/93/8 92/92/9 53/53/93
f 53/53/93 92/92/9 52/52/92
f 94/94/7 93/93/8 54/54/94
f 54/54/94 93/93/8 53/53/93
f 95/95/6 94/94/7 55/55/95
f 55/55/95 94/94/7 54/54/94
f 96/96/4 95/95/6 56/56/96
f 56/56/96 95/95/6 55/55/95
f 57/57/3 96/96/4 17/17/57
f 17/17/57 96/96/4 56/56/96
f 10/97/97 97/98/98 9/99/99
f 8/100/100 7/101/101 97/98/98
f 97/98/98 7/101/101 5/102/102
f 97/98/98 5/102/102 4/103/103
f 97/98/98 4/103/103 3/104/104
f 97/98/98 3/104/104 2/105/105
f 97/98/98 2/105/105 1/106/106
f 97/98/98 1/106/106 6/107/107
f 97/98/98 6/107/107 9/99/99
f 12/108/108 97/98/98 10/97/97
f 13/109/109 97/98/98 12/108/108
f 14/110/110 97/98/98 13/109/109
f 15/111/111 97/98/98 14/110/110
f 16/112/112 97/98/98 15/111/111
f 11/113/113 97/98/98 16/112/112
f 8/100/100 97/98/98 11/113/113
f 99/115/114 100/116/115 98/114/116
f 98/114/116 100/116/115 101/117/117
f 98/114/116 101/117/117 102/118/118
f 102/118/118 101/117/117 103/119/119
f 102/118/118 103/119/119 104/120/120
f 104/120/120 103/119/119 105/121/121
f 104/120/120 105/121/121 106/122/122
f 106/122/122 105/121/121 107/123/123
f 106/122/122 107/123/123 108/124/124
f 108/124/124 107/123/123 109/125/125
f 108/124/124 109/125/125 110/126/126
f 110/126/126 109/125/125 111/127/127
f 110/126/126 111/127/127 112/128/128
f 112/128/128 111/127/127 113/129/129
f 115/131/130 116/132/131 114/130/132
f 114/130/132 116/132/131 117/133/133
f 114/130/132 117/133/133 118/134/134
f 118/134/134 117/133/133 119/135/135
f 118/134/134 119/135/135 120/136/136
f 120/136/136 119/135/135 121/137/137
f 120/136/136 121/137/137 122/138/138
f 122/138/138 121/137/137 123/139/139
f 122/138/138 123/139/139 124/140/140
f 124/140/140 123/139/139 125/141/141
f 124/140/140 125/141/141 126/142/142
f 126/142/142 125/141/141 127/143/143
f 126/142/142 127/143/143 128/144/144
f 128/144/144 127/143/143 129/145/145
f 131/147/146 132/148/147 130/146/148
f 130/146/148 132/148/147 133/149/149
f 130/146/148 133/149/149 134/150/150
f 134/150/150 133/149/149 135/151/151
f 134/150/150 135/151/151 136/152/152
f 136/152/152 135/151/151 137/153/153
f 136/152/152 137/153/153 138/154/154
f 138/154/154 137/153/153 139/155/155
f 138/154/154 139/155/155 140/156/156
f 140/156/156 139/155/155 141/157/157
f 140/156/156 141/157/157 142/158/158
f 142/158/158 141/157/157 143/159/159
f 142/158/158 143/159/159 144/160/160
f 144/160/160 143/159/159 145/161/161
f 147/163/162 148/164/163 146/162/164
f 146/162/164 148/164/163 149/165/165
f 146/162/164 149/165/165 150/166/166
f 150/166/166 149/165/165 151/167/167
f 150/166/166 151/167/167 152/168/168
f 152/168/168 151/167/167 153/169/169
f 152/168/168 153/169/169 154/170/170
f 154/170/170 153/169/169 155/171/171
f 154/170/170 155/171/171 156/172/172
f 156/172/172 155/171/171 157/173/173
f 156/172/172 157/173/173 158/174/174
f 158/174/174 157/173/173 159/175/175
f 158/174/174 159/175/175 160/176/176
f 160/176/176 159/175/175 161/177/177
f 163/179/178 164/180/179 162/178/180
f 162/178/180 164/180/179 165/181/181
f 162/178/180 165/181/181 166/182/182
f 166/182/182 165/181/181 167/183/183
f 166/182/182 167/183/183 168/184/184
f 168/184/184 167/183/183 169/185/185
f 168/184/184 169/185/185 170/186/186
f 170/186/186 169/185/185 171/187/187
f 170/186/186 171/187/187 172/188/188
f 172/188/188 171/187/187 173/189/189
f 172/188/188 173/189/189 174/190/190
f 174/190/190 173/189/189 175/191/191
f 174/190/190 175/191/191 176/192/192
f 176/192/192 175/191/191 177/193/193
f 179/195/194 180/196/195 178/194/196
f 178/194/196 180/196/195 181/197/197
f 178/194/196 181/197/197 182/198/198
f 182/198/198 181/197/197 183/199/199
f 182/198/198 183/199/199 184/200/200
f 184/200/200 183/199/199 185/201/201
f 184/200/200 185/201/201 186/202/202
f 186/202/202 185/201/201 187/203/203
f 186/202/202 187/203/203 188/204/204
f 188/204/204 187/203/203 189/205/205
f 188/204/204 189/205/205 190/206/206
f 190/206/206 189/205/205 191/207/207
f 190/206/206 191/207/207 192/208/208
f 192/208/208 191/207/207 193/209/209
f 195/211/210 196/212/211 194/210/212
f 194/210/212 196/212/211 197/213/213
f 194/210/212 197/213/213 198/214/214
f 198/214/214 197/213/213 199/215/215
f 198/214/214 199/215/215 200/216/216
f 200/216/216 199/215/215 201/217/217
f 200/216/216 201/217/217 202/218/218
f 202/218/218 201/217/217 203/219/219
f 202/218/218 203/219/219 204/220/220
f 204/220/220 203/219/219 205/221/221
f 204/220/220 205/221/221 206/222/222
f 206/222/222 205/221/221 207/223/223
f 206/222/222 207/223/223 208/224/224
f 208/224/224 207/223/223 209/225/225
f 211/227/226 212/228/227 210/226/228
f 210/226/228 212/228/227 213/229/229
f 210/226/228 213/229/229 214/230/230
f 214/230/230 213/229/229 215/231/231
f 214/230/230 215/231/231 216/232/232
f 216/232/232 215/231/231 217/233/233
f 216/232/232 217/233/233 218/234/234
f 218/234/234 217/233/233 219/235/235
f 218/234/234 219/235/235 220/236/236
f 220/236/236 219/235/235 221/237/237
f 220/236/236 221/237/237 222/238/238
f 222/238/238 221/237/237 223/239/239
f 222/238/238 223/239/239 224/240/240
f 224/240/240 223/239/239 225/241/241
