# This file uses centimeters as units for non-parametric coordinates.

v -3.303845 1.951650 -10.255437
v 3.459465 1.947510 -10.426910
v -2.197160 2.265179 -1.996912
v 2.716994 2.252088 -2.183291
v -9.295079 1.854764 -2.639665
v 10.257397 1.919600 -3.212530
v 8.277275 1.819360 1.371749
v 2.688460 2.279161 -5.762009
v 8.497912 1.878803 -8.328192
v -2.426577 2.318741 -6.097342
v -8.885219 1.886053 -6.888672
v -7.056587 1.800197 1.846331
v 2.397252 1.788081 3.085005
v -2.852143 2.218333 -8.518212
v 2.979471 2.194071 -8.536476
v 6.266529 2.238285 -6.482213
v 7.110990 2.204004 -2.850700
v 5.871872 2.167264 -0.376107
v 2.695561 2.168117 0.607568
v -4.552565 2.162643 0.264372
v -6.304101 2.186735 -2.487704
v -6.121200 2.213297 -6.477437
v -5.874159 2.181160 -0.913733
v -8.515548 1.800745 0.129905
v -9.282374 1.893389 -4.753255
v -6.292645 2.204732 -4.573877
v -2.333664 2.291887 -4.250604
v 2.700700 2.267548 -4.226883
v 6.775796 2.214564 -4.713220
v 9.659207 1.893844 -5.846745
v 9.895895 1.868443 -0.982852
v 6.576339 2.184394 -1.429507
v -0.365603 1.727327 3.088083
v -0.209729 2.169006 0.547122
v -0.096490 2.256201 -2.084538
v -0.017664 2.280690 -4.239692
v 0.044256 2.299622 -5.935359
v 0.102588 2.206040 -8.527466
v 0.138254 1.949543 -10.342706
v -6.344668 1.897653 -9.111941
v -5.010114 2.189033 -7.894919
v 4.791998 2.197114 -7.993964
v 6.165107 1.896651 -9.827756
v 4.299195 2.171646 0.421044
v 5.636285 1.576806 2.861645
v -8.326215 2.020490 -0.018157
v -6.576862 1.988983 1.658438
v -0.341722 1.980971 2.843285
v 2.508407 1.956705 2.664795
v 5.277355 1.993008 2.177706
v 7.895610 2.004532 1.060915
v 9.195711 2.050091 -1.056495
v 9.436367 2.101508 -3.096171
v 8.803328 2.092994 -5.491309
v 7.805392 2.095130 -7.728641
v 5.802984 2.086060 -9.323514
v 3.359376 2.117897 -9.953677
v 0.125631 2.113480 -10.047762
v -3.287990 2.112322 -10.058304
v -6.068767 2.077926 -8.851670
v -8.164407 2.081282 -6.812037
v -8.622339 2.076899 -4.724418
v -8.916990 2.074619 -2.597655
v 3.725985 1.773663 3.085008
v 5.373720 1.882333 2.381612
v 7.407069 1.727475 1.926015
v 4.815719 1.634105 3.012618
v 6.064419 1.828784 2.257435
v 6.588698 1.619061 2.418255
v 4.350096 1.824053 2.883966
v 4.200136 1.987804 2.415880
v 3.934341 1.753580 3.098935
v 3.552681 2.024214 2.528675
v 3.887520 1.803596 3.117312
v 4.048831 1.769791 3.107548
v 4.903419 1.667935 2.995311
v 5.599592 1.622919 2.859552
v 6.497722 1.654841 2.461367
v 7.070327 1.750797 2.076589
v 8.171369 1.856317 1.293394
v 5.088463 1.768819 2.885228
v 5.478357 1.772089 2.748468
v 6.263127 1.774709 2.458405
v 6.542683 1.791704 2.171451
v 6.870737 2.000021 1.498065
v 3.037138 2.009845 2.645681
v 3.124077 1.765630 3.183074
v 1.585324 1.980201 2.802031
v 1.519802 1.782326 3.275051
v 2.603892 2.064566 1.615209
v 4.268599 2.114862 1.037192
v 4.723067 2.094236 1.182270
v 5.645346 1.994628 2.020743
v 3.413657 2.115984 1.321079
v 2.946823 2.074927 1.496137
v 3.098238 1.809831 3.240311
v 2.397278 1.831509 3.128790
v 7.560287 1.788700 1.812028
v 7.693627 1.750807 1.800023
v -2.296556 2.281162 -3.513042
v -1.366257 2.287210 -4.246046
v 0.028834 2.294907 -5.513028
v 0.584483 2.295442 -5.899942
v -3.680461 2.147826 0.474776
v -4.532788 1.972863 2.365006
v -4.427866 1.708151 2.749385
v -5.389729 1.679804 2.308983
v -5.877292 1.992993 1.878842
v -5.124233 2.113601 0.658061
v -6.153348 1.724119 2.009286
v -5.757878 1.742815 1.951359
v -4.604639 2.126151 1.236659
v -1.177633 2.257781 -2.046590
v -2.084216 2.187466 0.502036
v -0.502743 2.275982 -3.748790
v -2.805179 1.988386 2.585483
v -2.810345 1.723305 2.767493
v -1.320696 2.257990 -2.041569
v -2.281299 2.091525 0.494247
v -3.088869 1.985837 2.549278
v -3.419202 1.695694 2.755591
v -4.084226 2.253350 -4.393547
v -3.998458 2.261077 -2.494315
v -3.031687 2.235448 -1.112717
v -2.984388 2.224951 -0.924872
v -1.935236 2.152680 -0.827119
v -1.774547 2.218703 -0.802252
v -0.154649 2.211418 -0.732924
v 3.455281 2.161180 -0.968055
v 4.460392 2.221509 -1.842781
v 4.679979 2.241814 -4.463098
v 4.334307 2.260359 -6.093290
v 3.770844 2.236943 -6.910469
v 2.854211 2.230697 -7.342256
v 0.078432 2.244793 -7.454057
v -2.667130 2.261985 -7.465746
v -3.701227 2.254746 -6.984221
v -4.159271 2.269290 -6.275598
v -2.223499 2.273521 -2.091238
v -1.472515 2.266570 -2.767375
v -4.012696 2.180335 0.328020
v -3.942094 2.199421 -2.432978
v -5.678389 2.130986 -0.750636
v -6.206020 2.020797 1.403051
v -6.398060 2.051853 0.198436
v -7.780846 2.005610 0.629386
v -7.876142 1.768199 0.928499
v -6.908285 2.093989 0.345233
v -5.093550 1.981259 2.162238
v -4.942489 1.676673 2.464395
v -7.990003 1.851435 0.962458
v -6.975786 1.831995 1.926655
v -6.049748 1.839041 2.111343
v -5.880144 1.855603 2.046558
v -5.598643 1.838501 2.364083
v -5.070279 1.788391 2.601444
v -4.536022 1.831967 2.793522
v -3.400944 1.838223 2.871190
v -2.809002 1.838202 2.952343
v -0.360071 1.833852 3.272365
v 1.536469 1.832659 3.255131
v -6.986808 1.994645 1.308055
v -6.676888 2.020675 1.262105
v -0.245501 2.293393 -5.263885
v -0.193765 2.281542 -4.240521
v -0.214898 2.278776 -4.040090
v -0.021315 2.284720 -3.139552
v 0.441244 2.266773 -2.104228
v 0.876988 2.254778 -2.118708
v 1.620621 2.272770 -4.231972
v 1.750010 2.286423 -5.823532
v 0.971722 2.292445 -5.874556
v 1.683811 2.279438 -5.009245
v 0.182389 2.211268 -0.739581
v 0.322883 2.231800 -1.375458
v 1.507405 2.270031 -3.910234
v 2.710906 2.257865 -2.946834
v 4.016638 2.229292 -1.929453
v 4.227687 2.219898 -1.640263
v 5.596530 2.168032 -0.236543
v 1.719855 2.232288 -4.231504
v 1.498659 2.211814 -3.850784
v 0.917201 2.197351 -2.144147
v 0.037427 2.168930 0.552264
v 0.257811 1.980731 2.830450
v 0.456231 2.211147 -0.744989
v 0.650034 2.174785 0.532473
v 2.266474 2.036619 2.008363
v 0.311194 2.141350 -0.742125
v 0.337650 2.098977 0.558510
v 1.895643 2.233865 -2.154462
v 2.533419 2.210227 -0.786016
v 3.227376 2.169287 0.545711
v 3.653306 2.178482 -1.140391
v 4.537730 2.133541 0.300137
v 3.916860 2.251736 -4.372024
v 4.623742 2.236614 -3.792027
v 6.922111 2.197076 -2.348628
v 9.272444 2.066485 -1.706841
v 10.049068 1.869643 -1.597206
v 4.605733 2.204103 -3.577126
v 6.810740 2.162147 -2.052586
v 7.471522 2.138495 -1.302028
v 8.690992 2.009225 0.037919
v 9.115682 1.822063 0.407608
v -2.054616 2.185971 0.496729
v -1.733607 2.213903 -0.794071
v 1.495260 2.224982 -2.140409
v 2.077341 2.241312 -3.454001
v 1.498013 2.145812 -0.765566
v 1.860061 2.103499 0.590185
v -1.677560 2.230070 -2.029043
v -2.418192 2.132117 -0.872118
v -2.889668 2.062173 0.485781
v -3.747492 1.948282 2.465225
v -3.919638 1.759822 2.924156
v -3.880185 1.663869 2.809579
v -0.535130 2.186584 -2.069142
v -0.923231 2.142369 -0.762688
v -1.114530 2.107068 0.522407
v -1.419663 1.913957 2.730478
v -1.612438 1.836076 3.108708
v -1.648045 1.725217 2.919911
v -2.199470 2.236864 -2.242900
v -3.102876 2.195291 -1.172230
v -2.244560 2.215271 -2.832796
v -3.547304 2.156589 -1.839889
v -5.083619 2.106821 -0.214409
v -5.496737 2.089285 0.230638
v -2.122677 2.233184 -2.007572
v -3.970889 2.240019 -2.638448
v -6.009644 2.135292 -1.485925
v -2.963089 2.278031 -4.302000
v -4.059296 2.250417 -4.007486
v -5.386405 2.224232 -3.441025
v -6.133077 2.119029 -1.913639
v -4.038591 2.193019 -3.433366
v -8.560530 2.026681 -0.582129
v -8.648920 2.087019 -2.579859
v -7.709279 2.163093 -0.979672
v -7.485105 2.140202 -0.745110
v -7.414379 2.147598 -0.595892
v -7.339719 2.167050 -0.378459
v -4.626847 1.973502 2.303650
v -4.759285 2.029733 1.427814
v -4.863780 2.043371 1.302589
v -5.364791 2.037651 1.086874
v -5.506232 2.043473 0.959151
v -8.610424 1.881727 0.080320
v -9.311572 1.924762 -2.643305
v -9.189857 1.919112 -4.749212
v -8.748283 1.923141 -6.874113
v -8.950573 1.866765 -0.801822
v -8.982767 1.790103 -0.936920
v -8.868669 2.074993 -2.946438
v -9.345113 1.887053 -3.715509
v -9.361615 1.838932 -3.879236
v 0.509493 1.858469 3.079959
v 0.487317 1.782026 3.005068
v -7.887136 2.079494 -3.904028
v -8.749250 2.120972 -2.746492
v -8.792760 2.057912 -1.895223
v -8.889187 2.067055 -2.280715
v -9.002369 1.838906 -0.839268
v -8.794326 1.794395 -0.506642
v -8.727291 1.795922 -0.353577
v -7.636569 2.081250 -2.540072
v -7.326940 2.068624 -3.402826
v -6.297999 2.143830 -3.598937
v -2.808084 1.874254 2.750701
v -2.991053 1.838208 2.813809
v -3.138659 1.725267 2.609203
v -2.806558 1.934202 2.717840
v 0.714247 2.202693 -4.177674
v 0.983260 2.257349 -2.420712
v -0.276015 2.281940 -4.240909
v -0.237552 2.264521 -3.949304
v -0.055376 2.243713 -3.078763
v 0.042723 2.233115 -2.928341
v 0.464995 2.222840 -2.098294
v 2.117509 2.138471 -0.777802
v 3.617709 2.207694 -1.075732
v 4.203813 2.192997 -1.613489
v 3.958387 2.202834 -1.943511
v 3.272023 2.210599 -1.871254
v 3.444206 2.268194 -2.131063
v 3.534405 2.239845 -2.305192
v 3.360750 2.234842 -2.409694
v 3.381142 2.243198 -2.424609
v 3.733439 2.210803 -2.129445
v 3.768876 2.234714 -2.122500
v 4.531052 2.213047 -2.685961
v 0.521425 2.223203 -1.998734
v 0.665376 2.231924 -1.904945
v 0.654675 2.212568 -1.804596
v 2.368037 2.248907 -3.221300
v 1.821244 2.234127 -2.876063
v 2.065928 2.190485 -2.732386
v 1.690934 2.230471 -2.581990
v 1.972862 2.206771 -2.487138
v -3.092347 1.585601 -9.722260
v 0.157415 1.583612 -9.802562
v -8.748803 1.494129 -2.714401
v -8.815767 1.476993 -3.852082
v 3.293043 1.581693 -9.880045
v 5.847499 1.533676 -9.328717
v 9.711121 1.555342 -3.241538
v 9.517445 1.507458 -1.755316
v 7.841644 1.460703 0.976811
v 7.290609 1.395981 1.370898
v 8.049953 1.516825 -7.948852
v 9.146357 1.531026 -5.665482
v -8.361845 1.523670 -6.624239
v -5.963255 1.534622 -8.670041
v -6.635393 1.442611 1.413510
v -7.409153 1.412402 0.568942
v -4.153560 1.355709 2.244479
v -3.636482 1.313901 2.299869
v -8.012831 1.443129 -0.165906
v -8.212742 1.438575 -0.610795
v -8.736808 1.530596 -4.659277
v 9.369819 1.507044 -1.189839
v 8.633203 1.463256 0.089631
v -0.318288 1.373813 2.556142
v 0.486973 1.425456 2.479753
v 5.348228 1.231703 2.347779
v 4.573513 1.285800 2.486701
v 3.544670 1.417560 2.553312
v 2.976396 1.409976 2.643551
v 7.020063 1.373953 1.486834
v 6.247422 1.271597 1.939781
v 3.741384 1.398600 2.566128
v 2.290185 1.431172 2.553309
v 1.461765 1.425739 2.728185
v -4.639427 1.325990 1.982238
v -5.061677 1.328945 1.839232
v -5.409253 1.388435 1.510154
v -5.782625 1.370784 1.563457
v -2.626422 1.370015 2.261143
v -1.529070 1.371821 2.401393
v -3.201258 1.343948 2.250191
v -2.936391 1.371868 2.115487
v -8.453942 1.433081 -1.147574
v -8.276031 1.437133 -0.751642
v 8.360214 2.059963 -6.638150
v 9.199771 1.853098 -6.976184
v 8.664732 1.489993 -6.813305
v 6.894007 2.069075 -8.664769
v 7.443172 1.866108 -9.201768
v 7.076434 1.503509 -8.752791
v 9.226837 2.099112 -4.334339
v 10.104280 1.910071 -4.402544
v 9.557579 1.545795 -4.403604
v 8.844436 1.856935 -7.876765
v 8.347184 1.495171 -7.610334
v 10.223223 1.903597 -3.793672
v 9.673571 1.539133 -3.834103
v -7.212900 2.065156 -8.083521
v -7.666139 1.878582 -8.276000
v -7.403885 1.515007 -7.756164
v -4.243146 2.100506 -9.839107
v -4.314867 1.934154 -10.065582
v -4.183913 1.566675 -9.511715
vt 0.342267 0.966731
vt 0.578822 0.975329
vt 0.381788 0.751668
vt 0.582148 0.757104
vt 0.107047 0.719208
vt 0.919263 0.759695
vt 0.577283 0.576933
vt 0.789631 0.624645
vt 0.579099 0.855175
vt 0.774273 0.929514
vt 0.378586 0.867277
vt 0.171412 0.885020
vt 0.209062 0.613526
vt 0.364661 0.920882
vt 0.575522 0.926300
vt 0.674912 0.891669
vt 0.764150 0.761699
vt 0.698515 0.685635
vt 0.299269 0.682266
vt 0.235606 0.753059
vt 0.260348 0.877403
vt 0.299269 0.682266
vt 0.209062 0.613526
vt 0.299269 0.682266
vt 0.299269 0.682266
vt 0.235606 0.753059
vt 0.235606 0.753059
vt 0.381788 0.751668
vt 0.381788 0.751668
vt 0.584965 0.666520
vt 0.584965 0.666520
vt 0.582148 0.757104
vt 0.107047 0.719208
vt 0.268965 0.715657
vt 0.268965 0.715657
vt 0.155667 0.651838
vt 0.138078 0.813730
vt 0.250811 0.816684
vt 0.380033 0.815043
vt 0.380033 0.815043
vt 0.580407 0.813106
vt 0.721616 0.823648
vt 0.851716 0.845865
vt 0.866259 0.666003
vt 0.727808 0.719583
vt 0.470663 0.573287
vt 0.471838 0.671588
vt 0.471838 0.671588
vt 0.467989 0.754007
vt 0.467989 0.754007
vt 0.472213 0.814152
vt 0.475444 0.861431
vt 0.471499 0.923627
vt 0.462659 0.971107
vt 0.270429 0.932374
vt 0.318594 0.901681
vt 0.622277 0.910009
vt 0.673598 0.953113
vt 0.637774 0.675410
vt 0.637774 0.675410
vt 0.695216 0.562018
vt 0.180615 0.678413
vt 0.231045 0.627556
vt 0.231045 0.627556
vt 0.471007 0.608504
vt 0.581438 0.598363
vt 0.680112 0.611323
vt 0.776980 0.637445
vt 0.821580 0.689170
vt 0.860655 0.769594
vt 0.807000 0.838229
vt 0.738317 0.915819
vt 0.656836 0.939034
vt 0.577810 0.960287
vt 0.464668 0.960318
vt 0.346388 0.958295
vt 0.284248 0.923568
vt 0.199177 0.882642
vt 0.168871 0.814537
vt 0.145063 0.736875
vt 0.145063 0.736875
vt 0.622848 0.572073
vt 0.684525 0.598315
vt 0.765323 0.598664
vt 0.661128 0.561005
vt 0.711886 0.598433
vt 0.733205 0.577534
vt 0.646627 0.580674
vt 0.642464 0.605891
vt 0.631592 0.568175
vt 0.619862 0.602629
vt 0.629525 0.574488
vt 0.635565 0.571477
vt 0.664580 0.566509
vt 0.693506 0.567823
vt 0.729296 0.581366
vt 0.751733 0.598605
vt 0.784192 0.627986
vt 0.672602 0.579301
vt 0.688849 0.583634
vt 0.720223 0.590260
vt 0.730831 0.598515
vt 0.739062 0.627220
vt 0.602942 0.600188
vt 0.603748 0.571250
vt 0.548088 0.601336
vt 0.548656 0.575474
vt 0.583237 0.633136
vt 0.639223 0.653938
vt 0.656121 0.647639
vt 0.693727 0.614995
vt 0.610861 0.643400
vt 0.594770 0.637421
vt 0.603668 0.574147
vt 0.577892 0.580072
vt 0.770289 0.608164
vt 0.776338 0.604559
vt 0.380611 0.794182
vt 0.380611 0.794182
vt 0.418537 0.814671
vt 0.474639 0.849655
vt 0.496621 0.860153
vt 0.334834 0.676411
vt 0.334834 0.676411
vt 0.316729 0.623499
vt 0.316633 0.601829
vt 0.276344 0.610853
vt 0.255337 0.630089
vt 0.280596 0.666562
vt 0.280596 0.666562
vt 0.249272 0.612069
vt 0.258855 0.613863
vt 0.303844 0.656561
vt 0.424121 0.752817
vt 0.424121 0.752817
vt 0.399251 0.674839
vt 0.399251 0.674839
vt 0.452305 0.800395
vt 0.386689 0.618585
vt 0.383693 0.594338
vt 0.418316 0.752659
vt 0.418316 0.752659
vt 0.390799 0.675452
vt 0.390799 0.675452
vt 0.370342 0.621474
vt 0.355052 0.601622
vt 0.322894 0.815769
vt 0.329336 0.765982
vt 0.350805 0.725610
vt 0.350805 0.725610
vt 0.355695 0.718725
vt 0.402233 0.715726
vt 0.409084 0.714787
vt 0.469966 0.711677
vt 0.608105 0.718984
vt 0.647948 0.740155
vt 0.648992 0.818226
vt 0.623171 0.871961
vt 0.601316 0.883390
vt 0.577062 0.895685
vt 0.473133 0.897871
vt 0.370715 0.897577
vt 0.348987 0.884251
vt 0.323135 0.872026
vt 0.381665 0.756137
vt 0.381665 0.756137
vt 0.412504 0.772893
vt 0.319982 0.680617
vt 0.319982 0.680617
vt 0.331240 0.762402
vt 0.274089 0.710011
vt 0.274089 0.710011
vt 0.245260 0.636843
vt 0.245260 0.636843
vt 0.250160 0.678017
vt 0.198612 0.657660
vt 0.179495 0.638263
vt 0.230055 0.670279
vt 0.291124 0.626247
vt 0.294469 0.606820
vt 0.182167 0.641534
vt 0.212512 0.616446
vt 0.212512 0.616446
vt 0.250014 0.616550
vt 0.257714 0.618331
vt 0.271308 0.616212
vt 0.293789 0.610765
vt 0.316663 0.608978
vt 0.359142 0.606933
vt 0.383392 0.600100
vt 0.470454 0.577790
vt 0.548512 0.582053
vt 0.221818 0.637785
vt 0.231913 0.640722
vt 0.463607 0.842776
vt 0.465204 0.814220
vt 0.464118 0.808559
vt 0.470278 0.786601
vt 0.491545 0.754646
vt 0.491545 0.754646
vt 0.507489 0.755078
vt 0.507489 0.755078
vt 0.537418 0.813522
vt 0.542311 0.857395
vt 0.511802 0.859236
vt 0.539808 0.834948
vt 0.483347 0.711698
vt 0.487165 0.731700
vt 0.532862 0.804624
vt 0.581498 0.778028
vt 0.631200 0.744469
vt 0.638723 0.735253
vt 0.687881 0.683845
vt 0.687881 0.683845
vt 0.541368 0.813484
vt 0.536884 0.802424
vt 0.513514 0.755242
vt 0.513514 0.755242
vt 0.481462 0.671157
vt 0.481462 0.671157
vt 0.494988 0.606274
vt 0.494220 0.711716
vt 0.504281 0.670134
vt 0.504281 0.670134
vt 0.571594 0.622602
vt 0.488461 0.711707
vt 0.493152 0.670633
vt 0.493152 0.670633
vt 0.548822 0.756200
vt 0.548822 0.756200
vt 0.576692 0.711852
vt 0.602478 0.669468
vt 0.602478 0.669468
vt 0.615955 0.723155
vt 0.646987 0.676961
vt 0.646987 0.676961
vt 0.622549 0.816252
vt 0.648725 0.798232
vt 0.751311 0.746821
vt 0.834039 0.714813
vt 0.880815 0.691733
vt 0.648639 0.791829
vt 0.743741 0.738048
vt 0.759855 0.709189
vt 0.800929 0.665220
vt 0.824718 0.643582
vt 0.402052 0.674714
vt 0.402052 0.674714
vt 0.412997 0.714587
vt 0.532576 0.755759
vt 0.532576 0.755759
vt 0.555894 0.792029
vt 0.535582 0.711784
vt 0.552432 0.667978
vt 0.552432 0.667978
vt 0.403836 0.752266
vt 0.403836 0.752266
vt 0.380810 0.717107
vt 0.366465 0.675869
vt 0.366465 0.675869
vt 0.345887 0.622398
vt 0.340698 0.607360
vt 0.339340 0.601273
vt 0.450191 0.753524
vt 0.450191 0.753524
vt 0.442235 0.713093
vt 0.437612 0.673121
vt 0.437612 0.673121
vt 0.434112 0.612915
vt 0.425931 0.589199
vt 0.425041 0.584330
vt 0.381568 0.759609
vt 0.381568 0.759609
vt 0.349813 0.727476
vt 0.381124 0.775666
vt 0.381124 0.775666
vt 0.339977 0.745972
vt 0.287391 0.695354
vt 0.287391 0.695354
vt 0.274144 0.680092
vt 0.386565 0.751798
vt 0.386565 0.751798
vt 0.328695 0.770937
vt 0.257943 0.727802
vt 0.257943 0.727802
vt 0.359488 0.815304
vt 0.324170 0.805907
vt 0.276323 0.779444
vt 0.249915 0.736648
vt 0.249915 0.736648
vt 0.326012 0.791672
vt 0.176549 0.685100
vt 0.155675 0.736520
vt 0.155675 0.736520
vt 0.196616 0.704882
vt 0.207193 0.700747
vt 0.211052 0.697853
vt 0.216159 0.693397
vt 0.308813 0.624349
vt 0.300510 0.648615
vt 0.294976 0.651722
vt 0.272497 0.654868
vt 0.268089 0.656043
vt 0.268089 0.656043
vt 0.160327 0.656802
vt 0.113761 0.722328
vt 0.113761 0.722328
vt 0.142395 0.813844
vt 0.176686 0.884568
vt 0.144134 0.679588
vt 0.135409 0.679908
vt 0.148968 0.749611
vt 0.128769 0.770294
vt 0.125787 0.776292
vt 0.512673 0.580096
vt 0.512407 0.574458
vt 0.187782 0.783499
vt 0.152445 0.742323
vt 0.156036 0.718831
vt 0.150031 0.728705
vt 0.140963 0.679704
vt 0.143579 0.668587
vt 0.146486 0.664559
vt 0.190184 0.743660
vt 0.190184 0.743660
vt 0.204706 0.772727
vt 0.243705 0.786950
vt 0.243705 0.786950
vt 0.384184 0.604537
vt 0.375934 0.602201
vt 0.366620 0.598680
vt 0.385500 0.611916
vt 0.499300 0.813890
vt 0.511766 0.763430
vt 0.461930 0.814251
vt 0.460297 0.805918
vt 0.467271 0.781649
vt 0.469647 0.777615
vt 0.486379 0.754506
vt 0.486379 0.754506
vt 0.560179 0.711825
vt 0.613009 0.721590
vt 0.635026 0.733288
vt 0.623422 0.742988
vt 0.602014 0.745356
vt 0.609198 0.754876
vt 0.612844 0.756863
vt 0.603671 0.759495
vt 0.607010 0.760802
vt 0.615746 0.749403
vt 0.621769 0.750836
vt 0.648284 0.765277
vt 0.490630 0.749851
vt 0.498414 0.744640
vt 0.501875 0.744843
vt 0.567642 0.785605
vt 0.545635 0.776071
vt 0.559608 0.773052
vt 0.540415 0.767952
vt 0.544993 0.764439
vt 0.689489 0.355769
vt 0.703964 0.355961
vt 0.704102 0.353110
vt 0.690561 0.352937
vt 0.661242 0.324928
vt 0.661804 0.330388
vt 0.664849 0.329776
vt 0.664365 0.324816
vt 0.717918 0.356146
vt 0.729300 0.353621
vt 0.727799 0.350963
vt 0.717156 0.353276
vt 0.748024 0.326582
vt 0.747174 0.319544
vt 0.744315 0.319916
vt 0.745144 0.326298
vt 0.739897 0.306268
vt 0.737220 0.304299
vt 0.735003 0.306136
vt 0.737491 0.307916
vt 0.739343 0.347632
vt 0.744797 0.337617
vt 0.742203 0.336335
vt 0.737165 0.345479
vt 0.664810 0.342631
vt 0.676427 0.351355
vt 0.678361 0.348899
vt 0.667562 0.340926
vt 0.669517 0.304816
vt 0.666209 0.309037
vt 0.669088 0.310429
vt 0.672189 0.306623
vt 0.683976 0.300157
vt 0.681419 0.300474
vt 0.683244 0.302701
vt 0.685614 0.302412
vt 0.663595 0.312688
vt 0.662864 0.314853
vt 0.665942 0.315687
vt 0.666638 0.313729
vt 0.662167 0.333916
vt 0.665162 0.332984
vt 0.746848 0.316838
vt 0.743551 0.310621
vt 0.740904 0.311843
vt 0.743997 0.317465
vt 0.704017 0.299049
vt 0.700079 0.298693
vt 0.700551 0.301095
vt 0.704201 0.301420
vt 0.727756 0.299435
vt 0.724018 0.298779
vt 0.722747 0.301158
vt 0.726219 0.301742
vt 0.719028 0.298512
vt 0.716233 0.298079
vt 0.715524 0.300542
vt 0.718115 0.300932
vt 0.735901 0.303724
vt 0.732117 0.301456
vt 0.730268 0.303565
vt 0.733779 0.305616
vt 0.719989 0.298434
vt 0.719006 0.300859
vt 0.712865 0.298579
vt 0.712403 0.300996
vt 0.708780 0.297726
vt 0.708616 0.300228
vt 0.679183 0.301816
vt 0.681161 0.303908
vt 0.677178 0.302559
vt 0.675523 0.304248
vt 0.677759 0.306105
vt 0.679298 0.304577
vt 0.673719 0.303993
vt 0.676085 0.305875
vt 0.694182 0.299544
vt 0.688853 0.300313
vt 0.690139 0.302556
vt 0.695082 0.301862
vt 0.687378 0.301068
vt 0.686078 0.300393
vt 0.687564 0.302626
vt 0.688769 0.303236
vt 0.661990 0.317441
vt 0.665110 0.318029
vt 0.662634 0.315534
vt 0.665723 0.316303
vt 0.772786 0.876880
vt 0.742385 0.342045
vt 0.817477 0.882848
vt 0.739742 0.340802
vt 0.697350 0.927491
vt 0.734392 0.350585
vt 0.724637 0.941149
vt 0.732620 0.348140
vt 0.833281 0.804611
vt 0.746586 0.331500
vt 0.889163 0.798093
vt 0.743754 0.331043
vt 0.740539 0.345436
vt 0.791256 0.911170
vt 0.738115 0.343755
vt 0.747373 0.328810
vt 0.905628 0.777089
vt 0.744486 0.328546
vt 0.248105 0.906180
vt 0.671545 0.347688
vt 0.228816 0.912473
vt 0.673018 0.344954
vt 0.326946 0.947429
vt 0.685512 0.354425
vt 0.320393 0.956270
vt 0.686284 0.351521
vn -0.011284 0.999816 -0.015503
vn -0.013984 0.999643 0.022766
vn 0.006902 0.999975 -0.001725
vn 0.011052 0.999541 0.028198
vn 0.004781 0.999924 0.011338
vn 0.031207 0.999312 0.020050
vn -0.229531 0.973255 -0.009454
vn -0.065701 0.983955 0.165880
vn 0.073441 0.994423 0.075693
vn -0.044912 0.998556 -0.029469
vn -0.134402 0.988967 -0.062299
vn -0.050724 0.998335 0.027459
vn -0.174555 0.984496 -0.017257
vn 0.083481 0.977118 -0.195630
vn 0.024045 0.974746 -0.222019
vn 0.020604 0.998739 -0.045787
vn 0.006014 0.999082 -0.042412
vn 0.159658 0.978770 0.128522
vn 0.169811 0.981000 0.093828
vn 0.045909 0.998555 0.027933
vn -0.060321 0.991548 0.114862
vn 0.077360 0.977448 0.196497
vn 0.033529 0.998307 0.047526
vn 0.143539 0.967190 0.209619
vn 0.144973 0.987465 -0.062414
vn 0.143047 0.983845 -0.107644
vn 0.039945 0.998915 -0.023950
vn 0.004825 0.999008 -0.044280
vn 0.001598 0.962087 -0.272737
vn -0.013892 0.998547 -0.052059
vn -0.046252 0.930901 -0.362330
vn -0.006346 0.999219 -0.039000
vn -0.024481 0.999019 -0.036901
vn -0.014406 0.998316 0.056202
vn -0.051706 0.995783 0.075779
vn -0.052030 0.998114 0.032590
vn 0.008452 0.999317 -0.035965
vn 0.006347 0.999507 -0.030760
vn 0.006282 0.999494 -0.031188
vn 0.008577 0.999892 -0.011939
vn 0.001667 0.999551 0.029907
vn -0.014742 0.999779 0.015026
vn -0.227937 0.947283 0.225165
vn 0.017204 0.999826 0.007269
vn -0.236210 0.941772 0.239311
vn -0.079907 0.996791 0.004728
vn 0.092199 0.994140 0.056435
vn 0.069083 0.996200 0.053035
vn -0.226975 0.973735 -0.017962
vn -0.104131 0.994532 -0.007986
vn -0.020728 0.999164 0.035232
vn -0.025503 0.999617 -0.010737
vn -0.021277 0.999746 0.007374
vn -0.171664 0.943043 -0.284959
vn -0.036141 0.998110 -0.049710
vn -0.114618 0.938655 -0.325254
vn -0.569406 -0.748455 0.339988
vn -0.799157 0.419551 0.430494
vn -0.659283 -0.693708 0.290027
vn -0.741661 0.600115 0.299669
vn -0.083877 0.995756 0.037872
vn -0.241839 0.969070 -0.049175
vn -0.299495 0.952168 0.060661
vn -0.150939 0.981022 -0.121709
vn -0.197166 0.969549 -0.145259
vn -0.165302 0.977809 -0.128706
vn -0.096593 0.993908 -0.053069
vn 0.025663 0.996709 0.076897
vn -0.027455 0.997582 0.063849
vn 0.013098 0.999883 0.007850
vn 0.137882 0.989775 -0.036527
vn 0.119055 0.990973 -0.061634
vn 0.042066 0.999046 -0.011694
vn 0.163305 0.986531 0.009371
vn 0.030703 0.999466 0.011187
vn 0.115909 0.992101 0.047969
vn -0.009519 0.996494 0.083121
vn -0.026609 0.996060 0.084591
vn -0.015896 0.993667 0.111231
vn -0.007534 0.986316 0.164694
vn -0.020120 0.999683 0.015116
vn -0.040533 0.998355 0.040557
vn -0.029081 0.999192 0.027759
vn -0.051369 0.996559 0.065050
vn 0.532579 0.827291 0.178742
vn 0.474073 0.851846 0.222740
vn 0.003695 0.999945 0.009791
vn 0.153291 0.987311 0.041463
vn 0.013216 0.999873 0.008870
vn 0.008612 0.999874 -0.013350
vn -0.001451 0.999970 0.007572
vn -0.175856 0.965972 -0.189663
vn 0.009188 0.999888 -0.011839
vn 0.098797 0.985029 -0.141269
vn -0.023952 0.996237 0.083299
vn 0.004620 0.996639 0.081784
vn -0.050980 0.996414 0.067530
vn -0.427476 0.366038 0.826608
vn -0.144653 0.972748 0.181209
vn -0.736280 0.144206 0.661133
vn -0.183987 0.963006 0.196898
vn -0.037637 0.986131 0.161647
vn -0.010332 0.955900 0.293511
vn 0.006192 0.681739 0.731569
vn -0.127095 0.175441 0.976252
vn 0.047937 0.515366 0.855628
vn -0.008161 0.687442 0.726193
vn 0.017829 0.974641 0.223064
vn 0.034281 0.980858 0.191684
vn 0.100014 0.477751 0.872784
vn 0.058757 0.981934 0.179869
vn 0.118590 0.897895 0.423936
vn 0.102369 0.960146 0.260076
vn 0.182178 0.914645 0.360882
vn 0.122876 0.946120 0.299597
vn 0.781205 0.550667 0.294084
vn 0.753074 0.419393 0.506941
vn 0.966618 -0.251972 0.046465
vn 0.964637 0.168336 0.202826
vn 0.944093 -0.236421 -0.229769
vn 0.819475 0.488631 -0.299502
vn 0.718917 0.578790 -0.384916
vn 0.688844 -0.275152 -0.670660
vn 0.572872 0.155332 -0.804792
vn 0.366834 0.140138 -0.919671
vn 0.136184 0.125211 -0.982739
vn -0.018030 -0.172881 -0.984778
vn -0.116982 0.182331 -0.976253
vn -0.500976 0.059100 -0.863441
vn -0.353453 0.003275 -0.935447
vn -0.251104 0.961915 -0.108012
vn -0.646492 0.087532 -0.757883
vn -0.789444 0.425348 -0.442558
vn -0.362313 0.931209 -0.039732
vn -0.954952 -0.261733 -0.139868
vn -0.900767 0.425999 0.084523
vn -0.731942 0.681156 -0.016972
vn -0.812856 -0.577443 0.076326
vn -0.977999 -0.202905 -0.048442
vn -0.061436 0.995928 -0.065974
vn -0.076246 0.996201 -0.042082
vn 0.029669 0.997909 0.057431
vn -0.067702 0.996699 0.044814
vn 0.133009 0.807283 0.574980
vn 0.155924 0.890179 0.428100
vn 0.115199 0.939291 0.323204
vn 0.236471 0.854872 0.461818
vn 0.094898 0.953712 0.285357
vn 0.020201 0.998802 0.044561
vn 0.018887 0.996050 0.086767
vn 0.044463 0.996533 0.070325
vn 0.131792 0.253347 0.958356
vn 0.020634 -0.819654 0.572487
vn -0.009222 -0.773254 0.634029
vn 0.007855 -0.092213 0.995708
vn -0.058318 -0.649230 0.758353
vn 0.067982 -0.540316 0.838711
vn 0.167970 0.444862 0.879706
vn 0.294811 -0.347979 0.889942
vn 0.264519 0.526586 0.807921
vn 0.479456 -0.375234 0.793298
vn 0.387878 0.523992 0.758277
vn 0.462753 -0.204345 0.862614
vn 0.294854 0.726889 0.620237
vn 0.661904 -0.289547 0.691408
vn 0.221766 0.931348 0.288810
vn 0.530137 -0.030057 0.847379
vn 0.236725 0.826507 0.510733
vn 0.014217 -0.714492 0.699499
vn -0.011374 0.233392 0.972316
vn 0.051926 0.972488 0.227094
vn -0.031345 0.982811 0.181936
vn -0.008206 0.999209 0.038908
vn 0.014770 0.999023 0.041643
vn -0.089246 0.991700 -0.092558
vn 0.081918 0.987661 0.133473
vn 0.004774 0.999907 0.012819
vn -0.117648 0.992387 0.036423
vn 0.035348 0.999347 0.007494
vn 0.035469 0.999048 0.025388
vn 0.003674 0.999914 0.012571
vn 0.132566 0.983368 0.124150
vn 0.197210 0.961956 0.189076
vn -0.095312 0.951215 0.293437
vn -0.035274 0.995988 0.082237
vn -0.612581 0.061493 0.788012
vn -0.134816 -0.233256 0.963024
vn -0.319317 0.272194 0.907715
vn -0.106927 0.966643 0.232741
vn -0.347812 0.133187 0.928056
vn -0.050753 0.970784 0.234526
vn -0.092426 0.986176 0.137531
vn -0.096057 0.967437 0.234178
vn 0.020078 0.386566 0.922043
vn 0.012539 0.998335 0.056304
vn -0.119154 0.983537 0.135855
vn 0.071356 0.992098 0.103199
vn -0.071129 0.975233 0.209433
vn -0.125599 0.983179 0.132602
vn -0.238685 0.965266 0.106263
vn -0.055872 0.977746 0.202216
vn -0.174604 0.984637 0.001665
vn -0.321528 -0.255688 0.911725
vn 0.005569 0.863006 0.505163
vn -0.124675 -0.109029 0.986189
vn -0.021025 0.998662 0.047237
vn 0.028490 0.996829 0.074299
vn -0.026643 0.975720 0.217395
vn 0.034281 0.997043 0.068775
vn 0.144290 0.117703 0.982510
vn -0.082349 0.246726 0.965580
vn -0.092736 0.995030 -0.036257
vn 0.033404 0.999417 0.007042
vn 0.035067 0.998757 0.035430
vn -0.112500 0.988941 0.096643
vn 0.153950 0.956583 0.247486
vn 0.087566 0.985978 0.142057
vn 0.041313 0.995537 0.084850
vn -0.014973 0.997255 0.072509
vn 0.009425 0.994122 0.107851
vn -0.037440 0.999293 -0.003446
vn -0.418123 -0.836876 0.353288
vn -0.395400 -0.737216 0.547879
vn -0.010761 -0.755759 0.654762
vn -0.221323 -0.806663 0.548006
vn -0.337971 -0.811678 0.476398
vn -0.211025 -0.812896 0.542833
vn -0.219280 -0.728721 0.648754
vn 0.243387 -0.705976 0.665102
vn 0.009404 -0.781887 0.623349
vn -0.213829 -0.812606 0.542171
vn 0.074197 -0.790791 0.607573
vn 0.011661 -0.831696 0.555109
vn -0.068953 -0.841846 0.535296
vn -0.025311 -0.787341 0.615998
vn -0.039386 -0.403480 0.914140
vn -0.024648 0.999187 0.031903
vn -0.508750 0.807975 0.297236
vn -0.184550 0.978503 0.092055
vn -0.713755 0.506300 0.483956
vn -0.531932 0.792133 0.299289
vn 0.001880 0.999915 0.012942
vn -0.018930 0.998554 0.050314
vn -0.040647 0.999163 0.004568
vn 0.258783 0.956249 0.136452
vn 0.357856 0.918633 0.167487
vn -0.234402 0.948059 0.215036
vn 0.306005 0.909706 0.280707
vn 0.282345 0.923425 0.259937
vn 0.018980 0.998819 0.044726
vn 0.528664 0.798989 0.286585
vn -0.029095 0.999570 0.003514
vn 0.036379 0.999327 -0.004797
vn -0.238554 0.945525 0.221525
vn -0.251864 0.917675 0.307307
vn 0.102923 0.994670 -0.006166
vn 0.128770 0.988979 0.073069
vn 0.242098 0.968615 0.056327
vn -0.047558 0.998483 0.027741
vn 0.075829 0.995438 0.057900
vn -0.046305 0.997787 0.047710
vn 0.055615 0.996739 0.058467
vn 0.025520 0.995872 0.087106
vn -0.152109 0.987290 0.046063
vn -0.051284 0.994779 0.088230
vn 0.006974 0.996318 0.085457
vn 0.028232 0.998923 0.036811
vn -0.077906 0.995695 0.050229
vn 0.151163 0.987505 -0.044548
vn 0.104846 0.994437 0.010138
vn 0.164887 0.984622 -0.057726
vn -0.014937 0.998335 0.055713
vn 0.019502 0.999541 0.023185
vn -0.065810 0.997517 0.025080
vn 0.024050 0.999690 -0.006470
vn -0.033855 0.993647 0.107325
vn -0.316005 0.849296 0.422892
vn 0.006764 0.998243 0.058864
vn 0.005755 0.999223 0.038982
vn -0.031246 0.999008 0.031719
vn -0.012431 0.999920 0.002421
vn 0.016736 0.999359 0.031635
vn 0.204313 0.957381 0.204150
vn -0.225925 0.971107 0.076869
vn -0.007921 0.999205 0.039074
vn -0.025944 0.999533 0.016158
vn -0.022415 0.999099 0.036049
vn -0.003671 0.998534 0.054005
vn -0.015815 0.998897 0.044220
vn 0.010332 0.999496 0.030018
vn -0.028581 0.999588 0.002558
vn -0.047172 0.998303 0.034150
vn -0.037095 0.998578 0.038279
vn -0.080257 0.996709 0.011417
vn -0.010592 0.998638 0.051094
vn -0.023168 0.999229 -0.031688
vn -0.265570 0.956915 0.117419
vn -0.216391 0.974319 0.062274
vn -0.204243 0.973441 0.103426
vn -0.330006 0.941361 0.070255
vn -0.859925 0.430711 0.273892
vn -0.006619 0.999928 0.009969
vn -0.048274 0.998786 0.009843
vn -0.676700 -0.653439 0.339255
vn -0.713364 -0.678484 0.175417
vn 0.038220 0.760808 0.647851
vn -0.229893 0.970132 0.077421
vn -0.142440 0.920097 0.364873
vn -0.048299 0.998333 0.031586
vn -0.007026 0.998324 -0.057437
vn -0.039568 -0.831375 -0.554302
vn -0.014357 -0.828051 -0.560469
vn -0.549834 -0.835237 -0.007844
vn -0.544582 -0.836758 0.057163
vn 0.136893 -0.842823 -0.520491
vn 0.023382 -0.833891 -0.551433
vn 0.545583 -0.834585 0.076210
vn 0.553819 -0.832601 0.007729
vn 0.374257 -0.854625 0.359928
vn 0.298769 -0.854535 0.424861
vn 0.450203 -0.845265 -0.287827
vn 0.352098 -0.848759 -0.394505
vn -0.347999 -0.844957 -0.406134
vn -0.498894 -0.847560 -0.180959
vn -0.267524 -0.853009 0.448115
vn -0.392408 -0.855767 0.337163
vn -0.168357 -0.848307 0.502028
vn 0.041677 -0.814002 0.579365
vn -0.450018 -0.853187 0.263734
vn -0.479223 -0.849119 0.222131
vn -0.541128 -0.834592 -0.103139
vn 0.543069 -0.826504 -0.148211
vn 0.522432 -0.834075 -0.177152
vn 0.503283 -0.843340 0.188373
vn 0.421641 -0.851375 0.312057
vn 0.048201 -0.829562 0.556331
vn -0.018003 -0.827258 0.561533
vn -0.239899 -0.840482 -0.485838
vn -0.132997 -0.839335 -0.527095
vn 0.258806 -0.847758 -0.462953
vn 0.106945 -0.852690 0.511353
vn -0.024896 -0.828528 0.559395
vn 0.025978 -0.835039 0.549578
vn -0.035614 -0.829471 0.557414
vn 0.316015 -0.856760 0.407551
vn 0.275461 -0.861825 0.425886
vn -0.096411 -0.811809 0.575908
vn 0.009471 -0.831128 0.556000
vn -0.011501 -0.835687 0.549085
vn -0.193343 -0.847275 0.494715
vn -0.316993 -0.852425 0.415796
vn -0.167468 -0.829023 0.533551
vn 0.034609 -0.768656 0.638725
vn -0.156292 -0.835800 0.526318
vn -0.069516 -0.832367 0.549848
vn 0.308854 -0.712170 0.630415
vn 0.081878 -0.794243 0.602059
vn -0.513212 -0.845792 0.145772
vn -0.479126 -0.848688 0.223980
vn 0.821019 -0.469263 -0.325147
vn 0.509107 -0.838090 -0.196000
vn 0.976487 0.188321 -0.104920
vn 0.553561 -0.828578 -0.083841
f 10/11/1 27/40/2 37/52/3
f 27/40/2 101/120/4 37/52/3
f 101/120/4 164/195/5 37/52/3
f 102/121/6 37/52/3 164/195/5
f 114/136/7 116/139/8 206/247/9
f 22/21/10 61/78/11 26/38/12
f 26/38/12 61/78/11 62/79/13
f 56/73/14 57/74/15 42/57/16
f 42/57/16 57/74/15 15/15/17
f 204/245/18 52/69/19 203/244/20
f 180/213/21 85/103/22 18/18/23
f 18/18/23 85/103/22 51/68/24
f 345/449/25 55/72/26 16/16/27
f 38/53/28 58/75/29 14/14/30
f 14/14/30 58/75/29 59/76/31
f 136/162/32 137/163/33 10/11/1
f 144/174/34 248/304/35 229/280/36
f 37/52/3 135/161/37 10/11/1
f 10/11/1 135/161/37 136/162/32
f 133/159/38 134/160/39 8/9/40
f 196/237/41 8/9/40 28/41/42
f 179/212/43 130/156/44 178/211/45
f 127/153/46 207/249/47 113/135/48
f 126/152/49 127/153/46 118/142/50
f 118/142/50 127/153/46 113/135/48
f 27/39/2 10/11/1 233/286/51
f 10/11/1 138/164/52 233/286/51
f 138/164/52 122/147/53 233/286/51
f 60/77/54 41/56/55 361/471/56
f 361/471/56 41/56/55 14/14/30
f 24/36/57 249/305/58 266/323/59
f 266/323/59 249/305/58 253/310/60
f 261/318/61 255/312/62 63/80/63
f 224/272/64 225/274/65 139/165/66
f 139/165/66 225/274/65 124/150/67
f 100/119/68 101/120/4 27/40/2
f 197/238/69 131/157/70 196/237/41
f 351/457/71 54/71/72 29/42/73
f 53/70/74 17/17/75 199/240/76
f 199/240/76 17/17/75 198/239/77
f 90/108/78 188/225/79 49/66/80
f 191/230/81 192/231/82 4/4/83
f 4/4/83 192/231/82 129/155/84
f 275/334/85 176/209/86 274/333/87
f 274/333/87 176/209/86 170/203/88
f 102/121/6 103/122/89 37/52/3
f 134/160/39 135/161/37 8/9/40
f 8/9/40 135/161/37 171/204/90
f 171/204/90 135/161/37 172/205/91
f 172/205/91 135/161/37 103/122/89
f 135/161/37 37/52/3 103/122/89
f 38/53/28 15/15/17 58/75/29
f 58/75/29 15/15/17 57/74/15
f 61/78/11 22/21/10 358/467/92
f 358/467/92 22/21/10 41/56/55
f 10/11/1 137/163/33 138/164/52
f 132/158/93 133/159/38 8/9/40
f 348/453/94 56/73/14 42/57/16
f 95/113/95 94/112/96 19/31/97
f 152/183/98 162/193/99 151/181/100
f 151/181/100 162/193/99 146/176/101
f 48/65/102 221/269/103 160/191/104
f 160/191/104 221/269/103 222/270/105
f 161/192/106 97/115/107 88/106/108
f 88/106/108 97/115/107 49/66/80
f 73/91/109 74/92/110 71/89/111
f 71/89/111 74/92/110 70/88/112
f 85/103/22 93/111/113 84/102/114
f 84/102/114 93/111/113 68/86/115
f 31/44/116 52/69/19 205/246/117
f 205/246/117 52/69/19 204/245/18
f 6/6/118 53/70/74 200/241/119
f 200/241/119 53/70/74 199/240/76
f 352/459/120 30/43/121 351/457/71
f 351/457/71 30/43/121 54/71/72
f 354/462/122 9/10/123 55/72/26
f 349/455/124 43/58/125 348/453/94
f 348/453/94 43/58/125 56/73/14
f 43/58/125 2/2/126 56/73/14
f 56/73/14 2/2/126 57/74/15
f 58/75/29 57/74/15 39/54/127
f 39/54/127 57/74/15 2/2/126
f 59/76/31 58/75/29 1/1/128
f 1/1/128 58/75/29 39/54/127
f 40/55/129 60/77/54 362/473/130
f 362/473/130 60/77/54 361/471/56
f 61/78/11 358/467/92 252/309/131
f 359/469/132 11/12/133 358/467/92
f 11/12/133 252/309/131 358/467/92
f 252/309/131 11/12/133 251/308/134
f 251/308/134 11/12/133 25/37/135
f 250/306/136 256/313/137 5/5/138
f 5/5/138 256/313/137 257/314/139
f 232/284/140 242/297/141 23/34/142
f 23/34/142 242/297/141 243/298/143
f 81/99/144 82/100/145 65/83/146
f 83/101/147 84/102/114 68/86/115
f 70/88/112 81/99/144 65/83/146
f 68/86/115 50/67/148 65/83/146
f 83/101/147 68/86/115 82/100/145
f 82/100/145 68/86/115 65/83/146
f 71/89/111 70/88/112 50/67/148
f 50/67/148 70/88/112 65/83/146
f 44/59/149 91/109/150 92/110/151
f 74/92/110 75/93/152 70/88/112
f 87/105/153 64/82/154 96/114/155
f 96/114/155 64/82/154 74/92/110
f 64/82/154 72/90/156 74/92/110
f 74/92/110 72/90/156 75/93/152
f 72/90/156 67/85/157 75/93/152
f 75/93/152 67/85/157 76/94/158
f 67/85/157 45/61/159 76/94/158
f 76/94/158 45/61/159 77/95/160
f 69/87/161 78/96/162 45/61/159
f 45/61/159 78/96/162 77/95/160
f 66/84/163 79/97/164 69/87/161
f 69/87/161 79/97/164 78/96/162
f 7/8/165 80/98/166 99/117/167
f 99/117/167 80/98/166 98/116/168
f 75/93/152 76/94/158 70/88/112
f 70/88/112 76/94/158 81/99/144
f 76/94/158 77/95/160 81/99/144
f 81/99/144 77/95/160 82/100/145
f 78/96/162 83/101/147 77/95/160
f 77/95/160 83/101/147 82/100/145
f 79/97/164 84/102/114 78/96/162
f 78/96/162 84/102/114 83/101/147
f 80/98/166 51/68/24 98/116/168
f 98/116/168 51/68/24 85/103/22
f 87/105/153 96/114/155 13/7/169
f 13/7/169 96/114/155 97/115/107
f 161/192/106 88/106/108 258/315/170
f 258/315/170 88/106/108 185/221/171
f 86/104/172 73/91/109 95/113/95
f 95/113/95 73/91/109 94/112/96
f 91/109/150 71/89/111 92/110/151
f 92/110/151 71/89/111 50/67/148
f 50/67/148 93/111/113 92/110/151
f 68/86/115 93/111/113 50/67/148
f 188/225/79 90/108/78 211/254/173
f 211/254/173 90/108/78 19/31/97
f 73/91/109 71/89/111 94/112/96
f 94/112/96 71/89/111 91/109/150
f 94/112/96 91/109/150 193/232/174
f 193/232/174 91/109/150 44/59/149
f 90/108/78 95/113/95 19/31/97
f 49/66/80 86/104/172 90/108/78
f 90/108/78 86/104/172 95/113/95
f 74/92/110 73/91/109 96/114/155
f 96/114/155 73/91/109 86/104/172
f 96/114/155 86/104/172 97/115/107
f 97/115/107 86/104/172 49/66/80
f 98/116/168 85/103/22 79/97/164
f 79/97/164 85/103/22 84/102/114
f 99/117/167 98/116/168 66/84/163
f 66/84/163 98/116/168 79/97/164
f 100/118/68 231/283/175 123/148/176
f 165/196/177 166/197/178 36/51/179
f 102/121/6 164/195/5 36/51/179
f 36/51/179 164/195/5 165/196/177
f 173/206/180 171/204/90 172/205/91
f 113/134/48 115/138/181 118/141/50
f 125/151/182 3/3/183 124/149/67
f 124/149/67 3/3/183 139/165/66
f 108/128/184 247/302/185 144/173/34
f 144/173/34 247/302/185 248/303/35
f 155/186/186 108/128/184 154/185/187
f 157/188/188 244/299/189 156/187/190
f 156/187/190 244/299/189 149/179/191
f 246/301/192 247/302/185 108/128/184
f 108/128/184 47/63/193 153/184/194
f 153/184/194 47/63/193 152/182/98
f 154/185/187 108/128/184 153/184/194
f 141/168/195 112/133/196 104/123/197
f 104/123/197 112/133/196 105/125/198
f 244/299/189 245/300/199 149/179/191
f 167/198/200 36/51/179 166/197/178
f 120/145/201 116/139/8 119/143/202
f 119/143/202 116/139/8 114/136/7
f 159/190/203 270/329/204 271/330/205
f 118/141/50 115/138/181 212/256/206
f 213/258/207 126/152/49 212/257/206
f 212/257/206 126/152/49 118/142/50
f 215/261/208 120/145/201 214/259/209
f 214/259/209 120/145/201 119/143/202
f 120/145/201 215/261/208 158/189/210
f 158/189/210 215/261/208 216/262/211
f 231/283/175 232/285/140 123/148/176
f 123/148/176 232/285/140 23/35/142
f 124/150/67 225/274/65 20/19/212
f 20/24/212 141/169/195 124/149/67
f 126/152/49 213/258/207 119/144/202
f 119/144/202 213/258/207 214/260/209
f 127/153/46 126/152/49 114/137/7
f 114/137/7 126/152/49 119/144/202
f 114/137/7 206/248/9 127/153/46
f 127/153/46 206/248/9 207/249/47
f 192/231/82 193/233/174 129/155/84
f 129/155/84 193/233/174 44/60/149
f 32/45/213 130/156/44 18/18/23
f 18/18/23 130/156/44 180/214/21
f 130/156/44 179/212/43 180/214/21
f 198/239/77 17/17/75 197/238/69
f 29/42/73 131/157/70 17/17/75
f 17/17/75 131/157/70 197/238/69
f 29/42/73 16/16/27 131/157/70
f 131/157/70 16/16/27 132/158/93
f 16/16/27 42/57/16 132/158/93
f 132/158/93 42/57/16 133/159/38
f 42/57/16 15/15/17 133/159/38
f 133/159/38 15/15/17 134/160/39
f 135/161/37 134/160/39 38/53/28
f 38/53/28 134/160/39 15/15/17
f 135/161/37 38/53/28 136/162/32
f 136/162/32 38/53/28 14/14/30
f 41/56/55 137/163/33 14/14/30
f 14/14/30 137/163/33 136/162/32
f 137/163/33 41/56/55 138/164/52
f 138/164/52 41/56/55 22/21/10
f 122/147/53 138/164/52 26/38/12
f 26/38/12 138/164/52 22/21/10
f 3/28/183 140/167/214 139/166/66
f 104/124/197 125/151/182 141/169/195
f 141/169/195 125/151/182 124/149/67
f 141/168/195 20/22/212 112/133/196
f 112/133/196 20/22/212 109/129/215
f 142/170/216 100/118/68 123/148/176
f 142/170/216 123/148/176 143/172/217
f 143/172/217 123/148/176 23/35/142
f 144/174/34 145/175/218 163/194/219
f 163/194/219 145/175/218 148/178/220
f 229/280/36 20/25/212 228/278/221
f 148/178/220 145/175/218 23/34/142
f 23/34/142 145/175/218 143/171/217
f 147/177/222 151/181/100 24/36/57
f 24/36/57 151/181/100 249/305/58
f 243/298/143 148/178/220 23/34/142
f 163/194/219 148/178/220 162/193/99
f 162/193/99 148/178/220 146/176/101
f 108/128/184 144/173/34 47/63/193
f 245/300/199 246/301/192 149/179/191
f 149/179/191 246/301/192 108/128/184
f 156/187/190 149/179/191 155/186/186
f 155/186/186 149/179/191 108/128/184
f 152/183/98 151/181/100 12/13/223
f 12/13/223 151/181/100 147/177/222
f 153/184/194 152/182/98 110/131/224
f 110/131/224 152/182/98 12/23/223
f 111/132/225 154/185/187 110/131/224
f 110/131/224 154/185/187 153/184/194
f 107/127/226 155/186/186 111/132/225
f 111/132/225 155/186/186 154/185/187
f 150/180/227 156/187/190 107/127/226
f 107/127/226 156/187/190 155/186/186
f 106/126/228 157/188/188 150/180/227
f 150/180/227 157/188/188 156/187/190
f 121/146/229 158/189/210 217/263/230
f 217/263/230 158/189/210 216/262/211
f 159/190/203 271/330/205 117/140/231
f 117/140/231 271/330/205 272/331/232
f 160/191/104 222/270/105 33/46/233
f 33/46/233 222/270/105 223/271/234
f 259/316/235 89/107/236 258/315/170
f 258/315/170 89/107/236 161/192/106
f 89/107/236 13/7/169 161/192/106
f 161/192/106 13/7/169 97/115/107
f 152/183/98 47/64/193 162/193/99
f 47/64/193 163/194/219 162/193/99
f 47/64/193 144/174/34 163/194/219
f 165/196/177 164/195/5 276/335/237
f 115/138/181 224/273/64 140/167/214
f 140/167/214 224/273/64 139/166/66
f 279/338/238 167/198/200 278/337/239
f 167/198/200 279/338/238 168/199/240
f 168/199/240 279/338/238 280/339/241
f 177/210/242 28/41/42 296/356/243
f 296/356/243 28/41/42 209/252/244
f 28/41/42 181/215/245 209/252/244
f 181/215/245 182/216/246 209/252/244
f 171/204/90 173/206/180 8/9/40
f 8/9/40 173/206/180 28/41/42
f 28/41/42 173/206/180 181/215/245
f 170/203/88 173/206/180 274/333/87
f 274/333/87 173/206/180 172/205/91
f 280/340/241 293/353/247 168/200/240
f 168/200/240 293/353/247 169/202/248
f 293/353/247 294/354/249 169/202/248
f 209/252/244 182/216/246 297/357/250
f 183/217/251 208/250/252 182/216/246
f 208/250/252 299/359/253 182/216/246
f 299/359/253 297/357/250 182/216/246
f 179/212/43 178/211/45 283/343/254
f 283/343/254 178/211/45 284/344/255
f 180/214/21 179/212/43 283/343/254
f 195/235/256 85/103/22 180/213/21
f 181/215/245 173/206/180 170/203/88
f 182/216/246 181/215/245 176/209/86
f 176/209/86 181/215/245 170/203/88
f 183/217/251 182/216/246 275/334/85
f 275/334/85 182/216/246 176/209/86
f 295/355/257 183/218/251 294/354/249
f 294/354/249 183/218/251 169/202/248
f 174/207/258 128/154/259 184/220/260
f 184/220/260 128/154/259 34/48/261
f 185/221/171 184/219/260 48/65/102
f 48/65/102 184/219/260 34/47/261
f 175/208/262 189/226/263 186/222/264
f 187/224/265 186/222/264 190/228/266
f 190/228/266 186/222/264 189/226/263
f 88/106/108 188/225/79 190/227/266
f 190/227/266 188/225/79 187/223/265
f 49/66/80 188/225/79 88/106/108
f 175/208/262 174/207/258 189/226/263
f 189/226/263 174/207/258 190/228/266
f 190/228/266 174/207/258 184/220/260
f 88/106/108 190/227/266 185/221/171
f 185/221/171 190/227/266 184/219/260
f 208/251/252 210/253/267 191/230/81
f 191/230/81 210/253/267 281/341/268
f 210/253/267 211/255/173 281/341/268
f 281/341/268 211/255/173 19/30/97
f 19/31/97 94/112/96 193/232/174
f 177/210/242 282/342/269 285/345/270
f 285/345/270 282/342/269 194/234/271
f 195/236/256 194/234/271 282/342/269
f 44/59/149 92/110/151 195/235/256
f 195/235/256 92/110/151 85/103/22
f 93/111/113 85/103/22 92/110/151
f 201/242/272 197/238/69 196/237/41
f 197/238/69 201/242/272 198/239/77
f 198/239/77 201/242/272 202/243/273
f 52/69/19 199/240/76 203/244/20
f 198/239/77 202/243/273 199/240/76
f 199/240/76 202/243/273 203/244/20
f 200/241/119 199/240/76 31/44/116
f 31/44/116 199/240/76 52/69/19
f 131/157/70 132/158/93 196/237/41
f 196/237/41 132/158/93 8/9/40
f 28/41/42 177/210/242 196/237/41
f 196/237/41 177/210/242 201/242/272
f 177/210/242 289/349/274 201/242/272
f 201/242/272 289/349/274 292/352/275
f 289/349/274 287/347/276 292/352/275
f 292/352/275 287/347/276 291/351/277
f 201/242/272 292/352/275 202/243/273
f 292/352/275 130/156/44 202/243/273
f 202/243/273 130/156/44 32/45/213
f 203/244/20 202/243/273 32/45/213
f 51/68/24 204/245/18 18/18/23
f 32/45/213 18/18/23 203/244/20
f 204/245/18 203/244/20 18/18/23
f 51/68/24 80/98/166 204/245/18
f 7/8/165 205/246/117 80/98/166
f 205/246/117 204/245/18 80/98/166
f 221/269/103 48/65/102 220/267/278
f 220/267/278 48/65/102 34/47/261
f 220/268/278 34/48/261 219/266/279
f 219/266/279 34/48/261 128/154/259
f 219/266/279 128/154/259 218/265/280
f 218/265/280 128/154/259 35/50/281
f 298/358/282 296/356/243 297/357/250
f 297/357/250 296/356/243 209/252/244
f 210/253/267 208/251/252 295/355/257
f 295/355/257 208/251/252 183/218/251
f 211/255/173 210/253/267 187/224/265
f 187/224/265 210/253/267 186/222/264
f 187/223/265 188/225/79 211/254/173
f 115/138/181 140/167/214 212/256/206
f 212/256/206 140/167/214 230/281/283
f 125/151/182 213/258/207 230/282/283
f 230/282/283 213/258/207 212/257/206
f 213/258/207 125/151/182 214/260/209
f 214/260/209 125/151/182 104/124/197
f 105/125/198 215/261/208 104/123/197
f 104/123/197 215/261/208 214/259/209
f 215/261/208 105/125/198 216/262/211
f 216/262/211 105/125/198 157/188/188
f 217/263/230 216/262/211 106/126/228
f 106/126/228 216/262/211 157/188/188
f 278/337/239 167/198/200 277/336/284
f 277/336/284 167/198/200 166/197/178
f 207/249/47 219/266/279 113/135/48
f 113/135/48 219/266/279 218/265/280
f 206/248/9 220/268/278 207/249/47
f 207/249/47 220/268/278 219/266/279
f 116/139/8 221/269/103 206/247/9
f 206/247/9 221/269/103 220/267/278
f 221/269/103 270/329/204 222/270/105
f 222/270/105 270/329/204 159/190/203
f 222/270/105 159/190/203 223/271/234
f 223/271/234 159/190/203 117/140/231
f 224/273/64 115/138/181 226/276/285
f 225/274/65 224/272/64 227/277/286
f 227/277/286 224/272/64 226/275/285
f 20/19/212 225/274/65 228/279/221
f 228/279/221 225/274/65 227/277/286
f 277/336/284 166/197/178 276/335/237
f 276/335/237 166/197/178 165/196/177
f 227/277/286 226/275/285 142/170/216
f 142/170/216 226/275/285 100/118/68
f 228/279/221 227/277/286 143/172/217
f 143/172/217 227/277/286 142/170/216
f 145/175/218 229/280/36 143/171/217
f 143/171/217 229/280/36 228/278/221
f 144/174/34 229/280/36 145/175/218
f 230/281/283 140/167/214 3/28/183
f 3/29/183 125/151/182 230/282/283
f 27/39/2 233/286/51 237/291/287
f 237/291/287 233/286/51 234/287/288
f 234/287/288 235/288/289 237/291/287
f 237/291/287 235/288/289 236/290/290
f 236/290/290 235/288/289 21/26/291
f 241/296/292 236/289/290 240/295/293
f 240/295/293 236/289/290 21/27/291
f 234/287/288 233/286/51 122/147/53
f 234/287/288 122/147/53 235/288/289
f 235/288/289 122/147/53 26/38/12
f 269/328/294 235/288/289 26/38/12
f 236/289/290 241/296/292 232/284/140
f 232/284/140 241/296/292 242/297/141
f 232/285/140 231/283/175 236/290/290
f 236/290/290 231/283/175 237/291/287
f 27/39/2 237/291/287 100/118/68
f 100/118/68 237/291/287 231/283/175
f 239/294/295 240/295/293 267/325/296
f 238/292/297 240/295/293 262/319/298
f 262/319/298 240/295/293 239/294/295
f 46/62/299 241/296/292 238/292/297
f 238/292/297 241/296/292 240/295/293
f 242/297/141 241/296/292 46/62/299
f 243/298/143 242/297/141 46/62/299
f 148/178/220 243/298/143 146/176/101
f 146/176/101 243/298/143 46/62/299
f 157/188/188 105/125/198 244/299/189
f 112/133/196 245/300/199 105/125/198
f 105/125/198 245/300/199 244/299/189
f 246/301/192 245/300/199 112/133/196
f 112/133/196 109/129/215 246/301/192
f 246/301/192 109/129/215 247/302/185
f 248/303/35 247/302/185 109/129/215
f 229/280/36 248/304/35 109/130/215
f 151/181/100 146/176/101 249/305/58
f 249/305/58 146/176/101 46/62/299
f 253/310/60 249/305/58 238/292/297
f 238/292/297 249/305/58 46/62/299
f 63/80/63 255/312/62 250/306/136
f 250/306/136 255/312/62 256/313/137
f 61/78/11 252/309/131 62/79/13
f 62/79/13 252/309/131 251/308/134
f 253/310/60 263/320/300 264/321/301
f 264/321/301 263/320/300 63/81/63
f 255/312/62 260/317/302 62/79/13
f 255/312/62 62/79/13 256/313/137
f 256/313/137 62/79/13 251/308/134
f 256/313/137 251/308/134 257/314/139
f 257/314/139 251/308/134 25/37/135
f 229/280/36 109/130/215 20/25/212
f 258/315/170 185/221/171 160/191/104
f 160/191/104 185/221/171 48/65/102
f 259/316/235 258/315/170 33/46/233
f 33/46/233 258/315/170 160/191/104
f 268/326/303 260/317/302 267/324/296
f 267/324/296 260/317/302 239/293/295
f 269/327/294 26/38/12 268/326/303
f 268/326/303 26/38/12 260/317/302
f 62/79/13 260/317/302 26/38/12
f 239/293/295 261/318/61 63/80/63
f 239/293/295 260/317/302 261/318/61
f 261/318/61 260/317/302 255/312/62
f 63/81/63 263/320/300 239/294/295
f 263/320/300 253/310/60 262/319/298
f 262/319/298 253/310/60 238/292/297
f 239/294/295 263/320/300 262/319/298
f 250/307/136 264/321/301 63/81/63
f 265/322/304 264/321/301 254/311/305
f 266/323/59 253/310/60 265/322/304
f 265/322/304 253/310/60 264/321/301
f 264/321/301 250/307/136 254/311/305
f 254/311/305 250/307/136 5/33/138
f 267/325/296 240/295/293 21/27/291
f 21/20/291 268/326/303 267/324/296
f 21/20/291 269/327/294 268/326/303
f 21/26/291 235/288/289 269/328/294
f 273/332/306 221/269/103 116/139/8
f 270/329/204 273/332/306 271/330/205
f 271/330/205 273/332/306 158/189/210
f 271/330/205 158/189/210 272/331/232
f 272/331/232 158/189/210 121/146/229
f 270/329/204 221/269/103 273/332/306
f 158/189/210 273/332/306 120/145/201
f 120/145/201 273/332/306 116/139/8
f 172/205/91 103/122/89 274/333/87
f 103/122/89 102/121/6 274/333/87
f 274/333/87 102/121/6 36/51/179
f 36/51/179 167/198/200 274/333/87
f 168/199/240 169/201/248 167/198/200
f 274/333/87 167/198/200 275/334/85
f 169/201/248 275/334/85 167/198/200
f 183/217/251 275/334/85 169/201/248
f 276/335/237 164/195/5 101/120/4
f 101/120/4 115/138/181 276/335/237
f 276/335/237 115/138/181 277/336/284
f 113/134/48 218/264/280 115/138/181
f 218/264/280 278/337/239 115/138/181
f 278/337/239 277/336/284 115/138/181
f 279/338/238 278/337/239 35/49/281
f 35/49/281 278/337/239 218/264/280
f 280/339/241 279/338/238 35/49/281
f 280/340/241 35/50/281 175/208/262
f 35/50/281 128/154/259 175/208/262
f 128/154/259 174/207/258 175/208/262
f 115/138/181 101/120/4 226/276/285
f 226/276/285 101/120/4 100/119/68
f 281/341/268 19/30/97 192/231/82
f 192/231/82 19/30/97 193/233/174
f 191/230/81 281/341/268 192/231/82
f 129/155/84 282/342/269 4/32/83
f 4/32/83 282/342/269 177/210/242
f 195/236/256 282/342/269 44/60/149
f 44/60/149 282/342/269 129/155/84
f 194/234/271 283/343/254 284/344/255
f 180/214/21 283/343/254 195/236/256
f 195/236/256 283/343/254 194/234/271
f 288/348/307 289/349/274 177/210/242
f 285/345/270 288/348/307 177/210/242
f 285/345/270 290/350/308 286/346/309
f 291/351/277 287/347/276 290/350/308
f 290/350/308 287/347/276 286/346/309
f 285/345/270 286/346/309 288/348/307
f 288/348/307 286/346/309 289/349/274
f 286/346/309 287/347/276 289/349/274
f 194/234/271 284/344/255 285/345/270
f 285/345/270 284/344/255 290/350/308
f 178/211/45 291/351/277 284/344/255
f 284/344/255 291/351/277 290/350/308
f 291/351/277 178/211/45 292/352/275
f 130/156/44 292/352/275 178/211/45
f 280/340/241 175/208/262 293/353/247
f 294/354/249 293/353/247 175/208/262
f 175/208/262 295/355/257 294/354/249
f 175/208/262 186/222/264 295/355/257
f 295/355/257 186/222/264 210/253/267
f 191/229/81 4/32/83 300/360/310
f 4/32/83 177/210/242 300/360/310
f 300/360/310 177/210/242 298/358/282
f 177/210/242 296/356/243 298/358/282
f 300/360/310 298/358/282 299/359/253
f 299/359/253 298/358/282 297/357/250
f 300/360/310 299/359/253 191/229/81
f 191/229/81 299/359/253 208/250/252
f 1/361/128 39/362/127 301/364/311
f 301/364/311 39/362/127 302/363/312
f 257/366/139 304/367/313 5/365/138
f 5/365/138 304/367/313 303/368/314
f 43/370/125 306/371/315 2/369/126
f 2/369/126 306/371/315 305/372/316
f 200/374/119 308/375/317 6/373/118
f 6/373/118 308/375/317 307/376/318
f 7/377/165 99/378/167 309/380/319
f 309/380/319 99/378/167 310/379/320
f 354/461/122 355/463/321 9/381/123
f 9/381/123 355/463/321 311/384/322
f 359/468/132 360/470/323 11/385/133
f 11/385/133 360/470/323 313/388/324
f 12/389/223 147/390/222 315/392/325
f 315/392/325 147/390/222 316/391/326
f 106/394/228 317/395/327 217/393/230
f 217/393/230 317/395/327 318/396/328
f 24/397/57 266/398/59 319/400/329
f 319/400/329 266/398/59 320/399/330
f 11/385/133 313/388/324 25/401/135
f 25/401/135 313/388/324 321/402/331
f 352/458/120 353/460/332 30/382/121
f 30/382/121 353/460/332 312/383/333
f 31/403/116 205/404/117 322/406/334
f 322/406/334 205/404/117 323/405/335
f 33/408/233 324/409/336 259/407/235
f 259/407/235 324/409/336 325/410/337
f 2/369/126 305/372/316 39/362/127
f 39/362/127 305/372/316 302/363/312
f 40/386/129 362/472/130 314/387/338
f 314/387/338 362/472/130 363/474/339
f 349/454/124 350/456/340 43/370/125
f 43/370/125 350/456/340 306/371/315
f 45/411/159 67/412/157 326/414/341
f 326/414/341 67/412/157 327/413/342
f 64/415/154 87/416/153 328/418/343
f 328/418/343 87/416/153 329/417/344
f 66/419/163 69/420/161 330/422/345
f 330/422/345 69/420/161 331/421/346
f 67/412/157 72/423/156 327/413/342
f 327/413/342 72/423/156 332/424/347
f 69/420/161 45/411/159 331/421/346
f 331/421/346 45/411/159 326/414/341
f 72/423/156 64/415/154 332/424/347
f 332/424/347 64/415/154 328/418/343
f 87/416/153 13/425/169 329/417/344
f 329/417/344 13/425/169 333/426/348
f 89/427/236 334/428/349 13/425/169
f 13/425/169 334/428/349 333/426/348
f 99/378/167 66/419/163 310/379/320
f 310/379/320 66/419/163 330/422/345
f 106/394/228 150/429/227 317/395/327
f 317/395/327 150/429/227 335/430/350
f 107/431/226 111/432/225 336/434/351
f 336/434/351 111/432/225 337/433/352
f 12/389/223 315/392/325 110/435/224
f 110/435/224 315/392/325 338/436/353
f 110/435/224 338/436/353 111/432/225
f 111/432/225 338/436/353 337/433/352
f 117/438/231 339/439/354 223/437/234
f 223/437/234 339/439/354 340/440/355
f 121/442/229 341/443/356 272/441/232
f 272/441/232 341/443/356 342/444/357
f 24/397/57 319/400/329 147/390/222
f 147/390/222 319/400/329 316/391/326
f 107/431/226 336/434/351 150/429/227
f 150/429/227 336/434/351 335/430/350
f 31/403/116 322/406/334 200/374/119
f 200/374/119 322/406/334 308/375/317
f 205/404/117 7/377/165 323/405/335
f 323/405/335 7/377/165 309/380/319
f 217/393/230 318/396/328 121/442/229
f 121/442/229 318/396/328 341/443/356
f 223/437/234 340/440/355 33/408/233
f 33/408/233 340/440/355 324/409/336
f 254/445/305 5/365/138 343/446/358
f 343/446/358 5/365/138 303/368/314
f 25/401/135 321/402/331 257/366/139
f 257/366/139 321/402/331 304/367/313
f 89/427/236 259/407/235 334/428/349
f 334/428/349 259/407/235 325/410/337
f 254/445/305 343/446/358 265/447/304
f 265/447/304 343/446/358 344/448/359
f 266/398/59 265/447/304 320/399/330
f 320/399/330 265/447/304 344/448/359
f 117/438/231 272/441/232 339/439/354
f 339/439/354 272/441/232 342/444/357
f 54/71/72 345/449/25 29/42/73
f 29/42/73 345/449/25 16/16/27
f 346/451/360 345/449/25 30/43/121
f 30/43/121 345/449/25 54/71/72
f 347/452/361 346/450/360 312/383/333
f 312/383/333 346/450/360 30/382/121
f 55/72/26 348/453/94 16/16/27
f 16/16/27 348/453/94 42/57/16
f 9/10/123 349/455/124 55/72/26
f 55/72/26 349/455/124 348/453/94
f 350/456/340 349/454/124 311/384/322
f 311/384/322 349/454/124 9/381/123
f 53/70/74 351/457/71 17/17/75
f 17/17/75 351/457/71 29/42/73
f 352/459/120 351/457/71 356/465/362
f 356/465/362 351/457/71 53/70/74
f 353/460/332 352/458/120 357/466/363
f 357/466/363 352/458/120 356/464/362
f 346/451/360 354/462/122 345/449/25
f 345/449/25 354/462/122 55/72/26
f 354/461/122 346/450/360 355/463/321
f 355/463/321 346/450/360 347/452/361
f 6/6/118 356/465/362 53/70/74
f 357/466/363 356/464/362 307/376/318
f 307/376/318 356/464/362 6/373/118
f 358/467/92 41/56/55 60/77/54
f 359/469/132 358/467/92 40/55/129
f 40/55/129 358/467/92 60/77/54
f 359/468/132 40/386/129 360/470/323
f 360/470/323 40/386/129 314/387/338
f 361/471/56 14/14/30 59/76/31
f 362/473/130 361/471/56 1/1/128
f 1/1/128 361/471/56 59/76/31
f 362/472/130 1/361/128 363/474/339
f 363/474/339 1/361/128 301/364/311
