# This file uses centimeters as units for non-parametric coordinates.

v 0.109643 0.088913 -0.588643
v 0.054874 0.136557 -0.586798
v -0.015755 0.153278 -0.584569
v -0.086064 0.135243 -0.582467
v -0.139946 0.086586 -0.580973
v -0.165057 0.018453 -0.580429
v -0.155645 -0.053548 -0.580961
v -0.113866 -0.112922 -0.582446
v -0.049290 -0.146067 -0.584545
v 0.023288 -0.145391 -0.586775
v 0.087242 -0.111047 -0.588627
v 0.127920 -0.050904 -0.589676
v 0.136005 0.021260 -0.589682
v 0.223650 0.167472 -0.522117
v 0.119473 0.258097 -0.518608
v -0.014871 0.289900 -0.514368
v -0.148607 0.255597 -0.510369
v -0.251097 0.163046 -0.507527
v -0.298861 0.033449 -0.506494
v -0.280958 -0.103505 -0.507505
v -0.201489 -0.216441 -0.510330
v -0.078659 -0.279487 -0.514321
v 0.059393 -0.278200 -0.518564
v 0.181040 -0.212875 -0.522086
v 0.258416 -0.098477 -0.524082
v 0.273793 0.038788 -0.524093
v 0.315765 0.229637 -0.416074
v 0.172378 0.354372 -0.411243
v -0.012532 0.398146 -0.405408
v -0.196603 0.350932 -0.399904
v -0.337668 0.223546 -0.395992
v -0.403410 0.045171 -0.394570
v -0.378769 -0.143330 -0.395962
v -0.269389 -0.298774 -0.399850
v -0.100328 -0.385549 -0.405343
v 0.089684 -0.383778 -0.411183
v 0.257118 -0.293865 -0.416031
v 0.363616 -0.136409 -0.418778
v 0.384781 0.052519 -0.418793
v 0.376970 0.269324 -0.280894
v 0.208409 0.415958 -0.275215
v -0.008966 0.467418 -0.268355
v -0.225355 0.411914 -0.261884
v -0.391186 0.262163 -0.257286
v -0.468471 0.052471 -0.255614
v -0.439503 -0.169126 -0.257251
v -0.310919 -0.351860 -0.261822
v -0.112176 -0.453871 -0.268279
v 0.111197 -0.451789 -0.275144
v 0.308026 -0.346090 -0.280844
v 0.433222 -0.160989 -0.284072
v 0.458104 0.061109 -0.284091
v 0.401275 0.282648 -0.129810
v 0.224039 0.436828 -0.123838
v -0.004522 0.490936 -0.116625
v -0.232047 0.432576 -0.109821
v -0.406412 0.275118 -0.104987
v -0.487674 0.054634 -0.103229
v -0.457215 -0.178366 -0.104950
v -0.322014 -0.370504 -0.109755
v -0.113043 -0.477765 -0.116545
v 0.121824 -0.475575 -0.123763
v 0.328783 -0.364437 -0.129756
v 0.460422 -0.169811 -0.133151
v 0.486584 0.063717 -0.133171
v 0.386803 0.268249 0.038740
v 0.218242 0.414883 0.044419
v 0.000868 0.466342 0.051279
v -0.215521 0.410839 0.057750
v -0.381353 0.261088 0.062348
v -0.458637 0.051395 0.064020
v -0.429669 -0.170201 0.062383
v -0.301086 -0.352936 0.057812
v -0.102343 -0.454946 0.051355
v 0.121030 -0.452864 0.044490
v 0.317860 -0.347165 0.038791
v 0.443056 -0.162065 0.035562
v 0.467937 0.060033 0.035543
v 0.336437 0.227377 0.255889
v 0.193050 0.352111 0.260720
v 0.008141 0.395885 0.266556
v -0.175931 0.348671 0.272060
v -0.316996 0.221285 0.275971
v -0.382738 0.042910 0.277393
v -0.358096 -0.145591 0.276001
v -0.248716 -0.301034 0.272113
v -0.079655 -0.387810 0.266620
v 0.110357 -0.386039 0.260780
v 0.277790 -0.296126 0.255932
v 0.384288 -0.138670 0.253185
v 0.405453 0.050258 0.253170
v 0.252924 0.164271 0.429456
v 0.148748 0.254895 0.432966
v 0.014403 0.286699 0.437205
v -0.119333 0.252396 0.441204
v -0.221822 0.159845 0.444046
v -0.269587 0.030248 0.445079
v -0.251684 -0.106706 0.444068
v -0.172214 -0.219643 0.441243
v -0.049384 -0.282689 0.437252
v 0.088667 -0.281402 0.433010
v 0.210315 -0.216076 0.429487
v 0.287690 -0.101678 0.427491
v 0.303068 0.035586 0.427480
v 0.144440 0.085108 0.542450
v 0.089671 0.132752 0.544295
v 0.019042 0.149472 0.546525
v -0.051267 0.131438 0.548627
v -0.105149 0.082781 0.550121
v -0.130260 0.014648 0.550664
v -0.120848 -0.057353 0.550132
v -0.079068 -0.116727 0.548647
v -0.014493 -0.149873 0.546549
v 0.058085 -0.149196 0.544319
v 0.122039 -0.114852 0.542467
v 0.162718 -0.054710 0.541418
v 0.170802 0.017455 0.541412
v -0.015097 0.001651 -0.609140
v 0.021604 -0.002363 0.583812
vt 0.000000 0.100000
vt 0.076923 0.100000
vt 0.153846 0.100000
vt 0.230769 0.100000
vt 0.307692 0.100000
vt 0.384615 0.100000
vt 0.461538 0.100000
vt 0.538462 0.100000
vt 0.615385 0.100000
vt 0.692308 0.100000
vt 0.769231 0.100000
vt 0.846154 0.100000
vt 0.923077 0.100000
vt 1.000000 0.100000
vt 0.000000 0.200000
vt 0.076923 0.200000
vt 0.153846 0.200000
vt 0.230769 0.200000
vt 0.307692 0.200000
vt 0.384615 0.200000
vt 0.461538 0.200000
vt 0.538462 0.200000
vt 0.615385 0.200000
vt 0.692308 0.200000
vt 0.769231 0.200000
vt 0.846154 0.200000
vt 0.923077 0.200000
vt 1.000000 0.200000
vt 0.000000 0.300000
vt 0.076923 0.300000
vt 0.153846 0.300000
vt 0.230769 0.300000
vt 0.307692 0.300000
vt 0.384615 0.300000
vt 0.461538 0.300000
vt 0.538462 0.300000
vt 0.615385 0.300000
vt 0.692308 0.300000
vt 0.769231 0.300000
vt 0.846154 0.300000
vt 0.923077 0.300000
vt 1.000000 0.300000
vt 0.000000 0.400000
vt 0.076923 0.400000
vt 0.153846 0.400000
vt 0.230769 0.400000
vt 0.307692 0.400000
vt 0.384615 0.400000
vt 0.461538 0.400000
vt 0.538462 0.400000
vt 0.615385 0.400000
vt 0.692308 0.400000
vt 0.769231 0.400000
vt 0.846154 0.400000
vt 0.923077 0.400000
vt 1.000000 0.400000
vt 0.000000 0.500000
vt 0.076923 0.500000
vt 0.153846 0.500000
vt 0.230769 0.500000
vt 0.307692 0.500000
vt 0.384615 0.500000
vt 0.461538 0.500000
vt 0.538462 0.500000
vt 0.615385 0.500000
vt 0.692308 0.500000
vt 0.769231 0.500000
vt 0.846154 0.500000
vt 0.923077 0.500000
vt 1.000000 0.500000
vt 0.000000 0.600000
vt 0.076923 0.600000
vt 0.153846 0.600000
vt 0.230769 0.600000
vt 0.307692 0.600000
vt 0.384615 0.600000
vt 0.461538 0.600000
vt 0.538462 0.600000
vt 0.615385 0.600000
vt 0.692308 0.600000
vt 0.769231 0.600000
vt 0.846154 0.600000
vt 0.923077 0.600000
vt 1.000000 0.600000
vt 0.000000 0.700000
vt 0.076923 0.700000
vt 0.153846 0.700000
vt 0.230769 0.700000
vt 0.307692 0.700000
vt 0.384615 0.700000
vt 0.461538 0.700000
vt 0.538462 0.700000
vt 0.615385 0.700000
vt 0.692308 0.700000
vt 0.769231 0.700000
vt 0.846154 0.700000
vt 0.923077 0.700000
vt 1.000000 0.700000
vt 0.000000 0.800000
vt 0.076923 0.800000
vt 0.153846 0.800000
vt 0.230769 0.800000
vt 0.307692 0.800000
vt 0.384615 0.800000
vt 0.461538 0.800000
vt 0.538462 0.800000
vt 0.615385 0.800000
vt 0.692308 0.800000
vt 0.769231 0.800000
vt 0.846154 0.800000
vt 0.923077 0.800000
vt 1.000000 0.800000
vt 0.000000 0.900000
vt 0.076923 0.900000
vt 0.153846 0.900000
vt 0.230769 0.900000
vt 0.307692 0.900000
vt 0.384615 0.900000
vt 0.461538 0.900000
vt 0.538462 0.900000
vt 0.615385 0.900000
vt 0.692308 0.900000
vt 0.769231 0.900000
vt 0.846154 0.900000
vt 0.923077 0.900000
vt 1.000000 0.900000
vt 0.038462 0.000000
vt 0.115385 0.000000
vt 0.192308 0.000000
vt 0.269231 0.000000
vt 0.346154 0.000000
vt 0.423077 0.000000
vt 0.500000 0.000000
vt 0.576923 0.000000
vt 0.653846 0.000000
vt 0.730769 0.000000
vt 0.807692 0.000000
vt 0.884615 0.000000
vt 0.961539 0.000000
vt 0.038462 1.000000
vt 0.115385 1.000000
vt 0.192308 1.000000
vt 0.269231 1.000000
vt 0.346154 1.000000
vt 0.423077 1.000000
vt 0.500000 1.000000
vt 0.576923 1.000000
vt 0.653846 1.000000
vt 0.730769 1.000000
vt 0.807692 1.000000
vt 0.884615 1.000000
vt 0.961539 1.000000
vn 0.259595 0.191547 -0.946531
vn 0.139059 0.304076 -0.942444
vn 0.485595 0.345027 -0.803215
vn 0.268183 0.542847 -0.795861
vn -0.019947 0.347668 -0.937406
vn -0.016224 0.616915 -0.786862
vn -0.180995 0.312336 -0.932570
vn -0.302473 0.550264 -0.778280
vn -0.307193 0.206175 -0.929045
vn -0.524987 0.358161 -0.772081
vn -0.369629 0.053505 -0.927638
vn -0.632792 0.084616 -0.769685
vn -0.354001 -0.110699 -0.928671
vn -0.601190 -0.207706 -0.771640
vn -0.263888 -0.248820 -0.931908
vn -0.437421 -0.451837 -0.777500
vn -0.119933 -0.329217 -0.936607
vn -0.179003 -0.591850 -0.785921
vn 0.044883 -0.333471 -0.941692
vn 0.114864 -0.595669 -0.794975
vn 0.192804 -0.260607 -0.945997
vn 0.376860 -0.462420 -0.802586
vn 0.289943 -0.127318 -0.948537
vn 0.546962 -0.222628 -0.807013
vn 0.314047 0.035860 -0.948730
vn 0.586203 0.068773 -0.807240
vn 0.661630 0.465907 -0.587517
vn 0.368347 0.728482 -0.577611
vn -0.013325 0.824609 -0.565546
vn -0.395949 0.732266 -0.554085
vn -0.691870 0.472608 -0.545855
vn -0.833296 0.105118 -0.542741
vn -0.787829 -0.286014 -0.545455
vn -0.565884 -0.611187 -0.553377
vn -0.218306 -0.795906 -0.564692
vn 0.175279 -0.797854 -0.576807
vn 0.524705 -0.616586 -0.586947
vn 0.749923 -0.293628 -0.592789
vn 0.799338 0.097035 -0.592995
vn 0.775016 0.545215 -0.319515
vn 0.432442 0.847440 -0.307960
vn -0.011294 0.955756 -0.293944
vn -0.454538 0.845349 -0.280679
vn -0.795747 0.541511 -0.271204
vn -0.956755 0.113849 -0.267690
vn -0.900677 -0.339665 -0.270941
vn -0.640359 -0.715137 -0.280212
vn -0.235437 -0.926551 -0.293381
vn 0.221326 -0.925474 -0.307429
vn 0.625291 -0.712153 -0.319139
vn 0.883915 -0.335457 -0.325828
vn 0.937949 0.118317 -0.325964
vn 0.817277 0.575787 -0.022975
vn 0.456246 0.889788 -0.010812
vn -0.009304 0.999949 0.003881
vn -0.472721 0.881034 0.017737
vn -0.827841 0.560284 0.027583
vn -0.993312 0.111180 0.031163
vn -0.931225 -0.363395 0.027656
vn -0.655804 -0.754720 0.017867
vn -0.230145 -0.973148 0.004037
vn 0.248240 -0.968640 -0.010665
vn 0.669757 -0.742228 -0.022871
vn 0.937842 -0.345781 -0.029785
vn 0.991081 0.129880 -0.029823
vn 0.798548 0.564129 0.209951
vn 0.445532 0.867348 0.221831
vn -0.007912 0.971689 0.236132
vn -0.457906 0.853249 0.249577
vn -0.801362 0.539160 0.259087
vn -0.959597 0.101378 0.262482
vn -0.896362 -0.359809 0.258985
vn -0.626143 -0.738746 0.249397
vn -0.210845 -0.948625 0.235915
vn 0.254393 -0.941364 0.221626
vn 0.662991 -0.718627 0.209806
vn 0.921343 -0.331441 0.203160
vn 0.970265 0.131496 0.203212
vn 0.753357 0.533466 0.384537
vn 0.420097 0.816644 0.395742
vn -0.006544 0.912426 0.409189
vn -0.428827 0.798870 0.421798
vn -0.750014 0.501990 0.430681
vn -0.896523 0.089797 0.433801
vn -0.834791 -0.343279 0.430445
vn -0.578961 -0.698027 0.421381
vn -0.187640 -0.893178 0.408686
vn 0.249526 -0.884025 0.395268
vn 0.632386 -0.672665 0.384200
vn 0.873232 -0.307518 0.378019
vn 0.916889 0.127764 0.378141
vn 0.641715 0.454107 0.618052
vn 0.358552 0.691092 0.627561
vn -0.002272 0.769267 0.638924
vn -0.358095 0.670721 0.649539
vn -0.627403 0.418032 0.656974
vn -0.748501 0.069086 0.659526
vn -0.693646 -0.296176 0.656609
vn -0.475405 -0.594078 0.648893
vn -0.143775 -0.756373 0.638144
vn 0.225273 -0.745883 0.626826
vn 0.547193 -0.565009 0.617531
vn 0.748237 -0.255189 0.612389
vn 0.782350 0.112602 0.612576
vn 0.423963 0.296438 0.855792
vn 0.239423 0.446851 0.861975
vn 0.006144 0.494227 0.869311
vn -0.222432 0.427714 0.876119
vn -0.393941 0.262548 0.880840
vn -0.469092 0.036567 0.882392
vn -0.430670 -0.198458 0.880419
vn -0.287475 -0.388688 0.875374
vn -0.072314 -0.490542 0.868412
vn 0.165524 -0.480687 0.861128
vn 0.371554 -0.361381 0.855191
vn 0.498575 -0.159955 0.851961
vn 0.517489 0.077447 0.852178
vn -0.030749 0.003363 -0.999521
vn 0.030749 -0.003363 0.999522
f 1/1/1 2/2/2 14/15/3
f 14/15/3 2/2/2 15/16/4
f 2/2/2 3/3/5 15/16/4
f 15/16/4 3/3/5 16/17/6
f 3/3/5 4/4/7 16/17/6
f 16/17/6 4/4/7 17/18/8
f 4/4/7 5/5/9 17/18/8
f 17/18/8 5/5/9 18/19/10
f 5/5/9 6/6/11 18/19/10
f 18/19/10 6/6/11 19/20/12
f 6/6/11 7/7/13 19/20/12
f 19/20/12 7/7/13 20/21/14
f 7/7/13 8/8/15 20/21/14
f 20/21/14 8/8/15 21/22/16
f 8/8/15 9/9/17 21/22/16
f 21/22/16 9/9/17 22/23/18
f 9/9/17 10/10/19 22/23/18
f 22/23/18 10/10/19 23/24/20
f 10/10/19 11/11/21 23/24/20
f 23/24/20 11/11/21 24/25/22
f 11/11/21 12/12/23 24/25/22
f 24/25/22 12/12/23 25/26/24
f 12/12/23 13/13/25 25/26/24
f 25/26/24 13/13/25 26/27/26
f 13/13/25 1/14/1 26/27/26
f 26/27/26 1/14/1 14/28/3
f 14/15/3 15/16/4 27/29/27
f 27/29/27 15/16/4 28/30/28
f 15/16/4 16/17/6 28/30/28
f 28/30/28 16/17/6 29/31/29
f 16/17/6 17/18/8 29/31/29
f 29/31/29 17/18/8 30/32/30
f 17/18/8 18/19/10 30/32/30
f 30/32/30 18/19/10 31/33/31
f 18/19/10 19/20/12 31/33/31
f 31/33/31 19/20/12 32/34/32
f 19/20/12 20/21/14 32/34/32
f 32/34/32 20/21/14 33/35/33
f 20/21/14 21/22/16 33/35/33
f 33/35/33 21/22/16 34/36/34
f 21/22/16 22/23/18 34/36/34
f 34/36/34 22/23/18 35/37/35
f 22/23/18 23/24/20 35/37/35
f 35/37/35 23/24/20 36/38/36
f 23/24/20 24/25/22 36/38/36
f 36/38/36 24/25/22 37/39/37
f 24/25/22 25/26/24 37/39/37
f 37/39/37 25/26/24 38/40/38
f 25/26/24 26/27/26 38/40/38
f 38/40/38 26/27/26 39/41/39
f 26/27/26 14/28/3 39/41/39
f 39/41/39 14/28/3 27/42/27
f 27/29/27 28/30/28 40/43/40
f 40/43/40 28/30/28 41/44/41
f 28/30/28 29/31/29 41/44/41
f 41/44/41 29/31/29 42/45/42
f 29/31/29 30/32/30 42/45/42
f 42/45/42 30/32/30 43/46/43
f 30/32/30 31/33/31 43/46/43
f 43/46/43 31/33/31 44/47/44
f 31/33/31 32/34/32 44/47/44
f 44/47/44 32/34/32 45/48/45
f 32/34/32 33/35/33 45/48/45
f 45/48/45 33/35/33 46/49/46
f 33/35/33 34/36/34 46/49/46
f 46/49/46 34/36/34 47/50/47
f 34/36/34 35/37/35 47/50/47
f 47/50/47 35/37/35 48/51/48
f 35/37/35 36/38/36 48/51/48
f 48/51/48 36/38/36 49/52/49
f 36/38/36 37/39/37 49/52/49
f 49/52/49 37/39/37 50/53/50
f 37/39/37 38/40/38 50/53/50
f 50/53/50 38/40/38 51/54/51
f 38/40/38 39/41/39 51/54/51
f 51/54/51 39/41/39 52/55/52
f 39/41/39 27/42/27 52/55/52
f 52/55/52 27/42/27 40/56/40
f 40/43/40 41/44/41 53/57/53
f 53/57/53 41/44/41 54/58/54
f 41/44/41 42/45/42 54/58/54
f 54/58/54 42/45/42 55/59/55
f 42/45/42 43/46/43 55/59/55
f 55/59/55 43/46/43 56/60/56
f 43/46/43 44/47/44 56/60/56
f 56/60/56 44/47/44 57/61/57
f 44/47/44 45/48/45 57/61/57
f 57/61/57 45/48/45 58/62/58
f 45/48/45 46/49/46 58/62/58
f 58/62/58 46/49/46 59/63/59
f 46/49/46 47/50/47 59/63/59
f 59/63/59 47/50/47 60/64/60
f 47/50/47 48/51/48 60/64/60
f 60/64/60 48/51/48 61/65/61
f 48/51/48 49/52/49 61/65/61
f 61/65/61 49/52/49 62/66/62
f 49/52/49 50/53/50 62/66/62
f 62/66/62 50/53/50 63/67/63
f 50/53/50 51/54/51 63/67/63
f 63/67/63 51/54/51 64/68/64
f 51/54/51 52/55/52 64/68/64
f 64/68/64 52/55/52 65/69/65
f 52/55/52 40/56/40 65/69/65
f 65/69/65 40/56/40 53/70/53
f 53/57/53 54/58/54 66/71/66
f 66/71/66 54/58/54 67/72/67
f 54/58/54 55/59/55 67/72/67
f 67/72/67 55/59/55 68/73/68
f 55/59/55 56/60/56 68/73/68
f 68/73/68 56/60/56 69/74/69
f 56/60/56 57/61/57 69/74/69
f 69/74/69 57/61/57 70/75/70
f 57/61/57 58/62/58 70/75/70
f 70/75/70 58/62/58 71/76/71
f 58/62/58 59/63/59 71/76/71
f 71/76/71 59/63/59 72/77/72
f 59/63/59 60/64/60 72/77/72
f 72/77/72 60/64/60 73/78/73
f 60/64/60 61/65/61 73/78/73
f 73/78/73 61/65/61 74/79/74
f 61/65/61 62/66/62 74/79/74
f 74/79/74 62/66/62 75/80/75
f 62/66/62 63/67/63 75/80/75
f 75/80/75 63/67/63 76/81/76
f 63/67/63 64/68/64 76/81/76
f 76/81/76 64/68/64 77/82/77
f 64/68/64 65/69/65 77/82/77
f 77/82/77 65/69/65 78/83/78
f 65/69/65 53/70/53 78/83/78
f 78/83/78 53/70/53 66/84/66
f 66/71/66 67/72/67 79/85/79
f 79/85/79 67/72/67 80/86/80
f 67/72/67 68/73/68 80/86/80
f 80/86/80 68/73/68 81/87/81
f 68/73/68 69/74/69 81/87/81
f 81/87/81 69/74/69 82/88/82
f 69/74/69 70/75/70 82/88/82
f 82/88/82 70/75/70 83/89/83
f 70/75/70 71/76/71 83/89/83
f 83/89/83 71/76/71 84/90/84
f 71/76/71 72/77/72 84/90/84
f 84/90/84 72/77/72 85/91/85
f 72/77/72 73/78/73 85/91/85
f 85/91/85 73/78/73 86/92/86
f 73/78/73 74/79/74 86/92/86
f 86/92/86 74/79/74 87/93/87
f 74/79/74 75/80/75 87/93/87
f 87/93/87 75/80/75 88/94/88
f 75/80/75 76/81/76 88/94/88
f 88/94/88 76/81/76 89/95/89
f 76/81/76 77/82/77 89/95/89
f 89/95/89 77/82/77 90/96/90
f 77/82/77 78/83/78 90/96/90
f 90/96/90 78/83/78 91/97/91
f 78/83/78 66/84/66 91/97/91
f 91/97/91 66/84/66 79/98/79
f 79/85/79 80/86/80 92/99/92
f 92/99/92 80/86/80 93/100/93
f 80/86/80 81/87/81 93/100/93
f 93/100/93 81/87/81 94/101/94
f 81/87/81 82/88/82 94/101/94
f 94/101/94 82/88/82 95/102/95
f 82/88/82 83/89/83 95/102/95
f 95/102/95 83/89/83 96/103/96
f 83/89/83 84/90/84 96/103/96
f 96/103/96 84/90/84 97/104/97
f 84/90/84 85/91/85 97/104/97
f 97/104/97 85/91/85 98/105/98
f 85/91/85 86/92/86 98/105/98
f 98/105/98 86/92/86 99/106/99
f 86/92/86 87/93/87 99/106/99
f 99/106/99 87/93/87 100/107/100
f 87/93/87 88/94/88 100/107/100
f 100/107/100 88/94/88 101/108/101
f 88/94/88 89/95/89 101/108/101
f 101/108/101 89/95/89 102/109/102
f 89/95/89 90/96/90 102/109/102
f 102/109/102 90/96/90 103/110/103
f 90/96/90 91/97/91 103/110/103
f 103/110/103 91/97/91 104/111/104
f 91/97/91 79/98/79 104/111/104
f 104/111/104 79/98/79 92/112/92
f 92/99/92 93/100/93 105/113/105
f 105/113/105 93/100/93 106/114/106
f 93/100/93 94/101/94 106/114/106
f 106/114/106 94/101/94 107/115/107
f 94/101/94 95/102/95 107/115/107
f 107/115/107 95/102/95 108/116/108
f 95/102/95 96/103/96 108/116/108
f 108/116/108 96/103/96 109/117/109
f 96/103/96 97/104/97 109/117/109
f 109/117/109 97/104/97 110/118/110
f 97/104/97 98/105/98 110/118/110
f 110/118/110 98/105/98 111/119/111
f 98/105/98 99/106/99 111/119/111
f 111/119/111 99/106/99 112/120/112
f 99/106/99 100/107/100 112/120/112
f 112/120/112 100/107/100 113/121/113
f 100/107/100 101/108/101 113/121/113
f 113/121/113 101/108/101 114/122/114
f 101/108/101 102/109/102 114/122/114
f 114/122/114 102/109/102 115/123/115
f 102/109/102 103/110/103 115/123/115
f 115/123/115 103/110/103 116/124/116
f 103/110/103 104/111/104 116/124/116
f 116/124/116 104/111/104 117/125/117
f 104/111/104 92/112/92 117/125/117
f 117/125/117 92/112/92 105/126/105
f 2/2/2 1/1/1 118/127/118
f 3/3/5 2/2/2 118/128/118
f 4/4/7 3/3/5 118/129/118
f 5/5/9 4/4/7 118/130/118
f 6/6/11 5/5/9 118/131/118
f 7/7/13 6/6/11 118/132/118
f 8/8/15 7/7/13 118/133/118
f 9/9/17 8/8/15 118/134/118
f 10/10/19 9/9/17 118/135/118
f 11/11/21 10/10/19 118/136/118
f 12/12/23 11/11/21 118/137/118
f 13/13/25 12/12/23 118/138/118
f 1/14/1 13/13/25 118/139/118
f 105/113/105 106/114/106 119/140/119
f 106/114/106 107/115/107 119/141/119
f 107/115/107 108/116/108 119/142/119
f 108/116/108 109/117/109 119/143/119
f 109/117/109 110/118/110 119/144/119
f 110/118/110 111/119/111 119/145/119
f 111/119/111 112/120/112 119/146/119
f 112/120/112 113/121/113 119/147/119
f 113/121/113 114/122/114 119/148/119
f 114/122/114 115/123/115 119/149/119
f 115/123/115 116/124/116 119/150/119
f 116/124/116 117/125/117 119/151/119
f 117/125/117 105/126/105 119/152/119
