# This file uses centimeters as units for non-parametric coordinates.

v 0.414566 0.458783 0.693184
v -0.038873 0.633372 0.691170
v -0.458782 0.458783 0.690558
v -0.648815 0.000000 0.690558
v -0.458782 -0.458782 0.690558
v -0.000000 -0.648815 0.690558
v 0.458782 -0.458782 0.690558
v 0.607531 -0.036695 0.689862
v 0.281133 0.294239 0.990353
v 0.000000 0.374595 1.016506
v -0.264878 0.264878 1.016506
v -0.374594 0.000000 1.016506
v -0.264878 -0.264877 1.016506
v 0.000000 -0.374594 1.016506
v 0.264878 -0.264877 1.016506
v 0.374594 0.000000 1.016506
v 0.000000 0.000000 1.135811
vt 0.643604 0.354903
vt 0.588523 0.228328
vt 0.668699 0.242975
vt 0.700542 0.316181
vt 0.643500 0.101489
vt 0.700503 0.169636
vt 0.776389 0.048750
vt 0.777343 0.139147
vt 0.909278 0.101060
vt 0.854184 0.169386
vt 0.777356 0.346390
vt 0.765163 0.402909
vt 0.896417 0.354604
vt 0.858789 0.322840
vt 0.952313 0.217567
vt 0.885995 0.242618
vt 0.777697 0.248217
vn -0.541773 0.540400 0.643778
vn -0.760978 0.105069 0.640214
vn -0.445192 0.444600 0.777262
vn -0.597598 -0.064705 0.799181
vn -0.612387 -0.463797 0.640214
vn -0.376812 -0.468319 0.799181
vn -0.105069 -0.760977 0.640214
vn 0.064705 -0.597597 0.799181
vn 0.474667 -0.603039 0.641120
vn 0.481475 -0.373049 0.793106
vn -0.108858 0.771871 0.626391
vn 0.067663 0.619616 0.781984
vn 0.810515 0.007186 0.585674
vn 0.583617 0.010649 0.811959
vn 0.658326 0.490635 0.570863
vn 0.480319 0.653989 0.584459
vn 0.006032 0.006792 0.999959
vn 0.172743 0.298909 0.938516
vn 0.298616 0.178187 0.937592
f 3/1/1 4/2/2 11/4/3
f 11/4/3 4/2/2 12/3/4
f 4/2/2 5/5/5 12/3/4
f 12/3/4 5/5/5 13/6/6
f 5/5/5 6/7/7 13/6/6
f 13/6/6 6/7/7 14/8/8
f 6/7/7 7/9/9 14/8/8
f 14/8/8 7/9/9 15/10/10
f 3/1/1 11/4/3 2/12/11
f 2/12/11 11/4/3 10/11/12
f 7/9/9 8/15/13 15/10/10
f 15/10/10 8/15/13 16/16/14
f 9/14/15 1/13/16 10/11/12
f 10/11/12 1/13/16 2/12/11
f 10/11/12 11/4/3 17/17/17
f 11/4/3 12/3/4 17/17/17
f 12/3/4 13/6/6 17/17/17
f 13/6/6 14/8/8 17/17/17
f 14/8/8 15/10/10 17/17/17
f 15/10/10 16/16/14 17/17/17
f 17/17/17 9/14/18 10/11/12
f 16/16/14 8/15/13 9/14/15
f 9/14/15 8/15/13 1/13/16
f 17/17/17 16/16/14 9/14/19
