# This file uses centimeters as units for non-parametric coordinates.

v 0.041255 0.077551 -0.793860
v -0.044971 0.077551 -0.793860
v -0.088084 0.002877 -0.793860
v -0.044971 -0.071797 -0.793860
v 0.041255 -0.071797 -0.793860
v 0.084368 0.002877 -0.793860
v 0.041255 0.077551 -0.686399
v -0.044971 0.077551 -0.686399
v -0.088084 0.002877 -0.686399
v -0.044971 -0.071797 -0.686399
v 0.041255 -0.071797 -0.686399
v 0.084368 0.002877 -0.686399
v 0.023790 0.041205 -0.688037
v -0.023790 0.041205 -0.688037
v -0.047580 -0.000000 -0.688037
v -0.023790 -0.041205 -0.688037
v 0.023790 -0.041205 -0.688037
v 0.047580 -0.000000 -0.688037
v 0.029635 0.042064 -0.127622
v -0.017945 0.042064 -0.127622
v -0.041735 0.000859 -0.127621
v -0.017945 -0.040347 -0.127622
v 0.029635 -0.040347 -0.127622
v 0.053425 0.000859 -0.127621
v 0.015387 0.037537 0.290234
v -0.028058 0.037537 0.290234
v -0.049780 -0.000087 0.290234
v -0.028058 -0.037712 0.290234
v 0.015387 -0.037712 0.290234
v 0.037109 -0.000087 0.290234
v 0.023790 0.041205 0.767429
v -0.023790 0.041205 0.767429
v -0.047580 -0.000000 0.767429
v -0.023790 -0.041205 0.767429
v 0.023790 -0.041205 0.767429
v 0.047580 -0.000000 0.767429
v 0.045479 0.078772 0.819652
v -0.045479 0.078772 0.819652
v -0.090958 0.000000 0.819652
v -0.045479 -0.078772 0.819652
v 0.045479 -0.078772 0.819652
v 0.090958 0.000000 0.819652
v -0.001858 0.002877 -0.793860
v 0.000000 0.000000 0.889169
v 0.055610 -0.098266 -0.734436
v 0.115523 0.005507 -0.735051
v 0.055610 0.109279 -0.737853
v -0.064217 0.109279 -0.734525
v -0.124130 0.005507 -0.721526
v -0.064217 -0.098266 -0.713936
v -0.036204 -0.056612 -0.793860
v 0.031885 -0.055568 -0.793860
v 0.066317 0.002877 -0.793860
v 0.026796 0.052506 -0.793860
v -0.032919 0.056675 -0.793860
v -0.069211 0.002877 -0.793860
v -0.001026 0.093882 -0.686638
v -0.008085 0.125610 -0.736399
v -0.000791 0.093882 -0.794099
v 0.000162 0.054366 -0.793860
v -0.078763 0.043204 -0.687017
v -0.107473 0.058540 -0.728583
v -0.077606 0.045208 -0.794478
v -0.048096 0.034177 -0.793860
v -0.079592 -0.036184 -0.686215
v -0.109545 -0.044106 -0.718111
v -0.078131 -0.038714 -0.793676
v -0.001542 -0.085815 -0.686640
v -0.002863 -0.112283 -0.725040
v 0.074434 -0.043363 -0.683939
v 0.097562 -0.054634 -0.732291
v 0.078012 0.043449 -0.683604
v 0.100216 0.061583 -0.733668
v 0.037457 0.066558 0.862329
v -0.030876 0.051991 0.862579
v -0.060784 0.000097 0.862580
v -0.033372 -0.056122 0.862505
v 0.037801 -0.066960 0.862319
v 0.064567 0.000097 0.862496
vt 0.264772 0.872889
vt 0.218688 0.872889
vt 0.195646 0.912799
vt 0.218688 0.952709
vt 0.264772 0.952709
vt 0.287814 0.912799
vt 0.036532 0.000453
vt 0.192760 0.000453
vt 0.348989 0.000453
vt 0.505217 0.000453
vt 0.661446 0.000453
vt 0.817675 0.000453
vt 0.973903 0.000453
vt 0.036532 0.141907
vt 0.192760 0.141907
vt 0.348989 0.141907
vt 0.505217 0.141907
vt 0.661446 0.141907
vt 0.817675 0.141907
vt 0.973903 0.141907
vt 0.036532 0.283361
vt 0.192760 0.283361
vt 0.348989 0.283361
vt 0.505217 0.283361
vt 0.661446 0.283361
vt 0.817675 0.283361
vt 0.973903 0.283361
vt 0.036532 0.424815
vt 0.192760 0.424815
vt 0.348989 0.424815
vt 0.505217 0.424815
vt 0.661446 0.424815
vt 0.817675 0.424815
vt 0.973903 0.424815
vt 0.036532 0.566269
vt 0.192760 0.566269
vt 0.348989 0.566269
vt 0.505217 0.566269
vt 0.661446 0.566269
vt 0.817675 0.566269
vt 0.973903 0.566269
vt 0.036532 0.707723
vt 0.192760 0.707723
vt 0.348989 0.707723
vt 0.505217 0.707723
vt 0.661446 0.707723
vt 0.817675 0.707723
vt 0.973903 0.707723
vt 0.036532 0.849177
vt 0.192760 0.849177
vt 0.348989 0.849177
vt 0.505217 0.849177
vt 0.661446 0.849177
vt 0.817675 0.849177
vt 0.973903 0.849177
vt 0.122070 0.882148
vt 0.063987 0.882148
vt 0.034946 0.932449
vt 0.063987 0.982750
vt 0.122070 0.982750
vt 0.151111 0.932449
vt 0.241730 0.910956
vt 0.093029 0.930126
vt 0.661446 0.030212
vt 0.817675 0.029628
vt 0.973903 0.026974
vt 0.036532 0.026974
vt 0.192760 0.030127
vt 0.348989 0.042440
vt 0.505217 0.049629
vt 0.223373 0.944219
vt 0.259764 0.943635
vt 0.278166 0.912413
vt 0.257044 0.885656
vt 0.225129 0.883531
vt 0.205732 0.912396
vt 0.108201 0.141907
vt 0.116023 0.028578
vt 0.107776 0.000453
vt 0.243756 0.872889
vt 0.242809 0.884708
vt 0.268028 0.141907
vt 0.271601 0.036341
vt 0.263835 0.000453
vt 0.208205 0.891046
vt 0.217017 0.895602
vt 0.419300 0.141907
vt 0.415471 0.045499
vt 0.424592 0.000453
vt 0.206796 0.932113
vt 0.587790 0.141907
vt 0.588007 0.039339
vt 0.740926 0.141907
vt 0.741518 0.029912
vt 0.894650 0.141907
vt 0.896407 0.028291
vt 0.109545 0.960055
vt 0.080132 0.953495
vt 0.067258 0.931156
vt 0.079057 0.907044
vt 0.109693 0.902595
vt 0.121215 0.931253
vn -0.575098 0.815180 -0.068870
vn -0.303005 0.491347 0.816557
vn -0.124981 0.991478 0.036749
vn 0.044746 0.446729 0.893550
vn -0.869902 0.482858 0.100592
vn -0.954753 0.063299 0.290585
vn -0.354462 0.184768 0.916634
vn -0.436965 -0.025685 0.899112
vn -0.905963 -0.379769 0.187098
vn -0.525471 -0.798012 0.295055
vn -0.301340 -0.180397 0.936296
vn -0.164683 -0.274870 0.947273
vn 0.500112 -0.864372 0.052433
vn 0.310280 -0.551728 0.774159
vn 0.064152 -0.995749 0.066093
vn -0.005010 -0.402857 0.915250
vn 0.989438 0.014593 0.144223
vn 0.571091 -0.070878 0.817821
vn 0.859341 -0.504354 0.084619
vn 0.297993 -0.180369 0.937373
vn 0.458739 0.888208 0.025398
vn 0.314834 0.460901 0.829729
vn 0.843012 0.537813 -0.009414
vn 0.412782 0.169118 0.894992
vn 0.013415 -0.026606 0.999556
vn -0.045080 -0.028526 0.998576
vn 0.033705 0.007244 0.999406
vn 0.022079 0.030217 0.999300
vn -0.044651 0.031666 0.998501
vn -0.061627 -0.002893 0.998095
vn -0.654637 0.755922 0.005669
vn -0.327315 0.944913 0.002141
vn 0.327312 0.944904 -0.004862
vn 0.654556 0.755929 0.011257
vn -0.999946 0.000004 0.010429
vn -0.999990 0.000007 -0.004412
vn -0.654624 -0.755912 0.007986
vn -0.327305 -0.944918 0.001449
vn 0.327318 -0.944912 -0.001966
vn 0.654565 -0.755930 0.010705
vn 0.999946 -0.000004 -0.010429
vn 0.999898 -0.000013 0.014300
vn 0.327242 0.944932 0.004182
vn -0.654645 0.755927 -0.003805
vn -0.999973 0.000006 -0.007320
vn -0.654633 -0.755928 -0.005377
vn 0.327248 -0.944936 0.002217
vn 0.999964 -0.000012 0.008546
vn -0.327329 0.944901 -0.004336
vn 0.654527 0.755840 -0.017336
vn -0.999989 -0.000000 0.004612
vn -0.327328 -0.944902 -0.003990
vn 0.654530 -0.755844 -0.017059
vn 0.999759 -0.000002 -0.021937
vn 0.507299 0.585781 -0.632066
vn -0.253650 0.732226 -0.632065
vn 0.421398 0.905593 -0.048220
vn -0.583986 0.788848 -0.191515
vn -0.760950 0.146445 -0.632067
vn -0.998994 0.004946 -0.044568
vn -0.507300 -0.585780 -0.632067
vn -0.514668 -0.854124 -0.074757
vn 0.253650 -0.732225 -0.632067
vn 0.563801 -0.823698 -0.060415
vn 0.760950 -0.146446 -0.632067
vn 0.970310 0.108391 -0.216219
vn -0.220104 0.432767 -0.874224
vn 0.042295 0.482267 -0.875003
vn -0.000976 -0.001723 -0.999998
vn 0.000590 -0.002402 -0.999997
vn -0.688645 -0.018273 -0.724869
vn -0.422676 0.265987 -0.866369
vn 0.001828 -0.005585 -0.999983
vn 0.007425 -0.002546 -0.999969
vn -0.186998 -0.484929 -0.854327
vn -0.461249 -0.304047 -0.833549
vn -0.001857 -0.000233 -0.999998
vn 0.303258 -0.552069 -0.776695
vn 0.000001 -0.000001 -1.000000
vn 0.461352 -0.006390 -0.887194
vn 0.000000 0.000002 -1.000000
vn 0.321798 0.338704 -0.884153
vn -0.000000 0.000004 -1.000000
vn 0.311481 0.598257 0.738287
vn -0.404458 0.617059 0.675020
vn -0.031706 0.008875 0.999458
vn -0.682565 -0.080667 0.726359
vn -0.324738 -0.654093 0.683160
vn 0.337205 -0.589800 0.733777
vn 0.776762 0.001707 0.629792
vn -0.000000 0.000002 -1.000000
f 48/68/1 8/15/2 58/78/3
f 58/78/3 8/15/2 57/77/4
f 62/83/5 49/69/6 61/82/7
f 61/82/7 49/69/6 9/16/8
f 66/88/9 50/70/10 65/87/11
f 65/87/11 50/70/10 10/17/12
f 45/64/13 11/18/14 69/92/15
f 69/92/15 11/18/14 68/91/16
f 46/65/17 12/19/18 71/94/19
f 71/94/19 12/19/18 70/93/20
f 47/66/21 7/20/22 73/96/23
f 73/96/23 7/20/22 72/95/24
f 8/15/2 14/22/25 57/77/4
f 57/77/4 14/22/25 13/21/26
f 9/16/8 15/23/27 61/82/7
f 61/82/7 15/23/27 14/22/25
f 65/87/11 10/17/12 16/24/28
f 68/91/16 11/18/14 17/25/29
f 70/93/20 12/19/18 18/26/30
f 72/95/24 7/20/22 13/27/26
f 14/22/31 20/29/32 13/21/33
f 13/21/33 20/29/32 19/28/34
f 15/23/35 21/30/36 14/22/31
f 14/22/31 21/30/36 20/29/32
f 15/23/35 16/24/37 21/30/36
f 21/30/36 16/24/37 22/31/38
f 16/24/37 17/25/39 22/31/38
f 22/31/38 17/25/39 23/32/40
f 17/25/39 18/26/41 23/32/40
f 23/32/40 18/26/41 24/33/42
f 13/27/33 19/34/34 18/26/41
f 18/26/41 19/34/34 24/33/42
f 19/28/34 20/29/32 25/35/43
f 25/35/43 20/29/32 26/36/44
f 20/29/32 21/30/36 26/36/44
f 26/36/44 21/30/36 27/37/45
f 22/31/38 28/38/46 21/30/36
f 21/30/36 28/38/46 27/37/45
f 23/32/40 29/39/47 22/31/38
f 22/31/38 29/39/47 28/38/46
f 24/33/42 30/40/48 23/32/40
f 23/32/40 30/40/48 29/39/47
f 24/33/42 19/34/34 30/40/48
f 30/40/48 19/34/34 25/41/43
f 26/36/44 32/43/49 25/35/43
f 25/35/43 32/43/49 31/42/50
f 27/37/45 33/44/51 26/36/44
f 26/36/44 33/44/51 32/43/49
f 27/37/45 28/38/46 33/44/51
f 33/44/51 28/38/46 34/45/52
f 28/38/46 29/39/47 34/45/52
f 34/45/52 29/39/47 35/46/53
f 29/39/47 30/40/48 35/46/53
f 35/46/53 30/40/48 36/47/54
f 25/41/43 31/48/50 30/40/48
f 30/40/48 31/48/50 36/47/54
f 31/42/55 32/43/56 37/49/57
f 37/49/57 32/43/56 38/50/58
f 32/43/56 33/44/59 38/50/58
f 38/50/58 33/44/59 39/51/60
f 33/44/59 34/45/61 39/51/60
f 39/51/60 34/45/61 40/52/62
f 34/45/61 35/46/63 40/52/62
f 40/52/62 35/46/63 41/53/64
f 35/46/63 36/47/65 41/53/64
f 41/53/64 36/47/65 42/54/66
f 36/47/65 31/48/55 42/54/66
f 42/54/66 31/48/55 37/55/57
f 2/2/67 59/80/68 55/75/69
f 55/75/69 59/80/68 60/81/70
f 3/3/71 63/85/72 56/76/73
f 56/76/73 63/85/72 64/86/74
f 4/4/75 67/90/76 51/71/77
f 51/71/77 67/90/76 56/76/73
f 5/5/78 4/4/75 52/72/79
f 52/72/79 4/4/75 51/71/77
f 5/5/78 52/72/79 6/6/80
f 6/6/80 52/72/79 53/73/81
f 1/1/82 6/6/80 54/74/83
f 54/74/83 6/6/80 53/73/81
f 74/97/84 75/98/85 44/63/86
f 75/98/85 76/99/87 44/63/86
f 76/99/87 77/100/88 44/63/86
f 77/100/88 78/101/89 44/63/86
f 78/101/89 79/102/90 44/63/86
f 79/102/90 74/97/84 44/63/86
f 71/94/19 6/12/80 46/65/17
f 73/96/23 1/13/82 47/66/21
f 59/79/68 2/8/67 58/78/3
f 58/78/3 2/8/67 48/68/1
f 63/84/72 3/9/71 62/83/5
f 62/83/5 3/9/71 49/69/6
f 4/10/75 50/70/10 67/89/76
f 67/89/76 50/70/10 66/88/9
f 69/92/15 5/11/78 45/64/13
f 52/72/79 51/71/77 43/62/91
f 53/73/81 52/72/79 43/62/91
f 54/74/83 53/73/81 43/62/91
f 55/75/69 60/81/70 43/62/91
f 56/76/73 64/86/74 43/62/91
f 51/71/77 56/76/73 43/62/91
f 7/14/22 57/77/4 13/21/26
f 58/78/3 57/77/4 47/67/21
f 47/67/21 57/77/4 7/14/22
f 1/7/82 59/79/68 47/67/21
f 47/67/21 59/79/68 58/78/3
f 59/80/68 1/1/82 60/81/70
f 60/81/70 1/1/82 54/74/83
f 43/62/91 60/81/70 54/74/83
f 8/15/2 61/82/7 14/22/25
f 48/68/1 62/83/5 8/15/2
f 8/15/2 62/83/5 61/82/7
f 2/8/67 63/84/72 48/68/1
f 48/68/1 63/84/72 62/83/5
f 63/85/72 2/2/67 64/86/74
f 64/86/74 2/2/67 55/75/69
f 43/62/91 64/86/74 55/75/69
f 9/16/8 65/87/11 15/23/27
f 15/23/27 65/87/11 16/24/28
f 49/69/6 66/88/9 9/16/8
f 9/16/8 66/88/9 65/87/11
f 67/89/76 66/88/9 3/9/71
f 3/9/71 66/88/9 49/69/6
f 56/76/73 67/90/76 3/3/71
f 10/17/12 68/91/16 16/24/28
f 16/24/28 68/91/16 17/25/29
f 69/92/15 68/91/16 50/70/10
f 50/70/10 68/91/16 10/17/12
f 5/11/78 69/92/15 4/10/75
f 4/10/75 69/92/15 50/70/10
f 11/18/14 70/93/20 17/25/29
f 17/25/29 70/93/20 18/26/30
f 45/64/13 71/94/19 11/18/14
f 11/18/14 71/94/19 70/93/20
f 6/12/80 71/94/19 5/11/78
f 5/11/78 71/94/19 45/64/13
f 12/19/18 72/95/24 18/26/30
f 18/26/30 72/95/24 13/27/26
f 73/96/23 72/95/24 46/65/17
f 46/65/17 72/95/24 12/19/18
f 1/13/82 73/96/23 6/12/80
f 6/12/80 73/96/23 46/65/17
f 38/59/58 75/98/85 37/60/57
f 37/60/57 75/98/85 74/97/84
f 38/59/58 39/58/60 75/98/85
f 75/98/85 39/58/60 76/99/87
f 39/58/60 40/57/62 76/99/87
f 76/99/87 40/57/62 77/100/88
f 40/57/62 41/56/64 77/100/88
f 77/100/88 41/56/64 78/101/89
f 42/61/66 79/102/90 41/56/64
f 41/56/64 79/102/90 78/101/89
f 42/61/66 37/60/57 79/102/90
f 79/102/90 37/60/57 74/97/84
