# This file uses centimeters as units for non-parametric coordinates.

v 0.090168 -0.091720 -0.057041
v 0.044144 -0.038054 0.034273
v 0.061500 -0.052048 0.128441
v -0.002185 -0.104856 -0.052125
v 0.001237 -0.041794 0.032523
v -0.005197 -0.060383 0.129144
v -0.093161 -0.071277 -0.058774
v -0.034068 -0.022481 0.031735
v -0.066432 -0.038132 0.129640
v -0.118189 0.013782 -0.056733
v -0.043698 0.013469 0.031856
v -0.068058 0.013582 0.129459
v -0.061108 0.094821 -0.054573
v -0.025843 0.059397 0.038479
v -0.061093 0.062236 0.128862
v 0.024680 0.116382 -0.054428
v 0.018772 0.069779 0.016212
v 0.018092 0.070020 0.126851
v 0.110149 0.072677 -0.053531
v 0.052523 0.051422 0.039691
v 0.084548 0.047211 0.127878
v 0.130160 -0.013238 -0.054933
v 0.063528 0.001683 0.033648
v 0.081041 -0.003936 0.127949
v 0.005582 0.004910 0.127641
v 0.007514 0.002439 -0.143060
v -0.013663 0.103802 0.068996
v -0.052390 0.104794 0.128503
v 0.022334 0.152713 0.100848
v 0.025862 0.130970 0.040668
v 0.088557 0.089770 0.127519
v 0.059682 0.095836 0.070548
v 0.091949 -0.011146 -0.112352
v 0.019149 0.089365 -0.110111
v 0.012155 -0.079474 -0.113572
v -0.075852 0.009244 -0.109752
v -0.044344 -0.051268 -0.111783
v 0.066133 -0.054628 -0.112976
v 0.071826 0.047765 -0.110808
v -0.038895 0.077288 -0.108416
v 0.020085 0.096493 0.126685
v 0.063485 -0.063853 -0.059202
v -0.007302 -0.073755 -0.058024
v -0.074963 -0.046792 -0.064754
v 0.081900 0.058186 -0.061027
v 0.091770 -0.004579 -0.058642
v -0.077284 0.015991 -0.062521
v -0.056389 0.074756 -0.058042
v 0.017511 0.090685 -0.059041
vt 0.560861 0.359540
vt 0.563004 0.359222
vt 0.554201 0.359208
vt 0.553135 0.359538
vt 0.545608 0.358948
vt 0.545954 0.359324
vt 0.554446 0.390669
vt 0.564306 0.387179
vt 0.561420 0.387564
vt 0.555216 0.387820
vt 0.548570 0.387426
vt 0.544723 0.386770
vt 0.555553 0.386222
vt 0.561807 0.386586
vt 0.548822 0.386123
vt 0.551677 0.365275
vt 0.547157 0.358352
vt 0.555735 0.361185
vt 0.556211 0.368359
vt 0.560252 0.365138
vt 0.563631 0.358548
vt 0.563276 0.358836
vt 0.555473 0.358795
vt 0.546271 0.358641
vt 0.555631 0.358610
vt 0.560957 0.370134
vt 0.559540 0.369063
vt 0.562950 0.380719
vt 0.564265 0.380893
vt 0.568754 0.380516
vt 0.566204 0.379736
vt 0.564307 0.381335
vt 0.546788 0.380284
vt 0.555356 0.380268
vt 0.556119 0.379543
vt 0.546177 0.379736
vt 0.548447 0.370280
vt 0.550389 0.369163
vt 0.555558 0.371665
vt 0.558811 0.370362
vt 0.553834 0.370603
vt 0.549673 0.370559
vt 0.561134 0.381391
vt 0.552938 0.381342
vt 0.553620 0.380881
vt 0.542957 0.381430
vt 0.544996 0.381944
vt 0.544534 0.381234
vt 0.539780 0.380586
vn -0.002749 0.011347 0.999932
vn 0.002536 0.016535 0.999860
vn 0.002536 0.016535 0.999860
vn 0.007822 0.021722 0.999733
vn 0.015538 0.020446 0.999670
vn 0.020366 0.012371 0.999716
vn 0.020366 0.012371 0.999716
vn 0.025192 0.004295 0.999673
vn 0.339949 -0.012760 -0.940357
vn 0.237709 -0.250566 -0.938462
vn 0.005508 0.003891 -0.999977
vn -0.019966 -0.339650 -0.940340
vn -0.290925 -0.255953 -0.921874
vn -0.369468 0.020948 -0.929007
vn 0.068403 0.345593 -0.935888
vn 0.299885 0.232794 -0.925136
vn -0.228055 0.288954 -0.929783
vn -0.595052 0.697712 -0.398888
vn -0.635773 0.691396 -0.343169
vn -0.635773 0.691396 -0.343169
vn -0.673440 0.681759 -0.285802
vn 0.778789 0.603165 -0.172280
vn 0.750251 0.617921 -0.235153
vn 0.750251 0.617921 -0.235153
vn 0.717973 0.629597 -0.296854
vn -0.003887 0.001647 0.999991
vn -0.007237 0.007903 0.999943
vn -0.007237 0.007903 0.999943
vn -0.010588 0.014159 0.999844
vn 0.024655 0.007385 0.999669
vn 0.025176 0.007992 0.999651
vn 0.025176 0.007992 0.999651
vn 0.025698 0.008598 0.999633
vn 0.025056 0.003307 0.999681
vn 0.025316 0.003833 0.999672
vn 0.025316 0.003833 0.999672
vn 0.025575 0.004359 0.999663
vn -0.012161 0.009578 0.999880
vn -0.011821 0.008364 0.999895
vn -0.011821 0.008364 0.999895
vn -0.011480 0.007150 0.999909
vn 0.070209 0.414226 0.907462
vn 0.070209 0.414226 0.907462
vn 0.070209 0.414226 0.907462
vn 0.029814 0.416406 0.908690
vn 0.029814 0.416406 0.908690
vn 0.029814 0.416406 0.908690
vn 0.889618 0.410065 -0.201063
vn 0.942991 0.043021 -0.330026
vn 0.997680 -0.061587 0.029008
vn 0.934335 -0.293827 -0.201702
vn -0.147562 -0.136193 0.979631
vn -0.150115 -0.003712 0.988662
vn 0.334844 0.321789 0.885625
vn 0.956669 -0.108602 0.270168
vn 0.790475 0.239574 -0.563696
vn 0.828637 -0.078296 -0.554284
vn 0.512953 -0.834243 0.202284
vn 0.743915 -0.399148 -0.535976
vn 0.104045 -0.145618 0.983855
vn 0.013966 -0.170400 0.985276
vn -0.413887 0.392759 0.821242
vn 0.131303 0.908261 0.397268
vn 0.474637 0.730077 -0.491637
vn 0.198775 0.873838 -0.443729
vn -0.210812 0.892743 -0.398208
vn -0.962219 -0.049674 -0.267706
vn -0.881969 0.289596 -0.371840
vn -0.993324 0.111769 0.028550
vn -0.747511 0.635568 -0.193083
vn -0.838130 0.315528 -0.444949
vn -0.825500 0.164268 -0.539968
vn -0.586976 0.466729 -0.661531
vn 0.134512 0.938099 -0.319182
vn -0.690254 0.336080 -0.640781
vn 0.884804 -0.087201 -0.457731
vn 0.916720 -0.002253 -0.399525
vn 0.705001 0.264943 -0.657859
vn 0.746046 0.170801 -0.643616
vn 0.129077 0.956005 0.263427
vn -0.610995 0.723017 0.322384
vn 0.759432 0.591142 0.271690
vn 0.925475 -0.232277 0.299238
vn 0.581323 -0.811060 0.065150
vn 0.589435 -0.776143 -0.223983
vn -0.151891 -0.966302 -0.207823
vn -0.206484 -0.975492 0.076028
vn -0.797976 -0.599397 0.062910
vn -0.758279 -0.556480 -0.339622
vn -0.004772 0.203085 0.979150
vn -0.199630 -0.766163 0.610854
vn -0.033215 0.085181 0.995812
vn -0.719601 -0.429674 0.545485
vn 0.131557 0.087286 0.987458
vn 0.011833 -0.867325 -0.497601
vn 0.334838 -0.712640 -0.616464
vn -0.337111 -0.806305 -0.486032
vn 0.149329 -0.096859 0.984032
vn -0.451736 0.081149 0.888453
vn -0.769305 0.105662 -0.630084
vn -0.638678 -0.308897 -0.704750
vn -0.776226 0.430632 -0.460466
vn -0.736919 -0.512027 0.441338
vn -0.933668 0.000009 0.358139
vn 0.559403 -0.762065 0.326075
vn -0.162837 -0.924931 0.343493
f 24/2/1 25/3/2 3/1/3
f 3/1/3 25/3/2 6/4/4
f 6/4/5 25/3/6 9/6/7
f 9/6/7 25/3/6 12/5/8
f 33/8/9 38/9/10 26/7/11
f 26/7/11 38/9/10 35/10/12
f 35/10/12 37/11/13 26/7/11
f 26/7/11 37/11/13 36/12/14
f 34/13/15 39/14/16 26/7/11
f 26/7/11 39/14/16 33/8/9
f 36/12/14 40/15/17 26/7/11
f 26/7/11 40/15/17 34/13/15
f 28/17/18 29/18/19 27/16/20
f 27/16/20 29/18/19 30/19/21
f 30/19/22 29/18/23 32/20/24
f 32/20/24 29/18/23 31/21/25
f 24/2/26 21/22/27 25/3/28
f 25/3/28 21/22/27 18/23/29
f 18/23/30 15/24/31 25/3/32
f 25/3/32 15/24/31 12/5/33
f 15/24/34 18/23/35 28/17/36
f 28/17/36 18/23/35 41/25/37
f 21/22/38 31/21/39 18/23/40
f 18/23/40 31/21/39 41/25/41
f 28/17/42 41/25/43 29/18/44
f 41/25/45 31/21/46 29/18/47
f 20/27/48 21/22/49 23/26/50
f 23/26/50 21/22/49 24/2/51
f 45/28/52 46/29/53 19/31/54
f 19/31/54 46/29/53 22/30/55
f 19/31/54 22/30/55 39/14/56
f 39/14/56 22/30/55 33/8/57
f 1/32/58 38/9/59 22/30/55
f 22/30/55 38/9/59 33/8/57
f 48/33/60 49/34/61 13/36/62
f 13/36/62 49/34/61 16/35/63
f 49/34/61 45/28/52 16/35/63
f 16/35/63 45/28/52 19/31/54
f 19/31/54 39/14/64 16/35/63
f 16/35/63 39/14/64 34/13/65
f 13/36/62 16/35/63 40/15/66
f 40/15/66 16/35/63 34/13/65
f 12/5/67 15/24/68 11/37/69
f 11/37/69 15/24/68 14/38/70
f 14/38/70 15/24/68 27/16/71
f 27/16/71 15/24/68 28/17/72
f 14/38/70 27/16/73 17/39/74
f 17/39/74 27/16/73 30/19/75
f 31/21/76 21/22/49 32/20/77
f 32/20/77 21/22/49 20/27/48
f 20/27/48 17/39/74 32/20/78
f 32/20/78 17/39/74 30/19/79
f 49/34/80 48/33/81 17/39/74
f 17/39/74 48/33/81 14/38/70
f 49/34/80 17/39/74 45/28/82
f 45/28/82 17/39/74 20/27/48
f 46/29/83 45/28/82 23/26/50
f 23/26/50 45/28/82 20/27/48
f 23/26/50 24/2/51 2/40/84
f 2/40/84 24/2/51 3/1/85
f 3/1/85 6/4/86 2/40/84
f 2/40/84 6/4/86 5/41/87
f 5/41/87 6/4/86 8/42/88
f 8/42/88 6/4/86 9/6/89
f 11/37/69 8/42/88 12/5/67
f 12/5/67 8/42/88 9/6/89
f 43/44/90 4/45/91 42/43/92
f 42/43/92 4/45/91 1/32/58
f 4/45/91 43/44/90 7/46/93
f 7/46/93 43/44/90 44/47/94
f 4/45/91 35/10/95 1/32/58
f 1/32/58 35/10/95 38/9/96
f 7/46/93 37/11/97 4/45/91
f 4/45/91 37/11/97 35/10/95
f 46/29/53 42/43/92 22/30/55
f 22/30/55 42/43/92 1/32/58
f 48/33/60 13/36/62 47/48/98
f 47/48/98 13/36/62 10/49/99
f 47/48/98 10/49/99 44/47/94
f 44/47/94 10/49/99 7/46/93
f 10/49/99 36/12/100 7/46/93
f 7/46/93 36/12/100 37/11/101
f 10/49/99 13/36/62 36/12/100
f 36/12/100 13/36/62 40/15/102
f 44/47/103 8/42/88 47/48/104
f 47/48/104 8/42/88 11/37/69
f 47/48/104 11/37/69 48/33/81
f 48/33/81 11/37/69 14/38/70
f 42/43/105 46/29/83 2/40/84
f 2/40/84 46/29/83 23/26/50
f 42/43/105 2/40/84 43/44/106
f 43/44/106 2/40/84 5/41/87
f 44/47/103 43/44/106 8/42/88
f 8/42/88 43/44/106 5/41/87
