# This file uses centimeters as units for non-parametric coordinates.

v 0.062215 -0.246256 0.001435
v 0.023764 -0.246256 -0.026501
v -0.023764 -0.246256 -0.026501
v -0.062215 -0.246256 0.001435
v -0.076902 -0.246256 0.046637
v -0.062215 -0.246256 0.091838
v -0.023764 -0.246256 0.119775
v 0.023764 -0.246256 0.119775
v 0.062215 -0.246256 0.091838
v 0.076902 -0.246256 0.046637
v 0.114958 -0.202695 -0.036885
v 0.043910 -0.202695 -0.088504
v -0.043910 -0.202695 -0.088504
v -0.114958 -0.202695 -0.036885
v -0.142095 -0.202695 0.046637
v -0.114958 -0.202695 0.130159
v -0.043910 -0.202695 0.181778
v 0.043910 -0.202695 0.181777
v 0.114958 -0.202695 0.130159
v 0.142095 -0.202695 0.046637
v 0.150199 -0.137501 -0.062489
v 0.057371 -0.137501 -0.129933
v -0.057371 -0.137501 -0.129933
v -0.150199 -0.137501 -0.062489
v -0.185657 -0.137501 0.046637
v -0.150199 -0.137501 0.155763
v -0.057371 -0.137501 0.223206
v 0.057371 -0.137501 0.223206
v 0.150199 -0.137501 0.155763
v 0.185656 -0.137501 0.046637
v 0.162575 -0.060600 -0.071481
v 0.062098 -0.060600 -0.144481
v -0.062098 -0.060600 -0.144481
v -0.162575 -0.060600 -0.071481
v -0.201144 -0.059724 0.046704
v -0.162892 -0.059274 0.164872
v -0.062123 -0.060395 0.237763
v 0.062088 -0.060600 0.237755
v 0.161729 -0.060600 0.164858
v 0.200948 -0.060600 0.046637
v 0.150199 0.016302 -0.062489
v 0.057371 0.016302 -0.129933
v -0.057371 0.016302 -0.129933
v -0.150364 0.017060 -0.062432
v -0.187295 0.023747 0.047217
v -0.152525 0.026457 0.156617
v -0.072048 0.020203 0.249864
v 0.072704 0.009150 0.249732
v 0.147773 0.016302 0.156061
v 0.185232 0.016302 0.046689
v 0.113559 0.069551 -0.036496
v 0.042714 0.073863 -0.088214
v -0.044905 0.079785 -0.088340
v -0.116132 0.086434 -0.036719
v -0.144719 0.095516 0.047276
v -0.118415 0.097987 0.131104
v -0.046287 0.090160 0.182340
v 0.041865 0.078378 0.182185
v 0.111746 0.071117 0.130748
v 0.140171 0.068496 0.047110
v -0.000000 -0.261554 0.046637
v 0.181017 0.046888 -0.086192
v 0.067797 0.053780 -0.168846
v -0.072233 0.063244 -0.169046
v -0.186003 0.073596 -0.086569
v -0.232351 0.091201 0.047898
v -0.190420 0.094451 0.181928
v -0.074250 0.078370 0.263469
v 0.066715 0.059319 0.263216
v 0.177253 0.049365 0.181193
v 0.223630 0.045202 0.047412
v 0.199955 0.065354 -0.099158
v 0.075870 0.072907 -0.189745
v -0.077598 0.083280 -0.189964
v -0.202191 0.094180 -0.099606
v -0.252824 0.112785 0.047707
v -0.206777 0.115799 0.194567
v -0.079605 0.098892 0.283984
v 0.074855 0.078680 0.283753
v 0.195973 0.068068 0.193869
v 0.246789 0.063506 0.047251
v 0.181090 0.099991 -0.084123
v 0.070017 0.106678 -0.165189
v -0.067325 0.115961 -0.165386
v -0.178906 0.126085 -0.084494
v -0.224247 0.142822 0.047352
v -0.183056 0.146136 0.178784
v -0.069167 0.132254 0.258835
v 0.068909 0.112819 0.258603
v 0.177394 0.102726 0.178152
v 0.222907 0.098337 0.046914
v 0.103528 0.166118 -0.023903
v 0.043243 0.169388 -0.067109
v -0.030960 0.169761 -0.067251
v -0.086704 0.172355 -0.024779
v -0.107652 0.174461 0.044799
v -0.084484 0.174016 0.114706
v -0.025507 0.172131 0.158147
v 0.042932 0.170971 0.159241
v 0.099380 0.167567 0.116619
v 0.124008 0.161779 0.046320
v 0.111244 0.219928 -0.025708
v 0.050302 0.225861 -0.069676
v 0.057415 0.340043 -0.058270
v 0.109835 0.335363 -0.019069
v -0.024056 0.220706 -0.070193
v -0.004455 0.332941 -0.059411
v -0.075567 0.220685 -0.027864
v -0.047227 0.327525 -0.022490
v -0.095067 0.220640 0.042515
v -0.063648 0.326449 0.039733
v -0.072819 0.217868 0.113716
v -0.044706 0.323718 0.102952
v -0.016432 0.217350 0.158548
v -0.000025 0.322137 0.143363
v 0.049674 0.220873 0.160416
v 0.055264 0.325299 0.145513
v 0.104719 0.217837 0.117486
v 0.102659 0.326161 0.107843
v 0.130319 0.212176 0.045909
v 0.125100 0.325699 0.044573
v 0.025112 0.329640 0.042462
v -0.013165 0.277560 0.173072
v -0.073704 0.280013 0.121603
v -0.097182 0.283899 0.040350
v -0.076159 0.284519 -0.039531
v -0.021120 0.285926 -0.087160
v 0.062486 0.294073 -0.086373
v 0.131877 0.287437 -0.036345
v 0.152550 0.276244 0.045251
v 0.122237 0.280835 0.126814
v 0.059804 0.283333 0.175575
v -0.008577 0.308780 0.166482
v -0.064515 0.311642 0.117229
v -0.087380 0.315078 0.039825
v -0.067368 0.315549 -0.036334
v -0.015376 0.318284 -0.081624
v 0.063318 0.326845 -0.080691
v 0.129066 0.321046 -0.032945
v 0.148450 0.309675 0.044853
v 0.119706 0.312314 0.122532
v 0.060595 0.313668 0.168904
v -0.035844 0.146985 0.172971
v -0.103629 0.151396 0.124618
v -0.129280 0.150174 0.046048
v -0.104146 0.144816 -0.032446
v -0.038197 0.139883 -0.080731
v 0.044480 0.135294 -0.080630
v 0.111823 0.132927 -0.032081
v 0.136067 0.130105 0.046570
v 0.108774 0.135368 0.125371
v 0.044000 0.139993 0.173465
v 0.006410 -0.136311 0.223012
v 0.054011 -0.092078 0.223396
v 0.006976 -0.044713 0.223622
v -0.046191 -0.092116 0.223208
v 0.008805 -0.135529 0.355404
v 0.037680 -0.108401 0.355640
v 0.009167 -0.078895 0.355557
v -0.024377 -0.108422 0.355302
v 0.008546 -0.095540 0.488744
v -0.032334 -0.054341 0.222866
v 0.048362 -0.053276 0.214026
v -0.060933 -0.039049 0.233878
v -0.119978 0.025039 0.179731
v -0.019635 0.019787 0.223348
v -0.050537 0.062837 0.198976
v 0.120685 0.016302 0.175977
v 0.059929 -0.027890 0.231586
v 0.051484 0.042761 0.207373
v 0.036645 0.017693 0.223283
v 0.107527 -0.021996 0.204991
v -0.107671 -0.021898 0.202927
v -0.098879 0.056931 0.191378
v 0.086432 0.039439 0.198689
v -0.036004 0.019937 0.240041
v -0.064882 -0.017974 0.244025
v -0.058608 0.048005 0.233409
v -0.093350 -0.004778 0.235355
v -0.090944 0.046692 0.228970
v -0.102187 0.024016 0.227597
v 0.094892 -0.010757 0.234959
v 0.105571 0.013963 0.224085
v 0.049400 0.014676 0.240530
v 0.058619 0.031573 0.235107
v 0.065043 -0.013187 0.243619
v 0.082408 0.030552 0.231257
vt 0.760176 0.614146
vt 0.782924 0.616345
vt 0.222025 0.805281
vt 0.335790 0.785192
vt 0.778759 0.621891
vt 0.194829 0.601079
vt 0.213936 0.601549
vt 0.190093 0.621987
vt 0.174451 0.620494
vt 0.740306 0.611445
vt 0.807580 0.618388
vt 0.808147 0.626094
vt 0.732946 0.611478
vt 0.724220 0.615665
vt 0.703094 0.610172
vt 0.682739 0.616532
vt 0.234195 0.600615
vt 0.224485 0.618769
vt 0.259865 0.599760
vt 0.272028 0.617189
vt 0.692469 0.609378
vt 0.660183 0.612779
vt 0.155130 0.810201
vt 0.828368 0.626572
vt 0.783467 0.658163
vt 0.829201 0.664988
vt 0.714312 0.650362
vt 0.281070 0.599314
vt 0.311250 0.616322
vt 0.305079 0.599823
vt 0.337218 0.614997
vt 0.664068 0.646772
vt 0.641854 0.645063
vt 0.850852 0.667305
vt 0.781638 0.704782
vt 0.839776 0.712303
vt 0.706833 0.696330
vt 0.657196 0.692150
vt 0.178613 0.654617
vt 0.159556 0.655448
vt 0.217605 0.654047
vt 0.279821 0.651983
vt 0.630990 0.685421
vt 0.856321 0.715102
vt 0.773765 0.745812
vt 0.818647 0.754434
vt 0.710503 0.739119
vt 0.662371 0.725483
vt 0.633745 0.709980
vt 0.331100 0.650765
vt 0.358839 0.650481
vt 0.168177 0.696954
vt 0.149179 0.697035
vt 0.838521 0.757854
vt 0.763605 0.765977
vt 0.805841 0.773061
vt 0.713097 0.759746
vt 0.665699 0.755727
vt 0.647949 0.748750
vt 0.819407 0.775971
vt 0.216144 0.695773
vt 0.283524 0.693544
vt 0.339040 0.692116
vt 0.361309 0.692034
vt 0.777359 0.878277
vt 0.744906 0.874802
vt 0.743048 0.911959
vt 0.776440 0.920660
vt 0.699765 0.869672
vt 0.695136 0.905895
vt 0.661509 0.866186
vt 0.176754 0.734224
vt 0.152851 0.733356
vt 0.213492 0.735031
vt 0.291844 0.731513
vt 0.650163 0.903527
vt 0.642826 0.852386
vt 0.206646 0.816674
vt 0.626050 0.902838
vt 0.794872 0.882924
vt 0.784299 0.917463
vt 0.333829 0.734003
vt 0.348042 0.731130
vt 0.180976 0.761669
vt 0.165624 0.758797
vt 0.229524 0.768182
vt 0.368746 0.781173
vt 0.283630 0.797944
vt 0.747334 0.957339
vt 0.726887 0.946449
vt 0.706021 0.946429
vt 0.277071 0.771123
vt 0.320887 0.754169
vt 0.341113 0.743015
vt 0.201203 0.853493
vt 0.214514 0.849765
vt 0.692705 0.940583
vt 0.660009 0.937894
vt 0.646829 0.939157
vt 0.750877 0.959710
vt 0.778984 0.780145
vt 0.830611 0.787080
vt 0.223403 0.890765
vt 0.208133 0.891054
vt 0.240033 0.848730
vt 0.247886 0.890613
vt 0.694540 0.770580
vt 0.657369 0.759409
vt 0.640987 0.755551
vt 0.866543 0.793506
vt 0.778585 0.793651
vt 0.845764 0.801466
vt 0.687693 0.786339
vt 0.284985 0.845529
vt 0.293565 0.889109
vt 0.316853 0.838420
vt 0.331546 0.888167
vt 0.644162 0.765857
vt 0.626170 0.760554
vt 0.871190 0.802980
vt 0.774463 0.811982
vt 0.830923 0.814783
vt 0.691632 0.802591
vt 0.631912 0.782764
vt 0.338219 0.827452
vt 0.360003 0.883413
vt 0.247615 0.599717
vt 0.232002 0.920699
vt 0.615989 0.784309
vt 0.851932 0.820149
vt 0.753109 0.826348
vt 0.786072 0.829553
vt 0.703302 0.820697
vt 0.653244 0.802400
vt 0.639404 0.796388
vt 0.241884 0.920540
vt 0.283995 0.927250
vt 0.262650 0.919415
vt 0.290598 0.922376
vt 0.798792 0.832395
vt 0.782258 0.849120
vt 0.747854 0.844418
vt 0.703459 0.839379
vt 0.665842 0.835905
vt 0.653450 0.814384
vt 0.793565 0.851699
vt 0.308645 0.923198
vt 0.321739 0.925749
vt 0.156200 0.776161
vt 0.132567 0.773487
vt 0.628037 0.924491
vt 0.650025 0.925659
vt 0.216899 0.773186
vt 0.280728 0.776308
vt 0.691521 0.929342
vt 0.733622 0.937864
vt 0.765722 0.944494
vt 0.772292 0.948162
vt 0.294689 0.910912
vt 0.323476 0.907983
vt 0.343351 0.903912
vt 0.331942 0.758315
vt 0.367834 0.730517
vt 0.154805 0.792952
vt 0.138098 0.796723
vt 0.218766 0.911640
vt 0.230895 0.913949
vt 0.257931 0.910091
vt 0.332867 0.811308
vt 0.313223 0.817318
vt 0.278908 0.822864
vt 0.238386 0.826796
vt 0.215090 0.791915
vt 0.286675 0.787288
vt 0.334022 0.759622
vt 0.370976 0.773888
vt 0.210698 0.825963
vt 0.201634 0.826379
vt 0.330238 0.804902
vt 0.313676 0.802724
vt 0.276836 0.812124
vt 0.234425 0.812089
vt 0.197391 0.819815
vt 0.178637 0.808566
vt 0.454130 0.635448
vt 0.458660 0.651683
vt 0.460941 0.669675
vt 0.460647 0.652993
vt 0.516422 0.646983
vt 0.515277 0.636663
vt 0.516672 0.657419
vt 0.515393 0.646155
vt 0.557625 0.636775
vt 0.460049 0.662634
vt 0.460795 0.661348
vt 0.217271 0.706986
vt 0.191807 0.735347
vt 0.236343 0.734451
vt 0.225801 0.755739
vt 0.283112 0.711358
vt 0.318652 0.734424
vt 0.280443 0.749172
vt 0.272082 0.731690
vt 0.311028 0.713378
vt 0.198048 0.722107
vt 0.203547 0.751286
vt 0.299542 0.747264
vt 0.226260 0.735656
vt 0.215892 0.717215
vt 0.221249 0.748082
vt 0.202170 0.724340
vt 0.206500 0.746459
vt 0.199891 0.735229
vt 0.310187 0.733505
vt 0.304048 0.719976
vt 0.279551 0.732231
vt 0.284277 0.743234
vt 0.286584 0.719371
vt 0.297251 0.742576
vn 0.363625 -0.900869 -0.237091
vn 0.154820 -0.900869 -0.405543
vn 0.609591 -0.674319 -0.416764
vn 0.248200 -0.674317 -0.695480
vn -0.113121 -0.900870 -0.419092
vn -0.207995 -0.674317 -0.708544
vn -0.337853 -0.900869 -0.272563
vn -0.584744 -0.674317 -0.450966
vn -0.433540 -0.900868 -0.021921
vn -0.738137 -0.674320 -0.021138
vn -0.363625 -0.900869 0.237091
vn -0.609591 -0.674318 0.416766
vn -0.154820 -0.900869 0.405545
vn -0.248199 -0.674317 0.695481
vn 0.113122 -0.900868 0.419094
vn 0.207993 -0.674318 0.708544
vn 0.337853 -0.900869 0.272563
vn 0.584744 -0.674317 0.450967
vn 0.433540 -0.900868 0.021921
vn 0.738137 -0.674320 0.021138
vn 0.762179 -0.360151 -0.537935
vn 0.300417 -0.360150 -0.883200
vn -0.276086 -0.360150 -0.891105
vn -0.747134 -0.360157 -0.558639
vn -0.933106 -0.359384 -0.012535
vn -0.760403 -0.356866 0.542617
vn -0.291598 -0.359856 0.886270
vn 0.285344 -0.359916 0.888279
vn 0.753581 -0.357046 0.551938
vn 0.931932 -0.362540 0.008200
vn 0.811286 0.002361 -0.584645
vn 0.309014 0.000000 -0.951057
vn -0.309015 -0.000000 -0.951057
vn -0.808799 -0.001106 -0.588084
vn -0.999965 -0.008075 -0.002147
vn 0.999961 0.005532 0.006878
vn 0.742800 0.386784 -0.546485
vn 0.276096 0.379004 -0.883248
vn -0.297244 0.364206 -0.882610
vn -0.760995 0.343110 -0.550601
vn -0.946216 0.323478 -0.006019
vn 0.611551 0.637839 -0.468153
vn 0.232871 0.599825 -0.765494
vn -0.268751 0.555469 -0.786910
vn -0.687944 0.519261 -0.507052
vn -0.860731 0.508969 -0.009675
vn 0.787354 -0.248205 -0.564330
vn 0.306451 -0.204212 -0.929723
vn 0.802705 -0.172219 -0.570969
vn 0.321548 -0.134561 -0.937283
vn -0.314832 -0.129102 -0.940326
vn -0.301835 -0.088118 -0.949279
vn -0.846569 0.004878 -0.532257
vn -0.849075 0.018019 -0.527964
vn -0.996194 0.085191 0.018413
vn -0.996752 0.079101 0.015142
vn -0.822054 0.044726 0.567650
vn -0.833586 0.051758 0.549960
vn -0.359789 -0.086132 0.929050
vn -0.360246 -0.056755 0.931129
vn 0.313123 -0.187936 0.930932
vn 0.324791 -0.112916 0.939021
vn 0.790860 -0.221190 0.570628
vn 0.800522 -0.157482 0.578243
vn 0.969654 -0.241681 0.036907
vn 0.982283 -0.183231 0.039334
vn 0.000000 -1.000000 -0.000000
vn 0.165269 0.986081 0.018155
vn 0.003178 0.998011 -0.062953
vn -0.022204 0.997899 0.060864
vn -0.143592 0.983700 -0.108244
vn -0.175461 0.983340 -0.047499
vn -0.155187 0.987352 0.032446
vn -0.139309 0.982719 0.121889
vn -0.096672 0.977079 0.189663
vn 0.030193 0.986347 0.161891
vn 0.138492 0.985444 0.098588
vn 0.215547 0.973219 0.079906
vn -0.236611 -0.964348 0.118523
vn -0.139100 -0.970204 0.198382
vn 0.031986 -0.997425 -0.064186
vn -0.030255 -0.993698 -0.107931
vn -0.010214 -0.978820 0.204467
vn -0.101147 -0.991232 -0.085024
vn 0.065170 -0.984599 0.162229
vn -0.213313 -0.976068 -0.042296
vn 0.054446 -0.994383 0.090768
vn -0.251138 -0.965478 0.069148
vn 0.813477 0.050398 -0.579410
vn 0.309846 0.062735 -0.948715
vn -0.303671 0.101714 -0.947332
vn -0.792642 0.123110 -0.597129
vn -0.983922 0.177023 -0.023650
vn -0.225068 -0.968212 0.109131
vn -0.795496 0.142332 0.589006
vn -0.173604 -0.971724 0.160044
vn -0.287111 0.120854 0.950243
vn -0.072621 -0.991270 0.110048
vn 0.315353 0.068098 0.946528
vn 0.035945 -0.995153 0.091530
vn 0.804221 0.055441 0.591739
vn 0.057946 -0.998274 0.009547
vn 0.999357 0.024822 0.025877
vn 0.489054 0.813509 -0.314690
vn 0.216644 0.839553 -0.498212
vn -0.094947 0.863347 -0.495598
vn -0.316356 0.886975 -0.336442
vn -0.351423 0.933789 -0.067374
vn -0.258520 0.935109 0.242361
vn -0.033345 0.889097 0.456502
vn 0.249782 0.841524 0.479005
vn 0.494398 0.811657 0.311102
vn 0.578385 0.815671 0.012365
vn 0.200474 0.886332 -0.417404
vn 0.416434 0.872804 -0.254552
vn -0.049818 0.917350 -0.394952
vn -0.218341 0.942911 -0.251489
vn -0.192094 0.979052 -0.067509
vn -0.113825 0.982554 0.147077
vn 0.009136 0.951287 0.308171
vn 0.218725 0.900216 0.376523
vn 0.441463 0.861299 0.251543
vn 0.482682 0.875580 0.019433
vn 0.313019 0.103109 -0.944133
vn 0.814183 0.053408 -0.578146
vn -0.298861 0.202535 -0.932556
vn -0.767125 0.347650 -0.539128
vn -0.887898 0.460033 -0.002487
vn -0.718618 0.447531 0.532264
vn -0.302818 0.300860 0.904314
vn 0.323388 0.148136 0.934600
vn 0.814884 0.093993 0.571953
vn 0.995296 0.093653 0.024804
vn -0.691192 0.558863 0.458177
vn -0.318865 0.529966 0.785787
vn -0.829744 0.557659 0.023262
vn -0.706534 0.566268 -0.424442
vn -0.293332 0.488889 -0.821550
vn 0.284977 0.466797 -0.837191
vn 0.758282 0.443983 -0.477375
vn 0.903622 0.422945 0.067712
vn 0.736403 0.445833 0.508865
vn 0.288811 0.512842 0.808444
vn -0.878660 -0.356097 -0.318043
vn -0.004245 -0.932409 -0.361381
vn -0.966162 -0.116664 0.230043
vn 0.001782 -0.989845 0.142143
vn -0.633583 0.732836 -0.248040
vn 0.883899 -0.375626 -0.278617
vn 0.680879 0.732360 -0.007240
vn 0.017133 0.996832 -0.077670
vn 0.974575 -0.105465 0.197688
vn 0.020342 0.959596 0.280644
vn -0.170951 0.127873 0.976946
vn 0.839681 -0.028180 0.542348
vn 0.294747 -0.104179 0.949879
vn -0.837745 -0.045689 0.544147
vn -0.295693 -0.121777 0.947489
vn 0.008508 -0.997907 -0.064100
vn -0.067631 -0.983758 -0.166269
vn -0.852799 0.308741 0.421204
vn -0.736028 0.551503 0.392566
vn 0.915055 0.403140 0.012315
vn 0.761641 0.647912 0.010670
vn -0.269220 -0.963057 -0.006465
vn -0.240371 -0.965091 -0.104024
vn -0.169196 -0.970108 -0.173961
vn 0.822058 0.382360 0.421926
vn 0.682591 0.636646 0.358820
vn 0.535918 0.071781 0.841213
vn 0.169611 -0.309299 0.935717
vn 0.698576 0.313418 0.643242
vn -0.082694 -0.525481 0.846777
vn -0.564499 0.178651 0.805869
vn -0.599583 0.095043 0.794649
vn -0.089635 0.181034 0.979384
vn -0.495338 0.604772 0.623612
vn 0.254326 0.742502 0.619685
vn 0.208333 0.891343 0.402622
vn -0.658084 -0.313733 0.684469
vn -0.841958 -0.276459 0.463333
vn -0.433452 0.725806 0.534158
vn -0.586227 0.736989 0.336429
vn -0.854226 0.128435 0.503788
vn -0.923768 0.162380 0.346821
vn -0.153149 0.624046 0.766232
vn -0.007928 0.530329 0.847755
vn -0.097697 0.137240 0.985708
vn -0.146292 -0.445411 0.883294
vn -0.067403 -0.724826 0.685627
vn 0.593383 -0.453599 0.664939
vn 0.853361 -0.336086 0.398523
vn 0.614871 0.085811 0.783945
vn 0.098785 0.187015 0.977378
vn 0.220873 0.656787 0.721003
vn 0.089084 0.569116 0.817418
vn 0.013611 0.315736 0.948749
vn 0.013098 0.322701 0.946410
vn 0.839202 0.308312 0.447978
vn 0.891224 0.343080 0.296676
vn 0.514932 0.661320 0.545437
vn 0.595943 0.513230 0.617614
vn -0.667403 0.005705 0.744675
vn -0.214720 0.765810 0.606160
vn -0.800009 0.216293 0.559645
vn -0.127232 0.919567 0.371763
vn 0.496880 0.825802 0.266761
vn 0.392483 0.757507 0.521671
vn 0.200865 0.130811 0.970846
f 1/2/1 2/1/2 11/12/3
f 11/12/3 2/1/2 12/5/4
f 2/1/2 3/13/5 12/5/4
f 12/5/4 3/13/5 13/14/6
f 3/13/5 4/15/7 13/14/6
f 13/14/6 4/15/7 14/16/8
f 4/15/7 5/21/9 14/16/8
f 14/16/8 5/21/9 15/22/10
f 5/6/9 6/7/11 15/9/10
f 15/9/10 6/7/11 16/8/12
f 6/7/11 7/17/13 16/8/12
f 16/8/12 7/17/13 17/18/14
f 7/17/13 8/19/15 17/18/14
f 17/18/14 8/19/15 18/20/16
f 8/19/15 9/28/17 18/20/16
f 18/20/16 9/28/17 19/29/18
f 9/28/17 10/30/19 19/29/18
f 19/29/18 10/30/19 20/31/20
f 10/11/19 1/2/1 20/24/20
f 20/24/20 1/2/1 11/12/3
f 11/12/3 12/5/4 21/26/21
f 21/26/21 12/5/4 22/25/22
f 12/5/4 13/14/6 22/25/22
f 22/25/22 13/14/6 23/27/23
f 13/14/6 14/16/8 23/27/23
f 23/27/23 14/16/8 24/32/24
f 14/16/8 15/22/10 24/32/24
f 24/32/24 15/22/10 25/33/25
f 15/9/10 16/8/12 25/40/25
f 25/40/25 16/8/12 26/39/26
f 16/8/12 17/18/14 26/39/26
f 26/39/26 17/18/14 27/41/27
f 17/18/14 18/20/16 27/41/27
f 27/41/27 18/20/16 28/42/28
f 18/20/16 19/29/18 28/42/28
f 28/42/28 19/29/18 29/50/29
f 19/29/18 20/31/20 29/50/29
f 29/50/29 20/31/20 30/51/30
f 20/24/20 11/12/3 30/34/30
f 30/34/30 11/12/3 21/26/21
f 21/26/21 22/25/22 31/36/31
f 31/36/31 22/25/22 32/35/32
f 22/25/22 23/27/23 32/35/32
f 32/35/32 23/27/23 33/37/33
f 23/27/23 24/32/24 33/37/33
f 33/37/33 24/32/24 34/38/34
f 24/32/24 25/33/25 34/38/34
f 34/38/34 25/33/25 35/43/35
f 30/34/30 21/26/21 40/44/36
f 40/44/36 21/26/21 31/36/31
f 31/36/31 32/35/32 41/46/37
f 41/46/37 32/35/32 42/45/38
f 32/35/32 33/37/33 42/45/38
f 42/45/38 33/37/33 43/47/39
f 33/37/33 34/38/34 43/47/39
f 43/47/39 34/38/34 44/48/40
f 34/38/34 35/43/35 44/48/40
f 44/48/40 35/43/35 45/49/41
f 41/46/37 42/45/38 51/56/42
f 51/56/42 42/45/38 52/55/43
f 42/45/38 43/47/39 52/55/43
f 52/55/43 43/47/39 53/57/44
f 43/47/39 44/48/40 53/57/44
f 53/57/44 44/48/40 54/58/45
f 44/48/40 45/49/41 54/58/45
f 54/58/45 45/49/41 55/59/46
f 102/65/47 103/66/48 129/68/49
f 129/68/49 103/66/48 128/67/50
f 106/69/51 127/70/52 103/66/48
f 103/66/48 127/70/52 128/67/50
f 108/71/53 126/76/54 106/69/51
f 106/69/51 126/76/54 127/70/52
f 110/77/55 125/79/56 108/71/53
f 108/71/53 125/79/56 126/76/54
f 112/96/57 124/103/58 110/95/55
f 110/95/55 124/103/58 125/104/56
f 112/96/57 114/105/59 124/103/58
f 124/103/58 114/105/59 123/106/60
f 114/105/59 116/114/61 123/106/60
f 123/106/60 116/114/61 132/115/62
f 116/114/61 118/116/63 132/115/62
f 132/115/62 118/116/63 131/117/64
f 120/125/65 130/126/66 118/116/63
f 118/116/63 130/126/66 131/117/64
f 120/80/65 102/65/47 130/81/66
f 130/81/66 102/65/47 129/68/49
f 2/1/2 1/2/1 61/10/67
f 3/13/5 2/1/2 61/10/67
f 4/15/7 3/13/5 61/10/67
f 5/21/9 4/15/7 61/10/67
f 6/7/11 5/6/9 61/127/67
f 7/17/13 6/7/11 61/127/67
f 8/19/15 7/17/13 61/127/67
f 9/28/17 8/19/15 61/127/67
f 10/30/19 9/28/17 61/127/67
f 1/2/1 10/11/19 61/10/67
f 105/89/68 104/90/69 122/91/70
f 104/90/69 107/97/71 122/91/70
f 107/97/71 109/98/72 122/91/70
f 109/98/72 111/99/73 122/91/70
f 111/128/73 113/136/74 122/137/70
f 113/136/74 115/138/75 122/137/70
f 115/138/75 117/139/76 122/137/70
f 117/139/76 119/147/77 122/137/70
f 119/147/77 121/148/78 122/137/70
f 121/100/78 105/89/68 122/91/70
f 51/56/79 52/55/80 62/102/81
f 62/102/81 52/55/80 63/101/82
f 52/55/80 53/57/83 63/101/82
f 63/101/82 53/57/83 64/107/84
f 54/58/85 65/108/86 53/57/83
f 53/57/83 65/108/86 64/107/84
f 54/58/85 55/59/87 65/108/86
f 65/108/86 55/59/87 66/109/88
f 62/102/81 63/101/82 72/112/89
f 72/112/89 63/101/82 73/111/90
f 63/101/82 64/107/84 73/111/90
f 73/111/90 64/107/84 74/113/91
f 64/107/84 65/108/86 74/113/91
f 74/113/91 65/108/86 75/118/92
f 65/108/86 66/109/88 75/118/92
f 75/118/92 66/109/88 76/119/93
f 66/150/88 67/149/94 76/165/93
f 76/165/93 67/149/94 77/164/95
f 68/153/96 78/173/97 67/149/94
f 67/149/94 78/173/97 77/164/95
f 69/154/98 79/174/99 68/153/96
f 68/153/96 79/174/99 78/173/97
f 70/162/100 80/175/101 69/154/98
f 69/154/98 80/175/101 79/174/99
f 70/162/100 71/163/102 80/175/101
f 80/175/101 71/163/102 81/176/103
f 71/110/102 62/102/81 81/120/103
f 81/120/103 62/102/81 72/112/89
f 72/112/89 73/111/90 82/122/104
f 82/122/104 73/111/90 83/121/105
f 73/111/90 74/113/91 83/121/105
f 83/121/105 74/113/91 84/123/106
f 74/113/91 75/118/92 84/123/106
f 84/123/106 75/118/92 85/124/107
f 75/118/92 76/119/93 85/124/107
f 85/124/107 76/119/93 86/129/108
f 76/165/93 77/164/95 86/23/108
f 86/23/108 77/164/95 87/184/109
f 78/173/97 88/3/110 77/164/95
f 77/164/95 88/3/110 87/184/109
f 79/174/99 89/88/111 78/173/97
f 78/173/97 89/88/111 88/3/110
f 80/175/101 90/4/112 79/174/99
f 79/174/99 90/4/112 89/88/111
f 81/176/103 91/87/113 80/175/101
f 80/175/101 91/87/113 90/4/112
f 72/112/89 82/122/104 81/120/103
f 81/120/103 82/122/104 91/130/113
f 83/121/105 148/131/114 82/122/104
f 82/122/104 148/131/114 149/132/115
f 84/123/106 147/133/116 83/121/105
f 83/121/105 147/133/116 148/131/114
f 85/124/107 146/134/117 84/123/106
f 84/123/106 146/134/117 147/133/116
f 86/129/108 145/135/118 85/124/107
f 85/124/107 145/135/118 146/134/117
f 86/23/108 87/184/109 145/183/118
f 145/183/118 87/184/109 144/78/119
f 87/184/109 88/3/110 144/78/119
f 144/78/119 88/3/110 143/182/120
f 88/3/110 89/88/111 143/182/120
f 143/182/120 89/88/111 152/181/121
f 89/88/111 90/4/112 152/181/121
f 152/181/121 90/4/112 151/180/122
f 91/87/113 150/179/123 90/4/112
f 90/4/112 150/179/123 151/180/122
f 82/122/104 149/132/115 91/130/113
f 91/130/113 149/132/115 150/140/123
f 93/142/124 103/66/48 92/141/125
f 92/141/125 103/66/48 102/65/47
f 94/143/126 106/69/51 93/142/124
f 93/142/124 106/69/51 103/66/48
f 95/144/127 108/71/53 94/143/126
f 94/143/126 108/71/53 106/69/51
f 96/145/128 110/77/55 95/144/127
f 95/144/127 110/77/55 108/71/53
f 96/178/128 97/177/129 110/95/55
f 110/95/55 97/177/129 112/96/57
f 97/177/129 98/172/130 112/96/57
f 112/96/57 98/172/130 114/105/59
f 98/172/130 99/171/131 114/105/59
f 114/105/59 99/171/131 116/114/61
f 99/171/131 100/170/132 116/114/61
f 116/114/61 100/170/132 118/116/63
f 101/169/133 120/125/65 100/170/132
f 100/170/132 120/125/65 118/116/63
f 101/146/133 92/141/125 120/80/65
f 120/80/65 92/141/125 102/65/47
f 124/103/58 123/106/60 134/167/134
f 134/167/134 123/106/60 133/168/135
f 124/103/58 134/167/134 125/104/56
f 125/104/56 134/167/134 135/166/136
f 125/79/56 135/151/136 126/76/54
f 126/76/54 135/151/136 136/152/137
f 126/76/54 136/152/137 127/70/52
f 127/70/52 136/152/137 137/155/138
f 127/70/52 137/155/138 128/67/50
f 128/67/50 137/155/138 138/156/139
f 129/68/49 128/67/50 139/157/140
f 139/157/140 128/67/50 138/156/139
f 130/81/66 129/68/49 140/158/141
f 140/158/141 129/68/49 139/157/140
f 130/126/66 140/161/141 131/117/64
f 131/117/64 140/161/141 141/160/142
f 132/115/62 131/117/64 142/159/143
f 142/159/143 131/117/64 141/160/142
f 123/106/60 132/115/62 133/168/135
f 133/168/135 132/115/62 142/159/143
f 133/168/135 115/138/75 134/167/134
f 134/167/134 115/138/75 113/136/74
f 134/167/134 113/136/74 135/166/136
f 135/166/136 113/136/74 111/128/73
f 136/152/137 135/151/136 109/98/72
f 109/98/72 135/151/136 111/99/73
f 136/152/137 109/98/72 137/155/138
f 137/155/138 109/98/72 107/97/71
f 137/155/138 107/97/71 138/156/139
f 138/156/139 107/97/71 104/90/69
f 139/157/140 138/156/139 105/89/68
f 105/89/68 138/156/139 104/90/69
f 140/158/141 139/157/140 121/100/78
f 121/100/78 139/157/140 105/89/68
f 140/161/141 121/148/78 141/160/142
f 141/160/142 121/148/78 119/147/77
f 142/159/143 141/160/142 117/139/76
f 117/139/76 141/160/142 119/147/77
f 133/168/135 142/159/143 115/138/75
f 115/138/75 142/159/143 117/139/76
f 144/78/119 143/182/120 97/177/129
f 97/177/129 143/182/120 98/172/130
f 145/183/118 144/78/119 96/178/128
f 96/178/128 144/78/119 97/177/129
f 145/135/118 96/145/128 146/134/117
f 146/134/117 96/145/128 95/144/127
f 146/134/117 95/144/127 147/133/116
f 147/133/116 95/144/127 94/143/126
f 147/133/116 94/143/126 148/131/114
f 148/131/114 94/143/126 93/142/124
f 148/131/114 93/142/124 149/132/115
f 149/132/115 93/142/124 92/141/125
f 150/140/123 149/132/115 101/146/133
f 101/146/133 149/132/115 92/141/125
f 150/179/123 101/169/133 151/180/122
f 151/180/122 101/169/133 100/170/132
f 152/181/121 151/180/122 99/171/131
f 99/171/131 151/180/122 100/170/132
f 143/182/120 152/181/121 98/172/130
f 98/172/130 152/181/121 99/171/131
f 156/186/144 153/185/145 160/192/146
f 160/192/146 153/185/145 157/190/147
f 160/192/146 162/194/148 156/186/144
f 153/185/145 156/186/144 154/188/149
f 163/195/150 154/188/149 155/187/151
f 156/186/144 162/194/148 154/188/149
f 155/187/151 154/188/149 162/194/148
f 154/188/149 158/189/152 153/185/145
f 153/185/145 158/189/152 157/190/147
f 163/195/150 158/189/152 154/188/149
f 160/192/146 159/191/153 162/194/148
f 162/194/148 159/191/153 155/187/151
f 157/190/147 158/189/152 161/193/154
f 158/189/152 159/191/153 161/193/154
f 159/191/153 160/192/146 161/193/154
f 160/192/146 157/190/147 161/193/154
f 158/189/152 163/195/150 159/191/153
f 159/191/153 163/195/150 155/187/151
f 30/51/30 40/64/36 29/50/29
f 29/50/29 40/64/36 39/63/155
f 29/50/29 39/63/155 28/42/28
f 28/42/28 39/63/155 38/62/156
f 36/52/157 35/53/35 26/39/26
f 26/39/26 35/53/35 25/40/25
f 27/41/27 37/61/158 26/39/26
f 26/39/26 37/61/158 36/52/157
f 37/61/158 27/41/27 38/62/156
f 38/62/156 27/41/27 28/42/28
f 67/149/94 66/150/88 56/84/159
f 56/84/159 66/150/88 55/85/87
f 57/86/160 68/153/96 56/84/159
f 56/84/159 68/153/96 67/149/94
f 46/72/161 45/73/41 36/52/157
f 36/52/157 45/73/41 35/53/35
f 56/84/162 55/85/46 46/72/161
f 46/72/161 55/85/46 45/73/41
f 50/54/163 40/44/36 41/46/37
f 41/46/37 40/44/36 31/36/31
f 50/54/163 41/46/37 60/60/164
f 60/60/164 41/46/37 51/56/42
f 60/60/165 51/56/79 71/110/102
f 71/110/102 51/56/79 62/102/81
f 71/163/102 70/162/100 60/94/165
f 60/94/165 70/162/100 59/93/166
f 59/93/166 70/162/100 58/92/167
f 58/92/167 70/162/100 69/154/98
f 40/64/36 50/83/163 39/63/155
f 39/63/155 50/83/163 49/82/168
f 50/83/163 60/94/164 49/82/168
f 49/82/168 60/94/164 59/93/169
f 57/86/160 58/92/167 68/153/96
f 68/153/96 58/92/167 69/154/98
f 176/208/170 177/209/171 166/198/172
f 166/198/172 177/209/171 164/196/173
f 165/197/174 46/72/161 173/205/175
f 173/205/175 46/72/161 36/52/157
f 36/52/157 37/61/158 173/205/175
f 173/205/175 37/61/158 164/196/176
f 56/84/162 46/72/161 174/206/177
f 174/206/177 46/72/161 165/197/174
f 176/208/170 166/198/172 178/210/178
f 178/210/178 166/198/172 167/199/179
f 177/209/171 179/211/180 164/196/173
f 164/196/173 179/211/180 173/205/181
f 180/212/182 174/206/183 181/213/184
f 181/213/184 174/206/183 165/197/185
f 179/211/180 181/213/184 173/205/181
f 173/205/181 181/213/184 165/197/185
f 178/210/178 167/199/179 180/212/182
f 180/212/182 167/199/179 174/206/183
f 56/84/162 174/206/177 57/86/186
f 57/86/186 174/206/177 167/199/187
f 178/210/178 180/212/182 47/74/188
f 176/208/170 178/210/178 47/74/188
f 177/209/171 176/208/170 47/74/188
f 179/211/180 177/209/171 47/74/188
f 181/213/184 179/211/180 47/74/188
f 180/212/182 181/213/184 47/74/188
f 186/218/189 169/200/190 182/215/191
f 182/215/191 169/200/190 172/204/192
f 39/63/155 172/204/193 38/62/156
f 38/62/156 172/204/193 169/200/194
f 57/86/186 167/199/187 58/92/195
f 58/92/195 167/199/187 170/202/196
f 167/199/187 166/198/197 170/202/196
f 166/198/197 171/203/198 170/202/196
f 171/203/198 166/198/197 169/200/194
f 166/198/197 164/196/176 169/200/194
f 38/62/156 169/200/194 37/61/158
f 164/196/176 37/61/158 169/200/194
f 182/215/191 172/204/192 183/214/199
f 183/214/199 172/204/192 168/201/200
f 175/207/201 168/201/202 59/93/169
f 59/93/169 168/201/202 49/82/168
f 184/216/203 185/217/204 171/203/205
f 171/203/205 185/217/204 170/202/206
f 186/218/189 184/216/203 169/200/190
f 169/200/190 184/216/203 171/203/205
f 39/63/155 49/82/168 172/204/193
f 172/204/193 49/82/168 168/201/202
f 175/207/207 170/202/206 187/219/208
f 187/219/208 170/202/206 185/217/204
f 59/93/169 58/92/195 175/207/201
f 175/207/201 58/92/195 170/202/196
f 187/219/208 183/214/199 175/207/207
f 175/207/207 183/214/199 168/201/200
f 183/214/199 187/219/208 48/75/209
f 182/215/191 183/214/199 48/75/209
f 186/218/189 182/215/191 48/75/209
f 184/216/203 186/218/189 48/75/209
f 185/217/204 184/216/203 48/75/209
f 187/219/208 185/217/204 48/75/209
