# This file uses centimeters as units for non-parametric coordinates.

v 0.017438 -0.017405 0.056449
v 0.018702 -0.007980 -0.043493
v 0.026688 -0.006855 -0.142729
v 0.023652 0.002882 0.056675
v 0.022036 0.002906 -0.043405
v 0.029915 0.003681 -0.142644
v 0.017438 0.023168 0.056449
v 0.018702 0.013792 -0.043493
v 0.026688 0.014217 -0.142729
v -0.002842 0.028422 0.055714
v 0.007285 0.016530 -0.043775
v 0.014818 0.016727 -0.142811
v -0.023123 0.023168 0.054979
v -0.003064 0.013792 -0.044063
v 0.005622 0.014217 -0.143281
v -0.029337 0.002882 0.054754
v -0.006398 0.002906 -0.044150
v 0.002394 0.003681 -0.143365
v -0.023123 -0.017405 0.054979
v -0.003064 -0.007980 -0.044063
v 0.005622 -0.006855 -0.143281
v -0.002842 -0.022659 0.055714
v 0.007819 -0.010800 -0.043778
v 0.016155 -0.009584 -0.143005
v 0.016945 0.003465 -0.157210
v -0.003444 0.003979 0.076413
v -0.002721 -0.014459 0.069711
v -0.022053 0.003854 0.069452
v 0.015928 0.003854 0.070875
v -0.003049 0.021456 0.070853
v 0.005703 0.003700 -0.152836
v 0.018206 -0.007564 -0.152926
v 0.027132 0.003700 -0.153715
v 0.016078 0.014622 -0.152683
v 0.025180 -0.003416 -0.153461
v 0.008834 0.011496 -0.152645
v 0.025539 0.008932 -0.153466
v 0.010156 -0.004145 -0.152817
v -0.014887 -0.009298 0.069359
v -0.016362 0.015778 0.070102
v 0.010128 0.015810 0.071096
v 0.010489 -0.008003 0.070343
vt 0.564353 0.525502
vt 0.566761 0.519534
vt 0.579231 0.523120
vt 0.576297 0.530011
vt 0.567554 0.517243
vt 0.566965 0.518347
vt 0.579393 0.521814
vt 0.580064 0.520622
vt 0.585526 0.525741
vt 0.586123 0.525155
vt 0.562241 0.530625
vt 0.574311 0.535173
vt 0.582663 0.531811
vt 0.580855 0.535690
vt 0.585541 0.526315
vt 0.585717 0.531818
vt 0.564741 0.523714
vt 0.576967 0.527641
vt 0.583494 0.529261
vt 0.574497 0.533810
vt 0.581403 0.533978
vt 0.580249 0.536999
vt 0.573653 0.536331
vt 0.562464 0.529390
vt 0.561662 0.531700
vt 0.548092 0.526768
vt 0.547521 0.527948
vt 0.543820 0.523831
vt 0.544248 0.522467
vt 0.548400 0.525453
vt 0.544872 0.521339
vt 0.550427 0.520917
vt 0.552839 0.514728
vt 0.545674 0.518661
vt 0.547334 0.514606
vt 0.550800 0.519297
vt 0.553125 0.513469
vt 0.546358 0.517592
vt 0.553708 0.512256
vt 0.547799 0.513865
vt 0.548238 0.512575
vt 0.544011 0.517457
vn -0.008157 0.998311 -0.057524
vn 0.681836 0.731505 -0.000036
vn -0.040987 0.990791 -0.129047
vn 0.709568 0.692530 -0.130056
vn 0.691714 -0.722153 -0.005146
vn 0.721093 -0.685305 -0.101891
vn 0.998875 -0.000023 0.047431
vn 0.990594 0.004765 -0.136754
vn 0.933985 -0.274452 -0.228796
vn 0.969725 0.014795 -0.243749
vn -0.684705 0.717209 -0.129581
vn -0.592740 0.781750 -0.193719
vn -0.309672 0.904645 -0.292781
vn 0.092003 0.947584 -0.305974
vn 0.437473 0.787378 -0.434342
vn -0.003168 0.375796 -0.926697
vn 0.238742 0.264468 -0.934376
vn -0.015382 0.000181 -0.999882
vn 0.324262 0.009554 -0.945919
vn 0.928200 0.288014 -0.235569
vn 0.001858 -0.997935 -0.064208
vn -0.017898 -0.990441 -0.136770
vn 0.463984 -0.822556 -0.328815
vn 0.120329 -0.957416 -0.262442
vn -0.303912 -0.899818 -0.312994
vn -0.635269 -0.730569 -0.250404
vn -0.018639 -0.363854 -0.931270
vn -0.266929 -0.292000 -0.918414
vn -0.362911 -0.020721 -0.931594
vn -0.883076 0.317824 -0.345204
vn -0.977753 0.053519 -0.202818
vn -0.909652 -0.125577 -0.395935
vn -0.259969 0.265224 -0.928479
vn 0.231878 -0.236537 -0.943548
vn -0.760301 -0.432687 -0.484483
vn -0.682990 -0.717953 -0.134415
vn -0.983587 0.000016 -0.180435
vn -0.767904 0.632039 0.104165
vn -0.961856 -0.007555 0.273451
vn -0.838684 0.315415 0.443985
vn -0.894754 -0.031121 0.445475
vn -0.765259 -0.627842 0.142102
vn -0.794585 -0.337197 0.504909
vn -0.047065 0.973474 0.223905
vn 0.582242 0.787181 0.203323
vn 0.277793 0.844377 0.458103
vn -0.013444 0.908420 0.417843
vn -0.308369 0.839264 0.447821
vn -0.112061 -0.970417 0.213853
vn 0.541801 -0.787455 0.293880
vn -0.291093 -0.799300 0.525722
vn 0.056214 -0.825473 0.561636
vn 0.965057 0.001183 0.262036
vn 0.314541 -0.705682 0.634884
vn -0.026753 -0.342437 0.939160
vn 0.195806 -0.252387 0.947608
vn -0.036173 -0.027385 0.998970
vn 0.274610 -0.025905 0.961207
vn 0.193655 0.208669 0.958621
vn -0.035827 0.303691 0.952097
vn -0.349862 -0.039194 0.935981
vn -0.258979 -0.269570 0.927503
vn -0.267215 0.210432 0.940380
vn 0.817418 0.323039 0.476943
vn 0.878517 0.001597 0.477708
vn 0.796727 -0.318650 0.513507
f 11/1/1 8/2/2 12/4/3
f 12/4/3 8/2/2 9/3/4
f 2/6/5 3/7/6 5/5/7
f 5/5/7 3/7/6 6/8/8
f 6/8/8 9/3/4 5/5/7
f 5/5/7 9/3/4 8/2/2
f 3/7/6 35/9/9 6/8/8
f 6/8/8 35/9/9 33/10/10
f 14/11/11 11/1/1 15/12/12
f 15/12/12 11/1/1 12/4/3
f 15/12/12 12/4/3 36/14/13
f 36/14/13 12/4/3 34/13/14
f 12/4/3 9/3/4 34/13/14
f 34/13/14 9/3/4 37/15/15
f 34/13/16 37/15/17 25/16/18
f 25/16/18 37/15/17 33/10/19
f 9/3/4 6/8/8 37/15/20
f 37/15/20 6/8/8 33/10/10
f 23/17/21 24/18/22 2/6/5
f 2/6/5 24/18/22 3/7/6
f 35/9/23 3/7/6 32/19/24
f 32/19/24 3/7/6 24/18/22
f 32/19/24 24/18/22 38/21/25
f 38/21/25 24/18/22 21/20/26
f 32/19/27 38/21/28 25/16/18
f 25/16/18 38/21/28 31/22/29
f 15/12/12 36/14/30 18/23/31
f 18/23/31 36/14/30 31/22/32
f 31/22/29 36/14/33 25/16/18
f 25/16/18 36/14/33 34/13/16
f 33/10/19 35/9/34 25/16/18
f 25/16/18 35/9/34 32/19/27
f 38/21/35 21/20/26 31/22/32
f 31/22/32 21/20/26 18/23/31
f 20/24/36 21/20/26 23/17/21
f 23/17/21 21/20/26 24/18/22
f 17/25/37 14/11/11 18/23/31
f 18/23/31 14/11/11 15/12/12
f 17/25/37 18/23/31 20/24/36
f 20/24/36 18/23/31 21/20/26
f 13/26/38 16/27/39 40/29/40
f 40/29/40 16/27/39 28/28/41
f 14/11/11 17/25/37 13/26/38
f 13/26/38 17/25/37 16/27/39
f 16/27/39 17/25/37 19/30/42
f 19/30/42 17/25/37 20/24/36
f 19/30/42 39/31/43 16/27/39
f 16/27/39 39/31/43 28/28/41
f 10/32/44 7/33/45 11/1/1
f 11/1/1 7/33/45 8/2/2
f 7/33/45 10/32/44 41/35/46
f 41/35/46 10/32/44 30/34/47
f 13/26/38 10/32/44 14/11/11
f 14/11/11 10/32/44 11/1/1
f 13/26/38 40/29/48 10/32/44
f 10/32/44 40/29/48 30/34/47
f 19/30/42 20/24/36 22/36/49
f 22/36/49 20/24/36 23/17/21
f 22/36/49 23/17/21 1/37/50
f 1/37/50 23/17/21 2/6/5
f 19/30/42 22/36/49 39/31/51
f 39/31/51 22/36/49 27/38/52
f 1/37/50 2/6/5 4/39/53
f 4/39/53 2/6/5 5/5/7
f 7/33/45 4/39/53 8/2/2
f 8/2/2 4/39/53 5/5/7
f 22/36/49 1/37/50 27/38/52
f 27/38/52 1/37/50 42/40/54
f 27/38/55 42/40/56 26/42/57
f 26/42/57 42/40/56 29/41/58
f 29/41/58 41/35/59 26/42/57
f 26/42/57 41/35/59 30/34/60
f 28/28/61 39/31/62 26/42/57
f 26/42/57 39/31/62 27/38/55
f 30/34/60 40/29/63 26/42/57
f 26/42/57 40/29/63 28/28/61
f 7/33/45 41/35/64 4/39/53
f 4/39/53 41/35/64 29/41/65
f 1/37/50 4/39/53 42/40/66
f 42/40/66 4/39/53 29/41/65
