# This file uses centimeters as units for non-parametric coordinates.

v 0.020554 0.070758 0.136993
v 0.048735 0.080733 0.135435
v 0.063352 0.074195 0.135343
v -0.025142 0.067669 0.006203
v 0.003587 0.088033 -0.009127
v 0.047594 0.083349 0.025133
v -0.014629 -0.017712 -0.001747
v 0.016188 -0.011498 -0.019351
v 0.047915 -0.000855 0.007608
v 0.028523 -0.020443 0.097444
v 0.061515 -0.014513 0.104733
v 0.073853 -0.017299 0.091796
v 0.011960 0.036398 0.119727
v 0.064909 0.024073 0.140372
v 0.090702 0.018009 0.116963
v -0.025437 0.012508 0.003802
v -0.019508 0.025737 0.065145
v -0.016340 0.081378 0.067733
v 0.002203 0.095274 0.068347
v 0.038459 0.092025 0.059256
v 0.058137 0.018971 0.056160
v 0.050380 -0.028324 0.039794
v 0.021804 -0.036545 0.036656
v -0.000419 -0.034533 0.048755
v 0.053190 0.112020 0.090910
v 0.061263 0.099882 0.084307
v 0.076222 0.111104 0.045157
v 0.056858 0.117390 0.052998
v 0.049671 0.042298 0.009266
v 0.006606 0.038516 -0.024424
vt 0.552506 0.401692
vt 0.556522 0.402385
vt 0.544828 0.418863
vt 0.540978 0.414286
vt 0.565234 0.396672
vt 0.561848 0.396078
vt 0.559935 0.405588
vt 0.561701 0.405756
vt 0.520419 0.403954
vt 0.520793 0.407034
vt 0.522413 0.390673
vt 0.523584 0.389441
vt 0.527981 0.400589
vt 0.525840 0.389481
vt 0.534290 0.378702
vt 0.537873 0.376037
vt 0.551599 0.372980
vt 0.549816 0.382236
vt 0.536021 0.377912
vt 0.548121 0.376048
vt 0.563562 0.382625
vt 0.560401 0.382484
vt 0.562563 0.380957
vt 0.539256 0.391718
vt 0.538300 0.405925
vt 0.549826 0.407987
vt 0.555928 0.401961
vt 0.539048 0.394934
vt 0.527773 0.407391
vt 0.531419 0.415468
vn -0.878185 0.357487 0.317797
vn -0.441652 0.871201 0.214367
vn -0.879721 0.374159 -0.293420
vn 0.045218 0.675943 -0.735566
vn 0.075428 -0.053900 0.995694
vn 0.751504 -0.144620 0.643682
vn 0.232561 0.951007 -0.203719
vn 0.980332 -0.173730 -0.093636
vn 0.029499 -0.486857 -0.872983
vn 0.157949 -0.974233 -0.161003
vn -0.540590 -0.714755 -0.443721
vn -0.664675 -0.718327 0.205459
vn 0.775239 -0.292991 -0.559608
vn 0.642821 -0.732694 -0.223475
vn 0.220614 -0.861139 0.458006
vn 0.067777 -0.308624 0.948766
vn -0.338441 -0.733055 0.589990
vn -0.582638 -0.256089 0.771331
vn 0.796118 -0.604489 -0.028112
vn 0.924714 -0.219131 0.311263
vn 0.034170 0.573930 0.818191
vn -0.535043 0.390885 0.748958
vn 0.790711 0.521047 0.321382
vn 0.950897 0.118591 -0.285887
vn 0.892147 0.145037 -0.427830
vn 0.839994 0.173430 -0.514132
vn 0.911731 -0.190464 0.363963
vn -0.921533 -0.186029 0.340838
vn -0.901936 -0.170147 -0.396939
vn 0.005320 0.081067 -0.996695
f 18/1/1 19/2/2 4/4/3
f 4/4/3 19/2/2 5/3/4
f 25/5/5 26/6/6 28/8/7
f 28/8/7 26/6/6 27/7/8
f 8/10/9 23/11/10 7/9/11
f 7/9/11 23/11/10 24/12/12
f 8/10/9 9/13/13 23/11/10
f 23/11/10 9/13/13 22/14/14
f 11/16/15 14/17/16 10/15/17
f 10/15/17 14/17/16 13/18/18
f 12/19/19 15/20/20 11/16/15
f 11/16/15 15/20/20 14/17/16
f 14/17/16 2/21/21 13/18/18
f 13/18/18 2/21/21 1/22/22
f 15/20/20 3/23/23 14/17/16
f 14/17/16 3/23/23 2/21/21
f 22/14/14 9/13/13 21/24/24
f 21/24/24 9/13/13 29/25/25
f 6/26/26 20/27/27 29/25/25
f 29/25/25 20/27/27 21/24/24
f 17/28/28 16/29/29 24/12/12
f 24/12/12 16/29/29 7/9/11
f 18/1/1 4/4/3 17/28/28
f 17/28/28 4/4/3 16/29/29
f 1/22/22 18/1/1 13/18/18
f 13/18/18 18/1/1 17/28/28
f 2/21/21 19/2/2 1/22/22
f 1/22/22 19/2/2 18/1/1
f 3/23/23 20/27/27 2/21/21
f 2/21/21 20/27/27 19/2/2
f 15/20/20 21/24/24 3/23/23
f 3/23/23 21/24/24 20/27/27
f 15/20/20 12/19/19 21/24/24
f 21/24/24 12/19/19 22/14/14
f 23/11/10 22/14/14 11/16/15
f 11/16/15 22/14/14 12/19/19
f 24/12/12 23/11/10 10/15/17
f 10/15/17 23/11/10 11/16/15
f 13/18/18 17/28/28 10/15/17
f 10/15/17 17/28/28 24/12/12
f 19/2/2 20/27/27 25/5/5
f 25/5/5 20/27/27 26/6/6
f 6/26/26 27/7/8 20/27/27
f 20/27/27 27/7/8 26/6/6
f 5/3/4 28/8/7 6/26/26
f 6/26/26 28/8/7 27/7/8
f 5/3/4 19/2/2 28/8/7
f 28/8/7 19/2/2 25/5/5
f 16/29/29 4/4/3 30/30/30
f 30/30/30 4/4/3 5/3/4
f 6/26/26 29/25/25 5/3/4
f 5/3/4 29/25/25 30/30/30
f 29/25/25 9/13/13 30/30/30
f 30/30/30 9/13/13 8/10/9
f 7/9/11 16/29/29 8/10/9
f 8/10/9 16/29/29 30/30/30
