# This file uses centimeters as units for non-parametric coordinates.

v -0.059921 -0.052717 0.040809
v 0.054600 -0.063267 0.060581
v -0.048422 0.038908 0.064308
v 0.063220 0.034273 0.062703
v -0.020035 0.014723 -0.153197
v 0.014981 0.020470 -0.152611
v -0.023535 -0.001433 -0.153912
v 0.014806 -0.003515 -0.151199
v -0.019682 -0.035480 0.134248
v 0.032090 -0.046430 0.114573
v 0.036145 0.001235 0.134949
v -0.014421 0.011869 0.139461
v 0.064613 0.040032 -0.052702
v -0.055455 0.047156 -0.050304
v 0.056607 -0.048432 -0.062437
v -0.059443 -0.038395 -0.070014
v -0.012366 0.088709 -0.185246
v 0.030121 0.075564 -0.081644
v -0.027777 0.056092 0.008396
v -0.019102 0.065920 -0.108758
v -0.042200 0.040597 -0.002398
v -0.034226 0.036780 0.092003
v -0.052561 0.014433 -0.023718
v -0.027560 0.012097 -0.128308
v -0.080216 -0.000641 -0.114651
v -0.072918 0.002364 -0.025425
v -0.035956 0.013779 0.043867
v -0.065344 0.008661 -0.176603
v 0.042662 0.062535 -0.000379
v 0.061095 0.057902 -0.075024
v 0.032046 0.060920 -0.086205
v -0.002633 0.065774 0.005175
v 0.034992 0.043992 0.058510
v 0.049723 0.097234 -0.136349
v 0.061244 0.037175 -0.068140
v 0.073151 0.025908 0.007279
v 0.081175 0.012505 0.011281
v 0.110000 -0.001521 -0.057994
v 0.094847 0.001207 -0.123100
v 0.062548 0.028971 0.064770
v 0.064969 0.021570 -0.143206
v -0.006245 0.057113 -0.089417
v 0.021789 0.044330 -0.064526
v 0.078931 0.017896 -0.122894
v 0.106024 -0.007287 -0.179981
v -0.008255 0.061468 -0.050906
v 0.073752 -0.030778 -0.166237
v 0.007738 -0.025070 -0.142336
v 0.044147 -0.030589 -0.101243
v 0.095641 -0.025686 -0.155469
v 0.100295 -0.041253 -0.221522
v 0.011164 -0.020251 -0.087564
v 0.062242 -0.033435 -0.014545
v 0.059943 -0.019933 0.078078
v 0.062207 -0.033336 0.086757
v 0.080931 -0.069792 0.024405
v 0.089230 -0.087682 -0.040696
v 0.046619 0.003660 0.129970
v 0.090098 -0.011565 -0.122856
v 0.044478 0.025316 -0.062139
v 0.067856 -0.039911 -0.021859
v 0.105639 -0.062754 -0.106628
v 0.081489 -0.079217 -0.170607
v -0.068978 -0.071963 -0.110559
v -0.052475 -0.048599 0.002740
v -0.037068 0.024077 -0.027333
v -0.069456 -0.019562 -0.130031
v -0.037625 -0.050452 -0.184622
vt 0.149436 0.300980
vt 0.171027 0.309717
vt 0.172781 0.303437
vt 0.151271 0.301047
vt 0.158439 0.425005
vt 0.143666 0.424213
vt 0.130025 0.382314
vt 0.181187 0.385206
vt 0.158607 0.422863
vt 0.142359 0.423403
vt 0.131049 0.338511
vt 0.129152 0.385499
vt 0.178135 0.383956
vt 0.179623 0.331899
vt 0.182768 0.336119
vt 0.135138 0.333530
vt 0.142757 0.358529
vt 0.165696 0.398907
vt 0.144268 0.408824
vt 0.136598 0.361963
vt 0.141711 0.321958
vt 0.145527 0.442739
vt 0.132155 0.369289
vt 0.140950 0.413493
vt 0.119094 0.405988
vt 0.123663 0.368939
vt 0.140397 0.341114
vt 0.124181 0.432734
vt 0.172649 0.363961
vt 0.179171 0.395624
vt 0.166552 0.399972
vt 0.153347 0.360914
vt 0.170587 0.337853
vt 0.172922 0.423822
vt 0.179484 0.391474
vt 0.186007 0.359279
vt 0.189551 0.357013
vt 0.200510 0.385850
vt 0.192878 0.412954
vt 0.182548 0.334959
vt 0.179771 0.422089
vt 0.150194 0.400360
vt 0.162709 0.389625
vt 0.186079 0.413616
vt 0.196560 0.436331
vt 0.149980 0.384315
vt 0.190040 0.433468
vt 0.155986 0.417666
vt 0.172081 0.400919
vt 0.196592 0.425480
vt 0.208658 0.448091
vt 0.158359 0.395220
vt 0.184190 0.358349
vt 0.181953 0.326835
vt 0.183141 0.322577
vt 0.190038 0.347128
vt 0.192380 0.373317
vt 0.177124 0.305853
vt 0.207486 0.307961
vt 0.192149 0.309372
vt 0.192268 0.334076
vt 0.209056 0.334181
vt 0.211191 0.334060
vt 0.210418 0.308431
vt 0.224867 0.307155
vt 0.223902 0.330736
vt 0.194881 0.348968
vt 0.204855 0.350005
vt 0.210302 0.351828
vt 0.224410 0.354076
vt 0.223457 0.287231
vt 0.209111 0.288402
vt 0.207039 0.288866
vt 0.195047 0.286999
vt 0.190040 0.433468
vt 0.155986 0.417666
vt 0.172081 0.400919
vt 0.196592 0.425480
vt 0.208658 0.448091
vt 0.190040 0.433468
vt 0.155986 0.417666
vt 0.172081 0.400919
vt 0.196592 0.425480
vt 0.208658 0.448091
vn 0.405830 -0.654939 0.637461
vn 0.602806 -0.003445 0.797880
vn -0.401888 -0.547142 0.734250
vn -0.199686 0.604910 0.770850
vn -0.505729 0.329110 -0.797449
vn -0.669507 0.721371 -0.177156
vn 0.294491 0.641859 -0.708020
vn 0.703801 0.671521 -0.231784
vn -0.430922 -0.328556 -0.840451
vn 0.400081 -0.418536 -0.815330
vn -0.717402 -0.577387 -0.389818
vn 0.634054 -0.728002 -0.260745
vn -0.749932 -0.653054 0.105463
vn 0.576277 -0.774734 0.260176
vn 0.758834 0.591030 0.273596
vn -0.618809 0.722593 0.308116
vn -0.703053 0.707103 -0.075638
vn -0.420997 0.905099 0.059641
vn -0.578788 0.815457 0.005821
vn -0.296018 0.932790 0.205614
vn -0.759549 0.644166 0.090201
vn -0.314838 0.916861 0.245446
vn -0.233503 0.972334 0.006620
vn -0.329478 0.944122 0.008780
vn -0.431801 0.901703 0.021904
vn -0.513168 0.855114 0.073750
vn -0.513676 0.847392 0.134404
vn -0.210579 0.972898 0.095534
vn -0.005847 0.961512 0.274701
vn 0.019925 0.984870 0.172146
vn 0.097825 0.991584 0.084807
vn 0.088154 0.985622 0.144146
vn 0.105692 0.944463 0.311157
vn -0.126880 0.824092 0.552063
vn 0.627044 0.777513 -0.047841
vn 0.764077 0.632949 0.124743
vn 0.698925 0.713862 0.043658
vn 0.820885 0.543675 0.174826
vn 0.632115 0.766291 -0.115017
vn 0.834291 0.536903 0.125271
vn 0.450374 0.891471 -0.049417
vn 0.418939 0.906157 -0.058044
vn 0.418697 0.903909 -0.087418
vn 0.411312 0.903659 -0.119255
vn 0.465666 0.869870 -0.162730
vn 0.468168 0.880441 -0.075122
vn 0.181540 0.982961 -0.028818
vn 0.059844 0.997001 -0.049065
vn -0.064953 0.993423 -0.094292
vn -0.147414 0.975762 -0.161735
vn -0.108914 0.965806 -0.235281
vn 0.259290 0.960534 -0.100718
vn 0.899496 0.436249 -0.024369
vn 0.947408 0.310226 0.078603
vn 0.925441 0.377651 0.030636
vn 0.958444 0.250409 0.136677
vn 0.893450 0.449062 -0.009509
vn 0.959419 0.248443 0.133387
vn 0.814256 0.486964 0.315995
vn 0.851214 0.425703 0.306940
vn 0.930144 0.358019 0.081577
vn 0.959849 0.276608 -0.046663
vn 0.910465 0.154826 -0.383514
vn -0.965946 0.242314 0.090730
vn -0.969570 0.167085 0.178932
vn -0.997967 0.058790 -0.024619
vn -0.995429 -0.041122 -0.086196
vn -0.889872 -0.166034 -0.424924
f 10/2/1 11/3/2 9/1/3
f 9/1/3 11/3/2 12/4/4
f 5/6/5 14/7/6 6/5/7
f 6/5/7 14/7/6 13/8/8
f 7/10/9 5/6/5 8/9/10
f 8/9/10 5/6/5 6/5/7
f 16/12/11 15/13/12 1/11/13
f 1/11/13 15/13/12 2/14/14
f 13/60/8 4/61/15 15/59/12
f 15/59/12 4/61/15 2/62/14
f 3/63/16 14/64/6 1/66/13
f 1/66/13 14/64/6 16/65/11
f 1/11/13 2/14/14 9/1/3
f 9/1/3 2/14/14 10/2/1
f 4/61/15 11/67/2 2/62/14
f 2/62/14 11/67/2 10/68/1
f 3/16/16 12/4/4 4/15/15
f 4/15/15 12/4/4 11/3/2
f 12/69/4 3/63/16 9/70/3
f 9/70/3 3/63/16 1/66/13
f 7/71/9 16/65/11 5/72/5
f 5/72/5 16/65/11 14/64/6
f 15/13/12 16/12/11 8/9/10
f 8/9/10 16/12/11 7/10/9
f 15/59/12 8/73/10 13/60/8
f 13/60/8 8/73/10 6/74/7
f 14/7/6 3/16/16 13/8/8
f 13/8/8 3/16/16 4/15/15
f 19/17/17 18/18/18 21/20/19
f 21/20/19 18/18/18 20/19/20
f 22/21/21 19/17/17 21/20/19
f 17/22/22 20/19/20 18/18/18
f 24/24/23 25/25/24 23/23/25
f 23/23/25 25/25/24 26/26/26
f 27/27/27 23/23/25 26/26/26
f 28/28/28 25/25/24 24/24/23
f 30/30/29 31/31/30 29/29/31
f 29/29/31 31/31/30 32/32/32
f 33/33/33 29/29/31 32/32/32
f 34/34/34 31/31/30 30/30/29
f 35/35/35 36/36/36 38/38/37
f 38/38/37 36/36/36 37/37/38
f 39/39/39 35/35/35 38/38/37
f 40/40/40 37/37/38 36/36/36
f 42/42/41 43/43/42 41/41/43
f 41/41/43 43/43/42 44/44/44
f 45/45/45 41/41/43 44/44/44
f 46/46/46 43/43/42 42/42/41
f 48/48/47 49/49/48 47/47/49
f 47/47/49 49/49/48 50/50/50
f 51/51/51 47/47/49 50/50/50
f 52/52/52 49/49/48 48/48/47
f 53/53/53 54/54/54 56/56/55
f 56/56/55 54/54/54 55/55/56
f 57/57/57 53/53/53 56/56/55
f 58/58/58 55/55/56 54/54/54
f 60/76/59 61/77/60 59/75/61
f 59/75/61 61/77/60 62/78/62
f 63/79/63 59/75/61 62/78/62
f 65/81/64 66/82/65 64/80/66
f 64/80/66 66/82/65 67/83/67
f 68/84/68 64/80/66 67/83/67
