# This file uses centimeters as units for non-parametric coordinates.

v -0.465863 0.179081 0.000000
v -0.427839 -0.079176 0.000000
v -0.237089 -0.353714 0.000000
v -0.044125 -0.482036 0.000000
v 0.232088 -0.319210 0.000000
v -0.377525 0.446708 0.000000
v -0.124805 0.462185 0.000000
v 0.013273 0.353073 0.000000
v 0.140276 0.438160 0.000000
v 0.364766 0.408285 0.000000
v 0.478581 0.222476 0.000000
v 0.438052 -0.021870 0.000000
v -0.330951 0.345210 0.000000
v -0.399801 0.177161 0.000000
v -0.338547 -0.046986 0.000000
v -0.158622 -0.279067 0.000000
v -0.042142 -0.375824 0.000000
v 0.181906 -0.228469 0.000000
v 0.349640 0.012750 0.000000
v 0.381015 0.228187 0.000000
v 0.302207 0.343883 0.000000
v 0.151845 0.356987 0.000000
v 0.003800 0.207343 0.000000
v -0.160870 0.384954 0.000000
vt 0.122475 0.946708
vt 0.034137 0.679081
vt 0.072161 0.420824
vt 0.262911 0.146286
vt 0.455875 0.017964
vt 0.732088 0.180790
vt 0.938052 0.478130
vt 0.978581 0.722476
vt 0.864766 0.908285
vt 0.640276 0.938160
vt 0.513273 0.853073
vt 0.375195 0.962185
vt 0.169049 0.845210
vt 0.100198 0.677161
vt 0.161453 0.453014
vt 0.341378 0.220932
vt 0.457858 0.124176
vt 0.681906 0.271531
vt 0.849640 0.512750
vt 0.881016 0.728187
vt 0.802207 0.843883
vt 0.651845 0.856987
vt 0.503800 0.707343
vt 0.339130 0.884954
vn 0.000000 0.000000 1.000000
vn 0.000000 0.000000 1.000000
vn 0.000000 0.000000 1.000000
vn 0.000000 0.000000 1.000000
vn 0.000000 0.000000 1.000000
vn 0.000000 0.000000 1.000000
vn 0.000000 0.000000 1.000000
vn 0.000000 0.000000 1.000000
vn 0.000000 0.000000 1.000000
vn 0.000000 0.000000 1.000000
vn 0.000000 0.000000 1.000000
vn 0.000000 0.000000 1.000000
vn 0.000000 0.000000 1.000000
vn 0.000000 0.000000 1.000000
vn 0.000000 0.000000 1.000000
vn 0.000000 0.000000 1.000000
vn 0.000000 0.000000 1.000000
vn 0.000000 0.000000 1.000000
vn 0.000000 0.000000 1.000000
vn 0.000000 0.000000 1.000000
vn 0.000000 0.000000 1.000000
vn 0.000000 0.000000 1.000000
vn 0.000000 0.000000 1.000000
vn 0.000000 0.000000 1.000000
vn 0.000000 0.000000 1.000000
vn 0.000000 0.000000 1.000000
vn 0.000000 0.000000 1.000000
vn 0.000000 0.000000 1.000000
vn 0.000000 0.000000 1.000000
vn 0.000000 0.000000 1.000000
vn 0.000000 0.000000 1.000000
vn 0.000000 0.000000 1.000000
vn 0.000000 0.000000 1.000000
vn 0.000000 0.000000 1.000000
vn 0.000000 0.000000 1.000000
vn 0.000000 0.000000 1.000000
vn 0.000000 0.000000 1.000000
vn 0.000000 0.000000 1.000000
vn 0.000000 0.000000 1.000000
vn 0.000000 0.000000 1.000000
vn 0.000000 0.000000 1.000000
vn 0.000000 0.000000 1.000000
vn 0.000000 0.000000 1.000000
vn 0.000000 0.000000 1.000000
vn 0.000000 0.000000 1.000000
vn 0.000000 0.000000 1.000000
vn 0.000000 0.000000 1.000000
vn 0.000000 0.000000 1.000000
f 7/12/1 6/1/2 24/24/3
f 24/24/3 6/1/2 13/13/4
f 6/1/5 1/2/6 13/13/7
f 13/13/7 1/2/6 14/14/8
f 10/9/9 9/10/10 21/21/11
f 21/21/11 9/10/10 22/22/12
f 11/8/13 10/9/14 20/20/15
f 20/20/15 10/9/14 21/21/16
f 23/23/17 22/22/18 8/11/19
f 8/11/19 22/22/18 9/10/20
f 7/12/21 24/24/22 8/11/23
f 8/11/23 24/24/22 23/23/24
f 12/7/25 11/8/26 19/19/27
f 19/19/27 11/8/26 20/20/28
f 5/6/29 12/7/30 18/18/31
f 18/18/31 12/7/30 19/19/32
f 4/5/33 5/6/34 17/17/35
f 17/17/35 5/6/34 18/18/36
f 4/5/37 17/17/38 3/4/39
f 3/4/39 17/17/38 16/16/40
f 2/3/41 3/4/42 15/15/43
f 15/15/43 3/4/42 16/16/44
f 1/2/45 2/3/46 14/14/47
f 14/14/47 2/3/46 15/15/48
