# This file uses centimeters as units for non-parametric coordinates.

v -0.500000 -0.500000 0.000000
v 0.500000 -0.500000 0.000000
v -0.500000 0.500000 0.000000
v 0.500000 0.500000 0.000000
v 0.250000 -0.500000 0.000000
v 0.250000 0.500000 0.000000
v 0.000000 0.500000 0.000000
v 0.000000 -0.500000 0.000000
v -0.250000 0.500000 0.000000
v -0.250000 -0.500000 0.000000
vt 0.009105 0.752723
vt 0.985437 0.002310
vt 0.009105 0.998744
vt 0.985437 0.247764
vt 0.015428 0.247764
vt 0.992753 0.253750
vt 0.008496 0.496684
vt 0.992586 0.501669
vt 0.009105 0.749113
vt 0.985437 0.752723
vt 0.015428 0.002310
vt 0.992753 0.496684
vt 0.992586 0.749113
vt 0.008496 0.253750
vt 0.985437 0.998744
vt 0.009105 0.501669
vn 0.000000 0.000000 1.000000
vn 0.000000 0.000000 1.000000
vn 0.000000 0.000000 1.000000
vn 0.000000 0.000000 1.000000
vn 0.000000 0.000000 1.000000
vn 0.000000 0.000000 1.000000
vn 0.000000 0.000000 1.000000
vn 0.000000 0.000000 1.000000
vn 0.000000 0.000000 1.000000
vn 0.000000 0.000000 1.000000
vn 0.000000 0.000000 1.000000
vn 0.000000 0.000000 1.000000
vn 0.000000 0.000000 1.000000
vn 0.000000 0.000000 1.000000
vn 0.000000 0.000000 1.000000
vn 0.000000 0.000000 1.000000
f 4/4/1 6/5/2 2/2/3
f 2/2/3 6/5/2 5/11/4
f 6/12/5 7/7/6 5/6/7
f 5/6/7 7/7/6 8/14/8
f 9/9/9 10/16/10 7/13/11
f 7/13/11 10/16/10 8/8/12
f 10/10/13 9/15/14 1/1/15
f 1/1/15 9/15/14 3/3/16
