# This file uses centimeters as units for non-parametric coordinates.

v -0.500000 -0.500000 0.000000
v 0.500000 -0.500000 0.000000
v -0.500000 0.500000 0.000000
v 0.500000 0.500000 0.000000
v -0.708502 0.714840 0.000000
v -0.708502 -0.709875 0.000000
v 0.720264 0.714840 0.000000
v 0.720264 -0.709875 0.000000
v 0.720264 0.017501 0.000000
v 0.500000 0.015938 0.000000
v -0.500000 0.008842 0.000000
v -0.708502 0.007363 0.000000
v 0.006714 0.714840 0.000000
v 0.008497 0.500000 0.000000
v 0.018539 -0.709875 0.000000
v 0.016797 -0.500000 0.000000
v 0.012544 0.012479 0.000000
vt 0.000000 1.000000
vt 1.000000 1.000000
vt 1.000000 0.000000
vt 0.000000 0.000000
vt 0.202759 0.796972
vt 0.202759 0.203028
vt 0.795919 0.796972
vt 0.795919 0.203028
vt 0.795919 0.506262
vt 1.000000 0.515938
vt 0.000000 0.508842
vt 0.202759 0.502035
vt 0.499685 0.796972
vt 0.508497 1.000000
vt 0.516797 0.000000
vt 0.504595 0.203027
vt 0.512544 0.512479
vn 0.000000 0.000000 1.000000
vn 0.000000 0.000000 1.000000
vn 0.000000 0.000000 1.000000
vn 0.000000 0.000000 1.000000
vn 0.000000 0.000000 1.000000
vn -0.000000 0.000000 1.000000
vn -0.000000 0.000000 1.000000
vn -0.000000 0.000000 1.000000
vn 0.000000 0.000000 1.000000
vn 0.000000 0.000000 1.000000
vn 0.000000 0.000000 1.000000
vn 0.000000 0.000000 1.000000
vn 0.000000 0.000000 1.000000
vn 0.000000 0.000000 1.000000
vn 0.000000 0.000000 1.000000
vn 0.000000 0.000000 1.000000
vn 0.000000 0.000000 1.000000
vn 0.000000 0.000000 1.000000
vn 0.000000 0.000000 1.000000
vn 0.000000 0.000000 1.000000
vn 0.000000 0.000000 1.000000
vn 0.000000 0.000000 1.000000
vn 0.000000 0.000000 1.000000
vn 0.000000 0.000000 1.000000
vn 0.000000 0.000000 1.000000
vn 0.000000 0.000000 1.000000
vn 0.000000 0.000000 1.000000
vn 0.000000 0.000000 1.000000
vn -0.000000 0.000000 1.000000
vn -0.000000 0.000000 1.000000
vn -0.000000 0.000000 1.000000
vn 0.000000 0.000000 1.000000
vn 0.000000 0.000000 1.000000
vn 0.000000 0.000000 1.000000
vn 0.000000 0.000000 1.000000
vn 0.000000 0.000000 1.000000
vn -0.000000 0.000000 1.000000
vn -0.000000 0.000000 1.000000
vn -0.000000 0.000000 1.000000
vn 0.000000 0.000000 1.000000
vn -0.000000 0.000000 1.000000
vn -0.000000 0.000000 1.000000
vn -0.000000 0.000000 1.000000
vn 0.000000 0.000000 1.000000
vn 0.000000 0.000000 1.000000
vn 0.000000 0.000000 1.000000
vn 0.000000 0.000000 1.000000
vn 0.000000 0.000000 1.000000
f 14/14/1 4/2/2 13/13/3
f 13/13/3 4/2/2 7/7/4
f 10/10/5 2/3/6 9/9/7
f 9/9/7 2/3/6 8/8/8
f 16/15/9 15/16/10 2/3/11
f 2/3/11 15/16/10 8/8/12
f 17/17/13 16/15/14 10/10/15
f 10/10/15 16/15/14 2/3/16
f 11/11/17 12/12/18 1/4/19
f 1/4/19 12/12/18 6/6/20
f 10/10/21 9/9/22 4/2/23
f 4/2/23 9/9/22 7/7/24
f 14/14/25 17/17/26 4/2/27
f 4/2/27 17/17/26 10/10/28
f 11/11/29 3/1/30 12/12/31
f 12/12/31 3/1/30 5/5/32
f 14/14/33 13/13/34 3/1/35
f 3/1/35 13/13/34 5/5/36
f 17/17/37 14/14/38 11/11/39
f 11/11/39 14/14/38 3/1/40
f 16/15/41 17/17/42 1/4/43
f 1/4/43 17/17/42 11/11/44
f 16/15/45 1/4/46 15/16/47
f 15/16/47 1/4/46 6/6/48
