# This file uses centimeters as units for non-parametric coordinates.

v -0.093674 -0.286364 0.122678
v -0.037870 -0.286364 0.163837
v 0.031107 -0.286364 0.163837
v 0.086911 -0.286364 0.122678
v 0.108227 -0.286364 0.056081
v 0.086911 -0.286364 -0.010515
v 0.031107 -0.286364 -0.051674
v -0.037870 -0.286364 -0.051674
v -0.093674 -0.286364 -0.010515
v -0.114990 -0.286364 0.056081
v -0.217839 -0.235426 0.222090
v -0.101531 -0.248391 0.326199
v 0.083127 -0.249638 0.327617
v 0.210713 -0.235947 0.239399
v 0.197729 -0.220091 0.056081
v 0.170791 -0.263015 -0.101483
v 0.109488 -0.262561 -0.160715
v -0.071412 -0.259472 -0.192491
v -0.162927 -0.251913 -0.073722
v -0.182315 -0.219331 0.028745
v -0.139311 -0.090241 0.233243
v -0.093107 -0.099855 0.263432
v 0.045375 -0.103017 0.268668
v 0.155921 -0.117596 0.198085
v 0.216706 -0.125442 0.044516
v 0.203034 -0.181533 -0.111395
v 0.110598 -0.187607 -0.169630
v -0.093985 -0.168031 -0.182550
v -0.206727 -0.148846 -0.085389
v -0.231985 -0.123563 0.028745
v -0.150615 -0.031296 0.227811
v -0.097801 -0.020219 0.278308
v 0.062285 -0.030520 0.266080
v 0.156850 -0.049719 0.210851
v 0.225964 -0.061498 0.040916
v 0.387930 -0.010390 -0.159262
v -0.390161 0.013959 -0.109018
v -0.243379 -0.078098 0.035483
v -0.149962 0.029254 0.206287
v -0.082655 0.047364 0.259058
v 0.042648 0.042437 0.263522
v 0.164392 0.039318 0.171368
v 0.245947 0.163749 0.012256
v 0.369436 0.031122 -0.162915
v 0.153304 -0.038319 -0.233895
v -0.130320 -0.034555 -0.243239
v -0.345589 0.095473 -0.120346
v -0.147285 0.192574 0.184651
v -0.057210 0.141365 0.385062
v 0.081232 0.142591 0.371178
v 0.175934 0.180736 0.145378
v -0.003392 -0.313214 0.052743
v -0.018033 0.200464 -0.093341
v -0.233409 -0.030595 -0.015565
v -0.215607 -0.098610 -0.088647
v 0.220904 -0.027235 0.039474
v -0.212214 -0.004850 0.038211
v -0.065690 0.064066 0.243363
v -0.156077 0.049408 0.174880
v 0.066821 0.066428 0.261902
v 0.141943 0.070297 0.164157
v 0.203034 -0.135146 -0.104859
v 0.216904 -0.047254 -0.018090
v -0.141943 -0.126723 -0.201904
v 0.133935 -0.123085 -0.189480
v -0.281423 0.192308 0.029981
v -0.318168 0.143994 0.022521
v 0.100726 0.023944 -0.217053
v -0.122064 0.026023 -0.229318
v 0.064497 0.189499 0.340497
v -0.040366 0.192606 0.354036
v 0.303123 0.077667 -0.161915
v 0.150601 0.202115 0.100092
v 0.213241 0.177470 -0.018608
v -0.293022 0.127513 -0.104360
v -0.241042 0.211414 0.014579
v -0.127032 0.240760 0.164456
v 0.246223 0.105833 0.024111
v -0.023441 0.142657 0.129280
v -0.090162 0.174127 0.073758
v -0.140221 0.118016 0.006519
v -0.129281 0.091152 -0.089269
v -0.076271 0.059650 -0.145074
v 0.055078 0.054548 -0.165259
v 0.186437 0.082027 -0.122800
v 0.153988 0.128027 -0.006813
v 0.099760 0.182461 0.079318
v 0.029160 0.142631 0.129361
v -0.029351 0.216376 0.037393
v -0.073497 0.203061 -0.000559
v -0.107044 0.190432 -0.043822
v -0.090844 0.171081 -0.101627
v -0.058294 0.160732 -0.132476
v 0.020924 0.155126 -0.145150
v 0.091457 0.163290 -0.115861
v 0.106613 0.186498 -0.043797
v 0.057366 0.203557 0.008753
v 0.006368 0.215496 0.036548
v -0.098172 -0.161247 0.314236
v -0.185223 -0.165803 0.241215
v -0.209382 -0.167144 0.028745
v 0.073282 -0.163068 0.319487
v 0.191580 -0.185948 0.229174
v 0.017436 0.137022 0.419744
v 0.015403 0.187445 0.391513
v -0.188400 -0.058882 0.138822
v -0.173055 0.009632 0.138778
v -0.170697 -0.098949 0.160116
v -0.134464 -0.125785 0.226059
v -0.043817 0.048550 0.246741
v -0.021682 -0.025152 0.269440
v -0.031329 -0.066872 0.268671
v 0.213020 -0.140564 0.002484
v 0.209647 -0.160649 0.048818
v -0.215277 -0.070152 0.082484
v -0.205606 -0.110372 0.099214
v -0.194677 -0.129474 0.101381
v -0.158126 -0.144667 0.225568
v -0.082692 -0.137707 0.258918
v 0.177806 -0.140318 0.206345
v 0.052095 -0.141090 0.267769
v -0.251672 0.017051 -0.207959
v -0.272404 -0.076184 -0.184175
v -0.220747 0.067463 -0.194838
v 0.261497 0.042910 -0.214541
v 0.301368 -0.013652 -0.226219
v 0.275296 -0.086896 -0.207406
vt 0.215898 0.635957
vt 0.262148 0.639028
vt 0.245276 0.677806
vt 0.195270 0.678796
vt 0.297933 0.638976
vt 0.310054 0.677724
vt 0.331627 0.630879
vt 0.365445 0.683526
vt 0.703657 0.694781
vt 0.720323 0.704736
vt 0.700817 0.728072
vt 0.668337 0.727129
vt 0.746976 0.704736
vt 0.733766 0.729014
vt 0.779920 0.704736
vt 0.793130 0.729014
vt 0.806573 0.704736
vt 0.830790 0.725245
vt 0.823887 0.696025
vt 0.859501 0.729014
vt 0.351695 0.608344
vt 0.406569 0.665215
vt 0.200700 0.615924
vt 0.147139 0.651882
vt 0.236291 0.730194
vt 0.191217 0.751804
vt 0.680682 0.772920
vt 0.654980 0.770093
vt 0.728235 0.782349
vt 0.803288 0.787998
vt 0.865061 0.776690
vt 0.890763 0.772920
vt 0.274412 0.593664
vt 0.135116 0.753619
vt 0.303722 0.871777
vt 0.258710 0.872119
vt 0.249633 0.856872
vt 0.674086 0.843509
vt 0.645472 0.809087
vt 0.840411 0.839141
vt 0.892817 0.824630
vt 0.307578 0.860642
vt 0.317100 0.735210
vt 0.384453 0.735928
vt 0.317091 0.799562
vt 0.241758 0.805115
vt 0.683396 0.866808
vt 0.598715 0.907739
vt 0.733199 0.907945
vt 0.788158 0.910799
vt 0.838691 0.912949
vt 0.412477 0.737312
vt 0.195667 0.802888
vt 0.129006 0.793098
vt 0.200667 0.857899
vt 0.130622 0.835325
vt 0.763448 0.679496
vt 0.344031 0.133918
vt 0.188889 0.867535
vt 0.369718 0.782747
vt 0.407279 0.776672
vt 0.371165 0.850790
vt 0.360329 0.166196
vt 0.850498 0.806217
vt 0.866805 0.821913
vt 0.137319 0.896870
vt 0.912899 0.842318
vt 0.221232 0.952392
vt 0.134855 0.929149
vt 0.267568 0.952965
vt 0.373261 0.868250
vt 0.397945 0.833762
vt 0.655762 0.816626
vt 0.669374 0.804821
vt 0.637958 0.818509
vt 0.801403 0.835652
vt 0.733974 0.841321
vt 0.440811 0.861845
vt 0.890093 0.931575
vt 0.358082 0.939374
vt 0.921400 0.868376
vt 0.334760 0.927643
vt 0.789150 0.917660
vt 0.732035 0.915552
vt 0.358443 0.167418
vt 0.303443 0.111068
vt 0.686746 0.906450
vt 0.375836 0.173255
vt 0.361160 0.173038
vt 0.625956 0.910854
vt 0.835876 0.920080
vt 0.878475 0.936513
vt 0.423765 0.176524
vt 0.428729 0.180534
vt 0.594112 0.896040
vt 0.440906 0.896566
vt 0.473878 0.159634
vt 0.503586 0.160193
vt 0.468513 0.133217
vt 0.495411 0.123333
vt 0.361309 0.105429
vt 0.349755 0.074844
vt 0.377277 0.128882
vt 0.366553 0.141339
vt 0.374551 0.160739
vt 0.390400 0.169440
vt 0.422644 0.171530
vt 0.442389 0.100936
vt 0.447211 0.082680
vt 0.443041 0.163562
vt 0.447802 0.143418
vt 0.428438 0.124011
vt 0.402808 0.151210
vt 0.392376 0.089656
vt 0.374942 0.031368
vt 0.393961 0.114264
vt 0.436797 0.038172
vt 0.415209 0.089732
vt 0.403576 0.009394
vt 0.408970 0.113920
vt 0.415566 0.925611
vt 0.370898 0.966455
vt 0.328975 0.955581
vt 0.229130 0.978604
vt 0.135602 0.950951
vt 0.265895 0.978282
vt 0.241388 0.702696
vt 0.193357 0.713246
vt 0.876536 0.752940
vt 0.140587 0.707321
vt 0.313481 0.705688
vt 0.374075 0.707316
vt 0.303371 0.933558
vt 0.298672 0.967716
vt 0.168784 0.839977
vt 0.157417 0.794532
vt 0.166393 0.751055
vt 0.192069 0.725242
vt 0.274775 0.858508
vt 0.294938 0.801195
vt 0.284934 0.765028
vt 0.659948 0.754112
vt 0.661909 0.770855
vt 0.429605 0.709285
vt 0.145103 0.793834
vt 0.151877 0.752245
vt 0.154842 0.731479
vt 0.192618 0.720129
vt 0.238747 0.716942
vt 0.380108 0.723949
vt 0.315653 0.723401
vt 0.812757 0.911956
vt 0.818251 0.837159
vt 0.813762 0.919566
vt 0.359776 0.170175
vt 0.702353 0.904668
vt 0.712375 0.898074
vt 0.475651 0.167784
vt 0.707630 0.842284
vn -0.094641 -0.972932 0.210823
vn -0.371374 -0.920154 0.124086
vn -0.000012 -0.999993 -0.003636
vn 0.104445 -0.972878 0.206398
vn 0.326173 -0.937904 0.118099
vn 0.421590 -0.906786 -0.000346
vn 0.310369 -0.946203 -0.091494
vn 0.066027 -0.980191 -0.186723
vn -0.120566 -0.970142 -0.210446
vn -0.371572 -0.919762 -0.126381
vn -0.486634 -0.873579 0.006841
vn 0.573414 -0.743246 -0.344647
vn 0.318087 -0.694372 -0.645498
vn -0.174829 -0.692196 -0.700214
vn 0.885930 0.097065 0.453550
vn 0.865304 0.205859 0.457024
vn 0.709768 0.692006 0.131743
vn 0.840222 0.306211 0.447507
vn 0.424057 0.898341 0.114715
vn 0.468800 0.876802 -0.106978
vn 0.402420 0.719001 -0.566653
vn 0.438418 0.651952 -0.618667
vn 0.479684 0.712321 -0.512350
vn 0.555575 0.778566 -0.291842
vn -0.894081 0.443722 -0.061071
vn -0.846618 0.524707 0.088994
vn -0.667837 0.707364 0.231584
vn -0.499690 0.801249 0.329105
vn -0.250542 0.932117 -0.261509
vn -0.182807 0.973624 -0.136523
vn -0.027164 0.941188 -0.336790
vn 0.792139 0.228623 0.565904
vn 0.803885 0.593066 0.045181
vn 0.742668 0.605011 0.287065
vn 0.803128 -0.127056 0.582102
vn 0.853242 -0.195359 0.483543
vn 0.941837 -0.144154 0.303584
vn -0.758896 -0.619745 0.199983
vn -0.356131 -0.334818 0.872392
vn 0.983051 0.149622 0.105944
vn 0.980193 0.005168 0.197977
vn 0.720147 0.012881 0.693702
vn 0.782334 0.065452 0.619411
vn 0.597362 0.692300 0.404820
vn -0.419020 -0.263712 0.868837
vn -0.390783 0.508374 0.767362
vn -0.691427 0.070672 0.718982
vn -0.637734 0.537333 0.551878
vn 0.508056 0.835453 -0.209517
vn 0.455524 0.875671 -0.160306
vn -0.202024 0.834071 0.513335
vn -0.041804 0.780200 0.624132
vn -0.218961 0.962319 -0.161241
vn -0.420902 0.866329 -0.268917
vn -0.298918 0.951977 -0.066236
vn -0.266928 0.935440 -0.231738
vn 0.220026 0.955639 -0.195811
vn 0.330508 0.940190 0.082505
vn 0.081046 0.855753 0.510998
vn 0.381032 0.895827 0.228710
vn -0.002851 0.786219 0.617942
vn 0.086898 0.987618 -0.130614
vn 0.161342 0.975631 -0.148704
vn -0.078930 0.988736 -0.127168
vn 0.408683 -0.559750 0.720873
vn 0.551559 0.510379 0.659770
vn -0.184906 0.972908 -0.138778
vn -0.092515 0.979542 -0.178715
vn -0.649525 -0.696154 -0.305757
vn -0.758148 -0.650379 -0.047110
vn 0.418862 0.126078 0.899255
vn 0.121418 0.026600 0.992245
vn -0.168322 0.073125 0.983016
vn -0.183404 0.092544 0.978672
vn -0.653267 -0.480736 0.584923
vn 0.565102 -0.663782 0.489952
vn -0.039298 -0.916682 0.397681
vn -0.869794 0.034988 0.492174
vn -0.286973 0.090605 0.953644
vn -0.756460 0.417714 0.503273
vn -0.171421 0.549289 0.817861
vn 0.224234 0.354447 0.907792
vn -0.275772 0.734987 0.619470
vn 0.298623 0.080980 0.950929
vn -0.029342 0.088683 0.995628
vn 0.123714 0.144060 0.981805
vn 0.842836 -0.538160 0.003454
vn 0.318630 -0.563222 0.762402
vn 0.698756 -0.642900 0.313719
vn -0.824723 0.532673 0.189981
vn -0.683085 0.428160 0.591670
vn -0.783609 0.551938 0.285170
vn -0.732562 0.501019 0.460796
vn -0.572400 0.806846 0.146140
vn -0.760127 0.322263 0.564228
vn -0.429976 0.890060 -0.151372
vn -0.893176 0.020270 0.449250
vn -0.906593 0.230245 0.353662
vn -0.912003 0.143037 0.384436
vn -0.912206 0.258384 0.317991
vn -0.922612 0.021310 0.385141
vn -0.894919 -0.168306 0.413271
vn -0.743931 -0.169934 0.646289
vn -0.937088 0.160545 0.309985
vn -0.783771 0.442027 0.436252
vn -0.948016 0.149847 0.280734
vn -0.693909 -0.351372 0.628513
vn -0.698390 -0.171223 0.694935
vn -0.730249 -0.467289 0.498375
vn -0.932736 0.078779 0.351849
vn -0.932736 0.078779 0.351849
vn -0.932736 0.078779 0.351849
vn -0.354663 0.140561 0.924368
vn -0.788454 0.224932 0.572491
vn -0.979734 -0.187680 -0.069990
vn -0.752343 -0.227551 0.618224
vn -0.411235 0.820766 0.396521
vn -0.813120 0.547655 0.197253
vn -0.578777 0.745577 0.330352
vn -0.979316 0.169639 0.110283
vn 0.211870 -0.058096 0.975570
vn 0.742533 0.195507 0.640641
vn 0.026720 0.002431 0.999640
vn -0.388228 -0.209952 0.897329
vn -0.206941 0.886021 0.414900
vn -0.102722 0.925204 0.365302
vn 0.063728 -0.114004 0.991434
vn -0.039562 -0.084030 0.995678
vn -0.221380 -0.159850 0.961997
vn 0.979611 -0.187629 0.071812
vn 0.980754 -0.193135 0.028630
vn 0.988990 -0.147946 -0.003313
vn 0.885698 0.391889 0.248920
vn 0.679873 0.481811 0.552839
vn 0.592988 0.658649 0.463192
vn 0.204628 0.131012 0.970033
vn 0.869449 0.188932 0.456469
vn 0.192611 0.858376 0.475492
vn 0.180569 0.929673 0.321098
vn 0.980722 -0.194889 0.014212
vn 0.972520 0.172769 0.156066
vn 0.528489 0.689225 0.495649
vn 0.299362 0.231624 0.925599
vn -0.284355 0.015777 0.958589
vn -0.666102 0.460006 0.587114
vn -0.540241 0.317562 0.779291
vn -0.940147 0.166863 0.297121
vn -0.780333 0.432332 0.451852
vn -0.852136 -0.176800 0.492550
vn -0.769106 -0.381886 0.512483
vn -0.820051 -0.246790 0.516345
vn -0.578358 -0.078529 -0.811994
vn -0.764143 0.227722 -0.603514
vn -0.525604 0.195184 -0.828036
vn -0.608395 0.614930 -0.501715
vn -0.313039 0.588092 -0.745758
vn -0.386267 0.796543 -0.465098
vn 0.233405 0.917919 -0.320852
vn 0.331882 0.834767 -0.439338
vn 0.172048 0.918805 -0.355243
vn 0.119693 0.911439 -0.393640
vn 0.188407 0.893952 -0.406637
vn 0.073676 0.896281 -0.437324
vn -0.772882 0.283941 -0.567477
vn -0.803841 0.274800 -0.527565
vn -0.496118 0.189430 -0.847339
vn -0.324714 0.173227 -0.929814
vn 0.016050 0.201896 -0.979275
vn 0.142602 0.266778 -0.953150
vn -0.285979 0.839118 -0.462705
vn -0.160265 0.770310 -0.617202
vn 0.046855 0.768907 -0.637642
vn -0.538233 -0.774440 0.332486
vn -0.603511 -0.534317 0.591844
vn -0.559462 -0.676901 0.478338
vn -0.548059 -0.825967 0.131947
vn 0.415864 -0.057307 -0.907620
vn -0.552604 -0.141955 -0.821266
vn -0.877266 -0.355597 -0.322420
vn -0.928396 -0.152609 -0.338810
vn -0.878592 0.362220 0.311245
vn -0.982570 0.184823 -0.019903
vn -0.985335 0.043724 0.164935
vn -0.932822 -0.310336 0.183124
vn -0.877594 -0.455166 0.150506
vn -0.889481 -0.253260 0.380372
vn -0.887808 -0.005116 0.460186
vn -0.818892 -0.424720 0.386042
vn 0.233653 0.885694 -0.401188
vn -0.175840 0.347585 -0.921013
vn -0.098853 0.271122 -0.957456
vn -0.235850 0.147149 -0.960584
vn -0.093791 -0.100889 -0.990467
vn -0.302630 -0.265752 -0.915309
vn -0.109850 -0.395165 -0.912018
vn -0.361684 -0.932293 -0.003823
vn -0.357878 -0.823036 -0.441061
vn -0.484995 -0.868805 -0.099787
vn -0.199811 -0.565825 -0.799948
vn 0.057494 -0.034642 -0.997745
vn 0.028714 -0.081829 -0.996233
vn 0.000458 0.231204 -0.972905
vn 0.025588 0.251842 -0.967430
vn 0.821868 0.525462 -0.220054
vn 0.515507 0.693402 -0.503435
vn 0.001132 0.890021 -0.455918
vn -0.054737 0.871523 -0.487291
vn -0.024861 0.872988 -0.487108
vn -0.097186 0.884351 -0.456594
vn -0.157076 0.813952 -0.559294
vn -0.323945 0.781814 -0.532754
vn -0.491237 0.695791 -0.523986
vn -0.461580 0.728212 -0.506608
vn 0.570340 0.522343 -0.633933
vn 0.496892 0.631585 -0.595146
vn 0.757567 0.639664 -0.130081
vn 0.689820 0.720244 -0.073465
vn 0.196196 0.861528 -0.468269
vn 0.205599 0.946014 -0.250574
vn 0.923434 -0.176456 -0.340784
vn 0.924836 0.025538 -0.379508
vn 0.201229 -0.933324 -0.297343
vn 0.469759 -0.735383 -0.488403
vn 0.264747 -0.571305 -0.776865
vn 0.376332 -0.394084 -0.838494
vn 0.051803 -0.374689 -0.925702
vn 0.025407 -0.449255 -0.893042
vn 0.869492 0.091838 -0.485335
vn 0.990974 -0.127641 -0.040975
vn 0.797669 -0.406523 0.445492
vn 0.592253 -0.754876 0.281780
vn 0.636852 -0.631001 0.443009
vn 0.988205 -0.005448 -0.153040
vn 0.996158 -0.056266 -0.067107
vn 0.994251 -0.082959 -0.067689
vn 0.993463 -0.062430 -0.095568
vn -0.126683 0.870838 -0.474966
vn 0.492207 0.494832 -0.716152
vn 0.546745 0.225588 -0.806337
vn 0.572735 -0.389183 -0.721465
vn 0.560361 -0.828232 0.005173
f 2/2/1 1/1/2 52/33/3
f 3/5/4 2/2/1 52/33/3
f 4/7/5 3/5/4 52/33/3
f 5/21/6 4/7/5 52/33/3
f 6/10/7 5/9/6 52/57/3
f 7/13/8 6/10/7 52/57/3
f 8/15/9 7/13/8 52/57/3
f 9/17/10 8/15/9 52/57/3
f 10/19/11 9/17/10 52/57/3
f 1/1/2 10/23/11 52/33/3
f 6/10/7 7/13/8 16/11/12
f 16/11/12 7/13/8 17/14/13
f 17/14/13 7/13/8 18/16/14
f 18/16/14 7/13/8 8/15/9
f 51/80/15 78/78/16 43/96/17
f 51/80/18 43/96/17 73/122/19
f 73/122/19 43/96/17 74/121/20
f 81/58/21 76/86/22 80/101/23
f 80/101/23 76/86/22 77/102/24
f 91/104/25 81/58/26 90/103/27
f 90/103/27 81/58/26 80/101/28
f 91/104/29 90/103/30 53/113/31
f 42/62/32 56/72/33 61/71/34
f 51/80/18 61/71/35 78/78/36
f 78/78/36 61/71/35 56/72/37
f 1/1/2 2/2/1 11/4/38
f 11/4/38 2/2/1 12/3/39
f 56/72/40 42/62/32 35/61/41
f 35/61/41 42/62/32 34/60/42
f 50/82/43 51/80/18 70/123/44
f 70/123/44 51/80/18 73/122/19
f 104/133/45 105/134/46 49/70/47
f 49/70/47 105/134/46 71/126/48
f 80/101/23 77/102/24 79/114/49
f 79/114/49 77/102/24 71/115/50
f 90/103/27 80/101/28 89/116/51
f 89/116/51 80/101/28 79/114/52
f 70/117/53 73/109/54 88/118/55
f 88/118/55 73/109/54 87/108/56
f 105/119/57 79/114/49 71/115/50
f 97/112/58 98/120/59 87/108/60
f 87/108/60 98/120/59 88/118/61
f 89/116/51 79/114/52 98/120/59
f 98/120/59 79/114/52 88/118/61
f 98/120/62 97/112/63 53/113/31
f 89/116/64 98/120/62 53/113/31
f 90/103/30 89/116/64 53/113/31
f 104/133/65 50/82/43 105/134/66
f 105/134/66 50/82/43 70/123/44
f 105/119/67 70/117/53 79/114/68
f 79/114/68 70/117/53 88/118/55
f 19/18/69 9/17/10 20/20/70
f 20/20/70 9/17/10 10/19/11
f 10/23/11 1/1/2 20/24/70
f 20/24/70 1/1/2 11/4/38
f 18/16/14 8/15/9 19/18/69
f 19/18/69 8/15/9 9/17/10
f 61/71/34 60/35/71 42/62/32
f 42/62/32 60/35/71 41/42/72
f 60/35/71 58/36/73 41/42/72
f 41/42/72 58/36/73 110/139/74
f 58/36/75 104/133/45 49/70/47
f 50/82/43 60/35/76 51/80/18
f 51/80/18 60/35/76 61/71/35
f 50/82/43 104/133/65 60/35/76
f 60/35/76 104/133/65 58/36/77
f 31/53/78 32/46/79 39/55/80
f 39/55/80 32/46/79 40/37/81
f 110/139/82 58/36/83 40/37/81
f 34/60/42 42/62/32 33/45/84
f 33/45/84 42/62/32 41/42/72
f 110/139/74 111/140/85 41/42/72
f 41/42/72 111/140/85 33/45/84
f 111/140/86 110/139/82 32/46/79
f 32/46/79 110/139/82 40/37/81
f 5/9/6 6/10/7 15/12/87
f 15/12/87 6/10/7 16/11/12
f 12/3/39 2/2/1 13/6/88
f 13/6/88 2/2/1 3/5/4
f 4/7/5 14/8/89 3/5/4
f 3/5/4 14/8/89 13/6/88
f 5/21/6 15/22/87 4/7/5
f 4/7/5 15/22/87 14/8/89
f 67/66/90 48/68/91 66/69/92
f 77/124/93 76/125/94 48/68/95
f 48/68/95 76/125/94 66/69/96
f 77/124/93 48/68/95 71/126/48
f 71/126/48 48/68/95 49/70/47
f 106/136/97 107/135/98 115/145/99
f 115/145/99 107/135/98 57/56/100
f 106/136/101 108/137/102 31/53/78
f 31/53/78 108/137/102 21/26/103
f 106/136/101 31/53/78 107/135/104
f 107/135/104 31/53/78 39/55/80
f 40/37/81 58/36/83 39/55/80
f 39/55/80 58/36/83 59/59/105
f 59/59/105 107/135/106 39/55/80
f 48/68/95 67/66/107 59/59/108
f 59/59/108 67/66/107 57/56/109
f 59/59/108 58/36/75 48/68/95
f 48/68/95 58/36/75 49/70/47
f 107/135/110 59/59/111 57/56/112
f 99/127/113 100/128/114 12/3/39
f 12/3/39 100/128/114 11/4/38
f 100/128/114 101/130/115 11/4/38
f 11/4/38 101/130/115 20/24/70
f 108/137/102 109/138/116 21/26/103
f 118/148/117 117/147/118 100/128/119
f 100/128/119 117/147/118 101/130/120
f 33/45/84 23/43/121 34/60/42
f 34/60/42 23/43/121 24/44/122
f 23/43/121 33/45/84 112/141/123
f 112/141/123 33/45/84 111/140/85
f 22/25/124 32/46/79 21/26/103
f 21/26/103 32/46/79 31/53/78
f 118/148/117 100/128/119 119/149/125
f 119/149/125 100/128/119 99/127/126
f 109/138/116 22/25/124 21/26/103
f 22/25/124 112/141/127 32/46/79
f 32/46/79 112/141/127 111/140/86
f 112/141/128 22/25/129 23/43/121
f 103/132/130 114/144/131 25/52/132
f 25/52/133 120/150/134 103/132/135
f 102/131/136 13/6/88 103/132/137
f 103/132/137 13/6/88 14/8/89
f 13/6/88 102/131/136 12/3/39
f 12/3/39 102/131/136 99/127/113
f 120/150/134 121/151/138 103/132/135
f 103/132/135 121/151/138 102/131/139
f 119/149/125 99/127/126 121/151/138
f 121/151/138 99/127/126 102/131/139
f 114/144/140 103/132/137 15/22/87
f 15/22/87 103/132/137 14/8/89
f 34/60/42 24/44/122 35/61/41
f 35/61/41 24/44/122 25/52/141
f 120/150/142 25/52/141 24/44/122
f 120/150/142 24/44/122 121/151/143
f 121/151/143 24/44/122 23/43/121
f 121/151/143 23/43/121 119/149/144
f 119/149/144 23/43/121 22/25/129
f 118/148/145 119/149/144 109/138/146
f 109/138/146 119/149/144 22/25/129
f 117/147/147 118/148/145 108/137/148
f 108/137/148 118/148/145 109/138/146
f 116/146/149 117/147/150 108/137/151
f 115/145/99 116/146/149 106/136/97
f 106/136/97 116/146/149 108/137/151
f 123/153/152 37/40/153 122/152/154
f 122/152/154 37/40/153 47/51/155
f 122/152/154 47/51/155 124/154/156
f 124/154/156 47/51/155 75/91/157
f 76/92/94 75/91/157 66/79/96
f 66/79/96 75/91/157 47/51/155
f 82/63/158 75/85/159 81/58/21
f 81/58/21 75/85/159 76/86/22
f 82/63/160 83/88/161 124/155/162
f 124/155/162 83/88/161 69/89/163
f 92/105/164 82/63/165 91/104/25
f 91/104/25 82/63/165 81/58/26
f 92/105/164 93/106/166 82/63/165
f 82/63/165 93/106/166 83/88/167
f 93/106/166 94/107/168 83/88/167
f 83/88/167 94/107/168 84/93/169
f 92/105/170 91/104/29 53/113/31
f 93/106/171 92/105/170 53/113/31
f 94/107/172 93/106/171 53/113/31
f 55/64/173 54/65/174 37/40/175
f 123/153/176 55/64/173 37/40/175
f 17/14/13 18/16/14 27/29/177
f 27/29/177 18/16/14 28/30/178
f 18/16/14 19/18/69 28/30/178
f 28/30/178 19/18/69 29/31/179
f 55/64/180 28/30/178 29/31/179
f 57/67/181 54/65/182 38/41/183
f 37/40/175 54/65/174 67/81/107
f 67/81/107 54/65/174 57/67/109
f 37/40/153 67/81/90 47/51/155
f 47/51/155 67/81/90 66/79/92
f 19/18/69 20/20/70 29/31/179
f 29/31/179 20/20/70 101/129/115
f 29/31/179 30/32/184 55/64/180
f 30/32/184 38/41/183 55/64/180
f 55/64/180 38/41/183 54/65/182
f 29/31/179 101/129/185 30/32/184
f 116/146/186 115/145/187 30/34/184
f 30/34/184 115/145/187 38/54/183
f 116/146/186 30/34/184 117/147/188
f 117/147/188 30/34/184 101/130/185
f 115/145/187 57/56/181 38/54/183
f 82/63/158 124/155/189 75/85/159
f 124/154/190 69/83/191 122/152/192
f 122/152/192 69/83/191 46/50/193
f 122/152/192 46/50/193 123/153/194
f 123/153/194 46/50/193 64/76/195
f 123/153/196 64/76/197 55/64/198
f 55/64/198 64/76/197 28/30/199
f 126/157/200 45/49/201 125/156/202
f 125/156/202 45/49/201 68/84/203
f 44/47/204 72/87/205 43/48/17
f 43/48/17 72/87/205 74/90/20
f 84/93/206 85/97/207 68/94/208
f 68/94/208 85/97/207 125/158/209
f 72/98/210 85/97/211 74/100/212
f 74/100/212 85/97/211 86/99/213
f 87/108/56 73/109/54 86/99/213
f 86/99/213 73/109/54 74/100/212
f 94/107/168 95/110/214 84/93/169
f 84/93/169 95/110/214 85/97/215
f 85/97/215 95/110/214 86/99/216
f 86/99/216 95/110/214 96/111/217
f 86/99/216 96/111/217 87/108/60
f 87/108/60 96/111/217 97/112/58
f 95/110/218 94/107/172 53/113/31
f 96/111/219 95/110/218 53/113/31
f 97/112/63 96/111/219 53/113/31
f 26/27/220 16/11/12 27/29/177
f 27/29/177 16/11/12 17/14/13
f 27/29/177 62/74/221 26/27/220
f 127/159/222 62/74/223 65/77/224
f 65/77/224 62/74/223 27/29/225
f 126/157/200 127/159/226 45/49/201
f 45/49/201 127/159/226 65/77/227
f 43/48/17 78/95/16 44/47/204
f 44/47/204 78/95/16 36/38/228
f 114/142/131 113/143/229 25/28/132
f 63/73/230 62/74/231 36/38/232
f 63/73/233 56/75/40 35/39/41
f 36/38/232 78/95/36 63/73/230
f 63/73/230 78/95/36 56/75/37
f 25/28/141 63/73/233 35/39/41
f 113/143/229 63/73/234 25/28/132
f 16/11/12 26/27/220 15/12/87
f 15/12/87 26/27/220 114/142/140
f 26/27/220 113/143/235 114/142/140
f 63/73/236 113/143/235 62/74/221
f 62/74/221 113/143/235 26/27/220
f 64/76/195 46/50/193 65/77/227
f 65/77/227 46/50/193 45/49/201
f 69/83/191 68/84/203 46/50/193
f 46/50/193 68/84/203 45/49/201
f 83/88/161 84/93/206 69/89/163
f 69/89/163 84/93/206 68/94/208
f 64/76/197 65/77/224 28/30/199
f 28/30/199 65/77/224 27/29/225
f 125/158/237 85/97/211 72/98/210
f 125/156/238 72/87/205 126/157/239
f 126/157/239 72/87/205 44/47/204
f 127/159/240 126/157/239 36/38/228
f 36/38/228 126/157/239 44/47/204
f 62/74/231 127/159/241 36/38/232
