# This file uses centimeters as units for non-parametric coordinates.

v 0.068098 -0.024730 0.054124
v 0.076230 -0.030839 -0.026125
v 0.097870 -0.033812 -0.117396
v 0.081105 0.017734 0.054595
v 0.091108 0.017734 -0.025735
v 0.114038 0.018972 -0.116972
v 0.068098 0.060198 0.054124
v 0.076230 0.066306 -0.026125
v 0.097870 0.071757 -0.117396
v 0.025647 0.071195 0.052585
v 0.025290 0.078520 -0.027386
v 0.038407 0.084330 -0.117805
v -0.016804 0.060198 0.051046
v -0.020885 0.066306 -0.028670
v -0.007667 0.071757 -0.120161
v -0.029810 0.017734 0.050575
v -0.035762 0.017734 -0.029060
v -0.023835 0.018972 -0.120584
v -0.016804 -0.024730 0.051046
v -0.020885 -0.030839 -0.028670
v -0.007667 -0.033812 -0.120161
v 0.025647 -0.035728 0.052585
v 0.027672 -0.043418 -0.027398
v 0.045101 -0.047483 -0.118778
v 0.047849 0.017992 -0.171800
v 0.024388 0.020030 0.095912
v 0.025902 -0.018564 0.081883
v -0.014563 0.019769 0.081341
v 0.064937 0.019769 0.084320
v 0.025214 0.056613 0.084274
v 0.002263 0.018944 -0.154062
v 0.052962 -0.026730 -0.154429
v 0.089158 0.018944 -0.157629
v 0.044331 0.063233 -0.153441
v 0.081243 -0.009910 -0.156598
v 0.014960 0.050558 -0.153288
v 0.082699 0.040163 -0.156620
v 0.020318 -0.012867 -0.153987
v 0.000435 -0.007760 0.081147
v -0.002651 0.044728 0.082702
v 0.052797 0.044795 0.084782
v 0.053552 -0.005049 0.083206
vt 0.898634 0.613906
vt 0.878317 0.640767
vt 0.893401 0.649775
vt 0.915221 0.613233
vt 0.864659 0.672613
vt 0.871582 0.686316
vt 0.908486 0.658782
vt 0.922496 0.628154
vt 0.886929 0.685911
vt 0.917460 0.664140
vt 0.936254 0.625792
vt 0.892615 0.698875
vt 0.494538 0.488740
vt 0.465606 0.543710
vt 0.455087 0.537151
vt 0.477337 0.492985
vt 0.428974 0.593878
vt 0.425955 0.578272
vt 0.434994 0.524620
vt 0.467776 0.472052
vt 0.402212 0.577189
vt 0.894188 0.600674
vt 0.869343 0.635409
vt 0.850549 0.673757
vt 0.862989 0.700707
vt 0.924690 0.597375
vt 0.482003 0.449238
vt 0.389302 0.597892
vt 0.414901 0.512090
vt 0.444770 0.472677
vt 0.390792 0.556344
vt 0.404382 0.505531
vt 0.441014 0.455363
vt 0.375450 0.560501
vt 0.455978 0.453127
vt 0.474118 0.461881
vt 0.919456 0.606141
vt 0.905324 0.599470
vt 0.488673 0.470258
vt 0.930843 0.612497
vt 0.396642 0.586121
vt 0.381935 0.578005
vt 0.856373 0.686373
vt 0.866465 0.694886
vt 0.410416 0.595756
vt 0.878756 0.699732
vt 0.861810 0.690960
vt 0.403803 0.591130
vt 0.870751 0.696576
vt 0.389165 0.581995
vt 0.464406 0.457194
vt 0.481218 0.465967
vt 0.925026 0.609250
vt 0.912622 0.602915
vn -0.097715 0.992807 0.069183
vn 0.525548 0.839133 0.140198
vn -0.029783 0.967230 -0.252151
vn 0.699356 0.679655 -0.221292
vn 0.596436 -0.789886 0.142633
vn 0.711370 -0.673811 -0.199826
vn 0.982908 -0.000121 0.184099
vn 0.957082 0.004793 -0.289776
vn 0.827277 -0.247196 -0.504486
vn 0.852873 0.014831 -0.521908
vn -0.768200 0.640060 -0.013882
vn -0.563536 0.763174 -0.316217
vn -0.260712 0.779474 -0.569606
vn 0.065739 0.808946 -0.584195
vn 0.343044 0.662273 -0.666120
vn -0.003167 0.375795 -0.926697
vn 0.238742 0.264468 -0.934376
vn -0.015382 0.000180 -0.999882
vn 0.324261 0.009554 -0.945920
vn 0.820301 0.260360 -0.509234
vn -0.039134 -0.997015 0.066552
vn -0.007226 -0.965725 -0.259465
vn 0.377295 -0.710934 -0.593482
vn 0.096539 -0.827592 -0.552966
vn -0.260655 -0.773809 -0.577303
vn -0.587917 -0.699910 -0.405562
vn -0.018641 -0.363853 -0.931270
vn -0.266928 -0.292000 -0.918415
vn -0.362909 -0.020721 -0.931594
vn -0.740050 0.272145 -0.615031
vn -0.932454 0.047039 -0.358214
vn -0.742082 -0.094619 -0.663597
vn -0.259968 0.265223 -0.928479
vn 0.231875 -0.236537 -0.943549
vn -0.606455 -0.345916 -0.715930
vn -0.766612 -0.641688 -0.023279
vn -0.999978 0.000040 0.006605
vn -0.673532 0.693545 0.255636
vn -0.930505 -0.007250 0.366207
vn -0.838684 0.315416 0.443984
vn -0.894754 -0.031121 0.445474
vn -0.666502 -0.688433 0.286069
vn -0.794585 -0.337198 0.504909
vn 0.726989 0.607993 0.319110
vn 0.024688 0.948581 0.315571
vn 0.277793 0.844377 0.458104
vn -0.013443 0.908420 0.417843
vn -0.308369 0.839264 0.447822
vn -0.081827 -0.926809 0.366509
vn 0.609600 -0.711033 0.350457
vn -0.291094 -0.799300 0.525722
vn 0.056214 -0.825473 0.561636
vn 0.917974 0.001548 0.396639
vn 0.314542 -0.705681 0.634884
vn -0.026753 -0.342437 0.939160
vn 0.195807 -0.252388 0.947608
vn -0.036173 -0.027385 0.998970
vn 0.274611 -0.025905 0.961206
vn 0.193656 0.208669 0.958621
vn -0.035828 0.303691 0.952097
vn -0.349862 -0.039193 0.935981
vn -0.258979 -0.269571 0.927503
vn -0.267216 0.210433 0.940380
vn 0.817418 0.323038 0.476943
vn 0.878517 0.001596 0.477709
vn 0.796726 -0.318650 0.513508
f 11/10/1 8/7/2 12/12/3
f 12/12/3 8/7/2 9/9/4
f 2/2/5 3/5/6 5/3/7
f 5/3/7 3/5/6 6/6/8
f 6/6/8 9/9/4 5/3/7
f 5/3/7 9/9/4 8/7/2
f 3/5/6 35/47/9 6/6/8
f 6/6/8 35/47/9 33/44/10
f 14/15/11 11/14/1 15/18/12
f 15/18/12 11/14/1 12/17/3
f 15/18/12 12/17/3 36/48/13
f 36/48/13 12/17/3 34/45/14
f 12/12/3 9/9/4 34/46/14
f 34/46/14 9/9/4 37/49/15
f 34/46/16 37/49/17 25/25/18
f 25/25/18 37/49/17 33/44/19
f 9/9/4 6/6/8 37/49/20
f 37/49/20 6/6/8 33/44/10
f 23/23/21 24/24/22 2/2/5
f 2/2/5 24/24/22 3/5/6
f 35/47/23 3/5/6 32/43/24
f 32/43/24 3/5/6 24/24/22
f 32/42/24 24/34/22 38/50/25
f 38/50/25 24/34/22 21/31/26
f 32/42/27 38/50/28 25/28/18
f 25/28/18 38/50/28 31/41/29
f 15/18/12 36/48/30 18/21/31
f 18/21/31 36/48/30 31/41/32
f 31/41/29 36/48/33 25/28/18
f 25/28/18 36/48/33 34/45/16
f 33/44/19 35/47/34 25/25/18
f 25/25/18 35/47/34 32/43/27
f 38/50/35 21/31/26 31/41/32
f 31/41/32 21/31/26 18/21/31
f 20/29/36 21/31/26 23/32/21
f 23/32/21 21/31/26 24/34/22
f 17/19/37 14/15/11 18/21/31
f 18/21/31 14/15/11 15/18/12
f 17/19/37 18/21/31 20/29/36
f 20/29/36 18/21/31 21/31/26
f 13/16/38 16/20/39 40/52/40
f 40/52/40 16/20/39 28/36/41
f 14/15/11 17/19/37 13/16/38
f 13/16/38 17/19/37 16/20/39
f 16/20/39 17/19/37 19/30/42
f 19/30/42 17/19/37 20/29/36
f 19/30/42 39/51/43 16/20/39
f 16/20/39 39/51/43 28/36/41
f 7/8/44 8/7/2 10/11/45
f 10/11/45 8/7/2 11/10/1
f 7/8/44 10/11/45 41/53/46
f 41/53/46 10/11/45 30/40/47
f 10/13/45 11/14/1 13/16/38
f 13/16/38 11/14/1 14/15/11
f 13/16/38 40/52/48 10/13/45
f 10/13/45 40/52/48 30/39/47
f 20/29/36 23/32/21 19/30/42
f 19/30/42 23/32/21 22/33/49
f 22/22/49 23/23/21 1/1/50
f 1/1/50 23/23/21 2/2/5
f 19/30/42 22/33/49 39/51/51
f 39/51/51 22/33/49 27/35/52
f 2/2/5 5/3/7 1/1/50
f 1/1/50 5/3/7 4/4/53
f 4/4/53 5/3/7 7/8/44
f 7/8/44 5/3/7 8/7/2
f 22/22/49 1/1/50 27/38/52
f 27/38/52 1/1/50 42/54/54
f 27/38/55 42/54/56 26/26/57
f 26/26/57 42/54/56 29/37/58
f 29/37/58 41/53/59 26/26/57
f 26/26/57 41/53/59 30/40/60
f 28/36/61 39/51/62 26/27/57
f 26/27/57 39/51/62 27/35/55
f 30/39/60 40/52/63 26/27/57
f 26/27/57 40/52/63 28/36/61
f 7/8/44 41/53/64 4/4/53
f 4/4/53 41/53/64 29/37/65
f 1/1/50 4/4/53 42/54/66
f 42/54/66 4/4/53 29/37/65
