# This file uses centimeters as units for non-parametric coordinates.

v 0.207896 -0.292849 -0.137449
v 0.085801 -0.300533 -0.202264
v -0.077278 -0.304225 -0.203243
v -0.167241 -0.300533 -0.161334
v 0.176760 -0.052086 -0.072395
v 0.064370 -0.049779 -0.146643
v -0.059751 -0.049779 -0.146643
v -0.173628 -0.049779 -0.071616
v 0.139643 0.074820 -0.085635
v 0.060968 0.074820 -0.143988
v -0.052726 0.074820 -0.143988
v -0.131796 0.074820 -0.085587
v 0.121697 0.155397 -0.063798
v 0.042970 0.155397 -0.106548
v -0.035758 0.155397 -0.106548
v -0.118644 0.166891 -0.065068
v 0.139275 0.179414 -0.029420
v 0.042970 0.210414 -0.030092
v -0.035758 0.210414 -0.030092
v -0.137789 0.173735 -0.029484
v 0.136650 0.177275 0.064585
v 0.042970 0.208274 0.063913
v -0.035758 0.208274 0.063913
v -0.135165 0.171595 0.064521
v 0.101795 0.146837 0.125983
v 0.042970 0.146837 0.148525
v -0.035758 0.146837 0.148525
v -0.094583 0.146837 0.125983
v 0.156776 0.043790 0.168213
v 0.060453 0.043790 0.213299
v -0.053241 0.043790 0.213299
v -0.149564 0.043790 0.168213
v 0.180330 -0.047486 0.176236
v 0.069195 -0.047486 0.221321
v -0.061983 -0.047486 0.221321
v -0.173118 -0.047486 0.176236
v 0.196885 -0.234135 0.128667
v 0.071005 -0.214281 0.209449
v -0.063793 -0.214281 0.209449
v -0.157632 -0.229341 0.152360
v 0.233023 -0.284144 0.072923
v 0.071005 -0.288938 0.086086
v -0.063793 -0.288938 0.086086
v -0.201568 -0.272921 0.018758
v 0.237189 -0.290640 -0.052778
v 0.071005 -0.294935 -0.050766
v -0.063793 -0.294935 -0.050766
v -0.195345 -0.284561 -0.086149
v -0.194666 -0.060636 0.045937
v -0.199039 -0.059566 -0.046832
v -0.165284 0.054180 0.052622
v -0.169074 0.067020 -0.032333
v 0.224056 -0.061396 0.073273
v 0.228429 -0.060326 -0.019495
v 0.194674 0.053420 0.079958
v 0.198464 0.066260 -0.014513
v -0.185239 0.129053 -0.006298
v 0.215888 0.134430 0.021904
v -0.167763 0.160552 -0.035766
v -0.166268 0.159118 0.020863
v -0.198165 0.102288 0.025921
v -0.201529 0.107205 -0.042014
v 0.198351 0.162224 0.047013
v 0.198784 0.165259 -0.006938
v 0.232683 0.111906 -0.014918
v 0.230852 0.103447 0.059201
v 0.005812 -0.257586 -0.136205
v 0.000707 -0.049779 -0.160543
v 0.006176 -0.294935 -0.050766
v -0.028495 -0.304225 -0.211995
v 0.039473 -0.300533 -0.211016
vt 0.890912 0.458874
vt 0.916808 0.470110
vt 0.899691 0.561269
vt 0.879734 0.564222
vt 0.789741 0.675691
vt 0.794540 0.652727
vt 0.834511 0.659799
vt 0.848297 0.691516
vt 0.884386 0.619559
vt 0.860729 0.622724
vt 0.885705 0.668749
vt 0.868502 0.693764
vt 0.703515 0.689355
vt 0.678333 0.691581
vt 0.662128 0.675778
vt 0.677209 0.626558
vt 0.713279 0.652461
vt 0.701672 0.624213
vt 0.747365 0.617705
vt 0.754632 0.652801
vt 0.805240 0.617629
vt 0.306121 0.588799
vt 0.256843 0.588758
vt 0.258420 0.585418
vt 0.308116 0.585460
vt 0.257947 0.578312
vt 0.748941 0.688673
vt 0.308009 0.578361
vt 0.343885 0.575150
vt 0.318653 0.523929
vt 0.373190 0.525427
vt 0.245965 0.523841
vt 0.220218 0.578848
vt 0.189736 0.524459
vt 0.324387 0.465950
vt 0.372934 0.465802
vt 0.248140 0.466786
vt 0.193153 0.466662
vt 0.331585 0.313515
vt 0.376451 0.326138
vt 0.243301 0.301944
vt 0.179796 0.304501
vt 0.167430 0.288140
vt 0.180237 0.470419
vt 0.625316 0.461464
vt 0.641167 0.467452
vt 0.673793 0.565086
vt 0.648730 0.559520
vt 0.736153 0.456512
vt 0.743138 0.572960
vt 0.736375 0.445374
vt 0.817175 0.578614
vt 0.132417 0.292033
vt 0.154485 0.465337
vt 0.180186 0.605773
vt 0.187975 0.582448
vt 0.152322 0.526169
vt 0.130418 0.530404
vt 0.170492 0.583127
vt 0.134525 0.607005
vt 0.138754 0.582702
vt 0.142416 0.563161
vt 0.119201 0.568214
vt 0.779615 0.580052
vt 0.389620 0.464144
vt 0.394751 0.534222
vt 0.401978 0.464204
vt 0.800426 0.461792
vt 0.401090 0.535363
vt 0.363407 0.596683
vt 0.362556 0.600185
vt 0.380771 0.589653
vt 0.834825 0.459584
vt 0.773126 0.444390
vt 0.386110 0.596650
vt 0.828604 0.445857
vt 0.767832 0.454908
vt 0.409907 0.560924
vt 0.779469 0.456501
vt 0.310752 0.293906
vt 0.246648 0.290511
vt 0.401566 0.558435
vt 0.391006 0.578710
vt 0.405824 0.303953
vt 0.418695 0.312629
vt 0.337495 0.289412
vt 0.247522 0.287561
vt 0.334869 0.291383
vn 0.181205 0.911345 -0.369613
vn -0.126148 0.943967 -0.304981
vn 0.165614 0.948143 0.271286
vn -0.180457 0.918087 0.352919
vn 0.106543 0.713744 0.692256
vn -0.106622 0.657478 0.745892
vn 0.188570 0.404481 0.894894
vn 0.450251 0.626544 0.636174
vn 0.595474 0.348036 0.724073
vn -0.189458 0.328761 0.925215
vn -0.510589 0.599961 0.615910
vn -0.665824 0.357123 0.655089
vn 0.199232 0.057638 0.978256
vn 0.716891 0.072348 0.693421
vn -0.199427 0.030580 0.979436
vn -0.793432 0.067390 0.604916
vn 0.203197 -0.388236 0.898879
vn 0.599022 -0.400772 0.693220
vn -0.198118 -0.538300 0.819135
vn -0.694354 -0.478763 0.537269
vn -0.760799 -0.622908 0.182128
vn -0.985347 0.104253 0.134988
vn -0.826254 -0.507003 -0.245465
vn -0.951234 0.129266 -0.280078
vn -0.656057 -0.451788 -0.604547
vn -0.727295 0.177793 -0.662896
vn -0.236617 0.580750 -0.778937
vn -0.483013 0.601641 -0.636182
vn -0.453461 0.751103 -0.479809
vn -0.907111 -0.012573 -0.420704
vn -0.669470 0.226496 -0.707467
vn -0.613789 0.640576 0.461439
vn -0.943347 0.140863 0.300424
vn -0.863844 0.501439 0.048299
vn -0.853125 0.519378 0.049236
vn -0.857946 0.510259 0.059699
vn -0.155830 -0.330367 -0.930900
vn -0.907658 -0.209042 0.363948
vn -0.562149 0.809268 0.170513
vn -0.148177 0.679371 -0.718678
vn -0.862582 0.501031 0.070147
vn -0.851841 0.518955 0.071083
vn 0.953943 0.105071 0.280986
vn 0.843669 0.241634 0.479411
vn 0.965690 0.155972 -0.207642
vn 0.798222 -0.024094 -0.601881
vn 0.391462 0.824166 0.409277
vn 0.499741 0.737145 -0.454837
vn 0.286522 0.594237 0.751524
vn 0.253043 0.726804 -0.638534
vn 0.507666 -0.387422 -0.769532
vn 0.814268 -0.425809 0.394531
vn 0.863844 0.501439 0.048299
vn 0.862581 0.501032 0.070147
vn 0.857946 0.510259 0.059699
vn 0.853126 0.519377 0.049238
vn 0.851841 0.518955 0.071085
vn 0.452560 0.566499 -0.688672
vn 0.639810 0.246464 -0.727941
vn 0.194479 0.607982 -0.769764
vn 0.284182 0.225791 -0.931804
vn -0.237727 0.265202 -0.934427
vn 0.710910 -0.620490 0.331056
vn 0.821991 -0.497755 -0.276713
vn 0.647856 -0.420304 -0.635317
vn 0.719916 0.179209 -0.670526
vn 0.045383 -0.934426 0.353254
vn -0.103315 -0.958616 0.265294
vn 0.017125 -0.999114 0.038457
vn -0.052205 -0.995717 0.076298
vn 0.272818 -0.636549 -0.721371
vn 0.398144 0.160704 -0.903136
vn -0.148804 0.128600 -0.980469
vn -0.158156 -0.646697 -0.746170
vn -0.392099 0.162767 -0.905409
vn -0.241897 -0.647787 -0.722398
vn 0.000000 -0.998830 0.048363
vn 0.211615 0.125841 -0.969218
vn -0.923700 -0.066873 -0.377235
vn -0.929397 -0.239952 -0.280437
vn -0.929397 -0.239952 -0.280437
vn -0.898514 -0.403587 -0.172600
vn 0.000000 -0.999226 0.039347
vn 0.932768 -0.210030 -0.292970
vn 0.916283 -0.024314 -0.399793
vn 0.932768 -0.210030 -0.292970
vn 0.906184 -0.386047 -0.172620
vn 0.156955 -0.636048 -0.755519
f 18/22/1 19/23/2 22/25/3
f 22/25/3 19/23/2 23/24/4
f 22/25/3 23/24/4 26/28/5
f 26/28/5 23/24/4 27/26/6
f 26/28/5 30/30/7 25/29/8
f 25/29/8 30/30/7 29/31/9
f 26/28/5 27/26/6 30/30/7
f 30/30/7 27/26/6 31/32/10
f 27/26/6 28/33/11 31/32/10
f 31/32/10 28/33/11 32/34/12
f 30/30/7 34/35/13 29/31/9
f 29/31/9 34/35/13 33/36/14
f 30/30/7 31/32/10 34/35/13
f 34/35/13 31/32/10 35/37/15
f 31/32/10 32/34/12 35/37/15
f 35/37/15 32/34/12 36/38/16
f 34/35/13 38/39/17 33/36/14
f 33/36/14 38/39/17 37/40/18
f 34/35/13 35/37/15 38/39/17
f 38/39/17 35/37/15 39/41/19
f 35/37/15 36/38/16 39/41/19
f 39/41/19 36/38/16 40/42/20
f 44/43/21 40/42/20 49/44/22
f 49/44/22 40/42/20 36/38/16
f 48/53/23 44/43/21 50/54/24
f 50/54/24 44/43/21 49/44/22
f 4/1/25 48/2/23 8/4/26
f 8/4/26 48/2/23 50/3/24
f 15/6/27 16/7/28 19/5/2
f 19/5/2 16/7/28 20/8/29
f 50/3/24 52/9/30 8/4/26
f 8/4/26 52/9/30 12/10/31
f 16/7/28 12/10/31 20/8/29
f 20/8/29 12/10/31 52/9/30
f 19/23/2 20/55/29 23/24/4
f 23/24/4 20/55/29 24/56/32
f 24/56/32 28/33/11 23/24/4
f 23/24/4 28/33/11 27/26/6
f 49/44/22 36/38/16 51/57/33
f 51/57/33 36/38/16 32/34/12
f 50/54/24 49/44/22 52/58/30
f 52/58/30 49/44/22 51/57/33
f 32/34/12 28/33/11 51/57/33
f 51/57/33 28/33/11 24/56/32
f 60/59/34 59/60/35 57/61/36
f 62/63/37 52/58/30 61/62/38
f 61/62/38 52/58/30 51/57/33
f 60/59/39 61/62/38 24/56/32
f 24/56/32 61/62/38 51/57/33
f 59/12/40 20/8/29 62/11/37
f 62/11/37 20/8/29 52/9/30
f 61/62/41 60/59/34 57/61/36
f 62/63/42 61/62/41 57/61/36
f 59/60/35 62/63/42 57/61/36
f 24/56/32 20/55/29 60/59/39
f 60/59/39 20/55/29 59/60/40
f 53/65/43 55/66/44 33/36/14
f 33/36/14 55/66/44 29/31/9
f 53/65/43 54/67/45 55/66/44
f 55/66/44 54/67/45 56/69/46
f 21/70/47 17/71/48 22/25/3
f 22/25/3 17/71/48 18/22/1
f 21/70/47 22/25/3 25/29/8
f 25/29/8 22/25/3 26/28/5
f 29/31/9 55/66/44 25/29/8
f 25/29/8 55/66/44 21/70/47
f 63/72/49 64/75/50 21/70/47
f 21/70/47 64/75/50 17/71/48
f 65/78/51 66/82/52 56/69/46
f 56/69/46 66/82/52 55/66/44
f 17/13/48 64/14/50 56/16/46
f 56/16/46 64/14/50 65/15/51
f 63/72/53 66/82/54 58/83/55
f 64/75/56 63/72/53 58/83/55
f 65/78/57 64/75/56 58/83/55
f 66/82/54 65/78/57 58/83/55
f 21/70/47 55/66/44 63/72/49
f 63/72/49 55/66/44 66/82/52
f 13/17/58 9/18/59 14/20/60
f 14/20/60 9/18/59 10/19/61
f 10/19/61 11/21/62 14/20/60
f 14/20/60 11/21/62 15/6/27
f 11/21/62 12/10/31 15/6/27
f 15/6/27 12/10/31 16/7/28
f 18/27/1 14/20/60 19/5/2
f 19/5/2 14/20/60 15/6/27
f 41/84/63 53/65/43 37/40/18
f 37/40/18 53/65/43 33/36/14
f 45/85/64 54/67/45 41/84/63
f 41/84/63 54/67/45 53/65/43
f 1/46/65 5/47/66 45/45/64
f 45/45/64 5/47/66 54/48/45
f 54/48/45 5/47/66 56/16/46
f 56/16/46 5/47/66 9/18/59
f 14/20/60 18/27/1 13/17/58
f 13/17/58 18/27/1 17/13/48
f 56/16/46 9/18/59 17/13/48
f 17/13/48 9/18/59 13/17/58
f 38/39/17 42/86/67 37/40/18
f 37/40/18 42/86/67 41/84/63
f 43/87/68 42/86/67 39/41/19
f 39/41/19 42/86/67 38/39/17
f 39/41/19 40/42/20 43/87/68
f 43/87/68 40/42/20 44/43/21
f 42/86/67 46/88/69 41/84/63
f 41/84/63 46/88/69 45/85/64
f 43/87/68 44/43/21 47/81/70
f 47/81/70 44/43/21 48/53/23
f 2/49/71 6/50/72 1/46/65
f 1/46/65 6/50/72 5/47/66
f 5/47/66 6/50/72 9/18/59
f 9/18/59 6/50/72 10/19/61
f 45/45/64 46/51/69 1/46/65
f 1/46/65 46/51/69 2/49/71
f 68/64/73 70/68/74 7/52/75
f 7/52/75 70/68/74 3/73/76
f 3/73/76 4/1/25 7/52/75
f 7/52/75 4/1/25 8/4/26
f 10/19/61 68/64/73 11/21/62
f 11/21/62 68/64/73 7/52/75
f 8/4/26 12/10/31 7/52/75
f 7/52/75 12/10/31 11/21/62
f 42/86/67 43/87/68 69/80/77
f 69/80/77 43/87/68 47/81/70
f 69/74/77 47/76/70 70/68/74
f 70/68/74 47/76/70 3/73/76
f 48/2/23 4/1/25 47/76/70
f 47/76/70 4/1/25 3/73/76
f 68/64/78 10/19/61 6/50/72
f 68/64/79 71/77/80 67/79/81
f 71/77/80 69/74/82 67/79/81
f 42/86/67 69/80/83 46/88/69
f 70/68/84 68/64/85 67/79/86
f 69/74/87 70/68/84 67/79/86
f 68/64/78 6/50/72 71/77/88
f 71/77/88 6/50/72 2/49/71
f 69/74/83 71/77/88 46/51/69
f 46/51/69 71/77/88 2/49/71
