# This file uses centimeters as units for non-parametric coordinates.

v -0.114680 -0.031632 0.098191
v -0.001159 -0.068555 0.107847
v 0.114800 -0.031632 0.100239
v -0.134648 0.087251 0.127166
v -0.001239 0.084509 0.177804
v 0.150053 0.091016 0.112444
v -0.114239 0.174912 0.114602
v -0.001596 0.146970 0.156768
v 0.121304 0.179610 0.112561
v -0.146131 0.228883 0.032180
v -0.000478 0.239077 0.031504
v 0.147152 0.228883 0.034797
v -0.115422 0.217884 -0.082726
v 0.000720 0.203109 -0.085729
v 0.120551 0.217884 -0.080620
v -0.135315 0.107383 -0.127405
v 0.001576 0.108242 -0.120534
v 0.147688 0.107383 -0.124880
v -0.116377 -0.012089 -0.088575
v 0.000582 -0.048386 -0.070190
v 0.119597 -0.012089 -0.086469
v -0.146739 -0.054005 -0.012449
v -0.000071 -0.129833 -0.014107
v 0.146543 -0.054005 -0.009831
v 0.180798 0.096806 0.016006
v -0.170934 0.096806 0.012867
v -0.004396 0.219890 0.060517
v 0.131188 0.210389 0.087004
v 0.163844 0.091917 0.080828
v 0.128722 -0.046376 0.051965
v -0.000696 -0.098906 0.055981
v -0.127474 -0.046403 0.054037
v -0.152670 0.091153 0.088162
v -0.132834 0.200832 0.088731
v -0.129809 0.223037 -0.028892
v -0.153069 0.102111 -0.057488
v -0.129530 -0.034290 -0.055596
v 0.000284 -0.086861 -0.053930
v 0.131571 -0.034500 -0.052415
v 0.165217 0.101783 -0.050292
v 0.132266 0.222728 -0.029790
v 0.000084 0.222201 -0.031496
v -0.001342 0.182692 0.128291
v -0.097788 0.216975 0.073727
v -0.113947 0.231136 0.032031
v -0.097077 0.222826 -0.029548
v 0.000480 0.210318 -0.075857
v 0.101169 0.222604 -0.030191
v 0.111788 0.231325 0.034008
v 0.089917 0.215465 0.082492
v -0.071176 0.200959 0.100373
v 0.060953 0.204579 0.094256
v 0.015064 0.204877 -0.100117
v 0.018545 0.108142 -0.136098
v 0.016813 -0.043436 -0.087125
v -0.011165 0.204621 -0.100717
v -0.009187 0.108174 -0.136773
v -0.011469 -0.044646 -0.087368
vt 0.144869 0.583480
vt 0.194985 0.566776
vt 0.193244 0.634538
vt 0.129568 0.637027
vt 0.244065 0.581082
vt 0.262733 0.637565
vt 0.187811 0.670554
vt 0.131410 0.680847
vt 0.247854 0.689979
vt 0.399279 0.916790
vt 0.123289 0.692540
vt 0.250739 0.711712
vt 0.859513 0.409227
vt 0.424724 0.933231
vt 0.790511 0.398178
vt 0.842554 0.401389
vt 0.726550 0.410255
vt 0.738849 0.398593
vt 0.791906 0.362281
vt 0.848655 0.361986
vt 0.737682 0.368755
vt 0.799142 0.317767
vt 0.849875 0.322456
vt 0.738270 0.338665
vt 0.795148 0.303851
vt 0.870772 0.313273
vt 0.718056 0.322155
vt 0.140158 0.579701
vt 0.195528 0.562650
vt 0.250522 0.574401
vt 0.720468 0.366379
vt 0.273584 0.639934
vt 0.873730 0.367110
vt 0.119375 0.635935
vt 0.396876 0.947145
vt 0.249286 0.700960
vt 0.269779 0.638920
vt 0.245631 0.578323
vt 0.195419 0.564713
vt 0.142130 0.580144
vt 0.121899 0.637057
vt 0.121685 0.686210
vt 0.850366 0.407688
vt 0.858066 0.363511
vt 0.861387 0.318701
vt 0.797323 0.308450
vt 0.729517 0.329953
vt 0.729935 0.366677
vt 0.731225 0.405751
vt 0.358035 0.940016
vt 0.187381 0.676814
vt 0.138223 0.685936
vt 0.844223 0.409274
vt 0.137293 0.693201
vt 0.835395 0.406619
vt 0.790679 0.400166
vt 0.745278 0.405208
vt 0.741825 0.410061
vt 0.235392 0.707835
vt 0.227107 0.695341
vt 0.151061 0.683553
vt 0.214333 0.689383
vt 0.369655 0.928377
vt 0.350552 0.957941
vt 0.398025 0.960516
vt 0.356761 0.982972
vt 0.397295 0.985261
vt 0.396784 1.002572
vt 0.439506 0.986350
vt 0.445062 0.960716
vt 0.436662 0.939272
vt 0.784328 0.398228
vt 0.785608 0.363033
vt 0.790840 0.320617
vt 0.796367 0.362257
vt 0.795837 0.398507
vt 0.804369 0.318250
vn -0.009065 -0.667373 0.744668
vn 0.011994 -0.129076 0.991562
vn -0.562839 -0.532372 0.632291
vn -0.610619 0.054685 0.790034
vn 0.561774 -0.538343 0.628169
vn 0.629969 0.042158 0.775475
vn 0.006392 0.460126 0.887831
vn -0.418488 0.488605 0.765593
vn 0.400049 0.487798 0.775896
vn -0.166474 0.659373 0.733154
vn -0.126374 0.820977 0.556800
vn -0.676017 0.473487 0.564633
vn 0.042361 0.770410 0.636140
vn 0.564711 0.633584 0.528841
vn 0.052344 0.992033 0.114589
vn 0.634949 0.764631 0.110362
vn 0.927061 -0.026002 0.374008
vn 0.999909 0.010188 0.008827
vn -0.725349 -0.636485 -0.262212
vn -0.726802 -0.597377 0.338970
vn -0.999837 0.011129 -0.014233
vn -0.918447 -0.027353 0.394597
vn -0.566310 0.803320 0.184312
vn -0.003164 0.876573 0.481259
vn -0.066580 0.853756 0.516399
vn -0.014765 0.855992 0.516777
vn 0.708358 -0.621037 0.335472
vn -0.002443 -0.898674 0.438609
vn -0.044515 0.998460 0.033105
vn 0.010037 0.885822 0.463918
vn 0.039420 0.875369 0.481845
vn -0.069018 0.992734 0.098567
vn -0.005120 0.991810 0.127619
vn -0.039821 0.876913 0.478997
vn 0.066410 0.993086 0.096796
vn 0.138596 0.655284 0.742559
vn 0.028932 0.622977 0.781705
vn 0.050840 0.667501 0.742871
vn 0.584996 0.783758 -0.208572
vn -0.029603 0.988721 -0.146814
vn 0.001414 -0.999413 -0.034226
vn 0.712921 -0.655966 -0.247896
vn 0.962239 0.027272 -0.270836
vn 0.427351 0.721475 -0.544835
vn 0.659932 0.025620 -0.750889
vn 0.023501 0.974861 -0.221573
vn 0.000260 0.965944 -0.258750
vn -0.600107 0.765903 -0.230791
vn 0.031877 0.988708 -0.146428
vn -0.669330 -0.494432 -0.554558
vn -0.957169 0.030651 -0.287904
vn -0.541798 0.113422 -0.832821
vn -0.493216 0.756863 -0.428833
vn -0.513691 -0.415229 -0.750804
vn -0.022589 0.974414 -0.223623
vn 0.338257 -0.058744 -0.939219
vn 0.375921 0.654025 -0.656457
vn 0.815219 0.015319 -0.578951
vn 0.725516 0.437559 -0.531195
vn -0.656467 0.459950 -0.597911
vn -0.378979 0.681779 -0.625741
vn -0.690887 0.008942 -0.722908
vn -0.175969 0.024167 -0.984099
vn 0.361808 -0.471945 -0.803967
vn 0.773734 -0.225667 -0.591955
vn -0.263091 -0.473049 -0.840837
vn -0.658648 -0.258225 -0.706755
vn 0.022131 -0.680404 -0.732503
vn 0.664339 -0.523522 -0.533459
vn 0.514529 -0.441850 -0.734866
vn -0.314455 0.868255 -0.383733
vn 0.000260 0.965944 -0.258749
vn 0.352547 0.862601 -0.362810
f 2/2/1 5/3/2 1/1/3
f 1/1/3 5/3/2 4/4/4
f 2/2/1 3/5/5 5/3/2
f 5/3/2 3/5/5 6/6/6
f 5/3/2 8/7/7 4/4/4
f 4/4/4 8/7/7 7/8/8
f 5/3/2 6/6/6 8/7/7
f 8/7/7 6/6/6 9/9/9
f 51/61/10 44/52/11 7/8/8
f 7/8/8 44/52/11 34/42/12
f 50/60/13 28/36/14 49/59/15
f 49/59/15 28/36/14 12/12/16
f 29/37/17 25/32/18 28/36/14
f 28/36/14 25/32/18 12/12/16
f 22/28/19 32/40/20 26/34/21
f 26/34/21 32/40/20 33/41/22
f 33/41/22 34/42/12 26/34/21
f 26/34/21 34/42/12 10/11/23
f 43/10/24 52/14/25 27/35/26
f 6/6/6 29/37/17 9/9/9
f 9/9/9 29/37/17 28/36/14
f 30/38/27 29/37/17 3/5/5
f 3/5/5 29/37/17 6/6/6
f 30/38/27 3/5/5 31/39/28
f 31/39/28 3/5/5 2/2/1
f 32/40/20 31/39/28 1/1/3
f 1/1/3 31/39/28 2/2/1
f 32/40/20 1/1/3 33/41/22
f 33/41/22 1/1/3 4/4/4
f 34/42/12 33/41/22 7/8/8
f 7/8/8 33/41/22 4/4/4
f 34/42/12 44/52/11 10/11/23
f 10/11/23 44/52/11 45/54/29
f 44/50/30 51/63/31 27/35/26
f 45/64/32 44/50/30 11/65/33
f 11/65/33 44/50/30 27/35/26
f 27/35/26 50/71/34 11/65/33
f 11/65/33 50/71/34 49/70/35
f 9/9/9 52/62/36 8/7/7
f 8/7/7 52/62/36 43/51/37
f 7/8/8 8/7/7 51/61/10
f 51/61/10 8/7/7 43/51/37
f 27/35/26 51/63/31 43/10/24
f 52/62/38 9/9/9 50/60/13
f 50/60/13 9/9/9 28/36/14
f 27/35/26 52/14/25 50/71/34
f 12/17/16 41/49/39 49/58/15
f 49/58/15 41/49/39 48/57/40
f 22/28/19 23/29/41 32/40/20
f 32/40/20 23/29/41 31/39/28
f 24/30/42 30/38/27 23/29/41
f 23/29/41 30/38/27 31/39/28
f 24/30/42 25/32/18 30/38/27
f 30/38/27 25/32/18 29/37/17
f 40/48/43 41/49/39 25/31/18
f 25/31/18 41/49/39 12/17/16
f 41/49/39 40/48/43 15/18/44
f 15/18/44 40/48/43 18/21/45
f 49/70/35 48/69/46 11/65/33
f 11/65/33 48/69/46 42/67/47
f 10/13/23 45/53/29 35/43/48
f 35/43/48 45/53/29 46/55/49
f 22/26/19 26/33/21 37/45/50
f 37/45/50 26/33/21 36/44/51
f 36/44/51 26/33/21 35/43/48
f 35/43/48 26/33/21 10/13/23
f 16/20/52 36/44/51 13/16/53
f 13/16/53 36/44/51 35/43/48
f 37/45/50 36/44/51 19/23/54
f 19/23/54 36/44/51 16/20/52
f 45/64/32 11/65/33 46/66/55
f 46/66/55 11/65/33 42/67/47
f 57/75/56 56/76/57 17/19/58
f 17/19/58 56/76/57 14/15/59
f 14/15/60 53/72/61 17/19/62
f 17/19/62 53/72/61 54/73/63
f 57/75/56 17/19/58 58/77/64
f 58/77/64 17/19/58 20/22/65
f 54/73/63 55/74/66 17/19/62
f 17/19/62 55/74/66 20/22/67
f 37/45/50 38/46/68 22/26/19
f 22/26/19 38/46/68 23/25/41
f 23/25/41 38/46/68 24/27/42
f 24/27/42 38/46/68 39/47/69
f 24/27/42 39/47/69 25/31/18
f 25/31/18 39/47/69 40/48/43
f 38/46/68 58/77/64 20/22/65
f 55/74/66 38/46/68 20/22/67
f 39/47/69 21/24/70 40/48/43
f 40/48/43 21/24/70 18/21/45
f 47/56/71 53/72/61 14/15/60
f 47/68/72 46/66/55 42/67/47
f 42/67/47 48/69/46 47/68/72
f 56/76/57 47/56/73 14/15/59
f 53/72/61 15/18/44 54/73/63
f 54/73/63 15/18/44 18/21/45
f 55/74/66 54/73/63 21/24/70
f 21/24/70 54/73/63 18/21/45
f 38/46/68 55/74/66 39/47/69
f 39/47/69 55/74/66 21/24/70
f 41/49/39 15/18/44 48/57/40
f 15/18/44 53/72/61 48/57/40
f 53/72/61 47/56/71 48/57/40
f 38/46/68 37/45/50 58/77/64
f 58/77/64 37/45/50 19/23/54
f 58/77/64 19/23/54 57/75/56
f 57/75/56 19/23/54 16/20/52
f 57/75/56 16/20/52 56/76/57
f 56/76/57 16/20/52 13/16/53
f 35/43/48 46/55/49 13/16/53
f 13/16/53 46/55/49 56/76/57
f 47/56/73 56/76/57 46/55/49
