# This file uses centimeters as units for non-parametric coordinates.

v -0.003745 -0.175150 -0.121535
v 0.004017 -0.149091 -0.220037
v -0.001920 -0.085162 0.212942
v -0.017794 0.018946 -0.132337
v 0.000867 0.049796 0.222052
v -0.008493 0.107767 -0.200006
v -0.001811 0.097557 0.186631
v -0.009064 0.230717 -0.154366
v 0.002987 0.168121 0.209854
v -0.004936 0.271715 -0.055306
v -0.005369 0.224107 0.053267
v 0.005479 0.028883 0.189222
v 0.003100 0.006160 0.194933
v -0.001652 -0.129082 0.226131
v 0.000759 -0.018361 0.198941
v 0.003213 -0.051484 0.208269
v -0.001973 -0.186033 0.137546
v -0.003183 -0.229805 -0.102296
v 0.002111 -0.148113 0.228761
v -0.002954 -0.183309 0.117154
v -0.002883 -0.316297 0.057176
v -0.002907 -0.307302 0.109630
v -0.002867 -0.325889 0.006691
v -0.002852 -0.329165 -0.055465
v -0.003758 -0.186300 -0.107741
v 0.000233 -0.178566 0.237294
v 0.143733 -0.163956 -0.092378
v 0.145250 -0.165207 -0.124412
v 0.001797 -0.199977 -0.185864
v 0.171160 -0.166707 -0.052169
v 0.172435 -0.135757 0.029506
v 0.146983 -0.076301 0.042965
v 0.172631 -0.078958 -0.072502
v 0.143307 -0.109079 0.108727
v 0.131293 -0.111886 0.089068
v 0.104191 -0.154621 0.090677
v 0.140656 -0.133932 0.105556
v 0.061062 -0.118769 0.211722
v 0.114194 -0.127032 0.162056
v 0.063952 -0.086547 0.194056
v 0.100379 -0.060171 -0.145796
v 0.053282 0.058701 -0.177495
v 0.131371 -0.060344 0.038712
v 0.115403 -0.005240 -0.008761
v 0.084278 -0.019830 0.133071
v 0.114852 -0.029858 0.120390
v 0.044883 0.007580 0.194250
v 0.057970 0.037753 0.216716
v 0.096740 0.142134 -0.170748
v 0.142425 0.019797 0.000797
v 0.140066 0.104605 0.182058
v 0.079895 0.053758 0.207032
v 0.096811 0.112149 0.229562
v 0.104656 0.231362 -0.119609
v 0.091086 0.018110 0.055244
v 0.123988 0.025122 0.073639
v 0.163534 0.067434 0.154786
v 0.171451 0.171898 0.139367
v 0.135293 0.091099 0.114093
v 0.103120 0.163794 0.206547
v 0.094024 -0.182847 -0.063671
v 0.073222 -0.228102 -0.071345
v 0.120741 -0.150532 0.032583
v 0.104956 -0.162519 0.005441
v 0.081473 -0.222477 -0.037674
v 0.102777 -0.215061 0.018793
v 0.078475 -0.012617 0.112859
v 0.105934 -0.009428 0.104668
v 0.101692 0.247958 -0.058299
v 0.145631 0.166408 0.003492
v 0.152806 0.200452 -0.047657
v 0.185933 0.125347 0.029917
v 0.158531 0.127853 0.069991
v 0.098589 0.207195 0.054075
v 0.097975 0.008764 0.109343
v 0.196095 0.111818 -0.015988
v 0.162900 0.087166 -0.061511
v 0.083987 -0.042391 0.131791
v 0.073161 -0.003457 0.146114
v 0.165204 0.178937 -0.087184
v 0.165219 0.145423 -0.108825
v 0.150925 0.028058 -0.085895
v 0.164963 -0.023553 -0.146698
v 0.094511 0.043990 0.170287
v 0.120169 -0.059484 0.108138
v 0.081629 -0.053461 0.144439
v 0.072109 -0.021478 0.175059
v 0.057528 -0.049068 0.201274
v 0.044198 -0.020676 0.190577
v 0.128778 -0.009396 0.046054
v 0.143047 -0.041174 0.057359
v 0.139903 -0.126702 0.122480
v 0.136302 -0.106249 0.129700
v 0.144548 -0.069052 0.077817
v 0.139780 -0.100063 0.076396
v 0.134836 -0.098990 0.092779
v 0.134078 -0.089065 0.082621
v 0.119465 -0.101593 0.138348
v 0.134944 -0.085307 0.112630
v 0.083673 -0.202639 0.080046
v 0.123030 -0.128077 0.071719
v 0.081519 -0.155413 0.128146
v 0.057815 -0.178742 0.142967
v 0.038814 -0.200602 0.117823
v 0.045852 -0.215884 0.105527
v 0.091213 -0.275420 0.070555
v 0.101896 -0.288401 0.018877
v 0.107667 -0.298627 -0.080586
v 0.128125 -0.159037 0.170982
v 0.129527 -0.177260 0.151891
v 0.058176 -0.151937 0.220750
v 0.056276 -0.173002 0.226493
v 0.097809 0.047549 -0.138445
v -0.002987 -0.231571 0.109682
v 0.055380 -0.288652 0.090126
v 0.070888 0.015770 0.149945
v -0.003171 -0.300108 -0.105599
v 0.064687 -0.298959 -0.091388
v -0.134702 -0.173385 -0.146408
v -0.114205 -0.167961 -0.119096
v -0.061578 -0.130226 0.220284
v -0.070042 -0.091264 0.203159
v -0.065407 0.039316 0.205690
v -0.081677 0.080277 0.220030
v -0.099778 0.146115 0.217811
v -0.105792 0.206253 0.053992
v -0.110274 0.246925 -0.058568
v -0.067690 0.022447 0.184757
v -0.065830 -0.043257 0.210963
v -0.102766 -0.193817 -0.070882
v -0.094535 -0.131440 0.190707
v -0.096629 -0.143301 0.190103
v -0.107100 -0.134234 0.167242
v -0.070807 -0.175829 0.145775
v -0.124023 -0.171121 0.100687
v -0.133450 -0.157664 0.124589
v -0.115104 -0.182428 0.142786
v -0.045765 -0.159649 0.228764
v -0.039432 -0.178835 0.231831
v -0.100621 -0.016243 0.024668
v -0.115973 0.023329 0.000349
v -0.103334 0.016948 0.046017
v -0.106492 0.003892 0.071243
v -0.103204 0.206846 -0.109897
v -0.132213 -0.166146 -0.181168
v -0.064719 0.028784 -0.146630
v -0.115198 0.116764 -0.156596
v -0.181654 0.120008 -0.094646
v -0.177209 0.168080 -0.069444
v -0.193502 0.095771 -0.024019
v -0.160583 0.069665 -0.030417
v -0.107087 0.017221 -0.115775
v -0.152079 0.019121 -0.096132
v -0.100369 -0.094458 0.157857
v -0.078006 -0.084757 0.175573
v -0.132820 -0.130008 0.121518
v -0.160687 0.202430 -0.045708
v -0.183821 0.104211 0.018756
v -0.149487 0.165801 0.003791
v -0.147472 0.104906 0.068575
v -0.125561 0.148392 0.092637
v -0.151090 -0.028342 -0.092982
v -0.172922 -0.110615 -0.061298
v -0.143917 -0.049296 0.042343
v -0.113210 -0.178464 0.003182
v -0.130065 -0.168340 0.032689
v -0.123065 -0.246188 0.020232
v -0.088346 -0.234265 -0.040584
v -0.046067 -0.206586 0.117852
v -0.096306 -0.180673 0.093501
v -0.051680 -0.220069 0.104745
v -0.061401 -0.292923 0.089492
v -0.088027 -0.209582 0.081782
v -0.099874 -0.291527 0.070139
v -0.057500 0.001623 0.183265
v -0.061171 -0.016369 0.193712
v -0.085879 0.024876 0.170738
v -0.071250 0.018502 0.166909
v -0.128230 0.079187 0.190898
v -0.067793 -0.006490 0.165518
v -0.159453 0.096667 0.113158
v -0.087841 -0.022425 0.107012
v -0.092025 0.012657 0.099867
v -0.082943 -0.017323 0.138166
v -0.094666 0.008926 0.125726
v -0.160299 0.065527 0.172793
v -0.080251 -0.237907 -0.075078
v -0.071239 -0.303538 -0.091744
v -0.152026 -0.307435 0.002115
v -0.114359 -0.305560 -0.081126
v -0.163913 -0.180483 -0.051041
v -0.151631 -0.102078 0.049931
v -0.125505 -0.133503 0.044897
v -0.114825 -0.037626 0.077194
v -0.139600 -0.123145 0.105539
v -0.108086 -0.169195 0.064925
v -0.129552 -0.119636 0.079717
v -0.130233 -0.104618 0.117727
v -0.115561 -0.088581 0.126612
v -0.125747 -0.116972 0.095958
v -0.147300 -0.093473 0.086871
v -0.082862 -0.052958 0.168525
v -0.075919 -0.033284 0.162293
v -0.114276 -0.051482 0.140802
v -0.086938 -0.017402 0.138553
v -0.134690 -0.063055 0.108548
v -0.117341 -0.029320 0.103589
v 0.055159 -0.025230 -0.178420
v -0.013541 -0.022155 -0.175856
v 0.099286 -0.014362 -0.142670
v -0.046180 -0.084323 -0.194198
v -0.138561 -0.052363 -0.162680
v -0.054650 -0.171837 -0.120411
v -0.063942 -0.185178 -0.164632
v -0.059703 -0.141222 -0.187085
v 0.074221 -0.174407 -0.150728
v 0.047475 -0.171262 -0.111408
v 0.059893 -0.097531 -0.176989
v 0.044668 -0.187311 -0.167029
v 0.116779 -0.184312 -0.140208
v -0.115379 -0.185349 -0.158004
v -0.104165 -0.165457 -0.190149
vt 0.763101 0.734065
vt 0.762703 0.741686
vt 0.693826 0.766457
vt 0.689851 0.745412
vt 0.263129 0.768777
vt 0.270250 0.783245
vt 0.241061 0.778829
vt 0.239331 0.766226
vt 0.301345 0.852193
vt 0.300107 0.862279
vt 0.243317 0.866287
vt 0.243680 0.858231
vt 0.269748 0.801403
vt 0.242678 0.800596
vt 0.722419 0.723178
vt 0.763030 0.727565
vt 0.287245 0.761194
vt 0.284435 0.751430
vt 0.303088 0.760243
vt 0.268043 0.732441
vt 0.293615 0.745018
vt 0.292185 0.746114
vt 0.278836 0.745764
vt 0.241608 0.738341
vt 0.261413 0.752530
vt 0.243734 0.729950
vt 0.262099 0.744380
vt 0.243021 0.732317
vt 0.664799 0.836535
vt 0.664278 0.890261
vt 0.334074 0.845087
vt 0.336943 0.824864
vt 0.649895 0.834561
vt 0.309492 0.777023
vt 0.298795 0.775501
vt 0.307896 0.767998
vt 0.343630 0.903556
vt 0.332445 0.846385
vt 0.651712 0.825667
vt 0.665938 0.915203
vt 0.659338 0.917603
vt 0.347493 0.795661
vt 0.648368 0.852409
vt 0.311347 0.729968
vt 0.285693 0.696403
vt 0.694859 0.802827
vt 0.242626 0.724395
vt 0.265395 0.722141
vt 0.285719 0.731261
vt 0.263900 0.687195
vt 0.244370 0.681536
vt 0.244381 0.651313
vt 0.265944 0.659276
vt 0.278901 0.695910
vt 0.244550 0.650115
vt 0.279203 0.666121
vt 0.243637 0.845072
vt 0.300814 0.843322
vt 0.280838 0.819948
vt 0.244624 0.815816
vt 0.311919 0.860688
vt 0.320843 0.842389
vt 0.308154 0.894865
vt 0.316641 0.880623
vt 0.323436 0.830045
vt 0.330376 0.905588
vt 0.332178 0.844040
vt 0.667102 0.810990
vt 0.668341 0.783647
vt 0.648413 0.811507
vt 0.715701 0.726471
vt 0.283241 0.662935
vt 0.699328 0.729950
vt 0.244711 0.648358
vt 0.705549 0.698875
vt 0.714114 0.701056
vt 0.330652 0.779735
vt 0.334538 0.759626
vt 0.305527 0.755149
vt 0.304899 0.749031
vt 0.340208 0.766891
vt 0.334848 0.772013
vt 0.333897 0.779325
vt 0.332114 0.767699
vt 0.334877 0.781825
vt 0.295366 0.793755
vt 0.303254 0.815163
vt 0.317933 0.810971
vt 0.326182 0.825331
vt 0.324395 0.796295
vt 0.319277 0.800031
vt 0.717615 0.701030
vt 0.762749 0.703996
vt 0.209412 0.761282
vt 0.193131 0.766760
vt 0.183068 0.852763
vt 0.186967 0.867627
vt 0.189264 0.796110
vt 0.762730 0.668176
vt 0.196447 0.757119
vt 0.193133 0.749715
vt 0.203828 0.741463
vt 0.221173 0.726615
vt 0.216354 0.727695
vt 0.193271 0.743219
vt 0.201759 0.733292
vt 0.214778 0.739131
vt 0.227757 0.724539
vt 0.152149 0.824924
vt 0.135681 0.832136
vt 0.143637 0.855933
vt 0.155308 0.845902
vt 0.692090 0.679803
vt 0.678081 0.677496
vt 0.676105 0.678520
vt 0.181872 0.768046
vt 0.168013 0.768666
vt 0.180509 0.755611
vt 0.762153 0.649525
vt 0.164107 0.933688
vt 0.190220 0.956806
vt 0.762400 0.651016
vt 0.132657 0.920649
vt 0.168216 0.928923
vt 0.155478 0.890613
vt 0.671628 0.745478
vt 0.156278 0.795227
vt 0.643220 0.776044
vt 0.663742 0.742375
vt 0.203555 0.696438
vt 0.179193 0.735547
vt 0.224853 0.713633
vt 0.205581 0.728452
vt 0.224824 0.687212
vt 0.222884 0.659295
vt 0.209959 0.695939
vt 0.209714 0.666152
vt 0.183900 0.843668
vt 0.178091 0.816765
vt 0.175936 0.860664
vt 0.167507 0.842117
vt 0.164885 0.829595
vt 0.178549 0.920813
vt 0.150755 0.877689
vt 0.163071 0.870626
vt 0.146069 0.860838
vt 0.800753 0.737143
vt 0.809955 0.758216
vt 0.816678 0.700972
vt 0.205997 0.662969
vt 0.876679 0.834260
vt 0.890900 0.824015
vt 0.160102 0.782082
vt 0.169870 0.755645
vt 0.145213 0.801119
vt 0.181587 0.746198
vt 0.177923 0.733235
vt 0.161254 0.758476
vt 0.155402 0.785329
vt 0.155307 0.774245
vt 0.162108 0.767207
vt 0.155377 0.784053
vt 0.165825 0.789184
vt 0.167395 0.814284
vt 0.164291 0.810158
vt 0.152297 0.797611
vt 0.893362 0.863750
vt 0.872071 0.878453
vt 0.873916 0.895683
vt 0.855317 0.925935
vt 0.843790 0.936240
vt 0.816409 0.956038
vt 0.816863 0.947300
vt 0.876778 0.899270
vt 0.895509 0.861794
vt 0.840840 0.807510
vt 0.899240 0.790647
vt 0.822154 0.704253
vt 0.814265 0.693255
vt 0.187897 0.873068
vt 0.191960 0.952490
vt 0.186909 0.926193
vt 0.241875 0.885437
vt 0.243879 0.942508
vt 0.244581 0.969558
vt 0.299640 0.957311
vt 0.822157 0.691061
vt 0.831707 0.706608
vt 0.326004 0.932650
vt 0.321243 0.928951
vt 0.301255 0.927512
vt 0.319051 0.913678
vt 0.297808 0.952953
vt 0.243971 0.961734
vt 0.149492 0.821977
vt 0.157469 0.846467
vt 0.165847 0.816642
vt 0.152006 0.836842
vt 0.163334 0.822847
vt 0.150312 0.811223
vt 0.352817 0.830974
vt 0.325721 0.881881
vt 0.341880 0.820106
vt 0.342283 0.834999
vt 0.329440 0.871827
vt 0.336157 0.799506
vt 0.328132 0.806230
vt 0.811029 0.693235
vt 0.806765 0.674233
vt 0.822705 0.672927
vt 0.819692 0.671907
vt 0.828305 0.751710
vt 0.825864 0.759430
vt 0.880920 0.762137
vt 0.857452 0.739584
vt 0.760934 0.762825
vt 0.727520 0.869073
vt 0.768144 0.855588
vt 0.710976 0.927103
vt 0.766291 0.908521
vt 0.685308 0.856637
vt 0.678848 0.910209
vt 0.809330 0.784797
vt 0.810309 0.854358
vt 0.848934 0.846146
vt 0.823435 0.910612
vt 0.766060 0.947971
vt 0.857999 0.902026
vt 0.770982 0.963469
vt 0.710955 0.957909
vt 0.711425 0.943356
vt 0.691133 0.922604
vt 0.668711 0.939074
vt 0.764633 0.829726
vt 0.740615 0.827433
vt 0.690797 0.825710
vt 0.836021 0.833561
vt 0.798987 0.836253
vt 0.780453 0.735484
vt 0.786381 0.749969
vt 0.786031 0.774219
vt 0.731288 0.752984
vt 0.737661 0.738006
vt 0.722620 0.786020
vt 0.744716 0.748155
vt 0.710357 0.760512
vt 0.800449 0.780765
vt 0.803654 0.756012
vn 0.631252 0.283250 0.722004
vn 0.062347 0.174506 0.982680
vn 0.410090 0.295464 0.862860
vn 0.045538 0.224677 0.973369
vn 0.406830 -0.207966 0.889517
vn 0.041358 -0.120278 0.991878
vn 0.347830 -0.610776 0.711314
vn -0.115747 -0.419412 0.900387
vn 0.525450 0.159739 0.835695
vn 0.109185 0.240378 0.964519
vn 0.700712 0.347950 0.622843
vn 0.776357 0.087200 0.624232
vn 0.914362 0.035957 0.403297
vn 0.049299 -0.998767 0.005827
vn 0.134467 -0.574064 -0.807694
vn 0.682636 -0.730554 0.017311
vn 0.886364 -0.295176 -0.356692
vn 0.073504 0.215950 0.973634
vn 0.399210 0.241180 0.884570
vn 0.026088 -0.982150 0.186283
vn 0.350747 -0.595033 0.723127
vn 0.019476 -0.404249 0.914442
vn 0.777800 0.186586 0.600177
vn 0.650937 0.339936 0.678767
vn 0.984185 -0.027597 -0.174980
vn 0.994161 -0.050725 -0.095244
vn 0.932392 0.050366 0.357923
vn 0.849517 -0.506085 0.148994
vn 0.745731 -0.665736 -0.026094
vn 0.751787 -0.631220 0.190731
vn 0.993630 -0.098901 -0.054013
vn 0.711382 -0.702804 0.001794
vn 0.978595 -0.016644 -0.205124
vn -0.313443 -0.733771 0.602771
vn 0.286526 -0.699048 0.655160
vn 0.414524 -0.899245 0.139742
vn 0.428557 -0.248862 0.868566
vn 0.161128 -0.227157 0.960436
vn 0.417992 -0.525867 0.740774
vn 0.419350 -0.581802 0.696887
vn 0.793851 -0.313121 0.521302
vn 0.349506 -0.919466 0.180079
vn 0.761200 -0.390494 0.517774
vn -0.036275 0.140787 0.989375
vn 0.465199 -0.096428 0.879939
vn 0.249082 0.182832 0.951068
vn 0.026040 0.328992 0.943974
vn 0.533403 -0.671681 0.514126
vn 0.757942 -0.445470 0.476530
vn 0.174927 -0.085735 0.980842
vn 0.825283 -0.157904 0.542194
vn 0.918619 0.157002 0.362614
vn 0.880489 -0.445223 0.162838
vn 0.968341 -0.050434 0.244482
vn 0.018714 -0.483062 -0.875386
vn 0.013620 0.045859 -0.998855
vn 0.253532 -0.296305 -0.920828
vn 0.604443 0.070568 -0.793517
vn 0.767085 -0.634471 0.095018
vn 0.810290 -0.269017 -0.520635
vn 0.322969 -0.939544 0.113786
vn 0.078207 -0.961127 -0.264798
vn 0.896258 0.400845 0.189854
vn 0.979751 -0.060634 -0.190817
vn 0.977487 0.031021 -0.208703
vn 0.703171 -0.549033 0.451789
vn 0.536072 -0.841235 0.070365
vn 0.890616 0.420469 -0.173233
vn 0.903527 -0.347789 -0.250363
vn 0.716071 -0.623295 0.314238
vn 0.911466 -0.237128 0.336154
vn 0.984766 -0.149360 -0.089042
vn 0.844218 0.340704 0.413783
vn 0.961606 -0.274195 -0.011465
vn 0.965596 0.084441 0.245955
vn 0.984211 0.168304 -0.054794
vn -0.692456 0.489521 0.529975
vn 0.942358 -0.158416 0.294729
vn 0.843334 0.246161 0.477696
vn 0.817343 0.214481 0.534742
vn 0.781237 0.437254 0.445509
vn 0.726960 0.310847 0.612293
vn 0.740070 0.290647 0.606482
vn 0.688794 0.048118 0.723359
vn -0.407681 0.180255 0.895156
vn -0.709469 0.141704 0.690343
vn -0.401163 -0.663344 0.631698
vn -0.282794 -0.665993 0.690276
vn -0.381287 0.234978 0.894095
vn -0.784851 0.253341 0.565533
vn -0.871634 0.084358 0.482844
vn -0.758492 -0.074701 0.647387
vn -0.123320 -0.977238 0.172621
vn -0.652756 -0.706062 0.274565
vn -0.612014 -0.771279 -0.174834
vn -0.939633 -0.194546 0.281499
vn -0.276037 0.096402 0.956300
vn -0.331735 -0.769361 0.545927
vn -0.955872 0.213884 0.201401
vn -0.984419 0.133349 0.114623
vn -0.976516 0.213727 0.027167
vn -0.946573 -0.225590 0.230455
vn -0.905051 0.255937 0.339674
vn -0.796889 -0.576135 0.181760
vn -0.957857 -0.247248 -0.146213
vn -0.795857 -0.604260 -0.038487
vn -0.919377 -0.389695 -0.053708
vn -0.795876 0.261848 0.545909
vn -0.824745 0.218503 0.521586
vn -0.839680 0.172774 0.514865
vn -0.889676 0.403163 -0.214327
vn -0.770305 0.634458 0.063991
vn -0.509830 0.609950 -0.606659
vn -0.480158 0.873306 0.082377
vn -0.921210 -0.023416 0.388361
vn -0.741728 0.519243 0.424531
vn -0.977067 -0.044328 0.208265
vn -0.791445 -0.550268 0.266121
vn -0.944654 0.114474 -0.307448
vn -0.991955 0.117716 0.046575
vn -0.783818 -0.597597 -0.168842
vn -0.892110 -0.279490 0.355000
vn 0.392682 -0.709749 0.584857
vn -0.232711 -0.680640 0.694676
vn -0.591496 -0.755085 0.282806
vn -0.389469 -0.355293 0.849753
vn -0.385165 -0.437703 0.812443
vn -0.155574 -0.253465 0.954753
vn -0.388374 -0.598221 0.700926
vn -0.730163 -0.220304 0.646783
vn -0.576727 -0.564280 0.590740
vn -0.234895 -0.946399 0.221705
vn -0.525759 0.109194 0.843596
vn -0.706188 0.457214 0.540604
vn -0.738743 -0.492134 0.460503
vn -0.433584 -0.715055 0.548362
vn -0.893979 0.112081 0.433865
vn -0.865727 0.450437 0.218229
vn -0.999207 0.024277 -0.031575
vn -0.702398 0.098760 0.704900
vn -0.752707 -0.445208 0.484996
vn -0.222959 -0.314051 -0.922855
vn -0.583679 0.039698 -0.811014
vn -0.656652 -0.480007 -0.581723
vn -0.961913 -0.271278 0.033658
vn -0.173262 -0.977569 0.119745
vn -0.854884 -0.372102 0.361542
vn -0.529875 -0.818800 0.220906
vn -0.607222 -0.590080 0.532059
vn -0.811351 0.582093 0.053646
vn -0.810739 0.527710 0.253426
vn -0.978625 0.168298 -0.118187
vn -0.913989 -0.400380 0.065732
vn -0.940111 -0.334894 0.063535
vn -0.757812 0.065194 0.649208
vn -0.890932 0.094427 0.444212
vn -0.992241 0.122312 -0.022295
vn -0.961166 0.127537 0.244732
vn -0.904571 -0.389786 0.172681
vn -0.759249 -0.620655 0.195777
vn -0.759183 -0.590093 0.274648
vn -0.836296 0.193914 0.512841
vn -0.749515 0.473736 0.462387
vn -0.768698 0.241840 0.592129
vn -0.907494 0.243914 0.341995
vn -0.124482 0.626012 -0.769814
vn -0.530948 0.035367 -0.846666
vn -0.064640 -0.172143 -0.982949
vn -0.821230 -0.072560 -0.565966
vn -0.245241 -0.167718 0.954844
vn -0.543654 0.775229 0.321654
vn -0.477314 0.323848 0.816881
vn 0.021465 0.091695 0.995556
vn -0.054824 0.660522 0.748802
vn -0.044103 0.987531 -0.151120
vn 0.511702 0.705004 -0.491050
vn 0.462586 0.864129 0.198232
vn 0.912089 0.303592 -0.275546
vn 0.729688 0.666814 0.151375
vn 0.702937 0.668026 0.244175
vn 0.398051 0.628553 0.668189
vn 0.953711 0.242076 0.178425
vn 0.323086 0.917858 0.230546
vn 0.461374 0.106666 -0.880770
vn -0.006533 0.932454 0.361229
vn -0.829298 0.549195 0.103200
vn -0.966928 0.160130 0.198517
vn -0.822190 -0.557905 -0.112898
vn -0.414396 0.831783 0.369342
vn -0.763154 -0.598436 -0.243865
vn -0.982503 -0.141776 -0.120782
vn -0.692658 -0.597808 0.403548
vn -0.814947 0.336568 0.471787
vn -0.635881 0.771580 0.017885
vn 0.510894 -0.726713 0.459212
vn 0.864328 0.450907 -0.222755
vn 0.993957 0.082263 0.072676
vn 0.891615 0.405293 -0.201890
vn 0.972041 -0.234607 -0.009760
vn 0.687359 0.429130 0.585991
vn 0.943855 0.306220 0.123967
vn 0.608626 -0.508798 0.608850
vn 0.908104 -0.363431 0.208001
vn 0.904800 -0.401999 -0.140479
vn 0.941636 0.335322 0.029679
vn 0.809120 0.201025 -0.552190
vn 0.683585 0.199075 0.702198
vn 0.757891 0.169691 0.629925
vn 0.957468 -0.171225 0.232242
vn 0.931020 -0.036121 -0.363177
vn 0.917793 -0.215673 -0.333378
vn 0.810991 0.545465 0.211571
vn 0.883917 0.249440 -0.395562
vn -0.938183 0.287479 -0.192793
vn -0.879936 0.450669 0.150369
vn -0.982060 0.035022 0.185286
vn -0.987675 -0.152675 -0.034466
vn -0.961975 -0.156855 -0.223611
vn 0.834642 0.019752 -0.550438
vn 0.711547 -0.107709 -0.694334
vn -0.613938 0.059260 -0.787127
vn -0.235353 0.131047 -0.963035
vn 0.529957 -0.781230 -0.329886
vn 0.285778 -0.159855 -0.944869
vn -0.067886 0.061480 -0.995797
vn 0.669929 0.051328 -0.740649
vn 0.187050 -0.937602 -0.293112
vn 0.838322 -0.307970 -0.449857
vn 0.853705 -0.493128 -0.167368
vn 0.517610 -0.049603 -0.854177
vn 0.238878 0.340049 -0.909562
vn 0.625965 0.022590 -0.779524
vn 0.062092 0.623517 -0.779341
vn -0.297726 0.408429 -0.862870
vn 0.018301 -0.960888 0.276332
vn -0.005346 -0.945888 0.324450
vn 0.435159 -0.863548 -0.254799
vn -0.089868 -0.892963 -0.441068
vn 0.657042 -0.086817 -0.748838
vn 0.209663 -0.283463 -0.935783
vn -0.048112 0.322393 -0.945382
vn -0.020670 0.326095 -0.945111
vn -0.048112 0.322393 -0.945382
vn 0.607446 0.045710 -0.793045
vn 0.465253 -0.078360 -0.881703
vn 0.596632 0.023186 -0.802180
vn -0.028194 -0.782189 -0.622403
vn 0.202404 -0.816187 -0.541177
vn -0.008516 -0.918362 0.395649
vn -0.113377 -0.978780 0.170689
vn 0.539180 -0.749400 -0.384297
vn 0.534698 -0.182215 -0.825164
vn 0.539180 -0.749400 -0.384297
vn 0.265400 -0.929833 0.254900
vn 0.654940 -0.533808 -0.534886
vn -0.487083 -0.775505 -0.401674
vn -0.193038 -0.883047 -0.427744
vn -0.606312 -0.783557 0.135732
vn -0.606932 -0.788626 0.098501
vn -0.271176 -0.395919 -0.877332
vn -0.392520 -0.909675 -0.135718
vn -0.797517 -0.356108 -0.486984
vn -0.756593 0.063540 -0.650792
vn -0.539067 0.549508 -0.638316
vn -0.189968 0.353993 -0.915752
vn -0.055395 -0.952632 0.299038
vn -0.000025 -0.935384 0.353635
vn 0.073859 -0.975424 -0.207588
vn -0.006660 -0.996978 -0.077397
vn -0.167310 0.358780 -0.918305
vn 0.045441 -0.409661 -0.911105
vn -0.094017 -0.872922 -0.478716
vn -0.075517 0.318444 -0.944929
vn -0.433995 -0.301788 -0.848866
vn -0.459523 -0.001818 -0.888164
vn -0.218906 -0.972244 -0.082600
vn -0.055395 -0.952632 0.299038
vn 0.058410 -0.776403 -0.627524
vn -0.064355 -0.776063 -0.627363
vn 0.058410 -0.776403 -0.627524
vn 0.180295 -0.765042 -0.618227
vn 0.183761 -0.899071 -0.397371
vn -0.273173 0.147793 -0.950544
vn -0.061985 -0.005513 -0.998062
vn 0.033666 -0.367162 -0.929548
vn 0.233800 -0.312545 -0.920681
f 40/6/1 3/7/2 38/5/3
f 38/5/3 3/7/2 14/8/4
f 52/10/5 5/11/6 48/9/7
f 48/9/7 5/11/6 12/12/8
f 40/6/1 88/13/9 3/7/2
f 3/7/2 88/13/9 16/14/10
f 39/17/11 109/18/12 92/19/13
f 103/20/14 36/21/15 110/23/16
f 110/23/16 36/21/15 37/22/17
f 109/18/12 110/23/16 92/19/13
f 92/19/13 110/23/16 37/22/17
f 19/24/18 111/25/19 14/8/4
f 14/8/4 111/25/19 38/5/3
f 38/5/3 111/25/19 39/17/11
f 39/17/11 111/25/19 109/18/12
f 17/26/20 103/20/14 112/27/21
f 112/27/21 103/20/14 110/23/16
f 110/23/16 109/18/12 112/27/21
f 112/27/21 109/18/12 111/25/19
f 26/28/22 112/27/21 19/24/18
f 19/24/18 112/27/21 111/25/19
f 26/28/22 17/26/20 112/27/21
f 93/34/23 98/35/24 92/19/13
f 92/19/13 98/35/24 39/17/11
f 37/22/17 34/36/25 92/19/13
f 92/19/13 34/36/25 93/34/23
f 98/35/24 40/6/1 39/17/11
f 39/17/11 40/6/1 38/5/3
f 76/40/26 72/41/27 50/33/28
f 50/33/28 72/41/27 55/43/29
f 63/73/30 66/75/31 64/71/32
f 64/71/32 66/75/31 65/76/33
f 20/47/34 104/48/35 17/26/20
f 17/26/20 104/48/35 103/20/14
f 36/21/15 103/20/14 102/49/36
f 103/20/14 104/48/35 102/49/36
f 105/50/37 114/51/38 115/53/39
f 115/53/39 114/51/38 22/52/40
f 105/50/37 100/54/41 104/48/35
f 104/48/35 100/54/41 102/49/36
f 115/53/39 21/55/42 106/56/43
f 105/50/37 104/48/35 114/51/38
f 114/51/38 104/48/35 20/47/34
f 100/54/41 105/50/37 106/56/43
f 106/56/43 105/50/37 115/53/39
f 21/55/42 115/53/39 22/52/40
f 13/57/44 47/58/45 12/12/8
f 12/12/8 47/58/45 48/9/7
f 88/13/9 89/59/46 16/14/10
f 16/14/10 89/59/46 15/60/47
f 47/58/45 13/57/44 89/59/46
f 89/59/46 13/57/44 15/60/47
f 52/10/5 48/9/7 84/61/48
f 84/61/48 48/9/7 116/62/49
f 53/63/50 52/10/5 51/64/51
f 51/64/51 52/10/5 84/61/48
f 79/65/52 116/62/49 47/58/45
f 47/58/45 116/62/49 48/9/7
f 55/38/29 72/37/27 56/67/53
f 56/67/53 72/37/27 73/66/54
f 117/99/55 18/93/56 118/113/57
f 118/113/57 18/93/56 62/92/58
f 66/75/31 107/114/59 65/76/33
f 65/76/33 107/114/59 108/115/60
f 23/119/61 24/122/62 107/114/59
f 107/114/59 24/122/62 108/115/60
f 107/72/59 66/45/31 106/56/43
f 106/56/43 66/45/31 100/54/41
f 23/74/61 107/72/59 21/55/42
f 21/55/42 107/72/59 106/56/43
f 118/113/57 24/122/62 117/99/55
f 118/113/57 62/92/58 108/115/60
f 108/115/60 62/92/58 65/76/33
f 24/122/62 118/113/57 108/115/60
f 32/128/63 30/126/64 33/69/65
f 63/73/30 64/71/32 31/129/66
f 31/129/66 64/71/32 30/126/67
f 32/128/68 31/129/66 30/126/67
f 34/36/25 37/22/17 35/79/69
f 35/79/69 37/22/17 36/21/15
f 102/49/36 101/80/70 36/21/15
f 35/79/69 36/21/15 101/80/70
f 102/49/36 100/54/41 101/80/70
f 66/45/31 63/44/30 100/54/41
f 100/54/41 63/44/30 101/80/70
f 63/44/30 31/78/66 101/80/70
f 101/80/70 31/78/66 95/81/71
f 97/82/72 99/83/73 34/36/25
f 34/36/25 99/83/73 93/34/23
f 97/82/72 34/36/25 96/84/74
f 96/84/74 34/36/25 35/79/69
f 101/80/70 95/81/71 35/79/69
f 35/79/69 95/81/71 96/84/74
f 94/85/75 95/81/71 32/77/76
f 32/77/76 95/81/71 31/78/66
f 94/85/77 97/82/72 96/84/74
f 95/81/71 94/85/78 96/84/74
f 88/13/9 40/6/1 86/86/79
f 86/86/79 40/6/1 98/35/24
f 79/65/52 47/58/45 87/87/80
f 87/87/80 47/58/45 89/59/46
f 87/87/80 45/88/81 79/65/52
f 79/65/52 45/88/81 67/89/82
f 86/86/79 87/87/80 88/13/9
f 88/13/9 87/87/80 89/59/46
f 93/34/23 99/83/73 98/35/24
f 98/35/24 99/83/73 86/86/79
f 99/83/73 85/90/83 86/86/79
f 86/86/79 85/90/83 78/91/84
f 87/87/80 86/86/79 45/88/81
f 45/88/81 86/86/79 78/91/84
f 97/82/72 94/85/75 99/83/73
f 99/83/73 94/85/75 85/90/83
f 14/8/4 3/7/2 121/94/85
f 121/94/85 3/7/2 122/95/86
f 128/96/87 12/12/8 123/97/88
f 123/97/88 12/12/8 5/11/6
f 122/95/86 3/7/2 129/98/89
f 129/98/89 3/7/2 16/14/10
f 131/100/90 133/101/91 132/102/92
f 134/103/93 137/104/94 135/106/95
f 135/106/95 137/104/94 136/105/96
f 136/105/96 137/104/94 133/101/91
f 133/101/91 137/104/94 132/102/92
f 121/94/85 138/107/97 14/8/4
f 14/8/4 138/107/97 19/24/18
f 131/100/90 132/102/92 121/94/85
f 121/94/85 132/102/92 138/107/97
f 17/26/20 139/108/98 134/103/93
f 134/103/93 139/108/98 137/104/94
f 138/107/97 132/102/92 139/108/98
f 139/108/98 132/102/92 137/104/94
f 19/24/18 138/107/97 26/28/22
f 26/28/22 138/107/97 139/108/98
f 26/28/22 139/108/98 17/26/20
f 143/110/99 142/111/100 140/109/101
f 140/109/101 142/111/100 141/112/102
f 140/152/103 141/167/104 153/151/105
f 153/151/105 141/167/104 151/168/106
f 141/167/104 150/169/107 151/168/106
f 133/101/91 131/100/90 154/117/108
f 154/117/108 131/100/90 155/116/109
f 136/105/96 133/101/91 156/118/110
f 156/118/110 133/101/91 154/117/108
f 121/94/85 122/95/86 131/100/90
f 131/100/90 122/95/86 155/116/109
f 149/170/111 157/171/112 144/173/113
f 144/173/113 157/171/112 127/172/114
f 157/171/112 149/170/111 158/174/115
f 158/174/115 149/170/111 150/169/107
f 157/120/112 158/123/115 159/124/116
f 159/124/116 158/123/115 160/125/117
f 150/169/107 141/167/104 158/174/115
f 158/174/115 141/167/104 142/175/118
f 168/179/119 167/187/120 165/178/121
f 165/178/121 167/187/120 166/188/122
f 20/47/123 17/26/20 169/132/124
f 169/132/124 17/26/20 134/103/93
f 135/106/95 170/133/125 134/103/93
f 134/103/93 170/133/125 169/132/124
f 171/134/126 172/135/127 114/51/128
f 114/51/128 172/135/127 22/52/129
f 171/134/126 169/132/124 173/136/130
f 173/136/130 169/132/124 170/133/125
f 172/135/127 174/137/131 21/55/132
f 20/47/123 169/132/124 114/51/128
f 114/51/128 169/132/124 171/134/126
f 174/137/131 172/135/127 173/136/130
f 173/136/130 172/135/127 171/134/126
f 21/55/132 22/52/129 172/135/127
f 13/57/44 12/12/8 175/138/133
f 175/138/133 12/12/8 128/96/87
f 16/14/10 15/60/47 129/98/89
f 129/98/89 15/60/47 176/139/134
f 176/139/134 15/60/47 175/138/133
f 175/138/133 15/60/47 13/57/44
f 178/141/135 128/96/87 177/140/136
f 177/140/136 128/96/87 123/97/88
f 128/96/87 178/141/135 175/138/133
f 175/138/133 178/141/135 180/142/137
f 159/124/116 160/125/117 161/143/138
f 161/143/138 160/125/117 181/144/139
f 177/140/136 179/145/140 186/146/141
f 161/143/138 181/144/139 179/145/140
f 179/145/140 181/144/139 186/146/141
f 117/99/55 188/209/142 18/93/56
f 18/93/56 188/209/142 187/208/143
f 190/210/144 189/211/145 168/179/119
f 168/179/119 189/211/145 167/187/120
f 189/211/145 190/210/144 23/119/146
f 23/119/146 190/210/144 24/122/62
f 173/136/130 167/130/120 174/137/131
f 174/137/131 167/130/120 189/150/145
f 21/55/132 174/137/131 23/74/146
f 23/74/146 174/137/131 189/150/145
f 188/209/142 117/99/55 24/122/62
f 168/179/119 187/208/143 190/210/144
f 190/210/144 187/208/143 188/209/142
f 24/122/62 190/210/144 188/209/142
f 193/215/147 191/212/148 166/188/122
f 191/212/148 165/178/121 166/188/122
f 192/214/149 191/212/148 193/215/147
f 143/110/99 140/109/101 194/155/150
f 194/155/150 140/109/101 164/127/151
f 156/118/110 195/156/152 136/105/96
f 136/105/96 195/156/152 135/106/95
f 195/156/152 196/157/153 135/106/95
f 135/106/95 196/157/153 170/133/125
f 170/133/125 196/157/153 173/136/130
f 196/157/153 166/131/122 173/136/130
f 173/136/130 166/131/122 167/130/120
f 197/158/154 193/154/147 196/157/153
f 196/157/153 193/154/147 166/131/122
f 154/117/108 199/159/155 156/118/110
f 156/118/110 199/159/155 198/160/156
f 200/161/157 195/156/152 198/160/156
f 198/160/156 195/156/152 156/118/110
f 196/157/153 195/156/152 197/158/154
f 197/158/154 195/156/152 200/161/157
f 201/162/158 192/153/159 197/158/154
f 197/158/154 192/153/159 193/154/147
f 192/153/159 201/162/158 164/127/151
f 164/127/151 201/162/158 194/155/150
f 201/162/160 200/161/157 198/160/156
f 197/158/154 200/161/157 201/162/161
f 129/98/89 202/163/162 122/95/86
f 122/95/86 202/163/162 155/116/109
f 203/164/163 176/139/134 180/142/137
f 180/142/137 176/139/134 175/138/133
f 129/98/89 176/139/134 202/163/162
f 202/163/162 176/139/134 203/164/163
f 155/116/109 202/163/162 154/117/108
f 154/117/108 202/163/162 199/159/155
f 202/163/162 204/165/164 199/159/155
f 199/159/155 204/165/164 206/166/165
f 199/159/155 206/166/165 198/160/156
f 198/160/156 206/166/165 201/162/158
f 144/173/113 8/227/166 147/226/167
f 147/226/167 8/227/166 6/220/168
f 149/170/111 144/173/113 148/228/169
f 148/228/169 144/173/113 147/226/167
f 149/170/111 148/228/169 150/169/107
f 150/169/107 148/228/169 151/168/106
f 123/97/88 124/180/170 177/140/136
f 177/140/136 124/180/170 179/145/140
f 126/181/171 127/121/114 159/124/116
f 159/124/116 127/121/114 157/120/112
f 125/182/172 126/181/171 161/143/138
f 161/143/138 126/181/171 159/124/116
f 124/180/170 125/182/172 179/145/140
f 179/145/140 125/182/172 161/143/138
f 124/180/170 7/183/173 125/182/172
f 125/182/172 7/183/173 9/184/174
f 8/227/166 10/229/175 54/231/176
f 54/231/176 10/229/175 69/230/177
f 80/232/178 54/231/176 71/233/179
f 71/233/179 54/231/176 69/230/177
f 72/41/27 76/40/26 71/233/179
f 71/233/179 76/40/26 80/232/178
f 73/66/54 72/37/27 70/190/180
f 70/190/180 72/37/27 71/189/179
f 60/191/181 58/192/182 74/193/183
f 74/193/183 58/192/182 70/190/180
f 71/189/179 69/186/177 70/190/180
f 70/190/180 69/186/177 74/193/183
f 53/63/50 51/64/51 60/191/181
f 60/191/181 51/64/51 58/192/182
f 8/227/166 144/173/113 10/229/175
f 10/229/175 144/173/113 127/172/114
f 6/220/168 8/227/166 49/219/184
f 49/219/184 8/227/166 54/231/176
f 10/185/175 127/121/114 11/194/185
f 11/194/185 127/121/114 126/181/171
f 5/11/6 52/10/5 7/183/173
f 7/183/173 52/10/5 53/63/50
f 60/191/181 9/184/174 53/63/50
f 53/63/50 9/184/174 7/183/173
f 123/97/88 5/11/6 124/180/170
f 124/180/170 5/11/6 7/183/173
f 11/194/185 126/181/171 9/184/174
f 9/184/174 126/181/171 125/182/172
f 60/191/181 74/193/183 9/184/174
f 9/184/174 74/193/183 11/194/185
f 74/193/183 69/186/177 11/194/185
f 11/194/185 69/186/177 10/185/175
f 182/195/186 183/196/187 143/110/99
f 143/110/99 183/196/187 142/111/100
f 183/196/188 160/125/117 142/111/118
f 142/111/118 160/125/117 158/123/115
f 203/164/163 205/197/189 202/163/162
f 202/163/162 205/197/189 204/165/164
f 185/198/190 186/146/141 181/144/139
f 182/195/186 185/198/191 183/196/187
f 160/125/117 183/196/188 181/144/139
f 181/144/139 183/196/188 185/198/190
f 185/198/192 184/199/193 178/141/135
f 178/141/135 184/199/193 180/142/137
f 186/146/141 185/198/192 177/140/136
f 177/140/136 185/198/192 178/141/135
f 143/110/99 194/155/150 182/195/186
f 182/195/186 194/155/150 207/200/194
f 184/199/193 182/195/186 205/197/189
f 182/195/186 207/200/194 205/197/189
f 205/197/189 203/164/163 184/199/193
f 184/199/193 203/164/163 180/142/137
f 206/166/165 204/165/164 207/200/194
f 207/200/194 204/165/164 205/197/189
f 207/200/194 194/155/150 206/166/165
f 206/166/165 194/155/150 201/162/158
f 185/198/192 182/195/186 184/199/193
f 50/31/195 55/38/196 44/32/197
f 90/201/198 44/32/197 55/38/196
f 59/202/199 73/66/54 58/192/182
f 58/192/182 73/66/54 70/190/180
f 68/203/200 90/201/198 56/67/201
f 90/201/198 55/38/196 56/67/201
f 116/62/49 75/204/202 84/61/48
f 84/61/48 75/204/202 57/205/203
f 84/61/48 57/205/203 51/64/51
f 57/205/203 59/202/199 51/64/51
f 51/64/51 59/202/199 58/192/182
f 75/204/204 59/202/199 57/205/203
f 68/203/200 75/204/202 67/89/82
f 75/204/204 56/67/53 59/202/199
f 59/202/199 56/67/53 73/66/54
f 91/206/205 43/42/206 90/201/198
f 90/201/198 43/42/206 44/32/197
f 43/42/206 91/206/205 32/77/76
f 32/77/76 91/206/205 94/85/75
f 116/62/49 79/65/52 75/204/202
f 75/204/202 79/65/52 67/89/82
f 90/201/198 68/203/200 91/206/205
f 91/206/205 68/203/200 46/207/207
f 67/89/82 45/88/81 68/203/200
f 68/203/200 45/88/81 46/207/207
f 45/88/81 78/91/84 46/207/207
f 46/207/207 78/91/84 85/90/83
f 46/207/207 85/90/83 91/206/205
f 91/206/205 85/90/83 94/85/75
f 75/204/208 68/203/200 56/67/201
f 44/39/209 82/29/210 50/33/28
f 50/33/28 82/29/210 77/30/211
f 50/33/28 77/30/211 76/40/26
f 43/70/212 83/68/213 44/39/209
f 44/39/209 83/68/213 82/29/210
f 32/128/63 33/69/65 43/70/212
f 43/70/212 33/69/65 83/68/213
f 153/151/105 162/176/214 140/152/103
f 140/152/103 162/176/214 164/177/215
f 192/214/216 164/177/215 163/213/217
f 163/213/217 164/177/215 162/176/214
f 192/214/216 163/213/217 191/212/218
f 81/222/219 77/30/211 113/221/220
f 113/221/220 77/30/211 82/29/210
f 148/228/169 147/226/167 152/225/221
f 152/225/221 147/226/167 146/224/222
f 152/225/221 153/151/105 148/228/169
f 148/228/169 153/151/105 151/168/106
f 49/219/184 54/231/176 81/222/219
f 81/222/219 54/231/176 80/232/178
f 81/222/219 80/232/178 77/30/211
f 77/30/211 80/232/178 76/40/26
f 62/92/58 61/15/223 65/76/33
f 65/76/33 61/15/223 64/71/32
f 49/219/184 42/217/224 6/220/168
f 6/220/168 42/217/224 4/218/225
f 81/222/219 113/221/220 49/219/184
f 49/219/184 113/221/220 42/217/224
f 4/218/225 146/224/222 6/220/168
f 6/220/168 146/224/222 147/226/167
f 82/29/210 210/236/226 113/221/220
f 64/71/32 61/15/223 30/126/67
f 30/126/67 61/15/223 27/4/227
f 28/3/228 33/69/65 27/4/229
f 27/4/229 33/69/65 30/126/64
f 28/3/228 41/46/230 33/69/65
f 33/69/65 41/46/230 83/68/213
f 82/29/210 83/68/213 210/236/231
f 210/236/231 83/68/213 41/46/230
f 113/221/220 210/236/226 42/217/224
f 42/217/224 210/236/226 208/235/232
f 209/234/233 4/218/225 208/235/234
f 208/235/234 4/218/225 42/217/224
f 217/243/235 1/1/236 219/245/237
f 219/245/237 1/1/236 29/2/238
f 218/244/239 219/245/237 2/216/240
f 2/216/240 219/245/237 29/2/238
f 209/234/241 208/235/242 2/216/243
f 210/236/231 41/46/230 208/235/244
f 208/235/244 41/46/230 218/244/245
f 208/235/246 218/244/239 2/216/240
f 216/242/247 218/244/245 220/246/248
f 220/246/248 218/244/245 41/46/230
f 27/4/249 217/243/250 220/246/248
f 220/246/248 217/243/250 216/242/247
f 219/245/251 218/244/252 216/242/253
f 217/243/254 219/245/251 216/242/253
f 220/246/255 41/46/230 28/3/228
f 27/4/229 220/246/255 28/3/228
f 165/178/121 130/149/256 168/179/119
f 168/179/119 130/149/256 187/208/143
f 165/178/121 191/212/148 130/149/256
f 130/149/256 191/212/148 120/147/257
f 119/148/258 120/147/259 163/213/217
f 163/213/217 120/147/259 191/212/218
f 222/247/260 221/248/261 145/223/262
f 145/223/262 221/248/261 119/148/258
f 212/237/263 222/247/260 145/223/262
f 119/148/258 163/213/217 145/223/262
f 145/223/262 163/213/217 162/176/214
f 162/176/214 212/237/263 145/223/262
f 212/237/264 162/176/214 152/225/221
f 152/225/221 162/176/214 153/151/105
f 211/238/265 212/237/264 146/224/222
f 146/224/222 212/237/264 152/225/221
f 213/239/266 120/147/267 214/240/268
f 214/240/268 120/147/267 221/248/269
f 211/238/270 146/224/222 209/234/233
f 209/234/233 146/224/222 4/218/225
f 61/15/223 62/92/58 25/16/271
f 25/16/271 62/92/58 18/93/56
f 25/16/271 130/149/256 213/239/272
f 213/239/272 130/149/256 120/147/257
f 18/93/56 187/208/143 25/16/271
f 25/16/271 187/208/143 130/149/256
f 211/238/273 209/234/241 2/216/243
f 215/241/274 211/238/275 2/216/240
f 214/240/276 215/241/274 29/2/238
f 29/2/238 215/241/274 2/216/240
f 213/239/277 214/240/276 1/1/236
f 1/1/236 214/240/276 29/2/238
f 25/16/278 213/239/279 1/1/280
f 217/243/281 25/16/278 1/1/280
f 25/16/271 217/243/282 61/15/223
f 61/15/223 217/243/282 27/4/227
f 221/248/261 120/147/259 119/148/258
f 212/237/283 211/238/284 222/247/285
f 222/247/285 211/238/284 215/241/286
f 221/248/269 222/247/285 214/240/268
f 214/240/268 222/247/285 215/241/286
