# This file uses centimeters as units for non-parametric coordinates.

v -0.020240 0.015399 0.060951
v -0.005213 0.017385 0.070229
v 0.008278 0.015528 0.059341
v -0.041857 0.049329 0.023594
v -0.018031 0.044844 0.013021
v 0.046986 0.047806 0.004471
v -0.038675 0.047431 -0.091751
v -0.003727 0.049750 -0.070579
v 0.041388 0.038800 -0.065753
v -0.057900 0.006542 -0.121096
v 0.010394 0.012978 -0.141200
v 0.058655 0.000665 -0.087768
v -0.047609 -0.065422 -0.126958
v 0.011886 -0.065274 -0.119805
v 0.050461 -0.066899 -0.107762
v -0.047954 -0.053639 0.020812
v -0.012795 -0.054493 0.014900
v 0.043103 -0.038585 0.001739
v -0.020654 -0.014908 0.059565
v -0.005202 -0.014270 0.068824
v 0.008672 -0.014775 0.057909
v -0.024070 -0.002371 0.063366
v -0.004927 -0.002245 0.072419
v 0.012378 -0.002206 0.061308
v 0.057341 0.003007 0.002137
v -0.051079 0.000924 0.024311
v -0.053980 0.054055 -0.045613
v -0.003912 0.055403 -0.049321
v 0.052604 0.041715 -0.032561
v 0.063570 0.002511 -0.043100
v 0.060402 -0.044446 -0.040783
v -0.003290 -0.057566 -0.056921
v -0.059554 -0.058977 -0.060498
v -0.071402 -0.002555 -0.062937
v -0.037384 0.008444 -0.145835
v 0.024932 -0.046637 -0.151418
v 0.044736 0.007447 -0.125415
v 0.005234 0.038791 -0.106968
v -0.027106 0.044872 -0.132990
v -0.026126 -0.039336 -0.155195
v 0.029342 0.034125 -0.110984
v 0.043162 -0.047121 -0.136992
v -0.035609 0.033104 0.051000
v -0.007898 0.042234 0.053473
v 0.045053 0.035023 0.035150
v 0.054964 -0.002640 0.033487
v 0.040391 -0.021884 0.030718
v -0.007224 -0.036581 0.048935
v -0.036781 -0.034803 0.046798
v -0.045228 -0.004690 0.045423
vt 0.156344 0.292354
vt 0.168733 0.291124
vt 0.167629 0.309865
vt 0.157097 0.305096
vt 0.192153 0.299386
vt 0.193155 0.312807
vt 0.151759 0.335750
vt 0.174008 0.337394
vt 0.174030 0.346911
vt 0.158489 0.356330
vt 0.195580 0.329334
vt 0.190570 0.344100
vt 0.155311 0.379990
vt 0.160232 0.373840
vt 0.174525 0.362378
vt 0.176541 0.377893
vt 0.185173 0.364229
vt 0.814775 0.348630
vt 0.809738 0.355911
vt 0.757380 0.349338
vt 0.759958 0.343198
vt 0.191705 0.370976
vt 0.197797 0.354384
vt 0.735588 0.347510
vt 0.737477 0.334619
vt 0.749710 0.340179
vt 0.748094 0.346195
vt 0.774800 0.321704
vt 0.822834 0.325444
vt 0.742134 0.314612
vt 0.832381 0.303099
vt 0.788230 0.304100
vt 0.790216 0.295017
vt 0.827078 0.293826
vt 0.758730 0.305808
vt 0.764230 0.295807
vt 0.169591 0.283430
vt 0.161108 0.287435
vt 0.806375 0.290636
vt 0.177259 0.288358
vt 0.169667 0.284087
vt 0.162984 0.288226
vt 0.175630 0.288948
vt 0.196123 0.300706
vt 0.197241 0.314512
vt 0.199996 0.334567
vt 0.151709 0.295413
vt 0.152531 0.305509
vt 0.143489 0.344214
vt 0.149559 0.369875
vt 0.789990 0.288009
vt 0.790379 0.284410
vt 0.822724 0.287933
vt 0.778055 0.291359
vt 0.774728 0.287839
vt 0.751602 0.291406
vt 0.750194 0.303448
vt 0.741319 0.315966
vt 0.841898 0.294450
vt 0.841212 0.302730
vt 0.833775 0.328089
vt 0.825348 0.350461
vt 0.816902 0.359191
vt 0.762036 0.353864
vn 0.009806 0.736317 0.676566
vn 0.049603 0.979317 0.196156
vn -0.552745 0.539515 0.635136
vn -0.493055 0.797691 0.347256
vn 0.609871 0.547407 0.573065
vn 0.544007 0.821242 0.172100
vn -0.575965 0.817206 0.020940
vn 0.119308 0.988634 -0.091479
vn -0.368438 0.898885 -0.237190
vn 0.167217 0.956830 -0.237727
vn 0.778177 0.621816 -0.088238
vn 0.610316 0.755875 -0.236998
vn -0.383790 0.248093 -0.889469
vn -0.196371 0.783189 -0.589961
vn 0.252946 0.474675 -0.843031
vn 0.207781 0.920570 -0.330723
vn 0.449435 0.802246 -0.392950
vn -0.462890 -0.817876 -0.341777
vn -0.284147 -0.274918 -0.918521
vn 0.062008 -0.937325 -0.342894
vn 0.344262 -0.284037 -0.894878
vn 0.699035 0.353007 -0.621881
vn 0.954591 0.210199 -0.211121
vn 0.725694 -0.373397 -0.577878
vn 0.592247 -0.790748 -0.154796
vn 0.074191 -0.987948 0.135845
vn -0.630655 -0.775980 -0.011388
vn 0.848435 -0.502750 0.165532
vn -0.728099 -0.569289 0.381815
vn 0.153917 -0.937206 0.312976
vn -0.499919 -0.531039 0.684162
vn 0.134802 -0.724269 0.676212
vn 0.576758 -0.751071 0.321315
vn 0.608017 -0.615523 0.501445
vn -0.424579 -0.398326 0.813061
vn 0.056163 -0.471084 0.880298
vn -0.527263 -0.115678 0.841791
vn 0.063853 0.019392 0.997771
vn 0.515323 -0.489238 0.703625
vn 0.544700 -0.139215 0.826995
vn -0.484034 0.227308 0.845010
vn 0.054509 0.349872 0.935210
vn 0.520911 0.286126 0.804229
vn 0.840985 -0.215593 0.496250
vn 0.984799 -0.047493 0.167077
vn 0.980407 0.187954 -0.058963
vn -0.751155 -0.054803 0.657847
vn -0.959832 0.055505 0.275030
vn -0.993716 0.109769 -0.021885
vn -0.900059 0.154775 -0.407357
f 44/2/1 5/3/2 43/1/3
f 43/1/3 5/3/2 4/4/4
f 44/2/1 45/5/5 5/3/2
f 5/3/2 45/5/5 6/6/6
f 27/7/7 28/8/8 7/10/9
f 7/10/9 28/8/8 8/9/10
f 29/11/11 9/12/12 28/8/8
f 28/8/8 9/12/12 8/9/10
f 35/13/13 39/14/14 11/16/15
f 11/16/15 39/14/14 38/15/16
f 9/12/12 41/17/17 8/9/10
f 8/9/10 41/17/17 38/15/16
f 13/18/18 40/19/19 14/21/20
f 14/21/20 40/19/19 36/20/21
f 37/24/22 12/25/23 42/27/24
f 42/27/24 12/25/23 15/26/25
f 14/21/20 32/28/26 13/18/18
f 13/18/18 32/28/26 33/29/27
f 14/21/20 15/26/25 32/28/26
f 32/28/26 15/26/25 31/30/28
f 16/31/29 17/32/30 49/34/31
f 49/34/31 17/32/30 48/33/32
f 18/35/33 47/36/34 17/32/30
f 17/32/30 47/36/34 48/33/32
f 19/39/35 20/51/36 22/53/37
f 22/53/37 20/51/36 23/52/38
f 21/54/39 24/55/40 20/51/36
f 20/51/36 24/55/40 23/52/38
f 22/38/37 23/37/38 1/42/41
f 1/42/41 23/37/38 2/41/42
f 24/40/40 3/43/43 23/37/38
f 23/37/38 3/43/43 2/41/42
f 46/56/44 47/36/34 25/57/45
f 25/57/45 47/36/34 18/35/33
f 46/44/44 25/45/45 45/5/5
f 45/5/5 25/45/45 6/6/6
f 30/58/46 31/30/28 12/25/23
f 12/25/23 31/30/28 15/26/25
f 29/11/11 30/46/46 9/12/12
f 9/12/12 30/46/46 12/23/23
f 50/59/47 26/60/48 49/34/31
f 49/34/31 26/60/48 16/31/29
f 50/47/47 43/1/3 26/48/48
f 26/48/48 43/1/3 4/4/4
f 34/61/49 10/62/50 33/29/27
f 33/29/27 10/62/50 13/18/18
f 27/7/7 7/10/9 34/49/49
f 34/49/49 7/10/9 10/50/50
f 4/4/4 5/3/2 27/7/7
f 27/7/7 5/3/2 28/8/8
f 5/3/2 6/6/6 28/8/8
f 28/8/8 6/6/6 29/11/11
f 6/6/6 25/45/45 29/11/11
f 29/11/11 25/45/45 30/46/46
f 18/35/33 31/30/28 25/57/45
f 25/57/45 31/30/28 30/58/46
f 31/30/28 18/35/33 32/28/26
f 32/28/26 18/35/33 17/32/30
f 32/28/26 17/32/30 33/29/27
f 33/29/27 17/32/30 16/31/29
f 26/60/48 34/61/49 16/31/29
f 16/31/29 34/61/49 33/29/27
f 4/4/4 27/7/7 26/48/48
f 26/48/48 27/7/7 34/49/49
f 35/63/13 11/64/15 40/19/19
f 40/19/19 11/64/15 36/20/21
f 11/64/15 37/24/22 36/20/21
f 36/20/21 37/24/22 42/27/24
f 38/15/16 41/17/17 11/16/15
f 11/16/15 41/17/17 37/22/22
f 7/10/9 39/14/14 10/50/50
f 10/50/50 39/14/14 35/13/13
f 8/9/10 38/15/16 7/10/9
f 7/10/9 38/15/16 39/14/14
f 35/63/13 40/19/19 10/62/50
f 10/62/50 40/19/19 13/18/18
f 9/12/12 12/23/23 41/17/17
f 41/17/17 12/23/23 37/22/22
f 15/26/25 14/21/20 42/27/24
f 42/27/24 14/21/20 36/20/21
f 2/41/42 44/2/1 1/42/41
f 1/42/41 44/2/1 43/1/3
f 2/41/42 3/43/43 44/2/1
f 44/2/1 3/43/43 45/5/5
f 3/43/43 24/40/40 45/5/5
f 45/5/5 24/40/40 46/44/44
f 21/54/39 47/36/34 24/55/40
f 24/55/40 47/36/34 46/56/44
f 47/36/34 21/54/39 48/33/32
f 48/33/32 21/54/39 20/51/36
f 49/34/31 48/33/32 19/39/35
f 19/39/35 48/33/32 20/51/36
f 22/53/37 50/59/47 19/39/35
f 19/39/35 50/59/47 49/34/31
f 22/38/37 1/42/41 50/47/47
f 50/47/47 1/42/41 43/1/3
