# This file uses centimeters as units for non-parametric coordinates.

v -0.075592 0.036000 0.096434
v -0.002576 0.049970 0.112406
v 0.051662 0.044768 0.124464
v -0.038246 0.048907 0.037413
v 0.006066 0.064484 0.029953
v 0.037493 0.046511 0.049304
v -0.002632 0.089904 -0.115771
v -0.047779 -0.005177 -0.124647
v 0.003783 -0.005904 -0.125989
v 0.087909 -0.001951 -0.101103
v -0.067767 -0.044827 -0.101402
v 0.003585 -0.075085 -0.098320
v 0.073491 -0.052046 -0.102226
v -0.054035 -0.028801 0.027462
v -0.002706 -0.054679 0.050091
v 0.046793 -0.032574 0.039773
v -0.049156 -0.066420 0.102856
v -0.017143 -0.089110 0.108874
v 0.030707 -0.073961 0.120953
v -0.068075 -0.024879 0.098244
v -0.002623 -0.004401 0.112630
v 0.045880 -0.004401 0.123486
v 0.030307 -0.020633 0.036759
v -0.057977 -0.016412 0.019727
v -0.056275 0.032739 -0.122254
v 0.063021 0.034393 -0.125521
v -0.083336 -0.057004 -0.045556
v 0.003433 -0.085083 -0.043005
v 0.087342 -0.053193 -0.034053
v 0.002076 0.124825 0.088500
v 0.024113 0.033769 -0.123741
v -0.004046 -0.072691 -0.000060
v 0.076098 -0.046780 -0.015378
v -0.073888 -0.001523 -0.051391
v 0.062751 -0.002952 -0.037115
v 0.001288 0.072933 -0.044233
v 0.046638 0.050739 -0.040636
v -0.052043 0.050725 -0.050322
v -0.077710 -0.041611 -0.011281
v -0.072598 -0.003596 -0.017915
v -0.050127 0.045767 -0.026103
v 0.082752 -0.066170 -0.058325
v 0.086463 -0.001631 -0.067252
v 0.057045 0.072180 -0.101793
v -0.081689 -0.057165 -0.072482
v 0.003246 -0.083978 -0.068485
v -0.000726 0.090142 -0.075654
v -0.077083 0.064640 -0.088637
v -0.074843 0.000013 -0.076192
vt 0.831470 0.093432
vt 0.799222 0.079324
vt 0.168619 0.151413
vt 0.132178 0.161596
vt 0.777267 0.064387
vt 0.212704 0.174791
vt 0.128567 0.157598
vt 0.169600 0.147378
vt 0.203837 0.169067
vt 0.172404 0.155854
vt 0.853076 0.083670
vt 0.214696 0.191801
vt 0.192626 0.176895
vt 0.767217 0.091843
vt 0.734700 0.093624
vt 0.125231 0.187583
vt 0.147527 0.179451
vt 0.173450 0.185117
vt 0.124193 0.218123
vt 0.761636 0.149230
vt 0.137532 0.221244
vt 0.743989 0.153386
vt 0.122720 0.293024
vt 0.163130 0.285394
vt 0.832271 0.148011
vt 0.233325 0.287116
vt 0.793017 0.139889
vt 0.214778 0.255499
vt 0.850148 0.153766
vt 0.134227 0.284462
vt 0.161385 0.280474
vt 0.193699 0.234794
vt 0.211238 0.233800
vt 0.851318 0.183323
vt 0.842159 0.182492
vt 0.840105 0.238773
vt 0.858827 0.257963
vt 0.806708 0.274055
vt 0.804392 0.242456
vt 0.753192 0.267815
vt 0.167167 0.233101
vt 0.195360 0.270935
vt 0.197504 0.279522
vt 0.164844 0.277400
vt 0.121660 0.237417
vt 0.125196 0.253669
vt 0.135163 0.234992
vt 0.164537 0.250392
vt 0.114650 0.252234
vt 0.762872 0.250763
vt 0.737558 0.228257
vt 0.759857 0.223463
vt 0.756887 0.187412
vt 0.735644 0.206019
vt 0.803643 0.176967
vt 0.849157 0.202834
vt 0.800966 0.206099
vt 0.755751 0.207400
vt 0.802634 0.222931
vt 0.847369 0.220720
vt 0.859518 0.205199
vt 0.862396 0.225975
vn -0.218297 -0.005852 0.975865
vn -0.217249 0.002946 0.976112
vn -0.204746 -0.000635 0.978815
vn -0.216424 0.005888 0.976282
vn -0.231444 0.005510 0.972833
vn -0.217756 0.007456 0.975975
vn -0.214932 0.003327 0.976623
vn -0.216444 0.004822 0.976283
vn -0.216456 0.006041 0.976274
vn -0.218795 0.309170 0.925496
vn -0.259219 0.308411 0.915253
vn -0.218795 0.309170 0.925496
vn -0.177990 0.309391 0.934129
vn 0.627028 -0.731984 -0.266526
vn 0.935236 -0.347080 0.069778
vn 0.984468 0.100572 -0.143904
vn 0.900189 0.419954 0.115322
vn 0.976134 -0.111092 -0.186604
vn 0.980664 0.189585 0.048537
vn 0.869425 0.469774 -0.153013
vn 0.869425 0.469774 -0.153013
vn 0.869425 0.469774 -0.153013
vn -0.763727 -0.635292 0.114567
vn -0.017764 -0.974246 -0.224786
vn -0.561428 -0.726742 -0.395783
vn -0.029041 -0.859391 -0.510494
vn -0.936687 -0.315383 -0.152157
vn -0.984419 0.121367 0.127234
vn -0.800640 0.591101 -0.097851
vn -0.944493 0.126383 -0.303248
vn -0.725737 0.605386 -0.326823
vn -0.725737 0.605386 -0.326823
vn -0.725737 0.605386 -0.326823
vn -0.341393 0.642790 -0.685764
vn 0.173949 0.691638 -0.700984
vn 0.173949 0.691638 -0.700984
vn 0.642638 0.554993 -0.528203
vn -0.844066 0.313943 0.434733
vn -0.897299 -0.202643 0.392162
vn -0.688659 0.693933 0.210252
vn -0.028550 -0.227849 -0.973278
vn 0.051487 -0.193341 -0.979780
vn -0.073255 -0.432887 -0.898467
vn -0.023131 -0.371205 -0.928263
vn 0.285917 -0.232751 -0.929558
vn 0.181352 -0.219681 -0.958568
vn 0.726725 -0.594302 -0.344494
vn 0.726062 -0.645580 -0.236771
vn 0.986474 0.131460 -0.097916
vn 0.985128 0.166986 0.040490
vn -0.022240 0.061898 -0.997835
vn -0.019306 0.066435 -0.997604
vn 0.659216 0.745568 0.097788
vn 0.924225 0.204194 0.322664
vn 0.852733 0.214349 0.476341
vn 0.020940 -0.959612 0.280547
vn -0.579093 -0.814674 0.030925
vn 0.091608 -0.968157 0.232980
vn 0.734533 -0.327906 0.594086
vn 0.786776 -0.492067 0.372631
vn -0.704401 -0.464068 -0.537085
vn -0.729219 -0.462639 -0.504188
vn -0.019814 -0.933835 -0.357154
vn -0.041482 -0.957374 -0.285857
vn 0.003564 0.993596 0.112936
vn 0.035813 0.995803 0.084220
vn -0.120817 -0.897161 0.424858
vn -0.862887 -0.392775 0.318046
vn 0.720116 0.376078 0.583094
vn 0.876808 0.305121 0.371630
vn 0.612642 -0.785210 0.090082
vn -0.131964 -0.990709 -0.032886
vn -0.959181 -0.282544 -0.011848
vn 0.610505 0.690449 -0.388027
vn 0.779033 0.518507 -0.352502
vn -0.020016 0.131178 -0.991157
vn -0.020016 0.131178 -0.991157
vn -0.020016 0.131178 -0.991157
vn -0.957095 0.284602 0.054503
vn -0.955598 0.281933 0.085711
vn -0.645994 0.477469 0.595580
vn -0.689939 0.570362 0.445725
vn 0.015631 0.877799 0.478774
vn -0.008471 0.876812 0.480759
vn -0.873510 -0.011416 -0.486672
vn -0.890025 -0.013976 -0.455697
vn -0.796654 0.078847 -0.599270
vn -0.680278 0.548876 -0.485753
vn -0.015424 0.999868 -0.005194
vn -0.039222 0.886846 -0.460397
vn -0.046861 0.080444 -0.995657
vn 0.120648 -0.165995 -0.978719
vn -0.047293 0.118281 -0.991853
vn -0.047293 0.118281 -0.991853
vn -0.047293 0.118281 -0.991853
vn -0.785227 0.600594 0.150686
vn -0.703571 0.683199 0.195517
vn -0.396241 0.892830 0.214122
vn 0.648703 0.676959 0.347723
vn 0.628206 0.634206 0.450710
vn -0.950802 0.203883 0.233255
vn -0.974414 0.224276 0.014734
f 18/2/1 21/5/2 17/1/3
f 17/1/3 21/5/2 20/11/4
f 18/2/1 19/14/5 21/5/2
f 21/5/2 19/14/5 22/15/6
f 20/4/4 21/3/2 1/7/7
f 1/7/7 21/3/2 2/8/8
f 21/3/2 22/6/6 2/8/8
f 2/8/8 22/6/6 3/9/9
f 30/10/10 1/7/11 2/8/12
f 3/9/13 30/10/10 2/8/12
f 19/14/14 16/20/15 22/15/16
f 22/15/16 16/20/15 23/22/17
f 3/9/18 22/6/16 6/13/19
f 6/13/19 22/6/16 23/12/17
f 30/10/20 3/9/21 6/13/22
f 14/25/23 15/27/24 17/1/25
f 17/1/25 15/27/24 18/2/26
f 16/20/15 19/14/14 15/27/24
f 15/27/24 19/14/14 18/2/26
f 17/1/25 20/11/27 14/25/23
f 14/25/23 20/11/27 24/29/28
f 4/17/29 24/16/28 1/7/30
f 1/7/30 24/16/28 20/4/27
f 1/7/31 30/10/32 4/17/33
f 4/17/34 30/10/35 5/18/36
f 30/10/35 6/13/37 5/18/36
f 40/34/38 39/35/39 24/29/28
f 24/29/28 39/35/39 14/25/23
f 40/19/38 24/16/28 41/21/40
f 41/21/40 24/16/28 4/17/29
f 8/37/41 9/38/42 11/36/43
f 11/36/43 9/38/42 12/39/44
f 10/40/45 13/50/46 9/38/42
f 9/38/42 13/50/46 12/39/44
f 42/52/47 13/50/48 43/51/49
f 43/51/49 13/50/48 10/40/50
f 8/23/41 25/30/51 9/24/42
f 9/24/42 25/30/51 31/31/52
f 37/32/53 6/13/19 35/33/54
f 35/33/54 6/13/19 23/12/17
f 35/54/54 23/22/17 33/53/55
f 33/53/55 23/22/17 16/20/15
f 32/55/56 27/56/57 28/57/58
f 32/55/56 28/57/58 33/53/59
f 33/53/59 28/57/58 29/58/60
f 45/60/61 11/36/62 46/59/63
f 46/59/63 11/36/62 12/39/64
f 42/52/47 46/59/63 13/50/48
f 13/50/48 46/59/63 12/39/64
f 36/41/65 5/18/66 37/32/53
f 37/32/53 5/18/66 6/13/19
f 33/53/55 16/20/15 32/55/67
f 32/55/67 16/20/15 15/27/24
f 15/27/24 14/25/23 32/55/67
f 27/56/68 32/55/67 39/35/39
f 32/55/67 14/25/23 39/35/39
f 4/17/29 5/18/66 41/21/40
f 41/21/40 5/18/66 36/41/65
f 35/54/69 33/53/59 43/51/70
f 33/53/59 29/58/60 43/51/70
f 42/52/71 43/51/70 29/58/60
f 46/59/72 42/52/71 28/57/58
f 28/57/58 42/52/71 29/58/60
f 45/60/73 46/59/72 27/56/57
f 27/56/57 46/59/72 28/57/58
f 44/42/74 43/28/49 26/43/75
f 26/43/75 43/28/49 10/26/50
f 7/44/76 31/31/77 25/30/78
f 40/34/79 34/61/80 39/35/39
f 39/35/39 34/61/80 27/56/68
f 48/46/81 38/47/82 47/48/83
f 47/48/83 38/47/82 36/41/84
f 8/23/85 49/49/86 25/30/87
f 25/30/87 49/49/86 48/46/88
f 47/48/89 44/42/74 7/44/90
f 7/44/90 44/42/74 26/43/75
f 31/31/91 26/43/92 9/24/42
f 9/24/42 26/43/92 10/26/45
f 31/31/93 7/44/94 26/43/95
f 45/60/61 49/62/86 11/36/62
f 11/36/62 49/62/86 8/37/85
f 40/19/79 41/21/96 34/45/80
f 34/45/80 41/21/96 38/47/97
f 41/21/96 36/41/98 38/47/97
f 44/42/99 47/48/83 37/32/100
f 37/32/100 47/48/83 36/41/84
f 44/42/99 37/32/100 43/28/70
f 43/28/70 37/32/100 35/33/69
f 49/62/101 45/60/73 34/61/102
f 34/61/102 45/60/73 27/56/57
f 48/46/81 49/49/101 38/47/82
f 38/47/82 49/49/101 34/45/102
f 25/30/87 48/46/88 7/44/90
f 7/44/90 48/46/88 47/48/89
