# This file uses centimeters as units for non-parametric coordinates.

v -0.099049 0.022208 0.022184
v -0.001759 -0.020121 0.054823
v 0.102411 0.025675 0.019963
v -0.101109 0.040585 0.025664
v -0.000432 0.013542 0.056556
v 0.102914 0.045971 0.020595
v -0.086455 0.136130 -0.001752
v -0.000204 0.144442 0.038466
v 0.092343 0.140772 -0.001616
v -0.100348 0.143393 -0.031543
v 0.001340 0.212474 -0.025869
v 0.101597 0.144114 -0.030431
v -0.057711 0.147870 -0.073520
v 0.000766 0.139175 -0.079635
v 0.062863 0.148272 -0.072406
v -0.093767 0.017848 -0.090188
v 0.002063 0.018323 -0.096474
v 0.105815 0.017848 -0.088260
v -0.096299 -0.028255 -0.057294
v 0.000753 -0.038333 -0.054226
v 0.100182 -0.028255 -0.055686
v -0.111999 -0.010167 -0.013778
v 0.000544 -0.052658 -0.017147
v 0.122962 -0.009179 -0.010761
v 0.125189 0.020770 -0.009526
v -0.115230 0.013233 -0.011115
v -0.051967 -0.019341 0.020024
v 0.059311 -0.015058 0.022687
v 0.040715 -0.038139 -0.056134
v -0.042078 -0.037656 -0.056541
v 0.017115 0.141382 -0.079166
v 0.024630 0.018120 -0.096960
v -0.013772 0.141152 -0.079458
v -0.017686 0.018117 -0.097072
v 0.101582 0.066078 -0.089543
v 0.015485 0.065985 -0.099089
v -0.011863 0.065841 -0.099459
v 0.001101 0.065077 -0.099791
v -0.093777 0.064649 -0.092100
v -0.036124 -0.001729 0.050299
v -0.034953 0.007367 0.040917
v -0.054696 0.139974 0.019380
v -0.035028 -0.021861 0.040199
v 0.036150 -0.003033 0.050759
v 0.035534 0.006032 0.042250
v 0.048945 0.140275 0.021942
v 0.036748 -0.019694 0.043532
v 0.096236 0.102148 -0.085324
v -0.115012 0.080172 -0.015819
v -0.099714 0.069211 0.016559
v -0.012470 0.098762 -0.096940
v 0.000798 0.098512 -0.096334
v -0.090212 0.103365 -0.086203
v 0.119171 0.079548 -0.013736
v 0.100737 0.073750 0.019033
v -0.051387 0.057714 0.040916
v 0.041854 0.056350 0.044344
v -0.000491 0.055471 0.056698
v 0.016851 0.099528 -0.096015
v -0.091646 0.105341 0.007310
v -0.054874 0.100551 0.034903
v 0.048101 0.101607 0.037813
v 0.000386 0.109018 0.056876
v 0.095512 0.112852 0.003181
v -0.001258 -0.040772 0.034368
vt 0.711311 0.385532
vt 0.708102 0.366095
vt 0.732012 0.363045
vt 0.732652 0.385522
vt 0.651763 0.382564
vt 0.665342 0.365217
vt 0.751317 0.385426
vt 0.755338 0.360315
vt 0.799757 0.393325
vt 0.799192 0.369411
vt 0.294811 0.337591
vt 0.336902 0.369534
vt 0.316856 0.356311
vt 0.798531 0.422310
vt 0.742116 0.405264
vt 0.162646 0.415141
vt 0.811718 0.434713
vt 0.153684 0.358619
vt 0.159249 0.402195
vt 0.339489 0.384781
vt 0.336797 0.419069
vt 0.793865 0.435904
vt 0.804314 0.358654
vt 0.819017 0.381024
vt 0.636042 0.374574
vt 0.658595 0.343867
vt 0.642768 0.430170
vt 0.317686 0.366757
vt 0.660107 0.416789
vt 0.167175 0.437590
vt 0.172702 0.391450
vt 0.179947 0.410686
vt 0.666904 0.434303
vt 0.193446 0.393910
vt 0.214986 0.416022
vt 0.165847 0.434305
vt 0.244087 0.390124
vt 0.286865 0.393371
vt 0.285572 0.418967
vt 0.241368 0.416129
vt 0.239481 0.448166
vt 0.330385 0.431218
vt 0.327886 0.443057
vt 0.335610 0.451988
vt 0.169231 0.379853
vt 0.196358 0.346582
vt 0.196200 0.368992
vt 0.242546 0.361855
vt 0.242018 0.339810
vt 0.270008 0.341861
vt 0.280645 0.366983
vt 0.316171 0.381998
vt 0.716312 0.405369
vt 0.729874 0.404916
vt 0.729067 0.437408
vt 0.713961 0.437973
vt 0.270741 0.327872
vt 0.270608 0.333882
vt 0.240324 0.322782
vt 0.240101 0.319702
vt 0.194423 0.336337
vt 0.201200 0.327985
vt 0.195350 0.338255
vt 0.166164 0.362092
vt 0.240574 0.332915
vt 0.741559 0.437592
vt 0.798315 0.475348
vt 0.786858 0.458221
vt 0.678688 0.459252
vt 0.718726 0.456263
vt 0.747648 0.456097
vt 0.734020 0.455067
vt 0.659875 0.473507
vt 0.731079 0.475980
vt 0.732459 0.350788
vn 0.051132 -0.582787 -0.811015
vn 0.001553 -0.596802 -0.802387
vn 0.038860 -0.323128 -0.945557
vn 0.006911 -0.249105 -0.968452
vn 0.102373 -0.405360 -0.908407
vn 0.102854 -0.582330 -0.806419
vn -0.027193 -0.330161 -0.943533
vn -0.042371 -0.580237 -0.813345
vn -0.086624 -0.408238 -0.908756
vn -0.088453 -0.575305 -0.813142
vn 0.497245 -0.683429 0.534483
vn 0.617294 -0.701624 0.355909
vn 0.555588 -0.080085 0.827592
vn -0.090191 0.026272 -0.995578
vn -0.040666 0.035487 -0.998542
vn -0.961244 0.035113 -0.273453
vn -0.974326 0.170636 0.146878
vn -0.869169 0.303851 -0.390153
vn -0.625472 -0.717565 0.306406
vn -0.995485 -0.090765 0.027763
vn -0.866758 -0.488300 -0.101456
vn -0.961277 -0.074660 -0.265277
vn 0.837347 -0.528036 -0.141521
vn 0.994726 -0.025304 0.099394
vn 0.967246 -0.097442 -0.234392
vn 0.959071 0.204903 0.195443
vn 0.963459 0.110460 -0.244020
vn 0.875711 0.332911 -0.349714
vn 0.062647 0.038621 -0.997288
vn 0.108876 0.030474 -0.993588
vn 0.011519 0.016292 -0.999801
vn 0.021425 0.190748 -0.981405
vn 0.052189 0.277182 -0.959399
vn 0.623356 0.024956 0.781540
vn -0.028786 0.276222 -0.960663
vn -0.111162 0.193393 -0.974804
vn 0.118635 0.188049 -0.974968
vn -0.734984 0.677659 0.024025
vn -0.700300 0.314119 0.641022
vn -0.630713 0.252214 0.733887
vn -0.187399 0.716760 -0.671667
vn -0.421818 0.232397 0.876391
vn -0.448195 0.479339 0.754556
vn -0.619961 0.530986 0.577669
vn 0.064304 0.203268 0.977009
vn 0.416212 0.278056 0.865709
vn -0.002592 0.514044 0.857760
vn 0.390144 0.582336 0.713213
vn -0.080622 0.996607 -0.016553
vn 0.697904 0.298909 0.650833
vn 0.612676 0.566269 0.551333
vn 0.668862 0.742059 0.044406
vn -0.666775 0.006234 0.745233
vn -0.318456 0.184859 0.929738
vn -0.335714 0.063770 0.939803
vn -0.141716 0.000187 0.989907
vn 0.031622 0.184345 0.982353
vn 0.319604 0.245500 0.915195
vn 0.342481 0.009610 0.939476
vn 0.609223 0.201118 0.767071
vn 0.201006 0.715578 -0.668988
vn 0.047435 0.682180 -0.729644
vn 0.012489 0.452640 -0.891606
vn -0.034615 0.686284 -0.726510
vn 0.406591 0.020768 0.913374
vn -0.027485 -0.409561 0.911869
vn 0.426385 -0.594338 0.681879
vn -0.026864 -0.703790 0.709900
vn -0.476112 -0.615909 0.627673
vn -0.450280 -0.003127 0.892882
vn -0.508763 -0.723913 0.465950
vn -0.609139 -0.203180 0.766595
vn -0.007834 -0.966556 0.256335
vn -0.009758 -0.998145 0.060100
vn -0.180485 -0.983573 -0.002951
vn -0.003973 -0.932789 -0.360402
vn 0.166748 -0.985864 -0.016382
f 29/2/1 20/3/2 32/1/3
f 32/1/3 20/3/2 17/4/4
f 32/1/3 18/5/5 29/2/1
f 29/2/1 18/5/5 21/6/6
f 17/4/4 20/3/2 34/7/7
f 34/7/7 20/3/2 30/8/8
f 34/7/7 30/8/8 16/9/9
f 16/9/9 30/8/8 19/10/10
f 28/11/11 24/12/12 3/13/13
f 16/9/9 39/14/14 34/7/7
f 34/7/7 39/14/14 37/15/15
f 39/14/16 49/17/17 53/22/18
f 22/23/19 26/24/20 19/10/21
f 19/10/21 26/24/20 16/9/22
f 49/17/17 39/14/16 26/24/20
f 26/24/20 39/14/16 16/9/22
f 24/26/12 21/6/23 25/25/24
f 25/25/24 21/6/23 18/5/25
f 54/27/26 35/29/27 48/33/28
f 36/53/29 35/29/30 32/1/3
f 32/1/3 35/29/30 18/5/5
f 38/54/31 36/53/29 17/4/4
f 17/4/4 36/53/29 32/1/3
f 38/54/31 17/4/4 37/15/15
f 37/15/15 17/4/4 34/7/7
f 38/54/31 52/55/32 36/53/29
f 36/53/29 52/55/32 59/56/33
f 24/12/12 25/20/24 3/13/13
f 3/13/13 25/20/24 6/28/34
f 51/66/35 52/55/32 37/15/15
f 37/15/15 52/55/32 38/54/31
f 39/14/14 53/22/36 37/15/15
f 37/15/15 53/22/36 51/66/35
f 59/56/33 48/33/37 36/53/29
f 36/53/29 48/33/37 35/29/30
f 10/30/38 49/16/17 60/32/39
f 60/32/39 49/16/17 50/31/40
f 49/17/17 10/67/38 53/22/18
f 53/22/18 10/67/38 13/68/41
f 61/34/42 42/35/43 60/32/39
f 60/32/39 42/35/43 7/36/44
f 63/37/45 62/38/46 8/40/47
f 8/40/47 62/38/46 46/39/48
f 10/30/38 7/36/44 11/41/49
f 42/35/43 11/41/49 7/36/44
f 46/39/48 11/41/49 8/40/47
f 63/37/45 8/40/47 61/34/42
f 61/34/42 8/40/47 42/35/43
f 11/41/49 42/35/43 8/40/47
f 62/38/46 64/42/50 46/39/48
f 46/39/48 64/42/50 9/43/51
f 11/41/49 46/39/48 12/44/52
f 12/44/52 46/39/48 9/43/51
f 50/31/40 49/16/17 4/45/53
f 4/45/53 49/16/17 26/19/20
f 41/46/54 56/47/55 4/45/53
f 4/45/53 56/47/55 50/31/40
f 56/47/55 41/46/54 58/48/56
f 58/48/56 41/46/54 5/49/57
f 45/50/58 57/51/59 5/49/57
f 5/49/57 57/51/59 58/48/56
f 55/52/60 57/51/59 6/28/34
f 6/28/34 57/51/59 45/50/58
f 48/33/37 59/56/33 15/69/61
f 15/69/61 59/56/33 31/70/62
f 52/55/32 51/66/35 14/72/63
f 14/72/63 51/66/35 33/71/64
f 33/71/64 51/66/35 13/68/41
f 13/68/41 51/66/35 53/22/36
f 55/52/60 54/21/26 64/42/50
f 64/42/50 54/21/26 12/44/52
f 54/27/26 48/33/28 12/73/52
f 12/73/52 48/33/28 15/69/61
f 11/74/49 12/73/52 31/70/62
f 31/70/62 12/73/52 15/69/61
f 13/68/41 10/67/38 33/71/64
f 33/71/64 10/67/38 11/74/49
f 11/74/49 31/70/62 14/72/63
f 33/71/64 11/74/49 14/72/63
f 55/52/60 6/28/34 54/21/26
f 54/21/26 6/28/34 25/20/24
f 54/27/26 25/25/24 35/29/27
f 35/29/27 25/25/24 18/5/25
f 52/55/32 14/72/63 59/56/33
f 59/56/33 14/72/63 31/70/62
f 10/30/38 60/32/39 7/36/44
f 64/42/50 12/44/52 9/43/51
f 60/32/39 50/31/40 61/34/42
f 61/34/42 50/31/40 56/47/55
f 63/37/45 61/34/42 58/48/56
f 58/48/56 61/34/42 56/47/55
f 62/38/46 63/37/45 57/51/59
f 57/51/59 63/37/45 58/48/56
f 64/42/50 62/38/46 55/52/60
f 55/52/60 62/38/46 57/51/59
f 44/58/65 2/59/66 47/57/67
f 47/57/67 2/59/66 65/60/68
f 43/62/69 40/63/70 27/61/71
f 27/61/71 40/63/70 1/64/72
f 43/62/69 27/61/71 65/60/73
f 65/60/73 27/61/71 23/65/74
f 23/65/74 24/12/12 28/11/11
f 23/75/74 30/8/75 20/3/76
f 20/3/76 29/2/77 23/75/74
f 23/75/74 29/2/77 24/26/12
f 24/26/12 29/2/77 21/6/23
f 22/18/19 23/65/74 27/61/71
f 22/18/19 27/61/71 1/64/72
f 19/10/21 30/8/75 22/23/19
f 22/23/19 30/8/75 23/75/74
f 65/60/68 2/59/66 43/62/69
f 43/62/69 2/59/66 40/63/70
f 47/57/67 28/11/11 44/58/65
f 44/58/65 28/11/11 3/13/13
f 40/63/70 41/46/54 1/64/72
f 1/64/72 41/46/54 4/45/53
f 22/18/19 1/64/72 26/19/20
f 26/19/20 1/64/72 4/45/53
f 45/50/58 5/49/57 44/58/65
f 44/58/65 5/49/57 2/59/66
f 41/46/54 40/63/70 5/49/57
f 5/49/57 40/63/70 2/59/66
f 44/58/65 3/13/13 45/50/58
f 45/50/58 3/13/13 6/28/34
f 47/57/67 65/60/73 28/11/11
f 28/11/11 65/60/73 23/65/74
