# This file uses centimeters as units for non-parametric coordinates.

v 0.246809 -0.500000 0.000000
v 0.246809 0.500000 0.000000
v 0.246809 -0.359188 0.000000
v 0.246809 0.361418 0.000000
v 0.389355 0.211158 0.000000
v 0.393446 -0.221029 0.000000
v -0.321960 -0.346197 0.000000
v -0.416813 -0.147482 0.000000
v -0.409312 0.264370 0.000000
v -0.276221 0.388131 0.000000
v -0.500000 0.378811 0.000000
v -0.422721 0.500000 0.000000
v 0.375001 0.500000 0.000000
v 0.500000 0.339320 0.000000
v 0.500000 -0.372276 0.000000
v 0.398993 -0.500000 0.000000
v -0.426030 -0.500000 0.000000
v -0.500000 -0.354628 0.000000
vt 0.752004 0.997311
vt 0.752009 0.002400
vt 0.752004 0.002604
vt 0.752009 0.997333
vt 0.752009 0.142498
vt 0.752004 0.142671
vt 0.752009 0.859453
vt 0.752004 0.859463
vt 0.889096 0.709998
vt 0.893030 0.280099
vt 0.183542 0.155423
vt 0.088740 0.353132
vt 0.096237 0.762897
vt 0.229257 0.886031
vt 0.005597 0.876758
vt 0.082835 0.997333
vt 0.875291 0.997311
vt 0.995507 0.837482
vt 0.995507 0.129652
vt 0.898364 0.002605
vt 0.079528 0.002400
vt 0.005597 0.147035
vn 0.000000 0.000000 1.000000
vn 0.000000 0.000000 1.000000
vn 0.000000 0.000000 1.000000
vn 0.000000 0.000000 1.000000
vn 0.000000 0.000000 1.000000
vn 0.000000 0.000000 1.000000
vn 0.000000 0.000000 1.000000
vn 0.000000 0.000000 1.000000
vn 0.000000 0.000000 1.000000
vn 0.000000 0.000000 1.000000
vn 0.000000 0.000000 1.000000
vn 0.000000 0.000000 1.000000
vn 0.000000 0.000000 1.000000
vn 0.000000 0.000000 1.000000
vn 0.000000 0.000000 1.000000
vn 0.000000 0.000000 1.000000
vn 0.000000 0.000000 1.000000
vn 0.000000 0.000000 1.000000
vn 0.000000 0.000000 1.000000
vn 0.000000 0.000000 1.000000
vn 0.000000 0.000000 1.000000
vn 0.000000 0.000000 1.000000
f 2/1/1 4/8/2 13/17/3
f 3/5/4 7/11/5 1/2/6
f 1/2/6 7/11/5 17/21/7
f 12/16/8 10/14/9 2/4/10
f 2/4/10 10/14/9 4/7/11
f 9/13/12 10/14/9 11/15/13
f 11/15/13 10/14/9 12/16/8
f 5/9/14 6/10/15 14/18/16
f 14/18/16 6/10/15 15/19/17
f 13/17/3 4/8/2 14/18/16
f 14/18/16 4/8/2 5/9/14
f 16/20/18 3/6/19 1/3/20
f 6/10/15 3/6/19 15/19/17
f 15/19/17 3/6/19 16/20/18
f 18/22/21 8/12/22 11/15/13
f 11/15/13 8/12/22 9/13/12
f 17/21/7 7/11/5 18/22/21
f 18/22/21 7/11/5 8/12/22
