# This file uses centimeters as units for non-parametric coordinates.

v -0.038620 -0.038620 0.038620
v 0.038620 -0.038620 0.038620
v -0.038620 0.038620 0.038620
v 0.038620 0.038620 0.038620
v -0.038620 0.038620 -0.038620
v 0.038620 0.038620 -0.038620
v -0.038620 -0.038620 -0.038620
v 0.038620 -0.038620 -0.038620
v -0.038620 -0.038620 1.000078
v 0.038620 -0.038620 1.000078
v 0.038620 0.038620 1.000078
v -0.038620 0.038620 1.000078
v -0.038620 1.000078 0.038620
v 0.038620 1.000078 0.038620
v 0.038620 1.000078 -0.038619
v -0.038620 1.000078 -0.038619
v 1.000078 -0.038620 -0.038619
v 1.000078 -0.038620 0.038620
v 1.000078 0.038620 -0.038619
v 1.000078 0.038620 0.038620
v -0.108779 -0.108779 1.000078
v 0.108779 -0.108779 1.000078
v 0.108779 0.108779 1.000078
v -0.108779 0.108779 1.000078
v -0.108779 1.000078 0.108779
v 0.108779 1.000078 0.108779
v 0.108779 1.000079 -0.108778
v -0.108779 1.000079 -0.108778
v 1.000078 -0.108779 -0.108778
v 1.000078 -0.108779 0.108779
v 1.000078 0.108779 -0.108778
v 1.000078 0.108779 0.108779
v -0.000000 -0.000000 1.249984
v -0.000000 1.249984 0.000002
v 1.249984 -0.000000 0.000000
vt 0.226008 0.048209
vt 0.225217 0.080963
vt 0.185144 0.136175
vt 0.187390 0.043950
vt 0.704915 0.686287
vt 0.704809 0.771739
vt 0.222342 0.208693
vt 0.275619 0.652323
vt 0.187898 0.236035
vt 0.226972 0.083638
vt 0.280617 0.754204
vt 0.343310 0.761294
vt 0.190088 0.143710
vt 0.606942 0.692724
vt 0.107238 0.169936
vt 0.446327 0.262086
vt 0.450025 0.137066
vt 0.450129 0.134358
vt 0.704928 0.680481
vt 0.705035 0.610994
vt 0.740325 0.648974
vt 0.738365 0.742466
vt 0.340059 0.669106
vt 0.339945 0.648634
vt 0.336705 0.557012
vt 0.397419 0.660102
vt 0.449981 0.101639
vt 0.468273 0.101298
vt 0.740330 0.646913
vt 0.858381 0.683239
vt 0.857052 0.776438
vt 0.740368 0.607221
vt 0.856016 0.641808
vt 0.856619 0.681205
vt 0.140058 0.786008
vt 0.134048 0.676925
vt 0.275579 0.645056
vt 0.274427 0.612461
vt 0.134088 0.644422
vt 0.869228 0.641742
vt 0.136242 0.684217
vt 0.116439 0.644093
vt 0.892241 0.675639
vt 0.914880 0.658306
vt 0.936838 0.661153
vt 0.954119 0.683666
vt 0.939782 0.639240
vt 0.962381 0.621938
vt 0.900592 0.613934
vt 0.917835 0.636396
vt 0.048550 0.601982
vt 0.070310 0.602069
vt 0.089965 0.621590
vt 0.028923 0.621312
vt 0.090387 0.560780
vt 0.070371 0.580493
vt 0.048512 0.580419
vt 0.028565 0.560608
vt 0.069994 0.090689
vt 0.048971 0.090693
vt 0.029750 0.071553
vt 0.089202 0.071549
vt 0.049017 0.111590
vt 0.030116 0.130424
vt 0.069948 0.111582
vt 0.088836 0.130392
vn -0.000001 0.000000 -1.000000
vn -0.000001 0.000000 -1.000000
vn -0.000001 0.000000 -1.000000
vn 0.000000 0.000000 -1.000000
vn 0.000001 0.000000 -1.000000
vn 0.000001 0.000000 -1.000000
vn 0.000001 0.000000 -1.000000
vn -0.000000 0.000000 -1.000000
vn -1.000000 0.000003 -0.000003
vn -1.000000 0.000003 0.000003
vn -1.000000 0.000003 -0.000003
vn -1.000000 0.000003 0.000003
vn 0.000000 -0.916904 0.399109
vn 0.000000 -0.916904 0.399109
vn 0.000000 -0.916904 0.399109
vn 0.916904 0.000000 0.399109
vn 0.916904 0.000000 0.399109
vn 0.916904 0.000000 0.399109
vn 0.000000 0.916904 0.399109
vn 0.000000 0.916904 0.399109
vn 0.000000 0.916904 0.399109
vn -0.916904 0.000000 0.399109
vn -0.916904 0.000000 0.399109
vn -0.916903 0.000000 0.399109
vn 0.000000 0.399105 0.916905
vn 0.000000 0.399105 0.916905
vn 0.000000 0.399105 0.916905
vn 0.916903 0.399109 0.000003
vn 0.916903 0.399109 0.000003
vn 0.916903 0.399109 0.000003
vn 0.000000 0.399114 -0.916901
vn 0.000000 0.399114 -0.916901
vn 0.000000 0.399114 -0.916901
vn -0.916903 0.399109 0.000002
vn -0.916903 0.399109 0.000002
vn -0.916903 0.399109 0.000002
vn 0.399109 -0.916904 -0.000001
vn 0.399109 -0.916903 -0.000001
vn 0.399109 -0.916904 -0.000001
vn 0.399109 0.000000 -0.916903
vn 0.399109 0.000000 -0.916904
vn 0.399109 0.000000 -0.916904
vn 0.399109 0.916904 0.000001
vn 0.399109 0.916903 0.000001
vn 0.399109 0.916904 0.000001
vn 0.399109 0.000000 0.916903
vn 0.399109 0.000000 0.916904
vn 0.399109 0.000000 0.916904
vn -0.000002 -1.000000 -0.000002
vn -0.000003 -1.000000 -0.000002
vn 0.000003 -1.000000 -0.000003
vn 0.000004 -1.000000 -0.000004
vn 0.000003 -1.000000 -0.000009
vn 0.000006 -1.000000 -0.000007
vn 0.000000 1.000000 0.000000
vn 0.000000 1.000000 0.000000
vn 0.000000 1.000000 0.000000
vn 0.000000 1.000000 0.000000
vn 0.000000 -0.000001 1.000000
vn 0.000000 -0.000001 1.000000
vn 0.000000 -0.000001 1.000000
vn 0.000000 -0.000001 1.000000
vn -1.000000 -0.000000 -0.000001
vn -1.000000 -0.000000 -0.000001
vn -1.000000 -0.000000 -0.000001
vn -1.000000 0.000000 -0.000001
vn -0.000003 -1.000000 -0.000010
vn -0.000003 -1.000000 -0.000011
vn 1.000000 0.000000 0.000000
vn 1.000000 0.000000 0.000000
vn 1.000000 0.000000 0.000000
vn 1.000000 0.000000 0.000000
vn -0.000000 0.000000 1.000000
vn -0.000000 0.000000 1.000000
vn -0.000000 0.000000 1.000000
vn -0.000000 0.000000 1.000000
vn -1.000000 -0.000003 0.000003
vn -1.000000 -0.000004 0.000002
vn -1.000000 -0.000002 -0.000004
vn -1.000000 -0.000002 -0.000005
vn 0.000000 -1.000000 0.000000
vn 0.000000 -1.000000 0.000000
vn 0.000000 -1.000000 -0.000000
vn 0.000000 -1.000000 -0.000000
vn 1.000000 -0.000000 0.000000
vn 1.000000 -0.000000 0.000000
vn 1.000000 0.000000 0.000000
vn 1.000000 0.000000 0.000000
vn 0.000000 -1.000000 -0.000001
vn 0.000000 -1.000000 -0.000001
vn 0.000000 -1.000000 -0.000001
vn 0.000000 -1.000000 -0.000001
vn 0.000000 0.000000 -1.000000
vn 0.000000 0.000000 -1.000000
vn 0.000000 0.000000 -1.000000
vn 0.000000 0.000000 -1.000000
vn -0.000000 1.000000 0.000001
vn -0.000000 1.000000 0.000001
vn -0.000000 1.000000 0.000001
vn -0.000000 1.000000 0.000001
vn 0.000000 0.000001 -1.000000
vn 0.000000 0.000000 -1.000000
vn 0.000000 0.000001 -1.000000
vn 0.000000 -1.000000 -0.000001
vn -1.000000 0.000000 -0.000000
vn -1.000000 0.000000 -0.000001
vn -1.000000 0.000000 -0.000000
vn -1.000000 0.000000 0.000000
vn -1.000000 0.000000 0.000000
vn 0.000000 0.000001 -1.000000
vn 0.000000 0.000001 -1.000000
vn -1.000000 0.000000 -0.000001
vn 0.000000 0.000000 -1.000000
vn 0.000000 -1.000000 -0.000001
f 9/59/1 10/60/2 21/62/3
f 21/62/3 10/60/2 22/61/4
f 10/60/2 11/63/5 22/61/4
f 22/61/4 11/63/5 23/64/6
f 11/63/5 12/65/7 23/64/6
f 23/64/6 12/65/7 24/66/8
f 12/65/7 9/59/1 24/66/8
f 24/66/8 9/59/1 21/62/3
f 19/51/9 20/52/10 31/54/11
f 31/54/11 20/52/10 32/53/12
f 21/4/13 22/3/14 33/15/15
f 22/3/16 23/9/17 33/15/18
f 23/9/19 24/13/20 33/15/21
f 24/13/22 21/4/23 33/15/24
f 25/5/25 26/6/26 34/14/27
f 26/6/28 27/19/29 34/14/30
f 27/19/31 28/20/32 34/14/33
f 28/20/34 25/5/35 34/14/36
f 30/24/37 29/25/38 35/26/39
f 29/25/40 31/23/41 35/26/42
f 31/23/43 32/12/44 35/26/45
f 32/12/46 30/24/47 35/26/48
f 25/43/49 13/44/50 26/46/51
f 26/46/51 13/44/50 14/45/52
f 26/46/51 14/45/52 27/48/53
f 27/48/53 14/45/52 15/47/54
f 12/10/55 11/7/56 3/17/57
f 3/17/57 11/7/56 4/16/58
f 14/22/59 13/21/60 4/31/61
f 4/31/61 13/21/60 3/30/62
f 13/21/63 16/32/64 3/30/65
f 3/30/65 16/32/64 5/33/66
f 28/49/67 27/48/53 16/50/68
f 16/50/68 27/48/53 15/47/54
f 25/43/49 28/49/67 13/44/50
f 13/44/50 28/49/67 16/50/68
f 10/2/69 2/18/70 11/7/71
f 11/7/71 2/18/70 4/16/72
f 20/11/73 4/35/74 18/37/75
f 18/37/75 4/35/74 2/36/76
f 30/55/77 18/56/78 29/58/79
f 29/58/79 18/56/78 17/57/80
f 29/58/79 17/57/80 31/54/11
f 31/54/11 17/57/80 19/51/9
f 32/53/12 20/52/10 30/55/77
f 30/55/77 20/52/10 18/56/78
f 10/2/81 9/1/82 2/18/83
f 2/18/83 9/1/82 1/27/84
f 15/29/85 14/22/86 6/34/87
f 6/34/87 14/22/86 4/31/88
f 17/38/89 18/37/90 8/39/91
f 8/39/91 18/37/90 2/36/92
f 19/8/93 17/38/94 6/41/95
f 6/41/95 17/38/94 8/39/96
f 20/11/97 19/8/98 4/35/99
f 4/35/99 19/8/98 6/41/100
f 6/34/101 7/40/102 5/33/103
f 2/36/92 7/42/104 8/39/91
f 3/17/105 7/28/106 1/27/107
f 1/27/107 9/1/108 3/17/105
f 3/17/105 9/1/108 12/10/109
f 5/33/103 16/32/110 6/34/101
f 6/34/101 16/32/110 15/29/111
f 7/40/112 3/30/65 5/33/66
f 7/42/113 6/41/95 8/39/96
f 7/28/114 2/18/83 1/27/84
