# This file uses centimeters as units for non-parametric coordinates.

v 0.091393 0.420462 -0.000000
v 0.143208 0.385053 -0.000000
v 0.154191 0.477183 -0.000000
v 0.246808 0.480363 -0.000000
v 0.348359 0.404078 -0.000000
v 0.368340 0.366551 -0.000000
v 0.334198 0.340426 -0.000000
v 0.273235 0.407404 -0.000000
v 0.193271 0.430217 -0.000000
v 0.141133 0.355393 -0.000000
v 0.231171 0.311070 -0.000000
v 0.188770 0.200661 -0.000000
v 0.295225 0.040054 -0.000000
v 0.311495 -0.143307 -0.000000
v 0.189655 -0.327358 -0.000000
v -0.076892 -0.378201 -0.000000
v -0.280603 -0.243588 -0.000000
v -0.320839 -0.011786 -0.000000
v -0.216331 0.191646 -0.000000
v -0.053635 0.260632 -0.000000
v -0.017573 0.384941 -0.000000
v 0.072164 0.370185 -0.000000
v -0.024051 -0.054161 -0.000000
v -0.128526 0.079398 -0.000000
v 0.099125 -0.017814 -0.000000
vt 0.643208 0.885053
vt 0.591393 0.920462
vt 0.654191 0.977183
vt 0.746808 0.980363
vt 0.848359 0.904078
vt 0.868340 0.866551
vt 0.834198 0.840426
vt 0.773235 0.907404
vt 0.693271 0.930217
vt 0.731171 0.811070
vt 0.688770 0.700661
vt 0.795225 0.540054
vt 0.811495 0.356693
vt 0.689655 0.172642
vt 0.423108 0.121799
vt 0.219397 0.256412
vt 0.179161 0.488214
vt 0.283669 0.691646
vt 0.446365 0.760632
vt 0.482427 0.884941
vt 0.572164 0.870185
vt 0.641133 0.855393
vt 0.475949 0.445839
vt 0.371474 0.579399
vt 0.599124 0.482187
vn 0.000000 0.000000 1.000000
vn 0.000000 0.000000 1.000000
vn 0.000000 0.000000 1.000000
vn 0.000000 0.000000 1.000000
vn 0.000000 0.000000 1.000000
vn 0.000000 0.000000 1.000000
vn 0.000000 0.000000 1.000000
vn 0.000000 0.000000 1.000000
vn 0.000000 0.000000 1.000000
vn 0.000000 0.000000 1.000000
vn 0.000000 0.000000 1.000000
vn 0.000000 0.000000 1.000000
vn -0.000000 0.000000 1.000000
vn -0.000000 0.000000 1.000000
vn -0.000000 0.000000 1.000000
vn 0.000000 0.000000 1.000000
vn 0.000000 0.000000 1.000000
vn 0.000000 0.000000 1.000000
vn 0.000000 0.000000 1.000000
vn 0.000000 0.000000 1.000000
vn 0.000000 0.000000 1.000000
vn 0.000000 0.000000 1.000000
vn 0.000000 0.000000 1.000000
vn 0.000000 0.000000 1.000000
vn 0.000000 0.000000 1.000000
vn 0.000000 0.000000 1.000000
vn 0.000000 0.000000 1.000000
vn 0.000000 0.000000 1.000000
vn 0.000000 0.000000 1.000000
vn 0.000000 0.000000 1.000000
vn 0.000000 0.000000 1.000000
vn 0.000000 0.000000 1.000000
vn 0.000000 0.000000 1.000000
vn 0.000000 0.000000 1.000000
vn 0.000000 0.000000 1.000000
vn 0.000000 0.000000 1.000000
vn -0.000000 0.000000 1.000000
vn -0.000000 0.000000 1.000000
vn -0.000000 0.000000 1.000000
vn 0.000000 0.000000 1.000000
vn -0.000000 0.000000 1.000000
vn -0.000000 0.000000 1.000000
vn -0.000000 0.000000 1.000000
vn 0.000000 0.000000 1.000000
vn 0.000000 0.000000 1.000000
vn 0.000000 0.000000 1.000000
vn 0.000000 0.000000 1.000000
vn 0.000000 0.000000 1.000000
vn 0.000000 0.000000 1.000000
vn 0.000000 0.000000 1.000000
vn 0.000000 0.000000 1.000000
vn 0.000000 0.000000 1.000000
vn 0.000000 0.000000 1.000000
vn 0.000000 0.000000 1.000000
vn 0.000000 0.000000 1.000000
vn 0.000000 0.000000 1.000000
vn 0.000000 0.000000 1.000000
vn 0.000000 0.000000 1.000000
vn 0.000000 0.000000 1.000000
vn 0.000000 0.000000 1.000000
vn 0.000000 0.000000 1.000000
vn 0.000000 0.000000 1.000000
f 6/6/1 8/8/2 7/7/3
f 8/8/4 5/5/5 4/4/6
f 5/5/7 8/8/8 6/6/9
f 18/17/10 24/24/11 19/18/12
f 17/16/13 23/23/14 18/17/15
f 18/17/15 23/23/14 24/24/16
f 17/16/17 16/15/18 23/23/19
f 23/23/19 16/15/18 15/14/20
f 25/25/21 14/13/22 13/12/23
f 14/13/24 25/25/25 15/14/26
f 15/14/26 25/25/25 23/23/27
f 25/25/28 24/24/29 23/23/30
f 24/24/31 20/19/32 19/18/33
f 20/19/34 22/21/35 21/20/36
f 12/11/37 25/25/38 13/12/39
f 12/11/40 20/19/41 25/25/42
f 25/25/42 20/19/41 24/24/43
f 3/3/44 9/9/45 4/4/46
f 4/4/46 9/9/45 8/8/47
f 10/22/48 12/11/49 11/10/50
f 20/19/51 12/11/52 22/21/53
f 22/21/53 12/11/52 10/22/54
f 1/2/55 2/1/56 3/3/57
f 3/3/57 2/1/56 9/9/58
f 1/2/59 22/21/60 2/1/61
f 2/1/61 22/21/60 10/22/62
