# This file uses centimeters as units for non-parametric coordinates.

v 0.060910 -0.059554 -0.038878
v 0.049394 -0.058504 0.053685
v 0.061500 -0.052048 0.128441
v 0.001453 -0.068010 -0.035713
v -0.005246 -0.070402 0.052713
v -0.005197 -0.060383 0.129144
v -0.057117 -0.046393 -0.039994
v -0.053638 -0.047313 0.051505
v -0.066432 -0.038132 0.129640
v -0.064352 0.008210 -0.039947
v -0.056784 0.011229 0.050838
v -0.068058 0.013582 0.129459
v -0.036482 0.060542 -0.037289
v -0.025843 0.066134 0.060980
v -0.061093 0.062236 0.128862
v 0.018749 0.074423 -0.037196
v 0.018772 0.078545 0.026880
v 0.018092 0.070020 0.126851
v 0.073774 0.046285 -0.036618
v 0.061927 0.056601 0.062837
v 0.084548 0.047211 0.127878
v 0.081009 -0.008318 -0.036665
v 0.072931 -0.002860 0.053582
v 0.081041 -0.003936 0.127949
v 0.005582 0.004910 0.127641
v 0.007535 0.000761 -0.096148
v -0.013663 0.103802 0.068996
v -0.052390 0.104794 0.128503
v 0.022334 0.152713 0.100848
v 0.025862 0.130970 0.040668
v 0.088557 0.089770 0.127519
v 0.059682 0.095836 0.070548
v 0.062342 -0.008056 -0.076215
v 0.015088 0.057185 -0.074760
v 0.010548 -0.052408 -0.077007
v -0.046577 0.005178 -0.074527
v -0.026126 -0.034099 -0.075846
v 0.045585 -0.036280 -0.076620
v 0.049280 0.030182 -0.075213
v -0.016563 0.042781 -0.074292
v 0.020085 0.096493 0.126685
vt 0.960629 0.433797
vt 0.964679 0.393057
vt 0.823370 0.441818
vt 0.827087 0.393671
vt 0.980663 0.393672
vt 0.811493 0.394209
vt 0.802464 0.431998
vt 0.826477 0.334242
vt 0.805264 0.361229
vt 0.771966 0.394244
vt 0.771201 0.439706
vt 0.770865 0.359285
vt 0.739080 0.392963
vt 0.744433 0.429751
vt 0.736466 0.358755
vt 0.726391 0.407154
vt 0.727413 0.444026
vt 0.713176 0.383053
vt 0.712892 0.357545
vt 0.695873 0.332189
vt 0.695235 0.402195
vt 0.976943 0.442432
vt 0.960785 0.360428
vt 0.980332 0.336234
vt 0.880903 0.444667
vt 0.879880 0.407327
vt 0.899537 0.388571
vt 0.908468 0.437559
vt 0.853863 0.399354
vt 0.856838 0.336056
vt 0.870251 0.358799
vt 0.868430 0.382684
vt 0.935029 0.392792
vt 0.937490 0.448614
vt 0.776194 0.334119
vt 0.735675 0.332694
vt 0.776775 0.477689
vt 0.930307 0.478758
vt 0.897023 0.358182
vt 0.934235 0.361088
vt 0.934217 0.336038
vt 0.890217 0.336104
vt 0.905169 0.461412
vt 0.933778 0.464193
vt 0.952418 0.461535
vt 0.773792 0.457359
vt 0.751658 0.460561
vt 0.798867 0.460682
vt 0.787081 0.459120
vt 0.941736 0.463058
vt 0.919937 0.462848
vt 0.761915 0.459077
vt 0.716975 0.332457
vt 0.874535 0.336081
vn 0.907406 0.275588 -0.317279
vn 0.967881 0.019847 -0.250623
vn 0.993190 -0.105087 -0.050309
vn 0.968389 -0.224441 -0.108855
vn 0.744219 -0.665331 -0.058929
vn 0.561078 -0.826111 0.052263
vn -0.002749 0.011347 0.999932
vn 0.002536 0.016535 0.999860
vn 0.002536 0.016535 0.999860
vn 0.007822 0.021722 0.999733
vn 0.015538 0.020447 0.999670
vn 0.020366 0.012371 0.999716
vn 0.020366 0.012371 0.999716
vn 0.025192 0.004294 0.999673
vn -0.114008 -0.988926 0.095010
vn -0.115813 -0.992157 0.047024
vn -0.755910 -0.654522 0.014213
vn -0.910350 -0.402808 -0.094916
vn -0.971762 0.217861 -0.090643
vn -0.988222 0.053633 -0.143321
vn 0.548100 -0.780348 -0.301072
vn -0.150300 -0.969509 -0.193553
vn -0.744909 -0.550159 -0.377405
vn 0.013995 -0.883061 -0.469050
vn 0.342968 -0.730937 -0.590003
vn -0.343705 -0.820373 -0.457007
vn 0.798793 0.567273 -0.200326
vn 0.957837 -0.152418 -0.243551
vn 0.847071 0.208697 -0.488790
vn 0.900553 -0.088542 -0.425634
vn 0.339949 -0.012760 -0.940357
vn 0.237709 -0.250566 -0.938462
vn -0.003698 0.013820 -0.999898
vn -0.019966 -0.339650 -0.940340
vn 0.807721 -0.383866 -0.447475
vn -0.979593 0.130640 -0.152746
vn -0.624375 0.743563 -0.239312
vn -0.773498 0.519201 -0.363499
vn -0.801396 0.137965 -0.582006
vn -0.659462 -0.320550 -0.679968
vn -0.290925 -0.255953 -0.921874
vn -0.366514 0.055816 -0.928737
vn 0.089181 0.836250 -0.541049
vn 0.104474 0.928285 -0.356892
vn -0.632392 0.508421 -0.584456
vn 0.028612 0.350946 -0.935958
vn 0.299885 0.232794 -0.925136
vn -0.260598 0.323636 -0.909587
vn 0.479686 0.738381 -0.474020
vn 0.100540 0.900515 -0.423042
vn -0.302542 0.847942 -0.435274
vn -0.901221 0.280892 -0.330001
vn -0.595052 0.697712 -0.398888
vn -0.635773 0.691396 -0.343169
vn -0.635773 0.691396 -0.343169
vn -0.673440 0.681759 -0.285802
vn 0.778788 0.603165 -0.172280
vn 0.750251 0.617921 -0.235153
vn 0.750251 0.617921 -0.235153
vn 0.717973 0.629597 -0.296854
vn -0.003887 0.001648 0.999991
vn -0.007238 0.007903 0.999943
vn -0.007238 0.007903 0.999943
vn -0.010588 0.014158 0.999844
vn 0.024655 0.007384 0.999669
vn 0.025177 0.007991 0.999651
vn 0.025177 0.007991 0.999651
vn 0.025698 0.008598 0.999633
vn -0.833386 0.270018 -0.482242
vn -0.778859 0.360996 -0.512894
vn 0.025056 0.003307 0.999681
vn 0.025315 0.003833 0.999672
vn 0.025315 0.003833 0.999672
vn 0.025574 0.004359 0.999663
vn -0.653336 0.311547 -0.689993
vn -0.676935 0.271487 -0.684144
vn -0.012160 0.009577 0.999880
vn -0.011820 0.008364 0.999895
vn -0.011820 0.008364 0.999895
vn -0.011480 0.007151 0.999909
vn 0.920253 0.022961 -0.390650
vn 0.889404 0.136616 -0.436231
vn 0.696356 0.133377 -0.705194
vn 0.709314 0.088022 -0.699375
vn 0.070209 0.414226 0.907462
vn 0.070209 0.414226 0.907462
vn 0.070209 0.414226 0.907462
vn 0.029814 0.416406 0.908690
vn 0.029814 0.416406 0.908690
vn 0.029814 0.416406 0.908690
f 20/27/1 21/39/2 23/33/3
f 23/33/3 21/39/2 24/40/4
f 24/40/4 3/23/5 23/33/3
f 23/33/3 3/23/5 2/2/6
f 24/40/7 25/41/8 3/23/9
f 3/23/9 25/41/8 6/24/10
f 6/8/11 25/35/12 9/9/13
f 9/9/13 25/35/12 12/12/14
f 3/23/5 6/24/15 2/2/6
f 2/2/6 6/24/15 5/5/16
f 5/4/16 6/8/15 8/6/17
f 8/6/17 6/8/15 9/9/18
f 8/6/17 9/9/18 11/10/19
f 11/10/19 9/9/18 12/12/20
f 1/1/21 2/2/6 4/22/22
f 4/22/22 2/2/6 5/5/16
f 5/4/16 8/6/17 4/3/22
f 4/3/22 8/6/17 7/7/23
f 4/22/22 35/45/24 1/1/21
f 1/1/21 35/45/24 38/50/25
f 7/7/23 37/49/26 4/3/22
f 4/3/22 37/49/26 35/48/24
f 20/27/1 23/33/3 19/28/27
f 19/28/27 23/33/3 22/34/28
f 1/1/21 22/34/28 2/2/6
f 2/2/6 22/34/28 23/33/3
f 19/28/27 22/34/28 39/51/29
f 39/51/29 22/34/28 33/44/30
f 33/44/31 38/50/32 26/38/33
f 26/38/33 38/50/32 35/45/34
f 1/1/21 38/50/35 22/34/28
f 22/34/28 38/50/35 33/44/30
f 10/11/36 11/10/19 13/14/37
f 13/14/37 11/10/19 14/13/38
f 7/7/23 8/6/17 10/11/36
f 10/11/36 8/6/17 11/10/19
f 10/11/36 36/46/39 7/7/23
f 7/7/23 36/46/39 37/49/40
f 35/48/34 37/49/41 26/37/33
f 26/37/33 37/49/41 36/46/42
f 14/13/38 17/16/43 13/14/37
f 13/14/37 17/16/43 16/17/44
f 16/25/44 17/26/43 19/28/27
f 19/28/27 17/26/43 20/27/1
f 10/11/36 13/14/37 36/46/39
f 36/46/39 13/14/37 40/52/45
f 34/43/46 39/51/47 26/38/33
f 26/38/33 39/51/47 33/44/31
f 36/46/42 40/52/48 26/37/33
f 26/37/33 40/52/48 34/47/46
f 19/28/27 39/51/49 16/25/44
f 16/25/44 39/51/49 34/43/50
f 13/14/37 16/17/44 40/52/51
f 40/52/51 16/17/44 34/47/50
f 12/12/20 15/15/52 11/10/19
f 11/10/19 15/15/52 14/13/38
f 28/19/53 29/20/54 27/18/55
f 27/18/55 29/20/54 30/21/56
f 30/29/57 29/30/58 32/32/59
f 32/32/59 29/30/58 31/31/60
f 24/40/61 21/39/62 25/41/63
f 25/41/63 21/39/62 18/42/64
f 18/36/65 15/15/66 25/35/67
f 25/35/67 15/15/66 12/12/68
f 15/15/52 28/19/69 14/13/38
f 14/13/38 28/19/69 27/18/70
f 15/15/71 18/36/72 28/19/73
f 28/19/73 18/36/72 41/53/74
f 14/13/38 27/18/75 17/16/43
f 17/16/43 27/18/75 30/21/76
f 21/39/77 31/31/78 18/42/79
f 18/42/79 31/31/78 41/54/80
f 21/39/2 20/27/1 31/31/81
f 31/31/81 20/27/1 32/32/82
f 20/27/1 17/26/43 32/32/83
f 32/32/83 17/26/43 30/29/84
f 28/19/85 41/53/86 29/20/87
f 41/54/88 31/31/89 29/30/90
