# This file uses centimeters as units for non-parametric coordinates.

v -0.069965 0.097002 0.080775
v 0.009466 0.112413 0.080628
v 0.083199 0.079097 0.080946
v -0.067312 0.083642 0.033742
v 0.001674 0.109939 0.033491
v 0.070661 0.083642 0.033742
v -0.054556 0.075282 0.009512
v 0.002896 0.074978 -0.012832
v 0.057904 0.075282 0.009512
v -0.054556 0.033847 0.003772
v 0.002896 0.033523 -0.020115
v 0.057904 0.033847 0.003772
v -0.043860 -0.022315 0.009113
v 0.002896 -0.022704 -0.004081
v 0.042699 -0.022315 0.009113
v -0.056616 -0.021967 0.034749
v 0.001674 -0.021967 0.034749
v 0.055455 -0.021967 0.034749
v -0.072004 -0.011922 0.081814
v -0.006118 -0.020874 0.081899
v 0.055259 -0.029826 0.081985
v -0.076170 0.043925 0.081282
v 0.000412 0.034972 0.081367
v 0.076994 0.026020 0.081452
v 0.070661 0.034260 0.034213
v -0.067312 0.034260 0.034213
vt 0.613633 0.369146
vt 0.601326 0.353899
vt 0.596774 0.386872
vt 0.612970 0.384203
vt 0.611447 0.411208
vt 0.616403 0.393132
vt 0.508945 0.350527
vt 0.525843 0.365296
vt 0.521800 0.382612
vt 0.506527 0.385024
vt 0.525728 0.392192
vt 0.516685 0.410209
vt 0.545952 0.396287
vt 0.634079 0.411213
vt 0.634079 0.396949
vt 0.545952 0.411591
vt 0.656588 0.410832
vt 0.649726 0.395805
vt 0.558984 0.395082
vt 0.667643 0.383822
vt 0.658113 0.384203
vt 0.573452 0.411591
vt 0.658300 0.353899
vt 0.649899 0.369146
vt 0.563204 0.382914
vt 0.634429 0.353899
vt 0.629839 0.369146
vt 0.573452 0.382612
vt 0.634079 0.384203
vt 0.545952 0.382612
vt 0.561118 0.365334
vt 0.546820 0.350527
vt 0.546337 0.365412
vt 0.574134 0.350527
vn 0.199677 0.978498 -0.051689
vn -0.026515 0.924202 -0.380982
vn -0.600021 0.785634 -0.150843
vn -0.831456 0.434296 -0.346510
vn 0.934117 0.313672 -0.170397
vn 0.703452 0.638276 -0.312663
vn -0.630247 0.414893 -0.656242
vn 0.006537 0.403015 -0.915170
vn 0.634185 0.415278 -0.652192
vn -0.695358 -0.036711 -0.717725
vn 0.012440 -0.101242 -0.994784
vn 0.698777 -0.067634 -0.712135
vn -0.403410 -0.696772 -0.593101
vn 0.013703 -0.813440 -0.581488
vn 0.407122 -0.709778 -0.574863
vn -0.020621 -0.999727 -0.011006
vn -0.617115 -0.763675 -0.189658
vn 0.736540 -0.633052 -0.238230
vn -0.092894 -0.993696 0.062765
vn -0.852314 -0.510556 -0.113551
vn 0.317285 -0.944105 -0.089418
vn -0.000000 0.009531 0.999955
vn -0.000001 0.009533 0.999955
vn -0.000001 0.009533 0.999955
vn -0.000003 0.009534 0.999955
vn 0.000004 0.009531 0.999955
vn 0.000003 0.009530 0.999955
vn 0.000003 0.009530 0.999955
vn 0.000002 0.009529 0.999955
vn -0.000002 0.009536 0.999955
vn -0.000000 0.009538 0.999955
vn -0.000000 0.009538 0.999955
vn 0.000002 0.009541 0.999954
vn 0.000003 0.009534 0.999955
vn 0.000001 0.009538 0.999955
vn 0.000001 0.009538 0.999955
vn -0.000001 0.009541 0.999955
vn 0.960434 -0.247454 -0.127798
vn 0.947315 -0.097076 -0.305238
vn -0.988890 0.012766 -0.148103
vn -0.947746 -0.065103 -0.312312
f 2/2/1 5/3/2 1/1/3
f 1/1/3 5/3/2 4/4/4
f 3/8/5 6/9/6 2/7/1
f 2/7/1 6/9/6 5/10/2
f 4/4/4 5/3/2 7/6/7
f 7/6/7 5/3/2 8/5/8
f 6/9/6 9/11/9 5/10/2
f 5/10/2 9/11/9 8/12/8
f 7/6/7 8/5/8 10/15/10
f 10/15/10 8/5/8 11/14/11
f 9/11/9 12/13/12 8/12/8
f 8/12/8 12/13/12 11/16/11
f 10/15/10 11/14/11 13/18/13
f 13/18/13 11/14/11 14/17/14
f 12/13/12 15/19/15 11/16/11
f 11/16/11 15/19/15 14/22/14
f 14/17/14 17/20/16 13/18/13
f 13/18/13 17/20/16 16/21/17
f 14/22/14 15/19/15 17/28/16
f 17/28/16 15/19/15 18/25/18
f 17/20/16 20/23/19 16/21/17
f 16/21/17 20/23/19 19/24/20
f 18/25/18 21/31/21 17/28/16
f 17/28/16 21/31/21 20/34/19
f 20/23/22 23/26/23 19/24/24
f 19/24/24 23/26/23 22/27/25
f 20/34/26 21/31/27 23/32/28
f 23/32/28 21/31/27 24/33/29
f 22/27/30 23/26/31 1/1/32
f 1/1/32 23/26/31 2/2/33
f 24/33/34 3/8/35 23/32/36
f 23/32/36 3/8/35 2/7/37
f 21/31/21 18/25/18 24/33/38
f 24/33/38 18/25/18 25/30/39
f 24/33/38 25/30/39 3/8/5
f 3/8/5 25/30/39 6/9/6
f 25/30/39 18/25/18 12/13/12
f 12/13/12 18/25/18 15/19/15
f 6/9/6 25/30/39 9/11/9
f 9/11/9 25/30/39 12/13/12
f 22/27/40 26/29/41 19/24/20
f 19/24/20 26/29/41 16/21/17
f 1/1/3 4/4/4 22/27/40
f 22/27/40 4/4/4 26/29/41
f 26/29/41 10/15/10 16/21/17
f 16/21/17 10/15/10 13/18/13
f 4/4/4 7/6/7 26/29/41
f 26/29/41 7/6/7 10/15/10
