# This file uses centimeters as units for non-parametric coordinates.

v 0.129063 -0.196490 -0.125377
v 0.070500 -0.217879 -0.169352
v -0.064297 -0.217879 -0.169352
v -0.177161 -0.217879 -0.125888
v 0.185850 -0.048291 -0.155989
v 0.067069 -0.045853 -0.202056
v -0.064109 -0.045853 -0.202056
v -0.184460 -0.045853 -0.155166
v 0.158638 0.074820 -0.134951
v 0.060968 0.074820 -0.175952
v -0.052726 0.074820 -0.175952
v -0.150790 0.074820 -0.127686
v 0.121697 0.155397 -0.089332
v 0.042970 0.155397 -0.128106
v -0.035758 0.155397 -0.128106
v -0.114485 0.155397 -0.089332
v 0.141159 0.156467 -0.030092
v 0.042970 0.210414 -0.030092
v -0.035758 0.210414 -0.030092
v -0.133947 0.156467 -0.030092
v 0.138535 0.154327 0.063913
v 0.042970 0.208274 0.063913
v -0.035758 0.208274 0.063913
v -0.131323 0.154327 0.063913
v 0.101795 0.146837 0.125983
v 0.042970 0.146837 0.148525
v -0.035758 0.146837 0.148525
v -0.094583 0.146837 0.125983
v 0.156776 0.043790 0.168213
v 0.060453 0.043790 0.213299
v -0.053241 0.043790 0.213299
v -0.149564 0.043790 0.168213
v 0.180330 -0.047486 0.176236
v 0.069195 -0.047486 0.221321
v -0.061983 -0.047486 0.221321
v -0.173118 -0.047486 0.176236
v 0.165864 -0.213627 0.125845
v 0.071005 -0.214281 0.209449
v -0.063793 -0.214281 0.209449
v -0.159170 -0.215069 0.107375
v 0.189128 -0.220363 0.075594
v 0.071005 -0.288938 0.086086
v -0.063793 -0.288938 0.086086
v -0.185547 -0.220251 0.045724
v 0.180331 -0.221678 -0.050255
v 0.071005 -0.294935 -0.050766
v -0.063793 -0.294935 -0.050766
v -0.173213 -0.210219 -0.050462
v -0.216844 -0.061396 0.073273
v -0.221217 -0.060326 -0.048811
v -0.187462 0.053420 0.079958
v -0.191252 0.066260 -0.043463
v 0.224056 -0.061396 0.073273
v 0.228428 -0.060326 -0.048811
v 0.194674 0.053420 0.079958
v 0.198464 0.066260 -0.043463
v -0.207417 0.128293 0.021038
v 0.215888 0.134430 0.021904
v -0.189941 0.159792 -0.008429
v -0.188446 0.158359 0.048199
v -0.220343 0.101528 0.053258
v -0.223707 0.106445 -0.014677
v 0.198351 0.162224 0.047013
v 0.198784 0.165259 -0.006938
v 0.232683 0.111906 -0.014918
v 0.230852 0.103447 0.059201
vt 0.627203 0.475414
vt 0.556681 0.468214
vt 0.560343 0.534656
vt 0.630990 0.534656
vt 0.476080 0.468214
vt 0.472418 0.534656
vt 0.415637 0.482613
vt 0.406091 0.533216
vt 0.554484 0.598884
vt 0.611972 0.594564
vt 0.478277 0.598884
vt 0.422229 0.585925
vt 0.542765 0.643957
vt 0.581135 0.633878
vt 0.489996 0.643957
vt 0.447306 0.635318
vt 0.542765 0.674734
vt 0.608579 0.644556
vt 0.489996 0.674734
vt 0.424182 0.644556
vt 0.285286 0.554514
vt 0.212686 0.598561
vt 0.212324 0.565429
vt 0.274877 0.533697
vt 0.160430 0.598561
vt 0.160792 0.565429
vt 0.076951 0.547071
vt 0.098240 0.533697
vt 0.212324 0.529291
vt 0.250829 0.529291
vt 0.160792 0.529291
vt 0.122288 0.529291
vt 0.223768 0.468678
vt 0.286817 0.468678
vt 0.149348 0.468678
vt 0.086300 0.468678
vt 0.229490 0.414989
vt 0.302234 0.414989
vt 0.143626 0.414989
vt 0.070882 0.414989
vt 0.225914 0.351418
vt 0.292598 0.351418
vt 0.147203 0.351418
vt 0.080518 0.351418
vt 0.654520 0.455645
vt 0.556681 0.429761
vt 0.476080 0.429761
vt 0.378240 0.455645
vt 0.365687 0.523284
vt 0.385772 0.594095
vt 0.667073 0.523284
vt 0.646989 0.594095
vt 0.225914 0.312243
vt 0.318835 0.339460
vt 0.147203 0.312243
vt 0.054281 0.339460
vt 0.225914 0.285191
vt 0.337995 0.312408
vt 0.147203 0.285191
vt 0.035121 0.312408
vt 0.042261 0.406807
vt 0.016219 0.414318
vt 0.061493 0.474343
vt 0.037578 0.491215
vt 0.330855 0.406807
vt 0.348566 0.412145
vt 0.311623 0.474343
vt 0.327866 0.493486
vt 0.067909 0.512456
vt 0.298455 0.514428
vt 0.073368 0.533355
vt 0.086136 0.525220
vt 0.064534 0.492405
vt 0.050486 0.500255
vt 0.285356 0.525133
vt 0.290673 0.538116
vt 0.315872 0.502026
vt 0.306474 0.490016
vn 0.274150 -0.607614 -0.745417
vn 0.224120 0.006621 -0.974539
vn 0.637420 -0.430181 -0.639250
vn 0.758000 0.002837 -0.652249
vn -0.166513 -0.432089 -0.886325
vn -0.236618 0.079144 -0.968374
vn -0.748772 -0.534776 -0.391606
vn -0.709910 0.078092 -0.699950
vn 0.595338 0.393820 -0.700342
vn 0.220981 0.422371 -0.879073
vn -0.174361 0.404520 -0.897754
vn -0.599221 0.405732 -0.690156
vn 0.532004 0.693508 -0.485817
vn 0.126900 0.683550 -0.718788
vn -0.126898 0.757085 -0.640874
vn -0.541558 0.681405 -0.492343
vn 0.254397 0.938228 -0.234545
vn -0.253601 0.954556 -0.156557
vn 0.207265 0.936497 0.282869
vn -0.206795 0.900641 0.382207
vn 0.106543 0.713744 0.692256
vn -0.106622 0.657478 0.745892
vn 0.188570 0.404481 0.894894
vn 0.490263 0.643484 0.587853
vn 0.595474 0.348036 0.724073
vn -0.189458 0.328761 0.925215
vn -0.490262 0.643484 0.587853
vn -0.595474 0.348036 0.724073
vn 0.199232 0.057638 0.978256
vn 0.736584 0.020467 0.676037
vn -0.199427 0.030580 0.979436
vn -0.746764 0.004291 0.665075
vn 0.270954 -0.399294 0.875870
vn 0.714229 -0.481157 0.508297
vn -0.295315 -0.557618 0.775791
vn -0.733985 -0.494640 0.465401
vn 0.299569 -0.909496 0.288228
vn 0.840243 -0.518898 0.157277
vn -0.269651 -0.930702 0.247146
vn -0.811538 -0.578333 0.083290
vn 0.719334 -0.641498 -0.266531
vn 0.293146 -0.920423 -0.258625
vn -0.298349 -0.921955 -0.246956
vn -0.819007 -0.572927 -0.031324
vn -0.974496 0.000445 0.224404
vn -0.991110 -0.076360 -0.108949
vn 0.973155 0.014434 0.229696
vn 0.965395 -0.117758 -0.232693
vn -0.463284 0.835967 -0.294156
vn -0.914696 0.187268 -0.358137
vn -0.380132 0.825757 0.416683
vn -0.874556 0.242939 0.419681
vn -0.863844 0.501439 0.048299
vn -0.853125 0.519378 0.049236
vn -0.857946 0.510259 0.059699
vn -0.776995 -0.199955 -0.596906
vn -0.740736 -0.235089 0.629320
vn -0.115025 0.777932 0.617731
vn -0.172260 0.828595 -0.532689
vn -0.862582 0.501030 0.070147
vn -0.851841 0.518954 0.071083
vn 0.870037 0.235636 0.433026
vn 0.947072 0.155401 -0.280900
vn 0.441168 0.785012 -0.434887
vn 0.343259 0.836377 0.427372
vn 0.063792 0.798323 0.598841
vn 0.014276 0.942284 -0.334509
vn 0.614738 0.033003 -0.788041
vn 0.731247 -0.219237 0.645920
vn 0.863844 0.501439 0.048299
vn 0.862582 0.501031 0.070147
vn 0.857946 0.510259 0.059699
vn 0.853125 0.519378 0.049237
vn 0.851841 0.518955 0.071084
f 2/2/1 6/3/2 1/1/3
f 1/1/3 6/3/2 5/4/4
f 2/2/1 3/5/5 6/3/2
f 6/3/2 3/5/5 7/6/6
f 4/7/7 8/8/8 3/5/5
f 3/5/5 8/8/8 7/6/6
f 5/4/4 6/3/2 9/10/9
f 9/10/9 6/3/2 10/9/10
f 7/6/6 11/11/11 6/3/2
f 6/3/2 11/11/11 10/9/10
f 8/8/8 12/12/12 7/6/6
f 7/6/6 12/12/12 11/11/11
f 9/10/9 10/9/10 13/14/13
f 13/14/13 10/9/10 14/13/14
f 10/9/10 11/11/11 14/13/14
f 14/13/14 11/11/11 15/15/15
f 12/12/12 16/16/16 11/11/11
f 11/11/11 16/16/16 15/15/15
f 14/13/14 15/15/15 18/17/17
f 18/17/17 15/15/15 19/19/18
f 18/22/17 19/25/18 22/23/19
f 22/23/19 19/25/18 23/26/20
f 22/23/19 23/26/20 26/29/21
f 26/29/21 23/26/20 27/31/22
f 26/29/21 30/33/23 25/30/24
f 25/30/24 30/33/23 29/34/25
f 26/29/21 27/31/22 30/33/23
f 30/33/23 27/31/22 31/35/26
f 27/31/22 28/32/27 31/35/26
f 31/35/26 28/32/27 32/36/28
f 30/33/23 34/37/29 29/34/25
f 29/34/25 34/37/29 33/38/30
f 30/33/23 31/35/26 34/37/29
f 34/37/29 31/35/26 35/39/31
f 31/35/26 32/36/28 35/39/31
f 35/39/31 32/36/28 36/40/32
f 34/37/29 38/41/33 33/38/30
f 33/38/30 38/41/33 37/42/34
f 34/37/29 35/39/31 38/41/33
f 38/41/33 35/39/31 39/43/35
f 35/39/31 36/40/32 39/43/35
f 39/43/35 36/40/32 40/44/36
f 38/41/33 42/53/37 37/42/34
f 37/42/34 42/53/37 41/54/38
f 38/41/33 39/43/35 42/53/37
f 42/53/37 39/43/35 43/55/39
f 39/43/35 40/44/36 43/55/39
f 43/55/39 40/44/36 44/56/40
f 41/54/38 42/53/37 45/58/41
f 45/58/41 42/53/37 46/57/42
f 42/53/37 43/55/39 46/57/42
f 46/57/42 43/55/39 47/59/43
f 43/55/39 44/56/40 47/59/43
f 47/59/43 44/56/40 48/60/44
f 45/45/41 46/46/42 1/1/3
f 1/1/3 46/46/42 2/2/1
f 46/46/42 47/47/43 2/2/1
f 2/2/1 47/47/43 3/5/5
f 48/48/44 4/7/7 47/47/43
f 47/47/43 4/7/7 3/5/5
f 44/56/40 40/44/36 49/61/45
f 49/61/45 40/44/36 36/40/32
f 48/60/44 44/56/40 50/62/46
f 50/62/46 44/56/40 49/61/45
f 48/48/44 50/49/46 4/7/7
f 4/7/7 50/49/46 8/8/8
f 41/54/38 53/65/47 37/42/34
f 37/42/34 53/65/47 33/38/30
f 45/58/41 54/66/48 41/54/38
f 41/54/38 54/66/48 53/65/47
f 45/45/41 1/1/3 54/51/48
f 54/51/48 1/1/3 5/4/4
f 15/15/15 16/16/16 19/19/18
f 19/19/18 16/16/16 20/20/49
f 50/49/46 52/50/50 8/8/8
f 8/8/8 52/50/50 12/12/12
f 12/12/12 52/50/50 16/16/16
f 16/16/16 52/50/50 20/20/49
f 20/27/49 24/28/51 19/25/18
f 19/25/18 24/28/51 23/26/20
f 24/28/51 28/32/27 23/26/20
f 23/26/20 28/32/27 27/31/22
f 49/61/45 36/40/32 51/63/52
f 51/63/52 36/40/32 32/36/28
f 50/62/46 49/61/45 52/64/50
f 52/64/50 49/61/45 51/63/52
f 32/36/28 28/32/27 51/63/52
f 51/63/52 28/32/27 24/28/51
f 60/72/53 59/71/54 57/69/55
f 62/74/56 52/64/50 61/73/57
f 61/73/57 52/64/50 51/63/52
f 60/72/58 61/73/57 24/28/51
f 24/28/51 61/73/57 51/63/52
f 62/74/56 59/71/59 52/64/50
f 52/64/50 59/71/59 20/27/49
f 61/73/60 60/72/53 57/69/55
f 62/74/61 61/73/60 57/69/55
f 59/71/54 62/74/61 57/69/55
f 20/27/49 59/71/59 24/28/51
f 24/28/51 59/71/59 60/72/58
f 53/65/47 55/67/62 33/38/30
f 33/38/30 55/67/62 29/34/25
f 54/66/48 56/68/63 53/65/47
f 53/65/47 56/68/63 55/67/62
f 54/51/48 5/4/4 56/52/63
f 56/52/63 5/4/4 9/10/9
f 14/13/14 18/17/17 13/14/13
f 13/14/13 18/17/17 17/18/64
f 17/21/64 18/22/17 21/24/65
f 21/24/65 18/22/17 22/23/19
f 21/24/65 22/23/19 25/30/24
f 25/30/24 22/23/19 26/29/21
f 29/34/25 55/67/62 25/30/24
f 25/30/24 55/67/62 21/24/65
f 63/75/66 64/76/67 21/24/65
f 21/24/65 64/76/67 17/21/64
f 9/10/9 13/14/13 56/52/63
f 56/52/63 13/14/13 17/18/64
f 65/77/68 66/78/69 56/68/63
f 56/68/63 66/78/69 55/67/62
f 64/76/67 65/77/68 17/21/64
f 17/21/64 65/77/68 56/68/63
f 63/75/70 66/78/71 58/70/72
f 64/76/73 63/75/70 58/70/72
f 65/77/74 64/76/73 58/70/72
f 66/78/71 65/77/74 58/70/72
f 63/75/66 21/24/65 66/78/69
f 66/78/69 21/24/65 55/67/62
