# This file uses centimeters as units for non-parametric coordinates.

v -9.447037 3.240341 -4.118705
v 6.297449 3.213931 -4.302042
v -9.447226 3.268091 -0.967906
v 6.298812 3.244650 -1.283741
v -7.239123 3.292454 -4.118705
v -7.224564 3.263322 -1.031863
v 3.718366 3.292455 -4.302043
v 3.766104 3.273984 -1.282142
v 2.436959 3.292455 -2.999703
v 2.480366 3.299391 -1.283741
v -5.898044 3.292454 -2.999703
v -5.899479 3.292455 -0.967908
v 3.718366 3.292455 -5.904827
v 2.416713 3.292455 -5.904827
v -5.914675 3.275881 -5.904827
v -7.239123 3.201081 -5.904827
v 3.718366 3.292455 -7.162554
v 2.416713 3.292455 -7.162554
v -5.898045 3.247361 -7.162554
v -7.239202 3.224187 -7.162554
v -0.487053 3.292455 -5.904827
v -0.487277 3.203490 -7.162554
v -2.938739 3.292454 -5.904827
v -2.938739 3.232246 -7.162554
v -2.938739 3.292454 -2.999703
v -2.983302 3.292455 -1.283741
v -0.487167 3.292454 -2.999703
v -0.487509 3.292455 -1.283741
v -4.425477 3.292454 -2.999703
v -4.426751 3.292456 -1.283741
v 1.115534 3.292455 -2.999703
v 1.094270 3.292455 -1.283741
v -5.881162 3.264384 1.548652
v -4.426751 3.292456 1.548800
v 1.094270 3.292455 1.549703
v 2.480366 3.292456 1.567015
v -5.899558 3.292455 3.224689
v -4.426928 3.254395 3.224801
v 1.094269 3.263244 3.225516
v 2.480366 3.292456 3.225606
v -2.938739 3.309900 1.548800
v -2.943573 3.267321 3.200901
v -0.487854 3.309899 1.549703
v -0.468545 3.292455 3.225516
v -5.898045 3.292454 -4.118705
v 2.432122 3.292455 -4.302043
v 3.742529 3.266103 -2.913754
v 6.298083 3.243132 -2.898451
v -0.538137 3.294768 -1.063016
v -2.925652 3.295255 -1.063014
v -1.700556 3.292454 -5.904827
v -1.672505 3.322704 -7.162554
v -1.708933 3.292454 -2.999703
v -1.688366 3.292455 -1.283741
v -1.688318 3.295003 -1.063015
v -3.017841 3.200243 3.224801
v -0.408293 3.226763 3.225516
v -1.735887 3.309899 1.549243
v -1.723181 3.276279 3.213133
v 2.432791 3.291453 3.225603
v 5.020337 3.198823 -2.906030
v 5.027168 3.198823 -4.302042
v 5.012399 3.220544 -1.283734
v -1.704553 3.292454 -4.518610
v -2.938739 3.306911 -4.538173
v -0.492457 3.292454 -4.499314
v -8.369068 3.249640 -1.031555
v -8.391494 3.213385 -4.118705
v -5.893662 3.305245 -1.323820
v -6.016220 3.303615 -0.967908
v -5.922543 3.238410 -1.025190
v -7.303416 3.266391 -4.118705
v -7.273899 3.259185 -0.978779
v -8.406336 3.292454 -0.969799
v -8.446136 3.292453 -4.118705
v -8.348963 3.255181 -4.118705
v -8.338513 3.291972 -0.968209
v -8.370045 3.224524 -0.967906
v -7.249611 3.244921 -1.004912
v -7.269918 3.242840 -4.118705
v -9.404907 3.292454 -0.967906
v -9.395920 3.264704 -4.118705
v 6.202154 3.292456 -2.899020
v 6.194134 3.292456 -4.302042
v 6.211387 3.292456 -1.283741
v -7.239123 3.233210 -4.209700
v -5.879261 3.295636 -4.186502
v -7.184434 3.243752 -7.162554
v -7.182097 3.243752 -5.904827
v -7.210351 3.295636 -4.213520
v 3.710682 3.292456 -2.915857
v 3.698089 3.297710 -1.302297
v 4.964196 3.270735 -4.302042
v 4.957031 3.269454 -2.906406
v 4.948807 3.291063 -1.283655
v 5.080067 3.292456 -2.905676
v 5.088770 3.292456 -4.302042
v 5.069958 3.292456 -1.283735
v 1.104500 3.252040 -1.226490
v 2.401795 3.292456 1.534106
v 2.466676 3.233517 1.548028
v -7.197022 3.266445 -4.155669
v -5.916288 3.262668 -4.151591
v -5.899479 3.292455 1.477545
v 2.289537 3.263654 -7.162554
v 2.364306 3.201372 -7.162554
v -0.445448 3.263654 -7.162554
v -0.531020 3.322704 -7.162554
v -1.741729 3.292454 -7.162554
v -1.707295 3.222077 -7.162554
v -2.991860 3.292454 -7.162554
v -2.890984 3.292454 -7.162554
v -5.846678 3.292454 -7.162554
v -5.955004 3.243752 -7.162554
v -0.569287 3.292454 -4.500532
v -0.492462 3.216650 -4.462718
v 2.414816 3.233122 -4.369042
v 2.444743 3.056484 -4.318461
v 2.428306 3.054480 -4.373306
v 3.771242 3.265828 -4.302043
v 3.739439 3.244760 -4.286734
v 2.418352 3.269059 -1.254480
v 2.402647 3.321120 -1.287841
v 2.351913 3.292455 -2.999703
v 2.453571 3.267878 -1.264754
v 2.445479 3.292456 -1.283741
v 2.402074 3.248777 -2.999703
v 2.479887 3.290392 -1.184590
v 2.480137 3.217969 -1.236244
v 3.722472 3.271331 -1.295071
v 3.724437 3.265592 -1.282195
v 3.703588 3.266174 -1.282221
v -5.930063 3.296686 -1.285014
v -8.345629 3.266919 -3.113596
v -8.384213 3.225154 -3.116538
v -7.293510 3.263973 -3.064979
v -9.447094 3.248740 -3.165014
v -9.398648 3.273129 -3.162173
v -8.433475 3.292454 -3.117035
v -7.263040 3.243545 -3.063974
v -7.234138 3.282479 -3.061778
v -5.947959 3.274566 -1.243049
v -5.860790 3.292454 -2.999703
v -5.884223 3.260203 -2.999703
v -2.938739 3.266441 -4.497555
v -1.704662 3.292454 -4.502580
v -0.567357 3.292454 -4.465261
v -1.734698 3.257014 -4.502458
v -0.530333 3.292455 -1.283741
v -0.534392 3.292454 -2.999703
v -0.509239 3.269184 -1.283741
v -0.510429 3.267993 -2.999703
v -0.497920 3.257842 -1.279659
v -0.487079 3.250759 -1.283916
v -0.488935 3.251872 -3.014256
v -0.446922 3.272011 1.557640
v -0.440489 3.229021 3.225516
v -0.468632 3.259227 1.562682
v -2.990096 3.292456 1.548800
v -2.981333 3.190982 3.208824
v -2.966227 3.266329 1.560959
v 3.145891 3.292455 -7.162554
v 2.952323 3.292455 -5.904827
v 2.695317 3.245890 -4.354625
v 2.680324 3.292455 -4.302043
v 2.084044 3.279354 -1.196649
v 2.138526 3.265434 -1.248519
v 2.174289 3.316117 -1.287126
v 1.558738 3.292456 1.544162
v 1.560159 3.292456 1.555522
v 1.225339 3.266006 3.225524
vt 0.822684 0.853213
vt 0.853848 0.740267
vt 0.991290 0.736864
vt 0.945840 0.847457
vt 0.169295 0.853488
vt 0.124494 0.741826
vt 0.264714 0.746044
vt 0.296401 0.854556
vt 0.767927 0.805967
vt 0.783294 0.752233
vt 0.758225 0.856266
vt 0.697034 0.808504
vt 0.713945 0.753500
vt 0.338418 0.744634
vt 0.348821 0.807296
vt 0.358636 0.854457
vt 0.371781 0.902981
vt 0.313991 0.901172
vt 0.748165 0.898718
vt 0.805231 0.898891
vt 0.794480 0.935483
vt 0.740271 0.937001
vt 0.379237 0.934246
vt 0.324311 0.936050
vt 0.618421 0.939270
vt 0.622068 0.901807
vt 0.498264 0.902413
vt 0.500787 0.941569
vt 0.419676 0.808305
vt 0.412334 0.755404
vt 0.485266 0.755929
vt 0.491307 0.810143
vt 0.631080 0.756753
vt 0.627334 0.810184
vt 0.314024 0.616758
vt 0.394105 0.619963
vt 0.739537 0.614718
vt 0.820671 0.612370
vt 0.297168 0.530255
vt 0.384651 0.531660
vt 0.752242 0.528510
vt 0.840719 0.531753
vt 0.479121 0.535544
vt 0.484075 0.616676
vt 0.652159 0.614470
vt 0.659721 0.532207
vt 0.836297 0.802275
vt 0.966976 0.796028
vt 0.625093 0.743370
vt 0.487077 0.745627
vt 0.561180 0.902107
vt 0.562246 0.940382
vt 0.557801 0.810164
vt 0.557965 0.755383
vt 0.557561 0.744916
vt 0.473138 0.527385
vt 0.661292 0.526197
vt 0.567182 0.615085
vt 0.568266 0.534490
vt 0.837681 0.531643
vt 0.901618 0.799280
vt 0.885182 0.850292
vt 0.920608 0.740002
vt 0.494569 0.860059
vt 0.560475 0.859288
vt 0.625015 0.857479
vt 0.192664 0.742356
vt 0.230061 0.853998
vt 0.340754 0.756107
vt 0.331943 0.744484
vt 0.336022 0.744578
vt 0.261758 0.740609
vt 0.292175 0.854520
vt 0.226915 0.853972
vt 0.190307 0.742337
vt 0.194592 0.742307
vt 0.232489 0.854019
vt 0.193100 0.736589
vt 0.263213 0.743284
vt 0.294377 0.854539
vt 0.127169 0.741847
vt 0.172237 0.853513
vt 0.962069 0.796272
vt 0.940907 0.847687
vt 0.986487 0.737077
vt 0.359134 0.856299
vt 0.297297 0.856931
vt 0.316448 0.901249
vt 0.326952 0.936055
vt 0.299589 0.856907
vt 0.834655 0.802358
vt 0.849261 0.748538
vt 0.898380 0.799441
vt 0.882174 0.850433
vt 0.917246 0.740010
vt 0.904673 0.799128
vt 0.888123 0.850154
vt 0.923770 0.739862
vt 0.715456 0.745753
vt 0.815108 0.616086
vt 0.819894 0.615257
vt 0.297889 0.855653
vt 0.358878 0.855350
vt 0.314714 0.620371
vt 0.734994 0.937100
vt 0.737451 0.937054
vt 0.620156 0.939237
vt 0.616298 0.939311
vt 0.558886 0.940446
vt 0.560558 0.940414
vt 0.498637 0.941534
vt 0.503105 0.941524
vt 0.380960 0.934705
vt 0.378493 0.934969
vt 0.620937 0.857527
vt 0.625218 0.853332
vt 0.757805 0.858041
vt 0.756979 0.842118
vt 0.756789 0.845534
vt 0.825208 0.853096
vt 0.823978 0.853153
vt 0.774445 0.751765
vt 0.778378 0.748437
vt 0.763273 0.806175
vt 0.778850 0.751432
vt 0.780647 0.749487
vt 0.765853 0.806083
vt 0.784576 0.746542
vt 0.783908 0.749507
vt 0.850537 0.747604
vt 0.850624 0.739493
vt 0.848193 0.739694
vt 0.338445 0.755985
vt 0.220398 0.818378
vt 0.217920 0.817753
vt 0.281968 0.816293
vt 0.158555 0.819613
vt 0.155734 0.819690
vt 0.215270 0.818461
vt 0.283814 0.816828
vt 0.285551 0.817402
vt 0.335317 0.748935
vt 0.350614 0.807322
vt 0.349723 0.807309
vt 0.560453 0.858089
vt 0.494472 0.858769
vt 0.621088 0.856414
vt 0.558860 0.858106
vt 0.625295 0.754877
vt 0.624714 0.810183
vt 0.626043 0.810184
vt 0.628676 0.756004
vt 0.630031 0.754183
vt 0.630969 0.755047
vt 0.627311 0.810660
vt 0.654730 0.611964
vt 0.660596 0.528159
vt 0.653700 0.611258
vt 0.480580 0.616220
vt 0.476087 0.531407
vt 0.482466 0.615844
vt 0.770629 0.936169
vt 0.771655 0.898772
vt 0.771770 0.856993
vt 0.770667 0.855669
vt 0.764993 0.747832
vt 0.764697 0.746285
vt 0.763902 0.752033
vt 0.766389 0.615189
vt 0.766815 0.613915
vt 0.760611 0.528813
vt 0.766794 0.613957
vt 0.760590 0.528855
vt 0.766369 0.615231
vt 0.764677 0.746327
vt 0.764972 0.747875
vt 0.763882 0.752075
vt 0.763293 0.806133
vt 0.767906 0.806010
vt 0.770647 0.855711
vt 0.771749 0.857035
vt 0.771634 0.898814
vt 0.770650 0.936127
vn 0.457287 0.889315 -0.002614
vn 0.468568 0.883425 -0.001828
vn 0.468568 0.883425 -0.001828
vn 0.479774 0.877392 -0.001042
vn 0.605032 0.796023 -0.016835
vn 0.533209 0.845928 -0.009762
vn 0.533209 0.845928 -0.009762
vn 0.457280 0.889319 -0.002614
vn -0.843053 0.537805 -0.005255
vn -0.839249 0.543727 -0.004671
vn -0.839249 0.543727 -0.004671
vn -0.835403 0.549622 -0.004088
vn -0.780698 0.624889 -0.004866
vn -0.813019 0.582181 -0.008108
vn -0.813019 0.582181 -0.008108
vn -0.842999 0.537797 -0.011326
vn -0.000000 1.000000 0.000000
vn -0.000000 1.000000 0.000000
vn -0.000000 1.000000 0.000000
vn 0.000000 1.000000 0.000000
vn -0.000000 1.000000 0.000000
vn -0.000000 1.000000 -0.000000
vn -0.000000 1.000000 -0.000000
vn -0.000000 1.000000 -0.000000
vn -0.825228 0.404468 0.394214
vn -0.825228 0.404468 0.394214
vn -0.825228 0.404468 0.394214
vn -0.599049 0.800577 0.014745
vn -0.473029 0.881013 0.007772
vn -0.473029 0.881013 0.007772
vn -0.336412 0.941715 0.000625
vn -0.598767 0.800178 -0.034549
vn -0.777482 0.628523 -0.021912
vn -0.777482 0.628523 -0.021912
vn -0.908333 0.418173 -0.007926
vn 0.744649 0.667446 0.003644
vn 0.748491 0.663132 0.004055
vn 0.748491 0.663132 0.004055
vn 0.752308 0.658797 0.004467
vn 0.744670 0.667412 -0.005292
vn 0.743648 0.668551 -0.005223
vn 0.743648 0.668551 -0.005223
vn 0.742623 0.669690 -0.005154
vn -0.014455 0.999806 -0.013387
vn -0.008593 0.999922 -0.009090
vn -0.008593 0.999922 -0.009090
vn -0.002730 0.999985 -0.004791
vn -0.556127 0.831015 -0.011666
vn -0.556127 0.831015 -0.011666
vn -0.556127 0.831015 -0.011666
vn -0.002758 0.999996 -0.000255
vn -0.003435 0.999994 0.000321
vn -0.003435 0.999994 0.000321
vn -0.004113 0.999991 0.000897
vn -0.059524 0.998219 -0.003962
vn -0.059524 0.998219 -0.003962
vn -0.059524 0.998219 -0.003962
vn -0.179408 0.888083 0.423227
vn -0.179408 0.888083 0.423227
vn -0.179408 0.888083 0.423227
vn 0.365169 0.544421 0.755154
vn 0.204965 0.766404 0.608781
vn 0.204965 0.766404 0.608781
vn 0.025010 0.914531 0.403742
vn -0.734440 0.678668 -0.002636
vn -0.772433 0.635088 -0.003425
vn -0.772433 0.635088 -0.003425
vn -0.807842 0.589384 -0.004203
vn 0.003340 0.999926 -0.011688
vn 0.017073 0.999843 -0.004842
vn 0.017073 0.999843 -0.004842
vn 0.030802 0.999523 0.002005
vn -0.449299 0.893347 -0.007896
vn -0.474291 0.880328 -0.008479
vn -0.474291 0.880328 -0.008479
vn -0.498906 0.866609 -0.009055
vn 0.806891 0.590561 -0.012796
vn 0.778048 0.628107 -0.011134
vn 0.778048 0.628107 -0.011134
vn 0.747458 0.664242 -0.009447
vn 0.862409 0.466221 0.197201
vn 0.862409 0.466221 0.197201
vn 0.862409 0.466221 0.197201
vn -0.895154 0.419161 0.151666
vn -0.895154 0.419161 0.151666
vn -0.895154 0.419161 0.151666
vn -0.019603 0.999769 -0.008861
vn -0.009802 0.999942 -0.004431
vn -0.009802 0.999942 -0.004431
vn -0.000000 1.000000 -0.000001
vn 0.556961 0.830528 -0.004187
vn 0.530834 0.847469 -0.003474
vn 0.530834 0.847469 -0.003474
vn 0.504191 0.863588 -0.002758
vn 0.038661 0.837405 -0.545215
vn 0.038661 0.837405 -0.545215
vn 0.038661 0.837405 -0.545215
vn 0.556941 0.830541 -0.004187
vn 0.566076 0.824344 -0.003859
vn 0.566076 0.824344 -0.003859
vn 0.575142 0.818046 -0.003529
vn 0.002695 0.999994 0.002269
vn -0.004012 0.999981 -0.004686
vn -0.004012 0.999981 -0.004686
vn -0.010720 0.999875 -0.011641
vn -0.734306 0.678797 -0.005491
vn -0.717822 0.696212 -0.004389
vn -0.717822 0.696212 -0.004389
vn -0.700926 0.713227 -0.003284
vn 0.806888 0.590565 -0.012797
vn 0.814835 0.579577 -0.011598
vn 0.814835 0.579577 -0.011598
vn 0.822630 0.568482 -0.010398
vn -0.020030 0.999799 0.000253
vn -0.024617 0.999688 -0.004317
vn -0.024617 0.999688 -0.004317
vn -0.029202 0.999534 -0.008886
vn -0.449211 0.893379 -0.009149
vn -0.439749 0.898080 -0.008563
vn -0.439749 0.898080 -0.008563
vn -0.430237 0.902681 -0.007976
vn -0.803175 0.595669 0.009410
vn -0.704464 0.709710 0.006431
vn -0.704464 0.709710 0.006431
vn -0.589721 0.807600 0.003307
vn -0.803164 0.595683 0.009410
vn -0.827100 0.562008 0.007305
vn -0.827100 0.562008 0.007305
vn -0.849620 0.527370 0.005188
vn 0.008718 0.999962 0.000005
vn 0.004359 0.999983 -0.003814
vn 0.004359 0.999983 -0.003814
vn 0.000000 0.999971 -0.007632
vn -0.792234 0.610000 -0.016299
vn -0.792234 0.610000 -0.016299
vn -0.792234 0.610000 -0.016299
vn -0.256406 0.966180 -0.027413
vn -0.565240 0.824537 -0.025345
vn -0.565240 0.824537 -0.025345
vn -0.808820 0.587705 -0.020350
vn 0.919019 0.393881 0.016189
vn 0.919019 0.393881 0.016189
vn 0.919019 0.393881 0.016189
vn 0.001199 0.892895 0.450264
vn -0.006351 0.821569 0.570074
vn -0.006351 0.821569 0.570074
vn -0.013777 0.734223 0.678768
vn 0.000000 1.000000 0.000000
vn -0.012669 0.999843 -0.012360
vn -0.012669 0.999843 -0.012360
vn -0.025334 0.999373 -0.024717
vn -0.025330 0.999196 -0.031075
vn -0.012550 0.999695 -0.021291
vn -0.012550 0.999695 -0.021291
vn 0.000233 0.999934 -0.011501
vn -0.659502 0.751261 -0.025756
vn -0.659502 0.751261 -0.025756
vn -0.659502 0.751261 -0.025756
vn -0.063212 0.997724 -0.023461
vn -0.063212 0.997724 -0.023461
vn -0.063212 0.997724 -0.023461
vn 0.004324 0.739975 -0.672621
vn 0.002166 0.780420 -0.625252
vn 0.002166 0.780420 -0.625252
vn 0.000000 0.817834 -0.575454
vn -0.007465 0.999972 0.000000
vn -0.003733 0.999982 0.004718
vn -0.003733 0.999982 0.004718
vn 0.000000 0.999956 0.009436
vn 0.749484 0.661265 -0.031655
vn 0.749484 0.661265 -0.031655
vn 0.749484 0.661265 -0.031655
vn -0.783132 0.621145 -0.029735
vn -0.783132 0.621145 -0.029735
vn -0.783132 0.621145 -0.029735
vn 0.000000 1.000000 -0.000000
vn -0.002784 0.999975 0.006437
vn -0.002784 0.999975 0.006437
vn -0.005568 0.999902 0.012874
vn -0.945028 0.326723 -0.013218
vn -0.945028 0.326723 -0.013218
vn -0.945028 0.326723 -0.013218
vn 0.897859 0.439301 -0.029392
vn 0.897859 0.439301 -0.029392
vn 0.897859 0.439301 -0.029392
vn -0.000000 1.000000 -0.000000
vn -0.000000 1.000000 -0.000000
vn -0.000000 1.000000 -0.000000
vn -0.000000 1.000000 0.000000
vn -0.000000 1.000000 -0.000001
vn 0.000000 1.000000 -0.000001
vn 0.000000 1.000000 -0.000001
vn 0.000000 1.000000 -0.000001
vn 0.011713 0.999931 0.000034
vn 0.005856 0.999969 -0.005272
vn 0.005856 0.999969 -0.005272
vn -0.000000 0.999944 -0.010578
vn -0.009438 0.421352 0.906848
vn -0.000517 0.573755 0.819027
vn -0.000517 0.573755 0.819027
vn 0.008419 0.708360 0.705801
vn 0.007757 0.999819 -0.017364
vn 0.003879 0.999783 -0.020471
vn 0.003879 0.999783 -0.020471
vn 0.000000 0.999722 -0.023577
vn -0.762884 0.646515 -0.005186
vn -0.762884 0.646515 -0.005186
vn -0.762884 0.646515 -0.005186
vn -0.762876 0.646541 -0.002168
vn -0.762876 0.646541 -0.002168
vn -0.762876 0.646541 -0.002168
vn 0.000204 0.999933 -0.011543
vn 0.000102 0.999927 -0.012113
vn 0.000102 0.999927 -0.012113
vn 0.000000 0.999920 -0.012682
vn 0.000000 1.000000 -0.000001
vn 0.000000 1.000000 -0.000001
vn 0.000000 1.000000 -0.000001
vn 0.000000 1.000000 -0.000000
vn 0.000204 0.999933 -0.011540
vn 0.000102 0.999939 -0.011010
vn 0.000102 0.999939 -0.011010
vn 0.000000 0.999945 -0.010480
vn 0.365433 -0.000135 0.930838
vn 0.365433 -0.000135 0.930838
vn 0.365433 -0.000135 0.930838
vn -0.180533 0.168572 0.969016
vn -0.180533 0.168572 0.969016
vn -0.180533 0.168572 0.969016
vn 0.740802 0.671450 0.019158
vn 0.740802 0.671450 0.019158
vn 0.740802 0.671450 0.019158
vn 0.705897 0.708239 0.010326
vn 0.705897 0.708239 0.010326
vn 0.705897 0.708239 0.010326
vn -0.820394 0.570384 -0.040200
vn -0.820394 0.570384 -0.040200
vn -0.820394 0.570384 -0.040200
vn 0.938513 0.344372 -0.024526
vn 0.938513 0.344372 -0.024526
vn 0.938513 0.344372 -0.024526
vn -0.000000 0.999711 0.024044
vn -0.000000 0.999711 0.024044
vn -0.000000 0.999711 0.024044
vn -0.000000 0.999711 0.024044
vn -0.000000 1.000000 0.000000
vn -0.000000 1.000000 0.000000
vn -0.000000 1.000000 0.000000
vn -0.000000 1.000000 -0.000000
vn -0.000000 1.000000 -0.000000
vn -0.000000 1.000000 -0.000000
vn -0.000000 1.000000 0.000000
vn 0.000000 1.000000 -0.000001
vn 0.000000 1.000000 -0.000001
vn 0.000000 1.000000 -0.000001
vn 0.000000 1.000000 -0.000001
vn -0.014265 0.434710 0.900458
vn -0.014265 0.434710 0.900458
vn -0.014265 0.434710 0.900458
vn 0.711475 0.701632 -0.038926
vn 0.711475 0.701632 -0.038926
vn 0.711475 0.701632 -0.038926
vn -0.000000 1.000000 0.000024
vn -0.000000 1.000000 0.000011
vn -0.000000 1.000000 0.000011
vn -0.000000 1.000000 -0.000001
vn -0.000000 1.000000 -0.000000
vn -0.000000 1.000000 -0.000000
vn -0.000000 1.000000 -0.000000
vn 0.000000 1.000000 0.000000
vn 0.595759 0.803104 -0.009737
vn 0.655594 0.754978 -0.014317
vn 0.655594 0.754978 -0.014317
vn 0.711549 0.702385 -0.018812
vn 0.714340 0.699798 -0.000981
vn 0.727775 0.685815 -0.001367
vn 0.727775 0.685815 -0.001367
vn 0.740936 0.671574 -0.001753
vn -0.724637 0.689131 0.000024
vn -0.727778 0.685813 -0.000061
vn -0.727778 0.685813 -0.000061
vn -0.730903 0.682481 -0.000146
vn 0.714246 0.699710 -0.016066
vn 0.714246 0.699710 -0.016066
vn 0.714246 0.699710 -0.016066
vn -0.346949 0.329948 -0.877930
vn -0.346949 0.329948 -0.877930
vn -0.346949 0.329948 -0.877930
vn -0.000007 0.999796 0.020202
vn -0.006502 0.999861 0.015380
vn -0.006502 0.999861 0.015380
vn -0.012996 0.999860 0.010557
vn 0.914515 0.404471 -0.008130
vn 0.925399 0.378919 -0.007620
vn 0.925399 0.378919 -0.007620
vn 0.935568 0.353074 -0.007105
vn 0.069932 0.997408 0.016935
vn -0.225478 0.973869 0.027195
vn -0.225478 0.973869 0.027195
vn -0.501062 0.864701 0.035063
vn 0.728890 0.683579 0.037938
vn 0.518007 0.853945 0.049465
vn 0.518007 0.853945 0.049465
vn 0.268983 0.961436 0.057350
vn -0.007542 0.999766 0.020259
vn -0.003776 0.999728 0.023012
vn -0.003776 0.999728 0.023012
vn -0.000009 0.999668 0.025764
vn -0.895777 0.444338 0.012105
vn -0.871225 0.490744 0.011738
vn -0.871225 0.490744 0.011738
vn -0.844271 0.535797 0.011338
vn 0.595947 0.800522 0.063330
vn 0.595947 0.800522 0.063330
vn 0.595947 0.800522 0.063330
vn 0.003767 0.975774 0.218750
vn 0.003767 0.975774 0.218750
vn 0.003767 0.975774 0.218750
vn -0.542649 0.816109 0.198743
vn -0.542649 0.816109 0.198743
vn -0.542649 0.816109 0.198743
vn -0.007905 0.999924 0.009474
vn -0.014117 0.999427 -0.030778
vn -0.007531 0.999924 0.009726
vn -0.027217 0.993377 -0.111632
vn -0.017219 0.998554 -0.050924
vn 0.000000 0.998490 0.054936
vn 0.019202 0.999062 0.038826
vn 0.019202 0.999062 0.038826
vn 0.038392 0.999005 0.022691
vn 0.007728 0.999321 0.036037
vn 0.007728 0.999321 0.036037
vn 0.007728 0.999321 0.036037
vn -0.919405 0.393311 -0.000893
vn -0.919405 0.393311 -0.000893
vn -0.919405 0.393311 -0.000893
vn -0.018928 0.979590 0.200112
vn -0.003868 0.991786 0.127853
vn 0.003271 0.999990 0.003121
vn 0.025834 0.999531 -0.016457
vn -0.017957 0.928400 0.371148
vn -0.000000 1.000000 0.000000
vn -0.000000 1.000000 0.000000
vn -0.000000 1.000000 0.000000
vn -0.000000 1.000000 0.000000
vn -0.000001 1.000000 0.000000
vn -0.000001 1.000000 0.000000
vn -0.000001 1.000000 0.000000
vn -0.000000 1.000000 0.000000
vn 0.637869 0.765764 -0.082035
vn 0.637869 0.765764 -0.082035
vn 0.637869 0.765764 -0.082035
vn -0.866764 0.498718 0.000000
vn -0.866764 0.498718 0.000000
vn -0.866764 0.498718 0.000000
vn -0.954121 -0.078945 0.288828
vn -0.951292 -0.075586 0.298883
vn -0.951292 -0.075586 0.298883
vn -0.948348 -0.072219 0.308903
vn -0.997160 -0.075199 -0.004137
vn -0.997160 -0.075199 -0.004137
vn -0.997160 -0.075199 -0.004137
vn -0.998552 -0.053665 0.003709
vn -0.998552 -0.053665 0.003709
vn -0.998552 -0.053665 0.003709
vn 0.637376 0.770545 0.003533
vn 0.637376 0.770545 0.003533
vn 0.637376 0.770545 0.003533
vn 0.000000 0.748640 -0.662976
vn 0.000000 0.748640 -0.662976
vn 0.000000 0.748640 -0.662976
vn -0.046601 0.998665 0.022272
vn -0.023308 0.999666 0.011140
vn -0.023308 0.999666 0.011140
vn -0.000001 1.000000 0.000000
vn 0.915654 0.401881 -0.008308
vn 0.915654 0.401881 -0.008308
vn 0.915654 0.401881 -0.008308
vn -0.000001 1.000000 -0.000000
vn -0.000001 1.000000 -0.000000
vn -0.000001 1.000000 -0.000000
vn -0.000000 1.000000 0.000000
vn -0.115893 0.583045 0.804132
vn -0.115893 0.583045 0.804132
vn -0.115893 0.583045 0.804132
vn -0.781365 0.624063 0.003879
vn -0.519732 0.854325 0.002580
vn -0.519732 0.854325 0.002580
vn -0.194966 0.980810 0.000967
vn 0.001331 0.999994 -0.003246
vn 0.000798 0.999993 -0.003647
vn 0.000798 0.999993 -0.003647
vn 0.000266 0.999992 -0.004049
vn 0.019533 0.503745 0.863631
vn 0.019533 0.503745 0.863631
vn 0.019533 0.503745 0.863631
vn 0.733370 0.679795 0.006891
vn 0.686901 0.726736 0.004689
vn 0.686901 0.726736 0.004689
vn 0.637432 0.770502 0.002465
vn 0.013581 0.538656 0.842416
vn 0.013581 0.538656 0.842416
vn 0.013581 0.538656 0.842416
vn 0.000000 0.999738 -0.022894
vn 0.000000 0.999738 -0.022893
vn 0.000000 0.999738 -0.022893
vn 0.000000 0.999738 -0.022893
vn -0.000001 1.000000 0.000000
vn -0.000001 1.000000 0.000000
vn -0.000001 1.000000 0.000000
vn -0.000000 1.000000 0.000000
vn -0.000000 0.999549 0.030024
vn -0.023713 0.999131 0.034274
vn -0.023713 0.999131 0.034274
vn -0.047411 0.998133 0.038503
vn -0.000000 0.748642 -0.662974
vn 0.000001 0.748642 -0.662974
vn 0.000001 0.748642 -0.662974
vn 0.000002 0.748642 -0.662974
vn -0.000001 1.000000 -0.000000
vn -0.000001 1.000000 -0.000000
vn -0.000001 1.000000 -0.000000
vn 0.378276 0.203071 -0.903144
vn 0.378276 0.203071 -0.903144
vn 0.378276 0.203071 -0.903144
vn -0.042636 0.965434 -0.257139
vn -0.042636 0.965434 -0.257139
vn -0.042636 0.965434 -0.257139
vn 0.670083 0.742051 0.018684
vn 0.670083 0.742051 0.018684
vn 0.670083 0.742051 0.018684
vn -0.018348 0.960674 -0.277072
vn -0.018348 0.960674 -0.277072
vn -0.018348 0.960674 -0.277072
vn -0.018347 0.960674 -0.277071
vn 0.891657 0.264912 -0.367111
vn 0.891657 0.264912 -0.367111
vn 0.891657 0.264912 -0.367111
vn -0.021951 0.999630 -0.016088
vn -0.021951 0.999630 -0.016088
vn -0.021951 0.999630 -0.016088
vn 0.009217 0.601806 0.798589
vn 0.000041 0.570143 0.821546
vn 0.000041 0.570143 0.821546
vn -0.009135 0.537559 0.843176
vn 0.000000 -0.004191 0.999991
vn 0.000000 -0.004191 0.999991
vn 0.000000 -0.004191 0.999991
vn -0.000000 1.000000 -0.000001
vn -0.000000 1.000000 -0.000001
vn -0.000000 1.000000 -0.000001
vn -0.000000 1.000000 -0.000000
vn -0.000001 1.000000 -0.000050
vn -0.005270 0.999981 0.003044
vn -0.000000 1.000000 -0.000019
vn -0.007026 0.999975 0.000205
vn -0.000058 0.999989 -0.004791
vn -0.013944 0.999898 -0.003175
vn -0.013944 0.999898 -0.003175
vn -0.027827 0.999612 -0.001559
vn -0.021070 0.999711 0.011609
vn -0.014050 0.999893 0.004071
vn -0.021068 0.999778 0.000000
vn -0.013118 0.999538 0.027420
vn -0.018693 0.999574 0.022422
vn -0.018693 0.999574 0.022422
vn -0.024268 0.999554 0.017424
vn 0.558148 0.828994 -0.035220
vn 0.608415 0.792902 -0.033712
vn 0.608415 0.792902 -0.033712
vn 0.656352 0.753773 -0.032074
vn 0.234574 0.641477 0.730399
vn 0.274877 0.610377 0.742888
vn 0.274877 0.610377 0.742888
vn 0.314425 0.577601 0.753336
vn 0.000000 0.999905 -0.013815
vn -0.010953 0.999915 -0.007044
vn -0.010953 0.999915 -0.007044
vn -0.021904 0.999760 -0.000272
vn -0.010900 0.610782 0.791724
vn -0.004653 0.722016 0.691861
vn -0.004653 0.722016 0.691861
vn 0.001698 0.817088 0.576511
vn -0.018347 0.960672 -0.277078
vn -0.018347 0.960672 -0.277078
vn -0.018347 0.960672 -0.277078
vn -0.027566 0.999569 -0.010061
vn -0.013872 0.999828 -0.012310
vn -0.013872 0.999828 -0.012310
vn -0.000174 0.999894 -0.014557
vn -0.000099 0.999969 0.007899
vn -0.000001 1.000000 0.000000
vn -0.007089 0.999914 0.011075
vn -0.010634 0.999805 0.016612
vn -0.021068 0.999626 0.017425
f 83/83/1 85/85/2 48/48/3
f 48/48/3 85/85/2 4/3/4
f 2/4/5 84/84/6 48/48/7
f 48/48/7 84/84/6 83/83/8
f 96/96/9 97/97/10 61/61/11
f 61/61/11 97/97/10 62/62/12
f 98/98/13 96/96/14 63/63/15
f 63/63/15 96/96/14 61/61/16
f 96/96/17 98/98/18 83/83/19
f 83/83/19 98/98/18 85/85/20
f 97/97/21 96/96/22 84/84/23
f 84/84/23 96/96/22 83/83/24
f 86/87/25 102/102/26 90/90/27
f 16/18/28 89/88/29 20/24/30
f 20/24/30 89/88/29 88/89/31
f 89/88/32 16/18/33 90/90/34
f 90/90/34 16/18/33 86/87/35
f 61/61/36 62/62/37 94/93/38
f 94/93/38 62/62/37 93/94/39
f 61/61/40 94/93/41 63/63/42
f 63/63/42 94/93/41 95/95/43
f 95/95/44 94/93/45 8/2/46
f 8/2/46 94/93/45 47/47/47
f 121/121/48 47/47/49 120/120/50
f 47/47/51 94/93/52 120/120/53
f 120/120/53 94/93/52 93/94/54
f 47/47/55 130/130/56 8/2/57
f 130/130/58 131/131/59 8/2/60
f 92/92/61 132/132/62 130/130/63
f 130/130/63 132/132/62 131/131/64
f 135/135/65 67/67/66 134/134/67
f 134/134/67 67/67/66 77/76/68
f 134/134/69 77/76/70 136/136/71
f 136/136/71 77/76/70 73/72/72
f 137/138/73 3/6/74 138/137/75
f 138/137/75 3/6/74 81/81/76
f 135/135/77 139/139/78 67/67/79
f 67/67/79 139/139/78 74/75/80
f 74/75/81 78/78/82 67/67/83
f 78/78/84 77/76/85 67/67/86
f 138/137/87 81/81/88 139/139/89
f 139/139/89 81/81/88 74/75/90
f 140/140/91 136/136/92 79/79/93
f 79/79/93 136/136/92 73/72/94
f 102/102/95 86/87/96 5/8/97
f 140/140/98 80/80/99 136/136/100
f 136/136/100 80/80/99 72/73/101
f 136/136/102 72/73/103 134/134/104
f 134/134/104 72/73/103 76/77/105
f 134/134/106 76/77/107 135/135/108
f 135/135/108 76/77/107 68/68/109
f 135/135/110 68/68/111 139/139/112
f 139/139/112 68/68/111 75/74/113
f 139/139/114 75/74/115 138/137/116
f 138/137/116 75/74/115 82/82/117
f 138/137/118 82/82/119 137/138/120
f 137/138/120 82/82/119 1/5/121
f 141/141/122 140/140/123 6/7/124
f 6/7/124 140/140/123 79/79/125
f 141/141/126 5/8/127 140/140/128
f 140/140/128 5/8/127 80/80/129
f 30/30/130 29/29/131 69/69/132
f 69/69/132 29/29/131 143/143/133
f 11/15/134 142/142/135 133/133/136
f 133/133/137 69/69/138 144/144/139
f 144/144/139 69/69/138 143/143/140
f 133/133/141 144/144/142 11/15/143
f 102/102/144 103/103/145 90/90/146
f 90/90/146 103/103/145 87/86/147
f 88/89/148 89/88/149 114/114/150
f 114/114/150 89/88/149 15/17/151
f 89/88/152 90/90/153 15/17/154
f 15/17/154 90/90/153 87/86/155
f 15/17/156 113/113/157 19/23/158
f 114/114/159 15/17/160 19/23/161
f 103/103/162 102/102/163 45/16/164
f 45/16/164 102/102/163 5/8/165
f 11/15/166 45/16/167 141/141/168
f 141/141/168 45/16/167 5/8/169
f 111/111/170 23/27/171 24/28/172
f 23/27/173 112/112/174 24/28/175
f 111/111/176 113/113/177 23/27/178
f 23/27/178 113/113/177 15/17/179
f 110/110/180 51/51/181 52/52/182
f 51/51/183 110/110/184 109/109/185
f 23/27/186 51/51/187 112/112/188
f 112/112/188 51/51/187 109/109/189
f 25/32/190 29/29/191 26/31/192
f 26/31/192 29/29/191 30/30/193
f 64/65/194 51/51/195 65/64/196
f 65/64/196 51/51/195 23/27/197
f 64/65/198 65/64/199 148/148/200
f 148/148/200 65/64/199 145/146/201
f 145/146/202 25/32/203 148/148/204
f 148/148/204 25/32/203 53/53/205
f 64/65/206 148/148/207 146/145/208
f 148/148/209 53/53/210 146/145/211
f 55/55/212 54/54/213 50/50/214
f 50/50/214 54/54/213 26/31/215
f 26/31/216 54/54/217 25/32/218
f 25/32/218 54/54/217 53/53/219
f 55/55/220 49/49/221 54/54/222
f 54/54/222 49/49/221 149/149/223
f 153/153/224 154/154/225 28/33/226
f 151/152/227 153/153/228 28/33/229
f 49/49/230 151/152/231 149/149/232
f 153/153/233 151/152/234 49/49/235
f 21/26/236 107/107/237 22/25/238
f 108/108/239 21/26/240 22/25/241
f 52/52/242 51/51/243 108/108/244
f 108/108/244 51/51/243 21/26/245
f 21/26/246 115/115/247 66/66/248
f 21/26/249 51/51/250 115/115/251
f 115/115/251 51/51/250 64/65/252
f 149/149/253 150/150/254 54/54/255
f 54/54/255 150/150/254 53/53/256
f 115/115/257 116/116/258 66/66/259
f 147/147/260 116/116/261 115/115/262
f 147/147/263 115/115/264 146/145/265
f 146/145/265 115/115/264 64/65/266
f 146/145/267 53/53/268 147/147/269
f 147/147/269 53/53/268 150/150/270
f 152/151/271 155/155/272 147/147/273
f 147/147/273 155/155/272 116/116/274
f 152/151/275 150/150/276 151/152/277
f 151/152/277 150/150/276 149/149/278
f 152/151/279 151/152/280 27/34/281
f 27/34/281 151/152/280 28/33/282
f 152/151/283 147/147/284 150/150/285
f 155/155/286 152/151/287 27/34/288
f 58/58/289 59/59/290 43/45/291
f 43/45/291 59/59/290 44/46/292
f 157/157/293 158/158/294 44/46/295
f 44/46/295 158/158/294 43/45/296
f 157/157/297 57/57/298 158/158/299
f 158/158/299 57/57/298 156/156/300
f 161/161/301 159/159/302 160/160/303
f 160/160/303 159/159/302 56/56/304
f 59/59/305 58/58/306 42/43/307
f 42/43/307 58/58/306 41/44/308
f 160/160/309 42/43/310 161/161/311
f 161/161/311 42/43/310 41/44/312
f 71/71/313 142/142/314 70/70/315
f 133/133/316 71/71/317 69/69/318
f 142/142/319 71/71/320 133/133/321
f 141/141/322 6/7/323 11/15/324
f 70/70/325 142/142/326 6/7/323
f 6/7/323 142/142/326 11/15/324
f 159/159/327 34/36/328 56/56/329
f 56/56/329 34/36/328 38/40/330
f 30/30/331 69/69/332 12/14/333
f 69/69/334 71/71/335 12/14/336
f 34/36/337 33/35/338 38/40/339
f 38/40/339 33/35/338 37/39/340
f 34/36/337 104/104/341 33/35/338
f 104/104/342 34/36/343 12/14/344
f 12/14/344 34/36/343 30/30/345
f 163/182/346 13/20/347 162/162/348
f 162/162/348 13/20/347 17/21/349
f 14/19/350 106/106/351 105/105/352
f 106/106/353 14/19/354 18/22/355
f 119/119/356 118/118/357 117/117/358
f 117/117/358 118/118/357 46/11/359
f 14/19/360 119/119/361 117/117/362
f 118/118/363 9/9/364 46/11/365
f 7/1/366 91/91/367 47/47/368
f 164/181/369 165/180/370 7/1/371
f 164/181/372 7/1/373 163/182/374
f 163/182/374 7/1/373 13/20/375
f 47/47/376 121/121/377 7/1/378
f 9/179/379 91/91/380 165/180/381
f 165/180/381 91/91/380 7/1/382
f 126/125/383 125/126/384 10/10/385
f 127/127/386 126/125/387 9/179/388
f 9/179/388 126/125/387 10/10/389
f 92/92/390 91/91/391 10/10/392
f 10/10/392 91/91/391 9/179/393
f 125/126/394 129/129/395 10/10/396
f 130/130/397 47/47/398 92/92/399
f 92/92/399 47/47/398 91/91/400
f 132/132/401 92/92/402 10/10/403
f 14/19/404 105/105/405 21/26/406
f 21/26/406 105/105/405 107/107/407
f 162/183/408 18/22/409 163/163/410
f 163/163/410 18/22/409 14/19/411
f 163/163/412 14/19/413 164/164/414
f 164/164/414 14/19/413 117/117/415
f 165/165/416 164/164/417 46/11/418
f 46/11/418 164/164/417 117/117/419
f 9/9/420 165/165/421 46/11/422
f 101/101/423 100/100/424 36/38/425
f 128/128/426 125/126/427 122/123/428
f 128/128/429 100/100/430 101/101/431
f 167/176/432 166/175/433 122/123/434
f 122/123/434 166/175/433 128/128/435
f 129/129/436 125/126/437 128/128/438
f 124/124/439 168/177/440 123/122/441
f 167/176/442 122/123/443 168/177/444
f 168/177/444 122/123/443 123/122/445
f 154/154/446 32/13/447 28/33/448
f 28/33/449 32/13/450 27/34/451
f 27/34/451 32/13/450 31/12/452
f 169/174/453 170/172/454 100/100/455
f 100/100/455 170/172/454 36/38/456
f 169/174/457 100/100/458 166/175/459
f 166/175/459 100/100/458 128/128/460
f 171/173/461 60/60/462 170/172/454
f 40/42/463 36/38/456 60/60/462
f 170/172/454 60/60/462 36/38/456
f 156/156/464 57/57/465 35/37/466
f 35/37/466 57/57/465 39/41/467
f 126/125/468 127/127/469 123/122/470
f 123/122/470 127/127/469 124/124/471
f 125/126/472 126/125/473 122/123/474
f 122/123/474 126/125/473 123/122/475
f 124/178/476 31/12/477 168/168/478
f 168/168/478 31/12/477 32/13/479
f 168/168/480 32/13/481 167/166/482
f 167/166/482 32/13/481 99/99/483
f 166/167/484 167/166/485 99/99/486
f 166/167/487 99/99/488 169/169/489
f 169/169/489 99/99/488 35/37/490
f 170/170/491 169/169/492 35/37/493
f 170/170/491 35/37/493 171/171/494
f 171/171/494 35/37/493 39/41/495
