# This file uses centimeters as units for non-parametric coordinates.

v -1.612915 3.264408 -7.162208
v -1.612915 3.426030 -7.162208
v -7.238943 3.264408 -7.162208
v -7.238943 3.426030 -7.162208
v -7.393441 3.264408 -4.319771
v -7.393441 3.426030 -4.319771
v -9.447037 3.264408 -4.145436
v -9.447037 3.426030 -4.145436
v -9.447241 3.264408 -0.982426
v -9.447241 3.426030 -0.982426
v -6.032598 3.264408 -0.793697
v -6.032598 3.426030 -0.793697
v -5.917600 3.264408 3.221749
v -5.917600 3.426030 3.221749
v -1.616507 3.264408 3.221749
v -1.616507 3.426030 3.221749
v 3.721107 3.426030 -7.162208
v 3.721107 3.264408 -7.162208
v 3.805882 3.426030 -4.399597
v 3.805882 3.264408 -4.399597
v 6.301019 3.426030 -4.302326
v 6.301019 3.264408 -4.302326
v 6.300112 3.426030 -1.283964
v 6.300112 3.264408 -1.283964
v 2.594162 3.426030 -1.112504
v 2.594162 3.264408 -1.112504
v 2.463095 3.426030 3.221749
v 2.463095 3.264408 3.221749
v -0.398165 3.264408 -5.747943
v 2.291579 3.264408 -5.747943
v 2.291579 3.426030 -5.747943
v -0.398165 3.426030 -5.747943
v 2.291579 3.264408 -3.156480
v 2.291579 3.426030 -3.156480
v -0.402561 3.264408 -3.156480
v -0.402561 3.426030 -3.156480
v -0.198970 3.426030 -2.999654
v -0.185125 3.264408 -2.999654
v -0.520340 3.426030 -3.354769
v -0.520320 3.264408 -3.365417
v -0.516272 3.426030 -5.563428
v -0.516281 3.264408 -5.558692
v -0.183679 3.264408 -5.904769
v -0.194211 3.426030 -5.904769
v 2.098605 3.426030 -5.904769
v 2.094366 3.264408 -5.904769
v 2.409726 3.264408 -5.538162
v 2.409726 3.426030 -5.541547
v 2.099408 3.426030 -2.999654
v 2.102958 3.264408 -2.999654
v 2.409726 3.426030 -3.363245
v 2.409726 3.264408 -3.367359
v -5.852473 3.425152 -3.344289
v -5.852454 3.265285 -3.354822
v -5.735975 3.265285 -3.148154
v -5.735975 3.425152 -3.148154
v -5.848450 3.425152 -5.528964
v -5.848459 3.265285 -5.524280
v -5.731626 3.265285 -5.711475
v -5.731626 3.425152 -5.711475
v -5.529886 3.425152 -5.866599
v -5.519469 3.265285 -5.866599
v -3.261967 3.425152 -5.866599
v -3.266161 3.265285 -5.866599
v -3.071090 3.265285 -5.711475
v -3.071090 3.425152 -5.711475
v -5.520899 3.265285 -2.993030
v -5.534594 3.425152 -2.993030
v -3.257662 3.265285 -2.993030
v -3.261174 3.425152 -2.993030
v -2.954226 3.425152 -5.507320
v -2.954226 3.265285 -5.503973
v -3.071090 3.425152 -3.148154
v -3.071090 3.265285 -3.148154
v -2.954226 3.425152 -3.352673
v -2.954226 3.265285 -3.356742
v -4.400322 3.425152 1.180680
v -4.400304 3.265285 1.170147
v -4.283824 3.265285 1.376816
v -4.283824 3.425152 1.376816
v -4.396300 3.425152 -0.931743
v -4.396309 3.265285 -0.927059
v -4.279475 3.265285 -1.114254
v -4.279475 3.425152 -1.114254
v -4.077736 3.425152 -1.269377
v -4.067318 3.265285 -1.269377
v 0.738935 3.425152 -1.269377
v 0.734741 3.265285 -1.269377
v 0.929813 3.265285 -1.114254
v 0.929813 3.425152 -1.114254
v -4.068748 3.265285 1.531939
v -4.082443 3.425152 1.531939
v 0.743241 3.265285 1.531939
v 0.739729 3.425152 1.531939
v 1.046677 3.425152 -0.910099
v 1.046677 3.265285 -0.906751
v 0.929813 3.425152 1.376816
v 0.929813 3.265285 1.376816
v 1.046677 3.425152 1.172297
v 1.046677 3.265285 1.168227
v 3.981949 3.264408 -4.302326
v 3.969173 3.426030 -4.302326
v 3.721107 3.264408 -4.586493
v 3.721107 3.426030 -4.582906
v -7.613824 3.426030 -4.145436
v -7.609505 3.264408 -4.145436
v -7.238943 3.264408 -4.569513
v -7.238943 3.426030 -4.568134
v -6.359849 3.426030 -0.982426
v -6.359343 3.264408 -0.982426
v -5.917600 3.264408 -0.452972
v -5.917600 3.426030 -0.490526
v 2.463095 3.264408 -0.825723
v 2.463095 3.426030 -0.847528
v 2.839208 3.264408 -1.283964
v 2.825762 3.426030 -1.283964
vt 0.000000 0.000000
vt 1.000000 0.000000
vt 1.000000 1.000000
vt 0.000000 1.000000
vt 0.000000 0.000000
vt 1.000000 0.000000
vt 1.000000 1.000000
vt 0.000000 1.000000
vt 0.000000 0.000000
vt 1.000000 0.000000
vt 1.000000 1.000000
vt 0.000000 1.000000
vt 0.000000 0.000000
vt 1.000000 0.000000
vt 1.000000 1.000000
vt 0.000000 1.000000
vt 0.000000 0.000000
vt 1.000000 0.000000
vt 1.000000 1.000000
vt 0.000000 1.000000
vt 0.000000 0.000000
vt 1.000000 0.000000
vt 1.000000 1.000000
vt 0.000000 1.000000
vt 0.000000 0.000000
vt 1.000000 0.000000
vt 1.000000 1.000000
vt 0.000000 1.000000
vt 0.000000 0.000000
vt 1.000000 0.000000
vt 1.000000 1.000000
vt 0.000000 1.000000
vt 0.000000 0.000000
vt 1.000000 0.000000
vt 1.000000 1.000000
vt 0.000000 1.000000
vt 0.000000 0.000000
vt 1.000000 0.000000
vt 1.000000 1.000000
vt 0.000000 1.000000
vt 0.000000 0.000000
vt 1.000000 0.000000
vt 1.000000 1.000000
vt 0.000000 1.000000
vt 0.000000 0.000000
vt 1.000000 0.000000
vt 1.000000 1.000000
vt 0.000000 1.000000
vt 0.000000 0.000000
vt 1.000000 0.000000
vt 1.000000 1.000000
vt 0.000000 1.000000
vt 0.000000 0.000000
vt 1.000000 0.000000
vt 1.000000 1.000000
vt 0.000000 1.000000
vt 0.000000 0.000000
vt 0.000000 1.000000
vt 1.000000 1.000000
vt 1.000000 0.000000
vt 0.000000 0.000000
vt 1.000000 0.000000
vt 1.000000 1.000000
vt 0.000000 1.000000
vt 0.000000 0.000000
vt 1.000000 0.000000
vt 1.000000 1.000000
vt 0.000000 1.000000
vt 0.000000 0.000000
vt 0.075965 0.000000
vt 0.075965 1.000000
vt 0.000000 1.000000
vt 0.000000 0.923857
vt 1.000000 0.918728
vt 0.000000 0.077122
vt 0.075965 0.081188
vt 0.000000 0.927619
vt 0.075965 0.925793
vt 1.000000 0.076401
vt 0.000000 0.080307
vt 1.000000 0.927235
vt 0.000000 0.925661
vt 0.000000 0.080804
vt 1.000000 0.082110
vt 0.000000 0.072349
vt 1.000000 0.071034
vt 0.000000 0.919614
vt 1.000000 0.918030
vt 0.000000 0.077122
vt 0.075965 0.081188
vt 0.075965 0.000000
vt 0.000000 0.000000
vt 0.000000 0.927619
vt 0.075965 0.925793
vt 0.075965 1.000000
vt 0.000000 1.000000
vt 1.000000 0.076401
vt 0.000000 0.080307
vt 0.000000 0.000000
vt 1.000000 0.000000
vt 1.000000 0.927235
vt 0.000000 0.925661
vt 0.000000 1.000000
vt 1.000000 1.000000
vt 1.000000 1.000000
vt 1.000000 0.918728
vt 0.000000 0.923857
vt 0.000000 1.000000
vt 1.000000 0.071034
vt 0.000000 0.072349
vt 0.000000 0.080804
vt 1.000000 0.082110
vt 1.000000 0.000000
vt 0.000000 0.000000
vt 0.000000 0.000000
vt 1.000000 0.000000
vt 0.000000 0.919614
vt 1.000000 0.918030
vt 0.000000 1.000000
vt 1.000000 1.000000
vt 0.000000 0.077122
vt 0.075965 0.081188
vt 0.075965 0.000000
vt 0.000000 0.000000
vt 0.000000 0.927619
vt 0.075965 0.925793
vt 0.075965 1.000000
vt 0.000000 1.000000
vt 1.000000 0.076401
vt 0.000000 0.080307
vt 0.000000 0.000000
vt 1.000000 0.000000
vt 1.000000 0.927235
vt 0.000000 0.925661
vt 0.000000 1.000000
vt 1.000000 1.000000
vt 1.000000 1.000000
vt 1.000000 0.918728
vt 0.000000 0.923857
vt 0.000000 1.000000
vt 1.000000 0.071034
vt 0.000000 0.072349
vt 0.000000 0.080804
vt 1.000000 0.082110
vt 1.000000 0.000000
vt 0.000000 0.000000
vt 0.000000 0.000000
vt 1.000000 0.000000
vt 0.000000 0.919614
vt 1.000000 0.918030
vt 0.000000 1.000000
vt 1.000000 1.000000
vt 1.000000 0.096153
vt -0.000000 0.101105
vt 1.000000 0.901891
vt 0.000000 0.900637
vt 1.000000 0.169776
vt 0.000000 0.167820
vt 1.000000 0.869862
vt 0.000000 0.869400
vt 1.000000 0.874704
vt 0.000000 0.874848
vt 1.000000 0.164817
vt 0.000000 0.173749
vt 1.000000 0.096863
vt -0.000000 0.101702
vt 1.000000 0.891623
vt 0.000000 0.888195
vn -0.870704 -0.032437 0.490736
vn -0.865408 -0.016222 0.500806
vn -0.865408 -0.016222 0.500806
vn -0.859771 0.000000 0.510679
vn -0.999998 0.000001 -0.001842
vn -0.999998 0.000000 -0.001842
vn -0.999998 0.000000 -0.001842
vn -0.999998 -0.000001 -0.001842
vn -0.848230 -0.015465 -0.529402
vn -0.845271 -0.007733 -0.534282
vn -0.845271 -0.007733 -0.534282
vn -0.842233 0.000000 -0.539113
vn -0.589794 -0.038435 -0.806639
vn -0.599832 -0.019222 -0.799895
vn -0.599832 -0.019222 -0.799895
vn -0.609561 0.000000 -0.792740
vn 0.000000 0.000000 -1.000000
vn 0.000000 0.000000 -1.000000
vn 0.000000 0.000000 -1.000000
vn 0.000000 0.000000 -1.000000
vn 0.622326 -0.016323 -0.782588
vn 0.626531 -0.008162 -0.779353
vn 0.626531 -0.008162 -0.779353
vn 0.630678 0.000000 -0.776045
vn -0.584240 -0.050046 0.810036
vn -0.597502 -0.025034 0.801476
vn -0.597502 -0.025034 0.801476
vn -0.610241 0.000000 0.792216
vn 0.000000 0.000000 1.000000
vn 0.000000 0.000000 1.000000
vn 0.000000 0.000000 1.000000
vn 0.000000 0.000000 1.000000
vn 0.871273 -0.010276 -0.490692
vn 0.869587 -0.005138 -0.493753
vn 0.869587 -0.005138 -0.493753
vn 0.867868 0.000000 -0.496794
vn 0.632199 0.013887 0.774681
vn 0.635784 0.006944 0.771836
vn 0.635784 0.006944 0.771836
vn 0.639324 0.000000 0.768938
vn 1.000000 0.000000 0.000000
vn 1.000000 0.000001 0.000000
vn 1.000000 0.000001 0.000000
vn 1.000000 0.000002 0.000000
vn 0.872341 -0.012443 0.488740
vn 0.870320 -0.006221 0.492447
vn 0.870320 -0.006221 0.492447
vn 0.868250 0.000000 0.496126
vn -0.870705 -0.032438 0.490735
vn -0.865409 -0.016222 0.500804
vn -0.865409 -0.016222 0.500804
vn -0.859773 0.000000 0.510676
vn -0.999998 -0.000002 -0.001841
vn -0.999998 0.000002 -0.001841
vn -0.999998 0.000002 -0.001841
vn -0.999998 0.000005 -0.001841
vn -0.848230 -0.015462 -0.529402
vn -0.845272 -0.007731 -0.534281
vn -0.845272 -0.007731 -0.534281
vn -0.842235 0.000000 -0.539111
vn -0.589794 -0.038430 -0.806639
vn -0.599831 -0.019220 -0.799896
vn -0.599831 -0.019220 -0.799896
vn -0.609559 0.000000 -0.792741
vn 0.000000 0.000000 -1.000000
vn 0.000000 0.000000 -1.000000
vn 0.000000 0.000000 -1.000000
vn 0.000000 0.000000 -1.000000
vn 0.622325 -0.016325 -0.782589
vn 0.626530 -0.008163 -0.779354
vn 0.626530 -0.008163 -0.779354
vn 0.630677 0.000000 -0.776046
vn -0.584238 -0.050049 0.810038
vn -0.597501 -0.025036 0.801477
vn -0.597501 -0.025036 0.801477
vn -0.610242 0.000000 0.792215
vn 0.000000 0.000000 1.000000
vn 0.000000 0.000000 1.000000
vn 0.000000 0.000000 1.000000
vn 0.000000 0.000000 1.000000
vn 0.871272 -0.010276 -0.490693
vn 0.869588 -0.005138 -0.493752
vn 0.869588 -0.005138 -0.493752
vn 0.867870 0.000000 -0.496791
vn 0.632200 0.013885 0.774681
vn 0.635784 0.006943 0.771836
vn 0.635784 0.006943 0.771836
vn 0.639324 0.000000 0.768937
vn 1.000000 0.000003 0.000000
vn 1.000000 0.000001 0.000000
vn 1.000000 0.000001 0.000000
vn 1.000000 -0.000002 0.000000
vn 0.872342 -0.012440 0.488738
vn 0.870321 -0.006220 0.492446
vn 0.870321 -0.006220 0.492446
vn 0.868251 0.000000 0.496125
vn -0.870706 -0.032436 0.490734
vn -0.865409 -0.016221 0.500804
vn -0.865409 -0.016221 0.500804
vn -0.859773 0.000000 0.510677
vn -0.999998 -0.000003 -0.001905
vn -0.999998 0.000004 -0.001905
vn -0.999998 0.000004 -0.001905
vn -0.999998 0.000011 -0.001904
vn -0.848229 -0.015465 -0.529403
vn -0.845271 -0.007733 -0.534281
vn -0.845271 -0.007733 -0.534281
vn -0.842236 0.000000 -0.539110
vn -0.589793 -0.038430 -0.806640
vn -0.599831 -0.019220 -0.799896
vn -0.599831 -0.019220 -0.799896
vn -0.609560 0.000000 -0.792740
vn 0.000000 0.000000 -1.000000
vn 0.000000 0.000000 -1.000000
vn 0.000000 0.000000 -1.000000
vn 0.000000 0.000000 -1.000000
vn 0.622324 -0.016325 -0.782590
vn 0.626530 -0.008163 -0.779354
vn 0.626530 -0.008163 -0.779354
vn 0.630678 0.000000 -0.776045
vn -0.584238 -0.050049 0.810037
vn -0.597501 -0.025036 0.801477
vn -0.597501 -0.025036 0.801477
vn -0.610241 0.000000 0.792216
vn 0.000000 0.000000 1.000000
vn 0.000000 0.000000 1.000000
vn 0.000000 0.000000 1.000000
vn 0.000000 0.000000 1.000000
vn 0.871273 -0.010276 -0.490692
vn 0.869588 -0.005138 -0.493751
vn 0.869588 -0.005138 -0.493751
vn 0.867870 0.000000 -0.496791
vn 0.632200 0.013887 0.774681
vn 0.635784 0.006944 0.771836
vn 0.635784 0.006944 0.771836
vn 0.639323 0.000000 0.768938
vn 1.000000 0.000000 0.000000
vn 1.000000 0.000000 0.000000
vn 1.000000 0.000000 0.000000
vn 1.000000 0.000001 0.000000
vn 0.872342 -0.012441 0.488738
vn 0.870321 -0.006221 0.492445
vn 0.870321 -0.006221 0.492445
vn 0.868251 0.000000 0.496125
vn 0.000000 0.000000 1.000000
vn 0.000000 0.000000 1.000000
vn 0.000000 0.000000 1.000000
vn 0.000000 0.000000 1.000000
vn 0.000000 0.000000 1.000000
vn 0.000000 0.000000 1.000000
vn 0.000000 0.000000 1.000000
vn 0.000000 0.000000 1.000000
vn -0.910654 -0.009167 0.413068
vn -0.909161 -0.004583 0.416419
vn -0.909161 -0.004583 0.416419
vn -0.907637 0.000000 0.419756
vn -0.483220 -0.038197 0.874665
vn -0.497653 -0.019104 0.867166
vn -0.497653 -0.019104 0.867166
vn -0.511773 0.000000 0.859121
vn -1.000000 -0.000000 0.000000
vn -1.000000 -0.000000 0.000000
vn -1.000000 -0.000000 0.000000
vn -1.000000 0.000000 0.000000
vn 0.000000 0.000000 1.000000
vn 0.000000 0.000000 1.000000
vn 0.000000 0.000000 1.000000
vn 0.000000 0.000000 1.000000
vn 0.000000 0.000000 1.000000
vn 0.000000 0.000000 1.000000
vn 0.000000 0.000000 1.000000
vn 0.000000 0.000000 1.000000
vn 1.000000 0.000000 0.000000
vn 1.000000 0.000000 0.000000
vn 1.000000 0.000000 0.000000
vn 1.000000 0.000000 0.000000
vn 0.620321 0.016581 0.784173
vn 0.624164 0.008291 0.781249
vn 0.624164 0.008291 0.781249
vn 0.627949 0.000000 0.778254
vn 0.850416 -0.004491 0.526091
vn 0.849769 -0.002245 0.527150
vn 0.849769 -0.002245 0.527150
vn 0.849117 0.000000 0.528204
vn 0.000000 0.000000 -1.000000
vn 0.000000 0.000000 -1.000000
vn 0.000000 0.000000 -1.000000
vn 0.000000 0.000000 -1.000000
vn 1.000000 0.000000 0.000065
vn 1.000000 0.000000 0.000065
vn 1.000000 0.000000 0.000065
vn 1.000000 0.000000 0.000065
vn 0.000000 0.000000 -1.000000
vn 0.000000 0.000000 -1.000000
vn 0.000000 0.000000 -1.000000
vn 0.000000 0.000000 -1.000000
vn 0.944884 -0.074101 -0.318910
vn 0.940747 -0.037082 -0.337076
vn 0.940747 -0.037082 -0.337076
vn 0.934995 0.000000 -0.354662
vn 0.499585 0.001570 -0.866263
vn 0.499875 0.000785 -0.866097
vn 0.499875 0.000785 -0.866097
vn 0.500165 0.000000 -0.865930
vn 1.000000 -0.000002 0.000000
vn 1.000000 -0.000001 0.000000
vn 1.000000 -0.000001 0.000000
vn 1.000000 0.000000 0.000000
vn -1.000000 0.000000 0.000000
vn -1.000000 0.000000 0.000000
vn -1.000000 0.000000 0.000000
vn -1.000000 0.000000 0.000000
vn 0.000000 0.000000 -1.000000
vn 0.000000 0.000000 -1.000000
vn 0.000000 0.000000 -1.000000
vn 0.000000 0.000000 -1.000000
vn -1.000000 0.000000 -0.000301
vn -1.000000 0.000000 -0.000301
vn -1.000000 0.000000 -0.000301
vn -1.000000 0.000000 -0.000301
vn -0.572649 -0.047642 -0.818415
vn -0.584050 -0.023830 -0.811368
vn -0.584050 -0.023830 -0.811368
vn -0.595015 0.000000 -0.803715
vn -0.908087 -0.055990 -0.415022
vn -0.902675 -0.028009 -0.429412
vn -0.902675 -0.028009 -0.429412
vn -0.896342 0.000000 -0.443364
vn 0.000000 0.000000 -1.000000
vn 0.000000 0.000000 -1.000000
vn 0.000000 0.000000 -1.000000
vn 0.000000 0.000000 -1.000000
f 40/76/1 35/70/2 39/75/3
f 39/75/3 35/70/2 36/69/4
f 42/78/5 40/76/6 41/77/7
f 41/77/7 40/76/6 39/75/8
f 42/78/9 41/77/10 29/71/11
f 29/71/11 41/77/10 32/72/12
f 43/80/13 29/57/14 44/79/15
f 44/79/15 29/57/14 32/60/16
f 46/82/17 43/80/18 45/81/19
f 45/81/19 43/80/18 44/79/20
f 46/82/21 45/81/22 30/58/23
f 30/58/23 45/81/22 31/59/24
f 38/74/25 37/73/26 35/67/27
f 35/67/27 37/73/26 36/68/28
f 50/86/29 49/85/30 38/74/31
f 38/74/31 49/85/30 37/73/32
f 47/84/33 30/62/34 48/83/35
f 48/83/35 30/62/34 31/61/36
f 49/85/37 50/86/38 34/65/39
f 34/65/39 50/86/38 33/66/40
f 51/87/41 52/88/42 48/83/43
f 48/83/43 52/88/42 47/84/44
f 52/88/45 51/87/46 33/63/47
f 33/63/47 51/87/46 34/64/48
f 54/90/49 55/91/50 53/89/51
f 53/89/51 55/91/50 56/92/52
f 58/94/53 54/90/54 57/93/55
f 57/93/55 54/90/54 53/89/56
f 58/94/57 57/93/58 59/95/59
f 59/95/59 57/93/58 60/96/60
f 62/98/61 59/99/62 61/97/63
f 61/97/63 59/99/62 60/100/64
f 64/102/65 62/98/66 63/101/67
f 63/101/67 62/98/66 61/97/68
f 64/102/69 63/101/70 65/103/71
f 65/103/71 63/101/70 66/104/72
f 67/106/73 68/107/74 55/105/75
f 55/105/75 68/107/74 56/108/76
f 69/109/77 70/110/78 67/106/79
f 67/106/79 70/110/78 68/107/80
f 72/112/81 65/113/82 71/111/83
f 71/111/83 65/113/82 66/114/84
f 70/110/85 69/109/86 73/115/87
f 73/115/87 69/109/86 74/116/88
f 75/117/89 76/118/90 71/111/91
f 71/111/91 76/118/90 72/112/92
f 76/118/93 75/117/94 74/120/95
f 74/120/95 75/117/94 73/119/96
f 78/122/97 79/123/98 77/121/99
f 77/121/99 79/123/98 80/124/100
f 82/126/101 78/122/102 81/125/103
f 81/125/103 78/122/102 77/121/104
f 82/126/105 81/125/106 83/127/107
f 83/127/107 81/125/106 84/128/108
f 86/130/109 83/131/110 85/129/111
f 85/129/111 83/131/110 84/132/112
f 88/134/113 86/130/114 87/133/115
f 87/133/115 86/130/114 85/129/116
f 88/134/117 87/133/118 89/135/119
f 89/135/119 87/133/118 90/136/120
f 91/138/121 92/139/122 79/137/123
f 79/137/123 92/139/122 80/140/124
f 93/141/125 94/142/126 91/138/127
f 91/138/127 94/142/126 92/139/128
f 96/144/129 89/145/130 95/143/131
f 95/143/131 89/145/130 90/146/132
f 94/142/133 93/141/134 97/147/135
f 97/147/135 93/141/134 98/148/136
f 99/149/137 100/150/138 95/143/139
f 95/143/139 100/150/138 96/144/140
f 100/150/141 99/149/142 98/152/143
f 98/152/143 99/149/142 97/151/144
f 102/153/145 101/154/146 21/39/147
f 21/39/147 101/154/146 22/40/148
f 2/30/149 1/29/150 17/31/151
f 17/31/151 1/29/150 18/32/152
f 103/156/153 20/36/154 104/155/155
f 104/155/155 20/36/154 19/35/156
f 101/154/157 102/153/158 20/37/159
f 20/37/159 102/153/158 19/38/160
f 104/155/161 17/34/162 103/156/163
f 103/156/163 17/34/162 18/33/164
f 106/158/165 105/157/166 7/12/167
f 7/12/167 105/157/166 8/11/168
f 3/4/169 1/1/170 4/3/171
f 4/3/171 1/1/170 2/2/172
f 108/159/173 107/160/174 4/6/175
f 4/6/175 107/160/174 3/5/176
f 105/157/177 106/158/178 6/10/179
f 6/10/179 106/158/178 5/9/180
f 107/160/181 108/159/182 5/8/183
f 5/8/183 108/159/182 6/7/184
f 109/161/185 110/162/186 10/18/187
f 10/18/187 110/162/186 9/17/188
f 10/15/189 9/16/190 8/14/191
f 8/14/191 9/16/190 7/13/192
f 15/28/193 13/25/194 16/27/195
f 16/27/195 13/25/194 14/26/196
f 111/164/197 11/21/198 112/163/199
f 112/163/199 11/21/198 12/22/200
f 109/161/201 12/19/202 110/162/203
f 110/162/203 12/19/202 11/20/204
f 112/163/205 14/23/206 111/164/207
f 111/164/207 14/23/206 13/24/208
f 114/165/209 113/166/210 27/51/211
f 27/51/211 113/166/210 28/52/212
f 27/54/213 28/53/214 16/55/215
f 16/55/215 28/53/214 15/56/216
f 23/43/217 21/42/218 24/44/219
f 24/44/219 21/42/218 22/41/220
f 115/168/221 26/48/222 116/167/223
f 116/167/223 26/48/222 25/47/224
f 113/166/225 114/165/226 26/49/227
f 26/49/227 114/165/226 25/50/228
f 116/167/229 23/46/230 115/168/231
f 115/168/231 23/46/230 24/45/232
