# This file uses centimeters as units for non-parametric coordinates.

v -0.025730 0.054054 0.057059
v -0.006610 0.054460 0.057059
v 0.016457 0.037514 0.057205
v -0.061692 0.067387 -0.059344
v -0.015589 0.077050 -0.048920
v 0.026653 0.067696 -0.064588
v -0.088818 0.018619 -0.062956
v -0.013538 0.046763 -0.125693
v 0.037737 0.020818 -0.073917
v -0.064314 -0.029159 -0.064013
v -0.015719 -0.036794 -0.057169
v 0.026123 -0.026764 -0.064644
v -0.045264 -0.011717 0.041840
v -0.017040 -0.027782 0.041840
v 0.008571 -0.022639 0.057049
v 0.027249 0.010675 0.057128
v -0.043804 0.022959 0.050601
v -0.009831 0.017942 0.081104
v -0.048255 0.007168 -0.123026
v -0.093502 0.021021 -0.099962
v -0.054321 0.064427 -0.094505
v -0.016207 0.072371 -0.076544
v 0.023286 0.066825 -0.091225
v 0.031004 0.027343 -0.112425
v 0.013704 0.014716 -0.128795
v -0.016950 0.016118 -0.139151
v -0.013876 -0.011257 0.071070
v -0.033071 -0.001965 0.071045
v -0.033602 0.021760 0.071253
v -0.019389 0.040905 0.071212
v -0.007107 0.042468 0.071193
v 0.010625 0.032830 0.071245
v 0.013394 0.013467 0.071264
v 0.002545 -0.008128 0.071203
v -0.041256 0.021635 0.067128
v -0.044281 0.003306 0.067407
v -0.048999 -0.003215 0.048249
v -0.088126 -0.010035 -0.058584
v -0.093850 -0.004518 -0.104584
v -0.094659 0.024286 -0.113284
v -0.092631 0.051704 -0.099615
v -0.087680 0.058669 -0.063202
v -0.037471 0.048540 0.059179
v -0.037356 0.041862 0.065284
v -0.025905 0.041427 0.064580
v -0.037438 0.022395 0.066227
v -0.039044 0.003054 0.065948
v -0.045868 -0.004460 0.044947
v -0.069714 -0.011933 -0.063877
v -0.062452 -0.006096 -0.110874
v -0.059889 0.023801 -0.118546
v -0.056569 0.057504 -0.094617
v -0.063347 0.062840 -0.059339
v -0.028831 0.049913 0.057069
v -0.067497 -0.013158 -0.039121
v -0.062456 -0.029361 -0.039976
v -0.016679 -0.038435 -0.045024
v 0.029274 -0.027846 -0.042181
v 0.041406 0.019820 -0.044521
v 0.027346 0.064675 -0.036295
v -0.017072 0.075858 -0.036488
v -0.059276 0.066694 -0.033784
v -0.061203 0.061909 -0.033957
v -0.058403 -0.038158 -0.111449
v -0.014362 -0.048543 -0.117731
v 0.025510 -0.032061 -0.114769
v 0.034719 0.021803 -0.090821
vt 0.045259 0.537069
vt 0.061407 0.538438
vt 0.057988 0.583062
vt 0.040009 0.588125
vt 0.079461 0.528780
vt 0.078497 0.588464
vt 0.750432 0.729537
vt 0.845465 0.755955
vt 0.084490 0.596177
vt 0.856840 0.766527
vt 0.732859 0.746341
vt 0.941444 0.263564
vt 0.966184 0.269388
vt 0.903679 0.267179
vt 0.922881 0.263472
vt 0.947461 0.236924
vt 0.958804 0.239917
vt 0.926624 0.238342
vt 0.920276 0.235356
vt 0.086425 0.521314
vt 0.855378 0.779037
vt 0.839754 0.770406
vt 0.944762 0.232410
vt 0.061156 0.522046
vt 0.965360 0.274986
vt 0.803172 0.732994
vt 0.799331 0.750942
vt 0.040136 0.600733
vt 0.063088 0.607145
vt 0.076300 0.606825
vt 0.919375 0.271593
vt 0.079507 0.610304
vt 0.923413 0.271518
vt 0.938012 0.262471
vt 0.946102 0.234651
vt 0.956804 0.235809
vt 0.956538 0.232564
vt 0.047215 0.528300
vt 0.050565 0.529207
vt 0.061287 0.530602
vt 0.071923 0.526007
vt 0.933118 0.233811
vt 0.073172 0.521698
vt 0.934700 0.234496
vt 0.960644 0.232618
vt 0.042354 0.530480
vt 0.964381 0.234584
vt 0.967527 0.237429
vt 0.977348 0.269611
vt 0.975494 0.273310
vt 0.976903 0.276902
vt 0.037964 0.609423
vt 0.034075 0.601213
vt 0.030900 0.589720
vt 0.038497 0.536195
vt 0.047223 0.531141
vt 0.047947 0.530723
vt 0.959487 0.232602
vt 0.043724 0.529866
vt 0.961336 0.235350
vt 0.964249 0.238006
vt 0.974771 0.269299
vt 0.974184 0.273105
vt 0.971324 0.278737
vt 0.042661 0.611798
vt 0.037082 0.600511
vt 0.037549 0.588757
vt 0.043024 0.536273
vt 0.789258 0.746935
vt 0.790978 0.729608
vt 0.780970 0.746357
vt 0.778316 0.764045
vt 0.786438 0.771506
vt 0.832683 0.785086
vt 0.845871 0.786430
vt 0.973343 0.265051
vt 0.965192 0.265430
vt 0.942206 0.260191
vt 0.923351 0.260312
vt 0.084770 0.585327
vt 0.906085 0.262567
vt 0.078651 0.578941
vt 0.058502 0.576352
vt 0.040717 0.581239
vt 0.038280 0.581750
vt 0.740174 0.768830
vt 0.739227 0.771939
vt 0.732388 0.772286
vt 0.733702 0.768971
vt 0.734324 0.748094
vt 0.740505 0.747960
vt 0.733693 0.728090
vt 0.740889 0.728620
vt 0.738060 0.726602
vt 0.729853 0.726473
vt 0.735449 0.735464
vt 0.726347 0.734735
vt 0.733963 0.755281
vt 0.725483 0.755027
vt 0.733854 0.773091
vt 0.726282 0.773826
vt 0.734153 0.773645
vt 0.726630 0.774280
vt 0.734396 0.726389
vt 0.747641 0.728411
vt 0.753288 0.748692
vt 0.751331 0.768216
vt 0.711938 0.748247
vt 0.715604 0.727029
vt 0.719916 0.765674
vt 0.722158 0.725191
vt 0.734166 0.769711
vt 0.965765 0.272236
vt 0.939721 0.263015
vt 0.923138 0.267363
vt 0.911270 0.269314
vt 0.082080 0.603009
vn 0.205063 0.861825 0.463905
vn 0.007820 0.977535 0.210627
vn -0.404393 0.749677 0.523881
vn -0.659054 0.674827 0.332049
vn 0.758967 0.500765 0.416177
vn 0.641129 0.727445 0.244493
vn -0.292482 0.616075 -0.731372
vn -0.061101 0.543703 -0.837050
vn -0.476470 0.382082 -0.791827
vn -0.406678 0.181540 -0.895353
vn -0.008004 0.886640 -0.462390
vn 0.207812 0.732461 -0.648317
vn -0.106287 0.409702 -0.906006
vn -0.439797 0.120556 -0.889969
vn 0.371844 0.397266 -0.838995
vn 0.018103 -0.992391 0.121789
vn -0.186866 -0.933421 0.306277
vn -0.580158 -0.777748 0.241920
vn -0.787880 -0.492300 0.369982
vn 0.625398 -0.766034 0.148558
vn 0.382280 -0.775339 0.502705
vn 0.878138 -0.140822 0.457213
vn 0.977974 0.135100 0.159105
vn -0.922960 -0.213907 0.319981
vn -0.933594 -0.245785 0.260754
vn -0.748630 0.453806 0.483336
vn -0.871677 0.338298 0.354590
vn -0.750267 0.264285 0.606014
vn -0.804905 -0.165231 0.569936
vn -0.604325 0.207393 0.769272
vn -0.513826 -0.432777 0.740734
vn -0.309863 0.528290 0.790503
vn 0.204263 0.629241 0.749888
vn -0.101825 -0.629669 0.770162
vn 0.386263 -0.395427 0.833330
vn 0.010880 0.027922 0.999551
vn 0.642647 -0.007202 0.766129
vn 0.537872 0.372710 0.756162
vn -0.549081 -0.163242 -0.819672
vn 0.432818 0.465076 -0.772252
vn 0.071220 0.384211 0.920494
vn 0.010294 0.817417 0.575954
vn 0.113762 0.384118 0.916249
vn -0.140392 0.906358 0.398504
vn -0.938803 -0.292807 -0.181418
vn -0.908230 -0.171326 -0.381792
vn -0.833743 -0.550137 -0.047131
vn -0.615793 -0.661583 -0.427910
vn -0.466607 0.864423 -0.187219
vn -0.758408 0.616180 -0.212460
vn -0.921412 0.318861 -0.222098
vn -0.925878 0.304333 -0.223900
vn -0.007225 0.985960 -0.166825
vn -0.011035 0.992173 -0.124378
vn 0.481649 0.865916 -0.134925
vn 0.801062 0.583999 -0.131324
vn 0.971941 -0.090399 -0.217161
vn 0.983724 0.078167 -0.161792
vn 0.707141 -0.395917 -0.585834
vn 0.743330 -0.668246 0.030124
vn 0.017981 -0.844470 -0.535302
vn -0.039445 -0.982474 0.182178
vn -0.948027 0.119386 0.294944
vn -0.970603 0.169597 0.170782
vn -0.954559 0.142052 0.261988
vn -0.969488 0.182166 0.164040
vn -0.972159 0.012218 0.234004
vn -0.973320 0.036014 0.226610
vn -0.994109 0.010690 0.107853
vn -0.993772 -0.005465 0.111298
vn -0.995905 0.012591 0.089526
vn -0.992802 0.027629 0.116535
vn -0.953717 0.052369 0.296111
vn -0.945637 0.134870 0.295941
vn -0.625907 0.437431 0.645674
vn -0.965090 0.185748 0.184662
vn 0.173920 0.020326 0.984550
vn 0.241367 -0.005575 0.970418
vn 0.188302 -0.597546 0.779411
vn 0.161347 -0.594230 0.787945
vn -0.117531 -0.960870 0.250828
vn -0.125323 -0.960490 0.248503
vn -0.261112 -0.951353 0.163546
vn -0.303113 -0.937512 0.170863
vn -0.122319 -0.989984 -0.070499
vn -0.158697 -0.876603 -0.454293
vn -0.107149 -0.989985 -0.091919
vn -0.166452 -0.588282 -0.791340
vn -0.091782 0.284647 -0.954229
vn -0.169417 -0.025548 -0.985213
vn -0.090551 0.905337 -0.414929
vn -0.087608 0.728583 -0.679332
vn -0.159050 0.985320 -0.062031
vn -0.150771 0.983714 -0.097848
vn -0.236578 0.951460 0.196861
vn -0.355140 0.908343 0.220883
vn -0.113533 -0.992771 -0.038941
vn -0.503644 -0.863467 -0.027712
vn -0.951544 -0.299269 0.070729
vn -0.790902 -0.609397 0.055772
vn -0.951698 -0.298846 0.070437
vn 0.021841 -0.996116 -0.085295
vn 0.011190 -0.991049 -0.133033
vn 0.813867 -0.565311 -0.134326
vn 0.535772 -0.834577 -0.128176
vn 0.995126 0.009850 -0.098122
vn 0.992272 -0.004668 -0.123996
vn 0.543050 0.835388 0.084994
vn 0.820135 0.572165 -0.002433
vn 0.017640 0.995080 0.097493
vn 0.017626 0.996167 0.085672
vn -0.500488 0.862119 0.079143
vn -0.773340 0.627878 0.087838
vn -0.930188 0.354721 0.094461
vn -0.935761 0.340555 0.091512
vn -0.176585 0.982965 0.050965
vn -0.397464 -0.195671 -0.896513
vn 0.046712 -0.282661 -0.958082
vn 0.712666 -0.283903 -0.641488
vn 0.951864 -0.214726 -0.218739
vn 0.964275 0.243954 -0.103249
f 2/2/1 61/83/2 1/1/3
f 1/1/3 61/83/2 62/84/4
f 3/5/5 60/82/6 2/2/1
f 2/2/1 60/82/6 61/83/2
f 21/7/7 8/11/8 52/105/9
f 8/11/8 51/104/10 52/105/9
f 22/106/11 23/107/12 8/11/8
f 26/108/13 19/109/14 8/11/8
f 8/11/8 25/110/15 26/108/13
f 57/78/16 14/16/17 56/77/18
f 56/77/18 14/16/17 13/17/19
f 57/78/16 58/79/20 14/16/17
f 14/16/17 58/79/20 15/18/21
f 15/18/21 58/79/20 16/19/22
f 16/19/22 58/79/20 59/81/23
f 16/20/22 59/80/23 3/5/5
f 3/5/5 59/80/23 60/82/6
f 48/61/24 55/76/25 13/17/19
f 13/17/19 55/76/25 56/77/18
f 1/1/3 62/84/4 54/68/26
f 54/68/26 62/84/4 63/85/27
f 46/58/28 47/60/29 29/37/30
f 29/37/30 47/60/29 28/36/31
f 1/1/3 30/39/32 2/2/1
f 2/2/1 30/39/32 31/40/33
f 27/35/34 34/44/35 18/23/36
f 16/20/22 3/5/5 33/43/37
f 33/43/37 3/5/5 32/41/38
f 8/11/8 19/109/14 51/104/10
f 51/104/10 19/109/14 50/111/39
f 8/11/8 24/112/40 25/110/15
f 21/7/7 22/106/11 8/11/8
f 8/11/8 23/107/12 24/112/40
f 45/57/41 54/68/42 44/56/43
f 44/56/43 54/68/42 43/55/44
f 32/41/38 3/5/5 31/40/33
f 31/40/33 3/5/5 2/2/1
f 15/18/21 16/19/22 34/44/35
f 34/44/35 16/19/22 33/42/37
f 27/35/34 28/36/31 14/16/17
f 14/16/17 28/36/31 13/17/19
f 49/62/45 50/63/46 10/13/47
f 10/13/47 50/63/46 64/113/48
f 4/4/49 21/28/50 53/67/51
f 53/67/51 21/28/50 52/66/52
f 5/3/53 22/29/54 4/4/49
f 4/4/49 22/29/54 21/28/50
f 5/3/53 6/6/55 22/29/54
f 22/29/54 6/6/55 23/30/56
f 67/117/57 23/30/56 9/9/58
f 9/9/58 23/30/56 6/6/55
f 66/115/59 67/116/57 12/15/60
f 12/15/60 67/116/57 9/14/58
f 66/115/59 12/15/60 65/114/61
f 65/114/61 12/15/60 11/12/62
f 10/13/47 64/113/48 11/12/62
f 11/12/62 64/113/48 65/114/61
f 27/35/34 18/23/36 28/36/31
f 29/37/30 28/36/31 18/23/36
f 30/39/32 29/38/30 18/24/36
f 31/40/33 30/39/32 18/24/36
f 18/24/36 32/41/38 31/40/33
f 18/24/36 33/43/37 32/41/38
f 34/44/35 33/42/37 18/23/36
f 34/44/35 27/35/34 15/18/21
f 15/18/21 27/35/34 14/16/17
f 28/36/31 47/60/29 13/17/19
f 13/17/19 47/60/29 48/61/24
f 37/8/63 36/10/64 17/22/65
f 17/22/65 36/10/64 35/21/66
f 38/26/67 37/8/63 7/27/68
f 7/27/68 37/8/63 17/22/65
f 20/69/69 39/70/70 7/27/68
f 7/27/68 39/70/70 38/26/67
f 20/69/69 40/71/71 39/70/70
f 41/72/72 40/71/71 20/69/69
f 42/73/73 41/72/72 7/27/68
f 7/27/68 41/72/72 20/69/69
f 43/74/74 42/73/73 17/22/65
f 17/22/65 42/73/73 7/27/68
f 30/39/32 45/57/75 29/38/30
f 29/38/30 45/57/75 46/59/28
f 43/74/74 17/22/65 44/75/76
f 44/75/76 17/22/65 35/21/66
f 45/57/41 44/56/43 46/59/77
f 46/59/77 44/56/43 35/46/78
f 36/47/79 47/60/80 35/45/78
f 35/45/78 47/60/80 46/58/77
f 48/61/81 47/60/80 37/48/82
f 37/48/82 47/60/80 36/47/79
f 48/61/81 37/48/82 55/76/83
f 55/76/83 37/48/82 38/49/84
f 38/49/85 39/50/86 49/62/87
f 49/62/87 39/50/86 50/63/88
f 51/64/89 50/63/88 40/51/90
f 40/51/90 50/63/88 39/50/86
f 52/66/91 51/65/89 41/53/92
f 41/53/92 51/65/89 40/52/90
f 53/67/93 52/66/91 42/54/94
f 42/54/94 52/66/91 41/53/92
f 54/68/42 63/85/95 43/55/44
f 43/55/44 63/85/95 42/54/96
f 54/68/26 45/57/75 1/1/3
f 1/1/3 45/57/75 30/39/32
f 49/62/87 55/76/97 38/49/85
f 56/86/98 55/87/99 10/89/100
f 10/89/100 55/87/99 49/88/101
f 10/89/100 11/90/102 56/86/98
f 56/86/98 11/90/102 57/91/103
f 12/92/104 58/93/105 11/90/102
f 11/90/102 58/93/105 57/91/103
f 58/93/105 12/92/104 59/94/106
f 59/94/106 12/92/104 9/95/107
f 60/96/108 59/94/106 6/97/109
f 6/97/109 59/94/106 9/95/107
f 61/98/110 60/96/108 5/99/111
f 5/99/111 60/96/108 6/97/109
f 61/98/110 5/99/111 62/100/112
f 62/100/112 5/99/111 4/101/113
f 62/100/112 4/101/113 63/102/114
f 63/102/114 4/101/113 53/103/115
f 42/54/94 63/85/116 53/67/93
f 64/113/48 50/63/46 19/25/117
f 64/113/48 19/25/117 65/114/61
f 65/114/61 19/25/117 26/34/118
f 25/33/119 66/115/59 26/34/118
f 26/34/118 66/115/59 65/114/61
f 24/31/120 67/116/57 25/33/119
f 25/33/119 67/116/57 66/115/59
f 24/32/120 23/30/121 67/117/57
