# This file uses centimeters as units for non-parametric coordinates.

v -0.118324 0.022208 0.022184
v -0.003008 -0.020121 0.054823
v 0.120464 0.025675 0.019963
v -0.120767 0.040585 0.025664
v -0.001435 0.013542 0.056556
v 0.121061 0.045971 0.020595
v -0.103397 0.136130 -0.001752
v -0.001164 0.144442 0.038466
v 0.108530 0.140772 -0.001616
v -0.119865 0.143393 -0.031543
v 0.000666 0.212474 -0.025870
v 0.119499 0.144114 -0.030431
v -0.069326 0.147870 -0.073520
v -0.000015 0.139174 -0.079635
v 0.073588 0.148272 -0.072406
v -0.112064 0.017848 -0.090188
v 0.001522 0.018323 -0.096474
v 0.124499 0.017848 -0.088260
v -0.115065 -0.028255 -0.057294
v -0.000031 -0.038333 -0.054226
v 0.117822 -0.028255 -0.055686
v -0.133674 -0.010167 -0.013778
v -0.000278 -0.052658 -0.017147
v 0.144823 -0.009179 -0.010761
v 0.147463 0.020770 -0.009526
v -0.137503 0.013233 -0.011115
v -0.062518 -0.019341 0.020024
v 0.069377 -0.015058 0.022687
v 0.047337 -0.038139 -0.056134
v -0.050797 -0.037656 -0.056541
v 0.019363 0.141382 -0.079166
v 0.028271 0.018120 -0.096960
v -0.017247 0.141152 -0.079458
v -0.021885 0.018117 -0.097072
v 0.119482 0.066078 -0.089543
v 0.017432 0.065985 -0.099089
v -0.014984 0.065841 -0.099460
v 0.000382 0.065077 -0.099791
v -0.112076 0.064649 -0.092100
v -0.043740 -0.001729 0.050299
v -0.042352 0.007367 0.040917
v -0.065753 0.139974 0.019380
v -0.042441 -0.021861 0.040199
v 0.041926 -0.003033 0.050759
v 0.041196 0.006032 0.042250
v 0.057091 0.140275 0.021942
v 0.042634 -0.019694 0.043532
v 0.113145 0.102148 -0.085324
v -0.137246 0.080172 -0.015819
v -0.119112 0.069211 0.016559
v -0.015703 0.098762 -0.096940
v 0.000023 0.098511 -0.096334
v -0.107850 0.103365 -0.086203
v 0.140329 0.079548 -0.013737
v 0.118480 0.073750 0.019033
v -0.061831 0.057714 0.040916
v 0.048686 0.056350 0.044344
v -0.001505 0.055471 0.056698
v 0.019051 0.099528 -0.096015
v -0.109550 0.105341 0.007310
v -0.065964 0.100551 0.034903
v 0.056091 0.101606 0.037813
v -0.000466 0.109018 0.056876
v 0.112287 0.112851 0.003181
v -0.002414 -0.040772 0.034368
vt 0.812012 0.379052
vt 0.812012 0.356658
vt 0.828221 0.356658
vt 0.828221 0.379052
vt 0.742567 0.379052
vt 0.742567 0.356658
vt 0.848144 0.379052
vt 0.848144 0.356658
vt 0.912931 0.379052
vt 0.912931 0.356658
vt 0.625129 0.347752
vt 0.686684 0.334259
vt 0.662385 0.336220
vt 0.912931 0.422116
vt 0.848144 0.422116
vt 0.961160 0.400769
vt 0.961160 0.338246
vt 0.961160 0.449302
vt 0.912931 0.449302
vt 0.686684 0.400769
vt 0.742567 0.422116
vt 0.812012 0.422116
vt 0.828221 0.422116
vt 0.828221 0.449302
vt 0.812012 0.449302
vt 0.625129 0.362771
vt 0.848144 0.449302
vt 0.742567 0.449302
vt 0.961160 0.487568
vt 0.662385 0.387682
vt 0.625129 0.387682
vt 0.912931 0.474854
vt 0.414909 0.460291
vt 0.414909 0.404118
vt 0.453869 0.404129
vt 0.453869 0.432333
vt 0.503046 0.425258
vt 0.502893 0.455218
vt 0.459516 0.455218
vt 0.828221 0.487186
vt 0.537427 0.425258
vt 0.570881 0.425258
vt 0.686684 0.485343
vt 0.571034 0.455218
vt 0.537332 0.455218
vt 0.537427 0.487395
vt 0.625129 0.432333
vt 0.619482 0.455218
vt 0.662385 0.461209
vt 0.453869 0.387682
vt 0.414909 0.387682
vt 0.742567 0.474854
vt 0.812012 0.474854
vt 0.848144 0.474854
vt 0.828221 0.474854
vt 0.686684 0.449302
vt 0.503046 0.387682
vt 0.503046 0.404129
vt 0.537427 0.404129
vt 0.537427 0.387682
vt 0.570881 0.387682
vt 0.570881 0.404129
vt 0.625129 0.404129
vt 0.662385 0.403068
vt 0.828221 0.336510
vt 0.570881 0.357889
vt 0.570881 0.370632
vt 0.537427 0.370632
vt 0.537427 0.357889
vt 0.453869 0.347752
vt 0.503046 0.357889
vt 0.503046 0.370632
vt 0.453869 0.362771
vt 0.537427 0.337792
vt 0.414909 0.336220
vn 0.043183 -0.583004 -0.811321
vn 0.001310 -0.596803 -0.802387
vn 0.032833 -0.323086 -0.945800
vn 0.005833 -0.249097 -0.968461
vn 0.086503 -0.405933 -0.909800
vn 0.086909 -0.583221 -0.807651
vn -0.022968 -0.330127 -0.943657
vn -0.035774 -0.580383 -0.813558
vn -0.073163 -0.408655 -0.909752
vn -0.074709 -0.575955 -0.814061
vn 0.437755 -0.705332 0.557564
vn 0.574546 -0.729781 0.370564
vn 0.499652 -0.089079 0.861634
vn -0.076181 0.026304 -0.996747
vn -0.034354 0.035517 -0.998778
vn -0.946810 0.040758 -0.319203
vn -0.966362 0.197648 0.164562
vn -0.836766 0.332563 -0.435000
vn -0.585001 -0.745715 0.318879
vn -0.993957 -0.106303 0.027360
vn -0.848389 -0.510258 -0.140971
vn -0.946845 -0.087008 -0.309700
vn 0.811366 -0.555074 -0.183243
vn 0.994008 -0.029542 0.105238
vn 0.954986 -0.112859 -0.274344
vn 0.946408 0.237799 0.218551
vn 0.949784 0.128936 -0.285107
vn 0.844206 0.367628 -0.390086
vn 0.052921 0.038663 -0.997850
vn 0.092013 0.030527 -0.995290
vn 0.009724 0.016287 -0.999820
vn 0.018081 0.190761 -0.981470
vn 0.044095 0.277251 -0.959785
vn 0.570258 0.028873 0.820958
vn -0.024340 0.276203 -0.960791
vn -0.093960 0.193712 -0.976549
vn 0.100295 0.188416 -0.976955
vn -0.792314 0.609242 0.032612
vn -0.642494 0.339006 0.687223
vn -0.574487 0.268950 0.773066
vn -0.238692 0.581499 -0.777743
vn -0.385423 0.275537 0.880641
vn -0.390922 0.492605 0.777509
vn -0.560177 0.558391 0.611884
vn -0.002249 0.186906 0.982375
vn 0.360747 0.285655 0.887842
vn -0.002241 0.513715 0.857958
vn 0.338372 0.592394 0.731146
vn -0.052700 0.988722 -0.140184
vn 0.644392 0.321701 0.693734
vn 0.571958 0.577898 0.582150
vn 0.720496 0.690698 0.061822
vn -0.621177 0.007507 0.783635
vn -0.273593 0.186909 0.943510
vn -0.295994 0.052790 0.953730
vn -0.011893 -0.032550 0.999399
vn -0.011611 0.235126 0.971896
vn 0.292543 0.013488 0.956157
vn 0.272070 0.205555 0.940067
vn 0.553788 0.214043 0.804677
vn 0.253071 0.586106 -0.769698
vn 0.005774 0.489592 -0.871932
vn 0.010541 0.452671 -0.891615
vn 0.006096 0.492748 -0.870151
vn 0.357287 0.014415 0.933883
vn -0.023713 -0.410309 0.911638
vn 0.374439 -0.607616 0.700428
vn -0.023044 -0.703863 0.709962
vn -0.421151 -0.633804 0.648787
vn -0.398517 -0.012426 0.917077
vn -0.449401 -0.748773 0.487215
vn -0.556785 -0.220884 0.800750
vn -0.006975 -0.966560 0.256346
vn -0.008489 -0.998033 0.062120
vn -0.153945 -0.988077 -0.002324
vn -0.003352 -0.932791 -0.360403
vn 0.142084 -0.989725 -0.015994
f 29/2/1 20/3/2 32/1/3
f 32/1/3 20/3/2 17/4/4
f 32/1/3 18/5/5 29/2/1
f 29/2/1 18/5/5 21/6/6
f 17/4/4 20/3/2 34/7/7
f 34/7/7 20/3/2 30/8/8
f 34/7/7 30/8/8 16/9/9
f 16/9/9 30/8/8 19/10/10
f 28/11/11 24/13/12 3/26/13
f 16/9/9 39/14/14 34/7/7
f 34/7/7 39/14/14 37/15/15
f 39/14/16 49/18/17 53/19/18
f 22/17/19 26/16/20 19/10/21
f 19/10/21 26/16/20 16/9/22
f 49/18/17 39/14/16 26/16/20
f 26/16/20 39/14/16 16/9/22
f 24/12/12 21/6/23 25/20/24
f 25/20/24 21/6/23 18/5/25
f 54/56/26 35/21/27 48/28/28
f 36/22/29 35/21/30 32/1/3
f 32/1/3 35/21/30 18/5/5
f 38/23/31 36/22/29 17/4/4
f 17/4/4 36/22/29 32/1/3
f 38/23/31 17/4/4 37/15/15
f 37/15/15 17/4/4 34/7/7
f 38/23/31 52/24/32 36/22/29
f 36/22/29 52/24/32 59/25/33
f 24/13/12 25/30/24 3/26/13
f 3/26/13 25/30/24 6/31/34
f 51/27/35 52/24/32 37/15/15
f 37/15/15 52/24/32 38/23/31
f 39/14/14 53/19/36 37/15/15
f 37/15/15 53/19/36 51/27/35
f 59/25/33 48/28/37 36/22/29
f 36/22/29 48/28/37 35/21/30
f 10/33/38 49/34/17 60/36/39
f 60/36/39 49/34/17 50/35/40
f 49/18/17 10/29/38 53/19/18
f 53/19/18 10/29/38 13/32/41
f 61/37/42 42/38/43 60/36/39
f 60/36/39 42/38/43 7/39/44
f 63/41/45 62/42/46 8/45/47
f 8/45/47 62/42/46 46/44/48
f 10/33/38 7/39/44 11/46/49
f 42/38/43 11/46/49 7/39/44
f 46/44/48 11/46/49 8/45/47
f 63/41/45 8/45/47 61/37/42
f 61/37/42 8/45/47 42/38/43
f 11/46/49 42/38/43 8/45/47
f 62/42/46 64/47/50 46/44/48
f 46/44/48 64/47/50 9/48/51
f 11/46/49 46/44/48 12/49/52
f 12/49/52 46/44/48 9/48/51
f 50/35/40 49/34/17 4/50/53
f 4/50/53 49/34/17 26/51/20
f 41/57/54 56/58/55 4/50/53
f 4/50/53 56/58/55 50/35/40
f 56/58/55 41/57/54 58/59/56
f 58/59/56 41/57/54 5/60/57
f 57/62/58 58/59/56 45/61/59
f 45/61/59 58/59/56 5/60/57
f 55/63/60 57/62/58 6/31/34
f 6/31/34 57/62/58 45/61/59
f 48/28/37 59/25/33 15/52/61
f 15/52/61 59/25/33 31/53/62
f 52/24/32 51/27/35 14/55/63
f 14/55/63 51/27/35 33/54/64
f 33/54/64 51/27/35 13/32/41
f 13/32/41 51/27/35 53/19/36
f 55/63/60 54/64/26 64/47/50
f 64/47/50 54/64/26 12/49/52
f 54/56/26 48/28/28 12/43/52
f 12/43/52 48/28/28 15/52/61
f 12/43/52 15/52/61 11/40/49
f 11/40/49 15/52/61 31/53/62
f 10/29/38 11/40/49 13/32/41
f 13/32/41 11/40/49 33/54/64
f 11/40/49 31/53/62 14/55/63
f 33/54/64 11/40/49 14/55/63
f 55/63/60 6/31/34 54/64/26
f 54/64/26 6/31/34 25/30/24
f 54/56/26 25/20/24 35/21/27
f 35/21/27 25/20/24 18/5/25
f 52/24/32 14/55/63 59/25/33
f 59/25/33 14/55/63 31/53/62
f 10/33/38 60/36/39 7/39/44
f 64/47/50 12/49/52 9/48/51
f 60/36/39 50/35/40 61/37/42
f 61/37/42 50/35/40 56/58/55
f 61/37/42 56/58/55 63/41/45
f 63/41/45 56/58/55 58/59/56
f 62/42/46 63/41/45 57/62/58
f 57/62/58 63/41/45 58/59/56
f 64/47/50 62/42/46 55/63/60
f 55/63/60 62/42/46 57/62/58
f 44/67/65 2/68/66 47/66/67
f 47/66/67 2/68/66 65/69/68
f 43/71/69 40/72/70 27/70/71
f 27/70/71 40/72/70 1/73/72
f 43/71/69 27/70/71 65/69/73
f 65/69/73 27/70/71 23/74/74
f 23/74/74 24/13/12 28/11/11
f 23/65/74 30/8/75 20/3/76
f 20/3/76 29/2/77 23/65/74
f 23/65/74 29/2/77 24/12/12
f 24/12/12 29/2/77 21/6/23
f 22/75/19 23/74/74 27/70/71
f 22/75/19 27/70/71 1/73/72
f 19/10/21 30/8/75 22/17/19
f 22/17/19 30/8/75 23/65/74
f 65/69/68 2/68/66 43/71/69
f 43/71/69 2/68/66 40/72/70
f 47/66/67 28/11/11 44/67/65
f 44/67/65 28/11/11 3/26/13
f 40/72/70 41/57/54 1/73/72
f 1/73/72 41/57/54 4/50/53
f 22/75/19 1/73/72 26/51/20
f 26/51/20 1/73/72 4/50/53
f 45/61/59 5/60/57 44/67/65
f 44/67/65 5/60/57 2/68/66
f 41/57/54 40/72/70 5/60/57
f 5/60/57 40/72/70 2/68/66
f 44/67/65 3/26/13 45/61/59
f 45/61/59 3/26/13 6/31/34
f 47/66/67 65/69/73 28/11/11
f 28/11/11 65/69/73 23/74/74
