# This file uses centimeters as units for non-parametric coordinates.

v -0.035718 0.033240 0.046473
v -0.013677 0.035773 0.072442
v 0.008805 0.033240 0.046473
v -0.086503 0.080292 0.004971
v -0.021736 0.093366 -0.003960
v 0.033550 0.076997 -0.037237
v -0.066494 0.072887 -0.196222
v 0.005481 0.092056 -0.166788
v 0.067719 0.053262 -0.166845
v -0.085896 0.006800 -0.202890
v 0.001550 0.001125 -0.207371
v 0.085977 0.006461 -0.177915
v -0.078976 -0.066292 -0.202113
v 0.013078 -0.080571 -0.163770
v 0.058993 -0.034922 -0.167947
v -0.090083 -0.057608 -0.021469
v -0.025487 -0.071928 -0.021790
v 0.040709 -0.057608 -0.021470
v -0.036369 -0.007599 0.042543
v -0.012654 -0.014056 0.067923
v 0.009413 -0.007599 0.042543
v -0.042127 0.009301 0.051922
v -0.013678 0.009301 0.077891
v 0.014773 0.009301 0.051922
v 0.059942 0.006457 -0.022074
v -0.086840 0.011350 -0.018750
v -0.011266 0.049862 -0.089736
v -0.037132 0.042266 -0.094919
v -0.047896 0.011113 -0.097081
v -0.038513 -0.015038 -0.095227
v -0.011266 -0.022469 -0.089737
v 0.015957 -0.014989 -0.084245
v 0.024367 0.011144 -0.082513
v 0.014468 0.042228 -0.084519
v -0.115293 0.005818 -0.199667
v -0.089218 0.069134 -0.187344
v -0.012974 0.096939 -0.146377
v 0.051417 0.078748 -0.126713
v 0.076511 0.011666 -0.133781
v 0.061442 -0.036341 -0.125619
v 0.006769 -0.079606 -0.125670
v -0.095400 -0.074422 -0.181928
v -0.108533 0.063764 -0.172411
v -0.031175 0.080938 -0.120661
v 0.046681 0.057531 -0.105446
v 0.055054 0.011004 -0.091479
v 0.041428 -0.038254 -0.096033
v 0.001109 -0.060713 -0.098583
v -0.106662 -0.074438 -0.162434
v -0.147149 0.010645 -0.189971
v 0.007177 0.071346 -0.191096
v -0.044378 0.056577 -0.196462
v -0.049144 0.007937 -0.208188
v -0.048241 -0.044267 -0.202210
v 0.015252 -0.066249 -0.193539
v 0.058467 -0.028829 -0.182879
v 0.066646 0.006218 -0.199279
v 0.064637 0.045491 -0.183943
vt 0.240611 0.955799
vt 0.240611 0.918923
vt 0.291008 0.918923
vt 0.291008 0.955799
vt 0.240611 0.882443
vt 0.291008 0.882443
vt 0.355187 0.918923
vt 0.355187 0.955799
vt 0.355187 0.882443
vt 0.310282 0.580236
vt 0.340603 0.580236
vt 0.310282 0.696435
vt 0.340603 0.696435
vt 0.368762 0.601201
vt 0.310282 0.601201
vt 0.340603 0.662569
vt 0.310282 0.662569
vt 0.340603 0.635586
vt 0.310282 0.635586
vt 0.275347 0.696435
vt 0.275347 0.717289
vt 0.310282 0.717289
vt 0.275347 0.662569
vt 0.355187 0.826263
vt 0.355187 0.789675
vt 0.291008 0.789675
vt 0.291008 0.826263
vt 0.355187 0.750405
vt 0.291008 0.750405
vt 0.240611 0.789675
vt 0.240611 0.826263
vt 0.240611 0.750405
vt 0.218640 0.789675
vt 0.218640 0.847735
vt 0.218640 0.735031
vt 0.291008 0.735031
vt 0.355187 0.735031
vt 0.291008 0.847735
vt 0.355187 0.847735
vt 0.340603 0.515514
vt 0.310282 0.515514
vt 0.310282 0.493585
vt 0.275347 0.635586
vt 0.275347 0.611433
vt 0.310282 0.611433
vt 0.239419 0.611433
vt 0.239419 0.635586
vt 0.368762 0.493585
vt 0.239419 0.662569
vt 0.239419 0.696435
vt 0.239419 0.717289
vt 0.207569 0.611433
vt 0.207569 0.635586
vt 0.207569 0.662569
vt 0.207569 0.696435
vt 0.207569 0.717289
vt 0.368762 0.611433
vt 0.368762 0.717289
vt 0.275347 0.580236
vt 0.275347 0.541846
vt 0.310282 0.541846
vt 0.275347 0.601201
vt 0.368762 0.662569
vt 0.368762 0.541846
vt 0.340603 0.541846
vt 0.275347 0.515514
vt 0.275347 0.493585
vt 0.239419 0.601201
vt 0.239419 0.580236
vt 0.239419 0.541846
vt 0.239419 0.515514
vt 0.239419 0.493585
vt 0.207569 0.580236
vt 0.207569 0.541846
vt 0.207569 0.515514
vt 0.207569 0.493585
vt 0.207569 0.601201
vt 0.218640 0.976367
vt 0.218640 0.918923
vt 0.218640 0.858429
vt 0.291008 0.858429
vt 0.355187 0.858429
vt 0.291008 0.976367
vt 0.355187 0.976367
vn -0.015695 0.520714 0.853587
vn 0.003104 0.986675 0.162673
vn -0.649716 0.366575 0.665951
vn -0.768441 0.608561 0.197870
vn 0.707135 0.489910 0.509851
vn 0.708269 0.663702 -0.240529
vn -0.589939 0.625795 -0.510247
vn 0.055859 0.842865 -0.535219
vn 0.620740 0.490772 -0.611413
vn -0.100039 0.606147 -0.789037
vn 0.018789 0.330298 -0.943690
vn -0.121451 0.090607 -0.988453
vn -0.060347 0.062795 -0.996200
vn 0.746271 0.619736 -0.242914
vn 0.952807 -0.094605 -0.288459
vn 0.502723 0.458647 -0.732743
vn 0.465041 -0.066497 -0.882788
vn -0.110307 -0.395725 -0.911720
vn -0.001975 -0.309249 -0.950979
vn 0.328009 -0.892238 -0.310358
vn 0.358340 -0.612697 -0.704411
vn 0.570142 -0.496572 -0.654488
vn 0.792771 -0.596038 -0.127484
vn 0.136971 -0.788705 -0.599319
vn -0.026571 -0.996059 0.084617
vn -0.566548 -0.539329 -0.623014
vn -0.801509 -0.592660 0.079604
vn 0.699985 -0.426420 -0.572877
vn 0.631673 -0.765257 -0.123979
vn -0.642514 -0.491304 0.588044
vn -0.001503 -0.666209 0.745763
vn 0.633540 -0.559295 0.534618
vn -0.769367 -0.096602 0.631461
vn 0.003770 -0.103995 0.994571
vn 0.774328 -0.086721 0.626814
vn 0.995191 -0.050574 0.083893
vn 0.856772 0.072461 -0.510579
vn -0.998037 -0.024664 0.057563
vn -0.895431 -0.005682 -0.445164
vn -0.422759 0.747812 -0.511910
vn -0.077220 0.979266 0.187282
vn 0.223081 0.834995 -0.503009
vn -0.462064 -0.001767 -0.886845
vn -0.378913 -0.850535 -0.364712
vn 0.231150 -0.929059 0.288823
vn 0.810119 -0.537674 0.233696
vn 0.958603 0.032406 0.282895
vn 0.615061 0.747500 0.250887
vn -0.290461 0.005190 -0.956873
vn -0.414727 0.695991 -0.586172
vn -0.196086 0.932980 0.301825
vn 0.516307 0.587871 0.622764
vn 0.872703 -0.064240 0.484008
vn 0.612699 -0.605071 0.508419
vn 0.082631 -0.809209 0.581681
vn -0.460574 -0.845778 -0.269316
vn -0.050130 0.691605 0.720534
vn -0.271944 0.628576 0.728656
vn -0.535867 0.435135 0.723536
vn -0.644361 0.323792 0.692790
vn 0.266163 0.425647 0.864860
vn 0.196707 0.620022 0.759526
vn 0.280462 -0.001090 0.959865
vn 0.317535 0.041123 0.947354
vn 0.144171 -0.232063 0.961957
vn 0.207462 -0.251800 0.945281
vn -0.174617 -0.337490 0.924991
vn -0.194346 -0.280313 0.940029
vn -0.582111 -0.230097 0.779874
vn -0.441994 -0.301508 0.844828
vn -0.674457 0.047168 0.736806
vn -0.681274 0.081020 0.727531
vn 0.208203 0.585177 -0.783721
vn 0.121539 0.019865 -0.992388
f 2/2/1 5/3/2 1/1/3
f 1/1/3 5/3/2 4/4/4
f 2/2/1 3/5/5 5/3/2
f 5/3/2 3/5/5 6/6/6
f 4/4/4 5/3/2 28/8/7
f 28/8/7 5/3/2 27/7/8
f 5/3/2 6/6/6 27/7/8
f 27/7/8 6/6/6 34/9/9
f 7/10/10 52/11/11 10/15/12
f 10/15/12 52/11/11 53/14/13
f 9/41/14 12/42/15 58/40/16
f 58/40/16 12/42/15 57/48/17
f 13/12/18 54/13/19 14/17/20
f 14/17/20 54/13/19 55/16/21
f 56/18/22 15/19/23 55/16/21
f 55/16/21 15/19/23 14/17/20
f 31/25/24 17/26/25 30/24/26
f 30/24/26 17/26/25 16/27/27
f 32/28/28 18/29/29 31/25/24
f 31/25/24 18/29/29 17/26/25
f 16/27/27 17/26/25 19/31/30
f 19/31/30 17/26/25 20/30/31
f 18/29/29 21/32/32 17/26/25
f 17/26/25 21/32/32 20/30/31
f 19/31/30 20/30/31 22/34/33
f 22/34/33 20/30/31 23/33/34
f 21/32/32 24/35/35 20/30/31
f 20/30/31 24/35/35 23/33/34
f 23/79/34 2/2/1 22/78/33
f 22/78/33 2/2/1 1/1/3
f 23/79/34 24/80/35 2/2/1
f 2/2/1 24/80/35 3/5/5
f 24/35/35 21/32/32 25/36/36
f 25/36/36 21/32/32 18/29/29
f 24/80/35 25/81/36 3/5/5
f 3/5/5 25/81/36 6/6/6
f 18/29/29 32/28/28 25/36/36
f 25/36/36 32/28/28 33/37/37
f 25/81/36 33/82/37 6/6/6
f 6/6/6 33/82/37 34/9/9
f 22/34/33 26/38/38 19/31/30
f 19/31/30 26/38/38 16/27/27
f 22/78/33 1/1/3 26/83/38
f 26/83/38 1/1/3 4/4/4
f 16/27/27 26/38/38 30/24/26
f 30/24/26 26/38/38 29/39/39
f 4/4/4 28/8/7 26/83/38
f 26/83/38 28/8/7 29/84/39
f 36/59/40 37/60/41 7/10/10
f 7/10/10 37/60/41 8/61/42
f 35/62/43 36/59/40 10/15/12
f 10/15/12 36/59/40 7/10/10
f 42/20/44 35/21/43 13/12/18
f 13/12/18 35/21/43 10/22/12
f 13/12/18 14/17/20 42/20/44
f 42/20/44 14/17/20 41/23/45
f 15/19/23 40/43/46 14/17/20
f 14/17/20 40/43/46 41/23/45
f 40/43/46 15/19/23 39/44/47
f 39/44/47 15/19/23 12/45/15
f 38/66/48 39/67/47 9/41/14
f 9/41/14 39/67/47 12/42/15
f 37/60/41 38/66/48 8/61/42
f 8/61/42 38/66/48 9/41/14
f 50/68/49 43/69/50 35/62/43
f 35/62/43 43/69/50 36/59/40
f 43/69/50 44/70/51 36/59/40
f 36/59/40 44/70/51 37/60/41
f 44/70/51 45/71/52 37/60/41
f 37/60/41 45/71/52 38/66/48
f 46/72/53 39/67/47 45/71/52
f 45/71/52 39/67/47 38/66/48
f 47/47/54 40/43/46 46/46/53
f 46/46/53 40/43/46 39/44/47
f 40/43/46 47/47/54 41/23/45
f 41/23/45 47/47/54 48/49/55
f 42/20/44 41/23/45 49/50/56
f 49/50/56 41/23/45 48/49/55
f 50/51/49 35/21/43 49/50/56
f 49/50/56 35/21/43 42/20/44
f 27/74/57 44/70/58 28/73/59
f 28/73/59 44/70/58 43/69/60
f 34/75/61 45/71/62 27/74/57
f 27/74/57 45/71/62 44/70/58
f 33/76/63 46/72/64 34/75/61
f 34/75/61 46/72/64 45/71/62
f 33/52/63 32/53/65 46/46/64
f 46/46/64 32/53/65 47/47/66
f 47/47/66 32/53/65 48/49/67
f 48/49/67 32/53/65 31/54/68
f 49/50/69 48/49/67 30/55/70
f 30/55/70 48/49/67 31/54/68
f 30/55/70 29/56/71 49/50/69
f 49/50/69 29/56/71 50/51/72
f 28/73/59 43/69/60 29/77/71
f 29/77/71 43/69/60 50/68/72
f 7/10/10 8/61/42 52/11/11
f 52/11/11 8/61/42 51/65/73
f 57/57/17 12/45/15 56/18/22
f 56/18/22 12/45/15 15/19/23
f 53/58/13 54/13/19 10/22/12
f 10/22/12 54/13/19 13/12/18
f 8/61/42 9/41/14 51/65/73
f 51/65/73 9/41/14 58/40/16
f 53/14/13 52/11/11 11/64/74
f 11/64/74 52/11/11 51/65/73
f 55/16/21 54/13/19 11/63/74
f 11/63/74 54/13/19 53/58/13
f 55/16/21 11/63/74 56/18/22
f 56/18/22 11/63/74 57/57/17
f 57/48/17 11/64/74 58/40/16
f 58/40/16 11/64/74 51/65/73
