# This file uses centimeters as units for non-parametric coordinates.

v -0.010019 0.009172 -0.019823
v 0.001936 0.008051 -0.019676
v -0.002452 0.011477 -0.016208
v -0.010019 0.009172 -0.019823
v -0.002452 0.011477 -0.016208
v -0.007011 0.014880 -0.013271
v -0.010618 0.013777 -0.019144
v -0.007011 0.014880 -0.013271
v -0.002452 0.011477 -0.016208
v 0.001701 0.010925 -0.011790
v -0.007182 0.016365 -0.012824
v -0.010938 0.020754 -0.019627
v 0.001701 0.010925 -0.011790
v 0.001841 0.015773 -0.008890
v -0.007431 0.020618 -0.013083
v -0.007431 0.020618 -0.013083
v 0.001903 0.018939 -0.019056
v -0.010938 0.020754 -0.019627
v 0.001812 0.021157 -0.010056
v 0.001812 0.021157 -0.010056
v 0.012260 0.020649 -0.012948
v 0.014843 0.020794 -0.019455
v 0.011812 0.016051 -0.013263
v 0.012260 0.020649 -0.012948
v 0.011812 0.016051 -0.013263
v 0.014843 0.020794 -0.019455
v 0.012260 0.020649 -0.012948
v 0.015307 0.013825 -0.018937
v 0.011231 0.015107 -0.013321
v 0.011231 0.015107 -0.013321
v 0.006840 0.011855 -0.015972
v 0.011231 0.015107 -0.013321
v 0.001701 0.010925 -0.011790
v 0.013887 0.009212 -0.019651
v 0.006840 0.011855 -0.015972
v 0.001936 0.008051 -0.019676
v 0.013887 0.009212 -0.019651
v 0.006840 0.011855 -0.015972
v -0.002452 0.011477 -0.016208
v 0.001936 0.008051 -0.019676
v 0.001701 0.010925 -0.011790
v 0.006840 0.011855 -0.015972
v 0.001955 0.010739 -0.024303
v 0.001166 0.013473 -0.028475
v 0.002071 0.013476 -0.027427
v 0.001236 0.021118 -0.026098
v 0.002001 0.021060 -0.025562
v 0.001236 0.021118 -0.026098
v 0.001903 0.018939 -0.019056
v 0.002001 0.021060 -0.025562
v 0.003004 0.021134 -0.026051
v 0.003004 0.021134 -0.026051
v 0.002071 0.013476 -0.027427
v 0.002952 0.013474 -0.028465
v 0.001955 0.010739 -0.024303
v 0.001166 0.013473 -0.028475
v -0.005925 0.013450 -0.027867
v 0.001236 0.021118 -0.026098
v 0.002952 0.013474 -0.028465
v 0.003004 0.021134 -0.026051
v 0.010704 0.013450 -0.027696
v -0.006221 0.021691 -0.025051
v -0.006221 0.021691 -0.025051
v 0.001903 0.018939 -0.019056
v 0.001236 0.021118 -0.026098
v -0.010938 0.020754 -0.019627
v -0.010618 0.013777 -0.019144
v -0.010938 0.020754 -0.019627
v 0.001903 0.018939 -0.019056
v 0.010528 0.021691 -0.024893
v 0.003004 0.021134 -0.026051
v 0.010528 0.021691 -0.024893
v 0.014843 0.020794 -0.019455
v 0.015307 0.013825 -0.018937
v 0.014843 0.020794 -0.019455
v -0.007544 0.009377 -0.026207
v -0.010019 0.009172 -0.019823
v -0.000556 0.008547 -0.026141
v -0.007544 0.009377 -0.026207
v -0.000556 0.008547 -0.026141
v -0.010019 0.009172 -0.019823
v 0.001936 0.008051 -0.019676
v 0.001955 0.010739 -0.024303
v -0.000556 0.008547 -0.026141
v 0.001166 0.013473 -0.028475
v 0.001936 0.008051 -0.019676
v 0.011691 0.009377 -0.026065
v 0.013887 0.009212 -0.019651
v 0.004215 0.008504 -0.026105
v 0.013887 0.009212 -0.019651
v 0.004215 0.008504 -0.026105
v 0.011691 0.009377 -0.026065
v 0.001936 0.008051 -0.019676
v 0.004215 0.008504 -0.026105
v 0.001955 0.010739 -0.024303
v 0.001936 0.008051 -0.019676
vt 0.150698 0.311208
vt 0.150698 0.316335
vt 0.149081 0.314626
vt 0.578943 0.277012
vt 0.579629 0.273259
vt 0.581521 0.274449
vt 0.581018 0.276951
vt 0.150744 0.337606
vt 0.149111 0.336034
vt 0.150744 0.334035
vt 0.582177 0.274372
vt 0.584024 0.276875
vt 0.579324 0.270863
vt 0.581552 0.270100
vt 0.584024 0.274342
vt 0.148287 0.484565
vt 0.150805 0.480507
vt 0.151125 0.486152
vt 0.583810 0.270085
vt 0.147021 0.480507
vt 0.148287 0.475959
vt 0.151125 0.474830
vt 0.580865 0.266835
vt 0.582834 0.266407
vt 0.149462 0.338399
vt 0.150744 0.340658
vt 0.149050 0.340383
vt 0.580499 0.267124
vt 0.149355 0.340658
vt 0.151385 0.298833
vt 0.149874 0.300755
vt 0.149874 0.296330
vt 0.150072 0.343664
vt 0.151797 0.340764
vt 0.151385 0.291051
vt 0.151385 0.296330
vt 0.149660 0.293416
vt 0.151736 0.343694
vt 0.151797 0.346029
vt 0.149157 0.343694
vt 0.148928 0.346593
vt 0.149142 0.316335
vt 0.150698 0.317708
vt 0.150118 0.317647
vt 0.149493 0.320943
vt 0.149142 0.320882
vt 0.149126 0.299397
vt 0.149477 0.299229
vt 0.149874 0.299504
vt 0.150378 0.325551
vt 0.149706 0.322316
vt 0.149142 0.322362
vt 0.150774 0.320943
vt 0.803494 0.273991
vt 0.803647 0.272175
vt 0.806745 0.272999
vt 0.319097 0.634409
vt 0.315847 0.633295
vt 0.319234 0.632242
vt 0.807157 0.270924
vt 0.112169 0.482795
vt 0.115221 0.486107
vt 0.112016 0.486107
vt 0.114366 0.480522
vt 0.803616 0.267826
vt 0.806683 0.267826
vt 0.146685 0.476432
vt 0.144198 0.480339
vt 0.143557 0.477058
vt 0.315724 0.631006
vt 0.146685 0.482124
vt 0.319402 0.627924
vt 0.316335 0.628016
vt 0.801846 0.271260
vt 0.801602 0.268284
vt 0.801297 0.272816
vt 0.151858 0.307210
vt 0.151873 0.310201
vt 0.149081 0.306111
vt 0.149081 0.311208
vt 0.149111 0.331960
vt 0.150637 0.332433
vt 0.149111 0.334035
vt 0.149126 0.329900
vt 0.321065 0.631540
vt 0.321370 0.628687
vt 0.321370 0.633402
vt 0.151873 0.301885
vt 0.151858 0.305165
vt 0.149081 0.300847
vt 0.149142 0.328115
vt 0.150637 0.327718
vt 0.150591 0.325551
vt 0.150744 0.337606
vt 0.149874 0.296330
vt 0.149081 0.306111
vn -0.079003 -0.757427 0.648123
vn -0.079003 -0.757427 0.648123
vn -0.079003 -0.757427 0.648123
vn -0.103802 -0.725815 0.680014
vn -0.103802 -0.725815 0.680014
vn -0.103802 -0.725815 0.680014
vn -0.821125 -0.186506 0.539416
vn -0.821125 -0.186506 0.539416
vn -0.821125 -0.186506 0.539416
vn -0.436213 -0.846826 0.304309
vn -0.436213 -0.846826 0.304309
vn -0.436213 -0.846826 0.304309
vn -0.801803 -0.255101 0.540402
vn -0.801803 -0.255101 0.540402
vn -0.801803 -0.255101 0.540402
vn -0.877297 -0.006900 0.479898
vn -0.877297 -0.006900 0.479898
vn -0.877297 -0.006900 0.479898
vn -0.352014 -0.472919 0.807733
vn -0.352014 -0.472919 0.807733
vn -0.352014 -0.472919 0.807733
vn -0.397215 -0.306212 0.865133
vn -0.397215 -0.306212 0.865133
vn -0.397215 -0.306212 0.865133
vn -0.881365 -0.022899 0.471881
vn -0.881365 -0.022899 0.471881
vn -0.881365 -0.022899 0.471881
vn 0.142197 0.988276 -0.055599
vn 0.142197 0.988276 -0.055599
vn 0.142197 0.988276 -0.055599
vn -0.313100 0.039500 0.948899
vn -0.313100 0.039500 0.948899
vn -0.313100 0.039500 0.948899
vn 0.021700 0.970778 -0.238995
vn 0.021700 0.970778 -0.238995
vn 0.021700 0.970778 -0.238995
vn -0.381396 0.193698 0.903891
vn -0.381396 0.193698 0.903891
vn -0.381396 0.193698 0.903891
vn -0.019101 0.970731 -0.239408
vn -0.019101 0.970731 -0.239408
vn -0.019101 0.970731 -0.239408
vn -0.142905 0.989132 -0.034601
vn -0.142905 0.989132 -0.034601
vn -0.142905 0.989132 -0.034601
vn 0.261592 -0.091097 0.960870
vn 0.261592 -0.091097 0.960870
vn 0.261592 -0.091097 0.960870
vn 0.924171 -0.114896 0.364289
vn 0.924171 -0.114896 0.364289
vn 0.924171 -0.114896 0.364289
vn 0.389095 0.196997 0.899888
vn 0.389095 0.196997 0.899888
vn 0.389095 0.196997 0.899888
vn 0.863771 0.094297 0.494983
vn 0.863771 0.094297 0.494983
vn 0.863771 0.094297 0.494983
vn 0.390702 -0.294301 0.872204
vn 0.390702 -0.294301 0.872204
vn 0.390702 -0.294301 0.872204
vn 0.671197 -0.449298 0.589598
vn 0.671197 -0.449298 0.589598
vn 0.671197 -0.449298 0.589598
vn 0.343505 -0.489308 0.801612
vn 0.343505 -0.489308 0.801612
vn 0.343505 -0.489308 0.801612
vn 0.423311 -0.842721 0.332608
vn 0.423311 -0.842721 0.332608
vn 0.423311 -0.842721 0.332608
vn 0.731199 -0.318400 0.603299
vn 0.731199 -0.318400 0.603299
vn 0.731199 -0.318400 0.603299
vn 0.100503 -0.706719 0.700319
vn 0.100503 -0.706719 0.700319
vn 0.100503 -0.706719 0.700319
vn 0.070599 -0.741086 0.667688
vn 0.070599 -0.741086 0.667688
vn 0.070599 -0.741086 0.667688
vn -0.430000 -0.852300 0.297800
vn -0.430000 -0.852300 0.297800
vn -0.430000 -0.852300 0.297800
vn 0.416213 -0.850226 0.322310
vn 0.416213 -0.850226 0.322310
vn 0.416213 -0.850226 0.322310
vn 0.598734 -0.613235 -0.515229
vn 0.598734 -0.613235 -0.515229
vn 0.598734 -0.613235 -0.515229
vn 0.742436 0.192609 -0.641631
vn 0.742436 0.192609 -0.641631
vn 0.742436 0.192609 -0.641631
vn 0.572708 0.200703 -0.794811
vn 0.572708 0.200703 -0.794811
vn 0.572708 0.200703 -0.794811
vn -0.141404 0.941826 0.304908
vn -0.141404 0.941826 0.304908
vn -0.141404 0.941826 0.304908
vn 0.080998 0.947282 0.309994
vn 0.080998 0.947282 0.309994
vn 0.080998 0.947282 0.309994
vn -0.440990 0.210495 -0.872479
vn -0.440990 0.210495 -0.872479
vn -0.440990 0.210495 -0.872479
vn -0.623699 -0.576199 -0.528199
vn -0.623699 -0.576199 -0.528199
vn -0.623699 -0.576199 -0.528199
vn -0.745804 0.204801 -0.633903
vn -0.745804 0.204801 -0.633903
vn -0.745804 0.204801 -0.633903
vn -0.082602 0.296607 -0.951421
vn -0.082602 0.296607 -0.951421
vn -0.082602 0.296607 -0.951421
vn 0.095103 0.298608 -0.949626
vn 0.095103 0.298608 -0.949626
vn 0.095103 0.298608 -0.949626
vn -0.107794 0.317983 -0.941949
vn -0.107794 0.317983 -0.941949
vn -0.107794 0.317983 -0.941949
vn 0.113005 0.952138 0.284011
vn 0.113005 0.952138 0.284011
vn 0.113005 0.952138 0.284011
vn 0.122900 0.954502 0.271701
vn 0.122900 0.954502 0.271701
vn 0.122900 0.954502 0.271701
vn -0.745206 -0.080101 -0.662006
vn -0.745206 -0.080101 -0.662006
vn -0.745206 -0.080101 -0.662006
vn -0.871055 0.130508 -0.473530
vn -0.871055 0.130508 -0.473530
vn -0.871055 0.130508 -0.473530
vn -0.113801 0.952907 0.281102
vn -0.113801 0.952907 0.281102
vn -0.113801 0.952907 0.281102
vn 0.120603 0.322008 -0.939024
vn 0.120603 0.322008 -0.939024
vn 0.120603 0.322008 -0.939024
vn -0.129205 0.956841 0.260311
vn -0.129205 0.956841 0.260311
vn -0.129205 0.956841 0.260311
vn 0.783879 0.006100 -0.620883
vn 0.783879 0.006100 -0.620883
vn 0.783879 0.006100 -0.620883
vn 0.868216 0.176303 -0.463809
vn 0.868216 0.176303 -0.463809
vn 0.868216 0.176303 -0.463809
vn -0.867972 0.152295 -0.472685
vn -0.867972 0.152295 -0.472685
vn -0.867972 0.152295 -0.472685
vn -0.929525 -0.067602 -0.362510
vn -0.929525 -0.067602 -0.362510
vn -0.929525 -0.067602 -0.362510
vn -0.034600 -0.365403 -0.930206
vn -0.034600 -0.365403 -0.930206
vn -0.034600 -0.365403 -0.930206
vn -0.116905 -0.990146 -0.077104
vn -0.116905 -0.990146 -0.077104
vn -0.116905 -0.990146 -0.077104
vn -0.076802 -0.404911 -0.911125
vn -0.076802 -0.404911 -0.911125
vn -0.076802 -0.404911 -0.911125
vn -0.092796 -0.994857 -0.040598
vn -0.092796 -0.994857 -0.040598
vn -0.092796 -0.994857 -0.040598
vn 0.750898 -0.478198 -0.455499
vn 0.750898 -0.478198 -0.455499
vn 0.750898 -0.478198 -0.455499
vn 0.746492 -0.576594 -0.332097
vn 0.746492 -0.576594 -0.332097
vn 0.746492 -0.576594 -0.332097
vn 0.884362 0.027699 -0.465980
vn 0.884362 0.027699 -0.465980
vn 0.884362 0.027699 -0.465980
vn 0.918183 -0.232996 -0.320394
vn 0.918183 -0.232996 -0.320394
vn 0.918183 -0.232996 -0.320394
vn 0.047097 -0.361581 -0.931150
vn 0.047097 -0.361581 -0.931150
vn 0.047097 -0.361581 -0.931150
vn 0.116099 -0.991095 -0.065200
vn 0.116099 -0.991095 -0.065200
vn 0.116099 -0.991095 -0.065200
vn 0.088799 -0.408798 -0.908295
vn 0.088799 -0.408798 -0.908295
vn 0.088799 -0.408798 -0.908295
vn 0.096697 -0.994666 -0.035899
vn 0.096697 -0.994666 -0.035899
vn 0.096697 -0.994666 -0.035899
vn -0.782016 -0.418108 -0.462209
vn -0.782016 -0.418108 -0.462209
vn -0.782016 -0.418108 -0.462209
vn -0.782409 -0.537106 -0.315204
vn -0.782409 -0.537106 -0.315204
vn -0.782409 -0.537106 -0.315204
f 1/1/1 2/2/2 3/3/3
f 4/4/4 5/5/5 6/6/6
f 4/4/7 6/6/8 7/7/9
f 8/8/10 9/9/11 10/10/12
f 7/7/13 6/6/14 11/11/15
f 7/7/16 11/11/17 12/12/18
f 13/13/19 14/14/20 6/6/21
f 6/6/22 14/14/23 11/11/24
f 12/12/25 11/11/26 15/15/27
f 16/16/28 17/17/29 18/18/30
f 11/11/31 19/19/32 15/15/33
f 20/20/34 17/17/35 16/16/36
f 14/14/37 19/19/38 11/11/39
f 20/20/40 21/21/41 17/17/42
f 17/17/43 21/21/44 22/22/45
f 19/19/46 23/23/47 24/24/48
f 25/25/49 26/26/50 27/27/51
f 14/14/52 23/23/53 19/19/54
f 28/94/55 26/26/56 25/25/57
f 14/14/58 29/28/59 23/23/60
f 30/29/61 28/94/62 25/25/63
f 13/13/64 29/28/65 14/14/66
f 31/30/67 32/31/68 33/32/69
f 34/33/70 28/94/71 30/29/72
f 35/34/73 34/33/74 30/29/75
f 36/35/76 37/36/77 38/37/78
f 39/38/79 40/39/80 41/40/81
f 40/39/82 42/41/83 41/40/84
f 43/42/85 44/43/86 45/44/87
f 44/43/88 46/45/89 45/44/90
f 45/44/91 46/45/92 47/46/93
f 48/47/94 49/95/95 50/48/96
f 49/95/97 51/49/98 50/48/99
f 47/46/100 52/50/101 53/51/102
f 54/52/103 55/53/104 53/51/105
f 53/51/106 52/50/107 54/52/108
f 56/54/109 57/55/110 58/56/111
f 59/57/112 60/58/113 61/59/114
f 58/56/115 57/55/116 62/60/117
f 63/61/118 64/62/119 65/63/120
f 66/64/121 64/62/122 63/61/123
f 62/60/124 67/65/125 68/66/126
f 57/55/127 67/65/128 62/60/129
f 69/67/130 70/68/131 71/69/132
f 61/59/133 60/58/134 72/70/135
f 73/71/136 70/68/137 69/67/138
f 74/72/139 72/70/140 75/73/141
f 61/59/142 72/70/143 74/72/144
f 76/74/145 67/65/146 57/55/147
f 77/75/148 67/65/149 76/74/150
f 57/55/151 78/76/152 76/74/153
f 79/77/154 80/78/155 81/79/156
f 56/54/157 78/76/158 57/55/159
f 81/79/160 80/78/161 82/80/162
f 83/81/163 84/82/164 85/83/165
f 86/84/166 84/82/167 83/81/168
f 74/72/169 87/85/170 61/59/171
f 88/86/172 87/85/173 74/72/174
f 89/87/175 61/59/176 87/85/177
f 90/96/178 91/88/179 92/89/180
f 59/57/181 61/59/182 89/87/183
f 93/90/184 91/88/185 90/96/186
f 54/52/187 94/91/188 95/92/189
f 95/92/190 94/91/191 96/93/192
