# This file uses centimeters as units for non-parametric coordinates.

v 0.021797 0.020926 0.047901
v -0.031019 0.018125 0.057037
v -0.024555 -0.006617 0.045513
v -0.110070 0.040545 0.018158
v -0.069191 0.023804 0.048427
v -0.093699 0.052693 0.036986
v -0.022104 0.144946 0.010479
v -0.067611 0.121497 0.025845
v -0.029222 0.129217 0.031358
v 0.040735 0.070873 0.039813
v 0.002956 0.038313 0.058788
v -0.076634 0.001131 0.033766
v -0.074478 0.134413 0.002958
v -0.093074 0.091275 0.028068
v 0.023397 0.119852 0.025034
v 0.016837 0.074923 0.052859
v -0.109218 0.093182 0.005990
v 0.013574 -0.026962 -0.155404
v -0.006146 -0.017540 -0.175832
v 0.014452 -0.020605 -0.171186
v -0.031074 0.025668 -0.176246
v -0.005293 0.035175 -0.188018
v -0.019034 0.018867 -0.186818
v 0.048005 0.013903 -0.158409
v 0.033418 0.029416 -0.179286
v 0.038862 0.039733 -0.166203
v -0.031523 -0.002090 -0.169830
v -0.019371 -0.001952 -0.182006
v 0.015421 0.039341 -0.185043
v 0.014867 0.052967 -0.173879
v 0.032785 -0.009711 -0.170242
v 0.038018 -0.012436 -0.154144
v -0.013890 -0.022876 -0.161598
v -0.012753 0.047412 -0.177846
v 0.040275 0.010044 -0.173440
v 0.004129 0.110824 0.042027
vt 0.107387 0.548729
vt 0.092585 0.553803
vt 0.097661 0.559193
vt 0.073747 0.570209
vt 0.082933 0.559936
vt 0.074737 0.561731
vt 0.089275 0.543510
vt 0.076152 0.550131
vt 0.085967 0.541924
vt 0.109894 0.540213
vt 0.099752 0.545946
vt 0.084789 0.567459
vt 0.075624 0.554896
vt 0.071807 0.558028
vt 0.103089 0.537769
vt 0.101315 0.539586
vt 0.069692 0.565601
vt 0.133556 0.603908
vt 0.130507 0.610602
vt 0.135528 0.606984
vt 0.121312 0.609765
vt 0.129515 0.608179
vt 0.126453 0.611493
vt 0.141219 0.595585
vt 0.139373 0.601112
vt 0.138596 0.595842
vt 0.122081 0.611022
vt 0.126920 0.612390
vt 0.134662 0.604019
vt 0.132263 0.599686
vt 0.139749 0.603166
vt 0.139153 0.598837
vt 0.126920 0.608671
vt 0.125311 0.605281
vt 0.141302 0.600841
vt 0.096061 0.537793
vn 0.177210 -0.377122 0.909052
vn 0.177210 -0.377122 0.909052
vn 0.177210 -0.377122 0.909052
vn -0.640908 -0.257303 0.723209
vn -0.640908 -0.257303 0.723209
vn -0.640908 -0.257303 0.723209
vn -0.239711 0.812939 0.530725
vn -0.239711 0.812939 0.530725
vn -0.239711 0.812939 0.530725
vn 0.473973 -0.037298 0.879749
vn 0.473973 -0.037298 0.879749
vn -0.260007 -0.462712 0.847522
vn -0.636480 0.574182 0.514984
vn -0.636480 0.574182 0.514984
vn 0.489886 0.406188 0.771378
vn 0.489886 0.406188 0.771378
vn -0.791908 0.149702 0.592006
vn -0.052899 -0.925275 -0.375590
vn -0.052899 -0.925275 -0.375590
vn -0.052899 -0.925275 -0.375590
vn -0.493782 0.357787 -0.792571
vn -0.493782 0.357787 -0.792571
vn -0.493782 0.357787 -0.792571
vn 0.860815 0.158803 -0.483508
vn 0.860815 0.158803 -0.483508
vn 0.860815 0.158803 -0.483508
vn -0.698924 -0.150305 -0.699224
vn -0.698924 -0.150305 -0.699224
vn 0.515198 0.555597 -0.652597
vn 0.515198 0.555597 -0.652597
vn 0.498690 -0.813284 -0.299794
vn 0.498690 -0.813284 -0.299794
vn -0.528129 -0.659736 -0.534629
vn -0.016199 0.633269 -0.773762
vn 0.182597 -0.224196 -0.957285
vn 0.208792 0.745570 0.632875
f 1/1/1 2/2/2 3/3/3
f 4/4/4 5/5/5 6/6/6
f 7/7/7 8/8/8 9/9/9
f 10/10/10 11/11/11 1/1/1
f 12/12/12 2/2/2 5/5/5
f 13/13/13 14/14/14 8/8/8
f 15/15/15 16/16/16 10/10/10
f 17/17/17 6/6/6 14/14/14
f 14/14/14 6/6/6 16/16/16
f 18/18/18 19/19/19 20/20/20
f 21/21/21 22/22/22 23/23/23
f 24/24/24 25/25/25 26/26/26
f 27/27/27 23/23/23 28/28/28
f 26/26/26 29/29/29 30/30/30
f 18/18/18 31/31/31 32/32/32
f 33/33/33 28/28/28 19/19/19
f 34/34/34 29/29/29 22/22/22
f 35/35/35 31/31/31 28/28/28
f 32/32/32 35/35/35 24/24/24
f 7/7/7 36/36/36 15/15/15
f 34/34/34 7/7/7 30/30/30
f 27/27/27 12/12/12 4/4/4
f 18/18/18 1/1/1 3/3/3
f 30/30/30 15/15/15 26/26/26
f 21/21/21 4/4/4 17/17/17
f 26/26/26 10/10/10 24/24/24
f 34/34/34 17/17/17 13/13/13
f 33/33/33 3/3/3 12/12/12
f 24/24/24 1/1/1 32/32/32
f 1/1/1 11/11/11 2/2/2
f 4/4/4 12/12/12 5/5/5
f 7/7/7 13/13/13 8/8/8
f 10/10/10 16/16/16 11/11/11
f 12/12/12 3/3/3 2/2/2
f 13/13/13 17/17/17 14/14/14
f 15/15/15 36/36/36 16/16/16
f 17/17/17 4/4/4 6/6/6
f 6/6/6 5/5/5 11/11/11
f 5/5/5 2/2/2 11/11/11
f 11/11/11 16/16/16 6/6/6
f 16/16/16 36/36/36 14/14/14
f 36/36/36 9/9/9 8/8/8
f 14/14/14 36/36/36 8/8/8
f 18/18/18 33/33/33 19/19/19
f 21/21/21 34/34/34 22/22/22
f 24/24/24 35/35/35 25/25/25
f 27/27/27 21/21/21 23/23/23
f 26/26/26 25/25/25 29/29/29
f 18/18/18 20/20/20 31/31/31
f 33/33/33 27/27/27 28/28/28
f 34/34/34 30/30/30 29/29/29
f 20/20/20 19/19/19 31/31/31
f 19/19/19 28/28/28 31/31/31
f 28/28/28 23/23/23 35/35/35
f 23/23/23 22/22/22 25/25/25
f 22/22/22 29/29/29 25/25/25
f 25/25/25 35/35/35 23/23/23
f 32/32/32 31/31/31 35/35/35
f 7/7/7 9/9/9 36/36/36
f 34/34/34 13/13/13 7/7/7
f 27/27/27 33/33/33 12/12/12
f 18/18/18 32/32/32 1/1/1
f 30/30/30 7/7/7 15/15/15
f 21/21/21 27/27/27 4/4/4
f 26/26/26 15/15/15 10/10/10
f 34/34/34 21/21/21 17/17/17
f 33/33/33 18/18/18 3/3/3
f 24/24/24 10/10/10 1/1/1
