# This file uses centimeters as units for non-parametric coordinates.

v 0.000430 0.026775 0.102621
v -0.001229 0.047801 0.069993
v -0.027704 0.023637 0.085690
v 0.000430 -0.006024 0.106173
v -0.037514 0.037528 0.062186
v -0.000219 0.059194 -0.002038
v -0.035888 -0.006024 0.089242
v -0.046355 0.054838 -0.002037
v -0.050147 -0.005750 0.054985
v -0.028537 -0.026964 0.083127
v 0.000430 -0.026080 0.100059
v -0.000219 -0.042596 0.064459
v -0.038994 -0.040346 0.056969
v 0.000247 -0.066976 -0.002038
v -0.059637 -0.002116 -0.002038
v -0.047241 -0.062703 -0.002038
v -0.042721 -0.049166 -0.059003
v -0.000046 -0.056528 -0.059339
v -0.041943 0.048575 -0.051827
v -0.000046 0.056441 -0.051702
v -0.055155 -0.000156 -0.059917
v -0.037588 -0.047258 -0.087278
v 0.000681 -0.076225 -0.094177
v 0.004308 -0.038006 -0.124380
v -0.038996 0.044469 -0.068190
v -0.000046 0.053753 -0.065905
v -0.003621 0.042433 -0.088872
v -0.047887 0.001017 -0.089326
v -0.028592 -0.029652 -0.120164
v -0.000590 0.006945 -0.128777
v -0.027433 0.033382 -0.100303
v -0.039126 0.001740 -0.110372
v 0.000430 0.026775 0.102621
v 0.029130 0.023637 0.085690
v -0.001229 0.047801 0.069993
v 0.000430 -0.006024 0.106173
v 0.037173 0.036677 0.062676
v -0.000219 0.059194 -0.002038
v 0.036747 -0.006024 0.089243
v 0.043322 0.050378 -0.000812
v 0.029905 -0.026964 0.083128
v 0.000430 -0.026080 0.100059
v -0.000219 -0.042596 0.064459
v 0.049253 -0.006205 0.062108
v 0.039456 -0.039946 0.058594
v 0.000247 -0.066976 -0.002038
v 0.062471 -0.002116 -0.002038
v 0.051006 -0.062703 -0.002038
v 0.041497 -0.045355 -0.057889
v -0.000046 -0.056528 -0.059339
v 0.033031 0.040805 -0.048800
v -0.000046 0.056441 -0.051702
v -0.000046 0.053753 -0.065905
v 0.045035 0.001602 -0.060562
v 0.035027 0.038872 -0.067585
v -0.003621 0.042433 -0.088872
v 0.050233 0.000584 -0.086856
v 0.024860 0.028092 -0.100904
v -0.000590 0.006945 -0.128777
v 0.030226 0.001333 -0.109453
v 0.004308 -0.038006 -0.124380
v 0.027619 -0.042388 -0.115954
v 0.000681 -0.076225 -0.094177
v 0.039133 -0.062165 -0.087710
v 0.000430 0.026775 0.102621
v -0.001229 0.047801 0.069993
v -0.027704 0.023637 0.085690
v 0.000430 -0.006024 0.106173
v -0.037514 0.037528 0.062186
v -0.000219 0.059194 -0.002038
v -0.035888 -0.006024 0.089242
v -0.046355 0.054838 -0.002037
v -0.050147 -0.005750 0.054985
v -0.028537 -0.026964 0.083127
v 0.000430 -0.026080 0.100059
v -0.000219 -0.042596 0.064459
v -0.038994 -0.040346 0.056969
v 0.000247 -0.066976 -0.002038
v -0.059637 -0.002116 -0.002038
v -0.047241 -0.062703 -0.002038
v -0.042721 -0.049166 -0.059003
v -0.000046 -0.056528 -0.059339
v -0.041943 0.048575 -0.051827
v -0.000046 0.056441 -0.051702
v -0.055155 -0.000156 -0.059917
v -0.037588 -0.047258 -0.087278
v 0.000681 -0.076225 -0.094177
v 0.004308 -0.038006 -0.124380
v -0.038996 0.044469 -0.068190
v -0.000046 0.053753 -0.065905
v -0.003621 0.042433 -0.088872
v -0.047887 0.001017 -0.089326
v -0.028592 -0.029652 -0.120164
v -0.000590 0.006945 -0.128777
v -0.027433 0.033382 -0.100303
v -0.039126 0.001740 -0.110372
v 0.000430 0.026775 0.102621
v 0.029130 0.023637 0.085690
v -0.001229 0.047801 0.069993
v 0.000430 -0.006024 0.106173
v 0.037173 0.036677 0.062676
v -0.000219 0.059194 -0.002038
v 0.036747 -0.006024 0.089243
v 0.043322 0.050378 -0.000812
v 0.029905 -0.026964 0.083128
v 0.000430 -0.026080 0.100059
v -0.000219 -0.042596 0.064459
v 0.049253 -0.006205 0.062108
v 0.039456 -0.039946 0.058594
v 0.000247 -0.066976 -0.002038
v 0.062471 -0.002116 -0.002038
v 0.051006 -0.062703 -0.002038
v 0.041497 -0.045355 -0.057889
v -0.000046 -0.056528 -0.059339
v 0.033031 0.040805 -0.048800
v -0.000046 0.056441 -0.051702
v -0.000046 0.053753 -0.065905
v 0.045035 0.001602 -0.060562
v 0.035027 0.038872 -0.067585
v -0.003621 0.042433 -0.088872
v 0.050233 0.000584 -0.086856
v 0.024860 0.028092 -0.100904
v -0.000590 0.006945 -0.128777
v 0.030226 0.001333 -0.109453
v 0.004308 -0.038006 -0.124380
v 0.027619 -0.042388 -0.115954
v 0.000681 -0.076225 -0.094177
v 0.039133 -0.062165 -0.087710
vt 0.185565 0.393835
vt 0.184726 0.412116
vt 0.171313 0.401938
vt 0.185565 0.388815
vt 0.166339 0.414969
vt 0.185245 0.449027
vt 0.167163 0.397223
vt 0.161883 0.448600
vt 0.159960 0.414267
vt 0.170886 0.398215
vt 0.185565 0.389883
vt 0.185245 0.405951
vt 0.165606 0.409888
vt 0.185489 0.436576
vt 0.155154 0.442985
vt 0.161410 0.437003
vt 0.163714 0.466636
vt 0.185336 0.466072
vt 0.164096 0.472709
vt 0.185336 0.473411
vt 0.157412 0.471931
vt 0.166308 0.480858
vt 0.185687 0.481422
vt 0.187533 0.500206
vt 0.165606 0.480446
vt 0.185336 0.480217
vt 0.183520 0.490501
vt 0.161105 0.486641
vt 0.170871 0.498939
vt 0.185061 0.506844
vt 0.171466 0.495308
vt 0.165545 0.497185
vt 0.200122 0.401938
vt 0.204181 0.414633
vt 0.203967 0.397223
vt 0.207294 0.447532
vt 0.200488 0.398215
vt 0.210300 0.410681
vt 0.205325 0.409110
vt 0.216983 0.442985
vt 0.211185 0.437003
vt 0.206363 0.466468
vt 0.202090 0.470451
vt 0.208164 0.472419
vt 0.203098 0.479591
vt 0.210803 0.485390
vt 0.197955 0.495064
vt 0.200656 0.496666
vt 0.199329 0.495598
vt 0.205173 0.479622
vt 0.673121 0.095796
vt 0.672419 0.111040
vt 0.661234 0.102541
vt 0.673121 0.091630
vt 0.657099 0.113420
vt 0.672847 0.141802
vt 0.657786 0.098634
vt 0.653361 0.141451
vt 0.651774 0.112840
vt 0.660883 0.099458
vt 0.673121 0.092500
vt 0.672847 0.105898
vt 0.656474 0.109194
vt 0.673045 0.131441
vt 0.647761 0.136751
vt 0.652995 0.131792
vt 0.654917 0.156481
vt 0.672908 0.156024
vt 0.655238 0.161547
vt 0.672908 0.162142
vt 0.649653 0.160906
vt 0.657069 0.168353
vt 0.673228 0.168841
vt 0.674769 0.184497
vt 0.656474 0.167987
vt 0.672908 0.167819
vt 0.671427 0.176394
vt 0.652720 0.173159
vt 0.660868 0.183429
vt 0.672679 0.190005
vt 0.661357 0.180392
vt 0.656413 0.181949
vt 0.685237 0.102541
vt 0.688624 0.113161
vt 0.688457 0.098634
vt 0.691249 0.140581
vt 0.685573 0.099458
vt 0.693751 0.109865
vt 0.689616 0.108537
vt 0.699306 0.136751
vt 0.694484 0.131792
vt 0.690471 0.156329
vt 0.686900 0.159655
vt 0.691951 0.161303
vt 0.687724 0.167269
vt 0.694163 0.172107
vt 0.683452 0.180209
vt 0.685710 0.181537
vt 0.684596 0.180636
vt 0.689479 0.167300
vt 0.185565 0.393835
vt 0.184726 0.412116
vt 0.185565 0.388815
vt 0.185245 0.449027
vt 0.185565 0.389883
vt 0.185245 0.405951
vt 0.185489 0.436576
vt 0.185336 0.466072
vt 0.185336 0.473411
vt 0.185336 0.480217
vt 0.183520 0.490501
vt 0.185061 0.506844
vt 0.187533 0.500206
vt 0.185687 0.481422
vt 0.673121 0.095796
vt 0.672419 0.111040
vt 0.673121 0.091630
vt 0.672847 0.141802
vt 0.673121 0.092500
vt 0.672847 0.105898
vt 0.673045 0.131441
vt 0.672908 0.156024
vt 0.672908 0.162142
vt 0.672908 0.167819
vt 0.671427 0.176394
vt 0.672679 0.190005
vt 0.674769 0.184497
vt 0.673228 0.168841
vn -0.393297 0.763594 0.512096
vn -0.393297 0.763594 0.512096
vn -0.393297 0.763594 0.512096
vn -0.520998 0.091900 0.848596
vn -0.335012 0.743227 0.579121
vn -0.298298 0.943395 0.144999
vn -0.412212 0.219606 0.884225
vn -0.090498 0.958374 0.270793
vn -0.883272 0.287991 0.369988
vn -0.390514 -0.381714 0.837731
vn -0.482073 -0.255486 0.838053
vn -0.215101 -0.884403 0.414201
vn -0.145498 -0.855991 0.496095
vn -0.119997 -0.932376 0.340991
vn -0.952651 0.249087 0.174391
vn -0.083505 -0.927953 0.363221
vn -0.087102 -0.967620 -0.236905
vn -0.168704 -0.969825 -0.176005
vn -0.967514 0.225603 -0.114102
vn -0.184094 0.981369 -0.054998
vn -0.965575 -0.246494 -0.083098
vn -0.169896 -0.980677 -0.096998
vn -0.498924 -0.758836 0.418620
vn -0.507501 -0.504101 -0.698802
vn -0.176907 0.946637 -0.269411
vn -0.217910 0.958942 -0.181508
vn -0.188598 0.892192 -0.410396
vn -0.946687 -0.212197 -0.242397
vn -0.272510 -0.815229 -0.511018
vn -0.154407 -0.112805 -0.981546
vn -0.166693 0.911962 -0.374884
vn -0.441488 0.128796 -0.887975
vn 0.374496 0.787991 0.488695
vn 0.374496 0.787991 0.488695
vn 0.374496 0.787991 0.488695
vn 0.513383 0.092397 0.853171
vn 0.327390 0.768476 0.549783
vn 0.301799 0.940998 0.153100
vn 0.412913 0.212107 0.885728
vn 0.187301 0.956304 0.224501
vn 0.391912 -0.373611 0.840726
vn 0.475614 -0.256507 0.841425
vn 0.208008 -0.888734 0.408516
vn 0.874490 0.272597 0.401195
vn 0.131402 -0.854116 0.503209
vn 0.112904 -0.932631 0.342712
vn 0.941622 0.262506 0.210805
vn 0.078199 -0.928387 0.363295
vn 0.079800 -0.948001 -0.308100
vn 0.261411 -0.949340 -0.174407
vn 0.904878 0.336192 -0.261094
vn 0.430293 0.901386 -0.048499
vn 0.433311 0.885523 -0.167604
vn 0.903363 0.350686 -0.246890
vn 0.387881 0.920156 -0.053497
vn 0.328505 0.825912 -0.458207
vn 0.978623 -0.062601 0.195905
vn 0.286706 0.882420 -0.373008
vn 0.098701 0.747308 -0.657107
vn 0.542416 0.352410 -0.762622
vn 0.527722 -0.025501 -0.849035
vn 0.356916 0.116505 -0.926843
vn 0.160398 -0.621290 -0.766988
vn 0.875034 -0.148506 -0.460718
vn -0.393297 0.763594 0.512096
vn -0.393297 0.763594 0.512096
vn -0.393297 0.763594 0.512096
vn -0.520998 0.091900 0.848596
vn -0.335012 0.743227 0.579121
vn -0.298298 0.943395 0.144999
vn -0.412212 0.219606 0.884225
vn -0.090498 0.958374 0.270793
vn -0.883272 0.287991 0.369988
vn -0.390514 -0.381714 0.837731
vn -0.482073 -0.255486 0.838053
vn -0.215101 -0.884403 0.414201
vn -0.145498 -0.855991 0.496095
vn -0.119997 -0.932376 0.340991
vn -0.952651 0.249087 0.174391
vn -0.083505 -0.927953 0.363221
vn -0.087102 -0.967620 -0.236905
vn -0.168704 -0.969825 -0.176005
vn -0.967514 0.225603 -0.114102
vn -0.184094 0.981369 -0.054998
vn -0.965575 -0.246494 -0.083098
vn -0.169896 -0.980677 -0.096998
vn -0.498924 -0.758836 0.418620
vn -0.507501 -0.504101 -0.698802
vn -0.176907 0.946637 -0.269411
vn -0.217910 0.958942 -0.181508
vn -0.188598 0.892192 -0.410396
vn -0.946687 -0.212197 -0.242397
vn -0.272510 -0.815229 -0.511018
vn -0.154407 -0.112805 -0.981546
vn -0.166693 0.911962 -0.374884
vn -0.441488 0.128796 -0.887975
vn 0.374496 0.787991 0.488695
vn 0.374496 0.787991 0.488695
vn 0.374496 0.787991 0.488695
vn 0.513383 0.092397 0.853171
vn 0.327390 0.768476 0.549783
vn 0.301799 0.940998 0.153100
vn 0.412913 0.212107 0.885728
vn 0.187301 0.956304 0.224501
vn 0.391912 -0.373611 0.840726
vn 0.475614 -0.256507 0.841425
vn 0.208008 -0.888734 0.408516
vn 0.874490 0.272597 0.401195
vn 0.131402 -0.854116 0.503209
vn 0.112904 -0.932631 0.342712
vn 0.941622 0.262506 0.210805
vn 0.078199 -0.928387 0.363295
vn 0.079800 -0.948001 -0.308100
vn 0.261411 -0.949340 -0.174407
vn 0.904878 0.336192 -0.261094
vn 0.430293 0.901386 -0.048499
vn 0.433311 0.885523 -0.167604
vn 0.903363 0.350686 -0.246890
vn 0.387881 0.920156 -0.053497
vn 0.328505 0.825912 -0.458207
vn 0.978623 -0.062601 0.195905
vn 0.286706 0.882420 -0.373008
vn 0.098701 0.747308 -0.657107
vn 0.542416 0.352410 -0.762622
vn 0.527722 -0.025501 -0.849035
vn 0.356916 0.116505 -0.926843
vn 0.160398 -0.621290 -0.766988
vn 0.875034 -0.148506 -0.460718
f 1/1/1 2/2/2 3/3/3
f 3/3/3 4/4/4 1/1/1
f 3/3/3 2/2/2 5/5/5
f 2/2/2 6/6/6 5/5/5
f 7/7/7 4/4/4 3/3/3
f 5/5/5 6/6/6 8/8/8
f 7/7/7 3/3/3 9/9/9
f 9/9/9 3/3/3 5/5/5
f 10/10/10 4/4/4 7/7/7
f 7/7/7 9/9/9 10/10/10
f 11/11/11 4/4/4 10/10/10
f 10/10/10 12/12/12 11/11/11
f 13/13/13 12/12/12 10/10/10
f 10/10/10 9/9/9 13/13/13
f 13/13/13 14/14/14 12/12/12
f 9/9/9 5/5/5 15/15/15
f 9/9/9 15/15/15 13/13/13
f 15/15/15 5/5/5 8/8/8
f 16/16/16 14/14/14 13/13/13
f 13/13/13 15/15/15 16/16/16
f 17/17/17 14/14/14 16/16/16
f 16/16/16 15/15/15 17/17/17
f 18/18/18 14/14/14 17/17/17
f 8/8/8 19/19/19 15/15/15
f 8/8/8 6/6/6 19/19/19
f 19/19/19 6/6/6 20/20/20
f 17/17/17 15/15/15 21/21/21
f 15/15/15 19/19/19 21/21/21
f 22/22/22 18/18/18 17/17/17
f 17/17/17 21/21/21 22/22/22
f 23/23/23 18/18/18 22/22/22
f 22/22/22 24/24/24 23/23/23
f 19/19/19 20/20/20 25/25/25
f 19/19/19 25/25/25 21/21/21
f 25/25/25 20/20/20 26/26/26
f 26/26/26 27/27/27 25/25/25
f 22/22/22 21/21/21 28/28/28
f 21/21/21 25/25/25 28/28/28
f 29/29/29 24/24/24 22/22/22
f 28/28/28 29/29/29 22/22/22
f 29/29/29 30/30/30 24/24/24
f 25/25/25 27/27/27 31/31/31
f 30/30/30 31/31/31 27/27/27
f 25/25/25 31/31/31 28/28/28
f 32/32/32 30/30/30 29/29/29
f 32/32/32 29/29/29 28/28/28
f 32/32/32 31/31/31 30/30/30
f 28/28/28 31/31/31 32/32/32
f 33/101/33 34/33/34 35/102/35
f 36/103/36 34/33/34 33/101/33
f 35/102/35 34/33/34 37/34/37
f 35/102/35 37/34/37 38/104/38
f 39/35/39 34/33/34 36/103/36
f 38/104/38 37/34/37 40/36/40
f 36/103/36 41/37/41 39/35/39
f 42/105/42 41/37/41 36/103/36
f 43/106/43 41/37/41 42/105/42
f 39/35/39 44/38/44 34/33/34
f 39/35/39 41/37/41 44/38/44
f 34/33/34 44/38/44 37/34/37
f 45/39/45 41/37/41 43/106/43
f 44/38/44 41/37/41 45/39/45
f 46/107/46 45/39/45 43/106/43
f 44/38/44 47/40/47 37/34/37
f 44/38/44 45/39/45 47/40/47
f 37/34/37 47/40/47 40/36/40
f 48/41/48 45/39/45 46/107/46
f 47/40/47 45/39/45 48/41/48
f 46/107/46 49/42/49 48/41/48
f 48/41/48 49/42/49 47/40/47
f 50/108/50 49/42/49 46/107/46
f 40/36/40 47/40/47 51/43/51
f 40/36/40 51/43/51 38/104/38
f 38/104/38 51/43/51 52/109/52
f 52/109/52 51/43/51 53/110/53
f 51/43/51 47/40/47 54/44/54
f 47/40/47 49/42/49 54/44/54
f 53/110/53 51/43/51 55/45/55
f 51/43/51 54/44/54 55/45/55
f 53/110/53 55/45/55 56/111/56
f 54/44/54 49/42/49 57/46/57
f 55/45/55 54/44/54 57/46/57
f 56/111/56 55/45/55 58/47/58
f 55/45/55 57/46/57 58/47/58
f 56/111/56 58/47/58 59/112/59
f 59/112/59 58/47/58 60/48/60
f 58/47/58 57/46/57 60/48/60
f 59/112/59 60/48/60 61/113/61
f 61/113/61 60/48/60 62/49/62
f 60/48/60 57/46/57 62/49/62
f 62/49/62 63/114/63 61/113/61
f 62/49/62 57/46/57 64/50/64
f 64/50/64 63/114/63 62/49/62
f 57/46/57 49/42/49 64/50/64
f 63/114/63 64/50/64 50/108/50
f 50/108/50 64/50/64 49/42/49
f 65/51/65 66/52/66 67/53/67
f 67/53/67 68/54/68 65/51/65
f 67/53/67 66/52/66 69/55/69
f 66/52/66 70/56/70 69/55/69
f 71/57/71 68/54/68 67/53/67
f 69/55/69 70/56/70 72/58/72
f 71/57/71 67/53/67 73/59/73
f 73/59/73 67/53/67 69/55/69
f 74/60/74 68/54/68 71/57/71
f 71/57/71 73/59/73 74/60/74
f 75/61/75 68/54/68 74/60/74
f 74/60/74 76/62/76 75/61/75
f 77/63/77 76/62/76 74/60/74
f 74/60/74 73/59/73 77/63/77
f 77/63/77 78/64/78 76/62/76
f 73/59/73 69/55/69 79/65/79
f 73/59/73 79/65/79 77/63/77
f 79/65/79 69/55/69 72/58/72
f 80/66/80 78/64/78 77/63/77
f 77/63/77 79/65/79 80/66/80
f 81/67/81 78/64/78 80/66/80
f 80/66/80 79/65/79 81/67/81
f 82/68/82 78/64/78 81/67/81
f 72/58/72 83/69/83 79/65/79
f 72/58/72 70/56/70 83/69/83
f 83/69/83 70/56/70 84/70/84
f 81/67/81 79/65/79 85/71/85
f 79/65/79 83/69/83 85/71/85
f 86/72/86 82/68/82 81/67/81
f 81/67/81 85/71/85 86/72/86
f 87/73/87 82/68/82 86/72/86
f 86/72/86 88/74/88 87/73/87
f 83/69/83 84/70/84 89/75/89
f 83/69/83 89/75/89 85/71/85
f 89/75/89 84/70/84 90/76/90
f 90/76/90 91/77/91 89/75/89
f 86/72/86 85/71/85 92/78/92
f 85/71/85 89/75/89 92/78/92
f 93/79/93 88/74/88 86/72/86
f 92/78/92 93/79/93 86/72/86
f 93/79/93 94/80/94 88/74/88
f 89/75/89 91/77/91 95/81/95
f 94/80/94 95/81/95 91/77/91
f 89/75/89 95/81/95 92/78/92
f 96/82/96 94/80/94 93/79/93
f 96/82/96 93/79/93 92/78/92
f 96/82/96 95/81/95 94/80/94
f 92/78/92 95/81/95 96/82/96
f 97/115/97 98/83/98 99/116/99
f 100/117/100 98/83/98 97/115/97
f 99/116/99 98/83/98 101/84/101
f 99/116/99 101/84/101 102/118/102
f 103/85/103 98/83/98 100/117/100
f 102/118/102 101/84/101 104/86/104
f 100/117/100 105/87/105 103/85/103
f 106/119/106 105/87/105 100/117/100
f 107/120/107 105/87/105 106/119/106
f 103/85/103 108/88/108 98/83/98
f 103/85/103 105/87/105 108/88/108
f 98/83/98 108/88/108 101/84/101
f 109/89/109 105/87/105 107/120/107
f 108/88/108 105/87/105 109/89/109
f 110/121/110 109/89/109 107/120/107
f 108/88/108 111/90/111 101/84/101
f 108/88/108 109/89/109 111/90/111
f 101/84/101 111/90/111 104/86/104
f 112/91/112 109/89/109 110/121/110
f 111/90/111 109/89/109 112/91/112
f 110/121/110 113/92/113 112/91/112
f 112/91/112 113/92/113 111/90/111
f 114/122/114 113/92/113 110/121/110
f 104/86/104 111/90/111 115/93/115
f 104/86/104 115/93/115 102/118/102
f 102/118/102 115/93/115 116/123/116
f 116/123/116 115/93/115 117/124/117
f 115/93/115 111/90/111 118/94/118
f 111/90/111 113/92/113 118/94/118
f 117/124/117 115/93/115 119/95/119
f 115/93/115 118/94/118 119/95/119
f 117/124/117 119/95/119 120/125/120
f 118/94/118 113/92/113 121/96/121
f 119/95/119 118/94/118 121/96/121
f 120/125/120 119/95/119 122/97/122
f 119/95/119 121/96/121 122/97/122
f 120/125/120 122/97/122 123/126/123
f 123/126/123 122/97/122 124/98/124
f 122/97/122 121/96/121 124/98/124
f 123/126/123 124/98/124 125/127/125
f 125/127/125 124/98/124 126/99/126
f 124/98/124 121/96/121 126/99/126
f 126/99/126 127/128/127 125/127/125
f 126/99/126 121/96/121 128/100/128
f 128/100/128 127/128/127 126/99/126
f 121/96/121 113/92/113 128/100/128
f 127/128/127 128/100/128 114/122/114
f 114/122/114 128/100/128 113/92/113
