# This file uses centimeters as units for non-parametric coordinates.

v 0.160339 0.069181 0.315932
v 0.117586 0.076123 0.327135
v 0.105632 0.068544 0.331829
v -0.005334 0.012697 0.349708
v -0.019619 0.054684 0.343835
v -0.032027 0.062131 0.340233
v -0.013083 -0.235188 -0.052457
v 0.018096 -0.241620 -0.063498
v -0.023934 -0.253069 -0.007322
v -0.204422 -0.079902 0.152752
v -0.137643 -0.151387 0.015876
v -0.138494 -0.156274 0.191789
v -0.094372 -0.109621 0.288744
v -0.140243 -0.014536 0.293834
v -0.157058 -0.095565 -0.035992
v -0.244083 0.018737 0.102978
v -0.164031 -0.064200 -0.060738
v 0.052738 -0.235344 -0.049733
v 0.060945 -0.253539 -0.004349
v 0.059014 -0.198067 0.020732
v 0.049375 -0.183415 -0.022769
v 0.172675 -0.155503 0.022280
v -0.009902 -0.182990 -0.024890
v -0.021881 -0.196972 0.018306
v -0.091781 -0.205273 0.097235
v 0.195724 -0.100358 -0.029056
v 0.204318 -0.069096 -0.053111
v 0.279232 0.010482 0.113366
v 0.169013 -0.016632 0.299756
v 0.014364 0.124472 0.344504
v 0.013379 0.011903 0.353848
v 0.045369 -0.223378 0.063544
v -0.012089 -0.224689 0.060068
v 0.016122 -0.238922 0.043216
v -0.021939 -0.150375 0.282521
v 0.012103 -0.091204 0.330550
v 0.095374 -0.206795 0.174899
v 0.122241 -0.208061 0.101523
v 0.165271 -0.160812 0.198165
v 0.200137 0.095752 0.277261
v -0.155483 0.095618 0.283296
v 0.234450 -0.087921 0.162657
v 0.018131 -0.194384 -0.034591
v 0.048313 -0.278260 0.042923
v 0.015670 -0.283906 0.030106
v -0.016508 -0.277561 0.041332
v 0.020096 -0.131230 -0.098271
v 0.119650 -0.112409 0.293032
v -0.016531 -0.226006 0.131092
v -0.076340 -0.185486 0.207220
v 0.075908 -0.159153 0.267000
v 0.019074 0.180485 0.298270
v 0.190476 0.156130 0.233712
v 0.014601 -0.021660 -0.128441
v 0.190229 0.009212 -0.059225
v -0.242356 0.003978 0.105408
v -0.275613 -0.095011 0.076593
v -0.233288 -0.087719 0.066969
v 0.074453 -0.209930 -0.129276
v 0.186360 -0.198861 -0.091819
v 0.074288 -0.175587 -0.099337
v -0.157989 -0.112715 -0.050186
v -0.150466 -0.198136 -0.072376
v -0.114024 -0.163398 -0.051124
v 0.352473 -0.126754 0.007636
v 0.313180 -0.101529 0.086394
v 0.269594 -0.148141 -0.018129
v 0.204650 0.076862 0.282138
v 0.243900 -0.020864 0.226679
v 0.273282 0.084277 0.366997
v 0.069453 0.157235 0.305247
v 0.190243 0.154849 0.249202
v 0.110099 0.125924 0.322858
v -0.230498 -0.065757 0.205881
v -0.262720 -0.071790 0.217689
v -0.260550 0.223012 -0.047014
v -0.183300 0.336752 0.013890
v -0.193936 0.300166 -0.066212
v -0.169761 0.345403 0.119013
v -0.078863 0.385899 0.107712
v -0.110457 0.389212 0.013879
v -0.188359 0.162276 0.314471
v -0.215469 0.178754 0.332078
v -0.177863 0.070159 0.335915
v 0.018455 0.243331 0.247214
v 0.154799 0.221562 0.189416
v 0.145996 0.121421 -0.080312
v 0.021204 0.099523 -0.132534
v 0.014178 0.005965 -0.166816
v -0.064861 -0.089564 -0.115386
v -0.166438 -0.067918 -0.069355
v 0.324815 -0.036084 0.179807
v 0.292149 -0.039058 0.242610
v 0.270441 -0.038052 0.176227
v -0.238329 -0.118708 -0.117647
v -0.127472 -0.165252 -0.191844
v -0.106678 -0.206531 -0.155058
v 0.016980 -0.166406 -0.222510
v 0.173876 -0.181301 -0.223322
v 0.152035 -0.207063 -0.173617
v 0.021631 -0.039070 -0.249785
v 0.163256 -0.015606 -0.241781
v 0.179079 -0.103373 -0.256053
v 0.352279 0.170372 0.219755
v 0.355607 0.092175 0.057324
v 0.284776 0.268494 0.173906
v 0.353508 0.063970 -0.043788
v 0.271352 0.024655 -0.143033
v 0.308934 0.129940 -0.042759
v -0.297832 0.090238 -0.024607
v -0.226211 0.006146 -0.141033
v 0.020553 -0.100673 -0.143032
v 0.051463 -0.146479 -0.118180
v 0.277965 0.003289 0.105528
v 0.193579 0.025976 -0.083147
v 0.201578 -0.066352 -0.070103
v -0.228680 0.087725 0.083266
v -0.152115 0.153221 0.244913
v 0.264864 0.084106 0.077989
v -0.012932 0.126416 0.336377
v 0.020956 0.170168 0.316962
v -0.150685 0.030738 -0.093347
v -0.227805 -0.176941 -0.090539
v -0.152356 0.039469 0.293178
v -0.182028 -0.015814 0.313944
v -0.188351 -0.056223 0.270691
v 0.022352 0.198247 0.376712
v 0.061698 0.193446 0.384479
v 0.014243 0.227655 0.416604
v -0.236768 0.079570 0.370756
v -0.242566 0.288818 0.150650
v -0.297133 0.242255 0.058360
v -0.052980 0.350901 0.213860
v -0.131779 0.343601 0.183674
v -0.121297 0.306416 -0.098789
v -0.319521 0.017086 0.257784
v -0.208994 -0.053321 0.306164
v -0.342259 -0.018160 0.125072
v -0.019742 0.165502 0.386725
v -0.111982 0.210865 0.366891
v 0.112390 0.207488 0.383826
v 0.212490 0.172752 0.329570
v 0.259150 0.192186 0.321533
v 0.233129 -0.122866 -0.000696
v 0.267682 -0.090863 0.077481
v -0.311867 -0.082245 -0.000302
v -0.089977 0.349052 0.292017
v -0.147158 0.329534 0.256567
v -0.172186 0.283208 0.244283
v -0.114915 0.365449 0.214436
v -0.234357 -0.133869 -0.014816
v -0.006437 -0.213483 -0.112293
v 0.000969 0.323203 -0.104233
v 0.092459 0.324467 -0.079185
v -0.004079 0.249591 -0.188238
v 0.203628 0.255615 -0.131049
v 0.023081 0.164043 -0.231189
v 0.211527 0.169076 0.060108
v -0.118162 0.116758 -0.069996
v -0.076734 0.012129 -0.139051
v -0.329657 0.163894 0.076028
v 0.206449 0.311547 0.123193
v 0.300370 0.226602 0.050437
v 0.225996 0.275463 0.045347
v -0.292494 0.132832 0.219243
v -0.276044 0.226031 0.187587
v -0.113245 0.024584 -0.233540
v -0.212438 0.081357 -0.130025
v 0.018338 0.272309 0.367874
v 0.347320 0.018123 0.259081
v 0.371889 0.103946 0.246395
v 0.140693 0.070052 -0.206443
v 0.051704 -0.204064 -0.167712
v 0.156362 -0.164302 -0.071946
v 0.110413 0.011510 -0.130873
v -0.174683 0.169212 0.060488
v 0.381201 -0.019415 0.125642
v -0.203974 -0.112945 0.000958
v 0.018808 0.362482 0.291621
v -0.019176 0.377064 0.253232
v 0.011930 0.349410 0.320806
v 0.016108 0.359557 0.232712
v -0.202738 0.248128 -0.156121
v -0.108166 0.216292 -0.209220
v -0.211132 0.177645 -0.142011
v 0.152672 0.357986 0.197361
v 0.139538 0.382393 0.048658
v -0.023769 0.374629 0.124563
v -0.085402 0.132165 0.300110
v 0.151861 0.119844 0.306976
v 0.176751 0.137306 0.335618
v 0.275128 -0.118608 -0.118139
v -0.088608 0.317185 0.301687
v 0.122149 0.327829 -0.013130
v 0.164888 0.295691 -0.025148
v 0.220180 0.308982 0.248736
v 0.236425 0.242817 0.283925
v 0.023845 0.057801 -0.253870
v 0.240294 0.257221 -0.069882
v -0.178362 0.290934 -0.142032
v 0.130524 0.141016 0.355845
v -0.000333 -0.180299 -0.086590
v 0.273475 -0.054673 -0.132134
v 0.370417 0.039599 0.109481
v 0.128130 0.261159 0.328846
v 0.125167 0.340726 0.300998
v 0.407647 -0.023730 -0.041404
v 0.394187 -0.106180 -0.013823
v -0.117447 0.222228 0.192434
v 0.112828 0.362399 0.263057
v 0.189248 0.326125 0.032409
v 0.174657 0.100339 0.296643
v 0.227615 0.051069 0.296496
v 0.195931 0.040366 0.294746
v 0.169217 0.077592 0.324722
v 0.196796 0.038816 0.319994
v 0.223215 0.050134 0.313813
v 0.179358 0.107475 0.310812
v 0.015119 0.081535 0.348044
v 0.026186 0.013625 0.370185
v 0.036417 0.012326 0.350863
v 0.002310 0.011557 0.341890
v -0.011127 0.058706 0.333417
v -0.060907 0.085541 0.343965
v -0.056842 0.077026 0.333028
v -0.044434 0.069578 0.336631
v -0.050222 0.084647 0.321852
v -0.007870 0.095842 0.336867
v -0.100369 0.081682 0.305387
v -0.156546 0.045281 0.322331
v -0.106624 0.076574 0.332494
v -0.119653 0.107604 0.319276
v -0.167860 0.049624 0.302888
v -0.136463 -0.015181 0.301238
v -0.133273 0.038066 0.302552
v -0.121366 -0.082371 0.320969
v -0.169021 -0.024965 0.308180
v -0.053230 -0.094819 0.347122
v -0.118396 -0.066667 0.338218
v -0.060180 -0.058302 0.350993
v -0.106003 -0.048345 0.336506
v -0.052564 -0.080106 0.328545
v -0.100818 -0.052202 0.316292
v -0.012574 -0.037123 0.337905
v -0.055289 -0.056827 0.330918
v 0.009543 -0.054759 0.347475
v 0.009681 -0.055459 0.363655
v -0.017010 -0.035112 0.361820
v 0.106075 0.109949 0.313265
v 0.159300 0.075082 0.303030
v 0.071476 0.092028 0.344866
v 0.054800 0.079072 0.354531
v 0.110895 0.117279 0.330832
v 0.075432 0.055513 0.332930
v 0.048321 0.076350 0.337008
v 0.113709 0.079451 0.318027
v 0.067922 0.093144 0.338679
v 0.067820 0.089950 0.332202
v 0.026042 0.010453 0.360879
v 0.046160 0.013181 0.371852
v 0.077939 0.061538 0.353879
v 0.056998 0.009950 0.342576
v 0.056633 -0.057803 0.370023
v 0.083691 -0.034227 0.367932
v 0.067244 0.012990 0.361922
v 0.073315 -0.039257 0.343363
v 0.124985 -0.076185 0.363982
v 0.119635 -0.094764 0.350173
v 0.189760 -0.073147 0.341007
v 0.173303 -0.048513 0.343734
v 0.127072 -0.054390 0.355415
v 0.226429 -0.026667 0.303155
v 0.188467 -0.080021 0.326028
v 0.167746 -0.051465 0.321007
v 0.230913 -0.019319 0.319684
v 0.204667 -0.009922 0.329021
v -0.032027 0.062131 0.340233
v 0.087847 0.105776 0.330854
v 0.093677 0.060965 0.336524
v 0.105632 0.068544 0.331829
v 0.120930 0.086322 0.337797
v 0.090866 0.104321 0.337252
v -0.012381 0.092180 0.354966
v -0.032575 0.114499 0.339766
v -0.134937 0.037995 0.324653
v -0.002934 0.013017 0.359743
v 0.122638 -0.061029 0.335947
v 0.194754 -0.011906 0.309547
v -0.019619 0.054684 0.343835
v -0.017667 0.058625 0.353887
v 0.117586 0.076123 0.327135
v 0.088419 0.105537 0.332451
v 0.088498 0.109090 0.338738
v 0.160339 0.069181 0.315932
v 0.189976 0.035810 0.312852
v -0.005334 0.012697 0.349708
v -0.099587 0.069267 0.322345
v -0.127853 0.035038 0.316783
v -0.157440 -0.018566 0.325759
v -0.135213 -0.010373 0.326370
v -0.128414 -0.009644 0.318946
v -0.101008 -0.043873 0.327821
v -0.058457 -0.051632 0.339256
v -0.020673 -0.029291 0.347900
v 0.081722 0.053387 0.341218
v 0.069529 0.011611 0.351593
v 0.086711 -0.029656 0.353404
v 0.125229 -0.051106 0.345804
v 0.167060 -0.042702 0.332350
v 0.192631 -0.008376 0.319336
v 0.023819 0.119300 0.331301
v 0.020837 0.143000 0.325474
v 0.067123 0.095122 0.339920
v 0.085269 0.106581 0.326035
v 0.067773 0.098954 0.346007
v 0.064545 0.096445 0.333304
v -0.012381 0.092180 0.354966
v -0.001431 0.136807 0.344155
v -0.032575 0.114499 0.339766
v -0.007870 0.095842 0.336867
v 0.023819 0.119300 0.331301
v 0.020837 0.143000 0.325474
v 0.024869 0.122992 0.343611
v 0.042399 0.141006 0.339051
v 0.088498 0.109090 0.338738
v 0.088419 0.105537 0.332451
v 0.064545 0.096445 0.333304
v 0.067123 0.095122 0.339920
v 0.071476 0.092028 0.344866
v 0.067773 0.098954 0.346007
v 0.067922 0.093144 0.338679
v 0.067820 0.089950 0.332202
v 0.090866 0.104321 0.337252
v 0.085269 0.106581 0.326035
v -0.250138 -0.163168 0.107316
v -0.217048 -0.153918 0.144754
v -0.247297 -0.146721 0.173928
v -0.294258 -0.142997 0.138470
v -0.244440 -0.099132 0.189258
v -0.282297 -0.099132 0.176957
v -0.305693 -0.099132 0.144755
v -0.307291 -0.079799 0.104979
v -0.278031 -0.132866 0.078223
v -0.282297 -0.099132 0.072748
v -0.244440 -0.099132 0.060448
v -0.211629 -0.144484 0.086663
v -0.206584 -0.099132 0.072748
v -0.183188 -0.099132 0.104951
v -0.194024 -0.055750 0.138899
v -0.200118 -0.065272 0.092651
v -0.249437 -0.034394 0.104443
v -0.244208 -0.065397 0.067385
v -0.275347 -0.052052 0.164110
v -0.229290 -0.054001 0.171482
v -0.206584 -0.099132 0.176957
v -0.183835 -0.123034 0.144263
v 0.275088 -0.163168 0.107316
v 0.308179 -0.153918 0.144754
v 0.277930 -0.146721 0.173928
v 0.230466 -0.142716 0.137854
v 0.271342 -0.117417 0.061851
v 0.236464 -0.132992 0.092650
v 0.242930 -0.099132 0.072748
v 0.280786 -0.099132 0.189258
v 0.242930 -0.099132 0.176957
v 0.219534 -0.099132 0.144755
v 0.218211 -0.078771 0.105485
v 0.313673 -0.144120 0.086103
v 0.318642 -0.099132 0.072748
v 0.342039 -0.099132 0.104951
v 0.331203 -0.055750 0.138899
v 0.325109 -0.065272 0.092651
v 0.275790 -0.034394 0.104443
v 0.281019 -0.065397 0.067385
v 0.249879 -0.052052 0.164110
v 0.295937 -0.054001 0.171482
v 0.318642 -0.099132 0.176957
v 0.341392 -0.123034 0.144263
v 0.081722 0.053387 0.341218
v 0.069529 0.011611 0.351593
v 0.093677 0.060965 0.336524
v 0.086711 -0.029656 0.353404
v 0.125229 -0.051106 0.345804
v 0.167060 -0.042702 0.332350
v 0.192631 -0.008376 0.319336
v 0.189976 0.035810 0.312852
v -0.056842 0.077026 0.333028
v -0.099587 0.069267 0.322345
v -0.044434 0.069578 0.336631
v -0.127853 0.035038 0.316783
v -0.128414 -0.009644 0.318946
v -0.101008 -0.043873 0.327821
v -0.058457 -0.051632 0.339256
v -0.020673 -0.029291 0.347900
v -0.153898 0.157209 0.231435
v -0.111531 0.164640 0.369287
v -0.108056 0.156343 0.356395
vt 0.313130 0.819776
vt 0.291478 0.823301
vt 0.285420 0.819455
vt 0.229221 0.791165
vt 0.221973 0.812436
vt 0.215702 0.816205
vt 0.391028 0.067308
vt 0.402670 0.066041
vt 0.386007 0.061616
vt 0.301152 0.105241
vt 0.340551 0.086702
vt 0.328023 0.082444
vt 0.340627 0.095491
vt 0.315938 0.127092
vt 0.335729 0.101289
vt 0.287556 0.133196
vt 0.334325 0.109117
vt 0.415274 0.067185
vt 0.418204 0.061418
vt 0.417411 0.074647
vt 0.413870 0.079225
vt 0.462043 0.085527
vt 0.391470 0.079393
vt 0.385916 0.074998
vt 0.354864 0.070848
vt 0.469535 0.100069
vt 0.472114 0.107912
vt 0.512062 0.131090
vt 0.472282 0.126558
vt 0.391913 0.178882
vt 0.391608 0.138003
vt 0.411826 0.066972
vt 0.388815 0.066758
vt 0.400412 0.063569
vt 0.376959 0.082383
vt 0.392081 0.101366
vt 0.432990 0.068147
vt 0.443412 0.069947
vt 0.464942 0.080949
vt 0.487831 0.164141
vt 0.307469 0.164370
vt 0.494759 0.102876
vt 0.402228 0.076753
vt 0.413169 0.053529
vt 0.400534 0.052598
vt 0.387732 0.053773
vt 0.403632 0.092927
vt 0.446616 0.094530
vt 0.385077 0.064149
vt 0.355367 0.073411
vt 0.424735 0.079942
vt 0.395453 0.195560
vt 0.480980 0.181888
vt 0.401846 0.119066
vt 0.467048 0.127535
vt 0.087510 0.076341
vt 0.074281 0.072343
vt 0.078630 0.084535
vt 0.076158 0.192615
vt 0.104601 0.215167
vt 0.084199 0.187961
vt 0.059373 0.121614
vt 0.054643 0.126955
vt 0.066346 0.132891
vt 0.158648 0.241932
vt 0.173465 0.219852
vt 0.138109 0.224903
vt 0.101526 0.067888
vt 0.082055 0.084292
vt 0.242603 0.166613
vt 0.192538 0.124514
vt 0.197238 0.163714
vt 0.203967 0.132082
vt 0.045965 0.092531
vt 0.145367 0.123002
vt 0.127669 0.165343
vt 0.158344 0.094365
vt 0.133969 0.201579
vt 0.103075 0.092622
vt 0.114931 0.117357
vt 0.084459 0.123812
vt 0.150616 0.084829
vt 0.149468 0.082261
vt 0.185077 0.090999
vt 0.168536 0.120546
vt 0.175296 0.163943
vt 0.101076 0.203189
vt 0.066529 0.179644
vt 0.056138 0.183139
vt 0.057069 0.155230
vt 0.052811 0.122438
vt 0.200565 0.208423
vt 0.212146 0.190509
vt 0.093802 0.045672
vt 0.028016 0.111681
vt 0.111225 0.147325
vt 0.092832 0.135023
vt 0.108605 0.128996
vt 0.063770 0.138174
vt 0.062497 0.121537
vt 0.111020 0.167393
vt 0.070572 0.184823
vt 0.067717 0.165409
vt 0.215839 0.209232
vt 0.172580 0.235080
vt 0.192401 0.199222
vt 0.144945 0.250080
vt 0.104707 0.244556
vt 0.137926 0.238651
vt 0.098433 0.178994
vt 0.092259 0.128736
vt 0.063600 0.181079
vt 0.075364 0.185107
vt 0.172839 0.208011
vt 0.108110 0.215671
vt 0.112947 0.215702
vt 0.083803 0.083207
vt 0.139940 0.077714
vt 0.163272 0.208927
vt 0.187442 0.098863
vt 0.187747 0.110430
vt 0.048920 0.130098
vt 0.037064 0.110170
vt 0.183212 0.086106
vt 0.240622 0.191661
vt 0.244265 0.200368
vt 0.204089 0.101595
vt 0.212650 0.110353
vt 0.213535 0.093400
vt 0.247497 0.149250
vt 0.099672 0.069337
vt 0.038214 0.075884
vt 0.147814 0.107576
vt 0.126757 0.092287
vt 0.119525 0.185822
vt 0.252196 0.156275
vt 0.188794 0.122972
vt 0.076448 0.048035
vt 0.197173 0.089386
vt 0.149415 0.108908
vt 0.220768 0.123308
vt 0.222553 0.156985
vt 0.228031 0.170016
vt 0.136843 0.212985
vt 0.163607 0.209720
vt 0.048689 0.160071
vt 0.142152 0.185038
vt 0.108506 0.175205
vt 0.136492 0.072740
vt 0.137804 0.091814
vt 0.056397 0.096849
vt 0.067460 0.169543
vt 0.070848 0.170153
vt 0.092622 0.189456
vt 0.047364 0.181811
vt 0.096849 0.225589
vt 0.057609 0.227866
vt 0.149706 0.198184
vt 0.060563 0.134768
vt 0.048737 0.155871
vt 0.143030 0.196896
vt 0.165896 0.187198
vt 0.161669 0.222141
vt 0.148104 0.204105
vt 0.164203 0.213303
vt 0.106719 0.236939
vt 0.068661 0.130815
vt 0.062683 0.152832
vt 0.201053 0.101961
vt 0.225635 0.201953
vt 0.226261 0.210101
vt 0.106719 0.214225
vt 0.062043 0.192767
vt 0.105043 0.204517
vt 0.081605 0.201968
vt 0.086488 0.100389
vt 0.195209 0.231052
vt 0.065629 0.102113
vt 0.180575 0.113787
vt 0.163989 0.110079
vt 0.187320 0.107561
vt 0.164218 0.122164
vt 0.125856 0.222213
vt 0.083430 0.167862
vt 0.102029 0.195969
vt 0.177066 0.162158
vt 0.134813 0.181720
vt 0.128527 0.128725
vt 0.165774 0.086107
vt 0.206500 0.145113
vt 0.218326 0.147005
vt 0.112062 0.241688
vt 0.095055 0.151888
vt 0.115297 0.186816
vt 0.119066 0.199481
vt 0.202014 0.171344
vt 0.214160 0.170047
vt 0.101895 0.234155
vt 0.119356 0.225467
vt 0.101576 0.166756
vt 0.216190 0.132174
vt 0.075395 0.167117
vt 0.108003 0.243412
vt 0.189075 0.230793
vt 0.208530 0.135744
vt 0.200519 0.139269
vt 0.154467 0.263432
vt 0.159716 0.255787
vt 0.131472 0.094575
vt 0.188281 0.141970
vt 0.138598 0.196811
vt 0.320378 0.835569
vt 0.347219 0.810605
vt 0.331167 0.805173
vt 0.317647 0.824048
vt 0.331609 0.804395
vt 0.344991 0.810117
vt 0.322576 0.836561
vt 0.238483 0.824323
vt 0.245167 0.791638
vt 0.250050 0.789899
vt 0.233097 0.790570
vt 0.226291 0.814481
vt 0.201068 0.828077
vt 0.203113 0.823758
vt 0.209400 0.819989
vt 0.206470 0.827619
vt 0.226841 0.831571
vt 0.181064 0.826093
vt 0.152605 0.807675
vt 0.177890 0.823529
vt 0.171298 0.836133
vt 0.149599 0.810636
vt 0.162799 0.777050
vt 0.164401 0.804013
vt 0.170443 0.742992
vt 0.146304 0.772091
vt 0.204959 0.736706
vt 0.171939 0.750957
vt 0.201419 0.755184
vt 0.178225 0.760250
vt 0.205280 0.744167
vt 0.180835 0.758282
vt 0.225559 0.765911
vt 0.203922 0.755947
vt 0.236744 0.757000
vt 0.236820 0.756649
vt 0.223301 0.766934
vt 0.285634 0.840421
vt 0.312596 0.822766
vt 0.268116 0.831357
vt 0.262089 0.822461
vt 0.287404 0.840940
vt 0.270115 0.812848
vt 0.258808 0.821073
vt 0.289509 0.824964
vt 0.266316 0.831922
vt 0.266255 0.830304
vt 0.245106 0.790021
vt 0.255299 0.791409
vt 0.271397 0.815915
vt 0.260792 0.789761
vt 0.260594 0.755444
vt 0.274296 0.767391
vt 0.265965 0.791318
vt 0.269062 0.764858
vt 0.295216 0.746136
vt 0.292531 0.736736
vt 0.328038 0.747677
vt 0.319707 0.760159
vt 0.296284 0.757183
vt 0.346609 0.771221
vt 0.327398 0.744198
vt 0.316884 0.758648
vt 0.348898 0.774929
vt 0.335592 0.779706
vt 0.275486 0.837385
vt 0.279362 0.815625
vt 0.293172 0.828443
vt 0.277012 0.836652
vt 0.225635 0.831434
vt 0.218097 0.839292
vt 0.163546 0.803983
vt 0.230442 0.791333
vt 0.294041 0.753826
vt 0.330556 0.778698
vt 0.222965 0.814420
vt 0.275776 0.837263
vt 0.275822 0.839063
vt 0.328145 0.802884
vt 0.181476 0.819821
vt 0.167147 0.802472
vt 0.152163 0.775311
vt 0.163409 0.779477
vt 0.166873 0.779858
vt 0.180743 0.762493
vt 0.202289 0.758572
vt 0.221454 0.769879
vt 0.273320 0.811780
vt 0.267140 0.790600
vt 0.275837 0.769696
vt 0.295338 0.758831
vt 0.316533 0.763088
vt 0.329503 0.780499
vt 0.243992 0.845151
vt 0.242573 0.854841
vt 0.265904 0.832914
vt 0.275120 0.838727
vt 0.266239 0.834867
vt 0.264607 0.833570
vt 0.231281 0.851698
vt 0.244511 0.847044
vt 0.253498 0.853834
vt 0.105196 0.702083
vt 0.121981 0.706767
vt 0.106630 0.710414
vt 0.082872 0.712291
vt 0.108080 0.734508
vt 0.088914 0.734508
vt 0.077073 0.734508
vt 0.076249 0.744320
vt 0.091081 0.717433
vt 0.124712 0.711528
vt 0.127260 0.734508
vt 0.139116 0.734508
vt 0.133639 0.756497
vt 0.130556 0.751659
vt 0.105547 0.767300
vt 0.108217 0.751598
vt 0.092424 0.758358
vt 0.115755 0.757382
vt 0.138781 0.722408
vt 0.371252 0.702083
vt 0.388037 0.706767
vt 0.372702 0.710414
vt 0.348669 0.712428
vt 0.369360 0.725261
vt 0.351690 0.717372
vt 0.354986 0.734508
vt 0.374151 0.734508
vt 0.343130 0.734508
vt 0.342443 0.744839
vt 0.390799 0.711711
vt 0.393317 0.734508
vt 0.405173 0.734508
vt 0.399695 0.756497
vt 0.396597 0.751659
vt 0.371603 0.767300
vt 0.374273 0.751598
vt 0.358495 0.758358
vt 0.381811 0.757382
vt 0.404837 0.722408
vt 0.312718 0.181994
vt 0.215702 0.816205
vt 0.285420 0.819455
vt 0.221973 0.812436
vt 0.291478 0.823301
vt 0.313130 0.819776
vt 0.229221 0.791165
vt 0.225635 0.831434
vt 0.218097 0.839292
vt 0.226841 0.831571
vt 0.243992 0.845151
vt 0.242573 0.854841
vt 0.275822 0.839063
vt 0.275776 0.837263
vt 0.264607 0.833570
vt 0.265904 0.832914
vt 0.268116 0.831357
vt 0.266239 0.834867
vt 0.266316 0.831922
vt 0.266255 0.830304
vt 0.277012 0.836652
vt 0.275120 0.838727
vt 0.088914 0.734508
vt 0.108080 0.734508
vt 0.127260 0.734508
vt 0.354986 0.734508
vt 0.393317 0.734508
vt 0.273320 0.811780
vt 0.267140 0.790600
vt 0.279362 0.815625
vt 0.275837 0.769696
vt 0.295338 0.758831
vt 0.316533 0.763088
vt 0.329503 0.780499
vt 0.328145 0.802884
vt 0.203113 0.823758
vt 0.181476 0.819821
vt 0.209400 0.819989
vt 0.167147 0.802472
vt 0.166873 0.779858
vt 0.180743 0.762493
vt 0.202289 0.758572
vt 0.221454 0.769879
vt 0.042967 0.119854
vt 0.091338 0.124156
vt 0.111729 0.108835
vt 0.141174 0.133158
vt 0.138133 0.191751
vt 0.075199 0.103463
vt 0.059227 0.178652
vt 0.064888 0.205415
vt 0.099878 0.212691
vt 0.221153 0.105219
vt 0.049371 0.063722
vt 0.129211 0.109493
vt 0.114624 0.191612
vt 0.179144 0.178484
vt 0.170396 0.220867
vt 0.161072 0.162736
vt 0.177629 0.164550
vt 0.130591 0.183034
vt 0.174555 0.197186
vt 0.219182 0.094758
vt 0.105464 0.167820
vt 0.101758 0.180149
vt 0.111809 0.138121
vt 0.074072 0.173103
vt 0.059428 0.170280
vt 0.067832 0.125703
vt 0.078739 0.201673
vt 0.063282 0.203856
vt 0.058389 0.189150
vt 0.098650 0.196436
vt 0.100139 0.157207
vt 0.101541 0.133753
vt 0.079605 0.127301
vt 0.026508 0.188673
vt 0.072043 0.198446
vt 0.090296 0.113469
vt 0.110520 0.192616
vt 0.023159 0.166810
vt 0.019701 0.147818
vt 0.078013 0.108218
vt 0.040803 0.114733
vt 0.103124 0.178890
vt 0.081782 0.218950
vt 0.062930 0.198294
vt 0.087181 0.180453
vt 0.140293 0.149848
vt 0.180611 0.186287
vt 0.232536 0.114953
vt 0.059133 0.119487
vt 0.039335 0.119718
vt 0.033297 0.099145
vt 0.063397 0.057753
vt 0.086219 0.072646
vt 0.115914 0.059504
vt 0.118888 0.075810
vt 0.105542 0.059546
vt 0.175080 0.052790
vt 0.163752 0.053981
vt 0.154511 0.036190
vt 0.064365 0.067192
vt 0.072528 0.050056
vt 0.087281 0.055753
vt 0.146466 0.044699
vt 0.154397 0.052111
vt 0.128680 0.075237
vt 0.126986 0.053214
vt 0.136562 0.050869
vt 0.106869 0.076078
vt 0.143429 0.059167
vt 0.062893 0.085290
vt 0.071506 0.079031
vt 0.072800 0.091489
vt 0.080502 0.091445
vt 0.072337 0.095805
vt 0.115043 0.071569
vt 0.108065 0.066273
vt 0.072090 0.133526
vt 0.063861 0.112576
vt 0.102584 0.044933
vt 0.052572 0.085925
vt 0.054692 0.108207
vt 0.115350 0.194735
vt 0.220102 0.119922
vt 0.083465 0.071185
vt 0.208835 0.146047
vt 0.190045 0.193392
vt 0.165221 0.200715
vt 0.194133 0.186172
vt 0.145149 0.168611
vt 0.212873 0.108961
vt 0.090829 0.089280
vt 0.101723 0.084491
vn 0.274011 0.155706 0.949038
vn 0.274011 0.155706 0.949038
vn 0.274011 0.155706 0.949038
vn -0.250695 0.049899 0.966779
vn -0.250695 0.049899 0.966779
vn -0.250695 0.049899 0.966779
vn -0.322394 -0.850985 -0.414593
vn -0.322394 -0.850985 -0.414593
vn -0.322394 -0.850985 -0.414593
vn -0.751204 -0.659703 -0.022000
vn -0.751204 -0.659703 -0.022000
vn -0.751204 -0.659703 -0.022000
vn -0.752011 -0.391206 0.530508
vn -0.752011 -0.391206 0.530508
vn -0.890503 -0.386901 -0.239401
vn -0.890503 -0.386901 -0.239401
vn -0.890503 -0.386901 -0.239401
vn 0.315412 -0.859733 -0.401715
vn 0.315412 -0.859733 -0.401715
vn 0.330697 -0.869793 -0.366197
vn 0.330697 -0.869793 -0.366197
vn 0.330697 -0.869793 -0.366197
vn -0.333191 -0.866075 -0.372689
vn -0.333191 -0.866075 -0.372689
vn -0.744573 -0.667176 -0.022099
vn 0.890690 -0.404495 -0.207498
vn 0.890690 -0.404495 -0.207498
vn 0.890690 -0.404495 -0.207498
vn 0.339597 0.074799 0.937592
vn 0.339597 0.074799 0.937592
vn 0.339597 0.074799 0.937592
vn -0.020000 -0.780117 0.625314
vn -0.020000 -0.780117 0.625314
vn -0.020000 -0.780117 0.625314
vn -0.228604 -0.530908 0.816013
vn -0.228604 -0.530908 0.816013
vn 0.492913 -0.847922 0.195105
vn 0.492913 -0.847922 0.195105
vn 0.492913 -0.847922 0.195105
vn 0.861036 -0.140606 0.488720
vn -0.369281 0.037698 0.928553
vn 0.727994 -0.685495 0.011000
vn -0.190707 0.512519 -0.837231
vn 0.970182 -0.037899 0.239396
vn -0.312901 -0.262801 0.912704
vn 0.350698 -0.338698 0.873095
vn -0.469506 -0.619608 -0.629008
vn 0.283692 -0.214694 0.934572
vn 0.023799 -0.999572 -0.017000
vn -0.347482 -0.913153 0.213089
vn -0.024799 -0.890056 0.455177
vn 0.357601 0.583301 0.729302
vn 0.357601 0.583301 0.729302
vn 0.391293 -0.225996 -0.892085
vn 0.391293 -0.225996 -0.892085
vn 0.264704 -0.350405 0.898414
vn 0.264704 -0.350405 0.898414
vn 0.264704 -0.350405 0.898414
vn -0.183901 -0.646402 0.740503
vn -0.183901 -0.646402 0.740503
vn -0.183901 -0.646402 0.740503
vn -0.285194 -0.264395 0.921282
vn -0.285194 -0.264395 0.921282
vn -0.285194 -0.264395 0.921282
vn 0.126803 -0.924525 0.359410
vn 0.126803 -0.924525 0.359410
vn 0.126803 -0.924525 0.359410
vn -0.619177 -0.560679 0.549780
vn -0.619177 -0.560679 0.549780
vn -0.619177 -0.560679 0.549780
vn -0.298597 -0.731993 -0.612394
vn -0.298597 -0.731993 -0.612394
vn -0.298597 -0.731993 -0.612394
vn -0.052998 -0.823266 -0.565177
vn -0.052998 -0.823266 -0.565177
vn -0.766278 0.616782 -0.179995
vn -0.766278 0.616782 -0.179995
vn -0.766278 0.616782 -0.179995
vn -0.384780 0.908753 0.161592
vn -0.384780 0.908753 0.161592
vn -0.384780 0.908753 0.161592
vn 0.628109 0.243603 0.739011
vn 0.628109 0.243603 0.739011
vn 0.628109 0.243603 0.739011
vn -0.364702 -0.721403 -0.588702
vn -0.364702 -0.721403 -0.588702
vn -0.321783 -0.304384 0.896552
vn -0.321783 -0.304384 0.896552
vn -0.321783 -0.304384 0.896552
vn 0.447291 0.421792 0.788684
vn 0.447291 0.421792 0.788684
vn 0.038000 -0.998897 -0.027600
vn 0.038000 -0.998897 -0.027600
vn 0.038000 -0.998897 -0.027600
vn -0.581572 -0.684567 -0.439479
vn -0.581572 -0.684567 -0.439479
vn -0.581572 -0.684567 -0.439479
vn -0.084997 -0.868872 -0.487685
vn -0.084997 -0.868872 -0.487685
vn -0.084997 -0.868872 -0.487685
vn 0.028301 0.165403 -0.985820
vn 0.028301 0.165403 -0.985820
vn 0.028301 0.165403 -0.985820
vn 0.848636 0.483221 -0.215209
vn 0.848636 0.483221 -0.215209
vn 0.848636 0.483221 -0.215209
vn 0.609141 0.422029 -0.671445
vn 0.609141 0.422029 -0.671445
vn 0.609141 0.422029 -0.671445
vn -0.856042 -0.013701 -0.516725
vn -0.856042 -0.013701 -0.516725
vn 0.331603 0.612906 0.717207
vn 0.331603 0.612906 0.717207
vn -0.913611 -0.021800 0.406005
vn -0.913611 -0.021800 0.406005
vn -0.913611 -0.021800 0.406005
vn 0.911587 -0.237597 -0.335495
vn 0.911587 -0.237597 -0.335495
vn -0.916802 -0.253700 -0.308401
vn 0.418613 -0.619119 -0.664421
vn 0.418613 -0.619119 -0.664421
vn 0.337999 -0.346099 0.875198
vn -0.635989 0.228196 0.737187
vn 0.890527 -0.390012 0.234207
vn 0.890527 -0.390012 0.234207
vn 0.890527 -0.390012 0.234207
vn -0.207590 -0.807061 0.552773
vn -0.207590 -0.807061 0.552773
vn -0.207590 -0.807061 0.552773
vn 0.522405 0.210102 0.826408
vn -0.640673 0.767767 -0.008500
vn -0.640673 0.767767 -0.008500
vn -0.219606 0.909326 0.353410
vn -0.219606 0.909326 0.353410
vn -0.310707 0.779918 -0.543313
vn -0.582975 -0.450481 0.676171
vn -0.582975 -0.450481 0.676171
vn 0.076699 -0.832892 -0.548095
vn -0.275685 -0.211925 0.937596
vn -0.206870 -0.895601 0.393832
vn -0.195102 -0.847810 0.493106
vn -0.275100 -0.143800 0.950601
vn 0.318997 -0.413096 0.852991
vn 0.318997 -0.413096 0.852991
vn 0.318997 -0.413096 0.852991
vn -0.635311 -0.714512 -0.293005
vn -0.913715 -0.021100 0.405807
vn -0.674294 -0.710893 0.199898
vn -0.543104 0.071601 0.836607
vn -0.543104 0.071601 0.836607
vn -0.543104 0.071601 0.836607
vn -0.836498 0.506999 -0.207900
vn 0.253003 -0.844009 0.472905
vn 0.146399 -0.623497 0.767996
vn 0.169197 0.736186 -0.655288
vn 0.169197 0.736186 -0.655288
vn 0.169197 0.736186 -0.655288
vn 0.217788 0.492273 -0.842755
vn 0.217788 0.492273 -0.842755
vn -0.825108 -0.547405 -0.139801
vn 0.343308 -0.364709 0.865521
vn 0.553796 0.249498 0.794394
vn -0.956024 -0.012800 -0.293008
vn 0.544806 0.804609 -0.236203
vn 0.544806 0.804609 -0.236203
vn 0.544806 0.804609 -0.236203
vn -0.918654 0.262416 0.295317
vn -0.918654 0.262416 0.295317
vn -0.639085 0.224695 -0.735583
vn -0.639085 0.224695 -0.735583
vn -0.338397 0.707793 0.620094
vn 0.777818 -0.131803 0.614514
vn 0.777818 -0.131803 0.614514
vn 0.511181 0.439383 -0.738672
vn -0.056899 -0.839292 -0.540695
vn -0.354780 0.249486 0.901048
vn -0.317000 -0.309800 0.896401
vn 0.782684 -0.380992 0.492190
vn -0.120595 -0.906560 -0.404482
vn 0.609489 -0.780586 -0.138597
vn -0.050899 0.915888 0.398195
vn -0.050899 0.915888 0.398195
vn -0.050899 0.915888 0.398195
vn 0.413396 0.908292 -0.064099
vn -0.514324 -0.109005 -0.850640
vn -0.514324 -0.109005 -0.850640
vn -0.514324 -0.109005 -0.850640
vn 0.052099 0.986176 0.157296
vn 0.052099 0.986176 0.157296
vn 0.106703 0.951725 0.287808
vn -0.283591 -0.958669 -0.022999
vn 0.620023 -0.782130 -0.062002
vn 0.620023 -0.782130 -0.062002
vn -0.662890 -0.707290 -0.245596
vn -0.609513 0.206104 0.765516
vn 0.526318 0.803728 -0.277510
vn 0.526318 0.803728 -0.277510
vn 0.785380 0.429789 0.445489
vn 0.785380 0.429789 0.445489
vn -0.137395 -0.038599 -0.989764
vn 0.550997 0.832096 -0.063400
vn -0.151401 0.977009 -0.150101
vn -0.343307 -0.755415 0.558111
vn 0.147195 -0.622477 0.768672
vn 0.781088 -0.064399 -0.621091
vn 0.976898 0.199700 -0.076100
vn 0.402299 0.504898 0.763697
vn 0.185593 0.523180 0.831768
vn 0.841752 0.515232 -0.161210
vn 0.981561 -0.107296 0.158194
vn 0.364107 -0.672714 -0.644113
vn -0.007000 0.997437 -0.071203
vn 0.394905 0.732510 -0.554508
vn 0.039699 0.045698 -0.998166
vn 0.039699 0.045698 -0.998166
vn 0.039699 0.045698 -0.998166
vn 0.214205 0.033301 0.976221
vn 0.214205 0.033301 0.976221
vn 0.214205 0.033301 0.976221
vn 0.767702 0.599102 0.227401
vn 0.855788 0.281096 0.434294
vn 0.855788 0.281096 0.434294
vn 0.855788 0.281096 0.434294
vn 0.255198 -0.100099 -0.961693
vn 0.255198 -0.100099 -0.961693
vn -0.554684 -0.743778 0.372989
vn -0.554684 -0.743778 0.372989
vn -0.554684 -0.743778 0.372989
vn 0.319497 0.059900 -0.945692
vn 0.319497 0.059900 -0.945692
vn 0.303211 0.120804 -0.945235
vn -0.338481 0.244886 0.908549
vn -0.338481 0.244886 0.908549
vn -0.338481 0.244886 0.908549
vn -0.146803 0.380108 -0.913218
vn -0.001500 0.024800 -0.999691
vn -0.001500 0.024800 -0.999691
vn -0.110796 -0.302888 -0.946564
vn -0.110796 -0.302888 -0.946564
vn -0.372309 -0.653516 0.659016
vn -0.372309 -0.653516 0.659016
vn -0.241794 0.251094 0.937277
vn -0.241794 0.251094 0.937277
vn 0.113995 -0.227591 -0.967061
vn 0.113995 -0.227591 -0.967061
vn 0.109203 0.113403 -0.987529
vn 0.109203 0.113403 -0.987529
vn 0.453800 -0.706399 -0.543200
vn -0.117994 -0.065497 0.990852
vn -0.117994 -0.065497 0.990852
vn -0.246898 -0.093799 -0.964491
vn -0.246898 -0.093799 -0.964491
vn -0.340007 0.802917 0.489611
vn -0.340007 0.802917 0.489611
vn -0.340007 0.802917 0.489611
vn -0.267898 -0.162799 -0.949593
vn -0.267898 -0.162799 -0.949593
vn -0.267898 -0.162799 -0.949593
vn -0.592475 0.726169 -0.348785
vn -0.592475 0.726169 -0.348785
vn -0.880487 0.393494 0.264396
vn 0.197295 0.224994 0.954176
vn 0.197295 0.224994 0.954176
vn -0.230900 -0.111200 -0.966602
vn -0.467198 -0.091600 0.879395
vn 0.413803 0.255402 0.873806
vn 0.413803 0.255402 0.873806
vn -0.502805 -0.180202 -0.845408
vn 0.085400 -0.009700 0.996300
vn -0.517690 -0.515690 -0.682687
vn 0.287207 -0.623315 0.727317
vn 0.188796 0.343494 0.919983
vn 0.188796 0.343494 0.919983
vn -0.166003 -0.286405 -0.943618
vn -0.166003 -0.286405 -0.943618
vn -0.166003 -0.286405 -0.943618
vn 0.370290 0.118897 0.921276
vn 0.370290 0.118897 0.921276
vn -0.306696 -0.776889 -0.549892
vn -0.433387 0.867775 -0.243193
vn 0.346203 -0.824007 -0.448504
vn 0.346203 -0.824007 -0.448504
vn 0.597505 -0.664705 0.448503
vn -0.570007 0.808510 -0.146302
vn 0.351612 0.341512 0.871630
vn -0.253514 0.377221 0.890750
vn -0.139000 -0.098300 0.985401
vn -0.336890 0.138696 0.931273
vn -0.288494 -0.350093 -0.891182
vn -0.245998 -0.110999 -0.962894
vn -0.306696 -0.776889 -0.549892
vn -0.221512 0.003500 0.975151
vn 0.346203 -0.824007 -0.448504
vn 0.871793 0.421697 -0.249298
vn 0.871793 0.421697 -0.249298
vn 0.871793 0.421697 -0.249298
vn -0.695100 -0.673300 -0.252000
vn -0.397774 -0.428172 0.811446
vn -0.699132 -0.326815 -0.635929
vn -0.009500 -0.790715 0.612111
vn 0.517489 -0.535788 0.667185
vn -0.842407 0.051200 0.536404
vn -0.094795 0.035898 0.994849
vn 0.736132 0.023501 0.676430
vn 0.534508 0.585908 0.609109
vn 0.033500 0.880589 0.472694
vn -0.508017 0.738925 0.442615
vn 0.589890 -0.587190 0.554290
vn 0.946614 -0.217103 0.238303
vn 0.890221 0.347608 0.294407
vn 0.506024 0.841240 0.190409
vn 0.001400 0.891001 0.454000
vn -0.457588 0.592285 0.663183
vn -0.122694 -0.251487 -0.960052
vn -0.122694 -0.251487 -0.960052
vn 0.329109 -0.893025 -0.306909
vn 0.329109 -0.893025 -0.306909
vn 0.513197 -0.749995 0.417297
vn -0.151901 -0.351702 -0.923705
vn -0.340086 0.299388 0.891464
vn -0.340086 0.299388 0.891464
vn -0.340086 0.299388 0.891464
vn 0.593207 -0.804910 -0.015000
vn 0.593207 -0.804910 -0.015000
vn -0.512219 0.784029 -0.350613
vn 0.099997 0.151596 0.983371
vn 0.099997 0.151596 0.983371
vn 0.512694 0.744691 -0.427295
vn 0.512694 0.744691 -0.427295
vn -0.489909 -0.871616 0.016600
vn -0.489909 -0.871616 0.016600
vn 0.323492 0.017100 0.946076
vn 0.323492 0.017100 0.946076
vn -0.848379 -0.469288 0.244994
vn -0.848379 -0.469288 0.244994
vn 0.817690 0.496694 -0.290996
vn 0.588196 0.792794 -0.159699
vn 0.000200 -0.970844 0.239711
vn 0.000200 -0.970844 0.239711
vn 0.000200 -0.970844 0.239711
vn -0.256888 -0.935655 0.241988
vn -0.296983 -0.276584 0.913949
vn -0.296983 -0.276584 0.913949
vn -0.967364 -0.240991 -0.078297
vn -0.967364 -0.240991 -0.078297
vn -0.303414 -0.189909 -0.933742
vn -0.303414 -0.189909 -0.933742
vn -0.303414 -0.189909 -0.933742
vn 0.780990 -0.260997 -0.567393
vn 0.780990 -0.260997 -0.567393
vn 0.780990 -0.260997 -0.567393
vn 0.474196 0.847893 -0.237098
vn 0.474196 0.847893 -0.237098
vn 0.474196 0.847893 -0.237098
vn 0.329203 0.746606 -0.578105
vn -0.617205 0.786006 -0.035400
vn -0.004500 0.959404 0.282001
vn 0.632885 0.398890 0.663584
vn 0.862627 0.168605 0.476915
vn 0.000200 -0.970844 0.239711
vn 0.000200 -0.970844 0.239711
vn 0.000200 -0.970844 0.239711
vn -0.262604 -0.934115 0.241804
vn -0.524893 -0.354595 -0.773789
vn -0.524893 -0.354595 -0.773789
vn -0.524893 -0.354595 -0.773789
vn -0.296983 -0.276584 0.913949
vn -0.296983 -0.276584 0.913949
vn -0.969477 -0.229494 -0.086298
vn -0.969477 -0.229494 -0.086298
vn 0.782248 -0.255116 -0.568335
vn 0.782248 -0.255116 -0.568335
vn 0.782248 -0.255116 -0.568335
vn 0.474196 0.847893 -0.237098
vn 0.474196 0.847893 -0.237098
vn 0.474196 0.847893 -0.237098
vn 0.329203 0.746606 -0.578105
vn -0.610506 0.791408 -0.030900
vn -0.004500 0.959404 0.282001
vn 0.632885 0.398890 0.663584
vn 0.862612 0.168702 0.476907
vn 0.274011 0.155706 0.949038
vn 0.274011 0.155706 0.949038
vn 0.274011 0.155706 0.949038
vn 0.274011 0.155706 0.949038
vn 0.274011 0.155706 0.949038
vn 0.274011 0.155706 0.949038
vn 0.274011 0.155706 0.949038
vn 0.274011 0.155706 0.949038
vn -0.250695 0.049899 0.966779
vn -0.250695 0.049899 0.966779
vn -0.250695 0.049899 0.966779
vn -0.250695 0.049899 0.966779
vn -0.250695 0.049899 0.966779
vn -0.250695 0.049899 0.966779
vn -0.250695 0.049899 0.966779
vn -0.250695 0.049899 0.966779
vn -0.356121 0.607236 0.710242
f 1/1/1 2/2/2 3/3/3
f 4/4/4 5/5/5 6/6/6
f 7/7/7 8/8/8 9/9/9
f 10/10/10 11/11/11 12/12/12
f 12/12/12 13/13/13 14/14/14
f 15/15/15 16/16/16 17/17/17
f 18/18/18 19/19/19 8/8/8
f 20/20/20 21/21/21 22/22/22
f 11/11/11 23/23/23 24/24/24
f 10/10/10 12/12/12 14/14/14
f 12/12/12 11/11/11 25/25/25
f 26/26/26 27/27/27 28/28/28
f 14/14/14 16/16/16 10/10/10
f 29/29/29 30/30/30 31/31/31
f 32/32/32 33/33/33 34/34/34
f 25/25/25 24/24/24 33/33/33
f 13/13/13 35/35/35 36/36/36
f 37/37/37 38/38/38 39/39/39
f 29/29/29 28/28/28 40/40/40
f 31/31/31 41/41/41 14/14/14
f 38/38/38 42/42/42 39/39/39
f 10/10/10 15/15/15 11/11/11
f 7/7/7 43/43/43 8/8/8
f 9/9/9 33/33/33 24/24/24
f 19/19/19 32/32/32 44/44/44
f 44/44/44 34/34/34 45/45/45
f 45/45/45 9/9/9 8/8/8
f 45/45/45 19/19/19 44/44/44
f 46/46/46 34/34/34 33/33/33
f 9/9/9 23/23/23 7/7/7
f 19/19/19 21/21/21 20/20/20
f 38/38/38 20/20/20 22/22/22
f 18/18/18 43/43/43 21/21/21
f 26/26/26 42/42/42 22/22/22
f 47/47/47 43/43/43 23/23/23
f 26/26/26 22/22/22 21/21/21
f 48/48/48 31/31/31 36/36/36
f 49/49/49 33/33/33 32/32/32
f 48/48/48 42/42/42 29/29/29
f 36/36/36 14/14/14 13/13/13
f 50/50/50 25/25/25 49/49/49
f 50/50/50 37/37/37 51/51/51
f 36/36/36 51/51/51 48/48/48
f 50/50/50 13/13/13 12/12/12
f 49/49/49 25/25/25 33/33/33
f 51/51/51 39/39/39 48/48/48
f 52/52/52 40/40/40 53/53/53
f 52/52/52 41/41/41 30/30/30
f 26/26/26 54/54/54 55/55/55
f 56/56/56 57/57/57 58/58/58
f 59/59/59 60/60/60 61/61/61
f 62/62/62 63/63/63 64/64/64
f 65/65/65 66/66/66 67/67/67
f 68/68/68 69/69/69 70/94/70
f 71/71/71 72/72/72 73/73/73
f 56/75/56 74/84/74 75/124/75
f 76/76/76 77/78/77 78/135/78
f 79/79/79 80/80/80 81/81/81
f 82/125/82 83/126/83 84/130/84
f 85/85/85 86/86/86 72/72/72
f 87/87/87 88/88/88 89/89/89
f 90/90/90 91/91/91 62/62/62
f 92/465/92 93/466/93 94/467/94
f 95/96/95 96/97/96 97/111/97
f 98/98/98 99/99/99 100/100/100
f 101/101/101 102/102/102 103/103/103
f 104/104/104 105/105/105 106/106/106
f 107/107/107 108/108/108 109/109/109
f 110/110/110 111/146/111 95/396/95
f 98/167/98 96/97/96 101/168/101
f 112/112/112 62/62/62 113/113/113
f 114/114/114 115/115/115 116/116/116
f 117/117/117 118/118/118 56/56/56
f 69/69/69 119/468/119 114/469/114
f 120/120/120 85/85/85 121/121/121
f 85/85/85 71/71/71 121/121/121
f 88/88/88 122/122/122 89/89/89
f 86/470/86 119/468/119 72/471/72
f 62/62/62 95/95/95 123/123/123
f 124/74/124 125/132/125 126/406/126
f 127/127/127 128/128/128 129/129/129
f 121/449/121 127/450/127 120/451/120
f 84/130/84 83/126/83 130/136/130
f 118/444/118 82/445/82 84/446/84
f 79/79/79 81/81/81 77/77/77
f 131/165/131 77/166/77 132/413/132
f 133/133/133 80/80/80 134/134/134
f 78/135/78 81/183/81 135/185/135
f 136/137/136 137/405/137 130/136/130
f 56/75/56 75/124/75 138/407/138
f 118/444/118 74/447/74 56/448/56
f 396/82/139 397/83/140 139/139/141
f 140/140/142 396/82/139 139/139/141
f 141/141/143 142/142/144 143/143/145
f 143/452/145 142/453/144 72/454/72
f 69/69/69 94/467/94 93/466/93
f 67/67/67 144/144/146 116/116/116
f 114/469/114 116/472/116 145/473/147
f 146/397/148 57/398/57 138/399/138
f 147/147/149 148/148/150 149/193/151
f 150/477/152 149/193/151 148/148/150
f 58/58/58 57/57/57 151/151/153
f 64/64/64 63/63/63 152/152/154
f 145/145/147 116/116/116 144/144/146
f 69/69/69 114/469/114 94/467/94
f 153/153/155 154/154/156 155/155/157
f 156/157/158 157/172/159 155/198/157
f 119/119/119 86/86/86 158/158/160
f 122/122/122 88/88/88 159/159/161
f 90/90/90 160/160/162 122/122/122
f 114/114/114 119/119/119 115/115/115
f 138/399/138 161/400/163 110/110/110
f 162/162/164 163/163/165 164/164/166
f 163/163/165 106/106/106 105/105/105
f 161/408/163 165/409/167 166/410/168
f 167/184/169 111/416/111 168/417/170
f 105/105/105 107/107/107 109/109/109
f 140/140/142 129/478/129 169/480/171
f 146/397/148 138/399/138 110/110/110
f 146/397/148 110/110/110 95/396/95
f 70/70/70 170/170/172 171/171/173
f 138/407/138 136/137/136 165/409/167
f 96/97/96 167/184/169 101/168/101
f 108/429/108 102/102/102 172/430/174
f 173/431/175 98/98/98 100/100/100
f 97/111/97 96/97/96 98/167/98
f 97/111/97 123/418/123 95/96/95
f 91/91/91 90/90/90 122/122/122
f 112/112/112 90/90/90 62/62/62
f 174/174/176 112/112/112 113/113/113
f 175/175/177 87/87/87 89/89/89
f 115/115/115 87/87/87 175/175/177
f 117/117/117 122/122/122 159/159/161
f 116/116/116 115/115/115 174/174/176
f 115/115/115 175/175/177 174/174/176
f 91/91/91 117/117/117 56/56/56
f 122/122/122 117/117/117 91/91/91
f 117/117/117 159/159/161 176/176/178
f 119/119/119 158/158/160 115/115/115
f 71/71/71 85/85/85 72/72/72
f 158/158/160 87/87/87 115/115/115
f 89/89/89 122/122/122 160/160/162
f 124/74/124 84/446/84 125/132/125
f 62/62/62 91/91/91 95/95/95
f 68/68/68 70/94/70 143/474/145
f 72/471/72 68/68/68 143/474/145
f 124/74/124 118/444/118 84/446/84
f 114/469/114 92/465/92 94/467/94
f 114/469/114 177/475/179 92/465/92
f 95/95/95 178/178/180 151/151/153
f 95/95/95 91/91/91 178/178/180
f 79/79/79 134/134/134 80/80/80
f 179/481/181 180/482/182 181/483/183
f 182/182/184 180/180/182 179/179/181
f 183/200/185 184/419/186 185/426/187
f 131/131/131 79/79/79 77/77/77
f 182/182/184 186/186/188 187/187/189
f 133/133/133 188/188/190 80/80/80
f 186/186/188 162/162/164 187/187/189
f 136/137/136 75/124/75 137/405/137
f 82/455/82 118/456/118 189/457/191
f 140/140/142 139/139/141 129/478/129
f 190/458/192 72/454/72 191/459/193
f 72/454/72 142/453/144 191/459/193
f 141/141/143 129/129/129 128/128/128
f 128/460/128 71/461/71 73/462/73
f 73/73/73 72/72/72 190/190/192
f 116/116/116 192/192/194 67/67/67
f 62/62/62 123/123/123 63/63/63
f 174/174/176 113/113/113 61/61/61
f 113/113/113 59/59/59 61/61/61
f 113/113/113 173/173/175 59/59/59
f 151/151/153 178/178/180 58/58/58
f 56/56/56 138/138/138 57/57/57
f 146/397/148 95/396/95 151/401/153
f 146/397/148 151/401/153 57/398/57
f 126/415/126 125/443/125 137/405/137
f 193/484/195 147/147/149 149/193/151
f 150/150/152 133/133/133 134/134/134
f 134/134/134 149/149/151 150/150/152
f 139/463/141 397/479/140 120/451/120
f 77/78/77 81/183/81 78/135/78
f 154/154/156 194/194/196 195/195/197
f 196/196/198 197/197/199 106/106/106
f 165/409/167 83/126/83 166/410/168
f 198/420/200 101/168/101 167/184/169
f 168/402/170 111/146/111 110/110/110
f 163/163/165 162/162/164 106/106/106
f 165/409/167 161/408/163 138/407/138
f 156/157/158 108/429/108 172/430/174
f 98/167/98 173/421/175 97/111/97
f 185/426/187 76/76/76 183/200/185
f 199/199/201 164/164/166 163/163/165
f 184/422/186 155/423/157 157/424/159
f 135/185/135 200/437/202 78/135/78
f 118/118/118 120/120/120 189/189/191
f 201/464/203 128/460/128 73/462/73
f 128/128/128 201/201/203 141/141/143
f 93/466/93 70/94/70 69/69/69
f 70/70/70 93/93/93 170/170/172
f 152/152/154 202/202/204 64/64/64
f 150/477/152 148/148/150 147/147/149
f 193/484/195 181/483/183 147/147/149
f 74/447/74 124/74/124 126/406/126
f 188/188/190 182/182/184 187/187/189
f 136/137/136 138/407/138 75/124/75
f 153/438/155 135/185/135 81/183/81
f 134/134/134 131/131/131 149/149/151
f 81/81/81 80/80/80 188/188/190
f 184/419/186 200/437/202 155/439/157
f 139/139/141 127/485/127 129/478/129
f 176/176/178 159/159/161 87/87/87
f 112/112/112 175/175/177 89/89/89
f 157/172/159 172/430/174 198/432/200
f 107/107/107 203/203/205 108/108/108
f 96/97/96 111/416/111 167/184/169
f 104/104/104 204/204/206 105/105/105
f 76/440/76 161/441/163 132/413/132
f 193/484/195 169/480/171 181/483/183
f 196/196/198 205/205/207 197/197/199
f 156/156/158 109/109/109 108/108/108
f 184/422/186 168/417/170 185/425/187
f 149/414/151 166/411/168 83/412/83
f 197/197/199 104/104/104 106/106/106
f 132/413/132 166/442/168 131/165/131
f 157/424/159 167/184/169 184/422/186
f 163/163/165 109/109/109 199/199/201
f 169/169/171 206/206/208 181/181/183
f 169/169/171 141/141/143 205/205/207
f 205/205/207 143/143/145 197/197/199
f 140/140/142 149/193/151 83/486/83
f 110/110/110 185/403/187 168/402/170
f 196/196/198 162/162/164 186/186/188
f 102/102/102 203/433/205 103/103/103
f 103/103/103 192/434/194 99/99/99
f 103/103/103 98/98/98 101/101/101
f 143/143/145 171/171/173 104/104/104
f 204/204/206 170/170/172 177/177/179
f 165/409/167 130/136/130 83/126/83
f 105/105/105 207/207/209 107/107/107
f 207/207/209 177/177/179 208/208/210
f 203/203/205 208/208/210 192/192/194
f 198/432/200 102/102/102 101/101/101
f 192/434/194 100/100/100 99/99/99
f 90/90/90 89/89/89 160/160/162
f 68/68/68 119/468/119 69/69/69
f 85/85/85 118/118/118 209/209/211
f 118/118/118 176/176/178 209/209/211
f 125/443/125 130/136/130 137/405/137
f 192/192/194 174/174/176 60/60/60
f 59/435/59 100/100/100 60/436/60
f 121/449/121 128/460/128 127/450/127
f 152/152/154 113/113/113 202/202/204
f 66/476/66 114/469/114 145/473/147
f 183/200/185 78/135/78 200/437/202
f 182/182/184 210/210/212 186/186/188
f 132/413/132 77/166/77 76/440/76
f 179/179/181 206/206/208 210/210/212
f 210/210/212 196/196/198 186/186/188
f 194/194/196 211/211/213 195/195/197
f 155/439/157 200/437/202 135/185/135
f 164/164/166 195/195/197 211/211/213
f 195/195/197 156/156/158 154/154/156
f 211/211/213 162/162/164 164/164/166
f 154/154/156 156/156/158 155/155/157
f 201/464/203 190/458/192 191/459/193
f 120/451/120 82/455/82 189/457/191
f 191/191/193 141/141/143 201/201/203
f 92/92/92 170/170/172 93/93/93
f 67/67/67 145/145/147 144/144/146
f 192/192/194 65/65/65 67/67/67
f 66/66/66 208/208/210 177/177/179
f 63/427/63 97/111/97 152/428/154
f 202/202/204 62/62/62 64/64/64
f 97/111/97 173/421/175 152/428/154
f 58/58/58 91/91/91 56/56/56
f 174/174/176 61/61/61 60/60/60
f 75/124/75 126/415/126 137/405/137
f 180/482/182 147/147/149 181/483/183
f 180/180/182 133/133/133 150/150/152
f 212/212/214 213/213/215 214/214/216
f 215/215/217 216/216/218 217/217/219
f 213/213/215 218/218/220 217/217/219
f 219/219/221 220/220/222 221/221/223
f 222/222/224 223/223/225 221/221/223
f 224/224/226 225/225/227 226/226/228
f 227/227/229 228/228/230 223/223/225
f 229/229/231 228/228/230 227/227/229
f 230/230/232 231/231/233 232/232/234
f 233/233/235 232/232/234 229/229/231
f 234/234/236 233/233/235 235/235/237
f 236/236/238 237/237/239 234/234/236
f 236/236/238 238/238/240 239/239/241
f 239/239/241 240/240/242 241/241/243
f 242/242/244 236/236/238 243/243/245
f 244/244/246 242/242/244 245/245/247
f 246/246/248 238/238/240 242/242/244
f 247/247/249 220/220/222 248/248/250
f 221/221/223 246/246/248 244/244/246
f 221/221/223 247/247/249 246/246/248
f 249/249/251 212/212/214 250/250/252
f 251/251/253 252/252/254 253/253/255
f 254/254/256 255/255/257 256/256/258
f 255/255/257 257/257/259 258/258/260
f 255/255/257 259/259/261 252/252/254
f 252/252/254 260/260/262 261/261/263
f 262/262/264 255/255/257 254/254/256
f 259/259/261 263/263/265 260/260/262
f 264/264/266 265/265/267 260/260/262
f 266/266/268 259/259/261 262/262/264
f 267/267/269 264/264/266 263/263/265
f 268/268/270 263/263/265 266/266/268
f 268/268/270 269/269/271 267/267/269
f 270/270/272 271/271/273 267/267/269
f 272/272/274 273/273/275 274/274/276
f 275/275/277 217/217/219 276/276/278
f 223/223/225 228/228/230 219/219/221
f 226/226/228 223/223/225 277/354/279
f 224/224/226 226/226/228 277/354/279
f 249/249/251 278/277/280 253/253/255
f 255/255/257 258/258/260 249/249/251
f 256/256/258 255/255/257 249/249/251
f 279/278/281 256/256/258 280/355/282
f 281/279/283 279/278/281 280/355/282
f 251/251/253 253/253/255 282/280/284
f 212/212/214 218/218/220 213/213/215
f 214/214/216 250/250/252 212/212/214
f 217/217/219 218/218/220 215/215/217
f 220/220/222 219/219/221 283/281/285
f 221/221/223 223/223/225 219/219/221
f 283/281/285 284/282/286 224/224/226
f 233/233/235 230/230/232 232/232/234
f 231/231/233 230/230/232 285/283/287
f 235/235/237 233/233/235 229/229/231
f 233/233/235 234/234/236 237/237/239
f 234/234/236 243/243/245 236/236/238
f 238/238/240 240/240/242 239/239/241
f 245/245/247 242/242/244 243/243/245
f 242/242/244 238/238/240 236/236/238
f 244/244/246 246/246/248 242/242/244
f 246/246/248 247/247/249 238/238/240
f 247/247/249 221/221/223 220/220/222
f 220/220/222 286/284/288 248/248/250
f 222/222/224 221/221/223 244/244/246
f 256/256/258 249/249/251 250/250/252
f 259/259/261 260/260/262 252/252/254
f 261/261/263 260/260/262 265/265/267
f 262/262/264 259/259/261 255/255/257
f 263/263/265 264/264/266 260/260/262
f 259/259/261 266/266/268 263/263/265
f 263/263/265 268/268/270 267/267/269
f 267/267/269 271/271/273 264/264/266
f 266/266/268 287/285/289 268/268/270
f 273/273/275 269/269/271 268/268/270
f 269/269/271 270/270/272 267/267/269
f 288/286/290 272/272/274 274/274/276
f 217/217/219 216/216/218 276/276/278
f 272/272/274 214/214/216 213/213/215
f 289/356/291 277/354/279 223/223/225
f 283/281/285 224/224/226 290/287/292
f 228/228/230 283/281/285 219/219/221
f 291/357/293 280/355/282 256/256/258
f 281/279/283 280/355/282 291/357/293
f 278/277/280 282/280/284 253/253/255
f 292/288/294 278/277/295 293/289/296
f 214/214/216 294/358/297 250/250/252
f 295/290/298 215/215/217 294/358/297
f 220/220/222 290/287/292 286/284/288
f 289/356/291 286/284/288 290/287/292
f 289/356/291 222/222/224 296/359/299
f 226/226/228 227/227/229 223/223/225
f 224/224/226 232/232/234 231/231/233
f 224/224/226 297/291/300 225/225/227
f 225/225/227 229/229/231 227/227/229
f 284/282/286 229/229/231 232/232/234
f 297/291/300 285/283/287 298/292/301
f 297/291/300 235/235/237 229/229/231
f 299/293/302 233/233/235 237/237/239
f 230/230/232 300/294/303 285/283/287
f 298/292/301 300/294/303 301/295/304
f 235/235/237 301/295/304 234/234/236
f 237/237/239 239/239/241 299/293/302
f 241/241/243 299/293/302 239/239/241
f 301/295/304 241/241/243 302/296/305
f 301/295/304 243/243/245 234/234/236
f 241/241/243 303/297/306 302/296/305
f 245/245/247 302/296/305 303/297/306
f 248/248/250 238/238/240 247/247/249
f 304/298/307 240/240/242 248/248/250
f 245/245/247 304/298/307 244/244/246
f 304/298/307 286/284/288 296/359/299
f 304/298/307 222/222/224 244/244/246
f 281/279/283 218/218/220 253/253/255
f 294/358/297 281/279/283 291/357/293
f 250/250/252 291/357/293 256/256/258
f 218/218/220 249/249/251 253/253/255
f 252/252/254 257/257/259 255/255/257
f 253/253/255 261/261/263 281/279/283
f 279/278/281 261/261/263 305/299/308
f 279/278/281 254/254/256 256/256/258
f 305/299/308 265/265/267 306/300/309
f 254/254/256 306/300/309 262/262/264
f 307/301/310 265/265/267 264/264/266
f 262/262/264 307/301/310 266/266/268
f 307/301/310 271/271/273 308/302/311
f 307/301/310 287/285/289 266/266/268
f 309/303/312 271/271/273 270/270/272
f 287/285/289 309/303/312 274/274/276
f 287/285/289 273/273/275 268/268/270
f 269/269/271 272/272/274 275/275/277
f 276/276/278 269/269/271 275/275/277
f 309/303/312 276/276/278 310/304/313
f 309/303/312 288/286/290 274/274/276
f 275/275/277 213/213/215 217/217/219
f 310/304/313 216/216/218 295/290/298
f 295/290/298 288/286/290 310/304/313
f 290/287/292 277/354/279 289/356/291
f 214/214/216 272/272/274 288/286/290
f 278/277/280 258/258/260 257/257/259
f 251/251/253 278/277/280 257/257/259
f 311/305/314 284/282/286 312/306/315
f 313/307/316 314/308/317 292/288/294
f 313/307/316 293/289/296 315/309/318
f 311/305/314 314/308/317 316/310/319
f 317/360/320 318/311/321 319/361/322
f 320/362/323 321/363/324 317/360/320
f 318/311/321 322/364/325 319/361/322
f 323/312/326 324/313/327 318/311/321
f 324/313/327 325/365/328 326/366/329
f 321/363/324 327/367/330 328/368/331
f 329/369/332 325/365/328 330/370/333
f 328/368/331 329/369/332 330/370/333
f 331/371/334 327/367/330 332/372/335
f 326/366/329 325/365/328 333/373/336
f 317/360/320 321/363/324 323/312/326
f 323/312/326 318/311/321 317/360/320
f 322/364/325 318/311/321 324/313/327
f 329/369/332 333/373/336 325/365/328
f 328/368/331 331/371/334 329/369/332
f 331/371/334 328/368/331 327/367/330
f 334/374/337 324/313/327 326/366/329
f 330/370/333 321/363/324 328/368/331
f 330/370/333 324/313/327 323/312/326
f 335/314/338 336/315/339 337/316/340
f 335/314/338 337/316/340 338/317/341
f 337/316/340 339/318/342 340/319/343
f 338/317/341 341/320/344 342/321/345
f 343/322/346 344/375/347 345/376/348
f 346/323/349 347/324/350 348/325/351
f 349/326/352 350/327/353 351/328/354
f 350/327/353 352/329/355 351/328/354
f 352/329/355 342/321/345 351/328/354
f 351/328/354 342/321/345 353/330/356
f 353/330/356 354/331/357 351/328/354
f 354/331/357 349/326/352 351/328/354
f 348/325/351 350/327/353 349/326/352
f 348/325/351 347/324/350 350/327/353
f 347/324/350 352/329/355 350/327/353
f 345/376/348 344/375/347 352/329/355
f 344/375/347 342/321/345 352/329/355
f 341/320/344 353/330/356 342/321/345
f 340/319/343 339/318/342 353/330/356
f 339/318/342 354/331/357 353/330/356
f 355/377/358 349/326/352 354/331/357
f 355/377/358 356/332/359 349/326/352
f 347/324/350 345/376/348 352/329/355
f 347/324/350 346/323/349 345/376/348
f 346/323/349 343/322/346 345/376/348
f 344/375/347 343/322/346 342/321/345
f 343/322/346 338/317/341 342/321/345
f 341/320/344 340/319/343 353/330/356
f 341/320/344 338/317/341 340/319/343
f 338/317/341 337/316/340 340/319/343
f 339/318/342 355/377/358 354/331/357
f 339/318/342 337/316/340 355/377/358
f 337/316/340 356/332/359 355/377/358
f 356/332/359 348/325/351 349/326/352
f 356/332/359 346/323/349 348/325/351
f 335/314/338 343/322/346 346/323/349
f 335/314/338 338/317/341 343/322/346
f 356/332/359 336/315/339 346/323/349
f 336/315/339 335/314/338 346/323/349
f 336/315/339 356/332/359 337/316/340
f 357/333/360 358/334/361 359/335/362
f 357/333/360 359/335/362 360/336/363
f 361/337/364 362/338/365 363/339/366
f 359/335/362 364/340/367 365/378/368
f 360/336/363 366/341/369 367/342/370
f 368/343/371 369/344/372 370/345/373
f 371/346/374 372/347/375 373/348/376
f 372/347/375 374/349/377 373/348/376
f 374/349/377 367/342/370 373/348/376
f 373/348/376 367/342/370 375/350/378
f 375/350/378 376/351/379 373/348/376
f 376/351/379 371/346/374 373/348/376
f 370/345/373 372/347/375 371/346/374
f 370/345/373 369/344/372 372/347/375
f 369/344/372 374/349/377 372/347/375
f 361/337/364 363/339/366 374/349/377
f 363/339/366 367/342/370 374/349/377
f 366/341/369 375/350/378 367/342/370
f 365/378/368 364/340/367 375/350/378
f 364/340/367 376/351/379 375/350/378
f 377/379/380 371/346/374 376/351/379
f 377/379/380 378/352/381 371/346/374
f 369/344/372 361/337/364 374/349/377
f 369/344/372 368/343/371 361/337/364
f 363/339/366 362/338/365 367/342/370
f 362/338/365 360/336/363 367/342/370
f 366/341/369 365/378/368 375/350/378
f 366/341/369 360/336/363 365/378/368
f 360/336/363 359/335/362 365/378/368
f 364/340/367 377/379/380 376/351/379
f 364/340/367 359/335/362 377/379/380
f 359/335/362 378/352/381 377/379/380
f 378/352/381 370/345/373 371/346/374
f 378/352/381 368/343/371 370/345/373
f 357/333/360 361/337/364 368/343/371
f 357/333/360 362/338/365 361/337/364
f 357/333/360 360/336/363 362/338/365
f 378/352/381 358/334/361 368/343/371
f 358/334/361 357/333/360 368/343/371
f 358/334/361 378/352/381 359/335/362
f 379/380/382 380/381/383 381/382/384
f 380/381/383 382/383/385 381/382/384
f 382/383/385 383/384/386 381/382/384
f 383/384/386 384/385/387 381/382/384
f 384/385/387 385/386/388 3/3/3
f 385/386/388 386/387/389 3/3/3
f 384/385/387 3/3/3 381/382/384
f 386/387/389 1/1/1 3/3/3
f 387/388/390 388/389/391 389/390/392
f 388/389/391 390/391/393 389/390/392
f 390/391/393 391/392/394 389/390/392
f 391/392/394 392/393/395 389/390/392
f 392/393/395 393/394/396 6/6/6
f 393/394/396 394/395/397 6/6/6
f 392/393/395 6/6/6 389/390/392
f 394/395/397 4/4/4 6/6/6
f 14/14/14 41/41/41 16/16/16
f 29/29/29 40/40/40 30/30/30
f 25/25/25 11/11/11 24/24/24
f 29/29/29 42/42/42 28/28/28
f 31/31/31 30/30/30 41/41/41
f 38/38/38 22/22/22 42/42/42
f 10/10/10 16/16/16 15/15/15
f 7/7/7 23/23/23 43/43/43
f 9/9/9 46/46/46 33/33/33
f 19/19/19 20/20/20 32/32/32
f 44/44/44 32/32/32 34/34/34
f 45/45/45 46/46/46 9/9/9
f 45/45/45 8/8/8 19/19/19
f 46/46/46 45/45/45 34/34/34
f 9/9/9 24/24/24 23/23/23
f 19/19/19 18/18/18 21/21/21
f 38/38/38 32/32/32 20/20/20
f 18/18/18 8/8/8 43/43/43
f 26/26/26 28/28/28 42/42/42
f 11/11/11 15/15/15 23/23/23
f 15/15/15 47/47/47 23/23/23
f 43/43/43 47/47/47 21/21/21
f 47/47/47 26/26/26 21/21/21
f 48/48/48 29/29/29 31/31/31
f 38/38/38 37/37/37 32/32/32
f 37/37/37 49/49/49 32/32/32
f 48/48/48 39/39/39 42/42/42
f 36/36/36 31/31/31 14/14/14
f 50/50/50 12/12/12 25/25/25
f 51/51/51 35/35/35 50/50/50
f 50/50/50 49/49/49 37/37/37
f 36/36/36 35/35/35 51/51/51
f 50/50/50 35/35/35 13/13/13
f 51/51/51 37/37/37 39/39/39
f 52/52/52 30/30/30 40/40/40
f 52/52/52 395/353/398 41/41/41
f 26/26/26 47/47/47 54/54/54
f 74/447/74 118/444/118 124/74/124
f 188/188/190 133/133/133 182/182/184
f 153/438/155 155/439/157 135/185/135
f 134/134/134 79/79/79 131/131/131
f 187/187/189 194/194/196 188/188/190
f 194/194/196 154/154/156 153/153/155
f 188/188/190 194/194/196 153/153/155
f 153/153/155 81/81/81 188/188/190
f 184/419/186 183/200/185 200/437/202
f 139/463/141 120/451/120 127/450/127
f 88/88/88 87/87/87 159/159/161
f 87/87/87 158/158/160 176/176/178
f 158/158/160 86/86/86 176/176/178
f 86/86/86 85/85/85 209/209/211
f 176/176/178 86/86/86 209/209/211
f 112/112/112 174/174/176 175/175/177
f 157/172/159 156/157/158 172/430/174
f 107/107/107 207/207/209 203/203/205
f 96/97/96 95/96/95 111/416/111
f 104/104/104 171/171/173 204/204/206
f 76/404/76 110/110/110 161/400/163
f 193/484/195 140/140/142 169/480/171
f 196/196/198 206/206/208 205/205/207
f 156/156/158 199/199/201 109/109/109
f 184/422/186 167/184/169 168/417/170
f 149/414/151 131/161/131 166/411/168
f 197/197/199 143/143/145 104/104/104
f 132/413/132 161/441/163 166/442/168
f 157/424/159 198/420/200 167/184/169
f 163/163/165 105/105/105 109/109/109
f 169/169/171 205/205/207 206/206/208
f 169/169/171 129/129/129 141/141/143
f 205/205/207 141/141/143 143/143/145
f 140/140/142 193/484/195 149/193/151
f 110/110/110 76/404/76 185/403/187
f 196/196/198 106/106/106 162/162/164
f 102/102/102 108/429/108 203/433/205
f 103/103/103 203/433/205 192/434/194
f 103/103/103 99/99/99 98/98/98
f 143/143/145 70/70/70 171/171/173
f 204/204/206 171/171/173 170/170/172
f 165/409/167 136/137/136 130/136/130
f 105/105/105 204/204/206 207/207/209
f 207/207/209 204/204/206 177/177/179
f 203/203/205 207/207/209 208/208/210
f 198/432/200 172/430/174 102/102/102
f 192/434/194 60/436/60 100/100/100
f 90/90/90 112/112/112 89/89/89
f 68/68/68 72/471/72 119/468/119
f 85/85/85 120/120/120 118/118/118
f 118/118/118 117/117/117 176/176/178
f 125/443/125 84/130/84 130/136/130
f 192/192/194 116/116/116 174/174/176
f 59/435/59 173/431/175 100/100/100
f 121/449/121 71/461/71 128/460/128
f 152/152/154 173/173/175 113/113/113
f 66/476/66 177/475/179 114/469/114
f 183/200/185 76/76/76 78/135/78
f 182/182/184 179/179/181 210/210/212
f 179/179/181 181/181/183 206/206/208
f 210/210/212 206/206/208 196/196/198
f 194/194/196 187/187/189 211/211/213
f 164/164/166 199/199/201 195/195/197
f 195/195/197 199/199/201 156/156/158
f 211/211/213 187/187/189 162/162/164
f 201/464/203 73/462/73 190/458/192
f 191/191/193 142/142/144 141/141/143
f 92/92/92 177/177/179 170/170/172
f 67/67/67 66/66/66 145/145/147
f 192/192/194 208/208/210 65/65/65
f 66/66/66 65/65/65 208/208/210
f 63/427/63 123/418/123 97/111/97
f 202/202/204 113/113/113 62/62/62
f 58/58/58 178/178/180 91/91/91
f 75/124/75 74/84/74 126/415/126
f 180/482/182 150/477/152 147/147/149
f 180/180/182 182/182/184 133/133/133
f 214/214/216 295/290/298 294/358/297
f 295/290/298 216/216/218 215/215/217
f 220/220/222 283/281/285 290/287/292
f 289/356/291 296/359/299 286/284/288
f 289/356/291 223/223/225 222/222/224
f 226/226/228 225/225/227 227/227/229
f 224/224/226 284/282/286 232/232/234
f 224/224/226 231/231/233 297/291/300
f 225/225/227 297/291/300 229/229/231
f 284/282/286 228/228/230 229/229/231
f 297/291/300 231/231/233 285/283/287
f 297/291/300 298/292/301 235/235/237
f 299/293/302 230/230/232 233/233/235
f 230/230/232 299/293/302 300/294/303
f 298/292/301 285/283/287 300/294/303
f 235/235/237 298/292/301 301/295/304
f 237/237/239 236/236/238 239/239/241
f 241/241/243 300/294/303 299/293/302
f 301/295/304 300/294/303 241/241/243
f 301/295/304 302/296/305 243/243/245
f 241/241/243 240/240/242 303/297/306
f 245/245/247 243/243/245 302/296/305
f 248/248/250 240/240/242 238/238/240
f 304/298/307 303/297/306 240/240/242
f 245/245/247 303/297/306 304/298/307
f 304/298/307 248/248/250 286/284/288
f 304/298/307 296/359/299 222/222/224
f 281/279/283 215/215/217 218/218/220
f 294/358/297 215/215/217 281/279/283
f 250/250/252 294/358/297 291/357/293
f 218/218/220 212/212/214 249/249/251
f 252/252/254 251/251/253 257/257/259
f 253/253/255 252/252/254 261/261/263
f 279/278/281 281/279/283 261/261/263
f 279/278/281 305/299/308 254/254/256
f 305/299/308 261/261/263 265/265/267
f 254/254/256 305/299/308 306/300/309
f 307/301/310 306/300/309 265/265/267
f 262/262/264 306/300/309 307/301/310
f 307/301/310 264/264/266 271/271/273
f 307/301/310 308/302/311 287/285/289
f 309/303/312 308/302/311 271/271/273
f 287/285/289 308/302/311 309/303/312
f 287/285/289 274/274/276 273/273/275
f 269/269/271 273/273/275 272/272/274
f 276/276/278 270/270/272 269/269/271
f 309/303/312 270/270/272 276/276/278
f 309/303/312 310/304/313 288/286/290
f 275/275/277 272/272/274 213/213/215
f 310/304/313 276/276/278 216/216/218
f 295/290/298 214/214/216 288/286/290
f 290/287/292 224/224/226 277/354/279
f 278/277/280 249/249/251 258/258/260
f 251/251/253 282/280/284 278/277/280
f 311/305/314 228/228/230 284/282/286
f 313/307/316 316/310/319 314/308/317
f 313/307/316 292/288/294 293/289/296
f 311/305/314 312/306/315 314/308/317
f 334/374/337 322/364/325 324/313/327
f 330/370/333 323/312/326 321/363/324
f 330/370/333 325/365/328 324/313/327
f 140/140/142 83/486/83 396/82/139
f 397/83/140 396/82/139 82/487/82
f 82/487/82 396/82/139 83/486/83
f 120/451/120 397/479/140 82/455/82
