# This file uses centimeters as units for non-parametric coordinates.

v -0.500000 -0.500000 0.000000
v 0.500000 -0.500000 0.000000
v -0.500000 0.500000 0.000000
v 0.500000 0.500000 0.000000
v -0.492566 -0.489143 0.000000
v -0.492566 0.489143 0.000000
v 0.492568 0.489143 0.000000
v 0.492568 -0.489143 0.000000
v -0.492670 -0.500000 0.000000
v -0.500000 -0.489253 0.000000
v 0.500000 -0.489083 0.000000
v 0.492479 -0.500000 0.000000
v 0.500000 0.489112 0.000000
v 0.492513 0.500000 0.000000
v -0.492878 0.500000 0.000000
v -0.500000 0.489175 0.000000
v 0.492568 0.489143 1.000000
v 0.500000 0.489112 1.000000
v 0.500000 0.500000 1.000000
v 0.492513 0.500000 1.000000
v -0.500000 0.500000 1.000000
v -0.492566 0.489143 1.000000
v -0.492878 0.500000 1.000000
v -0.500000 0.489175 1.000000
v 0.492568 -0.489143 1.000000
v 0.492479 -0.500000 1.000000
v 0.500000 -0.500000 1.000000
v 0.500000 -0.489083 1.000000
v -0.500000 -0.500000 1.000000
v -0.492670 -0.500000 1.000000
v -0.492566 -0.489143 1.000000
v -0.500000 -0.489253 1.000000
vt 0.000000 0.000000
vt 1.000000 0.000000
vt 0.000000 1.000000
vt 1.000000 1.000000
vt 0.050000 0.050000
vt 0.050000 0.950000
vt 0.950000 0.950000
vt 0.950000 0.050000
vt 0.010117 0.000000
vt 0.000000 0.009548
vt 1.000000 0.010917
vt 0.989329 0.000000
vt 1.000000 0.989112
vt 0.989088 1.000000
vt 0.010547 1.000000
vt 0.000000 0.989161
vt 0.950000 0.950000
vt 1.000000 0.989112
vt 1.000000 1.000000
vt 0.050000 0.950000
vt 0.010547 1.000000
vt 0.000000 1.000000
vt 0.950000 0.050000
vt 0.989329 0.000000
vt 1.000000 0.000000
vt 0.000000 0.000000
vt 0.010117 0.000000
vt 0.050000 0.050000
vt 0.000000 0.009548
vt 1.000000 0.010917
vt 0.989088 1.000000
vt 0.000000 0.989161
vn 0.000000 0.000000 1.000000
vn 0.000000 0.000000 1.000000
vn 0.000000 0.000000 1.000000
vn 0.000000 0.000000 1.000000
vn 0.000000 0.000000 1.000000
vn 0.000000 0.000000 1.000000
vn 0.000000 0.000000 1.000000
vn 0.000000 0.000000 1.000000
vn 0.000000 0.000000 1.000000
vn 0.000000 0.000000 1.000000
vn 0.000000 0.000000 1.000000
vn 0.000000 0.000000 1.000000
vn 0.000000 0.000000 1.000000
vn 0.000000 0.000000 1.000000
vn 0.000000 0.000000 1.000000
vn 0.000000 0.000000 1.000000
vn 0.000000 0.000000 1.000000
vn 0.000000 0.000000 1.000000
vn 0.000000 0.000000 1.000000
vn 0.000000 0.000000 1.000000
vn 0.000000 0.000000 1.000000
vn 0.000000 0.000000 1.000000
vn 0.000000 0.000000 1.000000
vn 0.000000 0.000000 1.000000
vn 0.000000 0.000000 1.000000
vn 0.000000 0.000000 1.000000
vn 0.000000 0.000000 1.000000
vn 0.000000 0.000000 1.000000
vn 0.000000 0.000000 1.000000
vn 0.000000 0.000000 1.000000
vn 0.000000 0.000000 1.000000
vn 0.000000 0.000000 1.000000
vn -0.004171 -0.999991 0.000000
vn -0.004171 -0.999991 0.000000
vn -0.004171 -0.999991 0.000000
vn -0.004171 -0.999991 0.000000
vn 1.000000 0.000000 0.000000
vn 1.000000 0.000000 0.000000
vn 1.000000 0.000000 0.000000
vn 1.000000 0.000000 0.000000
vn -0.999987 -0.005128 0.000000
vn -0.999987 -0.005130 0.000000
vn -0.999987 -0.005130 0.000000
vn -0.999987 -0.005133 0.000000
vn 0.000000 1.000000 0.000000
vn 0.000000 1.000000 0.000000
vn 0.000000 1.000000 0.000000
vn 0.000000 1.000000 0.000000
vn 0.999588 0.028690 0.000000
vn 0.999588 0.028693 0.000000
vn 0.999588 0.028693 0.000000
vn 0.999588 0.028696 0.000000
vn 0.000000 1.000000 0.000000
vn 0.000000 1.000000 0.000000
vn 0.000000 1.000000 0.000000
vn 0.000000 1.000000 0.000000
vn -0.004234 -0.999991 0.000000
vn -0.004234 -0.999991 0.000000
vn -0.004234 -0.999991 0.000000
vn -0.004234 -0.999991 0.000000
vn -1.000000 0.000000 0.000000
vn -1.000000 0.000000 0.000000
vn -1.000000 0.000000 0.000000
vn -1.000000 0.000000 0.000000
vn -0.999966 0.008273 0.000000
vn -0.999966 0.008271 0.000000
vn -0.999966 0.008271 0.000000
vn -0.999966 0.008268 0.000000
vn 0.000000 -1.000000 0.000000
vn 0.000000 -1.000000 0.000000
vn 0.000000 -1.000000 0.000000
vn 0.000000 -1.000000 0.000000
vn -0.008149 0.999967 0.000000
vn -0.008149 0.999967 0.000000
vn -0.008149 0.999967 0.000000
vn -0.008149 0.999967 0.000000
vn 1.000000 0.000000 0.000000
vn 1.000000 0.000000 0.000000
vn 1.000000 0.000000 0.000000
vn 1.000000 0.000000 0.000000
vn 0.000000 -1.000000 0.000000
vn 0.000000 -1.000000 0.000000
vn 0.000000 -1.000000 0.000000
vn 0.000000 -1.000000 0.000000
vn 0.999955 -0.009508 0.000000
vn 0.999955 -0.009508 0.000000
vn 0.999955 -0.009508 0.000000
vn 0.999955 -0.009508 0.000000
vn -0.014816 0.999890 0.000000
vn -0.014816 0.999890 0.000000
vn -0.014816 0.999890 0.000000
vn -0.014816 0.999890 0.000000
vn -1.000000 0.000000 0.000000
vn -1.000000 0.000000 0.000000
vn -1.000000 0.000000 0.000000
vn -1.000000 0.000000 0.000000
f 17/17/1 18/18/2 19/19/3
f 21/22/4 22/20/5 23/21/6
f 10/10/7 5/5/8 16/16/9
f 16/16/9 5/5/8 6/6/10
f 25/23/11 26/24/12 27/25/13
f 29/26/14 30/27/15 31/28/16
f 29/26/14 31/28/16 32/29/17
f 28/30/18 25/23/11 27/25/13
f 5/5/19 9/9/20 8/8/21
f 8/8/21 9/9/20 12/12/22
f 7/7/23 8/8/24 13/13/25
f 13/13/25 8/8/24 11/11/26
f 20/31/27 17/17/1 19/19/3
f 15/15/28 6/6/29 14/14/30
f 14/14/30 6/6/29 7/7/31
f 24/32/32 22/20/5 21/22/4
f 7/7/33 13/13/34 17/17/35
f 17/17/35 13/13/34 18/18/36
f 13/13/37 4/4/38 18/18/39
f 18/18/39 4/4/38 19/19/40
f 14/6/41 7/15/42 20/20/43
f 20/20/43 7/15/42 17/21/44
f 4/15/45 14/3/46 19/21/47
f 19/21/47 14/3/46 20/22/48
f 6/8/49 15/12/50 22/23/51
f 22/23/51 15/12/50 23/24/52
f 15/12/53 3/2/54 23/24/55
f 23/24/55 3/2/54 21/25/56
f 16/1/57 6/9/58 24/26/59
f 24/26/59 6/9/58 22/27/60
f 3/9/61 16/5/62 21/27/63
f 21/27/63 16/5/62 24/28/64
f 8/5/65 12/10/66 25/28/67
f 25/28/67 12/10/66 26/29/68
f 12/10/69 2/1/70 26/29/71
f 26/29/71 2/1/70 27/26/72
f 11/11/73 8/8/74 28/30/75
f 28/30/75 8/8/74 25/23/76
f 2/2/77 11/11/78 27/25/79
f 27/25/79 11/11/78 28/30/80
f 1/14/81 9/7/82 29/31/83
f 29/31/83 9/7/82 30/17/84
f 9/4/85 5/14/86 30/19/87
f 30/19/87 5/14/86 31/31/88
f 5/16/89 10/6/90 31/32/91
f 31/32/91 10/6/90 32/20/92
f 10/3/93 1/16/94 32/22/95
f 32/22/95 1/16/94 29/32/96
