# This file uses centimeters as units for non-parametric coordinates.

v -0.120897 -0.229848 0.176233
v 0.111236 -0.240470 0.170650
v -0.097835 -0.071812 0.192731
v -0.002761 -0.071812 0.213531
v 0.098434 -0.071812 0.198729
v -0.084886 0.108042 0.129621
v -0.001313 0.108042 0.148268
v 0.090917 0.113247 0.119708
v -0.182247 0.118732 -0.004654
v -0.000729 0.316100 -0.057867
v 0.196404 0.117336 -0.019912
v -0.130727 0.108043 -0.170717
v -0.001313 0.108044 -0.201210
v 0.141828 0.104425 -0.176731
v -0.175749 -0.078699 -0.221140
v -0.000843 -0.078699 -0.259932
v 0.168181 -0.078699 -0.233788
v -0.182176 -0.167360 -0.245413
v -0.000729 -0.166857 -0.276616
v 0.171486 -0.164632 -0.246418
v -0.257362 -0.238951 -0.096570
v 0.254679 -0.229673 -0.069792
v 0.252885 -0.071812 -0.004205
v -0.244678 -0.071812 -0.003452
v -0.000729 0.265940 0.027146
v 0.134841 0.135079 0.032214
v 0.226212 -0.071812 0.092968
v 0.227791 -0.235476 0.073416
v -0.243370 -0.232242 0.046788
v -0.215944 -0.071812 0.109420
v -0.113735 0.141234 0.051820
v -0.129799 0.236492 -0.052436
v -0.221435 -0.078699 -0.157344
v -0.218558 -0.221559 -0.214139
v 0.224527 -0.235142 -0.177350
v 0.201395 -0.078699 -0.162139
v 0.124877 0.242656 -0.079632
v -0.000729 0.277934 -0.105978
v -0.000729 0.205952 0.108910
v -0.094793 0.240081 0.029477
v -0.130925 0.258514 -0.010753
v -0.118028 0.260052 -0.049358
v -0.000729 0.252624 -0.121966
v 0.119812 0.260620 -0.062874
v 0.124658 0.254924 -0.023009
v 0.094018 0.228452 0.052765
v -0.065862 0.215302 0.086082
v 0.062912 0.218303 0.068765
v -0.086693 -0.177194 -0.279187
v 0.107006 -0.170060 -0.268605
v 0.057545 0.248464 -0.114560
v 0.069016 0.108044 -0.193485
v 0.092698 -0.078699 -0.261564
v -0.052971 0.249421 -0.103262
v -0.065836 0.108043 -0.186469
v -0.079422 -0.078699 -0.260840
v 0.050024 0.274333 -0.101638
v -0.051316 0.276579 -0.080324
v -0.000729 -0.229032 0.206264
v 0.139733 -0.325533 -0.324398
v -0.000729 -0.365845 -0.492640
v -0.132330 -0.312059 -0.299733
v -0.136818 -0.389701 0.030828
v -0.005388 -0.463822 0.042021
v 0.137982 -0.392265 0.029270
v -0.168955 -0.408451 -0.071261
v -0.000729 -0.460394 -0.072166
v 0.167845 -0.406273 -0.071074
v 0.046296 0.263686 0.039268
v 0.047687 0.304329 -0.052457
v -0.038552 0.310856 -0.058336
v -0.057581 0.264445 0.034481
v 0.081461 -0.353587 -0.427281
v 0.064146 -0.392976 -0.421624
v -0.001181 -0.416030 -0.421484
v -0.065633 -0.388208 -0.422217
v -0.075701 -0.350392 -0.427281
v -0.053460 -0.278330 -0.352777
v 0.007728 -0.268133 -0.352311
v 0.066596 -0.282913 -0.352311
v 0.122883 -0.392360 -0.294089
v -0.003040 -0.433808 -0.294994
v -0.120757 -0.388211 -0.299252
v -0.137219 0.233269 -0.010066
v -0.110840 0.214072 0.042435
v -0.072269 0.186775 0.106075
v -0.000729 0.173403 0.121817
v 0.083795 0.174091 0.092962
v 0.112712 0.200370 0.056714
v 0.150032 0.227872 -0.019607
v 0.174119 0.104315 -0.138529
v -0.173873 0.108043 -0.123712
v -0.076692 0.274559 -0.066647
v -0.095536 0.236937 -0.078369
v 0.094084 0.245312 -0.095606
v 0.086156 0.267233 -0.081569
v -0.138874 -0.258857 -0.291628
v 0.152783 -0.267202 -0.303465
v -0.024361 0.155103 0.153202
v 0.035114 0.154737 0.152697
v 0.035339 0.212440 0.137519
v -0.024135 0.212806 0.138023
v -0.020652 0.164691 0.171293
v 0.031830 0.164369 0.170847
v 0.032029 0.215288 0.157453
v -0.020453 0.215610 0.157899
v 0.003923 0.220767 0.135646
v 0.003051 0.222643 0.155812
v 0.004494 0.157360 0.172967
v 0.005966 0.146783 0.155084
v -0.037158 0.184534 0.145591
v -0.031958 0.187027 0.165533
v 0.003928 0.191878 0.175988
v 0.043310 0.186275 0.164970
v 0.048135 0.182707 0.145209
v 0.004949 0.183632 0.145402
v -0.072313 0.225141 0.162676
v -0.071618 0.188700 0.165494
v -0.033942 0.186739 0.167311
v -0.038774 0.215751 0.154647
v -0.070870 0.159858 0.179831
v -0.069519 0.151596 0.154581
v -0.035842 0.158615 0.149838
v -0.046703 0.164832 0.165444
v -0.022649 0.183296 0.151117
v -0.027913 0.209533 0.139041
v -0.071322 0.216881 0.137429
v -0.095886 0.235223 0.144252
v -0.107571 0.185289 0.146104
v -0.107398 0.184740 0.166897
v -0.095658 0.242310 0.165925
v -0.096256 0.140434 0.169185
v -0.096029 0.147522 0.190858
v -0.070417 0.184112 0.146038
v 0.079862 0.223757 0.160011
v 0.080571 0.187765 0.164202
v 0.120061 0.183425 0.164944
v 0.108943 0.234860 0.160342
v 0.081304 0.158474 0.177166
v 0.082670 0.150661 0.153289
v 0.108433 0.143721 0.166253
v 0.108607 0.149160 0.182885
v 0.119879 0.181877 0.144703
v 0.108768 0.229421 0.143710
v 0.080867 0.215946 0.136137
v 0.043027 0.205700 0.133430
v 0.033109 0.184406 0.149153
v 0.044461 0.187976 0.165396
v 0.054463 0.212749 0.148252
v 0.041866 0.156964 0.153320
v 0.053302 0.164013 0.168143
v 0.081772 0.183177 0.144746
vt 0.493425 0.207448
vt 0.551222 0.207448
vt 0.560564 0.319949
vt 0.515608 0.315885
vt 0.505054 0.110103
vt 0.590232 0.113555
vt 0.645158 0.203351
vt 0.631115 0.312205
vt 0.560383 0.385694
vt 0.518276 0.375106
vt 0.430520 0.207448
vt 0.477521 0.317518
vt 0.590995 0.008517
vt 0.531311 0.016848
vt 0.654205 0.110302
vt 0.447221 0.107133
vt 0.687774 0.203351
vt 0.653838 0.312270
vt 0.596085 0.394488
vt 0.517905 0.387580
vt 0.562406 0.401784
vt 0.487334 0.356975
vt 0.723640 0.016792
vt 0.741667 0.056539
vt 0.695286 0.152240
vt 0.605586 0.396068
vt 0.586117 0.405173
vt 0.799495 0.016425
vt 0.802860 0.039853
vt 0.729217 0.091233
vt 0.708482 0.149011
vt 0.579922 0.431170
vt 0.841734 0.032562
vt 0.758269 0.081889
vt 0.242894 0.108653
vt 0.328130 0.112642
vt 0.365368 0.208028
vt 0.298258 0.208028
vt 0.257942 0.007874
vt 0.318640 0.019022
vt 0.405093 0.114065
vt 0.414902 0.208028
vt 0.342463 0.314963
vt 0.297544 0.321319
vt 0.172992 0.118994
vt 0.206759 0.203933
vt 0.122386 0.019908
vt 0.377379 0.314963
vt 0.333589 0.374804
vt 0.294326 0.389419
vt 0.226756 0.314964
vt 0.122100 0.065185
vt 0.154397 0.151219
vt 0.168829 0.203933
vt 0.372487 0.361775
vt 0.325885 0.390268
vt 0.293918 0.404429
vt 0.269135 0.391335
vt 0.198809 0.314964
vt 0.126919 0.096818
vt 0.046264 0.042394
vt 0.049275 0.019910
vt 0.360600 0.378736
vt 0.270965 0.405343
vt 0.253716 0.391600
vt 0.090562 0.085239
vt 0.007404 0.033206
vt 0.265627 0.435549
vt 0.260685 0.413969
vt 0.238915 0.399022
vt 0.252553 0.415170
vt 0.676615 0.952119
vt 0.687575 0.950208
vt 0.691343 0.964774
vt 0.680788 0.968226
vt 0.683907 0.936506
vt 0.673352 0.939958
vt 0.377171 0.977659
vt 0.380877 0.963811
vt 0.391961 0.965244
vt 0.387724 0.981110
vt 0.384605 0.949395
vt 0.395159 0.952846
vt 0.413547 0.963890
vt 0.424507 0.961979
vt 0.428274 0.976545
vt 0.417720 0.979996
vt 0.420839 0.948277
vt 0.410284 0.951729
vt 0.859155 0.061046
vt 0.860154 0.034137
vt 0.871358 0.033841
vt 0.870835 0.064865
vt 0.872592 0.009965
vt 0.884271 0.013785
vt 0.381347 0.030320
vt 0.392286 0.029483
vt 0.392823 0.055177
vt 0.383835 0.058116
vt 0.380640 0.008863
vt 0.371652 0.011802
vt 0.226321 0.979975
vt 0.230028 0.966127
vt 0.241112 0.967561
vt 0.236875 0.983427
vt 0.233756 0.951710
vt 0.244310 0.955161
vt 0.403752 0.750712
vt 0.391834 0.692580
vt 0.427441 0.697174
vt 0.427441 0.750418
vt 0.345897 0.720910
vt 0.367203 0.687236
vt 0.386647 0.650668
vt 0.427441 0.645964
vt 0.456893 0.689582
vt 0.457764 0.747030
vt 0.395757 0.764484
vt 0.427441 0.780551
vt 0.467300 0.671107
vt 0.498780 0.681726
vt 0.505972 0.728586
vt 0.459228 0.777833
vt 0.379864 0.755918
vt 0.394721 0.778850
vt 0.427441 0.790565
vt 0.427441 0.637880
vt 0.473548 0.649534
vt 0.481858 0.765263
vt 0.463939 0.785926
vt 0.353975 0.745089
vt 0.516631 0.682117
vt 0.502937 0.753555
vt 0.486823 0.774055
vt 0.506110 0.764050
vt 0.471123 0.835358
vt 0.516726 0.824865
vt 0.728541 0.303595
vt 0.827699 0.303061
vt 0.824953 0.370367
vt 0.747483 0.363769
vt 0.756951 0.169209
vt 0.826337 0.171719
vt 0.927062 0.303705
vt 0.909460 0.362851
vt 0.827699 0.467177
vt 0.756868 0.449476
vt 0.789442 0.096729
vt 0.827432 0.097161
vt 0.900560 0.172252
vt 0.893695 0.446185
vt 0.827699 0.055220
vt 0.865938 0.097079
vt 0.769724 0.978035
vt 0.759146 0.977247
vt 0.757975 0.962948
vt 0.768546 0.962837
vt 0.758223 0.992126
vt 0.768793 0.992015
vt 0.174592 0.961146
vt 0.175511 0.976560
vt 0.164934 0.977147
vt 0.164021 0.961035
vt 0.174344 0.990326
vt 0.163773 0.990215
vt 0.556573 0.973343
vt 0.542105 0.972568
vt 0.540898 0.957832
vt 0.551792 0.957717
vt 0.550473 0.987888
vt 0.562891 0.987757
vt 0.605955 0.955388
vt 0.606902 0.971279
vt 0.592431 0.971847
vt 0.595057 0.955274
vt 0.602992 0.985359
vt 0.590569 0.985229
vt 0.509213 0.976973
vt 0.495838 0.976208
vt 0.503099 0.961777
vt 0.512416 0.961679
vt 0.494908 0.991199
vt 0.505558 0.991087
vt 0.800416 0.958928
vt 0.804663 0.974574
vt 0.791274 0.975138
vt 0.791089 0.958830
vt 0.803486 0.988460
vt 0.792824 0.988348
vt 0.789249 0.480492
vt 0.855144 0.480940
vt 0.854030 0.567152
vt 0.801895 0.567152
vt 0.916542 0.474668
vt 0.909522 0.567152
vt 0.854824 0.665777
vt 0.808996 0.665777
vt 0.905399 0.668631
vt 0.855144 0.701618
vt 0.815915 0.708951
vt 0.895513 0.705009
vt 0.855144 0.719467
vt 0.819428 0.724594
vt 0.133049 0.478822
vt 0.132777 0.371053
vt 0.173364 0.371052
vt 0.187031 0.478822
vt 0.087700 0.478822
vt 0.095541 0.371053
vt 0.133114 0.287615
vt 0.166745 0.290016
vt 0.230593 0.478822
vt 0.215384 0.373141
vt 0.133114 0.529699
vt 0.195288 0.531547
vt 0.032110 0.478822
vt 0.058092 0.371053
vt 0.102965 0.289463
vt 0.083504 0.535664
vt 0.232500 0.528415
vt 0.171968 0.596675
vt 0.137995 0.588145
vt 0.078401 0.296668
vt 0.028401 0.529989
vt 0.102683 0.594030
vt 0.221707 0.587608
vt 0.133114 0.644535
vt 0.053391 0.582792
vt 0.007404 0.561267
vt 0.180547 0.637461
vt 0.089848 0.635617
vt 0.148410 0.967012
vt 0.131376 0.966526
vt 0.128274 0.944720
vt 0.144338 0.950966
vt 0.128691 0.986396
vt 0.144517 0.980025
vt 0.112263 0.966213
vt 0.116144 0.951077
vt 0.116323 0.980136
vt 0.280400 0.986061
vt 0.280831 0.965971
vt 0.298412 0.965486
vt 0.294443 0.979955
vt 0.263113 0.966460
vt 0.266912 0.979847
vt 0.281272 0.945367
vt 0.294617 0.951579
vt 0.267086 0.951471
vt 0.585849 0.936288
vt 0.586229 0.916350
vt 0.607839 0.915278
vt 0.601668 0.931150
vt 0.566653 0.914184
vt 0.573077 0.945681
vt 0.586638 0.900571
vt 0.601559 0.903292
vt 0.572874 0.893822
vt 0.765334 0.922197
vt 0.785559 0.922837
vt 0.786048 0.940537
vt 0.771493 0.946613
vt 0.785066 0.904999
vt 0.771695 0.895015
vt 0.806303 0.923281
vt 0.800048 0.936716
vt 0.800157 0.908999
vt 0.026466 0.982828
vt 0.026851 0.963260
vt 0.048321 0.960900
vt 0.042276 0.988864
vt 0.007404 0.962602
vt 0.013660 0.978142
vt 0.027250 0.947335
vt 0.042094 0.942271
vt 0.013551 0.950459
vt 0.704626 0.941660
vt 0.724837 0.942093
vt 0.725325 0.959781
vt 0.710769 0.955787
vt 0.724345 0.924269
vt 0.710877 0.928090
vt 0.745565 0.942801
vt 0.739339 0.963556
vt 0.739521 0.916939
vn -0.501940 -0.288974 0.815199
vn -0.008037 -0.361967 0.932156
vn -0.342482 0.150027 0.927469
vn -0.034682 0.150376 0.988020
vn 0.485470 -0.309507 0.817633
vn 0.361363 0.140609 0.921763
vn 0.006355 0.363067 0.931741
vn -0.481697 0.369690 0.794542
vn 0.516080 0.397297 0.758826
vn -0.501789 0.397279 0.768360
vn -0.323598 0.684283 0.653483
vn -0.716498 0.414424 0.561144
vn -0.571705 0.543959 0.614217
vn 0.646255 0.337767 0.684301
vn 0.818650 0.477770 0.318665
vn 0.475797 0.597349 0.645595
vn 0.651234 0.730785 0.204568
vn 0.990128 0.138284 -0.022892
vn 0.910477 0.382563 0.157093
vn 0.781742 0.208971 0.587546
vn 0.767969 0.282971 0.574588
vn -0.974490 -0.173122 -0.142825
vn -0.886836 -0.274865 0.371445
vn -0.980698 0.193297 0.029454
vn -0.779254 0.227714 0.583875
vn -0.900939 0.377599 0.213841
vn -0.784354 0.291574 0.547516
vn 0.079218 0.609113 0.789117
vn 0.224231 0.577964 0.784652
vn -0.000618 0.809011 0.587793
vn 0.169811 0.770388 0.614546
vn 0.863688 -0.259481 0.432102
vn -0.861835 0.329121 0.385901
vn -0.748373 0.620448 0.234483
vn -0.245187 0.779273 0.576729
vn -0.335959 0.927239 -0.165408
vn -0.027657 0.965296 -0.259691
vn 0.311143 0.945185 -0.099077
vn 0.061892 0.370540 0.926752
vn 0.513152 0.395172 0.761915
vn 0.763866 0.526716 -0.372933
vn 0.596465 0.707044 -0.379893
vn 0.970139 -0.235161 -0.059417
vn 0.806544 0.360743 -0.468350
vn 0.435098 0.563090 -0.702580
vn 0.540353 0.391436 -0.744846
vn -0.094784 0.700114 -0.707712
vn 0.263170 0.655486 -0.707869
vn -0.835211 0.413926 -0.362060
vn -0.614824 0.585772 -0.528074
vn -0.822422 -0.014684 -0.568689
vn -0.871766 0.232084 -0.431465
vn -0.820367 0.416446 -0.391880
vn -0.563399 0.217504 -0.797040
vn -0.593893 0.295816 -0.748187
vn -0.322147 0.630224 -0.706427
vn -0.013425 0.413555 -0.910380
vn 0.179862 0.423573 -0.887826
vn -0.020185 0.280881 -0.959530
vn 0.159279 0.241501 -0.957239
vn 0.021765 0.385166 -0.922591
vn 0.246787 0.314839 -0.916500
vn 0.895639 0.173542 -0.409529
vn 0.917080 -0.052997 -0.395165
vn 0.686784 0.212705 -0.695043
vn 0.597306 0.205195 -0.775320
vn -0.074198 0.505166 -0.859827
vn 0.292697 0.509214 -0.809339
vn -0.226222 0.348952 -0.909426
vn -0.178279 0.276695 -0.944275
vn -0.496470 0.435811 -0.750723
vn -0.243221 0.448644 -0.859978
vn -0.467773 0.560830 -0.683124
vn -0.496767 0.507991 -0.703682
vn -0.421632 0.532276 -0.734104
vn -0.555593 0.176377 -0.812532
vn -0.757864 0.102370 -0.644331
vn 0.032427 0.718217 -0.695063
vn 0.325905 0.596065 -0.733821
vn -0.006075 0.174254 -0.984682
vn -0.344726 0.584218 -0.734747
vn 0.599246 0.260700 -0.756928
vn 0.837130 -0.059872 -0.543718
vn 0.553125 -0.705220 0.443528
vn -0.020565 -0.886659 0.461967
vn -0.489904 -0.726542 0.481799
vn -0.675388 -0.733686 0.074541
vn -0.008304 -0.999925 -0.009019
vn 0.648923 -0.758691 0.057329
vn -0.740855 -0.583676 -0.332349
vn -0.576040 -0.697886 -0.425597
vn -0.795995 0.159385 -0.583942
vn 0.730231 0.176024 -0.660135
vn 0.583799 -0.699457 -0.412236
vn 0.688851 -0.686996 -0.231345
vn 0.446710 0.660188 -0.603822
vn -0.030573 -0.928249 -0.370700
vn -0.026119 -0.990051 -0.138263
vn 0.001566 0.548441 0.836188
vn -0.000770 0.242380 0.970181
vn 0.197195 0.452054 0.869920
vn 0.292352 0.228916 0.928509
vn -0.097259 -0.855955 0.507820
vn 0.088471 -0.857810 0.506296
vn 0.258701 -0.827368 0.498534
vn 0.266683 -0.830535 0.488971
vn 0.954003 -0.110992 0.278494
vn 0.968348 0.165488 0.186859
vn 0.907182 0.402918 0.121155
vn 0.905914 0.413487 0.091364
vn 0.260284 0.960943 -0.094029
vn -0.016160 0.995549 -0.092853
vn 0.254875 0.963096 -0.086518
vn -0.022848 0.995349 -0.093584
vn -0.892589 0.438839 0.103462
vn -0.961530 0.187590 0.200675
vn -0.894261 0.424118 0.142901
vn -0.951798 -0.092487 0.292448
vn -0.285996 0.953779 -0.092264
vn -0.278533 0.956800 -0.083389
vn -0.300785 0.230562 0.925402
vn -0.199259 0.456317 0.867220
vn -0.266825 -0.833017 0.484652
vn -0.273561 -0.825525 0.493632
vn -0.886893 -0.334239 0.318913
vn -0.866316 -0.345496 0.360735
vn 0.003479 -0.087139 0.996190
vn -0.193036 0.005066 0.981179
vn 0.192143 0.011500 0.981300
vn 0.881767 -0.351533 0.314501
vn 0.865595 -0.360278 0.347773
vn -0.009772 -0.254345 -0.967064
vn -0.009772 -0.254344 -0.967064
vn -0.009773 -0.254344 -0.967064
vn -0.009772 -0.254343 -0.967065
vn -0.009772 -0.254344 -0.967064
vn -0.009771 -0.254343 -0.967065
vn -0.009771 -0.254343 -0.967065
vn -0.009771 -0.254344 -0.967064
vn -0.009773 -0.254344 -0.967064
vn 0.138781 0.049282 0.989096
vn 0.102946 0.235142 0.966494
vn 0.117371 0.243536 0.962764
vn -0.038339 0.175369 0.983756
vn 0.461062 -0.839252 0.288232
vn 0.373145 -0.850411 0.370896
vn 0.305825 -0.860879 0.406642
vn 0.243632 -0.830729 0.500533
vn 0.774986 -0.177208 0.606625
vn 0.837153 0.108336 0.536133
vn 0.814794 0.354993 0.458356
vn 0.826241 0.363750 0.430130
vn 0.170522 0.950437 -0.259984
vn 0.303983 0.913080 -0.271806
vn 0.180500 0.943078 -0.279328
vn 0.431400 0.859697 -0.273525
vn -0.999936 -0.007957 0.008116
vn -0.999818 -0.014264 0.012671
vn -0.976702 0.213640 -0.020290
vn -0.978547 0.198632 -0.054684
vn 0.541540 0.801245 -0.254444
vn 0.546980 0.793966 -0.265386
vn 0.060776 0.276855 0.958988
vn 0.130673 -0.009914 0.991376
vn 0.507698 -0.815620 0.277501
vn 0.514941 -0.816347 0.261559
vn -0.969369 -0.241458 0.044961
vn -0.967092 -0.238652 0.088198
vn 0.087983 0.558096 0.825099
vn 0.161004 0.481820 0.861352
vn 0.185647 0.191792 0.963717
vn 0.678736 -0.420085 0.602367
vn 0.650345 -0.432091 0.624779
vn 0.014564 -0.239676 -0.970744
vn -0.115617 -0.338460 -0.933851
vn -0.133748 -0.250962 -0.958713
vn -0.250008 -0.492143 -0.833841
vn 0.099922 -0.207493 -0.973120
vn 0.011744 -0.131791 -0.991208
vn -0.090879 -0.164384 -0.982201
vn -0.251585 0.022981 -0.967562
vn 0.041638 -0.329272 -0.943317
vn -0.258813 0.106674 0.960019
vn -0.093832 0.262632 0.960323
vn -0.032061 0.100817 0.994388
vn -0.002101 0.325864 0.945414
vn -0.262693 -0.896195 0.357529
vn -0.368784 -0.886009 0.281045
vn -0.337411 -0.897912 0.282680
vn -0.363111 -0.884461 0.293052
vn 0.999592 -0.027747 -0.006835
vn 0.975119 0.215604 -0.051552
vn 0.999456 -0.032903 -0.002440
vn 0.975926 0.204064 -0.076979
vn -0.278321 0.914512 -0.293607
vn -0.312901 0.900547 -0.301841
vn -0.342213 0.891416 -0.297099
vn -0.338566 0.895380 -0.289255
vn -0.755289 0.578814 0.307430
vn -0.815909 0.350526 0.459809
vn -0.743580 0.571264 0.347486
vn -0.807628 0.073666 0.585074
vn -0.243989 0.926227 -0.287354
vn -0.234429 0.935586 -0.264049
vn 0.032986 0.352838 0.935103
vn -0.223542 0.347682 0.910575
vn -0.131269 -0.852184 0.506509
vn -0.204290 -0.893704 0.399449
vn -0.761556 -0.178847 0.622933
vn -0.729897 -0.194142 0.655408
vn -0.069859 0.424678 0.902645
vn -0.090467 0.263230 0.960482
vn -0.024406 0.470103 0.882274
vn 0.959053 -0.279325 0.046839
vn 0.957272 -0.277685 0.080759
vn -0.092933 -0.379938 -0.920332
vn -0.017814 -0.296136 -0.954980
vn -0.066727 -0.216944 -0.973901
vn 0.072013 -0.354824 -0.932156
vn 0.125746 -0.259442 -0.957537
vn 0.261391 -0.532926 -0.804776
vn 0.125569 -0.157518 -0.979500
vn 0.024158 -0.415349 -0.909341
vn 0.245058 0.037021 -0.968801
f 1/190/1 59/191/2 3/193/3
f 3/193/3 59/191/2 4/192/4
f 2/194/5 5/195/6 59/191/2
f 59/191/2 5/195/6 4/192/4
f 4/192/4 7/196/7 3/193/3
f 3/193/3 7/196/7 6/197/8
f 4/192/4 5/195/6 7/196/7
f 7/196/7 5/195/6 8/198/9
f 86/55/10 47/63/11 85/49/12
f 85/49/12 47/63/11 40/56/13
f 89/10/14 90/9/15 46/20/16
f 46/20/16 90/9/15 45/21/17
f 23/2/18 11/3/19 27/1/20
f 27/1/20 11/3/19 26/4/21
f 21/35/22 29/36/23 24/38/24
f 24/38/24 29/36/23 30/37/25
f 24/38/24 30/37/25 9/44/26
f 9/44/26 30/37/25 31/43/27
f 39/115/28 48/120/29 25/110/30
f 25/110/30 48/120/29 69/116/31
f 5/11/6 27/1/20 8/12/9
f 8/12/9 27/1/20 26/4/21
f 28/5/32 27/1/20 2/16/5
f 2/16/5 27/1/20 5/11/6
f 29/36/23 1/41/1 30/37/25
f 30/37/25 1/41/1 3/42/3
f 31/43/27 30/37/25 6/48/8
f 6/48/8 30/37/25 3/42/3
f 85/49/12 40/56/13 84/50/33
f 84/50/33 40/56/13 41/57/34
f 72/109/35 47/114/11 25/110/30
f 25/110/30 47/114/11 39/115/28
f 72/109/35 25/110/30 71/108/36
f 71/108/36 25/110/30 10/111/37
f 69/116/31 70/117/38 25/110/30
f 25/110/30 70/117/38 10/111/37
f 87/127/39 88/128/40 39/115/28
f 39/115/28 88/128/40 48/120/29
f 87/199/39 39/202/28 86/200/10
f 86/200/10 39/202/28 47/203/11
f 88/128/40 89/132/14 48/120/29
f 48/120/29 89/132/14 46/121/16
f 90/9/15 37/19/41 45/21/17
f 45/21/17 37/19/41 44/27/42
f 22/6/43 23/2/18 28/5/32
f 28/5/32 23/2/18 27/1/20
f 37/19/41 91/8/44 95/26/45
f 95/26/45 91/8/44 14/18/46
f 10/111/37 70/117/38 38/119/47
f 38/119/47 70/117/38 57/123/48
f 84/50/33 41/57/34 32/58/49
f 32/58/49 41/57/34 42/64/50
f 34/45/51 21/35/22 33/46/52
f 33/46/52 21/35/22 24/38/24
f 92/51/53 9/44/26 32/58/49
f 32/58/49 9/44/26 84/50/33
f 34/45/51 33/46/52 18/53/54
f 18/53/54 33/46/52 15/54/55
f 71/108/36 10/111/37 58/118/56
f 58/118/56 10/111/37 38/119/47
f 13/205/57 52/206/58 16/204/59
f 16/204/59 52/206/58 53/207/60
f 16/204/59 53/207/60 19/214/61
f 19/214/61 53/207/60 50/215/62
f 23/2/18 22/6/43 36/7/63
f 36/7/63 22/6/43 35/15/64
f 35/15/64 20/25/65 36/7/63
f 36/7/63 20/25/65 17/17/66
f 43/210/67 51/211/68 13/205/57
f 13/205/57 51/211/68 52/206/58
f 49/219/69 56/208/70 19/214/61
f 19/214/61 56/208/70 16/204/59
f 15/216/55 12/217/71 56/208/70
f 56/208/70 12/217/71 55/209/72
f 93/69/73 94/65/74 42/64/50
f 42/64/50 94/65/74 32/58/49
f 17/212/66 53/207/60 14/213/46
f 14/213/46 53/207/60 52/206/58
f 13/205/57 55/209/72 43/210/67
f 43/210/67 55/209/72 54/218/75
f 56/208/70 55/209/72 16/204/59
f 16/204/59 55/209/72 13/205/57
f 53/207/60 17/212/66 50/215/62
f 50/215/62 17/212/66 20/220/65
f 49/219/69 18/224/54 56/208/70
f 56/208/70 18/224/54 15/216/55
f 38/119/47 57/123/48 43/126/67
f 43/126/67 57/123/48 51/130/68
f 58/118/56 38/119/47 54/125/75
f 54/125/75 38/119/47 43/126/67
f 34/45/51 97/60/76 62/52/77
f 79/222/78 80/221/79 61/227/80
f 78/225/81 79/222/78 61/227/80
f 98/30/82 35/15/64 60/24/83
f 65/14/84 28/5/32 2/16/5
f 64/140/85 65/145/84 59/146/2
f 59/146/2 65/145/84 2/151/5
f 64/140/85 59/146/2 63/141/86
f 63/141/86 59/146/2 1/147/1
f 29/36/23 63/40/86 1/41/1
f 21/35/22 66/39/87 29/36/23
f 29/36/23 66/39/87 63/40/86
f 66/138/87 67/139/88 63/141/86
f 63/141/86 67/139/88 64/140/85
f 68/144/89 65/145/84 67/139/88
f 67/139/88 65/145/84 64/140/85
f 68/13/89 22/6/43 65/14/84
f 65/14/84 22/6/43 28/5/32
f 21/35/22 34/45/51 83/47/90
f 83/47/90 34/45/51 62/52/77
f 76/62/91 77/61/92 61/67/80
f 61/33/80 73/29/93 74/28/94
f 22/6/43 81/23/95 35/15/64
f 35/15/64 81/23/95 60/24/83
f 69/116/31 48/120/29 46/121/16
f 70/117/38 69/116/31 45/122/17
f 45/122/17 69/116/31 46/121/16
f 44/27/42 70/32/38 45/21/17
f 42/131/50 71/108/36 93/124/73
f 40/113/13 72/109/35 41/112/34
f 41/112/34 72/109/35 71/108/36
f 40/113/13 47/114/11 72/109/35
f 37/135/41 95/134/45 44/133/42
f 44/133/42 95/134/45 96/129/96
f 32/58/49 94/65/74 92/51/53
f 92/51/53 94/65/74 12/59/71
f 80/221/79 73/230/93 61/227/80
f 77/231/92 78/225/81 61/227/80
f 61/152/80 74/153/94 75/149/97
f 75/149/97 76/148/91 61/152/80
f 73/29/93 60/24/83 74/28/94
f 74/28/94 60/24/83 81/23/95
f 75/149/97 74/153/94 82/143/98
f 82/143/98 74/153/94 81/150/95
f 83/142/90 76/148/91 82/143/98
f 82/143/98 76/148/91 75/149/97
f 62/52/77 77/61/92 83/47/90
f 83/47/90 77/61/92 76/62/91
f 97/60/76 78/66/81 62/52/77
f 62/52/77 78/66/81 77/61/92
f 79/222/78 78/225/81 19/214/61
f 19/214/61 78/225/81 49/219/69
f 50/215/62 80/221/79 19/214/61
f 19/214/61 80/221/79 79/222/78
f 98/30/82 60/24/83 80/34/79
f 80/34/79 60/24/83 73/29/93
f 81/23/95 22/6/43 68/13/89
f 82/143/98 81/150/95 67/139/88
f 67/139/88 81/150/95 68/144/89
f 66/138/87 83/142/90 67/139/88
f 67/139/88 83/142/90 82/143/98
f 21/35/22 83/47/90 66/39/87
f 85/49/12 84/50/33 31/43/27
f 31/43/27 84/50/33 9/44/26
f 6/48/8 86/55/10 31/43/27
f 31/43/27 86/55/10 85/49/12
f 7/196/7 87/199/39 6/197/8
f 6/197/8 87/199/39 86/200/10
f 7/196/7 8/198/9 87/199/39
f 87/199/39 8/198/9 88/201/40
f 89/10/14 88/22/40 26/4/21
f 26/4/21 88/22/40 8/12/9
f 89/10/14 26/4/21 90/9/15
f 90/9/15 26/4/21 11/3/19
f 90/9/15 11/3/19 37/19/41
f 37/19/41 11/3/19 91/8/44
f 42/64/50 41/57/34 71/68/36
f 96/129/96 70/117/38 44/133/42
f 11/3/19 23/2/18 91/8/44
f 91/8/44 23/2/18 36/7/63
f 17/17/66 14/18/46 36/7/63
f 36/7/63 14/18/46 91/8/44
f 92/51/53 12/59/71 33/46/52
f 33/46/52 12/59/71 15/54/55
f 9/44/26 92/51/53 24/38/24
f 24/38/24 92/51/53 33/46/52
f 93/124/73 71/108/36 58/118/56
f 94/65/74 93/69/73 54/70/75
f 54/70/75 93/69/73 58/71/56
f 54/218/75 55/209/72 94/223/74
f 94/223/74 55/209/72 12/217/71
f 51/130/68 95/134/45 52/136/58
f 52/136/58 95/134/45 14/137/46
f 95/134/45 51/130/68 96/129/96
f 96/129/96 51/130/68 57/123/48
f 57/123/48 70/117/38 96/129/96
f 49/219/69 97/228/76 18/224/54
f 18/224/54 97/228/76 34/229/51
f 49/219/69 78/225/81 97/228/76
f 50/215/62 98/226/82 80/221/79
f 50/31/62 20/25/65 98/30/82
f 98/30/82 20/25/65 35/15/64
f 108/232/99 113/233/100 105/235/101
f 105/235/101 113/233/100 114/234/102
f 109/154/103 110/155/104 104/157/105
f 104/157/105 110/155/104 100/156/106
f 114/72/107 115/73/108 105/75/109
f 105/75/109 115/73/108 101/74/110
f 101/160/111 107/161/112 105/163/113
f 105/163/113 107/161/112 108/162/114
f 102/78/115 111/79/116 106/81/117
f 106/81/117 111/79/116 112/80/118
f 108/162/114 107/161/112 106/165/119
f 106/165/119 107/161/112 102/164/120
f 112/236/121 113/233/100 106/237/122
f 106/237/122 113/233/100 108/232/99
f 110/155/104 109/154/103 99/158/123
f 99/158/123 109/154/103 103/159/124
f 111/79/116 99/82/125 112/80/118
f 112/80/118 99/82/125 103/83/126
f 109/238/127 113/233/100 103/240/128
f 103/240/128 113/233/100 112/236/121
f 114/234/102 113/233/100 104/239/129
f 104/239/129 113/233/100 109/238/127
f 115/73/108 114/72/107 100/76/130
f 100/76/130 114/72/107 104/77/131
f 111/241/132 116/242/133 99/244/134
f 99/244/134 116/242/133 110/243/135
f 115/247/136 100/248/137 116/242/133
f 116/242/133 100/248/137 110/243/135
f 107/245/138 116/242/133 102/246/139
f 102/246/139 116/242/133 111/241/132
f 115/247/136 116/242/133 101/249/140
f 101/249/140 116/242/133 107/245/138
f 117/250/141 118/251/142 120/253/143
f 120/253/143 118/251/142 119/252/144
f 121/166/145 122/167/146 124/169/147
f 124/169/147 122/167/146 123/168/148
f 119/84/149 125/85/150 120/87/151
f 120/87/151 125/85/150 126/86/152
f 126/172/153 127/173/154 120/175/155
f 120/175/155 127/173/154 117/174/156
f 129/91/157 130/92/158 128/90/159
f 128/90/159 130/92/158 131/93/160
f 127/173/154 128/176/161 117/174/156
f 117/174/156 128/176/161 131/177/162
f 118/251/142 117/250/141 130/254/163
f 130/254/163 117/250/141 131/255/164
f 122/167/146 121/166/145 132/170/165
f 132/170/165 121/166/145 133/171/166
f 129/91/157 132/94/167 130/92/158
f 130/92/158 132/94/167 133/95/168
f 133/258/169 121/256/170 130/254/163
f 130/254/163 121/256/170 118/251/142
f 119/252/144 118/251/142 124/257/171
f 124/257/171 118/251/142 121/256/170
f 125/85/150 119/84/149 123/88/172
f 123/88/172 119/84/149 124/89/173
f 134/260/174 122/261/175 129/259/176
f 129/259/176 122/261/175 132/262/177
f 125/265/178 123/266/179 134/260/174
f 134/260/174 123/266/179 122/261/175
f 134/260/174 129/259/176 127/263/180
f 127/263/180 129/259/176 128/264/181
f 125/265/178 134/260/174 126/267/182
f 126/267/182 134/260/174 127/263/180
f 135/268/183 136/269/184 138/271/185
f 138/271/185 136/269/184 137/270/186
f 140/179/187 141/180/188 139/178/189
f 139/178/189 141/180/188 142/181/190
f 143/97/191 144/98/192 137/96/193
f 137/96/193 144/98/192 138/99/194
f 145/185/195 135/186/196 144/184/197
f 144/184/197 135/186/196 138/187/198
f 146/102/199 147/103/200 149/105/201
f 149/105/201 147/103/200 148/104/202
f 135/186/196 145/185/195 149/189/203
f 149/189/203 145/185/195 146/188/204
f 148/272/205 136/269/184 149/273/206
f 149/273/206 136/269/184 135/268/183
f 150/182/207 140/179/187 151/183/208
f 151/183/208 140/179/187 139/178/189
f 147/103/200 150/106/209 148/104/202
f 148/104/202 150/106/209 151/107/210
f 139/274/211 136/269/184 151/276/212
f 151/276/212 136/269/184 148/272/205
f 136/269/184 139/274/211 137/270/186
f 137/270/186 139/274/211 142/275/213
f 143/97/191 137/96/193 141/100/214
f 141/100/214 137/96/193 142/101/215
f 147/277/216 152/278/217 150/280/218
f 150/280/218 152/278/217 140/279/219
f 152/278/217 143/283/220 140/279/219
f 140/279/219 143/283/220 141/284/221
f 145/281/222 152/278/217 146/282/223
f 146/282/223 152/278/217 147/277/216
f 144/285/224 143/283/220 145/281/222
f 145/281/222 143/283/220 152/278/217
