# This file uses centimeters as units for non-parametric coordinates.

v -0.068480 0.007849 0.108252
v -0.045687 0.010592 0.129670
v -0.022435 0.007849 0.108253
v -0.077553 0.015995 -0.002710
v -0.046006 0.018250 -0.002711
v -0.016233 0.013687 -0.001190
v -0.071946 0.013725 -0.102082
v -0.042309 0.014145 -0.098687
v -0.025268 0.010693 -0.085645
v -0.082309 -0.011605 -0.117147
v -0.046513 -0.006739 -0.163055
v -0.005337 -0.012298 -0.110024
v -0.073174 -0.035656 -0.119489
v -0.043939 -0.042471 -0.124305
v -0.013055 -0.037306 -0.114700
v -0.078158 -0.044839 -0.002711
v -0.045687 -0.047050 -0.002711
v -0.010979 -0.044839 -0.002711
v -0.069155 -0.036370 0.105010
v -0.045687 -0.035598 0.126429
v -0.021807 -0.036370 0.105011
v -0.075111 -0.018071 0.112745
v -0.045687 -0.018071 0.134164
v -0.016263 -0.018071 0.112746
v -0.003139 -0.013481 -0.002711
v -0.086635 -0.013481 -0.002711
v -0.075123 0.013292 -0.065711
v -0.045907 0.017444 -0.065553
v -0.022841 0.009191 -0.061882
v -0.006159 -0.012162 -0.076761
v -0.008902 -0.043013 -0.076236
v -0.046183 -0.048248 -0.078071
v -0.079344 -0.044767 -0.073606
v -0.087739 -0.012833 -0.071905
v -0.077734 -0.011288 -0.139772
v -0.041269 -0.040650 -0.161089
v -0.021546 -0.011644 -0.138610
v -0.052711 0.010578 -0.130313
v -0.070534 0.007514 -0.130591
v -0.067924 -0.033349 -0.155756
v -0.028167 0.002891 -0.131351
v -0.022383 -0.044478 -0.150429
v -0.072035 0.007462 0.078519
v -0.047448 0.012884 0.088395
v -0.019953 0.007013 0.079139
v -0.011529 -0.015621 0.078420
v -0.018361 -0.033431 0.073975
v -0.046028 -0.034829 0.081394
v -0.073067 -0.033642 0.071919
v -0.080845 -0.015381 0.069409
vt 0.777009 0.633913
vt 0.776634 0.650304
vt 0.762294 0.647623
vt 0.758182 0.627136
vt 0.785344 0.638075
vt 0.789817 0.664283
vt 0.776712 0.669376
vt 0.759023 0.669678
vt 0.779822 0.619896
vt 0.760377 0.621024
vt 0.788956 0.677908
vt 0.775956 0.711837
vt 0.757975 0.711837
vt 0.791534 0.712709
vt 0.774729 0.758357
vt 0.764517 0.755808
vt 0.787707 0.758769
vt 0.773324 0.778040
vt 0.762831 0.773604
vt 0.788186 0.775463
vt 0.763274 0.785885
vt 0.773324 0.790321
vt 0.789759 0.787744
vt 0.633621 0.679759
vt 0.643829 0.681162
vt 0.644891 0.721478
vt 0.627362 0.721479
vt 0.632095 0.661260
vt 0.642325 0.656936
vt 0.656599 0.676069
vt 0.661369 0.721478
vt 0.645253 0.760159
vt 0.627402 0.761110
vt 0.632527 0.649287
vt 0.642325 0.644963
vt 0.656815 0.659448
vt 0.659858 0.756697
vt 0.645940 0.785450
vt 0.632495 0.786760
vt 0.658348 0.647475
vt 0.660100 0.777029
vt 0.646117 0.798098
vt 0.633785 0.807033
vt 0.656628 0.792966
vt 0.168713 0.680465
vt 0.182089 0.675092
vt 0.182873 0.724655
vt 0.165711 0.724654
vt 0.170647 0.664290
vt 0.183047 0.652638
vt 0.197046 0.680128
vt 0.199070 0.723827
vt 0.182927 0.758842
vt 0.167033 0.758928
vt 0.195696 0.664289
vt 0.195475 0.756844
vt 0.184884 0.776867
vt 0.168761 0.778714
vt 0.194155 0.769772
vt 0.179225 0.794072
vt 0.169529 0.794223
vt 0.192577 0.794637
vt 0.165613 0.799217
vt 0.182597 0.811884
vt 0.196179 0.798585
vt 0.707929 0.678535
vt 0.710738 0.659124
vt 0.725005 0.656269
vt 0.723576 0.675957
vt 0.735113 0.661975
vt 0.740106 0.681098
vt 0.722375 0.700703
vt 0.704626 0.703093
vt 0.742329 0.701685
vt 0.722641 0.741039
vt 0.705261 0.741038
vt 0.741218 0.741039
vt 0.722458 0.786054
vt 0.707986 0.780983
vt 0.737266 0.782084
vt 0.722641 0.810159
vt 0.710079 0.798695
vt 0.735422 0.798695
vt 0.193927 0.991253
vt 0.191368 0.973691
vt 0.210443 0.970742
vt 0.206336 0.985735
vn -0.006601 0.999228 0.038738
vn 0.044669 0.998813 0.019407
vn -0.656639 0.747127 0.103088
vn -0.717102 0.695379 0.047052
vn 0.558702 0.826896 0.063998
vn 0.689494 0.724216 0.010432
vn -0.598262 0.800687 -0.031347
vn 0.108549 0.993678 -0.028650
vn -0.489546 0.863495 -0.121326
vn 0.173063 0.975840 -0.133366
vn 0.582374 0.811553 -0.047138
vn 0.536118 0.841100 -0.071604
vn -0.595905 0.682695 -0.422876
vn -0.028045 0.906385 -0.421520
vn -0.798660 0.260083 -0.542678
vn 0.067717 0.531235 -0.844514
vn 0.503551 0.797791 -0.331612
vn -0.716054 -0.675093 -0.177527
vn -0.618938 -0.555616 -0.555163
vn -0.105499 -0.993092 -0.051362
vn 0.176606 -0.533188 -0.827358
vn 0.938784 0.264680 -0.220518
vn 0.683053 -0.698848 -0.212252
vn 0.784696 0.238726 -0.572068
vn 0.602730 -0.684018 -0.410896
vn 0.000552 -0.995093 -0.098945
vn -0.538484 -0.838262 -0.085736
vn 0.758166 -0.649768 -0.054639
vn -0.781115 -0.620062 0.073369
vn 0.002826 -0.997140 0.075523
vn -0.473834 -0.875292 0.096673
vn 0.001122 -0.999908 0.013503
vn 0.638257 -0.764928 0.086681
vn 0.599859 -0.794124 0.097658
vn -0.591847 -0.785176 0.182252
vn -0.000101 -0.787471 0.616352
vn -0.869982 -0.058119 0.489646
vn -0.001270 0.022765 0.999740
vn 0.599674 -0.779441 0.181282
vn 0.817435 -0.136572 0.559596
vn -0.642871 0.644277 0.414275
vn -0.008705 0.816490 0.577294
vn 0.714342 0.600871 0.358705
vn 0.993965 0.045190 0.099962
vn 0.996217 0.083842 0.022858
vn 0.928381 0.371399 -0.013091
vn -0.992257 -0.066548 0.104866
vn -0.994122 0.104402 0.028667
vn -0.997444 0.031368 -0.064199
vn -0.978522 0.134338 -0.156359
f 44/46/1 5/47/2 43/45/3
f 43/45/3 5/47/2 4/48/4
f 44/46/1 45/51/5 5/47/2
f 5/47/2 45/51/5 6/52/6
f 27/54/7 28/53/8 7/58/9
f 7/58/9 28/53/8 8/57/10
f 29/56/11 9/59/12 28/53/8
f 28/53/8 9/59/12 8/57/10
f 39/61/13 38/60/14 35/63/15
f 35/63/15 38/60/14 11/64/16
f 9/59/12 41/62/17 8/57/10
f 8/57/10 41/62/17 38/60/14
f 13/66/18 40/67/19 14/69/20
f 14/69/20 40/67/19 36/68/21
f 12/2/22 15/3/23 37/1/24
f 37/1/24 15/3/23 42/4/25
f 14/69/20 32/72/26 13/66/18
f 13/66/18 32/72/26 33/73/27
f 14/69/20 15/71/23 32/72/26
f 32/72/26 15/71/23 31/74/28
f 16/76/29 17/75/30 49/79/31
f 49/79/31 17/75/30 48/78/32
f 18/77/33 47/80/34 17/75/30
f 17/75/30 47/80/34 48/78/32
f 19/28/35 20/34/36 22/29/37
f 22/29/37 20/34/36 23/35/38
f 21/19/39 24/18/40 20/21/36
f 20/21/36 24/18/40 23/22/38
f 22/29/37 23/35/38 1/36/41
f 1/36/41 23/35/38 2/40/42
f 24/18/40 3/20/43 23/22/38
f 23/22/38 3/20/43 2/23/42
f 46/15/44 47/16/34 25/12/45
f 25/12/45 47/16/34 18/13/33
f 45/17/5 46/15/44 6/14/6
f 6/14/6 46/15/44 25/12/45
f 30/7/46 31/8/28 12/2/22
f 12/2/22 31/8/28 15/3/23
f 29/11/11 30/7/46 9/6/12
f 9/6/12 30/7/46 12/2/22
f 49/24/31 50/25/47 16/27/29
f 16/27/29 50/25/47 26/26/48
f 43/30/3 4/31/4 50/25/47
f 50/25/47 4/31/4 26/26/48
f 33/33/27 34/32/49 13/39/18
f 13/39/18 34/32/49 10/38/50
f 27/37/7 7/41/9 34/32/49
f 34/32/49 7/41/9 10/38/50
f 4/48/4 5/47/2 27/54/7
f 27/54/7 5/47/2 28/53/8
f 6/52/6 29/56/11 5/47/2
f 5/47/2 29/56/11 28/53/8
f 6/14/6 25/12/45 29/11/11
f 29/11/11 25/12/45 30/7/46
f 18/13/33 31/8/28 25/12/45
f 25/12/45 31/8/28 30/7/46
f 32/72/26 31/74/28 17/75/30
f 17/75/30 31/74/28 18/77/33
f 32/72/26 17/75/30 33/73/27
f 33/73/27 17/75/30 16/76/29
f 26/26/48 34/32/49 16/27/29
f 16/27/29 34/32/49 33/33/27
f 4/31/4 27/37/7 26/26/48
f 26/26/48 27/37/7 34/32/49
f 35/84/15 11/85/16 40/87/19
f 40/87/19 11/85/16 36/86/21
f 11/9/16 37/1/24 36/10/21
f 36/10/21 37/1/24 42/4/25
f 38/60/14 41/62/17 11/64/16
f 11/64/16 41/62/17 37/65/24
f 7/41/9 39/44/13 10/38/50
f 10/38/50 39/44/13 35/42/15
f 8/57/10 38/60/14 7/58/9
f 7/58/9 38/60/14 39/61/13
f 10/38/50 35/42/15 13/39/18
f 13/39/18 35/42/15 40/43/19
f 9/6/12 12/2/22 41/5/17
f 41/5/17 12/2/22 37/1/24
f 15/71/23 14/69/20 42/70/25
f 42/70/25 14/69/20 36/68/21
f 2/50/42 44/46/1 1/49/41
f 1/49/41 44/46/1 43/45/3
f 2/50/42 3/55/43 44/46/1
f 44/46/1 3/55/43 45/51/5
f 24/18/40 46/15/44 3/20/43
f 3/20/43 46/15/44 45/17/5
f 24/18/40 21/19/39 46/15/44
f 46/15/44 21/19/39 47/16/34
f 47/80/34 21/83/39 48/78/32
f 48/78/32 21/83/39 20/81/36
f 49/79/31 48/78/32 19/82/35
f 19/82/35 48/78/32 20/81/36
f 22/29/37 50/25/47 19/28/35
f 19/28/35 50/25/47 49/24/31
f 1/36/41 43/30/3 22/29/37
f 22/29/37 43/30/3 50/25/47
