# This file uses centimeters as units for non-parametric coordinates.

v -0.000858 0.012212 0.088285
v 0.011047 0.015075 0.093522
v 0.029775 0.013129 0.084805
v -0.026594 0.045244 0.033397
v 0.005746 0.056774 0.033785
v 0.043326 0.044781 0.039360
v -0.021727 0.039891 -0.089227
v 0.008440 0.053706 -0.081437
v 0.047278 0.043321 -0.076509
v -0.045713 0.007211 -0.093338
v 0.011414 -0.000659 -0.115447
v 0.070601 0.001872 -0.075425
v -0.027191 -0.051507 -0.098106
v 0.006382 -0.065579 -0.096282
v 0.049273 -0.055531 -0.087526
v -0.030958 -0.047952 0.031039
v 0.007986 -0.061026 0.032529
v 0.044835 -0.051072 0.035645
v -0.001218 -0.019157 0.086653
v 0.011201 -0.017693 0.091941
v 0.030408 -0.018240 0.083271
v -0.006122 -0.006176 0.089983
v 0.010833 -0.005259 0.095714
v 0.034261 -0.005259 0.087456
v 0.057315 -0.002575 0.040873
v -0.037250 -0.000940 0.035020
v -0.027676 0.048342 -0.037661
v 0.008797 0.060859 -0.037015
v 0.039596 0.052563 -0.037049
v 0.057696 0.008605 -0.028626
v 0.051307 -0.050214 -0.029085
v 0.010811 -0.069762 -0.043201
v -0.038222 -0.052523 -0.054208
v -0.052674 0.001510 -0.033449
v -0.028104 0.001882 -0.113611
v 0.012030 -0.040760 -0.114591
v 0.055371 0.002319 -0.110479
v 0.011180 0.032892 -0.110979
v -0.016204 0.020503 -0.110936
v -0.017124 -0.035025 -0.113353
v 0.040906 0.030338 -0.105151
v 0.052679 -0.035914 -0.106828
v -0.013755 0.030480 0.070152
v 0.004610 0.040740 0.072346
v 0.035970 0.030700 0.069143
v 0.048204 -0.008334 0.069030
v 0.042171 -0.033684 0.065677
v 0.012025 -0.043436 0.072949
v -0.014611 -0.035033 0.065336
v -0.024053 -0.003522 0.064025
vt 0.442228 0.145733
vt 0.476347 0.148811
vt 0.476331 0.183935
vt 0.442221 0.182235
vt 0.510432 0.145733
vt 0.510425 0.182235
vt 0.442221 0.223708
vt 0.476331 0.222460
vt 0.476347 0.258487
vt 0.442228 0.259553
vt 0.510425 0.223708
vt 0.510432 0.259553
vt 0.584459 0.259553
vt 0.408103 0.325852
vt 0.442243 0.292596
vt 0.584584 0.292596
vt 0.476396 0.292383
vt 0.616028 0.292383
vt 0.615595 0.258487
vt 0.677226 0.325852
vt 0.677226 0.263421
vt 0.646440 0.259553
vt 0.646565 0.292596
vt 0.615454 0.222460
vt 0.584393 0.223708
vt 0.646373 0.223708
vt 0.584393 0.182235
vt 0.615454 0.183935
vt 0.615595 0.148811
vt 0.584459 0.145733
vt 0.646373 0.182235
vt 0.646440 0.145733
vt 0.584584 0.119225
vt 0.616028 0.119841
vt 0.617370 0.092102
vt 0.553265 0.092102
vt 0.646565 0.119225
vt 0.677226 0.092102
vt 0.677226 0.132662
vt 0.677226 0.175565
vt 0.476548 0.325852
vt 0.510447 0.292596
vt 0.408103 0.092102
vt 0.677226 0.230584
vt 0.553265 0.132662
vt 0.553265 0.175565
vt 0.553265 0.230584
vt 0.553265 0.263421
vt 0.553265 0.325852
vt 0.617370 0.325852
vt 0.476548 0.092102
vt 0.476396 0.119841
vt 0.442243 0.119225
vt 0.544511 0.092102
vt 0.510447 0.119225
vt 0.544511 0.132662
vt 0.544511 0.175565
vt 0.544511 0.230584
vt 0.544511 0.263421
vt 0.408103 0.132662
vt 0.408103 0.175565
vt 0.408103 0.230584
vt 0.408103 0.263421
vt 0.544511 0.325852
vn -0.090493 0.773993 0.626695
vn -0.103465 0.971856 0.211637
vn -0.676308 0.489789 0.550195
vn -0.753220 0.605553 0.256839
vn 0.642394 0.504846 0.576594
vn 0.684043 0.684833 0.251173
vn -0.033453 0.998104 -0.051658
vn 0.014379 0.940213 -0.340284
vn -0.592634 0.802350 -0.070845
vn -0.479350 0.737675 -0.475458
vn 0.537088 0.843347 -0.017423
vn 0.699498 0.695080 -0.166031
vn -0.405844 0.108580 -0.907470
vn -0.343160 0.420503 -0.839892
vn 0.052191 0.062567 -0.996675
vn -0.043559 0.557531 -0.829013
vn 0.450158 0.559670 -0.695793
vn -0.643910 -0.563351 -0.517702
vn -0.353786 -0.294025 -0.887910
vn -0.096923 -0.867443 -0.488005
vn 0.108288 -0.412720 -0.904398
vn 0.575211 0.151741 -0.803808
vn 0.987402 0.086241 -0.132665
vn 0.568178 -0.297748 -0.767151
vn 0.589327 -0.746126 -0.309822
vn -0.735540 -0.674060 -0.068005
vn 0.012312 -0.999154 0.039251
vn 0.803441 -0.588331 0.091370
vn -0.721459 -0.636666 0.272311
vn -0.022697 -0.964991 0.261298
vn -0.649906 -0.523760 0.550725
vn 0.038730 -0.751378 0.658734
vn 0.627575 -0.728122 0.275658
vn 0.716038 -0.463633 0.521857
vn 0.030320 -0.449714 0.892658
vn 0.010451 -0.091939 0.995710
vn -0.489740 -0.422061 0.762902
vn -0.596964 -0.083030 0.797960
vn 0.475431 -0.411652 0.777501
vn 0.582679 -0.079296 0.808825
vn -0.537548 0.290196 0.791725
vn 0.055274 0.423469 0.904223
vn 0.568805 0.280793 0.773056
vn 0.846541 -0.020203 0.531940
vn 0.980483 -0.007037 0.196477
vn 0.968328 0.229913 0.097376
vn -0.838317 -0.049856 0.542899
vn -0.932501 0.014511 0.360876
vn -0.993544 0.091992 0.066397
vn -0.881026 0.164319 -0.443613
f 44/2/1 5/3/2 43/1/3
f 43/1/3 5/3/2 4/4/4
f 45/5/5 6/6/6 44/2/1
f 44/2/1 6/6/6 5/3/2
f 28/8/7 8/9/8 27/7/9
f 27/7/9 8/9/8 7/10/10
f 28/8/7 29/11/11 8/9/8
f 8/9/8 29/11/11 9/12/12
f 35/14/13 39/15/14 11/41/15
f 11/41/15 39/15/14 38/17/16
f 9/12/12 41/42/17 8/9/8
f 8/9/8 41/42/17 38/17/16
f 13/13/18 40/16/19 14/19/20
f 14/19/20 40/16/19 36/18/21
f 37/20/22 12/21/23 42/23/24
f 42/23/24 12/21/23 15/22/25
f 13/13/18 14/19/20 33/25/26
f 33/25/26 14/19/20 32/24/27
f 14/19/20 15/22/25 32/24/27
f 32/24/27 15/22/25 31/26/28
f 16/27/29 17/28/30 49/30/31
f 49/30/31 17/28/30 48/29/32
f 17/28/30 18/31/33 48/29/32
f 48/29/32 18/31/33 47/32/34
f 20/34/35 23/35/36 19/33/37
f 19/33/37 23/35/36 22/36/38
f 20/34/35 21/37/39 23/35/36
f 23/35/36 21/37/39 24/38/40
f 22/43/38 23/51/36 1/53/41
f 1/53/41 23/51/36 2/52/42
f 24/54/40 3/55/43 23/51/36
f 23/51/36 3/55/43 2/52/42
f 46/39/44 47/32/34 25/40/45
f 25/40/45 47/32/34 18/31/33
f 46/56/44 25/57/45 45/5/5
f 45/5/5 25/57/45 6/6/6
f 30/44/46 31/26/28 12/21/23
f 12/21/23 31/26/28 15/22/25
f 29/11/11 30/58/46 9/12/12
f 9/12/12 30/58/46 12/59/23
f 50/45/47 26/46/48 49/30/31
f 49/30/31 26/46/48 16/27/29
f 50/60/47 43/1/3 26/61/48
f 26/61/48 43/1/3 4/4/4
f 34/47/49 10/48/50 33/25/26
f 33/25/26 10/48/50 13/13/18
f 34/62/49 27/7/9 10/63/50
f 10/63/50 27/7/9 7/10/10
f 4/4/4 5/3/2 27/7/9
f 27/7/9 5/3/2 28/8/7
f 6/6/6 29/11/11 5/3/2
f 5/3/2 29/11/11 28/8/7
f 25/57/45 30/58/46 6/6/6
f 6/6/6 30/58/46 29/11/11
f 18/31/33 31/26/28 25/40/45
f 25/40/45 31/26/28 30/44/46
f 32/24/27 31/26/28 17/28/30
f 17/28/30 31/26/28 18/31/33
f 33/25/26 32/24/27 16/27/29
f 16/27/29 32/24/27 17/28/30
f 26/46/48 34/47/49 16/27/29
f 16/27/29 34/47/49 33/25/26
f 26/61/48 4/4/4 34/62/49
f 34/62/49 4/4/4 27/7/9
f 35/49/13 11/50/15 40/16/19
f 40/16/19 11/50/15 36/18/21
f 37/20/22 42/23/24 11/50/15
f 11/50/15 42/23/24 36/18/21
f 38/17/16 41/42/17 11/41/15
f 11/41/15 41/42/17 37/64/22
f 7/10/10 39/15/14 10/63/50
f 10/63/50 39/15/14 35/14/13
f 8/9/8 38/17/16 7/10/10
f 7/10/10 38/17/16 39/15/14
f 35/49/13 40/16/19 10/48/50
f 10/48/50 40/16/19 13/13/18
f 9/12/12 12/59/23 41/42/17
f 41/42/17 12/59/23 37/64/22
f 42/23/24 15/22/25 36/18/21
f 36/18/21 15/22/25 14/19/20
f 2/52/42 44/2/1 1/53/41
f 1/53/41 44/2/1 43/1/3
f 3/55/43 45/5/5 2/52/42
f 2/52/42 45/5/5 44/2/1
f 24/54/40 46/56/44 3/55/43
f 3/55/43 46/56/44 45/5/5
f 24/38/40 21/37/39 46/39/44
f 46/39/44 21/37/39 47/32/34
f 47/32/34 21/37/39 48/29/32
f 48/29/32 21/37/39 20/34/35
f 49/30/31 48/29/32 19/33/37
f 19/33/37 48/29/32 20/34/35
f 22/36/38 50/45/47 19/33/37
f 19/33/37 50/45/47 49/30/31
f 22/43/38 1/53/41 50/60/47
f 50/60/47 1/53/41 43/1/3
