# This file uses centimeters as units for non-parametric coordinates.

v 0.050546 0.035684 0.116611
v 0.066013 0.041558 0.111094
v 0.077371 0.040013 0.095594
v -0.024926 0.025325 0.001529
v -0.004426 0.053849 0.013389
v 0.045129 0.043170 0.017898
v -0.022590 -0.042137 -0.007361
v -0.003369 -0.045862 -0.014363
v 0.031866 -0.045396 0.010812
v 0.039545 -0.050794 0.107885
v 0.046103 -0.048934 0.098385
v 0.052944 -0.047449 0.046850
v 0.037309 -0.015747 0.124436
v 0.074267 -0.013787 0.099753
v 0.070068 -0.013010 0.073492
v -0.031442 -0.017183 -0.004630
v -0.028961 -0.022698 0.072111
v -0.010403 0.032221 0.074220
v -0.000085 0.044946 0.065398
v 0.042394 0.031699 0.057878
v 0.031951 -0.025452 0.069336
v 0.022889 -0.061578 0.042994
v -0.001245 -0.064327 0.040412
v -0.014494 -0.059529 0.047980
v 0.042696 0.043473 0.090407
v 0.055921 0.037235 0.079016
v 0.072247 0.050559 0.064586
v 0.061242 0.058060 0.078605
v 0.032797 -0.011093 0.021275
v -0.007056 -0.009935 -0.025147
v 0.076036 0.022794 0.102678
v 0.044638 0.027583 0.012336
v -0.006083 0.011301 -0.017595
v 0.017892 0.038726 0.059303
v 0.043319 0.085326 0.039328
v 0.068074 0.066636 0.023449
v -0.018178 -0.022586 0.104894
v 0.054288 0.038819 0.085167
v 0.000932 -0.056895 0.097826
v 0.012207 0.036502 0.109558
v 0.030346 0.044726 0.103486
v 0.024616 -0.056361 0.068276
v 0.010272 -0.056311 0.088910
vt 0.833838 0.366247
vt 0.823515 0.356368
vt 0.862777 0.356368
vt 0.862777 0.363373
vt 0.823515 0.343550
vt 0.820313 0.415256
vt 0.829034 0.423658
vt 0.862777 0.343550
vt 0.853235 0.390162
vt 0.872994 0.402289
vt 0.823515 0.402289
vt 0.831284 0.390350
vt 0.835960 0.422057
vt 0.837900 0.415256
vt 0.800550 0.390737
vt 0.786530 0.402289
vt 0.786530 0.380378
vt 0.800766 0.379090
vt 0.847175 0.432153
vt 0.830829 0.433660
vt 0.786530 0.363373
vt 0.799621 0.366464
vt 0.850204 0.439087
vt 0.820547 0.425106
vt 0.840945 0.427257
vt 0.866720 0.428607
vt 0.849817 0.421158
vt 0.872861 0.439120
vt 0.815879 0.378790
vt 0.814708 0.366990
vt 0.834023 0.378358
vt 0.809697 0.356368
vt 0.872861 0.448559
vt 0.814398 0.390504
vt 0.823515 0.350799
vt 0.849952 0.451414
vt 0.862777 0.350799
vt 0.872994 0.363373
vt 0.872994 0.380378
vt 0.855797 0.378032
vt 0.795817 0.356368
vt 0.851363 0.466087
vt 0.809697 0.402289
vt 0.872861 0.480593
vt 0.872861 0.428607
vt 0.816006 0.429958
vt 0.830441 0.480593
vt 0.831275 0.466253
vt 0.788746 0.480593
vt 0.803876 0.466885
vt 0.804965 0.453649
vt 0.788564 0.453945
vt 0.802040 0.441845
vt 0.788962 0.440455
vt 0.825380 0.451922
vt 0.811113 0.433134
vt 0.817341 0.440140
vt 0.817918 0.466413
vt 0.811139 0.480593
vt 0.796893 0.433134
vn -0.146828 0.984894 0.091786
vn -0.284057 0.849944 -0.443742
vn -0.823020 0.504323 0.261337
vn -0.866983 0.412768 -0.279218
vn -0.129781 -0.551918 0.823738
vn 0.549814 -0.653145 0.520679
vn 0.311216 0.550101 0.774941
vn 0.979939 -0.103845 0.170107
vn 0.859884 -0.060479 0.506894
vn 0.200740 0.268341 0.942177
vn 0.798260 -0.292857 0.526322
vn 0.157645 -0.189362 0.969170
vn 0.544038 0.145628 -0.826326
vn 0.937253 -0.318949 -0.140814
vn 0.781824 0.056435 -0.620940
vn -0.448957 0.574167 0.684668
vn -0.738327 -0.018047 0.674202
vn -0.975159 -0.113971 0.189935
vn -0.015690 0.984422 0.175121
vn -0.358436 0.811731 0.461104
vn 0.822028 -0.136035 -0.552960
vn 0.037217 0.997075 -0.066761
vn -0.009488 0.313951 -0.949392
vn -0.910385 -0.040318 -0.411794
vn -0.043602 -0.022785 -0.998789
vn 0.921259 -0.115145 -0.371516
vn 0.243423 -0.550367 -0.798650
vn 0.669989 -0.587574 -0.453731
vn -0.623635 -0.600865 -0.500041
vn 0.354078 0.774789 0.523767
vn -0.045601 -0.993067 -0.108344
vn -0.627798 -0.775618 0.065480
vn 0.794448 -0.607158 -0.014575
vn 0.321762 -0.826044 0.462731
vn 0.603226 -0.767730 0.216123
vn 0.258479 -0.398781 -0.879865
vn 0.804657 -0.015403 -0.593540
vn 0.830679 0.526017 -0.182426
vn 0.728729 0.043740 -0.683404
vn 0.328749 0.724955 -0.605280
vn 0.264674 -0.961041 -0.079674
vn 0.093210 -0.991892 0.086380
vn -0.380978 -0.775898 0.502831
f 19/2/1 5/3/2 18/1/3
f 18/1/3 5/3/2 4/4/4
f 25/6/5 26/7/6 28/14/7
f 28/14/7 26/7/6 27/13/8
f 31/21/9 1/22/10 14/17/11
f 14/17/11 1/22/10 13/18/12
f 6/19/13 20/20/14 32/23/15
f 40/30/16 18/1/3 37/29/17
f 37/29/17 18/1/3 17/31/18
f 41/32/19 19/2/1 40/30/16
f 40/30/16 19/2/1 18/1/3
f 34/24/20 20/20/14 25/6/5
f 25/6/5 20/20/14 26/7/6
f 36/25/21 27/13/8 20/20/14
f 20/20/14 27/13/8 26/7/6
f 5/26/2 35/27/22 6/19/13
f 6/19/13 35/27/22 36/25/21
f 19/2/1 34/35/20 5/3/2
f 5/3/2 34/35/20 35/37/22
f 4/4/4 33/38/23 16/40/24
f 16/40/24 33/38/23 30/39/25
f 6/19/13 32/23/15 5/26/2
f 5/26/2 32/23/15 33/28/23
f 30/33/25 29/36/26 8/44/27
f 8/44/27 29/36/26 9/42/28
f 16/40/24 30/39/25 7/9/29
f 7/9/29 30/39/25 8/10/27
f 32/23/15 29/36/26 33/28/23
f 33/28/23 29/36/26 30/33/25
f 35/37/22 34/35/20 28/8/7
f 28/8/7 34/35/20 25/5/5
f 36/25/21 35/27/22 27/13/8
f 27/13/8 35/27/22 28/14/7
f 20/20/14 6/19/13 36/25/21
f 37/29/17 13/18/12 40/30/16
f 40/30/16 13/18/12 1/22/10
f 2/41/30 41/32/19 1/22/10
f 1/22/10 41/32/19 40/30/16
f 1/22/10 31/21/9 2/41/30
f 33/28/23 4/45/4 5/26/2
f 19/46/1 20/20/14 34/24/20
f 8/10/27 23/11/31 7/9/29
f 7/9/29 23/11/31 24/12/32
f 8/44/27 9/42/28 23/47/31
f 23/47/31 9/42/28 22/48/33
f 10/15/34 11/16/35 13/18/12
f 13/18/12 11/16/35 14/17/11
f 12/50/36 15/51/37 11/49/35
f 11/49/35 15/51/37 14/52/11
f 3/53/38 31/54/9 15/51/37
f 15/51/37 31/54/9 14/52/11
f 21/55/39 22/48/33 29/36/26
f 29/36/26 22/48/33 9/42/28
f 38/57/40 20/20/14 41/56/19
f 41/56/19 20/20/14 19/46/1
f 21/55/39 20/20/14 38/57/40
f 42/58/41 21/55/39 12/50/36
f 12/50/36 21/55/39 15/51/37
f 43/59/42 42/58/41 11/49/35
f 11/49/35 42/58/41 12/50/36
f 39/34/43 43/43/42 10/15/34
f 10/15/34 43/43/42 11/16/35
f 37/29/17 17/31/18 39/34/43
f 39/34/43 17/31/18 24/12/32
f 37/29/17 39/34/43 13/18/12
f 13/18/12 39/34/43 10/15/34
f 41/56/19 2/60/30 38/57/40
f 38/57/40 2/60/30 3/53/38
f 31/54/9 3/53/38 2/60/30
f 32/23/15 20/20/14 29/36/26
f 29/36/26 20/20/14 21/55/39
f 39/34/43 24/12/32 43/43/42
f 43/43/42 24/12/32 23/11/31
f 21/55/39 38/57/40 15/51/37
f 15/51/37 38/57/40 3/53/38
f 43/59/42 23/47/31 42/58/41
f 42/58/41 23/47/31 22/48/33
f 21/55/39 42/58/41 22/48/33
f 17/31/18 16/40/24 24/12/32
f 24/12/32 16/40/24 7/9/29
f 18/1/3 4/4/4 17/31/18
f 17/31/18 4/4/4 16/40/24
