# This file uses centimeters as units for non-parametric coordinates.

v -0.162689 0.500000 0.000000
v 0.128229 0.500000 0.000000
v -0.028314 0.295491 0.000000
v 0.266109 -0.500000 0.000000
v 0.269060 0.500000 0.000000
v 0.414447 0.142519 0.000000
v 0.408183 -0.285528 0.000000
v 0.035889 -0.500000 0.000000
v -0.194592 -0.500000 0.000000
v -0.028754 -0.357803 0.000000
v -0.282022 0.500000 0.000000
v -0.313995 -0.500000 0.000000
v -0.462496 -0.163573 0.000000
v -0.430409 0.340723 0.000000
vt 0.683409 0.524741
vt 0.656972 0.508586
vt 0.634278 0.524741
vt 0.706695 0.445748
vt 0.730689 0.462690
vt 0.731746 0.496502
vt 0.707193 0.524741
vt 0.628891 0.445748
vt 0.656898 0.456981
vt 0.667815 0.445748
vt 0.608726 0.445749
vt 0.583646 0.472324
vt 0.589065 0.512159
vt 0.614125 0.524741
vn 0.000000 0.000000 1.000000
vn 0.000000 0.000000 1.000000
vn 0.000000 0.000000 1.000000
vn 0.000000 0.000000 1.000000
vn 0.000000 0.000000 1.000000
vn 0.000000 0.000000 1.000000
vn 0.000000 0.000000 1.000000
vn 0.000000 0.000000 1.000000
vn 0.000000 0.000000 1.000000
vn 0.000000 0.000000 1.000000
vn 0.000000 0.000000 1.000000
vn 0.000000 0.000000 1.000000
vn 0.000000 0.000000 1.000000
vn 0.000000 0.000000 1.000000
vn 0.000000 0.000000 1.000000
vn 0.000000 0.000000 1.000000
vn 0.000000 0.000000 1.000000
vn 0.000000 0.000000 1.000000
vn 0.000000 0.000000 1.000000
vn 0.000000 0.000000 1.000000
vn 0.000000 0.000000 1.000000
vn 0.000000 0.000000 1.000000
vn 0.000000 0.000000 1.000000
vn 0.000000 0.000000 1.000000
f 8/10/1 4/4/2 2/1/3
f 2/1/3 4/4/2 5/7/4
f 5/7/5 4/4/6 6/6/7
f 6/6/7 4/4/6 7/5/8
f 12/11/9 9/8/10 11/14/11
f 11/14/11 9/8/10 1/3/12
f 2/1/13 3/2/14 8/10/15
f 8/10/15 3/2/14 10/9/16
f 12/11/17 11/14/18 13/12/19
f 13/12/19 11/14/18 14/13/20
f 1/3/21 9/8/22 3/2/23
f 3/2/23 9/8/22 10/9/24
