# This file uses centimeters as units for non-parametric coordinates.

v -0.500000 0.138246 0.000000
v -0.500000 0.288367 0.000000
v -0.326536 0.433390 0.000000
v 0.248446 0.433497 0.000000
v 0.449000 0.264124 0.000000
v 0.408699 0.097293 0.000000
v 0.270646 0.020101 0.000000
v 0.420132 -0.127041 0.000000
v 0.460514 -0.316398 0.000000
v 0.304477 -0.453784 0.000000
v -0.132716 -0.483591 0.000000
v -0.394946 -0.376864 0.000000
v -0.415173 -0.045926 0.000000
v -0.317983 0.030962 0.000000
vt 0.699792 0.896579
vt 0.748561 0.977126
vt 0.910215 0.977185
vt 0.966600 0.883114
vt 0.955269 0.790454
vt 0.916456 0.747581
vt 0.958484 0.665857
vt 0.969837 0.560687
vt 0.925968 0.484381
vt 0.803053 0.467826
vt 0.729328 0.527103
vt 0.723641 0.710909
vt 0.750966 0.753614
vt 0.699792 0.813200
vn 0.000000 0.000000 1.000000
vn 0.000000 0.000000 1.000000
vn 0.000000 0.000000 1.000000
vn 0.000000 0.000000 1.000000
vn 0.000000 0.000000 1.000000
vn 0.000000 0.000000 1.000000
vn 0.000000 0.000000 1.000000
vn 0.000000 0.000000 1.000000
vn 0.000000 0.000000 1.000000
vn 0.000000 0.000000 1.000000
vn 0.000000 0.000000 1.000000
vn 0.000000 0.000000 1.000000
vn 0.000000 0.000000 1.000000
vn 0.000000 0.000000 1.000000
vn 0.000000 0.000000 1.000000
vn 0.000000 0.000000 1.000000
vn 0.000000 0.000000 1.000000
vn 0.000000 0.000000 1.000000
vn 0.000000 0.000000 1.000000
vn 0.000000 0.000000 1.000000
vn 0.000000 0.000000 1.000000
vn 0.000000 0.000000 1.000000
vn 0.000000 0.000000 1.000000
vn 0.000000 0.000000 1.000000
f 13/12/1 12/11/2 8/7/3
f 8/7/3 12/11/2 9/8/4
f 12/11/5 11/10/6 9/8/7
f 9/8/7 11/10/6 10/9/8
f 5/4/9 4/3/10 2/1/11
f 2/1/11 4/3/10 3/2/12
f 8/7/13 7/6/14 13/12/15
f 13/12/15 7/6/14 14/13/16
f 5/4/17 2/1/18 6/5/19
f 6/5/19 2/1/18 1/14/20
f 1/14/21 14/13/22 6/5/23
f 6/5/23 14/13/22 7/6/24
