# This file uses centimeters as units for non-parametric coordinates.

v -0.269470 -0.269470 0.269470
v 0.269470 -0.269470 0.269470
v -0.269470 0.269470 0.269470
v 0.269470 0.269470 0.269470
v -0.269470 0.269470 -0.269470
v 0.269470 0.269470 -0.269470
v -0.269470 -0.269470 -0.269470
v 0.269470 -0.269470 -0.269470
v -0.218235 0.275496 -0.275496
v -0.218235 -0.275496 -0.275496
v -0.218235 -0.275496 0.275496
v -0.218235 0.275496 0.275496
v 0.219060 0.275496 -0.275496
v 0.219060 -0.275496 -0.275496
v 0.219060 -0.275496 0.275496
v 0.219060 0.275496 0.275496
v 0.275496 0.275496 -0.214934
v 0.239653 0.300586 -0.235371
v -0.239067 0.300586 -0.235371
v -0.275496 0.275496 -0.214934
v -0.275496 -0.275496 -0.214934
v -0.239067 -0.300586 -0.236003
v 0.239653 -0.300586 -0.235371
v 0.275496 -0.275496 -0.214934
v 0.239653 -0.300586 0.237418
v -0.239067 -0.300586 0.237418
v -0.275496 -0.275496 0.216746
v -0.275496 0.275496 0.216746
v -0.239067 0.300586 0.237418
v 0.239653 0.300586 0.237418
v 0.275496 0.275496 0.216746
v 0.275496 -0.275496 0.216746
v 0.239653 0.237632 0.300586
v -0.238749 0.233629 0.289045
v -0.275496 0.217070 0.275496
v -0.300586 0.237632 0.237418
v -0.300586 0.237632 -0.235371
v -0.275496 0.217070 -0.275496
v -0.239067 0.237632 -0.300586
v 0.239653 0.237632 -0.300586
v 0.275496 0.217070 -0.275496
v 0.300586 0.237632 -0.235371
v 0.300586 0.237632 0.237418
v 0.275496 0.217070 0.275496
v 0.239653 -0.246683 0.300586
v -0.239067 -0.246683 0.300586
v -0.275496 -0.225251 0.275496
v -0.300586 -0.246683 0.237418
v -0.300586 -0.236372 -0.235371
v -0.275496 -0.215539 -0.275496
v -0.239067 -0.236372 -0.300586
v 0.239653 -0.236372 -0.300586
v 0.275496 -0.215539 -0.275496
v 0.300586 -0.236372 -0.235371
v 0.300586 -0.246683 0.237418
v 0.275496 -0.225251 0.275496
v 0.000367 0.269794 0.013142
v 0.270161 0.009368 0.011566
v 0.000367 0.009887 0.263563
v -0.276883 0.009901 0.013184
v 0.000369 -0.269794 0.013142
v 0.000367 0.009887 -0.297121
v 0.232173 0.009381 0.292030
v 0.267654 0.009381 0.267654
v 0.292030 0.009381 0.229705
v 0.292030 0.009382 -0.227787
v 0.267654 0.009382 -0.267654
v 0.232173 0.009382 -0.292030
v -0.231281 0.009382 -0.292030
v -0.267654 0.009382 -0.267654
v -0.292030 0.009382 -0.227788
v -0.292030 0.009382 0.229705
v -0.267654 0.009382 0.267654
v -0.231281 0.009382 0.292030
v -0.292030 0.230055 0.011754
v -0.267654 0.267654 0.011754
v -0.231281 0.292030 0.011757
v 0.292030 0.230055 0.011602
v 0.267654 0.267654 0.011602
v 0.232173 0.292030 0.011602
v 0.232173 -0.292030 0.011623
v 0.267654 -0.267654 0.011623
v 0.292030 -0.238721 0.011623
v -0.231281 -0.292030 0.011600
v -0.267654 -0.267654 0.011600
v -0.292030 -0.238721 0.011600
v -0.006353 0.230055 -0.292030
v -0.006353 0.267654 -0.267654
v -0.006353 0.292030 -0.227787
v -0.006355 0.292030 0.229705
v -0.006355 0.267654 0.267654
v -0.006355 0.230055 0.292030
v -0.006354 -0.292030 0.229705
v -0.006354 -0.267654 0.267654
v -0.006354 -0.238721 0.292030
v -0.006354 -0.292030 -0.228419
v -0.006354 -0.267654 -0.267654
v -0.006354 -0.228410 -0.292030
vt -0.002803 -0.003591
vt 1.000000 0.000000
vt -0.002803 0.996409
vt 0.995609 0.991798
vt 0.000000 -0.010737
vt 1.000000 0.996633
vt 0.004729 0.991017
vt 1.004729 0.991017
vt 0.004729 -0.000094
vt 1.004729 -0.000094
vt 0.005866 0.001957
vt 0.005866 0.991798
vt 0.996764 -0.003591
vt 0.996764 0.996409
vt 0.105034 0.996633
vt 0.105034 0.989263
vt 0.105034 0.000000
vt 0.109763 -0.000094
vt 0.105034 1.000000
vt 0.890529 -0.010737
vt 0.895258 0.991017
vt 0.890529 0.000000
vt 0.895258 -0.000094
vt 0.890529 1.000000
vt 1.000000 0.882201
vt 0.154053 0.991798
vt 0.891308 0.882624
vt 0.103721 0.882624
vt 0.862578 0.996409
vt 0.000000 0.882201
vt 0.862578 -0.003591
vt 0.004729 0.873308
vt 0.109763 0.873308
vt 0.895258 0.873308
vt 1.004729 0.873308
vt 0.154053 0.001957
vt 0.895258 0.125427
vt 0.109763 0.125427
vt 0.131525 -0.003591
vt 0.004729 0.125427
vt 0.131525 0.996409
vt 0.000000 0.103112
vt 0.103721 0.103402
vt 0.891308 0.103402
vt 1.000000 0.103112
vt 0.862602 0.991798
vt 1.004729 0.125427
vt 0.862602 0.001957
vt 0.890529 0.857602
vt 0.105034 0.857602
vt 0.000000 0.857602
vt 0.131525 0.854011
vt 0.862578 0.854011
vt 0.996764 0.854011
vt 0.000000 0.108442
vt 0.105034 0.108442
vt 0.890529 0.108442
vt 1.000000 0.108442
vt 0.005866 0.850847
vt 0.154053 0.850847
vt 0.862602 0.850847
vt 1.000000 0.857602
vt 0.890529 0.127645
vt 0.105034 0.127645
vt -0.002803 0.124054
vt 0.131525 0.124054
vt 0.862578 0.124054
vt 0.996764 0.124054
vt 0.000000 0.892575
vt 0.105034 0.892575
vt 0.890529 0.892575
vt 1.000000 0.892575
vt 0.005866 0.128305
vt 0.154053 0.128305
vt 0.862602 0.128305
vt 0.995609 0.128305
vt 0.534957 0.482400
vt 0.504497 0.491284
vt 0.534957 0.494350
vt 0.496774 0.490758
vt 0.539686 0.491697
vt 0.534957 0.500509
vt 0.890529 0.494640
vt 0.995609 0.491598
vt 0.862602 0.491579
vt 0.154053 0.491387
vt 1.000000 0.478832
vt 0.005866 0.491394
vt 0.890529 0.480430
vt 0.105034 0.504251
vt 0.996764 0.490736
vt 0.000000 0.504858
vt 0.862578 0.490740
vt 0.131525 0.490760
vt 0.000000 0.494349
vt 0.105034 0.494351
vt 0.499526 0.854011
vt 0.499769 0.996409
vt 0.000000 0.480958
vt 0.103721 0.481114
vt 0.495963 0.850847
vt 1.000000 0.482523
vt 0.495344 0.991798
vt 0.891308 0.482508
vt 0.895258 0.485482
vt 1.004729 0.484728
vt 0.511456 0.001957
vt 0.511053 0.128305
vt 0.109763 0.501475
vt 0.496489 -0.003591
vt 0.004729 0.501979
vt 0.496498 0.124054
vt 0.534806 0.108442
vt 0.534792 -0.010737
vt 0.534814 0.882624
vt 0.535000 0.103402
vt 0.535004 -0.003367
vt 0.535002 0.857602
vt 0.539689 0.125427
vt 0.534959 0.000000
vt 0.539688 -0.000094
vt 0.534960 0.127645
vt 0.539691 0.873308
vt 0.534961 0.989263
vt 0.534962 0.892575
vt 0.995609 0.850847
vt 1.000000 0.494667
vt 1.000000 1.000000
vt 1.000000 0.127645
vt 0.995609 0.001957
vt 1.000000 -0.003367
vt 0.890529 -0.003367
vt 0.105034 -0.003367
vt 0.535004 1.000000
vt 0.000000 -0.003367
vt -0.002803 0.854011
vt -0.002803 0.490758
vt 0.000000 1.000000
vt 0.000000 0.000000
vt 0.000000 0.127645
vt 0.890529 0.996633
vt 0.534792 0.996633
vt 0.105034 -0.010737
vt 0.000000 0.996633
vt 1.000000 -0.010737
vt 0.890529 0.989263
vt 0.539690 0.991017
vt 0.109763 0.991017
vt 0.000000 0.989263
vt 1.000000 0.989263
vn 0.213886 0.956795 -0.196968
vn 0.360683 0.932686 -0.002145
vn 0.716319 0.697476 -0.020345
vn 0.716503 0.697580 -0.002546
vn 0.591269 0.577419 -0.563016
vn 0.024447 0.716452 -0.697208
vn 0.233282 0.223979 -0.946263
vn 0.959478 0.202507 -0.195944
vn 0.725740 0.019730 -0.687686
vn 0.395272 -0.001768 -0.918562
vn 0.725652 -0.002040 -0.688059
vn 0.944380 -0.001725 -0.328853
vn 0.939236 0.343265 -0.002134
vn 0.725726 -0.020759 -0.687670
vn 0.232751 -0.218842 -0.947594
vn 0.360683 -0.932686 -0.002150
vn 0.000456 -0.999994 -0.003378
vn 0.214074 -0.956725 -0.197102
vn 0.594106 -0.571700 -0.565859
vn 0.704081 -0.709724 -0.023701
vn 0.959251 -0.201019 -0.198566
vn 0.671554 -0.740952 -0.002548
vn 0.914223 -0.405172 -0.005638
vn 0.024546 -0.709588 -0.704189
vn 0.001322 -0.940402 0.340061
vn 0.214856 -0.955315 0.203003
vn 0.001564 -0.751269 0.659994
vn 0.023920 -0.753247 0.657302
vn 0.217666 -0.253646 0.942489
vn 0.563495 -0.618268 0.547921
vn 0.717302 -0.033372 0.695963
vn 0.943963 -0.255824 0.208540
vn 0.668700 -0.743300 0.018559
vn 0.717975 -0.003058 0.696062
vn 0.352919 -0.002641 0.935650
vn 0.001372 -0.418835 0.908061
vn -0.213631 -0.253281 0.943510
vn -0.309519 0.015140 0.950773
vn -0.714065 -0.033290 0.699288
vn -0.713951 -0.003059 0.700189
vn -0.021102 -0.753253 0.657393
vn -0.560482 -0.619720 0.549370
vn -0.210948 -0.956234 0.202777
vn -0.665266 -0.746378 0.018454
vn -0.941814 -0.259807 0.213278
vn -0.936862 -0.002642 0.349689
vn -0.354430 -0.935080 -0.002183
vn -0.667272 -0.744810 -0.002542
vn -0.910765 -0.412885 -0.005822
vn 0.001339 -0.368323 -0.929697
vn 0.000519 -0.000238 -1.000000
vn -0.389286 -0.001773 -0.921115
vn -0.228876 -0.218623 -0.948588
vn -0.210488 -0.957068 -0.199287
vn 0.001511 -0.943201 -0.332220
vn 0.001567 -0.707071 -0.707141
vn -0.701001 -0.712768 -0.023631
vn -0.591402 -0.571933 -0.568451
vn -0.722552 -0.020665 -0.691008
vn -0.957394 -0.205220 -0.203178
vn -0.021510 -0.707937 -0.705948
vn -0.721674 -0.002040 -0.692230
vn -0.999994 -0.002754 -0.002216
vn -0.941373 -0.001730 -0.337363
vn -0.229401 0.223777 -0.947259
vn -0.722564 0.019628 -0.691026
vn 0.001337 0.379592 -0.925153
vn -0.210005 0.957700 -0.196745
vn -0.588340 0.578934 -0.564528
vn -0.713102 0.700767 -0.020269
vn -0.957567 0.207217 -0.200315
vn -0.935924 0.352196 -0.002169
vn -0.712470 0.701698 -0.002582
vn -0.021630 0.716490 -0.697262
vn 0.001567 0.716381 -0.697707
vn 0.001311 0.944451 -0.328650
vn -0.354526 0.935044 -0.002179
vn -0.713122 0.700787 0.018853
vn -0.955999 0.208067 0.206820
vn -0.210950 0.956235 0.202767
vn -0.551698 0.539332 0.636200
vn -0.029786 0.644344 0.764155
vn -0.137876 0.124539 0.982589
vn -0.655453 0.027127 0.754749
vn 0.214856 0.955315 0.203005
vn 0.001322 0.940402 0.340062
vn 0.024375 0.708046 0.705745
vn 0.001567 0.708599 0.705610
vn 0.716344 0.697489 0.018982
vn 0.000486 0.999994 -0.003314
vn -0.005453 0.001605 0.999984
vn -0.016719 0.293500 0.955813
vn 0.999991 -0.003483 -0.002485
vn 0.940152 -0.002634 0.340744
vn 0.587079 0.573202 0.571645
vn 0.957975 0.203470 0.202198
vn 0.717470 0.019660 0.696312
vn 0.211009 0.200231 0.956757
f 18/27/1 80/104/2 17/25/3
f 17/25/3 80/104/2 79/102/4
f 18/27/1 6/6/5 13/141/6
f 6/145/5 40/57/7 13/20/6
f 42/60/8 6/12/5 17/26/3
f 40/57/7 41/58/9 68/89/10
f 68/89/10 41/58/9 67/87/11
f 42/60/8 66/86/12 41/59/9
f 41/59/9 66/86/12 67/88/11
f 79/103/4 78/101/13 17/26/3
f 17/26/3 78/101/13 42/60/8
f 6/6/5 18/27/1 17/25/3
f 40/57/7 6/145/5 41/58/9
f 6/12/5 42/60/8 41/59/9
f 67/87/11 53/72/14 68/89/10
f 68/89/10 53/72/14 52/71/15
f 81/105/16 61/81/17 23/34/18
f 8/150/19 52/71/15 53/72/14
f 23/34/18 8/8/19 24/35/20
f 8/11/19 54/74/21 24/36/20
f 67/88/11 66/86/12 53/73/14
f 53/73/14 66/86/12 54/74/21
f 82/106/22 81/105/16 24/35/20
f 24/35/20 81/105/16 23/34/18
f 82/107/22 24/36/20 83/108/23
f 83/108/23 24/36/20 54/74/21
f 52/71/15 8/150/19 14/146/24
f 54/74/21 8/11/19 53/73/14
f 8/8/19 23/34/18 14/21/24
f 93/119/25 61/81/17 25/37/26
f 94/121/27 93/119/25 15/23/28
f 15/23/28 93/119/25 25/37/26
f 25/37/26 61/81/17 81/105/16
f 45/63/29 2/2/30 56/129/31
f 55/75/32 2/130/30 32/48/33
f 25/37/26 2/10/30 15/23/28
f 64/127/34 63/83/35 56/129/31
f 56/129/31 63/83/35 45/63/29
f 94/120/27 15/22/28 95/122/36
f 95/122/36 15/22/28 45/63/29
f 25/37/26 81/105/16 32/47/33
f 32/47/33 81/105/16 82/106/22
f 82/107/22 83/108/23 32/48/33
f 32/48/33 83/108/23 55/75/32
f 2/2/30 45/63/29 15/22/28
f 2/130/30 55/75/32 56/76/31
f 2/10/30 25/37/26 32/47/33
f 46/64/37 74/96/38 47/140/39
f 47/140/39 74/96/38 73/95/40
f 46/64/37 11/17/41 95/122/36
f 95/122/36 11/17/41 94/120/27
f 46/64/37 1/139/42 11/17/41
f 26/38/43 93/119/25 11/18/41
f 11/18/41 93/119/25 94/121/27
f 26/38/43 1/9/42 27/40/44
f 1/1/42 48/66/45 27/39/44
f 26/38/43 61/81/17 93/119/25
f 73/137/40 72/94/46 47/65/39
f 47/65/39 72/94/46 48/66/45
f 26/38/43 84/109/47 61/81/17
f 85/111/48 84/109/47 27/40/44
f 27/40/44 84/109/47 26/38/43
f 85/110/48 27/39/44 86/112/49
f 86/112/49 27/39/44 48/66/45
f 1/139/42 46/64/37 47/140/39
f 48/66/45 1/1/42 47/65/39
f 1/9/42 26/38/43 11/18/41
f 98/125/50 62/82/51 52/71/15
f 62/82/51 68/89/10 52/71/15
f 69/90/52 62/82/51 51/70/53
f 51/70/53 62/82/51 98/125/50
f 62/82/51 40/57/7 68/89/10
f 61/81/17 22/33/54 96/123/55
f 23/34/18 96/123/55 14/21/24
f 14/21/24 96/123/55 97/147/56
f 61/81/17 96/123/55 23/34/18
f 22/33/54 84/109/47 21/32/57
f 21/32/57 84/109/47 85/111/48
f 84/109/47 22/33/54 61/81/17
f 51/70/53 7/149/58 50/69/59
f 49/67/60 7/13/58 21/31/57
f 22/33/54 7/7/58 10/148/61
f 70/92/62 69/90/52 50/69/59
f 50/69/59 69/90/52 51/70/53
f 97/147/56 96/123/55 10/148/61
f 10/148/61 96/123/55 22/33/54
f 52/71/15 14/146/24 98/125/50
f 98/125/50 14/146/24 97/124/56
f 51/70/53 98/125/50 10/16/61
f 10/16/61 98/125/50 97/124/56
f 85/110/48 86/112/49 21/31/57
f 21/31/57 86/112/49 49/67/60
f 7/149/58 51/70/53 10/16/61
f 7/13/58 49/67/60 50/68/59
f 7/7/58 22/33/54 21/32/57
f 60/80/63 48/66/45 72/94/46
f 60/80/63 86/112/49 48/66/45
f 49/67/60 71/93/64 50/68/59
f 50/68/59 71/93/64 70/91/62
f 49/67/60 86/112/49 60/80/63
f 49/67/60 60/80/63 71/93/64
f 39/56/65 69/90/52 38/55/66
f 38/55/66 69/90/52 70/92/62
f 39/56/65 62/82/51 69/90/52
f 39/56/65 87/113/67 62/82/51
f 87/113/67 40/57/7 62/82/51
f 19/28/68 5/144/69 20/30/70
f 37/53/71 75/97/72 20/29/70
f 20/29/70 75/97/72 76/98/73
f 37/53/71 5/14/69 38/54/66
f 39/56/65 5/5/69 9/143/74
f 88/114/75 87/113/67 9/143/74
f 9/143/74 87/113/67 39/56/65
f 19/28/68 89/115/76 9/15/74
f 9/15/74 89/115/76 88/142/75
f 88/142/75 89/115/76 13/141/6
f 13/141/6 89/115/76 18/27/1
f 88/114/75 13/20/6 87/113/67
f 87/113/67 13/20/6 40/57/7
f 70/91/62 71/93/64 38/54/66
f 38/54/66 71/93/64 37/53/71
f 37/53/71 60/80/63 75/97/72
f 71/93/64 60/80/63 37/53/71
f 5/144/69 19/28/68 9/15/74
f 5/14/69 37/53/71 20/29/70
f 5/5/69 39/56/65 38/55/66
f 76/99/73 77/100/77 20/30/70
f 20/30/70 77/100/77 19/28/68
f 76/98/73 75/97/72 28/41/78
f 28/41/78 75/97/72 36/52/79
f 60/80/63 72/94/46 36/52/79
f 75/97/72 60/80/63 36/52/79
f 29/43/80 3/135/81 12/133/82
f 34/50/83 3/138/81 35/51/84
f 36/52/79 3/3/81 28/41/78
f 36/52/79 72/94/46 35/136/84
f 35/136/84 72/94/46 73/137/40
f 29/43/80 77/100/77 28/42/78
f 28/42/78 77/100/77 76/99/73
f 73/95/40 74/96/38 35/51/84
f 35/51/84 74/96/38 34/50/83
f 3/135/81 29/43/80 28/42/78
f 3/138/81 34/50/83 12/19/82
f 3/3/81 36/52/79 35/136/84
f 30/44/85 90/116/86 16/132/87
f 16/132/87 90/116/86 91/117/88
f 30/44/85 31/45/89 80/104/2
f 80/104/2 31/45/89 79/102/4
f 57/77/90 90/116/86 30/44/85
f 57/77/90 77/100/77 29/43/80
f 57/77/90 29/43/80 90/116/86
f 80/104/2 57/77/90 30/44/85
f 18/27/1 57/77/90 80/104/2
f 59/79/91 46/64/37 95/122/36
f 63/83/35 59/79/91 45/63/29
f 59/79/91 74/96/38 46/64/37
f 59/79/91 95/122/36 45/63/29
f 19/28/68 77/100/77 57/77/90
f 19/28/68 57/77/90 89/115/76
f 89/115/76 57/77/90 18/27/1
f 91/117/88 90/116/86 12/133/82
f 12/133/82 90/116/86 29/43/80
f 34/50/83 92/118/92 12/19/82
f 12/19/82 92/118/92 91/134/88
f 34/50/83 74/96/38 59/79/91
f 34/50/83 59/79/91 92/118/92
f 58/78/93 66/86/12 42/60/8
f 78/101/13 58/78/93 42/60/8
f 58/78/93 54/74/21 66/86/12
f 58/78/93 83/108/23 54/74/21
f 55/75/32 65/85/94 56/76/31
f 56/76/31 65/85/94 64/84/34
f 55/75/32 83/108/23 58/78/93
f 55/75/32 58/78/93 65/85/94
f 30/44/85 4/131/95 31/45/89
f 43/61/96 4/4/95 44/126/97
f 33/49/98 4/128/95 16/24/87
f 33/49/98 63/83/35 44/62/97
f 44/62/97 63/83/35 64/127/34
f 43/61/96 78/101/13 31/46/89
f 31/46/89 78/101/13 79/103/4
f 64/84/34 65/85/94 44/126/97
f 44/126/97 65/85/94 43/61/96
f 43/61/96 58/78/93 78/101/13
f 65/85/94 58/78/93 43/61/96
f 91/134/88 92/118/92 16/24/87
f 16/24/87 92/118/92 33/49/98
f 33/49/98 59/79/91 63/83/35
f 92/118/92 59/79/91 33/49/98
f 4/131/95 30/44/85 16/132/87
f 4/128/95 33/49/98 44/62/97
f 4/4/95 43/61/96 31/46/89
