# This file uses centimeters as units for non-parametric coordinates.

v -5.274824 3.736311 -2.279308
v -5.274824 3.821794 -2.279308
v -5.274824 3.789996 -6.052625
v -5.274824 3.736311 -6.052625
v -2.754474 3.736311 -2.279308
v -2.754474 3.831098 -2.279308
v -2.754474 3.736311 -7.420883
v -2.754474 3.956770 -7.420883
v -7.650207 3.736311 -7.420883
v -7.650207 3.956770 -7.420883
v -7.644343 3.741001 -4.030560
v -7.644343 3.952080 -3.966937
v -7.644343 2.351225 -4.030560
v -7.644343 2.562304 -3.966937
v -7.644343 2.351225 -2.115534
v -7.644343 2.562304 -2.051911
v -7.644343 1.348580 -2.115534
v -7.644343 1.603027 -2.051911
v -7.644344 1.348580 0.648744
v -7.644344 1.603027 0.650378
v -1.512505 1.348580 0.627747
v -1.512505 1.603027 0.629381
v -5.335288 3.800185 -6.052625
v -5.335288 3.736311 -6.052625
v -5.278492 2.470701 -3.962970
v -5.278492 2.184217 -3.962970
v -5.097795 1.597163 -2.272003
v -5.097795 1.376704 -2.272003
v -1.535403 1.597163 -2.102017
v -1.535403 1.376704 -2.102017
v -2.754474 3.956770 -4.458453
v -2.754474 3.736310 -4.471160
v 2.168024 3.736311 -2.279308
v 2.168813 3.736311 -6.052625
v 2.168813 3.816662 -6.052625
v 2.168024 3.821794 -2.279308
v -0.313831 3.831098 -2.279308
v -0.313831 3.736311 -2.279308
v -0.310970 3.956770 -4.458453
v -0.310970 3.736310 -4.471160
v -0.299014 3.736311 -7.398285
v -0.299014 3.956770 -7.398285
v 4.449350 3.956770 -7.420883
v 4.449350 3.736311 -7.420883
v 4.531624 3.952080 -3.400933
v 4.531624 3.741001 -3.464555
v 4.451031 2.516837 -3.383627
v 4.451031 2.305758 -3.447249
v 4.449576 2.513663 -2.056989
v 4.449576 2.302583 -2.120612
v 4.456282 1.634445 -2.051911
v 4.456282 1.379999 -2.115534
v 4.452257 1.603027 0.637918
v 4.452257 1.348580 0.636284
v 2.173884 3.736311 -6.052625
v 2.173884 3.800185 -6.052625
v 2.171718 2.184217 -3.962970
v 2.171718 2.470701 -3.962970
v 1.929476 1.376704 -2.306575
v 1.929476 1.597163 -2.306575
v 1.443921 1.597163 -2.102017
v 1.403790 1.376704 -2.102017
v 2.167386 1.807604 -2.550333
v 2.167404 1.573763 -2.556150
v -5.274252 1.581239 -2.573377
v -5.274223 1.814012 -2.563983
v -4.673076 1.597163 -2.102017
v -4.657759 1.376704 -2.102017
vt 0.625000 0.000000
vt 0.625000 0.250000
vt 0.875000 0.000000
vt 0.875000 0.250000
vt 0.000000 0.000000
vt 1.000000 0.000000
vt 1.000000 1.000000
vt 0.000000 1.000000
vt 0.000000 0.000000
vt 1.000000 0.000000
vt 1.000000 1.000000
vt 0.000000 1.000000
vt 0.000000 0.000000
vt 1.000000 0.000000
vt 1.000000 1.000000
vt 0.000000 1.000000
vt 0.000000 0.000000
vt 1.000000 0.000000
vt 1.000000 1.000000
vt 0.000000 1.000000
vt 0.000000 0.000000
vt 1.000000 0.000000
vt 1.000000 1.000000
vt 0.000000 1.000000
vt 0.000000 0.000000
vt 1.000000 0.000000
vt 1.000000 1.000000
vt 0.000000 1.000000
vt 0.000000 0.000000
vt 1.000000 0.000000
vt 1.000000 1.000000
vt 0.000000 1.000000
vt 0.000000 0.000000
vt 1.000000 0.000000
vt 1.000000 1.000000
vt 0.000000 1.000000
vt 0.000000 0.000000
vt 1.000000 0.000000
vt 1.000000 1.000000
vt 0.000000 1.000000
vt 0.000000 0.000000
vt 1.000000 0.000000
vt 1.000000 1.000000
vt 0.000000 1.000000
vt 0.000000 0.000000
vt 1.000000 0.000000
vt 1.000000 1.000000
vt 0.000000 1.000000
vt 0.000000 0.000000
vt 1.000000 0.000000
vt 1.000000 1.000000
vt 0.000000 1.000000
vt 0.000000 0.000000
vt 1.000000 0.000000
vt 1.000000 1.000000
vt 0.000000 1.000000
vt 1.000000 0.074500
vt 0.000000 0.077221
vt 0.625000 0.000000
vt 0.875000 0.000000
vt 0.875000 0.250000
vt 0.625000 0.250000
vt 0.000000 0.000000
vt 1.000000 0.000000
vt 1.000000 1.000000
vt 0.000000 1.000000
vt 0.000000 0.000000
vt 1.000000 0.000000
vt 1.000000 0.074500
vt 0.000000 0.077221
vt 0.000000 0.000000
vt 1.000000 0.000000
vt 1.000000 1.000000
vt 0.000000 1.000000
vt 0.000000 0.000000
vt 1.000000 0.000000
vt 1.000000 1.000000
vt 0.000000 1.000000
vt 0.000000 0.000000
vt 1.000000 0.000000
vt 1.000000 1.000000
vt 0.000000 1.000000
vt 0.000000 0.000000
vt 1.000000 0.000000
vt 1.000000 1.000000
vt 0.000000 1.000000
vt 0.000000 0.000000
vt 1.000000 0.000000
vt 1.000000 1.000000
vt 0.000000 1.000000
vt 0.000000 0.000000
vt 1.000000 0.000000
vt 1.000000 1.000000
vt 0.000000 1.000000
vt 0.000000 0.000000
vt 1.000000 0.000000
vt 1.000000 1.000000
vt 0.000000 1.000000
vt 0.000000 0.000000
vt 1.000000 0.000000
vt 1.000000 1.000000
vt 0.000000 1.000000
vt 0.000000 0.000000
vt 1.000000 0.000000
vt 1.000000 1.000000
vt 0.000000 1.000000
vt 0.000000 0.000000
vt 1.000000 0.000000
vt 1.000000 1.000000
vt 0.000000 1.000000
vt 0.000000 0.000000
vt 1.000000 0.000000
vt 1.000000 1.000000
vt 0.000000 1.000000
vt 1.000000 1.000000
vt 0.000000 1.000000
vt -0.000000 0.195085
vt 1.000000 0.205927
vt -0.000000 0.759093
vt 1.000000 0.755967
vt 0.000002 0.751757
vt 1.000000 0.746710
vt 0.000000 0.160469
vt 1.000000 0.164567
vn 1.000000 0.000000 0.000000
vn 1.000000 0.000000 0.000000
vn 1.000000 0.000000 0.000000
vn 1.000000 0.000000 0.000000
vn 0.000000 0.000000 -1.000000
vn 0.000000 0.000000 -1.000000
vn 0.000000 0.000000 -1.000000
vn 0.000000 0.000000 -1.000000
vn -1.000000 0.000000 0.000000
vn -1.000000 -0.000001 0.000000
vn -1.000000 -0.000001 0.000000
vn -1.000000 -0.000002 0.000000
vn 0.000000 0.000000 1.000000
vn 0.000000 0.000000 1.000000
vn 0.000000 0.000000 1.000000
vn 0.000000 0.000000 1.000000
vn 0.999999 0.000000 -0.001730
vn 0.999999 0.000257 -0.001713
vn 0.999999 0.000257 -0.001713
vn 0.999998 0.000515 -0.001697
vn 1.000000 0.000000 0.000000
vn 1.000000 0.000000 0.000000
vn 1.000000 0.000000 0.000000
vn 1.000000 0.000000 0.000000
vn 1.000000 0.000000 0.000000
vn 1.000000 -0.000000 0.000000
vn 1.000000 -0.000000 0.000000
vn 1.000000 -0.000000 0.000000
vn 1.000000 0.000000 0.000000
vn 1.000000 0.000000 0.000000
vn 1.000000 0.000000 0.000000
vn 1.000000 0.000000 0.000000
vn 1.000000 0.000000 0.000000
vn 1.000000 0.000002 0.000000
vn 1.000000 0.000002 0.000000
vn 1.000000 0.000003 0.000000
vn -0.003424 0.006420 -0.999974
vn -0.003424 0.006420 -0.999974
vn -0.003424 0.006420 -0.999974
vn -0.003424 0.006420 -0.999974
vn 0.000000 0.000000 -1.000000
vn -0.000001 0.000000 -1.000000
vn -0.000001 0.000000 -1.000000
vn -0.000002 0.000000 -1.000000
vn -1.000000 0.000001 0.000000
vn -1.000000 0.000001 0.000000
vn -1.000000 0.000001 0.000000
vn -1.000000 0.000000 0.000000
vn -1.000000 0.000000 -0.000209
vn -1.000000 0.000000 -0.000209
vn -1.000000 0.000000 -0.000209
vn -1.000000 0.000000 -0.000209
vn 0.000000 0.000000 -1.000000
vn -0.000000 0.000000 -1.000000
vn -0.000000 0.000000 -1.000000
vn -0.000000 0.000000 -1.000000
vn 0.999999 -0.000075 0.001305
vn 0.999999 -0.000038 0.001309
vn 0.999999 -0.000038 0.001309
vn 0.999999 0.000000 0.001313
vn 0.004759 0.000000 0.999989
vn 0.004759 0.000000 0.999989
vn 0.004759 0.000000 0.999989
vn 0.004759 0.000000 0.999989
vn -0.999784 0.000000 0.020791
vn -0.999783 -0.003084 0.020623
vn -0.999783 -0.003084 0.020623
vn -0.999772 -0.006169 0.020454
vn -0.982945 0.053072 -0.176077
vn -0.982945 0.053072 -0.176078
vn -0.982945 0.053072 -0.176078
vn -0.982945 0.053072 -0.176078
vn -0.999999 0.000330 -0.001095
vn -0.999999 0.000330 -0.001095
vn -0.999999 0.000330 -0.001095
vn -0.999999 0.000330 -0.001095
vn -0.999571 -0.007108 0.028428
vn -0.999619 -0.007294 0.026623
vn -0.999619 -0.007294 0.026623
vn -0.999664 -0.007480 0.024818
vn -0.999999 0.000364 -0.001458
vn -0.999999 0.000186 -0.001477
vn -0.999999 0.000186 -0.001477
vn -0.999999 0.000008 -0.001496
vn 0.001431 0.006420 -0.999978
vn 0.001431 0.006420 -0.999978
vn 0.001431 0.006420 -0.999978
vn 0.001431 0.006420 -0.999978
vn 0.000000 0.000000 -1.000000
vn 0.000000 0.000000 -1.000000
vn 0.000000 0.000000 -1.000000
vn 0.000000 0.000000 -1.000000
vn 0.999992 0.000000 0.004084
vn 0.999992 -0.000117 0.004076
vn 0.999992 -0.000117 0.004076
vn 0.999992 -0.000234 0.004067
vn 0.999999 0.000000 0.001036
vn 0.999999 0.000000 0.001036
vn 0.999999 0.000000 0.001036
vn 0.999999 0.000000 0.001036
vn 0.999995 0.000002 0.003067
vn 0.999995 0.000001 0.003067
vn 0.999995 0.000001 0.003067
vn 0.999995 0.000000 0.003067
vn 0.361850 -0.065870 0.929906
vn 0.375285 -0.032956 0.926323
vn 0.375285 -0.032956 0.926323
vn 0.388241 0.000000 0.921558
vn 0.722886 -0.017127 0.690755
vn 0.723367 -0.008564 0.690411
vn 0.723367 -0.008564 0.690411
vn 0.723794 0.000000 0.690016
vn -0.999631 0.000000 0.027169
vn -0.999631 0.000000 0.027169
vn -0.999631 0.000000 0.027169
vn -0.999631 0.000000 0.027169
vn -0.999995 0.000000 0.003051
vn -0.999995 0.000000 0.003051
vn -0.999995 0.000000 0.003051
vn -0.999995 0.000000 0.003051
vn 0.000000 0.000000 1.000000
vn 0.000000 0.000000 1.000000
vn 0.000000 0.000000 1.000000
vn 0.000000 0.000000 1.000000
vn -0.862315 -0.020312 0.505964
vn -0.862683 -0.010156 0.505642
vn -0.862683 -0.010156 0.505642
vn -0.862962 0.000000 0.505268
vn 0.000000 0.000000 1.000000
vn 0.000000 0.000000 1.000000
vn 0.000000 0.000000 1.000000
vn 0.000000 0.000000 1.000000
vn -0.360235 -0.025029 0.932526
vn -0.365940 -0.012516 0.930554
vn -0.365940 -0.012516 0.930554
vn -0.371576 0.000000 0.928403
f 1/1/1 4/3/2 2/2/3
f 2/2/3 4/3/2 3/4/4
f 1/5/5 2/6/6 5/8/7
f 5/8/7 2/6/6 6/7/8
f 6/10/9 31/57/10 5/9/11
f 5/9/11 31/57/10 32/58/12
f 7/13/13 8/14/14 9/16/15
f 9/16/15 8/14/14 10/15/16
f 9/17/17 10/18/18 11/20/19
f 11/20/19 10/18/18 12/19/20
f 12/22/21 14/23/22 11/21/23
f 11/21/23 14/23/22 13/24/24
f 13/25/25 14/26/26 15/28/27
f 15/28/27 14/26/26 16/27/28
f 16/30/29 18/31/30 15/29/31
f 15/29/31 18/31/30 17/32/32
f 17/33/33 18/34/34 19/36/35
f 19/36/35 18/34/34 20/35/36
f 19/37/37 20/38/38 21/40/39
f 21/40/39 20/38/38 22/39/40
f 4/42/41 24/43/42 3/41/43
f 3/41/43 24/43/42 23/44/44
f 31/57/45 8/11/46 32/58/47
f 32/58/47 8/11/46 7/12/48
f 33/59/49 36/62/50 34/60/51
f 34/60/51 36/62/50 35/61/52
f 33/63/53 38/66/54 36/64/55
f 36/64/55 38/66/54 37/65/56
f 40/70/57 39/69/58 38/67/59
f 38/67/59 39/69/58 37/68/60
f 41/71/61 44/74/62 42/72/63
f 42/72/63 44/74/62 43/73/64
f 44/75/65 46/78/66 43/76/67
f 43/76/67 46/78/66 45/77/68
f 48/82/69 47/81/70 46/79/71
f 46/79/71 47/81/70 45/80/72
f 48/83/73 50/86/74 47/84/75
f 47/84/75 50/86/74 49/85/76
f 52/90/77 51/89/78 50/87/79
f 50/87/79 51/89/78 49/88/80
f 52/91/81 54/94/82 51/92/83
f 51/92/83 54/94/82 53/93/84
f 54/95/85 21/98/86 53/96/87
f 53/96/87 21/98/86 22/97/88
f 35/99/89 56/102/90 34/100/91
f 34/100/91 56/102/90 55/101/92
f 41/116/93 42/115/94 40/70/95
f 40/70/95 42/115/94 39/69/96
f 56/103/97 58/106/98 55/104/99
f 55/104/99 58/106/98 57/105/100
f 64/120/101 57/108/102 63/119/103
f 63/119/103 57/108/102 58/107/104
f 62/118/105 59/112/106 61/117/107
f 61/117/107 59/112/106 60/111/108
f 63/119/109 60/110/110 64/120/111
f 64/120/111 60/110/110 59/109/112
f 23/45/113 24/46/114 25/48/115
f 25/48/115 24/46/114 26/47/116
f 65/122/117 66/121/118 26/50/119
f 26/50/119 66/121/118 25/49/120
f 61/117/121 29/114/122 62/118/123
f 62/118/123 29/114/122 30/113/124
f 66/121/125 65/122/126 27/52/127
f 27/52/127 65/122/126 28/51/128
f 67/123/129 68/124/130 29/56/131
f 29/56/131 68/124/130 30/55/132
f 68/124/133 67/123/134 28/54/135
f 28/54/135 67/123/134 27/53/136
