# This file uses centimeters as units for non-parametric coordinates.

v -5.281644 1.432241 -2.102403
v -5.289220 3.806242 -7.379889
v -6.934927 3.806239 -7.395109
v -6.938811 1.432248 -2.102363
v -5.280483 0.509974 -2.579576
v -5.291414 3.050697 -7.356506
v -7.055381 1.432224 0.640380
v -5.567382 1.432194 0.640455
v -7.645425 1.432348 -2.102395
v -7.645425 1.432224 0.640397
v -7.645424 0.681453 0.655817
v -7.005048 0.679520 0.672562
v -7.645425 0.679520 1.004086
v -6.975760 0.679520 1.010219
v -7.645425 -3.250085 0.857611
v -5.543105 0.679520 0.977151
v -5.562145 0.679520 0.638872
v -3.340151 1.432169 0.640404
v -3.341213 1.432173 -2.102408
v -3.332252 0.586258 0.459511
v -3.326799 0.564917 0.791395
v -2.623581 0.564917 0.841710
v -2.630342 0.564917 0.550770
v -2.591477 1.432148 0.640348
v -2.599682 1.432173 -2.102386
v 0.026856 1.432148 0.640379
v 0.011602 1.432146 -2.102386
v 0.048165 0.564917 0.523492
v -0.730949 0.564917 0.898179
v -0.692961 1.432148 0.640369
v -0.691742 0.564917 0.532430
v -7.067807 1.432248 -2.102358
v -6.941624 2.443857 -2.103027
v -7.645425 2.443857 -2.102384
v -6.939709 2.446800 -4.028049
v -7.645425 2.447218 -4.005622
v -6.940297 3.878587 -4.013795
v -7.645425 3.881069 -4.009127
v -6.938389 3.891542 -5.698680
v -7.645425 3.889177 -5.729425
v -6.938417 5.401530 -5.559546
v -7.645425 5.401530 -5.556197
v -6.938611 2.496383 -4.286620
v -5.286459 2.496884 -4.282068
v -5.285897 1.587342 -4.829767
v -6.937663 5.401836 -7.403562
v -7.645425 5.401836 -7.408655
v -6.934850 4.264118 -7.367649
v -6.937435 3.259006 -5.523915
v -5.287758 3.258363 -5.524006
v -5.287090 2.308943 -6.116741
v 4.449519 0.563745 0.724951
v 4.449491 1.432151 0.640276
v 4.448859 1.430929 -2.102416
v 2.209180 0.472046 0.817855
v 2.361626 0.493418 0.958515
v 2.025107 1.432171 -2.102426
v 2.077165 1.432151 0.640322
v 2.079597 0.598290 0.691604
v 2.185771 1.432171 -2.102424
v 2.211290 1.432151 0.640319
v 2.225204 0.598290 0.692782
v 0.054691 0.564917 0.988205
v 3.679336 0.564917 1.100134
v 4.443214 -3.221333 0.975148
v 4.462134 0.401151 0.837596
v 3.720120 1.432176 -2.102422
v 3.647469 1.432151 0.640290
v 3.667209 0.564917 0.719026
v 3.677994 3.805988 -7.400701
v 2.185589 3.805989 -7.399323
v 4.450856 2.312690 -2.102901
v 3.726289 2.309432 -2.102491
v 4.449019 2.305830 -3.446468
v 3.724537 2.305368 -3.445777
v 2.208339 2.228188 -3.446900
v 3.721223 2.228167 -3.444708
v 4.451183 3.782143 -3.447239
v 3.728796 3.782144 -3.447276
v 4.450986 3.782099 -5.601588
v 3.726257 3.782099 -5.601662
v 4.451530 5.252355 -5.600670
v 3.732471 5.252079 -5.601090
v 4.450208 5.250909 -7.856438
v 3.727550 5.250909 -7.837466
v 3.723796 3.828430 -7.808074
v 3.722889 2.483583 -5.697603
v 3.718158 2.240528 -5.721906
v 3.720396 2.722990 -7.721090
v 2.198089 3.051651 -7.511027
v 2.230337 1.737636 -5.244094
v 2.161557 -0.011644 -2.449487
v -2.778603 2.946937 -2.259164
v -2.776830 3.806111 -2.259158
v -3.993183 3.806121 -2.259166
v -3.994994 2.944899 -2.259113
v -2.781175 3.806231 -7.419274
v -4.009200 3.806240 -7.443837
v -5.288010 3.806222 -7.448066
v -5.288111 3.806121 -2.259185
v -5.288110 2.944950 -2.259133
v -2.780142 2.970913 -7.532369
v -0.306603 3.805992 -2.259107
v -0.306510 2.942146 -2.259089
v 0.951780 2.944389 -2.259121
v 0.985562 3.806001 -2.259163
v 0.990689 3.806056 -7.383621
v -0.304633 3.806059 -7.403570
v -0.306012 3.017189 -7.393688
v 2.169683 2.943828 -2.259147
v 2.171356 3.805995 -2.259140
v 2.170121 3.806054 -7.427251
v -5.287851 3.806174 -4.591699
v -5.287806 3.079457 -4.573625
v -5.288026 3.239101 -7.484990
v 3.716943 0.508743 0.994546
v 2.170814 3.806021 -4.626170
v 2.169274 3.039383 -4.895014
v 2.167658 3.092185 -7.463440
v -0.598412 0.564917 0.913365
v -6.936143 3.806243 -6.286138
v -5.288066 3.806246 -6.287057
v 3.676454 3.805987 -6.093709
v 2.178824 3.805989 -6.092435
v -3.341213 -0.015174 -2.451663
v -2.599682 -0.015175 -2.499680
v 0.011602 -0.015201 -2.499903
v 2.025107 -0.015176 -2.413878
v -4.009200 3.233824 -7.443837
v 0.990689 3.024545 -7.383621
v -6.610686 3.032797 -7.359343
v 3.635925 3.043738 -7.526484
v 4.448827 0.556275 -2.031105
v 4.449017 0.964577 -3.443567
v 4.450914 2.435900 -5.636895
v 4.450208 3.902249 -7.856438
v -7.645425 -0.001534 -2.080710
v -7.645425 1.105550 -4.010431
v -7.645425 2.512665 -5.728696
v -7.645425 4.055260 -7.408655
v -0.304168 2.256867 -7.397384
v 2.167873 2.279370 -4.918355
v 2.246516 2.332592 -7.483240
v 1.012929 2.264844 -7.391432
v -0.301629 1.585116 -7.405354
v 2.168153 1.512116 -2.288089
v 2.171343 1.607909 -4.938993
v 2.268416 1.661457 -7.498446
v 1.032893 1.593594 -7.400703
v -0.286202 -3.251742 -7.454486
v 2.230568 -1.878073 -2.373997
v 2.266355 -1.781615 -5.043106
v 2.390727 -1.726434 -7.575109
v 1.134059 -1.794966 -7.456322
v -2.780142 2.142308 -7.532369
v -5.287806 2.250853 -4.573625
v -5.288026 2.410497 -7.484990
v -4.009200 2.405220 -7.443837
v -5.288121 1.420320 -2.279341
v -2.852633 1.453368 -7.528886
v -5.287805 1.555570 -4.616569
v -5.289464 1.714631 -7.507772
v -4.083127 1.716278 -7.438662
v -5.288372 -0.425919 -2.346128
v -2.819332 -3.009033 -7.521591
v -5.288770 -0.288777 -4.730537
v -5.288622 -0.131210 -7.577799
v -4.273474 -0.111262 -7.435461
v 3.800319 0.564718 0.720034
v 3.706645 1.432151 0.640289
v 4.021626 1.431660 -2.102420
v 3.926431 2.310332 -2.102604
v 4.122078 2.305622 -3.446156
v 4.010855 3.782144 -3.447262
v 4.231833 3.782099 -5.601611
v 4.128029 5.252231 -5.600859
v 4.335449 5.250909 -7.853425
vt 0.301791 0.566111
vt 0.304800 0.608738
vt 0.329380 0.775828
vt 0.243706 0.699445
vt 0.309627 0.562661
vt 0.311594 0.608724
vt 0.298127 0.526464
vt 0.224789 0.530351
vt 0.206287 0.487056
vt 0.287813 0.486275
vt 0.214908 0.530160
vt 0.185988 0.529924
vt 0.172176 0.486003
vt 0.175510 0.436871
vt 0.212041 0.437655
vt 0.171852 0.427458
vt 0.210473 0.427458
vt 0.288864 0.428243
vt 0.289387 0.435302
vt 0.409064 0.483936
vt 0.412856 0.524650
vt 0.410632 0.434518
vt 0.410109 0.422751
vt 0.448259 0.421967
vt 0.448259 0.431380
vt 0.449827 0.481583
vt 0.450872 0.525774
vt 0.530307 0.482110
vt 0.569504 0.482367
vt 0.566442 0.523865
vt 0.529772 0.431908
vt 0.569504 0.432165
vt 0.528218 0.421183
vt 0.217790 0.589048
vt 0.182850 0.587721
vt 0.232423 0.623562
vt 0.198483 0.625190
vt 0.224061 0.732596
vt 0.192182 0.734165
vt 0.238172 0.763188
vt 0.207655 0.763187
vt 0.229810 0.866731
vt 0.195841 0.864377
vt 0.302395 0.550854
vt 0.235689 0.623237
vt 0.308167 0.547641
vt 0.307030 0.528420
vt 0.243920 0.889479
vt 0.211319 0.888092
vt 0.250829 0.782843
vt 0.767051 0.481713
vt 0.763909 0.432165
vt 0.801535 0.432194
vt 0.806238 0.481612
vt 0.790038 0.527108
vt 0.754507 0.526831
vt 0.571096 0.419706
vt 0.687613 0.415692
vt 0.696497 0.414907
vt 0.681346 0.481996
vt 0.669834 0.526241
vt 0.679244 0.432165
vt 0.688664 0.481972
vt 0.767751 0.657646
vt 0.687090 0.432165
vt 0.770278 0.417800
vt 0.805716 0.425919
vt 0.768149 0.674589
vt 0.748863 0.606646
vt 0.650157 0.765751
vt 0.599492 0.766006
vt 0.795786 0.582802
vt 0.760255 0.585910
vt 0.783766 0.618100
vt 0.751894 0.618071
vt 0.791083 0.721643
vt 0.756074 0.723183
vt 0.778018 0.752235
vt 0.744054 0.752206
vt 0.783482 0.855596
vt 0.751409 0.857136
vt 0.773590 0.877139
vt 0.742801 0.879040
vt 0.741131 0.768974
vt 0.739874 0.654939
vt 0.736215 0.637681
vt 0.741531 0.737593
vt 0.759196 0.693382
vt 0.758929 0.675717
vt 0.759943 0.657719
vt 0.458210 0.672311
vt 0.376953 0.566730
vt 0.387294 0.725388
vt 0.387114 0.674549
vt 0.378410 0.625661
vt 0.392863 0.789155
vt 0.327537 0.790723
vt 0.316253 0.724925
vt 0.316403 0.675317
vt 0.407117 0.624097
vt 0.535675 0.727889
vt 0.601266 0.700611
vt 0.607357 0.676107
vt 0.607654 0.728674
vt 0.598770 0.784367
vt 0.535476 0.784378
vt 0.543741 0.697388
vt 0.677683 0.675334
vt 0.680819 0.727889
vt 0.666008 0.782775
vt 0.454120 0.786720
vt 0.406844 0.565520
vt 0.457395 0.723727
vt 0.768605 0.688091
vt 0.689709 0.605461
vt 0.691802 0.527379
vt 0.306265 0.626271
vt 0.300514 0.528415
vt 0.304371 0.697551
vt 0.391226 0.775881
vt 0.627968 0.732117
vt 0.644045 0.732834
vt 0.640243 0.755862
vt 0.319437 0.757697
vt 0.624422 0.753796
vt 0.622962 0.777527
vt 0.637705 0.778872
vt 0.544510 0.715209
vt 0.601768 0.717322
vt 0.536358 0.678605
vt 0.770949 0.422136
vt 0.767343 0.808246
vt 0.757145 0.755256
vt 0.766355 0.754891
vt 0.674260 0.752194
vt 0.768128 0.850651
vt 0.757491 0.851477
vt 0.757439 0.806750
vt 0.535452 0.420934
vt 0.249402 0.751605
vt 0.383970 0.747427
vt 0.303633 0.592200
vt 0.739307 0.751110
vt 0.690337 0.751161
vt 0.768539 0.686149
vt 0.325977 0.746977
vt 0.312782 0.749741
vt 0.240491 0.765415
vt 0.651956 0.740312
vt 0.603372 0.741134
vt 0.434808 0.385463
vt 0.398766 0.384451
vt 0.399675 0.359011
vt 0.436817 0.368375
vt 0.386236 0.383908
vt 0.387141 0.358239
vt 0.348106 0.382788
vt 0.348987 0.356645
vt 0.312104 0.382059
vt 0.312957 0.355607
vt 0.309158 0.381963
vt 0.310319 0.355365
vt 0.403513 0.279512
vt 0.388107 0.279269
vt 0.388184 0.268231
vt 0.403510 0.272112
vt 0.419491 0.279772
vt 0.419473 0.272458
vt 0.359358 0.278611
vt 0.343346 0.278355
vt 0.343820 0.268160
vt 0.360250 0.268438
vt 0.326483 0.277983
vt 0.327967 0.268503
vt 0.636465 0.277758
vt 0.627386 0.277341
vt 0.627726 0.271194
vt 0.636439 0.271565
vt 0.577321 0.274702
vt 0.566645 0.274171
vt 0.567060 0.267900
vt 0.577899 0.268600
vt 0.610572 0.345658
vt 0.585717 0.343596
vt 0.586776 0.333511
vt 0.611164 0.335903
vt 0.626465 0.357360
vt 0.610808 0.354981
vt 0.627016 0.341831
vt 0.650796 0.375351
vt 0.626619 0.373485
vt 0.650719 0.359542
vt 0.669425 0.392871
vt 0.650116 0.391838
vt 0.668888 0.376772
vt 0.239763 0.389501
vt 0.240863 0.334621
vt 0.245863 0.389774
vt 0.278605 0.390676
vt 0.243654 0.265898
vt 0.249112 0.212978
vt 0.276133 0.209842
vt 0.269336 0.265310
vt 0.395590 0.172959
vt 0.384378 0.170797
vt 0.384461 0.158515
vt 0.395628 0.166983
vt 0.384657 0.178845
vt 0.371189 0.178746
vt 0.371401 0.165366
vt 0.371465 0.190974
vt 0.357631 0.191301
vt 0.358093 0.176643
vt 0.358390 0.205638
vt 0.346206 0.207674
vt 0.346841 0.191806
vt 0.396597 0.137700
vt 0.398692 0.167701
vt 0.341929 0.207589
vt 0.341998 0.194418
vt 0.341990 0.189560
vt 0.336377 0.180996
vt 0.614676 0.304115
vt 0.614935 0.294538
vt 0.649647 0.301864
vt 0.649605 0.291719
vt 0.646424 0.305608
vt 0.646670 0.296190
vt 0.631082 0.304430
vt 0.631484 0.294924
vt 0.615170 0.286189
vt 0.654375 0.274743
vt 0.649632 0.282885
vt 0.646945 0.287977
vt 0.631837 0.286635
vt 0.616347 0.245528
vt 0.654172 0.227506
vt 0.649988 0.240056
vt 0.648425 0.248006
vt 0.633552 0.246283
vt 0.588430 0.303344
vt 0.588871 0.292867
vt 0.551201 0.288705
vt 0.555375 0.306267
vt 0.556056 0.295602
vt 0.572190 0.306368
vt 0.572750 0.295751
vt 0.546422 0.270564
vt 0.588306 0.284239
vt 0.551944 0.279176
vt 0.556643 0.286807
vt 0.572244 0.287006
vt 0.548535 0.243562
vt 0.586237 0.261787
vt 0.553846 0.254634
vt 0.558239 0.264068
vt 0.571016 0.264282
vt 0.769943 0.481703
vt 0.770312 0.432165
vt 0.769210 0.526934
vt 0.770071 0.585043
vt 0.769386 0.618071
vt 0.769746 0.722570
vt 0.767752 0.752206
vt 0.769056 0.856273
vt 0.768706 0.877417
vt 0.247732 0.265804
vt 0.770942 0.422165
vt 0.770306 0.432194
vt 0.769937 0.481732
vt 0.769204 0.526963
vt 0.770065 0.585073
vt 0.769380 0.618100
vt 0.769740 0.722600
vt 0.767745 0.752235
vt 0.769050 0.856302
vt 0.768700 0.877446
vn -0.000002 1.000000 -0.000003
vn -0.000002 1.000000 -0.000003
vn -0.000002 1.000000 -0.000003
vn -0.000002 1.000000 -0.000003
vn 0.999995 -0.002936 -0.001056
vn 0.999999 -0.000667 -0.001437
vn 0.999997 -0.001331 -0.002190
vn 0.999999 0.000467 -0.001627
vn 1.000000 0.000660 0.000071
vn 0.000004 1.000000 0.000018
vn 0.000012 1.000000 0.000014
vn 0.000012 1.000000 0.000014
vn 0.000020 1.000000 0.000010
vn 0.000000 1.000000 0.000009
vn 0.000087 1.000000 0.000027
vn 0.000087 1.000000 0.000027
vn 0.000175 1.000000 0.000046
vn 0.000028 0.020535 0.999789
vn -0.012985 0.030755 0.999443
vn -0.012985 0.030755 0.999443
vn -0.025995 0.040967 0.998822
vn 0.002875 0.999980 0.005553
vn 0.001437 0.999995 0.002777
vn 0.001437 0.999995 0.002777
vn 0.000000 1.000000 0.000000
vn 0.000000 1.000000 0.000000
vn 0.000000 1.000000 0.000000
vn 0.000000 1.000000 0.000000
vn 0.000000 1.000000 0.000000
vn 0.023343 -0.001940 0.999726
vn 0.011650 0.020393 0.999724
vn 0.011650 0.020393 0.999724
vn -0.000049 0.042713 0.999087
vn 0.000011 1.000000 0.000018
vn 0.000023 1.000000 0.000010
vn 0.000023 1.000000 0.000010
vn 0.000035 1.000000 0.000001
vn 0.000023 -0.002103 0.999998
vn 0.035111 -0.105677 0.993780
vn 0.035111 -0.105677 0.993780
vn 0.069777 -0.207984 0.975640
vn 0.051398 0.998674 -0.002893
vn 0.049120 0.998335 0.030237
vn 0.049120 0.998335 0.030237
vn 0.046788 0.996895 0.063333
vn 0.022040 0.997720 0.063793
vn 0.011026 0.999430 0.031914
vn 0.011026 0.999430 0.031914
vn 0.000000 1.000000 -0.000000
vn -0.132328 -0.208459 0.969038
vn -0.066372 -0.156178 0.985497
vn -0.066372 -0.156178 0.985497
vn 0.000072 -0.102749 0.994707
vn 0.000029 1.000000 0.000009
vn 0.000015 1.000000 0.000005
vn 0.000015 1.000000 0.000005
vn 0.000000 1.000000 0.000001
vn 0.000010 1.000000 0.000009
vn 0.000005 1.000000 0.000004
vn 0.000003 1.000000 0.000003
vn 0.000000 1.000000 -0.000000
vn 0.000000 1.000000 -0.000000
vn -0.000014 -0.123510 0.992343
vn 0.005979 -0.128397 0.991705
vn 0.005979 -0.128397 0.991705
vn 0.011972 -0.133276 0.991007
vn 0.009409 -0.103158 0.994621
vn 0.004699 -0.113341 0.993545
vn 0.004699 -0.113341 0.993545
vn -0.000011 -0.123510 0.992343
vn 0.000000 1.000000 0.000000
vn 0.000000 1.000000 0.000000
vn 0.000000 1.000000 0.000000
vn 0.000000 1.000000 0.000000
vn 0.000000 1.000000 0.000009
vn 0.000000 1.000000 0.000009
vn 0.000000 1.000000 0.000009
vn -0.000062 -0.000010 1.000000
vn 0.000425 0.000269 1.000000
vn 0.000425 0.000269 1.000000
vn 0.000912 0.000547 1.000000
vn 0.000002 0.999999 0.001766
vn 0.000321 0.999999 0.001648
vn 0.000321 0.999999 0.001648
vn 0.000641 0.999999 0.001529
vn 0.031756 -0.009937 0.999446
vn 0.019194 -0.003747 0.999809
vn 0.019194 -0.003747 0.999809
vn 0.006629 0.002444 0.999975
vn 0.003572 0.999964 0.007693
vn 0.000011 0.999981 0.006203
vn 0.000011 0.999981 0.006203
vn -0.003550 0.999983 0.004713
vn -0.042783 -0.113694 0.992594
vn -0.019040 -0.102759 0.994524
vn -0.019040 -0.102759 0.994524
vn 0.004716 -0.091753 0.995771
vn 0.000014 0.898542 0.438887
vn -0.000732 0.898765 0.438430
vn -0.000732 0.898765 0.438430
vn -0.001479 0.898987 0.437973
vn 0.999997 0.001604 -0.001638
vn 0.999997 0.001761 -0.001455
vn 0.999997 0.001761 -0.001455
vn 0.999997 0.001918 -0.001273
vn 0.999877 0.014070 0.006946
vn 0.999957 0.008426 0.003973
vn 0.999957 0.008426 0.003973
vn 0.999996 0.002781 0.000999
vn 0.000001 1.000000 0.000166
vn -0.000000 1.000000 0.000166
vn -0.000000 1.000000 0.000166
vn -0.000001 1.000000 0.000165
vn 0.999998 -0.000174 0.002082
vn 0.999999 0.001155 0.001245
vn 0.999999 0.001155 0.001245
vn 0.999997 0.002485 0.000409
vn 0.999999 -0.000232 0.001097
vn 0.999999 -0.000232 0.001097
vn 0.999999 -0.000232 0.001097
vn 0.999998 0.001825 0.001146
vn 0.999997 0.001038 0.002328
vn 0.999998 0.001373 0.001332
vn 0.999991 0.000367 0.004319
vn 0.999996 0.000644 0.002918
vn -0.001698 0.852510 0.522708
vn -0.000669 0.851899 0.523705
vn -0.000669 0.851899 0.523705
vn 0.000361 0.851286 0.524701
vn 1.000000 0.000950 -0.000394
vn 1.000000 0.000930 -0.000441
vn 1.000000 0.000930 -0.000441
vn 1.000000 0.000911 -0.000487
vn -0.000002 1.000000 0.000008
vn -0.000007 1.000000 0.000004
vn -0.000007 1.000000 0.000004
vn -0.000012 1.000000 -0.000000
vn 0.000028 -0.133574 0.991039
vn -0.041879 -0.036528 0.998455
vn -0.041879 -0.036528 0.998455
vn -0.083315 0.060929 0.994659
vn 0.000000 1.000000 0.000007
vn 0.000000 1.000000 0.000007
vn 0.000000 1.000000 0.000007
vn -0.000000 1.000000 0.000008
vn 0.000020 0.061384 0.998114
vn -0.004026 0.062020 0.998067
vn -0.004026 0.062020 0.998067
vn -0.008072 0.062656 0.998003
vn 0.000000 1.000000 0.000000
vn 0.000000 1.000000 0.000000
vn 0.000000 1.000000 0.000000
vn 0.000000 1.000000 0.000000
vn 0.084361 0.746566 0.659941
vn 0.036352 0.934781 0.353359
vn 0.036352 0.934781 0.353359
vn -0.016445 0.999865 0.000231
vn -0.582711 0.608094 0.539138
vn -0.308914 0.688880 0.655756
vn -0.308914 0.688880 0.655756
vn -0.005743 0.704161 0.710018
vn -0.000730 0.859140 0.511741
vn -0.000147 0.858998 0.511979
vn -0.000147 0.858998 0.511979
vn 0.000436 0.858855 0.512218
vn -0.999626 -0.026902 -0.004892
vn -0.999739 -0.022572 -0.003448
vn -0.999660 -0.025957 -0.002584
vn -0.999862 -0.015802 -0.005176
vn -0.999788 -0.020407 -0.002726
vn -0.999777 0.013760 -0.015993
vn -0.999812 0.015985 -0.010998
vn -0.999812 0.015985 -0.010998
vn -0.999816 0.018210 -0.006002
vn -0.000006 -0.000006 1.000000
vn 0.000018 0.000028 1.000000
vn 0.000018 0.000028 1.000000
vn 0.000041 0.000061 1.000000
vn 0.000008 1.000000 0.000023
vn 0.000007 1.000000 0.000023
vn 0.000007 1.000000 0.000023
vn 0.000007 1.000000 0.000023
vn -0.000000 1.000000 0.000023
vn -0.000005 1.000000 0.000021
vn -0.000000 1.000000 0.000023
vn -0.000007 1.000000 0.000020
vn -0.000014 1.000000 0.000017
vn -0.000015 0.000061 1.000000
vn -0.000015 0.000061 1.000000
vn -0.000015 0.000061 1.000000
vn -0.000015 0.000061 1.000000
vn 0.999998 -0.002063 -0.000842
vn 1.000000 -0.000394 -0.000564
vn 1.000000 -0.000394 -0.000564
vn 0.999999 0.001276 -0.000286
vn 0.000025 0.000022 1.000000
vn 0.000034 0.000035 1.000000
vn 0.000034 0.000035 1.000000
vn 0.000043 0.000048 1.000000
vn -0.000007 1.000000 0.000011
vn -0.000003 1.000000 0.000012
vn -0.000003 1.000000 0.000012
vn 0.000002 1.000000 0.000013
vn -0.999998 0.001743 -0.000383
vn -1.000000 0.000818 -0.000241
vn -1.000000 0.000818 -0.000241
vn -1.000000 -0.000108 -0.000098
vn 0.000022 0.000049 1.000000
vn 0.000001 0.000020 1.000000
vn 0.000001 0.000020 1.000000
vn -0.000020 -0.000008 1.000000
vn 0.000002 1.000000 0.000012
vn 0.000003 1.000000 0.000011
vn 0.000004 1.000000 0.000011
vn 0.000005 1.000000 0.000011
vn 0.000005 1.000000 0.000011
vn -1.000000 -0.000001 -0.000132
vn -1.000000 -0.000034 -0.000122
vn -1.000000 -0.000034 -0.000122
vn -1.000000 -0.000066 -0.000112
vn -1.000000 -0.000060 0.000073
vn -1.000000 -0.000060 0.000073
vn -1.000000 -0.000060 0.000073
vn -1.000000 0.000025 0.000056
vn -1.000000 0.000025 0.000056
vn -1.000000 0.000025 0.000056
vn 0.999994 -0.003438 -0.000247
vn 0.999994 -0.003438 -0.000247
vn 0.999994 -0.003438 -0.000247
vn 0.999998 -0.001941 -0.000229
vn 0.999998 -0.001935 -0.000227
vn 0.999998 -0.001935 -0.000227
vn 0.999998 -0.001930 -0.000225
vn 0.999998 -0.001775 -0.000666
vn 0.999998 -0.001799 -0.000666
vn 0.999402 0.032967 0.010439
vn 0.000000 1.000000 0.000000
vn 0.000000 1.000000 0.000000
vn 0.000000 1.000000 0.000000
vn 0.000324 0.812298 0.583243
vn 0.000336 0.812311 0.583225
vn 0.000336 0.812311 0.583225
vn 0.000349 0.812323 0.583207
vn 0.000001 1.000000 0.000001
vn 0.000001 1.000000 0.000000
vn 0.000001 1.000000 0.000000
vn 0.000001 1.000000 0.000000
vn 0.999991 0.002466 0.003465
vn 0.999988 0.003545 0.003309
vn 0.999988 0.003545 0.003309
vn 0.999984 0.004625 0.003152
vn 0.000014 0.459528 -0.888163
vn 0.063902 0.349321 -0.934822
vn 0.063902 0.349321 -0.934822
vn 0.126614 0.232686 -0.964275
vn 0.000029 0.234574 -0.972098
vn -0.031165 0.249534 -0.967864
vn -0.031165 0.249534 -0.967864
vn -0.062322 0.264192 -0.962455
vn 0.000003 0.264706 -0.964329
vn -0.000038 0.264775 -0.964310
vn -0.000038 0.264775 -0.964310
vn -0.000080 0.264845 -0.964291
vn -0.000022 0.210373 -0.977621
vn 0.020581 0.237640 -0.971135
vn 0.020581 0.237640 -0.971135
vn 0.041160 0.264620 -0.963474
vn 0.000006 0.210373 -0.977621
vn -0.126679 0.222099 -0.966760
vn -0.126679 0.222099 -0.966760
vn -0.251299 0.230203 -0.940136
vn 0.019998 0.000000 -0.999800
vn -0.011359 0.067181 -0.997676
vn -0.011359 0.067181 -0.997676
vn -0.042654 0.133993 -0.990064
vn 0.003299 0.064970 -0.997882
vn 0.017742 0.032505 -0.999314
vn 0.017742 0.032505 -0.999314
vn 0.032163 0.000000 -0.999483
vn 0.015399 0.000000 -0.999881
vn -0.016740 0.001837 -0.999858
vn 0.011617 -0.006270 -0.999913
vn 0.007785 -0.003830 -0.999962
vn -0.036919 0.050722 -0.998030
vn -0.061996 0.019297 -0.997890
vn -0.052313 0.025372 -0.998308
vn 0.009240 -0.042326 -0.999061
vn 0.005904 -0.036634 -0.999311
vn 0.005904 -0.036634 -0.999311
vn 0.002569 -0.030940 -0.999518
vn -0.000912 0.162862 -0.986648
vn -0.005370 0.154597 -0.987963
vn -0.005370 0.154597 -0.987963
vn -0.009828 0.146319 -0.989189
vn 0.000044 0.000656 1.000000
vn 0.000044 0.000656 1.000000
vn 0.000044 0.000656 1.000000
vn -1.000000 -0.000000 -0.000000
vn -1.000000 -0.000000 0.000000
vn -1.000000 -0.000000 0.000000
vn -1.000000 0.000000 0.000000
vn -1.000000 0.000000 0.000000
vn -1.000000 0.000000 0.000000
vn -1.000000 0.000000 0.000000
vn -1.000000 0.000000 0.000000
vn -1.000000 0.000000 0.000000
vn -1.000000 0.000000 0.000000
vn -1.000000 0.000000 0.000000
vn -1.000000 0.000000 0.000000
vn -1.000000 -0.000000 0.000000
vn -1.000000 -0.000000 0.000000
vn -1.000000 -0.000000 0.000000
vn -1.000000 0.000000 0.000000
vn -1.000000 0.000000 0.000000
vn -1.000000 0.000000 0.000000
vn -1.000000 0.000000 0.000000
vn -1.000000 -0.000000 0.000000
vn -1.000000 -0.000000 0.000000
vn -1.000000 -0.000000 0.000000
vn -1.000000 0.000000 0.000000
vn -1.000000 0.000000 0.000000
vn -1.000000 0.000000 0.000000
vn -1.000000 0.000000 -0.000001
vn -1.000000 0.000000 -0.000001
vn -1.000000 0.000000 -0.000001
vn -1.000000 0.000000 0.000000
vn 0.007192 -0.031531 -0.999477
vn 0.032417 -0.015773 -0.999350
vn 0.032417 -0.015773 -0.999350
vn 0.057612 0.000000 -0.998339
vn 0.039979 0.059810 -0.997409
vn 0.039979 0.059810 -0.997409
vn 0.039979 0.059810 -0.997409
vn 0.003346 -0.044793 -0.998991
vn 0.003346 -0.044793 -0.998991
vn 0.003346 -0.044793 -0.998991
vn 0.999170 0.034966 0.020918
vn 0.998357 0.046141 0.033991
vn 0.005546 0.009057 -0.999944
vn -0.040862 0.013465 -0.999074
vn -0.075251 0.019156 -0.996981
vn 0.999365 0.022681 0.027489
vn 0.998621 0.031149 0.042261
vn -0.000112 0.013106 -0.999914
vn -0.049538 0.015014 -0.998659
vn -0.078237 0.017067 -0.996789
vn 0.999702 0.023001 0.008135
vn 0.999296 0.026938 0.026132
vn 0.999738 0.018049 0.014056
vn 0.998150 0.034909 0.049790
vn -0.034405 0.013392 -0.999318
vn -0.011673 0.010119 -0.999881
vn -0.087378 0.016587 -0.996037
vn -0.071846 0.000000 -0.997416
vn -0.071846 0.000000 -0.997416
vn -0.030282 -0.002151 -0.999539
vn -0.072074 0.000935 -0.997399
vn 0.032163 0.000000 -0.999483
vn 0.032163 0.000000 -0.999483
vn 0.038398 0.005400 -0.999248
vn -0.999998 0.002060 0.000189
vn -1.000000 0.000515 0.000436
vn -0.999999 0.001012 0.000380
vn -1.000000 0.000135 0.000248
vn -0.011663 0.003747 -0.999925
vn -0.069263 0.002078 -0.997596
vn 0.084199 0.020838 -0.996231
vn -1.000000 0.000395 0.000016
vn -1.000000 0.000330 0.000035
vn -1.000000 0.000130 0.000175
vn -1.000000 0.000024 0.000262
vn 0.015068 0.008419 -0.999851
vn -0.063303 -0.002104 -0.997992
vn 0.138033 0.037610 -0.989713
vn 0.000018 0.091548 0.995801
vn -0.003687 0.094297 0.995537
vn -0.003687 0.094297 0.995537
vn -0.007391 0.097043 0.995253
vn -0.000000 1.000000 -0.000179
vn 0.000855 1.000000 -0.000312
vn 0.000855 1.000000 -0.000312
vn 0.001710 0.999998 -0.000446
vn 0.000000 1.000000 0.000008
vn -0.000001 1.000000 0.000008
vn -0.000001 1.000000 0.000008
vn -0.000003 1.000000 0.000009
vn 0.000020 0.062792 0.998027
vn -0.008011 0.076428 0.997043
vn -0.008011 0.076428 0.997043
vn -0.016039 0.090045 0.995809
vn 0.015027 0.932688 0.360371
vn -0.020017 0.982675 0.184252
vn -0.020017 0.982675 0.184252
vn -0.054366 0.998520 0.001730
vn 0.189946 0.949109 0.251221
vn 0.098778 0.812553 0.574456
vn 0.098778 0.812553 0.574456
vn -0.005373 0.569195 0.822185
vn 0.000566 0.000271 1.000000
vn 0.000279 0.000411 1.000000
vn 0.000279 0.000411 1.000000
vn -0.000007 0.000550 1.000000
vn -0.004499 0.999981 -0.004161
vn -0.002571 0.999986 -0.004633
vn -0.002571 0.999986 -0.004633
vn -0.000643 0.999987 -0.005105
vn -0.000003 0.860491 0.509466
vn -0.000365 0.860312 0.509767
vn -0.000365 0.860312 0.509767
vn -0.000727 0.860134 0.510068
vn -0.999078 0.042905 0.001173
vn -0.999686 0.024973 0.002261
vn -0.999686 0.024973 0.002261
vn -0.999970 0.007032 0.003349
vn -0.000051 0.000745 1.000000
vn 0.000451 0.000633 1.000000
vn 0.000451 0.000633 1.000000
vn 0.000954 0.000521 0.999999
vn 0.000002 1.000000 -0.000020
vn 0.000002 1.000000 -0.000021
vn 0.000002 1.000000 -0.000021
vn 0.000001 1.000000 -0.000021
vn -0.000582 -0.000552 1.000000
vn -0.000341 -0.000588 1.000000
vn -0.000341 -0.000588 1.000000
vn -0.000101 -0.000624 1.000000
vn -0.000383 1.000000 -0.000622
vn -0.000200 1.000000 -0.000631
vn -0.000200 1.000000 -0.000631
vn -0.000017 1.000000 -0.000641
vn -0.999994 0.002684 0.002199
vn -0.999993 0.003456 0.001702
vn -0.999993 0.003456 0.001702
vn -0.999990 0.004227 0.001204
vn -0.999996 0.002506 0.001179
vn -0.999996 0.002696 0.001069
vn -0.999996 0.002696 0.001069
vn -0.999995 0.002885 0.000960
vn -0.999069 0.042953 0.004130
vn -0.999511 0.031136 0.002791
vn -0.999511 0.031136 0.002791
vn -0.999812 0.019315 0.001450
vn -0.999994 0.003168 0.001182
vn -0.999995 0.002824 0.001354
vn -0.999995 0.002824 0.001354
vn -0.999996 0.002480 0.001526
vn 0.807691 0.589046 -0.025700
vn 0.807691 0.589046 -0.025700
vn 0.807691 0.589046 -0.025700
vn 1.000000 -0.000055 -0.000230
vn 1.000000 -0.000024 -0.000241
vn 1.000000 -0.000024 -0.000241
vn 1.000000 0.000008 -0.000251
vn 0.999997 -0.002266 -0.001356
vn 0.999999 -0.001134 -0.000618
vn 0.999999 -0.001134 -0.000618
vn 1.000000 -0.000002 0.000119
vn 1.000000 -0.000051 -0.000091
vn 1.000000 -0.000758 0.000343
vn 1.000000 -0.000758 0.000343
vn 0.999999 -0.001466 0.000778
vn 1.000000 0.000000 -0.000586
vn 1.000000 -0.000185 -0.000475
vn 1.000000 -0.000185 -0.000475
vn 1.000000 -0.000369 -0.000365
vn 1.000000 -0.000045 -0.000348
vn 1.000000 -0.000045 -0.000348
vn 1.000000 -0.000045 -0.000348
vn 1.000000 -0.000025 0.000127
vn 1.000000 -0.000025 0.000127
vn 1.000000 -0.000025 0.000127
vn 1.000000 0.000000 0.000865
vn 1.000000 0.000000 0.000865
vn 1.000000 0.000000 0.000865
vn 0.992050 -0.009946 -0.125451
vn 0.992050 -0.009946 -0.125451
vn 0.992050 -0.009946 -0.125451
vn 0.999999 -0.001682 -0.000246
vn 0.999999 -0.001682 -0.000246
vn 0.999999 -0.001682 -0.000246
vn -0.064350 -0.020446 -0.997718
vn -0.045307 -0.010225 -0.998921
vn -0.038952 -0.006817 -0.999218
vn -0.026241 0.000000 -0.999656
vn -0.026242 -0.000000 -0.999656
vn -0.000015 1.000000 -0.000588
vn -0.000199 1.000000 -0.000555
vn -0.000199 1.000000 -0.000555
vn -0.000383 1.000000 -0.000522
vn -0.000104 -0.000518 1.000000
vn -0.000344 -0.000453 1.000000
vn -0.000344 -0.000453 1.000000
vn -0.000584 -0.000387 1.000000
vn 0.000000 1.000000 -0.000021
vn 0.000001 1.000000 -0.000021
vn 0.000001 1.000000 -0.000021
vn 0.000002 1.000000 -0.000021
vn 0.000953 0.000820 0.999999
vn 0.000451 0.000918 1.000000
vn 0.000451 0.000918 1.000000
vn -0.000050 0.001015 1.000000
vn -0.000641 0.999993 -0.003600
vn -0.002569 0.999991 -0.003310
vn -0.002569 0.999991 -0.003310
vn -0.004497 0.999985 -0.003020
vn -0.000009 0.000209 1.000000
vn 0.000279 0.000142 1.000000
vn 0.000279 0.000142 1.000000
vn 0.000566 0.000075 1.000000
vn 0.001710 0.999999 0.000017
vn 0.000855 1.000000 0.000013
vn 0.000855 1.000000 0.000013
vn 0.000000 1.000000 0.000009
vn -0.007406 0.090751 0.995846
vn -0.003694 0.090586 0.995882
vn -0.003694 0.090586 0.995882
vn 0.000019 0.090419 0.995904
vn -0.000044 0.979840 0.199783
vn -0.000044 0.979840 0.199783
vn -0.000044 0.979840 0.199783
f 122/141/1 2/120/2 121/146/3
f 121/146/3 2/120/2 3/3/4
f 2/2/5 122/142/6 6/6/7
f 6/6/7 122/142/6 51/5/8
f 122/142/6 50/1/9 51/5/8
f 1/7/10 4/8/11 8/10/12
f 8/10/12 4/8/11 7/9/13
f 7/9/14 32/11/15 10/13/16
f 10/13/16 32/11/15 9/12/17
f 10/13/18 11/14/19 7/9/20
f 7/9/20 11/14/19 12/15/21
f 11/14/22 13/16/23 12/15/24
f 12/15/24 13/16/23 14/17/25
f 16/18/26 17/19/27 14/17/28
f 14/17/28 17/19/27 12/15/29
f 17/19/30 8/10/31 12/15/32
f 12/15/32 8/10/31 7/9/33
f 8/10/34 18/20/35 1/7/36
f 1/7/36 18/20/35 19/21/37
f 8/10/38 17/19/39 18/20/40
f 18/20/40 17/19/39 20/22/41
f 16/18/42 21/23/43 17/19/44
f 17/19/44 21/23/43 20/22/45
f 20/22/46 21/23/47 23/25/48
f 23/25/48 21/23/47 22/24/49
f 20/22/50 23/25/51 18/20/52
f 18/20/52 23/25/51 24/26/53
f 24/26/54 25/27/55 18/20/56
f 18/20/56 25/27/55 19/21/57
f 25/27/58 24/26/59 27/30/60
f 24/26/59 30/28/61 27/30/60
f 30/28/61 26/29/62 27/30/60
f 30/28/63 31/31/64 26/29/65
f 26/29/65 31/31/64 28/32/66
f 23/25/67 31/31/68 24/26/69
f 24/26/69 31/31/68 30/28/70
f 22/24/71 29/33/72 23/25/73
f 23/25/73 29/33/72 31/31/74
f 7/9/75 4/8/76 32/11/77
f 9/12/78 32/11/79 34/35/80
f 34/35/80 32/11/79 33/34/81
f 34/35/82 33/34/83 36/37/84
f 36/37/84 33/34/83 35/36/85
f 35/36/86 37/38/87 36/37/88
f 36/37/88 37/38/87 38/39/89
f 37/38/90 39/40/91 38/39/92
f 38/39/92 39/40/91 40/41/93
f 40/41/94 39/40/95 42/43/96
f 42/43/96 39/40/95 41/42/97
f 1/7/98 44/117/99 4/8/100
f 4/8/100 44/117/99 43/45/101
f 45/46/102 44/44/103 5/47/104
f 5/47/104 44/44/103 1/118/105
f 43/45/106 35/36/107 4/8/108
f 35/36/107 33/34/109 4/8/108
f 41/42/110 46/48/111 42/43/112
f 42/43/112 46/48/111 47/49/113
f 39/40/114 48/50/115 41/42/116
f 41/42/116 48/50/115 46/48/117
f 48/50/118 121/140/119 3/148/120
f 39/40/121 37/38/122 49/4/123
f 35/36/124 43/45/125 37/38/122
f 37/38/122 43/45/125 49/4/123
f 44/117/126 50/119/127 43/45/128
f 43/45/128 50/119/127 49/4/129
f 51/5/130 50/1/131 45/46/132
f 45/46/132 50/1/131 44/44/133
f 58/60/134 57/61/135 26/29/136
f 26/29/136 57/61/135 27/30/137
f 26/29/138 28/32/139 58/60/140
f 58/60/140 28/32/139 59/62/141
f 61/63/142 60/116/143 58/60/144
f 58/60/144 60/116/143 57/61/145
f 58/60/146 59/62/147 61/63/148
f 61/63/148 59/62/147 62/65/149
f 63/57/150 28/32/151 120/139/152
f 120/139/152 28/32/151 31/31/153
f 55/58/154 59/62/155 63/57/156
f 63/57/156 59/62/155 28/32/157
f 56/59/158 62/65/159 55/58/160
f 55/58/160 62/65/159 59/62/161
f 77/69/162 123/143/163 76/115/164
f 76/115/164 123/143/163 124/144/165
f 76/68/166 124/145/167 91/89/168
f 71/114/169 90/88/170 124/145/167
f 124/145/167 90/88/170 91/89/168
f 91/89/171 92/90/172 76/68/173
f 76/68/173 92/90/172 60/64/174
f 94/113/175 95/93/176 93/91/177
f 93/91/177 95/93/176 96/94/178
f 94/113/179 97/111/180 95/93/181
f 95/93/181 97/111/180 98/96/182
f 95/93/183 98/96/184 100/98/185
f 100/98/185 98/96/184 113/124/186
f 98/96/184 99/97/187 113/124/186
f 95/93/188 100/98/189 96/94/190
f 96/94/190 100/98/189 101/99/191
f 94/92/192 93/112/193 97/95/194
f 97/95/194 93/112/193 102/100/195
f 104/130/196 105/103/197 103/101/198
f 103/101/198 105/103/197 106/104/199
f 106/104/200 107/105/201 103/101/202
f 103/101/202 107/105/201 108/106/203
f 108/128/204 109/107/205 103/129/206
f 103/129/206 109/107/205 104/102/207
f 105/103/208 110/108/209 106/104/210
f 106/104/210 110/108/209 111/109/211
f 112/110/212 107/105/213 117/135/214
f 107/105/213 106/104/215 117/135/214
f 106/104/215 111/109/216 117/135/214
f 101/121/217 100/122/218 114/125/219
f 114/125/219 100/122/218 113/123/220
f 114/125/221 113/123/222 115/126/223
f 115/126/224 113/123/225 99/127/226
f 117/132/227 119/133/228 112/134/229
f 111/136/230 110/137/231 117/132/232
f 117/132/232 110/137/231 118/138/233
f 117/132/234 118/138/235 119/133/236
f 29/33/237 120/139/238 31/31/239
f 122/147/240 121/140/241 50/119/242
f 50/119/242 121/140/241 49/4/243
f 124/150/244 123/149/245 71/71/246
f 71/71/246 123/149/245 70/70/247
f 49/4/248 121/140/249 39/40/250
f 39/40/250 121/140/249 48/50/251
f 1/151/252 19/152/253 5/154/254
f 5/154/254 19/152/253 125/153/255
f 19/152/256 25/155/257 125/153/258
f 125/153/258 25/155/257 126/156/259
f 25/155/260 27/157/261 126/156/262
f 126/156/262 27/157/261 127/158/263
f 57/159/264 128/160/265 27/157/266
f 27/157/266 128/160/265 127/158/267
f 57/159/268 60/161/269 128/160/270
f 128/160/270 60/161/269 92/162/271
f 98/163/272 97/164/273 129/166/274
f 129/166/274 97/164/273 102/165/275
f 99/167/276 98/163/277 115/168/278
f 115/168/278 98/163/277 129/166/279
f 107/170/280 130/171/281 108/169/282
f 108/169/282 130/171/281 109/172/283
f 112/173/284 119/174/285 107/170/286
f 107/170/286 119/174/285 130/171/281
f 3/175/287 2/176/288 131/178/289
f 131/178/289 2/176/288 6/177/290
f 70/180/291 132/181/292 71/179/293
f 71/179/293 132/181/292 90/182/294
f 4/8/295 33/34/296 32/11/297
f 10/204/298 9/205/299 11/207/300
f 11/207/300 9/205/299 137/206/301
f 34/208/302 36/209/303 9/205/304
f 9/205/304 36/209/303 138/210/305
f 40/212/306 139/213/307 38/211/308
f 38/211/308 139/213/307 36/209/309
f 42/214/310 47/215/311 40/212/312
f 40/212/312 47/215/311 140/216/313
f 40/212/314 140/216/315 139/213/316
f 36/209/317 139/213/318 138/210/319
f 9/205/320 138/210/321 137/206/322
f 13/218/323 11/207/324 15/217/325
f 11/207/324 137/206/326 15/217/325
f 46/219/327 48/220/328 47/215/329
f 47/215/329 48/220/328 140/216/330
f 48/220/331 3/221/332 140/216/333
f 3/221/334 131/222/335 140/216/336
f 118/225/235 142/226/337 119/227/236
f 119/227/236 142/226/337 143/228/338
f 109/223/283 130/229/281 141/224/339
f 141/224/339 130/229/281 144/230/340
f 130/229/281 119/227/285 144/230/340
f 144/230/340 119/227/285 143/228/341
f 142/226/337 147/233/342 143/228/338
f 143/228/338 147/233/342 148/234/343
f 141/224/339 144/230/340 145/231/344
f 145/231/344 144/230/340 149/235/345
f 143/228/341 148/234/346 144/230/340
f 144/230/340 148/234/346 149/235/345
f 147/233/342 146/232/347 152/238/348
f 152/238/348 146/232/347 151/237/349
f 147/233/342 152/238/348 148/234/343
f 148/234/343 152/238/348 153/239/350
f 149/235/345 154/240/351 145/231/344
f 145/231/344 154/240/351 150/236/352
f 148/234/346 153/239/353 149/235/345
f 149/235/345 153/239/353 154/240/351
f 129/246/354 102/241/355 158/247/356
f 158/247/356 102/241/355 155/242/357
f 115/244/358 129/246/359 157/245/360
f 157/245/360 129/246/359 158/247/356
f 157/245/361 162/251/362 156/243/363
f 156/243/363 162/251/362 161/250/364
f 158/247/356 155/242/357 163/252/365
f 163/252/365 155/242/357 160/249/366
f 158/247/356 163/252/365 157/245/360
f 157/245/360 163/252/365 162/251/367
f 161/250/364 166/255/368 159/248/369
f 159/248/369 166/255/368 164/253/370
f 162/251/362 167/256/371 161/250/364
f 161/250/364 167/256/371 166/255/368
f 163/252/365 160/249/366 168/257/372
f 168/257/372 160/249/366 165/254/373
f 163/252/365 168/257/372 162/251/367
f 162/251/367 168/257/372 167/256/374
f 170/270/375 169/269/376 53/54/377
f 53/54/377 169/269/376 52/53/378
f 170/270/379 53/54/380 171/271/381
f 171/271/381 53/54/380 54/55/382
f 61/63/383 68/51/384 60/116/385
f 60/116/385 68/51/384 67/56/386
f 61/63/387 62/65/388 68/51/389
f 68/51/389 62/65/388 69/52/390
f 62/65/391 56/59/392 69/52/393
f 69/52/393 56/59/392 64/66/394
f 116/268/395 66/67/396 169/269/397
f 169/269/397 66/67/396 52/53/398
f 172/272/399 171/271/400 72/72/401
f 72/72/401 171/271/400 54/55/402
f 172/272/403 72/72/404 173/273/405
f 173/273/405 72/72/404 74/74/406
f 60/116/407 67/56/408 76/115/409
f 76/115/409 67/56/408 77/69/410
f 75/75/411 77/69/412 73/73/413
f 73/73/413 77/69/412 67/56/414
f 174/274/415 173/273/416 78/76/417
f 78/76/417 173/273/416 74/74/418
f 174/274/419 78/76/420 175/275/421
f 175/275/421 78/76/420 80/78/422
f 176/276/423 175/275/424 82/80/425
f 82/80/425 175/275/424 80/78/426
f 176/276/427 82/80/428 177/277/429
f 177/277/429 82/80/428 84/82/430
f 85/83/431 86/84/432 83/81/433
f 83/81/433 86/84/432 81/79/434
f 81/79/435 87/85/436 79/77/437
f 79/77/437 87/85/436 75/75/438
f 75/75/439 87/85/440 77/69/441
f 77/69/441 87/85/440 88/86/442
f 86/84/443 89/87/444 81/79/445
f 81/79/445 89/87/444 87/85/446
f 116/131/447 69/52/448 64/66/449
f 54/183/450 53/184/451 133/186/452
f 133/186/452 53/184/451 52/185/453
f 72/188/454 54/183/455 74/187/456
f 74/187/456 54/183/455 134/189/457
f 80/190/458 78/191/459 135/192/460
f 135/192/460 78/191/459 74/187/461
f 84/193/462 82/194/463 136/195/464
f 136/195/464 82/194/463 80/190/465
f 80/190/466 135/192/467 136/195/468
f 54/183/469 133/186/470 134/189/471
f 74/187/472 134/189/473 135/192/474
f 66/196/475 65/197/476 52/198/477
f 52/198/478 65/197/479 133/199/480
f 86/202/481 85/203/482 136/201/483
f 84/200/484 136/201/483 177/267/485
f 85/203/482 177/267/485 136/201/483
f 177/266/486 85/83/487 176/265/488
f 176/265/488 85/83/487 83/81/489
f 175/264/490 176/265/491 81/79/492
f 81/79/492 176/265/491 83/81/493
f 175/264/494 81/79/495 174/263/496
f 174/263/496 81/79/495 79/77/497
f 173/262/498 174/263/499 75/75/500
f 75/75/500 174/263/499 79/77/501
f 173/262/502 75/75/503 172/261/504
f 172/261/504 75/75/503 73/73/505
f 171/260/506 172/261/507 67/56/508
f 67/56/508 172/261/507 73/73/509
f 171/260/510 67/56/511 170/258/512
f 170/258/512 67/56/511 68/51/513
f 169/259/514 170/258/515 69/52/516
f 69/52/516 170/258/515 68/51/517
f 116/131/518 169/259/519 69/52/520
