# This file uses centimeters as units for non-parametric coordinates.

v -0.132008 -0.172331 0.183603
v -0.108975 -0.172336 0.024578
v 0.025811 -0.172256 0.273718
v 0.073209 -0.172343 0.054123
v 0.037657 -0.072931 0.238770
v 0.060478 0.057073 0.110543
v -0.083352 -0.080704 0.183443
v -0.062286 0.053234 0.081461
v -0.067135 -0.001261 0.054257
v 0.068031 -0.058502 0.080352
v 0.078753 -0.172342 0.111067
v -0.125621 -0.172332 0.076187
v -0.045670 0.008904 -0.096775
v -0.045688 -0.172337 -0.117979
v 0.047025 0.047041 -0.052255
v 0.085233 -0.172333 -0.069253
v -0.099877 -0.071009 0.101572
v 0.059796 -0.076373 0.150337
v 0.074489 -0.172192 0.231609
v -0.130541 -0.172333 0.124177
v 0.015920 -0.172322 -0.123615
v 0.004334 0.049598 -0.082171
v 0.004980 0.075232 0.099626
v -0.003458 0.016259 0.073281
v -0.007202 -0.037118 0.127567
v -0.015285 -0.059720 0.205643
v -0.038484 -0.172337 0.273346
v -0.017967 -0.172334 0.166124
v 0.000860 -0.172337 0.101496
v -0.000177 -0.172337 0.036165
v 0.081620 -0.172356 0.129983
v 0.063537 -0.094701 0.169466
v 0.045265 -0.110776 0.267003
v -0.023410 -0.109375 0.222817
v -0.111250 -0.110055 0.182110
v -0.118439 -0.111542 0.115295
v -0.119985 -0.093859 0.072844
v -0.085917 -0.063914 -0.005293
v -0.054179 -0.099813 -0.135199
v 0.015749 -0.102508 -0.143380
v 0.057323 -0.101803 -0.082967
v 0.070435 -0.068831 0.031464
v 0.054473 0.041622 -0.011436
v -0.001019 0.058934 -0.035310
v -0.064053 0.035148 -0.050992
v -0.076891 -0.075040 -0.045720
v -0.093631 -0.172334 -0.016626
v 0.001865 -0.172333 0.007892
v 0.058294 -0.172339 0.011158
v 0.056130 -0.079386 -0.002024
vt 0.406223 0.004191
vt 0.557794 0.004246
vt 0.565232 0.003853
vt 0.431777 0.003762
vt 0.498846 0.451334
vt 0.596053 0.933618
vt 0.413321 0.890510
vt 0.349307 0.527055
vt 0.295457 0.004715
vt 0.322126 0.282170
vt 0.416774 0.343914
vt 0.405901 0.004714
vt 0.939168 0.004063
vt 0.984129 0.301997
vt 0.878442 0.296969
vt 0.869166 0.003739
vt 0.029476 0.005576
vt 0.056344 0.004099
vt 0.036380 0.259423
vt 0.109447 0.277045
vt 0.325641 0.385700
vt 0.345353 0.468058
vt 0.143007 0.002879
vt 0.387768 0.003921
vt 0.281641 0.317443
vt 0.244517 0.004216
vt 0.595412 0.446982
vt 0.531769 0.004694
vt 0.691759 0.408389
vt 0.634444 0.004612
vt 0.696211 0.877476
vt 0.710849 0.939414
vt 0.617443 0.413749
vt 0.657168 0.003931
vt 0.686680 0.377300
vt 0.624772 0.004201
vt 0.101113 0.399716
vt 0.153856 0.453189
vt 0.174506 0.284974
vt 0.160829 0.004668
vt 0.876835 0.004604
vt 0.908476 0.321555
vt 0.617247 0.918808
vt 0.701116 0.856505
vt 0.460421 0.491496
vt 0.363596 0.420034
vt 0.185382 0.383423
vt 0.828761 0.524931
vt 0.822600 0.906367
vt 0.786496 0.897180
vn -0.000036 -1.000000 -0.000048
vn 0.294293 -0.950236 -0.102190
vn -0.000049 -1.000000 0.000016
vn -0.002526 -0.999997 0.000546
vn 0.552130 0.482743 0.679788
vn 0.378555 0.246756 0.892081
vn -0.152421 -0.037340 0.987610
vn -0.006656 0.821668 0.569927
vn -0.784029 -0.620691 -0.006386
vn -0.927699 0.359517 0.100610
vn -0.733208 -0.674652 -0.085155
vn -0.953814 0.291800 -0.071361
vn 0.250314 0.062864 -0.966122
vn 0.911072 0.146995 -0.385150
vn 0.378641 -0.659517 -0.649360
vn 0.682795 -0.694516 -0.226799
vn -0.336699 -0.467138 0.817567
vn 0.047772 -0.467747 0.882570
vn -0.409616 0.405972 0.816947
vn 0.439718 0.371381 0.817756
vn 0.730262 0.658445 0.182118
vn -0.025676 0.884142 0.466512
vn 0.942952 0.296972 0.150497
vn 0.669646 -0.689806 0.275211
vn 0.987054 -0.136434 0.084317
vn 0.000458 -1.000000 0.000239
vn -0.811390 -0.504676 -0.294871
vn -0.978943 0.138829 -0.149657
vn -0.687904 -0.681560 -0.249527
vn -0.950724 0.054319 -0.305242
vn 0.784350 0.597572 -0.166444
vn -0.019921 0.992990 -0.116511
vn 0.811805 -0.576999 -0.089693
vn 0.955726 0.005436 -0.294207
vn 0.981197 0.008821 -0.192806
vn -0.000001 -1.000000 -0.000087
vn 0.327185 0.738221 0.589899
vn -0.128588 0.834925 0.535132
vn -0.805436 0.397921 0.439240
vn -0.744588 -0.359462 0.562473
vn -0.664813 0.034420 -0.746217
vn -0.492423 -0.626983 -0.603665
vn -0.768438 0.321024 0.553576
vn -0.754940 0.578568 -0.308748
vn -0.753432 0.365304 0.546712
vn -0.708494 0.633674 0.310635
vn -0.577558 0.682580 0.447784
vn -0.556951 0.392253 -0.732081
vn 0.166564 0.720562 -0.673088
vn 0.774066 0.569088 -0.277418
vn 0.997763 0.055448 0.037350
vn 0.997763 0.055448 0.037350
vn 0.997763 0.055448 0.037350
vn 0.987345 0.052625 -0.149601
vn 0.990565 0.060055 -0.123186
vn 0.996289 0.052145 -0.068479
vn 0.998276 0.051774 -0.027645
vn 0.998494 0.035846 0.041527
f 30/2/1 4/3/2 29/1/3
f 29/1/3 4/3/2 11/4/4
f 10/5/5 6/6/6 24/8/7
f 24/8/7 6/6/6 23/7/8
f 20/9/9 36/10/10 12/12/11
f 12/12/11 36/10/10 37/11/12
f 40/14/13 41/15/14 21/13/15
f 21/13/15 41/15/14 16/16/16
f 27/17/17 3/18/18 34/20/19
f 34/20/19 3/18/18 33/19/20
f 18/21/21 10/5/5 25/22/22
f 25/22/22 10/5/5 24/8/7
f 32/25/23 19/23/24 31/24/25
f 19/23/24 11/4/4 31/24/25
f 29/1/3 11/4/4 28/26/26
f 28/26/26 11/4/4 19/23/24
f 12/12/11 37/11/12 2/28/27
f 2/28/27 37/11/12 38/27/28
f 2/28/27 38/27/28 47/30/29
f 47/30/29 38/27/28 46/29/30
f 6/6/6 43/31/31 23/7/8
f 23/7/8 43/31/31 44/32/32
f 4/3/2 49/34/33 42/33/34
f 42/33/34 49/34/33 50/35/35
f 4/3/2 30/2/1 49/34/33
f 49/34/33 30/2/1 48/36/36
f 5/37/37 18/21/21 26/38/38
f 26/38/38 18/21/21 25/22/22
f 3/18/18 19/23/24 33/19/20
f 33/19/20 19/23/24 32/25/23
f 27/17/17 28/26/26 3/18/18
f 3/18/18 28/26/26 19/23/24
f 36/10/10 20/9/9 35/39/39
f 35/39/39 20/9/9 1/40/40
f 39/42/41 40/14/13 14/41/42
f 14/41/42 40/14/13 21/13/15
f 23/7/8 44/32/32 8/43/43
f 8/43/43 44/32/32 45/44/44
f 23/7/8 8/43/43 24/8/7
f 24/8/7 8/43/43 9/45/45
f 24/8/7 9/45/45 25/22/22
f 25/22/22 9/45/45 17/46/46
f 26/38/38 25/22/22 7/47/47
f 7/47/47 25/22/22 17/46/46
f 27/17/17 34/20/19 1/40/40
f 1/40/40 34/20/19 35/39/39
f 20/9/9 28/26/26 1/40/40
f 1/40/40 28/26/26 27/17/17
f 12/12/11 29/1/3 20/9/9
f 20/9/9 29/1/3 28/26/26
f 2/28/27 30/2/1 12/12/11
f 12/12/11 30/2/1 29/1/3
f 48/36/36 30/2/1 47/30/29
f 47/30/29 30/2/1 2/28/27
f 32/25/23 31/24/25 18/21/21
f 31/24/25 10/5/5 18/21/21
f 33/19/20 32/25/23 5/37/37
f 5/37/37 32/25/23 18/21/21
f 33/19/20 5/37/37 34/20/19
f 34/20/19 5/37/37 26/38/38
f 35/39/39 34/20/19 7/47/47
f 7/47/47 34/20/19 26/38/38
f 17/46/46 36/10/10 7/47/47
f 7/47/47 36/10/10 35/39/39
f 36/10/10 17/46/46 37/11/12
f 37/11/12 17/46/46 9/45/45
f 38/27/28 37/11/12 9/45/45
f 46/29/30 38/27/28 45/44/44
f 45/44/44 38/27/28 8/43/43
f 39/42/41 13/48/48 40/14/13
f 40/14/13 13/48/48 22/49/49
f 40/14/13 22/49/49 41/15/14
f 41/15/14 22/49/49 15/50/50
f 6/6/6 42/33/34 43/31/31
f 43/31/31 42/33/34 50/35/35
f 43/31/31 15/50/50 44/32/32
f 44/32/32 15/50/50 22/49/49
f 44/32/32 22/49/49 45/44/44
f 45/44/44 22/49/49 13/48/48
f 39/42/41 46/29/30 13/48/48
f 13/48/48 46/29/30 45/44/44
f 47/30/29 46/29/30 14/41/42
f 14/41/42 46/29/30 39/42/41
f 21/13/15 48/36/36 14/41/42
f 14/41/42 48/36/36 47/30/29
f 49/34/33 48/36/36 16/16/16
f 16/16/16 48/36/36 21/13/15
f 50/35/35 49/34/33 41/15/14
f 41/15/14 49/34/33 16/16/16
f 43/31/31 50/35/35 15/50/50
f 15/50/50 50/35/35 41/15/14
f 10/5/51 42/33/52 6/6/53
f 38/27/28 9/45/45 8/43/43
f 31/24/54 11/4/55 10/5/56
f 11/4/55 4/3/57 10/5/56
f 4/3/57 42/33/58 10/5/56
