# This file uses centimeters as units for non-parametric coordinates.

v 0.068098 -0.024730 0.054124
v 0.076230 -0.030839 -0.026125
v 0.097870 -0.033812 -0.117396
v 0.081105 0.017734 0.054595
v 0.091108 0.017734 -0.025735
v 0.114038 0.018972 -0.116972
v 0.068098 0.060198 0.054124
v 0.076230 0.066306 -0.026125
v 0.097870 0.071757 -0.117396
v 0.025647 0.071195 0.052585
v 0.025290 0.078520 -0.027386
v 0.038407 0.084330 -0.117805
v -0.016804 0.060198 0.051046
v -0.020885 0.066306 -0.028670
v -0.007667 0.071757 -0.120161
v -0.029810 0.017734 0.050575
v -0.035762 0.017734 -0.029060
v -0.023835 0.018972 -0.120584
v -0.016804 -0.024730 0.051046
v -0.020885 -0.030839 -0.028670
v -0.007667 -0.033812 -0.120161
v 0.025647 -0.035728 0.052585
v 0.027672 -0.043418 -0.027398
v 0.045101 -0.047483 -0.118778
v 0.047849 0.017992 -0.171800
v 0.024388 0.020030 0.095912
v 0.025902 -0.018564 0.081883
v -0.014563 0.019769 0.081341
v 0.064937 0.019769 0.084320
v 0.025214 0.056613 0.084274
v 0.002263 0.018944 -0.154062
v 0.052962 -0.026730 -0.154429
v 0.089158 0.018944 -0.157629
v 0.044331 0.063233 -0.153441
v 0.081243 -0.009910 -0.156598
v 0.014960 0.050558 -0.153288
v 0.082699 0.040163 -0.156620
v 0.020318 -0.012867 -0.153987
v 0.000435 -0.007760 0.081147
v -0.002651 0.044728 0.082702
v 0.052797 0.044795 0.084782
v 0.053552 -0.005049 0.083206
vt 0.126416 0.475921
vt 0.133015 0.472105
vt 0.150501 0.497608
vt 0.142342 0.502020
vt 0.124107 0.475355
vt 0.109706 0.481505
vt 0.125119 0.507649
vt 0.140767 0.501028
vt 0.132855 0.518888
vt 0.141422 0.515746
vt 0.114765 0.481723
vt 0.130818 0.508239
vt 0.143081 0.514446
vt 0.134408 0.518353
vt 0.145185 0.514032
vt 0.135247 0.524031
vt 0.097580 0.487514
vt 0.112010 0.514242
vt 0.123175 0.522446
vt 0.105367 0.518290
vt 0.120228 0.524063
vt 0.124449 0.522779
vt 0.115008 0.514923
vt 0.091399 0.491134
vt 0.100227 0.487928
vt 0.103443 0.457307
vt 0.090769 0.462808
vt 0.090117 0.451745
vt 0.098237 0.447792
vt 0.083062 0.465656
vt 0.086459 0.453185
vt 0.114077 0.451942
vt 0.119362 0.448776
vt 0.106266 0.443652
vt 0.108663 0.442227
vt 0.088445 0.462448
vt 0.099024 0.457117
vt 0.088706 0.451756
vt 0.111594 0.451658
vt 0.097083 0.447569
vt 0.105055 0.443774
vt 0.095778 0.443769
vn -0.097715 0.992807 0.069183
vn 0.525548 0.839133 0.140198
vn -0.029783 0.967230 -0.252151
vn 0.699356 0.679655 -0.221292
vn 0.596436 -0.789886 0.142633
vn 0.711371 -0.673811 -0.199826
vn 0.982908 -0.000121 0.184099
vn 0.957082 0.004793 -0.289776
vn 0.827277 -0.247196 -0.504486
vn 0.852873 0.014831 -0.521908
vn -0.768200 0.640060 -0.013882
vn -0.563536 0.763174 -0.316217
vn -0.260712 0.779474 -0.569606
vn 0.065739 0.808946 -0.584195
vn 0.343044 0.662273 -0.666120
vn -0.003168 0.375795 -0.926697
vn 0.238742 0.264468 -0.934376
vn -0.015382 0.000180 -0.999882
vn 0.324261 0.009554 -0.945920
vn 0.820301 0.260360 -0.509233
vn -0.039134 -0.997015 0.066552
vn -0.007226 -0.965725 -0.259465
vn 0.377295 -0.710934 -0.593482
vn 0.096539 -0.827592 -0.552966
vn -0.260655 -0.773809 -0.577303
vn -0.587917 -0.699909 -0.405562
vn -0.018641 -0.363853 -0.931270
vn -0.266928 -0.292000 -0.918415
vn -0.362909 -0.020721 -0.931594
vn -0.740050 0.272145 -0.615031
vn -0.932454 0.047039 -0.358214
vn -0.742082 -0.094619 -0.663597
vn -0.259969 0.265223 -0.928479
vn 0.231875 -0.236537 -0.943549
vn -0.606455 -0.345915 -0.715929
vn -0.766612 -0.641688 -0.023279
vn -0.999978 0.000040 0.006605
vn -0.673532 0.693545 0.255636
vn -0.930505 -0.007250 0.366207
vn -0.838684 0.315416 0.443984
vn -0.894754 -0.031121 0.445474
vn -0.666502 -0.688433 0.286069
vn -0.794585 -0.337198 0.504909
vn 0.726989 0.607993 0.319110
vn 0.024688 0.948581 0.315571
vn 0.277793 0.844377 0.458104
vn -0.013444 0.908420 0.417843
vn -0.308369 0.839264 0.447822
vn -0.081827 -0.926809 0.366509
vn 0.609600 -0.711033 0.350457
vn -0.291094 -0.799300 0.525722
vn 0.056214 -0.825473 0.561636
vn 0.917974 0.001548 0.396639
vn 0.314542 -0.705681 0.634884
vn -0.026753 -0.342437 0.939160
vn 0.195807 -0.252388 0.947608
vn -0.036173 -0.027385 0.998970
vn 0.274611 -0.025905 0.961206
vn 0.193656 0.208668 0.958621
vn -0.035828 0.303691 0.952097
vn -0.349862 -0.039193 0.935981
vn -0.258980 -0.269571 0.927503
vn -0.267216 0.210433 0.940380
vn 0.817418 0.323037 0.476943
vn 0.878517 0.001596 0.477709
vn 0.796726 -0.318650 0.513508
f 11/1/1 8/2/2 12/4/3
f 12/4/3 8/2/2 9/3/4
f 2/6/5 3/7/6 5/5/7
f 5/5/7 3/7/6 6/8/8
f 6/8/8 9/3/4 5/5/7
f 5/5/7 9/3/4 8/2/2
f 3/7/6 35/9/9 6/8/8
f 6/8/8 35/9/9 33/10/10
f 14/11/11 11/1/1 15/12/12
f 15/12/12 11/1/1 12/4/3
f 15/12/12 12/4/3 36/14/13
f 36/14/13 12/4/3 34/13/14
f 12/4/3 9/3/4 34/13/14
f 34/13/14 9/3/4 37/15/15
f 34/13/16 37/15/17 25/16/18
f 25/16/18 37/15/17 33/10/19
f 9/3/4 6/8/8 37/15/20
f 37/15/20 6/8/8 33/10/10
f 23/17/21 24/18/22 2/6/5
f 2/6/5 24/18/22 3/7/6
f 35/9/23 3/7/6 32/19/24
f 32/19/24 3/7/6 24/18/22
f 32/19/24 24/18/22 38/21/25
f 38/21/25 24/18/22 21/20/26
f 32/19/27 38/21/28 25/16/18
f 25/16/18 38/21/28 31/22/29
f 15/12/12 36/14/30 18/23/31
f 18/23/31 36/14/30 31/22/32
f 31/22/29 36/14/33 25/16/18
f 25/16/18 36/14/33 34/13/16
f 33/10/19 35/9/34 25/16/18
f 25/16/18 35/9/34 32/19/27
f 38/21/35 21/20/26 31/22/32
f 31/22/32 21/20/26 18/23/31
f 20/24/36 21/20/26 23/17/21
f 23/17/21 21/20/26 24/18/22
f 17/25/37 14/11/11 18/23/31
f 18/23/31 14/11/11 15/12/12
f 17/25/37 18/23/31 20/24/36
f 20/24/36 18/23/31 21/20/26
f 13/26/38 16/27/39 40/29/40
f 40/29/40 16/27/39 28/28/41
f 14/11/11 17/25/37 13/26/38
f 13/26/38 17/25/37 16/27/39
f 16/27/39 17/25/37 19/30/42
f 19/30/42 17/25/37 20/24/36
f 19/30/42 39/31/43 16/27/39
f 16/27/39 39/31/43 28/28/41
f 7/33/44 8/2/2 10/32/45
f 10/32/45 8/2/2 11/1/1
f 7/33/44 10/32/45 41/35/46
f 41/35/46 10/32/45 30/34/47
f 10/32/45 11/1/1 13/26/38
f 13/26/38 11/1/1 14/11/11
f 13/26/38 40/29/48 10/32/45
f 10/32/45 40/29/48 30/34/47
f 20/24/36 23/17/21 19/30/42
f 19/30/42 23/17/21 22/36/49
f 22/36/49 23/17/21 1/37/50
f 1/37/50 23/17/21 2/6/5
f 19/30/42 22/36/49 39/31/51
f 39/31/51 22/36/49 27/38/52
f 2/6/5 5/5/7 1/37/50
f 1/37/50 5/5/7 4/39/53
f 4/39/53 5/5/7 7/33/44
f 7/33/44 5/5/7 8/2/2
f 22/36/49 1/37/50 27/38/52
f 27/38/52 1/37/50 42/40/54
f 27/38/55 42/40/56 26/42/57
f 26/42/57 42/40/56 29/41/58
f 29/41/58 41/35/59 26/42/57
f 26/42/57 41/35/59 30/34/60
f 28/28/61 39/31/62 26/42/57
f 26/42/57 39/31/62 27/38/55
f 30/34/60 40/29/63 26/42/57
f 26/42/57 40/29/63 28/28/61
f 7/33/44 41/35/64 4/39/53
f 4/39/53 41/35/64 29/41/65
f 1/37/50 4/39/53 42/40/66
f 42/40/66 4/39/53 29/41/65
