# This file uses centimeters as units for non-parametric coordinates.

v -0.500000 -0.500000 0.000000
v 0.500000 -0.500000 0.000000
v -0.500000 0.500000 0.000000
v 0.500000 0.500000 0.000000
v 0.500000 0.280576 0.000000
v -0.500000 -0.244076 0.000000
v -0.261916 -0.500000 0.000000
v 0.293283 0.500000 0.000000
v -0.255660 0.500000 0.000000
v 0.306035 -0.500000 0.000000
v -0.500000 0.252602 0.000000
v 0.500000 -0.265828 0.000000
v -0.151657 0.317963 0.000000
v 0.193233 0.311976 0.000000
v 0.364412 0.181037 0.000000
v 0.312603 0.291866 0.000000
v -0.322478 -0.246977 0.000000
v -0.184445 -0.284962 0.000000
v -0.365739 0.165695 0.000000
v -0.377091 -0.179591 0.000000
v 0.217507 -0.266889 0.000000
v 0.339086 -0.246397 0.000000
v 0.367377 -0.197073 0.000000
v -0.290852 0.281343 0.000000
vt 0.015380 0.019975
vt 0.366477 0.019975
vt 0.015380 0.231956
vt 0.366477 0.231956
vt 0.366477 0.185442
vt 0.015380 0.074226
vt 0.098971 0.019975
vt 0.293900 0.231956
vt 0.101167 0.231956
vt 0.298377 0.019975
vt 0.015380 0.179512
vt 0.366477 0.069615
vt 0.132001 0.186868
vt 0.260478 0.184454
vt 0.299177 0.178329
vt 0.319756 0.159016
vt 0.126173 0.066878
vt 0.077707 0.074928
vt 0.058533 0.087896
vt 0.064601 0.159369
vt 0.305641 0.076033
vt 0.267295 0.070707
vt 0.319915 0.084190
vt 0.084324 0.182092
vn 0.000000 0.000000 1.000000
vn 0.000000 0.000000 1.000000
vn 0.000000 0.000000 1.000000
vn 0.000000 0.000000 1.000000
vn 0.000000 0.000000 1.000000
vn 0.000000 0.000000 1.000000
vn 0.000000 0.000000 1.000000
vn 0.000000 0.000000 1.000000
vn 0.000000 0.000000 1.000000
vn 0.000000 0.000000 1.000000
vn 0.000000 0.000000 1.000000
vn 0.000000 0.000000 1.000000
vn 0.000000 0.000000 1.000000
vn 0.000000 0.000000 1.000000
vn 0.000000 0.000000 1.000000
vn 0.000000 0.000000 1.000000
vn 0.000000 0.000000 1.000000
vn 0.000000 0.000000 1.000000
vn 0.000000 0.000000 1.000000
vn 0.000000 0.000000 1.000000
vn 0.000000 0.000000 1.000000
vn 0.000000 0.000000 1.000000
vn 0.000000 0.000000 1.000000
vn 0.000000 0.000000 1.000000
vn 0.000000 0.000000 1.000000
vn 0.000000 0.000000 1.000000
vn 0.000000 0.000000 1.000000
vn 0.000000 0.000000 1.000000
vn 0.000000 0.000000 1.000000
vn 0.000000 0.000000 1.000000
vn 0.000000 0.000000 1.000000
vn 0.000000 0.000000 1.000000
vn 0.000000 0.000000 1.000000
vn 0.000000 0.000000 1.000000
vn 0.000000 0.000000 1.000000
vn 0.000000 0.000000 1.000000
vn 0.000000 0.000000 1.000000
vn 0.000000 0.000000 1.000000
vn 0.000000 0.000000 1.000000
vn 0.000000 0.000000 1.000000
vn 0.000000 0.000000 1.000000
vn 0.000000 0.000000 1.000000
vn 0.000000 0.000000 1.000000
vn 0.000000 0.000000 1.000000
vn 0.000000 0.000000 1.000000
vn 0.000000 0.000000 1.000000
vn 0.000000 0.000000 1.000000
vn 0.000000 0.000000 1.000000
f 15/16/1 5/5/2 16/15/3
f 16/15/3 5/5/2 4/4/4
f 18/17/5 17/18/6 7/7/7
f 7/7/7 17/18/6 1/1/8
f 21/22/9 10/10/10 22/21/11
f 22/21/11 10/10/10 2/2/12
f 23/23/13 22/21/14 12/12/15
f 12/12/15 22/21/14 2/2/16
f 14/14/17 16/15/18 8/8/19
f 8/8/19 16/15/18 4/4/20
f 18/17/21 7/7/22 21/22/23
f 21/22/23 7/7/22 10/10/24
f 23/23/25 12/12/26 15/16/27
f 15/16/27 12/12/26 5/5/28
f 14/14/29 8/8/30 13/13/31
f 13/13/31 8/8/30 9/9/32
f 20/19/33 19/20/34 6/6/35
f 6/6/35 19/20/34 11/11/36
f 20/19/37 6/6/38 17/18/39
f 17/18/39 6/6/38 1/1/40
f 13/13/41 9/9/42 24/24/43
f 24/24/43 9/9/42 3/3/44
f 3/3/45 11/11/46 24/24/47
f 24/24/47 11/11/46 19/20/48
