# This file uses centimeters as units for non-parametric coordinates.

v 0.455390 -1.051920 -0.219800
v 0.314778 -1.051920 -0.398496
v 0.112027 -1.051920 -0.496575
v -0.112945 -1.051920 -0.496575
v -0.315581 -1.051920 -0.398496
v -0.455505 -1.051920 -0.219800
v -0.505509 -1.051920 -0.000000
v -0.455175 -1.049862 0.220714
v -0.313282 -1.037627 0.404827
v -0.110057 -1.033621 0.505131
v 0.114643 -1.035678 0.503749
v 0.315496 -1.049538 0.396824
v 0.455448 -1.051920 0.219332
v 0.505509 -1.051920 0.000000
v 0.803606 -0.729664 -0.389967
v 0.553882 -0.729664 -0.717748
v 0.195402 -0.729664 -0.895663
v -0.201774 -0.729664 -0.896131
v -0.559164 -0.729664 -0.720554
v -0.804352 -0.729664 -0.390435
v -0.892317 -0.729664 -0.000000
v -0.803907 -0.729339 0.387380
v -0.555879 -0.725776 0.700155
v -0.197026 -0.715762 0.878590
v 0.200335 -0.716405 0.878236
v 0.558190 -0.729967 0.697708
v 0.803702 -0.731988 0.385081
v 0.892228 -0.729999 -0.000324
v 1.002452 -0.260414 -0.483250
v 0.692954 -0.260414 -0.876491
v 0.244327 -0.260414 -1.111457
v -0.251274 -0.260414 -1.114730
v -0.696973 -0.260414 -0.896131
v -1.002969 -0.260414 -0.486524
v -1.112702 -0.260414 -0.000000
v -1.002510 -0.260414 0.482783
v -0.694338 -0.262429 0.867893
v -0.251660 -0.274518 1.070442
v 0.245540 -0.276745 1.069493
v 0.704560 -0.278126 0.859929
v 1.000771 -0.276679 0.468214
v 1.112079 -0.262754 -0.002270
v 1.002452 0.260414 -0.483250
v 0.692954 0.260414 -0.876491
v 0.244327 0.260414 -1.111457
v -0.251274 0.260414 -1.114730
v -0.696973 0.260414 -0.896131
v -1.002969 0.260414 -0.486524
v -1.112702 0.260414 -0.000000
v -1.002634 0.260193 0.482474
v -0.695087 0.257074 0.866042
v -0.251828 0.245764 1.069915
v 0.245656 0.242151 1.068372
v 0.706641 0.242254 0.860534
v 1.000397 0.242840 0.466551
v 1.111954 0.257853 -0.002579
v 0.803626 0.726569 -0.389153
v 0.553885 0.729222 -0.717632
v 0.195402 0.729664 -0.895663
v -0.201774 0.729664 -0.896131
v -0.559164 0.729664 -0.720554
v -0.804349 0.729222 -0.390319
v -0.892297 0.726569 0.000814
v -0.804633 0.725126 0.386459
v -0.560477 0.722283 0.689550
v -0.198904 0.738303 0.873384
v 0.200033 0.729559 0.869041
v 0.569806 0.724682 0.699295
v 0.801353 0.716168 0.375608
v 0.891503 0.724467 -0.001246
v 0.455535 1.029958 -0.214024
v 0.314816 1.046171 -0.396984
v 0.112047 1.048972 -0.495800
v -0.112926 1.048972 -0.495800
v -0.315562 1.048972 -0.397721
v -0.455467 1.046171 -0.218288
v -0.505364 1.029958 0.005775
v -0.455136 1.028993 0.226918
v -0.314676 1.041525 0.406796
v -0.115554 1.054424 0.492846
v 0.108621 1.052381 0.488178
v 0.312248 1.038605 0.385670
v 0.454428 1.027249 0.221490
v 0.505547 1.026936 0.006203
v 0.000070 -1.185323 0.000356
v 0.000041 1.159647 0.006788
v 0.403433 1.035883 -0.320143
v 0.223523 1.047086 -0.468191
v -0.000444 1.047086 -0.519310
v -0.224410 1.047086 -0.468191
v -0.403787 1.047086 -0.323089
v -0.225180 1.047160 0.471517
v -0.003950 1.053649 0.513106
v 0.220250 1.044186 0.456339
v 0.401501 1.029468 0.317107
v 0.502912 1.023798 0.120140
v 0.503411 1.024681 -0.108351
v 0.266070 1.104736 -0.121228
v 0.184101 1.116528 -0.227017
v 0.065749 1.118886 -0.284625
v -0.065594 1.118886 -0.284625
v -0.183930 1.118886 -0.227637
v -0.265805 1.116528 -0.124329
v -0.183122 1.113953 0.242899
v -0.067962 1.121585 0.289720
v 0.062470 1.121033 0.286290
v 0.180337 1.111191 0.225747
v 0.265404 1.103558 0.133226
v 0.295312 1.102378 0.007442
v -0.503158 1.035883 -0.111297
v -0.294954 1.104736 0.006822
v -0.503084 1.024681 0.121375
v -0.265482 1.104110 0.136656
v -0.402816 1.032027 0.332646
v -0.265668 -1.128946 0.129214
v -0.640750 -0.913376 0.309525
v -1.027960 0.000000 0.495039
v -0.869665 -0.260414 0.693534
v -0.926659 0.506723 0.444780
v -0.641156 0.900941 0.312011
v -0.926160 -0.507606 0.446015
v -0.484948 -0.268474 0.993980
v -0.182627 -1.120284 0.237723
v -0.402481 -1.041215 0.327369
v -0.442152 -0.904281 0.563157
v -0.641106 -0.507644 0.803267
v -0.712082 -0.002674 0.889435
v -0.870164 0.259530 0.692300
v -0.644102 0.502266 0.795860
v -0.700217 0.722124 0.550568
v -0.445565 0.906502 0.557771
v -0.697245 -0.728365 0.557045
v -0.004641 -0.276533 1.095930
v -0.064061 -1.118551 0.295875
v -0.221608 -1.031687 0.477004
v -0.155707 -0.895185 0.706632
v -0.230028 -0.507870 0.999219
v -0.258871 -0.018718 1.094183
v -0.485447 0.251471 0.992745
v -0.230700 0.505160 0.997111
v -0.389496 0.730767 0.801203
v -0.159862 0.924027 0.696348
v -0.386013 -0.720607 0.809379
v 0.067052 -1.120284 0.294711
v 0.002530 -1.030387 0.528996
v 0.160710 -0.896485 0.705759
v 0.228601 -0.509142 0.998676
v 0.251186 -0.021262 1.093099
v -0.004813 0.242996 1.095057
v 0.229065 0.498340 0.994192
v -0.000331 0.735617 0.893952
v 0.157180 0.918065 0.691399
v 0.001703 -0.714148 0.901660
v 0.184237 -1.128946 0.231902
v 0.225231 -1.039916 0.471474
v 0.443877 -0.912077 0.557918
v 0.389032 -0.723178 0.807964
v 0.723665 -0.020613 0.880333
v 0.489637 0.242215 0.990065
v 0.655567 0.496806 0.801137
v 0.395995 0.726977 0.804784
v 0.448719 0.907525 0.552163
v 0.647242 -0.516614 0.798716
v 0.488310 -0.277378 0.990183
v 0.265898 -1.130678 0.128050
v 0.403573 -1.049444 0.321839
v 0.640922 -0.914675 0.308652
v 0.698204 -0.732273 0.554332
v 1.025973 -0.018588 0.478389
v 0.876175 0.241332 0.680178
v 0.923670 0.493075 0.431038
v 0.703718 0.719490 0.550684
v 0.639009 0.896173 0.304021
v 0.925166 -0.516900 0.437690
v 0.875175 -0.278678 0.680658
v 1.084454 -0.260414 -0.247519
v 0.295125 -1.130678 0.000000
v 0.503248 -1.049444 0.114863
v 0.711370 -0.914675 0.000000
v 0.869309 -0.731001 0.197198
v 1.140237 -0.002674 -0.002594
v 1.081462 0.250171 0.237205
v 1.027104 0.505386 -0.002532
v 0.866337 0.719487 0.190722
v 0.710964 0.899641 0.002487
v 1.027604 -0.508943 -0.001297
v 1.081962 -0.269773 0.238440
v 0.869435 -0.260414 -0.695405
v 0.265898 -1.130678 -0.128050
v 0.869665 -0.729664 -0.198495
v 0.640693 -0.914675 -0.310522
v 0.925930 -0.507606 -0.447885
v 1.027960 0.000000 -0.495039
v 1.084454 0.260414 -0.247519
v 0.869688 0.726127 -0.197565
v 0.640774 0.902294 -0.307266
v 0.503248 -1.049444 -0.114863
v 0.925930 0.507606 -0.447885
v 0.480561 -0.260414 -1.019020
v 0.184007 -1.130678 -0.230738
v 0.403344 -1.049444 -0.323709
v 0.441925 -0.914675 -0.569264
v 0.639085 -0.507606 -0.818654
v 0.710911 0.000000 -0.895770
v 0.869435 0.260414 -0.695405
v 0.639085 0.507606 -0.818654
v 0.696051 0.727895 -0.566929
v 0.441936 0.912906 -0.568799
v 0.696039 -0.729664 -0.567394
v -0.003674 -0.260414 -1.142269
v 0.065672 -1.130678 -0.287726
v 0.223507 -1.049444 -0.468811
v 0.156458 -0.914675 -0.708498
v 0.225298 -0.507606 -1.030242
v 0.250670 0.000000 -1.138528
v 0.480561 0.260414 -1.019020
v 0.225298 0.507606 -1.030242
v 0.384052 0.729664 -0.828006
v 0.156458 0.914675 -0.708498
v 0.384052 -0.729664 -0.828006
v -0.486302 -0.260414 -1.032113
v -0.065671 -1.130678 -0.287726
v -0.000459 -1.049444 -0.519930
v -0.160132 -0.914675 -0.708498
v -0.232417 -0.507606 -1.032113
v -0.257559 0.000000 -1.142269
v -0.003674 0.260414 -1.142269
v -0.003215 0.729664 -0.918215
v -0.160132 0.914675 -0.708498
v -0.232417 0.507606 -1.032113
v -0.003215 -0.729664 -0.918215
v -0.871502 -0.260414 -0.708498
v -0.184007 -1.130678 -0.230738
v -0.224425 -1.049444 -0.468812
v -0.445139 -0.914675 -0.569264
v -0.644137 -0.507606 -0.829877
v -0.714585 0.000000 -0.918215
v -0.486302 0.260414 -1.032113
v -0.390252 0.729664 -0.829877
v -0.445139 0.914675 -0.569264
v -0.644137 0.507606 -0.829877
v -0.390252 -0.729664 -0.829877
v -1.084454 -0.260414 0.247519
v -0.295125 -1.130678 -0.000000
v -0.503247 -1.049444 0.114863
v -0.869665 -0.729664 0.198495
v -0.869641 0.726127 0.199425
v -1.084454 0.260414 0.247519
v -0.265898 -1.130678 -0.128050
v -0.503247 -1.049444 -0.114863
v -0.711370 -0.914675 -0.000000
v -0.869665 -0.729664 -0.198495
v -1.027959 -0.507606 -0.000000
v -1.084454 -0.260414 -0.247520
v -1.140949 0.000000 -0.000000
v -1.084454 0.260414 -0.247520
v -1.027959 0.507606 -0.000000
v -0.869653 0.727895 -0.198030
v -0.711288 0.902294 0.003256
v -0.403803 -1.049444 -0.323709
v -0.641152 -0.914675 -0.310522
v -0.926619 -0.507606 -0.449756
v -1.028419 0.000000 -0.498780
v -0.871502 0.260414 -0.708498
v -0.926619 0.507606 -0.449756
v -0.699024 0.729664 -0.569264
v -0.641140 0.912906 -0.310057
v -0.699024 -0.729664 -0.569264
v 0.264700 1.101908 -0.206030
v 0.146890 1.111342 -0.302411
v 0.000062 1.111342 -0.335924
v -0.146766 1.111342 -0.302411
v -0.264513 1.111342 -0.208511
v -0.147526 1.111055 0.312583
v -0.003423 1.115775 0.337031
v 0.142485 1.108845 0.298862
v 0.262037 1.097195 0.209369
v 0.330106 1.092475 0.082744
v 0.330106 1.092475 -0.067860
v -0.329795 1.101908 -0.070341
v -0.329733 1.092475 0.082744
v -0.263468 1.099405 0.223090
v -1.001863 0.507606 0.228669
v -0.891742 0.000000 0.711141
v -0.263655 -1.113845 0.215648
v -0.555302 -0.909478 0.446882
v -0.805429 0.504072 0.635778
v -0.557206 0.902187 0.445665
v -0.803432 -0.507606 0.640716
v -0.497729 -0.010696 1.017251
v -0.306482 -0.899083 0.651193
v -0.448603 0.503921 0.919227
v -0.310430 0.916122 0.643178
v -0.144988 -1.106916 0.314205
v -0.446606 -0.507757 0.924165
v -0.005698 -0.021392 1.119828
v 0.002760 -0.893886 0.725111
v -0.002159 0.502108 1.020744
v -0.001924 0.923197 0.711743
v 0.001840 -1.106916 0.347718
v -0.001469 -0.507908 1.024237
v 0.501177 -0.020873 1.012912
v 0.309933 -0.904281 0.647701
v 0.449710 -0.512845 0.921996
v 0.455018 0.497430 0.921522
v 0.311246 0.913062 0.637352
v 0.147748 -1.113845 0.309549
v 0.898040 -0.020873 0.696425
v 0.555992 -0.914675 0.443389
v 0.806581 -0.518043 0.633358
v 0.810582 0.493895 0.631439
v 0.558043 0.900790 0.438393
v 0.264575 -1.120775 0.210992
v 1.109136 -0.010696 0.243426
v 0.693311 -0.914675 0.158244
v 1.000439 -0.512954 0.223480
v 0.998442 0.498724 0.218542
v 0.691407 0.896990 0.157027
v 0.329920 -1.120775 0.075302
v 1.111985 0.000000 -0.253803
v 0.693311 -0.914675 -0.158244
v 0.693404 0.900525 -0.154523
v 0.329920 -1.120775 -0.075302
v 1.001863 0.507606 -0.228669
v 1.001863 -0.507606 -0.228669
v 0.891742 0.000000 -0.711141
v 0.555074 -0.914675 -0.450870
v 0.802514 0.507606 -0.648197
v 0.555120 0.907600 -0.449010
v 0.264575 -1.120775 -0.210992
v 0.802514 -0.507606 -0.648197
v 0.493043 0.000000 -1.042591
v 0.306715 -0.914675 -0.655679
v 0.443116 0.507606 -0.948306
v 0.306715 0.914675 -0.655679
v 0.146828 -1.120775 -0.304892
v 0.443116 -0.507606 -0.948306
v -0.003674 0.000000 -1.170507
v -0.001837 -0.914675 -0.726104
v -0.001837 0.914675 -0.726104
v 0.000000 -1.120775 -0.338404
v -0.003674 0.507606 -1.057554
v -0.003674 -0.507606 -1.057554
v -0.498554 0.000000 -1.057554
v -0.310390 -0.914675 -0.655679
v -0.310390 0.914675 -0.655679
v -0.146828 -1.120775 -0.304892
v -0.449545 0.507606 -0.955787
v -0.449546 -0.507606 -0.955787
v -0.893579 0.000000 -0.726104
v -1.111984 0.000000 0.253803
v -0.329920 -1.120775 0.075302
v -0.693311 -0.914675 0.158244
v -1.001863 -0.507606 0.228669
v -0.693218 0.900525 0.161965
v -0.329920 -1.120775 -0.075302
v -0.693311 -0.914675 -0.158244
v -1.001863 0.507606 -0.228669
v -0.693264 0.907600 -0.156383
v -0.556911 -0.914675 -0.450871
v -0.805269 0.507606 -0.655679
v -0.556911 0.914675 -0.450871
v -0.264575 -1.120775 -0.210992
v -0.805269 -0.507606 -0.655679
v -1.111984 0.000000 -0.253803
v -1.001863 -0.507606 -0.228669
vt 0.000000 0.142857
vt 0.071429 0.142857
vt 0.142857 0.142857
vt 0.214286 0.142857
vt 0.285714 0.142857
vt 0.357143 0.142857
vt 0.428571 0.142857
vt 0.500000 0.142857
vt 0.571429 0.142857
vt 0.642857 0.142857
vt 0.714286 0.142857
vt 0.785714 0.142857
vt 0.857143 0.142857
vt 0.928572 0.142857
vt 1.000000 0.142857
vt 0.000000 0.285714
vt 0.071429 0.285714
vt 0.142857 0.285714
vt 0.214286 0.285714
vt 0.285714 0.285714
vt 0.357143 0.285714
vt 0.428571 0.285714
vt 0.500000 0.285714
vt 0.571429 0.285714
vt 0.642857 0.285714
vt 0.714286 0.285714
vt 0.785714 0.285714
vt 0.857143 0.285714
vt 0.928572 0.285714
vt 1.000000 0.285714
vt 0.000000 0.428571
vt 0.071429 0.428571
vt 0.142857 0.428571
vt 0.214286 0.428571
vt 0.285714 0.428571
vt 0.357143 0.428571
vt 0.428571 0.428571
vt 0.500000 0.428571
vt 0.571429 0.428571
vt 0.642857 0.428571
vt 0.714286 0.428571
vt 0.785714 0.428571
vt 0.857143 0.428571
vt 0.928572 0.428571
vt 1.000000 0.428571
vt 0.000000 0.571429
vt 0.071429 0.571429
vt 0.142857 0.571429
vt 0.214286 0.571429
vt 0.285714 0.571429
vt 0.357143 0.571429
vt 0.428571 0.571429
vt 0.500000 0.571429
vt 0.571429 0.571429
vt 0.642857 0.571429
vt 0.714286 0.571429
vt 0.785714 0.571429
vt 0.857143 0.571429
vt 0.928572 0.571429
vt 1.000000 0.571429
vt 0.000000 0.714286
vt 0.071429 0.714286
vt 0.142857 0.714286
vt 0.214286 0.714286
vt 0.285714 0.714286
vt 0.357143 0.714286
vt 0.428571 0.714286
vt 0.500000 0.714286
vt 0.571429 0.714286
vt 0.642857 0.714286
vt 0.714286 0.714286
vt 0.785714 0.714286
vt 0.857143 0.714286
vt 0.928572 0.714286
vt 1.000000 0.714286
vt 0.000000 0.857143
vt 0.071429 0.857143
vt 0.142857 0.857143
vt 0.214286 0.857143
vt 0.285714 0.857143
vt 0.357143 0.857143
vt 0.428571 0.857143
vt 0.500000 0.857143
vt 0.571429 0.857143
vt 0.642857 0.857143
vt 0.714286 0.857143
vt 0.785714 0.857143
vt 0.857143 0.857143
vt 0.928572 0.857143
vt 1.000000 0.857143
vt 0.035714 0.000000
vt 0.107143 0.000000
vt 0.178571 0.000000
vt 0.250000 0.000000
vt 0.321429 0.000000
vt 0.392857 0.000000
vt 0.464286 0.000000
vt 0.535714 0.000000
vt 0.607143 0.000000
vt 0.678571 0.000000
vt 0.750000 0.000000
vt 0.821429 0.000000
vt 0.892857 0.000000
vt 0.964286 0.000000
vt 0.035714 1.000000
vt 0.107143 1.000000
vt 0.178571 1.000000
vt 0.250000 1.000000
vt 0.321429 1.000000
vt 0.392857 1.000000
vt 0.464286 1.000000
vt 0.535714 1.000000
vt 0.607143 1.000000
vt 0.678571 1.000000
vt 0.750000 1.000000
vt 0.821429 1.000000
vt 0.892857 1.000000
vt 0.964286 1.000000
vt 0.035714 0.904762
vt 0.107143 0.904762
vt 0.178571 0.904762
vt 0.250000 0.904762
vt 0.321429 0.904762
vt 0.607143 0.904762
vt 0.678571 0.904762
vt 0.750000 0.904762
vt 0.821429 0.904762
vt 0.892857 0.904762
vt 0.964286 0.904762
vt 0.392857 0.904762
vt 0.464286 0.904762
vt 0.535714 0.904762
vt 0.464286 0.642857
vt 0.535714 0.500000
vt 0.535714 0.095238
vt 0.535714 0.214286
vt 0.535714 0.642857
vt 0.535714 0.785714
vt 0.535714 0.357143
vt 0.607143 0.500000
vt 0.607143 0.214286
vt 0.607143 0.642857
vt 0.607143 0.785714
vt 0.607143 0.095238
vt 0.607143 0.357143
vt 0.678572 0.500000
vt 0.678571 0.214286
vt 0.678571 0.642857
vt 0.678571 0.785714
vt 0.678571 0.095238
vt 0.678571 0.357143
vt 0.750000 0.500000
vt 0.750000 0.214286
vt 0.750000 0.357143
vt 0.750000 0.642857
vt 0.750000 0.785714
vt 0.750000 0.095238
vt 0.821429 0.500000
vt 0.821429 0.214286
vt 0.821429 0.357143
vt 0.821429 0.642857
vt 0.821429 0.785714
vt 0.821429 0.095238
vt 0.892857 0.500000
vt 0.892857 0.214286
vt 0.892857 0.357143
vt 0.892857 0.642857
vt 0.892857 0.785714
vt 0.892857 0.095238
vt 0.964286 0.500000
vt 0.964286 0.214286
vt 0.964286 0.785714
vt 0.964286 0.095238
vt 0.964286 0.642857
vt 0.964286 0.357143
vt 0.035714 0.500000
vt 0.035714 0.214286
vt 0.035714 0.642857
vt 0.035714 0.785714
vt 0.035714 0.095238
vt 0.035714 0.357143
vt 0.107143 0.500000
vt 0.107143 0.214286
vt 0.107143 0.642857
vt 0.107143 0.785714
vt 0.107143 0.095238
vt 0.107143 0.357143
vt 0.178571 0.500000
vt 0.178571 0.214286
vt 0.178571 0.785714
vt 0.178571 0.095238
vt 0.178571 0.642857
vt 0.178571 0.357143
vt 0.250000 0.500000
vt 0.250000 0.214286
vt 0.250000 0.785714
vt 0.250000 0.095238
vt 0.250000 0.642857
vt 0.250000 0.357143
vt 0.321429 0.500000
vt 0.464286 0.500000
vt 0.464286 0.095238
vt 0.464286 0.214286
vt 0.464286 0.357143
vt 0.464286 0.785714
vt 0.392857 0.095238
vt 0.392857 0.214286
vt 0.392857 0.642857
vt 0.392857 0.785714
vt 0.321429 0.214286
vt 0.321429 0.642857
vt 0.321429 0.785714
vt 0.321429 0.095238
vt 0.321429 0.357143
vt 0.392857 0.500000
vt 0.392857 0.357143
vt 0.035714 0.851191
vt 0.053571 0.928571
vt 0.017857 0.928571
vt 0.107143 0.851191
vt 0.125000 0.928571
vt 0.089286 0.928571
vt 0.178571 0.851191
vt 0.196429 0.928571
vt 0.160714 0.928571
vt 0.250000 0.851190
vt 0.267857 0.928571
vt 0.232143 0.928571
vt 0.321429 0.851190
vt 0.339286 0.928571
vt 0.303571 0.928571
vt 0.607143 0.851190
vt 0.625000 0.928571
vt 0.589286 0.928571
vt 0.678571 0.851191
vt 0.696429 0.928571
vt 0.660714 0.928571
vt 0.750000 0.851191
vt 0.767857 0.928571
vt 0.732143 0.928571
vt 0.821429 0.851191
vt 0.839286 0.928571
vt 0.803571 0.928571
vt 0.892857 0.851191
vt 0.910714 0.928571
vt 0.875000 0.928571
vt 0.964286 0.851191
vt 0.982143 0.928571
vt 0.946429 0.928571
vt 0.392857 0.851191
vt 0.410714 0.928571
vt 0.375000 0.928571
vt 0.464286 0.851190
vt 0.482143 0.928571
vt 0.446429 0.928571
vt 0.535714 0.851190
vt 0.553571 0.928571
vt 0.517857 0.928571
vt 0.500000 0.642857
vt 0.464286 0.714286
vt 0.428571 0.642857
vt 0.464286 0.571429
vt 0.500000 0.500000
vt 0.535714 0.428571
vt 0.571429 0.500000
vt 0.535714 0.571429
vt 0.535714 0.148810
vt 0.517857 0.071429
vt 0.553571 0.071429
vt 0.500000 0.214286
vt 0.571429 0.214286
vt 0.535714 0.285714
vt 0.571429 0.642857
vt 0.535714 0.714286
vt 0.500000 0.785714
vt 0.571429 0.785714
vt 0.500000 0.357143
vt 0.571429 0.357143
vt 0.607143 0.428571
vt 0.642857 0.500000
vt 0.607143 0.571429
vt 0.607143 0.148810
vt 0.642857 0.214286
vt 0.607143 0.285714
vt 0.642857 0.642857
vt 0.607143 0.714286
vt 0.642857 0.785714
vt 0.589286 0.071429
vt 0.625000 0.071429
vt 0.642857 0.357143
vt 0.678571 0.428571
vt 0.714286 0.500000
vt 0.678571 0.571429
vt 0.714286 0.214286
vt 0.678571 0.285714
vt 0.678571 0.148810
vt 0.714286 0.642857
vt 0.678571 0.714286
vt 0.714286 0.785714
vt 0.660714 0.071429
vt 0.696429 0.071429
vt 0.714286 0.357143
vt 0.750000 0.428571
vt 0.785714 0.500000
vt 0.750000 0.571429
vt 0.750000 0.148810
vt 0.785714 0.214286
vt 0.750000 0.285714
vt 0.785714 0.357143
vt 0.785714 0.642857
vt 0.750000 0.714286
vt 0.785714 0.785714
vt 0.732143 0.071429
vt 0.767857 0.071429
vt 0.821429 0.428571
vt 0.857143 0.500000
vt 0.821429 0.571429
vt 0.857143 0.214286
vt 0.821429 0.285714
vt 0.821429 0.148810
vt 0.857143 0.357143
vt 0.857143 0.642857
vt 0.821429 0.714286
vt 0.857143 0.785714
vt 0.803571 0.071429
vt 0.839286 0.071429
vt 0.892857 0.428571
vt 0.928572 0.500000
vt 0.892857 0.571429
vt 0.928572 0.214286
vt 0.892857 0.285714
vt 0.892857 0.148810
vt 0.928572 0.357143
vt 0.928572 0.642857
vt 0.892857 0.714286
vt 0.928572 0.785714
vt 0.875000 0.071429
vt 0.910714 0.071429
vt 0.964286 0.428571
vt 1.000000 0.500000
vt 0.964286 0.571429
vt 1.000000 0.214286
vt 0.964286 0.285714
vt 0.964286 0.148810
vt 0.964286 0.714286
vt 1.000000 0.785714
vt 0.946429 0.071429
vt 0.982143 0.071429
vt 1.000000 0.642857
vt 1.000000 0.357143
vt 0.000000 0.500000
vt 0.035714 0.428571
vt 0.071429 0.500000
vt 0.035714 0.571429
vt 0.000000 0.214286
vt 0.035714 0.148810
vt 0.071429 0.214286
vt 0.035714 0.285714
vt 0.071429 0.642857
vt 0.035714 0.714286
vt 0.000000 0.642857
vt 0.071429 0.785714
vt 0.000000 0.785714
vt 0.017857 0.071429
vt 0.053571 0.071429
vt 0.000000 0.357143
vt 0.071429 0.357143
vt 0.107143 0.428571
vt 0.142857 0.500000
vt 0.107143 0.571429
vt 0.107143 0.148810
vt 0.142857 0.214286
vt 0.107143 0.285714
vt 0.142857 0.642857
vt 0.107143 0.714286
vt 0.142857 0.785714
vt 0.089286 0.071429
vt 0.125000 0.071429
vt 0.142857 0.357143
vt 0.178571 0.428571
vt 0.214286 0.500000
vt 0.178571 0.571429
vt 0.178571 0.148810
vt 0.214286 0.214286
vt 0.178571 0.285714
vt 0.178571 0.714286
vt 0.214286 0.785714
vt 0.160714 0.071429
vt 0.196429 0.071429
vt 0.214286 0.642857
vt 0.214286 0.357143
vt 0.250000 0.428571
vt 0.285714 0.500000
vt 0.250000 0.571429
vt 0.250000 0.148810
vt 0.285714 0.214286
vt 0.250000 0.285714
vt 0.250000 0.714286
vt 0.285714 0.785714
vt 0.232143 0.071429
vt 0.267857 0.071429
vt 0.285714 0.642857
vt 0.285714 0.357143
vt 0.321429 0.428571
vt 0.357143 0.500000
vt 0.321429 0.571429
vt 0.428571 0.500000
vt 0.464286 0.428571
vt 0.464286 0.148810
vt 0.446429 0.071429
vt 0.482143 0.071429
vt 0.464286 0.285714
vt 0.428571 0.214286
vt 0.428571 0.357143
vt 0.428571 0.785714
vt 0.392857 0.148810
vt 0.375000 0.071429
vt 0.410714 0.071429
vt 0.392857 0.285714
vt 0.357143 0.214286
vt 0.392857 0.714286
vt 0.357143 0.642857
vt 0.392857 0.571429
vt 0.357143 0.785714
vt 0.321429 0.148810
vt 0.321429 0.285714
vt 0.321429 0.714286
vt 0.303571 0.071429
vt 0.339286 0.071429
vt 0.357143 0.357143
vt 0.392857 0.428571
vn 0.406064 0.879512 -0.248136
vn 0.288774 0.916923 -0.275432
vn 0.280547 0.952042 -0.122109
vn 0.169037 0.978535 -0.117883
vn 0.008787 0.999943 0.006085
vn 0.238819 0.969700 -0.051444
vn 0.389009 0.911889 -0.130881
vn 0.212947 0.883968 -0.416238
vn 0.087158 0.920170 -0.381694
vn 0.133035 0.961590 -0.240097
vn 0.047751 0.981523 -0.185292
vn 0.000050 0.885025 -0.465544
vn -0.086993 0.920428 -0.381109
vn 0.000073 0.960491 -0.278313
vn -0.043518 0.980703 -0.190598
vn -0.204060 0.884378 -0.419803
vn -0.270820 0.908126 -0.319317
vn -0.121426 0.960341 -0.251000
vn -0.123868 0.981374 -0.146838
vn -0.380982 0.885061 -0.267431
vn -0.384283 0.914373 -0.127473
vn -0.226454 0.960855 -0.159611
vn -0.204329 0.978287 -0.034695
vn -0.226343 0.882371 0.412542
vn -0.097953 0.919213 0.381382
vn -0.160666 0.958943 0.233698
vn -0.060270 0.982865 0.174196
vn -0.184334 0.975283 0.121840
vn -0.311882 0.897630 0.311431
vn 0.019284 0.881166 0.472414
vn 0.136967 0.915133 0.379172
vn 0.012175 0.962173 0.272166
vn 0.088749 0.980597 0.174795
vn 0.240294 0.883646 0.401782
vn 0.298250 0.903708 0.307178
vn 0.188579 0.954436 0.231277
vn 0.189821 0.972449 0.135315
vn 0.378527 0.883920 0.274595
vn 0.398616 0.898377 0.184454
vn 0.268213 0.948874 0.166434
vn 0.230175 0.969433 0.084971
vn 0.469745 0.875254 0.115196
vn 0.410352 0.911922 0.003046
vn 0.308645 0.948632 0.069544
vn 0.244928 0.969536 0.003053
vn 0.464083 0.880761 -0.094277
vn 0.311204 0.948735 -0.055261
vn -0.476975 0.877191 -0.055055
vn -0.408713 0.911396 0.048069
vn -0.306719 0.951766 0.008111
vn -0.240839 0.969169 0.052043
vn -0.463159 0.879531 0.109127
vn -0.401633 0.900139 0.168643
vn -0.310947 0.947471 0.074903
vn -0.237534 0.968819 0.070487
vn -0.397202 0.876007 0.273575
vn -0.278282 0.949915 0.142198
vn -0.812558 0.428719 0.394904
vn -0.713223 0.625553 0.316222
vn -0.877300 0.442595 0.185618
vn -0.746640 0.646274 0.157666
vn -0.804456 0.594009 0.001882
vn -0.903669 0.428232 0.000009
vn -0.976074 0.217438 -0.000000
vn -0.941642 0.239156 0.236886
vn -0.878854 0.218815 0.423953
vn -0.890528 0.022005 0.454395
vn -0.879413 -0.217438 0.423502
vn -0.780080 0.000979 0.625680
vn -0.751575 -0.195353 0.630057
vn -0.601823 -0.215949 0.768879
vn -0.613530 0.000710 0.789671
vn -0.601574 0.219608 0.768037
vn -0.760356 0.221844 0.610446
vn -0.368852 -0.867335 0.334183
vn -0.372403 -0.902967 0.214398
vn -0.227774 -0.942792 0.243439
vn -0.200622 -0.969800 0.138703
vn -0.002877 -0.999905 0.013506
vn -0.137521 -0.963557 0.229445
vn -0.247077 -0.900549 0.357722
vn -0.565474 -0.777979 0.273840
vn -0.513652 -0.755857 0.406008
vn -0.385332 -0.781138 0.491266
vn -0.483139 -0.605126 0.632771
vn -0.589841 -0.636106 0.497451
vn -0.712416 -0.603015 0.358938
vn -0.583117 0.411444 0.700491
vn -0.702962 0.430446 0.566181
vn -0.519323 0.596584 0.611875
vn -0.627871 0.619713 0.470886
vn -0.558175 0.782960 0.274618
vn -0.510006 0.770282 0.382831
vn -0.426573 0.762626 0.486249
vn -0.706890 -0.425808 0.564795
vn -0.815305 -0.425579 0.392633
vn -0.550585 -0.404144 0.730427
vn -0.413812 -0.001186 0.910361
vn -0.411021 -0.210398 0.887014
vn -0.207793 -0.202099 0.957067
vn -0.205958 -0.001715 0.978559
vn -0.239464 0.194297 0.951265
vn -0.425798 0.188504 0.884965
vn -0.206112 -0.865072 0.457350
vn -0.288047 -0.755795 0.588051
vn -0.095847 -0.897775 0.429899
vn -0.146127 -0.776992 0.612315
vn -0.144097 -0.612001 0.777618
vn -0.310430 -0.615433 0.724483
vn -0.412114 0.397542 0.819831
vn -0.206090 0.386100 0.899141
vn -0.171114 0.609826 0.773843
vn -0.377397 0.596921 0.707995
vn -0.321572 0.763357 0.560248
vn -0.144239 0.797728 0.585513
vn -0.138016 -0.939296 0.314126
vn -0.060449 -0.962330 0.265079
vn -0.387794 -0.419246 0.820883
vn -0.198086 -0.411688 0.889536
vn 0.001388 0.000063 0.999999
vn 0.000097 -0.196624 0.980479
vn 0.205510 -0.233389 0.950418
vn 0.220953 -0.013487 0.975191
vn 0.202474 0.190830 0.960515
vn -0.009540 0.199916 0.979767
vn 0.140362 -0.767884 0.625022
vn 0.173515 -0.612463 0.771221
vn -0.000962 -0.743656 0.668562
vn 0.018486 -0.591139 0.806358
vn -0.003815 -0.862198 0.506557
vn 0.087121 -0.887331 0.452829
vn 0.196396 0.386942 0.900946
vn 0.013628 0.413814 0.910260
vn 0.186620 0.596646 0.780504
vn 0.039848 0.614471 0.787932
vn 0.160455 0.782381 0.601775
vn 0.006077 0.756932 0.653466
vn -0.007722 -0.938695 0.344663
vn 0.026614 -0.963427 0.266647
vn 0.000638 -0.407090 0.913388
vn 0.176705 -0.429366 0.885675
vn 0.406089 -0.210234 0.889322
vn 0.446386 -0.002745 0.894836
vn 0.607708 -0.219281 0.763287
vn 0.660237 -0.003507 0.751049
vn 0.615547 0.199721 0.762374
vn 0.403648 0.193810 0.894151
vn 0.247019 -0.902311 0.353294
vn 0.391105 -0.777916 0.491816
vn 0.196299 -0.869452 0.453343
vn 0.259916 -0.767087 0.586533
vn 0.460635 -0.620741 0.634426
vn 0.314413 -0.634363 0.706207
vn 0.368638 -0.434182 0.821944
vn 0.559917 -0.432154 0.706920
vn 0.581320 0.402975 0.706879
vn 0.380071 0.394791 0.836473
vn 0.505091 0.617154 0.603328
vn 0.336881 0.608971 0.718099
vn 0.398606 0.788512 0.468361
vn 0.295268 0.779794 0.552031
vn 0.103197 -0.942252 0.318609
vn 0.123646 -0.969839 0.210055
vn 0.777536 -0.217989 0.589846
vn 0.812345 -0.022449 0.582745
vn 0.886577 -0.214596 0.409793
vn 0.907170 0.000539 0.420763
vn 0.886685 0.212876 0.410455
vn 0.788735 0.172316 0.590088
vn 0.709703 -0.617762 0.338662
vn 0.598119 -0.633459 0.490901
vn 0.561861 -0.777406 0.282759
vn 0.500387 -0.766185 0.403204
vn 0.386723 -0.866548 0.315499
vn 0.386615 -0.903252 0.186184
vn 0.713217 -0.431698 0.552231
vn 0.819783 -0.426267 0.382429
vn 0.748509 0.377369 0.545277
vn 0.826006 0.419498 0.376479
vn 0.727211 0.614007 0.306855
vn 0.660988 0.600081 0.450552
vn 0.573116 0.774957 0.266422
vn 0.513516 0.780328 0.356917
vn 0.243901 -0.947733 0.205707
vn 0.212994 -0.971255 0.106291
vn 0.951494 -0.215681 0.219412
vn 0.973041 0.000738 0.230633
vn 0.976097 -0.217309 0.003434
vn 0.999973 0.000169 0.007377
vn 0.975973 0.217592 0.011408
vn 0.948606 0.216740 0.230586
vn 0.788439 -0.615112 0.001208
vn 0.768109 -0.615824 0.175412
vn 0.629905 -0.776589 0.011363
vn 0.638226 -0.752740 0.161399
vn 0.486766 -0.866439 0.111101
vn 0.429110 -0.903252 0.000000
vn 0.882717 -0.425163 0.200117
vn 0.904831 -0.425770 0.000768
vn 0.878805 0.424303 0.218333
vn 0.903839 0.427620 0.014703
vn 0.778806 0.627081 -0.015161
vn 0.766180 0.620271 0.168025
vn 0.607782 0.793711 0.024976
vn 0.624928 0.761026 0.174079
vn 0.314010 -0.946711 0.071671
vn 0.240748 -0.970588 0.000004
vn 0.958847 -0.180888 -0.218845
vn 0.979654 0.021699 -0.199516
vn 0.879770 -0.216215 -0.423385
vn 0.916863 0.000000 -0.399202
vn 0.879770 0.216215 -0.423385
vn 0.951954 0.217351 -0.215735
vn 0.718397 -0.600830 -0.350584
vn 0.769936 -0.614313 -0.172681
vn 0.573819 -0.776968 -0.258947
vn 0.646264 -0.751841 -0.130686
vn 0.486760 -0.866499 -0.110658
vn 0.386511 -0.903511 -0.185139
vn 0.713081 0.612094 -0.341844
vn 0.561104 0.795744 -0.227933
vn 0.740486 0.648023 -0.178175
vn 0.622942 0.773354 -0.117758
vn 0.313986 -0.946728 -0.071541
vn 0.216817 -0.970614 -0.104396
vn 0.871526 0.442888 -0.210461
vn 0.816092 0.405415 -0.411864
vn 0.885748 -0.410832 -0.216026
vn 0.817165 -0.402731 -0.412370
vn 0.806625 -0.000000 -0.591063
vn 0.768367 -0.211241 -0.604143
vn 0.627156 -0.205106 -0.751404
vn 0.666210 -0.000000 -0.745764
vn 0.627156 0.205106 -0.751404
vn 0.768367 0.211241 -0.604143
vn 0.389589 -0.874139 -0.290002
vn 0.503372 -0.770272 -0.391533
vn 0.286109 -0.896109 -0.339310
vn 0.406888 -0.776827 -0.480606
vn 0.480522 -0.635270 -0.604591
vn 0.609860 -0.613211 -0.502039
vn 0.717201 0.419523 -0.556439
vn 0.568456 0.427973 -0.702635
vn 0.483217 0.636886 -0.600731
vn 0.610963 0.619307 -0.493136
vn 0.414744 0.792231 -0.447612
vn 0.529559 0.769207 -0.357613
vn 0.251666 -0.947185 -0.198758
vn 0.149402 -0.970886 -0.187241
vn 0.717741 -0.417024 -0.557619
vn 0.568115 -0.427074 -0.703458
vn 0.464874 0.000000 -0.885377
vn 0.447141 -0.241373 -0.861280
vn 0.240909 -0.214348 -0.946582
vn 0.206832 -0.000000 -0.978376
vn 0.240909 0.214348 -0.946582
vn 0.447141 0.241373 -0.861280
vn 0.212124 -0.874201 -0.436779
vn 0.297688 -0.765068 -0.571010
vn 0.093144 -0.908247 -0.407937
vn 0.147762 -0.791592 -0.592915
vn 0.181706 -0.626489 -0.757955
vn 0.351661 -0.620182 -0.701219
vn 0.217800 0.425272 -0.878469
vn 0.389175 0.437865 -0.810443
vn 0.181706 0.626489 -0.757955
vn 0.352101 0.620355 -0.700846
vn 0.146723 0.795205 -0.588321
vn 0.299967 0.768073 -0.565759
vn 0.138664 -0.947987 -0.286519
vn 0.053197 -0.971040 -0.232918
vn 0.389175 -0.437865 -0.810443
vn 0.217800 -0.425272 -0.878469
vn 0.030132 -0.195197 -0.980301
vn -0.032310 -0.000000 -0.999478
vn -0.217197 -0.217438 -0.951602
vn -0.222521 0.000000 -0.974928
vn -0.217197 0.217438 -0.951602
vn 0.030132 0.195197 -0.980301
vn 0.000049 -0.875723 -0.482815
vn 0.015861 -0.769973 -0.637879
vn -0.092987 -0.908523 -0.407358
vn -0.137976 -0.784629 -0.604418
vn -0.178264 -0.598602 -0.780960
vn 0.004639 -0.630136 -0.776471
vn -0.178264 0.598602 -0.780960
vn -0.137070 0.787835 -0.600440
vn 0.004639 0.630136 -0.776471
vn 0.015867 0.772369 -0.634975
vn 0.000072 -0.948242 -0.317547
vn -0.053149 -0.971067 -0.232820
vn -0.009729 0.415236 -0.909662
vn -0.200808 0.430887 -0.879780
vn -0.009729 -0.415236 -0.909662
vn -0.200808 -0.430887 -0.879780
vn -0.404236 0.000000 -0.914655
vn -0.452537 -0.195540 -0.870043
vn -0.627638 -0.217466 -0.747515
vn -0.609478 -0.000000 -0.792803
vn -0.627638 0.217466 -0.747515
vn -0.452537 0.195541 -0.870043
vn -0.285702 -0.896883 -0.337601
vn -0.406270 -0.780413 -0.475290
vn -0.211529 -0.875129 -0.435207
vn -0.295688 -0.768857 -0.566946
vn -0.503820 -0.626857 -0.594319
vn -0.344920 -0.629978 -0.695814
vn -0.344920 0.629979 -0.695814
vn -0.294439 0.771231 -0.564366
vn -0.503820 0.626857 -0.594319
vn -0.404305 0.783658 -0.471612
vn -0.138399 -0.948141 -0.286137
vn -0.149223 -0.970951 -0.187045
vn -0.387472 0.415769 -0.822801
vn -0.582462 0.429894 -0.689877
vn -0.387472 -0.415769 -0.822801
vn -0.582462 -0.429894 -0.689877
vn -0.778613 -0.000000 -0.627505
vn -0.782530 -0.217098 -0.583537
vn -0.887081 -0.217176 -0.407336
vn -0.893200 -0.000000 -0.449659
vn -0.887081 0.217176 -0.407336
vn -0.782530 0.217098 -0.583537
vn -0.974927 0.000003 0.222524
vn -1.000000 0.000000 0.000000
vn -0.976074 -0.217439 0.000000
vn -0.951616 -0.217372 0.217200
vn -0.484791 -0.866818 0.116637
vn -0.429110 -0.903252 -0.000000
vn -0.308272 -0.947904 0.080294
vn -0.237695 -0.971333 0.003690
vn -0.745759 -0.643801 0.171358
vn -0.627955 -0.764385 0.146251
vn -0.811785 -0.583957 0.000000
vn -0.641404 -0.767204 0.000000
vn -0.882335 -0.425315 0.201475
vn -0.905021 -0.425366 0.000000
vn -0.620468 0.783990 0.019475
vn -0.616085 0.771321 0.159697
vn -0.486770 -0.866548 -0.110226
vn -0.386429 -0.903679 -0.184493
vn -0.313982 -0.946737 -0.071446
vn -0.216747 -0.970633 -0.104365
vn -0.746741 -0.643589 -0.167844
vn -0.628966 -0.764385 -0.141837
vn -0.716742 -0.615818 -0.327184
vn -0.574258 -0.777513 -0.256323
vn -0.878886 0.441265 -0.181232
vn -0.753058 0.641798 -0.144913
vn -0.712061 0.631506 -0.306870
vn -0.822966 0.426092 -0.375730
vn -0.942699 0.238965 -0.232841
vn -0.633114 0.762124 -0.135402
vn -0.558135 0.796594 -0.232215
vn -0.389636 -0.874814 -0.287897
vn -0.504064 -0.772479 -0.386259
vn -0.630263 -0.620525 -0.466601
vn -0.726282 0.427410 -0.538364
vn -0.630469 0.620676 -0.466123
vn -0.502267 0.776095 -0.381320
vn -0.251610 -0.947320 -0.198186
vn -0.726282 -0.427410 -0.538364
vn -0.823006 -0.425774 -0.376002
vn -0.975647 -0.000000 -0.219347
vn -0.942699 -0.238965 -0.232841
vn -0.879623 -0.439279 -0.182476
f 87/217/1 72/77/2 269/119/3
f 269/119/3 72/77/2 99/218/4
f 86/105/5 98/219/6 99/218/4
f 99/218/4 98/219/6 269/119/3
f 98/219/6 71/76/7 269/119/3
f 269/119/3 71/76/7 87/217/1
f 88/220/8 73/78/9 270/120/10
f 270/120/10 73/78/9 100/221/11
f 86/106/5 99/222/4 100/221/11
f 100/221/11 99/222/4 270/120/10
f 99/222/4 72/77/2 270/120/10
f 270/120/10 72/77/2 88/220/8
f 89/223/12 74/79/13 271/121/14
f 271/121/14 74/79/13 101/224/15
f 86/107/5 100/225/11 101/224/15
f 101/224/15 100/225/11 271/121/14
f 100/225/11 73/78/9 271/121/14
f 271/121/14 73/78/9 89/223/12
f 90/226/16 75/80/17 272/122/18
f 272/122/18 75/80/17 102/227/19
f 86/108/5 101/228/15 102/227/19
f 102/227/19 101/228/15 272/122/18
f 101/228/15 74/79/13 272/122/18
f 272/122/18 74/79/13 90/226/16
f 91/229/20 76/81/21 273/123/22
f 273/123/22 76/81/21 103/230/23
f 86/109/5 102/231/19 103/230/23
f 103/230/23 102/231/19 273/123/22
f 102/231/19 75/80/17 273/123/22
f 273/123/22 75/80/17 91/229/20
f 92/232/24 80/85/25 274/124/26
f 274/124/26 80/85/25 105/233/27
f 86/113/5 104/234/28 105/233/27
f 105/233/27 104/234/28 274/124/26
f 104/234/28 79/84/29 274/124/26
f 274/124/26 79/84/29 92/232/24
f 93/235/30 81/86/31 275/125/32
f 275/125/32 81/86/31 106/236/33
f 86/114/5 105/237/27 106/236/33
f 106/236/33 105/237/27 275/125/32
f 105/237/27 80/85/25 275/125/32
f 275/125/32 80/85/25 93/235/30
f 94/238/34 82/87/35 276/126/36
f 276/126/36 82/87/35 107/239/37
f 86/115/5 106/240/33 107/239/37
f 107/239/37 106/240/33 276/126/36
f 106/240/33 81/86/31 276/126/36
f 276/126/36 81/86/31 94/238/34
f 95/241/38 83/88/39 277/127/40
f 277/127/40 83/88/39 108/242/41
f 86/116/5 107/243/37 108/242/41
f 108/242/41 107/243/37 277/127/40
f 107/243/37 82/87/35 277/127/40
f 277/127/40 82/87/35 95/241/38
f 96/244/42 84/89/43 278/128/44
f 278/128/44 84/89/43 109/245/45
f 86/117/5 108/246/41 109/245/45
f 109/245/45 108/246/41 278/128/44
f 108/246/41 83/88/39 278/128/44
f 278/128/44 83/88/39 96/244/42
f 97/247/46 71/90/7 279/129/47
f 279/129/47 71/90/7 98/248/6
f 86/118/5 109/249/45 98/248/6
f 98/248/6 109/249/45 279/129/47
f 109/249/45 84/89/43 279/129/47
f 279/129/47 84/89/43 97/247/46
f 110/250/48 77/82/49 280/130/50
f 280/130/50 77/82/49 111/251/51
f 86/110/5 103/252/23 111/251/51
f 111/251/51 103/252/23 280/130/50
f 103/252/23 76/81/21 280/130/50
f 280/130/50 76/81/21 110/250/48
f 112/253/52 78/83/53 281/131/54
f 281/131/54 78/83/53 113/254/55
f 86/111/5 111/255/51 113/254/55
f 113/254/55 111/255/51 281/131/54
f 111/255/51 77/82/49 281/131/54
f 281/131/54 77/82/49 112/253/52
f 114/256/56 79/84/29 282/132/57
f 282/132/57 79/84/29 104/257/28
f 86/112/5 113/258/55 104/257/28
f 104/257/28 113/258/55 282/132/57
f 113/258/55 78/83/53 282/132/57
f 282/132/57 78/83/53 114/256/56
f 119/259/58 64/68/59 283/133/60
f 283/133/60 64/68/59 247/260/61
f 247/260/61 63/67/62 283/133/60
f 283/133/60 63/67/62 257/261/63
f 257/261/63 49/52/64 283/133/60
f 283/133/60 49/52/64 248/262/65
f 50/53/66 119/259/58 248/262/65
f 248/262/65 119/259/58 283/133/60
f 117/263/67 36/38/68 284/134/69
f 284/134/69 36/38/68 118/264/70
f 37/39/71 127/265/72 118/264/70
f 118/264/70 127/265/72 284/134/69
f 127/265/72 51/54/73 284/134/69
f 284/134/69 51/54/73 128/266/74
f 50/53/66 117/263/67 128/266/74
f 128/266/74 117/263/67 284/134/69
f 124/267/75 8/8/76 285/135/77
f 285/135/77 8/8/76 115/268/78
f 85/98/79 123/269/80 115/268/78
f 115/268/78 123/269/80 285/135/77
f 123/269/80 9/9/81 285/135/77
f 285/135/77 9/9/81 124/267/75
f 8/8/76 124/267/75 116/270/82
f 116/270/82 124/267/75 286/136/83
f 9/9/81 125/271/84 124/267/75
f 124/267/75 125/271/84 286/136/83
f 23/24/85 132/272/86 125/271/84
f 125/271/84 132/272/86 286/136/83
f 132/272/86 22/23/87 286/136/83
f 286/136/83 22/23/87 116/270/82
f 51/54/73 129/273/88 128/266/74
f 128/266/74 129/273/88 287/137/89
f 129/273/88 65/69/90 287/137/89
f 287/137/89 65/69/90 130/274/91
f 64/68/59 119/259/58 130/274/91
f 130/274/91 119/259/58 287/137/89
f 119/259/58 50/53/66 287/137/89
f 287/137/89 50/53/66 128/266/74
f 64/68/59 130/274/91 120/275/92
f 120/275/92 130/274/91 288/138/93
f 130/274/91 65/69/90 288/138/93
f 288/138/93 65/69/90 131/276/94
f 79/84/29 114/256/56 131/276/94
f 131/276/94 114/256/56 288/138/93
f 114/256/56 78/83/53 288/138/93
f 288/138/93 78/83/53 120/275/92
f 118/264/70 36/38/68 289/139/95
f 289/139/95 36/38/68 121/277/96
f 121/277/96 22/23/87 289/139/95
f 289/139/95 22/23/87 132/272/86
f 132/272/86 23/24/85 289/139/95
f 289/139/95 23/24/85 126/278/97
f 126/278/97 37/39/71 289/139/95
f 289/139/95 37/39/71 118/264/70
f 127/265/72 37/39/71 290/140/98
f 290/140/98 37/39/71 122/279/99
f 38/40/100 138/280/101 122/279/99
f 122/279/99 138/280/101 290/140/98
f 138/280/101 52/55/102 290/140/98
f 290/140/98 52/55/102 139/281/103
f 51/54/73 127/265/72 139/281/103
f 139/281/103 127/265/72 290/140/98
f 9/9/81 135/282/104 125/271/84
f 125/271/84 135/282/104 291/141/105
f 10/10/106 136/283/107 135/282/104
f 135/282/104 136/283/107 291/141/105
f 24/25/108 143/284/109 136/283/107
f 136/283/107 143/284/109 291/141/105
f 143/284/109 23/24/85 291/141/105
f 291/141/105 23/24/85 125/271/84
f 139/281/103 52/55/102 292/142/110
f 292/142/110 52/55/102 140/285/111
f 66/70/112 141/286/113 140/285/111
f 140/285/111 141/286/113 292/142/110
f 141/286/113 65/69/90 292/142/110
f 292/142/110 65/69/90 129/273/88
f 129/273/88 51/54/73 292/142/110
f 292/142/110 51/54/73 139/281/103
f 65/69/90 141/286/113 131/276/94
f 131/276/94 141/286/113 293/143/114
f 141/286/113 66/70/112 293/143/114
f 293/143/114 66/70/112 142/287/115
f 80/85/25 92/232/24 142/287/115
f 142/287/115 92/232/24 293/143/114
f 92/232/24 79/84/29 293/143/114
f 293/143/114 79/84/29 131/276/94
f 135/282/104 9/9/81 294/144/116
f 294/144/116 9/9/81 123/288/80
f 85/99/79 134/289/117 123/288/80
f 123/288/80 134/289/117 294/144/116
f 134/289/117 10/10/106 294/144/116
f 294/144/116 10/10/106 135/282/104
f 37/39/71 126/278/97 122/279/99
f 122/279/99 126/278/97 295/145/118
f 126/278/97 23/24/85 295/145/118
f 295/145/118 23/24/85 143/284/109
f 24/25/108 137/290/119 143/284/109
f 143/284/109 137/290/119 295/145/118
f 137/290/119 38/40/100 295/145/118
f 295/145/118 38/40/100 122/279/99
f 138/280/101 38/40/100 296/146/120
f 296/146/120 38/40/100 133/291/121
f 39/41/122 148/292/123 133/291/121
f 133/291/121 148/292/123 296/146/120
f 148/292/123 53/56/124 296/146/120
f 296/146/120 53/56/124 149/293/125
f 52/55/102 138/280/101 149/293/125
f 149/293/125 138/280/101 296/146/120
f 146/294/126 25/26/127 297/147/128
f 297/147/128 25/26/127 153/295/129
f 153/295/129 24/25/108 297/147/128
f 297/147/128 24/25/108 136/283/107
f 10/10/106 145/296/130 136/283/107
f 136/283/107 145/296/130 297/147/128
f 11/11/131 146/294/126 145/296/130
f 145/296/130 146/294/126 297/147/128
f 53/56/124 150/297/132 149/293/125
f 149/293/125 150/297/132 298/148/133
f 150/297/132 67/71/134 298/148/133
f 298/148/133 67/71/134 151/298/135
f 151/298/135 66/70/112 298/148/133
f 298/148/133 66/70/112 140/285/111
f 52/55/102 149/293/125 140/285/111
f 140/285/111 149/293/125 298/148/133
f 67/71/134 152/299/136 151/298/135
f 151/298/135 152/299/136 299/149/137
f 81/86/31 93/235/30 152/299/136
f 152/299/136 93/235/30 299/149/137
f 80/85/25 142/287/115 93/235/30
f 93/235/30 142/287/115 299/149/137
f 142/287/115 66/70/112 299/149/137
f 299/149/137 66/70/112 151/298/135
f 145/296/130 10/10/106 300/150/138
f 300/150/138 10/10/106 134/300/117
f 85/100/79 144/301/139 134/300/117
f 134/300/117 144/301/139 300/150/138
f 144/301/139 11/11/131 300/150/138
f 300/150/138 11/11/131 145/296/130
f 38/40/100 137/290/119 133/291/121
f 133/291/121 137/290/119 301/151/140
f 137/290/119 24/25/108 301/151/140
f 301/151/140 24/25/108 153/295/129
f 25/26/127 147/302/141 153/295/129
f 153/295/129 147/302/141 301/151/140
f 147/302/141 39/41/122 301/151/140
f 301/151/140 39/41/122 133/291/121
f 39/41/122 164/303/142 148/292/123
f 148/292/123 164/303/142 302/152/143
f 164/303/142 40/42/144 302/152/143
f 302/152/143 40/42/144 158/304/145
f 158/304/145 54/57/146 302/152/143
f 302/152/143 54/57/146 159/305/147
f 53/56/124 148/292/123 159/305/147
f 159/305/147 148/292/123 302/152/143
f 12/12/148 156/307/149 155/306/150
f 155/306/150 156/307/149 303/153/151
f 156/307/149 26/27/152 303/153/151
f 303/153/151 26/27/152 157/308/153
f 25/26/127 146/294/126 157/308/153
f 157/308/153 146/294/126 303/153/151
f 146/294/126 11/11/131 303/153/151
f 303/153/151 11/11/131 155/306/150
f 147/302/141 25/26/127 304/154/154
f 304/154/154 25/26/127 157/308/153
f 157/308/153 26/27/152 304/154/154
f 304/154/154 26/27/152 163/309/155
f 40/42/144 164/303/142 163/309/155
f 163/309/155 164/303/142 304/154/154
f 164/303/142 39/41/122 304/154/154
f 304/154/154 39/41/122 147/302/141
f 54/57/146 160/310/156 159/305/147
f 159/305/147 160/310/156 305/155/157
f 160/310/156 68/72/158 305/155/157
f 305/155/157 68/72/158 161/311/159
f 67/71/134 150/297/132 161/311/159
f 161/311/159 150/297/132 305/155/157
f 150/297/132 53/56/124 305/155/157
f 305/155/157 53/56/124 159/305/147
f 68/72/158 162/312/160 161/311/159
f 161/311/159 162/312/160 306/156/161
f 162/312/160 82/87/35 306/156/161
f 306/156/161 82/87/35 94/238/34
f 81/86/31 152/299/136 94/238/34
f 94/238/34 152/299/136 306/156/161
f 152/299/136 67/71/134 306/156/161
f 306/156/161 67/71/134 161/311/159
f 155/306/150 11/11/131 307/157/162
f 307/157/162 11/11/131 144/313/139
f 85/101/79 154/314/163 144/313/139
f 144/313/139 154/314/163 307/157/162
f 154/314/163 12/12/148 307/157/162
f 307/157/162 12/12/148 155/306/150
f 40/42/144 175/315/164 158/304/145
f 158/304/145 175/315/164 308/158/165
f 175/315/164 41/43/166 308/158/165
f 308/158/165 41/43/166 169/316/167
f 55/58/168 170/317/169 169/316/167
f 169/316/167 170/317/169 308/158/165
f 54/57/146 158/304/145 170/317/169
f 170/317/169 158/304/145 308/158/165
f 27/28/170 168/319/171 167/318/172
f 167/318/172 168/319/171 309/159/173
f 26/27/152 156/307/149 168/319/171
f 168/319/171 156/307/149 309/159/173
f 12/12/148 166/320/174 156/307/149
f 156/307/149 166/320/174 309/159/173
f 13/13/175 167/318/172 166/320/174
f 166/320/174 167/318/172 309/159/173
f 26/27/152 168/319/171 163/309/155
f 163/309/155 168/319/171 310/160/176
f 168/319/171 27/28/170 310/160/176
f 310/160/176 27/28/170 174/321/177
f 41/43/166 175/315/164 174/321/177
f 174/321/177 175/315/164 310/160/176
f 175/315/164 40/42/144 310/160/176
f 310/160/176 40/42/144 163/309/155
f 170/317/169 55/58/168 311/161/178
f 311/161/178 55/58/168 171/322/179
f 69/73/180 172/323/181 171/322/179
f 171/322/179 172/323/181 311/161/178
f 68/72/158 160/310/156 172/323/181
f 172/323/181 160/310/156 311/161/178
f 160/310/156 54/57/146 311/161/178
f 311/161/178 54/57/146 170/317/169
f 69/73/180 173/324/182 172/323/181
f 172/323/181 173/324/182 312/162/183
f 173/324/182 83/88/39 312/162/183
f 312/162/183 83/88/39 95/241/38
f 82/87/35 162/312/160 95/241/38
f 95/241/38 162/312/160 312/162/183
f 162/312/160 68/72/158 312/162/183
f 312/162/183 68/72/158 172/323/181
f 166/320/174 12/12/148 313/163/184
f 313/163/184 12/12/148 154/325/163
f 85/102/79 165/326/185 154/325/163
f 154/325/163 165/326/185 313/163/184
f 165/326/185 13/13/175 313/163/184
f 313/163/184 13/13/175 166/320/174
f 41/43/166 187/327/186 169/316/167
f 169/316/167 187/327/186 314/164/187
f 187/327/186 42/44/188 314/164/187
f 314/164/187 42/44/188 181/328/189
f 56/59/190 182/329/191 181/328/189
f 181/328/189 182/329/191 314/164/187
f 182/329/191 55/58/168 314/164/187
f 314/164/187 55/58/168 169/316/167
f 28/29/192 180/331/193 179/330/194
f 179/330/194 180/331/193 315/165/195
f 180/331/193 27/28/170 315/165/195
f 315/165/195 27/28/170 167/318/172
f 13/13/175 178/332/196 167/318/172
f 167/318/172 178/332/196 315/165/195
f 14/14/197 179/330/194 178/332/196
f 178/332/196 179/330/194 315/165/195
f 27/28/170 180/331/193 174/321/177
f 174/321/177 180/331/193 316/166/198
f 180/331/193 28/29/192 316/166/198
f 316/166/198 28/29/192 186/333/199
f 42/44/188 187/327/186 186/333/199
f 186/333/199 187/327/186 316/166/198
f 187/327/186 41/43/166 316/166/198
f 316/166/198 41/43/166 174/321/177
f 182/329/191 56/59/190 317/167/200
f 317/167/200 56/59/190 183/334/201
f 70/74/202 184/335/203 183/334/201
f 183/334/201 184/335/203 317/167/200
f 184/335/203 69/73/180 317/167/200
f 317/167/200 69/73/180 171/322/179
f 55/58/168 182/329/191 171/322/179
f 171/322/179 182/329/191 317/167/200
f 70/74/202 185/336/204 184/335/203
f 184/335/203 185/336/204 318/168/205
f 84/89/43 96/244/42 185/336/204
f 185/336/204 96/244/42 318/168/205
f 83/88/39 173/324/182 96/244/42
f 96/244/42 173/324/182 318/168/205
f 173/324/182 69/73/180 318/168/205
f 318/168/205 69/73/180 184/335/203
f 178/332/196 13/13/175 319/169/206
f 319/169/206 13/13/175 165/337/185
f 85/103/79 177/338/207 165/337/185
f 165/337/185 177/338/207 319/169/206
f 177/338/207 14/14/197 319/169/206
f 319/169/206 14/14/197 178/332/196
f 42/44/188 176/339/208 181/328/189
f 181/328/189 176/339/208 320/170/209
f 29/45/210 193/340/211 176/339/208
f 176/339/208 193/340/211 320/170/209
f 43/60/212 194/341/213 193/340/211
f 193/340/211 194/341/213 320/170/209
f 194/341/213 56/59/190 320/170/209
f 320/170/209 56/59/190 181/328/189
f 15/30/214 190/343/215 191/342/216
f 191/342/216 190/343/215 321/171/217
f 190/343/215 28/29/192 321/171/217
f 321/171/217 28/29/192 179/330/194
f 14/14/197 197/344/218 179/330/194
f 179/330/194 197/344/218 321/171/217
f 1/15/219 191/342/216 197/344/218
f 197/344/218 191/342/216 321/171/217
f 57/75/220 196/346/221 195/345/222
f 195/345/222 196/346/221 322/172/223
f 71/90/7 97/247/46 196/346/221
f 196/346/221 97/247/46 322/172/223
f 84/89/43 185/336/204 97/247/46
f 97/247/46 185/336/204 322/172/223
f 185/336/204 70/74/202 322/172/223
f 322/172/223 70/74/202 195/345/222
f 197/344/218 14/14/197 323/173/224
f 323/173/224 14/14/197 177/347/207
f 85/104/79 189/348/225 177/347/207
f 177/347/207 189/348/225 323/173/224
f 189/348/225 1/15/219 323/173/224
f 323/173/224 1/15/219 197/344/218
f 194/341/213 43/60/212 324/174/226
f 324/174/226 43/60/212 198/349/227
f 198/349/227 57/75/220 324/174/226
f 324/174/226 57/75/220 195/345/222
f 195/345/222 70/74/202 324/174/226
f 324/174/226 70/74/202 183/334/201
f 56/59/190 194/341/213 183/334/201
f 183/334/201 194/341/213 324/174/226
f 176/339/208 42/44/188 325/175/228
f 325/175/228 42/44/188 186/333/199
f 28/29/192 190/343/215 186/333/199
f 186/333/199 190/343/215 325/175/228
f 190/343/215 15/30/214 325/175/228
f 325/175/228 15/30/214 192/350/229
f 192/350/229 29/45/210 325/175/228
f 325/175/228 29/45/210 176/339/208
f 193/351/211 29/31/210 326/176/230
f 326/176/230 29/31/210 188/352/231
f 30/32/232 204/353/233 188/352/231
f 188/352/231 204/353/233 326/176/230
f 44/47/234 205/354/235 204/353/233
f 204/353/233 205/354/235 326/176/230
f 205/354/235 43/46/212 326/176/230
f 326/176/230 43/46/212 193/351/211
f 1/1/219 201/356/236 191/355/216
f 191/355/216 201/356/236 327/177/237
f 201/356/236 2/2/238 327/177/237
f 327/177/237 2/2/238 202/357/239
f 16/17/240 209/358/241 202/357/239
f 202/357/239 209/358/241 327/177/237
f 209/358/241 15/16/214 327/177/237
f 327/177/237 15/16/214 191/355/216
f 205/354/235 44/47/234 328/178/242
f 328/178/242 44/47/234 206/359/243
f 58/62/244 207/360/245 206/359/243
f 206/359/243 207/360/245 328/178/242
f 207/360/245 57/61/220 328/178/242
f 328/178/242 57/61/220 198/361/227
f 43/46/212 205/354/235 198/361/227
f 198/361/227 205/354/235 328/178/242
f 58/62/244 208/362/246 207/360/245
f 207/360/245 208/362/246 329/179/247
f 72/77/2 87/217/1 208/362/246
f 208/362/246 87/217/1 329/179/247
f 71/76/7 196/363/221 87/217/1
f 87/217/1 196/363/221 329/179/247
f 196/363/221 57/61/220 329/179/247
f 329/179/247 57/61/220 207/360/245
f 201/356/236 1/1/219 330/180/248
f 330/180/248 1/1/219 189/364/225
f 85/91/79 200/365/249 189/364/225
f 189/364/225 200/365/249 330/180/248
f 200/365/249 2/2/238 330/180/248
f 330/180/248 2/2/238 201/356/236
f 29/31/210 192/366/229 188/352/231
f 188/352/231 192/366/229 331/181/250
f 192/366/229 15/16/214 331/181/250
f 331/181/250 15/16/214 209/358/241
f 16/17/240 203/367/251 209/358/241
f 209/358/241 203/367/251 331/181/250
f 203/367/251 30/32/232 331/181/250
f 331/181/250 30/32/232 188/352/231
f 204/353/233 30/32/232 332/182/252
f 332/182/252 30/32/232 199/368/253
f 199/368/253 31/33/254 332/182/252
f 332/182/252 31/33/254 215/369/255
f 215/369/255 45/48/256 332/182/252
f 332/182/252 45/48/256 216/370/257
f 216/370/257 44/47/234 332/182/252
f 332/182/252 44/47/234 204/353/233
f 2/2/238 212/371/258 202/357/239
f 202/357/239 212/371/258 333/183/259
f 3/3/260 213/372/261 212/371/258
f 212/371/258 213/372/261 333/183/259
f 17/18/262 220/373/263 213/372/261
f 213/372/261 220/373/263 333/183/259
f 220/373/263 16/17/240 333/183/259
f 333/183/259 16/17/240 202/357/239
f 45/48/256 217/374/264 216/370/257
f 216/370/257 217/374/264 334/184/265
f 217/374/264 59/63/266 334/184/265
f 334/184/265 59/63/266 218/375/267
f 58/62/244 206/359/243 218/375/267
f 218/375/267 206/359/243 334/184/265
f 44/47/234 216/370/257 206/359/243
f 206/359/243 216/370/257 334/184/265
f 59/63/266 219/376/268 218/375/267
f 218/375/267 219/376/268 335/185/269
f 73/78/9 88/220/8 219/376/268
f 219/376/268 88/220/8 335/185/269
f 72/77/2 208/362/246 88/220/8
f 88/220/8 208/362/246 335/185/269
f 208/362/246 58/62/244 335/185/269
f 335/185/269 58/62/244 218/375/267
f 212/371/258 2/2/238 336/186/270
f 336/186/270 2/2/238 200/377/249
f 85/92/79 211/378/271 200/377/249
f 200/377/249 211/378/271 336/186/270
f 211/378/271 3/3/260 336/186/270
f 336/186/270 3/3/260 212/371/258
f 30/32/232 203/367/251 199/368/253
f 199/368/253 203/367/251 337/187/272
f 16/17/240 220/373/263 203/367/251
f 203/367/251 220/373/263 337/187/272
f 220/373/263 17/18/262 337/187/272
f 337/187/272 17/18/262 214/379/273
f 31/33/254 199/368/253 214/379/273
f 214/379/273 199/368/253 337/187/272
f 31/33/254 210/380/274 215/369/255
f 215/369/255 210/380/274 338/188/275
f 210/380/274 32/34/276 338/188/275
f 338/188/275 32/34/276 226/381/277
f 226/381/277 46/49/278 338/188/275
f 338/188/275 46/49/278 227/382/279
f 45/48/256 215/369/255 227/382/279
f 227/382/279 215/369/255 338/188/275
f 3/3/260 223/383/280 213/372/261
f 213/372/261 223/383/280 339/189/281
f 4/4/282 224/384/283 223/383/280
f 223/383/280 224/384/283 339/189/281
f 18/19/284 231/385/285 224/384/283
f 224/384/283 231/385/285 339/189/281
f 231/385/285 17/18/262 339/189/281
f 339/189/281 17/18/262 213/372/261
f 60/64/286 229/387/287 228/386/288
f 228/386/288 229/387/287 340/190/289
f 74/79/13 89/223/12 229/387/287
f 229/387/287 89/223/12 340/190/289
f 73/78/9 219/376/268 89/223/12
f 89/223/12 219/376/268 340/190/289
f 219/376/268 59/63/266 340/190/289
f 340/190/289 59/63/266 228/386/288
f 223/383/280 3/3/260 341/191/290
f 341/191/290 3/3/260 211/388/271
f 85/93/79 222/389/291 211/388/271
f 211/388/271 222/389/291 341/191/290
f 222/389/291 4/4/282 341/191/290
f 341/191/290 4/4/282 223/383/280
f 227/382/279 46/49/278 342/192/292
f 342/192/292 46/49/278 230/390/293
f 230/390/293 60/64/286 342/192/292
f 342/192/292 60/64/286 228/386/288
f 59/63/266 217/374/264 228/386/288
f 228/386/288 217/374/264 342/192/292
f 217/374/264 45/48/256 342/192/292
f 342/192/292 45/48/256 227/382/279
f 210/380/274 31/33/254 343/193/294
f 343/193/294 31/33/254 214/379/273
f 17/18/262 231/385/285 214/379/273
f 214/379/273 231/385/285 343/193/294
f 231/385/285 18/19/284 343/193/294
f 343/193/294 18/19/284 225/391/295
f 225/391/295 32/34/276 343/193/294
f 343/193/294 32/34/276 210/380/274
f 226/381/277 32/34/276 344/194/296
f 344/194/296 32/34/276 221/392/297
f 33/35/298 237/393/299 221/392/297
f 221/392/297 237/393/299 344/194/296
f 47/50/300 238/394/301 237/393/299
f 237/393/299 238/394/301 344/194/296
f 238/394/301 46/49/278 344/194/296
f 344/194/296 46/49/278 226/381/277
f 5/5/302 235/396/303 234/395/304
f 234/395/304 235/396/303 345/195/305
f 235/396/303 19/20/306 345/195/305
f 345/195/305 19/20/306 242/397/307
f 18/19/284 224/384/283 242/397/307
f 242/397/307 224/384/283 345/195/305
f 4/4/282 234/395/304 224/384/283
f 224/384/283 234/395/304 345/195/305
f 60/64/286 239/398/308 229/387/287
f 229/387/287 239/398/308 346/196/309
f 239/398/308 61/65/310 346/196/309
f 346/196/309 61/65/310 240/399/311
f 75/80/17 90/226/16 240/399/311
f 240/399/311 90/226/16 346/196/309
f 74/79/13 229/387/287 90/226/16
f 90/226/16 229/387/287 346/196/309
f 234/395/304 4/4/282 347/197/312
f 347/197/312 4/4/282 222/400/291
f 85/94/79 233/401/313 222/400/291
f 222/400/291 233/401/313 347/197/312
f 233/401/313 5/5/302 347/197/312
f 347/197/312 5/5/302 234/395/304
f 238/394/301 47/50/300 348/198/314
f 348/198/314 47/50/300 241/402/315
f 61/65/310 239/398/308 241/402/315
f 241/402/315 239/398/308 348/198/314
f 239/398/308 60/64/286 348/198/314
f 348/198/314 60/64/286 230/390/293
f 230/390/293 46/49/278 348/198/314
f 348/198/314 46/49/278 238/394/301
f 221/392/297 32/34/276 349/199/316
f 349/199/316 32/34/276 225/391/295
f 225/391/295 18/19/284 349/199/316
f 349/199/316 18/19/284 242/397/307
f 19/20/306 236/403/317 242/397/307
f 242/397/307 236/403/317 349/199/316
f 236/403/317 33/35/298 349/199/316
f 349/199/316 33/35/298 221/392/297
f 237/393/299 33/35/298 350/200/318
f 350/200/318 33/35/298 232/404/319
f 34/36/320 263/405/321 232/404/319
f 232/404/319 263/405/321 350/200/318
f 48/51/322 264/406/323 263/405/321
f 263/405/321 264/406/323 350/200/318
f 264/406/323 47/50/300 350/200/318
f 350/200/318 47/50/300 237/393/299
f 248/262/65 49/52/64 351/201/324
f 351/201/324 49/52/64 255/407/325
f 255/407/325 35/37/326 351/201/324
f 351/201/324 35/37/326 243/408/327
f 243/408/327 36/38/68 351/201/324
f 351/201/324 36/38/68 117/263/67
f 117/263/67 50/53/66 351/201/324
f 351/201/324 50/53/66 248/262/65
f 245/409/328 7/7/329 352/202/330
f 352/202/330 7/7/329 244/410/331
f 85/97/79 115/411/78 244/410/331
f 244/410/331 115/411/78 352/202/330
f 115/411/78 8/8/76 352/202/330
f 352/202/330 8/8/76 245/409/328
f 22/23/87 246/412/332 116/270/82
f 116/270/82 246/412/332 353/203/333
f 21/22/334 251/413/335 246/412/332
f 246/412/332 251/413/335 353/203/333
f 7/7/329 245/409/328 251/413/335
f 251/413/335 245/409/328 353/203/333
f 8/8/76 116/270/82 245/409/328
f 245/409/328 116/270/82 353/203/333
f 243/408/327 35/37/326 354/204/336
f 354/204/336 35/37/326 253/414/337
f 253/414/337 21/22/334 354/204/336
f 354/204/336 21/22/334 246/412/332
f 246/412/332 22/23/87 354/204/336
f 354/204/336 22/23/87 121/277/96
f 121/277/96 36/38/68 354/204/336
f 354/204/336 36/38/68 243/408/327
f 63/67/62 247/260/61 259/415/338
f 259/415/338 247/260/61 355/205/339
f 247/260/61 64/68/59 355/205/339
f 355/205/339 64/68/59 120/275/92
f 78/83/53 112/253/52 120/275/92
f 120/275/92 112/253/52 355/205/339
f 77/82/49 259/415/338 112/253/52
f 112/253/52 259/415/338 355/205/339
f 250/416/340 6/6/341 356/206/342
f 356/206/342 6/6/341 249/417/343
f 85/96/79 244/418/331 249/417/343
f 249/417/343 244/418/331 356/206/342
f 244/418/331 7/7/329 356/206/342
f 356/206/342 7/7/329 250/416/340
f 21/22/334 252/419/344 251/413/335
f 251/413/335 252/419/344 357/207/345
f 20/21/346 261/420/347 252/419/344
f 252/419/344 261/420/347 357/207/345
f 6/6/341 250/416/340 261/420/347
f 261/420/347 250/416/340 357/207/345
f 7/7/329 251/413/335 250/416/340
f 250/416/340 251/413/335 357/207/345
f 257/261/63 63/67/62 358/208/348
f 358/208/348 63/67/62 258/421/349
f 258/421/349 62/66/350 358/208/348
f 358/208/348 62/66/350 265/422/351
f 48/51/322 256/423/352 265/422/351
f 265/422/351 256/423/352 358/208/348
f 256/423/352 49/52/64 358/208/348
f 358/208/348 49/52/64 257/261/63
f 63/67/62 259/415/338 258/421/349
f 258/421/349 259/415/338 359/209/353
f 77/82/49 110/250/48 259/415/338
f 259/415/338 110/250/48 359/209/353
f 76/81/21 267/424/354 110/250/48
f 110/250/48 267/424/354 359/209/353
f 267/424/354 62/66/350 359/209/353
f 359/209/353 62/66/350 258/421/349
f 6/6/341 261/420/347 260/425/355
f 260/425/355 261/420/347 360/210/356
f 261/420/347 20/21/346 360/210/356
f 360/210/356 20/21/346 268/426/357
f 19/20/306 235/396/303 268/426/357
f 268/426/357 235/396/303 360/210/356
f 235/396/303 5/5/302 360/210/356
f 360/210/356 5/5/302 260/425/355
f 264/406/323 48/51/322 361/211/358
f 361/211/358 48/51/322 265/422/351
f 62/66/350 266/427/359 265/422/351
f 265/422/351 266/427/359 361/211/358
f 266/427/359 61/65/310 361/211/358
f 361/211/358 61/65/310 241/402/315
f 47/50/300 264/406/323 241/402/315
f 241/402/315 264/406/323 361/211/358
f 61/65/310 266/427/359 240/399/311
f 240/399/311 266/427/359 362/212/360
f 266/427/359 62/66/350 362/212/360
f 362/212/360 62/66/350 267/424/354
f 76/81/21 91/229/20 267/424/354
f 267/424/354 91/229/20 362/212/360
f 91/229/20 75/80/17 362/212/360
f 362/212/360 75/80/17 240/399/311
f 260/425/355 5/5/302 363/213/361
f 363/213/361 5/5/302 233/428/313
f 85/95/79 249/429/343 233/428/313
f 233/428/313 249/429/343 363/213/361
f 249/429/343 6/6/341 363/213/361
f 363/213/361 6/6/341 260/425/355
f 33/35/298 236/403/317 232/404/319
f 232/404/319 236/403/317 364/214/362
f 236/403/317 19/20/306 364/214/362
f 364/214/362 19/20/306 268/426/357
f 20/21/346 262/430/363 268/426/357
f 268/426/357 262/430/363 364/214/362
f 262/430/363 34/36/320 364/214/362
f 364/214/362 34/36/320 232/404/319
f 256/423/352 48/51/322 365/215/364
f 365/215/364 48/51/322 263/405/321
f 263/405/321 34/36/320 365/215/364
f 365/215/364 34/36/320 254/431/365
f 254/431/365 35/37/326 365/215/364
f 365/215/364 35/37/326 255/407/325
f 255/407/325 49/52/64 365/215/364
f 365/215/364 49/52/64 256/423/352
f 34/36/320 262/430/363 254/431/365
f 254/431/365 262/430/363 366/216/366
f 262/430/363 20/21/346 366/216/366
f 366/216/366 20/21/346 252/419/344
f 252/419/344 21/22/334 366/216/366
f 366/216/366 21/22/334 253/414/337
f 253/414/337 35/37/326 366/216/366
f 366/216/366 35/37/326 254/431/365
