# This file uses centimeters as units for non-parametric coordinates.

v -0.487298 -0.493933 0.520841
v 0.520145 -0.393369 0.846470
v -0.487620 0.459062 0.520837
v 0.522579 0.604791 0.673909
v -0.706675 0.413780 -0.845262
v 0.854908 0.483868 -0.587171
v -0.487620 -0.564324 -0.502549
v 0.535767 -0.564324 -0.502549
v 0.013351 -0.590152 0.854556
v 0.062741 0.681357 0.919107
v 0.331262 0.640928 -0.964009
v 0.024073 -0.743417 -0.681642
v -0.673885 0.082675 0.644804
v 0.714859 -0.052631 0.699930
v -1.074109 0.635641 0.001950
v 1.016934 0.681417 0.009439
v -0.524313 -0.100557 -0.644560
v 0.726888 -0.356970 -0.185094
v -0.666713 -0.743417 0.009144
v 1.014675 -0.420353 0.120491
v 0.023765 0.033083 0.664336
v 0.024073 0.868417 0.009144
v 0.024073 -0.052631 -0.911904
v 0.021004 -0.731233 0.407992
v 0.795981 0.107234 0.152597
v -0.627234 -0.043358 0.013116
vt 0.500032 0.266667
vt 0.616699 0.317148
vt 0.616699 0.500000
vt 0.500032 0.500000
vt 0.616699 0.682852
vt 0.500032 0.733333
vt 0.383365 0.682852
vt 0.383365 0.500000
vt 0.383365 0.317148
vt 0.733365 0.733333
vt 0.500017 0.966667
vt 0.033365 0.733333
vt 0.150032 0.682852
vt 0.266698 0.733333
vt 0.850032 0.500000
vt 0.033365 0.500000
vt 0.033365 0.266667
vt 0.150032 0.317148
vt 0.150032 0.500000
vt 0.733365 0.266667
vt 0.500017 0.033333
vt 0.266698 0.266667
vt 0.733365 0.500000
vt 0.266698 0.500000
vt 0.966699 0.733333
vt 0.746342 0.698696
vt 0.850032 0.682852
vt 0.966699 0.500000
vt 0.966699 0.266667
vt 0.850032 0.317148
vn -0.098205 0.292009 0.951360
vn -0.048445 0.344089 0.937686
vn -0.048445 0.344089 0.937686
vn 0.001576 0.394320 0.918972
vn -0.048276 0.025401 0.998511
vn 0.180559 -0.173749 0.968096
vn 0.180559 -0.173749 0.968096
vn 0.392612 -0.356748 0.847695
vn -0.478589 -0.296083 0.826612
vn -0.262338 0.010118 0.964923
vn -0.262338 0.010118 0.964923
vn -0.004203 0.314703 0.949181
vn -0.043137 -0.223312 0.973792
vn -0.289069 0.019719 0.957105
vn -0.289069 0.019719 0.957105
vn -0.500363 0.260387 0.825734
vn 0.256210 0.948912 0.184179
vn 0.218089 0.952164 0.214056
vn 0.218089 0.952164 0.214056
vn 0.179453 0.953173 0.243429
vn 0.173367 0.919924 -0.351686
vn 0.267056 0.935532 -0.231217
vn 0.267056 0.935532 -0.231217
vn 0.354459 0.929123 -0.105306
vn -0.236199 0.927025 -0.291264
vn -0.215159 0.926425 -0.308940
vn -0.215159 0.926425 -0.308940
vn -0.193956 0.925125 -0.326383
vn -0.183172 0.848841 0.495900
vn -0.342325 0.870359 0.353962
vn -0.342325 0.870359 0.353962
vn -0.485751 0.851894 0.195764
vn 0.502515 -0.283922 -0.816619
vn 0.530753 -0.356550 -0.768878
vn 0.530753 -0.356550 -0.768878
vn 0.554560 -0.426200 -0.714715
vn 0.746271 0.254077 -0.615244
vn 0.613126 -0.018686 -0.789764
vn 0.613126 -0.018686 -0.789764
vn 0.404820 -0.289157 -0.867472
vn -0.404820 -0.289157 -0.867473
vn -0.401056 -0.293227 -0.867855
vn -0.401056 -0.293227 -0.867855
vn -0.397279 -0.297288 -0.868210
vn -0.360079 -0.447165 -0.818771
vn -0.242292 -0.245497 -0.938630
vn -0.242292 -0.245497 -0.938630
vn -0.107809 -0.026912 -0.993807
vn 0.326744 -0.945043 0.011488
vn 0.311747 -0.950163 0.002071
vn 0.311747 -0.950163 0.002071
vn 0.296643 -0.954960 -0.007347
vn 0.359121 -0.891004 0.277748
vn 0.354896 -0.891149 0.282669
vn 0.354896 -0.891149 0.282669
vn 0.350656 -0.891257 0.287579
vn -0.355596 -0.892955 0.276012
vn -0.317144 -0.864633 0.389654
vn -0.317144 -0.864633 0.389654
vn -0.273873 -0.823172 0.497374
vn -0.428393 -0.795587 -0.428393
vn -0.220741 -0.950025 -0.220741
vn -0.220741 -0.950025 -0.220741
vn 0.011212 -0.999874 0.011212
vn 0.726391 0.286740 -0.624609
vn 0.723222 0.311114 -0.616569
vn 0.723222 0.311114 -0.616569
vn 0.719570 0.335280 -0.608117
vn 0.988802 -0.149210 0.002798
vn 0.961387 -0.268549 -0.060144
vn 0.961387 -0.268549 -0.060144
vn 0.915749 -0.382797 -0.121946
vn 0.800391 -0.164257 0.576536
vn 0.906862 0.061486 0.416919
vn 0.906862 0.061486 0.416919
vn 0.933734 0.281832 0.220708
vn 0.802407 -0.219947 0.554767
vn 0.904105 0.073980 0.420857
vn 0.904105 0.073980 0.420857
vn 0.902132 0.359425 0.238688
vn -0.950027 0.051829 0.307834
vn -0.979398 -0.130914 0.153756
vn -0.979398 -0.130914 0.153756
vn -0.951966 -0.306064 -0.009240
vn -0.904919 0.399556 -0.146549
vn -0.959315 -0.018152 0.281755
vn -0.959315 -0.018152 0.281755
vn -0.667509 -0.429309 0.608379
vn -0.814729 -0.539691 -0.212016
vn -0.873852 -0.458034 -0.163057
vn -0.873852 -0.458034 -0.163057
vn -0.921999 -0.370624 -0.112050
vn -0.982212 -0.121543 -0.143136
vn -0.972709 -0.033402 -0.229610
vn -0.972709 -0.033402 -0.229610
vn -0.948289 0.055251 -0.312563
f 9/1/1 2/2/2 21/4/3
f 21/4/3 2/2/2 14/3/4
f 14/3/5 4/5/6 21/4/7
f 21/4/7 4/5/6 10/6/8
f 10/6/9 3/7/10 21/4/11
f 21/4/11 3/7/10 13/8/12
f 13/8/13 1/9/14 21/4/15
f 21/4/15 1/9/14 9/1/16
f 10/6/17 4/5/18 22/11/19
f 22/11/19 4/5/18 16/10/20
f 16/26/21 6/27/22 22/11/23
f 22/11/23 6/27/22 11/25/24
f 11/12/25 5/13/26 22/11/27
f 22/11/27 5/13/26 15/14/28
f 15/14/29 3/7/30 22/11/31
f 22/11/31 3/7/30 10/6/32
f 11/25/33 6/27/34 23/28/35
f 23/28/35 6/27/34 18/15/36
f 18/15/37 8/30/38 23/28/39
f 23/28/39 8/30/38 12/29/40
f 12/17/41 7/18/42 23/16/43
f 23/16/43 7/18/42 17/19/44
f 17/19/45 5/13/46 23/16/47
f 23/16/47 5/13/46 11/12/48
f 12/29/49 8/30/50 24/21/51
f 24/21/51 8/30/50 20/20/52
f 20/20/53 2/2/54 24/21/55
f 24/21/55 2/2/54 9/1/56
f 9/1/57 1/9/58 24/21/59
f 24/21/59 1/9/58 19/22/60
f 7/18/61 12/17/62 19/22/63
f 19/22/63 12/17/62 24/21/64
f 8/30/65 18/15/66 20/20/67
f 20/20/67 18/15/66 25/23/68
f 18/15/69 6/27/70 25/23/71
f 25/23/71 6/27/70 16/10/72
f 16/10/73 4/5/74 25/23/75
f 25/23/75 4/5/74 14/3/76
f 2/2/77 20/20/78 14/3/79
f 14/3/79 20/20/78 25/23/80
f 19/22/81 1/9/82 26/24/83
f 26/24/83 1/9/82 13/8/84
f 13/8/85 3/7/86 26/24/87
f 26/24/87 3/7/86 15/14/88
f 15/14/89 5/13/90 26/24/91
f 26/24/91 5/13/90 17/19/92
f 17/19/93 7/18/94 26/24/95
f 26/24/95 7/18/94 19/22/96
