# This file uses centimeters as units for non-parametric coordinates.

v -7.290558 4.396616 -0.789424
v -7.290424 4.651070 -0.789424
v -7.452993 4.540934 -5.553573
v -7.452993 4.270031 -5.553573
v -7.554210 4.597871 -10.086996
v -7.554210 4.326971 -10.086996
v -0.957936 4.576884 -10.064604
v -0.836683 4.327580 -10.064604
v -0.777080 4.921004 -10.155345
v -0.655827 4.671701 -10.155345
v 1.613227 4.894874 -10.162648
v 1.464811 4.656878 -10.162648
v 1.747028 4.547045 -10.140186
v 1.598612 4.309045 -10.140186
v 8.108378 4.518822 -10.051460
v 8.108109 4.280818 -10.051460
v 8.163984 4.518822 -2.726381
v 8.163715 4.280818 -2.726381
v 8.163984 4.518822 3.873059
v 8.163715 4.280818 3.873059
v 5.939856 4.518822 3.873059
v 5.939584 4.280818 3.873059
v -0.847041 4.518822 3.873059
v -0.847312 4.280818 3.873059
v -7.235077 4.518822 3.873059
v -7.235348 4.280818 3.873059
vt 0.663333 0.000000
vt 0.663333 0.250000
vt 1.000000 0.000000
vt 1.000000 0.250000
vt 0.000000 0.000000
vt 1.000000 0.000000
vt 1.000000 1.000000
vt 0.000000 1.000000
vt 0.000000 0.000000
vt 1.000000 0.000000
vt 1.000000 1.000000
vt 0.000000 1.000000
vt 0.000000 0.000000
vt 1.000000 0.000000
vt 1.000000 1.000000
vt 0.000000 1.000000
vt 0.000000 0.000000
vt 1.000000 0.000000
vt 1.000000 1.000000
vt 0.000000 1.000000
vt 0.000000 0.000000
vt 1.000000 0.000000
vt 1.000000 1.000000
vt 0.000000 1.000000
vt 0.000000 0.000000
vt 1.000000 0.000000
vt 1.000000 1.000000
vt 0.000000 1.000000
vt 0.000000 0.000000
vt 1.000000 0.000000
vt 1.000000 1.000000
vt 0.000000 1.000000
vt 0.000000 0.000000
vt 1.000000 0.000000
vt 1.000000 1.000000
vt 0.000000 1.000000
vt 0.000000 0.000000
vt 1.000000 0.000000
vt 1.000000 1.000000
vt 0.000000 1.000000
vt 0.000000 0.000000
vt 1.000000 0.000000
vt 1.000000 1.000000
vt 0.000000 1.000000
vt 0.000000 0.000000
vt 1.000000 0.000000
vt 1.000000 1.000000
vt 0.000000 1.000000
vt 0.000000 0.000000
vt 1.000000 0.000000
vt 1.000000 1.000000
vt 0.000000 1.000000
vn 0.999419 0.000000 -0.034075
vn 0.999419 -0.000261 -0.034084
vn 0.999419 -0.000261 -0.034084
vn 0.999419 -0.000522 -0.034092
vn 0.999751 0.000000 -0.022321
vn 0.999751 0.000000 -0.022321
vn 0.999751 0.000000 -0.022321
vn 0.999751 0.000000 -0.022321
vn -0.003394 0.000000 0.999994
vn -0.003364 -0.000811 0.999994
vn -0.003364 -0.000811 0.999994
vn -0.003333 -0.001621 0.999993
vn 0.250285 0.121731 0.960489
vn 0.250288 0.121731 0.960488
vn 0.250288 0.121731 0.960488
vn 0.250291 0.121731 0.960487
vn 0.003455 0.001681 0.999993
vn 0.003245 -0.000106 0.999995
vn 0.003245 -0.000106 0.999995
vn 0.003035 -0.001892 0.999994
vn -0.063865 0.039827 0.997164
vn -0.063865 0.039827 0.997164
vn -0.063865 0.039827 0.997164
vn -0.063864 0.039826 0.997164
vn -0.013591 0.008476 0.999872
vn -0.013769 0.004246 0.999896
vn -0.013769 0.004246 0.999896
vn -0.013946 0.000016 0.999903
vn -0.999971 0.001129 0.007591
vn -0.999971 0.001129 0.007591
vn -0.999971 0.001129 0.007591
vn -0.999971 0.001129 0.007591
vn -0.999999 0.001127 0.000000
vn -0.999999 0.001129 0.000000
vn -0.999999 0.001129 0.000000
vn -0.999999 0.001132 0.000000
vn 0.000000 0.000000 -1.000000
vn 0.000000 0.000000 -1.000000
vn 0.000000 0.000000 -1.000000
vn 0.000000 0.000000 -1.000000
vn 0.000000 0.000000 -1.000000
vn 0.000000 0.000000 -1.000000
vn 0.000000 0.000000 -1.000000
vn 0.000000 0.000000 -1.000000
vn 0.000000 0.000000 -1.000000
vn 0.000000 0.000000 -1.000000
vn 0.000000 0.000000 -1.000000
vn 0.000000 0.000000 -1.000000
vn 0.999929 -0.001141 -0.011869
vn 0.999929 -0.000831 -0.011877
vn 0.999929 -0.000831 -0.011877
vn 0.999929 -0.000521 -0.011885
f 4/3/1 3/4/2 1/1/3
f 1/1/3 3/4/2 2/2/4
f 4/6/5 6/7/6 3/5/7
f 3/5/7 6/7/6 5/8/8
f 5/9/9 6/10/10 7/12/11
f 7/12/11 6/10/10 8/11/12
f 8/14/13 10/15/14 7/13/15
f 7/13/15 10/15/14 9/16/16
f 10/18/17 12/19/18 9/17/19
f 9/17/19 12/19/18 11/20/20
f 11/21/21 12/22/22 13/24/23
f 13/24/23 12/22/22 14/23/24
f 14/26/25 16/27/26 13/25/27
f 13/25/27 16/27/26 15/28/28
f 15/29/29 16/30/30 17/32/31
f 17/32/31 16/30/30 18/31/32
f 17/33/33 18/34/34 19/36/35
f 19/36/35 18/34/34 20/35/36
f 19/37/37 20/38/38 21/40/39
f 21/40/39 20/38/38 22/39/40
f 21/41/41 22/42/42 23/44/43
f 23/44/43 22/42/42 24/43/44
f 23/45/45 24/46/46 25/48/47
f 25/48/47 24/46/46 26/47/48
f 26/50/49 1/51/50 25/49/51
f 25/49/51 1/51/50 2/52/52
