# This file uses centimeters as units for non-parametric coordinates.

v -7.497327 4.195092 -10.104577
v 8.094199 4.306574 -9.998284
v -7.198964 4.308500 3.797846
v 8.091589 4.204710 3.751935
v 8.071907 4.280251 -7.795057
v -7.279915 4.299088 1.826262
v 5.948617 4.177001 3.745164
v 5.935235 4.298045 1.891428
v 5.935487 4.218329 -7.877715
v 5.937649 4.242523 -9.998158
v -5.356099 4.254981 3.753229
v -5.407669 4.270890 1.825405
v -5.380871 4.219604 -7.994156
v -5.441514 3.231360 -7.906672
v -5.478038 3.218133 2.041241
v 5.964960 3.226762 1.914202
v 5.966955 3.226846 -7.896561
v -7.391138 4.294171 -2.741330
v -5.380687 4.275346 -2.739487
v -5.441430 3.163143 -2.738764
v 5.965351 3.179910 -2.749806
v 6.000865 4.285952 -2.725399
v 7.985594 4.276999 -2.723836
v -0.724632 3.158674 -7.986010
v -0.823274 3.185776 -2.750416
v -0.858452 3.158588 2.022012
v -0.914329 4.205494 1.854877
v -0.836579 4.235187 3.730346
v 1.523930 3.158673 -8.008378
v 1.492854 3.169893 -2.779732
v 1.424844 3.212557 1.999925
v 3.662606 3.123250 -7.988728
v 3.679360 3.188647 -2.735105
v 3.617791 3.158588 1.978711
v -3.088572 3.158677 -7.926930
v -3.026994 3.178939 -2.741110
v -3.068841 3.158592 2.043395
v -5.488766 3.226794 -0.755556
v -5.491515 4.222875 -0.755257
v -7.340631 4.293736 -0.751422
v 1.524242 4.261045 -7.971222
v 1.545507 4.258381 -10.026509
v -0.748958 4.299636 -7.945288
v -0.742194 4.231713 -9.606460
v -0.727366 3.771507 -8.741361
v 1.524247 3.767817 -8.758711
v -2.842147 4.333588 3.822497
v -0.732313 4.591717 -10.092804
v 1.510806 4.542223 -10.088033
v -5.306829 4.331920 3.822880
v -5.342721 4.333644 1.825363
v -0.874640 4.333588 3.821589
v -0.962137 4.326417 1.830001
v -0.911142 3.271624 1.904572
v -5.350960 3.291966 1.867501
v -0.794018 4.333588 3.898414
v -0.847190 4.364115 1.788342
v -0.806278 3.290432 1.902074
v 5.877018 4.311271 3.796778
v 5.867504 4.333630 1.819350
v 5.873163 3.290781 1.841202
v -5.418738 4.315067 3.774326
v -5.439002 4.333644 1.825429
v -5.519561 4.285631 -0.755262
v -5.399313 4.333724 -2.739523
v -5.397859 4.340156 3.747806
v -7.202212 4.333590 3.748750
v -5.419644 4.275801 3.799865
v -5.380603 4.271057 -0.806649
v -5.408399 4.333690 -0.806673
v -7.344561 4.294137 -0.805689
v -7.398835 4.299131 -0.695989
v -5.466282 4.333688 -0.696625
v -5.438158 4.270934 -0.696517
v -5.412999 3.286181 1.868156
v -5.440559 3.266098 -0.695337
v -5.488875 3.263510 -0.755545
v -5.380376 3.282307 -0.805439
v -5.380409 3.259789 -2.738788
v -7.140219 4.308500 3.797822
v -7.167169 4.333590 3.749174
v -7.236940 4.333645 1.826245
v -7.327893 4.333691 -0.696012
v -5.380503 3.278274 -7.910983
v -5.302355 4.333804 -7.933545
v -5.328127 4.299766 -10.040573
v -5.458116 4.232894 -10.101730
v -5.327261 3.281604 -7.851907
v -0.724728 3.268911 -7.934802
v -0.724724 3.242163 -8.010159
v 1.523947 3.250324 -8.071669
v 1.523947 3.314401 -7.942403
v 5.931194 3.267974 -7.897166
v 5.995873 3.264809 -2.724711
v 5.929334 3.279058 1.913061
v -5.441475 3.231341 -5.549471
v -5.415153 3.269737 -5.524776
v -5.415481 4.307202 -5.524356
v -5.476615 4.333740 -5.524295
v -7.450457 4.294213 -5.525228
v -7.393384 4.177556 -5.606282
v -5.428421 4.301270 -5.606412
v -5.380788 4.275683 -5.606195
v -5.380461 3.270008 -5.604074
v -7.359935 4.188397 -5.573089
v -5.441758 4.307057 -5.566062
v -5.423336 4.276567 -5.566182
v -5.423010 3.300975 -5.568137
v -7.303979 4.333692 -0.805709
v -7.323359 4.333730 -2.741269
v -7.381767 4.333769 -5.525196
v -7.295703 4.246593 -5.629283
v -5.471045 4.291809 -10.028579
v -7.404110 4.258809 -10.018657
v 1.527769 4.262723 -9.640300
v -1.527054 4.307150 -10.047944
v -0.757361 4.307821 -10.022197
v -0.668529 4.643911 -10.101027
v -0.682818 4.333763 -9.519492
v -0.669086 3.771413 -8.654303
v -0.686480 3.269623 -7.923885
v 1.455147 4.630066 -10.098950
v 1.457766 4.333779 -9.519115
v 1.469965 3.767908 -8.650534
v 1.502886 3.277568 -7.963018
v -0.754908 4.307820 -10.017994
v -0.739498 4.560944 -10.028144
v -0.670301 4.646973 -10.062594
v 1.450156 4.639674 -10.049249
v 1.517162 4.527147 -10.014898
v 1.550536 4.298667 -10.015220
v -0.769624 4.334054 -10.063756
v -0.780181 4.333763 -9.663324
v -0.802782 4.333786 -7.883852
v -0.767854 3.269033 -7.887482
v 1.567976 3.281655 -7.881992
v 1.578375 4.305952 -7.918629
v 1.583706 4.333779 -9.674150
v 5.880906 3.268135 -7.825676
v 5.898620 4.300723 -7.841927
v 5.891346 4.303039 -10.055789
v 6.006551 4.323914 -10.006171
v 5.965286 4.333750 -7.804400
v 6.028898 4.312204 -2.725379
v 5.989141 4.333629 1.819298
v 5.986653 4.350532 3.837016
v 5.971222 3.264887 -2.700822
v 5.961914 4.272305 -2.685775
v 6.019791 4.335312 -2.687836
v 8.138864 4.242559 -2.672880
v 5.930398 3.264826 -2.750484
v 5.928218 4.289783 -2.744163
v 5.981430 4.346961 -2.742157
v 8.098812 4.280206 -2.775267
v 8.016591 4.334434 3.839203
v 8.008204 4.333629 1.818763
v 8.061152 4.333700 -2.674240
v 8.043219 4.307118 -10.010227
v 8.009363 4.333746 -7.795545
v 7.986009 4.333701 -2.773146
v 1.524204 4.179174 -7.941581
v 1.577034 4.206244 -7.881693
v 5.898483 4.250678 -7.816640
v -0.812687 3.230687 -2.810925
v 1.420915 3.235792 -2.841127
v 1.453344 3.226848 -7.846137
v -0.650810 3.226850 -7.808139
v 4.803406 3.226827 -5.337096
v 4.796301 3.226788 -0.382947
v -1.916592 3.189607 -5.365613
v -1.944420 3.226789 -0.347822
v 0.306533 3.226789 -0.366180
v 2.580198 3.226830 -5.357064
v -4.245300 3.229085 -5.314951
v -4.256835 3.225919 -0.350032
v 2.546588 3.226789 -0.365201
v 1.562844 3.165867 -7.765960
v 3.591818 3.188052 -7.790041
v 3.631570 3.226812 -2.794163
v 1.532433 3.226813 -2.826261
v 3.724429 3.236724 -7.823462
v 5.906059 3.226846 -7.762609
v 5.915540 3.226813 -2.838379
v 3.709350 3.176058 -2.817752
v 3.753930 3.231101 -2.688332
v 5.909883 3.218531 -2.713112
v 5.911920 3.226763 1.809942
v 3.692559 3.226764 1.828879
v 3.613825 3.242960 -2.661440
v 3.559345 3.226764 1.850827
v 1.478850 3.226764 1.886056
v 1.555768 3.232708 -2.701591
v 1.378650 3.232707 -2.752706
v 1.383399 3.226764 1.912236
v -0.818160 3.226764 1.939418
v -0.746898 3.230348 -2.685107
v -0.872720 3.226811 -2.631842
v -0.901654 3.226765 1.927737
v -3.007619 3.226765 1.913201
v -2.946832 3.207749 -2.608761
v -3.067739 3.226773 -2.639155
v -3.109363 3.226738 1.961753
v -5.415697 3.218529 1.919173
v -5.440504 3.226758 -0.739669
v -5.392909 3.231095 -2.640922
v -5.401467 3.231241 -2.824834
v -3.067814 3.226905 -2.841770
v -3.146524 3.226963 -7.796070
v -5.398767 3.231276 -7.814059
v -5.366147 3.231197 -5.534703
v -2.959918 3.207657 -2.710374
v -0.877648 3.211914 -2.767906
v -0.817629 3.183178 -7.749281
v -3.028542 3.189628 -7.770968
v -0.737271 3.180658 -2.754032
v 1.397118 3.146809 -2.805929
v -2.936376 3.139443 -2.642738
v 0.352615 3.246380 -5.303907
v 3.012539 4.307152 -10.067292
v 1.594216 4.338819 -10.072582
v -5.390124 4.172740 -10.015068
v 6.002738 4.255453 -9.971298
v 6.003849 4.216184 -9.996841
v -7.572125 4.189392 -10.070478
v 8.067641 4.259768 -5.533082
v 8.175532 4.196085 -0.606432
v 8.174242 4.180647 -0.577967
v 8.173848 4.228513 -0.544612
v 8.130158 4.227341 1.801910
v 8.035632 4.333667 -0.508798
v 8.099607 4.221144 -2.733290
v 7.998910 4.333731 -5.547460
v 8.122338 4.280233 -5.528362
vt 0.209723 0.892575
vt 0.848001 0.805709
vt 0.010593 0.481921
vt 0.992094 0.487652
vt 0.831031 0.845290
vt 0.057054 0.579804
vt 0.946462 0.587408
vt 0.916114 0.487183
vt 0.880923 0.587209
vt 0.774659 0.864951
vt 0.758911 0.904777
vt 0.085109 0.483095
vt 0.120118 0.582009
vt 0.237900 0.857990
vt 0.252556 0.894110
vt 0.243057 0.794339
vt 0.165923 0.587030
vt 0.837996 0.594479
vt 0.771762 0.801872
vt 0.133723 0.748948
vt 0.187247 0.745851
vt 0.197201 0.679441
vt 0.810360 0.687292
vt 0.815741 0.753433
vt 0.872788 0.755524
vt 0.451407 0.801781
vt 0.437852 0.684843
vt 0.429143 0.589947
vt 0.418455 0.584018
vt 0.410346 0.488140
vt 0.558989 0.801662
vt 0.562192 0.685383
vt 0.566680 0.591472
vt 0.663769 0.800515
vt 0.682282 0.687448
vt 0.698775 0.592936
vt 0.346144 0.796957
vt 0.316605 0.682439
vt 0.295997 0.588471
vt 0.167708 0.595310
vt 0.157299 0.672110
vt 0.097550 0.673858
vt 0.559091 0.863086
vt 0.559540 0.900981
vt 0.450311 0.862255
vt 0.452585 0.883092
vt 0.452949 0.855932
vt 0.556683 0.852402
vt 0.253777 0.484863
vt 0.454954 0.923793
vt 0.556713 0.923366
vt 0.088687 0.483132
vt 0.122251 0.580985
vt 0.407385 0.488151
vt 0.415888 0.587366
vt 0.704704 0.861466
vt 0.165163 0.585113
vt 0.413860 0.488090
vt 0.422404 0.584046
vt 0.409894 0.801289
vt 0.910456 0.486137
vt 0.876307 0.587177
vt 0.450949 0.801845
vt 0.082576 0.483055
vt 0.116596 0.582658
vt 0.153854 0.675169
vt 0.186357 0.745870
vt 0.083585 0.485842
vt 0.012458 0.485850
vt 0.083410 0.477648
vt 0.160058 0.672624
vt 0.154148 0.675869
vt 0.098106 0.674775
vt 0.094574 0.670734
vt 0.153520 0.674356
vt 0.156834 0.670966
vt 0.164429 0.586958
vt 0.167236 0.598172
vt 0.167298 0.598334
vt 0.169165 0.604052
vt 0.196867 0.681629
vt 0.012969 0.481959
vt 0.013840 0.485850
vt 0.058465 0.579853
vt 0.097628 0.672558
vt 0.242880 0.797393
vt 0.239396 0.858180
vt 0.255185 0.895522
vt 0.250801 0.894980
vt 0.245265 0.797651
vt 0.451363 0.804143
vt 0.451459 0.803602
vt 0.558869 0.804299
vt 0.559009 0.804549
vt 0.771892 0.804220
vt 0.810712 0.689715
vt 0.840147 0.594115
vt 0.222141 0.742414
vt 0.221627 0.744411
vt 0.213729 0.802774
vt 0.211526 0.804106
vt 0.160514 0.803207
vt 0.169706 0.806419
vt 0.212254 0.805790
vt 0.214548 0.804585
vt 0.222295 0.746075
vt 0.166462 0.804487
vt 0.211863 0.804886
vt 0.214154 0.803714
vt 0.221898 0.745085
vt 0.099280 0.674798
vt 0.135514 0.748843
vt 0.162290 0.803238
vt 0.170994 0.806400
vt 0.250176 0.893535
vt 0.210484 0.891241
vt 0.558562 0.885060
vt 0.599549 0.901247
vt 0.452253 0.883431
vt 0.417975 0.899764
vt 0.454265 0.900675
vt 0.558031 0.885329
vt 0.667921 0.821065
vt 0.623291 0.820981
vt 0.622839 0.846916
vt 0.621546 0.813231
vt 0.690811 0.813653
vt 0.621044 0.853698
vt 0.456562 0.923787
vt 0.455343 0.883150
vt 0.455634 0.855841
vt 0.453286 0.803614
vt 0.553287 0.923381
vt 0.554779 0.885260
vt 0.554182 0.852487
vt 0.557863 0.804292
vt 0.453940 0.897886
vt 0.632748 0.813300
vt 0.631153 0.847896
vt 0.454611 0.917896
vt 0.456411 0.918748
vt 0.553504 0.917828
vt 0.556950 0.916506
vt 0.630970 0.842253
vt 0.630649 0.820995
vt 0.559628 0.898314
vt 0.449524 0.900556
vt 0.448288 0.885320
vt 0.446810 0.862199
vt 0.449432 0.804082
vt 0.561136 0.804545
vt 0.561738 0.863146
vt 0.562666 0.886681
vt 0.563134 0.900982
vt 0.769463 0.804224
vt 0.773506 0.864924
vt 0.756995 0.904735
vt 0.759795 0.904775
vt 0.775334 0.864942
vt 0.817674 0.754866
vt 0.882538 0.587213
vt 0.917747 0.487193
vt 0.811223 0.688478
vt 0.816551 0.752026
vt 0.818494 0.753450
vt 0.873609 0.753661
vt 0.810149 0.690942
vt 0.815275 0.754560
vt 0.817236 0.755920
vt 0.829073 0.845074
vt 0.988377 0.487629
vt 0.943025 0.587397
vt 0.869199 0.753769
vt 0.801373 0.904669
vt 0.822008 0.860785
vt 0.868842 0.756615
vt 0.559045 0.857069
vt 0.561624 0.856997
vt 0.773136 0.860184
vt 0.441626 0.688843
vt 0.558035 0.688706
vt 0.555302 0.798100
vt 0.454597 0.797835
vt 0.727022 0.744660
vt 0.752515 0.641080
vt 0.384641 0.742004
vt 0.367136 0.636763
vt 0.495667 0.637665
vt 0.612980 0.742949
vt 0.271672 0.738727
vt 0.242377 0.616036
vt 0.630484 0.639159
vt 0.563575 0.796675
vt 0.659954 0.796191
vt 0.680526 0.688854
vt 0.564048 0.687486
vt 0.667881 0.796884
vt 0.769420 0.798878
vt 0.807733 0.688389
vt 0.684360 0.690106
vt 0.684756 0.685814
vt 0.808050 0.686340
vt 0.834116 0.596594
vt 0.702185 0.595990
vt 0.680212 0.685518
vt 0.695049 0.595458
vt 0.569752 0.593768
vt 0.565831 0.682920
vt 0.558044 0.686957
vt 0.564048 0.593184
vt 0.431443 0.591597
vt 0.441811 0.687227
vt 0.434829 0.682791
vt 0.426676 0.591810
vt 0.299870 0.591101
vt 0.318843 0.680104
vt 0.314806 0.680676
vt 0.293809 0.588588
vt 0.169289 0.587278
vt 0.170221 0.595176
vt 0.198620 0.675812
vt 0.199689 0.681386
vt 0.315344 0.684756
vt 0.342413 0.794039
vt 0.244079 0.792352
vt 0.225260 0.742182
vt 0.319086 0.683050
vt 0.432121 0.686292
vt 0.445641 0.796618
vt 0.348347 0.793812
vt 0.441764 0.687935
vt 0.557925 0.688011
vt 0.319566 0.681577
vt 0.506316 0.743271
vt 0.085109 0.483095
vt 0.083585 0.485842
vt 0.082576 0.483055
vt 0.083410 0.477648
vt 0.700738 0.800849
vt 0.703369 0.800691
vt 0.707441 0.858762
vt 0.561566 0.863474
vt 0.561428 0.802485
vt 0.559895 0.858688
vt 0.560327 0.799094
vt 0.662094 0.799120
vt 0.772032 0.802307
vt 0.450126 0.805174
vt 0.244300 0.796125
vt 0.243889 0.795266
vt 0.323237 0.799197
vt 0.450866 0.862347
vt 0.452637 0.855090
vt 0.239750 0.858084
vt 0.237737 0.857404
vt 0.242683 0.796555
vt 0.505588 0.803062
vt 0.532404 0.834934
vt 0.529720 0.837392
vt 0.459502 0.802257
vt 0.541319 0.801378
vt 0.545558 0.806149
vt 0.678230 0.838323
vt 0.658913 0.803099
vt 0.661203 0.800716
vt 0.696697 0.803203
vt 0.735610 0.803057
vt 0.237269 0.537268
vt 0.286505 0.535122
vt 0.237392 0.537878
vt 0.846341 0.804642
vt 0.908464 0.674120
vt 0.904780 0.673585
vt 0.864055 0.766634
vt 0.540688 0.479068
vt 0.544047 0.462023
vt 0.000000 0.467891
vt 0.863764 0.766316
vt 0.807988 0.894444
vt 0.809930 0.894507
vt 0.808715 0.894793
vt 0.806774 0.894583
vt 0.808395 0.896645
vt 0.806205 0.896089
vt 0.842972 0.814158
vt 0.828662 0.844811
vn -0.572481 0.819858 0.009977
vn -0.501527 0.865077 0.010617
vn -0.502366 0.864583 0.011126
vn -0.499006 0.866533 0.010646
vn 0.001312 0.841122 0.540844
vn -0.002755 0.889070 0.457764
vn -0.002662 0.889557 0.456816
vn -0.005510 0.890306 0.455330
vn 0.007931 0.999968 -0.000431
vn 0.002643 0.999992 -0.002931
vn 0.003964 0.999982 -0.004404
vn 0.000136 0.999997 -0.002661
vn 0.462187 0.886779 0.002416
vn 0.486888 0.873464 -0.001340
vn 0.571845 0.820355 0.003304
vn 0.408326 0.912835 -0.001113
vn 0.013429 0.999840 -0.011816
vn 0.352686 0.935740 0.002041
vn 0.003517 0.999930 0.011289
vn 0.003995 0.999910 0.012821
vn 0.003995 0.999910 0.012821
vn 0.004473 0.999887 0.014353
vn 0.992080 0.000470 -0.125603
vn 0.999980 0.000272 -0.006255
vn 0.997694 0.000325 -0.067876
vn 0.999981 0.000269 -0.006245
vn -0.999990 0.004519 -0.000152
vn -0.999999 0.001201 -0.000769
vn -0.999999 0.001201 -0.000769
vn -0.999997 -0.002118 -0.001386
vn -0.014685 0.826850 -0.562231
vn -0.005345 0.956046 -0.293169
vn -0.005345 0.956046 -0.293169
vn 0.004471 0.999988 0.002036
vn -0.384262 0.788492 -0.480232
vn -0.384262 0.788492 -0.480232
vn -0.384262 0.788492 -0.480232
vn 0.779867 0.002408 -0.625941
vn 0.760899 -0.000113 -0.648870
vn 0.767298 0.000752 -0.641290
vn 0.741248 -0.002560 -0.671226
vn -0.001479 0.741643 -0.670793
vn -0.002928 0.714130 -0.700007
vn -0.002928 0.714130 -0.700007
vn -0.004372 0.685465 -0.728092
vn -0.713658 0.003016 -0.700488
vn -0.704844 0.003656 -0.709353
vn -0.704844 0.003656 -0.709353
vn -0.695920 0.004294 -0.718106
vn 0.015762 0.853211 -0.521327
vn 0.010787 0.762794 -0.646551
vn 0.010787 0.762794 -0.646551
vn 0.005554 0.654161 -0.756335
vn 0.005248 0.997710 -0.067434
vn 0.000448 0.999989 -0.004638
vn -0.000431 0.997019 -0.077151
vn -0.014049 0.443596 -0.896117
vn -0.028024 0.745038 -0.666434
vn -0.028024 0.745038 -0.666434
vn -0.037968 0.939330 -0.340906
vn 0.019834 -0.040567 -0.998980
vn 0.010293 -0.048659 -0.998762
vn 0.016087 -0.042026 -0.998987
vn -0.006503 -0.043337 -0.999039
vn -0.848414 0.529100 0.015701
vn -0.777357 0.628734 0.020260
vn -0.777357 0.628734 0.020260
vn -0.694641 0.718938 0.024515
vn -0.009224 0.999956 0.001983
vn -0.001191 0.999998 -0.001369
vn -0.008186 0.999956 -0.004518
vn 0.043273 0.532919 -0.845059
vn 0.022684 0.635792 -0.771527
vn 0.098782 0.539390 -0.836242
vn 0.003581 -0.749595 -0.661887
vn -0.010139 -0.831500 -0.555433
vn -0.001607 -0.707607 -0.706604
vn -0.008374 -0.810611 -0.585525
vn -0.009048 -0.872673 -0.488222
vn 0.008812 -0.674798 -0.737950
vn -0.934368 0.355152 0.028683
vn -0.925274 0.378098 0.030157
vn -0.925274 0.378098 0.030157
vn -0.915615 0.400812 0.031612
vn -0.017563 0.999639 -0.020320
vn 0.003889 0.995860 -0.090823
vn 0.003692 0.985845 -0.167617
vn 0.018569 0.952480 -0.304034
vn 0.001914 0.999998 0.000004
vn 0.001886 0.999998 -0.000002
vn 0.001903 0.999998 -0.000013
vn 0.771089 0.636657 0.009452
vn 0.815403 0.578829 0.008620
vn 0.815403 0.578829 0.008620
vn 0.855389 0.517929 0.007743
vn 0.390106 0.080371 0.917256
vn 0.389367 0.080426 0.917565
vn 0.418444 0.001021 0.908242
vn 0.417671 0.000928 0.908598
vn -0.696892 0.715006 0.055741
vn -0.697645 0.715756 0.031381
vn -0.637341 0.770172 0.025135
vn 0.999916 0.012215 -0.004288
vn 0.999879 0.015527 0.001282
vn 0.999619 0.027524 0.002238
vn 0.999534 0.029577 0.007489
vn 0.999312 0.037004 0.002556
vn 0.962237 0.241289 0.126014
vn 0.885216 0.384745 0.261464
vn 0.839497 0.453566 0.299203
vn 0.792636 0.509852 0.334334
vn -0.999999 0.001095 -0.000682
vn -1.000000 0.000336 -0.000221
vn -0.999998 0.001866 -0.001175
vn -0.279039 0.960198 -0.012541
vn -0.504606 0.863266 -0.012037
vn -0.504606 0.863266 -0.012037
vn -0.699758 0.714298 -0.010807
vn 0.845589 0.533523 -0.018229
vn 0.850267 0.526302 0.007234
vn 0.850267 0.526302 0.007234
vn 0.854330 0.518701 0.032692
vn -0.000001 0.999994 -0.003599
vn 0.000825 0.999996 -0.002820
vn 0.000325 0.999999 -0.001588
vn 0.000488 1.000000 -0.000582
vn -0.000677 0.999999 0.000876
vn 0.008007 -0.070134 -0.997505
vn 0.004500 -0.055287 -0.998460
vn 0.918215 0.393875 -0.041758
vn 0.925333 0.376704 -0.043053
vn 0.925333 0.376704 -0.043053
vn 0.932129 0.359402 -0.044332
vn 0.905056 -0.019518 -0.424844
vn 0.682426 -0.036519 -0.730042
vn 0.682426 -0.036519 -0.730042
vn 0.362210 -0.048297 -0.930844
vn -0.022231 -0.914161 -0.404742
vn -0.010424 -0.857258 -0.514782
vn -0.009226 -0.816459 -0.577329
vn -0.002578 -0.755463 -0.655186
vn -0.006694 -0.721970 -0.691892
vn -0.558755 -0.108387 -0.822220
vn -0.721647 -0.120374 -0.681715
vn -0.721647 -0.120374 -0.681715
vn -0.851041 -0.126774 -0.509567
vn 0.004115 -0.105182 -0.994444
vn -0.002500 -0.063148 -0.998001
vn -0.002500 -0.063148 -0.998001
vn -0.009110 -0.020999 -0.999738
vn 0.458536 0.888641 0.007842
vn 0.705057 0.708956 0.016622
vn 0.705057 0.708956 0.016622
vn 0.885912 0.463241 0.023853
vn 0.786334 -0.017663 -0.617549
vn 0.757039 -0.014080 -0.653218
vn 0.757039 -0.014080 -0.653218
vn 0.726120 -0.010466 -0.687488
vn 0.567674 0.326431 0.755770
vn 0.596642 0.372391 0.710875
vn 0.596642 0.372391 0.710875
vn 0.595242 0.265485 -0.758422
vn 0.595232 0.265720 -0.758348
vn 0.595232 0.265720 -0.758348
vn 0.595223 0.265955 -0.758273
vn 0.356755 0.159501 0.920481
vn 0.357074 0.159226 0.920405
vn 0.894569 0.446673 -0.015163
vn 0.896357 0.442857 -0.020530
vn 0.900102 0.435405 -0.015441
vn 0.898214 0.439085 -0.020404
vn -0.000000 1.000000 0.000029
vn -0.439840 0.897997 0.011926
vn -0.332164 0.943202 0.006028
vn -0.566802 0.823651 0.018304
vn 0.622646 0.416501 0.662449
vn 1.000000 0.000251 -0.000032
vn 1.000000 0.000228 -0.000043
vn 0.952670 0.303972 0.004483
vn 0.934735 0.355336 0.002676
vn 0.934735 0.355336 0.002676
vn 0.914030 0.405647 0.000860
vn -0.535519 0.844243 0.021769
vn -0.437841 0.898815 0.020659
vn 0.912504 0.408920 -0.011025
vn 0.903762 0.427910 -0.010349
vn 0.999924 -0.002403 -0.012089
vn 0.999926 -0.004140 -0.011396
vn 0.999926 -0.004140 -0.011396
vn 0.999925 -0.005877 -0.010704
vn 0.083882 -0.937711 -0.337139
vn 0.083882 -0.937711 -0.337139
vn 0.083882 -0.937711 -0.337139
vn 0.716633 -0.697434 -0.004909
vn 0.675647 -0.737220 -0.002824
vn 0.675647 -0.737220 -0.002824
vn 0.632454 -0.774598 -0.000731
vn 0.417666 0.000978 0.908600
vn 0.779862 0.002481 -0.625946
vn 0.469837 -0.881868 0.039518
vn 0.765988 -0.642836 0.005043
vn 0.680480 -0.732384 0.023653
vn 0.845561 -0.533869 -0.003123
vn 0.001877 0.814136 0.580671
vn 0.006657 0.723787 0.689991
vn 0.000001 1.000000 0.000021
vn -0.001857 0.999997 -0.001640
vn -0.001238 0.999999 -0.001087
vn -0.003714 0.999988 -0.003308
vn 0.000002 1.000000 0.000018
vn 0.000001 1.000000 0.000018
vn 0.002375 0.810857 -0.585240
vn 0.001084 0.792563 -0.609790
vn 0.001084 0.792563 -0.609790
vn -0.000207 0.773524 -0.633766
vn 0.837229 -0.546697 -0.013020
vn 0.828766 -0.559430 -0.013587
vn 0.398164 0.917248 -0.011048
vn 0.741759 0.670581 -0.010693
vn 0.741759 0.670581 -0.010693
vn 0.952652 0.303947 -0.008425
vn 0.705077 -0.298245 0.643364
vn 0.705077 -0.298245 0.643364
vn 0.705077 -0.298245 0.643364
vn -0.529090 0.728108 0.435801
vn -0.529090 0.728108 0.435801
vn -0.529090 0.728108 0.435801
vn 0.999999 0.001012 -0.000312
vn 0.980441 0.111715 0.162032
vn 0.980441 0.111715 0.162032
vn 0.980441 0.111715 0.162032
vn -1.000000 0.000261 -0.000148
vn -1.000000 0.000243 -0.000120
vn -1.000000 0.000135 -0.000067
vn -0.829489 -0.102426 0.549051
vn -0.805450 -0.068479 0.588694
vn -0.840841 -0.211072 0.498433
vn -0.924725 -0.380636 -0.000376
vn -0.850881 -0.525347 -0.003342
vn -0.850881 -0.525347 -0.003342
vn -0.754572 -0.656188 -0.006219
vn -0.630988 0.419694 -0.652465
vn -0.630988 0.419694 -0.652465
vn -0.630988 0.419694 -0.652465
vn 0.726024 0.483927 -0.488573
vn 0.726024 0.483927 -0.488573
vn 0.726024 0.483927 -0.488573
vn 0.609446 -0.792823 -0.002852
vn 0.572950 -0.819589 -0.001435
vn 0.572950 -0.819589 -0.001435
vn 0.535279 -0.844675 -0.000016
vn -0.574539 0.818311 0.016466
vn -0.559232 0.823376 0.096497
vn -0.574518 0.818326 0.016466
vn -0.550109 0.823849 0.136573
vn -0.517441 0.816958 0.254624
vn 0.424767 0.794421 0.434130
vn 0.657200 0.676488 0.332343
vn 0.657200 0.676488 0.332343
vn 0.838178 0.505591 0.204537
vn 0.651449 0.014840 0.758547
vn 0.665760 0.000295 0.746166
vn 0.662819 0.009485 0.748720
vn 0.685050 -0.001231 0.728495
vn 0.656740 0.027856 0.753602
vn -0.164425 0.286288 -0.943930
vn -0.082273 0.300681 -0.950170
vn -0.074679 0.499050 -0.863349
vn 0.752141 0.456294 -0.475478
vn 0.597586 0.706601 -0.378955
vn 0.597586 0.706601 -0.378955
vn 0.385747 0.889174 -0.246106
vn 0.982726 0.000700 -0.185066
vn 0.983381 0.000542 -0.181555
vn 0.856232 -0.332930 -0.394998
vn 0.856232 -0.332930 -0.394998
vn 0.856232 -0.332930 -0.394998
vn 0.004831 0.803798 0.594883
vn 0.002594 0.768249 0.640145
vn 0.002594 0.768249 0.640145
vn 0.000348 0.730153 0.683284
vn 0.000007 1.000000 0.000013
vn 0.000002 1.000000 0.000018
vn 0.000002 1.000000 0.000014
vn 0.000001 1.000000 0.000018
vn 0.000009 1.000000 0.000010
vn 0.000015 1.000000 0.000014
vn -0.025524 0.599343 -0.800085
vn -0.048820 0.822733 -0.566328
vn -0.047092 0.720268 0.692095
vn -0.041357 0.952463 0.301836
vn -0.041357 0.952463 0.301836
vn -0.027091 0.988212 -0.150677
vn -0.017052 0.999849 0.003204
vn -0.023150 0.999732 0.000674
vn -0.023150 0.999732 0.000674
vn -0.029246 0.999571 -0.001857
vn -0.014207 0.810464 -0.585617
vn -0.015358 0.794172 -0.607499
vn -0.015358 0.794172 -0.607499
vn -0.016498 0.777289 -0.628927
vn -0.957250 0.069536 0.280780
vn -0.984427 0.070168 0.161183
vn -0.972132 0.073832 0.222505
vn -0.994608 0.068359 -0.077990
vn -0.637645 0.765014 -0.090345
vn -0.683476 0.726127 0.074835
vn -0.683476 0.726127 0.074835
vn -0.708189 0.664805 0.237704
vn -0.913283 0.339232 0.225468
vn -0.752737 0.547083 0.366180
vn -0.798103 0.510256 0.320422
vn -0.735065 0.560353 0.381687
vn -0.779690 0.515166 0.355931
vn -0.875995 0.407031 0.258766
vn -0.921128 0.107224 0.374201
vn -0.921128 0.107224 0.374201
vn -0.921128 0.107224 0.374201
vn 0.006586 0.981929 -0.189134
vn 0.005266 0.990913 -0.134401
vn 0.005266 0.990913 -0.134401
vn 0.003930 0.996847 -0.079254
vn -0.000098 0.852663 0.522462
vn 0.000221 0.833579 0.552400
vn 0.000013 0.852494 0.522738
vn 0.002728 0.825594 0.564258
vn 0.003886 0.819300 0.573352
vn 0.007419 0.814294 0.580405
vn 0.018000 -0.353611 0.935219
vn 0.013371 -0.423432 0.905829
vn 0.013371 -0.423432 0.905829
vn 0.008666 -0.490814 0.871221
vn -0.997152 0.062405 0.042348
vn -0.645842 0.667717 0.370192
vn -0.800959 0.508350 0.316298
vn -0.000164 0.866151 0.499783
vn -0.000129 0.866209 0.499682
vn -0.016254 -0.719651 0.694146
vn 0.002782 -0.614603 0.788832
vn -0.005317 -0.589709 0.807598
vn 0.012364 -0.556870 0.830508
vn 0.018730 -0.661780 0.749464
vn 0.017651 -0.854502 0.519148
vn 0.002928 -0.766971 0.641675
vn -0.004189 -0.749539 0.661947
vn -0.015067 -0.688072 0.725486
vn -0.018252 -0.713384 0.700535
vn 0.664298 0.584455 0.465962
vn 0.664298 0.584455 0.465962
vn 0.664298 0.584455 0.465962
vn -0.762899 0.646484 0.006598
vn -0.918439 0.395517 -0.005979
vn -0.885231 0.465107 -0.006484
vn -0.912343 0.409347 -0.008076
vn -0.876345 0.481680 -0.002234
vn -0.732046 0.681255 0.000557
vn -0.581997 0.621886 -0.523964
vn -0.624751 0.610245 -0.487121
vn -0.624751 0.610245 -0.487121
vn -0.665431 0.596578 -0.448661
vn -0.976471 0.215627 -0.003011
vn -0.804285 0.593417 0.031339
vn -0.804285 0.593417 0.031339
vn -0.492511 0.868218 0.060249
vn -0.956404 -0.291942 -0.007786
vn -0.991635 -0.128953 -0.005556
vn -0.965259 -0.261270 -0.003468
vn -0.997590 0.069381 -0.000781
vn -0.999941 -0.009152 -0.005777
vn -0.999971 -0.001778 -0.007436
vn -0.736521 0.676398 -0.004756
vn -0.651906 0.758273 -0.006382
vn -0.651906 0.758273 -0.006382
vn -0.558251 0.829635 -0.007919
vn 0.000400 1.000000 0.000139
vn -0.365398 -0.069920 0.928222
vn -0.327685 -0.048847 0.943523
vn -0.362605 -0.141892 0.921078
vn -0.244580 0.090473 0.965399
vn -0.262846 0.097069 0.959943
vn -0.213695 0.194866 0.957268
vn -0.190812 0.203019 0.960403
vn 0.308884 0.622834 0.718797
vn 0.321102 0.586666 0.743449
vn 0.321102 0.586666 0.743449
vn 0.332658 0.549286 0.766566
vn 0.864618 0.502415 -0.003790
vn 0.771842 0.635750 0.009104
vn 0.735633 0.677324 0.008679
vn 0.641498 0.767002 0.013747
vn 0.661667 0.749789 0.003564
vn 0.624165 0.781242 0.008880
vn 0.176775 0.503942 -0.845454
vn 0.412281 0.529726 -0.741225
vn 0.412281 0.529726 -0.741225
vn 0.620168 0.520022 -0.587340
vn 0.000980 0.999997 -0.002360
vn 0.002748 0.999981 -0.005452
vn 0.004122 0.999958 -0.008182
vn 0.008222 0.999895 -0.011897
vn 0.003178 0.999995 -0.000857
vn 0.011210 0.656126 0.754568
vn 0.014099 0.558839 0.829156
vn 0.014099 0.558839 0.829156
vn 0.016776 0.453150 0.891277
vn -0.769173 0.107487 0.629936
vn -0.781264 0.113787 0.613742
vn -0.014960 -0.008928 0.999848
vn -0.014009 -0.004562 0.999892
vn -0.014009 -0.004562 0.999892
vn -0.013057 -0.000196 0.999915
vn 0.850358 -0.020049 0.525822
vn 0.834448 -0.017766 0.550800
vn 0.834448 -0.017766 0.550800
vn 0.817802 -0.015468 0.575292
vn -0.981581 0.188356 -0.031941
vn -0.866621 0.498315 -0.025504
vn -0.866621 0.498315 -0.025504
vn -0.656912 0.753792 -0.016278
vn -0.332587 0.422458 0.843158
vn -0.332587 0.422458 0.843158
vn -0.332587 0.422458 0.843158
vn 0.674057 0.738673 0.003047
vn 0.686028 0.727570 0.002829
vn 0.686028 0.727570 0.002829
vn 0.697816 0.716272 0.002610
vn -0.006420 0.934629 -0.355567
vn -0.005145 0.928116 -0.372255
vn -0.005145 0.928116 -0.372255
vn -0.003867 0.921305 -0.388822
vn 0.006375 0.885205 0.465158
vn -0.010482 0.996626 0.081403
vn -0.009393 0.986858 0.161320
vn -0.021977 0.998710 -0.045768
vn 0.686770 0.726874 -0.001317
vn 0.378849 0.925449 0.004184
vn 0.378849 0.925449 0.004184
vn 0.020057 0.999757 0.009124
vn 0.415617 0.909457 0.012274
vn -0.314204 0.949335 0.006187
vn -0.314204 0.949335 0.006187
vn -0.876157 0.482016 -0.003206
vn -0.015310 0.912957 0.407769
vn -0.007827 0.977996 0.208479
vn -0.003394 0.994582 0.103903
vn 0.001201 0.999999 -0.000598
vn 0.019760 0.999754 -0.010041
vn 0.308403 0.951236 -0.006160
vn 0.308403 0.951236 -0.006160
vn 0.570621 0.821212 -0.001752
vn -0.678328 0.734748 -0.004175
vn -0.589079 0.808060 -0.005045
vn -0.589079 0.808060 -0.005045
vn -0.491971 0.870592 -0.005848
vn 0.002851 0.999980 -0.005677
vn -0.004549 0.999967 -0.006768
vn 0.004505 0.885013 0.465545
vn 0.000227 0.849409 0.527735
vn 0.000227 0.849409 0.527735
vn -0.004053 0.809428 0.587206
vn 0.841317 0.540515 0.005344
vn 0.754317 0.656470 0.007311
vn 0.754317 0.656470 0.007311
vn 0.651462 0.758626 0.009124
vn -0.747539 0.664208 -0.003713
vn -0.554853 0.831925 -0.006239
vn -0.554853 0.831925 -0.006239
vn -0.325956 0.945348 -0.008357
vn -0.012173 0.774057 0.632999
vn -0.005286 0.912022 0.410108
vn -0.005286 0.912022 0.410108
vn 0.001963 0.987274 0.159017
vn 0.331280 0.943525 -0.003708
vn 0.408056 0.912956 -0.001547
vn 0.408056 0.912956 -0.001547
vn 0.482044 0.876147 0.000625
vn -0.862728 0.505657 -0.003479
vn -0.704591 0.709593 -0.005433
vn -0.704591 0.709593 -0.005433
vn -0.499528 0.866269 -0.007026
vn -0.018434 0.832880 0.553146
vn -0.015269 0.743275 0.668812
vn -0.015269 0.743275 0.668812
vn -0.011776 0.637751 0.770153
vn 0.632281 0.774661 -0.011041
vn 0.644965 0.764129 -0.011260
vn 0.644965 0.764129 -0.011260
vn 0.657474 0.753390 -0.011475
vn -0.825551 0.564199 -0.012043
vn -0.537569 0.843180 -0.008226
vn -0.537569 0.843180 -0.008226
vn -0.163157 0.986595 -0.003087
vn 0.001871 0.999998 0.000003
vn 0.001874 0.999998 -0.000011
vn 0.001892 0.999998 0.000008
vn -0.000279 0.999995 0.003098
vn -0.001112 0.999996 0.002680
vn -0.000276 0.999995 0.003098
vn -0.000209 0.999996 0.002825
vn 0.024690 0.999570 0.015844
vn 0.005343 0.936404 0.350884
vn 0.005343 0.936404 0.350884
vn -0.014628 0.764038 0.645005
vn 0.000571 1.000000 0.000670
vn 0.000908 0.999998 0.001809
vn -0.000559 0.999999 0.001629
vn -0.000005 0.999997 0.002281
vn -0.437169 0.899153 -0.020176
vn -0.437169 0.899153 -0.020176
vn -0.786119 0.616872 -0.038561
vn 0.746013 0.665785 0.013990
vn 0.697267 0.716706 0.012291
vn 0.697267 0.716706 0.012291
vn 0.645055 0.764064 0.010531
vn 0.007468 0.808027 -0.589098
vn 0.006829 0.792741 -0.609521
vn 0.006829 0.792741 -0.609521
vn 0.006185 0.776939 -0.629546
vn 0.026289 0.887067 0.460892
vn 0.014428 0.954610 0.297509
vn 0.014428 0.954610 0.297509
vn 0.002113 0.992182 0.124786
vn -0.005533 0.999932 -0.010252
vn 0.009650 0.999946 -0.003952
vn -0.015128 0.999866 -0.006256
vn -0.007076 0.999950 0.007051
vn -0.009265 0.999939 0.006077
vn 0.002235 0.999997 0.001023
vn 0.003888 0.999992 0.000113
vn 0.002845 0.999996 -0.000396
vn 0.004712 0.999988 -0.001291
vn -0.003814 0.999991 0.001754
vn -0.006350 0.999972 0.004091
vn -0.002473 0.999994 0.002384
vn 0.001404 0.999999 0.000677
vn -0.001132 0.999995 0.003014
vn -0.000527 0.999999 0.001024
vn -0.001339 0.999999 0.000644
vn -0.001862 0.999997 0.001643
vn 0.000809 1.000000 0.000405
vn 0.000286 0.999999 0.001405
vn -0.004616 0.999987 -0.002158
vn 0.000001 1.000000 0.000010
vn -0.004619 0.999987 -0.002158
vn -0.004614 0.999987 -0.002159
vn -0.009234 0.999948 -0.004327
vn -0.002151 0.999997 0.000714
vn -0.005935 0.822706 -0.568436
vn -0.001972 0.867179 -0.497993
vn -0.001972 0.867179 -0.497993
vn 0.002006 0.905619 -0.424087
vn -0.004536 0.785243 0.619171
vn 0.000127 0.849738 0.527206
vn 0.000127 0.849738 0.527206
vn 0.004789 0.903493 0.428577
vn 0.774077 0.632973 -0.012290
vn 0.762861 0.646453 -0.011897
vn 0.762861 0.646453 -0.011897
vn 0.751412 0.659734 -0.011500
vn 0.001915 0.999998 0.000024
vn 0.013121 0.972245 -0.233598
vn 0.013121 0.972245 -0.233598
vn 0.023599 0.890556 -0.454262
vn 0.001928 0.999998 0.000008
vn 0.001946 0.999998 0.000008
vn -0.855370 0.517866 0.012579
vn -0.490101 0.871636 0.007229
vn -0.490101 0.871636 0.007229
vn 0.001910 0.999998 0.000009
vn 0.027865 0.595315 0.803009
vn 0.023038 0.653001 0.757007
vn 0.023038 0.653001 0.757007
vn 0.018084 0.707116 0.706866
vn 0.433234 0.901281 0.000021
vn 0.345330 0.938481 -0.000098
vn 0.345330 0.938481 -0.000098
vn 0.254280 0.967131 -0.000216
vn 0.001096 0.988630 -0.150366
vn -0.002597 0.994577 -0.103969
vn -0.394379 0.918945 0.002074
vn -0.428707 0.903441 0.002052
vn -0.428707 0.903441 0.002052
vn -0.462426 0.886655 0.002027
vn 0.072638 0.794747 0.602578
vn 0.072638 0.794747 0.602578
vn 0.072638 0.794747 0.602578
vn 0.023870 0.812530 -0.582431
vn 0.002160 0.811319 -0.584599
vn -0.002733 0.728301 -0.685252
vn 0.028391 0.361102 0.932094
vn 0.018301 0.575348 0.817704
vn 0.018301 0.575348 0.817704
vn 0.007130 0.755598 0.654997
vn -0.528370 0.498843 0.687009
vn -0.528370 0.498843 0.687009
vn -0.528370 0.498843 0.687009
vn 0.750981 0.382649 -0.538151
vn 0.750981 0.382649 -0.538151
vn 0.750981 0.382649 -0.538151
vn 0.005805 0.999982 0.001781
vn 0.006842 0.999966 -0.004720
vn 0.416043 -0.431029 -0.800701
vn 0.416043 -0.431029 -0.800701
vn 0.416043 -0.431029 -0.800701
vn 0.229138 0.535308 -0.812983
vn 0.229138 0.535308 -0.812983
vn 0.229138 0.535308 -0.812983
vn -0.073453 0.997283 0.005585
vn -0.073453 0.997283 0.005585
vn -0.073453 0.997283 0.005585
vn 0.760982 0.648720 -0.008228
vn 0.687726 0.725970 -0.000536
vn 0.000790 1.000000 0.000025
vn 0.000600 1.000000 0.000200
vn 0.999204 -0.016940 0.036106
vn 0.999204 -0.016940 0.036106
vn 0.999204 -0.016940 0.036106
vn 0.351022 -0.936335 -0.007817
vn 0.351022 -0.936335 -0.007817
vn 0.351022 -0.936335 -0.007817
vn 0.004766 0.999988 -0.001289
vn 0.006616 0.999978 0.000041
vn 0.413054 0.910703 0.002765
vn 0.428545 0.903513 0.003671
vn -0.743201 0.058599 0.666497
vn -0.709369 0.065879 0.701752
vn -0.709369 0.065879 0.701752
vn -0.673805 0.072999 0.735294
vn -0.899131 0.437638 -0.006032
vn -0.864095 0.503322 -0.002555
vn -0.864095 0.503322 -0.002555
vn -0.824260 0.566211 0.000935
vn 0.758182 0.022650 0.651650
vn 0.748626 0.023438 0.662578
vn 0.748626 0.023438 0.662578
vn 0.738912 0.024221 0.673367
vn 0.541306 0.840798 0.006864
vn 0.780765 0.624822 -0.001778
vn 0.751109 0.660177 -0.001070
vn 0.934401 0.355927 0.014541
vn 1.000000 0.000388 -0.000044
vn 1.000000 0.000356 -0.000031
vn 1.000000 0.000356 -0.000031
vn 1.000000 0.000325 -0.000017
vn 0.809433 0.518915 -0.274858
vn 0.809433 0.518915 -0.274858
vn 0.809433 0.518915 -0.274858
vn -0.018796 0.999290 -0.032646
vn -0.010931 0.999733 -0.020343
vn -0.035502 0.999370 -0.000206
vn -0.003068 0.999963 -0.008044
vn 0.000004 1.000000 -0.000012
vn -0.011009 0.077610 0.996923
vn -0.001609 0.037261 0.999304
vn -0.001609 0.037261 0.999304
vn 0.007793 -0.003153 0.999965
vn -0.004104 0.999168 -0.040571
vn 0.827522 0.561359 -0.009177
vn 0.587807 0.808797 -0.018176
vn 0.643121 0.765582 -0.016734
vn 0.441871 0.896812 -0.021874
vn 0.473201 0.880711 -0.020699
vn 0.890653 0.454060 0.023812
vn 0.569369 0.821755 -0.023187
vn 0.607599 0.794106 -0.014779
vn -0.774154 0.222415 0.592636
vn -0.769727 0.230828 0.595180
vn 0.815304 0.496407 0.298093
vn 0.870120 0.421419 0.255532
vn -0.999992 0.003358 -0.002110
vn -0.784447 0.620172 0.005529
vn -0.718878 0.695121 0.004587
vn -0.726974 0.686658 0.003125
vn -0.644266 0.764734 0.010165
vn 0.895357 0.012976 -0.445160
vn 0.963223 0.080485 -0.256367
vn 0.983795 0.103314 -0.146540
vn 0.989462 0.144520 0.008842
vn 0.772800 0.554442 0.308827
vn 0.826422 0.483962 0.287763
vn 0.986821 0.144042 0.073734
vn -0.015298 0.450960 0.892413
vn -0.016519 0.399880 0.916419
vn -0.016519 0.399880 0.916419
vn -0.017686 0.347526 0.937504
vn 0.000929 0.999874 0.015853
vn 0.004078 0.999956 0.008438
vn 0.008029 0.999937 -0.007859
vn 0.004452 0.999532 -0.030267
vn 0.022270 0.999664 0.013230
vn 0.011980 0.999636 -0.024166
vn 0.881534 0.211006 0.422344
vn 0.881534 0.211006 0.422344
vn 0.881534 0.211006 0.422344
vn 0.795105 0.606468 -0.001978
vn 0.860233 0.509898 0.001808
vn 0.860233 0.509898 0.001808
vn 0.913677 0.406403 0.005568
vn -0.845886 0.239198 -0.476719
vn -0.812174 0.559206 -0.166319
vn -0.815661 0.517307 -0.259020
f 110/112/1 111/113/2 18/20/3
f 18/20/3 111/113/2 100/102/4
f 80/82/5 81/83/6 3/3/7
f 3/3/7 81/83/6 67/69/8
f 155/171/9 156/172/10 146/162/11
f 146/162/11 156/172/10 145/161/12
f 159/2/13 232/5/14 5/271/15
f 5/271/15 232/5/14 233/170/16
f 158/274/17 159/2/13 2/278/18
f 2/278/18 159/2/13 5/271/15
f 59/61/19 60/62/20 56/58/21
f 56/58/21 60/62/20 57/59/22
f 98/100/23 19/21/24 97/99/25
f 97/99/25 19/21/24 79/81/26
f 93/95/27 151/167/28 9/10/29
f 9/10/29 151/167/28 152/168/30
f 32/34/31 181/197/32 17/19/33
f 17/19/33 181/197/32 182/198/34
f 72/74/35 83/85/36 40/42/37
f 77/79/38 39/41/39 76/78/40
f 76/78/40 39/41/39 74/76/41
f 33/35/42 185/201/43 21/23/44
f 21/23/44 185/201/43 186/202/45
f 22/24/46 94/96/47 148/164/48
f 148/164/48 94/96/47 147/163/49
f 144/160/50 149/165/51 23/25/52
f 23/25/52 149/165/51 157/173/53
f 214/230/54 170/186/55 213/229/56
f 200/216/57 197/213/58 217/233/59
f 217/233/59 197/213/58 25/27/60
f 51/56/61 55/239/62 12/241/63
f 12/241/63 55/239/62 75/240/64
f 50/52/65 51/53/66 11/12/67
f 11/12/67 51/53/66 12/13/68
f 164/180/69 218/234/70 167/183/71
f 216/232/72 193/209/73 30/32/74
f 16/250/75 34/251/76 61/249/77
f 61/249/77 34/251/76 58/248/78
f 34/251/76 31/60/79 58/248/78
f 31/60/79 26/63/80 58/248/78
f 56/58/81 57/59/82 28/30/83
f 28/30/83 57/59/82 27/29/84
f 177/193/85 178/194/86 29/31/87
f 29/31/87 178/194/86 32/34/88
f 209/225/89 174/190/90 208/224/91
f 36/38/92 201/217/93 37/39/94
f 37/39/94 201/217/93 202/218/95
f 69/71/96 39/41/97 78/80/98
f 78/80/98 39/41/97 77/79/99
f 40/42/100 109/111/101 71/73/102
f 89/264/103 90/265/104 43/263/105
f 43/263/105 90/265/104 45/266/106
f 44/267/107 43/263/105 45/266/106
f 125/136/108 91/93/109 124/135/110
f 124/135/110 91/93/109 46/48/111
f 46/257/112 161/258/113 41/259/114
f 31/33/115 191/207/116 30/32/117
f 30/32/117 191/207/116 192/208/118
f 122/133/119 129/142/120 49/51/121
f 49/51/121 129/142/120 130/143/122
f 52/54/123 53/55/124 47/49/125
f 53/55/124 51/53/126 47/49/125
f 51/53/126 50/52/127 47/49/125
f 54/243/128 55/239/62 53/242/129
f 53/242/129 55/239/62 51/56/61
f 52/54/130 28/30/131 53/55/132
f 53/55/132 28/30/131 27/29/133
f 26/245/134 54/243/135 27/244/136
f 27/244/136 54/243/135 53/242/137
f 15/247/138 55/239/139 37/246/140
f 55/239/139 54/243/141 37/246/140
f 37/246/140 54/243/141 26/245/142
f 57/252/143 58/248/144 27/253/145
f 27/253/145 58/248/144 26/63/146
f 57/252/147 60/254/148 58/248/149
f 58/248/149 60/254/148 61/249/150
f 60/62/151 59/61/152 8/9/153
f 8/9/153 59/61/152 7/8/154
f 95/256/155 61/249/156 8/255/157
f 8/255/157 61/249/156 60/254/158
f 66/68/159 62/64/160 11/12/161
f 73/75/162 74/76/163 64/66/164
f 64/66/164 74/76/163 39/41/165
f 64/66/166 39/41/97 70/72/167
f 70/72/167 39/41/97 69/71/96
f 63/65/168 66/68/169 12/13/170
f 12/13/170 66/68/169 11/12/171
f 81/83/172 82/84/173 67/69/174
f 67/69/174 82/84/173 6/6/175
f 68/70/176 11/12/161 62/64/160
f 79/81/26 19/21/24 78/80/177
f 78/80/177 19/21/24 69/71/178
f 65/67/179 70/72/180 19/21/181
f 19/21/181 70/72/180 69/71/182
f 109/111/101 110/112/1 71/73/102
f 71/73/102 110/112/1 18/20/3
f 82/84/173 83/85/183 6/6/175
f 6/6/175 83/85/183 72/74/184
f 74/76/185 73/75/186 12/13/170
f 12/13/170 73/75/186 63/65/168
f 74/76/187 12/13/188 76/78/189
f 76/78/189 12/13/188 75/77/190
f 75/77/191 55/57/192 15/17/193
f 15/17/194 38/40/195 75/77/196
f 75/77/196 38/40/195 76/78/197
f 38/40/198 78/80/98 77/79/99
f 38/40/199 77/79/38 76/78/40
f 38/40/200 20/22/201 78/80/202
f 78/80/202 20/22/201 79/81/203
f 81/83/6 80/82/5 66/68/204
f 66/68/204 80/82/5 62/64/205
f 82/84/206 81/83/207 63/65/208
f 63/65/208 81/83/207 66/68/209
f 83/85/210 82/84/206 73/75/211
f 73/75/211 82/84/206 63/65/208
f 40/42/212 83/85/213 64/66/214
f 64/66/214 83/85/213 73/75/215
f 79/81/203 20/22/201 97/99/216
f 97/99/216 20/22/201 96/98/217
f 99/101/218 65/67/219 98/100/220
f 98/100/220 65/67/219 19/21/221
f 135/150/222 24/26/223 89/91/224
f 88/90/225 84/86/226 14/16/227
f 90/92/104 89/91/103 24/26/228
f 91/93/229 125/136/230 29/31/231
f 92/94/232 91/93/233 29/31/234
f 136/151/235 92/94/236 29/31/237
f 151/167/238 93/95/239 21/23/240
f 21/23/240 93/95/239 17/19/241
f 147/163/242 94/96/243 21/23/244
f 61/249/245 95/256/246 16/250/247
f 84/86/248 104/106/249 14/16/250
f 14/16/250 104/106/249 96/98/251
f 1/1/252 101/103/253 114/116/254
f 114/116/254 101/103/253 112/114/255
f 105/107/256 112/114/255 101/103/253
f 103/105/257 102/104/258 107/109/259
f 107/109/259 102/104/258 106/108/260
f 104/106/261 103/105/262 108/110/263
f 108/110/263 103/105/262 107/109/264
f 96/98/265 104/106/261 108/110/263
f 100/102/266 111/113/267 105/107/268
f 107/109/269 106/108/270 98/100/271
f 98/100/271 106/108/270 99/101/272
f 107/109/273 98/100/23 108/110/274
f 108/110/274 98/100/23 97/99/25
f 96/98/275 108/110/276 97/99/277
f 40/42/278 64/66/279 109/111/280
f 109/111/280 64/66/279 70/72/281
f 110/112/282 109/111/283 65/67/284
f 65/67/284 109/111/283 70/72/285
f 65/67/284 99/101/286 110/112/282
f 110/112/282 99/101/286 111/113/287
f 111/113/267 99/101/288 105/107/268
f 105/107/268 99/101/288 106/108/289
f 105/107/290 106/108/291 112/114/292
f 112/114/292 106/108/291 102/104/293
f 114/116/294 112/114/295 113/115/296
f 113/115/296 112/114/295 102/104/297
f 1/1/298 114/116/299 87/89/300
f 87/89/300 114/116/299 113/115/301
f 126/138/302 127/139/303 117/126/304
f 117/126/304 127/139/303 48/128/305
f 118/129/306 48/50/307 128/141/308
f 128/141/308 48/50/307 127/140/309
f 44/46/310 45/47/311 119/130/312
f 119/130/312 45/47/311 120/131/313
f 45/47/311 90/92/314 120/131/313
f 120/131/313 90/92/314 121/132/315
f 24/26/316 121/132/317 90/92/318
f 122/133/319 118/129/320 129/142/321
f 129/142/321 118/129/320 128/141/322
f 119/130/323 120/131/324 123/134/325
f 123/134/325 120/131/324 124/135/326
f 120/131/324 121/132/327 124/135/326
f 124/135/326 121/132/327 125/136/328
f 125/136/329 121/132/330 29/31/331
f 29/31/331 121/132/330 24/26/332
f 126/138/302 44/127/333 127/139/303
f 128/141/334 127/140/335 119/130/312
f 119/130/312 127/140/335 44/46/310
f 129/142/336 128/141/337 123/134/325
f 123/134/325 128/141/337 119/130/323
f 14/16/338 35/37/339 88/90/340
f 88/90/340 35/37/339 135/150/341
f 35/37/339 24/26/342 135/150/341
f 17/19/343 139/155/344 32/34/345
f 139/155/344 136/151/346 32/34/345
f 136/151/346 29/31/347 32/34/345
f 93/95/348 139/155/349 17/19/350
f 10/11/351 9/10/352 142/158/353
f 142/158/353 9/10/352 143/159/354
f 9/10/352 152/168/355 143/159/354
f 143/159/354 152/168/355 153/169/356
f 144/160/357 22/24/358 149/165/359
f 149/165/359 22/24/358 148/164/360
f 146/162/361 145/161/362 7/8/363
f 7/8/363 145/161/362 8/9/364
f 95/97/365 147/163/366 16/18/367
f 16/18/367 147/163/366 21/23/368
f 148/164/369 147/163/366 8/9/370
f 8/9/370 147/163/366 95/97/365
f 149/165/371 148/164/372 145/161/373
f 145/161/373 148/164/372 8/9/374
f 230/273/375 145/161/12 156/172/10
f 94/96/376 151/167/377 21/23/378
f 152/168/379 151/167/377 22/24/380
f 22/24/380 151/167/377 94/96/376
f 152/168/379 22/24/380 153/169/381
f 153/169/381 22/24/380 144/160/382
f 160/280/383 23/281/384 154/279/385
f 154/279/385 23/281/384 231/282/386
f 155/171/387 4/4/388 156/172/389
f 156/172/389 4/4/388 229/7/390
f 228/272/391 230/273/392 229/7/390
f 229/7/390 230/273/392 156/172/389
f 23/281/393 157/283/394 231/282/395
f 231/282/395 157/283/394 150/284/396
f 143/159/397 159/175/398 142/158/399
f 142/158/399 159/175/398 158/174/400
f 143/159/397 232/285/401 159/175/398
f 23/25/402 160/176/403 144/160/404
f 144/160/404 160/176/403 153/169/405
f 91/261/233 92/262/232 46/257/112
f 46/257/112 92/262/232 161/258/113
f 161/177/406 92/94/236 162/178/407
f 162/178/407 92/94/236 136/151/235
f 163/179/408 162/178/409 139/155/410
f 139/155/410 162/178/409 136/151/411
f 163/179/412 139/155/413 9/10/414
f 9/10/414 139/155/413 93/95/415
f 164/180/416 167/183/417 25/27/418
f 25/27/418 167/183/417 24/26/419
f 216/232/420 30/32/421 165/181/422
f 165/181/423 30/32/424 166/182/425
f 166/182/425 30/32/424 29/31/426
f 167/183/427 166/182/428 24/26/429
f 24/26/429 166/182/428 29/31/430
f 21/23/431 183/199/432 33/35/433
f 33/35/433 183/199/432 184/200/434
f 183/199/435 21/23/436 182/198/437
f 182/198/437 21/23/436 17/19/438
f 184/200/439 181/197/440 33/35/441
f 33/35/441 181/197/440 32/34/442
f 34/36/443 16/18/444 188/204/445
f 188/204/445 16/18/444 187/203/446
f 16/18/447 21/23/448 187/203/449
f 187/203/449 21/23/448 186/202/450
f 34/36/451 188/204/452 33/35/453
f 33/35/453 188/204/452 185/201/454
f 211/227/455 212/228/456 170/186/55
f 170/186/55 212/228/456 213/229/56
f 214/230/54 211/227/455 170/186/55
f 37/39/457 26/28/458 199/215/459
f 199/215/459 26/28/458 198/214/460
f 198/214/461 26/28/462 197/213/463
f 197/213/463 26/28/462 25/27/464
f 37/39/465 199/215/466 36/38/467
f 36/38/467 199/215/466 200/216/468
f 26/28/469 31/33/470 195/211/471
f 195/211/471 31/33/470 194/210/472
f 31/33/473 30/32/474 194/210/475
f 194/210/475 30/32/474 193/209/476
f 26/28/477 195/211/478 25/27/479
f 25/27/479 195/211/478 196/212/480
f 33/35/481 179/195/482 30/32/483
f 30/32/483 179/195/482 180/196/484
f 179/195/485 33/35/486 178/194/487
f 178/194/487 33/35/486 32/34/488
f 180/196/489 177/193/490 30/32/491
f 30/32/491 177/193/490 29/31/492
f 206/222/493 207/223/494 174/190/90
f 174/190/90 207/223/494 208/224/91
f 210/226/495 174/190/90 209/225/89
f 210/226/495 206/222/493 174/190/90
f 15/17/496 203/219/497 38/40/498
f 38/40/498 203/219/497 204/220/499
f 15/17/500 37/39/501 203/219/502
f 203/219/502 37/39/501 202/218/503
f 201/217/504 205/221/505 175/191/506
f 204/220/507 205/221/508 38/40/509
f 38/40/509 205/221/508 20/22/510
f 34/36/511 33/35/512 190/206/513
f 190/206/513 33/35/512 189/205/514
f 189/205/515 33/35/516 192/208/517
f 192/208/517 33/35/516 30/32/518
f 34/36/519 190/206/520 31/33/521
f 31/33/521 190/206/520 191/207/522
f 177/193/85 173/189/523 178/194/86
f 173/189/523 179/195/524 178/194/86
f 180/196/525 179/195/524 173/189/523
f 177/193/85 180/196/525 173/189/523
f 181/197/526 168/184/527 182/198/528
f 168/184/527 183/199/432 182/198/528
f 184/200/434 183/199/432 168/184/527
f 181/197/526 184/200/434 168/184/527
f 185/201/529 169/185/530 186/202/531
f 169/185/530 187/203/446 186/202/531
f 188/204/445 187/203/446 169/185/530
f 185/201/529 188/204/445 169/185/530
f 190/206/532 189/205/533 176/192/534
f 191/207/535 190/206/532 176/192/534
f 192/208/536 191/207/535 176/192/534
f 176/192/534 189/205/533 192/208/536
f 172/188/537 194/210/538 193/209/539
f 195/211/540 194/210/538 172/188/537
f 196/212/541 195/211/540 172/188/537
f 193/209/539 196/212/541 172/188/537
f 171/187/542 198/214/543 197/213/544
f 199/215/545 198/214/543 171/187/542
f 200/216/546 199/215/545 171/187/542
f 197/213/544 200/216/546 171/187/542
f 201/217/504 175/191/506 202/218/547
f 175/191/506 203/219/497 202/218/547
f 204/220/499 203/219/497 175/191/506
f 205/221/505 204/220/499 175/191/506
f 20/22/548 205/221/549 36/38/550
f 36/38/550 205/221/549 201/217/551
f 20/22/552 36/38/553 206/222/554
f 206/222/554 36/38/553 207/223/555
f 207/223/556 36/38/557 208/224/558
f 208/224/558 36/38/557 35/37/559
f 209/225/560 208/224/561 14/16/562
f 14/16/562 208/224/561 35/37/563
f 210/226/495 209/225/89 96/98/564
f 96/98/564 209/225/89 14/16/565
f 20/22/566 206/222/567 96/98/568
f 96/98/568 206/222/567 210/226/569
f 25/27/570 212/228/571 217/233/572
f 217/233/572 212/228/571 211/227/573
f 212/228/574 25/27/575 213/229/576
f 213/229/576 25/27/575 24/26/577
f 214/230/54 213/229/56 35/37/578
f 35/37/578 213/229/56 24/26/579
f 211/227/580 214/230/581 36/38/582
f 36/38/582 214/230/581 35/37/583
f 25/27/584 215/231/585 164/180/586
f 25/27/587 196/212/588 215/231/589
f 216/232/590 165/181/591 215/231/592
f 215/231/592 165/181/591 164/180/593
f 196/212/588 193/209/73 215/231/589
f 215/231/589 193/209/73 216/232/72
f 36/38/594 217/233/595 211/227/596
f 36/38/597 200/216/598 217/233/599
f 165/181/600 166/182/601 218/234/70
f 218/234/70 166/182/601 167/183/71
f 165/181/600 218/234/70 164/180/69
f 142/236/602 222/237/603 10/235/604
f 223/238/605 10/235/606 222/237/607
f 224/268/608 101/269/609 1/270/610
f 150/166/611 157/173/612 228/272/391
f 228/272/391 157/173/612 230/273/392
f 157/173/613 149/165/614 230/273/375
f 230/273/375 149/165/614 145/161/12
f 227/275/615 226/276/616 228/277/617
f 233/170/618 225/286/619 5/271/620
f 143/159/397 153/169/621 232/285/401
f 232/285/401 153/169/621 160/176/622
f 232/5/14 160/280/623 233/170/16
f 233/170/16 160/280/623 154/279/624
f 84/86/625 88/90/626 13/14/627
f 13/14/627 88/90/626 85/87/628
f 221/15/629 13/14/630 86/88/631
f 86/88/631 13/14/630 85/87/632
f 134/149/633 135/150/634 43/45/635
f 43/45/635 135/150/634 89/91/636
f 134/149/637 43/45/638 133/148/639
f 133/148/639 43/45/638 44/119/640
f 13/14/641 103/105/642 84/86/643
f 84/86/643 103/105/642 104/106/644
f 113/115/645 221/15/646 87/89/647
f 116/120/648 133/148/649 132/147/650
f 133/148/649 85/87/651 134/149/652
f 85/87/653 88/90/654 134/149/655
f 134/149/655 88/90/654 135/150/656
f 133/148/649 86/88/657 85/87/651
f 113/115/658 102/104/659 221/15/660
f 221/15/660 102/104/659 13/14/661
f 102/104/659 103/105/662 13/14/661
f 132/147/663 133/148/639 117/121/664
f 117/121/664 133/148/639 126/137/665
f 133/148/639 44/119/640 126/137/665
f 86/88/657 133/148/649 116/120/648
f 161/177/406 162/178/407 41/43/666
f 41/43/666 162/178/407 137/152/667
f 124/135/110 46/48/111 123/134/668
f 123/134/668 46/48/111 115/122/669
f 115/260/670 46/257/112 41/259/114
f 115/117/671 41/43/672 138/153/673
f 138/153/673 41/43/672 137/152/674
f 42/124/675 49/125/676 131/145/677
f 131/145/677 49/125/676 130/144/678
f 129/142/679 123/134/668 130/143/680
f 130/143/680 123/134/668 115/122/669
f 115/123/681 131/145/677 130/144/678
f 140/156/682 137/152/683 163/179/684
f 163/179/684 137/152/683 162/178/685
f 137/152/686 140/156/687 138/153/688
f 138/153/688 140/156/687 141/157/689
f 220/154/690 138/153/688 219/118/691
f 140/156/692 163/179/693 9/10/694
f 141/157/695 140/156/696 10/11/697
f 10/11/697 140/156/696 9/10/698
f 42/44/699 131/146/700 220/154/701
f 220/154/701 131/146/700 138/153/673
f 131/146/700 115/117/671 138/153/673
f 138/153/688 141/157/689 219/118/691
