# This file uses centimeters as units for non-parametric coordinates.

v -9.011826 5.317185 -6.299362
v -8.799282 5.317532 -6.575947
v -9.011826 5.554156 -6.299362
v -8.799282 5.554503 -6.575947
v -8.254466 5.404100 -6.796194
v -8.254466 5.641071 -6.796194
v -7.613745 5.385678 -6.531437
v -7.593113 5.589002 -6.520135
v -6.132115 6.383757 -6.322189
v -6.272377 6.496215 -6.310887
v -6.173361 6.753907 -6.817765
v -6.334254 6.893330 -6.817765
v -5.436777 6.837222 -6.836133
v -5.407983 7.025718 -6.836133
v -3.608106 6.806486 -6.759691
v -3.579312 6.994982 -6.759691
v -3.265294 6.847680 -6.122408
v -3.236501 7.036176 -6.122408
v -5.044712 7.093669 -6.336115
v -5.155977 6.910300 -6.362103
v -3.622884 7.891993 -6.333735
v -3.729516 7.995515 -6.300297
v -3.166056 8.101500 -6.351564
v -3.293995 8.255095 -6.340644
v -2.522038 8.731882 -6.682882
v -2.649976 8.885478 -6.671962
v -1.670504 8.933413 -6.748288
v -1.687168 9.117787 -6.751677
v -0.487070 8.896572 -6.807118
v -0.486177 9.079234 -6.772105
v -9.116348 5.251860 -5.803141
v -9.116348 5.488831 -5.803141
v -9.127334 5.223545 -4.969896
v -9.127334 5.460515 -4.969896
v -9.128185 5.266304 -4.346135
v -9.128185 5.503275 -4.346135
v -9.090635 5.376958 -3.340244
v -9.090635 5.535737 -3.340244
v -8.875372 5.421615 -2.606865
v -8.870086 5.576955 -2.580524
v -8.708720 5.320584 -2.121751
v -8.703434 5.475924 -2.095410
v -8.104082 5.248053 -0.657764
v -8.123034 5.403393 -0.630914
v -7.267855 5.276353 0.739959
v -7.268062 5.434702 0.751622
v -6.138014 5.243234 2.181421
v -6.138221 5.401583 2.193084
v -4.520165 5.174656 3.462373
v -4.520372 5.333005 3.474035
v -3.664698 5.130338 4.065631
v -3.664905 5.288688 4.077293
v -1.600477 5.180579 4.899242
v -1.600684 5.338929 4.910904
v 8.817403 5.095006 -5.104470
v 8.741723 5.112463 -5.644026
v 8.741723 5.349433 -5.644026
v 8.817403 5.331977 -5.104470
v 8.407298 5.129320 -6.323538
v 8.407298 5.366291 -6.323538
v 7.859116 5.056204 -6.322598
v 7.832784 5.259528 -6.311296
v 5.613574 6.441195 -6.324374
v 5.792921 6.553653 -6.313072
v 5.569938 6.827831 -6.584602
v 5.775664 6.967254 -6.584602
v 4.820042 6.908204 -6.468710
v 4.783212 7.096700 -6.468710
v 3.643081 6.953354 -6.299502
v 3.606278 7.141850 -6.299502
v 3.277050 6.883325 -6.113611
v 3.240252 7.071821 -6.113611
v 4.766972 7.124629 -6.235704
v 4.909233 6.941259 -6.261692
v 3.070052 8.360939 -6.423311
v 3.206399 8.464461 -6.389873
v 2.415582 8.865970 -6.463699
v 2.579154 9.019567 -6.490429
v 1.867156 8.944634 -6.588940
v 2.030747 9.098230 -6.578021
v 1.160317 8.871737 -6.569252
v 1.181644 9.056112 -6.572641
v 8.834995 5.338267 -4.697584
v 8.834995 5.101296 -4.697584
v 8.896780 5.351680 -4.054259
v 8.896780 5.114709 -4.054259
v 8.894789 5.330739 -3.272913
v 8.894789 5.093768 -3.272913
v 8.895358 5.189328 -2.769737
v 8.895358 5.030550 -2.769737
v 8.853560 5.208691 -2.366752
v 8.829350 5.071532 -2.393601
v 8.673333 5.262922 -1.907077
v 8.649104 5.107582 -1.933927
v 8.134742 5.294156 -0.594643
v 8.110533 5.138816 -0.621493
v 7.044088 5.267111 1.106422
v 7.043790 5.108761 1.094759
v 5.592449 5.331182 2.737492
v 5.592177 5.172832 2.725829
v 4.000479 5.193498 3.823736
v 4.000219 5.035149 3.812073
v 2.182280 5.308007 4.698126
v 2.182012 5.149657 4.686463
v 0.083740 5.258829 5.161855
v 0.083773 5.417179 5.173517
v -3.587739 7.290051 -2.709852
v -3.680828 7.130156 -2.639162
v -2.118996 8.489905 -3.935257
v -2.333551 8.490837 -3.823606
v -2.732709 7.276664 -1.541962
v -2.825835 7.133170 -1.476857
v -1.292686 8.541298 -2.800824
v -1.433957 8.509134 -2.644808
v -5.992915 5.527000 -0.515697
v -6.101017 5.401810 -0.412971
v -4.391382 6.552375 -2.098287
v -4.515228 6.640335 -2.027927
v -5.094258 5.429282 0.538184
v -3.539365 6.625125 -0.784946
v -3.460454 6.551162 -0.884879
v -5.217311 5.286500 0.610917
v -0.592461 5.755424 2.779406
v -0.599628 5.618524 2.928124
v -0.585254 6.576356 0.650723
v -0.626499 6.691813 0.794854
v 0.646812 5.697634 2.870931
v 0.662129 6.529513 0.935400
v 0.643481 6.488795 0.750944
v 0.624823 5.526753 3.007512
v -0.601269 7.181194 -0.440504
v -0.599876 7.029780 -0.288817
v -0.610618 8.415659 -2.528927
v -0.656722 8.381021 -2.236511
v 0.671371 7.040925 -0.349065
v 0.753872 8.351825 -2.177561
v 0.726045 8.391473 -2.486457
v 0.647301 6.872744 -0.225755
v 3.178191 7.196293 -1.584434
v 3.281852 7.043206 -1.506232
v 1.614588 8.384791 -2.969759
v 1.844146 8.312827 -2.702735
v 4.066593 7.075044 -2.484332
v 2.645404 8.334428 -3.612184
v 2.277602 8.461026 -3.890954
v 4.156792 6.929955 -2.387472
v 5.510884 5.594771 0.385900
v 5.618336 5.431717 0.460015
v 3.838250 6.716409 -1.020806
v 4.086788 6.673157 -0.760896
v 6.415524 5.464366 -0.644468
v 4.959617 6.545821 -1.762512
v 4.547079 6.693126 -2.035416
v 6.482981 5.384933 -0.538796
v 7.410055 5.350506 -4.761531
v 7.541791 5.190996 -4.779190
v 5.395246 6.590719 -4.763171
v 5.422848 6.646501 -4.717231
v 4.862993 7.009471 -4.743637
v 4.966075 6.847241 -4.752864
v 2.828634 8.383591 -4.858327
v 3.182067 8.283444 -4.788954
v -4.906352 7.072073 -4.754921
v -3.188602 8.271326 -4.726109
v -2.656069 8.475502 -4.779479
v -5.038372 6.936636 -4.798434
v -7.176620 5.645948 -4.807428
v -5.770755 6.580545 -4.762290
v -5.266579 6.811189 -4.808248
v -7.677808 5.318662 -4.847936
vt 0.330000 0.000000
vt 0.663333 0.000000
vt 0.330000 0.250000
vt 0.663333 0.250000
vt 0.000000 0.000000
vt 1.000000 0.000000
vt 1.000000 1.000000
vt 0.000000 1.000000
vt 0.000000 0.000000
vt 1.000000 0.000000
vt 1.000000 1.000000
vt 0.000000 1.000000
vt 0.000000 0.000000
vt 1.000000 0.000000
vt 1.000000 1.000000
vt 0.000000 1.000000
vt 0.000000 0.000000
vt 1.000000 0.000000
vt 1.000000 1.000000
vt 0.000000 1.000000
vt 0.000000 0.000000
vt 1.000000 0.000000
vt 1.000000 1.000000
vt 0.000000 1.000000
vt 0.000000 0.000000
vt 1.000000 0.000000
vt 1.000000 1.000000
vt 0.000000 1.000000
vt 0.000000 0.000000
vt 1.000000 0.000000
vt 1.000000 1.000000
vt 0.000000 1.000000
vt 0.000000 0.000000
vt 1.000000 0.000000
vt 1.000000 1.000000
vt 0.000000 1.000000
vt 0.000000 0.000000
vt 1.000000 0.000000
vt 1.000000 1.000000
vt 0.000000 1.000000
vt 0.000000 0.000000
vt 1.000000 0.000000
vt 1.000000 1.000000
vt 0.000000 1.000000
vt 0.000000 0.000000
vt 1.000000 0.000000
vt 1.000000 1.000000
vt 0.000000 1.000000
vt 0.000000 0.000000
vt 1.000000 0.000000
vt 1.000000 1.000000
vt 0.000000 1.000000
vt 0.000000 0.000000
vt 1.000000 0.000000
vt 1.000000 1.000000
vt 0.000000 1.000000
vt 0.000000 0.000000
vt 1.000000 0.000000
vt 1.000000 1.000000
vt 0.000000 1.000000
vt 0.000000 0.000000
vt 1.000000 0.000000
vt 1.000000 1.000000
vt 0.000000 1.000000
vt 0.000000 0.000000
vt 1.000000 0.000000
vt 1.000000 1.000000
vt 0.000000 1.000000
vt 0.000000 0.000000
vt 1.000000 0.000000
vt 1.000000 1.000000
vt 0.000000 1.000000
vt 0.000000 0.000000
vt 1.000000 0.000000
vt 1.000000 1.000000
vt 0.000000 1.000000
vt 0.000000 0.000000
vt 1.000000 0.000000
vt 1.000000 1.000000
vt 0.000000 1.000000
vt 0.000000 0.000000
vt 1.000000 0.000000
vt 1.000000 1.000000
vt 0.000000 1.000000
vt 0.000000 0.000000
vt 1.000000 0.000000
vt 1.000000 1.000000
vt 0.000000 1.000000
vt 0.000000 0.000000
vt 1.000000 0.000000
vt 1.000000 1.000000
vt 0.000000 1.000000
vt 0.000000 0.000000
vt 1.000000 0.000000
vt 1.000000 1.000000
vt 0.000000 1.000000
vt 0.000000 0.000000
vt 1.000000 0.000000
vt 1.000000 1.000000
vt 0.000000 1.000000
vt 0.330000 0.000000
vt 0.663333 0.000000
vt 0.663333 0.250000
vt 0.330000 0.250000
vt 0.000000 0.000000
vt 1.000000 0.000000
vt 1.000000 1.000000
vt 0.000000 1.000000
vt 0.000000 0.000000
vt 1.000000 0.000000
vt 1.000000 1.000000
vt 0.000000 1.000000
vt 0.000000 0.000000
vt 1.000000 0.000000
vt 1.000000 1.000000
vt 0.000000 1.000000
vt 0.000000 0.000000
vt 1.000000 0.000000
vt 1.000000 1.000000
vt 0.000000 1.000000
vt 0.000000 0.000000
vt 1.000000 0.000000
vt 1.000000 1.000000
vt 0.000000 1.000000
vt 0.000000 0.000000
vt 1.000000 0.000000
vt 1.000000 1.000000
vt 0.000000 1.000000
vt 0.000000 0.000000
vt 1.000000 0.000000
vt 1.000000 1.000000
vt 0.000000 1.000000
vt 0.000000 0.000000
vt 1.000000 0.000000
vt 1.000000 1.000000
vt 0.000000 1.000000
vt 0.000000 0.000000
vt 1.000000 0.000000
vt 1.000000 1.000000
vt 0.000000 1.000000
vt 0.000000 0.000000
vt 1.000000 0.000000
vt 1.000000 1.000000
vt 0.000000 1.000000
vt 0.000000 0.000000
vt 1.000000 0.000000
vt 1.000000 1.000000
vt 0.000000 1.000000
vt 0.000000 0.000000
vt 1.000000 0.000000
vt 1.000000 1.000000
vt 0.000000 1.000000
vt 0.000000 0.000000
vt 1.000000 0.000000
vt 1.000000 1.000000
vt 0.000000 1.000000
vt 0.000000 0.000000
vt 1.000000 0.000000
vt 1.000000 1.000000
vt 0.000000 1.000000
vt 0.000000 0.000000
vt 1.000000 0.000000
vt 1.000000 1.000000
vt 0.000000 1.000000
vt 0.000000 0.000000
vt 1.000000 0.000000
vt 1.000000 1.000000
vt 0.000000 1.000000
vt 0.000000 0.000000
vt 1.000000 0.000000
vt 1.000000 1.000000
vt 0.000000 1.000000
vt 0.000000 0.000000
vt 1.000000 0.000000
vt 1.000000 1.000000
vt 0.000000 1.000000
vt 0.000000 0.000000
vt 1.000000 0.000000
vt 1.000000 1.000000
vt 0.000000 1.000000
vt 0.000000 0.000000
vt 1.000000 0.000000
vt 1.000000 1.000000
vt 0.000000 1.000000
vt 0.000000 0.000000
vt 1.000000 0.000000
vt 1.000000 1.000000
vt 0.000000 1.000000
vt 0.000000 0.000000
vt 1.000000 0.000000
vt 1.000000 1.000000
vt 0.000000 1.000000
vt 0.000000 0.000000
vt 1.000000 0.000000
vt 1.000000 1.000000
vt 0.000000 1.000000
vt 0.000000 0.000000
vt 1.000000 0.000000
vt 1.000000 1.000000
vt 0.000000 1.000000
vt 0.000000 0.000000
vt 1.000000 0.000000
vt 1.000000 1.000000
vt 0.000000 1.000000
vt 0.000000 0.000000
vt 1.000000 0.000000
vt 1.000000 1.000000
vt 0.000000 1.000000
vt 0.000000 0.000000
vt 1.000000 0.000000
vt 1.000000 1.000000
vt 0.000000 1.000000
vt 0.000000 0.000000
vt 1.000000 0.000000
vt 1.000000 1.000000
vt 0.000000 1.000000
vt 0.000000 0.000000
vt 0.000000 1.000000
vt 1.000000 1.000000
vt 1.000000 0.000000
vt 0.000000 0.000000
vt 1.000000 0.000000
vt 1.000000 1.000000
vt 0.000000 1.000000
vt 0.000000 0.000000
vt 0.000000 1.000000
vt 1.000000 1.000000
vt 1.000000 0.000000
vt 0.000000 0.000000
vt 1.000000 0.000000
vt 1.000000 1.000000
vt 0.000000 1.000000
vt 0.000000 0.000000
vt 0.000000 1.000000
vt 1.000000 1.000000
vt 1.000000 0.000000
vt 0.000000 0.000000
vt 1.000000 0.000000
vt 1.000000 1.000000
vt 0.000000 1.000000
vt 0.000000 0.000000
vt 0.000000 1.000000
vt 1.000000 1.000000
vt 1.000000 0.000000
vt 0.000000 0.000000
vt 1.000000 0.000000
vt 1.000000 1.000000
vt 0.000000 1.000000
vt 0.000000 0.000000
vt 0.000000 1.000000
vt 1.000000 1.000000
vt 1.000000 0.000000
vt 0.000000 0.000000
vt 1.000000 0.000000
vt 1.000000 1.000000
vt 0.000000 1.000000
vt 0.000000 0.000000
vt 1.000000 0.000000
vt 1.000000 1.000000
vt 0.000000 1.000000
vt 0.000000 0.000000
vt 0.000000 1.000000
vt 1.000000 1.000000
vt 1.000000 0.000000
vt 0.000000 0.000000
vt 0.000000 1.000000
vt 1.000000 1.000000
vt 1.000000 0.000000
vn 0.792921 0.000000 0.609324
vn 0.792920 0.000000 0.609325
vn 0.792920 0.000000 0.609325
vn 0.792919 0.000000 0.609326
vn 0.374794 0.000000 0.927108
vn 0.374793 0.000000 0.927109
vn 0.374793 0.000000 0.927109
vn 0.374791 0.000000 0.927109
vn -0.381896 0.000000 0.924205
vn -0.383949 -0.006055 0.923334
vn -0.383949 -0.006055 0.923334
vn -0.385986 -0.012111 0.922425
vn -0.110610 -0.043968 0.992891
vn -0.079217 -0.101373 0.991690
vn -0.079217 -0.101373 0.991690
vn -0.047486 -0.158343 0.986242
vn 0.578630 0.675797 0.456603
vn 0.580760 0.674227 0.456219
vn 0.580760 0.674227 0.456219
vn 0.582887 0.672652 0.455832
vn 0.017017 0.019637 0.999662
vn 0.021193 0.007882 0.999744
vn 0.021193 0.007882 0.999744
vn 0.025365 -0.003875 0.999671
vn -0.041657 0.006364 0.999112
vn -0.041657 0.006363 0.999112
vn -0.041657 0.006363 0.999112
vn -0.041658 0.006363 0.999112
vn -0.876327 0.133859 0.462746
vn -0.876326 0.133862 0.462745
vn -0.876326 0.133862 0.462745
vn -0.876326 0.133866 0.462744
vn 0.114788 -0.207335 0.971512
vn 0.112806 -0.203808 0.972490
vn 0.112806 -0.203808 0.972490
vn 0.110823 -0.200277 0.973451
vn 0.172339 -0.137537 0.975389
vn 0.112421 -0.082985 0.990189
vn 0.112421 -0.082985 0.990189
vn 0.051741 -0.027870 0.998272
vn 0.301028 0.184224 0.935651
vn 0.301027 0.184224 0.935652
vn 0.301027 0.184224 0.935652
vn 0.301026 0.184225 0.935652
vn 0.082934 -0.001767 0.996554
vn 0.076847 0.011480 0.996977
vn 0.076847 0.011480 0.996977
vn 0.070743 0.024725 0.997188
vn 0.017644 0.019971 0.999645
vn 0.030448 -0.084627 0.995947
vn 0.030448 -0.084627 0.995947
vn 0.042914 -0.188285 0.981176
vn 0.978528 0.000000 0.206114
vn 0.978528 0.000000 0.206114
vn 0.978528 0.000000 0.206114
vn 0.978528 0.000000 0.206114
vn 0.999913 0.000000 0.013183
vn 0.999913 0.000000 0.013183
vn 0.999913 0.000000 0.013183
vn 0.999913 0.000000 0.013183
vn 0.999999 0.000000 0.001365
vn 0.999999 0.000000 0.001365
vn 0.999999 0.000000 0.001365
vn 0.999999 0.000000 0.001365
vn 0.999304 0.000000 -0.037304
vn 0.999304 0.000000 -0.037304
vn 0.999304 0.000000 -0.037304
vn 0.999304 0.000000 -0.037304
vn 0.959520 0.000000 -0.281642
vn 0.959803 0.007363 -0.280579
vn 0.959803 0.007363 -0.280579
vn 0.960033 0.014725 -0.279500
vn 0.946927 0.022159 -0.320684
vn 0.946927 0.022162 -0.320685
vn 0.946927 0.022162 -0.320685
vn 0.946926 0.022166 -0.320686
vn 0.924346 0.033004 -0.380126
vn 0.923764 0.103506 -0.368709
vn 0.923764 0.103506 -0.368709
vn 0.918471 0.173479 -0.355410
vn 0.840780 0.190189 -0.506871
vn 0.847549 0.115361 -0.518027
vn 0.847549 0.115361 -0.518027
vn 0.849429 0.039868 -0.526195
vn 0.786713 0.046367 -0.615575
vn 0.786714 0.046363 -0.615574
vn 0.786714 0.046363 -0.615574
vn 0.786715 0.046360 -0.615573
vn 0.621212 0.058371 -0.781466
vn 0.621210 0.058367 -0.781467
vn 0.621210 0.058367 -0.781467
vn 0.621209 0.058363 -0.781469
vn 0.577336 0.060722 -0.814245
vn 0.577337 0.060723 -0.814245
vn 0.577337 0.060723 -0.814245
vn 0.577337 0.060723 -0.814245
vn 0.372133 0.068658 -0.925636
vn 0.372134 0.068659 -0.925636
vn 0.372134 0.068659 -0.925636
vn 0.372134 0.068659 -0.925636
vn -0.990306 0.000000 0.138904
vn -0.990306 0.000000 0.138903
vn -0.990306 0.000000 0.138903
vn -0.990306 0.000000 0.138903
vn -0.897225 0.000000 0.441573
vn -0.897225 0.000000 0.441574
vn -0.897225 0.000000 0.441574
vn -0.897225 0.000000 0.441574
vn 0.021302 0.000000 0.999773
vn 0.015137 -0.027181 0.999516
vn 0.015137 -0.027181 0.999516
vn 0.008960 -0.054341 0.998482
vn -0.032066 -0.049181 0.998275
vn -0.035047 -0.054776 0.997883
vn -0.035047 -0.054776 0.997883
vn -0.038026 -0.060369 0.997452
vn -0.342617 0.505556 0.791850
vn -0.350838 0.499261 0.792244
vn -0.350838 0.499261 0.792244
vn -0.359021 0.492913 0.792553
vn 0.096468 -0.142343 0.985105
vn 0.126687 -0.056181 0.990351
vn 0.126687 -0.056181 0.990351
vn 0.155846 0.030450 0.987312
vn 0.143304 0.027979 0.989283
vn 0.143302 0.027989 0.989283
vn 0.143302 0.027989 0.989283
vn 0.143301 0.027999 0.989283
vn 0.438095 0.085526 0.894851
vn 0.438094 0.085531 0.894851
vn 0.438094 0.085531 0.894851
vn 0.438093 0.085535 0.894851
vn -0.173134 -0.088793 0.980888
vn -0.293454 -0.263331 0.918990
vn -0.293454 -0.263331 0.918990
vn -0.399462 -0.425026 0.812271
vn -0.201527 -0.050522 0.978179
vn -0.081968 0.040388 0.995816
vn -0.081968 0.040388 0.995816
vn 0.039466 0.130374 0.990679
vn -0.111319 0.284266 0.952261
vn -0.156464 0.215223 0.963949
vn -0.156464 0.215223 0.963949
vn -0.200522 0.144685 0.968946
vn 0.010377 -0.081902 0.996586
vn 0.018340 -0.033323 0.999276
vn 0.018340 -0.033323 0.999276
vn 0.026258 0.015337 0.999538
vn -0.118252 0.031923 0.992470
vn -0.131507 -0.077329 0.988295
vn -0.131507 -0.077329 0.988295
vn -0.143166 -0.185642 0.972132
vn -0.999067 0.000000 0.043196
vn -0.999067 0.000000 0.043196
vn -0.999067 0.000000 0.043196
vn -0.999067 0.000000 0.043196
vn -0.995420 0.000000 0.095600
vn -0.995420 0.000000 0.095600
vn -0.995420 0.000000 0.095600
vn -0.995420 0.000000 0.095600
vn -0.999997 0.000000 -0.002549
vn -0.999997 0.000000 -0.002549
vn -0.999997 0.000000 -0.002549
vn -0.999997 0.000000 -0.002549
vn -0.999999 0.000000 0.001132
vn -0.999999 0.000000 0.001132
vn -0.999999 0.000000 0.001132
vn -0.999999 0.000000 0.001131
vn -0.984949 0.000000 -0.172848
vn -0.985014 0.097349 -0.142373
vn -0.985014 0.097349 -0.142373
vn -0.974831 0.193684 -0.110416
vn -0.899425 0.231353 -0.370825
vn -0.901039 0.218763 -0.374529
vn -0.901039 0.218763 -0.374529
vn -0.902496 0.206135 -0.378166
vn -0.903585 0.205878 -0.375696
vn -0.903596 0.205817 -0.375705
vn -0.903596 0.205817 -0.375705
vn -0.903606 0.205756 -0.375713
vn -0.830590 0.218008 -0.512437
vn -0.839369 0.130162 -0.527747
vn -0.839369 0.130162 -0.527747
vn -0.841409 0.041270 -0.538820
vn -0.745073 0.050383 -0.665078
vn -0.745074 0.050327 -0.665081
vn -0.745074 0.050327 -0.665081
vn -0.745075 0.050271 -0.665084
vn -0.566185 0.061466 -0.821983
vn -0.566183 0.061490 -0.821983
vn -0.566183 0.061490 -0.821983
vn -0.566182 0.061514 -0.821982
vn -0.428989 0.067048 -0.900818
vn -0.428988 0.067060 -0.900818
vn -0.428988 0.067060 -0.900818
vn -0.428986 0.067071 -0.900818
vn -0.216822 0.072069 -0.973547
vn -0.216820 0.071909 -0.973559
vn -0.216820 0.071909 -0.973559
vn -0.216819 0.071748 -0.973572
vn 0.150351 0.072812 -0.985948
vn 0.150348 0.072699 -0.985957
vn 0.150348 0.072699 -0.985957
vn 0.150344 0.072586 -0.985965
vn 0.719266 -0.115906 0.684998
vn 0.601452 0.094974 0.793244
vn 0.601452 0.094974 0.793244
vn 0.441496 0.299199 0.845909
vn -0.726195 0.168930 -0.666411
vn -0.736130 0.194313 -0.648348
vn -0.736130 0.194313 -0.648348
vn -0.745279 0.219487 -0.629591
vn 0.718254 -0.050807 0.693924
vn 0.668518 0.094406 0.737680
vn 0.668518 0.094406 0.737680
vn 0.601752 0.237213 0.762643
vn -0.710170 0.166550 -0.684046
vn -0.728842 0.255845 -0.635085
vn -0.728842 0.255845 -0.635085
vn -0.739701 0.342397 -0.579316
vn 0.996096 -0.083442 -0.028807
vn 0.996681 0.074759 0.032206
vn 0.996681 0.074759 0.032206
vn 0.968612 0.230811 0.092292
vn -0.984284 0.164933 0.063098
vn -0.982642 0.173291 0.066215
vn -0.982642 0.173291 0.066215
vn -0.980919 0.181636 0.069327
vn 0.995084 -0.065374 -0.074398
vn 0.990910 0.122339 0.055953
vn 0.990910 0.122339 0.055953
vn 0.934966 0.303660 0.183381
vn -0.967417 0.224411 0.117237
vn -0.967725 0.223463 0.116501
vn -0.967725 0.223463 0.116501
vn -0.968032 0.222515 0.115766
vn 0.684891 0.094702 -0.722465
vn 0.729374 0.213385 -0.649984
vn 0.729374 0.213385 -0.649984
vn 0.758309 0.327520 -0.563647
vn -0.386740 0.333533 0.859760
vn -0.493545 0.205759 0.845031
vn -0.493545 0.205759 0.845031
vn -0.586555 0.072234 0.806682
vn 0.673007 0.111131 -0.731239
vn 0.699061 0.182465 -0.691391
vn 0.699061 0.182465 -0.691391
vn 0.719972 0.252456 -0.646456
vn 0.274284 0.844598 0.459807
vn -0.102059 0.655152 0.748572
vn -0.102059 0.655152 0.748572
vn -0.451773 0.294771 0.842028
vn 0.135534 0.218902 -0.966288
vn 0.228148 0.369453 -0.900807
vn 0.228148 0.369453 -0.900807
vn 0.312656 0.506876 -0.803320
vn 0.132614 0.140069 -0.981221
vn 0.200875 0.225563 -0.953295
vn 0.200875 0.225563 -0.953295
vn 0.266575 0.308182 -0.913215
vn -0.425297 0.624901 -0.654692
vn -0.335605 0.508101 -0.793223
vn -0.335605 0.508101 -0.793223
vn -0.232194 0.370531 -0.899329
vn -0.297961 0.487836 -0.820509
vn -0.400819 0.656572 -0.638950
vn -0.400819 0.656572 -0.638950
vn -0.474812 0.778025 -0.411377
f 1/1/1 2/2/2 3/3/3
f 3/3/3 2/2/2 4/4/4
f 2/6/5 5/7/6 4/5/7
f 4/5/7 5/7/6 6/8/8
f 5/10/9 7/11/10 6/9/11
f 6/9/11 7/11/10 8/12/12
f 7/14/13 9/15/14 8/13/15
f 8/13/15 9/15/14 10/16/16
f 9/18/17 11/19/18 10/17/19
f 10/17/19 11/19/18 12/20/20
f 12/21/21 11/22/22 14/24/23
f 14/24/23 11/22/22 13/23/24
f 13/26/25 15/27/26 14/25/27
f 14/25/27 15/27/26 16/28/28
f 15/30/29 17/31/30 16/29/31
f 16/29/31 17/31/30 18/32/32
f 20/34/33 21/35/34 19/33/35
f 19/33/35 21/35/34 22/36/36
f 22/37/37 21/38/38 24/40/39
f 24/40/39 21/38/38 23/39/40
f 23/42/41 25/43/42 24/41/43
f 24/41/43 25/43/42 26/44/44
f 26/45/45 25/46/46 28/48/47
f 28/48/47 25/46/46 27/47/48
f 28/49/49 27/50/50 30/52/51
f 30/52/51 27/50/50 29/51/52
f 3/54/53 32/55/54 1/53/55
f 1/53/55 32/55/54 31/56/56
f 32/58/57 34/59/58 31/57/59
f 31/57/59 34/59/58 33/60/60
f 33/61/61 34/62/62 35/64/63
f 35/64/63 34/62/62 36/63/64
f 35/65/65 36/66/66 37/68/67
f 37/68/67 36/66/66 38/67/68
f 37/69/69 38/70/70 39/72/71
f 39/72/71 38/70/70 40/71/72
f 40/74/73 42/75/74 39/73/75
f 39/73/75 42/75/74 41/76/76
f 41/77/77 42/78/78 43/80/79
f 43/80/79 42/78/78 44/79/80
f 43/81/81 44/82/82 45/84/83
f 45/84/83 44/82/82 46/83/84
f 45/85/85 46/86/86 47/88/87
f 47/88/87 46/86/86 48/87/88
f 47/89/89 48/90/90 49/92/91
f 49/92/91 48/90/90 50/91/92
f 49/93/93 50/94/94 51/96/95
f 51/96/95 50/94/94 52/95/96
f 51/97/97 52/98/98 53/100/99
f 53/100/99 52/98/98 54/99/100
f 55/101/101 58/104/102 56/102/103
f 56/102/103 58/104/102 57/103/104
f 60/108/105 59/107/106 57/105/107
f 57/105/107 59/107/106 56/106/108
f 60/109/109 62/112/110 59/110/111
f 59/110/111 62/112/110 61/111/112
f 64/116/113 63/115/114 62/113/115
f 62/113/115 63/115/114 61/114/116
f 66/120/117 65/119/118 64/117/119
f 64/117/119 65/119/118 63/118/120
f 66/121/121 68/124/122 65/122/123
f 65/122/123 68/124/122 67/123/124
f 70/128/125 69/127/126 68/125/127
f 68/125/127 69/127/126 67/126/128
f 72/132/129 71/131/130 70/129/131
f 70/129/131 71/131/130 69/130/132
f 76/136/133 75/135/134 73/133/135
f 73/133/135 75/135/134 74/134/136
f 76/137/137 78/140/138 75/138/139
f 75/138/139 78/140/138 77/139/140
f 78/141/141 80/144/142 77/142/143
f 77/142/143 80/144/142 79/143/144
f 80/145/145 82/148/146 79/146/147
f 79/146/147 82/148/146 81/147/148
f 82/149/149 30/152/150 81/150/151
f 81/150/151 30/152/150 29/151/152
f 55/153/153 84/156/154 58/154/155
f 58/154/155 84/156/154 83/155/156
f 84/157/157 86/160/158 83/158/159
f 83/158/159 86/160/158 85/159/160
f 88/164/161 87/163/162 86/161/163
f 86/161/163 87/163/162 85/162/164
f 90/168/165 89/167/166 88/165/167
f 88/165/167 89/167/166 87/166/168
f 90/169/169 92/172/170 89/170/171
f 89/170/171 92/172/170 91/171/172
f 92/173/173 94/176/174 91/174/175
f 91/174/175 94/176/174 93/175/176
f 94/177/177 96/180/178 93/178/179
f 93/178/179 96/180/178 95/179/180
f 96/181/181 98/184/182 95/182/183
f 95/182/183 98/184/182 97/183/184
f 98/185/185 100/188/186 97/186/187
f 97/186/187 100/188/186 99/187/188
f 102/192/189 101/191/190 100/189/191
f 100/189/191 101/191/190 99/190/192
f 102/193/193 104/196/194 101/194/195
f 101/194/195 104/196/194 103/195/196
f 104/197/197 105/200/198 103/198/199
f 103/198/199 105/200/198 106/199/200
f 53/201/201 54/202/202 105/204/203
f 105/204/203 54/202/202 106/203/204
f 107/205/205 108/206/206 110/208/207
f 110/208/207 108/206/206 109/207/208
f 111/209/209 114/212/210 112/210/211
f 112/210/211 114/212/210 113/211/212
f 116/214/213 117/215/214 115/213/215
f 115/213/215 117/215/214 118/216/216
f 120/218/217 121/219/218 119/217/219
f 119/217/219 121/219/218 122/220/220
f 124/222/221 125/223/222 123/221/223
f 123/221/223 125/223/222 126/224/224
f 128/226/225 129/227/226 127/225/227
f 127/225/227 129/227/226 130/228/228
f 131/229/229 132/230/230 134/232/231
f 134/232/231 132/230/230 133/231/232
f 135/233/233 136/234/234 138/236/235
f 138/236/235 136/234/234 137/235/236
f 139/237/237 140/238/238 142/240/239
f 142/240/239 140/238/238 141/239/240
f 143/241/241 144/242/242 146/244/243
f 146/244/243 144/242/242 145/243/244
f 147/245/245 148/246/246 150/248/247
f 150/248/247 148/246/246 149/247/248
f 151/249/249 152/250/250 154/252/251
f 154/252/251 152/250/250 153/251/252
f 156/254/253 157/255/254 155/253/255
f 155/253/255 157/255/254 158/256/256
f 159/257/257 160/258/258 162/260/259
f 162/260/259 160/258/258 161/259/260
f 163/261/261 164/262/262 166/264/263
f 166/264/263 164/262/262 165/263/264
f 168/266/265 169/267/266 167/265/267
f 167/265/267 169/267/266 170/268/268
