# This file uses centimeters as units for non-parametric coordinates.

v -0.500000 -0.500000 0.000000
v 0.500000 -0.500000 0.000000
v -0.563502 0.500000 0.000000
v 0.563502 0.500000 0.000000
v 0.003736 0.500000 0.000000
v 0.001109 -0.500000 0.000000
v -0.508922 0.027221 0.000000
v 0.002350 0.019224 0.000000
v 0.508480 0.011306 0.000000
v -0.507939 -0.214129 0.000000
v 0.001819 -0.202983 0.000000
v 0.508556 -0.191903 0.000000
v 0.520369 0.233422 0.000000
v 0.002866 0.235108 0.000000
v -0.520463 0.236813 0.000000
v -0.512176 0.133878 0.000226
v 0.002627 0.134944 0.000000
v 0.511239 0.129484 -0.000235
vt 0.013376 0.535294
vt 0.988985 0.535294
vt 0.013376 0.667978
vt 0.988985 0.667978
vt 0.504414 0.667978
vt 0.502262 0.535294
vt 0.013376 0.605248
vt 0.503380 0.604187
vt 0.988985 0.603136
vt 0.013376 0.573225
vt 0.502901 0.574703
vt 0.988985 0.576174
vt 0.988985 0.632607
vt 0.503844 0.632831
vt 0.013376 0.633057
vt 0.013376 0.619400
vt 0.503629 0.619541
vt 0.988985 0.619681
vn -0.000002 -0.000752 1.000000
vn 0.000150 -0.000010 1.000000
vn 0.000312 -0.000095 1.000000
vn 0.000305 -0.000023 1.000000
vn 0.000297 0.000030 1.000000
vn 0.000002 0.000733 1.000000
vn 0.000000 0.000000 1.000000
vn 0.000000 0.000000 1.000000
vn 0.000111 -0.000527 1.000000
vn 0.000000 0.000000 1.000000
vn 0.000161 0.000658 1.000000
vn 0.000000 0.000000 1.000000
vn 0.000000 0.000000 1.000000
vn 0.000000 0.000000 1.000000
vn 0.000000 0.000000 1.000000
vn 0.000000 0.000000 1.000000
vn 0.000000 0.000000 1.000000
vn 0.000000 0.000000 1.000000
f 13/13/1 14/14/2 18/18/3
f 18/18/3 14/14/2 17/17/4
f 17/17/4 14/14/2 16/16/5
f 16/16/5 14/14/2 15/15/6
f 10/10/7 11/11/8 7/7/9
f 7/7/9 11/11/8 8/8/10
f 9/9/11 8/8/10 12/12/12
f 12/12/12 8/8/10 11/11/8
f 6/6/13 11/11/8 1/1/14
f 1/1/14 11/11/8 10/10/7
f 12/12/12 11/11/8 2/2/15
f 2/2/15 11/11/8 6/6/13
f 14/14/2 13/13/1 5/5/16
f 5/5/16 13/13/1 4/4/17
f 14/14/2 5/5/16 15/15/6
f 15/15/6 5/5/16 3/3/18
f 8/8/10 17/17/4 7/7/9
f 7/7/9 17/17/4 16/16/5
f 18/18/3 17/17/4 9/9/11
f 9/9/11 17/17/4 8/8/10
