# This file uses centimeters as units for non-parametric coordinates.

v -0.500000 -0.500000 0.000000
v 0.500000 -0.500000 0.000000
v -0.500000 0.500000 0.000000
v 0.500000 0.500000 0.000000
v 0.455578 0.344187 0.000000
v 0.454466 -0.329386 0.000000
v -0.460666 -0.310105 0.000000
v -0.452274 0.318175 0.000000
v -0.031749 0.500000 0.000000
v -0.032154 0.330212 0.000000
v -0.033698 -0.319101 0.000000
v -0.034129 -0.500000 0.000000
vt 0.010560 0.536859
vt 0.992114 0.536859
vt 0.010560 0.666196
vt 0.992114 0.666196
vt 0.948511 0.646043
vt 0.947420 0.558926
vt 0.049168 0.561420
vt 0.057405 0.642679
vt 0.470173 0.666196
vt 0.469776 0.644236
vt 0.468260 0.560256
vt 0.467837 0.536859
vn 0.000000 0.000000 1.000000
vn 0.000000 0.000000 1.000000
vn 0.000000 0.000000 1.000000
vn 0.000000 0.000000 1.000000
vn 0.000000 0.000000 1.000000
vn 0.000000 0.000000 1.000000
vn 0.000000 0.000000 1.000000
vn 0.000000 0.000000 1.000000
vn 0.000000 0.000000 1.000000
vn 0.000000 0.000000 1.000000
vn 0.000000 0.000000 1.000000
vn 0.000000 0.000000 1.000000
f 2/2/1 4/4/2 6/6/3
f 6/6/3 4/4/2 5/5/4
f 10/10/5 5/5/4 9/9/6
f 9/9/6 5/5/4 4/4/2
f 1/1/7 7/7/8 3/3/9
f 3/3/9 7/7/8 8/8/10
f 11/11/11 12/12/12 6/6/3
f 6/6/3 12/12/12 2/2/1
f 3/3/9 8/8/10 9/9/6
f 9/9/6 8/8/10 10/10/5
f 1/1/7 12/12/12 7/7/8
f 7/7/8 12/12/12 11/11/11
