# This file uses centimeters as units for non-parametric coordinates.

v 7.414364 7.726686 -3.877293
v -2.419250 1.593345 1.448941
v -2.483548 1.593361 6.480298
v 2.234253 1.593345 1.809281
v 2.249872 1.593361 6.465899
v 6.925074 3.479970 -8.801464
v 8.379582 1.593361 6.443592
v 8.295862 1.593360 1.809581
v -7.718879 3.069351 -8.690276
v -9.524671 1.593361 6.503832
v -9.459809 1.593360 1.448943
v -7.770853 3.101224 -0.795650
v -9.775247 7.639956 -0.921556
v 8.569417 6.057471 -0.767598
v -2.418864 1.593355 -3.943698
v 2.230962 1.593546 -3.954635
v -9.773379 7.645745 1.448892
v -2.400511 2.223453 -3.945192
v 8.318353 2.679005 1.784792
v 2.247808 2.667591 -3.959416
v 2.233512 2.678973 1.789995
v -2.419393 2.223453 1.448981
v 8.422810 2.679008 6.487976
v -9.776655 2.666470 6.472759
v -9.777035 2.569444 1.448905
v -7.770853 3.101223 1.449000
v -4.407535 2.223453 1.436765
v -4.329679 2.223453 -5.464812
v -4.330388 2.569717 -5.464811
v -4.407677 2.570159 1.426526
v -6.186893 2.569650 -6.980343
v -6.186173 2.573714 1.421996
v -6.186883 3.069348 -6.980305
v -6.186896 3.101223 1.449117
v 3.956683 2.223453 -5.464740
v 5.149520 2.223453 -6.980366
v 5.149500 3.480006 -6.980366
v -7.809487 7.649412 -0.919110
v -7.811604 7.651459 1.448974
v -9.362494 2.569387 1.448944
v -9.447113 2.666423 6.479634
v -6.186910 1.593352 1.448942
v -7.767946 1.593355 1.448942
v -4.330127 1.593349 1.436733
v -6.165076 3.122471 -0.899645
v -6.186900 2.569860 -0.899602
v -7.718886 3.060484 -0.925091
v -8.768294 8.631010 0.422336
v -9.473299 7.912319 -0.642122
v -8.123665 7.917600 -0.643871
v -8.127012 7.919875 1.084569
v -9.474241 7.916480 1.085988
v 2.233089 2.679003 1.419846
v 8.568812 2.679005 1.420834
v 8.685740 2.679005 6.455035
v 6.874954 2.679003 1.414812
v 8.570399 6.064031 1.420553
v 6.876091 6.069510 1.420772
v 7.732430 7.164130 0.262720
v 8.415103 6.291019 1.219921
v 7.084778 6.282300 1.220728
v 7.086933 6.282961 -0.538169
v 8.413340 6.287017 -0.600818
v 6.875106 1.593355 1.809485
v 6.874935 2.679003 1.786260
v 2.573591 2.672009 -3.957509
v 2.592883 2.679003 1.418269
v 2.230015 2.223453 -5.464760
v 2.229778 2.223453 -3.954720
v 2.592865 2.678973 1.418107
v 2.592882 2.223453 1.418429
v 2.248060 1.593471 -0.643481
v -2.280147 2.223453 -5.464809
v -2.278029 2.569824 -5.464807
v -2.276894 2.569595 -6.980297
v -2.273170 3.069342 -6.980256
v -2.267609 3.069313 -8.690276
v -2.280498 2.569533 -8.690276
v -2.280203 2.223453 -6.980353
v -0.043964 1.593463 -3.954596
v -0.051600 2.223453 -3.954663
v -0.051788 2.223453 -5.464788
v -0.051297 2.223453 -6.980369
v -0.051350 2.569643 -6.980301
v -0.051268 2.569516 -8.690280
v -0.051185 2.223453 -8.690280
v 1.642407 2.223453 -6.978258
v 2.720675 2.223453 -6.980366
v 2.781506 2.223453 -8.633101
v 4.018962 3.480006 -8.781797
v 3.998637 3.480010 -6.980366
v 3.951159 2.223453 1.415623
v 5.096247 2.223453 -1.013215
v 5.096243 3.480006 -2.336205
v 6.876087 2.223453 1.401701
v 6.871375 2.223459 -0.375860
v 6.876091 4.675991 1.420831
v 6.876090 4.680839 -0.375732
v 6.876091 4.680815 1.053175
v 6.875106 2.223460 0.538131
v 3.952048 2.223453 0.537576
v 3.953146 2.223453 -1.032604
v 2.604473 2.223453 -1.495954
v 3.954131 2.223453 -1.499368
v 5.096253 2.223453 -3.199382
v 3.955036 2.223453 -3.199456
v 2.592860 2.223453 -3.961416
v 3.955912 2.223453 -3.976141
v -6.186886 3.069443 -2.996475
v -6.186897 2.569763 -2.995616
v -7.718887 3.069408 -2.971969
v -6.186884 3.069376 -5.464842
v -7.718887 3.069376 -5.464850
v -6.186894 2.569685 -5.464841
v -4.283116 2.569634 -6.980330
v 3.965924 2.223453 -6.980366
v 5.150559 3.480006 -4.899968
v 6.925694 3.517250 -4.891194
v 5.124925 3.454058 -3.207232
v 6.890286 3.480202 -3.199555
v 6.871376 2.706809 1.053181
v 8.555077 2.679008 1.752877
v 2.233950 1.593364 1.441713
v 6.871372 2.223459 1.053180
v -4.329722 2.223453 -3.945117
v -6.186898 2.569803 -1.662980
v -4.329812 2.223453 -1.666045
v -2.465637 2.223453 -1.670216
v -4.330287 2.569897 -1.663976
v -2.432117 1.593352 -1.669180
v -6.217922 3.069342 -8.690276
v 3.312506 2.755975 -8.781646
v 3.312505 10.158187 -8.783617
v 3.312506 3.485311 -8.784123
v 4.756820 3.480006 -8.782220
v 4.761900 10.158186 -8.783609
v 3.312504 10.158187 -9.992780
v 3.312504 3.485138 -9.992784
v -1.484300 2.569524 -8.690276
v -1.487433 10.923857 -10.193315
v -1.487434 3.132138 -10.193305
v -2.976276 3.069319 -8.690276
v -2.976218 10.923856 -10.197237
v 6.150743 10.556802 -9.915526
v 7.426607 0.435682 -8.801463
v 7.426782 10.607984 -8.801463
v 6.890285 3.480202 -3.917416
v 6.917531 4.725004 -3.916804
v 8.058888 7.731099 -3.027864
v 6.876090 4.670757 -0.767559
v 6.876090 6.066672 -0.767613
v 6.890593 3.480202 -2.511281
v 6.912265 4.724315 -2.511308
v 7.029304 7.726273 -2.780335
v 6.890267 2.223453 -1.016634
v 6.890286 3.480006 -2.314051
v 6.876090 2.223453 -0.767792
v 6.926235 3.533305 -7.034186
v 8.057995 4.733782 -2.499047
v 7.466466 5.407371 -8.801463
v 6.150743 5.413932 -9.850503
v 6.150743 5.405867 -8.801463
v 6.150743 3.479995 -8.801464
v 6.150743 10.607984 -8.801463
v 3.312506 4.616556 -8.783739
v 4.758227 4.615791 -8.783753
v 3.312505 7.027140 -8.783655
v 4.760856 7.026924 -8.783655
v 5.104227 2.223453 -4.927974
v 6.904997 6.154387 -2.511315
v 6.950871 6.166427 -3.902480
v 8.057995 6.163897 -2.499048
v 8.059189 -0.211900 -2.511530
v -3.488509 3.069322 -8.690276
v -7.505354 4.023021 -8.690274
v -3.488513 4.023016 -8.690274
v -4.183876 4.023016 -8.690274
v -4.183887 5.115027 -8.690274
v -4.894327 5.115027 -8.690274
v -4.894403 6.230042 -8.690274
v -6.007992 6.230042 -8.690274
v -6.008008 5.114995 -8.690274
v -6.664821 4.967037 -9.072302
v -6.664820 4.023021 -8.690274
v -4.894404 6.082082 -9.072206
v -6.007992 6.082082 -9.072160
v -6.007814 4.967035 -9.074713
v -4.925507 4.967069 -9.072302
v -4.183941 4.967069 -9.084519
v -4.227538 3.875058 -9.067486
v -3.488515 3.875058 -9.067675
v -6.664807 3.875063 -9.072278
v -7.505342 3.875063 -9.072278
v -3.488503 1.943304 -9.732969
v -6.664818 5.114995 -8.690274
v -7.504252 3.069350 -8.690276
v -6.017555 3.069340 -8.690276
v -5.454825 5.115027 -8.690274
v -6.018107 4.023021 -8.690274
v -5.456008 4.023019 -8.690274
v -4.823983 3.069331 -8.690276
v -4.822822 4.023020 -8.690274
v 3.312505 0.980924 -9.992812
v 3.312503 0.994763 -8.789368
v 6.150743 1.106050 -9.799296
v -7.799286 6.503706 -0.886513
v -7.801511 6.501924 1.448981
v -9.775654 6.502653 1.448895
v -8.004818 1.773335 -1.595625
v -7.969782 5.885529 -3.979182
v 6.150743 3.605362 -9.802074
v 6.150743 1.007685 -8.758986
v 7.427359 3.526479 -8.801464
v 6.928672 0.434543 -8.804009
v 8.059190 3.488130 -2.511530
v 6.877649 -0.191222 -2.510488
v 7.965883 7.723455 -3.554025
v -7.718887 3.069379 -5.124925
v -7.718887 3.069425 -1.595855
v -7.718887 3.876087 -1.596023
v -7.718886 3.876034 -5.125092
v -7.718886 3.876044 -4.507378
v -7.718887 3.876076 -2.312265
v -7.718887 4.963943 -2.312210
v -7.718886 4.963889 -4.507560
v -7.718887 4.963897 -3.977582
v -7.718887 4.963927 -2.903283
v -7.718887 6.010733 -2.912443
v -7.718887 6.010652 -3.979077
v -7.979718 4.838116 -2.294072
v -7.977866 4.838113 -2.879542
v -7.972303 5.885316 -2.898876
v -7.994702 4.838114 -4.507227
v -7.993193 3.750090 -5.124079
v -7.993256 3.750174 -4.506207
v -7.994165 4.838105 -3.980275
v -7.983365 3.750166 -2.296761
v -7.983981 3.750186 -1.595791
v -7.718887 3.069410 -2.833453
v -7.718887 3.876067 -2.833598
v -7.718887 4.963914 -3.405914
v -7.718887 3.876060 -3.405980
v -7.718887 3.069393 -4.097114
v -7.718887 3.876049 -4.095441
v -1.484330 3.128423 -8.690276
v -1.484156 10.923857 -8.690259
v -2.976171 10.923856 -8.690260
v -2.976272 0.672785 -10.195662
v 7.842709 6.136812 -0.767606
v 8.044786 6.022270 -0.767603
v 3.953043 2.223453 -0.769794
v 5.082851 2.223453 -0.769805
v -1.480499 0.502297 -8.691025
v -1.487454 0.502747 -10.193400
v -1.487444 2.570539 -10.193353
v -2.971727 0.571287 -8.560328
v -2.976255 2.948804 -10.196157
v -2.282495 10.923856 -8.690260
v -7.983881 2.931221 -1.595662
v -7.718886 1.899826 -1.595831
v -3.488504 3.058275 -9.067525
v -3.488509 1.943623 -8.770927
v -7.799768 6.503319 -0.379864
v -7.770853 3.101224 -0.290659
v -7.800955 6.502369 0.865400
v -9.802884 6.653972 1.047374
v -9.780623 3.101430 -0.303996
v -9.722614 6.646514 -0.356651
v 2.592758 1.593347 1.809307
v 2.592758 2.678977 1.789480
v -1.088399 1.593386 -1.376751
v 6.150743 7.286656 -8.801463
v 6.150743 7.288517 -9.879492
v 7.465662 7.286422 -8.801463
v 7.514281 7.726364 -2.576346
v 7.477206 6.359607 -2.511392
v 6.907964 6.359608 -3.350663
v 6.898515 7.726364 -3.334487
v 7.487857 8.348369 -3.273925
v 8.057892 6.154572 -3.056989
v 7.029160 6.359613 -2.780084
v 7.328694 6.359558 -3.774778
v 7.749616 6.154395 -3.917494
v 6.991642 7.726971 -3.662363
v 7.099405 6.359486 -3.644453
v 7.703183 7.725204 -3.796217
v 8.073496 7.710824 -3.331743
v 7.878905 6.154469 -2.680834
v 7.871656 7.721683 -2.757173
v 8.486085 2.223220 1.052496
v 8.486087 4.681617 1.052213
v 8.346380 2.223227 -0.378012
v 8.330035 4.681541 -0.380049
v 8.569846 4.704908 1.420651
v 7.738606 6.066720 1.420661
v 7.724821 4.690481 1.420741
v -2.416281 2.223453 -1.740528
v -1.528467 4.848639 -8.690270
v -1.531633 4.785473 -10.193308
v -2.272946 4.810996 -8.690270
v -2.976239 4.777428 -8.690270
v -2.976241 4.809069 -10.196561
v -2.943288 4.761712 -8.711807
v -1.484269 4.816154 -8.690270
v -1.487434 4.755271 -10.193308
v -6.191803 3.101224 -0.871552
v -7.770878 3.101224 -0.870269
v -6.202698 2.563928 1.470571
v -9.776995 2.681330 1.448905
v -7.769918 2.616314 1.448981
v -2.976176 7.711173 -8.690261
v -2.976220 7.667313 -10.197181
v -1.490583 7.703036 -10.193315
v -1.486908 7.735793 -8.690260
v -2.281869 7.722651 -8.690261
v 4.761779 8.475298 -8.783615
v 3.312505 8.475598 -8.783621
v 3.312504 8.475383 -9.992780
v 6.871375 3.038191 -0.375816
v 8.337224 3.039582 -0.379153
v 8.486086 3.039575 1.052327
v 7.749225 6.286717 1.220319
v 5.155445 3.480006 -3.225061
v 6.890927 3.480014 -4.880135
v 3.312504 4.614002 -9.992783
v 3.312504 7.029024 -9.992781
v 3.240786 4.687369 -9.992783
v 4.707674 4.663805 -8.783751
v 4.707514 6.996374 -8.783656
v 1.603416 2.223453 -8.690283
v 2.219111 2.654351 -1.510229
v 2.581065 2.661603 -1.506168
v 6.891865 3.492225 -7.020062
v 8.059200 4.701493 -2.511524
v 7.241984 7.726316 -2.658937
v 7.229449 6.359610 -2.612701
v 6.949130 7.726319 -3.026698
v 6.948795 6.359611 -3.026590
v -6.186547 2.211442 1.435665
v -7.768834 2.211355 1.448960
v -6.200197 2.205641 1.476972
v -7.770285 3.101223 0.961480
v -7.770500 3.101223 0.963230
v -4.306778 2.223453 1.437391
v 5.164951 3.455463 -3.217333
v 6.911207 4.663568 -2.511307
v 6.066033 5.402723 -9.849496
v 7.428425 5.363021 -8.801463
v 8.559176 2.679008 1.869351
v -2.599903 2.671245 6.482831
v 2.162056 2.674598 6.485054
v -9.776655 1.517853 6.759876
v -9.447113 1.517806 6.766752
v 8.422810 1.530391 6.775094
v 8.685740 1.530388 6.742152
v -2.599903 1.522628 6.769948
v 2.162056 1.525982 6.772171
v -9.776655 2.666470 6.705925
v -9.447113 2.666423 6.706505
v 8.422810 2.679008 6.687094
v 8.685740 2.679005 6.685447
v -2.599903 2.671245 6.723093
v 2.162056 2.674598 6.722718
v -9.504371 1.593361 4.921779
v -9.451235 2.638315 4.960550
v -9.776708 2.653139 4.958858
v -9.753433 2.585399 5.008519
v -9.477612 2.572373 4.994442
v -7.788915 3.876038 -1.595952
v -7.797030 3.065458 -1.595793
v -7.825075 1.899567 -1.595760
v -2.381325 1.593352 -1.729225
v -4.183895 3.898411 -9.074064
v -9.857190 3.086911 1.071229
v 6.876090 3.091339 -0.767709
v 7.910565 6.066672 -0.767613
v 7.910565 4.670757 -0.767559
v 7.346878 0.780349 -1.016634
v 7.346897 2.036902 -2.314051
v 7.347204 2.037098 -2.511281
v 7.795135 0.780349 -0.767792
v 7.910565 3.091339 -0.767709
v 7.018122 2.487092 -3.917416
v 7.763008 3.731894 -3.916804
v 7.052911 2.486860 -8.801464
v 7.054071 2.540195 -7.034186
v 7.018764 2.486904 -4.880135
v 7.053531 2.524140 -4.891194
v 7.019701 2.499115 -7.020062
v 7.796347 5.953062 -3.902480
v 4.756820 2.748250 -9.038253
v 6.150743 2.748239 -9.057497
v 4.758227 4.635945 -9.292974
v 4.707674 4.683959 -9.292973
v 4.707514 6.264617 -9.292877
v -0.671502 1.633805 -8.690280
v -1.431625 1.633813 -8.690276
v -0.051185 1.287742 -8.690280
v 2.781506 1.287742 -8.633101
v 3.312506 1.820264 -8.781646
v 1.603416 1.287742 -8.690283
v -2.976276 2.223226 -8.690276
v -3.488509 2.223229 -8.690276
v -7.228504 3.363075 -9.073714
v -7.257842 3.363075 -9.818909
v -7.983739 2.409405 -8.771447
v -7.227403 2.409404 -9.073716
v -7.983747 2.409430 -5.546021
v -7.983747 2.409432 -5.206096
v -7.983747 3.216088 -5.206263
v -8.258054 3.090144 -5.205250
v -7.943412 1.957202 -0.925091
v -7.943414 1.966144 -1.595855
v -7.995405 1.997943 -0.870269
v -7.995379 1.997943 -0.795650
v -9.016716 6.438073 -0.886513
v -5.503029 6.082082 -9.072181
v -5.382277 6.230042 -8.690274
vt 0.768242 0.886808
vt 0.380331 0.290108
vt 0.356976 0.039356
vt 0.595295 0.252472
vt 0.610937 0.025496
vt 0.710833 0.783684
vt 0.908187 0.258696
vt 0.975790 0.033073
vt 0.306984 0.780340
vt 0.031688 0.055207
vt 0.119463 0.298243
vt 0.178697 0.735680
vt 0.225641 0.539823
vt 0.787788 0.645423
vt 0.411950 0.568713
vt 0.577846 0.570330
vt 0.044751 0.637027
vt 0.411936 0.606066
vt 0.913192 0.352996
vt 0.581708 0.605310
vt 0.598219 0.344365
vt 0.378239 0.333633
vt 0.995761 0.136002
vt 0.080050 0.384643
vt 0.005664 0.205573
vt 0.189836 0.428559
vt 0.316954 0.335096
vt 0.376457 0.646265
vt 0.373421 0.681742
vt 0.312955 0.381309
vt 0.340615 0.713600
vt 0.255172 0.382409
vt 0.338412 0.750614
vt 0.247863 0.427342
vt 0.636962 0.647936
vt 0.675910 0.684725
vt 0.679465 0.755639
vt 0.207434 0.737316
vt 0.164014 0.636404
vt 0.019840 0.165454
vt 0.107936 0.385793
vt 0.260494 0.293449
vt 0.206666 0.295682
vt 0.322327 0.290881
vt 0.281209 0.542414
vt 0.283953 0.498143
vt 0.232184 0.546850
vt 0.114091 0.792541
vt 0.178739 0.720046
vt 0.178343 0.731571
vt 0.068456 0.655552
vt 0.152532 0.661457
vt 0.596100 0.376758
vt 0.923865 0.387262
vt 0.992839 0.224062
vt 0.808901 0.380583
vt 0.937891 0.540253
vt 0.820453 0.536237
vt 0.870922 0.694944
vt 0.915277 0.557762
vt 0.835082 0.555543
vt 0.807100 0.635070
vt 0.807792 0.254128
vt 0.818159 0.348076
vt 0.602509 0.604235
vt 0.625665 0.376791
vt 0.601882 0.647593
vt 0.580220 0.604029
vt 0.628033 0.373504
vt 0.627656 0.376517
vt 0.584199 0.449490
vt 0.461832 0.646814
vt 0.460276 0.683977
vt 0.463395 0.716546
vt 0.462940 0.752233
vt 0.466113 0.783256
vt 0.466068 0.749917
vt 0.464248 0.683321
vt 0.503090 0.569633
vt 0.502171 0.607479
vt 0.503105 0.647100
vt 0.504162 0.683818
vt 0.503393 0.717505
vt 0.503720 0.749335
vt 0.505436 0.713913
vt 0.549226 0.683008
vt 0.590056 0.683273
vt 0.588766 0.715370
vt 0.630049 0.785671
vt 0.633983 0.756687
vt 0.680286 0.355586
vt 0.712130 0.602851
vt 0.717015 0.465184
vt 0.768494 0.466673
vt 0.763058 0.604265
vt 0.801427 0.346023
vt 0.771788 0.458832
vt 0.779150 0.431919
vt 0.783957 0.598969
vt 0.791294 0.574235
vt 0.816030 0.483541
vt 0.807666 0.512652
vt 0.787142 0.402706
vt 0.674274 0.401470
vt 0.665047 0.465107
vt 0.612706 0.513655
vt 0.658456 0.514062
vt 0.699248 0.563140
vt 0.651451 0.562193
vt 0.602359 0.606365
vt 0.644032 0.607774
vt 0.306308 0.639939
vt 0.310518 0.599156
vt 0.262941 0.641184
vt 0.327944 0.716631
vt 0.288400 0.718050
vt 0.332121 0.682706
vt 0.378570 0.714511
vt 0.631568 0.684160
vt 0.718580 0.755968
vt 0.695805 0.688024
vt 0.739772 0.686949
vt 0.703184 0.645770
vt 0.751911 0.646042
vt 0.799036 0.416154
vt 0.937955 0.355454
vt 0.593997 0.274646
vt 0.796477 0.370308
vt 0.368291 0.607140
vt 0.299521 0.557343
vt 0.399919 0.514141
vt 0.351674 0.514706
vt 0.349968 0.555973
vt 0.401917 0.478787
vt 0.344631 0.781584
vt 0.605648 0.747290
vt 0.605365 0.785773
vt 0.609675 0.925377
vt 0.644661 0.785073
vt 0.651527 0.925507
vt 0.603165 0.808101
vt 0.607402 0.925012
vt 0.482765 0.750070
vt 0.482183 0.783655
vt 0.483262 0.898948
vt 0.442105 0.782925
vt 0.439960 0.897920
vt 0.690805 0.992551
vt 0.725760 0.757318
vt 0.736543 0.976403
vt 0.747068 0.661592
vt 0.751199 0.710482
vt 0.818536 0.878542
vt 0.756045 0.632287
vt 0.760957 0.676826
vt 0.780768 0.868558
vt 0.808212 0.674892
vt 0.731007 0.824659
vt 0.692854 0.825095
vt 0.688550 0.844641
vt 0.691104 0.783893
vt 0.695313 0.976093
vt 0.605854 0.824599
vt 0.644986 0.824736
vt 0.608216 0.897200
vt 0.650116 0.896801
vt 0.691779 0.604852
vt 0.766874 0.765141
vt 0.756558 0.801700
vt 0.816002 0.764463
vt 0.805250 0.651479
vt 0.330555 0.914156
vt 0.327903 0.820122
vt 0.306531 0.818839
vt 0.429263 0.782749
vt 0.426572 0.821624
vt 0.409023 0.822360
vt 0.406333 0.894957
vt 0.384377 0.897232
vt 0.381897 0.973644
vt 0.341327 0.970258
vt 0.345469 0.893461
vt 0.347315 0.990555
vt 0.385854 0.993457
vt 0.342918 0.915401
vt 0.389306 0.917552
vt 0.408571 0.918503
vt 0.411487 0.847034
vt 0.431853 0.846217
vt 0.333173 0.845596
vt 0.316149 0.844787
vt 0.434637 0.787428
vt 0.323063 0.891099
vt 0.310015 0.780521
vt 0.364794 0.895635
vt 0.349275 0.781648
vt 0.367908 0.822243
vt 0.346214 0.820824
vt 0.387773 0.822300
vt 0.388907 0.782193
vt 0.605503 0.747054
vt 0.602752 0.763733
vt 0.685656 0.798627
vt 0.169960 0.584251
vt 0.212350 0.687554
vt 0.051433 0.583651
vt 0.227366 0.557254
vt 0.215468 0.890726
vt 0.685760 0.801808
vt 0.688956 0.787922
vt 0.728566 0.784606
vt 0.721208 0.758095
vt 0.807416 0.664092
vt 0.767547 0.637141
vt 0.794897 0.895258
vt 0.286035 0.710909
vt 0.245418 0.589375
vt 0.240335 0.638785
vt 0.282970 0.753884
vt 0.275301 0.733181
vt 0.249472 0.663454
vt 0.241376 0.756452
vt 0.269094 0.817494
vt 0.264604 0.807605
vt 0.249440 0.774210
vt 0.243109 0.863424
vt 0.259691 0.890557
vt 0.223418 0.751669
vt 0.222205 0.772879
vt 0.217046 0.863120
vt 0.265421 0.818569
vt 0.275038 0.755643
vt 0.275161 0.745178
vt 0.264937 0.812072
vt 0.228534 0.662175
vt 0.218798 0.636940
vt 0.260415 0.634416
vt 0.256311 0.681915
vt 0.256025 0.788712
vt 0.262766 0.699342
vt 0.271045 0.721691
vt 0.274603 0.676393
vt 0.480921 0.783624
vt 0.481781 0.898821
vt 0.440913 0.898002
vt 0.441842 0.793519
vt 0.817011 0.645743
vt 0.889656 0.645579
vt 0.665731 0.459300
vt 0.717219 0.458774
vt 0.482660 0.770376
vt 0.482577 0.772691
vt 0.482371 0.778420
vt 0.442019 0.786385
vt 0.441251 0.826275
vt 0.460759 0.898400
vt 0.226071 0.576201
vt 0.243566 0.584414
vt 0.434383 0.792787
vt 0.429550 0.782999
vt 0.203408 0.666567
vt 0.218435 0.520082
vt 0.179557 0.610240
vt 0.183561 0.613200
vt 0.085270 0.608781
vt 0.195848 0.519406
vt 0.184544 0.615841
vt 0.624353 0.252209
vt 0.628761 0.343475
vt 0.579017 0.607334
vt 0.580215 0.648460
vt 0.617092 0.607665
vt 0.605017 0.607550
vt 0.454117 0.471900
vt 0.694033 0.897531
vt 0.690256 0.910056
vt 0.733689 0.898164
vt 0.802615 0.864532
vt 0.793764 0.764770
vt 0.761520 0.784115
vt 0.770279 0.878927
vt 0.787947 0.883631
vt 0.810863 0.776498
vt 0.772697 0.770686
vt 0.763238 0.801786
vt 0.760088 0.801745
vt 0.769469 0.882063
vt 0.762384 0.793005
vt 0.777398 0.894291
vt 0.809793 0.888469
vt 0.806191 0.768229
vt 0.814185 0.867177
vt 0.798267 0.436013
vt 0.807358 0.510139
vt 0.796607 0.435658
vt 0.805800 0.516355
vt 0.934326 0.486527
vt 0.882830 0.537372
vt 0.876972 0.486095
vt 0.067883 0.674302
vt 0.069865 0.670391
vt 0.111401 0.716940
vt 0.401205 0.515239
vt 0.482555 0.823410
vt 0.481229 0.824920
vt 0.464194 0.824540
vt 0.441686 0.823390
vt 0.440769 0.853048
vt 0.441697 0.822301
vt 0.481223 0.824141
vt 0.482548 0.822684
vt 0.278985 0.542253
vt 0.228720 0.546246
vt 0.253232 0.380473
vt 0.195249 0.386304
vt 0.079206 0.390514
vt 0.440027 0.894183
vt 0.440966 0.892890
vt 0.481746 0.894231
vt 0.483212 0.893563
vt 0.460984 0.893556
vt 0.609511 0.922219
vt 0.651363 0.922170
vt 0.607275 0.922356
vt 0.783274 0.480242
vt 0.801757 0.480861
vt 0.803691 0.480239
vt 0.875708 0.556667
vt 0.704178 0.647117
vt 0.739917 0.685926
vt 0.603313 0.845192
vt 0.605982 0.897182
vt 0.603398 0.846831
vt 0.645092 0.826225
vt 0.650048 0.895854
vt 0.546575 0.713773
vt 0.584629 0.529995
vt 0.609053 0.529608
vt 0.719135 0.754159
vt 0.808197 0.674693
vt 0.791209 0.866634
vt 0.782588 0.767908
vt 0.775444 0.873821
vt 0.768272 0.776003
vt 0.260034 0.337716
vt 0.257036 0.334882
vt 0.201526 0.336481
vt 0.199730 0.457289
vt 0.199695 0.457189
vt 0.320096 0.335021
vt 0.703747 0.646533
vt 0.759060 0.673249
vt 0.688492 0.843750
vt 0.730950 0.823715
vt 0.942339 0.344344
vt 0.000000 0.000000
vt 0.060276 0.000000
vt 0.133106 0.997941
vt 0.072352 1.000000
vt 0.088182 0.382380
vt 0.028506 0.393988
vt 0.107590 0.648311
vt 0.047638 0.658416
vt 0.938072 0.293397
vt 0.937735 0.294671
vt 0.913332 0.287512
vt 0.913682 0.286153
vt 0.963918 0.225271
vt 0.963016 0.225994
vt 0.940118 0.214397
vt 0.941113 0.213646
vt 0.947605 0.267635
vt 0.923784 0.258733
vt 0.954254 0.249671
vt 0.930830 0.239609
vt 0.936826 0.292956
vt 0.936371 0.294210
vt 0.962883 0.224047
vt 0.962507 0.225049
vt 0.946216 0.266819
vt 0.952983 0.248664
vt 0.059160 0.131271
vt 0.045359 0.229279
vt 0.015884 0.230175
vt 0.042122 0.221182
vt 0.014529 0.226915
vt 0.891233 0.646230
vt 0.852814 0.612037
vt 0.233718 0.638218
vt 0.239259 0.585182
vt 0.237950 0.574999
vt 0.891570 0.637665
vt 0.885601 0.646750
vt 0.404331 0.481754
vt 0.411437 0.848251
vt 0.188527 0.568825
vt 0.776153 0.509096
vt 0.787788 0.645423
vt 0.783957 0.598969
vt 0.768494 0.466673
vt 0.763058 0.604265
vt 0.763058 0.604265
vt 0.756045 0.632287
vt 0.768494 0.466673
vt 0.771788 0.458832
vt 0.776153 0.509096
vt 0.771788 0.458832
vt 0.783957 0.598969
vt 0.776153 0.509096
vt 0.747068 0.661592
vt 0.751199 0.710482
vt 0.710833 0.783684
vt 0.718580 0.755968
vt 0.747068 0.661592
vt 0.739917 0.685926
vt 0.739917 0.685926
vt 0.739772 0.686949
vt 0.739772 0.686949
vt 0.719135 0.754159
vt 0.719135 0.754159
vt 0.718580 0.755968
vt 0.756558 0.801700
vt 0.751199 0.710482
vt 0.644661 0.785073
vt 0.691104 0.783893
vt 0.644661 0.785073
vt 0.644986 0.824736
vt 0.644986 0.824736
vt 0.645092 0.826225
vt 0.645092 0.826225
vt 0.650048 0.895854
vt 0.503720 0.749335
vt 0.482765 0.750070
vt 0.503720 0.749335
vt 0.505436 0.713913
vt 0.588766 0.715370
vt 0.605648 0.747290
vt 0.588766 0.715370
vt 0.546575 0.713773
vt 0.546575 0.713773
vt 0.505436 0.713913
vt 0.442105 0.782925
vt 0.429263 0.782749
vt 0.306531 0.818839
vt 0.316149 0.844787
vt 0.306984 0.780340
vt 0.310015 0.780521
vt 0.306531 0.818839
vt 0.310015 0.780521
vt 0.306984 0.780340
vt 0.288400 0.718050
vt 0.286035 0.710909
vt 0.282970 0.753884
vt 0.288400 0.718050
vt 0.286035 0.710909
vt 0.282970 0.753884
vt 0.275038 0.755643
vt 0.000000 0.000000
vt 1.000000 0.000000
vt 0.999975 0.929194
vt 0.001210 0.929277
vt 0.020352 0.000000
vt 0.999516 0.000000
vt 1.000000 0.894496
vt 0.000000 0.895064
vt 0.232184 0.546850
vt 0.245418 0.589375
vt 0.232184 0.546850
vt 0.228720 0.546246
vt 0.228720 0.546246
vt 0.225641 0.539823
vt 0.225641 0.539823
vt 0.212350 0.687554
vt 0.364123 0.972160
vt 0.364791 0.991871
vn 0.419009 0.851152 -0.316183
vn -0.402122 0.859955 -0.314286
vn 0.008704 0.998167 0.059888
vn -0.414984 0.804564 0.424813
vn 0.434491 0.791712 0.429430
vn 0.999954 -0.009560 -0.000037
vn 0.999969 -0.007837 0.000356
vn 0.999969 -0.007837 0.000356
vn 0.999981 -0.006114 0.000750
vn -0.000000 0.932498 -0.361175
vn -0.000000 0.932498 -0.361175
vn -0.000000 0.932498 -0.361175
vn 0.000000 0.932498 -0.361175
vn -1.000000 -0.000012 -0.000028
vn -1.000000 -0.000005 -0.000010
vn -1.000000 -0.000005 -0.000010
vn -1.000000 0.000002 0.000007
vn -0.248684 0.863829 0.438128
vn -0.493968 0.841560 0.218569
vn -0.384350 0.832437 -0.399155
vn -0.383395 0.833412 -0.398036
vn -1.000000 0.000001 -0.000001
vn -1.000000 0.000001 -0.000001
vn -1.000000 0.000001 -0.000001
vn -0.446288 0.894889 -0.000068
vn -0.444940 0.895560 -0.000464
vn -0.444940 0.895560 -0.000464
vn -0.443591 0.896229 -0.000860
vn -0.434572 0.900636 -0.001380
vn -0.435775 0.900055 -0.000702
vn -0.435775 0.900055 -0.000702
vn -0.436976 0.899473 -0.000024
vn 0.082619 0.017958 0.996419
vn 0.065893 0.013351 0.997737
vn 0.065893 0.013351 0.997737
vn 0.049148 0.008740 0.998753
vn 1.000000 -0.000000 0.000000
vn 1.000000 -0.000000 -0.000000
vn 1.000000 -0.000000 0.000000
vn 1.000000 0.000000 -0.000000
vn 1.000000 0.000000 -0.000001
vn -0.415625 0.909536 -0.000013
vn -0.415625 0.909536 -0.000013
vn -0.415625 0.909536 -0.000013
vn -0.414906 0.909864 0.000438
vn -0.414906 0.909864 0.000438
vn -0.414906 0.909864 0.000438
vn -0.417259 0.908787 -0.000166
vn -0.417259 0.908787 -0.000166
vn -0.417259 0.908787 -0.000166
vn -0.416976 0.908917 -0.000014
vn -0.416976 0.908917 -0.000014
vn -0.416976 0.908917 -0.000014
vn 1.000000 -0.000001 0.000000
vn 1.000000 -0.000001 0.000000
vn 1.000000 -0.000001 0.000000
vn 1.000000 -0.000001 0.000001
vn 1.000000 -0.000001 0.000001
vn 1.000000 0.000000 0.000001
vn 1.000000 0.000000 0.000000
vn 1.000000 0.000000 0.000001
vn 1.000000 0.000000 0.000001
vn 1.000000 0.000000 0.000001
vn 1.000000 0.000000 0.000001
vn 0.999996 0.001839 -0.002090
vn 0.999994 0.000917 -0.003360
vn 0.999994 0.000917 -0.003360
vn 0.999989 -0.000005 -0.004629
vn -0.000013 -0.000081 1.000000
vn -0.000012 -0.000091 1.000000
vn -0.000015 -0.000097 1.000000
vn -0.000012 -0.000096 1.000000
vn -0.000007 -0.000077 1.000000
vn -0.000002 -0.000002 1.000000
vn -0.000001 -0.000002 1.000000
vn -0.000001 -0.000002 1.000000
vn 0.000001 -0.000002 1.000000
vn 0.000001 -0.000002 1.000000
vn 0.000002 -0.000002 1.000000
vn 1.000000 -0.000020 0.000001
vn 1.000000 -0.000020 0.000001
vn 1.000000 -0.000020 0.000001
vn 1.000000 -0.000020 0.000001
vn 0.000002 1.000000 -0.000008
vn 0.000001 1.000000 -0.000008
vn 0.000009 1.000000 -0.000009
vn 0.000013 1.000000 -0.000013
vn 0.000016 1.000000 -0.000011
vn 0.000006 1.000000 -0.000003
vn 1.000000 -0.000023 0.000001
vn 1.000000 -0.000022 0.000001
vn 1.000000 -0.000022 0.000001
vn 1.000000 -0.000020 0.000001
vn -0.000000 1.000000 -0.000028
vn -0.000016 1.000000 -0.000017
vn -0.000020 1.000000 -0.000015
vn -0.000027 1.000000 -0.000011
vn -0.000023 1.000000 -0.000013
vn -0.000023 1.000000 -0.000013
vn 1.000000 -0.000003 0.000006
vn 1.000000 -0.000002 0.000010
vn 1.000000 -0.000002 0.000010
vn 1.000000 -0.000000 0.000014
vn 0.359789 0.872304 0.331115
vn 0.360493 0.871647 0.332079
vn 0.483652 0.835396 -0.261142
vn 0.240162 0.819091 -0.520973
vn 0.000011 1.000000 -0.000036
vn -0.000005 1.000000 -0.000044
vn -0.000001 1.000000 -0.000054
vn -0.000008 1.000000 -0.000063
vn 0.000005 1.000000 -0.000074
vn 0.000002 -0.000196 1.000000
vn 0.000005 -0.000180 1.000000
vn 0.000005 -0.000180 1.000000
vn 0.000007 -0.000164 1.000000
vn 0.000000 1.000000 0.000000
vn 0.000000 1.000000 0.000000
vn 0.000000 1.000000 0.000000
vn 0.000000 1.000000 0.000000
vn -0.000072 0.018260 0.999833
vn 0.000680 0.018011 0.999838
vn 0.000680 0.018011 0.999838
vn 0.001431 0.017763 0.999841
vn -0.000000 0.000000 1.000000
vn -0.000000 0.000000 1.000000
vn -0.000000 0.000000 1.000000
vn 0.000000 0.000000 1.000000
vn -1.000000 0.000000 0.000000
vn -1.000000 0.000000 0.000000
vn -1.000000 0.000000 0.000000
vn -1.000000 0.000000 0.000000
vn -0.493510 -0.050263 -0.868287
vn -0.473345 -0.044349 -0.879760
vn -0.473345 -0.044349 -0.879760
vn -0.452909 -0.038410 -0.890729
vn -0.000002 -0.000008 1.000000
vn -0.000002 -0.000006 1.000000
vn -0.000002 -0.000006 1.000000
vn -0.000001 -0.000004 1.000000
vn -0.000052 1.000000 -0.000057
vn -0.000016 1.000000 -0.000104
vn -0.000016 1.000000 -0.000104
vn 0.000019 1.000000 -0.000151
vn 0.000009 1.000000 -0.000055
vn -0.000005 1.000000 -0.000039
vn -0.000005 1.000000 -0.000039
vn -0.000018 1.000000 -0.000022
vn 0.999998 0.000054 -0.002092
vn 0.999998 0.000018 -0.002078
vn 0.999998 0.000018 -0.002078
vn 0.999998 -0.000018 -0.002065
vn 0.999970 -0.007451 -0.002107
vn 0.999862 -0.016615 0.000572
vn 0.999862 -0.016615 0.000572
vn 0.999662 -0.025779 0.003251
vn -0.000002 0.000000 1.000000
vn -0.000000 0.000000 1.000000
vn -0.000000 0.000000 1.000000
vn 0.000002 0.000000 1.000000
vn -0.999995 -0.001682 0.002675
vn -0.999999 -0.000837 0.001330
vn -0.999999 -0.000837 0.001330
vn -1.000000 0.000007 -0.000015
vn 0.000008 1.000000 -0.000003
vn 0.000005 1.000000 -0.000004
vn 0.000006 1.000000 -0.000008
vn 0.000006 1.000000 -0.000014
vn 0.000007 1.000000 -0.000017
vn 0.000006 1.000000 -0.000016
vn 0.000007 1.000000 -0.000016
vn 0.000008 1.000000 -0.000017
vn 0.999998 -0.000036 -0.002104
vn 0.999998 -0.000018 -0.002085
vn 0.999998 -0.000018 -0.002085
vn 0.999998 -0.000000 -0.002065
vn 0.999177 -0.039463 -0.009395
vn 0.999794 -0.019743 -0.004697
vn 0.999908 -0.013169 -0.003131
vn 1.000000 -0.000019 0.000002
vn 1.000000 -0.000022 0.000001
vn -1.000000 0.000001 0.000029
vn -1.000000 0.000001 0.000030
vn -1.000000 0.000001 0.000030
vn -1.000000 0.000001 0.000031
vn 0.563850 0.825152 -0.034611
vn 0.577948 0.815329 -0.034855
vn 0.577948 0.815329 -0.034855
vn 0.591875 0.805266 -0.035088
vn 0.999997 -0.000978 -0.002424
vn 0.999997 -0.000921 -0.002302
vn 0.999997 -0.000921 -0.002302
vn 0.999997 -0.000863 -0.002180
vn -0.032104 -0.000102 0.999485
vn -0.016055 0.006311 0.999851
vn -0.016055 0.006311 0.999851
vn -0.000000 0.012721 0.999919
vn -0.999544 0.019773 0.022815
vn -0.999886 0.009892 0.011401
vn -0.999886 0.009892 0.011401
vn -1.000000 0.000008 -0.000015
vn 0.000000 0.000000 1.000000
vn 0.000000 0.000000 1.000000
vn 0.000000 0.000000 1.000000
vn 0.000000 -0.000000 1.000000
vn -0.000000 -0.000000 1.000000
vn -0.000000 -0.000000 1.000000
vn -0.000001 -0.000000 1.000000
vn 0.000000 -0.000000 1.000000
vn 0.000000 -0.000000 1.000000
vn 0.000000 -0.000000 1.000000
vn 0.000000 -0.000000 1.000000
vn 0.037194 -0.779293 0.625555
vn 0.037194 -0.779293 0.625555
vn 0.037194 -0.779293 0.625555
vn -0.440429 -0.897589 -0.018854
vn -0.440429 -0.897589 -0.018854
vn -0.440429 -0.897589 -0.018854
vn 0.000001 -0.000003 1.000000
vn 0.000000 -0.000003 1.000000
vn 0.000000 -0.000003 1.000000
vn -0.000001 -0.000003 1.000000
vn -1.000000 0.000022 0.000029
vn -1.000000 0.000014 0.000015
vn -1.000000 0.000014 0.000015
vn -1.000000 0.000007 0.000001
vn 0.000000 -0.000003 1.000000
vn 0.000000 -0.000003 1.000000
vn 0.000000 -0.000003 1.000000
vn 0.000000 -0.000003 1.000000
vn 0.000000 -0.000004 1.000000
vn 0.000000 -0.000003 1.000000
vn 0.000000 -0.000003 1.000000
vn 0.000001 -0.000003 1.000000
vn 0.999894 -0.014393 -0.002131
vn 0.999897 -0.014231 -0.001823
vn 0.999897 -0.014231 -0.001823
vn 0.999900 -0.014068 -0.001515
vn 0.460988 0.794284 0.395730
vn 0.450554 0.779034 -0.436013
vn -0.018312 0.983186 0.181686
vn -0.004485 0.737256 0.675599
vn -0.477951 0.783160 0.397772
vn -0.497304 0.754136 -0.428915
vn -0.031140 0.793366 -0.607948
vn 0.080728 0.587442 -0.805230
vn 0.080728 0.587442 -0.805230
vn 0.185020 0.326393 -0.926949
vn -0.038251 0.570214 -0.820605
vn 0.490352 0.705342 -0.511905
vn 0.650095 0.683416 -0.332141
vn -0.004359 0.737258 0.675598
vn 0.001326 0.718328 0.695703
vn -0.003589 0.721707 0.692189
vn -0.003589 0.721707 0.692189
vn -0.008504 0.725052 0.688642
vn 0.000000 1.000000 -0.000000
vn 0.000000 1.000000 0.000001
vn 0.000000 1.000000 0.000001
vn 0.000000 1.000000 0.000002
vn -0.000004 -0.000002 1.000000
vn -0.000005 -0.000003 1.000000
vn -0.000005 -0.000003 1.000000
vn -0.000006 -0.000003 1.000000
vn -1.000000 0.000000 0.000001
vn -1.000000 0.000000 0.000001
vn -1.000000 0.000000 0.000001
vn -1.000000 0.000000 0.000001
vn -1.000000 -0.000000 0.000002
vn -1.000000 0.000000 0.000002
vn -1.000000 0.000000 0.000002
vn -1.000000 0.000001 0.000002
vn -0.003268 0.003397 0.999989
vn -0.003268 0.003397 0.999989
vn -0.003268 0.003397 0.999989
vn 0.000009 -0.000035 1.000000
vn 0.000005 -0.000038 1.000000
vn 0.000005 -0.000038 1.000000
vn 0.000000 -0.000041 1.000000
vn 0.000009 0.001350 0.999999
vn -0.000905 0.001025 0.999999
vn 0.000292 0.001707 0.999999
vn -0.001361 0.000862 0.999999
vn -0.003298 -0.000340 0.999995
vn -0.715094 -0.699027 0.001477
vn -0.715094 -0.699027 0.001477
vn -0.715094 -0.699027 0.001477
vn -0.000004 -0.000024 1.000000
vn -0.000002 -0.000026 1.000000
vn -0.000002 -0.000026 1.000000
vn 0.000000 -0.000028 1.000000
vn -1.000000 0.000000 0.000002
vn -1.000000 0.000000 0.000002
vn -1.000000 0.000000 0.000002
vn -1.000000 0.000000 0.000002
vn -1.000000 0.000000 0.000001
vn -1.000000 -0.000000 0.000001
vn -1.000000 -0.000000 0.000001
vn -1.000000 -0.000000 0.000001
vn -0.998245 -0.000002 0.059216
vn -0.999443 0.015314 0.029649
vn -0.999443 0.015314 0.029649
vn -0.999531 0.030613 0.000049
vn 0.000010 -0.000029 1.000000
vn 0.000010 -0.000029 1.000000
vn 0.000010 -0.000029 1.000000
vn 0.000001 -0.000031 1.000000
vn 0.000001 -0.000031 1.000000
vn 0.000001 -0.000031 1.000000
vn 1.000000 0.000238 0.000066
vn 1.000000 0.000195 0.000057
vn 1.000000 0.000195 0.000057
vn 1.000000 0.000152 0.000048
vn 0.000000 1.000000 0.000000
vn 0.000000 1.000000 0.000000
vn 0.000000 1.000000 0.000000
vn 0.000000 1.000000 0.000000
vn 0.000000 1.000000 0.000000
vn 0.000000 1.000000 0.000000
vn 0.000000 1.000000 0.000000
vn 0.000000 1.000000 0.000000
vn -0.993659 0.000041 0.112435
vn -0.993659 0.000041 0.112435
vn -0.993659 0.000041 0.112435
vn 0.000000 1.000000 0.000069
vn -0.000005 1.000000 0.000074
vn -0.000005 1.000000 0.000074
vn -0.000011 1.000000 0.000080
vn 0.000000 1.000000 0.000001
vn 0.000000 1.000000 0.000000
vn 0.000000 1.000000 0.000000
vn -0.000000 1.000000 -0.000000
vn -0.000000 1.000000 -0.000000
vn -0.000000 1.000000 -0.000000
vn -0.000000 1.000000 0.000000
vn -0.700876 0.712816 -0.025797
vn -0.708854 0.705185 -0.015525
vn -0.705382 0.708566 -0.019248
vn -0.712782 0.701309 -0.010387
vn -0.715717 0.698343 -0.008077
vn -0.010893 0.294025 0.955736
vn -0.010893 0.294025 0.955736
vn -0.010893 0.294025 0.955736
vn 0.019475 0.310470 0.950384
vn 0.019475 0.310470 0.950384
vn 0.019475 0.310470 0.950384
vn -0.007278 0.999906 -0.011638
vn -0.014128 0.999883 -0.005814
vn -0.014128 0.999883 -0.005814
vn -0.020976 0.999780 0.000011
vn -0.007105 0.561167 -0.827672
vn -0.007105 0.561167 -0.827672
vn -0.007105 0.561167 -0.827672
vn -0.269050 0.839036 -0.472896
vn -0.269050 0.839036 -0.472896
vn -0.269050 0.839036 -0.472896
vn 0.822562 -0.011023 0.568568
vn 0.865563 0.007061 0.500750
vn 0.865563 0.007061 0.500750
vn 0.902699 0.025097 0.429540
vn -0.035660 0.999225 -0.016690
vn -0.035660 0.999225 -0.016690
vn -0.035660 0.999225 -0.016690
vn 0.306058 0.886331 -0.347485
vn 0.306058 0.886331 -0.347485
vn 0.306058 0.886331 -0.347485
vn -0.492725 0.808654 -0.321404
vn -0.492725 0.808654 -0.321404
vn -0.492725 0.808654 -0.321404
vn -0.835600 -0.072980 -0.544469
vn -0.909566 -0.038657 -0.413759
vn -0.909566 -0.038657 -0.413759
vn -0.961943 -0.003417 -0.273228
vn 0.575283 0.700520 0.422281
vn 0.575283 0.700520 0.422281
vn 0.575283 0.700520 0.422281
vn -0.701827 0.684257 -0.198070
vn -0.701827 0.684257 -0.198070
vn -0.701827 0.684257 -0.198070
vn -0.690563 0.687431 0.224860
vn -0.690563 0.687431 0.224860
vn -0.690563 0.687431 0.224860
vn -0.199211 0.727660 0.656373
vn -0.199211 0.727660 0.656373
vn -0.199211 0.727660 0.656373
vn -0.333360 0.676618 -0.656550
vn -0.333360 0.676618 -0.656550
vn -0.333360 0.676618 -0.656550
vn 0.203992 0.669287 -0.714452
vn 0.203992 0.669287 -0.714452
vn 0.203992 0.669287 -0.714452
vn 0.519016 0.647256 -0.558285
vn 0.519016 0.647256 -0.558285
vn 0.519016 0.647256 -0.558285
vn 0.689808 0.660530 -0.296420
vn 0.689808 0.660530 -0.296420
vn 0.689808 0.660530 -0.296420
vn 0.735972 0.676941 -0.009790
vn 0.735972 0.676941 -0.009790
vn 0.735972 0.676941 -0.009790
vn 0.324383 0.712091 0.622658
vn 0.324383 0.712091 0.622658
vn 0.324383 0.712091 0.622658
vn -0.289851 0.053276 0.955588
vn -0.334435 0.044070 0.941388
vn -0.334435 0.044070 0.941388
vn -0.378258 0.034764 0.925047
vn 0.408216 0.046298 0.911711
vn 0.430041 0.038225 0.902000
vn 0.430041 0.038225 0.902000
vn 0.451592 0.030129 0.891716
vn -0.678657 0.700339 0.221247
vn -0.678657 0.700339 0.221247
vn -0.678657 0.700339 0.221247
vn -0.950913 0.000258 0.309457
vn -0.950832 0.000207 0.309708
vn -0.950832 0.000207 0.309708
vn -0.950750 0.000157 0.309960
vn -0.260287 0.725981 0.636555
vn -0.260287 0.725981 0.636555
vn -0.260287 0.725981 0.636555
vn -0.341220 0.725617 0.597536
vn -0.341220 0.725617 0.597536
vn -0.341220 0.725617 0.597536
vn -0.640932 0.031824 0.766938
vn -0.570644 0.016083 0.821040
vn -0.570644 0.016083 0.821040
vn -0.495726 0.000212 0.868479
vn -0.373974 0.812327 0.447514
vn -0.373974 0.812327 0.447514
vn -0.373974 0.812327 0.447514
vn -0.726488 0.676697 0.119565
vn -0.726488 0.676697 0.119565
vn -0.726488 0.676697 0.119565
vn -0.986747 0.000255 0.162267
vn -0.989619 -0.004043 0.143660
vn -0.989619 -0.004043 0.143660
vn -0.992122 -0.008339 0.124999
vn -0.878238 0.465247 0.110645
vn -0.878238 0.465247 0.110645
vn -0.878238 0.465247 0.110645
vn -0.000050 1.000000 -0.000031
vn -0.000044 1.000000 -0.000039
vn -0.000035 1.000000 -0.000037
vn -0.000028 1.000000 -0.000040
vn -0.000018 1.000000 -0.000032
vn -0.000051 1.000000 -0.000086
vn -0.000061 1.000000 -0.000080
vn 0.000627 1.000000 -0.000607
vn 0.000966 0.999999 -0.000867
vn 0.002003 0.999997 -0.001661
vn 0.735053 -0.028976 0.677390
vn 0.735053 -0.028976 0.677390
vn 0.735053 -0.028976 0.677390
vn -0.000485 0.802417 -0.596764
vn -0.026238 0.999581 -0.012245
vn -0.026238 0.999581 -0.012245
vn -0.041990 0.815705 0.576942
vn 0.948915 0.012256 0.315294
vn 0.947450 0.011754 0.319689
vn 0.947450 0.011754 0.319689
vn 0.945964 0.011252 0.324078
vn -0.006215 -0.000815 0.999980
vn -0.006215 -0.000815 0.999980
vn -0.006215 -0.000815 0.999980
vn 0.999686 0.001153 0.025041
vn 0.999686 0.001187 0.025037
vn 0.999686 0.001187 0.025037
vn 0.999686 0.001222 0.025033
vn 0.999998 0.002046 0.000028
vn 0.999998 0.001926 0.000001
vn 0.999999 0.001741 0.000014
vn 0.999999 0.001588 0.000006
vn 0.999999 0.001370 0.000039
vn 0.006576 0.000757 0.999978
vn 0.002906 0.011117 0.999934
vn 0.002906 0.011117 0.999934
vn -0.000763 0.021477 0.999769
vn 0.949224 0.006199 0.314541
vn 0.949224 0.006199 0.314541
vn 0.949224 0.006199 0.314541
vn -0.017855 -0.000054 0.999841
vn -0.008930 -0.022899 0.999698
vn -0.008930 -0.022899 0.999698
vn -0.000000 -0.045731 0.998954
vn -0.000872 0.037704 0.999289
vn -0.001679 0.033612 0.999434
vn -0.001679 0.033612 0.999434
vn -0.002486 0.029519 0.999561
vn 0.000000 1.000000 0.000000
vn 0.000000 1.000000 0.000000
vn 0.000000 1.000000 0.000000
vn -0.999170 0.023064 -0.033588
vn -0.999792 0.011531 -0.016799
vn -0.999792 0.011531 -0.016799
vn -1.000000 -0.000006 -0.000003
vn -0.244663 -0.000485 -0.969608
vn -0.244663 -0.000485 -0.969608
vn -0.244663 -0.000485 -0.969608
vn 0.000000 1.000000 0.000000
vn 0.000000 1.000000 0.000000
vn 0.000000 1.000000 0.000000
vn 0.000000 1.000000 0.000000
vn 0.000000 1.000000 0.000000
vn 0.000000 1.000000 0.000000
vn 0.000000 1.000000 0.000000
vn 0.000000 1.000000 0.000000
vn 0.000000 1.000000 0.000000
vn 0.000000 1.000000 0.000000
vn 0.000000 1.000000 0.000000
vn 0.000000 1.000000 0.000000
vn 0.000000 1.000000 0.000000
vn 0.000000 1.000000 0.000000
vn 0.000000 1.000000 0.000000
vn 0.000000 1.000000 -0.000000
vn 0.000000 1.000000 -0.000000
vn 0.000000 1.000000 -0.000000
vn 0.000000 1.000000 -0.000001
vn -0.999307 0.036950 -0.004610
vn -0.999116 0.042032 -0.000848
vn -0.999116 0.042032 -0.000848
vn -0.998885 0.047113 0.002914
vn -0.999757 -0.000016 -0.022063
vn -0.999772 0.018414 -0.010780
vn -0.999772 0.018414 -0.010780
vn -0.999321 0.036837 0.000508
vn 0.000000 0.000000 1.000000
vn 0.000000 0.000000 1.000000
vn -0.000000 0.000000 1.000000
vn -0.000000 0.000000 1.000000
vn -0.000000 0.000000 1.000000
vn -0.560514 0.043305 0.827012
vn -0.560514 0.043305 0.827012
vn -0.560514 0.043305 0.827012
vn -0.015105 0.996779 0.078767
vn -0.015105 0.996779 0.078767
vn -0.015105 0.996779 0.078767
vn -0.000113 1.000000 0.000000
vn -0.000076 1.000000 -0.000065
vn -0.000113 1.000000 0.000000
vn -0.000057 1.000000 -0.000098
vn -0.000002 1.000000 -0.000196
vn 0.000882 -0.000000 1.000000
vn 0.000546 0.000108 1.000000
vn 0.000546 0.000108 1.000000
vn 0.000211 0.000215 1.000000
vn 0.000368 0.999557 -0.029765
vn -0.007410 0.999869 -0.014399
vn -0.009877 0.999905 -0.009597
vn -0.014997 0.999887 0.000489
vn -0.014807 0.999890 0.000006
vn -0.007001 -0.360659 0.932671
vn -0.003465 -0.183434 0.983026
vn -0.003465 -0.183434 0.983026
vn 0.000189 0.000020 1.000000
vn -0.999842 0.017400 -0.003738
vn -0.999814 -0.000121 -0.019312
vn -0.999787 0.020280 -0.003736
vn -0.999389 -0.006406 -0.034374
vn -0.999180 -0.020533 -0.034884
vn -0.999976 -0.005082 -0.004777
vn -0.010700 -0.000049 0.999943
vn -0.011416 0.002241 0.999932
vn -0.006498 0.003362 0.999973
vn -0.011773 0.003387 0.999925
vn -0.021250 0.000000 0.999774
vn -0.014078 0.295346 0.955287
vn -0.014078 0.295346 0.955287
vn -0.014078 0.295346 0.955287
vn -0.999754 0.021885 -0.003542
vn -0.999803 0.019782 -0.001770
vn -0.999819 0.018994 -0.001032
vn -0.999846 0.017548 0.000224
vn -0.999848 0.017417 0.000446
vn 0.000189 -0.000005 1.000000
vn 0.000201 0.000007 1.000000
vn 0.000201 0.000007 1.000000
vn 0.000213 0.000018 1.000000
vn -0.005111 0.000002 0.999987
vn -0.005111 0.000002 0.999987
vn -0.005111 0.000002 0.999987
vn -1.000000 0.000000 0.000000
vn -1.000000 0.000000 0.000000
vn -1.000000 0.000000 0.000000
vn -1.000000 -0.000000 0.000000
vn 0.000077 -0.000836 1.000000
vn 0.000077 -0.000836 1.000000
vn 0.000077 -0.000836 1.000000
vn -1.000000 0.000000 0.000000
vn -1.000000 0.000000 0.000000
vn -1.000000 0.000000 0.000000
vn -1.000000 0.000000 0.000000
vn 0.000000 0.000000 1.000000
vn 0.000000 0.000000 1.000000
vn 0.000000 0.000000 1.000000
vn 0.000000 0.000000 1.000000
vn -0.000000 0.000000 1.000000
vn -0.000000 0.000000 1.000000
vn -0.000000 0.000000 1.000000
vn -1.000000 0.000000 0.000000
vn -0.998934 -0.022425 0.040352
vn -0.998934 -0.022425 0.040352
vn -0.995738 -0.044802 0.080617
vn 0.000003 1.000000 -0.000002
vn -0.007620 0.999962 -0.004194
vn 0.000002 1.000000 -0.000001
vn 0.000004 1.000000 -0.000001
vn -0.010151 0.999826 -0.015648
vn -0.015230 0.999609 -0.023470
vn 0.000033 0.999545 -0.030165
vn -0.131082 0.991342 0.007622
vn -0.131082 0.991342 0.007622
vn -0.131082 0.991342 0.007622
vn 0.000001 -0.000000 1.000000
vn -0.000001 -0.000001 1.000000
vn -0.000001 -0.000001 1.000000
vn -0.000001 -0.000001 1.000000
vn 0.000000 -0.000001 1.000000
vn -0.000042 0.021388 0.999771
vn 0.000355 0.019824 0.999803
vn 0.000355 0.019824 0.999803
vn 0.000752 0.018260 0.999833
vn -0.000009 1.000000 -0.000001
vn -0.000009 1.000000 -0.000000
vn -0.000003 1.000000 -0.000000
vn -0.000000 1.000000 -0.000000
vn 0.000008 1.000000 0.000000
vn -0.000067 0.021388 0.999771
vn 0.000475 0.022097 0.999756
vn 0.000475 0.022097 0.999756
vn 0.001017 0.022806 0.999739
vn -0.999614 0.021120 0.018059
vn -0.999348 0.029995 0.020124
vn -0.999348 0.029995 0.020124
vn -0.998998 0.038869 0.022188
vn -0.000000 1.000000 -0.000000
vn -0.000002 1.000000 -0.000003
vn -0.000002 1.000000 -0.000003
vn -0.000003 1.000000 -0.000004
vn -0.000003 1.000000 -0.000003
vn -0.000003 1.000000 -0.000003
vn -0.003041 0.017465 -0.999843
vn -0.001288 0.009933 -0.999950
vn -0.001288 0.009933 -0.999950
vn 0.000465 0.002400 -0.999997
vn 0.000454 0.017749 -0.999842
vn -0.001591 0.029373 -0.999567
vn -0.001591 0.029373 -0.999567
vn -0.003636 0.040993 -0.999153
vn -0.001754 0.052380 0.998626
vn -0.011292 0.049647 0.998703
vn -0.011292 0.049647 0.998703
vn -0.020828 0.046909 0.998682
vn 0.006257 0.049307 0.998764
vn 0.065225 0.062669 0.995901
vn 0.065225 0.062669 0.995901
vn 0.123954 0.075801 0.989388
vn -0.002449 0.040758 0.999166
vn -0.001476 0.046570 0.998914
vn -0.001476 0.046570 0.998914
vn -0.000503 0.052380 0.998627
vn 0.000048 0.043014 0.999075
vn -0.000223 0.041887 0.999122
vn -0.000223 0.041887 0.999122
vn -0.000495 0.040759 0.999169
vn 0.005620 0.076389 0.997062
vn 0.002562 0.059710 0.998213
vn 0.002562 0.059710 0.998213
vn -0.000497 0.043014 0.999074
vn 0.000008 1.000000 0.000000
vn 0.000008 1.000000 0.000000
vn 0.000008 1.000000 0.000000
vn 0.000008 1.000000 0.000000
vn -0.000704 1.000000 0.000000
vn -0.000704 1.000000 0.000000
vn -0.000704 1.000000 0.000000
vn -0.000704 1.000000 0.000000
vn -0.000704 1.000000 0.000000
vn -0.000704 1.000000 0.000000
vn -0.000704 1.000000 0.000000
vn -0.000704 1.000000 0.000000
vn 0.043814 0.996985 -0.064034
vn 0.022560 0.997964 -0.059662
vn 0.022560 0.997964 -0.059662
vn 0.001295 0.998471 -0.055262
vn 0.999518 -0.028273 0.012825
vn 0.998729 -0.050372 -0.001534
vn 0.998729 -0.050372 -0.001534
vn 0.997247 -0.072435 -0.015892
vn -0.003342 0.001989 -0.999992
vn -0.001430 -0.010296 -0.999946
vn -0.001430 -0.010296 -0.999946
vn 0.000483 -0.022579 -0.999745
vn -0.000704 1.000000 0.000000
vn -0.000704 1.000000 0.000000
vn -0.000704 1.000000 0.000000
vn -0.000704 1.000000 0.000000
vn 0.000143 1.000000 0.000000
vn 0.000143 1.000000 0.000000
vn 0.000143 1.000000 0.000000
vn 0.000143 1.000000 0.000000
vn 0.998316 -0.051738 0.026244
vn 0.996955 -0.075496 0.019511
vn 0.996955 -0.075496 0.019511
vn 0.994985 -0.099207 0.012767
vn 0.045611 0.998675 -0.023818
vn 0.022880 0.999502 -0.021725
vn 0.022880 0.999502 -0.021725
vn 0.000138 0.999808 -0.019621
vn 0.843069 -0.062690 0.534140
vn 0.843069 -0.062690 0.534140
vn 0.843069 -0.062690 0.534140
vn 0.066372 0.434991 0.897986
vn 0.044887 0.518002 0.854201
vn 0.044887 0.518002 0.854201
vn 0.022986 0.596211 0.802498
vn -0.000010 1.000000 -0.000009
vn -0.000010 1.000000 -0.000009
vn -0.000010 1.000000 -0.000009
vn 0.499748 0.739921 0.450299
vn 0.497864 0.742901 0.447470
vn -0.000834 0.668284 0.743906
vn -0.003909 0.673404 0.739265
vn 0.059788 -0.002668 0.998208
vn 0.064593 -0.001359 0.997911
vn 0.064593 -0.001359 0.997911
vn 0.069396 -0.000050 0.997589
vn 1.000000 0.000000 0.000000
vn 1.000000 0.000000 0.000000
vn 1.000000 0.000000 -0.000000
vn 1.000000 0.000000 0.000000
vn 1.000000 0.000001 -0.000000
vn 1.000000 0.000001 -0.000001
vn -0.000695 1.000000 -0.000015
vn -0.000695 1.000000 -0.000015
vn -0.000695 1.000000 -0.000015
vn 1.000000 0.000001 0.000000
vn 1.000000 -0.000000 0.000000
vn 1.000000 -0.000001 0.000000
vn 1.000000 -0.000000 0.000000
vn 1.000000 0.000001 0.000000
vn 1.000000 0.000000 0.000000
vn 1.000000 0.000000 0.000000
vn 1.000000 -0.000001 0.000000
vn 1.000000 -0.000001 0.000000
vn 1.000000 -0.000002 0.000000
vn 1.000000 -0.000002 0.000000
vn 0.000780 0.000188 1.000000
vn 0.000898 0.000198 1.000000
vn 0.000898 0.000198 1.000000
vn 0.001016 0.000209 0.999999
vn 0.000674 0.000013 1.000000
vn 0.000729 0.000017 1.000000
vn 0.000729 0.000017 1.000000
vn 0.000784 0.000020 1.000000
vn -0.039443 0.998913 -0.024851
vn -0.006831 0.999973 -0.002888
vn -0.013642 0.999890 -0.005765
vn 0.006075 0.999959 0.006658
vn -0.000023 1.000000 -0.000013
vn -0.000023 1.000000 -0.000013
vn -0.431476 0.901140 -0.042135
vn -0.487886 0.872646 -0.021365
vn -0.487886 0.872646 -0.021365
vn -0.542138 0.840289 -0.000500
vn 0.000703 0.000188 1.000000
vn 0.000647 0.000173 1.000000
vn 0.000647 0.000173 1.000000
vn 0.000592 0.000158 1.000000
vn 0.000695 0.000012 1.000000
vn 0.000714 0.000015 1.000000
vn 0.000714 0.000015 1.000000
vn 0.000734 0.000018 1.000000
vn -0.999999 -0.000770 0.001141
vn -0.999999 -0.000719 0.000983
vn -0.999999 -0.000719 0.000983
vn -0.999999 -0.000668 0.000824
vn 0.998339 0.055081 -0.016923
vn 0.999904 0.013004 -0.004891
vn 0.999904 0.013004 -0.004891
vn 0.999551 -0.029097 0.007150
vn 0.998480 0.053092 -0.014803
vn 0.999600 0.026669 -0.009468
vn 0.999600 0.026669 -0.009468
vn 0.999991 0.000227 -0.004127
vn -0.000026 1.000000 0.000002
vn -0.000026 1.000000 0.000002
vn -0.000026 1.000000 0.000002
vn 0.817674 0.044441 0.573963
vn 0.790832 0.049202 0.610053
vn 0.790832 0.049202 0.610053
vn 0.762372 0.053863 0.644894
vn -0.000004 1.000000 0.000051
vn -0.000002 1.000000 0.000024
vn -0.000001 1.000000 0.000015
vn 0.000000 1.000000 -0.000003
vn -0.000000 1.000000 -0.000003
vn 0.000000 1.000000 0.000000
vn 0.000000 1.000000 0.000000
vn 0.000000 1.000000 0.000000
vn -0.000000 1.000000 -0.000000
vn 0.000000 1.000000 0.000000
vn 0.000000 1.000000 0.000000
vn 0.000000 1.000000 0.000000
vn 0.000000 1.000000 0.000000
vn 0.000000 1.000000 -0.000004
vn 0.000000 1.000000 -0.000004
vn 0.000000 1.000000 -0.000004
vn -0.006389 -0.000808 0.999979
vn -0.006265 -0.000436 0.999980
vn -0.006265 -0.000436 0.999980
vn -0.006140 -0.000065 0.999981
vn -0.000000 1.000000 -0.000000
vn 0.000000 1.000000 -0.000002
vn 0.000002 1.000000 -0.000001
vn 0.000001 1.000000 -0.000002
vn 0.000002 1.000000 -0.000001
vn 0.000002 1.000000 -0.000001
vn 0.000002 1.000000 -0.000000
vn 0.000003 1.000000 -0.000000
vn -0.000022 1.000000 -0.000015
vn -0.000022 1.000000 -0.000015
vn -0.000022 1.000000 -0.000015
vn -0.000001 -0.000002 1.000000
vn -0.000000 -0.000002 1.000000
vn -0.000000 -0.000002 1.000000
vn -0.000000 -0.000002 1.000000
vn -0.000000 -0.000002 1.000000
vn 1.000000 0.000004 -0.000007
vn 1.000000 0.000009 0.000003
vn 1.000000 0.000009 0.000003
vn 1.000000 0.000014 0.000013
vn 1.000000 0.000042 -0.000063
vn 1.000000 0.000026 -0.000102
vn 1.000000 0.000026 -0.000102
vn 1.000000 0.000010 -0.000141
vn -0.000095 0.930950 -0.365147
vn -0.000047 0.930979 -0.365072
vn -0.000047 0.930979 -0.365072
vn 0.000000 0.931009 -0.364997
vn 0.000000 -0.000002 1.000000
vn 0.000000 -0.000002 1.000000
vn 0.000000 -0.000002 1.000000
vn 0.000000 -0.000002 1.000000
vn 0.000000 -0.000002 1.000000
vn 0.485614 -0.831457 0.269923
vn 0.485614 -0.831457 0.269923
vn 0.485614 -0.831457 0.269923
vn -0.000002 1.000000 -0.000000
vn -0.000002 1.000000 -0.000002
vn -0.000001 1.000000 -0.000003
vn -0.000001 1.000000 -0.000008
vn -0.000002 1.000000 -0.000009
vn 0.000000 1.000000 -0.000017
vn 0.000000 1.000000 -0.000001
vn 0.000000 1.000000 0.000000
vn 0.000000 1.000000 0.000000
vn 0.000000 1.000000 0.000001
vn 0.000129 0.000072 1.000000
vn 0.000117 0.000065 1.000000
vn 0.000117 0.000065 1.000000
vn 0.000105 0.000057 1.000000
vn -0.999928 0.000001 -0.012029
vn -0.999928 0.000001 -0.012028
vn -0.999928 0.000001 -0.012028
vn -0.999928 0.000001 -0.012028
vn -0.994636 0.000007 0.103434
vn -0.994377 -0.002143 0.105874
vn -0.994377 -0.002143 0.105874
vn -0.994108 -0.004293 0.108313
vn -0.994576 -0.011008 0.103427
vn -0.994941 -0.005494 0.100315
vn -0.994941 -0.005494 0.100315
vn -0.995265 0.000019 0.097199
vn 0.002276 -0.000053 0.999997
vn 0.001868 0.000680 0.999998
vn 0.001868 0.000680 0.999998
vn 0.001460 0.001414 0.999998
vn -0.000042 0.000003 1.000000
vn -0.000043 0.000004 1.000000
vn -0.000043 0.000004 1.000000
vn -0.000044 0.000005 1.000000
vn -0.017787 0.017736 0.999685
vn -0.015783 0.008823 0.999837
vn -0.015783 0.008823 0.999837
vn -0.013777 -0.000090 0.999905
vn 0.000001 -0.000001 1.000000
vn -0.000008 -0.000015 1.000000
vn -0.000032 0.000557 1.000000
vn -0.000019 -0.000041 1.000000
vn -0.000051 0.000753 1.000000
vn -0.000038 0.000003 1.000000
vn -0.000065 0.001156 0.999999
vn 0.000000 1.000000 0.000000
vn -0.000003 1.000000 0.000010
vn -0.000003 1.000000 0.000007
vn -0.000004 1.000000 0.000010
vn -0.000002 1.000000 0.000001
vn 0.000148 1.000000 -0.000010
vn 0.000155 1.000000 -0.000003
vn 0.000154 1.000000 -0.000004
vn 0.000159 1.000000 0.000001
vn 0.000158 1.000000 -0.000001
vn 0.999992 -0.000002 0.003977
vn 0.999645 0.026633 -0.000188
vn 0.999645 0.026633 -0.000188
vn 0.998572 0.053248 -0.004352
vn 0.999074 0.042942 -0.002864
vn 0.998836 0.048091 -0.003784
vn 0.998836 0.048091 -0.003784
vn 0.998571 0.053240 -0.004704
vn -0.000000 1.000000 -0.000001
vn -0.000000 1.000000 -0.000000
vn -0.000000 1.000000 -0.000000
vn -0.000000 1.000000 0.000000
vn 0.000000 1.000000 0.000000
vn 0.000000 1.000000 0.000000
vn 0.000000 1.000000 0.000000
vn 0.000000 1.000000 0.000000
vn 0.000000 1.000000 0.000000
vn 0.000000 1.000000 -0.000000
vn 0.000000 1.000000 0.000000
vn 0.004589 0.002238 0.999987
vn 0.004310 0.001197 0.999990
vn 0.004310 0.001197 0.999990
vn 0.004032 0.000156 0.999992
vn -0.000045 1.000000 0.000011
vn -0.000036 1.000000 0.000007
vn -0.000036 1.000000 0.000007
vn -0.000027 1.000000 0.000002
vn 0.000000 1.000000 -0.000000
vn 0.000000 1.000000 0.000000
vn 0.000000 1.000000 0.000000
vn 0.000000 1.000000 0.000000
vn 0.005730 0.008955 -0.999944
vn -0.006353 -0.000433 -0.999980
vn -0.006353 -0.000433 -0.999980
vn -0.018434 -0.009822 -0.999782
vn -0.999721 -0.023063 0.005162
vn -0.999922 -0.012472 0.000565
vn -0.999922 -0.012472 0.000565
vn -0.999990 -0.001879 -0.004032
vn -0.019939 0.999767 -0.008316
vn -0.009983 0.999925 -0.007133
vn -0.009983 0.999925 -0.007133
vn -0.000026 0.999982 -0.005950
vn 0.000000 1.000000 0.000000
vn 0.000000 1.000000 0.000000
vn 0.000000 1.000000 0.000000
vn 0.000000 1.000000 0.000000
vn 0.000000 1.000000 0.000000
vn 0.000025 0.000107 1.000000
vn 0.000021 0.000121 1.000000
vn 0.000021 0.000121 1.000000
vn 0.000017 0.000136 1.000000
vn -0.999977 -0.000929 -0.006766
vn -0.999927 -0.012077 -0.000901
vn -0.999927 -0.012077 -0.000901
vn -0.999718 -0.023224 0.004965
vn -0.000036 1.000000 0.000023
vn -0.000033 1.000000 0.000020
vn -0.000033 1.000000 0.000020
vn -0.000029 1.000000 0.000018
vn -0.000037 1.000000 0.000051
vn -0.000020 1.000000 0.000032
vn -0.000020 1.000000 0.000032
vn -0.000004 1.000000 0.000012
vn -0.013592 0.999894 0.005246
vn -0.016836 0.999847 0.004776
vn -0.016836 0.999847 0.004776
vn -0.020081 0.999789 0.004305
vn -0.999116 0.040438 -0.011488
vn -0.999116 0.040438 -0.011488
vn -0.999116 0.040438 -0.011488
vn 0.947533 -0.015117 0.319299
vn 0.947533 -0.015117 0.319299
vn 0.947533 -0.015117 0.319299
vn 0.999997 0.001480 -0.002115
vn 0.999985 0.005360 -0.001222
vn 0.999985 0.005360 -0.001222
vn 0.999957 0.009241 -0.000329
vn -0.000039 -0.000038 1.000000
vn -0.000044 -0.000010 1.000000
vn -0.000044 -0.000018 1.000000
vn -0.000046 0.000004 1.000000
vn -0.000043 0.000005 1.000000
vn -0.012418 0.040260 0.999112
vn -0.006247 0.020115 0.999778
vn -0.006247 0.020115 0.999778
vn -0.000074 -0.000038 1.000000
vn -0.000000 1.000000 0.000001
vn -0.000000 1.000000 0.000001
vn -0.000000 1.000000 0.000001
vn 0.999964 0.008382 0.000959
vn 0.999964 0.008441 0.000479
vn 0.999964 0.008441 0.000479
vn 0.999964 0.008500 0.000000
vn 0.999960 0.008929 0.000886
vn 0.999961 0.008818 0.000941
vn 0.999960 0.008854 0.000923
vn 0.999961 0.008780 0.000959
vn 0.999961 0.008781 0.000959
vn 0.999961 0.008781 0.000959
vn -0.074275 -0.997238 -0.000831
vn -0.074849 -0.997195 0.000077
vn -0.074849 -0.997195 0.000077
vn -0.075423 -0.997151 0.000985
vn 0.999959 0.008982 0.000960
vn 0.999959 0.008998 0.000843
vn 0.999959 0.008998 0.000843
vn 0.999959 0.009014 0.000727
vn -0.006330 0.999928 0.010205
vn -0.003117 0.999982 0.005102
vn -0.002044 0.999992 0.003402
vn 0.000099 1.000000 0.000000
vn 0.000103 1.000000 0.000000
vn -0.006631 0.026155 0.999636
vn 0.003265 0.020396 0.999787
vn 0.003265 0.020396 0.999787
vn 0.013160 0.014635 0.999806
vn 0.998245 -0.015486 0.057153
vn 0.998299 -0.015157 0.056290
vn 0.998299 -0.015157 0.056290
vn 0.998353 -0.014829 0.055427
vn -0.051465 -0.029174 -0.998249
vn -0.071212 -0.017229 -0.997312
vn -0.071212 -0.017229 -0.997312
vn -0.090921 -0.005275 -0.995844
vn -0.000000 1.000000 0.000000
vn -0.000000 1.000000 0.000053
vn -0.000000 1.000000 0.000131
vn -0.000000 1.000000 0.000132
vn 0.000000 1.000000 0.000000
vn -0.000000 1.000000 0.000000
vn 0.000000 1.000000 0.000000
vn -0.000769 -0.000707 -0.999999
vn -0.002531 0.013177 -0.999910
vn -0.001418 0.005386 -0.999985
vn -0.003412 0.020119 -0.999792
vn -0.004758 0.028757 -0.999575
vn -0.000146 0.983044 -0.183372
vn -0.000051 0.998117 -0.061332
vn -0.000073 0.995752 -0.092076
vn -0.000003 1.000000 0.000035
vn -0.000006 1.000000 0.000067
vn -0.000002 1.000000 0.000001
vn -0.000002 1.000000 0.000000
vn -0.000002 1.000000 0.000000
vn -0.000002 1.000000 0.000000
vn -0.000486 -0.000206 -1.000000
vn -0.000455 -0.000102 -1.000000
vn -0.000455 -0.000102 -1.000000
vn -0.000424 0.000002 -1.000000
vn -0.999951 0.000005 0.009896
vn -0.999930 -0.001435 0.011712
vn -0.999930 -0.001435 0.011712
vn -0.999904 -0.002875 0.013527
vn -0.054496 0.751088 -0.657949
vn -0.435379 0.819568 -0.372496
vn -0.550940 0.797841 -0.244776
vn -0.272558 0.783097 0.558991
vn -0.543309 0.792467 0.277150
vn -0.004021 0.673407 0.739261
vn -0.000858 0.678596 0.734511
vn 0.000130 0.000057 1.000000
vn 0.000118 0.000049 1.000000
vn 0.000118 0.000049 1.000000
vn 0.000106 0.000042 1.000000
vn -1.000000 -0.000001 -0.000000
vn -0.999982 0.001435 -0.005820
vn -0.999982 0.001435 -0.005820
vn -0.999928 0.002871 -0.011640
vn 0.000498 -1.000000 -0.000001
vn 0.000491 -1.000000 -0.000009
vn 0.000491 -1.000000 -0.000009
vn 0.000483 -1.000000 -0.000017
vn -1.000000 -0.000001 0.000000
vn -1.000000 -0.000001 0.000000
vn -1.000000 -0.000001 0.000000
vn -1.000000 -0.000000 0.000000
vn 0.002969 0.000559 0.999995
vn 0.002623 0.000250 0.999997
vn 0.002623 0.000250 0.999997
vn 0.002276 -0.000058 0.999997
vn -0.000597 -0.000069 -1.000000
vn -0.000563 -0.000036 -1.000000
vn -0.000563 -0.000036 -1.000000
vn -0.000528 -0.000002 -1.000000
vn -0.999997 0.002389 0.000031
vn -0.999987 0.001464 0.004984
vn -0.999987 0.001464 0.004984
vn -0.999951 0.000539 0.009937
vn -0.003555 -0.003012 0.999989
vn -0.001116 -0.000944 0.999999
vn -0.001726 -0.001461 0.999997
vn 0.000104 0.000090 1.000000
vn 0.000104 0.000090 1.000000
vn -1.000000 0.000000 0.000000
vn -1.000000 0.000000 0.000000
vn -1.000000 0.000000 0.000000
vn -1.000000 -0.000001 0.000000
vn -1.000000 -0.000001 0.000000
vn -1.000000 -0.000001 0.000000
vn 0.000000 -0.000039 -1.000000
vn 0.000000 -0.000039 -1.000000
vn 0.000000 -0.000039 -1.000000
vn 0.000000 -0.000039 -1.000000
vn 0.915150 0.289561 0.280455
vn 0.915150 0.289561 0.280455
vn 0.915150 0.289561 0.280455
vn 0.915150 0.289562 0.280455
vn 0.953412 0.301667 0.001785
vn 0.953411 0.301668 0.001784
vn 0.953411 0.301668 0.001784
vn 0.953411 0.301668 0.001784
vn 0.952009 0.301224 0.054239
vn 0.821455 0.346136 -0.453213
vn 0.821455 0.346136 -0.453213
vn 0.463711 0.295317 -0.835320
vn 0.000000 0.000096 -1.000000
vn 0.000026 0.000065 -1.000000
vn 0.000026 0.000065 -1.000000
vn 0.000053 0.000034 -1.000000
vn 0.000000 0.000095 -1.000000
vn 0.000000 0.000095 -1.000000
vn 0.000000 0.000095 -1.000000
vn 0.000000 0.000095 -1.000000
vn 0.000563 0.000479 -1.000000
vn 0.000620 0.000283 -1.000000
vn 0.000620 0.000283 -1.000000
vn 0.000676 0.000087 -1.000000
vn 0.991807 0.127669 -0.004504
vn 0.991807 0.127669 -0.004504
vn 0.991807 0.127669 -0.004504
vn 0.991807 0.127669 -0.004504
vn 0.991816 0.127670 0.000636
vn 0.991816 0.127671 0.000636
vn 0.991816 0.127671 0.000636
vn 0.991816 0.127671 0.000636
vn 0.269055 0.034635 0.962502
vn 0.269072 0.034635 0.962497
vn 0.269072 0.034635 0.962497
vn 0.269089 0.034635 0.962492
vn 0.991669 0.127652 -0.017259
vn 0.991669 0.127651 -0.017259
vn 0.991669 0.127651 -0.017259
vn 0.991669 0.127651 -0.017259
vn 0.335190 0.043147 0.941162
vn 0.335188 0.043147 0.941163
vn 0.335188 0.043147 0.941163
vn 0.335186 0.043147 0.941164
vn 0.002493 0.009880 -0.999948
vn 0.004968 0.008108 -0.999955
vn 0.004968 0.008108 -0.999955
vn 0.007443 0.006337 -0.999952
vn -0.013027 0.330228 -0.943811
vn -0.013027 0.330229 -0.943811
vn -0.013027 0.330229 -0.943811
vn -0.013027 0.330229 -0.943811
vn 0.999999 -0.001239 -0.000049
vn 0.999999 -0.000888 0.000744
vn 0.999999 -0.000888 0.000744
vn 0.999999 -0.000538 0.001538
vn 0.688378 0.724785 0.028684
vn 0.688381 0.724782 0.028686
vn 0.688381 0.724782 0.028686
vn 0.688384 0.724779 0.028687
vn 1.000000 0.000069 -0.000099
vn 1.000000 0.000085 -0.000047
vn 1.000000 0.000085 -0.000047
vn 1.000000 0.000101 0.000004
vn -0.000002 0.000002 -1.000000
vn -0.000004 0.000001 -1.000000
vn -0.000004 0.000001 -1.000000
vn -0.000005 -0.000000 -1.000000
vn 0.000000 0.000000 -1.000000
vn -0.000000 0.000000 -1.000000
vn -0.000000 0.000000 -1.000000
vn -0.000001 0.000000 -1.000000
vn -0.269406 0.000000 -0.963027
vn -0.269404 0.000000 -0.963027
vn -0.269404 0.000000 -0.963027
vn -0.269401 0.000000 -0.963028
vn 0.048482 0.000000 -0.998824
vn 0.048482 0.000000 -0.998824
vn 0.048482 0.000000 -0.998824
vn 0.048482 0.000000 -0.998824
vn -0.000001 0.000000 -1.000000
vn -0.000002 0.000000 -1.000000
vn -0.000002 0.000000 -1.000000
vn -0.000002 0.000000 -1.000000
vn 0.000002 0.000000 -1.000000
vn 0.000001 0.000000 -1.000000
vn 0.000001 0.000000 -1.000000
vn -0.000001 0.000000 -1.000000
vn -0.864854 -0.468145 0.181295
vn -0.874348 -0.473073 0.108246
vn -0.874348 -0.473073 0.108246
vn -0.879076 -0.475423 0.034608
vn 0.000000 0.122076 -0.992521
vn -0.177536 0.246184 -0.952825
vn -0.177536 0.246184 -0.952825
vn -0.346463 0.358352 -0.866919
vn -0.811523 -0.000936 -0.584320
vn -0.811523 -0.000937 -0.584320
vn -0.811523 -0.000937 -0.584320
vn -0.811523 -0.000937 -0.584320
vn -0.928048 0.372460 -0.000005
vn -0.928048 0.372460 -0.000005
vn -0.928048 0.372460 -0.000005
vn -0.928048 0.372461 -0.000005
vn 0.293464 -0.000198 -0.955970
vn 0.293465 -0.000198 -0.955970
vn 0.293465 -0.000198 -0.955970
vn 0.293466 -0.000198 -0.955969
vn -0.928048 0.372460 -0.000003
vn -0.928048 0.372459 -0.000003
vn -0.928048 0.372459 -0.000003
vn -0.928049 0.372459 -0.000003
vn -0.072725 0.150453 -0.985939
vn -0.072721 0.150452 -0.985939
vn -0.072721 0.150452 -0.985939
vn -0.072718 0.150452 -0.985939
vn -0.001134 -0.000168 -0.999999
vn -0.002484 -0.000555 -0.999997
vn -0.002484 -0.000555 -0.999997
vn -0.003835 -0.000943 -0.999992
vn 0.001132 -0.001429 -0.999998
vn 0.005269 -0.000302 -0.999986
vn 0.005269 -0.000302 -0.999986
vn 0.009407 0.000824 -0.999955
vn -0.979910 0.199421 0.002660
vn -0.979911 0.199419 0.002660
vn -0.979911 0.199419 0.002660
vn -0.979911 0.199418 0.002660
vn -0.666577 0.135654 -0.732990
vn -0.666576 0.135654 -0.732990
vn -0.666576 0.135654 -0.732990
vn -0.666576 0.135654 -0.732990
vn -0.979914 0.199421 0.000332
vn -0.979914 0.199420 0.000331
vn -0.979914 0.199420 0.000331
vn -0.979914 0.199419 0.000330
vn 0.001439 -0.026683 -0.999643
vn 0.024300 -0.018145 -0.999540
vn 0.024300 -0.018145 -0.999540
vn 0.047148 -0.009595 -0.998842
vn -1.000000 -0.000159 -0.000443
vn -1.000000 -0.000072 -0.000224
vn -1.000000 -0.000072 -0.000224
vn -1.000000 0.000015 -0.000006
vn -0.001315 0.933264 -0.359190
vn -0.000658 0.932885 -0.360173
vn -0.000658 0.932885 -0.360173
vn 0.000000 0.932506 -0.361155
vn 0.000000 0.932466 -0.361258
vn -0.000007 0.932462 -0.361268
vn -0.000007 0.932462 -0.361268
vn -0.000015 0.932458 -0.361277
vn 0.997116 -0.027808 -0.070610
vn 0.999279 -0.013880 -0.035345
vn 0.999279 -0.013880 -0.035345
vn 1.000000 0.000068 -0.000028
vn 0.000000 0.000000 1.000000
vn 0.000000 0.000000 1.000000
vn 0.000000 0.000000 1.000000
vn 0.000000 0.000000 1.000000
vn 0.000000 0.000000 1.000000
vn 0.000000 0.000000 1.000000
vn 0.000000 0.000000 1.000000
vn 0.000000 0.000000 1.000000
vn 0.000000 0.000000 1.000000
vn 0.000000 0.000000 1.000000
vn 0.000000 0.936238 -0.351367
vn -0.002971 0.934461 -0.356054
vn -0.002971 0.934461 -0.356054
vn -0.005942 0.932652 -0.360729
vn 0.000000 0.000000 1.000000
vn 0.000000 0.000000 1.000000
vn 0.000000 0.000000 1.000000
vn 0.000000 0.000000 1.000000
vn 0.000000 0.000000 1.000000
vn 0.000000 0.000000 1.000000
vn 0.000000 0.000000 1.000000
vn 0.000000 0.000000 1.000000
vn 0.000000 0.000000 1.000000
vn 0.000000 0.000000 1.000000
vn -0.000015 0.932467 -0.361255
vn -0.000008 0.932471 -0.361246
vn -0.000008 0.932471 -0.361246
vn 0.000000 0.932474 -0.361237
f 50/49/1 49/302/2 48/48/3
f 52/51/4 51/52/5 48/48/3
f 51/52/5 50/49/1 48/48/3
f 49/302/2 52/51/4 48/48/3
f 79/78/6 75/74/7 73/72/8
f 73/72/8 75/74/7 74/73/9
f 184/173/10 192/190/11 175/174/12
f 175/174/12 192/190/11 193/191/13
f 192/190/14 184/173/15 183/172/16
f 183/172/16 184/173/15 195/193/17
f 17/17/18 52/51/19 13/300/20
f 13/300/20 52/51/19 49/301/21
f 132/136/22 203/202/23 204/201/24
f 229/227/25 210/208/26 228/226/27
f 228/226/27 210/208/26 232/230/28
f 230/228/29 224/222/30 231/229/31
f 231/229/31 224/222/30 227/225/32
f 231/229/33 227/225/34 232/230/35
f 232/230/35 227/225/34 228/226/36
f 229/227/37 228/226/38 226/224/39
f 226/224/39 228/226/38 241/239/40
f 228/226/38 227/225/41 241/239/40
f 225/223/42 236/234/43 226/224/44
f 236/234/45 225/223/46 233/231/47
f 235/233/48 221/219/49 234/232/50
f 221/219/51 235/233/52 222/220/53
f 221/219/54 222/220/55 218/216/56
f 218/216/56 222/220/55 243/242/57
f 222/220/55 244/241/58 243/242/57
f 241/239/59 242/240/60 226/224/61
f 242/240/60 244/241/62 226/224/61
f 226/224/61 244/241/62 225/223/63
f 244/241/62 222/220/64 225/223/63
f 139/143/65 253/251/66 255/253/67
f 255/253/67 253/251/66 254/252/68
f 76/75/69 33/33/70 75/74/71
f 75/74/71 33/33/70 115/118/72
f 33/33/70 31/31/73 115/118/72
f 197/196/74 199/198/75 131/135/76
f 199/198/75 184/173/77 131/135/76
f 131/135/76 184/173/77 196/194/78
f 184/173/77 175/174/79 196/194/78
f 114/117/80 31/31/81 112/115/82
f 112/115/82 31/31/81 33/33/83
f 9/9/84 113/116/85 196/194/86
f 113/116/85 112/115/87 196/194/86
f 112/115/87 33/33/88 196/194/86
f 33/33/88 131/135/89 196/194/86
f 109/112/90 110/113/91 112/115/92
f 112/115/92 110/113/91 114/117/93
f 112/115/94 113/116/95 109/112/96
f 113/116/95 218/216/97 109/112/96
f 218/216/97 243/242/98 109/112/96
f 243/242/98 111/114/99 109/112/96
f 194/192/100 261/259/101 262/260/102
f 262/260/102 261/259/101 174/175/103
f 39/39/104 51/52/105 17/17/18
f 17/17/18 51/52/105 52/51/19
f 38/38/106 13/12/20 50/49/107
f 50/49/107 13/12/20 49/50/21
f 50/49/107 51/52/105 38/38/106
f 38/38/106 51/52/105 39/39/104
f 78/77/108 75/74/109 139/143/110
f 75/74/109 84/83/111 139/143/110
f 139/143/110 84/83/111 85/84/112
f 84/83/113 75/74/114 83/82/115
f 83/82/115 75/74/114 79/78/116
f 82/81/117 83/82/118 73/72/119
f 73/72/119 83/82/118 79/78/120
f 269/268/121 270/269/122 4/4/123
f 4/4/123 270/269/122 21/21/124
f 274/277/125 146/150/126 272/275/127
f 272/275/127 146/150/126 164/162/128
f 273/276/129 272/275/130 144/148/131
f 144/148/131 272/275/130 164/162/132
f 285/288/133 284/287/134 282/285/135
f 282/285/135 284/287/134 1/1/136
f 74/73/137 29/29/138 73/72/139
f 73/72/139 29/29/138 28/28/140
f 29/29/141 74/73/142 115/118/143
f 115/118/143 74/73/142 75/74/144
f 115/118/145 31/31/146 29/29/147
f 29/29/147 31/31/146 114/117/148
f 139/143/149 255/253/150 245/243/151
f 245/243/151 255/253/150 141/144/152
f 75/74/153 78/77/154 76/75/155
f 76/75/155 78/77/154 77/76/156
f 245/243/157 77/76/158 139/143/159
f 139/143/159 77/76/158 78/77/160
f 256/254/161 142/146/162 248/246/163
f 248/246/163 142/146/162 257/255/164
f 131/135/165 33/33/166 197/196/167
f 33/33/166 76/75/168 197/196/167
f 197/196/167 76/75/168 201/200/169
f 201/200/169 76/75/168 174/175/170
f 174/175/170 76/75/168 142/146/171
f 76/75/168 77/76/172 142/146/171
f 304/310/173 245/243/174 305/311/175
f 305/311/175 245/243/174 141/144/176
f 45/45/177 46/46/178 109/112/179
f 46/46/178 126/130/180 109/112/179
f 109/112/179 126/130/180 110/113/181
f 312/317/182 311/318/183 143/147/184
f 143/147/184 311/318/183 247/245/185
f 305/311/186 299/304/187 304/310/188
f 304/310/188 299/304/187 298/305/189
f 313/320/190 140/145/191 314/319/192
f 314/319/192 140/145/191 246/244/193
f 300/306/194 303/309/195 77/76/196
f 77/76/196 303/309/195 142/146/197
f 303/309/198 302/308/199 142/146/200
f 142/146/200 302/308/199 257/255/201
f 300/306/202 304/310/203 298/305/204
f 315/321/205 314/319/206 258/256/207
f 258/256/207 314/319/206 246/244/208
f 311/318/209 315/321/210 247/245/211
f 247/245/211 315/321/210 258/256/212
f 303/309/213 300/306/214 301/307/215
f 302/308/216 303/309/217 301/307/218
f 304/310/219 300/306/220 245/243/221
f 245/243/221 300/306/220 77/76/222
f 311/318/223 312/317/224 301/307/225
f 301/307/225 312/317/224 302/308/226
f 315/321/227 311/318/228 300/306/229
f 300/306/229 311/318/228 301/307/230
f 314/319/231 315/321/232 298/305/233
f 298/305/233 315/321/232 300/306/234
f 314/319/235 298/305/236 313/320/237
f 313/320/237 298/305/236 299/304/238
f 60/60/239 63/388/240 59/59/241
f 322/328/242 59/59/241 61/61/243
f 62/62/244 61/61/243 59/59/241
f 63/388/240 62/62/244 59/59/241
f 62/62/245 63/388/246 249/247/247
f 249/247/247 63/388/246 250/393/248
f 250/248/249 63/392/250 14/387/251
f 59/59/241 322/328/252 60/60/239
f 155/94/253 156/95/254 93/93/255
f 93/93/255 156/95/254 94/92/256
f 251/249/257 252/250/258 102/105/259
f 102/105/259 252/250/258 93/93/260
f 317/322/261 316/323/262 133/138/263
f 133/138/263 316/323/262 136/140/264
f 137/142/265 318/324/266 133/138/267
f 133/138/267 318/324/266 317/322/268
f 203/202/269 132/136/270 138/141/271
f 138/141/271 132/136/270 134/137/272
f 134/137/273 132/136/274 90/89/275
f 165/163/276 328/334/277 167/165/278
f 167/165/278 328/334/277 329/335/279
f 166/164/280 165/163/281 135/139/282
f 135/139/282 165/163/281 90/89/283
f 165/163/281 134/137/284 90/89/283
f 165/163/285 327/333/286 325/331/287
f 317/322/288 167/165/289 316/323/290
f 316/323/290 167/165/289 168/166/291
f 165/163/292 325/331/293 134/137/294
f 134/137/294 325/331/293 138/141/295
f 167/165/296 317/322/297 326/332/298
f 326/332/298 317/322/297 318/324/299
f 165/163/300 167/165/301 327/333/302
f 327/333/302 167/165/301 326/332/303
f 328/334/304 165/163/305 166/164/306
f 167/165/307 329/335/308 168/166/309
f 86/85/310 85/84/311 83/82/312
f 83/82/312 85/84/311 84/83/313
f 87/86/314 330/336/315 83/82/316
f 83/82/316 330/336/315 86/85/317
f 330/336/318 87/86/319 89/88/320
f 89/88/320 87/86/319 88/87/321
f 71/70/322 67/66/323 70/69/324
f 67/66/325 53/53/326 270/269/327
f 270/269/327 53/53/326 21/21/328
f 104/107/329 103/106/330 102/105/331
f 103/106/330 71/70/332 102/105/331
f 102/105/331 71/70/332 251/249/333
f 251/249/333 71/70/332 101/104/334
f 71/70/332 92/91/335 101/104/334
f 88/87/336 91/90/337 89/88/338
f 89/88/338 91/90/337 132/136/339
f 91/90/337 90/89/340 132/136/339
f 117/121/341 324/330/342 118/122/343
f 37/37/344 333/339/345 158/120/346
f 333/339/347 37/37/348 118/122/349
f 118/122/349 37/37/348 117/121/350
f 171/169/351 282/285/352 283/286/353
f 171/169/354 285/288/355 282/285/356
f 149/153/357 289/292/358 280/283/359
f 280/283/359 289/292/358 288/291/360
f 288/291/361 172/170/362 280/283/363
f 172/170/364 288/291/365 276/279/366
f 285/288/367 171/169/368 277/280/369
f 285/288/370 277/280/371 284/287/372
f 284/287/372 277/280/371 278/281/373
f 279/282/374 289/292/375 149/153/376
f 279/282/377 284/287/378 278/281/379
f 279/282/380 337/343/381 154/156/382
f 279/282/383 335/341/384 275/278/385
f 279/282/386 1/1/387 284/287/388
f 279/282/389 286/289/390 1/1/391
f 286/289/392 279/282/393 217/215/394
f 279/282/395 287/290/396 217/215/397
f 279/282/398 149/153/399 287/290/400
f 289/292/401 279/282/402 275/278/403
f 275/278/404 335/341/405 276/279/406
f 276/279/406 335/341/405 336/342/407
f 288/291/408 289/292/409 276/279/410
f 276/279/410 289/292/409 275/278/411
f 338/344/412 170/168/413 281/284/414
f 337/343/415 338/344/416 154/156/417
f 154/156/417 338/344/416 281/284/418
f 336/342/419 170/168/420 276/279/421
f 335/341/422 279/282/423 154/156/424
f 336/342/425 335/341/426 281/284/427
f 281/284/427 335/341/426 154/156/428
f 170/168/429 336/342/430 281/284/431
f 337/343/432 279/282/433 278/281/434
f 337/343/435 278/281/436 338/344/437
f 338/344/437 278/281/436 277/280/438
f 170/168/439 338/344/440 277/280/441
f 126/130/442 129/133/443 110/113/444
f 129/133/443 29/29/445 110/113/444
f 110/113/444 29/29/445 114/117/446
f 129/133/447 126/130/448 30/30/449
f 126/130/448 46/46/450 30/30/449
f 30/30/449 46/46/450 32/32/451
f 306/312/452 46/46/453 45/45/454
f 307/313/455 306/312/456 47/47/457
f 47/47/457 306/312/456 45/45/458
f 341/346/459 339/345/460 308/314/461
f 308/314/461 339/345/460 32/32/462
f 44/44/463 344/350/464 27/27/465
f 27/27/466 127/132/467 30/30/468
f 30/30/468 127/132/467 129/133/469
f 28/28/470 29/29/471 125/129/472
f 29/29/471 129/133/473 125/129/472
f 125/129/472 129/133/473 127/132/474
f 44/44/475 27/27/476 42/42/477
f 42/42/477 27/27/476 339/345/478
f 339/345/479 341/346/480 42/42/481
f 340/347/482 43/43/483 341/346/484
f 341/346/484 43/43/483 42/42/485
f 339/345/486 27/27/487 32/32/488
f 32/32/488 27/27/487 30/30/489
f 344/350/490 127/132/491 27/27/492
f 119/123/493 105/108/494 94/92/495
f 94/92/495 105/108/494 93/93/496
f 345/351/497 105/108/498 119/123/499
f 93/93/500 105/108/501 102/105/502
f 102/105/502 105/108/501 104/107/503
f 105/108/501 106/109/504 104/107/503
f 116/119/505 88/87/506 35/35/507
f 35/35/507 88/87/506 68/271/508
f 88/87/506 87/86/509 68/271/508
f 68/271/508 87/86/509 82/81/510
f 87/86/509 83/82/511 82/81/510
f 36/36/512 116/119/513 169/167/514
f 116/119/513 35/35/515 169/167/514
f 35/35/515 108/111/516 169/167/514
f 169/167/514 108/111/516 105/108/517
f 108/111/516 106/109/518 105/108/517
f 169/167/519 105/108/520 117/121/521
f 117/121/521 105/108/520 323/329/522
f 36/36/523 169/167/524 37/37/525
f 37/37/525 169/167/524 117/121/526
f 88/87/527 116/119/528 91/90/529
f 116/119/528 36/36/530 91/90/529
f 91/90/529 36/36/530 37/37/531
f 105/108/532 345/351/533 323/329/534
f 120/124/535 345/351/536 119/123/537
f 120/124/538 147/151/539 323/329/540
f 323/329/540 147/151/539 117/121/541
f 147/151/539 324/330/542 117/121/541
f 173/171/543 215/213/544 216/214/545
f 216/214/545 215/213/544 152/154/546
f 94/92/547 156/95/548 119/123/549
f 156/95/548 152/154/550 119/123/549
f 119/123/549 152/154/550 120/124/551
f 159/157/552 153/155/553 334/340/554
f 334/340/554 153/155/553 346/352/555
f 346/352/556 153/155/557 148/152/558
f 148/152/558 153/155/557 171/169/559
f 171/169/559 153/155/557 277/280/560
f 153/155/557 170/168/561 277/280/560
f 153/155/562 159/157/563 170/168/564
f 170/168/564 159/157/563 276/279/565
f 276/279/565 159/157/563 172/170/566
f 345/351/567 120/124/568 323/329/569
f 148/152/570 147/151/571 346/352/572
f 147/151/571 120/124/573 346/352/572
f 346/352/572 120/124/573 152/154/574
f 334/340/575 346/352/576 215/213/577
f 215/213/577 346/352/576 152/154/578
f 213/211/579 214/212/580 145/149/581
f 212/210/582 163/161/583 205/203/584
f 205/203/584 163/161/583 211/209/585
f 214/212/586 213/211/587 6/6/588
f 273/276/589 161/160/590 272/275/591
f 272/275/591 161/160/590 162/159/592
f 162/159/593 160/158/594 272/275/595
f 272/275/595 160/158/594 274/277/596
f 162/159/597 348/354/598 160/158/599
f 163/161/600 162/159/601 211/209/602
f 211/209/602 162/159/601 347/353/603
f 91/90/604 37/37/605 90/89/606
f 90/89/606 37/37/605 135/139/607
f 135/139/607 37/37/605 163/161/608
f 37/37/605 158/120/609 163/161/608
f 158/120/609 6/6/610 163/161/608
f 347/353/611 162/159/612 161/160/613
f 162/159/614 163/161/615 348/354/616
f 163/161/615 6/6/617 348/354/616
f 348/354/616 6/6/617 213/211/618
f 64/63/619 65/64/620 269/268/621
f 269/268/621 65/64/620 270/269/622
f 122/126/623 19/19/624 349/355/625
f 19/19/624 23/23/626 349/355/625
f 55/55/627 349/355/625 23/23/626
f 64/63/628 8/7/629 65/64/630
f 65/64/630 8/7/629 19/19/631
f 8/7/632 7/8/633 19/19/634
f 19/19/634 7/8/633 23/23/635
f 7/8/636 8/7/637 5/5/638
f 8/7/637 64/63/639 5/5/638
f 4/4/640 5/5/638 269/268/641
f 64/63/639 269/268/641 5/5/638
f 5/363/642 3/361/643 351/362/644
f 351/362/644 3/361/643 350/360/645
f 351/362/646 23/358/647 5/363/648
f 5/363/648 23/358/647 7/359/649
f 359/376/650 358/377/651 353/367/652
f 353/367/652 358/377/651 352/366/653
f 361/378/654 360/379/655 355/371/656
f 355/371/656 360/379/655 354/370/657
f 362/380/658 359/376/659 356/373/660
f 356/373/660 359/376/659 353/367/661
f 363/381/662 362/380/663 357/375/664
f 357/375/664 362/380/663 356/373/665
f 360/379/666 363/381/667 354/370/668
f 354/370/668 363/381/667 357/375/669
f 360/379/670 361/378/671 23/369/672
f 23/369/672 361/378/671 55/368/673
f 363/381/674 360/379/675 351/374/676
f 351/374/676 360/379/675 23/369/677
f 362/380/678 363/381/679 350/372/680
f 350/372/680 363/381/679 351/374/681
f 368/385/682 367/386/683 41/40/684
f 41/40/684 367/386/683 24/25/685
f 364/382/686 368/385/687 10/10/688
f 10/10/688 368/385/687 41/40/689
f 3/361/690 10/356/691 350/360/692
f 350/360/692 10/356/691 41/357/693
f 350/372/694 41/364/695 362/380/696
f 362/380/696 41/364/695 359/376/697
f 359/376/698 41/364/699 358/377/700
f 358/377/700 41/364/699 24/365/701
f 365/383/702 364/382/703 40/41/704
f 40/41/704 364/382/703 11/11/705
f 366/384/706 365/383/707 25/24/708
f 25/24/708 365/383/707 40/41/709
f 368/385/710 364/382/711 365/383/712
f 368/385/713 365/383/714 367/386/715
f 367/386/715 365/383/714 366/384/716
f 19/19/717 122/126/718 54/54/719
f 57/57/720 60/60/721 295/298/722
f 295/298/722 60/60/721 322/328/723
f 57/57/720 14/387/251 60/60/721
f 60/60/721 14/387/251 63/392/250
f 237/235/724 223/221/725 230/228/726
f 230/228/726 223/221/725 224/222/727
f 224/222/728 223/221/729 227/225/730
f 223/221/729 240/238/731 227/225/730
f 240/238/731 242/240/732 227/225/730
f 227/225/730 242/240/732 241/239/733
f 223/221/734 369/389/735 220/218/736
f 239/237/737 111/114/738 240/238/739
f 240/238/739 111/114/738 242/240/740
f 111/114/738 243/242/741 242/240/740
f 243/242/741 244/241/742 242/240/740
f 240/238/743 223/221/744 239/237/745
f 239/237/745 223/221/744 219/217/746
f 223/221/744 220/218/747 219/217/746
f 370/390/748 219/217/749 369/389/750
f 369/389/750 219/217/749 220/218/751
f 371/391/752 260/258/753 370/390/754
f 370/390/754 260/258/753 219/217/755
f 45/45/756 109/112/757 47/47/758
f 47/47/758 109/112/757 219/217/759
f 111/114/760 239/237/761 109/112/757
f 109/112/757 239/237/761 219/217/759
f 223/221/762 237/235/763 369/389/764
f 369/389/764 237/235/763 238/236/765
f 369/389/766 238/236/767 370/390/768
f 370/390/768 238/236/767 259/257/769
f 370/390/770 259/257/771 371/391/772
f 371/391/772 259/257/771 209/207/773
f 53/53/774 123/127/775 21/21/776
f 21/21/776 123/127/775 4/4/777
f 372/394/778 15/15/779 297/303/780
f 297/303/780 15/15/779 18/18/781
f 128/131/782 22/22/783 130/134/784
f 130/134/784 22/22/783 2/2/785
f 2/2/786 271/274/787 130/134/788
f 128/131/789 130/134/790 297/303/791
f 297/303/791 130/134/790 372/394/792
f 123/127/793 2/2/794 4/4/795
f 2/2/794 3/3/796 4/4/795
f 4/4/795 3/3/796 5/5/797
f 22/22/798 128/131/799 344/350/800
f 344/350/800 128/131/799 127/132/801
f 127/132/802 297/303/803 125/129/804
f 125/129/804 297/303/803 18/18/805
f 297/303/806 127/132/807 128/131/808
f 44/44/809 2/2/810 344/350/811
f 344/350/811 2/2/810 22/22/812
f 10/10/813 3/3/814 364/382/815
f 3/3/814 2/2/816 364/382/815
f 2/2/816 44/44/817 364/382/815
f 44/44/817 42/42/818 364/382/815
f 42/42/818 43/43/819 364/382/815
f 364/382/815 43/43/819 11/11/820
f 271/274/821 372/394/822 130/134/823
f 199/198/824 197/196/825 200/197/826
f 197/196/825 201/200/827 200/197/826
f 200/197/826 201/200/827 202/199/828
f 176/176/829 174/175/830 191/189/831
f 191/189/831 174/175/830 261/259/832
f 373/395/833 189/187/834 177/177/835
f 177/177/835 189/187/834 178/178/836
f 190/188/837 177/177/838 191/189/839
f 191/189/839 177/177/838 176/176/840
f 201/200/841 174/175/842 202/199/843
f 202/199/843 174/175/842 177/177/844
f 174/175/842 176/176/845 177/177/844
f 373/395/846 177/177/847 190/188/848
f 101/104/849 100/103/850 251/249/851
f 251/249/851 100/103/850 252/250/852
f 100/103/850 96/98/853 252/250/852
f 96/98/853 157/97/854 252/250/852
f 252/250/855 157/97/856 93/93/857
f 93/93/857 157/97/856 155/94/858
f 57/57/859 295/298/860 294/297/861
f 294/297/861 295/298/860 296/299/862
f 375/397/863 157/97/864 319/325/865
f 319/325/865 157/97/864 96/98/866
f 321/327/867 291/294/868 320/326/869
f 320/326/869 291/294/868 293/296/870
f 320/326/871 292/295/872 321/327/873
f 321/327/873 292/295/872 290/293/874
f 319/325/875 96/98/876 320/326/877
f 320/326/877 96/98/876 292/295/878
f 17/17/879 208/206/880 39/39/881
f 39/39/881 208/206/880 207/204/882
f 341/346/883 308/314/884 340/347/885
f 340/347/885 308/314/884 310/315/886
f 11/11/887 43/43/888 40/41/889
f 43/43/888 340/347/890 40/41/889
f 340/347/890 310/315/891 40/41/889
f 309/316/892 25/24/893 310/315/891
f 310/315/891 25/24/893 40/41/889
f 92/91/894 95/96/895 101/104/896
f 95/96/895 124/128/897 101/104/896
f 101/104/896 124/128/897 100/103/898
f 290/293/899 292/295/900 124/128/901
f 124/128/901 292/295/900 100/103/902
f 292/295/900 96/98/903 100/103/902
f 71/70/904 103/106/905 67/66/906
f 67/66/906 103/106/905 332/338/907
f 66/65/908 332/338/909 107/110/910
f 107/110/910 332/338/909 103/106/911
f 108/111/912 107/110/913 106/109/914
f 107/110/913 103/106/915 106/109/914
f 103/106/915 104/107/916 106/109/914
f 125/129/917 18/18/918 28/28/919
f 28/28/919 18/18/918 73/72/920
f 18/18/918 81/80/921 73/72/920
f 81/80/921 82/81/922 73/72/920
f 15/15/923 80/79/924 18/18/925
f 18/18/925 80/79/924 81/80/926
f 80/79/927 15/15/928 271/274/929
f 271/274/929 15/15/928 372/394/930
f 81/80/931 69/270/932 82/81/933
f 82/81/933 69/270/932 68/271/934
f 66/65/935 107/110/936 20/20/937
f 20/20/937 107/110/936 69/68/938
f 72/71/939 331/337/940 16/16/941
f 16/16/941 331/337/940 69/68/942
f 331/337/943 53/53/944 332/338/945
f 332/338/945 53/53/944 67/66/946
f 69/273/947 107/272/948 68/67/949
f 68/67/949 107/272/948 35/35/950
f 107/272/948 108/111/951 35/35/950
f 81/80/952 80/79/953 69/68/954
f 69/68/954 80/79/953 16/16/955
f 123/127/956 53/53/957 72/71/958
f 72/71/958 53/53/957 331/337/959
f 16/16/960 80/79/961 72/71/962
f 72/71/962 80/79/961 271/274/963
f 72/71/964 271/274/965 123/127/966
f 123/127/966 271/274/965 2/2/967
f 20/20/968 331/337/969 66/65/970
f 66/65/970 331/337/969 332/338/971
f 69/68/972 331/337/973 20/20/974
f 308/314/975 32/32/976 34/34/977
f 34/34/978 32/32/979 306/312/980
f 306/312/980 32/32/979 46/46/981
f 310/315/982 26/26/983 309/316/984
f 309/316/984 26/26/983 208/206/985
f 207/204/986 208/206/985 26/26/983
f 308/314/987 34/34/988 310/315/989
f 310/315/989 34/34/988 26/26/990
f 34/34/991 343/349/992 26/26/993
f 206/205/994 263/261/995 12/13/996
f 12/13/996 263/261/995 264/262/997
f 38/38/998 39/39/999 206/205/1000
f 206/205/1000 39/39/999 263/261/1001
f 263/261/1001 39/39/999 265/263/1002
f 39/39/999 207/204/1003 265/263/1002
f 263/261/1004 265/265/1005 268/267/1006
f 268/267/1006 265/265/1005 266/264/1007
f 265/263/1008 207/204/1009 343/349/1010
f 343/349/1010 207/204/1009 26/26/1011
f 374/396/1012 343/349/1013 267/266/1014
f 343/349/1013 342/348/1015 267/266/1014
f 342/348/1015 264/262/1016 267/266/1014
f 264/262/1017 263/261/1018 267/266/1019
f 267/266/1019 263/261/1018 268/267/1020
f 268/267/1021 266/264/1022 267/266/1023
f 267/266/1023 266/264/1022 374/396/1024
f 343/349/1025 374/396/1026 265/263/1027
f 265/263/1027 374/396/1026 266/264/1028
f 34/34/1029 306/312/1030 343/349/1031
f 343/349/1031 306/312/1030 342/348/1032
f 342/348/1032 306/312/1030 264/262/1033
f 307/313/1034 12/13/1035 306/312/1030
f 306/312/1030 12/13/1035 264/262/1033
f 70/69/1036 56/56/1037 71/70/1038
f 71/70/1038 56/56/1037 92/91/1039
f 56/56/1037 95/96/1040 92/91/1039
f 70/69/1041 67/66/1042 56/56/1043
f 56/56/1043 67/66/1042 65/64/1044
f 67/66/1042 270/269/1045 65/64/1044
f 65/64/1046 19/19/1047 56/56/1048
f 56/56/1048 19/19/1047 54/54/1049
f 321/327/1050 290/293/1051 121/125/1052
f 121/125/1052 290/293/1051 124/128/1053
f 121/125/1054 124/128/1055 56/56/1056
f 56/56/1056 124/128/1055 95/96/1057
f 249/247/1058 151/14/1059 62/62/1060
f 61/61/1061 62/62/1060 58/58/1062
f 58/58/1062 62/62/1060 151/14/1059
f 322/328/1063 61/61/1061 295/298/1064
f 295/298/1064 61/61/1061 58/58/1062
f 295/298/1065 58/58/1066 296/299/1067
f 296/299/1067 58/58/1066 97/101/1068
f 150/99/1069 375/397/1070 98/100/1071
f 98/100/1071 375/397/1070 319/325/1072
f 291/294/1073 99/102/1074 293/296/1075
f 293/296/1075 99/102/1074 98/100/1076
f 151/14/1077 98/100/1078 58/58/1079
f 58/58/1079 98/100/1078 99/102/1080
f 293/296/1081 98/100/1082 320/326/1083
f 320/326/1083 98/100/1082 319/325/1084
f 291/294/1085 321/327/1086 99/102/1087
f 99/102/1087 321/327/1086 121/125/1088
f 99/102/1089 121/125/1090 97/101/1091
f 97/101/1091 121/125/1090 56/56/1092
f 56/56/1093 54/54/1094 97/101/1095
f 97/101/1095 54/54/1094 296/299/1096
f 54/54/1094 294/297/1097 296/299/1096
f 98/100/1098 151/14/1099 150/99/1100
f 58/58/1101 99/102/1102 97/101/1103
f 150/14/1104 151/398/1105 377/399/1106
f 377/399/1106 151/398/1105 376/99/1107
f 156/94/1108 155/400/1109 379/401/1110
f 379/401/1110 155/400/1109 378/95/1111
f 152/95/1112 156/402/1113 380/403/1114
f 380/403/1114 156/402/1113 379/154/1115
f 155/97/1116 157/405/1117 378/404/1118
f 378/404/1118 157/405/1117 381/94/1119
f 375/406/1120 382/97/1121 157/397/1122
f 157/397/1122 382/97/1121 381/407/1123
f 375/99/1124 150/408/1125 382/409/1126
f 382/409/1126 150/408/1125 377/397/1127
f 148/411/1128 384/151/1129 147/152/1130
f 147/152/1130 384/151/1129 383/410/1131
f 158/413/1132 386/6/1133 6/120/1134
f 6/120/1134 386/6/1133 385/412/1135
f 324/151/1136 147/414/1137 387/415/1138
f 387/415/1138 147/414/1137 383/330/1139
f 118/330/1140 324/416/1141 388/417/1142
f 388/417/1142 324/416/1141 387/122/1143
f 118/418/1144 388/339/1145 333/122/1146
f 333/122/1146 388/339/1145 389/419/1147
f 158/339/1148 333/420/1149 386/421/1150
f 386/421/1150 333/420/1149 389/120/1151
f 171/422/1152 390/152/1153 148/169/1154
f 148/169/1154 390/152/1153 384/423/1155
f 135/161/1156 163/425/1157 391/424/1158
f 391/424/1158 163/425/1157 392/139/1159
f 166/164/1160 135/427/1161 393/426/1162
f 393/426/1162 135/427/1161 391/139/1163
f 166/429/1164 393/164/1165 328/334/1166
f 328/334/1166 393/164/1165 394/428/1167
f 329/335/1168 328/431/1169 395/430/1170
f 395/430/1170 328/431/1169 394/334/1171
f 85/432/1172 396/143/1173 139/84/1174
f 139/84/1174 396/143/1173 397/433/1175
f 85/85/1176 86/435/1177 396/434/1178
f 396/434/1178 86/435/1177 398/84/1179
f 132/437/1180 400/88/1181 89/136/1182
f 89/136/1182 400/88/1181 399/436/1183
f 330/88/1184 89/438/1185 401/439/1186
f 401/439/1186 89/438/1185 399/336/1187
f 86/336/1188 330/440/1189 398/441/1190
f 398/441/1190 330/440/1189 401/85/1191
f 174/146/1192 142/442/1193 403/443/1194
f 403/443/1194 142/442/1193 402/175/1195
f 175/191/1196 193/445/1197 404/444/1198
f 404/444/1198 193/445/1197 405/174/1199
f 9/194/1200 196/447/1201 406/446/1202
f 406/446/1202 196/447/1201 407/9/1203
f 175/449/1204 404/174/1205 196/194/1206
f 196/194/1206 404/174/1205 407/448/1207
f 113/9/1208 9/450/1209 408/451/1210
f 408/451/1210 9/450/1209 406/116/1211
f 221/216/1212 218/452/1213 410/453/1214
f 410/453/1214 218/452/1213 409/219/1215
f 218/116/1216 113/454/1217 409/455/1218
f 409/455/1218 113/454/1217 408/216/1219
f 221/456/1220 410/232/1221 234/219/1222
f 234/219/1222 410/232/1221 411/457/1223
f 225/459/1224 222/460/1225 233/458/1226
f 233/458/1226 222/460/1225 235/461/1227
f 229/463/1228 226/464/1229 210/462/1230
f 210/462/1230 226/464/1229 236/465/1231
f 219/467/1232 413/47/1233 47/217/1234
f 47/217/1234 413/47/1233 412/466/1235
f 307/47/1236 47/468/1237 414/469/1238
f 414/469/1238 47/468/1237 412/313/1239
f 12/313/1240 307/470/1241 415/471/1242
f 415/471/1242 307/470/1241 414/13/1243
f 206/13/1244 12/472/1245 416/473/1246
f 416/473/1246 12/472/1245 415/205/1247
f 187/185/1248 182/182/1249 186/183/1250
f 186/183/1250 182/182/1249 181/181/1251
f 187/185/1252 183/172/1253 182/182/1254
f 182/182/1254 183/172/1253 195/193/1255
f 418/474/1256 417/475/1257 181/181/1258
f 181/181/1258 417/475/1257 186/183/1259
f 188/186/1260 185/184/1261 179/179/1262
f 179/179/1262 185/184/1261 180/180/1263
f 198/195/1264 179/179/1265 418/474/1266
f 418/474/1266 179/179/1265 180/180/1267
f 198/195/1268 182/182/1269 200/197/1270
f 200/197/1270 182/182/1269 199/198/1271
f 182/182/1269 195/193/1272 199/198/1271
f 195/193/1272 184/173/1273 199/198/1271
f 178/178/1274 189/187/1275 179/179/1276
f 179/179/1276 189/187/1275 188/186/1277
f 200/197/1278 202/199/1279 198/195/1280
f 198/195/1280 202/199/1279 179/179/1281
f 179/179/1281 202/199/1279 178/178/1282
f 202/199/1279 177/177/1283 178/178/1282
f 418/474/1284 181/181/1285 198/195/1286
f 198/195/1286 181/181/1285 182/182/1287
f 417/475/1288 418/474/1289 185/184/1290
f 185/184/1290 418/474/1289 180/180/1291
