# This file uses centimeters as units for non-parametric coordinates.

v -9.776655 2.666470 6.705925
v -9.447113 2.666423 6.706505
v 8.422810 2.679008 6.687094
v 8.685740 2.679005 6.685447
v -2.599903 2.671245 6.723093
v 2.162056 2.674598 6.722718
v -9.776655 1.548044 6.758458
v -9.447113 1.556048 6.764746
v -2.599903 1.554176 6.768661
v 8.685740 1.556900 6.740843
v 8.422810 1.554063 6.773280
v 2.162056 1.559883 6.770711
v -9.776655 -3.433856 6.759775
v -9.447113 -3.402119 6.766597
v -2.599903 -3.381989 6.769845
v 2.162056 -3.333304 6.772042
v 8.422810 -3.468439 6.774980
v 8.685740 -3.486882 6.742074
v -9.776655 -8.985492 6.759863
v -9.447113 -8.894068 6.766730
v -2.599903 -8.930387 6.769934
v 2.162056 -8.962338 6.772154
v 8.422810 -8.982299 6.775079
v 8.685740 -8.992820 6.742142
v -9.776655 -34.830551 6.759875
v -9.447113 -34.832870 6.766749
v -2.599903 -34.906815 6.769947
v 2.162056 -34.958237 6.772169
v 8.422810 -35.025852 6.775092
v 8.685740 -35.034824 6.742152
v -9.834105 -56.742477 6.759499
v -9.502467 -56.744278 6.764303
v -2.612265 -56.791977 6.766537
v 2.178919 -56.825150 6.768089
v 8.477255 -56.868698 6.770130
v 8.741759 -56.872711 6.747114
vt 0.936771 0.294339
vt 0.936316 0.295592
vt 0.962797 0.225525
vt 0.962422 0.226526
vt 0.946150 0.268239
vt 0.952909 0.250109
vt 0.914423 0.287772
vt 0.913910 0.289079
vt 0.924360 0.260385
vt 0.941555 0.215378
vt 0.940520 0.216108
vt 0.931435 0.241333
vt 0.913348 0.288916
vt 0.913713 0.287564
vt 0.923793 0.260181
vt 0.930840 0.241089
vt 0.940088 0.215903
vt 0.941083 0.215153
vt 0.913310 0.288905
vt 0.913662 0.287549
vt 0.923751 0.260166
vt 0.930789 0.241069
vt 0.940063 0.215891
vt 0.941057 0.215141
vt 0.913305 0.288903
vt 0.913654 0.287546
vt 0.923745 0.260164
vt 0.930782 0.241066
vt 0.940059 0.215889
vt 0.941053 0.215139
vt 0.913305 0.288903
vt 0.913654 0.287546
vt 0.923744 0.260163
vt 0.930782 0.241066
vt 0.940059 0.215889
vt 0.941053 0.215139
vn -0.019085 0.000373 0.999818
vn -0.019903 0.000319 0.999802
vn -0.020168 0.000221 0.999797
vn -0.020752 0.000101 0.999785
vn -0.000571 0.000240 1.000000
vn -0.000523 0.000307 1.000000
vn -0.000497 0.000163 1.000000
vn -0.000475 0.000199 1.000000
vn 0.122431 0.000336 0.992477
vn 0.123604 0.000199 0.992332
vn 0.123315 0.000289 0.992368
vn 0.124224 0.000091 0.992254
vn -0.000431 0.000272 1.000000
vn -0.000448 0.000256 1.000000
vn -0.000452 0.000177 1.000000
vn -0.000464 0.000092 1.000000
vn -0.000410 0.000272 1.000000
vn -0.000447 0.000210 1.000000
vn -0.000436 0.000305 1.000000
vn -0.000466 0.000125 1.000000
vn 0.121284 0.075826 0.989717
vn 0.063881 0.062676 0.995987
vn 0.063881 0.062676 0.995987
vn 0.006253 0.049307 0.998764
vn -0.000370 0.043014 0.999074
vn 0.002625 0.059710 0.998212
vn 0.002625 0.059710 0.998212
vn 0.005620 0.076389 0.997062
vn -0.000479 0.040759 0.999169
vn -0.000215 0.041886 0.999122
vn -0.000215 0.041886 0.999122
vn 0.000049 0.043014 0.999074
vn -0.000557 0.052380 0.998627
vn -0.001503 0.046570 0.998914
vn -0.001503 0.046570 0.998914
vn -0.002449 0.040758 0.999166
vn -0.020198 0.046909 0.998695
vn -0.010973 0.049647 0.998707
vn -0.010973 0.049647 0.998707
vn -0.001748 0.052380 0.998626
vn -0.020790 0.000014 0.999784
vn -0.020844 0.000006 0.999783
vn -0.000470 0.000014 1.000000
vn -0.000468 0.000006 1.000000
vn -0.000465 0.000009 1.000000
vn -0.000466 0.000008 1.000000
vn -0.000468 0.000013 1.000000
vn -0.000467 0.000006 1.000000
vn 0.124257 0.000010 0.992250
vn 0.124301 0.000004 0.992245
vn -0.020850 -0.000019 0.999783
vn -0.018735 -0.000013 0.999824
vn -0.000468 -0.000036 1.000000
vn -0.000420 -0.000089 1.000000
vn -0.000467 -0.000051 1.000000
vn -0.000420 -0.000114 1.000000
vn -0.000468 -0.000062 1.000000
vn -0.000420 -0.000138 1.000000
vn 0.124308 0.000028 0.992244
vn 0.111793 0.000178 0.993732
vn -0.017672 -0.000019 0.999844
vn -0.014487 0.000021 0.999895
vn -0.000397 -0.000133 1.000000
vn -0.000325 -0.000156 1.000000
vn -0.000397 -0.000171 1.000000
vn -0.000325 -0.000187 1.000000
vn -0.000397 -0.000207 1.000000
vn -0.000326 -0.000228 1.000000
vn 0.105525 0.000267 0.994417
vn 0.086697 0.000449 0.996235
f 8/7/1 7/8/2 14/14/3
f 14/14/3 7/8/2 13/13/4
f 9/9/5 8/7/6 15/15/7
f 15/15/7 8/7/6 14/14/8
f 11/11/9 17/17/10 10/10/11
f 10/10/11 17/17/10 18/18/12
f 12/12/13 9/9/14 16/16/15
f 16/16/15 9/9/14 15/15/16
f 12/12/17 16/16/18 11/11/19
f 11/11/19 16/16/18 17/17/20
f 11/11/21 10/10/22 3/4/23
f 3/4/23 10/10/22 4/3/24
f 12/12/25 11/11/26 6/6/27
f 6/6/27 11/11/26 3/4/28
f 9/9/29 12/12/30 5/5/31
f 5/5/31 12/12/30 6/6/32
f 8/7/33 9/9/34 2/1/35
f 2/1/35 9/9/34 5/5/36
f 7/8/37 8/7/38 1/2/39
f 1/2/39 8/7/38 2/1/40
f 14/14/3 13/13/4 20/20/41
f 20/20/41 13/13/4 19/19/42
f 14/14/8 20/20/43 15/15/7
f 15/15/7 20/20/43 21/21/44
f 16/16/15 15/15/16 22/22/45
f 22/22/45 15/15/16 21/21/46
f 16/16/18 22/22/47 17/17/20
f 17/17/20 22/22/47 23/23/48
f 17/17/10 23/23/49 18/18/12
f 18/18/12 23/23/49 24/24/50
f 20/20/41 19/19/42 26/26/51
f 26/26/51 19/19/42 25/25/52
f 20/20/43 26/26/53 21/21/44
f 21/21/44 26/26/53 27/27/54
f 21/21/46 27/27/55 22/22/45
f 22/22/45 27/27/55 28/28/56
f 22/22/47 28/28/57 23/23/48
f 23/23/48 28/28/57 29/29/58
f 23/23/49 29/29/59 24/24/50
f 24/24/50 29/29/59 30/30/60
f 26/26/51 25/25/52 32/32/61
f 32/32/61 25/25/52 31/31/62
f 26/26/53 32/32/63 27/27/54
f 27/27/54 32/32/63 33/33/64
f 27/27/55 33/33/65 28/28/56
f 28/28/56 33/33/65 34/34/66
f 28/28/57 34/34/67 29/29/58
f 29/29/58 34/34/67 35/35/68
f 29/29/59 35/35/69 30/30/60
f 30/30/60 35/35/69 36/36/70
