# This file uses centimeters as units for non-parametric coordinates.

v -0.493034 0.500000 0.000000
v -0.493034 -0.500000 0.000000
v 0.490000 0.500000 0.000000
v 0.492777 -0.500000 0.000000
v -0.628613 0.500044 -0.187619
v -0.628613 -0.500763 -0.187619
v 0.628258 0.501619 -0.188621
v 0.632321 -0.500181 -0.188621
v -0.547854 0.500024 -0.026542
v -0.547854 -0.500437 -0.026516
v 0.541918 0.500816 -0.023647
v 0.540383 -0.500075 -0.023647
v -0.599705 0.500034 -0.090062
v -0.599705 -0.500600 -0.090049
v 0.598449 0.501217 -0.093628
v 0.599713 -0.500129 -0.093628
vt 0.010462 0.000000
vt 0.010462 1.000000
vt 0.988778 0.000000
vt 0.988778 1.000000
vt 0.000132 0.000000
vt 0.000132 1.000000
vt 0.999609 0.000000
vt 0.999609 1.000000
vt 0.004693 0.000000
vt 0.004693 1.000000
vt 0.994487 0.000000
vt 0.994487 1.000000
vt 0.002413 0.000000
vt 0.002413 1.000000
vt 0.997048 0.000000
vt 0.997048 1.000000
vn -0.148472 0.000000 0.988917
vn -0.297069 0.000008 0.954856
vn -0.560400 0.000014 0.828222
vn -0.675888 0.000016 0.737004
vn 0.228478 0.000635 0.973549
vn 0.220270 0.000154 0.975439
vn 0.945820 0.003836 0.324667
vn 0.950057 0.002520 0.312066
vn 0.902491 0.002035 0.430704
vn 0.845671 0.000330 0.533704
vn -0.850870 0.000010 0.525376
vn -0.913310 0.000004 0.407266
vn 0.612611 -0.000940 0.790384
vn 0.614570 0.000095 0.788863
vn -0.958797 0.000002 0.284092
vn -0.958792 0.000000 0.284110
f 2/2/1 1/1/2 10/10/3
f 10/10/3 1/1/2 9/9/4
f 4/4/5 3/3/6 2/2/1
f 2/2/1 3/3/6 1/1/2
f 8/8/7 7/7/8 16/16/9
f 16/16/9 7/7/8 15/15/10
f 10/10/3 9/9/4 14/14/11
f 14/14/11 9/9/4 13/13/12
f 11/11/13 3/3/6 12/12/14
f 12/12/14 3/3/6 4/4/5
f 14/14/11 13/13/12 6/6/15
f 6/6/15 13/13/12 5/5/16
f 16/16/9 15/15/10 12/12/14
f 12/12/14 15/15/10 11/11/13
