# This file uses centimeters as units for non-parametric coordinates.

v -0.440578 0.386472 0.000000
v -0.379860 0.448738 0.000000
v -0.277786 0.477495 0.000000
v -0.162621 0.478763 0.000000
v -0.030166 0.478461 0.000000
v 0.218893 0.473949 0.000000
v 0.322479 0.446259 0.000000
v 0.409822 0.297776 0.000000
v 0.403530 0.161722 0.000000
v 0.411137 -0.205052 0.000000
v 0.403527 -0.368253 0.000000
v 0.324486 -0.455049 0.000000
v 0.198132 -0.482345 0.000000
v -0.126812 -0.481305 0.000000
v -0.317252 -0.476585 0.000000
v -0.416377 -0.430067 0.000000
v -0.473302 -0.276627 0.000000
v -0.465693 -0.169989 0.000000
v -0.481666 -0.007180 0.000000
v -0.467844 0.124253 0.000000
v -0.469299 0.273686 0.000000
v -0.351581 0.437719 0.000000
v -0.270582 0.459102 0.000000
v -0.177176 0.451908 0.000000
v -0.109594 0.460845 0.000000
v -0.033282 0.454473 0.000000
v 0.217488 0.446505 0.000000
v 0.295720 0.410469 0.000000
v 0.339636 0.300055 0.000000
v 0.335800 0.145128 0.000000
v 0.344234 0.030655 0.000000
v 0.345998 -0.108412 0.000000
v 0.352321 -0.195923 0.000000
v 0.344445 -0.322498 0.000000
v 0.235709 -0.392231 0.000000
v 0.020994 -0.413125 0.000000
v -0.158643 -0.399904 0.000000
v -0.275425 -0.413003 0.000000
v -0.394355 -0.360369 0.000000
v -0.432924 -0.266537 0.000000
v -0.421713 -0.158625 0.000000
v -0.439463 0.001308 0.000000
v -0.421773 0.120656 0.000000
v -0.428460 0.228744 0.000000
v -0.434828 0.285059 0.000000
v -0.424320 0.369092 0.000000
v -0.172672 0.478653 0.000000
v -0.107652 0.478638 0.000000
v -0.029224 0.478444 0.000000
v 0.403767 0.150294 0.000000
v 0.406129 0.036433 0.000000
v 0.408941 -0.099159 0.000000
v 0.411013 -0.199068 0.000000
v 0.020458 -0.481776 0.000000
v -0.164660 -0.480367 0.000000
vt 0.059422 0.886472
vt 0.120140 0.948738
vt 0.222214 0.977495
vt 0.337379 0.978763
vt 0.469834 0.978461
vt 0.718893 0.973949
vt 0.822479 0.946259
vt 0.909822 0.797776
vt 0.903530 0.661722
vt 0.911137 0.294948
vt 0.903527 0.131747
vt 0.824486 0.044951
vt 0.698132 0.017655
vt 0.373188 0.018695
vt 0.182748 0.023415
vt 0.083623 0.069933
vt 0.026698 0.223373
vt 0.034307 0.330011
vt 0.018334 0.492820
vt 0.032156 0.624253
vt 0.148419 0.937719
vt 0.229418 0.959102
vt 0.322824 0.951908
vt 0.390406 0.960845
vt 0.466718 0.954473
vt 0.717488 0.946505
vt 0.795720 0.910469
vt 0.839636 0.800055
vt 0.835800 0.645128
vt 0.844235 0.530655
vt 0.845998 0.391588
vt 0.852321 0.304077
vt 0.844445 0.177502
vt 0.735709 0.107769
vt 0.520994 0.086875
vt 0.341357 0.100096
vt 0.224575 0.086997
vt 0.105645 0.139631
vt 0.067076 0.233463
vt 0.078287 0.341375
vt 0.060537 0.501308
vt 0.078227 0.620656
vt 0.071540 0.728744
vt 0.065172 0.785059
vt 0.030701 0.773686
vt 0.075680 0.869092
vt 0.327328 0.978653
vt 0.392348 0.978638
vt 0.470776 0.978444
vt 0.903767 0.650294
vt 0.906129 0.536433
vt 0.908941 0.400841
vt 0.911013 0.300932
vt 0.520458 0.018224
vt 0.335340 0.019633
vn 0.000000 0.000000 1.000000
vn 0.000000 0.000000 1.000000
vn 0.000000 0.000000 1.000000
vn 0.000000 0.000000 1.000000
vn 0.000000 0.000000 1.000000
vn 0.000000 0.000000 1.000000
vn 0.000000 0.000000 1.000000
vn 0.000000 0.000000 1.000000
vn 0.000000 0.000000 1.000000
vn 0.000000 0.000000 1.000000
vn 0.000000 0.000000 1.000000
vn 0.000000 0.000000 1.000000
vn 0.000000 0.000000 1.000000
vn 0.000000 0.000000 1.000000
vn 0.000000 0.000000 1.000000
vn 0.000000 0.000000 1.000000
vn 0.000000 0.000000 1.000000
vn 0.000000 0.000000 1.000000
vn 0.000000 0.000000 1.000000
vn 0.000000 0.000000 1.000000
vn 0.000000 0.000000 1.000000
vn 0.000000 0.000000 1.000000
vn 0.000000 0.000000 1.000000
vn 0.000000 0.000000 1.000000
vn 0.000000 0.000000 1.000000
vn 0.000000 0.000000 1.000000
vn 0.000000 0.000000 1.000000
vn 0.000000 0.000000 1.000000
vn 0.000000 0.000000 1.000000
vn 0.000000 0.000000 1.000000
vn 0.000000 0.000000 1.000000
vn 0.000000 0.000000 1.000000
vn 0.000000 0.000000 1.000000
vn 0.000000 0.000000 1.000000
vn 0.000000 0.000000 1.000000
vn 0.000000 0.000000 1.000000
vn 0.000000 0.000000 1.000000
vn 0.000000 0.000000 1.000000
vn 0.000000 0.000000 1.000000
vn 0.000000 0.000000 1.000000
vn 0.000000 0.000000 1.000000
vn 0.000000 0.000000 1.000000
vn 0.000000 0.000000 1.000000
vn 0.000000 0.000000 1.000000
vn 0.000000 0.000000 1.000000
vn 0.000000 0.000000 1.000000
vn 0.000000 0.000000 1.000000
vn 0.000000 0.000000 1.000000
vn 0.000000 0.000000 1.000000
vn 0.000000 0.000000 1.000000
vn 0.000000 0.000000 1.000000
vn 0.000000 0.000000 1.000000
vn 0.000000 0.000000 1.000000
vn 0.000000 0.000000 1.000000
vn 0.000000 0.000000 1.000000
vn 0.000000 0.000000 1.000000
vn 0.000000 0.000000 1.000000
vn 0.000000 0.000000 1.000000
vn 0.000000 0.000000 1.000000
vn 0.000000 0.000000 1.000000
vn 0.000000 0.000000 1.000000
vn 0.000000 0.000000 1.000000
vn 0.000000 0.000000 1.000000
vn 0.000000 0.000000 1.000000
vn 0.000000 0.000000 1.000000
vn 0.000000 0.000000 1.000000
vn 0.000000 0.000000 1.000000
vn 0.000000 0.000000 1.000000
vn 0.000000 0.000000 1.000000
vn 0.000000 0.000000 1.000000
vn 0.000000 0.000000 1.000000
vn 0.000000 0.000000 1.000000
vn 0.000000 0.000000 1.000000
vn 0.000000 0.000000 1.000000
vn 0.000000 0.000000 1.000000
vn 0.000000 0.000000 1.000000
vn 0.000000 0.000000 1.000000
vn 0.000000 0.000000 1.000000
vn 0.000000 0.000000 1.000000
vn 0.000000 0.000000 1.000000
vn 0.000000 0.000000 1.000000
vn 0.000000 0.000000 1.000000
vn 0.000000 0.000000 1.000000
vn 0.000000 0.000000 1.000000
vn 0.000000 0.000000 1.000000
vn 0.000000 0.000000 1.000000
vn 0.000000 0.000000 1.000000
vn 0.000000 0.000000 1.000000
vn 0.000000 0.000000 1.000000
vn 0.000000 0.000000 1.000000
vn 0.000000 0.000000 1.000000
vn 0.000000 0.000000 1.000000
vn 0.000000 0.000000 1.000000
vn 0.000000 0.000000 1.000000
vn 0.000000 0.000000 1.000000
vn 0.000000 0.000000 1.000000
vn 0.000000 0.000000 1.000000
vn 0.000000 0.000000 1.000000
vn 0.000000 0.000000 1.000000
vn 0.000000 0.000000 1.000000
vn 0.000000 0.000000 1.000000
vn 0.000000 0.000000 1.000000
vn 0.000000 0.000000 1.000000
vn 0.000000 0.000000 1.000000
vn 0.000000 0.000000 1.000000
f 16/16/1 39/38/2 17/17/3
f 17/17/3 39/38/2 40/39/4
f 17/17/5 40/39/6 18/18/7
f 18/18/7 40/39/6 41/40/8
f 18/18/9 41/40/10 19/19/11
f 19/19/11 41/40/10 42/41/12
f 32/31/13 52/52/14 31/30/15
f 31/30/15 52/52/14 51/51/16
f 38/37/17 39/38/18 15/15/19
f 15/15/19 39/38/18 16/16/20
f 33/32/21 53/53/22 32/31/23
f 32/31/23 53/53/22 52/52/24
f 11/11/25 10/10/26 34/33/27
f 33/32/28 34/33/27 53/53/29
f 53/53/29 34/33/27 10/10/26
f 11/11/30 34/33/31 12/12/32
f 12/12/32 34/33/31 35/34/33
f 35/34/34 13/13/35 12/12/36
f 35/34/37 36/35/38 13/13/39
f 13/13/39 36/35/38 54/54/40
f 55/55/41 14/14/42 37/36/43
f 37/36/43 14/14/42 36/35/44
f 14/14/42 54/54/45 36/35/44
f 37/36/46 38/37/47 55/55/48
f 55/55/48 38/37/47 15/15/49
f 45/44/50 21/45/51 44/43/52
f 21/45/51 20/20/53 44/43/52
f 44/43/52 20/20/53 43/42/54
f 19/19/55 42/41/56 20/20/57
f 20/20/57 42/41/56 43/42/58
f 8/8/59 7/7/60 29/28/61
f 29/28/61 7/7/60 28/27/62
f 30/29/63 50/50/64 29/28/65
f 50/50/64 9/9/66 29/28/65
f 29/28/65 9/9/66 8/8/67
f 31/30/68 51/51/69 30/29/70
f 30/29/70 51/51/69 50/50/71
f 26/25/72 27/26/73 49/49/74
f 49/49/74 27/26/73 6/6/75
f 7/7/76 6/6/77 28/27/78
f 28/27/78 6/6/77 27/26/79
f 49/49/80 5/5/81 26/25/82
f 5/5/81 48/48/83 26/25/82
f 26/25/82 48/48/83 25/24/84
f 22/21/85 2/2/86 46/46/87
f 46/46/87 2/2/86 1/1/88
f 21/45/89 45/44/90 1/1/91
f 1/1/91 45/44/90 46/46/92
f 2/2/93 22/21/94 3/3/95
f 3/3/95 22/21/94 23/22/96
f 24/23/97 47/47/98 23/22/99
f 23/22/99 47/47/98 3/3/100
f 24/23/101 25/24/102 47/47/103
f 47/47/103 25/24/102 4/4/104
f 25/24/102 48/48/105 4/4/104
