# This file uses centimeters as units for non-parametric coordinates.

v -0.100698 0.024657 0.055371
v -0.002073 -0.020121 0.072134
v 0.105812 0.027225 0.054799
v -0.102636 0.041467 0.060431
v -0.000487 0.034770 0.104963
v 0.112389 0.037918 0.055461
v -0.105458 0.089613 0.057495
v -0.000816 0.095714 0.091764
v 0.117458 0.089968 0.059018
v -0.145161 0.091158 -0.016592
v 0.000215 0.070604 -0.010128
v 0.146697 0.091612 -0.014645
v -0.091758 0.101763 -0.077991
v 0.001321 0.094612 -0.083776
v 0.097854 0.101763 -0.076206
v -0.088408 0.008462 -0.109869
v 0.002110 0.008765 -0.104886
v 0.099841 0.008462 -0.107940
v -0.106733 -0.037642 -0.091080
v 0.000797 -0.022222 -0.069527
v 0.111017 -0.037642 -0.089472
v -0.134750 -0.039963 -0.018807
v 0.000591 -0.052658 -0.017147
v 0.135882 -0.039509 -0.016861
v 0.151955 0.012714 -0.008781
v -0.141540 0.012170 -0.011115
v -0.049090 -0.013874 0.022122
v 0.056097 -0.009591 0.024785
v 0.026381 -0.047526 -0.089919
v -0.027625 -0.047042 -0.090327
v 0.012676 0.095453 -0.089312
v 0.012093 0.008734 -0.116641
v -0.007334 0.095277 -0.089844
v -0.008136 0.008730 -0.116752
vt 0.156857 0.544055
vt 0.202144 0.543550
vt 0.201099 0.549861
vt 0.156840 0.550890
vt 0.248198 0.545475
vt 0.251621 0.549683
vt 0.196231 0.569697
vt 0.164060 0.572051
vt 0.243346 0.572409
vt 0.201023 0.567755
vt 0.127886 0.581792
vt 0.283127 0.589272
vt 0.872622 0.311574
vt 0.791414 0.306325
vt 0.787926 0.302677
vt 0.858512 0.308599
vt 0.719006 0.320229
vt 0.732843 0.315038
vt 0.779164 0.257936
vt 0.853280 0.255094
vt 0.727616 0.265057
vt 0.787269 0.234834
vt 0.851343 0.245128
vt 0.721842 0.252538
vt 0.787975 0.235876
vt 0.869371 0.243577
vt 0.713207 0.250070
vt 0.167604 0.538857
vt 0.203970 0.536664
vt 0.247644 0.544541
vt 0.714086 0.272430
vt 0.249399 0.545414
vt 0.871757 0.261110
vt 0.279659 0.554072
vt 0.131363 0.540597
vt 0.129835 0.551504
vt 0.771706 0.244329
vt 0.798334 0.240177
vt 0.781446 0.304131
vt 0.773899 0.258663
vt 0.794489 0.303228
vt 0.787554 0.257614
vn -0.006150 -0.763038 0.646325
vn -0.001358 -0.221904 0.975068
vn -0.529480 -0.507921 0.679462
vn -0.653924 -0.064107 0.753839
vn 0.471039 -0.549004 0.690447
vn 0.637262 -0.119843 0.761272
vn -0.010388 0.576137 0.817287
vn -0.412770 0.791310 0.451054
vn 0.447707 0.766990 0.459657
vn 0.423283 -0.842742 0.332593
vn 0.429469 -0.841669 0.327337
vn 0.992173 -0.120763 -0.031780
vn 0.756765 0.635608 0.152671
vn 0.100541 -0.706708 0.700325
vn -0.436199 -0.846837 0.304298
vn -0.996203 -0.052793 -0.069231
vn -0.762209 0.624001 0.172221
vn -0.000687 0.997674 0.068158
vn 0.475127 0.749828 -0.460448
vn -0.240043 0.702046 -0.670456
vn 0.638795 -0.506275 -0.579333
vn 0.411671 0.010590 -0.911271
vn -0.479955 -0.219491 -0.849392
vn -0.255484 -0.780023 -0.571219
vn -0.785720 -0.479784 -0.390450
vn -0.429996 -0.852307 0.297784
vn -0.007594 -0.939598 0.342197
vn -0.007594 -0.939598 0.342197
vn -0.474815 -0.824670 0.307361
vn 0.238026 -0.964533 0.114105
vn -0.078994 -0.757418 0.648135
vn -0.103827 -0.725841 0.679981
vn 0.416236 -0.850229 0.322271
vn -0.258885 -0.956669 0.133281
vn 0.070612 -0.741087 0.667685
vn -0.656688 -0.428163 -0.620836
vn -0.399512 0.024894 -0.916390
vn -0.477674 0.730236 -0.488449
vn 0.264838 0.701010 -0.662153
vn 0.471177 -0.245547 -0.847171
vn 0.697878 -0.080211 -0.711711
vn 0.028175 0.908983 -0.415880
vn 0.598688 -0.613293 -0.515213
vn 0.242953 -0.786886 -0.567261
vn 0.751062 -0.529034 -0.395005
vn -0.030415 0.950455 0.309372
vn -0.663602 -0.058995 -0.745756
vn -0.623708 -0.576235 -0.528150
f 2/2/1 5/3/2 1/1/3
f 1/1/3 5/3/2 4/4/4
f 2/2/1 3/5/5 5/3/2
f 5/3/2 3/5/5 6/6/6
f 5/3/2 8/7/7 4/4/4
f 4/4/4 8/7/7 7/8/8
f 5/3/2 6/6/6 8/7/7
f 8/7/7 6/6/6 9/9/9
f 28/30/10 3/5/5 2/2/1
f 24/32/11 25/34/12 3/5/5
f 3/5/5 25/34/12 6/6/6
f 25/34/12 12/12/13 6/6/6
f 6/6/6 12/12/13 9/9/9
f 28/30/14 24/32/11 3/5/5
f 1/1/3 27/28/15 2/2/1
f 26/36/16 4/4/4 10/11/17
f 10/11/17 4/4/4 7/8/8
f 8/7/7 11/10/18 7/8/8
f 7/8/8 11/10/18 10/11/17
f 8/7/7 9/9/9 11/10/18
f 11/10/18 9/9/9 12/12/13
f 12/17/13 15/18/19 11/14/18
f 11/14/18 15/18/19 31/39/20
f 24/27/11 21/24/21 25/31/12
f 25/31/12 21/24/21 18/21/22
f 18/21/22 15/18/19 25/31/12
f 25/31/12 15/18/19 12/17/13
f 32/40/23 31/39/20 18/21/22
f 18/21/22 31/39/20 15/18/19
f 32/40/23 29/37/24 20/22/25
f 32/40/23 18/21/22 29/37/24
f 29/37/24 18/21/22 21/24/21
f 27/28/26 23/29/27 2/2/28
f 22/35/29 1/1/3 26/36/16
f 26/36/16 1/1/3 4/4/4
f 22/35/29 23/29/30 27/28/31
f 22/35/29 27/28/32 1/1/3
f 23/29/27 28/30/33 2/2/28
f 23/29/34 24/32/11 28/30/35
f 22/26/29 26/33/16 19/23/36
f 19/23/36 26/33/16 16/20/37
f 10/13/17 11/14/18 13/16/38
f 13/16/38 11/14/18 33/41/39
f 34/42/40 33/41/39 17/19/41
f 17/19/41 33/41/39 14/15/42
f 20/22/43 34/42/40 17/19/41
f 19/23/36 30/38/44 22/26/29
f 22/26/29 30/38/44 23/25/30
f 16/20/37 26/33/16 13/16/38
f 13/16/38 26/33/16 10/13/17
f 23/25/30 30/38/44 20/22/45
f 11/14/46 31/39/20 14/15/42
f 33/41/39 11/14/46 14/15/42
f 20/22/45 30/38/44 34/42/40
f 34/42/40 16/20/37 33/41/39
f 33/41/39 16/20/37 13/16/38
f 14/15/42 31/39/20 17/19/47
f 17/19/47 31/39/20 32/40/23
f 32/40/23 20/22/48 17/19/47
f 20/22/25 29/37/24 23/25/34
f 23/25/34 29/37/24 24/27/11
f 24/27/11 29/37/24 21/24/21
f 34/42/40 30/38/44 16/20/37
f 16/20/37 30/38/44 19/23/36
