# This file uses centimeters as units for non-parametric coordinates.

v -0.084788 -0.031930 0.068365
v -0.020815 -0.152210 0.038742
v 0.083492 -0.031930 0.068366
v -0.071075 -0.021899 0.001926
v -0.001226 0.005584 -0.022284
v 0.073930 -0.021899 0.001926
v -0.056112 0.082233 0.068366
v 0.011890 0.145081 0.067689
v 0.011890 0.128187 0.033621
v -0.035791 0.065339 0.033621
v 0.053580 0.124053 0.068366
v 0.037411 0.107159 0.033621
v 0.078410 -0.049640 0.041712
v -0.021078 -0.159414 0.000525
v -0.077361 -0.049070 0.037937
v -0.007016 -0.026783 0.068955
vt 0.979440 0.367590
vt 0.020788 0.346322
vt 0.020114 0.345536
vt 0.977144 0.409218
vt 0.041758 0.330503
vt 0.040885 0.336475
vt 0.019807 0.235487
vt 0.953288 0.396901
vt 0.952160 0.352508
vt 0.980469 0.267421
vt 0.019531 0.243656
vt 0.038960 0.229044
vt 0.978627 0.280575
vt 0.066855 0.249940
vt 0.912423 0.305685
vt 0.924740 0.277910
vt 0.954570 0.253059
vt 0.076092 0.257751
vt 0.064295 0.140223
vt 0.039283 0.145614
vt 0.956238 0.178913
vt 0.927224 0.172820
vn -0.131520 0.888113 -0.440406
vn -0.111751 0.687743 -0.717301
vn -0.763224 0.427884 -0.484154
vn -0.713998 0.418312 -0.561446
vn 0.794496 0.463514 -0.392342
vn 0.519683 0.436804 -0.734256
vn 0.000234 -0.117391 0.993086
vn -0.001385 -0.075430 0.997150
vn -0.002112 0.004458 0.999988
vn -0.004178 0.007826 0.999961
vn -0.778549 0.120918 -0.615824
vn -0.059529 0.242161 -0.968408
vn -0.976550 -0.081863 -0.199119
vn -0.000183 -0.116920 0.993141
vn -0.002633 0.004967 0.999984
vn 0.932445 -0.354251 -0.071085
vn 0.747512 0.034465 -0.663353
vn -0.097933 -0.663970 -0.741318
vn 0.957684 -0.287694 0.008576
vn -0.148782 -0.958157 0.244538
vn -0.977304 -0.137742 -0.160949
vn 0.000617 -0.234253 0.972175
f 8/4/1 9/8/2 7/1/3
f 7/1/3 9/8/2 10/9/4
f 8/2/1 11/3/5 9/6/2
f 9/6/2 11/3/5 12/5/6
f 1/10/7 16/13/8 7/1/9
f 7/1/9 16/13/8 8/4/10
f 4/16/11 10/9/4 5/15/12
f 5/15/12 10/9/4 9/8/2
f 4/16/11 15/17/13 10/9/4
f 10/9/4 15/17/13 7/1/3
f 3/11/14 11/3/15 16/7/8
f 16/7/8 11/3/15 8/2/10
f 13/12/16 6/14/17 11/3/5
f 11/3/5 6/14/17 12/5/6
f 6/14/17 5/18/12 12/5/6
f 12/5/6 5/18/12 9/6/2
f 5/18/12 6/14/17 14/19/18
f 4/16/11 14/22/18 15/17/13
f 3/11/19 13/12/16 11/3/5
f 14/19/18 13/12/16 2/20/20
f 2/20/20 13/12/16 3/11/19
f 14/22/18 2/21/20 15/17/13
f 15/17/13 2/21/20 1/10/21
f 7/1/3 15/17/13 1/10/21
f 4/16/11 5/15/12 14/22/18
f 14/19/18 6/14/17 13/12/16
f 1/10/7 2/21/22 16/13/8
f 2/20/22 3/11/14 16/7/8
