# This file uses centimeters as units for non-parametric coordinates.

v -0.027704 0.023638 0.085690
v 0.000430 0.026776 0.102621
v 0.029130 0.023638 0.085690
v -0.046355 0.054838 -0.002037
v -0.000219 0.059194 -0.002038
v 0.043322 0.050378 -0.000812
v -0.038996 0.044469 -0.068190
v -0.000046 0.053753 -0.065905
v 0.035027 0.038872 -0.067585
v -0.047887 0.001016 -0.089326
v -0.000590 0.006944 -0.128777
v 0.050233 0.000583 -0.086856
v -0.037588 -0.047259 -0.087278
v 0.000681 -0.076226 -0.094176
v 0.039133 -0.062166 -0.087710
v -0.047241 -0.062703 -0.002038
v 0.000247 -0.066976 -0.002038
v 0.051006 -0.062703 -0.002038
v -0.028537 -0.026963 0.083127
v 0.000430 -0.026079 0.100059
v 0.029905 -0.026963 0.083128
v -0.035888 -0.006023 0.089242
v 0.000430 -0.006023 0.106173
v 0.036747 -0.006023 0.089243
v 0.062471 -0.002116 -0.002038
v -0.059637 -0.002116 -0.002038
v -0.041943 0.048575 -0.051827
v -0.000046 0.056441 -0.051702
v 0.033031 0.040805 -0.048800
v 0.045035 0.001602 -0.060562
v 0.041497 -0.045355 -0.057889
v -0.000046 -0.056528 -0.059339
v -0.042721 -0.049166 -0.059003
v -0.055155 -0.000156 -0.059917
v -0.039126 0.001739 -0.110372
v 0.004308 -0.038007 -0.124380
v 0.030226 0.001332 -0.109453
v -0.003621 0.042432 -0.088872
v -0.027433 0.033381 -0.100303
v -0.028592 -0.029653 -0.120164
v 0.024860 0.028091 -0.100904
v 0.027619 -0.042389 -0.115954
v -0.037514 0.037529 0.062186
v -0.001229 0.047802 0.069993
v 0.037173 0.036678 0.062676
v 0.049253 -0.006204 0.062108
v 0.039456 -0.039946 0.058594
v -0.000219 -0.042595 0.064459
v -0.038994 -0.040346 0.056969
v -0.050147 -0.005750 0.054985
vt 0.442657 0.483821
vt 0.458576 0.466703
vt 0.452654 0.538414
vt 0.445502 0.537854
vt 0.458736 0.465315
vt 0.464480 0.478297
vt 0.459092 0.538289
vt 0.453236 0.538823
vt 0.449066 0.581742
vt 0.441435 0.576565
vt 0.457672 0.574522
vt 0.449256 0.582658
vt 0.426922 0.591322
vt 0.425673 0.578516
vt 0.470184 0.581997
vt 0.468609 0.593270
vt 0.408572 0.587346
vt 0.413112 0.577563
vt 0.484079 0.577875
vt 0.486480 0.592428
vt 0.405488 0.535386
vt 0.410210 0.534193
vt 0.490970 0.540599
vt 0.497423 0.539559
vt 0.406090 0.469315
vt 0.412255 0.480818
vt 0.489631 0.480799
vt 0.493470 0.467538
vt 0.429174 0.470186
vt 0.428138 0.479947
vt 0.479703 0.476533
vt 0.479581 0.465112
vt 0.474022 0.539868
vt 0.428230 0.535967
vt 0.442447 0.566927
vt 0.448934 0.572329
vt 0.449211 0.573131
vt 0.457705 0.565521
vt 0.471352 0.569175
vt 0.485468 0.570362
vt 0.407835 0.574929
vt 0.489095 0.579794
vt 0.412499 0.568398
vt 0.426489 0.564932
vt 0.426005 0.581924
vt 0.415359 0.588817
vt 0.479870 0.592739
vt 0.469825 0.584566
vt 0.443070 0.584336
vt 0.454497 0.585532
vt 0.435402 0.583252
vt 0.420282 0.585629
vt 0.462772 0.585010
vt 0.475239 0.588970
vt 0.443163 0.493424
vt 0.455896 0.486069
vt 0.456168 0.485158
vt 0.463317 0.488747
vt 0.478436 0.490667
vt 0.489886 0.492179
vt 0.405904 0.489704
vt 0.494690 0.489763
vt 0.411821 0.492134
vt 0.428167 0.497280
vn -0.004182 0.897735 0.440516
vn 0.059243 0.997338 0.042510
vn -0.680768 0.640527 0.355359
vn -0.659205 0.748923 0.067549
vn 0.672594 0.662826 0.329057
vn 0.651980 0.757584 -0.031452
vn -0.656143 0.734365 -0.173737
vn 0.060089 0.986496 -0.152367
vn -0.555656 0.757127 -0.343519
vn 0.157493 0.950060 -0.269412
vn 0.667070 0.730143 -0.148016
vn 0.691798 0.695378 -0.194591
vn -0.720506 0.213587 -0.659736
vn -0.500224 0.641920 -0.581132
vn 0.028091 0.373268 -0.927298
vn 0.067448 0.860676 -0.504666
vn 0.516767 0.607409 -0.603329
vn -0.625712 -0.278200 -0.728759
vn 0.021596 -0.382864 -0.923552
vn -0.721276 -0.631386 -0.284804
vn -0.071587 -0.941742 -0.328628
vn 0.594050 0.172225 -0.785775
vn 0.952571 0.126577 -0.276744
vn 0.561988 -0.290028 -0.774631
vn 0.699293 -0.714139 -0.031549
vn -0.024569 -0.985276 0.169194
vn -0.665176 -0.724186 -0.181922
vn 0.804004 -0.591978 -0.056024
vn -0.674401 -0.735276 0.067477
vn 0.009648 -0.997639 0.067998
vn -0.612805 -0.682859 0.397710
vn -0.004778 -0.905530 0.424255
vn 0.678458 -0.734115 0.027754
vn 0.599221 -0.684417 0.415340
vn -0.003995 -0.674349 0.738402
vn -0.001736 -0.094928 0.995483
vn -0.541295 -0.558680 0.628392
vn -0.717899 -0.077539 0.691815
vn 0.528805 -0.561387 0.636561
vn 0.705009 -0.077211 0.704983
vn -0.620442 0.414961 0.665476
vn -0.008228 0.540412 0.841361
vn 0.614557 0.432635 0.659656
vn 0.929485 -0.034274 0.367263
vn 0.996947 0.072365 -0.029324
vn 0.987279 0.157858 -0.019033
vn -0.937866 -0.040470 0.344629
vn -0.999093 0.003986 0.042398
vn -0.983363 0.026814 -0.179660
vn -0.935351 0.084694 -0.343432
f 44/56/1 5/3/2 43/55/3
f 43/55/3 5/3/2 4/4/4
f 44/57/1 45/58/5 5/8/2
f 5/8/2 45/58/5 6/7/6
f 27/35/7 28/36/8 7/10/9
f 7/10/9 28/36/8 8/9/10
f 28/37/8 29/38/11 8/12/10
f 8/12/10 29/38/11 9/11/12
f 35/45/13 39/51/14 11/13/15
f 11/13/15 39/51/14 38/49/16
f 8/12/10 9/11/12 38/50/16
f 38/50/16 9/11/12 41/53/17
f 40/52/18 36/46/19 13/18/20
f 13/18/20 36/46/19 14/17/21
f 37/48/22 12/15/23 42/54/24
f 42/54/24 12/15/23 15/19/25
f 14/17/21 32/41/26 13/18/20
f 13/18/20 32/41/26 33/43/27
f 14/20/21 15/19/25 32/42/26
f 32/42/26 15/19/25 31/40/28
f 16/22/29 17/21/30 49/63/31
f 49/63/31 17/21/30 48/61/32
f 18/23/33 47/60/34 17/24/30
f 17/24/30 47/60/34 48/62/32
f 20/25/35 23/29/36 19/26/37
f 19/26/37 23/29/36 22/30/38
f 20/28/35 21/27/39 23/32/36
f 23/32/36 21/27/39 24/31/40
f 22/30/38 23/29/36 1/1/41
f 1/1/41 23/29/36 2/2/42
f 24/31/40 3/6/43 23/32/36
f 23/32/36 3/6/43 2/5/42
f 46/59/44 47/60/34 25/33/45
f 25/33/45 47/60/34 18/23/33
f 46/59/44 25/33/45 45/58/5
f 45/58/5 25/33/45 6/7/6
f 30/39/46 31/40/28 12/15/23
f 12/15/23 31/40/28 15/19/25
f 29/38/11 30/39/46 9/11/12
f 9/11/12 30/39/46 12/15/23
f 50/64/47 26/34/48 49/63/31
f 49/63/31 26/34/48 16/22/29
f 50/64/47 43/55/3 26/34/48
f 26/34/48 43/55/3 4/4/4
f 33/43/27 34/44/49 13/18/20
f 13/18/20 34/44/49 10/14/50
f 27/35/7 7/10/9 34/44/49
f 34/44/49 7/10/9 10/14/50
f 4/4/4 5/3/2 27/35/7
f 27/35/7 5/3/2 28/36/8
f 6/7/6 29/38/11 5/8/2
f 5/8/2 29/38/11 28/37/8
f 6/7/6 25/33/45 29/38/11
f 29/38/11 25/33/45 30/39/46
f 18/23/33 31/40/28 25/33/45
f 25/33/45 31/40/28 30/39/46
f 32/42/26 31/40/28 17/24/30
f 17/24/30 31/40/28 18/23/33
f 32/41/26 17/21/30 33/43/27
f 33/43/27 17/21/30 16/22/29
f 16/22/29 26/34/48 33/43/27
f 33/43/27 26/34/48 34/44/49
f 4/4/4 27/35/7 26/34/48
f 26/34/48 27/35/7 34/44/49
f 35/45/13 11/13/15 40/52/18
f 40/52/18 11/13/15 36/46/19
f 11/16/15 37/48/22 36/47/19
f 36/47/19 37/48/22 42/54/24
f 38/50/16 41/53/17 11/16/15
f 11/16/15 41/53/17 37/48/22
f 7/10/9 39/51/14 10/14/50
f 10/14/50 39/51/14 35/45/13
f 8/9/10 38/49/16 7/10/9
f 7/10/9 38/49/16 39/51/14
f 35/45/13 40/52/18 10/14/50
f 10/14/50 40/52/18 13/18/20
f 9/11/12 12/15/23 41/53/17
f 41/53/17 12/15/23 37/48/22
f 15/19/25 14/20/21 42/54/24
f 42/54/24 14/20/21 36/47/19
f 2/2/42 44/56/1 1/1/41
f 1/1/41 44/56/1 43/55/3
f 2/5/42 3/6/43 44/57/1
f 44/57/1 3/6/43 45/58/5
f 24/31/40 46/59/44 3/6/43
f 3/6/43 46/59/44 45/58/5
f 24/31/40 21/27/39 46/59/44
f 46/59/44 21/27/39 47/60/34
f 47/60/34 21/27/39 48/62/32
f 48/62/32 21/27/39 20/28/35
f 49/63/31 48/61/32 19/26/37
f 19/26/37 48/61/32 20/25/35
f 22/30/38 50/64/47 19/26/37
f 19/26/37 50/64/47 49/63/31
f 22/30/38 1/1/41 50/64/47
f 50/64/47 1/1/41 43/55/3
