# This file uses centimeters as units for non-parametric coordinates.

v -0.084788 -0.031930 0.068365
v -0.001225 -0.025498 0.067690
v 0.083492 -0.031930 0.068366
v -0.071075 -0.021899 0.001926
v -0.001226 0.005584 -0.022284
v 0.073930 -0.021899 0.001926
v -0.080697 0.082233 0.068366
v -0.001225 0.125840 0.067689
v -0.001225 0.108946 0.018791
v -0.060376 0.065339 0.018791
v 0.079401 0.082233 0.068366
v 0.063231 0.065339 0.018791
v 0.078410 -0.049640 0.041712
v -0.001488 -0.032702 0.029473
v -0.077361 -0.049070 0.037937
vt 0.513164 0.262943
vt 0.535808 0.263773
vt 0.527766 0.314523
vt 0.501600 0.291703
vt 0.516948 0.263574
vt 0.504618 0.291721
vt 0.478611 0.346299
vt 0.463543 0.327650
vt 0.450352 0.299593
vt 0.565817 0.973625
vt 0.454722 0.296947
vt 0.467677 0.327484
vt 0.542335 0.965934
vt 0.463214 0.263613
vt 0.458336 0.262951
vt 0.587128 0.956447
vt 0.596868 0.518993
vt 0.566615 0.516399
vt 0.568463 0.485379
vt 0.596305 0.495332
vt 0.535795 0.515916
vt 0.539176 0.492440
vt 0.565750 0.533846
vt 0.536793 0.530884
vt 0.585511 0.965346
vt 0.593269 0.535177
vt 0.565173 0.959757
vt 0.540711 0.955960
vn -0.002944 0.945175 -0.326551
vn -0.008796 0.763937 -0.645230
vn -0.797552 0.460352 -0.389856
vn -0.705612 0.341795 -0.620716
vn 0.808745 0.472542 -0.350195
vn 0.714921 0.354303 -0.602792
vn 0.045267 -0.497101 0.866511
vn -0.000077 -0.553064 0.833138
vn 0.008308 -0.000146 0.999966
vn 0.000061 0.000002 1.000000
vn -0.803428 0.206494 -0.558448
vn -0.011954 0.306200 -0.951892
vn -0.966426 0.080374 -0.244053
vn -0.042508 -0.467012 0.883229
vn -0.008196 -0.000140 0.999966
vn 0.809481 0.205598 -0.549972
vn 0.979245 0.074112 -0.188647
vn 0.004059 -0.803947 -0.594687
vn -0.094836 -0.810782 -0.577614
vn 0.004328 -0.933568 -0.358376
vn -0.146197 -0.986905 0.068151
vn 0.108719 -0.800966 -0.588757
vn 0.152413 -0.987672 0.035684
vn 0.977170 0.035016 -0.209555
vn -0.966231 0.034626 -0.255340
f 8/2/1 9/3/2 7/1/3
f 7/1/3 9/3/2 10/4/4
f 8/2/1 11/5/5 9/3/2
f 9/3/2 11/5/5 12/6/6
f 1/17/7 2/18/8 7/20/9
f 7/20/9 2/18/8 8/19/10
f 4/8/11 10/4/4 5/7/12
f 5/7/12 10/4/4 9/3/2
f 4/8/11 15/9/13 10/4/4
f 10/4/4 15/9/13 7/1/3
f 3/21/14 11/22/15 2/18/8
f 2/18/8 11/22/15 8/19/10
f 6/12/16 12/6/6 13/11/17
f 13/11/17 12/6/6 11/5/5
f 6/12/16 5/7/12 12/6/6
f 12/6/6 5/7/12 9/3/2
f 5/10/18 6/13/19 14/27/20
f 14/27/20 6/13/19 13/28/21
f 5/10/18 14/27/20 4/25/22
f 4/25/22 14/27/20 15/16/23
f 3/14/24 13/11/17 11/5/5
f 14/23/20 13/24/21 2/18/8
f 2/18/8 13/24/21 3/21/14
f 14/23/20 2/18/8 15/26/23
f 15/26/23 2/18/8 1/17/7
f 7/1/3 15/9/13 1/15/25
