# This file uses centimeters as units for non-parametric coordinates.

v -0.732946 2.956355 1.122092
v -1.639801 2.956344 1.122091
v -0.633295 2.955797 -5.943784
v -2.420460 2.955736 -6.009191
v -2.414994 2.956259 -0.936499
v -6.723427 2.955840 -6.007826
v -6.724152 2.956548 1.122056
v -10.621546 4.502472 -0.935748
v -3.505761 2.955797 -6.008371
v -3.500852 2.955954 -3.719488
v -6.723521 2.956019 -3.700560
v -5.482997 2.955999 -3.694200
v -5.477475 2.956339 1.122062
v 2.315052 2.956348 1.122063
v 2.302645 2.955692 -5.945030
v 3.419019 5.989824 -6.093031
v 3.462383 2.955668 -5.945412
v 5.017388 4.608664 -5.561784
v 4.983128 3.850592 -5.592757
v 7.180316 5.194485 -0.937085
v 7.176392 5.193885 1.122059
v 5.057294 4.608664 -0.961254
v 5.016019 3.865916 -1.030831
v 6.170333 4.177880 -1.007567
v 7.407239 4.608665 -5.611549
v 7.471250 4.293605 -0.980572
v -5.379868 2.955820 -6.008000
v -5.506443 5.967624 -6.108500
v 6.084474 4.259765 -6.242258
v 7.342541 4.608665 -5.609328
v -10.667934 3.731496 -1.207466
v -8.288437 4.609355 -5.515983
v -10.682850 4.609346 -5.488358
v -8.221642 3.899800 -5.472069
v -8.352003 4.609354 -1.068068
v -8.308206 3.728425 -1.113770
v -9.304298 3.836338 -1.092806
v -0.639051 2.955927 -3.691913
v 2.317435 2.955837 -3.694713
v 6.154270 4.608664 -5.571796
v 6.093698 7.461957 -6.176804
v -6.498495 5.926148 -6.086521
v -9.586337 4.593081 -6.322280
v -9.479671 4.609355 -5.501317
v 0.292996 2.956455 1.122091
v -9.503345 4.218314 -1.080753
v -5.428455 5.973465 -6.750099
v -5.993146 5.859336 -6.084337
v 0.364343 2.955864 -3.694699
v -6.723763 5.922873 -6.084785
v -10.652803 4.432119 1.122050
v -9.616091 7.171189 -5.482484
v -9.707200 7.469251 -6.185856
v -10.726171 7.170895 -5.443894
v 2.230731 5.962675 -6.835213
v 6.097088 4.608665 -5.569834
v 6.130613 7.528241 -5.680252
v 7.538752 4.622246 1.122060
v 3.573305 2.956132 1.122059
v 0.389728 2.956687 1.127222
v 0.388648 2.951336 -0.998158
v 0.293029 2.956184 -0.990575
v -3.481517 2.956354 1.122091
v -3.481605 2.956236 -1.027164
v -1.670732 2.956264 -0.936504
v -0.691375 2.956227 -0.936476
v 2.207347 2.955694 -5.944998
v 3.520981 2.955776 -3.690491
v 3.449193 2.955780 -3.690545
v 0.402456 2.955745 -5.944318
v 6.486611 7.503559 -5.608128
v 6.996092 7.488954 -5.602397
v 3.512294 2.975868 -0.937095
v 2.275358 6.025340 -6.097821
v -2.420410 2.955987 -3.700851
v -9.523563 4.609354 -1.161990
v -10.725101 4.609346 -2.027437
v -10.706021 4.609359 -1.111392
v -9.582105 4.342063 -1.034669
v -9.449137 4.609355 -1.031182
v -9.321519 4.609354 -1.039158
v -6.723642 2.946035 1.122056
v -6.683515 2.949757 -0.936951
v -10.297903 5.202298 1.122059
v -10.292044 5.202409 -0.937120
v -5.332821 2.874263 -6.692109
v 2.258239 3.046245 -6.811723
v 6.136258 4.608717 -1.055136
v 6.186712 4.608717 -1.096635
v 7.376628 4.608665 -1.724603
v 7.561015 4.603098 -0.938120
v 7.331517 4.608667 -1.038223
v 7.265368 7.499135 -5.660645
v -2.413221 2.956357 1.122091
v -8.336683 4.609354 -2.098192
v -8.289395 3.765664 -2.023073
vt 0.546637 0.374136
vt 0.501233 0.376772
vt 0.543836 0.586681
vt 0.501134 0.434198
vt 0.481081 0.587470
vt 0.470388 0.434419
vt 0.316352 0.583464
vt 0.404496 0.377347
vt 0.427460 0.585529
vt 0.422409 0.543505
vt 0.304421 0.540595
vt 0.354813 0.541037
vt 0.326381 0.387181
vt 0.645609 0.590277
vt 0.649995 0.590404
vt 0.706022 0.742495
vt 0.702324 0.591685
vt 0.753051 0.689918
vt 0.752934 0.645842
vt 0.921779 0.595252
vt 0.801399 0.554250
vt 0.864023 0.556345
vt 0.857963 0.695924
vt 0.911554 0.589480
vt 0.366521 0.584626
vt 0.358862 0.731783
vt 0.855006 0.695644
vt 0.088785 0.575719
vt 0.238053 0.671528
vt 0.135260 0.668491
vt 0.240741 0.620672
vt 0.190215 0.541634
vt 0.194923 0.507581
vt 0.152976 0.523927
vt 0.545242 0.545493
vt 0.547836 0.436533
vt 0.604876 0.439477
vt 0.804346 0.694803
vt 0.803127 0.847657
vt 0.311344 0.729022
vt 0.194380 0.670237
vt 0.183479 0.669915
vt 0.181412 0.829957
vt 0.602311 0.373819
vt 0.612844 0.373829
vt 0.647675 0.750719
vt 0.129449 0.549692
vt 0.371837 0.743392
vt 0.335359 0.725082
vt 0.119397 0.804557
vt 0.171535 0.809353
vt 0.598313 0.546920
vt 0.308058 0.728990
vt 0.411241 0.432834
vt 0.802626 0.692397
vt 0.810493 0.841261
vt 0.608320 0.436593
vt 0.744584 0.406497
vt 0.754479 0.414166
vt 0.946635 0.545302
vt 0.677855 0.399867
vt 0.652683 0.548605
vt 0.652683 0.548605
vt 0.645609 0.590277
vt 0.649995 0.590404
vt 0.797564 0.510176
vt 0.702324 0.591685
vt 0.711856 0.552340
vt 0.708427 0.552124
vt 0.594091 0.587261
vt 0.827983 0.832322
vt 0.849250 0.831394
vt 0.744615 0.473901
vt 0.654402 0.741068
vt 0.478219 0.546512
vt 0.135548 0.553004
vt 0.090936 0.580013
vt 0.088890 0.575930
vt 0.133478 0.543711
vt 0.139295 0.547390
vt 0.146252 0.543569
vt 0.252987 0.399495
vt 0.266611 0.455058
vt 0.059110 0.524847
vt 0.083593 0.577034
vt 0.379236 0.589967
vt 0.643955 0.597269
vt 0.861176 0.556250
vt 0.863486 0.557569
vt 0.911012 0.590557
vt 0.259415 0.396106
vt 0.797564 0.510176
vt 0.794897 0.692008
vt 0.594058 0.416891
vt 0.580560 0.416891
vt 0.582531 0.391534
vt 0.593751 0.390861
vt 0.911523 0.589543
vt 0.861406 0.835338
vt 0.432052 0.449679
vt 0.465174 0.449679
vt 0.466348 0.518674
vt 0.433027 0.523803
vt 0.460430 0.372853
vt 0.201744 0.572939
vt 0.204879 0.532155
vn 0.000014 1.000000 -0.000064
vn 0.000021 1.000000 -0.000058
vn 0.000021 1.000000 -0.000058
vn 0.000028 1.000000 -0.000052
vn 0.000063 1.000000 -0.000058
vn 0.000057 1.000000 -0.000055
vn 0.000057 1.000000 -0.000055
vn 0.000050 1.000000 -0.000052
vn 0.000016 1.000000 -0.000039
vn 0.000005 1.000000 -0.000043
vn 0.000005 1.000000 -0.000043
vn -0.000006 1.000000 -0.000047
vn -0.000017 1.000000 -0.000055
vn -0.000010 1.000000 -0.000051
vn -0.000010 1.000000 -0.000051
vn -0.000002 1.000000 -0.000047
vn 0.000017 1.000000 -0.000077
vn 0.000018 1.000000 -0.000077
vn 0.000016 1.000000 -0.000077
vn 0.000016 1.000000 -0.000074
vn 0.000017 1.000000 -0.000073
vn 0.000012 1.000000 -0.000069
vn 0.000168 1.000000 -0.000071
vn 0.000092 1.000000 -0.000090
vn 0.000092 1.000000 -0.000090
vn 0.000017 1.000000 -0.000110
vn 0.000020 1.000000 -0.000064
vn 0.000035 1.000000 -0.000064
vn 0.000030 1.000000 -0.000059
vn 0.000047 1.000000 -0.000049
vn 0.000034 1.000000 -0.000049
vn 0.000039 1.000000 -0.000054
vn 0.086274 -0.097671 0.991472
vn 0.086274 -0.097671 0.991472
vn 0.086274 -0.097671 0.991472
vn 0.000038 1.000000 -0.000012
vn 0.000012 1.000000 -0.000004
vn 0.000018 1.000000 -0.000006
vn 0.000000 1.000000 0.000000
vn -0.000000 1.000000 0.000000
vn -0.998467 0.054675 0.008661
vn -0.998730 0.049768 0.007857
vn -0.998730 0.049768 0.007857
vn -0.998968 0.044860 0.007052
vn 0.997387 0.031989 0.064777
vn 0.994916 0.038865 0.092902
vn 0.994916 0.038865 0.092902
vn 0.991606 0.045709 0.120948
vn 0.038744 0.422787 0.905400
vn 0.038744 0.422787 0.905400
vn 0.038744 0.422787 0.905400
vn 0.998084 0.057889 0.021858
vn 0.996928 0.076244 0.017958
vn 0.996928 0.076244 0.017958
vn 0.995419 0.094572 0.014052
vn 0.015487 -0.051036 0.998577
vn 0.015487 -0.051036 0.998577
vn 0.015487 -0.051036 0.998577
vn -0.799652 0.391852 0.454982
vn -0.799652 0.391852 0.454982
vn -0.799652 0.391852 0.454982
vn -0.000012 1.000000 -0.000039
vn 0.000013 1.000000 -0.000050
vn 0.000013 1.000000 -0.000050
vn 0.000037 1.000000 -0.000061
vn -0.000049 1.000000 0.000000
vn -0.000029 1.000000 -0.000005
vn -0.000020 1.000000 -0.000007
vn 0.000002 1.000000 -0.000011
vn 0.000016 1.000000 -0.000012
vn 0.000008 1.000000 -0.000012
vn -0.997286 0.014184 0.072247
vn -0.998958 0.008357 0.044864
vn -0.998958 0.008357 0.044864
vn -0.999845 0.002523 0.017446
vn 0.034269 0.008606 0.999376
vn 0.018334 0.007933 0.999801
vn 0.011713 0.011203 0.999869
vn 0.031569 0.001392 0.999501
vn 0.010362 0.007595 0.999918
vn 0.990099 0.053677 -0.129706
vn 0.991592 0.050284 -0.119237
vn 0.991592 0.050284 -0.119237
vn 0.992963 0.046885 -0.108753
vn -0.002401 0.999997 -0.000128
vn 0.024025 0.999711 -0.001335
vn 0.024025 0.999711 -0.001335
vn 0.050435 0.998724 -0.002540
vn 0.041765 0.035074 0.998512
vn 0.013698 0.029316 0.999476
vn 0.020952 0.030699 0.999309
vn 0.002215 0.026262 0.999653
vn 0.003258 0.026238 0.999650
vn 0.007326 0.025930 0.999637
vn 0.034742 -0.016757 0.999256
vn 0.022758 -0.011768 0.999672
vn 0.022758 -0.011768 0.999672
vn 0.010769 -0.006777 0.999919
vn 0.000038 1.000000 -0.000108
vn 0.000050 1.000000 -0.000112
vn 0.000050 1.000000 -0.000112
vn 0.000063 1.000000 -0.000117
vn -0.000029 1.000000 -0.000109
vn 0.000014 1.000000 -0.000089
vn 0.000014 1.000000 -0.000089
vn 0.000056 1.000000 -0.000069
vn -0.195788 0.039306 0.979858
vn -0.195788 0.039306 0.979858
vn -0.195788 0.039306 0.979858
vn -0.000097 1.000000 -0.000064
vn -0.000030 1.000000 -0.000096
vn -0.000030 1.000000 -0.000096
vn 0.000037 1.000000 -0.000128
vn 0.000171 1.000000 -0.000078
vn 0.000111 1.000000 -0.000092
vn 0.000111 1.000000 -0.000092
vn 0.000051 1.000000 -0.000106
vn -0.527593 0.849497 -0.000758
vn -0.522546 0.852535 0.011386
vn -0.522546 0.852535 0.011386
vn -0.517403 0.855418 0.023529
vn -0.002639 0.049690 0.998761
vn -0.001155 0.049145 0.998791
vn -0.001155 0.049145 0.998791
vn 0.000329 0.048600 0.998818
vn -0.000029 1.000000 -0.000104
vn -0.000021 1.000000 -0.000101
vn -0.000021 1.000000 -0.000101
vn -0.000014 1.000000 -0.000098
vn -0.000004 1.000000 -0.000002
vn -0.000001 1.000000 -0.000001
vn -0.000002 1.000000 -0.000001
vn 0.000000 1.000000 0.000000
vn 0.000000 1.000000 0.000000
vn -0.000008 1.000000 0.000000
vn -0.000007 1.000000 -0.000000
vn -0.000007 1.000000 -0.000000
vn -0.000007 1.000000 -0.000000
vn -0.094244 -0.112347 0.989190
vn -0.029904 -0.222599 0.974451
vn -0.029904 -0.222599 0.974451
vn 0.034931 -0.329176 0.943622
vn -0.142051 -0.105080 0.984266
vn 0.080082 -0.136275 0.987429
vn 0.080082 -0.136275 0.987429
vn 0.298186 -0.160611 0.940898
vn 0.062231 -0.067722 0.995762
vn 0.062231 -0.067722 0.995762
vn 0.062231 -0.067722 0.995762
vn 0.529508 0.848222 0.011853
vn 0.531660 0.846931 0.006709
vn 0.531660 0.846931 0.006709
vn 0.533795 0.845612 0.001565
vn -0.998088 -0.008921 0.061163
vn -0.998411 -0.007643 0.055835
vn -0.998411 -0.007643 0.055835
vn -0.998704 -0.006364 0.050505
vn -0.048614 0.105814 0.993197
vn -0.048614 0.105814 0.993197
vn -0.048614 0.105814 0.993197
vn 0.629483 0.134283 0.765323
vn 0.629483 0.134283 0.765323
vn 0.629483 0.134283 0.765323
vn 0.000044 1.000000 0.000000
vn 0.000044 1.000000 0.000000
vn 0.000044 1.000000 0.000000
vn 0.844603 0.535390 0.001765
vn 0.842726 0.538335 0.002910
vn 0.842726 0.538335 0.002910
vn 0.840838 0.541272 0.004055
vn -0.035114 0.164796 0.985703
vn -0.042505 0.184448 0.981923
vn -0.042505 0.184448 0.981923
vn -0.049876 0.204017 0.977696
vn 0.210535 0.022972 0.977316
vn 0.210535 0.022972 0.977316
vn 0.210535 0.022972 0.977316
vn -0.904759 0.425916 -0.002551
vn -0.906494 0.422217 -0.001019
vn -0.906494 0.422217 -0.001019
vn -0.908212 0.418510 0.000513
vn 0.029735 -0.068545 0.997205
vn 0.029735 -0.068545 0.997205
vn 0.029735 -0.068545 0.997205
vn 0.000004 1.000000 -0.000015
vn 0.000004 1.000000 -0.000015
vn 0.000004 1.000000 -0.000015
vn 0.000008 1.000000 0.000007
vn 0.000004 1.000000 0.000004
vn 0.000004 1.000000 0.000004
vn 0.000000 1.000000 0.000000
vn 0.998568 0.048473 0.022642
vn 0.998425 0.052873 0.018744
vn 0.998425 0.052873 0.018744
vn 0.998248 0.057271 0.014846
f 39/62/1 67/64/2 49/52/3
f 49/52/3 67/64/2 70/70/4
f 38/35/5 49/52/6 3/3/7
f 3/3/7 49/52/6 70/70/8
f 2/2/9 65/4/10 94/104/11
f 94/104/11 65/4/10 5/6/12
f 64/54/13 63/8/14 5/6/15
f 5/6/15 63/8/14 94/104/16
f 11/11/17 12/12/18 6/7/19
f 6/7/19 12/12/18 27/25/20
f 12/12/18 10/10/21 27/25/20
f 10/10/21 9/9/22 27/25/20
f 13/13/23 12/12/24 7/91/25
f 7/91/25 12/12/24 11/11/26
f 67/14/27 39/63/28 15/65/29
f 68/68/30 17/17/31 69/69/32
f 17/17/31 15/65/29 69/69/32
f 15/65/29 39/63/28 69/69/32
f 88/88/33 22/21/34 23/66/35
f 89/89/36 90/90/37 40/38/38
f 25/23/39 30/27/40 90/90/37
f 90/90/37 30/27/40 40/38/38
f 22/21/41 18/18/42 23/92/43
f 23/92/43 18/18/42 19/19/44
f 86/86/45 47/48/46 27/25/47
f 27/25/47 47/48/46 28/26/48
f 76/76/49 78/78/50 79/79/51
f 96/106/52 34/31/53 95/105/54
f 95/105/54 34/31/53 32/29/55
f 36/33/56 35/32/57 37/34/58
f 79/79/59 80/80/60 76/76/61
f 2/2/62 1/1/63 65/4/64
f 65/4/64 1/1/63 66/36/65
f 22/21/66 88/88/67 18/18/68
f 88/88/67 89/89/69 18/18/68
f 40/38/70 56/55/71 89/89/69
f 18/18/68 89/89/69 56/55/71
f 57/56/72 41/39/73 56/55/74
f 56/55/74 41/39/73 29/93/75
f 56/55/76 40/38/77 71/71/78
f 30/27/79 72/72/80 40/38/77
f 72/72/80 71/71/78 40/38/77
f 44/42/81 43/41/82 52/51/83
f 52/51/83 43/41/82 53/43/84
f 45/44/85 60/45/86 62/37/87
f 62/37/87 60/45/86 61/57/88
f 28/26/89 48/49/90 27/25/91
f 27/25/91 48/49/90 6/7/92
f 48/49/90 42/40/93 6/7/92
f 42/40/93 50/53/94 6/7/92
f 54/50/95 33/30/96 52/51/97
f 52/51/97 33/30/96 44/42/98
f 66/36/99 62/37/100 38/35/101
f 38/35/101 62/37/100 49/52/102
f 75/75/103 4/5/104 10/10/105
f 10/10/105 4/5/104 9/9/106
f 71/71/107 57/56/108 56/55/109
f 1/1/110 45/44/111 66/36/112
f 66/36/112 45/44/111 62/37/113
f 59/58/114 69/69/115 14/61/116
f 14/61/116 69/69/115 39/63/117
f 21/60/118 20/20/119 59/59/120
f 59/59/120 20/20/119 73/73/121
f 74/74/122 15/15/123 16/16/124
f 16/16/124 15/15/123 17/67/125
f 10/10/126 64/54/127 75/75/128
f 75/75/128 64/54/127 5/6/129
f 80/80/130 95/105/131 76/76/132
f 76/76/132 95/105/131 44/42/133
f 95/105/131 32/29/134 44/42/133
f 33/30/135 77/77/136 44/42/137
f 44/42/137 77/77/136 76/76/138
f 78/78/139 31/28/140 79/79/141
f 79/79/141 31/28/140 46/47/142
f 37/34/143 80/80/144 46/47/145
f 46/47/145 80/80/144 79/79/146
f 81/81/147 80/80/148 37/34/149
f 83/83/150 85/85/151 82/82/152
f 82/82/152 85/85/151 84/84/153
f 55/46/154 87/87/155 74/74/156
f 74/74/156 87/87/155 15/15/157
f 24/22/158 88/88/159 23/66/160
f 89/89/161 88/88/162 24/22/163
f 92/98/164 90/90/165 89/89/166
f 21/94/167 58/95/168 20/97/169
f 20/97/169 58/95/168 91/96/170
f 26/24/171 92/98/172 24/22/173
f 24/22/173 92/98/172 89/89/174
f 30/27/175 93/99/176 72/72/177
f 85/100/178 8/101/179 84/103/180
f 84/103/180 8/101/179 51/102/181
f 37/34/182 35/32/183 81/81/184
f 77/77/185 78/78/186 76/76/187
f 80/80/188 81/81/189 95/105/190
f 81/81/189 35/32/191 95/105/190
f 36/33/192 96/106/193 35/32/194
f 35/32/194 96/106/193 95/105/195
