# This file uses centimeters as units for non-parametric coordinates.

v -0.027704 0.023638 0.085690
v 0.000430 0.026776 0.102621
v 0.029130 0.023638 0.085690
v -0.046355 0.054838 -0.002037
v -0.004581 0.058069 -0.006536
v 0.038960 0.049253 -0.005310
v -0.045475 0.048468 -0.089897
v -0.001894 0.050788 -0.072882
v 0.035027 0.038872 -0.067585
v -0.064892 0.007617 -0.114132
v -0.000781 0.012978 -0.142033
v 0.061755 0.000665 -0.094457
v -0.053235 -0.064347 -0.121160
v 0.011871 -0.084855 -0.123687
v 0.050075 -0.066899 -0.113405
v -0.047241 -0.062703 -0.002038
v 0.000247 -0.066976 -0.002038
v 0.046644 -0.063828 -0.006536
v -0.028537 -0.026963 0.083127
v 0.000430 -0.026079 0.100059
v 0.029905 -0.026963 0.083128
v -0.035888 -0.006023 0.089242
v 0.000430 -0.006023 0.106173
v 0.036747 -0.006023 0.089243
v 0.058109 -0.003241 -0.006536
v -0.059637 -0.002116 -0.002038
v -0.047570 0.055962 -0.049794
v -0.000046 0.056441 -0.051702
v 0.033031 0.040805 -0.048800
v 0.045035 0.001602 -0.060562
v 0.041497 -0.045355 -0.057889
v -0.000046 -0.056528 -0.059339
v -0.055640 -0.057070 -0.063961
v -0.069955 -0.000647 -0.065014
v -0.051720 0.008481 -0.138361
v 0.015498 -0.046637 -0.153891
v 0.041557 0.007447 -0.130310
v -0.003583 0.038791 -0.107365
v -0.038260 0.044910 -0.126770
v -0.039254 -0.039299 -0.148984
v 0.024669 0.034125 -0.114160
v 0.038561 -0.047121 -0.141649
v -0.037514 0.037529 0.062186
v -0.001229 0.047802 0.069993
v 0.037173 0.036678 0.062676
v 0.049253 -0.006204 0.062108
v 0.039456 -0.039946 0.058594
v -0.000219 -0.042595 0.064459
v -0.038994 -0.040346 0.056969
v -0.050147 -0.005750 0.054985
vt 0.441114 0.132662
vt 0.476548 0.132662
vt 0.476548 0.175565
vt 0.441114 0.175565
vt 0.520989 0.132662
vt 0.520989 0.175565
vt 0.441114 0.230584
vt 0.476548 0.230584
vt 0.476548 0.263421
vt 0.441114 0.263421
vt 0.520989 0.230584
vt 0.520989 0.263421
vt 0.573214 0.263421
vt 0.408103 0.325852
vt 0.441114 0.308023
vt 0.573214 0.308023
vt 0.476548 0.308023
vt 0.617370 0.308023
vt 0.617370 0.263421
vt 0.677226 0.325852
vt 0.677226 0.263421
vt 0.658228 0.263421
vt 0.658228 0.308023
vt 0.617370 0.230584
vt 0.573214 0.230584
vt 0.658228 0.230584
vt 0.573214 0.175565
vt 0.617370 0.175565
vt 0.617370 0.132662
vt 0.573214 0.132662
vt 0.658228 0.175565
vt 0.658228 0.132662
vt 0.573214 0.108197
vt 0.617370 0.108197
vt 0.617370 0.092102
vt 0.553265 0.092102
vt 0.658228 0.108197
vt 0.677226 0.092102
vt 0.677226 0.132662
vt 0.677226 0.175565
vt 0.476548 0.325852
vt 0.520989 0.308023
vt 0.408103 0.092102
vt 0.677226 0.230584
vt 0.553265 0.132662
vt 0.553265 0.175565
vt 0.553265 0.230584
vt 0.553265 0.263421
vt 0.553265 0.325852
vt 0.617370 0.325852
vt 0.476548 0.092102
vt 0.476548 0.108197
vt 0.441114 0.108197
vt 0.544511 0.092102
vt 0.520989 0.108197
vt 0.544511 0.132662
vt 0.544511 0.175565
vt 0.544511 0.230584
vt 0.544511 0.263421
vt 0.408103 0.132662
vt 0.408103 0.175565
vt 0.408103 0.230584
vt 0.408103 0.263421
vt 0.544511 0.325852
vn -0.005006 0.901167 0.433443
vn 0.088514 0.994064 0.063266
vn -0.675982 0.645494 0.355508
vn -0.639510 0.751936 0.160062
vn 0.681525 0.672882 0.287670
vn 0.653246 0.756146 -0.038896
vn 0.238139 0.963322 -0.123697
vn 0.136508 0.956035 -0.259544
vn -0.509368 0.857944 -0.066902
vn -0.473219 0.861002 -0.186387
vn 0.716478 0.689818 -0.103970
vn 0.672337 0.739087 -0.041407
vn -0.534456 0.241082 -0.810084
vn -0.285703 0.780095 -0.556619
vn 0.112676 0.481122 -0.869383
vn 0.159038 0.911410 -0.379525
vn 0.379194 0.824221 -0.420560
vn -0.629112 -0.749285 -0.206858
vn -0.443493 -0.215835 -0.869902
vn 0.096889 -0.895379 -0.434636
vn 0.205509 -0.137734 -0.968915
vn 0.578369 0.378077 -0.722874
vn 0.974274 0.219590 -0.050702
vn 0.685455 -0.235983 -0.688813
vn 0.730402 -0.683005 0.004236
vn 0.063303 -0.995923 0.064266
vn -0.806186 -0.590970 0.028592
vn 0.874796 -0.480400 0.062831
vn -0.531450 -0.840490 0.105536
vn -0.005561 -0.983624 0.180146
vn -0.612805 -0.682859 0.397710
vn -0.004778 -0.905530 0.424255
vn 0.591683 -0.805070 -0.042103
vn 0.612069 -0.689075 0.388004
vn -0.003995 -0.674349 0.738402
vn -0.001736 -0.094929 0.995483
vn -0.541295 -0.558680 0.628392
vn -0.717899 -0.077539 0.691816
vn 0.528805 -0.561387 0.636561
vn 0.705009 -0.077211 0.704983
vn -0.620442 0.414961 0.665476
vn -0.008227 0.540412 0.841361
vn 0.614557 0.432635 0.659656
vn 0.938314 -0.033007 0.344205
vn 0.996736 0.071694 -0.037109
vn 0.980007 0.168431 0.105909
vn -0.937866 -0.040470 0.344629
vn -0.988464 0.011898 0.150986
vn -0.989789 0.142385 0.006707
vn -0.953532 0.118944 -0.276818
f 44/2/1 5/3/2 43/1/3
f 43/1/3 5/3/2 4/4/4
f 44/2/1 45/5/5 5/3/2
f 5/3/2 45/5/5 6/6/6
f 28/8/7 8/9/8 27/7/9
f 27/7/9 8/9/8 7/10/10
f 29/11/11 9/12/12 28/8/7
f 28/8/7 9/12/12 8/9/8
f 35/14/13 39/15/14 11/41/15
f 11/41/15 39/15/14 38/17/16
f 9/12/12 41/42/17 8/9/8
f 8/9/8 41/42/17 38/17/16
f 13/13/18 40/16/19 14/19/20
f 14/19/20 40/16/19 36/18/21
f 37/20/22 12/21/23 42/23/24
f 42/23/24 12/21/23 15/22/25
f 14/19/20 32/24/26 13/13/18
f 13/13/18 32/24/26 33/25/27
f 14/19/20 15/22/25 32/24/26
f 32/24/26 15/22/25 31/26/28
f 16/27/29 17/28/30 49/30/31
f 49/30/31 17/28/30 48/29/32
f 18/31/33 47/32/34 17/28/30
f 17/28/30 47/32/34 48/29/32
f 20/34/35 23/35/36 19/33/37
f 19/33/37 23/35/36 22/36/38
f 20/34/35 21/37/39 23/35/36
f 23/35/36 21/37/39 24/38/40
f 22/43/38 23/51/36 1/53/41
f 1/53/41 23/51/36 2/52/42
f 24/54/40 3/55/43 23/51/36
f 23/51/36 3/55/43 2/52/42
f 46/39/44 47/32/34 25/40/45
f 25/40/45 47/32/34 18/31/33
f 46/56/44 25/57/45 45/5/5
f 45/5/5 25/57/45 6/6/6
f 30/44/46 31/26/28 12/21/23
f 12/21/23 31/26/28 15/22/25
f 29/11/11 30/58/46 9/12/12
f 9/12/12 30/58/46 12/59/23
f 50/45/47 26/46/48 49/30/31
f 49/30/31 26/46/48 16/27/29
f 50/60/47 43/1/3 26/61/48
f 26/61/48 43/1/3 4/4/4
f 34/47/49 10/48/50 33/25/27
f 33/25/27 10/48/50 13/13/18
f 27/7/9 7/10/10 34/62/49
f 34/62/49 7/10/10 10/63/50
f 4/4/4 5/3/2 27/7/9
f 27/7/9 5/3/2 28/8/7
f 6/6/6 29/11/11 5/3/2
f 5/3/2 29/11/11 28/8/7
f 6/6/6 25/57/45 29/11/11
f 29/11/11 25/57/45 30/58/46
f 18/31/33 31/26/28 25/40/45
f 25/40/45 31/26/28 30/44/46
f 31/26/28 18/31/33 32/24/26
f 32/24/26 18/31/33 17/28/30
f 33/25/27 32/24/26 16/27/29
f 16/27/29 32/24/26 17/28/30
f 16/27/29 26/46/48 33/25/27
f 33/25/27 26/46/48 34/47/49
f 4/4/4 27/7/9 26/61/48
f 26/61/48 27/7/9 34/62/49
f 35/49/13 11/50/15 40/16/19
f 40/16/19 11/50/15 36/18/21
f 11/50/15 37/20/22 36/18/21
f 36/18/21 37/20/22 42/23/24
f 38/17/16 41/42/17 11/41/15
f 11/41/15 41/42/17 37/64/22
f 7/10/10 39/15/14 10/63/50
f 10/63/50 39/15/14 35/14/13
f 8/9/8 38/17/16 7/10/10
f 7/10/10 38/17/16 39/15/14
f 35/49/13 40/16/19 10/48/50
f 10/48/50 40/16/19 13/13/18
f 9/12/12 12/59/23 41/42/17
f 41/42/17 12/59/23 37/64/22
f 15/22/25 14/19/20 42/23/24
f 42/23/24 14/19/20 36/18/21
f 2/52/42 44/2/1 1/53/41
f 1/53/41 44/2/1 43/1/3
f 2/52/42 3/55/43 44/2/1
f 44/2/1 3/55/43 45/5/5
f 24/54/40 46/56/44 3/55/43
f 3/55/43 46/56/44 45/5/5
f 24/38/40 21/37/39 46/39/44
f 46/39/44 21/37/39 47/32/34
f 47/32/34 21/37/39 48/29/32
f 48/29/32 21/37/39 20/34/35
f 49/30/31 48/29/32 19/33/37
f 19/33/37 48/29/32 20/34/35
f 22/36/38 50/45/47 19/33/37
f 19/33/37 50/45/47 49/30/31
f 22/43/38 1/53/41 50/60/47
f 50/60/47 1/53/41 43/1/3
